<?xml version="1.0" encoding="UTF-8" standalone="no"?>
<!DOCTYPE svg PUBLIC "-//W3C//DTD SVG 1.1//EN"
 "http://www.w3.org/Graphics/SVG/1.1/DTD/svg11.dtd">
<!-- Generated by graphviz version 2.44.0 (0)
 -->
<!-- Title: core/account.h Pages: 1 -->
<svg width="150pt" height="140pt"
 viewBox="0.00 0.00 149.50 140.00" xmlns="http://www.w3.org/2000/svg" xmlns:xlink="http://www.w3.org/1999/xlink">
<g id="graph0" class="graph" transform="scale(1 1) rotate(0) translate(4 136)">
<title>core/account.h</title>
<polygon fill="white" stroke="transparent" points="-4,4 -4,-136 145.5,-136 145.5,4 -4,4"/>
<!-- Node1 -->
<g id="node1" class="node">
<title>Node1</title>
<g id="a_node1"><a xlink:title=" ">
<polygon fill="#bfbfbf" stroke="black" points="26,-112.5 26,-131.5 106,-131.5 106,-112.5 26,-112.5"/>
<text text-anchor="middle" x="66" y="-119.5" font-family="Helvetica" font-size="10.00">core/account.h</text>
</a>
</g>
</g>
<!-- Node2 -->
<g id="node2" class="node">
<title>Node2</title>
<g id="a_node2"><a xlink:title=" ">
<polygon fill="white" stroke="#bfbfbf" points="0,-0.5 0,-19.5 56,-19.5 56,-0.5 0,-0.5"/>
<text text-anchor="middle" x="28" y="-7.5" font-family="Helvetica" font-size="10.00">stdbool.h</text>
</a>
</g>
</g>
<!-- Node1&#45;&gt;Node2 -->
<g id="edge1" class="edge">
<title>Node1&#45;&gt;Node2</title>
<path fill="none" stroke="midnightblue" d="M55.29,-112.3C46.06,-104.07 33.41,-90.79 28,-76 22.6,-61.25 23.08,-43.32 24.63,-30.03"/>
<polygon fill="midnightblue" stroke="midnightblue" points="28.15,-30.15 26.16,-19.74 21.23,-29.12 28.15,-30.15"/>
</g>
<!-- Node3 -->
<g id="node3" class="node">
<title>Node3</title>
<g id="a_node3"><a xlink:href="mutt_2lib_8h.html" target="_top" xlink:title=" ">
<polygon fill="white" stroke="red" points="84.5,-0.5 84.5,-19.5 141.5,-19.5 141.5,-0.5 84.5,-0.5"/>
<text text-anchor="middle" x="113" y="-7.5" font-family="Helvetica" font-size="10.00">mutt/lib.h</text>
</a>
</g>
</g>
<!-- Node1&#45;&gt;Node3 -->
<g id="edge2" class="edge">
<title>Node1&#45;&gt;Node3</title>
<path fill="none" stroke="midnightblue" d="M75.89,-112.43C84.81,-104.09 97.5,-90.57 104,-76 110.46,-61.51 112.55,-43.56 113.12,-30.19"/>
<polygon fill="midnightblue" stroke="midnightblue" points="116.63,-29.89 113.3,-19.83 109.63,-29.77 116.63,-29.89"/>
</g>
<!-- Node48 -->
<g id="node4" class="node">
<title>Node48</title>
<g id="a_node4"><a xlink:href="mailbox_8h.html" target="_top" xlink:title=" ">
<polygon fill="white" stroke="red" points="37,-56.5 37,-75.5 95,-75.5 95,-56.5 37,-56.5"/>
<text text-anchor="middle" x="66" y="-63.5" font-family="Helvetica" font-size="10.00">mailbox.h</text>
</a>
</g>
</g>
<!-- Node1&#45;&gt;Node48 -->
<g id="edge3" class="edge">
<title>Node1&#45;&gt;Node48</title>
<path fill="none" stroke="midnightblue" d="M66,-112.08C66,-105.01 66,-94.86 66,-85.99"/>
<polygon fill="midnightblue" stroke="midnightblue" points="69.5,-85.75 66,-75.75 62.5,-85.75 69.5,-85.75"/>
</g>
<!-- Node48&#45;&gt;Node2 -->
<g id="edge4" class="edge">
<title>Node48&#45;&gt;Node2</title>
<path fill="none" stroke="midnightblue" d="M59.73,-56.08C54.36,-48.46 46.48,-37.26 39.92,-27.94"/>
<polygon fill="midnightblue" stroke="midnightblue" points="42.78,-25.91 34.16,-19.75 37.05,-29.94 42.78,-25.91"/>
</g>
<!-- Node48&#45;&gt;Node3 -->
<g id="edge5" class="edge">
<title>Node48&#45;&gt;Node3</title>
<path fill="none" stroke="midnightblue" d="M73.76,-56.08C80.54,-48.3 90.54,-36.8 98.76,-27.37"/>
<polygon fill="midnightblue" stroke="midnightblue" points="101.46,-29.59 105.38,-19.75 96.18,-25 101.46,-29.59"/>
</g>
</g>
</svg>
