<?xml version="1.0" encoding="UTF-8" standalone="no"?>
<!DOCTYPE svg PUBLIC "-//W3C//DTD SVG 1.1//EN"
 "http://www.w3.org/Graphics/SVG/1.1/DTD/svg11.dtd">
<!-- Generated by graphviz version 2.40.1 (20161225.0304)
 -->
<!-- Title: create_menu Pages: 1 -->
<svg width="416pt" height="382pt"
 viewBox="0.00 0.00 416.00 381.50" xmlns="http://www.w3.org/2000/svg" xmlns:xlink="http://www.w3.org/1999/xlink">
<g id="graph0" class="graph" transform="scale(1 1) rotate(0) translate(4 377.5)">
<title>create_menu</title>
<polygon fill="#ffffff" stroke="transparent" points="-4,4 -4,-377.5 412,-377.5 412,4 -4,4"/>
<!-- Node1060 -->
<g id="node1" class="node">
<title>Node1060</title>
<polygon fill="#bfbfbf" stroke="#000000" points="0,-171.5 0,-190.5 80,-190.5 80,-171.5 0,-171.5"/>
<text text-anchor="middle" x="40" y="-178.5" font-family="Helvetica,sans-Serif" font-size="10.00" fill="#000000">create_menu</text>
</g>
<!-- Node1061 -->
<g id="node2" class="node">
<title>Node1061</title>
<g id="a_node2"><a xlink:href="autocrypt__private_8h.html#aa280e1078cc60f4e8bd179d6eb0c313c" target="_top" xlink:title="Get all accounts from an Autocrypt database. ">
<polygon fill="#ffffff" stroke="#ff0000" points="116,-343 116,-373 268,-373 268,-343 116,-343"/>
<text text-anchor="start" x="124" y="-361" font-family="Helvetica,sans-Serif" font-size="10.00" fill="#000000">mutt_autocrypt_db_account</text>
<text text-anchor="middle" x="192" y="-350" font-family="Helvetica,sans-Serif" font-size="10.00" fill="#000000">_get_all</text>
</a>
</g>
</g>
<!-- Node1060&#45;&gt;Node1061 -->
<g id="edge1" class="edge">
<title>Node1060&#45;&gt;Node1061</title>
<path fill="none" stroke="#191970" d="M42.1157,-190.7963C48.4132,-217.6126 69.5602,-292.8835 116,-333 117.9774,-334.7082 120.0746,-336.3003 122.2633,-337.7842"/>
<polygon fill="#191970" stroke="#191970" points="120.7063,-340.9291 131.0992,-342.9878 124.2586,-334.8973 120.7063,-340.9291"/>
</g>
<!-- Node1069 -->
<g id="node3" class="node">
<title>Node1069</title>
<g id="a_node3"><a xlink:href="menu_8c.html#a8034d82776d0c709ed9d9521fd09948e" target="_top" xlink:title="Create a new Menu. ">
<polygon fill="#ffffff" stroke="#ff0000" points="143,-304.5 143,-323.5 241,-323.5 241,-304.5 143,-304.5"/>
<text text-anchor="middle" x="192" y="-311.5" font-family="Helvetica,sans-Serif" font-size="10.00" fill="#000000">mutt_menu_new</text>
</a>
</g>
</g>
<!-- Node1060&#45;&gt;Node1069 -->
<g id="edge2" class="edge">
<title>Node1060&#45;&gt;Node1069</title>
<path fill="none" stroke="#191970" d="M44.1241,-190.7609C53.6042,-212.0268 79.0108,-262.8091 116,-290 121.9018,-294.3384 128.6126,-297.9088 135.5454,-300.8434"/>
<polygon fill="#191970" stroke="#191970" points="134.4906,-304.1866 145.0818,-304.4633 136.9748,-297.6422 134.4906,-304.1866"/>
</g>
<!-- Node1065 -->
<g id="node4" class="node">
<title>Node1065</title>
<g id="a_node4"><a xlink:href="memory_8c.html#a4c1612d209c7825d55e6a014df352f03" target="_top" xlink:title="Allocate zeroed memory on the heap. ">
<polygon fill="#ffffff" stroke="#ff0000" points="304,-266.5 304,-285.5 408,-285.5 408,-266.5 304,-266.5"/>
<text text-anchor="middle" x="356" y="-273.5" font-family="Helvetica,sans-Serif" font-size="10.00" fill="#000000">mutt_mem_calloc</text>
</a>
</g>
</g>
<!-- Node1060&#45;&gt;Node1065 -->
<g id="edge7" class="edge">
<title>Node1060&#45;&gt;Node1065</title>
<path fill="none" stroke="#191970" d="M46.1304,-190.5887C57.5362,-207.4787 83.8065,-242.1496 116,-257 172.1017,-282.879 243.4322,-285.2071 293.7008,-282.5532"/>
<polygon fill="#191970" stroke="#191970" points="294.0097,-286.041 303.7786,-281.9398 293.5844,-279.0539 294.0097,-286.041"/>
</g>
<!-- Node1074 -->
<g id="node5" class="node">
<title>Node1074</title>
<g id="a_node5"><a xlink:href="acct__menu_8c.html#ad8b44baf475276e5104c26595a99e71a" target="_top" xlink:title="Create a line for the Autocrypt account menu &#45; Implements Menu::make_entry() ">
<polygon fill="#ffffff" stroke="#ff0000" points="132.5,-228.5 132.5,-247.5 251.5,-247.5 251.5,-228.5 132.5,-228.5"/>
<text text-anchor="middle" x="192" y="-235.5" font-family="Helvetica,sans-Serif" font-size="10.00" fill="#000000">account_make_entry</text>
</a>
</g>
</g>
<!-- Node1060&#45;&gt;Node1074 -->
<g id="edge4" class="edge">
<title>Node1060&#45;&gt;Node1074</title>
<path fill="none" stroke="#191970" d="M56.4336,-190.5368C71.5185,-198.9678 94.6933,-211.1181 116,-219 122.7526,-221.4979 129.9623,-223.7752 137.1513,-225.8164"/>
<polygon fill="#191970" stroke="#191970" points="136.3299,-229.2199 146.8969,-228.4518 138.1573,-222.4626 136.3299,-229.2199"/>
</g>
<!-- Node1101 -->
<g id="node6" class="node">
<title>Node1101</title>
<g id="a_node6"><a xlink:href="memory_8c.html#a264da4dc58e6dc8983285bd1f538f24d" target="_top" xlink:title="Allocate memory on the heap. ">
<polygon fill="#ffffff" stroke="#ff0000" points="137.5,-190.5 137.5,-209.5 246.5,-209.5 246.5,-190.5 137.5,-190.5"/>
<text text-anchor="middle" x="192" y="-197.5" font-family="Helvetica,sans-Serif" font-size="10.00" fill="#000000">mutt_mem_malloc</text>
</a>
</g>
</g>
<!-- Node1060&#45;&gt;Node1101 -->
<g id="edge5" class="edge">
<title>Node1060&#45;&gt;Node1101</title>
<path fill="none" stroke="#191970" d="M80.3341,-186.0418C94.6914,-187.8364 111.2448,-189.9056 127.1346,-191.8918"/>
<polygon fill="#191970" stroke="#191970" points="127.0938,-195.4139 137.4508,-193.1813 127.9621,-188.4679 127.0938,-195.4139"/>
</g>
<!-- Node1102 -->
<g id="node7" class="node">
<title>Node1102</title>
<g id="a_node7"><a xlink:href="help_8c.html#a1ebab39bff585dda72f9955e183176c4" target="_top" xlink:title="Create the text for the help menu. ">
<polygon fill="#ffffff" stroke="#ff0000" points="137,-152.5 137,-171.5 247,-171.5 247,-152.5 137,-152.5"/>
<text text-anchor="middle" x="192" y="-159.5" font-family="Helvetica,sans-Serif" font-size="10.00" fill="#000000">mutt_compile_help</text>
</a>
</g>
</g>
<!-- Node1060&#45;&gt;Node1102 -->
<g id="edge6" class="edge">
<title>Node1060&#45;&gt;Node1102</title>
<path fill="none" stroke="#191970" d="M80.3341,-175.9582C94.5471,-174.1816 110.9123,-172.136 126.6553,-170.1681"/>
<polygon fill="#191970" stroke="#191970" points="127.3933,-173.6032 136.8819,-168.8898 126.525,-166.6572 127.3933,-173.6032"/>
</g>
<!-- Node1108 -->
<g id="node8" class="node">
<title>Node1108</title>
<g id="a_node8"><a xlink:href="address_2address_8c.html#ac9b323dadeb2a55ce6e9cd4763b9d832" target="_top" xlink:title="Create a new Address. ">
<polygon fill="#ffffff" stroke="#000000" points="146,-114.5 146,-133.5 238,-133.5 238,-114.5 146,-114.5"/>
<text text-anchor="middle" x="192" y="-121.5" font-family="Helvetica,sans-Serif" font-size="10.00" fill="#000000">mutt_addr_new</text>
</a>
</g>
</g>
<!-- Node1060&#45;&gt;Node1108 -->
<g id="edge8" class="edge">
<title>Node1060&#45;&gt;Node1108</title>
<path fill="none" stroke="#191970" d="M56.4336,-171.4632C71.5185,-163.0322 94.6933,-150.8819 116,-143 122.7526,-140.5021 129.9623,-138.2248 137.1513,-136.1836"/>
<polygon fill="#191970" stroke="#191970" points="138.1573,-139.5374 146.8969,-133.5482 136.3299,-132.7801 138.1573,-139.5374"/>
</g>
<!-- Node1067 -->
<g id="node9" class="node">
<title>Node1067</title>
<g id="a_node9"><a xlink:href="mutt_2string_8c.html#ae48085384a6545e0fac589a88243ea31" target="_top" xlink:title="Copy a string, safely. ">
<polygon fill="#ffffff" stroke="#000000" points="145,-76.5 145,-95.5 239,-95.5 239,-76.5 145,-76.5"/>
<text text-anchor="middle" x="192" y="-83.5" font-family="Helvetica,sans-Serif" font-size="10.00" fill="#000000">mutt_str_strdup</text>
</a>
</g>
</g>
<!-- Node1060&#45;&gt;Node1067 -->
<g id="edge10" class="edge">
<title>Node1060&#45;&gt;Node1067</title>
<path fill="none" stroke="#191970" d="M46.7766,-171.4203C58.7953,-155.1695 85.4731,-122.284 116,-105 121.8843,-101.6684 128.3496,-98.9142 134.9483,-96.6388"/>
<polygon fill="#191970" stroke="#191970" points="136.1396,-99.934 144.6595,-93.6362 134.0718,-93.2464 136.1396,-99.934"/>
</g>
<!-- Node1109 -->
<g id="node10" class="node">
<title>Node1109</title>
<g id="a_node10"><a xlink:href="address_2address_8c.html#a95bcf9ec8be0b69b33fadde85800b559" target="_top" xlink:title="Convert an Address from Punycode. ">
<polygon fill="#ffffff" stroke="#ff0000" points="137,-38.5 137,-57.5 247,-57.5 247,-38.5 137,-38.5"/>
<text text-anchor="middle" x="192" y="-45.5" font-family="Helvetica,sans-Serif" font-size="10.00" fill="#000000">mutt_addr_to_local</text>
</a>
</g>
</g>
<!-- Node1060&#45;&gt;Node1109 -->
<g id="edge11" class="edge">
<title>Node1060&#45;&gt;Node1109</title>
<path fill="none" stroke="#191970" d="M43.6049,-171.2888C52.3554,-149.1119 76.9185,-94.5415 116,-67 119.5019,-64.5321 123.2928,-62.3839 127.2483,-60.514"/>
<polygon fill="#191970" stroke="#191970" points="128.7904,-63.6647 136.7186,-56.6367 126.1381,-57.1866 128.7904,-63.6647"/>
</g>
<!-- Node1132 -->
<g id="node11" class="node">
<title>Node1132</title>
<g id="a_node11"><a xlink:href="menu_8c.html#a04f3d31793e49bd9c718fd184ce3d575" target="_top" xlink:title="Add a new Menu to the stack. ">
<polygon fill="#ffffff" stroke="#ff0000" points="121.5,-.5 121.5,-19.5 262.5,-19.5 262.5,-.5 121.5,-.5"/>
<text text-anchor="middle" x="192" y="-7.5" font-family="Helvetica,sans-Serif" font-size="10.00" fill="#000000">mutt_menu_push_current</text>
</a>
</g>
</g>
<!-- Node1060&#45;&gt;Node1132 -->
<g id="edge12" class="edge">
<title>Node1060&#45;&gt;Node1132</title>
<path fill="none" stroke="#191970" d="M41.8807,-171.4126C47.683,-144.4785 67.9005,-67.584 116,-29 118.0886,-27.3246 120.3055,-25.7944 122.6186,-24.3972"/>
<polygon fill="#191970" stroke="#191970" points="124.6296,-27.3006 131.9489,-19.6404 121.4502,-21.0643 124.6296,-27.3006"/>
</g>
<!-- Node1069&#45;&gt;Node1065 -->
<g id="edge3" class="edge">
<title>Node1069&#45;&gt;Node1065</title>
<path fill="none" stroke="#191970" d="M233.3841,-304.411C255.1232,-299.3739 281.9575,-293.1562 304.9747,-287.8229"/>
<polygon fill="#191970" stroke="#191970" points="305.9616,-291.1871 314.9135,-285.5201 304.3815,-284.3677 305.9616,-291.1871"/>
</g>
<!-- Node1108&#45;&gt;Node1065 -->
<g id="edge9" class="edge">
<title>Node1108&#45;&gt;Node1065</title>
<path fill="none" stroke="#191970" d="M238.1744,-129.7905C248.6327,-132.6109 259.2281,-136.7954 268,-143 309.27,-172.1913 336.4339,-227.3946 348.6206,-256.6585"/>
<polygon fill="#191970" stroke="#191970" points="345.4632,-258.1889 352.4311,-266.1701 351.9611,-255.5857 345.4632,-258.1889"/>
</g>
</g>
</svg>
