<?xml version="1.0" encoding="UTF-8" standalone="no"?>
<!DOCTYPE svg PUBLIC "-//W3C//DTD SVG 1.1//EN"
 "http://www.w3.org/Graphics/SVG/1.1/DTD/svg11.dtd">
<!-- Generated by graphviz version 2.40.1 (20161225.0304)
 -->
<!-- Title: mutt_addrlist_remove_xrefs Pages: 1 -->
<svg width="309pt" height="66pt"
 viewBox="0.00 0.00 309.00 66.00" xmlns="http://www.w3.org/2000/svg" xmlns:xlink="http://www.w3.org/1999/xlink">
<g id="graph0" class="graph" transform="scale(1 1) rotate(0) translate(4 62)">
<title>mutt_addrlist_remove_xrefs</title>
<polygon fill="#ffffff" stroke="transparent" points="-4,4 -4,-62 305,-62 305,4 -4,4"/>
<!-- Node21700 -->
<g id="node1" class="node">
<title>Node21700</title>
<polygon fill="#bfbfbf" stroke="#000000" points="0,-14 0,-44 125,-44 125,-14 0,-14"/>
<text text-anchor="start" x="8" y="-32" font-family="Helvetica,sans-Serif" font-size="10.00" fill="#000000">mutt_addrlist_remove</text>
<text text-anchor="middle" x="62.5" y="-21" font-family="Helvetica,sans-Serif" font-size="10.00" fill="#000000">_xrefs</text>
</g>
<!-- Node21701 -->
<g id="node2" class="node">
<title>Node21701</title>
<g id="a_node2"><a xlink:href="group_8c.html#a4ffe7623a1aebb30f8dc11fb46d7c7c0" target="_top" xlink:title="Add an Address List to a Group. ">
<polygon fill="#ffffff" stroke="#ff0000" points="176,-38.5 176,-57.5 286,-57.5 286,-38.5 176,-38.5"/>
<text text-anchor="middle" x="231" y="-45.5" font-family="Helvetica,sans-Serif" font-size="10.00" fill="#000000">group_add_addrlist</text>
</a>
</g>
</g>
<!-- Node21700&#45;&gt;Node21701 -->
<g id="edge1" class="edge">
<title>Node21700&#45;&gt;Node21701</title>
<path fill="none" stroke="#191970" d="M135.5173,-37.2334C149.0847,-38.7633 163.0479,-40.3377 175.9653,-41.7943"/>
<polygon fill="#191970" stroke="#191970" points="135.5724,-33.7175 125.2432,-36.0749 134.788,-40.6734 135.5724,-33.7175"/>
</g>
<!-- Node21705 -->
<g id="node3" class="node">
<title>Node21705</title>
<g id="a_node3"><a xlink:href="send_8h.html#a527f182325365ed083dad7be735bab25" target="_top" xlink:title="Remove duplicate recipients. ">
<polygon fill="#ffffff" stroke="#ff0000" points="161,-.5 161,-19.5 301,-19.5 301,-.5 161,-.5"/>
<text text-anchor="middle" x="231" y="-7.5" font-family="Helvetica,sans-Serif" font-size="10.00" fill="#000000">mutt_fix_reply_recipients</text>
</a>
</g>
</g>
<!-- Node21700&#45;&gt;Node21705 -->
<g id="edge2" class="edge">
<title>Node21700&#45;&gt;Node21705</title>
<path fill="none" stroke="#191970" d="M135.4276,-20.7767C143.8587,-19.826 152.4439,-18.858 160.8371,-17.9115"/>
<polygon fill="#191970" stroke="#191970" points="134.788,-17.3266 125.2432,-21.9251 135.5724,-24.2825 134.788,-17.3266"/>
</g>
</g>
</svg>
