<?xml version="1.0" encoding="UTF-8" standalone="no"?>
<!DOCTYPE svg PUBLIC "-//W3C//DTD SVG 1.1//EN"
 "http://www.w3.org/Graphics/SVG/1.1/DTD/svg11.dtd">
<!-- Generated by graphviz version 2.40.1 (20161225.0304)
 -->
<!-- Title: mutt_addrlist_qualify Pages: 1 -->
<svg width="274pt" height="66pt"
 viewBox="0.00 0.00 274.00 66.00" xmlns="http://www.w3.org/2000/svg" xmlns:xlink="http://www.w3.org/1999/xlink">
<g id="graph0" class="graph" transform="scale(1 1) rotate(0) translate(4 62)">
<title>mutt_addrlist_qualify</title>
<polygon fill="#ffffff" stroke="transparent" points="-4,4 -4,-62 270,-62 270,4 -4,4"/>
<!-- Node7815 -->
<g id="node1" class="node">
<title>Node7815</title>
<polygon fill="#bfbfbf" stroke="#000000" points="0,-19.5 0,-38.5 121,-38.5 121,-19.5 0,-19.5"/>
<text text-anchor="middle" x="60.5" y="-26.5" font-family="Helvetica,sans-Serif" font-size="10.00" fill="#000000">mutt_addrlist_qualify</text>
</g>
<!-- Node7816 -->
<g id="node2" class="node">
<title>Node7816</title>
<g id="a_node2"><a xlink:href="memory_8c.html#a264da4dc58e6dc8983285bd1f538f24d" target="_top" xlink:title="Allocate memory on the heap. ">
<polygon fill="#ffffff" stroke="#ff0000" points="157,-38.5 157,-57.5 266,-57.5 266,-38.5 157,-38.5"/>
<text text-anchor="middle" x="211.5" y="-45.5" font-family="Helvetica,sans-Serif" font-size="10.00" fill="#000000">mutt_mem_malloc</text>
</a>
</g>
</g>
<!-- Node7815&#45;&gt;Node7816 -->
<g id="edge1" class="edge">
<title>Node7815&#45;&gt;Node7816</title>
<path fill="none" stroke="#191970" d="M121.0474,-36.6185C129.5395,-37.6871 138.2946,-38.7887 146.8592,-39.8664"/>
<polygon fill="#191970" stroke="#191970" points="146.44,-43.3412 156.7987,-41.1171 147.314,-36.3959 146.44,-43.3412"/>
</g>
<!-- Node7818 -->
<g id="node3" class="node">
<title>Node7818</title>
<g id="a_node3"><a xlink:href="mutt_2string_8c.html#acca6786b903b22a5924219f9db96e10d" target="_top" xlink:title="Calculate the length of a string, safely. ">
<polygon fill="#ffffff" stroke="#000000" points="172.5,-.5 172.5,-19.5 250.5,-19.5 250.5,-.5 172.5,-.5"/>
<text text-anchor="middle" x="211.5" y="-7.5" font-family="Helvetica,sans-Serif" font-size="10.00" fill="#000000">mutt_str_len</text>
</a>
</g>
</g>
<!-- Node7815&#45;&gt;Node7818 -->
<g id="edge2" class="edge">
<title>Node7815&#45;&gt;Node7818</title>
<path fill="none" stroke="#191970" d="M121.0474,-21.3815C134.6433,-19.6707 148.913,-17.8752 161.9964,-16.2289"/>
<polygon fill="#191970" stroke="#191970" points="162.7144,-19.6663 172.1992,-14.9451 161.8404,-12.721 162.7144,-19.6663"/>
</g>
</g>
</svg>
