<?xml version="1.0" encoding="UTF-8" standalone="no"?>
<!DOCTYPE svg PUBLIC "-//W3C//DTD SVG 1.1//EN"
 "http://www.w3.org/Graphics/SVG/1.1/DTD/svg11.dtd">
<!-- Generated by graphviz version 7.1.0 (0)
 -->
<!-- Title: mutt_addrlist_write_file Pages: 1 -->
<svg width="310pt" height="64pt"
 viewBox="0.00 0.00 310.00 64.00" xmlns="http://www.w3.org/2000/svg" xmlns:xlink="http://www.w3.org/1999/xlink">
<g id="graph0" class="graph" transform="scale(1 1) rotate(0) translate(4 60)">
<title>mutt_addrlist_write_file</title>
<!-- Node1 -->
<g id="node1" class="node">
<title>Node1</title>
<g id="a_node1"><a xlink:title="Wrapper for mutt_write_address()">
<polygon fill="#999999" stroke="#666666" points="302,-37 177,-37 177,-18 302,-18 302,-37"/>
<text text-anchor="middle" x="239.5" y="-25" font-family="Helvetica,sans-Serif" font-size="10.00">mutt_addrlist_write_file</text>
</a>
</g>
</g>
<!-- Node2 -->
<g id="node2" class="node">
<title>Node2</title>
<g id="a_node2"><a xlink:href="sendlib_8c.html#ae7871ca3c3ec4c32f93348ba08595dfc" target="_top" xlink:title="Bounce an email message.">
<polygon fill="#fff0f0" stroke="red" points="119,-56 22,-56 22,-37 119,-37 119,-56"/>
<text text-anchor="middle" x="70.5" y="-44" font-family="Helvetica,sans-Serif" font-size="10.00">bounce_message</text>
</a>
</g>
</g>
<!-- Node1&#45;&gt;Node2 -->
<g id="edge1" class="edge">
<title>Node1&#45;&gt;Node2</title>
<path fill="none" stroke="#63b8ff" d="M165.53,-35.8C149.9,-37.58 133.78,-39.41 119.39,-41.05"/>
<polygon fill="#63b8ff" stroke="#63b8ff" points="165.75,-39.3 175.29,-34.69 164.95,-32.34 165.75,-39.3"/>
</g>
<!-- Node8 -->
<g id="node3" class="node">
<title>Node8</title>
<g id="a_node3"><a xlink:href="header_8c.html#a00c731e98afb40438296e6a0f47752e7" target="_top" xlink:title="Write out one RFC822 header line.">
<polygon fill="#fff0f0" stroke="red" points="141,-19 0,-19 0,0 141,0 141,-19"/>
<text text-anchor="middle" x="70.5" y="-7" font-family="Helvetica,sans-Serif" font-size="10.00">mutt_rfc822_write_header</text>
</a>
</g>
</g>
<!-- Node1&#45;&gt;Node8 -->
<g id="edge2" class="edge">
<title>Node1&#45;&gt;Node8</title>
<path fill="none" stroke="#63b8ff" d="M165.57,-19.64C157.54,-18.77 149.39,-17.9 141.4,-17.03"/>
<polygon fill="#63b8ff" stroke="#63b8ff" points="164.97,-23.09 175.29,-20.69 165.72,-16.13 164.97,-23.09"/>
</g>
</g>
</svg>
