<?xml version="1.0" encoding="UTF-8" standalone="no"?>
<!DOCTYPE svg PUBLIC "-//W3C//DTD SVG 1.1//EN"
 "http://www.w3.org/Graphics/SVG/1.1/DTD/svg11.dtd">
<!-- Generated by graphviz version 2.40.1 (20161225.0304)
 -->
<!-- Title: address/address.h Pages: 1 -->
<svg width="309pt" height="140pt"
 viewBox="0.00 0.00 308.50 140.00" xmlns="http://www.w3.org/2000/svg" xmlns:xlink="http://www.w3.org/1999/xlink">
<g id="graph0" class="graph" transform="scale(1 1) rotate(0) translate(4 136)">
<title>address/address.h</title>
<polygon fill="#ffffff" stroke="transparent" points="-4,4 -4,-136 304.5,-136 304.5,4 -4,4"/>
<!-- Node44 -->
<g id="node1" class="node">
<title>Node44</title>
<polygon fill="#bfbfbf" stroke="#000000" points="78,-112.5 78,-131.5 183,-131.5 183,-112.5 78,-112.5"/>
<text text-anchor="middle" x="130.5" y="-119.5" font-family="Helvetica,sans-Serif" font-size="10.00" fill="#000000">address/address.h</text>
</g>
<!-- Node45 -->
<g id="node2" class="node">
<title>Node45</title>
<g id="a_node2"><a xlink:href="address_2lib_8h.html" target="_top" xlink:title="Email Address Handling. ">
<polygon fill="#ffffff" stroke="#ff0000" points="0,-.5 0,-19.5 79,-19.5 79,-.5 0,-.5"/>
<text text-anchor="middle" x="39.5" y="-7.5" font-family="Helvetica,sans-Serif" font-size="10.00" fill="#000000">address/lib.h</text>
</a>
</g>
</g>
<!-- Node44&#45;&gt;Node45 -->
<g id="edge1" class="edge">
<title>Node44&#45;&gt;Node45</title>
<path fill="none" stroke="#191970" d="M78.2437,-108.7611C61.6838,-101.8328 45.1819,-91.4452 35.5,-76 24.6473,-58.6871 30.8205,-33.5416 35.5898,-19.8258"/>
<polygon fill="#191970" stroke="#191970" points="77.3585,-112.169 87.9495,-112.4528 79.8471,-105.6263 77.3585,-112.169"/>
</g>
<!-- Node259 -->
<g id="node3" class="node">
<title>Node259</title>
<g id="a_node3"><a xlink:href="group_8h.html" target="_top" xlink:title="Handling for email address groups. ">
<polygon fill="#ffffff" stroke="#000000" points="45,-56.5 45,-75.5 140,-75.5 140,-56.5 45,-56.5"/>
<text text-anchor="middle" x="92.5" y="-63.5" font-family="Helvetica,sans-Serif" font-size="10.00" fill="#000000">address/group.h</text>
</a>
</g>
</g>
<!-- Node44&#45;&gt;Node259 -->
<g id="edge2" class="edge">
<title>Node44&#45;&gt;Node259</title>
<path fill="none" stroke="#191970" d="M118.2321,-103.9209C111.8512,-94.5176 104.3069,-83.3997 99.0432,-75.6427"/>
<polygon fill="#191970" stroke="#191970" points="115.3697,-105.936 123.8809,-112.2455 121.162,-102.0055 115.3697,-105.936"/>
</g>
<!-- Node260 -->
<g id="node4" class="node">
<title>Node260</title>
<g id="a_node4"><a xlink:href="group_8c.html" target="_top" xlink:title="Handling for email address groups. ">
<polygon fill="#ffffff" stroke="#000000" points="109.5,-.5 109.5,-19.5 203.5,-19.5 203.5,-.5 109.5,-.5"/>
<text text-anchor="middle" x="156.5" y="-7.5" font-family="Helvetica,sans-Serif" font-size="10.00" fill="#000000">address/group.c</text>
</a>
</g>
</g>
<!-- Node44&#45;&gt;Node260 -->
<g id="edge6" class="edge">
<title>Node44&#45;&gt;Node260</title>
<path fill="none" stroke="#191970" d="M139.7389,-103.0997C143.3455,-94.9451 147.1673,-85.186 149.5,-76 154.4914,-56.3441 155.9282,-32.5197 156.3388,-19.549"/>
<polygon fill="#191970" stroke="#191970" points="136.454,-101.8633 135.4139,-112.407 142.8021,-104.8133 136.454,-101.8633"/>
</g>
<!-- Node261 -->
<g id="node5" class="node">
<title>Node261</title>
<g id="a_node5"><a xlink:href="address_2address_8c.html" target="_top" xlink:title="Representation of an email address. ">
<polygon fill="#ffffff" stroke="#000000" points="196.5,-56.5 196.5,-75.5 300.5,-75.5 300.5,-56.5 196.5,-56.5"/>
<text text-anchor="middle" x="248.5" y="-63.5" font-family="Helvetica,sans-Serif" font-size="10.00" fill="#000000">address/address.c</text>
</a>
</g>
</g>
<!-- Node44&#45;&gt;Node261 -->
<g id="edge5" class="edge">
<title>Node44&#45;&gt;Node261</title>
<path fill="none" stroke="#191970" d="M160.0547,-107.9741C181.4195,-97.8348 209.7116,-84.408 228.4798,-75.5011"/>
<polygon fill="#191970" stroke="#191970" points="158.3186,-104.9238 150.7849,-112.3733 161.3198,-111.2478 158.3186,-104.9238"/>
</g>
<!-- Node259&#45;&gt;Node45 -->
<g id="edge3" class="edge">
<title>Node259&#45;&gt;Node45</title>
<path fill="none" stroke="#191970" d="M76.2104,-48.7884C67.1438,-39.2085 56.1946,-27.6396 48.6261,-19.6427"/>
<polygon fill="#191970" stroke="#191970" points="73.8522,-51.3884 83.2681,-56.2455 78.9363,-46.5767 73.8522,-51.3884"/>
</g>
<!-- Node259&#45;&gt;Node260 -->
<g id="edge4" class="edge">
<title>Node259&#45;&gt;Node260</title>
<path fill="none" stroke="#191970" d="M111.1914,-49.645C122.3219,-39.9058 136.0663,-27.8795 145.4798,-19.6427"/>
<polygon fill="#191970" stroke="#191970" points="108.869,-47.0264 103.6479,-56.2455 113.4785,-52.2945 108.869,-47.0264"/>
</g>
</g>
</svg>
