<?xml version="1.0" encoding="UTF-8" standalone="no"?>
<!DOCTYPE svg PUBLIC "-//W3C//DTD SVG 1.1//EN"
 "http://www.w3.org/Graphics/SVG/1.1/DTD/svg11.dtd">
<!-- Generated by graphviz version 7.1.0 (0)
 -->
<!-- Title: mutt_addrlist_to_intl Pages: 1 -->
<svg width="476pt" height="488pt"
 viewBox="0.00 0.00 476.00 488.27" xmlns="http://www.w3.org/2000/svg" xmlns:xlink="http://www.w3.org/1999/xlink">
<g id="graph0" class="graph" transform="scale(1 1) rotate(0) translate(4 484.27)">
<title>mutt_addrlist_to_intl</title>
<!-- Node1 -->
<g id="node1" class="node">
<title>Node1</title>
<g id="a_node1"><a xlink:title="Convert an Address list to Punycode.">
<polygon fill="#999999" stroke="#666666" points="468,-254 357,-254 357,-235 468,-235 468,-254"/>
<text text-anchor="middle" x="412.5" y="-242" font-family="Helvetica,sans-Serif" font-size="10.00">mutt_addrlist_to_intl</text>
</a>
</g>
</g>
<!-- Node2 -->
<g id="node2" class="node">
<title>Node2</title>
<g id="a_node2"><a xlink:href="alias_8c.html#a9a5bce1105cd6bfb1f7a614f680dfef2" target="_top" xlink:title="Create a new Alias from an Address.">
<polygon fill="#fff0f0" stroke="red" points="100,-462 30,-462 30,-443 100,-443 100,-462"/>
<text text-anchor="middle" x="65" y="-450" font-family="Helvetica,sans-Serif" font-size="10.00">alias_create</text>
</a>
</g>
</g>
<!-- Node1&#45;&gt;Node2 -->
<g id="edge1" class="edge">
<title>Node1&#45;&gt;Node2</title>
<path fill="none" stroke="#63b8ff" d="M409.67,-265.44C404.59,-309.21 386.05,-409.86 321,-452.5 251.76,-497.88 147.61,-476.96 96.5,-462.39"/>
<polygon fill="#63b8ff" stroke="#63b8ff" points="413.13,-266.06 410.66,-255.76 406.16,-265.35 413.13,-266.06"/>
</g>
<!-- Node4 -->
<g id="node3" class="node">
<title>Node4</title>
<g id="a_node3"><a xlink:href="reverse_8c.html#acbab505cc98b97d6524ed9ceed41f7be" target="_top" xlink:title="Add an email address lookup for an Alias.">
<polygon fill="white" stroke="#666666" points="292.5,-443 194.5,-443 194.5,-424 292.5,-424 292.5,-443"/>
<text text-anchor="middle" x="243.5" y="-431" font-family="Helvetica,sans-Serif" font-size="10.00">alias_reverse_add</text>
</a>
</g>
</g>
<!-- Node1&#45;&gt;Node4 -->
<g id="edge2" class="edge">
<title>Node1&#45;&gt;Node4</title>
<path fill="none" stroke="#63b8ff" d="M406.56,-265.21C396.78,-301.53 371.4,-376.58 321,-415.5 312.79,-421.84 302.72,-426 292.6,-428.72"/>
<polygon fill="#63b8ff" stroke="#63b8ff" points="409.84,-266.5 408.92,-255.95 403.06,-264.77 409.84,-266.5"/>
</g>
<!-- Node5 -->
<g id="node4" class="node">
<title>Node5</title>
<g id="a_node4"><a xlink:href="group__command__parse.html#ga8487d20a2159f19cdf61e8a9030f0e72" target="_top" xlink:title="Parse the &#39;alias&#39; command &#45; Implements Command::parse() &#45;.">
<polygon fill="white" stroke="#666666" points="98.5,-406 31.5,-406 31.5,-387 98.5,-387 98.5,-406"/>
<text text-anchor="middle" x="65" y="-394" font-family="Helvetica,sans-Serif" font-size="10.00">parse_alias</text>
</a>
</g>
</g>
<!-- Node1&#45;&gt;Node5 -->
<g id="edge17" class="edge">
<title>Node1&#45;&gt;Node5</title>
<path fill="none" stroke="#63b8ff" d="M398.67,-263.65C382.99,-285.49 354.38,-320.62 321,-339.5 301.7,-350.42 163.16,-377.9 98.76,-390.28"/>
<polygon fill="#63b8ff" stroke="#63b8ff" points="401.41,-265.84 404.25,-255.63 395.67,-261.84 401.41,-265.84"/>
</g>
<!-- Node6 -->
<g id="node5" class="node">
<title>Node6</title>
<g id="a_node5"><a xlink:href="reverse_8c.html#adcac6af93dc6927de0a242fb1a75577b" target="_top" xlink:title="Remove an email address lookup for an Alias.">
<polygon fill="#fff0f0" stroke="red" points="298.5,-406 188.5,-406 188.5,-387 298.5,-387 298.5,-406"/>
<text text-anchor="middle" x="243.5" y="-394" font-family="Helvetica,sans-Serif" font-size="10.00">alias_reverse_delete</text>
</a>
</g>
</g>
<!-- Node1&#45;&gt;Node6 -->
<g id="edge5" class="edge">
<title>Node1&#45;&gt;Node6</title>
<path fill="none" stroke="#63b8ff" d="M402.62,-264.35C389.03,-292.49 360.44,-343.76 321,-372.5 312.68,-378.57 302.77,-383.13 292.9,-386.55"/>
<polygon fill="#63b8ff" stroke="#63b8ff" points="405.68,-266.07 406.73,-255.52 399.33,-263.11 405.68,-266.07"/>
</g>
<!-- Node10 -->
<g id="node6" class="node">
<title>Node10</title>
<g id="a_node6"><a xlink:href="dlg__query_8c.html#a8e282b40781bf2e94271731b7599b7c0" target="_top" xlink:title="Turn an Alias into an AddressList.">
<polygon fill="#fff0f0" stroke="red" points="288,-330 199,-330 199,-311 288,-311 288,-330"/>
<text text-anchor="middle" x="243.5" y="-318" font-family="Helvetica,sans-Serif" font-size="10.00">alias_to_addrlist</text>
</a>
</g>
</g>
<!-- Node1&#45;&gt;Node10 -->
<g id="edge7" class="edge">
<title>Node1&#45;&gt;Node10</title>
<path fill="none" stroke="#63b8ff" d="M387.08,-260.48C369.28,-271.63 344.31,-286.29 321,-296.5 308.5,-301.97 294.37,-306.77 281.67,-310.61"/>
<polygon fill="#63b8ff" stroke="#63b8ff" points="388.82,-263.52 395.38,-255.19 385.06,-257.61 388.82,-263.52"/>
</g>
<!-- Node18 -->
<g id="node7" class="node">
<title>Node18</title>
<g id="a_node7"><a xlink:href="recvcmd_8c.html#ad980cef4a61d91bec2a7ebce4543f803" target="_top" xlink:title="Bounce function, from the attachment menu.">
<polygon fill="#fff0f0" stroke="red" points="130,-210 0,-210 0,-191 130,-191 130,-210"/>
<text text-anchor="middle" x="65" y="-198" font-family="Helvetica,sans-Serif" font-size="10.00">attach_bounce_message</text>
</a>
</g>
</g>
<!-- Node1&#45;&gt;Node18 -->
<g id="edge8" class="edge">
<title>Node1&#45;&gt;Node18</title>
<path fill="none" stroke="#63b8ff" d="M366.72,-257.28C316.76,-269.42 234.01,-283.14 166,-263.5 129.92,-253.08 94.33,-225.37 76.96,-210.41"/>
<polygon fill="#63b8ff" stroke="#63b8ff" points="367.47,-260.7 376.31,-254.86 365.76,-253.91 367.47,-260.7"/>
</g>
<!-- Node20 -->
<g id="node8" class="node">
<title>Node20</title>
<g id="a_node8"><a xlink:href="main_8c.html#a9fd7b5b9a5546257575fa161d3ef25a7" target="_top" xlink:title="Show config info.">
<polygon fill="#fff0f0" stroke="red" points="276.5,-254 210.5,-254 210.5,-235 276.5,-235 276.5,-254"/>
<text text-anchor="middle" x="243.5" y="-242" font-family="Helvetica,sans-Serif" font-size="10.00">dump_info</text>
</a>
</g>
</g>
<!-- Node1&#45;&gt;Node20 -->
<g id="edge9" class="edge">
<title>Node1&#45;&gt;Node20</title>
<path fill="none" stroke="#63b8ff" d="M345.44,-244.5C321.86,-244.5 296.35,-244.5 276.87,-244.5"/>
<polygon fill="#63b8ff" stroke="#63b8ff" points="345.3,-248 355.3,-244.5 345.3,-241 345.3,-248"/>
</g>
<!-- Node21 -->
<g id="node9" class="node">
<title>Node21</title>
<g id="a_node9"><a xlink:href="envelope_2functions_8c.html#a5036ea85c77aaab2ac0267027c977ab0" target="_top" xlink:title="Let the user edit the address list.">
<polygon fill="#fff0f0" stroke="red" points="289.5,-217 197.5,-217 197.5,-198 289.5,-198 289.5,-217"/>
<text text-anchor="middle" x="243.5" y="-205" font-family="Helvetica,sans-Serif" font-size="10.00">edit_address_list</text>
</a>
</g>
</g>
<!-- Node1&#45;&gt;Node21 -->
<g id="edge10" class="edge">
<title>Node1&#45;&gt;Node21</title>
<path fill="none" stroke="#63b8ff" d="M355.75,-232.15C334.17,-227.37 309.8,-221.97 289.38,-217.44"/>
<polygon fill="#63b8ff" stroke="#63b8ff" points="354.75,-235.51 365.27,-234.26 356.26,-228.68 354.75,-235.51"/>
</g>
<!-- Node27 -->
<g id="node10" class="node">
<title>Node27</title>
<g id="a_node10"><a xlink:href="external_8c.html#a56995e2fd3e24f0a8507b3a05efe6135" target="_top" xlink:title="Bounce an email.">
<polygon fill="#fff0f0" stroke="red" points="128,-149 2,-149 2,-130 128,-130 128,-149"/>
<text text-anchor="middle" x="65" y="-137" font-family="Helvetica,sans-Serif" font-size="10.00">index_bounce_message</text>
</a>
</g>
</g>
<!-- Node1&#45;&gt;Node27 -->
<g id="edge11" class="edge">
<title>Node1&#45;&gt;Node27</title>
<path fill="none" stroke="#63b8ff" d="M405.27,-223.64C394.3,-191.07 368.08,-129.22 321,-103.5 241.75,-60.19 128.8,-107.64 84.67,-129.59"/>
<polygon fill="#63b8ff" stroke="#63b8ff" points="401.92,-224.64 408.29,-233.11 408.59,-222.51 401.92,-224.64"/>
</g>
<!-- Node29 -->
<g id="node11" class="node">
<title>Node29</title>
<g id="a_node11"><a xlink:href="autocrypt_2db_8c.html#a06abfa5c13cc1c6ce053d63c5c692508" target="_top" xlink:title="Normalise a list of Email Addresses.">
<polygon fill="#fff0f0" stroke="red" points="321,-142.5 166,-142.5 166,-112.5 321,-112.5 321,-142.5"/>
<text text-anchor="start" x="174" y="-130.5" font-family="Helvetica,sans-Serif" font-size="10.00">mutt_autocrypt_db_normalize</text>
<text text-anchor="middle" x="243.5" y="-119.5" font-family="Helvetica,sans-Serif" font-size="10.00">_addrlist</text>
</a>
</g>
</g>
<!-- Node1&#45;&gt;Node29 -->
<g id="edge12" class="edge">
<title>Node1&#45;&gt;Node29</title>
<path fill="none" stroke="#63b8ff" d="M397.49,-225.59C381.23,-204.9 352.59,-172.07 321,-152.5 315.06,-148.82 308.52,-145.62 301.85,-142.86"/>
<polygon fill="#63b8ff" stroke="#63b8ff" points="394.66,-227.65 403.51,-233.46 400.21,-223.4 394.66,-227.65"/>
</g>
<!-- Node36 -->
<g id="node12" class="node">
<title>Node36</title>
<g id="a_node12"><a xlink:href="sendlib_8c.html#a7848f294cb015bff75efc45e2d15494c" target="_top" xlink:title="Bounce an email message.">
<polygon fill="white" stroke="#666666" points="305.5,-180 181.5,-180 181.5,-161 305.5,-161 305.5,-180"/>
<text text-anchor="middle" x="243.5" y="-168" font-family="Helvetica,sans-Serif" font-size="10.00">mutt_bounce_message</text>
</a>
</g>
</g>
<!-- Node1&#45;&gt;Node36 -->
<g id="edge13" class="edge">
<title>Node1&#45;&gt;Node36</title>
<path fill="none" stroke="#63b8ff" d="M389.14,-228.26C371.42,-216.06 345.63,-199.76 321,-189.5 312.41,-185.92 302.99,-182.9 293.78,-180.4"/>
<polygon fill="#63b8ff" stroke="#63b8ff" points="386.66,-230.8 396.85,-233.68 390.68,-225.07 386.66,-230.8"/>
</g>
<!-- Node37 -->
<g id="node13" class="node">
<title>Node37</title>
<g id="a_node13"><a xlink:href="send_8c.html#a3a50e112e7c0ddd1270a550e63fdd80f" target="_top" xlink:title="Edit an email address.">
<polygon fill="#fff0f0" stroke="red" points="294.5,-56 192.5,-56 192.5,-37 294.5,-37 294.5,-56"/>
<text text-anchor="middle" x="243.5" y="-44" font-family="Helvetica,sans-Serif" font-size="10.00">mutt_edit_address</text>
</a>
</g>
</g>
<!-- Node1&#45;&gt;Node37 -->
<g id="edge16" class="edge">
<title>Node1&#45;&gt;Node37</title>
<path fill="none" stroke="#63b8ff" d="M406.37,-223.81C396.3,-187.43 370.47,-111.96 321,-70.5 313.43,-64.15 304.17,-59.48 294.74,-56.04"/>
<polygon fill="#63b8ff" stroke="#63b8ff" points="402.88,-224.3 408.81,-233.08 409.65,-222.51 402.88,-224.3"/>
</g>
<!-- Node716 -->
<g id="node14" class="node">
<title>Node716</title>
<g id="a_node14"><a xlink:href="group__command__parse.html#ga18adb687b131683cd298e5031755c6f3" target="_top" xlink:title="Parse the &#39;group&#39; and &#39;ungroup&#39; commands &#45; Implements Command::parse() &#45;.">
<polygon fill="white" stroke="#666666" points="281,-19 206,-19 206,0 281,0 281,-19"/>
<text text-anchor="middle" x="243.5" y="-7" font-family="Helvetica,sans-Serif" font-size="10.00">parse_group</text>
</a>
</g>
</g>
<!-- Node1&#45;&gt;Node716 -->
<g id="edge18" class="edge">
<title>Node1&#45;&gt;Node716</title>
<path fill="none" stroke="#63b8ff" d="M409.07,-223.58C402.88,-180.06 382.35,-79.53 321,-27.5 309.97,-18.15 294.96,-13.45 281.15,-11.16"/>
<polygon fill="#63b8ff" stroke="#63b8ff" points="405.59,-223.95 410.35,-233.41 412.54,-223.05 405.59,-223.95"/>
</g>
<!-- Node4&#45;&gt;Node2 -->
<g id="edge3" class="edge">
<title>Node4&#45;&gt;Node2</title>
<path fill="none" stroke="#63b8ff" d="M183.18,-439.89C155.67,-442.85 123.96,-446.26 100.46,-448.79"/>
<polygon fill="#63b8ff" stroke="#63b8ff" points="183.2,-443.4 192.77,-438.85 182.45,-436.44 183.2,-443.4"/>
</g>
<!-- Node4&#45;&gt;Node5 -->
<g id="edge4" class="edge">
<title>Node4&#45;&gt;Node5</title>
<path fill="none" stroke="#63b8ff" d="M184.19,-421.28C155.84,-415.33 122.82,-408.41 98.9,-403.4"/>
<polygon fill="#63b8ff" stroke="#63b8ff" points="183.21,-424.65 193.72,-423.27 184.65,-417.8 183.21,-424.65"/>
</g>
<!-- Node6&#45;&gt;Node5 -->
<g id="edge6" class="edge">
<title>Node6&#45;&gt;Node5</title>
<path fill="none" stroke="#63b8ff" d="M176.92,-396.5C150.34,-396.5 120.82,-396.5 98.91,-396.5"/>
<polygon fill="#63b8ff" stroke="#63b8ff" points="176.59,-400 186.59,-396.5 176.59,-393 176.59,-400"/>
</g>
<!-- Node36&#45;&gt;Node18 -->
<g id="edge14" class="edge">
<title>Node36&#45;&gt;Node18</title>
<path fill="none" stroke="#63b8ff" d="M172.42,-182.41C156.65,-185.09 140.07,-187.91 124.82,-190.5"/>
<polygon fill="#63b8ff" stroke="#63b8ff" points="172.96,-185.87 182.24,-180.74 171.79,-178.97 172.96,-185.87"/>
</g>
<!-- Node36&#45;&gt;Node27 -->
<g id="edge15" class="edge">
<title>Node36&#45;&gt;Node27</title>
<path fill="none" stroke="#63b8ff" d="M174.6,-158.57C157.46,-155.56 139.24,-152.36 122.71,-149.46"/>
<polygon fill="#63b8ff" stroke="#63b8ff" points="173.74,-161.98 184.19,-160.26 174.95,-155.08 173.74,-161.98"/>
</g>
</g>
</svg>
