<?xml version="1.0" encoding="UTF-8" standalone="no"?>
<!DOCTYPE svg PUBLIC "-//W3C//DTD SVG 1.1//EN"
 "http://www.w3.org/Graphics/SVG/1.1/DTD/svg11.dtd">
<!-- Generated by graphviz version 2.40.1 (20161225.0304)
 -->
<!-- Title: mutt_addrlist_append Pages: 1 -->
<svg width="489pt" height="401pt"
 viewBox="0.00 0.00 489.00 401.18" xmlns="http://www.w3.org/2000/svg" xmlns:xlink="http://www.w3.org/1999/xlink">
<g id="graph0" class="graph" transform="scale(1 1) rotate(0) translate(4 397.1849)">
<title>mutt_addrlist_append</title>
<polygon fill="#ffffff" stroke="transparent" points="-4,4 -4,-397.1849 485,-397.1849 485,4 -4,4"/>
<!-- Node7275 -->
<g id="node1" class="node">
<title>Node7275</title>
<polygon fill="#bfbfbf" stroke="#000000" points="0,-190.5 0,-209.5 123,-209.5 123,-190.5 0,-190.5"/>
<text text-anchor="middle" x="61.5" y="-197.5" font-family="Helvetica,sans-Serif" font-size="10.00" fill="#000000">mutt_addrlist_append</text>
</g>
<!-- Node7276 -->
<g id="node2" class="node">
<title>Node7276</title>
<g id="a_node2"><a xlink:href="address_2address_8c.html#a0edcb239a41a0bd08370e3bdc0218b63" target="_top" xlink:title="Parse an email address and add an Address to a list. ">
<polygon fill="#ffffff" stroke="#000000" points="195,-342.5 195,-361.5 279,-361.5 279,-342.5 195,-342.5"/>
<text text-anchor="middle" x="237" y="-349.5" font-family="Helvetica,sans-Serif" font-size="10.00" fill="#000000">add_addrspec</text>
</a>
</g>
</g>
<!-- Node7275&#45;&gt;Node7276 -->
<g id="edge1" class="edge">
<title>Node7275&#45;&gt;Node7276</title>
<path fill="none" stroke="#191970" d="M70.8551,-218.7543C85.7236,-246.6666 117.3754,-298.9593 159,-328 169.5739,-335.3772 182.4864,-340.5423 194.7387,-344.1357"/>
<polygon fill="#191970" stroke="#191970" points="73.8542,-216.9343 66.1492,-209.6622 67.6375,-220.1519 73.8542,-216.9343"/>
</g>
<!-- Node7277 -->
<g id="node3" class="node">
<title>Node7277</title>
<g id="a_node3"><a xlink:href="address_2address_8h.html#a9bb4abe92405bac67f03e36936a29b6e" target="_top" xlink:title="Parse a list of email addresses. ">
<polygon fill="#ffffff" stroke="#ff0000" points="359,-346.5 359,-365.5 473,-365.5 473,-346.5 359,-346.5"/>
<text text-anchor="middle" x="416" y="-353.5" font-family="Helvetica,sans-Serif" font-size="10.00" fill="#000000">mutt_addrlist_parse</text>
</a>
</g>
</g>
<!-- Node7275&#45;&gt;Node7277 -->
<g id="edge3" class="edge">
<title>Node7275&#45;&gt;Node7277</title>
<path fill="none" stroke="#191970" d="M65.9418,-219.9333C75.5052,-257.4747 101.9603,-337.8625 159,-371 234.3591,-414.7802 344.0287,-383.1608 392.0144,-365.6064"/>
<polygon fill="#191970" stroke="#191970" points="69.2371,-218.6656 63.501,-209.7579 62.4302,-220.2984 69.2371,-218.6656"/>
</g>
<!-- Node7863 -->
<g id="node4" class="node">
<title>Node7863</title>
<g id="a_node4"><a xlink:href="address_2address_8h.html#a16764dc80c9b3f6ad2897c8b7e59bd10" target="_top" xlink:title="Copy a list of addresses into another list. ">
<polygon fill="#ffffff" stroke="#ff0000" points="182,-228.5 182,-247.5 292,-247.5 292,-228.5 182,-228.5"/>
<text text-anchor="middle" x="237" y="-235.5" font-family="Helvetica,sans-Serif" font-size="10.00" fill="#000000">mutt_addrlist_copy</text>
</a>
</g>
</g>
<!-- Node7275&#45;&gt;Node7863 -->
<g id="edge4" class="edge">
<title>Node7275&#45;&gt;Node7863</title>
<path fill="none" stroke="#191970" d="M115.7783,-211.7526C140.594,-217.1258 169.6108,-223.4086 193.0324,-228.4799"/>
<polygon fill="#191970" stroke="#191970" points="116.3003,-208.2846 105.7861,-209.589 114.8189,-215.126 116.3003,-208.2846"/>
</g>
<!-- Node7864 -->
<g id="node5" class="node">
<title>Node7864</title>
<g id="a_node5"><a xlink:href="group_8c.html#a4ffe7623a1aebb30f8dc11fb46d7c7c0" target="_top" xlink:title="Add an Address List to a Group. ">
<polygon fill="#ffffff" stroke="#ff0000" points="361,-299.5 361,-318.5 471,-318.5 471,-299.5 361,-299.5"/>
<text text-anchor="middle" x="416" y="-306.5" font-family="Helvetica,sans-Serif" font-size="10.00" fill="#000000">group_add_addrlist</text>
</a>
</g>
</g>
<!-- Node7275&#45;&gt;Node7864 -->
<g id="edge8" class="edge">
<title>Node7275&#45;&gt;Node7864</title>
<path fill="none" stroke="#191970" d="M77.3314,-217.1432C95.2426,-235.3287 126.2139,-263.2862 159,-277 224.6423,-304.4569 307.3358,-310.1961 360.9159,-310.5758"/>
<polygon fill="#191970" stroke="#191970" points="79.5088,-214.357 70.0613,-209.5616 74.4563,-219.2019 79.5088,-214.357"/>
</g>
<!-- Node7283 -->
<g id="node6" class="node">
<title>Node7283</title>
<g id="a_node6"><a xlink:href="send_8h.html#a886452bec277bd3e4169d0863b7768ae" target="_top" xlink:title="Send an email. ">
<polygon fill="#ffffff" stroke="#ff0000" points="357,-114.5 357,-133.5 475,-133.5 475,-114.5 357,-114.5"/>
<text text-anchor="middle" x="416" y="-121.5" font-family="Helvetica,sans-Serif" font-size="10.00" fill="#000000">mutt_send_message</text>
</a>
</g>
</g>
<!-- Node7275&#45;&gt;Node7283 -->
<g id="edge14" class="edge">
<title>Node7275&#45;&gt;Node7283</title>
<path fill="none" stroke="#191970" d="M133.1084,-202.8705C184.7348,-202.9737 255.5062,-199.033 315,-181 349.491,-170.5455 385.1281,-146.8433 403.4456,-133.5307"/>
<polygon fill="#191970" stroke="#191970" points="133.072,-199.3703 123.0474,-202.799 133.0222,-206.3701 133.072,-199.3703"/>
</g>
<!-- Node7465 -->
<g id="node7" class="node">
<title>Node7465</title>
<g id="a_node7"><a xlink:href="sendlib_8h.html#a7848f294cb015bff75efc45e2d15494c" target="_top" xlink:title="Bounce an email message. ">
<polygon fill="#ffffff" stroke="#ff0000" points="351,-247.5 351,-266.5 481,-266.5 481,-247.5 351,-247.5"/>
<text text-anchor="middle" x="416" y="-254.5" font-family="Helvetica,sans-Serif" font-size="10.00" fill="#000000">mutt_bounce_message</text>
</a>
</g>
</g>
<!-- Node7275&#45;&gt;Node7465 -->
<g id="edge17" class="edge">
<title>Node7275&#45;&gt;Node7465</title>
<path fill="none" stroke="#191970" d="M81.2142,-215.8006C99.9615,-229.7377 129.5915,-249.0344 159,-257 222.5227,-274.2059 298.1627,-271.5847 350.8689,-266.2721"/>
<polygon fill="#191970" stroke="#191970" points="83.2396,-212.9434 73.1701,-209.6485 78.9871,-218.5037 83.2396,-212.9434"/>
</g>
<!-- Node7780 -->
<g id="node8" class="node">
<title>Node7780</title>
<g id="a_node8"><a xlink:href="autocrypt_2private_8h.html#aa6a1d41202dd88cfe7d34655352e437e" target="_top" xlink:title="Create a new Autocrypt account. ">
<polygon fill="#ffffff" stroke="#ff0000" points="159,-152.5 159,-171.5 315,-171.5 315,-152.5 159,-152.5"/>
<text text-anchor="middle" x="237" y="-159.5" font-family="Helvetica,sans-Serif" font-size="10.00" fill="#000000">mutt_autocrypt_account_init</text>
</a>
</g>
</g>
<!-- Node7275&#45;&gt;Node7780 -->
<g id="edge9" class="edge">
<title>Node7275&#45;&gt;Node7780</title>
<path fill="none" stroke="#191970" d="M115.7783,-188.2474C140.594,-182.8742 169.6108,-176.5914 193.0324,-171.5201"/>
<polygon fill="#191970" stroke="#191970" points="114.8189,-184.874 105.7861,-190.411 116.3003,-191.7154 114.8189,-184.874"/>
</g>
<!-- Node7877 -->
<g id="node9" class="node">
<title>Node7877</title>
<g id="a_node9"><a xlink:href="serialize_8h.html#adc782452c6a420898d453705f9e9581a" target="_top" xlink:title="Unpack an Address from a binary blob. ">
<polygon fill="#ffffff" stroke="#ff0000" points="173.5,-114.5 173.5,-133.5 300.5,-133.5 300.5,-114.5 173.5,-114.5"/>
<text text-anchor="middle" x="237" y="-121.5" font-family="Helvetica,sans-Serif" font-size="10.00" fill="#000000">serial_restore_address</text>
</a>
</g>
</g>
<!-- Node7275&#45;&gt;Node7877 -->
<g id="edge10" class="edge">
<title>Node7275&#45;&gt;Node7877</title>
<path fill="none" stroke="#191970" d="M83.3693,-184.7154C102.5311,-171.9471 131.5352,-154.0968 159,-143 168.3043,-139.2407 178.5449,-136.0931 188.4591,-133.5104"/>
<polygon fill="#191970" stroke="#191970" points="81.3658,-181.8451 75.051,-190.3524 85.2928,-187.6399 81.3658,-181.8451"/>
</g>
<!-- Node7878 -->
<g id="node10" class="node">
<title>Node7878</title>
<g id="a_node10"><a xlink:href="send_8c.html#a7513f0a7dea1ccf4de7506399771a4c2" target="_top" xlink:title="Search Address lists for mailing lists. ">
<polygon fill="#ffffff" stroke="#ff0000" points="186,-76.5 186,-95.5 288,-95.5 288,-76.5 186,-76.5"/>
<text text-anchor="middle" x="237" y="-83.5" font-family="Helvetica,sans-Serif" font-size="10.00" fill="#000000">add_mailing_lists</text>
</a>
</g>
</g>
<!-- Node7275&#45;&gt;Node7878 -->
<g id="edge11" class="edge">
<title>Node7275&#45;&gt;Node7878</title>
<path fill="none" stroke="#191970" d="M74.538,-182.4874C91.5509,-160.9181 123.3827,-124.7211 159,-105 167.1695,-100.4766 176.4055,-97.0195 185.5902,-94.3803"/>
<polygon fill="#191970" stroke="#191970" points="71.7054,-180.4293 68.3787,-190.4884 77.2522,-184.6994 71.7054,-180.4293"/>
</g>
<!-- Node7879 -->
<g id="node11" class="node">
<title>Node7879</title>
<g id="a_node11"><a xlink:href="send_8c.html#ac5be3d670b1d7e5cddb605652e9aa859" target="_top" xlink:title="Try to set the &#39;from&#39; field from the recipients. ">
<polygon fill="#ffffff" stroke="#000000" points="183.5,-38.5 183.5,-57.5 290.5,-57.5 290.5,-38.5 183.5,-38.5"/>
<text text-anchor="middle" x="237" y="-45.5" font-family="Helvetica,sans-Serif" font-size="10.00" fill="#000000">set_reverse_name</text>
</a>
</g>
</g>
<!-- Node7275&#45;&gt;Node7879 -->
<g id="edge12" class="edge">
<title>Node7275&#45;&gt;Node7879</title>
<path fill="none" stroke="#191970" d="M70.0446,-181.0006C84.196,-151.7819 115.3326,-96.1476 159,-67 166.3032,-62.1252 174.7357,-58.499 183.2994,-55.8021"/>
<polygon fill="#191970" stroke="#191970" points="66.8323,-179.6073 65.7547,-190.1472 73.1699,-182.5797 66.8323,-179.6073"/>
</g>
<!-- Node7876 -->
<g id="node12" class="node">
<title>Node7876</title>
<g id="a_node12"><a xlink:href="sendlib_8h.html#ac35da3d19eb0d95d4f6260adab57b4c9" target="_top" xlink:title="Prepare an email header. ">
<polygon fill="#ffffff" stroke="#ff0000" points="170.5,-.5 170.5,-19.5 303.5,-19.5 303.5,-.5 170.5,-.5"/>
<text text-anchor="middle" x="237" y="-7.5" font-family="Helvetica,sans-Serif" font-size="10.00" fill="#000000">mutt_prepare_envelope</text>
</a>
</g>
</g>
<!-- Node7275&#45;&gt;Node7876 -->
<g id="edge15" class="edge">
<title>Node7275&#45;&gt;Node7876</title>
<path fill="none" stroke="#191970" d="M66.8874,-180.7549C77.9179,-145.0308 106.5637,-68.5131 159,-29 164.1203,-25.1416 169.919,-22.0564 175.9868,-19.591"/>
<polygon fill="#191970" stroke="#191970" points="63.5011,-179.864 64.0229,-190.4459 70.214,-181.8483 63.5011,-179.864"/>
</g>
<!-- Node7276&#45;&gt;Node7277 -->
<g id="edge2" class="edge">
<title>Node7276&#45;&gt;Node7277</title>
<path fill="none" stroke="#191970" d="M289.4944,-353.1731C311.3176,-353.6607 336.7036,-354.228 358.9827,-354.7259"/>
<polygon fill="#191970" stroke="#191970" points="289.4962,-349.6723 279.4205,-352.9479 289.3398,-356.6706 289.4962,-349.6723"/>
</g>
<!-- Node7863&#45;&gt;Node7864 -->
<g id="edge5" class="edge">
<title>Node7863&#45;&gt;Node7864</title>
<path fill="none" stroke="#191970" d="M270.5598,-251.3114C305.9083,-265.3324 360.6906,-287.0616 391.9566,-299.4632"/>
<polygon fill="#191970" stroke="#191970" points="271.7267,-248.0091 261.1407,-247.5754 269.1457,-254.5159 271.7267,-248.0091"/>
</g>
<!-- Node7863&#45;&gt;Node7283 -->
<g id="edge6" class="edge">
<title>Node7863&#45;&gt;Node7283</title>
<path fill="none" stroke="#191970" d="M289.2243,-225.3526C298.1031,-222.2504 307.0233,-218.4953 315,-214 354.4896,-191.7457 391.8421,-151.893 407.835,-133.6258"/>
<polygon fill="#191970" stroke="#191970" points="288.0791,-222.0445 279.6526,-228.4667 290.2448,-228.7011 288.0791,-222.0445"/>
</g>
<!-- Node7863&#45;&gt;Node7465 -->
<g id="edge7" class="edge">
<title>Node7863&#45;&gt;Node7465</title>
<path fill="none" stroke="#191970" d="M302.3919,-244.941C318.2257,-246.6217 335.1472,-248.4179 350.9645,-250.0968"/>
<polygon fill="#191970" stroke="#191970" points="302.4801,-241.4308 292.1665,-243.8557 301.7412,-248.3917 302.4801,-241.4308"/>
</g>
<!-- Node7879&#45;&gt;Node7283 -->
<g id="edge13" class="edge">
<title>Node7879&#45;&gt;Node7283</title>
<path fill="none" stroke="#191970" d="M295.0434,-60.249C301.858,-62.2403 308.6425,-64.4875 315,-67 347.7689,-79.9505 382.9339,-101.8314 401.9062,-114.3813"/>
<polygon fill="#191970" stroke="#191970" points="295.6538,-56.7871 285.0839,-57.5134 293.7998,-63.5371 295.6538,-56.7871"/>
</g>
<!-- Node7876&#45;&gt;Node7283 -->
<g id="edge16" class="edge">
<title>Node7876&#45;&gt;Node7283</title>
<path fill="none" stroke="#191970" d="M301.6636,-22.9197C306.2849,-24.6959 310.7806,-26.7121 315,-29 356.477,-51.4905 393.6467,-95.2297 408.7916,-114.497"/>
<polygon fill="#191970" stroke="#191970" points="302.6445,-19.5557 292.0497,-19.6008 300.3602,-26.1725 302.6445,-19.5557"/>
</g>
</g>
</svg>
