<?xml version="1.0" encoding="UTF-8" standalone="no"?>
<!DOCTYPE svg PUBLIC "-//W3C//DTD SVG 1.1//EN"
 "http://www.w3.org/Graphics/SVG/1.1/DTD/svg11.dtd">
<!-- Generated by graphviz version 12.2.1 (20241206.2353)
 -->
<!-- Title: address/group.h Pages: 1 -->
<svg width="192pt" height="89pt"
 viewBox="0.00 0.00 192.12 88.50" xmlns="http://www.w3.org/2000/svg" xmlns:xlink="http://www.w3.org/1999/xlink">
<g id="graph0" class="graph" transform="scale(1 1) rotate(0) translate(4 84.5)">
<title>address/group.h</title>
<!-- Node1 -->
<g id="Node000001" class="node">
<title>Node1</title>
<g id="a_Node000001"><a xlink:title="Handling for email address groups.">
<polygon fill="#999999" stroke="#666666" points="141.75,-80.5 49.25,-80.5 49.25,-58.25 141.75,-58.25 141.75,-80.5"/>
<text text-anchor="middle" x="95.5" y="-67" font-family="Helvetica,sans-Serif" font-size="10.00">address/group.h</text>
</a>
</g>
</g>
<!-- Node2 -->
<g id="Node000002" class="node">
<title>Node2</title>
<g id="a_Node000002"><a xlink:href="address_2group_8c.html" target="_top" xlink:title="Handling for email address groups.">
<polygon fill="white" stroke="#666666" points="91,-22.25 0,-22.25 0,0 91,0 91,-22.25"/>
<text text-anchor="middle" x="45.5" y="-8.75" font-family="Helvetica,sans-Serif" font-size="10.00">address/group.c</text>
</a>
</g>
</g>
<!-- Node1&#45;&gt;Node2 -->
<g id="edge1_Node000001_Node000002" class="edge">
<title>Node1&#45;&gt;Node2</title>
<g id="a_edge1_Node000001_Node000002"><a xlink:title=" ">
<path fill="none" stroke="#63b8ff" d="M78.45,-49.19C70.56,-40.32 61.49,-30.11 54.86,-22.66"/>
<polygon fill="#63b8ff" stroke="#63b8ff" points="75.83,-51.51 85.09,-56.66 81.06,-46.86 75.83,-51.51"/>
</a>
</g>
</g>
<!-- Node3 -->
<g id="Node000003" class="node">
<title>Node3</title>
<g id="a_Node000003"><a xlink:href="address_2lib_8h.html" target="_top" xlink:title="Email Address Handling.">
<polygon fill="#fff0f0" stroke="red" points="184.12,-22.25 108.88,-22.25 108.88,0 184.12,0 184.12,-22.25"/>
<text text-anchor="middle" x="146.5" y="-8.75" font-family="Helvetica,sans-Serif" font-size="10.00">address/lib.h</text>
</a>
</g>
</g>
<!-- Node1&#45;&gt;Node3 -->
<g id="edge2_Node000001_Node000003" class="edge">
<title>Node1&#45;&gt;Node3</title>
<g id="a_edge2_Node000001_Node000003"><a xlink:title=" ">
<path fill="none" stroke="#63b8ff" d="M112.64,-49.47C120.75,-40.53 130.12,-30.19 136.95,-22.66"/>
<polygon fill="#63b8ff" stroke="#63b8ff" points="110.23,-46.91 106.11,-56.67 115.42,-51.62 110.23,-46.91"/>
</a>
</g>
</g>
</g>
</svg>
