<?xml version="1.0" encoding="UTF-8" standalone="no"?>
<!DOCTYPE svg PUBLIC "-//W3C//DTD SVG 1.1//EN"
 "http://www.w3.org/Graphics/SVG/1.1/DTD/svg11.dtd">
<!-- Generated by graphviz version 2.44.0 (0)
 -->
<!-- Title: addr_mbox_to_udomain Pages: 1 -->
<svg width="243pt" height="66pt"
 viewBox="0.00 0.00 243.00 66.00" xmlns="http://www.w3.org/2000/svg" xmlns:xlink="http://www.w3.org/1999/xlink">
<g id="graph0" class="graph" transform="scale(1 1) rotate(0) translate(4 62)">
<title>addr_mbox_to_udomain</title>
<polygon fill="white" stroke="transparent" points="-4,4 -4,-62 239,-62 239,4 -4,4"/>
<!-- Node1 -->
<g id="node1" class="node">
<title>Node1</title>
<g id="a_node1"><a xlink:title="Split a mailbox name into user and domain.">
<polygon fill="#bfbfbf" stroke="black" points="0,-19.5 0,-38.5 120,-38.5 120,-19.5 0,-19.5"/>
<text text-anchor="middle" x="60" y="-26.5" font-family="Helvetica" font-size="10.00">addr_mbox_to_udomain</text>
</a>
</g>
</g>
<!-- Node2 -->
<g id="node2" class="node">
<title>Node2</title>
<g id="a_node2"><a xlink:href="mutt_2string_8c.html#a4c2560f787bd1226b977992c16860c98" target="_top" xlink:title="Copy a string, safely.">
<polygon fill="white" stroke="black" points="158.5,-38.5 158.5,-57.5 232.5,-57.5 232.5,-38.5 158.5,-38.5"/>
<text text-anchor="middle" x="195.5" y="-45.5" font-family="Helvetica" font-size="10.00">mutt_str_dup</text>
</a>
</g>
</g>
<!-- Node1&#45;&gt;Node2 -->
<g id="edge1" class="edge">
<title>Node1&#45;&gt;Node2</title>
<path fill="none" stroke="midnightblue" d="M120.33,-37.44C129.74,-38.78 139.35,-40.15 148.4,-41.44"/>
<polygon fill="midnightblue" stroke="midnightblue" points="147.95,-44.91 158.34,-42.85 148.93,-37.98 147.95,-44.91"/>
</g>
<!-- Node3 -->
<g id="node3" class="node">
<title>Node3</title>
<g id="a_node3"><a xlink:href="mutt_2string_8c.html#a32f325570c857fb965919cd955fda769" target="_top" xlink:title="Duplicate a sub&#45;string.">
<polygon fill="white" stroke="red" points="156,-0.5 156,-19.5 235,-19.5 235,-0.5 156,-0.5"/>
<text text-anchor="middle" x="195.5" y="-7.5" font-family="Helvetica" font-size="10.00">mutt_strn_dup</text>
</a>
</g>
</g>
<!-- Node1&#45;&gt;Node3 -->
<g id="edge2" class="edge">
<title>Node1&#45;&gt;Node3</title>
<path fill="none" stroke="midnightblue" d="M120.33,-20.56C128.75,-19.36 137.34,-18.14 145.53,-16.97"/>
<polygon fill="midnightblue" stroke="midnightblue" points="146.26,-20.4 155.66,-15.53 145.27,-13.47 146.26,-20.4"/>
</g>
</g>
</svg>
