<?xml version="1.0" encoding="UTF-8" standalone="no"?>
<!DOCTYPE svg PUBLIC "-//W3C//DTD SVG 1.1//EN"
 "http://www.w3.org/Graphics/SVG/1.1/DTD/svg11.dtd">
<!-- Generated by graphviz version 2.40.1 (20161225.0304)
 -->
<!-- Title: parse_address Pages: 1 -->
<svg width="256pt" height="66pt"
 viewBox="0.00 0.00 256.00 66.00" xmlns="http://www.w3.org/2000/svg" xmlns:xlink="http://www.w3.org/1999/xlink">
<g id="graph0" class="graph" transform="scale(1 1) rotate(0) translate(4 62)">
<title>parse_address</title>
<polygon fill="#ffffff" stroke="transparent" points="-4,4 -4,-62 252,-62 252,4 -4,4"/>
<!-- Node2381 -->
<g id="node1" class="node">
<title>Node2381</title>
<polygon fill="#bfbfbf" stroke="#000000" points="0,-19.5 0,-38.5 87,-38.5 87,-19.5 0,-19.5"/>
<text text-anchor="middle" x="43.5" y="-26.5" font-family="Helvetica,sans-Serif" font-size="10.00" fill="#000000">parse_address</text>
</g>
<!-- Node2382 -->
<g id="node2" class="node">
<title>Node2382</title>
<g id="a_node2"><a xlink:href="address_2address_8c.html#a391539d42acc2637dd9d19a900915dbf" target="_top" xlink:title="Extract part of an email address (and a comment) ">
<polygon fill="#ffffff" stroke="#ff0000" points="123,-38.5 123,-57.5 248,-57.5 248,-38.5 123,-38.5"/>
<text text-anchor="middle" x="185.5" y="-45.5" font-family="Helvetica,sans-Serif" font-size="10.00" fill="#000000">parse_mailboxdomain</text>
</a>
</g>
</g>
<!-- Node2381&#45;&gt;Node2382 -->
<g id="edge1" class="edge">
<title>Node2381&#45;&gt;Node2382</title>
<path fill="none" stroke="#191970" d="M87.2634,-34.8557C95.3462,-35.9372 103.9841,-37.0929 112.6586,-38.2536"/>
<polygon fill="#191970" stroke="#191970" points="112.4517,-41.757 122.8276,-39.6143 113.3801,-34.8189 112.4517,-41.757"/>
</g>
<!-- Node2388 -->
<g id="node3" class="node">
<title>Node2388</title>
<g id="a_node3"><a xlink:href="mutt_2string_8c.html#a4c2560f787bd1226b977992c16860c98" target="_top" xlink:title="Copy a string, safely. ">
<polygon fill="#ffffff" stroke="#000000" points="145,-.5 145,-19.5 226,-19.5 226,-.5 145,-.5"/>
<text text-anchor="middle" x="185.5" y="-7.5" font-family="Helvetica,sans-Serif" font-size="10.00" fill="#000000">mutt_str_dup</text>
</a>
</g>
</g>
<!-- Node2381&#45;&gt;Node2388 -->
<g id="edge2" class="edge">
<title>Node2381&#45;&gt;Node2388</title>
<path fill="none" stroke="#191970" d="M87.2634,-23.1443C102.2372,-21.1408 119.116,-18.8824 134.6039,-16.81"/>
<polygon fill="#191970" stroke="#191970" points="135.0993,-20.275 144.5468,-15.4797 134.1709,-13.3369 135.0993,-20.275"/>
</g>
</g>
</svg>
