<?xml version="1.0" encoding="UTF-8" standalone="no"?>
<!DOCTYPE svg PUBLIC "-//W3C//DTD SVG 1.1//EN"
 "http://www.w3.org/Graphics/SVG/1.1/DTD/svg11.dtd">
<!-- Generated by graphviz version 2.44.0 (0)
 -->
<!-- Title: addr_mbox_to_udomain Pages: 1 -->
<svg width="277pt" height="142pt"
 viewBox="0.00 0.00 277.00 142.00" xmlns="http://www.w3.org/2000/svg" xmlns:xlink="http://www.w3.org/1999/xlink">
<g id="graph0" class="graph" transform="scale(1 1) rotate(0) translate(4 138)">
<title>addr_mbox_to_udomain</title>
<polygon fill="white" stroke="transparent" points="-4,4 -4,-138 273,-138 273,4 -4,4"/>
<!-- Node1 -->
<g id="node1" class="node">
<title>Node1</title>
<g id="a_node1"><a xlink:title="Split a mailbox name into user and domain.">
<polygon fill="#bfbfbf" stroke="black" points="149,-57.5 149,-76.5 269,-76.5 269,-57.5 149,-57.5"/>
<text text-anchor="middle" x="209" y="-64.5" font-family="Helvetica" font-size="10.00">addr_mbox_to_udomain</text>
</a>
</g>
</g>
<!-- Node2 -->
<g id="node2" class="node">
<title>Node2</title>
<g id="a_node2"><a xlink:href="address_2address_8h.html#a64951ec4d595356746ef4d26dd7533c6" target="_top" xlink:title="Convert an Address for display purposes.">
<polygon fill="white" stroke="red" points="0,-114.5 0,-133.5 113,-133.5 113,-114.5 0,-114.5"/>
<text text-anchor="middle" x="56.5" y="-121.5" font-family="Helvetica" font-size="10.00">mutt_addr_for_display</text>
</a>
</g>
</g>
<!-- Node1&#45;&gt;Node2 -->
<g id="edge1" class="edge">
<title>Node1&#45;&gt;Node2</title>
<path fill="none" stroke="midnightblue" d="M175.75,-80.37C157.44,-87.85 134.04,-97.2 113,-105 104.41,-108.19 95,-111.48 86.4,-114.41"/>
<polygon fill="midnightblue" stroke="midnightblue" points="177.17,-83.57 185.09,-76.54 174.51,-77.1 177.17,-83.57"/>
</g>
<!-- Node586 -->
<g id="node3" class="node">
<title>Node586</title>
<g id="a_node3"><a xlink:href="address_2address_8h.html#abfd85ca14a8e67427bbc809212ae7fd4" target="_top" xlink:title="Convert an Address to Punycode.">
<polygon fill="white" stroke="red" points="10.5,-76.5 10.5,-95.5 102.5,-95.5 102.5,-76.5 10.5,-76.5"/>
<text text-anchor="middle" x="56.5" y="-83.5" font-family="Helvetica" font-size="10.00">mutt_addr_to_intl</text>
</a>
</g>
</g>
<!-- Node1&#45;&gt;Node586 -->
<g id="edge2" class="edge">
<title>Node1&#45;&gt;Node586</title>
<path fill="none" stroke="midnightblue" d="M138.79,-75.74C126.61,-77.28 114.21,-78.84 102.88,-80.27"/>
<polygon fill="midnightblue" stroke="midnightblue" points="139.47,-79.18 148.95,-74.45 138.59,-72.23 139.47,-79.18"/>
</g>
<!-- Node595 -->
<g id="node4" class="node">
<title>Node595</title>
<g id="a_node4"><a xlink:href="address_2address_8h.html#a95bcf9ec8be0b69b33fadde85800b559" target="_top" xlink:title="Convert an Address from Punycode.">
<polygon fill="white" stroke="red" points="7,-38.5 7,-57.5 106,-57.5 106,-38.5 7,-38.5"/>
<text text-anchor="middle" x="56.5" y="-45.5" font-family="Helvetica" font-size="10.00">mutt_addr_to_local</text>
</a>
</g>
</g>
<!-- Node1&#45;&gt;Node595 -->
<g id="edge3" class="edge">
<title>Node1&#45;&gt;Node595</title>
<path fill="none" stroke="midnightblue" d="M138.89,-58.27C127.84,-56.88 116.62,-55.46 106.18,-54.15"/>
<polygon fill="midnightblue" stroke="midnightblue" points="138.59,-61.77 148.95,-59.55 139.47,-54.82 138.59,-61.77"/>
</g>
<!-- Node600 -->
<g id="node5" class="node">
<title>Node600</title>
<g id="a_node5"><a xlink:href="address_2address_8h.html#abe8afdaeb5bdca19a1867823d73a1ec4" target="_top" xlink:title="Convert an Address list to Punycode.">
<polygon fill="white" stroke="red" points="4.5,-0.5 4.5,-19.5 108.5,-19.5 108.5,-0.5 4.5,-0.5"/>
<text text-anchor="middle" x="56.5" y="-7.5" font-family="Helvetica" font-size="10.00">mutt_addrlist_to_intl</text>
</a>
</g>
</g>
<!-- Node1&#45;&gt;Node600 -->
<g id="edge4" class="edge">
<title>Node1&#45;&gt;Node600</title>
<path fill="none" stroke="midnightblue" d="M175.75,-53.63C157.44,-46.15 134.04,-36.8 113,-29 104.41,-25.81 95,-22.52 86.4,-19.59"/>
<polygon fill="midnightblue" stroke="midnightblue" points="174.51,-56.9 185.09,-57.46 177.17,-50.43 174.51,-56.9"/>
</g>
</g>
</svg>
