<?xml version="1.0" encoding="UTF-8" standalone="no"?>
<!DOCTYPE svg PUBLIC "-//W3C//DTD SVG 1.1//EN"
 "http://www.w3.org/Graphics/SVG/1.1/DTD/svg11.dtd">
<!-- Generated by graphviz version 7.1.0 (0)
 -->
<!-- Title: address/address.c Pages: 1 -->
<svg width="390pt" height="192pt"
 viewBox="0.00 0.00 389.50 192.00" xmlns="http://www.w3.org/2000/svg" xmlns:xlink="http://www.w3.org/1999/xlink">
<g id="graph0" class="graph" transform="scale(1 1) rotate(0) translate(4 188)">
<title>address/address.c</title>
<!-- Node1 -->
<g id="node1" class="node">
<title>Node1</title>
<g id="a_node1"><a xlink:title="Representation of an email address.">
<polygon fill="#999999" stroke="#666666" points="231,-184 131,-184 131,-165 231,-165 231,-184"/>
<text text-anchor="middle" x="181" y="-172" font-family="Helvetica,sans-Serif" font-size="10.00">address/address.c</text>
</a>
</g>
</g>
<!-- Node2 -->
<g id="node2" class="node">
<title>Node2</title>
<g id="a_node2"><a xlink:title=" ">
<polygon fill="#e0e0e0" stroke="#999999" points="54,-19 0,-19 0,0 54,0 54,-19"/>
<text text-anchor="middle" x="27" y="-7" font-family="Helvetica,sans-Serif" font-size="10.00">config.h</text>
</a>
</g>
</g>
<!-- Node1&#45;&gt;Node2 -->
<g id="edge1" class="edge">
<title>Node1&#45;&gt;Node2</title>
<path fill="none" stroke="#63b8ff" d="M130.79,-166.69C102.89,-160.72 69.06,-149.6 45,-129 18.29,-106.13 13.12,-89.95 17,-55 17.91,-46.83 19.72,-37.98 21.56,-30.33"/>
<polygon fill="#63b8ff" stroke="#63b8ff" points="24.92,-31.29 24.05,-20.73 18.15,-29.53 24.92,-31.29"/>
</g>
<!-- Node3 -->
<g id="node3" class="node">
<title>Node3</title>
<g id="a_node3"><a xlink:title=" ">
<polygon fill="#e0e0e0" stroke="#999999" points="184,-74 124,-74 124,-55 184,-55 184,-74"/>
<text text-anchor="middle" x="154" y="-62" font-family="Helvetica,sans-Serif" font-size="10.00">stdbool.h</text>
</a>
</g>
</g>
<!-- Node1&#45;&gt;Node3 -->
<g id="edge2" class="edge">
<title>Node1&#45;&gt;Node3</title>
<path fill="none" stroke="#63b8ff" d="M178.79,-164.66C174.5,-147.5 164.94,-109.26 159.02,-85.6"/>
<polygon fill="#63b8ff" stroke="#63b8ff" points="162.43,-84.78 156.61,-75.93 155.64,-86.48 162.43,-84.78"/>
</g>
<!-- Node4 -->
<g id="node4" class="node">
<title>Node4</title>
<g id="a_node4"><a xlink:title=" ">
<polygon fill="#e0e0e0" stroke="#999999" points="324,-74 272,-74 272,-55 324,-55 324,-74"/>
<text text-anchor="middle" x="298" y="-62" font-family="Helvetica,sans-Serif" font-size="10.00">stdint.h</text>
</a>
</g>
</g>
<!-- Node1&#45;&gt;Node4 -->
<g id="edge3" class="edge">
<title>Node1&#45;&gt;Node4</title>
<path fill="none" stroke="#63b8ff" d="M202.44,-164.57C219,-156.91 241.76,-144.63 258,-129 271.35,-116.15 282.21,-97.99 289.23,-84.37"/>
<polygon fill="#63b8ff" stroke="#63b8ff" points="292.27,-86.11 293.52,-75.59 285.99,-83.03 292.27,-86.11"/>
</g>
<!-- Node5 -->
<g id="node5" class="node">
<title>Node5</title>
<g id="a_node5"><a xlink:title=" ">
<polygon fill="#e0e0e0" stroke="#999999" points="253,-74 205,-74 205,-55 253,-55 253,-74"/>
<text text-anchor="middle" x="229" y="-62" font-family="Helvetica,sans-Serif" font-size="10.00">stdio.h</text>
</a>
</g>
</g>
<!-- Node1&#45;&gt;Node5 -->
<g id="edge4" class="edge">
<title>Node1&#45;&gt;Node5</title>
<path fill="none" stroke="#63b8ff" d="M201.8,-164.6C215.97,-157.3 233.62,-145.48 242,-129 249.1,-115.03 244.63,-97.48 239.08,-84.37"/>
<polygon fill="#63b8ff" stroke="#63b8ff" points="242.33,-83.05 234.84,-75.56 236.02,-86.09 242.33,-83.05"/>
</g>
<!-- Node6 -->
<g id="node6" class="node">
<title>Node6</title>
<g id="a_node6"><a xlink:title=" ">
<polygon fill="#e0e0e0" stroke="#999999" points="381.5,-129 328.5,-129 328.5,-110 381.5,-110 381.5,-129"/>
<text text-anchor="middle" x="355" y="-117" font-family="Helvetica,sans-Serif" font-size="10.00">string.h</text>
</a>
</g>
</g>
<!-- Node1&#45;&gt;Node6 -->
<g id="edge5" class="edge">
<title>Node1&#45;&gt;Node6</title>
<path fill="none" stroke="#63b8ff" d="M210.52,-164.51C240.01,-155.53 285.44,-141.69 317.48,-131.93"/>
<polygon fill="#63b8ff" stroke="#63b8ff" points="318.21,-135.37 326.75,-129.1 316.17,-128.67 318.21,-135.37"/>
</g>
<!-- Node7 -->
<g id="node7" class="node">
<title>Node7</title>
<g id="a_node7"><a xlink:href="mutt_2lib_8h.html" target="_top" xlink:title="Convenience wrapper for the library headers.">
<polygon fill="#fff0f0" stroke="red" points="88,-74 26,-74 26,-55 88,-55 88,-74"/>
<text text-anchor="middle" x="57" y="-62" font-family="Helvetica,sans-Serif" font-size="10.00">mutt/lib.h</text>
</a>
</g>
</g>
<!-- Node1&#45;&gt;Node7 -->
<g id="edge6" class="edge">
<title>Node1&#45;&gt;Node7</title>
<path fill="none" stroke="#63b8ff" d="M130.54,-169.37C103.4,-164.28 72.08,-153.15 55,-129 46.12,-116.45 47.5,-98.75 50.6,-85.22"/>
<polygon fill="#63b8ff" stroke="#63b8ff" points="53.94,-86.27 53.28,-75.7 47.21,-84.38 53.94,-86.27"/>
</g>
<!-- Node54 -->
<g id="node8" class="node">
<title>Node54</title>
<g id="a_node8"><a xlink:href="address_8h.html" target="_top" xlink:title="Representation of an email address.">
<polygon fill="#fff0f0" stroke="red" points="126,-129 64,-129 64,-110 126,-110 126,-129"/>
<text text-anchor="middle" x="95" y="-117" font-family="Helvetica,sans-Serif" font-size="10.00">address.h</text>
</a>
</g>
</g>
<!-- Node1&#45;&gt;Node54 -->
<g id="edge8" class="edge">
<title>Node1&#45;&gt;Node54</title>
<path fill="none" stroke="#63b8ff" d="M166.41,-164.51C153.48,-156.54 134.36,-144.75 119.15,-135.38"/>
<polygon fill="#63b8ff" stroke="#63b8ff" points="121.01,-132.42 110.66,-130.15 117.34,-138.38 121.01,-132.42"/>
</g>
<!-- Node55 -->
<g id="node9" class="node">
<title>Node55</title>
<g id="a_node9"><a xlink:href="idna2_8h.html" target="_top" xlink:title="Handling of international domain names.">
<polygon fill="white" stroke="#666666" points="233.5,-129 182.5,-129 182.5,-110 233.5,-110 233.5,-129"/>
<text text-anchor="middle" x="208" y="-117" font-family="Helvetica,sans-Serif" font-size="10.00">idna2.h</text>
</a>
</g>
</g>
<!-- Node1&#45;&gt;Node55 -->
<g id="edge12" class="edge">
<title>Node1&#45;&gt;Node55</title>
<path fill="none" stroke="#63b8ff" d="M185.46,-164.75C188.95,-157.88 193.95,-148.08 198.35,-139.45"/>
<polygon fill="#63b8ff" stroke="#63b8ff" points="201.34,-141.29 202.76,-130.79 195.1,-138.11 201.34,-141.29"/>
</g>
<!-- Node7&#45;&gt;Node2 -->
<g id="edge7" class="edge">
<title>Node7&#45;&gt;Node2</title>
<path fill="none" stroke="#63b8ff" d="M52.05,-54.75C48.16,-47.88 42.61,-38.08 37.72,-29.45"/>
<polygon fill="#63b8ff" stroke="#63b8ff" points="40.78,-27.74 32.81,-20.76 34.69,-31.19 40.78,-27.74"/>
</g>
<!-- Node54&#45;&gt;Node3 -->
<g id="edge9" class="edge">
<title>Node54&#45;&gt;Node3</title>
<path fill="none" stroke="#63b8ff" d="M105.01,-109.51C113.37,-102 125.5,-91.1 135.6,-82.03"/>
<polygon fill="#63b8ff" stroke="#63b8ff" points="137.91,-84.66 143.01,-75.37 133.24,-79.45 137.91,-84.66"/>
</g>
<!-- Node54&#45;&gt;Node5 -->
<g id="edge10" class="edge">
<title>Node54&#45;&gt;Node5</title>
<path fill="none" stroke="#63b8ff" d="M117.73,-109.51C139.23,-101.01 171.73,-88.15 196.07,-78.53"/>
<polygon fill="#63b8ff" stroke="#63b8ff" points="197.19,-81.85 205.2,-74.91 194.61,-75.34 197.19,-81.85"/>
</g>
<!-- Node54&#45;&gt;Node7 -->
<g id="edge11" class="edge">
<title>Node54&#45;&gt;Node7</title>
<path fill="none" stroke="#63b8ff" d="M88.73,-109.75C83.64,-102.66 76.3,-92.42 69.97,-83.59"/>
<polygon fill="#63b8ff" stroke="#63b8ff" points="72.96,-81.76 64.29,-75.67 67.28,-85.84 72.96,-81.76"/>
</g>
<!-- Node55&#45;&gt;Node3 -->
<g id="edge13" class="edge">
<title>Node55&#45;&gt;Node3</title>
<path fill="none" stroke="#63b8ff" d="M199.08,-109.75C191.55,-102.35 180.53,-91.54 171.27,-82.45"/>
<polygon fill="#63b8ff" stroke="#63b8ff" points="173.78,-80.01 164.19,-75.5 168.88,-85 173.78,-80.01"/>
</g>
<!-- Node55&#45;&gt;Node4 -->
<g id="edge14" class="edge">
<title>Node55&#45;&gt;Node4</title>
<path fill="none" stroke="#63b8ff" d="M223.27,-109.51C236.93,-101.47 257.2,-89.53 273.18,-80.11"/>
<polygon fill="#63b8ff" stroke="#63b8ff" points="274.81,-83.22 281.65,-75.13 271.26,-77.18 274.81,-83.22"/>
</g>
</g>
</svg>
