<?xml version="1.0" encoding="UTF-8" standalone="no"?>
<!DOCTYPE svg PUBLIC "-//W3C//DTD SVG 1.1//EN"
 "http://www.w3.org/Graphics/SVG/1.1/DTD/svg11.dtd">
<!-- Generated by graphviz version 12.2.1 (20241206.2353)
 -->
<!-- Title: alias/alias.h Pages: 1 -->
<svg width="246pt" height="89pt"
 viewBox="0.00 0.00 245.88 88.50" xmlns="http://www.w3.org/2000/svg" xmlns:xlink="http://www.w3.org/1999/xlink">
<g id="graph0" class="graph" transform="scale(1 1) rotate(0) translate(4 84.5)">
<title>alias/alias.h</title>
<!-- Node1 -->
<g id="Node000001" class="node">
<title>Node1</title>
<g id="a_Node000001"><a xlink:title="Representation of a single alias to an email address.">
<polygon fill="#999999" stroke="#666666" points="151.75,-80.5 84,-80.5 84,-58.25 151.75,-58.25 151.75,-80.5"/>
<text text-anchor="middle" x="117.88" y="-67" font-family="Helvetica,sans-Serif" font-size="10.00">alias/alias.h</text>
</a>
</g>
</g>
<!-- Node2 -->
<g id="Node000002" class="node">
<title>Node2</title>
<g id="a_Node000002"><a xlink:href="mutt_2lib_8h.html" target="_top" xlink:title="Convenience wrapper for the library headers.">
<polygon fill="#fff0f0" stroke="red" points="61.75,-22.25 0,-22.25 0,0 61.75,0 61.75,-22.25"/>
<text text-anchor="middle" x="30.88" y="-8.75" font-family="Helvetica,sans-Serif" font-size="10.00">mutt/lib.h</text>
</a>
</g>
</g>
<!-- Node1&#45;&gt;Node2 -->
<g id="edge1_Node000001_Node000002" class="edge">
<title>Node1&#45;&gt;Node2</title>
<g id="a_edge1_Node000001_Node000002"><a xlink:title=" ">
<path fill="none" stroke="#63b8ff" d="M101.51,-57.79C88.87,-49.62 71.15,-38.16 56.61,-28.77"/>
<polygon fill="#63b8ff" stroke="#63b8ff" points="58.73,-25.97 48.44,-23.48 54.93,-31.85 58.73,-25.97"/>
</a>
</g>
</g>
<!-- Node54 -->
<g id="Node000054" class="node">
<title>Node54</title>
<g id="a_Node000054"><a xlink:href="address_2lib_8h.html" target="_top" xlink:title="Email Address Handling.">
<polygon fill="#fff0f0" stroke="red" points="155.5,-22.25 80.25,-22.25 80.25,0 155.5,0 155.5,-22.25"/>
<text text-anchor="middle" x="117.88" y="-8.75" font-family="Helvetica,sans-Serif" font-size="10.00">address/lib.h</text>
</a>
</g>
</g>
<!-- Node1&#45;&gt;Node54 -->
<g id="edge2_Node000001_Node000054" class="edge">
<title>Node1&#45;&gt;Node54</title>
<g id="a_edge2_Node000001_Node000054"><a xlink:title=" ">
<path fill="none" stroke="#63b8ff" d="M117.88,-57.79C117.88,-51.12 117.88,-42.24 117.88,-34.09"/>
<polygon fill="#63b8ff" stroke="#63b8ff" points="121.38,-34.17 117.88,-24.17 114.38,-34.17 121.38,-34.17"/>
</a>
</g>
</g>
<!-- Node59 -->
<g id="Node000059" class="node">
<title>Node59</title>
<g id="a_Node000059"><a xlink:href="email_2lib_8h.html" target="_top" xlink:title="Structs that make up an email.">
<polygon fill="#fff0f0" stroke="red" points="237.88,-22.25 173.88,-22.25 173.88,0 237.88,0 237.88,-22.25"/>
<text text-anchor="middle" x="205.88" y="-8.75" font-family="Helvetica,sans-Serif" font-size="10.00">email/lib.h</text>
</a>
</g>
</g>
<!-- Node1&#45;&gt;Node59 -->
<g id="edge3_Node000001_Node000059" class="edge">
<title>Node1&#45;&gt;Node59</title>
<g id="a_edge3_Node000001_Node000059"><a xlink:title=" ">
<path fill="none" stroke="#63b8ff" d="M134.43,-57.79C147.21,-49.62 165.14,-38.16 179.84,-28.77"/>
<polygon fill="#63b8ff" stroke="#63b8ff" points="181.58,-31.81 188.12,-23.47 177.81,-25.91 181.58,-31.81"/>
</a>
</g>
</g>
</g>
</svg>
