<?xml version="1.0" encoding="UTF-8" standalone="no"?>
<!DOCTYPE svg PUBLIC "-//W3C//DTD SVG 1.1//EN"
 "http://www.w3.org/Graphics/SVG/1.1/DTD/svg11.dtd">
<!-- Generated by graphviz version 2.44.0 (0)
 -->
<!-- Title: alias_new Pages: 1 -->
<svg width="173pt" height="104pt"
 viewBox="0.00 0.00 173.00 104.00" xmlns="http://www.w3.org/2000/svg" xmlns:xlink="http://www.w3.org/1999/xlink">
<g id="graph0" class="graph" transform="scale(1 1) rotate(0) translate(4 100)">
<title>alias_new</title>
<polygon fill="white" stroke="transparent" points="-4,4 -4,-100 169,-100 169,4 -4,4"/>
<!-- Node1 -->
<g id="node1" class="node">
<title>Node1</title>
<g id="a_node1"><a xlink:title="Create a new Alias.">
<polygon fill="#bfbfbf" stroke="black" points="105,-38.5 105,-57.5 165,-57.5 165,-38.5 105,-38.5"/>
<text text-anchor="middle" x="135" y="-45.5" font-family="Helvetica" font-size="10.00">alias_new</text>
</a>
</g>
</g>
<!-- Node2 -->
<g id="node2" class="node">
<title>Node2</title>
<g id="a_node2"><a xlink:href="alias_2lib_8h.html#a9a5bce1105cd6bfb1f7a614f680dfef2" target="_top" xlink:title="Create a new Alias from an Address.">
<polygon fill="white" stroke="red" points="0,-76.5 0,-95.5 69,-95.5 69,-76.5 0,-76.5"/>
<text text-anchor="middle" x="34.5" y="-83.5" font-family="Helvetica" font-size="10.00">alias_create</text>
</a>
</g>
</g>
<!-- Node1&#45;&gt;Node2 -->
<g id="edge1" class="edge">
<title>Node1&#45;&gt;Node2</title>
<path fill="none" stroke="midnightblue" d="M99.62,-61.26C86.69,-66.25 72.25,-71.82 60.35,-76.41"/>
<polygon fill="midnightblue" stroke="midnightblue" points="101.07,-64.45 109.14,-57.59 98.55,-57.92 101.07,-64.45"/>
</g>
<!-- Node549 -->
<g id="node3" class="node">
<title>Node549</title>
<g id="a_node3"><a xlink:href="alias_2lib_8h.html#a8487d20a2159f19cdf61e8a9030f0e72" target="_top" xlink:title="Parse the &#39;alias&#39; command &#45; Implements Command::parse()">
<polygon fill="white" stroke="black" points="1,-38.5 1,-57.5 68,-57.5 68,-38.5 1,-38.5"/>
<text text-anchor="middle" x="34.5" y="-45.5" font-family="Helvetica" font-size="10.00">parse_alias</text>
</a>
</g>
</g>
<!-- Node1&#45;&gt;Node549 -->
<g id="edge2" class="edge">
<title>Node1&#45;&gt;Node549</title>
<path fill="none" stroke="midnightblue" d="M94.86,-48C85.99,-48 76.67,-48 68.11,-48"/>
<polygon fill="midnightblue" stroke="midnightblue" points="94.98,-51.5 104.98,-48 94.98,-44.5 94.98,-51.5"/>
</g>
<!-- Node550 -->
<g id="node4" class="node">
<title>Node550</title>
<g id="a_node4"><a xlink:href="dlgquery_8c.html#a35eea4925485d20ee477926b9420ca35" target="_top" xlink:title="Run an external program to find Addresses.">
<polygon fill="white" stroke="red" points="4.5,-0.5 4.5,-19.5 64.5,-19.5 64.5,-0.5 4.5,-0.5"/>
<text text-anchor="middle" x="34.5" y="-7.5" font-family="Helvetica" font-size="10.00">query_run</text>
</a>
</g>
</g>
<!-- Node1&#45;&gt;Node550 -->
<g id="edge3" class="edge">
<title>Node1&#45;&gt;Node550</title>
<path fill="none" stroke="midnightblue" d="M99.62,-34.74C86.69,-29.75 72.25,-24.18 60.35,-19.59"/>
<polygon fill="midnightblue" stroke="midnightblue" points="98.55,-38.08 109.14,-38.41 101.07,-31.55 98.55,-38.08"/>
</g>
</g>
</svg>
