<?xml version="1.0" encoding="UTF-8" standalone="no"?>
<!DOCTYPE svg PUBLIC "-//W3C//DTD SVG 1.1//EN"
 "http://www.w3.org/Graphics/SVG/1.1/DTD/svg11.dtd">
<!-- Generated by graphviz version 12.2.1 (20241206.2353)
 -->
<!-- Title: alias/functions.h Pages: 1 -->
<svg width="390pt" height="89pt"
 viewBox="0.00 0.00 390.00 88.50" xmlns="http://www.w3.org/2000/svg" xmlns:xlink="http://www.w3.org/1999/xlink">
<g id="graph0" class="graph" transform="scale(1 1) rotate(0) translate(4 84.5)">
<title>alias/functions.h</title>
<!-- Node1 -->
<g id="Node000001" class="node">
<title>Node1</title>
<g id="a_Node000001"><a xlink:title="Alias functions.">
<polygon fill="#999999" stroke="#666666" points="249,-80.5 158,-80.5 158,-58.25 249,-58.25 249,-80.5"/>
<text text-anchor="middle" x="203.5" y="-67" font-family="Helvetica,sans-Serif" font-size="10.00">alias/functions.h</text>
</a>
</g>
</g>
<!-- Node2 -->
<g id="Node000002" class="node">
<title>Node2</title>
<g id="a_Node000002"><a xlink:href="dlg__alias_8c.html" target="_top" xlink:title="Address book.">
<polygon fill="white" stroke="#666666" points="85,-22.25 0,-22.25 0,0 85,0 85,-22.25"/>
<text text-anchor="middle" x="42.5" y="-8.75" font-family="Helvetica,sans-Serif" font-size="10.00">alias/dlg_alias.c</text>
</a>
</g>
</g>
<!-- Node1&#45;&gt;Node2 -->
<g id="edge1_Node000001_Node000002" class="edge">
<title>Node1&#45;&gt;Node2</title>
<g id="a_edge1_Node000001_Node000002"><a xlink:title=" ">
<path fill="none" stroke="#63b8ff" d="M162.56,-54.07C134.54,-44.28 98.02,-31.52 72.65,-22.66"/>
<polygon fill="#63b8ff" stroke="#63b8ff" points="161.19,-57.3 171.79,-57.3 163.5,-50.69 161.19,-57.3"/>
</a>
</g>
</g>
<!-- Node3 -->
<g id="Node000003" class="node">
<title>Node3</title>
<g id="a_Node000003"><a xlink:href="dlg__query_8c.html" target="_top" xlink:title="Routines for querying an external address book.">
<polygon fill="white" stroke="#666666" points="195.75,-22.25 103.25,-22.25 103.25,0 195.75,0 195.75,-22.25"/>
<text text-anchor="middle" x="149.5" y="-8.75" font-family="Helvetica,sans-Serif" font-size="10.00">alias/dlg_query.c</text>
</a>
</g>
</g>
<!-- Node1&#45;&gt;Node3 -->
<g id="edge2_Node000001_Node000003" class="edge">
<title>Node1&#45;&gt;Node3</title>
<g id="a_edge2_Node000001_Node000003"><a xlink:title=" ">
<path fill="none" stroke="#63b8ff" d="M185.62,-49.75C176.98,-40.75 166.92,-30.27 159.61,-22.66"/>
<polygon fill="#63b8ff" stroke="#63b8ff" points="182.84,-51.91 192.29,-56.7 187.89,-47.07 182.84,-51.91"/>
</a>
</g>
</g>
<!-- Node4 -->
<g id="Node000004" class="node">
<title>Node4</title>
<g id="a_Node000004"><a xlink:href="alias_2functions_8c.html" target="_top" xlink:title="Alias functions.">
<polygon fill="white" stroke="#666666" points="303.25,-22.25 213.75,-22.25 213.75,0 303.25,0 303.25,-22.25"/>
<text text-anchor="middle" x="258.5" y="-8.75" font-family="Helvetica,sans-Serif" font-size="10.00">alias/functions.c</text>
</a>
</g>
</g>
<!-- Node1&#45;&gt;Node4 -->
<g id="edge3_Node000001_Node000004" class="edge">
<title>Node1&#45;&gt;Node4</title>
<g id="a_edge3_Node000001_Node000004"><a xlink:title=" ">
<path fill="none" stroke="#63b8ff" d="M221.71,-49.75C230.51,-40.75 240.76,-30.27 248.2,-22.66"/>
<polygon fill="#63b8ff" stroke="#63b8ff" points="219.39,-47.12 214.9,-56.71 224.4,-52.01 219.39,-47.12"/>
</a>
</g>
</g>
<!-- Node5 -->
<g id="Node000005" class="node">
<title>Node5</title>
<g id="a_Node000005"><a xlink:href="gui_8c.html" target="_top" xlink:title="Shared code for the Alias and Query Dialogs.">
<polygon fill="white" stroke="#666666" points="382,-22.25 321,-22.25 321,0 382,0 382,-22.25"/>
<text text-anchor="middle" x="351.5" y="-8.75" font-family="Helvetica,sans-Serif" font-size="10.00">alias/gui.c</text>
</a>
</g>
</g>
<!-- Node1&#45;&gt;Node5 -->
<g id="edge4_Node000001_Node000005" class="edge">
<title>Node1&#45;&gt;Node5</title>
<g id="a_edge4_Node000001_Node000005"><a xlink:title=" ">
<path fill="none" stroke="#63b8ff" d="M241.82,-53.81C267.48,-44.06 300.67,-31.44 323.79,-22.66"/>
<polygon fill="#63b8ff" stroke="#63b8ff" points="240.86,-50.43 232.75,-57.26 243.34,-56.98 240.86,-50.43"/>
</a>
</g>
</g>
</g>
</svg>
