<?xml version="1.0" encoding="UTF-8" standalone="no"?>
<!DOCTYPE svg PUBLIC "-//W3C//DTD SVG 1.1//EN"
 "http://www.w3.org/Graphics/SVG/1.1/DTD/svg11.dtd">
<!-- Generated by graphviz version 7.1.0 (0)
 -->
<!-- Title: alias/lib.h Pages: 1 -->
<svg width="300pt" height="82pt"
 viewBox="0.00 0.00 299.50 82.00" xmlns="http://www.w3.org/2000/svg" xmlns:xlink="http://www.w3.org/1999/xlink">
<g id="graph0" class="graph" transform="scale(1 1) rotate(0) translate(4 78)">
<title>alias/lib.h</title>
<!-- Node1 -->
<g id="node1" class="node">
<title>Node1</title>
<g id="a_node1"><a xlink:title="Email Aliases.">
<polygon fill="#999999" stroke="#666666" points="170.5,-74 111.5,-74 111.5,-55 170.5,-55 170.5,-74"/>
<text text-anchor="middle" x="141" y="-62" font-family="Helvetica,sans-Serif" font-size="10.00">alias/lib.h</text>
</a>
</g>
</g>
<!-- Node2 -->
<g id="node2" class="node">
<title>Node2</title>
<g id="a_node2"><a xlink:title=" ">
<polygon fill="#e0e0e0" stroke="#999999" points="60,-19 0,-19 0,0 60,0 60,-19"/>
<text text-anchor="middle" x="30" y="-7" font-family="Helvetica,sans-Serif" font-size="10.00">stdbool.h</text>
</a>
</g>
</g>
<!-- Node1&#45;&gt;Node2 -->
<g id="edge1" class="edge">
<title>Node1&#45;&gt;Node2</title>
<path fill="none" stroke="#63b8ff" d="M122.17,-54.51C104.84,-46.24 78.89,-33.84 58.93,-24.31"/>
<polygon fill="#63b8ff" stroke="#63b8ff" points="60.45,-21.16 49.92,-20.01 57.43,-27.48 60.45,-21.16"/>
</g>
<!-- Node3 -->
<g id="node3" class="node">
<title>Node3</title>
<g id="a_node3"><a xlink:title=" ">
<polygon fill="#e0e0e0" stroke="#999999" points="130,-19 78,-19 78,0 130,0 130,-19"/>
<text text-anchor="middle" x="104" y="-7" font-family="Helvetica,sans-Serif" font-size="10.00">stdint.h</text>
</a>
</g>
</g>
<!-- Node1&#45;&gt;Node3 -->
<g id="edge2" class="edge">
<title>Node1&#45;&gt;Node3</title>
<path fill="none" stroke="#63b8ff" d="M134.89,-54.75C129.99,-47.73 122.95,-37.64 116.83,-28.87"/>
<polygon fill="#63b8ff" stroke="#63b8ff" points="119.7,-26.88 111.11,-20.68 113.96,-30.89 119.7,-26.88"/>
</g>
<!-- Node4 -->
<g id="node4" class="node">
<title>Node4</title>
<g id="a_node4"><a xlink:href="core_2lib_8h.html" target="_top" xlink:title="Convenience wrapper for the core headers.">
<polygon fill="#fff0f0" stroke="red" points="208,-19 148,-19 148,0 208,0 208,-19"/>
<text text-anchor="middle" x="178" y="-7" font-family="Helvetica,sans-Serif" font-size="10.00">core/lib.h</text>
</a>
</g>
</g>
<!-- Node1&#45;&gt;Node4 -->
<g id="edge3" class="edge">
<title>Node1&#45;&gt;Node4</title>
<path fill="none" stroke="#63b8ff" d="M147.11,-54.75C152.01,-47.73 159.05,-37.64 165.17,-28.87"/>
<polygon fill="#63b8ff" stroke="#63b8ff" points="168.04,-30.89 170.89,-20.68 162.3,-26.88 168.04,-30.89"/>
</g>
<!-- Node64 -->
<g id="node5" class="node">
<title>Node64</title>
<g id="a_node5"><a xlink:href="alias_2expando_8h.html" target="_top" xlink:title="Alias Expando definitions.">
<polygon fill="#fff0f0" stroke="red" points="291.5,-19 226.5,-19 226.5,0 291.5,0 291.5,-19"/>
<text text-anchor="middle" x="259" y="-7" font-family="Helvetica,sans-Serif" font-size="10.00">expando.h</text>
</a>
</g>
</g>
<!-- Node1&#45;&gt;Node64 -->
<g id="edge4" class="edge">
<title>Node1&#45;&gt;Node64</title>
<path fill="none" stroke="#63b8ff" d="M161.02,-54.51C179.61,-46.16 207.54,-33.61 228.83,-24.05"/>
<polygon fill="#63b8ff" stroke="#63b8ff" points="230.21,-27.27 237.9,-19.98 227.34,-20.88 230.21,-27.27"/>
</g>
</g>
</svg>
