<?xml version="1.0" encoding="UTF-8" standalone="no"?>
<!DOCTYPE svg PUBLIC "-//W3C//DTD SVG 1.1//EN"
 "http://www.w3.org/Graphics/SVG/1.1/DTD/svg11.dtd">
<!-- Generated by graphviz version 12.2.1 (20241206.2353)
 -->
<!-- Title: str_atol_clamp Pages: 1 -->
<svg width="206pt" height="110pt"
 viewBox="0.00 0.00 205.75 110.25" xmlns="http://www.w3.org/2000/svg" xmlns:xlink="http://www.w3.org/1999/xlink">
<g id="graph0" class="graph" transform="scale(1 1) rotate(0) translate(4 106.25)">
<title>str_atol_clamp</title>
<!-- Node1 -->
<g id="Node000001" class="node">
<title>Node1</title>
<g id="a_Node000001"><a xlink:title="Convert ASCII string to a long and clamp.">
<polygon fill="#999999" stroke="#666666" points="197.75,-62.25 115.75,-62.25 115.75,-40 197.75,-40 197.75,-62.25"/>
<text text-anchor="middle" x="156.75" y="-48.75" font-family="Helvetica,sans-Serif" font-size="10.00">str_atol_clamp</text>
</a>
</g>
</g>
<!-- Node2 -->
<g id="Node000002" class="node">
<title>Node2</title>
<g id="a_Node000002"><a xlink:href="atoi_8c.html#ae5e07d3703764e9773459be2a6461f07" target="_top" xlink:title="Convert ASCII string to an integer.">
<polygon fill="#fff0f0" stroke="red" points="78.62,-102.25 1.12,-102.25 1.12,-80 78.62,-80 78.62,-102.25"/>
<text text-anchor="middle" x="39.88" y="-88.75" font-family="Helvetica,sans-Serif" font-size="10.00">mutt_str_atoi</text>
</a>
</g>
</g>
<!-- Node1&#45;&gt;Node2 -->
<g id="edge1_Node000001_Node000002" class="edge">
<title>Node1&#45;&gt;Node2</title>
<g id="a_edge1_Node000001_Node000002"><a xlink:title=" ">
<path fill="none" stroke="#63b8ff" d="M111.8,-66.43C99.26,-70.8 85.81,-75.48 74.03,-79.58"/>
<polygon fill="#63b8ff" stroke="#63b8ff" points="112.8,-69.79 121.09,-63.19 110.5,-63.18 112.8,-69.79"/>
</a>
</g>
</g>
<!-- Node775 -->
<g id="Node000775" class="node">
<title>Node775</title>
<g id="a_Node000775"><a xlink:href="atoi_8c.html#a7419d7ff4eaeb7103108e7910ae060e2" target="_top" xlink:title="Convert ASCII string to a long.">
<polygon fill="#fff0f0" stroke="red" points="78.62,-62.25 1.12,-62.25 1.12,-40 78.62,-40 78.62,-62.25"/>
<text text-anchor="middle" x="39.88" y="-48.75" font-family="Helvetica,sans-Serif" font-size="10.00">mutt_str_atol</text>
</a>
</g>
</g>
<!-- Node1&#45;&gt;Node775 -->
<g id="edge2_Node000001_Node000775" class="edge">
<title>Node1&#45;&gt;Node775</title>
<g id="a_edge2_Node000001_Node000775"><a xlink:title=" ">
<path fill="none" stroke="#63b8ff" d="M104.16,-51.12C95.67,-51.12 87,-51.12 78.91,-51.12"/>
<polygon fill="#63b8ff" stroke="#63b8ff" points="104.06,-54.63 114.06,-51.13 104.06,-47.63 104.06,-54.63"/>
</a>
</g>
</g>
<!-- Node777 -->
<g id="Node000777" class="node">
<title>Node777</title>
<g id="a_Node000777"><a xlink:href="atoi_8c.html#ab1cc451b4fc8ad58d35efc9268052e76" target="_top" xlink:title="Convert ASCII string to a short.">
<polygon fill="white" stroke="#666666" points="79.75,-22.25 0,-22.25 0,0 79.75,0 79.75,-22.25"/>
<text text-anchor="middle" x="39.88" y="-8.75" font-family="Helvetica,sans-Serif" font-size="10.00">mutt_str_atos</text>
</a>
</g>
</g>
<!-- Node1&#45;&gt;Node777 -->
<g id="edge3_Node000001_Node000777" class="edge">
<title>Node1&#45;&gt;Node777</title>
<g id="a_edge3_Node000001_Node000777"><a xlink:title=" ">
<path fill="none" stroke="#63b8ff" d="M111.8,-35.82C99.26,-31.45 85.81,-26.77 74.03,-22.67"/>
<polygon fill="#63b8ff" stroke="#63b8ff" points="110.5,-39.07 121.09,-39.06 112.8,-32.46 110.5,-39.07"/>
</a>
</g>
</g>
</g>
</svg>
