<?xml version="1.0" encoding="UTF-8" standalone="no"?>
<!DOCTYPE svg PUBLIC "-//W3C//DTD SVG 1.1//EN"
 "http://www.w3.org/Graphics/SVG/1.1/DTD/svg11.dtd">
<!-- Generated by graphviz version 7.1.0 (0)
 -->
<!-- Title: attach/lib.h Pages: 1 -->
<svg width="2922pt" height="137pt"
 viewBox="0.00 0.00 2921.50 137.00" xmlns="http://www.w3.org/2000/svg" xmlns:xlink="http://www.w3.org/1999/xlink">
<g id="graph0" class="graph" transform="scale(1 1) rotate(0) translate(4 133)">
<title>attach/lib.h</title>
<!-- Node1 -->
<g id="node1" class="node">
<title>Node1</title>
<g id="a_node1"><a xlink:title="GUI display the mailboxes in a side panel.">
<polygon fill="#999999" stroke="#666666" points="1243,-129 1175,-129 1175,-110 1243,-110 1243,-129"/>
<text text-anchor="middle" x="1209" y="-117" font-family="Helvetica,sans-Serif" font-size="10.00">attach/lib.h</text>
</a>
</g>
</g>
<!-- Node2 -->
<g id="node2" class="node">
<title>Node2</title>
<g id="a_node2"><a xlink:href="dlg__attach_8c.html" target="_top" xlink:title="Attachment Selection Dialog.">
<polygon fill="white" stroke="#666666" points="552,-74 448,-74 448,-55 552,-55 552,-74"/>
<text text-anchor="middle" x="500" y="-62" font-family="Helvetica,sans-Serif" font-size="10.00">attach/dlg_attach.c</text>
</a>
</g>
</g>
<!-- Node1&#45;&gt;Node2 -->
<g id="edge1" class="edge">
<title>Node1&#45;&gt;Node2</title>
<path fill="none" stroke="#63b8ff" d="M1163.34,-116.27C1057.93,-110.91 789.56,-96.11 566,-74 561.52,-73.56 556.87,-73.05 552.21,-72.51"/>
<polygon fill="#63b8ff" stroke="#63b8ff" points="1163.11,-119.76 1173.27,-116.77 1163.46,-112.77 1163.11,-119.76"/>
</g>
<!-- Node3 -->
<g id="node3" class="node">
<title>Node3</title>
<g id="a_node3"><a xlink:href="attach_2expando_8c.html" target="_top" xlink:title="Attach Expando definitions.">
<polygon fill="white" stroke="#666666" points="96,-19 0,-19 0,0 96,0 96,-19"/>
<text text-anchor="middle" x="48" y="-7" font-family="Helvetica,sans-Serif" font-size="10.00">attach/expando.c</text>
</a>
</g>
</g>
<!-- Node1&#45;&gt;Node3 -->
<g id="edge2" class="edge">
<title>Node1&#45;&gt;Node3</title>
<path fill="none" stroke="#63b8ff" d="M1163.54,-117.83C1040.04,-115.61 700.47,-106.62 594,-74 577.82,-69.04 577.17,-60.01 561,-55 366.82,5.19 306.99,-42.01 105,-19 102.22,-18.68 99.36,-18.33 96.48,-17.96"/>
<polygon fill="#63b8ff" stroke="#63b8ff" points="1163.23,-121.33 1173.29,-118 1163.35,-114.33 1163.23,-121.33"/>
</g>
<!-- Node4 -->
<g id="node4" class="node">
<title>Node4</title>
<g id="a_node4"><a xlink:href="mutt__attach_8c.html" target="_top" xlink:title="Handling of email attachments.">
<polygon fill="white" stroke="#666666" points="226,-19 114,-19 114,0 226,0 226,-19"/>
<text text-anchor="middle" x="170" y="-7" font-family="Helvetica,sans-Serif" font-size="10.00">attach/mutt_attach.c</text>
</a>
</g>
</g>
<!-- Node1&#45;&gt;Node4 -->
<g id="edge3" class="edge">
<title>Node1&#45;&gt;Node4</title>
<path fill="none" stroke="#63b8ff" d="M1163.27,-117.24C1045.09,-113.63 731.81,-101.66 632,-74 613.8,-68.96 612.14,-60.25 594,-55 439.97,-10.41 394.3,-37.4 235,-19 232.17,-18.67 229.28,-18.33 226.36,-17.98"/>
<polygon fill="#63b8ff" stroke="#63b8ff" points="1163.13,-120.74 1173.23,-117.54 1163.34,-113.74 1163.13,-120.74"/>
</g>
<!-- Node5 -->
<g id="node5" class="node">
<title>Node5</title>
<g id="a_node5"><a xlink:href="browser_2functions_8c.html" target="_top" xlink:title="Browser functions.">
<polygon fill="white" stroke="#666666" points="353.5,-19 244.5,-19 244.5,0 353.5,0 353.5,-19"/>
<text text-anchor="middle" x="299" y="-7" font-family="Helvetica,sans-Serif" font-size="10.00">browser/functions.c</text>
</a>
</g>
</g>
<!-- Node1&#45;&gt;Node5 -->
<g id="edge4" class="edge">
<title>Node1&#45;&gt;Node5</title>
<path fill="none" stroke="#63b8ff" d="M1163.58,-116.97C1051.18,-112.81 762.46,-99.89 670,-74 651.82,-68.91 650.05,-60.55 632,-55 631.17,-54.75 448.14,-30.36 353.82,-17.8"/>
<polygon fill="#63b8ff" stroke="#63b8ff" points="1163.2,-120.45 1173.32,-117.32 1163.46,-113.46 1163.2,-120.45"/>
</g>
<!-- Node6 -->
<g id="node6" class="node">
<title>Node6</title>
<g id="a_node6"><a xlink:href="commands_8c.html" target="_top" xlink:title="Functions to parse commands in a config file.">
<polygon fill="white" stroke="#666666" points="446,-19 372,-19 372,0 446,0 446,-19"/>
<text text-anchor="middle" x="409" y="-7" font-family="Helvetica,sans-Serif" font-size="10.00">commands.c</text>
</a>
</g>
</g>
<!-- Node1&#45;&gt;Node6 -->
<g id="edge5" class="edge">
<title>Node1&#45;&gt;Node6</title>
<path fill="none" stroke="#63b8ff" d="M1163.51,-116.63C1056.8,-111.91 793.03,-98.09 708,-74 689.83,-68.85 687.95,-60.85 670,-55 577.87,-25 550.42,-35.8 455,-19 452.12,-18.49 449.14,-17.96 446.15,-17.42"/>
<polygon fill="#63b8ff" stroke="#63b8ff" points="1163.17,-120.12 1173.32,-117.06 1163.48,-113.13 1163.17,-120.12"/>
</g>
<!-- Node7 -->
<g id="node7" class="node">
<title>Node7</title>
<g id="a_node7"><a xlink:href="compose_2attach_8c.html" target="_top" xlink:title="Compose Attachments.">
<polygon fill="white" stroke="#666666" points="1430,-74 1332,-74 1332,-55 1430,-55 1430,-74"/>
<text text-anchor="middle" x="1381" y="-62" font-family="Helvetica,sans-Serif" font-size="10.00">compose/attach.c</text>
</a>
</g>
</g>
<!-- Node1&#45;&gt;Node7 -->
<g id="edge6" class="edge">
<title>Node1&#45;&gt;Node7</title>
<path fill="none" stroke="#63b8ff" d="M1248.79,-106.24C1280.32,-96.52 1323.64,-83.18 1351.97,-74.45"/>
<polygon fill="#63b8ff" stroke="#63b8ff" points="1248.15,-102.77 1239.62,-109.06 1250.21,-109.46 1248.15,-102.77"/>
</g>
<!-- Node8 -->
<g id="node8" class="node">
<title>Node8</title>
<g id="a_node8"><a xlink:href="attach__data_8c.html" target="_top" xlink:title="Compose Attach Data.">
<polygon fill="white" stroke="#666666" points="1571.5,-74 1448.5,-74 1448.5,-55 1571.5,-55 1571.5,-74"/>
<text text-anchor="middle" x="1510" y="-62" font-family="Helvetica,sans-Serif" font-size="10.00">compose/attach_data.c</text>
</a>
</g>
</g>
<!-- Node1&#45;&gt;Node8 -->
<g id="edge7" class="edge">
<title>Node1&#45;&gt;Node8</title>
<path fill="none" stroke="#63b8ff" d="M1254.37,-110.51C1309.32,-100.84 1401.63,-84.58 1459,-74.48"/>
<polygon fill="#63b8ff" stroke="#63b8ff" points="1253.97,-107.03 1244.73,-112.21 1255.18,-113.92 1253.97,-107.03"/>
</g>
<!-- Node9 -->
<g id="node9" class="node">
<title>Node9</title>
<g id="a_node9"><a xlink:href="dlg__compose_8c.html" target="_top" xlink:title="Compose Email Dialog.">
<polygon fill="white" stroke="#666666" points="1720.5,-74 1589.5,-74 1589.5,-55 1720.5,-55 1720.5,-74"/>
<text text-anchor="middle" x="1655" y="-62" font-family="Helvetica,sans-Serif" font-size="10.00">compose/dlg_compose.c</text>
</a>
</g>
</g>
<!-- Node1&#45;&gt;Node9 -->
<g id="edge8" class="edge">
<title>Node1&#45;&gt;Node9</title>
<path fill="none" stroke="#63b8ff" d="M1254.31,-113.12C1333.49,-103.71 1497.35,-84.23 1589.1,-73.33"/>
<polygon fill="#63b8ff" stroke="#63b8ff" points="1254.28,-109.59 1244.76,-114.25 1255.1,-116.55 1254.28,-109.59"/>
</g>
<!-- Node10 -->
<g id="node10" class="node">
<title>Node10</title>
<g id="a_node10"><a xlink:href="compose_2functions_8c.html" target="_top" xlink:title="Compose functions.">
<polygon fill="white" stroke="#666666" points="577.5,-19 464.5,-19 464.5,0 577.5,0 577.5,-19"/>
<text text-anchor="middle" x="521" y="-7" font-family="Helvetica,sans-Serif" font-size="10.00">compose/functions.c</text>
</a>
</g>
</g>
<!-- Node1&#45;&gt;Node10 -->
<g id="edge9" class="edge">
<title>Node1&#45;&gt;Node10</title>
<path fill="none" stroke="#63b8ff" d="M1163.49,-116.25C1062.74,-110.93 823.64,-96.3 746,-74 727.85,-68.79 725.75,-61.45 708,-55 663.46,-38.81 610.8,-26.89 572.73,-19.48"/>
<polygon fill="#63b8ff" stroke="#63b8ff" points="1163.11,-119.74 1173.27,-116.76 1163.47,-112.74 1163.11,-119.74"/>
</g>
<!-- Node11 -->
<g id="node11" class="node">
<title>Node11</title>
<g id="a_node11"><a xlink:href="debug_2email_8c.html" target="_top" xlink:title="Dump an Email.">
<polygon fill="white" stroke="#666666" points="1821.5,-74 1738.5,-74 1738.5,-55 1821.5,-55 1821.5,-74"/>
<text text-anchor="middle" x="1780" y="-62" font-family="Helvetica,sans-Serif" font-size="10.00">debug/email.c</text>
</a>
</g>
</g>
<!-- Node1&#45;&gt;Node11 -->
<g id="edge10" class="edge">
<title>Node1&#45;&gt;Node11</title>
<path fill="none" stroke="#63b8ff" d="M1254.47,-115.89C1345.15,-110.41 1554.87,-96.33 1730,-74 1732.62,-73.67 1735.31,-73.29 1738.03,-72.9"/>
<polygon fill="#63b8ff" stroke="#63b8ff" points="1254.52,-112.38 1244.75,-116.47 1254.94,-119.37 1254.52,-112.38"/>
</g>
<!-- Node12 -->
<g id="node12" class="node">
<title>Node12</title>
<g id="a_node12"><a xlink:href="graphviz_8c.html" target="_top" xlink:title="Create a GraphViz dot file from the NeoMutt objects.">
<polygon fill="white" stroke="#666666" points="1936.5,-74 1839.5,-74 1839.5,-55 1936.5,-55 1936.5,-74"/>
<text text-anchor="middle" x="1888" y="-62" font-family="Helvetica,sans-Serif" font-size="10.00">debug/graphviz.c</text>
</a>
</g>
</g>
<!-- Node1&#45;&gt;Node12 -->
<g id="edge11" class="edge">
<title>Node1&#45;&gt;Node12</title>
<path fill="none" stroke="#63b8ff" d="M1254.68,-116.43C1357.72,-111.51 1615.99,-97.69 1831,-74 1833.69,-73.7 1836.44,-73.38 1839.21,-73.03"/>
<polygon fill="#63b8ff" stroke="#63b8ff" points="1254.81,-112.92 1244.98,-116.89 1255.14,-119.91 1254.81,-112.92"/>
</g>
<!-- Node13 -->
<g id="node13" class="node">
<title>Node13</title>
<g id="a_node13"><a xlink:href="names__expando_8c.html" target="_top" xlink:title="Debug names for Expandos.">
<polygon fill="white" stroke="#666666" points="2087.5,-74 1954.5,-74 1954.5,-55 2087.5,-55 2087.5,-74"/>
<text text-anchor="middle" x="2021" y="-62" font-family="Helvetica,sans-Serif" font-size="10.00">debug/names_expando.c</text>
</a>
</g>
</g>
<!-- Node1&#45;&gt;Node13 -->
<g id="edge12" class="edge">
<title>Node1&#45;&gt;Node13</title>
<path fill="none" stroke="#63b8ff" d="M1254.4,-116.59C1369.95,-111.55 1684.56,-96.69 1946,-74 1948.74,-73.76 1951.54,-73.51 1954.36,-73.24"/>
<polygon fill="#63b8ff" stroke="#63b8ff" points="1254.56,-113.08 1244.72,-117.01 1254.86,-120.07 1254.56,-113.08"/>
</g>
<!-- Node14 -->
<g id="node14" class="node">
<title>Node14</title>
<g id="a_node14"><a xlink:href="external_8c.html" target="_top" xlink:title="Manage where the email is piped to external commands.">
<polygon fill="white" stroke="#666666" points="658,-19 596,-19 596,0 658,0 658,-19"/>
<text text-anchor="middle" x="627" y="-7" font-family="Helvetica,sans-Serif" font-size="10.00">external.c</text>
</a>
</g>
</g>
<!-- Node1&#45;&gt;Node14 -->
<g id="edge13" class="edge">
<title>Node1&#45;&gt;Node14</title>
<path fill="none" stroke="#63b8ff" d="M1163.27,-118.55C1084.84,-117.56 920.23,-110.8 787,-74 767.64,-68.65 764.53,-62.75 746,-55 714.25,-41.73 677.01,-28.11 652.76,-19.49"/>
<polygon fill="#63b8ff" stroke="#63b8ff" points="1163.11,-122.05 1173.14,-118.64 1163.18,-115.05 1163.11,-122.05"/>
</g>
<!-- Node15 -->
<g id="node15" class="node">
<title>Node15</title>
<g id="a_node15"><a xlink:href="handler_8c.html" target="_top" xlink:title="Decide how to display email content.">
<polygon fill="white" stroke="#666666" points="734,-19 676,-19 676,0 734,0 734,-19"/>
<text text-anchor="middle" x="705" y="-7" font-family="Helvetica,sans-Serif" font-size="10.00">handler.c</text>
</a>
</g>
</g>
<!-- Node1&#45;&gt;Node15 -->
<g id="edge14" class="edge">
<title>Node1&#45;&gt;Node15</title>
<path fill="none" stroke="#63b8ff" d="M1163.44,-117.59C1092.99,-115.17 953.97,-106.31 841,-74 794.65,-60.74 744.27,-33.48 719.89,-19.38"/>
<polygon fill="#63b8ff" stroke="#63b8ff" points="1162.93,-121.08 1173.04,-117.89 1163.15,-114.08 1162.93,-121.08"/>
</g>
<!-- Node16 -->
<g id="node16" class="node">
<title>Node16</title>
<g id="a_node16"><a xlink:href="hook_8c.html" target="_top" xlink:title="Parse and execute user&#45;defined hooks.">
<polygon fill="white" stroke="#666666" points="799.5,-19 752.5,-19 752.5,0 799.5,0 799.5,-19"/>
<text text-anchor="middle" x="776" y="-7" font-family="Helvetica,sans-Serif" font-size="10.00">hook.c</text>
</a>
</g>
</g>
<!-- Node1&#45;&gt;Node16 -->
<g id="edge15" class="edge">
<title>Node1&#45;&gt;Node16</title>
<path fill="none" stroke="#63b8ff" d="M1163.62,-117.8C1099.76,-115.58 980.51,-106.93 885,-74 846.7,-60.79 806.83,-33.51 787.66,-19.4"/>
<polygon fill="#63b8ff" stroke="#63b8ff" points="1163.27,-121.29 1173.37,-118.09 1163.48,-114.29 1163.27,-121.29"/>
</g>
<!-- Node17 -->
<g id="node17" class="node">
<title>Node17</title>
<g id="a_node17"><a xlink:href="expando__index_8c.html" target="_top" xlink:title="String processing routines to generate the mail index.">
<polygon fill="white" stroke="#666666" points="940,-19 818,-19 818,0 940,0 940,-19"/>
<text text-anchor="middle" x="879" y="-7" font-family="Helvetica,sans-Serif" font-size="10.00">index/expando_index.c</text>
</a>
</g>
</g>
<!-- Node1&#45;&gt;Node17 -->
<g id="edge16" class="edge">
<title>Node1&#45;&gt;Node17</title>
<path fill="none" stroke="#63b8ff" d="M1163.1,-117.41C1087.73,-114.72 942.18,-105.48 903,-74 885.91,-60.27 880.99,-32.97 879.57,-19.07"/>
<polygon fill="#63b8ff" stroke="#63b8ff" points="1162.95,-120.9 1173.06,-117.73 1163.18,-113.91 1162.95,-120.9"/>
</g>
<!-- Node18 -->
<g id="node18" class="node">
<title>Node18</title>
<g id="a_node18"><a xlink:href="index_2functions_8c.html" target="_top" xlink:title="Index functions.">
<polygon fill="white" stroke="#666666" points="1053.5,-19 958.5,-19 958.5,0 1053.5,0 1053.5,-19"/>
<text text-anchor="middle" x="1006" y="-7" font-family="Helvetica,sans-Serif" font-size="10.00">index/functions.c</text>
</a>
</g>
</g>
<!-- Node1&#45;&gt;Node18 -->
<g id="edge17" class="edge">
<title>Node1&#45;&gt;Node18</title>
<path fill="none" stroke="#63b8ff" d="M1163.94,-106.54C1139.42,-99.04 1109.07,-88.11 1084,-74 1056.31,-58.41 1028.57,-32.89 1014.84,-19.44"/>
<polygon fill="#63b8ff" stroke="#63b8ff" points="1162.72,-109.83 1173.31,-109.31 1164.71,-103.12 1162.72,-109.83"/>
</g>
<!-- Node19 -->
<g id="node19" class="node">
<title>Node19</title>
<g id="a_node19"><a xlink:href="index_8c.html" target="_top" xlink:title="Index Window.">
<polygon fill="white" stroke="#666666" points="1148.5,-19 1071.5,-19 1071.5,0 1148.5,0 1148.5,-19"/>
<text text-anchor="middle" x="1110" y="-7" font-family="Helvetica,sans-Serif" font-size="10.00">index/index.c</text>
</a>
</g>
</g>
<!-- Node1&#45;&gt;Node19 -->
<g id="edge18" class="edge">
<title>Node1&#45;&gt;Node19</title>
<path fill="none" stroke="#63b8ff" d="M1163.66,-113.7C1138.06,-108.41 1108.07,-97.3 1092,-74 1080.29,-57.02 1093.95,-32.52 1103.09,-19.48"/>
<polygon fill="#63b8ff" stroke="#63b8ff" points="1162.72,-117.09 1173.19,-115.42 1163.97,-110.2 1162.72,-117.09"/>
</g>
<!-- Node20 -->
<g id="node20" class="node">
<title>Node20</title>
<g id="a_node20"><a xlink:href="mailcap_8c.html" target="_top" xlink:title="RFC1524 Mailcap routines.">
<polygon fill="white" stroke="#666666" points="1225.5,-19 1166.5,-19 1166.5,0 1225.5,0 1225.5,-19"/>
<text text-anchor="middle" x="1196" y="-7" font-family="Helvetica,sans-Serif" font-size="10.00">mailcap.c</text>
</a>
</g>
</g>
<!-- Node1&#45;&gt;Node20 -->
<g id="edge19" class="edge">
<title>Node1&#45;&gt;Node20</title>
<path fill="none" stroke="#63b8ff" d="M1163.56,-112.07C1140.41,-106.24 1114.2,-95.14 1100,-74 1080.72,-45.3 1131.34,-26.39 1166.19,-17.15"/>
<polygon fill="#63b8ff" stroke="#63b8ff" points="1162.62,-115.45 1173.14,-114.2 1164.14,-108.62 1162.62,-115.45"/>
</g>
<!-- Node21 -->
<g id="node21" class="node">
<title>Node21</title>
<g id="a_node21"><a xlink:href="main_8c.html" target="_top" xlink:title="Command line processing.">
<polygon fill="white" stroke="#666666" points="1290.5,-19 1243.5,-19 1243.5,0 1290.5,0 1290.5,-19"/>
<text text-anchor="middle" x="1267" y="-7" font-family="Helvetica,sans-Serif" font-size="10.00">main.c</text>
</a>
</g>
</g>
<!-- Node1&#45;&gt;Node21 -->
<g id="edge20" class="edge">
<title>Node1&#45;&gt;Node21</title>
<path fill="none" stroke="#63b8ff" d="M1174.54,-104.95C1150.01,-93.22 1123.72,-75.03 1138,-55 1144.29,-46.17 1207.51,-27.23 1243.05,-17.14"/>
<polygon fill="#63b8ff" stroke="#63b8ff" points="1172.88,-108.04 1183.44,-108.95 1175.75,-101.66 1172.88,-108.04"/>
</g>
<!-- Node22 -->
<g id="node22" class="node">
<title>Node22</title>
<g id="a_node22"><a xlink:href="mutt__body_8c.html" target="_top" xlink:title="Representation of the body of an email.">
<polygon fill="white" stroke="#666666" points="1383,-19 1309,-19 1309,0 1383,0 1383,-19"/>
<text text-anchor="middle" x="1346" y="-7" font-family="Helvetica,sans-Serif" font-size="10.00">mutt_body.c</text>
</a>
</g>
</g>
<!-- Node1&#45;&gt;Node22 -->
<g id="edge21" class="edge">
<title>Node1&#45;&gt;Node22</title>
<path fill="none" stroke="#63b8ff" d="M1190.25,-101.81C1177.49,-88.42 1164.79,-69.52 1176,-55 1184.18,-44.4 1261.04,-27.42 1308.57,-17.79"/>
<polygon fill="#63b8ff" stroke="#63b8ff" points="1187.69,-104.2 1197.3,-108.66 1192.57,-99.18 1187.69,-104.2"/>
</g>
<!-- Node23 -->
<g id="node23" class="node">
<title>Node23</title>
<g id="a_node23"><a xlink:href="mutt__config_8c.html" target="_top" xlink:title="Definitions of config variables.">
<polygon fill="white" stroke="#666666" points="2186,-74 2106,-74 2106,-55 2186,-55 2186,-74"/>
<text text-anchor="middle" x="2146" y="-62" font-family="Helvetica,sans-Serif" font-size="10.00">mutt_config.c</text>
</a>
</g>
</g>
<!-- Node1&#45;&gt;Node23 -->
<g id="edge22" class="edge">
<title>Node1&#45;&gt;Node23</title>
<path fill="none" stroke="#63b8ff" d="M1254.57,-118.17C1385.8,-116.8 1775.71,-109.78 2097,-74 2099.83,-73.68 2102.75,-73.31 2105.68,-72.89"/>
<polygon fill="#63b8ff" stroke="#63b8ff" points="1254.88,-114.67 1244.92,-118.26 1254.95,-121.67 1254.88,-114.67"/>
</g>
<!-- Node24 -->
<g id="node24" class="node">
<title>Node24</title>
<g id="a_node24"><a xlink:href="mutt__signal_8c.html" target="_top" xlink:title="Signal handling.">
<polygon fill="white" stroke="#666666" points="2281.5,-74 2204.5,-74 2204.5,-55 2281.5,-55 2281.5,-74"/>
<text text-anchor="middle" x="2243" y="-62" font-family="Helvetica,sans-Serif" font-size="10.00">mutt_signal.c</text>
</a>
</g>
</g>
<!-- Node1&#45;&gt;Node24 -->
<g id="edge23" class="edge">
<title>Node1&#45;&gt;Node24</title>
<path fill="none" stroke="#63b8ff" d="M1254.29,-118.55C1394.53,-118.25 1833.86,-113.95 2195,-74 2197.94,-73.67 2200.98,-73.28 2204.03,-72.84"/>
<polygon fill="#63b8ff" stroke="#63b8ff" points="1254.69,-115.05 1244.7,-118.56 1254.7,-122.05 1254.69,-115.05"/>
</g>
<!-- Node25 -->
<g id="node25" class="node">
<title>Node25</title>
<g id="a_node25"><a xlink:href="muttlib_8h.html" target="_top" xlink:title="Some miscellaneous functions.">
<polygon fill="#fff0f0" stroke="red" points="971.5,-74 912.5,-74 912.5,-55 971.5,-55 971.5,-74"/>
<text text-anchor="middle" x="942" y="-62" font-family="Helvetica,sans-Serif" font-size="10.00">muttlib.h</text>
</a>
</g>
</g>
<!-- Node1&#45;&gt;Node25 -->
<g id="edge24" class="edge">
<title>Node1&#45;&gt;Node25</title>
<path fill="none" stroke="#63b8ff" d="M1163.52,-109.47C1108.73,-98.6 1018.27,-80.64 971.71,-71.4"/>
<polygon fill="#63b8ff" stroke="#63b8ff" points="1162.67,-112.87 1173.16,-111.38 1164.03,-106 1162.67,-112.87"/>
</g>
<!-- Node54 -->
<g id="node26" class="node">
<title>Node54</title>
<g id="a_node26"><a xlink:href="nntp_8c.html" target="_top" xlink:title="Usenet network mailbox type; talk to an NNTP server.">
<polygon fill="white" stroke="#666666" points="1472.5,-19 1401.5,-19 1401.5,0 1472.5,0 1472.5,-19"/>
<text text-anchor="middle" x="1437" y="-7" font-family="Helvetica,sans-Serif" font-size="10.00">nntp/nntp.c</text>
</a>
</g>
</g>
<!-- Node1&#45;&gt;Node54 -->
<g id="edge46" class="edge">
<title>Node1&#45;&gt;Node54</title>
<path fill="none" stroke="#63b8ff" d="M1204.85,-98.59C1203.18,-84.71 1203.66,-66.65 1214,-55 1215.56,-53.24 1338.93,-29.33 1401.47,-17.31"/>
<polygon fill="#63b8ff" stroke="#63b8ff" points="1201.38,-99.1 1206.5,-108.37 1208.29,-97.93 1201.38,-99.1"/>
</g>
<!-- Node55 -->
<g id="node27" class="node">
<title>Node55</title>
<g id="a_node27"><a xlink:href="pager_2functions_8c.html" target="_top" xlink:title="Pager functions.">
<polygon fill="white" stroke="#666666" points="1589,-19 1491,-19 1491,0 1589,0 1589,-19"/>
<text text-anchor="middle" x="1540" y="-7" font-family="Helvetica,sans-Serif" font-size="10.00">pager/functions.c</text>
</a>
</g>
</g>
<!-- Node1&#45;&gt;Node55 -->
<g id="edge47" class="edge">
<title>Node1&#45;&gt;Node55</title>
<path fill="none" stroke="#63b8ff" d="M1216.79,-99.39C1223.78,-84.79 1235.49,-65.45 1252,-55 1254.51,-53.41 1409.06,-30.09 1490.69,-17.87"/>
<polygon fill="#63b8ff" stroke="#63b8ff" points="1213.63,-97.88 1212.8,-108.44 1220.04,-100.7 1213.63,-97.88"/>
</g>
<!-- Node60 -->
<g id="node28" class="node">
<title>Node60</title>
<g id="a_node28"><a xlink:href="send_8c.html" target="_top" xlink:title="Prepare and send an email.">
<polygon fill="white" stroke="#666666" points="1680.5,-19 1607.5,-19 1607.5,0 1680.5,0 1680.5,-19"/>
<text text-anchor="middle" x="1644" y="-7" font-family="Helvetica,sans-Serif" font-size="10.00">send/send.c</text>
</a>
</g>
</g>
<!-- Node1&#45;&gt;Node60 -->
<g id="edge51" class="edge">
<title>Node1&#45;&gt;Node60</title>
<path fill="none" stroke="#63b8ff" d="M1224.77,-101.71C1239.95,-86.73 1264.31,-65.58 1290,-55 1417.44,-2.52 1461.72,-39.53 1598,-19 1600.97,-18.55 1604.04,-18.06 1607.13,-17.54"/>
<polygon fill="#63b8ff" stroke="#63b8ff" points="1222.52,-99.02 1218.02,-108.61 1227.52,-103.91 1222.52,-99.02"/>
</g>
<!-- Node61 -->
<g id="node29" class="node">
<title>Node61</title>
<g id="a_node29"><a xlink:href="sendlib_8c.html" target="_top" xlink:title="Miscellaneous functions for sending an email.">
<polygon fill="white" stroke="#666666" points="1781.5,-19 1698.5,-19 1698.5,0 1781.5,0 1781.5,-19"/>
<text text-anchor="middle" x="1740" y="-7" font-family="Helvetica,sans-Serif" font-size="10.00">send/sendlib.c</text>
</a>
</g>
</g>
<!-- Node1&#45;&gt;Node61 -->
<g id="edge52" class="edge">
<title>Node1&#45;&gt;Node61</title>
<path fill="none" stroke="#63b8ff" d="M1234.77,-103.98C1267.66,-85.46 1320.62,-55.74 1323,-55 1479.43,-6.1 1527.56,-40.75 1690,-19 1692.62,-18.65 1695.31,-18.26 1698.02,-17.86"/>
<polygon fill="#63b8ff" stroke="#63b8ff" points="1233.2,-100.84 1226.2,-108.8 1236.63,-106.94 1233.2,-100.84"/>
</g>
<!-- Node63 -->
<g id="node30" class="node">
<title>Node63</title>
<g id="a_node30"><a xlink:href="crypt_8c.html" target="_top" xlink:title="Signing/encryption multiplexor.">
<polygon fill="white" stroke="#666666" points="2382,-74 2300,-74 2300,-55 2382,-55 2382,-74"/>
<text text-anchor="middle" x="2341" y="-62" font-family="Helvetica,sans-Serif" font-size="10.00">ncrypt/crypt.c</text>
</a>
</g>
</g>
<!-- Node1&#45;&gt;Node63 -->
<g id="edge43" class="edge">
<title>Node1&#45;&gt;Node63</title>
<path fill="none" stroke="#63b8ff" d="M1254.6,-118.7C1403.82,-118.9 1890.95,-116.06 2291,-74 2293.8,-73.71 2296.69,-73.35 2299.58,-72.96"/>
<polygon fill="#63b8ff" stroke="#63b8ff" points="1254.75,-115.2 1244.74,-118.68 1254.73,-122.2 1254.75,-115.2"/>
</g>
<!-- Node64 -->
<g id="node31" class="node">
<title>Node64</title>
<g id="a_node31"><a xlink:href="crypt__gpgme_8c.html" target="_top" xlink:title="Wrapper for PGP/SMIME calls to GPGME.">
<polygon fill="white" stroke="#666666" points="2519.5,-74 2400.5,-74 2400.5,-55 2519.5,-55 2519.5,-74"/>
<text text-anchor="middle" x="2460" y="-62" font-family="Helvetica,sans-Serif" font-size="10.00">ncrypt/crypt_gpgme.c</text>
</a>
</g>
</g>
<!-- Node1&#45;&gt;Node64 -->
<g id="edge44" class="edge">
<title>Node1&#45;&gt;Node64</title>
<path fill="none" stroke="#63b8ff" d="M1254.5,-118.18C1412.1,-116.76 1949.17,-109.47 2391,-74 2394.01,-73.76 2397.09,-73.48 2400.19,-73.18"/>
<polygon fill="#63b8ff" stroke="#63b8ff" points="1254.87,-114.67 1244.9,-118.26 1254.93,-121.67 1254.87,-114.67"/>
</g>
<!-- Node65 -->
<g id="node32" class="node">
<title>Node65</title>
<g id="a_node32"><a xlink:href="pgp_8c.html" target="_top" xlink:title="PGP sign, encrypt, check routines.">
<polygon fill="white" stroke="#666666" points="2614,-74 2538,-74 2538,-55 2614,-55 2614,-74"/>
<text text-anchor="middle" x="2576" y="-62" font-family="Helvetica,sans-Serif" font-size="10.00">ncrypt/pgp.c</text>
</a>
</g>
</g>
<!-- Node1&#45;&gt;Node65 -->
<g id="edge45" class="edge">
<title>Node1&#45;&gt;Node65</title>
<path fill="none" stroke="#63b8ff" d="M1254.64,-117.85C1456.95,-114.84 2274.01,-101.21 2529,-74 2531.8,-73.7 2534.69,-73.33 2537.59,-72.92"/>
<polygon fill="#63b8ff" stroke="#63b8ff" points="1254.75,-114.35 1244.81,-118 1254.86,-121.35 1254.75,-114.35"/>
</g>
<!-- Node66 -->
<g id="node33" class="node">
<title>Node66</title>
<g id="a_node33"><a xlink:href="pager_2message_8c.html" target="_top" xlink:title="Process a message for display in the pager.">
<polygon fill="white" stroke="#666666" points="2729.5,-74 2632.5,-74 2632.5,-55 2729.5,-55 2729.5,-74"/>
<text text-anchor="middle" x="2681" y="-62" font-family="Helvetica,sans-Serif" font-size="10.00">pager/message.c</text>
</a>
</g>
</g>
<!-- Node1&#45;&gt;Node66 -->
<g id="edge48" class="edge">
<title>Node1&#45;&gt;Node66</title>
<path fill="none" stroke="#63b8ff" d="M1254.68,-118.95C1431.32,-120.3 2086.4,-121.61 2623,-74 2626.04,-73.73 2629.17,-73.41 2632.31,-73.05"/>
<polygon fill="#63b8ff" stroke="#63b8ff" points="1254.82,-115.45 1244.79,-118.87 1254.76,-122.45 1254.82,-115.45"/>
</g>
<!-- Node67 -->
<g id="node34" class="node">
<title>Node67</title>
<g id="a_node34"><a xlink:href="exec_8c.html" target="_top" xlink:title="Execute a Pattern.">
<polygon fill="white" stroke="#666666" points="2832,-74 2748,-74 2748,-55 2832,-55 2832,-74"/>
<text text-anchor="middle" x="2790" y="-62" font-family="Helvetica,sans-Serif" font-size="10.00">pattern/exec.c</text>
</a>
</g>
</g>
<!-- Node1&#45;&gt;Node67 -->
<g id="edge49" class="edge">
<title>Node1&#45;&gt;Node67</title>
<path fill="none" stroke="#63b8ff" d="M1254.89,-118.01C1476.81,-115.5 2440.17,-103.11 2739,-74 2741.86,-73.72 2744.8,-73.38 2747.76,-73"/>
<polygon fill="#63b8ff" stroke="#63b8ff" points="1254.88,-114.51 1244.92,-118.12 1254.96,-121.51 1254.88,-114.51"/>
</g>
<!-- Node68 -->
<g id="node35" class="node">
<title>Node68</title>
<g id="a_node35"><a xlink:href="recvcmd_8c.html" target="_top" xlink:title="Send/reply with an attachment.">
<polygon fill="white" stroke="#666666" points="2913.5,-74 2850.5,-74 2850.5,-55 2913.5,-55 2913.5,-74"/>
<text text-anchor="middle" x="2882" y="-62" font-family="Helvetica,sans-Serif" font-size="10.00">recvcmd.c</text>
</a>
</g>
</g>
<!-- Node1&#45;&gt;Node68 -->
<g id="edge50" class="edge">
<title>Node1&#45;&gt;Node68</title>
<path fill="none" stroke="#63b8ff" d="M1254.62,-118.35C1484.93,-117.42 2521.38,-111.19 2841,-74 2844.03,-73.65 2847.17,-73.18 2850.31,-72.65"/>
<polygon fill="#63b8ff" stroke="#63b8ff" points="1254.85,-114.85 1244.86,-118.39 1254.88,-121.85 1254.85,-114.85"/>
</g>
<!-- Node25&#45;&gt;Node3 -->
<g id="edge25" class="edge">
<title>Node25&#45;&gt;Node3</title>
<path fill="none" stroke="#63b8ff" d="M900.94,-62.7C779.22,-60.02 409.75,-49.75 105,-19 102.21,-18.72 99.35,-18.4 96.47,-18.05"/>
<polygon fill="#63b8ff" stroke="#63b8ff" points="900.68,-66.19 910.76,-62.91 900.83,-59.19 900.68,-66.19"/>
</g>
<!-- Node25&#45;&gt;Node4 -->
<g id="edge26" class="edge">
<title>Node25&#45;&gt;Node4</title>
<path fill="none" stroke="#63b8ff" d="M900.91,-61.88C792.09,-57.38 487.5,-43.43 235,-19 232.17,-18.73 229.27,-18.42 226.34,-18.1"/>
<polygon fill="#63b8ff" stroke="#63b8ff" points="900.66,-65.37 910.8,-62.28 900.95,-58.38 900.66,-65.37"/>
</g>
<!-- Node25&#45;&gt;Node5 -->
<g id="edge27" class="edge">
<title>Node25&#45;&gt;Node5</title>
<path fill="none" stroke="#63b8ff" d="M900.74,-61.12C805.73,-55.45 564.21,-40.08 363,-19 359.99,-18.68 356.9,-18.34 353.79,-17.98"/>
<polygon fill="#63b8ff" stroke="#63b8ff" points="900.42,-64.6 910.61,-61.7 900.83,-57.61 900.42,-64.6"/>
</g>
<!-- Node25&#45;&gt;Node6 -->
<g id="edge28" class="edge">
<title>Node25&#45;&gt;Node6</title>
<path fill="none" stroke="#63b8ff" d="M900.93,-61.02C816.92,-55.67 619.5,-41.67 455,-19 452.18,-18.61 449.28,-18.17 446.36,-17.7"/>
<polygon fill="#63b8ff" stroke="#63b8ff" points="900.54,-64.5 910.73,-61.64 900.97,-57.52 900.54,-64.5"/>
</g>
<!-- Node25&#45;&gt;Node10 -->
<g id="edge29" class="edge">
<title>Node25&#45;&gt;Node10</title>
<path fill="none" stroke="#63b8ff" d="M900.92,-58.4C834.79,-50.17 700.64,-33.44 587,-19 584.02,-18.62 580.96,-18.23 577.88,-17.84"/>
<polygon fill="#63b8ff" stroke="#63b8ff" points="900.22,-61.84 910.57,-59.6 901.08,-54.89 900.22,-61.84"/>
</g>
<!-- Node25&#45;&gt;Node14 -->
<g id="edge30" class="edge">
<title>Node25&#45;&gt;Node14</title>
<path fill="none" stroke="#63b8ff" d="M901.09,-57.52C847.28,-49.51 749.82,-34.49 667,-19 664.21,-18.48 661.31,-17.91 658.41,-17.33"/>
<polygon fill="#63b8ff" stroke="#63b8ff" points="900.31,-60.94 910.71,-58.95 901.33,-54.02 900.31,-60.94"/>
</g>
<!-- Node25&#45;&gt;Node15 -->
<g id="edge31" class="edge">
<title>Node25&#45;&gt;Node15</title>
<path fill="none" stroke="#63b8ff" d="M901.34,-54.41C853.76,-43.77 776.14,-26.41 734.16,-17.02"/>
<polygon fill="#63b8ff" stroke="#63b8ff" points="900.46,-57.8 910.99,-56.56 901.99,-50.97 900.46,-57.8"/>
</g>
<!-- Node25&#45;&gt;Node16 -->
<g id="edge32" class="edge">
<title>Node25&#45;&gt;Node16</title>
<path fill="none" stroke="#63b8ff" d="M903.1,-51.08C871.17,-40.89 826.96,-26.77 799.98,-18.16"/>
<polygon fill="#63b8ff" stroke="#63b8ff" points="901.81,-54.34 912.4,-54.05 903.94,-47.67 901.81,-54.34"/>
</g>
<!-- Node25&#45;&gt;Node17 -->
<g id="edge33" class="edge">
<title>Node25&#45;&gt;Node17</title>
<path fill="none" stroke="#63b8ff" d="M922.82,-47.37C911.88,-38.16 898.59,-26.98 889.53,-19.36"/>
<polygon fill="#63b8ff" stroke="#63b8ff" points="920.25,-49.78 930.15,-53.53 924.76,-44.42 920.25,-49.78"/>
</g>
<!-- Node25&#45;&gt;Node18 -->
<g id="edge34" class="edge">
<title>Node25&#45;&gt;Node18</title>
<path fill="none" stroke="#63b8ff" d="M961.48,-47.37C972.6,-38.16 986.1,-26.98 995.3,-19.36"/>
<polygon fill="#63b8ff" stroke="#63b8ff" points="959.49,-44.47 954.02,-53.54 963.96,-49.86 959.49,-44.47"/>
</g>
<!-- Node25&#45;&gt;Node19 -->
<g id="edge35" class="edge">
<title>Node25&#45;&gt;Node19</title>
<path fill="none" stroke="#63b8ff" d="M981.27,-51.11C1012.03,-41.41 1054.09,-28.14 1081.64,-19.45"/>
<polygon fill="#63b8ff" stroke="#63b8ff" points="980.43,-47.71 971.94,-54.05 982.53,-54.38 980.43,-47.71"/>
</g>
<!-- Node25&#45;&gt;Node20 -->
<g id="edge36" class="edge">
<title>Node25&#45;&gt;Node20</title>
<path fill="none" stroke="#63b8ff" d="M983.14,-55.12C1026.43,-46.27 1096.55,-31.84 1157,-19 1159.98,-18.37 1163.09,-17.7 1166.2,-17.03"/>
<polygon fill="#63b8ff" stroke="#63b8ff" points="982.51,-51.67 973.42,-57.11 983.91,-58.53 982.51,-51.67"/>
</g>
<!-- Node25&#45;&gt;Node21 -->
<g id="edge37" class="edge">
<title>Node25&#45;&gt;Node21</title>
<path fill="none" stroke="#63b8ff" d="M982.93,-58.59C1039.63,-51.48 1145.12,-37.17 1234,-19 1237.01,-18.38 1240.17,-17.67 1243.27,-16.92"/>
<polygon fill="#63b8ff" stroke="#63b8ff" points="982.6,-55.1 973.1,-59.81 983.46,-62.05 982.6,-55.1"/>
</g>
<!-- Node25&#45;&gt;Node22 -->
<g id="edge38" class="edge">
<title>Node25&#45;&gt;Node22</title>
<path fill="none" stroke="#63b8ff" d="M983.02,-59.2C1049.67,-52.03 1185.55,-36.67 1300,-19 1302.89,-18.55 1305.88,-18.07 1308.87,-17.55"/>
<polygon fill="#63b8ff" stroke="#63b8ff" points="982.86,-55.7 973.29,-60.24 983.61,-62.66 982.86,-55.7"/>
</g>
<!-- Node25&#45;&gt;Node54 -->
<g id="edge39" class="edge">
<title>Node25&#45;&gt;Node54</title>
<path fill="none" stroke="#63b8ff" d="M983.28,-60.64C1062.69,-54.87 1242.14,-40.52 1392,-19 1394.99,-18.57 1398.08,-18.08 1401.19,-17.56"/>
<polygon fill="#63b8ff" stroke="#63b8ff" points="983.09,-57.15 973.37,-61.35 983.59,-64.13 983.09,-57.15"/>
</g>
<!-- Node25&#45;&gt;Node55 -->
<g id="edge40" class="edge">
<title>Node25&#45;&gt;Node55</title>
<path fill="none" stroke="#63b8ff" d="M983.3,-60.99C1073.81,-55.3 1296.41,-40.23 1482,-19 1484.83,-18.68 1487.74,-18.32 1490.67,-17.95"/>
<polygon fill="#63b8ff" stroke="#63b8ff" points="983.19,-57.49 973.43,-61.61 983.63,-64.48 983.19,-57.49"/>
</g>
<!-- Node25&#45;&gt;Node60 -->
<g id="edge41" class="edge">
<title>Node25&#45;&gt;Node60</title>
<path fill="none" stroke="#63b8ff" d="M983.35,-62.35C1087.12,-59.09 1366.77,-48.11 1598,-19 1600.98,-18.62 1604.06,-18.18 1607.15,-17.69"/>
<polygon fill="#63b8ff" stroke="#63b8ff" points="983.27,-58.85 973.38,-62.65 983.48,-65.84 983.27,-58.85"/>
</g>
<!-- Node25&#45;&gt;Node61 -->
<g id="edge42" class="edge">
<title>Node25&#45;&gt;Node61</title>
<path fill="none" stroke="#63b8ff" d="M982.85,-62.63C1095.73,-59.9 1421.3,-49.74 1690,-19 1692.62,-18.7 1695.32,-18.35 1698.04,-17.98"/>
<polygon fill="#63b8ff" stroke="#63b8ff" points="983.11,-59.13 973.19,-62.86 983.27,-66.12 983.11,-59.13"/>
</g>
</g>
</svg>
