<?xml version="1.0" encoding="UTF-8" standalone="no"?>
<!DOCTYPE svg PUBLIC "-//W3C//DTD SVG 1.1//EN"
 "http://www.w3.org/Graphics/SVG/1.1/DTD/svg11.dtd">
<!-- Generated by graphviz version 12.2.1 (20241206.2353)
 -->
<!-- Title: mutt_count_body_parts Pages: 1 -->
<svg width="493pt" height="184pt"
 viewBox="0.00 0.00 492.50 184.25" xmlns="http://www.w3.org/2000/svg" xmlns:xlink="http://www.w3.org/1999/xlink">
<g id="graph0" class="graph" transform="scale(1 1) rotate(0) translate(4 180.25)">
<title>mutt_count_body_parts</title>
<!-- Node1 -->
<g id="Node000001" class="node">
<title>Node1</title>
<g id="a_Node000001"><a xlink:title="Count the MIME Body parts.">
<polygon fill="#999999" stroke="#666666" points="125.5,-90.25 0,-90.25 0,-68 125.5,-68 125.5,-90.25"/>
<text text-anchor="middle" x="62.75" y="-76.75" font-family="Helvetica,sans-Serif" font-size="10.00">mutt_count_body_parts</text>
</a>
</g>
</g>
<!-- Node2 -->
<g id="Node000002" class="node">
<title>Node2</title>
<g id="a_Node000002"><a xlink:href="attach_2commands_8c.html#a4e1c51b3f753d501996cbc41138b0998" target="_top" xlink:title="Count the MIME Body parts.">
<polygon fill="#fff0f0" stroke="red" points="283.62,-158.25 185.12,-158.25 185.12,-136 283.62,-136 283.62,-158.25"/>
<text text-anchor="middle" x="234.38" y="-144.75" font-family="Helvetica,sans-Serif" font-size="10.00">count_body_parts</text>
</a>
</g>
</g>
<!-- Node1&#45;&gt;Node2 -->
<g id="edge1_Node000001_Node000002" class="edge">
<title>Node1&#45;&gt;Node2</title>
<g id="a_edge1_Node000001_Node000002"><a xlink:title=" ">
<path fill="none" stroke="#63b8ff" d="M88.43,-90.63C108.06,-99.63 136.31,-112.22 161.5,-122.12 169.89,-125.42 178.91,-128.74 187.62,-131.83"/>
<polygon fill="#63b8ff" stroke="#63b8ff" points="186.42,-135.11 197.01,-135.1 188.72,-128.5 186.42,-135.11"/>
</a>
</g>
</g>
<!-- Node27 -->
<g id="Node000027" class="node">
<title>Node27</title>
<g id="a_Node000027"><a xlink:href="neomutt_8c.html#ab58efd47fa66c8187cfdce43078c94fa" target="_top" xlink:title="Get the private data for a Module.">
<polygon fill="white" stroke="#666666" points="484.5,-138.25 343.25,-138.25 343.25,-116 484.5,-116 484.5,-138.25"/>
<text text-anchor="middle" x="413.88" y="-124.75" font-family="Helvetica,sans-Serif" font-size="10.00">neomutt_get_module_data</text>
</a>
</g>
</g>
<!-- Node1&#45;&gt;Node27 -->
<g id="edge7_Node000001_Node000027" class="edge">
<title>Node1&#45;&gt;Node27</title>
<g id="a_edge7_Node000001_Node000027"><a xlink:title=" ">
<path fill="none" stroke="#63b8ff" d="M125.76,-87.65C183.25,-95.55 269.13,-107.36 331.98,-116"/>
<polygon fill="#63b8ff" stroke="#63b8ff" points="331.16,-119.42 341.55,-117.32 332.12,-112.49 331.16,-119.42"/>
</a>
</g>
</g>
<!-- Node28 -->
<g id="Node000028" class="node">
<title>Node28</title>
<g id="a_Node000028"><a xlink:href="email_2body_8c.html#a129af1c316fcbc26b55fb48957bab2cb" target="_top" xlink:title="Free a Body.">
<polygon fill="#fff0f0" stroke="red" points="279.5,-62.25 189.25,-62.25 189.25,-40 279.5,-40 279.5,-62.25"/>
<text text-anchor="middle" x="234.38" y="-48.75" font-family="Helvetica,sans-Serif" font-size="10.00">mutt_body_free</text>
</a>
</g>
</g>
<!-- Node1&#45;&gt;Node28 -->
<g id="edge4_Node000001_Node000028" class="edge">
<title>Node1&#45;&gt;Node28</title>
<g id="a_edge4_Node000001_Node000028"><a xlink:title=" ">
<path fill="none" stroke="#63b8ff" d="M125.95,-68.86C142.93,-66.06 161.21,-63.04 177.79,-60.3"/>
<polygon fill="#63b8ff" stroke="#63b8ff" points="178.18,-63.78 187.47,-58.7 177.04,-56.88 178.18,-63.78"/>
</a>
</g>
</g>
<!-- Node46 -->
<g id="Node000046" class="node">
<title>Node46</title>
<g id="a_Node000046"><a xlink:href="attach_2commands_8c.html#a521686f973cf66e6c60be12cc9659ac3" target="_top" xlink:title="Parse a MIME email.">
<polygon fill="#fff0f0" stroke="red" points="307.25,-22.25 161.5,-22.25 161.5,0 307.25,0 307.25,-22.25"/>
<text text-anchor="middle" x="234.38" y="-8.75" font-family="Helvetica,sans-Serif" font-size="10.00">mutt_parse_mime_message</text>
</a>
</g>
</g>
<!-- Node1&#45;&gt;Node46 -->
<g id="edge6_Node000001_Node000046" class="edge">
<title>Node1&#45;&gt;Node46</title>
<g id="a_edge6_Node000001_Node000046"><a xlink:title=" ">
<path fill="none" stroke="#63b8ff" d="M84.23,-67.68C103.67,-57.15 133.94,-41.62 161.5,-31.12 166.19,-29.34 171.1,-27.64 176.07,-26.03"/>
<polygon fill="#63b8ff" stroke="#63b8ff" points="176.98,-29.41 185.51,-23.13 174.92,-22.72 176.98,-29.41"/>
</a>
</g>
</g>
<!-- Node2&#45;&gt;Node2 -->
<g id="edge2_Node000002_Node000002" class="edge">
<title>Node2&#45;&gt;Node2</title>
<g id="a_edge2_Node000002_Node000002"><a xlink:title=" ">
<path fill="none" stroke="#63b8ff" d="M206.35,-158.49C195.87,-167.28 205.21,-176.25 234.38,-176.25 250.32,-176.25 260.34,-173.57 264.44,-169.7"/>
<polygon fill="#63b8ff" stroke="#63b8ff" points="267.9,-169.19 262.67,-159.97 261.01,-170.44 267.9,-169.19"/>
</a>
</g>
</g>
<!-- Node2&#45;&gt;Node27 -->
<g id="edge3_Node000002_Node000027" class="edge">
<title>Node2&#45;&gt;Node27</title>
<g id="a_edge3_Node000002_Node000027"><a xlink:title=" ">
<path fill="none" stroke="#63b8ff" d="M283.88,-141.66C298.64,-140 315.29,-138.12 331.59,-136.28"/>
<polygon fill="#63b8ff" stroke="#63b8ff" points="331.75,-139.79 341.3,-135.19 330.97,-132.83 331.75,-139.79"/>
</a>
</g>
</g>
<!-- Node28&#45;&gt;Node28 -->
<g id="edge5_Node000028_Node000028" class="edge">
<title>Node28&#45;&gt;Node28</title>
<g id="a_edge5_Node000028_Node000028"><a xlink:title=" ">
<path fill="none" stroke="#63b8ff" d="M206.35,-62.49C195.87,-71.28 205.21,-80.25 234.38,-80.25 250.32,-80.25 260.34,-77.57 264.44,-73.7"/>
<polygon fill="#63b8ff" stroke="#63b8ff" points="267.9,-73.19 262.67,-63.97 261.01,-74.44 267.9,-73.19"/>
</a>
</g>
</g>
</g>
</svg>
