<?xml version="1.0" encoding="UTF-8" standalone="no"?>
<!DOCTYPE svg PUBLIC "-//W3C//DTD SVG 1.1//EN"
 "http://www.w3.org/Graphics/SVG/1.1/DTD/svg11.dtd">
<!-- Generated by graphviz version 7.1.0 (0)
 -->
<!-- Title: attach/lib.c Pages: 1 -->
<svg width="319pt" height="137pt"
 viewBox="0.00 0.00 318.84 137.00" xmlns="http://www.w3.org/2000/svg" xmlns:xlink="http://www.w3.org/1999/xlink">
<g id="graph0" class="graph" transform="scale(1 1) rotate(0) translate(4 133)">
<title>attach/lib.c</title>
<!-- Node1 -->
<g id="node1" class="node">
<title>Node1</title>
<g id="a_node1"><a xlink:title="Attachment helper functions.">
<polygon fill="#999999" stroke="#666666" points="152.84,-129 85.84,-129 85.84,-110 152.84,-110 152.84,-129"/>
<text text-anchor="middle" x="119.34" y="-117" font-family="Helvetica,sans-Serif" font-size="10.00">attach/lib.c</text>
</a>
</g>
</g>
<!-- Node2 -->
<g id="node2" class="node">
<title>Node2</title>
<g id="a_node2"><a xlink:title=" ">
<polygon fill="#e0e0e0" stroke="#999999" points="117.34,-19 63.34,-19 63.34,0 117.34,0 117.34,-19"/>
<text text-anchor="middle" x="90.34" y="-7" font-family="Helvetica,sans-Serif" font-size="10.00">config.h</text>
</a>
</g>
</g>
<!-- Node1&#45;&gt;Node2 -->
<g id="edge1" class="edge">
<title>Node1&#45;&gt;Node2</title>
<path fill="none" stroke="#63b8ff" d="M85.59,-115.51C58.61,-111.14 22.43,-100.4 4.34,-74 -11.78,-50.48 22.42,-32.32 52.35,-21.56"/>
<polygon fill="#63b8ff" stroke="#63b8ff" points="53.3,-24.93 61.65,-18.42 51.06,-18.3 53.3,-24.93"/>
</g>
<!-- Node3 -->
<g id="node3" class="node">
<title>Node3</title>
<g id="a_node3"><a xlink:title=" ">
<polygon fill="#e0e0e0" stroke="#999999" points="73.34,-74 13.34,-74 13.34,-55 73.34,-55 73.34,-74"/>
<text text-anchor="middle" x="43.34" y="-62" font-family="Helvetica,sans-Serif" font-size="10.00">stdbool.h</text>
</a>
</g>
</g>
<!-- Node1&#45;&gt;Node3 -->
<g id="edge2" class="edge">
<title>Node1&#45;&gt;Node3</title>
<path fill="none" stroke="#63b8ff" d="M106.45,-109.51C95.24,-101.7 78.77,-90.21 65.46,-80.93"/>
<polygon fill="#63b8ff" stroke="#63b8ff" points="67.49,-78.07 57.28,-75.22 63.49,-83.81 67.49,-78.07"/>
</g>
<!-- Node4 -->
<g id="node4" class="node">
<title>Node4</title>
<g id="a_node4"><a xlink:title=" ">
<polygon fill="#e0e0e0" stroke="#999999" points="146.84,-74 91.84,-74 91.84,-55 146.84,-55 146.84,-74"/>
<text text-anchor="middle" x="119.34" y="-62" font-family="Helvetica,sans-Serif" font-size="10.00">stddef.h</text>
</a>
</g>
</g>
<!-- Node1&#45;&gt;Node4 -->
<g id="edge3" class="edge">
<title>Node1&#45;&gt;Node4</title>
<path fill="none" stroke="#63b8ff" d="M119.34,-109.75C119.34,-103.27 119.34,-94.16 119.34,-85.9"/>
<polygon fill="#63b8ff" stroke="#63b8ff" points="122.84,-85.96 119.34,-75.96 115.84,-85.96 122.84,-85.96"/>
</g>
<!-- Node5 -->
<g id="node5" class="node">
<title>Node5</title>
<g id="a_node5"><a xlink:href="mutt_2lib_8h.html" target="_top" xlink:title="Convenience wrapper for the library headers.">
<polygon fill="#fff0f0" stroke="red" points="227.34,-74 165.34,-74 165.34,-55 227.34,-55 227.34,-74"/>
<text text-anchor="middle" x="196.34" y="-62" font-family="Helvetica,sans-Serif" font-size="10.00">mutt/lib.h</text>
</a>
</g>
</g>
<!-- Node1&#45;&gt;Node5 -->
<g id="edge4" class="edge">
<title>Node1&#45;&gt;Node5</title>
<path fill="none" stroke="#63b8ff" d="M132.4,-109.51C143.87,-101.62 160.77,-89.98 174.32,-80.65"/>
<polygon fill="#63b8ff" stroke="#63b8ff" points="175.97,-83.77 182.23,-75.22 172,-78 175.97,-83.77"/>
</g>
<!-- Node54 -->
<g id="node6" class="node">
<title>Node54</title>
<g id="a_node6"><a xlink:href="email_2lib_8h.html" target="_top" xlink:title="Structs that make up an email.">
<polygon fill="#fff0f0" stroke="red" points="310.84,-74 245.84,-74 245.84,-55 310.84,-55 310.84,-74"/>
<text text-anchor="middle" x="278.34" y="-62" font-family="Helvetica,sans-Serif" font-size="10.00">email/lib.h</text>
</a>
</g>
</g>
<!-- Node1&#45;&gt;Node54 -->
<g id="edge6" class="edge">
<title>Node1&#45;&gt;Node54</title>
<path fill="none" stroke="#63b8ff" d="M146.31,-109.51C172.32,-100.84 211.89,-87.65 240.94,-77.97"/>
<polygon fill="#63b8ff" stroke="#63b8ff" points="241.69,-81.41 250.07,-74.92 239.47,-74.77 241.69,-81.41"/>
</g>
<!-- Node5&#45;&gt;Node2 -->
<g id="edge5" class="edge">
<title>Node5&#45;&gt;Node2</title>
<path fill="none" stroke="#63b8ff" d="M178.36,-54.51C161.89,-46.27 137.25,-33.96 118.23,-24.45"/>
<polygon fill="#63b8ff" stroke="#63b8ff" points="119.92,-21.38 109.41,-20.03 116.79,-27.64 119.92,-21.38"/>
</g>
</g>
</svg>
