<?xml version="1.0" encoding="UTF-8" standalone="no"?>
<!DOCTYPE svg PUBLIC "-//W3C//DTD SVG 1.1//EN"
 "http://www.w3.org/Graphics/SVG/1.1/DTD/svg11.dtd">
<!-- Generated by graphviz version 2.40.1 (20161225.0304)
 -->
<!-- Title: imap/auth_sasl.c Pages: 1 -->
<svg width="835pt" height="196pt"
 viewBox="0.00 0.00 834.61 196.00" xmlns="http://www.w3.org/2000/svg" xmlns:xlink="http://www.w3.org/1999/xlink">
<g id="graph0" class="graph" transform="scale(1 1) rotate(0) translate(4 192)">
<title>imap/auth_sasl.c</title>
<polygon fill="#ffffff" stroke="transparent" points="-4,4 -4,-192 830.6069,-192 830.6069,4 -4,4"/>
<!-- Node0 -->
<g id="node1" class="node">
<title>Node0</title>
<polygon fill="#bfbfbf" stroke="#000000" points="292.1069,-168.5 292.1069,-187.5 391.1069,-187.5 391.1069,-168.5 292.1069,-168.5"/>
<text text-anchor="middle" x="341.6069" y="-175.5" font-family="Helvetica,sans-Serif" font-size="10.00" fill="#000000">imap/auth_sasl.c</text>
</g>
<!-- Node1 -->
<g id="node2" class="node">
<title>Node1</title>
<polygon fill="#ffffff" stroke="#bfbfbf" points="66.1069,-.5 66.1069,-19.5 121.1069,-19.5 121.1069,-.5 66.1069,-.5"/>
<text text-anchor="middle" x="93.6069" y="-7.5" font-family="Helvetica,sans-Serif" font-size="10.00" fill="#000000">config.h</text>
</g>
<!-- Node0&#45;&gt;Node1 -->
<g id="edge1" class="edge">
<title>Node0&#45;&gt;Node1</title>
<path fill="none" stroke="#191970" d="M292.1066,-174.0353C241.3878,-168.7659 160.9304,-157.0232 95.6069,-132 50.9062,-114.8767 27.0587,-117.7297 3.6069,-76 -11.1691,-49.7078 25.2957,-30.9884 56.1525,-20.353"/>
<polygon fill="#191970" stroke="#191970" points="57.4733,-23.604 65.9019,-17.1846 55.3097,-16.9468 57.4733,-23.604"/>
</g>
<!-- Node2 -->
<g id="node3" class="node">
<title>Node2</title>
<polygon fill="#ffffff" stroke="#bfbfbf" points="407.6069,-112.5 407.6069,-131.5 463.6069,-131.5 463.6069,-112.5 407.6069,-112.5"/>
<text text-anchor="middle" x="435.6069" y="-119.5" font-family="Helvetica,sans-Serif" font-size="10.00" fill="#000000">stddef.h</text>
</g>
<!-- Node0&#45;&gt;Node2 -->
<g id="edge2" class="edge">
<title>Node0&#45;&gt;Node2</title>
<path fill="none" stroke="#191970" d="M357.9804,-168.2455C372.5377,-159.5731 394.0379,-146.7645 410.7221,-136.825"/>
<polygon fill="#191970" stroke="#191970" points="412.6213,-139.7676 419.421,-131.6427 409.0386,-133.7539 412.6213,-139.7676"/>
</g>
<!-- Node3 -->
<g id="node4" class="node">
<title>Node3</title>
<polygon fill="#ffffff" stroke="#bfbfbf" points="481.6069,-112.5 481.6069,-131.5 549.6069,-131.5 549.6069,-112.5 481.6069,-112.5"/>
<text text-anchor="middle" x="515.6069" y="-119.5" font-family="Helvetica,sans-Serif" font-size="10.00" fill="#000000">sasl/sasl.h</text>
</g>
<!-- Node0&#45;&gt;Node3 -->
<g id="edge3" class="edge">
<title>Node0&#45;&gt;Node3</title>
<path fill="none" stroke="#191970" d="M371.5186,-168.3733C400.4521,-159.0613 444.468,-144.8953 476.2362,-134.671"/>
<polygon fill="#191970" stroke="#191970" points="477.6387,-137.8965 486.0855,-131.5011 475.4941,-131.2331 477.6387,-137.8965"/>
</g>
<!-- Node4 -->
<g id="node5" class="node">
<title>Node4</title>
<polygon fill="#ffffff" stroke="#bfbfbf" points="568.1069,-112.5 568.1069,-131.5 651.1069,-131.5 651.1069,-112.5 568.1069,-112.5"/>
<text text-anchor="middle" x="609.6069" y="-119.5" font-family="Helvetica,sans-Serif" font-size="10.00" fill="#000000">sasl/saslutil.h</text>
</g>
<!-- Node0&#45;&gt;Node4 -->
<g id="edge4" class="edge">
<title>Node0&#45;&gt;Node4</title>
<path fill="none" stroke="#191970" d="M387.3732,-168.4369C434.7872,-158.5295 508.7323,-143.0783 558.1473,-132.7528"/>
<polygon fill="#191970" stroke="#191970" points="558.9217,-136.1666 567.9944,-130.6951 557.4899,-129.3146 558.9217,-136.1666"/>
</g>
<!-- Node5 -->
<g id="node6" class="node">
<title>Node5</title>
<polygon fill="#ffffff" stroke="#bfbfbf" points="163.6069,-.5 163.6069,-19.5 225.6069,-19.5 225.6069,-.5 163.6069,-.5"/>
<text text-anchor="middle" x="194.6069" y="-7.5" font-family="Helvetica,sans-Serif" font-size="10.00" fill="#000000">stdbool.h</text>
</g>
<!-- Node0&#45;&gt;Node5 -->
<g id="edge5" class="edge">
<title>Node0&#45;&gt;Node5</title>
<path fill="none" stroke="#191970" d="M309.3717,-168.4804C287.2054,-160.9111 257.868,-148.7928 235.6069,-132 209.8934,-112.6029 200.4646,-106.3239 189.6069,-76 184.2806,-61.1245 186.1183,-43.1884 188.9609,-29.7709"/>
<polygon fill="#191970" stroke="#191970" points="192.4412,-30.2776 191.4499,-19.7293 185.6468,-28.5935 192.4412,-30.2776"/>
</g>
<!-- Node6 -->
<g id="node7" class="node">
<title>Node6</title>
<polygon fill="#ffffff" stroke="#bfbfbf" points="324.6069,-.5 324.6069,-19.5 374.6069,-19.5 374.6069,-.5 324.6069,-.5"/>
<text text-anchor="middle" x="349.6069" y="-7.5" font-family="Helvetica,sans-Serif" font-size="10.00" fill="#000000">stdio.h</text>
</g>
<!-- Node0&#45;&gt;Node6 -->
<g id="edge6" class="edge">
<title>Node0&#45;&gt;Node6</title>
<path fill="none" stroke="#191970" d="M347.6554,-168.352C358.2668,-150.7918 379.8466,-112.0841 387.6069,-76 389.4758,-67.3098 390.6149,-64.3644 387.6069,-56 383.6633,-45.0341 375.8472,-34.8227 368.3238,-26.8204"/>
<polygon fill="#191970" stroke="#191970" points="370.617,-24.1653 361.0522,-19.6084 365.6876,-29.1354 370.617,-24.1653"/>
</g>
<!-- Node7 -->
<g id="node8" class="node">
<title>Node7</title>
<polygon fill="#ffffff" stroke="#bfbfbf" points="669.1069,-112.5 669.1069,-131.5 722.1069,-131.5 722.1069,-112.5 669.1069,-112.5"/>
<text text-anchor="middle" x="695.6069" y="-119.5" font-family="Helvetica,sans-Serif" font-size="10.00" fill="#000000">string.h</text>
</g>
<!-- Node0&#45;&gt;Node7 -->
<g id="edge7" class="edge">
<title>Node0&#45;&gt;Node7</title>
<path fill="none" stroke="#191970" d="M391.1565,-172.9556C452.163,-166.2807 559.0511,-153.0789 658.9888,-132.1365"/>
<polygon fill="#191970" stroke="#191970" points="659.8943,-135.5223 668.9474,-130.0185 658.4381,-128.6754 659.8943,-135.5223"/>
</g>
<!-- Node8 -->
<g id="node9" class="node">
<title>Node8</title>
<g id="a_node9"><a xlink:href="imap_2private_8h.html" target="_top" xlink:title="Shared constants/structs that are private to IMAP. ">
<polygon fill="#ffffff" stroke="#ff0000" points="198.6069,-56.5 198.6069,-75.5 258.6069,-75.5 258.6069,-56.5 198.6069,-56.5"/>
<text text-anchor="middle" x="228.6069" y="-63.5" font-family="Helvetica,sans-Serif" font-size="10.00" fill="#000000">private.h</text>
</a>
</g>
</g>
<!-- Node0&#45;&gt;Node8 -->
<g id="edge8" class="edge">
<title>Node0&#45;&gt;Node8</title>
<path fill="none" stroke="#191970" d="M309.4266,-168.3689C290.2772,-161.1468 266.8245,-149.4626 251.6069,-132 240.2842,-119.007 234.4457,-100.1156 231.4913,-85.8702"/>
<polygon fill="#191970" stroke="#191970" points="234.8717,-84.8847 229.6905,-75.6431 227.9777,-86.0986 234.8717,-84.8847"/>
</g>
<!-- Node23 -->
<g id="node10" class="node">
<title>Node23</title>
<g id="a_node10"><a xlink:href="mutt_2lib_8h.html" target="_top" xlink:title="Convenience wrapper for the library headers. ">
<polygon fill="#ffffff" stroke="#ff0000" points="314.6069,-56.5 314.6069,-75.5 378.6069,-75.5 378.6069,-56.5 314.6069,-56.5"/>
<text text-anchor="middle" x="346.6069" y="-63.5" font-family="Helvetica,sans-Serif" font-size="10.00" fill="#000000">mutt/lib.h</text>
</a>
</g>
</g>
<!-- Node0&#45;&gt;Node23 -->
<g id="edge12" class="edge">
<title>Node0&#45;&gt;Node23</title>
<path fill="none" stroke="#191970" d="M342.0332,-168.4509C342.8487,-150.184 344.6446,-109.9553 345.7275,-85.6976"/>
<polygon fill="#191970" stroke="#191970" points="349.2321,-85.6711 346.1817,-75.5249 342.2391,-85.3588 349.2321,-85.6711"/>
</g>
<!-- Node68 -->
<g id="node11" class="node">
<title>Node68</title>
<g id="a_node11"><a xlink:href="conn_2lib_8h.html" target="_top" xlink:title="Connection Library. ">
<polygon fill="#ffffff" stroke="#ff0000" points="12.6069,-56.5 12.6069,-75.5 76.6069,-75.5 76.6069,-56.5 12.6069,-56.5"/>
<text text-anchor="middle" x="44.6069" y="-63.5" font-family="Helvetica,sans-Serif" font-size="10.00" fill="#000000">conn/lib.h</text>
</a>
</g>
</g>
<!-- Node0&#45;&gt;Node68 -->
<g id="edge13" class="edge">
<title>Node0&#45;&gt;Node68</title>
<path fill="none" stroke="#191970" d="M291.6817,-172.7766C248.5729,-166.9142 185.4023,-155.0326 134.6069,-132 107.0063,-119.4849 79.5368,-97.6262 62.3409,-82.5126"/>
<polygon fill="#191970" stroke="#191970" points="64.5456,-79.7882 54.7689,-75.7055 59.8657,-84.9939 64.5456,-79.7882"/>
</g>
<!-- Node75 -->
<g id="node12" class="node">
<title>Node75</title>
<g id="a_node12"><a xlink:href="imap_2adata_8h.html" target="_top" xlink:title="Imap&#45;specific Account data. ">
<polygon fill="#ffffff" stroke="#ff0000" points="260.1069,-112.5 260.1069,-131.5 313.1069,-131.5 313.1069,-112.5 260.1069,-112.5"/>
<text text-anchor="middle" x="286.6069" y="-119.5" font-family="Helvetica,sans-Serif" font-size="10.00" fill="#000000">adata.h</text>
</a>
</g>
</g>
<!-- Node0&#45;&gt;Node75 -->
<g id="edge15" class="edge">
<title>Node0&#45;&gt;Node75</title>
<path fill="none" stroke="#191970" d="M332.0266,-168.2455C324.0611,-160.1352 312.5428,-148.4075 303.0989,-138.7919"/>
<polygon fill="#191970" stroke="#191970" points="305.5816,-136.3247 296.0774,-131.6427 300.5874,-141.2297 305.5816,-136.3247"/>
</g>
<!-- Node76 -->
<g id="node13" class="node">
<title>Node76</title>
<g id="a_node13"><a xlink:href="auth_8h.html" target="_top" xlink:title="IMAP authenticator multiplexor. ">
<polygon fill="#ffffff" stroke="#000000" points="95.1069,-56.5 95.1069,-75.5 142.1069,-75.5 142.1069,-56.5 95.1069,-56.5"/>
<text text-anchor="middle" x="118.6069" y="-63.5" font-family="Helvetica,sans-Serif" font-size="10.00" fill="#000000">auth.h</text>
</a>
</g>
</g>
<!-- Node0&#45;&gt;Node76 -->
<g id="edge19" class="edge">
<title>Node0&#45;&gt;Node76</title>
<path fill="none" stroke="#191970" d="M291.9906,-170.17C244.7282,-161.9238 177.7478,-147.94 156.6069,-132 141.1455,-120.3423 130.9379,-100.4225 125.0331,-85.5092"/>
<polygon fill="#191970" stroke="#191970" points="128.1832,-83.9296 121.4803,-75.7245 121.6035,-86.3187 128.1832,-83.9296"/>
</g>
<!-- Node77 -->
<g id="node14" class="node">
<title>Node77</title>
<g id="a_node14"><a xlink:href="mutt__socket_8h.html" target="_top" xlink:title="NeoMutt connections. ">
<polygon fill="#ffffff" stroke="#000000" points="740.6069,-112.5 740.6069,-131.5 826.6069,-131.5 826.6069,-112.5 740.6069,-112.5"/>
<text text-anchor="middle" x="783.6069" y="-119.5" font-family="Helvetica,sans-Serif" font-size="10.00" fill="#000000">mutt_socket.h</text>
</a>
</g>
</g>
<!-- Node0&#45;&gt;Node77 -->
<g id="edge22" class="edge">
<title>Node0&#45;&gt;Node77</title>
<path fill="none" stroke="#191970" d="M391.3226,-173.3031C463.7085,-166.2075 602.5491,-151.6304 730.5389,-132.0744"/>
<polygon fill="#191970" stroke="#191970" points="731.1687,-135.5187 740.5186,-130.5359 730.1021,-128.6005 731.1687,-135.5187"/>
</g>
<!-- Node8&#45;&gt;Node1 -->
<g id="edge9" class="edge">
<title>Node8&#45;&gt;Node1</title>
<path fill="none" stroke="#191970" d="M205.3996,-56.3733C183.437,-47.2629 150.2737,-33.5062 125.7667,-23.3404"/>
<polygon fill="#191970" stroke="#191970" points="127.0893,-20.0999 116.5114,-19.5011 124.4071,-26.5657 127.0893,-20.0999"/>
</g>
<!-- Node8&#45;&gt;Node5 -->
<g id="edge10" class="edge">
<title>Node8&#45;&gt;Node5</title>
<path fill="none" stroke="#191970" d="M222.6845,-56.2455C218.0042,-48.5367 211.3396,-37.5598 205.678,-28.2348"/>
<polygon fill="#191970" stroke="#191970" points="208.643,-26.3741 200.4614,-19.6427 202.6594,-30.007 208.643,-26.3741"/>
</g>
<!-- Node8&#45;&gt;Node6 -->
<g id="edge11" class="edge">
<title>Node8&#45;&gt;Node6</title>
<path fill="none" stroke="#191970" d="M249.4075,-56.3733C268.8312,-47.3838 298.0293,-33.8706 319.9033,-23.7471"/>
<polygon fill="#191970" stroke="#191970" points="321.4725,-26.8776 329.0777,-19.5011 318.5324,-20.5249 321.4725,-26.8776"/>
</g>
<!-- Node68&#45;&gt;Node1 -->
<g id="edge14" class="edge">
<title>Node68&#45;&gt;Node1</title>
<path fill="none" stroke="#191970" d="M53.142,-56.2455C60.098,-48.2958 70.0952,-36.8706 78.412,-27.3656"/>
<polygon fill="#191970" stroke="#191970" points="81.2185,-29.4732 85.1695,-19.6427 75.9504,-24.8637 81.2185,-29.4732"/>
</g>
<!-- Node75&#45;&gt;Node5 -->
<g id="edge16" class="edge">
<title>Node75&#45;&gt;Node5</title>
<path fill="none" stroke="#191970" d="M285.941,-112.0781C284.5621,-98.2481 280.3567,-72.9678 267.6069,-56 261.2849,-47.5865 239.9117,-34.5514 221.9138,-24.5023"/>
<polygon fill="#191970" stroke="#191970" points="223.3578,-21.3024 212.9073,-19.5598 219.9901,-27.4391 223.3578,-21.3024"/>
</g>
<!-- Node75&#45;&gt;Node8 -->
<g id="edge17" class="edge">
<title>Node75&#45;&gt;Node8</title>
<path fill="none" stroke="#191970" d="M276.5041,-112.2455C268.1041,-104.1352 255.9575,-92.4075 245.9985,-82.7919"/>
<polygon fill="#191970" stroke="#191970" points="248.2191,-80.0707 238.5939,-75.6427 243.3569,-85.1066 248.2191,-80.0707"/>
</g>
<!-- Node75&#45;&gt;Node23 -->
<g id="edge18" class="edge">
<title>Node75&#45;&gt;Node23</title>
<path fill="none" stroke="#191970" d="M297.0581,-112.2455C305.8338,-104.0549 318.5623,-92.1749 328.9209,-82.5069"/>
<polygon fill="#191970" stroke="#191970" points="331.353,-85.0246 336.2755,-75.6427 326.5767,-79.9072 331.353,-85.0246"/>
</g>
<!-- Node76&#45;&gt;Node1 -->
<g id="edge20" class="edge">
<title>Node76&#45;&gt;Node1</title>
<path fill="none" stroke="#191970" d="M114.2522,-56.2455C110.8825,-48.6973 106.1139,-38.0158 102.0086,-28.8197"/>
<polygon fill="#191970" stroke="#191970" points="105.1842,-27.3473 97.9117,-19.6427 98.7922,-30.2009 105.1842,-27.3473"/>
</g>
<!-- Node76&#45;&gt;Node5 -->
<g id="edge21" class="edge">
<title>Node76&#45;&gt;Node5</title>
<path fill="none" stroke="#191970" d="M131.8451,-56.2455C143.2879,-47.814 160.0365,-35.4729 173.3544,-25.6598"/>
<polygon fill="#191970" stroke="#191970" points="175.546,-28.3924 181.5204,-19.6427 171.3936,-22.757 175.546,-28.3924"/>
</g>
</g>
</svg>
