<?xml version="1.0" encoding="UTF-8" standalone="no"?>
<!DOCTYPE svg PUBLIC "-//W3C//DTD SVG 1.1//EN"
 "http://www.w3.org/Graphics/SVG/1.1/DTD/svg11.dtd">
<!-- Generated by graphviz version 2.40.1 (20161225.0304)
 -->
<!-- Title: autocrypt/lib.h Pages: 1 -->
<svg width="1794pt" height="84pt"
 viewBox="0.00 0.00 1794.00 84.00" xmlns="http://www.w3.org/2000/svg" xmlns:xlink="http://www.w3.org/1999/xlink">
<g id="graph0" class="graph" transform="scale(1 1) rotate(0) translate(4 80)">
<title>autocrypt/lib.h</title>
<polygon fill="#ffffff" stroke="transparent" points="-4,4 -4,-80 1790,-80 1790,4 -4,4"/>
<!-- Node4 -->
<g id="node1" class="node">
<title>Node4</title>
<polygon fill="#bfbfbf" stroke="#000000" points="937.5,-56.5 937.5,-75.5 1024.5,-75.5 1024.5,-56.5 937.5,-56.5"/>
<text text-anchor="middle" x="981" y="-63.5" font-family="Helvetica,sans-Serif" font-size="10.00" fill="#000000">autocrypt/lib.h</text>
</g>
<!-- Node5 -->
<g id="node2" class="node">
<title>Node5</title>
<g id="a_node2"><a xlink:href="acct__menu_8c.html" target="_top" xlink:title="Autocrypt account menu. ">
<polygon fill="#ffffff" stroke="#000000" points="0,-.5 0,-19.5 128,-19.5 128,-.5 0,-.5"/>
<text text-anchor="middle" x="64" y="-7.5" font-family="Helvetica,sans-Serif" font-size="10.00" fill="#000000">autocrypt/acct_menu.c</text>
</a>
</g>
</g>
<!-- Node4&#45;&gt;Node5 -->
<g id="edge1" class="edge">
<title>Node4&#45;&gt;Node5</title>
<path fill="none" stroke="#191970" d="M927.0375,-64.5879C793.0708,-60.7498 434.6116,-48.4467 137,-20 134.0712,-19.7201 131.0794,-19.4097 128.0596,-19.0766"/>
<polygon fill="#191970" stroke="#191970" points="927.327,-68.0973 937.4219,-64.8812 927.5247,-61.1001 927.327,-68.0973"/>
</g>
<!-- Node6 -->
<g id="node3" class="node">
<title>Node6</title>
<g id="a_node3"><a xlink:href="autocrypt_8c.html" target="_top" xlink:title="Autocrypt end&#45;to&#45;end encryption. ">
<polygon fill="#ffffff" stroke="#000000" points="146.5,-.5 146.5,-19.5 267.5,-19.5 267.5,-.5 146.5,-.5"/>
<text text-anchor="middle" x="207" y="-7.5" font-family="Helvetica,sans-Serif" font-size="10.00" fill="#000000">autocrypt/autocrypt.c</text>
</a>
</g>
</g>
<!-- Node4&#45;&gt;Node6 -->
<g id="edge2" class="edge">
<title>Node4&#45;&gt;Node6</title>
<path fill="none" stroke="#191970" d="M927.0211,-63.8855C808.9246,-58.9496 518.8363,-45.1376 277,-20 273.9474,-19.6827 270.8235,-19.332 267.6712,-18.9575"/>
<polygon fill="#191970" stroke="#191970" points="927.1017,-67.3917 937.2379,-64.3082 927.3911,-60.3977 927.1017,-67.3917"/>
</g>
<!-- Node7 -->
<g id="node4" class="node">
<title>Node7</title>
<g id="a_node4"><a xlink:href="autocrypt_2db_8c.html" target="_top" xlink:title="Autocrypt database handling. ">
<polygon fill="#ffffff" stroke="#000000" points="286,-.5 286,-19.5 372,-19.5 372,-.5 286,-.5"/>
<text text-anchor="middle" x="329" y="-7.5" font-family="Helvetica,sans-Serif" font-size="10.00" fill="#000000">autocrypt/db.c</text>
</a>
</g>
</g>
<!-- Node4&#45;&gt;Node7 -->
<g id="edge3" class="edge">
<title>Node4&#45;&gt;Node7</title>
<path fill="none" stroke="#191970" d="M927.0907,-63.9197C821.7628,-59.4022 581.4185,-46.8655 381,-20 378.0843,-19.6092 375.0849,-19.1598 372.0685,-18.6726"/>
<polygon fill="#191970" stroke="#191970" points="927.0186,-67.4197 937.1573,-64.3446 927.3138,-60.4259 927.0186,-67.4197"/>
</g>
<!-- Node8 -->
<g id="node5" class="node">
<title>Node8</title>
<g id="a_node5"><a xlink:href="gpgme_8c.html" target="_top" xlink:title="Autocrypt GPGME handler. ">
<polygon fill="#ffffff" stroke="#000000" points="390,-.5 390,-19.5 498,-19.5 498,-.5 390,-.5"/>
<text text-anchor="middle" x="444" y="-7.5" font-family="Helvetica,sans-Serif" font-size="10.00" fill="#000000">autocrypt/gpgme.c</text>
</a>
</g>
</g>
<!-- Node4&#45;&gt;Node8 -->
<g id="edge4" class="edge">
<title>Node4&#45;&gt;Node8</title>
<path fill="none" stroke="#191970" d="M927.4385,-61.8677C839.4918,-54.8434 659.0568,-39.4281 507,-20 504.1439,-19.6351 501.218,-19.2411 498.2661,-18.8278"/>
<polygon fill="#191970" stroke="#191970" points="927.1968,-65.3594 937.4425,-62.6623 927.7511,-58.3814 927.1968,-65.3594"/>
</g>
<!-- Node9 -->
<g id="node6" class="node">
<title>Node9</title>
<g id="a_node6"><a xlink:href="schema_8c.html" target="_top" xlink:title="Autocrypt database schema. ">
<polygon fill="#ffffff" stroke="#000000" points="516.5,-.5 516.5,-19.5 629.5,-19.5 629.5,-.5 516.5,-.5"/>
<text text-anchor="middle" x="573" y="-7.5" font-family="Helvetica,sans-Serif" font-size="10.00" fill="#000000">autocrypt/schema.c</text>
</a>
</g>
</g>
<!-- Node4&#45;&gt;Node9 -->
<g id="edge5" class="edge">
<title>Node4&#45;&gt;Node9</title>
<path fill="none" stroke="#191970" d="M927.3956,-59.1371C859.8556,-50.415 740.241,-34.7191 638,-20 635.2878,-19.6095 632.5128,-19.2044 629.7107,-18.7908"/>
<polygon fill="#191970" stroke="#191970" points="927.0105,-62.6163 937.376,-60.4241 927.9058,-55.6738 927.0105,-62.6163"/>
</g>
<!-- Node10 -->
<g id="node7" class="node">
<title>Node10</title>
<g id="a_node7"><a xlink:href="commands_8c.html" target="_top" xlink:title="Manage where the email is piped to external commands. ">
<polygon fill="#ffffff" stroke="#000000" points="647.5,-.5 647.5,-19.5 726.5,-19.5 726.5,-.5 647.5,-.5"/>
<text text-anchor="middle" x="687" y="-7.5" font-family="Helvetica,sans-Serif" font-size="10.00" fill="#000000">commands.c</text>
</a>
</g>
</g>
<!-- Node4&#45;&gt;Node10 -->
<g id="edge6" class="edge">
<title>Node4&#45;&gt;Node10</title>
<path fill="none" stroke="#191970" d="M927.4819,-56.3198C877.6089,-47.2213 801.1955,-33.0829 735,-20 732.2443,-19.4554 729.4014,-18.885 726.5396,-18.3045"/>
<polygon fill="#191970" stroke="#191970" points="926.9344,-59.7776 937.3998,-58.1265 928.189,-52.8909 926.9344,-59.7776"/>
</g>
<!-- Node11 -->
<g id="node8" class="node">
<title>Node11</title>
<g id="a_node8"><a xlink:href="compose_8c.html" target="_top" xlink:title="GUI editor for an email&#39;s headers. ">
<polygon fill="#ffffff" stroke="#000000" points="744.5,-.5 744.5,-19.5 813.5,-19.5 813.5,-.5 744.5,-.5"/>
<text text-anchor="middle" x="779" y="-7.5" font-family="Helvetica,sans-Serif" font-size="10.00" fill="#000000">compose.c</text>
</a>
</g>
</g>
<!-- Node4&#45;&gt;Node11 -->
<g id="edge7" class="edge">
<title>Node4&#45;&gt;Node11</title>
<path fill="none" stroke="#191970" d="M936.2289,-53.5882C899.1162,-43.2996 847.1371,-28.8895 813.2719,-19.5011"/>
<polygon fill="#191970" stroke="#191970" points="935.7034,-57.0745 946.275,-56.3733 937.5735,-50.3289 935.7034,-57.0745"/>
</g>
<!-- Node12 -->
<g id="node9" class="node">
<title>Node12</title>
<g id="a_node9"><a xlink:href="parse_8c.html" target="_top" xlink:title="Miscellaneous email parsing routines. ">
<polygon fill="#ffffff" stroke="#000000" points="831.5,-.5 831.5,-19.5 914.5,-19.5 914.5,-.5 831.5,-.5"/>
<text text-anchor="middle" x="873" y="-7.5" font-family="Helvetica,sans-Serif" font-size="10.00" fill="#000000">email/parse.c</text>
</a>
</g>
</g>
<!-- Node4&#45;&gt;Node12 -->
<g id="edge8" class="edge">
<title>Node4&#45;&gt;Node12</title>
<path fill="none" stroke="#191970" d="M953.2229,-51.5971C933.8618,-41.558 908.5615,-28.4393 891.5966,-19.6427"/>
<polygon fill="#191970" stroke="#191970" points="951.6992,-54.7495 962.1878,-56.2455 954.9214,-48.5352 951.6992,-54.7495"/>
</g>
<!-- Node13 -->
<g id="node10" class="node">
<title>Node13</title>
<g id="a_node10"><a xlink:href="message_8c.html" target="_top" xlink:title="Manage IMAP messages. ">
<polygon fill="#ffffff" stroke="#000000" points="932.5,-.5 932.5,-19.5 1029.5,-19.5 1029.5,-.5 932.5,-.5"/>
<text text-anchor="middle" x="981" y="-7.5" font-family="Helvetica,sans-Serif" font-size="10.00" fill="#000000">imap/message.c</text>
</a>
</g>
</g>
<!-- Node4&#45;&gt;Node13 -->
<g id="edge9" class="edge">
<title>Node4&#45;&gt;Node13</title>
<path fill="none" stroke="#191970" d="M981,-46.1575C981,-37.155 981,-26.9199 981,-19.6427"/>
<polygon fill="#191970" stroke="#191970" points="977.5001,-46.2455 981,-56.2455 984.5001,-46.2456 977.5001,-46.2455"/>
</g>
<!-- Node14 -->
<g id="node11" class="node">
<title>Node14</title>
<g id="a_node11"><a xlink:href="index_8c.html" target="_top" xlink:title="GUI manage the main index (list of emails) ">
<polygon fill="#ffffff" stroke="#000000" points="1048,-.5 1048,-19.5 1100,-19.5 1100,-.5 1048,-.5"/>
<text text-anchor="middle" x="1074" y="-7.5" font-family="Helvetica,sans-Serif" font-size="10.00" fill="#000000">index.c</text>
</a>
</g>
</g>
<!-- Node4&#45;&gt;Node14 -->
<g id="edge10" class="edge">
<title>Node4&#45;&gt;Node14</title>
<path fill="none" stroke="#191970" d="M1005.8335,-51.0465C1022.3811,-41.0824 1043.6432,-28.2794 1057.9863,-19.6427"/>
<polygon fill="#191970" stroke="#191970" points="1003.9607,-48.0886 997.1994,-56.2455 1007.5717,-54.0854 1003.9607,-48.0886"/>
</g>
<!-- Node15 -->
<g id="node12" class="node">
<title>Node15</title>
<g id="a_node12"><a xlink:href="init_8c.html" target="_top" xlink:title="Config/command parsing. ">
<polygon fill="#ffffff" stroke="#000000" points="1118.5,-.5 1118.5,-19.5 1159.5,-19.5 1159.5,-.5 1118.5,-.5"/>
<text text-anchor="middle" x="1139" y="-7.5" font-family="Helvetica,sans-Serif" font-size="10.00" fill="#000000">init.c</text>
</a>
</g>
</g>
<!-- Node4&#45;&gt;Node15 -->
<g id="edge11" class="edge">
<title>Node4&#45;&gt;Node15</title>
<path fill="none" stroke="#191970" d="M1017.8267,-52.9475C1049.0629,-41.8764 1092.7436,-26.3947 1118.2339,-17.3601"/>
<polygon fill="#191970" stroke="#191970" points="1016.4174,-49.7336 1008.1612,-56.3733 1018.7559,-56.3314 1016.4174,-49.7336"/>
</g>
<!-- Node16 -->
<g id="node13" class="node">
<title>Node16</title>
<g id="a_node13"><a xlink:href="main_8c.html" target="_top" xlink:title="Command line processing. ">
<polygon fill="#ffffff" stroke="#000000" points="1178,-.5 1178,-19.5 1228,-19.5 1228,-.5 1178,-.5"/>
<text text-anchor="middle" x="1203" y="-7.5" font-family="Helvetica,sans-Serif" font-size="10.00" fill="#000000">main.c</text>
</a>
</g>
</g>
<!-- Node4&#45;&gt;Node16 -->
<g id="edge12" class="edge">
<title>Node4&#45;&gt;Node16</title>
<path fill="none" stroke="#191970" d="M1032.0019,-54.1921C1069.9101,-45.2529 1122.8338,-32.43 1169,-20 1171.8518,-19.2322 1174.8295,-18.4007 1177.7856,-17.5565"/>
<polygon fill="#191970" stroke="#191970" points="1031.1484,-50.7973 1022.2145,-56.4925 1032.7501,-57.6116 1031.1484,-50.7973"/>
</g>
<!-- Node17 -->
<g id="node14" class="node">
<title>Node17</title>
<g id="a_node14"><a xlink:href="crypt_8c.html" target="_top" xlink:title="Signing/encryption multiplexor. ">
<polygon fill="#ffffff" stroke="#000000" points="1246.5,-.5 1246.5,-19.5 1329.5,-19.5 1329.5,-.5 1246.5,-.5"/>
<text text-anchor="middle" x="1288" y="-7.5" font-family="Helvetica,sans-Serif" font-size="10.00" fill="#000000">ncrypt/crypt.c</text>
</a>
</g>
</g>
<!-- Node4&#45;&gt;Node17 -->
<g id="edge13" class="edge">
<title>Node4&#45;&gt;Node17</title>
<path fill="none" stroke="#191970" d="M1034.4893,-56.6427C1086.3117,-47.517 1167.1018,-33.1318 1237,-20 1240.015,-19.4336 1243.1287,-18.8412 1246.2618,-18.2398"/>
<polygon fill="#191970" stroke="#191970" points="1033.7653,-53.2162 1024.5229,-58.3958 1034.978,-60.1104 1033.7653,-53.2162"/>
</g>
<!-- Node18 -->
<g id="node15" class="node">
<title>Node18</title>
<g id="a_node15"><a xlink:href="crypt__gpgme_8c.html" target="_top" xlink:title="Wrapper for PGP/SMIME calls to GPGME. ">
<polygon fill="#ffffff" stroke="#000000" points="1348,-.5 1348,-19.5 1470,-19.5 1470,-.5 1348,-.5"/>
<text text-anchor="middle" x="1409" y="-7.5" font-family="Helvetica,sans-Serif" font-size="10.00" fill="#000000">ncrypt/crypt_gpgme.c</text>
</a>
</g>
</g>
<!-- Node4&#45;&gt;Node18 -->
<g id="edge14" class="edge">
<title>Node4&#45;&gt;Node18</title>
<path fill="none" stroke="#191970" d="M1034.9026,-59.3144C1104.9945,-50.5658 1231.2102,-34.6236 1339,-20 1341.9195,-19.6039 1344.9069,-19.1942 1347.9237,-18.7769"/>
<polygon fill="#191970" stroke="#191970" points="1034.052,-55.8933 1024.5619,-60.6038 1034.9181,-62.8395 1034.052,-55.8933"/>
</g>
<!-- Node19 -->
<g id="node16" class="node">
<title>Node19</title>
<g id="a_node16"><a xlink:href="cryptglue_8c.html" target="_top" xlink:title="Wrapper around crypto functions. ">
<polygon fill="#ffffff" stroke="#000000" points="1488,-.5 1488,-19.5 1592,-19.5 1592,-.5 1488,-.5"/>
<text text-anchor="middle" x="1540" y="-7.5" font-family="Helvetica,sans-Serif" font-size="10.00" fill="#000000">ncrypt/cryptglue.c</text>
</a>
</g>
</g>
<!-- Node4&#45;&gt;Node19 -->
<g id="edge15" class="edge">
<title>Node4&#45;&gt;Node19</title>
<path fill="none" stroke="#191970" d="M1034.8717,-62.273C1126.373,-55.6633 1317.9127,-40.6177 1479,-20 1481.8741,-19.6321 1484.8205,-19.2306 1487.7919,-18.8067"/>
<polygon fill="#191970" stroke="#191970" points="1034.4696,-58.7927 1024.7457,-62.9994 1034.9705,-65.7748 1034.4696,-58.7927"/>
</g>
<!-- Node20 -->
<g id="node17" class="node">
<title>Node20</title>
<g id="a_node17"><a xlink:href="header_8c.html" target="_top" xlink:title="Write a MIME Email Header to a file. ">
<polygon fill="#ffffff" stroke="#000000" points="1610,-.5 1610,-19.5 1694,-19.5 1694,-.5 1610,-.5"/>
<text text-anchor="middle" x="1652" y="-7.5" font-family="Helvetica,sans-Serif" font-size="10.00" fill="#000000">send/header.c</text>
</a>
</g>
</g>
<!-- Node4&#45;&gt;Node20 -->
<g id="edge16" class="edge">
<title>Node4&#45;&gt;Node20</title>
<path fill="none" stroke="#191970" d="M1035.0936,-64.1629C1143.0869,-60.0157 1392.9204,-48.0169 1601,-20 1603.8615,-19.6147 1606.8044,-19.1695 1609.7638,-18.6854"/>
<polygon fill="#191970" stroke="#191970" points="1034.6449,-60.6772 1024.7838,-64.5513 1034.9086,-67.6722 1034.6449,-60.6772"/>
</g>
<!-- Node21 -->
<g id="node18" class="node">
<title>Node21</title>
<g id="a_node18"><a xlink:href="send_8c.html" target="_top" xlink:title="Prepare and send an email. ">
<polygon fill="#ffffff" stroke="#000000" points="1712,-.5 1712,-19.5 1786,-19.5 1786,-.5 1712,-.5"/>
<text text-anchor="middle" x="1749" y="-7.5" font-family="Helvetica,sans-Serif" font-size="10.00" fill="#000000">send/send.c</text>
</a>
</g>
</g>
<!-- Node4&#45;&gt;Node21 -->
<g id="edge17" class="edge">
<title>Node4&#45;&gt;Node21</title>
<path fill="none" stroke="#191970" d="M1034.8315,-65.3327C1155.1745,-63.2381 1454.9147,-54.668 1703,-20 1705.9138,-19.5928 1708.9178,-19.1024 1711.929,-18.5602"/>
<polygon fill="#191970" stroke="#191970" points="1034.7124,-61.8341 1024.7719,-65.4999 1034.8287,-68.8332 1034.7124,-61.8341"/>
</g>
</g>
</svg>
