<?xml version="1.0" encoding="UTF-8" standalone="no"?>
<!DOCTYPE svg PUBLIC "-//W3C//DTD SVG 1.1//EN"
 "http://www.w3.org/Graphics/SVG/1.1/DTD/svg11.dtd">
<!-- Generated by graphviz version 12.2.1 (20241206.2353)
 -->
<!-- Title: autocrypt/autocrypt.c Pages: 1 -->
<svg width="1411pt" height="205pt"
 viewBox="0.00 0.00 1411.04 205.00" xmlns="http://www.w3.org/2000/svg" xmlns:xlink="http://www.w3.org/1999/xlink">
<g id="graph0" class="graph" transform="scale(1 1) rotate(0) translate(4 201)">
<title>autocrypt/autocrypt.c</title>
<!-- Node1 -->
<g id="Node000001" class="node">
<title>Node1</title>
<g id="a_Node000001"><a xlink:title="Autocrypt end&#45;to&#45;end encryption.">
<polygon fill="#999999" stroke="#666666" points="686.79,-197 569.54,-197 569.54,-174.75 686.79,-174.75 686.79,-197"/>
<text text-anchor="middle" x="628.17" y="-183.5" font-family="Helvetica,sans-Serif" font-size="10.00">autocrypt/autocrypt.c</text>
</a>
</g>
</g>
<!-- Node2 -->
<g id="Node000002" class="node">
<title>Node2</title>
<g id="a_Node000002"><a xlink:title=" ">
<polygon fill="#e0e0e0" stroke="#999999" points="136.92,-22.25 83.42,-22.25 83.42,0 136.92,0 136.92,-22.25"/>
<text text-anchor="middle" x="110.17" y="-8.75" font-family="Helvetica,sans-Serif" font-size="10.00">config.h</text>
</a>
</g>
</g>
<!-- Node1&#45;&gt;Node2 -->
<g id="edge1_Node000001_Node000002" class="edge">
<title>Node1&#45;&gt;Node2</title>
<g id="a_edge1_Node000001_Node000002"><a xlink:title=" ">
<path fill="none" stroke="#63b8ff" d="M569.09,-184.93C421.86,-184.44 47.7,-179.19 10.17,-138.75 -24.53,-101.37 40.71,-53.11 81.28,-28.35"/>
<polygon fill="#63b8ff" stroke="#63b8ff" points="82.88,-31.48 89.69,-23.36 79.3,-25.46 82.88,-31.48"/>
</a>
</g>
</g>
<!-- Node3 -->
<g id="Node000003" class="node">
<title>Node3</title>
<g id="a_Node000003"><a xlink:title=" ">
<polygon fill="#e0e0e0" stroke="#999999" points="927.17,-138.75 875.17,-138.75 875.17,-116.5 927.17,-116.5 927.17,-138.75"/>
<text text-anchor="middle" x="901.17" y="-125.25" font-family="Helvetica,sans-Serif" font-size="10.00">errno.h</text>
</a>
</g>
</g>
<!-- Node1&#45;&gt;Node3 -->
<g id="edge2_Node000001_Node000003" class="edge">
<title>Node1&#45;&gt;Node3</title>
<g id="a_edge2_Node000001_Node000003"><a xlink:title=" ">
<path fill="none" stroke="#63b8ff" d="M687.17,-174.97C732.98,-166.93 798.28,-154.72 863.9,-139.14"/>
<polygon fill="#63b8ff" stroke="#63b8ff" points="864.48,-142.6 873.39,-136.86 862.85,-135.8 864.48,-142.6"/>
</a>
</g>
</g>
<!-- Node4 -->
<g id="Node000004" class="node">
<title>Node4</title>
<g id="a_Node000004"><a xlink:title=" ">
<polygon fill="#e0e0e0" stroke="#999999" points="461.92,-22.25 402.42,-22.25 402.42,0 461.92,0 461.92,-22.25"/>
<text text-anchor="middle" x="432.17" y="-8.75" font-family="Helvetica,sans-Serif" font-size="10.00">stdbool.h</text>
</a>
</g>
</g>
<!-- Node1&#45;&gt;Node4 -->
<g id="edge3_Node000001_Node000004" class="edge">
<title>Node1&#45;&gt;Node4</title>
<g id="a_edge3_Node000001_Node000004"><a xlink:title=" ">
<path fill="none" stroke="#63b8ff" d="M600.9,-174.32C582.13,-166.27 557.24,-153.98 538.17,-138.75 498.61,-107.17 463.19,-58.92 445.02,-32.01"/>
<polygon fill="#63b8ff" stroke="#63b8ff" points="448.01,-30.18 439.57,-23.78 442.17,-34.05 448.01,-30.18"/>
</a>
</g>
</g>
<!-- Node5 -->
<g id="Node000005" class="node">
<title>Node5</title>
<g id="a_Node000005"><a xlink:title=" ">
<polygon fill="#e0e0e0" stroke="#999999" points="561.79,-80.5 510.54,-80.5 510.54,-58.25 561.79,-58.25 561.79,-80.5"/>
<text text-anchor="middle" x="536.17" y="-67" font-family="Helvetica,sans-Serif" font-size="10.00">stdint.h</text>
</a>
</g>
</g>
<!-- Node1&#45;&gt;Node5 -->
<g id="edge4_Node000001_Node000005" class="edge">
<title>Node1&#45;&gt;Node5</title>
<g id="a_edge4_Node000001_Node000005"><a xlink:title=" ">
<path fill="none" stroke="#63b8ff" d="M599.99,-174.33C583.66,-166.81 564.04,-155.12 552.17,-138.75 542.31,-125.16 538.43,-106.42 536.94,-91.99"/>
<polygon fill="#63b8ff" stroke="#63b8ff" points="540.45,-91.91 536.27,-82.17 533.46,-92.38 540.45,-91.91"/>
</a>
</g>
</g>
<!-- Node6 -->
<g id="Node000006" class="node">
<title>Node6</title>
<g id="a_Node000006"><a xlink:title=" ">
<polygon fill="#e0e0e0" stroke="#999999" points="392.92,-80.5 345.42,-80.5 345.42,-58.25 392.92,-58.25 392.92,-80.5"/>
<text text-anchor="middle" x="369.17" y="-67" font-family="Helvetica,sans-Serif" font-size="10.00">stdio.h</text>
</a>
</g>
</g>
<!-- Node1&#45;&gt;Node6 -->
<g id="edge5_Node000001_Node000006" class="edge">
<title>Node1&#45;&gt;Node6</title>
<g id="a_edge5_Node000001_Node000006"><a xlink:title=" ">
<path fill="none" stroke="#63b8ff" d="M569.07,-180.58C506.72,-174.85 413.98,-162.55 388.17,-138.75 375.43,-127.01 370.95,-107.53 369.5,-92.36"/>
<polygon fill="#63b8ff" stroke="#63b8ff" points="373,-92.21 368.97,-82.41 366.01,-92.59 373,-92.21"/>
</a>
</g>
</g>
<!-- Node7 -->
<g id="Node000007" class="node">
<title>Node7</title>
<g id="a_Node000007"><a xlink:title=" ">
<polygon fill="#e0e0e0" stroke="#999999" points="997.17,-138.75 945.17,-138.75 945.17,-116.5 997.17,-116.5 997.17,-138.75"/>
<text text-anchor="middle" x="971.17" y="-125.25" font-family="Helvetica,sans-Serif" font-size="10.00">string.h</text>
</a>
</g>
</g>
<!-- Node1&#45;&gt;Node7 -->
<g id="edge6_Node000001_Node000007" class="edge">
<title>Node1&#45;&gt;Node7</title>
<g id="a_edge6_Node000001_Node000007"><a xlink:title=" ">
<path fill="none" stroke="#63b8ff" d="M687.06,-178.42C746.93,-171.32 842.5,-158.55 933.78,-139.05"/>
<polygon fill="#63b8ff" stroke="#63b8ff" points="934.38,-142.5 943.41,-136.95 932.9,-135.66 934.38,-142.5"/>
</a>
</g>
</g>
<!-- Node8 -->
<g id="Node000008" class="node">
<title>Node8</title>
<g id="a_Node000008"><a xlink:title=" ">
<polygon fill="#e0e0e0" stroke="#999999" points="1075.29,-138.75 1015.04,-138.75 1015.04,-116.5 1075.29,-116.5 1075.29,-138.75"/>
<text text-anchor="middle" x="1045.17" y="-125.25" font-family="Helvetica,sans-Serif" font-size="10.00">sys/stat.h</text>
</a>
</g>
</g>
<!-- Node1&#45;&gt;Node8 -->
<g id="edge7_Node000001_Node000008" class="edge">
<title>Node1&#45;&gt;Node8</title>
<g id="a_edge7_Node000001_Node000008"><a xlink:title=" ">
<path fill="none" stroke="#63b8ff" d="M687.14,-180.12C759.5,-173.74 886.07,-160.84 1003.28,-139.1"/>
<polygon fill="#63b8ff" stroke="#63b8ff" points="1003.93,-142.54 1013.11,-137.25 1002.63,-135.66 1003.93,-142.54"/>
</a>
</g>
</g>
<!-- Node9 -->
<g id="Node000009" class="node">
<title>Node9</title>
<g id="a_Node000009"><a xlink:href="autocrypt_2private_8h.html" target="_top" xlink:title="Shared constants/structs that are private to Autocrypt.">
<polygon fill="#fff0f0" stroke="red" points="77.17,-138.75 19.17,-138.75 19.17,-116.5 77.17,-116.5 77.17,-138.75"/>
<text text-anchor="middle" x="48.17" y="-125.25" font-family="Helvetica,sans-Serif" font-size="10.00">private.h</text>
</a>
</g>
</g>
<!-- Node1&#45;&gt;Node9 -->
<g id="edge8_Node000001_Node000009" class="edge">
<title>Node1&#45;&gt;Node9</title>
<g id="a_edge8_Node000001_Node000009"><a xlink:title=" ">
<path fill="none" stroke="#63b8ff" d="M569.42,-182.63C470.29,-178.21 263.72,-166.33 91.17,-138.75 90.34,-138.62 89.51,-138.48 88.67,-138.33"/>
<polygon fill="#63b8ff" stroke="#63b8ff" points="89.63,-134.96 79.15,-136.46 88.28,-141.82 89.63,-134.96"/>
</a>
</g>
</g>
<!-- Node11 -->
<g id="Node000011" class="node">
<title>Node11</title>
<g id="a_Node000011"><a xlink:href="mutt_2lib_8h.html" target="_top" xlink:title="Convenience wrapper for the library headers.">
<polygon fill="#fff0f0" stroke="red" points="141.04,-80.5 79.29,-80.5 79.29,-58.25 141.04,-58.25 141.04,-80.5"/>
<text text-anchor="middle" x="110.17" y="-67" font-family="Helvetica,sans-Serif" font-size="10.00">mutt/lib.h</text>
</a>
</g>
</g>
<!-- Node1&#45;&gt;Node11 -->
<g id="edge12_Node000001_Node000011" class="edge">
<title>Node1&#45;&gt;Node11</title>
<g id="a_edge12_Node000001_Node000011"><a xlink:title=" ">
<path fill="none" stroke="#63b8ff" d="M569.18,-183.37C443.22,-179.6 156.74,-167.9 124.17,-138.75 111.27,-127.21 108.41,-107.26 108.39,-91.88"/>
<polygon fill="#63b8ff" stroke="#63b8ff" points="111.88,-92.43 108.8,-82.29 104.88,-92.13 111.88,-92.43"/>
</a>
</g>
</g>
<!-- Node58 -->
<g id="Node000058" class="node">
<title>Node58</title>
<g id="a_Node000058"><a xlink:href="address_2lib_8h.html" target="_top" xlink:title="Email Address Handling.">
<polygon fill="#fff0f0" stroke="red" points="1168.79,-138.75 1093.54,-138.75 1093.54,-116.5 1168.79,-116.5 1168.79,-138.75"/>
<text text-anchor="middle" x="1131.17" y="-125.25" font-family="Helvetica,sans-Serif" font-size="10.00">address/lib.h</text>
</a>
</g>
</g>
<!-- Node1&#45;&gt;Node58 -->
<g id="edge13_Node000001_Node000058" class="edge">
<title>Node1&#45;&gt;Node58</title>
<g id="a_edge13_Node000001_Node000058"><a xlink:title=" ">
<path fill="none" stroke="#63b8ff" d="M687.1,-181.02C772.13,-175 934.33,-161.77 1082.2,-138.9"/>
<polygon fill="#63b8ff" stroke="#63b8ff" points="1082.44,-142.41 1091.77,-137.4 1081.35,-135.49 1082.44,-142.41"/>
</a>
</g>
</g>
<!-- Node63 -->
<g id="Node000063" class="node">
<title>Node63</title>
<g id="a_Node000063"><a xlink:href="config_2lib_8h.html" target="_top" xlink:title="Convenience wrapper for the config headers.">
<polygon fill="#fff0f0" stroke="red" points="802.04,-80.5 734.29,-80.5 734.29,-58.25 802.04,-58.25 802.04,-80.5"/>
<text text-anchor="middle" x="768.17" y="-67" font-family="Helvetica,sans-Serif" font-size="10.00">config/lib.h</text>
</a>
</g>
</g>
<!-- Node1&#45;&gt;Node63 -->
<g id="edge14_Node000001_Node000063" class="edge">
<title>Node1&#45;&gt;Node63</title>
<g id="a_edge14_Node000001_Node000063"><a xlink:title=" ">
<path fill="none" stroke="#63b8ff" d="M650.48,-174.25C666.99,-165.83 689.58,-153.13 707.17,-138.75 725.15,-124.05 742.46,-103.87 754.02,-89.25"/>
<polygon fill="#63b8ff" stroke="#63b8ff" points="756.47,-91.81 759.81,-81.76 750.93,-87.53 756.47,-91.81"/>
</a>
</g>
</g>
<!-- Node78 -->
<g id="Node000078" class="node">
<title>Node78</title>
<g id="a_Node000078"><a xlink:href="email_2lib_8h.html" target="_top" xlink:title="Structs that make up an email.">
<polygon fill="#fff0f0" stroke="red" points="1251.17,-138.75 1187.17,-138.75 1187.17,-116.5 1251.17,-116.5 1251.17,-138.75"/>
<text text-anchor="middle" x="1219.17" y="-125.25" font-family="Helvetica,sans-Serif" font-size="10.00">email/lib.h</text>
</a>
</g>
</g>
<!-- Node1&#45;&gt;Node78 -->
<g id="edge16_Node000001_Node000078" class="edge">
<title>Node1&#45;&gt;Node78</title>
<g id="a_edge16_Node000001_Node000078"><a xlink:title=" ">
<path fill="none" stroke="#63b8ff" d="M687.15,-182.99C786.22,-179.16 992.41,-168.33 1175.83,-138.9"/>
<polygon fill="#63b8ff" stroke="#63b8ff" points="1176.24,-142.38 1185.54,-137.31 1175.11,-135.47 1176.24,-142.38"/>
</a>
</g>
</g>
<!-- Node93 -->
<g id="Node000093" class="node">
<title>Node93</title>
<g id="a_Node000093"><a xlink:href="core_2lib_8h.html" target="_top" xlink:title="Convenience wrapper for the core headers.">
<polygon fill="#fff0f0" stroke="red" points="677.92,-80.5 618.42,-80.5 618.42,-58.25 677.92,-58.25 677.92,-80.5"/>
<text text-anchor="middle" x="648.17" y="-67" font-family="Helvetica,sans-Serif" font-size="10.00">core/lib.h</text>
</a>
</g>
</g>
<!-- Node1&#45;&gt;Node93 -->
<g id="edge17_Node000001_Node000093" class="edge">
<title>Node1&#45;&gt;Node93</title>
<g id="a_edge17_Node000001_Node000093"><a xlink:title=" ">
<path fill="none" stroke="#63b8ff" d="M652.54,-174.39C666.92,-166.78 683.87,-154.96 692.17,-138.75 701.36,-120.79 686.57,-101.57 671.71,-88.09"/>
<polygon fill="#63b8ff" stroke="#63b8ff" points="674.2,-85.61 664.29,-81.85 669.69,-90.97 674.2,-85.61"/>
</a>
</g>
</g>
<!-- Node105 -->
<g id="Node000105" class="node">
<title>Node105</title>
<g id="a_Node000105"><a xlink:href="gui_2lib_8h.html" target="_top" xlink:title="Convenience wrapper for the gui headers.">
<polygon fill="#fff0f0" stroke="red" points="1322.92,-138.75 1269.42,-138.75 1269.42,-116.5 1322.92,-116.5 1322.92,-138.75"/>
<text text-anchor="middle" x="1296.17" y="-125.25" font-family="Helvetica,sans-Serif" font-size="10.00">gui/lib.h</text>
</a>
</g>
</g>
<!-- Node1&#45;&gt;Node105 -->
<g id="edge18_Node000001_Node000105" class="edge">
<title>Node1&#45;&gt;Node105</title>
<g id="a_edge18_Node000001_Node000105"><a xlink:title=" ">
<path fill="none" stroke="#63b8ff" d="M687.03,-184.52C797.41,-182.99 1042.99,-175.57 1257.99,-138.79"/>
<polygon fill="#63b8ff" stroke="#63b8ff" points="1258.43,-142.27 1267.68,-137.11 1257.23,-135.37 1258.43,-142.27"/>
</a>
</g>
</g>
<!-- Node141 -->
<g id="Node000141" class="node">
<title>Node141</title>
<g id="a_Node000141"><a xlink:href="autocrypt_2lib_8h.html" target="_top" xlink:title="Autocrypt end&#45;to&#45;end encryption.">
<polygon fill="#fff0f0" stroke="red" points="168.92,-138.75 133.42,-138.75 133.42,-116.5 168.92,-116.5 168.92,-138.75"/>
<text text-anchor="middle" x="151.17" y="-125.25" font-family="Helvetica,sans-Serif" font-size="10.00">lib.h</text>
</a>
</g>
</g>
<!-- Node1&#45;&gt;Node141 -->
<g id="edge19_Node000001_Node000141" class="edge">
<title>Node1&#45;&gt;Node141</title>
<g id="a_edge19_Node000001_Node000141"><a xlink:title=" ">
<path fill="none" stroke="#63b8ff" d="M569.12,-183.63C484.56,-180.8 324.2,-171.53 180.47,-138.75"/>
<polygon fill="#63b8ff" stroke="#63b8ff" points="181.28,-135.34 170.74,-136.48 179.69,-142.16 181.28,-135.34"/>
</a>
</g>
</g>
<!-- Node107 -->
<g id="Node000107" class="node">
<title>Node107</title>
<g id="a_Node000107"><a xlink:href="browser_2lib_8h.html" target="_top" xlink:title="Select a Mailbox from a list.">
<polygon fill="#fff0f0" stroke="red" points="264.92,-138.75 187.42,-138.75 187.42,-116.5 264.92,-116.5 264.92,-138.75"/>
<text text-anchor="middle" x="226.17" y="-125.25" font-family="Helvetica,sans-Serif" font-size="10.00">browser/lib.h</text>
</a>
</g>
</g>
<!-- Node1&#45;&gt;Node107 -->
<g id="edge23_Node000001_Node000107" class="edge">
<title>Node1&#45;&gt;Node107</title>
<g id="a_edge23_Node000001_Node000107"><a xlink:title=" ">
<path fill="none" stroke="#63b8ff" d="M569.08,-178.61C500.96,-171.07 385.41,-157.29 276.6,-139.06"/>
<polygon fill="#63b8ff" stroke="#63b8ff" points="277.35,-135.64 266.9,-137.42 276.18,-142.54 277.35,-135.64"/>
</a>
</g>
</g>
<!-- Node142 -->
<g id="Node000142" class="node">
<title>Node142</title>
<g id="a_Node000142"><a xlink:href="index_2lib_8h.html" target="_top" xlink:title="GUI manage the main index (list of emails)">
<polygon fill="#fff0f0" stroke="red" points="625.17,-138.75 561.17,-138.75 561.17,-116.5 625.17,-116.5 625.17,-138.75"/>
<text text-anchor="middle" x="593.17" y="-125.25" font-family="Helvetica,sans-Serif" font-size="10.00">index/lib.h</text>
</a>
</g>
</g>
<!-- Node1&#45;&gt;Node142 -->
<g id="edge28_Node000001_Node000142" class="edge">
<title>Node1&#45;&gt;Node142</title>
<g id="a_edge28_Node000001_Node000142"><a xlink:title=" ">
<path fill="none" stroke="#63b8ff" d="M621.58,-174.29C617.13,-167.15 611.12,-157.48 605.77,-148.88"/>
<polygon fill="#63b8ff" stroke="#63b8ff" points="608.77,-147.08 600.52,-140.44 602.83,-150.78 608.77,-147.08"/>
</a>
</g>
</g>
<!-- Node83 -->
<g id="Node000083" class="node">
<title>Node83</title>
<g id="a_Node000083"><a xlink:href="ncrypt_2lib_8h.html" target="_top" xlink:title="API for encryption/signing of emails.">
<polygon fill="white" stroke="#666666" points="466.79,-138.75 397.54,-138.75 397.54,-116.5 466.79,-116.5 466.79,-138.75"/>
<text text-anchor="middle" x="432.17" y="-125.25" font-family="Helvetica,sans-Serif" font-size="10.00">ncrypt/lib.h</text>
</a>
</g>
</g>
<!-- Node1&#45;&gt;Node83 -->
<g id="edge33_Node000001_Node000083" class="edge">
<title>Node1&#45;&gt;Node83</title>
<g id="a_edge33_Node000001_Node000083"><a xlink:title=" ">
<path fill="none" stroke="#63b8ff" d="M591.3,-174.29C559.18,-165.08 512.47,-151.67 477.96,-141.77"/>
<polygon fill="#63b8ff" stroke="#63b8ff" points="479.25,-138.5 468.67,-139.1 477.32,-145.23 479.25,-138.5"/>
</a>
</g>
</g>
<!-- Node165 -->
<g id="Node000165" class="node">
<title>Node165</title>
<g id="a_Node000165"><a xlink:href="question_2lib_8h.html" target="_top" xlink:title="Ask the user a question.">
<polygon fill="white" stroke="#666666" points="857.04,-138.75 777.29,-138.75 777.29,-116.5 857.04,-116.5 857.04,-138.75"/>
<text text-anchor="middle" x="817.17" y="-125.25" font-family="Helvetica,sans-Serif" font-size="10.00">question/lib.h</text>
</a>
</g>
</g>
<!-- Node1&#45;&gt;Node165 -->
<g id="edge37_Node000001_Node000165" class="edge">
<title>Node1&#45;&gt;Node165</title>
<g id="a_edge37_Node000001_Node000165"><a xlink:title=" ">
<path fill="none" stroke="#63b8ff" d="M663.72,-174.29C694.07,-165.26 737.95,-152.2 771.01,-142.36"/>
<polygon fill="#63b8ff" stroke="#63b8ff" points="771.74,-145.8 780.33,-139.59 769.74,-139.09 771.74,-145.8"/>
</a>
</g>
</g>
<!-- Node166 -->
<g id="Node000166" class="node">
<title>Node166</title>
<g id="a_Node000166"><a xlink:href="send_2lib_8h.html" target="_top" xlink:title="Convenience wrapper for the send headers.">
<polygon fill="#fff0f0" stroke="red" points="1403.04,-138.75 1341.29,-138.75 1341.29,-116.5 1403.04,-116.5 1403.04,-138.75"/>
<text text-anchor="middle" x="1372.17" y="-125.25" font-family="Helvetica,sans-Serif" font-size="10.00">send/lib.h</text>
</a>
</g>
</g>
<!-- Node1&#45;&gt;Node166 -->
<g id="edge39_Node000001_Node000166" class="edge">
<title>Node1&#45;&gt;Node166</title>
<g id="a_edge39_Node000001_Node000166"><a xlink:title=" ">
<path fill="none" stroke="#63b8ff" d="M686.98,-184.63C806.5,-183.37 1086.4,-176.42 1329.65,-138.88"/>
<polygon fill="#63b8ff" stroke="#63b8ff" points="1330,-142.37 1339.34,-137.37 1328.92,-135.45 1330,-142.37"/>
</a>
</g>
</g>
<!-- Node175 -->
<g id="Node000175" class="node">
<title>Node175</title>
<g id="a_Node000175"><a xlink:href="muttlib_8h.html" target="_top" xlink:title="Some miscellaneous functions.">
<polygon fill="#fff0f0" stroke="red" points="341.17,-138.75 283.17,-138.75 283.17,-116.5 341.17,-116.5 341.17,-138.75"/>
<text text-anchor="middle" x="312.17" y="-125.25" font-family="Helvetica,sans-Serif" font-size="10.00">muttlib.h</text>
</a>
</g>
</g>
<!-- Node1&#45;&gt;Node175 -->
<g id="edge40_Node000001_Node000175" class="edge">
<title>Node1&#45;&gt;Node175</title>
<g id="a_edge40_Node000001_Node000175"><a xlink:title=" ">
<path fill="none" stroke="#63b8ff" d="M569.12,-176.01C513.69,-167.43 428.55,-153.57 355.17,-138.75 354.18,-138.55 353.18,-138.35 352.17,-138.13"/>
<polygon fill="#63b8ff" stroke="#63b8ff" points="353.25,-134.79 342.73,-136.06 351.75,-141.63 353.25,-134.79"/>
</a>
</g>
</g>
<!-- Node181 -->
<g id="Node000181" class="node">
<title>Node181</title>
<g id="a_Node000181"><a xlink:href="mx_8h.html" target="_top" xlink:title="API for mailboxes.">
<polygon fill="white" stroke="#666666" points="682.79,-138.75 643.54,-138.75 643.54,-116.5 682.79,-116.5 682.79,-138.75"/>
<text text-anchor="middle" x="663.17" y="-125.25" font-family="Helvetica,sans-Serif" font-size="10.00">mx.h</text>
</a>
</g>
</g>
<!-- Node1&#45;&gt;Node181 -->
<g id="edge43_Node000001_Node000181" class="edge">
<title>Node1&#45;&gt;Node181</title>
<g id="a_edge43_Node000001_Node000181"><a xlink:title=" ">
<path fill="none" stroke="#63b8ff" d="M634.75,-174.29C639.2,-167.15 645.21,-157.48 650.57,-148.88"/>
<polygon fill="#63b8ff" stroke="#63b8ff" points="653.5,-150.78 655.81,-140.44 647.56,-147.08 653.5,-150.78"/>
</a>
</g>
</g>
<!-- Node9&#45;&gt;Node4 -->
<g id="edge9_Node000009_Node000004" class="edge">
<title>Node9&#45;&gt;Node4</title>
<g id="a_edge9_Node000009_Node000004"><a xlink:title=" ">
<path fill="none" stroke="#63b8ff" d="M48.25,-116.17C49,-100.88 52.8,-72.67 70.17,-58.25 118.12,-18.42 306.25,-12.57 390.72,-11.99"/>
<polygon fill="#63b8ff" stroke="#63b8ff" points="390.66,-15.49 400.65,-11.95 390.63,-8.49 390.66,-15.49"/>
</a>
</g>
</g>
<!-- Node9&#45;&gt;Node11 -->
<g id="edge10_Node000009_Node000011" class="edge">
<title>Node9&#45;&gt;Node11</title>
<g id="a_edge10_Node000009_Node000011"><a xlink:title=" ">
<path fill="none" stroke="#63b8ff" d="M59.83,-116.04C68.4,-108.27 80.26,-97.51 90.31,-88.39"/>
<polygon fill="#63b8ff" stroke="#63b8ff" points="92.38,-91.24 97.44,-81.92 87.68,-86.05 92.38,-91.24"/>
</a>
</g>
</g>
<!-- Node11&#45;&gt;Node2 -->
<g id="edge11_Node000011_Node000002" class="edge">
<title>Node11&#45;&gt;Node2</title>
<g id="a_edge11_Node000011_Node000002"><a xlink:title=" ">
<path fill="none" stroke="#63b8ff" d="M110.17,-57.79C110.17,-51.12 110.17,-42.24 110.17,-34.09"/>
<polygon fill="#63b8ff" stroke="#63b8ff" points="113.67,-34.17 110.17,-24.17 106.67,-34.17 113.67,-34.17"/>
</a>
</g>
</g>
<!-- Node63&#45;&gt;Node4 -->
<g id="edge15_Node000063_Node000004" class="edge">
<title>Node63&#45;&gt;Node4</title>
<g id="a_edge15_Node000063_Node000004"><a xlink:title=" ">
<path fill="none" stroke="#63b8ff" d="M733.86,-60.92C729.26,-59.99 724.6,-59.07 720.17,-58.25 632.55,-42 529.29,-26.3 473.31,-18.06"/>
<polygon fill="#63b8ff" stroke="#63b8ff" points="474,-14.63 463.6,-16.64 472.99,-21.56 474,-14.63"/>
</a>
</g>
</g>
<!-- Node141&#45;&gt;Node4 -->
<g id="edge20_Node000141_Node000004" class="edge">
<title>Node141&#45;&gt;Node4</title>
<g id="a_edge20_Node000141_Node000004"><a xlink:title=" ">
<path fill="none" stroke="#63b8ff" d="M168.18,-116.24C192.38,-101.78 238.45,-75.45 280.17,-58.25 316.84,-43.13 360.29,-30.44 391.32,-22.22"/>
<polygon fill="#63b8ff" stroke="#63b8ff" points="391.89,-25.69 400.69,-19.78 390.13,-18.92 391.89,-25.69"/>
</a>
</g>
</g>
<!-- Node141&#45;&gt;Node6 -->
<g id="edge21_Node000141_Node000006" class="edge">
<title>Node141&#45;&gt;Node6</title>
<g id="a_edge21_Node000141_Node000006"><a xlink:title=" ">
<path fill="none" stroke="#63b8ff" d="M169.36,-119.46C172.29,-118.41 175.29,-117.38 178.17,-116.5 231.81,-100.03 295.37,-85.68 333.96,-77.53"/>
<polygon fill="#63b8ff" stroke="#63b8ff" points="334.54,-80.99 343.61,-75.51 333.11,-74.13 334.54,-80.99"/>
</a>
</g>
</g>
<!-- Node141&#45;&gt;Node11 -->
<g id="edge22_Node000141_Node000011" class="edge">
<title>Node141&#45;&gt;Node11</title>
<g id="a_edge22_Node000141_Node000011"><a xlink:title=" ">
<path fill="none" stroke="#63b8ff" d="M143.45,-116.04C138.13,-108.74 130.89,-98.8 124.52,-90.06"/>
<polygon fill="#63b8ff" stroke="#63b8ff" points="127.45,-88.15 118.74,-82.13 121.8,-92.27 127.45,-88.15"/>
</a>
</g>
</g>
<!-- Node107&#45;&gt;Node2 -->
<g id="edge24_Node000107_Node000002" class="edge">
<title>Node107&#45;&gt;Node2</title>
<g id="a_edge24_Node000107_Node000002"><a xlink:title=" ">
<path fill="none" stroke="#63b8ff" d="M215.46,-116.06C195.78,-96.63 153.62,-55.01 129.03,-30.75"/>
<polygon fill="#63b8ff" stroke="#63b8ff" points="131.5,-28.26 121.92,-23.73 126.58,-33.25 131.5,-28.26"/>
</a>
</g>
</g>
<!-- Node107&#45;&gt;Node4 -->
<g id="edge25_Node000107_Node000004" class="edge">
<title>Node107&#45;&gt;Node4</title>
<g id="a_edge25_Node000107_Node000004"><a xlink:title=" ">
<path fill="none" stroke="#63b8ff" d="M238.43,-116.06C255.61,-101.64 288.22,-75.59 319.17,-58.25 342.1,-45.4 369.34,-34.17 391.32,-26.02"/>
<polygon fill="#63b8ff" stroke="#63b8ff" points="392.35,-29.37 400.55,-22.67 389.96,-22.79 392.35,-29.37"/>
</a>
</g>
</g>
<!-- Node107&#45;&gt;Node5 -->
<g id="edge26_Node000107_Node000005" class="edge">
<title>Node107&#45;&gt;Node5</title>
<g id="a_edge26_Node000107_Node000005"><a xlink:title=" ">
<path fill="none" stroke="#63b8ff" d="M265.18,-118.28C268.22,-117.67 271.24,-117.07 274.17,-116.5 354.1,-101.04 448.17,-85 499.01,-76.51"/>
<polygon fill="#63b8ff" stroke="#63b8ff" points="499.3,-80.01 508.59,-74.92 498.15,-73.11 499.3,-80.01"/>
</a>
</g>
</g>
<!-- Node107&#45;&gt;Node11 -->
<g id="edge27_Node000107_Node000011" class="edge">
<title>Node107&#45;&gt;Node11</title>
<g id="a_edge27_Node000107_Node000011"><a xlink:title=" ">
<path fill="none" stroke="#63b8ff" d="M204.35,-116.04C186.77,-107.52 161.81,-95.42 142,-85.81"/>
<polygon fill="#63b8ff" stroke="#63b8ff" points="143.77,-82.78 133.25,-81.57 140.72,-89.08 143.77,-82.78"/>
</a>
</g>
</g>
<!-- Node142&#45;&gt;Node4 -->
<g id="edge29_Node000142_Node000004" class="edge">
<title>Node142&#45;&gt;Node4</title>
<g id="a_edge29_Node000142_Node000004"><a xlink:title=" ">
<path fill="none" stroke="#63b8ff" d="M592.68,-116.34C591.42,-101.52 586.97,-74.19 571.17,-58.25 545.3,-32.15 504.33,-20.82 473.56,-15.9"/>
<polygon fill="#63b8ff" stroke="#63b8ff" points="474.21,-12.45 463.82,-14.52 473.23,-19.39 474.21,-12.45"/>
</a>
</g>
</g>
<!-- Node142&#45;&gt;Node5 -->
<g id="edge30_Node000142_Node000005" class="edge">
<title>Node142&#45;&gt;Node5</title>
<g id="a_edge30_Node000142_Node000005"><a xlink:title=" ">
<path fill="none" stroke="#63b8ff" d="M582.45,-116.04C574.72,-108.42 564.1,-97.94 554.98,-88.94"/>
<polygon fill="#63b8ff" stroke="#63b8ff" points="557.49,-86.5 547.92,-81.97 552.58,-91.49 557.49,-86.5"/>
</a>
</g>
</g>
<!-- Node142&#45;&gt;Node6 -->
<g id="edge31_Node000142_Node000006" class="edge">
<title>Node142&#45;&gt;Node6</title>
<g id="a_edge31_Node000142_Node000006"><a xlink:title=" ">
<path fill="none" stroke="#63b8ff" d="M561.07,-118.57C519.52,-108.13 447.34,-90.01 404.34,-79.21"/>
<polygon fill="#63b8ff" stroke="#63b8ff" points="405.31,-75.84 394.76,-76.8 403.6,-82.63 405.31,-75.84"/>
</a>
</g>
</g>
<!-- Node142&#45;&gt;Node93 -->
<g id="edge32_Node000142_Node000093" class="edge">
<title>Node142&#45;&gt;Node93</title>
<g id="a_edge32_Node000142_Node000093"><a xlink:title=" ">
<path fill="none" stroke="#63b8ff" d="M603.51,-116.04C610.96,-108.42 621.21,-97.94 630.01,-88.94"/>
<polygon fill="#63b8ff" stroke="#63b8ff" points="632.32,-91.59 636.81,-81.99 627.32,-86.69 632.32,-91.59"/>
</a>
</g>
</g>
<!-- Node83&#45;&gt;Node4 -->
<g id="edge34_Node000083_Node000004" class="edge">
<title>Node83&#45;&gt;Node4</title>
<g id="a_edge34_Node000083_Node000004"><a xlink:title=" ">
<path fill="none" stroke="#63b8ff" d="M432.17,-116.06C432.17,-97.48 432.17,-58.62 432.17,-34.04"/>
<polygon fill="#63b8ff" stroke="#63b8ff" points="435.67,-34.18 432.17,-24.18 428.67,-34.18 435.67,-34.18"/>
</a>
</g>
</g>
<!-- Node83&#45;&gt;Node5 -->
<g id="edge35_Node000083_Node000005" class="edge">
<title>Node83&#45;&gt;Node5</title>
<g id="a_edge35_Node000083_Node000005"><a xlink:title=" ">
<path fill="none" stroke="#63b8ff" d="M451.73,-116.04C467.27,-107.64 489.25,-95.75 506.89,-86.21"/>
<polygon fill="#63b8ff" stroke="#63b8ff" points="508.23,-89.46 515.36,-81.63 504.9,-83.31 508.23,-89.46"/>
</a>
</g>
</g>
<!-- Node83&#45;&gt;Node6 -->
<g id="edge36_Node000083_Node000006" class="edge">
<title>Node83&#45;&gt;Node6</title>
<g id="a_edge36_Node000083_Node000006"><a xlink:title=" ">
<path fill="none" stroke="#63b8ff" d="M420.32,-116.04C411.61,-108.27 399.56,-97.51 389.34,-88.39"/>
<polygon fill="#63b8ff" stroke="#63b8ff" points="391.88,-85.97 382.09,-81.92 387.22,-91.19 391.88,-85.97"/>
</a>
</g>
</g>
<!-- Node165&#45;&gt;Node63 -->
<g id="edge38_Node000165_Node000063" class="edge">
<title>Node165&#45;&gt;Node63</title>
<g id="a_edge38_Node000165_Node000063"><a xlink:title=" ">
<path fill="none" stroke="#63b8ff" d="M807.95,-116.04C801.45,-108.58 792.56,-98.37 784.83,-89.5"/>
<polygon fill="#63b8ff" stroke="#63b8ff" points="787.54,-87.29 778.34,-82.05 782.27,-91.89 787.54,-87.29"/>
</a>
</g>
</g>
<!-- Node175&#45;&gt;Node4 -->
<g id="edge41_Node000175_Node000004" class="edge">
<title>Node175&#45;&gt;Node4</title>
<g id="a_edge41_Node000175_Node000004"><a xlink:title=" ">
<path fill="none" stroke="#63b8ff" d="M313.33,-116.1C315.46,-101.47 321.23,-74.93 336.17,-58.25 350.7,-42.01 372.21,-30.95 391.18,-23.74"/>
<polygon fill="#63b8ff" stroke="#63b8ff" points="392.29,-27.06 400.55,-20.43 389.96,-20.46 392.29,-27.06"/>
</a>
</g>
</g>
<!-- Node175&#45;&gt;Node6 -->
<g id="edge42_Node000175_Node000006" class="edge">
<title>Node175&#45;&gt;Node6</title>
<g id="a_edge42_Node000175_Node000006"><a xlink:title=" ">
<path fill="none" stroke="#63b8ff" d="M322.89,-116.04C330.61,-108.42 341.23,-97.94 350.35,-88.94"/>
<polygon fill="#63b8ff" stroke="#63b8ff" points="352.76,-91.49 357.42,-81.97 347.84,-86.5 352.76,-91.49"/>
</a>
</g>
</g>
<!-- Node181&#45;&gt;Node4 -->
<g id="edge44_Node000181_Node000004" class="edge">
<title>Node181&#45;&gt;Node4</title>
<g id="a_edge44_Node000181_Node000004"><a xlink:title=" ">
<path fill="none" stroke="#63b8ff" d="M672.49,-116.24C684.31,-101.78 701.52,-75.44 687.17,-58.25 660.42,-26.23 538.6,-16.4 473.49,-13.41"/>
<polygon fill="#63b8ff" stroke="#63b8ff" points="473.68,-9.91 463.54,-12.99 473.39,-16.91 473.68,-9.91"/>
</a>
</g>
</g>
<!-- Node181&#45;&gt;Node5 -->
<g id="edge45_Node000181_Node000005" class="edge">
<title>Node181&#45;&gt;Node5</title>
<g id="a_edge45_Node000181_Node000005"><a xlink:title=" ">
<path fill="none" stroke="#63b8ff" d="M643.04,-117.71C623.6,-109.1 593.77,-95.89 570.55,-85.61"/>
<polygon fill="#63b8ff" stroke="#63b8ff" points="572.04,-82.43 561.48,-81.59 569.2,-88.84 572.04,-82.43"/>
</a>
</g>
</g>
<!-- Node181&#45;&gt;Node93 -->
<g id="edge46_Node000181_Node000093" class="edge">
<title>Node181&#45;&gt;Node93</title>
<g id="a_edge46_Node000181_Node000093"><a xlink:title=" ">
<path fill="none" stroke="#63b8ff" d="M660.35,-116.04C658.52,-109.21 656.09,-100.07 653.87,-91.77"/>
<polygon fill="#63b8ff" stroke="#63b8ff" points="657.32,-91.13 651.37,-82.37 650.56,-92.93 657.32,-91.13"/>
</a>
</g>
</g>
</g>
</svg>
