<?xml version="1.0" encoding="UTF-8" standalone="no"?>
<!DOCTYPE svg PUBLIC "-//W3C//DTD SVG 1.1//EN"
 "http://www.w3.org/Graphics/SVG/1.1/DTD/svg11.dtd">
<!-- Generated by graphviz version 2.40.1 (20161225.0304)
 -->
<!-- Title: autocrypt/autocrypt_schema.c Pages: 1 -->
<svg width="388pt" height="151pt"
 viewBox="0.00 0.00 387.50 151.00" xmlns="http://www.w3.org/2000/svg" xmlns:xlink="http://www.w3.org/1999/xlink">
<g id="graph0" class="graph" transform="scale(1 1) rotate(0) translate(4 147)">
<title>autocrypt/autocrypt_schema.c</title>
<polygon fill="#ffffff" stroke="transparent" points="-4,4 -4,-147 383.5,-147 383.5,4 -4,4"/>
<!-- Node0 -->
<g id="node1" class="node">
<title>Node0</title>
<polygon fill="#bfbfbf" stroke="#000000" points="101,-112.5 101,-142.5 214,-142.5 214,-112.5 101,-112.5"/>
<text text-anchor="start" x="109" y="-130.5" font-family="Helvetica,sans-Serif" font-size="10.00" fill="#000000">autocrypt/autocrypt</text>
<text text-anchor="middle" x="157.5" y="-119.5" font-family="Helvetica,sans-Serif" font-size="10.00" fill="#000000">_schema.c</text>
</g>
<!-- Node1 -->
<g id="node2" class="node">
<title>Node1</title>
<polygon fill="#ffffff" stroke="#bfbfbf" points="0,-56.5 0,-75.5 55,-75.5 55,-56.5 0,-56.5"/>
<text text-anchor="middle" x="27.5" y="-63.5" font-family="Helvetica,sans-Serif" font-size="10.00" fill="#000000">config.h</text>
</g>
<!-- Node0&#45;&gt;Node1 -->
<g id="edge1" class="edge">
<title>Node0&#45;&gt;Node1</title>
<path fill="none" stroke="#191970" d="M125.6984,-112.4554C104.6735,-102.509 77.3141,-89.5659 56.8157,-79.8686"/>
<polygon fill="#191970" stroke="#191970" points="58.1816,-76.6429 47.6454,-75.5303 55.1881,-82.9706 58.1816,-76.6429"/>
</g>
<!-- Node2 -->
<g id="node3" class="node">
<title>Node2</title>
<polygon fill="#ffffff" stroke="#bfbfbf" points="73.5,-56.5 73.5,-75.5 129.5,-75.5 129.5,-56.5 73.5,-56.5"/>
<text text-anchor="middle" x="101.5" y="-63.5" font-family="Helvetica,sans-Serif" font-size="10.00" fill="#000000">stddef.h</text>
</g>
<!-- Node0&#45;&gt;Node2 -->
<g id="edge2" class="edge">
<title>Node0&#45;&gt;Node2</title>
<path fill="none" stroke="#191970" d="M143.6573,-112.2977C135.641,-103.4941 125.5238,-92.3833 117.21,-83.2529"/>
<polygon fill="#191970" stroke="#191970" points="119.7869,-80.8845 110.4663,-75.8469 114.6112,-85.5974 119.7869,-80.8845"/>
</g>
<!-- Node3 -->
<g id="node4" class="node">
<title>Node3</title>
<polygon fill="#ffffff" stroke="#bfbfbf" points="170,-.5 170,-19.5 229,-19.5 229,-.5 170,-.5"/>
<text text-anchor="middle" x="199.5" y="-7.5" font-family="Helvetica,sans-Serif" font-size="10.00" fill="#000000">sqlite3.h</text>
</g>
<!-- Node0&#45;&gt;Node3 -->
<g id="edge3" class="edge">
<title>Node0&#45;&gt;Node3</title>
<path fill="none" stroke="#191970" d="M160.5643,-112.4328C163.7646,-97.7678 169.319,-74.9805 176.5,-56 180.0041,-46.7382 184.7888,-36.8677 189.0869,-28.6543"/>
<polygon fill="#191970" stroke="#191970" points="192.2989,-30.0722 193.9695,-19.6099 186.1391,-26.7469 192.2989,-30.0722"/>
</g>
<!-- Node4 -->
<g id="node5" class="node">
<title>Node4</title>
<g id="a_node5"><a xlink:href="autocrypt__private_8h.html" target="_top" xlink:title="Shared constants/structs that are private to Autocrypt. ">
<polygon fill="#ffffff" stroke="#ff0000" points="185.5,-56.5 185.5,-75.5 297.5,-75.5 297.5,-56.5 185.5,-56.5"/>
<text text-anchor="middle" x="241.5" y="-63.5" font-family="Helvetica,sans-Serif" font-size="10.00" fill="#000000">autocrypt_private.h</text>
</a>
</g>
</g>
<!-- Node0&#45;&gt;Node4 -->
<g id="edge4" class="edge">
<title>Node0&#45;&gt;Node4</title>
<path fill="none" stroke="#191970" d="M178.2641,-112.2977C190.8958,-103.0495 207.0053,-91.2551 219.8031,-81.8853"/>
<polygon fill="#191970" stroke="#191970" points="222.0495,-84.5784 228.0505,-75.8469 217.9143,-78.9303 222.0495,-84.5784"/>
</g>
<!-- Node6 -->
<g id="node6" class="node">
<title>Node6</title>
<g id="a_node6"><a xlink:href="mutt_2lib_8h.html" target="_top" xlink:title="Convenience wrapper for the library headers. ">
<polygon fill="#ffffff" stroke="#ff0000" points="315.5,-56.5 315.5,-75.5 379.5,-75.5 379.5,-56.5 315.5,-56.5"/>
<text text-anchor="middle" x="347.5" y="-63.5" font-family="Helvetica,sans-Serif" font-size="10.00" fill="#000000">mutt/lib.h</text>
</a>
</g>
</g>
<!-- Node0&#45;&gt;Node6 -->
<g id="edge6" class="edge">
<title>Node0&#45;&gt;Node6</title>
<path fill="none" stroke="#191970" d="M203.9792,-112.4554C235.9593,-102.104 277.9671,-88.5067 308.2629,-78.7004"/>
<polygon fill="#191970" stroke="#191970" points="309.6206,-81.9398 318.0567,-75.5303 307.4649,-75.28 309.6206,-81.9398"/>
</g>
<!-- Node4&#45;&gt;Node3 -->
<g id="edge5" class="edge">
<title>Node4&#45;&gt;Node3</title>
<path fill="none" stroke="#191970" d="M234.1842,-56.2455C228.2821,-48.3761 219.8258,-37.101 212.7406,-27.6542"/>
<polygon fill="#191970" stroke="#191970" points="215.5321,-25.5427 206.732,-19.6427 209.932,-29.7427 215.5321,-25.5427"/>
</g>
</g>
</svg>
