<?xml version="1.0" encoding="UTF-8" standalone="no"?>
<!DOCTYPE svg PUBLIC "-//W3C//DTD SVG 1.1//EN"
 "http://www.w3.org/Graphics/SVG/1.1/DTD/svg11.dtd">
<!-- Generated by graphviz version 2.40.1 (20161225.0304)
 -->
<!-- Title: mutt_autocrypt_init Pages: 1 -->
<svg width="351pt" height="400pt"
 viewBox="0.00 0.00 351.00 400.00" xmlns="http://www.w3.org/2000/svg" xmlns:xlink="http://www.w3.org/1999/xlink">
<g id="graph0" class="graph" transform="scale(1 1) rotate(0) translate(4 396)">
<title>mutt_autocrypt_init</title>
<polygon fill="#ffffff" stroke="transparent" points="-4,4 -4,-396 347,-396 347,4 -4,4"/>
<!-- Node4208 -->
<g id="node1" class="node">
<title>Node4208</title>
<polygon fill="#bfbfbf" stroke="#000000" points="0,-191.5 0,-210.5 113,-210.5 113,-191.5 0,-191.5"/>
<text text-anchor="middle" x="56.5" y="-198.5" font-family="Helvetica,sans-Serif" font-size="10.00" fill="#000000">mutt_autocrypt_init</text>
</g>
<!-- Node4209 -->
<g id="node2" class="node">
<title>Node4209</title>
<g id="a_node2"><a xlink:href="autocrypt_2lib_8h.html#afbca1fbf67704f11381810633bc8de34" target="_top" xlink:title="Display the Autocrypt account Menu. ">
<polygon fill="#ffffff" stroke="#ff0000" points="162,-372.5 162,-391.5 330,-391.5 330,-372.5 162,-372.5"/>
<text text-anchor="middle" x="246" y="-379.5" font-family="Helvetica,sans-Serif" font-size="10.00" fill="#000000">mutt_autocrypt_account_menu</text>
</a>
</g>
</g>
<!-- Node4208&#45;&gt;Node4209 -->
<g id="edge1" class="edge">
<title>Node4208&#45;&gt;Node4209</title>
<path fill="none" stroke="#191970" d="M61.7424,-220.3792C72.1626,-254.9595 98.9111,-327.0361 149,-363 154.297,-366.8032 160.1587,-369.896 166.3007,-372.4055"/>
<polygon fill="#191970" stroke="#191970" points="65.0477,-219.2085 58.9241,-210.5626 58.3195,-221.1402 65.0477,-219.2085"/>
</g>
<!-- Node4295 -->
<g id="node3" class="node">
<title>Node4295</title>
<g id="a_node3"><a xlink:href="email_2common_8h.html#a0477a928cf8c6b79a25b42e63f4647b8" target="_top" xlink:title="Parse an Autocrypt email header. ">
<polygon fill="#ffffff" stroke="#ff0000" points="179,-323 179,-353 313,-353 313,-323 179,-323"/>
<text text-anchor="start" x="187" y="-341" font-family="Helvetica,sans-Serif" font-size="10.00" fill="#000000">mutt_autocrypt_process</text>
<text text-anchor="middle" x="246" y="-330" font-family="Helvetica,sans-Serif" font-size="10.00" fill="#000000">_autocrypt_header</text>
</a>
</g>
</g>
<!-- Node4208&#45;&gt;Node4295 -->
<g id="edge2" class="edge">
<title>Node4208&#45;&gt;Node4295</title>
<path fill="none" stroke="#191970" d="M66.5421,-219.6003C81.2206,-244.9573 110.9728,-289.963 149,-314 158.0918,-319.7469 168.4692,-324.1179 178.9764,-327.4423"/>
<polygon fill="#191970" stroke="#191970" points="69.4569,-217.6424 61.5094,-210.636 63.353,-221.0692 69.4569,-217.6424"/>
</g>
<!-- Node4662 -->
<g id="node4" class="node">
<title>Node4662</title>
<g id="a_node4"><a xlink:href="autocrypt_2lib_8h.html#af4b307317d8b6fba7c6321e93fc21194" target="_top" xlink:title="Parse an Autocrypt email gossip header. ">
<polygon fill="#ffffff" stroke="#ff0000" points="179,-274 179,-304 313,-304 313,-274 179,-274"/>
<text text-anchor="start" x="187" y="-292" font-family="Helvetica,sans-Serif" font-size="10.00" fill="#000000">mutt_autocrypt_process</text>
<text text-anchor="middle" x="246" y="-281" font-family="Helvetica,sans-Serif" font-size="10.00" fill="#000000">_gossip_header</text>
</a>
</g>
</g>
<!-- Node4208&#45;&gt;Node4662 -->
<g id="edge3" class="edge">
<title>Node4208&#45;&gt;Node4662</title>
<path fill="none" stroke="#191970" d="M75.63,-216.9675C93.5547,-231.1872 121.6191,-251.6053 149,-264 158.4266,-268.2672 168.7112,-271.9013 178.9457,-274.9661"/>
<polygon fill="#191970" stroke="#191970" points="77.6687,-214.1149 67.6926,-210.5472 73.2664,-219.5574 77.6687,-214.1149"/>
</g>
<!-- Node4664 -->
<g id="node5" class="node">
<title>Node4664</title>
<g id="a_node5"><a xlink:href="autocrypt_2lib_8h.html#aa4a3f8e9aa1ff62c878f2622f1c55ba5" target="_top" xlink:title="Get the recommended action for an Email. ">
<polygon fill="#ffffff" stroke="#ff0000" points="149,-235.5 149,-254.5 343,-254.5 343,-235.5 149,-235.5"/>
<text text-anchor="middle" x="246" y="-242.5" font-family="Helvetica,sans-Serif" font-size="10.00" fill="#000000">mutt_autocrypt_ui_recommendation</text>
</a>
</g>
</g>
<!-- Node4208&#45;&gt;Node4664 -->
<g id="edge4" class="edge">
<title>Node4208&#45;&gt;Node4664</title>
<path fill="none" stroke="#191970" d="M99.598,-213.3249C115.1117,-217.5818 132.7853,-222.2257 149,-226 163.4572,-229.3652 179.219,-232.6254 193.7531,-235.4675"/>
<polygon fill="#191970" stroke="#191970" points="100.3238,-209.8941 89.7523,-210.5964 98.4544,-216.6399 100.3238,-209.8941"/>
</g>
<!-- Node4665 -->
<g id="node6" class="node">
<title>Node4665</title>
<g id="a_node6"><a xlink:href="autocrypt_2lib_8h.html#ae4aac04801499d414565c58f9f5ac6f6" target="_top" xlink:title="Set the Autocrypt default key for signing. ">
<polygon fill="#ffffff" stroke="#ff0000" points="185,-186 185,-216 307,-216 307,-186 185,-186"/>
<text text-anchor="start" x="193" y="-204" font-family="Helvetica,sans-Serif" font-size="10.00" fill="#000000">mutt_autocrypt_set</text>
<text text-anchor="middle" x="246" y="-193" font-family="Helvetica,sans-Serif" font-size="10.00" fill="#000000">_sign_as_default_key</text>
</a>
</g>
</g>
<!-- Node4208&#45;&gt;Node4665 -->
<g id="edge5" class="edge">
<title>Node4208&#45;&gt;Node4665</title>
<path fill="none" stroke="#191970" d="M123.3608,-201C143.3405,-201 165.1365,-201 184.738,-201"/>
<polygon fill="#191970" stroke="#191970" points="123.0996,-197.5001 113.0996,-201 123.0995,-204.5001 123.0996,-197.5001"/>
</g>
<!-- Node4666 -->
<g id="node7" class="node">
<title>Node4666</title>
<g id="a_node7"><a xlink:href="autocrypt_2lib_8h.html#adba267f8e040ccf88d4c556c6c9e7868" target="_top" xlink:title="Write the Autocrypt header to a file. ">
<polygon fill="#ffffff" stroke="#ff0000" points="185,-137 185,-167 307,-167 307,-137 185,-137"/>
<text text-anchor="start" x="193" y="-155" font-family="Helvetica,sans-Serif" font-size="10.00" fill="#000000">mutt_autocrypt_write</text>
<text text-anchor="middle" x="246" y="-144" font-family="Helvetica,sans-Serif" font-size="10.00" fill="#000000">_autocrypt_header</text>
</a>
</g>
</g>
<!-- Node4208&#45;&gt;Node4666 -->
<g id="edge6" class="edge">
<title>Node4208&#45;&gt;Node4666</title>
<path fill="none" stroke="#191970" d="M103.2566,-188.8528C117.9012,-185.0525 134.1222,-180.8473 149,-177 161.4592,-173.7781 174.8205,-170.3299 187.5212,-167.0555"/>
<polygon fill="#191970" stroke="#191970" points="102.2057,-185.5096 93.4058,-191.4098 103.9644,-192.285 102.2057,-185.5096"/>
</g>
<!-- Node4673 -->
<g id="node8" class="node">
<title>Node4673</title>
<g id="a_node8"><a xlink:href="autocrypt_2lib_8h.html#a7babe74e49d7b8a73e9f72093d622e66" target="_top" xlink:title="Write the Autocrypt gossip headers to a file. ">
<polygon fill="#ffffff" stroke="#ff0000" points="185,-88 185,-118 307,-118 307,-88 185,-88"/>
<text text-anchor="start" x="193" y="-106" font-family="Helvetica,sans-Serif" font-size="10.00" fill="#000000">mutt_autocrypt_write</text>
<text text-anchor="middle" x="246" y="-95" font-family="Helvetica,sans-Serif" font-size="10.00" fill="#000000">_gossip_headers</text>
</a>
</g>
</g>
<!-- Node4208&#45;&gt;Node4673 -->
<g id="edge7" class="edge">
<title>Node4208&#45;&gt;Node4673</title>
<path fill="none" stroke="#191970" d="M73.4464,-183.9863C90.9281,-167.3695 119.7015,-142.5224 149,-128 160.1408,-122.4778 172.625,-118.0902 184.8333,-114.634"/>
<polygon fill="#191970" stroke="#191970" points="70.5495,-181.9211 65.8188,-191.4011 75.4288,-186.9404 70.5495,-181.9211"/>
</g>
<!-- Node4674 -->
<g id="node9" class="node">
<title>Node4674</title>
<g id="a_node9"><a xlink:href="autocrypt_2lib_8h.html#a30461121efab5b3f112767d63191c507" target="_top" xlink:title="Create the gossip list headers. ">
<polygon fill="#ffffff" stroke="#ff0000" points="176,-39 176,-69 316,-69 316,-39 176,-39"/>
<text text-anchor="start" x="184" y="-57" font-family="Helvetica,sans-Serif" font-size="10.00" fill="#000000">mutt_autocrypt_generate</text>
<text text-anchor="middle" x="246" y="-46" font-family="Helvetica,sans-Serif" font-size="10.00" fill="#000000">_gossip_list</text>
</a>
</g>
</g>
<!-- Node4208&#45;&gt;Node4674 -->
<g id="edge8" class="edge">
<title>Node4208&#45;&gt;Node4674</title>
<path fill="none" stroke="#191970" d="M65.5844,-182.1369C79.6182,-155.0548 109.1677,-105.5062 149,-79 157.1801,-73.5566 166.4743,-69.2982 175.9924,-65.9669"/>
<polygon fill="#191970" stroke="#191970" points="62.3324,-180.8138 60.9763,-191.3215 68.5891,-183.9529 62.3324,-180.8138"/>
</g>
<!-- Node4213 -->
<g id="node10" class="node">
<title>Node4213</title>
<g id="a_node10"><a xlink:href="main_8c.html#adedb285b02c41bde2158ded9cc9fd7ac" target="_top" xlink:title="Start NeoMutt. ">
<polygon fill="#ffffff" stroke="#000000" points="225.5,-.5 225.5,-19.5 266.5,-19.5 266.5,-.5 225.5,-.5"/>
<text text-anchor="middle" x="246" y="-7.5" font-family="Helvetica,sans-Serif" font-size="10.00" fill="#000000">main</text>
</a>
</g>
</g>
<!-- Node4208&#45;&gt;Node4213 -->
<g id="edge9" class="edge">
<title>Node4208&#45;&gt;Node4213</title>
<path fill="none" stroke="#191970" d="M61.1816,-181.5996C70.9283,-145.6158 96.9529,-68.6816 149,-30 171.3568,-13.3843 204.2621,-9.7888 225.4126,-9.3886"/>
<polygon fill="#191970" stroke="#191970" points="57.7714,-180.8079 58.6686,-191.3646 64.5505,-182.5525 57.7714,-180.8079"/>
</g>
</g>
</svg>
