<?xml version="1.0" encoding="UTF-8" standalone="no"?>
<!DOCTYPE svg PUBLIC "-//W3C//DTD SVG 1.1//EN"
 "http://www.w3.org/Graphics/SVG/1.1/DTD/svg11.dtd">
<!-- Generated by graphviz version 2.44.0 (0)
 -->
<!-- Title: autocrypt/db.c Pages: 1 -->
<svg width="616pt" height="140pt"
 viewBox="0.00 0.00 615.50 140.00" xmlns="http://www.w3.org/2000/svg" xmlns:xlink="http://www.w3.org/1999/xlink">
<g id="graph0" class="graph" transform="scale(1 1) rotate(0) translate(4 136)">
<title>autocrypt/db.c</title>
<polygon fill="white" stroke="transparent" points="-4,4 -4,-136 611.5,-136 611.5,4 -4,4"/>
<!-- Node1 -->
<g id="node1" class="node">
<title>Node1</title>
<g id="a_node1"><a xlink:title=" ">
<polygon fill="#bfbfbf" stroke="black" points="260.5,-112.5 260.5,-131.5 340.5,-131.5 340.5,-112.5 260.5,-112.5"/>
<text text-anchor="middle" x="300.5" y="-119.5" font-family="Helvetica" font-size="10.00">autocrypt/db.c</text>
</a>
</g>
</g>
<!-- Node2 -->
<g id="node2" class="node">
<title>Node2</title>
<g id="a_node2"><a xlink:title=" ">
<polygon fill="white" stroke="#bfbfbf" points="0,-56.5 0,-75.5 51,-75.5 51,-56.5 0,-56.5"/>
<text text-anchor="middle" x="25.5" y="-63.5" font-family="Helvetica" font-size="10.00">config.h</text>
</a>
</g>
</g>
<!-- Node1&#45;&gt;Node2 -->
<g id="edge1" class="edge">
<title>Node1&#45;&gt;Node2</title>
<path fill="none" stroke="midnightblue" d="M260.23,-114.42C214.29,-106.71 136.7,-93.05 61.22,-76.27"/>
<polygon fill="midnightblue" stroke="midnightblue" points="61.59,-72.76 51.07,-73.99 60.06,-79.59 61.59,-72.76"/>
</g>
<!-- Node3 -->
<g id="node3" class="node">
<title>Node3</title>
<g id="a_node3"><a xlink:title=" ">
<polygon fill="white" stroke="#bfbfbf" points="69,-56.5 69,-75.5 120,-75.5 120,-56.5 69,-56.5"/>
<text text-anchor="middle" x="94.5" y="-63.5" font-family="Helvetica" font-size="10.00">stddef.h</text>
</a>
</g>
</g>
<!-- Node1&#45;&gt;Node3 -->
<g id="edge2" class="edge">
<title>Node1&#45;&gt;Node3</title>
<path fill="none" stroke="midnightblue" d="M267.86,-112.44C230.26,-102.59 168.71,-86.45 129.96,-76.3"/>
<polygon fill="midnightblue" stroke="midnightblue" points="130.72,-72.88 120.15,-73.73 128.94,-79.65 130.72,-72.88"/>
</g>
<!-- Node4 -->
<g id="node4" class="node">
<title>Node4</title>
<g id="a_node4"><a xlink:title=" ">
<polygon fill="white" stroke="#bfbfbf" points="190,-0.5 190,-19.5 243,-19.5 243,-0.5 190,-0.5"/>
<text text-anchor="middle" x="216.5" y="-7.5" font-family="Helvetica" font-size="10.00">sqlite3.h</text>
</a>
</g>
</g>
<!-- Node1&#45;&gt;Node4 -->
<g id="edge3" class="edge">
<title>Node1&#45;&gt;Node4</title>
<path fill="none" stroke="midnightblue" d="M260.35,-119.21C229.66,-115.49 189.21,-104.94 168.5,-76 155.94,-58.45 175.81,-38.52 193.66,-25.41"/>
<polygon fill="midnightblue" stroke="midnightblue" points="195.89,-28.13 202.12,-19.56 191.9,-22.37 195.89,-28.13"/>
</g>
<!-- Node5 -->
<g id="node5" class="node">
<title>Node5</title>
<g id="a_node5"><a xlink:title=" ">
<polygon fill="white" stroke="#bfbfbf" points="272.5,-0.5 272.5,-19.5 328.5,-19.5 328.5,-0.5 272.5,-0.5"/>
<text text-anchor="middle" x="300.5" y="-7.5" font-family="Helvetica" font-size="10.00">stdbool.h</text>
</a>
</g>
</g>
<!-- Node1&#45;&gt;Node5 -->
<g id="edge4" class="edge">
<title>Node1&#45;&gt;Node5</title>
<path fill="none" stroke="midnightblue" d="M310.66,-112.19C319.41,-103.87 331.4,-90.54 336.5,-76 342.72,-58.26 330.19,-39.65 318.24,-26.91"/>
<polygon fill="midnightblue" stroke="midnightblue" points="320.62,-24.34 311.05,-19.8 315.7,-29.32 320.62,-24.34"/>
</g>
<!-- Node6 -->
<g id="node6" class="node">
<title>Node6</title>
<g id="a_node6"><a xlink:title=" ">
<polygon fill="white" stroke="#bfbfbf" points="383.5,-56.5 383.5,-75.5 441.5,-75.5 441.5,-56.5 383.5,-56.5"/>
<text text-anchor="middle" x="412.5" y="-63.5" font-family="Helvetica" font-size="10.00">sys/stat.h</text>
</a>
</g>
</g>
<!-- Node1&#45;&gt;Node6 -->
<g id="edge5" class="edge">
<title>Node1&#45;&gt;Node6</title>
<path fill="none" stroke="midnightblue" d="M318.49,-112.32C336.54,-103.62 364.55,-90.12 385.3,-80.11"/>
<polygon fill="midnightblue" stroke="midnightblue" points="387.06,-83.15 394.55,-75.65 384.02,-76.84 387.06,-83.15"/>
</g>
<!-- Node7 -->
<g id="node7" class="node">
<title>Node7</title>
<g id="a_node7"><a xlink:href="autocrypt_2private_8h.html" target="_top" xlink:title=" ">
<polygon fill="white" stroke="black" points="274,-56.5 274,-75.5 327,-75.5 327,-56.5 274,-56.5"/>
<text text-anchor="middle" x="300.5" y="-63.5" font-family="Helvetica" font-size="10.00">private.h</text>
</a>
</g>
</g>
<!-- Node1&#45;&gt;Node7 -->
<g id="edge6" class="edge">
<title>Node1&#45;&gt;Node7</title>
<path fill="none" stroke="midnightblue" d="M300.5,-112.08C300.5,-105.01 300.5,-94.86 300.5,-85.99"/>
<polygon fill="midnightblue" stroke="midnightblue" points="304,-85.75 300.5,-75.75 297,-85.75 304,-85.75"/>
</g>
<!-- Node8 -->
<g id="node8" class="node">
<title>Node8</title>
<g id="a_node8"><a xlink:href="mutt_2lib_8h.html" target="_top" xlink:title=" ">
<polygon fill="white" stroke="red" points="460,-56.5 460,-75.5 517,-75.5 517,-56.5 460,-56.5"/>
<text text-anchor="middle" x="488.5" y="-63.5" font-family="Helvetica" font-size="10.00">mutt/lib.h</text>
</a>
</g>
</g>
<!-- Node1&#45;&gt;Node8 -->
<g id="edge9" class="edge">
<title>Node1&#45;&gt;Node8</title>
<path fill="none" stroke="midnightblue" d="M330.29,-112.44C362.61,-103.16 414.34,-88.3 449.79,-78.12"/>
<polygon fill="midnightblue" stroke="midnightblue" points="451.13,-81.38 459.78,-75.25 449.2,-74.65 451.13,-81.38"/>
</g>
<!-- Node51 -->
<g id="node9" class="node">
<title>Node51</title>
<g id="a_node9"><a xlink:href="address_2lib_8h.html" target="_top" xlink:title=" ">
<polygon fill="white" stroke="red" points="535.5,-56.5 535.5,-75.5 607.5,-75.5 607.5,-56.5 535.5,-56.5"/>
<text text-anchor="middle" x="571.5" y="-63.5" font-family="Helvetica" font-size="10.00">address/lib.h</text>
</a>
</g>
</g>
<!-- Node1&#45;&gt;Node51 -->
<g id="edge10" class="edge">
<title>Node1&#45;&gt;Node51</title>
<path fill="none" stroke="midnightblue" d="M340.51,-113.04C383.65,-104.46 454.63,-90.34 525.2,-76.26"/>
<polygon fill="midnightblue" stroke="midnightblue" points="526.03,-79.66 535.15,-74.27 524.66,-72.8 526.03,-79.66"/>
</g>
<!-- Node55 -->
<g id="node10" class="node">
<title>Node55</title>
<g id="a_node10"><a xlink:href="autocrypt_2lib_8h.html" target="_top" xlink:title=" ">
<polygon fill="white" stroke="red" points="177,-56.5 177,-75.5 256,-75.5 256,-56.5 177,-56.5"/>
<text text-anchor="middle" x="216.5" y="-63.5" font-family="Helvetica" font-size="10.00">autocrypt/lib.h</text>
</a>
</g>
</g>
<!-- Node1&#45;&gt;Node55 -->
<g id="edge11" class="edge">
<title>Node1&#45;&gt;Node55</title>
<path fill="none" stroke="midnightblue" d="M287,-112.32C273.9,-103.9 253.79,-90.97 238.39,-81.07"/>
<polygon fill="midnightblue" stroke="midnightblue" points="240.27,-78.12 229.96,-75.65 236.48,-84.01 240.27,-78.12"/>
</g>
<!-- Node7&#45;&gt;Node4 -->
<g id="edge7" class="edge">
<title>Node7&#45;&gt;Node4</title>
<path fill="none" stroke="midnightblue" d="M287,-56.32C273.9,-47.9 253.79,-34.97 238.39,-25.07"/>
<polygon fill="midnightblue" stroke="midnightblue" points="240.27,-22.12 229.96,-19.65 236.48,-28.01 240.27,-22.12"/>
</g>
<!-- Node7&#45;&gt;Node5 -->
<g id="edge8" class="edge">
<title>Node7&#45;&gt;Node5</title>
<path fill="none" stroke="midnightblue" d="M300.5,-56.08C300.5,-49.01 300.5,-38.86 300.5,-29.99"/>
<polygon fill="midnightblue" stroke="midnightblue" points="304,-29.75 300.5,-19.75 297,-29.75 304,-29.75"/>
</g>
<!-- Node55&#45;&gt;Node4 -->
<g id="edge13" class="edge">
<title>Node55&#45;&gt;Node4</title>
<path fill="none" stroke="midnightblue" d="M216.5,-56.08C216.5,-49.01 216.5,-38.86 216.5,-29.99"/>
<polygon fill="midnightblue" stroke="midnightblue" points="220,-29.75 216.5,-19.75 213,-29.75 220,-29.75"/>
</g>
<!-- Node55&#45;&gt;Node5 -->
<g id="edge12" class="edge">
<title>Node55&#45;&gt;Node5</title>
<path fill="none" stroke="midnightblue" d="M230,-56.32C243.1,-47.9 263.21,-34.97 278.61,-25.07"/>
<polygon fill="midnightblue" stroke="midnightblue" points="280.52,-28.01 287.04,-19.65 276.73,-22.12 280.52,-28.01"/>
</g>
</g>
</svg>
