<?xml version="1.0" encoding="UTF-8" standalone="no"?>
<!DOCTYPE svg PUBLIC "-//W3C//DTD SVG 1.1//EN"
 "http://www.w3.org/Graphics/SVG/1.1/DTD/svg11.dtd">
<!-- Generated by graphviz version 2.40.1 (20161225.0304)
 -->
<!-- Title: mutt_autocrypt_db_account_update Pages: 1 -->
<svg width="320pt" height="66pt"
 viewBox="0.00 0.00 320.00 66.00" xmlns="http://www.w3.org/2000/svg" xmlns:xlink="http://www.w3.org/1999/xlink">
<g id="graph0" class="graph" transform="scale(1 1) rotate(0) translate(4 62)">
<title>mutt_autocrypt_db_account_update</title>
<polygon fill="#ffffff" stroke="transparent" points="-4,4 -4,-62 316,-62 316,4 -4,4"/>
<!-- Node7656 -->
<g id="node1" class="node">
<title>Node7656</title>
<polygon fill="#bfbfbf" stroke="#000000" points="0,-14 0,-44 152,-44 152,-14 0,-14"/>
<text text-anchor="start" x="8" y="-32" font-family="Helvetica,sans-Serif" font-size="10.00" fill="#000000">mutt_autocrypt_db_account</text>
<text text-anchor="middle" x="76" y="-21" font-family="Helvetica,sans-Serif" font-size="10.00" fill="#000000">_update</text>
</g>
<!-- Node7657 -->
<g id="node2" class="node">
<title>Node7657</title>
<g id="a_node2"><a xlink:href="dlgautocrypt_8c.html#a1457d95507bf4ee7a4bd4a15e3545f32" target="_top" xlink:title="Toggle whether an Autocrypt account is active. ">
<polygon fill="#ffffff" stroke="#ff0000" points="208.5,-38.5 208.5,-57.5 291.5,-57.5 291.5,-38.5 208.5,-38.5"/>
<text text-anchor="middle" x="250" y="-45.5" font-family="Helvetica,sans-Serif" font-size="10.00" fill="#000000">toggle_active</text>
</a>
</g>
</g>
<!-- Node7656&#45;&gt;Node7657 -->
<g id="edge1" class="edge">
<title>Node7656&#45;&gt;Node7657</title>
<path fill="none" stroke="#191970" d="M162.0124,-38.3922C178.0276,-40.1409 194.0874,-41.8946 208.0207,-43.4161"/>
<polygon fill="#191970" stroke="#191970" points="162.3867,-34.9123 152.0658,-37.306 161.6268,-41.8709 162.3867,-34.9123"/>
</g>
<!-- Node8153 -->
<g id="node3" class="node">
<title>Node8153</title>
<g id="a_node3"><a xlink:href="dlgautocrypt_8c.html#afb946e389ae112c24e849bd35daa43f3" target="_top" xlink:title="Toggle whether an Autocrypt account prefers encryption. ">
<polygon fill="#ffffff" stroke="#ff0000" points="188,-.5 188,-19.5 312,-19.5 312,-.5 188,-.5"/>
<text text-anchor="middle" x="250" y="-7.5" font-family="Helvetica,sans-Serif" font-size="10.00" fill="#000000">toggle_prefer_encrypt</text>
</a>
</g>
</g>
<!-- Node7656&#45;&gt;Node8153 -->
<g id="edge2" class="edge">
<title>Node7656&#45;&gt;Node8153</title>
<path fill="none" stroke="#191970" d="M162.2196,-19.5852C170.8907,-18.6384 179.5722,-17.6904 187.9194,-16.7789"/>
<polygon fill="#191970" stroke="#191970" points="161.6268,-16.1291 152.0658,-20.694 162.3867,-23.0877 161.6268,-16.1291"/>
</g>
</g>
</svg>
