<?xml version="1.0" encoding="UTF-8" standalone="no"?>
<!DOCTYPE svg PUBLIC "-//W3C//DTD SVG 1.1//EN"
 "http://www.w3.org/Graphics/SVG/1.1/DTD/svg11.dtd">
<!-- Generated by graphviz version 12.2.1 (20241206.2353)
 -->
<!-- Title: mutt_autocrypt_process_autocrypt_header Pages: 1 -->
<svg width="518pt" height="826pt"
 viewBox="0.00 0.00 518.00 825.76" xmlns="http://www.w3.org/2000/svg" xmlns:xlink="http://www.w3.org/1999/xlink">
<g id="graph0" class="graph" transform="scale(1 1) rotate(0) translate(4 821.76)">
<title>mutt_autocrypt_process_autocrypt_header</title>
<!-- Node1 -->
<g id="Node000001" class="node">
<title>Node1</title>
<g id="a_Node000001"><a xlink:title="Parse an Autocrypt email header.">
<polygon fill="#999999" stroke="#666666" points="127.75,-430.38 0,-430.38 0,-393.88 127.75,-393.88 127.75,-430.38"/>
<text text-anchor="start" x="8" y="-416.88" font-family="Helvetica,sans-Serif" font-size="10.00">mutt_autocrypt_process</text>
<text text-anchor="middle" x="63.88" y="-402.62" font-family="Helvetica,sans-Serif" font-size="10.00">_autocrypt_header</text>
</a>
</g>
</g>
<!-- Node2 -->
<g id="Node000002" class="node">
<title>Node2</title>
<g id="a_Node000002"><a xlink:href="pool_8c.html#a41cba27c25d33cb6822789a2856093f2" target="_top" xlink:title="Get a Buffer from the pool.">
<polygon fill="#fff0f0" stroke="red" points="471,-807.25 394.25,-807.25 394.25,-785 471,-785 471,-807.25"/>
<text text-anchor="middle" x="432.62" y="-793.75" font-family="Helvetica,sans-Serif" font-size="10.00">buf_pool_get</text>
</a>
</g>
</g>
<!-- Node1&#45;&gt;Node2 -->
<g id="edge1_Node000001_Node000002" class="edge">
<title>Node1&#45;&gt;Node2</title>
<g id="a_edge1_Node000001_Node000002"><a xlink:title=" ">
<path fill="none" stroke="#63b8ff" d="M67.04,-430.45C75.43,-498.14 108.16,-732.52 163.75,-778.12 225.24,-828.57 323.76,-819.76 382.63,-808.28"/>
<polygon fill="#63b8ff" stroke="#63b8ff" points="383.29,-811.72 392.37,-806.28 381.87,-804.87 383.29,-811.72"/>
</a>
</g>
</g>
<!-- Node10 -->
<g id="Node000010" class="node">
<title>Node10</title>
<g id="a_Node000010"><a xlink:href="pool_8c.html#a4cc6068279461cb8628219586dfa35a1" target="_top" xlink:title="Return a Buffer to the pool.">
<polygon fill="#fff0f0" stroke="red" points="480,-745.25 385.25,-745.25 385.25,-723 480,-723 480,-745.25"/>
<text text-anchor="middle" x="432.62" y="-731.75" font-family="Helvetica,sans-Serif" font-size="10.00">buf_pool_release</text>
</a>
</g>
</g>
<!-- Node1&#45;&gt;Node10 -->
<g id="edge2_Node000001_Node000010" class="edge">
<title>Node1&#45;&gt;Node10</title>
<g id="a_edge2_Node000001_Node000010"><a xlink:title=" ">
<path fill="none" stroke="#63b8ff" d="M67.36,-430.5C76.53,-495.14 110.66,-710.34 163.75,-750.12 231.91,-801.2 339.32,-771.17 395.17,-749.82"/>
<polygon fill="#63b8ff" stroke="#63b8ff" points="396.2,-753.18 404.22,-746.25 393.63,-746.67 396.2,-753.18"/>
</a>
</g>
</g>
<!-- Node15 -->
<g id="Node000015" class="node">
<title>Node15</title>
<g id="a_Node000015"><a xlink:href="buffer_8h.html#a728ebc5a947b77c8d56db44ce553a7ab" target="_top" xlink:title="Convert a buffer to a const char * &quot;string&quot;.">
<polygon fill="white" stroke="#666666" points="464.25,-642.25 401,-642.25 401,-620 464.25,-620 464.25,-642.25"/>
<text text-anchor="middle" x="432.62" y="-628.75" font-family="Helvetica,sans-Serif" font-size="10.00">buf_string</text>
</a>
</g>
</g>
<!-- Node1&#45;&gt;Node15 -->
<g id="edge3_Node000001_Node000015" class="edge">
<title>Node1&#45;&gt;Node15</title>
<g id="a_edge3_Node000001_Node000015"><a xlink:title=" ">
<path fill="none" stroke="#63b8ff" d="M65.73,-430.54C69.04,-478.1 85.19,-605.03 163.75,-658.12 235.49,-706.61 343.66,-670.79 397.98,-647.29"/>
<polygon fill="#63b8ff" stroke="#63b8ff" points="399.32,-650.52 407.03,-643.25 396.47,-644.13 399.32,-650.52"/>
</a>
</g>
</g>
<!-- Node16 -->
<g id="Node000016" class="node">
<title>Node16</title>
<g id="a_Node000016"><a xlink:href="config_2helpers_8c.html#ae50f679dd6c5bd1ba820884c8602f038" target="_top" xlink:title="Get a boolean config item by name.">
<polygon fill="#fff0f0" stroke="red" points="475.12,-442.25 390.12,-442.25 390.12,-420 475.12,-420 475.12,-442.25"/>
<text text-anchor="middle" x="432.62" y="-428.75" font-family="Helvetica,sans-Serif" font-size="10.00">cs_subset_bool</text>
</a>
</g>
</g>
<!-- Node1&#45;&gt;Node16 -->
<g id="edge5_Node000001_Node000016" class="edge">
<title>Node1&#45;&gt;Node16</title>
<g id="a_edge5_Node000001_Node000016"><a xlink:title=" ">
<path fill="none" stroke="#63b8ff" d="M127.92,-415.39C198.54,-419.05 311.78,-424.92 378.21,-428.36"/>
<polygon fill="#63b8ff" stroke="#63b8ff" points="377.97,-431.85 388.13,-428.87 378.33,-424.86 377.97,-431.85"/>
</a>
</g>
</g>
<!-- Node33 -->
<g id="Node000033" class="node">
<title>Node33</title>
<g id="a_Node000033"><a xlink:href="autocrypt_2db_8c.html#abd0f103cd6d4b96587348badc7492240" target="_top" xlink:title="Free an AutocryptPeer.">
<polygon fill="white" stroke="#666666" points="319.25,-384.25 163.75,-384.25 163.75,-362 319.25,-362 319.25,-384.25"/>
<text text-anchor="middle" x="241.5" y="-370.75" font-family="Helvetica,sans-Serif" font-size="10.00">mutt_autocrypt_db_peer_free</text>
</a>
</g>
</g>
<!-- Node1&#45;&gt;Node33 -->
<g id="edge6_Node000001_Node000033" class="edge">
<title>Node1&#45;&gt;Node33</title>
<g id="a_edge6_Node000001_Node000033"><a xlink:title=" ">
<path fill="none" stroke="#63b8ff" d="M127.78,-398.16C143.86,-394.59 161.15,-390.75 177.24,-387.17"/>
<polygon fill="#63b8ff" stroke="#63b8ff" points="177.68,-390.66 186.68,-385.08 176.16,-383.83 177.68,-390.66"/>
</a>
</g>
</g>
<!-- Node34 -->
<g id="Node000034" class="node">
<title>Node34</title>
<g id="a_Node000034"><a xlink:href="autocrypt_2db_8c.html#a4f30f8989b257f89a46c3af7d09d1e19" target="_top" xlink:title="Get peer info from the Autocrypt database.">
<polygon fill="#fff0f0" stroke="red" points="317.38,-540.25 165.62,-540.25 165.62,-518 317.38,-518 317.38,-540.25"/>
<text text-anchor="middle" x="241.5" y="-526.75" font-family="Helvetica,sans-Serif" font-size="10.00">mutt_autocrypt_db_peer_get</text>
</a>
</g>
</g>
<!-- Node1&#45;&gt;Node34 -->
<g id="edge7_Node000001_Node000034" class="edge">
<title>Node1&#45;&gt;Node34</title>
<g id="a_edge7_Node000001_Node000034"><a xlink:title=" ">
<path fill="none" stroke="#63b8ff" d="M80.18,-430.55C98.21,-451.16 130.01,-484.26 163.75,-504.12 169.85,-507.72 176.54,-510.87 183.33,-513.61"/>
<polygon fill="#63b8ff" stroke="#63b8ff" points="182.03,-516.86 192.62,-517.05 184.47,-510.29 182.03,-516.86"/>
</a>
</g>
</g>
<!-- Node81 -->
<g id="Node000081" class="node">
<title>Node81</title>
<g id="a_Node000081"><a xlink:href="autocrypt_2db_8c.html#a1012863e2f4a65982a12b7b9583b29f0" target="_top" xlink:title="Create a new AutocryptPeer.">
<polygon fill="white" stroke="#666666" points="510,-520.25 355.25,-520.25 355.25,-498 510,-498 510,-520.25"/>
<text text-anchor="middle" x="432.62" y="-506.75" font-family="Helvetica,sans-Serif" font-size="10.00">mutt_autocrypt_db_peer_new</text>
</a>
</g>
</g>
<!-- Node1&#45;&gt;Node81 -->
<g id="edge16_Node000001_Node000081" class="edge">
<title>Node1&#45;&gt;Node81</title>
<g id="a_edge16_Node000001_Node000081"><a xlink:title=" ">
<path fill="none" stroke="#63b8ff" d="M89.51,-430.62C108.72,-444.07 136.61,-461.54 163.75,-471.12 221.62,-491.56 290.2,-501.04 343.48,-505.41"/>
<polygon fill="#63b8ff" stroke="#63b8ff" points="343.21,-508.9 353.45,-506.18 343.74,-501.92 343.21,-508.9"/>
</a>
</g>
</g>
<!-- Node83 -->
<g id="Node000083" class="node">
<title>Node83</title>
<g id="a_Node000083"><a xlink:href="autocrypt_2db_8c.html#a8c87468bf157e512f2835b01823118c1" target="_top" xlink:title="Free an AutocryptPeerHistory.">
<polygon fill="white" stroke="#666666" points="307.25,-344.38 175.75,-344.38 175.75,-307.88 307.25,-307.88 307.25,-344.38"/>
<text text-anchor="start" x="183.75" y="-330.88" font-family="Helvetica,sans-Serif" font-size="10.00">mutt_autocrypt_db_peer</text>
<text text-anchor="middle" x="241.5" y="-316.62" font-family="Helvetica,sans-Serif" font-size="10.00">_history_free</text>
</a>
</g>
</g>
<!-- Node1&#45;&gt;Node83 -->
<g id="edge10_Node000001_Node000083" class="edge">
<title>Node1&#45;&gt;Node83</title>
<g id="a_edge10_Node000001_Node000083"><a xlink:title=" ">
<path fill="none" stroke="#63b8ff" d="M92.61,-393.53C111.99,-381.06 138.77,-364.83 163.75,-353.12 166.69,-351.75 169.72,-350.4 172.8,-349.09"/>
<polygon fill="#63b8ff" stroke="#63b8ff" points="174.06,-352.36 182,-345.35 171.42,-345.87 174.06,-352.36"/>
</a>
</g>
</g>
<!-- Node84 -->
<g id="Node000084" class="node">
<title>Node84</title>
<g id="a_Node000084"><a xlink:href="autocrypt_2db_8c.html#aff9a9d353dd568fa3989b0555769d172" target="_top" xlink:title="Insert peer history into the Autocrypt database.">
<polygon fill="#fff0f0" stroke="red" points="307.25,-649.38 175.75,-649.38 175.75,-612.88 307.25,-612.88 307.25,-649.38"/>
<text text-anchor="start" x="183.75" y="-635.88" font-family="Helvetica,sans-Serif" font-size="10.00">mutt_autocrypt_db_peer</text>
<text text-anchor="middle" x="241.5" y="-621.62" font-family="Helvetica,sans-Serif" font-size="10.00">_history_insert</text>
</a>
</g>
</g>
<!-- Node1&#45;&gt;Node84 -->
<g id="edge11_Node000001_Node000084" class="edge">
<title>Node1&#45;&gt;Node84</title>
<g id="a_edge11_Node000001_Node000084"><a xlink:title=" ">
<path fill="none" stroke="#63b8ff" d="M69.57,-430.72C80.03,-468.51 108.8,-554.79 163.75,-603.12 165.01,-604.24 166.33,-605.31 167.68,-606.34"/>
<polygon fill="#63b8ff" stroke="#63b8ff" points="165.58,-609.14 175.86,-611.71 169.42,-603.29 165.58,-609.14"/>
</a>
</g>
</g>
<!-- Node85 -->
<g id="Node000085" class="node">
<title>Node85</title>
<g id="a_Node000085"><a xlink:href="autocrypt_2db_8c.html#acb5259f6787ed6fce6d99acf6697b7cb" target="_top" xlink:title="Create a new AutocryptPeerHistory.">
<polygon fill="white" stroke="#666666" points="307.25,-289.38 175.75,-289.38 175.75,-252.88 307.25,-252.88 307.25,-289.38"/>
<text text-anchor="start" x="183.75" y="-275.88" font-family="Helvetica,sans-Serif" font-size="10.00">mutt_autocrypt_db_peer</text>
<text text-anchor="middle" x="241.5" y="-261.62" font-family="Helvetica,sans-Serif" font-size="10.00">_history_new</text>
</a>
</g>
</g>
<!-- Node1&#45;&gt;Node85 -->
<g id="edge13_Node000001_Node000085" class="edge">
<title>Node1&#45;&gt;Node85</title>
<g id="a_edge13_Node000001_Node000085"><a xlink:title=" ">
<path fill="none" stroke="#63b8ff" d="M76.72,-393.52C93.36,-368.75 125.91,-325.06 163.75,-299.12 165.72,-297.78 167.75,-296.49 169.84,-295.25"/>
<polygon fill="#63b8ff" stroke="#63b8ff" points="171.45,-298.36 178.63,-290.57 168.16,-292.18 171.45,-298.36"/>
</a>
</g>
</g>
<!-- Node86 -->
<g id="Node000086" class="node">
<title>Node86</title>
<g id="a_Node000086"><a xlink:href="autocrypt_2db_8c.html#a16f22cdf30f8df65993a0d16e13f2724" target="_top" xlink:title="Insert a peer into the Autocrypt database.">
<polygon fill="#fff0f0" stroke="red" points="307.25,-594.38 175.75,-594.38 175.75,-557.88 307.25,-557.88 307.25,-594.38"/>
<text text-anchor="start" x="183.75" y="-580.88" font-family="Helvetica,sans-Serif" font-size="10.00">mutt_autocrypt_db_peer</text>
<text text-anchor="middle" x="241.5" y="-566.62" font-family="Helvetica,sans-Serif" font-size="10.00">_insert</text>
</a>
</g>
</g>
<!-- Node1&#45;&gt;Node86 -->
<g id="edge14_Node000001_Node000086" class="edge">
<title>Node1&#45;&gt;Node86</title>
<g id="a_edge14_Node000001_Node000086"><a xlink:title=" ">
<path fill="none" stroke="#63b8ff" d="M73.68,-430.87C88.36,-460.17 120.52,-516.81 163.75,-549.12 164.93,-550.01 166.14,-550.86 167.37,-551.69"/>
<polygon fill="#63b8ff" stroke="#63b8ff" points="165.59,-554.7 175.98,-556.76 169.14,-548.67 165.59,-554.7"/>
</a>
</g>
</g>
<!-- Node87 -->
<g id="Node000087" class="node">
<title>Node87</title>
<g id="a_Node000087"><a xlink:href="autocrypt_2db_8c.html#a51e0aee05d3a3896b5fa0a6d52e195b8" target="_top" xlink:title="Update the peer info in an Autocrypt database.">
<polygon fill="white" stroke="#666666" points="307.25,-234.38 175.75,-234.38 175.75,-197.88 307.25,-197.88 307.25,-234.38"/>
<text text-anchor="start" x="183.75" y="-220.88" font-family="Helvetica,sans-Serif" font-size="10.00">mutt_autocrypt_db_peer</text>
<text text-anchor="middle" x="241.5" y="-206.62" font-family="Helvetica,sans-Serif" font-size="10.00">_update</text>
</a>
</g>
</g>
<!-- Node1&#45;&gt;Node87 -->
<g id="edge17_Node000001_Node000087" class="edge">
<title>Node1&#45;&gt;Node87</title>
<g id="a_edge17_Node000001_Node000087"><a xlink:title=" ">
<path fill="none" stroke="#63b8ff" d="M71.06,-393.4C83.33,-359.03 113.94,-285.59 163.75,-244.12 165.21,-242.91 166.73,-241.74 168.3,-240.62"/>
<polygon fill="#63b8ff" stroke="#63b8ff" points="169.8,-243.81 176.43,-235.55 166.09,-237.87 169.8,-243.81"/>
</a>
</g>
</g>
<!-- Node88 -->
<g id="Node000088" class="node">
<title>Node88</title>
<g id="a_Node000088"><a xlink:href="gpgme_8c.html#ab8c8b3b72e54e9c0dbead13c629a6885" target="_top" xlink:title="Read a key from GPGME.">
<polygon fill="#fff0f0" stroke="red" points="304.25,-741.38 178.75,-741.38 178.75,-704.88 304.25,-704.88 304.25,-741.38"/>
<text text-anchor="start" x="186.75" y="-727.88" font-family="Helvetica,sans-Serif" font-size="10.00">mutt_autocrypt_gpgme</text>
<text text-anchor="middle" x="241.5" y="-713.62" font-family="Helvetica,sans-Serif" font-size="10.00">_import_key</text>
</a>
</g>
</g>
<!-- Node1&#45;&gt;Node88 -->
<g id="edge18_Node000001_Node000088" class="edge">
<title>Node1&#45;&gt;Node88</title>
<g id="a_edge18_Node000001_Node000088"><a xlink:title=" ">
<path fill="none" stroke="#63b8ff" d="M66.35,-430.74C71.2,-479.79 90.78,-614.07 163.75,-691.12 166.15,-693.66 168.79,-696.01 171.59,-698.17"/>
<polygon fill="#63b8ff" stroke="#63b8ff" points="169.52,-700.99 179.77,-703.65 173.41,-695.18 169.52,-700.99"/>
</a>
</g>
</g>
<!-- Node94 -->
<g id="Node000094" class="node">
<title>Node94</title>
<g id="a_Node000094"><a xlink:href="autocrypt_8c.html#ac2a58142d9962d1108cf66d8386a70bd" target="_top" xlink:title="Initialise Autocrypt.">
<polygon fill="#fff0f0" stroke="red" points="294.88,-462.25 188.12,-462.25 188.12,-440 294.88,-440 294.88,-462.25"/>
<text text-anchor="middle" x="241.5" y="-448.75" font-family="Helvetica,sans-Serif" font-size="10.00">mutt_autocrypt_init</text>
</a>
</g>
</g>
<!-- Node1&#45;&gt;Node94 -->
<g id="edge22_Node000001_Node000094" class="edge">
<title>Node1&#45;&gt;Node94</title>
<g id="a_edge22_Node000001_Node000094"><a xlink:title=" ">
<path fill="none" stroke="#63b8ff" d="M127.78,-426.09C143.86,-429.66 161.15,-433.5 177.24,-437.08"/>
<polygon fill="#63b8ff" stroke="#63b8ff" points="176.16,-440.42 186.68,-439.17 177.68,-433.59 176.16,-440.42"/>
</a>
</g>
</g>
<!-- Node454 -->
<g id="Node000454" class="node">
<title>Node454</title>
<g id="a_Node000454"><a xlink:href="mutt_2date_8c.html#ad1e6304a91c7b6f3c266a9b17c1740fe" target="_top" xlink:title="Return the number of seconds since the Unix epoch.">
<polygon fill="#fff0f0" stroke="red" points="285.5,-180.25 197.5,-180.25 197.5,-158 285.5,-158 285.5,-180.25"/>
<text text-anchor="middle" x="241.5" y="-166.75" font-family="Helvetica,sans-Serif" font-size="10.00">mutt_date_now</text>
</a>
</g>
</g>
<!-- Node1&#45;&gt;Node454 -->
<g id="edge24_Node000001_Node000454" class="edge">
<title>Node1&#45;&gt;Node454</title>
<g id="a_edge24_Node000001_Node000454"><a xlink:title=" ">
<path fill="none" stroke="#63b8ff" d="M67.57,-393.62C74.8,-350.81 98.71,-244.37 163.75,-189.12 170.24,-183.61 178.08,-179.59 186.24,-176.67"/>
<polygon fill="#63b8ff" stroke="#63b8ff" points="187.03,-180.08 195.6,-173.86 185.02,-173.38 187.03,-180.08"/>
</a>
</g>
</g>
<!-- Node63 -->
<g id="Node000063" class="node">
<title>Node63</title>
<g id="a_Node000063"><a xlink:href="mutt_2string_8c.html#a29db81d6f5a7dd216cbea75ecf8a5885" target="_top" xlink:title="Compare two strings, ignoring case.">
<polygon fill="#fff0f0" stroke="red" points="285.5,-140.25 197.5,-140.25 197.5,-118 285.5,-118 285.5,-140.25"/>
<text text-anchor="middle" x="241.5" y="-126.75" font-family="Helvetica,sans-Serif" font-size="10.00">mutt_istr_equal</text>
</a>
</g>
</g>
<!-- Node1&#45;&gt;Node63 -->
<g id="edge25_Node000001_Node000063" class="edge">
<title>Node1&#45;&gt;Node63</title>
<g id="a_edge25_Node000001_Node000063"><a xlink:title=" ">
<path fill="none" stroke="#63b8ff" d="M66.17,-393.64C70.56,-345.69 89.08,-216.36 163.75,-149.12 170.15,-143.36 178.01,-139.22 186.23,-136.25"/>
<polygon fill="#63b8ff" stroke="#63b8ff" points="187.12,-139.64 195.7,-133.42 185.12,-132.93 187.12,-139.64"/>
</a>
</g>
</g>
<!-- Node21 -->
<g id="Node000021" class="node">
<title>Node21</title>
<g id="a_Node000021"><a xlink:href="mutt_2string_8c.html#a3fe33d90e4814281cd57de048119c950" target="_top" xlink:title="Copy a string, safely.">
<polygon fill="#fff0f0" stroke="red" points="471.75,-81.25 393.5,-81.25 393.5,-59 471.75,-59 471.75,-81.25"/>
<text text-anchor="middle" x="432.62" y="-67.75" font-family="Helvetica,sans-Serif" font-size="10.00">mutt_str_dup</text>
</a>
</g>
</g>
<!-- Node1&#45;&gt;Node21 -->
<g id="edge26_Node000001_Node000021" class="edge">
<title>Node1&#45;&gt;Node21</title>
<g id="a_edge26_Node000001_Node000021"><a xlink:title=" ">
<path fill="none" stroke="#63b8ff" d="M67.32,-393.48C76.34,-327.9 110.02,-109.55 163.75,-69.12 228.9,-20.1 330.44,-38.69 387.98,-55.28"/>
<polygon fill="#63b8ff" stroke="#63b8ff" points="386.85,-58.59 397.43,-58.12 388.86,-51.89 386.85,-58.59"/>
</a>
</g>
</g>
<!-- Node52 -->
<g id="Node000052" class="node">
<title>Node52</title>
<g id="a_Node000052"><a xlink:href="mutt_2string_8c.html#a6b6a50296dd2a31863a43379ef4a343d" target="_top" xlink:title="Compare two strings.">
<polygon fill="#fff0f0" stroke="red" points="284.38,-22.25 198.62,-22.25 198.62,0 284.38,0 284.38,-22.25"/>
<text text-anchor="middle" x="241.5" y="-8.75" font-family="Helvetica,sans-Serif" font-size="10.00">mutt_str_equal</text>
</a>
</g>
</g>
<!-- Node1&#45;&gt;Node52 -->
<g id="edge27_Node000001_Node000052" class="edge">
<title>Node1&#45;&gt;Node52</title>
<g id="a_edge27_Node000001_Node000052"><a xlink:title=" ">
<path fill="none" stroke="#63b8ff" d="M67.36,-393.74C76.89,-325.75 113.13,-89.75 163.75,-36.12 170.32,-29.17 178.84,-24.14 187.81,-20.51"/>
<polygon fill="#63b8ff" stroke="#63b8ff" points="188.7,-23.91 197.02,-17.35 186.43,-17.29 188.7,-23.91"/>
</a>
</g>
</g>
<!-- Node74 -->
<g id="Node000074" class="node">
<title>Node74</title>
<g id="a_Node000074"><a xlink:href="mutt_2string_8c.html#af8c32ffc64dd55e92001a974a4be6bbf" target="_top" xlink:title="Replace one string with another.">
<polygon fill="white" stroke="#666666" points="288.5,-100.25 194.5,-100.25 194.5,-78 288.5,-78 288.5,-100.25"/>
<text text-anchor="middle" x="241.5" y="-86.75" font-family="Helvetica,sans-Serif" font-size="10.00">mutt_str_replace</text>
</a>
</g>
</g>
<!-- Node1&#45;&gt;Node74 -->
<g id="edge28_Node000001_Node000074" class="edge">
<title>Node1&#45;&gt;Node74</title>
<g id="a_edge28_Node000001_Node000074"><a xlink:title=" ">
<path fill="none" stroke="#63b8ff" d="M65.12,-393.63C66.87,-340.91 79.34,-188.58 163.75,-109.12 169.34,-103.86 176.14,-99.94 183.35,-97.03"/>
<polygon fill="#63b8ff" stroke="#63b8ff" points="184.3,-100.4 192.69,-93.93 182.09,-93.76 184.3,-100.4"/>
</a>
</g>
</g>
<!-- Node15&#45;&gt;Node15 -->
<g id="edge4_Node000015_Node000015" class="edge">
<title>Node15&#45;&gt;Node15</title>
<g id="a_edge4_Node000015_Node000015"><a xlink:title=" ">
<path fill="none" stroke="#63b8ff" d="M401.42,-642.49C389.75,-651.28 400.15,-660.25 432.62,-660.25 450.39,-660.25 461.54,-657.57 466.1,-653.7"/>
<polygon fill="#63b8ff" stroke="#63b8ff" points="469.55,-653.08 464.13,-643.97 462.69,-654.46 469.55,-653.08"/>
</a>
</g>
</g>
<!-- Node34&#45;&gt;Node15 -->
<g id="edge8_Node000034_Node000015" class="edge">
<title>Node34&#45;&gt;Node15</title>
<g id="a_edge8_Node000034_Node000015"><a xlink:title=" ">
<path fill="none" stroke="#63b8ff" d="M297.08,-540.62C304.69,-543.01 312.28,-545.82 319.25,-549.12 354.04,-565.62 389.08,-593.36 410.56,-611.96"/>
<polygon fill="#63b8ff" stroke="#63b8ff" points="408.21,-614.55 418.03,-618.54 412.84,-609.3 408.21,-614.55"/>
</a>
</g>
</g>
<!-- Node34&#45;&gt;Node81 -->
<g id="edge9_Node000034_Node000081" class="edge">
<title>Node34&#45;&gt;Node81</title>
<g id="a_edge9_Node000034_Node000081"><a xlink:title=" ">
<path fill="none" stroke="#63b8ff" d="M317.79,-521.16C326.31,-520.26 335.06,-519.34 343.72,-518.42"/>
<polygon fill="#63b8ff" stroke="#63b8ff" points="343.97,-521.91 353.54,-517.38 343.23,-514.95 343.97,-521.91"/>
</a>
</g>
</g>
<!-- Node84&#45;&gt;Node15 -->
<g id="edge12_Node000084_Node000015" class="edge">
<title>Node84&#45;&gt;Node15</title>
<g id="a_edge12_Node000084_Node000015"><a xlink:title=" ">
<path fill="none" stroke="#63b8ff" d="M307.59,-631.12C334.67,-631.12 365.35,-631.12 389.42,-631.12"/>
<polygon fill="#63b8ff" stroke="#63b8ff" points="389.14,-634.63 399.14,-631.13 389.14,-627.63 389.14,-634.63"/>
</a>
</g>
</g>
<!-- Node86&#45;&gt;Node15 -->
<g id="edge15_Node000086_Node000015" class="edge">
<title>Node86&#45;&gt;Node15</title>
<g id="a_edge15_Node000086_Node000015"><a xlink:title=" ">
<path fill="none" stroke="#63b8ff" d="M306.79,-594.82C334.16,-602.78 365.3,-611.84 389.64,-618.91"/>
<polygon fill="#63b8ff" stroke="#63b8ff" points="388.61,-622.26 399.19,-621.69 390.56,-615.54 388.61,-622.26"/>
</a>
</g>
</g>
<!-- Node88&#45;&gt;Node2 -->
<g id="edge19_Node000088_Node000002" class="edge">
<title>Node88&#45;&gt;Node2</title>
<g id="a_edge19_Node000088_Node000002"><a xlink:title=" ">
<path fill="none" stroke="#63b8ff" d="M290.71,-741.73C321.67,-753.68 361.43,-769.03 390.82,-780.37"/>
<polygon fill="#63b8ff" stroke="#63b8ff" points="389.53,-783.63 400.12,-783.97 392.05,-777.1 389.53,-783.63"/>
</a>
</g>
</g>
<!-- Node88&#45;&gt;Node10 -->
<g id="edge20_Node000088_Node000010" class="edge">
<title>Node88&#45;&gt;Node10</title>
<g id="a_edge20_Node000088_Node000010"><a xlink:title=" ">
<path fill="none" stroke="#63b8ff" d="M304.69,-726.74C326.86,-728.03 351.74,-729.48 373.56,-730.75"/>
<polygon fill="#63b8ff" stroke="#63b8ff" points="373.29,-734.24 383.48,-731.32 373.7,-727.25 373.29,-734.24"/>
</a>
</g>
</g>
<!-- Node88&#45;&gt;Node15 -->
<g id="edge21_Node000088_Node000015" class="edge">
<title>Node88&#45;&gt;Node15</title>
<g id="a_edge21_Node000088_Node000015"><a xlink:title=" ">
<path fill="none" stroke="#63b8ff" d="M289.08,-704.54C299.11,-700.31 309.6,-695.7 319.25,-691.12 347.72,-677.63 379.29,-660.58 401.71,-648.1"/>
<polygon fill="#63b8ff" stroke="#63b8ff" points="403.28,-651.23 410.3,-643.29 399.86,-645.12 403.28,-651.23"/>
</a>
</g>
</g>
<!-- Node94&#45;&gt;Node16 -->
<g id="edge23_Node000094_Node000016" class="edge">
<title>Node94&#45;&gt;Node16</title>
<g id="a_edge23_Node000094_Node000016"><a xlink:title=" ">
<path fill="none" stroke="#63b8ff" d="M295.18,-445.55C321.17,-442.81 352.46,-439.5 378.51,-436.74"/>
<polygon fill="#63b8ff" stroke="#63b8ff" points="378.61,-440.25 388.19,-435.72 377.88,-433.29 378.61,-440.25"/>
</a>
</g>
</g>
<!-- Node74&#45;&gt;Node21 -->
<g id="edge29_Node000074_Node000021" class="edge">
<title>Node74&#45;&gt;Node21</title>
<g id="a_edge29_Node000074_Node000021"><a xlink:title=" ">
<path fill="none" stroke="#63b8ff" d="M288.77,-84.48C317.05,-81.64 353.22,-78 382.09,-75.1"/>
<polygon fill="#63b8ff" stroke="#63b8ff" points="382.05,-78.62 391.65,-74.14 381.35,-71.66 382.05,-78.62"/>
</a>
</g>
</g>
</g>
</svg>
