<?xml version="1.0" encoding="UTF-8" standalone="no"?>
<!DOCTYPE svg PUBLIC "-//W3C//DTD SVG 1.1//EN"
 "http://www.w3.org/Graphics/SVG/1.1/DTD/svg11.dtd">
<!-- Generated by graphviz version 7.1.0 (0)
 -->
<!-- Title: autocrypt/db.c Pages: 1 -->
<svg width="728pt" height="137pt"
 viewBox="0.00 0.00 728.00 137.00" xmlns="http://www.w3.org/2000/svg" xmlns:xlink="http://www.w3.org/1999/xlink">
<g id="graph0" class="graph" transform="scale(1 1) rotate(0) translate(4 133)">
<title>autocrypt/db.c</title>
<!-- Node1 -->
<g id="node1" class="node">
<title>Node1</title>
<g id="a_node1"><a xlink:title="Autocrypt database handling.">
<polygon fill="#999999" stroke="#666666" points="356.5,-129 271.5,-129 271.5,-110 356.5,-110 356.5,-129"/>
<text text-anchor="middle" x="314" y="-117" font-family="Helvetica,sans-Serif" font-size="10.00">autocrypt/db.c</text>
</a>
</g>
</g>
<!-- Node2 -->
<g id="node2" class="node">
<title>Node2</title>
<g id="a_node2"><a xlink:title=" ">
<polygon fill="#e0e0e0" stroke="#999999" points="88,-19 34,-19 34,0 88,0 88,-19"/>
<text text-anchor="middle" x="61" y="-7" font-family="Helvetica,sans-Serif" font-size="10.00">config.h</text>
</a>
</g>
</g>
<!-- Node1&#45;&gt;Node2 -->
<g id="edge1" class="edge">
<title>Node1&#45;&gt;Node2</title>
<path fill="none" stroke="#63b8ff" d="M271.08,-117.73C227.18,-115.09 158.56,-105.67 109,-74 91.93,-63.09 78.66,-43.85 70.45,-29.39"/>
<polygon fill="#63b8ff" stroke="#63b8ff" points="73.68,-28.01 65.88,-20.83 67.5,-31.3 73.68,-28.01"/>
</g>
<!-- Node3 -->
<g id="node3" class="node">
<title>Node3</title>
<g id="a_node3"><a xlink:title=" ">
<polygon fill="#e0e0e0" stroke="#999999" points="173.5,-74 118.5,-74 118.5,-55 173.5,-55 173.5,-74"/>
<text text-anchor="middle" x="146" y="-62" font-family="Helvetica,sans-Serif" font-size="10.00">stddef.h</text>
</a>
</g>
</g>
<!-- Node1&#45;&gt;Node3 -->
<g id="edge2" class="edge">
<title>Node1&#45;&gt;Node3</title>
<path fill="none" stroke="#63b8ff" d="M285.5,-109.51C257.74,-100.75 215.33,-87.37 184.56,-77.66"/>
<polygon fill="#63b8ff" stroke="#63b8ff" points="185.83,-74.4 175.24,-74.73 183.73,-81.07 185.83,-74.4"/>
</g>
<!-- Node4 -->
<g id="node4" class="node">
<title>Node4</title>
<g id="a_node4"><a xlink:title=" ">
<polygon fill="#e0e0e0" stroke="#999999" points="276,-19 220,-19 220,0 276,0 276,-19"/>
<text text-anchor="middle" x="248" y="-7" font-family="Helvetica,sans-Serif" font-size="10.00">sqlite3.h</text>
</a>
</g>
</g>
<!-- Node1&#45;&gt;Node4 -->
<g id="edge3" class="edge">
<title>Node1&#45;&gt;Node4</title>
<path fill="none" stroke="#63b8ff" d="M272.84,-109.55C253.6,-103.09 232.45,-92.17 221,-74 211.75,-59.32 221.61,-40.92 231.92,-27.72"/>
<polygon fill="#63b8ff" stroke="#63b8ff" points="234.42,-30.17 238.25,-20.29 229.1,-25.63 234.42,-30.17"/>
</g>
<!-- Node5 -->
<g id="node5" class="node">
<title>Node5</title>
<g id="a_node5"><a xlink:title=" ">
<polygon fill="#e0e0e0" stroke="#999999" points="390,-19 330,-19 330,0 390,0 390,-19"/>
<text text-anchor="middle" x="360" y="-7" font-family="Helvetica,sans-Serif" font-size="10.00">stdbool.h</text>
</a>
</g>
</g>
<!-- Node1&#45;&gt;Node5 -->
<g id="edge4" class="edge">
<title>Node1&#45;&gt;Node5</title>
<path fill="none" stroke="#63b8ff" d="M356.9,-115.51C385.28,-111.03 420.54,-100.16 439,-74 453.96,-52.8 425.48,-34.96 398.64,-23.64"/>
<polygon fill="#63b8ff" stroke="#63b8ff" points="400.14,-20.47 389.56,-20.04 397.56,-26.97 400.14,-20.47"/>
</g>
<!-- Node6 -->
<g id="node6" class="node">
<title>Node6</title>
<g id="a_node6"><a xlink:title=" ">
<polygon fill="#e0e0e0" stroke="#999999" points="547.5,-74 486.5,-74 486.5,-55 547.5,-55 547.5,-74"/>
<text text-anchor="middle" x="517" y="-62" font-family="Helvetica,sans-Serif" font-size="10.00">sys/stat.h</text>
</a>
</g>
</g>
<!-- Node1&#45;&gt;Node6 -->
<g id="edge5" class="edge">
<title>Node1&#45;&gt;Node6</title>
<path fill="none" stroke="#63b8ff" d="M348.44,-109.51C383.39,-100.38 437.56,-86.24 475.01,-76.46"/>
<polygon fill="#63b8ff" stroke="#63b8ff" points="475.8,-79.87 484.6,-73.96 474.04,-73.1 475.8,-79.87"/>
</g>
<!-- Node7 -->
<g id="node7" class="node">
<title>Node7</title>
<g id="a_node7"><a xlink:href="autocrypt_2private_8h.html" target="_top" xlink:title="Shared constants/structs that are private to Autocrypt.">
<polygon fill="white" stroke="#666666" points="343.5,-74 284.5,-74 284.5,-55 343.5,-55 343.5,-74"/>
<text text-anchor="middle" x="314" y="-62" font-family="Helvetica,sans-Serif" font-size="10.00">private.h</text>
</a>
</g>
</g>
<!-- Node1&#45;&gt;Node7 -->
<g id="edge6" class="edge">
<title>Node1&#45;&gt;Node7</title>
<path fill="none" stroke="#63b8ff" d="M314,-109.75C314,-103.27 314,-94.16 314,-85.9"/>
<polygon fill="#63b8ff" stroke="#63b8ff" points="317.5,-85.96 314,-75.96 310.5,-85.96 317.5,-85.96"/>
</g>
<!-- Node8 -->
<g id="node8" class="node">
<title>Node8</title>
<g id="a_node8"><a xlink:href="mutt_2lib_8h.html" target="_top" xlink:title="Convenience wrapper for the library headers.">
<polygon fill="#fff0f0" stroke="red" points="62,-74 0,-74 0,-55 62,-55 62,-74"/>
<text text-anchor="middle" x="31" y="-62" font-family="Helvetica,sans-Serif" font-size="10.00">mutt/lib.h</text>
</a>
</g>
</g>
<!-- Node1&#45;&gt;Node8 -->
<g id="edge9" class="edge">
<title>Node1&#45;&gt;Node8</title>
<path fill="none" stroke="#63b8ff" d="M271,-110.48C223.33,-101.59 144.17,-86.81 76,-74 75.18,-73.85 74.35,-73.69 73.52,-73.53"/>
<polygon fill="#63b8ff" stroke="#63b8ff" points="74.43,-70.14 63.96,-71.73 73.14,-77.02 74.43,-70.14"/>
</g>
<!-- Node57 -->
<g id="node9" class="node">
<title>Node57</title>
<g id="a_node9"><a xlink:href="address_2lib_8h.html" target="_top" xlink:title="Email Address Handling.">
<polygon fill="#fff0f0" stroke="red" points="642,-74 566,-74 566,-55 642,-55 642,-74"/>
<text text-anchor="middle" x="604" y="-62" font-family="Helvetica,sans-Serif" font-size="10.00">address/lib.h</text>
</a>
</g>
</g>
<!-- Node1&#45;&gt;Node57 -->
<g id="edge11" class="edge">
<title>Node1&#45;&gt;Node57</title>
<path fill="none" stroke="#63b8ff" d="M356.79,-110.68C409.56,-101.04 499.08,-84.68 554.68,-74.51"/>
<polygon fill="#63b8ff" stroke="#63b8ff" points="554.97,-78.02 564.18,-72.78 553.71,-71.13 554.97,-78.02"/>
</g>
<!-- Node62 -->
<g id="node10" class="node">
<title>Node62</title>
<g id="a_node10"><a xlink:href="config_2lib_8h.html" target="_top" xlink:title="Convenience wrapper for the config headers.">
<polygon fill="#fff0f0" stroke="red" points="430,-74 362,-74 362,-55 430,-55 430,-74"/>
<text text-anchor="middle" x="396" y="-62" font-family="Helvetica,sans-Serif" font-size="10.00">config/lib.h</text>
</a>
</g>
</g>
<!-- Node1&#45;&gt;Node62 -->
<g id="edge12" class="edge">
<title>Node1&#45;&gt;Node62</title>
<path fill="none" stroke="#63b8ff" d="M327.91,-109.51C340.24,-101.54 358.47,-89.75 372.97,-80.38"/>
<polygon fill="#63b8ff" stroke="#63b8ff" points="374.53,-83.55 381.02,-75.18 370.73,-77.67 374.53,-83.55"/>
</g>
<!-- Node76 -->
<g id="node11" class="node">
<title>Node76</title>
<g id="a_node11"><a xlink:href="core_2lib_8h.html" target="_top" xlink:title="Convenience wrapper for the core headers.">
<polygon fill="#fff0f0" stroke="red" points="720,-74 660,-74 660,-55 720,-55 720,-74"/>
<text text-anchor="middle" x="690" y="-62" font-family="Helvetica,sans-Serif" font-size="10.00">core/lib.h</text>
</a>
</g>
</g>
<!-- Node1&#45;&gt;Node76 -->
<g id="edge14" class="edge">
<title>Node1&#45;&gt;Node76</title>
<path fill="none" stroke="#63b8ff" d="M357,-113.98C419.16,-107.2 537.95,-93.29 648.77,-74.26"/>
<polygon fill="#63b8ff" stroke="#63b8ff" points="649.07,-77.76 658.32,-72.6 647.87,-70.86 649.07,-77.76"/>
</g>
<!-- Node86 -->
<g id="node12" class="node">
<title>Node86</title>
<g id="a_node12"><a xlink:href="autocrypt_2lib_8h.html" target="_top" xlink:title="Autocrypt end&#45;to&#45;end encryption.">
<polygon fill="#fff0f0" stroke="red" points="266,-74 230,-74 230,-55 266,-55 266,-74"/>
<text text-anchor="middle" x="248" y="-62" font-family="Helvetica,sans-Serif" font-size="10.00">lib.h</text>
</a>
</g>
</g>
<!-- Node1&#45;&gt;Node86 -->
<g id="edge15" class="edge">
<title>Node1&#45;&gt;Node86</title>
<path fill="none" stroke="#63b8ff" d="M302.8,-109.51C293.26,-101.85 279.33,-90.66 267.89,-81.47"/>
<polygon fill="#63b8ff" stroke="#63b8ff" points="270.2,-78.84 260.21,-75.31 265.82,-84.3 270.2,-78.84"/>
</g>
<!-- Node7&#45;&gt;Node4 -->
<g id="edge7" class="edge">
<title>Node7&#45;&gt;Node4</title>
<path fill="none" stroke="#63b8ff" d="M302.8,-54.51C293.26,-46.85 279.33,-35.66 267.89,-26.47"/>
<polygon fill="#63b8ff" stroke="#63b8ff" points="270.2,-23.84 260.21,-20.31 265.82,-29.3 270.2,-23.84"/>
</g>
<!-- Node7&#45;&gt;Node5 -->
<g id="edge8" class="edge">
<title>Node7&#45;&gt;Node5</title>
<path fill="none" stroke="#63b8ff" d="M321.6,-54.75C327.88,-47.5 337.01,-36.98 344.8,-28.02"/>
<polygon fill="#63b8ff" stroke="#63b8ff" points="347.34,-30.43 351.25,-20.59 342.05,-25.84 347.34,-30.43"/>
</g>
<!-- Node8&#45;&gt;Node2 -->
<g id="edge10" class="edge">
<title>Node8&#45;&gt;Node2</title>
<path fill="none" stroke="#63b8ff" d="M35.95,-54.75C39.84,-47.88 45.39,-38.08 50.28,-29.45"/>
<polygon fill="#63b8ff" stroke="#63b8ff" points="53.31,-31.19 55.19,-20.76 47.22,-27.74 53.31,-31.19"/>
</g>
<!-- Node62&#45;&gt;Node5 -->
<g id="edge13" class="edge">
<title>Node62&#45;&gt;Node5</title>
<path fill="none" stroke="#63b8ff" d="M390.06,-54.75C385.29,-47.73 378.44,-37.64 372.48,-28.87"/>
<polygon fill="#63b8ff" stroke="#63b8ff" points="375.44,-27 366.92,-20.69 369.65,-30.93 375.44,-27"/>
</g>
<!-- Node86&#45;&gt;Node4 -->
<g id="edge16" class="edge">
<title>Node86&#45;&gt;Node4</title>
<path fill="none" stroke="#63b8ff" d="M248,-54.75C248,-48.27 248,-39.16 248,-30.9"/>
<polygon fill="#63b8ff" stroke="#63b8ff" points="251.5,-30.96 248,-20.96 244.5,-30.96 251.5,-30.96"/>
</g>
<!-- Node86&#45;&gt;Node5 -->
<g id="edge17" class="edge">
<title>Node86&#45;&gt;Node5</title>
<path fill="none" stroke="#63b8ff" d="M266.49,-54.75C283.98,-46.47 310.49,-33.93 330.83,-24.31"/>
<polygon fill="#63b8ff" stroke="#63b8ff" points="332.19,-27.53 339.74,-20.09 329.2,-21.2 332.19,-27.53"/>
</g>
</g>
</svg>
