<?xml version="1.0" encoding="UTF-8" standalone="no"?>
<!DOCTYPE svg PUBLIC "-//W3C//DTD SVG 1.1//EN"
 "http://www.w3.org/Graphics/SVG/1.1/DTD/svg11.dtd">
<!-- Generated by graphviz version 2.40.1 (20161225.0304)
 -->
<!-- Title: autocrypt/autocrypt_private.h Pages: 1 -->
<svg width="148pt" height="95pt"
 viewBox="0.00 0.00 147.50 95.00" xmlns="http://www.w3.org/2000/svg" xmlns:xlink="http://www.w3.org/1999/xlink">
<g id="graph0" class="graph" transform="scale(1 1) rotate(0) translate(4 91)">
<title>autocrypt/autocrypt_private.h</title>
<polygon fill="#ffffff" stroke="transparent" points="-4,4 -4,-91 143.5,-91 143.5,4 -4,4"/>
<!-- Node0 -->
<g id="node1" class="node">
<title>Node0</title>
<polygon fill="#bfbfbf" stroke="#000000" points="12,-56.5 12,-86.5 125,-86.5 125,-56.5 12,-56.5"/>
<text text-anchor="start" x="20" y="-74.5" font-family="Helvetica,sans-Serif" font-size="10.00" fill="#000000">autocrypt/autocrypt</text>
<text text-anchor="middle" x="68.5" y="-63.5" font-family="Helvetica,sans-Serif" font-size="10.00" fill="#000000">_private.h</text>
</g>
<!-- Node1 -->
<g id="node2" class="node">
<title>Node1</title>
<polygon fill="#ffffff" stroke="#bfbfbf" points="0,-.5 0,-19.5 59,-19.5 59,-.5 0,-.5"/>
<text text-anchor="middle" x="29.5" y="-7.5" font-family="Helvetica,sans-Serif" font-size="10.00" fill="#000000">sqlite3.h</text>
</g>
<!-- Node0&#45;&gt;Node1 -->
<g id="edge1" class="edge">
<title>Node0&#45;&gt;Node1</title>
<path fill="none" stroke="#191970" d="M58.8595,-56.2977C53.5023,-47.8498 46.7978,-37.2773 41.1487,-28.369"/>
<polygon fill="#191970" stroke="#191970" points="44.0556,-26.4176 35.7444,-19.8469 38.1441,-30.1664 44.0556,-26.4176"/>
</g>
<!-- Node2 -->
<g id="node3" class="node">
<title>Node2</title>
<polygon fill="#ffffff" stroke="#bfbfbf" points="77.5,-.5 77.5,-19.5 139.5,-19.5 139.5,-.5 77.5,-.5"/>
<text text-anchor="middle" x="108.5" y="-7.5" font-family="Helvetica,sans-Serif" font-size="10.00" fill="#000000">stdbool.h</text>
</g>
<!-- Node0&#45;&gt;Node2 -->
<g id="edge2" class="edge">
<title>Node0&#45;&gt;Node2</title>
<path fill="none" stroke="#191970" d="M78.3876,-56.2977C83.8822,-47.8498 90.7586,-37.2773 96.5527,-28.369"/>
<polygon fill="#191970" stroke="#191970" points="99.5772,-30.1381 102.0955,-19.8469 93.7092,-26.3215 99.5772,-30.1381"/>
</g>
</g>
</svg>
