<?xml version="1.0" encoding="UTF-8" standalone="no"?>
<!DOCTYPE svg PUBLIC "-//W3C//DTD SVG 1.1//EN"
 "http://www.w3.org/Graphics/SVG/1.1/DTD/svg11.dtd">
<!-- Generated by graphviz version 2.40.1 (20161225.0304)
 -->
<!-- Title: mutt_autocrypt_db_peer_history_insert Pages: 1 -->
<svg width="301pt" height="66pt"
 viewBox="0.00 0.00 301.00 66.00" xmlns="http://www.w3.org/2000/svg" xmlns:xlink="http://www.w3.org/1999/xlink">
<g id="graph0" class="graph" transform="scale(1 1) rotate(0) translate(4 62)">
<title>mutt_autocrypt_db_peer_history_insert</title>
<polygon fill="#ffffff" stroke="transparent" points="-4,4 -4,-62 297,-62 297,4 -4,4"/>
<!-- Node11284 -->
<g id="node1" class="node">
<title>Node11284</title>
<polygon fill="#bfbfbf" stroke="#000000" points="0,-14 0,-44 136,-44 136,-14 0,-14"/>
<text text-anchor="start" x="8" y="-32" font-family="Helvetica,sans-Serif" font-size="10.00" fill="#000000">mutt_autocrypt_db_peer</text>
<text text-anchor="middle" x="68" y="-21" font-family="Helvetica,sans-Serif" font-size="10.00" fill="#000000">_history_insert</text>
</g>
<!-- Node11285 -->
<g id="node2" class="node">
<title>Node11285</title>
<g id="a_node2"><a xlink:href="autocrypt_2db_8c.html#ac69f3bce090a325d5e948460707899bc" target="_top" xlink:title="Copy a normalised Email Address. ">
<polygon fill="#ffffff" stroke="#ff0000" points="172,-38.5 172,-57.5 293,-57.5 293,-38.5 172,-38.5"/>
<text text-anchor="middle" x="232.5" y="-45.5" font-family="Helvetica,sans-Serif" font-size="10.00" fill="#000000">copy_normalize_addr</text>
</a>
</g>
</g>
<!-- Node11284&#45;&gt;Node11285 -->
<g id="edge1" class="edge">
<title>Node11284&#45;&gt;Node11285</title>
<path fill="none" stroke="#191970" d="M136.3337,-36.8926C144.7432,-37.864 153.3525,-38.8583 161.7962,-39.8336"/>
<polygon fill="#191970" stroke="#191970" points="161.6534,-43.3403 171.989,-41.0109 162.4567,-36.3865 161.6534,-43.3403"/>
</g>
<!-- Node11322 -->
<g id="node3" class="node">
<title>Node11322</title>
<g id="a_node3"><a xlink:href="address_2address_8c.html#a40eda06e6e64ff9d9f1e7d3b69e7c846" target="_top" xlink:title="Free a single Address. ">
<polygon fill="#ffffff" stroke="#000000" points="186.5,-.5 186.5,-19.5 278.5,-19.5 278.5,-.5 186.5,-.5"/>
<text text-anchor="middle" x="232.5" y="-7.5" font-family="Helvetica,sans-Serif" font-size="10.00" fill="#000000">mutt_addr_free</text>
</a>
</g>
</g>
<!-- Node11284&#45;&gt;Node11322 -->
<g id="edge2" class="edge">
<title>Node11284&#45;&gt;Node11322</title>
<path fill="none" stroke="#191970" d="M136.3337,-21.1074C149.5679,-19.5788 163.2971,-17.993 176.0968,-16.5147"/>
<polygon fill="#191970" stroke="#191970" points="176.603,-19.9795 186.1353,-15.3552 175.7998,-13.0258 176.603,-19.9795"/>
</g>
</g>
</svg>
