<?xml version="1.0" encoding="UTF-8" standalone="no"?>
<!DOCTYPE svg PUBLIC "-//W3C//DTD SVG 1.1//EN"
 "http://www.w3.org/Graphics/SVG/1.1/DTD/svg11.dtd">
<!-- Generated by graphviz version 12.2.1 (20241206.2353)
 -->
<!-- Title: mutt_autocrypt_gpgme_select_key Pages: 1 -->
<svg width="330pt" height="168pt"
 viewBox="0.00 0.00 330.25 168.25" xmlns="http://www.w3.org/2000/svg" xmlns:xlink="http://www.w3.org/1999/xlink">
<g id="graph0" class="graph" transform="scale(1 1) rotate(0) translate(4 164.25)">
<title>mutt_autocrypt_gpgme_select_key</title>
<!-- Node1 -->
<g id="Node000001" class="node">
<title>Node1</title>
<g id="a_Node000001"><a xlink:title="Select a Autocrypt key.">
<polygon fill="#999999" stroke="#666666" points="125.5,-89.38 0,-89.38 0,-52.88 125.5,-52.88 125.5,-89.38"/>
<text text-anchor="start" x="8" y="-75.88" font-family="Helvetica,sans-Serif" font-size="10.00">mutt_autocrypt_gpgme</text>
<text text-anchor="middle" x="62.75" y="-61.62" font-family="Helvetica,sans-Serif" font-size="10.00">_select_key</text>
</a>
</g>
</g>
<!-- Node2 -->
<g id="Node000002" class="node">
<title>Node2</title>
<g id="a_Node000002"><a xlink:href="buffer_8h.html#a728ebc5a947b77c8d56db44ce553a7ab" target="_top" xlink:title="Convert a buffer to a const char * &quot;string&quot;.">
<polygon fill="white" stroke="#666666" points="273.5,-142.25 210.25,-142.25 210.25,-120 273.5,-120 273.5,-142.25"/>
<text text-anchor="middle" x="241.88" y="-128.75" font-family="Helvetica,sans-Serif" font-size="10.00">buf_string</text>
</a>
</g>
</g>
<!-- Node1&#45;&gt;Node2 -->
<g id="edge1_Node000001_Node000002" class="edge">
<title>Node1&#45;&gt;Node2</title>
<g id="a_edge1_Node000001_Node000002"><a xlink:title=" ">
<path fill="none" stroke="#63b8ff" d="M105.6,-89.78C122.73,-97 142.86,-105 161.5,-111.12 173.59,-115.1 186.94,-118.74 199.19,-121.8"/>
<polygon fill="#63b8ff" stroke="#63b8ff" points="198.04,-125.12 208.58,-124.08 199.69,-118.32 198.04,-125.12"/>
</a>
</g>
</g>
<!-- Node3 -->
<g id="Node000003" class="node">
<title>Node3</title>
<g id="a_Node000003"><a xlink:href="gpgme_8c.html#aa667cdd7c0982ff566f8e521849e2341" target="_top" xlink:title="Create a GPGME context.">
<polygon fill="#fff0f0" stroke="red" points="302.75,-102.25 181,-102.25 181,-80 302.75,-80 302.75,-102.25"/>
<text text-anchor="middle" x="241.88" y="-88.75" font-family="Helvetica,sans-Serif" font-size="10.00">create_gpgme_context</text>
</a>
</g>
</g>
<!-- Node1&#45;&gt;Node3 -->
<g id="edge3_Node000001_Node000003" class="edge">
<title>Node1&#45;&gt;Node3</title>
<g id="a_edge3_Node000001_Node000003"><a xlink:title=" ">
<path fill="none" stroke="#63b8ff" d="M125.7,-78.12C139.79,-79.71 154.87,-81.41 169.32,-83.05"/>
<polygon fill="#63b8ff" stroke="#63b8ff" points="168.92,-86.52 179.25,-84.17 169.7,-79.57 168.92,-86.52"/>
</a>
</g>
</g>
<!-- Node25 -->
<g id="Node000025" class="node">
<title>Node25</title>
<g id="a_Node000025"><a xlink:href="gpgme_8c.html#ac62789dd0851fe61080dee55a587649d" target="_top" xlink:title="Export Key data from GPGME into a Buffer.">
<polygon fill="#fff0f0" stroke="red" points="285.5,-62.25 198.25,-62.25 198.25,-40 285.5,-40 285.5,-62.25"/>
<text text-anchor="middle" x="241.88" y="-48.75" font-family="Helvetica,sans-Serif" font-size="10.00">export_keydata</text>
</a>
</g>
</g>
<!-- Node1&#45;&gt;Node25 -->
<g id="edge4_Node000001_Node000025" class="edge">
<title>Node1&#45;&gt;Node25</title>
<g id="a_edge4_Node000001_Node000025"><a xlink:title=" ">
<path fill="none" stroke="#63b8ff" d="M125.7,-64.13C145.54,-61.89 167.34,-59.43 186.59,-57.25"/>
<polygon fill="#63b8ff" stroke="#63b8ff" points="186.85,-60.75 196.39,-56.15 186.06,-53.79 186.85,-60.75"/>
</a>
</g>
</g>
<!-- Node29 -->
<g id="Node000029" class="node">
<title>Node29</title>
<g id="a_Node000029"><a xlink:href="crypt__gpgme_8c.html#a2e8df329d00791c453eb6b3f60eabfdf" target="_top" xlink:title="Select a private Autocrypt key for a new account.">
<polygon fill="#fff0f0" stroke="red" points="322.25,-22.25 161.5,-22.25 161.5,0 322.25,0 322.25,-22.25"/>
<text text-anchor="middle" x="241.88" y="-8.75" font-family="Helvetica,sans-Serif" font-size="10.00">mutt_gpgme_select_secret_key</text>
</a>
</g>
</g>
<!-- Node1&#45;&gt;Node29 -->
<g id="edge5_Node000001_Node000029" class="edge">
<title>Node1&#45;&gt;Node29</title>
<g id="a_edge5_Node000001_Node000029"><a xlink:title=" ">
<path fill="none" stroke="#63b8ff" d="M105.6,-52.47C122.73,-45.25 142.86,-37.25 161.5,-31.12 167.32,-29.21 173.43,-27.37 179.58,-25.64"/>
<polygon fill="#63b8ff" stroke="#63b8ff" points="180.41,-29.04 189.14,-23.04 178.57,-22.29 180.41,-29.04"/>
</a>
</g>
</g>
<!-- Node2&#45;&gt;Node2 -->
<g id="edge2_Node000002_Node000002" class="edge">
<title>Node2&#45;&gt;Node2</title>
<g id="a_edge2_Node000002_Node000002"><a xlink:title=" ">
<path fill="none" stroke="#63b8ff" d="M212.63,-142.49C201.69,-151.28 211.44,-160.25 241.88,-160.25 258.52,-160.25 268.98,-157.57 273.25,-153.7"/>
<polygon fill="#63b8ff" stroke="#63b8ff" points="276.71,-153.14 271.41,-143.97 269.83,-154.45 276.71,-153.14"/>
</a>
</g>
</g>
</g>
</svg>
