<?xml version="1.0" encoding="UTF-8" standalone="no"?>
<!DOCTYPE svg PUBLIC "-//W3C//DTD SVG 1.1//EN"
 "http://www.w3.org/Graphics/SVG/1.1/DTD/svg11.dtd">
<!-- Generated by graphviz version 2.40.1 (20161225.0304)
 -->
<!-- Title: mutt_b64_decode Pages: 1 -->
<svg width="285pt" height="142pt"
 viewBox="0.00 0.00 285.00 142.00" xmlns="http://www.w3.org/2000/svg" xmlns:xlink="http://www.w3.org/1999/xlink">
<g id="graph0" class="graph" transform="scale(1 1) rotate(0) translate(4 138)">
<title>mutt_b64_decode</title>
<polygon fill="#ffffff" stroke="transparent" points="-4,4 -4,-138 281,-138 281,4 -4,4"/>
<!-- Node587 -->
<g id="node1" class="node">
<title>Node587</title>
<polygon fill="#bfbfbf" stroke="#000000" points="0,-57.5 0,-76.5 104,-76.5 104,-57.5 0,-57.5"/>
<text text-anchor="middle" x="52" y="-64.5" font-family="Helvetica,sans-Serif" font-size="10.00" fill="#000000">mutt_b64_decode</text>
</g>
<!-- Node588 -->
<g id="node2" class="node">
<title>Node588</title>
<g id="a_node2"><a xlink:href="rfc2047_8c.html#a7bc348d3286019d04ba25d666fb86901" target="_top" xlink:title="Decode an RFC2047&#45;encoded string. ">
<polygon fill="#ffffff" stroke="#ff0000" points="168,-114.5 168,-133.5 249,-133.5 249,-114.5 168,-114.5"/>
<text text-anchor="middle" x="208.5" y="-121.5" font-family="Helvetica,sans-Serif" font-size="10.00" fill="#000000">decode_word</text>
</a>
</g>
</g>
<!-- Node587&#45;&gt;Node588 -->
<g id="edge1" class="edge">
<title>Node587&#45;&gt;Node588</title>
<path fill="none" stroke="#191970" d="M81.3079,-80.856C98.2343,-88.5535 120.0592,-97.9664 140,-105 149.7764,-108.4484 160.5122,-111.6794 170.5251,-114.4645"/>
<polygon fill="#191970" stroke="#191970" points="82.5067,-77.5548 71.9593,-76.5529 79.5798,-83.9136 82.5067,-77.5548"/>
</g>
<!-- Node1114 -->
<g id="node3" class="node">
<title>Node1114</title>
<g id="a_node3"><a xlink:href="pop_2auth_8c.html#ace3d7211632d26c38d1d05baedc0203f" target="_top" xlink:title="Authenticate a POP connection using OAUTHBEARER &#45; Implements PopAuth::authenticate() ...">
<polygon fill="#ffffff" stroke="#000000" points="161,-76.5 161,-95.5 256,-95.5 256,-76.5 161,-76.5"/>
<text text-anchor="middle" x="208.5" y="-83.5" font-family="Helvetica,sans-Serif" font-size="10.00" fill="#000000">pop_auth_oauth</text>
</a>
</g>
</g>
<!-- Node587&#45;&gt;Node1114 -->
<g id="edge2" class="edge">
<title>Node587&#45;&gt;Node1114</title>
<path fill="none" stroke="#191970" d="M114.1681,-74.5476C129.7057,-76.4339 146.1274,-78.4276 160.8376,-80.2135"/>
<polygon fill="#191970" stroke="#191970" points="114.4612,-71.0575 104.1122,-73.3267 113.6175,-78.0065 114.4612,-71.0575"/>
</g>
<!-- Node905 -->
<g id="node4" class="node">
<title>Node905</title>
<g id="a_node4"><a xlink:href="auth__cram_8c.html#a54b2d394d72e8119c3d217fa64d5598e" target="_top" xlink:title="Authenticate using CRAM&#45;MD5 &#45; Implements ImapAuth::authenticate() ">
<polygon fill="#ffffff" stroke="#000000" points="146,-38.5 146,-57.5 271,-57.5 271,-38.5 146,-38.5"/>
<text text-anchor="middle" x="208.5" y="-45.5" font-family="Helvetica,sans-Serif" font-size="10.00" fill="#000000">imap_auth_cram_md5</text>
</a>
</g>
</g>
<!-- Node587&#45;&gt;Node905 -->
<g id="edge3" class="edge">
<title>Node587&#45;&gt;Node905</title>
<path fill="none" stroke="#191970" d="M114.3017,-59.4362C124.6491,-58.18 135.3851,-56.8766 145.7437,-55.619"/>
<polygon fill="#191970" stroke="#191970" points="113.6175,-55.9935 104.1122,-60.6733 114.4612,-62.9425 113.6175,-55.9935"/>
</g>
<!-- Node1181 -->
<g id="node5" class="node">
<title>Node1181</title>
<g id="a_node5"><a xlink:href="base64_8h.html#a768e7c625e7318c12cfe37bc713d365c" target="_top" xlink:title="Convert null&#45;terminated base64 string to raw bytes. ">
<polygon fill="#ffffff" stroke="#ff0000" points="140,-.5 140,-19.5 277,-19.5 277,-.5 140,-.5"/>
<text text-anchor="middle" x="208.5" y="-7.5" font-family="Helvetica,sans-Serif" font-size="10.00" fill="#000000">mutt_b64_buffer_decode</text>
</a>
</g>
</g>
<!-- Node587&#45;&gt;Node1181 -->
<g id="edge4" class="edge">
<title>Node587&#45;&gt;Node1181</title>
<path fill="none" stroke="#191970" d="M81.3079,-53.144C98.2343,-45.4465 120.0592,-36.0336 140,-29 149.7764,-25.5516 160.5122,-22.3206 170.5251,-19.5355"/>
<polygon fill="#191970" stroke="#191970" points="79.5798,-50.0864 71.9593,-57.4471 82.5067,-56.4452 79.5798,-50.0864"/>
</g>
</g>
</svg>
