<?xml version="1.0" encoding="UTF-8" standalone="no"?>
<!DOCTYPE svg PUBLIC "-//W3C//DTD SVG 1.1//EN"
 "http://www.w3.org/Graphics/SVG/1.1/DTD/svg11.dtd">
<!-- Generated by graphviz version 7.1.0 (0)
 -->
<!-- Title: mutt_bcache_del Pages: 1 -->
<svg width="234pt" height="138pt"
 viewBox="0.00 0.00 234.00 138.00" xmlns="http://www.w3.org/2000/svg" xmlns:xlink="http://www.w3.org/1999/xlink">
<g id="graph0" class="graph" transform="scale(1 1) rotate(0) translate(4 134)">
<title>mutt_bcache_del</title>
<!-- Node1 -->
<g id="node1" class="node">
<title>Node1</title>
<g id="a_node1"><a xlink:title="Delete a file from the Body Cache.">
<polygon fill="#999999" stroke="#666666" points="95,-74 0,-74 0,-55 95,-55 95,-74"/>
<text text-anchor="middle" x="47.5" y="-62" font-family="Helvetica,sans-Serif" font-size="10.00">mutt_bcache_del</text>
</a>
</g>
</g>
<!-- Node2 -->
<g id="node2" class="node">
<title>Node2</title>
<g id="a_node2"><a xlink:href="buffer_8c.html#a9924e74ddcb5280ab380e4627d1fba99" target="_top" xlink:title="Add a string to a Buffer.">
<polygon fill="#fff0f0" stroke="red" points="212,-130 145,-130 145,-111 212,-111 212,-130"/>
<text text-anchor="middle" x="178.5" y="-118" font-family="Helvetica,sans-Serif" font-size="10.00">buf_addstr</text>
</a>
</g>
</g>
<!-- Node1&#45;&gt;Node2 -->
<g id="edge1" class="edge">
<title>Node1&#45;&gt;Node2</title>
<path fill="none" stroke="#63b8ff" d="M69.02,-74.39C85.62,-82.27 109.65,-93.46 131,-102.5 133.99,-103.77 137.1,-105.05 140.23,-106.31"/>
<polygon fill="#63b8ff" stroke="#63b8ff" points="138.83,-109.52 149.42,-109.95 141.41,-103.01 138.83,-109.52"/>
</g>
<!-- Node7 -->
<g id="node3" class="node">
<title>Node7</title>
<g id="a_node3"><a xlink:href="pool_8c.html#a41cba27c25d33cb6822789a2856093f2" target="_top" xlink:title="Get a Buffer from the pool.">
<polygon fill="#fff0f0" stroke="red" points="217,-93 140,-93 140,-74 217,-74 217,-93"/>
<text text-anchor="middle" x="178.5" y="-81" font-family="Helvetica,sans-Serif" font-size="10.00">buf_pool_get</text>
</a>
</g>
</g>
<!-- Node1&#45;&gt;Node7 -->
<g id="edge2" class="edge">
<title>Node1&#45;&gt;Node7</title>
<path fill="none" stroke="#63b8ff" d="M95.44,-71.41C106.24,-73 117.75,-74.7 128.63,-76.3"/>
<polygon fill="#63b8ff" stroke="#63b8ff" points="127.78,-79.71 138.18,-77.71 128.8,-72.79 127.78,-79.71"/>
</g>
<!-- Node10 -->
<g id="node4" class="node">
<title>Node10</title>
<g id="a_node4"><a xlink:href="pool_8c.html#a4cc6068279461cb8628219586dfa35a1" target="_top" xlink:title="Return a Buffer to the pool.">
<polygon fill="#fff0f0" stroke="red" points="226,-56 131,-56 131,-37 226,-37 226,-56"/>
<text text-anchor="middle" x="178.5" y="-44" font-family="Helvetica,sans-Serif" font-size="10.00">buf_pool_release</text>
</a>
</g>
</g>
<!-- Node1&#45;&gt;Node10 -->
<g id="edge3" class="edge">
<title>Node1&#45;&gt;Node10</title>
<path fill="none" stroke="#63b8ff" d="M95.44,-57.95C103.27,-56.86 111.48,-55.71 119.55,-54.59"/>
<polygon fill="#63b8ff" stroke="#63b8ff" points="119.89,-58.07 129.32,-53.22 118.93,-51.14 119.89,-58.07"/>
</g>
<!-- Node15 -->
<g id="node5" class="node">
<title>Node15</title>
<g id="a_node5"><a xlink:href="buffer_8h.html#a728ebc5a947b77c8d56db44ce553a7ab" target="_top" xlink:title="Convert a buffer to a const char * &quot;string&quot;.">
<polygon fill="white" stroke="#666666" points="210.5,-19 146.5,-19 146.5,0 210.5,0 210.5,-19"/>
<text text-anchor="middle" x="178.5" y="-7" font-family="Helvetica,sans-Serif" font-size="10.00">buf_string</text>
</a>
</g>
</g>
<!-- Node1&#45;&gt;Node15 -->
<g id="edge4" class="edge">
<title>Node1&#45;&gt;Node15</title>
<path fill="none" stroke="#63b8ff" d="M70.85,-54.58C87.41,-47.27 110.56,-37.13 131,-28.5 134.65,-26.96 138.46,-25.37 142.27,-23.79"/>
<polygon fill="#63b8ff" stroke="#63b8ff" points="143.52,-27.06 151.44,-20.03 140.86,-20.59 143.52,-27.06"/>
</g>
</g>
</svg>
