<?xml version="1.0" encoding="UTF-8" standalone="no"?>
<!DOCTYPE svg PUBLIC "-//W3C//DTD SVG 1.1//EN"
 "http://www.w3.org/Graphics/SVG/1.1/DTD/svg11.dtd">
<!-- Generated by graphviz version 2.40.1 (20161225.0304)
 -->
<!-- Title: bcache.c Pages: 1 -->
<svg width="907pt" height="140pt"
 viewBox="0.00 0.00 907.00 140.00" xmlns="http://www.w3.org/2000/svg" xmlns:xlink="http://www.w3.org/1999/xlink">
<g id="graph0" class="graph" transform="scale(1 1) rotate(0) translate(4 136)">
<title>bcache.c</title>
<polygon fill="#ffffff" stroke="transparent" points="-4,4 -4,-136 903,-136 903,4 -4,4"/>
<!-- Node0 -->
<g id="node1" class="node">
<title>Node0</title>
<polygon fill="#bfbfbf" stroke="#000000" points="367,-112.5 367,-131.5 426,-131.5 426,-112.5 367,-112.5"/>
<text text-anchor="middle" x="396.5" y="-119.5" font-family="Helvetica,sans-Serif" font-size="10.00" fill="#000000">bcache.c</text>
</g>
<!-- Node1 -->
<g id="node2" class="node">
<title>Node1</title>
<polygon fill="#ffffff" stroke="#bfbfbf" points="0,-56.5 0,-75.5 55,-75.5 55,-56.5 0,-56.5"/>
<text text-anchor="middle" x="27.5" y="-63.5" font-family="Helvetica,sans-Serif" font-size="10.00" fill="#000000">config.h</text>
</g>
<!-- Node0&#45;&gt;Node1 -->
<g id="edge1" class="edge">
<title>Node0&#45;&gt;Node1</title>
<path fill="none" stroke="#191970" d="M366.9773,-119.1749C310.3343,-113.4841 182.3701,-99.3211 65.1493,-75.9111"/>
<polygon fill="#191970" stroke="#191970" points="65.7862,-72.4691 55.2905,-73.9148 64.3969,-79.3299 65.7862,-72.4691"/>
</g>
<!-- Node2 -->
<g id="node3" class="node">
<title>Node2</title>
<polygon fill="#ffffff" stroke="#bfbfbf" points="73.5,-56.5 73.5,-75.5 127.5,-75.5 127.5,-56.5 73.5,-56.5"/>
<text text-anchor="middle" x="100.5" y="-63.5" font-family="Helvetica,sans-Serif" font-size="10.00" fill="#000000">dirent.h</text>
</g>
<!-- Node0&#45;&gt;Node2 -->
<g id="edge2" class="edge">
<title>Node0&#45;&gt;Node2</title>
<path fill="none" stroke="#191970" d="M366.6805,-117.6762C319.9082,-110.689 226.2884,-95.8787 137.5165,-76.0644"/>
<polygon fill="#191970" stroke="#191970" points="138.0816,-72.6039 127.5562,-73.8151 136.5396,-79.432 138.0816,-72.6039"/>
</g>
<!-- Node3 -->
<g id="node4" class="node">
<title>Node3</title>
<polygon fill="#ffffff" stroke="#bfbfbf" points="146,-56.5 146,-75.5 197,-75.5 197,-56.5 146,-56.5"/>
<text text-anchor="middle" x="171.5" y="-63.5" font-family="Helvetica,sans-Serif" font-size="10.00" fill="#000000">errno.h</text>
</g>
<!-- Node0&#45;&gt;Node3 -->
<g id="edge3" class="edge">
<title>Node0&#45;&gt;Node3</title>
<path fill="none" stroke="#191970" d="M366.6986,-114.6023C330.1347,-105.5231 266.2526,-89.6512 211.5,-76 210.0675,-75.6428 208.6061,-75.2783 207.1299,-74.9099"/>
<polygon fill="#191970" stroke="#191970" points="207.8696,-71.4872 197.3195,-72.46 206.1735,-78.2787 207.8696,-71.4872"/>
</g>
<!-- Node4 -->
<g id="node5" class="node">
<title>Node4</title>
<polygon fill="#ffffff" stroke="#bfbfbf" points="654.5,-.5 654.5,-19.5 704.5,-19.5 704.5,-.5 654.5,-.5"/>
<text text-anchor="middle" x="679.5" y="-7.5" font-family="Helvetica,sans-Serif" font-size="10.00" fill="#000000">stdio.h</text>
</g>
<!-- Node0&#45;&gt;Node4 -->
<g id="edge4" class="edge">
<title>Node0&#45;&gt;Node4</title>
<path fill="none" stroke="#191970" d="M366.6666,-119.4751C312.6131,-113.8276 207.3599,-97.2746 244.5,-56 271.0886,-26.4515 545.1523,-14.467 644.1084,-11.0815"/>
<polygon fill="#191970" stroke="#191970" points="644.3296,-14.5761 654.2075,-10.7452 644.0965,-7.58 644.3296,-14.5761"/>
</g>
<!-- Node5 -->
<g id="node6" class="node">
<title>Node5</title>
<polygon fill="#ffffff" stroke="#bfbfbf" points="254,-56.5 254,-75.5 307,-75.5 307,-56.5 254,-56.5"/>
<text text-anchor="middle" x="280.5" y="-63.5" font-family="Helvetica,sans-Serif" font-size="10.00" fill="#000000">string.h</text>
</g>
<!-- Node0&#45;&gt;Node5 -->
<g id="edge5" class="edge">
<title>Node0&#45;&gt;Node5</title>
<path fill="none" stroke="#191970" d="M376.5589,-112.3733C358.0214,-103.4241 330.1972,-89.9917 309.2587,-79.8835"/>
<polygon fill="#191970" stroke="#191970" points="310.7081,-76.6967 300.1809,-75.5011 307.6648,-83.0006 310.7081,-76.6967"/>
</g>
<!-- Node6 -->
<g id="node7" class="node">
<title>Node6</title>
<polygon fill="#ffffff" stroke="#bfbfbf" points="325.5,-56.5 325.5,-75.5 389.5,-75.5 389.5,-56.5 325.5,-56.5"/>
<text text-anchor="middle" x="357.5" y="-63.5" font-family="Helvetica,sans-Serif" font-size="10.00" fill="#000000">sys/stat.h</text>
</g>
<!-- Node0&#45;&gt;Node6 -->
<g id="edge6" class="edge">
<title>Node0&#45;&gt;Node6</title>
<path fill="none" stroke="#191970" d="M389.7067,-112.2455C384.2822,-104.4564 376.5339,-93.3308 369.9967,-83.9439"/>
<polygon fill="#191970" stroke="#191970" points="372.8025,-81.8485 364.2154,-75.6427 367.0583,-85.849 372.8025,-81.8485"/>
</g>
<!-- Node7 -->
<g id="node8" class="node">
<title>Node7</title>
<polygon fill="#ffffff" stroke="#bfbfbf" points="407.5,-56.5 407.5,-75.5 463.5,-75.5 463.5,-56.5 407.5,-56.5"/>
<text text-anchor="middle" x="435.5" y="-63.5" font-family="Helvetica,sans-Serif" font-size="10.00" fill="#000000">unistd.h</text>
</g>
<!-- Node0&#45;&gt;Node7 -->
<g id="edge7" class="edge">
<title>Node0&#45;&gt;Node7</title>
<path fill="none" stroke="#191970" d="M403.2933,-112.2455C408.7178,-104.4564 416.4661,-93.3308 423.0033,-83.9439"/>
<polygon fill="#191970" stroke="#191970" points="425.9417,-85.849 428.7846,-75.6427 420.1975,-81.8485 425.9417,-85.849"/>
</g>
<!-- Node8 -->
<g id="node9" class="node">
<title>Node8</title>
<g id="a_node9"><a xlink:href="mutt_2lib_8h.html" target="_top" xlink:title="Convenience wrapper for the library headers. ">
<polygon fill="#ffffff" stroke="#ff0000" points="481.5,-56.5 481.5,-75.5 545.5,-75.5 545.5,-56.5 481.5,-56.5"/>
<text text-anchor="middle" x="513.5" y="-63.5" font-family="Helvetica,sans-Serif" font-size="10.00" fill="#000000">mutt/lib.h</text>
</a>
</g>
</g>
<!-- Node0&#45;&gt;Node8 -->
<g id="edge8" class="edge">
<title>Node0&#45;&gt;Node8</title>
<path fill="none" stroke="#191970" d="M416.613,-112.3733C435.3103,-103.4241 463.3744,-89.9917 484.4934,-79.8835"/>
<polygon fill="#191970" stroke="#191970" points="486.1405,-82.9755 493.6494,-75.5011 483.1183,-76.6614 486.1405,-82.9755"/>
</g>
<!-- Node48 -->
<g id="node10" class="node">
<title>Node48</title>
<g id="a_node10"><a xlink:href="email_2lib_8h.html" target="_top" xlink:title="Structs that make up an email. ">
<polygon fill="#ffffff" stroke="#ff0000" points="563.5,-56.5 563.5,-75.5 631.5,-75.5 631.5,-56.5 563.5,-56.5"/>
<text text-anchor="middle" x="597.5" y="-63.5" font-family="Helvetica,sans-Serif" font-size="10.00" fill="#000000">email/lib.h</text>
</a>
</g>
</g>
<!-- Node0&#45;&gt;Node48 -->
<g id="edge9" class="edge">
<title>Node0&#45;&gt;Node48</title>
<path fill="none" stroke="#191970" d="M426.1582,-113.737C459.74,-104.3809 514.7932,-89.0427 553.4107,-78.2836"/>
<polygon fill="#191970" stroke="#191970" points="554.6489,-81.572 563.3426,-75.5165 552.7701,-74.8288 554.6489,-81.572"/>
</g>
<!-- Node69 -->
<g id="node11" class="node">
<title>Node69</title>
<g id="a_node11"><a xlink:href="bcache_8h.html" target="_top" xlink:title="Body Caching &#45; local copies of email bodies. ">
<polygon fill="#ffffff" stroke="#000000" points="649.5,-56.5 649.5,-75.5 709.5,-75.5 709.5,-56.5 649.5,-56.5"/>
<text text-anchor="middle" x="679.5" y="-63.5" font-family="Helvetica,sans-Serif" font-size="10.00" fill="#000000">bcache.h</text>
</a>
</g>
</g>
<!-- Node0&#45;&gt;Node69 -->
<g id="edge10" class="edge">
<title>Node0&#45;&gt;Node69</title>
<path fill="none" stroke="#191970" d="M426.2989,-117.0222C470.6418,-109.4763 556.8132,-94.2814 639.5091,-76.117"/>
<polygon fill="#191970" stroke="#191970" points="640.3061,-79.5254 649.3126,-73.9457 638.7924,-72.691 640.3061,-79.5254"/>
</g>
<!-- Node70 -->
<g id="node12" class="node">
<title>Node70</title>
<g id="a_node12"><a xlink:href="mutt__account_8h.html" target="_top" xlink:title="ConnAccount object used by POP and IMAP. ">
<polygon fill="#ffffff" stroke="#000000" points="727.5,-56.5 727.5,-75.5 819.5,-75.5 819.5,-56.5 727.5,-56.5"/>
<text text-anchor="middle" x="773.5" y="-63.5" font-family="Helvetica,sans-Serif" font-size="10.00" fill="#000000">mutt_account.h</text>
</a>
</g>
</g>
<!-- Node0&#45;&gt;Node70 -->
<g id="edge12" class="edge">
<title>Node0&#45;&gt;Node70</title>
<path fill="none" stroke="#191970" d="M426.3009,-118.1274C481.5873,-110.8601 604.0053,-94.3811 717.4169,-76.1299"/>
<polygon fill="#191970" stroke="#191970" points="717.9957,-79.5819 727.3084,-74.5298 716.8778,-72.6717 717.9957,-79.5819"/>
</g>
<!-- Node71 -->
<g id="node13" class="node">
<title>Node71</title>
<g id="a_node13"><a xlink:href="muttlib_8h.html" target="_top" xlink:title="Some miscellaneous functions. ">
<polygon fill="#ffffff" stroke="#ff0000" points="838,-56.5 838,-75.5 899,-75.5 899,-56.5 838,-56.5"/>
<text text-anchor="middle" x="868.5" y="-63.5" font-family="Helvetica,sans-Serif" font-size="10.00" fill="#000000">muttlib.h</text>
</a>
</g>
</g>
<!-- Node0&#45;&gt;Node71 -->
<g id="edge13" class="edge">
<title>Node0&#45;&gt;Node71</title>
<path fill="none" stroke="#191970" d="M426.0313,-120.2747C494.7322,-115.9597 670.7056,-103.1717 827.2974,-75.9914"/>
<polygon fill="#191970" stroke="#191970" points="828.341,-79.3615 837.5825,-74.1802 827.127,-72.4676 828.341,-79.3615"/>
</g>
<!-- Node69&#45;&gt;Node4 -->
<g id="edge11" class="edge">
<title>Node69&#45;&gt;Node4</title>
<path fill="none" stroke="#191970" d="M679.5,-56.2455C679.5,-48.9382 679.5,-38.6944 679.5,-29.7046"/>
<polygon fill="#191970" stroke="#191970" points="683.0001,-29.6426 679.5,-19.6427 676.0001,-29.6427 683.0001,-29.6426"/>
</g>
<!-- Node71&#45;&gt;Node4 -->
<g id="edge14" class="edge">
<title>Node71&#45;&gt;Node4</title>
<path fill="none" stroke="#191970" d="M837.7132,-56.878C803.9163,-46.8641 749.7681,-30.8202 714.414,-20.3449"/>
<polygon fill="#191970" stroke="#191970" points="715.1137,-16.9019 704.5314,-17.4167 713.1251,-23.6135 715.1137,-16.9019"/>
</g>
</g>
</svg>
