<?xml version="1.0" encoding="UTF-8" standalone="no"?>
<!DOCTYPE svg PUBLIC "-//W3C//DTD SVG 1.1//EN"
 "http://www.w3.org/Graphics/SVG/1.1/DTD/svg11.dtd">
<!-- Generated by graphviz version 2.40.1 (20161225.0304)
 -->
<!-- Title: mutt_body_free Pages: 1 -->
<svg width="803pt" height="1338pt"
 viewBox="0.00 0.00 803.00 1338.29" xmlns="http://www.w3.org/2000/svg" xmlns:xlink="http://www.w3.org/1999/xlink">
<g id="graph0" class="graph" transform="scale(1 1) rotate(0) translate(4 1334.2866)">
<title>mutt_body_free</title>
<polygon fill="#ffffff" stroke="transparent" points="-4,4 -4,-1334.2866 799,-1334.2866 799,4 -4,4"/>
<!-- Node24 -->
<g id="node1" class="node">
<title>Node24</title>
<polygon fill="#bfbfbf" stroke="#000000" points="0,-671.5 0,-690.5 94,-690.5 94,-671.5 0,-671.5"/>
<text text-anchor="middle" x="47" y="-678.5" font-family="Helvetica,sans-Serif" font-size="10.00" fill="#000000">mutt_body_free</text>
</g>
<!-- Node24&#45;&gt;Node24 -->
<g id="edge11" class="edge">
<title>Node24&#45;&gt;Node24</title>
<path fill="none" stroke="#191970" d="M15.9371,-699.2746C16.8228,-704.741 27.1771,-709 47,-709 76.5039,-709 85.0324,-699.5653 72.5854,-690.7571"/>
<polygon fill="#191970" stroke="#191970" points="18.9495,-701.0611 21.4146,-690.7571 13.0618,-697.2749 18.9495,-701.0611"/>
</g>
<!-- Node25 -->
<g id="node2" class="node">
<title>Node25</title>
<g id="a_node2"><a xlink:href="browser_8h.html#a1b1aafefc53b33c690bc1fb659ec88db" target="_top" xlink:title="Let the user select a file. ">
<polygon fill="#ffffff" stroke="#ff0000" points="343.5,-1165.5 343.5,-1184.5 471.5,-1184.5 471.5,-1165.5 343.5,-1165.5"/>
<text text-anchor="middle" x="407.5" y="-1172.5" font-family="Helvetica,sans-Serif" font-size="10.00" fill="#000000">mutt_buffer_select_file</text>
</a>
</g>
</g>
<!-- Node24&#45;&gt;Node25 -->
<g id="edge1" class="edge">
<title>Node24&#45;&gt;Node25</title>
<path fill="none" stroke="#191970" d="M47.3594,-701.0617C49.2829,-783.3939 61.0712,-1093.9306 130,-1156 197.4636,-1216.7501 315.4976,-1198.5203 373.4432,-1184.5494"/>
<polygon fill="#191970" stroke="#191970" points="50.8497,-700.5516 47.1416,-690.6269 43.8512,-700.6978 50.8497,-700.5516"/>
</g>
<!-- Node112 -->
<g id="node3" class="node">
<title>Node112</title>
<g id="a_node3"><a xlink:href="commands_8h.html#a9b5874c3558cb300404bb50f60fc6a31" target="_top" xlink:title="Edit the content type of an attachment. ">
<polygon fill="#ffffff" stroke="#ff0000" points="341,-1013.5 341,-1032.5 474,-1032.5 474,-1013.5 341,-1013.5"/>
<text text-anchor="middle" x="407.5" y="-1020.5" font-family="Helvetica,sans-Serif" font-size="10.00" fill="#000000">mutt_edit_content_type</text>
</a>
</g>
</g>
<!-- Node24&#45;&gt;Node112 -->
<g id="edge2" class="edge">
<title>Node24&#45;&gt;Node112</title>
<path fill="none" stroke="#191970" d="M49.5565,-700.7811C57.8848,-762.0102 86.2464,-946.6113 130,-985 188.8489,-1036.633 283.4346,-1038.3513 345.5308,-1032.5161"/>
<polygon fill="#191970" stroke="#191970" points="52.9841,-700.0039 48.1971,-690.5522 46.0451,-700.9262 52.9841,-700.0039"/>
</g>
<!-- Node31 -->
<g id="node4" class="node">
<title>Node31</title>
<g id="a_node4"><a xlink:href="compose_8h.html#a54b78dfdc053feef431b5c05177cc013" target="_top" xlink:title="Allow the user to edit the message envelope. ">
<polygon fill="#ffffff" stroke="#000000" points="519,-1070.5 519,-1089.5 641,-1089.5 641,-1070.5 519,-1070.5"/>
<text text-anchor="middle" x="580" y="-1077.5" font-family="Helvetica,sans-Serif" font-size="10.00" fill="#000000">mutt_compose_menu</text>
</a>
</g>
</g>
<!-- Node24&#45;&gt;Node31 -->
<g id="edge7" class="edge">
<title>Node24&#45;&gt;Node31</title>
<path fill="none" stroke="#191970" d="M48.7402,-700.8879C56.8208,-791.0091 91.9056,-1158.1136 130,-1191 189.3809,-1242.2628 411.7891,-1226.9088 483,-1194 530.8866,-1171.8701 563.8216,-1113.1537 575.4062,-1089.79"/>
<polygon fill="#191970" stroke="#191970" points="52.2235,-700.5439 47.8535,-690.8923 45.2509,-701.1625 52.2235,-700.5439"/>
</g>
<!-- Node32 -->
<g id="node5" class="node">
<title>Node32</title>
<g id="a_node5"><a xlink:href="send_8h.html#a9a131da5ee0f643956737d137c5523b0" target="_top" xlink:title="Send an email. ">
<polygon fill="#ffffff" stroke="#ff0000" points="677,-899.5 677,-918.5 795,-918.5 795,-899.5 677,-899.5"/>
<text text-anchor="middle" x="736" y="-906.5" font-family="Helvetica,sans-Serif" font-size="10.00" fill="#000000">mutt_send_message</text>
</a>
</g>
</g>
<!-- Node24&#45;&gt;Node32 -->
<g id="edge45" class="edge">
<title>Node24&#45;&gt;Node32</title>
<path fill="none" stroke="#191970" d="M48.337,-700.8256C55.1094,-798.3876 87.0007,-1224.3726 130,-1263 246.7346,-1367.8658 339.2391,-1332.9014 483,-1270 642.8622,-1200.0536 718.6527,-968.3494 733.3195,-918.5008"/>
<polygon fill="#191970" stroke="#191970" points="51.8273,-700.5632 47.6515,-690.826 44.8437,-701.042 51.8273,-700.5632"/>
</g>
<!-- Node534 -->
<g id="node6" class="node">
<title>Node534</title>
<g id="a_node6"><a xlink:href="compose_8c.html#a81116139e0a71a3bd2b6967f7dcaa71b" target="_top" xlink:title="Delete an attachment. ">
<polygon fill="#ffffff" stroke="#000000" points="353,-1089.5 353,-1108.5 462,-1108.5 462,-1089.5 353,-1089.5"/>
<text text-anchor="middle" x="407.5" y="-1096.5" font-family="Helvetica,sans-Serif" font-size="10.00" fill="#000000">delete_attachment</text>
</a>
</g>
</g>
<!-- Node24&#45;&gt;Node534 -->
<g id="edge5" class="edge">
<title>Node24&#45;&gt;Node534</title>
<path fill="none" stroke="#191970" d="M48.4008,-700.9758C53.8222,-772.2034 75.8792,-1012.1418 130,-1062 190.0545,-1117.3245 290.7967,-1115.9701 352.9608,-1108.5017"/>
<polygon fill="#191970" stroke="#191970" points="51.8701,-700.4275 47.6474,-690.7106 44.8888,-700.94 51.8701,-700.4275"/>
</g>
<!-- Node118 -->
<g id="node7" class="node">
<title>Node118</title>
<g id="a_node7"><a xlink:href="copy_8h.html#ac158be102976481a9c8edc42fcd8cd09" target="_top" xlink:title="make a copy of a message from a FILE pointer ">
<polygon fill="#ffffff" stroke="#ff0000" points="146.5,-709.5 146.5,-728.5 279.5,-728.5 279.5,-709.5 146.5,-709.5"/>
<text text-anchor="middle" x="213" y="-716.5" font-family="Helvetica,sans-Serif" font-size="10.00" fill="#000000">mutt_copy_message_fp</text>
</a>
</g>
</g>
<!-- Node24&#45;&gt;Node118 -->
<g id="edge8" class="edge">
<title>Node24&#45;&gt;Node118</title>
<path fill="none" stroke="#191970" d="M98.6534,-692.8243C122.0564,-698.1816 149.3571,-704.4311 171.4124,-709.4799"/>
<polygon fill="#191970" stroke="#191970" points="99.4177,-689.4088 88.8888,-690.589 97.8556,-696.2323 99.4177,-689.4088"/>
</g>
<!-- Node535 -->
<g id="node8" class="node">
<title>Node535</title>
<g id="a_node8"><a xlink:href="attach_8h.html#a773158419b51bd96d4a7249422d21f73" target="_top" xlink:title="Free entries in an Attachment Context. ">
<polygon fill="#ffffff" stroke="#ff0000" points="342.5,-1051.5 342.5,-1070.5 472.5,-1070.5 472.5,-1051.5 342.5,-1051.5"/>
<text text-anchor="middle" x="407.5" y="-1058.5" font-family="Helvetica,sans-Serif" font-size="10.00" fill="#000000">mutt_actx_entries_free</text>
</a>
</g>
</g>
<!-- Node24&#45;&gt;Node535 -->
<g id="edge9" class="edge">
<title>Node24&#45;&gt;Node535</title>
<path fill="none" stroke="#191970" d="M48.9453,-701.0403C55.8213,-767.5069 81.23,-978.9669 130,-1023 189.1914,-1076.4423 286.4299,-1077.0069 348.6755,-1070.5106"/>
<polygon fill="#191970" stroke="#191970" points="52.389,-700.3035 47.9062,-690.7038 45.4241,-701.0038 52.389,-700.3035"/>
</g>
<!-- Node540 -->
<g id="node9" class="node">
<title>Node540</title>
<g id="a_node9"><a xlink:href="email_8h.html#ae9f719d3fc31d00b92bcf9f77d56ee67" target="_top" xlink:title="Free an Email. ">
<polygon fill="#ffffff" stroke="#ff0000" points="178.5,-956.5 178.5,-975.5 247.5,-975.5 247.5,-956.5 178.5,-956.5"/>
<text text-anchor="middle" x="213" y="-963.5" font-family="Helvetica,sans-Serif" font-size="10.00" fill="#000000">email_free</text>
</a>
</g>
</g>
<!-- Node24&#45;&gt;Node540 -->
<g id="edge12" class="edge">
<title>Node24&#45;&gt;Node540</title>
<path fill="none" stroke="#191970" d="M49.4182,-700.6915C55.236,-744.3016 73.9654,-849.0183 130,-914 148.7586,-935.7538 181.2551,-947.982 199.5252,-956.4322"/>
<polygon fill="#191970" stroke="#191970" points="52.89,-700.2471 48.1764,-690.7586 45.9441,-701.1155 52.89,-700.2471"/>
</g>
<!-- Node115 -->
<g id="node10" class="node">
<title>Node115</title>
<g id="a_node10"><a xlink:href="parse_8h.html#ad5c83c39801d48f7bb7af082d599a687" target="_top" xlink:title="parse a multipart structure ">
<polygon fill="#ffffff" stroke="#ff0000" points="152,-595.5 152,-614.5 274,-614.5 274,-595.5 152,-595.5"/>
<text text-anchor="middle" x="213" y="-602.5" font-family="Helvetica,sans-Serif" font-size="10.00" fill="#000000">mutt_parse_multipart</text>
</a>
</g>
</g>
<!-- Node24&#45;&gt;Node115 -->
<g id="edge16" class="edge">
<title>Node24&#45;&gt;Node115</title>
<path fill="none" stroke="#191970" d="M68.1151,-665.4567C84.3635,-654.0821 107.7352,-638.9583 130,-629 143.1451,-623.1206 158.1033,-618.2758 171.6661,-614.5163"/>
<polygon fill="#191970" stroke="#191970" points="65.9834,-662.678 59.8733,-671.3335 70.0475,-668.3774 65.9834,-662.678"/>
</g>
<!-- Node116 -->
<g id="node11" class="node">
<title>Node116</title>
<g id="a_node11"><a xlink:href="handler_8c.html#aab3262f62a3d18119e23b733fa09164c" target="_top" xlink:title="Handler for multipart alternative emails &#45; Implements handler_t. ">
<polygon fill="#ffffff" stroke="#ff0000" points="351.5,-652.5 351.5,-671.5 463.5,-671.5 463.5,-652.5 351.5,-652.5"/>
<text text-anchor="middle" x="407.5" y="-659.5" font-family="Helvetica,sans-Serif" font-size="10.00" fill="#000000">alternative_handler</text>
</a>
</g>
</g>
<!-- Node24&#45;&gt;Node116 -->
<g id="edge21" class="edge">
<title>Node24&#45;&gt;Node116</title>
<path fill="none" stroke="#191970" d="M104.2056,-677.985C171.9949,-674.4122 284.2062,-668.4981 351.4748,-664.9528"/>
<polygon fill="#191970" stroke="#191970" points="103.931,-674.4945 94.1291,-678.5161 104.2995,-681.4848 103.931,-674.4945"/>
</g>
<!-- Node163 -->
<g id="node12" class="node">
<title>Node163</title>
<g id="a_node12"><a xlink:href="handler_8c.html#aa5d200d8ce365cf1ece6cc11da5a9de2" target="_top" xlink:title="Handler for multi&#45;lingual emails &#45; Implements handler_t. ">
<polygon fill="#ffffff" stroke="#ff0000" points="349,-604.5 349,-623.5 466,-623.5 466,-604.5 349,-604.5"/>
<text text-anchor="middle" x="407.5" y="-611.5" font-family="Helvetica,sans-Serif" font-size="10.00" fill="#000000">multilingual_handler</text>
</a>
</g>
</g>
<!-- Node24&#45;&gt;Node163 -->
<g id="edge22" class="edge">
<title>Node24&#45;&gt;Node163</title>
<path fill="none" stroke="#191970" d="M102.4645,-669.4497C111.6546,-667.5905 121.09,-665.7149 130,-664 207.0331,-649.1733 296.3618,-633.3166 352.4074,-623.5292"/>
<polygon fill="#191970" stroke="#191970" points="101.7259,-666.0281 92.6248,-671.4523 103.122,-672.8875 101.7259,-666.0281"/>
</g>
<!-- Node164 -->
<g id="node13" class="node">
<title>Node164</title>
<g id="a_node13"><a xlink:href="handler_8c.html#a057547777eaf6251138ef699cd0796dc" target="_top" xlink:title="Handler for multipart emails &#45; Implements handler_t. ">
<polygon fill="#ffffff" stroke="#ff0000" points="355.5,-566.5 355.5,-585.5 459.5,-585.5 459.5,-566.5 355.5,-566.5"/>
<text text-anchor="middle" x="407.5" y="-573.5" font-family="Helvetica,sans-Serif" font-size="10.00" fill="#000000">multipart_handler</text>
</a>
</g>
</g>
<!-- Node24&#45;&gt;Node164 -->
<g id="edge23" class="edge">
<title>Node24&#45;&gt;Node164</title>
<path fill="none" stroke="#191970" d="M56.8488,-662.4468C70.0696,-639.7187 95.8941,-602.2387 130,-586 203.3422,-551.0799 300.358,-557.7965 358.1091,-566.4675"/>
<polygon fill="#191970" stroke="#191970" points="53.6405,-661.0135 51.8216,-671.4511 59.7524,-664.426 53.6405,-661.0135"/>
</g>
<!-- Node162 -->
<g id="node14" class="node">
<title>Node162</title>
<g id="a_node14"><a xlink:href="handler_8c.html#a0ab5b59c22636dd3d02267af588d4ace" target="_top" xlink:title="Handler for message/rfc822 body parts &#45; Implements handler_t. ">
<polygon fill="#ffffff" stroke="#ff0000" points="161.5,-519.5 161.5,-538.5 264.5,-538.5 264.5,-519.5 161.5,-519.5"/>
<text text-anchor="middle" x="213" y="-526.5" font-family="Helvetica,sans-Serif" font-size="10.00" fill="#000000">message_handler</text>
</a>
</g>
</g>
<!-- Node24&#45;&gt;Node162 -->
<g id="edge20" class="edge">
<title>Node24&#45;&gt;Node162</title>
<path fill="none" stroke="#191970" d="M54.3069,-661.7841C65.9847,-633.664 91.5293,-581.5535 130,-553 139.1541,-546.2057 150.1882,-541.3303 161.1791,-537.8332"/>
<polygon fill="#191970" stroke="#191970" points="50.9701,-660.7027 50.5122,-671.2876 57.471,-663.2985 50.9701,-660.7027"/>
</g>
<!-- Node124 -->
<g id="node15" class="node">
<title>Node124</title>
<g id="a_node15"><a xlink:href="shared_8c.html#ab449581b7e9a8cbdca031bb0d80573d2" target="_top" xlink:title="Sync a message in an MH folder. ">
<polygon fill="#ffffff" stroke="#ff0000" points="152,-481.5 152,-500.5 274,-500.5 274,-481.5 152,-481.5"/>
<text text-anchor="middle" x="213" y="-488.5" font-family="Helvetica,sans-Serif" font-size="10.00" fill="#000000">mh_rewrite_message</text>
</a>
</g>
</g>
<!-- Node24&#45;&gt;Node124 -->
<g id="edge24" class="edge">
<title>Node24&#45;&gt;Node124</title>
<path fill="none" stroke="#191970" d="M50.7584,-661.2823C58.6808,-625.3497 80.5968,-549.299 130,-510 136.3628,-504.9386 143.8226,-501.175 151.6145,-498.3852"/>
<polygon fill="#191970" stroke="#191970" points="47.2552,-660.9405 48.6608,-671.4416 54.1106,-662.356 47.2552,-660.9405"/>
</g>
<!-- Node130 -->
<g id="node16" class="node">
<title>Node130</title>
<g id="a_node16"><a xlink:href="mbox_8c.html#a720073959dad19e7a9b3b8f5685090cf" target="_top" xlink:title="Save changes to the Mailbox &#45; Implements MxOps::mbox_sync() ">
<polygon fill="#ffffff" stroke="#000000" points="160.5,-443.5 160.5,-462.5 265.5,-462.5 265.5,-443.5 160.5,-443.5"/>
<text text-anchor="middle" x="213" y="-450.5" font-family="Helvetica,sans-Serif" font-size="10.00" fill="#000000">mbox_mbox_sync</text>
</a>
</g>
</g>
<!-- Node24&#45;&gt;Node130 -->
<g id="edge25" class="edge">
<title>Node24&#45;&gt;Node130</title>
<path fill="none" stroke="#191970" d="M48.8254,-661.3376C53.7855,-619.6893 71.3637,-522.2878 130,-472 138.528,-464.6862 149.3076,-460.0404 160.2505,-457.1231"/>
<polygon fill="#191970" stroke="#191970" points="45.3425,-660.9919 47.7575,-671.3078 52.3027,-661.7375 45.3425,-660.9919"/>
</g>
<!-- Node203 -->
<g id="node17" class="node">
<title>Node203</title>
<g id="a_node17"><a xlink:href="mutt__attach_8h.html#acf4b24753bffc9e93f0ec9c157c850fe" target="_top" xlink:title="Create an attachment. ">
<polygon fill="#ffffff" stroke="#000000" points="332,-1241.5 332,-1260.5 483,-1260.5 483,-1241.5 332,-1241.5"/>
<text text-anchor="middle" x="407.5" y="-1248.5" font-family="Helvetica,sans-Serif" font-size="10.00" fill="#000000">mutt_compose_attachment</text>
</a>
</g>
</g>
<!-- Node24&#45;&gt;Node203 -->
<g id="edge26" class="edge">
<title>Node24&#45;&gt;Node203</title>
<path fill="none" stroke="#191970" d="M48.5652,-700.7166C56.1749,-794.2242 90.5489,-1190.0181 130,-1227 195.2675,-1288.1825 311.1225,-1273.4707 370.3654,-1260.6042"/>
<polygon fill="#191970" stroke="#191970" points="52.0454,-700.3287 47.7543,-690.6418 45.068,-700.8904 52.0454,-700.3287"/>
</g>
<!-- Node417 -->
<g id="node18" class="node">
<title>Node417</title>
<g id="a_node18"><a xlink:href="mutt__parse_8h.html#a6a088fd3a15ddf63aad716ac1c25cca8" target="_top" xlink:title="Count the MIME Body parts. ">
<polygon fill="#ffffff" stroke="#ff0000" points="147.5,-405.5 147.5,-424.5 278.5,-424.5 278.5,-405.5 147.5,-405.5"/>
<text text-anchor="middle" x="213" y="-412.5" font-family="Helvetica,sans-Serif" font-size="10.00" fill="#000000">mutt_count_body_parts</text>
</a>
</g>
</g>
<!-- Node24&#45;&gt;Node417 -->
<g id="edge28" class="edge">
<title>Node24&#45;&gt;Node417</title>
<path fill="none" stroke="#191970" d="M51.0208,-661.3504C62.2062,-608.5643 95.1656,-465.5415 130,-434 135.0406,-429.4359 140.9496,-425.8985 147.2522,-423.1663"/>
<polygon fill="#191970" stroke="#191970" points="47.5334,-660.9289 48.9181,-671.4328 54.386,-662.358 47.5334,-660.9289"/>
</g>
<!-- Node348 -->
<g id="node19" class="node">
<title>Node348</title>
<g id="a_node19"><a xlink:href="ncrypt_2lib_8h.html#a896502d4448fefadaf8786a4f2d5556e" target="_top" xlink:title="Encrypt and/or sign a message. ">
<polygon fill="#ffffff" stroke="#000000" points="367.5,-861.5 367.5,-880.5 447.5,-880.5 447.5,-861.5 367.5,-861.5"/>
<text text-anchor="middle" x="407.5" y="-868.5" font-family="Helvetica,sans-Serif" font-size="10.00" fill="#000000">mutt_protect</text>
</a>
</g>
</g>
<!-- Node24&#45;&gt;Node348 -->
<g id="edge29" class="edge">
<title>Node24&#45;&gt;Node348</title>
<path fill="none" stroke="#191970" d="M50.455,-700.8146C57.8806,-736.7994 79.0138,-812.3641 130,-847 201.8005,-895.7754 309.3427,-887.9503 367.2043,-878.9181"/>
<polygon fill="#191970" stroke="#191970" points="53.8222,-699.7881 48.5053,-690.624 46.9469,-701.1036 53.8222,-699.7881"/>
</g>
<!-- Node240 -->
<g id="node20" class="node">
<title>Node240</title>
<g id="a_node20"><a xlink:href="send_8c.html#a346c3cd85de57c0604b128801ed7acfb" target="_top" xlink:title="Save an Email to a &#39;sent mail&#39; folder. ">
<polygon fill="#ffffff" stroke="#000000" points="550.5,-899.5 550.5,-918.5 609.5,-918.5 609.5,-899.5 550.5,-899.5"/>
<text text-anchor="middle" x="580" y="-906.5" font-family="Helvetica,sans-Serif" font-size="10.00" fill="#000000">save_fcc</text>
</a>
</g>
</g>
<!-- Node24&#45;&gt;Node240 -->
<g id="edge43" class="edge">
<title>Node24&#45;&gt;Node240</title>
<path fill="none" stroke="#191970" d="M48.5998,-700.7353C53.1102,-741.9853 69.8486,-837.0572 130,-880 261.2551,-973.7046 472.6564,-935.3815 550.2281,-916.837"/>
<polygon fill="#191970" stroke="#191970" points="52.0679,-700.2347 47.626,-690.616 45.1001,-700.9053 52.0679,-700.2347"/>
</g>
<!-- Node264 -->
<g id="node21" class="node">
<title>Node264</title>
<g id="a_node21"><a xlink:href="send_8c.html#a9ee63da8b2682af625231a103ce05a13" target="_top" xlink:title="Save an Email for another day. ">
<polygon fill="#ffffff" stroke="#000000" points="524.5,-823.5 524.5,-842.5 635.5,-842.5 635.5,-823.5 524.5,-823.5"/>
<text text-anchor="middle" x="580" y="-830.5" font-family="Helvetica,sans-Serif" font-size="10.00" fill="#000000">postpone_message</text>
</a>
</g>
</g>
<!-- Node24&#45;&gt;Node264 -->
<g id="edge44" class="edge">
<title>Node24&#45;&gt;Node264</title>
<path fill="none" stroke="#191970" d="M52.6759,-700.483C62.6881,-730.8855 86.6434,-788.74 130,-814 195.3683,-852.0842 419.0136,-843.451 524.3192,-836.9655"/>
<polygon fill="#191970" stroke="#191970" points="55.924,-699.1417 49.6079,-690.6353 49.2408,-701.2238 55.924,-699.1417"/>
</g>
<!-- Node424 -->
<g id="node22" class="node">
<title>Node424</title>
<g id="a_node22"><a xlink:href="crypt__gpgme_8h.html#a53340a4fb66456050ebb2b14675240af" target="_top" xlink:title="Implements CryptModuleSpecs::decrypt_mime() ">
<polygon fill="#ffffff" stroke="#000000" points="130.5,-367.5 130.5,-386.5 295.5,-386.5 295.5,-367.5 130.5,-367.5"/>
<text text-anchor="middle" x="213" y="-374.5" font-family="Helvetica,sans-Serif" font-size="10.00" fill="#000000">smime_gpgme_decrypt_mime</text>
</a>
</g>
</g>
<!-- Node24&#45;&gt;Node424 -->
<g id="edge35" class="edge">
<title>Node24&#45;&gt;Node424</title>
<path fill="none" stroke="#191970" d="M50.1346,-661.0836C59.729,-602.6263 90.4618,-433.2959 130,-396 133.9787,-392.2469 138.5411,-389.1819 143.4354,-386.6843"/>
<polygon fill="#191970" stroke="#191970" points="46.636,-660.7954 48.5012,-671.2247 53.5469,-661.9086 46.636,-660.7954"/>
</g>
<!-- Node169 -->
<g id="node23" class="node">
<title>Node169</title>
<g id="a_node23"><a xlink:href="crypt__gpgme_8h.html#a49d3535b68adb1b38c4599091d04a7b2" target="_top" xlink:title="Implements CryptModuleSpecs::encrypted_handler() ">
<polygon fill="#ffffff" stroke="#ff0000" points="149,-318 149,-348 277,-348 277,-318 149,-318"/>
<text text-anchor="start" x="157" y="-336" font-family="Helvetica,sans-Serif" font-size="10.00" fill="#000000">pgp_gpgme_encrypted</text>
<text text-anchor="middle" x="213" y="-325" font-family="Helvetica,sans-Serif" font-size="10.00" fill="#000000">_handler</text>
</a>
</g>
</g>
<!-- Node24&#45;&gt;Node169 -->
<g id="edge36" class="edge">
<title>Node24&#45;&gt;Node169</title>
<path fill="none" stroke="#191970" d="M49.5408,-661.1133C58.0064,-597.8256 87.1623,-402.6328 130,-358 135.3146,-352.4627 141.8058,-348.1394 148.7938,-344.7663"/>
<polygon fill="#191970" stroke="#191970" points="46.0311,-660.9595 48.2022,-671.3295 52.9718,-661.869 46.0311,-660.9595"/>
</g>
<!-- Node173 -->
<g id="node24" class="node">
<title>Node173</title>
<g id="a_node24"><a xlink:href="crypt__gpgme_8h.html#a6a916c84aff7214350875cce78777fa5" target="_top" xlink:title="Implements CryptModuleSpecs::application_handler() ">
<polygon fill="#ffffff" stroke="#000000" points="138.5,-269 138.5,-299 287.5,-299 287.5,-269 138.5,-269"/>
<text text-anchor="start" x="146.5" y="-287" font-family="Helvetica,sans-Serif" font-size="10.00" fill="#000000">smime_gpgme_application</text>
<text text-anchor="middle" x="213" y="-276" font-family="Helvetica,sans-Serif" font-size="10.00" fill="#000000">_handler</text>
</a>
</g>
</g>
<!-- Node24&#45;&gt;Node173 -->
<g id="edge37" class="edge">
<title>Node24&#45;&gt;Node173</title>
<path fill="none" stroke="#191970" d="M48.7677,-661.2469C55.3651,-591.8308 80.7357,-360.4451 130,-308 133.1837,-304.6108 136.8134,-301.6904 140.7344,-299.1752"/>
<polygon fill="#191970" stroke="#191970" points="45.2761,-660.9954 47.8395,-671.2754 52.2463,-661.6406 45.2761,-660.9954"/>
</g>
<!-- Node176 -->
<g id="node25" class="node">
<title>Node176</title>
<g id="a_node25"><a xlink:href="pgp_8h.html#a548644e4ab9c58ef526d8b1725f02bf6" target="_top" xlink:title="Implements CryptModuleSpecs::encrypted_handler() ">
<polygon fill="#ffffff" stroke="#000000" points="153.5,-220 153.5,-250 272.5,-250 272.5,-220 153.5,-220"/>
<text text-anchor="start" x="161.5" y="-238" font-family="Helvetica,sans-Serif" font-size="10.00" fill="#000000">pgp_class_encrypted</text>
<text text-anchor="middle" x="213" y="-227" font-family="Helvetica,sans-Serif" font-size="10.00" fill="#000000">_handler</text>
</a>
</g>
</g>
<!-- Node24&#45;&gt;Node176 -->
<g id="edge38" class="edge">
<title>Node24&#45;&gt;Node176</title>
<path fill="none" stroke="#191970" d="M48.2218,-661.1332C53.2435,-585.8514 74.7016,-319.3482 130,-259 136.3843,-252.0327 144.653,-247.0411 153.492,-243.4748"/>
<polygon fill="#191970" stroke="#191970" points="44.726,-660.9571 47.576,-671.1614 51.7115,-661.407 44.726,-660.9571"/>
</g>
<!-- Node179 -->
<g id="node26" class="node">
<title>Node179</title>
<g id="a_node26"><a xlink:href="smime_8h.html#af04b670cb74ccfaac9d020cd6d475867" target="_top" xlink:title="Implements CryptModuleSpecs::application_handler() ">
<polygon fill="#ffffff" stroke="#000000" points="143,-171 143,-201 283,-201 283,-171 143,-171"/>
<text text-anchor="start" x="151" y="-189" font-family="Helvetica,sans-Serif" font-size="10.00" fill="#000000">smime_class_application</text>
<text text-anchor="middle" x="213" y="-178" font-family="Helvetica,sans-Serif" font-size="10.00" fill="#000000">_handler</text>
</a>
</g>
</g>
<!-- Node24&#45;&gt;Node179 -->
<g id="edge39" class="edge">
<title>Node24&#45;&gt;Node179</title>
<path fill="none" stroke="#191970" d="M47.7858,-660.9604C51.3591,-580.0192 68.6527,-278.2929 130,-210 133.7089,-205.8712 138.0795,-202.4346 142.843,-199.5762"/>
<polygon fill="#191970" stroke="#191970" points="44.2767,-661.1086 47.3546,-671.2465 51.2705,-661.4019 44.2767,-661.1086"/>
</g>
<!-- Node412 -->
<g id="node27" class="node">
<title>Node412</title>
<g id="a_node27"><a xlink:href="protos_8h.html#aad14aaca518d6c005ec318f14114d5ec" target="_top" xlink:title="Prepare a message template. ">
<polygon fill="#ffffff" stroke="#ff0000" points="341.5,-709.5 341.5,-728.5 473.5,-728.5 473.5,-709.5 341.5,-709.5"/>
<text text-anchor="middle" x="407.5" y="-716.5" font-family="Helvetica,sans-Serif" font-size="10.00" fill="#000000">mutt_prepare_template</text>
</a>
</g>
</g>
<!-- Node24&#45;&gt;Node412 -->
<g id="edge40" class="edge">
<title>Node24&#45;&gt;Node412</title>
<path fill="none" stroke="#191970" d="M64.4393,-697.7136C80.161,-711.5378 104.6442,-730.1319 130,-738 215.5533,-764.548 322.825,-742.646 375.4198,-728.5694"/>
<polygon fill="#191970" stroke="#191970" points="66.4057,-694.7703 56.6565,-690.6226 61.6913,-699.9447 66.4057,-694.7703"/>
</g>
<!-- Node422 -->
<g id="node28" class="node">
<title>Node422</title>
<g id="a_node28"><a xlink:href="recvattach_8h.html#a7688e395101baa5931494c883909d1da" target="_top" xlink:title="Create a list of attachments. ">
<polygon fill="#ffffff" stroke="#ff0000" points="130,-114.5 130,-133.5 296,-133.5 296,-114.5 130,-114.5"/>
<text text-anchor="middle" x="213" y="-121.5" font-family="Helvetica,sans-Serif" font-size="10.00" fill="#000000">mutt_generate_recvattach_list</text>
</a>
</g>
</g>
<!-- Node24&#45;&gt;Node422 -->
<g id="edge41" class="edge">
<title>Node24&#45;&gt;Node422</title>
<path fill="none" stroke="#191970" d="M47.6979,-661.0615C51.0497,-575.7039 67.9833,-241.76 130,-161 140.1854,-147.7363 156.1661,-139.113 171.3967,-133.5614"/>
<polygon fill="#191970" stroke="#191970" points="44.1947,-661.0838 47.3187,-671.2076 51.1898,-661.3453 44.1947,-661.0838"/>
</g>
<!-- Node428 -->
<g id="node29" class="node">
<title>Node428</title>
<g id="a_node29"><a xlink:href="sendlib_8h.html#af41734ef550be557043b573b7256ad9a" target="_top" xlink:title="Convert an email&#39;s MIME parts to 7&#45;bit. ">
<polygon fill="#ffffff" stroke="#ff0000" points="149,-76.5 149,-95.5 277,-95.5 277,-76.5 149,-76.5"/>
<text text-anchor="middle" x="213" y="-83.5" font-family="Helvetica,sans-Serif" font-size="10.00" fill="#000000">mutt_message_to_7bit</text>
</a>
</g>
</g>
<!-- Node24&#45;&gt;Node428 -->
<g id="edge46" class="edge">
<title>Node24&#45;&gt;Node428</title>
<path fill="none" stroke="#191970" d="M48.5283,-661.2391C56.1549,-564.86 91.2712,-147.0392 130,-105 135.2083,-99.3465 141.7253,-95.2058 148.8044,-92.1966"/>
<polygon fill="#191970" stroke="#191970" points="45.0279,-661.1095 47.7361,-671.3523 52.0065,-661.6562 45.0279,-661.1095"/>
</g>
<!-- Node442 -->
<g id="node30" class="node">
<title>Node442</title>
<g id="a_node30"><a xlink:href="sendlib_8h.html#ac3c97bd11a16a252a685410e35a39dda" target="_top" xlink:title="Create a file attachment. ">
<polygon fill="#ffffff" stroke="#ff0000" points="148.5,-1127.5 148.5,-1146.5 277.5,-1146.5 277.5,-1127.5 148.5,-1127.5"/>
<text text-anchor="middle" x="213" y="-1134.5" font-family="Helvetica,sans-Serif" font-size="10.00" fill="#000000">mutt_make_file_attach</text>
</a>
</g>
</g>
<!-- Node24&#45;&gt;Node442 -->
<g id="edge47" class="edge">
<title>Node24&#45;&gt;Node442</title>
<path fill="none" stroke="#191970" d="M48.1762,-700.7063C53.0887,-776.5818 74.3632,-1048.699 130,-1111 136.5377,-1118.3208 145.1064,-1123.6002 154.2532,-1127.4029"/>
<polygon fill="#191970" stroke="#191970" points="51.6633,-700.3898 47.5466,-690.6275 44.6769,-700.8263 51.6633,-700.3898"/>
</g>
<!-- Node548 -->
<g id="node31" class="node">
<title>Node548</title>
<g id="a_node31"><a xlink:href="sendlib_8h.html#a71d5ccd20fbbbe2fa56e6d1f577e34ae" target="_top" xlink:title="Extract the multipart body if it exists. ">
<polygon fill="#ffffff" stroke="#000000" points="146.5,-785.5 146.5,-804.5 279.5,-804.5 279.5,-785.5 146.5,-785.5"/>
<text text-anchor="middle" x="213" y="-792.5" font-family="Helvetica,sans-Serif" font-size="10.00" fill="#000000">mutt_remove_multipart</text>
</a>
</g>
</g>
<!-- Node24&#45;&gt;Node548 -->
<g id="edge50" class="edge">
<title>Node24&#45;&gt;Node548</title>
<path fill="none" stroke="#191970" d="M59.0767,-699.1681C73.5706,-719.5795 99.7404,-752.295 130,-771 140.0797,-777.2308 151.8425,-781.9015 163.2896,-785.3817"/>
<polygon fill="#191970" stroke="#191970" points="61.8273,-696.9917 53.2662,-690.7501 56.0664,-700.9682 61.8273,-696.9917"/>
</g>
<!-- Node549 -->
<g id="node32" class="node">
<title>Node549</title>
<g id="a_node32"><a xlink:href="mutt__body__free_8c.html#af2d50332120890e4adb35b60fec29fda" target="_top" xlink:title="test_mutt_body_free">
<polygon fill="#ffffff" stroke="#000000" points="154,-38.5 154,-57.5 272,-57.5 272,-38.5 154,-38.5"/>
<text text-anchor="middle" x="213" y="-45.5" font-family="Helvetica,sans-Serif" font-size="10.00" fill="#000000">test_mutt_body_free</text>
</a>
</g>
</g>
<!-- Node24&#45;&gt;Node549 -->
<g id="edge56" class="edge">
<title>Node24&#45;&gt;Node549</title>
<path fill="none" stroke="#191970" d="M48.3468,-661.2045C55.342,-560.9388 88.792,-112.1247 130,-67 136.3797,-60.0139 144.7571,-55.3334 153.7345,-52.2422"/>
<polygon fill="#191970" stroke="#191970" points="44.8538,-660.9837 47.657,-671.201 51.8372,-661.4657 44.8538,-660.9837"/>
</g>
<!-- Node550 -->
<g id="node33" class="node">
<title>Node550</title>
<g id="a_node33"><a xlink:href="mutt__body__new_8c.html#a28f771c98853370d2770426f9a3d70d1" target="_top" xlink:title="test_mutt_body_new">
<polygon fill="#ffffff" stroke="#000000" points="153.5,-.5 153.5,-19.5 272.5,-19.5 272.5,-.5 153.5,-.5"/>
<text text-anchor="middle" x="213" y="-7.5" font-family="Helvetica,sans-Serif" font-size="10.00" fill="#000000">test_mutt_body_new</text>
</a>
</g>
</g>
<!-- Node24&#45;&gt;Node550 -->
<g id="edge57" class="edge">
<title>Node24&#45;&gt;Node550</title>
<path fill="none" stroke="#191970" d="M48.198,-660.9742C54.6224,-556.5271 86.3354,-77.1883 130,-29 136.2534,-22.0988 144.4555,-17.4436 153.2687,-14.3469"/>
<polygon fill="#191970" stroke="#191970" points="44.6959,-660.9036 47.5828,-671.0975 51.683,-661.3283 44.6959,-660.9036"/>
</g>
<!-- Node112&#45;&gt;Node31 -->
<g id="edge3" class="edge">
<title>Node112&#45;&gt;Node31</title>
<path fill="none" stroke="#191970" d="M459.0342,-1035.0385C467.1036,-1037.1907 475.3129,-1039.538 483,-1042 509.1813,-1050.3853 538.4686,-1062.2096 557.9436,-1070.4328"/>
<polygon fill="#191970" stroke="#191970" points="459.8635,-1031.6379 449.3051,-1032.5156 458.1064,-1038.4138 459.8635,-1031.6379"/>
</g>
<!-- Node31&#45;&gt;Node32 -->
<g id="edge4" class="edge">
<title>Node31&#45;&gt;Node32</title>
<path fill="none" stroke="#191970" d="M595.8304,-1062.6475C628.3978,-1026.9485 701.9657,-946.3069 727.2627,-918.5774"/>
<polygon fill="#191970" stroke="#191970" points="592.9882,-1060.5698 588.8342,-1070.3163 598.1595,-1065.2875 592.9882,-1060.5698"/>
</g>
<!-- Node534&#45;&gt;Node31 -->
<g id="edge6" class="edge">
<title>Node534&#45;&gt;Node31</title>
<path fill="none" stroke="#191970" d="M472.4422,-1091.8469C487.6643,-1090.1703 503.831,-1088.3896 518.8795,-1086.7321"/>
<polygon fill="#191970" stroke="#191970" points="471.6367,-1088.4144 462.0801,-1092.9883 472.4032,-1095.3723 471.6367,-1088.4144"/>
</g>
<!-- Node535&#45;&gt;Node31 -->
<g id="edge10" class="edge">
<title>Node535&#45;&gt;Node31</title>
<path fill="none" stroke="#191970" d="M482.7815,-1069.2919C494.8728,-1070.6237 507.2565,-1071.9877 518.9611,-1073.2769"/>
<polygon fill="#191970" stroke="#191970" points="483.038,-1065.799 472.7149,-1068.1831 482.2715,-1072.757 483.038,-1065.799"/>
</g>
<!-- Node540&#45;&gt;Node24 -->
<g id="edge14" class="edge">
<title>Node540&#45;&gt;Node24</title>
<path fill="none" stroke="#191970" d="M168.8309,-959.2442C154.8348,-953.0757 140.3331,-943.983 130,-932 65.0268,-856.6525 50.2098,-727.8819 47.5208,-690.8372"/>
<polygon fill="#191970" stroke="#191970" points="167.7969,-962.5997 178.3823,-963.0472 170.3863,-956.0962 167.7969,-962.5997"/>
</g>
<!-- Node540&#45;&gt;Node112 -->
<g id="edge13" class="edge">
<title>Node540&#45;&gt;Node112</title>
<path fill="none" stroke="#191970" d="M255.261,-978.385C291.1714,-988.9088 341.982,-1003.7993 374.8389,-1013.4284"/>
<polygon fill="#191970" stroke="#191970" points="256.1357,-974.9942 245.5549,-975.5405 254.167,-981.7116 256.1357,-974.9942"/>
</g>
<!-- Node540&#45;&gt;Node32 -->
<g id="edge15" class="edge">
<title>Node540&#45;&gt;Node32</title>
<path fill="none" stroke="#191970" d="M257.9817,-963.6215C336.1672,-959.1274 502.076,-947.999 641,-928 658.314,-925.5075 677.2391,-921.9045 693.6088,-918.5045"/>
<polygon fill="#191970" stroke="#191970" points="257.33,-960.1527 247.5436,-964.2118 257.7253,-967.1415 257.33,-960.1527"/>
</g>
<!-- Node115&#45;&gt;Node116 -->
<g id="edge17" class="edge">
<title>Node115&#45;&gt;Node116</title>
<path fill="none" stroke="#191970" d="M255.261,-617.385C291.1714,-627.9088 341.982,-642.7993 374.8389,-652.4284"/>
<polygon fill="#191970" stroke="#191970" points="256.1357,-613.9942 245.5549,-614.5405 254.167,-620.7116 256.1357,-613.9942"/>
</g>
<!-- Node115&#45;&gt;Node163 -->
<g id="edge18" class="edge">
<title>Node115&#45;&gt;Node163</title>
<path fill="none" stroke="#191970" d="M284.2471,-608.2968C305.4362,-609.2773 328.4029,-610.34 348.7045,-611.2794"/>
<polygon fill="#191970" stroke="#191970" points="284.1585,-604.789 274.0074,-607.823 283.8349,-611.7815 284.1585,-604.789"/>
</g>
<!-- Node115&#45;&gt;Node164 -->
<g id="edge19" class="edge">
<title>Node115&#45;&gt;Node164</title>
<path fill="none" stroke="#191970" d="M283.9555,-594.4205C307.528,-590.9059 333.329,-587.0589 355.2277,-583.7938"/>
<polygon fill="#191970" stroke="#191970" points="283.3819,-590.9673 274.0074,-595.9038 284.4142,-597.8907 283.3819,-590.9673"/>
</g>
<!-- Node203&#45;&gt;Node31 -->
<g id="edge27" class="edge">
<title>Node203&#45;&gt;Node31</title>
<path fill="none" stroke="#191970" d="M463.957,-1237.8306C470.7319,-1234.9013 477.2688,-1231.3357 483,-1227 533.7202,-1188.6301 566.0552,-1115.5683 576.3977,-1089.5191"/>
<polygon fill="#191970" stroke="#191970" points="462.6866,-1234.5692 454.6243,-1241.4432 465.2135,-1241.0972 462.6866,-1234.5692"/>
</g>
<!-- Node348&#45;&gt;Node32 -->
<g id="edge34" class="edge">
<title>Node348&#45;&gt;Node32</title>
<path fill="none" stroke="#191970" d="M457.7439,-873.3973C505.1569,-876.0589 578.1459,-881.1878 641,-890 658.323,-892.4287 677.2498,-896.0198 693.6183,-899.4281"/>
<polygon fill="#191970" stroke="#191970" points="457.9102,-869.9013 447.7343,-872.8508 457.5286,-876.8909 457.9102,-869.9013"/>
</g>
<!-- Node348&#45;&gt;Node240 -->
<g id="edge30" class="edge">
<title>Node348&#45;&gt;Node240</title>
<path fill="none" stroke="#191970" d="M457.424,-881.9978C487.5618,-888.6368 524.9399,-896.8708 550.4443,-902.4892"/>
<polygon fill="#191970" stroke="#191970" points="458.0274,-878.5468 447.5085,-879.8135 456.5214,-885.3829 458.0274,-878.5468"/>
</g>
<!-- Node348&#45;&gt;Node264 -->
<g id="edge32" class="edge">
<title>Node348&#45;&gt;Node264</title>
<path fill="none" stroke="#191970" d="M457.5385,-859.977C482.5579,-854.4655 512.5445,-847.8598 536.5823,-842.5645"/>
<polygon fill="#191970" stroke="#191970" points="456.5214,-856.6171 447.5085,-862.1865 458.0274,-863.4532 456.5214,-856.6171"/>
</g>
<!-- Node240&#45;&gt;Node32 -->
<g id="edge31" class="edge">
<title>Node240&#45;&gt;Node32</title>
<path fill="none" stroke="#191970" d="M619.9747,-909C637.2113,-909 657.7277,-909 676.6807,-909"/>
<polygon fill="#191970" stroke="#191970" points="619.7096,-905.5001 609.7096,-909 619.7096,-912.5001 619.7096,-905.5001"/>
</g>
<!-- Node264&#45;&gt;Node32 -->
<g id="edge33" class="edge">
<title>Node264&#45;&gt;Node32</title>
<path fill="none" stroke="#191970" d="M615.9224,-846.263C624.2419,-849.5739 632.9992,-853.2546 641,-857 669.4378,-870.3127 701.2006,-888.3852 719.8486,-899.3422"/>
<polygon fill="#191970" stroke="#191970" points="617.0172,-842.9334 606.4288,-842.5646 614.4762,-849.4559 617.0172,-842.9334"/>
</g>
<!-- Node422&#45;&gt;Node422 -->
<g id="edge42" class="edge">
<title>Node422&#45;&gt;Node422</title>
<path fill="none" stroke="#191970" d="M181.9371,-142.2746C182.8228,-147.741 193.1771,-152 213,-152 242.5039,-152 251.0324,-142.5653 238.5854,-133.7571"/>
<polygon fill="#191970" stroke="#191970" points="184.9495,-144.0611 187.4146,-133.7571 179.0618,-140.2749 184.9495,-144.0611"/>
</g>
<!-- Node442&#45;&gt;Node25 -->
<g id="edge48" class="edge">
<title>Node442&#45;&gt;Node25</title>
<path fill="none" stroke="#191970" d="M271.8076,-1148.4894C299.5594,-1153.9114 332.2891,-1160.3058 358.6504,-1165.4561"/>
<polygon fill="#191970" stroke="#191970" points="272.3151,-1145.0225 261.8295,-1146.54 270.9728,-1151.8926 272.3151,-1145.0225"/>
</g>
<!-- Node442&#45;&gt;Node31 -->
<g id="edge49" class="edge">
<title>Node442&#45;&gt;Node31</title>
<path fill="none" stroke="#191970" d="M287.9251,-1137.7743C342.6089,-1136.8835 418.1884,-1132.6167 483,-1118 511.0528,-1111.6733 541.6773,-1098.5468 560.8573,-1089.5077"/>
<polygon fill="#191970" stroke="#191970" points="287.5753,-1134.2784 277.621,-1137.9063 287.6651,-1141.2778 287.5753,-1134.2784"/>
</g>
<!-- Node548&#45;&gt;Node31 -->
<g id="edge51" class="edge">
<title>Node548&#45;&gt;Node31</title>
<path fill="none" stroke="#191970" d="M232.5718,-810.8914C256.0488,-829.8914 296.6657,-862.5659 332,-890 398.4199,-941.5694 416.3458,-952.7337 483,-1004 513.6938,-1027.6077 549.4743,-1055.8245 567.8049,-1070.3316"/>
<polygon fill="#191970" stroke="#191970" points="234.7125,-808.1212 224.7394,-804.5451 230.3057,-813.56 234.7125,-808.1212"/>
</g>
<!-- Node548&#45;&gt;Node32 -->
<g id="edge55" class="edge">
<title>Node548&#45;&gt;Node32</title>
<path fill="none" stroke="#191970" d="M272.8194,-783.8802C358.7928,-770.8543 520.2225,-757.5989 641,-814 682.6338,-833.4423 716.4475,-879.2186 729.8221,-899.286"/>
<polygon fill="#191970" stroke="#191970" points="272.0545,-780.4573 262.7167,-785.4629 273.138,-787.3729 272.0545,-780.4573"/>
</g>
<!-- Node548&#45;&gt;Node348 -->
<g id="edge52" class="edge">
<title>Node548&#45;&gt;Node348</title>
<path fill="none" stroke="#191970" d="M246.9804,-808.2777C285.8934,-823.4828 348.6862,-848.0188 383.0665,-861.4527"/>
<polygon fill="#191970" stroke="#191970" points="248.2216,-805.005 237.6336,-804.6255 245.6739,-811.525 248.2216,-805.005"/>
</g>
<!-- Node548&#45;&gt;Node264 -->
<g id="edge54" class="edge">
<title>Node548&#45;&gt;Node264</title>
<path fill="none" stroke="#191970" d="M289.8803,-800.7092C343.9684,-805.0007 418.0082,-811.4271 483,-819 496.4358,-820.5656 510.8814,-822.5089 524.4138,-824.4444"/>
<polygon fill="#191970" stroke="#191970" points="289.9228,-797.2018 279.6789,-799.9063 289.3735,-804.1802 289.9228,-797.2018"/>
</g>
<!-- Node548&#45;&gt;Node412 -->
<g id="edge53" class="edge">
<title>Node548&#45;&gt;Node412</title>
<path fill="none" stroke="#191970" d="M267.3878,-782.497C277.1671,-779.3527 287.0789,-775.5458 296,-771 314.0603,-761.7973 314.0623,-752.4394 332,-743 343.3195,-737.0433 356.3787,-732.2472 368.4197,-728.5545"/>
<polygon fill="#191970" stroke="#191970" points="266.2561,-779.1826 257.6942,-785.4232 268.2791,-785.8839 266.2561,-779.1826"/>
</g>
</g>
</svg>
