<?xml version="1.0" encoding="UTF-8" standalone="no"?>
<!DOCTYPE svg PUBLIC "-//W3C//DTD SVG 1.1//EN"
 "http://www.w3.org/Graphics/SVG/1.1/DTD/svg11.dtd">
<!-- Generated by graphviz version 7.1.0 (0)
 -->
<!-- Title: browser/complete.c Pages: 1 -->
<svg width="799pt" height="192pt"
 viewBox="0.00 0.00 798.86 192.00" xmlns="http://www.w3.org/2000/svg" xmlns:xlink="http://www.w3.org/1999/xlink">
<g id="graph0" class="graph" transform="scale(1 1) rotate(0) translate(4 188)">
<title>browser/complete.c</title>
<!-- Node1 -->
<g id="node1" class="node">
<title>Node1</title>
<g id="a_node1"><a xlink:title="Browser Auto&#45;Completion.">
<polygon fill="#999999" stroke="#666666" points="413.86,-184 303.86,-184 303.86,-165 413.86,-165 413.86,-184"/>
<text text-anchor="middle" x="358.86" y="-172" font-family="Helvetica,sans-Serif" font-size="10.00">browser/complete.c</text>
</a>
</g>
</g>
<!-- Node2 -->
<g id="node2" class="node">
<title>Node2</title>
<g id="a_node2"><a xlink:title=" ">
<polygon fill="#e0e0e0" stroke="#999999" points="144.86,-74 90.86,-74 90.86,-55 144.86,-55 144.86,-74"/>
<text text-anchor="middle" x="117.86" y="-62" font-family="Helvetica,sans-Serif" font-size="10.00">config.h</text>
</a>
</g>
</g>
<!-- Node1&#45;&gt;Node2 -->
<g id="edge1" class="edge">
<title>Node1&#45;&gt;Node2</title>
<path fill="none" stroke="#63b8ff" d="M303.55,-165.21C269.88,-158.63 226.77,-147.39 191.86,-129 169.04,-116.98 147.17,-96.77 133.2,-82.38"/>
<polygon fill="#63b8ff" stroke="#63b8ff" points="136.03,-80.28 126.63,-75.4 130.93,-85.08 136.03,-80.28"/>
</g>
<!-- Node3 -->
<g id="node3" class="node">
<title>Node3</title>
<g id="a_node3"><a xlink:title=" ">
<polygon fill="#e0e0e0" stroke="#999999" points="548.36,-19 493.36,-19 493.36,0 548.36,0 548.36,-19"/>
<text text-anchor="middle" x="520.86" y="-7" font-family="Helvetica,sans-Serif" font-size="10.00">stddef.h</text>
</a>
</g>
</g>
<!-- Node1&#45;&gt;Node3 -->
<g id="edge2" class="edge">
<title>Node1&#45;&gt;Node3</title>
<path fill="none" stroke="#63b8ff" d="M414.13,-168.45C473.42,-162.08 562.73,-149.41 589.86,-129 617.96,-107.86 636.85,-84.6 617.86,-55 605.06,-35.04 580.81,-23.91 559.76,-17.78"/>
<polygon fill="#63b8ff" stroke="#63b8ff" points="560.83,-14.44 550.27,-15.31 559.07,-21.22 560.83,-14.44"/>
</g>
<!-- Node4 -->
<g id="node4" class="node">
<title>Node4</title>
<g id="a_node4"><a xlink:title=" ">
<polygon fill="#e0e0e0" stroke="#999999" points="317.86,-19 257.86,-19 257.86,0 317.86,0 317.86,-19"/>
<text text-anchor="middle" x="287.86" y="-7" font-family="Helvetica,sans-Serif" font-size="10.00">stdbool.h</text>
</a>
</g>
</g>
<!-- Node1&#45;&gt;Node4 -->
<g id="edge3" class="edge">
<title>Node1&#45;&gt;Node4</title>
<path fill="none" stroke="#63b8ff" d="M303.39,-166.93C211.75,-154.71 35.63,-125 3.86,-74 -0.6,-66.83 -1.63,-61.42 3.86,-55 34.56,-19.12 175.03,-11.97 246.23,-10.68"/>
<polygon fill="#63b8ff" stroke="#63b8ff" points="245.98,-14.18 255.93,-10.54 245.88,-7.19 245.98,-14.18"/>
</g>
<!-- Node5 -->
<g id="node5" class="node">
<title>Node5</title>
<g id="a_node5"><a xlink:title=" ">
<polygon fill="#e0e0e0" stroke="#999999" points="718.36,-129 665.36,-129 665.36,-110 718.36,-110 718.36,-129"/>
<text text-anchor="middle" x="691.86" y="-117" font-family="Helvetica,sans-Serif" font-size="10.00">string.h</text>
</a>
</g>
</g>
<!-- Node1&#45;&gt;Node5 -->
<g id="edge4" class="edge">
<title>Node1&#45;&gt;Node5</title>
<path fill="none" stroke="#63b8ff" d="M414.17,-165.96C473,-157.74 568.72,-143.76 650.86,-129 651.86,-128.82 652.88,-128.63 653.9,-128.44"/>
<polygon fill="#63b8ff" stroke="#63b8ff" points="654.36,-131.92 663.51,-126.57 653.02,-125.05 654.36,-131.92"/>
</g>
<!-- Node6 -->
<g id="node6" class="node">
<title>Node6</title>
<g id="a_node6"><a xlink:href="mutt_2lib_8h.html" target="_top" xlink:title="Convenience wrapper for the library headers.">
<polygon fill="#fff0f0" stroke="red" points="224.86,-74 162.86,-74 162.86,-55 224.86,-55 224.86,-74"/>
<text text-anchor="middle" x="193.86" y="-62" font-family="Helvetica,sans-Serif" font-size="10.00">mutt/lib.h</text>
</a>
</g>
</g>
<!-- Node1&#45;&gt;Node6 -->
<g id="edge5" class="edge">
<title>Node1&#45;&gt;Node6</title>
<path fill="none" stroke="#63b8ff" d="M303.6,-171.37C270.62,-167.1 230.5,-156.14 205.86,-129 195.24,-117.3 192.67,-99.25 192.51,-85.38"/>
<polygon fill="#63b8ff" stroke="#63b8ff" points="196,-85.74 192.83,-75.63 189.01,-85.51 196,-85.74"/>
</g>
<!-- Node54 -->
<g id="node7" class="node">
<title>Node54</title>
<g id="a_node7"><a xlink:href="core_2lib_8h.html" target="_top" xlink:title="Convenience wrapper for the core headers.">
<polygon fill="#fff0f0" stroke="red" points="608.86,-74 548.86,-74 548.86,-55 608.86,-55 608.86,-74"/>
<text text-anchor="middle" x="578.86" y="-62" font-family="Helvetica,sans-Serif" font-size="10.00">core/lib.h</text>
</a>
</g>
</g>
<!-- Node1&#45;&gt;Node54 -->
<g id="edge6" class="edge">
<title>Node1&#45;&gt;Node54</title>
<path fill="none" stroke="#63b8ff" d="M414.32,-169.2C470.22,-163.64 551.13,-151.83 571.86,-129 582.37,-117.43 583.43,-99.37 582.26,-85.46"/>
<polygon fill="#63b8ff" stroke="#63b8ff" points="585.75,-85.11 580.97,-75.66 578.81,-86.03 585.75,-85.11"/>
</g>
<!-- Node64 -->
<g id="node8" class="node">
<title>Node64</title>
<g id="a_node8"><a xlink:href="gui_2lib_8h.html" target="_top" xlink:title="Convenience wrapper for the gui headers.">
<polygon fill="#fff0f0" stroke="red" points="790.86,-129 736.86,-129 736.86,-110 790.86,-110 790.86,-129"/>
<text text-anchor="middle" x="763.86" y="-117" font-family="Helvetica,sans-Serif" font-size="10.00">gui/lib.h</text>
</a>
</g>
</g>
<!-- Node1&#45;&gt;Node64 -->
<g id="edge7" class="edge">
<title>Node1&#45;&gt;Node64</title>
<path fill="none" stroke="#63b8ff" d="M414.16,-168.78C484.31,-162.35 609.2,-149.49 725.21,-129.29"/>
<polygon fill="#63b8ff" stroke="#63b8ff" points="725.68,-132.76 734.92,-127.58 724.46,-125.87 725.68,-132.76"/>
</g>
<!-- Node66 -->
<g id="node9" class="node">
<title>Node66</title>
<g id="a_node9"><a xlink:href="browser_2lib_8h.html" target="_top" xlink:title="Select a Mailbox from a list.">
<polygon fill="#fff0f0" stroke="red" points="292.86,-129 214.86,-129 214.86,-110 292.86,-110 292.86,-129"/>
<text text-anchor="middle" x="253.86" y="-117" font-family="Helvetica,sans-Serif" font-size="10.00">browser/lib.h</text>
</a>
</g>
</g>
<!-- Node1&#45;&gt;Node66 -->
<g id="edge8" class="edge">
<title>Node1&#45;&gt;Node66</title>
<path fill="none" stroke="#63b8ff" d="M341.05,-164.51C324.74,-156.27 300.33,-143.96 281.49,-134.45"/>
<polygon fill="#63b8ff" stroke="#63b8ff" points="283.27,-131.42 272.76,-130.04 280.11,-137.67 283.27,-131.42"/>
</g>
<!-- Node67 -->
<g id="node10" class="node">
<title>Node67</title>
<g id="a_node10"><a xlink:href="complete_2lib_8h.html" target="_top" xlink:title="Auto&#45;completion.">
<polygon fill="#fff0f0" stroke="red" points="364.36,-74 281.36,-74 281.36,-55 364.36,-55 364.36,-74"/>
<text text-anchor="middle" x="322.86" y="-62" font-family="Helvetica,sans-Serif" font-size="10.00">complete/lib.h</text>
</a>
</g>
</g>
<!-- Node1&#45;&gt;Node67 -->
<g id="edge15" class="edge">
<title>Node1&#45;&gt;Node67</title>
<path fill="none" stroke="#63b8ff" d="M355.92,-164.66C350.17,-147.42 337.33,-108.9 329.45,-85.27"/>
<polygon fill="#63b8ff" stroke="#63b8ff" points="332.81,-84.28 326.33,-75.9 326.17,-86.49 332.81,-84.28"/>
</g>
<!-- Node102 -->
<g id="node11" class="node">
<title>Node102</title>
<g id="a_node11"><a xlink:href="editor_2lib_8h.html" target="_top" xlink:title="Edit a string.">
<polygon fill="#fff0f0" stroke="red" points="454.86,-129 386.86,-129 386.86,-110 454.86,-110 454.86,-129"/>
<text text-anchor="middle" x="420.86" y="-117" font-family="Helvetica,sans-Serif" font-size="10.00">editor/lib.h</text>
</a>
</g>
</g>
<!-- Node1&#45;&gt;Node102 -->
<g id="edge16" class="edge">
<title>Node1&#45;&gt;Node102</title>
<path fill="none" stroke="#63b8ff" d="M369.38,-164.51C378.25,-156.93 391.17,-145.88 401.85,-136.75"/>
<polygon fill="#63b8ff" stroke="#63b8ff" points="404.02,-139.5 409.35,-130.34 399.47,-134.18 404.02,-139.5"/>
</g>
<!-- Node108 -->
<g id="node12" class="node">
<title>Node108</title>
<g id="a_node12"><a xlink:href="history_2lib_8h.html" target="_top" xlink:title="Read/write command history from/to a file.">
<polygon fill="#fff0f0" stroke="red" points="454.86,-74 382.86,-74 382.86,-55 454.86,-55 454.86,-74"/>
<text text-anchor="middle" x="418.86" y="-62" font-family="Helvetica,sans-Serif" font-size="10.00">history/lib.h</text>
</a>
</g>
</g>
<!-- Node1&#45;&gt;Node108 -->
<g id="edge20" class="edge">
<title>Node1&#45;&gt;Node108</title>
<path fill="none" stroke="#63b8ff" d="M360.18,-164.79C362.38,-152.08 367.61,-128 377.86,-110 383.68,-99.79 392.24,-90 400.04,-82.22"/>
<polygon fill="#63b8ff" stroke="#63b8ff" points="402.38,-84.83 407.23,-75.41 397.57,-79.74 402.38,-84.83"/>
</g>
<!-- Node109 -->
<g id="node13" class="node">
<title>Node109</title>
<g id="a_node13"><a xlink:href="mutt__mailbox_8h.html" target="_top" xlink:title="Mailbox helper functions.">
<polygon fill="white" stroke="#666666" points="562.36,-129 473.36,-129 473.36,-110 562.36,-110 562.36,-129"/>
<text text-anchor="middle" x="517.86" y="-117" font-family="Helvetica,sans-Serif" font-size="10.00">mutt_mailbox.h</text>
</a>
</g>
</g>
<!-- Node1&#45;&gt;Node109 -->
<g id="edge21" class="edge">
<title>Node1&#45;&gt;Node109</title>
<path fill="none" stroke="#63b8ff" d="M385.83,-164.51C411.84,-155.84 451.41,-142.65 480.46,-132.97"/>
<polygon fill="#63b8ff" stroke="#63b8ff" points="481.21,-136.41 489.59,-129.92 478.99,-129.77 481.21,-136.41"/>
</g>
<!-- Node110 -->
<g id="node14" class="node">
<title>Node110</title>
<g id="a_node14"><a xlink:href="muttlib_8h.html" target="_top" xlink:title="Some miscellaneous functions.">
<polygon fill="#fff0f0" stroke="red" points="72.36,-74 13.36,-74 13.36,-55 72.36,-55 72.36,-74"/>
<text text-anchor="middle" x="42.86" y="-62" font-family="Helvetica,sans-Serif" font-size="10.00">muttlib.h</text>
</a>
</g>
</g>
<!-- Node1&#45;&gt;Node110 -->
<g id="edge24" class="edge">
<title>Node1&#45;&gt;Node110</title>
<path fill="none" stroke="#63b8ff" d="M303.49,-165.22C263.13,-158.2 207.57,-146.44 160.86,-129 126.27,-116.08 89.22,-94.78 66.05,-80.45"/>
<polygon fill="#63b8ff" stroke="#63b8ff" points="68.06,-77.57 57.73,-75.22 64.33,-83.5 68.06,-77.57"/>
</g>
<!-- Node66&#45;&gt;Node2 -->
<g id="edge9" class="edge">
<title>Node66&#45;&gt;Node2</title>
<path fill="none" stroke="#63b8ff" d="M230.79,-109.51C208.97,-101.01 175.98,-88.15 151.29,-78.53"/>
<polygon fill="#63b8ff" stroke="#63b8ff" points="152.59,-75.28 142,-74.91 150.05,-81.8 152.59,-75.28"/>
</g>
<!-- Node66&#45;&gt;Node4 -->
<g id="edge10" class="edge">
<title>Node66&#45;&gt;Node4</title>
<path fill="none" stroke="#63b8ff" d="M256.35,-109.84C259.89,-97.59 266.65,-74.52 272.86,-55 275.46,-46.84 278.45,-37.89 281.07,-30.17"/>
<polygon fill="#63b8ff" stroke="#63b8ff" points="284.36,-31.36 284.29,-20.77 277.74,-29.09 284.36,-31.36"/>
</g>
<!-- Node66&#45;&gt;Node6 -->
<g id="edge11" class="edge">
<title>Node66&#45;&gt;Node6</title>
<path fill="none" stroke="#63b8ff" d="M243.68,-109.51C235.1,-101.93 222.59,-90.88 212.26,-81.75"/>
<polygon fill="#63b8ff" stroke="#63b8ff" points="214.84,-79.36 205.02,-75.36 210.2,-84.6 214.84,-79.36"/>
</g>
<!-- Node66&#45;&gt;Node67 -->
<g id="edge12" class="edge">
<title>Node66&#45;&gt;Node67</title>
<path fill="none" stroke="#63b8ff" d="M265.57,-109.51C275.64,-101.77 290.4,-90.43 302.42,-81.2"/>
<polygon fill="#63b8ff" stroke="#63b8ff" points="304.33,-84.15 310.13,-75.28 300.07,-78.6 304.33,-84.15"/>
</g>
<!-- Node67&#45;&gt;Node3 -->
<g id="edge13" class="edge">
<title>Node67&#45;&gt;Node3</title>
<path fill="none" stroke="#63b8ff" d="M356.45,-54.51C391.25,-45.2 445.56,-30.66 482.14,-20.87"/>
<polygon fill="#63b8ff" stroke="#63b8ff" points="482.66,-24.35 491.42,-18.38 480.85,-17.59 482.66,-24.35"/>
</g>
<!-- Node67&#45;&gt;Node4 -->
<g id="edge14" class="edge">
<title>Node67&#45;&gt;Node4</title>
<path fill="none" stroke="#63b8ff" d="M317.08,-54.75C312.45,-47.73 305.79,-37.64 299.99,-28.87"/>
<polygon fill="#63b8ff" stroke="#63b8ff" points="303.03,-27.12 294.6,-20.71 297.19,-30.98 303.03,-27.12"/>
</g>
<!-- Node102&#45;&gt;Node3 -->
<g id="edge17" class="edge">
<title>Node102&#45;&gt;Node3</title>
<path fill="none" stroke="#63b8ff" d="M429.52,-109.73C438.28,-100.82 452.15,-86.58 463.86,-74 478.32,-58.47 494.45,-40.44 505.84,-27.57"/>
<polygon fill="#63b8ff" stroke="#63b8ff" points="508.22,-30.17 512.21,-20.35 502.97,-25.53 508.22,-30.17"/>
</g>
<!-- Node102&#45;&gt;Node108 -->
<g id="edge18" class="edge">
<title>Node102&#45;&gt;Node108</title>
<path fill="none" stroke="#63b8ff" d="M420.53,-109.75C420.29,-103.27 419.94,-94.16 419.63,-85.9"/>
<polygon fill="#63b8ff" stroke="#63b8ff" points="423.13,-85.82 419.26,-75.95 416.14,-86.08 423.13,-85.82"/>
</g>
<!-- Node108&#45;&gt;Node4 -->
<g id="edge19" class="edge">
<title>Node108&#45;&gt;Node4</title>
<path fill="none" stroke="#63b8ff" d="M396.64,-54.51C375.72,-46.04 344.13,-33.27 320.38,-23.66"/>
<polygon fill="#63b8ff" stroke="#63b8ff" points="321.74,-20.43 311.16,-19.93 319.12,-26.92 321.74,-20.43"/>
</g>
<!-- Node109&#45;&gt;Node4 -->
<g id="edge22" class="edge">
<title>Node109&#45;&gt;Node4</title>
<path fill="none" stroke="#63b8ff" d="M512.81,-109.6C504.47,-95.72 486.47,-69.07 463.86,-55 422.4,-29.19 366.64,-18.32 329.09,-13.76"/>
<polygon fill="#63b8ff" stroke="#63b8ff" points="329.88,-10.33 319.56,-12.71 329.11,-17.28 329.88,-10.33"/>
</g>
<!-- Node109&#45;&gt;Node54 -->
<g id="edge23" class="edge">
<title>Node109&#45;&gt;Node54</title>
<path fill="none" stroke="#63b8ff" d="M528.21,-109.51C536.94,-101.93 549.65,-90.88 560.16,-81.75"/>
<polygon fill="#63b8ff" stroke="#63b8ff" points="562.27,-84.55 567.52,-75.35 557.68,-79.27 562.27,-84.55"/>
</g>
<!-- Node110&#45;&gt;Node4 -->
<g id="edge25" class="edge">
<title>Node110&#45;&gt;Node4</title>
<path fill="none" stroke="#63b8ff" d="M72.67,-57C75.77,-56.32 78.88,-55.65 81.86,-55 138.89,-42.62 204.83,-28.4 246.43,-19.43"/>
<polygon fill="#63b8ff" stroke="#63b8ff" points="246.97,-22.89 256.01,-17.36 245.5,-16.05 246.97,-22.89"/>
</g>
</g>
</svg>
