<?xml version="1.0" encoding="UTF-8" standalone="no"?>
<!DOCTYPE svg PUBLIC "-//W3C//DTD SVG 1.1//EN"
 "http://www.w3.org/Graphics/SVG/1.1/DTD/svg11.dtd">
<!-- Generated by graphviz version 2.40.1 (20161225.0304)
 -->
<!-- Title: browser.h Pages: 1 -->
<svg width="454pt" height="84pt"
 viewBox="0.00 0.00 453.50 84.00" xmlns="http://www.w3.org/2000/svg" xmlns:xlink="http://www.w3.org/1999/xlink">
<g id="graph0" class="graph" transform="scale(1 1) rotate(0) translate(4 80)">
<title>browser.h</title>
<polygon fill="#ffffff" stroke="transparent" points="-4,4 -4,-80 449.5,-80 449.5,4 -4,4"/>
<!-- Node0 -->
<g id="node1" class="node">
<title>Node0</title>
<polygon fill="#bfbfbf" stroke="#000000" points="188.5,-56.5 188.5,-75.5 252.5,-75.5 252.5,-56.5 188.5,-56.5"/>
<text text-anchor="middle" x="220.5" y="-63.5" font-family="Helvetica,sans-Serif" font-size="10.00" fill="#000000">browser.h</text>
</g>
<!-- Node1 -->
<g id="node2" class="node">
<title>Node1</title>
<polygon fill="#ffffff" stroke="#bfbfbf" points="0,-.5 0,-19.5 55,-19.5 55,-.5 0,-.5"/>
<text text-anchor="middle" x="27.5" y="-7.5" font-family="Helvetica,sans-Serif" font-size="10.00" fill="#000000">config.h</text>
</g>
<!-- Node0&#45;&gt;Node1 -->
<g id="edge1" class="edge">
<title>Node0&#45;&gt;Node1</title>
<path fill="none" stroke="#191970" d="M188.1961,-56.6269C154.3053,-46.7932 101.0808,-31.3499 65.2697,-20.9591"/>
<polygon fill="#191970" stroke="#191970" points="65.7884,-17.4653 55.2091,-18.04 63.8377,-24.188 65.7884,-17.4653"/>
</g>
<!-- Node2 -->
<g id="node3" class="node">
<title>Node2</title>
<polygon fill="#ffffff" stroke="#bfbfbf" points="73.5,-.5 73.5,-19.5 135.5,-19.5 135.5,-.5 73.5,-.5"/>
<text text-anchor="middle" x="104.5" y="-7.5" font-family="Helvetica,sans-Serif" font-size="10.00" fill="#000000">stdbool.h</text>
</g>
<!-- Node0&#45;&gt;Node2 -->
<g id="edge2" class="edge">
<title>Node0&#45;&gt;Node2</title>
<path fill="none" stroke="#191970" d="M200.5589,-56.3733C182.0214,-47.4241 154.1972,-33.9917 133.2587,-23.8835"/>
<polygon fill="#191970" stroke="#191970" points="134.7081,-20.6967 124.1809,-19.5011 131.6648,-27.0006 134.7081,-20.6967"/>
</g>
<!-- Node3 -->
<g id="node4" class="node">
<title>Node3</title>
<polygon fill="#ffffff" stroke="#bfbfbf" points="154,-.5 154,-19.5 207,-19.5 207,-.5 154,-.5"/>
<text text-anchor="middle" x="180.5" y="-7.5" font-family="Helvetica,sans-Serif" font-size="10.00" fill="#000000">stdint.h</text>
</g>
<!-- Node0&#45;&gt;Node3 -->
<g id="edge3" class="edge">
<title>Node0&#45;&gt;Node3</title>
<path fill="none" stroke="#191970" d="M213.5325,-56.2455C207.9689,-48.4564 200.022,-37.3308 193.3171,-27.9439"/>
<polygon fill="#191970" stroke="#191970" points="196.0481,-25.7457 187.3876,-19.6427 190.352,-29.8144 196.0481,-25.7457"/>
</g>
<!-- Node4 -->
<g id="node5" class="node">
<title>Node4</title>
<polygon fill="#ffffff" stroke="#bfbfbf" points="225.5,-.5 225.5,-19.5 297.5,-19.5 297.5,-.5 225.5,-.5"/>
<text text-anchor="middle" x="261.5" y="-7.5" font-family="Helvetica,sans-Serif" font-size="10.00" fill="#000000">sys/types.h</text>
</g>
<!-- Node0&#45;&gt;Node4 -->
<g id="edge4" class="edge">
<title>Node0&#45;&gt;Node4</title>
<path fill="none" stroke="#191970" d="M227.6417,-56.2455C233.3444,-48.4564 241.49,-37.3308 248.3625,-27.9439"/>
<polygon fill="#191970" stroke="#191970" points="251.3568,-29.7789 254.4402,-19.6427 245.7087,-25.6437 251.3568,-29.7789"/>
</g>
<!-- Node5 -->
<g id="node6" class="node">
<title>Node5</title>
<polygon fill="#ffffff" stroke="#bfbfbf" points="315.5,-.5 315.5,-19.5 363.5,-19.5 363.5,-.5 315.5,-.5"/>
<text text-anchor="middle" x="339.5" y="-7.5" font-family="Helvetica,sans-Serif" font-size="10.00" fill="#000000">time.h</text>
</g>
<!-- Node0&#45;&gt;Node5 -->
<g id="edge5" class="edge">
<title>Node0&#45;&gt;Node5</title>
<path fill="none" stroke="#191970" d="M240.9568,-56.3733C259.9738,-47.4241 288.5175,-33.9917 309.9976,-23.8835"/>
<polygon fill="#191970" stroke="#191970" points="311.7522,-26.926 319.3101,-19.5011 308.7716,-20.5923 311.7522,-26.926"/>
</g>
<!-- Node6 -->
<g id="node7" class="node">
<title>Node6</title>
<g id="a_node7"><a xlink:href="mutt_2lib_8h.html" target="_top" xlink:title="Convenience wrapper for the library headers. ">
<polygon fill="#ffffff" stroke="#ff0000" points="381.5,-.5 381.5,-19.5 445.5,-19.5 445.5,-.5 381.5,-.5"/>
<text text-anchor="middle" x="413.5" y="-7.5" font-family="Helvetica,sans-Serif" font-size="10.00" fill="#000000">mutt/lib.h</text>
</a>
</g>
</g>
<!-- Node0&#45;&gt;Node6 -->
<g id="edge6" class="edge">
<title>Node0&#45;&gt;Node6</title>
<path fill="none" stroke="#191970" d="M252.8039,-56.6269C285.467,-47.1495 336.0882,-32.4614 371.7714,-22.1078"/>
<polygon fill="#191970" stroke="#191970" points="372.7839,-25.4584 381.4125,-19.3104 370.8332,-18.7357 372.7839,-25.4584"/>
</g>
</g>
</svg>
