<?xml version="1.0" encoding="UTF-8" standalone="no"?>
<!DOCTYPE svg PUBLIC "-//W3C//DTD SVG 1.1//EN"
 "http://www.w3.org/Graphics/SVG/1.1/DTD/svg11.dtd">
<!-- Generated by graphviz version 12.2.1 (20241206.2353)
 -->
<!-- Title: browser_cleanup Pages: 1 -->
<svg width="280pt" height="110pt"
 viewBox="0.00 0.00 280.00 110.25" xmlns="http://www.w3.org/2000/svg" xmlns:xlink="http://www.w3.org/1999/xlink">
<g id="graph0" class="graph" transform="scale(1 1) rotate(0) translate(4 106.25)">
<title>browser_cleanup</title>
<!-- Node1 -->
<g id="Node000001" class="node">
<title>Node1</title>
<g id="a_Node000001"><a xlink:title="Clean up a Module &#45; Implements Module::cleanup()">
<polygon fill="#999999" stroke="#666666" points="94.75,-62.25 0,-62.25 0,-40 94.75,-40 94.75,-62.25"/>
<text text-anchor="middle" x="47.38" y="-48.75" font-family="Helvetica,sans-Serif" font-size="10.00">browser_cleanup</text>
</a>
</g>
</g>
<!-- Node2 -->
<g id="Node000002" class="node">
<title>Node2</title>
<g id="a_Node000002"><a xlink:href="buffer_8c.html#a3847c69d3b333d1674043d7f5b7b112f" target="_top" xlink:title="Release the memory allocated by a buffer.">
<polygon fill="white" stroke="#666666" points="235.62,-102.25 167.12,-102.25 167.12,-80 235.62,-80 235.62,-102.25"/>
<text text-anchor="middle" x="201.38" y="-88.75" font-family="Helvetica,sans-Serif" font-size="10.00">buf_dealloc</text>
</a>
</g>
</g>
<!-- Node1&#45;&gt;Node2 -->
<g id="edge1_Node000001_Node000002" class="edge">
<title>Node1&#45;&gt;Node2</title>
<g id="a_edge1_Node000001_Node000002"><a xlink:title=" ">
<path fill="none" stroke="#63b8ff" d="M92.34,-62.69C112.22,-67.93 135.68,-74.1 155.65,-79.36"/>
<polygon fill="#63b8ff" stroke="#63b8ff" points="154.62,-82.7 165.19,-81.86 156.41,-75.94 154.62,-82.7"/>
</a>
</g>
</g>
<!-- Node3 -->
<g id="Node000003" class="node">
<title>Node3</title>
<g id="a_Node000003"><a xlink:href="neomutt_8c.html#ab58efd47fa66c8187cfdce43078c94fa" target="_top" xlink:title="Get the private data for a Module.">
<polygon fill="white" stroke="#666666" points="272,-62.25 130.75,-62.25 130.75,-40 272,-40 272,-62.25"/>
<text text-anchor="middle" x="201.38" y="-48.75" font-family="Helvetica,sans-Serif" font-size="10.00">neomutt_get_module_data</text>
</a>
</g>
</g>
<!-- Node1&#45;&gt;Node3 -->
<g id="edge2_Node000001_Node000003" class="edge">
<title>Node1&#45;&gt;Node3</title>
<g id="a_edge2_Node000001_Node000003"><a xlink:title=" ">
<path fill="none" stroke="#63b8ff" d="M95.22,-51.12C102.81,-51.12 110.86,-51.12 118.98,-51.12"/>
<polygon fill="#63b8ff" stroke="#63b8ff" points="118.98,-54.63 128.98,-51.13 118.98,-47.63 118.98,-54.63"/>
</a>
</g>
</g>
<!-- Node4 -->
<g id="Node000004" class="node">
<title>Node4</title>
<g id="a_Node000004"><a xlink:href="mutt_2notify_8c.html#ae7fe885788b891a9f2b0bf6c5aae2613" target="_top" xlink:title="Free a notification handler.">
<polygon fill="#fff0f0" stroke="red" points="234.88,-22.25 167.88,-22.25 167.88,0 234.88,0 234.88,-22.25"/>
<text text-anchor="middle" x="201.38" y="-8.75" font-family="Helvetica,sans-Serif" font-size="10.00">notify_free</text>
</a>
</g>
</g>
<!-- Node1&#45;&gt;Node4 -->
<g id="edge3_Node000001_Node000004" class="edge">
<title>Node1&#45;&gt;Node4</title>
<g id="a_edge3_Node000001_Node000004"><a xlink:title=" ">
<path fill="none" stroke="#63b8ff" d="M92.34,-39.56C112.52,-34.25 136.38,-27.97 156.54,-22.66"/>
<polygon fill="#63b8ff" stroke="#63b8ff" points="157.37,-26.06 166.15,-20.13 155.59,-19.29 157.37,-26.06"/>
</a>
</g>
</g>
</g>
</svg>
