<?xml version="1.0" encoding="UTF-8" standalone="no"?>
<!DOCTYPE svg PUBLIC "-//W3C//DTD SVG 1.1//EN"
 "http://www.w3.org/Graphics/SVG/1.1/DTD/svg11.dtd">
<!-- Generated by graphviz version 12.2.1 (20241206.2353)
 -->
<!-- Title: buf_concatn_path Pages: 1 -->
<svg width="319pt" height="108pt"
 viewBox="0.00 0.00 318.50 108.25" xmlns="http://www.w3.org/2000/svg" xmlns:xlink="http://www.w3.org/1999/xlink">
<g id="graph0" class="graph" transform="scale(1 1) rotate(0) translate(4 104.25)">
<title>buf_concatn_path</title>
<!-- Node1 -->
<g id="Node000001" class="node">
<title>Node1</title>
<g id="a_Node000001"><a xlink:title="Join a directory name and a filename.">
<polygon fill="#999999" stroke="#666666" points="97.75,-61.25 0,-61.25 0,-39 97.75,-39 97.75,-61.25"/>
<text text-anchor="middle" x="48.88" y="-47.75" font-family="Helvetica,sans-Serif" font-size="10.00">buf_concatn_path</text>
</a>
</g>
</g>
<!-- Node2 -->
<g id="Node000002" class="node">
<title>Node2</title>
<g id="a_Node000002"><a xlink:href="buffer_8c.html#a9765efbb7f2c32e46fb1cb271a02ba20" target="_top" xlink:title="Add a single character to a Buffer.">
<polygon fill="white" stroke="#666666" points="197.75,-100.25 133.75,-100.25 133.75,-78 197.75,-78 197.75,-100.25"/>
<text text-anchor="middle" x="165.75" y="-86.75" font-family="Helvetica,sans-Serif" font-size="10.00">buf_addch</text>
</a>
</g>
</g>
<!-- Node1&#45;&gt;Node2 -->
<g id="edge1_Node000001_Node000002" class="edge">
<title>Node1&#45;&gt;Node2</title>
<g id="a_edge1_Node000001_Node000002"><a xlink:title=" ">
<path fill="none" stroke="#63b8ff" d="M84.03,-61.72C96.1,-65.82 109.83,-70.48 122.49,-74.78"/>
<polygon fill="#63b8ff" stroke="#63b8ff" points="121.25,-78.05 131.84,-77.95 123.5,-71.42 121.25,-78.05"/>
</a>
</g>
</g>
<!-- Node3 -->
<g id="Node000003" class="node">
<title>Node3</title>
<g id="a_Node000003"><a xlink:href="buffer_8c.html#a2881936af4a3e3b45079cb9af0cdb3e8" target="_top" xlink:title="Add a string to a Buffer, expanding it if necessary.">
<polygon fill="#fff0f0" stroke="red" points="310.5,-80.25 233.75,-80.25 233.75,-58 310.5,-58 310.5,-80.25"/>
<text text-anchor="middle" x="272.12" y="-66.75" font-family="Helvetica,sans-Serif" font-size="10.00">buf_addstr_n</text>
</a>
</g>
</g>
<!-- Node1&#45;&gt;Node3 -->
<g id="edge3_Node000001_Node000003" class="edge">
<title>Node1&#45;&gt;Node3</title>
<g id="a_edge3_Node000001_Node000003"><a xlink:title=" ">
<path fill="none" stroke="#63b8ff" d="M98.16,-54.27C135.03,-57.44 185.62,-61.78 222.57,-64.95"/>
<polygon fill="#63b8ff" stroke="#63b8ff" points="221.79,-68.4 232.05,-65.77 222.39,-61.43 221.79,-68.4"/>
</a>
</g>
</g>
<!-- Node6 -->
<g id="Node000006" class="node">
<title>Node6</title>
<g id="a_Node000006"><a xlink:href="buffer_8c.html#a3b1f80652b37dc26046f9acdd85a0b05" target="_top" xlink:title="Reset an existing Buffer.">
<polygon fill="#fff0f0" stroke="red" points="195.88,-22.25 135.62,-22.25 135.62,0 195.88,0 195.88,-22.25"/>
<text text-anchor="middle" x="165.75" y="-8.75" font-family="Helvetica,sans-Serif" font-size="10.00">buf_reset</text>
</a>
</g>
</g>
<!-- Node1&#45;&gt;Node6 -->
<g id="edge4_Node000001_Node000006" class="edge">
<title>Node1&#45;&gt;Node6</title>
<g id="a_edge4_Node000001_Node000006"><a xlink:title=" ">
<path fill="none" stroke="#63b8ff" d="M84.03,-38.53C96.74,-34.21 111.28,-29.28 124.49,-24.79"/>
<polygon fill="#63b8ff" stroke="#63b8ff" points="125.42,-28.17 133.77,-21.64 123.17,-21.54 125.42,-28.17"/>
</a>
</g>
</g>
<!-- Node2&#45;&gt;Node3 -->
<g id="edge2_Node000002_Node000003" class="edge">
<title>Node2&#45;&gt;Node3</title>
<g id="a_edge2_Node000002_Node000003"><a xlink:title=" ">
<path fill="none" stroke="#63b8ff" d="M198.07,-83.12C205.74,-81.65 214.14,-80.04 222.43,-78.46"/>
<polygon fill="#63b8ff" stroke="#63b8ff" points="222.92,-81.93 232.08,-76.61 221.6,-75.05 222.92,-81.93"/>
</a>
</g>
</g>
</g>
</svg>
