<?xml version="1.0" encoding="UTF-8" standalone="no"?>
<!DOCTYPE svg PUBLIC "-//W3C//DTD SVG 1.1//EN"
 "http://www.w3.org/Graphics/SVG/1.1/DTD/svg11.dtd">
<!-- Generated by graphviz version 7.1.0 (0)
 -->
<!-- Title: buf_len Pages: 1 -->
<svg width="551pt" height="1712pt"
 viewBox="0.00 0.00 551.00 1712.05" xmlns="http://www.w3.org/2000/svg" xmlns:xlink="http://www.w3.org/1999/xlink">
<g id="graph0" class="graph" transform="scale(1 1) rotate(0) translate(4 1708.05)">
<title>buf_len</title>
<!-- Node1 -->
<g id="node1" class="node">
<title>Node1</title>
<g id="a_node1"><a xlink:title="Calculate the length of a Buffer.">
<polygon fill="#999999" stroke="#666666" points="543,-861 492,-861 492,-842 543,-842 543,-861"/>
<text text-anchor="middle" x="517.5" y="-849" font-family="Helvetica,sans-Serif" font-size="10.00">buf_len</text>
</a>
</g>
</g>
<!-- Node2 -->
<g id="node2" class="node">
<title>Node2</title>
<g id="a_node2"><a xlink:href="address_2address_8c.html#a6ce056b035774b9cf7ed2c031ca530ab" target="_top" xlink:title="Write an AddressList to a buffer, optionally perform line wrapping and display conversion.">
<polygon fill="#fff0f0" stroke="red" points="103,-1659 23,-1659 23,-1640 103,-1640 103,-1659"/>
<text text-anchor="middle" x="63" y="-1647" font-family="Helvetica,sans-Serif" font-size="10.00">addrlist_write</text>
</a>
</g>
</g>
<!-- Node1&#45;&gt;Node2 -->
<g id="edge1" class="edge">
<title>Node1&#45;&gt;Node2</title>
<path fill="none" stroke="#63b8ff" d="M516.45,-872.46C515.94,-992.43 510.67,-1588.6 456,-1646.5 357.88,-1750.42 156.96,-1685.86 87.92,-1659.31"/>
<polygon fill="#63b8ff" stroke="#63b8ff" points="519.94,-872.82 516.48,-862.81 512.94,-872.8 519.94,-872.82"/>
</g>
<!-- Node5 -->
<g id="node3" class="node">
<title>Node5</title>
<g id="a_node3"><a xlink:href="dlg__alias_8c.html#a0c1f2e3f44f82266889eb83d35893143" target="_top" xlink:title="Alias completion routine.">
<polygon fill="#fff0f0" stroke="red" points="269,-1517 185,-1517 185,-1498 269,-1498 269,-1517"/>
<text text-anchor="middle" x="227" y="-1505" font-family="Helvetica,sans-Serif" font-size="10.00">alias_complete</text>
</a>
</g>
</g>
<!-- Node1&#45;&gt;Node5 -->
<g id="edge2" class="edge">
<title>Node1&#45;&gt;Node5</title>
<path fill="none" stroke="#63b8ff" d="M516.23,-872.73C514.62,-981.42 504.69,-1472.04 456,-1516.5 398.66,-1568.86 295.47,-1535.77 250.25,-1517.38"/>
<polygon fill="#63b8ff" stroke="#63b8ff" points="519.72,-872.99 516.36,-862.94 512.73,-872.89 519.72,-872.99"/>
</g>
<!-- Node727 -->
<g id="node4" class="node">
<title>Node727</title>
<g id="a_node4"><a xlink:href="buffer_8c.html#a52e24da79941dc16d5577dac9dfc2698" target="_top" xlink:title="Return the character at the given offset.">
<polygon fill="#fff0f0" stroke="red" points="415,-1507 369,-1507 369,-1488 415,-1488 415,-1507"/>
<text text-anchor="middle" x="392" y="-1495" font-family="Helvetica,sans-Serif" font-size="10.00">buf_at</text>
</a>
</g>
</g>
<!-- Node1&#45;&gt;Node727 -->
<g id="edge3" class="edge">
<title>Node1&#45;&gt;Node727</title>
<path fill="none" stroke="#63b8ff" d="M515.75,-872.68C511.92,-976.05 493.24,-1424.7 456,-1473.5 446.41,-1486.06 429.42,-1492.05 415.49,-1494.9"/>
<polygon fill="#63b8ff" stroke="#63b8ff" points="519.24,-873 516.11,-862.88 512.25,-872.74 519.24,-873"/>
</g>
<!-- Node728 -->
<g id="node5" class="node">
<title>Node728</title>
<g id="a_node5"><a xlink:href="group__compapi__complete.html#gad95ee302c4fbe10ccce67637e9bade59" target="_top" xlink:title="Complete a NeoMutt Command &#45; Implements CompleteOps::complete() &#45;.">
<polygon fill="white" stroke="#666666" points="282,-1611 172,-1611 172,-1592 282,-1592 282,-1611"/>
<text text-anchor="middle" x="227" y="-1599" font-family="Helvetica,sans-Serif" font-size="10.00">complete_command</text>
</a>
</g>
</g>
<!-- Node1&#45;&gt;Node728 -->
<g id="edge29" class="edge">
<title>Node1&#45;&gt;Node728</title>
<path fill="none" stroke="#63b8ff" d="M516.29,-872.67C514.96,-986.5 506.04,-1522.71 456,-1574.5 410.02,-1622.08 327.81,-1619.31 275.68,-1611.48"/>
<polygon fill="#63b8ff" stroke="#63b8ff" points="519.79,-872.99 516.4,-862.95 512.79,-872.91 519.79,-872.99"/>
</g>
<!-- Node778 -->
<g id="node6" class="node">
<title>Node778</title>
<g id="a_node6"><a xlink:href="graphviz_8c.html#adfd39bceb2e1a228a49fa1569da54cf0" target="_top" xlink:title=" ">
<polygon fill="#fff0f0" stroke="red" points="290,-1564 164,-1564 164,-1545 290,-1545 290,-1564"/>
<text text-anchor="middle" x="227" y="-1552" font-family="Helvetica,sans-Serif" font-size="10.00">dot_type_string_escape</text>
</a>
</g>
</g>
<!-- Node1&#45;&gt;Node778 -->
<g id="edge32" class="edge">
<title>Node1&#45;&gt;Node778</title>
<path fill="none" stroke="#63b8ff" d="M516.28,-872.54C514.88,-983.43 505.76,-1496.84 456,-1544.5 403.2,-1595.06 308.08,-1577.94 259.07,-1564.43"/>
<polygon fill="#63b8ff" stroke="#63b8ff" points="519.77,-872.86 516.39,-862.82 512.77,-872.78 519.77,-872.86"/>
</g>
<!-- Node786 -->
<g id="node7" class="node">
<title>Node786</title>
<g id="a_node7"><a xlink:href="address_2address_8c.html#a4e3a6705fd8f479444e5202a593587c3" target="_top" xlink:title="Write a single Address to a buffer.">
<polygon fill="#fff0f0" stroke="red" points="274,-1480 180,-1480 180,-1461 274,-1461 274,-1480"/>
<text text-anchor="middle" x="227" y="-1468" font-family="Helvetica,sans-Serif" font-size="10.00">mutt_addr_write</text>
</a>
</g>
</g>
<!-- Node1&#45;&gt;Node786 -->
<g id="edge50" class="edge">
<title>Node1&#45;&gt;Node786</title>
<path fill="none" stroke="#63b8ff" d="M515.71,-872.56C511.86,-970.79 493.6,-1380.85 456,-1422.5 410.46,-1472.94 326.5,-1477.85 274.16,-1475.26"/>
<polygon fill="#63b8ff" stroke="#63b8ff" points="519.21,-872.7 516.1,-862.57 512.22,-872.43 519.21,-872.7"/>
</g>
<!-- Node789 -->
<g id="node8" class="node">
<title>Node789</title>
<g id="a_node8"><a xlink:href="envelope_2window_8c.html#a094c42d2adc33086bf5e51684819cd24" target="_top" xlink:title="Write addresses to the compose window.">
<polygon fill="#fff0f0" stroke="red" points="119.5,-1412 6.5,-1412 6.5,-1393 119.5,-1393 119.5,-1412"/>
<text text-anchor="middle" x="63" y="-1400" font-family="Helvetica,sans-Serif" font-size="10.00">draw_envelope_addr</text>
</a>
</g>
</g>
<!-- Node1&#45;&gt;Node789 -->
<g id="edge33" class="edge">
<title>Node1&#45;&gt;Node789</title>
<path fill="none" stroke="#63b8ff" d="M516.85,-872.57C517.77,-954.42 516.77,-1249.99 456,-1315.5 410.62,-1364.42 226.94,-1361.16 162,-1376.5 141.27,-1381.4 118.24,-1387.47 99.72,-1392.52"/>
<polygon fill="#63b8ff" stroke="#63b8ff" points="520.35,-872.61 516.72,-862.66 513.35,-872.71 520.35,-872.61"/>
</g>
<!-- Node239 -->
<g id="node9" class="node">
<title>Node239</title>
<g id="a_node9"><a xlink:href="complete_2complete_8c.html#a270c75621efdb47cc597be454c1c77a2" target="_top" xlink:title="Attempt to complete a partial pathname.">
<polygon fill="#fff0f0" stroke="red" points="106.5,-1260 19.5,-1260 19.5,-1241 106.5,-1241 106.5,-1260"/>
<text text-anchor="middle" x="63" y="-1248" font-family="Helvetica,sans-Serif" font-size="10.00">mutt_complete</text>
</a>
</g>
</g>
<!-- Node1&#45;&gt;Node239 -->
<g id="edge52" class="edge">
<title>Node1&#45;&gt;Node239</title>
<path fill="none" stroke="#63b8ff" d="M516.98,-872.8C516.66,-914.43 509.55,-1006.61 456,-1053.5 356.44,-1140.67 273.03,-1028.5 162,-1100.5 107.45,-1135.87 76.65,-1213.47 67.18,-1240.77"/>
<polygon fill="#63b8ff" stroke="#63b8ff" points="520.48,-872.88 516.91,-862.91 513.48,-872.93 520.48,-872.88"/>
</g>
<!-- Node357 -->
<g id="node10" class="node">
<title>Node357</title>
<g id="a_node10"><a xlink:href="nntp_8c.html#a1c9cc18654661195df4df904c2918625" target="_top" xlink:title="Get login, password and authenticate.">
<polygon fill="#fff0f0" stroke="red" points="259,-1404 195,-1404 195,-1385 259,-1385 259,-1404"/>
<text text-anchor="middle" x="227" y="-1392" font-family="Helvetica,sans-Serif" font-size="10.00">nntp_auth</text>
</a>
</g>
</g>
<!-- Node1&#45;&gt;Node357 -->
<g id="edge59" class="edge">
<title>Node1&#45;&gt;Node357</title>
<path fill="none" stroke="#63b8ff" d="M515.81,-872.61C512.45,-969.27 496.25,-1366.42 456,-1402.5 427.83,-1427.74 314.78,-1410.87 259.18,-1400.67"/>
<polygon fill="#63b8ff" stroke="#63b8ff" points="519.31,-872.88 516.14,-862.77 512.31,-872.64 519.31,-872.88"/>
</g>
<!-- Node813 -->
<g id="node11" class="node">
<title>Node813</title>
<g id="a_node11"><a xlink:href="buffer_8c.html#ad68834195d667b0932da5133a5402d70" target="_top" xlink:title="Copy a Buffer&#39;s contents to another Buffer.">
<polygon fill="#fff0f0" stroke="red" points="421.5,-1241 362.5,-1241 362.5,-1222 421.5,-1222 421.5,-1241"/>
<text text-anchor="middle" x="392" y="-1229" font-family="Helvetica,sans-Serif" font-size="10.00">buf_copy</text>
</a>
</g>
</g>
<!-- Node1&#45;&gt;Node813 -->
<g id="edge12" class="edge">
<title>Node1&#45;&gt;Node813</title>
<path fill="none" stroke="#63b8ff" d="M515.6,-872.73C512.27,-941.33 498.61,-1155.61 456,-1207.5 447.53,-1217.81 434.11,-1223.7 421.83,-1227.06"/>
<polygon fill="#63b8ff" stroke="#63b8ff" points="519.09,-873.02 516.05,-862.87 512.09,-872.7 519.09,-873.02"/>
</g>
<!-- Node223 -->
<g id="node12" class="node">
<title>Node223</title>
<g id="a_node12"><a xlink:href="group__gui__dlg.html#ga0772d3d88c6b65815188e5d56d1498fb" target="_top" xlink:title="Let the user select a file &#45;.">
<polygon fill="#fff0f0" stroke="red" points="264,-1317 190,-1317 190,-1298 264,-1298 264,-1317"/>
<text text-anchor="middle" x="227" y="-1305" font-family="Helvetica,sans-Serif" font-size="10.00">dlg_browser</text>
</a>
</g>
</g>
<!-- Node1&#45;&gt;Node223 -->
<g id="edge31" class="edge">
<title>Node1&#45;&gt;Node223</title>
<path fill="none" stroke="#63b8ff" d="M516.8,-872.49C517.44,-950.88 515.33,-1224.93 456,-1282.5 405.13,-1331.86 314.77,-1324.66 264.43,-1315.7"/>
<polygon fill="#63b8ff" stroke="#63b8ff" points="520.3,-872.76 516.69,-862.8 513.3,-872.84 520.3,-872.76"/>
</g>
<!-- Node228 -->
<g id="node13" class="node">
<title>Node228</title>
<g id="a_node13"><a xlink:href="external_8c.html#a5c1000cf97c9c8aa7b15007980f7ca86" target="_top" xlink:title="Save an email.">
<polygon fill="#fff0f0" stroke="red" points="282,-1203 172,-1203 172,-1184 282,-1184 282,-1203"/>
<text text-anchor="middle" x="227" y="-1191" font-family="Helvetica,sans-Serif" font-size="10.00">mutt_save_message</text>
</a>
</g>
</g>
<!-- Node1&#45;&gt;Node228 -->
<g id="edge58" class="edge">
<title>Node1&#45;&gt;Node228</title>
<path fill="none" stroke="#63b8ff" d="M515.44,-872.71C511.85,-935.85 497.86,-1120.66 456,-1160.5 410.08,-1204.2 333.62,-1206.44 282.04,-1201.8"/>
<polygon fill="#63b8ff" stroke="#63b8ff" points="518.92,-873.17 515.96,-862.99 511.93,-872.79 518.92,-873.17"/>
</g>
<!-- Node826 -->
<g id="node14" class="node">
<title>Node826</title>
<g id="a_node14"><a xlink:href="nntp_2complete_8c.html#a308b3b2673b7f280d9dc16b42da7d1b6" target="_top" xlink:title="Auto&#45;complete NNTP newsgroups.">
<polygon fill="white" stroke="#666666" points="270,-1279 184,-1279 184,-1260 270,-1260 270,-1279"/>
<text text-anchor="middle" x="227" y="-1267" font-family="Helvetica,sans-Serif" font-size="10.00">nntp_complete</text>
</a>
</g>
</g>
<!-- Node1&#45;&gt;Node826 -->
<g id="edge60" class="edge">
<title>Node1&#45;&gt;Node826</title>
<path fill="none" stroke="#63b8ff" d="M516.58,-872.41C516.41,-947.02 511.64,-1198.49 456,-1250.5 405.51,-1297.7 318.33,-1289.51 267.65,-1279.43"/>
<polygon fill="#63b8ff" stroke="#63b8ff" points="520.08,-872.82 516.58,-862.82 513.08,-872.82 520.08,-872.82"/>
</g>
<!-- Node292 -->
<g id="node15" class="node">
<title>Node292</title>
<g id="a_node15"><a xlink:href="group__browser__function__api.html#gafe2d08165ce49c59b75e57622d46ea2e" target="_top" xlink:title="Change directories &#45; Implements browser_function_t &#45;.">
<polygon fill="white" stroke="#666666" points="283.5,-1165 170.5,-1165 170.5,-1146 283.5,-1146 283.5,-1165"/>
<text text-anchor="middle" x="227" y="-1153" font-family="Helvetica,sans-Serif" font-size="10.00">op_change_directory</text>
</a>
</g>
</g>
<!-- Node1&#45;&gt;Node292 -->
<g id="edge65" class="edge">
<title>Node1&#45;&gt;Node292</title>
<path fill="none" stroke="#63b8ff" d="M514.92,-872.66C510.13,-930.99 493.66,-1092.09 456,-1126.5 409.9,-1168.62 334.96,-1170.08 283.66,-1164.85"/>
<polygon fill="#63b8ff" stroke="#63b8ff" points="518.41,-873.04 515.7,-862.79 511.43,-872.49 518.41,-873.04"/>
</g>
<!-- Node295 -->
<g id="node16" class="node">
<title>Node295</title>
<g id="a_node16"><a xlink:href="group__browser__function__api.html#gad70110be5d7559d1abbf8ffcebc9c738" target="_top" xlink:title="Select the current entry &#45; Implements browser_function_t &#45;.">
<polygon fill="white" stroke="#666666" points="292,-1128 162,-1128 162,-1109 292,-1109 292,-1128"/>
<text text-anchor="middle" x="227" y="-1116" font-family="Helvetica,sans-Serif" font-size="10.00">op_generic_select_entry</text>
</a>
</g>
</g>
<!-- Node1&#45;&gt;Node295 -->
<g id="edge66" class="edge">
<title>Node1&#45;&gt;Node295</title>
<path fill="none" stroke="#63b8ff" d="M514.24,-872.94C508.14,-926.57 489.46,-1064.3 456,-1093.5 408.45,-1135 332.38,-1134.69 281.33,-1128.44"/>
<polygon fill="#63b8ff" stroke="#63b8ff" points="517.72,-873.33 515.33,-863 510.76,-872.56 517.72,-873.33"/>
</g>
<!-- Node891 -->
<g id="node17" class="node">
<title>Node891</title>
<g id="a_node17"><a xlink:href="buffer_8c.html#ad68cbd296b1d1bd5f734c36ce827bc86" target="_top" xlink:title="Add a string in the middle of a buffer.">
<polygon fill="#fff0f0" stroke="red" points="259,-1659 195,-1659 195,-1640 259,-1640 259,-1659"/>
<text text-anchor="middle" x="227" y="-1647" font-family="Helvetica,sans-Serif" font-size="10.00">buf_insert</text>
</a>
</g>
</g>
<!-- Node1&#45;&gt;Node891 -->
<g id="edge21" class="edge">
<title>Node1&#45;&gt;Node891</title>
<path fill="none" stroke="#63b8ff" d="M516.32,-872.51C515.13,-989 506.78,-1552.48 456,-1608.5 406.03,-1663.63 309.22,-1660.49 259.35,-1654.51"/>
<polygon fill="#63b8ff" stroke="#63b8ff" points="519.82,-872.89 516.41,-862.85 512.82,-872.82 519.82,-872.89"/>
</g>
<!-- Node894 -->
<g id="node18" class="node">
<title>Node894</title>
<g id="a_node18"><a xlink:href="format_8c.html#a00c3cdd039a3f4f5f33e3ad0aaf31ed4" target="_top" xlink:title="Justify a string.">
<polygon fill="white" stroke="#666666" points="424.5,-975 359.5,-975 359.5,-956 424.5,-956 424.5,-975"/>
<text text-anchor="middle" x="392" y="-963" font-family="Helvetica,sans-Serif" font-size="10.00">buf_justify</text>
</a>
</g>
</g>
<!-- Node1&#45;&gt;Node894 -->
<g id="edge23" class="edge">
<title>Node1&#45;&gt;Node894</title>
<path fill="none" stroke="#63b8ff" d="M507.54,-871.6C497.6,-891.81 479.77,-922.61 456,-941.5 446.93,-948.71 435.45,-953.93 424.79,-957.63"/>
<polygon fill="#63b8ff" stroke="#63b8ff" points="510.63,-873.26 511.71,-862.72 504.29,-870.28 510.63,-873.26"/>
</g>
<!-- Node895 -->
<g id="node19" class="node">
<title>Node895</title>
<g id="a_node19"><a xlink:href="format_8c.html#a3dbbcf9e5e2e90ae39dd5571f34ebd17" target="_top" xlink:title="Format a string, like snprintf()">
<polygon fill="#fff0f0" stroke="red" points="267,-975 187,-975 187,-956 267,-956 267,-975"/>
<text text-anchor="middle" x="227" y="-963" font-family="Helvetica,sans-Serif" font-size="10.00">format_string</text>
</a>
</g>
</g>
<!-- Node1&#45;&gt;Node895 -->
<g id="edge37" class="edge">
<title>Node1&#45;&gt;Node895</title>
<path fill="none" stroke="#63b8ff" d="M501.8,-869.6C490.54,-882.29 473.93,-898.7 456,-908.5 423.69,-926.16 323.6,-947.26 267.37,-958.16"/>
<polygon fill="#63b8ff" stroke="#63b8ff" points="504.19,-872.18 508.02,-862.3 498.87,-867.64 504.19,-872.18"/>
</g>
<!-- Node896 -->
<g id="node20" class="node">
<title>Node896</title>
<g id="a_node20"><a xlink:href="group__expando__render.html#ga45ff1cc4ccaa545dfda9cf6cff1c45c8" target="_top" xlink:title="Render a Conditional Node &#45; Implements ExpandoNode::render() &#45;.">
<polygon fill="#fff0f0" stroke="red" points="125.5,-1032 0.5,-1032 0.5,-1013 125.5,-1013 125.5,-1032"/>
<text text-anchor="middle" x="63" y="-1020" font-family="Helvetica,sans-Serif" font-size="10.00">node_condition_render</text>
</a>
</g>
</g>
<!-- Node1&#45;&gt;Node896 -->
<g id="edge62" class="edge">
<title>Node1&#45;&gt;Node896</title>
<path fill="none" stroke="#63b8ff" d="M515.77,-872.68C513.27,-909.07 502.4,-982.87 456,-1017.5 345.13,-1100.23 163.21,-1054.75 92.95,-1032.49"/>
<polygon fill="#63b8ff" stroke="#63b8ff" points="519.25,-873.18 516.28,-863.01 512.26,-872.81 519.25,-873.18"/>
</g>
<!-- Node909 -->
<g id="node21" class="node">
<title>Node909</title>
<g id="a_node21"><a xlink:href="group__expando__render.html#ga143aff7e333238208469089c0f9726cb" target="_top" xlink:title="Callback for a Container Node &#45; Implements ExpandoNode::render() &#45;.">
<polygon fill="#fff0f0" stroke="red" points="126,-985 0,-985 0,-966 126,-966 126,-985"/>
<text text-anchor="middle" x="63" y="-973" font-family="Helvetica,sans-Serif" font-size="10.00">node_container_render</text>
</a>
</g>
</g>
<!-- Node1&#45;&gt;Node909 -->
<g id="edge63" class="edge">
<title>Node1&#45;&gt;Node909</title>
<path fill="none" stroke="#63b8ff" d="M513.98,-872.18C509.01,-902.87 494.81,-959.52 456,-984.5 338.66,-1060.03 157.88,-1008.82 90.5,-985.42"/>
<polygon fill="#63b8ff" stroke="#63b8ff" points="517.4,-873.02 515.34,-862.63 510.47,-872.04 517.4,-873.02"/>
</g>
<!-- Node914 -->
<g id="node22" class="node">
<title>Node914</title>
<g id="a_node22"><a xlink:href="group__expando__render.html#ga3de5fed891ae73d7997420162106f010" target="_top" xlink:title="Render an Expando Node &#45; Implements ExpandoNode::render() &#45;.">
<polygon fill="#fff0f0" stroke="red" points="124,-910 2,-910 2,-891 124,-891 124,-910"/>
<text text-anchor="middle" x="63" y="-898" font-family="Helvetica,sans-Serif" font-size="10.00">node_expando_render</text>
</a>
</g>
</g>
<!-- Node1&#45;&gt;Node914 -->
<g id="edge64" class="edge">
<title>Node1&#45;&gt;Node914</title>
<path fill="none" stroke="#63b8ff" d="M480.83,-855.24C442.92,-859.23 381.22,-865.75 328,-871.5 258.09,-879.05 177.79,-887.89 124.28,-893.81"/>
<polygon fill="#63b8ff" stroke="#63b8ff" points="480.71,-858.78 490.29,-854.25 479.98,-851.82 480.71,-858.78"/>
</g>
<!-- Node929 -->
<g id="node23" class="node">
<title>Node929</title>
<g id="a_node23"><a xlink:href="display_8c.html#a73742be224ef1cc275d4b6c7d585d44a" target="_top" xlink:title="Removes ANSI and backspace formatting.">
<polygon fill="#fff0f0" stroke="red" points="448.5,-899 335.5,-899 335.5,-880 448.5,-880 448.5,-899"/>
<text text-anchor="middle" x="392" y="-887" font-family="Helvetica,sans-Serif" font-size="10.00">buf_strip_formatting</text>
</a>
</g>
</g>
<!-- Node1&#45;&gt;Node929 -->
<g id="edge28" class="edge">
<title>Node1&#45;&gt;Node929</title>
<path fill="none" stroke="#63b8ff" d="M480.62,-862.54C463.19,-867.9 442.41,-874.3 425.46,-879.51"/>
<polygon fill="#63b8ff" stroke="#63b8ff" points="481.53,-865.92 490.06,-859.63 479.47,-859.23 481.53,-865.92"/>
</g>
<!-- Node931 -->
<g id="node24" class="node">
<title>Node931</title>
<g id="a_node24"><a xlink:href="imap_8c.html#aa19b17aff2740fa72f49816bf4fc2951" target="_top" xlink:title="Look for completion matches for mailboxes.">
<polygon fill="#fff0f0" stroke="red" points="271.5,-359 182.5,-359 182.5,-340 271.5,-340 271.5,-359"/>
<text text-anchor="middle" x="227" y="-347" font-family="Helvetica,sans-Serif" font-size="10.00">complete_hosts</text>
</a>
</g>
</g>
<!-- Node1&#45;&gt;Node931 -->
<g id="edge30" class="edge">
<title>Node1&#45;&gt;Node931</title>
<path fill="none" stroke="#63b8ff" d="M515.43,-830.51C511.69,-765.42 497.14,-568.61 456,-522.5 416.41,-478.12 376.65,-517.7 328,-483.5 279.32,-449.28 244.48,-383.94 232.53,-359.26"/>
<polygon fill="#63b8ff" stroke="#63b8ff" points="511.92,-830.38 515.95,-840.17 518.91,-830 511.92,-830.38"/>
</g>
<!-- Node932 -->
<g id="node25" class="node">
<title>Node932</title>
<g id="a_node25"><a xlink:href="expando_2filter_8c.html#aca5d8e52ad7cb152322d011300631bc1" target="_top" xlink:title="Render an Expando and run the result through a filter.">
<polygon fill="#fff0f0" stroke="red" points="268.5,-804 185.5,-804 185.5,-785 268.5,-785 268.5,-804"/>
<text text-anchor="middle" x="227" y="-792" font-family="Helvetica,sans-Serif" font-size="10.00">expando_filter</text>
</a>
</g>
</g>
<!-- Node1&#45;&gt;Node932 -->
<g id="edge34" class="edge">
<title>Node1&#45;&gt;Node932</title>
<path fill="none" stroke="#63b8ff" d="M480.55,-842.92C472.48,-841.07 463.96,-839.17 456,-837.5 390.76,-823.8 314.58,-809.85 268.87,-801.69"/>
<polygon fill="#63b8ff" stroke="#63b8ff" points="479.52,-846.28 490.06,-845.14 481.11,-839.46 479.52,-846.28"/>
</g>
<!-- Node979 -->
<g id="node26" class="node">
<title>Node979</title>
<g id="a_node26"><a xlink:href="expando_2filter_8c.html#af535badb3ba9348cb0bbcbdaf8c4c05d" target="_top" xlink:title="Filter the text through an external command.">
<polygon fill="white" stroke="#666666" points="423,-785 361,-785 361,-766 423,-766 423,-785"/>
<text text-anchor="middle" x="392" y="-773" font-family="Helvetica,sans-Serif" font-size="10.00">filter_text</text>
</a>
</g>
</g>
<!-- Node1&#45;&gt;Node979 -->
<g id="edge35" class="edge">
<title>Node1&#45;&gt;Node979</title>
<path fill="none" stroke="#63b8ff" d="M498.87,-833.44C487.44,-822.5 471.78,-808.89 456,-799.5 445.94,-793.51 434.13,-788.54 423.47,-784.7"/>
<polygon fill="#63b8ff" stroke="#63b8ff" points="496.4,-835.92 505.98,-840.45 501.31,-830.93 496.4,-835.92"/>
</g>
<!-- Node460 -->
<g id="node27" class="node">
<title>Node460</title>
<g id="a_node27"><a xlink:href="smime_8c.html#a4477a016ba21f15dd55a65c753c47b01" target="_top" xlink:title="Get the keys for a mailbox.">
<polygon fill="#fff0f0" stroke="red" points="418.5,-748 365.5,-748 365.5,-729 418.5,-729 418.5,-748"/>
<text text-anchor="middle" x="392" y="-736" font-family="Helvetica,sans-Serif" font-size="10.00">getkeys</text>
</a>
</g>
</g>
<!-- Node1&#45;&gt;Node460 -->
<g id="edge38" class="edge">
<title>Node1&#45;&gt;Node460</title>
<path fill="none" stroke="#63b8ff" d="M508.72,-831.15C499.42,-809.49 481.79,-775.74 456,-756.5 445.24,-748.47 431.02,-744.02 418.81,-741.55"/>
<polygon fill="#63b8ff" stroke="#63b8ff" points="505.46,-832.42 512.47,-840.37 511.95,-829.79 505.46,-832.42"/>
</g>
<!-- Node379 -->
<g id="node28" class="node">
<title>Node379</title>
<g id="a_node28"><a xlink:href="group__imap__authenticate.html#ga203bd1c72cb86256613c10cb0c8e1c82" target="_top" xlink:title="GSS Authentication support &#45; Implements ImapAuth::authenticate() &#45;.">
<polygon fill="white" stroke="#666666" points="434,-711 350,-711 350,-692 434,-692 434,-711"/>
<text text-anchor="middle" x="392" y="-699" font-family="Helvetica,sans-Serif" font-size="10.00">imap_auth_gss</text>
</a>
</g>
</g>
<!-- Node1&#45;&gt;Node379 -->
<g id="edge39" class="edge">
<title>Node1&#45;&gt;Node379</title>
<path fill="none" stroke="#63b8ff" d="M512.61,-830.59C506.08,-801.43 490.13,-748.82 456,-719.5 449.79,-714.16 442.09,-710.4 434.22,-707.76"/>
<polygon fill="#63b8ff" stroke="#63b8ff" points="509.11,-830.95 514.55,-840.04 515.96,-829.54 509.11,-830.95"/>
</g>
<!-- Node980 -->
<g id="node29" class="node">
<title>Node980</title>
<g id="a_node29"><a xlink:href="imap_2message_8c.html#a3c0f36a2c199ad42ce13fe65e014f9a2" target="_top" xlink:title="Generate a sequence set.">
<polygon fill="#fff0f0" stroke="red" points="455.5,-674 328.5,-674 328.5,-655 455.5,-655 455.5,-674"/>
<text text-anchor="middle" x="392" y="-662" font-family="Helvetica,sans-Serif" font-size="10.00">imap_fetch_msn_seqset</text>
</a>
</g>
</g>
<!-- Node1&#45;&gt;Node980 -->
<g id="edge40" class="edge">
<title>Node1&#45;&gt;Node980</title>
<path fill="none" stroke="#63b8ff" d="M515.01,-830.5C511.33,-794.86 498.74,-722.53 456,-682.5 452.51,-679.23 448.47,-676.56 444.16,-674.36"/>
<polygon fill="#63b8ff" stroke="#63b8ff" points="511.51,-830.67 515.87,-840.33 518.48,-830.06 511.51,-830.67"/>
</g>
<!-- Node981 -->
<g id="node30" class="node">
<title>Node981</title>
<g id="a_node30"><a xlink:href="util_8c.html#a37398fb77c2abaa0860c24621d4d17bb" target="_top" xlink:title="Open a header cache.">
<polygon fill="#fff0f0" stroke="red" points="444,-637 340,-637 340,-618 444,-618 444,-637"/>
<text text-anchor="middle" x="392" y="-625" font-family="Helvetica,sans-Serif" font-size="10.00">imap_hcache_open</text>
</a>
</g>
</g>
<!-- Node1&#45;&gt;Node981 -->
<g id="edge41" class="edge">
<title>Node1&#45;&gt;Node981</title>
<path fill="none" stroke="#63b8ff" d="M516.61,-830.34C515.64,-788.88 507.43,-696.56 456,-645.5 452.61,-642.13 448.64,-639.39 444.36,-637.15"/>
<polygon fill="#63b8ff" stroke="#63b8ff" points="513.11,-830.21 516.7,-840.17 520.11,-830.14 513.11,-830.21"/>
</g>
<!-- Node991 -->
<g id="node31" class="node">
<title>Node991</title>
<g id="a_node31"><a xlink:href="util_8c.html#a4acae80a7c01e9047c5813b7a62675ad" target="_top" xlink:title="Store a UID Sequence Set in the header cache.">
<polygon fill="#fff0f0" stroke="red" points="453.5,-599.5 330.5,-599.5 330.5,-569.5 453.5,-569.5 453.5,-599.5"/>
<text text-anchor="start" x="338.5" y="-587.5" font-family="Helvetica,sans-Serif" font-size="10.00">imap_hcache_store_uid</text>
<text text-anchor="middle" x="392" y="-576.5" font-family="Helvetica,sans-Serif" font-size="10.00">_seqset</text>
</a>
</g>
</g>
<!-- Node1&#45;&gt;Node991 -->
<g id="edge42" class="edge">
<title>Node1&#45;&gt;Node991</title>
<path fill="none" stroke="#63b8ff" d="M517.38,-830.24C518.11,-783.98 513.35,-673.18 456,-608.5 453.05,-605.17 449.59,-602.3 445.83,-599.83"/>
<polygon fill="#63b8ff" stroke="#63b8ff" points="513.88,-830.11 517.1,-840.2 520.88,-830.3 513.88,-830.11"/>
</g>
<!-- Node992 -->
<g id="node32" class="node">
<title>Node992</title>
<g id="a_node32"><a xlink:href="msg__set_8c.html#ac5d045a71a14cc5a7cc1ce24b7005174" target="_top" xlink:title="Generate a compressed message set of UIDs.">
<polygon fill="#fff0f0" stroke="red" points="448,-551 336,-551 336,-532 448,-532 448,-551"/>
<text text-anchor="middle" x="392" y="-539" font-family="Helvetica,sans-Serif" font-size="10.00">imap_make_msg_set</text>
</a>
</g>
</g>
<!-- Node1&#45;&gt;Node992 -->
<g id="edge43" class="edge">
<title>Node1&#45;&gt;Node992</title>
<path fill="none" stroke="#63b8ff" d="M514.86,-830.23C509.8,-770.06 492.52,-600.39 456,-560.5 452.61,-556.79 448.52,-553.8 444.07,-551.38"/>
<polygon fill="#63b8ff" stroke="#63b8ff" points="511.36,-830.42 515.66,-840.11 518.34,-829.86 511.36,-830.42"/>
</g>
<!-- Node993 -->
<g id="node33" class="node">
<title>Node993</title>
<g id="a_node33"><a xlink:href="imap_8c.html#a9229a56533493138e228a3a6c7a0df22" target="_top" xlink:title="Find longest prefix common to two strings.">
<polygon fill="#fff0f0" stroke="red" points="456,-204 328,-204 328,-185 456,-185 456,-204"/>
<text text-anchor="middle" x="392" y="-192" font-family="Helvetica,sans-Serif" font-size="10.00">longest_common_prefix</text>
</a>
</g>
</g>
<!-- Node1&#45;&gt;Node993 -->
<g id="edge44" class="edge">
<title>Node1&#45;&gt;Node993</title>
<path fill="none" stroke="#63b8ff" d="M515.89,-830.35C512.7,-725.13 496.39,-261.09 456,-212.5 453.31,-209.26 450.08,-206.59 446.53,-204.37"/>
<polygon fill="#63b8ff" stroke="#63b8ff" points="512.39,-830.42 516.19,-840.31 519.39,-830.21 512.39,-830.42"/>
</g>
<!-- Node212 -->
<g id="node34" class="node">
<title>Node212</title>
<g id="a_node34"><a xlink:href="exec_8c.html#a0ff4ba222d00cfa8392c362727ec7662" target="_top" xlink:title="Search an email.">
<polygon fill="#fff0f0" stroke="red" points="427.5,-475 356.5,-475 356.5,-456 427.5,-456 427.5,-475"/>
<text text-anchor="middle" x="392" y="-463" font-family="Helvetica,sans-Serif" font-size="10.00">msg_search</text>
</a>
</g>
</g>
<!-- Node1&#45;&gt;Node212 -->
<g id="edge46" class="edge">
<title>Node1&#45;&gt;Node212</title>
<path fill="none" stroke="#63b8ff" d="M515.67,-830.37C512.53,-761.12 499.33,-542.41 456,-489.5 448.88,-480.81 438.24,-475.26 427.72,-471.72"/>
<polygon fill="#63b8ff" stroke="#63b8ff" points="512.17,-830.46 516.09,-840.3 519.16,-830.16 512.17,-830.46"/>
</g>
<!-- Node994 -->
<g id="node35" class="node">
<title>Node994</title>
<g id="a_node35"><a xlink:href="msgwin_8c.html#a7afedab303914dc5d7b943d9b63feca4" target="_top" xlink:title="Add text to the Message Window.">
<polygon fill="#fff0f0" stroke="red" points="440,-438 344,-438 344,-419 440,-419 440,-438"/>
<text text-anchor="middle" x="392" y="-426" font-family="Helvetica,sans-Serif" font-size="10.00">msgwin_add_text</text>
</a>
</g>
</g>
<!-- Node1&#45;&gt;Node994 -->
<g id="edge47" class="edge">
<title>Node1&#45;&gt;Node994</title>
<path fill="none" stroke="#63b8ff" d="M516.27,-830.64C515.01,-756.14 506.98,-504.58 456,-446.5 451.72,-441.63 446.23,-438.03 440.27,-435.39"/>
<polygon fill="#63b8ff" stroke="#63b8ff" points="512.76,-830.25 516.4,-840.2 519.76,-830.16 512.76,-830.25"/>
</g>
<!-- Node1044 -->
<g id="node36" class="node">
<title>Node1044</title>
<g id="a_node36"><a xlink:href="msgwin_8c.html#aa8ac670a15b90c79e01e89448e0b0f5e" target="_top" xlink:title="Add some text to the Message Window.">
<polygon fill="#fff0f0" stroke="red" points="445.5,-401 338.5,-401 338.5,-382 445.5,-382 445.5,-401"/>
<text text-anchor="middle" x="392" y="-389" font-family="Helvetica,sans-Serif" font-size="10.00">msgwin_add_text_n</text>
</a>
</g>
</g>
<!-- Node1&#45;&gt;Node1044 -->
<g id="edge48" class="edge">
<title>Node1&#45;&gt;Node1044</title>
<path fill="none" stroke="#63b8ff" d="M516.55,-830.29C516.33,-751.03 511.51,-473.53 456,-409.5 453.09,-406.15 449.61,-403.4 445.79,-401.15"/>
<polygon fill="#63b8ff" stroke="#63b8ff" points="513.05,-830.1 516.56,-840.1 520.05,-830.1 513.05,-830.1"/>
</g>
<!-- Node1045 -->
<g id="node37" class="node">
<title>Node1045</title>
<g id="a_node37"><a xlink:href="msgwin_8c.html#ac1dc426af34116e8de4ebfb20d0cb44f" target="_top" xlink:title="Set the text for the Message Window.">
<polygon fill="#fff0f0" stroke="red" points="438.5,-364 345.5,-364 345.5,-345 438.5,-345 438.5,-364"/>
<text text-anchor="middle" x="392" y="-352" font-family="Helvetica,sans-Serif" font-size="10.00">msgwin_set_text</text>
</a>
</g>
</g>
<!-- Node1&#45;&gt;Node1045 -->
<g id="edge49" class="edge">
<title>Node1&#45;&gt;Node1045</title>
<path fill="none" stroke="#63b8ff" d="M516.81,-830.15C517.57,-746.54 516.1,-442.55 456,-372.5 451.41,-367.15 445.34,-363.33 438.79,-360.62"/>
<polygon fill="#63b8ff" stroke="#63b8ff" points="513.31,-830.05 516.69,-840.09 520.31,-830.13 513.31,-830.05"/>
</g>
<!-- Node1098 -->
<g id="node38" class="node">
<title>Node1098</title>
<g id="a_node38"><a xlink:href="gpgme_8c.html#ab8c8b3b72e54e9c0dbead13c629a6885" target="_top" xlink:title="Read a key from GPGME.">
<polygon fill="#fff0f0" stroke="red" points="455,-326.5 329,-326.5 329,-296.5 455,-296.5 455,-326.5"/>
<text text-anchor="start" x="337" y="-314.5" font-family="Helvetica,sans-Serif" font-size="10.00">mutt_autocrypt_gpgme</text>
<text text-anchor="middle" x="392" y="-303.5" font-family="Helvetica,sans-Serif" font-size="10.00">_import_key</text>
</a>
</g>
</g>
<!-- Node1&#45;&gt;Node1098 -->
<g id="edge51" class="edge">
<title>Node1&#45;&gt;Node1098</title>
<path fill="none" stroke="#63b8ff" d="M516.84,-830.35C517.84,-743.4 517.42,-414.35 456,-335.5 453.41,-332.18 450.3,-329.31 446.88,-326.84"/>
<polygon fill="#63b8ff" stroke="#63b8ff" points="513.34,-830.2 516.71,-840.25 520.34,-830.3 513.34,-830.2"/>
</g>
<!-- Node619 -->
<g id="node39" class="node">
<title>Node619</title>
<g id="a_node39"><a xlink:href="copy_8c.html#ac158be102976481a9c8edc42fcd8cd09" target="_top" xlink:title="Make a copy of a message from a FILE pointer.">
<polygon fill="#fff0f0" stroke="red" points="454.5,-278 329.5,-278 329.5,-259 454.5,-259 454.5,-278"/>
<text text-anchor="middle" x="392" y="-266" font-family="Helvetica,sans-Serif" font-size="10.00">mutt_copy_message_fp</text>
</a>
</g>
</g>
<!-- Node1&#45;&gt;Node619 -->
<g id="edge53" class="edge">
<title>Node1&#45;&gt;Node619</title>
<path fill="none" stroke="#63b8ff" d="M515.59,-830.14C511.24,-732.33 491.31,-330.08 456,-287.5 452.94,-283.81 449.18,-280.81 445.05,-278.39"/>
<polygon fill="#63b8ff" stroke="#63b8ff" points="512.09,-830.29 516.03,-840.12 519.09,-829.98 512.09,-830.29"/>
</g>
<!-- Node1099 -->
<g id="node40" class="node">
<title>Node1099</title>
<g id="a_node40"><a xlink:href="list_8c.html#a5f04ca102be20813d8c3ab0776a2786b" target="_top" xlink:title="Write a list to a buffer.">
<polygon fill="#fff0f0" stroke="red" points="434.5,-241 349.5,-241 349.5,-222 434.5,-222 434.5,-241"/>
<text text-anchor="middle" x="392" y="-229" font-family="Helvetica,sans-Serif" font-size="10.00">mutt_list_write</text>
</a>
</g>
</g>
<!-- Node1&#45;&gt;Node1099 -->
<g id="edge54" class="edge">
<title>Node1&#45;&gt;Node1099</title>
<path fill="none" stroke="#63b8ff" d="M515.77,-830.63C512.09,-729.69 494.08,-295.05 456,-249.5 450.53,-242.95 442.85,-238.7 434.74,-235.95"/>
<polygon fill="#63b8ff" stroke="#63b8ff" points="512.27,-830.54 516.12,-840.41 519.26,-830.29 512.27,-830.54"/>
</g>
<!-- Node417 -->
<g id="node41" class="node">
<title>Node417</title>
<g id="a_node41"><a xlink:href="sasl_8c.html#a69d46ce6a265526da2e547529fe2d44b" target="_top" xlink:title="Perform an SASL interaction with the user.">
<polygon fill="#fff0f0" stroke="red" points="442,-1393 342,-1393 342,-1374 442,-1374 442,-1393"/>
<text text-anchor="middle" x="392" y="-1381" font-family="Helvetica,sans-Serif" font-size="10.00">mutt_sasl_interact</text>
</a>
</g>
</g>
<!-- Node1&#45;&gt;Node417 -->
<g id="edge55" class="edge">
<title>Node1&#45;&gt;Node417</title>
<path fill="none" stroke="#63b8ff" d="M516.8,-872.88C517.6,-959.32 516.42,-1282.08 456,-1359.5 451.25,-1365.59 444.76,-1370.13 437.74,-1373.53"/>
<polygon fill="#63b8ff" stroke="#63b8ff" points="520.3,-872.97 516.69,-863.01 513.3,-873.05 520.3,-872.97"/>
</g>
<!-- Node1100 -->
<g id="node42" class="node">
<title>Node1100</title>
<g id="a_node42"><a xlink:href="sasl__plain_8c.html#a823ff643553588897f0621b8981d80ce" target="_top" xlink:title="Construct a base64 encoded SASL PLAIN message.">
<polygon fill="#fff0f0" stroke="red" points="447,-167 337,-167 337,-148 447,-148 447,-167"/>
<text text-anchor="middle" x="392" y="-155" font-family="Helvetica,sans-Serif" font-size="10.00">mutt_sasl_plain_msg</text>
</a>
</g>
</g>
<!-- Node1&#45;&gt;Node1100 -->
<g id="edge57" class="edge">
<title>Node1&#45;&gt;Node1100</title>
<path fill="none" stroke="#63b8ff" d="M516.01,-830.15C513.29,-720.87 498.7,-227.15 456,-175.5 453.32,-172.26 450.1,-169.57 446.54,-167.36"/>
<polygon fill="#63b8ff" stroke="#63b8ff" points="512.5,-830.09 516.24,-840.01 519.5,-829.93 512.5,-830.09"/>
</g>
<!-- Node1101 -->
<g id="node43" class="node">
<title>Node1101</title>
<g id="a_node43"><a xlink:href="group__expando__render.html#ga98ce8eee46960e5d03ca1bd6187a1eec" target="_top" xlink:title="Callback for every bool node &#45; Implements ExpandoNode::render() &#45;.">
<polygon fill="#fff0f0" stroke="red" points="454.5,-130 329.5,-130 329.5,-111 454.5,-111 454.5,-130"/>
<text text-anchor="middle" x="392" y="-118" font-family="Helvetica,sans-Serif" font-size="10.00">node_condbool_render</text>
</a>
</g>
</g>
<!-- Node1&#45;&gt;Node1101 -->
<g id="edge61" class="edge">
<title>Node1&#45;&gt;Node1101</title>
<path fill="none" stroke="#63b8ff" d="M516.11,-830.06C513.86,-717 501.04,-193.23 456,-138.5 453.33,-135.25 450.11,-132.56 446.56,-130.35"/>
<polygon fill="#63b8ff" stroke="#63b8ff" points="512.61,-830.06 516.3,-839.99 519.61,-829.92 512.61,-830.06"/>
</g>
<!-- Node85 -->
<g id="node44" class="node">
<title>Node85</title>
<g id="a_node44"><a xlink:href="group__index__function__api.html#ga9fc6e2fac8978d86ab50b9e1aaf0b163" target="_top" xlink:title="Read entire thread of the current message &#45; Implements index_function_t &#45;.">
<polygon fill="white" stroke="#666666" points="453.5,-93 330.5,-93 330.5,-74 453.5,-74 453.5,-93"/>
<text text-anchor="middle" x="392" y="-81" font-family="Helvetica,sans-Serif" font-size="10.00">op_main_entire_thread</text>
</a>
</g>
</g>
<!-- Node1&#45;&gt;Node85 -->
<g id="edge67" class="edge">
<title>Node1&#45;&gt;Node85</title>
<path fill="none" stroke="#63b8ff" d="M516.2,-830.05C514.4,-713.49 503.39,-159.33 456,-101.5 453.33,-98.24 450.12,-95.55 446.58,-93.33"/>
<polygon fill="#63b8ff" stroke="#63b8ff" points="512.7,-830.06 516.35,-840.01 519.7,-829.96 512.7,-830.06"/>
</g>
<!-- Node1102 -->
<g id="node45" class="node">
<title>Node1102</title>
<g id="a_node45"><a xlink:href="rfc2231_8c.html#aca9032d6ef162cc900d4b96455c341ee" target="_top" xlink:title="Encode a string to be suitable for an RFC2231 header.">
<polygon fill="#fff0f0" stroke="red" points="454,-56 330,-56 330,-37 454,-37 454,-56"/>
<text text-anchor="middle" x="392" y="-44" font-family="Helvetica,sans-Serif" font-size="10.00">rfc2231_encode_string</text>
</a>
</g>
</g>
<!-- Node1&#45;&gt;Node1102 -->
<g id="edge68" class="edge">
<title>Node1&#45;&gt;Node1102</title>
<path fill="none" stroke="#63b8ff" d="M516.29,-830.13C514.93,-710.33 505.75,-125.44 456,-64.5 453.34,-61.24 450.13,-58.55 446.59,-56.32"/>
<polygon fill="#63b8ff" stroke="#63b8ff" points="512.79,-830.11 516.4,-840.07 519.79,-830.04 512.79,-830.11"/>
</g>
<!-- Node1071 -->
<g id="node46" class="node">
<title>Node1071</title>
<g id="a_node46"><a xlink:href="crypt__gpgme_8c.html#a10e8fb8f5b9b458202bc424762ff96cd" target="_top" xlink:title="Verify the sender of a message.">
<polygon fill="#fff0f0" stroke="red" points="432.5,-19 351.5,-19 351.5,0 432.5,0 432.5,-19"/>
<text text-anchor="middle" x="392" y="-7" font-family="Helvetica,sans-Serif" font-size="10.00">verify_sender</text>
</a>
</g>
</g>
<!-- Node1&#45;&gt;Node1071 -->
<g id="edge69" class="edge">
<title>Node1&#45;&gt;Node1071</title>
<path fill="none" stroke="#63b8ff" d="M516.37,-830.28C515.43,-707.53 508.13,-91.58 456,-27.5 450.19,-20.35 441.74,-15.93 432.92,-13.21"/>
<polygon fill="#63b8ff" stroke="#63b8ff" points="512.87,-830.2 516.44,-840.17 519.87,-830.15 512.87,-830.2"/>
</g>
<!-- Node727&#45;&gt;Node5 -->
<g id="edge4" class="edge">
<title>Node727&#45;&gt;Node5</title>
<path fill="none" stroke="#63b8ff" d="M357.37,-1499.56C331.88,-1501.13 296.73,-1503.28 269.5,-1504.95"/>
<polygon fill="#63b8ff" stroke="#63b8ff" points="357.4,-1503.07 367.17,-1498.96 356.97,-1496.08 357.4,-1503.07"/>
</g>
<!-- Node727&#45;&gt;Node728 -->
<g id="edge5" class="edge">
<title>Node727&#45;&gt;Node728</title>
<path fill="none" stroke="#63b8ff" d="M371.59,-1514.69C352.33,-1531.18 321.5,-1556.07 292,-1573.5 280.2,-1580.47 266.35,-1586.74 254.55,-1591.58"/>
<polygon fill="#63b8ff" stroke="#63b8ff" points="373.66,-1517.53 378.91,-1508.33 369.07,-1512.24 373.66,-1517.53"/>
</g>
<!-- Node727&#45;&gt;Node778 -->
<g id="edge6" class="edge">
<title>Node727&#45;&gt;Node778</title>
<path fill="none" stroke="#63b8ff" d="M357.96,-1509.05C328.11,-1519.49 284.64,-1534.69 256.34,-1544.59"/>
<polygon fill="#63b8ff" stroke="#63b8ff" points="358.96,-1512.41 367.25,-1505.81 356.65,-1505.8 358.96,-1512.41"/>
</g>
<!-- Node727&#45;&gt;Node786 -->
<g id="edge7" class="edge">
<title>Node727&#45;&gt;Node786</title>
<path fill="none" stroke="#63b8ff" d="M357.33,-1491.92C333.37,-1487.95 300.87,-1482.57 274.44,-1478.19"/>
<polygon fill="#63b8ff" stroke="#63b8ff" points="356.75,-1495.37 367.18,-1493.56 357.89,-1488.47 356.75,-1495.37"/>
</g>
<!-- Node727&#45;&gt;Node239 -->
<g id="edge10" class="edge">
<title>Node727&#45;&gt;Node239</title>
<path fill="none" stroke="#63b8ff" d="M360.91,-1482.54C341.52,-1473.22 315.6,-1461.36 292,-1452.5 235.52,-1431.3 209.64,-1450.51 162,-1413.5 107.24,-1370.96 76.38,-1288.53 67.05,-1260.28"/>
<polygon fill="#63b8ff" stroke="#63b8ff" points="359.35,-1485.67 369.87,-1486.9 362.41,-1479.38 359.35,-1485.67"/>
</g>
<!-- Node727&#45;&gt;Node357 -->
<g id="edge11" class="edge">
<title>Node727&#45;&gt;Node357</title>
<path fill="none" stroke="#63b8ff" d="M372.53,-1479.78C353.56,-1462.33 322.57,-1435.85 292,-1418.5 281.89,-1412.76 270.14,-1407.9 259.49,-1404.08"/>
<polygon fill="#63b8ff" stroke="#63b8ff" points="370.02,-1482.23 379.72,-1486.5 374.81,-1477.11 370.02,-1482.23"/>
</g>
<!-- Node786&#45;&gt;Node2 -->
<g id="edge8" class="edge">
<title>Node786&#45;&gt;Node2</title>
<path fill="none" stroke="#63b8ff" d="M169.31,-1484.69C166.75,-1486.14 164.29,-1487.74 162,-1489.5 107.75,-1531.17 76.56,-1612.14 67.1,-1639.89"/>
<polygon fill="#63b8ff" stroke="#63b8ff" points="170.71,-1487.9 178.24,-1480.45 167.7,-1481.58 170.71,-1487.9"/>
</g>
<!-- Node786&#45;&gt;Node789 -->
<g id="edge9" class="edge">
<title>Node786&#45;&gt;Node789</title>
<path fill="none" stroke="#63b8ff" d="M187.92,-1456.67C179.35,-1453.44 170.33,-1449.93 162,-1446.5 135.09,-1435.43 104.59,-1421.51 84.86,-1412.33"/>
<polygon fill="#63b8ff" stroke="#63b8ff" points="186.43,-1459.85 197.03,-1460.07 188.88,-1453.29 186.43,-1459.85"/>
</g>
<!-- Node813&#45;&gt;Node5 -->
<g id="edge13" class="edge">
<title>Node813&#45;&gt;Node5</title>
<path fill="none" stroke="#63b8ff" d="M380.46,-1251.35C367.05,-1277.14 343.74,-1323.81 328,-1365.5 307.73,-1419.19 332.75,-1449.09 292,-1489.5 285.77,-1495.68 277.6,-1499.77 269.19,-1502.48"/>
<polygon fill="#63b8ff" stroke="#63b8ff" points="383.46,-1253.17 385,-1242.69 377.26,-1249.92 383.46,-1253.17"/>
</g>
<!-- Node813&#45;&gt;Node239 -->
<g id="edge15" class="edge">
<title>Node813&#45;&gt;Node239</title>
<path fill="none" stroke="#63b8ff" d="M351.03,-1233.82C289.08,-1237.42 170.42,-1244.32 106.8,-1248.01"/>
<polygon fill="#63b8ff" stroke="#63b8ff" points="350.98,-1237.33 360.76,-1233.26 350.57,-1230.34 350.98,-1237.33"/>
</g>
<!-- Node813&#45;&gt;Node223 -->
<g id="edge14" class="edge">
<title>Node813&#45;&gt;Node223</title>
<path fill="none" stroke="#63b8ff" d="M366.87,-1247.54C347.32,-1259.99 318.73,-1277.03 292,-1288.5 283.27,-1292.25 273.56,-1295.55 264.4,-1298.3"/>
<polygon fill="#63b8ff" stroke="#63b8ff" points="368.71,-1250.52 375.2,-1242.14 364.9,-1244.64 368.71,-1250.52"/>
</g>
<!-- Node813&#45;&gt;Node228 -->
<g id="edge16" class="edge">
<title>Node813&#45;&gt;Node228</title>
<path fill="none" stroke="#63b8ff" d="M351.24,-1222.23C326.9,-1216.56 295.76,-1209.3 270.88,-1203.5"/>
<polygon fill="#63b8ff" stroke="#63b8ff" points="350.23,-1225.59 360.76,-1224.45 351.82,-1218.77 350.23,-1225.59"/>
</g>
<!-- Node813&#45;&gt;Node826 -->
<g id="edge17" class="edge">
<title>Node813&#45;&gt;Node826</title>
<path fill="none" stroke="#63b8ff" d="M351.15,-1240.79C326.62,-1246.51 295.21,-1253.83 270.25,-1259.65"/>
<polygon fill="#63b8ff" stroke="#63b8ff" points="351.82,-1244.23 360.76,-1238.55 350.23,-1237.41 351.82,-1244.23"/>
</g>
<!-- Node813&#45;&gt;Node292 -->
<g id="edge19" class="edge">
<title>Node813&#45;&gt;Node292</title>
<path fill="none" stroke="#63b8ff" d="M366.1,-1215.45C346.52,-1203.33 318.26,-1186.88 292,-1175.5 283.24,-1171.71 273.53,-1168.29 264.37,-1165.4"/>
<polygon fill="#63b8ff" stroke="#63b8ff" points="364.14,-1218.36 374.47,-1220.71 367.87,-1212.43 364.14,-1218.36"/>
</g>
<!-- Node813&#45;&gt;Node295 -->
<g id="edge20" class="edge">
<title>Node813&#45;&gt;Node295</title>
<path fill="none" stroke="#63b8ff" d="M376.24,-1212.97C358.43,-1191.78 326.52,-1157.45 292,-1137.5 285.68,-1133.85 278.59,-1130.84 271.5,-1128.38"/>
<polygon fill="#63b8ff" stroke="#63b8ff" points="373.39,-1215 382.44,-1220.51 378.8,-1210.56 373.39,-1215"/>
</g>
<!-- Node826&#45;&gt;Node239 -->
<g id="edge18" class="edge">
<title>Node826&#45;&gt;Node239</title>
<path fill="none" stroke="#63b8ff" d="M172.65,-1263.24C151.27,-1260.74 126.97,-1257.89 106.77,-1255.52"/>
<polygon fill="#63b8ff" stroke="#63b8ff" points="172.02,-1266.69 182.36,-1264.38 172.83,-1259.74 172.02,-1266.69"/>
</g>
<!-- Node891&#45;&gt;Node2 -->
<g id="edge22" class="edge">
<title>Node891&#45;&gt;Node2</title>
<path fill="none" stroke="#63b8ff" d="M183.52,-1649.5C158.74,-1649.5 127.7,-1649.5 103.46,-1649.5"/>
<polygon fill="#63b8ff" stroke="#63b8ff" points="183.25,-1653 193.25,-1649.5 183.25,-1646 183.25,-1653"/>
</g>
<!-- Node894&#45;&gt;Node895 -->
<g id="edge24" class="edge">
<title>Node894&#45;&gt;Node895</title>
<path fill="none" stroke="#63b8ff" d="M347.82,-965.5C322.8,-965.5 291.54,-965.5 267.22,-965.5"/>
<polygon fill="#63b8ff" stroke="#63b8ff" points="347.67,-969 357.67,-965.5 347.67,-962 347.67,-969"/>
</g>
<!-- Node895&#45;&gt;Node896 -->
<g id="edge25" class="edge">
<title>Node895&#45;&gt;Node896</title>
<path fill="none" stroke="#63b8ff" d="M187.11,-979.18C157.85,-989.48 118.43,-1003.35 92.17,-1012.59"/>
<polygon fill="#63b8ff" stroke="#63b8ff" points="188.08,-982.55 196.35,-975.93 185.76,-975.95 188.08,-982.55"/>
</g>
<!-- Node895&#45;&gt;Node909 -->
<g id="edge26" class="edge">
<title>Node895&#45;&gt;Node909</title>
<path fill="none" stroke="#63b8ff" d="M175.74,-968.6C160.08,-969.57 142.61,-970.65 126.24,-971.66"/>
<polygon fill="#63b8ff" stroke="#63b8ff" points="175.51,-972.12 185.27,-968.01 175.08,-965.14 175.51,-972.12"/>
</g>
<!-- Node895&#45;&gt;Node914 -->
<g id="edge27" class="edge">
<title>Node895&#45;&gt;Node914</title>
<path fill="none" stroke="#63b8ff" d="M191.11,-951.5C160.31,-939.14 116.17,-921.43 88.84,-910.47"/>
<polygon fill="#63b8ff" stroke="#63b8ff" points="189.41,-954.59 199.99,-955.06 192.01,-948.09 189.41,-954.59"/>
</g>
<!-- Node979&#45;&gt;Node932 -->
<g id="edge36" class="edge">
<title>Node979&#45;&gt;Node932</title>
<path fill="none" stroke="#63b8ff" d="M349.51,-780.34C324.78,-783.22 293.5,-786.86 268.87,-789.74"/>
<polygon fill="#63b8ff" stroke="#63b8ff" points="349.69,-783.84 359.22,-779.2 348.88,-776.89 349.69,-783.84"/>
</g>
<!-- Node993&#45;&gt;Node931 -->
<g id="edge45" class="edge">
<title>Node993&#45;&gt;Node931</title>
<path fill="none" stroke="#63b8ff" d="M333,-209.35C331.28,-210.33 329.6,-211.38 328,-212.5 278.25,-247.21 243.82,-314.77 232.26,-339.84"/>
<polygon fill="#63b8ff" stroke="#63b8ff" points="334.47,-212.52 341.97,-205.04 331.44,-206.21 334.47,-212.52"/>
</g>
<!-- Node417&#45;&gt;Node357 -->
<g id="edge56" class="edge">
<title>Node417&#45;&gt;Node357</title>
<path fill="none" stroke="#63b8ff" d="M330.39,-1387.59C306.18,-1389.22 279.34,-1391.04 259.22,-1392.39"/>
<polygon fill="#63b8ff" stroke="#63b8ff" points="330.4,-1391.1 340.14,-1386.93 329.93,-1384.11 330.4,-1391.1"/>
</g>
</g>
</svg>
