<?xml version="1.0" encoding="UTF-8" standalone="no"?>
<!DOCTYPE svg PUBLIC "-//W3C//DTD SVG 1.1//EN"
 "http://www.w3.org/Graphics/SVG/1.1/DTD/svg11.dtd">
<!-- Generated by graphviz version 7.1.0 (0)
 -->
<!-- Title: buf_at Pages: 1 -->
<svg width="474pt" height="514pt"
 viewBox="0.00 0.00 474.00 514.00" xmlns="http://www.w3.org/2000/svg" xmlns:xlink="http://www.w3.org/1999/xlink">
<g id="graph0" class="graph" transform="scale(1 1) rotate(0) translate(4 510)">
<title>buf_at</title>
<!-- Node1 -->
<g id="node1" class="node">
<title>Node1</title>
<g id="a_node1"><a xlink:title="Return the character at the given offset.">
<polygon fill="#999999" stroke="#666666" points="466,-263 420,-263 420,-244 466,-244 466,-263"/>
<text text-anchor="middle" x="443" y="-251" font-family="Helvetica,sans-Serif" font-size="10.00">buf_at</text>
</a>
</g>
</g>
<!-- Node2 -->
<g id="node2" class="node">
<title>Node2</title>
<g id="a_node2"><a xlink:href="dlg__alias_8c.html#a0c1f2e3f44f82266889eb83d35893143" target="_top" xlink:title="Alias completion routine.">
<polygon fill="#fff0f0" stroke="red" points="363,-506 279,-506 279,-487 363,-487 363,-506"/>
<text text-anchor="middle" x="321" y="-494" font-family="Helvetica,sans-Serif" font-size="10.00">alias_complete</text>
</a>
</g>
</g>
<!-- Node1&#45;&gt;Node2 -->
<g id="edge1" class="edge">
<title>Node1&#45;&gt;Node2</title>
<path fill="none" stroke="#63b8ff" d="M439.22,-274.78C432.24,-325.04 412.49,-449.14 384,-478.5 378.38,-484.29 371.02,-488.25 363.34,-490.95"/>
<polygon fill="#63b8ff" stroke="#63b8ff" points="442.68,-275.32 440.55,-264.94 435.74,-274.38 442.68,-275.32"/>
</g>
<!-- Node5 -->
<g id="node3" class="node">
<title>Node5</title>
<g id="a_node3"><a xlink:href="group__compapi__complete.html#gad95ee302c4fbe10ccce67637e9bade59" target="_top" xlink:title="Complete a NeoMutt Command &#45; Implements CompleteOps::complete() &#45;.">
<polygon fill="white" stroke="#666666" points="376,-469 266,-469 266,-450 376,-450 376,-469"/>
<text text-anchor="middle" x="321" y="-457" font-family="Helvetica,sans-Serif" font-size="10.00">complete_command</text>
</a>
</g>
</g>
<!-- Node1&#45;&gt;Node5 -->
<g id="edge2" class="edge">
<title>Node1&#45;&gt;Node5</title>
<path fill="none" stroke="#63b8ff" d="M441.02,-274.61C438.17,-311.88 427.1,-389.7 384,-435.5 378.31,-441.55 370.91,-446.1 363.22,-449.51"/>
<polygon fill="#63b8ff" stroke="#63b8ff" points="444.5,-274.95 441.63,-264.75 437.52,-274.52 444.5,-274.95"/>
</g>
<!-- Node6 -->
<g id="node4" class="node">
<title>Node6</title>
<g id="a_node4"><a xlink:href="graphviz_8c.html#a7a64ec16eeb2adc0e79839d367324c5c" target="_top" xlink:title=" ">
<polygon fill="#fff0f0" stroke="red" points="218,-412 129,-412 129,-393 218,-393 218,-412"/>
<text text-anchor="middle" x="173.5" y="-400" font-family="Helvetica,sans-Serif" font-size="10.00">dot_type_string</text>
</a>
</g>
</g>
<!-- Node1&#45;&gt;Node6 -->
<g id="edge3" class="edge">
<title>Node1&#45;&gt;Node6</title>
<path fill="none" stroke="#63b8ff" d="M440.89,-274.66C437.84,-308.38 426.46,-373.46 384,-402.5 330.26,-439.25 249.25,-424.61 205.37,-412.47"/>
<polygon fill="#63b8ff" stroke="#63b8ff" points="444.36,-275.15 441.59,-264.92 437.38,-274.64 444.36,-275.15"/>
</g>
<!-- Node57 -->
<g id="node5" class="node">
<title>Node57</title>
<g id="a_node5"><a xlink:href="graphviz_8c.html#adfd39bceb2e1a228a49fa1569da54cf0" target="_top" xlink:title=" ">
<polygon fill="white" stroke="#666666" points="384,-393 258,-393 258,-374 384,-374 384,-393"/>
<text text-anchor="middle" x="321" y="-381" font-family="Helvetica,sans-Serif" font-size="10.00">dot_type_string_escape</text>
</a>
</g>
</g>
<!-- Node1&#45;&gt;Node57 -->
<g id="edge4" class="edge">
<title>Node1&#45;&gt;Node57</title>
<path fill="none" stroke="#63b8ff" d="M436.75,-274.09C429.26,-299.31 413.08,-341.61 384,-365.5 380.02,-368.77 375.46,-371.45 370.67,-373.64"/>
<polygon fill="#63b8ff" stroke="#63b8ff" points="440.05,-275.27 439.34,-264.7 433.31,-273.41 440.05,-275.27"/>
</g>
<!-- Node58 -->
<g id="node6" class="node">
<title>Node58</title>
<g id="a_node6"><a xlink:href="progress_2window_8c.html#ad52f62fcddb8233ea181bea374dc9a94" target="_top" xlink:title="Draw a colourful progress bar.">
<polygon fill="#fff0f0" stroke="red" points="360,-356 282,-356 282,-337 360,-337 360,-356"/>
<text text-anchor="middle" x="321" y="-344" font-family="Helvetica,sans-Serif" font-size="10.00">message_bar</text>
</a>
</g>
</g>
<!-- Node1&#45;&gt;Node58 -->
<g id="edge6" class="edge">
<title>Node1&#45;&gt;Node58</title>
<path fill="none" stroke="#63b8ff" d="M431.42,-273.41C421.38,-290.44 404.76,-314.37 384,-328.5 376.96,-333.29 368.63,-336.83 360.41,-339.43"/>
<polygon fill="#63b8ff" stroke="#63b8ff" points="434.46,-275.15 436.3,-264.71 428.35,-271.72 434.46,-275.15"/>
</g>
<!-- Node765 -->
<g id="node7" class="node">
<title>Node765</title>
<g id="a_node7"><a xlink:href="address_2address_8c.html#a4e3a6705fd8f479444e5202a593587c3" target="_top" xlink:title="Write a single Address to a buffer.">
<polygon fill="#fff0f0" stroke="red" points="368,-319 274,-319 274,-300 368,-300 368,-319"/>
<text text-anchor="middle" x="321" y="-307" font-family="Helvetica,sans-Serif" font-size="10.00">mutt_addr_write</text>
</a>
</g>
</g>
<!-- Node1&#45;&gt;Node765 -->
<g id="edge7" class="edge">
<title>Node1&#45;&gt;Node765</title>
<path fill="none" stroke="#63b8ff" d="M420.09,-270.08C409.6,-277.43 396.6,-285.7 384,-291.5 377.28,-294.59 369.9,-297.29 362.66,-299.58"/>
<polygon fill="#63b8ff" stroke="#63b8ff" points="422.01,-273.01 428.06,-264.32 417.91,-267.34 422.01,-273.01"/>
</g>
<!-- Node467 -->
<g id="node8" class="node">
<title>Node467</title>
<g id="a_node8"><a xlink:href="complete_2complete_8c.html#a270c75621efdb47cc597be454c1c77a2" target="_top" xlink:title="Attempt to complete a partial pathname.">
<polygon fill="#fff0f0" stroke="red" points="364.5,-282 277.5,-282 277.5,-263 364.5,-263 364.5,-282"/>
<text text-anchor="middle" x="321" y="-270" font-family="Helvetica,sans-Serif" font-size="10.00">mutt_complete</text>
</a>
</g>
</g>
<!-- Node1&#45;&gt;Node467 -->
<g id="edge8" class="edge">
<title>Node1&#45;&gt;Node467</title>
<path fill="none" stroke="#63b8ff" d="M408.44,-258.81C394.84,-260.97 378.97,-263.48 364.57,-265.76"/>
<polygon fill="#63b8ff" stroke="#63b8ff" points="408.89,-262.29 418.22,-257.27 407.79,-255.37 408.89,-262.29"/>
</g>
<!-- Node797 -->
<g id="node9" class="node">
<title>Node797</title>
<g id="a_node9"><a xlink:href="mutt_2path_8c.html#a82ce0f92a0a8f815a20ee9ea81b30aec" target="_top" xlink:title="Create a folder abbreviation.">
<polygon fill="white" stroke="#666666" points="383,-245 259,-245 259,-226 383,-226 383,-245"/>
<text text-anchor="middle" x="321" y="-233" font-family="Helvetica,sans-Serif" font-size="10.00">mutt_path_abbr_folder</text>
</a>
</g>
</g>
<!-- Node1&#45;&gt;Node797 -->
<g id="edge9" class="edge">
<title>Node1&#45;&gt;Node797</title>
<path fill="none" stroke="#63b8ff" d="M408.5,-248.47C400.66,-247.3 392.08,-246.01 383.45,-244.72"/>
<polygon fill="#63b8ff" stroke="#63b8ff" points="407.8,-251.91 418.21,-249.93 408.84,-244.99 407.8,-251.91"/>
</g>
<!-- Node798 -->
<g id="node10" class="node">
<title>Node798</title>
<g id="a_node10"><a xlink:href="mutt_2path_8c.html#a5f202de8d83fe9daaa212af55622d75e" target="_top" xlink:title="Create the canonical version of a path.">
<polygon fill="#fff0f0" stroke="red" points="222,-151 125,-151 125,-132 222,-132 222,-151"/>
<text text-anchor="middle" x="173.5" y="-139" font-family="Helvetica,sans-Serif" font-size="10.00">mutt_path_canon</text>
</a>
</g>
</g>
<!-- Node1&#45;&gt;Node798 -->
<g id="edge10" class="edge">
<title>Node1&#45;&gt;Node798</title>
<path fill="none" stroke="#63b8ff" d="M418.78,-237.19C408.46,-230.45 395.97,-222.96 384,-217.5 330.66,-193.18 312.89,-199.08 258,-178.5 236.17,-170.32 211.88,-159.33 195.15,-151.46"/>
<polygon fill="#63b8ff" stroke="#63b8ff" points="416.76,-240.05 427.01,-242.73 420.66,-234.24 416.76,-240.05"/>
</g>
<!-- Node615 -->
<g id="node11" class="node">
<title>Node615</title>
<g id="a_node11"><a xlink:href="mx_8c.html#a63121b2d79e6eb21b505e311b1541ddb" target="_top" xlink:title="Canonicalise a mailbox path &#45; Wrapper for MxOps::path_canon()">
<polygon fill="#fff0f0" stroke="red" points="89,-131 0,-131 0,-112 89,-112 89,-131"/>
<text text-anchor="middle" x="44.5" y="-119" font-family="Helvetica,sans-Serif" font-size="10.00">mx_path_canon</text>
</a>
</g>
</g>
<!-- Node1&#45;&gt;Node615 -->
<g id="edge16" class="edge">
<title>Node1&#45;&gt;Node615</title>
<path fill="none" stroke="#63b8ff" d="M440.94,-232.2C437.96,-198.26 426.68,-132.76 384,-103.5 284.49,-35.29 127.29,-87.86 68.6,-111.52"/>
<polygon fill="#63b8ff" stroke="#63b8ff" points="437.43,-232.28 441.62,-242.01 444.42,-231.8 437.43,-232.28"/>
</g>
<!-- Node804 -->
<g id="node12" class="node">
<title>Node804</title>
<g id="a_node12"><a xlink:href="mutt_2path_8c.html#a5ab1c7e67015696230c62a80223bc752" target="_top" xlink:title="Remove unnecessary parts of a path.">
<polygon fill="#fff0f0" stroke="red" points="364,-169 278,-169 278,-150 364,-150 364,-169"/>
<text text-anchor="middle" x="321" y="-157" font-family="Helvetica,sans-Serif" font-size="10.00">mutt_path_tidy</text>
</a>
</g>
</g>
<!-- Node1&#45;&gt;Node804 -->
<g id="edge12" class="edge">
<title>Node1&#45;&gt;Node804</title>
<path fill="none" stroke="#63b8ff" d="M430.14,-234.33C419.67,-218.79 403.12,-197.27 384,-183.5 375.85,-177.63 366.08,-172.98 356.73,-169.4"/>
<polygon fill="#63b8ff" stroke="#63b8ff" points="426.91,-235.78 435.28,-242.27 432.78,-231.98 426.91,-235.78"/>
</g>
<!-- Node810 -->
<g id="node13" class="node">
<title>Node810</title>
<g id="a_node13"><a xlink:href="mutt_2path_8c.html#aa51eaec92f9803ff9e11e442efa5aff9" target="_top" xlink:title="Expand &#39;~&#39; in a path.">
<polygon fill="#fff0f0" stroke="red" points="365.5,-132 276.5,-132 276.5,-113 365.5,-113 365.5,-132"/>
<text text-anchor="middle" x="321" y="-120" font-family="Helvetica,sans-Serif" font-size="10.00">mutt_path_tilde</text>
</a>
</g>
</g>
<!-- Node1&#45;&gt;Node810 -->
<g id="edge14" class="edge">
<title>Node1&#45;&gt;Node810</title>
<path fill="none" stroke="#63b8ff" d="M436.69,-232.97C429.14,-207.83 412.9,-165.61 384,-141.5 378.73,-137.1 372.45,-133.72 365.94,-131.12"/>
<polygon fill="#63b8ff" stroke="#63b8ff" points="433.24,-233.65 439.31,-242.34 439.99,-231.76 433.24,-233.65"/>
</g>
<!-- Node530 -->
<g id="node14" class="node">
<title>Node530</title>
<g id="a_node14"><a xlink:href="nntp_8c.html#a1c9cc18654661195df4df904c2918625" target="_top" xlink:title="Get login, password and authenticate.">
<polygon fill="#fff0f0" stroke="red" points="353,-56 289,-56 289,-37 353,-37 353,-56"/>
<text text-anchor="middle" x="321" y="-44" font-family="Helvetica,sans-Serif" font-size="10.00">nntp_auth</text>
</a>
</g>
</g>
<!-- Node1&#45;&gt;Node530 -->
<g id="edge17" class="edge">
<title>Node1&#45;&gt;Node530</title>
<path fill="none" stroke="#63b8ff" d="M441.05,-232.27C438.26,-194.8 427.28,-116.56 384,-70.5 375.86,-61.84 364.23,-56.26 353.24,-52.69"/>
<polygon fill="#63b8ff" stroke="#63b8ff" points="437.55,-232.42 441.65,-242.19 444.54,-232 437.55,-232.42"/>
</g>
<!-- Node811 -->
<g id="node15" class="node">
<title>Node811</title>
<g id="a_node15"><a xlink:href="key_2parse_8c.html#abef8d8fc8603d392f925e15e171ec7b0" target="_top" xlink:title="Parse a user&#45;config key binding.">
<polygon fill="#fff0f0" stroke="red" points="362.5,-19 279.5,-19 279.5,0 362.5,0 362.5,-19"/>
<text text-anchor="middle" x="321" y="-7" font-family="Helvetica,sans-Serif" font-size="10.00">parse_keymap</text>
</a>
</g>
</g>
<!-- Node1&#45;&gt;Node811 -->
<g id="edge18" class="edge">
<title>Node1&#45;&gt;Node811</title>
<path fill="none" stroke="#63b8ff" d="M439.23,-232.13C432.29,-181.64 412.59,-57 384,-27.5 378.23,-21.54 370.61,-17.53 362.7,-14.83"/>
<polygon fill="#63b8ff" stroke="#63b8ff" points="435.76,-232.57 440.56,-242.02 442.7,-231.64 435.76,-232.57"/>
</g>
<!-- Node57&#45;&gt;Node6 -->
<g id="edge5" class="edge">
<title>Node57&#45;&gt;Node6</title>
<path fill="none" stroke="#63b8ff" d="M246.59,-393.09C236.95,-394.35 227.32,-395.6 218.39,-396.77"/>
<polygon fill="#63b8ff" stroke="#63b8ff" points="246.91,-396.57 256.37,-391.81 246,-389.63 246.91,-396.57"/>
</g>
<!-- Node798&#45;&gt;Node615 -->
<g id="edge11" class="edge">
<title>Node798&#45;&gt;Node615</title>
<path fill="none" stroke="#63b8ff" d="M113.72,-132.24C105.48,-130.95 97.13,-129.63 89.23,-128.39"/>
<polygon fill="#63b8ff" stroke="#63b8ff" points="112.93,-135.66 123.35,-133.76 114.02,-128.75 112.93,-135.66"/>
</g>
<!-- Node804&#45;&gt;Node798 -->
<g id="edge13" class="edge">
<title>Node804&#45;&gt;Node798</title>
<path fill="none" stroke="#63b8ff" d="M266.27,-152.85C251.89,-151.07 236.44,-149.16 222.4,-147.43"/>
<polygon fill="#63b8ff" stroke="#63b8ff" points="265.67,-156.31 276.02,-154.06 266.53,-149.36 265.67,-156.31"/>
</g>
<!-- Node810&#45;&gt;Node798 -->
<g id="edge15" class="edge">
<title>Node810&#45;&gt;Node798</title>
<path fill="none" stroke="#63b8ff" d="M265.3,-129.64C251.21,-131.48 236.16,-133.45 222.44,-135.24"/>
<polygon fill="#63b8ff" stroke="#63b8ff" points="265.38,-133.16 274.84,-128.4 264.48,-126.22 265.38,-133.16"/>
</g>
</g>
</svg>
