<?xml version="1.0" encoding="UTF-8" standalone="no"?>
<!DOCTYPE svg PUBLIC "-//W3C//DTD SVG 1.1//EN"
 "http://www.w3.org/Graphics/SVG/1.1/DTD/svg11.dtd">
<!-- Generated by graphviz version 2.40.1 (20161225.0304)
 -->
<!-- Title: mutt/buffer.h Pages: 1 -->
<svg width="1208pt" height="95pt"
 viewBox="0.00 0.00 1207.50 95.00" xmlns="http://www.w3.org/2000/svg" xmlns:xlink="http://www.w3.org/1999/xlink">
<g id="graph0" class="graph" transform="scale(1 1) rotate(0) translate(4 91)">
<title>mutt/buffer.h</title>
<polygon fill="#ffffff" stroke="transparent" points="-4,4 -4,-91 1203.5,-91 1203.5,4 -4,4"/>
<!-- Node3 -->
<g id="node1" class="node">
<title>Node3</title>
<polygon fill="#bfbfbf" stroke="#000000" points="519,-67.5 519,-86.5 599,-86.5 599,-67.5 519,-67.5"/>
<text text-anchor="middle" x="559" y="-74.5" font-family="Helvetica,sans-Serif" font-size="10.00" fill="#000000">mutt/buffer.h</text>
</g>
<!-- Node4 -->
<g id="node2" class="node">
<title>Node4</title>
<g id="a_node2"><a xlink:href="mutt_2lib_8h.html" target="_top" xlink:title="Convenience wrapper for the library headers. ">
<polygon fill="#ffffff" stroke="#ff0000" points="0,-6 0,-25 64,-25 64,-6 0,-6"/>
<text text-anchor="middle" x="32" y="-13" font-family="Helvetica,sans-Serif" font-size="10.00" fill="#000000">mutt/lib.h</text>
</a>
</g>
</g>
<!-- Node3&#45;&gt;Node4 -->
<g id="edge1" class="edge">
<title>Node3&#45;&gt;Node4</title>
<path fill="none" stroke="#191970" d="M508.6886,-73.946C401.7427,-67.1756 154.8974,-49.9948 73,-31 66.7731,-29.5558 60.2183,-27.3905 54.2212,-25.1328"/>
<polygon fill="#191970" stroke="#191970" points="508.6959,-77.4532 518.8957,-74.5874 509.135,-70.467 508.6959,-77.4532"/>
</g>
<!-- Node752 -->
<g id="node3" class="node">
<title>Node752</title>
<g id="a_node3"><a xlink:href="base64_8c.html" target="_top" xlink:title="Conversion to/from base64 encoding. ">
<polygon fill="#ffffff" stroke="#000000" points="82,-6 82,-25 168,-25 168,-6 82,-6"/>
<text text-anchor="middle" x="125" y="-13" font-family="Helvetica,sans-Serif" font-size="10.00" fill="#000000">mutt/base64.c</text>
</a>
</g>
</g>
<!-- Node3&#45;&gt;Node752 -->
<g id="edge2" class="edge">
<title>Node3&#45;&gt;Node752</title>
<path fill="none" stroke="#191970" d="M508.4106,-73.6566C434.8549,-68.1764 294.3499,-55.3709 177,-31 169.4367,-29.4293 161.3835,-27.2745 153.9301,-25.071"/>
<polygon fill="#191970" stroke="#191970" points="508.5383,-77.1751 518.7666,-74.4125 509.0479,-70.1937 508.5383,-77.1751"/>
</g>
<!-- Node753 -->
<g id="node4" class="node">
<title>Node753</title>
<g id="a_node4"><a xlink:href="buffer_8c.html" target="_top" xlink:title="General purpose object for storing and parsing strings. ">
<polygon fill="#ffffff" stroke="#000000" points="186.5,-6 186.5,-25 265.5,-25 265.5,-6 186.5,-6"/>
<text text-anchor="middle" x="226" y="-13" font-family="Helvetica,sans-Serif" font-size="10.00" fill="#000000">mutt/buffer.c</text>
</a>
</g>
</g>
<!-- Node3&#45;&gt;Node753 -->
<g id="edge3" class="edge">
<title>Node3&#45;&gt;Node753</title>
<path fill="none" stroke="#191970" d="M508.7358,-71.2406C451.4354,-64.1328 355.1951,-50.5418 274,-31 267.1889,-29.3607 259.9472,-27.2323 253.2092,-25.0806"/>
<polygon fill="#191970" stroke="#191970" points="508.6185,-74.7522 518.9695,-72.4923 509.4684,-67.804 508.6185,-74.7522"/>
</g>
<!-- Node754 -->
<g id="node5" class="node">
<title>Node754</title>
<g id="a_node5"><a xlink:href="charset_8c.html" target="_top" xlink:title="Conversion between different character encodings. ">
<polygon fill="#ffffff" stroke="#000000" points="283.5,-6 283.5,-25 370.5,-25 370.5,-6 283.5,-6"/>
<text text-anchor="middle" x="327" y="-13" font-family="Helvetica,sans-Serif" font-size="10.00" fill="#000000">mutt/charset.c</text>
</a>
</g>
</g>
<!-- Node3&#45;&gt;Node754 -->
<g id="edge4" class="edge">
<title>Node3&#45;&gt;Node754</title>
<path fill="none" stroke="#191970" d="M510.0722,-65.0507C473.7938,-56.0562 423.1849,-43.226 379,-31 372.2814,-29.141 365.1021,-27.0616 358.2897,-25.0445"/>
<polygon fill="#191970" stroke="#191970" points="509.3596,-68.4798 519.9074,-67.4822 511.0397,-61.6844 509.3596,-68.4798"/>
</g>
<!-- Node755 -->
<g id="node6" class="node">
<title>Node755</title>
<g id="a_node6"><a xlink:href="date_8c.html" target="_top" xlink:title="Time and date handling routines. ">
<polygon fill="#ffffff" stroke="#000000" points="388.5,-6 388.5,-25 461.5,-25 461.5,-6 388.5,-6"/>
<text text-anchor="middle" x="425" y="-13" font-family="Helvetica,sans-Serif" font-size="10.00" fill="#000000">mutt/date.c</text>
</a>
</g>
</g>
<!-- Node3&#45;&gt;Node755 -->
<g id="edge5" class="edge">
<title>Node3&#45;&gt;Node755</title>
<path fill="none" stroke="#191970" d="M528.9089,-63.1895C503.5918,-51.5701 468.0546,-35.2601 445.7905,-25.0419"/>
<polygon fill="#191970" stroke="#191970" points="527.514,-66.4003 538.0625,-67.3906 530.4339,-60.0384 527.514,-66.4003"/>
</g>
<!-- Node756 -->
<g id="node7" class="node">
<title>Node756</title>
<g id="a_node7"><a xlink:href="file_8c.html" target="_top" xlink:title="File management functions. ">
<polygon fill="#ffffff" stroke="#000000" points="480,-6 480,-25 546,-25 546,-6 480,-6"/>
<text text-anchor="middle" x="513" y="-13" font-family="Helvetica,sans-Serif" font-size="10.00" fill="#000000">mutt/file.c</text>
</a>
</g>
</g>
<!-- Node3&#45;&gt;Node756 -->
<g id="edge6" class="edge">
<title>Node3&#45;&gt;Node756</title>
<path fill="none" stroke="#191970" d="M545.7209,-59.2465C537.4417,-48.1775 527.1031,-34.3552 520.2888,-25.2449"/>
<polygon fill="#191970" stroke="#191970" points="543.0201,-61.4792 551.8125,-67.3906 548.6256,-57.2864 543.0201,-61.4792"/>
</g>
<!-- Node757 -->
<g id="node8" class="node">
<title>Node757</title>
<g id="a_node8"><a xlink:href="mbyte_8c.html" target="_top" xlink:title="Multi&#45;byte String manipulation functions. ">
<polygon fill="#ffffff" stroke="#000000" points="564.5,-6 564.5,-25 647.5,-25 647.5,-6 564.5,-6"/>
<text text-anchor="middle" x="606" y="-13" font-family="Helvetica,sans-Serif" font-size="10.00" fill="#000000">mutt/mbyte.c</text>
</a>
</g>
</g>
<!-- Node3&#45;&gt;Node757 -->
<g id="edge7" class="edge">
<title>Node3&#45;&gt;Node757</title>
<path fill="none" stroke="#191970" d="M572.5677,-59.2465C581.0269,-48.1775 591.5903,-34.3552 598.5527,-25.2449"/>
<polygon fill="#191970" stroke="#191970" points="569.635,-57.3199 566.3438,-67.3906 575.1968,-61.5704 569.635,-57.3199"/>
</g>
<!-- Node758 -->
<g id="node9" class="node">
<title>Node758</title>
<g id="a_node9"><a xlink:href="mutt_2path_8c.html" target="_top" xlink:title="Path manipulation functions. ">
<polygon fill="#ffffff" stroke="#000000" points="665.5,-6 665.5,-25 738.5,-25 738.5,-6 665.5,-6"/>
<text text-anchor="middle" x="702" y="-13" font-family="Helvetica,sans-Serif" font-size="10.00" fill="#000000">mutt/path.c</text>
</a>
</g>
</g>
<!-- Node3&#45;&gt;Node758 -->
<g id="edge8" class="edge">
<title>Node3&#45;&gt;Node758</title>
<path fill="none" stroke="#191970" d="M590.7558,-63.3428C617.7952,-51.7139 655.9491,-35.3051 679.8131,-25.0419"/>
<polygon fill="#191970" stroke="#191970" points="589.1474,-60.2245 581.3438,-67.3906 591.913,-66.655 589.1474,-60.2245"/>
</g>
<!-- Node759 -->
<g id="node10" class="node">
<title>Node759</title>
<g id="a_node10"><a xlink:href="pool_8c.html" target="_top" xlink:title="A global pool of Buffers. ">
<polygon fill="#ffffff" stroke="#000000" points="757,-6 757,-25 829,-25 829,-6 757,-6"/>
<text text-anchor="middle" x="793" y="-13" font-family="Helvetica,sans-Serif" font-size="10.00" fill="#000000">mutt/pool.c</text>
</a>
</g>
</g>
<!-- Node3&#45;&gt;Node759 -->
<g id="edge9" class="edge">
<title>Node3&#45;&gt;Node759</title>
<path fill="none" stroke="#191970" d="M608.9813,-66.169C647.277,-57.5491 701.2962,-44.6948 748,-31 754.0261,-29.233 760.4403,-27.149 766.481,-25.0921"/>
<polygon fill="#191970" stroke="#191970" points="608.1036,-62.7787 599.1079,-68.3759 609.6306,-69.6101 608.1036,-62.7787"/>
</g>
<!-- Node760 -->
<g id="node11" class="node">
<title>Node760</title>
<g id="a_node11"><a xlink:href="mutt_2regex_8c.html" target="_top" xlink:title="Manage regular expressions. ">
<polygon fill="#ffffff" stroke="#000000" points="847.5,-6 847.5,-25 926.5,-25 926.5,-6 847.5,-6"/>
<text text-anchor="middle" x="887" y="-13" font-family="Helvetica,sans-Serif" font-size="10.00" fill="#000000">mutt/regex.c</text>
</a>
</g>
</g>
<!-- Node3&#45;&gt;Node760 -->
<g id="edge10" class="edge">
<title>Node3&#45;&gt;Node760</title>
<path fill="none" stroke="#191970" d="M609.1349,-70.9323C665.316,-63.6253 758.8951,-49.93 838,-31 844.9419,-29.3388 852.3303,-27.2021 859.2082,-25.0495"/>
<polygon fill="#191970" stroke="#191970" points="608.5644,-67.4767 599.0918,-72.2221 609.4562,-74.4197 608.5644,-67.4767"/>
</g>
<!-- Node388 -->
<g id="node12" class="node">
<title>Node388</title>
<g id="a_node12"><a xlink:href="comp_8c.html" target="_top" xlink:title="Test code for Patterns. ">
<polygon fill="#ffffff" stroke="#000000" points="944,-6 944,-25 1056,-25 1056,-6 944,-6"/>
<text text-anchor="middle" x="1000" y="-13" font-family="Helvetica,sans-Serif" font-size="10.00" fill="#000000">test/pattern/comp.c</text>
</a>
</g>
</g>
<!-- Node3&#45;&gt;Node388 -->
<g id="edge11" class="edge">
<title>Node3&#45;&gt;Node388</title>
<path fill="none" stroke="#191970" d="M609.3464,-72.7327C681.9008,-66.159 819.9027,-52.0679 936,-31 945.1114,-29.3466 954.8642,-27.1877 963.9404,-25.0088"/>
<polygon fill="#191970" stroke="#191970" points="608.7749,-69.2698 599.127,-73.648 609.3994,-76.2419 608.7749,-69.2698"/>
</g>
<!-- Node341 -->
<g id="node13" class="node">
<title>Node341</title>
<g id="a_node13"><a xlink:href="mutt__regex__match_8c.html" target="_top" xlink:title="test/regex/mutt_regex\l_match.c">
<polygon fill="#ffffff" stroke="#000000" points="1074.5,-.5 1074.5,-30.5 1199.5,-30.5 1199.5,-.5 1074.5,-.5"/>
<text text-anchor="start" x="1082.5" y="-18.5" font-family="Helvetica,sans-Serif" font-size="10.00" fill="#000000">test/regex/mutt_regex</text>
<text text-anchor="middle" x="1137" y="-7.5" font-family="Helvetica,sans-Serif" font-size="10.00" fill="#000000">_match.c</text>
</a>
</g>
</g>
<!-- Node3&#45;&gt;Node341 -->
<g id="edge12" class="edge">
<title>Node3&#45;&gt;Node341</title>
<path fill="none" stroke="#191970" d="M609.2721,-74.4565C700.4869,-69.3918 899.1689,-56.2921 1065,-31 1068.0336,-30.5373 1071.1313,-30.0252 1074.2543,-29.4769"/>
<polygon fill="#191970" stroke="#191970" points="609.0069,-70.9656 599.2129,-75.0065 609.3891,-77.9552 609.0069,-70.9656"/>
</g>
</g>
</svg>
