<?xml version="1.0" encoding="UTF-8" standalone="no"?>
<!DOCTYPE svg PUBLIC "-//W3C//DTD SVG 1.1//EN"
 "http://www.w3.org/Graphics/SVG/1.1/DTD/svg11.dtd">
<!-- Generated by graphviz version 2.40.1 (20161225.0304)
 -->
<!-- Title: mutt_ch_canonical_charset Pages: 1 -->
<svg width="325pt" height="356pt"
 viewBox="0.00 0.00 325.00 355.50" xmlns="http://www.w3.org/2000/svg" xmlns:xlink="http://www.w3.org/1999/xlink">
<g id="graph0" class="graph" transform="scale(1 1) rotate(0) translate(4 351.5)">
<title>mutt_ch_canonical_charset</title>
<polygon fill="#ffffff" stroke="transparent" points="-4,4 -4,-351.5 321,-351.5 321,4 -4,4"/>
<!-- Node1314 -->
<g id="node1" class="node">
<title>Node1314</title>
<polygon fill="#bfbfbf" stroke="#000000" points="0,-164 0,-183 149,-183 149,-164 0,-164"/>
<text text-anchor="middle" x="74.5" y="-171" font-family="Helvetica,sans-Serif" font-size="10.00" fill="#000000">mutt_ch_canonical_charset</text>
</g>
<!-- Node1315 -->
<g id="node2" class="node">
<title>Node1315</title>
<g id="a_node2"><a xlink:href="copy_8h.html#a468898ce77840c5f79455b1f95643ab4" target="_top" xlink:title="Copy Email header. ">
<polygon fill="#ffffff" stroke="#ff0000" points="197.5,-328 197.5,-347 304.5,-347 304.5,-328 197.5,-328"/>
<text text-anchor="middle" x="251" y="-335" font-family="Helvetica,sans-Serif" font-size="10.00" fill="#000000">mutt_copy_header</text>
</a>
</g>
</g>
<!-- Node1314&#45;&gt;Node1315 -->
<g id="edge1" class="edge">
<title>Node1314&#45;&gt;Node1315</title>
<path fill="none" stroke="#191970" d="M83.8749,-192.6516C100.1052,-223.7939 136.4177,-285.2661 185,-318.5 190.708,-322.4047 197.2173,-325.5153 203.872,-327.9913"/>
<polygon fill="#191970" stroke="#191970" points="86.7962,-190.6735 79.152,-183.3376 80.553,-193.8394 86.7962,-190.6735"/>
</g>
<!-- Node1819 -->
<g id="node3" class="node">
<title>Node1819</title>
<g id="a_node3"><a xlink:href="email_2body_8h.html#a8465f41e6b0f0256527ca2404edfb762" target="_top" xlink:title="Get a body&#39;s character set. ">
<polygon fill="#ffffff" stroke="#ff0000" points="185.5,-290 185.5,-309 316.5,-309 316.5,-290 185.5,-290"/>
<text text-anchor="middle" x="251" y="-297" font-family="Helvetica,sans-Serif" font-size="10.00" fill="#000000">mutt_body_get_charset</text>
</a>
</g>
</g>
<!-- Node1314&#45;&gt;Node1819 -->
<g id="edge2" class="edge">
<title>Node1314&#45;&gt;Node1819</title>
<path fill="none" stroke="#191970" d="M88.0637,-191.2329C107.1581,-214.991 144.2202,-256.8902 185,-280.5 191.6042,-284.3235 199.0313,-287.4228 206.457,-289.921"/>
<polygon fill="#191970" stroke="#191970" points="90.5905,-188.7843 81.655,-183.0916 85.0902,-193.1141 90.5905,-188.7843"/>
</g>
<!-- Node1823 -->
<g id="node4" class="node">
<title>Node1823</title>
<g id="a_node4"><a xlink:href="charset_8h.html#aea5561f6489bbbbdfcdfb29e6f22b688" target="_top" xlink:title="Are the names of two character sets equivalent? ">
<polygon fill="#ffffff" stroke="#ff0000" points="201.5,-252 201.5,-271 300.5,-271 300.5,-252 201.5,-252"/>
<text text-anchor="middle" x="251" y="-259" font-family="Helvetica,sans-Serif" font-size="10.00" fill="#000000">mutt_ch_chscmp</text>
</a>
</g>
</g>
<!-- Node1314&#45;&gt;Node1823 -->
<g id="edge3" class="edge">
<title>Node1314&#45;&gt;Node1823</title>
<path fill="none" stroke="#191970" d="M95.4681,-189.0815C116.9915,-204.4624 151.921,-227.7577 185,-242.5 193.1683,-246.1403 202.2153,-249.2785 210.9251,-251.8962"/>
<polygon fill="#191970" stroke="#191970" points="97.2599,-186.0574 87.1091,-183.0222 93.1515,-191.725 97.2599,-186.0574"/>
</g>
<!-- Node1825 -->
<g id="node5" class="node">
<title>Node1825</title>
<g id="a_node5"><a xlink:href="charset_8h.html#a2f497381e4cc9d5a2a714fd8361d2604" target="_top" xlink:title="Get the user&#39;s choice of character set. ">
<polygon fill="#ffffff" stroke="#ff0000" points="190,-202.5 190,-232.5 312,-232.5 312,-202.5 190,-202.5"/>
<text text-anchor="start" x="198" y="-220.5" font-family="Helvetica,sans-Serif" font-size="10.00" fill="#000000">mutt_ch_get_langinfo</text>
<text text-anchor="middle" x="251" y="-209.5" font-family="Helvetica,sans-Serif" font-size="10.00" fill="#000000">_charset</text>
</a>
</g>
</g>
<!-- Node1314&#45;&gt;Node1825 -->
<g id="edge4" class="edge">
<title>Node1314&#45;&gt;Node1825</title>
<path fill="none" stroke="#191970" d="M122.7412,-185.5261C143.6771,-190.7453 168.4236,-196.9144 190.5673,-202.4346"/>
<polygon fill="#191970" stroke="#191970" points="123.3476,-182.0702 112.7979,-183.0473 121.6543,-188.8624 123.3476,-182.0702"/>
</g>
<!-- Node1827 -->
<g id="node6" class="node">
<title>Node1827</title>
<g id="a_node6"><a xlink:href="charset_8h.html#aecf9659e09f009e78e428cd172439b7b" target="_top" xlink:title="Set up iconv for conversions. ">
<polygon fill="#ffffff" stroke="#ff0000" points="192.5,-164 192.5,-183 309.5,-183 309.5,-164 192.5,-164"/>
<text text-anchor="middle" x="251" y="-171" font-family="Helvetica,sans-Serif" font-size="10.00" fill="#000000">mutt_ch_iconv_open</text>
</a>
</g>
</g>
<!-- Node1314&#45;&gt;Node1827 -->
<g id="edge5" class="edge">
<title>Node1314&#45;&gt;Node1827</title>
<path fill="none" stroke="#191970" d="M159.3457,-173.5C170.5515,-173.5 181.8306,-173.5 192.4589,-173.5"/>
<polygon fill="#191970" stroke="#191970" points="159.0961,-170.0001 149.0961,-173.5 159.096,-177.0001 159.0961,-170.0001"/>
</g>
<!-- Node2038 -->
<g id="node7" class="node">
<title>Node2038</title>
<g id="a_node7"><a xlink:href="charset_8h.html#a7bb46d6d31e21e8390de490c5894bfda" target="_top" xlink:title="Update the records for a new character set. ">
<polygon fill="#ffffff" stroke="#ff0000" points="192,-126 192,-145 310,-145 310,-126 192,-126"/>
<text text-anchor="middle" x="251" y="-133" font-family="Helvetica,sans-Serif" font-size="10.00" fill="#000000">mutt_ch_set_charset</text>
</a>
</g>
</g>
<!-- Node1314&#45;&gt;Node2038 -->
<g id="edge6" class="edge">
<title>Node1314&#45;&gt;Node2038</title>
<path fill="none" stroke="#191970" d="M129.0876,-161.7474C154.0447,-156.3742 183.2268,-150.0914 206.7819,-145.0201"/>
<polygon fill="#191970" stroke="#191970" points="128.0777,-158.3846 119.0384,-163.911 129.5511,-165.2278 128.0777,-158.3846"/>
</g>
<!-- Node1846 -->
<g id="node8" class="node">
<title>Node1846</title>
<g id="a_node8"><a xlink:href="charset_8h.html#a3394111b8dc3677189e9c3ab41e7b20a" target="_top" xlink:title="Figure the best charset to encode a string. ">
<polygon fill="#ffffff" stroke="#ff0000" points="203,-88 203,-107 299,-107 299,-88 203,-88"/>
<text text-anchor="middle" x="251" y="-95" font-family="Helvetica,sans-Serif" font-size="10.00" fill="#000000">mutt_ch_choose</text>
</a>
</g>
</g>
<!-- Node1314&#45;&gt;Node1846 -->
<g id="edge7" class="edge">
<title>Node1314&#45;&gt;Node1846</title>
<path fill="none" stroke="#191970" d="M99.188,-158.9828C121.161,-146.4987 154.4587,-128.6373 185,-116.5 193.8646,-112.9772 203.6341,-109.8006 212.8773,-107.098"/>
<polygon fill="#191970" stroke="#191970" points="97.4324,-155.9548 90.5054,-163.9714 100.9198,-162.0243 97.4324,-155.9548"/>
</g>
<!-- Node2033 -->
<g id="node9" class="node">
<title>Node2033</title>
<g id="a_node9"><a xlink:href="sendlib_8h.html#a8621a45f0aa4aea9e2613207be4fa717" target="_top" xlink:title="Analyze file to determine MIME encoding to use. ">
<polygon fill="#ffffff" stroke="#ff0000" points="187.5,-50 187.5,-69 314.5,-69 314.5,-50 187.5,-50"/>
<text text-anchor="middle" x="251" y="-57" font-family="Helvetica,sans-Serif" font-size="10.00" fill="#000000">mutt_get_content_info</text>
</a>
</g>
</g>
<!-- Node1314&#45;&gt;Node2033 -->
<g id="edge8" class="edge">
<title>Node1314&#45;&gt;Node2033</title>
<path fill="none" stroke="#191970" d="M89.9655,-156.2617C109.9292,-135.0167 146.6798,-99.1966 185,-78.5 192.0292,-74.7036 199.8998,-71.5929 207.6899,-69.0691"/>
<polygon fill="#191970" stroke="#191970" points="87.1444,-154.1579 82.9383,-163.8821 92.2904,-158.9033 87.1444,-154.1579"/>
</g>
<!-- Node2040 -->
<g id="node10" class="node">
<title>Node2040</title>
<g id="a_node10"><a xlink:href="mutt__ch__canonical__charset_8c.html#ac40b4aa8d63ad2c2047166fc90e3ca17" target="_top" xlink:title="test_mutt_ch_canonical\l_charset">
<polygon fill="#ffffff" stroke="#000000" points="185,-.5 185,-30.5 317,-30.5 317,-.5 185,-.5"/>
<text text-anchor="start" x="193" y="-18.5" font-family="Helvetica,sans-Serif" font-size="10.00" fill="#000000">test_mutt_ch_canonical</text>
<text text-anchor="middle" x="251" y="-7.5" font-family="Helvetica,sans-Serif" font-size="10.00" fill="#000000">_charset</text>
</a>
</g>
</g>
<!-- Node1314&#45;&gt;Node2040 -->
<g id="edge9" class="edge">
<title>Node1314&#45;&gt;Node2040</title>
<path fill="none" stroke="#191970" d="M85.5721,-154.7678C103.2414,-126.3572 140.4086,-72.3216 185,-40.5 190.286,-36.7278 196.2122,-33.4459 202.2869,-30.6131"/>
<polygon fill="#191970" stroke="#191970" points="82.3635,-153.3078 80.1552,-163.6699 88.3434,-156.9466 82.3635,-153.3078"/>
</g>
</g>
</svg>
