<?xml version="1.0" encoding="UTF-8" standalone="no"?>
<!DOCTYPE svg PUBLIC "-//W3C//DTD SVG 1.1//EN"
 "http://www.w3.org/Graphics/SVG/1.1/DTD/svg11.dtd">
<!-- Generated by graphviz version 7.1.0 (0)
 -->
<!-- Title: color/dump.h Pages: 1 -->
<svg width="285pt" height="82pt"
 viewBox="0.00 0.00 285.00 82.00" xmlns="http://www.w3.org/2000/svg" xmlns:xlink="http://www.w3.org/1999/xlink">
<g id="graph0" class="graph" transform="scale(1 1) rotate(0) translate(4 78)">
<title>color/dump.h</title>
<!-- Node1 -->
<g id="node1" class="node">
<title>Node1</title>
<g id="a_node1"><a xlink:title="Colour Dump Command.">
<polygon fill="#999999" stroke="#666666" points="195.5,-74 115.5,-74 115.5,-55 195.5,-55 195.5,-74"/>
<text text-anchor="middle" x="155.5" y="-62" font-family="Helvetica,sans-Serif" font-size="10.00">color/dump.h</text>
</a>
</g>
</g>
<!-- Node2 -->
<g id="node2" class="node">
<title>Node2</title>
<g id="a_node2"><a xlink:href="color_2command_8c.html" target="_top" xlink:title="Parse colour commands.">
<polygon fill="white" stroke="#666666" points="97,-19 0,-19 0,0 97,0 97,-19"/>
<text text-anchor="middle" x="48.5" y="-7" font-family="Helvetica,sans-Serif" font-size="10.00">color/command.c</text>
</a>
</g>
</g>
<!-- Node1&#45;&gt;Node2 -->
<g id="edge1" class="edge">
<title>Node1&#45;&gt;Node2</title>
<path fill="none" stroke="#63b8ff" d="M127.04,-49.4C107.77,-39.86 82.92,-27.55 66.38,-19.36"/>
<polygon fill="#63b8ff" stroke="#63b8ff" points="125.48,-52.54 135.99,-53.84 128.59,-46.26 125.48,-52.54"/>
</g>
<!-- Node3 -->
<g id="node3" class="node">
<title>Node3</title>
<g id="a_node3"><a xlink:href="debug_8c.html" target="_top" xlink:title="Colour Debugging.">
<polygon fill="white" stroke="#666666" points="196,-19 115,-19 115,0 196,0 196,-19"/>
<text text-anchor="middle" x="155.5" y="-7" font-family="Helvetica,sans-Serif" font-size="10.00">color/debug.c</text>
</a>
</g>
</g>
<!-- Node1&#45;&gt;Node3 -->
<g id="edge2" class="edge">
<title>Node1&#45;&gt;Node3</title>
<path fill="none" stroke="#63b8ff" d="M155.5,-43.35C155.5,-35.1 155.5,-25.97 155.5,-19.44"/>
<polygon fill="#63b8ff" stroke="#63b8ff" points="152,-43.23 155.5,-53.23 159,-43.23 152,-43.23"/>
</g>
<!-- Node4 -->
<g id="node4" class="node">
<title>Node4</title>
<g id="a_node4"><a xlink:href="color_2lib_8h.html" target="_top" xlink:title="Color and attribute parsing.">
<polygon fill="#fff0f0" stroke="red" points="277,-19 214,-19 214,0 277,0 277,-19"/>
<text text-anchor="middle" x="245.5" y="-7" font-family="Helvetica,sans-Serif" font-size="10.00">color/lib.h</text>
</a>
</g>
</g>
<!-- Node1&#45;&gt;Node4 -->
<g id="edge3" class="edge">
<title>Node1&#45;&gt;Node4</title>
<path fill="none" stroke="#63b8ff" d="M180.58,-48.73C196.61,-39.29 216.87,-27.36 230.46,-19.36"/>
<polygon fill="#63b8ff" stroke="#63b8ff" points="178.91,-45.65 172.07,-53.74 182.46,-51.68 178.91,-45.65"/>
</g>
</g>
</svg>
