<?xml version="1.0" encoding="UTF-8" standalone="no"?>
<!DOCTYPE svg PUBLIC "-//W3C//DTD SVG 1.1//EN"
 "http://www.w3.org/Graphics/SVG/1.1/DTD/svg11.dtd">
<!-- Generated by graphviz version 7.1.0 (0)
 -->
<!-- Title: regex_color_free Pages: 1 -->
<svg width="396pt" height="89pt"
 viewBox="0.00 0.00 396.00 88.50" xmlns="http://www.w3.org/2000/svg" xmlns:xlink="http://www.w3.org/1999/xlink">
<g id="graph0" class="graph" transform="scale(1 1) rotate(0) translate(4 84.5)">
<title>regex_color_free</title>
<!-- Node1 -->
<g id="node1" class="node">
<title>Node1</title>
<g id="a_node1"><a xlink:title="Free a Regex colour.">
<polygon fill="#999999" stroke="#666666" points="388,-43.5 293,-43.5 293,-24.5 388,-24.5 388,-43.5"/>
<text text-anchor="middle" x="340.5" y="-31.5" font-family="Helvetica,sans-Serif" font-size="10.00">regex_color_free</text>
</a>
</g>
</g>
<!-- Node2 -->
<g id="node2" class="node">
<title>Node2</title>
<g id="a_node2"><a xlink:href="color_2regex_8c.html#a18c029b7ffefd9545300ad82e662d5ae" target="_top" xlink:title="Associate a colour to a pattern.">
<polygon fill="#fff0f0" stroke="red" points="236.5,-80.5 162.5,-80.5 162.5,-61.5 236.5,-61.5 236.5,-80.5"/>
<text text-anchor="middle" x="199.5" y="-68.5" font-family="Helvetica,sans-Serif" font-size="10.00">add_pattern</text>
</a>
</g>
</g>
<!-- Node1&#45;&gt;Node2 -->
<g id="edge1" class="edge">
<title>Node1&#45;&gt;Node2</title>
<path fill="none" stroke="#63b8ff" d="M291.18,-46.86C273.36,-51.61 253.48,-56.9 236.89,-61.31"/>
<polygon fill="#63b8ff" stroke="#63b8ff" points="292.02,-50.26 300.79,-44.3 290.22,-43.49 292.02,-50.26"/>
</g>
<!-- Node8 -->
<g id="node3" class="node">
<title>Node8</title>
<g id="a_node3"><a xlink:href="color_2regex_8c.html#ae963acd0744f5dfd000b03193d3d4a48" target="_top" xlink:title="Free the contents of a RegexColorList.">
<polygon fill="#fff0f0" stroke="red" points="257,-43.5 142,-43.5 142,-24.5 257,-24.5 257,-43.5"/>
<text text-anchor="middle" x="199.5" y="-31.5" font-family="Helvetica,sans-Serif" font-size="10.00">regex_color_list_clear</text>
</a>
</g>
</g>
<!-- Node1&#45;&gt;Node8 -->
<g id="edge2" class="edge">
<title>Node1&#45;&gt;Node8</title>
<path fill="none" stroke="#63b8ff" d="M281.4,-34C273.47,-34 265.34,-34 257.43,-34"/>
<polygon fill="#63b8ff" stroke="#63b8ff" points="281.31,-37.5 291.31,-34 281.31,-30.5 281.31,-37.5"/>
</g>
<!-- Node9 -->
<g id="node4" class="node">
<title>Node9</title>
<g id="a_node4"><a xlink:href="color_2regex_8c.html#a7a5d3c94371f021316d5cd447d40dbdd" target="_top" xlink:title="Parse a Regex &#39;uncolor&#39; command.">
<polygon fill="#fff0f0" stroke="red" points="106,-30 0,-30 0,0 106,0 106,-30"/>
<text text-anchor="start" x="8" y="-18" font-family="Helvetica,sans-Serif" font-size="10.00">regex_colors_parse</text>
<text text-anchor="middle" x="53" y="-7" font-family="Helvetica,sans-Serif" font-size="10.00">_uncolor</text>
</a>
</g>
</g>
<!-- Node1&#45;&gt;Node9 -->
<g id="edge4" class="edge">
<title>Node1&#45;&gt;Node9</title>
<path fill="none" stroke="#63b8ff" d="M290.79,-21.6C279.75,-19.29 268.03,-17.22 257,-16 206.03,-10.38 147.42,-10.82 106.33,-12.26"/>
<polygon fill="#63b8ff" stroke="#63b8ff" points="289.99,-25.01 300.51,-23.75 291.5,-18.17 289.99,-25.01"/>
</g>
<!-- Node8&#45;&gt;Node9 -->
<g id="edge3" class="edge">
<title>Node8&#45;&gt;Node9</title>
<path fill="none" stroke="#63b8ff" d="M130.43,-25.05C122.32,-23.98 114.13,-22.91 106.29,-21.88"/>
<polygon fill="#63b8ff" stroke="#63b8ff" points="129.93,-28.51 140.3,-26.35 130.85,-21.57 129.93,-28.51"/>
</g>
</g>
</svg>
