<?xml version="1.0" encoding="UTF-8" standalone="no"?>
<!DOCTYPE svg PUBLIC "-//W3C//DTD SVG 1.1//EN"
 "http://www.w3.org/Graphics/SVG/1.1/DTD/svg11.dtd">
<!-- Generated by graphviz version 12.2.1 (20241206.2353)
 -->
<!-- Title: regex_color_free Pages: 1 -->
<svg width="394pt" height="97pt"
 viewBox="0.00 0.00 393.50 97.38" xmlns="http://www.w3.org/2000/svg" xmlns:xlink="http://www.w3.org/1999/xlink">
<g id="graph0" class="graph" transform="scale(1 1) rotate(0) translate(4 93.38)">
<title>regex_color_free</title>
<!-- Node1 -->
<g id="Node000001" class="node">
<title>Node1</title>
<g id="a_Node000001"><a xlink:title="Free a Regex colour.">
<polygon fill="#999999" stroke="#666666" points="385.5,-49.38 291.5,-49.38 291.5,-27.12 385.5,-27.12 385.5,-49.38"/>
<text text-anchor="middle" x="338.5" y="-35.88" font-family="Helvetica,sans-Serif" font-size="10.00">regex_color_free</text>
</a>
</g>
</g>
<!-- Node2 -->
<g id="Node000002" class="node">
<title>Node2</title>
<g id="a_Node000002"><a xlink:href="color_2regex_8c.html#a18c029b7ffefd9545300ad82e662d5ae" target="_top" xlink:title="Associate a colour to a pattern.">
<polygon fill="#fff0f0" stroke="red" points="234.88,-89.38 161.88,-89.38 161.88,-67.12 234.88,-67.12 234.88,-89.38"/>
<text text-anchor="middle" x="198.38" y="-75.88" font-family="Helvetica,sans-Serif" font-size="10.00">add_pattern</text>
</a>
</g>
</g>
<!-- Node1&#45;&gt;Node2 -->
<g id="edge1_Node000001_Node000002" class="edge">
<title>Node1&#45;&gt;Node2</title>
<g id="a_edge1_Node000001_Node000002"><a xlink:title=" ">
<path fill="none" stroke="#63b8ff" d="M286.57,-53C269.44,-57.96 250.7,-63.39 235,-67.93"/>
<polygon fill="#63b8ff" stroke="#63b8ff" points="287.46,-56.38 296.09,-50.24 285.52,-49.66 287.46,-56.38"/>
</a>
</g>
</g>
<!-- Node8 -->
<g id="Node000008" class="node">
<title>Node8</title>
<g id="a_Node000008"><a xlink:href="color_2regex_8c.html#ae963acd0744f5dfd000b03193d3d4a48" target="_top" xlink:title="Free the contents of a RegexColorList.">
<polygon fill="#fff0f0" stroke="red" points="255.5,-49.38 141.25,-49.38 141.25,-27.12 255.5,-27.12 255.5,-49.38"/>
<text text-anchor="middle" x="198.38" y="-35.88" font-family="Helvetica,sans-Serif" font-size="10.00">regex_color_list_clear</text>
</a>
</g>
</g>
<!-- Node1&#45;&gt;Node8 -->
<g id="edge2_Node000001_Node000008" class="edge">
<title>Node1&#45;&gt;Node8</title>
<g id="a_edge2_Node000001_Node000008"><a xlink:title=" ">
<path fill="none" stroke="#63b8ff" d="M279.77,-38.25C271.89,-38.25 263.8,-38.25 255.94,-38.25"/>
<polygon fill="#63b8ff" stroke="#63b8ff" points="279.61,-41.75 289.61,-38.25 279.61,-34.75 279.61,-41.75"/>
</a>
</g>
</g>
<!-- Node9 -->
<g id="Node000009" class="node">
<title>Node9</title>
<g id="a_Node000009"><a xlink:href="color_2regex_8c.html#a9c342ce59dddaa83477b65c9aebfa1cd" target="_top" xlink:title="Parse a Regex &#39;uncolor&#39; command.">
<polygon fill="#fff0f0" stroke="red" points="105.25,-36.5 0,-36.5 0,0 105.25,0 105.25,-36.5"/>
<text text-anchor="start" x="8" y="-23" font-family="Helvetica,sans-Serif" font-size="10.00">regex_colors_parse</text>
<text text-anchor="middle" x="52.62" y="-8.75" font-family="Helvetica,sans-Serif" font-size="10.00">_uncolor</text>
</a>
</g>
</g>
<!-- Node1&#45;&gt;Node9 -->
<g id="edge4_Node000001_Node000009" class="edge">
<title>Node1&#45;&gt;Node9</title>
<g id="a_edge4_Node000001_Node000009"><a xlink:title=" ">
<path fill="none" stroke="#63b8ff" d="M287.21,-23.98C276.81,-21.6 265.86,-19.5 255.5,-18.25 204.87,-12.16 146.58,-13 105.69,-14.85"/>
<polygon fill="#63b8ff" stroke="#63b8ff" points="286.21,-27.34 296.76,-26.29 287.86,-20.54 286.21,-27.34"/>
</a>
</g>
</g>
<!-- Node8&#45;&gt;Node9 -->
<g id="edge3_Node000008_Node000009" class="edge">
<title>Node8&#45;&gt;Node9</title>
<g id="a_edge3_Node000008_Node000009"><a xlink:title=" ">
<path fill="none" stroke="#63b8ff" d="M129.66,-28.83C121.59,-27.71 113.45,-26.57 105.65,-25.49"/>
<polygon fill="#63b8ff" stroke="#63b8ff" points="129.09,-32.28 139.47,-30.19 130.05,-25.35 129.09,-32.28"/>
</a>
</g>
</g>
</g>
</svg>
