<?xml version="1.0" encoding="UTF-8" standalone="no"?>
<!DOCTYPE svg PUBLIC "-//W3C//DTD SVG 1.1//EN"
 "http://www.w3.org/Graphics/SVG/1.1/DTD/svg11.dtd">
<!-- Generated by graphviz version 7.1.0 (0)
 -->
<!-- Title: color/lib.h Pages: 1 -->
<svg width="927pt" height="192pt"
 viewBox="0.00 0.00 926.93 192.00" xmlns="http://www.w3.org/2000/svg" xmlns:xlink="http://www.w3.org/1999/xlink">
<g id="graph0" class="graph" transform="scale(1 1) rotate(0) translate(4 188)">
<title>color/lib.h</title>
<!-- Node1 -->
<g id="node1" class="node">
<title>Node1</title>
<g id="a_node1"><a xlink:title="Color and attribute parsing.">
<polygon fill="#999999" stroke="#666666" points="438.93,-184 375.93,-184 375.93,-165 438.93,-165 438.93,-184"/>
<text text-anchor="middle" x="407.43" y="-172" font-family="Helvetica,sans-Serif" font-size="10.00">color/lib.h</text>
</a>
</g>
</g>
<!-- Node2 -->
<g id="node2" class="node">
<title>Node2</title>
<g id="a_node2"><a xlink:href="ansi_8h.html" target="_top" xlink:title="ANSI Colours.">
<polygon fill="#fff0f0" stroke="red" points="58.43,-129 14.43,-129 14.43,-110 58.43,-110 58.43,-129"/>
<text text-anchor="middle" x="36.43" y="-117" font-family="Helvetica,sans-Serif" font-size="10.00">ansi.h</text>
</a>
</g>
</g>
<!-- Node1&#45;&gt;Node2 -->
<g id="edge1" class="edge">
<title>Node1&#45;&gt;Node2</title>
<path fill="none" stroke="#63b8ff" d="M375.86,-170.37C316.26,-164.22 183.22,-149.38 72.43,-129 71.6,-128.85 70.76,-128.69 69.92,-128.52"/>
<polygon fill="#63b8ff" stroke="#63b8ff" points="70.82,-125.14 60.31,-126.47 69.35,-131.98 70.82,-125.14"/>
</g>
<!-- Node4 -->
<g id="node3" class="node">
<title>Node4</title>
<g id="a_node3"><a xlink:href="attr_8h.html" target="_top" xlink:title="Colour and attributes.">
<polygon fill="#fff0f0" stroke="red" points="164.93,-74 123.93,-74 123.93,-55 164.93,-55 164.93,-74"/>
<text text-anchor="middle" x="144.43" y="-62" font-family="Helvetica,sans-Serif" font-size="10.00">attr.h</text>
</a>
</g>
</g>
<!-- Node1&#45;&gt;Node4 -->
<g id="edge4" class="edge">
<title>Node1&#45;&gt;Node4</title>
<path fill="none" stroke="#63b8ff" d="M375.64,-173.8C305.32,-173.72 140.11,-169.16 105.43,-129 92.71,-114.27 108.41,-94.91 123.53,-81.46"/>
<polygon fill="#63b8ff" stroke="#63b8ff" points="125.52,-84.36 130.97,-75.27 121.04,-78.98 125.52,-84.36"/>
</g>
<!-- Node56 -->
<g id="node4" class="node">
<title>Node56</title>
<g id="a_node4"><a xlink:href="curses2_8h.html" target="_top" xlink:title="Curses Colour.">
<polygon fill="#fff0f0" stroke="red" points="175.43,-19 113.43,-19 113.43,0 175.43,0 175.43,-19"/>
<text text-anchor="middle" x="144.43" y="-7" font-family="Helvetica,sans-Serif" font-size="10.00">curses2.h</text>
</a>
</g>
</g>
<!-- Node1&#45;&gt;Node56 -->
<g id="edge7" class="edge">
<title>Node1&#45;&gt;Node56</title>
<path fill="none" stroke="#63b8ff" d="M415.84,-164.91C427.08,-152.34 444.38,-128.43 433.43,-110 383.32,-25.65 254.83,-11.24 187.33,-9.74"/>
<polygon fill="#63b8ff" stroke="#63b8ff" points="187.42,-6.24 177.37,-9.62 187.33,-13.24 187.42,-6.24"/>
</g>
<!-- Node57 -->
<g id="node5" class="node">
<title>Node57</title>
<g id="a_node5"><a xlink:href="color_8h.html" target="_top" xlink:title="Color and attribute parsing.">
<polygon fill="#fff0f0" stroke="red" points="322.93,-74 275.93,-74 275.93,-55 322.93,-55 322.93,-74"/>
<text text-anchor="middle" x="299.43" y="-62" font-family="Helvetica,sans-Serif" font-size="10.00">color.h</text>
</a>
</g>
</g>
<!-- Node1&#45;&gt;Node57 -->
<g id="edge5" class="edge">
<title>Node1&#45;&gt;Node57</title>
<path fill="none" stroke="#63b8ff" d="M412.35,-164.84C419.06,-151.75 428.98,-126.71 417.43,-110 398.9,-83.21 362.07,-72.53 334.45,-68.28"/>
<polygon fill="#63b8ff" stroke="#63b8ff" points="335.13,-64.84 324.77,-67.02 334.23,-71.78 335.13,-64.84"/>
</g>
<!-- Node58 -->
<g id="node6" class="node">
<title>Node58</title>
<g id="a_node6"><a xlink:href="command2_8h.html" target="_top" xlink:title="Parse colour commands.">
<polygon fill="#fff0f0" stroke="red" points="579.93,-129 502.93,-129 502.93,-110 579.93,-110 579.93,-129"/>
<text text-anchor="middle" x="541.43" y="-117" font-family="Helvetica,sans-Serif" font-size="10.00">command2.h</text>
</a>
</g>
</g>
<!-- Node1&#45;&gt;Node58 -->
<g id="edge6" class="edge">
<title>Node1&#45;&gt;Node58</title>
<path fill="none" stroke="#63b8ff" d="M430.16,-164.51C451.66,-156.01 484.16,-143.15 508.5,-133.53"/>
<polygon fill="#63b8ff" stroke="#63b8ff" points="509.62,-136.85 517.63,-129.91 507.04,-130.34 509.62,-136.85"/>
</g>
<!-- Node69 -->
<g id="node7" class="node">
<title>Node69</title>
<g id="a_node7"><a xlink:href="debug_8h.html" target="_top" xlink:title="Colour Debugging.">
<polygon fill="#fff0f0" stroke="red" points="60.43,-74 4.43,-74 4.43,-55 60.43,-55 60.43,-74"/>
<text text-anchor="middle" x="32.43" y="-62" font-family="Helvetica,sans-Serif" font-size="10.00">debug.h</text>
</a>
</g>
</g>
<!-- Node1&#45;&gt;Node69 -->
<g id="edge8" class="edge">
<title>Node1&#45;&gt;Node69</title>
<path fill="none" stroke="#63b8ff" d="M375.54,-172.37C284.78,-168.81 30.02,-156.46 5.43,-129 -6.39,-115.8 4.46,-96.66 15.73,-82.85"/>
<polygon fill="#63b8ff" stroke="#63b8ff" points="18.31,-85.22 22.32,-75.41 13.07,-80.58 18.31,-85.22"/>
</g>
<!-- Node70 -->
<g id="node8" class="node">
<title>Node70</title>
<g id="a_node8"><a xlink:href="color_2dump_8h.html" target="_top" xlink:title="Colour Dump Command.">
<polygon fill="white" stroke="#666666" points="650.93,-129 597.93,-129 597.93,-110 650.93,-110 650.93,-129"/>
<text text-anchor="middle" x="624.43" y="-117" font-family="Helvetica,sans-Serif" font-size="10.00">dump.h</text>
</a>
</g>
</g>
<!-- Node1&#45;&gt;Node70 -->
<g id="edge10" class="edge">
<title>Node1&#45;&gt;Node70</title>
<path fill="none" stroke="#63b8ff" d="M438.98,-165.79C478.09,-156.24 544.69,-139.98 586.53,-129.76"/>
<polygon fill="#63b8ff" stroke="#63b8ff" points="587.27,-133.18 596.16,-127.41 585.61,-126.38 587.27,-133.18"/>
</g>
<!-- Node71 -->
<g id="node9" class="node">
<title>Node71</title>
<g id="a_node9"><a xlink:href="merged_8h.html" target="_top" xlink:title="Merged colours.">
<polygon fill="#fff0f0" stroke="red" points="731.43,-129 669.43,-129 669.43,-110 731.43,-110 731.43,-129"/>
<text text-anchor="middle" x="700.43" y="-117" font-family="Helvetica,sans-Serif" font-size="10.00">merged.h</text>
</a>
</g>
</g>
<!-- Node1&#45;&gt;Node71 -->
<g id="edge11" class="edge">
<title>Node1&#45;&gt;Node71</title>
<path fill="none" stroke="#63b8ff" d="M439.05,-168.31C484.99,-160.68 573.16,-145.75 657.89,-129.44"/>
<polygon fill="#63b8ff" stroke="#63b8ff" points="658.37,-132.91 667.52,-127.57 657.04,-126.04 658.37,-132.91"/>
</g>
<!-- Node72 -->
<g id="node10" class="node">
<title>Node72</title>
<g id="a_node10"><a xlink:href="notify2_8h.html" target="_top" xlink:title="Colour notifications.">
<polygon fill="#fff0f0" stroke="red" points="407.93,-129 348.93,-129 348.93,-110 407.93,-110 407.93,-129"/>
<text text-anchor="middle" x="378.43" y="-117" font-family="Helvetica,sans-Serif" font-size="10.00">notify2.h</text>
</a>
</g>
</g>
<!-- Node1&#45;&gt;Node72 -->
<g id="edge12" class="edge">
<title>Node1&#45;&gt;Node72</title>
<path fill="none" stroke="#63b8ff" d="M402.64,-164.75C398.89,-157.88 393.52,-148.08 388.8,-139.45"/>
<polygon fill="#63b8ff" stroke="#63b8ff" points="391.92,-137.86 384.05,-130.77 385.78,-141.22 391.92,-137.86"/>
</g>
<!-- Node73 -->
<g id="node11" class="node">
<title>Node73</title>
<g id="a_node11"><a xlink:href="parse__ansi_8h.html" target="_top" xlink:title="Parse ANSI Sequences.">
<polygon fill="#fff0f0" stroke="red" points="823.43,-129 749.43,-129 749.43,-110 823.43,-110 823.43,-129"/>
<text text-anchor="middle" x="786.43" y="-117" font-family="Helvetica,sans-Serif" font-size="10.00">parse_ansi.h</text>
</a>
</g>
</g>
<!-- Node1&#45;&gt;Node73 -->
<g id="edge14" class="edge">
<title>Node1&#45;&gt;Node73</title>
<path fill="none" stroke="#63b8ff" d="M439.19,-169.79C496.65,-162.97 621.97,-147.55 738.09,-129.3"/>
<polygon fill="#63b8ff" stroke="#63b8ff" points="738.48,-132.78 747.81,-127.76 737.38,-125.87 738.48,-132.78"/>
</g>
<!-- Node74 -->
<g id="node12" class="node">
<title>Node74</title>
<g id="a_node12"><a xlink:href="parse__color_8h.html" target="_top" xlink:title="Parse colour commands.">
<polygon fill="#fff0f0" stroke="red" points="918.93,-129 841.93,-129 841.93,-110 918.93,-110 918.93,-129"/>
<text text-anchor="middle" x="880.43" y="-117" font-family="Helvetica,sans-Serif" font-size="10.00">parse_color.h</text>
</a>
</g>
</g>
<!-- Node1&#45;&gt;Node74 -->
<g id="edge15" class="edge">
<title>Node1&#45;&gt;Node74</title>
<path fill="none" stroke="#63b8ff" d="M439.25,-170.95C508.41,-165.23 677.86,-150.32 830.48,-129.18"/>
<polygon fill="#63b8ff" stroke="#63b8ff" points="830.52,-132.71 839.94,-127.85 829.55,-125.77 830.52,-132.71"/>
</g>
<!-- Node75 -->
<g id="node13" class="node">
<title>Node75</title>
<g id="a_node13"><a xlink:href="quoted_8h.html" target="_top" xlink:title="Quoted&#45;Email colours.">
<polygon fill="#fff0f0" stroke="red" points="173.93,-129 114.93,-129 114.93,-110 173.93,-110 173.93,-129"/>
<text text-anchor="middle" x="144.43" y="-117" font-family="Helvetica,sans-Serif" font-size="10.00">quoted.h</text>
</a>
</g>
</g>
<!-- Node1&#45;&gt;Node75 -->
<g id="edge16" class="edge">
<title>Node1&#45;&gt;Node75</title>
<path fill="none" stroke="#63b8ff" d="M375.49,-167.35C334.04,-159.32 259.19,-144.68 185.14,-129.32"/>
<polygon fill="#63b8ff" stroke="#63b8ff" points="186.21,-125.97 175.71,-127.36 184.79,-132.83 186.21,-125.97"/>
</g>
<!-- Node76 -->
<g id="node14" class="node">
<title>Node76</title>
<g id="a_node14"><a xlink:href="regex4_8h.html" target="_top" xlink:title="Regex Colour.">
<polygon fill="#fff0f0" stroke="red" points="250.43,-129 192.43,-129 192.43,-110 250.43,-110 250.43,-129"/>
<text text-anchor="middle" x="221.43" y="-117" font-family="Helvetica,sans-Serif" font-size="10.00">regex4.h</text>
</a>
</g>
</g>
<!-- Node1&#45;&gt;Node76 -->
<g id="edge19" class="edge">
<title>Node1&#45;&gt;Node76</title>
<path fill="none" stroke="#63b8ff" d="M375.88,-164.51C344.4,-155.54 295.93,-141.73 261.7,-131.97"/>
<polygon fill="#63b8ff" stroke="#63b8ff" points="262.71,-128.62 252.14,-129.25 260.8,-135.36 262.71,-128.62"/>
</g>
<!-- Node77 -->
<g id="node15" class="node">
<title>Node77</title>
<g id="a_node15"><a xlink:href="simple2_8h.html" target="_top" xlink:title="Simple colour.">
<polygon fill="#fff0f0" stroke="red" points="330.43,-129 268.43,-129 268.43,-110 330.43,-110 330.43,-129"/>
<text text-anchor="middle" x="299.43" y="-117" font-family="Helvetica,sans-Serif" font-size="10.00">simple2.h</text>
</a>
</g>
</g>
<!-- Node1&#45;&gt;Node77 -->
<g id="edge22" class="edge">
<title>Node1&#45;&gt;Node77</title>
<path fill="none" stroke="#63b8ff" d="M389.11,-164.51C372.25,-156.24 347,-143.84 327.58,-134.31"/>
<polygon fill="#63b8ff" stroke="#63b8ff" points="329.36,-131.29 318.84,-130.02 326.27,-137.57 329.36,-131.29"/>
</g>
<!-- Node2&#45;&gt;Node4 -->
<g id="edge2" class="edge">
<title>Node2&#45;&gt;Node4</title>
<path fill="none" stroke="#63b8ff" d="M54.75,-109.51C71.61,-101.24 96.87,-88.84 116.28,-79.31"/>
<polygon fill="#63b8ff" stroke="#63b8ff" points="117.59,-82.57 125.02,-75.02 114.5,-76.29 117.59,-82.57"/>
</g>
<!-- Node4&#45;&gt;Node56 -->
<g id="edge3" class="edge">
<title>Node4&#45;&gt;Node56</title>
<path fill="none" stroke="#63b8ff" d="M144.43,-54.75C144.43,-48.27 144.43,-39.16 144.43,-30.9"/>
<polygon fill="#63b8ff" stroke="#63b8ff" points="147.93,-30.96 144.43,-20.96 140.93,-30.96 147.93,-30.96"/>
</g>
<!-- Node69&#45;&gt;Node56 -->
<g id="edge9" class="edge">
<title>Node69&#45;&gt;Node56</title>
<path fill="none" stroke="#63b8ff" d="M51.43,-54.51C68.99,-46.2 95.35,-33.73 115.52,-24.18"/>
<polygon fill="#63b8ff" stroke="#63b8ff" points="116.8,-27.45 124.34,-20.01 113.81,-21.12 116.8,-27.45"/>
</g>
<!-- Node72&#45;&gt;Node57 -->
<g id="edge13" class="edge">
<title>Node72&#45;&gt;Node57</title>
<path fill="none" stroke="#63b8ff" d="M365.03,-109.51C353.27,-101.62 335.92,-89.98 322.02,-80.65"/>
<polygon fill="#63b8ff" stroke="#63b8ff" points="324.14,-77.87 313.89,-75.2 320.24,-83.68 324.14,-77.87"/>
</g>
<!-- Node75&#45;&gt;Node4 -->
<g id="edge17" class="edge">
<title>Node75&#45;&gt;Node4</title>
<path fill="none" stroke="#63b8ff" d="M144.43,-109.75C144.43,-103.27 144.43,-94.16 144.43,-85.9"/>
<polygon fill="#63b8ff" stroke="#63b8ff" points="147.93,-85.96 144.43,-75.96 140.93,-85.96 147.93,-85.96"/>
</g>
<!-- Node75&#45;&gt;Node57 -->
<g id="edge18" class="edge">
<title>Node75&#45;&gt;Node57</title>
<path fill="none" stroke="#63b8ff" d="M170.72,-109.51C196.65,-100.64 236.41,-87.05 264.88,-77.32"/>
<polygon fill="#63b8ff" stroke="#63b8ff" points="265.79,-80.7 274.12,-74.15 263.53,-74.08 265.79,-80.7"/>
</g>
<!-- Node76&#45;&gt;Node4 -->
<g id="edge20" class="edge">
<title>Node76&#45;&gt;Node4</title>
<path fill="none" stroke="#63b8ff" d="M208.37,-109.51C196.91,-101.62 180,-89.98 166.45,-80.65"/>
<polygon fill="#63b8ff" stroke="#63b8ff" points="168.77,-78 158.55,-75.22 164.8,-83.77 168.77,-78"/>
</g>
<!-- Node76&#45;&gt;Node57 -->
<g id="edge21" class="edge">
<title>Node76&#45;&gt;Node57</title>
<path fill="none" stroke="#63b8ff" d="M234.66,-109.51C246.27,-101.62 263.4,-89.98 277.13,-80.65"/>
<polygon fill="#63b8ff" stroke="#63b8ff" points="278.84,-83.72 285.14,-75.21 274.9,-77.93 278.84,-83.72"/>
</g>
<!-- Node77&#45;&gt;Node4 -->
<g id="edge23" class="edge">
<title>Node77&#45;&gt;Node4</title>
<path fill="none" stroke="#63b8ff" d="M273.14,-109.51C246.3,-100.33 204.63,-86.08 176.01,-76.3"/>
<polygon fill="#63b8ff" stroke="#63b8ff" points="177.4,-73.08 166.81,-73.15 175.14,-79.7 177.4,-73.08"/>
</g>
<!-- Node77&#45;&gt;Node57 -->
<g id="edge24" class="edge">
<title>Node77&#45;&gt;Node57</title>
<path fill="none" stroke="#63b8ff" d="M299.43,-109.75C299.43,-103.27 299.43,-94.16 299.43,-85.9"/>
<polygon fill="#63b8ff" stroke="#63b8ff" points="302.93,-85.96 299.43,-75.96 295.93,-85.96 302.93,-85.96"/>
</g>
</g>
</svg>
