<?xml version="1.0" encoding="UTF-8" standalone="no"?>
<!DOCTYPE svg PUBLIC "-//W3C//DTD SVG 1.1//EN"
 "http://www.w3.org/Graphics/SVG/1.1/DTD/svg11.dtd">
<!-- Generated by graphviz version 2.40.1 (20161225.0304)
 -->
<!-- Title: parse_setenv Pages: 1 -->
<svg width="423pt" height="350pt"
 viewBox="0.00 0.00 423.00 350.00" xmlns="http://www.w3.org/2000/svg" xmlns:xlink="http://www.w3.org/1999/xlink">
<g id="graph0" class="graph" transform="scale(1 1) rotate(0) translate(4 346)">
<title>parse_setenv</title>
<polygon fill="#ffffff" stroke="transparent" points="-4,4 -4,-346 419,-346 419,4 -4,4"/>
<!-- Node6545 -->
<g id="node1" class="node">
<title>Node6545</title>
<polygon fill="#bfbfbf" stroke="#000000" points="0,-152.5 0,-171.5 82,-171.5 82,-152.5 0,-152.5"/>
<text text-anchor="middle" x="41" y="-159.5" font-family="Helvetica,sans-Serif" font-size="10.00" fill="#000000">parse_setenv</text>
</g>
<!-- Node6546 -->
<g id="node2" class="node">
<title>Node6546</title>
<g id="a_node2"><a xlink:href="envlist_8c.html#ad8cfe2adb63b9459b335af87364bb7f0" target="_top" xlink:title="Get the private environment. ">
<polygon fill="#ffffff" stroke="#000000" points="135.5,-322.5 135.5,-341.5 249.5,-341.5 249.5,-322.5 135.5,-322.5"/>
<text text-anchor="middle" x="192.5" y="-329.5" font-family="Helvetica,sans-Serif" font-size="10.00" fill="#000000">mutt_envlist_getlist</text>
</a>
</g>
</g>
<!-- Node6545&#45;&gt;Node6546 -->
<g id="edge1" class="edge">
<title>Node6545&#45;&gt;Node6546</title>
<path fill="none" stroke="#191970" d="M42.9759,-171.5165C49.04,-198.2529 69.9644,-274.5927 118,-313 120.4744,-314.9784 123.1303,-316.7533 125.9129,-318.3454"/>
<polygon fill="#191970" stroke="#191970" points="124.6385,-321.6172 135.1634,-322.8334 127.6941,-315.3193 124.6385,-321.6172"/>
</g>
<!-- Node6547 -->
<g id="node3" class="node">
<title>Node6547</title>
<g id="a_node3"><a xlink:href="buffer_8c.html#ad057ee239ae5bcfd72cab3749036ab02" target="_top" xlink:title="Format a string overwriting a Buffer. ">
<polygon fill="#ffffff" stroke="#ff0000" points="140,-284.5 140,-303.5 245,-303.5 245,-284.5 140,-284.5"/>
<text text-anchor="middle" x="192.5" y="-291.5" font-family="Helvetica,sans-Serif" font-size="10.00" fill="#000000">mutt_buffer_printf</text>
</a>
</g>
</g>
<!-- Node6545&#45;&gt;Node6547 -->
<g id="edge2" class="edge">
<title>Node6545&#45;&gt;Node6547</title>
<path fill="none" stroke="#191970" d="M45.2512,-171.6546C55.0013,-192.6919 81.0138,-242.9457 118,-270 123.8814,-274.3021 130.5678,-277.8549 137.4638,-280.7836"/>
<polygon fill="#191970" stroke="#191970" points="136.3509,-284.1051 146.9416,-284.4022 138.8478,-277.5655 136.3509,-284.1051"/>
</g>
<!-- Node6553 -->
<g id="node4" class="node">
<title>Node6553</title>
<g id="a_node4"><a xlink:href="init_8c.html#a0c8965a76cc79c02268a42a859968bcb" target="_top" xlink:title="Extract one token from a string. ">
<polygon fill="#ffffff" stroke="#ff0000" points="136,-190.5 136,-209.5 249,-209.5 249,-190.5 136,-190.5"/>
<text text-anchor="middle" x="192.5" y="-197.5" font-family="Helvetica,sans-Serif" font-size="10.00" fill="#000000">mutt_extract_token</text>
</a>
</g>
</g>
<!-- Node6545&#45;&gt;Node6553 -->
<g id="edge3" class="edge">
<title>Node6545&#45;&gt;Node6553</title>
<path fill="none" stroke="#191970" d="M79.2298,-171.589C99.1319,-176.5809 123.6567,-182.7324 144.7909,-188.0334"/>
<polygon fill="#191970" stroke="#191970" points="143.994,-191.4418 154.5451,-190.4799 145.6971,-184.6521 143.994,-191.4418"/>
</g>
<!-- Node6557 -->
<g id="node5" class="node">
<title>Node6557</title>
<g id="a_node5"><a xlink:href="mutt_2string_8c.html#a4c2560f787bd1226b977992c16860c98" target="_top" xlink:title="Copy a string, safely. ">
<polygon fill="#ffffff" stroke="#000000" points="318.5,-190.5 318.5,-209.5 399.5,-209.5 399.5,-190.5 318.5,-190.5"/>
<text text-anchor="middle" x="359" y="-197.5" font-family="Helvetica,sans-Serif" font-size="10.00" fill="#000000">mutt_str_dup</text>
</a>
</g>
</g>
<!-- Node6545&#45;&gt;Node6557 -->
<g id="edge11" class="edge">
<title>Node6545&#45;&gt;Node6557</title>
<path fill="none" stroke="#191970" d="M47.1654,-171.7221C58.6488,-188.8018 85.1538,-223.6471 118,-237 179.3467,-261.9391 201.9844,-249.584 267,-237 289.6749,-232.6112 313.8499,-222.6611 331.7257,-214.1838"/>
<polygon fill="#191970" stroke="#191970" points="333.5121,-217.2064 340.9591,-209.6703 330.4379,-210.9175 333.5121,-217.2064"/>
</g>
<!-- Node6598 -->
<g id="node6" class="node">
<title>Node6598</title>
<g id="a_node6"><a xlink:href="mutt_2string_8c.html#a9bf968304f4f9b49e24215cb2e28d22d" target="_top" xlink:title="Check whether a string starts with a prefix. ">
<polygon fill="#ffffff" stroke="#ff0000" points="303,-38.5 303,-57.5 415,-57.5 415,-38.5 303,-38.5"/>
<text text-anchor="middle" x="359" y="-45.5" font-family="Helvetica,sans-Serif" font-size="10.00" fill="#000000">mutt_str_startswith</text>
</a>
</g>
</g>
<!-- Node6545&#45;&gt;Node6598 -->
<g id="edge6" class="edge">
<title>Node6545&#45;&gt;Node6598</title>
<path fill="none" stroke="#191970" d="M45.4861,-152.29C55.34,-132.2304 80.9835,-86.4679 118,-67 171.8654,-38.6708 242.0344,-36.3391 292.7536,-39.6423"/>
<polygon fill="#191970" stroke="#191970" points="292.7161,-43.1491 302.9476,-40.3986 293.234,-36.1682 292.7161,-43.1491"/>
</g>
<!-- Node6600 -->
<g id="node7" class="node">
<title>Node6600</title>
<g id="a_node7"><a xlink:href="curs__lib_8c.html#acd14d074d8b9e6cb21e851dd573cdec2" target="_top" xlink:title="Shutdown curses/slang. ">
<polygon fill="#ffffff" stroke="#ff0000" points="152.5,-114.5 152.5,-133.5 232.5,-133.5 232.5,-114.5 152.5,-114.5"/>
<text text-anchor="middle" x="192.5" y="-121.5" font-family="Helvetica,sans-Serif" font-size="10.00" fill="#000000">mutt_endwin</text>
</a>
</g>
</g>
<!-- Node6545&#45;&gt;Node6600 -->
<g id="edge7" class="edge">
<title>Node6545&#45;&gt;Node6600</title>
<path fill="none" stroke="#191970" d="M79.2298,-152.411C99.1319,-147.4191 123.6567,-141.2676 144.7909,-135.9666"/>
<polygon fill="#191970" stroke="#191970" points="145.6971,-139.3479 154.5451,-133.5201 143.994,-132.5582 145.6971,-139.3479"/>
</g>
<!-- Node6602 -->
<g id="node8" class="node">
<title>Node6602</title>
<g id="a_node8"><a xlink:href="curs__lib_8c.html#ab6a61cdfcf8c2c73ee59381c79c79774" target="_top" xlink:title="Prompt the user to &#39;press any key&#39; and wait. ">
<polygon fill="#ffffff" stroke="#ff0000" points="118,-76.5 118,-95.5 267,-95.5 267,-76.5 118,-76.5"/>
<text text-anchor="middle" x="192.5" y="-83.5" font-family="Helvetica,sans-Serif" font-size="10.00" fill="#000000">mutt_any_key_to_continue</text>
</a>
</g>
</g>
<!-- Node6545&#45;&gt;Node6602 -->
<g id="edge8" class="edge">
<title>Node6545&#45;&gt;Node6602</title>
<path fill="none" stroke="#191970" d="M51.1125,-152.4596C65.0798,-139.7916 91.5589,-117.5604 118,-105 123.0488,-102.6017 128.4392,-100.4796 133.9245,-98.6075"/>
<polygon fill="#191970" stroke="#191970" points="135.3488,-101.8292 143.847,-95.5022 133.2581,-95.1487 135.3488,-101.8292"/>
</g>
<!-- Node6610 -->
<g id="node9" class="node">
<title>Node6610</title>
<g id="a_node9"><a xlink:href="envlist_8c.html#a4a1b224a757e2cbdc5af25d8090c18c8" target="_top" xlink:title="Unset an environment variable. ">
<polygon fill="#ffffff" stroke="#ff0000" points="137.5,-.5 137.5,-19.5 247.5,-19.5 247.5,-.5 137.5,-.5"/>
<text text-anchor="middle" x="192.5" y="-7.5" font-family="Helvetica,sans-Serif" font-size="10.00" fill="#000000">mutt_envlist_unset</text>
</a>
</g>
</g>
<!-- Node6545&#45;&gt;Node6610 -->
<g id="edge9" class="edge">
<title>Node6545&#45;&gt;Node6610</title>
<path fill="none" stroke="#191970" d="M44.1094,-152.3705C52.2641,-128.635 76.5473,-66.8707 118,-34 123.3653,-29.7455 129.5049,-26.236 135.9061,-23.3431"/>
<polygon fill="#191970" stroke="#191970" points="137.4335,-26.5016 145.4121,-19.5308 134.8279,-20.0046 137.4335,-26.5016"/>
</g>
<!-- Node6611 -->
<g id="node10" class="node">
<title>Node6611</title>
<g id="a_node10"><a xlink:href="envlist_8c.html#a9a8f68ff46021b57741a8c5d10c08f6d" target="_top" xlink:title="Set an environment variable. ">
<polygon fill="#ffffff" stroke="#ff0000" points="143.5,-152.5 143.5,-171.5 241.5,-171.5 241.5,-152.5 143.5,-152.5"/>
<text text-anchor="middle" x="192.5" y="-159.5" font-family="Helvetica,sans-Serif" font-size="10.00" fill="#000000">mutt_envlist_set</text>
</a>
</g>
</g>
<!-- Node6545&#45;&gt;Node6611 -->
<g id="edge12" class="edge">
<title>Node6545&#45;&gt;Node6611</title>
<path fill="none" stroke="#191970" d="M82.398,-162C97.9967,-162 116.0611,-162 132.9899,-162"/>
<polygon fill="#191970" stroke="#191970" points="133.3516,-165.5001 143.3515,-162 133.3515,-158.5001 133.3516,-165.5001"/>
</g>
<!-- Node6553&#45;&gt;Node6553 -->
<g id="edge4" class="edge">
<title>Node6553&#45;&gt;Node6553</title>
<path fill="none" stroke="#191970" d="M169.3806,-209.7571C158.1334,-218.5653 165.8398,-228 192.5,-228 209.9957,-228 219.3288,-223.9368 220.4991,-218.6539"/>
<polygon fill="#191970" stroke="#191970" points="223.4971,-216.8417 215.6194,-209.7571 217.3597,-220.208 223.4971,-216.8417"/>
</g>
<!-- Node6553&#45;&gt;Node6557 -->
<g id="edge5" class="edge">
<title>Node6553&#45;&gt;Node6557</title>
<path fill="none" stroke="#191970" d="M249.3342,-200C268.4905,-200 289.7286,-200 308.3734,-200"/>
<polygon fill="#191970" stroke="#191970" points="308.4351,-203.5001 318.4351,-200 308.435,-196.5001 308.4351,-203.5001"/>
</g>
<!-- Node6610&#45;&gt;Node6598 -->
<g id="edge10" class="edge">
<title>Node6610&#45;&gt;Node6598</title>
<path fill="none" stroke="#191970" d="M234.515,-19.589C256.6844,-24.6487 284.0732,-30.8996 307.511,-36.2488"/>
<polygon fill="#191970" stroke="#191970" points="306.759,-39.6671 317.2871,-38.4799 308.3166,-32.8425 306.759,-39.6671"/>
</g>
<!-- Node6611&#45;&gt;Node6557 -->
<g id="edge14" class="edge">
<title>Node6611&#45;&gt;Node6557</title>
<path fill="none" stroke="#191970" d="M234.515,-171.589C257.0216,-176.7256 284.9076,-183.09 308.5776,-188.4922"/>
<polygon fill="#191970" stroke="#191970" points="307.9078,-191.9292 318.4359,-190.7421 309.4654,-185.1047 307.9078,-191.9292"/>
</g>
<!-- Node6611&#45;&gt;Node6598 -->
<g id="edge13" class="edge">
<title>Node6611&#45;&gt;Node6598</title>
<path fill="none" stroke="#191970" d="M241.7121,-153.5599C250.4741,-150.9266 259.2638,-147.4869 267,-143 300.8873,-123.3458 330.4715,-87.6892 346.435,-66.0924"/>
<polygon fill="#191970" stroke="#191970" points="349.4133,-67.9458 352.4154,-57.7851 343.7323,-63.856 349.4133,-67.9458"/>
</g>
</g>
</svg>
