<?xml version="1.0" encoding="UTF-8" standalone="no"?>
<!DOCTYPE svg PUBLIC "-//W3C//DTD SVG 1.1//EN"
 "http://www.w3.org/Graphics/SVG/1.1/DTD/svg11.dtd">
<!-- Generated by graphviz version 2.40.1 (20161225.0304)
 -->
<!-- Title: mutt_edit_content_type Pages: 1 -->
<svg width="613pt" height="522pt"
 viewBox="0.00 0.00 613.00 522.00" xmlns="http://www.w3.org/2000/svg" xmlns:xlink="http://www.w3.org/1999/xlink">
<g id="graph0" class="graph" transform="scale(1 1) rotate(0) translate(4 518.0011)">
<title>mutt_edit_content_type</title>
<polygon fill="#ffffff" stroke="transparent" points="-4,4 -4,-518.0011 609,-518.0011 609,4 -4,4"/>
<!-- Node8512 -->
<g id="node1" class="node">
<title>Node8512</title>
<polygon fill="#bfbfbf" stroke="#000000" points="0,-246.5 0,-265.5 133,-265.5 133,-246.5 0,-246.5"/>
<text text-anchor="middle" x="66.5" y="-253.5" font-family="Helvetica,sans-Serif" font-size="10.00" fill="#000000">mutt_edit_content_type</text>
</g>
<!-- Node8513 -->
<g id="node2" class="node">
<title>Node8513</title>
<g id="a_node2"><a xlink:href="parameter_8c.html#a0c6d54a87e015a496c8dbecfcd4002c9" target="_top" xlink:title="Find a matching Parameter. ">
<polygon fill="#ffffff" stroke="#000000" points="362,-416.5 362,-435.5 460,-435.5 460,-416.5 362,-416.5"/>
<text text-anchor="middle" x="411" y="-423.5" font-family="Helvetica,sans-Serif" font-size="10.00" fill="#000000">mutt_param_get</text>
</a>
</g>
</g>
<!-- Node8512&#45;&gt;Node8513 -->
<g id="edge1" class="edge">
<title>Node8512&#45;&gt;Node8513</title>
<path fill="none" stroke="#191970" d="M69.6666,-265.6361C79.3516,-293.3764 111.4701,-373.5704 169,-407 224.6819,-439.3558 300.117,-439.8537 351.8826,-434.9983"/>
<polygon fill="#191970" stroke="#191970" points="352.3195,-438.4719 361.9073,-433.9637 351.6008,-431.5089 352.3195,-438.4719"/>
</g>
<!-- Node8514 -->
<g id="node3" class="node">
<title>Node8514</title>
<g id="a_node3"><a xlink:href="mutt_2string_8c.html#a29db81d6f5a7dd216cbea75ecf8a5885" target="_top" xlink:title="Compare two strings, ignoring case. ">
<polygon fill="#ffffff" stroke="#ff0000" points="512,-435.5 512,-454.5 605,-454.5 605,-435.5 512,-435.5"/>
<text text-anchor="middle" x="558.5" y="-442.5" font-family="Helvetica,sans-Serif" font-size="10.00" fill="#000000">mutt_istr_equal</text>
</a>
</g>
</g>
<!-- Node8512&#45;&gt;Node8514 -->
<g id="edge11" class="edge">
<title>Node8512&#45;&gt;Node8514</title>
<path fill="none" stroke="#191970" d="M68.5801,-265.6866C75.8723,-296.9763 103.4713,-395.6457 169,-436 278.2748,-503.2943 439.5211,-475.7834 515.6795,-457.031"/>
<polygon fill="#191970" stroke="#191970" points="516.5754,-460.4147 525.4107,-454.5675 514.8575,-453.6288 516.5754,-460.4147"/>
</g>
<!-- Node8516 -->
<g id="node4" class="node">
<title>Node8516</title>
<g id="a_node4"><a xlink:href="mutt_2string_8c.html#ad20e00309de897a1e882fc7400335b83" target="_top" xlink:title="Copy a string into a buffer (guaranteeing NUL&#45;termination) ">
<polygon fill="#ffffff" stroke="#000000" points="368,-189.5 368,-208.5 454,-208.5 454,-189.5 368,-189.5"/>
<text text-anchor="middle" x="411" y="-196.5" font-family="Helvetica,sans-Serif" font-size="10.00" fill="#000000">mutt_str_copy</text>
</a>
</g>
</g>
<!-- Node8512&#45;&gt;Node8516 -->
<g id="edge3" class="edge">
<title>Node8512&#45;&gt;Node8516</title>
<path fill="none" stroke="#191970" d="M124.1616,-246.4595C189.2997,-235.6819 294.4495,-218.2841 357.7236,-207.815"/>
<polygon fill="#191970" stroke="#191970" points="358.5931,-211.2188 367.8876,-206.1333 357.4504,-204.3127 358.5931,-211.2188"/>
</g>
<!-- Node8517 -->
<g id="node5" class="node">
<title>Node8517</title>
<g id="a_node5"><a xlink:href="address_2address_8c.html#a5fc8a0b1e781c6e88f43f86d0ede02d2" target="_top" xlink:title="Copy a string and wrap it in quotes if it contains special characters. ">
<polygon fill="#ffffff" stroke="#000000" points="196,-170.5 196,-189.5 283,-189.5 283,-170.5 196,-170.5"/>
<text text-anchor="middle" x="239.5" y="-177.5" font-family="Helvetica,sans-Serif" font-size="10.00" fill="#000000">mutt_addr_cat</text>
</a>
</g>
</g>
<!-- Node8512&#45;&gt;Node8517 -->
<g id="edge4" class="edge">
<title>Node8512&#45;&gt;Node8517</title>
<path fill="none" stroke="#191970" d="M83.5575,-246.4054C103.6185,-235.344 138.1077,-217.0175 169,-204 178.4722,-200.0086 188.8603,-196.1817 198.6819,-192.802"/>
<polygon fill="#191970" stroke="#191970" points="199.8965,-196.0862 208.2597,-189.5819 197.6657,-189.4512 199.8965,-196.0862"/>
</g>
<!-- Node8518 -->
<g id="node6" class="node">
<title>Node8518</title>
<g id="a_node6"><a xlink:href="parameter_8c.html#ade3b55d0262dc913be1e8307390514a0" target="_top" xlink:title="Free a ParameterList. ">
<polygon fill="#ffffff" stroke="#ff0000" points="360.5,-340.5 360.5,-359.5 461.5,-359.5 461.5,-340.5 360.5,-340.5"/>
<text text-anchor="middle" x="411" y="-347.5" font-family="Helvetica,sans-Serif" font-size="10.00" fill="#000000">mutt_param_free</text>
</a>
</g>
</g>
<!-- Node8512&#45;&gt;Node8518 -->
<g id="edge6" class="edge">
<title>Node8512&#45;&gt;Node8518</title>
<path fill="none" stroke="#191970" d="M75.858,-265.7459C92.6776,-282.5377 129.9241,-316.5134 169,-331 227.7795,-352.7913 299.9572,-355.6734 350.1168,-354.2637"/>
<polygon fill="#191970" stroke="#191970" points="350.2858,-357.7601 360.1587,-353.916 350.0435,-350.7642 350.2858,-357.7601"/>
</g>
<!-- Node8520 -->
<g id="node7" class="node">
<title>Node8520</title>
<g id="a_node7"><a xlink:href="parse_8c.html#a44cbe20da647bd7112cf1f4857ad01a3" target="_top" xlink:title="Parse a content type. ">
<polygon fill="#ffffff" stroke="#ff0000" points="169,-378.5 169,-397.5 310,-397.5 310,-378.5 169,-378.5"/>
<text text-anchor="middle" x="239.5" y="-385.5" font-family="Helvetica,sans-Serif" font-size="10.00" fill="#000000">mutt_parse_content_type</text>
</a>
</g>
</g>
<!-- Node8512&#45;&gt;Node8520 -->
<g id="edge7" class="edge">
<title>Node8512&#45;&gt;Node8520</title>
<path fill="none" stroke="#191970" d="M73.0397,-265.5508C87.7748,-286.3813 125.6861,-336.2482 169,-364 175.8109,-368.3638 183.5033,-372.0281 191.2397,-375.0742"/>
<polygon fill="#191970" stroke="#191970" points="190.0478,-378.3649 200.6419,-378.4885 192.4371,-371.7853 190.0478,-378.3649"/>
</g>
<!-- Node8592 -->
<g id="node8" class="node">
<title>Node8592</title>
<g id="a_node8"><a xlink:href="curs__lib_8c.html#a67a4f6d2c21c9de420130089bb20505c" target="_top" xlink:title="Ask the user a Yes/No question. ">
<polygon fill="#ffffff" stroke="#ff0000" points="197.5,-132.5 197.5,-151.5 281.5,-151.5 281.5,-132.5 197.5,-132.5"/>
<text text-anchor="middle" x="239.5" y="-139.5" font-family="Helvetica,sans-Serif" font-size="10.00" fill="#000000">mutt_yesorno</text>
</a>
</g>
</g>
<!-- Node8512&#45;&gt;Node8592 -->
<g id="edge12" class="edge">
<title>Node8512&#45;&gt;Node8592</title>
<path fill="none" stroke="#191970" d="M74.1341,-246.2902C89.7988,-227.0359 127.6011,-183.9045 169,-161 174.6776,-157.8588 180.9034,-155.2141 187.2311,-152.993"/>
<polygon fill="#191970" stroke="#191970" points="188.7159,-156.1943 197.1944,-149.8409 186.6044,-149.5203 188.7159,-156.1943"/>
</g>
<!-- Node8656 -->
<g id="node9" class="node">
<title>Node8656</title>
<g id="a_node9"><a xlink:href="muttlib_8c.html#a6fbcbe533be7c4e05d99b0eb9cdb2581" target="_top" xlink:title="Sleep for a while. ">
<polygon fill="#ffffff" stroke="#000000" points="204,-94.5 204,-113.5 275,-113.5 275,-94.5 204,-94.5"/>
<text text-anchor="middle" x="239.5" y="-101.5" font-family="Helvetica,sans-Serif" font-size="10.00" fill="#000000">mutt_sleep</text>
</a>
</g>
</g>
<!-- Node8512&#45;&gt;Node8656 -->
<g id="edge13" class="edge">
<title>Node8512&#45;&gt;Node8656</title>
<path fill="none" stroke="#191970" d="M71.1657,-246.2188C83.4693,-221.5086 119.2995,-156.1853 169,-123 176.5064,-117.9879 185.2911,-114.2941 194.0623,-111.5729"/>
<polygon fill="#191970" stroke="#191970" points="195.1622,-114.9009 203.8907,-108.8955 193.3223,-108.147 195.1622,-114.9009"/>
</g>
<!-- Node8678 -->
<g id="node10" class="node">
<title>Node8678</title>
<g id="a_node10"><a xlink:href="email_2body_8c.html#a129af1c316fcbc26b55fb48957bab2cb" target="_top" xlink:title="Free a Body. ">
<polygon fill="#ffffff" stroke="#ff0000" points="192.5,-284.5 192.5,-303.5 286.5,-303.5 286.5,-284.5 192.5,-284.5"/>
<text text-anchor="middle" x="239.5" y="-291.5" font-family="Helvetica,sans-Serif" font-size="10.00" fill="#000000">mutt_body_free</text>
</a>
</g>
</g>
<!-- Node8512&#45;&gt;Node8678 -->
<g id="edge14" class="edge">
<title>Node8512&#45;&gt;Node8678</title>
<path fill="none" stroke="#191970" d="M110.1552,-265.589C133.2929,-270.6713 161.9024,-276.9554 186.3268,-282.3203"/>
<polygon fill="#191970" stroke="#191970" points="185.6406,-285.753 196.1587,-284.4799 187.1425,-278.916 185.6406,-285.753"/>
</g>
<!-- Node8679 -->
<g id="node11" class="node">
<title>Node8679</title>
<g id="a_node11"><a xlink:href="email_2email_8c.html#ae9f719d3fc31d00b92bcf9f77d56ee67" target="_top" xlink:title="Free an Email. ">
<polygon fill="#ffffff" stroke="#ff0000" points="376.5,-284.5 376.5,-303.5 445.5,-303.5 445.5,-284.5 376.5,-284.5"/>
<text text-anchor="middle" x="411" y="-291.5" font-family="Helvetica,sans-Serif" font-size="10.00" fill="#000000">email_free</text>
</a>
</g>
</g>
<!-- Node8512&#45;&gt;Node8679 -->
<g id="edge21" class="edge">
<title>Node8512&#45;&gt;Node8679</title>
<path fill="none" stroke="#191970" d="M133.1049,-259.2514C182.1607,-262.1184 250.4162,-267.0945 310,-275 328.4818,-277.4521 348.7032,-281.068 366.1649,-284.489"/>
<polygon fill="#191970" stroke="#191970" points="365.6015,-287.9455 376.0931,-286.4705 366.9716,-281.0809 365.6015,-287.9455"/>
</g>
<!-- Node8687 -->
<g id="node12" class="node">
<title>Node8687</title>
<g id="a_node12"><a xlink:href="parse_8c.html#adcc90fb584fec1be116777c533e9b3d4" target="_top" xlink:title="Determine if a mime type matches a message or not. ">
<polygon fill="#ffffff" stroke="#000000" points="346,-492.5 346,-511.5 476,-511.5 476,-492.5 346,-492.5"/>
<text text-anchor="middle" x="411" y="-499.5" font-family="Helvetica,sans-Serif" font-size="10.00" fill="#000000">mutt_is_message_type</text>
</a>
</g>
</g>
<!-- Node8512&#45;&gt;Node8687 -->
<g id="edge19" class="edge">
<title>Node8512&#45;&gt;Node8687</title>
<path fill="none" stroke="#191970" d="M67.621,-265.6752C72.2875,-301.0839 93.6023,-424.338 169,-478 218.8227,-513.4598 289.7367,-516.4765 341.9257,-512.411"/>
<polygon fill="#191970" stroke="#191970" points="342.4493,-515.8784 352.1021,-511.511 341.8326,-508.9057 342.4493,-515.8784"/>
</g>
<!-- Node8688 -->
<g id="node13" class="node">
<title>Node8688</title>
<g id="a_node13"><a xlink:href="parse_8c.html#a0b38ac4f44b3414d0e18d26324861369" target="_top" xlink:title="Parse a MIME part. ">
<polygon fill="#ffffff" stroke="#ff0000" points="191,-56.5 191,-75.5 288,-75.5 288,-56.5 191,-56.5"/>
<text text-anchor="middle" x="239.5" y="-63.5" font-family="Helvetica,sans-Serif" font-size="10.00" fill="#000000">mutt_parse_part</text>
</a>
</g>
</g>
<!-- Node8512&#45;&gt;Node8688 -->
<g id="edge22" class="edge">
<title>Node8512&#45;&gt;Node8688</title>
<path fill="none" stroke="#191970" d="M69.4865,-246.0873C78.8822,-216.6441 110.7293,-129.025 169,-85 172.8434,-82.0962 177.0991,-79.6359 181.5601,-77.5513"/>
<polygon fill="#191970" stroke="#191970" points="182.9677,-80.7577 190.9389,-73.7784 180.3552,-74.2635 182.9677,-80.7577"/>
</g>
<!-- Node9184 -->
<g id="node14" class="node">
<title>Node9184</title>
<g id="a_node14"><a xlink:href="crypt_8c.html#a5e4ae065a8097991260c5437f1963624" target="_top" xlink:title="Check out the type of encryption used. ">
<polygon fill="#ffffff" stroke="#ff0000" points="202.5,-.5 202.5,-19.5 276.5,-19.5 276.5,-.5 202.5,-.5"/>
<text text-anchor="middle" x="239.5" y="-7.5" font-family="Helvetica,sans-Serif" font-size="10.00" fill="#000000">crypt_query</text>
</a>
</g>
</g>
<!-- Node8512&#45;&gt;Node9184 -->
<g id="edge23" class="edge">
<title>Node8512&#45;&gt;Node9184</title>
<path fill="none" stroke="#191970" d="M68.8825,-246.4266C77.2939,-214.3627 108.406,-109.274 169,-47 178.4318,-37.3067 190.9524,-29.6181 202.823,-23.8178"/>
<polygon fill="#191970" stroke="#191970" points="204.4883,-26.905 212.1321,-19.5686 201.5816,-20.537 204.4883,-26.905"/>
</g>
<!-- Node8513&#45;&gt;Node8514 -->
<g id="edge2" class="edge">
<title>Node8513&#45;&gt;Node8514</title>
<path fill="none" stroke="#191970" d="M460.1154,-432.3267C473.3381,-434.03 487.7545,-435.887 501.3731,-437.6413"/>
<polygon fill="#191970" stroke="#191970" points="501.2337,-441.1522 511.5989,-438.9585 502.128,-434.2095 501.2337,-441.1522"/>
</g>
<!-- Node8517&#45;&gt;Node8516 -->
<g id="edge5" class="edge">
<title>Node8517&#45;&gt;Node8516</title>
<path fill="none" stroke="#191970" d="M283.2204,-184.8437C305.9713,-187.3642 333.9663,-190.4657 357.9481,-193.1225"/>
<polygon fill="#191970" stroke="#191970" points="357.6287,-196.6085 367.9533,-194.231 358.3996,-189.651 357.6287,-196.6085"/>
</g>
<!-- Node8520&#45;&gt;Node8513 -->
<g id="edge9" class="edge">
<title>Node8520&#45;&gt;Node8513</title>
<path fill="none" stroke="#191970" d="M282.7767,-397.589C305.6119,-402.6487 333.8232,-408.8996 357.9648,-414.2488"/>
<polygon fill="#191970" stroke="#191970" points="357.5141,-417.7337 368.0345,-416.4799 359.0285,-410.8995 357.5141,-417.7337"/>
</g>
<!-- Node8520&#45;&gt;Node8514 -->
<g id="edge10" class="edge">
<title>Node8520&#45;&gt;Node8514</title>
<path fill="none" stroke="#191970" d="M310.1694,-387.246C357.7457,-388.2951 421.5052,-392.7421 476,-407 495.9612,-412.2226 517.0693,-422.0334 532.9375,-430.3779"/>
<polygon fill="#191970" stroke="#191970" points="531.6232,-433.6464 542.0834,-435.33 534.9562,-427.4908 531.6232,-433.6464"/>
</g>
<!-- Node8520&#45;&gt;Node8518 -->
<g id="edge8" class="edge">
<title>Node8520&#45;&gt;Node8518</title>
<path fill="none" stroke="#191970" d="M282.7767,-378.411C305.6119,-373.3513 333.8232,-367.1004 357.9648,-361.7512"/>
<polygon fill="#191970" stroke="#191970" points="359.0285,-365.1005 368.0345,-359.5201 357.5141,-358.2663 359.0285,-365.1005"/>
</g>
<!-- Node8678&#45;&gt;Node8518 -->
<g id="edge15" class="edge">
<title>Node8678&#45;&gt;Node8518</title>
<path fill="none" stroke="#191970" d="M268.9819,-303.6267C297.4997,-312.9387 340.8833,-327.1047 372.195,-337.329"/>
<polygon fill="#191970" stroke="#191970" points="371.3103,-340.7219 381.9028,-340.4989 373.4832,-334.0677 371.3103,-340.7219"/>
</g>
<!-- Node8678&#45;&gt;Node8678 -->
<g id="edge18" class="edge">
<title>Node8678&#45;&gt;Node8678</title>
<path fill="none" stroke="#191970" d="M213.2981,-303.7571C200.5512,-312.5653 209.2852,-322 239.5,-322 259.8006,-322 270.4044,-317.741 271.3114,-312.2746"/>
<polygon fill="#191970" stroke="#191970" points="274.1252,-310.1836 265.7019,-303.7571 268.2791,-314.0337 274.1252,-310.1836"/>
</g>
<!-- Node8678&#45;&gt;Node8679 -->
<g id="edge16" class="edge">
<title>Node8678&#45;&gt;Node8679</title>
<path fill="none" stroke="#191970" d="M286.8171,-287.8928C311.6285,-287.0046 341.8526,-287.0369 366.2708,-287.9896"/>
<polygon fill="#191970" stroke="#191970" points="366.197,-291.4898 376.3476,-288.4542 366.5195,-284.4972 366.197,-291.4898"/>
</g>
<!-- Node8679&#45;&gt;Node8678 -->
<g id="edge17" class="edge">
<title>Node8679&#45;&gt;Node8678</title>
<path fill="none" stroke="#191970" d="M376.3476,-299.5458C353.6159,-300.7723 323.343,-301.0619 297.0503,-300.4145"/>
<polygon fill="#191970" stroke="#191970" points="296.9177,-296.9091 286.8171,-300.1072 296.7075,-303.9059 296.9177,-296.9091"/>
</g>
<!-- Node8687&#45;&gt;Node8514 -->
<g id="edge20" class="edge">
<title>Node8687&#45;&gt;Node8514</title>
<path fill="none" stroke="#191970" d="M437.3102,-492.4672C449.1611,-488.1267 463.3125,-482.8788 476,-478 492.4176,-471.6869 510.577,-464.4508 525.6696,-458.3664"/>
<polygon fill="#191970" stroke="#191970" points="527.1364,-461.5487 535.0956,-454.5557 524.5127,-455.059 527.1364,-461.5487"/>
</g>
<!-- Node9184&#45;&gt;Node9184 -->
<g id="edge24" class="edge">
<title>Node9184&#45;&gt;Node9184</title>
<path fill="none" stroke="#191970" d="M213.2981,-19.7571C200.5512,-28.5653 209.2852,-38 239.5,-38 259.8006,-38 270.4044,-33.741 271.3114,-28.2746"/>
<polygon fill="#191970" stroke="#191970" points="274.1252,-26.1836 265.7019,-19.7571 268.2791,-30.0337 274.1252,-26.1836"/>
</g>
</g>
</svg>
