<?xml version="1.0" encoding="UTF-8" standalone="no"?>
<!DOCTYPE svg PUBLIC "-//W3C//DTD SVG 1.1//EN"
 "http://www.w3.org/Graphics/SVG/1.1/DTD/svg11.dtd">
<!-- Generated by graphviz version 2.40.1 (20161225.0304)
 -->
<!-- Title: mutt_pipe_message Pages: 1 -->
<svg width="302pt" height="180pt"
 viewBox="0.00 0.00 302.00 180.00" xmlns="http://www.w3.org/2000/svg" xmlns:xlink="http://www.w3.org/1999/xlink">
<g id="graph0" class="graph" transform="scale(1 1) rotate(0) translate(4 176)">
<title>mutt_pipe_message</title>
<polygon fill="#ffffff" stroke="transparent" points="-4,4 -4,-176 298,-176 298,4 -4,4"/>
<!-- Node5814 -->
<g id="node1" class="node">
<title>Node5814</title>
<polygon fill="#bfbfbf" stroke="#000000" points="0,-76.5 0,-95.5 116,-95.5 116,-76.5 0,-76.5"/>
<text text-anchor="middle" x="58" y="-83.5" font-family="Helvetica,sans-Serif" font-size="10.00" fill="#000000">mutt_pipe_message</text>
</g>
<!-- Node5815 -->
<g id="node2" class="node">
<title>Node5815</title>
<g id="a_node2"><a xlink:href="pool_8c.html#a2129d5ea0085753afdd37cf62161845d" target="_top" xlink:title="Get a Buffer from the pool. ">
<polygon fill="#ffffff" stroke="#ff0000" points="162.5,-152.5 162.5,-171.5 283.5,-171.5 283.5,-152.5 162.5,-152.5"/>
<text text-anchor="middle" x="223" y="-159.5" font-family="Helvetica,sans-Serif" font-size="10.00" fill="#000000">mutt_buffer_pool_get</text>
</a>
</g>
</g>
<!-- Node5814&#45;&gt;Node5815 -->
<g id="edge1" class="edge">
<title>Node5814&#45;&gt;Node5815</title>
<path fill="none" stroke="#191970" d="M71.0503,-95.5715C88.6338,-108.0693 121.28,-129.8925 152,-143 157.6995,-145.4318 163.7916,-147.6248 169.9222,-149.5819"/>
<polygon fill="#191970" stroke="#191970" points="168.953,-152.9452 179.5369,-152.4638 170.9629,-146.2399 168.953,-152.9452"/>
</g>
<!-- Node5823 -->
<g id="node3" class="node">
<title>Node5823</title>
<g id="a_node3"><a xlink:href="buffer_8c.html#a6929443fb5515bb2ab749f84769d9cc7" target="_top" xlink:title="Calculate the length of a Buffer. ">
<polygon fill="#ffffff" stroke="#000000" points="176,-114.5 176,-133.5 270,-133.5 270,-114.5 176,-114.5"/>
<text text-anchor="middle" x="223" y="-121.5" font-family="Helvetica,sans-Serif" font-size="10.00" fill="#000000">mutt_buffer_len</text>
</a>
</g>
</g>
<!-- Node5814&#45;&gt;Node5823 -->
<g id="edge2" class="edge">
<title>Node5814&#45;&gt;Node5823</title>
<path fill="none" stroke="#191970" d="M99.6365,-95.589C121.5081,-100.6261 148.506,-106.8438 171.6636,-112.1771"/>
<polygon fill="#191970" stroke="#191970" points="171.1325,-115.6463 181.6629,-114.4799 172.7036,-108.8249 171.1325,-115.6463"/>
</g>
<!-- Node5824 -->
<g id="node4" class="node">
<title>Node5824</title>
<g id="a_node4"><a xlink:href="muttlib_8c.html#a21df22e3d202586bf463caf3c9e718cc" target="_top" xlink:title="Create the canonical path. ">
<polygon fill="#ffffff" stroke="#ff0000" points="152,-76.5 152,-95.5 294,-95.5 294,-76.5 152,-76.5"/>
<text text-anchor="middle" x="223" y="-83.5" font-family="Helvetica,sans-Serif" font-size="10.00" fill="#000000">mutt_buffer_expand_path</text>
</a>
</g>
</g>
<!-- Node5814&#45;&gt;Node5824 -->
<g id="edge3" class="edge">
<title>Node5814&#45;&gt;Node5824</title>
<path fill="none" stroke="#191970" d="M116.1728,-86C124.442,-86 133.0694,-86 141.6795,-86"/>
<polygon fill="#191970" stroke="#191970" points="141.7568,-89.5001 151.7568,-86 141.7568,-82.5001 141.7568,-89.5001"/>
</g>
<!-- Node6717 -->
<g id="node5" class="node">
<title>Node6717</title>
<g id="a_node5"><a xlink:href="commands_8c.html#af6b7cf574e3369a8f6e91472c9f81411" target="_top" xlink:title="Pipe message to a command. ">
<polygon fill="#ffffff" stroke="#ff0000" points="179.5,-38.5 179.5,-57.5 266.5,-57.5 266.5,-38.5 179.5,-38.5"/>
<text text-anchor="middle" x="223" y="-45.5" font-family="Helvetica,sans-Serif" font-size="10.00" fill="#000000">pipe_message</text>
</a>
</g>
</g>
<!-- Node5814&#45;&gt;Node6717 -->
<g id="edge4" class="edge">
<title>Node5814&#45;&gt;Node6717</title>
<path fill="none" stroke="#191970" d="M99.6365,-76.411C121.5081,-71.3739 148.506,-65.1562 171.6636,-59.8229"/>
<polygon fill="#191970" stroke="#191970" points="172.7036,-63.1751 181.6629,-57.5201 171.1325,-56.3537 172.7036,-63.1751"/>
</g>
<!-- Node5869 -->
<g id="node6" class="node">
<title>Node5869</title>
<g id="a_node6"><a xlink:href="pool_8c.html#a08b48e2ac8849341888ee7429cc5093c" target="_top" xlink:title="Free a Buffer from the pool. ">
<polygon fill="#ffffff" stroke="#ff0000" points="152.5,-.5 152.5,-19.5 293.5,-19.5 293.5,-.5 152.5,-.5"/>
<text text-anchor="middle" x="223" y="-7.5" font-family="Helvetica,sans-Serif" font-size="10.00" fill="#000000">mutt_buffer_pool_release</text>
</a>
</g>
</g>
<!-- Node5814&#45;&gt;Node5869 -->
<g id="edge5" class="edge">
<title>Node5814&#45;&gt;Node5869</title>
<path fill="none" stroke="#191970" d="M71.0503,-76.4285C88.6338,-63.9307 121.28,-42.1075 152,-29 157.6995,-26.5682 163.7916,-24.3752 169.9222,-22.4181"/>
<polygon fill="#191970" stroke="#191970" points="170.9629,-25.7601 179.5369,-19.5362 168.953,-19.0548 170.9629,-25.7601"/>
</g>
</g>
</svg>
