<?xml version="1.0" encoding="UTF-8" standalone="no"?>
<!DOCTYPE svg PUBLIC "-//W3C//DTD SVG 1.1//EN"
 "http://www.w3.org/Graphics/SVG/1.1/DTD/svg11.dtd">
<!-- Generated by graphviz version 2.44.0 (0)
 -->
<!-- Title: parse_replace_list Pages: 1 -->
<svg width="377pt" height="140pt"
 viewBox="0.00 0.00 377.00 139.52" xmlns="http://www.w3.org/2000/svg" xmlns:xlink="http://www.w3.org/1999/xlink">
<g id="graph0" class="graph" transform="scale(1 1) rotate(0) translate(4 135.52)">
<title>parse_replace_list</title>
<polygon fill="white" stroke="transparent" points="-4,4 -4,-135.52 373,-135.52 373,4 -4,4"/>
<!-- Node1 -->
<g id="node1" class="node">
<title>Node1</title>
<g id="a_node1"><a xlink:title="Parse a string replacement rule &#45; Implements Command::parse()">
<polygon fill="#bfbfbf" stroke="black" points="0,-57.5 0,-76.5 96,-76.5 96,-57.5 0,-57.5"/>
<text text-anchor="middle" x="48" y="-64.5" font-family="Helvetica" font-size="10.00">parse_replace_list</text>
</a>
</g>
</g>
<!-- Node2 -->
<g id="node2" class="node">
<title>Node2</title>
<g id="a_node2"><a xlink:href="buffer_8c.html#a0242aaa9a400d0722a99828776c0403b" target="_top" xlink:title="Make a new buffer on the stack.">
<polygon fill="white" stroke="red" points="275,-85.5 275,-104.5 369,-104.5 369,-85.5 275,-85.5"/>
<text text-anchor="middle" x="322" y="-92.5" font-family="Helvetica" font-size="10.00">mutt_buffer_make</text>
</a>
</g>
</g>
<!-- Node1&#45;&gt;Node2 -->
<g id="edge1" class="edge">
<title>Node1&#45;&gt;Node2</title>
<path fill="none" stroke="midnightblue" d="M59.18,-76.91C73.84,-90.41 102.41,-113.95 132,-123 177.48,-136.91 192.09,-130.79 239,-123 256.29,-120.13 274.82,-114.07 289.88,-108.33"/>
<polygon fill="midnightblue" stroke="midnightblue" points="291.22,-111.56 299.24,-104.63 288.65,-105.05 291.22,-111.56"/>
</g>
<!-- Node5 -->
<g id="node3" class="node">
<title>Node5</title>
<g id="a_node3"><a xlink:href="buffer_8c.html#ad057ee239ae5bcfd72cab3749036ab02" target="_top" xlink:title="Format a string overwriting a Buffer.">
<polygon fill="white" stroke="red" points="276,-28.5 276,-47.5 368,-47.5 368,-28.5 276,-28.5"/>
<text text-anchor="middle" x="322" y="-35.5" font-family="Helvetica" font-size="10.00">mutt_buffer_printf</text>
</a>
</g>
</g>
<!-- Node1&#45;&gt;Node5 -->
<g id="edge2" class="edge">
<title>Node1&#45;&gt;Node5</title>
<path fill="none" stroke="midnightblue" d="M96.07,-61.98C143.3,-56.95 216,-49.19 265.89,-43.88"/>
<polygon fill="midnightblue" stroke="midnightblue" points="266.29,-47.35 275.86,-42.81 265.55,-40.39 266.29,-47.35"/>
</g>
<!-- Node11 -->
<g id="node4" class="node">
<title>Node11</title>
<g id="a_node4"><a xlink:href="init_8c.html#a0c8965a76cc79c02268a42a859968bcb" target="_top" xlink:title="Extract one token from a string.">
<polygon fill="white" stroke="red" points="135.5,-76.5 135.5,-95.5 235.5,-95.5 235.5,-76.5 135.5,-76.5"/>
<text text-anchor="middle" x="185.5" y="-83.5" font-family="Helvetica" font-size="10.00">mutt_extract_token</text>
</a>
</g>
</g>
<!-- Node1&#45;&gt;Node11 -->
<g id="edge3" class="edge">
<title>Node1&#45;&gt;Node11</title>
<path fill="none" stroke="midnightblue" d="M96.01,-73.59C105.43,-74.91 115.44,-76.32 125.21,-77.69"/>
<polygon fill="midnightblue" stroke="midnightblue" points="124.88,-81.17 135.27,-79.1 125.85,-74.24 124.88,-81.17"/>
</g>
<!-- Node192 -->
<g id="node5" class="node">
<title>Node192</title>
<g id="a_node5"><a xlink:href="mutt_2regex_8c.html#a7b0b955eaca9b1208ff025f30a98aef0" target="_top" xlink:title="Add a pattern and a template to a list.">
<polygon fill="white" stroke="red" points="132,-0.5 132,-19.5 239,-19.5 239,-0.5 132,-0.5"/>
<text text-anchor="middle" x="185.5" y="-7.5" font-family="Helvetica" font-size="10.00">mutt_replacelist_add</text>
</a>
</g>
</g>
<!-- Node1&#45;&gt;Node192 -->
<g id="edge6" class="edge">
<title>Node1&#45;&gt;Node192</title>
<path fill="none" stroke="midnightblue" d="M71.68,-57.46C93.76,-48.17 127.53,-33.96 152.37,-23.51"/>
<polygon fill="midnightblue" stroke="midnightblue" points="153.89,-26.68 161.75,-19.57 151.17,-20.22 153.89,-26.68"/>
</g>
<!-- Node11&#45;&gt;Node2 -->
<g id="edge4" class="edge">
<title>Node11&#45;&gt;Node2</title>
<path fill="none" stroke="midnightblue" d="M235.82,-89.3C245.18,-89.93 255.04,-90.59 264.6,-91.23"/>
<polygon fill="midnightblue" stroke="midnightblue" points="264.6,-94.73 274.82,-91.91 265.07,-87.75 264.6,-94.73"/>
</g>
<!-- Node11&#45;&gt;Node11 -->
<g id="edge5" class="edge">
<title>Node11&#45;&gt;Node11</title>
<path fill="none" stroke="midnightblue" d="M164.54,-95.76C154.34,-104.57 161.33,-114 185.5,-114 200.99,-114 209.42,-110.13 210.8,-105.03"/>
<polygon fill="midnightblue" stroke="midnightblue" points="213.87,-103.33 206.46,-95.76 207.53,-106.3 213.87,-103.33"/>
</g>
<!-- Node192&#45;&gt;Node5 -->
<g id="edge7" class="edge">
<title>Node192&#45;&gt;Node5</title>
<path fill="none" stroke="midnightblue" d="M232.41,-19.56C243.13,-21.79 254.66,-24.19 265.74,-26.5"/>
<polygon fill="midnightblue" stroke="midnightblue" points="265.25,-29.97 275.75,-28.58 266.67,-23.12 265.25,-29.97"/>
</g>
</g>
</svg>
