<?xml version="1.0" encoding="UTF-8" standalone="no"?>
<!DOCTYPE svg PUBLIC "-//W3C//DTD SVG 1.1//EN"
 "http://www.w3.org/Graphics/SVG/1.1/DTD/svg11.dtd">
<!-- Generated by graphviz version 2.40.1 (20161225.0304)
 -->
<!-- Title: parse_alternates Pages: 1 -->
<svg width="422pt" height="267pt"
 viewBox="0.00 0.00 422.00 267.00" xmlns="http://www.w3.org/2000/svg" xmlns:xlink="http://www.w3.org/1999/xlink">
<g id="graph0" class="graph" transform="scale(1 1) rotate(0) translate(4 263)">
<title>parse_alternates</title>
<polygon fill="#ffffff" stroke="transparent" points="-4,4 -4,-263 418,-263 418,4 -4,4"/>
<!-- Node0 -->
<g id="node1" class="node">
<title>Node0</title>
<polygon fill="#bfbfbf" stroke="#000000" points="0,-126.5 0,-145.5 98,-145.5 98,-126.5 0,-126.5"/>
<text text-anchor="middle" x="49" y="-133.5" font-family="Helvetica,sans-Serif" font-size="10.00" fill="#000000">parse_alternates</text>
</g>
<!-- Node1 -->
<g id="node2" class="node">
<title>Node1</title>
<g id="a_node2"><a xlink:href="init_8c.html#a0c8965a76cc79c02268a42a859968bcb" target="_top" xlink:title="Extract one token from a string. ">
<polygon fill="#ffffff" stroke="#ff0000" points="301,-221.5 301,-240.5 414,-240.5 414,-221.5 301,-221.5"/>
<text text-anchor="middle" x="357.5" y="-228.5" font-family="Helvetica,sans-Serif" font-size="10.00" fill="#000000">mutt_extract_token</text>
</a>
</g>
</g>
<!-- Node0&#45;&gt;Node1 -->
<g id="edge1" class="edge">
<title>Node0&#45;&gt;Node1</title>
<path fill="none" stroke="#191970" d="M53.9521,-145.6653C65.026,-166.0659 93.9967,-213.1141 134,-231 189.277,-255.7149 260.2107,-250.2989 307.1738,-242.3023"/>
<polygon fill="#191970" stroke="#191970" points="307.8884,-245.73 317.1088,-240.5113 306.6464,-238.8411 307.8884,-245.73"/>
</g>
<!-- Node52 -->
<g id="node3" class="node">
<title>Node52</title>
<g id="a_node3"><a xlink:href="command__parse_8c.html#a441b580ab90bd2bc9e1346bc82fd973c" target="_top" xlink:title="Parse a group context. ">
<polygon fill="#ffffff" stroke="#ff0000" points="153.5,-202.5 153.5,-221.5 245.5,-221.5 245.5,-202.5 153.5,-202.5"/>
<text text-anchor="middle" x="199.5" y="-209.5" font-family="Helvetica,sans-Serif" font-size="10.00" fill="#000000">parse_grouplist</text>
</a>
</g>
</g>
<!-- Node0&#45;&gt;Node52 -->
<g id="edge3" class="edge">
<title>Node0&#45;&gt;Node52</title>
<path fill="none" stroke="#191970" d="M60.6809,-145.5599C76.4481,-158.0449 105.822,-179.854 134,-193 138.9626,-195.3152 144.27,-197.4141 149.6356,-199.2991"/>
<polygon fill="#191970" stroke="#191970" points="148.7019,-202.6762 159.2946,-202.4619 150.8803,-196.0238 148.7019,-202.6762"/>
</g>
<!-- Node61 -->
<g id="node4" class="node">
<title>Node61</title>
<g id="a_node4"><a xlink:href="mutt_2regex_8c.html#a4fd9f92b6c20e595b9487f874cb75f02" target="_top" xlink:title="Remove a Regex from a list. ">
<polygon fill="#ffffff" stroke="#ff0000" points="134,-164.5 134,-183.5 265,-183.5 265,-164.5 134,-164.5"/>
<text text-anchor="middle" x="199.5" y="-171.5" font-family="Helvetica,sans-Serif" font-size="10.00" fill="#000000">mutt_regexlist_remove</text>
</a>
</g>
</g>
<!-- Node0&#45;&gt;Node61 -->
<g id="edge5" class="edge">
<title>Node0&#45;&gt;Node61</title>
<path fill="none" stroke="#191970" d="M86.9775,-145.589C106.6587,-150.5583 130.8907,-156.6767 151.8206,-161.9613"/>
<polygon fill="#191970" stroke="#191970" points="151.243,-165.4253 161.7956,-164.4799 152.9567,-158.6383 151.243,-165.4253"/>
</g>
<!-- Node64 -->
<g id="node5" class="node">
<title>Node64</title>
<g id="a_node5"><a xlink:href="mutt_2regex_8c.html#a305eb49ea76a2bc81bf89c1b5417c308" target="_top" xlink:title="Compile a regex string and add it to a list. ">
<polygon fill="#ffffff" stroke="#ff0000" points="144,-126.5 144,-145.5 255,-145.5 255,-126.5 144,-126.5"/>
<text text-anchor="middle" x="199.5" y="-133.5" font-family="Helvetica,sans-Serif" font-size="10.00" fill="#000000">mutt_regexlist_add</text>
</a>
</g>
</g>
<!-- Node0&#45;&gt;Node64 -->
<g id="edge6" class="edge">
<title>Node0&#45;&gt;Node64</title>
<path fill="none" stroke="#191970" d="M98.2793,-136C109.5511,-136 121.7089,-136 133.5544,-136"/>
<polygon fill="#191970" stroke="#191970" points="133.8536,-139.5001 143.8536,-136 133.8535,-132.5001 133.8536,-139.5001"/>
</g>
<!-- Node69 -->
<g id="node6" class="node">
<title>Node69</title>
<g id="a_node6"><a xlink:href="group_8c.html#a8b1dda79743b7552fd38c3097990bda2" target="_top" xlink:title="Add matching Addresses to a GroupList. ">
<polygon fill="#ffffff" stroke="#ff0000" points="144,-77 144,-107 255,-107 255,-77 144,-77"/>
<text text-anchor="start" x="152" y="-95" font-family="Helvetica,sans-Serif" font-size="10.00" fill="#000000">mutt_grouplist_add</text>
<text text-anchor="middle" x="199.5" y="-84" font-family="Helvetica,sans-Serif" font-size="10.00" fill="#000000">_regex</text>
</a>
</g>
</g>
<!-- Node0&#45;&gt;Node69 -->
<g id="edge7" class="edge">
<title>Node0&#45;&gt;Node69</title>
<path fill="none" stroke="#191970" d="M81.6563,-126.4527C98.2226,-121.6094 118.8955,-115.5654 138.2806,-109.898"/>
<polygon fill="#191970" stroke="#191970" points="139.3536,-113.2309 147.9696,-107.0654 137.3892,-106.5122 139.3536,-113.2309"/>
</g>
<!-- Node71 -->
<g id="node7" class="node">
<title>Node71</title>
<g id="a_node7"><a xlink:href="group_8c.html#ad8aea720f44ace0cc95bcf55548dcc9f" target="_top" xlink:title="Free a GroupList. ">
<polygon fill="#ffffff" stroke="#000000" points="134.5,-38.5 134.5,-57.5 264.5,-57.5 264.5,-38.5 134.5,-38.5"/>
<text text-anchor="middle" x="199.5" y="-45.5" font-family="Helvetica,sans-Serif" font-size="10.00" fill="#000000">mutt_grouplist_destroy</text>
</a>
</g>
</g>
<!-- Node0&#45;&gt;Node71 -->
<g id="edge8" class="edge">
<title>Node0&#45;&gt;Node71</title>
<path fill="none" stroke="#191970" d="M58.5758,-126.2629C73.4521,-111.6492 103.5808,-84.0517 134,-68 139.1198,-65.2984 144.6613,-62.901 150.279,-60.7898"/>
<polygon fill="#191970" stroke="#191970" points="151.445,-64.09 159.744,-57.5038 149.1492,-57.4771 151.445,-64.09"/>
</g>
<!-- Node72 -->
<g id="node8" class="node">
<title>Node72</title>
<g id="a_node8"><a xlink:href="mutt_2notify_8c.html#ade2f42f8e0d8a843e87816300799a8e1" target="_top" xlink:title="Send out a notification message. ">
<polygon fill="#ffffff" stroke="#ff0000" points="162.5,-.5 162.5,-19.5 236.5,-19.5 236.5,-.5 162.5,-.5"/>
<text text-anchor="middle" x="199.5" y="-7.5" font-family="Helvetica,sans-Serif" font-size="10.00" fill="#000000">notify_send</text>
</a>
</g>
</g>
<!-- Node0&#45;&gt;Node72 -->
<g id="edge9" class="edge">
<title>Node0&#45;&gt;Node72</title>
<path fill="none" stroke="#191970" d="M53.9343,-126.3602C65.1786,-105.3689 94.7937,-55.3023 134,-29 139.6814,-25.1885 146.135,-22.1297 152.7227,-19.6779"/>
<polygon fill="#191970" stroke="#191970" points="153.9862,-22.9469 162.3962,-16.5031 151.8034,-16.296 153.9862,-22.9469"/>
</g>
<!-- Node1&#45;&gt;Node1 -->
<g id="edge2" class="edge">
<title>Node1&#45;&gt;Node1</title>
<path fill="none" stroke="#191970" d="M333.1476,-240.7571C321.3005,-249.5653 329.418,-259 357.5,-259 375.9288,-259 385.7596,-254.9368 386.9924,-249.6539"/>
<polygon fill="#191970" stroke="#191970" points="389.8855,-247.665 381.8524,-240.7571 383.8243,-251.1668 389.8855,-247.665"/>
</g>
<!-- Node52&#45;&gt;Node1 -->
<g id="edge4" class="edge">
<title>Node52&#45;&gt;Node1</title>
<path fill="none" stroke="#191970" d="M245.6249,-217.5467C259.6862,-219.2376 275.4388,-221.1319 290.5845,-222.9532"/>
<polygon fill="#191970" stroke="#191970" points="290.5983,-226.48 300.9447,-224.199 291.4341,-219.5301 290.5983,-226.48"/>
</g>
</g>
</svg>
