<?xml version="1.0" encoding="UTF-8" standalone="no"?>
<!DOCTYPE svg PUBLIC "-//W3C//DTD SVG 1.1//EN"
 "http://www.w3.org/Graphics/SVG/1.1/DTD/svg11.dtd">
<!-- Generated by graphviz version 2.44.0 (0)
 -->
<!-- Title: mutt_edit_content_type Pages: 1 -->
<svg width="571pt" height="578pt"
 viewBox="0.00 0.00 571.00 578.00" xmlns="http://www.w3.org/2000/svg" xmlns:xlink="http://www.w3.org/1999/xlink">
<g id="graph0" class="graph" transform="scale(1 1) rotate(0) translate(4 574)">
<title>mutt_edit_content_type</title>
<polygon fill="white" stroke="transparent" points="-4,4 -4,-574 567,-574 567,4 -4,4"/>
<!-- Node1 -->
<g id="node1" class="node">
<title>Node1</title>
<g id="a_node1"><a xlink:title="Edit the content type of an attachment.">
<polygon fill="#bfbfbf" stroke="black" points="0,-247.5 0,-266.5 119,-266.5 119,-247.5 0,-247.5"/>
<text text-anchor="middle" x="59.5" y="-254.5" font-family="Helvetica" font-size="10.00">mutt_edit_content_type</text>
</a>
</g>
</g>
<!-- Node2 -->
<g id="node2" class="node">
<title>Node2</title>
<g id="a_node2"><a xlink:href="crypt_8c.html#a5e4ae065a8097991260c5437f1963624" target="_top" xlink:title="Check out the type of encryption used.">
<polygon fill="white" stroke="red" points="184.5,-532.5 184.5,-551.5 253.5,-551.5 253.5,-532.5 184.5,-532.5"/>
<text text-anchor="middle" x="219" y="-539.5" font-family="Helvetica" font-size="10.00">crypt_query</text>
</a>
</g>
</g>
<!-- Node1&#45;&gt;Node2 -->
<g id="edge1" class="edge">
<title>Node1&#45;&gt;Node2</title>
<path fill="none" stroke="midnightblue" d="M61.17,-266.55C64.3,-303.99 80.66,-442.41 155,-518 160.6,-523.69 167.68,-528.05 175.07,-531.39"/>
<polygon fill="midnightblue" stroke="midnightblue" points="173.91,-534.69 184.49,-535.09 176.47,-528.18 173.91,-534.69"/>
</g>
<!-- Node14 -->
<g id="node3" class="node">
<title>Node14</title>
<g id="a_node3"><a xlink:href="email_2email_8c.html#ae9f719d3fc31d00b92bcf9f77d56ee67" target="_top" xlink:title="Free an Email.">
<polygon fill="white" stroke="red" points="188,-456.5 188,-475.5 250,-475.5 250,-456.5 188,-456.5"/>
<text text-anchor="middle" x="219" y="-463.5" font-family="Helvetica" font-size="10.00">email_free</text>
</a>
</g>
</g>
<!-- Node1&#45;&gt;Node14 -->
<g id="edge3" class="edge">
<title>Node1&#45;&gt;Node14</title>
<path fill="none" stroke="midnightblue" d="M62.76,-266.56C70.37,-296.7 97.82,-390.7 155,-442 161.71,-448.02 170.08,-452.59 178.51,-456.04"/>
<polygon fill="midnightblue" stroke="midnightblue" points="177.38,-459.35 187.97,-459.47 179.76,-452.77 177.38,-459.35"/>
</g>
<!-- Node16 -->
<g id="node4" class="node">
<title>Node16</title>
<g id="a_node4"><a xlink:href="email_2body_8c.html#a129af1c316fcbc26b55fb48957bab2cb" target="_top" xlink:title="Free a Body.">
<polygon fill="white" stroke="red" points="336,-456.5 336,-475.5 420,-475.5 420,-456.5 336,-456.5"/>
<text text-anchor="middle" x="378" y="-463.5" font-family="Helvetica" font-size="10.00">mutt_body_free</text>
</a>
</g>
</g>
<!-- Node1&#45;&gt;Node16 -->
<g id="edge10" class="edge">
<title>Node1&#45;&gt;Node16</title>
<path fill="none" stroke="midnightblue" d="M60.96,-266.64C63.29,-303.08 76.97,-432.87 155,-485 213.74,-524.24 301.63,-497.83 347.2,-479.47"/>
<polygon fill="midnightblue" stroke="midnightblue" points="348.64,-482.66 356.52,-475.58 345.94,-476.2 348.64,-482.66"/>
</g>
<!-- Node23 -->
<g id="node5" class="node">
<title>Node23</title>
<g id="a_node5"><a xlink:href="parameter_8c.html#ade3b55d0262dc913be1e8307390514a0" target="_top" xlink:title="Free a ParameterList.">
<polygon fill="white" stroke="red" points="473,-418.5 473,-437.5 563,-437.5 563,-418.5 473,-418.5"/>
<text text-anchor="middle" x="518" y="-425.5" font-family="Helvetica" font-size="10.00">mutt_param_free</text>
</a>
</g>
</g>
<!-- Node1&#45;&gt;Node23 -->
<g id="edge15" class="edge">
<title>Node1&#45;&gt;Node23</title>
<path fill="none" stroke="midnightblue" d="M65.59,-266.82C77.75,-289.22 110.8,-344.24 155,-371 251.42,-429.38 387.76,-434.26 462.59,-431.72"/>
<polygon fill="midnightblue" stroke="midnightblue" points="462.87,-435.21 472.73,-431.32 462.6,-428.22 462.87,-435.21"/>
</g>
<!-- Node26 -->
<g id="node6" class="node">
<title>Node26</title>
<g id="a_node6"><a xlink:href="address_2address_8c.html#a5fc8a0b1e781c6e88f43f86d0ede02d2" target="_top" xlink:title="Copy a string and wrap it in quotes if it contains special characters.">
<polygon fill="white" stroke="black" points="179.5,-152.5 179.5,-171.5 258.5,-171.5 258.5,-152.5 179.5,-152.5"/>
<text text-anchor="middle" x="219" y="-159.5" font-family="Helvetica" font-size="10.00">mutt_addr_cat</text>
</a>
</g>
</g>
<!-- Node1&#45;&gt;Node26 -->
<g id="edge8" class="edge">
<title>Node1&#45;&gt;Node26</title>
<path fill="none" stroke="midnightblue" d="M71.15,-247.4C87.96,-232.63 122.12,-204.14 155,-186 162.29,-181.98 170.38,-178.34 178.28,-175.18"/>
<polygon fill="midnightblue" stroke="midnightblue" points="179.65,-178.41 187.75,-171.58 177.15,-171.87 179.65,-178.41"/>
</g>
<!-- Node27 -->
<g id="node7" class="node">
<title>Node27</title>
<g id="a_node7"><a xlink:href="mutt_2string_8c.html#ad20e00309de897a1e882fc7400335b83" target="_top" xlink:title="Copy a string into a buffer (guaranteeing NUL&#45;termination)">
<polygon fill="white" stroke="black" points="338.5,-171.5 338.5,-190.5 417.5,-190.5 417.5,-171.5 338.5,-171.5"/>
<text text-anchor="middle" x="378" y="-178.5" font-family="Helvetica" font-size="10.00">mutt_str_copy</text>
</a>
</g>
</g>
<!-- Node1&#45;&gt;Node27 -->
<g id="edge24" class="edge">
<title>Node1&#45;&gt;Node27</title>
<path fill="none" stroke="midnightblue" d="M84.67,-247.47C103.59,-240.28 130.67,-230.57 155,-224 213.72,-208.15 282.68,-195.73 327.97,-188.4"/>
<polygon fill="midnightblue" stroke="midnightblue" points="328.79,-191.82 338.11,-186.78 327.68,-184.9 328.79,-191.82"/>
</g>
<!-- Node28 -->
<g id="node8" class="node">
<title>Node28</title>
<g id="a_node8"><a xlink:href="curs__lib_8c.html#ab5fab29957531e6df60881531c22e907" target="_top" xlink:title="Ask the user for a string.">
<polygon fill="white" stroke="red" points="180,-114.5 180,-133.5 258,-133.5 258,-114.5 180,-114.5"/>
<text text-anchor="middle" x="219" y="-121.5" font-family="Helvetica" font-size="10.00">mutt_get_field</text>
</a>
</g>
</g>
<!-- Node1&#45;&gt;Node28 -->
<g id="edge11" class="edge">
<title>Node1&#45;&gt;Node28</title>
<path fill="none" stroke="midnightblue" d="M65.75,-247.43C78.24,-225.55 111.94,-171.57 155,-143 159.64,-139.92 164.8,-137.33 170.11,-135.14"/>
<polygon fill="midnightblue" stroke="midnightblue" points="171.55,-138.34 179.75,-131.64 169.16,-131.76 171.55,-138.34"/>
</g>
<!-- Node707 -->
<g id="node9" class="node">
<title>Node707</title>
<g id="a_node9"><a xlink:href="parse_8c.html#adcc90fb584fec1be116777c533e9b3d4" target="_top" xlink:title="Determine if a mime type matches a message or not.">
<polygon fill="white" stroke="black" points="319,-266.5 319,-285.5 437,-285.5 437,-266.5 319,-266.5"/>
<text text-anchor="middle" x="378" y="-273.5" font-family="Helvetica" font-size="10.00">mutt_is_message_type</text>
</a>
</g>
</g>
<!-- Node1&#45;&gt;Node707 -->
<g id="edge12" class="edge">
<title>Node1&#45;&gt;Node707</title>
<path fill="none" stroke="midnightblue" d="M119.29,-260.53C172.89,-263.75 252.09,-268.5 308.53,-271.89"/>
<polygon fill="midnightblue" stroke="midnightblue" points="308.6,-275.4 318.79,-272.51 309.02,-268.41 308.6,-275.4"/>
</g>
<!-- Node4 -->
<g id="node10" class="node">
<title>Node4</title>
<g id="a_node10"><a xlink:href="mutt_2string_8c.html#a29db81d6f5a7dd216cbea75ecf8a5885" target="_top" xlink:title="Compare two strings, ignoring case.">
<polygon fill="white" stroke="red" points="476.5,-285.5 476.5,-304.5 559.5,-304.5 559.5,-285.5 476.5,-285.5"/>
<text text-anchor="middle" x="518" y="-292.5" font-family="Helvetica" font-size="10.00">mutt_istr_equal</text>
</a>
</g>
</g>
<!-- Node1&#45;&gt;Node4 -->
<g id="edge14" class="edge">
<title>Node1&#45;&gt;Node4</title>
<path fill="none" stroke="midnightblue" d="M119.1,-249.12C193.91,-240.85 326.85,-232.17 437,-257 457,-261.51 477.87,-271.63 493.27,-280.29"/>
<polygon fill="midnightblue" stroke="midnightblue" points="491.7,-283.43 502.1,-285.43 495.22,-277.38 491.7,-283.43"/>
</g>
<!-- Node8 -->
<g id="node11" class="node">
<title>Node8</title>
<g id="a_node11"><a xlink:href="parameter_8c.html#a0c6d54a87e015a496c8dbecfcd4002c9" target="_top" xlink:title="Find a matching Parameter.">
<polygon fill="white" stroke="black" points="334.5,-304.5 334.5,-323.5 421.5,-323.5 421.5,-304.5 334.5,-304.5"/>
<text text-anchor="middle" x="378" y="-311.5" font-family="Helvetica" font-size="10.00">mutt_param_get</text>
</a>
</g>
</g>
<!-- Node1&#45;&gt;Node8 -->
<g id="edge16" class="edge">
<title>Node1&#45;&gt;Node8</title>
<path fill="none" stroke="midnightblue" d="M96.69,-266.59C114.22,-271.03 135.62,-276.17 155,-280 212.49,-291.38 278.99,-301.11 324.11,-307.21"/>
<polygon fill="midnightblue" stroke="midnightblue" points="323.87,-310.71 334.25,-308.57 324.8,-303.78 323.87,-310.71"/>
</g>
<!-- Node206 -->
<g id="node12" class="node">
<title>Node206</title>
<g id="a_node12"><a xlink:href="parse_8c.html#a44cbe20da647bd7112cf1f4857ad01a3" target="_top" xlink:title="Parse a content type.">
<polygon fill="white" stroke="red" points="155,-342.5 155,-361.5 283,-361.5 283,-342.5 155,-342.5"/>
<text text-anchor="middle" x="219" y="-349.5" font-family="Helvetica" font-size="10.00">mutt_parse_content_type</text>
</a>
</g>
</g>
<!-- Node1&#45;&gt;Node206 -->
<g id="edge18" class="edge">
<title>Node1&#45;&gt;Node206</title>
<path fill="none" stroke="midnightblue" d="M71.15,-266.6C87.96,-281.37 122.12,-309.86 155,-328 162.29,-332.02 170.38,-335.66 178.28,-338.82"/>
<polygon fill="midnightblue" stroke="midnightblue" points="177.15,-342.13 187.75,-342.42 179.65,-335.59 177.15,-342.13"/>
</g>
<!-- Node705 -->
<g id="node13" class="node">
<title>Node705</title>
<g id="a_node13"><a xlink:href="parse_8c.html#a0b38ac4f44b3414d0e18d26324861369" target="_top" xlink:title="Parse a MIME part.">
<polygon fill="white" stroke="red" points="174.5,-76.5 174.5,-95.5 263.5,-95.5 263.5,-76.5 174.5,-76.5"/>
<text text-anchor="middle" x="219" y="-83.5" font-family="Helvetica" font-size="10.00">mutt_parse_part</text>
</a>
</g>
</g>
<!-- Node1&#45;&gt;Node705 -->
<g id="edge22" class="edge">
<title>Node1&#45;&gt;Node705</title>
<path fill="none" stroke="midnightblue" d="M63.81,-247.12C73.38,-220.08 103.69,-144.31 155,-105 158.12,-102.61 161.55,-100.51 165.14,-98.68"/>
<polygon fill="midnightblue" stroke="midnightblue" points="166.56,-101.88 174.31,-94.65 163.75,-95.47 166.56,-101.88"/>
</g>
<!-- Node480 -->
<g id="node14" class="node">
<title>Node480</title>
<g id="a_node14"><a xlink:href="muttlib_8c.html#a6fbcbe533be7c4e05d99b0eb9cdb2581" target="_top" xlink:title="Sleep for a while.">
<polygon fill="white" stroke="black" points="186.5,-38.5 186.5,-57.5 251.5,-57.5 251.5,-38.5 186.5,-38.5"/>
<text text-anchor="middle" x="219" y="-45.5" font-family="Helvetica" font-size="10.00">mutt_sleep</text>
</a>
</g>
</g>
<!-- Node1&#45;&gt;Node480 -->
<g id="edge23" class="edge">
<title>Node1&#45;&gt;Node480</title>
<path fill="none" stroke="midnightblue" d="M62.43,-247.44C69.2,-216.46 94.76,-117.86 155,-67 161.2,-61.77 168.81,-57.97 176.57,-55.23"/>
<polygon fill="midnightblue" stroke="midnightblue" points="177.81,-58.51 186.38,-52.28 175.79,-51.8 177.81,-58.51"/>
</g>
<!-- Node443 -->
<g id="node15" class="node">
<title>Node443</title>
<g id="a_node15"><a xlink:href="curs__lib_8c.html#a67a4f6d2c21c9de420130089bb20505c" target="_top" xlink:title="Ask the user a Yes/No question.">
<polygon fill="white" stroke="red" points="181.5,-0.5 181.5,-19.5 256.5,-19.5 256.5,-0.5 181.5,-0.5"/>
<text text-anchor="middle" x="219" y="-7.5" font-family="Helvetica" font-size="10.00">mutt_yesorno</text>
</a>
</g>
</g>
<!-- Node1&#45;&gt;Node443 -->
<g id="edge25" class="edge">
<title>Node1&#45;&gt;Node443</title>
<path fill="none" stroke="midnightblue" d="M61.61,-247.08C66.09,-211.83 86.05,-91.38 155,-29 159.78,-24.67 165.52,-21.33 171.55,-18.75"/>
<polygon fill="midnightblue" stroke="midnightblue" points="172.96,-21.96 181.19,-15.29 170.6,-15.38 172.96,-21.96"/>
</g>
<!-- Node2&#45;&gt;Node2 -->
<g id="edge2" class="edge">
<title>Node2&#45;&gt;Node2</title>
<path fill="none" stroke="midnightblue" d="M194.65,-551.76C182.8,-560.57 190.92,-570 219,-570 237.43,-570 247.26,-565.94 248.49,-560.65"/>
<polygon fill="midnightblue" stroke="midnightblue" points="251.39,-558.66 243.35,-551.76 245.32,-562.17 251.39,-558.66"/>
</g>
<!-- Node14&#45;&gt;Node16 -->
<g id="edge4" class="edge">
<title>Node14&#45;&gt;Node16</title>
<path fill="none" stroke="midnightblue" d="M250.27,-460.54C271.65,-459.22 300.82,-458.91 325.79,-459.63"/>
<polygon fill="midnightblue" stroke="midnightblue" points="325.72,-463.13 335.84,-459.98 325.97,-456.13 325.72,-463.13"/>
</g>
<!-- Node16&#45;&gt;Node14 -->
<g id="edge5" class="edge">
<title>Node16&#45;&gt;Node14</title>
<path fill="none" stroke="midnightblue" d="M335.84,-472.02C312.57,-473 283.6,-472.99 260.46,-471.99"/>
<polygon fill="midnightblue" stroke="midnightblue" points="260.44,-468.48 250.27,-471.46 260.08,-475.47 260.44,-468.48"/>
</g>
<!-- Node16&#45;&gt;Node16 -->
<g id="edge6" class="edge">
<title>Node16&#45;&gt;Node16</title>
<path fill="none" stroke="midnightblue" d="M356.42,-475.76C345.92,-484.57 353.12,-494 378,-494 393.94,-494 402.62,-490.13 404.04,-485.03"/>
<polygon fill="midnightblue" stroke="midnightblue" points="407.07,-483.25 399.58,-475.76 400.76,-486.29 407.07,-483.25"/>
</g>
<!-- Node16&#45;&gt;Node23 -->
<g id="edge7" class="edge">
<title>Node16&#45;&gt;Node23</title>
<path fill="none" stroke="midnightblue" d="M413.82,-456.41C431.64,-451.51 453.52,-445.48 472.54,-440.24"/>
<polygon fill="midnightblue" stroke="midnightblue" points="473.48,-443.62 482.19,-437.59 471.62,-436.87 473.48,-443.62"/>
</g>
<!-- Node26&#45;&gt;Node27 -->
<g id="edge9" class="edge">
<title>Node26&#45;&gt;Node27</title>
<path fill="none" stroke="midnightblue" d="M258.81,-166.7C279.83,-169.24 306.01,-172.41 328.39,-175.12"/>
<polygon fill="midnightblue" stroke="midnightblue" points="328.02,-178.6 338.37,-176.32 328.86,-171.65 328.02,-178.6"/>
</g>
<!-- Node707&#45;&gt;Node4 -->
<g id="edge13" class="edge">
<title>Node707&#45;&gt;Node4</title>
<path fill="none" stroke="midnightblue" d="M437.12,-284C446.75,-285.33 456.67,-286.69 466.1,-287.99"/>
<polygon fill="midnightblue" stroke="midnightblue" points="465.73,-291.47 476.11,-289.37 466.68,-284.54 465.73,-291.47"/>
</g>
<!-- Node8&#45;&gt;Node4 -->
<g id="edge17" class="edge">
<title>Node8&#45;&gt;Node4</title>
<path fill="none" stroke="midnightblue" d="M421.53,-308.14C435.69,-306.2 451.59,-304.01 466.31,-301.98"/>
<polygon fill="midnightblue" stroke="midnightblue" points="466.83,-305.44 476.26,-300.61 465.88,-298.51 466.83,-305.44"/>
</g>
<!-- Node206&#45;&gt;Node23 -->
<g id="edge20" class="edge">
<title>Node206&#45;&gt;Node23</title>
<path fill="none" stroke="midnightblue" d="M257.31,-361.55C311.22,-375.34 410.85,-400.84 469.8,-415.92"/>
<polygon fill="midnightblue" stroke="midnightblue" points="469.05,-419.34 479.6,-418.43 470.78,-412.56 469.05,-419.34"/>
</g>
<!-- Node206&#45;&gt;Node4 -->
<g id="edge19" class="edge">
<title>Node206&#45;&gt;Node4</title>
<path fill="none" stroke="midnightblue" d="M283.24,-352.35C327.09,-351.17 386.46,-346.74 437,-333 456.41,-327.72 476.88,-317.91 492.25,-309.58"/>
<polygon fill="midnightblue" stroke="midnightblue" points="494.08,-312.57 501.11,-304.64 490.67,-306.46 494.08,-312.57"/>
</g>
<!-- Node206&#45;&gt;Node8 -->
<g id="edge21" class="edge">
<title>Node206&#45;&gt;Node8</title>
<path fill="none" stroke="midnightblue" d="M259.62,-342.41C280.34,-337.4 305.89,-331.21 327.86,-325.89"/>
<polygon fill="midnightblue" stroke="midnightblue" points="328.77,-329.27 337.67,-323.52 327.12,-322.47 328.77,-329.27"/>
</g>
</g>
</svg>
