<?xml version="1.0" encoding="UTF-8" standalone="no"?>
<!DOCTYPE svg PUBLIC "-//W3C//DTD SVG 1.1//EN"
 "http://www.w3.org/Graphics/SVG/1.1/DTD/svg11.dtd">
<!-- Generated by graphviz version 2.40.1 (20161225.0304)
 -->
<!-- Title: cmd_parse_exists Pages: 1 -->
<svg width="257pt" height="66pt"
 viewBox="0.00 0.00 257.00 66.00" xmlns="http://www.w3.org/2000/svg" xmlns:xlink="http://www.w3.org/1999/xlink">
<g id="graph0" class="graph" transform="scale(1 1) rotate(0) translate(4 62)">
<title>cmd_parse_exists</title>
<polygon fill="#ffffff" stroke="transparent" points="-4,4 -4,-62 253,-62 253,4 -4,4"/>
<!-- Node10303 -->
<g id="node1" class="node">
<title>Node10303</title>
<polygon fill="#bfbfbf" stroke="#000000" points="0,-19.5 0,-38.5 104,-38.5 104,-19.5 0,-19.5"/>
<text text-anchor="middle" x="52" y="-26.5" font-family="Helvetica,sans-Serif" font-size="10.00" fill="#000000">cmd_parse_exists</text>
</g>
<!-- Node10304 -->
<g id="node2" class="node">
<title>Node10304</title>
<g id="a_node2"><a xlink:href="mutt_2string_8c.html#a51fd18afc9cc0ca92840d8653180538c" target="_top" xlink:title="Convert ASCII string to an unsigned integer. ">
<polygon fill="#ffffff" stroke="#ff0000" points="150.5,-38.5 150.5,-57.5 238.5,-57.5 238.5,-38.5 150.5,-38.5"/>
<text text-anchor="middle" x="194.5" y="-45.5" font-family="Helvetica,sans-Serif" font-size="10.00" fill="#000000">mutt_str_atoui</text>
</a>
</g>
</g>
<!-- Node10303&#45;&gt;Node10304 -->
<g id="edge1" class="edge">
<title>Node10303&#45;&gt;Node10304</title>
<path fill="none" stroke="#191970" d="M104.2526,-35.967C115.9254,-37.5234 128.3322,-39.1776 140.0899,-40.7453"/>
<polygon fill="#191970" stroke="#191970" points="139.8458,-44.2437 150.2206,-42.0961 140.771,-37.3051 139.8458,-44.2437"/>
</g>
<!-- Node10306 -->
<g id="node3" class="node">
<title>Node10306</title>
<g id="a_node3"><a xlink:href="msn_8c.html#a97778327c51e0f2d854312ac49c910a8" target="_top" xlink:title="Return the highest MSN in use. ">
<polygon fill="#ffffff" stroke="#000000" points="140,-.5 140,-19.5 249,-19.5 249,-.5 140,-.5"/>
<text text-anchor="middle" x="194.5" y="-7.5" font-family="Helvetica,sans-Serif" font-size="10.00" fill="#000000">imap_msn_highest</text>
</a>
</g>
</g>
<!-- Node10303&#45;&gt;Node10306 -->
<g id="edge2" class="edge">
<title>Node10303&#45;&gt;Node10306</title>
<path fill="none" stroke="#191970" d="M104.2526,-22.033C112.588,-20.9216 121.2977,-19.7603 129.878,-18.6163"/>
<polygon fill="#191970" stroke="#191970" points="130.4114,-22.0762 139.861,-17.2852 129.4862,-15.1376 130.4114,-22.0762"/>
</g>
</g>
</svg>
