<?xml version="1.0" encoding="UTF-8" standalone="no"?>
<!DOCTYPE svg PUBLIC "-//W3C//DTD SVG 1.1//EN"
 "http://www.w3.org/Graphics/SVG/1.1/DTD/svg11.dtd">
<!-- Generated by graphviz version 2.44.0 (0)
 -->
<!-- Title: snd_make_entry Pages: 1 -->
<svg width="373pt" height="122pt"
 viewBox="0.00 0.00 373.00 122.00" xmlns="http://www.w3.org/2000/svg" xmlns:xlink="http://www.w3.org/1999/xlink">
<g id="graph0" class="graph" transform="scale(1 1) rotate(0) translate(4 118)">
<title>snd_make_entry</title>
<polygon fill="white" stroke="transparent" points="-4,4 -4,-118 369,-118 369,4 -4,4"/>
<!-- Node1 -->
<g id="node1" class="node">
<title>Node1</title>
<g id="a_node1"><a xlink:title="Format a menu item for the attachment list &#45; Implements Menu::make_entry()">
<polygon fill="#bfbfbf" stroke="black" points="0,-38.5 0,-57.5 89,-57.5 89,-38.5 0,-38.5"/>
<text text-anchor="middle" x="44.5" y="-45.5" font-family="Helvetica" font-size="10.00">snd_make_entry</text>
</a>
</g>
</g>
<!-- Node2 -->
<g id="node2" class="node">
<title>Node2</title>
<g id="a_node2"><a xlink:href="recvattach_8c.html#a15aa67845d7281e3b5263c24dcf75d0c" target="_top" xlink:title="Format a string for the attachment menu &#45; Implements format_t.">
<polygon fill="white" stroke="red" points="125,-76.5 125,-95.5 218,-95.5 218,-76.5 125,-76.5"/>
<text text-anchor="middle" x="171.5" y="-83.5" font-family="Helvetica" font-size="10.00">attach_format_str</text>
</a>
</g>
</g>
<!-- Node1&#45;&gt;Node2 -->
<g id="edge1" class="edge">
<title>Node1&#45;&gt;Node2</title>
<path fill="none" stroke="midnightblue" d="M77.04,-57.59C92.88,-62.4 112.27,-68.3 129.28,-73.47"/>
<polygon fill="midnightblue" stroke="midnightblue" points="128.38,-76.85 138.97,-76.41 130.42,-70.16 128.38,-76.85"/>
</g>
<!-- Node66 -->
<g id="node3" class="node">
<title>Node66</title>
<g id="a_node3"><a xlink:href="muttlib_8c.html#a8972094c1e995739c8b072c8be3ce453" target="_top" xlink:title="Expand expandos (x) in a string.">
<polygon fill="white" stroke="red" points="254,-57.5 254,-76.5 365,-76.5 365,-57.5 254,-57.5"/>
<text text-anchor="middle" x="309.5" y="-64.5" font-family="Helvetica" font-size="10.00">mutt_expando_format</text>
</a>
</g>
</g>
<!-- Node1&#45;&gt;Node66 -->
<g id="edge6" class="edge">
<title>Node1&#45;&gt;Node66</title>
<path fill="none" stroke="midnightblue" d="M89.22,-51.16C131.36,-54.2 195.63,-58.85 243.71,-62.32"/>
<polygon fill="midnightblue" stroke="midnightblue" points="243.48,-65.81 253.71,-63.04 243.99,-58.83 243.48,-65.81"/>
</g>
<!-- Node255 -->
<g id="node4" class="node">
<title>Node255</title>
<g id="a_node4"><a xlink:href="helpers_8c.html#ac477c591155aa4ae0452bbabc0affffe" target="_top" xlink:title="Get a string config item by name.">
<polygon fill="white" stroke="red" points="126,-0.5 126,-19.5 217,-19.5 217,-0.5 126,-0.5"/>
<text text-anchor="middle" x="171.5" y="-7.5" font-family="Helvetica" font-size="10.00">cs_subset_string</text>
</a>
</g>
</g>
<!-- Node1&#45;&gt;Node255 -->
<g id="edge5" class="edge">
<title>Node1&#45;&gt;Node255</title>
<path fill="none" stroke="midnightblue" d="M77.04,-38.41C92.88,-33.6 112.27,-27.7 129.28,-22.53"/>
<polygon fill="midnightblue" stroke="midnightblue" points="130.42,-25.84 138.97,-19.59 128.38,-19.15 130.42,-25.84"/>
</g>
<!-- Node2&#45;&gt;Node2 -->
<g id="edge2" class="edge">
<title>Node2&#45;&gt;Node2</title>
<path fill="none" stroke="midnightblue" d="M152.08,-95.76C142.63,-104.57 149.11,-114 171.5,-114 185.85,-114 193.66,-110.13 194.94,-105.03"/>
<polygon fill="midnightblue" stroke="midnightblue" points="198.11,-103.54 190.92,-95.76 191.68,-106.32 198.11,-103.54"/>
</g>
<!-- Node2&#45;&gt;Node66 -->
<g id="edge3" class="edge">
<title>Node2&#45;&gt;Node66</title>
<path fill="none" stroke="midnightblue" d="M218.16,-79.62C226.37,-78.47 235.07,-77.26 243.7,-76.05"/>
<polygon fill="midnightblue" stroke="midnightblue" points="244.34,-79.5 253.76,-74.65 243.37,-72.56 244.34,-79.5"/>
</g>
<!-- Node66&#45;&gt;Node66 -->
<g id="edge4" class="edge">
<title>Node66&#45;&gt;Node66</title>
<path fill="none" stroke="midnightblue" d="M288.23,-76.76C277.88,-85.57 284.97,-95 309.5,-95 325.21,-95 333.77,-91.13 335.17,-86.03"/>
<polygon fill="midnightblue" stroke="midnightblue" points="338.22,-84.29 330.77,-76.76 331.89,-87.29 338.22,-84.29"/>
</g>
</g>
</svg>
