<?xml version="1.0" encoding="UTF-8" standalone="no"?>
<!DOCTYPE svg PUBLIC "-//W3C//DTD SVG 1.1//EN"
 "http://www.w3.org/Graphics/SVG/1.1/DTD/svg11.dtd">
<!-- Generated by graphviz version 7.1.0 (0)
 -->
<!-- Title: candidate Pages: 1 -->
<svg width="243pt" height="101pt"
 viewBox="0.00 0.00 243.00 101.00" xmlns="http://www.w3.org/2000/svg" xmlns:xlink="http://www.w3.org/1999/xlink">
<g id="graph0" class="graph" transform="scale(1 1) rotate(0) translate(4 97)">
<title>candidate</title>
<!-- Node1 -->
<g id="node1" class="node">
<title>Node1</title>
<g id="a_node1"><a xlink:title="Helper function for completion.">
<polygon fill="#999999" stroke="#666666" points="235,-56 173,-56 173,-37 235,-37 235,-56"/>
<text text-anchor="middle" x="204" y="-44" font-family="Helvetica,sans-Serif" font-size="10.00">candidate</text>
</a>
</g>
</g>
<!-- Node2 -->
<g id="node2" class="node">
<title>Node2</title>
<g id="a_node2"><a xlink:href="notmuch_2complete_8c.html#a859ec89a92fa6582c414dcaf2bd2dfff" target="_top" xlink:title="Pass a list of Notmuch tags to the completion code.">
<polygon fill="#fff0f0" stroke="red" points="127.5,-93 9.5,-93 9.5,-74 127.5,-74 127.5,-93"/>
<text text-anchor="middle" x="68.5" y="-81" font-family="Helvetica,sans-Serif" font-size="10.00">complete_all_nm_tags</text>
</a>
</g>
</g>
<!-- Node1&#45;&gt;Node2 -->
<g id="edge1" class="edge">
<title>Node1&#45;&gt;Node2</title>
<path fill="none" stroke="#63b8ff" d="M161.89,-58.47C153.65,-60.83 145.06,-63.27 137,-65.5 127.42,-68.16 117.05,-70.96 107.38,-73.54"/>
<polygon fill="#63b8ff" stroke="#63b8ff" points="162.71,-61.88 171.35,-55.75 160.77,-55.15 162.71,-61.88"/>
</g>
<!-- Node7 -->
<g id="node3" class="node">
<title>Node7</title>
<g id="a_node3"><a xlink:href="complete_2helpers_8c.html#a3877f43cd4e3d4960483d6fedfe8c5b4" target="_top" xlink:title="Complete a command name.">
<polygon fill="#fff0f0" stroke="red" points="137,-56 0,-56 0,-37 137,-37 137,-56"/>
<text text-anchor="middle" x="68.5" y="-44" font-family="Helvetica,sans-Serif" font-size="10.00">mutt_command_complete</text>
</a>
</g>
</g>
<!-- Node1&#45;&gt;Node7 -->
<g id="edge2" class="edge">
<title>Node1&#45;&gt;Node7</title>
<path fill="none" stroke="#63b8ff" d="M161.2,-46.5C153.57,-46.5 145.42,-46.5 137.26,-46.5"/>
<polygon fill="#63b8ff" stroke="#63b8ff" points="161.19,-50 171.19,-46.5 161.19,-43 161.19,-50"/>
</g>
<!-- Node9 -->
<g id="node4" class="node">
<title>Node9</title>
<g id="a_node4"><a xlink:href="complete_2helpers_8c.html#a1dee2953215018684a47b374bab78b46" target="_top" xlink:title="Complete a label name.">
<polygon fill="#fff0f0" stroke="red" points="125,-19 12,-19 12,0 125,0 125,-19"/>
<text text-anchor="middle" x="68.5" y="-7" font-family="Helvetica,sans-Serif" font-size="10.00">mutt_label_complete</text>
</a>
</g>
</g>
<!-- Node1&#45;&gt;Node9 -->
<g id="edge3" class="edge">
<title>Node1&#45;&gt;Node9</title>
<path fill="none" stroke="#63b8ff" d="M161.64,-35.04C143.62,-30.04 122.7,-24.25 105.36,-19.44"/>
<polygon fill="#63b8ff" stroke="#63b8ff" points="160.68,-38.4 171.25,-37.7 162.55,-31.66 160.68,-38.4"/>
</g>
</g>
</svg>
