<?xml version="1.0" encoding="UTF-8" standalone="no"?>
<!DOCTYPE svg PUBLIC "-//W3C//DTD SVG 1.1//EN"
 "http://www.w3.org/Graphics/SVG/1.1/DTD/svg11.dtd">
<!-- Generated by graphviz version 12.2.1 (20241206.2353)
 -->
<!-- Title: compmbox/expando.h Pages: 1 -->
<svg width="268pt" height="89pt"
 viewBox="0.00 0.00 268.00 88.50" xmlns="http://www.w3.org/2000/svg" xmlns:xlink="http://www.w3.org/1999/xlink">
<g id="graph0" class="graph" transform="scale(1 1) rotate(0) translate(4 84.5)">
<title>compmbox/expando.h</title>
<!-- Node1 -->
<g id="Node000001" class="node">
<title>Node1</title>
<g id="a_Node000001"><a xlink:title="Compress Expando definitions.">
<polygon fill="#999999" stroke="#666666" points="190.75,-80.5 70.5,-80.5 70.5,-58.25 190.75,-58.25 190.75,-80.5"/>
<text text-anchor="middle" x="130.62" y="-67" font-family="Helvetica,sans-Serif" font-size="10.00">compmbox/expando.h</text>
</a>
</g>
</g>
<!-- Node2 -->
<g id="Node000002" class="node">
<title>Node2</title>
<g id="a_Node000002"><a xlink:href="compmbox_2compress_8c.html" target="_top" xlink:title="Compressed mbox local mailbox type.">
<polygon fill="white" stroke="#666666" points="123.25,-22.25 0,-22.25 0,0 123.25,0 123.25,-22.25"/>
<text text-anchor="middle" x="61.62" y="-8.75" font-family="Helvetica,sans-Serif" font-size="10.00">compmbox/compress.c</text>
</a>
</g>
</g>
<!-- Node1&#45;&gt;Node2 -->
<g id="edge1_Node000001_Node000002" class="edge">
<title>Node1&#45;&gt;Node2</title>
<g id="a_edge1_Node000001_Node000002"><a xlink:title=" ">
<path fill="none" stroke="#63b8ff" d="M108.8,-50.58C97.53,-41.4 84.17,-30.5 74.55,-22.66"/>
<polygon fill="#63b8ff" stroke="#63b8ff" points="106.51,-53.23 116.47,-56.84 110.93,-47.81 106.51,-53.23"/>
</a>
</g>
</g>
<!-- Node3 -->
<g id="Node000003" class="node">
<title>Node3</title>
<g id="a_Node000003"><a xlink:href="compmbox_2expando_8c.html" target="_top" xlink:title="Compress Expando definitions.">
<polygon fill="white" stroke="#666666" points="260,-22.25 141.25,-22.25 141.25,0 260,0 260,-22.25"/>
<text text-anchor="middle" x="200.62" y="-8.75" font-family="Helvetica,sans-Serif" font-size="10.00">compmbox/expando.c</text>
</a>
</g>
</g>
<!-- Node1&#45;&gt;Node3 -->
<g id="edge2_Node000001_Node000003" class="edge">
<title>Node1&#45;&gt;Node3</title>
<g id="a_edge2_Node000001_Node000003"><a xlink:title=" ">
<path fill="none" stroke="#63b8ff" d="M152.76,-50.58C164.2,-41.4 177.76,-30.5 187.52,-22.66"/>
<polygon fill="#63b8ff" stroke="#63b8ff" points="150.57,-47.85 144.97,-56.85 154.96,-53.31 150.57,-47.85"/>
</a>
</g>
</g>
</g>
</svg>
