<?xml version="1.0" encoding="UTF-8" standalone="no"?>
<!DOCTYPE svg PUBLIC "-//W3C//DTD SVG 1.1//EN"
 "http://www.w3.org/Graphics/SVG/1.1/DTD/svg11.dtd">
<!-- Generated by graphviz version 2.40.1 (20161225.0304)
 -->
<!-- Title: mutt_pattern_free Pages: 1 -->
<svg width="602pt" height="533pt"
 viewBox="0.00 0.00 602.00 533.04" xmlns="http://www.w3.org/2000/svg" xmlns:xlink="http://www.w3.org/1999/xlink">
<g id="graph0" class="graph" transform="scale(1 1) rotate(0) translate(4 529.0436)">
<title>mutt_pattern_free</title>
<polygon fill="#ffffff" stroke="transparent" points="-4,4 -4,-529.0436 598,-529.0436 598,4 -4,4"/>
<!-- Node9440 -->
<g id="node1" class="node">
<title>Node9440</title>
<polygon fill="#bfbfbf" stroke="#000000" points="0,-303.5632 0,-322.5632 105,-322.5632 105,-303.5632 0,-303.5632"/>
<text text-anchor="middle" x="52.5" y="-310.5632" font-family="Helvetica,sans-Serif" font-size="10.00" fill="#000000">mutt_pattern_free</text>
</g>
<!-- Node9441 -->
<g id="node2" class="node">
<title>Node9441</title>
<g id="a_node2"><a xlink:href="context_8h.html#a438aad8b9b9193a15648a4f1f8039cfb" target="_top" xlink:title="Free a Context. ">
<polygon fill="#ffffff" stroke="#ff0000" points="312,-483.5632 312,-502.5632 368,-502.5632 368,-483.5632 312,-483.5632"/>
<text text-anchor="middle" x="340" y="-490.5632" font-family="Helvetica,sans-Serif" font-size="10.00" fill="#000000">ctx_free</text>
</a>
</g>
</g>
<!-- Node9440&#45;&gt;Node9441 -->
<g id="edge1" class="edge">
<title>Node9440&#45;&gt;Node9441</title>
<path fill="none" stroke="#191970" d="M61.3404,-331.9836C74.785,-358.7011 102.891,-407.214 141,-434.0632 194.0247,-471.4211 270.866,-485.4132 311.8172,-490.4284"/>
<polygon fill="#191970" stroke="#191970" points="64.4419,-330.3583 56.9153,-322.9017 58.1491,-333.4244 64.4419,-330.3583"/>
</g>
<!-- Node9728 -->
<g id="node3" class="node">
<title>Node9728</title>
<g id="a_node3"><a xlink:href="context_8c.html#a6ca730227e40c11b688852141c0e4fc3" target="_top" xlink:title="Release memory and initialize a Context object. ">
<polygon fill="#ffffff" stroke="#ff0000" points="302.5,-445.5632 302.5,-464.5632 377.5,-464.5632 377.5,-445.5632 302.5,-445.5632"/>
<text text-anchor="middle" x="340" y="-452.5632" font-family="Helvetica,sans-Serif" font-size="10.00" fill="#000000">ctx_cleanup</text>
</a>
</g>
</g>
<!-- Node9440&#45;&gt;Node9728 -->
<g id="edge2" class="edge">
<title>Node9440&#45;&gt;Node9728</title>
<path fill="none" stroke="#191970" d="M65.475,-330.6125C81.1745,-350.6017 109.4559,-382.844 141,-401.0632 192.3032,-430.6949 260.4434,-444.5826 302.2092,-450.6985"/>
<polygon fill="#191970" stroke="#191970" points="68.2203,-328.4407 59.362,-322.6285 62.6623,-332.6962 68.2203,-328.4407"/>
</g>
<!-- Node9936 -->
<g id="node4" class="node">
<title>Node9936</title>
<g id="a_node4"><a xlink:href="color_8c.html#aa106ad2895a79872f3df5fcd158e5b67" target="_top" xlink:title="Free a ColorLine. ">
<polygon fill="#ffffff" stroke="#ff0000" points="295.5,-407.5632 295.5,-426.5632 384.5,-426.5632 384.5,-407.5632 295.5,-407.5632"/>
<text text-anchor="middle" x="340" y="-414.5632" font-family="Helvetica,sans-Serif" font-size="10.00" fill="#000000">color_line_free</text>
</a>
</g>
</g>
<!-- Node9440&#45;&gt;Node9936 -->
<g id="edge3" class="edge">
<title>Node9440&#45;&gt;Node9936</title>
<path fill="none" stroke="#191970" d="M71.7629,-329.3122C88.8914,-342.948 115.1579,-361.9329 141,-373.0632 191.5328,-394.8281 254.0994,-406.3863 295.436,-412.107"/>
<polygon fill="#191970" stroke="#191970" points="73.654,-326.3386 63.6894,-322.739 69.2344,-331.7669 73.654,-326.3386"/>
</g>
<!-- Node9948 -->
<g id="node5" class="node">
<title>Node9948</title>
<g id="a_node5"><a xlink:href="hook_8c.html#aef64c959f7a4a6dbc02b9e8590bdf607" target="_top" xlink:title="Delete a Hook. ">
<polygon fill="#ffffff" stroke="#ff0000" points="301.5,-369.5632 301.5,-388.5632 378.5,-388.5632 378.5,-369.5632 301.5,-369.5632"/>
<text text-anchor="middle" x="340" y="-376.5632" font-family="Helvetica,sans-Serif" font-size="10.00" fill="#000000">delete_hook</text>
</a>
</g>
</g>
<!-- Node9440&#45;&gt;Node9948 -->
<g id="edge4" class="edge">
<title>Node9440&#45;&gt;Node9948</title>
<path fill="none" stroke="#191970" d="M80.7206,-327.0061C97.7899,-334.8928 120.206,-344.3005 141,-350.0632 195.5055,-365.1687 260.7174,-372.7694 301.2585,-376.3146"/>
<polygon fill="#191970" stroke="#191970" points="81.878,-323.6821 71.3409,-322.5774 78.8892,-330.012 81.878,-323.6821"/>
</g>
<!-- Node9952 -->
<g id="node6" class="node">
<title>Node9952</title>
<g id="a_node6"><a xlink:href="pattern_2lib_8h.html#ae447e834babbe84bef7005199ec39962" target="_top" xlink:title="Free a Pattern. ">
<polygon fill="#ffffff" stroke="#000000" points="141,-303.5632 141,-322.5632 246,-322.5632 246,-303.5632 141,-303.5632"/>
<text text-anchor="middle" x="193.5" y="-310.5632" font-family="Helvetica,sans-Serif" font-size="10.00" fill="#000000">mutt_pattern_free</text>
</a>
</g>
</g>
<!-- Node9440&#45;&gt;Node9952 -->
<g id="edge5" class="edge">
<title>Node9440&#45;&gt;Node9952</title>
<path fill="none" stroke="#191970" d="M115.0504,-313.0632C123.6995,-313.0632 132.5102,-313.0632 140.953,-313.0632"/>
<polygon fill="#191970" stroke="#191970" points="115.0032,-309.5633 105.0032,-313.0632 115.0032,-316.5633 115.0032,-309.5633"/>
</g>
<!-- Node9953 -->
<g id="node7" class="node">
<title>Node9953</title>
<g id="a_node7"><a xlink:href="pattern_2lib_8h.html#ac2a8729662aa8d0b6cf21d7c5ab7826f" target="_top" xlink:title="Create a Pattern. ">
<polygon fill="#ffffff" stroke="#ff0000" points="283.5,-161.5632 283.5,-180.5632 396.5,-180.5632 396.5,-161.5632 283.5,-161.5632"/>
<text text-anchor="middle" x="340" y="-168.5632" font-family="Helvetica,sans-Serif" font-size="10.00" fill="#000000">mutt_pattern_comp</text>
</a>
</g>
</g>
<!-- Node9440&#45;&gt;Node9953 -->
<g id="edge22" class="edge">
<title>Node9440&#45;&gt;Node9953</title>
<path fill="none" stroke="#191970" d="M63.382,-294.8064C78.0258,-271.9267 106.2875,-233.27 141,-213.0632 184.6378,-187.661 241.6173,-177.5327 283.4172,-173.5406"/>
<polygon fill="#191970" stroke="#191970" points="60.2577,-293.2033 57.9608,-303.5462 66.2063,-296.8932 60.2577,-293.2033"/>
</g>
<!-- Node9954 -->
<g id="node8" class="node">
<title>Node9954</title>
<g id="a_node8"><a xlink:href="pattern_8c.html#a4a8895379c5c88e029eeb8121c1c6a2d" target="_top" xlink:title="Perform some Pattern matching for Alias. ">
<polygon fill="#ffffff" stroke="#ff0000" points="446.5,-331.5632 446.5,-350.5632 581.5,-350.5632 581.5,-331.5632 446.5,-331.5632"/>
<text text-anchor="middle" x="514" y="-338.5632" font-family="Helvetica,sans-Serif" font-size="10.00" fill="#000000">mutt_pattern_alias_func</text>
</a>
</g>
</g>
<!-- Node9440&#45;&gt;Node9954 -->
<g id="edge23" class="edge">
<title>Node9440&#45;&gt;Node9954</title>
<path fill="none" stroke="#191970" d="M58.2837,-332.609C69.063,-365.6497 95.3669,-432.5086 141,-469.0632 192.1331,-510.0236 217.2003,-502.4021 282,-512.0632 332.9919,-519.6658 352.4472,-536.2069 398,-512.0632 465.5143,-476.2797 500.9846,-381.663 510.9956,-350.8873"/>
<polygon fill="#191970" stroke="#191970" points="61.54,-331.2947 55.2177,-322.7929 54.8583,-333.3817 61.54,-331.2947"/>
</g>
<!-- Node9742 -->
<g id="node9" class="node">
<title>Node9742</title>
<g id="a_node9"><a xlink:href="pattern_8c.html#a828247b3a5ea339163835205d56d8f52" target="_top" xlink:title="Perform some Pattern matching. ">
<polygon fill="#ffffff" stroke="#ff0000" points="460.5,-161.5632 460.5,-180.5632 567.5,-180.5632 567.5,-161.5632 460.5,-161.5632"/>
<text text-anchor="middle" x="514" y="-168.5632" font-family="Helvetica,sans-Serif" font-size="10.00" fill="#000000">mutt_pattern_func</text>
</a>
</g>
</g>
<!-- Node9440&#45;&gt;Node9742 -->
<g id="edge24" class="edge">
<title>Node9440&#45;&gt;Node9742</title>
<path fill="none" stroke="#191970" d="M55.5723,-293.524C62.8689,-253.776 85.0117,-163.2021 141,-115.0632 228.6016,-39.7432 300.376,-14.2837 398,-76.0632 429.5828,-96.0498 404.9566,-128.5384 434,-152.0632 441.5431,-158.1731 450.7235,-162.3776 460.1391,-165.258"/>
<polygon fill="#191970" stroke="#191970" points="52.0995,-293.0675 53.8595,-303.5151 58.9989,-294.2503 52.0995,-293.0675"/>
</g>
<!-- Node9743 -->
<g id="node10" class="node">
<title>Node9743</title>
<g id="a_node10"><a xlink:href="pattern_8c.html#a36689f92655a44ba238759ec0e61c2af" target="_top" xlink:title="Perform a search. ">
<polygon fill="#ffffff" stroke="#ff0000" points="448.5,-123.5632 448.5,-142.5632 579.5,-142.5632 579.5,-123.5632 448.5,-123.5632"/>
<text text-anchor="middle" x="514" y="-130.5632" font-family="Helvetica,sans-Serif" font-size="10.00" fill="#000000">mutt_search_command</text>
</a>
</g>
</g>
<!-- Node9440&#45;&gt;Node9743 -->
<g id="edge25" class="edge">
<title>Node9440&#45;&gt;Node9743</title>
<path fill="none" stroke="#191970" d="M56.0865,-293.271C66.7663,-236.7022 100.1695,-76.3783 141,-45.0632 231.6789,24.4831 290.4821,1.6569 398,-37.0632 446.9436,-54.6892 489.8897,-102.9216 506.5878,-123.5262"/>
<polygon fill="#191970" stroke="#191970" points="52.5885,-292.9388 54.2077,-303.4092 59.4713,-294.2144 52.5885,-292.9388"/>
</g>
<!-- Node9956 -->
<g id="node11" class="node">
<title>Node9956</title>
<g id="a_node11"><a xlink:href="pattern_8c.html#a2136c3a5b62c48c3ba4dc14662c305dd" target="_top" xlink:title="Perform a search. ">
<polygon fill="#ffffff" stroke="#ff0000" points="434,-217.5632 434,-236.5632 594,-236.5632 594,-217.5632 434,-217.5632"/>
<text text-anchor="middle" x="514" y="-224.5632" font-family="Helvetica,sans-Serif" font-size="10.00" fill="#000000">mutt_search_alias_command</text>
</a>
</g>
</g>
<!-- Node9440&#45;&gt;Node9956 -->
<g id="edge26" class="edge">
<title>Node9440&#45;&gt;Node9956</title>
<path fill="none" stroke="#191970" d="M105.6733,-301.343C117.3,-298.8654 129.5521,-296.3196 141,-294.0632 252.9968,-271.9888 384.5132,-249.0609 457.6482,-236.5757"/>
<polygon fill="#191970" stroke="#191970" points="104.6956,-297.9731 95.6527,-303.4937 106.1646,-304.8172 104.6956,-297.9731"/>
</g>
<!-- Node9958 -->
<g id="node12" class="node">
<title>Node9958</title>
<g id="a_node12"><a xlink:href="score_8h.html#a3ebf8cb6002e2410464a8e7c9aa554d4" target="_top" xlink:title="Parse the &#39;unscore&#39; command &#45; Implements Command::parse() ">
<polygon fill="#ffffff" stroke="#000000" points="282,-85.5632 282,-104.5632 398,-104.5632 398,-85.5632 282,-85.5632"/>
<text text-anchor="middle" x="340" y="-92.5632" font-family="Helvetica,sans-Serif" font-size="10.00" fill="#000000">mutt_parse_unscore</text>
</a>
</g>
</g>
<!-- Node9440&#45;&gt;Node9958 -->
<g id="edge27" class="edge">
<title>Node9440&#45;&gt;Node9958</title>
<path fill="none" stroke="#191970" d="M60.0708,-293.9967C72.6822,-264.4802 100.6538,-207.6348 141,-174.0632 185.8602,-136.7357 250.5433,-115.4797 293.8626,-104.6219"/>
<polygon fill="#191970" stroke="#191970" points="56.7111,-292.9624 56.125,-303.541 63.1801,-295.6368 56.7111,-292.9624"/>
</g>
<!-- Node9952&#45;&gt;Node9441 -->
<g id="edge6" class="edge">
<title>Node9952&#45;&gt;Node9441</title>
<path fill="none" stroke="#191970" d="M199.0325,-332.6426C209.5646,-366.4061 235.6788,-435.6469 282,-474.0632 290.4823,-481.098 301.645,-485.5527 311.9103,-488.3627"/>
<polygon fill="#191970" stroke="#191970" points="202.2638,-331.2306 196.0515,-322.6483 195.5558,-333.2315 202.2638,-331.2306"/>
</g>
<!-- Node9952&#45;&gt;Node9728 -->
<g id="edge7" class="edge">
<title>Node9952&#45;&gt;Node9728</title>
<path fill="none" stroke="#191970" d="M202.1644,-331.7518C215.5577,-358.6459 243.7878,-408.0948 282,-436.0632 288.0708,-440.5066 295.2355,-443.9467 302.4204,-446.5984"/>
<polygon fill="#191970" stroke="#191970" points="205.2661,-330.1258 197.7679,-322.6406 198.9617,-333.1679 205.2661,-330.1258"/>
</g>
<!-- Node9952&#45;&gt;Node9936 -->
<g id="edge8" class="edge">
<title>Node9952&#45;&gt;Node9936</title>
<path fill="none" stroke="#191970" d="M207.4901,-330.5685C223.5976,-349.6541 251.7516,-379.8945 282,-398.0632 288.2675,-401.8278 295.37,-404.9434 302.402,-407.4863"/>
<polygon fill="#191970" stroke="#191970" points="210.0362,-328.1548 200.9729,-322.6679 204.6363,-332.6092 210.0362,-328.1548"/>
</g>
<!-- Node9952&#45;&gt;Node9948 -->
<g id="edge9" class="edge">
<title>Node9952&#45;&gt;Node9948</title>
<path fill="none" stroke="#191970" d="M222.0517,-327.0648C239.3075,-335.4138 261.8016,-346.0984 282,-355.0632 293.1557,-360.0146 305.6517,-365.2273 316.18,-369.5249"/>
<polygon fill="#191970" stroke="#191970" points="223.5761,-323.9143 213.052,-322.6925 220.5172,-330.2106 223.5761,-323.9143"/>
</g>
<!-- Node9952&#45;&gt;Node9952 -->
<g id="edge10" class="edge">
<title>Node9952&#45;&gt;Node9952</title>
<path fill="none" stroke="#191970" d="M167.4584,-332.0924C168.8789,-337.1912 177.5594,-341.0632 193.5,-341.0632 218.3828,-341.0632 225.5755,-331.6285 215.0781,-322.8203"/>
<polygon fill="#191970" stroke="#191970" points="170.738,-333.3488 171.9219,-322.8203 164.4308,-330.3125 170.738,-333.3488"/>
</g>
<!-- Node9952&#45;&gt;Node9953 -->
<g id="edge11" class="edge">
<title>Node9952&#45;&gt;Node9953</title>
<path fill="none" stroke="#191970" d="M211.0322,-296.0696C241.949,-266.1025 305.2184,-204.7765 329.86,-180.8918"/>
<polygon fill="#191970" stroke="#191970" points="208.3141,-293.8299 203.5695,-303.303 213.186,-298.8562 208.3141,-293.8299"/>
</g>
<!-- Node9952&#45;&gt;Node9954 -->
<g id="edge17" class="edge">
<title>Node9952&#45;&gt;Node9954</title>
<path fill="none" stroke="#191970" d="M256.3303,-318.5523C311.0623,-323.3339 390.2278,-330.2501 446.3393,-335.1522"/>
<polygon fill="#191970" stroke="#191970" points="256.3319,-315.0392 246.0652,-317.6555 255.7226,-322.0127 256.3319,-315.0392"/>
</g>
<!-- Node9952&#45;&gt;Node9742 -->
<g id="edge18" class="edge">
<title>Node9952&#45;&gt;Node9742</title>
<path fill="none" stroke="#191970" d="M224.2645,-299.4328C288.6792,-270.8934 436.3804,-205.4532 492.1451,-180.7462"/>
<polygon fill="#191970" stroke="#191970" points="222.7516,-296.2749 215.0266,-303.5257 225.5872,-302.6749 222.7516,-296.2749"/>
</g>
<!-- Node9952&#45;&gt;Node9743 -->
<g id="edge19" class="edge">
<title>Node9952&#45;&gt;Node9743</title>
<path fill="none" stroke="#191970" d="M197.9165,-293.2682C206.9265,-258.0436 231.0359,-185.0869 282,-152.0632 334.0595,-118.3298 407.0996,-118.219 457.2429,-123.5382"/>
<polygon fill="#191970" stroke="#191970" points="194.444,-292.7391 195.5068,-303.2804 201.2496,-294.377 194.444,-292.7391"/>
</g>
<!-- Node9952&#45;&gt;Node9956 -->
<g id="edge20" class="edge">
<title>Node9952&#45;&gt;Node9956</title>
<path fill="none" stroke="#191970" d="M256.1455,-306.8705C297.1144,-301.7951 351.4655,-293.1063 398,-279.0632 434.3413,-268.0963 474.2132,-248.3926 496.4665,-236.6427"/>
<polygon fill="#191970" stroke="#191970" points="255.5427,-303.4177 246.0309,-308.0841 256.3767,-310.3678 255.5427,-303.4177"/>
</g>
<!-- Node9952&#45;&gt;Node9958 -->
<g id="edge21" class="edge">
<title>Node9952&#45;&gt;Node9958</title>
<path fill="none" stroke="#191970" d="M197.3616,-293.6724C205.9514,-255.3131 230.114,-169.132 282,-119.0632 288.4303,-112.8582 296.6919,-108.1659 304.952,-104.6538"/>
<polygon fill="#191970" stroke="#191970" points="193.917,-293.0442 195.2613,-303.5534 200.764,-294.4996 193.917,-293.0442"/>
</g>
<!-- Node9953&#45;&gt;Node9953 -->
<g id="edge12" class="edge">
<title>Node9953&#45;&gt;Node9953</title>
<path fill="none" stroke="#191970" d="M312.7475,-189.7172C313.8867,-195 322.9708,-199.0632 340,-199.0632 365.9492,-199.0632 373.4502,-189.6285 362.5028,-180.8203"/>
<polygon fill="#191970" stroke="#191970" points="315.8752,-191.2903 317.4972,-180.8203 309.7001,-187.9936 315.8752,-191.2903"/>
</g>
<!-- Node9953&#45;&gt;Node9954 -->
<g id="edge13" class="edge">
<title>Node9953&#45;&gt;Node9954</title>
<path fill="none" stroke="#191970" d="M357.1996,-187.8674C393.2888,-223.127 475.9196,-303.8582 504.2545,-331.5418"/>
<polygon fill="#191970" stroke="#191970" points="359.4523,-185.1752 349.8535,-180.6903 354.5604,-190.1822 359.4523,-185.1752"/>
</g>
<!-- Node9953&#45;&gt;Node9742 -->
<g id="edge14" class="edge">
<title>Node9953&#45;&gt;Node9742</title>
<path fill="none" stroke="#191970" d="M407.2027,-171.0632C424.8401,-171.0632 443.6239,-171.0632 460.4412,-171.0632"/>
<polygon fill="#191970" stroke="#191970" points="406.9741,-167.5633 396.9741,-171.0632 406.9741,-174.5633 406.9741,-167.5633"/>
</g>
<!-- Node9953&#45;&gt;Node9743 -->
<g id="edge15" class="edge">
<title>Node9953&#45;&gt;Node9743</title>
<path fill="none" stroke="#191970" d="M393.8144,-159.3107C418.418,-153.9375 447.1867,-147.6546 470.4082,-142.5833"/>
<polygon fill="#191970" stroke="#191970" points="392.9305,-155.9211 383.9075,-161.4742 394.4241,-162.76 392.9305,-155.9211"/>
</g>
<!-- Node9953&#45;&gt;Node9956 -->
<g id="edge16" class="edge">
<title>Node9953&#45;&gt;Node9956</title>
<path fill="none" stroke="#191970" d="M379.801,-183.8728C411.679,-194.1324 455.6816,-208.2941 484.4787,-217.5621"/>
<polygon fill="#191970" stroke="#191970" points="380.5031,-180.422 369.9117,-180.69 378.3585,-187.0854 380.5031,-180.422"/>
</g>
</g>
</svg>
