<?xml version="1.0" encoding="UTF-8" standalone="no"?>
<!DOCTYPE svg PUBLIC "-//W3C//DTD SVG 1.1//EN"
 "http://www.w3.org/Graphics/SVG/1.1/DTD/svg11.dtd">
<!-- Generated by graphviz version 12.2.1 (20241206.2353)
 -->
<!-- Title: pattern/compile.c Pages: 1 -->
<svg width="1031pt" height="263pt"
 viewBox="0.00 0.00 1030.50 263.25" xmlns="http://www.w3.org/2000/svg" xmlns:xlink="http://www.w3.org/1999/xlink">
<g id="graph0" class="graph" transform="scale(1 1) rotate(0) translate(4 259.25)">
<title>pattern/compile.c</title>
<!-- Node1 -->
<g id="Node000001" class="node">
<title>Node1</title>
<g id="a_Node000001"><a xlink:title="Compile a Pattern.">
<polygon fill="#999999" stroke="#666666" points="485,-255.25 386.5,-255.25 386.5,-233 485,-233 485,-255.25"/>
<text text-anchor="middle" x="435.75" y="-241.75" font-family="Helvetica,sans-Serif" font-size="10.00">pattern/compile.c</text>
</a>
</g>
</g>
<!-- Node2 -->
<g id="Node000002" class="node">
<title>Node2</title>
<g id="a_Node000002"><a xlink:title=" ">
<polygon fill="#e0e0e0" stroke="#999999" points="53.5,-22.25 0,-22.25 0,0 53.5,0 53.5,-22.25"/>
<text text-anchor="middle" x="26.75" y="-8.75" font-family="Helvetica,sans-Serif" font-size="10.00">config.h</text>
</a>
</g>
</g>
<!-- Node1&#45;&gt;Node2 -->
<g id="edge1_Node000001_Node000002" class="edge">
<title>Node1&#45;&gt;Node2</title>
<g id="a_edge1_Node000001_Node000002"><a xlink:title=" ">
<path fill="none" stroke="#63b8ff" d="M386.33,-242.69C300.07,-240.99 126.72,-233.04 79.75,-197 28.94,-158.02 24.52,-73.69 25.49,-33.83"/>
<polygon fill="#63b8ff" stroke="#63b8ff" points="28.99,-34 25.9,-23.87 21.99,-33.72 28.99,-34"/>
</a>
</g>
</g>
<!-- Node3 -->
<g id="Node000003" class="node">
<title>Node3</title>
<g id="a_Node000003"><a xlink:title=" ">
<polygon fill="#e0e0e0" stroke="#999999" points="286.5,-80.5 227,-80.5 227,-58.25 286.5,-58.25 286.5,-80.5"/>
<text text-anchor="middle" x="256.75" y="-67" font-family="Helvetica,sans-Serif" font-size="10.00">stdbool.h</text>
</a>
</g>
</g>
<!-- Node1&#45;&gt;Node3 -->
<g id="edge2_Node000001_Node000003" class="edge">
<title>Node1&#45;&gt;Node3</title>
<g id="a_edge2_Node000001_Node000003"><a xlink:title=" ">
<path fill="none" stroke="#63b8ff" d="M397.57,-232.58C374.72,-225.06 345.91,-213.37 323.75,-197 296.77,-177.07 291.24,-168.5 275.75,-138.75 268,-123.88 263.12,-105.49 260.25,-91.53"/>
<polygon fill="#63b8ff" stroke="#63b8ff" points="263.77,-91.28 258.5,-82.09 256.88,-92.56 263.77,-91.28"/>
</a>
</g>
</g>
<!-- Node4 -->
<g id="Node000004" class="node">
<title>Node4</title>
<g id="a_Node000004"><a xlink:title=" ">
<polygon fill="#e0e0e0" stroke="#999999" points="438.38,-80.5 387.12,-80.5 387.12,-58.25 438.38,-58.25 438.38,-80.5"/>
<text text-anchor="middle" x="412.75" y="-67" font-family="Helvetica,sans-Serif" font-size="10.00">stdint.h</text>
</a>
</g>
</g>
<!-- Node1&#45;&gt;Node4 -->
<g id="edge3_Node000001_Node000004" class="edge">
<title>Node1&#45;&gt;Node4</title>
<g id="a_edge3_Node000001_Node000004"><a xlink:title=" ">
<path fill="none" stroke="#63b8ff" d="M444.75,-232.51C462.53,-210.17 498.69,-157.04 477.75,-116.5 471.2,-103.82 459.38,-93.87 447.6,-86.51"/>
<polygon fill="#63b8ff" stroke="#63b8ff" points="449.56,-83.6 439.14,-81.69 446.09,-89.68 449.56,-83.6"/>
</a>
</g>
</g>
<!-- Node5 -->
<g id="Node000005" class="node">
<title>Node5</title>
<g id="a_Node000005"><a xlink:title=" ">
<polygon fill="#e0e0e0" stroke="#999999" points="549.5,-197 502,-197 502,-174.75 549.5,-174.75 549.5,-197"/>
<text text-anchor="middle" x="525.75" y="-183.5" font-family="Helvetica,sans-Serif" font-size="10.00">stdio.h</text>
</a>
</g>
</g>
<!-- Node1&#45;&gt;Node5 -->
<g id="edge4_Node000001_Node000005" class="edge">
<title>Node1&#45;&gt;Node5</title>
<g id="a_edge4_Node000001_Node000005"><a xlink:title=" ">
<path fill="none" stroke="#63b8ff" d="M452.68,-232.54C465.88,-224.3 484.44,-212.69 499.56,-203.25"/>
<polygon fill="#63b8ff" stroke="#63b8ff" points="500.99,-206.48 507.61,-198.21 497.28,-200.54 500.99,-206.48"/>
</a>
</g>
</g>
<!-- Node6 -->
<g id="Node000006" class="node">
<title>Node6</title>
<g id="a_Node000006"><a xlink:title=" ">
<polygon fill="#e0e0e0" stroke="#999999" points="617.62,-197 567.88,-197 567.88,-174.75 617.62,-174.75 617.62,-197"/>
<text text-anchor="middle" x="592.75" y="-183.5" font-family="Helvetica,sans-Serif" font-size="10.00">stdlib.h</text>
</a>
</g>
</g>
<!-- Node1&#45;&gt;Node6 -->
<g id="edge5_Node000001_Node000006" class="edge">
<title>Node1&#45;&gt;Node6</title>
<g id="a_edge5_Node000001_Node000006"><a xlink:title=" ">
<path fill="none" stroke="#63b8ff" d="M465.28,-232.54C491.2,-223.26 528.98,-209.72 556.68,-199.8"/>
<polygon fill="#63b8ff" stroke="#63b8ff" points="557.84,-203.1 566.07,-196.43 555.48,-196.51 557.84,-203.1"/>
</a>
</g>
</g>
<!-- Node7 -->
<g id="Node000007" class="node">
<title>Node7</title>
<g id="a_Node000007"><a xlink:title=" ">
<polygon fill="#e0e0e0" stroke="#999999" points="687.75,-197 635.75,-197 635.75,-174.75 687.75,-174.75 687.75,-197"/>
<text text-anchor="middle" x="661.75" y="-183.5" font-family="Helvetica,sans-Serif" font-size="10.00">string.h</text>
</a>
</g>
</g>
<!-- Node1&#45;&gt;Node7 -->
<g id="edge6_Node000001_Node000007" class="edge">
<title>Node1&#45;&gt;Node7</title>
<g id="a_edge6_Node000001_Node000007"><a xlink:title=" ">
<path fill="none" stroke="#63b8ff" d="M482.21,-232.52C518.55,-224.08 570.61,-211.7 624.59,-197.5"/>
<polygon fill="#63b8ff" stroke="#63b8ff" points="625.18,-200.96 633.95,-195.02 623.39,-194.19 625.18,-200.96"/>
</a>
</g>
</g>
<!-- Node8 -->
<g id="Node000008" class="node">
<title>Node8</title>
<g id="a_Node000008"><a xlink:title=" ">
<polygon fill="#e0e0e0" stroke="#999999" points="774,-197 705.5,-197 705.5,-174.75 774,-174.75 774,-197"/>
<text text-anchor="middle" x="739.75" y="-183.5" font-family="Helvetica,sans-Serif" font-size="10.00">sys/types.h</text>
</a>
</g>
</g>
<!-- Node1&#45;&gt;Node8 -->
<g id="edge7_Node000001_Node000008" class="edge">
<title>Node1&#45;&gt;Node8</title>
<g id="a_edge7_Node000001_Node000008"><a xlink:title=" ">
<path fill="none" stroke="#63b8ff" d="M485.46,-235.2C535.72,-226.99 615.9,-213.37 694.04,-197.48"/>
<polygon fill="#63b8ff" stroke="#63b8ff" points="694.48,-200.96 703.57,-195.53 693.07,-194.11 694.48,-200.96"/>
</a>
</g>
</g>
<!-- Node9 -->
<g id="Node000009" class="node">
<title>Node9</title>
<g id="a_Node000009"><a xlink:title=" ">
<polygon fill="#e0e0e0" stroke="#999999" points="124.75,-22.25 78.75,-22.25 78.75,0 124.75,0 124.75,-22.25"/>
<text text-anchor="middle" x="101.75" y="-8.75" font-family="Helvetica,sans-Serif" font-size="10.00">time.h</text>
</a>
</g>
</g>
<!-- Node1&#45;&gt;Node9 -->
<g id="edge8_Node000001_Node000009" class="edge">
<title>Node1&#45;&gt;Node9</title>
<g id="a_edge8_Node000001_Node000009"><a xlink:title=" ">
<path fill="none" stroke="#63b8ff" d="M386.06,-242.53C304.46,-240.53 147,-232.1 105.75,-197 57.23,-155.72 50.72,-119.05 69.75,-58.25 72.78,-48.57 78.63,-39.14 84.51,-31.35"/>
<polygon fill="#63b8ff" stroke="#63b8ff" points="87.19,-33.61 90.81,-23.65 81.77,-29.18 87.19,-33.61"/>
</a>
</g>
</g>
<!-- Node10 -->
<g id="Node000010" class="node">
<title>Node10</title>
<g id="a_Node000010"><a xlink:href="pattern_2private_8h.html" target="_top" xlink:title="Shared constants/structs that are private to libpattern.">
<polygon fill="#fff0f0" stroke="red" points="190.75,-197 132.75,-197 132.75,-174.75 190.75,-174.75 190.75,-197"/>
<text text-anchor="middle" x="161.75" y="-183.5" font-family="Helvetica,sans-Serif" font-size="10.00">private.h</text>
</a>
</g>
</g>
<!-- Node1&#45;&gt;Node10 -->
<g id="edge9_Node000001_Node000010" class="edge">
<title>Node1&#45;&gt;Node10</title>
<g id="a_edge9_Node000001_Node000010"><a xlink:title=" ">
<path fill="none" stroke="#63b8ff" d="M386.08,-233.72C339.23,-224.72 267.09,-210.56 204.75,-197 203.77,-196.79 202.77,-196.57 201.77,-196.35"/>
<polygon fill="#63b8ff" stroke="#63b8ff" points="202.87,-193.01 192.34,-194.21 201.32,-199.83 202.87,-193.01"/>
</a>
</g>
</g>
<!-- Node11 -->
<g id="Node000011" class="node">
<title>Node11</title>
<g id="a_Node000011"><a xlink:href="mutt_2lib_8h.html" target="_top" xlink:title="Convenience wrapper for the library headers.">
<polygon fill="#fff0f0" stroke="red" points="140.62,-80.5 78.88,-80.5 78.88,-58.25 140.62,-58.25 140.62,-80.5"/>
<text text-anchor="middle" x="109.75" y="-67" font-family="Helvetica,sans-Serif" font-size="10.00">mutt/lib.h</text>
</a>
</g>
</g>
<!-- Node1&#45;&gt;Node11 -->
<g id="edge18_Node000001_Node000011" class="edge">
<title>Node1&#45;&gt;Node11</title>
<g id="a_edge18_Node000001_Node000011"><a xlink:title=" ">
<path fill="none" stroke="#63b8ff" d="M386.13,-242.88C307.38,-241.38 159.04,-233.61 123.75,-197 96.87,-169.12 100.21,-120.14 105.01,-91.97"/>
<polygon fill="#63b8ff" stroke="#63b8ff" points="108.39,-92.93 106.85,-82.45 101.51,-91.6 108.39,-92.93"/>
</a>
</g>
</g>
<!-- Node100 -->
<g id="Node000100" class="node">
<title>Node100</title>
<g id="a_Node000100"><a xlink:href="pattern_2lib_8h.html" target="_top" xlink:title="Match patterns to emails.">
<polygon fill="#fff0f0" stroke="red" points="228.5,-138.75 193,-138.75 193,-116.5 228.5,-116.5 228.5,-138.75"/>
<text text-anchor="middle" x="210.75" y="-125.25" font-family="Helvetica,sans-Serif" font-size="10.00">lib.h</text>
</a>
</g>
</g>
<!-- Node1&#45;&gt;Node100 -->
<g id="edge27_Node000001_Node000100" class="edge">
<title>Node1&#45;&gt;Node100</title>
<g id="a_edge27_Node000001_Node000100"><a xlink:title=" ">
<path fill="none" stroke="#63b8ff" d="M386.17,-242.85C343.77,-240.14 283.34,-230.08 242.75,-197 228.32,-185.24 220.05,-165.48 215.55,-150.22"/>
<polygon fill="#63b8ff" stroke="#63b8ff" points="218.97,-149.46 213.08,-140.65 212.19,-151.21 218.97,-149.46"/>
</a>
</g>
</g>
<!-- Node67 -->
<g id="Node000067" class="node">
<title>Node67</title>
<g id="a_Node000067"><a xlink:href="address_2lib_8h.html" target="_top" xlink:title="Email Address Handling.">
<polygon fill="#fff0f0" stroke="red" points="867.38,-197 792.12,-197 792.12,-174.75 867.38,-174.75 867.38,-197"/>
<text text-anchor="middle" x="829.75" y="-183.5" font-family="Helvetica,sans-Serif" font-size="10.00">address/lib.h</text>
</a>
</g>
</g>
<!-- Node1&#45;&gt;Node67 -->
<g id="edge19_Node000001_Node000067" class="edge">
<title>Node1&#45;&gt;Node67</title>
<g id="a_edge19_Node000001_Node000067"><a xlink:title=" ">
<path fill="none" stroke="#63b8ff" d="M485.36,-237.8C550.7,-230.5 669.41,-216.28 780.74,-197.23"/>
<polygon fill="#63b8ff" stroke="#63b8ff" points="781.09,-200.73 790.34,-195.57 779.89,-193.83 781.09,-200.73"/>
</a>
</g>
</g>
<!-- Node104 -->
<g id="Node000104" class="node">
<title>Node104</title>
<g id="a_Node000104"><a xlink:href="config_2lib_8h.html" target="_top" xlink:title="Convenience wrapper for the config headers.">
<polygon fill="#fff0f0" stroke="red" points="352.62,-138.75 284.88,-138.75 284.88,-116.5 352.62,-116.5 352.62,-138.75"/>
<text text-anchor="middle" x="318.75" y="-125.25" font-family="Helvetica,sans-Serif" font-size="10.00">config/lib.h</text>
</a>
</g>
</g>
<!-- Node1&#45;&gt;Node104 -->
<g id="edge20_Node000001_Node000104" class="edge">
<title>Node1&#45;&gt;Node104</title>
<g id="a_edge20_Node000001_Node000104"><a xlink:title=" ">
<path fill="none" stroke="#63b8ff" d="M397.91,-232.67C378.41,-225.52 355.66,-214.17 340.75,-197 329.38,-183.91 323.87,-164.86 321.21,-150.2"/>
<polygon fill="#63b8ff" stroke="#63b8ff" points="324.72,-150.01 319.8,-140.63 317.8,-151.03 324.72,-150.01"/>
</a>
</g>
</g>
<!-- Node77 -->
<g id="Node000077" class="node">
<title>Node77</title>
<g id="a_Node000077"><a xlink:href="core_2lib_8h.html" target="_top" xlink:title="Convenience wrapper for the core headers.">
<polygon fill="#fff0f0" stroke="red" points="468.5,-138.75 409,-138.75 409,-116.5 468.5,-116.5 468.5,-138.75"/>
<text text-anchor="middle" x="438.75" y="-125.25" font-family="Helvetica,sans-Serif" font-size="10.00">core/lib.h</text>
</a>
</g>
</g>
<!-- Node1&#45;&gt;Node77 -->
<g id="edge22_Node000001_Node000077" class="edge">
<title>Node1&#45;&gt;Node77</title>
<g id="a_edge22_Node000001_Node000077"><a xlink:title=" ">
<path fill="none" stroke="#63b8ff" d="M436.03,-232.56C436.51,-213.98 437.53,-175.12 438.18,-150.54"/>
<polygon fill="#63b8ff" stroke="#63b8ff" points="441.67,-150.77 438.43,-140.68 434.67,-150.58 441.67,-150.77"/>
</a>
</g>
</g>
<!-- Node119 -->
<g id="Node000119" class="node">
<title>Node119</title>
<g id="a_Node000119"><a xlink:href="alias_2lib_8h.html" target="_top" xlink:title="Email Aliases.">
<polygon fill="#fff0f0" stroke="red" points="408.12,-197 349.38,-197 349.38,-174.75 408.12,-174.75 408.12,-197"/>
<text text-anchor="middle" x="378.75" y="-183.5" font-family="Helvetica,sans-Serif" font-size="10.00">alias/lib.h</text>
</a>
</g>
</g>
<!-- Node1&#45;&gt;Node119 -->
<g id="edge23_Node000001_Node000119" class="edge">
<title>Node1&#45;&gt;Node119</title>
<g id="a_edge23_Node000001_Node000119"><a xlink:title=" ">
<path fill="none" stroke="#63b8ff" d="M425.03,-232.54C417.31,-224.92 406.68,-214.44 397.56,-205.44"/>
<polygon fill="#63b8ff" stroke="#63b8ff" points="400.08,-203 390.5,-198.47 395.16,-207.99 400.08,-203"/>
</a>
</g>
</g>
<!-- Node144 -->
<g id="Node000144" class="node">
<title>Node144</title>
<g id="a_Node000144"><a xlink:href="gui_2lib_8h.html" target="_top" xlink:title="Convenience wrapper for the gui headers.">
<polygon fill="#fff0f0" stroke="red" points="938.5,-197 885,-197 885,-174.75 938.5,-174.75 938.5,-197"/>
<text text-anchor="middle" x="911.75" y="-183.5" font-family="Helvetica,sans-Serif" font-size="10.00">gui/lib.h</text>
</a>
</g>
</g>
<!-- Node1&#45;&gt;Node144 -->
<g id="edge26_Node000001_Node000144" class="edge">
<title>Node1&#45;&gt;Node144</title>
<g id="a_edge26_Node000001_Node000144"><a xlink:title=" ">
<path fill="none" stroke="#63b8ff" d="M485.45,-240.8C565.55,-236.44 728.22,-224.99 873.83,-197.31"/>
<polygon fill="#63b8ff" stroke="#63b8ff" points="874.09,-200.83 883.25,-195.49 872.76,-193.95 874.09,-200.83"/>
</a>
</g>
</g>
<!-- Node180 -->
<g id="Node000180" class="node">
<title>Node180</title>
<g id="a_Node000180"><a xlink:href="parse_2lib_8h.html" target="_top" xlink:title="Text parsing functions.">
<polygon fill="#fff0f0" stroke="red" points="1022.5,-197 957,-197 957,-174.75 1022.5,-174.75 1022.5,-197"/>
<text text-anchor="middle" x="989.75" y="-183.5" font-family="Helvetica,sans-Serif" font-size="10.00">parse/lib.h</text>
</a>
</g>
</g>
<!-- Node1&#45;&gt;Node180 -->
<g id="edge28_Node000001_Node000180" class="edge">
<title>Node1&#45;&gt;Node180</title>
<g id="a_edge28_Node000001_Node000180"><a xlink:title=" ">
<path fill="none" stroke="#63b8ff" d="M485.48,-241.07C575.4,-236.83 771.11,-225.2 945.63,-197.12"/>
<polygon fill="#63b8ff" stroke="#63b8ff" points="946.03,-200.6 955.33,-195.54 944.9,-193.7 946.03,-200.6"/>
</a>
</g>
</g>
<!-- Node10&#45;&gt;Node3 -->
<g id="edge10_Node000010_Node000003" class="edge">
<title>Node10&#45;&gt;Node3</title>
<g id="a_edge10_Node000010_Node000003"><a xlink:title=" ">
<path fill="none" stroke="#63b8ff" d="M162.85,-174.59C164.83,-160.25 170.15,-134.04 183.75,-116.5 193.56,-103.85 207.88,-93.72 221.25,-86.22"/>
<polygon fill="#63b8ff" stroke="#63b8ff" points="222.63,-89.45 229.86,-81.7 219.38,-83.25 222.63,-89.45"/>
</a>
</g>
</g>
<!-- Node10&#45;&gt;Node11 -->
<g id="edge11_Node000010_Node000011" class="edge">
<title>Node10&#45;&gt;Node11</title>
<g id="a_edge11_Node000010_Node000011"><a xlink:title=" ">
<path fill="none" stroke="#63b8ff" d="M156.95,-174.31C148.4,-155.48 130.38,-115.8 119.24,-91.28"/>
<polygon fill="#63b8ff" stroke="#63b8ff" points="122.48,-89.95 115.16,-82.29 116.11,-92.85 122.48,-89.95"/>
</a>
</g>
</g>
<!-- Node10&#45;&gt;Node100 -->
<g id="edge14_Node000010_Node000100" class="edge">
<title>Node10&#45;&gt;Node100</title>
<g id="a_edge14_Node000010_Node000100"><a xlink:title=" ">
<path fill="none" stroke="#63b8ff" d="M170.97,-174.29C177.47,-166.83 186.36,-156.62 194.09,-147.75"/>
<polygon fill="#63b8ff" stroke="#63b8ff" points="196.65,-150.14 200.58,-140.3 191.37,-145.54 196.65,-150.14"/>
</a>
</g>
</g>
<!-- Node11&#45;&gt;Node2 -->
<g id="edge12_Node000011_Node000002" class="edge">
<title>Node11&#45;&gt;Node2</title>
<g id="a_edge12_Node000011_Node000002"><a xlink:title=" ">
<path fill="none" stroke="#63b8ff" d="M94.14,-57.79C82.2,-49.7 65.5,-38.38 51.71,-29.04"/>
<polygon fill="#63b8ff" stroke="#63b8ff" points="53.79,-26.22 43.54,-23.51 49.86,-32.01 53.79,-26.22"/>
</a>
</g>
</g>
<!-- Node11&#45;&gt;Node9 -->
<g id="edge13_Node000011_Node000009" class="edge">
<title>Node11&#45;&gt;Node9</title>
<g id="a_edge13_Node000011_Node000009"><a xlink:title=" ">
<path fill="none" stroke="#63b8ff" d="M108.25,-57.79C107.28,-51.04 106,-42.03 104.83,-33.8"/>
<polygon fill="#63b8ff" stroke="#63b8ff" points="108.33,-33.56 103.46,-24.16 101.4,-34.55 108.33,-33.56"/>
</a>
</g>
</g>
<!-- Node100&#45;&gt;Node3 -->
<g id="edge15_Node000100_Node000003" class="edge">
<title>Node100&#45;&gt;Node3</title>
<g id="a_edge15_Node000100_Node000003"><a xlink:title=" ">
<path fill="none" stroke="#63b8ff" d="M219.4,-116.04C225.44,-108.66 233.68,-98.59 240.88,-89.78"/>
<polygon fill="#63b8ff" stroke="#63b8ff" points="243.56,-92.04 247.18,-82.08 238.14,-87.6 243.56,-92.04"/>
</a>
</g>
</g>
<!-- Node100&#45;&gt;Node4 -->
<g id="edge16_Node000100_Node000004" class="edge">
<title>Node100&#45;&gt;Node4</title>
<g id="a_edge16_Node000100_Node000004"><a xlink:title=" ">
<path fill="none" stroke="#63b8ff" d="M228.68,-121.63C261.56,-112.48 332.14,-92.82 375.72,-80.69"/>
<polygon fill="#63b8ff" stroke="#63b8ff" points="376.56,-84.09 385.25,-78.03 374.68,-77.34 376.56,-84.09"/>
</a>
</g>
</g>
<!-- Node100&#45;&gt;Node11 -->
<g id="edge17_Node000100_Node000011" class="edge">
<title>Node100&#45;&gt;Node11</title>
<g id="a_edge17_Node000100_Node000011"><a xlink:title=" ">
<path fill="none" stroke="#63b8ff" d="M192.69,-116.57C177.61,-108.17 155.83,-96.04 138.37,-86.32"/>
<polygon fill="#63b8ff" stroke="#63b8ff" points="140.44,-83.46 130,-81.65 137.03,-89.58 140.44,-83.46"/>
</a>
</g>
</g>
<!-- Node104&#45;&gt;Node3 -->
<g id="edge21_Node000104_Node000003" class="edge">
<title>Node104&#45;&gt;Node3</title>
<g id="a_edge21_Node000104_Node000003"><a xlink:title=" ">
<path fill="none" stroke="#63b8ff" d="M307.09,-116.04C298.52,-108.27 286.66,-97.51 276.6,-88.39"/>
<polygon fill="#63b8ff" stroke="#63b8ff" points="279.24,-86.05 269.48,-81.92 274.53,-91.24 279.24,-86.05"/>
</a>
</g>
</g>
<!-- Node119&#45;&gt;Node3 -->
<g id="edge24_Node000119_Node000003" class="edge">
<title>Node119&#45;&gt;Node3</title>
<g id="a_edge24_Node000119_Node000003"><a xlink:title=" ">
<path fill="none" stroke="#63b8ff" d="M378.88,-174.34C378.52,-159.7 375.78,-133.15 361.75,-116.5 345.58,-97.31 319.88,-85.84 297.96,-79.13"/>
<polygon fill="#63b8ff" stroke="#63b8ff" points="298.94,-75.77 288.36,-76.45 297.05,-82.51 298.94,-75.77"/>
</a>
</g>
</g>
<!-- Node119&#45;&gt;Node77 -->
<g id="edge25_Node000119_Node000077" class="edge">
<title>Node119&#45;&gt;Node77</title>
<g id="a_edge25_Node000119_Node000077"><a xlink:title=" ">
<path fill="none" stroke="#63b8ff" d="M390.04,-174.29C398.25,-166.6 409.58,-155.97 419.24,-146.91"/>
<polygon fill="#63b8ff" stroke="#63b8ff" points="421.51,-149.59 426.41,-140.19 416.72,-144.48 421.51,-149.59"/>
</a>
</g>
</g>
</g>
</svg>
