<?xml version="1.0" encoding="UTF-8" standalone="no"?>
<!DOCTYPE svg PUBLIC "-//W3C//DTD SVG 1.1//EN"
 "http://www.w3.org/Graphics/SVG/1.1/DTD/svg11.dtd">
<!-- Generated by graphviz version 2.40.1 (20161225.0304)
 -->
<!-- Title: redraw_mix_line Pages: 1 -->
<svg width="276pt" height="180pt"
 viewBox="0.00 0.00 276.00 180.00" xmlns="http://www.w3.org/2000/svg" xmlns:xlink="http://www.w3.org/1999/xlink">
<g id="graph0" class="graph" transform="scale(1 1) rotate(0) translate(4 176)">
<title>redraw_mix_line</title>
<polygon fill="#ffffff" stroke="transparent" points="-4,4 -4,-176 272,-176 272,4 -4,4"/>
<!-- Node9231 -->
<g id="node1" class="node">
<title>Node9231</title>
<polygon fill="#bfbfbf" stroke="#000000" points="0,-76.5 0,-95.5 98,-95.5 98,-76.5 0,-76.5"/>
<text text-anchor="middle" x="49" y="-83.5" font-family="Helvetica,sans-Serif" font-size="10.00" fill="#000000">redraw_mix_line</text>
</g>
<!-- Node9232 -->
<g id="node2" class="node">
<title>Node9232</title>
<g id="a_node2"><a xlink:href="mutt__curses_8c.html#a5a22f531a2d32b76760dc8a77501e988" target="_top" xlink:title="Set the current colour for text. ">
<polygon fill="#ffffff" stroke="#000000" points="138,-152.5 138,-171.5 264,-171.5 264,-152.5 138,-152.5"/>
<text text-anchor="middle" x="201" y="-159.5" font-family="Helvetica,sans-Serif" font-size="10.00" fill="#000000">mutt_curses_set_color</text>
</a>
</g>
</g>
<!-- Node9231&#45;&gt;Node9232 -->
<g id="edge1" class="edge">
<title>Node9231&#45;&gt;Node9232</title>
<path fill="none" stroke="#191970" d="M60.6691,-95.5853C76.4232,-108.0984 105.7827,-129.9386 134,-143 139.006,-145.3172 144.3558,-147.412 149.7679,-149.29"/>
<polygon fill="#191970" stroke="#191970" points="148.9242,-152.6955 159.5159,-152.4375 151.0751,-146.0341 148.9242,-152.6955"/>
</g>
<!-- Node9233 -->
<g id="node3" class="node">
<title>Node9233</title>
<g id="a_node3"><a xlink:href="mutt__window_8c.html#ae914e6b3e3ce0857086ec112e26fa568" target="_top" xlink:title="Move the cursor and write a formatted string to a Window. ">
<polygon fill="#ffffff" stroke="#ff0000" points="134,-114.5 134,-133.5 268,-133.5 268,-114.5 134,-114.5"/>
<text text-anchor="middle" x="201" y="-121.5" font-family="Helvetica,sans-Serif" font-size="10.00" fill="#000000">mutt_window_mvprintw</text>
</a>
</g>
</g>
<!-- Node9231&#45;&gt;Node9233 -->
<g id="edge2" class="edge">
<title>Node9231&#45;&gt;Node9233</title>
<path fill="none" stroke="#191970" d="M87.356,-95.589C107.3237,-100.5809 131.9295,-106.7324 153.1334,-112.0334"/>
<polygon fill="#191970" stroke="#191970" points="152.3695,-115.45 162.9198,-114.4799 154.0673,-108.659 152.3695,-115.45"/>
</g>
<!-- Node9237 -->
<g id="node4" class="node">
<title>Node9237</title>
<g id="a_node4"><a xlink:href="mutt__window_8c.html#a6066d3d1f3ef4001aea575d0abe012b2" target="_top" xlink:title="Write a string to a Window. ">
<polygon fill="#ffffff" stroke="#000000" points="141.5,-76.5 141.5,-95.5 260.5,-95.5 260.5,-76.5 141.5,-76.5"/>
<text text-anchor="middle" x="201" y="-83.5" font-family="Helvetica,sans-Serif" font-size="10.00" fill="#000000">mutt_window_addstr</text>
</a>
</g>
</g>
<!-- Node9231&#45;&gt;Node9237 -->
<g id="edge3" class="edge">
<title>Node9231&#45;&gt;Node9237</title>
<path fill="none" stroke="#191970" d="M98.35,-86C108.8363,-86 120.0976,-86 131.1823,-86"/>
<polygon fill="#191970" stroke="#191970" points="131.2852,-89.5001 141.2852,-86 131.2851,-82.5001 131.2852,-89.5001"/>
</g>
<!-- Node9238 -->
<g id="node5" class="node">
<title>Node9238</title>
<g id="a_node5"><a xlink:href="mutt__window_8c.html#ae2ba61d0bc2413c09e6a12f1fe345ab4" target="_top" xlink:title="Clear to the end of the line. ">
<polygon fill="#ffffff" stroke="#000000" points="138.5,-38.5 138.5,-57.5 263.5,-57.5 263.5,-38.5 138.5,-38.5"/>
<text text-anchor="middle" x="201" y="-45.5" font-family="Helvetica,sans-Serif" font-size="10.00" fill="#000000">mutt_window_clrtoeol</text>
</a>
</g>
</g>
<!-- Node9231&#45;&gt;Node9238 -->
<g id="edge4" class="edge">
<title>Node9231&#45;&gt;Node9238</title>
<path fill="none" stroke="#191970" d="M87.356,-76.411C107.3237,-71.4191 131.9295,-65.2676 153.1334,-59.9666"/>
<polygon fill="#191970" stroke="#191970" points="154.0673,-63.341 162.9198,-57.5201 152.3695,-56.55 154.0673,-63.341"/>
</g>
<!-- Node9239 -->
<g id="node6" class="node">
<title>Node9239</title>
<g id="a_node6"><a xlink:href="mutt_2string_8c.html#aca11f88d08a860c07419df3efb18f35a" target="_top" xlink:title="Calculate the length of a string, safely. ">
<polygon fill="#ffffff" stroke="#000000" points="155.5,-.5 155.5,-19.5 246.5,-19.5 246.5,-.5 155.5,-.5"/>
<text text-anchor="middle" x="201" y="-7.5" font-family="Helvetica,sans-Serif" font-size="10.00" fill="#000000">mutt_str_strlen</text>
</a>
</g>
</g>
<!-- Node9231&#45;&gt;Node9239 -->
<g id="edge5" class="edge">
<title>Node9231&#45;&gt;Node9239</title>
<path fill="none" stroke="#191970" d="M60.6691,-76.4147C76.4232,-63.9016 105.7827,-42.0614 134,-29 139.006,-26.6828 144.3558,-24.588 149.7679,-22.71"/>
<polygon fill="#191970" stroke="#191970" points="151.0751,-25.9659 159.5159,-19.5625 148.9242,-19.3045 151.0751,-25.9659"/>
</g>
</g>
</svg>
