<?xml version="1.0" encoding="UTF-8" standalone="no"?>
<!DOCTYPE svg PUBLIC "-//W3C//DTD SVG 1.1//EN"
 "http://www.w3.org/Graphics/SVG/1.1/DTD/svg11.dtd">
<!-- Generated by graphviz version 12.2.1 (20241206.2353)
 -->
<!-- Title: gen_cid Pages: 1 -->
<svg width="213pt" height="100pt"
 viewBox="0.00 0.00 213.25 99.50" xmlns="http://www.w3.org/2000/svg" xmlns:xlink="http://www.w3.org/1999/xlink">
<g id="graph0" class="graph" transform="scale(1 1) rotate(0) translate(4 95.5)">
<title>gen_cid</title>
<!-- Node1 -->
<g id="Node000001" class="node">
<title>Node1</title>
<g id="a_Node000001"><a xlink:title="Generate a random Content ID.">
<polygon fill="#999999" stroke="#666666" points="205.25,-56.38 154,-56.38 154,-34.12 205.25,-34.12 205.25,-56.38"/>
<text text-anchor="middle" x="179.62" y="-42.88" font-family="Helvetica,sans-Serif" font-size="10.00">gen_cid</text>
</a>
</g>
</g>
<!-- Node2 -->
<g id="Node000002" class="node">
<title>Node2</title>
<g id="a_Node000002"><a xlink:href="group__compose__function__api.html#gabcb9c8e736747602d590188a2583c349" target="_top" xlink:title="Edit the &#39;Content&#45;ID&#39; of the attachment &#45; Implements compose_function_t &#45;.">
<polygon fill="white" stroke="#666666" points="113.12,-91.5 4.88,-91.5 4.88,-55 113.12,-55 113.12,-91.5"/>
<text text-anchor="start" x="12.88" y="-78" font-family="Helvetica,sans-Serif" font-size="10.00">op_attachment_edit</text>
<text text-anchor="middle" x="59" y="-63.75" font-family="Helvetica,sans-Serif" font-size="10.00">_content_id</text>
</a>
</g>
</g>
<!-- Node1&#45;&gt;Node2 -->
<g id="edge1_Node000001_Node000002" class="edge">
<title>Node1&#45;&gt;Node2</title>
<g id="a_edge1_Node000001_Node000002"><a xlink:title=" ">
<path fill="none" stroke="#63b8ff" d="M142.58,-53.76C133.3,-55.95 123.12,-58.35 113.18,-60.7"/>
<polygon fill="#63b8ff" stroke="#63b8ff" points="143.36,-57.17 152.28,-51.47 141.75,-50.36 143.36,-57.17"/>
</a>
</g>
</g>
<!-- Node3 -->
<g id="Node000003" class="node">
<title>Node3</title>
<g id="a_Node000003"><a xlink:href="group__compose__function__api.html#ga3f08adde5f181891d0eae42d93306e84" target="_top" xlink:title="Group tagged attachments as &#39;multipart/related&#39; &#45; Implements compose_function_t &#45;.">
<polygon fill="white" stroke="#666666" points="118,-36.5 0,-36.5 0,0 118,0 118,-36.5"/>
<text text-anchor="start" x="8" y="-23" font-family="Helvetica,sans-Serif" font-size="10.00">op_attachment_group</text>
<text text-anchor="middle" x="59" y="-8.75" font-family="Helvetica,sans-Serif" font-size="10.00">_related</text>
</a>
</g>
</g>
<!-- Node1&#45;&gt;Node3 -->
<g id="edge2_Node000001_Node000003" class="edge">
<title>Node1&#45;&gt;Node3</title>
<g id="a_edge2_Node000001_Node000003"><a xlink:title=" ">
<path fill="none" stroke="#63b8ff" d="M142.56,-37.04C134.8,-35.28 126.42,-33.37 118.07,-31.47"/>
<polygon fill="#63b8ff" stroke="#63b8ff" points="141.75,-40.45 152.28,-39.25 143.31,-33.62 141.75,-40.45"/>
</a>
</g>
</g>
</g>
</svg>
