<?xml version="1.0" encoding="UTF-8" standalone="no"?>
<!DOCTYPE svg PUBLIC "-//W3C//DTD SVG 1.1//EN"
 "http://www.w3.org/Graphics/SVG/1.1/DTD/svg11.dtd">
<!-- Generated by graphviz version 2.44.0 (0)
 -->
<!-- Title: execute_command Pages: 1 -->
<svg width="406pt" height="180pt"
 viewBox="0.00 0.00 406.00 180.00" xmlns="http://www.w3.org/2000/svg" xmlns:xlink="http://www.w3.org/1999/xlink">
<g id="graph0" class="graph" transform="scale(1 1) rotate(0) translate(4 176)">
<title>execute_command</title>
<polygon fill="white" stroke="transparent" points="-4,4 -4,-176 402,-176 402,4 -4,4"/>
<!-- Node1 -->
<g id="node1" class="node">
<title>Node1</title>
<g id="a_node1"><a xlink:title="Run a system command.">
<polygon fill="#bfbfbf" stroke="black" points="300,-76.5 300,-95.5 398,-95.5 398,-76.5 300,-76.5"/>
<text text-anchor="middle" x="349" y="-83.5" font-family="Helvetica" font-size="10.00">execute_command</text>
</a>
</g>
</g>
<!-- Node2 -->
<g id="node2" class="node">
<title>Node2</title>
<g id="a_node2"><a xlink:href="compmbox_2compress_8c.html#abf3eceb782a3061fe668121697cc2e22" target="_top" xlink:title="Check for new mail &#45; Implements MxOps::mbox_check()">
<polygon fill="white" stroke="black" points="147,-152.5 147,-171.5 248,-171.5 248,-152.5 147,-152.5"/>
<text text-anchor="middle" x="197.5" y="-159.5" font-family="Helvetica" font-size="10.00">comp_mbox_check</text>
</a>
</g>
</g>
<!-- Node1&#45;&gt;Node2 -->
<g id="edge1" class="edge">
<title>Node1&#45;&gt;Node2</title>
<path fill="none" stroke="midnightblue" d="M326.1,-101.27C309.55,-112.39 285.99,-127.3 264,-138 252.67,-143.51 239.74,-148.5 228.37,-152.49"/>
<polygon fill="midnightblue" stroke="midnightblue" points="328.22,-104.06 334.52,-95.54 324.28,-98.28 328.22,-104.06"/>
</g>
<!-- Node3 -->
<g id="node3" class="node">
<title>Node3</title>
<g id="a_node3"><a xlink:href="compmbox_2compress_8c.html#adeb7755ceb989e6dc91e9afa2ff9e84e" target="_top" xlink:title="Save changes to the Mailbox &#45; Implements MxOps::mbox_sync()">
<polygon fill="white" stroke="black" points="0,-133.5 0,-152.5 95,-152.5 95,-133.5 0,-133.5"/>
<text text-anchor="middle" x="47.5" y="-140.5" font-family="Helvetica" font-size="10.00">comp_mbox_sync</text>
</a>
</g>
</g>
<!-- Node1&#45;&gt;Node3 -->
<g id="edge6" class="edge">
<title>Node1&#45;&gt;Node3</title>
<path fill="none" stroke="midnightblue" d="M297.56,-97.82C286.53,-100.29 274.89,-102.81 264,-105 206.08,-116.65 139.02,-128.17 95.28,-135.41"/>
<polygon fill="midnightblue" stroke="midnightblue" points="298.51,-101.19 307.5,-95.57 296.97,-94.37 298.51,-101.19"/>
</g>
<!-- Node4 -->
<g id="node4" class="node">
<title>Node4</title>
<g id="a_node4"><a xlink:href="compmbox_2compress_8c.html#ac39b99d890436a70c50814a4701ed597" target="_top" xlink:title="Close a Mailbox &#45; Implements MxOps::mbox_close()">
<polygon fill="white" stroke="black" points="148.5,-76.5 148.5,-95.5 246.5,-95.5 246.5,-76.5 148.5,-76.5"/>
<text text-anchor="middle" x="197.5" y="-83.5" font-family="Helvetica" font-size="10.00">comp_mbox_close</text>
</a>
</g>
</g>
<!-- Node1&#45;&gt;Node4 -->
<g id="edge3" class="edge">
<title>Node1&#45;&gt;Node4</title>
<path fill="none" stroke="midnightblue" d="M289.66,-86C275.38,-86 260.27,-86 246.54,-86"/>
<polygon fill="midnightblue" stroke="midnightblue" points="289.87,-89.5 299.87,-86 289.87,-82.5 289.87,-89.5"/>
</g>
<!-- Node5 -->
<g id="node5" class="node">
<title>Node5</title>
<g id="a_node5"><a xlink:href="compmbox_2compress_8c.html#a017f8938078bb770eb825f2de2e588b0" target="_top" xlink:title="Open a Mailbox &#45; Implements MxOps::mbox_open()">
<polygon fill="white" stroke="black" points="149.5,-38.5 149.5,-57.5 245.5,-57.5 245.5,-38.5 149.5,-38.5"/>
<text text-anchor="middle" x="197.5" y="-45.5" font-family="Helvetica" font-size="10.00">comp_mbox_open</text>
</a>
</g>
</g>
<!-- Node1&#45;&gt;Node5 -->
<g id="edge4" class="edge">
<title>Node1&#45;&gt;Node5</title>
<path fill="none" stroke="midnightblue" d="M300.35,-73.89C279.53,-68.6 255.46,-62.48 235.95,-57.52"/>
<polygon fill="midnightblue" stroke="midnightblue" points="299.72,-77.34 310.27,-76.41 301.45,-70.56 299.72,-77.34"/>
</g>
<!-- Node6 -->
<g id="node6" class="node">
<title>Node6</title>
<g id="a_node6"><a xlink:href="compmbox_2compress_8c.html#a5411107efad334d6cfdf124b9856e673" target="_top" xlink:title="Open a Mailbox for appending &#45; Implements MxOps::mbox_open_append()">
<polygon fill="white" stroke="black" points="131,-0.5 131,-19.5 264,-19.5 264,-0.5 131,-0.5"/>
<text text-anchor="middle" x="197.5" y="-7.5" font-family="Helvetica" font-size="10.00">comp_mbox_open_append</text>
</a>
</g>
</g>
<!-- Node1&#45;&gt;Node6 -->
<g id="edge5" class="edge">
<title>Node1&#45;&gt;Node6</title>
<path fill="none" stroke="midnightblue" d="M328.25,-69.96C311.88,-57.33 287.55,-40.07 264,-29 256.07,-25.27 247.25,-22.11 238.72,-19.51"/>
<polygon fill="midnightblue" stroke="midnightblue" points="326.45,-73 336.48,-76.43 330.78,-67.5 326.45,-73"/>
</g>
<!-- Node2&#45;&gt;Node3 -->
<g id="edge2" class="edge">
<title>Node2&#45;&gt;Node3</title>
<path fill="none" stroke="midnightblue" d="M136.88,-154.35C123.04,-152.57 108.51,-150.7 95.31,-149.01"/>
<polygon fill="midnightblue" stroke="midnightblue" points="136.44,-157.82 146.81,-155.62 137.33,-150.88 136.44,-157.82"/>
</g>
</g>
</svg>
