<?xml version="1.0" encoding="UTF-8" standalone="no"?>
<!DOCTYPE svg PUBLIC "-//W3C//DTD SVG 1.1//EN"
 "http://www.w3.org/Graphics/SVG/1.1/DTD/svg11.dtd">
<!-- Generated by graphviz version 12.2.1 (20241206.2353)
 -->
<!-- Title: attach_leaf Pages: 1 -->
<svg width="344pt" height="50pt"
 viewBox="0.00 0.00 344.00 50.25" xmlns="http://www.w3.org/2000/svg" xmlns:xlink="http://www.w3.org/1999/xlink">
<g id="graph0" class="graph" transform="scale(1 1) rotate(0) translate(4 46.25)">
<title>attach_leaf</title>
<!-- Node1 -->
<g id="Node000001" class="node">
<title>Node1</title>
<g id="a_Node000001"><a xlink:title="Attach a Pattern to a Pattern List.">
<polygon fill="#999999" stroke="#666666" points="336,-22.25 269.75,-22.25 269.75,0 336,0 336,-22.25"/>
<text text-anchor="middle" x="302.88" y="-8.75" font-family="Helvetica,sans-Serif" font-size="10.00">attach_leaf</text>
</a>
</g>
</g>
<!-- Node2 -->
<g id="Node000002" class="node">
<title>Node2</title>
<g id="a_Node000002"><a xlink:href="compile_8c.html#a4252a4aa015f0814f9017d7610a1a346" target="_top" xlink:title="Attach a new Pattern to a List.">
<polygon fill="white" stroke="#666666" points="233.75,-42.25 144.25,-42.25 144.25,-20 233.75,-20 233.75,-42.25"/>
<text text-anchor="middle" x="189" y="-28.75" font-family="Helvetica,sans-Serif" font-size="10.00">attach_new_leaf</text>
</a>
</g>
</g>
<!-- Node1&#45;&gt;Node2 -->
<g id="edge1_Node000001_Node000002" class="edge">
<title>Node1&#45;&gt;Node2</title>
<g id="a_edge1_Node000001_Node000002"><a xlink:title=" ">
<path fill="none" stroke="#63b8ff" d="M258.46,-18.89C250.41,-20.33 242,-21.83 233.94,-23.27"/>
<polygon fill="#63b8ff" stroke="#63b8ff" points="258.8,-22.38 268.03,-17.18 257.57,-15.49 258.8,-22.38"/>
</a>
</g>
</g>
<!-- Node3 -->
<g id="Node000003" class="node">
<title>Node3</title>
<g id="a_Node000003"><a xlink:href="compile_8c.html#a43039fbeb001087dad2a07081ca9526e" target="_top" xlink:title="Create a Pattern.">
<polygon fill="#fff0f0" stroke="red" points="108.25,-22.25 0,-22.25 0,0 108.25,0 108.25,-22.25"/>
<text text-anchor="middle" x="54.12" y="-8.75" font-family="Helvetica,sans-Serif" font-size="10.00">mutt_pattern_comp</text>
</a>
</g>
</g>
<!-- Node1&#45;&gt;Node3 -->
<g id="edge4_Node000001_Node000003" class="edge">
<title>Node1&#45;&gt;Node3</title>
<g id="a_edge4_Node000001_Node000003"><a xlink:title=" ">
<path fill="none" stroke="#63b8ff" d="M257.9,-11.12C216.1,-11.12 153.15,-11.12 108.5,-11.12"/>
<polygon fill="#63b8ff" stroke="#63b8ff" points="257.85,-14.63 267.85,-11.13 257.85,-7.63 257.85,-14.63"/>
</a>
</g>
</g>
<!-- Node2&#45;&gt;Node3 -->
<g id="edge2_Node000002_Node000003" class="edge">
<title>Node2&#45;&gt;Node3</title>
<g id="a_edge2_Node000002_Node000003"><a xlink:title=" ">
<path fill="none" stroke="#63b8ff" d="M132.62,-22.79C124.61,-21.58 116.38,-20.34 108.41,-19.14"/>
<polygon fill="#63b8ff" stroke="#63b8ff" points="131.85,-26.21 142.26,-24.24 132.89,-19.29 131.85,-26.21"/>
</a>
</g>
</g>
<!-- Node3&#45;&gt;Node3 -->
<g id="edge3_Node000003_Node000003" class="edge">
<title>Node3&#45;&gt;Node3</title>
<g id="a_edge3_Node000003_Node000003"><a xlink:title=" ">
<path fill="none" stroke="#63b8ff" d="M77.75,-33.7C74.53,-37.57 66.66,-40.25 54.12,-40.25 31.21,-40.25 23.87,-31.28 32.1,-22.49"/>
<polygon fill="#63b8ff" stroke="#63b8ff" points="81.24,-33.39 76.36,-23.98 74.31,-34.38 81.24,-33.39"/>
</a>
</g>
</g>
</g>
</svg>
