<?xml version="1.0" encoding="UTF-8" standalone="no"?>
<!DOCTYPE svg PUBLIC "-//W3C//DTD SVG 1.1//EN"
 "http://www.w3.org/Graphics/SVG/1.1/DTD/svg11.dtd">
<!-- Generated by graphviz version 12.2.1 (20241206.2353)
 -->
<!-- Title: group_attachments Pages: 1 -->
<svg width="436pt" height="580pt"
 viewBox="0.00 0.00 435.50 580.25" xmlns="http://www.w3.org/2000/svg" xmlns:xlink="http://www.w3.org/1999/xlink">
<g id="graph0" class="graph" transform="scale(1 1) rotate(0) translate(4 576.25)">
<title>group_attachments</title>
<!-- Node1 -->
<g id="Node000001" class="node">
<title>Node1</title>
<g id="a_Node000001"><a xlink:title="Group tagged attachments into a multipart group.">
<polygon fill="#999999" stroke="#666666" points="106,-262.25 0,-262.25 0,-240 106,-240 106,-262.25"/>
<text text-anchor="middle" x="53" y="-248.75" font-family="Helvetica,sans-Serif" font-size="10.00">group_attachments</text>
</a>
</g>
</g>
<!-- Node2 -->
<g id="Node000002" class="node">
<title>Node2</title>
<g id="a_Node000002"><a xlink:href="attach_2lib_8c.html#ab7095744eddadbe88894b8597c6295b6" target="_top" xlink:title="Count bodies.">
<polygon fill="white" stroke="#666666" points="261.12,-554.25 158.12,-554.25 158.12,-532 261.12,-532 261.12,-554.25"/>
<text text-anchor="middle" x="209.62" y="-540.75" font-family="Helvetica,sans-Serif" font-size="10.00">attach_body_count</text>
</a>
</g>
</g>
<!-- Node1&#45;&gt;Node2 -->
<g id="edge1_Node000001_Node000002" class="edge">
<title>Node1&#45;&gt;Node2</title>
<g id="a_edge1_Node000001_Node000002"><a xlink:title=" ">
<path fill="none" stroke="#63b8ff" d="M54.14,-262.61C55.28,-304.07 64.86,-447.61 142,-523.12 143.82,-524.91 145.8,-526.54 147.89,-528.02"/>
<polygon fill="#63b8ff" stroke="#63b8ff" points="145.95,-530.94 156.37,-532.88 149.43,-524.87 145.95,-530.94"/>
</a>
</g>
</g>
<!-- Node3 -->
<g id="Node000003" class="node">
<title>Node3</title>
<g id="a_Node000003"><a xlink:href="attach_2lib_8c.html#a66fd8fd268bcf138333a995f1cca3355" target="_top" xlink:title="Find the parent of a body.">
<polygon fill="white" stroke="#666666" points="263.38,-496.25 155.88,-496.25 155.88,-474 263.38,-474 263.38,-496.25"/>
<text text-anchor="middle" x="209.62" y="-482.75" font-family="Helvetica,sans-Serif" font-size="10.00">attach_body_parent</text>
</a>
</g>
</g>
<!-- Node1&#45;&gt;Node3 -->
<g id="edge3_Node000001_Node000003" class="edge">
<title>Node1&#45;&gt;Node3</title>
<g id="a_edge3_Node000001_Node000003"><a xlink:title=" ">
<path fill="none" stroke="#63b8ff" d="M55.25,-262.35C59.78,-297.68 78.59,-407.67 142,-465.12 143.26,-466.27 144.58,-467.34 145.95,-468.35"/>
<polygon fill="#63b8ff" stroke="#63b8ff" points="143.99,-471.26 154.36,-473.42 147.6,-465.26 143.99,-471.26"/>
</a>
</g>
</g>
<!-- Node4 -->
<g id="Node000004" class="node">
<title>Node4</title>
<g id="a_Node000004"><a xlink:href="attach_2lib_8c.html#af05337416de845ffb859c40809fba19a" target="_top" xlink:title="Find the previous body of a body.">
<polygon fill="white" stroke="#666666" points="267.5,-438.25 151.75,-438.25 151.75,-416 267.5,-416 267.5,-438.25"/>
<text text-anchor="middle" x="209.62" y="-424.75" font-family="Helvetica,sans-Serif" font-size="10.00">attach_body_previous</text>
</a>
</g>
</g>
<!-- Node1&#45;&gt;Node4 -->
<g id="edge5_Node000001_Node000004" class="edge">
<title>Node1&#45;&gt;Node4</title>
<g id="a_edge5_Node000001_Node000004"><a xlink:title=" ">
<path fill="none" stroke="#63b8ff" d="M57.56,-262.34C66.9,-290.02 94.7,-362.2 142,-402.12 145.82,-405.35 150.1,-408.18 154.59,-410.66"/>
<polygon fill="#63b8ff" stroke="#63b8ff" points="152.8,-413.68 163.32,-414.89 155.85,-407.38 152.8,-413.68"/>
</a>
</g>
</g>
<!-- Node5 -->
<g id="Node000005" class="node">
<title>Node5</title>
<g id="a_Node000005"><a xlink:href="menu_8c.html#a5a9733924cc01176ee916515a3683268" target="_top" xlink:title="Queue a request for a redraw.">
<polygon fill="white" stroke="#666666" points="427.5,-210.25 313.25,-210.25 313.25,-188 427.5,-188 427.5,-210.25"/>
<text text-anchor="middle" x="370.38" y="-196.75" font-family="Helvetica,sans-Serif" font-size="10.00">menu_queue_redraw</text>
</a>
</g>
</g>
<!-- Node1&#45;&gt;Node5 -->
<g id="edge7_Node000001_Node000005" class="edge">
<title>Node1&#45;&gt;Node5</title>
<g id="a_edge7_Node000001_Node000005"><a xlink:title=" ">
<path fill="none" stroke="#63b8ff" d="M58.38,-262.68C68.58,-287.67 96.54,-346.32 142,-369.12 195.73,-396.08 225.6,-399.88 277.25,-369.12 331.64,-336.73 355.89,-259.81 364.89,-221.54"/>
<polygon fill="#63b8ff" stroke="#63b8ff" points="368.25,-222.58 366.97,-212.06 361.41,-221.08 368.25,-222.58"/>
</a>
</g>
</g>
<!-- Node6 -->
<g id="Node000006" class="node">
<title>Node6</title>
<g id="a_Node000006"><a xlink:href="attach_2attach_8c.html#a1eab9e48b9d6abe7ab6583614f2c62b7" target="_top" xlink:title="Insert an Attachment into an Attachment Context at Specified Index.">
<polygon fill="white" stroke="#666666" points="265.62,-360.25 153.62,-360.25 153.62,-338 265.62,-338 265.62,-360.25"/>
<text text-anchor="middle" x="209.62" y="-346.75" font-family="Helvetica,sans-Serif" font-size="10.00">mutt_actx_ins_attach</text>
</a>
</g>
</g>
<!-- Node1&#45;&gt;Node6 -->
<g id="edge8_Node000001_Node000006" class="edge">
<title>Node1&#45;&gt;Node6</title>
<g id="a_edge8_Node000001_Node000006"><a xlink:title=" ">
<path fill="none" stroke="#63b8ff" d="M63.92,-262.65C79.1,-279.59 109.72,-311.14 142,-329.12 144.68,-330.62 147.48,-332.01 150.35,-333.31"/>
<polygon fill="#63b8ff" stroke="#63b8ff" points="149,-336.54 159.58,-337.04 151.62,-330.05 149,-336.54"/>
</a>
</g>
</g>
<!-- Node7 -->
<g id="Node000007" class="node">
<title>Node7</title>
<g id="a_Node000007"><a xlink:href="attach_2attach_8c.html#a391fb25384a6e0c205de35fb24a1cc24" target="_top" xlink:title="Create a new Attachment Pointer.">
<polygon fill="white" stroke="#666666" points="252.5,-320.25 166.75,-320.25 166.75,-298 252.5,-298 252.5,-320.25"/>
<text text-anchor="middle" x="209.62" y="-306.75" font-family="Helvetica,sans-Serif" font-size="10.00">mutt_aptr_new</text>
</a>
</g>
</g>
<!-- Node1&#45;&gt;Node7 -->
<g id="edge9_Node000001_Node000007" class="edge">
<title>Node1&#45;&gt;Node7</title>
<g id="a_edge9_Node000001_Node000007"><a xlink:title=" ">
<path fill="none" stroke="#63b8ff" d="M78.72,-262.72C96.19,-270.68 120.27,-281.2 142,-289.12 146.72,-290.85 151.67,-292.54 156.65,-294.16"/>
<polygon fill="#63b8ff" stroke="#63b8ff" points="155.47,-297.46 166.06,-297.14 157.58,-290.79 155.47,-297.46"/>
</a>
</g>
</g>
<!-- Node8 -->
<g id="Node000008" class="node">
<title>Node8</title>
<g id="a_Node000008"><a xlink:href="email_2body_8c.html#a129af1c316fcbc26b55fb48957bab2cb" target="_top" xlink:title="Free a Body.">
<polygon fill="#fff0f0" stroke="red" points="254.75,-262.25 164.5,-262.25 164.5,-240 254.75,-240 254.75,-262.25"/>
<text text-anchor="middle" x="209.62" y="-248.75" font-family="Helvetica,sans-Serif" font-size="10.00">mutt_body_free</text>
</a>
</g>
</g>
<!-- Node1&#45;&gt;Node8 -->
<g id="edge10_Node000001_Node000008" class="edge">
<title>Node1&#45;&gt;Node8</title>
<g id="a_edge10_Node000001_Node000008"><a xlink:title=" ">
<path fill="none" stroke="#63b8ff" d="M106.35,-251.12C121.29,-251.12 137.62,-251.12 152.77,-251.12"/>
<polygon fill="#63b8ff" stroke="#63b8ff" points="152.56,-254.63 162.56,-251.13 152.56,-247.63 152.56,-254.63"/>
</a>
</g>
</g>
<!-- Node26 -->
<g id="Node000026" class="node">
<title>Node26</title>
<g id="a_Node000026"><a xlink:href="email_2body_8c.html#a37b346253e3b97aa64bb38ffc8d1ea0c" target="_top" xlink:title="Create a new Body.">
<polygon fill="white" stroke="#666666" points="254.38,-222.25 164.88,-222.25 164.88,-200 254.38,-200 254.38,-222.25"/>
<text text-anchor="middle" x="209.62" y="-208.75" font-family="Helvetica,sans-Serif" font-size="10.00">mutt_body_new</text>
</a>
</g>
</g>
<!-- Node1&#45;&gt;Node26 -->
<g id="edge12_Node000001_Node000026" class="edge">
<title>Node1&#45;&gt;Node26</title>
<g id="a_edge12_Node000001_Node000026"><a xlink:title=" ">
<path fill="none" stroke="#63b8ff" d="M98.72,-239.56C115.86,-235.12 135.61,-230.01 153.6,-225.36"/>
<polygon fill="#63b8ff" stroke="#63b8ff" points="154.27,-228.8 163.07,-222.91 152.51,-222.03 154.27,-228.8"/>
</a>
</g>
</g>
<!-- Node27 -->
<g id="Node000027" class="node">
<title>Node27</title>
<g id="a_Node000027"><a xlink:href="multipart_8c.html#af4c3a6ae771ff84860d31fbd54325af3" target="_top" xlink:title="Create a unique boundary id for a MIME part.">
<polygon fill="#fff0f0" stroke="red" points="277.25,-182.25 142,-182.25 142,-160 277.25,-160 277.25,-182.25"/>
<text text-anchor="middle" x="209.62" y="-168.75" font-family="Helvetica,sans-Serif" font-size="10.00">mutt_generate_boundary</text>
</a>
</g>
</g>
<!-- Node1&#45;&gt;Node27 -->
<g id="edge13_Node000001_Node000027" class="edge">
<title>Node1&#45;&gt;Node27</title>
<g id="a_edge13_Node000001_Node000027"><a xlink:title=" ">
<path fill="none" stroke="#63b8ff" d="M67.81,-239.71C84.48,-226.42 113.79,-204.58 142,-191.12 145.32,-189.54 148.8,-188.05 152.35,-186.65"/>
<polygon fill="#63b8ff" stroke="#63b8ff" points="153.49,-189.96 161.7,-183.26 151.1,-183.38 153.49,-189.96"/>
</a>
</g>
</g>
<!-- Node38 -->
<g id="Node000038" class="node">
<title>Node38</title>
<g id="a_Node000038"><a xlink:href="hook_8c.html#af487ca5e3f7da21c86e3ad61fdb55faa" target="_top" xlink:title="Perform a message hook.">
<polygon fill="#fff0f0" stroke="red" points="265.62,-142.25 153.62,-142.25 153.62,-120 265.62,-120 265.62,-142.25"/>
<text text-anchor="middle" x="209.62" y="-128.75" font-family="Helvetica,sans-Serif" font-size="10.00">mutt_message_hook</text>
</a>
</g>
</g>
<!-- Node1&#45;&gt;Node38 -->
<g id="edge14_Node000001_Node000038" class="edge">
<title>Node1&#45;&gt;Node38</title>
<g id="a_edge14_Node000001_Node000038"><a xlink:title=" ">
<path fill="none" stroke="#63b8ff" d="M60.95,-239.67C74.13,-218.9 104.82,-174.98 142,-151.12 144.11,-149.77 146.31,-148.51 148.58,-147.33"/>
<polygon fill="#63b8ff" stroke="#63b8ff" points="149.82,-150.61 157.47,-143.29 146.92,-144.24 149.82,-150.61"/>
</a>
</g>
</g>
<!-- Node33 -->
<g id="Node000033" class="node">
<title>Node33</title>
<g id="a_Node000033"><a xlink:href="mutt_2string_8c.html#a3fe33d90e4814281cd57de048119c950" target="_top" xlink:title="Copy a string, safely.">
<polygon fill="#fff0f0" stroke="red" points="248.75,-102.25 170.5,-102.25 170.5,-80 248.75,-80 248.75,-102.25"/>
<text text-anchor="middle" x="209.62" y="-88.75" font-family="Helvetica,sans-Serif" font-size="10.00">mutt_str_dup</text>
</a>
</g>
</g>
<!-- Node1&#45;&gt;Node33 -->
<g id="edge15_Node000001_Node000033" class="edge">
<title>Node1&#45;&gt;Node33</title>
<g id="a_edge15_Node000001_Node000033"><a xlink:title=" ">
<path fill="none" stroke="#63b8ff" d="M57.94,-239.75C67.74,-213.11 95.86,-146.25 142,-111.12 147.23,-107.14 153.25,-103.95 159.49,-101.39"/>
<polygon fill="#63b8ff" stroke="#63b8ff" points="160.4,-104.78 168.66,-98.16 158.07,-98.18 160.4,-104.78"/>
</a>
</g>
</g>
<!-- Node72 -->
<g id="Node000072" class="node">
<title>Node72</title>
<g id="a_Node000072"><a xlink:href="mutt_2string_8c.html#a6b6a50296dd2a31863a43379ef4a343d" target="_top" xlink:title="Compare two strings.">
<polygon fill="#fff0f0" stroke="red" points="252.5,-62.25 166.75,-62.25 166.75,-40 252.5,-40 252.5,-62.25"/>
<text text-anchor="middle" x="209.62" y="-48.75" font-family="Helvetica,sans-Serif" font-size="10.00">mutt_str_equal</text>
</a>
</g>
</g>
<!-- Node1&#45;&gt;Node72 -->
<g id="edge16_Node000001_Node000072" class="edge">
<title>Node1&#45;&gt;Node72</title>
<g id="a_edge16_Node000001_Node000072"><a xlink:title=" ">
<path fill="none" stroke="#63b8ff" d="M56.21,-239.91C63,-208.37 86.58,-118.17 142,-71.12 146.15,-67.6 150.91,-64.69 155.94,-62.3"/>
<polygon fill="#63b8ff" stroke="#63b8ff" points="157.12,-65.6 165.1,-58.64 154.52,-59.1 157.12,-65.6"/>
</a>
</g>
</g>
<!-- Node1294 -->
<g id="Node001294" class="node">
<title>Node1294</title>
<g id="a_Node001294"><a xlink:href="dlg__compose_8c.html#a51ed67e9d27545c7982d196826bbc7bc" target="_top" xlink:title="Redraw the compose window.">
<polygon fill="#fff0f0" stroke="red" points="249.88,-22.25 169.38,-22.25 169.38,0 249.88,0 249.88,-22.25"/>
<text text-anchor="middle" x="209.62" y="-8.75" font-family="Helvetica,sans-Serif" font-size="10.00">update_menu</text>
</a>
</g>
</g>
<!-- Node1&#45;&gt;Node1294 -->
<g id="edge17_Node000001_Node001294" class="edge">
<title>Node1&#45;&gt;Node1294</title>
<g id="a_edge17_Node000001_Node001294"><a xlink:title=" ">
<path fill="none" stroke="#63b8ff" d="M55.14,-239.6C59.36,-203.29 77.35,-90.27 142,-31.12 146.79,-26.74 152.52,-23.31 158.57,-20.64"/>
<polygon fill="#63b8ff" stroke="#63b8ff" points="159.36,-24.07 167.53,-17.33 156.94,-17.51 159.36,-24.07"/>
</a>
</g>
</g>
<!-- Node2&#45;&gt;Node2 -->
<g id="edge2_Node000002_Node000002" class="edge">
<title>Node2&#45;&gt;Node2</title>
<g id="a_edge2_Node000002_Node000002"><a xlink:title=" ">
<path fill="none" stroke="#63b8ff" d="M184.05,-554.49C174.49,-563.28 183.01,-572.25 209.62,-572.25 224.18,-572.25 233.32,-569.57 237.06,-565.7"/>
<polygon fill="#63b8ff" stroke="#63b8ff" points="240.54,-565.27 235.45,-555.98 233.63,-566.42 240.54,-565.27"/>
</a>
</g>
</g>
<!-- Node3&#45;&gt;Node3 -->
<g id="edge4_Node000003_Node000003" class="edge">
<title>Node3&#45;&gt;Node3</title>
<g id="a_edge4_Node000003_Node000003"><a xlink:title=" ">
<path fill="none" stroke="#63b8ff" d="M184.05,-496.49C174.49,-505.28 183.01,-514.25 209.62,-514.25 224.18,-514.25 233.32,-511.57 237.06,-507.7"/>
<polygon fill="#63b8ff" stroke="#63b8ff" points="240.54,-507.27 235.45,-497.98 233.63,-508.42 240.54,-507.27"/>
</a>
</g>
</g>
<!-- Node4&#45;&gt;Node4 -->
<g id="edge6_Node000004_Node000004" class="edge">
<title>Node4&#45;&gt;Node4</title>
<g id="a_edge6_Node000004_Node000004"><a xlink:title=" ">
<path fill="none" stroke="#63b8ff" d="M184.05,-438.49C174.49,-447.28 183.01,-456.25 209.62,-456.25 224.18,-456.25 233.32,-453.57 237.06,-449.7"/>
<polygon fill="#63b8ff" stroke="#63b8ff" points="240.54,-449.27 235.45,-439.98 233.63,-450.42 240.54,-449.27"/>
</a>
</g>
</g>
<!-- Node8&#45;&gt;Node8 -->
<g id="edge11_Node000008_Node000008" class="edge">
<title>Node8&#45;&gt;Node8</title>
<g id="a_edge11_Node000008_Node000008"><a xlink:title=" ">
<path fill="none" stroke="#63b8ff" d="M184.05,-262.49C174.49,-271.28 183.01,-280.25 209.62,-280.25 224.18,-280.25 233.32,-277.57 237.06,-273.7"/>
<polygon fill="#63b8ff" stroke="#63b8ff" points="240.54,-273.27 235.45,-263.98 233.63,-274.42 240.54,-273.27"/>
</a>
</g>
</g>
<!-- Node1294&#45;&gt;Node5 -->
<g id="edge18_Node001294_Node000005" class="edge">
<title>Node1294&#45;&gt;Node5</title>
<g id="a_edge18_Node001294_Node000005"><a xlink:title=" ">
<path fill="none" stroke="#63b8ff" d="M250.11,-17.54C259.72,-20.5 269.46,-24.82 277.25,-31.12 325.34,-70.04 352.18,-141.08 363.26,-177.03"/>
<polygon fill="#63b8ff" stroke="#63b8ff" points="359.82,-177.72 366,-186.33 366.53,-175.74 359.82,-177.72"/>
</a>
</g>
</g>
</g>
</svg>
