<?xml version="1.0" encoding="UTF-8" standalone="no"?>
<!DOCTYPE svg PUBLIC "-//W3C//DTD SVG 1.1//EN"
 "http://www.w3.org/Graphics/SVG/1.1/DTD/svg11.dtd">
<!-- Generated by graphviz version 2.40.1 (20161225.0304)
 -->
<!-- Title: config/slist.h Pages: 1 -->
<svg width="174pt" height="84pt"
 viewBox="0.00 0.00 173.50 84.00" xmlns="http://www.w3.org/2000/svg" xmlns:xlink="http://www.w3.org/1999/xlink">
<g id="graph0" class="graph" transform="scale(1 1) rotate(0) translate(4 80)">
<title>config/slist.h</title>
<polygon fill="#ffffff" stroke="transparent" points="-4,4 -4,-80 169.5,-80 169.5,4 -4,4"/>
<!-- Node1 -->
<g id="node1" class="node">
<title>Node1</title>
<polygon fill="#bfbfbf" stroke="#000000" points="42,-56.5 42,-75.5 120,-75.5 120,-56.5 42,-56.5"/>
<text text-anchor="middle" x="81" y="-63.5" font-family="Helvetica,sans-Serif" font-size="10.00" fill="#000000">config/slist.h</text>
</g>
<!-- Node2 -->
<g id="node2" class="node">
<title>Node2</title>
<g id="a_node2"><a xlink:href="config_2lib_8h.html" target="_top" xlink:title="Convenience wrapper for the config headers. ">
<polygon fill="#ffffff" stroke="#ff0000" points="0,-.5 0,-19.5 70,-19.5 70,-.5 0,-.5"/>
<text text-anchor="middle" x="35" y="-7.5" font-family="Helvetica,sans-Serif" font-size="10.00" fill="#000000">config/lib.h</text>
</a>
</g>
</g>
<!-- Node1&#45;&gt;Node2 -->
<g id="edge1" class="edge">
<title>Node1&#45;&gt;Node2</title>
<path fill="none" stroke="#191970" d="M66.6253,-48.5004C58.8029,-38.9775 49.424,-27.5596 42.9208,-19.6427"/>
<polygon fill="#191970" stroke="#191970" points="63.9354,-50.7399 72.9874,-56.2455 69.3445,-46.2967 63.9354,-50.7399"/>
</g>
<!-- Node185 -->
<g id="node3" class="node">
<title>Node185</title>
<g id="a_node3"><a xlink:href="config_2slist_8c.html" target="_top" xlink:title="Type representing a list of strings. ">
<polygon fill="#ffffff" stroke="#000000" points="88.5,-.5 88.5,-19.5 165.5,-19.5 165.5,-.5 88.5,-.5"/>
<text text-anchor="middle" x="127" y="-7.5" font-family="Helvetica,sans-Serif" font-size="10.00" fill="#000000">config/slist.c</text>
</a>
</g>
</g>
<!-- Node1&#45;&gt;Node185 -->
<g id="edge2" class="edge">
<title>Node1&#45;&gt;Node185</title>
<path fill="none" stroke="#191970" d="M95.3747,-48.5004C103.1971,-38.9775 112.576,-27.5596 119.0792,-19.6427"/>
<polygon fill="#191970" stroke="#191970" points="92.6555,-46.2967 89.0126,-56.2455 98.0646,-50.7399 92.6555,-46.2967"/>
</g>
</g>
</svg>
