<?xml version="1.0" encoding="UTF-8" standalone="no"?>
<!DOCTYPE svg PUBLIC "-//W3C//DTD SVG 1.1//EN"
 "http://www.w3.org/Graphics/SVG/1.1/DTD/svg11.dtd">
<!-- Generated by graphviz version 7.1.0 (0)
 -->
<!-- Title: cs_he_reset Pages: 1 -->
<svg width="224pt" height="101pt"
 viewBox="0.00 0.00 224.00 101.00" xmlns="http://www.w3.org/2000/svg" xmlns:xlink="http://www.w3.org/1999/xlink">
<g id="graph0" class="graph" transform="scale(1 1) rotate(0) translate(4 97)">
<title>cs_he_reset</title>
<!-- Node1 -->
<g id="node1" class="node">
<title>Node1</title>
<g id="a_node1"><a xlink:title="Reset a config item to its initial value.">
<polygon fill="#999999" stroke="#666666" points="216,-56 145,-56 145,-37 216,-37 216,-56"/>
<text text-anchor="middle" x="180.5" y="-44" font-family="Helvetica,sans-Serif" font-size="10.00">cs_he_reset</text>
</a>
</g>
</g>
<!-- Node2 -->
<g id="node2" class="node">
<title>Node2</title>
<g id="a_node2"><a xlink:href="config_2helpers_8c.html#aeefcd32b88c607fb2f4d2f429fe90339" target="_top" xlink:title="Set the initial value of a Config Option.">
<polygon fill="#fff0f0" stroke="red" points="109,-93 0,-93 0,-74 109,-74 109,-93"/>
<text text-anchor="middle" x="54.5" y="-81" font-family="Helvetica,sans-Serif" font-size="10.00">config_he_set_initial</text>
</a>
</g>
</g>
<!-- Node1&#45;&gt;Node2 -->
<g id="edge1" class="edge">
<title>Node1&#45;&gt;Node2</title>
<path fill="none" stroke="#63b8ff" d="M135.44,-59.65C120.1,-64.22 103.15,-69.28 88.82,-73.56"/>
<polygon fill="#63b8ff" stroke="#63b8ff" points="136.24,-63.06 144.82,-56.85 134.24,-56.35 136.24,-63.06"/>
</g>
<!-- Node12 -->
<g id="node3" class="node">
<title>Node12</title>
<g id="a_node3"><a xlink:href="config_2set_8c.html#a2c2cb475e50df247e8c88dab8c123534" target="_top" xlink:title="Reset a config item to its initial value.">
<polygon fill="#fff0f0" stroke="red" points="90,-56 19,-56 19,-37 90,-37 90,-56"/>
<text text-anchor="middle" x="54.5" y="-44" font-family="Helvetica,sans-Serif" font-size="10.00">cs_str_reset</text>
</a>
</g>
</g>
<!-- Node1&#45;&gt;Node12 -->
<g id="edge2" class="edge">
<title>Node1&#45;&gt;Node12</title>
<path fill="none" stroke="#63b8ff" d="M133.45,-46.5C119.1,-46.5 103.53,-46.5 90.11,-46.5"/>
<polygon fill="#63b8ff" stroke="#63b8ff" points="133.12,-50 143.12,-46.5 133.12,-43 133.12,-50"/>
</g>
<!-- Node13 -->
<g id="node4" class="node">
<title>Node13</title>
<g id="a_node4"><a xlink:href="subset_8c.html#a7d8a06fb9350a11d768dd4ea94119174" target="_top" xlink:title="Reset a config item to its initial value.">
<polygon fill="#fff0f0" stroke="red" points="107.5,-19 1.5,-19 1.5,0 107.5,0 107.5,-19"/>
<text text-anchor="middle" x="54.5" y="-7" font-family="Helvetica,sans-Serif" font-size="10.00">cs_subset_he_reset</text>
</a>
</g>
</g>
<!-- Node1&#45;&gt;Node13 -->
<g id="edge3" class="edge">
<title>Node1&#45;&gt;Node13</title>
<path fill="none" stroke="#63b8ff" d="M135.44,-33.35C120.1,-28.78 103.15,-23.72 88.82,-19.44"/>
<polygon fill="#63b8ff" stroke="#63b8ff" points="134.24,-36.65 144.82,-36.15 136.24,-29.94 134.24,-36.65"/>
</g>
</g>
</svg>
