<?xml version="1.0" encoding="UTF-8" standalone="no"?>
<!DOCTYPE svg PUBLIC "-//W3C//DTD SVG 1.1//EN"
 "http://www.w3.org/Graphics/SVG/1.1/DTD/svg11.dtd">
<!-- Generated by graphviz version 7.1.0 (0)
 -->
<!-- Title: cs_get_base Pages: 1 -->
<svg width="387pt" height="1072pt"
 viewBox="0.00 0.00 387.00 1072.45" xmlns="http://www.w3.org/2000/svg" xmlns:xlink="http://www.w3.org/1999/xlink">
<g id="graph0" class="graph" transform="scale(1 1) rotate(0) translate(4 1068.45)">
<title>cs_get_base</title>
<!-- Node1 -->
<g id="node1" class="node">
<title>Node1</title>
<g id="a_node1"><a xlink:title="Find the root Config Item.">
<polygon fill="#999999" stroke="#666666" points="379,-518 307,-518 307,-499 379,-499 379,-518"/>
<text text-anchor="middle" x="343" y="-506" font-family="Helvetica,sans-Serif" font-size="10.00">cs_get_base</text>
</a>
</g>
</g>
<!-- Node1&#45;&gt;Node1 -->
<g id="edge2" class="edge">
<title>Node1&#45;&gt;Node1</title>
<path fill="none" stroke="#63b8ff" d="M368.56,-529.43C365.36,-533.29 356.84,-536 343,-536 317.69,-536 310.17,-526.94 320.46,-518.37"/>
<polygon fill="#63b8ff" stroke="#63b8ff" points="371.95,-528.56 365.94,-519.83 365.2,-530.4 371.95,-528.56"/>
</g>
<!-- Node2 -->
<g id="node2" class="node">
<title>Node2</title>
<g id="a_node2"><a xlink:href="bool_8c.html#ab5dff16050811e0eb5537725169fb0f4" target="_top" xlink:title="Toggle the value of a bool.">
<polygon fill="#fff0f0" stroke="red" points="89.5,-994 1.5,-994 1.5,-975 89.5,-975 89.5,-994"/>
<text text-anchor="middle" x="45.5" y="-982" font-family="Helvetica,sans-Serif" font-size="10.00">bool_he_toggle</text>
</a>
</g>
</g>
<!-- Node1&#45;&gt;Node2 -->
<g id="edge1" class="edge">
<title>Node1&#45;&gt;Node2</title>
<path fill="none" stroke="#63b8ff" d="M340.79,-529.79C335.17,-624.71 310.26,-1006.13 271,-1040.5 222.84,-1082.66 188.07,-1059.65 127,-1040.5 98.08,-1031.43 70.46,-1007.9 56.31,-994.4"/>
<polygon fill="#63b8ff" stroke="#63b8ff" points="344.28,-530.06 341.36,-519.88 337.29,-529.66 344.28,-530.06"/>
</g>
<!-- Node12 -->
<g id="node3" class="node">
<title>Node12</title>
<g id="a_node3"><a xlink:href="group__hash__hdata__free__api.html#gaed5e3a06b467a01713e2eb7246523ba4" target="_top" xlink:title="Free our hash table data &#45; Implements hash_hdata_free_t &#45;.">
<polygon fill="#fff0f0" stroke="red" points="248.5,-863 149.5,-863 149.5,-844 248.5,-844 248.5,-863"/>
<text text-anchor="middle" x="199" y="-851" font-family="Helvetica,sans-Serif" font-size="10.00">cs_hashelem_free</text>
</a>
</g>
</g>
<!-- Node1&#45;&gt;Node12 -->
<g id="edge3" class="edge">
<title>Node1&#45;&gt;Node12</title>
<path fill="none" stroke="#63b8ff" d="M340.25,-529.4C334.42,-594.17 313.55,-789.9 271,-834.5 265.01,-840.78 257.19,-845.06 248.94,-847.97"/>
<polygon fill="#63b8ff" stroke="#63b8ff" points="343.71,-530.04 341.09,-519.78 336.74,-529.44 343.71,-530.04"/>
</g>
<!-- Node16 -->
<g id="node4" class="node">
<title>Node16</title>
<g id="a_node4"><a xlink:href="config_2set_8c.html#adcbe5a0a3dbd9fb44afaaeb1546e6a6f" target="_top" xlink:title="Get the initial, or parent, value of a config item.">
<polygon fill="#fff0f0" stroke="red" points="244.5,-826 153.5,-826 153.5,-807 244.5,-807 244.5,-826"/>
<text text-anchor="middle" x="199" y="-814" font-family="Helvetica,sans-Serif" font-size="10.00">cs_he_initial_get</text>
</a>
</g>
</g>
<!-- Node1&#45;&gt;Node16 -->
<g id="edge4" class="edge">
<title>Node1&#45;&gt;Node16</title>
<path fill="none" stroke="#63b8ff" d="M339.58,-529.71C332.33,-589.72 308.89,-758.82 271,-797.5 263.95,-804.7 254.48,-809.27 244.77,-812.14"/>
<polygon fill="#63b8ff" stroke="#63b8ff" points="343.05,-530.2 340.74,-519.86 336.1,-529.39 343.05,-530.2"/>
</g>
<!-- Node56 -->
<g id="node5" class="node">
<title>Node56</title>
<g id="a_node5"><a xlink:href="config_2set_8c.html#ad446d589baec46f5506d398fd4895d96" target="_top" xlink:title="Set the initial value of a config item.">
<polygon fill="#fff0f0" stroke="red" points="243.5,-789 154.5,-789 154.5,-770 243.5,-770 243.5,-789"/>
<text text-anchor="middle" x="199" y="-777" font-family="Helvetica,sans-Serif" font-size="10.00">cs_he_initial_set</text>
</a>
</g>
</g>
<!-- Node1&#45;&gt;Node56 -->
<g id="edge5" class="edge">
<title>Node1&#45;&gt;Node56</title>
<path fill="none" stroke="#63b8ff" d="M342.58,-529.79C342.68,-578.04 335.9,-696.45 271,-760.5 263.64,-767.76 253.83,-772.33 243.86,-775.18"/>
<polygon fill="#63b8ff" stroke="#63b8ff" points="346.08,-529.85 342.44,-519.9 339.08,-529.95 346.08,-529.85"/>
</g>
<!-- Node61 -->
<g id="node6" class="node">
<title>Node61</title>
<g id="a_node6"><a xlink:href="config_2set_8c.html#a86307a07e4994514634a1658ec0cfe66" target="_top" xlink:title="Natively get the value of a HashElem config item.">
<polygon fill="#fff0f0" stroke="red" points="246.5,-1013 151.5,-1013 151.5,-994 246.5,-994 246.5,-1013"/>
<text text-anchor="middle" x="199" y="-1001" font-family="Helvetica,sans-Serif" font-size="10.00">cs_he_native_get</text>
</a>
</g>
</g>
<!-- Node1&#45;&gt;Node61 -->
<g id="edge6" class="edge">
<title>Node1&#45;&gt;Node61</title>
<path fill="none" stroke="#63b8ff" d="M341.85,-529.84C340.82,-613.41 332.83,-917.12 271,-985.5 264.6,-992.57 255.86,-997.05 246.7,-999.84"/>
<polygon fill="#63b8ff" stroke="#63b8ff" points="345.35,-529.94 341.95,-519.91 338.35,-529.87 345.35,-529.94"/>
</g>
<!-- Node1440 -->
<g id="node7" class="node">
<title>Node1440</title>
<g id="a_node7"><a xlink:href="quad_8c.html#a0941549e62011d068a3b9ea78ac61ab1" target="_top" xlink:title="Toggle the value of a quad.">
<polygon fill="#fff0f0" stroke="red" points="91,-957 0,-957 0,-938 91,-938 91,-957"/>
<text text-anchor="middle" x="45.5" y="-945" font-family="Helvetica,sans-Serif" font-size="10.00">quad_he_toggle</text>
</a>
</g>
</g>
<!-- Node1&#45;&gt;Node1440 -->
<g id="edge35" class="edge">
<title>Node1&#45;&gt;Node1440</title>
<path fill="none" stroke="#63b8ff" d="M340.75,-529.45C336.17,-599.05 318.07,-820.95 271,-871.5 225.82,-920.03 189.34,-887.91 127,-910.5 105.45,-918.31 81.72,-929.56 65.64,-937.6"/>
<polygon fill="#63b8ff" stroke="#63b8ff" points="344.22,-530.02 341.35,-519.82 337.23,-529.58 344.22,-530.02"/>
</g>
<!-- Node1442 -->
<g id="node8" class="node">
<title>Node1442</title>
<g id="a_node8"><a xlink:href="config_2set_8c.html#a81e8688ba324bf79fdb467df153028b1" target="_top" xlink:title="Natively set the value of a HashElem config item.">
<polygon fill="#fff0f0" stroke="red" points="246,-976 152,-976 152,-957 246,-957 246,-976"/>
<text text-anchor="middle" x="199" y="-964" font-family="Helvetica,sans-Serif" font-size="10.00">cs_he_native_set</text>
</a>
</g>
</g>
<!-- Node1&#45;&gt;Node1442 -->
<g id="edge10" class="edge">
<title>Node1&#45;&gt;Node1442</title>
<path fill="none" stroke="#63b8ff" d="M341.53,-529.63C339.32,-608.56 327.63,-884.83 271,-947.5 264.5,-954.7 255.6,-959.29 246.3,-962.2"/>
<polygon fill="#63b8ff" stroke="#63b8ff" points="345.02,-529.95 341.77,-519.86 338.02,-529.77 345.02,-529.95"/>
</g>
<!-- Node1448 -->
<g id="node9" class="node">
<title>Node1448</title>
<g id="a_node9"><a xlink:href="config_2set_8c.html#a52b4a1b57f44e2a7972fe3e3747c3557" target="_top" xlink:title="Reset a config item to its initial value.">
<polygon fill="#fff0f0" stroke="red" points="234.5,-752 163.5,-752 163.5,-733 234.5,-733 234.5,-752"/>
<text text-anchor="middle" x="199" y="-740" font-family="Helvetica,sans-Serif" font-size="10.00">cs_he_reset</text>
</a>
</g>
</g>
<!-- Node1&#45;&gt;Node1448 -->
<g id="edge13" class="edge">
<title>Node1&#45;&gt;Node1448</title>
<path fill="none" stroke="#63b8ff" d="M341.37,-529.57C338.9,-572.51 327.07,-670.56 271,-723.5 261.26,-732.7 247.56,-737.55 234.8,-740.07"/>
<polygon fill="#63b8ff" stroke="#63b8ff" points="344.85,-529.99 341.8,-519.85 337.86,-529.69 344.85,-529.99"/>
</g>
<!-- Node1453 -->
<g id="node10" class="node">
<title>Node1453</title>
<g id="a_node10"><a xlink:href="config_2set_8c.html#aae8bc50e36b926998d926687f97c8b48" target="_top" xlink:title="Get a config item as a string.">
<polygon fill="#fff0f0" stroke="red" points="246,-697 152,-697 152,-678 246,-678 246,-697"/>
<text text-anchor="middle" x="199" y="-685" font-family="Helvetica,sans-Serif" font-size="10.00">cs_he_string_get</text>
</a>
</g>
</g>
<!-- Node1&#45;&gt;Node1453 -->
<g id="edge14" class="edge">
<title>Node1&#45;&gt;Node1453</title>
<path fill="none" stroke="#63b8ff" d="M338.72,-529.04C332.18,-563.2 314.2,-631.57 271,-668.5 264.02,-674.47 255.35,-678.58 246.49,-681.42"/>
<polygon fill="#63b8ff" stroke="#63b8ff" points="342.1,-530.07 340.38,-519.62 335.2,-528.86 342.1,-530.07"/>
</g>
<!-- Node1517 -->
<g id="node11" class="node">
<title>Node1517</title>
<g id="a_node11"><a xlink:href="config_2set_8c.html#afb22f304def10b645bb397b6b8b29641" target="_top" xlink:title="Remove from a config item by string.">
<polygon fill="#fff0f0" stroke="red" points="252,-659.5 146,-659.5 146,-629.5 252,-629.5 252,-659.5"/>
<text text-anchor="start" x="154" y="-647.5" font-family="Helvetica,sans-Serif" font-size="10.00">cs_he_string_minus</text>
<text text-anchor="middle" x="199" y="-636.5" font-family="Helvetica,sans-Serif" font-size="10.00">_equals</text>
</a>
</g>
</g>
<!-- Node1&#45;&gt;Node1517 -->
<g id="edge16" class="edge">
<title>Node1&#45;&gt;Node1517</title>
<path fill="none" stroke="#63b8ff" d="M334.01,-528.71C323.24,-553.46 301.8,-595.09 271,-619.5 265.37,-623.96 258.88,-627.66 252.16,-630.72"/>
<polygon fill="#63b8ff" stroke="#63b8ff" points="337.12,-530.33 337.73,-519.75 330.66,-527.64 337.12,-530.33"/>
</g>
<!-- Node1521 -->
<g id="node12" class="node">
<title>Node1521</title>
<g id="a_node12"><a xlink:href="config_2set_8c.html#a2962bf134043ca7a65ce8c5a9d8b33f2" target="_top" xlink:title="Add to a config item by string.">
<polygon fill="#fff0f0" stroke="red" points="264.5,-611 133.5,-611 133.5,-592 264.5,-592 264.5,-611"/>
<text text-anchor="middle" x="199" y="-599" font-family="Helvetica,sans-Serif" font-size="10.00">cs_he_string_plus_equals</text>
</a>
</g>
</g>
<!-- Node1&#45;&gt;Node1521 -->
<g id="edge17" class="edge">
<title>Node1&#45;&gt;Node1521</title>
<path fill="none" stroke="#63b8ff" d="M328.78,-527.25C315.91,-544.14 294.83,-568.42 271,-582.5 264.74,-586.2 257.75,-589.2 250.66,-591.61"/>
<polygon fill="#63b8ff" stroke="#63b8ff" points="331.37,-529.64 334.48,-519.51 325.73,-525.49 331.37,-529.64"/>
</g>
<!-- Node1525 -->
<g id="node13" class="node">
<title>Node1525</title>
<g id="a_node13"><a xlink:href="config_2set_8c.html#a6c9cf00df6994a9cef7caf5d9f0f01c6" target="_top" xlink:title="Set a config item by string.">
<polygon fill="#fff0f0" stroke="red" points="245,-574 153,-574 153,-555 245,-555 245,-574"/>
<text text-anchor="middle" x="199" y="-562" font-family="Helvetica,sans-Serif" font-size="10.00">cs_he_string_set</text>
</a>
</g>
</g>
<!-- Node1&#45;&gt;Node1525 -->
<g id="edge18" class="edge">
<title>Node1&#45;&gt;Node1525</title>
<path fill="none" stroke="#63b8ff" d="M315.79,-523.91C302.66,-531.18 286.33,-539.54 271,-545.5 262.2,-548.92 252.55,-551.95 243.29,-554.53"/>
<polygon fill="#63b8ff" stroke="#63b8ff" points="317.26,-527.11 324.24,-519.14 313.81,-521.01 317.26,-527.11"/>
</g>
<!-- Node1530 -->
<g id="node14" class="node">
<title>Node1530</title>
<g id="a_node14"><a xlink:href="config_2set_8c.html#a6eec066d228f0ded678c35ed8aa9ac28" target="_top" xlink:title="Natively set the value of a string config item.">
<polygon fill="#fff0f0" stroke="red" points="246.5,-537 151.5,-537 151.5,-518 246.5,-518 246.5,-537"/>
<text text-anchor="middle" x="199" y="-525" font-family="Helvetica,sans-Serif" font-size="10.00">cs_str_native_set</text>
</a>
</g>
</g>
<!-- Node1&#45;&gt;Node1530 -->
<g id="edge19" class="edge">
<title>Node1&#45;&gt;Node1530</title>
<path fill="none" stroke="#63b8ff" d="M295.52,-514.72C279.89,-516.81 262.45,-519.14 246.79,-521.24"/>
<polygon fill="#63b8ff" stroke="#63b8ff" points="295.59,-518.24 305.03,-513.45 294.66,-511.3 295.59,-518.24"/>
</g>
<!-- Node994 -->
<g id="node15" class="node">
<title>Node994</title>
<g id="a_node15"><a xlink:href="config__type_8c.html#ae303ac83498043a651ec046b572bc707" target="_top" xlink:title="Get an Address config item by name.">
<polygon fill="#fff0f0" stroke="red" points="249.5,-500 148.5,-500 148.5,-481 249.5,-481 249.5,-500"/>
<text text-anchor="middle" x="199" y="-488" font-family="Helvetica,sans-Serif" font-size="10.00">cs_subset_address</text>
</a>
</g>
</g>
<!-- Node1&#45;&gt;Node994 -->
<g id="edge20" class="edge">
<title>Node1&#45;&gt;Node994</title>
<path fill="none" stroke="#63b8ff" d="M295.23,-502.57C280.64,-500.72 264.51,-498.68 249.73,-496.8"/>
<polygon fill="#63b8ff" stroke="#63b8ff" points="294.67,-506.03 305.03,-503.81 295.55,-499.08 294.67,-506.03"/>
</g>
<!-- Node1009 -->
<g id="node16" class="node">
<title>Node1009</title>
<g id="a_node16"><a xlink:href="config_2helpers_8c.html#ae50f679dd6c5bd1ba820884c8602f038" target="_top" xlink:title="Get a boolean config item by name.">
<polygon fill="#fff0f0" stroke="red" points="242,-463 156,-463 156,-444 242,-444 242,-463"/>
<text text-anchor="middle" x="199" y="-451" font-family="Helvetica,sans-Serif" font-size="10.00">cs_subset_bool</text>
</a>
</g>
</g>
<!-- Node1&#45;&gt;Node1009 -->
<g id="edge21" class="edge">
<title>Node1&#45;&gt;Node1009</title>
<path fill="none" stroke="#63b8ff" d="M315.83,-493C302.71,-485.71 286.37,-477.36 271,-471.5 261.85,-468.01 251.78,-464.99 242.18,-462.48"/>
<polygon fill="#63b8ff" stroke="#63b8ff" points="313.84,-495.9 324.27,-497.8 317.3,-489.81 313.84,-495.9"/>
</g>
<!-- Node1285 -->
<g id="node17" class="node">
<title>Node1285</title>
<g id="a_node17"><a xlink:href="config_2helpers_8c.html#a95398bb7e62a54dcce14a027a926a193" target="_top" xlink:title="Get a enumeration config item by name.">
<polygon fill="#fff0f0" stroke="red" points="245,-426 153,-426 153,-407 245,-407 245,-426"/>
<text text-anchor="middle" x="199" y="-414" font-family="Helvetica,sans-Serif" font-size="10.00">cs_subset_enum</text>
</a>
</g>
</g>
<!-- Node1&#45;&gt;Node1285 -->
<g id="edge22" class="edge">
<title>Node1&#45;&gt;Node1285</title>
<path fill="none" stroke="#63b8ff" d="M328.82,-489.68C315.98,-472.73 294.92,-448.43 271,-434.5 263.2,-429.96 254.26,-426.55 245.42,-424"/>
<polygon fill="#63b8ff" stroke="#63b8ff" points="325.78,-491.44 334.5,-497.44 331.43,-487.3 325.78,-491.44"/>
</g>
<!-- Node1298 -->
<g id="node18" class="node">
<title>Node1298</title>
<g id="a_node18"><a xlink:href="config_2helpers_8c.html#aaa3d1087514bcd9d7ea4347bed337c5b" target="_top" xlink:title="Get a long config item by name.">
<polygon fill="#fff0f0" stroke="red" points="242,-389 156,-389 156,-370 242,-370 242,-389"/>
<text text-anchor="middle" x="199" y="-377" font-family="Helvetica,sans-Serif" font-size="10.00">cs_subset_long</text>
</a>
</g>
</g>
<!-- Node1&#45;&gt;Node1298 -->
<g id="edge23" class="edge">
<title>Node1&#45;&gt;Node1298</title>
<path fill="none" stroke="#63b8ff" d="M334.51,-488.21C324.15,-463.04 303.03,-420.61 271,-397.5 262.65,-391.47 252.47,-387.46 242.46,-384.79"/>
<polygon fill="#63b8ff" stroke="#63b8ff" points="331.17,-489.28 338.07,-497.32 337.69,-486.73 331.17,-489.28"/>
</g>
<!-- Node1300 -->
<g id="node19" class="node">
<title>Node1300</title>
<g id="a_node19"><a xlink:href="config_2helpers_8c.html#abfe208b9249a4da7fbacda9e527a41a5" target="_top" xlink:title="Get a Multibyte table config item by name.">
<polygon fill="#fff0f0" stroke="red" points="251,-352 147,-352 147,-333 251,-333 251,-352"/>
<text text-anchor="middle" x="199" y="-340" font-family="Helvetica,sans-Serif" font-size="10.00">cs_subset_mbtable</text>
</a>
</g>
</g>
<!-- Node1&#45;&gt;Node1300 -->
<g id="edge24" class="edge">
<title>Node1&#45;&gt;Node1300</title>
<path fill="none" stroke="#63b8ff" d="M337.89,-487.65C330.43,-455.39 311.5,-393.64 271,-360.5 265.29,-355.83 258.53,-352.35 251.48,-349.76"/>
<polygon fill="#63b8ff" stroke="#63b8ff" points="334.45,-488.28 339.97,-497.32 341.29,-486.81 334.45,-488.28"/>
</g>
<!-- Node1531 -->
<g id="node20" class="node">
<title>Node1531</title>
<g id="a_node20"><a xlink:href="subset_8c.html#ade6fadcb576282a84fd1746c1231f41c" target="_top" xlink:title="Notify all observers of an event.">
<polygon fill="#fff0f0" stroke="red" points="271,-939 127,-939 127,-920 271,-920 271,-939"/>
<text text-anchor="middle" x="199" y="-927" font-family="Helvetica,sans-Serif" font-size="10.00">cs_subset_notify_observers</text>
</a>
</g>
</g>
<!-- Node1&#45;&gt;Node1531 -->
<g id="edge25" class="edge">
<title>Node1&#45;&gt;Node1531</title>
<path fill="none" stroke="#63b8ff" d="M340.98,-529.83C337.04,-603.83 320.46,-848.07 271,-905.5 265.74,-911.61 258.86,-916.17 251.45,-919.57"/>
<polygon fill="#63b8ff" stroke="#63b8ff" points="344.47,-530.1 341.48,-519.94 337.48,-529.75 344.47,-530.1"/>
</g>
<!-- Node1302 -->
<g id="node21" class="node">
<title>Node1302</title>
<g id="a_node21"><a xlink:href="config_2helpers_8c.html#a96039a9f8d37daad993ae7b490510339" target="_top" xlink:title="Get a number config item by name.">
<polygon fill="#fff0f0" stroke="red" points="250.5,-315 147.5,-315 147.5,-296 250.5,-296 250.5,-315"/>
<text text-anchor="middle" x="199" y="-303" font-family="Helvetica,sans-Serif" font-size="10.00">cs_subset_number</text>
</a>
</g>
</g>
<!-- Node1&#45;&gt;Node1302 -->
<g id="edge28" class="edge">
<title>Node1&#45;&gt;Node1302</title>
<path fill="none" stroke="#63b8ff" d="M340.12,-487.44C335.53,-448.95 320.22,-367.22 271,-323.5 265.2,-318.35 258.13,-314.63 250.73,-311.95"/>
<polygon fill="#63b8ff" stroke="#63b8ff" points="336.62,-487.63 341.14,-497.21 343.58,-486.9 336.62,-487.63"/>
</g>
<!-- Node1357 -->
<g id="node22" class="node">
<title>Node1357</title>
<g id="a_node22"><a xlink:href="config_2helpers_8c.html#a9f184e61342916799259930333f4205f" target="_top" xlink:title="Get a path config item by name.">
<polygon fill="#fff0f0" stroke="red" points="242,-278 156,-278 156,-259 242,-259 242,-278"/>
<text text-anchor="middle" x="199" y="-266" font-family="Helvetica,sans-Serif" font-size="10.00">cs_subset_path</text>
</a>
</g>
</g>
<!-- Node1&#45;&gt;Node1357 -->
<g id="edge29" class="edge">
<title>Node1&#45;&gt;Node1357</title>
<path fill="none" stroke="#63b8ff" d="M341.68,-487.32C339.82,-443.22 329.09,-341.14 271,-286.5 263.13,-279.09 252.65,-274.62 242.18,-271.95"/>
<polygon fill="#63b8ff" stroke="#63b8ff" points="338.18,-487.39 341.97,-497.29 345.18,-487.19 338.18,-487.39"/>
</g>
<!-- Node1369 -->
<g id="node23" class="node">
<title>Node1369</title>
<g id="a_node23"><a xlink:href="config_2helpers_8c.html#a9154ba713ce99b0937f475eec7c61af9" target="_top" xlink:title="Get a quad&#45;value config item by name.">
<polygon fill="#fff0f0" stroke="red" points="243.5,-241 154.5,-241 154.5,-222 243.5,-222 243.5,-241"/>
<text text-anchor="middle" x="199" y="-229" font-family="Helvetica,sans-Serif" font-size="10.00">cs_subset_quad</text>
</a>
</g>
</g>
<!-- Node1&#45;&gt;Node1369 -->
<g id="edge30" class="edge">
<title>Node1&#45;&gt;Node1369</title>
<path fill="none" stroke="#63b8ff" d="M342.84,-487.22C343.54,-437.97 338.07,-315.29 271,-249.5 263.65,-242.29 253.84,-237.84 243.87,-235.12"/>
<polygon fill="#63b8ff" stroke="#63b8ff" points="339.34,-486.98 342.58,-497.06 346.34,-487.16 339.34,-486.98"/>
</g>
<!-- Node1370 -->
<g id="node24" class="node">
<title>Node1370</title>
<g id="a_node24"><a xlink:href="config_2helpers_8c.html#a1c788f1dbe7b04cec7721fc1c7680b48" target="_top" xlink:title="Get a regex config item by name.">
<polygon fill="#fff0f0" stroke="red" points="245,-204 153,-204 153,-185 245,-185 245,-204"/>
<text text-anchor="middle" x="199" y="-192" font-family="Helvetica,sans-Serif" font-size="10.00">cs_subset_regex</text>
</a>
</g>
</g>
<!-- Node1&#45;&gt;Node1370 -->
<g id="edge31" class="edge">
<title>Node1&#45;&gt;Node1370</title>
<path fill="none" stroke="#63b8ff" d="M339.77,-487.55C332.9,-426.74 310.08,-252.09 271,-212.5 264.03,-205.44 254.72,-201.01 245.14,-198.27"/>
<polygon fill="#63b8ff" stroke="#63b8ff" points="336.26,-487.64 340.83,-497.2 343.22,-486.88 336.26,-487.64"/>
</g>
<!-- Node1378 -->
<g id="node25" class="node">
<title>Node1378</title>
<g id="a_node25"><a xlink:href="config_2helpers_8c.html#a72ee0a5d0c0632c4fe911ef5aa6a9b8b" target="_top" xlink:title="Get a string&#45;list config item by name.">
<polygon fill="#fff0f0" stroke="red" points="240.5,-167 157.5,-167 157.5,-148 240.5,-148 240.5,-167"/>
<text text-anchor="middle" x="199" y="-155" font-family="Helvetica,sans-Serif" font-size="10.00">cs_subset_slist</text>
</a>
</g>
</g>
<!-- Node1&#45;&gt;Node1378 -->
<g id="edge32" class="edge">
<title>Node1&#45;&gt;Node1378</title>
<path fill="none" stroke="#63b8ff" d="M340.34,-487.14C334.78,-420.91 314.62,-220.82 271,-175.5 263.06,-167.25 251.93,-162.58 240.83,-159.99"/>
<polygon fill="#63b8ff" stroke="#63b8ff" points="336.85,-487.32 341.14,-497 343.82,-486.75 336.85,-487.32"/>
</g>
<!-- Node1383 -->
<g id="node26" class="node">
<title>Node1383</title>
<g id="a_node26"><a xlink:href="config_2helpers_8c.html#af7f3de51c3c2f5b8f527f40c8397a3fc" target="_top" xlink:title="Get a sort config item by name.">
<polygon fill="#fff0f0" stroke="red" points="241,-130 157,-130 157,-111 241,-111 241,-130"/>
<text text-anchor="middle" x="199" y="-118" font-family="Helvetica,sans-Serif" font-size="10.00">cs_subset_sort</text>
</a>
</g>
</g>
<!-- Node1&#45;&gt;Node1383 -->
<g id="edge33" class="edge">
<title>Node1&#45;&gt;Node1383</title>
<path fill="none" stroke="#63b8ff" d="M340.87,-487.58C336.62,-417.09 319.37,-189.8 271,-138.5 263.24,-130.27 252.29,-125.58 241.31,-122.97"/>
<polygon fill="#63b8ff" stroke="#63b8ff" points="337.36,-487.54 341.43,-497.33 344.35,-487.14 337.36,-487.54"/>
</g>
<!-- Node1388 -->
<g id="node27" class="node">
<title>Node1388</title>
<g id="a_node27"><a xlink:href="config_2helpers_8c.html#a6b1589ee93ff51ef31f1d9324e138078" target="_top" xlink:title="Get a string config item by name.">
<polygon fill="#fff0f0" stroke="red" points="245,-93 153,-93 153,-74 245,-74 245,-93"/>
<text text-anchor="middle" x="199" y="-81" font-family="Helvetica,sans-Serif" font-size="10.00">cs_subset_string</text>
</a>
</g>
</g>
<!-- Node1&#45;&gt;Node1388 -->
<g id="edge34" class="edge">
<title>Node1&#45;&gt;Node1388</title>
<path fill="none" stroke="#63b8ff" d="M341.26,-487.45C338.19,-412.31 324.01,-158.68 271,-101.5 264.26,-94.23 255.03,-89.71 245.46,-86.96"/>
<polygon fill="#63b8ff" stroke="#63b8ff" points="337.75,-487.26 341.63,-497.12 344.75,-486.99 337.75,-487.26"/>
</g>
<!-- Node1151 -->
<g id="node28" class="node">
<title>Node1151</title>
<g id="a_node28"><a xlink:href="question_8c.html#a8ba883bf53e8ab425a03d17368de84b4" target="_top" xlink:title="Ask the user a quad&#45;question.">
<polygon fill="#fff0f0" stroke="red" points="250,-56 148,-56 148,-37 250,-37 250,-56"/>
<text text-anchor="middle" x="199" y="-44" font-family="Helvetica,sans-Serif" font-size="10.00">query_quadoption</text>
</a>
</g>
</g>
<!-- Node1&#45;&gt;Node1151 -->
<g id="edge36" class="edge">
<title>Node1&#45;&gt;Node1151</title>
<path fill="none" stroke="#63b8ff" d="M341.59,-487.11C339.61,-407.2 328.62,-127.54 271,-64.5 265.42,-58.4 258.1,-54.24 250.28,-51.42"/>
<polygon fill="#63b8ff" stroke="#63b8ff" points="338.09,-487.09 341.81,-497.01 345.09,-486.94 338.09,-487.09"/>
</g>
<!-- Node1175 -->
<g id="node29" class="node">
<title>Node1175</title>
<g id="a_node29"><a xlink:href="question_8c.html#a4b3912ba3a832ef36b474de959451bc7" target="_top" xlink:title="Ask the user a Yes/No question offering help.">
<polygon fill="#fff0f0" stroke="red" points="255,-19 143,-19 143,0 255,0 255,-19"/>
<text text-anchor="middle" x="199" y="-7" font-family="Helvetica,sans-Serif" font-size="10.00">query_yesorno_help</text>
</a>
</g>
</g>
<!-- Node1&#45;&gt;Node1175 -->
<g id="edge37" class="edge">
<title>Node1&#45;&gt;Node1175</title>
<path fill="none" stroke="#63b8ff" d="M341.88,-487.24C340.97,-403.35 333.36,-96.55 271,-27.5 266.65,-22.69 261.22,-19.08 255.31,-16.38"/>
<polygon fill="#63b8ff" stroke="#63b8ff" points="338.38,-487.04 341.96,-497.01 345.38,-486.98 338.38,-487.04"/>
</g>
<!-- Node61&#45;&gt;Node2 -->
<g id="edge7" class="edge">
<title>Node61&#45;&gt;Node2</title>
<path fill="none" stroke="#63b8ff" d="M140.03,-996.23C123.39,-994.14 105.54,-991.9 89.94,-989.95"/>
<polygon fill="#63b8ff" stroke="#63b8ff" points="139.45,-999.68 149.81,-997.46 140.32,-992.74 139.45,-999.68"/>
</g>
<!-- Node61&#45;&gt;Node61 -->
<g id="edge8" class="edge">
<title>Node61&#45;&gt;Node61</title>
<path fill="none" stroke="#63b8ff" d="M224.56,-1024.43C221.36,-1028.29 212.84,-1031 199,-1031 173.69,-1031 166.17,-1021.94 176.46,-1013.37"/>
<polygon fill="#63b8ff" stroke="#63b8ff" points="227.95,-1023.56 221.94,-1014.83 221.2,-1025.4 227.95,-1023.56"/>
</g>
<!-- Node61&#45;&gt;Node1440 -->
<g id="edge9" class="edge">
<title>Node61&#45;&gt;Node1440</title>
<path fill="none" stroke="#63b8ff" d="M141.32,-990.43C136.43,-988.91 131.6,-987.27 127,-985.5 110.11,-979.01 107.33,-974.28 91,-966.5 84.48,-963.39 77.32,-960.23 70.68,-957.4"/>
<polygon fill="#63b8ff" stroke="#63b8ff" points="140.02,-993.7 150.6,-993.13 141.97,-986.97 140.02,-993.7"/>
</g>
<!-- Node1442&#45;&gt;Node2 -->
<g id="edge11" class="edge">
<title>Node1442&#45;&gt;Node2</title>
<path fill="none" stroke="#63b8ff" d="M140.37,-973.35C123.63,-975.34 105.62,-977.48 89.91,-979.34"/>
<polygon fill="#63b8ff" stroke="#63b8ff" points="140.7,-976.83 150.22,-972.18 139.88,-969.88 140.7,-976.83"/>
</g>
<!-- Node1442&#45;&gt;Node1440 -->
<g id="edge12" class="edge">
<title>Node1442&#45;&gt;Node1440</title>
<path fill="none" stroke="#63b8ff" d="M140.68,-959.31C124.39,-957.27 106.9,-955.07 91.46,-953.14"/>
<polygon fill="#63b8ff" stroke="#63b8ff" points="139.86,-962.74 150.22,-960.51 140.73,-955.79 139.86,-962.74"/>
</g>
<!-- Node1453&#45;&gt;Node1453 -->
<g id="edge15" class="edge">
<title>Node1453&#45;&gt;Node1453</title>
<path fill="none" stroke="#63b8ff" d="M224.56,-708.43C221.36,-712.29 212.84,-715 199,-715 173.69,-715 166.17,-705.94 176.46,-697.37"/>
<polygon fill="#63b8ff" stroke="#63b8ff" points="227.95,-707.56 221.94,-698.83 221.2,-709.4 227.95,-707.56"/>
</g>
<!-- Node1531&#45;&gt;Node2 -->
<g id="edge26" class="edge">
<title>Node1531&#45;&gt;Node2</title>
<path fill="none" stroke="#63b8ff" d="M141.32,-942.57C136.43,-944.09 131.6,-945.73 127,-947.5 110.11,-953.99 107.41,-958.88 91,-966.5 84.95,-969.31 78.34,-972.12 72.11,-974.66"/>
<polygon fill="#63b8ff" stroke="#63b8ff" points="141.97,-946.03 150.6,-939.87 140.02,-939.3 141.97,-946.03"/>
</g>
<!-- Node1531&#45;&gt;Node1440 -->
<g id="edge27" class="edge">
<title>Node1531&#45;&gt;Node1440</title>
<path fill="none" stroke="#63b8ff" d="M115.31,-939.32C106.99,-940.31 98.79,-941.29 91.1,-942.2"/>
<polygon fill="#63b8ff" stroke="#63b8ff" points="115.67,-942.81 125.18,-938.15 114.84,-935.86 115.67,-942.81"/>
</g>
</g>
</svg>
