<?xml version="1.0" encoding="UTF-8" standalone="no"?>
<!DOCTYPE svg PUBLIC "-//W3C//DTD SVG 1.1//EN"
 "http://www.w3.org/Graphics/SVG/1.1/DTD/svg11.dtd">
<!-- Generated by graphviz version 2.40.1 (20161225.0304)
 -->
<!-- Title: cs_he_string_get Pages: 1 -->
<svg width="415pt" height="256pt"
 viewBox="0.00 0.00 415.00 256.00" xmlns="http://www.w3.org/2000/svg" xmlns:xlink="http://www.w3.org/1999/xlink">
<g id="graph0" class="graph" transform="scale(1 1) rotate(0) translate(4 252)">
<title>cs_he_string_get</title>
<polygon fill="#ffffff" stroke="transparent" points="-4,4 -4,-252 411,-252 411,4 -4,4"/>
<!-- Node5018 -->
<g id="node1" class="node">
<title>Node5018</title>
<polygon fill="#bfbfbf" stroke="#000000" points="0,-114.5 0,-133.5 98,-133.5 98,-114.5 0,-114.5"/>
<text text-anchor="middle" x="49" y="-121.5" font-family="Helvetica,sans-Serif" font-size="10.00" fill="#000000">cs_he_string_get</text>
</g>
<!-- Node5018&#45;&gt;Node5018 -->
<g id="edge2" class="edge">
<title>Node5018&#45;&gt;Node5018</title>
<path fill="none" stroke="#191970" d="M20.6275,-142.6539C21.8135,-147.9368 31.271,-152 49,-152 76.0156,-152 83.8248,-142.5653 72.4276,-133.7571"/>
<polygon fill="#191970" stroke="#191970" points="23.7735,-144.1981 25.5724,-133.7571 17.6551,-140.7974 23.7735,-144.1981"/>
</g>
<!-- Node5019 -->
<g id="node2" class="node">
<title>Node5019</title>
<g id="a_node2"><a xlink:href="dump_8h.html#a200d11d28ce799a726af4e7bd2bad49d" target="_top" xlink:title="Write all the config to a file. ">
<polygon fill="#ffffff" stroke="#ff0000" points="162.5,-228.5 162.5,-247.5 241.5,-247.5 241.5,-228.5 162.5,-228.5"/>
<text text-anchor="middle" x="202" y="-235.5" font-family="Helvetica,sans-Serif" font-size="10.00" fill="#000000">dump_config</text>
</a>
</g>
</g>
<!-- Node5018&#45;&gt;Node5019 -->
<g id="edge1" class="edge">
<title>Node5018&#45;&gt;Node5019</title>
<path fill="none" stroke="#191970" d="M60.5534,-142.2819C75.0989,-163.8078 102.0833,-199.1371 134,-219 142.5337,-224.3108 152.5773,-228.1688 162.288,-230.9598"/>
<polygon fill="#191970" stroke="#191970" points="63.3512,-140.166 54.9374,-133.7272 57.4995,-144.0076 63.3512,-140.166"/>
</g>
<!-- Node5024 -->
<g id="node3" class="node">
<title>Node5024</title>
<g id="a_node3"><a xlink:href="config_2set_8h.html#a6fd54e2cfa94fb1157988cebc135ef67" target="_top" xlink:title="Get a config item as a string. ">
<polygon fill="#ffffff" stroke="#ff0000" points="152.5,-190.5 152.5,-209.5 251.5,-209.5 251.5,-190.5 152.5,-190.5"/>
<text text-anchor="middle" x="202" y="-197.5" font-family="Helvetica,sans-Serif" font-size="10.00" fill="#000000">cs_str_string_get</text>
</a>
</g>
</g>
<!-- Node5018&#45;&gt;Node5024 -->
<g id="edge3" class="edge">
<title>Node5018&#45;&gt;Node5024</title>
<path fill="none" stroke="#191970" d="M71.1496,-139.3324C87.8934,-150.4754 111.7256,-165.4003 134,-176 145.6437,-181.5409 158.9257,-186.5082 170.6429,-190.4666"/>
<polygon fill="#191970" stroke="#191970" points="72.8782,-136.2765 62.6316,-133.5823 68.9616,-142.0783 72.8782,-136.2765"/>
</g>
<!-- Node5027 -->
<g id="node4" class="node">
<title>Node5027</title>
<g id="a_node4"><a xlink:href="test_2config_2set_8c.html#a365eeca46effef2ede2ac88142afea49" target="_top" xlink:title="degenerate_tests">
<polygon fill="#ffffff" stroke="#ff0000" points="306,-171.5 306,-190.5 407,-190.5 407,-171.5 306,-171.5"/>
<text text-anchor="middle" x="356.5" y="-178.5" font-family="Helvetica,sans-Serif" font-size="10.00" fill="#000000">degenerate_tests</text>
</a>
</g>
</g>
<!-- Node5018&#45;&gt;Node5027 -->
<g id="edge5" class="edge">
<title>Node5018&#45;&gt;Node5027</title>
<path fill="none" stroke="#191970" d="M99.3421,-135.696C110.7172,-138.2152 122.7549,-140.7844 134,-143 192.8264,-154.5903 260.8123,-165.8999 305.9969,-173.1244"/>
<polygon fill="#191970" stroke="#191970" points="100.076,-132.2737 89.553,-133.5051 98.5472,-139.1047 100.076,-132.2737"/>
</g>
<!-- Node5033 -->
<g id="node5" class="node">
<title>Node5033</title>
<g id="a_node5"><a xlink:href="test_2config_2set_8c.html#a1ceeb0790626d7cdb04749816a32ea21" target="_top" xlink:title="invalid_tests">
<polygon fill="#ffffff" stroke="#ff0000" points="162.5,-114.5 162.5,-133.5 241.5,-133.5 241.5,-114.5 162.5,-114.5"/>
<text text-anchor="middle" x="202" y="-121.5" font-family="Helvetica,sans-Serif" font-size="10.00" fill="#000000">invalid_tests</text>
</a>
</g>
</g>
<!-- Node5018&#45;&gt;Node5033 -->
<g id="edge6" class="edge">
<title>Node5018&#45;&gt;Node5033</title>
<path fill="none" stroke="#191970" d="M108.362,-124C126.3387,-124 145.6465,-124 162.0321,-124"/>
<polygon fill="#191970" stroke="#191970" points="108.2524,-120.5001 98.2523,-124 108.2523,-127.5001 108.2524,-120.5001"/>
</g>
<!-- Node5034 -->
<g id="node6" class="node">
<title>Node5034</title>
<g id="a_node6"><a xlink:href="subset_8h.html#a2226e4ab6c7e6a8099844c7ab927dd5b" target="_top" xlink:title="Get a config item as a string. ">
<polygon fill="#ffffff" stroke="#ff0000" points="134,-76.5 134,-95.5 270,-95.5 270,-76.5 134,-76.5"/>
<text text-anchor="middle" x="202" y="-83.5" font-family="Helvetica,sans-Serif" font-size="10.00" fill="#000000">cs_subset_he_string_get</text>
</a>
</g>
</g>
<!-- Node5018&#45;&gt;Node5034 -->
<g id="edge7" class="edge">
<title>Node5018&#45;&gt;Node5034</title>
<path fill="none" stroke="#191970" d="M97.4768,-111.96C118.8517,-106.6512 143.6134,-100.5012 163.6693,-95.5201"/>
<polygon fill="#191970" stroke="#191970" points="96.4698,-108.6037 87.6084,-114.411 98.1572,-115.3973 96.4698,-108.6037"/>
</g>
<!-- Node5664 -->
<g id="node7" class="node">
<title>Node5664</title>
<g id="a_node7"><a xlink:href="config_2common_8h.html#a3e6398a306edb18ed40ca3cd6f94a1c2" target="_top" xlink:title="log_observer">
<polygon fill="#ffffff" stroke="#ff0000" points="162,-38.5 162,-57.5 242,-57.5 242,-38.5 162,-38.5"/>
<text text-anchor="middle" x="202" y="-45.5" font-family="Helvetica,sans-Serif" font-size="10.00" fill="#000000">log_observer</text>
</a>
</g>
</g>
<!-- Node5018&#45;&gt;Node5664 -->
<g id="edge8" class="edge">
<title>Node5018&#45;&gt;Node5664</title>
<path fill="none" stroke="#191970" d="M68.9826,-107.9104C85.5522,-95.2519 110.1704,-77.9746 134,-67 142.6843,-63.0005 152.3894,-59.6743 161.6869,-56.9825"/>
<polygon fill="#191970" stroke="#191970" points="66.3956,-105.4893 60.6615,-114.3983 70.6998,-111.0096 66.3956,-105.4893"/>
</g>
<!-- Node5678 -->
<g id="node8" class="node">
<title>Node5678</title>
<g id="a_node8"><a xlink:href="debug_2notify_8c.html#a499b8afe084836222814cc2a9c4a3d1f" target="_top" xlink:title="notify_dump_config">
<polygon fill="#ffffff" stroke="#ff0000" points="145.5,-.5 145.5,-19.5 258.5,-19.5 258.5,-.5 145.5,-.5"/>
<text text-anchor="middle" x="202" y="-7.5" font-family="Helvetica,sans-Serif" font-size="10.00" fill="#000000">notify_dump_config</text>
</a>
</g>
</g>
<!-- Node5018&#45;&gt;Node5678 -->
<g id="edge9" class="edge">
<title>Node5018&#45;&gt;Node5678</title>
<path fill="none" stroke="#191970" d="M60.5534,-105.7181C75.0989,-84.1922 102.0833,-48.8629 134,-29 140.2442,-25.114 147.2968,-22.0059 154.4358,-19.5245"/>
<polygon fill="#191970" stroke="#191970" points="57.4995,-103.9924 54.9374,-114.2728 63.3512,-107.834 57.4995,-103.9924"/>
</g>
<!-- Node5024&#45;&gt;Node5027 -->
<g id="edge4" class="edge">
<title>Node5024&#45;&gt;Node5027</title>
<path fill="none" stroke="#191970" d="M262.0771,-192.6119C276.5274,-190.8348 291.8222,-188.9539 305.7973,-187.2353"/>
<polygon fill="#191970" stroke="#191970" points="261.2332,-189.1892 251.7352,-193.8837 262.0877,-196.1369 261.2332,-189.1892"/>
</g>
</g>
</svg>
