<?xml version="1.0" encoding="UTF-8" standalone="no"?>
<!DOCTYPE svg PUBLIC "-//W3C//DTD SVG 1.1//EN"
 "http://www.w3.org/Graphics/SVG/1.1/DTD/svg11.dtd">
<!-- Generated by graphviz version 2.40.1 (20161225.0304)
 -->
<!-- Title: log_line Pages: 1 -->
<svg width="494pt" height="826pt"
 viewBox="0.00 0.00 494.00 826.00" xmlns="http://www.w3.org/2000/svg" xmlns:xlink="http://www.w3.org/1999/xlink">
<g id="graph0" class="graph" transform="scale(1 1) rotate(0) translate(4 822)">
<title>log_line</title>
<polygon fill="#ffffff" stroke="transparent" points="-4,4 -4,-822 490,-822 490,4 -4,4"/>
<!-- Node35 -->
<g id="node1" class="node">
<title>Node35</title>
<polygon fill="#bfbfbf" stroke="#000000" points="0,-399.5 0,-418.5 55,-418.5 55,-399.5 0,-399.5"/>
<text text-anchor="middle" x="27.5" y="-406.5" font-family="Helvetica,sans-Serif" font-size="10.00" fill="#000000">log_line</text>
</g>
<!-- Node36 -->
<g id="node2" class="node">
<title>Node36</title>
<g id="a_node2"><a xlink:href="test_2config_2address_8c.html#a4eef1151766ab7cf756da87b4923338a" target="_top" xlink:title="test_initial_values">
<polygon fill="#ffffff" stroke="#ff0000" points="107.5,-798.5 107.5,-817.5 213.5,-817.5 213.5,-798.5 107.5,-798.5"/>
<text text-anchor="middle" x="160.5" y="-805.5" font-family="Helvetica,sans-Serif" font-size="10.00" fill="#000000">test_initial_values</text>
</a>
</g>
</g>
<!-- Node35&#45;&gt;Node36 -->
<g id="edge1" class="edge">
<title>Node35&#45;&gt;Node36</title>
<path fill="none" stroke="#191970" d="M28.0713,-428.6356C30.5069,-498.6914 42.2579,-735.053 91,-789 95.5284,-794.012 101.2388,-797.7549 107.4309,-800.5412"/>
<polygon fill="#191970" stroke="#191970" points="31.5664,-428.4241 27.7463,-418.5419 24.57,-428.6494 31.5664,-428.4241"/>
</g>
<!-- Node38 -->
<g id="node3" class="node">
<title>Node38</title>
<g id="a_node3"><a xlink:href="test_2config_2address_8c.html#a6481c1ea806f91ee55dacd7bfe01acd8" target="_top" xlink:title="test_string_set">
<polygon fill="#ffffff" stroke="#ff0000" points="116,-760.5 116,-779.5 205,-779.5 205,-760.5 116,-760.5"/>
<text text-anchor="middle" x="160.5" y="-767.5" font-family="Helvetica,sans-Serif" font-size="10.00" fill="#000000">test_string_set</text>
</a>
</g>
</g>
<!-- Node35&#45;&gt;Node38 -->
<g id="edge2" class="edge">
<title>Node35&#45;&gt;Node38</title>
<path fill="none" stroke="#191970" d="M28.478,-428.7521C32.1201,-494.3045 47.0284,-703.2051 91,-751 97.5212,-758.0883 106.4072,-762.6314 115.6453,-765.5192"/>
<polygon fill="#191970" stroke="#191970" points="31.9624,-428.3622 27.9399,-418.5607 24.9721,-428.7313 31.9624,-428.3622"/>
</g>
<!-- Node39 -->
<g id="node4" class="node">
<title>Node39</title>
<g id="a_node4"><a xlink:href="test_2config_2address_8c.html#a85fd1e4e98bab2f2185f2d6cb270d14b" target="_top" xlink:title="test_string_get">
<polygon fill="#ffffff" stroke="#ff0000" points="116,-722.5 116,-741.5 205,-741.5 205,-722.5 116,-722.5"/>
<text text-anchor="middle" x="160.5" y="-729.5" font-family="Helvetica,sans-Serif" font-size="10.00" fill="#000000">test_string_get</text>
</a>
</g>
</g>
<!-- Node35&#45;&gt;Node39 -->
<g id="edge3" class="edge">
<title>Node35&#45;&gt;Node39</title>
<path fill="none" stroke="#191970" d="M28.9898,-428.8929C33.9369,-489.6699 51.779,-671.313 91,-713 97.6,-720.015 106.5173,-724.5289 115.7608,-727.4117"/>
<polygon fill="#191970" stroke="#191970" points="32.4631,-428.4135 28.1917,-418.7178 25.4845,-428.9609 32.4631,-428.4135"/>
</g>
<!-- Node40 -->
<g id="node5" class="node">
<title>Node40</title>
<g id="a_node5"><a xlink:href="test_2config_2address_8c.html#ab5935bf604cc953008fde261e13163b8" target="_top" xlink:title="test_native_set">
<polygon fill="#ffffff" stroke="#ff0000" points="114.5,-684.5 114.5,-703.5 206.5,-703.5 206.5,-684.5 114.5,-684.5"/>
<text text-anchor="middle" x="160.5" y="-691.5" font-family="Helvetica,sans-Serif" font-size="10.00" fill="#000000">test_native_set</text>
</a>
</g>
</g>
<!-- Node35&#45;&gt;Node40 -->
<g id="edge4" class="edge">
<title>Node35&#45;&gt;Node40</title>
<path fill="none" stroke="#191970" d="M29.6344,-428.9012C35.9807,-484.431 56.4716,-639.3299 91,-675 97.351,-681.561 105.7313,-685.9252 114.4671,-688.8118"/>
<polygon fill="#191970" stroke="#191970" points="33.0772,-428.1914 28.4949,-418.6387 26.1199,-428.9639 33.0772,-428.1914"/>
</g>
<!-- Node41 -->
<g id="node6" class="node">
<title>Node41</title>
<g id="a_node6"><a xlink:href="test_2config_2address_8c.html#afdd5f411dfa0e2d1c7c7a2a9710182dd" target="_top" xlink:title="test_native_get">
<polygon fill="#ffffff" stroke="#ff0000" points="114.5,-646.5 114.5,-665.5 206.5,-665.5 206.5,-646.5 114.5,-646.5"/>
<text text-anchor="middle" x="160.5" y="-653.5" font-family="Helvetica,sans-Serif" font-size="10.00" fill="#000000">test_native_get</text>
</a>
</g>
</g>
<!-- Node35&#45;&gt;Node41 -->
<g id="edge5" class="edge">
<title>Node35&#45;&gt;Node41</title>
<path fill="none" stroke="#191970" d="M30.4455,-428.6447C38.2769,-478.3392 61.076,-607.2183 91,-637 97.3836,-643.3532 105.6739,-647.6357 114.2936,-650.5096"/>
<polygon fill="#191970" stroke="#191970" points="33.8734,-427.908 28.8916,-418.5575 26.955,-428.9738 33.8734,-427.908"/>
</g>
<!-- Node42 -->
<g id="node7" class="node">
<title>Node42</title>
<g id="a_node7"><a xlink:href="test_2config_2address_8c.html#ac8ddbbe16d88cb9b096c15cf225cbeb3" target="_top" xlink:title="test_reset">
<polygon fill="#ffffff" stroke="#ff0000" points="128,-608.5 128,-627.5 193,-627.5 193,-608.5 128,-608.5"/>
<text text-anchor="middle" x="160.5" y="-615.5" font-family="Helvetica,sans-Serif" font-size="10.00" fill="#000000">test_reset</text>
</a>
</g>
</g>
<!-- Node35&#45;&gt;Node42 -->
<g id="edge6" class="edge">
<title>Node35&#45;&gt;Node42</title>
<path fill="none" stroke="#191970" d="M31.5817,-428.5122C41.0547,-472.0202 65.6635,-575.0363 91,-599 100.9057,-608.369 114.9757,-613.2042 127.8681,-615.6679"/>
<polygon fill="#191970" stroke="#191970" points="34.9748,-427.6418 29.4615,-418.5945 28.1295,-429.1052 34.9748,-427.6418"/>
</g>
<!-- Node43 -->
<g id="node8" class="node">
<title>Node43</title>
<g id="a_node8"><a xlink:href="test_2config_2address_8c.html#a906a32278ed761fb29743aebd54e5bac" target="_top" xlink:title="test_validator">
<polygon fill="#ffffff" stroke="#ff0000" points="118.5,-570.5 118.5,-589.5 202.5,-589.5 202.5,-570.5 118.5,-570.5"/>
<text text-anchor="middle" x="160.5" y="-577.5" font-family="Helvetica,sans-Serif" font-size="10.00" fill="#000000">test_validator</text>
</a>
</g>
</g>
<!-- Node35&#45;&gt;Node43 -->
<g id="edge7" class="edge">
<title>Node35&#45;&gt;Node43</title>
<path fill="none" stroke="#191970" d="M30.1787,-428.9701C35.6165,-461.514 51.0287,-525.8741 91,-561 98.6109,-567.6883 108.3634,-572.0463 118.1403,-574.8791"/>
<polygon fill="#191970" stroke="#191970" points="33.6091,-428.247 28.6473,-418.8859 26.6884,-429.298 33.6091,-428.247"/>
</g>
<!-- Node44 -->
<g id="node9" class="node">
<title>Node44</title>
<g id="a_node9"><a xlink:href="test_2config_2address_8c.html#a76541f7dea628989ebe0d44929067f64" target="_top" xlink:title="test_inherit">
<polygon fill="#ffffff" stroke="#ff0000" points="124.5,-532.5 124.5,-551.5 196.5,-551.5 196.5,-532.5 124.5,-532.5"/>
<text text-anchor="middle" x="160.5" y="-539.5" font-family="Helvetica,sans-Serif" font-size="10.00" fill="#000000">test_inherit</text>
</a>
</g>
</g>
<!-- Node35&#45;&gt;Node44 -->
<g id="edge8" class="edge">
<title>Node35&#45;&gt;Node44</title>
<path fill="none" stroke="#191970" d="M33.0512,-428.2892C41.3977,-453.8087 59.639,-498.4224 91,-523 100.5501,-530.4844 112.8412,-535.0249 124.4249,-537.7778"/>
<polygon fill="#191970" stroke="#191970" points="36.365,-427.1578 30.0706,-418.6354 29.6765,-429.2229 36.365,-427.1578"/>
</g>
<!-- Node45 -->
<g id="node10" class="node">
<title>Node45</title>
<g id="a_node10"><a xlink:href="test_2config_2bool_8c.html#aa724c802934cb5163589b66102ea9838" target="_top" xlink:title="test_toggle">
<polygon fill="#ffffff" stroke="#ff0000" points="125,-494.5 125,-513.5 196,-513.5 196,-494.5 125,-494.5"/>
<text text-anchor="middle" x="160.5" y="-501.5" font-family="Helvetica,sans-Serif" font-size="10.00" fill="#000000">test_toggle</text>
</a>
</g>
</g>
<!-- Node35&#45;&gt;Node45 -->
<g id="edge9" class="edge">
<title>Node35&#45;&gt;Node45</title>
<path fill="none" stroke="#191970" d="M39.6514,-427.1749C51.167,-443.1254 69.819,-465.916 91,-480 101.2045,-486.7854 113.5291,-491.8567 124.9487,-495.5453"/>
<polygon fill="#191970" stroke="#191970" points="42.3239,-424.8886 33.7306,-418.6914 36.5837,-428.8948 42.3239,-424.8886"/>
</g>
<!-- Node47 -->
<g id="node11" class="node">
<title>Node47</title>
<g id="a_node11"><a xlink:href="test_2config_2enum_8h.html#aec8a69fe37232e5a31289d6cfe2eb285" target="_top" xlink:title="config_enum">
<polygon fill="#ffffff" stroke="#000000" points="283,-378.5 283,-397.5 362,-397.5 362,-378.5 283,-378.5"/>
<text text-anchor="middle" x="322.5" y="-385.5" font-family="Helvetica,sans-Serif" font-size="10.00" fill="#000000">config_enum</text>
</a>
</g>
</g>
<!-- Node35&#45;&gt;Node47 -->
<g id="edge10" class="edge">
<title>Node35&#45;&gt;Node47</title>
<path fill="none" stroke="#191970" d="M65.4392,-406.2992C121.3586,-402.3185 225.4336,-394.9098 282.5064,-390.847"/>
<polygon fill="#191970" stroke="#191970" points="64.9791,-402.823 55.2529,-407.0244 65.4762,-409.8054 64.9791,-402.823"/>
</g>
<!-- Node48 -->
<g id="node12" class="node">
<title>Node48</title>
<g id="a_node12"><a xlink:href="test_2config_2set_8h.html#a9df85117efed404dbec10443a902d5dd" target="_top" xlink:title="config_set">
<polygon fill="#ffffff" stroke="#000000" points="289.5,-335.5 289.5,-354.5 355.5,-354.5 355.5,-335.5 289.5,-335.5"/>
<text text-anchor="middle" x="322.5" y="-342.5" font-family="Helvetica,sans-Serif" font-size="10.00" fill="#000000">config_set</text>
</a>
</g>
</g>
<!-- Node35&#45;&gt;Node48 -->
<g id="edge11" class="edge">
<title>Node35&#45;&gt;Node48</title>
<path fill="none" stroke="#191970" d="M64.8753,-397.1484C73.4169,-394.6266 82.4871,-392.0956 91,-390 160.9713,-372.7758 244.152,-357.9653 289.3068,-350.3909"/>
<polygon fill="#191970" stroke="#191970" points="63.7204,-393.8409 55.1559,-400.0778 65.7405,-400.5431 63.7204,-393.8409"/>
</g>
<!-- Node49 -->
<g id="node13" class="node">
<title>Node49</title>
<g id="a_node13"><a xlink:href="test_2config_2slist_8c.html#afd3da3dc4885a6fad10c3b9a1e1498ff" target="_top" xlink:title="slist_test_separator">
<polygon fill="#ffffff" stroke="#000000" points="266,-418.5 266,-437.5 379,-437.5 379,-418.5 266,-418.5"/>
<text text-anchor="middle" x="322.5" y="-425.5" font-family="Helvetica,sans-Serif" font-size="10.00" fill="#000000">slist_test_separator</text>
</a>
</g>
</g>
<!-- Node35&#45;&gt;Node49 -->
<g id="edge12" class="edge">
<title>Node35&#45;&gt;Node49</title>
<path fill="none" stroke="#191970" d="M65.4811,-411.4462C116.3668,-414.7236 207.0748,-420.5658 265.9932,-424.3606"/>
<polygon fill="#191970" stroke="#191970" points="65.4572,-407.9375 55.2529,-410.7875 65.0072,-414.9231 65.4572,-407.9375"/>
</g>
<!-- Node50 -->
<g id="node14" class="node">
<title>Node50</title>
<g id="a_node14"><a xlink:href="test_2config_2slist_8h.html#a50d19d58126ec642af22993ec480568f" target="_top" xlink:title="config_slist">
<polygon fill="#ffffff" stroke="#000000" points="415,-437.5 415,-456.5 486,-456.5 486,-437.5 415,-437.5"/>
<text text-anchor="middle" x="450.5" y="-444.5" font-family="Helvetica,sans-Serif" font-size="10.00" fill="#000000">config_slist</text>
</a>
</g>
</g>
<!-- Node35&#45;&gt;Node50 -->
<g id="edge14" class="edge">
<title>Node35&#45;&gt;Node50</title>
<path fill="none" stroke="#191970" d="M60.3324,-422.0707C70.0666,-425.4811 80.8423,-428.81 91,-431 207.3417,-456.0827 349.6056,-452.6952 414.7886,-449.3198"/>
<polygon fill="#191970" stroke="#191970" points="61.2288,-418.6721 50.6349,-418.5316 58.8289,-425.2479 61.2288,-418.6721"/>
</g>
<!-- Node51 -->
<g id="node15" class="node">
<title>Node51</title>
<g id="a_node15"><a xlink:href="test_2config_2sort_8c.html#ad6967df231a56537b9c597c09d69e8fe" target="_top" xlink:title="test_sort_type">
<polygon fill="#ffffff" stroke="#ff0000" points="117.5,-114.5 117.5,-133.5 203.5,-133.5 203.5,-114.5 117.5,-114.5"/>
<text text-anchor="middle" x="160.5" y="-121.5" font-family="Helvetica,sans-Serif" font-size="10.00" fill="#000000">test_sort_type</text>
</a>
</g>
</g>
<!-- Node35&#45;&gt;Node51 -->
<g id="edge15" class="edge">
<title>Node35&#45;&gt;Node51</title>
<path fill="none" stroke="#191970" d="M29.6344,-389.0988C35.9807,-333.569 56.4716,-178.6701 91,-143 98.047,-135.72 107.5924,-131.1447 117.3497,-128.2914"/>
<polygon fill="#191970" stroke="#191970" points="26.1199,-389.0361 28.4949,-399.3613 33.0772,-389.8086 26.1199,-389.0361"/>
</g>
<!-- Node53 -->
<g id="node16" class="node">
<title>Node53</title>
<g id="a_node16"><a xlink:href="test_2config_2subset_8c.html#a3402327e7e42e09402fe4e1a6479e8cb" target="_top" xlink:title="config_subset">
<polygon fill="#ffffff" stroke="#000000" points="119,-76.5 119,-95.5 202,-95.5 202,-76.5 119,-76.5"/>
<text text-anchor="middle" x="160.5" y="-83.5" font-family="Helvetica,sans-Serif" font-size="10.00" fill="#000000">config_subset</text>
</a>
</g>
</g>
<!-- Node35&#45;&gt;Node53 -->
<g id="edge16" class="edge">
<title>Node35&#45;&gt;Node53</title>
<path fill="none" stroke="#191970" d="M28.9898,-389.1071C33.9369,-328.3301 51.779,-146.687 91,-105 98.2857,-97.2562 108.3953,-92.5601 118.6503,-89.7416"/>
<polygon fill="#191970" stroke="#191970" points="25.4845,-389.0391 28.1917,-399.2822 32.4631,-389.5865 25.4845,-389.0391"/>
</g>
<!-- Node54 -->
<g id="node17" class="node">
<title>Node54</title>
<g id="a_node17"><a xlink:href="account2_8h.html#a2ce9e343cbe8dcaa562803d43192b409" target="_top" xlink:title="config_account">
<polygon fill="#ffffff" stroke="#000000" points="278,-288.5 278,-307.5 367,-307.5 367,-288.5 278,-288.5"/>
<text text-anchor="middle" x="322.5" y="-295.5" font-family="Helvetica,sans-Serif" font-size="10.00" fill="#000000">config_account</text>
</a>
</g>
</g>
<!-- Node35&#45;&gt;Node54 -->
<g id="edge17" class="edge">
<title>Node35&#45;&gt;Node54</title>
<path fill="none" stroke="#191970" d="M31.8594,-389.5784C39.0339,-362.786 56.1514,-315.4789 91,-295 154.5896,-257.6315 245.9617,-275.3756 292.6153,-288.4231"/>
<polygon fill="#191970" stroke="#191970" points="28.4434,-388.8127 29.4398,-399.3605 35.2386,-390.4935 28.4434,-388.8127"/>
</g>
<!-- Node55 -->
<g id="node18" class="node">
<title>Node55</title>
<g id="a_node18"><a xlink:href="config_2common_8h.html#a7138d4fda7918b630016595040609866" target="_top" xlink:title="set_list">
<polygon fill="#ffffff" stroke="#ff0000" points="134.5,-304.5 134.5,-323.5 186.5,-323.5 186.5,-304.5 134.5,-304.5"/>
<text text-anchor="middle" x="160.5" y="-311.5" font-family="Helvetica,sans-Serif" font-size="10.00" fill="#000000">set_list</text>
</a>
</g>
</g>
<!-- Node35&#45;&gt;Node55 -->
<g id="edge18" class="edge">
<title>Node35&#45;&gt;Node55</title>
<path fill="none" stroke="#191970" d="M39.6514,-390.8251C51.167,-374.8746 69.819,-352.084 91,-338 104.0746,-329.3063 120.6294,-323.4263 134.3019,-319.6631"/>
<polygon fill="#191970" stroke="#191970" points="36.5837,-389.1052 33.7306,-399.3086 42.3239,-393.1114 36.5837,-389.1052"/>
</g>
<!-- Node63 -->
<g id="node19" class="node">
<title>Node63</title>
<g id="a_node19"><a xlink:href="initial_8h.html#a4cd564d94f5c10c32f06ae4e775861b5" target="_top" xlink:title="config_initial">
<polygon fill="#ffffff" stroke="#000000" points="283,-190.5 283,-209.5 362,-209.5 362,-190.5 283,-190.5"/>
<text text-anchor="middle" x="322.5" y="-197.5" font-family="Helvetica,sans-Serif" font-size="10.00" fill="#000000">config_initial</text>
</a>
</g>
</g>
<!-- Node35&#45;&gt;Node63 -->
<g id="edge27" class="edge">
<title>Node35&#45;&gt;Node63</title>
<path fill="none" stroke="#191970" d="M31.6951,-389.4061C41.1468,-347.1734 65.2976,-249.7053 91,-229 145.7273,-184.9127 232.6069,-187.264 282.9199,-193.3581"/>
<polygon fill="#191970" stroke="#191970" points="28.2465,-388.793 29.5227,-399.3106 35.0839,-390.2927 28.2465,-388.793"/>
</g>
<!-- Node64 -->
<g id="node20" class="node">
<title>Node64</title>
<g id="a_node20"><a xlink:href="synonym_8h.html#acf81082ee377e802e06c0e4533c5d90f" target="_top" xlink:title="config_synonym">
<polygon fill="#ffffff" stroke="#000000" points="274.5,-231.5 274.5,-250.5 370.5,-250.5 370.5,-231.5 274.5,-231.5"/>
<text text-anchor="middle" x="322.5" y="-238.5" font-family="Helvetica,sans-Serif" font-size="10.00" fill="#000000">config_synonym</text>
</a>
</g>
</g>
<!-- Node35&#45;&gt;Node64 -->
<g id="edge28" class="edge">
<title>Node35&#45;&gt;Node64</title>
<path fill="none" stroke="#191970" d="M30.313,-389.08C35.8589,-357.8907 51.3199,-298.094 91,-269 144.2167,-229.9808 223.5178,-229.2986 274.1119,-233.9525"/>
<polygon fill="#191970" stroke="#191970" points="26.8231,-388.7379 28.6919,-399.1666 33.7344,-389.8487 26.8231,-388.7379"/>
</g>
<!-- Node65 -->
<g id="node21" class="node">
<title>Node65</title>
<g id="a_node21"><a xlink:href="initial_8c.html#a4f413b8276ee82988bdb95f4ebccd862" target="_top" xlink:title="test_set_initial">
<polygon fill="#ffffff" stroke="#000000" points="116,-152.5 116,-171.5 205,-171.5 205,-152.5 116,-152.5"/>
<text text-anchor="middle" x="160.5" y="-159.5" font-family="Helvetica,sans-Serif" font-size="10.00" fill="#000000">test_set_initial</text>
</a>
</g>
</g>
<!-- Node35&#45;&gt;Node65 -->
<g id="edge25" class="edge">
<title>Node35&#45;&gt;Node65</title>
<path fill="none" stroke="#191970" d="M30.6761,-389.564C38.9737,-340.9751 62.6349,-215.9725 91,-186 97.7562,-178.8609 106.7357,-173.8452 115.9899,-170.3214"/>
<polygon fill="#191970" stroke="#191970" points="27.2209,-389.0058 29.0218,-399.4465 34.1248,-390.1616 27.2209,-389.0058"/>
</g>
<!-- Node66 -->
<g id="node22" class="node">
<title>Node66</title>
<g id="a_node22"><a xlink:href="mutt__regex__match_8c.html#a6a4f8c45dd16bfa80b0c5e4964b21912" target="_top" xlink:title="test_simple_cases">
<polygon fill="#ffffff" stroke="#ff0000" points="107,-38.5 107,-57.5 214,-57.5 214,-38.5 107,-38.5"/>
<text text-anchor="middle" x="160.5" y="-45.5" font-family="Helvetica,sans-Serif" font-size="10.00" fill="#000000">test_simple_cases</text>
</a>
</g>
</g>
<!-- Node35&#45;&gt;Node66 -->
<g id="edge29" class="edge">
<title>Node35&#45;&gt;Node66</title>
<path fill="none" stroke="#191970" d="M28.478,-389.2479C32.1201,-323.6955 47.0284,-114.7949 91,-67 95.404,-62.2131 100.8864,-58.587 106.8274,-55.8475"/>
<polygon fill="#191970" stroke="#191970" points="24.9721,-389.2687 27.9399,-399.4393 31.9624,-389.6378 24.9721,-389.2687"/>
</g>
<!-- Node68 -->
<g id="node23" class="node">
<title>Node68</title>
<g id="a_node23"><a xlink:href="mutt__regex__match_8c.html#ab2258674918ec621173f37feee21751a" target="_top" xlink:title="test_old_implementation">
<polygon fill="#ffffff" stroke="#ff0000" points="91,-.5 91,-19.5 230,-19.5 230,-.5 91,-.5"/>
<text text-anchor="middle" x="160.5" y="-7.5" font-family="Helvetica,sans-Serif" font-size="10.00" fill="#000000">test_old_implementation</text>
</a>
</g>
</g>
<!-- Node35&#45;&gt;Node68 -->
<g id="edge30" class="edge">
<title>Node35&#45;&gt;Node68</title>
<path fill="none" stroke="#191970" d="M28.0713,-389.3644C30.5069,-319.3086 42.2579,-82.947 91,-29 94.4382,-25.1946 98.5578,-22.1208 103.0524,-19.6418"/>
<polygon fill="#191970" stroke="#191970" points="24.57,-389.3506 27.7463,-399.4581 31.5664,-389.5759 24.57,-389.3506"/>
</g>
<!-- Node49&#45;&gt;Node50 -->
<g id="edge13" class="edge">
<title>Node49&#45;&gt;Node50</title>
<path fill="none" stroke="#191970" d="M389.0594,-437.8799C397.9634,-439.2016 406.8012,-440.5135 414.8821,-441.713"/>
<polygon fill="#191970" stroke="#191970" points="389.4208,-434.3953 379.0153,-436.389 388.3929,-441.3194 389.4208,-434.3953"/>
</g>
<!-- Node55&#45;&gt;Node47 -->
<g id="edge19" class="edge">
<title>Node55&#45;&gt;Node47</title>
<path fill="none" stroke="#191970" d="M189.3009,-328.0398C210.4265,-338.2425 239.8646,-352.2618 266,-364 276.8884,-368.8903 289.0639,-374.0954 299.3162,-378.4037"/>
<polygon fill="#191970" stroke="#191970" points="190.7469,-324.8512 180.2212,-323.6425 187.6957,-331.1513 190.7469,-324.8512"/>
</g>
<!-- Node55&#45;&gt;Node48 -->
<g id="edge20" class="edge">
<title>Node55&#45;&gt;Node48</title>
<path fill="none" stroke="#191970" d="M196.6019,-320.9084C224.3108,-326.2107 262.2667,-333.4739 289.2402,-338.6355"/>
<polygon fill="#191970" stroke="#191970" points="197.0077,-317.4226 186.5281,-318.9807 195.692,-324.2979 197.0077,-317.4226"/>
</g>
<!-- Node55&#45;&gt;Node49 -->
<g id="edge21" class="edge">
<title>Node55&#45;&gt;Node49</title>
<path fill="none" stroke="#191970" d="M176.0289,-331.0814C195.3882,-351.5169 230.3006,-385.6404 266,-407 273.5432,-411.5133 282.2193,-415.3257 290.4727,-418.4113"/>
<polygon fill="#191970" stroke="#191970" points="178.5546,-328.6578 169.1761,-323.7288 173.4338,-333.4305 178.5546,-328.6578"/>
</g>
<!-- Node55&#45;&gt;Node54 -->
<g id="edge22" class="edge">
<title>Node55&#45;&gt;Node54</title>
<path fill="none" stroke="#191970" d="M196.6336,-310.4313C220.6329,-308.0609 252.3088,-304.9325 277.8794,-302.407"/>
<polygon fill="#191970" stroke="#191970" points="196.1356,-306.9633 186.5281,-311.4293 196.8237,-313.9294 196.1356,-306.9633"/>
</g>
<!-- Node55&#45;&gt;Node63 -->
<g id="edge23" class="edge">
<title>Node55&#45;&gt;Node63</title>
<path fill="none" stroke="#191970" d="M176.3803,-296.9381C195.882,-276.7954 230.7326,-243.3438 266,-222 274.105,-217.0948 283.4944,-212.9195 292.2633,-209.5671"/>
<polygon fill="#191970" stroke="#191970" points="173.5972,-294.7852 169.2327,-304.4394 178.665,-299.6141 173.5972,-294.7852"/>
</g>
<!-- Node55&#45;&gt;Node64 -->
<g id="edge24" class="edge">
<title>Node55&#45;&gt;Node64</title>
<path fill="none" stroke="#191970" d="M191.0656,-300.2266C223.2818,-285.7094 273.1769,-263.2258 301.3161,-250.5458"/>
<polygon fill="#191970" stroke="#191970" points="189.3579,-297.1572 181.6787,-304.4565 192.2337,-303.5391 189.3579,-297.1572"/>
</g>
<!-- Node65&#45;&gt;Node63 -->
<g id="edge26" class="edge">
<title>Node65&#45;&gt;Node63</title>
<path fill="none" stroke="#191970" d="M211.3302,-173.9231C234.3734,-179.3283 261.2174,-185.6251 282.7537,-190.6768"/>
<polygon fill="#191970" stroke="#191970" points="211.9145,-170.4653 201.3794,-171.589 210.3159,-177.2803 211.9145,-170.4653"/>
</g>
</g>
</svg>
