<?xml version="1.0" encoding="UTF-8" standalone="no"?>
<!DOCTYPE svg PUBLIC "-//W3C//DTD SVG 1.1//EN"
 "http://www.w3.org/Graphics/SVG/1.1/DTD/svg11.dtd">
<!-- Generated by graphviz version 2.40.1 (20161225.0304)
 -->
<!-- Title: long_init Pages: 1 -->
<svg width="219pt" height="104pt"
 viewBox="0.00 0.00 219.00 104.00" xmlns="http://www.w3.org/2000/svg" xmlns:xlink="http://www.w3.org/1999/xlink">
<g id="graph0" class="graph" transform="scale(1 1) rotate(0) translate(4 100)">
<title>long_init</title>
<polygon fill="#ffffff" stroke="transparent" points="-4,4 -4,-100 215,-100 215,4 -4,4"/>
<!-- Node19 -->
<g id="node1" class="node">
<title>Node19</title>
<polygon fill="#bfbfbf" stroke="#000000" points="0,-38.5 0,-57.5 59,-57.5 59,-38.5 0,-38.5"/>
<text text-anchor="middle" x="29.5" y="-45.5" font-family="Helvetica,sans-Serif" font-size="10.00" fill="#000000">long_init</text>
</g>
<!-- Node20 -->
<g id="node2" class="node">
<title>Node20</title>
<g id="a_node2"><a xlink:href="test_2config_2dump_8c.html#ad5ef453f64e1485d43199010173e12d3" target="_top" xlink:title="create_sample_data">
<polygon fill="#ffffff" stroke="#ff0000" points="95,-76.5 95,-95.5 211,-95.5 211,-76.5 95,-76.5"/>
<text text-anchor="middle" x="153" y="-83.5" font-family="Helvetica,sans-Serif" font-size="10.00" fill="#000000">create_sample_data</text>
</a>
</g>
</g>
<!-- Node19&#45;&gt;Node20 -->
<g id="edge1" class="edge">
<title>Node19&#45;&gt;Node20</title>
<path fill="none" stroke="#191970" d="M68.8298,-60.1015C85.9939,-65.3827 105.8322,-71.4868 121.9366,-76.442"/>
<polygon fill="#191970" stroke="#191970" points="69.6684,-56.6976 59.0813,-57.1019 67.6098,-63.3881 69.6684,-56.6976"/>
</g>
<!-- Node25 -->
<g id="node3" class="node">
<title>Node25</title>
<g id="a_node3"><a xlink:href="test_2config_2long_8c.html#a2e25add5a11819ab22f2b425c5e87c7c" target="_top" xlink:title="test_config_long">
<polygon fill="#ffffff" stroke="#000000" points="105,-38.5 105,-57.5 201,-57.5 201,-38.5 105,-38.5"/>
<text text-anchor="middle" x="153" y="-45.5" font-family="Helvetica,sans-Serif" font-size="10.00" fill="#000000">test_config_long</text>
</a>
</g>
</g>
<!-- Node19&#45;&gt;Node25 -->
<g id="edge2" class="edge">
<title>Node19&#45;&gt;Node25</title>
<path fill="none" stroke="#191970" d="M69.1449,-48C80.5134,-48 93.0335,-48 104.8538,-48"/>
<polygon fill="#191970" stroke="#191970" points="69.0814,-44.5001 59.0813,-48 69.0813,-51.5001 69.0814,-44.5001"/>
</g>
<!-- Node26 -->
<g id="node4" class="node">
<title>Node26</title>
<g id="a_node4"><a xlink:href="mutt__config_8c.html#a010347bb26a5857fdac5430b85cfaab0" target="_top" xlink:title="Initialise the config system. ">
<polygon fill="#ffffff" stroke="#ff0000" points="119.5,-.5 119.5,-19.5 186.5,-19.5 186.5,-.5 119.5,-.5"/>
<text text-anchor="middle" x="153" y="-7.5" font-family="Helvetica,sans-Serif" font-size="10.00" fill="#000000">init_config</text>
</a>
</g>
</g>
<!-- Node19&#45;&gt;Node26 -->
<g id="edge3" class="edge">
<title>Node19&#45;&gt;Node26</title>
<path fill="none" stroke="#191970" d="M68.8298,-35.8985C85.9939,-30.6173 105.8322,-24.5132 121.9366,-19.558"/>
<polygon fill="#191970" stroke="#191970" points="67.6098,-32.6119 59.0813,-38.8981 69.6684,-39.3024 67.6098,-32.6119"/>
</g>
</g>
</svg>
