<?xml version="1.0" encoding="UTF-8" standalone="no"?>
<!DOCTYPE svg PUBLIC "-//W3C//DTD SVG 1.1//EN"
 "http://www.w3.org/Graphics/SVG/1.1/DTD/svg11.dtd">
<!-- Generated by graphviz version 12.2.1 (20241206.2353)
 -->
<!-- Title: cs_get_elem Pages: 1 -->
<svg width="227pt" height="350pt"
 viewBox="0.00 0.00 226.75 350.25" xmlns="http://www.w3.org/2000/svg" xmlns:xlink="http://www.w3.org/1999/xlink">
<g id="graph0" class="graph" transform="scale(1 1) rotate(0) translate(4 346.25)">
<title>cs_get_elem</title>
<!-- Node1 -->
<g id="Node000001" class="node">
<title>Node1</title>
<g id="a_Node000001"><a xlink:title="Get the HashElem representing a config item.">
<polygon fill="#999999" stroke="#666666" points="218.75,-182.25 145.75,-182.25 145.75,-160 218.75,-160 218.75,-182.25"/>
<text text-anchor="middle" x="182.25" y="-168.75" font-family="Helvetica,sans-Serif" font-size="10.00">cs_get_elem</text>
</a>
</g>
</g>
<!-- Node2 -->
<g id="Node000002" class="node">
<title>Node2</title>
<g id="a_Node000002"><a xlink:href="config_2helpers_8c.html#acad5e4b64f4131258e4ef457f77e29d8" target="_top" xlink:title="Set the initial value of a Config Option.">
<polygon fill="#fff0f0" stroke="red" points="109.38,-342.25 0.38,-342.25 0.38,-320 109.38,-320 109.38,-342.25"/>
<text text-anchor="middle" x="54.88" y="-328.75" font-family="Helvetica,sans-Serif" font-size="10.00">config_str_set_initial</text>
</a>
</g>
</g>
<!-- Node1&#45;&gt;Node2 -->
<g id="edge1_Node000001_Node000002" class="edge">
<title>Node1&#45;&gt;Node2</title>
<g id="a_edge1_Node000001_Node000002"><a xlink:title=" ">
<path fill="none" stroke="#63b8ff" d="M175.41,-193.49C166.31,-224.11 145.93,-278.94 109.75,-311.12 106.02,-314.44 101.7,-317.22 97.15,-319.56"/>
<polygon fill="#63b8ff" stroke="#63b8ff" points="178.7,-194.72 178.03,-184.14 171.96,-192.82 178.7,-194.72"/>
</a>
</g>
</g>
<!-- Node9 -->
<g id="Node000009" class="node">
<title>Node9</title>
<g id="a_Node000009"><a xlink:href="config_2set_8c.html#a6a5efb8a20e8a8d6e3c41c24d7d99343" target="_top" xlink:title="Create an alternative name for a config item.">
<polygon fill="#fff0f0" stroke="red" points="100.75,-302.25 9,-302.25 9,-280 100.75,-280 100.75,-302.25"/>
<text text-anchor="middle" x="54.88" y="-288.75" font-family="Helvetica,sans-Serif" font-size="10.00">create_synonym</text>
</a>
</g>
</g>
<!-- Node1&#45;&gt;Node9 -->
<g id="edge2_Node000001_Node000009" class="edge">
<title>Node1&#45;&gt;Node9</title>
<g id="a_edge2_Node000001_Node000009"><a xlink:title=" ">
<path fill="none" stroke="#63b8ff" d="M170.64,-192.95C158.69,-215.43 137.31,-250.05 109.75,-271.12 105.47,-274.4 100.6,-277.18 95.58,-279.53"/>
<polygon fill="#63b8ff" stroke="#63b8ff" points="173.74,-194.57 175.18,-184.07 167.51,-191.38 173.74,-194.57"/>
</a>
</g>
</g>
<!-- Node45 -->
<g id="Node000045" class="node">
<title>Node45</title>
<g id="a_Node000045"><a xlink:href="config_2set_8c.html#a4c7614b7ca6fc2dd0efc55c45b718d13" target="_top" xlink:title="Is the config value different to its initial value?">
<polygon fill="white" stroke="#666666" points="109.75,-262.25 0,-262.25 0,-240 109.75,-240 109.75,-262.25"/>
<text text-anchor="middle" x="54.88" y="-248.75" font-family="Helvetica,sans-Serif" font-size="10.00">cs_str_has_been_set</text>
</a>
</g>
</g>
<!-- Node1&#45;&gt;Node45 -->
<g id="edge3_Node000001_Node000045" class="edge">
<title>Node1&#45;&gt;Node45</title>
<g id="a_edge3_Node000001_Node000045"><a xlink:title=" ">
<path fill="none" stroke="#63b8ff" d="M161.95,-190.5C148.3,-203.37 129.05,-219.9 109.75,-231.12 104.32,-234.29 98.29,-237.1 92.3,-239.55"/>
<polygon fill="#63b8ff" stroke="#63b8ff" points="164.21,-193.19 168.97,-183.72 159.34,-188.15 164.21,-193.19"/>
</a>
</g>
</g>
<!-- Node46 -->
<g id="Node000046" class="node">
<title>Node46</title>
<g id="a_Node000046"><a xlink:href="config_2set_8c.html#a1bc435f8e505a9274333899fa70250ce" target="_top" xlink:title="Get the initial, or parent, value of a config item.">
<polygon fill="#fff0f0" stroke="red" points="100.38,-222.25 9.38,-222.25 9.38,-200 100.38,-200 100.38,-222.25"/>
<text text-anchor="middle" x="54.88" y="-208.75" font-family="Helvetica,sans-Serif" font-size="10.00">cs_str_initial_get</text>
</a>
</g>
</g>
<!-- Node1&#45;&gt;Node46 -->
<g id="edge4_Node000001_Node000046" class="edge">
<title>Node1&#45;&gt;Node46</title>
<g id="a_edge4_Node000001_Node000046"><a xlink:title=" ">
<path fill="none" stroke="#63b8ff" d="M134.43,-186.06C120.49,-190.51 105.42,-195.32 92.24,-199.52"/>
<polygon fill="#63b8ff" stroke="#63b8ff" points="135.42,-189.42 143.88,-183.05 133.29,-182.75 135.42,-189.42"/>
</a>
</g>
</g>
<!-- Node83 -->
<g id="Node000083" class="node">
<title>Node83</title>
<g id="a_Node000083"><a xlink:href="config_2set_8c.html#a6eec066d228f0ded678c35ed8aa9ac28" target="_top" xlink:title="Natively set the value of a string config item.">
<polygon fill="#fff0f0" stroke="red" points="101.88,-182.25 7.87,-182.25 7.87,-160 101.88,-160 101.88,-182.25"/>
<text text-anchor="middle" x="54.88" y="-168.75" font-family="Helvetica,sans-Serif" font-size="10.00">cs_str_native_set</text>
</a>
</g>
</g>
<!-- Node1&#45;&gt;Node83 -->
<g id="edge5_Node000001_Node000083" class="edge">
<title>Node1&#45;&gt;Node83</title>
<g id="a_edge5_Node000001_Node000083"><a xlink:title=" ">
<path fill="none" stroke="#63b8ff" d="M133.89,-171.12C123.49,-171.12 112.48,-171.12 102.12,-171.12"/>
<polygon fill="#63b8ff" stroke="#63b8ff" points="133.81,-174.63 143.81,-171.13 133.81,-167.63 133.81,-174.63"/>
</a>
</g>
</g>
<!-- Node84 -->
<g id="Node000084" class="node">
<title>Node84</title>
<g id="a_Node000084"><a xlink:href="config_2set_8c.html#a2c2cb475e50df247e8c88dab8c123534" target="_top" xlink:title="Reset a config item to its initial value.">
<polygon fill="#fff0f0" stroke="red" points="90.25,-142.25 19.5,-142.25 19.5,-120 90.25,-120 90.25,-142.25"/>
<text text-anchor="middle" x="54.88" y="-128.75" font-family="Helvetica,sans-Serif" font-size="10.00">cs_str_reset</text>
</a>
</g>
</g>
<!-- Node1&#45;&gt;Node84 -->
<g id="edge6_Node000001_Node000084" class="edge">
<title>Node1&#45;&gt;Node84</title>
<g id="a_edge6_Node000001_Node000084"><a xlink:title=" ">
<path fill="none" stroke="#63b8ff" d="M134.47,-156.2C119.9,-151.55 104.1,-146.51 90.51,-142.18"/>
<polygon fill="#63b8ff" stroke="#63b8ff" points="133.29,-159.5 143.88,-159.2 135.42,-152.83 133.29,-159.5"/>
</a>
</g>
</g>
<!-- Node85 -->
<g id="Node000085" class="node">
<title>Node85</title>
<g id="a_Node000085"><a xlink:href="config_2set_8c.html#a5b6c4a72c38c2eca93569af53cc82eed" target="_top" xlink:title="Set a config item by string.">
<polygon fill="#fff0f0" stroke="red" points="101.12,-102.25 8.62,-102.25 8.62,-80 101.12,-80 101.12,-102.25"/>
<text text-anchor="middle" x="54.88" y="-88.75" font-family="Helvetica,sans-Serif" font-size="10.00">cs_str_string_set</text>
</a>
</g>
</g>
<!-- Node1&#45;&gt;Node85 -->
<g id="edge7_Node000001_Node000085" class="edge">
<title>Node1&#45;&gt;Node85</title>
<g id="a_edge7_Node000001_Node000085"><a xlink:title=" ">
<path fill="none" stroke="#63b8ff" d="M161.95,-151.75C148.3,-138.88 129.05,-122.35 109.75,-111.12 104.32,-107.96 98.29,-105.15 92.3,-102.7"/>
<polygon fill="#63b8ff" stroke="#63b8ff" points="159.34,-154.1 168.97,-158.53 164.21,-149.06 159.34,-154.1"/>
</a>
</g>
</g>
<!-- Node86 -->
<g id="Node000086" class="node">
<title>Node86</title>
<g id="a_Node000086"><a xlink:href="subset_8c.html#ac22ac8f8fd30068d1d00fd3fdd3394e5" target="_top" xlink:title="Find an inherited config item.">
<polygon fill="#fff0f0" stroke="red" points="103,-62.25 6.75,-62.25 6.75,-40 103,-40 103,-62.25"/>
<text text-anchor="middle" x="54.88" y="-48.75" font-family="Helvetica,sans-Serif" font-size="10.00">cs_subset_lookup</text>
</a>
</g>
</g>
<!-- Node1&#45;&gt;Node86 -->
<g id="edge8_Node000001_Node000086" class="edge">
<title>Node1&#45;&gt;Node86</title>
<g id="a_edge8_Node000001_Node000086"><a xlink:title=" ">
<path fill="none" stroke="#63b8ff" d="M170.64,-149.3C158.69,-126.82 137.31,-92.2 109.75,-71.12 105.47,-67.85 100.6,-65.07 95.58,-62.72"/>
<polygon fill="#63b8ff" stroke="#63b8ff" points="167.51,-150.87 175.18,-158.18 173.74,-147.68 167.51,-150.87"/>
</a>
</g>
</g>
<!-- Node599 -->
<g id="Node000599" class="node">
<title>Node599</title>
<g id="a_Node000599"><a xlink:href="main_8c.html#a65d332be0abf5b14c519e50da55d72bf" target="_top" xlink:title="Temporary measure.">
<polygon fill="#fff0f0" stroke="red" points="87.25,-22.25 22.5,-22.25 22.5,0 87.25,0 87.25,-22.25"/>
<text text-anchor="middle" x="54.88" y="-8.75" font-family="Helvetica,sans-Serif" font-size="10.00">reset_tilde</text>
</a>
</g>
</g>
<!-- Node1&#45;&gt;Node599 -->
<g id="edge9_Node000001_Node000599" class="edge">
<title>Node1&#45;&gt;Node599</title>
<g id="a_edge9_Node000001_Node000599"><a xlink:title=" ">
<path fill="none" stroke="#63b8ff" d="M175.41,-148.76C166.31,-118.14 145.93,-63.31 109.75,-31.12 103.49,-25.55 95.54,-21.49 87.68,-18.53"/>
<polygon fill="#63b8ff" stroke="#63b8ff" points="171.96,-149.43 178.03,-158.11 178.7,-147.53 171.96,-149.43"/>
</a>
</g>
</g>
</g>
</svg>
