<?xml version="1.0" encoding="UTF-8" standalone="no"?>
<!DOCTYPE svg PUBLIC "-//W3C//DTD SVG 1.1//EN"
 "http://www.w3.org/Graphics/SVG/1.1/DTD/svg11.dtd">
<!-- Generated by graphviz version 2.44.0 (0)
 -->
<!-- Title: address_free Pages: 1 -->
<svg width="218pt" height="66pt"
 viewBox="0.00 0.00 218.00 66.00" xmlns="http://www.w3.org/2000/svg" xmlns:xlink="http://www.w3.org/1999/xlink">
<g id="graph0" class="graph" transform="scale(1 1) rotate(0) translate(4 62)">
<title>address_free</title>
<polygon fill="white" stroke="transparent" points="-4,4 -4,-62 214,-62 214,4 -4,4"/>
<!-- Node1 -->
<g id="node1" class="node">
<title>Node1</title>
<g id="a_node1"><a xlink:title="Free an Address object.">
<polygon fill="#bfbfbf" stroke="black" points="137,-19.5 137,-38.5 210,-38.5 210,-19.5 137,-19.5"/>
<text text-anchor="middle" x="173.5" y="-26.5" font-family="Helvetica" font-size="10.00">address_free</text>
</a>
</g>
</g>
<!-- Node2 -->
<g id="node2" class="node">
<title>Node2</title>
<g id="a_node2"><a xlink:href="config_2address_8c.html#abd2f53bded52356d4d0066d3558326df" target="_top" xlink:title="Destroy an Address object &#45; Implements ConfigSetType::destroy()">
<polygon fill="white" stroke="red" points="6,-38.5 6,-57.5 95,-57.5 95,-38.5 6,-38.5"/>
<text text-anchor="middle" x="50.5" y="-45.5" font-family="Helvetica" font-size="10.00">address_destroy</text>
</a>
</g>
</g>
<!-- Node1&#45;&gt;Node2 -->
<g id="edge1" class="edge">
<title>Node1&#45;&gt;Node2</title>
<path fill="none" stroke="midnightblue" d="M126.72,-36.19C116.33,-37.82 105.33,-39.55 95.03,-41.16"/>
<polygon fill="midnightblue" stroke="midnightblue" points="127.51,-39.61 136.85,-34.6 126.43,-32.69 127.51,-39.61"/>
</g>
<!-- Node5 -->
<g id="node3" class="node">
<title>Node5</title>
<g id="a_node3"><a xlink:href="config_2address_8c.html#ae93647fb497ccd3fbe0e2fd2cb834224" target="_top" xlink:title="Set an Address config item by Address object &#45; Implements ConfigSetType::native_set()">
<polygon fill="white" stroke="black" points="0,-0.5 0,-19.5 101,-19.5 101,-0.5 0,-0.5"/>
<text text-anchor="middle" x="50.5" y="-7.5" font-family="Helvetica" font-size="10.00">address_native_set</text>
</a>
</g>
</g>
<!-- Node1&#45;&gt;Node5 -->
<g id="edge2" class="edge">
<title>Node1&#45;&gt;Node5</title>
<path fill="none" stroke="midnightblue" d="M126.88,-21.84C118.51,-20.52 109.73,-19.14 101.24,-17.81"/>
<polygon fill="midnightblue" stroke="midnightblue" points="126.43,-25.31 136.85,-23.4 127.51,-18.39 126.43,-25.31"/>
</g>
</g>
</svg>
