<?xml version="1.0" encoding="UTF-8" standalone="no"?>
<!DOCTYPE svg PUBLIC "-//W3C//DTD SVG 1.1//EN"
 "http://www.w3.org/Graphics/SVG/1.1/DTD/svg11.dtd">
<!-- Generated by graphviz version 7.1.0 (0)
 -->
<!-- Title: config_str_set_initial Pages: 1 -->
<svg width="428pt" height="141pt"
 viewBox="0.00 0.00 428.00 141.00" xmlns="http://www.w3.org/2000/svg" xmlns:xlink="http://www.w3.org/1999/xlink">
<g id="graph0" class="graph" transform="scale(1 1) rotate(0) translate(4 137)">
<title>config_str_set_initial</title>
<!-- Node1 -->
<g id="node1" class="node">
<title>Node1</title>
<g id="a_node1"><a xlink:title="Set the initial value of a Config Option.">
<polygon fill="#999999" stroke="#666666" points="420,-76 310,-76 310,-57 420,-57 420,-76"/>
<text text-anchor="middle" x="365" y="-64" font-family="Helvetica,sans-Serif" font-size="10.00">config_str_set_initial</text>
</a>
</g>
</g>
<!-- Node2 -->
<g id="node2" class="node">
<title>Node2</title>
<g id="a_node2"><a xlink:href="main_8c.html#accd8fc806fe125319f45c8cde5b898db" target="_top" xlink:title="Find the Fully&#45;Qualified Domain Name.">
<polygon fill="white" stroke="#666666" points="274,-133 191,-133 191,-114 274,-114 274,-133"/>
<text text-anchor="middle" x="232.5" y="-121" font-family="Helvetica,sans-Serif" font-size="10.00">get_hostname</text>
</a>
</g>
</g>
<!-- Node1&#45;&gt;Node2 -->
<g id="edge1" class="edge">
<title>Node1&#45;&gt;Node2</title>
<path fill="none" stroke="#63b8ff" d="M330.75,-81.02C307.32,-91.26 276.56,-104.69 255.97,-113.69"/>
<polygon fill="#63b8ff" stroke="#63b8ff" points="332.12,-84.24 339.88,-77.03 329.32,-77.83 332.12,-84.24"/>
</g>
<!-- Node3 -->
<g id="node3" class="node">
<title>Node3</title>
<g id="a_node3"><a xlink:href="main_8c.html#a939ff13ef7cce42a05afef6c2be02187" target="_top" xlink:title="Initialise NeoMutt.">
<polygon fill="white" stroke="#666666" points="144,-95 86,-95 86,-76 144,-76 144,-95"/>
<text text-anchor="middle" x="115" y="-83" font-family="Helvetica,sans-Serif" font-size="10.00">mutt_init</text>
</a>
</g>
</g>
<!-- Node1&#45;&gt;Node3 -->
<g id="edge7" class="edge">
<title>Node1&#45;&gt;Node3</title>
<path fill="none" stroke="#63b8ff" d="M298.2,-71.54C248.15,-75.38 181.74,-80.46 144.49,-83.32"/>
<polygon fill="#63b8ff" stroke="#63b8ff" points="298.36,-75.04 308.07,-70.79 297.83,-68.06 298.36,-75.04"/>
</g>
<!-- Node4 -->
<g id="node4" class="node">
<title>Node4</title>
<g id="a_node4"><a xlink:href="main_8c.html#adedb285b02c41bde2158ded9cc9fd7ac" target="_top" xlink:title="Start NeoMutt.">
<polygon fill="white" stroke="#666666" points="39,-57 0,-57 0,-38 39,-38 39,-57"/>
<text text-anchor="middle" x="19.5" y="-45" font-family="Helvetica,sans-Serif" font-size="10.00">main</text>
</a>
</g>
</g>
<!-- Node1&#45;&gt;Node4 -->
<g id="edge6" class="edge">
<title>Node1&#45;&gt;Node4</title>
<path fill="none" stroke="#63b8ff" d="M298.13,-62.86C218.03,-58.43 87.53,-51.21 39.24,-48.54"/>
<polygon fill="#63b8ff" stroke="#63b8ff" points="297.88,-66.35 308.06,-63.41 298.27,-59.36 297.88,-66.35"/>
</g>
<!-- Node5 -->
<g id="node5" class="node">
<title>Node5</title>
<g id="a_node5"><a xlink:href="main_8c.html#ab1ab96b05777c73f61c060778657ec38" target="_top" xlink:title="Find the user&#39;s name, home and shell.">
<polygon fill="white" stroke="#666666" points="155,-19 75,-19 75,0 155,0 155,-19"/>
<text text-anchor="middle" x="115" y="-7" font-family="Helvetica,sans-Serif" font-size="10.00">get_user_info</text>
</a>
</g>
</g>
<!-- Node1&#45;&gt;Node5 -->
<g id="edge4" class="edge">
<title>Node1&#45;&gt;Node5</title>
<path fill="none" stroke="#63b8ff" d="M330.72,-52.48C313.96,-45.89 293.17,-38.42 274,-33.5 234.22,-23.3 187.63,-16.87 155.4,-13.26"/>
<polygon fill="#63b8ff" stroke="#63b8ff" points="329.11,-55.61 339.69,-56.09 331.72,-49.11 329.11,-55.61"/>
</g>
<!-- Node2&#45;&gt;Node3 -->
<g id="edge2" class="edge">
<title>Node2&#45;&gt;Node3</title>
<path fill="none" stroke="#63b8ff" d="M190.38,-109.97C175.06,-104.93 158.05,-99.33 144.16,-94.77"/>
<polygon fill="#63b8ff" stroke="#63b8ff" points="189.12,-113.24 199.72,-113.04 191.31,-106.59 189.12,-113.24"/>
</g>
<!-- Node3&#45;&gt;Node4 -->
<g id="edge3" class="edge">
<title>Node3&#45;&gt;Node4</title>
<path fill="none" stroke="#63b8ff" d="M79.02,-71.28C65.54,-65.81 50.67,-59.76 39.29,-55.14"/>
<polygon fill="#63b8ff" stroke="#63b8ff" points="77.45,-74.42 88.03,-74.95 80.09,-67.94 77.45,-74.42"/>
</g>
<!-- Node5&#45;&gt;Node4 -->
<g id="edge5" class="edge">
<title>Node5&#45;&gt;Node4</title>
<path fill="none" stroke="#63b8ff" d="M79.02,-23.72C65.54,-29.19 50.67,-35.24 39.29,-39.86"/>
<polygon fill="#63b8ff" stroke="#63b8ff" points="80.09,-27.06 88.03,-20.05 77.45,-20.58 80.09,-27.06"/>
</g>
</g>
</svg>
