<?xml version="1.0" encoding="UTF-8" standalone="no"?>
<!DOCTYPE svg PUBLIC "-//W3C//DTD SVG 1.1//EN"
 "http://www.w3.org/Graphics/SVG/1.1/DTD/svg11.dtd">
<!-- Generated by graphviz version 2.40.1 (20161225.0304)
 -->
<!-- Title: pretty_var Pages: 1 -->
<svg width="255pt" height="180pt"
 viewBox="0.00 0.00 255.00 180.00" xmlns="http://www.w3.org/2000/svg" xmlns:xlink="http://www.w3.org/1999/xlink">
<g id="graph0" class="graph" transform="scale(1 1) rotate(0) translate(4 176)">
<title>pretty_var</title>
<polygon fill="#ffffff" stroke="transparent" points="-4,4 -4,-176 251,-176 251,4 -4,4"/>
<!-- Node1066 -->
<g id="node1" class="node">
<title>Node1066</title>
<polygon fill="#bfbfbf" stroke="#000000" points="0,-76.5 0,-95.5 67,-95.5 67,-76.5 0,-76.5"/>
<text text-anchor="middle" x="33.5" y="-83.5" font-family="Helvetica,sans-Serif" font-size="10.00" fill="#000000">pretty_var</text>
</g>
<!-- Node1067 -->
<g id="node2" class="node">
<title>Node1067</title>
<g id="a_node2"><a xlink:href="command__parse_8h.html#aa407f178c6272a5b6f321a01b7e20f7b" target="_top" xlink:title="Parse the &#39;set&#39; family of commands &#45; Implements Command::parse() ">
<polygon fill="#ffffff" stroke="#000000" points="143,-152.5 143,-171.5 207,-171.5 207,-152.5 143,-152.5"/>
<text text-anchor="middle" x="175" y="-159.5" font-family="Helvetica,sans-Serif" font-size="10.00" fill="#000000">parse_set</text>
</a>
</g>
</g>
<!-- Node1066&#45;&gt;Node1067 -->
<g id="edge1" class="edge">
<title>Node1066&#45;&gt;Node1067</title>
<path fill="none" stroke="#191970" d="M49.7992,-102.8507C63.0278,-115.6088 82.7473,-132.6497 103,-143 115.3175,-149.295 129.9166,-153.647 142.7382,-156.5806"/>
<polygon fill="#191970" stroke="#191970" points="52.0169,-100.1205 42.4545,-95.5585 47.0849,-105.088 52.0169,-100.1205"/>
</g>
<!-- Node1068 -->
<g id="node3" class="node">
<title>Node1068</title>
<g id="a_node3"><a xlink:href="dump_8h.html#a200d11d28ce799a726af4e7bd2bad49d" target="_top" xlink:title="Write all the config to a file. ">
<polygon fill="#ffffff" stroke="#ff0000" points="135.5,-114.5 135.5,-133.5 214.5,-133.5 214.5,-114.5 135.5,-114.5"/>
<text text-anchor="middle" x="175" y="-121.5" font-family="Helvetica,sans-Serif" font-size="10.00" fill="#000000">dump_config</text>
</a>
</g>
</g>
<!-- Node1066&#45;&gt;Node1068 -->
<g id="edge2" class="edge">
<title>Node1066&#45;&gt;Node1068</title>
<path fill="none" stroke="#191970" d="M76.9649,-97.9461C85.5881,-100.2981 94.5777,-102.7375 103,-105 114.6113,-108.1191 127.2883,-111.4795 138.7244,-114.4942"/>
<polygon fill="#191970" stroke="#191970" points="77.6352,-94.501 67.0662,-95.2408 75.7898,-101.2533 77.6352,-94.501"/>
</g>
<!-- Node1073 -->
<g id="node4" class="node">
<title>Node1073</title>
<g id="a_node4"><a xlink:href="test_2config_2dump_8c.html#a2942e86e764348c95cb1c92267b51c14" target="_top" xlink:title="test_pretty_var">
<polygon fill="#ffffff" stroke="#ff0000" points="129.5,-76.5 129.5,-95.5 220.5,-95.5 220.5,-76.5 129.5,-76.5"/>
<text text-anchor="middle" x="175" y="-83.5" font-family="Helvetica,sans-Serif" font-size="10.00" fill="#000000">test_pretty_var</text>
</a>
</g>
</g>
<!-- Node1066&#45;&gt;Node1073 -->
<g id="edge3" class="edge">
<title>Node1066&#45;&gt;Node1073</title>
<path fill="none" stroke="#191970" d="M77.4982,-86C93.9913,-86 112.7591,-86 129.3947,-86"/>
<polygon fill="#191970" stroke="#191970" points="77.0336,-82.5001 67.0335,-86 77.0335,-89.5001 77.0336,-82.5001"/>
</g>
<!-- Node1074 -->
<g id="node5" class="node">
<title>Node1074</title>
<g id="a_node5"><a xlink:href="init_8h.html#a10a5a62f5a2ac28b4b4954f7f1250267" target="_top" xlink:title="Implement the &#45;Q command line flag. ">
<polygon fill="#ffffff" stroke="#ff0000" points="113.5,-38.5 113.5,-57.5 236.5,-57.5 236.5,-38.5 113.5,-38.5"/>
<text text-anchor="middle" x="175" y="-45.5" font-family="Helvetica,sans-Serif" font-size="10.00" fill="#000000">mutt_query_variables</text>
</a>
</g>
</g>
<!-- Node1066&#45;&gt;Node1074 -->
<g id="edge4" class="edge">
<title>Node1066&#45;&gt;Node1074</title>
<path fill="none" stroke="#191970" d="M76.9649,-74.0539C85.5881,-71.7019 94.5777,-69.2625 103,-67 114.6113,-63.8809 127.2883,-60.5205 138.7244,-57.5058"/>
<polygon fill="#191970" stroke="#191970" points="75.7898,-70.7467 67.0662,-76.7592 77.6352,-77.499 75.7898,-70.7467"/>
</g>
<!-- Node1075 -->
<g id="node6" class="node">
<title>Node1075</title>
<g id="a_node6"><a xlink:href="init_8h.html#a173ae67a86a1c7bfc88e98a0edbe514f" target="_top" xlink:title="Complete a variable/value. ">
<polygon fill="#ffffff" stroke="#ff0000" points="103,-.5 103,-19.5 247,-19.5 247,-.5 103,-.5"/>
<text text-anchor="middle" x="175" y="-7.5" font-family="Helvetica,sans-Serif" font-size="10.00" fill="#000000">mutt_var_value_complete</text>
</a>
</g>
</g>
<!-- Node1066&#45;&gt;Node1075 -->
<g id="edge5" class="edge">
<title>Node1066&#45;&gt;Node1075</title>
<path fill="none" stroke="#191970" d="M49.7992,-69.1493C63.0278,-56.3912 82.7473,-39.3503 103,-29 110.4826,-25.1759 118.8072,-22.0689 127.0638,-19.5613"/>
<polygon fill="#191970" stroke="#191970" points="47.0849,-66.912 42.4545,-76.4415 52.0169,-71.8795 47.0849,-66.912"/>
</g>
</g>
</svg>
