<?xml version="1.0" encoding="UTF-8" standalone="no"?>
<!DOCTYPE svg PUBLIC "-//W3C//DTD SVG 1.1//EN"
 "http://www.w3.org/Graphics/SVG/1.1/DTD/svg11.dtd">
<!-- Generated by graphviz version 2.44.0 (0)
 -->
<!-- Title: config/path.c Pages: 1 -->
<svg width="470pt" height="140pt"
 viewBox="0.00 0.00 470.00 140.00" xmlns="http://www.w3.org/2000/svg" xmlns:xlink="http://www.w3.org/1999/xlink">
<g id="graph0" class="graph" transform="scale(1 1) rotate(0) translate(4 136)">
<title>config/path.c</title>
<polygon fill="white" stroke="transparent" points="-4,4 -4,-136 466,-136 466,4 -4,4"/>
<!-- Node1 -->
<g id="node1" class="node">
<title>Node1</title>
<g id="a_node1"><a xlink:title=" ">
<polygon fill="#bfbfbf" stroke="black" points="201,-112.5 201,-131.5 274,-131.5 274,-112.5 201,-112.5"/>
<text text-anchor="middle" x="237.5" y="-119.5" font-family="Helvetica" font-size="10.00">config/path.c</text>
</a>
</g>
</g>
<!-- Node2 -->
<g id="node2" class="node">
<title>Node2</title>
<g id="a_node2"><a xlink:title=" ">
<polygon fill="white" stroke="#bfbfbf" points="0,-56.5 0,-75.5 51,-75.5 51,-56.5 0,-56.5"/>
<text text-anchor="middle" x="25.5" y="-63.5" font-family="Helvetica" font-size="10.00">config.h</text>
</a>
</g>
</g>
<!-- Node1&#45;&gt;Node2 -->
<g id="edge1" class="edge">
<title>Node1&#45;&gt;Node2</title>
<path fill="none" stroke="midnightblue" d="M203.35,-112.49C169.52,-104.03 115.99,-90.57 61.02,-76.38"/>
<polygon fill="midnightblue" stroke="midnightblue" points="61.67,-72.93 51.11,-73.81 59.92,-79.7 61.67,-72.93"/>
</g>
<!-- Node3 -->
<g id="node3" class="node">
<title>Node3</title>
<g id="a_node3"><a xlink:title=" ">
<polygon fill="white" stroke="#bfbfbf" points="69,-56.5 69,-75.5 120,-75.5 120,-56.5 69,-56.5"/>
<text text-anchor="middle" x="94.5" y="-63.5" font-family="Helvetica" font-size="10.00">stddef.h</text>
</a>
</g>
</g>
<!-- Node1&#45;&gt;Node3 -->
<g id="edge2" class="edge">
<title>Node1&#45;&gt;Node3</title>
<path fill="none" stroke="midnightblue" d="M214.84,-112.44C191.1,-103.48 153.59,-89.31 126.76,-79.18"/>
<polygon fill="midnightblue" stroke="midnightblue" points="127.64,-75.77 117.05,-75.52 125.17,-82.32 127.64,-75.77"/>
</g>
<!-- Node4 -->
<g id="node4" class="node">
<title>Node4</title>
<g id="a_node4"><a xlink:title=" ">
<polygon fill="white" stroke="#bfbfbf" points="138.5,-56.5 138.5,-75.5 186.5,-75.5 186.5,-56.5 138.5,-56.5"/>
<text text-anchor="middle" x="162.5" y="-63.5" font-family="Helvetica" font-size="10.00">limits.h</text>
</a>
</g>
</g>
<!-- Node1&#45;&gt;Node4 -->
<g id="edge3" class="edge">
<title>Node1&#45;&gt;Node4</title>
<path fill="none" stroke="midnightblue" d="M225.45,-112.32C214.04,-104.11 196.67,-91.6 183.07,-81.81"/>
<polygon fill="midnightblue" stroke="midnightblue" points="184.93,-78.84 174.77,-75.83 180.84,-84.52 184.93,-78.84"/>
</g>
<!-- Node5 -->
<g id="node5" class="node">
<title>Node5</title>
<g id="a_node5"><a xlink:title=" ">
<polygon fill="white" stroke="#bfbfbf" points="210.5,-0.5 210.5,-19.5 266.5,-19.5 266.5,-0.5 210.5,-0.5"/>
<text text-anchor="middle" x="238.5" y="-7.5" font-family="Helvetica" font-size="10.00">stdbool.h</text>
</a>
</g>
</g>
<!-- Node1&#45;&gt;Node5 -->
<g id="edge4" class="edge">
<title>Node1&#45;&gt;Node5</title>
<path fill="none" stroke="midnightblue" d="M236.3,-112.17C234.76,-99.67 232.39,-76.09 233.5,-56 233.98,-47.36 234.97,-37.83 235.95,-29.77"/>
<polygon fill="midnightblue" stroke="midnightblue" points="239.45,-29.97 237.26,-19.6 232.51,-29.07 239.45,-29.97"/>
</g>
<!-- Node6 -->
<g id="node6" class="node">
<title>Node6</title>
<g id="a_node6"><a xlink:title=" ">
<polygon fill="white" stroke="#bfbfbf" points="360.5,-0.5 360.5,-19.5 408.5,-19.5 408.5,-0.5 360.5,-0.5"/>
<text text-anchor="middle" x="384.5" y="-7.5" font-family="Helvetica" font-size="10.00">stdint.h</text>
</a>
</g>
</g>
<!-- Node1&#45;&gt;Node6 -->
<g id="edge5" class="edge">
<title>Node1&#45;&gt;Node6</title>
<path fill="none" stroke="midnightblue" d="M274.02,-116.97C302.36,-111.97 340.7,-100.82 364.5,-76 376.36,-63.63 381.2,-44.38 383.17,-30.04"/>
<polygon fill="midnightblue" stroke="midnightblue" points="386.68,-30.11 384.21,-19.81 379.72,-29.41 386.68,-30.11"/>
</g>
<!-- Node7 -->
<g id="node7" class="node">
<title>Node7</title>
<g id="a_node7"><a xlink:href="mutt_2lib_8h.html" target="_top" xlink:title=" ">
<polygon fill="white" stroke="red" points="299,-56.5 299,-75.5 356,-75.5 356,-56.5 299,-56.5"/>
<text text-anchor="middle" x="327.5" y="-63.5" font-family="Helvetica" font-size="10.00">mutt/lib.h</text>
</a>
</g>
</g>
<!-- Node1&#45;&gt;Node7 -->
<g id="edge6" class="edge">
<title>Node1&#45;&gt;Node7</title>
<path fill="none" stroke="midnightblue" d="M251.96,-112.32C266,-103.9 287.55,-90.97 304.04,-81.07"/>
<polygon fill="midnightblue" stroke="midnightblue" points="306.3,-83.8 313.08,-75.65 302.7,-77.8 306.3,-83.8"/>
</g>
<!-- Node49 -->
<g id="node8" class="node">
<title>Node49</title>
<g id="a_node8"><a xlink:href="set_8h.html" target="_top" xlink:title=" ">
<polygon fill="white" stroke="red" points="242.5,-56.5 242.5,-75.5 280.5,-75.5 280.5,-56.5 242.5,-56.5"/>
<text text-anchor="middle" x="261.5" y="-63.5" font-family="Helvetica" font-size="10.00">set.h</text>
</a>
</g>
</g>
<!-- Node1&#45;&gt;Node49 -->
<g id="edge7" class="edge">
<title>Node1&#45;&gt;Node49</title>
<path fill="none" stroke="midnightblue" d="M241.46,-112.08C244.71,-104.77 249.42,-94.18 253.45,-85.1"/>
<polygon fill="midnightblue" stroke="midnightblue" points="256.75,-86.31 257.61,-75.75 250.35,-83.47 256.75,-86.31"/>
</g>
<!-- Node50 -->
<g id="node9" class="node">
<title>Node50</title>
<g id="a_node9"><a xlink:href="types_8h.html" target="_top" xlink:title=" ">
<polygon fill="white" stroke="black" points="413,-56.5 413,-75.5 462,-75.5 462,-56.5 413,-56.5"/>
<text text-anchor="middle" x="437.5" y="-63.5" font-family="Helvetica" font-size="10.00">types.h</text>
</a>
</g>
</g>
<!-- Node1&#45;&gt;Node50 -->
<g id="edge10" class="edge">
<title>Node1&#45;&gt;Node50</title>
<path fill="none" stroke="midnightblue" d="M269.19,-112.44C305.64,-102.6 365.27,-86.5 402.9,-76.34"/>
<polygon fill="midnightblue" stroke="midnightblue" points="404.15,-79.63 412.89,-73.64 402.33,-72.87 404.15,-79.63"/>
</g>
<!-- Node49&#45;&gt;Node5 -->
<g id="edge8" class="edge">
<title>Node49&#45;&gt;Node5</title>
<path fill="none" stroke="midnightblue" d="M257.7,-56.08C254.59,-48.77 250.08,-38.18 246.21,-29.1"/>
<polygon fill="midnightblue" stroke="midnightblue" points="249.37,-27.58 242.23,-19.75 242.93,-30.32 249.37,-27.58"/>
</g>
<!-- Node49&#45;&gt;Node6 -->
<g id="edge9" class="edge">
<title>Node49&#45;&gt;Node6</title>
<path fill="none" stroke="midnightblue" d="M280.72,-56.56C300.82,-47.74 332.6,-33.79 355.7,-23.64"/>
<polygon fill="midnightblue" stroke="midnightblue" points="357.26,-26.78 365.01,-19.56 354.45,-20.37 357.26,-26.78"/>
</g>
<!-- Node50&#45;&gt;Node6 -->
<g id="edge11" class="edge">
<title>Node50&#45;&gt;Node6</title>
<path fill="none" stroke="midnightblue" d="M428.75,-56.08C421.03,-48.22 409.6,-36.57 400.28,-27.08"/>
<polygon fill="midnightblue" stroke="midnightblue" points="402.59,-24.44 393.09,-19.75 397.6,-29.34 402.59,-24.44"/>
</g>
</g>
</svg>
