<?xml version="1.0" encoding="UTF-8" standalone="no"?>
<!DOCTYPE svg PUBLIC "-//W3C//DTD SVG 1.1//EN"
 "http://www.w3.org/Graphics/SVG/1.1/DTD/svg11.dtd">
<!-- Generated by graphviz version 12.2.1 (20241206.2353)
 -->
<!-- Title: cs_he_string_plus_equals Pages: 1 -->
<svg width="266pt" height="128pt"
 viewBox="0.00 0.00 265.75 128.25" xmlns="http://www.w3.org/2000/svg" xmlns:xlink="http://www.w3.org/1999/xlink">
<g id="graph0" class="graph" transform="scale(1 1) rotate(0) translate(4 124.25)">
<title>cs_he_string_plus_equals</title>
<!-- Node1 -->
<g id="Node000001" class="node">
<title>Node1</title>
<g id="a_Node000001"><a xlink:title="Add to a config item by string.">
<polygon fill="#999999" stroke="#666666" points="130.75,-62.25 0,-62.25 0,-40 130.75,-40 130.75,-62.25"/>
<text text-anchor="middle" x="65.38" y="-48.75" font-family="Helvetica,sans-Serif" font-size="10.00">cs_he_string_plus_equals</text>
</a>
</g>
</g>
<!-- Node2 -->
<g id="Node000002" class="node">
<title>Node2</title>
<g id="a_Node000002"><a xlink:href="buffer_8c.html#a02123807d31181ac701b566226e93b33" target="_top" xlink:title="Format a string overwriting a Buffer.">
<polygon fill="#fff0f0" stroke="red" points="243.5,-120.25 181,-120.25 181,-98 243.5,-98 243.5,-120.25"/>
<text text-anchor="middle" x="212.25" y="-106.75" font-family="Helvetica,sans-Serif" font-size="10.00">buf_printf</text>
</a>
</g>
</g>
<!-- Node1&#45;&gt;Node2 -->
<g id="edge1_Node000001_Node000002" class="edge">
<title>Node1&#45;&gt;Node2</title>
<g id="a_edge1_Node000001_Node000002"><a xlink:title=" ">
<path fill="none" stroke="#63b8ff" d="M95.34,-62.72C117.26,-71.5 147.59,-83.64 171.73,-93.3"/>
<polygon fill="#63b8ff" stroke="#63b8ff" points="170.34,-96.52 180.93,-96.98 172.94,-90.02 170.34,-96.52"/>
</a>
</g>
</g>
<!-- Node8 -->
<g id="Node000008" class="node">
<title>Node8</title>
<g id="a_Node000008"><a xlink:href="config_2set_8c.html#a75dc50a55aa4a44a985c5e9763d78ee9" target="_top" xlink:title="Find the root Config Item.">
<polygon fill="white" stroke="#666666" points="248,-62.25 176.5,-62.25 176.5,-40 248,-40 248,-62.25"/>
<text text-anchor="middle" x="212.25" y="-48.75" font-family="Helvetica,sans-Serif" font-size="10.00">cs_get_base</text>
</a>
</g>
</g>
<!-- Node1&#45;&gt;Node8 -->
<g id="edge2_Node000001_Node000008" class="edge">
<title>Node1&#45;&gt;Node8</title>
<g id="a_edge2_Node000001_Node000008"><a xlink:title=" ">
<path fill="none" stroke="#63b8ff" d="M131.19,-51.12C142.58,-51.12 154.23,-51.12 165,-51.12"/>
<polygon fill="#63b8ff" stroke="#63b8ff" points="164.76,-54.63 174.76,-51.13 164.76,-47.63 164.76,-54.63"/>
</a>
</g>
</g>
<!-- Node9 -->
<g id="Node000009" class="node">
<title>Node9</title>
<g id="a_Node000009"><a xlink:href="config_2set_8c.html#a5608cff71fd8a5ddb2b3409a075fac87" target="_top" xlink:title="Get the definition for a type.">
<polygon fill="white" stroke="#666666" points="257.75,-22.25 166.75,-22.25 166.75,0 257.75,0 257.75,-22.25"/>
<text text-anchor="middle" x="212.25" y="-8.75" font-family="Helvetica,sans-Serif" font-size="10.00">cs_get_type_def</text>
</a>
</g>
</g>
<!-- Node1&#45;&gt;Node9 -->
<g id="edge4_Node000001_Node000009" class="edge">
<title>Node1&#45;&gt;Node9</title>
<g id="a_edge4_Node000001_Node000009"><a xlink:title=" ">
<path fill="none" stroke="#63b8ff" d="M108.28,-39.56C123.83,-35.26 141.67,-30.33 158.09,-25.8"/>
<polygon fill="#63b8ff" stroke="#63b8ff" points="159.02,-29.18 167.73,-23.14 157.16,-22.43 159.02,-29.18"/>
</a>
</g>
</g>
<!-- Node8&#45;&gt;Node8 -->
<g id="edge3_Node000008_Node000008" class="edge">
<title>Node8&#45;&gt;Node8</title>
<g id="a_edge3_Node000008_Node000008"><a xlink:title=" ">
<path fill="none" stroke="#63b8ff" d="M188.27,-62.49C179.3,-71.28 187.29,-80.25 212.25,-80.25 225.9,-80.25 234.47,-77.57 237.98,-73.7"/>
<polygon fill="#63b8ff" stroke="#63b8ff" points="241.46,-73.32 236.46,-63.98 234.54,-74.4 241.46,-73.32"/>
</a>
</g>
</g>
</g>
</svg>
