<?xml version="1.0" encoding="UTF-8" standalone="no"?>
<!DOCTYPE svg PUBLIC "-//W3C//DTD SVG 1.1//EN"
 "http://www.w3.org/Graphics/SVG/1.1/DTD/svg11.dtd">
<!-- Generated by graphviz version 2.40.1 (20161225.0304)
 -->
<!-- Title: mutt_account_unsetpass Pages: 1 -->
<svg width="290pt" height="66pt"
 viewBox="0.00 0.00 290.00 66.00" xmlns="http://www.w3.org/2000/svg" xmlns:xlink="http://www.w3.org/1999/xlink">
<g id="graph0" class="graph" transform="scale(1 1) rotate(0) translate(4 62)">
<title>mutt_account_unsetpass</title>
<polygon fill="#ffffff" stroke="transparent" points="-4,4 -4,-62 286,-62 286,4 -4,4"/>
<!-- Node10029 -->
<g id="node1" class="node">
<title>Node10029</title>
<polygon fill="#bfbfbf" stroke="#000000" points="0,-19.5 0,-38.5 138,-38.5 138,-19.5 0,-19.5"/>
<text text-anchor="middle" x="69" y="-26.5" font-family="Helvetica,sans-Serif" font-size="10.00" fill="#000000">mutt_account_unsetpass</text>
</g>
<!-- Node10030 -->
<g id="node2" class="node">
<title>Node10030</title>
<g id="a_node2"><a xlink:href="imap_2private_8h.html#aeb15c04fee226298708dc044645df651" target="_top" xlink:title="Open an IMAP connection. ">
<polygon fill="#ffffff" stroke="#ff0000" points="192.5,-38.5 192.5,-57.5 263.5,-57.5 263.5,-38.5 192.5,-38.5"/>
<text text-anchor="middle" x="228" y="-45.5" font-family="Helvetica,sans-Serif" font-size="10.00" fill="#000000">imap_login</text>
</a>
</g>
</g>
<!-- Node10029&#45;&gt;Node10030 -->
<g id="edge1" class="edge">
<title>Node10029&#45;&gt;Node10030</title>
<path fill="none" stroke="#191970" d="M148.3413,-38.481C163.6947,-40.3157 179.0559,-42.1513 192.1345,-43.7142"/>
<polygon fill="#191970" stroke="#191970" points="148.6219,-34.9897 138.2772,-37.2784 147.7912,-41.9403 148.6219,-34.9897"/>
</g>
<!-- Node10548 -->
<g id="node3" class="node">
<title>Node10548</title>
<g id="a_node3"><a xlink:href="smtp_8c.html#a262d1231007775a59de517dde48312be" target="_top" xlink:title="Authenticate to an SMTP server. ">
<polygon fill="#ffffff" stroke="#ff0000" points="174,-.5 174,-19.5 282,-19.5 282,-.5 174,-.5"/>
<text text-anchor="middle" x="228" y="-7.5" font-family="Helvetica,sans-Serif" font-size="10.00" fill="#000000">smtp_authenticate</text>
</a>
</g>
</g>
<!-- Node10029&#45;&gt;Node10548 -->
<g id="edge2" class="edge">
<title>Node10029&#45;&gt;Node10548</title>
<path fill="none" stroke="#191970" d="M148.3532,-19.5175C156.9579,-18.4893 165.5649,-17.4608 173.771,-16.4802"/>
<polygon fill="#191970" stroke="#191970" points="147.7912,-16.0597 138.2772,-20.7216 148.6219,-23.0103 147.7912,-16.0597"/>
</g>
</g>
</svg>
