<?xml version="1.0" encoding="UTF-8" standalone="no"?>
<!DOCTYPE svg PUBLIC "-//W3C//DTD SVG 1.1//EN"
 "http://www.w3.org/Graphics/SVG/1.1/DTD/svg11.dtd">
<!-- Generated by graphviz version 2.40.1 (20161225.0304)
 -->
<!-- Title: context.h Pages: 1 -->
<svg width="2934pt" height="84pt"
 viewBox="0.00 0.00 2933.50 84.00" xmlns="http://www.w3.org/2000/svg" xmlns:xlink="http://www.w3.org/1999/xlink">
<g id="graph0" class="graph" transform="scale(1 1) rotate(0) translate(4 80)">
<title>context.h</title>
<polygon fill="#ffffff" stroke="transparent" points="-4,4 -4,-80 2929.5,-80 2929.5,4 -4,4"/>
<!-- Node3 -->
<g id="node1" class="node">
<title>Node3</title>
<polygon fill="#bfbfbf" stroke="#000000" points="1401,-56.5 1401,-75.5 1463,-75.5 1463,-56.5 1401,-56.5"/>
<text text-anchor="middle" x="1432" y="-63.5" font-family="Helvetica,sans-Serif" font-size="10.00" fill="#000000">context.h</text>
</g>
<!-- Node4 -->
<g id="node2" class="node">
<title>Node4</title>
<g id="a_node2"><a xlink:href="dlgquery_8c.html" target="_top" xlink:title="Routines for querying and external address book. ">
<polygon fill="#ffffff" stroke="#000000" points="0,-.5 0,-19.5 92,-19.5 92,-.5 0,-.5"/>
<text text-anchor="middle" x="46" y="-7.5" font-family="Helvetica,sans-Serif" font-size="10.00" fill="#000000">alias/dlgquery.c</text>
</a>
</g>
</g>
<!-- Node3&#45;&gt;Node4 -->
<g id="edge1" class="edge">
<title>Node3&#45;&gt;Node4</title>
<path fill="none" stroke="#191970" d="M1390.7997,-65.3836C1195.3284,-62.3354 360.1707,-47.89 101,-20 98.1052,-19.6885 95.1335,-19.3126 92.1428,-18.8918"/>
<polygon fill="#191970" stroke="#191970" points="1390.8788,-68.8851 1400.9318,-65.5403 1390.9871,-61.886 1390.8788,-68.8851"/>
</g>
<!-- Node5 -->
<g id="node3" class="node">
<title>Node5</title>
<g id="a_node3"><a xlink:href="commands_8c.html" target="_top" xlink:title="Manage where the email is piped to external commands. ">
<polygon fill="#ffffff" stroke="#000000" points="110.5,-.5 110.5,-19.5 189.5,-19.5 189.5,-.5 110.5,-.5"/>
<text text-anchor="middle" x="150" y="-7.5" font-family="Helvetica,sans-Serif" font-size="10.00" fill="#000000">commands.c</text>
</a>
</g>
</g>
<!-- Node3&#45;&gt;Node5 -->
<g id="edge2" class="edge">
<title>Node3&#45;&gt;Node5</title>
<path fill="none" stroke="#191970" d="M1390.5222,-65.3914C1203.3849,-62.5017 436.5042,-49.08 198,-20 195.2961,-19.6703 192.5182,-19.2668 189.727,-18.8131"/>
<polygon fill="#191970" stroke="#191970" points="1390.7048,-68.8945 1400.7571,-65.5478 1390.8118,-61.8953 1390.7048,-68.8945"/>
</g>
<!-- Node6 -->
<g id="node4" class="node">
<title>Node6</title>
<g id="a_node4"><a xlink:href="compose_8c.html" target="_top" xlink:title="GUI editor for an email&#39;s headers. ">
<polygon fill="#ffffff" stroke="#000000" points="207,-.5 207,-19.5 323,-19.5 323,-.5 207,-.5"/>
<text text-anchor="middle" x="265" y="-7.5" font-family="Helvetica,sans-Serif" font-size="10.00" fill="#000000">compose/compose.c</text>
</a>
</g>
</g>
<!-- Node3&#45;&gt;Node6 -->
<g id="edge3" class="edge">
<title>Node3&#45;&gt;Node6</title>
<path fill="none" stroke="#191970" d="M1390.9047,-64.868C1217.3355,-59.9966 543.5251,-40.1506 332,-20 329.0731,-19.7212 326.0788,-19.4014 323.0583,-19.0514"/>
<polygon fill="#191970" stroke="#191970" points="1390.8136,-68.3668 1400.9075,-65.1477 1391.0093,-61.3695 1390.8136,-68.3668"/>
</g>
<!-- Node7 -->
<g id="node5" class="node">
<title>Node7</title>
<g id="a_node5"><a xlink:href="context_8c.html" target="_top" xlink:title="The &quot;currently&#45;open&quot; mailbox. ">
<polygon fill="#ffffff" stroke="#000000" points="341,-.5 341,-19.5 403,-19.5 403,-.5 341,-.5"/>
<text text-anchor="middle" x="372" y="-7.5" font-family="Helvetica,sans-Serif" font-size="10.00" fill="#000000">context.c</text>
</a>
</g>
</g>
<!-- Node3&#45;&gt;Node7 -->
<g id="edge4" class="edge">
<title>Node3&#45;&gt;Node7</title>
<path fill="none" stroke="#191970" d="M1390.6589,-65.2386C1224.5963,-62.0095 605.732,-48.2942 412,-20 409.1668,-19.5862 406.2424,-19.0576 403.3245,-18.4601"/>
<polygon fill="#191970" stroke="#191970" points="1390.8676,-68.7431 1400.9331,-65.4361 1391.0022,-61.7444 1390.8676,-68.7431"/>
</g>
<!-- Node8 -->
<g id="node6" class="node">
<title>Node8</title>
<g id="a_node6"><a xlink:href="copy_8c.html" target="_top" xlink:title="Duplicate the structure of an entire email. ">
<polygon fill="#ffffff" stroke="#000000" points="421.5,-.5 421.5,-19.5 468.5,-19.5 468.5,-.5 421.5,-.5"/>
<text text-anchor="middle" x="445" y="-7.5" font-family="Helvetica,sans-Serif" font-size="10.00" fill="#000000">copy.c</text>
</a>
</g>
</g>
<!-- Node3&#45;&gt;Node8 -->
<g id="edge5" class="edge">
<title>Node3&#45;&gt;Node8</title>
<path fill="none" stroke="#191970" d="M1390.1933,-65.3506C1230.2679,-62.6547 657.2893,-50.9992 478,-20 474.9326,-19.4696 471.7497,-18.7421 468.6249,-17.9195"/>
<polygon fill="#191970" stroke="#191970" points="1390.4964,-68.856 1400.5531,-65.5224 1390.6125,-61.857 1390.4964,-68.856"/>
</g>
<!-- Node9 -->
<g id="node7" class="node">
<title>Node9</title>
<g id="a_node7"><a xlink:href="graphviz_8c.html" target="_top" xlink:title="Create a GraphViz dot file from the NeoMutt objects. ">
<polygon fill="#ffffff" stroke="#000000" points="487,-.5 487,-19.5 587,-19.5 587,-.5 487,-.5"/>
<text text-anchor="middle" x="537" y="-7.5" font-family="Helvetica,sans-Serif" font-size="10.00" fill="#000000">debug/graphviz.c</text>
</a>
</g>
</g>
<!-- Node3&#45;&gt;Node9 -->
<g id="edge6" class="edge">
<title>Node3&#45;&gt;Node9</title>
<path fill="none" stroke="#191970" d="M1390.7504,-65.3776C1268.8677,-63.1851 899.892,-54.0042 596,-20 593.1091,-19.6765 590.1447,-19.3042 587.1576,-18.8975"/>
<polygon fill="#191970" stroke="#191970" points="1390.7106,-68.8774 1400.77,-65.552 1390.8325,-61.8784 1390.7106,-68.8774"/>
</g>
<!-- Node10 -->
<g id="node8" class="node">
<title>Node10</title>
<g id="a_node8"><a xlink:href="debug_2notify_8c.html" target="_top" xlink:title="Dump all notifications. ">
<polygon fill="#ffffff" stroke="#000000" points="605.5,-.5 605.5,-19.5 690.5,-19.5 690.5,-.5 605.5,-.5"/>
<text text-anchor="middle" x="648" y="-7.5" font-family="Helvetica,sans-Serif" font-size="10.00" fill="#000000">debug/notify.c</text>
</a>
</g>
</g>
<!-- Node3&#45;&gt;Node10 -->
<g id="edge7" class="edge">
<title>Node3&#45;&gt;Node10</title>
<path fill="none" stroke="#191970" d="M1390.6025,-65.299C1278.6798,-62.9948 960.8648,-53.7423 699,-20 696.2259,-19.6425 693.3758,-19.225 690.5087,-18.7672"/>
<polygon fill="#191970" stroke="#191970" points="1390.7147,-68.8018 1400.7822,-65.5009 1390.8536,-61.8032 1390.7147,-68.8018"/>
</g>
<!-- Node11 -->
<g id="node9" class="node">
<title>Node11</title>
<g id="a_node9"><a xlink:href="parse_8c.html" target="_top" xlink:title="Miscellaneous email parsing routines. ">
<polygon fill="#ffffff" stroke="#000000" points="708.5,-.5 708.5,-19.5 791.5,-19.5 791.5,-.5 708.5,-.5"/>
<text text-anchor="middle" x="750" y="-7.5" font-family="Helvetica,sans-Serif" font-size="10.00" fill="#000000">email/parse.c</text>
</a>
</g>
</g>
<!-- Node3&#45;&gt;Node11 -->
<g id="edge8" class="edge">
<title>Node3&#45;&gt;Node11</title>
<path fill="none" stroke="#191970" d="M1390.5736,-64.7124C1289.4476,-61.1931 1022.0682,-49.6209 801,-20 797.9594,-19.5926 794.8269,-19.117 791.6805,-18.5986"/>
<polygon fill="#191970" stroke="#191970" points="1390.5626,-68.2139 1400.6759,-65.0562 1390.8007,-61.218 1390.5626,-68.2139"/>
</g>
<!-- Node12 -->
<g id="node10" class="node">
<title>Node12</title>
<g id="a_node10"><a xlink:href="color_8c.html" target="_top" xlink:title="Color and attribute parsing. ">
<polygon fill="#ffffff" stroke="#000000" points="810,-.5 810,-19.5 876,-19.5 876,-.5 810,-.5"/>
<text text-anchor="middle" x="843" y="-7.5" font-family="Helvetica,sans-Serif" font-size="10.00" fill="#000000">gui/color.c</text>
</a>
</g>
</g>
<!-- Node3&#45;&gt;Node12 -->
<g id="edge9" class="edge">
<title>Node3&#45;&gt;Node12</title>
<path fill="none" stroke="#191970" d="M1390.7334,-64.641C1299.1865,-61.1656 1072.3705,-50.011 885,-20 882.1876,-19.5495 879.2846,-19.0125 876.3801,-18.4244"/>
<polygon fill="#191970" stroke="#191970" points="1390.8381,-68.1472 1400.9604,-65.0184 1391.0963,-61.1519 1390.8381,-68.1472"/>
</g>
<!-- Node13 -->
<g id="node11" class="node">
<title>Node13</title>
<g id="a_node11"><a xlink:href="hook_8c.html" target="_top" xlink:title="Parse and execute user&#45;defined hooks. ">
<polygon fill="#ffffff" stroke="#000000" points="894.5,-.5 894.5,-19.5 943.5,-19.5 943.5,-.5 894.5,-.5"/>
<text text-anchor="middle" x="919" y="-7.5" font-family="Helvetica,sans-Serif" font-size="10.00" fill="#000000">hook.c</text>
</a>
</g>
</g>
<!-- Node3&#45;&gt;Node13 -->
<g id="edge10" class="edge">
<title>Node3&#45;&gt;Node13</title>
<path fill="none" stroke="#191970" d="M1390.8123,-64.682C1307.4539,-61.4369 1113.074,-50.9341 953,-20 949.9795,-19.4163 946.8419,-18.6791 943.7481,-17.8707"/>
<polygon fill="#191970" stroke="#191970" points="1390.7632,-68.1825 1400.8873,-65.0595 1391.0254,-61.1874 1390.7632,-68.1825"/>
</g>
<!-- Node14 -->
<g id="node12" class="node">
<title>Node14</title>
<g id="a_node12"><a xlink:href="dlg__index_8c.html" target="_top" xlink:title="GUI manage the main index (list of emails) ">
<polygon fill="#ffffff" stroke="#000000" points="962,-.5 962,-19.5 1064,-19.5 1064,-.5 962,-.5"/>
<text text-anchor="middle" x="1013" y="-7.5" font-family="Helvetica,sans-Serif" font-size="10.00" fill="#000000">index/dlg_index.c</text>
</a>
</g>
</g>
<!-- Node3&#45;&gt;Node14 -->
<g id="edge11" class="edge">
<title>Node3&#45;&gt;Node14</title>
<path fill="none" stroke="#191970" d="M1390.6044,-61.2101C1323.7178,-53.355 1187.7704,-36.911 1073,-20 1070.0747,-19.569 1067.0715,-19.1126 1064.0425,-18.6416"/>
<polygon fill="#191970" stroke="#191970" points="1390.3933,-64.7092 1400.7325,-62.3958 1391.2073,-57.7567 1390.3933,-64.7092"/>
</g>
<!-- Node15 -->
<g id="node13" class="node">
<title>Node15</title>
<g id="a_node13"><a xlink:href="index_2shared__data_8c.html" target="_top" xlink:title="Data shared between Index, Pager and Sidebar. ">
<polygon fill="#ffffff" stroke="#000000" points="1082.5,-.5 1082.5,-19.5 1197.5,-19.5 1197.5,-.5 1082.5,-.5"/>
<text text-anchor="middle" x="1140" y="-7.5" font-family="Helvetica,sans-Serif" font-size="10.00" fill="#000000">index/shared_data.c</text>
</a>
</g>
</g>
<!-- Node3&#45;&gt;Node15 -->
<g id="edge12" class="edge">
<title>Node3&#45;&gt;Node15</title>
<path fill="none" stroke="#191970" d="M1390.7162,-58.0826C1337.857,-47.9452 1246.3463,-30.3952 1189.7147,-19.5343"/>
<polygon fill="#191970" stroke="#191970" points="1390.2706,-61.5608 1400.7509,-60.007 1391.5891,-54.6861 1390.2706,-61.5608"/>
</g>
<!-- Node16 -->
<g id="node14" class="node">
<title>Node16</title>
<g id="a_node14"><a xlink:href="init_8c.html" target="_top" xlink:title="Config/command parsing. ">
<polygon fill="#ffffff" stroke="#000000" points="1215.5,-.5 1215.5,-19.5 1256.5,-19.5 1256.5,-.5 1215.5,-.5"/>
<text text-anchor="middle" x="1236" y="-7.5" font-family="Helvetica,sans-Serif" font-size="10.00" fill="#000000">init.c</text>
</a>
</g>
</g>
<!-- Node3&#45;&gt;Node16 -->
<g id="edge13" class="edge">
<title>Node3&#45;&gt;Node16</title>
<path fill="none" stroke="#191970" d="M1391.0162,-55.2722C1357.3154,-46.3001 1308.384,-32.9271 1266,-20 1262.9543,-19.0711 1259.7487,-18.0497 1256.6121,-17.0256"/>
<polygon fill="#191970" stroke="#191970" points="1390.3989,-58.7295 1400.962,-57.91 1392.1934,-51.9634 1390.3989,-58.7295"/>
</g>
<!-- Node17 -->
<g id="node15" class="node">
<title>Node17</title>
<g id="a_node15"><a xlink:href="main_8c.html" target="_top" xlink:title="Command line processing. ">
<polygon fill="#ffffff" stroke="#000000" points="1275,-.5 1275,-19.5 1325,-19.5 1325,-.5 1275,-.5"/>
<text text-anchor="middle" x="1300" y="-7.5" font-family="Helvetica,sans-Serif" font-size="10.00" fill="#000000">main.c</text>
</a>
</g>
</g>
<!-- Node3&#45;&gt;Node17 -->
<g id="edge14" class="edge">
<title>Node3&#45;&gt;Node17</title>
<path fill="none" stroke="#191970" d="M1399.9035,-52.3833C1375.8965,-42.1985 1343.6741,-28.5284 1322.3955,-19.5011"/>
<polygon fill="#191970" stroke="#191970" points="1398.7356,-55.6897 1409.3084,-56.3733 1401.4695,-49.2457 1398.7356,-55.6897"/>
</g>
<!-- Node18 -->
<g id="node16" class="node">
<title>Node18</title>
<g id="a_node16"><a xlink:href="draw_8c.html" target="_top" xlink:title="Paint the Menu. ">
<polygon fill="#ffffff" stroke="#000000" points="1343.5,-.5 1343.5,-19.5 1422.5,-19.5 1422.5,-.5 1343.5,-.5"/>
<text text-anchor="middle" x="1383" y="-7.5" font-family="Helvetica,sans-Serif" font-size="10.00" fill="#000000">menu/draw.c</text>
</a>
</g>
</g>
<!-- Node3&#45;&gt;Node18 -->
<g id="edge15" class="edge">
<title>Node3&#45;&gt;Node18</title>
<path fill="none" stroke="#191970" d="M1416.6878,-48.5004C1408.3553,-38.9775 1398.3647,-27.5596 1391.4373,-19.6427"/>
<polygon fill="#191970" stroke="#191970" points="1414.2457,-51.0245 1423.4649,-56.2455 1419.5138,-46.415 1414.2457,-51.0245"/>
</g>
<!-- Node19 -->
<g id="node17" class="node">
<title>Node19</title>
<g id="a_node17"><a xlink:href="menu_8c.html" target="_top" xlink:title="GUI present the user with a selectable list. ">
<polygon fill="#ffffff" stroke="#000000" points="1440.5,-.5 1440.5,-19.5 1523.5,-19.5 1523.5,-.5 1440.5,-.5"/>
<text text-anchor="middle" x="1482" y="-7.5" font-family="Helvetica,sans-Serif" font-size="10.00" fill="#000000">menu/menu.c</text>
</a>
</g>
</g>
<!-- Node3&#45;&gt;Node19 -->
<g id="edge16" class="edge">
<title>Node3&#45;&gt;Node19</title>
<path fill="none" stroke="#191970" d="M1447.6247,-48.5004C1456.1273,-38.9775 1466.3218,-27.5596 1473.3905,-19.6427"/>
<polygon fill="#191970" stroke="#191970" points="1444.7587,-46.4551 1440.7093,-56.2455 1449.9803,-51.1172 1444.7587,-46.4551"/>
</g>
<!-- Node20 -->
<g id="node18" class="node">
<title>Node20</title>
<g id="a_node18"><a xlink:href="monitor_8c.html" target="_top" xlink:title="Monitor files for changes. ">
<polygon fill="#ffffff" stroke="#000000" points="1542,-.5 1542,-19.5 1604,-19.5 1604,-.5 1542,-.5"/>
<text text-anchor="middle" x="1573" y="-7.5" font-family="Helvetica,sans-Serif" font-size="10.00" fill="#000000">monitor.c</text>
</a>
</g>
</g>
<!-- Node3&#45;&gt;Node20 -->
<g id="edge17" class="edge">
<title>Node3&#45;&gt;Node20</title>
<path fill="none" stroke="#191970" d="M1465.6032,-52.6541C1491.3159,-42.4419 1526.1461,-28.6086 1549.0775,-19.5011"/>
<polygon fill="#191970" stroke="#191970" points="1464.2407,-49.4292 1456.2388,-56.3733 1466.8245,-55.9349 1464.2407,-49.4292"/>
</g>
<!-- Node21 -->
<g id="node19" class="node">
<title>Node21</title>
<g id="a_node19"><a xlink:href="dlg__pager_8c.html" target="_top" xlink:title="GUI display a file/email/help in a viewport with paging. ">
<polygon fill="#ffffff" stroke="#000000" points="1622.5,-.5 1622.5,-19.5 1725.5,-19.5 1725.5,-.5 1622.5,-.5"/>
<text text-anchor="middle" x="1674" y="-7.5" font-family="Helvetica,sans-Serif" font-size="10.00" fill="#000000">pager/dlg_pager.c</text>
</a>
</g>
</g>
<!-- Node3&#45;&gt;Node21 -->
<g id="edge18" class="edge">
<title>Node3&#45;&gt;Node21</title>
<path fill="none" stroke="#191970" d="M1473.0496,-56.5009C1517.5913,-46.1938 1588.2966,-29.8322 1632.8698,-19.5177"/>
<polygon fill="#191970" stroke="#191970" points="1472.0953,-53.1292 1463.1418,-58.7936 1473.6735,-59.949 1472.0953,-53.1292"/>
</g>
<!-- Node22 -->
<g id="node20" class="node">
<title>Node22</title>
<g id="a_node20"><a xlink:href="pager_8c.html" target="_top" xlink:title="GUI display a file/email/help in a viewport with paging. ">
<polygon fill="#ffffff" stroke="#000000" points="1743.5,-.5 1743.5,-19.5 1826.5,-19.5 1826.5,-.5 1743.5,-.5"/>
<text text-anchor="middle" x="1785" y="-7.5" font-family="Helvetica,sans-Serif" font-size="10.00" fill="#000000">pager/pager.c</text>
</a>
</g>
</g>
<!-- Node3&#45;&gt;Node22 -->
<g id="edge19" class="edge">
<title>Node3&#45;&gt;Node22</title>
<path fill="none" stroke="#191970" d="M1472.9775,-60.3986C1531.3059,-52.2848 1641.5677,-36.4262 1735,-20 1737.7028,-19.5248 1740.4842,-19.0181 1743.2856,-18.4944"/>
<polygon fill="#191970" stroke="#191970" points="1472.4725,-56.9351 1463.0476,-61.7748 1473.4335,-63.8688 1472.4725,-56.9351"/>
</g>
<!-- Node23 -->
<g id="node21" class="node">
<title>Node23</title>
<g id="a_node21"><a xlink:href="pbar_8c.html" target="_top" xlink:title="Pager Bar. ">
<polygon fill="#ffffff" stroke="#000000" points="1844.5,-.5 1844.5,-19.5 1921.5,-19.5 1921.5,-.5 1844.5,-.5"/>
<text text-anchor="middle" x="1883" y="-7.5" font-family="Helvetica,sans-Serif" font-size="10.00" fill="#000000">pager/pbar.c</text>
</a>
</g>
</g>
<!-- Node3&#45;&gt;Node23 -->
<g id="edge20" class="edge">
<title>Node3&#45;&gt;Node23</title>
<path fill="none" stroke="#191970" d="M1473.2463,-62.6249C1546.543,-56.3335 1704.1812,-41.4767 1836,-20 1838.7172,-19.5573 1841.5148,-19.0626 1844.327,-18.5366"/>
<polygon fill="#191970" stroke="#191970" points="1472.7249,-59.1565 1463.0572,-63.4908 1473.3176,-66.1314 1472.7249,-59.1565"/>
</g>
<!-- Node24 -->
<g id="node22" class="node">
<title>Node24</title>
<g id="a_node22"><a xlink:href="ppanel_8c.html" target="_top" xlink:title="GUI display a file/email/help in a viewport with paging. ">
<polygon fill="#ffffff" stroke="#000000" points="1939.5,-.5 1939.5,-19.5 2028.5,-19.5 2028.5,-.5 1939.5,-.5"/>
<text text-anchor="middle" x="1984" y="-7.5" font-family="Helvetica,sans-Serif" font-size="10.00" fill="#000000">pager/ppanel.c</text>
</a>
</g>
</g>
<!-- Node3&#45;&gt;Node24 -->
<g id="edge21" class="edge">
<title>Node3&#45;&gt;Node24</title>
<path fill="none" stroke="#191970" d="M1473.1463,-63.529C1558.6923,-58.1011 1761.8621,-43.6982 1931,-20 1933.6892,-19.6232 1936.4493,-19.2035 1939.2297,-18.7553"/>
<polygon fill="#191970" stroke="#191970" points="1472.8282,-60.042 1463.067,-64.1614 1473.2666,-67.0282 1472.8282,-60.042"/>
</g>
<!-- Node25 -->
<g id="node23" class="node">
<title>Node25</title>
<g id="a_node23"><a xlink:href="compile_8c.html" target="_top" xlink:title="Compile a Pattern. ">
<polygon fill="#ffffff" stroke="#000000" points="2046,-.5 2046,-19.5 2148,-19.5 2148,-.5 2046,-.5"/>
<text text-anchor="middle" x="2097" y="-7.5" font-family="Helvetica,sans-Serif" font-size="10.00" fill="#000000">pattern/compile.c</text>
</a>
</g>
</g>
<!-- Node3&#45;&gt;Node25 -->
<g id="edge22" class="edge">
<title>Node3&#45;&gt;Node25</title>
<path fill="none" stroke="#191970" d="M1473.0808,-64.1899C1571.1035,-59.5859 1826.3064,-45.9188 2038,-20 2040.578,-19.6844 2043.2152,-19.335 2045.8754,-18.9615"/>
<polygon fill="#191970" stroke="#191970" points="1472.8286,-60.6977 1463.0015,-64.6572 1473.1529,-67.6902 1472.8286,-60.6977"/>
</g>
<!-- Node26 -->
<g id="node24" class="node">
<title>Node26</title>
<g id="a_node24"><a xlink:href="pattern_8c.html" target="_top" xlink:title="Match patterns to emails. ">
<polygon fill="#ffffff" stroke="#000000" points="2166,-.5 2166,-19.5 2264,-19.5 2264,-.5 2166,-.5"/>
<text text-anchor="middle" x="2215" y="-7.5" font-family="Helvetica,sans-Serif" font-size="10.00" fill="#000000">pattern/pattern.c</text>
</a>
</g>
</g>
<!-- Node3&#45;&gt;Node26 -->
<g id="edge23" class="edge">
<title>Node3&#45;&gt;Node26</title>
<path fill="none" stroke="#191970" d="M1473.2945,-64.9323C1584.2418,-61.7285 1897.9309,-50.4631 2157,-20 2159.8415,-19.6659 2162.7552,-19.2852 2165.6914,-18.8722"/>
<polygon fill="#191970" stroke="#191970" points="1473.0964,-61.4364 1463.1992,-65.2176 1473.2941,-68.4336 1473.0964,-61.4364"/>
</g>
<!-- Node27 -->
<g id="node25" class="node">
<title>Node27</title>
<g id="a_node25"><a xlink:href="postpone_8c.html" target="_top" xlink:title="Save/restore and GUI list postponed emails. ">
<polygon fill="#ffffff" stroke="#000000" points="2282,-.5 2282,-19.5 2352,-19.5 2352,-.5 2282,-.5"/>
<text text-anchor="middle" x="2317" y="-7.5" font-family="Helvetica,sans-Serif" font-size="10.00" fill="#000000">postpone.c</text>
</a>
</g>
</g>
<!-- Node3&#45;&gt;Node27 -->
<g id="edge24" class="edge">
<title>Node3&#45;&gt;Node27</title>
<path fill="none" stroke="#191970" d="M1473.5305,-64.6583C1620.5407,-59.7636 2115.828,-41.9982 2273,-20 2275.7929,-19.6091 2278.6704,-19.1304 2281.5535,-18.5963"/>
<polygon fill="#191970" stroke="#191970" points="1473.0376,-61.1726 1463.1588,-65.0014 1473.2691,-68.1687 1473.0376,-61.1726"/>
</g>
<!-- Node28 -->
<g id="node26" class="node">
<title>Node28</title>
<g id="a_node26"><a xlink:href="score_8c.html" target="_top" xlink:title="Routines for adding user scores to emails. ">
<polygon fill="#ffffff" stroke="#000000" points="2370.5,-.5 2370.5,-19.5 2421.5,-19.5 2421.5,-.5 2370.5,-.5"/>
<text text-anchor="middle" x="2396" y="-7.5" font-family="Helvetica,sans-Serif" font-size="10.00" fill="#000000">score.c</text>
</a>
</g>
</g>
<!-- Node3&#45;&gt;Node28 -->
<g id="edge25" class="edge">
<title>Node3&#45;&gt;Node28</title>
<path fill="none" stroke="#191970" d="M1473.2189,-65.2123C1629.6226,-62.0289 2186.3764,-48.8776 2361,-20 2363.9927,-19.5051 2367.0937,-18.8442 2370.157,-18.097"/>
<polygon fill="#191970" stroke="#191970" points="1473.009,-61.7157 1463.0814,-65.416 1473.1497,-68.7143 1473.009,-61.7157"/>
</g>
<!-- Node29 -->
<g id="node27" class="node">
<title>Node29</title>
<g id="a_node27"><a xlink:href="header_8c.html" target="_top" xlink:title="Write a MIME Email Header to a file. ">
<polygon fill="#ffffff" stroke="#000000" points="2440,-.5 2440,-19.5 2524,-19.5 2524,-.5 2440,-.5"/>
<text text-anchor="middle" x="2482" y="-7.5" font-family="Helvetica,sans-Serif" font-size="10.00" fill="#000000">send/header.c</text>
</a>
</g>
</g>
<!-- Node3&#45;&gt;Node29 -->
<g id="edge26" class="edge">
<title>Node3&#45;&gt;Node29</title>
<path fill="none" stroke="#191970" d="M1473.5397,-64.9062C1637.6372,-60.4582 2241.0319,-42.8711 2431,-20 2433.8666,-19.6549 2436.8134,-19.2398 2439.7756,-18.7776"/>
<polygon fill="#191970" stroke="#191970" points="1473.2773,-61.4119 1463.3753,-65.1801 1473.466,-68.4093 1473.2773,-61.4119"/>
</g>
<!-- Node30 -->
<g id="node28" class="node">
<title>Node30</title>
<g id="a_node28"><a xlink:href="send_8c.html" target="_top" xlink:title="Prepare and send an email. ">
<polygon fill="#ffffff" stroke="#000000" points="2542,-.5 2542,-19.5 2616,-19.5 2616,-.5 2542,-.5"/>
<text text-anchor="middle" x="2579" y="-7.5" font-family="Helvetica,sans-Serif" font-size="10.00" fill="#000000">send/send.c</text>
</a>
</g>
</g>
<!-- Node3&#45;&gt;Node30 -->
<g id="edge27" class="edge">
<title>Node3&#45;&gt;Node30</title>
<path fill="none" stroke="#191970" d="M1473.1731,-65.2301C1647.0646,-61.832 2322.0618,-47.1289 2533,-20 2535.9181,-19.6247 2538.9252,-19.1572 2541.9385,-18.6309"/>
<polygon fill="#191970" stroke="#191970" points="1473.0819,-61.7311 1463.1516,-65.4242 1473.2176,-68.7298 1473.0819,-61.7311"/>
</g>
<!-- Node31 -->
<g id="node29" class="node">
<title>Node31</title>
<g id="a_node29"><a xlink:href="sidebar_8c.html" target="_top" xlink:title="GUI display the mailboxes in a side panel. ">
<polygon fill="#ffffff" stroke="#000000" points="2634.5,-.5 2634.5,-19.5 2733.5,-19.5 2733.5,-.5 2634.5,-.5"/>
<text text-anchor="middle" x="2684" y="-7.5" font-family="Helvetica,sans-Serif" font-size="10.00" fill="#000000">sidebar/sidebar.c</text>
</a>
</g>
</g>
<!-- Node3&#45;&gt;Node31 -->
<g id="edge28" class="edge">
<title>Node3&#45;&gt;Node31</title>
<path fill="none" stroke="#191970" d="M1473.2723,-65.1265C1656.1399,-61.1457 2394.4433,-43.8824 2625,-20 2628.1002,-19.6789 2631.284,-19.2957 2634.4892,-18.8694"/>
<polygon fill="#191970" stroke="#191970" points="1473.1801,-61.6276 1463.2582,-65.3432 1473.3317,-68.6259 1473.1801,-61.6276"/>
</g>
<!-- Node32 -->
<g id="node30" class="node">
<title>Node32</title>
<g id="a_node30"><a xlink:href="sidebar_2window_8c.html" target="_top" xlink:title="Manage the Sidebar Window. ">
<polygon fill="#ffffff" stroke="#000000" points="2751.5,-.5 2751.5,-19.5 2852.5,-19.5 2852.5,-.5 2751.5,-.5"/>
<text text-anchor="middle" x="2802" y="-7.5" font-family="Helvetica,sans-Serif" font-size="10.00" fill="#000000">sidebar/window.c</text>
</a>
</g>
</g>
<!-- Node3&#45;&gt;Node32 -->
<g id="edge29" class="edge">
<title>Node3&#45;&gt;Node32</title>
<path fill="none" stroke="#191970" d="M1473.2055,-65.2923C1666.868,-61.8529 2487.8443,-45.9836 2743,-20 2745.6873,-19.7263 2748.4373,-19.4051 2751.2096,-19.0488"/>
<polygon fill="#191970" stroke="#191970" points="1473.0972,-61.7935 1463.1605,-65.4695 1473.2208,-68.7925 1473.0972,-61.7935"/>
</g>
<!-- Node33 -->
<g id="node31" class="node">
<title>Node33</title>
<g id="a_node31"><a xlink:href="status_8c.html" target="_top" xlink:title="GUI display a user&#45;configurable status line. ">
<polygon fill="#ffffff" stroke="#000000" points="2870.5,-.5 2870.5,-19.5 2925.5,-19.5 2925.5,-.5 2870.5,-.5"/>
<text text-anchor="middle" x="2898" y="-7.5" font-family="Helvetica,sans-Serif" font-size="10.00" fill="#000000">status.c</text>
</a>
</g>
</g>
<!-- Node3&#45;&gt;Node33 -->
<g id="edge30" class="edge">
<title>Node3&#45;&gt;Node33</title>
<path fill="none" stroke="#191970" d="M1473.4361,-65.2571C1693.6278,-61.2304 2721.8031,-41.4113 2862,-20 2864.6932,-19.5887 2867.4716,-19.0432 2870.2349,-18.4186"/>
<polygon fill="#191970" stroke="#191970" points="1473.2099,-61.7606 1463.2753,-65.4422 1473.3374,-68.7594 1473.2099,-61.7606"/>
</g>
</g>
</svg>
