<?xml version="1.0" encoding="UTF-8" standalone="no"?>
<!DOCTYPE svg PUBLIC "-//W3C//DTD SVG 1.1//EN"
 "http://www.w3.org/Graphics/SVG/1.1/DTD/svg11.dtd">
<!-- Generated by graphviz version 2.40.1 (20161225.0304)
 -->
<!-- Title: ctx_mailbox_observer Pages: 1 -->
<svg width="566pt" height="158pt"
 viewBox="0.00 0.00 566.00 157.95" xmlns="http://www.w3.org/2000/svg" xmlns:xlink="http://www.w3.org/1999/xlink">
<g id="graph0" class="graph" transform="scale(1 1) rotate(0) translate(4 153.9496)">
<title>ctx_mailbox_observer</title>
<polygon fill="#ffffff" stroke="transparent" points="-4,4 -4,-153.9496 562,-153.9496 562,4 -4,4"/>
<!-- Node5280 -->
<g id="node1" class="node">
<title>Node5280</title>
<polygon fill="#bfbfbf" stroke="#000000" points="0,-95.5 0,-114.5 125,-114.5 125,-95.5 0,-95.5"/>
<text text-anchor="middle" x="62.5" y="-102.5" font-family="Helvetica,sans-Serif" font-size="10.00" fill="#000000">ctx_mailbox_observer</text>
</g>
<!-- Node5281 -->
<g id="node2" class="node">
<title>Node5281</title>
<g id="a_node2"><a xlink:href="mutt__thread_8c.html#a372a1638fdd1bf6f418cc99954ab0b42" target="_top" xlink:title="Clear the threading of message in a mailbox. ">
<polygon fill="#ffffff" stroke="#ff0000" points="447,-95.5 447,-114.5 558,-114.5 558,-95.5 447,-95.5"/>
<text text-anchor="middle" x="502.5" y="-102.5" font-family="Helvetica,sans-Serif" font-size="10.00" fill="#000000">mutt_clear_threads</text>
</a>
</g>
</g>
<!-- Node5280&#45;&gt;Node5281 -->
<g id="edge1" class="edge">
<title>Node5280&#45;&gt;Node5281</title>
<path fill="none" stroke="#191970" d="M81.1406,-114.5834C100.5092,-123.9608 131.9888,-137.598 161,-143 268.4392,-163.0057 396.9939,-134.918 461.4215,-117.3251"/>
<polygon fill="#191970" stroke="#191970" points="462.5047,-120.6567 471.198,-114.6006 460.6255,-113.9136 462.5047,-120.6567"/>
</g>
<!-- Node5283 -->
<g id="node3" class="node">
<title>Node5283</title>
<g id="a_node3"><a xlink:href="context_8c.html#a6ca730227e40c11b688852141c0e4fc3" target="_top" xlink:title="Release memory and initialize a Context object. ">
<polygon fill="#ffffff" stroke="#ff0000" points="176.5,-114.5 176.5,-133.5 251.5,-133.5 251.5,-114.5 176.5,-114.5"/>
<text text-anchor="middle" x="214" y="-121.5" font-family="Helvetica,sans-Serif" font-size="10.00" fill="#000000">ctx_cleanup</text>
</a>
</g>
</g>
<!-- Node5280&#45;&gt;Node5283 -->
<g id="edge2" class="edge">
<title>Node5280&#45;&gt;Node5283</title>
<path fill="none" stroke="#191970" d="M125.4335,-106.2293C141.2649,-107.9989 157.8656,-110.2684 172.3603,-112.6771"/>
<polygon fill="#191970" stroke="#191970" points="172.0478,-116.1755 182.5013,-114.4506 173.2537,-109.2802 172.0478,-116.1755"/>
</g>
<!-- Node5287 -->
<g id="node4" class="node">
<title>Node5287</title>
<g id="a_node4"><a xlink:href="context_8c.html#a9388581d0baec70c2962fdb99fd1a35c" target="_top" xlink:title="Update the Context&#39;s message counts. ">
<polygon fill="#ffffff" stroke="#ff0000" points="178.5,-76.5 178.5,-95.5 249.5,-95.5 249.5,-76.5 178.5,-76.5"/>
<text text-anchor="middle" x="214" y="-83.5" font-family="Helvetica,sans-Serif" font-size="10.00" fill="#000000">ctx_update</text>
</a>
</g>
</g>
<!-- Node5280&#45;&gt;Node5287 -->
<g id="edge4" class="edge">
<title>Node5280&#45;&gt;Node5287</title>
<path fill="none" stroke="#191970" d="M125.4335,-97.1074C139.8156,-95.3037 154.8325,-93.4204 168.3285,-91.7278"/>
<polygon fill="#191970" stroke="#191970" points="168.8302,-95.1924 178.3169,-90.4751 167.9591,-88.2468 168.8302,-95.1924"/>
</g>
<!-- Node5967 -->
<g id="node5" class="node">
<title>Node5967</title>
<g id="a_node5"><a xlink:href="sort_8c.html#aa99d4b590a29f24c0950934c15be6a83" target="_top" xlink:title="Sort emails by their headers. ">
<polygon fill="#ffffff" stroke="#ff0000" points="303,-57.5 303,-76.5 411,-76.5 411,-57.5 303,-57.5"/>
<text text-anchor="middle" x="357" y="-64.5" font-family="Helvetica,sans-Serif" font-size="10.00" fill="#000000">mutt_sort_headers</text>
</a>
</g>
</g>
<!-- Node5280&#45;&gt;Node5967 -->
<g id="edge9" class="edge">
<title>Node5280&#45;&gt;Node5967</title>
<path fill="none" stroke="#191970" d="M81.1406,-95.4166C100.5092,-86.0392 131.9888,-72.402 161,-67 204.4527,-58.9089 254.2699,-59.0285 292.8063,-61.1098"/>
<polygon fill="#191970" stroke="#191970" points="292.6634,-64.6074 302.8544,-61.7103 293.0811,-57.6199 292.6634,-64.6074"/>
</g>
<!-- Node6187 -->
<g id="node6" class="node">
<title>Node6187</title>
<g id="a_node6"><a xlink:href="context_8c.html#afafe9a23e17b996960cd716209746bc4" target="_top" xlink:title="Update a Context structure&#39;s internal tables. ">
<polygon fill="#ffffff" stroke="#ff0000" points="161,-.5 161,-19.5 267,-19.5 267,-.5 161,-.5"/>
<text text-anchor="middle" x="214" y="-7.5" font-family="Helvetica,sans-Serif" font-size="10.00" fill="#000000">ctx_update_tables</text>
</a>
</g>
</g>
<!-- Node5280&#45;&gt;Node6187 -->
<g id="edge8" class="edge">
<title>Node5280&#45;&gt;Node6187</title>
<path fill="none" stroke="#191970" d="M74.1103,-95.4514C92.0205,-81.0005 127.7988,-53.2256 161,-34 167.2253,-30.3952 174.0887,-26.9386 180.7535,-23.8268"/>
<polygon fill="#191970" stroke="#191970" points="182.5977,-26.8349 190.2785,-19.5372 179.7232,-20.4522 182.5977,-26.8349"/>
</g>
<!-- Node5283&#45;&gt;Node5280 -->
<g id="edge3" class="edge">
<title>Node5283&#45;&gt;Node5280</title>
<path fill="none" stroke="#191970" d="M176.4913,-125.2145C154.4592,-123.4992 126.5765,-120.0598 103.9025,-116.2834"/>
<polygon fill="#191970" stroke="#191970" points="104.3449,-112.8077 93.8909,-114.5295 103.1369,-119.7027 104.3449,-112.8077"/>
</g>
<!-- Node5287&#45;&gt;Node5281 -->
<g id="edge5" class="edge">
<title>Node5287&#45;&gt;Node5281</title>
<path fill="none" stroke="#191970" d="M249.6651,-88.3488C296.242,-91.4163 378.6688,-96.8447 436.7213,-100.668"/>
<polygon fill="#191970" stroke="#191970" points="436.6929,-104.1736 446.9013,-101.3384 437.153,-97.1887 436.6929,-104.1736"/>
</g>
<!-- Node5287&#45;&gt;Node5967 -->
<g id="edge6" class="edge">
<title>Node5287&#45;&gt;Node5967</title>
<path fill="none" stroke="#191970" d="M249.7161,-81.2545C262.7557,-79.522 277.9348,-77.5052 292.7001,-75.5433"/>
<polygon fill="#191970" stroke="#191970" points="293.3729,-78.9848 302.8247,-74.1981 292.4508,-72.0458 293.3729,-78.9848"/>
</g>
<!-- Node5967&#45;&gt;Node5281 -->
<g id="edge7" class="edge">
<title>Node5967&#45;&gt;Node5281</title>
<path fill="none" stroke="#191970" d="M393.7158,-76.589C412.6566,-81.5358 435.9572,-87.6211 456.1285,-92.8892"/>
<polygon fill="#191970" stroke="#191970" points="455.4883,-96.3394 466.0482,-95.4799 457.2572,-89.5665 455.4883,-96.3394"/>
</g>
</g>
</svg>
