<?xml version="1.0" encoding="UTF-8" standalone="no"?>
<!DOCTYPE svg PUBLIC "-//W3C//DTD SVG 1.1//EN"
 "http://www.w3.org/Graphics/SVG/1.1/DTD/svg11.dtd">
<!-- Generated by graphviz version 2.44.0 (0)
 -->
<!-- Title: decrypt_part Pages: 1 -->
<svg width="240pt" height="332pt"
 viewBox="0.00 0.00 240.00 332.00" xmlns="http://www.w3.org/2000/svg" xmlns:xlink="http://www.w3.org/1999/xlink">
<g id="graph0" class="graph" transform="scale(1 1) rotate(0) translate(4 328)">
<title>decrypt_part</title>
<polygon fill="white" stroke="transparent" points="-4,4 -4,-328 236,-328 236,4 -4,4"/>
<!-- Node1 -->
<g id="node1" class="node">
<title>Node1</title>
<g id="a_node1"><a xlink:title="Decrypt a PGP or SMIME message.">
<polygon fill="#bfbfbf" stroke="black" points="0,-152.5 0,-171.5 72,-171.5 72,-152.5 0,-152.5"/>
<text text-anchor="middle" x="36" y="-159.5" font-family="Helvetica" font-size="10.00">decrypt_part</text>
</a>
</g>
</g>
<!-- Node2 -->
<g id="node2" class="node">
<title>Node2</title>
<g id="a_node2"><a xlink:href="crypt__gpgme_8c.html#a54ca8638b13c6da904a48009a8bba358" target="_top" xlink:title="Create a new GPGME context.">
<polygon fill="white" stroke="red" points="112,-304.5 112,-323.5 228,-323.5 228,-304.5 112,-304.5"/>
<text text-anchor="middle" x="170" y="-311.5" font-family="Helvetica" font-size="10.00">create_gpgme_context</text>
</a>
</g>
</g>
<!-- Node1&#45;&gt;Node2 -->
<g id="edge1" class="edge">
<title>Node1&#45;&gt;Node2</title>
<path fill="none" stroke="midnightblue" d="M39.41,-171.66C46,-196.09 66.66,-260.8 108,-295 110.06,-296.7 112.27,-298.25 114.58,-299.66"/>
<polygon fill="midnightblue" stroke="midnightblue" points="113.43,-303.01 123.93,-304.45 116.62,-296.78 113.43,-303.01"/>
</g>
<!-- Node4 -->
<g id="node3" class="node">
<title>Node4</title>
<g id="a_node3"><a xlink:href="crypt__gpgme_8c.html#a433e35eb7b66902025d1a6eced7c17c8" target="_top" xlink:title="Create a new GPGME data object.">
<polygon fill="white" stroke="red" points="118.5,-266.5 118.5,-285.5 221.5,-285.5 221.5,-266.5 118.5,-266.5"/>
<text text-anchor="middle" x="170" y="-273.5" font-family="Helvetica" font-size="10.00">create_gpgme_data</text>
</a>
</g>
</g>
<!-- Node1&#45;&gt;Node4 -->
<g id="edge2" class="edge">
<title>Node1&#45;&gt;Node4</title>
<path fill="none" stroke="midnightblue" d="M41.59,-171.66C51.18,-190.83 75.22,-233.82 108,-257 110.72,-258.92 113.63,-260.65 116.67,-262.21"/>
<polygon fill="midnightblue" stroke="midnightblue" points="115.48,-265.52 126.04,-266.4 118.34,-259.12 115.48,-265.52"/>
</g>
<!-- Node5 -->
<g id="node4" class="node">
<title>Node5</title>
<g id="a_node4"><a xlink:href="crypt__gpgme_8c.html#a85ea55200935f18e5e9f04190670038d" target="_top" xlink:title="Write a GPGME data object to a file.">
<polygon fill="white" stroke="black" points="112,-228.5 112,-247.5 228,-247.5 228,-228.5 112,-228.5"/>
<text text-anchor="middle" x="170" y="-235.5" font-family="Helvetica" font-size="10.00">data_object_to_stream</text>
</a>
</g>
</g>
<!-- Node1&#45;&gt;Node5 -->
<g id="edge3" class="edge">
<title>Node1&#45;&gt;Node5</title>
<path fill="none" stroke="midnightblue" d="M46.71,-171.82C59.65,-184.39 83.72,-206.07 108,-219 112.19,-221.23 116.67,-223.24 121.25,-225.05"/>
<polygon fill="midnightblue" stroke="midnightblue" points="120.09,-228.36 130.69,-228.48 122.48,-221.78 120.09,-228.36"/>
</g>
<!-- Node6 -->
<g id="node5" class="node">
<title>Node6</title>
<g id="a_node5"><a xlink:href="crypt__gpgme_8c.html#a9e4c3751a7e9290b83db346a58f9fc95" target="_top" xlink:title="Create GPGME data object from file.">
<polygon fill="white" stroke="black" points="121,-190.5 121,-209.5 219,-209.5 219,-190.5 121,-190.5"/>
<text text-anchor="middle" x="170" y="-197.5" font-family="Helvetica" font-size="10.00">file_to_data_object</text>
</a>
</g>
</g>
<!-- Node1&#45;&gt;Node6 -->
<g id="edge4" class="edge">
<title>Node1&#45;&gt;Node6</title>
<path fill="none" stroke="midnightblue" d="M70.31,-171.59C87.19,-176.45 107.89,-182.41 125.97,-187.61"/>
<polygon fill="midnightblue" stroke="midnightblue" points="125.12,-191.01 135.7,-190.41 127.06,-184.28 125.12,-191.01"/>
</g>
<!-- Node7 -->
<g id="node6" class="node">
<title>Node7</title>
<g id="a_node6"><a xlink:href="parse_8c.html#a0b38ac4f44b3414d0e18d26324861369" target="_top" xlink:title="Parse a MIME part.">
<polygon fill="white" stroke="red" points="125.5,-152.5 125.5,-171.5 214.5,-171.5 214.5,-152.5 125.5,-152.5"/>
<text text-anchor="middle" x="170" y="-159.5" font-family="Helvetica" font-size="10.00">mutt_parse_part</text>
</a>
</g>
</g>
<!-- Node1&#45;&gt;Node7 -->
<g id="edge5" class="edge">
<title>Node1&#45;&gt;Node7</title>
<path fill="none" stroke="midnightblue" d="M72.03,-162C85.18,-162 100.45,-162 114.94,-162"/>
<polygon fill="midnightblue" stroke="midnightblue" points="115.3,-165.5 125.3,-162 115.3,-158.5 115.3,-165.5"/>
</g>
<!-- Node13 -->
<g id="node7" class="node">
<title>Node13</title>
<g id="a_node7"><a xlink:href="parse_8c.html#ad373211d5d49e235c1aa9b818f0f10a1" target="_top" xlink:title="Parse a MIME header.">
<polygon fill="white" stroke="red" points="108,-114.5 108,-133.5 232,-133.5 232,-114.5 108,-114.5"/>
<text text-anchor="middle" x="170" y="-121.5" font-family="Helvetica" font-size="10.00">mutt_read_mime_header</text>
</a>
</g>
</g>
<!-- Node1&#45;&gt;Node13 -->
<g id="edge6" class="edge">
<title>Node1&#45;&gt;Node13</title>
<path fill="none" stroke="midnightblue" d="M70.31,-152.41C87.19,-147.55 107.89,-141.59 125.97,-136.39"/>
<polygon fill="midnightblue" stroke="midnightblue" points="127.06,-139.72 135.7,-133.59 125.12,-132.99 127.06,-139.72"/>
</g>
<!-- Node860 -->
<g id="node8" class="node">
<title>Node860</title>
<g id="a_node8"><a xlink:href="crypt__gpgme_8c.html#acde3260a9e30d9ffd4fa5a62f19620a9" target="_top" xlink:title="accommodate for a redraw if needed">
<polygon fill="white" stroke="red" points="123.5,-76.5 123.5,-95.5 216.5,-95.5 216.5,-76.5 123.5,-76.5"/>
<text text-anchor="middle" x="170" y="-83.5" font-family="Helvetica" font-size="10.00">redraw_if_needed</text>
</a>
</g>
</g>
<!-- Node1&#45;&gt;Node860 -->
<g id="edge7" class="edge">
<title>Node1&#45;&gt;Node860</title>
<path fill="none" stroke="midnightblue" d="M46.71,-152.18C59.65,-139.61 83.72,-117.93 108,-105 112.19,-102.77 116.67,-100.76 121.25,-98.95"/>
<polygon fill="midnightblue" stroke="midnightblue" points="122.48,-102.22 130.69,-95.52 120.09,-95.64 122.48,-102.22"/>
</g>
<!-- Node862 -->
<g id="node9" class="node">
<title>Node862</title>
<g id="a_node9"><a xlink:href="crypt__gpgme_8c.html#a90bb1055f235c6de5186089f8795d443" target="_top" xlink:title="Show information about one signature.">
<polygon fill="white" stroke="red" points="114.5,-38.5 114.5,-57.5 225.5,-57.5 225.5,-38.5 114.5,-38.5"/>
<text text-anchor="middle" x="170" y="-45.5" font-family="Helvetica" font-size="10.00">show_one_sig_status</text>
</a>
</g>
</g>
<!-- Node1&#45;&gt;Node862 -->
<g id="edge8" class="edge">
<title>Node1&#45;&gt;Node862</title>
<path fill="none" stroke="midnightblue" d="M41.59,-152.34C51.18,-133.17 75.22,-90.18 108,-67 110.72,-65.08 113.63,-63.35 116.67,-61.79"/>
<polygon fill="midnightblue" stroke="midnightblue" points="118.34,-64.88 126.04,-57.6 115.48,-58.48 118.34,-64.88"/>
</g>
<!-- Node831 -->
<g id="node10" class="node">
<title>Node831</title>
<g id="a_node10"><a xlink:href="state_8c.html#a8d8c6b5b8e9a2427e68fab5f5403cb63" target="_top" xlink:title="Write a string to the state.">
<polygon fill="white" stroke="red" points="122.5,-0.5 122.5,-19.5 217.5,-19.5 217.5,-0.5 122.5,-0.5"/>
<text text-anchor="middle" x="170" y="-7.5" font-family="Helvetica" font-size="10.00">state_attach_puts</text>
</a>
</g>
</g>
<!-- Node1&#45;&gt;Node831 -->
<g id="edge9" class="edge">
<title>Node1&#45;&gt;Node831</title>
<path fill="none" stroke="midnightblue" d="M39.41,-152.34C46,-127.91 66.66,-63.2 108,-29 110.06,-27.3 112.27,-25.75 114.58,-24.34"/>
<polygon fill="midnightblue" stroke="midnightblue" points="116.62,-27.22 123.93,-19.55 113.43,-20.99 116.62,-27.22"/>
</g>
</g>
</svg>
