<?xml version="1.0" encoding="UTF-8" standalone="no"?>
<!DOCTYPE svg PUBLIC "-//W3C//DTD SVG 1.1//EN"
 "http://www.w3.org/Graphics/SVG/1.1/DTD/svg11.dtd">
<!-- Generated by graphviz version 12.2.1 (20241206.2353)
 -->
<!-- Title: crypt_get_fingerprint_or_id Pages: 1 -->
<svg width="260pt" height="70pt"
 viewBox="0.00 0.00 259.75 70.25" xmlns="http://www.w3.org/2000/svg" xmlns:xlink="http://www.w3.org/1999/xlink">
<g id="graph0" class="graph" transform="scale(1 1) rotate(0) translate(4 66.25)">
<title>crypt_get_fingerprint_or_id</title>
<!-- Node1 -->
<g id="Node000001" class="node">
<title>Node1</title>
<g id="a_Node000001"><a xlink:title="Get the fingerprint or long key ID.">
<polygon fill="#999999" stroke="#666666" points="251.75,-49.38 136,-49.38 136,-12.88 251.75,-12.88 251.75,-49.38"/>
<text text-anchor="start" x="144" y="-35.88" font-family="Helvetica,sans-Serif" font-size="10.00">crypt_get_fingerprint</text>
<text text-anchor="middle" x="193.88" y="-21.62" font-family="Helvetica,sans-Serif" font-size="10.00">_or_id</text>
</a>
</g>
</g>
<!-- Node2 -->
<g id="Node000002" class="node">
<title>Node2</title>
<g id="a_Node000002"><a xlink:href="crypt__gpgme_8c.html#a5fee66cefad8cab3f8cb31c27ad52085" target="_top" xlink:title="Find a key by string.">
<polygon fill="#fff0f0" stroke="red" points="100,-62.25 0,-62.25 0,-40 100,-40 100,-62.25"/>
<text text-anchor="middle" x="50" y="-48.75" font-family="Helvetica,sans-Serif" font-size="10.00">crypt_getkeybystr</text>
</a>
</g>
</g>
<!-- Node1&#45;&gt;Node2 -->
<g id="edge1_Node000001_Node000002" class="edge">
<title>Node1&#45;&gt;Node2</title>
<g id="a_edge1_Node000001_Node000002"><a xlink:title=" ">
<path fill="none" stroke="#63b8ff" d="M124.23,-40.8C116.15,-41.94 108.04,-43.08 100.3,-44.17"/>
<polygon fill="#63b8ff" stroke="#63b8ff" points="124.67,-44.28 134.08,-39.41 123.69,-37.34 124.67,-44.28"/>
</a>
</g>
</g>
<!-- Node67 -->
<g id="Node000067" class="node">
<title>Node67</title>
<g id="a_Node000067"><a xlink:href="pgpkey_8c.html#aaddba522e6c8515d7e72a9995ff71c7f" target="_top" xlink:title="Find a PGP key by string.">
<polygon fill="#fff0f0" stroke="red" points="97,-22.25 3,-22.25 3,0 97,0 97,-22.25"/>
<text text-anchor="middle" x="50" y="-8.75" font-family="Helvetica,sans-Serif" font-size="10.00">pgp_getkeybystr</text>
</a>
</g>
</g>
<!-- Node1&#45;&gt;Node67 -->
<g id="edge2_Node000001_Node000067" class="edge">
<title>Node1&#45;&gt;Node67</title>
<g id="a_edge2_Node000001_Node000067"><a xlink:title=" ">
<path fill="none" stroke="#63b8ff" d="M124.4,-21.47C115.17,-20.17 105.89,-18.86 97.18,-17.64"/>
<polygon fill="#63b8ff" stroke="#63b8ff" points="123.69,-24.91 134.08,-22.84 124.67,-17.97 123.69,-24.91"/>
</a>
</g>
</g>
</g>
</svg>
