<?xml version="1.0" encoding="UTF-8" standalone="no"?>
<!DOCTYPE svg PUBLIC "-//W3C//DTD SVG 1.1//EN"
 "http://www.w3.org/Graphics/SVG/1.1/DTD/svg11.dtd">
<!-- Generated by graphviz version 2.40.1 (20161225.0304)
 -->
<!-- Title: find_keys Pages: 1 -->
<svg width="248pt" height="142pt"
 viewBox="0.00 0.00 248.00 142.00" xmlns="http://www.w3.org/2000/svg" xmlns:xlink="http://www.w3.org/1999/xlink">
<g id="graph0" class="graph" transform="scale(1 1) rotate(0) translate(4 138)">
<title>find_keys</title>
<polygon fill="#ffffff" stroke="transparent" points="-4,4 -4,-138 244,-138 244,4 -4,4"/>
<!-- Node56132 -->
<g id="node1" class="node">
<title>Node56132</title>
<polygon fill="#bfbfbf" stroke="#000000" points="0,-57.5 0,-76.5 63,-76.5 63,-57.5 0,-57.5"/>
<text text-anchor="middle" x="31.5" y="-64.5" font-family="Helvetica,sans-Serif" font-size="10.00" fill="#000000">find_keys</text>
</g>
<!-- Node56133 -->
<g id="node2" class="node">
<title>Node56133</title>
<g id="a_node2"><a xlink:href="crypt__gpgme_8h.html#aac6076878575fadf2abb93c6a287eb45" target="_top" xlink:title="Implements CryptModuleSpecs::find_keys() ">
<polygon fill="#ffffff" stroke="#000000" points="107,-114.5 107,-133.5 232,-133.5 232,-114.5 107,-114.5"/>
<text text-anchor="middle" x="169.5" y="-121.5" font-family="Helvetica,sans-Serif" font-size="10.00" fill="#000000">pgp_gpgme_find_keys</text>
</a>
</g>
</g>
<!-- Node56132&#45;&gt;Node56133 -->
<g id="edge1" class="edge">
<title>Node56132&#45;&gt;Node56133</title>
<path fill="none" stroke="#191970" d="M54.5436,-81.8728C67.2652,-89.5898 83.5735,-98.695 99,-105 107.9179,-108.6449 117.7543,-111.8001 127.1778,-114.4353"/>
<polygon fill="#191970" stroke="#191970" points="56.3207,-78.8566 45.978,-76.5589 52.6305,-84.8049 56.3207,-78.8566"/>
</g>
<!-- Node56134 -->
<g id="node3" class="node">
<title>Node56134</title>
<g id="a_node3"><a xlink:href="crypt__gpgme_8h.html#a5856a7fc81449494aa13e8df6bbdf3c2" target="_top" xlink:title="Implements CryptModuleSpecs::find_keys() ">
<polygon fill="#ffffff" stroke="#000000" points="99,-76.5 99,-95.5 240,-95.5 240,-76.5 99,-76.5"/>
<text text-anchor="middle" x="169.5" y="-83.5" font-family="Helvetica,sans-Serif" font-size="10.00" fill="#000000">smime_gpgme_find_keys</text>
</a>
</g>
</g>
<!-- Node56132&#45;&gt;Node56134 -->
<g id="edge2" class="edge">
<title>Node56132&#45;&gt;Node56134</title>
<path fill="none" stroke="#191970" d="M73.242,-72.7471C81.8162,-73.9276 91.0595,-75.2002 100.3073,-76.4735"/>
<polygon fill="#191970" stroke="#191970" points="73.5439,-69.2557 63.16,-71.359 72.5891,-76.1903 73.5439,-69.2557"/>
</g>
<!-- Node56135 -->
<g id="node4" class="node">
<title>Node56135</title>
<g id="a_node4"><a xlink:href="cryptglue_8h.html#a3acb677804fa350ccb51517dd700f52f" target="_top" xlink:title="Wrapper for CryptModuleSpecs::find_keys() ">
<polygon fill="#ffffff" stroke="#ff0000" points="111.5,-38.5 111.5,-57.5 227.5,-57.5 227.5,-38.5 111.5,-38.5"/>
<text text-anchor="middle" x="169.5" y="-45.5" font-family="Helvetica,sans-Serif" font-size="10.00" fill="#000000">crypt_pgp_find_keys</text>
</a>
</g>
</g>
<!-- Node56132&#45;&gt;Node56135 -->
<g id="edge3" class="edge">
<title>Node56132&#45;&gt;Node56135</title>
<path fill="none" stroke="#191970" d="M73.3228,-61.2418C85.3217,-59.5898 98.6257,-57.7581 111.4161,-55.9971"/>
<polygon fill="#191970" stroke="#191970" points="72.5891,-57.8097 63.16,-62.641 73.5439,-64.7443 72.5891,-57.8097"/>
</g>
<!-- Node56626 -->
<g id="node5" class="node">
<title>Node56626</title>
<g id="a_node5"><a xlink:href="cryptglue_8h.html#ac9687b66aca5969d0a9ad0f5c122dbdb" target="_top" xlink:title="Wrapper for CryptModuleSpecs::find_keys() ">
<polygon fill="#ffffff" stroke="#ff0000" points="103.5,-.5 103.5,-19.5 235.5,-19.5 235.5,-.5 103.5,-.5"/>
<text text-anchor="middle" x="169.5" y="-7.5" font-family="Helvetica,sans-Serif" font-size="10.00" fill="#000000">crypt_smime_find_keys</text>
</a>
</g>
</g>
<!-- Node56132&#45;&gt;Node56626 -->
<g id="edge4" class="edge">
<title>Node56132&#45;&gt;Node56626</title>
<path fill="none" stroke="#191970" d="M54.5436,-52.1272C67.2652,-44.4102 83.5735,-35.305 99,-29 107.9179,-25.3551 117.7543,-22.1999 127.1778,-19.5647"/>
<polygon fill="#191970" stroke="#191970" points="52.6305,-49.1951 45.978,-57.4411 56.3207,-55.1434 52.6305,-49.1951"/>
</g>
</g>
</svg>
