<?xml version="1.0" encoding="UTF-8" standalone="no"?>
<!DOCTYPE svg PUBLIC "-//W3C//DTD SVG 1.1//EN"
 "http://www.w3.org/Graphics/SVG/1.1/DTD/svg11.dtd">
<!-- Generated by graphviz version 7.1.0 (0)
 -->
<!-- Title: print_smime_keyinfo Pages: 1 -->
<svg width="239pt" height="64pt"
 viewBox="0.00 0.00 239.00 64.00" xmlns="http://www.w3.org/2000/svg" xmlns:xlink="http://www.w3.org/1999/xlink">
<g id="graph0" class="graph" transform="scale(1 1) rotate(0) translate(4 60)">
<title>print_smime_keyinfo</title>
<!-- Node1 -->
<g id="node1" class="node">
<title>Node1</title>
<g id="a_node1"><a xlink:title="Print key info about an SMIME key.">
<polygon fill="#999999" stroke="#666666" points="113,-37 0,-37 0,-18 113,-18 113,-37"/>
<text text-anchor="middle" x="56.5" y="-25" font-family="Helvetica,sans-Serif" font-size="10.00">print_smime_keyinfo</text>
</a>
</g>
</g>
<!-- Node2 -->
<g id="node2" class="node">
<title>Node2</title>
<g id="a_node2"><a xlink:href="curs__lib_8c.html#ad506c0f8d5c549c330f49e2fa56e207b" target="_top" xlink:title="Measure a string&#39;s width in screen cells.">
<polygon fill="#fff0f0" stroke="red" points="231,-56 149,-56 149,-37 231,-37 231,-56"/>
<text text-anchor="middle" x="190" y="-44" font-family="Helvetica,sans-Serif" font-size="10.00">mutt_strwidth</text>
</a>
</g>
</g>
<!-- Node1&#45;&gt;Node2 -->
<g id="edge1" class="edge">
<title>Node1&#45;&gt;Node2</title>
<path fill="none" stroke="#63b8ff" d="M113.27,-35.56C121.26,-36.71 129.46,-37.9 137.37,-39.04"/>
<polygon fill="#63b8ff" stroke="#63b8ff" points="136.8,-42.49 147.2,-40.46 137.8,-35.57 136.8,-42.49"/>
</g>
<!-- Node5 -->
<g id="node3" class="node">
<title>Node5</title>
<g id="a_node3"><a xlink:href="crypt__gpgme_8c.html#af7188b10091393fe79b3728eeb1b671d" target="_top" xlink:title="Print the date/time according to the locale.">
<polygon fill="#fff0f0" stroke="red" points="222.5,-19 157.5,-19 157.5,0 222.5,0 222.5,-19"/>
<text text-anchor="middle" x="190" y="-7" font-family="Helvetica,sans-Serif" font-size="10.00">print_time</text>
</a>
</g>
</g>
<!-- Node1&#45;&gt;Node5 -->
<g id="edge2" class="edge">
<title>Node1&#45;&gt;Node5</title>
<path fill="none" stroke="#63b8ff" d="M113.27,-19.87C124.15,-18.38 135.41,-16.84 145.81,-15.41"/>
<polygon fill="#63b8ff" stroke="#63b8ff" points="146.19,-18.89 155.62,-14.07 145.24,-11.96 146.19,-18.89"/>
</g>
</g>
</svg>
