<?xml version="1.0" encoding="UTF-8" standalone="no"?>
<!DOCTYPE svg PUBLIC "-//W3C//DTD SVG 1.1//EN"
 "http://www.w3.org/Graphics/SVG/1.1/DTD/svg11.dtd">
<!-- Generated by graphviz version 2.40.1 (20161225.0304)
 -->
<!-- Title: ncrypt/crypt_mod.c Pages: 1 -->
<svg width="241pt" height="84pt"
 viewBox="0.00 0.00 241.00 84.00" xmlns="http://www.w3.org/2000/svg" xmlns:xlink="http://www.w3.org/1999/xlink">
<g id="graph0" class="graph" transform="scale(1 1) rotate(0) translate(4 80)">
<title>ncrypt/crypt_mod.c</title>
<polygon fill="#ffffff" stroke="transparent" points="-4,4 -4,-80 237,-80 237,4 -4,4"/>
<!-- Node0 -->
<g id="node1" class="node">
<title>Node0</title>
<polygon fill="#bfbfbf" stroke="#000000" points="50.5,-56.5 50.5,-75.5 160.5,-75.5 160.5,-56.5 50.5,-56.5"/>
<text text-anchor="middle" x="105.5" y="-63.5" font-family="Helvetica,sans-Serif" font-size="10.00" fill="#000000">ncrypt/crypt_mod.c</text>
</g>
<!-- Node1 -->
<g id="node2" class="node">
<title>Node1</title>
<polygon fill="#ffffff" stroke="#bfbfbf" points="0,-.5 0,-19.5 55,-19.5 55,-.5 0,-.5"/>
<text text-anchor="middle" x="27.5" y="-7.5" font-family="Helvetica,sans-Serif" font-size="10.00" fill="#000000">config.h</text>
</g>
<!-- Node0&#45;&gt;Node1 -->
<g id="edge1" class="edge">
<title>Node0&#45;&gt;Node1</title>
<path fill="none" stroke="#191970" d="M91.9134,-56.2455C80.1695,-47.814 62.9801,-35.4729 49.3118,-25.6598"/>
<polygon fill="#191970" stroke="#191970" points="51.0954,-22.6316 40.9309,-19.6427 47.0129,-28.3179 51.0954,-22.6316"/>
</g>
<!-- Node2 -->
<g id="node3" class="node">
<title>Node2</title>
<g id="a_node3"><a xlink:href="mutt_2lib_8h.html" target="_top" xlink:title="Convenience wrapper for the library headers. ">
<polygon fill="#ffffff" stroke="#ff0000" points="73.5,-.5 73.5,-19.5 137.5,-19.5 137.5,-.5 73.5,-.5"/>
<text text-anchor="middle" x="105.5" y="-7.5" font-family="Helvetica,sans-Serif" font-size="10.00" fill="#000000">mutt/lib.h</text>
</a>
</g>
</g>
<!-- Node0&#45;&gt;Node2 -->
<g id="edge2" class="edge">
<title>Node0&#45;&gt;Node2</title>
<path fill="none" stroke="#191970" d="M105.5,-56.2455C105.5,-48.9382 105.5,-38.6944 105.5,-29.7046"/>
<polygon fill="#191970" stroke="#191970" points="109.0001,-29.6426 105.5,-19.6427 102.0001,-29.6427 109.0001,-29.6426"/>
</g>
<!-- Node45 -->
<g id="node4" class="node">
<title>Node45</title>
<g id="a_node4"><a xlink:href="crypt__mod_8h.html" target="_top" xlink:title="Register crypto modules. ">
<polygon fill="#ffffff" stroke="#ff0000" points="156,-.5 156,-19.5 233,-19.5 233,-.5 156,-.5"/>
<text text-anchor="middle" x="194.5" y="-7.5" font-family="Helvetica,sans-Serif" font-size="10.00" fill="#000000">crypt_mod.h</text>
</a>
</g>
</g>
<!-- Node0&#45;&gt;Node45 -->
<g id="edge3" class="edge">
<title>Node0&#45;&gt;Node45</title>
<path fill="none" stroke="#191970" d="M121.0026,-56.2455C134.658,-47.6534 154.7657,-35.0014 170.4989,-25.1018"/>
<polygon fill="#191970" stroke="#191970" points="172.5751,-27.9307 179.175,-19.6427 168.8471,-22.006 172.5751,-27.9307"/>
</g>
</g>
</svg>
