<?xml version="1.0" encoding="UTF-8" standalone="no"?>
<!DOCTYPE svg PUBLIC "-//W3C//DTD SVG 1.1//EN"
 "http://www.w3.org/Graphics/SVG/1.1/DTD/svg11.dtd">
<!-- Generated by graphviz version 12.2.1 (20241206.2353)
 -->
<!-- Title: crypt_pgp_verify_one Pages: 1 -->
<svg width="403pt" height="49pt"
 viewBox="0.00 0.00 403.25 49.25" xmlns="http://www.w3.org/2000/svg" xmlns:xlink="http://www.w3.org/1999/xlink">
<g id="graph0" class="graph" transform="scale(1 1) rotate(0) translate(4 45.25)">
<title>crypt_pgp_verify_one</title>
<!-- Node1 -->
<g id="Node000001" class="node">
<title>Node1</title>
<g id="a_Node000001"><a xlink:title="Wrapper for CryptModuleSpecs::verify_one()">
<polygon fill="#999999" stroke="#666666" points="116.5,-41.25 0,-41.25 0,-19 116.5,-19 116.5,-41.25"/>
<text text-anchor="middle" x="58.25" y="-27.75" font-family="Helvetica,sans-Serif" font-size="10.00">crypt_pgp_verify_one</text>
</a>
</g>
</g>
<!-- Node2 -->
<g id="Node000002" class="node">
<title>Node2</title>
<g id="a_Node000002"><a xlink:href="neomutt_8c.html#ab58efd47fa66c8187cfdce43078c94fa" target="_top" xlink:title="Get the private data for a Module.">
<polygon fill="white" stroke="#666666" points="395.25,-41.25 254,-41.25 254,-19 395.25,-19 395.25,-41.25"/>
<text text-anchor="middle" x="324.62" y="-27.75" font-family="Helvetica,sans-Serif" font-size="10.00">neomutt_get_module_data</text>
</a>
</g>
</g>
<!-- Node1&#45;&gt;Node2 -->
<g id="edge1_Node000001_Node000002" class="edge">
<title>Node1&#45;&gt;Node2</title>
<g id="a_edge1_Node000001_Node000002"><a xlink:title=" ">
<path fill="none" stroke="#63b8ff" d="M116.95,-30.84C128.71,-30.96 141.01,-31.06 152.5,-31.12 181.61,-31.28 188.89,-31.26 218,-31.12 225.94,-31.09 234.22,-31.03 242.49,-30.97"/>
<polygon fill="#63b8ff" stroke="#63b8ff" points="242.26,-34.47 252.23,-30.89 242.2,-27.47 242.26,-34.47"/>
</a>
</g>
</g>
<!-- Node3 -->
<g id="Node000003" class="node">
<title>Node3</title>
<g id="a_Node000003"><a xlink:href="crypt__gpgme_8c.html#a1f787f6ad8763801ccc1e03d03c28681" target="_top" xlink:title="Do the actual verification step.">
<polygon fill="#fff0f0" stroke="red" points="218,-22.25 152.5,-22.25 152.5,0 218,0 218,-22.25"/>
<text text-anchor="middle" x="185.25" y="-8.75" font-family="Helvetica,sans-Serif" font-size="10.00">verify_one</text>
</a>
</g>
</g>
<!-- Node1&#45;&gt;Node3 -->
<g id="edge2_Node000001_Node000003" class="edge">
<title>Node1&#45;&gt;Node3</title>
<g id="a_edge2_Node000001_Node000003"><a xlink:title=" ">
<path fill="none" stroke="#63b8ff" d="M116.99,-21.35C125.06,-20.12 133.24,-18.88 140.98,-17.7"/>
<polygon fill="#63b8ff" stroke="#63b8ff" points="141.47,-21.17 150.83,-16.2 140.42,-14.25 141.47,-21.17"/>
</a>
</g>
</g>
<!-- Node3&#45;&gt;Node2 -->
<g id="edge3_Node000003_Node000002" class="edge">
<title>Node3&#45;&gt;Node2</title>
<g id="a_edge3_Node000003_Node000002"><a xlink:title=" ">
<path fill="none" stroke="#63b8ff" d="M218.46,-15.58C225.85,-16.6 234.03,-17.73 242.47,-18.9"/>
<polygon fill="#63b8ff" stroke="#63b8ff" points="241.79,-22.34 252.18,-20.24 242.75,-15.41 241.79,-22.34"/>
</a>
</g>
</g>
</g>
</svg>
