<?xml version="1.0" encoding="UTF-8" standalone="no"?>
<!DOCTYPE svg PUBLIC "-//W3C//DTD SVG 1.1//EN"
 "http://www.w3.org/Graphics/SVG/1.1/DTD/svg11.dtd">
<!-- Generated by graphviz version 2.40.1 (20161225.0304)
 -->
<!-- Title: crypt_add_string_to_hints Pages: 1 -->
<svg width="271pt" height="66pt"
 viewBox="0.00 0.00 271.00 66.00" xmlns="http://www.w3.org/2000/svg" xmlns:xlink="http://www.w3.org/1999/xlink">
<g id="graph0" class="graph" transform="scale(1 1) rotate(0) translate(4 62)">
<title>crypt_add_string_to_hints</title>
<polygon fill="#ffffff" stroke="transparent" points="-4,4 -4,-62 267,-62 267,4 -4,4"/>
<!-- Node45724 -->
<g id="node1" class="node">
<title>Node45724</title>
<polygon fill="#bfbfbf" stroke="#000000" points="0,-14 0,-44 113,-44 113,-14 0,-14"/>
<text text-anchor="start" x="8" y="-32" font-family="Helvetica,sans-Serif" font-size="10.00" fill="#000000">crypt_add_string_to</text>
<text text-anchor="middle" x="56.5" y="-21" font-family="Helvetica,sans-Serif" font-size="10.00" fill="#000000">_hints</text>
</g>
<!-- Node45725 -->
<g id="node2" class="node">
<title>Node45725</title>
<g id="a_node2"><a xlink:href="mutt_2string_8c.html#a4c2560f787bd1226b977992c16860c98" target="_top" xlink:title="Copy a string, safely. ">
<polygon fill="#ffffff" stroke="#000000" points="165.5,-38.5 165.5,-57.5 246.5,-57.5 246.5,-38.5 165.5,-38.5"/>
<text text-anchor="middle" x="206" y="-45.5" font-family="Helvetica,sans-Serif" font-size="10.00" fill="#000000">mutt_str_dup</text>
</a>
</g>
</g>
<!-- Node45724&#45;&gt;Node45725 -->
<g id="edge1" class="edge">
<title>Node45724&#45;&gt;Node45725</title>
<path fill="none" stroke="#191970" d="M113.0195,-36.1831C126.8567,-37.9417 141.5815,-39.813 155.1355,-41.5356"/>
<polygon fill="#191970" stroke="#191970" points="154.8765,-45.0308 165.238,-42.8195 155.7591,-38.0866 154.8765,-45.0308"/>
</g>
<!-- Node45726 -->
<g id="node3" class="node">
<title>Node45726</title>
<g id="a_node3"><a xlink:href="list_8c.html#ace47a64c8bec9d1b24be6524f650293d" target="_top" xlink:title="Append a string to the end of a List. ">
<polygon fill="#ffffff" stroke="#ff0000" points="149,-.5 149,-19.5 263,-19.5 263,-.5 149,-.5"/>
<text text-anchor="middle" x="206" y="-7.5" font-family="Helvetica,sans-Serif" font-size="10.00" fill="#000000">mutt_list_insert_tail</text>
</a>
</g>
</g>
<!-- Node45724&#45;&gt;Node45726 -->
<g id="edge2" class="edge">
<title>Node45724&#45;&gt;Node45726</title>
<path fill="none" stroke="#191970" d="M113.0195,-21.8169C121.4588,-20.7444 130.2282,-19.6299 138.8608,-18.5327"/>
<polygon fill="#191970" stroke="#191970" points="139.425,-21.9893 148.9039,-17.2564 138.5424,-15.0451 139.425,-21.9893"/>
</g>
</g>
</svg>
