<?xml version="1.0" encoding="UTF-8" standalone="no"?>
<!DOCTYPE svg PUBLIC "-//W3C//DTD SVG 1.1//EN"
 "http://www.w3.org/Graphics/SVG/1.1/DTD/svg11.dtd">
<!-- Generated by graphviz version 2.40.1 (20161225.0304)
 -->
<!-- Title: mutt_get_field_full Pages: 1 -->
<svg width="294pt" height="66pt"
 viewBox="0.00 0.00 294.00 66.00" xmlns="http://www.w3.org/2000/svg" xmlns:xlink="http://www.w3.org/1999/xlink">
<g id="graph0" class="graph" transform="scale(1 1) rotate(0) translate(4 62)">
<title>mutt_get_field_full</title>
<polygon fill="#ffffff" stroke="transparent" points="-4,4 -4,-62 290,-62 290,4 -4,4"/>
<!-- Node8528 -->
<g id="node1" class="node">
<title>Node8528</title>
<polygon fill="#bfbfbf" stroke="#000000" points="0,-19.5 0,-38.5 108,-38.5 108,-19.5 0,-19.5"/>
<text text-anchor="middle" x="54" y="-26.5" font-family="Helvetica,sans-Serif" font-size="10.00" fill="#000000">mutt_get_field_full</text>
</g>
<!-- Node8529 -->
<g id="node2" class="node">
<title>Node8529</title>
<g id="a_node2"><a xlink:href="mutt_2string_8c.html#aca11f88d08a860c07419df3efb18f35a" target="_top" xlink:title="Calculate the length of a string, safely. ">
<polygon fill="#ffffff" stroke="#000000" points="169.5,-38.5 169.5,-57.5 260.5,-57.5 260.5,-38.5 169.5,-38.5"/>
<text text-anchor="middle" x="215" y="-45.5" font-family="Helvetica,sans-Serif" font-size="10.00" fill="#000000">mutt_str_strlen</text>
</a>
</g>
</g>
<!-- Node8528&#45;&gt;Node8529 -->
<g id="edge1" class="edge">
<title>Node8528&#45;&gt;Node8529</title>
<path fill="none" stroke="#191970" d="M108.0586,-35.3796C124.5504,-37.3258 142.7079,-39.4686 159.3061,-41.4274"/>
<polygon fill="#191970" stroke="#191970" points="159.0691,-44.9237 169.4104,-42.6199 159.8895,-37.9719 159.0691,-44.9237"/>
</g>
<!-- Node8530 -->
<g id="node3" class="node">
<title>Node8530</title>
<g id="a_node3"><a xlink:href="curs__lib_8c.html#ab55d2a00617af6d56a7bca37991f1a23" target="_top" xlink:title="Ask the user for a string. ">
<polygon fill="#ffffff" stroke="#ff0000" points="144,-.5 144,-19.5 286,-19.5 286,-.5 144,-.5"/>
<text text-anchor="middle" x="215" y="-7.5" font-family="Helvetica,sans-Serif" font-size="10.00" fill="#000000">mutt_buffer_get_field_full</text>
</a>
</g>
</g>
<!-- Node8528&#45;&gt;Node8530 -->
<g id="edge2" class="edge">
<title>Node8528&#45;&gt;Node8530</title>
<path fill="none" stroke="#191970" d="M108.0586,-22.6204C116.3316,-21.6441 125.0238,-20.6183 133.7281,-19.5911"/>
<polygon fill="#191970" stroke="#191970" points="134.4064,-23.0354 143.9272,-18.3875 133.5859,-16.0837 134.4064,-23.0354"/>
</g>
</g>
</svg>
