<?xml version="1.0" encoding="UTF-8" standalone="no"?>
<!DOCTYPE svg PUBLIC "-//W3C//DTD SVG 1.1//EN"
 "http://www.w3.org/Graphics/SVG/1.1/DTD/svg11.dtd">
<!-- Generated by graphviz version 2.40.1 (20161225.0304)
 -->
<!-- Title: mutt_do_pager Pages: 1 -->
<svg width="413pt" height="610pt"
 viewBox="0.00 0.00 413.00 610.00" xmlns="http://www.w3.org/2000/svg" xmlns:xlink="http://www.w3.org/1999/xlink">
<g id="graph0" class="graph" transform="scale(1 1) rotate(0) translate(4 606)">
<title>mutt_do_pager</title>
<polygon fill="#ffffff" stroke="transparent" points="-4,4 -4,-606 409,-606 409,4 -4,4"/>
<!-- Node1528 -->
<g id="node1" class="node">
<title>Node1528</title>
<polygon fill="#bfbfbf" stroke="#000000" points="0,-297.5 0,-316.5 90,-316.5 90,-297.5 0,-297.5"/>
<text text-anchor="middle" x="45" y="-304.5" font-family="Helvetica,sans-Serif" font-size="10.00" fill="#000000">mutt_do_pager</text>
</g>
<!-- Node1529 -->
<g id="node2" class="node">
<title>Node1529</title>
<g id="a_node2"><a xlink:href="mutt__window_8c.html#a90c890d7906f49dd9fbb1f66db7d3b89" target="_top" xlink:title="Create a new Window. ">
<polygon fill="#ffffff" stroke="#ff0000" points="148.5,-582.5 148.5,-601.5 256.5,-601.5 256.5,-582.5 148.5,-582.5"/>
<text text-anchor="middle" x="202.5" y="-589.5" font-family="Helvetica,sans-Serif" font-size="10.00" fill="#000000">mutt_window_new</text>
</a>
</g>
</g>
<!-- Node1528&#45;&gt;Node1529 -->
<g id="edge1" class="edge">
<title>Node1528&#45;&gt;Node1529</title>
<path fill="none" stroke="#191970" d="M46.6423,-316.6849C54.1806,-360.0384 86.785,-535.7786 126,-573 129.8105,-576.6168 134.1985,-579.5761 138.9052,-581.9938"/>
<polygon fill="#191970" stroke="#191970" points="137.7105,-585.2895 148.281,-586.006 140.4645,-578.854 137.7105,-585.2895"/>
</g>
<!-- Node1533 -->
<g id="node3" class="node">
<title>Node1533</title>
<g id="a_node3"><a xlink:href="mutt__window_8c.html#a5e30d98341ba1a4b358e4add06c97597" target="_top" xlink:title="Add a child to Window. ">
<polygon fill="#ffffff" stroke="#ff0000" points="135.5,-544.5 135.5,-563.5 269.5,-563.5 269.5,-544.5 135.5,-544.5"/>
<text text-anchor="middle" x="202.5" y="-551.5" font-family="Helvetica,sans-Serif" font-size="10.00" fill="#000000">mutt_window_add_child</text>
</a>
</g>
</g>
<!-- Node1528&#45;&gt;Node1533 -->
<g id="edge2" class="edge">
<title>Node1528&#45;&gt;Node1533</title>
<path fill="none" stroke="#191970" d="M45.3397,-316.514C47.1207,-351.4039 58.1551,-473.4929 126,-535 127.7299,-536.5683 129.569,-538.0119 131.4951,-539.3406"/>
<polygon fill="#191970" stroke="#191970" points="130.0118,-542.5244 140.4284,-544.4593 133.4919,-536.4508 130.0118,-542.5244"/>
</g>
<!-- Node1537 -->
<g id="node4" class="node">
<title>Node1537</title>
<g id="a_node4"><a xlink:href="mutt_2notify_8c.html#a736bd423ad08e1c102f992afe6c97213" target="_top" xlink:title="Add an observer to an object. ">
<polygon fill="#ffffff" stroke="#ff0000" points="144.5,-506.5 144.5,-525.5 260.5,-525.5 260.5,-506.5 144.5,-506.5"/>
<text text-anchor="middle" x="202.5" y="-513.5" font-family="Helvetica,sans-Serif" font-size="10.00" fill="#000000">notify_observer_add</text>
</a>
</g>
</g>
<!-- Node1528&#45;&gt;Node1537 -->
<g id="edge3" class="edge">
<title>Node1528&#45;&gt;Node1537</title>
<path fill="none" stroke="#191970" d="M46.1085,-316.6458C50.2312,-347.9005 67.5871,-447.235 126,-497 128.7393,-499.3338 131.7231,-501.3886 134.8722,-503.1971"/>
<polygon fill="#191970" stroke="#191970" points="133.5925,-506.466 144.1189,-507.6689 136.6402,-500.1642 133.5925,-506.466"/>
</g>
<!-- Node1538 -->
<g id="node5" class="node">
<title>Node1538</title>
<g id="a_node5"><a xlink:href="curs__lib_8c.html#ac87211c8988ef0c84a11c4c11690a9ff" target="_top" xlink:title="Listen for config changes affecting the dopager menus &#45; Implements observer_t. ">
<polygon fill="#ffffff" stroke="#ff0000" points="126,-468.5 126,-487.5 279,-487.5 279,-468.5 126,-468.5"/>
<text text-anchor="middle" x="202.5" y="-475.5" font-family="Helvetica,sans-Serif" font-size="10.00" fill="#000000">mutt_dlg_dopager_observer</text>
</a>
</g>
</g>
<!-- Node1528&#45;&gt;Node1538 -->
<g id="edge4" class="edge">
<title>Node1528&#45;&gt;Node1538</title>
<path fill="none" stroke="#191970" d="M47.5271,-316.5188C54.9346,-342.5672 79.086,-415.6271 126,-454 131.2121,-458.2632 137.186,-461.7722 143.4478,-464.6598"/>
<polygon fill="#191970" stroke="#191970" points="142.1913,-467.9272 152.7727,-468.4613 144.8339,-461.4451 142.1913,-467.9272"/>
</g>
<!-- Node1539 -->
<g id="node6" class="node">
<title>Node1539</title>
<g id="a_node6"><a xlink:href="mutt_2string_8c.html#a6b6a50296dd2a31863a43379ef4a343d" target="_top" xlink:title="Compare two strings. ">
<polygon fill="#ffffff" stroke="#ff0000" points="315,-449.5 315,-468.5 405,-468.5 405,-449.5 315,-449.5"/>
<text text-anchor="middle" x="360" y="-456.5" font-family="Helvetica,sans-Serif" font-size="10.00" fill="#000000">mutt_str_equal</text>
</a>
</g>
</g>
<!-- Node1528&#45;&gt;Node1539 -->
<g id="edge7" class="edge">
<title>Node1528&#45;&gt;Node1539</title>
<path fill="none" stroke="#191970" d="M48.7348,-316.6164C58.0052,-339.0834 84.3702,-395.073 126,-421 155.0622,-439.0999 245.1845,-449.7236 304.7256,-454.9438"/>
<polygon fill="#191970" stroke="#191970" points="304.4735,-458.435 314.7344,-455.796 305.0674,-451.4602 304.4735,-458.435"/>
</g>
<!-- Node1569 -->
<g id="node7" class="node">
<title>Node1569</title>
<g id="a_node7"><a xlink:href="dialog_8c.html#a7c4678f81d8185d89e16e4befe94bb08" target="_top" xlink:title="Display a Window to the user. ">
<polygon fill="#ffffff" stroke="#ff0000" points="165,-392.5 165,-411.5 240,-411.5 240,-392.5 165,-392.5"/>
<text text-anchor="middle" x="202.5" y="-399.5" font-family="Helvetica,sans-Serif" font-size="10.00" fill="#000000">dialog_push</text>
</a>
</g>
</g>
<!-- Node1528&#45;&gt;Node1569 -->
<g id="edge6" class="edge">
<title>Node1528&#45;&gt;Node1569</title>
<path fill="none" stroke="#191970" d="M52.3694,-316.5694C65.4008,-332.8047 94.1593,-365.6672 126,-383 134.9243,-387.858 145.1073,-391.4964 155.0679,-394.2138"/>
<polygon fill="#191970" stroke="#191970" points="154.3528,-397.6422 164.8997,-396.6354 156.0269,-390.8454 154.3528,-397.6422"/>
</g>
<!-- Node1573 -->
<g id="node8" class="node">
<title>Node1573</title>
<g id="a_node8"><a xlink:href="pager_8c.html#a4cc11143557f95ded6a80f3cffff4483" target="_top" xlink:title="Display a file, or help, in a window. ">
<polygon fill="#ffffff" stroke="#000000" points="166,-354.5 166,-373.5 239,-373.5 239,-354.5 166,-354.5"/>
<text text-anchor="middle" x="202.5" y="-361.5" font-family="Helvetica,sans-Serif" font-size="10.00" fill="#000000">mutt_pager</text>
</a>
</g>
</g>
<!-- Node1528&#45;&gt;Node1573 -->
<g id="edge8" class="edge">
<title>Node1528&#45;&gt;Node1573</title>
<path fill="none" stroke="#191970" d="M62.9088,-316.644C79.0449,-325.0302 103.6031,-337.051 126,-345 135.5757,-348.3986 146.0321,-351.424 156.0529,-354.0069"/>
<polygon fill="#191970" stroke="#191970" points="155.3315,-357.4339 165.8796,-356.4397 157.0138,-350.6391 155.3315,-357.4339"/>
</g>
<!-- Node1574 -->
<g id="node9" class="node">
<title>Node1574</title>
<g id="a_node9"><a xlink:href="pool_8c.html#a2129d5ea0085753afdd37cf62161845d" target="_top" xlink:title="Get a Buffer from the pool. ">
<polygon fill="#ffffff" stroke="#ff0000" points="142,-316.5 142,-335.5 263,-335.5 263,-316.5 142,-316.5"/>
<text text-anchor="middle" x="202.5" y="-323.5" font-family="Helvetica,sans-Serif" font-size="10.00" fill="#000000">mutt_buffer_pool_get</text>
</a>
</g>
</g>
<!-- Node1528&#45;&gt;Node1574 -->
<g id="edge9" class="edge">
<title>Node1528&#45;&gt;Node1574</title>
<path fill="none" stroke="#191970" d="M90.1332,-312.4446C103.0801,-314.0065 117.5194,-315.7484 131.6188,-317.4493"/>
<polygon fill="#191970" stroke="#191970" points="131.4519,-320.9544 141.7991,-318.6774 132.2903,-314.0048 131.4519,-320.9544"/>
</g>
<!-- Node1579 -->
<g id="node10" class="node">
<title>Node1579</title>
<g id="a_node10"><a xlink:href="curs__lib_8c.html#acd14d074d8b9e6cb21e851dd573cdec2" target="_top" xlink:title="Shutdown curses/slang. ">
<polygon fill="#ffffff" stroke="#ff0000" points="162.5,-278.5 162.5,-297.5 242.5,-297.5 242.5,-278.5 162.5,-278.5"/>
<text text-anchor="middle" x="202.5" y="-285.5" font-family="Helvetica,sans-Serif" font-size="10.00" fill="#000000">mutt_endwin</text>
</a>
</g>
</g>
<!-- Node1528&#45;&gt;Node1579 -->
<g id="edge10" class="edge">
<title>Node1528&#45;&gt;Node1579</title>
<path fill="none" stroke="#191970" d="M90.1332,-301.5554C109.5624,-299.2115 132.3526,-296.4622 152.3114,-294.0545"/>
<polygon fill="#191970" stroke="#191970" points="152.9489,-297.5031 162.4577,-292.8305 152.1105,-290.5534 152.9489,-297.5031"/>
</g>
<!-- Node1581 -->
<g id="node11" class="node">
<title>Node1581</title>
<g id="a_node11"><a xlink:href="file_8c.html#aea349ade5677e5139606fdc8b44c8e00" target="_top" xlink:title="Replace s in a string with a filename. ">
<polygon fill="#ffffff" stroke="#ff0000" points="135,-229 135,-259 270,-259 270,-229 135,-229"/>
<text text-anchor="start" x="143" y="-247" font-family="Helvetica,sans-Serif" font-size="10.00" fill="#000000">mutt_buffer_file_expand</text>
<text text-anchor="middle" x="202.5" y="-236" font-family="Helvetica,sans-Serif" font-size="10.00" fill="#000000">_fmt_quote</text>
</a>
</g>
</g>
<!-- Node1528&#45;&gt;Node1581 -->
<g id="edge11" class="edge">
<title>Node1528&#45;&gt;Node1581</title>
<path fill="none" stroke="#191970" d="M63.6965,-297.4265C79.9314,-289.3084 104.1944,-277.6401 126,-269 131.7115,-266.7369 137.7177,-264.5137 143.749,-262.3835"/>
<polygon fill="#191970" stroke="#191970" points="144.8967,-265.6901 153.2085,-259.1202 142.6138,-259.0728 144.8967,-265.6901"/>
</g>
<!-- Node1586 -->
<g id="node12" class="node">
<title>Node1586</title>
<g id="a_node12"><a xlink:href="protos_8h.html#aa1d4ad04b000036513ca3f741059942c" target="_top" xlink:title="Run an external command. ">
<polygon fill="#ffffff" stroke="#ff0000" points="162,-190.5 162,-209.5 243,-209.5 243,-190.5 162,-190.5"/>
<text text-anchor="middle" x="202.5" y="-197.5" font-family="Helvetica,sans-Serif" font-size="10.00" fill="#000000">mutt_system</text>
</a>
</g>
</g>
<!-- Node1528&#45;&gt;Node1586 -->
<g id="edge12" class="edge">
<title>Node1528&#45;&gt;Node1586</title>
<path fill="none" stroke="#191970" d="M51.0894,-297.4972C63.1314,-279.5007 91.8052,-240.4233 126,-220 133.9626,-215.2442 143.0507,-211.6057 152.1155,-208.8259"/>
<polygon fill="#191970" stroke="#191970" points="153.1766,-212.164 161.8883,-206.1343 151.3179,-205.4153 153.1766,-212.164"/>
</g>
<!-- Node1966 -->
<g id="node13" class="node">
<title>Node1966</title>
<g id="a_node13"><a xlink:href="file_8c.html#ae57463c2854c006a3c67b78736e9056e" target="_top" xlink:title="Delete a file, carefully. ">
<polygon fill="#ffffff" stroke="#ff0000" points="155,-152.5 155,-171.5 250,-171.5 250,-152.5 155,-152.5"/>
<text text-anchor="middle" x="202.5" y="-159.5" font-family="Helvetica,sans-Serif" font-size="10.00" fill="#000000">mutt_file_unlink</text>
</a>
</g>
</g>
<!-- Node1528&#45;&gt;Node1966 -->
<g id="edge13" class="edge">
<title>Node1528&#45;&gt;Node1966</title>
<path fill="none" stroke="#191970" d="M48.3296,-297.3389C57.0418,-273.559 82.868,-211.8868 126,-181 131.6813,-176.9316 138.1398,-173.7303 144.8394,-171.212"/>
<polygon fill="#191970" stroke="#191970" points="146.3345,-174.4065 154.7651,-167.9897 144.173,-167.7486 146.3345,-174.4065"/>
</g>
<!-- Node1684 -->
<g id="node14" class="node">
<title>Node1684</title>
<g id="a_node14"><a xlink:href="pool_8c.html#a08b48e2ac8849341888ee7429cc5093c" target="_top" xlink:title="Free a Buffer from the pool. ">
<polygon fill="#ffffff" stroke="#ff0000" points="132,-114.5 132,-133.5 273,-133.5 273,-114.5 132,-114.5"/>
<text text-anchor="middle" x="202.5" y="-121.5" font-family="Helvetica,sans-Serif" font-size="10.00" fill="#000000">mutt_buffer_pool_release</text>
</a>
</g>
</g>
<!-- Node1528&#45;&gt;Node1684 -->
<g id="edge14" class="edge">
<title>Node1528&#45;&gt;Node1684</title>
<path fill="none" stroke="#191970" d="M46.7902,-297.4738C52.6236,-269.1818 73.8041,-185.014 126,-143 128.0987,-141.3107 130.3271,-139.7688 132.6528,-138.3617"/>
<polygon fill="#191970" stroke="#191970" points="134.7188,-141.237 142.0369,-133.5757 131.5384,-135.0011 134.7188,-141.237"/>
</g>
<!-- Node1967 -->
<g id="node15" class="node">
<title>Node1967</title>
<g id="a_node15"><a xlink:href="dialog_8c.html#a82616808183352fb315931b2bb3518c0" target="_top" xlink:title="Hide a Window from the user. ">
<polygon fill="#ffffff" stroke="#ff0000" points="167.5,-76.5 167.5,-95.5 237.5,-95.5 237.5,-76.5 167.5,-76.5"/>
<text text-anchor="middle" x="202.5" y="-83.5" font-family="Helvetica,sans-Serif" font-size="10.00" fill="#000000">dialog_pop</text>
</a>
</g>
</g>
<!-- Node1528&#45;&gt;Node1967 -->
<g id="edge15" class="edge">
<title>Node1528&#45;&gt;Node1967</title>
<path fill="none" stroke="#191970" d="M45.8532,-297.2208C49.2442,-264.566 64.7365,-158.3475 126,-105 134.7804,-97.3542 146.1739,-92.6918 157.4739,-89.8744"/>
<polygon fill="#191970" stroke="#191970" points="158.2256,-93.2931 167.3121,-87.8447 156.8112,-86.4375 158.2256,-93.2931"/>
</g>
<!-- Node1968 -->
<g id="node16" class="node">
<title>Node1968</title>
<g id="a_node16"><a xlink:href="mutt_2notify_8c.html#a244545a719099431dda975083aef827e" target="_top" xlink:title="Remove an observer from an object. ">
<polygon fill="#ffffff" stroke="#000000" points="134.5,-38.5 134.5,-57.5 270.5,-57.5 270.5,-38.5 134.5,-38.5"/>
<text text-anchor="middle" x="202.5" y="-45.5" font-family="Helvetica,sans-Serif" font-size="10.00" fill="#000000">notify_observer_remove</text>
</a>
</g>
</g>
<!-- Node1528&#45;&gt;Node1968 -->
<g id="edge16" class="edge">
<title>Node1528&#45;&gt;Node1968</title>
<path fill="none" stroke="#191970" d="M46.9496,-297.449C55.3946,-256.9722 90.0164,-100.1458 126,-67 127.6765,-65.4557 129.4587,-64.0319 131.3257,-62.7195"/>
<polygon fill="#191970" stroke="#191970" points="133.1265,-65.7211 139.9905,-57.6504 129.5917,-59.6791 133.1265,-65.7211"/>
</g>
<!-- Node1969 -->
<g id="node17" class="node">
<title>Node1969</title>
<g id="a_node17"><a xlink:href="mutt__window_8c.html#a52ff022e671a7fbdec773fc2d24e0e15" target="_top" xlink:title="Free a Window and its children. ">
<polygon fill="#ffffff" stroke="#ff0000" points="149,-.5 149,-19.5 256,-19.5 256,-.5 149,-.5"/>
<text text-anchor="middle" x="202.5" y="-7.5" font-family="Helvetica,sans-Serif" font-size="10.00" fill="#000000">mutt_window_free</text>
</a>
</g>
</g>
<!-- Node1528&#45;&gt;Node1969 -->
<g id="edge17" class="edge">
<title>Node1528&#45;&gt;Node1969</title>
<path fill="none" stroke="#191970" d="M46.4815,-297.4814C53.5522,-253.2375 85.2165,-68.1809 126,-29 129.8487,-25.3025 134.3003,-22.2906 139.0816,-19.8413"/>
<polygon fill="#191970" stroke="#191970" points="140.7763,-22.9241 148.6111,-15.792 138.0388,-16.4816 140.7763,-22.9241"/>
</g>
<!-- Node1538&#45;&gt;Node1539 -->
<g id="edge5" class="edge">
<title>Node1538&#45;&gt;Node1539</title>
<path fill="none" stroke="#191970" d="M279.4044,-468.7226C287.9696,-467.6894 296.5639,-466.6526 304.7817,-465.6613"/>
<polygon fill="#191970" stroke="#191970" points="305.4503,-469.1061 314.9591,-464.4335 304.6118,-462.1565 305.4503,-469.1061"/>
</g>
</g>
</svg>
