<?xml version="1.0" encoding="UTF-8" standalone="no"?>
<!DOCTYPE svg PUBLIC "-//W3C//DTD SVG 1.1//EN"
 "http://www.w3.org/Graphics/SVG/1.1/DTD/svg11.dtd">
<!-- Generated by graphviz version 2.44.0 (0)
 -->
<!-- Title: mutt_yesorno Pages: 1 -->
<svg width="554pt" height="648pt"
 viewBox="0.00 0.00 554.00 648.00" xmlns="http://www.w3.org/2000/svg" xmlns:xlink="http://www.w3.org/1999/xlink">
<g id="graph0" class="graph" transform="scale(1 1) rotate(0) translate(4 644)">
<title>mutt_yesorno</title>
<polygon fill="white" stroke="transparent" points="-4,4 -4,-644 550,-644 550,4 -4,4"/>
<!-- Node1 -->
<g id="node1" class="node">
<title>Node1</title>
<g id="a_node1"><a xlink:title="Ask the user a Yes/No question.">
<polygon fill="#bfbfbf" stroke="black" points="0,-316.5 0,-335.5 75,-335.5 75,-316.5 0,-316.5"/>
<text text-anchor="middle" x="37.5" y="-323.5" font-family="Helvetica" font-size="10.00">mutt_yesorno</text>
</a>
</g>
</g>
<!-- Node2 -->
<g id="node2" class="node">
<title>Node2</title>
<g id="a_node2"><a xlink:href="curs__lib_8c.html#ad4d7b60fedea755304f7d72461d860ca" target="_top" xlink:title="Irritate the user.">
<polygon fill="white" stroke="black" points="147.5,-620.5 147.5,-639.5 209.5,-639.5 209.5,-620.5 147.5,-620.5"/>
<text text-anchor="middle" x="178.5" y="-627.5" font-family="Helvetica" font-size="10.00">mutt_beep</text>
</a>
</g>
</g>
<!-- Node1&#45;&gt;Node2 -->
<g id="edge1" class="edge">
<title>Node1&#45;&gt;Node2</title>
<path fill="none" stroke="midnightblue" d="M38,-335.67C36.53,-374.9 36.26,-523.97 111,-606 118.01,-613.69 127.66,-618.92 137.44,-622.47"/>
<polygon fill="midnightblue" stroke="midnightblue" points="136.59,-625.87 147.18,-625.5 138.67,-619.19 136.59,-625.87"/>
</g>
<!-- Node3 -->
<g id="node3" class="node">
<title>Node3</title>
<g id="a_node3"><a xlink:href="mutt__logging_8c.html#af068b3f524a31fad293b2fb61dfc4534" target="_top" xlink:title="Clear the message line (bottom line of screen)">
<polygon fill="white" stroke="red" points="135,-544.5 135,-563.5 222,-563.5 222,-544.5 135,-544.5"/>
<text text-anchor="middle" x="178.5" y="-551.5" font-family="Helvetica" font-size="10.00">mutt_clear_error</text>
</a>
</g>
</g>
<!-- Node1&#45;&gt;Node3 -->
<g id="edge2" class="edge">
<title>Node1&#45;&gt;Node3</title>
<path fill="none" stroke="midnightblue" d="M39.1,-335.61C41.6,-367.76 54,-472.72 111,-530 115.22,-534.24 120.23,-537.73 125.59,-540.61"/>
<polygon fill="midnightblue" stroke="midnightblue" points="124.32,-543.87 134.86,-544.9 127.26,-537.52 124.32,-543.87"/>
</g>
<!-- Node8 -->
<g id="node4" class="node">
<title>Node8</title>
<g id="a_node4"><a xlink:href="mutt__window_8c.html#adb0d282e3a7b3cf644485c1aab14774f" target="_top" xlink:title="Clear a row of a Window.">
<polygon fill="white" stroke="black" points="282,-525.5 282,-544.5 398,-544.5 398,-525.5 282,-525.5"/>
<text text-anchor="middle" x="340" y="-532.5" font-family="Helvetica" font-size="10.00">mutt_window_clearline</text>
</a>
</g>
</g>
<!-- Node1&#45;&gt;Node8 -->
<g id="edge16" class="edge">
<title>Node1&#45;&gt;Node8</title>
<path fill="none" stroke="midnightblue" d="M39.62,-335.75C43.5,-364.69 59.1,-450.65 111,-492 135.37,-511.42 213.56,-523.07 271.61,-529.25"/>
<polygon fill="midnightblue" stroke="midnightblue" points="271.53,-532.76 281.84,-530.31 272.25,-525.8 271.53,-532.76"/>
</g>
<!-- Node9 -->
<g id="node5" class="node">
<title>Node9</title>
<g id="a_node5"><a xlink:href="mutt__window_8c.html#ae2ba61d0bc2413c09e6a12f1fe345ab4" target="_top" xlink:title="Clear to the end of the line.">
<polygon fill="white" stroke="black" points="434,-544.5 434,-563.5 546,-563.5 546,-544.5 434,-544.5"/>
<text text-anchor="middle" x="490" y="-551.5" font-family="Helvetica" font-size="10.00">mutt_window_clrtoeol</text>
</a>
</g>
</g>
<!-- Node1&#45;&gt;Node9 -->
<g id="edge17" class="edge">
<title>Node1&#45;&gt;Node9</title>
<path fill="none" stroke="midnightblue" d="M39.82,-335.77C45.7,-377.88 71.11,-543.14 111,-573 160.18,-609.82 339.19,-582.71 432.13,-565.42"/>
<polygon fill="midnightblue" stroke="midnightblue" points="433.02,-568.82 442.2,-563.53 431.73,-561.94 433.02,-568.82"/>
</g>
<!-- Node10 -->
<g id="node6" class="node">
<title>Node10</title>
<g id="a_node6"><a xlink:href="mutt__window_8c.html#a882e79c6c69caad2eb7588c1f542767b" target="_top" xlink:title="Move the cursor in a Window.">
<polygon fill="white" stroke="black" points="438.5,-487.5 438.5,-506.5 541.5,-506.5 541.5,-487.5 438.5,-487.5"/>
<text text-anchor="middle" x="490" y="-494.5" font-family="Helvetica" font-size="10.00">mutt_window_move</text>
</a>
</g>
</g>
<!-- Node1&#45;&gt;Node10 -->
<g id="edge18" class="edge">
<title>Node1&#45;&gt;Node10</title>
<path fill="none" stroke="midnightblue" d="M40.55,-335.81C46.42,-361.18 65.86,-429.04 111,-459 161.58,-492.57 334.9,-497.51 428.27,-497.64"/>
<polygon fill="midnightblue" stroke="midnightblue" points="428.42,-501.14 438.42,-497.63 428.42,-494.14 428.42,-501.14"/>
</g>
<!-- Node11 -->
<g id="node7" class="node">
<title>Node11</title>
<g id="a_node7"><a xlink:href="mutt__curses_8c.html#a5a22f531a2d32b76760dc8a77501e988" target="_top" xlink:title="Set the current colour for text.">
<polygon fill="white" stroke="black" points="120.5,-430.5 120.5,-449.5 236.5,-449.5 236.5,-430.5 120.5,-430.5"/>
<text text-anchor="middle" x="178.5" y="-437.5" font-family="Helvetica" font-size="10.00">mutt_curses_set_color</text>
</a>
</g>
</g>
<!-- Node1&#45;&gt;Node11 -->
<g id="edge6" class="edge">
<title>Node1&#45;&gt;Node11</title>
<path fill="none" stroke="midnightblue" d="M43.19,-335.73C53.01,-355.02 77.58,-398.2 111,-421 113.92,-422.99 117.04,-424.77 120.28,-426.37"/>
<polygon fill="midnightblue" stroke="midnightblue" points="119.1,-429.67 129.67,-430.4 121.86,-423.24 119.1,-429.67"/>
</g>
<!-- Node12 -->
<g id="node8" class="node">
<title>Node12</title>
<g id="a_node8"><a xlink:href="curs__lib_8c.html#a6bde4da049798871747b54bff8d83b4f" target="_top" xlink:title="Read a character from the input buffer.">
<polygon fill="white" stroke="red" points="146,-392.5 146,-411.5 211,-411.5 211,-392.5 146,-392.5"/>
<text text-anchor="middle" x="178.5" y="-399.5" font-family="Helvetica" font-size="10.00">mutt_getch</text>
</a>
</g>
</g>
<!-- Node1&#45;&gt;Node12 -->
<g id="edge7" class="edge">
<title>Node1&#45;&gt;Node12</title>
<path fill="none" stroke="midnightblue" d="M48.41,-335.9C61.61,-348.55 86.19,-370.33 111,-383 118.76,-386.97 127.47,-390.21 135.96,-392.82"/>
<polygon fill="midnightblue" stroke="midnightblue" points="135.19,-396.24 145.76,-395.61 137.1,-389.51 135.19,-396.24"/>
</g>
<!-- Node23 -->
<g id="node9" class="node">
<title>Node23</title>
<g id="a_node9"><a xlink:href="curs__lib_8c.html#a07f104cc4b27d47d46f9a83993acc5ef" target="_top" xlink:title="Set the getch() timeout.">
<polygon fill="white" stroke="black" points="127,-354.5 127,-373.5 230,-373.5 230,-354.5 127,-354.5"/>
<text text-anchor="middle" x="178.5" y="-361.5" font-family="Helvetica" font-size="10.00">mutt_getch_timeout</text>
</a>
</g>
</g>
<!-- Node1&#45;&gt;Node23 -->
<g id="edge8" class="edge">
<title>Node1&#45;&gt;Node23</title>
<path fill="none" stroke="midnightblue" d="M73.58,-335.59C91.52,-340.49 113.56,-346.52 132.72,-351.76"/>
<polygon fill="midnightblue" stroke="midnightblue" points="131.87,-355.15 142.44,-354.41 133.71,-348.4 131.87,-355.15"/>
</g>
<!-- Node25 -->
<g id="node10" class="node">
<title>Node25</title>
<g id="a_node10"><a xlink:href="menu_8c.html#a37b5dcb140bd203a9f32e02d25137fb4" target="_top" xlink:title="Redraw the current menu.">
<polygon fill="white" stroke="red" points="111,-316.5 111,-335.5 246,-335.5 246,-316.5 111,-316.5"/>
<text text-anchor="middle" x="178.5" y="-323.5" font-family="Helvetica" font-size="10.00">mutt_menu_current_redraw</text>
</a>
</g>
</g>
<!-- Node1&#45;&gt;Node25 -->
<g id="edge9" class="edge">
<title>Node1&#45;&gt;Node25</title>
<path fill="none" stroke="midnightblue" d="M75.02,-326C83.03,-326 91.79,-326 100.72,-326"/>
<polygon fill="midnightblue" stroke="midnightblue" points="100.84,-329.5 110.84,-326 100.84,-322.5 100.84,-329.5"/>
</g>
<!-- Node7 -->
<g id="node11" class="node">
<title>Node7</title>
<g id="a_node11"><a xlink:href="curs__lib_8c.html#a99dc8e687f3d5688695d0d7a1bab3c3f" target="_top" xlink:title="Force a refresh of the screen.">
<polygon fill="white" stroke="black" points="143,-278.5 143,-297.5 214,-297.5 214,-278.5 143,-278.5"/>
<text text-anchor="middle" x="178.5" y="-285.5" font-family="Helvetica" font-size="10.00">mutt_refresh</text>
</a>
</g>
</g>
<!-- Node1&#45;&gt;Node7 -->
<g id="edge10" class="edge">
<title>Node1&#45;&gt;Node7</title>
<path fill="none" stroke="midnightblue" d="M73.58,-316.41C91.66,-311.47 113.9,-305.39 133.15,-300.12"/>
<polygon fill="midnightblue" stroke="midnightblue" points="134.19,-303.47 142.92,-297.45 132.35,-296.72 134.19,-303.47"/>
</g>
<!-- Node71 -->
<g id="node12" class="node">
<title>Node71</title>
<g id="a_node12"><a xlink:href="mutt__curses_8h.html#a1f18053a2fadd1f5c2f45382e3165dcb" target="_top" xlink:title="Update NeoMutt&#39;s opinion about the window size (CURSES)">
<polygon fill="white" stroke="red" points="128,-240.5 128,-259.5 229,-259.5 229,-240.5 128,-240.5"/>
<text text-anchor="middle" x="178.5" y="-247.5" font-family="Helvetica" font-size="10.00">mutt_resize_screen</text>
</a>
</g>
</g>
<!-- Node1&#45;&gt;Node71 -->
<g id="edge11" class="edge">
<title>Node1&#45;&gt;Node71</title>
<path fill="none" stroke="midnightblue" d="M48.41,-316.1C61.61,-303.45 86.19,-281.67 111,-269 115.5,-266.7 120.31,-264.65 125.21,-262.82"/>
<polygon fill="midnightblue" stroke="midnightblue" points="126.37,-266.12 134.7,-259.57 124.1,-259.5 126.37,-266.12"/>
</g>
<!-- Node97 -->
<g id="node13" class="node">
<title>Node97</title>
<g id="a_node13"><a xlink:href="mutt_2string_8c.html#a4388c16988fac9a7596dee4d4af89595" target="_top" xlink:title=" ">
<polygon fill="white" stroke="red" points="133.5,-202.5 133.5,-221.5 223.5,-221.5 223.5,-202.5 133.5,-202.5"/>
<text text-anchor="middle" x="178.5" y="-209.5" font-family="Helvetica" font-size="10.00">mutt_str_asprintf</text>
</a>
</g>
</g>
<!-- Node1&#45;&gt;Node97 -->
<g id="edge12" class="edge">
<title>Node1&#45;&gt;Node97</title>
<path fill="none" stroke="midnightblue" d="M43.19,-316.27C53.01,-296.98 77.58,-253.8 111,-231 115,-228.27 119.4,-225.93 123.96,-223.92"/>
<polygon fill="midnightblue" stroke="midnightblue" points="125.42,-227.11 133.5,-220.25 122.91,-220.57 125.42,-227.11"/>
</g>
<!-- Node36 -->
<g id="node14" class="node">
<title>Node36</title>
<g id="a_node14"><a xlink:href="curs__lib_8c.html#aeedb58ae252fce936c20c5f66684d80c" target="_top" xlink:title="Measure a string&#39;s width in screen cells.">
<polygon fill="white" stroke="red" points="140,-164.5 140,-183.5 217,-183.5 217,-164.5 140,-164.5"/>
<text text-anchor="middle" x="178.5" y="-171.5" font-family="Helvetica" font-size="10.00">mutt_strwidth</text>
</a>
</g>
</g>
<!-- Node1&#45;&gt;Node36 -->
<g id="edge13" class="edge">
<title>Node1&#45;&gt;Node36</title>
<path fill="none" stroke="midnightblue" d="M40.97,-316.28C47.74,-291.71 68.91,-226.69 111,-193 116.67,-188.46 123.38,-185.01 130.31,-182.38"/>
<polygon fill="midnightblue" stroke="midnightblue" points="131.4,-185.7 139.83,-179.28 129.24,-179.04 131.4,-185.7"/>
</g>
<!-- Node46 -->
<g id="node15" class="node">
<title>Node46</title>
<g id="a_node15"><a xlink:href="mutt__window_8c.html#a4c7adbdc51647b99630760743b964661" target="_top" xlink:title="Write a partial string to a Window.">
<polygon fill="white" stroke="black" points="122.5,-126.5 122.5,-145.5 234.5,-145.5 234.5,-126.5 122.5,-126.5"/>
<text text-anchor="middle" x="178.5" y="-133.5" font-family="Helvetica" font-size="10.00">mutt_window_addnstr</text>
</a>
</g>
</g>
<!-- Node1&#45;&gt;Node46 -->
<g id="edge14" class="edge">
<title>Node1&#45;&gt;Node46</title>
<path fill="none" stroke="midnightblue" d="M39.71,-316.18C43.83,-287.01 60.03,-200.07 111,-155 112.93,-153.29 115,-151.74 117.18,-150.33"/>
<polygon fill="midnightblue" stroke="midnightblue" points="118.9,-153.38 126.02,-145.53 115.56,-147.22 118.9,-153.38"/>
</g>
<!-- Node40 -->
<g id="node16" class="node">
<title>Node40</title>
<g id="a_node16"><a xlink:href="mutt__window_8c.html#a6066d3d1f3ef4001aea575d0abe012b2" target="_top" xlink:title="Write a string to a Window.">
<polygon fill="white" stroke="black" points="125,-88.5 125,-107.5 232,-107.5 232,-88.5 125,-88.5"/>
<text text-anchor="middle" x="178.5" y="-95.5" font-family="Helvetica" font-size="10.00">mutt_window_addstr</text>
</a>
</g>
</g>
<!-- Node1&#45;&gt;Node40 -->
<g id="edge15" class="edge">
<title>Node1&#45;&gt;Node40</title>
<path fill="none" stroke="midnightblue" d="M38.84,-316.46C40.55,-283.6 50.73,-174.01 111,-117 112.67,-115.42 114.45,-113.98 116.33,-112.65"/>
<polygon fill="midnightblue" stroke="midnightblue" points="118.21,-115.61 125.1,-107.56 114.69,-109.56 118.21,-115.61"/>
</g>
<!-- Node98 -->
<g id="node17" class="node">
<title>Node98</title>
<g id="a_node17"><a xlink:href="mutt__window_8c.html#a4160396432c4dee9830c8ca80a0c1d93" target="_top" xlink:title="Resize the Message Window.">
<polygon fill="white" stroke="red" points="125.5,-39 125.5,-69 231.5,-69 231.5,-39 125.5,-39"/>
<text text-anchor="start" x="133.5" y="-57" font-family="Helvetica" font-size="10.00">mutt_window_reflow</text>
<text text-anchor="middle" x="178.5" y="-46" font-family="Helvetica" font-size="10.00">_message_rows</text>
</a>
</g>
</g>
<!-- Node1&#45;&gt;Node98 -->
<g id="edge19" class="edge">
<title>Node1&#45;&gt;Node98</title>
<path fill="none" stroke="midnightblue" d="M38.44,-316.01C38.75,-279.31 44.71,-150.4 111,-79 112.8,-77.06 114.76,-75.27 116.85,-73.62"/>
<polygon fill="midnightblue" stroke="midnightblue" points="119.05,-76.37 125.44,-67.92 115.18,-70.53 119.05,-76.37"/>
</g>
<!-- Node99 -->
<g id="node18" class="node">
<title>Node99</title>
<g id="a_node18"><a xlink:href="curs__lib_8c.html#a48a9fd66de2ef76e2b72704badd3c40b" target="_top" xlink:title="Work out how to truncate a widechar string.">
<polygon fill="white" stroke="red" points="135,-0.5 135,-19.5 222,-19.5 222,-0.5 135,-0.5"/>
<text text-anchor="middle" x="178.5" y="-7.5" font-family="Helvetica" font-size="10.00">mutt_wstr_trunc</text>
</a>
</g>
</g>
<!-- Node1&#45;&gt;Node99 -->
<g id="edge20" class="edge">
<title>Node1&#45;&gt;Node99</title>
<path fill="none" stroke="midnightblue" d="M39.58,-316.19C44.86,-269.72 69.51,-72.13 111,-29 115.11,-24.73 120.1,-21.4 125.48,-18.81"/>
<polygon fill="midnightblue" stroke="midnightblue" points="126.82,-22.04 134.83,-15.1 124.24,-15.54 126.82,-22.04"/>
</g>
<!-- Node3&#45;&gt;Node8 -->
<g id="edge3" class="edge">
<title>Node3&#45;&gt;Node8</title>
<path fill="none" stroke="midnightblue" d="M222.24,-548.91C237.37,-547.11 254.79,-545.03 271.47,-543.04"/>
<polygon fill="midnightblue" stroke="midnightblue" points="272.22,-546.48 281.74,-541.82 271.39,-539.53 272.22,-546.48"/>
</g>
<!-- Node8&#45;&gt;Node9 -->
<g id="edge4" class="edge">
<title>Node8&#45;&gt;Node9</title>
<path fill="none" stroke="midnightblue" d="M398.22,-542.35C406.64,-543.43 415.36,-544.55 423.93,-545.65"/>
<polygon fill="midnightblue" stroke="midnightblue" points="423.51,-549.12 433.88,-546.92 424.4,-542.18 423.51,-549.12"/>
</g>
<!-- Node8&#45;&gt;Node10 -->
<g id="edge5" class="edge">
<title>Node8&#45;&gt;Node10</title>
<path fill="none" stroke="midnightblue" d="M378.35,-525.41C397.7,-520.44 421.53,-514.32 442.11,-509.04"/>
<polygon fill="midnightblue" stroke="midnightblue" points="443.11,-512.4 451.92,-506.52 441.37,-505.62 443.11,-512.4"/>
</g>
</g>
</svg>
