<?xml version="1.0" encoding="UTF-8" standalone="no"?>
<!DOCTYPE svg PUBLIC "-//W3C//DTD SVG 1.1//EN"
 "http://www.w3.org/Graphics/SVG/1.1/DTD/svg11.dtd">
<!-- Generated by graphviz version 12.2.1 (20241206.2353)
 -->
<!-- Title: mutt_wstr_trunc Pages: 1 -->
<svg width="397pt" height="188pt"
 viewBox="0.00 0.00 397.25 188.25" xmlns="http://www.w3.org/2000/svg" xmlns:xlink="http://www.w3.org/1999/xlink">
<g id="graph0" class="graph" transform="scale(1 1) rotate(0) translate(4 184.25)">
<title>mutt_wstr_trunc</title>
<!-- Node1 -->
<g id="Node000001" class="node">
<title>Node1</title>
<g id="a_Node000001"><a xlink:title="Work out how to truncate a widechar string.">
<polygon fill="#999999" stroke="#666666" points="389.25,-101.25 296.75,-101.25 296.75,-79 389.25,-79 389.25,-101.25"/>
<text text-anchor="middle" x="343" y="-87.75" font-family="Helvetica,sans-Serif" font-size="10.00">mutt_wstr_trunc</text>
</a>
</g>
</g>
<!-- Node2 -->
<g id="Node000002" class="node">
<title>Node2</title>
<g id="a_Node000002"><a xlink:href="preview_8c.html#ab992620c4140e5eff73716f640157361" target="_top" xlink:title="Write the message preview to the compose window.">
<polygon fill="#fff0f0" stroke="red" points="242.75,-180.25 164.5,-180.25 164.5,-158 242.75,-158 242.75,-180.25"/>
<text text-anchor="middle" x="203.62" y="-166.75" font-family="Helvetica,sans-Serif" font-size="10.00">draw_preview</text>
</a>
</g>
</g>
<!-- Node1&#45;&gt;Node2 -->
<g id="edge1_Node000001_Node000002" class="edge">
<title>Node1&#45;&gt;Node2</title>
<g id="a_edge1_Node000001_Node000002"><a xlink:title=" ">
<path fill="none" stroke="#63b8ff" d="M320.23,-108.59C304.49,-121.26 282.28,-137.78 260.75,-149.12 254.8,-152.26 248.26,-155.09 241.8,-157.57"/>
<polygon fill="#63b8ff" stroke="#63b8ff" points="322.02,-111.65 327.53,-102.6 317.58,-106.23 322.02,-111.65"/>
</a>
</g>
</g>
<!-- Node45 -->
<g id="Node000045" class="node">
<title>Node45</title>
<g id="a_Node000045"><a xlink:href="expando_2filter_8c.html#aca5d8e52ad7cb152322d011300631bc1" target="_top" xlink:title="Render an Expando and run the result through a filter.">
<polygon fill="#fff0f0" stroke="red" points="245,-140.25 162.25,-140.25 162.25,-118 245,-118 245,-140.25"/>
<text text-anchor="middle" x="203.62" y="-126.75" font-family="Helvetica,sans-Serif" font-size="10.00">expando_filter</text>
</a>
</g>
</g>
<!-- Node1&#45;&gt;Node45 -->
<g id="edge2_Node000001_Node000045" class="edge">
<title>Node1&#45;&gt;Node45</title>
<g id="a_edge2_Node000001_Node000045"><a xlink:title=" ">
<path fill="none" stroke="#63b8ff" d="M290.48,-104.75C275.47,-109.01 259.3,-113.6 245.08,-117.64"/>
<polygon fill="#63b8ff" stroke="#63b8ff" points="291.03,-108.23 299.7,-102.13 289.12,-101.5 291.03,-108.23"/>
</a>
</g>
</g>
<!-- Node781 -->
<g id="Node000781" class="node">
<title>Node781</title>
<g id="a_Node000781"><a xlink:href="sidebar_2window_8c.html#ad5221bb6030b36213c744a68fd46c87d" target="_top" xlink:title="Turn mailbox data into a sidebar string.">
<polygon fill="#fff0f0" stroke="red" points="110.5,-120.25 0,-120.25 0,-98 110.5,-98 110.5,-120.25"/>
<text text-anchor="middle" x="55.25" y="-106.75" font-family="Helvetica,sans-Serif" font-size="10.00">make_sidebar_entry</text>
</a>
</g>
</g>
<!-- Node1&#45;&gt;Node781 -->
<g id="edge4_Node000001_Node000781" class="edge">
<title>Node1&#45;&gt;Node781</title>
<g id="a_edge4_Node000001_Node000781"><a xlink:title=" ">
<path fill="none" stroke="#63b8ff" d="M285.01,-93.91C234.39,-97.28 160.89,-102.17 110.97,-105.49"/>
<polygon fill="#63b8ff" stroke="#63b8ff" points="285.15,-97.41 294.9,-93.26 284.69,-90.43 285.15,-97.41"/>
</a>
</g>
</g>
<!-- Node806 -->
<g id="Node000806" class="node">
<title>Node806</title>
<g id="a_Node000806"><a xlink:href="progress_2window_8c.html#ad52f62fcddb8233ea181bea374dc9a94" target="_top" xlink:title="Draw a colourful progress bar.">
<polygon fill="#fff0f0" stroke="red" points="242.38,-62.25 164.88,-62.25 164.88,-40 242.38,-40 242.38,-62.25"/>
<text text-anchor="middle" x="203.62" y="-48.75" font-family="Helvetica,sans-Serif" font-size="10.00">message_bar</text>
</a>
</g>
</g>
<!-- Node1&#45;&gt;Node806 -->
<g id="edge5_Node000001_Node000806" class="edge">
<title>Node1&#45;&gt;Node806</title>
<g id="a_edge5_Node000001_Node000806"><a xlink:title=" ">
<path fill="none" stroke="#63b8ff" d="M290.45,-75.49C274.62,-71 257.49,-66.13 242.73,-61.94"/>
<polygon fill="#63b8ff" stroke="#63b8ff" points="289.12,-78.75 299.7,-78.12 291.03,-72.02 289.12,-78.75"/>
</a>
</g>
</g>
<!-- Node813 -->
<g id="Node000813" class="node">
<title>Node813</title>
<g id="a_Node000813"><a xlink:href="dlg__index_8c.html#a3932a451feea973fd2559ea67f6dd16d" target="_top" xlink:title="Draw a highlighted status bar.">
<polygon fill="#fff0f0" stroke="red" points="260.75,-22.25 146.5,-22.25 146.5,0 260.75,0 260.75,-22.25"/>
<text text-anchor="middle" x="203.62" y="-8.75" font-family="Helvetica,sans-Serif" font-size="10.00">mutt_draw_statusline</text>
</a>
</g>
</g>
<!-- Node1&#45;&gt;Node813 -->
<g id="edge6_Node000001_Node000813" class="edge">
<title>Node1&#45;&gt;Node813</title>
<g id="a_edge6_Node000001_Node000813"><a xlink:title=" ">
<path fill="none" stroke="#63b8ff" d="M320.23,-71.66C304.49,-58.99 282.28,-42.47 260.75,-31.12 254.8,-27.99 248.26,-25.16 241.8,-22.68"/>
<polygon fill="#63b8ff" stroke="#63b8ff" points="317.58,-74.02 327.53,-77.65 322.02,-68.6 317.58,-74.02"/>
</a>
</g>
</g>
<!-- Node45&#45;&gt;Node781 -->
<g id="edge3_Node000045_Node000781" class="edge">
<title>Node45&#45;&gt;Node781</title>
<g id="a_edge3_Node000045_Node000781"><a xlink:title=" ">
<path fill="none" stroke="#63b8ff" d="M150.76,-122.04C137.79,-120.27 123.85,-118.36 110.76,-116.57"/>
<polygon fill="#63b8ff" stroke="#63b8ff" points="149.97,-125.46 160.35,-123.35 150.92,-118.53 149.97,-125.46"/>
</a>
</g>
</g>
</g>
</svg>
