<?xml version="1.0" encoding="UTF-8" standalone="no"?>
<!DOCTYPE svg PUBLIC "-//W3C//DTD SVG 1.1//EN"
 "http://www.w3.org/Graphics/SVG/1.1/DTD/svg11.dtd">
<!-- Generated by graphviz version 2.40.1 (20161225.0304)
 -->
<!-- Title: mutt_query_exit Pages: 1 -->
<svg width="425pt" height="218pt"
 viewBox="0.00 0.00 425.00 218.00" xmlns="http://www.w3.org/2000/svg" xmlns:xlink="http://www.w3.org/1999/xlink">
<g id="graph0" class="graph" transform="scale(1 1) rotate(0) translate(4 214)">
<title>mutt_query_exit</title>
<polygon fill="#ffffff" stroke="transparent" points="-4,4 -4,-214 421,-214 421,4 -4,4"/>
<!-- Node16923 -->
<g id="node1" class="node">
<title>Node16923</title>
<polygon fill="#bfbfbf" stroke="#000000" points="0,-95.5 0,-114.5 97,-114.5 97,-95.5 0,-95.5"/>
<text text-anchor="middle" x="48.5" y="-102.5" font-family="Helvetica,sans-Serif" font-size="10.00" fill="#000000">mutt_query_exit</text>
</g>
<!-- Node16924 -->
<g id="node2" class="node">
<title>Node16924</title>
<g id="a_node2"><a xlink:href="curs__lib_8c.html#a31e6cf5a50bccf3cb75b6a7f2ecf1405" target="_top" xlink:title="Empty all the keyboard buffers. ">
<polygon fill="#ffffff" stroke="#000000" points="157.5,-190.5 157.5,-209.5 240.5,-209.5 240.5,-190.5 157.5,-190.5"/>
<text text-anchor="middle" x="199" y="-197.5" font-family="Helvetica,sans-Serif" font-size="10.00" fill="#000000">mutt_flushinp</text>
</a>
</g>
</g>
<!-- Node16923&#45;&gt;Node16924 -->
<g id="edge1" class="edge">
<title>Node16923&#45;&gt;Node16924</title>
<path fill="none" stroke="#191970" d="M56.5748,-114.687C70.5186,-130.8006 100.7339,-163.1041 133,-181 137.575,-183.5374 142.5204,-185.7632 147.5749,-187.7096"/>
<polygon fill="#191970" stroke="#191970" points="146.766,-191.1339 157.3608,-191.1167 149.0677,-184.5232 146.766,-191.1339"/>
</g>
<!-- Node16925 -->
<g id="node3" class="node">
<title>Node16925</title>
<g id="a_node3"><a xlink:href="mutt__curses_8c.html#afa5ccfd522d349a21853c02e4fa6af88" target="_top" xlink:title="Set the cursor state. ">
<polygon fill="#ffffff" stroke="#000000" points="133,-152.5 133,-171.5 265,-171.5 265,-152.5 133,-152.5"/>
<text text-anchor="middle" x="199" y="-159.5" font-family="Helvetica,sans-Serif" font-size="10.00" fill="#000000">mutt_curses_set_cursor</text>
</a>
</g>
</g>
<!-- Node16923&#45;&gt;Node16925 -->
<g id="edge2" class="edge">
<title>Node16923&#45;&gt;Node16925</title>
<path fill="none" stroke="#191970" d="M72.4813,-114.5389C89.3646,-121.2119 112.5162,-130.2771 133,-138 142.6687,-141.6453 153.1691,-145.5074 162.8908,-149.0432"/>
<polygon fill="#191970" stroke="#191970" points="161.6991,-152.334 172.2933,-152.4501 164.0838,-145.7527 161.6991,-152.334"/>
</g>
<!-- Node16926 -->
<g id="node4" class="node">
<title>Node16926</title>
<g id="a_node4"><a xlink:href="curs__lib_8c.html#a07f104cc4b27d47d46f9a83993acc5ef" target="_top" xlink:title="Set the getch() timeout. ">
<polygon fill="#ffffff" stroke="#000000" points="301,-95.5 301,-114.5 417,-114.5 417,-95.5 301,-95.5"/>
<text text-anchor="middle" x="359" y="-102.5" font-family="Helvetica,sans-Serif" font-size="10.00" fill="#000000">mutt_getch_timeout</text>
</a>
</g>
</g>
<!-- Node16923&#45;&gt;Node16926 -->
<g id="edge3" class="edge">
<title>Node16923&#45;&gt;Node16926</title>
<path fill="none" stroke="#191970" d="M97.0156,-105C148.987,-105 231.8878,-105 290.4972,-105"/>
<polygon fill="#191970" stroke="#191970" points="290.7796,-108.5001 300.7795,-105 290.7795,-101.5001 290.7796,-108.5001"/>
</g>
<!-- Node16927 -->
<g id="node5" class="node">
<title>Node16927</title>
<g id="a_node5"><a xlink:href="curs__lib_8c.html#a67a4f6d2c21c9de420130089bb20505c" target="_top" xlink:title="Ask the user a Yes/No question. ">
<polygon fill="#ffffff" stroke="#ff0000" points="157,-76.5 157,-95.5 241,-95.5 241,-76.5 157,-76.5"/>
<text text-anchor="middle" x="199" y="-83.5" font-family="Helvetica,sans-Serif" font-size="10.00" fill="#000000">mutt_yesorno</text>
</a>
</g>
</g>
<!-- Node16923&#45;&gt;Node16927 -->
<g id="edge4" class="edge">
<title>Node16923&#45;&gt;Node16927</title>
<path fill="none" stroke="#191970" d="M97.363,-98.8312C113.1343,-96.8402 130.6762,-94.6256 146.6865,-92.6044"/>
<polygon fill="#191970" stroke="#191970" points="147.4695,-96.0334 156.9523,-91.3083 146.5927,-89.0885 147.4695,-96.0334"/>
</g>
<!-- Node17005 -->
<g id="node6" class="node">
<title>Node17005</title>
<g id="a_node6"><a xlink:href="mutt__logging_8c.html#af068b3f524a31fad293b2fb61dfc4534" target="_top" xlink:title="Clear the message line (bottom line of screen) ">
<polygon fill="#ffffff" stroke="#ff0000" points="310,-57.5 310,-76.5 408,-76.5 408,-57.5 310,-57.5"/>
<text text-anchor="middle" x="359" y="-64.5" font-family="Helvetica,sans-Serif" font-size="10.00" fill="#000000">mutt_clear_error</text>
</a>
</g>
</g>
<!-- Node16923&#45;&gt;Node17005 -->
<g id="edge8" class="edge">
<title>Node16923&#45;&gt;Node17005</title>
<path fill="none" stroke="#191970" d="M64.3121,-95.4288C80.7851,-86.0611 107.6787,-72.4316 133,-67 188.639,-55.0651 253.7715,-56.6531 299.7833,-60.2724"/>
<polygon fill="#191970" stroke="#191970" points="299.6239,-63.7713 309.8825,-61.1234 300.2117,-56.796 299.6239,-63.7713"/>
</g>
<!-- Node16930 -->
<g id="node7" class="node">
<title>Node16930</title>
<g id="a_node7"><a xlink:href="main_8c.html#a65be75bf998d2462599b7d391676554c" target="_top" xlink:title="Leave NeoMutt NOW. ">
<polygon fill="#ffffff" stroke="#000000" points="167,-.5 167,-19.5 231,-19.5 231,-.5 167,-.5"/>
<text text-anchor="middle" x="199" y="-7.5" font-family="Helvetica,sans-Serif" font-size="10.00" fill="#000000">mutt_exit</text>
</a>
</g>
</g>
<!-- Node16923&#45;&gt;Node16930 -->
<g id="edge7" class="edge">
<title>Node16923&#45;&gt;Node16930</title>
<path fill="none" stroke="#191970" d="M57.5476,-95.4951C72.1741,-80.5978 102.4701,-51.634 133,-34 140.5125,-29.6608 148.9478,-25.8796 157.2125,-22.6814"/>
<polygon fill="#191970" stroke="#191970" points="158.5747,-25.9102 166.7707,-19.1963 156.1768,-19.3337 158.5747,-25.9102"/>
</g>
<!-- Node16927&#45;&gt;Node16926 -->
<g id="edge5" class="edge">
<title>Node16927&#45;&gt;Node16926</title>
<path fill="none" stroke="#191970" d="M241.0381,-90.992C256.143,-92.7857 273.5985,-94.8586 290.3729,-96.8505"/>
<polygon fill="#191970" stroke="#191970" points="290.3593,-100.3734 300.7023,-98.0772 291.1848,-93.4223 290.3593,-100.3734"/>
</g>
<!-- Node16927&#45;&gt;Node17005 -->
<g id="edge6" class="edge">
<title>Node16927&#45;&gt;Node17005</title>
<path fill="none" stroke="#191970" d="M241.0381,-81.008C259.0147,-78.8733 280.3205,-76.3432 299.8455,-74.0246"/>
<polygon fill="#191970" stroke="#191970" points="300.349,-77.4895 309.8665,-72.8346 299.5235,-70.5383 300.349,-77.4895"/>
</g>
</g>
</svg>
