<?xml version="1.0" encoding="UTF-8" standalone="no"?>
<!DOCTYPE svg PUBLIC "-//W3C//DTD SVG 1.1//EN"
 "http://www.w3.org/Graphics/SVG/1.1/DTD/svg11.dtd">
<!-- Generated by graphviz version 12.2.1 (20241206.2353)
 -->
<!-- Title: mutt_strwidth Pages: 1 -->
<svg width="213pt" height="70pt"
 viewBox="0.00 0.00 212.50 70.25" xmlns="http://www.w3.org/2000/svg" xmlns:xlink="http://www.w3.org/1999/xlink">
<g id="graph0" class="graph" transform="scale(1 1) rotate(0) translate(4 66.25)">
<title>mutt_strwidth</title>
<!-- Node1 -->
<g id="Node000001" class="node">
<title>Node1</title>
<g id="a_Node000001"><a xlink:title="Measure a string&#39;s width in screen cells.">
<polygon fill="#999999" stroke="#666666" points="81.25,-42.25 0,-42.25 0,-20 81.25,-20 81.25,-42.25"/>
<text text-anchor="middle" x="40.62" y="-28.75" font-family="Helvetica,sans-Serif" font-size="10.00">mutt_strwidth</text>
</a>
</g>
</g>
<!-- Node2 -->
<g id="Node000002" class="node">
<title>Node2</title>
<g id="a_Node000002"><a xlink:href="mutt_2string_8c.html#acca6786b903b22a5924219f9db96e10d" target="_top" xlink:title="Calculate the length of a string, safely.">
<polygon fill="white" stroke="#666666" points="198.12,-62.25 123.62,-62.25 123.62,-40 198.12,-40 198.12,-62.25"/>
<text text-anchor="middle" x="160.88" y="-48.75" font-family="Helvetica,sans-Serif" font-size="10.00">mutt_str_len</text>
</a>
</g>
</g>
<!-- Node1&#45;&gt;Node2 -->
<g id="edge1_Node000001_Node000002" class="edge">
<title>Node1&#45;&gt;Node2</title>
<g id="a_edge1_Node000001_Node000002"><a xlink:title=" ">
<path fill="none" stroke="#63b8ff" d="M81.66,-37.9C91.49,-39.56 102.12,-41.36 112.27,-43.07"/>
<polygon fill="#63b8ff" stroke="#63b8ff" points="111.53,-46.5 121.97,-44.71 112.69,-39.6 111.53,-46.5"/>
</a>
</g>
</g>
<!-- Node3 -->
<g id="Node000003" class="node">
<title>Node3</title>
<g id="a_Node000003"><a xlink:href="curs__lib_8c.html#a065d0cc61c21f10fe6f4fc4fad8c7afe" target="_top" xlink:title="Measure a string&#39;s width in screen cells.">
<polygon fill="white" stroke="#666666" points="204.5,-22.25 117.25,-22.25 117.25,0 204.5,0 204.5,-22.25"/>
<text text-anchor="middle" x="160.88" y="-8.75" font-family="Helvetica,sans-Serif" font-size="10.00">mutt_strnwidth</text>
</a>
</g>
</g>
<!-- Node1&#45;&gt;Node3 -->
<g id="edge2_Node000001_Node000003" class="edge">
<title>Node1&#45;&gt;Node3</title>
<g id="a_edge2_Node000001_Node000003"><a xlink:title=" ">
<path fill="none" stroke="#63b8ff" d="M81.66,-24.35C89.4,-23.04 97.63,-21.65 105.74,-20.28"/>
<polygon fill="#63b8ff" stroke="#63b8ff" points="106.28,-23.74 115.56,-18.62 105.11,-16.84 106.28,-23.74"/>
</a>
</g>
</g>
</g>
</svg>
