<?xml version="1.0" encoding="UTF-8" standalone="no"?>
<!DOCTYPE svg PUBLIC "-//W3C//DTD SVG 1.1//EN"
 "http://www.w3.org/Graphics/SVG/1.1/DTD/svg11.dtd">
<!-- Generated by graphviz version 2.40.1 (20161225.0304)
 -->
<!-- Title: mutt_get_field Pages: 1 -->
<svg width="923pt" height="1147pt"
 viewBox="0.00 0.00 923.00 1147.44" xmlns="http://www.w3.org/2000/svg" xmlns:xlink="http://www.w3.org/1999/xlink">
<g id="graph0" class="graph" transform="scale(1 1) rotate(0) translate(4 1143.4356)">
<title>mutt_get_field</title>
<polygon fill="#ffffff" stroke="transparent" points="-4,4 -4,-1143.4356 919,-1143.4356 919,4 -4,4"/>
<!-- Node9818 -->
<g id="node1" class="node">
<title>Node9818</title>
<polygon fill="#bfbfbf" stroke="#000000" points="0,-563.5 0,-582.5 87,-582.5 87,-563.5 0,-563.5"/>
<text text-anchor="middle" x="43.5" y="-570.5" font-family="Helvetica,sans-Serif" font-size="10.00" fill="#000000">mutt_get_field</text>
</g>
<!-- Node9819 -->
<g id="node2" class="node">
<title>Node9819</title>
<g id="a_node2"><a xlink:href="alias_2lib_8h.html#a9a5bce1105cd6bfb1f7a614f680dfef2" target="_top" xlink:title="Create a new Alias from an Address. ">
<polygon fill="#ffffff" stroke="#000000" points="165,-886.5 165,-905.5 241,-905.5 241,-886.5 165,-886.5"/>
<text text-anchor="middle" x="203" y="-893.5" font-family="Helvetica,sans-Serif" font-size="10.00" fill="#000000">alias_create</text>
</a>
</g>
</g>
<!-- Node9818&#45;&gt;Node9819 -->
<g id="edge1" class="edge">
<title>Node9818&#45;&gt;Node9819</title>
<path fill="none" stroke="#191970" d="M46.0372,-592.998C54.1843,-654.0803 81.5897,-836.5154 123,-877 134.0242,-887.7777 149.985,-892.8433 164.7551,-895.0982"/>
<polygon fill="#191970" stroke="#191970" points="49.4673,-592.2339 44.7034,-582.7705 42.5261,-593.1392 49.4673,-592.2339"/>
</g>
<!-- Node9820 -->
<g id="node3" class="node">
<title>Node9820</title>
<g id="a_node3"><a xlink:href="dlgquery_8c.html#a1b14278ee062936035f5b41babab18da" target="_top" xlink:title="Get the user to enter an Address Query. ">
<polygon fill="#ffffff" stroke="#ff0000" points="333.5,-924.5 333.5,-943.5 432.5,-943.5 432.5,-924.5 333.5,-924.5"/>
<text text-anchor="middle" x="383" y="-931.5" font-family="Helvetica,sans-Serif" font-size="10.00" fill="#000000">dlg_select_query</text>
</a>
</g>
</g>
<!-- Node9818&#45;&gt;Node9820 -->
<g id="edge20" class="edge">
<title>Node9818&#45;&gt;Node9820</title>
<path fill="none" stroke="#191970" d="M45.0896,-592.7358C50.8661,-659.0796 73.0822,-872.2959 123,-915 153.5224,-941.1116 266.7131,-940.148 333.2609,-937.1017"/>
<polygon fill="#191970" stroke="#191970" points="48.5763,-592.429 44.25,-582.7577 41.6009,-593.016 48.5763,-592.429"/>
</g>
<!-- Node10340 -->
<g id="node4" class="node">
<title>Node10340</title>
<g id="a_node4"><a xlink:href="alias_2lib_8h.html#a1205cb3b6c32c17817078da6a4666be5" target="_top" xlink:title="Perform an Alias Query and display the results. ">
<polygon fill="#ffffff" stroke="#000000" points="511,-924.5 511,-943.5 588,-943.5 588,-924.5 511,-924.5"/>
<text text-anchor="middle" x="549.5" y="-931.5" font-family="Helvetica,sans-Serif" font-size="10.00" fill="#000000">query_index</text>
</a>
</g>
</g>
<!-- Node9818&#45;&gt;Node10340 -->
<g id="edge21" class="edge">
<title>Node9818&#45;&gt;Node10340</title>
<path fill="none" stroke="#191970" d="M44.0707,-592.6875C46.7171,-668.413 60.4838,-939.2532 123,-991 249.3156,-1095.5557 472.5706,-978.9099 533.6654,-943.5221"/>
<polygon fill="#191970" stroke="#191970" points="47.5668,-592.5059 43.746,-582.624 40.5704,-592.7317 47.5668,-592.5059"/>
</g>
<!-- Node9825 -->
<g id="node5" class="node">
<title>Node9825</title>
<g id="a_node5"><a xlink:href="index_2lib_8h.html#a99aec648e9fb9eeee0d0154211b428da" target="_top" xlink:title="Display a list of emails. ">
<polygon fill="#ffffff" stroke="#ff0000" points="652,-829.5 652,-848.5 757,-848.5 757,-829.5 652,-829.5"/>
<text text-anchor="middle" x="704.5" y="-836.5" font-family="Helvetica,sans-Serif" font-size="10.00" fill="#000000">mutt_index_menu</text>
</a>
</g>
</g>
<!-- Node9818&#45;&gt;Node9825 -->
<g id="edge33" class="edge">
<title>Node9818&#45;&gt;Node9825</title>
<path fill="none" stroke="#191970" d="M43.7603,-592.7698C45.2655,-672.5491 55.3952,-969.2264 123,-1026 207.8108,-1097.2229 527.7765,-1019.9491 616,-953 655.9185,-922.7075 687.4805,-870.167 699.3787,-848.63"/>
<polygon fill="#191970" stroke="#191970" points="47.2576,-592.5688 43.595,-582.6272 40.2585,-592.683 47.2576,-592.5688"/>
</g>
<!-- Node9826 -->
<g id="node6" class="node">
<title>Node9826</title>
<g id="a_node6"><a xlink:href="compose_2lib_8h.html#ab41aa2ed639a1d884984f0d42d1cf827" target="_top" xlink:title="Allow the user to edit the message envelope. ">
<polygon fill="#ffffff" stroke="#ff0000" points="793,-772.5 793,-791.5 915,-791.5 915,-772.5 793,-772.5"/>
<text text-anchor="middle" x="854" y="-779.5" font-family="Helvetica,sans-Serif" font-size="10.00" fill="#000000">mutt_compose_menu</text>
</a>
</g>
</g>
<!-- Node9818&#45;&gt;Node9826 -->
<g id="edge25" class="edge">
<title>Node9818&#45;&gt;Node9826</title>
<path fill="none" stroke="#191970" d="M45.1027,-592.5996C52.6817,-683.0548 86.0993,-1057.2988 123,-1093 206.637,-1173.9183 266.626,-1124 383,-1124 383,-1124 383,-1124 549.5,-1124 732.7447,-1124 832.8649,-846.7395 850.9926,-791.504"/>
<polygon fill="#191970" stroke="#191970" points="48.588,-592.2761 44.2738,-582.5994 41.6119,-592.8544 48.588,-592.2761"/>
</g>
<!-- Node9829 -->
<g id="node7" class="node">
<title>Node9829</title>
<g id="a_node7"><a xlink:href="pager_2lib_8h.html#a98581fe70f86244edf90b80f6421fb7b" target="_top" xlink:title="Display a an email, attachment, or help, in a window. ">
<polygon fill="#ffffff" stroke="#ff0000" points="346.5,-772.5 346.5,-791.5 419.5,-791.5 419.5,-772.5 346.5,-772.5"/>
<text text-anchor="middle" x="383" y="-779.5" font-family="Helvetica,sans-Serif" font-size="10.00" fill="#000000">mutt_pager</text>
</a>
</g>
</g>
<!-- Node9818&#45;&gt;Node9829 -->
<g id="edge44" class="edge">
<title>Node9818&#45;&gt;Node9829</title>
<path fill="none" stroke="#191970" d="M47.9616,-592.4005C56.5427,-625.1286 78.5632,-691.0534 123,-725 131.9165,-731.8116 276.9993,-761.1044 346.4717,-774.8396"/>
<polygon fill="#191970" stroke="#191970" points="51.353,-591.535 45.5537,-582.6683 44.5579,-593.2162 51.353,-591.535"/>
</g>
<!-- Node10005 -->
<g id="node8" class="node">
<title>Node10005</title>
<g id="a_node8"><a xlink:href="commands_8h.html#a2fc497abbb4426b3352d9ec6676cc39f" target="_top" xlink:title="Bounce an email. ">
<polygon fill="#ffffff" stroke="#000000" points="145.5,-696.5 145.5,-715.5 260.5,-715.5 260.5,-696.5 145.5,-696.5"/>
<text text-anchor="middle" x="203" y="-703.5" font-family="Helvetica,sans-Serif" font-size="10.00" fill="#000000">ci_bounce_message</text>
</a>
</g>
</g>
<!-- Node9818&#45;&gt;Node10005 -->
<g id="edge8" class="edge">
<title>Node9818&#45;&gt;Node10005</title>
<path fill="none" stroke="#191970" d="M51.5203,-592.1521C63.2976,-617.8478 87.7592,-663.0191 123,-687 129.7271,-691.5777 137.4246,-695.0588 145.3268,-697.7047"/>
<polygon fill="#191970" stroke="#191970" points="54.6122,-590.4888 47.3796,-582.7467 48.2056,-593.3093 54.6122,-590.4888"/>
</g>
<!-- Node10173 -->
<g id="node9" class="node">
<title>Node10173</title>
<g id="a_node9"><a xlink:href="commands_8h.html#a83a20586633321eab21727982a90e1ea" target="_top" xlink:title="invoke a command in a subshell ">
<polygon fill="#ffffff" stroke="#ff0000" points="149,-658.5 149,-677.5 257,-677.5 257,-658.5 149,-658.5"/>
<text text-anchor="middle" x="203" y="-665.5" font-family="Helvetica,sans-Serif" font-size="10.00" fill="#000000">mutt_shell_escape</text>
</a>
</g>
</g>
<!-- Node9818&#45;&gt;Node10173 -->
<g id="edge11" class="edge">
<title>Node9818&#45;&gt;Node10173</title>
<path fill="none" stroke="#191970" d="M58.6868,-590.3721C73.5864,-606.4155 97.6978,-629.8397 123,-644 134.0087,-650.1609 146.7744,-654.9062 158.8314,-658.4865"/>
<polygon fill="#191970" stroke="#191970" points="61.0846,-587.8058 51.7774,-582.7435 55.8963,-592.5049 61.0846,-587.8058"/>
</g>
<!-- Node10339 -->
<g id="node10" class="node">
<title>Node10339</title>
<g id="a_node10"><a xlink:href="commands_8h.html#a59ddef95d9da473164d2e93ced35abfb" target="_top" xlink:title="enter a neomutt command ">
<polygon fill="#ffffff" stroke="#ff0000" points="140.5,-848.5 140.5,-867.5 265.5,-867.5 265.5,-848.5 140.5,-848.5"/>
<text text-anchor="middle" x="203" y="-855.5" font-family="Helvetica,sans-Serif" font-size="10.00" fill="#000000">mutt_enter_command</text>
</a>
</g>
</g>
<!-- Node9818&#45;&gt;Node10339 -->
<g id="edge14" class="edge">
<title>Node9818&#45;&gt;Node10339</title>
<path fill="none" stroke="#191970" d="M46.7741,-592.6597C56.4048,-648.1705 86.2813,-804.3252 123,-839 127.9818,-843.7045 133.908,-847.3128 140.2492,-850.0706"/>
<polygon fill="#191970" stroke="#191970" points="50.2058,-591.9626 45.0762,-582.6923 43.3052,-593.1381 50.2058,-591.9626"/>
</g>
<!-- Node10103 -->
<g id="node11" class="node">
<title>Node10103</title>
<g id="a_node11"><a xlink:href="commands_8h.html#a9b5874c3558cb300404bb50f60fc6a31" target="_top" xlink:title="Edit the content type of an attachment. ">
<polygon fill="#ffffff" stroke="#ff0000" points="483,-658.5 483,-677.5 616,-677.5 616,-658.5 483,-658.5"/>
<text text-anchor="middle" x="549.5" y="-665.5" font-family="Helvetica,sans-Serif" font-size="10.00" fill="#000000">mutt_edit_content_type</text>
</a>
</g>
</g>
<!-- Node9818&#45;&gt;Node10103 -->
<g id="edge17" class="edge">
<title>Node9818&#45;&gt;Node10103</title>
<path fill="none" stroke="#191970" d="M71.8143,-586.7767C86.7281,-593.5097 105.5092,-601.1799 123,-606 247.4319,-640.2908 397.8223,-656.5202 482.6905,-663.4591"/>
<polygon fill="#191970" stroke="#191970" points="73.1703,-583.5477 62.6247,-582.5269 70.232,-589.9012 73.1703,-583.5477"/>
</g>
<!-- Node9837 -->
<g id="node12" class="node">
<title>Node9837</title>
<g id="a_node12"><a xlink:href="browser_8h.html#ac628d370c55e56235108d9b8ef87c618" target="_top" xlink:title="Let the user select a file. ">
<polygon fill="#ffffff" stroke="#ff0000" points="319,-506.5 319,-525.5 447,-525.5 447,-506.5 319,-506.5"/>
<text text-anchor="middle" x="383" y="-513.5" font-family="Helvetica,sans-Serif" font-size="10.00" fill="#000000">mutt_buffer_select_file</text>
</a>
</g>
</g>
<!-- Node9818&#45;&gt;Node9837 -->
<g id="edge22" class="edge">
<title>Node9818&#45;&gt;Node9837</title>
<path fill="none" stroke="#191970" d="M97.2481,-564.9501C145.8386,-557.559 219.3047,-546.1015 283,-535 299.7999,-532.0719 318.1437,-528.6516 334.4801,-525.5261"/>
<polygon fill="#191970" stroke="#191970" points="96.6313,-561.5035 87.2695,-566.464 97.6813,-568.4243 96.6313,-561.5035"/>
</g>
<!-- Node10341 -->
<g id="node13" class="node">
<title>Node10341</title>
<g id="a_node13"><a xlink:href="compose_8c.html#a995fe70fb321e85b2799e74e3e3322f0" target="_top" xlink:title="Let the user edit the address list. ">
<polygon fill="#ffffff" stroke="#000000" points="655,-639.5 655,-658.5 754,-658.5 754,-639.5 655,-639.5"/>
<text text-anchor="middle" x="704.5" y="-646.5" font-family="Helvetica,sans-Serif" font-size="10.00" fill="#000000">edit_address_list</text>
</a>
</g>
</g>
<!-- Node9818&#45;&gt;Node10341 -->
<g id="edge23" class="edge">
<title>Node9818&#45;&gt;Node10341</title>
<path fill="none" stroke="#191970" d="M97.2604,-579.1812C222.7347,-593.6079 533.4408,-629.3321 654.8038,-643.2861"/>
<polygon fill="#191970" stroke="#191970" points="97.4601,-575.6812 87.1257,-578.016 96.6604,-582.6354 97.4601,-575.6812"/>
</g>
<!-- Node10342 -->
<g id="node14" class="node">
<title>Node10342</title>
<g id="a_node14"><a xlink:href="sasl_8h.html#a69d46ce6a265526da2e547529fe2d44b" target="_top" xlink:title="Perform an SASL interaction with the user. ">
<polygon fill="#ffffff" stroke="#ff0000" points="149.5,-430.5 149.5,-449.5 256.5,-449.5 256.5,-430.5 149.5,-430.5"/>
<text text-anchor="middle" x="203" y="-437.5" font-family="Helvetica,sans-Serif" font-size="10.00" fill="#000000">mutt_sasl_interact</text>
</a>
</g>
</g>
<!-- Node9818&#45;&gt;Node10342 -->
<g id="edge26" class="edge">
<title>Node9818&#45;&gt;Node10342</title>
<path fill="none" stroke="#191970" d="M51.5203,-553.8479C63.2976,-528.1522 87.7592,-482.9809 123,-459 130.7892,-453.6995 139.8795,-449.8692 149.0823,-447.1034"/>
<polygon fill="#191970" stroke="#191970" points="48.2056,-552.6907 47.3796,-563.2533 54.6122,-555.5112 48.2056,-552.6907"/>
</g>
<!-- Node10347 -->
<g id="node15" class="node">
<title>Node10347</title>
<g id="a_node15"><a xlink:href="curs__lib_8h.html#acfa4667194d147e49afcdf66f9ab0a79" target="_top" xlink:title="Ask the user for a string (ignoring macro buffer) ">
<polygon fill="#ffffff" stroke="#ff0000" points="130.5,-392.5 130.5,-411.5 275.5,-411.5 275.5,-392.5 130.5,-392.5"/>
<text text-anchor="middle" x="203" y="-399.5" font-family="Helvetica,sans-Serif" font-size="10.00" fill="#000000">mutt_get_field_unbuffered</text>
</a>
</g>
</g>
<!-- Node9818&#45;&gt;Node10347 -->
<g id="edge27" class="edge">
<title>Node9818&#45;&gt;Node10347</title>
<path fill="none" stroke="#191970" d="M48.1386,-553.2542C56.8938,-520.5052 79.0515,-455.1819 123,-421 127.958,-417.1438 133.575,-414.0519 139.478,-411.5755"/>
<polygon fill="#191970" stroke="#191970" points="44.638,-552.8228 45.587,-563.375 51.4256,-554.5341 44.638,-552.8228"/>
</g>
<!-- Node10220 -->
<g id="node16" class="node">
<title>Node10220</title>
<g id="a_node16"><a xlink:href="imap_2lib_8h.html#ad29c8310856c366b81a118ff231ed35c" target="_top" xlink:title="Create a new IMAP mailbox. ">
<polygon fill="#ffffff" stroke="#000000" points="142,-506.5 142,-525.5 264,-525.5 264,-506.5 142,-506.5"/>
<text text-anchor="middle" x="203" y="-513.5" font-family="Helvetica,sans-Serif" font-size="10.00" fill="#000000">imap_mailbox_create</text>
</a>
</g>
</g>
<!-- Node9818&#45;&gt;Node10220 -->
<g id="edge28" class="edge">
<title>Node9818&#45;&gt;Node10220</title>
<path fill="none" stroke="#191970" d="M74.4104,-559.3079C89.0101,-553.0636 106.7596,-545.7897 123,-540 137.7511,-534.7412 154.2943,-529.6481 168.492,-525.5167"/>
<polygon fill="#191970" stroke="#191970" points="72.6533,-556.2544 64.8634,-563.4354 75.4312,-562.6796 72.6533,-556.2544"/>
</g>
<!-- Node10225 -->
<g id="node17" class="node">
<title>Node10225</title>
<g id="a_node17"><a xlink:href="imap_2lib_8h.html#ae031b576b34ef1f6cb04aeaaab1c4bb7" target="_top" xlink:title="Rename a mailbox. ">
<polygon fill="#ffffff" stroke="#000000" points="138.5,-468.5 138.5,-487.5 267.5,-487.5 267.5,-468.5 138.5,-468.5"/>
<text text-anchor="middle" x="203" y="-475.5" font-family="Helvetica,sans-Serif" font-size="10.00" fill="#000000">imap_mailbox_rename</text>
</a>
</g>
</g>
<!-- Node9818&#45;&gt;Node10225 -->
<g id="edge30" class="edge">
<title>Node9818&#45;&gt;Node10225</title>
<path fill="none" stroke="#191970" d="M57.3059,-555.1408C71.7871,-537.6637 96.1447,-511.6027 123,-497 130.1484,-493.113 138.0796,-490.015 146.0907,-487.5473"/>
<polygon fill="#191970" stroke="#191970" points="54.2106,-553.4049 50.6725,-563.3916 59.6661,-557.791 54.2106,-553.4049"/>
</g>
<!-- Node10368 -->
<g id="node18" class="node">
<title>Node10368</title>
<g id="a_node18"><a xlink:href="imap_8c.html#ab61a50c1694e5e41511078202a902f77" target="_top" xlink:title="Prompt and validate new messages tags &#45; Implements MxOps::tags_edit() ">
<polygon fill="#ffffff" stroke="#000000" points="157,-354.5 157,-373.5 249,-373.5 249,-354.5 157,-354.5"/>
<text text-anchor="middle" x="203" y="-361.5" font-family="Helvetica,sans-Serif" font-size="10.00" fill="#000000">imap_tags_edit</text>
</a>
</g>
</g>
<!-- Node9818&#45;&gt;Node10368 -->
<g id="edge32" class="edge">
<title>Node9818&#45;&gt;Node10368</title>
<path fill="none" stroke="#191970" d="M45.856,-553.3286C51.5829,-514.5441 69.905,-428.0715 123,-383 132.4681,-374.9627 144.7403,-370.1939 156.8173,-367.4002"/>
<polygon fill="#191970" stroke="#191970" points="42.3745,-552.9564 44.5068,-563.3344 49.3118,-553.8918 42.3745,-552.9564"/>
</g>
<!-- Node10369 -->
<g id="node19" class="node">
<title>Node10369</title>
<g id="a_node19"><a xlink:href="menu_8c.html#a0e8d3dd05e8b9a6dcc0dd98f89568e1e" target="_top" xlink:title="Jump to another item in the menu. ">
<polygon fill="#ffffff" stroke="#ff0000" points="166,-316.5 166,-335.5 240,-335.5 240,-316.5 166,-316.5"/>
<text text-anchor="middle" x="203" y="-323.5" font-family="Helvetica,sans-Serif" font-size="10.00" fill="#000000">menu_jump</text>
</a>
</g>
</g>
<!-- Node9818&#45;&gt;Node10369 -->
<g id="edge34" class="edge">
<title>Node9818&#45;&gt;Node10369</title>
<path fill="none" stroke="#191970" d="M47.7574,-553.562C59.0243,-503.8423 90.9585,-373.9199 123,-345 134.6568,-334.4788 151.0666,-329.4913 165.9925,-327.2245"/>
<polygon fill="#191970" stroke="#191970" points="44.3267,-552.8661 45.5646,-563.3883 51.1587,-554.3907 44.3267,-552.8661"/>
</g>
<!-- Node10370 -->
<g id="node20" class="node">
<title>Node10370</title>
<g id="a_node20"><a xlink:href="menu_8c.html#ab29e0b2dbd98a3fcd6204ae4dfcfd4cb" target="_top" xlink:title="Search a menu. ">
<polygon fill="#ffffff" stroke="#ff0000" points="178.5,-278.5 178.5,-297.5 227.5,-297.5 227.5,-278.5 178.5,-278.5"/>
<text text-anchor="middle" x="203" y="-285.5" font-family="Helvetica,sans-Serif" font-size="10.00" fill="#000000">search</text>
</a>
</g>
</g>
<!-- Node9818&#45;&gt;Node10370 -->
<g id="edge35" class="edge">
<title>Node9818&#45;&gt;Node10370</title>
<path fill="none" stroke="#191970" d="M46.7741,-553.3403C56.4048,-497.8295 86.2813,-341.6748 123,-307 137.738,-293.0824 160.7402,-288.7588 178.3041,-287.6679"/>
<polygon fill="#191970" stroke="#191970" points="43.3052,-552.8619 45.0762,-563.3077 50.2058,-554.0374 43.3052,-552.8619"/>
</g>
<!-- Node10084 -->
<g id="node21" class="node">
<title>Node10084</title>
<g id="a_node21"><a xlink:href="mutt__header_8h.html#abddc5347ce93b1d3e74c273a3927448a" target="_top" xlink:title="Let the user label a message. ">
<polygon fill="#ffffff" stroke="#000000" points="143.5,-810.5 143.5,-829.5 262.5,-829.5 262.5,-810.5 143.5,-810.5"/>
<text text-anchor="middle" x="203" y="-817.5" font-family="Helvetica,sans-Serif" font-size="10.00" fill="#000000">mutt_label_message</text>
</a>
</g>
</g>
<!-- Node9818&#45;&gt;Node10084 -->
<g id="edge36" class="edge">
<title>Node9818&#45;&gt;Node10084</title>
<path fill="none" stroke="#191970" d="M47.7574,-592.438C59.0243,-642.1577 90.9585,-772.0801 123,-801 128.8284,-806.2606 135.845,-810.1378 143.2703,-812.9831"/>
<polygon fill="#191970" stroke="#191970" points="51.1587,-591.6093 45.5646,-582.6117 44.3267,-593.1339 51.1587,-591.6093"/>
</g>
<!-- Node10315 -->
<g id="node22" class="node">
<title>Node10315</title>
<g id="a_node22"><a xlink:href="crypt__gpgme_8c.html#ad4d211dd6072df61ecfc4c7311f1aaec" target="_top" xlink:title="Ask the user for a key. ">
<polygon fill="#ffffff" stroke="#ff0000" points="150,-240.5 150,-259.5 256,-259.5 256,-240.5 150,-240.5"/>
<text text-anchor="middle" x="203" y="-247.5" font-family="Helvetica,sans-Serif" font-size="10.00" fill="#000000">crypt_ask_for_key</text>
</a>
</g>
</g>
<!-- Node9818&#45;&gt;Node10315 -->
<g id="edge39" class="edge">
<title>Node9818&#45;&gt;Node10315</title>
<path fill="none" stroke="#191970" d="M46.0372,-553.002C54.1843,-491.9197 81.5897,-309.4846 123,-269 130.3494,-261.8148 139.8929,-257.1684 149.815,-254.201"/>
<polygon fill="#191970" stroke="#191970" points="42.5261,-552.8608 44.7034,-563.2295 49.4673,-553.7661 42.5261,-552.8608"/>
</g>
<!-- Node10323 -->
<g id="node23" class="node">
<title>Node10323</title>
<g id="a_node23"><a xlink:href="pgpkey_8h.html#a9a20d6887d1cb8c32cc689a85d6e7b7e" target="_top" xlink:title="Ask the user for a PGP key. ">
<polygon fill="#ffffff" stroke="#ff0000" points="153.5,-202.5 153.5,-221.5 252.5,-221.5 252.5,-202.5 153.5,-202.5"/>
<text text-anchor="middle" x="203" y="-209.5" font-family="Helvetica,sans-Serif" font-size="10.00" fill="#000000">pgp_ask_for_key</text>
</a>
</g>
</g>
<!-- Node9818&#45;&gt;Node10323 -->
<g id="edge40" class="edge">
<title>Node9818&#45;&gt;Node10323</title>
<path fill="none" stroke="#191970" d="M45.3992,-553.1461C52.0993,-487.2707 76.7557,-277.4658 123,-231 131.1567,-222.8043 142.1607,-217.8927 153.3937,-215.0076"/>
<polygon fill="#191970" stroke="#191970" points="41.8875,-553.0927 44.3858,-563.3888 48.8535,-553.782 41.8875,-553.0927"/>
</g>
<!-- Node10330 -->
<g id="node24" class="node">
<title>Node10330</title>
<g id="a_node24"><a xlink:href="smime_8c.html#adb8559e910d01e404b33243d123e353d" target="_top" xlink:title="Ask the user to select a key. ">
<polygon fill="#ffffff" stroke="#ff0000" points="145.5,-164.5 145.5,-183.5 260.5,-183.5 260.5,-164.5 145.5,-164.5"/>
<text text-anchor="middle" x="203" y="-171.5" font-family="Helvetica,sans-Serif" font-size="10.00" fill="#000000">smime_ask_for_key</text>
</a>
</g>
</g>
<!-- Node9818&#45;&gt;Node10330 -->
<g id="edge41" class="edge">
<title>Node9818&#45;&gt;Node10330</title>
<path fill="none" stroke="#191970" d="M44.8919,-553.2656C50.2565,-482.8717 71.8975,-245.4983 123,-193 129.1735,-186.6579 137.049,-182.2733 145.4402,-179.2701"/>
<polygon fill="#191970" stroke="#191970" points="41.3889,-553.1789 44.1451,-563.4089 48.37,-553.693 41.3889,-553.1789"/>
</g>
<!-- Node9988 -->
<g id="node25" class="node">
<title>Node9988</title>
<g id="a_node25"><a xlink:href="smime_8h.html#a523926006764a23ce6227f7b96f34a6f" target="_top" xlink:title="Implements CryptModuleSpecs::smime_invoke_import() ">
<polygon fill="#ffffff" stroke="#000000" points="143.5,-115 143.5,-145 262.5,-145 262.5,-115 143.5,-115"/>
<text text-anchor="start" x="151.5" y="-133" font-family="Helvetica,sans-Serif" font-size="10.00" fill="#000000">smime_class_invoke</text>
<text text-anchor="middle" x="203" y="-122" font-family="Helvetica,sans-Serif" font-size="10.00" fill="#000000">_import</text>
</a>
</g>
</g>
<!-- Node9818&#45;&gt;Node9988 -->
<g id="edge42" class="edge">
<title>Node9818&#45;&gt;Node9988</title>
<path fill="none" stroke="#191970" d="M44.6425,-552.9027C49.3007,-477.8669 69.2336,-215.3307 123,-155 128.5184,-148.8079 135.5454,-144.1339 143.1357,-140.6088"/>
<polygon fill="#191970" stroke="#191970" points="41.1255,-553.0851 44.0232,-563.2759 48.1131,-553.5023 41.1255,-553.0851"/>
</g>
<!-- Node10375 -->
<g id="node26" class="node">
<title>Node10375</title>
<g id="a_node26"><a xlink:href="notmuch_8c.html#ab1bd88605fe649c57ccf862293d3fbe7" target="_top" xlink:title="Prompt and validate new messages tags &#45; Implements MxOps::tags_edit() ">
<polygon fill="#ffffff" stroke="#000000" points="161.5,-76.5 161.5,-95.5 244.5,-95.5 244.5,-76.5 161.5,-76.5"/>
<text text-anchor="middle" x="203" y="-83.5" font-family="Helvetica,sans-Serif" font-size="10.00" fill="#000000">nm_tags_edit</text>
</a>
</g>
</g>
<!-- Node9818&#45;&gt;Node10375 -->
<g id="edge43" class="edge">
<title>Node9818&#45;&gt;Node10375</title>
<path fill="none" stroke="#191970" d="M44.0837,-553.0745C46.8483,-472.602 61.2041,-172.7044 123,-106 132.8267,-95.3928 147.3519,-90.0422 161.3386,-87.4515"/>
<polygon fill="#191970" stroke="#191970" points="40.5782,-553.1943 43.7557,-563.3014 47.5746,-553.4188 40.5782,-553.1943"/>
</g>
<!-- Node10098 -->
<g id="node27" class="node">
<title>Node10098</title>
<g id="a_node27"><a xlink:href="pattern_8c.html#af063994c63c9000be972caa5dcee532e" target="_top" xlink:title="Perform a search. ">
<polygon fill="#ffffff" stroke="#ff0000" points="484,-1076.5 484,-1095.5 615,-1095.5 615,-1076.5 484,-1076.5"/>
<text text-anchor="middle" x="549.5" y="-1083.5" font-family="Helvetica,sans-Serif" font-size="10.00" fill="#000000">mutt_search_command</text>
</a>
</g>
</g>
<!-- Node9818&#45;&gt;Node10098 -->
<g id="edge45" class="edge">
<title>Node9818&#45;&gt;Node10098</title>
<path fill="none" stroke="#191970" d="M45.2706,-592.8584C53.276,-680.5068 87.2508,-1029.8188 123,-1062 174.3986,-1108.2686 377.2663,-1099.86 483.6289,-1091.8843"/>
<polygon fill="#191970" stroke="#191970" points="48.7557,-592.5341 44.3696,-582.8898 41.7841,-593.1642 48.7557,-592.5341"/>
</g>
<!-- Node10376 -->
<g id="node28" class="node">
<title>Node10376</title>
<g id="a_node28"><a xlink:href="pattern_8c.html#a2136c3a5b62c48c3ba4dc14662c305dd" target="_top" xlink:title="Perform a search. ">
<polygon fill="#ffffff" stroke="#ff0000" points="123,-962.5 123,-981.5 283,-981.5 283,-962.5 123,-962.5"/>
<text text-anchor="middle" x="203" y="-969.5" font-family="Helvetica,sans-Serif" font-size="10.00" fill="#000000">mutt_search_alias_command</text>
</a>
</g>
</g>
<!-- Node9818&#45;&gt;Node10376 -->
<g id="edge47" class="edge">
<title>Node9818&#45;&gt;Node10376</title>
<path fill="none" stroke="#191970" d="M45.074,-592.8326C50.992,-662.5322 74.1088,-894.8966 123,-948 128.7947,-954.2939 136.1677,-958.9616 144.0836,-962.4182"/>
<polygon fill="#191970" stroke="#191970" points="48.5538,-592.4421 44.2441,-582.7634 41.5775,-593.0172 48.5538,-592.4421"/>
</g>
<!-- Node10006 -->
<g id="node29" class="node">
<title>Node10006</title>
<g id="a_node29"><a xlink:href="recvcmd_8h.html#a8be856d602dd059fbed3a01b1abcf65f" target="_top" xlink:title="Bounce function, from the attachment menu. ">
<polygon fill="#ffffff" stroke="#ff0000" points="145,-772.5 145,-791.5 261,-791.5 261,-772.5 145,-772.5"/>
<text text-anchor="middle" x="203" y="-779.5" font-family="Helvetica,sans-Serif" font-size="10.00" fill="#000000">mutt_attach_bounce</text>
</a>
</g>
</g>
<!-- Node9818&#45;&gt;Node10006 -->
<g id="edge49" class="edge">
<title>Node9818&#45;&gt;Node10006</title>
<path fill="none" stroke="#191970" d="M46.4219,-592.9211C53.0225,-630.7238 72.6343,-713.0906 123,-758 130.1431,-764.3692 138.9204,-769.0495 148.0145,-772.4884"/>
<polygon fill="#191970" stroke="#191970" points="49.8224,-592.024 44.7714,-582.7107 42.9121,-593.1411 49.8224,-592.024"/>
</g>
<!-- Node10377 -->
<g id="node30" class="node">
<title>Node10377</title>
<g id="a_node30"><a xlink:href="send_8h.html#a3a50e112e7c0ddd1270a550e63fdd80f" target="_top" xlink:title="Edit an email address. ">
<polygon fill="#ffffff" stroke="#ff0000" points="149.5,-.5 149.5,-19.5 256.5,-19.5 256.5,-.5 149.5,-.5"/>
<text text-anchor="middle" x="203" y="-7.5" font-family="Helvetica,sans-Serif" font-size="10.00" fill="#000000">mutt_edit_address</text>
</a>
</g>
</g>
<!-- Node9818&#45;&gt;Node10377 -->
<g id="edge51" class="edge">
<title>Node9818&#45;&gt;Node10377</title>
<path fill="none" stroke="#191970" d="M43.6765,-552.9714C44.8538,-465.0301 53.8782,-113.9498 123,-34 129.923,-25.9925 139.4029,-20.6002 149.4185,-16.9828"/>
<polygon fill="#191970" stroke="#191970" points="40.1745,-553.1378 43.5606,-563.1769 47.174,-553.2173 40.1745,-553.1378"/>
</g>
<!-- Node10378 -->
<g id="node31" class="node">
<title>Node10378</title>
<g id="a_node31"><a xlink:href="send_8c.html#a9fb4ee964889bd118582f0938027a659" target="_top" xlink:title="Edit Envelope fields. ">
<polygon fill="#ffffff" stroke="#ff0000" points="340,-19.5 340,-38.5 426,-38.5 426,-19.5 340,-19.5"/>
<text text-anchor="middle" x="383" y="-26.5" font-family="Helvetica,sans-Serif" font-size="10.00" fill="#000000">edit_envelope</text>
</a>
</g>
</g>
<!-- Node9818&#45;&gt;Node10378 -->
<g id="edge53" class="edge">
<title>Node9818&#45;&gt;Node10378</title>
<path fill="none" stroke="#191970" d="M45.238,-553.108C53.2294,-463.7228 87.5719,-102.0505 123,-67 152.8351,-37.4829 274.0986,-30.7658 339.9494,-29.3222"/>
<polygon fill="#191970" stroke="#191970" points="41.7364,-552.9724 44.3411,-563.2421 48.7091,-553.5896 41.7364,-552.9724"/>
</g>
<!-- Node9819&#45;&gt;Node9820 -->
<g id="edge2" class="edge">
<title>Node9819&#45;&gt;Node9820</title>
<path fill="none" stroke="#191970" d="M251.1536,-906.1658C278.0884,-911.852 311.4557,-918.8962 337.8833,-924.4754"/>
<polygon fill="#191970" stroke="#191970" points="251.6807,-902.7 241.1734,-904.0588 250.2347,-909.549 251.6807,-902.7"/>
</g>
<!-- Node9819&#45;&gt;Node9825 -->
<g id="edge6" class="edge">
<title>Node9819&#45;&gt;Node9825</title>
<path fill="none" stroke="#191970" d="M251.436,-893.4285C328.8192,-888.8974 484.967,-878.0202 616,-858 632.1558,-855.5316 649.791,-851.933 665.0372,-848.5299"/>
<polygon fill="#191970" stroke="#191970" points="250.8329,-889.9573 241.0505,-894.026 251.2351,-896.9458 250.8329,-889.9573"/>
</g>
<!-- Node9819&#45;&gt;Node9829 -->
<g id="edge7" class="edge">
<title>Node9819&#45;&gt;Node9829</title>
<path fill="none" stroke="#191970" d="M251.0063,-888.9191C261.9315,-886.1486 273.1979,-882.3101 283,-877 324.2684,-854.6437 360.9627,-810.8332 375.8963,-791.5251"/>
<polygon fill="#191970" stroke="#191970" points="250.0915,-885.5378 241.1208,-891.1748 251.6488,-892.3624 250.0915,-885.5378"/>
</g>
<!-- Node9820&#45;&gt;Node10340 -->
<g id="edge3" class="edge">
<title>Node9820&#45;&gt;Node10340</title>
<path fill="none" stroke="#191970" d="M442.7053,-934C465.3533,-934 490.5344,-934 510.7544,-934"/>
<polygon fill="#191970" stroke="#191970" points="442.5047,-930.5001 432.5047,-934 442.5047,-937.5001 442.5047,-930.5001"/>
</g>
<!-- Node10340&#45;&gt;Node9825 -->
<g id="edge4" class="edge">
<title>Node10340&#45;&gt;Node9825</title>
<path fill="none" stroke="#191970" d="M592.0348,-921.021C600.2065,-917.873 608.5368,-914.1867 616,-910 647.4383,-892.3637 679.1533,-863.6607 694.6844,-848.7251"/>
<polygon fill="#191970" stroke="#191970" points="590.7741,-917.7552 582.5764,-924.4669 593.1704,-924.3323 590.7741,-917.7552"/>
</g>
<!-- Node9825&#45;&gt;Node9826 -->
<g id="edge5" class="edge">
<title>Node9825&#45;&gt;Node9826</title>
<path fill="none" stroke="#191970" d="M739.1288,-825.797C766.5792,-815.331 804.288,-800.9538 828.8954,-791.5716"/>
<polygon fill="#191970" stroke="#191970" points="737.6199,-822.6265 729.5229,-829.4595 740.1137,-829.1672 737.6199,-822.6265"/>
</g>
<!-- Node10005&#45;&gt;Node9825 -->
<g id="edge9" class="edge">
<title>Node10005&#45;&gt;Node9825</title>
<path fill="none" stroke="#191970" d="M266.5056,-717.514C272.0933,-718.646 277.6539,-719.8156 283,-721 431.9395,-753.9976 606.4846,-807.8058 674.888,-829.4946"/>
<polygon fill="#191970" stroke="#191970" points="266.9488,-714.0338 256.459,-715.5218 265.5872,-720.9001 266.9488,-714.0338"/>
</g>
<!-- Node10005&#45;&gt;Node9829 -->
<g id="edge10" class="edge">
<title>Node10005&#45;&gt;Node9829</title>
<path fill="none" stroke="#191970" d="M255.0824,-718.5702C264.6169,-721.719 274.2964,-725.5102 283,-730 301.0142,-739.2927 301.3087,-748.1064 319,-758 329.2535,-763.7342 341.1479,-768.6225 351.8806,-772.4617"/>
<polygon fill="#191970" stroke="#191970" points="255.8338,-715.1388 245.2458,-715.519 253.7599,-721.8246 255.8338,-715.1388"/>
</g>
<!-- Node10173&#45;&gt;Node9825 -->
<g id="edge12" class="edge">
<title>Node10173&#45;&gt;Node9825</title>
<path fill="none" stroke="#191970" d="M267.1688,-675.1405C350.9795,-686.3724 500.6071,-713.0502 616,-770 648.1461,-785.8651 679.8014,-814.5696 695.0647,-829.461"/>
<polygon fill="#191970" stroke="#191970" points="267.4021,-671.6413 257.0326,-673.8146 266.4941,-678.5821 267.4021,-671.6413"/>
</g>
<!-- Node10173&#45;&gt;Node9829 -->
<g id="edge13" class="edge">
<title>Node10173&#45;&gt;Node9829</title>
<path fill="none" stroke="#191970" d="M267.2879,-680.0385C272.7432,-682.0194 278.0577,-684.3226 283,-687 288.3691,-689.9086 348.6822,-748.5075 372.9628,-772.1934"/>
<polygon fill="#191970" stroke="#191970" points="267.9585,-676.5761 257.3663,-676.8099 265.7924,-683.2326 267.9585,-676.5761"/>
</g>
<!-- Node10339&#45;&gt;Node9825 -->
<g id="edge15" class="edge">
<title>Node10339&#45;&gt;Node9825</title>
<path fill="none" stroke="#191970" d="M275.7429,-855.244C378.0163,-851.3693 561.8601,-844.4041 651.9039,-840.9927"/>
<polygon fill="#191970" stroke="#191970" points="275.3616,-851.7559 265.5013,-855.6321 275.6267,-858.7509 275.3616,-851.7559"/>
</g>
<!-- Node10339&#45;&gt;Node9829 -->
<g id="edge16" class="edge">
<title>Node10339&#45;&gt;Node9829</title>
<path fill="none" stroke="#191970" d="M263.1198,-845.695C269.9132,-843.7251 276.6651,-841.4982 283,-839 315.5327,-826.1708 350.3171,-804.2454 369.0722,-791.6551"/>
<polygon fill="#191970" stroke="#191970" points="261.9111,-842.3966 253.1806,-848.3991 263.7487,-849.1511 261.9111,-842.3966"/>
</g>
<!-- Node10103&#45;&gt;Node9825 -->
<g id="edge19" class="edge">
<title>Node10103&#45;&gt;Node9825</title>
<path fill="none" stroke="#191970" d="M601.3761,-681.7533C606.7015,-684.5662 611.7184,-687.9447 616,-692 645.7864,-720.2122 630.4994,-742.0589 652,-777 664.4181,-797.1809 683.1473,-817.5756 694.5563,-829.2122"/>
<polygon fill="#191970" stroke="#191970" points="602.7459,-678.5309 592.1981,-677.5338 599.8219,-684.891 602.7459,-678.5309"/>
</g>
<!-- Node10103&#45;&gt;Node9826 -->
<g id="edge18" class="edge">
<title>Node10103&#45;&gt;Node9826</title>
<path fill="none" stroke="#191970" d="M585.862,-681.0105C595.6574,-684.546 606.2426,-688.3946 616,-692 693.9012,-720.7847 785.74,-755.8295 829.0329,-772.4161"/>
<polygon fill="#191970" stroke="#191970" points="586.9841,-677.6946 576.3896,-677.5998 584.6126,-684.2806 586.9841,-677.6946"/>
</g>
<!-- Node10341&#45;&gt;Node9826 -->
<g id="edge24" class="edge">
<title>Node10341&#45;&gt;Node9826</title>
<path fill="none" stroke="#191970" d="M722.8661,-665.339C754.2889,-693.2938 817.4401,-749.4752 842.9424,-772.1628"/>
<polygon fill="#191970" stroke="#191970" points="725.0494,-662.5968 715.2517,-658.565 720.3967,-667.8268 725.0494,-662.5968"/>
</g>
<!-- Node10220&#45;&gt;Node9837 -->
<g id="edge29" class="edge">
<title>Node10220&#45;&gt;Node9837</title>
<path fill="none" stroke="#191970" d="M274.2622,-516C289.0013,-516 304.4419,-516 318.9066,-516"/>
<polygon fill="#191970" stroke="#191970" points="274.191,-512.5001 264.191,-516 274.1909,-519.5001 274.191,-512.5001"/>
</g>
<!-- Node10225&#45;&gt;Node9837 -->
<g id="edge31" class="edge">
<title>Node10225&#45;&gt;Node9837</title>
<path fill="none" stroke="#191970" d="M258.331,-489.681C283.8574,-495.0699 313.7761,-501.3861 337.905,-506.4799"/>
<polygon fill="#191970" stroke="#191970" points="258.9289,-486.2301 248.4216,-487.589 257.483,-493.0792 258.9289,-486.2301"/>
</g>
<!-- Node10084&#45;&gt;Node9825 -->
<g id="edge37" class="edge">
<title>Node10084&#45;&gt;Node9825</title>
<path fill="none" stroke="#191970" d="M273.1613,-822.6582C374.8057,-826.5091 560.7718,-833.5547 651.6655,-836.9983"/>
<polygon fill="#191970" stroke="#191970" points="273.1199,-819.1542 262.9945,-822.273 272.8548,-826.1491 273.1199,-819.1542"/>
</g>
<!-- Node10084&#45;&gt;Node9829 -->
<g id="edge38" class="edge">
<title>Node10084&#45;&gt;Node9829</title>
<path fill="none" stroke="#191970" d="M258.2885,-808.328C286.902,-802.2874 321.0436,-795.0797 346.3641,-789.7342"/>
<polygon fill="#191970" stroke="#191970" points="257.483,-804.9208 248.4216,-810.411 258.9289,-811.7699 257.483,-804.9208"/>
</g>
<!-- Node10098&#45;&gt;Node9825 -->
<g id="edge46" class="edge">
<title>Node10098&#45;&gt;Node9825</title>
<path fill="none" stroke="#191970" d="M602.0626,-1072.023C607.1492,-1069.2568 611.9233,-1065.9505 616,-1062 680.9096,-999.0999 699.3663,-882.6049 703.4833,-848.5702"/>
<polygon fill="#191970" stroke="#191970" points="600.217,-1069.0228 592.6524,-1076.4409 603.1919,-1075.3592 600.217,-1069.0228"/>
</g>
<!-- Node10376&#45;&gt;Node9820 -->
<g id="edge48" class="edge">
<title>Node10376&#45;&gt;Node9820</title>
<path fill="none" stroke="#191970" d="M258.331,-960.319C283.8574,-954.9301 313.7761,-948.6139 337.905,-943.5201"/>
<polygon fill="#191970" stroke="#191970" points="257.483,-956.9208 248.4216,-962.411 258.9289,-963.7699 257.483,-956.9208"/>
</g>
<!-- Node10006&#45;&gt;Node9829 -->
<g id="edge50" class="edge">
<title>Node10006&#45;&gt;Node9829</title>
<path fill="none" stroke="#191970" d="M271.7657,-782C297.1291,-782 324.8785,-782 346.3166,-782"/>
<polygon fill="#191970" stroke="#191970" points="271.4409,-778.5001 261.4408,-782 271.4408,-785.5001 271.4409,-778.5001"/>
</g>
<!-- Node10377&#45;&gt;Node10378 -->
<g id="edge52" class="edge">
<title>Node10377&#45;&gt;Node10378</title>
<path fill="none" stroke="#191970" d="M266.7234,-16.7264C290.9876,-19.2876 318.0448,-22.1436 339.949,-24.4557"/>
<polygon fill="#191970" stroke="#191970" points="266.8308,-13.2183 256.5186,-15.6492 266.0959,-20.1797 266.8308,-13.2183"/>
</g>
</g>
</svg>
