<?xml version="1.0" encoding="UTF-8" standalone="no"?>
<!DOCTYPE svg PUBLIC "-//W3C//DTD SVG 1.1//EN"
 "http://www.w3.org/Graphics/SVG/1.1/DTD/svg11.dtd">
<!-- Generated by graphviz version 2.40.1 (20161225.0304)
 -->
<!-- Title: mutt_push_macro_event Pages: 1 -->
<svg width="282pt" height="104pt"
 viewBox="0.00 0.00 282.00 104.00" xmlns="http://www.w3.org/2000/svg" xmlns:xlink="http://www.w3.org/1999/xlink">
<g id="graph0" class="graph" transform="scale(1 1) rotate(0) translate(4 100)">
<title>mutt_push_macro_event</title>
<polygon fill="#ffffff" stroke="transparent" points="-4,4 -4,-100 278,-100 278,4 -4,4"/>
<!-- Node23283 -->
<g id="node1" class="node">
<title>Node23283</title>
<polygon fill="#bfbfbf" stroke="#000000" points="0,-38.5 0,-57.5 137,-57.5 137,-38.5 0,-38.5"/>
<text text-anchor="middle" x="68.5" y="-45.5" font-family="Helvetica,sans-Serif" font-size="10.00" fill="#000000">mutt_push_macro_event</text>
</g>
<!-- Node23284 -->
<g id="node2" class="node">
<title>Node23284</title>
<g id="a_node2"><a xlink:href="keymap_8h.html#a9fa27bc0a5dc94d95f1530bab3036e85" target="_top" xlink:title="Determine what a keypress should do. ">
<polygon fill="#ffffff" stroke="#ff0000" points="189.5,-76.5 189.5,-95.5 257.5,-95.5 257.5,-76.5 189.5,-76.5"/>
<text text-anchor="middle" x="223.5" y="-83.5" font-family="Helvetica,sans-Serif" font-size="10.00" fill="#000000">km_dokey</text>
</a>
</g>
</g>
<!-- Node23283&#45;&gt;Node23284 -->
<g id="edge1" class="edge">
<title>Node23283&#45;&gt;Node23284</title>
<path fill="none" stroke="#191970" d="M117.3726,-59.9817C140.7956,-65.7241 168.2778,-72.4617 189.4067,-77.6416"/>
<polygon fill="#191970" stroke="#191970" points="118.1588,-56.5708 107.613,-57.589 116.492,-63.3695 118.1588,-56.5708"/>
</g>
<!-- Node23840 -->
<g id="node3" class="node">
<title>Node23840</title>
<g id="a_node3"><a xlink:href="keymap_8h.html#aee353816c517466abb6a0fc6ab80be89" target="_top" xlink:title="Parse the &#39;push&#39; command &#45; Implements Command::parse() ">
<polygon fill="#ffffff" stroke="#000000" points="173,-38.5 173,-57.5 274,-57.5 274,-38.5 173,-38.5"/>
<text text-anchor="middle" x="223.5" y="-45.5" font-family="Helvetica,sans-Serif" font-size="10.00" fill="#000000">mutt_parse_push</text>
</a>
</g>
</g>
<!-- Node23283&#45;&gt;Node23840 -->
<g id="edge2" class="edge">
<title>Node23283&#45;&gt;Node23840</title>
<path fill="none" stroke="#191970" d="M147.5244,-48C156.1713,-48 164.7929,-48 172.9583,-48"/>
<polygon fill="#191970" stroke="#191970" points="147.3879,-44.5001 137.3879,-48 147.3879,-51.5001 147.3879,-44.5001"/>
</g>
<!-- Node23841 -->
<g id="node4" class="node">
<title>Node23841</title>
<g id="a_node4"><a xlink:href="keymap_8h.html#af84f116289baf67db6243a7442a03b4f" target="_top" xlink:title="Parse the &#39;exec&#39; command &#45; Implements Command::parse() ">
<polygon fill="#ffffff" stroke="#000000" points="173,-.5 173,-19.5 274,-19.5 274,-.5 173,-.5"/>
<text text-anchor="middle" x="223.5" y="-7.5" font-family="Helvetica,sans-Serif" font-size="10.00" fill="#000000">mutt_parse_exec</text>
</a>
</g>
</g>
<!-- Node23283&#45;&gt;Node23841 -->
<g id="edge3" class="edge">
<title>Node23283&#45;&gt;Node23841</title>
<path fill="none" stroke="#191970" d="M117.6105,-35.96C139.2647,-30.6512 164.3502,-24.5012 184.6682,-19.5201"/>
<polygon fill="#191970" stroke="#191970" points="116.492,-32.6305 107.613,-38.411 118.1588,-39.4292 116.492,-32.6305"/>
</g>
</g>
</svg>
