<?xml version="1.0" encoding="UTF-8" standalone="no"?>
<!DOCTYPE svg PUBLIC "-//W3C//DTD SVG 1.1//EN"
 "http://www.w3.org/Graphics/SVG/1.1/DTD/svg11.dtd">
<!-- Generated by graphviz version 2.44.0 (0)
 -->
<!-- Title: mutt_do_pager Pages: 1 -->
<svg width="371pt" height="332pt"
 viewBox="0.00 0.00 371.00 332.00" xmlns="http://www.w3.org/2000/svg" xmlns:xlink="http://www.w3.org/1999/xlink">
<g id="graph0" class="graph" transform="scale(1 1) rotate(0) translate(4 328)">
<title>mutt_do_pager</title>
<polygon fill="white" stroke="transparent" points="-4,4 -4,-328 367,-328 367,4 -4,4"/>
<!-- Node1 -->
<g id="node1" class="node">
<title>Node1</title>
<g id="a_node1"><a xlink:title="Display some page&#45;able text to the user.">
<polygon fill="#bfbfbf" stroke="black" points="282,-152.5 282,-171.5 363,-171.5 363,-152.5 282,-152.5"/>
<text text-anchor="middle" x="322.5" y="-159.5" font-family="Helvetica" font-size="10.00">mutt_do_pager</text>
</a>
</g>
</g>
<!-- Node2 -->
<g id="node2" class="node">
<title>Node2</title>
<g id="a_node2"><a xlink:href="ncrypt_2private_8h.html#a50a5ee4ba10a3dad62aacea16484df42" target="_top" xlink:title="Let the user select a key to use.">
<polygon fill="white" stroke="red" points="136.5,-304.5 136.5,-323.5 239.5,-323.5 239.5,-304.5 136.5,-304.5"/>
<text text-anchor="middle" x="188" y="-311.5" font-family="Helvetica" font-size="10.00">dlg_select_pgp_key</text>
</a>
</g>
</g>
<!-- Node1&#45;&gt;Node2 -->
<g id="edge1" class="edge">
<title>Node1&#45;&gt;Node2</title>
<path fill="none" stroke="midnightblue" d="M315.54,-181.33C305.68,-210.17 283.28,-264.35 246,-295 241.33,-298.84 235.85,-301.92 230.16,-304.38"/>
<polygon fill="midnightblue" stroke="midnightblue" points="318.94,-182.21 318.71,-171.62 312.28,-180.04 318.94,-182.21"/>
</g>
<!-- Node9 -->
<g id="node3" class="node">
<title>Node9</title>
<g id="a_node3"><a xlink:href="icommands_8c.html#a5bfcead22b4fe48bedac67a5e68231c4" target="_top" xlink:title="Parse &#39;bind&#39; and &#39;macro&#39; commands &#45; Implements ICommand::parse()">
<polygon fill="white" stroke="black" points="157.5,-266.5 157.5,-285.5 218.5,-285.5 218.5,-266.5 157.5,-266.5"/>
<text text-anchor="middle" x="188" y="-273.5" font-family="Helvetica" font-size="10.00">icmd_bind</text>
</a>
</g>
</g>
<!-- Node1&#45;&gt;Node9 -->
<g id="edge2" class="edge">
<title>Node1&#45;&gt;Node9</title>
<path fill="none" stroke="midnightblue" d="M311.4,-180.35C298.76,-201.68 275.19,-236.58 246,-257 237.88,-262.68 227.94,-266.76 218.64,-269.65"/>
<polygon fill="midnightblue" stroke="midnightblue" points="314.48,-182.02 316.42,-171.6 308.4,-178.53 314.48,-182.02"/>
</g>
<!-- Node10 -->
<g id="node4" class="node">
<title>Node10</title>
<g id="a_node4"><a xlink:href="icommands_8c.html#a442157e6a64c4842777767ed3ceaa3bf" target="_top" xlink:title="Parse &#39;set&#39; command to display config &#45; Implements ICommand::parse()">
<polygon fill="white" stroke="black" points="160,-228.5 160,-247.5 216,-247.5 216,-228.5 160,-228.5"/>
<text text-anchor="middle" x="188" y="-235.5" font-family="Helvetica" font-size="10.00">icmd_set</text>
</a>
</g>
</g>
<!-- Node1&#45;&gt;Node10 -->
<g id="edge3" class="edge">
<title>Node1&#45;&gt;Node10</title>
<path fill="none" stroke="midnightblue" d="M303.25,-178.49C288.63,-190.99 267.14,-207.88 246,-219 236.68,-223.9 225.84,-227.9 216.13,-230.93"/>
<polygon fill="midnightblue" stroke="midnightblue" points="305.78,-180.92 311.01,-171.7 301.18,-175.65 305.78,-180.92"/>
</g>
<!-- Node11 -->
<g id="node5" class="node">
<title>Node11</title>
<g id="a_node5"><a xlink:href="icommands_8c.html#a5eb034dc842c438ffc15252e4326d53e" target="_top" xlink:title="Parse &#39;version&#39; command &#45; Implements ICommand::parse()">
<polygon fill="white" stroke="black" points="151,-190.5 151,-209.5 225,-209.5 225,-190.5 151,-190.5"/>
<text text-anchor="middle" x="188" y="-197.5" font-family="Helvetica" font-size="10.00">icmd_version</text>
</a>
</g>
</g>
<!-- Node1&#45;&gt;Node11 -->
<g id="edge4" class="edge">
<title>Node1&#45;&gt;Node11</title>
<path fill="none" stroke="midnightblue" d="M278.3,-174.39C260.15,-179.59 239.37,-185.55 222.42,-190.41"/>
<polygon fill="midnightblue" stroke="midnightblue" points="279.42,-177.71 288.06,-171.59 277.49,-170.98 279.42,-177.71"/>
</g>
<!-- Node12 -->
<g id="node6" class="node">
<title>Node12</title>
<g id="a_node6"><a xlink:href="protos_8h.html#ac6179843b87f01ba1a8dda459daca237" target="_top" xlink:title="Display the help menu.">
<polygon fill="white" stroke="red" points="158.5,-152.5 158.5,-171.5 217.5,-171.5 217.5,-152.5 158.5,-152.5"/>
<text text-anchor="middle" x="188" y="-159.5" font-family="Helvetica" font-size="10.00">mutt_help</text>
</a>
</g>
</g>
<!-- Node1&#45;&gt;Node12 -->
<g id="edge5" class="edge">
<title>Node1&#45;&gt;Node12</title>
<path fill="none" stroke="midnightblue" d="M271.58,-162C253.42,-162 233.5,-162 217.78,-162"/>
<polygon fill="midnightblue" stroke="midnightblue" points="271.75,-165.5 281.75,-162 271.75,-158.5 271.75,-165.5"/>
</g>
<!-- Node13 -->
<g id="node7" class="node">
<title>Node13</title>
<g id="a_node7"><a xlink:href="index_2lib_8h.html#aa6202cffa700d674df25a7c5c02554d0" target="_top" xlink:title="Display a list of emails.">
<polygon fill="white" stroke="red" points="0,-133.5 0,-152.5 94,-152.5 94,-133.5 0,-133.5"/>
<text text-anchor="middle" x="47" y="-140.5" font-family="Helvetica" font-size="10.00">mutt_index_menu</text>
</a>
</g>
</g>
<!-- Node1&#45;&gt;Node13 -->
<g id="edge7" class="edge">
<title>Node1&#45;&gt;Node13</title>
<path fill="none" stroke="midnightblue" d="M281,-149.86C269.77,-147.03 257.5,-144.43 246,-143 194.32,-136.6 134.46,-137.77 94.21,-139.8"/>
<polygon fill="midnightblue" stroke="midnightblue" points="280.41,-153.32 290.97,-152.49 282.2,-146.55 280.41,-153.32"/>
</g>
<!-- Node264 -->
<g id="node8" class="node">
<title>Node264</title>
<g id="a_node8"><a xlink:href="sendmail_8h.html#a5562a863571c41379b43fd780735776c" target="_top" xlink:title="Run sendmail.">
<polygon fill="white" stroke="red" points="131.5,-76.5 131.5,-95.5 244.5,-95.5 244.5,-76.5 131.5,-76.5"/>
<text text-anchor="middle" x="188" y="-83.5" font-family="Helvetica" font-size="10.00">mutt_invoke_sendmail</text>
</a>
</g>
</g>
<!-- Node1&#45;&gt;Node264 -->
<g id="edge8" class="edge">
<title>Node1&#45;&gt;Node264</title>
<path fill="none" stroke="midnightblue" d="M300.8,-146.03C286.03,-135.07 265.42,-120.63 246,-110 236.11,-104.59 224.74,-99.58 214.78,-95.55"/>
<polygon fill="midnightblue" stroke="midnightblue" points="299.09,-149.12 309.18,-152.34 303.3,-143.53 299.09,-149.12"/>
</g>
<!-- Node212 -->
<g id="node9" class="node">
<title>Node212</title>
<g id="a_node9"><a xlink:href="mutt__attach_8h.html#accdda994ba4457544dcf9ae681cfb6b9" target="_top" xlink:title="View an attachment.">
<polygon fill="white" stroke="red" points="130,-38.5 130,-57.5 246,-57.5 246,-38.5 130,-38.5"/>
<text text-anchor="middle" x="188" y="-45.5" font-family="Helvetica" font-size="10.00">mutt_view_attachment</text>
</a>
</g>
</g>
<!-- Node1&#45;&gt;Node212 -->
<g id="edge9" class="edge">
<title>Node1&#45;&gt;Node212</title>
<path fill="none" stroke="midnightblue" d="M311.4,-143.65C298.76,-122.32 275.19,-87.42 246,-67 240.53,-63.17 234.23,-60.07 227.86,-57.57"/>
<polygon fill="midnightblue" stroke="midnightblue" points="308.4,-145.47 316.42,-152.4 314.48,-141.98 308.4,-145.47"/>
</g>
<!-- Node547 -->
<g id="node10" class="node">
<title>Node547</title>
<g id="a_node10"><a xlink:href="dlggpgme_8c.html#abf137f94451de251c8179788615f4b74" target="_top" xlink:title="Show detailed information about the selected key.">
<polygon fill="white" stroke="red" points="158,-0.5 158,-19.5 218,-19.5 218,-0.5 158,-0.5"/>
<text text-anchor="middle" x="188" y="-7.5" font-family="Helvetica" font-size="10.00">verify_key</text>
</a>
</g>
</g>
<!-- Node1&#45;&gt;Node547 -->
<g id="edge10" class="edge">
<title>Node1&#45;&gt;Node547</title>
<path fill="none" stroke="midnightblue" d="M315.54,-142.67C305.68,-113.83 283.28,-59.65 246,-29 238.02,-22.44 227.69,-18.11 218.02,-15.27"/>
<polygon fill="midnightblue" stroke="midnightblue" points="312.28,-143.96 318.71,-152.38 318.94,-141.79 312.28,-143.96"/>
</g>
<!-- Node12&#45;&gt;Node13 -->
<g id="edge6" class="edge">
<title>Node12&#45;&gt;Node13</title>
<path fill="none" stroke="midnightblue" d="M148.21,-156.7C131.47,-154.41 111.76,-151.72 94.27,-149.33"/>
<polygon fill="midnightblue" stroke="midnightblue" points="147.82,-160.18 158.2,-158.06 148.77,-153.24 147.82,-160.18"/>
</g>
</g>
</svg>
