<?xml version="1.0" encoding="UTF-8" standalone="no"?>
<!DOCTYPE svg PUBLIC "-//W3C//DTD SVG 1.1//EN"
 "http://www.w3.org/Graphics/SVG/1.1/DTD/svg11.dtd">
<!-- Generated by graphviz version 2.44.0 (0)
 -->
<!-- Title: mutt_push_macro_event Pages: 1 -->
<svg width="259pt" height="104pt"
 viewBox="0.00 0.00 259.00 104.00" xmlns="http://www.w3.org/2000/svg" xmlns:xlink="http://www.w3.org/1999/xlink">
<g id="graph0" class="graph" transform="scale(1 1) rotate(0) translate(4 100)">
<title>mutt_push_macro_event</title>
<polygon fill="white" stroke="transparent" points="-4,4 -4,-100 255,-100 255,4 -4,4"/>
<!-- Node1 -->
<g id="node1" class="node">
<title>Node1</title>
<g id="a_node1"><a xlink:title="Add the character/operation to the macro buffer.">
<polygon fill="#bfbfbf" stroke="black" points="128,-38.5 128,-57.5 251,-57.5 251,-38.5 128,-38.5"/>
<text text-anchor="middle" x="189.5" y="-45.5" font-family="Helvetica" font-size="10.00">mutt_push_macro_event</text>
</a>
</g>
</g>
<!-- Node2 -->
<g id="node2" class="node">
<title>Node2</title>
<g id="a_node2"><a xlink:href="keymap_8h.html#a9fa27bc0a5dc94d95f1530bab3036e85" target="_top" xlink:title="Determine what a keypress should do.">
<polygon fill="white" stroke="red" points="15.5,-76.5 15.5,-95.5 76.5,-95.5 76.5,-76.5 15.5,-76.5"/>
<text text-anchor="middle" x="46" y="-83.5" font-family="Helvetica" font-size="10.00">km_dokey</text>
</a>
</g>
</g>
<!-- Node1&#45;&gt;Node2 -->
<g id="edge1" class="edge">
<title>Node1&#45;&gt;Node2</title>
<path fill="none" stroke="midnightblue" d="M142.84,-60.26C121.25,-66.06 96.08,-72.82 76.95,-77.96"/>
<polygon fill="midnightblue" stroke="midnightblue" points="144.04,-63.56 152.79,-57.59 142.23,-56.8 144.04,-63.56"/>
</g>
<!-- Node549 -->
<g id="node3" class="node">
<title>Node549</title>
<g id="a_node3"><a xlink:href="keymap_8h.html#af84f116289baf67db6243a7442a03b4f" target="_top" xlink:title="Parse the &#39;exec&#39; command &#45; Implements Command::parse()">
<polygon fill="white" stroke="black" points="0,-38.5 0,-57.5 92,-57.5 92,-38.5 0,-38.5"/>
<text text-anchor="middle" x="46" y="-45.5" font-family="Helvetica" font-size="10.00">mutt_parse_exec</text>
</a>
</g>
</g>
<!-- Node1&#45;&gt;Node549 -->
<g id="edge2" class="edge">
<title>Node1&#45;&gt;Node549</title>
<path fill="none" stroke="midnightblue" d="M117.62,-48C109.04,-48 100.46,-48 92.39,-48"/>
<polygon fill="midnightblue" stroke="midnightblue" points="117.67,-51.5 127.67,-48 117.67,-44.5 117.67,-51.5"/>
</g>
<!-- Node550 -->
<g id="node4" class="node">
<title>Node550</title>
<g id="a_node4"><a xlink:href="keymap_8h.html#aee353816c517466abb6a0fc6ab80be89" target="_top" xlink:title="Parse the &#39;push&#39; command &#45; Implements Command::parse()">
<polygon fill="white" stroke="black" points="0,-0.5 0,-19.5 92,-19.5 92,-0.5 0,-0.5"/>
<text text-anchor="middle" x="46" y="-7.5" font-family="Helvetica" font-size="10.00">mutt_parse_push</text>
</a>
</g>
</g>
<!-- Node1&#45;&gt;Node550 -->
<g id="edge3" class="edge">
<title>Node1&#45;&gt;Node550</title>
<path fill="none" stroke="midnightblue" d="M142.9,-35.75C123.39,-30.52 100.96,-24.49 82.7,-19.59"/>
<polygon fill="midnightblue" stroke="midnightblue" points="142.23,-39.2 152.79,-38.41 144.04,-32.44 142.23,-39.2"/>
</g>
</g>
</svg>
