<?xml version="1.0" encoding="UTF-8" standalone="no"?>
<!DOCTYPE svg PUBLIC "-//W3C//DTD SVG 1.1//EN"
 "http://www.w3.org/Graphics/SVG/1.1/DTD/svg11.dtd">
<!-- Generated by graphviz version 12.2.1 (20241206.2353)
 -->
<!-- Title: mutt_date_localtime_format Pages: 1 -->
<svg width="432pt" height="668pt"
 viewBox="0.00 0.00 431.75 668.25" xmlns="http://www.w3.org/2000/svg" xmlns:xlink="http://www.w3.org/1999/xlink">
<g id="graph0" class="graph" transform="scale(1 1) rotate(0) translate(4 664.25)">
<title>mutt_date_localtime_format</title>
<!-- Node1 -->
<g id="Node000001" class="node">
<title>Node1</title>
<g id="a_Node000001"><a xlink:title="Format localtime.">
<polygon fill="#999999" stroke="#666666" points="423.75,-349.38 314,-349.38 314,-312.88 423.75,-312.88 423.75,-349.38"/>
<text text-anchor="start" x="322" y="-335.88" font-family="Helvetica,sans-Serif" font-size="10.00">mutt_date_localtime</text>
<text text-anchor="middle" x="368.88" y="-321.62" font-family="Helvetica,sans-Serif" font-size="10.00">_format</text>
</a>
</g>
</g>
<!-- Node2 -->
<g id="Node000002" class="node">
<title>Node2</title>
<g id="a_Node000002"><a xlink:href="crypt_8c.html#ac85f3f9345f53423bce29d478a6d7aaa" target="_top" xlink:title="Print the current time.">
<polygon fill="#fff0f0" stroke="red" points="250.62,-660.25 146.12,-660.25 146.12,-638 250.62,-638 250.62,-660.25"/>
<text text-anchor="middle" x="198.38" y="-646.75" font-family="Helvetica,sans-Serif" font-size="10.00">crypt_current_time</text>
</a>
</g>
</g>
<!-- Node1&#45;&gt;Node2 -->
<g id="edge1_Node000001_Node000002" class="edge">
<title>Node1&#45;&gt;Node2</title>
<g id="a_edge1_Node000001_Node000002"><a xlink:title=" ">
<path fill="none" stroke="#63b8ff" d="M367.4,-361.28C364.81,-420.07 350.69,-550.69 278,-624.12 270.54,-631.66 260.83,-636.93 250.78,-640.61"/>
<polygon fill="#63b8ff" stroke="#63b8ff" points="370.89,-361.5 367.74,-351.38 363.9,-361.25 370.89,-361.5"/>
</a>
</g>
</g>
<!-- Node10 -->
<g id="Node000010" class="node">
<title>Node10</title>
<g id="a_Node000010"><a xlink:href="graphviz_8c.html#a2fb5a84f0b769c2111b6409f7b110d2f" target="_top" xlink:title=" ">
<polygon fill="#fff0f0" stroke="red" points="82.75,-321.25 0,-321.25 0,-299 82.75,-299 82.75,-321.25"/>
<text text-anchor="middle" x="41.38" y="-307.75" font-family="Helvetica,sans-Serif" font-size="10.00">dot_type_date</text>
</a>
</g>
</g>
<!-- Node1&#45;&gt;Node10 -->
<g id="edge2_Node000001_Node000010" class="edge">
<title>Node1&#45;&gt;Node10</title>
<g id="a_edge2_Node000001_Node000010"><a xlink:title=" ">
<path fill="none" stroke="#63b8ff" d="M367.86,-361.03C366.01,-417.21 353.02,-537.68 278,-591.12 220.35,-632.19 174.98,-634.11 118.75,-591.12 74.07,-556.97 49.36,-369.92 43.66,-321.55"/>
<polygon fill="#63b8ff" stroke="#63b8ff" points="371.35,-361.34 368.07,-351.26 364.36,-361.18 371.35,-361.34"/>
</a>
</g>
</g>
<!-- Node14 -->
<g id="Node000014" class="node">
<title>Node14</title>
<g id="a_Node000014"><a xlink:href="graphviz_8c.html#a54eabafd4cc8fe92175f85be7b7a8df8" target="_top" xlink:title=" ">
<polygon fill="#fff0f0" stroke="red" points="241.62,-582.25 155.12,-582.25 155.12,-560 241.62,-560 241.62,-582.25"/>
<text text-anchor="middle" x="198.38" y="-568.75" font-family="Helvetica,sans-Serif" font-size="10.00">dump_graphviz</text>
</a>
</g>
</g>
<!-- Node1&#45;&gt;Node14 -->
<g id="edge3_Node000001_Node000014" class="edge">
<title>Node1&#45;&gt;Node14</title>
<g id="a_edge3_Node000001_Node000014"><a xlink:title=" ">
<path fill="none" stroke="#63b8ff" d="M364.25,-361.02C356.85,-408.54 335.55,-501.05 278,-551.12 268.01,-559.82 254.76,-564.82 241.98,-567.67"/>
<polygon fill="#63b8ff" stroke="#63b8ff" points="367.7,-361.58 365.66,-351.19 360.77,-360.59 367.7,-361.58"/>
</a>
</g>
</g>
<!-- Node24 -->
<g id="Node000024" class="node">
<title>Node24</title>
<g id="a_Node000024"><a xlink:href="graphviz_8c.html#ad9580d8dcd7ecd744ed9786d804137b4" target="_top" xlink:title=" ">
<polygon fill="white" stroke="#666666" points="267.12,-542.25 129.62,-542.25 129.62,-520 267.12,-520 267.12,-542.25"/>
<text text-anchor="middle" x="198.38" y="-528.75" font-family="Helvetica,sans-Serif" font-size="10.00">dump_graphviz_attach_ctx</text>
</a>
</g>
</g>
<!-- Node1&#45;&gt;Node24 -->
<g id="edge4_Node000001_Node000024" class="edge">
<title>Node1&#45;&gt;Node24</title>
<g id="a_edge4_Node000001_Node000024"><a xlink:title=" ">
<path fill="none" stroke="#63b8ff" d="M361.32,-360.56C350.81,-400.75 326.27,-472.22 278,-511.12 273.83,-514.48 269.17,-517.29 264.25,-519.62"/>
<polygon fill="#63b8ff" stroke="#63b8ff" points="364.65,-361.65 363.67,-351.1 357.86,-359.96 364.65,-361.65"/>
</a>
</g>
</g>
<!-- Node27 -->
<g id="Node000027" class="node">
<title>Node27</title>
<g id="a_Node000027"><a xlink:href="graphviz_8c.html#a201965152e4ed08a1be21469f5753964" target="_top" xlink:title=" ">
<polygon fill="white" stroke="#666666" points="255.5,-502.25 141.25,-502.25 141.25,-480 255.5,-480 255.5,-502.25"/>
<text text-anchor="middle" x="198.38" y="-488.75" font-family="Helvetica,sans-Serif" font-size="10.00">dump_graphviz_body</text>
</a>
</g>
</g>
<!-- Node1&#45;&gt;Node27 -->
<g id="edge5_Node000001_Node000027" class="edge">
<title>Node1&#45;&gt;Node27</title>
<g id="a_edge5_Node000001_Node000027"><a xlink:title=" ">
<path fill="none" stroke="#63b8ff" d="M356.88,-360.25C343.26,-392.31 316.98,-443.02 278,-471.12 271.37,-475.9 263.71,-479.54 255.83,-482.31"/>
<polygon fill="#63b8ff" stroke="#63b8ff" points="360.05,-361.74 360.59,-351.16 353.57,-359.09 360.05,-361.74"/>
</a>
</g>
</g>
<!-- Node26 -->
<g id="Node000026" class="node">
<title>Node26</title>
<g id="a_Node000026"><a xlink:href="graphviz_8c.html#aec7f857f0480db95db00ee8ec4256706" target="_top" xlink:title=" ">
<polygon fill="white" stroke="#666666" points="256.25,-462.25 140.5,-462.25 140.5,-440 256.25,-440 256.25,-462.25"/>
<text text-anchor="middle" x="198.38" y="-448.75" font-family="Helvetica,sans-Serif" font-size="10.00">dump_graphviz_email</text>
</a>
</g>
</g>
<!-- Node1&#45;&gt;Node26 -->
<g id="edge6_Node000001_Node000026" class="edge">
<title>Node1&#45;&gt;Node26</title>
<g id="a_edge6_Node000001_Node000026"><a xlink:title=" ">
<path fill="none" stroke="#63b8ff" d="M349.76,-359.12C333.61,-381.86 307.93,-413.03 278,-431.12 271.37,-435.13 263.96,-438.34 256.41,-440.91"/>
<polygon fill="#63b8ff" stroke="#63b8ff" points="352.64,-361.11 355.43,-350.89 346.88,-357.14 352.64,-361.11"/>
</a>
</g>
</g>
<!-- Node32 -->
<g id="Node000032" class="node">
<title>Node32</title>
<g id="a_Node000032"><a xlink:href="graphviz_8c.html#a7b9b32b9bd9decc597d2e65b094536c7" target="_top" xlink:title=" ">
<polygon fill="white" stroke="#666666" points="278,-422.25 118.75,-422.25 118.75,-400 278,-400 278,-422.25"/>
<text text-anchor="middle" x="198.38" y="-408.75" font-family="Helvetica,sans-Serif" font-size="10.00">dump_graphviz_expando_node</text>
</a>
</g>
</g>
<!-- Node1&#45;&gt;Node32 -->
<g id="edge7_Node000001_Node000032" class="edge">
<title>Node1&#45;&gt;Node32</title>
<g id="a_edge7_Node000001_Node000032"><a xlink:title=" ">
<path fill="none" stroke="#63b8ff" d="M335.61,-356.57C319.15,-368.51 298.34,-382.07 278,-391.12 270.67,-394.39 262.7,-397.19 254.75,-399.58"/>
<polygon fill="#63b8ff" stroke="#63b8ff" points="337.6,-359.45 343.54,-350.68 333.43,-353.83 337.6,-359.45"/>
</a>
</g>
</g>
<!-- Node33 -->
<g id="Node000033" class="node">
<title>Node33</title>
<g id="a_Node000033"><a xlink:href="graphviz_8c.html#ad14c84b9ec6bb528da099815f6354ef7" target="_top" xlink:title=" ">
<polygon fill="white" stroke="#666666" points="267.88,-382.25 128.88,-382.25 128.88,-360 267.88,-360 267.88,-382.25"/>
<text text-anchor="middle" x="198.38" y="-368.75" font-family="Helvetica,sans-Serif" font-size="10.00">dump_graphviz_patternlist</text>
</a>
</g>
</g>
<!-- Node1&#45;&gt;Node33 -->
<g id="edge8_Node000001_Node000033" class="edge">
<title>Node1&#45;&gt;Node33</title>
<g id="a_edge8_Node000001_Node000033"><a xlink:title=" ">
<path fill="none" stroke="#63b8ff" d="M302.55,-346.63C284.43,-350.93 265.09,-355.53 248.1,-359.56"/>
<polygon fill="#63b8ff" stroke="#63b8ff" points="303.24,-350.07 312.16,-344.35 301.62,-343.26 303.24,-350.07"/>
</a>
</g>
</g>
<!-- Node34 -->
<g id="Node000034" class="node">
<title>Node34</title>
<g id="a_Node000034"><a xlink:href="group__expando__get__string__api.html#ga7891c6c4940aa5c1c1d0eb5f27317ae2" target="_top" xlink:title="Browser: Last modified &#45; Implements get_string_t &#45;.">
<polygon fill="white" stroke="#666666" points="233.38,-342.25 163.38,-342.25 163.38,-320 233.38,-320 233.38,-342.25"/>
<text text-anchor="middle" x="198.38" y="-328.75" font-family="Helvetica,sans-Serif" font-size="10.00">folder_date</text>
</a>
</g>
</g>
<!-- Node1&#45;&gt;Node34 -->
<g id="edge9_Node000001_Node000034" class="edge">
<title>Node1&#45;&gt;Node34</title>
<g id="a_edge9_Node000001_Node000034"><a xlink:title=" ">
<path fill="none" stroke="#63b8ff" d="M302.32,-331.12C278.88,-331.12 253.4,-331.12 233.65,-331.12"/>
<polygon fill="#63b8ff" stroke="#63b8ff" points="302.12,-334.63 312.12,-331.13 302.12,-327.63 302.12,-334.63"/>
</a>
</g>
</g>
<!-- Node35 -->
<g id="Node000035" class="node">
<title>Node35</title>
<g id="a_Node000035"><a xlink:href="group__expando__get__string__api.html#ga8943f7726d8bf782178aa5b05dacc6a6" target="_top" xlink:title="Browser: Last modified ($date_format) &#45; Implements get_string_t &#45;.">
<polygon fill="white" stroke="#666666" points="251.75,-302.25 145,-302.25 145,-280 251.75,-280 251.75,-302.25"/>
<text text-anchor="middle" x="198.38" y="-288.75" font-family="Helvetica,sans-Serif" font-size="10.00">folder_date_format</text>
</a>
</g>
</g>
<!-- Node1&#45;&gt;Node35 -->
<g id="edge10_Node000001_Node000035" class="edge">
<title>Node1&#45;&gt;Node35</title>
<g id="a_edge10_Node000001_Node000035"><a xlink:title=" ">
<path fill="none" stroke="#63b8ff" d="M302.55,-315.62C284.43,-311.32 265.09,-306.72 248.1,-302.69"/>
<polygon fill="#63b8ff" stroke="#63b8ff" points="301.62,-318.99 312.16,-317.9 303.24,-312.18 301.62,-318.99"/>
</a>
</g>
</g>
<!-- Node36 -->
<g id="Node000036" class="node">
<title>Node36</title>
<g id="a_Node000036"><a xlink:href="debug_2logging_8c.html#a832d71b947c2f086fb507c6f2ae96e27" target="_top" xlink:title="Write a timestamp to a buffer.">
<polygon fill="#fff0f0" stroke="red" points="240.5,-262.25 156.25,-262.25 156.25,-240 240.5,-240 240.5,-262.25"/>
<text text-anchor="middle" x="198.38" y="-248.75" font-family="Helvetica,sans-Serif" font-size="10.00">log_timestamp</text>
</a>
</g>
</g>
<!-- Node1&#45;&gt;Node36 -->
<g id="edge11_Node000001_Node000036" class="edge">
<title>Node1&#45;&gt;Node36</title>
<g id="a_edge11_Node000001_Node000036"><a xlink:title=" ">
<path fill="none" stroke="#63b8ff" d="M335.61,-305.68C319.15,-293.74 298.34,-280.18 278,-271.12 266.29,-265.91 252.97,-261.88 240.67,-258.84"/>
<polygon fill="#63b8ff" stroke="#63b8ff" points="333.43,-308.42 343.54,-311.57 337.6,-302.8 333.43,-308.42"/>
</a>
</g>
</g>
<!-- Node38 -->
<g id="Node000038" class="node">
<title>Node38</title>
<g id="a_Node000038"><a xlink:href="group__global__function__api.html#ga7289d61ab1827d563be5d0e8c7488b4b" target="_top" xlink:title="Show log (and debug) messages &#45; Implements global_function_t &#45;.">
<polygon fill="white" stroke="#666666" points="261.12,-222.25 135.62,-222.25 135.62,-200 261.12,-200 261.12,-222.25"/>
<text text-anchor="middle" x="198.38" y="-208.75" font-family="Helvetica,sans-Serif" font-size="10.00">op_show_log_messages</text>
</a>
</g>
</g>
<!-- Node1&#45;&gt;Node38 -->
<g id="edge12_Node000001_Node000038" class="edge">
<title>Node1&#45;&gt;Node38</title>
<g id="a_edge12_Node000001_Node000038"><a xlink:title=" ">
<path fill="none" stroke="#63b8ff" d="M349.76,-303.13C333.61,-280.39 307.93,-249.22 278,-231.12 272.46,-227.77 266.37,-224.98 260.1,-222.65"/>
<polygon fill="#63b8ff" stroke="#63b8ff" points="346.88,-305.11 355.43,-311.36 352.64,-301.14 346.88,-305.11"/>
</a>
</g>
</g>
<!-- Node39 -->
<g id="Node000039" class="node">
<title>Node39</title>
<g id="a_Node000039"><a xlink:href="crypt__gpgme_8c.html#acf99c22e68257d9ff91a5cefb5590370" target="_top" xlink:title="Write PGP keys to a file.">
<polygon fill="#fff0f0" stroke="red" points="264.5,-182.25 132.25,-182.25 132.25,-160 264.5,-160 264.5,-182.25"/>
<text text-anchor="middle" x="198.38" y="-168.75" font-family="Helvetica,sans-Serif" font-size="10.00">pgp_gpgme_extract_keys</text>
</a>
</g>
</g>
<!-- Node1&#45;&gt;Node39 -->
<g id="edge13_Node000001_Node000039" class="edge">
<title>Node1&#45;&gt;Node39</title>
<g id="a_edge13_Node000001_Node000039"><a xlink:title=" ">
<path fill="none" stroke="#63b8ff" d="M356.88,-302C343.26,-269.94 316.98,-219.23 278,-191.12 273.32,-187.75 268.11,-184.94 262.68,-182.6"/>
<polygon fill="#63b8ff" stroke="#63b8ff" points="353.57,-303.16 360.59,-311.09 360.05,-300.51 353.57,-303.16"/>
</a>
</g>
</g>
<!-- Node41 -->
<g id="Node000041" class="node">
<title>Node41</title>
<g id="a_Node000041"><a xlink:href="group__expando__get__string__api.html#gac44f633ef2dff8f4a45b697922345412" target="_top" xlink:title="PGP: Date of the key &#45; Implements get_string_t &#45;.">
<polygon fill="white" stroke="#666666" points="238.25,-142.25 158.5,-142.25 158.5,-120 238.25,-120 238.25,-142.25"/>
<text text-anchor="middle" x="198.38" y="-128.75" font-family="Helvetica,sans-Serif" font-size="10.00">pgp_key_date</text>
</a>
</g>
</g>
<!-- Node1&#45;&gt;Node41 -->
<g id="edge14_Node000001_Node000041" class="edge">
<title>Node1&#45;&gt;Node41</title>
<g id="a_edge14_Node000001_Node000041"><a xlink:title=" ">
<path fill="none" stroke="#63b8ff" d="M361.32,-301.69C350.81,-261.5 326.27,-190.03 278,-151.12 266.81,-142.11 252.06,-137.1 238.36,-134.34"/>
<polygon fill="#63b8ff" stroke="#63b8ff" points="357.86,-302.29 363.67,-311.15 364.65,-300.6 357.86,-302.29"/>
</a>
</g>
</g>
<!-- Node42 -->
<g id="Node000042" class="node">
<title>Node42</title>
<g id="a_Node000042"><a xlink:href="gpgme__functions_8c.html#a66639b373a3cc1f57f1526dad35085a7" target="_top" xlink:title="Verbose information about a key or certificate to a file.">
<polygon fill="#fff0f0" stroke="red" points="239,-102.25 157.75,-102.25 157.75,-80 239,-80 239,-102.25"/>
<text text-anchor="middle" x="198.38" y="-88.75" font-family="Helvetica,sans-Serif" font-size="10.00">print_key_info</text>
</a>
</g>
</g>
<!-- Node1&#45;&gt;Node42 -->
<g id="edge15_Node000001_Node000042" class="edge">
<title>Node1&#45;&gt;Node42</title>
<g id="a_edge15_Node000001_Node000042"><a xlink:title=" ">
<path fill="none" stroke="#63b8ff" d="M364.25,-301.23C356.85,-253.71 335.55,-161.2 278,-111.12 267.27,-101.79 252.77,-96.7 239.14,-93.97"/>
<polygon fill="#63b8ff" stroke="#63b8ff" points="360.77,-301.66 365.66,-311.06 367.7,-300.67 360.77,-301.66"/>
</a>
</g>
</g>
<!-- Node45 -->
<g id="Node000045" class="node">
<title>Node45</title>
<g id="a_Node000045"><a xlink:href="crypt__gpgme_8c.html#af7188b10091393fe79b3728eeb1b671d" target="_top" xlink:title="Print the date/time according to the locale.">
<polygon fill="#fff0f0" stroke="red" points="230.38,-62.25 166.38,-62.25 166.38,-40 230.38,-40 230.38,-62.25"/>
<text text-anchor="middle" x="198.38" y="-48.75" font-family="Helvetica,sans-Serif" font-size="10.00">print_time</text>
</a>
</g>
</g>
<!-- Node1&#45;&gt;Node45 -->
<g id="edge16_Node000001_Node000045" class="edge">
<title>Node1&#45;&gt;Node45</title>
<g id="a_edge16_Node000001_Node000045"><a xlink:title=" ">
<path fill="none" stroke="#63b8ff" d="M366.42,-301.34C362.14,-247.27 345.16,-132.89 278,-71.12 265.25,-59.4 246.6,-54.32 230.66,-52.22"/>
<polygon fill="#63b8ff" stroke="#63b8ff" points="362.91,-301.27 367.09,-311.01 369.9,-300.79 362.91,-301.27"/>
</a>
</g>
</g>
<!-- Node812 -->
<g id="Node000812" class="node">
<title>Node812</title>
<g id="a_Node000812"><a xlink:href="mutt_2logging_8c.html#a8f6dd6e267d7ced245bd4cdc0dc86f01" target="_top" xlink:title="Create a YYYY&#45;MM&#45;DD HH:MM:SS timestamp.">
<polygon fill="#fff0f0" stroke="red" points="231.12,-22.25 165.62,-22.25 165.62,0 231.12,0 231.12,-22.25"/>
<text text-anchor="middle" x="198.38" y="-8.75" font-family="Helvetica,sans-Serif" font-size="10.00">timestamp</text>
</a>
</g>
</g>
<!-- Node1&#45;&gt;Node812 -->
<g id="edge17_Node000001_Node000812" class="edge">
<title>Node1&#45;&gt;Node812</title>
<g id="a_edge17_Node000001_Node000812"><a xlink:title=" ">
<path fill="none" stroke="#63b8ff" d="M368.04,-301.13C366.68,-240.9 354.73,-104.7 278,-31.12 265.6,-19.23 247.16,-14.13 231.25,-12.05"/>
<polygon fill="#63b8ff" stroke="#63b8ff" points="364.54,-300.99 368.17,-310.94 371.54,-300.9 364.54,-300.99"/>
</a>
</g>
</g>
<!-- Node812&#45;&gt;Node10 -->
<g id="edge18_Node000812_Node000010" class="edge">
<title>Node812&#45;&gt;Node10</title>
<g id="a_edge18_Node000812_Node000010"><a xlink:title=" ">
<path fill="none" stroke="#63b8ff" d="M154.26,-13.84C141.41,-16.65 128.23,-21.81 118.75,-31.12 40.64,-107.83 40.18,-256.22 41.76,-298.58"/>
<polygon fill="#63b8ff" stroke="#63b8ff" points="154.62,-17.33 163.89,-12.19 153.44,-10.43 154.62,-17.33"/>
</a>
</g>
</g>
</g>
</svg>
