<?xml version="1.0" encoding="UTF-8" standalone="no"?>
<!DOCTYPE svg PUBLIC "-//W3C//DTD SVG 1.1//EN"
 "http://www.w3.org/Graphics/SVG/1.1/DTD/svg11.dtd">
<!-- Generated by graphviz version 2.44.0 (0)
 -->
<!-- Title: compute_tz Pages: 1 -->
<svg width="225pt" height="66pt"
 viewBox="0.00 0.00 225.00 66.00" xmlns="http://www.w3.org/2000/svg" xmlns:xlink="http://www.w3.org/1999/xlink">
<g id="graph0" class="graph" transform="scale(1 1) rotate(0) translate(4 62)">
<title>compute_tz</title>
<polygon fill="white" stroke="transparent" points="-4,4 -4,-62 221,-62 221,4 -4,4"/>
<!-- Node1 -->
<g id="node1" class="node">
<title>Node1</title>
<g id="a_node1"><a xlink:title="Calculate the number of seconds east of UTC.">
<polygon fill="#bfbfbf" stroke="black" points="149,-19.5 149,-38.5 217,-38.5 217,-19.5 149,-19.5"/>
<text text-anchor="middle" x="183" y="-26.5" font-family="Helvetica" font-size="10.00">compute_tz</text>
</a>
</g>
</g>
<!-- Node2 -->
<g id="node2" class="node">
<title>Node2</title>
<g id="a_node2"><a xlink:href="date_8h.html#a82bd2f1fb214328612aa1900b731972b" target="_top" xlink:title="Calculate the local timezone in seconds east of UTC.">
<polygon fill="white" stroke="red" points="7,-38.5 7,-57.5 106,-57.5 106,-38.5 7,-38.5"/>
<text text-anchor="middle" x="56.5" y="-45.5" font-family="Helvetica" font-size="10.00">mutt_date_local_tz</text>
</a>
</g>
</g>
<!-- Node1&#45;&gt;Node2 -->
<g id="edge1" class="edge">
<title>Node1&#45;&gt;Node2</title>
<path fill="none" stroke="midnightblue" d="M138.76,-35.6C128.24,-37.2 116.92,-38.93 106.17,-40.57"/>
<polygon fill="midnightblue" stroke="midnightblue" points="139.61,-39.01 148.96,-34.04 138.55,-32.09 139.61,-39.01"/>
</g>
<!-- Node552 -->
<g id="node3" class="node">
<title>Node552</title>
<g id="a_node3"><a xlink:href="date_8h.html#a3bc7cd3ae8f7d3fad8f5c4d10691bc5e" target="_top" xlink:title="Convert struct tm to time_t">
<polygon fill="white" stroke="red" points="0,-0.5 0,-19.5 113,-19.5 113,-0.5 0,-0.5"/>
<text text-anchor="middle" x="56.5" y="-7.5" font-family="Helvetica" font-size="10.00">mutt_date_make_time</text>
</a>
</g>
</g>
<!-- Node1&#45;&gt;Node552 -->
<g id="edge2" class="edge">
<title>Node1&#45;&gt;Node552</title>
<path fill="none" stroke="midnightblue" d="M138.85,-22.41C130.62,-21.16 121.89,-19.83 113.33,-18.52"/>
<polygon fill="midnightblue" stroke="midnightblue" points="138.55,-25.91 148.96,-23.96 139.61,-18.99 138.55,-25.91"/>
</g>
</g>
</svg>
