<?xml version="1.0" encoding="UTF-8" standalone="no"?>
<!DOCTYPE svg PUBLIC "-//W3C//DTD SVG 1.1//EN"
 "http://www.w3.org/Graphics/SVG/1.1/DTD/svg11.dtd">
<!-- Generated by graphviz version 7.1.0 (0)
 -->
<!-- Title: mutt_date_now_ms Pages: 1 -->
<svg width="410pt" height="253pt"
 viewBox="0.00 0.00 410.00 253.00" xmlns="http://www.w3.org/2000/svg" xmlns:xlink="http://www.w3.org/1999/xlink">
<g id="graph0" class="graph" transform="scale(1 1) rotate(0) translate(4 249)">
<title>mutt_date_now_ms</title>
<!-- Node1 -->
<g id="node1" class="node">
<title>Node1</title>
<g id="a_node1"><a xlink:title="Return the number of milliseconds since the Unix epoch.">
<polygon fill="#999999" stroke="#666666" points="402,-131 295,-131 295,-112 402,-112 402,-131"/>
<text text-anchor="middle" x="348.5" y="-119" font-family="Helvetica,sans-Serif" font-size="10.00">mutt_date_now_ms</text>
</a>
</g>
</g>
<!-- Node2 -->
<g id="node2" class="node">
<title>Node2</title>
<g id="a_node2"><a xlink:href="dlg__pager_8c.html#a80507a4c09d6105080c5b0bd522325ee" target="_top" xlink:title="Is it time to mark the message read?">
<polygon fill="white" stroke="#666666" points="241,-245 143,-245 143,-226 241,-226 241,-245"/>
<text text-anchor="middle" x="192" y="-233" font-family="Helvetica,sans-Serif" font-size="10.00">check_read_delay</text>
</a>
</g>
</g>
<!-- Node1&#45;&gt;Node2 -->
<g id="edge1" class="edge">
<title>Node1&#45;&gt;Node2</title>
<path fill="none" stroke="#63b8ff" d="M333.43,-140.12C317.39,-160.21 289.42,-191.95 259,-211.5 249.97,-217.3 239.36,-221.95 229.3,-225.55"/>
<polygon fill="#63b8ff" stroke="#63b8ff" points="335.99,-142.53 339.38,-132.49 330.47,-138.23 335.99,-142.53"/>
</g>
<!-- Node3 -->
<g id="node3" class="node">
<title>Node3</title>
<g id="a_node3"><a xlink:href="group__gui__dlg.html#gaa0492e04d356a4dc2eed8a5ac9dd16d7" target="_top" xlink:title="Display an email, attachment, or help, in a window &#45;.">
<polygon fill="#fff0f0" stroke="red" points="76,-226 13,-226 13,-207 76,-207 76,-226"/>
<text text-anchor="middle" x="44.5" y="-214" font-family="Helvetica,sans-Serif" font-size="10.00">dlg_pager</text>
</a>
</g>
</g>
<!-- Node1&#45;&gt;Node3 -->
<g id="edge3" class="edge">
<title>Node1&#45;&gt;Node3</title>
<path fill="none" stroke="#63b8ff" d="M326.38,-138.55C309.23,-151.51 283.89,-168.73 259,-178.5 196.97,-202.86 118.66,-211.7 76.23,-214.84"/>
<polygon fill="#63b8ff" stroke="#63b8ff" points="328.52,-141.32 334.27,-132.43 324.23,-135.79 328.52,-141.32"/>
</g>
<!-- Node75 -->
<g id="node4" class="node">
<title>Node75</title>
<g id="a_node4"><a xlink:href="mutt__logging_8c.html#abcfbeac77028256b94618b1ebdac6891" target="_top" xlink:title="Wait for an error message to be read.">
<polygon fill="#fff0f0" stroke="red" points="229,-169 155,-169 155,-150 229,-150 229,-169"/>
<text text-anchor="middle" x="192" y="-157" font-family="Helvetica,sans-Serif" font-size="10.00">error_pause</text>
</a>
</g>
</g>
<!-- Node1&#45;&gt;Node75 -->
<g id="edge4" class="edge">
<title>Node1&#45;&gt;Node75</title>
<path fill="none" stroke="#63b8ff" d="M295.83,-134.21C274.04,-139.57 249.18,-145.68 229.37,-150.56"/>
<polygon fill="#63b8ff" stroke="#63b8ff" points="296.56,-137.63 305.44,-131.85 294.89,-130.84 296.56,-137.63"/>
</g>
<!-- Node76 -->
<g id="node5" class="node">
<title>Node76</title>
<g id="a_node5"><a xlink:href="group__logging__api.html#gac747999bbd6c8f201f9ab87d81cc967c" target="_top" xlink:title="Display a log line in the message line &#45; Implements log_dispatcher_t &#45;.">
<polygon fill="#fff0f0" stroke="red" points="89,-150 0,-150 0,-131 89,-131 89,-150"/>
<text text-anchor="middle" x="44.5" y="-138" font-family="Helvetica,sans-Serif" font-size="10.00">log_disp_curses</text>
</a>
</g>
</g>
<!-- Node1&#45;&gt;Node76 -->
<g id="edge6" class="edge">
<title>Node1&#45;&gt;Node76</title>
<path fill="none" stroke="#63b8ff" d="M283.22,-125.54C224.74,-129.22 140,-134.55 89.08,-137.76"/>
<polygon fill="#63b8ff" stroke="#63b8ff" points="283.28,-129.05 293.04,-124.93 282.84,-122.06 283.28,-129.05"/>
</g>
<!-- Node812 -->
<g id="node6" class="node">
<title>Node812</title>
<g id="a_node6"><a xlink:href="mutt_2date_8c.html#ad1e6304a91c7b6f3c266a9b17c1740fe" target="_top" xlink:title="Return the number of seconds since the Unix epoch.">
<polygon fill="#fff0f0" stroke="red" points="236.5,-93 147.5,-93 147.5,-74 236.5,-74 236.5,-93"/>
<text text-anchor="middle" x="192" y="-81" font-family="Helvetica,sans-Serif" font-size="10.00">mutt_date_now</text>
</a>
</g>
</g>
<!-- Node1&#45;&gt;Node812 -->
<g id="edge7" class="edge">
<title>Node1&#45;&gt;Node812</title>
<path fill="none" stroke="#63b8ff" d="M295.95,-108.82C275.65,-103.83 252.67,-98.18 233.59,-93.48"/>
<polygon fill="#63b8ff" stroke="#63b8ff" points="294.89,-112.16 305.44,-111.15 296.56,-105.37 294.89,-112.16"/>
</g>
<!-- Node917 -->
<g id="node7" class="node">
<title>Node917</title>
<g id="a_node7"><a xlink:href="progress_2window_8c.html#a861124005e152ae8530ba1b6607407bf" target="_top" xlink:title="Update the Progress Bar Window.">
<polygon fill="#fff0f0" stroke="red" points="259,-56 125,-56 125,-37 259,-37 259,-56"/>
<text text-anchor="middle" x="192" y="-44" font-family="Helvetica,sans-Serif" font-size="10.00">progress_window_update</text>
</a>
</g>
</g>
<!-- Node1&#45;&gt;Node917 -->
<g id="edge8" class="edge">
<title>Node1&#45;&gt;Node917</title>
<path fill="none" stroke="#63b8ff" d="M325.83,-104.85C308.54,-92.25 283.28,-75.32 259,-64.5 252.06,-61.41 244.46,-58.73 236.97,-56.47"/>
<polygon fill="#63b8ff" stroke="#63b8ff" points="323.69,-107.62 333.8,-110.78 327.87,-102 323.69,-107.62"/>
</g>
<!-- Node777 -->
<g id="node8" class="node">
<title>Node777</title>
<g id="a_node8"><a xlink:href="group__connection__poll.html#ga3e4473be79d3294a1be08ab03d3f7eb6" target="_top" xlink:title="Check if any data is waiting on a socket &#45; Implements Connection::poll() &#45;.">
<polygon fill="#fff0f0" stroke="red" points="236.5,-19 147.5,-19 147.5,0 236.5,0 236.5,-19"/>
<text text-anchor="middle" x="192" y="-7" font-family="Helvetica,sans-Serif" font-size="10.00">raw_socket_poll</text>
</a>
</g>
</g>
<!-- Node1&#45;&gt;Node777 -->
<g id="edge9" class="edge">
<title>Node1&#45;&gt;Node777</title>
<path fill="none" stroke="#63b8ff" d="M334.4,-102.2C318.88,-80.79 291.03,-46.74 259,-27.5 252.28,-23.46 244.64,-20.31 237,-17.86"/>
<polygon fill="#63b8ff" stroke="#63b8ff" points="331.51,-104.17 340.13,-110.33 337.24,-100.14 331.51,-104.17"/>
</g>
<!-- Node2&#45;&gt;Node3 -->
<g id="edge2" class="edge">
<title>Node2&#45;&gt;Node3</title>
<path fill="none" stroke="#63b8ff" d="M131.32,-227.71C112.45,-225.24 92.38,-222.62 76.39,-220.53"/>
<polygon fill="#63b8ff" stroke="#63b8ff" points="130.68,-231.15 141.05,-228.98 131.59,-224.21 130.68,-231.15"/>
</g>
<!-- Node75&#45;&gt;Node76 -->
<g id="edge5" class="edge">
<title>Node75&#45;&gt;Node76</title>
<path fill="none" stroke="#63b8ff" d="M143.58,-153.31C126.15,-151.03 106.51,-148.47 89.41,-146.23"/>
<polygon fill="#63b8ff" stroke="#63b8ff" points="142.79,-156.73 153.16,-154.56 143.7,-149.79 142.79,-156.73"/>
</g>
</g>
</svg>
