<?xml version="1.0" encoding="UTF-8" standalone="no"?>
<!DOCTYPE svg PUBLIC "-//W3C//DTD SVG 1.1//EN"
 "http://www.w3.org/Graphics/SVG/1.1/DTD/svg11.dtd">
<!-- Generated by graphviz version 7.1.0 (0)
 -->
<!-- Title: win_dump Pages: 1 -->
<svg width="206pt" height="45pt"
 viewBox="0.00 0.00 206.00 45.00" xmlns="http://www.w3.org/2000/svg" xmlns:xlink="http://www.w3.org/1999/xlink">
<g id="graph0" class="graph" transform="scale(1 1) rotate(0) translate(4 41)">
<title>win_dump</title>
<!-- Node1 -->
<g id="node1" class="node">
<title>Node1</title>
<g id="a_node1"><a xlink:title=" ">
<polygon fill="#999999" stroke="#666666" points="198,-19 134,-19 134,0 198,0 198,-19"/>
<text text-anchor="middle" x="166" y="-7" font-family="Helvetica,sans-Serif" font-size="10.00">win_dump</text>
</a>
</g>
</g>
<!-- Node1&#45;&gt;Node1 -->
<g id="edge2" class="edge">
<title>Node1&#45;&gt;Node1</title>
<path fill="none" stroke="#63b8ff" d="M186.77,-30.43C184.17,-34.29 177.25,-37 166,-37 145.43,-37 139.33,-27.94 147.68,-19.37"/>
<polygon fill="#63b8ff" stroke="#63b8ff" points="190.22,-29.85 184.64,-20.85 183.39,-31.37 190.22,-29.85"/>
</g>
<!-- Node2 -->
<g id="node2" class="node">
<title>Node2</title>
<g id="a_node2"><a xlink:href="debug_2window_8c.html#a3e949b6cf149926e285fbfdad1e94eb0" target="_top" xlink:title=" ">
<polygon fill="#fff0f0" stroke="red" points="98,-19 0,-19 0,0 98,0 98,-19"/>
<text text-anchor="middle" x="49" y="-7" font-family="Helvetica,sans-Serif" font-size="10.00">debug_win_dump</text>
</a>
</g>
</g>
<!-- Node1&#45;&gt;Node2 -->
<g id="edge1" class="edge">
<title>Node1&#45;&gt;Node2</title>
<path fill="none" stroke="#63b8ff" d="M122.13,-9.5C114.34,-9.5 106.16,-9.5 98.23,-9.5"/>
<polygon fill="#63b8ff" stroke="#63b8ff" points="122.06,-13 132.06,-9.5 122.06,-6 122.06,-13"/>
</g>
</g>
</svg>
