<?xml version="1.0" encoding="UTF-8" standalone="no"?>
<!DOCTYPE svg PUBLIC "-//W3C//DTD SVG 1.1//EN"
 "http://www.w3.org/Graphics/SVG/1.1/DTD/svg11.dtd">
<!-- Generated by graphviz version 7.1.0 (0)
 -->
<!-- Title: regex_color_dump Pages: 1 -->
<svg width="267pt" height="101pt"
 viewBox="0.00 0.00 267.00 101.00" xmlns="http://www.w3.org/2000/svg" xmlns:xlink="http://www.w3.org/1999/xlink">
<g id="graph0" class="graph" transform="scale(1 1) rotate(0) translate(4 97)">
<title>regex_color_dump</title>
<!-- Node1 -->
<g id="node1" class="node">
<title>Node1</title>
<g id="a_node1"><a xlink:title="Dump a Regex colour to the log.">
<polygon fill="#999999" stroke="#666666" points="102,-56 0,-56 0,-37 102,-37 102,-56"/>
<text text-anchor="middle" x="51" y="-44" font-family="Helvetica,sans-Serif" font-size="10.00">regex_color_dump</text>
</a>
</g>
</g>
<!-- Node2 -->
<g id="node2" class="node">
<title>Node2</title>
<g id="a_node2"><a xlink:href="debug_8c.html#a303eb44c9843e6d75ad0faab32598dcf" target="_top" xlink:title="Write to the log file.">
<polygon fill="white" stroke="#666666" points="235.5,-93 161.5,-93 161.5,-74 235.5,-74 235.5,-93"/>
<text text-anchor="middle" x="198.5" y="-81" font-family="Helvetica,sans-Serif" font-size="10.00">color_debug</text>
</a>
</g>
</g>
<!-- Node1&#45;&gt;Node2 -->
<g id="edge1" class="edge">
<title>Node1&#45;&gt;Node2</title>
<path fill="none" stroke="#63b8ff" d="M90.99,-56.42C109.29,-61.07 131.24,-66.65 150.45,-71.54"/>
<polygon fill="#63b8ff" stroke="#63b8ff" points="149.38,-74.87 159.93,-73.95 151.1,-68.09 149.38,-74.87"/>
</g>
<!-- Node3 -->
<g id="node3" class="node">
<title>Node3</title>
<g id="a_node3"><a xlink:href="debug_8c.html#a172b81f9b5af29355d0b74bb30c096c0" target="_top" xlink:title="Get a string to represent some attributes in the log.">
<polygon fill="white" stroke="#666666" points="258,-56 139,-56 139,-37 258,-37 258,-56"/>
<text text-anchor="middle" x="198.5" y="-44" font-family="Helvetica,sans-Serif" font-size="10.00">color_debug_log_attrs</text>
</a>
</g>
</g>
<!-- Node1&#45;&gt;Node3 -->
<g id="edge2" class="edge">
<title>Node1&#45;&gt;Node3</title>
<path fill="none" stroke="#63b8ff" d="M102.48,-46.5C110.49,-46.5 118.91,-46.5 127.27,-46.5"/>
<polygon fill="#63b8ff" stroke="#63b8ff" points="127.1,-50 137.1,-46.5 127.1,-43 127.1,-50"/>
</g>
<!-- Node4 -->
<g id="node4" class="node">
<title>Node4</title>
<g id="a_node4"><a xlink:href="debug_8c.html#a10c1e10aa131c3ce85299f0eb5c5c45c" target="_top" xlink:title="Get a colourful string to represent a colour in the log.">
<polygon fill="white" stroke="#666666" points="259,-19 138,-19 138,0 259,0 259,-19"/>
<text text-anchor="middle" x="198.5" y="-7" font-family="Helvetica,sans-Serif" font-size="10.00">color_debug_log_color</text>
</a>
</g>
</g>
<!-- Node1&#45;&gt;Node4 -->
<g id="edge3" class="edge">
<title>Node1&#45;&gt;Node4</title>
<path fill="none" stroke="#63b8ff" d="M90.99,-36.58C108.28,-32.19 128.84,-26.96 147.26,-22.28"/>
<polygon fill="#63b8ff" stroke="#63b8ff" points="148.11,-25.67 156.93,-19.82 146.38,-18.89 148.11,-25.67"/>
</g>
</g>
</svg>
