<?xml version="1.0" encoding="UTF-8" standalone="no"?>
<!DOCTYPE svg PUBLIC "-//W3C//DTD SVG 1.1//EN"
 "http://www.w3.org/Graphics/SVG/1.1/DTD/svg11.dtd">
<!-- Generated by graphviz version 2.40.1 (20161225.0304)
 -->
<!-- Title: notify_dump_window_focus Pages: 1 -->
<svg width="293pt" height="218pt"
 viewBox="0.00 0.00 293.00 218.00" xmlns="http://www.w3.org/2000/svg" xmlns:xlink="http://www.w3.org/1999/xlink">
<g id="graph0" class="graph" transform="scale(1 1) rotate(0) translate(4 214)">
<title>notify_dump_window_focus</title>
<polygon fill="#ffffff" stroke="transparent" points="-4,4 -4,-214 289,-214 289,4 -4,4"/>
<!-- Node92 -->
<g id="node1" class="node">
<title>Node92</title>
<polygon fill="#bfbfbf" stroke="#000000" points="0,-90 0,-120 121,-120 121,-90 0,-90"/>
<text text-anchor="start" x="8" y="-108" font-family="Helvetica,sans-Serif" font-size="10.00" fill="#000000">notify_dump_window</text>
<text text-anchor="middle" x="60.5" y="-97" font-family="Helvetica,sans-Serif" font-size="10.00" fill="#000000">_focus</text>
</g>
<!-- Node93 -->
<g id="node2" class="node">
<title>Node93</title>
<g id="a_node2"><a xlink:href="buffer_8c.html#a0242aaa9a400d0722a99828776c0403b" target="_top" xlink:title="Make a new buffer on the stack. ">
<polygon fill="#ffffff" stroke="#ff0000" points="167.5,-190.5 167.5,-209.5 274.5,-209.5 274.5,-190.5 167.5,-190.5"/>
<text text-anchor="middle" x="221" y="-197.5" font-family="Helvetica,sans-Serif" font-size="10.00" fill="#000000">mutt_buffer_make</text>
</a>
</g>
</g>
<!-- Node92&#45;&gt;Node93 -->
<g id="edge1" class="edge">
<title>Node92&#45;&gt;Node93</title>
<path fill="none" stroke="#191970" d="M75.9139,-120.2318C93.9455,-137.2705 125.3758,-164.6224 157,-181 161.2777,-183.2153 165.8533,-185.2121 170.5174,-187.003"/>
<polygon fill="#191970" stroke="#191970" points="169.5534,-190.3741 180.1482,-190.3937 171.878,-183.7714 169.5534,-190.3741"/>
</g>
<!-- Node96 -->
<g id="node3" class="node">
<title>Node96</title>
<g id="a_node3"><a xlink:href="buffer_8c.html#a958e87c1ae9de976eb76f759dbaaa601" target="_top" xlink:title="Add a string to a Buffer. ">
<polygon fill="#ffffff" stroke="#ff0000" points="166,-152.5 166,-171.5 276,-171.5 276,-152.5 166,-152.5"/>
<text text-anchor="middle" x="221" y="-159.5" font-family="Helvetica,sans-Serif" font-size="10.00" fill="#000000">mutt_buffer_addstr</text>
</a>
</g>
</g>
<!-- Node92&#45;&gt;Node96 -->
<g id="edge2" class="edge">
<title>Node92&#45;&gt;Node96</title>
<path fill="none" stroke="#191970" d="M96.4256,-120.0028C114.4664,-127.3172 136.7424,-136.0191 157,-143 163.4789,-145.2327 170.379,-147.4475 177.16,-149.5337"/>
<polygon fill="#191970" stroke="#191970" points="176.3623,-152.9488 186.947,-152.4852 178.3835,-146.2469 176.3623,-152.9488"/>
</g>
<!-- Node101 -->
<g id="node4" class="node">
<title>Node101</title>
<g id="a_node4"><a xlink:href="dialog_8c.html#ac18ab064a2131a8af6bfb93798162bfe" target="_top" xlink:title="Find the parent Dialog of a Window. ">
<polygon fill="#ffffff" stroke="#000000" points="186,-114.5 186,-133.5 256,-133.5 256,-114.5 186,-114.5"/>
<text text-anchor="middle" x="221" y="-121.5" font-family="Helvetica,sans-Serif" font-size="10.00" fill="#000000">dialog_find</text>
</a>
</g>
</g>
<!-- Node92&#45;&gt;Node101 -->
<g id="edge3" class="edge">
<title>Node92&#45;&gt;Node101</title>
<path fill="none" stroke="#191970" d="M121.1782,-112.1831C139.2625,-114.3239 158.759,-116.6319 175.681,-118.6351"/>
<polygon fill="#191970" stroke="#191970" points="175.5068,-122.1389 185.8489,-119.8388 176.3297,-115.1874 175.5068,-122.1389"/>
</g>
<!-- Node102 -->
<g id="node5" class="node">
<title>Node102</title>
<g id="a_node5"><a xlink:href="buffer_8c.html#ac151bca8b7bc6724124073e7b4a6a09f" target="_top" xlink:title="Format a string appending a Buffer. ">
<polygon fill="#ffffff" stroke="#ff0000" points="157,-76.5 157,-95.5 285,-95.5 285,-76.5 157,-76.5"/>
<text text-anchor="middle" x="221" y="-83.5" font-family="Helvetica,sans-Serif" font-size="10.00" fill="#000000">mutt_buffer_add_printf</text>
</a>
</g>
</g>
<!-- Node92&#45;&gt;Node102 -->
<g id="edge4" class="edge">
<title>Node92&#45;&gt;Node102</title>
<path fill="none" stroke="#191970" d="M121.1782,-97.8169C129.5365,-96.8275 138.1965,-95.8023 146.7646,-94.788"/>
<polygon fill="#191970" stroke="#191970" points="147.2378,-98.2565 156.757,-93.6051 146.4148,-91.305 147.2378,-98.2565"/>
</g>
<!-- Node104 -->
<g id="node6" class="node">
<title>Node104</title>
<g id="a_node6"><a xlink:href="common_8c.html#afe662c7f2a62dbfb76f8ec83696b7a63" target="_top" xlink:title="win_name">
<polygon fill="#ffffff" stroke="#000000" points="187.5,-38.5 187.5,-57.5 254.5,-57.5 254.5,-38.5 187.5,-38.5"/>
<text text-anchor="middle" x="221" y="-45.5" font-family="Helvetica,sans-Serif" font-size="10.00" fill="#000000">win_name</text>
</a>
</g>
</g>
<!-- Node92&#45;&gt;Node104 -->
<g id="edge5" class="edge">
<title>Node92&#45;&gt;Node104</title>
<path fill="none" stroke="#191970" d="M96.4256,-89.9972C114.4664,-82.6828 136.7424,-73.9809 157,-67 163.5525,-64.742 170.5358,-62.5021 177.3912,-60.3952"/>
<polygon fill="#191970" stroke="#191970" points="178.7129,-63.6525 187.2783,-57.4168 176.6938,-56.95 178.7129,-63.6525"/>
</g>
<!-- Node105 -->
<g id="node7" class="node">
<title>Node105</title>
<g id="a_node7"><a xlink:href="buffer_8c.html#a59b13bca38b1b314e2bc5ad142d2df49" target="_top" xlink:title="Release the memory allocated by a buffer. ">
<polygon fill="#ffffff" stroke="#000000" points="164,-.5 164,-19.5 278,-19.5 278,-.5 164,-.5"/>
<text text-anchor="middle" x="221" y="-7.5" font-family="Helvetica,sans-Serif" font-size="10.00" fill="#000000">mutt_buffer_dealloc</text>
</a>
</g>
</g>
<!-- Node92&#45;&gt;Node105 -->
<g id="edge6" class="edge">
<title>Node92&#45;&gt;Node105</title>
<path fill="none" stroke="#191970" d="M75.9139,-89.7682C93.9455,-72.7295 125.3758,-45.3776 157,-29 161.2777,-26.7847 165.8533,-24.7879 170.5174,-22.997"/>
<polygon fill="#191970" stroke="#191970" points="171.878,-26.2286 180.1482,-19.6063 169.5534,-19.6259 171.878,-26.2286"/>
</g>
</g>
</svg>
