<?xml version="1.0" encoding="UTF-8" standalone="no"?>
<!DOCTYPE svg PUBLIC "-//W3C//DTD SVG 1.1//EN"
 "http://www.w3.org/Graphics/SVG/1.1/DTD/svg11.dtd">
<!-- Generated by graphviz version 7.1.0 (0)
 -->
<!-- Title: attr_color_list_dump Pages: 1 -->
<svg width="357pt" height="46pt"
 viewBox="0.00 0.00 357.00 46.00" xmlns="http://www.w3.org/2000/svg" xmlns:xlink="http://www.w3.org/1999/xlink">
<g id="graph0" class="graph" transform="scale(1 1) rotate(0) translate(4 42)">
<title>attr_color_list_dump</title>
<!-- Node1 -->
<g id="node1" class="node">
<title>Node1</title>
<g id="a_node1"><a xlink:title="Dump all the Attr Colours to the log.">
<polygon fill="#999999" stroke="#666666" points="110,-19 0,-19 0,0 110,0 110,-19"/>
<text text-anchor="middle" x="55" y="-7" font-family="Helvetica,sans-Serif" font-size="10.00">attr_color_list_dump</text>
</a>
</g>
</g>
<!-- Node2 -->
<g id="node2" class="node">
<title>Node2</title>
<g id="a_node2"><a xlink:href="debug_8c.html#ab2450fbdb784b52ed1a10dc6eebd492f" target="_top" xlink:title="Dump an Attr Colour to the log.">
<polygon fill="#fff0f0" stroke="red" points="239,-38 146,-38 146,-19 239,-19 239,-38"/>
<text text-anchor="middle" x="192.5" y="-26" font-family="Helvetica,sans-Serif" font-size="10.00">attr_color_dump</text>
</a>
</g>
</g>
<!-- Node1&#45;&gt;Node2 -->
<g id="edge1" class="edge">
<title>Node1&#45;&gt;Node2</title>
<path fill="none" stroke="#63b8ff" d="M110.33,-17.12C118.34,-18.24 126.61,-19.4 134.66,-20.53"/>
<polygon fill="#63b8ff" stroke="#63b8ff" points="133.97,-23.97 144.36,-21.89 134.95,-17.04 133.97,-23.97"/>
</g>
<!-- Node3 -->
<g id="node3" class="node">
<title>Node3</title>
<g id="a_node3"><a xlink:href="debug_8c.html#a303eb44c9843e6d75ad0faab32598dcf" target="_top" xlink:title="Write to the log file.">
<polygon fill="white" stroke="#666666" points="349,-19 275,-19 275,0 349,0 349,-19"/>
<text text-anchor="middle" x="312" y="-7" font-family="Helvetica,sans-Serif" font-size="10.00">color_debug</text>
</a>
</g>
</g>
<!-- Node1&#45;&gt;Node3 -->
<g id="edge3" class="edge">
<title>Node1&#45;&gt;Node3</title>
<path fill="none" stroke="#63b8ff" d="M110.39,-9.5C155.81,-9.5 219.93,-9.5 263.36,-9.5"/>
<polygon fill="#63b8ff" stroke="#63b8ff" points="263.24,-13 273.24,-9.5 263.24,-6 263.24,-13"/>
</g>
<!-- Node2&#45;&gt;Node3 -->
<g id="edge2" class="edge">
<title>Node2&#45;&gt;Node3</title>
<path fill="none" stroke="#63b8ff" d="M239.27,-21.1C247.14,-19.83 255.35,-18.5 263.28,-17.22"/>
<polygon fill="#63b8ff" stroke="#63b8ff" points="263.82,-20.67 273.14,-15.62 262.7,-13.76 263.82,-20.67"/>
</g>
</g>
</svg>
