<?xml version="1.0" encoding="UTF-8" standalone="no"?>
<!DOCTYPE svg PUBLIC "-//W3C//DTD SVG 1.1//EN"
 "http://www.w3.org/Graphics/SVG/1.1/DTD/svg11.dtd">
<!-- Generated by graphviz version 7.1.0 (0)
 -->
<!-- Title: color_log_color Pages: 1 -->
<svg width="341pt" height="140pt"
 viewBox="0.00 0.00 341.00 140.00" xmlns="http://www.w3.org/2000/svg" xmlns:xlink="http://www.w3.org/1999/xlink">
<g id="graph0" class="graph" transform="scale(1 1) rotate(0) translate(4 136)">
<title>color_log_color</title>
<!-- Node1 -->
<g id="node1" class="node">
<title>Node1</title>
<g id="a_node1"><a xlink:title="Get a colourful string to represent a colour in the log.">
<polygon fill="#999999" stroke="#666666" points="333,-76 247,-76 247,-57 333,-57 333,-76"/>
<text text-anchor="middle" x="290" y="-64" font-family="Helvetica,sans-Serif" font-size="10.00">color_log_color</text>
</a>
</g>
</g>
<!-- Node2 -->
<g id="node2" class="node">
<title>Node2</title>
<g id="a_node2"><a xlink:href="debug_8c.html#a6644ee02d4f9e25179016d98f6d6b02e" target="_top" xlink:title="Log one Curses colour.">
<polygon fill="#fff0f0" stroke="red" points="209,-132 103,-132 103,-113 209,-113 209,-132"/>
<text text-anchor="middle" x="156" y="-120" font-family="Helvetica,sans-Serif" font-size="10.00">curses_color_dump</text>
</a>
</g>
</g>
<!-- Node1&#45;&gt;Node2 -->
<g id="edge1" class="edge">
<title>Node1&#45;&gt;Node2</title>
<path fill="none" stroke="#63b8ff" d="M260.48,-81.51C245.89,-88.91 227.72,-97.67 211,-104.5 204.05,-107.34 196.46,-110.08 189.23,-112.53"/>
<polygon fill="#63b8ff" stroke="#63b8ff" points="261.76,-84.79 269.06,-77.11 258.56,-78.57 261.76,-84.79"/>
</g>
<!-- Node906 -->
<g id="node3" class="node">
<title>Node906</title>
<g id="a_node3"><a xlink:href="debug_8c.html#a9e36e62f2dc4ba10ce42c89fa992df0e" target="_top" xlink:title="Dump all the Curses colours.">
<polygon fill="#fff0f0" stroke="red" points="211,-95 101,-95 101,-76 211,-76 211,-95"/>
<text text-anchor="middle" x="156" y="-83" font-family="Helvetica,sans-Serif" font-size="10.00">curses_colors_dump</text>
</a>
</g>
</g>
<!-- Node1&#45;&gt;Node906 -->
<g id="edge2" class="edge">
<title>Node1&#45;&gt;Node906</title>
<path fill="none" stroke="#63b8ff" d="M235.25,-74.24C227.41,-75.37 219.33,-76.53 211.48,-77.66"/>
<polygon fill="#63b8ff" stroke="#63b8ff" points="235.61,-77.72 245.01,-72.83 234.61,-70.79 235.61,-77.72"/>
</g>
<!-- Node907 -->
<g id="node4" class="node">
<title>Node907</title>
<g id="a_node4"><a xlink:href="debug_2pager_8c.html#ae5b4e3e6d5435298d70bfdc069888bb8" target="_top" xlink:title=" ">
<polygon fill="#fff0f0" stroke="red" points="65,-38 0,-38 0,-19 65,-19 65,-38"/>
<text text-anchor="middle" x="32.5" y="-26" font-family="Helvetica,sans-Serif" font-size="10.00">dump_line</text>
</a>
</g>
</g>
<!-- Node1&#45;&gt;Node907 -->
<g id="edge3" class="edge">
<title>Node1&#45;&gt;Node907</title>
<path fill="none" stroke="#63b8ff" d="M235.28,-58.51C183.74,-50.84 107.66,-39.53 65.17,-33.21"/>
<polygon fill="#63b8ff" stroke="#63b8ff" points="234.62,-61.95 245.03,-59.96 235.65,-55.03 234.62,-61.95"/>
</g>
<!-- Node909 -->
<g id="node5" class="node">
<title>Node909</title>
<g id="a_node5"><a xlink:href="debug_2pager_8c.html#a1694de57ddab1d0171e39dbe9a9b2cda" target="_top" xlink:title=" ">
<polygon fill="white" stroke="#666666" points="206.5,-19 105.5,-19 105.5,0 206.5,0 206.5,-19"/>
<text text-anchor="middle" x="156" y="-7" font-family="Helvetica,sans-Serif" font-size="10.00">dump_text_syntax</text>
</a>
</g>
</g>
<!-- Node1&#45;&gt;Node909 -->
<g id="edge4" class="edge">
<title>Node1&#45;&gt;Node909</title>
<path fill="none" stroke="#63b8ff" d="M255.69,-52.12C231.95,-41.86 200.65,-28.35 179.73,-19.31"/>
<polygon fill="#63b8ff" stroke="#63b8ff" points="254.05,-55.22 264.62,-55.97 256.82,-48.79 254.05,-55.22"/>
</g>
<!-- Node909&#45;&gt;Node907 -->
<g id="edge5" class="edge">
<title>Node909&#45;&gt;Node907</title>
<path fill="none" stroke="#63b8ff" d="M94.05,-19.03C84.09,-20.59 74.14,-22.14 65.27,-23.53"/>
<polygon fill="#63b8ff" stroke="#63b8ff" points="94.4,-22.52 103.74,-17.52 93.31,-15.6 94.4,-22.52"/>
</g>
</g>
</svg>
