<?xml version="1.0" encoding="UTF-8" standalone="no"?>
<!DOCTYPE svg PUBLIC "-//W3C//DTD SVG 1.1//EN"
 "http://www.w3.org/Graphics/SVG/1.1/DTD/svg11.dtd">
<!-- Generated by graphviz version 7.1.0 (0)
 -->
<!-- Title: compmbox Pages: 1 -->
<svg width="289pt" height="82pt"
 viewBox="0.00 0.00 288.50 82.00" xmlns="http://www.w3.org/2000/svg" xmlns:xlink="http://www.w3.org/1999/xlink">
<g id="graph0" class="graph" transform="scale(1 1) rotate(0) translate(4 78)">
<title>compmbox</title>
<!-- dir_f5f2d4ec245666a771f2716a34348b76 -->
<g id="node1" class="node">
<title>dir_f5f2d4ec245666a771f2716a34348b76</title>
<g id="a_node1"><a xlink:href="dir_f5f2d4ec245666a771f2716a34348b76.html" target="_top" xlink:title="compmbox">
<polygon fill="#e5f8e5" stroke="#404040" stroke-width="2" points="160.5,-74 92.5,-74 92.5,-55 160.5,-55 160.5,-74"/>
<text text-anchor="middle" x="126.5" y="-62" font-family="Helvetica,sans-Serif" font-size="10.00">compmbox</text>
</a>
</g>
</g>
<!-- dir_11bc0974ce736ce9a6fadebbeb7a8314 -->
<g id="node2" class="node">
<title>dir_11bc0974ce736ce9a6fadebbeb7a8314</title>
<g id="a_node2"><a xlink:href="dir_11bc0974ce736ce9a6fadebbeb7a8314.html" target="_top" xlink:title="gui">
<polygon fill="#e5f8e5" stroke="#404040" points="31,-19 0,-19 0,0 31,0 31,-19"/>
<text text-anchor="middle" x="15.5" y="-7" font-family="Helvetica,sans-Serif" font-size="10.00">gui</text>
</a>
</g>
</g>
<!-- dir_f5f2d4ec245666a771f2716a34348b76&#45;&gt;dir_11bc0974ce736ce9a6fadebbeb7a8314 -->
<g id="edge1" class="edge">
<title>dir_f5f2d4ec245666a771f2716a34348b76&#45;&gt;dir_11bc0974ce736ce9a6fadebbeb7a8314</title>
<path fill="none" stroke="#63b8ff" d="M107.67,-54.51C89.42,-45.8 61.61,-32.52 41.31,-22.82"/>
<polygon fill="#63b8ff" stroke="#63b8ff" points="43.08,-19.79 32.55,-18.64 40.07,-26.11 43.08,-19.79"/>
<g id="a_edge1&#45;headlabel"><a xlink:href="dir_000009_000022.html" target="_top" xlink:title="1">
<text text-anchor="middle" x="46.19" y="-15.63" font-family="Helvetica,sans-Serif" font-size="10.00" fill="#63b8ff">1</text>
</a>
</g>
</g>
<!-- dir_4270bfced15e0e73154b13468c7c9ad9 -->
<g id="node3" class="node">
<title>dir_4270bfced15e0e73154b13468c7c9ad9</title>
<g id="a_node3"><a xlink:href="dir_4270bfced15e0e73154b13468c7c9ad9.html" target="_top" xlink:title="core">
<polygon fill="#e5f8e5" stroke="#404040" points="86,-19 49,-19 49,0 86,0 86,-19"/>
<text text-anchor="middle" x="67.5" y="-7" font-family="Helvetica,sans-Serif" font-size="10.00">core</text>
</a>
</g>
</g>
<!-- dir_f5f2d4ec245666a771f2716a34348b76&#45;&gt;dir_4270bfced15e0e73154b13468c7c9ad9 -->
<g id="edge2" class="edge">
<title>dir_f5f2d4ec245666a771f2716a34348b76&#45;&gt;dir_4270bfced15e0e73154b13468c7c9ad9</title>
<path fill="none" stroke="#63b8ff" d="M116.49,-54.51C108.13,-47 96,-36.1 85.9,-27.03"/>
<polygon fill="#63b8ff" stroke="#63b8ff" points="88.26,-24.45 78.49,-20.37 83.59,-29.66 88.26,-24.45"/>
<g id="a_edge2&#45;headlabel"><a xlink:href="dir_000009_000015.html" target="_top" xlink:title="2">
<text text-anchor="middle" x="91.71" y="-21.23" font-family="Helvetica,sans-Serif" font-size="10.00" fill="#63b8ff">2</text>
</a>
</g>
</g>
<!-- dir_9f351d46ce3cc29445a41dc3a31e6919 -->
<g id="node4" class="node">
<title>dir_9f351d46ce3cc29445a41dc3a31e6919</title>
<g id="a_node4"><a xlink:href="dir_9f351d46ce3cc29445a41dc3a31e6919.html" target="_top" xlink:title="config">
<polygon fill="#e5f8e5" stroke="#404040" points="149,-19 104,-19 104,0 149,0 149,-19"/>
<text text-anchor="middle" x="126.5" y="-7" font-family="Helvetica,sans-Serif" font-size="10.00">config</text>
</a>
</g>
</g>
<!-- dir_f5f2d4ec245666a771f2716a34348b76&#45;&gt;dir_9f351d46ce3cc29445a41dc3a31e6919 -->
<g id="edge3" class="edge">
<title>dir_f5f2d4ec245666a771f2716a34348b76&#45;&gt;dir_9f351d46ce3cc29445a41dc3a31e6919</title>
<path fill="none" stroke="#63b8ff" d="M126.5,-54.75C126.5,-48.27 126.5,-39.16 126.5,-30.9"/>
<polygon fill="#63b8ff" stroke="#63b8ff" points="130,-30.96 126.5,-20.96 123,-30.96 130,-30.96"/>
<g id="a_edge3&#45;headlabel"><a xlink:href="dir_000009_000012.html" target="_top" xlink:title="1">
<text text-anchor="middle" x="132.84" y="-30.54" font-family="Helvetica,sans-Serif" font-size="10.00" fill="#63b8ff">1</text>
</a>
</g>
</g>
<!-- dir_c8bd9c3a10dcce9475b399a8b9baea33 -->
<g id="node5" class="node">
<title>dir_c8bd9c3a10dcce9475b399a8b9baea33</title>
<g id="a_node5"><a xlink:href="dir_c8bd9c3a10dcce9475b399a8b9baea33.html" target="_top" xlink:title="mutt">
<polygon fill="#e5f8e5" stroke="#404040" points="206,-19 167,-19 167,0 206,0 206,-19"/>
<text text-anchor="middle" x="186.5" y="-7" font-family="Helvetica,sans-Serif" font-size="10.00">mutt</text>
</a>
</g>
</g>
<!-- dir_f5f2d4ec245666a771f2716a34348b76&#45;&gt;dir_c8bd9c3a10dcce9475b399a8b9baea33 -->
<g id="edge4" class="edge">
<title>dir_f5f2d4ec245666a771f2716a34348b76&#45;&gt;dir_c8bd9c3a10dcce9475b399a8b9baea33</title>
<path fill="none" stroke="#63b8ff" d="M136.68,-54.51C145.26,-46.93 157.77,-35.88 168.1,-26.75"/>
<polygon fill="#63b8ff" stroke="#63b8ff" points="170.16,-29.6 175.34,-20.36 165.53,-24.36 170.16,-29.6"/>
<g id="a_edge4&#45;headlabel"><a xlink:href="dir_000009_000033.html" target="_top" xlink:title="2">
<text text-anchor="middle" x="170.48" y="-30.61" font-family="Helvetica,sans-Serif" font-size="10.00" fill="#63b8ff">2</text>
</a>
</g>
</g>
<!-- dir_da89c73ec01786166a3e0981c39282fb -->
<g id="node6" class="node">
<title>dir_da89c73ec01786166a3e0981c39282fb</title>
<g id="a_node6"><a xlink:href="dir_da89c73ec01786166a3e0981c39282fb.html" target="_top" xlink:title="expando">
<polygon fill="#e5f8e5" stroke="#404040" points="280.5,-19 224.5,-19 224.5,0 280.5,0 280.5,-19"/>
<text text-anchor="middle" x="252.5" y="-7" font-family="Helvetica,sans-Serif" font-size="10.00">expando</text>
</a>
</g>
</g>
<!-- dir_f5f2d4ec245666a771f2716a34348b76&#45;&gt;dir_da89c73ec01786166a3e0981c39282fb -->
<g id="edge5" class="edge">
<title>dir_f5f2d4ec245666a771f2716a34348b76&#45;&gt;dir_da89c73ec01786166a3e0981c39282fb</title>
<path fill="none" stroke="#63b8ff" d="M147.87,-54.51C167.91,-46.08 198.1,-33.38 220.91,-23.79"/>
<polygon fill="#63b8ff" stroke="#63b8ff" points="222.19,-27.05 230.05,-19.94 219.47,-20.6 222.19,-27.05"/>
<g id="a_edge5&#45;headlabel"><a xlink:href="dir_000009_000020.html" target="_top" xlink:title="3">
<text text-anchor="middle" x="221.37" y="-27.97" font-family="Helvetica,sans-Serif" font-size="10.00" fill="#63b8ff">3</text>
</a>
</g>
</g>
</g>
</svg>
