<?xml version="1.0" encoding="UTF-8" standalone="no"?>
<!DOCTYPE svg PUBLIC "-//W3C//DTD SVG 1.1//EN"
 "http://www.w3.org/Graphics/SVG/1.1/DTD/svg11.dtd">
<!-- Generated by graphviz version 12.2.1 (20241206.2353)
 -->
<!-- Title: color_is_header Pages: 1 -->
<svg width="485pt" height="107pt"
 viewBox="0.00 0.00 484.50 106.96" xmlns="http://www.w3.org/2000/svg" xmlns:xlink="http://www.w3.org/1999/xlink">
<g id="graph0" class="graph" transform="scale(1 1) rotate(0) translate(4 102.96)">
<title>color_is_header</title>
<!-- Node1 -->
<g id="Node000001" class="node">
<title>Node1</title>
<g id="a_Node000001"><a xlink:title="Colour is for an Email header.">
<polygon fill="#999999" stroke="#666666" points="476.5,-60.25 387.75,-60.25 387.75,-38 476.5,-38 476.5,-60.25"/>
<text text-anchor="middle" x="432.12" y="-46.75" font-family="Helvetica,sans-Serif" font-size="10.00">color_is_header</text>
</a>
</g>
</g>
<!-- Node2 -->
<g id="Node000002" class="node">
<title>Node2</title>
<g id="a_Node000002"><a xlink:href="display_8c.html#abc565efa06ce7f0ca016f3b7c563cca7" target="_top" xlink:title="Print a line on screen.">
<polygon fill="#fff0f0" stroke="red" points="236,-61.25 167.5,-61.25 167.5,-39 236,-39 236,-61.25"/>
<text text-anchor="middle" x="201.75" y="-47.75" font-family="Helvetica,sans-Serif" font-size="10.00">display_line</text>
</a>
</g>
</g>
<!-- Node1&#45;&gt;Node2 -->
<g id="edge1_Node000001_Node000002" class="edge">
<title>Node1&#45;&gt;Node2</title>
<g id="a_edge1_Node000001_Node000002"><a xlink:title=" ">
<path fill="none" stroke="#63b8ff" d="M376.24,-48.93C345.57,-48.87 306.66,-48.87 272,-49.12 260.34,-49.21 247.57,-49.37 236.21,-49.54"/>
<polygon fill="#63b8ff" stroke="#63b8ff" points="376.04,-52.43 386.05,-48.95 376.06,-45.43 376.04,-52.43"/>
</a>
</g>
</g>
<!-- Node87 -->
<g id="Node000087" class="node">
<title>Node87</title>
<g id="a_Node000087"><a xlink:href="group__pager__function__api.html#gab59e0e191c0680a4473156f54d0bea2d" target="_top" xlink:title="Jump to first line after headers &#45; Implements pager_function_t &#45;.">
<polygon fill="white" stroke="#666666" points="128.5,-80.25 3,-80.25 3,-58 128.5,-58 128.5,-80.25"/>
<text text-anchor="middle" x="65.75" y="-66.75" font-family="Helvetica,sans-Serif" font-size="10.00">op_pager_skip_headers</text>
</a>
</g>
</g>
<!-- Node1&#45;&gt;Node87 -->
<g id="edge4_Node000001_Node000087" class="edge">
<title>Node1&#45;&gt;Node87</title>
<g id="a_edge4_Node000001_Node000087"><a xlink:title=" ">
<path fill="none" stroke="#63b8ff" d="M404.54,-66.47C389.67,-75.13 370.41,-84.69 351.75,-89.12 268.99,-108.8 169.21,-93.14 112.35,-80.65"/>
<polygon fill="#63b8ff" stroke="#63b8ff" points="406.04,-69.65 412.78,-61.47 402.41,-63.66 406.04,-69.65"/>
</a>
</g>
</g>
<!-- Node93 -->
<g id="Node000093" class="node">
<title>Node93</title>
<g id="a_Node000093"><a xlink:href="pager_2functions_8c.html#a672bd009ad5787de55ef40249885a637" target="_top" xlink:title="Skip to next unquoted block.">
<polygon fill="#fff0f0" stroke="red" points="131.5,-22.25 0,-22.25 0,0 131.5,0 131.5,-22.25"/>
<text text-anchor="middle" x="65.75" y="-8.75" font-family="Helvetica,sans-Serif" font-size="10.00">pager_skip_quoted_once</text>
</a>
</g>
</g>
<!-- Node1&#45;&gt;Node93 -->
<g id="edge5_Node000001_Node000093" class="edge">
<title>Node1&#45;&gt;Node93</title>
<g id="a_edge5_Node000001_Node000093"><a xlink:title=" ">
<path fill="none" stroke="#63b8ff" d="M376.24,-43.4C310.8,-36.58 201.57,-25.18 131.91,-17.92"/>
<polygon fill="#63b8ff" stroke="#63b8ff" points="375.72,-46.87 386.03,-44.42 376.45,-39.9 375.72,-46.87"/>
</a>
</g>
</g>
<!-- Node95 -->
<g id="Node000095" class="node">
<title>Node95</title>
<g id="a_Node000095"><a xlink:href="display_8c.html#a9912e3b588ad5b08a8fd1cb0fa0df83e" target="_top" xlink:title="Determine the style for a line of text.">
<polygon fill="white" stroke="#666666" points="351.75,-80.25 272,-80.25 272,-58 351.75,-58 351.75,-80.25"/>
<text text-anchor="middle" x="311.88" y="-66.75" font-family="Helvetica,sans-Serif" font-size="10.00">resolve_types</text>
</a>
</g>
</g>
<!-- Node1&#45;&gt;Node95 -->
<g id="edge6_Node000001_Node000095" class="edge">
<title>Node1&#45;&gt;Node95</title>
<g id="a_edge6_Node000001_Node000095"><a xlink:title=" ">
<path fill="none" stroke="#63b8ff" d="M376.1,-58.43C368,-59.8 359.79,-61.19 352.1,-62.49"/>
<polygon fill="#63b8ff" stroke="#63b8ff" points="376.66,-61.89 385.94,-56.77 375.49,-54.98 376.66,-61.89"/>
</a>
</g>
</g>
<!-- Node2&#45;&gt;Node87 -->
<g id="edge2_Node000002_Node000087" class="edge">
<title>Node2&#45;&gt;Node87</title>
<g id="a_edge2_Node000002_Node000087"><a xlink:title=" ">
<path fill="none" stroke="#63b8ff" d="M156.13,-56.45C147.35,-57.7 137.98,-59.02 128.75,-60.33"/>
<polygon fill="#63b8ff" stroke="#63b8ff" points="156.37,-59.95 165.78,-55.08 155.39,-53.02 156.37,-59.95"/>
</a>
</g>
</g>
<!-- Node2&#45;&gt;Node93 -->
<g id="edge3_Node000002_Node000093" class="edge">
<title>Node2&#45;&gt;Node93</title>
<g id="a_edge3_Node000002_Node000093"><a xlink:title=" ">
<path fill="none" stroke="#63b8ff" d="M156.48,-37.24C140.33,-32.54 122.18,-27.26 106.46,-22.68"/>
<polygon fill="#63b8ff" stroke="#63b8ff" points="155.25,-40.53 165.83,-39.96 157.21,-33.81 155.25,-40.53"/>
</a>
</g>
</g>
<!-- Node95&#45;&gt;Node2 -->
<g id="edge7_Node000095_Node000002" class="edge">
<title>Node95&#45;&gt;Node2</title>
<g id="a_edge7_Node000095_Node000002"><a xlink:title=" ">
<path fill="none" stroke="#63b8ff" d="M260.45,-60.26C252.22,-58.82 243.87,-57.35 236.18,-56"/>
<polygon fill="#63b8ff" stroke="#63b8ff" points="259.59,-63.67 270.04,-61.95 260.8,-56.77 259.59,-63.67"/>
</a>
</g>
</g>
</g>
</svg>
