<?xml version="1.0" encoding="UTF-8" standalone="no"?>
<!DOCTYPE svg PUBLIC "-//W3C//DTD SVG 1.1//EN"
 "http://www.w3.org/Graphics/SVG/1.1/DTD/svg11.dtd">
<!-- Generated by graphviz version 7.1.0 (0)
 -->
<!-- Title: alias/dlg_query.c Pages: 1 -->
<svg width="1345pt" height="247pt"
 viewBox="0.00 0.00 1345.26 247.00" xmlns="http://www.w3.org/2000/svg" xmlns:xlink="http://www.w3.org/1999/xlink">
<g id="graph0" class="graph" transform="scale(1 1) rotate(0) translate(4 243)">
<title>alias/dlg_query.c</title>
<!-- Node1 -->
<g id="node1" class="node">
<title>Node1</title>
<g id="a_node1"><a xlink:title="Routines for querying an external address book.">
<polygon fill="#999999" stroke="#666666" points="727.5,-239 634.5,-239 634.5,-220 727.5,-220 727.5,-239"/>
<text text-anchor="middle" x="681" y="-227" font-family="Helvetica,sans-Serif" font-size="10.00">alias/dlg_query.c</text>
</a>
</g>
</g>
<!-- Node2 -->
<g id="node2" class="node">
<title>Node2</title>
<g id="a_node2"><a xlink:title=" ">
<polygon fill="#e0e0e0" stroke="#999999" points="977,-19 923,-19 923,0 977,0 977,-19"/>
<text text-anchor="middle" x="950" y="-7" font-family="Helvetica,sans-Serif" font-size="10.00">config.h</text>
</a>
</g>
</g>
<!-- Node1&#45;&gt;Node2 -->
<g id="edge1" class="edge">
<title>Node1&#45;&gt;Node2</title>
<path fill="none" stroke="#63b8ff" d="M727.51,-228.86C868.73,-229.47 1285.36,-227.54 1326,-184 1333.94,-175.5 1346.49,-147.73 1325,-110 1301.99,-69.59 1279.62,-71.12 1236,-55 1151.29,-23.7 1044.57,-14.41 988.48,-11.66"/>
<polygon fill="#63b8ff" stroke="#63b8ff" points="988.97,-8.18 978.82,-11.23 988.66,-15.17 988.97,-8.18"/>
</g>
<!-- Node3 -->
<g id="node3" class="node">
<title>Node3</title>
<g id="a_node3"><a xlink:title=" ">
<polygon fill="#e0e0e0" stroke="#999999" points="941,-74 881,-74 881,-55 941,-55 941,-74"/>
<text text-anchor="middle" x="911" y="-62" font-family="Helvetica,sans-Serif" font-size="10.00">stdbool.h</text>
</a>
</g>
</g>
<!-- Node1&#45;&gt;Node3 -->
<g id="edge2" class="edge">
<title>Node1&#45;&gt;Node3</title>
<path fill="none" stroke="#63b8ff" d="M718.74,-219.56C750.68,-211.56 797.44,-198.83 837,-184 863.9,-173.92 938.6,-153.25 954,-129 964.5,-112.46 948.73,-93.96 933.41,-81.21"/>
<polygon fill="#63b8ff" stroke="#63b8ff" points="935.9,-78.71 925.85,-75.36 931.62,-84.25 935.9,-78.71"/>
</g>
<!-- Node4 -->
<g id="node4" class="node">
<title>Node4</title>
<g id="a_node4"><a xlink:title=" ">
<polygon fill="#e0e0e0" stroke="#999999" points="123,-184 75,-184 75,-165 123,-165 123,-184"/>
<text text-anchor="middle" x="99" y="-172" font-family="Helvetica,sans-Serif" font-size="10.00">stdio.h</text>
</a>
</g>
</g>
<!-- Node1&#45;&gt;Node4 -->
<g id="edge3" class="edge">
<title>Node1&#45;&gt;Node4</title>
<path fill="none" stroke="#63b8ff" d="M634.03,-227.4C540.6,-224.63 324.77,-215.31 134.73,-184.17"/>
<polygon fill="#63b8ff" stroke="#63b8ff" points="135.34,-180.72 124.9,-182.53 134.19,-187.63 135.34,-180.72"/>
</g>
<!-- Node5 -->
<g id="node5" class="node">
<title>Node5</title>
<g id="a_node5"><a xlink:title=" ">
<polygon fill="#e0e0e0" stroke="#999999" points="194.5,-184 141.5,-184 141.5,-165 194.5,-165 194.5,-184"/>
<text text-anchor="middle" x="168" y="-172" font-family="Helvetica,sans-Serif" font-size="10.00">string.h</text>
</a>
</g>
</g>
<!-- Node1&#45;&gt;Node5 -->
<g id="edge4" class="edge">
<title>Node1&#45;&gt;Node5</title>
<path fill="none" stroke="#63b8ff" d="M634.23,-226.41C550.25,-222.16 368.22,-210.73 205.83,-184.25"/>
<polygon fill="#63b8ff" stroke="#63b8ff" points="206.6,-180.83 196.16,-182.65 205.46,-187.74 206.6,-180.83"/>
</g>
<!-- Node6 -->
<g id="node6" class="node">
<title>Node6</title>
<g id="a_node6"><a xlink:title=" ">
<polygon fill="#e0e0e0" stroke="#999999" points="281.5,-184 212.5,-184 212.5,-165 281.5,-165 281.5,-184"/>
<text text-anchor="middle" x="247" y="-172" font-family="Helvetica,sans-Serif" font-size="10.00">sys/types.h</text>
</a>
</g>
</g>
<!-- Node1&#45;&gt;Node6 -->
<g id="edge5" class="edge">
<title>Node1&#45;&gt;Node6</title>
<path fill="none" stroke="#63b8ff" d="M634.07,-223.94C561.45,-216.69 417.53,-201.55 296,-184 294.99,-183.85 293.97,-183.7 292.94,-183.55"/>
<polygon fill="#63b8ff" stroke="#63b8ff" points="293.68,-180.12 283.25,-182.02 292.58,-187.04 293.68,-180.12"/>
</g>
<!-- Node7 -->
<g id="node7" class="node">
<title>Node7</title>
<g id="a_node7"><a xlink:href="mutt_2lib_8h.html" target="_top" xlink:title="Convenience wrapper for the library headers.">
<polygon fill="#fff0f0" stroke="red" points="594,-74 532,-74 532,-55 594,-55 594,-74"/>
<text text-anchor="middle" x="563" y="-62" font-family="Helvetica,sans-Serif" font-size="10.00">mutt/lib.h</text>
</a>
</g>
</g>
<!-- Node1&#45;&gt;Node7 -->
<g id="edge6" class="edge">
<title>Node1&#45;&gt;Node7</title>
<path fill="none" stroke="#63b8ff" d="M634.11,-228.34C564.67,-226.84 431.13,-219.12 324,-184 307.55,-178.61 305.92,-171.79 290,-165 239.56,-143.5 204.63,-173.07 172,-129 129.7,-71.87 410.66,-65.6 520.41,-65.3"/>
<polygon fill="#63b8ff" stroke="#63b8ff" points="520.19,-68.8 530.18,-65.29 520.18,-61.8 520.19,-68.8"/>
</g>
<!-- Node53 -->
<g id="node8" class="node">
<title>Node53</title>
<g id="a_node8"><a xlink:href="address_2lib_8h.html" target="_top" xlink:title="Email Address Handling.">
<polygon fill="#fff0f0" stroke="red" points="737,-129 661,-129 661,-110 737,-110 737,-129"/>
<text text-anchor="middle" x="699" y="-117" font-family="Helvetica,sans-Serif" font-size="10.00">address/lib.h</text>
</a>
</g>
</g>
<!-- Node1&#45;&gt;Node53 -->
<g id="edge8" class="edge">
<title>Node1&#45;&gt;Node53</title>
<path fill="none" stroke="#63b8ff" d="M682.47,-219.66C685.33,-202.5 691.71,-164.26 695.65,-140.6"/>
<polygon fill="#63b8ff" stroke="#63b8ff" points="699.07,-141.39 697.26,-130.95 692.16,-140.24 699.07,-141.39"/>
</g>
<!-- Node58 -->
<g id="node9" class="node">
<title>Node58</title>
<g id="a_node9"><a xlink:href="config_2lib_8h.html" target="_top" xlink:title="Convenience wrapper for the config headers.">
<polygon fill="#fff0f0" stroke="red" points="945,-129 877,-129 877,-110 945,-110 945,-129"/>
<text text-anchor="middle" x="911" y="-117" font-family="Helvetica,sans-Serif" font-size="10.00">config/lib.h</text>
</a>
</g>
</g>
<!-- Node1&#45;&gt;Node58 -->
<g id="edge9" class="edge">
<title>Node1&#45;&gt;Node58</title>
<path fill="none" stroke="#63b8ff" d="M711.49,-219.55C737.23,-211.54 774.78,-198.81 806,-184 835.8,-169.86 867.97,-149.6 888.73,-135.79"/>
<polygon fill="#63b8ff" stroke="#63b8ff" points="890.62,-138.74 896.96,-130.25 886.71,-132.93 890.62,-138.74"/>
</g>
<!-- Node73 -->
<g id="node10" class="node">
<title>Node73</title>
<g id="a_node10"><a xlink:href="email_2lib_8h.html" target="_top" xlink:title="Structs that make up an email.">
<polygon fill="#fff0f0" stroke="red" points="858.5,-129 793.5,-129 793.5,-110 858.5,-110 858.5,-129"/>
<text text-anchor="middle" x="826" y="-117" font-family="Helvetica,sans-Serif" font-size="10.00">email/lib.h</text>
</a>
</g>
</g>
<!-- Node1&#45;&gt;Node73 -->
<g id="edge11" class="edge">
<title>Node1&#45;&gt;Node73</title>
<path fill="none" stroke="#63b8ff" d="M714.29,-219.54C735.89,-212.5 763.69,-201.01 784,-184 798.55,-171.81 810,-153.32 817.24,-139.42"/>
<polygon fill="#63b8ff" stroke="#63b8ff" points="820.19,-141.36 821.46,-130.84 813.91,-138.27 820.19,-141.36"/>
</g>
<!-- Node88 -->
<g id="node11" class="node">
<title>Node88</title>
<g id="a_node11"><a xlink:href="core_2lib_8h.html" target="_top" xlink:title="Convenience wrapper for the core headers.">
<polygon fill="#fff0f0" stroke="red" points="241,-129 181,-129 181,-110 241,-110 241,-129"/>
<text text-anchor="middle" x="211" y="-117" font-family="Helvetica,sans-Serif" font-size="10.00">core/lib.h</text>
</a>
</g>
</g>
<!-- Node1&#45;&gt;Node88 -->
<g id="edge12" class="edge">
<title>Node1&#45;&gt;Node88</title>
<path fill="none" stroke="#63b8ff" d="M634.14,-225.89C572.04,-221.52 459.51,-210.44 367,-184 346.91,-178.26 343.28,-173.05 324,-165 297.7,-154.02 267.67,-142.23 245.18,-133.54"/>
<polygon fill="#63b8ff" stroke="#63b8ff" points="246.49,-130.29 235.9,-129.97 243.97,-136.83 246.49,-130.29"/>
</g>
<!-- Node100 -->
<g id="node12" class="node">
<title>Node100</title>
<g id="a_node12"><a xlink:href="gui_2lib_8h.html" target="_top" xlink:title="Convenience wrapper for the gui headers.">
<polygon fill="#fff0f0" stroke="red" points="596,-184 542,-184 542,-165 596,-165 596,-184"/>
<text text-anchor="middle" x="569" y="-172" font-family="Helvetica,sans-Serif" font-size="10.00">gui/lib.h</text>
</a>
</g>
</g>
<!-- Node1&#45;&gt;Node100 -->
<g id="edge13" class="edge">
<title>Node1&#45;&gt;Node100</title>
<path fill="none" stroke="#63b8ff" d="M662,-219.51C644.44,-211.2 618.08,-198.73 597.91,-189.18"/>
<polygon fill="#63b8ff" stroke="#63b8ff" points="599.62,-186.12 589.09,-185.01 596.63,-192.45 599.62,-186.12"/>
</g>
<!-- Node136 -->
<g id="node13" class="node">
<title>Node136</title>
<g id="a_node13"><a xlink:href="mutt_8h.html" target="_top" xlink:title="Many unsorted constants and some structs.">
<polygon fill="#fff0f0" stroke="red" points="1301,-129 1253,-129 1253,-110 1301,-110 1301,-129"/>
<text text-anchor="middle" x="1277" y="-117" font-family="Helvetica,sans-Serif" font-size="10.00">mutt.h</text>
</a>
</g>
</g>
<!-- Node1&#45;&gt;Node136 -->
<g id="edge14" class="edge">
<title>Node1&#45;&gt;Node136</title>
<path fill="none" stroke="#63b8ff" d="M727.83,-228.77C866.95,-229.1 1270.54,-226.35 1310,-184 1322.77,-170.3 1309.06,-150.72 1295.63,-136.93"/>
<polygon fill="#63b8ff" stroke="#63b8ff" points="1298.28,-134.63 1288.64,-130.25 1293.45,-139.69 1298.28,-134.63"/>
</g>
<!-- Node138 -->
<g id="node14" class="node">
<title>Node138</title>
<g id="a_node14"><a xlink:href="alias_2lib_8h.html" target="_top" xlink:title="Email Aliases.">
<polygon fill="#fff0f0" stroke="red" points="412,-184 376,-184 376,-165 412,-165 412,-184"/>
<text text-anchor="middle" x="394" y="-172" font-family="Helvetica,sans-Serif" font-size="10.00">lib.h</text>
</a>
</g>
</g>
<!-- Node1&#45;&gt;Node138 -->
<g id="edge17" class="edge">
<title>Node1&#45;&gt;Node138</title>
<path fill="none" stroke="#63b8ff" d="M634.11,-222.43C584.1,-215.52 502.42,-203 423.6,-184.36"/>
<polygon fill="#63b8ff" stroke="#63b8ff" points="424.51,-180.98 413.97,-182.04 422.87,-187.78 424.51,-180.98"/>
</g>
<!-- Node139 -->
<g id="node15" class="node">
<title>Node139</title>
<g id="a_node15"><a xlink:href="alias_2expando_8h.html" target="_top" xlink:title="Alias Expando definitions.">
<polygon fill="white" stroke="#666666" points="102.5,-129 37.5,-129 37.5,-110 102.5,-110 102.5,-129"/>
<text text-anchor="middle" x="70" y="-117" font-family="Helvetica,sans-Serif" font-size="10.00">expando.h</text>
</a>
</g>
</g>
<!-- Node1&#45;&gt;Node139 -->
<g id="edge48" class="edge">
<title>Node1&#45;&gt;Node139</title>
<path fill="none" stroke="#63b8ff" d="M634.24,-228.69C497.31,-228.77 104.46,-225.35 66,-184 55.18,-172.37 57.78,-153.78 62.13,-139.71"/>
<polygon fill="#63b8ff" stroke="#63b8ff" points="65.3,-141.23 65.43,-130.63 58.72,-138.84 65.3,-141.23"/>
</g>
<!-- Node140 -->
<g id="node16" class="node">
<title>Node140</title>
<g id="a_node16"><a xlink:href="expando_2lib_8h.html" target="_top" xlink:title="Parse Expando string.">
<polygon fill="#fff0f0" stroke="red" points="80,-74 0,-74 0,-55 80,-55 80,-74"/>
<text text-anchor="middle" x="40" y="-62" font-family="Helvetica,sans-Serif" font-size="10.00">expando/lib.h</text>
</a>
</g>
</g>
<!-- Node1&#45;&gt;Node140 -->
<g id="edge26" class="edge">
<title>Node1&#45;&gt;Node140</title>
<path fill="none" stroke="#63b8ff" d="M634.19,-227.83C497.02,-225.52 102.67,-216.11 55,-184 25.96,-164.44 23.4,-144.71 28,-110 29.1,-101.67 31.32,-92.69 33.55,-84.99"/>
<polygon fill="#63b8ff" stroke="#63b8ff" points="36.82,-86.26 36.46,-75.67 30.14,-84.17 36.82,-86.26"/>
</g>
<!-- Node158 -->
<g id="node17" class="node">
<title>Node158</title>
<g id="a_node17"><a xlink:href="editor_2lib_8h.html" target="_top" xlink:title="Edit a string.">
<polygon fill="#fff0f0" stroke="red" points="1013,-184 945,-184 945,-165 1013,-165 1013,-184"/>
<text text-anchor="middle" x="979" y="-172" font-family="Helvetica,sans-Serif" font-size="10.00">editor/lib.h</text>
</a>
</g>
</g>
<!-- Node1&#45;&gt;Node158 -->
<g id="edge22" class="edge">
<title>Node1&#45;&gt;Node158</title>
<path fill="none" stroke="#63b8ff" d="M727.89,-220.16C784.2,-210.15 878.01,-193.46 933.63,-183.57"/>
<polygon fill="#63b8ff" stroke="#63b8ff" points="934.17,-187.03 943.41,-181.83 932.95,-180.14 934.17,-187.03"/>
</g>
<!-- Node163 -->
<g id="node18" class="node">
<title>Node163</title>
<g id="a_node18"><a xlink:href="history_2lib_8h.html" target="_top" xlink:title="Read/write command history from/to a file.">
<polygon fill="#fff0f0" stroke="red" points="1073,-129 1001,-129 1001,-110 1073,-110 1073,-129"/>
<text text-anchor="middle" x="1037" y="-117" font-family="Helvetica,sans-Serif" font-size="10.00">history/lib.h</text>
</a>
</g>
</g>
<!-- Node1&#45;&gt;Node163 -->
<g id="edge27" class="edge">
<title>Node1&#45;&gt;Node163</title>
<path fill="none" stroke="#63b8ff" d="M727.63,-221.6C771.07,-214.49 837.33,-201.92 893,-184 912.89,-177.6 916.88,-173.43 936,-165 959.67,-154.56 986.46,-142.75 1006.5,-133.93"/>
<polygon fill="#63b8ff" stroke="#63b8ff" points="1007.75,-137.2 1015.49,-129.97 1004.93,-130.8 1007.75,-137.2"/>
</g>
<!-- Node103 -->
<g id="node19" class="node">
<title>Node103</title>
<g id="a_node19"><a xlink:href="key_2lib_8h.html" target="_top" xlink:title="Manage keymappings.">
<polygon fill="#fff0f0" stroke="red" points="486,-184 430,-184 430,-165 486,-165 486,-184"/>
<text text-anchor="middle" x="458" y="-172" font-family="Helvetica,sans-Serif" font-size="10.00">key/lib.h</text>
</a>
</g>
</g>
<!-- Node1&#45;&gt;Node103 -->
<g id="edge28" class="edge">
<title>Node1&#45;&gt;Node103</title>
<path fill="none" stroke="#63b8ff" d="M643.17,-219.51C602.62,-209.87 538.54,-194.64 497.4,-184.86"/>
<polygon fill="#63b8ff" stroke="#63b8ff" points="498.45,-181.52 487.91,-182.61 496.83,-188.33 498.45,-181.52"/>
</g>
<!-- Node104 -->
<g id="node20" class="node">
<title>Node104</title>
<g id="a_node20"><a xlink:href="menu_2lib_8h.html" target="_top" xlink:title="GUI present the user with a selectable list.">
<polygon fill="#fff0f0" stroke="red" points="402.5,-129 335.5,-129 335.5,-110 402.5,-110 402.5,-129"/>
<text text-anchor="middle" x="369" y="-117" font-family="Helvetica,sans-Serif" font-size="10.00">menu/lib.h</text>
</a>
</g>
</g>
<!-- Node1&#45;&gt;Node104 -->
<g id="edge37" class="edge">
<title>Node1&#45;&gt;Node104</title>
<path fill="none" stroke="#63b8ff" d="M645.13,-219.57C614.79,-211.57 570.41,-198.85 533,-184 515.45,-177.03 512.38,-172.38 495,-165 466.58,-152.93 433.64,-141.38 408.58,-133.07"/>
<polygon fill="#63b8ff" stroke="#63b8ff" points="409.69,-129.75 399.1,-129.97 407.51,-136.41 409.69,-129.75"/>
</g>
<!-- Node165 -->
<g id="node21" class="node">
<title>Node165</title>
<g id="a_node21"><a xlink:href="pattern_2lib_8h.html" target="_top" xlink:title="Match patterns to emails.">
<polygon fill="#fff0f0" stroke="red" points="1224.5,-184 1149.5,-184 1149.5,-165 1224.5,-165 1224.5,-184"/>
<text text-anchor="middle" x="1187" y="-172" font-family="Helvetica,sans-Serif" font-size="10.00">pattern/lib.h</text>
</a>
</g>
</g>
<!-- Node1&#45;&gt;Node165 -->
<g id="edge38" class="edge">
<title>Node1&#45;&gt;Node165</title>
<path fill="none" stroke="#63b8ff" d="M727.84,-224.91C810.32,-218.36 986.77,-203.36 1135,-184 1136.01,-183.87 1137.03,-183.73 1138.06,-183.59"/>
<polygon fill="#63b8ff" stroke="#63b8ff" points="1138.38,-187.08 1147.77,-182.18 1137.37,-180.15 1138.38,-187.08"/>
</g>
<!-- Node167 -->
<g id="node22" class="node">
<title>Node167</title>
<g id="a_node22"><a xlink:href="send_2lib_8h.html" target="_top" xlink:title="Convenience wrapper for the send headers.">
<polygon fill="#fff0f0" stroke="red" points="1093,-184 1031,-184 1031,-165 1093,-165 1093,-184"/>
<text text-anchor="middle" x="1062" y="-172" font-family="Helvetica,sans-Serif" font-size="10.00">send/lib.h</text>
</a>
</g>
</g>
<!-- Node1&#45;&gt;Node167 -->
<g id="edge43" class="edge">
<title>Node1&#45;&gt;Node167</title>
<path fill="none" stroke="#63b8ff" d="M727.78,-223.59C791.47,-216.64 909.25,-202.86 1019.29,-184.34"/>
<polygon fill="#63b8ff" stroke="#63b8ff" points="1019.84,-187.8 1029.11,-182.67 1018.66,-180.9 1019.84,-187.8"/>
</g>
<!-- Node176 -->
<g id="node23" class="node">
<title>Node176</title>
<g id="a_node23"><a xlink:href="alias_8h.html" target="_top" xlink:title="Representation of a single alias to an email address.">
<polygon fill="white" stroke="#666666" points="774.5,-184 729.5,-184 729.5,-165 774.5,-165 774.5,-184"/>
<text text-anchor="middle" x="752" y="-172" font-family="Helvetica,sans-Serif" font-size="10.00">alias.h</text>
</a>
</g>
</g>
<!-- Node1&#45;&gt;Node176 -->
<g id="edge44" class="edge">
<title>Node1&#45;&gt;Node176</title>
<path fill="none" stroke="#63b8ff" d="M693.04,-219.51C703.41,-211.77 718.6,-200.43 730.97,-191.2"/>
<polygon fill="#63b8ff" stroke="#63b8ff" points="733,-194.05 738.92,-185.26 728.81,-188.44 733,-194.05"/>
</g>
<!-- Node177 -->
<g id="node24" class="node">
<title>Node177</title>
<g id="a_node24"><a xlink:href="alias_2functions_8h.html" target="_top" xlink:title="Alias functions.">
<polygon fill="white" stroke="#666666" points="1159,-129 1091,-129 1091,-110 1159,-110 1159,-129"/>
<text text-anchor="middle" x="1125" y="-117" font-family="Helvetica,sans-Serif" font-size="10.00">functions.h</text>
</a>
</g>
</g>
<!-- Node1&#45;&gt;Node177 -->
<g id="edge49" class="edge">
<title>Node1&#45;&gt;Node177</title>
<path fill="none" stroke="#63b8ff" d="M727.69,-226.33C831.18,-221.14 1072.99,-206.71 1102,-184 1115.28,-173.6 1120.9,-154.84 1123.27,-140.39"/>
<polygon fill="#63b8ff" stroke="#63b8ff" points="1126.73,-140.98 1124.45,-130.63 1119.78,-140.14 1126.73,-140.98"/>
</g>
<!-- Node178 -->
<g id="node25" class="node">
<title>Node178</title>
<g id="a_node25"><a xlink:title=" ">
<polygon fill="#e0e0e0" stroke="#999999" points="1301,-184 1243,-184 1243,-165 1301,-165 1301,-184"/>
<text text-anchor="middle" x="1272" y="-172" font-family="Helvetica,sans-Serif" font-size="10.00">globals.h</text>
</a>
</g>
</g>
<!-- Node1&#45;&gt;Node178 -->
<g id="edge51" class="edge">
<title>Node1&#45;&gt;Node178</title>
<path fill="none" stroke="#63b8ff" d="M727.86,-226.94C821.67,-223.34 1039.32,-212.59 1231.46,-184.17"/>
<polygon fill="#63b8ff" stroke="#63b8ff" points="1231.75,-187.67 1241.12,-182.72 1230.71,-180.75 1231.75,-187.67"/>
</g>
<!-- Node179 -->
<g id="node26" class="node">
<title>Node179</title>
<g id="a_node26"><a xlink:href="gui_8h.html" target="_top" xlink:title="Shared code for the Alias and Query Dialogs.">
<polygon fill="white" stroke="#666666" points="643,-129 603,-129 603,-110 643,-110 643,-129"/>
<text text-anchor="middle" x="623" y="-117" font-family="Helvetica,sans-Serif" font-size="10.00">gui.h</text>
</a>
</g>
</g>
<!-- Node1&#45;&gt;Node179 -->
<g id="edge52" class="edge">
<title>Node1&#45;&gt;Node179</title>
<path fill="none" stroke="#63b8ff" d="M676.25,-219.66C666.86,-202.18 645.74,-162.84 633.1,-139.3"/>
<polygon fill="#63b8ff" stroke="#63b8ff" points="636.34,-137.95 628.53,-130.79 630.18,-141.26 636.34,-137.95"/>
</g>
<!-- Node180 -->
<g id="node27" class="node">
<title>Node180</title>
<g id="a_node27"><a xlink:href="mutt__logging_8h.html" target="_top" xlink:title="NeoMutt Logging.">
<polygon fill="#fff0f0" stroke="red" points="546.5,-129 459.5,-129 459.5,-110 546.5,-110 546.5,-129"/>
<text text-anchor="middle" x="503" y="-117" font-family="Helvetica,sans-Serif" font-size="10.00">mutt_logging.h</text>
</a>
</g>
</g>
<!-- Node1&#45;&gt;Node180 -->
<g id="edge55" class="edge">
<title>Node1&#45;&gt;Node180</title>
<path fill="none" stroke="#63b8ff" d="M672.29,-219.77C658.8,-206.61 631.62,-181.46 605,-165 584.34,-152.23 559.37,-141.27 539.31,-133.42"/>
<polygon fill="#63b8ff" stroke="#63b8ff" points="540.73,-130.22 530.14,-129.93 538.24,-136.76 540.73,-130.22"/>
</g>
<!-- Node7&#45;&gt;Node2 -->
<g id="edge7" class="edge">
<title>Node7&#45;&gt;Node2</title>
<path fill="none" stroke="#63b8ff" d="M594.34,-59.21C664.69,-49.57 834.96,-26.26 911.55,-15.77"/>
<polygon fill="#63b8ff" stroke="#63b8ff" points="911.64,-19.29 921.07,-14.46 910.69,-12.35 911.64,-19.29"/>
</g>
<!-- Node58&#45;&gt;Node3 -->
<g id="edge10" class="edge">
<title>Node58&#45;&gt;Node3</title>
<path fill="none" stroke="#63b8ff" d="M911,-109.75C911,-103.27 911,-94.16 911,-85.9"/>
<polygon fill="#63b8ff" stroke="#63b8ff" points="914.5,-85.96 911,-75.96 907.5,-85.96 914.5,-85.96"/>
</g>
<!-- Node136&#45;&gt;Node2 -->
<g id="edge15" class="edge">
<title>Node136&#45;&gt;Node2</title>
<path fill="none" stroke="#63b8ff" d="M1252.69,-110.47C1196.19,-91.81 1055.67,-45.4 987.83,-22.99"/>
<polygon fill="#63b8ff" stroke="#63b8ff" points="989.23,-19.77 978.64,-19.96 987.04,-26.42 989.23,-19.77"/>
</g>
<!-- Node136&#45;&gt;Node3 -->
<g id="edge16" class="edge">
<title>Node136&#45;&gt;Node3</title>
<path fill="none" stroke="#63b8ff" d="M1252.53,-112.71C1248.04,-111.73 1243.39,-110.79 1239,-110 1136.71,-91.65 1015.26,-77.02 952.76,-70.01"/>
<polygon fill="#63b8ff" stroke="#63b8ff" points="953.26,-66.55 942.94,-68.92 952.49,-73.5 953.26,-66.55"/>
</g>
<!-- Node138&#45;&gt;Node3 -->
<g id="edge18" class="edge">
<title>Node138&#45;&gt;Node3</title>
<path fill="none" stroke="#63b8ff" d="M398.81,-164.64C407.12,-150.32 425.65,-122.43 450,-110 522.68,-72.88 769.97,-66.65 869.25,-65.66"/>
<polygon fill="#63b8ff" stroke="#63b8ff" points="869.12,-69.16 879.09,-65.58 869.06,-62.16 869.12,-69.16"/>
</g>
<!-- Node138&#45;&gt;Node88 -->
<g id="edge19" class="edge">
<title>Node138&#45;&gt;Node88</title>
<path fill="none" stroke="#63b8ff" d="M375.78,-168.22C347.15,-159.93 290.88,-143.64 252.13,-132.41"/>
<polygon fill="#63b8ff" stroke="#63b8ff" points="253.24,-129.09 242.66,-129.67 251.29,-135.81 253.24,-129.09"/>
</g>
<!-- Node138&#45;&gt;Node139 -->
<g id="edge20" class="edge">
<title>Node138&#45;&gt;Node139</title>
<path fill="none" stroke="#63b8ff" d="M375.65,-170.5C325.59,-162.31 185.58,-139.41 113.74,-127.65"/>
<polygon fill="#63b8ff" stroke="#63b8ff" points="114.74,-124.27 104.31,-126.11 113.61,-131.18 114.74,-124.27"/>
</g>
<!-- Node139&#45;&gt;Node140 -->
<g id="edge21" class="edge">
<title>Node139&#45;&gt;Node140</title>
<path fill="none" stroke="#63b8ff" d="M65.05,-109.75C61.16,-102.88 55.61,-93.08 50.72,-84.45"/>
<polygon fill="#63b8ff" stroke="#63b8ff" points="53.78,-82.74 45.81,-75.76 47.69,-86.19 53.78,-82.74"/>
</g>
<!-- Node158&#45;&gt;Node136 -->
<g id="edge23" class="edge">
<title>Node158&#45;&gt;Node136</title>
<path fill="none" stroke="#63b8ff" d="M1013.25,-166.66C1016.21,-166.09 1019.16,-165.53 1022,-165 1100.16,-150.46 1192.08,-134.76 1241.41,-126.45"/>
<polygon fill="#63b8ff" stroke="#63b8ff" points="1241.93,-129.91 1251.21,-124.8 1240.77,-123.01 1241.93,-129.91"/>
</g>
<!-- Node158&#45;&gt;Node163 -->
<g id="edge24" class="edge">
<title>Node158&#45;&gt;Node163</title>
<path fill="none" stroke="#63b8ff" d="M988.84,-164.51C997.05,-157 1008.98,-146.1 1018.91,-137.03"/>
<polygon fill="#63b8ff" stroke="#63b8ff" points="1021.17,-139.71 1026.19,-130.38 1016.45,-134.54 1021.17,-139.71"/>
</g>
<!-- Node163&#45;&gt;Node3 -->
<g id="edge25" class="edge">
<title>Node163&#45;&gt;Node3</title>
<path fill="none" stroke="#63b8ff" d="M1015.63,-109.51C995.59,-101.08 965.4,-88.38 942.59,-78.79"/>
<polygon fill="#63b8ff" stroke="#63b8ff" points="944.03,-75.6 933.45,-74.94 941.31,-82.05 944.03,-75.6"/>
</g>
<!-- Node103&#45;&gt;Node2 -->
<g id="edge29" class="edge">
<title>Node103&#45;&gt;Node2</title>
<path fill="none" stroke="#63b8ff" d="M429.65,-166.33C390.98,-156.27 325.68,-138.16 319,-129 314.02,-122.18 314.21,-116.96 319,-110 386.48,-12 784.16,-8.38 911.09,-9.77"/>
<polygon fill="#63b8ff" stroke="#63b8ff" points="910.95,-13.27 920.99,-9.9 911.04,-6.27 910.95,-13.27"/>
</g>
<!-- Node103&#45;&gt;Node3 -->
<g id="edge30" class="edge">
<title>Node103&#45;&gt;Node3</title>
<path fill="none" stroke="#63b8ff" d="M477.75,-164.6C497.4,-155.71 528.37,-141.59 555,-129 572.43,-120.76 575.56,-115.63 594,-110 689.87,-80.72 808.02,-70.61 869.45,-67.19"/>
<polygon fill="#63b8ff" stroke="#63b8ff" points="869.29,-70.7 879.09,-66.69 868.92,-63.71 869.29,-70.7"/>
</g>
<!-- Node103&#45;&gt;Node7 -->
<g id="edge31" class="edge">
<title>Node103&#45;&gt;Node7</title>
<path fill="none" stroke="#63b8ff" d="M429.52,-165.8C392.61,-155.54 332.22,-137.67 326,-129 321.07,-122.14 320.61,-116.5 326,-110 350.23,-80.79 459.03,-70.63 520.44,-67.19"/>
<polygon fill="#63b8ff" stroke="#63b8ff" points="520.38,-70.7 530.18,-66.69 520.01,-63.71 520.38,-70.7"/>
</g>
<!-- Node103&#45;&gt;Node88 -->
<g id="edge32" class="edge">
<title>Node103&#45;&gt;Node88</title>
<path fill="none" stroke="#63b8ff" d="M429.73,-166.95C426.78,-166.29 423.83,-165.63 421,-165 362.62,-152.11 294.95,-137.9 252.55,-129.09"/>
<polygon fill="#63b8ff" stroke="#63b8ff" points="253.27,-125.66 242.77,-127.06 251.85,-132.52 253.27,-125.66"/>
</g>
<!-- Node103&#45;&gt;Node104 -->
<g id="edge33" class="edge">
<title>Node103&#45;&gt;Node104</title>
<path fill="none" stroke="#63b8ff" d="M442.9,-164.51C429.4,-156.47 409.35,-144.53 393.54,-135.11"/>
<polygon fill="#63b8ff" stroke="#63b8ff" points="395.56,-132.24 385.18,-130.13 391.98,-138.26 395.56,-132.24"/>
</g>
<!-- Node104&#45;&gt;Node2 -->
<g id="edge34" class="edge">
<title>Node104&#45;&gt;Node2</title>
<path fill="none" stroke="#63b8ff" d="M386,-109.58C413.8,-95.43 471.13,-68.11 523,-55 662.93,-19.65 835.48,-12.32 911.24,-10.84"/>
<polygon fill="#63b8ff" stroke="#63b8ff" points="911.1,-14.34 921.04,-10.68 910.98,-7.35 911.1,-14.34"/>
</g>
<!-- Node104&#45;&gt;Node3 -->
<g id="edge35" class="edge">
<title>Node104&#45;&gt;Node3</title>
<path fill="none" stroke="#63b8ff" d="M402.77,-112.15C407.54,-111.36 412.39,-110.62 417,-110 583.92,-87.74 784.08,-73.52 869.3,-68.05"/>
<polygon fill="#63b8ff" stroke="#63b8ff" points="869.28,-71.56 879.03,-67.43 868.83,-64.57 869.28,-71.56"/>
</g>
<!-- Node104&#45;&gt;Node7 -->
<g id="edge36" class="edge">
<title>Node104&#45;&gt;Node7</title>
<path fill="none" stroke="#63b8ff" d="M401.91,-109.51C434.59,-100.58 484.83,-86.86 520.51,-77.11"/>
<polygon fill="#63b8ff" stroke="#63b8ff" points="521.35,-80.51 530.08,-74.49 519.51,-73.75 521.35,-80.51"/>
</g>
<!-- Node165&#45;&gt;Node2 -->
<g id="edge39" class="edge">
<title>Node165&#45;&gt;Node2</title>
<path fill="none" stroke="#63b8ff" d="M1224.92,-164.83C1257.21,-156.6 1299.92,-143.36 1310,-129 1314.85,-122.09 1315.04,-116.78 1310,-110 1271.29,-57.94 1073.17,-26.48 988.48,-15.22"/>
<polygon fill="#63b8ff" stroke="#63b8ff" points="989.18,-11.78 978.81,-13.96 988.27,-18.72 989.18,-11.78"/>
</g>
<!-- Node165&#45;&gt;Node3 -->
<g id="edge40" class="edge">
<title>Node165&#45;&gt;Node3</title>
<path fill="none" stroke="#63b8ff" d="M1193.19,-164.56C1201.66,-151.11 1214.38,-125.59 1201,-110 1169.5,-73.29 1025.12,-66.56 952.69,-65.53"/>
<polygon fill="#63b8ff" stroke="#63b8ff" points="952.84,-62.03 942.8,-65.42 952.77,-69.03 952.84,-62.03"/>
</g>
<!-- Node165&#45;&gt;Node7 -->
<g id="edge41" class="edge">
<title>Node165&#45;&gt;Node7</title>
<path fill="none" stroke="#63b8ff" d="M1187.26,-164.86C1187.16,-150.85 1184.69,-123.4 1168,-110 1146.08,-92.39 739.72,-73.19 605.57,-67.31"/>
<polygon fill="#63b8ff" stroke="#63b8ff" points="605.84,-63.82 595.7,-66.88 605.54,-70.81 605.84,-63.82"/>
</g>
<!-- Node165&#45;&gt;Node136 -->
<g id="edge42" class="edge">
<title>Node165&#45;&gt;Node136</title>
<path fill="none" stroke="#63b8ff" d="M1202.27,-164.51C1215.93,-156.47 1236.2,-144.53 1252.18,-135.11"/>
<polygon fill="#63b8ff" stroke="#63b8ff" points="1253.81,-138.22 1260.65,-130.13 1250.26,-132.18 1253.81,-138.22"/>
</g>
<!-- Node176&#45;&gt;Node7 -->
<g id="edge45" class="edge">
<title>Node176&#45;&gt;Node7</title>
<path fill="none" stroke="#63b8ff" d="M754.01,-164.91C756.6,-151.47 759.33,-125.41 746,-110 727.92,-89.1 653.91,-76.4 605.73,-70.18"/>
<polygon fill="#63b8ff" stroke="#63b8ff" points="606.24,-66.72 595.88,-68.96 605.38,-73.66 606.24,-66.72"/>
</g>
<!-- Node176&#45;&gt;Node53 -->
<g id="edge46" class="edge">
<title>Node176&#45;&gt;Node53</title>
<path fill="none" stroke="#63b8ff" d="M743.25,-164.75C735.85,-157.35 725.04,-146.54 715.95,-137.45"/>
<polygon fill="#63b8ff" stroke="#63b8ff" points="718.56,-135.11 709.01,-130.51 713.61,-140.06 718.56,-135.11"/>
</g>
<!-- Node176&#45;&gt;Node73 -->
<g id="edge47" class="edge">
<title>Node176&#45;&gt;Node73</title>
<path fill="none" stroke="#63b8ff" d="M764.55,-164.51C775.46,-156.7 791.5,-145.21 804.46,-135.93"/>
<polygon fill="#63b8ff" stroke="#63b8ff" points="806.31,-138.91 812.4,-130.24 802.23,-133.22 806.31,-138.91"/>
</g>
<!-- Node177&#45;&gt;Node3 -->
<g id="edge50" class="edge">
<title>Node177&#45;&gt;Node3</title>
<path fill="none" stroke="#63b8ff" d="M1090.62,-109.98C1053.01,-100.67 992.73,-85.74 952.51,-75.78"/>
<polygon fill="#63b8ff" stroke="#63b8ff" points="953.5,-72.42 942.95,-73.41 951.82,-79.22 953.5,-72.42"/>
</g>
<!-- Node179&#45;&gt;Node3 -->
<g id="edge53" class="edge">
<title>Node179&#45;&gt;Node3</title>
<path fill="none" stroke="#63b8ff" d="M643.2,-112.26C646.14,-111.44 649.14,-110.66 652,-110 728.08,-92.38 818.21,-78.43 869.59,-71.12"/>
<polygon fill="#63b8ff" stroke="#63b8ff" points="869.95,-74.6 879.37,-69.74 868.98,-67.67 869.95,-74.6"/>
</g>
<!-- Node179&#45;&gt;Node7 -->
<g id="edge54" class="edge">
<title>Node179&#45;&gt;Node7</title>
<path fill="none" stroke="#63b8ff" d="M612.82,-109.51C604.24,-101.93 591.73,-90.88 581.4,-81.75"/>
<polygon fill="#63b8ff" stroke="#63b8ff" points="583.97,-79.36 574.16,-75.36 579.34,-84.6 583.97,-79.36"/>
</g>
<!-- Node180&#45;&gt;Node3 -->
<g id="edge56" class="edge">
<title>Node180&#45;&gt;Node3</title>
<path fill="none" stroke="#63b8ff" d="M546.69,-112.01C551.52,-111.32 556.36,-110.63 561,-110 672.35,-94.76 803.88,-78.51 869.46,-70.52"/>
<polygon fill="#63b8ff" stroke="#63b8ff" points="869.54,-74.04 879.04,-69.36 868.69,-67.09 869.54,-74.04"/>
</g>
<!-- Node180&#45;&gt;Node7 -->
<g id="edge57" class="edge">
<title>Node180&#45;&gt;Node7</title>
<path fill="none" stroke="#63b8ff" d="M513.18,-109.51C521.76,-101.93 534.27,-90.88 544.6,-81.75"/>
<polygon fill="#63b8ff" stroke="#63b8ff" points="546.66,-84.6 551.84,-75.36 542.03,-79.36 546.66,-84.6"/>
</g>
</g>
</svg>
