<?xml version="1.0" encoding="UTF-8" standalone="no"?>
<!DOCTYPE svg PUBLIC "-//W3C//DTD SVG 1.1//EN"
 "http://www.w3.org/Graphics/SVG/1.1/DTD/svg11.dtd">
<!-- Generated by graphviz version 12.2.1 (20241206.2353)
 -->
<!-- Title: examine_directory Pages: 1 -->
<svg width="500pt" height="622pt"
 viewBox="0.00 0.00 500.25 622.25" xmlns="http://www.w3.org/2000/svg" xmlns:xlink="http://www.w3.org/1999/xlink">
<g id="graph0" class="graph" transform="scale(1 1) rotate(0) translate(4 618.25)">
<title>examine_directory</title>
<!-- Node1 -->
<g id="Node000001" class="node">
<title>Node1</title>
<g id="a_Node000001"><a xlink:title="Get list of all files/newsgroups with mask.">
<polygon fill="#999999" stroke="#666666" points="101.5,-318.25 0,-318.25 0,-296 101.5,-296 101.5,-318.25"/>
<text text-anchor="middle" x="50.75" y="-304.75" font-family="Helvetica,sans-Serif" font-size="10.00">examine_directory</text>
</a>
</g>
</g>
<!-- Node2 -->
<g id="Node000002" class="node">
<title>Node2</title>
<g id="a_Node000002"><a xlink:href="dlg__browser_8c.html#ace60dbe18a29af9387994ce9905074d5" target="_top" xlink:title="Add a folder to the browser list.">
<polygon fill="#fff0f0" stroke="red" points="246.88,-614.25 137.88,-614.25 137.88,-592 246.88,-592 246.88,-614.25"/>
<text text-anchor="middle" x="192.38" y="-600.75" font-family="Helvetica,sans-Serif" font-size="10.00">browser_add_folder</text>
</a>
</g>
</g>
<!-- Node1&#45;&gt;Node2 -->
<g id="edge1_Node000001_Node000002" class="edge">
<title>Node1&#45;&gt;Node2</title>
<g id="a_edge1_Node000001_Node000002"><a xlink:title=" ">
<path fill="none" stroke="#63b8ff" d="M51.89,-318.6C53.03,-360.07 62.45,-503.89 137.5,-583.12 138.09,-583.75 138.7,-584.36 139.34,-584.94"/>
<polygon fill="#63b8ff" stroke="#63b8ff" points="137.09,-587.63 147.24,-590.67 141.2,-581.97 137.09,-587.63"/>
</a>
</g>
</g>
<!-- Node5 -->
<g id="Node000005" class="node">
<title>Node5</title>
<g id="a_Node000005"><a xlink:href="browser_2sort_8c.html#a1fb68dfcd0418c277eb7d28aeb2d175f" target="_top" xlink:title="Sort the entries in the browser.">
<polygon fill="#fff0f0" stroke="red" points="231.12,-574.25 153.62,-574.25 153.62,-552 231.12,-552 231.12,-574.25"/>
<text text-anchor="middle" x="192.38" y="-560.75" font-family="Helvetica,sans-Serif" font-size="10.00">browser_sort</text>
</a>
</g>
</g>
<!-- Node1&#45;&gt;Node5 -->
<g id="edge2_Node000001_Node000005" class="edge">
<title>Node1&#45;&gt;Node5</title>
<g id="a_edge2_Node000001_Node000005"><a xlink:title=" ">
<path fill="none" stroke="#63b8ff" d="M52.59,-318.49C55.94,-355.93 71.61,-476.78 137.5,-543.12 139.3,-544.94 141.28,-546.59 143.38,-548.09"/>
<polygon fill="#63b8ff" stroke="#63b8ff" points="141.51,-551.05 151.92,-553.01 145.01,-544.99 141.51,-551.05"/>
</a>
</g>
</g>
<!-- Node37 -->
<g id="Node000037" class="node">
<title>Node37</title>
<g id="a_Node000037"><a xlink:href="buffer_8c.html#adaa2f71e71ace3ab78dacac4dabe99cf" target="_top" xlink:title="Join a directory name and a filename.">
<polygon fill="#fff0f0" stroke="red" points="238.25,-534.25 146.5,-534.25 146.5,-512 238.25,-512 238.25,-534.25"/>
<text text-anchor="middle" x="192.38" y="-520.75" font-family="Helvetica,sans-Serif" font-size="10.00">buf_concat_path</text>
</a>
</g>
</g>
<!-- Node1&#45;&gt;Node37 -->
<g id="edge3_Node000001_Node000037" class="edge">
<title>Node1&#45;&gt;Node37</title>
<g id="a_edge3_Node000001_Node000037"><a xlink:title=" ">
<path fill="none" stroke="#63b8ff" d="M53.57,-318.65C59.42,-351.99 80.8,-449.56 137.5,-503.12 138.39,-503.96 139.32,-504.77 140.27,-505.54"/>
<polygon fill="#63b8ff" stroke="#63b8ff" points="138.08,-508.29 148.37,-510.8 141.89,-502.42 138.08,-508.29"/>
</a>
</g>
</g>
<!-- Node38 -->
<g id="Node000038" class="node">
<title>Node38</title>
<g id="a_Node000038"><a xlink:href="pool_8c.html#a41cba27c25d33cb6822789a2856093f2" target="_top" xlink:title="Get a Buffer from the pool.">
<polygon fill="#fff0f0" stroke="red" points="230.75,-494.25 154,-494.25 154,-472 230.75,-472 230.75,-494.25"/>
<text text-anchor="middle" x="192.38" y="-480.75" font-family="Helvetica,sans-Serif" font-size="10.00">buf_pool_get</text>
</a>
</g>
</g>
<!-- Node1&#45;&gt;Node38 -->
<g id="edge4_Node000001_Node000038" class="edge">
<title>Node1&#45;&gt;Node38</title>
<g id="a_edge4_Node000001_Node000038"><a xlink:title=" ">
<path fill="none" stroke="#63b8ff" d="M55.02,-318.72C63.65,-347.33 89.76,-421.94 137.5,-463.12 139.4,-464.77 141.45,-466.28 143.6,-467.67"/>
<polygon fill="#63b8ff" stroke="#63b8ff" points="141.73,-470.64 152.19,-472.32 145.06,-464.48 141.73,-470.64"/>
</a>
</g>
</g>
<!-- Node44 -->
<g id="Node000044" class="node">
<title>Node44</title>
<g id="a_Node000044"><a xlink:href="pool_8c.html#a4cc6068279461cb8628219586dfa35a1" target="_top" xlink:title="Return a Buffer to the pool.">
<polygon fill="#fff0f0" stroke="red" points="239.75,-454.25 145,-454.25 145,-432 239.75,-432 239.75,-454.25"/>
<text text-anchor="middle" x="192.38" y="-440.75" font-family="Helvetica,sans-Serif" font-size="10.00">buf_pool_release</text>
</a>
</g>
</g>
<!-- Node1&#45;&gt;Node44 -->
<g id="edge5_Node000001_Node000044" class="edge">
<title>Node1&#45;&gt;Node44</title>
<g id="a_edge5_Node000001_Node000044"><a xlink:title=" ">
<path fill="none" stroke="#63b8ff" d="M58.1,-318.66C70.68,-340.6 100.77,-388.8 137.5,-418.12 141.26,-421.13 145.44,-423.87 149.77,-426.34"/>
<polygon fill="#63b8ff" stroke="#63b8ff" points="148.15,-429.44 158.64,-430.93 151.36,-423.22 148.15,-429.44"/>
</a>
</g>
</g>
<!-- Node47 -->
<g id="Node000047" class="node">
<title>Node47</title>
<g id="a_Node000047"><a xlink:href="buffer_8h.html#a728ebc5a947b77c8d56db44ce553a7ab" target="_top" xlink:title="Convert a buffer to a const char * &quot;string&quot;.">
<polygon fill="white" stroke="#666666" points="492.25,-395.25 429,-395.25 429,-373 492.25,-373 492.25,-395.25"/>
<text text-anchor="middle" x="460.62" y="-381.75" font-family="Helvetica,sans-Serif" font-size="10.00">buf_string</text>
</a>
</g>
</g>
<!-- Node1&#45;&gt;Node47 -->
<g id="edge6_Node000001_Node000047" class="edge">
<title>Node1&#45;&gt;Node47</title>
<g id="a_edge6_Node000001_Node000047"><a xlink:title=" ">
<path fill="none" stroke="#63b8ff" d="M63.33,-318.6C78.78,-333.12 107.67,-357.64 137.5,-369.12 232.18,-405.59 354.23,-397.95 417.46,-390.37"/>
<polygon fill="#63b8ff" stroke="#63b8ff" points="417.58,-393.88 427.06,-389.15 416.7,-386.94 417.58,-393.88"/>
</a>
</g>
</g>
<!-- Node48 -->
<g id="Node000048" class="node">
<title>Node48</title>
<g id="a_Node000048"><a xlink:href="config_2helpers_8c.html#a1c788f1dbe7b04cec7721fc1c7680b48" target="_top" xlink:title="Get a regex config item by name.">
<polygon fill="#fff0f0" stroke="red" points="237.88,-222.25 146.88,-222.25 146.88,-200 237.88,-200 237.88,-222.25"/>
<text text-anchor="middle" x="192.38" y="-208.75" font-family="Helvetica,sans-Serif" font-size="10.00">cs_subset_regex</text>
</a>
</g>
</g>
<!-- Node1&#45;&gt;Node48 -->
<g id="edge8_Node000001_Node000048" class="edge">
<title>Node1&#45;&gt;Node48</title>
<g id="a_edge8_Node000001_Node000048"><a xlink:title=" ">
<path fill="none" stroke="#63b8ff" d="M63.48,-295.72C79.33,-280.73 108.9,-254.18 137.5,-236.12 142.34,-233.07 147.6,-230.17 152.89,-227.5"/>
<polygon fill="#63b8ff" stroke="#63b8ff" points="154.11,-230.79 161.61,-223.31 151.08,-224.48 154.11,-230.79"/>
</a>
</g>
</g>
<!-- Node49 -->
<g id="Node000049" class="node">
<title>Node49</title>
<g id="a_Node000049"><a xlink:href="dlg__browser_8c.html#aa28f53565f3a3c69250813a02b512167" target="_top" xlink:title="Initialise a browser state.">
<polygon fill="white" stroke="#666666" points="221.38,-182.25 163.38,-182.25 163.38,-160 221.38,-160 221.38,-182.25"/>
<text text-anchor="middle" x="192.38" y="-168.75" font-family="Helvetica,sans-Serif" font-size="10.00">init_state</text>
</a>
</g>
</g>
<!-- Node1&#45;&gt;Node49 -->
<g id="edge9_Node000001_Node000049" class="edge">
<title>Node1&#45;&gt;Node49</title>
<g id="a_edge9_Node000001_Node000049"><a xlink:title=" ">
<path fill="none" stroke="#63b8ff" d="M57.39,-295.5C69.15,-272.42 98.47,-220.48 137.5,-191.12 142.07,-187.69 147.29,-184.79 152.64,-182.36"/>
<polygon fill="#63b8ff" stroke="#63b8ff" points="153.56,-185.76 161.56,-178.8 150.97,-179.26 153.56,-185.76"/>
</a>
</g>
</g>
<!-- Node50 -->
<g id="Node000050" class="node">
<title>Node50</title>
<g id="a_Node000050"><a xlink:href="core_2mailbox_8h.html#a7e9739eb3e94344633f7051c2fb9453e" target="_top" xlink:title="Get the Mailbox&#39;s path string.">
<polygon fill="white" stroke="#666666" points="376.88,-376.25 299.38,-376.25 299.38,-354 376.88,-354 376.88,-376.25"/>
<text text-anchor="middle" x="338.12" y="-362.75" font-family="Helvetica,sans-Serif" font-size="10.00">mailbox_path</text>
</a>
</g>
</g>
<!-- Node1&#45;&gt;Node50 -->
<g id="edge10_Node000001_Node000050" class="edge">
<title>Node1&#45;&gt;Node50</title>
<g id="a_edge10_Node000001_Node000050"><a xlink:title=" ">
<path fill="none" stroke="#63b8ff" d="M71.44,-318.72C88.36,-328.08 113.71,-340.71 137.5,-347.12 187.45,-360.58 246.71,-364.48 287.62,-365.38"/>
<polygon fill="#63b8ff" stroke="#63b8ff" points="287.35,-368.88 297.4,-365.54 287.46,-361.88 287.35,-368.88"/>
</a>
</g>
</g>
<!-- Node51 -->
<g id="Node000051" class="node">
<title>Node51</title>
<g id="a_Node000051"><a xlink:href="file_8c.html#a69da918c66c3f22815d6e4aed88b6122" target="_top" xlink:title="Open a directory.">
<polygon fill="#fff0f0" stroke="red" points="241.62,-142.25 143.12,-142.25 143.12,-120 241.62,-120 241.62,-142.25"/>
<text text-anchor="middle" x="192.38" y="-128.75" font-family="Helvetica,sans-Serif" font-size="10.00">mutt_file_opendir</text>
</a>
</g>
</g>
<!-- Node1&#45;&gt;Node51 -->
<g id="edge12_Node000001_Node000051" class="edge">
<title>Node1&#45;&gt;Node51</title>
<g id="a_edge12_Node000001_Node000051"><a xlink:title=" ">
<path fill="none" stroke="#63b8ff" d="M55.02,-295.53C63.65,-266.92 89.76,-192.31 137.5,-151.12 138.58,-150.19 139.71,-149.3 140.89,-148.44"/>
<polygon fill="#63b8ff" stroke="#63b8ff" points="142.42,-151.61 149.18,-143.45 138.81,-145.61 142.42,-151.61"/>
</a>
</g>
</g>
<!-- Node53 -->
<g id="Node000053" class="node">
<title>Node53</title>
<g id="a_Node000053"><a xlink:href="mutt__mailbox_8c.html#a46384c63734d157785c2f9db5c9d40f5" target="_top" xlink:title="Check all all Mailboxes for new mail.">
<polygon fill="#fff0f0" stroke="red" points="247.25,-338.25 137.5,-338.25 137.5,-316 247.25,-316 247.25,-338.25"/>
<text text-anchor="middle" x="192.38" y="-324.75" font-family="Helvetica,sans-Serif" font-size="10.00">mutt_mailbox_check</text>
</a>
</g>
</g>
<!-- Node1&#45;&gt;Node53 -->
<g id="edge13_Node000001_Node000053" class="edge">
<title>Node1&#45;&gt;Node53</title>
<g id="a_edge13_Node000001_Node000053"><a xlink:title=" ">
<path fill="none" stroke="#63b8ff" d="M101.76,-314.29C109.73,-315.43 118.06,-316.62 126.31,-317.8"/>
<polygon fill="#63b8ff" stroke="#63b8ff" points="125.56,-321.23 135.96,-319.19 126.56,-314.3 125.56,-321.23"/>
</a>
</g>
</g>
<!-- Node69 -->
<g id="Node000069" class="node">
<title>Node69</title>
<g id="a_Node000069"><a xlink:href="neomutt_8c.html#a124116674adb30d3bceef08eeaad6905" target="_top" xlink:title="Free a Mailbox List.">
<polygon fill="white" stroke="#666666" points="393,-333.38 283.25,-333.38 283.25,-296.88 393,-296.88 393,-333.38"/>
<text text-anchor="start" x="291.25" y="-319.88" font-family="Helvetica,sans-Serif" font-size="10.00">neomutt_mailboxlist</text>
<text text-anchor="middle" x="338.12" y="-305.62" font-family="Helvetica,sans-Serif" font-size="10.00">_clear</text>
</a>
</g>
</g>
<!-- Node1&#45;&gt;Node69 -->
<g id="edge20_Node000001_Node000069" class="edge">
<title>Node1&#45;&gt;Node69</title>
<g id="a_edge20_Node000001_Node000069"><a xlink:title=" ">
<path fill="none" stroke="#63b8ff" d="M101.6,-305.91C141.12,-305.24 197.74,-304.93 247.25,-307.12 255.12,-307.47 263.37,-308 271.54,-308.61"/>
<polygon fill="#63b8ff" stroke="#63b8ff" points="271.24,-312.09 281.49,-309.4 271.8,-305.12 271.24,-312.09"/>
</a>
</g>
</g>
<!-- Node70 -->
<g id="Node000070" class="node">
<title>Node70</title>
<g id="a_Node000070"><a xlink:href="neomutt_8c.html#a74862fb7702c895aaacaebb097af8bb2" target="_top" xlink:title="Get a List of all Mailboxes.">
<polygon fill="white" stroke="#666666" points="393,-272.38 283.25,-272.38 283.25,-235.88 393,-235.88 393,-272.38"/>
<text text-anchor="start" x="291.25" y="-258.88" font-family="Helvetica,sans-Serif" font-size="10.00">neomutt_mailboxlist</text>
<text text-anchor="middle" x="338.12" y="-244.62" font-family="Helvetica,sans-Serif" font-size="10.00">_get_all</text>
</a>
</g>
</g>
<!-- Node1&#45;&gt;Node70 -->
<g id="edge21_Node000001_Node000070" class="edge">
<title>Node1&#45;&gt;Node70</title>
<g id="a_edge21_Node000001_Node000070"><a xlink:title=" ">
<path fill="none" stroke="#63b8ff" d="M101.79,-297.83C148.99,-289.06 220.04,-275.87 271.72,-266.27"/>
<polygon fill="#63b8ff" stroke="#63b8ff" points="272.09,-269.76 281.28,-264.5 270.81,-262.88 272.09,-269.76"/>
</a>
</g>
</g>
<!-- Node71 -->
<g id="Node000071" class="node">
<title>Node71</title>
<g id="a_Node000071"><a xlink:href="mutt_2regex_8c.html#ad25947e610db74945537b99edf428982" target="_top" xlink:title="Shorthand to mutt_regex_capture()">
<polygon fill="#fff0f0" stroke="red" points="243.5,-102.25 141.25,-102.25 141.25,-80 243.5,-80 243.5,-102.25"/>
<text text-anchor="middle" x="192.38" y="-88.75" font-family="Helvetica,sans-Serif" font-size="10.00">mutt_regex_match</text>
</a>
</g>
</g>
<!-- Node1&#45;&gt;Node71 -->
<g id="edge17_Node000001_Node000071" class="edge">
<title>Node1&#45;&gt;Node71</title>
<g id="a_edge17_Node000001_Node000071"><a xlink:title=" ">
<path fill="none" stroke="#63b8ff" d="M53.57,-295.6C59.42,-262.26 80.8,-164.69 137.5,-111.12 138.39,-110.29 139.32,-109.48 140.27,-108.71"/>
<polygon fill="#63b8ff" stroke="#63b8ff" points="141.89,-111.83 148.37,-103.45 138.08,-105.96 141.89,-111.83"/>
</a>
</g>
</g>
<!-- Node60 -->
<g id="Node000060" class="node">
<title>Node60</title>
<g id="a_Node000060"><a xlink:href="mutt_2string_8c.html#a6b6a50296dd2a31863a43379ef4a343d" target="_top" xlink:title="Compare two strings.">
<polygon fill="#fff0f0" stroke="red" points="235.25,-62.25 149.5,-62.25 149.5,-40 235.25,-40 235.25,-62.25"/>
<text text-anchor="middle" x="192.38" y="-48.75" font-family="Helvetica,sans-Serif" font-size="10.00">mutt_str_equal</text>
</a>
</g>
</g>
<!-- Node1&#45;&gt;Node60 -->
<g id="edge18_Node000001_Node000060" class="edge">
<title>Node1&#45;&gt;Node60</title>
<g id="a_edge18_Node000001_Node000060"><a xlink:title=" ">
<path fill="none" stroke="#63b8ff" d="M52.59,-295.76C55.94,-258.32 71.61,-137.47 137.5,-71.12 138.24,-70.38 139.01,-69.67 139.8,-68.98"/>
<polygon fill="#63b8ff" stroke="#63b8ff" points="141.65,-71.95 147.91,-63.41 137.68,-66.18 141.65,-71.95"/>
</a>
</g>
</g>
<!-- Node73 -->
<g id="Node000073" class="node">
<title>Node73</title>
<g id="a_Node000073"><a xlink:href="mutt_2string_8c.html#a9bf968304f4f9b49e24215cb2e28d22d" target="_top" xlink:title="Check whether a string starts with a prefix.">
<polygon fill="#fff0f0" stroke="red" points="245.38,-22.25 139.38,-22.25 139.38,0 245.38,0 245.38,-22.25"/>
<text text-anchor="middle" x="192.38" y="-8.75" font-family="Helvetica,sans-Serif" font-size="10.00">mutt_str_startswith</text>
</a>
</g>
</g>
<!-- Node1&#45;&gt;Node73 -->
<g id="edge19_Node000001_Node000073" class="edge">
<title>Node1&#45;&gt;Node73</title>
<g id="a_edge19_Node000001_Node000073"><a xlink:title=" ">
<path fill="none" stroke="#63b8ff" d="M51.89,-295.65C53.03,-254.18 62.45,-110.36 137.5,-31.12 138.09,-30.5 138.7,-29.89 139.34,-29.31"/>
<polygon fill="#63b8ff" stroke="#63b8ff" points="141.2,-32.28 147.24,-23.58 137.09,-26.62 141.2,-32.28"/>
</a>
</g>
</g>
<!-- Node47&#45;&gt;Node47 -->
<g id="edge7_Node000047_Node000047" class="edge">
<title>Node47&#45;&gt;Node47</title>
<g id="a_edge7_Node000047_Node000047"><a xlink:title=" ">
<path fill="none" stroke="#63b8ff" d="M440.62,-395.49C433.14,-404.28 439.81,-413.25 460.62,-413.25 472.01,-413.25 479.16,-410.57 482.08,-406.7"/>
<polygon fill="#63b8ff" stroke="#63b8ff" points="485.58,-406.45 480.82,-396.99 478.64,-407.35 485.58,-406.45"/>
</a>
</g>
</g>
<!-- Node50&#45;&gt;Node47 -->
<g id="edge11_Node000050_Node000047" class="edge">
<title>Node50&#45;&gt;Node47</title>
<g id="a_edge11_Node000050_Node000047"><a xlink:title=" ">
<path fill="none" stroke="#63b8ff" d="M377.25,-371.14C390.05,-373.15 404.4,-375.42 417.49,-377.48"/>
<polygon fill="#63b8ff" stroke="#63b8ff" points="416.68,-380.9 427.1,-379 417.77,-373.98 416.68,-380.9"/>
</a>
</g>
</g>
<!-- Node53&#45;&gt;Node50 -->
<g id="edge14_Node000053_Node000050" class="edge">
<title>Node53&#45;&gt;Node50</title>
<g id="a_edge14_Node000053_Node000050"><a xlink:title=" ">
<path fill="none" stroke="#63b8ff" d="M237.29,-338.73C253.39,-342.99 271.7,-347.83 288.22,-352.2"/>
<polygon fill="#63b8ff" stroke="#63b8ff" points="287.28,-355.57 297.85,-354.74 289.07,-348.8 287.28,-355.57"/>
</a>
</g>
</g>
<!-- Node53&#45;&gt;Node69 -->
<g id="edge15_Node000053_Node000069" class="edge">
<title>Node53&#45;&gt;Node69</title>
<g id="a_edge15_Node000053_Node000069"><a xlink:title=" ">
<path fill="none" stroke="#63b8ff" d="M247.72,-322.59C255.61,-321.93 263.8,-321.25 271.88,-320.57"/>
<polygon fill="#63b8ff" stroke="#63b8ff" points="272,-324.07 281.67,-319.75 271.41,-317.1 272,-324.07"/>
</a>
</g>
</g>
<!-- Node53&#45;&gt;Node70 -->
<g id="edge16_Node000053_Node000070" class="edge">
<title>Node53&#45;&gt;Node70</title>
<g id="a_edge16_Node000053_Node000070"><a xlink:title=" ">
<path fill="none" stroke="#63b8ff" d="M216.15,-315.56C236.05,-305.45 265.57,-290.46 290.47,-277.82"/>
<polygon fill="#63b8ff" stroke="#63b8ff" points="291.78,-281.08 299.11,-273.43 288.61,-274.84 291.78,-281.08"/>
</a>
</g>
</g>
</g>
</svg>
