<?xml version="1.0" encoding="UTF-8" standalone="no"?>
<!DOCTYPE svg PUBLIC "-//W3C//DTD SVG 1.1//EN"
 "http://www.w3.org/Graphics/SVG/1.1/DTD/svg11.dtd">
<!-- Generated by graphviz version 12.2.1 (20241206.2353)
 -->
<!-- Title: mlist/dlg_mlist.c Pages: 1 -->
<svg width="721pt" height="205pt"
 viewBox="0.00 0.00 720.74 205.00" xmlns="http://www.w3.org/2000/svg" xmlns:xlink="http://www.w3.org/1999/xlink">
<g id="graph0" class="graph" transform="scale(1 1) rotate(0) translate(4 201)">
<title>mlist/dlg_mlist.c</title>
<!-- Node1 -->
<g id="Node000001" class="node">
<title>Node1</title>
<g id="a_Node000001"><a xlink:title="Mailing&#45;list action dialog.">
<polygon fill="#999999" stroke="#666666" points="323.24,-197 233.74,-197 233.74,-174.75 323.24,-174.75 323.24,-197"/>
<text text-anchor="middle" x="278.49" y="-183.5" font-family="Helvetica,sans-Serif" font-size="10.00">mlist/dlg_mlist.c</text>
</a>
</g>
</g>
<!-- Node2 -->
<g id="Node000002" class="node">
<title>Node2</title>
<g id="a_Node000002"><a xlink:title=" ">
<polygon fill="#e0e0e0" stroke="#999999" points="280.24,-22.25 226.74,-22.25 226.74,0 280.24,0 280.24,-22.25"/>
<text text-anchor="middle" x="253.49" y="-8.75" font-family="Helvetica,sans-Serif" font-size="10.00">config.h</text>
</a>
</g>
</g>
<!-- Node1&#45;&gt;Node2 -->
<g id="edge1_Node000001_Node000002" class="edge">
<title>Node1&#45;&gt;Node2</title>
<g id="a_edge1_Node000001_Node000002"><a xlink:title=" ">
<path fill="none" stroke="#63b8ff" d="M233.51,-183.8C165.18,-181.11 40.22,-171.7 12.49,-138.75 -48.35,-66.45 132.81,-29.85 215.1,-17.28"/>
<polygon fill="#63b8ff" stroke="#63b8ff" points="215.61,-20.75 224.99,-15.82 214.58,-13.82 215.61,-20.75"/>
</a>
</g>
</g>
<!-- Node3 -->
<g id="Node000003" class="node">
<title>Node3</title>
<g id="a_Node000003"><a xlink:title=" ">
<polygon fill="#e0e0e0" stroke="#999999" points="69.24,-138.75 21.74,-138.75 21.74,-116.5 69.24,-116.5 69.24,-138.75"/>
<text text-anchor="middle" x="45.49" y="-125.25" font-family="Helvetica,sans-Serif" font-size="10.00">stdio.h</text>
</a>
</g>
</g>
<!-- Node1&#45;&gt;Node3 -->
<g id="edge2_Node000001_Node000003" class="edge">
<title>Node1&#45;&gt;Node3</title>
<g id="a_edge2_Node000001_Node000003"><a xlink:title=" ">
<path fill="none" stroke="#63b8ff" d="M233.53,-175.65C195.1,-167.52 138.11,-154.89 80.65,-139.48"/>
<polygon fill="#63b8ff" stroke="#63b8ff" points="81.57,-136.1 71,-136.86 79.74,-142.86 81.57,-136.1"/>
</a>
</g>
</g>
<!-- Node4 -->
<g id="Node000004" class="node">
<title>Node4</title>
<g id="a_Node000004"><a xlink:href="mutt_2lib_8h.html" target="_top" xlink:title="Convenience wrapper for the library headers.">
<polygon fill="#fff0f0" stroke="red" points="545.37,-80.5 483.62,-80.5 483.62,-58.25 545.37,-58.25 545.37,-80.5"/>
<text text-anchor="middle" x="514.49" y="-67" font-family="Helvetica,sans-Serif" font-size="10.00">mutt/lib.h</text>
</a>
</g>
</g>
<!-- Node1&#45;&gt;Node4 -->
<g id="edge3_Node000001_Node000004" class="edge">
<title>Node1&#45;&gt;Node4</title>
<g id="a_edge3_Node000001_Node000004"><a xlink:title=" ">
<path fill="none" stroke="#63b8ff" d="M323.51,-180.77C379.6,-174.76 471.08,-161.7 495.49,-138.75 508.11,-126.88 512.6,-107.42 514.08,-92.29"/>
<polygon fill="#63b8ff" stroke="#63b8ff" points="517.57,-92.55 514.65,-82.37 510.59,-92.16 517.57,-92.55"/>
</a>
</g>
</g>
<!-- Node54 -->
<g id="Node000054" class="node">
<title>Node54</title>
<g id="a_Node000054"><a xlink:href="email_2lib_8h.html" target="_top" xlink:title="Structs that make up an email.">
<polygon fill="#fff0f0" stroke="red" points="344.49,-80.5 280.49,-80.5 280.49,-58.25 344.49,-58.25 344.49,-80.5"/>
<text text-anchor="middle" x="312.49" y="-67" font-family="Helvetica,sans-Serif" font-size="10.00">email/lib.h</text>
</a>
</g>
</g>
<!-- Node1&#45;&gt;Node54 -->
<g id="edge5_Node000001_Node000054" class="edge">
<title>Node1&#45;&gt;Node54</title>
<g id="a_edge5_Node000001_Node000054"><a xlink:title=" ">
<path fill="none" stroke="#63b8ff" d="M254.39,-174.29C229.57,-161.83 196.49,-139.85 211.49,-116.5 224.27,-96.61 247.98,-85.2 269.22,-78.7"/>
<polygon fill="#63b8ff" stroke="#63b8ff" points="269.85,-82.15 278.57,-76.13 268,-75.4 269.85,-82.15"/>
</a>
</g>
</g>
<!-- Node76 -->
<g id="Node000076" class="node">
<title>Node76</title>
<g id="a_Node000076"><a xlink:href="core_2lib_8h.html" target="_top" xlink:title="Convenience wrapper for the core headers.">
<polygon fill="#fff0f0" stroke="red" points="139.24,-80.5 79.74,-80.5 79.74,-58.25 139.24,-58.25 139.24,-80.5"/>
<text text-anchor="middle" x="109.49" y="-67" font-family="Helvetica,sans-Serif" font-size="10.00">core/lib.h</text>
</a>
</g>
</g>
<!-- Node1&#45;&gt;Node76 -->
<g id="edge6_Node000001_Node000076" class="edge">
<title>Node1&#45;&gt;Node76</title>
<g id="a_edge6_Node000001_Node000076"><a xlink:title=" ">
<path fill="none" stroke="#63b8ff" d="M260.36,-174.26C245.02,-165.15 222.54,-151.51 203.49,-138.75 178.65,-122.11 151.07,-101.83 132.25,-87.69"/>
<polygon fill="#63b8ff" stroke="#63b8ff" points="134.56,-85.05 124.47,-81.82 130.35,-90.64 134.56,-85.05"/>
</a>
</g>
</g>
<!-- Node99 -->
<g id="Node000099" class="node">
<title>Node99</title>
<g id="a_Node000099"><a xlink:href="gui_2lib_8h.html" target="_top" xlink:title="Convenience wrapper for the gui headers.">
<polygon fill="#fff0f0" stroke="red" points="274.24,-138.75 220.74,-138.75 220.74,-116.5 274.24,-116.5 274.24,-138.75"/>
<text text-anchor="middle" x="247.49" y="-125.25" font-family="Helvetica,sans-Serif" font-size="10.00">gui/lib.h</text>
</a>
</g>
</g>
<!-- Node1&#45;&gt;Node99 -->
<g id="edge7_Node000001_Node000099" class="edge">
<title>Node1&#45;&gt;Node99</title>
<g id="a_edge7_Node000001_Node000099"><a xlink:title=" ">
<path fill="none" stroke="#63b8ff" d="M272.66,-174.29C268.76,-167.22 263.51,-157.69 258.81,-149.16"/>
<polygon fill="#63b8ff" stroke="#63b8ff" points="261.92,-147.55 254.03,-140.48 255.79,-150.93 261.92,-147.55"/>
</a>
</g>
</g>
<!-- Node137 -->
<g id="Node000137" class="node">
<title>Node137</title>
<g id="a_Node000137"><a xlink:href="mlist_2lib_8h.html" target="_top" xlink:title="Mailing&#45;list action dialog.">
<polygon fill="white" stroke="#666666" points="328.24,-138.75 292.74,-138.75 292.74,-116.5 328.24,-116.5 328.24,-138.75"/>
<text text-anchor="middle" x="310.49" y="-125.25" font-family="Helvetica,sans-Serif" font-size="10.00">lib.h</text>
</a>
</g>
</g>
<!-- Node1&#45;&gt;Node137 -->
<g id="edge8_Node000001_Node000137" class="edge">
<title>Node1&#45;&gt;Node137</title>
<g id="a_edge8_Node000001_Node000137"><a xlink:title=" ">
<path fill="none" stroke="#63b8ff" d="M284.51,-174.29C288.53,-167.22 293.96,-157.69 298.81,-149.16"/>
<polygon fill="#63b8ff" stroke="#63b8ff" points="301.85,-150.9 303.75,-140.47 295.76,-147.43 301.85,-150.9"/>
</a>
</g>
</g>
<!-- Node138 -->
<g id="Node000138" class="node">
<title>Node138</title>
<g id="a_Node000138"><a xlink:href="key_2lib_8h.html" target="_top" xlink:title="Manage keymappings.">
<polygon fill="#fff0f0" stroke="red" points="400.99,-138.75 345.99,-138.75 345.99,-116.5 400.99,-116.5 400.99,-138.75"/>
<text text-anchor="middle" x="373.49" y="-125.25" font-family="Helvetica,sans-Serif" font-size="10.00">key/lib.h</text>
</a>
</g>
</g>
<!-- Node1&#45;&gt;Node138 -->
<g id="edge9_Node000001_Node000138" class="edge">
<title>Node1&#45;&gt;Node138</title>
<g id="a_edge9_Node000001_Node000138"><a xlink:title=" ">
<path fill="none" stroke="#63b8ff" d="M296.36,-174.29C310.29,-166.05 329.89,-154.44 345.84,-145"/>
<polygon fill="#63b8ff" stroke="#63b8ff" points="347.58,-148.04 354.4,-139.93 344.01,-142.01 347.58,-148.04"/>
</a>
</g>
</g>
<!-- Node143 -->
<g id="Node000143" class="node">
<title>Node143</title>
<g id="a_Node000143"><a xlink:href="menu_2lib_8h.html" target="_top" xlink:title="GUI present the user with a selectable list.">
<polygon fill="#fff0f0" stroke="red" points="608.62,-138.75 542.37,-138.75 542.37,-116.5 608.62,-116.5 608.62,-138.75"/>
<text text-anchor="middle" x="575.49" y="-125.25" font-family="Helvetica,sans-Serif" font-size="10.00">menu/lib.h</text>
</a>
</g>
</g>
<!-- Node1&#45;&gt;Node143 -->
<g id="edge10_Node000001_Node000143" class="edge">
<title>Node1&#45;&gt;Node143</title>
<g id="a_edge10_Node000001_Node000143"><a xlink:title=" ">
<path fill="none" stroke="#63b8ff" d="M323.73,-176.95C373.87,-168.06 457.08,-153.03 528.49,-138.75 529.3,-138.59 530.13,-138.42 530.95,-138.25"/>
<polygon fill="#63b8ff" stroke="#63b8ff" points="531.32,-141.75 540.4,-136.3 529.9,-134.9 531.32,-141.75"/>
</a>
</g>
</g>
<!-- Node151 -->
<g id="Node000151" class="node">
<title>Node151</title>
<g id="a_Node000151"><a xlink:href="mlist_2functions_8h.html" target="_top" xlink:title="Mailing&#45;list functions.">
<polygon fill="#fff0f0" stroke="red" points="486.37,-138.75 418.62,-138.75 418.62,-116.5 486.37,-116.5 486.37,-138.75"/>
<text text-anchor="middle" x="452.49" y="-125.25" font-family="Helvetica,sans-Serif" font-size="10.00">functions.h</text>
</a>
</g>
</g>
<!-- Node1&#45;&gt;Node151 -->
<g id="edge12_Node000001_Node000151" class="edge">
<title>Node1&#45;&gt;Node151</title>
<g id="a_edge12_Node000001_Node000151"><a xlink:title=" ">
<path fill="none" stroke="#63b8ff" d="M311.22,-174.29C338.92,-165.34 378.86,-152.43 409.2,-142.62"/>
<polygon fill="#63b8ff" stroke="#63b8ff" points="410.03,-146.03 418.47,-139.62 407.88,-139.37 410.03,-146.03"/>
</a>
</g>
</g>
<!-- Node152 -->
<g id="Node000152" class="node">
<title>Node152</title>
<g id="a_Node000152"><a xlink:href="mutt__logging_8h.html" target="_top" xlink:title="NeoMutt Logging.">
<polygon fill="#fff0f0" stroke="red" points="712.74,-138.75 626.24,-138.75 626.24,-116.5 712.74,-116.5 712.74,-138.75"/>
<text text-anchor="middle" x="669.49" y="-125.25" font-family="Helvetica,sans-Serif" font-size="10.00">mutt_logging.h</text>
</a>
</g>
</g>
<!-- Node1&#45;&gt;Node152 -->
<g id="edge15_Node000001_Node000152" class="edge">
<title>Node1&#45;&gt;Node152</title>
<g id="a_edge15_Node000001_Node000152"><a xlink:title=" ">
<path fill="none" stroke="#63b8ff" d="M323.58,-179.57C386.49,-171.99 504.43,-157.11 614.52,-139.17"/>
<polygon fill="#63b8ff" stroke="#63b8ff" points="615.04,-142.63 624.34,-137.56 613.9,-135.73 615.04,-142.63"/>
</a>
</g>
</g>
<!-- Node153 -->
<g id="Node000153" class="node">
<title>Node153</title>
<g id="a_Node000153"><a xlink:href="mx_8h.html" target="_top" xlink:title="API for mailboxes.">
<polygon fill="#fff0f0" stroke="red" points="126.12,-138.75 86.87,-138.75 86.87,-116.5 126.12,-116.5 126.12,-138.75"/>
<text text-anchor="middle" x="106.49" y="-125.25" font-family="Helvetica,sans-Serif" font-size="10.00">mx.h</text>
</a>
</g>
</g>
<!-- Node1&#45;&gt;Node153 -->
<g id="edge17_Node000001_Node000153" class="edge">
<title>Node1&#45;&gt;Node153</title>
<g id="a_edge17_Node000001_Node000153"><a xlink:title=" ">
<path fill="none" stroke="#63b8ff" d="M246.14,-174.29C214.9,-164.08 167.94,-148.72 137.25,-138.69"/>
<polygon fill="#63b8ff" stroke="#63b8ff" points="138.39,-135.37 127.79,-135.59 136.21,-142.03 138.39,-135.37"/>
</a>
</g>
</g>
<!-- Node4&#45;&gt;Node2 -->
<g id="edge4_Node000004_Node000002" class="edge">
<title>Node4&#45;&gt;Node2</title>
<g id="a_edge4_Node000004_Node000002"><a xlink:title=" ">
<path fill="none" stroke="#63b8ff" d="M483.27,-61.65C435.21,-51.29 343.27,-31.47 291.45,-20.3"/>
<polygon fill="#63b8ff" stroke="#63b8ff" points="292.4,-16.93 281.89,-18.25 290.93,-23.77 292.4,-16.93"/>
</a>
</g>
</g>
<!-- Node143&#45;&gt;Node4 -->
<g id="edge11_Node000143_Node000004" class="edge">
<title>Node143&#45;&gt;Node4</title>
<g id="a_edge11_Node000143_Node000004"><a xlink:title=" ">
<path fill="none" stroke="#63b8ff" d="M564.02,-116.04C555.67,-108.35 544.15,-97.72 534.32,-88.66"/>
<polygon fill="#63b8ff" stroke="#63b8ff" points="536.75,-86.14 527.03,-81.93 532,-91.29 536.75,-86.14"/>
</a>
</g>
</g>
<!-- Node151&#45;&gt;Node4 -->
<g id="edge13_Node000151_Node000004" class="edge">
<title>Node151&#45;&gt;Node4</title>
<g id="a_edge13_Node000151_Node000004"><a xlink:title=" ">
<path fill="none" stroke="#63b8ff" d="M464.15,-116.04C472.73,-108.27 484.58,-97.51 494.64,-88.39"/>
<polygon fill="#63b8ff" stroke="#63b8ff" points="496.71,-91.24 501.76,-81.92 492,-86.05 496.71,-91.24"/>
</a>
</g>
</g>
<!-- Node151&#45;&gt;Node54 -->
<g id="edge14_Node000151_Node000054" class="edge">
<title>Node151&#45;&gt;Node54</title>
<g id="a_edge14_Node000151_Node000054"><a xlink:title=" ">
<path fill="none" stroke="#63b8ff" d="M426.16,-116.04C404.45,-107.32 373.42,-94.86 349.26,-85.15"/>
<polygon fill="#63b8ff" stroke="#63b8ff" points="350.69,-81.95 340.11,-81.47 348.08,-88.45 350.69,-81.95"/>
</a>
</g>
</g>
<!-- Node152&#45;&gt;Node4 -->
<g id="edge16_Node000152_Node000004" class="edge">
<title>Node152&#45;&gt;Node4</title>
<g id="a_edge16_Node000152_Node000004"><a xlink:title=" ">
<path fill="none" stroke="#63b8ff" d="M640.34,-116.04C615.98,-107.21 581.02,-94.52 554.12,-84.76"/>
<polygon fill="#63b8ff" stroke="#63b8ff" points="555.53,-81.55 544.94,-81.42 553.14,-88.13 555.53,-81.55"/>
</a>
</g>
</g>
<!-- Node153&#45;&gt;Node76 -->
<g id="edge18_Node000153_Node000076" class="edge">
<title>Node153&#45;&gt;Node76</title>
<g id="a_edge18_Node000153_Node000076"><a xlink:title=" ">
<path fill="none" stroke="#63b8ff" d="M107.06,-116.04C107.41,-109.37 107.88,-100.49 108.32,-92.34"/>
<polygon fill="#63b8ff" stroke="#63b8ff" points="111.81,-92.59 108.85,-82.42 104.82,-92.22 111.81,-92.59"/>
</a>
</g>
</g>
</g>
</svg>
