<?xml version="1.0" encoding="UTF-8" standalone="no"?>
<!DOCTYPE svg PUBLIC "-//W3C//DTD SVG 1.1//EN"
 "http://www.w3.org/Graphics/SVG/1.1/DTD/svg11.dtd">
<!-- Generated by graphviz version 7.1.0 (0)
 -->
<!-- Title: postpone/dlg_postpone.c Pages: 1 -->
<svg width="940pt" height="247pt"
 viewBox="0.00 0.00 940.24 247.00" xmlns="http://www.w3.org/2000/svg" xmlns:xlink="http://www.w3.org/1999/xlink">
<g id="graph0" class="graph" transform="scale(1 1) rotate(0) translate(4 243)">
<title>postpone/dlg_postpone.c</title>
<!-- Node1 -->
<g id="node1" class="node">
<title>Node1</title>
<g id="a_node1"><a xlink:title="Postponed Email Selection Dialog.">
<polygon fill="#999999" stroke="#666666" points="587.13,-239 452.13,-239 452.13,-220 587.13,-220 587.13,-239"/>
<text text-anchor="middle" x="519.63" y="-227" font-family="Helvetica,sans-Serif" font-size="10.00">postpone/dlg_postpone.c</text>
</a>
</g>
</g>
<!-- Node2 -->
<g id="node2" class="node">
<title>Node2</title>
<g id="a_node2"><a xlink:title=" ">
<polygon fill="#e0e0e0" stroke="#999999" points="241.63,-19 187.63,-19 187.63,0 241.63,0 241.63,-19"/>
<text text-anchor="middle" x="214.63" y="-7" font-family="Helvetica,sans-Serif" font-size="10.00">config.h</text>
</a>
</g>
</g>
<!-- Node1&#45;&gt;Node2 -->
<g id="edge1" class="edge">
<title>Node1&#45;&gt;Node2</title>
<path fill="none" stroke="#63b8ff" d="M587.44,-225.98C697.81,-221.18 906.3,-208.89 928.63,-184 934.26,-177.71 931.78,-172.83 928.63,-165 915.93,-133.52 905.37,-126.37 875.63,-110 766.79,-50.1 377.69,-20.8 253.22,-12.81"/>
<polygon fill="#63b8ff" stroke="#63b8ff" points="253.73,-9.34 243.52,-12.2 253.28,-16.32 253.73,-9.34"/>
</g>
<!-- Node3 -->
<g id="node3" class="node">
<title>Node3</title>
<g id="a_node3"><a xlink:title=" ">
<polygon fill="#e0e0e0" stroke="#999999" points="598.63,-74 538.63,-74 538.63,-55 598.63,-55 598.63,-74"/>
<text text-anchor="middle" x="568.63" y="-62" font-family="Helvetica,sans-Serif" font-size="10.00">stdbool.h</text>
</a>
</g>
</g>
<!-- Node1&#45;&gt;Node3 -->
<g id="edge2" class="edge">
<title>Node1&#45;&gt;Node3</title>
<path fill="none" stroke="#63b8ff" d="M528.13,-219.56C543.05,-203.18 573.44,-166.57 584.63,-129 589.05,-114.15 584.23,-97.12 578.75,-84.43"/>
<polygon fill="#63b8ff" stroke="#63b8ff" points="581.96,-83.02 574.45,-75.55 575.66,-86.08 581.96,-83.02"/>
</g>
<!-- Node4 -->
<g id="node4" class="node">
<title>Node4</title>
<g id="a_node4"><a xlink:title=" ">
<polygon fill="#e0e0e0" stroke="#999999" points="470.63,-129 422.63,-129 422.63,-110 470.63,-110 470.63,-129"/>
<text text-anchor="middle" x="446.63" y="-117" font-family="Helvetica,sans-Serif" font-size="10.00">stdio.h</text>
</a>
</g>
</g>
<!-- Node1&#45;&gt;Node4 -->
<g id="edge3" class="edge">
<title>Node1&#45;&gt;Node4</title>
<path fill="none" stroke="#63b8ff" d="M518.63,-219.6C516.82,-206.64 512.08,-182.26 500.63,-165 492.91,-153.38 481.25,-143.23 470.73,-135.57"/>
<polygon fill="#63b8ff" stroke="#63b8ff" points="473.02,-132.89 462.8,-130.12 469.06,-138.66 473.02,-132.89"/>
</g>
<!-- Node5 -->
<g id="node5" class="node">
<title>Node5</title>
<g id="a_node5"><a xlink:href="mutt_2lib_8h.html" target="_top" xlink:title="Convenience wrapper for the library headers.">
<polygon fill="#fff0f0" stroke="red" points="245.63,-74 183.63,-74 183.63,-55 245.63,-55 245.63,-74"/>
<text text-anchor="middle" x="214.63" y="-62" font-family="Helvetica,sans-Serif" font-size="10.00">mutt/lib.h</text>
</a>
</g>
</g>
<!-- Node1&#45;&gt;Node5 -->
<g id="edge4" class="edge">
<title>Node1&#45;&gt;Node5</title>
<path fill="none" stroke="#63b8ff" d="M451.92,-225.88C346.12,-221.08 146.84,-208.97 80.63,-184 41.28,-169.16 22.87,-166.39 3.63,-129 -0.24,-121.49 -1.69,-116.56 3.63,-110 24.43,-84.35 116.8,-72.92 172.19,-68.29"/>
<polygon fill="#63b8ff" stroke="#63b8ff" points="172.21,-71.8 181.9,-67.52 171.66,-64.82 172.21,-71.8"/>
</g>
<!-- Node54 -->
<g id="node6" class="node">
<title>Node54</title>
<g id="a_node6"><a xlink:href="config_2lib_8h.html" target="_top" xlink:title="Convenience wrapper for the config headers.">
<polygon fill="#fff0f0" stroke="red" points="700.63,-129 632.63,-129 632.63,-110 700.63,-110 700.63,-129"/>
<text text-anchor="middle" x="666.63" y="-117" font-family="Helvetica,sans-Serif" font-size="10.00">config/lib.h</text>
</a>
</g>
</g>
<!-- Node1&#45;&gt;Node54 -->
<g id="edge6" class="edge">
<title>Node1&#45;&gt;Node54</title>
<path fill="none" stroke="#63b8ff" d="M543.58,-219.59C562.57,-211.86 589.22,-199.49 609.63,-184 626.91,-170.88 643.07,-151.99 653.74,-138.23"/>
<polygon fill="#63b8ff" stroke="#63b8ff" points="656.36,-140.57 659.57,-130.47 650.76,-136.37 656.36,-140.57"/>
</g>
<!-- Node68 -->
<g id="node7" class="node">
<title>Node68</title>
<g id="a_node7"><a xlink:href="email_2lib_8h.html" target="_top" xlink:title="Structs that make up an email.">
<polygon fill="#fff0f0" stroke="red" points="336.13,-184 271.13,-184 271.13,-165 336.13,-165 336.13,-184"/>
<text text-anchor="middle" x="303.63" y="-172" font-family="Helvetica,sans-Serif" font-size="10.00">email/lib.h</text>
</a>
</g>
</g>
<!-- Node1&#45;&gt;Node68 -->
<g id="edge8" class="edge">
<title>Node1&#45;&gt;Node68</title>
<path fill="none" stroke="#63b8ff" d="M482.98,-219.51C445.55,-210.32 387.41,-196.06 347.53,-186.27"/>
<polygon fill="#63b8ff" stroke="#63b8ff" points="348.56,-182.92 338.02,-183.94 346.89,-189.72 348.56,-182.92"/>
</g>
<!-- Node89 -->
<g id="node8" class="node">
<title>Node89</title>
<g id="a_node8"><a xlink:href="core_2lib_8h.html" target="_top" xlink:title="Convenience wrapper for the core headers.">
<polygon fill="#fff0f0" stroke="red" points="234.63,-129 174.63,-129 174.63,-110 234.63,-110 234.63,-129"/>
<text text-anchor="middle" x="204.63" y="-117" font-family="Helvetica,sans-Serif" font-size="10.00">core/lib.h</text>
</a>
</g>
</g>
<!-- Node1&#45;&gt;Node89 -->
<g id="edge9" class="edge">
<title>Node1&#45;&gt;Node89</title>
<path fill="none" stroke="#63b8ff" d="M451.84,-222.82C384.34,-216.17 286.21,-203.52 253.63,-184 235.92,-173.39 222.29,-153.78 213.95,-139.15"/>
<polygon fill="#63b8ff" stroke="#63b8ff" points="217.13,-137.68 209.34,-130.5 210.96,-140.97 217.13,-137.68"/>
</g>
<!-- Node99 -->
<g id="node9" class="node">
<title>Node99</title>
<g id="a_node9"><a xlink:href="gui_2lib_8h.html" target="_top" xlink:title="Convenience wrapper for the gui headers.">
<polygon fill="#fff0f0" stroke="red" points="491.63,-184 437.63,-184 437.63,-165 491.63,-165 491.63,-184"/>
<text text-anchor="middle" x="464.63" y="-172" font-family="Helvetica,sans-Serif" font-size="10.00">gui/lib.h</text>
</a>
</g>
</g>
<!-- Node1&#45;&gt;Node99 -->
<g id="edge10" class="edge">
<title>Node1&#45;&gt;Node99</title>
<path fill="none" stroke="#63b8ff" d="M510.54,-219.75C502.79,-212.27 491.42,-201.32 481.93,-192.17"/>
<polygon fill="#63b8ff" stroke="#63b8ff" points="484.62,-189.91 475,-185.49 479.77,-194.95 484.62,-189.91"/>
</g>
<!-- Node137 -->
<g id="node10" class="node">
<title>Node137</title>
<g id="a_node10"><a xlink:href="expando_2lib_8h.html" target="_top" xlink:title="Parse Expando string.">
<polygon fill="#fff0f0" stroke="red" points="843.63,-129 763.63,-129 763.63,-110 843.63,-110 843.63,-129"/>
<text text-anchor="middle" x="803.63" y="-117" font-family="Helvetica,sans-Serif" font-size="10.00">expando/lib.h</text>
</a>
</g>
</g>
<!-- Node1&#45;&gt;Node137 -->
<g id="edge11" class="edge">
<title>Node1&#45;&gt;Node137</title>
<path fill="none" stroke="#63b8ff" d="M587.3,-228.15C665.38,-226.14 786.76,-217.52 815.63,-184 826.14,-171.79 821.08,-153.3 814.61,-139.41"/>
<polygon fill="#63b8ff" stroke="#63b8ff" points="817.84,-138.04 810.1,-130.81 811.65,-141.29 817.84,-138.04"/>
</g>
<!-- Node155 -->
<g id="node11" class="node">
<title>Node155</title>
<g id="a_node11"><a xlink:href="index_2lib_8h.html" target="_top" xlink:title="GUI manage the main index (list of emails)">
<polygon fill="#fff0f0" stroke="red" points="419.13,-184 354.13,-184 354.13,-165 419.13,-165 419.13,-184"/>
<text text-anchor="middle" x="386.63" y="-172" font-family="Helvetica,sans-Serif" font-size="10.00">index/lib.h</text>
</a>
</g>
</g>
<!-- Node1&#45;&gt;Node155 -->
<g id="edge12" class="edge">
<title>Node1&#45;&gt;Node155</title>
<path fill="none" stroke="#63b8ff" d="M497.06,-219.51C475.73,-211.01 443.47,-198.15 419.31,-188.53"/>
<polygon fill="#63b8ff" stroke="#63b8ff" points="420.85,-185.37 410.26,-184.92 418.25,-191.87 420.85,-185.37"/>
</g>
<!-- Node105 -->
<g id="node12" class="node">
<title>Node105</title>
<g id="a_node12"><a xlink:href="key_2lib_8h.html" target="_top" xlink:title="Manage keymappings.">
<polygon fill="#fff0f0" stroke="red" points="174.63,-184 118.63,-184 118.63,-165 174.63,-165 174.63,-184"/>
<text text-anchor="middle" x="146.63" y="-172" font-family="Helvetica,sans-Serif" font-size="10.00">key/lib.h</text>
</a>
</g>
</g>
<!-- Node1&#45;&gt;Node105 -->
<g id="edge17" class="edge">
<title>Node1&#45;&gt;Node105</title>
<path fill="none" stroke="#63b8ff" d="M451.72,-220.45C385.08,-212.28 280.63,-198.77 190.63,-184 189.2,-183.77 187.75,-183.52 186.29,-183.27"/>
<polygon fill="#63b8ff" stroke="#63b8ff" points="186.94,-179.83 176.48,-181.49 185.69,-186.72 186.94,-179.83"/>
</g>
<!-- Node106 -->
<g id="node13" class="node">
<title>Node106</title>
<g id="a_node13"><a xlink:href="menu_2lib_8h.html" target="_top" xlink:title="GUI present the user with a selectable list.">
<polygon fill="#fff0f0" stroke="red" points="80.13,-129 13.13,-129 13.13,-110 80.13,-110 80.13,-129"/>
<text text-anchor="middle" x="46.63" y="-117" font-family="Helvetica,sans-Serif" font-size="10.00">menu/lib.h</text>
</a>
</g>
</g>
<!-- Node1&#45;&gt;Node106 -->
<g id="edge25" class="edge">
<title>Node1&#45;&gt;Node106</title>
<path fill="none" stroke="#63b8ff" d="M451.79,-226.6C351.29,-222.86 168.41,-212.3 109.63,-184 88.48,-173.82 70.35,-153.53 59.04,-138.61"/>
<polygon fill="#63b8ff" stroke="#63b8ff" points="61.92,-136.63 53.23,-130.56 56.24,-140.72 61.92,-136.63"/>
</g>
<!-- Node158 -->
<g id="node14" class="node">
<title>Node158</title>
<g id="a_node14"><a xlink:href="pattern_2lib_8h.html" target="_top" xlink:title="Match patterns to emails.">
<polygon fill="#fff0f0" stroke="red" points="366.13,-129 291.13,-129 291.13,-110 366.13,-110 366.13,-129"/>
<text text-anchor="middle" x="328.63" y="-117" font-family="Helvetica,sans-Serif" font-size="10.00">pattern/lib.h</text>
</a>
</g>
</g>
<!-- Node1&#45;&gt;Node158 -->
<g id="edge26" class="edge">
<title>Node1&#45;&gt;Node158</title>
<path fill="none" stroke="#63b8ff" d="M451.67,-226.37C383.56,-222.63 285.49,-212.33 261.63,-184 245.91,-165.34 272.58,-146.41 296.79,-134.14"/>
<polygon fill="#63b8ff" stroke="#63b8ff" points="298.01,-137.44 305.51,-129.96 294.98,-131.12 298.01,-137.44"/>
</g>
<!-- Node162 -->
<g id="node15" class="node">
<title>Node162</title>
<g id="a_node15"><a xlink:href="postpone_2functions_8h.html" target="_top" xlink:title="Postponed Email Functions.">
<polygon fill="white" stroke="#666666" points="729.63,-184 661.63,-184 661.63,-165 729.63,-165 729.63,-184"/>
<text text-anchor="middle" x="695.63" y="-172" font-family="Helvetica,sans-Serif" font-size="10.00">functions.h</text>
</a>
</g>
</g>
<!-- Node1&#45;&gt;Node162 -->
<g id="edge30" class="edge">
<title>Node1&#45;&gt;Node162</title>
<path fill="none" stroke="#63b8ff" d="M549.48,-219.51C578.52,-210.76 622.85,-197.42 655.07,-187.71"/>
<polygon fill="#63b8ff" stroke="#63b8ff" points="655.9,-191.12 664.47,-184.88 653.88,-184.41 655.9,-191.12"/>
</g>
<!-- Node163 -->
<g id="node16" class="node">
<title>Node163</title>
<g id="a_node16"><a xlink:href="hdrline_8h.html" target="_top" xlink:title="String processing routines to generate the mail index.">
<polygon fill="#fff0f0" stroke="red" points="807.13,-184 748.13,-184 748.13,-165 807.13,-165 807.13,-184"/>
<text text-anchor="middle" x="777.63" y="-172" font-family="Helvetica,sans-Serif" font-size="10.00">hdrline.h</text>
</a>
</g>
</g>
<!-- Node1&#45;&gt;Node163 -->
<g id="edge32" class="edge">
<title>Node1&#45;&gt;Node163</title>
<path fill="none" stroke="#63b8ff" d="M564.54,-219.57C606.5,-211.18 671.18,-198.14 736.85,-184.35"/>
<polygon fill="#63b8ff" stroke="#63b8ff" points="737.28,-187.84 746.34,-182.35 735.84,-180.99 737.28,-187.84"/>
</g>
<!-- Node164 -->
<g id="node17" class="node">
<title>Node164</title>
<g id="a_node17"><a xlink:href="mutt__logging_8h.html" target="_top" xlink:title="NeoMutt Logging.">
<polygon fill="#fff0f0" stroke="red" points="576.13,-129 489.13,-129 489.13,-110 576.13,-110 576.13,-129"/>
<text text-anchor="middle" x="532.63" y="-117" font-family="Helvetica,sans-Serif" font-size="10.00">mutt_logging.h</text>
</a>
</g>
</g>
<!-- Node1&#45;&gt;Node164 -->
<g id="edge34" class="edge">
<title>Node1&#45;&gt;Node164</title>
<path fill="none" stroke="#63b8ff" d="M523.23,-219.82C526.68,-210.99 531.66,-196.81 533.63,-184 535.84,-169.6 535.5,-153.15 534.66,-140.61"/>
<polygon fill="#63b8ff" stroke="#63b8ff" points="538.15,-140.36 533.81,-130.7 531.17,-140.96 538.15,-140.36"/>
</g>
<!-- Node165 -->
<g id="node18" class="node">
<title>Node165</title>
<g id="a_node18"><a xlink:href="mview_8h.html" target="_top" xlink:title="View of a Mailbox.">
<polygon fill="#fff0f0" stroke="red" points="919.13,-184 864.13,-184 864.13,-165 919.13,-165 919.13,-184"/>
<text text-anchor="middle" x="891.63" y="-172" font-family="Helvetica,sans-Serif" font-size="10.00">mview.h</text>
</a>
</g>
</g>
<!-- Node1&#45;&gt;Node165 -->
<g id="edge37" class="edge">
<title>Node1&#45;&gt;Node165</title>
<path fill="none" stroke="#63b8ff" d="M587.45,-220.67C654.3,-212.65 759.27,-199.22 849.63,-184 850.62,-183.83 851.63,-183.66 852.64,-183.48"/>
<polygon fill="#63b8ff" stroke="#63b8ff" points="852.98,-186.98 862.17,-181.7 851.7,-180.1 852.98,-186.98"/>
</g>
<!-- Node5&#45;&gt;Node2 -->
<g id="edge5" class="edge">
<title>Node5&#45;&gt;Node2</title>
<path fill="none" stroke="#63b8ff" d="M214.63,-54.75C214.63,-48.27 214.63,-39.16 214.63,-30.9"/>
<polygon fill="#63b8ff" stroke="#63b8ff" points="218.13,-30.96 214.63,-20.96 211.13,-30.96 218.13,-30.96"/>
</g>
<!-- Node54&#45;&gt;Node3 -->
<g id="edge7" class="edge">
<title>Node54&#45;&gt;Node3</title>
<path fill="none" stroke="#63b8ff" d="M650,-109.51C634.85,-101.31 612.21,-89.07 594.66,-79.58"/>
<polygon fill="#63b8ff" stroke="#63b8ff" points="596.8,-76.76 586.34,-75.08 593.47,-82.91 596.8,-76.76"/>
</g>
<!-- Node155&#45;&gt;Node3 -->
<g id="edge13" class="edge">
<title>Node155&#45;&gt;Node3</title>
<path fill="none" stroke="#63b8ff" d="M387.91,-164.72C390.39,-151.02 397.11,-124.6 413.63,-110 445.09,-82.17 492.92,-71.68 527.12,-67.76"/>
<polygon fill="#63b8ff" stroke="#63b8ff" points="527.04,-71.28 536.64,-66.81 526.35,-64.32 527.04,-71.28"/>
</g>
<!-- Node155&#45;&gt;Node4 -->
<g id="edge14" class="edge">
<title>Node155&#45;&gt;Node4</title>
<path fill="none" stroke="#63b8ff" d="M396.8,-164.51C405.39,-156.93 417.89,-145.88 428.23,-136.75"/>
<polygon fill="#63b8ff" stroke="#63b8ff" points="430.29,-139.6 435.46,-130.36 425.65,-134.36 430.29,-139.6"/>
</g>
<!-- Node155&#45;&gt;Node5 -->
<g id="edge15" class="edge">
<title>Node155&#45;&gt;Node5</title>
<path fill="none" stroke="#63b8ff" d="M358.07,-164.53C336.14,-156.91 305.64,-144.73 281.63,-129 261.61,-115.89 242.15,-96.48 229.41,-82.57"/>
<polygon fill="#63b8ff" stroke="#63b8ff" points="232.35,-80.6 223.08,-75.47 227.12,-85.26 232.35,-80.6"/>
</g>
<!-- Node155&#45;&gt;Node89 -->
<g id="edge16" class="edge">
<title>Node155&#45;&gt;Node89</title>
<path fill="none" stroke="#63b8ff" d="M355.75,-164.51C325.5,-155.7 279.21,-142.22 245.83,-132.5"/>
<polygon fill="#63b8ff" stroke="#63b8ff" points="247.08,-129.22 236.5,-129.78 245.12,-135.94 247.08,-129.22"/>
</g>
<!-- Node105&#45;&gt;Node2 -->
<g id="edge18" class="edge">
<title>Node105&#45;&gt;Node2</title>
<path fill="none" stroke="#63b8ff" d="M146.89,-164.75C147.41,-152.39 148.99,-129.19 153.63,-110 159.78,-84.57 160.98,-77.33 174.63,-55 180.76,-44.95 189.31,-35.08 196.92,-27.19"/>
<polygon fill="#63b8ff" stroke="#63b8ff" points="199.24,-29.83 203.88,-20.3 194.31,-24.86 199.24,-29.83"/>
</g>
<!-- Node105&#45;&gt;Node5 -->
<g id="edge19" class="edge">
<title>Node105&#45;&gt;Node5</title>
<path fill="none" stroke="#63b8ff" d="M147.74,-164.67C149.68,-151.8 154.59,-127.53 165.63,-110 172.61,-98.92 183.09,-88.88 192.57,-81.15"/>
<polygon fill="#63b8ff" stroke="#63b8ff" points="194.55,-84.04 200.35,-75.17 190.29,-78.49 194.55,-84.04"/>
</g>
<!-- Node105&#45;&gt;Node89 -->
<g id="edge20" class="edge">
<title>Node105&#45;&gt;Node89</title>
<path fill="none" stroke="#63b8ff" d="M156.46,-164.51C164.68,-157 176.61,-146.1 186.54,-137.03"/>
<polygon fill="#63b8ff" stroke="#63b8ff" points="188.79,-139.71 193.81,-130.38 184.07,-134.54 188.79,-139.71"/>
</g>
<!-- Node105&#45;&gt;Node106 -->
<g id="edge21" class="edge">
<title>Node105&#45;&gt;Node106</title>
<path fill="none" stroke="#63b8ff" d="M129.66,-164.51C114.27,-156.35 91.32,-144.19 73.44,-134.71"/>
<polygon fill="#63b8ff" stroke="#63b8ff" points="75.15,-131.66 64.68,-130.07 71.87,-137.84 75.15,-131.66"/>
</g>
<!-- Node106&#45;&gt;Node2 -->
<g id="edge22" class="edge">
<title>Node106&#45;&gt;Node2</title>
<path fill="none" stroke="#63b8ff" d="M51.04,-109.86C58.35,-96.34 74.22,-70.17 94.63,-55 118.9,-36.95 151.3,-25.51 176.31,-18.76"/>
<polygon fill="#63b8ff" stroke="#63b8ff" points="176.93,-22.21 185.76,-16.35 175.21,-15.43 176.93,-22.21"/>
</g>
<!-- Node106&#45;&gt;Node3 -->
<g id="edge23" class="edge">
<title>Node106&#45;&gt;Node3</title>
<path fill="none" stroke="#63b8ff" d="M80.47,-115.06C172.4,-105.73 426.51,-79.93 526.98,-69.73"/>
<polygon fill="#63b8ff" stroke="#63b8ff" points="527.07,-73.24 536.66,-68.75 526.36,-66.27 527.07,-73.24"/>
</g>
<!-- Node106&#45;&gt;Node5 -->
<g id="edge24" class="edge">
<title>Node106&#45;&gt;Node5</title>
<path fill="none" stroke="#63b8ff" d="M75.12,-109.51C102.72,-100.8 144.79,-87.53 175.51,-77.84"/>
<polygon fill="#63b8ff" stroke="#63b8ff" points="176.34,-81.25 184.82,-74.9 174.23,-74.57 176.34,-81.25"/>
</g>
<!-- Node158&#45;&gt;Node2 -->
<g id="edge27" class="edge">
<title>Node158&#45;&gt;Node2</title>
<path fill="none" stroke="#63b8ff" d="M319.3,-109.66C300.26,-91.62 256.66,-50.32 232.16,-27.12"/>
<polygon fill="#63b8ff" stroke="#63b8ff" points="234.85,-24.84 225.18,-20.5 230.03,-29.92 234.85,-24.84"/>
</g>
<!-- Node158&#45;&gt;Node3 -->
<g id="edge28" class="edge">
<title>Node158&#45;&gt;Node3</title>
<path fill="none" stroke="#63b8ff" d="M366.39,-110.16C410.11,-100.51 481.88,-84.66 527.13,-74.66"/>
<polygon fill="#63b8ff" stroke="#63b8ff" points="527.81,-78.1 536.82,-72.52 526.3,-71.26 527.81,-78.1"/>
</g>
<!-- Node158&#45;&gt;Node5 -->
<g id="edge29" class="edge">
<title>Node158&#45;&gt;Node5</title>
<path fill="none" stroke="#63b8ff" d="M309.29,-109.51C291.41,-101.2 264.59,-88.73 244.05,-79.18"/>
<polygon fill="#63b8ff" stroke="#63b8ff" points="245.59,-76.04 235.05,-75 242.64,-82.39 245.59,-76.04"/>
</g>
<!-- Node162&#45;&gt;Node3 -->
<g id="edge31" class="edge">
<title>Node162&#45;&gt;Node3</title>
<path fill="none" stroke="#63b8ff" d="M701.5,-164.8C709.57,-151.68 721.77,-126.57 709.63,-110 687.02,-79.17 642.99,-69.15 610.12,-66.16"/>
<polygon fill="#63b8ff" stroke="#63b8ff" points="610.74,-62.7 600.52,-65.48 610.25,-69.68 610.74,-62.7"/>
</g>
<!-- Node163&#45;&gt;Node137 -->
<g id="edge33" class="edge">
<title>Node163&#45;&gt;Node137</title>
<path fill="none" stroke="#63b8ff" d="M781.92,-164.75C785.25,-157.96 789.99,-148.3 794.19,-139.73"/>
<polygon fill="#63b8ff" stroke="#63b8ff" points="797.31,-141.32 798.57,-130.8 791.03,-138.24 797.31,-141.32"/>
</g>
<!-- Node164&#45;&gt;Node3 -->
<g id="edge35" class="edge">
<title>Node164&#45;&gt;Node3</title>
<path fill="none" stroke="#63b8ff" d="M538.57,-109.75C543.34,-102.73 550.19,-92.64 556.15,-83.87"/>
<polygon fill="#63b8ff" stroke="#63b8ff" points="558.98,-85.93 561.7,-75.69 553.19,-82 558.98,-85.93"/>
</g>
<!-- Node164&#45;&gt;Node5 -->
<g id="edge36" class="edge">
<title>Node164&#45;&gt;Node5</title>
<path fill="none" stroke="#63b8ff" d="M488.74,-111.19C427.6,-101 317.5,-82.65 257.11,-72.58"/>
<polygon fill="#63b8ff" stroke="#63b8ff" points="258.01,-69.18 247.57,-70.99 256.86,-76.09 258.01,-69.18"/>
</g>
<!-- Node165&#45;&gt;Node3 -->
<g id="edge38" class="edge">
<title>Node165&#45;&gt;Node3</title>
<path fill="none" stroke="#63b8ff" d="M888.96,-164.85C884.17,-150.82 872.65,-123.34 852.63,-110 813.66,-84.04 679.23,-72.23 610.22,-67.77"/>
<polygon fill="#63b8ff" stroke="#63b8ff" points="610.64,-64.29 600.44,-67.16 610.21,-71.28 610.64,-64.29"/>
</g>
</g>
</svg>
