<?xml version="1.0" encoding="UTF-8" standalone="no"?>
<!DOCTYPE svg PUBLIC "-//W3C//DTD SVG 1.1//EN"
 "http://www.w3.org/Graphics/SVG/1.1/DTD/svg11.dtd">
<!-- Generated by graphviz version 12.2.1 (20241206.2353)
 -->
<!-- Title: alias/dlg_query.c Pages: 1 -->
<svg width="1245pt" height="322pt"
 viewBox="0.00 0.00 1245.37 321.50" xmlns="http://www.w3.org/2000/svg" xmlns:xlink="http://www.w3.org/1999/xlink">
<g id="graph0" class="graph" transform="scale(1 1) rotate(0) translate(4 317.5)">
<title>alias/dlg_query.c</title>
<!-- Node1 -->
<g id="Node000001" class="node">
<title>Node1</title>
<g id="a_Node000001"><a xlink:title="Routines for querying an external address book.">
<polygon fill="#999999" stroke="#666666" points="647.62,-313.5 555.12,-313.5 555.12,-291.25 647.62,-291.25 647.62,-313.5"/>
<text text-anchor="middle" x="601.37" y="-300" font-family="Helvetica,sans-Serif" font-size="10.00">alias/dlg_query.c</text>
</a>
</g>
</g>
<!-- Node2 -->
<g id="Node000002" class="node">
<title>Node2</title>
<g id="a_Node000002"><a xlink:title=" ">
<polygon fill="#e0e0e0" stroke="#999999" points="912.12,-22.25 858.62,-22.25 858.62,0 912.12,0 912.12,-22.25"/>
<text text-anchor="middle" x="885.37" y="-8.75" font-family="Helvetica,sans-Serif" font-size="10.00">config.h</text>
</a>
</g>
</g>
<!-- Node1&#45;&gt;Node2 -->
<g id="edge1_Node000001_Node000002" class="edge">
<title>Node1&#45;&gt;Node2</title>
<g id="a_edge1_Node000001_Node000002"><a xlink:title=" ">
<path fill="none" stroke="#63b8ff" d="M647.74,-301.29C764.61,-300.48 1068.49,-294.56 1160.37,-255.25 1202.45,-237.25 1237.37,-232.64 1237.37,-186.88 1237.37,-186.88 1237.37,-186.88 1237.37,-126.62 1237.37,-61.21 1014.78,-27.43 923.61,-16.33"/>
<polygon fill="#63b8ff" stroke="#63b8ff" points="924.26,-12.89 913.91,-15.18 923.43,-19.84 924.26,-12.89"/>
</a>
</g>
</g>
<!-- Node3 -->
<g id="Node000003" class="node">
<title>Node3</title>
<g id="a_Node000003"><a xlink:title=" ">
<polygon fill="#e0e0e0" stroke="#999999" points="595.12,-80.5 535.62,-80.5 535.62,-58.25 595.12,-58.25 595.12,-80.5"/>
<text text-anchor="middle" x="565.37" y="-67" font-family="Helvetica,sans-Serif" font-size="10.00">stdbool.h</text>
</a>
</g>
</g>
<!-- Node1&#45;&gt;Node3 -->
<g id="edge2_Node000001_Node000003" class="edge">
<title>Node1&#45;&gt;Node3</title>
<g id="a_edge2_Node000001_Node000003"><a xlink:title=" ">
<path fill="none" stroke="#63b8ff" d="M587.2,-291.04C577.03,-282.68 564.15,-269.92 558.37,-255.25 536.47,-199.64 550.11,-127.21 559.19,-91.78"/>
<polygon fill="#63b8ff" stroke="#63b8ff" points="562.51,-92.91 561.75,-82.34 555.75,-91.08 562.51,-92.91"/>
</a>
</g>
</g>
<!-- Node4 -->
<g id="Node000004" class="node">
<title>Node4</title>
<g id="a_Node000004"><a xlink:title=" ">
<polygon fill="#e0e0e0" stroke="#999999" points="77.12,-255.25 29.62,-255.25 29.62,-233 77.12,-233 77.12,-255.25"/>
<text text-anchor="middle" x="53.37" y="-241.75" font-family="Helvetica,sans-Serif" font-size="10.00">stdio.h</text>
</a>
</g>
</g>
<!-- Node1&#45;&gt;Node4 -->
<g id="edge3_Node000001_Node000004" class="edge">
<title>Node1&#45;&gt;Node4</title>
<g id="a_edge3_Node000001_Node000004"><a xlink:title=" ">
<path fill="none" stroke="#63b8ff" d="M554.75,-300.44C465.7,-297.96 265.27,-289.03 88.45,-255.28"/>
<polygon fill="#63b8ff" stroke="#63b8ff" points="89.35,-251.88 78.86,-253.41 88.01,-258.76 89.35,-251.88"/>
</a>
</g>
</g>
<!-- Node5 -->
<g id="Node000005" class="node">
<title>Node5</title>
<g id="a_Node000005"><a xlink:title=" ">
<polygon fill="#e0e0e0" stroke="#999999" points="147.37,-255.25 95.37,-255.25 95.37,-233 147.37,-233 147.37,-255.25"/>
<text text-anchor="middle" x="121.37" y="-241.75" font-family="Helvetica,sans-Serif" font-size="10.00">string.h</text>
</a>
</g>
</g>
<!-- Node1&#45;&gt;Node5 -->
<g id="edge4_Node000001_Node000005" class="edge">
<title>Node1&#45;&gt;Node5</title>
<g id="a_edge4_Node000001_Node000005"><a xlink:title=" ">
<path fill="none" stroke="#63b8ff" d="M554.85,-299.29C475.41,-295.13 308.49,-283.82 158.83,-255.43"/>
<polygon fill="#63b8ff" stroke="#63b8ff" points="159.59,-252.01 149.11,-253.55 158.26,-258.88 159.59,-252.01"/>
</a>
</g>
</g>
<!-- Node6 -->
<g id="Node000006" class="node">
<title>Node6</title>
<g id="a_Node000006"><a xlink:title=" ">
<polygon fill="#e0e0e0" stroke="#999999" points="233.62,-255.25 165.12,-255.25 165.12,-233 233.62,-233 233.62,-255.25"/>
<text text-anchor="middle" x="199.37" y="-241.75" font-family="Helvetica,sans-Serif" font-size="10.00">sys/types.h</text>
</a>
</g>
</g>
<!-- Node1&#45;&gt;Node6 -->
<g id="edge5_Node000001_Node000006" class="edge">
<title>Node1&#45;&gt;Node6</title>
<g id="a_edge5_Node000001_Node000006"><a xlink:title=" ">
<path fill="none" stroke="#63b8ff" d="M554.66,-296.93C488.08,-290.26 361.87,-276.35 245.29,-255.64"/>
<polygon fill="#63b8ff" stroke="#63b8ff" points="245.99,-252.21 235.53,-253.88 244.75,-259.1 245.99,-252.21"/>
</a>
</g>
</g>
<!-- Node7 -->
<g id="Node000007" class="node">
<title>Node7</title>
<g id="a_Node000007"><a xlink:href="mutt_2lib_8h.html" target="_top" xlink:title="Convenience wrapper for the library headers.">
<polygon fill="#fff0f0" stroke="red" points="975.25,-80.5 913.5,-80.5 913.5,-58.25 975.25,-58.25 975.25,-80.5"/>
<text text-anchor="middle" x="944.37" y="-67" font-family="Helvetica,sans-Serif" font-size="10.00">mutt/lib.h</text>
</a>
</g>
</g>
<!-- Node1&#45;&gt;Node7 -->
<g id="edge6_Node000001_Node000007" class="edge">
<title>Node1&#45;&gt;Node7</title>
<g id="a_edge6_Node000001_Node000007"><a xlink:title=" ">
<path fill="none" stroke="#63b8ff" d="M647.99,-300.9C772.65,-299.15 1106.45,-291.12 1139.37,-255.25 1184.23,-206.38 1135.39,-158.9 1084.37,-116.5 1056.54,-93.37 1016.73,-81.72 986.67,-75.92"/>
<polygon fill="#63b8ff" stroke="#63b8ff" points="987.62,-72.54 977.16,-74.24 986.4,-79.43 987.62,-72.54"/>
</a>
</g>
</g>
<!-- Node54 -->
<g id="Node000054" class="node">
<title>Node54</title>
<g id="a_Node000054"><a xlink:href="address_2lib_8h.html" target="_top" xlink:title="Email Address Handling.">
<polygon fill="#fff0f0" stroke="red" points="726,-197 650.75,-197 650.75,-174.75 726,-174.75 726,-197"/>
<text text-anchor="middle" x="688.37" y="-183.5" font-family="Helvetica,sans-Serif" font-size="10.00">address/lib.h</text>
</a>
</g>
</g>
<!-- Node1&#45;&gt;Node54 -->
<g id="edge8_Node000001_Node000054" class="edge">
<title>Node1&#45;&gt;Node54</title>
<g id="a_edge8_Node000001_Node000054"><a xlink:title=" ">
<path fill="none" stroke="#63b8ff" d="M618.79,-290.91C631.45,-282.57 648.24,-269.9 659.37,-255.25 670.1,-241.14 677.67,-222.46 682.38,-208.19"/>
<polygon fill="#63b8ff" stroke="#63b8ff" points="685.65,-209.47 685.23,-198.89 678.96,-207.43 685.65,-209.47"/>
</a>
</g>
</g>
<!-- Node60 -->
<g id="Node000060" class="node">
<title>Node60</title>
<g id="a_Node000060"><a xlink:href="config_2lib_8h.html" target="_top" xlink:title="Convenience wrapper for the config headers.">
<polygon fill="#fff0f0" stroke="red" points="101.25,-138.75 33.5,-138.75 33.5,-116.5 101.25,-116.5 101.25,-138.75"/>
<text text-anchor="middle" x="67.37" y="-125.25" font-family="Helvetica,sans-Serif" font-size="10.00">config/lib.h</text>
</a>
</g>
</g>
<!-- Node1&#45;&gt;Node60 -->
<g id="edge9_Node000001_Node000060" class="edge">
<title>Node1&#45;&gt;Node60</title>
<g id="a_edge9_Node000001_Node000060"><a xlink:title=" ">
<path fill="none" stroke="#63b8ff" d="M555.01,-301.29C422.14,-300.56 47.11,-294.96 10.37,-255.25 -19.17,-223.31 21.27,-173.48 47.7,-146.85"/>
<polygon fill="#63b8ff" stroke="#63b8ff" points="49.88,-149.61 54.6,-140.13 44.99,-144.6 49.88,-149.61"/>
</a>
</g>
</g>
<!-- Node75 -->
<g id="Node000075" class="node">
<title>Node75</title>
<g id="a_Node000075"><a xlink:href="email_2lib_8h.html" target="_top" xlink:title="Structs that make up an email.">
<polygon fill="#fff0f0" stroke="red" points="846.37,-197 782.37,-197 782.37,-174.75 846.37,-174.75 846.37,-197"/>
<text text-anchor="middle" x="814.37" y="-183.5" font-family="Helvetica,sans-Serif" font-size="10.00">email/lib.h</text>
</a>
</g>
</g>
<!-- Node1&#45;&gt;Node75 -->
<g id="edge11_Node000001_Node000075" class="edge">
<title>Node1&#45;&gt;Node75</title>
<g id="a_edge11_Node000001_Node000075"><a xlink:title=" ">
<path fill="none" stroke="#63b8ff" d="M647.92,-300.28C687.71,-297.04 744.4,-286.67 782.37,-255.25 796.71,-243.38 804.99,-223.64 809.52,-208.41"/>
<polygon fill="#63b8ff" stroke="#63b8ff" points="812.87,-209.42 812.01,-198.86 806.1,-207.66 812.87,-209.42"/>
</a>
</g>
</g>
<!-- Node98 -->
<g id="Node000098" class="node">
<title>Node98</title>
<g id="a_Node000098"><a xlink:href="core_2lib_8h.html" target="_top" xlink:title="Convenience wrapper for the core headers.">
<polygon fill="#fff0f0" stroke="red" points="128.12,-197 68.62,-197 68.62,-174.75 128.12,-174.75 128.12,-197"/>
<text text-anchor="middle" x="98.37" y="-183.5" font-family="Helvetica,sans-Serif" font-size="10.00">core/lib.h</text>
</a>
</g>
</g>
<!-- Node1&#45;&gt;Node98 -->
<g id="edge12_Node000001_Node000098" class="edge">
<title>Node1&#45;&gt;Node98</title>
<g id="a_edge12_Node000001_Node000098"><a xlink:title=" ">
<path fill="none" stroke="#63b8ff" d="M554.86,-301.22C423.41,-300.3 56.38,-294.22 20.37,-255.25 2.06,-235.43 31.92,-215.38 59.82,-202.17"/>
<polygon fill="#63b8ff" stroke="#63b8ff" points="61.25,-205.36 68.93,-198.07 58.38,-198.98 61.25,-205.36"/>
</a>
</g>
</g>
<!-- Node110 -->
<g id="Node000110" class="node">
<title>Node110</title>
<g id="a_Node000110"><a xlink:href="gui_2lib_8h.html" target="_top" xlink:title="Convenience wrapper for the gui headers.">
<polygon fill="#fff0f0" stroke="red" points="511.12,-255.25 457.62,-255.25 457.62,-233 511.12,-233 511.12,-255.25"/>
<text text-anchor="middle" x="484.37" y="-241.75" font-family="Helvetica,sans-Serif" font-size="10.00">gui/lib.h</text>
</a>
</g>
</g>
<!-- Node1&#45;&gt;Node110 -->
<g id="edge13_Node000001_Node000110" class="edge">
<title>Node1&#45;&gt;Node110</title>
<g id="a_edge13_Node000001_Node000110"><a xlink:title=" ">
<path fill="none" stroke="#63b8ff" d="M579.37,-290.79C561.64,-282.27 536.46,-270.17 516.48,-260.56"/>
<polygon fill="#63b8ff" stroke="#63b8ff" points="518.17,-257.49 507.65,-256.31 515.14,-263.8 518.17,-257.49"/>
</a>
</g>
</g>
<!-- Node147 -->
<g id="Node000147" class="node">
<title>Node147</title>
<g id="a_Node000147"><a xlink:href="mutt_8h.html" target="_top" xlink:title="Many unsorted constants and some structs.">
<polygon fill="#fff0f0" stroke="red" points="615.12,-197 567.62,-197 567.62,-174.75 615.12,-174.75 615.12,-197"/>
<text text-anchor="middle" x="591.37" y="-183.5" font-family="Helvetica,sans-Serif" font-size="10.00">mutt.h</text>
</a>
</g>
</g>
<!-- Node1&#45;&gt;Node147 -->
<g id="edge14_Node000001_Node000147" class="edge">
<title>Node1&#45;&gt;Node147</title>
<g id="a_edge14_Node000001_Node000147"><a xlink:title=" ">
<path fill="none" stroke="#63b8ff" d="M616.02,-290.76C632.05,-277.73 654.25,-254.7 644.37,-233 639.09,-221.39 629.27,-211.57 619.52,-204.01"/>
<polygon fill="#63b8ff" stroke="#63b8ff" points="621.74,-201.3 611.56,-198.35 617.68,-207 621.74,-201.3"/>
</a>
</g>
</g>
<!-- Node143 -->
<g id="Node000143" class="node">
<title>Node143</title>
<g id="a_Node000143"><a xlink:href="menu_2lib_8h.html" target="_top" xlink:title="GUI present the user with a selectable list.">
<polygon fill="#fff0f0" stroke="red" points="819.5,-138.75 753.25,-138.75 753.25,-116.5 819.5,-116.5 819.5,-138.75"/>
<text text-anchor="middle" x="786.37" y="-125.25" font-family="Helvetica,sans-Serif" font-size="10.00">menu/lib.h</text>
</a>
</g>
</g>
<!-- Node1&#45;&gt;Node143 -->
<g id="edge34_Node000001_Node000143" class="edge">
<title>Node1&#45;&gt;Node143</title>
<g id="a_edge34_Node000001_Node000143"><a xlink:title=" ">
<path fill="none" stroke="#63b8ff" d="M647.93,-298.97C691.16,-294.93 755.94,-284.12 804.37,-255.25 840.75,-233.56 875.33,-212.1 855.37,-174.75 848.41,-161.71 835.94,-151.72 823.51,-144.42"/>
<polygon fill="#63b8ff" stroke="#63b8ff" points="825.45,-141.49 814.98,-139.85 822.15,-147.66 825.45,-141.49"/>
</a>
</g>
</g>
<!-- Node149 -->
<g id="Node000149" class="node">
<title>Node149</title>
<g id="a_Node000149"><a xlink:href="alias_2lib_8h.html" target="_top" xlink:title="Email Aliases.">
<polygon fill="white" stroke="#666666" points="287.12,-255.25 251.62,-255.25 251.62,-233 287.12,-233 287.12,-255.25"/>
<text text-anchor="middle" x="269.37" y="-241.75" font-family="Helvetica,sans-Serif" font-size="10.00">lib.h</text>
</a>
</g>
</g>
<!-- Node1&#45;&gt;Node149 -->
<g id="edge22_Node000001_Node000149" class="edge">
<title>Node1&#45;&gt;Node149</title>
<g id="a_edge22_Node000001_Node000149"><a xlink:title=" ">
<path fill="none" stroke="#63b8ff" d="M554.7,-296.45C495.33,-289.68 389.89,-275.93 301.37,-255.25 300.38,-255.02 299.37,-254.77 298.36,-254.51"/>
<polygon fill="#63b8ff" stroke="#63b8ff" points="299.55,-251.21 288.97,-251.82 297.62,-257.94 299.55,-251.21"/>
</a>
</g>
</g>
<!-- Node150 -->
<g id="Node000150" class="node">
<title>Node150</title>
<g id="a_Node000150"><a xlink:href="alias_2expando_8h.html" target="_top" xlink:title="Alias Expando definitions.">
<polygon fill="white" stroke="#666666" points="325.75,-197 261,-197 261,-174.75 325.75,-174.75 325.75,-197"/>
<text text-anchor="middle" x="293.37" y="-183.5" font-family="Helvetica,sans-Serif" font-size="10.00">expando.h</text>
</a>
</g>
</g>
<!-- Node1&#45;&gt;Node150 -->
<g id="edge45_Node000001_Node000150" class="edge">
<title>Node1&#45;&gt;Node150</title>
<g id="a_edge45_Node000001_Node000150"><a xlink:title=" ">
<path fill="none" stroke="#63b8ff" d="M554.75,-297.56C489.27,-291.47 374.18,-277.87 339.37,-255.25 321.9,-243.89 309.42,-223.33 301.91,-207.71"/>
<polygon fill="#63b8ff" stroke="#63b8ff" points="305.2,-206.5 297.93,-198.79 298.81,-209.35 305.2,-206.5"/>
</a>
</g>
</g>
<!-- Node151 -->
<g id="Node000151" class="node">
<title>Node151</title>
<g id="a_Node000151"><a xlink:href="expando_2lib_8h.html" target="_top" xlink:title="Parse Expando string.">
<polygon fill="#fff0f0" stroke="red" points="346.87,-138.75 267.87,-138.75 267.87,-116.5 346.87,-116.5 346.87,-138.75"/>
<text text-anchor="middle" x="307.37" y="-125.25" font-family="Helvetica,sans-Serif" font-size="10.00">expando/lib.h</text>
</a>
</g>
</g>
<!-- Node1&#45;&gt;Node151 -->
<g id="edge31_Node000001_Node000151" class="edge">
<title>Node1&#45;&gt;Node151</title>
<g id="a_edge31_Node000001_Node000151"><a xlink:title=" ">
<path fill="none" stroke="#63b8ff" d="M554.78,-296.83C516.88,-291.45 463.18,-279.87 422.37,-255.25 376.83,-227.77 338.72,-176.76 319.94,-148.59"/>
<polygon fill="#63b8ff" stroke="#63b8ff" points="322.92,-146.76 314.53,-140.28 317.05,-150.57 322.92,-146.76"/>
</a>
</g>
</g>
<!-- Node170 -->
<g id="Node000170" class="node">
<title>Node170</title>
<g id="a_Node000170"><a xlink:href="editor_2lib_8h.html" target="_top" xlink:title="Edit a string.">
<polygon fill="#fff0f0" stroke="red" points="635.25,-255.25 567.5,-255.25 567.5,-233 635.25,-233 635.25,-255.25"/>
<text text-anchor="middle" x="601.37" y="-241.75" font-family="Helvetica,sans-Serif" font-size="10.00">editor/lib.h</text>
</a>
</g>
</g>
<!-- Node1&#45;&gt;Node170 -->
<g id="edge27_Node000001_Node000170" class="edge">
<title>Node1&#45;&gt;Node170</title>
<g id="a_edge27_Node000001_Node000170"><a xlink:title=" ">
<path fill="none" stroke="#63b8ff" d="M601.37,-290.79C601.37,-284.12 601.37,-275.24 601.37,-267.09"/>
<polygon fill="#63b8ff" stroke="#63b8ff" points="604.87,-267.17 601.37,-257.17 597.87,-267.17 604.87,-267.17"/>
</a>
</g>
</g>
<!-- Node175 -->
<g id="Node000175" class="node">
<title>Node175</title>
<g id="a_Node000175"><a xlink:href="history_2lib_8h.html" target="_top" xlink:title="Read/write command history from/to a file.">
<polygon fill="#fff0f0" stroke="red" points="511.12,-197 439.62,-197 439.62,-174.75 511.12,-174.75 511.12,-197"/>
<text text-anchor="middle" x="475.37" y="-183.5" font-family="Helvetica,sans-Serif" font-size="10.00">history/lib.h</text>
</a>
</g>
</g>
<!-- Node1&#45;&gt;Node175 -->
<g id="edge32_Node000001_Node000175" class="edge">
<title>Node1&#45;&gt;Node175</title>
<g id="a_edge32_Node000001_Node000175"><a xlink:title=" ">
<path fill="none" stroke="#63b8ff" d="M554.65,-301.18C519.22,-298.26 472.61,-287.87 448.37,-255.25 437.38,-240.46 447.38,-220.6 458.18,-206.1"/>
<polygon fill="#63b8ff" stroke="#63b8ff" points="460.66,-208.6 464.23,-198.63 455.22,-204.2 460.66,-208.6"/>
</a>
</g>
</g>
<!-- Node177 -->
<g id="Node000177" class="node">
<title>Node177</title>
<g id="a_Node000177"><a xlink:href="key_2lib_8h.html" target="_top" xlink:title="Manage keymappings.">
<polygon fill="#fff0f0" stroke="red" points="922.87,-255.25 867.87,-255.25 867.87,-233 922.87,-233 922.87,-255.25"/>
<text text-anchor="middle" x="895.37" y="-241.75" font-family="Helvetica,sans-Serif" font-size="10.00">key/lib.h</text>
</a>
</g>
</g>
<!-- Node1&#45;&gt;Node177 -->
<g id="edge33_Node000001_Node000177" class="edge">
<title>Node1&#45;&gt;Node177</title>
<g id="a_edge33_Node000001_Node000177"><a xlink:title=" ">
<path fill="none" stroke="#63b8ff" d="M647.97,-293.64C698.66,-285.05 782.02,-270.37 853.37,-255.25 854.37,-255.04 855.38,-254.82 856.39,-254.6"/>
<polygon fill="#63b8ff" stroke="#63b8ff" points="856.96,-258.06 865.93,-252.43 855.41,-251.24 856.96,-258.06"/>
</a>
</g>
</g>
<!-- Node186 -->
<g id="Node000186" class="node">
<title>Node186</title>
<g id="a_Node000186"><a xlink:href="pattern_2lib_8h.html" target="_top" xlink:title="Match patterns to emails.">
<polygon fill="#fff0f0" stroke="red" points="1015.62,-255.25 941.12,-255.25 941.12,-233 1015.62,-233 1015.62,-255.25"/>
<text text-anchor="middle" x="978.37" y="-241.75" font-family="Helvetica,sans-Serif" font-size="10.00">pattern/lib.h</text>
</a>
</g>
</g>
<!-- Node1&#45;&gt;Node186 -->
<g id="edge35_Node000001_Node000186" class="edge">
<title>Node1&#45;&gt;Node186</title>
<g id="a_edge35_Node000001_Node000186"><a xlink:title=" ">
<path fill="none" stroke="#63b8ff" d="M647.88,-296.06C709.9,-288.71 823.34,-274.39 929.52,-255.66"/>
<polygon fill="#63b8ff" stroke="#63b8ff" points="930.05,-259.12 939.28,-253.92 928.82,-252.23 930.05,-259.12"/>
</a>
</g>
</g>
<!-- Node188 -->
<g id="Node000188" class="node">
<title>Node188</title>
<g id="a_Node000188"><a xlink:href="send_2lib_8h.html" target="_top" xlink:title="Convenience wrapper for the send headers.">
<polygon fill="#fff0f0" stroke="red" points="1095.25,-255.25 1033.5,-255.25 1033.5,-233 1095.25,-233 1095.25,-255.25"/>
<text text-anchor="middle" x="1064.37" y="-241.75" font-family="Helvetica,sans-Serif" font-size="10.00">send/lib.h</text>
</a>
</g>
</g>
<!-- Node1&#45;&gt;Node188 -->
<g id="edge40_Node000001_Node000188" class="edge">
<title>Node1&#45;&gt;Node188</title>
<g id="a_edge40_Node000001_Node000188"><a xlink:title=" ">
<path fill="none" stroke="#63b8ff" d="M647.99,-298.42C724.26,-293.13 880.58,-280.35 1022,-255.47"/>
<polygon fill="#63b8ff" stroke="#63b8ff" points="1022.3,-258.97 1031.53,-253.77 1021.07,-252.08 1022.3,-258.97"/>
</a>
</g>
</g>
<!-- Node196 -->
<g id="Node000196" class="node">
<title>Node196</title>
<g id="a_Node000196"><a xlink:href="alias_8h.html" target="_top" xlink:title="Representation of a single alias to an email address.">
<polygon fill="white" stroke="#666666" points="773.62,-255.25 729.12,-255.25 729.12,-233 773.62,-233 773.62,-255.25"/>
<text text-anchor="middle" x="751.37" y="-241.75" font-family="Helvetica,sans-Serif" font-size="10.00">alias.h</text>
</a>
</g>
</g>
<!-- Node1&#45;&gt;Node196 -->
<g id="edge41_Node000001_Node000196" class="edge">
<title>Node1&#45;&gt;Node196</title>
<g id="a_edge41_Node000001_Node000196"><a xlink:title=" ">
<path fill="none" stroke="#63b8ff" d="M629.59,-290.79C654.69,-281.38 691.42,-267.61 717.98,-257.65"/>
<polygon fill="#63b8ff" stroke="#63b8ff" points="719.12,-260.96 727.26,-254.17 716.67,-254.4 719.12,-260.96"/>
</a>
</g>
</g>
<!-- Node197 -->
<g id="Node000197" class="node">
<title>Node197</title>
<g id="a_Node000197"><a xlink:href="alias_2functions_8h.html" target="_top" xlink:title="Alias functions.">
<polygon fill="white" stroke="#666666" points="455.25,-138.75 387.5,-138.75 387.5,-116.5 455.25,-116.5 455.25,-138.75"/>
<text text-anchor="middle" x="421.37" y="-125.25" font-family="Helvetica,sans-Serif" font-size="10.00">functions.h</text>
</a>
</g>
</g>
<!-- Node1&#45;&gt;Node197 -->
<g id="edge46_Node000001_Node000197" class="edge">
<title>Node1&#45;&gt;Node197</title>
<g id="a_edge46_Node000001_Node000197"><a xlink:title=" ">
<path fill="none" stroke="#63b8ff" d="M554.87,-301.03C518.02,-298.11 468.12,-287.8 439.37,-255.25 413.76,-226.24 414.68,-178.03 417.88,-150.22"/>
<polygon fill="#63b8ff" stroke="#63b8ff" points="421.31,-150.9 419.21,-140.51 414.38,-149.94 421.31,-150.9"/>
</a>
</g>
</g>
<!-- Node198 -->
<g id="Node000198" class="node">
<title>Node198</title>
<g id="a_Node000198"><a xlink:href="gui_8h.html" target="_top" xlink:title="Shared code for the Alias and Query Dialogs.">
<polygon fill="white" stroke="#666666" points="953,-138.75 913.75,-138.75 913.75,-116.5 953,-116.5 953,-138.75"/>
<text text-anchor="middle" x="933.37" y="-125.25" font-family="Helvetica,sans-Serif" font-size="10.00">gui.h</text>
</a>
</g>
</g>
<!-- Node1&#45;&gt;Node198 -->
<g id="edge48_Node000001_Node000198" class="edge">
<title>Node1&#45;&gt;Node198</title>
<g id="a_edge48_Node000001_Node000198"><a xlink:title=" ">
<path fill="none" stroke="#63b8ff" d="M647.96,-300.6C766.78,-298.15 1073.93,-288.61 1104.37,-255.25 1111.04,-247.95 1109.21,-241.62 1104.37,-233 1088.84,-205.33 1008.59,-164.08 963.76,-142.67"/>
<polygon fill="#63b8ff" stroke="#63b8ff" points="965.35,-139.55 954.82,-138.44 962.36,-145.88 965.35,-139.55"/>
</a>
</g>
</g>
<!-- Node199 -->
<g id="Node000199" class="node">
<title>Node199</title>
<g id="a_Node000199"><a xlink:href="mutt__logging_8h.html" target="_top" xlink:title="NeoMutt Logging.">
<polygon fill="#fff0f0" stroke="red" points="1057.62,-138.75 971.12,-138.75 971.12,-116.5 1057.62,-116.5 1057.62,-138.75"/>
<text text-anchor="middle" x="1014.37" y="-125.25" font-family="Helvetica,sans-Serif" font-size="10.00">mutt_logging.h</text>
</a>
</g>
</g>
<!-- Node1&#45;&gt;Node199 -->
<g id="edge51_Node000001_Node000199" class="edge">
<title>Node1&#45;&gt;Node199</title>
<g id="a_edge51_Node000001_Node000199"><a xlink:title=" ">
<path fill="none" stroke="#63b8ff" d="M648.1,-300.74C769.71,-298.61 1088.81,-289.74 1120.37,-255.25 1155.51,-216.85 1087.51,-169.24 1044.98,-144.79"/>
<polygon fill="#63b8ff" stroke="#63b8ff" points="1046.81,-141.8 1036.37,-139.97 1043.39,-147.91 1046.81,-141.8"/>
</a>
</g>
</g>
<!-- Node7&#45;&gt;Node2 -->
<g id="edge7_Node000007_Node000002" class="edge">
<title>Node7&#45;&gt;Node2</title>
<g id="a_edge7_Node000007_Node000002"><a xlink:title=" ">
<path fill="none" stroke="#63b8ff" d="M933.28,-57.79C925.2,-50.1 914.06,-39.47 904.56,-30.41"/>
<polygon fill="#63b8ff" stroke="#63b8ff" points="907.17,-28.07 897.52,-23.7 902.34,-33.14 907.17,-28.07"/>
</a>
</g>
</g>
<!-- Node60&#45;&gt;Node3 -->
<g id="edge10_Node000060_Node000003" class="edge">
<title>Node60&#45;&gt;Node3</title>
<g id="a_edge10_Node000060_Node000003"><a xlink:title=" ">
<path fill="none" stroke="#63b8ff" d="M101.6,-122.76C190.41,-112.73 427.98,-85.89 524.13,-75.03"/>
<polygon fill="#63b8ff" stroke="#63b8ff" points="524.35,-78.53 533.89,-73.93 523.56,-71.58 524.35,-78.53"/>
</a>
</g>
</g>
<!-- Node147&#45;&gt;Node2 -->
<g id="edge15_Node000147_Node000002" class="edge">
<title>Node147&#45;&gt;Node2</title>
<g id="a_edge15_Node000147_Node000002"><a xlink:title=" ">
<path fill="none" stroke="#63b8ff" d="M609.32,-174.33C658.95,-145.17 798.29,-63.29 857.83,-28.31"/>
<polygon fill="#63b8ff" stroke="#63b8ff" points="859.51,-31.38 866.35,-23.3 855.96,-25.35 859.51,-31.38"/>
</a>
</g>
</g>
<!-- Node147&#45;&gt;Node3 -->
<g id="edge21_Node000147_Node000003" class="edge">
<title>Node147&#45;&gt;Node3</title>
<g id="a_edge21_Node000147_Node000003"><a xlink:title=" ">
<path fill="none" stroke="#63b8ff" d="M588.97,-174.31C584.74,-155.65 575.85,-116.51 570.27,-91.95"/>
<polygon fill="#63b8ff" stroke="#63b8ff" points="573.73,-91.37 568.1,-82.39 566.9,-92.92 573.73,-91.37"/>
</a>
</g>
</g>
<!-- Node147&#45;&gt;Node147 -->
<g id="edge16_Node000147_Node000147" class="edge">
<title>Node147&#45;&gt;Node147</title>
<g id="a_edge16_Node000147_Node000147"><a xlink:title=" ">
<path fill="none" stroke="#63b8ff" d="M615.4,-196.73C625.04,-197.34 633.12,-193.73 633.12,-185.88 633.12,-181.46 630.56,-178.38 626.61,-176.64"/>
<polygon fill="#63b8ff" stroke="#63b8ff" points="627.3,-173.21 616.9,-175.24 626.29,-180.14 627.3,-173.21"/>
</a>
</g>
</g>
<!-- Node147&#45;&gt;Node143 -->
<g id="edge17_Node000147_Node000143" class="edge">
<title>Node147&#45;&gt;Node143</title>
<g id="a_edge17_Node000147_Node000143"><a xlink:title=" ">
<path fill="none" stroke="#63b8ff" d="M615.28,-177.98C646.73,-168.91 702.59,-152.79 741.91,-141.45"/>
<polygon fill="#63b8ff" stroke="#63b8ff" points="742.69,-144.87 751.33,-138.73 740.75,-138.14 742.69,-144.87"/>
</a>
</g>
</g>
<!-- Node143&#45;&gt;Node2 -->
<g id="edge18_Node000143_Node000002" class="edge">
<title>Node143&#45;&gt;Node2</title>
<g id="a_edge18_Node000143_Node000002"><a xlink:title=" ">
<path fill="none" stroke="#63b8ff" d="M795.51,-116.06C812.23,-96.72 847.98,-55.38 868.99,-31.07"/>
<polygon fill="#63b8ff" stroke="#63b8ff" points="871.38,-33.66 875.27,-23.81 866.08,-29.09 871.38,-33.66"/>
</a>
</g>
</g>
<!-- Node143&#45;&gt;Node3 -->
<g id="edge19_Node000143_Node000003" class="edge">
<title>Node143&#45;&gt;Node3</title>
<g id="a_edge19_Node000143_Node000003"><a xlink:title=" ">
<path fill="none" stroke="#63b8ff" d="M752.81,-118.08C713.54,-108.09 648.54,-91.54 606.34,-80.8"/>
<polygon fill="#63b8ff" stroke="#63b8ff" points="607.37,-77.45 596.81,-78.38 605.64,-84.24 607.37,-77.45"/>
</a>
</g>
</g>
<!-- Node143&#45;&gt;Node7 -->
<g id="edge20_Node000143_Node000007" class="edge">
<title>Node143&#45;&gt;Node7</title>
<g id="a_edge20_Node000143_Node000007"><a xlink:title=" ">
<path fill="none" stroke="#63b8ff" d="M816.09,-116.04C840.92,-107.21 876.56,-94.52 903.97,-84.76"/>
<polygon fill="#63b8ff" stroke="#63b8ff" points="905.12,-88.07 913.36,-81.42 902.77,-81.47 905.12,-88.07"/>
</a>
</g>
</g>
<!-- Node149&#45;&gt;Node3 -->
<g id="edge23_Node000149_Node000003" class="edge">
<title>Node149&#45;&gt;Node3</title>
<g id="a_edge23_Node000149_Node000003"><a xlink:title=" ">
<path fill="none" stroke="#63b8ff" d="M263.91,-232.51C252.27,-208.23 228.5,-148.31 259.37,-116.5 295.24,-79.54 449.04,-72.07 523.99,-70.65"/>
<polygon fill="#63b8ff" stroke="#63b8ff" points="523.86,-74.15 533.8,-70.49 523.75,-67.15 523.86,-74.15"/>
</a>
</g>
</g>
<!-- Node149&#45;&gt;Node98 -->
<g id="edge24_Node000149_Node000098" class="edge">
<title>Node149&#45;&gt;Node98</title>
<g id="a_edge24_Node000149_Node000098"><a xlink:title=" ">
<path fill="none" stroke="#63b8ff" d="M251.41,-236.25C248.4,-235.14 245.31,-234.02 242.37,-233 207.89,-221.02 168.39,-208.45 139.49,-199.46"/>
<polygon fill="#63b8ff" stroke="#63b8ff" points="140.61,-196.14 130.02,-196.53 138.54,-202.83 140.61,-196.14"/>
</a>
</g>
</g>
<!-- Node149&#45;&gt;Node150 -->
<g id="edge25_Node000149_Node000150" class="edge">
<title>Node149&#45;&gt;Node150</title>
<g id="a_edge25_Node000149_Node000150"><a xlink:title=" ">
<path fill="none" stroke="#63b8ff" d="M273.89,-232.54C276.84,-225.63 280.79,-216.36 284.37,-207.98"/>
<polygon fill="#63b8ff" stroke="#63b8ff" points="287.58,-209.37 288.29,-198.8 281.14,-206.62 287.58,-209.37"/>
</a>
</g>
</g>
<!-- Node150&#45;&gt;Node151 -->
<g id="edge26_Node000150_Node000151" class="edge">
<title>Node150&#45;&gt;Node151</title>
<g id="a_edge26_Node000150_Node000151"><a xlink:title=" ">
<path fill="none" stroke="#63b8ff" d="M296.01,-174.29C297.69,-167.54 299.93,-158.53 301.98,-150.3"/>
<polygon fill="#63b8ff" stroke="#63b8ff" points="305.37,-151.18 304.39,-140.63 298.57,-149.49 305.37,-151.18"/>
</a>
</g>
</g>
<!-- Node170&#45;&gt;Node147 -->
<g id="edge28_Node000170_Node000147" class="edge">
<title>Node170&#45;&gt;Node147</title>
<g id="a_edge28_Node000170_Node000147"><a xlink:title=" ">
<path fill="none" stroke="#63b8ff" d="M599.49,-232.54C598.29,-225.79 596.69,-216.78 595.23,-208.55"/>
<polygon fill="#63b8ff" stroke="#63b8ff" points="598.71,-208.13 593.51,-198.9 591.82,-209.36 598.71,-208.13"/>
</a>
</g>
</g>
<!-- Node170&#45;&gt;Node175 -->
<g id="edge29_Node000170_Node000175" class="edge">
<title>Node170&#45;&gt;Node175</title>
<g id="a_edge29_Node000170_Node000175"><a xlink:title=" ">
<path fill="none" stroke="#63b8ff" d="M577.67,-232.54C558.4,-223.94 530.96,-211.69 509.35,-202.04"/>
<polygon fill="#63b8ff" stroke="#63b8ff" points="510.91,-198.91 500.35,-198.02 508.05,-205.3 510.91,-198.91"/>
</a>
</g>
</g>
<!-- Node175&#45;&gt;Node3 -->
<g id="edge30_Node000175_Node000003" class="edge">
<title>Node175&#45;&gt;Node3</title>
<g id="a_edge30_Node000175_Node000003"><a xlink:title=" ">
<path fill="none" stroke="#63b8ff" d="M482.57,-174.48C492.06,-160.91 509.43,-136.51 525.37,-116.5 532.67,-107.35 541.11,-97.51 548.36,-89.28"/>
<polygon fill="#63b8ff" stroke="#63b8ff" points="550.87,-91.72 554.9,-81.92 545.64,-87.07 550.87,-91.72"/>
</a>
</g>
</g>
<!-- Node186&#45;&gt;Node2 -->
<g id="edge36_Node000186_Node000002" class="edge">
<title>Node186&#45;&gt;Node2</title>
<g id="a_edge36_Node000186_Node000002"><a xlink:title=" ">
<path fill="none" stroke="#63b8ff" d="M968.26,-232.58C951.88,-214.81 919.81,-177.07 904.37,-138.75 890.38,-104 886.58,-60.13 885.61,-34.2"/>
<polygon fill="#63b8ff" stroke="#63b8ff" points="889.11,-34.15 885.37,-24.24 882.11,-34.33 889.11,-34.15"/>
</a>
</g>
</g>
<!-- Node186&#45;&gt;Node3 -->
<g id="edge37_Node000186_Node000003" class="edge">
<title>Node186&#45;&gt;Node3</title>
<g id="a_edge37_Node000186_Node000003"><a xlink:title=" ">
<path fill="none" stroke="#63b8ff" d="M961.79,-232.54C938.65,-218.09 895.03,-192.01 855.37,-174.75 807.82,-154.05 793.28,-156.01 744.37,-138.75 694.91,-121.29 638.46,-99.4 602.41,-85.16"/>
<polygon fill="#63b8ff" stroke="#63b8ff" points="603.9,-81.98 593.31,-81.56 601.32,-88.49 603.9,-81.98"/>
</a>
</g>
</g>
<!-- Node186&#45;&gt;Node7 -->
<g id="edge38_Node000186_Node000007" class="edge">
<title>Node186&#45;&gt;Node7</title>
<g id="a_edge38_Node000186_Node000007"><a xlink:title=" ">
<path fill="none" stroke="#63b8ff" d="M995.52,-232.63C1028.77,-210.96 1096.2,-159.67 1066.37,-116.5 1048.55,-90.71 1014.33,-79.33 986.66,-74.31"/>
<polygon fill="#63b8ff" stroke="#63b8ff" points="987.57,-70.91 977.15,-72.81 986.48,-77.82 987.57,-70.91"/>
</a>
</g>
</g>
<!-- Node186&#45;&gt;Node147 -->
<g id="edge39_Node000186_Node000147" class="edge">
<title>Node186&#45;&gt;Node147</title>
<g id="a_edge39_Node000186_Node000147"><a xlink:title=" ">
<path fill="none" stroke="#63b8ff" d="M940.77,-234.55C937.94,-233.99 935.11,-233.47 932.37,-233 803.93,-210.97 770,-217.95 641.37,-197 636.6,-196.22 631.6,-195.32 626.67,-194.37"/>
<polygon fill="#63b8ff" stroke="#63b8ff" points="627.44,-190.96 616.95,-192.44 626.07,-197.82 627.44,-190.96"/>
</a>
</g>
</g>
<!-- Node196&#45;&gt;Node7 -->
<g id="edge42_Node000196_Node000007" class="edge">
<title>Node196&#45;&gt;Node7</title>
<g id="a_edge42_Node000196_Node000007"><a xlink:title=" ">
<path fill="none" stroke="#63b8ff" d="M752.43,-232.81C754.37,-218.43 759.64,-192.19 773.37,-174.75 778.46,-168.29 869.42,-114.37 916.55,-86.67"/>
<polygon fill="#63b8ff" stroke="#63b8ff" points="918.28,-89.71 925.13,-81.63 914.74,-83.68 918.28,-89.71"/>
</a>
</g>
</g>
<!-- Node196&#45;&gt;Node54 -->
<g id="edge43_Node000196_Node000054" class="edge">
<title>Node196&#45;&gt;Node54</title>
<g id="a_edge43_Node000196_Node000054"><a xlink:title=" ">
<path fill="none" stroke="#63b8ff" d="M739.52,-232.54C730.81,-224.77 718.76,-214.01 708.55,-204.89"/>
<polygon fill="#63b8ff" stroke="#63b8ff" points="711.09,-202.47 701.3,-198.42 706.43,-207.69 711.09,-202.47"/>
</a>
</g>
</g>
<!-- Node196&#45;&gt;Node75 -->
<g id="edge44_Node000196_Node000075" class="edge">
<title>Node196&#45;&gt;Node75</title>
<g id="a_edge44_Node000196_Node000075"><a xlink:title=" ">
<path fill="none" stroke="#63b8ff" d="M763.22,-232.54C771.93,-224.77 783.98,-214.01 794.2,-204.89"/>
<polygon fill="#63b8ff" stroke="#63b8ff" points="796.32,-207.69 801.45,-198.42 791.66,-202.47 796.32,-207.69"/>
</a>
</g>
</g>
<!-- Node197&#45;&gt;Node3 -->
<g id="edge47_Node000197_Node000003" class="edge">
<title>Node197&#45;&gt;Node3</title>
<g id="a_edge47_Node000197_Node000003"><a xlink:title=" ">
<path fill="none" stroke="#63b8ff" d="M448.46,-116.04C470.88,-107.28 502.99,-94.74 527.89,-85.02"/>
<polygon fill="#63b8ff" stroke="#63b8ff" points="528.96,-88.36 537,-81.46 526.41,-81.84 528.96,-88.36"/>
</a>
</g>
</g>
<!-- Node198&#45;&gt;Node3 -->
<g id="edge49_Node000198_Node000003" class="edge">
<title>Node198&#45;&gt;Node3</title>
<g id="a_edge49_Node000198_Node000003"><a xlink:title=" ">
<path fill="none" stroke="#63b8ff" d="M913.33,-123.56C855.14,-114.67 685.38,-88.72 606.52,-76.66"/>
<polygon fill="#63b8ff" stroke="#63b8ff" points="607.48,-73.27 597.07,-75.22 606.42,-80.19 607.48,-73.27"/>
</a>
</g>
</g>
<!-- Node198&#45;&gt;Node7 -->
<g id="edge50_Node000198_Node000007" class="edge">
<title>Node198&#45;&gt;Node7</title>
<g id="a_edge50_Node000198_Node000007"><a xlink:title=" ">
<path fill="none" stroke="#63b8ff" d="M935.44,-116.04C936.76,-109.29 938.52,-100.28 940.13,-92.05"/>
<polygon fill="#63b8ff" stroke="#63b8ff" points="943.54,-92.88 942.02,-82.39 936.67,-91.54 943.54,-92.88"/>
</a>
</g>
</g>
<!-- Node199&#45;&gt;Node3 -->
<g id="edge52_Node000199_Node000003" class="edge">
<title>Node199&#45;&gt;Node3</title>
<g id="a_edge52_Node000199_Node000003"><a xlink:title=" ">
<path fill="none" stroke="#63b8ff" d="M970.72,-117.87C967.9,-117.39 965.1,-116.92 962.37,-116.5 833.28,-96.46 679.35,-80.95 606.93,-74.15"/>
<polygon fill="#63b8ff" stroke="#63b8ff" points="607.4,-70.67 597.12,-73.23 606.75,-77.64 607.4,-70.67"/>
</a>
</g>
</g>
<!-- Node199&#45;&gt;Node7 -->
<g id="edge53_Node000199_Node000007" class="edge">
<title>Node199&#45;&gt;Node7</title>
<g id="a_edge53_Node000199_Node000007"><a xlink:title=" ">
<path fill="none" stroke="#63b8ff" d="M1001.21,-116.04C991.43,-108.19 977.87,-97.29 966.44,-88.11"/>
<polygon fill="#63b8ff" stroke="#63b8ff" points="968.65,-85.39 958.66,-81.86 964.26,-90.85 968.65,-85.39"/>
</a>
</g>
</g>
</g>
</svg>
