<?xml version="1.0" encoding="UTF-8" standalone="no"?>
<!DOCTYPE svg PUBLIC "-//W3C//DTD SVG 1.1//EN"
 "http://www.w3.org/Graphics/SVG/1.1/DTD/svg11.dtd">
<!-- Generated by graphviz version 12.2.1 (20241206.2353)
 -->
<!-- Title: init_lastdir Pages: 1 -->
<svg width="346pt" height="49pt"
 viewBox="0.00 0.00 346.25 49.25" xmlns="http://www.w3.org/2000/svg" xmlns:xlink="http://www.w3.org/1999/xlink">
<g id="graph0" class="graph" transform="scale(1 1) rotate(0) translate(4 45.25)">
<title>init_lastdir</title>
<!-- Node1 -->
<g id="Node000001" class="node">
<title>Node1</title>
<g id="a_Node000001"><a xlink:title="Initialise the browser directories.">
<polygon fill="#999999" stroke="#666666" points="338.25,-41.25 275,-41.25 275,-19 338.25,-19 338.25,-41.25"/>
<text text-anchor="middle" x="306.62" y="-27.75" font-family="Helvetica,sans-Serif" font-size="10.00">init_lastdir</text>
</a>
</g>
</g>
<!-- Node2 -->
<g id="Node000002" class="node">
<title>Node2</title>
<g id="a_Node000002"><a xlink:href="group__gui__dlg.html#ga0772d3d88c6b65815188e5d56d1498fb" target="_top" xlink:title="Let the user select a file &#45;.">
<polygon fill="#fff0f0" stroke="red" points="73,-41.25 0,-41.25 0,-19 73,-19 73,-41.25"/>
<text text-anchor="middle" x="36.5" y="-27.75" font-family="Helvetica,sans-Serif" font-size="10.00">dlg_browser</text>
</a>
</g>
</g>
<!-- Node1&#45;&gt;Node2 -->
<g id="edge1_Node000001_Node000002" class="edge">
<title>Node1&#45;&gt;Node2</title>
<g id="a_edge1_Node000001_Node000002"><a xlink:title=" ">
<path fill="none" stroke="#63b8ff" d="M263.28,-30.86C255.22,-30.97 246.85,-31.07 239,-31.12 181.22,-31.56 166.78,-31.53 109,-31.12 97.33,-31.04 84.59,-30.89 73.14,-30.72"/>
<polygon fill="#63b8ff" stroke="#63b8ff" points="263.32,-34.36 273.26,-30.71 263.21,-27.36 263.32,-34.36"/>
</a>
</g>
</g>
<!-- Node770 -->
<g id="Node000770" class="node">
<title>Node770</title>
<g id="a_Node000770"><a xlink:href="dlg__browser_8c.html#a9fbed4ed086e8d9c2907e8f43d6143f2" target="_top" xlink:title="Remember the last directory selected.">
<polygon fill="#fff0f0" stroke="red" points="239,-22.25 109,-22.25 109,0 239,0 239,-22.25"/>
<text text-anchor="middle" x="174" y="-8.75" font-family="Helvetica,sans-Serif" font-size="10.00">mutt_browser_select_dir</text>
</a>
</g>
</g>
<!-- Node1&#45;&gt;Node770 -->
<g id="edge2_Node000001_Node000770" class="edge">
<title>Node1&#45;&gt;Node770</title>
<g id="a_edge2_Node000001_Node000770"><a xlink:title=" ">
<path fill="none" stroke="#63b8ff" d="M263.44,-23.99C255.75,-22.87 247.56,-21.68 239.4,-20.49"/>
<polygon fill="#63b8ff" stroke="#63b8ff" points="262.77,-27.43 273.17,-25.4 263.78,-20.5 262.77,-27.43"/>
</a>
</g>
</g>
<!-- Node770&#45;&gt;Node2 -->
<g id="edge3_Node000770_Node000002" class="edge">
<title>Node770&#45;&gt;Node2</title>
<g id="a_edge3_Node000770_Node000002"><a xlink:title=" ">
<path fill="none" stroke="#63b8ff" d="M97.69,-21.68C89.26,-22.87 80.99,-24.03 73.41,-25.09"/>
<polygon fill="#63b8ff" stroke="#63b8ff" points="97.91,-25.19 107.32,-20.33 96.93,-18.26 97.91,-25.19"/>
</a>
</g>
</g>
</g>
</svg>
