<?xml version="1.0" encoding="UTF-8" standalone="no"?>
<!DOCTYPE svg PUBLIC "-//W3C//DTD SVG 1.1//EN"
 "http://www.w3.org/Graphics/SVG/1.1/DTD/svg11.dtd">
<!-- Generated by graphviz version 2.40.1 (20161225.0304)
 -->
<!-- Title: autocrypt/dlgautocrypt.c Pages: 1 -->
<svg width="1070pt" height="196pt"
 viewBox="0.00 0.00 1070.03 196.00" xmlns="http://www.w3.org/2000/svg" xmlns:xlink="http://www.w3.org/1999/xlink">
<g id="graph0" class="graph" transform="scale(1 1) rotate(0) translate(4 192)">
<title>autocrypt/dlgautocrypt.c</title>
<polygon fill="#ffffff" stroke="transparent" points="-4,4 -4,-192 1066.0339,-192 1066.0339,4 -4,4"/>
<!-- Node0 -->
<g id="node1" class="node">
<title>Node0</title>
<polygon fill="#bfbfbf" stroke="#000000" points="488.6005,-168.5 488.6005,-187.5 624.6005,-187.5 624.6005,-168.5 488.6005,-168.5"/>
<text text-anchor="middle" x="556.6005" y="-175.5" font-family="Helvetica,sans-Serif" font-size="10.00" fill="#000000">autocrypt/dlgautocrypt.c</text>
</g>
<!-- Node1 -->
<g id="node2" class="node">
<title>Node1</title>
<polygon fill="#ffffff" stroke="#bfbfbf" points="121.1005,-.5 121.1005,-19.5 176.1005,-19.5 176.1005,-.5 121.1005,-.5"/>
<text text-anchor="middle" x="148.6005" y="-7.5" font-family="Helvetica,sans-Serif" font-size="10.00" fill="#000000">config.h</text>
</g>
<!-- Node0&#45;&gt;Node1 -->
<g id="edge1" class="edge">
<title>Node0&#45;&gt;Node1</title>
<path fill="none" stroke="#191970" d="M488.5796,-174.3575C361.6644,-167.1719 98.1729,-150.2746 60.6005,-132 23.5684,-113.9882 -16.5847,-89.3299 7.6005,-56 19.9028,-39.046 73.5223,-25.0615 110.9706,-17.1203"/>
<polygon fill="#191970" stroke="#191970" points="111.9679,-20.4884 121.0564,-15.0432 110.5559,-13.6323 111.9679,-20.4884"/>
</g>
<!-- Node2 -->
<g id="node3" class="node">
<title>Node2</title>
<polygon fill="#ffffff" stroke="#bfbfbf" points="729.6005,-56.5 729.6005,-75.5 791.6005,-75.5 791.6005,-56.5 729.6005,-56.5"/>
<text text-anchor="middle" x="760.6005" y="-63.5" font-family="Helvetica,sans-Serif" font-size="10.00" fill="#000000">stdbool.h</text>
</g>
<!-- Node0&#45;&gt;Node2 -->
<g id="edge2" class="edge">
<title>Node0&#45;&gt;Node2</title>
<path fill="none" stroke="#191970" d="M624.6386,-172.6206C680.5066,-166.6233 753.2989,-154.6315 771.6005,-132 782.2832,-118.79 777.17,-99.1329 770.8224,-84.7065"/>
<polygon fill="#191970" stroke="#191970" points="773.9519,-83.1389 766.4097,-75.6981 767.6656,-86.2182 773.9519,-83.1389"/>
</g>
<!-- Node3 -->
<g id="node4" class="node">
<title>Node3</title>
<polygon fill="#ffffff" stroke="#bfbfbf" points="769.1005,-.5 769.1005,-19.5 822.1005,-19.5 822.1005,-.5 769.1005,-.5"/>
<text text-anchor="middle" x="795.6005" y="-7.5" font-family="Helvetica,sans-Serif" font-size="10.00" fill="#000000">stdint.h</text>
</g>
<!-- Node0&#45;&gt;Node3 -->
<g id="edge3" class="edge">
<title>Node0&#45;&gt;Node3</title>
<path fill="none" stroke="#191970" d="M624.901,-176.6229C753.5724,-173.3179 1021.559,-162.7797 1049.6005,-132 1060.1682,-120.4003 1071.757,-84.5942 1046.6005,-56 1018.9377,-24.5572 895.2339,-14.4677 832.4344,-11.3411"/>
<polygon fill="#191970" stroke="#191970" points="832.3285,-7.8325 822.1771,-10.8656 832.0043,-14.825 832.3285,-7.8325"/>
</g>
<!-- Node4 -->
<g id="node5" class="node">
<title>Node4</title>
<polygon fill="#ffffff" stroke="#bfbfbf" points="838.6005,-56.5 838.6005,-75.5 888.6005,-75.5 888.6005,-56.5 838.6005,-56.5"/>
<text text-anchor="middle" x="863.6005" y="-63.5" font-family="Helvetica,sans-Serif" font-size="10.00" fill="#000000">stdio.h</text>
</g>
<!-- Node0&#45;&gt;Node4 -->
<g id="edge4" class="edge">
<title>Node0&#45;&gt;Node4</title>
<path fill="none" stroke="#191970" d="M624.922,-174.0448C723.707,-167.619 896.7383,-153.4332 915.6005,-132 930.3754,-115.2111 908.8036,-94.86 889.1205,-81.2348"/>
<polygon fill="#191970" stroke="#191970" points="890.9106,-78.2232 880.6302,-75.6611 887.069,-84.0749 890.9106,-78.2232"/>
</g>
<!-- Node5 -->
<g id="node6" class="node">
<title>Node5</title>
<g id="a_node6"><a xlink:href="autocrypt_2private_8h.html" target="_top" xlink:title="Shared constants/structs that are private to Autocrypt. ">
<polygon fill="#ffffff" stroke="#ff0000" points="702.6005,-112.5 702.6005,-131.5 762.6005,-131.5 762.6005,-112.5 702.6005,-112.5"/>
<text text-anchor="middle" x="732.6005" y="-119.5" font-family="Helvetica,sans-Serif" font-size="10.00" fill="#000000">private.h</text>
</a>
</g>
</g>
<!-- Node0&#45;&gt;Node5 -->
<g id="edge5" class="edge">
<title>Node0&#45;&gt;Node5</title>
<path fill="none" stroke="#191970" d="M586.856,-168.3733C616.2488,-159.021 661.0297,-144.7725 693.1939,-134.5385"/>
<polygon fill="#191970" stroke="#191970" points="694.2718,-137.8685 702.7398,-131.5011 692.1493,-131.198 694.2718,-137.8685"/>
</g>
<!-- Node7 -->
<g id="node7" class="node">
<title>Node7</title>
<g id="a_node7"><a xlink:href="mutt_2lib_8h.html" target="_top" xlink:title="Convenience wrapper for the library headers. ">
<polygon fill="#ffffff" stroke="#ff0000" points="276.6005,-.5 276.6005,-19.5 340.6005,-19.5 340.6005,-.5 276.6005,-.5"/>
<text text-anchor="middle" x="308.6005" y="-7.5" font-family="Helvetica,sans-Serif" font-size="10.00" fill="#000000">mutt/lib.h</text>
</a>
</g>
</g>
<!-- Node0&#45;&gt;Node7 -->
<g id="edge7" class="edge">
<title>Node0&#45;&gt;Node7</title>
<path fill="none" stroke="#191970" d="M488.355,-171.9949C431.3243,-165.5554 355.987,-153.2658 334.6005,-132 320.3765,-117.8563 313.1236,-60.2977 310.2011,-29.5633"/>
<polygon fill="#191970" stroke="#191970" points="313.6859,-29.2353 309.3155,-19.5839 306.7133,-29.8542 313.6859,-29.2353"/>
</g>
<!-- Node47 -->
<g id="node8" class="node">
<title>Node47</title>
<g id="a_node8"><a xlink:href="address_2lib_8h.html" target="_top" xlink:title="Email Address Handling. ">
<polygon fill="#ffffff" stroke="#ff0000" points="343.1005,-112.5 343.1005,-131.5 422.1005,-131.5 422.1005,-112.5 343.1005,-112.5"/>
<text text-anchor="middle" x="382.6005" y="-119.5" font-family="Helvetica,sans-Serif" font-size="10.00" fill="#000000">address/lib.h</text>
</a>
</g>
</g>
<!-- Node0&#45;&gt;Node47 -->
<g id="edge8" class="edge">
<title>Node0&#45;&gt;Node47</title>
<path fill="none" stroke="#191970" d="M526.6888,-168.3733C497.7553,-159.0613 453.7393,-144.8953 421.9712,-134.671"/>
<polygon fill="#191970" stroke="#191970" points="422.7133,-131.2331 412.1218,-131.5011 420.5687,-137.8965 422.7133,-131.2331"/>
</g>
<!-- Node51 -->
<g id="node9" class="node">
<title>Node51</title>
<g id="a_node9"><a xlink:href="config_2lib_8h.html" target="_top" xlink:title="Convenience wrapper for the config headers. ">
<polygon fill="#ffffff" stroke="#ff0000" points="440.6005,-112.5 440.6005,-131.5 510.6005,-131.5 510.6005,-112.5 440.6005,-112.5"/>
<text text-anchor="middle" x="475.6005" y="-119.5" font-family="Helvetica,sans-Serif" font-size="10.00" fill="#000000">config/lib.h</text>
</a>
</g>
</g>
<!-- Node0&#45;&gt;Node51 -->
<g id="edge9" class="edge">
<title>Node0&#45;&gt;Node51</title>
<path fill="none" stroke="#191970" d="M542.4913,-168.2455C530.1796,-159.7337 512.1047,-147.2375 497.8467,-137.3801"/>
<polygon fill="#191970" stroke="#191970" points="499.7639,-134.4506 489.5479,-131.6427 495.7831,-140.2085 499.7639,-134.4506"/>
</g>
<!-- Node70 -->
<g id="node10" class="node">
<title>Node70</title>
<g id="a_node10"><a xlink:href="gui_2lib_8h.html" target="_top" xlink:title="Convenience wrapper for the gui headers. ">
<polygon fill="#ffffff" stroke="#ff0000" points="528.6005,-112.5 528.6005,-131.5 584.6005,-131.5 584.6005,-112.5 528.6005,-112.5"/>
<text text-anchor="middle" x="556.6005" y="-119.5" font-family="Helvetica,sans-Serif" font-size="10.00" fill="#000000">gui/lib.h</text>
</a>
</g>
</g>
<!-- Node0&#45;&gt;Node70 -->
<g id="edge10" class="edge">
<title>Node0&#45;&gt;Node70</title>
<path fill="none" stroke="#191970" d="M556.6005,-168.2455C556.6005,-160.9382 556.6005,-150.6944 556.6005,-141.7046"/>
<polygon fill="#191970" stroke="#191970" points="560.1006,-141.6426 556.6005,-131.6427 553.1006,-141.6427 560.1006,-141.6426"/>
</g>
<!-- Node74 -->
<g id="node11" class="node">
<title>Node74</title>
<g id="a_node11"><a xlink:href="mutt_8h.html" target="_top" xlink:title="Many unsorted constants and some structs. ">
<polygon fill="#ffffff" stroke="#ff0000" points="91.1005,-112.5 91.1005,-131.5 140.1005,-131.5 140.1005,-112.5 91.1005,-112.5"/>
<text text-anchor="middle" x="115.6005" y="-119.5" font-family="Helvetica,sans-Serif" font-size="10.00" fill="#000000">mutt.h</text>
</a>
</g>
</g>
<!-- Node0&#45;&gt;Node74 -->
<g id="edge11" class="edge">
<title>Node0&#45;&gt;Node74</title>
<path fill="none" stroke="#191970" d="M488.2516,-173.0505C407.9233,-166.5721 270.8291,-153.4465 154.6005,-132 153.1398,-131.7305 151.6529,-131.4368 150.1542,-131.1248"/>
<polygon fill="#191970" stroke="#191970" points="150.7729,-127.6761 140.2447,-128.8627 149.2149,-134.5005 150.7729,-127.6761"/>
</g>
<!-- Node76 -->
<g id="node12" class="node">
<title>Node76</title>
<g id="a_node12"><a xlink:href="keymap_8h.html" target="_top" xlink:title="Manage keymappings. ">
<polygon fill="#ffffff" stroke="#ff0000" points="215.1005,-56.5 215.1005,-75.5 280.1005,-75.5 280.1005,-56.5 215.1005,-56.5"/>
<text text-anchor="middle" x="247.6005" y="-63.5" font-family="Helvetica,sans-Serif" font-size="10.00" fill="#000000">keymap.h</text>
</a>
</g>
</g>
<!-- Node0&#45;&gt;Node76 -->
<g id="edge20" class="edge">
<title>Node0&#45;&gt;Node76</title>
<path fill="none" stroke="#191970" d="M488.2371,-174.2734C387.2764,-168.062 208.0683,-154.0528 188.6005,-132 172.956,-114.2782 197.4081,-94.0269 219.4229,-80.6827"/>
<polygon fill="#191970" stroke="#191970" points="221.3541,-83.6095 228.2723,-75.5852 217.8601,-77.5439 221.3541,-83.6095"/>
</g>
<!-- Node85 -->
<g id="node13" class="node">
<title>Node85</title>
<g id="a_node13"><a xlink:href="format__flags_8h.html" target="_top" xlink:title="Flags to control mutt_expando_format() ">
<polygon fill="#ffffff" stroke="#ff0000" points="950.1005,-56.5 950.1005,-75.5 1037.1005,-75.5 1037.1005,-56.5 950.1005,-56.5"/>
<text text-anchor="middle" x="993.6005" y="-63.5" font-family="Helvetica,sans-Serif" font-size="10.00" fill="#000000">format_flags.h</text>
</a>
</g>
</g>
<!-- Node0&#45;&gt;Node85 -->
<g id="edge18" class="edge">
<title>Node0&#45;&gt;Node85</title>
<path fill="none" stroke="#191970" d="M624.6298,-176.3984C749.869,-172.7425 1006.6472,-161.6776 1033.6005,-132 1047.3313,-116.8814 1030.5293,-96.3675 1014.6866,-82.2435"/>
<polygon fill="#191970" stroke="#191970" points="1016.5656,-79.2512 1006.6561,-75.5024 1012.065,-84.6126 1016.5656,-79.2512"/>
</g>
<!-- Node86 -->
<g id="node14" class="node">
<title>Node86</title>
<g id="a_node14"><a xlink:href="mutt__globals_8h.html" target="_top" xlink:title="Hundreds of global variables to back the user variables. ">
<polygon fill="#ffffff" stroke="#ff0000" points="197.1005,-112.5 197.1005,-131.5 286.1005,-131.5 286.1005,-112.5 197.1005,-112.5"/>
<text text-anchor="middle" x="241.6005" y="-119.5" font-family="Helvetica,sans-Serif" font-size="10.00" fill="#000000">mutt_globals.h</text>
</a>
</g>
</g>
<!-- Node0&#45;&gt;Node86 -->
<g id="edge21" class="edge">
<title>Node0&#45;&gt;Node86</title>
<path fill="none" stroke="#191970" d="M502.808,-168.4369C445.2873,-158.211 354.5456,-142.0791 296.5748,-131.7732"/>
<polygon fill="#191970" stroke="#191970" points="296.9598,-128.2869 286.5015,-129.9824 295.7345,-135.1788 296.9598,-128.2869"/>
</g>
<!-- Node90 -->
<g id="node15" class="node">
<title>Node90</title>
<g id="a_node15"><a xlink:href="mutt__menu_8h.html" target="_top" xlink:title="GUI present the user with a selectable list. ">
<polygon fill="#ffffff" stroke="#000000" points="602.6005,-112.5 602.6005,-131.5 684.6005,-131.5 684.6005,-112.5 602.6005,-112.5"/>
<text text-anchor="middle" x="643.6005" y="-119.5" font-family="Helvetica,sans-Serif" font-size="10.00" fill="#000000">mutt_menu.h</text>
</a>
</g>
</g>
<!-- Node0&#45;&gt;Node90 -->
<g id="edge26" class="edge">
<title>Node0&#45;&gt;Node90</title>
<path fill="none" stroke="#191970" d="M571.7547,-168.2455C585.1032,-159.6534 604.7591,-147.0014 620.1387,-137.1018"/>
<polygon fill="#191970" stroke="#191970" points="622.1056,-139.9982 628.6199,-131.6427 618.3169,-134.1121 622.1056,-139.9982"/>
</g>
<!-- Node91 -->
<g id="node16" class="node">
<title>Node91</title>
<g id="a_node16"><a xlink:href="muttlib_8h.html" target="_top" xlink:title="Some miscellaneous functions. ">
<polygon fill="#ffffff" stroke="#ff0000" points="963.1005,-112.5 963.1005,-131.5 1024.1005,-131.5 1024.1005,-112.5 963.1005,-112.5"/>
<text text-anchor="middle" x="993.6005" y="-119.5" font-family="Helvetica,sans-Serif" font-size="10.00" fill="#000000">muttlib.h</text>
</a>
</g>
</g>
<!-- Node0&#45;&gt;Node91 -->
<g id="edge33" class="edge">
<title>Node0&#45;&gt;Node91</title>
<path fill="none" stroke="#191970" d="M624.884,-172.1139C703.3343,-164.8594 835.774,-151.1051 948.6005,-132 949.8877,-131.782 951.1935,-131.5513 952.5104,-131.3102"/>
<polygon fill="#191970" stroke="#191970" points="953.5626,-134.6702 962.6967,-129.3019 952.2086,-127.8024 953.5626,-134.6702"/>
</g>
<!-- Node93 -->
<g id="node17" class="node">
<title>Node93</title>
<g id="a_node17"><a xlink:href="opcodes_8h.html" target="_top" xlink:title="All user&#45;callable functions. ">
<polygon fill="#ffffff" stroke="#000000" points="16.6005,-56.5 16.6005,-75.5 82.6005,-75.5 82.6005,-56.5 16.6005,-56.5"/>
<text text-anchor="middle" x="49.6005" y="-63.5" font-family="Helvetica,sans-Serif" font-size="10.00" fill="#000000">opcodes.h</text>
</a>
</g>
</g>
<!-- Node0&#45;&gt;Node93 -->
<g id="edge38" class="edge">
<title>Node0&#45;&gt;Node93</title>
<path fill="none" stroke="#191970" d="M488.1897,-175.0028C364.9292,-169.0728 115.2681,-154.4426 82.6005,-132 66.9664,-121.2594 58.378,-100.8652 53.915,-85.5768"/>
<polygon fill="#191970" stroke="#191970" points="57.2214,-84.3789 51.3527,-75.558 50.4397,-86.1135 57.2214,-84.3789"/>
</g>
<!-- Node94 -->
<g id="node18" class="node">
<title>Node94</title>
<g id="a_node18"><a xlink:href="autocrypt_2lib_8h.html" target="_top" xlink:title="Autocrypt end&#45;to&#45;end encryption. ">
<polygon fill="#ffffff" stroke="#ff0000" points="819.1005,-112.5 819.1005,-131.5 906.1005,-131.5 906.1005,-112.5 819.1005,-112.5"/>
<text text-anchor="middle" x="862.6005" y="-119.5" font-family="Helvetica,sans-Serif" font-size="10.00" fill="#000000">autocrypt/lib.h</text>
</a>
</g>
</g>
<!-- Node0&#45;&gt;Node94 -->
<g id="edge41" class="edge">
<title>Node0&#45;&gt;Node94</title>
<path fill="none" stroke="#191970" d="M608.8561,-168.4369C664.6175,-158.2322 752.5175,-142.1459 808.8467,-131.8373"/>
<polygon fill="#191970" stroke="#191970" points="809.7757,-135.2255 818.9823,-129.9824 808.5156,-128.3398 809.7757,-135.2255"/>
</g>
<!-- Node5&#45;&gt;Node2 -->
<g id="edge6" class="edge">
<title>Node5&#45;&gt;Node2</title>
<path fill="none" stroke="#191970" d="M737.4777,-112.2455C741.2518,-104.6973 746.5926,-94.0158 751.1906,-84.8197"/>
<polygon fill="#191970" stroke="#191970" points="754.4374,-86.1522 755.7791,-75.6427 748.1764,-83.0217 754.4374,-86.1522"/>
</g>
<!-- Node74&#45;&gt;Node1 -->
<g id="edge12" class="edge">
<title>Node74&#45;&gt;Node1</title>
<path fill="none" stroke="#191970" d="M118.3868,-112.1465C122.0494,-99.2346 128.7101,-75.8935 134.6005,-56 137.2042,-47.2065 140.1514,-37.489 142.6678,-29.2598"/>
<polygon fill="#191970" stroke="#191970" points="146.0744,-30.089 145.6626,-19.5021 139.3825,-28.0351 146.0744,-30.089"/>
</g>
<!-- Node74&#45;&gt;Node3 -->
<g id="edge13" class="edge">
<title>Node74&#45;&gt;Node3</title>
<path fill="none" stroke="#191970" d="M125.1491,-112.2183C140.6338,-97.0735 172.901,-68.405 206.6005,-56 308.705,-18.4146 646.1008,-11.533 758.6739,-10.2783"/>
<polygon fill="#191970" stroke="#191970" points="758.8873,-13.7764 768.8508,-10.1736 758.8152,-6.7767 758.8873,-13.7764"/>
</g>
<!-- Node74&#45;&gt;Node76 -->
<g id="edge14" class="edge">
<title>Node74&#45;&gt;Node76</title>
<path fill="none" stroke="#191970" d="M138.2921,-112.3733C159.6716,-103.3032 191.9062,-89.6279 215.8367,-79.4755"/>
<polygon fill="#191970" stroke="#191970" points="217.3661,-82.6287 225.205,-75.5011 214.6322,-76.1846 217.3661,-82.6287"/>
</g>
<!-- Node76&#45;&gt;Node1 -->
<g id="edge15" class="edge">
<title>Node76&#45;&gt;Node1</title>
<path fill="none" stroke="#191970" d="M230.356,-56.2455C215.0244,-47.5731 192.3806,-34.7645 174.8089,-24.825"/>
<polygon fill="#191970" stroke="#191970" points="176.0746,-21.5198 165.6473,-19.6427 172.6281,-27.6126 176.0746,-21.5198"/>
</g>
<!-- Node76&#45;&gt;Node3 -->
<g id="edge16" class="edge">
<title>Node76&#45;&gt;Node3</title>
<path fill="none" stroke="#191970" d="M280.2393,-62.6646C376.3778,-52.8403 658.0686,-24.0544 759.0509,-13.735"/>
<polygon fill="#191970" stroke="#191970" points="759.4844,-17.209 769.0768,-12.7105 758.7727,-10.2453 759.4844,-17.209"/>
</g>
<!-- Node76&#45;&gt;Node7 -->
<g id="edge17" class="edge">
<title>Node76&#45;&gt;Node7</title>
<path fill="none" stroke="#191970" d="M258.2259,-56.2455C267.1478,-48.0549 280.0885,-36.1749 290.6197,-26.5069"/>
<polygon fill="#191970" stroke="#191970" points="293.0973,-28.9837 298.0968,-19.6427 288.3633,-23.8271 293.0973,-28.9837"/>
</g>
<!-- Node85&#45;&gt;Node3 -->
<g id="edge19" class="edge">
<title>Node85&#45;&gt;Node3</title>
<path fill="none" stroke="#191970" d="M959.5631,-56.3733C923.9876,-46.3115 868.3743,-30.5825 831.9566,-20.2825"/>
<polygon fill="#191970" stroke="#191970" points="832.8016,-16.8843 822.2265,-17.5306 830.8965,-23.6201 832.8016,-16.8843"/>
</g>
<!-- Node86&#45;&gt;Node1 -->
<g id="edge22" class="edge">
<title>Node86&#45;&gt;Node1</title>
<path fill="none" stroke="#191970" d="M233.6713,-112.4509C218.0228,-93.6054 182.9647,-51.3849 163.0835,-27.4419"/>
<polygon fill="#191970" stroke="#191970" points="165.5906,-24.9824 156.5095,-19.5249 160.2052,-29.4543 165.5906,-24.9824"/>
</g>
<!-- Node86&#45;&gt;Node2 -->
<g id="edge23" class="edge">
<title>Node86&#45;&gt;Node2</title>
<path fill="none" stroke="#191970" d="M286.2993,-117.177C385.6005,-106.4624 623.3513,-80.8092 719.3523,-70.4507"/>
<polygon fill="#191970" stroke="#191970" points="719.9696,-73.9045 729.5364,-69.3518 719.2186,-66.9449 719.9696,-73.9045"/>
</g>
<!-- Node86&#45;&gt;Node7 -->
<g id="edge24" class="edge">
<title>Node86&#45;&gt;Node7</title>
<path fill="none" stroke="#191970" d="M254.8689,-112.4932C265.7067,-104.0645 280.6474,-90.8187 289.6005,-76 298.1751,-61.8078 303.0405,-43.5591 305.6964,-29.8488"/>
<polygon fill="#191970" stroke="#191970" points="309.2151,-30.0334 307.4405,-19.5882 302.3141,-28.8603 309.2151,-30.0334"/>
</g>
<!-- Node86&#45;&gt;Node76 -->
<g id="edge25" class="edge">
<title>Node86&#45;&gt;Node76</title>
<path fill="none" stroke="#191970" d="M242.6456,-112.2455C243.4285,-104.9382 244.5261,-94.6944 245.4893,-85.7046"/>
<polygon fill="#191970" stroke="#191970" points="248.982,-85.9587 246.5673,-75.6427 242.0218,-85.2129 248.982,-85.9587"/>
</g>
<!-- Node90&#45;&gt;Node1 -->
<g id="edge27" class="edge">
<title>Node90&#45;&gt;Node1</title>
<path fill="none" stroke="#191970" d="M602.2484,-112.6436C507.7195,-91.2552 277.002,-39.0525 186.1999,-18.5073"/>
<polygon fill="#191970" stroke="#191970" points="186.8666,-15.0698 176.3407,-16.2766 185.3217,-21.8972 186.8666,-15.0698"/>
</g>
<!-- Node90&#45;&gt;Node2 -->
<g id="edge28" class="edge">
<title>Node90&#45;&gt;Node2</title>
<path fill="none" stroke="#191970" d="M663.7135,-112.3733C682.4108,-103.4241 710.4749,-89.9917 731.5939,-79.8835"/>
<polygon fill="#191970" stroke="#191970" points="733.2409,-82.9755 740.7499,-75.5011 730.2188,-76.6614 733.2409,-82.9755"/>
</g>
<!-- Node90&#45;&gt;Node3 -->
<g id="edge29" class="edge">
<title>Node90&#45;&gt;Node3</title>
<path fill="none" stroke="#191970" d="M653.6334,-112.4904C667.9357,-99.1504 695.2657,-74.4485 720.6005,-56 736.0981,-44.7148 754.4268,-33.4385 769.0856,-24.8749"/>
<polygon fill="#191970" stroke="#191970" points="771.206,-27.6926 778.122,-19.6663 767.7103,-21.6279 771.206,-27.6926"/>
</g>
<!-- Node90&#45;&gt;Node4 -->
<g id="edge30" class="edge">
<title>Node90&#45;&gt;Node4</title>
<path fill="none" stroke="#191970" d="M681.4198,-112.3733C722.7837,-101.8443 788.5277,-85.1094 828.6997,-74.8838"/>
<polygon fill="#191970" stroke="#191970" points="829.7486,-78.2285 838.5762,-72.3698 828.0218,-71.4448 829.7486,-78.2285"/>
</g>
<!-- Node90&#45;&gt;Node7 -->
<g id="edge31" class="edge">
<title>Node90&#45;&gt;Node7</title>
<path fill="none" stroke="#191970" d="M621.8733,-112.4485C590.4372,-98.8392 530.2603,-73.5731 477.6005,-56 434.8088,-41.72 384.8575,-28.5424 350.4158,-19.9853"/>
<polygon fill="#191970" stroke="#191970" points="351.2385,-16.5834 340.6916,-17.5897 349.564,-23.3802 351.2385,-16.5834"/>
</g>
<!-- Node90&#45;&gt;Node76 -->
<g id="edge32" class="edge">
<title>Node90&#45;&gt;Node76</title>
<path fill="none" stroke="#191970" d="M602.4388,-113.5465C599.4518,-113.001 596.4822,-112.4792 593.6005,-112 484.8808,-93.9208 356.0014,-78.3123 290.4821,-70.7892"/>
<polygon fill="#191970" stroke="#191970" points="290.4757,-67.2658 280.1432,-69.6089 289.6817,-74.2207 290.4757,-67.2658"/>
</g>
<!-- Node91&#45;&gt;Node2 -->
<g id="edge34" class="edge">
<title>Node91&#45;&gt;Node2</title>
<path fill="none" stroke="#191970" d="M962.6599,-114.5636C921.2289,-104.606 847.6224,-86.9151 801.6096,-75.8563"/>
<polygon fill="#191970" stroke="#191970" points="802.2101,-72.401 791.669,-73.4671 800.5742,-79.2072 802.2101,-72.401"/>
</g>
<!-- Node91&#45;&gt;Node3 -->
<g id="edge35" class="edge">
<title>Node91&#45;&gt;Node3</title>
<path fill="none" stroke="#191970" d="M981.0309,-112.2732C963.1272,-98.6751 928.968,-73.6686 897.6005,-56 875.637,-43.6285 849.7316,-31.9797 829.524,-23.4998"/>
<polygon fill="#191970" stroke="#191970" points="830.6823,-20.1913 820.1039,-19.6021 828.006,-26.6595 830.6823,-20.1913"/>
</g>
<!-- Node91&#45;&gt;Node4 -->
<g id="edge36" class="edge">
<title>Node91&#45;&gt;Node4</title>
<path fill="none" stroke="#191970" d="M971.2527,-112.3733C950.1971,-103.3032 918.4509,-89.6279 894.883,-79.4755"/>
<polygon fill="#191970" stroke="#191970" points="896.2255,-76.243 885.6567,-75.5011 893.4561,-82.6719 896.2255,-76.243"/>
</g>
<!-- Node91&#45;&gt;Node85 -->
<g id="edge37" class="edge">
<title>Node91&#45;&gt;Node85</title>
<path fill="none" stroke="#191970" d="M993.6005,-112.2455C993.6005,-104.9382 993.6005,-94.6944 993.6005,-85.7046"/>
<polygon fill="#191970" stroke="#191970" points="997.1006,-85.6426 993.6005,-75.6427 990.1006,-85.6427 997.1006,-85.6426"/>
</g>
<!-- Node93&#45;&gt;Node1 -->
<g id="edge39" class="edge">
<title>Node93&#45;&gt;Node1</title>
<path fill="none" stroke="#191970" d="M66.845,-56.2455C82.1766,-47.5731 104.8204,-34.7645 122.392,-24.825"/>
<polygon fill="#191970" stroke="#191970" points="124.5728,-27.6126 131.5536,-19.6427 121.1264,-21.5198 124.5728,-27.6126"/>
</g>
<!-- Node93&#45;&gt;Node7 -->
<g id="edge40" class="edge">
<title>Node93&#45;&gt;Node7</title>
<path fill="none" stroke="#191970" d="M82.6661,-58.8507C129.587,-48.7056 215.474,-30.1355 266.7683,-19.0448"/>
<polygon fill="#191970" stroke="#191970" points="267.5096,-22.4655 276.5441,-16.9311 266.0303,-15.6236 267.5096,-22.4655"/>
</g>
<!-- Node94&#45;&gt;Node2 -->
<g id="edge42" class="edge">
<title>Node94&#45;&gt;Node2</title>
<path fill="none" stroke="#191970" d="M844.8334,-112.2455C828.891,-103.4928 805.2746,-90.527 787.1016,-80.5496"/>
<polygon fill="#191970" stroke="#191970" points="788.6141,-77.3873 778.1639,-75.6427 785.2453,-83.5233 788.6141,-77.3873"/>
</g>
<!-- Node94&#45;&gt;Node4 -->
<g id="edge43" class="edge">
<title>Node94&#45;&gt;Node4</title>
<path fill="none" stroke="#191970" d="M862.7747,-112.2455C862.9051,-104.9382 863.0881,-94.6944 863.2486,-85.7046"/>
<polygon fill="#191970" stroke="#191970" points="866.7491,-85.7036 863.4283,-75.6427 859.7502,-85.5786 866.7491,-85.7036"/>
</g>
</g>
</svg>
