<?xml version="1.0" encoding="UTF-8" standalone="no"?>
<!DOCTYPE svg PUBLIC "-//W3C//DTD SVG 1.1//EN"
 "http://www.w3.org/Graphics/SVG/1.1/DTD/svg11.dtd">
<!-- Generated by graphviz version 2.40.1 (20161225.0304)
 -->
<!-- Title: ncrypt/dlggpgme.c Pages: 1 -->
<svg width="2048pt" height="196pt"
 viewBox="0.00 0.00 2047.71 196.00" xmlns="http://www.w3.org/2000/svg" xmlns:xlink="http://www.w3.org/1999/xlink">
<g id="graph0" class="graph" transform="scale(1 1) rotate(0) translate(4 192)">
<title>ncrypt/dlggpgme.c</title>
<polygon fill="#ffffff" stroke="transparent" points="-4,4 -4,-192 2043.7146,-192 2043.7146,4 -4,4"/>
<!-- Node0 -->
<g id="node1" class="node">
<title>Node0</title>
<polygon fill="#bfbfbf" stroke="#000000" points="982.7146,-168.5 982.7146,-187.5 1089.7146,-187.5 1089.7146,-168.5 982.7146,-168.5"/>
<text text-anchor="middle" x="1036.2146" y="-175.5" font-family="Helvetica,sans-Serif" font-size="10.00" fill="#000000">ncrypt/dlggpgme.c</text>
</g>
<!-- Node1 -->
<g id="node2" class="node">
<title>Node1</title>
<polygon fill="#ffffff" stroke="#bfbfbf" points="96.7146,-.5 96.7146,-19.5 151.7146,-19.5 151.7146,-.5 96.7146,-.5"/>
<text text-anchor="middle" x="124.2146" y="-7.5" font-family="Helvetica,sans-Serif" font-size="10.00" fill="#000000">config.h</text>
</g>
<!-- Node0&#45;&gt;Node1 -->
<g id="edge1" class="edge">
<title>Node0&#45;&gt;Node1</title>
<path fill="none" stroke="#191970" d="M982.5917,-176.8498C796.4112,-172.6517 184.681,-157.0762 100.2146,-132 52.8619,-117.942 28.8164,-118.8328 4.2146,-76 -16.0246,-40.7628 44.2444,-23.1586 86.546,-15.3488"/>
<polygon fill="#191970" stroke="#191970" points="87.3307,-18.7652 96.588,-13.6124 86.1379,-11.8675 87.3307,-18.7652"/>
</g>
<!-- Node2 -->
<g id="node3" class="node">
<title>Node2</title>
<polygon fill="#ffffff" stroke="#bfbfbf" points="1220.7146,-112.5 1220.7146,-131.5 1273.7146,-131.5 1273.7146,-112.5 1220.7146,-112.5"/>
<text text-anchor="middle" x="1247.2146" y="-119.5" font-family="Helvetica,sans-Serif" font-size="10.00" fill="#000000">ctype.h</text>
</g>
<!-- Node0&#45;&gt;Node2 -->
<g id="edge2" class="edge">
<title>Node0&#45;&gt;Node2</title>
<path fill="none" stroke="#191970" d="M1072.4868,-168.3733C1111.1008,-158.125 1171.8673,-141.9974 1210.6085,-131.7154"/>
<polygon fill="#191970" stroke="#191970" points="1211.6677,-135.0555 1220.4352,-129.1073 1209.872,-128.2897 1211.6677,-135.0555"/>
</g>
<!-- Node3 -->
<g id="node4" class="node">
<title>Node3</title>
<polygon fill="#ffffff" stroke="#bfbfbf" points="883.7146,-56.5 883.7146,-75.5 942.7146,-75.5 942.7146,-56.5 883.7146,-56.5"/>
<text text-anchor="middle" x="913.2146" y="-63.5" font-family="Helvetica,sans-Serif" font-size="10.00" fill="#000000">gpgme.h</text>
</g>
<!-- Node0&#45;&gt;Node3 -->
<g id="edge3" class="edge">
<title>Node0&#45;&gt;Node3</title>
<path fill="none" stroke="#191970" d="M995.4235,-168.4886C962.5973,-159.9113 920.3254,-146.4548 910.2146,-132 900.7844,-118.5183 902.8635,-99.4243 906.5151,-85.2396"/>
<polygon fill="#191970" stroke="#191970" points="909.9087,-86.1085 909.4494,-75.5236 903.2077,-84.0847 909.9087,-86.1085"/>
</g>
<!-- Node4 -->
<g id="node5" class="node">
<title>Node4</title>
<polygon fill="#ffffff" stroke="#bfbfbf" points="1291.7146,-112.5 1291.7146,-131.5 1356.7146,-131.5 1356.7146,-112.5 1291.7146,-112.5"/>
<text text-anchor="middle" x="1324.2146" y="-119.5" font-family="Helvetica,sans-Serif" font-size="10.00" fill="#000000">langinfo.h</text>
</g>
<!-- Node0&#45;&gt;Node4 -->
<g id="edge4" class="edge">
<title>Node0&#45;&gt;Node4</title>
<path fill="none" stroke="#191970" d="M1089.8667,-168.8869C1137.7615,-160.5532 1210.0468,-147.49 1281.5035,-132.2905"/>
<polygon fill="#191970" stroke="#191970" points="1282.5334,-135.6493 1291.5782,-130.1318 1281.0668,-128.8047 1282.5334,-135.6493"/>
</g>
<!-- Node5 -->
<g id="node6" class="node">
<title>Node5</title>
<polygon fill="#ffffff" stroke="#bfbfbf" points="1374.7146,-112.5 1374.7146,-131.5 1427.7146,-131.5 1427.7146,-112.5 1374.7146,-112.5"/>
<text text-anchor="middle" x="1401.2146" y="-119.5" font-family="Helvetica,sans-Serif" font-size="10.00" fill="#000000">limits.h</text>
</g>
<!-- Node0&#45;&gt;Node5 -->
<g id="edge5" class="edge">
<title>Node0&#45;&gt;Node5</title>
<path fill="none" stroke="#191970" d="M1089.7578,-171.4619C1165.0576,-162.1176 1299.492,-144.8527 1364.3883,-132.1148"/>
<polygon fill="#191970" stroke="#191970" points="1365.4637,-135.4673 1374.5579,-130.0317 1364.0589,-128.6097 1365.4637,-135.4673"/>
</g>
<!-- Node6 -->
<g id="node7" class="node">
<title>Node6</title>
<polygon fill="#ffffff" stroke="#bfbfbf" points="1445.7146,-112.5 1445.7146,-131.5 1500.7146,-131.5 1500.7146,-112.5 1445.7146,-112.5"/>
<text text-anchor="middle" x="1473.2146" y="-119.5" font-family="Helvetica,sans-Serif" font-size="10.00" fill="#000000">locale.h</text>
</g>
<!-- Node0&#45;&gt;Node6 -->
<g id="edge6" class="edge">
<title>Node0&#45;&gt;Node6</title>
<path fill="none" stroke="#191970" d="M1089.8112,-174.5344C1165.1392,-169.0737 1306.68,-156.6586 1435.3783,-132.1296"/>
<polygon fill="#191970" stroke="#191970" points="1436.2568,-135.5246 1445.4094,-130.1877 1434.9264,-128.6522 1436.2568,-135.5246"/>
</g>
<!-- Node7 -->
<g id="node8" class="node">
<title>Node7</title>
<polygon fill="#ffffff" stroke="#bfbfbf" points="717.2146,-.5 717.2146,-19.5 779.2146,-19.5 779.2146,-.5 717.2146,-.5"/>
<text text-anchor="middle" x="748.2146" y="-7.5" font-family="Helvetica,sans-Serif" font-size="10.00" fill="#000000">stdbool.h</text>
</g>
<!-- Node0&#45;&gt;Node7 -->
<g id="edge7" class="edge">
<title>Node0&#45;&gt;Node7</title>
<path fill="none" stroke="#191970" d="M982.6677,-169.828C897.4875,-155.5337 737.6985,-122.9734 708.2146,-76 697.6971,-59.2436 712.6193,-39.8601 727.1338,-26.4545"/>
<polygon fill="#191970" stroke="#191970" points="729.7053,-28.8585 734.9913,-19.6765 725.1331,-23.558 729.7053,-28.8585"/>
</g>
<!-- Node8 -->
<g id="node9" class="node">
<title>Node8</title>
<polygon fill="#ffffff" stroke="#bfbfbf" points="1007.2146,-.5 1007.2146,-19.5 1057.2146,-19.5 1057.2146,-.5 1007.2146,-.5"/>
<text text-anchor="middle" x="1032.2146" y="-7.5" font-family="Helvetica,sans-Serif" font-size="10.00" fill="#000000">stdio.h</text>
</g>
<!-- Node0&#45;&gt;Node8 -->
<g id="edge8" class="edge">
<title>Node0&#45;&gt;Node8</title>
<path fill="none" stroke="#191970" d="M1065.9709,-168.4862C1091.8102,-159.9074 1130.0294,-146.45 1162.2146,-132 1186.1605,-121.2491 1252.7546,-98.5348 1266.2146,-76 1270.7727,-68.3687 1271.8613,-62.8649 1266.2146,-56 1241.4649,-25.9114 1126.6384,-15.2015 1067.5523,-11.6391"/>
<polygon fill="#191970" stroke="#191970" points="1067.7259,-8.1434 1057.5439,-11.0721 1067.3299,-15.1322 1067.7259,-8.1434"/>
</g>
<!-- Node9 -->
<g id="node10" class="node">
<title>Node9</title>
<polygon fill="#ffffff" stroke="#bfbfbf" points="1518.7146,-112.5 1518.7146,-131.5 1571.7146,-131.5 1571.7146,-112.5 1518.7146,-112.5"/>
<text text-anchor="middle" x="1545.2146" y="-119.5" font-family="Helvetica,sans-Serif" font-size="10.00" fill="#000000">stdlib.h</text>
</g>
<!-- Node0&#45;&gt;Node9 -->
<g id="edge9" class="edge">
<title>Node0&#45;&gt;Node9</title>
<path fill="none" stroke="#191970" d="M1089.9769,-175.9607C1176.4467,-171.9876 1351.7924,-161.0742 1508.3008,-132.0846"/>
<polygon fill="#191970" stroke="#191970" points="1509.4017,-135.4389 1518.5814,-130.1488 1508.1064,-128.5598 1509.4017,-135.4389"/>
</g>
<!-- Node10 -->
<g id="node11" class="node">
<title>Node10</title>
<polygon fill="#ffffff" stroke="#bfbfbf" points="1589.7146,-112.5 1589.7146,-131.5 1642.7146,-131.5 1642.7146,-112.5 1589.7146,-112.5"/>
<text text-anchor="middle" x="1616.2146" y="-119.5" font-family="Helvetica,sans-Serif" font-size="10.00" fill="#000000">string.h</text>
</g>
<!-- Node0&#45;&gt;Node10 -->
<g id="edge10" class="edge">
<title>Node0&#45;&gt;Node10</title>
<path fill="none" stroke="#191970" d="M1090.0481,-176.9107C1186.6473,-174.2063 1395.7699,-164.9408 1579.7379,-131.9764"/>
<polygon fill="#191970" stroke="#191970" points="1580.3761,-135.4178 1589.588,-130.1841 1579.1229,-128.5309 1580.3761,-135.4178"/>
</g>
<!-- Node11 -->
<g id="node12" class="node">
<title>Node11</title>
<polygon fill="#ffffff" stroke="#bfbfbf" points="525.2146,-56.5 525.2146,-75.5 573.2146,-75.5 573.2146,-56.5 525.2146,-56.5"/>
<text text-anchor="middle" x="549.2146" y="-63.5" font-family="Helvetica,sans-Serif" font-size="10.00" fill="#000000">time.h</text>
</g>
<!-- Node0&#45;&gt;Node11 -->
<g id="edge11" class="edge">
<title>Node0&#45;&gt;Node11</title>
<path fill="none" stroke="#191970" d="M982.5409,-174.688C891.0998,-168.5367 709.1794,-153.946 649.2146,-132 618.0451,-120.5926 586.8817,-97.765 567.826,-82.1851"/>
<polygon fill="#191970" stroke="#191970" points="569.8802,-79.3402 559.9661,-75.6038 565.3863,-84.7072 569.8802,-79.3402"/>
</g>
<!-- Node12 -->
<g id="node13" class="node">
<title>Node12</title>
<polygon fill="#ffffff" stroke="#bfbfbf" points="1661.2146,-112.5 1661.2146,-131.5 1717.2146,-131.5 1717.2146,-112.5 1661.2146,-112.5"/>
<text text-anchor="middle" x="1689.2146" y="-119.5" font-family="Helvetica,sans-Serif" font-size="10.00" fill="#000000">unistd.h</text>
</g>
<!-- Node0&#45;&gt;Node12 -->
<g id="edge12" class="edge">
<title>Node0&#45;&gt;Node12</title>
<path fill="none" stroke="#191970" d="M1089.7391,-175.3087C1215.317,-168.7895 1526.9842,-151.3685 1651.0455,-131.8515"/>
<polygon fill="#191970" stroke="#191970" points="1651.7582,-135.2813 1661.0554,-130.2007 1650.6191,-128.3746 1651.7582,-135.2813"/>
</g>
<!-- Node13 -->
<g id="node14" class="node">
<title>Node13</title>
<g id="a_node14"><a xlink:href="ncrypt_2private_8h.html" target="_top" xlink:title="Shared constants/structs that are private to libconn. ">
<polygon fill="#ffffff" stroke="#000000" points="13.2146,-56.5 13.2146,-75.5 73.2146,-75.5 73.2146,-56.5 13.2146,-56.5"/>
<text text-anchor="middle" x="43.2146" y="-63.5" font-family="Helvetica,sans-Serif" font-size="10.00" fill="#000000">private.h</text>
</a>
</g>
</g>
<!-- Node0&#45;&gt;Node13 -->
<g id="edge13" class="edge">
<title>Node0&#45;&gt;Node13</title>
<path fill="none" stroke="#191970" d="M982.7096,-176.8314C802.668,-172.6788 225.6237,-157.5028 146.2146,-132 113.6281,-121.5347 81.2521,-98.0913 61.7346,-82.1563"/>
<polygon fill="#191970" stroke="#191970" points="63.8695,-79.379 53.9557,-75.6418 59.3752,-84.7456 63.8695,-79.379"/>
</g>
<!-- Node14 -->
<g id="node15" class="node">
<title>Node14</title>
<g id="a_node15"><a xlink:href="mutt_2lib_8h.html" target="_top" xlink:title="Convenience wrapper for the library headers. ">
<polygon fill="#ffffff" stroke="#ff0000" points="214.2146,-.5 214.2146,-19.5 278.2146,-19.5 278.2146,-.5 214.2146,-.5"/>
<text text-anchor="middle" x="246.2146" y="-7.5" font-family="Helvetica,sans-Serif" font-size="10.00" fill="#000000">mutt/lib.h</text>
</a>
</g>
</g>
<!-- Node0&#45;&gt;Node14 -->
<g id="edge15" class="edge">
<title>Node0&#45;&gt;Node14</title>
<path fill="none" stroke="#191970" d="M982.669,-176.3402C822.2366,-171.1401 352.5171,-154.1811 287.2146,-132 245.0789,-117.6879 225.1035,-115.2925 204.2146,-76 194.8546,-58.3938 210.0435,-39.2749 224.7028,-26.1688"/>
<polygon fill="#191970" stroke="#191970" points="227.1957,-28.6472 232.633,-19.554 222.7119,-23.2717 227.1957,-28.6472"/>
</g>
<!-- Node53 -->
<g id="node16" class="node">
<title>Node53</title>
<g id="a_node16"><a xlink:href="address_2lib_8h.html" target="_top" xlink:title="Email Address Handling. ">
<polygon fill="#ffffff" stroke="#ff0000" points="1735.7146,-112.5 1735.7146,-131.5 1814.7146,-131.5 1814.7146,-112.5 1735.7146,-112.5"/>
<text text-anchor="middle" x="1775.2146" y="-119.5" font-family="Helvetica,sans-Serif" font-size="10.00" fill="#000000">address/lib.h</text>
</a>
</g>
</g>
<!-- Node0&#45;&gt;Node53 -->
<g id="edge16" class="edge">
<title>Node0&#45;&gt;Node53</title>
<path fill="none" stroke="#191970" d="M1090.1419,-176.8748C1205.1097,-173.9425 1482.8974,-164.0213 1725.6386,-131.8867"/>
<polygon fill="#191970" stroke="#191970" points="1726.2652,-135.3341 1735.712,-130.5376 1725.3359,-128.3961 1726.2652,-135.3341"/>
</g>
<!-- Node57 -->
<g id="node17" class="node">
<title>Node57</title>
<g id="a_node17"><a xlink:href="config_2lib_8h.html" target="_top" xlink:title="Convenience wrapper for the config headers. ">
<polygon fill="#ffffff" stroke="#ff0000" points="591.2146,-56.5 591.2146,-75.5 661.2146,-75.5 661.2146,-56.5 591.2146,-56.5"/>
<text text-anchor="middle" x="626.2146" y="-63.5" font-family="Helvetica,sans-Serif" font-size="10.00" fill="#000000">config/lib.h</text>
</a>
</g>
</g>
<!-- Node0&#45;&gt;Node57 -->
<g id="edge17" class="edge">
<title>Node0&#45;&gt;Node57</title>
<path fill="none" stroke="#191970" d="M982.4356,-176.2639C894.871,-172.5993 726.1319,-161.7958 675.2146,-132 656.6235,-121.1209 642.9212,-100.127 634.8057,-84.7275"/>
<polygon fill="#191970" stroke="#191970" points="637.8524,-82.9926 630.2841,-75.5783 631.5769,-86.094 637.8524,-82.9926"/>
</g>
<!-- Node72 -->
<g id="node18" class="node">
<title>Node72</title>
<g id="a_node18"><a xlink:href="core_2lib_8h.html" target="_top" xlink:title="Convenience wrapper for the core headers. ">
<polygon fill="#ffffff" stroke="#ff0000" points="1832.2146,-112.5 1832.2146,-131.5 1894.2146,-131.5 1894.2146,-112.5 1832.2146,-112.5"/>
<text text-anchor="middle" x="1863.2146" y="-119.5" font-family="Helvetica,sans-Serif" font-size="10.00" fill="#000000">core/lib.h</text>
</a>
</g>
</g>
<!-- Node0&#45;&gt;Node72 -->
<g id="edge19" class="edge">
<title>Node0&#45;&gt;Node72</title>
<path fill="none" stroke="#191970" d="M1089.9017,-176.2155C1240.0912,-171.0138 1663.4059,-154.8661 1821.7772,-132.1118"/>
<polygon fill="#191970" stroke="#191970" points="1822.4508,-135.55 1831.82,-130.6036 1821.4111,-128.6277 1822.4508,-135.55"/>
</g>
<!-- Node77 -->
<g id="node19" class="node">
<title>Node77</title>
<g id="a_node19"><a xlink:href="gui_2lib_8h.html" target="_top" xlink:title="Convenience wrapper for the gui headers. ">
<polygon fill="#ffffff" stroke="#ff0000" points="1912.2146,-112.5 1912.2146,-131.5 1968.2146,-131.5 1968.2146,-112.5 1912.2146,-112.5"/>
<text text-anchor="middle" x="1940.2146" y="-119.5" font-family="Helvetica,sans-Serif" font-size="10.00" fill="#000000">gui/lib.h</text>
</a>
</g>
</g>
<!-- Node0&#45;&gt;Node77 -->
<g id="edge20" class="edge">
<title>Node0&#45;&gt;Node77</title>
<path fill="none" stroke="#191970" d="M1089.9742,-176.633C1250.6196,-172.3181 1726.2721,-157.8131 1901.9305,-131.831"/>
<polygon fill="#191970" stroke="#191970" points="1902.7179,-135.251 1912.066,-130.2647 1901.6487,-128.3331 1902.7179,-135.251"/>
</g>
<!-- Node92 -->
<g id="node20" class="node">
<title>Node92</title>
<g id="a_node20"><a xlink:href="ncrypt_2lib_8h.html" target="_top" xlink:title="API for encryption/signing of emails. ">
<polygon fill="#ffffff" stroke="#ff0000" points="1037.2146,-56.5 1037.2146,-75.5 1075.2146,-75.5 1075.2146,-56.5 1037.2146,-56.5"/>
<text text-anchor="middle" x="1056.2146" y="-63.5" font-family="Helvetica,sans-Serif" font-size="10.00" fill="#000000">lib.h</text>
</a>
</g>
</g>
<!-- Node0&#45;&gt;Node92 -->
<g id="edge21" class="edge">
<title>Node0&#45;&gt;Node92</title>
<path fill="none" stroke="#191970" d="M1037.9197,-168.4509C1041.1965,-150.1013 1048.4305,-109.5908 1052.7557,-85.3693"/>
<polygon fill="#191970" stroke="#191970" points="1056.2012,-85.9845 1054.5137,-75.5249 1049.3102,-84.7539 1056.2012,-85.9845"/>
</g>
<!-- Node93 -->
<g id="node21" class="node">
<title>Node93</title>
<g id="a_node21"><a xlink:href="menu_2lib_8h.html" target="_top" xlink:title="GUI present the user with a selectable list. ">
<polygon fill="#ffffff" stroke="#ff0000" points="330.2146,-112.5 330.2146,-131.5 398.2146,-131.5 398.2146,-112.5 330.2146,-112.5"/>
<text text-anchor="middle" x="364.2146" y="-119.5" font-family="Helvetica,sans-Serif" font-size="10.00" fill="#000000">menu/lib.h</text>
</a>
</g>
</g>
<!-- Node0&#45;&gt;Node93 -->
<g id="edge24" class="edge">
<title>Node0&#45;&gt;Node93</title>
<path fill="none" stroke="#191970" d="M982.7107,-174.3743C879.9829,-167.2808 648.0251,-150.6247 453.2146,-132 438.6422,-130.6068 422.7508,-128.8858 408.4816,-127.2666"/>
<polygon fill="#191970" stroke="#191970" points="408.754,-123.775 398.4201,-126.1117 407.9557,-130.7293 408.754,-123.775"/>
</g>
<!-- Node83 -->
<g id="node22" class="node">
<title>Node83</title>
<g id="a_node22"><a xlink:href="keymap_8h.html" target="_top" xlink:title="Manage keymappings. ">
<polygon fill="#ffffff" stroke="#ff0000" points="213.7146,-56.5 213.7146,-75.5 278.7146,-75.5 278.7146,-56.5 213.7146,-56.5"/>
<text text-anchor="middle" x="246.2146" y="-63.5" font-family="Helvetica,sans-Serif" font-size="10.00" fill="#000000">keymap.h</text>
</a>
</g>
</g>
<!-- Node0&#45;&gt;Node83 -->
<g id="edge41" class="edge">
<title>Node0&#45;&gt;Node83</title>
<path fill="none" stroke="#191970" d="M982.4923,-176.5406C826.6642,-172.0293 381.7208,-157.0804 321.2146,-132 296.3394,-121.689 274.0519,-99.6109 260.362,-83.8301"/>
<polygon fill="#191970" stroke="#191970" points="262.7748,-81.2588 253.6792,-75.8255 257.4013,-85.745 262.7748,-81.2588"/>
</g>
<!-- Node94 -->
<g id="node23" class="node">
<title>Node94</title>
<g id="a_node23"><a xlink:href="pager_2lib_8h.html" target="_top" xlink:title="GUI display a file/email/help in a viewport with paging. ">
<polygon fill="#ffffff" stroke="#ff0000" points="797.2146,-56.5 797.2146,-75.5 865.2146,-75.5 865.2146,-56.5 797.2146,-56.5"/>
<text text-anchor="middle" x="831.2146" y="-63.5" font-family="Helvetica,sans-Serif" font-size="10.00" fill="#000000">pager/lib.h</text>
</a>
</g>
</g>
<!-- Node0&#45;&gt;Node94 -->
<g id="edge32" class="edge">
<title>Node0&#45;&gt;Node94</title>
<path fill="none" stroke="#191970" d="M991.7758,-168.4529C963.8459,-161.1881 927.8184,-149.4274 899.2146,-132 878.0743,-119.1199 858.2931,-98.5797 845.5767,-83.8338"/>
<polygon fill="#191970" stroke="#191970" points="848.0539,-81.3406 838.949,-75.923 842.6882,-85.8361 848.0539,-81.3406"/>
</g>
<!-- Node95 -->
<g id="node24" class="node">
<title>Node95</title>
<g id="a_node24"><a xlink:href="crypt__gpgme_8h.html" target="_top" xlink:title="Wrapper for PGP/SMIME calls to GPGME. ">
<polygon fill="#ffffff" stroke="#000000" points="918.7146,-112.5 918.7146,-131.5 1007.7146,-131.5 1007.7146,-112.5 918.7146,-112.5"/>
<text text-anchor="middle" x="963.2146" y="-119.5" font-family="Helvetica,sans-Serif" font-size="10.00" fill="#000000">crypt_gpgme.h</text>
</a>
</g>
</g>
<!-- Node0&#45;&gt;Node95 -->
<g id="edge35" class="edge">
<title>Node0&#45;&gt;Node95</title>
<path fill="none" stroke="#191970" d="M1023.4989,-168.2455C1012.6125,-159.8943 996.7263,-147.7076 983.9946,-137.9408"/>
<polygon fill="#191970" stroke="#191970" points="985.8491,-134.9523 975.7845,-131.6427 981.5885,-140.5063 985.8491,-134.9523"/>
</g>
<!-- Node96 -->
<g id="node25" class="node">
<title>Node96</title>
<g id="a_node25"><a xlink:href="format__flags_8h.html" target="_top" xlink:title="Flags to control mutt_expando_format() ">
<polygon fill="#ffffff" stroke="#ff0000" points="1169.7146,-56.5 1169.7146,-75.5 1256.7146,-75.5 1256.7146,-56.5 1169.7146,-56.5"/>
<text text-anchor="middle" x="1213.2146" y="-63.5" font-family="Helvetica,sans-Serif" font-size="10.00" fill="#000000">format_flags.h</text>
</a>
</g>
</g>
<!-- Node0&#45;&gt;Node96 -->
<g id="edge40" class="edge">
<title>Node0&#45;&gt;Node96</title>
<path fill="none" stroke="#191970" d="M1061.5874,-168.4111C1082.1833,-160.1181 1111.5788,-147.1035 1135.2146,-132 1157.6641,-117.6544 1180.6189,-97.4251 1195.7594,-83.1532"/>
<polygon fill="#191970" stroke="#191970" points="1198.5163,-85.3588 1203.3139,-75.9124 1193.6726,-80.3051 1198.5163,-85.3588"/>
</g>
<!-- Node97 -->
<g id="node26" class="node">
<title>Node97</title>
<g id="a_node26"><a xlink:href="mutt__logging_8h.html" target="_top" xlink:title="NeoMutt Logging. ">
<polygon fill="#ffffff" stroke="#ff0000" points="462.2146,-112.5 462.2146,-131.5 552.2146,-131.5 552.2146,-112.5 462.2146,-112.5"/>
<text text-anchor="middle" x="507.2146" y="-119.5" font-family="Helvetica,sans-Serif" font-size="10.00" fill="#000000">mutt_logging.h</text>
</a>
</g>
</g>
<!-- Node0&#45;&gt;Node97 -->
<g id="edge42" class="edge">
<title>Node0&#45;&gt;Node97</title>
<path fill="none" stroke="#191970" d="M982.4286,-173.3479C896.6194,-165.7599 723.4986,-149.771 577.2146,-132 572.4389,-131.4198 567.4851,-130.783 562.5196,-130.1204"/>
<polygon fill="#191970" stroke="#191970" points="562.7455,-126.6188 552.364,-128.734 561.7987,-133.5545 562.7455,-126.6188"/>
</g>
<!-- Node98 -->
<g id="node27" class="node">
<title>Node98</title>
<g id="a_node27"><a xlink:href="muttlib_8h.html" target="_top" xlink:title="Some miscellaneous functions. ">
<polygon fill="#ffffff" stroke="#ff0000" points="1064.7146,-112.5 1064.7146,-131.5 1125.7146,-131.5 1125.7146,-112.5 1064.7146,-112.5"/>
<text text-anchor="middle" x="1095.2146" y="-119.5" font-family="Helvetica,sans-Serif" font-size="10.00" fill="#000000">muttlib.h</text>
</a>
</g>
</g>
<!-- Node0&#45;&gt;Node98 -->
<g id="edge46" class="edge">
<title>Node0&#45;&gt;Node98</title>
<path fill="none" stroke="#191970" d="M1046.4916,-168.2455C1055.0364,-160.1352 1067.3924,-148.4075 1077.5231,-138.7919"/>
<polygon fill="#191970" stroke="#191970" points="1080.2117,-141.0655 1085.0553,-131.6427 1075.3927,-135.9884 1080.2117,-141.0655"/>
</g>
<!-- Node101 -->
<g id="node28" class="node">
<title>Node101</title>
<g id="a_node28"><a xlink:href="opcodes_8h.html" target="_top" xlink:title="All user&#45;callable functions. ">
<polygon fill="#ffffff" stroke="#000000" points="91.2146,-56.5 91.2146,-75.5 157.2146,-75.5 157.2146,-56.5 91.2146,-56.5"/>
<text text-anchor="middle" x="124.2146" y="-63.5" font-family="Helvetica,sans-Serif" font-size="10.00" fill="#000000">opcodes.h</text>
</a>
</g>
</g>
<!-- Node0&#45;&gt;Node101 -->
<g id="edge50" class="edge">
<title>Node0&#45;&gt;Node101</title>
<path fill="none" stroke="#191970" d="M982.7027,-176.4335C799.5097,-170.9045 206.8394,-151.5803 171.2146,-132 152.6077,-121.7732 139.6036,-100.6624 132.0637,-85.0572"/>
<polygon fill="#191970" stroke="#191970" points="135.1819,-83.457 127.8939,-75.767 128.7957,-86.3234 135.1819,-83.457"/>
</g>
<!-- Node102 -->
<g id="node29" class="node">
<title>Node102</title>
<g id="a_node29"><a xlink:href="options_8h.html" target="_top" xlink:title="Handling of global boolean variables. ">
<polygon fill="#ffffff" stroke="#ff0000" points="717.2146,-56.5 717.2146,-75.5 779.2146,-75.5 779.2146,-56.5 717.2146,-56.5"/>
<text text-anchor="middle" x="748.2146" y="-63.5" font-family="Helvetica,sans-Serif" font-size="10.00" fill="#000000">options.h</text>
</a>
</g>
</g>
<!-- Node0&#45;&gt;Node102 -->
<g id="edge53" class="edge">
<title>Node0&#45;&gt;Node102</title>
<path fill="none" stroke="#191970" d="M991.2774,-168.4512C957.3573,-160.5529 910.0179,-148.0417 870.2146,-132 834.7219,-117.6956 796.2849,-95.7195 772.2342,-81.1073"/>
<polygon fill="#191970" stroke="#191970" points="773.8097,-77.9674 763.4575,-75.7127 770.1441,-83.931 773.8097,-77.9674"/>
</g>
<!-- Node39 -->
<g id="node30" class="node">
<title>Node39</title>
<polygon fill="#ffffff" stroke="#bfbfbf" points="1986.7146,-112.5 1986.7146,-131.5 2039.7146,-131.5 2039.7146,-112.5 1986.7146,-112.5"/>
<text text-anchor="middle" x="2013.2146" y="-119.5" font-family="Helvetica,sans-Serif" font-size="10.00" fill="#000000">libintl.h</text>
</g>
<!-- Node0&#45;&gt;Node39 -->
<g id="edge55" class="edge">
<title>Node0&#45;&gt;Node39</title>
<path fill="none" stroke="#191970" d="M1089.9371,-176.9419C1259.9169,-173.3518 1785.5121,-160.3336 1976.6878,-131.6501"/>
<polygon fill="#191970" stroke="#191970" points="1977.2858,-135.0992 1986.6245,-130.0954 1976.2037,-128.1834 1977.2858,-135.0992"/>
</g>
<!-- Node13&#45;&gt;Node1 -->
<g id="edge14" class="edge">
<title>Node13&#45;&gt;Node1</title>
<path fill="none" stroke="#191970" d="M57.3237,-56.2455C69.6354,-47.7337 87.7103,-35.2375 101.9684,-25.3801"/>
<polygon fill="#191970" stroke="#191970" points="104.0319,-28.2085 110.2671,-19.6427 100.0511,-22.4506 104.0319,-28.2085"/>
</g>
<!-- Node57&#45;&gt;Node7 -->
<g id="edge18" class="edge">
<title>Node57&#45;&gt;Node7</title>
<path fill="none" stroke="#191970" d="M647.1871,-56.3733C666.7713,-47.3838 696.2107,-33.8706 718.2655,-23.7471"/>
<polygon fill="#191970" stroke="#191970" points="719.8875,-26.8538 727.5157,-19.5011 716.9673,-20.4919 719.8875,-26.8538"/>
</g>
<!-- Node92&#45;&gt;Node7 -->
<g id="edge22" class="edge">
<title>Node92&#45;&gt;Node7</title>
<path fill="none" stroke="#191970" d="M1036.9478,-62.4969C987.8192,-53.5645 857.0046,-29.78 789.6171,-17.5277"/>
<polygon fill="#191970" stroke="#191970" points="789.8334,-14.0098 779.3686,-15.6644 788.5811,-20.8968 789.8334,-14.0098"/>
</g>
<!-- Node92&#45;&gt;Node8 -->
<g id="edge23" class="edge">
<title>Node92&#45;&gt;Node8</title>
<path fill="none" stroke="#191970" d="M1052.0341,-56.2455C1048.8335,-48.7776 1044.3186,-38.2427 1040.4062,-29.1137"/>
<polygon fill="#191970" stroke="#191970" points="1043.5034,-27.4554 1036.3471,-19.6427 1037.0694,-30.2129 1043.5034,-27.4554"/>
</g>
<!-- Node93&#45;&gt;Node1 -->
<g id="edge25" class="edge">
<title>Node93&#45;&gt;Node1</title>
<path fill="none" stroke="#191970" d="M355.7129,-112.4373C342.4625,-98.1072 315.4605,-71.1329 287.2146,-56 247.1664,-34.544 196.0808,-22.2307 161.8714,-15.8399"/>
<polygon fill="#191970" stroke="#191970" points="162.2875,-12.3589 151.8274,-14.0432 161.0548,-19.2495 162.2875,-12.3589"/>
</g>
<!-- Node93&#45;&gt;Node7 -->
<g id="edge26" class="edge">
<title>Node93&#45;&gt;Node7</title>
<path fill="none" stroke="#191970" d="M367.458,-112.4652C373.0364,-97.6589 385.9448,-69.4456 407.2146,-56 456.2643,-24.9934 627.2565,-14.5559 706.859,-11.3253"/>
<polygon fill="#191970" stroke="#191970" points="707.1518,-14.8167 717.009,-10.9325 706.8811,-7.8219 707.1518,-14.8167"/>
</g>
<!-- Node93&#45;&gt;Node8 -->
<g id="edge27" class="edge">
<title>Node93&#45;&gt;Node8</title>
<path fill="none" stroke="#191970" d="M381.3482,-112.3736C408.8354,-97.4416 464.9154,-69.0594 516.2146,-56 607.6673,-32.7185 895.9237,-16.6958 996.8741,-11.6757"/>
<polygon fill="#191970" stroke="#191970" points="997.3284,-15.1577 1007.1446,-11.171 996.9848,-8.1662 997.3284,-15.1577"/>
</g>
<!-- Node93&#45;&gt;Node14 -->
<g id="edge28" class="edge">
<title>Node93&#45;&gt;Node14</title>
<path fill="none" stroke="#191970" d="M359.5302,-112.0805C352.6345,-98.2534 338.6606,-72.9766 321.2146,-56 308.1036,-43.2418 290.8449,-32.3531 276.1891,-24.377"/>
<polygon fill="#191970" stroke="#191970" points="277.4861,-21.1053 267.0037,-19.5658 274.2381,-27.3062 277.4861,-21.1053"/>
</g>
<!-- Node93&#45;&gt;Node83 -->
<g id="edge29" class="edge">
<title>Node93&#45;&gt;Node83</title>
<path fill="none" stroke="#191970" d="M343.9296,-112.3733C325.0725,-103.4241 296.7686,-89.9917 275.4691,-79.8835"/>
<polygon fill="#191970" stroke="#191970" points="276.7697,-76.6266 266.2348,-75.5011 273.7684,-82.9506 276.7697,-76.6266"/>
</g>
<!-- Node83&#45;&gt;Node1 -->
<g id="edge30" class="edge">
<title>Node83&#45;&gt;Node1</title>
<path fill="none" stroke="#191970" d="M225.242,-56.3733C205.6578,-47.3838 176.2185,-33.8706 154.1636,-23.7471"/>
<polygon fill="#191970" stroke="#191970" points="155.4618,-20.4919 144.9134,-19.5011 152.5416,-26.8538 155.4618,-20.4919"/>
</g>
<!-- Node83&#45;&gt;Node14 -->
<g id="edge31" class="edge">
<title>Node83&#45;&gt;Node14</title>
<path fill="none" stroke="#191970" d="M246.2146,-56.2455C246.2146,-48.9382 246.2146,-38.6944 246.2146,-29.7046"/>
<polygon fill="#191970" stroke="#191970" points="249.7147,-29.6426 246.2146,-19.6427 242.7147,-29.6427 249.7147,-29.6426"/>
</g>
<!-- Node94&#45;&gt;Node7 -->
<g id="edge33" class="edge">
<title>Node94&#45;&gt;Node7</title>
<path fill="none" stroke="#191970" d="M816.7571,-56.2455C804.1413,-47.7337 785.6201,-35.2375 771.01,-25.3801"/>
<polygon fill="#191970" stroke="#191970" points="772.7536,-22.3343 762.5064,-19.6427 768.8385,-28.1371 772.7536,-22.3343"/>
</g>
<!-- Node94&#45;&gt;Node8 -->
<g id="edge34" class="edge">
<title>Node94&#45;&gt;Node8</title>
<path fill="none" stroke="#191970" d="M865.3115,-56.5004C902.0655,-46.2604 960.2662,-30.0453 997.3251,-19.7204"/>
<polygon fill="#191970" stroke="#191970" points="998.4878,-23.0299 1007.1816,-16.9744 996.6091,-16.2867 998.4878,-23.0299"/>
</g>
<!-- Node95&#45;&gt;Node3 -->
<g id="edge36" class="edge">
<title>Node95&#45;&gt;Node3</title>
<path fill="none" stroke="#191970" d="M954.5052,-112.2455C947.4073,-104.2958 937.2061,-92.8706 928.7195,-83.3656"/>
<polygon fill="#191970" stroke="#191970" points="931.0951,-80.771 921.8241,-75.6427 925.8735,-85.4331 931.0951,-80.771"/>
</g>
<!-- Node95&#45;&gt;Node7 -->
<g id="edge37" class="edge">
<title>Node95&#45;&gt;Node7</title>
<path fill="none" stroke="#191970" d="M964.6284,-112.4959C966.1688,-98.2424 966.7348,-71.3668 952.2146,-56 930.3575,-32.8687 842.7664,-19.846 789.7229,-13.9348"/>
<polygon fill="#191970" stroke="#191970" points="789.9215,-10.4361 779.6045,-12.8465 789.1729,-17.3959 789.9215,-10.4361"/>
</g>
<!-- Node95&#45;&gt;Node8 -->
<g id="edge38" class="edge">
<title>Node95&#45;&gt;Node8</title>
<path fill="none" stroke="#191970" d="M969.0975,-112.4509C980.6058,-93.7707 1006.2633,-52.1238 1021.0784,-28.0761"/>
<polygon fill="#191970" stroke="#191970" points="1024.0812,-29.8747 1026.3465,-19.5249 1018.1214,-26.203 1024.0812,-29.8747"/>
</g>
<!-- Node95&#45;&gt;Node92 -->
<g id="edge39" class="edge">
<title>Node95&#45;&gt;Node92</title>
<path fill="none" stroke="#191970" d="M979.4139,-112.2455C993.8163,-103.5731 1015.0878,-90.7645 1031.5945,-80.825"/>
<polygon fill="#191970" stroke="#191970" points="1033.4395,-83.7996 1040.2008,-75.6427 1029.8285,-77.8028 1033.4395,-83.7996"/>
</g>
<!-- Node97&#45;&gt;Node7 -->
<g id="edge43" class="edge">
<title>Node97&#45;&gt;Node7</title>
<path fill="none" stroke="#191970" d="M505.4192,-112.4852C503.3245,-98.2176 501.7867,-71.3238 516.2146,-56 541.7061,-28.9255 647.2616,-17.1356 706.8267,-12.5551"/>
<polygon fill="#191970" stroke="#191970" points="707.3142,-16.0288 717.0312,-11.8062 706.8018,-9.0476 707.3142,-16.0288"/>
</g>
<!-- Node97&#45;&gt;Node11 -->
<g id="edge44" class="edge">
<title>Node97&#45;&gt;Node11</title>
<path fill="none" stroke="#191970" d="M514.5304,-112.2455C520.4325,-104.3761 528.8888,-93.101 535.9739,-83.6542"/>
<polygon fill="#191970" stroke="#191970" points="538.7825,-85.7427 541.9826,-75.6427 533.1825,-81.5427 538.7825,-85.7427"/>
</g>
<!-- Node97&#45;&gt;Node14 -->
<g id="edge45" class="edge">
<title>Node97&#45;&gt;Node14</title>
<path fill="none" stroke="#191970" d="M484.9618,-112.4509C438.5409,-92.5308 331.2592,-46.4942 277.7498,-23.5323"/>
<polygon fill="#191970" stroke="#191970" points="278.9808,-20.252 268.4109,-19.5249 276.2204,-26.6848 278.9808,-20.252"/>
</g>
<!-- Node98&#45;&gt;Node7 -->
<g id="edge47" class="edge">
<title>Node98&#45;&gt;Node7</title>
<path fill="none" stroke="#191970" d="M1096.7901,-112.3364C1098.5418,-97.8746 1099.3799,-70.7305 1084.2146,-56 1063.3604,-35.7438 874.678,-19.3622 789.5505,-12.9342"/>
<polygon fill="#191970" stroke="#191970" points="789.6913,-9.435 779.4589,-12.1822 789.1711,-16.4157 789.6913,-9.435"/>
</g>
<!-- Node98&#45;&gt;Node8 -->
<g id="edge48" class="edge">
<title>Node98&#45;&gt;Node8</title>
<path fill="none" stroke="#191970" d="M1103.162,-112.4961C1113.2846,-99.1628 1128.2196,-74.4689 1117.2146,-56 1106.2937,-37.6724 1085.2529,-26.203 1066.8387,-19.3003"/>
<polygon fill="#191970" stroke="#191970" points="1067.8335,-15.9414 1057.2388,-16.0078 1065.5625,-22.5628 1067.8335,-15.9414"/>
</g>
<!-- Node98&#45;&gt;Node96 -->
<g id="edge49" class="edge">
<title>Node98&#45;&gt;Node96</title>
<path fill="none" stroke="#191970" d="M1115.4995,-112.3733C1134.3566,-103.4241 1162.6605,-89.9917 1183.96,-79.8835"/>
<polygon fill="#191970" stroke="#191970" points="1185.6607,-82.9506 1193.1943,-75.5011 1182.6594,-76.6266 1185.6607,-82.9506"/>
</g>
<!-- Node101&#45;&gt;Node1 -->
<g id="edge51" class="edge">
<title>Node101&#45;&gt;Node1</title>
<path fill="none" stroke="#191970" d="M124.2146,-56.2455C124.2146,-48.9382 124.2146,-38.6944 124.2146,-29.7046"/>
<polygon fill="#191970" stroke="#191970" points="127.7147,-29.6426 124.2146,-19.6427 120.7147,-29.6427 127.7147,-29.6426"/>
</g>
<!-- Node101&#45;&gt;Node14 -->
<g id="edge52" class="edge">
<title>Node101&#45;&gt;Node14</title>
<path fill="none" stroke="#191970" d="M145.1871,-56.3733C164.7713,-47.3838 194.2107,-33.8706 216.2655,-23.7471"/>
<polygon fill="#191970" stroke="#191970" points="217.8875,-26.8538 225.5157,-19.5011 214.9673,-20.4919 217.8875,-26.8538"/>
</g>
<!-- Node102&#45;&gt;Node7 -->
<g id="edge54" class="edge">
<title>Node102&#45;&gt;Node7</title>
<path fill="none" stroke="#191970" d="M748.2146,-56.2455C748.2146,-48.9382 748.2146,-38.6944 748.2146,-29.7046"/>
<polygon fill="#191970" stroke="#191970" points="751.7147,-29.6426 748.2146,-19.6427 744.7147,-29.6427 751.7147,-29.6426"/>
</g>
</g>
</svg>
