<?xml version="1.0" encoding="UTF-8" standalone="no"?>
<!DOCTYPE svg PUBLIC "-//W3C//DTD SVG 1.1//EN"
 "http://www.w3.org/Graphics/SVG/1.1/DTD/svg11.dtd">
<!-- Generated by graphviz version 2.40.1 (20161225.0304)
 -->
<!-- Title: query_make_entry Pages: 1 -->
<svg width="548pt" height="77pt"
 viewBox="0.00 0.00 548.00 76.77" xmlns="http://www.w3.org/2000/svg" xmlns:xlink="http://www.w3.org/1999/xlink">
<g id="graph0" class="graph" transform="scale(1 1) rotate(0) translate(4 72.7749)">
<title>query_make_entry</title>
<polygon fill="#ffffff" stroke="transparent" points="-4,4 -4,-72.7749 544,-72.7749 544,4 -4,4"/>
<!-- Node1816 -->
<g id="node1" class="node">
<title>Node1816</title>
<polygon fill="#bfbfbf" stroke="#000000" points="0,-38.5 0,-57.5 108,-57.5 108,-38.5 0,-38.5"/>
<text text-anchor="middle" x="54" y="-45.5" font-family="Helvetica,sans-Serif" font-size="10.00" fill="#000000">query_make_entry</text>
</g>
<!-- Node1817 -->
<g id="node2" class="node">
<title>Node1817</title>
<g id="a_node2"><a xlink:href="helpers_8c.html#ac477c591155aa4ae0452bbabc0affffe" target="_top" xlink:title="Get a string config item by name. ">
<polygon fill="#ffffff" stroke="#ff0000" points="442,-48.5 442,-67.5 540,-67.5 540,-48.5 442,-48.5"/>
<text text-anchor="middle" x="491" y="-55.5" font-family="Helvetica,sans-Serif" font-size="10.00" fill="#000000">cs_subset_string</text>
</a>
</g>
</g>
<!-- Node1816&#45;&gt;Node1817 -->
<g id="edge1" class="edge">
<title>Node1816&#45;&gt;Node1817</title>
<path fill="none" stroke="#191970" d="M108.2691,-54.5219C177.4042,-62.0039 300.5767,-72.5657 406,-67 414.3078,-66.5614 423.0533,-65.8833 431.6465,-65.0916"/>
<polygon fill="#191970" stroke="#191970" points="432.0159,-68.5722 441.6287,-64.1176 431.336,-61.6053 432.0159,-68.5722"/>
</g>
<!-- Node1840 -->
<g id="node3" class="node">
<title>Node1840</title>
<g id="a_node3"><a xlink:href="muttlib_8c.html#a8972094c1e995739c8b072c8be3ce453" target="_top" xlink:title="Expand expandos (x) in a string. ">
<polygon fill="#ffffff" stroke="#ff0000" points="281,-20.5 281,-39.5 406,-39.5 406,-20.5 281,-20.5"/>
<text text-anchor="middle" x="343.5" y="-27.5" font-family="Helvetica,sans-Serif" font-size="10.00" fill="#000000">mutt_expando_format</text>
</a>
</g>
</g>
<!-- Node1816&#45;&gt;Node1840 -->
<g id="edge2" class="edge">
<title>Node1816&#45;&gt;Node1840</title>
<path fill="none" stroke="#191970" d="M108.1131,-44.6355C153.9689,-41.7843 220.1312,-37.6706 270.6407,-34.5301"/>
<polygon fill="#191970" stroke="#191970" points="271.0819,-38.0095 280.8454,-33.8956 270.6475,-31.023 271.0819,-38.0095"/>
</g>
<!-- Node1881 -->
<g id="node4" class="node">
<title>Node1881</title>
<g id="a_node4"><a xlink:href="dlgquery_8c.html#a170d2276b3e0f9c059498cff0c355d3d" target="_top" xlink:title="Format a string for the query menu &#45; Implements format_t. ">
<polygon fill="#ffffff" stroke="#ff0000" points="144,-.5 144,-19.5 245,-19.5 245,-.5 144,-.5"/>
<text text-anchor="middle" x="194.5" y="-7.5" font-family="Helvetica,sans-Serif" font-size="10.00" fill="#000000">query_format_str</text>
</a>
</g>
</g>
<!-- Node1816&#45;&gt;Node1881 -->
<g id="edge5" class="edge">
<title>Node1816&#45;&gt;Node1881</title>
<path fill="none" stroke="#191970" d="M89.4541,-38.411C107.5913,-33.5056 129.8684,-27.4804 149.2334,-22.2429"/>
<polygon fill="#191970" stroke="#191970" points="150.3179,-25.5754 159.0573,-19.5859 148.4903,-18.8182 150.3179,-25.5754"/>
</g>
<!-- Node1840&#45;&gt;Node1817 -->
<g id="edge3" class="edge">
<title>Node1840&#45;&gt;Node1817</title>
<path fill="none" stroke="#191970" d="M393.8486,-39.5577C406.0971,-41.8828 419.3064,-44.3904 431.9191,-46.7846"/>
<polygon fill="#191970" stroke="#191970" points="431.3993,-50.2484 441.8766,-48.6749 432.7049,-43.3712 431.3993,-50.2484"/>
</g>
<!-- Node1840&#45;&gt;Node1840 -->
<g id="edge4" class="edge">
<title>Node1840&#45;&gt;Node1840</title>
<path fill="none" stroke="#191970" d="M320.9972,-39.7571C310.0498,-48.5653 317.5508,-58 343.5,-58 360.5292,-58 369.6133,-53.9368 370.7525,-48.6539"/>
<polygon fill="#191970" stroke="#191970" points="373.7999,-46.9303 366.0028,-39.7571 367.6248,-50.227 373.7999,-46.9303"/>
</g>
<!-- Node1881&#45;&gt;Node1840 -->
<g id="edge6" class="edge">
<title>Node1881&#45;&gt;Node1840</title>
<path fill="none" stroke="#191970" d="M245.3606,-16.8269C253.5408,-17.9249 262.1452,-19.0799 270.7193,-20.2308"/>
<polygon fill="#191970" stroke="#191970" points="270.3665,-23.7147 280.7433,-21.5763 271.2978,-16.777 270.3665,-23.7147"/>
</g>
</g>
</svg>
