<?xml version="1.0" encoding="UTF-8" standalone="no"?>
<!DOCTYPE svg PUBLIC "-//W3C//DTD SVG 1.1//EN"
 "http://www.w3.org/Graphics/SVG/1.1/DTD/svg11.dtd">
<!-- Generated by graphviz version 2.40.1 (20161225.0304)
 -->
<!-- Title: query_window_observer Pages: 1 -->
<svg width="315pt" height="66pt"
 viewBox="0.00 0.00 315.00 66.00" xmlns="http://www.w3.org/2000/svg" xmlns:xlink="http://www.w3.org/1999/xlink">
<g id="graph0" class="graph" transform="scale(1 1) rotate(0) translate(4 62)">
<title>query_window_observer</title>
<polygon fill="#ffffff" stroke="transparent" points="-4,4 -4,-62 311,-62 311,4 -4,4"/>
<!-- Node3702 -->
<g id="node1" class="node">
<title>Node3702</title>
<polygon fill="#bfbfbf" stroke="#000000" points="0,-19.5 0,-38.5 135,-38.5 135,-19.5 0,-19.5"/>
<text text-anchor="middle" x="67.5" y="-26.5" font-family="Helvetica,sans-Serif" font-size="10.00" fill="#000000">query_window_observer</text>
</g>
<!-- Node3703 -->
<g id="node2" class="node">
<title>Node3703</title>
<g id="a_node2"><a xlink:href="mutt_2notify_8c.html#a244545a719099431dda975083aef827e" target="_top" xlink:title="Remove an observer from an object. ">
<polygon fill="#ffffff" stroke="#000000" points="171,-38.5 171,-57.5 307,-57.5 307,-38.5 171,-38.5"/>
<text text-anchor="middle" x="239" y="-45.5" font-family="Helvetica,sans-Serif" font-size="10.00" fill="#000000">notify_observer_remove</text>
</a>
</g>
</g>
<!-- Node3702&#45;&gt;Node3703 -->
<g id="edge1" class="edge">
<title>Node3702&#45;&gt;Node3703</title>
<path fill="none" stroke="#191970" d="M135.2813,-36.5093C143.6932,-37.4412 152.3465,-38.3999 160.8977,-39.3473"/>
<polygon fill="#191970" stroke="#191970" points="160.5438,-42.8294 170.8684,-40.4519 161.3146,-35.872 160.5438,-42.8294"/>
</g>
<!-- Node3704 -->
<g id="node3" class="node">
<title>Node3704</title>
<g id="a_node3"><a xlink:href="gui_8c.html#a8030c7a80380e064f9b2e1e076d0d83f" target="_top" xlink:title="Notification that a Config Variable has changed &#45; Implements observer_t. ">
<polygon fill="#ffffff" stroke="#ff0000" points="178,-.5 178,-19.5 300,-19.5 300,-.5 178,-.5"/>
<text text-anchor="middle" x="239" y="-7.5" font-family="Helvetica,sans-Serif" font-size="10.00" fill="#000000">alias_config_observer</text>
</a>
</g>
</g>
<!-- Node3702&#45;&gt;Node3704 -->
<g id="edge2" class="edge">
<title>Node3702&#45;&gt;Node3704</title>
<path fill="none" stroke="#191970" d="M135.2813,-21.4907C145.9241,-20.3116 156.9536,-19.0897 167.6734,-17.9021"/>
<polygon fill="#191970" stroke="#191970" points="168.2798,-21.3564 177.8336,-16.7765 167.5089,-14.399 168.2798,-21.3564"/>
</g>
</g>
</svg>
