<?xml version="1.0" encoding="UTF-8" standalone="no"?>
<!DOCTYPE svg PUBLIC "-//W3C//DTD SVG 1.1//EN"
 "http://www.w3.org/Graphics/SVG/1.1/DTD/svg11.dtd">
<!-- Generated by graphviz version 2.40.1 (20161225.0304)
 -->
<!-- Title: alias_to_addrlist Pages: 1 -->
<svg width="349pt" height="47pt"
 viewBox="0.00 0.00 349.00 47.00" xmlns="http://www.w3.org/2000/svg" xmlns:xlink="http://www.w3.org/1999/xlink">
<g id="graph0" class="graph" transform="scale(1 1) rotate(0) translate(4 43)">
<title>alias_to_addrlist</title>
<polygon fill="#ffffff" stroke="transparent" points="-4,4 -4,-43 345,-43 345,4 -4,4"/>
<!-- Node35 -->
<g id="node1" class="node">
<title>Node35</title>
<polygon fill="#bfbfbf" stroke="#000000" points="0,-.5 0,-19.5 97,-19.5 97,-.5 0,-.5"/>
<text text-anchor="middle" x="48.5" y="-7.5" font-family="Helvetica,sans-Serif" font-size="10.00" fill="#000000">alias_to_addrlist</text>
</g>
<!-- Node36 -->
<g id="node2" class="node">
<title>Node36</title>
<g id="a_node2"><a xlink:href="dlgquery_8c.html#a189ed6cfb3f5ed431822cdb6c2d1999e" target="_top" xlink:title="Get the user to enter an Address Query. ">
<polygon fill="#ffffff" stroke="#ff0000" points="133,-19.5 133,-38.5 210,-38.5 210,-19.5 133,-19.5"/>
<text text-anchor="middle" x="171.5" y="-26.5" font-family="Helvetica,sans-Serif" font-size="10.00" fill="#000000">query_menu</text>
</a>
</g>
</g>
<!-- Node35&#45;&gt;Node36 -->
<g id="edge1" class="edge">
<title>Node35&#45;&gt;Node36</title>
<path fill="none" stroke="#191970" d="M107.2011,-19.0676C115.8589,-20.405 124.5908,-21.7539 132.7087,-23.0078"/>
<polygon fill="#191970" stroke="#191970" points="107.53,-15.577 97.1129,-17.5093 106.4613,-22.495 107.53,-15.577"/>
</g>
<!-- Node37 -->
<g id="node3" class="node">
<title>Node37</title>
<g id="a_node3"><a xlink:href="alias_2lib_8h.html#a20b5ce2715c14dede64ce7d81ffc4576" target="_top" xlink:title="Perform auto&#45;complete using an Address Query. ">
<polygon fill="#ffffff" stroke="#ff0000" points="246,-.5 246,-19.5 341,-19.5 341,-.5 246,-.5"/>
<text text-anchor="middle" x="293.5" y="-7.5" font-family="Helvetica,sans-Serif" font-size="10.00" fill="#000000">query_complete</text>
</a>
</g>
</g>
<!-- Node35&#45;&gt;Node37 -->
<g id="edge3" class="edge">
<title>Node35&#45;&gt;Node37</title>
<path fill="none" stroke="#191970" d="M107.3721,-10C149.7359,-10 206.1533,-10 245.7294,-10"/>
<polygon fill="#191970" stroke="#191970" points="107.1971,-6.5001 97.197,-10 107.197,-13.5001 107.1971,-6.5001"/>
</g>
<!-- Node36&#45;&gt;Node37 -->
<g id="edge2" class="edge">
<title>Node36&#45;&gt;Node37</title>
<path fill="none" stroke="#191970" d="M220.162,-21.4215C228.5802,-20.1105 237.3255,-18.7485 245.72,-17.4411"/>
<polygon fill="#191970" stroke="#191970" points="219.4438,-17.9911 210.1016,-22.9883 220.5211,-24.9077 219.4438,-17.9911"/>
</g>
</g>
</svg>
