<?xml version="1.0" encoding="UTF-8" standalone="no"?>
<!DOCTYPE svg PUBLIC "-//W3C//DTD SVG 1.1//EN"
 "http://www.w3.org/Graphics/SVG/1.1/DTD/svg11.dtd">
<!-- Generated by graphviz version 2.40.1 (20161225.0304)
 -->
<!-- Title: ev_message Pages: 1 -->
<svg width="565pt" height="663pt"
 viewBox="0.00 0.00 565.00 663.05" xmlns="http://www.w3.org/2000/svg" xmlns:xlink="http://www.w3.org/1999/xlink">
<g id="graph0" class="graph" transform="scale(1 1) rotate(0) translate(4 659.0483)">
<title>ev_message</title>
<polygon fill="#ffffff" stroke="transparent" points="-4,4 -4,-659.0483 561,-659.0483 561,4 -4,4"/>
<!-- Node0 -->
<g id="node1" class="node">
<title>Node0</title>
<polygon fill="#bfbfbf" stroke="#000000" points="0,-316.5 0,-335.5 78,-335.5 78,-316.5 0,-316.5"/>
<text text-anchor="middle" x="39" y="-323.5" font-family="Helvetica,sans-Serif" font-size="10.00" fill="#000000">ev_message</text>
</g>
<!-- Node1 -->
<g id="node2" class="node">
<title>Node1</title>
<g id="a_node2"><a xlink:href="pool_8c.html#a2129d5ea0085753afdd37cf62161845d" target="_top" xlink:title="Get a Buffer from the pool. ">
<polygon fill="#ffffff" stroke="#ff0000" points="301,-600.5 301,-619.5 422,-619.5 422,-600.5 301,-600.5"/>
<text text-anchor="middle" x="361.5" y="-607.5" font-family="Helvetica,sans-Serif" font-size="10.00" fill="#000000">mutt_buffer_pool_get</text>
</a>
</g>
</g>
<!-- Node0&#45;&gt;Node1 -->
<g id="edge1" class="edge">
<title>Node0&#45;&gt;Node1</title>
<path fill="none" stroke="#191970" d="M39.8329,-335.6364C44.1507,-383.0909 65.6702,-591.1745 114,-629 177.9499,-679.0506 281.8552,-645.1238 332.2455,-623.73"/>
<polygon fill="#191970" stroke="#191970" points="333.8224,-626.8604 341.5823,-619.6469 331.0177,-620.4469 333.8224,-626.8604"/>
</g>
<!-- Node9 -->
<g id="node3" class="node">
<title>Node9</title>
<g id="a_node3"><a xlink:href="mx_8c.html#ab437d031227dc741c63cf2791c6b4562" target="_top" xlink:title="Get a Mailbox for a path. ">
<polygon fill="#ffffff" stroke="#ff0000" points="311,-496.5 311,-515.5 412,-515.5 412,-496.5 311,-496.5"/>
<text text-anchor="middle" x="361.5" y="-503.5" font-family="Helvetica,sans-Serif" font-size="10.00" fill="#000000">mx_path_resolve</text>
</a>
</g>
</g>
<!-- Node0&#45;&gt;Node9 -->
<g id="edge2" class="edge">
<title>Node0&#45;&gt;Node9</title>
<path fill="none" stroke="#191970" d="M39.3233,-335.7098C40.9871,-368.0341 51.2094,-472.3631 114,-515 178.6956,-558.9304 276.388,-535.8975 327.5378,-518.876"/>
<polygon fill="#191970" stroke="#191970" points="328.809,-522.14 337.1236,-515.5735 326.5289,-515.5218 328.809,-522.14"/>
</g>
<!-- Node743 -->
<g id="node4" class="node">
<title>Node743</title>
<g id="a_node4"><a xlink:href="mx_8c.html#a72efa68c4041905af8d9b38948580a56" target="_top" xlink:title="Open a mailbox and parse it. ">
<polygon fill="#ffffff" stroke="#ff0000" points="314,-444.5 314,-463.5 409,-463.5 409,-444.5 314,-444.5"/>
<text text-anchor="middle" x="361.5" y="-451.5" font-family="Helvetica,sans-Serif" font-size="10.00" fill="#000000">mx_mbox_open</text>
</a>
</g>
</g>
<!-- Node0&#45;&gt;Node743 -->
<g id="edge3" class="edge">
<title>Node0&#45;&gt;Node743</title>
<path fill="none" stroke="#191970" d="M47.7186,-335.6396C60.7819,-349.4977 86.8181,-374.9267 114,-389 174.657,-420.4049 251.7286,-437.5329 303.6189,-446.2051"/>
<polygon fill="#191970" stroke="#191970" points="303.2181,-449.6857 313.6489,-447.8285 304.3366,-442.7756 303.2181,-449.6857"/>
</g>
<!-- Node52 -->
<g id="node5" class="node">
<title>Node52</title>
<g id="a_node5"><a xlink:href="pool_8c.html#a08b48e2ac8849341888ee7429cc5093c" target="_top" xlink:title="Free a Buffer from the pool. ">
<polygon fill="#ffffff" stroke="#ff0000" points="291,-562.5 291,-581.5 432,-581.5 432,-562.5 291,-562.5"/>
<text text-anchor="middle" x="361.5" y="-569.5" font-family="Helvetica,sans-Serif" font-size="10.00" fill="#000000">mutt_buffer_pool_release</text>
</a>
</g>
</g>
<!-- Node0&#45;&gt;Node52 -->
<g id="edge4" class="edge">
<title>Node0&#45;&gt;Node52</title>
<path fill="none" stroke="#191970" d="M40.9714,-335.6758C48.9585,-373.8948 80.1067,-513.5985 114,-541 161.2968,-579.2378 231.1923,-584.8498 284.654,-582.1255"/>
<polygon fill="#191970" stroke="#191970" points="285.0099,-585.6103 294.7755,-581.5014 284.579,-578.6236 285.0099,-585.6103"/>
</g>
<!-- Node823 -->
<g id="node6" class="node">
<title>Node823</title>
<g id="a_node6"><a xlink:href="mailbox_8c.html#aba915aae97477d1ecc6428a06f92dac9" target="_top" xlink:title="Free a Mailbox. ">
<polygon fill="#ffffff" stroke="#ff0000" points="321,-392.5 321,-411.5 402,-411.5 402,-392.5 321,-392.5"/>
<text text-anchor="middle" x="361.5" y="-399.5" font-family="Helvetica,sans-Serif" font-size="10.00" fill="#000000">mailbox_free</text>
</a>
</g>
</g>
<!-- Node0&#45;&gt;Node823 -->
<g id="edge5" class="edge">
<title>Node0&#45;&gt;Node823</title>
<path fill="none" stroke="#191970" d="M56.0416,-335.5938C70.905,-343.5564 93.2746,-354.5799 114,-361 180.3628,-381.5572 260.1151,-392.4143 310.8065,-397.6782"/>
<polygon fill="#191970" stroke="#191970" points="310.5559,-401.1706 320.8557,-398.6879 311.2558,-394.2057 310.5559,-401.1706"/>
</g>
<!-- Node1100 -->
<g id="node7" class="node">
<title>Node1100</title>
<g id="a_node7"><a xlink:href="copy_8c.html#a39b9ec9989d39d8fc4f05015dd261c37" target="_top" xlink:title="Append a message. ">
<polygon fill="#ffffff" stroke="#ff0000" points="296,-354.5 296,-373.5 427,-373.5 427,-354.5 296,-354.5"/>
<text text-anchor="middle" x="361.5" y="-361.5" font-family="Helvetica,sans-Serif" font-size="10.00" fill="#000000">mutt_append_message</text>
</a>
</g>
</g>
<!-- Node0&#45;&gt;Node1100 -->
<g id="edge6" class="edge">
<title>Node0&#45;&gt;Node1100</title>
<path fill="none" stroke="#191970" d="M78.2067,-333.9911C89.7063,-336.1524 102.3276,-338.3479 114,-340 171.3646,-348.1193 236.6026,-354.3215 285.694,-358.3853"/>
<polygon fill="#191970" stroke="#191970" points="285.6641,-361.8944 295.9158,-359.2199 286.2338,-354.9176 285.6641,-361.8944"/>
</g>
<!-- Node996 -->
<g id="node8" class="node">
<title>Node996</title>
<g id="a_node8"><a xlink:href="mx_8c.html#a2172d90c08b5a2b293d22ed13ee0e7a8" target="_top" xlink:title="Close a message. ">
<polygon fill="#ffffff" stroke="#000000" points="468,-335.5 468,-354.5 557,-354.5 557,-335.5 468,-335.5"/>
<text text-anchor="middle" x="512.5" y="-342.5" font-family="Helvetica,sans-Serif" font-size="10.00" fill="#000000">mx_msg_close</text>
</a>
</g>
</g>
<!-- Node0&#45;&gt;Node996 -->
<g id="edge26" class="edge">
<title>Node0&#45;&gt;Node996</title>
<path fill="none" stroke="#191970" d="M78.1513,-327.571C162.3814,-330.9509 360.9782,-338.9199 457.6785,-342.8002"/>
<polygon fill="#191970" stroke="#191970" points="457.7004,-346.3038 467.8327,-343.2076 457.9811,-339.3094 457.7004,-346.3038"/>
</g>
<!-- Node1079 -->
<g id="node9" class="node">
<title>Node1079</title>
<g id="a_node9"><a xlink:href="mx_8c.html#af565f09988150afe719a01227a260f88" target="_top" xlink:title="Save changes and close mailbox. ">
<polygon fill="#ffffff" stroke="#ff0000" points="136.5,-468.5 136.5,-487.5 232.5,-487.5 232.5,-468.5 136.5,-468.5"/>
<text text-anchor="middle" x="184.5" y="-475.5" font-family="Helvetica,sans-Serif" font-size="10.00" fill="#000000">mx_mbox_close</text>
</a>
</g>
</g>
<!-- Node0&#45;&gt;Node1079 -->
<g id="edge8" class="edge">
<title>Node0&#45;&gt;Node1079</title>
<path fill="none" stroke="#191970" d="M41.9875,-335.5863C49.8367,-359.2233 73.2921,-420.7804 114,-454 119.0618,-458.1307 124.8722,-461.5658 130.9384,-464.4189"/>
<polygon fill="#191970" stroke="#191970" points="130.0332,-467.833 140.6107,-468.4398 132.7203,-461.3693 130.0332,-467.833"/>
</g>
<!-- Node1847 -->
<g id="node10" class="node">
<title>Node1847</title>
<g id="a_node10"><a xlink:href="file_8c.html#af719d4d5344641aa1b525f803f6ebb46" target="_top" xlink:title="Remove permissions from a file. ">
<polygon fill="#ffffff" stroke="#000000" points="114,-278.5 114,-297.5 255,-297.5 255,-278.5 114,-278.5"/>
<text text-anchor="middle" x="184.5" y="-285.5" font-family="Helvetica,sans-Serif" font-size="10.00" fill="#000000">mutt_file_chmod_rm_stat</text>
</a>
</g>
</g>
<!-- Node0&#45;&gt;Node1847 -->
<g id="edge16" class="edge">
<title>Node0&#45;&gt;Node1847</title>
<path fill="none" stroke="#191970" d="M75.7158,-316.411C94.6566,-311.4642 117.9572,-305.3789 138.1285,-300.1108"/>
<polygon fill="#191970" stroke="#191970" points="139.2572,-303.4335 148.0482,-297.5201 137.4883,-296.6606 139.2572,-303.4335"/>
</g>
<!-- Node1408 -->
<g id="node11" class="node">
<title>Node1408</title>
<g id="a_node11"><a xlink:href="file_8c.html#a61b50c8615492662cbc27ebbf83090ce" target="_top" xlink:title="Decrease a file&#39;s modification time by 1 second. ">
<polygon fill="#ffffff" stroke="#ff0000" points="129.5,-229 129.5,-259 239.5,-259 239.5,-229 129.5,-229"/>
<text text-anchor="start" x="137.5" y="-247" font-family="Helvetica,sans-Serif" font-size="10.00" fill="#000000">mutt_file_decrease</text>
<text text-anchor="middle" x="184.5" y="-236" font-family="Helvetica,sans-Serif" font-size="10.00" fill="#000000">_mtime</text>
</a>
</g>
</g>
<!-- Node0&#45;&gt;Node1408 -->
<g id="edge17" class="edge">
<title>Node0&#45;&gt;Node1408</title>
<path fill="none" stroke="#191970" d="M49.4491,-316.3652C63.3127,-303.9977 88.9633,-282.526 114,-269 117.9633,-266.8589 122.1468,-264.839 126.4183,-262.9468"/>
<polygon fill="#191970" stroke="#191970" points="127.9752,-266.0898 135.8582,-259.011 125.2814,-259.6288 127.9752,-266.0898"/>
</g>
<!-- Node1409 -->
<g id="node12" class="node">
<title>Node1409</title>
<g id="a_node12"><a xlink:href="curs__lib_8c.html#a0590f11f42a6242002ea4c842438231b" target="_top" xlink:title="Let the user edit a file. ">
<polygon fill="#ffffff" stroke="#ff0000" points="142.5,-600.5 142.5,-619.5 226.5,-619.5 226.5,-600.5 142.5,-600.5"/>
<text text-anchor="middle" x="184.5" y="-607.5" font-family="Helvetica,sans-Serif" font-size="10.00" fill="#000000">mutt_edit_file</text>
</a>
</g>
</g>
<!-- Node0&#45;&gt;Node1409 -->
<g id="edge18" class="edge">
<title>Node0&#45;&gt;Node1409</title>
<path fill="none" stroke="#191970" d="M40.5674,-335.6705C47.6339,-378.1793 77.7652,-548.0101 114,-586 119.2148,-591.4674 125.7225,-595.6893 132.661,-598.9494"/>
<polygon fill="#191970" stroke="#191970" points="131.7247,-602.3451 142.3087,-602.8255 134.3344,-595.8498 131.7247,-602.3451"/>
</g>
<!-- Node104 -->
<g id="node13" class="node">
<title>Node104</title>
<g id="a_node13"><a xlink:href="from_8c.html#af485f9451b398a9beb14a61aaa68ddeb" target="_top" xlink:title="Is a string a &#39;From&#39; header line? ">
<polygon fill="#ffffff" stroke="#ff0000" points="158,-190.5 158,-209.5 211,-209.5 211,-190.5 158,-190.5"/>
<text text-anchor="middle" x="184.5" y="-197.5" font-family="Helvetica,sans-Serif" font-size="10.00" fill="#000000">is_from</text>
</a>
</g>
</g>
<!-- Node0&#45;&gt;Node104 -->
<g id="edge21" class="edge">
<title>Node0&#45;&gt;Node104</title>
<path fill="none" stroke="#191970" d="M43.0008,-316.3021C52.2183,-295.1948 77.0328,-244.9112 114,-219 123.9554,-212.022 136.3462,-207.6058 147.9505,-204.8112"/>
<polygon fill="#191970" stroke="#191970" points="148.7869,-208.2122 157.8647,-202.7491 147.3614,-201.3589 148.7869,-208.2122"/>
</g>
<!-- Node1102 -->
<g id="node14" class="node">
<title>Node1102</title>
<g id="a_node14"><a xlink:href="mx_8c.html#ae669274723245325328a6624194e4c22" target="_top" xlink:title="Open a new message. ">
<polygon fill="#ffffff" stroke="#ff0000" points="128,-152.5 128,-171.5 241,-171.5 241,-152.5 128,-152.5"/>
<text text-anchor="middle" x="184.5" y="-159.5" font-family="Helvetica,sans-Serif" font-size="10.00" fill="#000000">mx_msg_open_new</text>
</a>
</g>
</g>
<!-- Node0&#45;&gt;Node1102 -->
<g id="edge22" class="edge">
<title>Node0&#45;&gt;Node1102</title>
<path fill="none" stroke="#191970" d="M41.1708,-316.143C47.4767,-289.8974 68.3211,-217.8143 114,-181 116.267,-179.173 118.6947,-177.5208 121.2361,-176.0269"/>
<polygon fill="#191970" stroke="#191970" points="122.8595,-179.1284 130.246,-171.533 119.7351,-172.8644 122.8595,-179.1284"/>
</g>
<!-- Node873 -->
<g id="node15" class="node">
<title>Node873</title>
<g id="a_node15"><a xlink:href="copy_8c.html#a52e9f9a52a91efbaeca673868cfc8b93" target="_top" xlink:title="Copy header from one file to another. ">
<polygon fill="#ffffff" stroke="#ff0000" points="140,-114.5 140,-133.5 229,-133.5 229,-114.5 140,-114.5"/>
<text text-anchor="middle" x="184.5" y="-121.5" font-family="Helvetica,sans-Serif" font-size="10.00" fill="#000000">mutt_copy_hdr</text>
</a>
</g>
</g>
<!-- Node0&#45;&gt;Node873 -->
<g id="edge23" class="edge">
<title>Node0&#45;&gt;Node873</title>
<path fill="none" stroke="#191970" d="M39.9938,-316.3388C43.6497,-285.9337 59.1398,-191.3636 114,-143 118.7425,-138.8191 124.3131,-135.5461 130.209,-132.9859"/>
<polygon fill="#191970" stroke="#191970" points="131.4829,-136.2468 139.6695,-129.5216 129.0758,-129.6737 131.4829,-136.2468"/>
</g>
<!-- Node1045 -->
<g id="node16" class="node">
<title>Node1045</title>
<g id="a_node16"><a xlink:href="file_8c.html#a0a6ff09a685fb6fa1120a582a5a6ef4a" target="_top" xlink:title="Copy the contents of one file into another. ">
<polygon fill="#ffffff" stroke="#000000" points="120.5,-76.5 120.5,-95.5 248.5,-95.5 248.5,-76.5 120.5,-76.5"/>
<text text-anchor="middle" x="184.5" y="-83.5" font-family="Helvetica,sans-Serif" font-size="10.00" fill="#000000">mutt_file_copy_stream</text>
</a>
</g>
</g>
<!-- Node0&#45;&gt;Node1045 -->
<g id="edge24" class="edge">
<title>Node0&#45;&gt;Node1045</title>
<path fill="none" stroke="#191970" d="M40.9913,-316.4544C49.1771,-278.0768 81.3462,-135.6305 114,-105 115.5255,-103.569 117.1472,-102.2436 118.8464,-101.0161"/>
<polygon fill="#191970" stroke="#191970" points="121.0773,-103.7629 127.9013,-95.6584 117.5127,-97.7385 121.0773,-103.7629"/>
</g>
<!-- Node1107 -->
<g id="node17" class="node">
<title>Node1107</title>
<g id="a_node17"><a xlink:href="mx_8c.html#add0e192c5f27bf6bd096ae2eb7c0b67b" target="_top" xlink:title="Commit a message to a folder &#45; Wrapper for MxOps::msg_commit() ">
<polygon fill="#ffffff" stroke="#000000" points="134,-38.5 134,-57.5 235,-57.5 235,-38.5 134,-38.5"/>
<text text-anchor="middle" x="184.5" y="-45.5" font-family="Helvetica,sans-Serif" font-size="10.00" fill="#000000">mx_msg_commit</text>
</a>
</g>
</g>
<!-- Node0&#45;&gt;Node1107 -->
<g id="edge25" class="edge">
<title>Node0&#45;&gt;Node1107</title>
<path fill="none" stroke="#191970" d="M40.5143,-316.3087C47.3549,-273.717 76.6664,-103.645 114,-67 117.1041,-63.9532 120.6426,-61.3818 124.4433,-59.213"/>
<polygon fill="#191970" stroke="#191970" points="126.1516,-62.2773 133.7065,-54.8494 123.1684,-55.9448 126.1516,-62.2773"/>
</g>
<!-- Node213 -->
<g id="node18" class="node">
<title>Node213</title>
<g id="a_node18"><a xlink:href="file_8c.html#a31f49795ff5b9558db5476e5777e63b6" target="_top" xlink:title="Close a FILE handle (and NULL the pointer) ">
<polygon fill="#ffffff" stroke="#000000" points="137,-.5 137,-19.5 232,-19.5 232,-.5 137,-.5"/>
<text text-anchor="middle" x="184.5" y="-7.5" font-family="Helvetica,sans-Serif" font-size="10.00" fill="#000000">mutt_file_fclose</text>
</a>
</g>
</g>
<!-- Node0&#45;&gt;Node213 -->
<g id="edge27" class="edge">
<title>Node0&#45;&gt;Node213</title>
<path fill="none" stroke="#191970" d="M40.1118,-316.4844C45.6682,-270.5075 71.8457,-71.8297 114,-29 117.8902,-25.0474 122.5098,-21.8909 127.4959,-19.3738"/>
<polygon fill="#191970" stroke="#191970" points="128.9051,-22.5784 136.7882,-15.4997 126.2114,-16.1174 128.9051,-22.5784"/>
</g>
<!-- Node1100&#45;&gt;Node996 -->
<g id="edge7" class="edge">
<title>Node1100&#45;&gt;Node996</title>
<path fill="none" stroke="#191970" d="M427.2915,-355.7216C437.4371,-354.445 447.8204,-353.1385 457.6923,-351.8963"/>
<polygon fill="#191970" stroke="#191970" points="458.2785,-355.3503 467.7633,-350.6291 457.4045,-348.405 458.2785,-355.3503"/>
</g>
<!-- Node1079&#45;&gt;Node1 -->
<g id="edge9" class="edge">
<title>Node1079&#45;&gt;Node1</title>
<path fill="none" stroke="#191970" d="M190.6962,-487.5543C205.3655,-509.3858 244.5002,-563.1819 291,-591 294.6102,-593.1598 298.4692,-595.0789 302.4518,-596.7835"/>
<polygon fill="#191970" stroke="#191970" points="301.3191,-600.0972 311.91,-600.3836 303.8093,-593.5551 301.3191,-600.0972"/>
</g>
<!-- Node1079&#45;&gt;Node9 -->
<g id="edge10" class="edge">
<title>Node1079&#45;&gt;Node9</title>
<path fill="none" stroke="#191970" d="M232.866,-485.6511C253.8139,-488.9649 278.5678,-492.8808 300.7381,-496.3879"/>
<polygon fill="#191970" stroke="#191970" points="300.2956,-499.8614 310.7196,-497.9669 301.3894,-492.9474 300.2956,-499.8614"/>
</g>
<!-- Node1079&#45;&gt;Node743 -->
<g id="edge11" class="edge">
<title>Node1079&#45;&gt;Node743</title>
<path fill="none" stroke="#191970" d="M232.866,-471.4419C254.7999,-468.4678 280.9065,-464.9279 303.8508,-461.8168"/>
<polygon fill="#191970" stroke="#191970" points="304.3663,-465.2791 313.8053,-460.4671 303.4257,-458.3425 304.3663,-465.2791"/>
</g>
<!-- Node1079&#45;&gt;Node52 -->
<g id="edge15" class="edge">
<title>Node1079&#45;&gt;Node52</title>
<path fill="none" stroke="#191970" d="M202.4458,-487.5305C233.5876,-504.0691 297.8043,-538.1729 334.4008,-557.6083"/>
<polygon fill="#191970" stroke="#191970" points="333.0333,-560.845 343.5067,-562.4443 336.3166,-554.6627 333.0333,-560.845"/>
</g>
<!-- Node1079&#45;&gt;Node823 -->
<g id="edge12" class="edge">
<title>Node1079&#45;&gt;Node823</title>
<path fill="none" stroke="#191970" d="M206.9172,-468.3745C238.038,-455.0119 294.4881,-430.7735 329.8796,-415.5771"/>
<polygon fill="#191970" stroke="#191970" points="331.457,-418.7089 339.2648,-411.5473 328.6951,-412.2767 331.457,-418.7089"/>
</g>
<!-- Node1079&#45;&gt;Node1100 -->
<g id="edge13" class="edge">
<title>Node1079&#45;&gt;Node1100</title>
<path fill="none" stroke="#191970" d="M192.5203,-468.3041C208.9548,-449.0746 248.5035,-405.9858 291,-383 295.2369,-380.7083 299.7694,-378.6783 304.4163,-376.8828"/>
<polygon fill="#191970" stroke="#191970" points="305.7692,-380.1178 314.0574,-373.518 303.4626,-373.5087 305.7692,-380.1178"/>
</g>
<!-- Node1079&#45;&gt;Node1079 -->
<g id="edge14" class="edge">
<title>Node1079&#45;&gt;Node1079</title>
<path fill="none" stroke="#191970" d="M162.3054,-487.7571C151.5081,-496.5653 158.9063,-506 184.5,-506 201.2959,-506 210.2556,-501.9368 211.3792,-496.6539"/>
<polygon fill="#191970" stroke="#191970" points="214.4506,-494.9747 206.6946,-487.7571 208.2567,-498.2361 214.4506,-494.9747"/>
</g>
<!-- Node1409&#45;&gt;Node1 -->
<g id="edge19" class="edge">
<title>Node1409&#45;&gt;Node1</title>
<path fill="none" stroke="#191970" d="M226.8959,-610C245.9667,-610 269.0002,-610 290.5805,-610"/>
<polygon fill="#191970" stroke="#191970" points="290.7028,-613.5001 300.7027,-610 290.7027,-606.5001 290.7028,-613.5001"/>
</g>
<!-- Node1409&#45;&gt;Node52 -->
<g id="edge20" class="edge">
<title>Node1409&#45;&gt;Node52</title>
<path fill="none" stroke="#191970" d="M226.8959,-600.8981C250.9125,-595.7419 281.2139,-589.2366 306.9829,-583.7042"/>
<polygon fill="#191970" stroke="#191970" points="307.9375,-587.0791 316.98,-581.558 306.4681,-580.2351 307.9375,-587.0791"/>
</g>
</g>
</svg>
