<?xml version="1.0" encoding="UTF-8" standalone="no"?>
<!DOCTYPE svg PUBLIC "-//W3C//DTD SVG 1.1//EN"
 "http://www.w3.org/Graphics/SVG/1.1/DTD/svg11.dtd">
<!-- Generated by graphviz version 7.1.0 (0)
 -->
<!-- Title: editor/functions.h Pages: 1 -->
<svg width="218pt" height="82pt"
 viewBox="0.00 0.00 217.50 82.00" xmlns="http://www.w3.org/2000/svg" xmlns:xlink="http://www.w3.org/1999/xlink">
<g id="graph0" class="graph" transform="scale(1 1) rotate(0) translate(4 78)">
<title>editor/functions.h</title>
<!-- Node1 -->
<g id="node1" class="node">
<title>Node1</title>
<g id="a_node1"><a xlink:title="Editor functions.">
<polygon fill="#999999" stroke="#666666" points="157,-74 56,-74 56,-55 157,-55 157,-74"/>
<text text-anchor="middle" x="106.5" y="-62" font-family="Helvetica,sans-Serif" font-size="10.00">editor/functions.h</text>
</a>
</g>
</g>
<!-- Node2 -->
<g id="node2" class="node">
<title>Node2</title>
<g id="a_node2"><a xlink:href="editor_2functions_8c.html" target="_top" xlink:title="Editor functions.">
<polygon fill="white" stroke="#666666" points="99,-19 0,-19 0,0 99,0 99,-19"/>
<text text-anchor="middle" x="49.5" y="-7" font-family="Helvetica,sans-Serif" font-size="10.00">editor/functions.c</text>
</a>
</g>
</g>
<!-- Node1&#45;&gt;Node2 -->
<g id="edge1" class="edge">
<title>Node1&#45;&gt;Node2</title>
<path fill="none" stroke="#63b8ff" d="M88.55,-46.81C78.77,-37.72 67.06,-26.82 59.03,-19.36"/>
<polygon fill="#63b8ff" stroke="#63b8ff" points="86.02,-49.23 95.72,-53.48 90.78,-44.11 86.02,-49.23"/>
</g>
<!-- Node3 -->
<g id="node3" class="node">
<title>Node3</title>
<g id="a_node3"><a xlink:href="editor_2window_8c.html" target="_top" xlink:title="GUI ask the user to enter a string.">
<polygon fill="white" stroke="#666666" points="209.5,-19 117.5,-19 117.5,0 209.5,0 209.5,-19"/>
<text text-anchor="middle" x="163.5" y="-7" font-family="Helvetica,sans-Serif" font-size="10.00">editor/window.c</text>
</a>
</g>
</g>
<!-- Node1&#45;&gt;Node3 -->
<g id="edge2" class="edge">
<title>Node1&#45;&gt;Node3</title>
<path fill="none" stroke="#63b8ff" d="M124.45,-46.81C134.23,-37.72 145.94,-26.82 153.97,-19.36"/>
<polygon fill="#63b8ff" stroke="#63b8ff" points="122.22,-44.11 117.28,-53.48 126.98,-49.23 122.22,-44.11"/>
</g>
</g>
</svg>
