<?xml version="1.0" encoding="UTF-8" standalone="no"?>
<!DOCTYPE svg PUBLIC "-//W3C//DTD SVG 1.1//EN"
 "http://www.w3.org/Graphics/SVG/1.1/DTD/svg11.dtd">
<!-- Generated by graphviz version 12.2.1 (20241206.2353)
 -->
<!-- Title: editor/wdata.h Pages: 1 -->
<svg width="230pt" height="147pt"
 viewBox="0.00 0.00 230.33 146.75" xmlns="http://www.w3.org/2000/svg" xmlns:xlink="http://www.w3.org/1999/xlink">
<g id="graph0" class="graph" transform="scale(1 1) rotate(0) translate(4 142.75)">
<title>editor/wdata.h</title>
<!-- Node1 -->
<g id="Node000001" class="node">
<title>Node1</title>
<g id="a_Node000001"><a xlink:title="Enter Window Data.">
<polygon fill="#999999" stroke="#666666" points="115.08,-138.75 30.08,-138.75 30.08,-116.5 115.08,-116.5 115.08,-138.75"/>
<text text-anchor="middle" x="72.58" y="-125.25" font-family="Helvetica,sans-Serif" font-size="10.00">editor/wdata.h</text>
</a>
</g>
</g>
<!-- Node2 -->
<g id="Node000002" class="node">
<title>Node2</title>
<g id="a_Node000002"><a xlink:title=" ">
<polygon fill="#e0e0e0" stroke="#999999" points="115.33,-22.25 55.83,-22.25 55.83,0 115.33,0 115.33,-22.25"/>
<text text-anchor="middle" x="85.58" y="-8.75" font-family="Helvetica,sans-Serif" font-size="10.00">stdbool.h</text>
</a>
</g>
</g>
<!-- Node1&#45;&gt;Node2 -->
<g id="edge1_Node000001_Node000002" class="edge">
<title>Node1&#45;&gt;Node2</title>
<g id="a_edge1_Node000001_Node000002"><a xlink:title=" ">
<path fill="none" stroke="#63b8ff" d="M47.76,-116.17C22.66,-103.99 -10.55,-82.42 3.58,-58.25 12.72,-42.64 29.29,-31.9 45.16,-24.74"/>
<polygon fill="#63b8ff" stroke="#63b8ff" points="46.08,-28.15 54.01,-21.11 43.43,-21.67 46.08,-28.15"/>
</a>
</g>
</g>
<!-- Node3 -->
<g id="Node000003" class="node">
<title>Node3</title>
<g id="a_Node000003"><a xlink:title=" ">
<polygon fill="#e0e0e0" stroke="#999999" points="64.21,-80.5 12.96,-80.5 12.96,-58.25 64.21,-58.25 64.21,-80.5"/>
<text text-anchor="middle" x="38.58" y="-67" font-family="Helvetica,sans-Serif" font-size="10.00">stdint.h</text>
</a>
</g>
</g>
<!-- Node1&#45;&gt;Node3 -->
<g id="edge2_Node000001_Node000003" class="edge">
<title>Node1&#45;&gt;Node3</title>
<g id="a_edge2_Node000001_Node000003"><a xlink:title=" ">
<path fill="none" stroke="#63b8ff" d="M66.19,-116.04C61.87,-108.9 56.02,-99.23 50.83,-90.63"/>
<polygon fill="#63b8ff" stroke="#63b8ff" points="53.9,-88.95 45.73,-82.2 47.91,-92.57 53.9,-88.95"/>
</a>
</g>
</g>
<!-- Node4 -->
<g id="Node000004" class="node">
<title>Node4</title>
<g id="a_Node000004"><a xlink:title=" ">
<polygon fill="#e0e0e0" stroke="#999999" points="132.83,-80.5 82.33,-80.5 82.33,-58.25 132.83,-58.25 132.83,-80.5"/>
<text text-anchor="middle" x="107.58" y="-67" font-family="Helvetica,sans-Serif" font-size="10.00">wchar.h</text>
</a>
</g>
</g>
<!-- Node1&#45;&gt;Node4 -->
<g id="edge3_Node000001_Node000004" class="edge">
<title>Node1&#45;&gt;Node4</title>
<g id="a_edge3_Node000001_Node000004"><a xlink:title=" ">
<path fill="none" stroke="#63b8ff" d="M79.17,-116.04C83.62,-108.9 89.63,-99.23 94.98,-90.63"/>
<polygon fill="#63b8ff" stroke="#63b8ff" points="97.92,-92.53 100.23,-82.19 91.98,-88.83 97.92,-92.53"/>
</a>
</g>
</g>
<!-- Node5 -->
<g id="Node000005" class="node">
<title>Node5</title>
<g id="a_Node000005"><a xlink:href="history_2lib_8h.html" target="_top" xlink:title="Read/write command history from/to a file.">
<polygon fill="#fff0f0" stroke="red" points="222.33,-80.5 150.83,-80.5 150.83,-58.25 222.33,-58.25 222.33,-80.5"/>
<text text-anchor="middle" x="186.58" y="-67" font-family="Helvetica,sans-Serif" font-size="10.00">history/lib.h</text>
</a>
</g>
</g>
<!-- Node1&#45;&gt;Node5 -->
<g id="edge4_Node000001_Node000005" class="edge">
<title>Node1&#45;&gt;Node5</title>
<g id="a_edge4_Node000001_Node000005"><a xlink:title=" ">
<path fill="none" stroke="#63b8ff" d="M94.03,-116.04C111.22,-107.56 135.61,-95.53 155.03,-85.94"/>
<polygon fill="#63b8ff" stroke="#63b8ff" points="156.46,-89.14 163.88,-81.58 153.36,-82.86 156.46,-89.14"/>
</a>
</g>
</g>
<!-- Node5&#45;&gt;Node2 -->
<g id="edge5_Node000005_Node000002" class="edge">
<title>Node5&#45;&gt;Node2</title>
<g id="a_edge5_Node000005_Node000002"><a xlink:title=" ">
<path fill="none" stroke="#63b8ff" d="M167.59,-57.79C152.63,-49.47 131.54,-37.72 114.5,-28.23"/>
<polygon fill="#63b8ff" stroke="#63b8ff" points="116.26,-25.2 105.82,-23.39 112.85,-31.32 116.26,-25.2"/>
</a>
</g>
</g>
</g>
</svg>
