<?xml version="1.0" encoding="UTF-8" standalone="no"?>
<!DOCTYPE svg PUBLIC "-//W3C//DTD SVG 1.1//EN"
 "http://www.w3.org/Graphics/SVG/1.1/DTD/svg11.dtd">
<!-- Generated by graphviz version 12.2.1 (20241206.2353)
 -->
<!-- Title: email/parse.c Pages: 1 -->
<svg width="1197pt" height="263pt"
 viewBox="0.00 0.00 1197.22 263.25" xmlns="http://www.w3.org/2000/svg" xmlns:xlink="http://www.w3.org/1999/xlink">
<g id="graph0" class="graph" transform="scale(1 1) rotate(0) translate(4 259.25)">
<title>email/parse.c</title>
<!-- Node1 -->
<g id="Node000001" class="node">
<title>Node1</title>
<g id="a_Node000001"><a xlink:title="Miscellaneous email parsing routines.">
<polygon fill="#999999" stroke="#666666" points="655.59,-255.25 577.34,-255.25 577.34,-233 655.59,-233 655.59,-255.25"/>
<text text-anchor="middle" x="616.47" y="-241.75" font-family="Helvetica,sans-Serif" font-size="10.00">email/parse.c</text>
</a>
</g>
</g>
<!-- Node2 -->
<g id="Node000002" class="node">
<title>Node2</title>
<g id="a_Node000002"><a xlink:title=" ">
<polygon fill="#e0e0e0" stroke="#999999" points="500.22,-22.25 446.72,-22.25 446.72,0 500.22,0 500.22,-22.25"/>
<text text-anchor="middle" x="473.47" y="-8.75" font-family="Helvetica,sans-Serif" font-size="10.00">config.h</text>
</a>
</g>
</g>
<!-- Node1&#45;&gt;Node2 -->
<g id="edge1_Node000001_Node000002" class="edge">
<title>Node1&#45;&gt;Node2</title>
<g id="a_edge1_Node000001_Node000002"><a xlink:title=" ">
<path fill="none" stroke="#63b8ff" d="M576.85,-243.08C450.16,-242.54 60.99,-237.55 23.47,-197 -100.57,-62.94 306.05,-23.45 435.32,-14.42"/>
<polygon fill="#63b8ff" stroke="#63b8ff" points="435.34,-17.92 445.08,-13.76 434.87,-10.94 435.34,-17.92"/>
</a>
</g>
</g>
<!-- Node3 -->
<g id="Node000003" class="node">
<title>Node3</title>
<g id="a_Node000003"><a xlink:title=" ">
<polygon fill="#e0e0e0" stroke="#999999" points="84.47,-197 32.47,-197 32.47,-174.75 84.47,-174.75 84.47,-197"/>
<text text-anchor="middle" x="58.47" y="-183.5" font-family="Helvetica,sans-Serif" font-size="10.00">errno.h</text>
</a>
</g>
</g>
<!-- Node1&#45;&gt;Node3 -->
<g id="edge2_Node000001_Node000003" class="edge">
<title>Node1&#45;&gt;Node3</title>
<g id="a_edge2_Node000001_Node000003"><a xlink:title=" ">
<path fill="none" stroke="#63b8ff" d="M577.08,-242.25C491.2,-239.79 280.65,-230.74 95.99,-197.15"/>
<polygon fill="#63b8ff" stroke="#63b8ff" points="96.67,-193.71 86.2,-195.33 95.39,-200.6 96.67,-193.71"/>
</a>
</g>
</g>
<!-- Node4 -->
<g id="Node000004" class="node">
<title>Node4</title>
<g id="a_Node000004"><a xlink:title=" ">
<polygon fill="#e0e0e0" stroke="#999999" points="154.47,-197 102.47,-197 102.47,-174.75 154.47,-174.75 154.47,-197"/>
<text text-anchor="middle" x="128.47" y="-183.5" font-family="Helvetica,sans-Serif" font-size="10.00">string.h</text>
</a>
</g>
</g>
<!-- Node1&#45;&gt;Node4 -->
<g id="edge3_Node000001_Node000004" class="edge">
<title>Node1&#45;&gt;Node4</title>
<g id="a_edge3_Node000001_Node000004"><a xlink:title=" ">
<path fill="none" stroke="#63b8ff" d="M576.95,-240.99C498.56,-236.33 318.02,-223.48 168.47,-197 167.48,-196.83 166.48,-196.64 165.48,-196.44"/>
<polygon fill="#63b8ff" stroke="#63b8ff" points="166.6,-193.11 156.08,-194.39 165.1,-199.94 166.6,-193.11"/>
</a>
</g>
</g>
<!-- Node5 -->
<g id="Node000005" class="node">
<title>Node5</title>
<g id="a_Node000005"><a xlink:title=" ">
<polygon fill="#e0e0e0" stroke="#999999" points="975.47,-22.25 929.47,-22.25 929.47,0 975.47,0 975.47,-22.25"/>
<text text-anchor="middle" x="952.47" y="-8.75" font-family="Helvetica,sans-Serif" font-size="10.00">time.h</text>
</a>
</g>
</g>
<!-- Node1&#45;&gt;Node5 -->
<g id="edge4_Node000001_Node000005" class="edge">
<title>Node1&#45;&gt;Node5</title>
<g id="a_edge4_Node000001_Node000005"><a xlink:title=" ">
<path fill="none" stroke="#63b8ff" d="M655.93,-242.29C765.12,-239.58 1065.18,-229.25 1094.47,-197 1147.75,-138.33 1036.44,-61.25 981.16,-28.25"/>
<polygon fill="#63b8ff" stroke="#63b8ff" points="983.25,-25.41 972.85,-23.38 979.71,-31.45 983.25,-25.41"/>
</a>
</g>
</g>
<!-- Node6 -->
<g id="Node000006" class="node">
<title>Node6</title>
<g id="a_Node000006"><a xlink:href="mutt_2lib_8h.html" target="_top" xlink:title="Convenience wrapper for the library headers.">
<polygon fill="#fff0f0" stroke="red" points="723.34,-80.5 661.59,-80.5 661.59,-58.25 723.34,-58.25 723.34,-80.5"/>
<text text-anchor="middle" x="692.47" y="-67" font-family="Helvetica,sans-Serif" font-size="10.00">mutt/lib.h</text>
</a>
</g>
</g>
<!-- Node1&#45;&gt;Node6 -->
<g id="edge5_Node000001_Node000006" class="edge">
<title>Node1&#45;&gt;Node6</title>
<g id="a_edge5_Node000001_Node000006"><a xlink:title=" ">
<path fill="none" stroke="#63b8ff" d="M623.79,-232.86C630.08,-223.74 639.11,-209.89 645.47,-197 663.11,-161.24 678.06,-117.11 686.1,-91.51"/>
<polygon fill="#63b8ff" stroke="#63b8ff" points="689.34,-92.88 688.94,-82.3 682.65,-90.82 689.34,-92.88"/>
</a>
</g>
</g>
<!-- Node55 -->
<g id="Node000055" class="node">
<title>Node55</title>
<g id="a_Node000055"><a xlink:href="address_2lib_8h.html" target="_top" xlink:title="Email Address Handling.">
<polygon fill="#fff0f0" stroke="red" points="418.09,-138.75 342.84,-138.75 342.84,-116.5 418.09,-116.5 418.09,-138.75"/>
<text text-anchor="middle" x="380.47" y="-125.25" font-family="Helvetica,sans-Serif" font-size="10.00">address/lib.h</text>
</a>
</g>
</g>
<!-- Node1&#45;&gt;Node55 -->
<g id="edge8_Node000001_Node000055" class="edge">
<title>Node1&#45;&gt;Node55</title>
<g id="a_edge8_Node000001_Node000055"><a xlink:title=" ">
<path fill="none" stroke="#63b8ff" d="M590.19,-232.57C568.71,-223.72 537.72,-210.39 511.47,-197 494.04,-188.11 490.69,-184.05 473.47,-174.75 453.68,-164.06 431.08,-152.83 413.12,-144.13"/>
<polygon fill="#63b8ff" stroke="#63b8ff" points="414.76,-141.04 404.23,-139.85 411.72,-147.34 414.76,-141.04"/>
</a>
</g>
</g>
<!-- Node61 -->
<g id="Node000061" class="node">
<title>Node61</title>
<g id="a_Node000061"><a xlink:href="config_2lib_8h.html" target="_top" xlink:title="Convenience wrapper for the config headers.">
<polygon fill="#fff0f0" stroke="red" points="386.34,-197 318.59,-197 318.59,-174.75 386.34,-174.75 386.34,-197"/>
<text text-anchor="middle" x="352.47" y="-183.5" font-family="Helvetica,sans-Serif" font-size="10.00">config/lib.h</text>
</a>
</g>
</g>
<!-- Node1&#45;&gt;Node61 -->
<g id="edge9_Node000001_Node000061" class="edge">
<title>Node1&#45;&gt;Node61</title>
<g id="a_edge9_Node000001_Node000061"><a xlink:title=" ">
<path fill="none" stroke="#63b8ff" d="M576.88,-235.18C534.86,-226.67 466.21,-212.58 397.71,-197.46"/>
<polygon fill="#63b8ff" stroke="#63b8ff" points="398.72,-194.1 388.2,-195.35 397.2,-200.93 398.72,-194.1"/>
</a>
</g>
</g>
<!-- Node76 -->
<g id="Node000076" class="node">
<title>Node76</title>
<g id="a_Node000076"><a xlink:href="core_2lib_8h.html" target="_top" xlink:title="Convenience wrapper for the core headers.">
<polygon fill="#fff0f0" stroke="red" points="464.22,-197 404.72,-197 404.72,-174.75 464.22,-174.75 464.22,-197"/>
<text text-anchor="middle" x="434.47" y="-183.5" font-family="Helvetica,sans-Serif" font-size="10.00">core/lib.h</text>
</a>
</g>
</g>
<!-- Node1&#45;&gt;Node76 -->
<g id="edge10_Node000001_Node000076" class="edge">
<title>Node1&#45;&gt;Node76</title>
<g id="a_edge10_Node000001_Node000076"><a xlink:title=" ">
<path fill="none" stroke="#63b8ff" d="M582.24,-232.54C551.93,-223.18 507.64,-209.49 475.46,-199.54"/>
<polygon fill="#63b8ff" stroke="#63b8ff" points="476.66,-196.25 466.07,-196.64 474.59,-202.94 476.66,-196.25"/>
</a>
</g>
</g>
<!-- Node86 -->
<g id="Node000086" class="node">
<title>Node86</title>
<g id="a_Node000086"><a xlink:href="mutt_8h.html" target="_top" xlink:title="Many unsorted constants and some structs.">
<polygon fill="#fff0f0" stroke="red" points="234.22,-80.5 186.72,-80.5 186.72,-58.25 234.22,-58.25 234.22,-80.5"/>
<text text-anchor="middle" x="210.47" y="-67" font-family="Helvetica,sans-Serif" font-size="10.00">mutt.h</text>
</a>
</g>
</g>
<!-- Node1&#45;&gt;Node86 -->
<g id="edge11_Node000001_Node000086" class="edge">
<title>Node1&#45;&gt;Node86</title>
<g id="a_edge11_Node000001_Node000086"><a xlink:title=" ">
<path fill="none" stroke="#63b8ff" d="M577.03,-243.6C489.09,-243.86 280.52,-239.82 227.47,-197 196.81,-172.26 200.51,-120.89 205.65,-91.76"/>
<polygon fill="#63b8ff" stroke="#63b8ff" points="209.02,-92.75 207.55,-82.26 202.16,-91.38 209.02,-92.75"/>
</a>
</g>
</g>
<!-- Node90 -->
<g id="Node000090" class="node">
<title>Node90</title>
<g id="a_Node000090"><a xlink:href="email_2parse_8h.html" target="_top" xlink:title="Miscellaneous email parsing routines.">
<polygon fill="#fff0f0" stroke="red" points="300.09,-197 248.84,-197 248.84,-174.75 300.09,-174.75 300.09,-197"/>
<text text-anchor="middle" x="274.47" y="-183.5" font-family="Helvetica,sans-Serif" font-size="10.00">parse.h</text>
</a>
</g>
</g>
<!-- Node1&#45;&gt;Node90 -->
<g id="edge14_Node000001_Node000090" class="edge">
<title>Node1&#45;&gt;Node90</title>
<g id="a_edge14_Node000001_Node000090"><a xlink:title=" ">
<path fill="none" stroke="#63b8ff" d="M576.91,-238.88C520.21,-232.43 412.43,-218.79 311.38,-197.18"/>
<polygon fill="#63b8ff" stroke="#63b8ff" points="312.36,-193.81 301.84,-195.1 310.87,-200.65 312.36,-193.81"/>
</a>
</g>
</g>
<!-- Node91 -->
<g id="Node000091" class="node">
<title>Node91</title>
<g id="a_Node000091"><a xlink:href="mime_8h.html" target="_top" xlink:title="Constants and macros for managing MIME encoding.">
<polygon fill="white" stroke="#666666" points="268.09,-138.75 216.84,-138.75 216.84,-116.5 268.09,-116.5 268.09,-138.75"/>
<text text-anchor="middle" x="242.47" y="-125.25" font-family="Helvetica,sans-Serif" font-size="10.00">mime.h</text>
</a>
</g>
</g>
<!-- Node1&#45;&gt;Node91 -->
<g id="edge34_Node000001_Node000091" class="edge">
<title>Node1&#45;&gt;Node91</title>
<g id="a_edge34_Node000001_Node000091"><a xlink:title=" ">
<path fill="none" stroke="#63b8ff" d="M576.85,-241.2C484.61,-236.31 261.59,-222 239.47,-197 228.28,-184.36 230.43,-164.7 234.56,-149.7"/>
<polygon fill="#63b8ff" stroke="#63b8ff" points="237.85,-150.92 237.62,-140.33 231.19,-148.75 237.85,-150.92"/>
</a>
</g>
</g>
<!-- Node92 -->
<g id="Node000092" class="node">
<title>Node92</title>
<g id="a_Node000092"><a xlink:href="email_2body_8h.html" target="_top" xlink:title="Representation of the body of an email.">
<polygon fill="#fff0f0" stroke="red" points="844.22,-197 796.72,-197 796.72,-174.75 844.22,-174.75 844.22,-197"/>
<text text-anchor="middle" x="820.47" y="-183.5" font-family="Helvetica,sans-Serif" font-size="10.00">body.h</text>
</a>
</g>
</g>
<!-- Node1&#45;&gt;Node92 -->
<g id="edge17_Node000001_Node000092" class="edge">
<title>Node1&#45;&gt;Node92</title>
<g id="a_edge17_Node000001_Node000092"><a xlink:title=" ">
<path fill="none" stroke="#63b8ff" d="M654.84,-232.54C692.33,-222.21 748.92,-206.6 785.28,-196.58"/>
<polygon fill="#63b8ff" stroke="#63b8ff" points="786.16,-199.97 794.87,-193.93 784.3,-193.22 786.16,-199.97"/>
</a>
</g>
</g>
<!-- Node93 -->
<g id="Node000093" class="node">
<title>Node93</title>
<g id="a_Node000093"><a xlink:href="parameter_8h.html" target="_top" xlink:title="Store attributes associated with a MIME part.">
<polygon fill="#fff0f0" stroke="red" points="848.59,-138.75 776.34,-138.75 776.34,-116.5 848.59,-116.5 848.59,-138.75"/>
<text text-anchor="middle" x="812.47" y="-125.25" font-family="Helvetica,sans-Serif" font-size="10.00">parameter.h</text>
</a>
</g>
</g>
<!-- Node1&#45;&gt;Node93 -->
<g id="edge35_Node000001_Node000093" class="edge">
<title>Node1&#45;&gt;Node93</title>
<g id="a_edge35_Node000001_Node000093"><a xlink:title=" ">
<path fill="none" stroke="#63b8ff" d="M649.03,-232.57C672.05,-224.44 703.17,-212.06 728.47,-197 752.74,-182.55 777.44,-161.53 793.72,-146.61"/>
<polygon fill="#63b8ff" stroke="#63b8ff" points="795.81,-149.45 800.73,-140.06 791.03,-144.33 795.81,-149.45"/>
</a>
</g>
</g>
<!-- Node94 -->
<g id="Node000094" class="node">
<title>Node94</title>
<g id="a_Node000094"><a xlink:href="email_8h.html" target="_top" xlink:title="Representation of an email.">
<polygon fill="#fff0f0" stroke="red" points="626.34,-138.75 576.59,-138.75 576.59,-116.5 626.34,-116.5 626.34,-138.75"/>
<text text-anchor="middle" x="601.47" y="-125.25" font-family="Helvetica,sans-Serif" font-size="10.00">email.h</text>
</a>
</g>
</g>
<!-- Node1&#45;&gt;Node94 -->
<g id="edge23_Node000001_Node000094" class="edge">
<title>Node1&#45;&gt;Node94</title>
<g id="a_edge23_Node000001_Node000094"><a xlink:title=" ">
<path fill="none" stroke="#63b8ff" d="M621.66,-232.81C627.74,-219.32 636.31,-195.01 630.47,-174.75 627.77,-165.4 622.56,-156.11 617.29,-148.35"/>
<polygon fill="#63b8ff" stroke="#63b8ff" points="620.16,-146.35 611.42,-140.36 614.52,-150.5 620.16,-146.35"/>
</a>
</g>
</g>
<!-- Node97 -->
<g id="Node000097" class="node">
<title>Node97</title>
<g id="a_Node000097"><a xlink:href="envelope_8h.html" target="_top" xlink:title="Representation of an email header (envelope)">
<polygon fill="#fff0f0" stroke="red" points="588.72,-197 520.22,-197 520.22,-174.75 588.72,-174.75 588.72,-197"/>
<text text-anchor="middle" x="554.47" y="-183.5" font-family="Helvetica,sans-Serif" font-size="10.00">envelope.h</text>
</a>
</g>
</g>
<!-- Node1&#45;&gt;Node97 -->
<g id="edge27_Node000001_Node000097" class="edge">
<title>Node1&#45;&gt;Node97</title>
<g id="a_edge27_Node000001_Node000097"><a xlink:title=" ">
<path fill="none" stroke="#63b8ff" d="M604.81,-232.54C596.23,-224.77 584.38,-214.01 574.32,-204.89"/>
<polygon fill="#63b8ff" stroke="#63b8ff" points="576.96,-202.55 567.2,-198.42 572.25,-207.74 576.96,-202.55"/>
</a>
</g>
</g>
<!-- Node98 -->
<g id="Node000098" class="node">
<title>Node98</title>
<g id="a_Node000098"><a xlink:href="from_8h.html" target="_top" xlink:title="Determine who the email is from.">
<polygon fill="#fff0f0" stroke="red" points="1189.22,-80.5 1141.72,-80.5 1141.72,-58.25 1189.22,-58.25 1189.22,-80.5"/>
<text text-anchor="middle" x="1165.47" y="-67" font-family="Helvetica,sans-Serif" font-size="10.00">from.h</text>
</a>
</g>
</g>
<!-- Node1&#45;&gt;Node98 -->
<g id="edge31_Node000001_Node000098" class="edge">
<title>Node1&#45;&gt;Node98</title>
<g id="a_edge31_Node000001_Node000098"><a xlink:title=" ">
<path fill="none" stroke="#63b8ff" d="M655.72,-242.08C769.06,-238.72 1091.16,-226.64 1127.47,-197 1158.75,-171.46 1164.99,-121.21 1165.82,-92.28"/>
<polygon fill="#63b8ff" stroke="#63b8ff" points="1169.32,-92.53 1165.89,-82.5 1162.32,-92.47 1169.32,-92.53"/>
</a>
</g>
</g>
<!-- Node99 -->
<g id="Node000099" class="node">
<title>Node99</title>
<g id="a_Node000099"><a xlink:href="globals2_8h.html" target="_top" xlink:title="Email Global Variables.">
<polygon fill="#fff0f0" stroke="red" points="925.09,-197 861.84,-197 861.84,-174.75 925.09,-174.75 925.09,-197"/>
<text text-anchor="middle" x="893.47" y="-183.5" font-family="Helvetica,sans-Serif" font-size="10.00">globals2.h</text>
</a>
</g>
</g>
<!-- Node1&#45;&gt;Node99 -->
<g id="edge33_Node000001_Node000099" class="edge">
<title>Node1&#45;&gt;Node99</title>
<g id="a_edge33_Node000001_Node000099"><a xlink:title=" ">
<path fill="none" stroke="#63b8ff" d="M656.03,-236.12C700.98,-228.01 776.8,-213.87 850.74,-197.53"/>
<polygon fill="#63b8ff" stroke="#63b8ff" points="851.15,-201.02 860.15,-195.43 849.63,-194.19 851.15,-201.02"/>
</a>
</g>
</g>
<!-- Node100 -->
<g id="Node000100" class="node">
<title>Node100</title>
<g id="a_Node000100"><a xlink:href="rfc2047_8h.html" target="_top" xlink:title="RFC2047 MIME extensions encoding / decoding routines.">
<polygon fill="white" stroke="#666666" points="1005.34,-197 943.59,-197 943.59,-174.75 1005.34,-174.75 1005.34,-197"/>
<text text-anchor="middle" x="974.47" y="-183.5" font-family="Helvetica,sans-Serif" font-size="10.00">rfc2047.h</text>
</a>
</g>
</g>
<!-- Node1&#45;&gt;Node100 -->
<g id="edge36_Node000001_Node000100" class="edge">
<title>Node1&#45;&gt;Node100</title>
<g id="a_edge36_Node000001_Node000100"><a xlink:title=" ">
<path fill="none" stroke="#63b8ff" d="M655.86,-238.75C714.11,-231.98 826.84,-217.79 931.97,-197.34"/>
<polygon fill="#63b8ff" stroke="#63b8ff" points="932.48,-200.8 941.61,-195.44 931.12,-193.94 932.48,-200.8"/>
</a>
</g>
</g>
<!-- Node101 -->
<g id="Node000101" class="node">
<title>Node101</title>
<g id="a_Node000101"><a xlink:href="rfc2231_8h.html" target="_top" xlink:title="RFC2231 MIME Charset routines.">
<polygon fill="#fff0f0" stroke="red" points="1085.34,-197 1023.59,-197 1023.59,-174.75 1085.34,-174.75 1085.34,-197"/>
<text text-anchor="middle" x="1054.47" y="-183.5" font-family="Helvetica,sans-Serif" font-size="10.00">rfc2231.h</text>
</a>
</g>
</g>
<!-- Node1&#45;&gt;Node101 -->
<g id="edge37_Node000001_Node000101" class="edge">
<title>Node1&#45;&gt;Node101</title>
<g id="a_edge37_Node000001_Node000101"><a xlink:title=" ">
<path fill="none" stroke="#63b8ff" d="M655.99,-240.29C725.9,-234.9 876.11,-221.63 1012.1,-197.24"/>
<polygon fill="#63b8ff" stroke="#63b8ff" points="1012.41,-200.74 1021.62,-195.5 1011.16,-193.85 1012.41,-200.74"/>
</a>
</g>
</g>
<!-- Node102 -->
<g id="Node000102" class="node">
<title>Node102</title>
<g id="a_Node000102"><a xlink:href="url_8h.html" target="_top" xlink:title="Parse and identify different URL schemes.">
<polygon fill="#fff0f0" stroke="red" points="758.34,-138.75 720.59,-138.75 720.59,-116.5 758.34,-116.5 758.34,-138.75"/>
<text text-anchor="middle" x="739.47" y="-125.25" font-family="Helvetica,sans-Serif" font-size="10.00">url.h</text>
</a>
</g>
</g>
<!-- Node1&#45;&gt;Node102 -->
<g id="edge38_Node000001_Node000102" class="edge">
<title>Node1&#45;&gt;Node102</title>
<g id="a_edge38_Node000001_Node000102"><a xlink:title=" ">
<path fill="none" stroke="#63b8ff" d="M648.39,-232.64C667.21,-225.15 690.4,-213.46 706.47,-197 719.4,-183.75 728.08,-164.46 733.27,-149.74"/>
<polygon fill="#63b8ff" stroke="#63b8ff" points="736.5,-151.16 736.24,-140.56 729.84,-149 736.5,-151.16"/>
</a>
</g>
</g>
<!-- Node103 -->
<g id="Node000103" class="node">
<title>Node103</title>
<g id="a_Node000103"><a xlink:href="autocrypt_2lib_8h.html" target="_top" xlink:title="Autocrypt end&#45;to&#45;end encryption.">
<polygon fill="#fff0f0" stroke="red" points="558.59,-138.75 474.34,-138.75 474.34,-116.5 558.59,-116.5 558.59,-138.75"/>
<text text-anchor="middle" x="516.47" y="-125.25" font-family="Helvetica,sans-Serif" font-size="10.00">autocrypt/lib.h</text>
</a>
</g>
</g>
<!-- Node1&#45;&gt;Node103 -->
<g id="edge40_Node000001_Node000103" class="edge">
<title>Node1&#45;&gt;Node103</title>
<g id="a_edge40_Node000001_Node000103"><a xlink:title=" ">
<path fill="none" stroke="#63b8ff" d="M616.01,-232.77C614.87,-218.35 610.95,-192.05 597.47,-174.75 587.06,-161.4 571.63,-151.26 557.03,-143.93"/>
<polygon fill="#63b8ff" stroke="#63b8ff" points="558.54,-140.77 547.99,-139.73 555.58,-147.12 558.54,-140.77"/>
</a>
</g>
</g>
<!-- Node6&#45;&gt;Node2 -->
<g id="edge6_Node000006_Node000002" class="edge">
<title>Node6&#45;&gt;Node2</title>
<g id="a_edge6_Node000006_Node000002"><a xlink:title=" ">
<path fill="none" stroke="#63b8ff" d="M661.56,-60.44C622.14,-50.31 553.99,-32.81 511.45,-21.88"/>
<polygon fill="#63b8ff" stroke="#63b8ff" points="512.46,-18.53 501.9,-19.43 510.72,-25.31 512.46,-18.53"/>
</a>
</g>
</g>
<!-- Node6&#45;&gt;Node5 -->
<g id="edge7_Node000006_Node000005" class="edge">
<title>Node6&#45;&gt;Node5</title>
<g id="a_edge7_Node000006_Node000005"><a xlink:title=" ">
<path fill="none" stroke="#63b8ff" d="M723.83,-61.59C772.82,-50.99 867.16,-30.58 918,-19.58"/>
<polygon fill="#63b8ff" stroke="#63b8ff" points="918.53,-23.05 927.56,-17.51 917.05,-16.21 918.53,-23.05"/>
</a>
</g>
</g>
<!-- Node86&#45;&gt;Node2 -->
<g id="edge12_Node000086_Node000002" class="edge">
<title>Node86&#45;&gt;Node2</title>
<g id="a_edge12_Node000086_Node000002"><a xlink:title=" ">
<path fill="none" stroke="#63b8ff" d="M234.27,-63.28C279.96,-53.51 380.28,-32.06 435.37,-20.27"/>
<polygon fill="#63b8ff" stroke="#63b8ff" points="435.88,-23.74 444.93,-18.23 434.42,-16.9 435.88,-23.74"/>
</a>
</g>
</g>
<!-- Node86&#45;&gt;Node86 -->
<g id="edge13_Node000086_Node000086" class="edge">
<title>Node86&#45;&gt;Node86</title>
<g id="a_edge13_Node000086_Node000086"><a xlink:title=" ">
<path fill="none" stroke="#63b8ff" d="M234.49,-80.23C244.13,-80.84 252.22,-77.23 252.22,-69.38 252.22,-64.96 249.66,-61.88 245.71,-60.14"/>
<polygon fill="#63b8ff" stroke="#63b8ff" points="246.39,-56.71 235.99,-58.74 245.39,-63.64 246.39,-56.71"/>
</a>
</g>
</g>
<!-- Node90&#45;&gt;Node2 -->
<g id="edge15_Node000090_Node000002" class="edge">
<title>Node90&#45;&gt;Node2</title>
<g id="a_edge15_Node000090_Node000002"><a xlink:title=" ">
<path fill="none" stroke="#63b8ff" d="M282.24,-174.53C292.96,-160.57 313.27,-135.3 333.47,-116.5 370.39,-82.13 418.45,-48.34 447.58,-28.9"/>
<polygon fill="#63b8ff" stroke="#63b8ff" points="449.37,-31.92 455.79,-23.48 445.51,-26.08 449.37,-31.92"/>
</a>
</g>
</g>
<!-- Node90&#45;&gt;Node91 -->
<g id="edge16_Node000090_Node000091" class="edge">
<title>Node90&#45;&gt;Node91</title>
<g id="a_edge16_Node000090_Node000091"><a xlink:title=" ">
<path fill="none" stroke="#63b8ff" d="M268.45,-174.29C264.43,-167.22 259,-157.69 254.15,-149.16"/>
<polygon fill="#63b8ff" stroke="#63b8ff" points="257.2,-147.43 249.21,-140.47 251.11,-150.9 257.2,-147.43"/>
</a>
</g>
</g>
<!-- Node92&#45;&gt;Node2 -->
<g id="edge18_Node000092_Node000002" class="edge">
<title>Node92&#45;&gt;Node2</title>
<g id="a_edge18_Node000092_Node000002"><a xlink:title=" ">
<path fill="none" stroke="#63b8ff" d="M838.84,-174.33C859.3,-161.18 887.75,-137.85 873.47,-116.5 832.85,-55.78 603.88,-25.63 511.81,-15.82"/>
<polygon fill="#63b8ff" stroke="#63b8ff" points="512.33,-12.36 502.03,-14.81 511.61,-19.32 512.33,-12.36"/>
</a>
</g>
</g>
<!-- Node92&#45;&gt;Node5 -->
<g id="edge19_Node000092_Node000005" class="edge">
<title>Node92&#45;&gt;Node5</title>
<g id="a_edge19_Node000092_Node000005"><a xlink:title=" ">
<path fill="none" stroke="#63b8ff" d="M844.64,-175.93C874.74,-164.59 922.9,-145.68 928.47,-138.75 952.68,-108.64 955.15,-61.55 954.19,-34.08"/>
<polygon fill="#63b8ff" stroke="#63b8ff" points="957.69,-33.95 953.64,-24.16 950.7,-34.34 957.69,-33.95"/>
</a>
</g>
</g>
<!-- Node92&#45;&gt;Node6 -->
<g id="edge20_Node000092_Node000006" class="edge">
<title>Node92&#45;&gt;Node6</title>
<g id="a_edge20_Node000092_Node000006"><a xlink:title=" ">
<path fill="none" stroke="#63b8ff" d="M833.53,-174.32C849.21,-160.36 871.75,-135.32 857.47,-116.5 842.66,-96.98 778.55,-83.48 734.75,-76.34"/>
<polygon fill="#63b8ff" stroke="#63b8ff" points="735.46,-72.9 725.04,-74.81 734.37,-79.82 735.46,-72.9"/>
</a>
</g>
</g>
<!-- Node92&#45;&gt;Node93 -->
<g id="edge21_Node000092_Node000093" class="edge">
<title>Node92&#45;&gt;Node93</title>
<g id="a_edge21_Node000092_Node000093"><a xlink:title=" ">
<path fill="none" stroke="#63b8ff" d="M818.96,-174.29C818,-167.54 816.72,-158.53 815.55,-150.3"/>
<polygon fill="#63b8ff" stroke="#63b8ff" points="819.05,-150.06 814.18,-140.66 812.12,-151.05 819.05,-150.06"/>
</a>
</g>
</g>
<!-- Node93&#45;&gt;Node6 -->
<g id="edge22_Node000093_Node000006" class="edge">
<title>Node93&#45;&gt;Node6</title>
<g id="a_edge22_Node000093_Node000006"><a xlink:title=" ">
<path fill="none" stroke="#63b8ff" d="M789.9,-116.04C771.63,-107.48 745.65,-95.3 725.11,-85.68"/>
<polygon fill="#63b8ff" stroke="#63b8ff" points="726.85,-82.63 716.31,-81.55 723.88,-88.96 726.85,-82.63"/>
</a>
</g>
</g>
<!-- Node94&#45;&gt;Node2 -->
<g id="edge24_Node000094_Node000002" class="edge">
<title>Node94&#45;&gt;Node2</title>
<g id="a_edge24_Node000094_Node000002"><a xlink:title=" ">
<path fill="none" stroke="#63b8ff" d="M589.66,-116.06C567.75,-96.46 520.6,-54.28 493.58,-30.11"/>
<polygon fill="#63b8ff" stroke="#63b8ff" points="496.17,-27.73 486.38,-23.68 491.5,-32.95 496.17,-27.73"/>
</a>
</g>
</g>
<!-- Node94&#45;&gt;Node5 -->
<g id="edge25_Node000094_Node000005" class="edge">
<title>Node94&#45;&gt;Node5</title>
<g id="a_edge25_Node000094_Node000005"><a xlink:title=" ">
<path fill="none" stroke="#63b8ff" d="M606.12,-116.01C613.51,-100.52 629.5,-72.06 652.47,-58.25 696.76,-31.62 849.31,-18.72 918.21,-14.14"/>
<polygon fill="#63b8ff" stroke="#63b8ff" points="918.03,-17.66 927.78,-13.53 917.58,-10.68 918.03,-17.66"/>
</a>
</g>
</g>
<!-- Node94&#45;&gt;Node6 -->
<g id="edge26_Node000094_Node000006" class="edge">
<title>Node94&#45;&gt;Node6</title>
<g id="a_edge26_Node000094_Node000006"><a xlink:title=" ">
<path fill="none" stroke="#63b8ff" d="M618.59,-116.04C631.93,-107.8 650.7,-96.19 665.98,-86.75"/>
<polygon fill="#63b8ff" stroke="#63b8ff" points="667.48,-89.94 674.14,-81.7 663.8,-83.98 667.48,-89.94"/>
</a>
</g>
</g>
<!-- Node97&#45;&gt;Node2 -->
<g id="edge28_Node000097_Node000002" class="edge">
<title>Node97&#45;&gt;Node2</title>
<g id="a_edge28_Node000097_Node000002"><a xlink:title=" ">
<path fill="none" stroke="#63b8ff" d="M520.01,-176.56C500.34,-169.85 477.31,-158.23 465.47,-138.75 445.72,-106.27 456.23,-60.04 465.18,-33.36"/>
<polygon fill="#63b8ff" stroke="#63b8ff" points="468.45,-34.61 468.55,-24.02 461.87,-32.23 468.45,-34.61"/>
</a>
</g>
</g>
<!-- Node97&#45;&gt;Node6 -->
<g id="edge29_Node000097_Node000006" class="edge">
<title>Node97&#45;&gt;Node6</title>
<g id="a_edge29_Node000097_Node000006"><a xlink:title=" ">
<path fill="none" stroke="#63b8ff" d="M577.87,-174.35C594.85,-166.08 617.85,-153.5 635.47,-138.75 652.61,-124.41 668.58,-104.45 679.22,-89.79"/>
<polygon fill="#63b8ff" stroke="#63b8ff" points="681.91,-92.06 684.82,-81.87 676.19,-88.02 681.91,-92.06"/>
</a>
</g>
</g>
<!-- Node97&#45;&gt;Node55 -->
<g id="edge30_Node000097_Node000055" class="edge">
<title>Node97&#45;&gt;Node55</title>
<g id="a_edge30_Node000097_Node000055"><a xlink:title=" ">
<path fill="none" stroke="#63b8ff" d="M521.74,-174.29C494.04,-165.34 454.1,-152.43 423.76,-142.62"/>
<polygon fill="#63b8ff" stroke="#63b8ff" points="425.08,-139.37 414.49,-139.62 422.93,-146.03 425.08,-139.37"/>
</a>
</g>
</g>
<!-- Node98&#45;&gt;Node5 -->
<g id="edge32_Node000098_Node000005" class="edge">
<title>Node98&#45;&gt;Node5</title>
<g id="a_edge32_Node000098_Node000005"><a xlink:title=" ">
<path fill="none" stroke="#63b8ff" d="M1141.35,-61.94C1136.74,-60.71 1131.96,-59.44 1127.47,-58.25 1078.76,-45.34 1022.4,-30.51 987.09,-21.22"/>
<polygon fill="#63b8ff" stroke="#63b8ff" points="987.99,-17.84 977.43,-18.68 986.21,-24.61 987.99,-17.84"/>
</a>
</g>
</g>
<!-- Node102&#45;&gt;Node6 -->
<g id="edge39_Node000102_Node000006" class="edge">
<title>Node102&#45;&gt;Node6</title>
<g id="a_edge39_Node000102_Node000006"><a xlink:title=" ">
<path fill="none" stroke="#63b8ff" d="M730.63,-116.04C724.39,-108.58 715.86,-98.37 708.45,-89.5"/>
<polygon fill="#63b8ff" stroke="#63b8ff" points="711.34,-87.5 702.24,-82.07 705.97,-91.99 711.34,-87.5"/>
</a>
</g>
</g>
<!-- Node103&#45;&gt;Node2 -->
<g id="edge41_Node000103_Node000002" class="edge">
<title>Node103&#45;&gt;Node2</title>
<g id="a_edge41_Node000103_Node000002"><a xlink:title=" ">
<path fill="none" stroke="#63b8ff" d="M512.5,-116.06C505.46,-97.31 490.66,-57.91 481.45,-33.36"/>
<polygon fill="#63b8ff" stroke="#63b8ff" points="484.75,-32.21 477.96,-24.08 478.2,-34.68 484.75,-32.21"/>
</a>
</g>
</g>
<!-- Node103&#45;&gt;Node6 -->
<g id="edge42_Node000103_Node000006" class="edge">
<title>Node103&#45;&gt;Node6</title>
<g id="a_edge42_Node000103_Node000006"><a xlink:title=" ">
<path fill="none" stroke="#63b8ff" d="M549.57,-116.04C578.13,-106.92 619.53,-93.69 650.42,-83.81"/>
<polygon fill="#63b8ff" stroke="#63b8ff" points="651.38,-87.18 659.84,-80.8 649.25,-80.51 651.38,-87.18"/>
</a>
</g>
</g>
</g>
</svg>
