<?xml version="1.0" encoding="UTF-8" standalone="no"?>
<!DOCTYPE svg PUBLIC "-//W3C//DTD SVG 1.1//EN"
 "http://www.w3.org/Graphics/SVG/1.1/DTD/svg11.dtd">
<!-- Generated by graphviz version 2.40.1 (20161225.0304)
 -->
<!-- Title: mutt_env_new Pages: 1 -->
<svg width="707pt" height="646pt"
 viewBox="0.00 0.00 707.00 645.81" xmlns="http://www.w3.org/2000/svg" xmlns:xlink="http://www.w3.org/1999/xlink">
<g id="graph0" class="graph" transform="scale(1 1) rotate(0) translate(4 641.8092)">
<title>mutt_env_new</title>
<polygon fill="#ffffff" stroke="transparent" points="-4,4 -4,-641.8092 703,-641.8092 703,4 -4,4"/>
<!-- Node3 -->
<g id="node1" class="node">
<title>Node3</title>
<polygon fill="#bfbfbf" stroke="#000000" points="0,-297.5 0,-316.5 89,-316.5 89,-297.5 0,-297.5"/>
<text text-anchor="middle" x="44.5" y="-304.5" font-family="Helvetica,sans-Serif" font-size="10.00" fill="#000000">mutt_env_new</text>
</g>
<!-- Node4 -->
<g id="node2" class="node">
<title>Node4</title>
<g id="a_node2"><a xlink:href="autocrypt_2lib_8h.html#a30461121efab5b3f112767d63191c507" target="_top" xlink:title="Create the gossip list headers. ">
<polygon fill="#ffffff" stroke="#000000" points="126,-393 126,-423 266,-423 266,-393 126,-393"/>
<text text-anchor="start" x="134" y="-411" font-family="Helvetica,sans-Serif" font-size="10.00" fill="#000000">mutt_autocrypt_generate</text>
<text text-anchor="middle" x="196" y="-400" font-family="Helvetica,sans-Serif" font-size="10.00" fill="#000000">_gossip_list</text>
</a>
</g>
</g>
<!-- Node3&#45;&gt;Node4 -->
<g id="edge1" class="edge">
<title>Node3&#45;&gt;Node4</title>
<path fill="none" stroke="#191970" d="M60.7897,-324.2597C76.1996,-339.8454 100.5499,-362.6275 125,-378 133.9495,-383.6268 144.1369,-388.6378 153.9458,-392.8771"/>
<polygon fill="#191970" stroke="#191970" points="63.0687,-321.5824 53.5931,-316.8427 58.0448,-326.4569 63.0687,-321.5824"/>
</g>
<!-- Node5 -->
<g id="node3" class="node">
<title>Node5</title>
<g id="a_node3"><a xlink:href="ncrypt_2lib_8h.html#a896502d4448fefadaf8786a4f2d5556e" target="_top" xlink:title="Encrypt and/or sign a message. ">
<polygon fill="#ffffff" stroke="#ff0000" points="303,-442.5 303,-461.5 383,-461.5 383,-442.5 303,-442.5"/>
<text text-anchor="middle" x="343" y="-449.5" font-family="Helvetica,sans-Serif" font-size="10.00" fill="#000000">mutt_protect</text>
</a>
</g>
</g>
<!-- Node3&#45;&gt;Node5 -->
<g id="edge17" class="edge">
<title>Node3&#45;&gt;Node5</title>
<path fill="none" stroke="#191970" d="M50.7588,-326.2949C61.1471,-354.8689 84.8785,-407.6727 125,-432 179.5979,-465.1049 256.4208,-463.3729 302.7851,-458.2704"/>
<polygon fill="#191970" stroke="#191970" points="53.9971,-324.9495 47.4244,-316.6398 47.3806,-327.2346 53.9971,-324.9495"/>
</g>
<!-- Node7 -->
<g id="node4" class="node">
<title>Node7</title>
<g id="a_node4"><a xlink:href="send_8h.html#a95072c8ec793d76eddf1dfb47216fdda" target="_top" xlink:title="Send an email. ">
<polygon fill="#ffffff" stroke="#ff0000" points="419,-472.5 419,-491.5 522,-491.5 522,-472.5 419,-472.5"/>
<text text-anchor="middle" x="470.5" y="-479.5" font-family="Helvetica,sans-Serif" font-size="10.00" fill="#000000">ci_send_message</text>
</a>
</g>
</g>
<!-- Node3&#45;&gt;Node7 -->
<g id="edge23" class="edge">
<title>Node3&#45;&gt;Node7</title>
<path fill="none" stroke="#191970" d="M48.3631,-326.9306C56.1485,-361.0718 77.2311,-430.049 125,-461 219.4348,-522.1873 360.5686,-505.0995 429.562,-491.5086"/>
<polygon fill="#191970" stroke="#191970" points="51.7117,-325.8494 46.2133,-316.7931 44.864,-327.3016 51.7117,-325.8494"/>
</g>
<!-- Node10 -->
<g id="node5" class="node">
<title>Node10</title>
<g id="a_node5"><a xlink:href="main_8c.html#adedb285b02c41bde2158ded9cc9fd7ac" target="_top" xlink:title="Start NeoMutt. ">
<polygon fill="#ffffff" stroke="#000000" points="608,-581.5 608,-600.5 649,-600.5 649,-581.5 608,-581.5"/>
<text text-anchor="middle" x="628.5" y="-588.5" font-family="Helvetica,sans-Serif" font-size="10.00" fill="#000000">main</text>
</a>
</g>
</g>
<!-- Node3&#45;&gt;Node10 -->
<g id="edge14" class="edge">
<title>Node3&#45;&gt;Node10</title>
<path fill="none" stroke="#191970" d="M47.8264,-326.674C57.5107,-381.5254 87.3978,-534.2163 125,-566 270.5476,-689.0259 532.7742,-620.851 607.8856,-597.7319"/>
<polygon fill="#191970" stroke="#191970" points="51.2254,-325.7895 46.071,-316.5331 44.328,-326.9835 51.2254,-325.7895"/>
</g>
<!-- Node225 -->
<g id="node6" class="node">
<title>Node225</title>
<g id="a_node6"><a xlink:href="query_8c.html#a1ca9d237583501cf25a206723b5c15ec" target="_top" xlink:title="Get the user to enter an Address Query. ">
<polygon fill="#ffffff" stroke="#ff0000" points="590,-534.5 590,-553.5 667,-553.5 667,-534.5 590,-534.5"/>
<text text-anchor="middle" x="628.5" y="-541.5" font-family="Helvetica,sans-Serif" font-size="10.00" fill="#000000">query_menu</text>
</a>
</g>
</g>
<!-- Node3&#45;&gt;Node225 -->
<g id="edge18" class="edge">
<title>Node3&#45;&gt;Node225</title>
<path fill="none" stroke="#191970" d="M48.8695,-326.4614C60.1942,-375.0307 91.9261,-499.4447 125,-524 271.2746,-632.5995 512.7554,-577.7476 597.7501,-553.507"/>
<polygon fill="#191970" stroke="#191970" points="52.2493,-325.5405 46.6036,-316.5752 45.4262,-327.1044 52.2493,-325.5405"/>
</g>
<!-- Node138 -->
<g id="node7" class="node">
<title>Node138</title>
<g id="a_node7"><a xlink:href="recvcmd_8c.html#a7c55bf567b5f09c72e507d90b4d97ed4" target="_top" xlink:title="forward one or several MIME bodies ">
<polygon fill="#ffffff" stroke="#ff0000" points="564.5,-477.5 564.5,-496.5 692.5,-496.5 692.5,-477.5 564.5,-477.5"/>
<text text-anchor="middle" x="628.5" y="-484.5" font-family="Helvetica,sans-Serif" font-size="10.00" fill="#000000">attach_forward_bodies</text>
</a>
</g>
</g>
<!-- Node3&#45;&gt;Node138 -->
<g id="edge19" class="edge">
<title>Node3&#45;&gt;Node138</title>
<path fill="none" stroke="#191970" d="M46.3535,-326.5143C51.2501,-366.0702 68.3424,-455.4615 125,-497 194.3647,-547.8547 454.5138,-514.6334 571.2187,-496.5314"/>
<polygon fill="#191970" stroke="#191970" points="49.8302,-326.1102 45.2532,-316.5551 42.8725,-326.879 49.8302,-326.1102"/>
</g>
<!-- Node141 -->
<g id="node8" class="node">
<title>Node141</title>
<g id="a_node8"><a xlink:href="recvcmd_8c.html#ab39fb82ff6781463a0a5953e6f470312" target="_top" xlink:title="Forward one or several message&#45;type attachments. ">
<polygon fill="#ffffff" stroke="#ff0000" points="567.5,-428.5 567.5,-447.5 689.5,-447.5 689.5,-428.5 567.5,-428.5"/>
<text text-anchor="middle" x="628.5" y="-435.5" font-family="Helvetica,sans-Serif" font-size="10.00" fill="#000000">attach_forward_msgs</text>
</a>
</g>
</g>
<!-- Node3&#45;&gt;Node141 -->
<g id="edge20" class="edge">
<title>Node3&#45;&gt;Node141</title>
<path fill="none" stroke="#191970" d="M81.0458,-319.7153C94.7382,-324.2377 110.4916,-329.156 125,-333 286.1942,-375.7085 480.1505,-411.9826 573.2887,-428.4823"/>
<polygon fill="#191970" stroke="#191970" points="82.0811,-316.371 71.4872,-316.5134 79.8576,-323.0085 82.0811,-316.371"/>
</g>
<!-- Node140 -->
<g id="node9" class="node">
<title>Node140</title>
<g id="a_node9"><a xlink:href="recvcmd_8h.html#a6e40010e67b096350dbb4344e2d7449e" target="_top" xlink:title="Attach a reply. ">
<polygon fill="#ffffff" stroke="#ff0000" points="575.5,-368.5 575.5,-387.5 681.5,-387.5 681.5,-368.5 575.5,-368.5"/>
<text text-anchor="middle" x="628.5" y="-375.5" font-family="Helvetica,sans-Serif" font-size="10.00" fill="#000000">mutt_attach_reply</text>
</a>
</g>
</g>
<!-- Node3&#45;&gt;Node140 -->
<g id="edge21" class="edge">
<title>Node3&#45;&gt;Node140</title>
<path fill="none" stroke="#191970" d="M99.3629,-310.7798C206.9468,-318.3832 442.0798,-335.997 522,-350 547.7986,-354.5202 576.4854,-362.2214 597.5806,-368.4043"/>
<polygon fill="#191970" stroke="#191970" points="99.5803,-307.2865 89.3592,-310.0757 99.0888,-314.2692 99.5803,-307.2865"/>
</g>
<!-- Node378 -->
<g id="node10" class="node">
<title>Node378</title>
<g id="a_node10"><a xlink:href="recvcmd_8h.html#a974b16877e9bb00f6680674b641591f9" target="_top" xlink:title="Compose an email to the sender in the email attachment. ">
<polygon fill="#ffffff" stroke="#ff0000" points="558,-286.5 558,-305.5 699,-305.5 699,-286.5 558,-286.5"/>
<text text-anchor="middle" x="628.5" y="-293.5" font-family="Helvetica,sans-Serif" font-size="10.00" fill="#000000">mutt_attach_mail_sender</text>
</a>
</g>
</g>
<!-- Node3&#45;&gt;Node378 -->
<g id="edge22" class="edge">
<title>Node3&#45;&gt;Node378</title>
<path fill="none" stroke="#191970" d="M99.5588,-305.9629C206.027,-303.9575 439.9905,-299.5507 557.7879,-297.3319"/>
<polygon fill="#191970" stroke="#191970" points="99.2881,-302.4673 89.3558,-306.1551 99.42,-309.4661 99.2881,-302.4673"/>
</g>
<!-- Node519 -->
<g id="node11" class="node">
<title>Node519</title>
<g id="a_node11"><a xlink:href="parse_8h.html#a2a830caa65e6f462ab0ecae77bce746b" target="_top" xlink:title="Check if user is subscribed to mailing list. ">
<polygon fill="#ffffff" stroke="#ff0000" points="136.5,-240.5 136.5,-259.5 255.5,-259.5 255.5,-240.5 136.5,-240.5"/>
<text text-anchor="middle" x="196" y="-247.5" font-family="Helvetica,sans-Serif" font-size="10.00" fill="#000000">mutt_auto_subscribe</text>
</a>
</g>
</g>
<!-- Node3&#45;&gt;Node519 -->
<g id="edge10" class="edge">
<title>Node3&#45;&gt;Node519</title>
<path fill="none" stroke="#191970" d="M76.5351,-293.3252C91.2198,-287.1971 108.9051,-280.0124 125,-274 138.5297,-268.9459 153.6748,-263.7625 166.4909,-259.5122"/>
<polygon fill="#191970" stroke="#191970" points="74.7682,-290.2712 66.9046,-297.3716 77.4797,-296.7247 74.7682,-290.2712"/>
</g>
<!-- Node94 -->
<g id="node12" class="node">
<title>Node94</title>
<g id="a_node12"><a xlink:href="parse_8h.html#a32cd9ed48d31f100bd8525018e1450da" target="_top" xlink:title="parses an RFC822 header ">
<polygon fill="#ffffff" stroke="#ff0000" points="125,-202.5 125,-221.5 267,-221.5 267,-202.5 125,-202.5"/>
<text text-anchor="middle" x="196" y="-209.5" font-family="Helvetica,sans-Serif" font-size="10.00" fill="#000000">mutt_rfc822_read_header</text>
</a>
</g>
</g>
<!-- Node3&#45;&gt;Node94 -->
<g id="edge11" class="edge">
<title>Node3&#45;&gt;Node94</title>
<path fill="none" stroke="#191970" d="M58.6162,-289.3064C73.3861,-271.9585 98.1314,-245.9962 125,-231 131.9081,-227.1443 139.6346,-224.0418 147.3779,-221.5538"/>
<polygon fill="#191970" stroke="#191970" points="55.5232,-287.5541 51.8434,-297.4894 60.9158,-292.0174 55.5232,-287.5541"/>
</g>
<!-- Node521 -->
<g id="node13" class="node">
<title>Node521</title>
<g id="a_node13"><a xlink:href="parse_8h.html#ad373211d5d49e235c1aa9b818f0f10a1" target="_top" xlink:title="Parse a MIME header. ">
<polygon fill="#ffffff" stroke="#ff0000" points="126,-164.5 126,-183.5 266,-183.5 266,-164.5 126,-164.5"/>
<text text-anchor="middle" x="196" y="-171.5" font-family="Helvetica,sans-Serif" font-size="10.00" fill="#000000">mutt_read_mime_header</text>
</a>
</g>
</g>
<!-- Node3&#45;&gt;Node521 -->
<g id="edge12" class="edge">
<title>Node3&#45;&gt;Node521</title>
<path fill="none" stroke="#191970" d="M52.7854,-287.9903C64.8999,-262.4586 89.8857,-217.4752 125,-193 130.5481,-189.1329 136.8422,-186.0526 143.3355,-183.5991"/>
<polygon fill="#191970" stroke="#191970" points="49.4899,-286.781 48.5182,-297.3312 55.857,-289.6897 49.4899,-286.781"/>
</g>
<!-- Node527 -->
<g id="node14" class="node">
<title>Node527</title>
<g id="a_node14"><a xlink:href="hcache_8c.html#ab8ce7457145c54b7efb24890404ac9d2" target="_top" xlink:title="Restore an Email from data retrieved from the cache. ">
<polygon fill="#ffffff" stroke="#ff0000" points="170.5,-126.5 170.5,-145.5 221.5,-145.5 221.5,-126.5 170.5,-126.5"/>
<text text-anchor="middle" x="196" y="-133.5" font-family="Helvetica,sans-Serif" font-size="10.00" fill="#000000">restore</text>
</a>
</g>
</g>
<!-- Node3&#45;&gt;Node527 -->
<g id="edge13" class="edge">
<title>Node3&#45;&gt;Node527</title>
<path fill="none" stroke="#191970" d="M49.3788,-287.3853C58.5116,-254.8292 81.3318,-189.7824 125,-155 137.8754,-144.7446 155.8032,-140.0002 170.4223,-137.8168"/>
<polygon fill="#191970" stroke="#191970" points="45.8918,-286.8795 46.7075,-297.4429 52.6573,-288.6765 45.8918,-286.8795"/>
</g>
<!-- Node170 -->
<g id="node15" class="node">
<title>Node170</title>
<g id="a_node15"><a xlink:href="muttlib_8h.html#a2fa448bbbf2c34fdf00ea41a699768af" target="_top" xlink:title="Create the canonical path (with regex char escaping) ">
<polygon fill="#ffffff" stroke="#ff0000" points="138.5,-77 138.5,-107 253.5,-107 253.5,-77 138.5,-77"/>
<text text-anchor="start" x="146.5" y="-95" font-family="Helvetica,sans-Serif" font-size="10.00" fill="#000000">mutt_buffer_expand</text>
<text text-anchor="middle" x="196" y="-84" font-family="Helvetica,sans-Serif" font-size="10.00" fill="#000000">_path_regex</text>
</a>
</g>
</g>
<!-- Node3&#45;&gt;Node170 -->
<g id="edge15" class="edge">
<title>Node3&#45;&gt;Node170</title>
<path fill="none" stroke="#191970" d="M47.4801,-287.2585C54.2662,-249.0463 74.3876,-164.5583 125,-117 129.0951,-113.152 133.8177,-109.8914 138.8414,-107.1293"/>
<polygon fill="#191970" stroke="#191970" points="44.0243,-286.7044 45.8439,-297.1418 50.9303,-287.8478 44.0243,-286.7044"/>
</g>
<!-- Node236 -->
<g id="node16" class="node">
<title>Node236</title>
<g id="a_node16"><a xlink:href="mx_8h.html#a5fd7ddec18249a46944727c7297add2f" target="_top" xlink:title="Canonicalise a mailbox path &#45; Wrapper for MxOps::path_canon() ">
<polygon fill="#ffffff" stroke="#ff0000" points="149,-38.5 149,-57.5 243,-57.5 243,-38.5 149,-38.5"/>
<text text-anchor="middle" x="196" y="-45.5" font-family="Helvetica,sans-Serif" font-size="10.00" fill="#000000">mx_path_canon</text>
</a>
</g>
</g>
<!-- Node3&#45;&gt;Node236 -->
<g id="edge16" class="edge">
<title>Node3&#45;&gt;Node236</title>
<path fill="none" stroke="#191970" d="M48.5289,-287.6276C59.5878,-236.228 91.8062,-98.1925 125,-67 131.6021,-60.796 140.0034,-56.5717 148.698,-53.7064"/>
<polygon fill="#191970" stroke="#191970" points="45.0932,-286.9579 46.4443,-297.4662 51.9412,-288.4089 45.0932,-286.9579"/>
</g>
<!-- Node532 -->
<g id="node17" class="node">
<title>Node532</title>
<g id="a_node17"><a xlink:href="mutt__env__new_8c.html#a2a10daad23f3284aee0added6b007cd8" target="_top" xlink:title="test_mutt_env_new">
<polygon fill="#ffffff" stroke="#000000" points="139.5,-.5 139.5,-19.5 252.5,-19.5 252.5,-.5 139.5,-.5"/>
<text text-anchor="middle" x="196" y="-7.5" font-family="Helvetica,sans-Serif" font-size="10.00" fill="#000000">test_mutt_env_new</text>
</a>
</g>
</g>
<!-- Node3&#45;&gt;Node532 -->
<g id="edge24" class="edge">
<title>Node3&#45;&gt;Node532</title>
<path fill="none" stroke="#191970" d="M47.6454,-287.282C57.1453,-230.1151 87.2262,-66.0117 125,-29 129.1014,-24.9813 133.9547,-21.7884 139.1689,-19.2551"/>
<polygon fill="#191970" stroke="#191970" points="44.1346,-287.0651 45.9792,-297.4981 51.0433,-288.1919 44.1346,-287.0651"/>
</g>
<!-- Node4&#45;&gt;Node5 -->
<g id="edge2" class="edge">
<title>Node4&#45;&gt;Node5</title>
<path fill="none" stroke="#191970" d="M255.9018,-425.9298C274.765,-431.5759 294.8664,-437.5927 310.9998,-442.4217"/>
<polygon fill="#191970" stroke="#191970" points="256.7616,-422.5338 246.1779,-423.0192 254.7543,-429.2398 256.7616,-422.5338"/>
</g>
<!-- Node5&#45;&gt;Node7 -->
<g id="edge3" class="edge">
<title>Node5&#45;&gt;Node7</title>
<path fill="none" stroke="#191970" d="M393.3513,-463.8474C405.5071,-466.7076 418.3436,-469.7279 429.983,-472.4666"/>
<polygon fill="#191970" stroke="#191970" points="393.8776,-460.3757 383.3418,-461.4922 392.2743,-467.1896 393.8776,-460.3757"/>
</g>
<!-- Node7&#45;&gt;Node10 -->
<g id="edge4" class="edge">
<title>Node7&#45;&gt;Node10</title>
<path fill="none" stroke="#191970" d="M485.4423,-499.1684C501.7768,-517.0777 529.4503,-545.0032 558,-563 573.5971,-572.8319 593.2195,-580.2842 607.7998,-585.0191"/>
<polygon fill="#191970" stroke="#191970" points="488.0498,-496.8337 478.7727,-491.7163 482.8337,-501.502 488.0498,-496.8337"/>
</g>
<!-- Node7&#45;&gt;Node225 -->
<g id="edge5" class="edge">
<title>Node7&#45;&gt;Node225</title>
<path fill="none" stroke="#191970" d="M504.4706,-495.3303C534.459,-507.0978 577.4442,-523.9655 604.1311,-534.4375"/>
<polygon fill="#191970" stroke="#191970" points="505.4287,-491.9464 494.8412,-491.5516 502.8717,-498.4627 505.4287,-491.9464"/>
</g>
<!-- Node7&#45;&gt;Node138 -->
<g id="edge6" class="edge">
<title>Node7&#45;&gt;Node138</title>
<path fill="none" stroke="#191970" d="M532.5578,-483.9639C543.0492,-484.2959 553.9588,-484.6411 564.4987,-484.9746"/>
<polygon fill="#191970" stroke="#191970" points="532.3408,-480.4553 522.2351,-483.6372 532.1194,-487.4518 532.3408,-480.4553"/>
</g>
<!-- Node7&#45;&gt;Node141 -->
<g id="edge7" class="edge">
<title>Node7&#45;&gt;Node141</title>
<path fill="none" stroke="#191970" d="M514.4809,-469.7522C539.7055,-462.7276 570.902,-454.04 594.2833,-447.5287"/>
<polygon fill="#191970" stroke="#191970" points="513.4781,-466.3982 504.7836,-472.4527 515.3561,-473.1416 513.4781,-466.3982"/>
</g>
<!-- Node7&#45;&gt;Node140 -->
<g id="edge8" class="edge">
<title>Node7&#45;&gt;Node140</title>
<path fill="none" stroke="#191970" d="M491.3079,-466.1428C508.7893,-453.035 534.5962,-434.1796 558,-419 575.581,-407.5971 596.3971,-395.6754 610.8316,-387.646"/>
<polygon fill="#191970" stroke="#191970" points="488.8575,-463.6072 482.982,-472.4236 493.0731,-469.1955 488.8575,-463.6072"/>
</g>
<!-- Node7&#45;&gt;Node378 -->
<g id="edge9" class="edge">
<title>Node7&#45;&gt;Node378</title>
<path fill="none" stroke="#191970" d="M481.8694,-463.4058C497.5291,-438.4546 527.3007,-393.3095 558,-359 576.6071,-338.2047 601.5907,-317.2465 616.2766,-305.512"/>
<polygon fill="#191970" stroke="#191970" points="478.7096,-461.8598 476.41,-472.2021 484.6572,-465.5512 478.7096,-461.8598"/>
</g>
</g>
</svg>
