<?xml version="1.0" encoding="UTF-8" standalone="no"?>
<!DOCTYPE svg PUBLIC "-//W3C//DTD SVG 1.1//EN"
 "http://www.w3.org/Graphics/SVG/1.1/DTD/svg11.dtd">
<!-- Generated by graphviz version 7.1.0 (0)
 -->
<!-- Title: mutt_env_to_local Pages: 1 -->
<svg width="426pt" height="64pt"
 viewBox="0.00 0.00 426.00 64.00" xmlns="http://www.w3.org/2000/svg" xmlns:xlink="http://www.w3.org/1999/xlink">
<g id="graph0" class="graph" transform="scale(1 1) rotate(0) translate(4 60)">
<title>mutt_env_to_local</title>
<!-- Node1 -->
<g id="node1" class="node">
<title>Node1</title>
<g id="a_node1"><a xlink:title="Convert an Envelope&#39;s Address fields to local format.">
<polygon fill="#999999" stroke="#666666" points="418,-38 318,-38 318,-19 418,-19 418,-38"/>
<text text-anchor="middle" x="368" y="-26" font-family="Helvetica,sans-Serif" font-size="10.00">mutt_env_to_local</text>
</a>
</g>
</g>
<!-- Node2 -->
<g id="node2" class="node">
<title>Node2</title>
<g id="a_node2"><a xlink:href="mutt__header_8c.html#add6fa85ce7ef8dcad27d465fbbc27708" target="_top" xlink:title="Let the user edit the message header and body.">
<polygon fill="white" stroke="#666666" points="282,-38 178,-38 178,-19 282,-19 282,-38"/>
<text text-anchor="middle" x="230" y="-26" font-family="Helvetica,sans-Serif" font-size="10.00">mutt_edit_headers</text>
</a>
</g>
</g>
<!-- Node1&#45;&gt;Node2 -->
<g id="edge1" class="edge">
<title>Node1&#45;&gt;Node2</title>
<path fill="none" stroke="#63b8ff" d="M306.23,-28.5C298.15,-28.5 289.94,-28.5 282.05,-28.5"/>
<polygon fill="#63b8ff" stroke="#63b8ff" points="306,-32 316,-28.5 306,-25 306,-32"/>
</g>
<!-- Node3 -->
<g id="node3" class="node">
<title>Node3</title>
<g id="a_node3"><a xlink:href="send_8c.html#ad9c2899c7c3a76d2ce3b911221705a30" target="_top" xlink:title="Send an email.">
<polygon fill="#fff0f0" stroke="red" points="127,-56 15,-56 15,-37 127,-37 127,-56"/>
<text text-anchor="middle" x="71" y="-44" font-family="Helvetica,sans-Serif" font-size="10.00">mutt_send_message</text>
</a>
</g>
</g>
<!-- Node1&#45;&gt;Node3 -->
<g id="edge4" class="edge">
<title>Node1&#45;&gt;Node3</title>
<path fill="none" stroke="#63b8ff" d="M319.96,-40.95C307.7,-43.66 294.43,-46.13 282,-47.5 229.82,-53.26 169.89,-52.22 127.45,-50.21"/>
<polygon fill="#63b8ff" stroke="#63b8ff" points="320.47,-44.42 329.42,-38.75 318.89,-37.6 320.47,-44.42"/>
</g>
<!-- Node37 -->
<g id="node4" class="node">
<title>Node37</title>
<g id="a_node4"><a xlink:href="group__compose__function__api.html#ga93882bbe0d62ab80cd2e1ac10ca997bd" target="_top" xlink:title="Edit the message with headers &#45; Implements compose_function_t &#45;.">
<polygon fill="#fff0f0" stroke="red" points="142,-19 0,-19 0,0 142,0 142,-19"/>
<text text-anchor="middle" x="71" y="-7" font-family="Helvetica,sans-Serif" font-size="10.00">op_envelope_edit_headers</text>
</a>
</g>
</g>
<!-- Node1&#45;&gt;Node37 -->
<g id="edge5" class="edge">
<title>Node1&#45;&gt;Node37</title>
<path fill="none" stroke="#63b8ff" d="M319.96,-16.05C307.7,-13.34 294.43,-10.87 282,-9.5 235.62,-4.38 183.12,-4.38 142.21,-5.66"/>
<polygon fill="#63b8ff" stroke="#63b8ff" points="318.89,-19.4 329.42,-18.25 320.47,-12.58 318.89,-19.4"/>
</g>
<!-- Node2&#45;&gt;Node3 -->
<g id="edge2" class="edge">
<title>Node2&#45;&gt;Node3</title>
<path fill="none" stroke="#63b8ff" d="M166.42,-35.67C153.49,-37.16 139.96,-38.71 127.31,-40.16"/>
<polygon fill="#63b8ff" stroke="#63b8ff" points="166.55,-39.18 176.09,-34.57 165.76,-32.23 166.55,-39.18"/>
</g>
<!-- Node2&#45;&gt;Node37 -->
<g id="edge3" class="edge">
<title>Node2&#45;&gt;Node37</title>
<path fill="none" stroke="#63b8ff" d="M166.26,-20.91C158.4,-19.96 150.31,-18.98 142.34,-18.01"/>
<polygon fill="#63b8ff" stroke="#63b8ff" points="165.74,-24.37 176.09,-22.1 166.58,-17.42 165.74,-24.37"/>
</g>
</g>
</svg>
