<?xml version="1.0" encoding="UTF-8" standalone="no"?>
<!DOCTYPE svg PUBLIC "-//W3C//DTD SVG 1.1//EN"
 "http://www.w3.org/Graphics/SVG/1.1/DTD/svg11.dtd">
<!-- Generated by graphviz version 7.1.0 (0)
 -->
<!-- Title: pattern/exec.c Pages: 1 -->
<svg width="1468pt" height="247pt"
 viewBox="0.00 0.00 1468.49 247.00" xmlns="http://www.w3.org/2000/svg" xmlns:xlink="http://www.w3.org/1999/xlink">
<g id="graph0" class="graph" transform="scale(1 1) rotate(0) translate(4 243)">
<title>pattern/exec.c</title>
<!-- Node1 -->
<g id="node1" class="node">
<title>Node1</title>
<g id="a_node1"><a xlink:title="Execute a Pattern.">
<polygon fill="#999999" stroke="#666666" points="748.99,-239 664.99,-239 664.99,-220 748.99,-220 748.99,-239"/>
<text text-anchor="middle" x="706.99" y="-227" font-family="Helvetica,sans-Serif" font-size="10.00">pattern/exec.c</text>
</a>
</g>
</g>
<!-- Node2 -->
<g id="node2" class="node">
<title>Node2</title>
<g id="a_node2"><a xlink:title=" ">
<polygon fill="#e0e0e0" stroke="#999999" points="542.99,-19 488.99,-19 488.99,0 542.99,0 542.99,-19"/>
<text text-anchor="middle" x="515.99" y="-7" font-family="Helvetica,sans-Serif" font-size="10.00">config.h</text>
</a>
</g>
</g>
<!-- Node1&#45;&gt;Node2 -->
<g id="edge1" class="edge">
<title>Node1&#45;&gt;Node2</title>
<path fill="none" stroke="#63b8ff" d="M664.96,-229.01C523.16,-230.29 68.75,-230.7 24.99,-184 -109.69,-40.24 340.63,-15.51 477.65,-11.33"/>
<polygon fill="#63b8ff" stroke="#63b8ff" points="477.4,-14.84 487.3,-11.06 477.21,-7.84 477.4,-14.84"/>
</g>
<!-- Node3 -->
<g id="node3" class="node">
<title>Node3</title>
<g id="a_node3"><a xlink:title=" ">
<polygon fill="#e0e0e0" stroke="#999999" points="87.99,-184 33.99,-184 33.99,-165 87.99,-165 87.99,-184"/>
<text text-anchor="middle" x="60.99" y="-172" font-family="Helvetica,sans-Serif" font-size="10.00">assert.h</text>
</a>
</g>
</g>
<!-- Node1&#45;&gt;Node3 -->
<g id="edge2" class="edge">
<title>Node1&#45;&gt;Node3</title>
<path fill="none" stroke="#63b8ff" d="M664.58,-227.72C566.66,-225.43 317.2,-216.77 99.74,-184.17"/>
<polygon fill="#63b8ff" stroke="#63b8ff" points="100.33,-180.72 89.92,-182.68 99.28,-187.64 100.33,-180.72"/>
</g>
<!-- Node4 -->
<g id="node4" class="node">
<title>Node4</title>
<g id="a_node4"><a xlink:title=" ">
<polygon fill="#e0e0e0" stroke="#999999" points="161.49,-184 106.49,-184 106.49,-165 161.49,-165 161.49,-184"/>
<text text-anchor="middle" x="133.99" y="-172" font-family="Helvetica,sans-Serif" font-size="10.00">stdarg.h</text>
</a>
</g>
</g>
<!-- Node1&#45;&gt;Node4 -->
<g id="edge3" class="edge">
<title>Node1&#45;&gt;Node4</title>
<path fill="none" stroke="#63b8ff" d="M664.82,-226.63C574.71,-222.27 356.87,-209.79 175.99,-184 175,-183.86 173.99,-183.71 172.97,-183.55"/>
<polygon fill="#63b8ff" stroke="#63b8ff" points="173.87,-180.15 163.42,-181.88 172.67,-187.05 173.87,-180.15"/>
</g>
<!-- Node5 -->
<g id="node5" class="node">
<title>Node5</title>
<g id="a_node5"><a xlink:title=" ">
<polygon fill="#e0e0e0" stroke="#999999" points="953.99,-19 893.99,-19 893.99,0 953.99,0 953.99,-19"/>
<text text-anchor="middle" x="923.99" y="-7" font-family="Helvetica,sans-Serif" font-size="10.00">stdbool.h</text>
</a>
</g>
</g>
<!-- Node1&#45;&gt;Node5 -->
<g id="edge4" class="edge">
<title>Node1&#45;&gt;Node5</title>
<path fill="none" stroke="#63b8ff" d="M749.36,-228.13C879.96,-226.62 1270.16,-219.17 1313.99,-184 1360.15,-146.96 1386.59,-98.98 1346.99,-55 1321.75,-26.96 1067.14,-15.33 965.54,-11.78"/>
<polygon fill="#63b8ff" stroke="#63b8ff" points="965.84,-8.28 955.72,-11.44 965.6,-15.28 965.84,-8.28"/>
</g>
<!-- Node6 -->
<g id="node6" class="node">
<title>Node6</title>
<g id="a_node6"><a xlink:title=" ">
<polygon fill="#e0e0e0" stroke="#999999" points="1114.99,-129 1066.99,-129 1066.99,-110 1114.99,-110 1114.99,-129"/>
<text text-anchor="middle" x="1090.99" y="-117" font-family="Helvetica,sans-Serif" font-size="10.00">stdio.h</text>
</a>
</g>
</g>
<!-- Node1&#45;&gt;Node6 -->
<g id="edge5" class="edge">
<title>Node1&#45;&gt;Node6</title>
<path fill="none" stroke="#63b8ff" d="M749.21,-228.81C834.18,-228.59 1021.81,-223.5 1069.99,-184 1082.91,-173.41 1087.94,-154.67 1089.87,-140.28"/>
<polygon fill="#63b8ff" stroke="#63b8ff" points="1093.33,-140.86 1090.75,-130.58 1086.36,-140.23 1093.33,-140.86"/>
</g>
<!-- Node7 -->
<g id="node7" class="node">
<title>Node7</title>
<g id="a_node7"><a xlink:title=" ">
<polygon fill="#e0e0e0" stroke="#999999" points="309.49,-184 256.49,-184 256.49,-165 309.49,-165 309.49,-184"/>
<text text-anchor="middle" x="282.99" y="-172" font-family="Helvetica,sans-Serif" font-size="10.00">string.h</text>
</a>
</g>
</g>
<!-- Node1&#45;&gt;Node7 -->
<g id="edge6" class="edge">
<title>Node1&#45;&gt;Node7</title>
<path fill="none" stroke="#63b8ff" d="M664.56,-225.28C594.91,-219.63 451.83,-206.54 320.69,-184.08"/>
<polygon fill="#63b8ff" stroke="#63b8ff" points="321.6,-180.69 311.15,-182.42 320.4,-187.58 321.6,-180.69"/>
</g>
<!-- Node8 -->
<g id="node8" class="node">
<title>Node8</title>
<g id="a_node8"><a xlink:title=" ">
<polygon fill="#e0e0e0" stroke="#999999" points="381.99,-184 327.99,-184 327.99,-165 381.99,-165 381.99,-184"/>
<text text-anchor="middle" x="354.99" y="-172" font-family="Helvetica,sans-Serif" font-size="10.00">unistd.h</text>
</a>
</g>
</g>
<!-- Node1&#45;&gt;Node8 -->
<g id="edge7" class="edge">
<title>Node1&#45;&gt;Node8</title>
<path fill="none" stroke="#63b8ff" d="M664.62,-223.79C605.93,-216.99 496.37,-203.31 393.65,-184.35"/>
<polygon fill="#63b8ff" stroke="#63b8ff" points="394.42,-180.93 383.94,-182.54 393.13,-187.81 394.42,-180.93"/>
</g>
<!-- Node9 -->
<g id="node9" class="node">
<title>Node9</title>
<g id="a_node9"><a xlink:href="pattern_2private_8h.html" target="_top" xlink:title="Shared constants/structs that are private to libpattern.">
<polygon fill="white" stroke="#666666" points="583.49,-184 524.49,-184 524.49,-165 583.49,-165 583.49,-184"/>
<text text-anchor="middle" x="553.99" y="-172" font-family="Helvetica,sans-Serif" font-size="10.00">private.h</text>
</a>
</g>
</g>
<!-- Node1&#45;&gt;Node9 -->
<g id="edge8" class="edge">
<title>Node1&#45;&gt;Node9</title>
<path fill="none" stroke="#63b8ff" d="M681.04,-219.51C656.13,-210.88 618.27,-197.76 590.36,-188.1"/>
<polygon fill="#63b8ff" stroke="#63b8ff" points="591.85,-184.91 581.25,-184.94 589.55,-191.52 591.85,-184.91"/>
</g>
<!-- Node10 -->
<g id="node10" class="node">
<title>Node10</title>
<g id="a_node10"><a xlink:href="mutt_2lib_8h.html" target="_top" xlink:title="Convenience wrapper for the library headers.">
<polygon fill="#fff0f0" stroke="red" points="487.99,-74 425.99,-74 425.99,-55 487.99,-55 487.99,-74"/>
<text text-anchor="middle" x="456.99" y="-62" font-family="Helvetica,sans-Serif" font-size="10.00">mutt/lib.h</text>
</a>
</g>
</g>
<!-- Node1&#45;&gt;Node10 -->
<g id="edge20" class="edge">
<title>Node1&#45;&gt;Node10</title>
<path fill="none" stroke="#63b8ff" d="M664.67,-227.67C554.52,-225.08 265.5,-215.34 236.99,-184 180.37,-121.76 335.84,-85.81 414.52,-72.04"/>
<polygon fill="#63b8ff" stroke="#63b8ff" points="414.77,-75.55 424.04,-70.42 413.6,-68.65 414.77,-75.55"/>
</g>
<!-- Node58 -->
<g id="node11" class="node">
<title>Node58</title>
<g id="a_node11"><a xlink:href="email_2lib_8h.html" target="_top" xlink:title="Structs that make up an email.">
<polygon fill="#fff0f0" stroke="red" points="388.49,-129 323.49,-129 323.49,-110 388.49,-110 388.49,-129"/>
<text text-anchor="middle" x="355.99" y="-117" font-family="Helvetica,sans-Serif" font-size="10.00">email/lib.h</text>
</a>
</g>
</g>
<!-- Node1&#45;&gt;Node58 -->
<g id="edge24" class="edge">
<title>Node1&#45;&gt;Node58</title>
<path fill="none" stroke="#63b8ff" d="M664.78,-227.58C556.39,-224.79 274.8,-214.63 246.99,-184 223.36,-157.97 272.23,-139.62 311.96,-129.55"/>
<polygon fill="#63b8ff" stroke="#63b8ff" points="312.75,-132.96 321.65,-127.22 311.11,-126.15 312.75,-132.96"/>
</g>
<!-- Node79 -->
<g id="node12" class="node">
<title>Node79</title>
<g id="a_node12"><a xlink:href="pattern_2lib_8h.html" target="_top" xlink:title="Match patterns to emails.">
<polygon fill="#fff0f0" stroke="red" points="574.99,-129 538.99,-129 538.99,-110 574.99,-110 574.99,-129"/>
<text text-anchor="middle" x="556.99" y="-117" font-family="Helvetica,sans-Serif" font-size="10.00">lib.h</text>
</a>
</g>
</g>
<!-- Node1&#45;&gt;Node79 -->
<g id="edge37" class="edge">
<title>Node1&#45;&gt;Node79</title>
<path fill="none" stroke="#63b8ff" d="M691.7,-219.62C677.09,-210.98 654.6,-197.24 635.99,-184 614.62,-168.79 591.36,-149.77 575.65,-136.52"/>
<polygon fill="#63b8ff" stroke="#63b8ff" points="577.96,-133.9 568.08,-130.09 573.43,-139.23 577.96,-133.9"/>
</g>
<!-- Node80 -->
<g id="node13" class="node">
<title>Node80</title>
<g id="a_node13"><a xlink:href="mutt_8h.html" target="_top" xlink:title="Many unsorted constants and some structs.">
<polygon fill="#fff0f0" stroke="red" points="629.99,-74 581.99,-74 581.99,-55 629.99,-55 629.99,-74"/>
<text text-anchor="middle" x="605.99" y="-62" font-family="Helvetica,sans-Serif" font-size="10.00">mutt.h</text>
</a>
</g>
</g>
<!-- Node1&#45;&gt;Node80 -->
<g id="edge36" class="edge">
<title>Node1&#45;&gt;Node80</title>
<path fill="none" stroke="#63b8ff" d="M701.56,-219.74C685.67,-194.09 639.01,-118.78 617.32,-83.78"/>
<polygon fill="#63b8ff" stroke="#63b8ff" points="620.49,-82.25 612.25,-75.59 614.54,-85.94 620.49,-82.25"/>
</g>
<!-- Node66 -->
<g id="node14" class="node">
<title>Node66</title>
<g id="a_node14"><a xlink:href="address_2lib_8h.html" target="_top" xlink:title="Email Address Handling.">
<polygon fill="#fff0f0" stroke="red" points="482.99,-129 406.99,-129 406.99,-110 482.99,-110 482.99,-129"/>
<text text-anchor="middle" x="444.99" y="-117" font-family="Helvetica,sans-Serif" font-size="10.00">address/lib.h</text>
</a>
</g>
</g>
<!-- Node1&#45;&gt;Node66 -->
<g id="edge21" class="edge">
<title>Node1&#45;&gt;Node66</title>
<path fill="none" stroke="#63b8ff" d="M664.68,-224.74C624.52,-219.8 563.43,-208.65 515.99,-184 493.85,-172.49 473.13,-152.48 459.86,-137.99"/>
<polygon fill="#63b8ff" stroke="#63b8ff" points="462.53,-135.72 453.28,-130.55 457.28,-140.36 462.53,-135.72"/>
</g>
<!-- Node96 -->
<g id="node15" class="node">
<title>Node96</title>
<g id="a_node15"><a xlink:href="config_2lib_8h.html" target="_top" xlink:title="Convenience wrapper for the config headers.">
<polygon fill="#fff0f0" stroke="red" points="818.99,-129 750.99,-129 750.99,-110 818.99,-110 818.99,-129"/>
<text text-anchor="middle" x="784.99" y="-117" font-family="Helvetica,sans-Serif" font-size="10.00">config/lib.h</text>
</a>
</g>
</g>
<!-- Node1&#45;&gt;Node96 -->
<g id="edge22" class="edge">
<title>Node1&#45;&gt;Node96</title>
<path fill="none" stroke="#63b8ff" d="M711.65,-219.53C718.35,-206.91 731.42,-183.4 744.99,-165 752.08,-155.4 760.85,-145.47 768.37,-137.42"/>
<polygon fill="#63b8ff" stroke="#63b8ff" points="770.75,-140 775.14,-130.36 765.69,-135.16 770.75,-140"/>
</g>
<!-- Node84 -->
<g id="node16" class="node">
<title>Node84</title>
<g id="a_node16"><a xlink:href="core_2lib_8h.html" target="_top" xlink:title="Convenience wrapper for the core headers.">
<polygon fill="#fff0f0" stroke="red" points="934.99,-129 874.99,-129 874.99,-110 934.99,-110 934.99,-129"/>
<text text-anchor="middle" x="904.99" y="-117" font-family="Helvetica,sans-Serif" font-size="10.00">core/lib.h</text>
</a>
</g>
</g>
<!-- Node1&#45;&gt;Node84 -->
<g id="edge25" class="edge">
<title>Node1&#45;&gt;Node84</title>
<path fill="none" stroke="#63b8ff" d="M728.34,-219.51C748.04,-211 777.94,-197.54 802.99,-184 831.1,-168.81 862.07,-149.08 882.43,-135.66"/>
<polygon fill="#63b8ff" stroke="#63b8ff" points="884.12,-138.74 890.52,-130.3 880.25,-132.91 884.12,-138.74"/>
</g>
<!-- Node110 -->
<g id="node17" class="node">
<title>Node110</title>
<g id="a_node17"><a xlink:href="alias_8h.html" target="_top" xlink:title="Representation of a single alias to an email address.">
<polygon fill="white" stroke="#666666" points="467.99,-184 399.99,-184 399.99,-165 467.99,-165 467.99,-184"/>
<text text-anchor="middle" x="433.99" y="-172" font-family="Helvetica,sans-Serif" font-size="10.00">alias/alias.h</text>
</a>
</g>
</g>
<!-- Node1&#45;&gt;Node110 -->
<g id="edge26" class="edge">
<title>Node1&#45;&gt;Node110</title>
<path fill="none" stroke="#63b8ff" d="M664.64,-220.28C614.37,-210.52 530.9,-194.31 479.36,-184.31"/>
<polygon fill="#63b8ff" stroke="#63b8ff" points="480.21,-180.91 469.72,-182.44 478.87,-187.78 480.21,-180.91"/>
</g>
<!-- Node111 -->
<g id="node18" class="node">
<title>Node111</title>
<g id="a_node18"><a xlink:href="gui_8h.html" target="_top" xlink:title="Shared code for the Alias and Query Dialogs.">
<polygon fill="white" stroke="#666666" points="732.49,-129 669.49,-129 669.49,-110 732.49,-110 732.49,-129"/>
<text text-anchor="middle" x="700.99" y="-117" font-family="Helvetica,sans-Serif" font-size="10.00">alias/gui.h</text>
</a>
</g>
</g>
<!-- Node1&#45;&gt;Node111 -->
<g id="edge30" class="edge">
<title>Node1&#45;&gt;Node111</title>
<path fill="none" stroke="#63b8ff" d="M706.5,-219.66C705.55,-202.57 703.45,-164.61 702.13,-140.92"/>
<polygon fill="#63b8ff" stroke="#63b8ff" points="705.63,-140.76 701.58,-130.97 698.64,-141.15 705.63,-140.76"/>
</g>
<!-- Node112 -->
<g id="node19" class="node">
<title>Node112</title>
<g id="a_node19"><a xlink:href="alias_2lib_8h.html" target="_top" xlink:title="Email Aliases.">
<polygon fill="#fff0f0" stroke="red" points="995.49,-184 936.49,-184 936.49,-165 995.49,-165 995.49,-184"/>
<text text-anchor="middle" x="965.99" y="-172" font-family="Helvetica,sans-Serif" font-size="10.00">alias/lib.h</text>
</a>
</g>
</g>
<!-- Node1&#45;&gt;Node112 -->
<g id="edge33" class="edge">
<title>Node1&#45;&gt;Node112</title>
<path fill="none" stroke="#63b8ff" d="M749.21,-220.16C791.19,-211.82 857.73,-198.48 924.96,-184.4"/>
<polygon fill="#63b8ff" stroke="#63b8ff" points="925.65,-187.83 934.71,-182.35 924.21,-180.98 925.65,-187.83"/>
</g>
<!-- Node113 -->
<g id="node20" class="node">
<title>Node113</title>
<g id="a_node20"><a xlink:href="attach_2lib_8h.html" target="_top" xlink:title="GUI display the mailboxes in a side panel.">
<polygon fill="#fff0f0" stroke="red" points="917.99,-184 849.99,-184 849.99,-165 917.99,-165 917.99,-184"/>
<text text-anchor="middle" x="883.99" y="-172" font-family="Helvetica,sans-Serif" font-size="10.00">attach/lib.h</text>
</a>
</g>
</g>
<!-- Node1&#45;&gt;Node113 -->
<g id="edge38" class="edge">
<title>Node1&#45;&gt;Node113</title>
<path fill="none" stroke="#63b8ff" d="M737.02,-219.51C766.22,-210.76 810.8,-197.42 843.21,-187.71"/>
<polygon fill="#63b8ff" stroke="#63b8ff" points="844.09,-191.1 852.67,-184.88 842.08,-184.4 844.09,-191.1"/>
</g>
<!-- Node63 -->
<g id="node21" class="node">
<title>Node63</title>
<g id="a_node21"><a xlink:href="ncrypt_2lib_8h.html" target="_top" xlink:title="API for encryption/signing of emails.">
<polygon fill="#fff0f0" stroke="red" points="1266.99,-184 1196.99,-184 1196.99,-165 1266.99,-165 1266.99,-184"/>
<text text-anchor="middle" x="1231.99" y="-172" font-family="Helvetica,sans-Serif" font-size="10.00">ncrypt/lib.h</text>
</a>
</g>
</g>
<!-- Node1&#45;&gt;Node63 -->
<g id="edge41" class="edge">
<title>Node1&#45;&gt;Node63</title>
<path fill="none" stroke="#63b8ff" d="M749.3,-225.99C831.41,-220.82 1018.27,-207.58 1185.28,-184.25"/>
<polygon fill="#63b8ff" stroke="#63b8ff" points="1185.59,-187.75 1195.01,-182.88 1184.61,-180.81 1185.59,-187.75"/>
</g>
<!-- Node136 -->
<g id="node22" class="node">
<title>Node136</title>
<g id="a_node22"><a xlink:href="send_2lib_8h.html" target="_top" xlink:title="Convenience wrapper for the send headers.">
<polygon fill="#fff0f0" stroke="red" points="1178.99,-184 1116.99,-184 1116.99,-165 1178.99,-165 1178.99,-184"/>
<text text-anchor="middle" x="1147.99" y="-172" font-family="Helvetica,sans-Serif" font-size="10.00">send/lib.h</text>
</a>
</g>
</g>
<!-- Node1&#45;&gt;Node136 -->
<g id="edge44" class="edge">
<title>Node1&#45;&gt;Node136</title>
<path fill="none" stroke="#63b8ff" d="M749.33,-224.79C821.92,-218.2 974.72,-203.29 1102.99,-184 1103.82,-183.88 1104.65,-183.75 1105.49,-183.62"/>
<polygon fill="#63b8ff" stroke="#63b8ff" points="1105.8,-187.11 1115.08,-182 1104.64,-180.21 1105.8,-187.11"/>
</g>
<!-- Node139 -->
<g id="node23" class="node">
<title>Node139</title>
<g id="a_node23"><a xlink:href="copy_8h.html" target="_top" xlink:title="Duplicate the structure of an entire email.">
<polygon fill="#fff0f0" stroke="red" points="1060.49,-184 1013.49,-184 1013.49,-165 1060.49,-165 1060.49,-184"/>
<text text-anchor="middle" x="1036.99" y="-172" font-family="Helvetica,sans-Serif" font-size="10.00">copy.h</text>
</a>
</g>
</g>
<!-- Node1&#45;&gt;Node139 -->
<g id="edge45" class="edge">
<title>Node1&#45;&gt;Node139</title>
<path fill="none" stroke="#63b8ff" d="M749.2,-223.7C805.03,-217.02 906.68,-203.73 1002.28,-184.37"/>
<polygon fill="#63b8ff" stroke="#63b8ff" points="1002.73,-187.85 1011.82,-182.41 1001.32,-181 1002.73,-187.85"/>
</g>
<!-- Node145 -->
<g id="node24" class="node">
<title>Node145</title>
<g id="a_node24"><a xlink:href="handler_8h.html" target="_top" xlink:title="Decide how to display email content.">
<polygon fill="#fff0f0" stroke="red" points="1252.49,-74 1193.49,-74 1193.49,-55 1252.49,-55 1252.49,-74"/>
<text text-anchor="middle" x="1222.99" y="-62" font-family="Helvetica,sans-Serif" font-size="10.00">handler.h</text>
</a>
</g>
</g>
<!-- Node1&#45;&gt;Node145 -->
<g id="edge48" class="edge">
<title>Node1&#45;&gt;Node145</title>
<path fill="none" stroke="#63b8ff" d="M749.37,-228.42C875.25,-227.75 1240.42,-222.46 1275.99,-184 1303.78,-153.95 1265.48,-106.91 1240.87,-82.1"/>
<polygon fill="#63b8ff" stroke="#63b8ff" points="1243.56,-79.83 1233.95,-75.37 1238.68,-84.85 1243.56,-79.83"/>
</g>
<!-- Node146 -->
<g id="node25" class="node">
<title>Node146</title>
<g id="a_node25"><a xlink:href="maillist_8h.html" target="_top" xlink:title="Handle mailing lists.">
<polygon fill="#fff0f0" stroke="red" points="1337.49,-74 1280.49,-74 1280.49,-55 1337.49,-55 1337.49,-74"/>
<text text-anchor="middle" x="1308.99" y="-62" font-family="Helvetica,sans-Serif" font-size="10.00">maillist.h</text>
</a>
</g>
</g>
<!-- Node1&#45;&gt;Node146 -->
<g id="edge50" class="edge">
<title>Node1&#45;&gt;Node146</title>
<path fill="none" stroke="#63b8ff" d="M749.12,-228.32C877.05,-227.36 1254.7,-221.37 1293.99,-184 1320.47,-158.82 1317.61,-112.18 1313.25,-85.54"/>
<polygon fill="#63b8ff" stroke="#63b8ff" points="1316.69,-84.91 1311.4,-75.73 1309.82,-86.21 1316.69,-84.91"/>
</g>
<!-- Node147 -->
<g id="node26" class="node">
<title>Node147</title>
<g id="a_node26"><a xlink:href="mx_8h.html" target="_top" xlink:title="API for mailboxes.">
<polygon fill="#fff0f0" stroke="red" points="793.99,-184 753.99,-184 753.99,-165 793.99,-165 793.99,-184"/>
<text text-anchor="middle" x="773.99" y="-172" font-family="Helvetica,sans-Serif" font-size="10.00">mx.h</text>
</a>
</g>
</g>
<!-- Node1&#45;&gt;Node147 -->
<g id="edge52" class="edge">
<title>Node1&#45;&gt;Node147</title>
<path fill="none" stroke="#63b8ff" d="M718.36,-219.51C728.04,-211.85 742.19,-200.66 753.8,-191.47"/>
<polygon fill="#63b8ff" stroke="#63b8ff" points="755.94,-194.25 761.61,-185.3 751.6,-188.76 755.94,-194.25"/>
</g>
<!-- Node148 -->
<g id="node27" class="node">
<title>Node148</title>
<g id="a_node27"><a xlink:title=" ">
<polygon fill="#e0e0e0" stroke="#999999" points="1460.49,-184 1399.49,-184 1399.49,-165 1460.49,-165 1460.49,-184"/>
<text text-anchor="middle" x="1429.99" y="-172" font-family="Helvetica,sans-Serif" font-size="10.00">sys/stat.h</text>
</a>
</g>
</g>
<!-- Node1&#45;&gt;Node148 -->
<g id="edge56" class="edge">
<title>Node1&#45;&gt;Node148</title>
<path fill="none" stroke="#63b8ff" d="M749.22,-227.51C856.06,-224.6 1145.68,-214.34 1384.99,-184 1386,-183.87 1387.01,-183.74 1388.03,-183.6"/>
<polygon fill="#63b8ff" stroke="#63b8ff" points="1388.26,-187.1 1397.59,-182.08 1387.17,-180.19 1388.26,-187.1"/>
</g>
<!-- Node9&#45;&gt;Node5 -->
<g id="edge9" class="edge">
<title>Node9&#45;&gt;Node5</title>
<path fill="none" stroke="#63b8ff" d="M567.49,-164.62C587.44,-151.7 626.2,-127.35 660.99,-110 737.11,-72.05 831.43,-39.67 883.92,-22.86"/>
<polygon fill="#63b8ff" stroke="#63b8ff" points="884.87,-26.23 893.34,-19.87 882.75,-19.56 884.87,-26.23"/>
</g>
<!-- Node9&#45;&gt;Node10 -->
<g id="edge10" class="edge">
<title>Node9&#45;&gt;Node10</title>
<path fill="none" stroke="#63b8ff" d="M546.06,-164.66C530,-146.78 493.41,-106.05 472.47,-82.73"/>
<polygon fill="#63b8ff" stroke="#63b8ff" points="475.34,-80.69 466.05,-75.59 470.13,-85.36 475.34,-80.69"/>
</g>
<!-- Node9&#45;&gt;Node58 -->
<g id="edge12" class="edge">
<title>Node9&#45;&gt;Node58</title>
<path fill="none" stroke="#63b8ff" d="M524.35,-165.57C491.26,-156.71 437.4,-142.29 399.53,-132.15"/>
<polygon fill="#63b8ff" stroke="#63b8ff" points="400.84,-128.88 390.27,-129.68 399.03,-135.64 400.84,-128.88"/>
</g>
<!-- Node9&#45;&gt;Node79 -->
<g id="edge13" class="edge">
<title>Node9&#45;&gt;Node79</title>
<path fill="none" stroke="#63b8ff" d="M554.49,-164.75C554.86,-158.27 555.37,-149.16 555.84,-140.9"/>
<polygon fill="#63b8ff" stroke="#63b8ff" points="559.33,-141.13 556.4,-130.95 552.34,-140.74 559.33,-141.13"/>
</g>
<!-- Node10&#45;&gt;Node2 -->
<g id="edge11" class="edge">
<title>Node10&#45;&gt;Node2</title>
<path fill="none" stroke="#63b8ff" d="M467,-54.51C475.36,-47 487.49,-36.1 497.6,-27.03"/>
<polygon fill="#63b8ff" stroke="#63b8ff" points="499.91,-29.66 505.01,-20.37 495.23,-24.45 499.91,-29.66"/>
</g>
<!-- Node79&#45;&gt;Node2 -->
<g id="edge14" class="edge">
<title>Node79&#45;&gt;Node2</title>
<path fill="none" stroke="#63b8ff" d="M553.6,-109.64C550.16,-100.66 544.7,-86.37 539.99,-74 534.35,-59.14 527.99,-42.31 523.24,-29.71"/>
<polygon fill="#63b8ff" stroke="#63b8ff" points="526.58,-28.67 519.78,-20.55 520.03,-31.14 526.58,-28.67"/>
</g>
<!-- Node79&#45;&gt;Node5 -->
<g id="edge15" class="edge">
<title>Node79&#45;&gt;Node5</title>
<path fill="none" stroke="#63b8ff" d="M556.36,-109.55C555.92,-95.61 557.34,-68.87 572.99,-55 617.97,-15.16 799.18,-10.22 882.14,-10.11"/>
<polygon fill="#63b8ff" stroke="#63b8ff" points="882.13,-13.61 892.13,-10.12 882.13,-6.61 882.13,-13.61"/>
</g>
<!-- Node79&#45;&gt;Node10 -->
<g id="edge16" class="edge">
<title>Node79&#45;&gt;Node10</title>
<path fill="none" stroke="#63b8ff" d="M540.03,-109.51C524.64,-101.35 501.68,-89.19 483.81,-79.71"/>
<polygon fill="#63b8ff" stroke="#63b8ff" points="485.52,-76.66 475.05,-75.07 482.24,-82.84 485.52,-76.66"/>
</g>
<!-- Node79&#45;&gt;Node80 -->
<g id="edge17" class="edge">
<title>Node79&#45;&gt;Node80</title>
<path fill="none" stroke="#63b8ff" d="M565.09,-109.75C571.85,-102.43 581.72,-91.76 590.06,-82.74"/>
<polygon fill="#63b8ff" stroke="#63b8ff" points="592.48,-85.27 596.7,-75.55 587.34,-80.52 592.48,-85.27"/>
</g>
<!-- Node80&#45;&gt;Node2 -->
<g id="edge18" class="edge">
<title>Node80&#45;&gt;Node2</title>
<path fill="none" stroke="#63b8ff" d="M590.73,-54.51C577.07,-46.47 556.8,-34.53 540.81,-25.11"/>
<polygon fill="#63b8ff" stroke="#63b8ff" points="542.73,-22.18 532.34,-20.13 539.18,-28.22 542.73,-22.18"/>
</g>
<!-- Node80&#45;&gt;Node5 -->
<g id="edge19" class="edge">
<title>Node80&#45;&gt;Node5</title>
<path fill="none" stroke="#63b8ff" d="M630.48,-57.79C634.96,-56.81 639.61,-55.84 643.99,-55 728.22,-38.9 827.49,-24.11 882.31,-16.29"/>
<polygon fill="#63b8ff" stroke="#63b8ff" points="882.73,-19.77 892.14,-14.9 881.75,-12.84 882.73,-19.77"/>
</g>
<!-- Node96&#45;&gt;Node5 -->
<g id="edge23" class="edge">
<title>Node96&#45;&gt;Node5</title>
<path fill="none" stroke="#63b8ff" d="M796.37,-109.66C819.79,-91.47 873.67,-49.6 903.39,-26.51"/>
<polygon fill="#63b8ff" stroke="#63b8ff" points="905.52,-29.29 911.27,-20.39 901.22,-23.76 905.52,-29.29"/>
</g>
<!-- Node110&#45;&gt;Node10 -->
<g id="edge27" class="edge">
<title>Node110&#45;&gt;Node10</title>
<path fill="none" stroke="#63b8ff" d="M399.69,-165.3C368.2,-157 324.96,-143.36 314.99,-129 310.18,-122.06 310,-116.81 314.99,-110 337.64,-79.18 381.58,-69.12 414.62,-66.12"/>
<polygon fill="#63b8ff" stroke="#63b8ff" points="414.56,-69.63 424.28,-65.44 414.06,-62.65 414.56,-69.63"/>
</g>
<!-- Node110&#45;&gt;Node58 -->
<g id="edge29" class="edge">
<title>Node110&#45;&gt;Node58</title>
<path fill="none" stroke="#63b8ff" d="M420.76,-164.51C409.15,-156.62 392.02,-144.98 378.3,-135.65"/>
<polygon fill="#63b8ff" stroke="#63b8ff" points="380.52,-132.93 370.28,-130.21 376.59,-138.72 380.52,-132.93"/>
</g>
<!-- Node110&#45;&gt;Node66 -->
<g id="edge28" class="edge">
<title>Node110&#45;&gt;Node66</title>
<path fill="none" stroke="#63b8ff" d="M435.81,-164.75C437.17,-158.19 439.09,-148.95 440.82,-140.6"/>
<polygon fill="#63b8ff" stroke="#63b8ff" points="444.23,-141.43 442.83,-130.92 437.37,-140 444.23,-141.43"/>
</g>
<!-- Node111&#45;&gt;Node5 -->
<g id="edge31" class="edge">
<title>Node111&#45;&gt;Node5</title>
<path fill="none" stroke="#63b8ff" d="M719.24,-109.66C757.96,-90.91 848.57,-47.03 895.18,-24.45"/>
<polygon fill="#63b8ff" stroke="#63b8ff" points="896.66,-27.63 904.13,-20.12 893.61,-21.33 896.66,-27.63"/>
</g>
<!-- Node111&#45;&gt;Node10 -->
<g id="edge32" class="edge">
<title>Node111&#45;&gt;Node10</title>
<path fill="none" stroke="#63b8ff" d="M669.1,-111.57C625.57,-102.12 547.46,-85.15 499.14,-74.65"/>
<polygon fill="#63b8ff" stroke="#63b8ff" points="500.12,-71.29 489.61,-72.58 498.64,-78.13 500.12,-71.29"/>
</g>
<!-- Node112&#45;&gt;Node5 -->
<g id="edge34" class="edge">
<title>Node112&#45;&gt;Node5</title>
<path fill="none" stroke="#63b8ff" d="M967.33,-164.8C970.05,-144.67 974.79,-93.67 959.99,-55 956.06,-44.73 948.8,-35.02 941.83,-27.31"/>
<polygon fill="#63b8ff" stroke="#63b8ff" points="944.52,-25.06 935.04,-20.34 939.51,-29.95 944.52,-25.06"/>
</g>
<!-- Node112&#45;&gt;Node84 -->
<g id="edge35" class="edge">
<title>Node112&#45;&gt;Node84</title>
<path fill="none" stroke="#63b8ff" d="M955.65,-164.51C946.92,-156.93 934.2,-145.88 923.7,-136.75"/>
<polygon fill="#63b8ff" stroke="#63b8ff" points="926.18,-134.27 916.33,-130.35 921.59,-139.55 926.18,-134.27"/>
</g>
<!-- Node113&#45;&gt;Node5 -->
<g id="edge39" class="edge">
<title>Node113&#45;&gt;Node5</title>
<path fill="none" stroke="#63b8ff" d="M904.46,-164.52C918.41,-157.17 935.77,-145.33 943.99,-129 960.27,-96.66 945.29,-53.72 933.95,-29.41"/>
<polygon fill="#63b8ff" stroke="#63b8ff" points="937.23,-28.13 929.65,-20.73 930.96,-31.24 937.23,-28.13"/>
</g>
<!-- Node113&#45;&gt;Node84 -->
<g id="edge40" class="edge">
<title>Node113&#45;&gt;Node84</title>
<path fill="none" stroke="#63b8ff" d="M887.46,-164.75C890.12,-158.04 893.89,-148.52 897.26,-140.02"/>
<polygon fill="#63b8ff" stroke="#63b8ff" points="900.46,-141.44 900.89,-130.85 893.96,-138.86 900.46,-141.44"/>
</g>
<!-- Node63&#45;&gt;Node5 -->
<g id="edge42" class="edge">
<title>Node63&#45;&gt;Node5</title>
<path fill="none" stroke="#63b8ff" d="M1217.51,-164.54C1196.95,-151.94 1158.03,-128.45 1123.99,-110 1064.15,-77.57 992.37,-42.84 953.13,-24.21"/>
<polygon fill="#63b8ff" stroke="#63b8ff" points="954.87,-21.16 944.34,-20.04 951.88,-27.49 954.87,-21.16"/>
</g>
<!-- Node63&#45;&gt;Node6 -->
<g id="edge43" class="edge">
<title>Node63&#45;&gt;Node6</title>
<path fill="none" stroke="#63b8ff" d="M1208.08,-164.51C1185.35,-155.97 1150.95,-143.03 1125.3,-133.4"/>
<polygon fill="#63b8ff" stroke="#63b8ff" points="1126.57,-130.13 1115.98,-129.89 1124.11,-136.69 1126.57,-130.13"/>
</g>
<!-- Node139&#45;&gt;Node2 -->
<g id="edge46" class="edge">
<title>Node139&#45;&gt;Node2</title>
<path fill="none" stroke="#63b8ff" d="M1026.88,-164.69C1010.57,-150.94 976.93,-124.46 943.99,-110 807.96,-50.27 631.2,-23.83 554.41,-14.6"/>
<polygon fill="#63b8ff" stroke="#63b8ff" points="555.23,-11.18 544.89,-13.49 554.42,-18.13 555.23,-11.18"/>
</g>
<!-- Node139&#45;&gt;Node6 -->
<g id="edge47" class="edge">
<title>Node139&#45;&gt;Node6</title>
<path fill="none" stroke="#63b8ff" d="M1045.91,-164.75C1053.45,-157.35 1064.46,-146.54 1073.72,-137.45"/>
<polygon fill="#63b8ff" stroke="#63b8ff" points="1076.12,-140 1080.8,-130.5 1071.22,-135.01 1076.12,-140"/>
</g>
<!-- Node145&#45;&gt;Node5 -->
<g id="edge49" class="edge">
<title>Node145&#45;&gt;Node5</title>
<path fill="none" stroke="#63b8ff" d="M1193.23,-58.22C1139.53,-48.71 1026.34,-28.64 965.22,-17.81"/>
<polygon fill="#63b8ff" stroke="#63b8ff" points="966.03,-14.4 955.57,-16.1 964.81,-21.29 966.03,-14.4"/>
</g>
<!-- Node146&#45;&gt;Node5 -->
<g id="edge51" class="edge">
<title>Node146&#45;&gt;Node5</title>
<path fill="none" stroke="#63b8ff" d="M1280.2,-58.07C1274.19,-57 1267.89,-55.92 1261.99,-55 1155.47,-38.36 1029.4,-22.87 965.54,-15.32"/>
<polygon fill="#63b8ff" stroke="#63b8ff" points="966.21,-11.87 955.87,-14.18 965.39,-18.82 966.21,-11.87"/>
</g>
<!-- Node147&#45;&gt;Node5 -->
<g id="edge53" class="edge">
<title>Node147&#45;&gt;Node5</title>
<path fill="none" stroke="#63b8ff" d="M786.17,-164.59C797.52,-156.04 814.65,-142.46 827.99,-129 860.64,-96.08 893.54,-52.76 911.07,-28.66"/>
<polygon fill="#63b8ff" stroke="#63b8ff" points="913.91,-30.71 916.91,-20.55 908.23,-26.62 913.91,-30.71"/>
</g>
<!-- Node147&#45;&gt;Node96 -->
<g id="edge54" class="edge">
<title>Node147&#45;&gt;Node96</title>
<path fill="none" stroke="#63b8ff" d="M775.81,-164.75C777.17,-158.19 779.09,-148.95 780.82,-140.6"/>
<polygon fill="#63b8ff" stroke="#63b8ff" points="784.23,-141.43 782.83,-130.92 777.37,-140 784.23,-141.43"/>
</g>
<!-- Node147&#45;&gt;Node84 -->
<g id="edge55" class="edge">
<title>Node147&#45;&gt;Node84</title>
<path fill="none" stroke="#63b8ff" d="M794.46,-165.22C815.31,-156.79 847.94,-143.58 872.35,-133.71"/>
<polygon fill="#63b8ff" stroke="#63b8ff" points="873.56,-136.99 881.52,-130 870.93,-130.5 873.56,-136.99"/>
</g>
</g>
</svg>
