<?xml version="1.0" encoding="UTF-8" standalone="no"?>
<!DOCTYPE svg PUBLIC "-//W3C//DTD SVG 1.1//EN"
 "http://www.w3.org/Graphics/SVG/1.1/DTD/svg11.dtd">
<!-- Generated by graphviz version 2.44.0 (0)
 -->
<!-- Title: patmatch Pages: 1 -->
<svg width="379pt" height="247pt"
 viewBox="0.00 0.00 379.00 247.19" xmlns="http://www.w3.org/2000/svg" xmlns:xlink="http://www.w3.org/1999/xlink">
<g id="graph0" class="graph" transform="scale(1 1) rotate(0) translate(4 243.19)">
<title>patmatch</title>
<polygon fill="white" stroke="transparent" points="-4,4 -4,-243.19 375,-243.19 375,4 -4,4"/>
<!-- Node1 -->
<g id="node1" class="node">
<title>Node1</title>
<g id="a_node1"><a xlink:title="Compare a string to a Pattern.">
<polygon fill="#bfbfbf" stroke="black" points="314,-114.5 314,-133.5 371,-133.5 371,-114.5 314,-114.5"/>
<text text-anchor="middle" x="342.5" y="-121.5" font-family="Helvetica" font-size="10.00">patmatch</text>
</a>
</g>
</g>
<!-- Node2 -->
<g id="node2" class="node">
<title>Node2</title>
<g id="a_node2"><a xlink:href="exec_8c.html#a79b186a41db70f60a9d7b5b5e7d0c906" target="_top" xlink:title="Match a Pattern against an Address list.">
<polygon fill="white" stroke="black" points="178,-190.5 178,-209.5 258,-209.5 258,-190.5 178,-190.5"/>
<text text-anchor="middle" x="218" y="-197.5" font-family="Helvetica" font-size="10.00">match_addrlist</text>
</a>
</g>
</g>
<!-- Node1&#45;&gt;Node2 -->
<g id="edge1" class="edge">
<title>Node1&#45;&gt;Node2</title>
<path fill="none" stroke="midnightblue" d="M323.84,-140.92C311.66,-151.94 294.72,-166.06 278,-176 268.49,-181.65 257.41,-186.55 247.44,-190.42"/>
<polygon fill="midnightblue" stroke="midnightblue" points="326.48,-143.24 331.44,-133.87 321.73,-138.1 326.48,-143.24"/>
</g>
<!-- Node3 -->
<g id="node3" class="node">
<title>Node3</title>
<g id="a_node3"><a xlink:href="pattern_2lib_8h.html#ad2c4f9f9ac723e27159f4b74a48bb844" target="_top" xlink:title="Match a pattern against an alias.">
<polygon fill="white" stroke="red" points="0,-209.5 0,-228.5 122,-228.5 122,-209.5 0,-209.5"/>
<text text-anchor="middle" x="61" y="-216.5" font-family="Helvetica" font-size="10.00">mutt_pattern_alias_exec</text>
</a>
</g>
</g>
<!-- Node1&#45;&gt;Node3 -->
<g id="edge11" class="edge">
<title>Node1&#45;&gt;Node3</title>
<path fill="none" stroke="midnightblue" d="M335.03,-143.2C326.19,-166.03 307.91,-203.02 278,-219 220.62,-249.67 141.8,-238.76 96.96,-228.55"/>
<polygon fill="midnightblue" stroke="midnightblue" points="338.41,-144.16 338.53,-133.57 331.83,-141.77 338.41,-144.16"/>
</g>
<!-- Node142 -->
<g id="node4" class="node">
<title>Node142</title>
<g id="a_node4"><a xlink:href="pattern_2lib_8h.html#a19019da905ed802ad656fbe8b2c8ca93" target="_top" xlink:title="Match a pattern against an email header.">
<polygon fill="white" stroke="red" points="12.5,-76.5 12.5,-95.5 109.5,-95.5 109.5,-76.5 12.5,-76.5"/>
<text text-anchor="middle" x="61" y="-83.5" font-family="Helvetica" font-size="10.00">mutt_pattern_exec</text>
</a>
</g>
</g>
<!-- Node1&#45;&gt;Node142 -->
<g id="edge12" class="edge">
<title>Node1&#45;&gt;Node142</title>
<path fill="none" stroke="midnightblue" d="M305.86,-136.64C296.88,-139.27 287.18,-141.66 278,-143 225.23,-150.73 209.43,-157.12 158,-143 124.35,-133.76 90.56,-109.34 73.46,-95.65"/>
<polygon fill="midnightblue" stroke="midnightblue" points="307.12,-139.91 315.63,-133.6 305.04,-133.23 307.12,-139.91"/>
</g>
<!-- Node553 -->
<g id="node5" class="node">
<title>Node553</title>
<g id="a_node5"><a xlink:href="exec_8c.html#a48966c7240906cc272849c7b4a8279bd" target="_top" xlink:title="Match a Pattern against an Attachment&#39;s Content&#45;Type.">
<polygon fill="white" stroke="red" points="165.5,-114.5 165.5,-133.5 270.5,-133.5 270.5,-114.5 165.5,-114.5"/>
<text text-anchor="middle" x="218" y="-121.5" font-family="Helvetica" font-size="10.00">match_content_type</text>
</a>
</g>
</g>
<!-- Node1&#45;&gt;Node553 -->
<g id="edge4" class="edge">
<title>Node1&#45;&gt;Node553</title>
<path fill="none" stroke="midnightblue" d="M303.38,-124C293.07,-124 281.72,-124 270.79,-124"/>
<polygon fill="midnightblue" stroke="midnightblue" points="303.7,-127.5 313.7,-124 303.7,-120.5 303.7,-127.5"/>
</g>
<!-- Node554 -->
<g id="node6" class="node">
<title>Node554</title>
<g id="a_node6"><a xlink:href="exec_8c.html#a74f564fa761dade9b0750ca5f1044fc1" target="_top" xlink:title="Match references against a Pattern.">
<polygon fill="white" stroke="black" points="173.5,-76.5 173.5,-95.5 262.5,-95.5 262.5,-76.5 173.5,-76.5"/>
<text text-anchor="middle" x="218" y="-83.5" font-family="Helvetica" font-size="10.00">match_reference</text>
</a>
</g>
</g>
<!-- Node1&#45;&gt;Node554 -->
<g id="edge5" class="edge">
<title>Node1&#45;&gt;Node554</title>
<path fill="none" stroke="midnightblue" d="M303.87,-112.33C286.5,-106.94 266.13,-100.62 249.7,-95.52"/>
<polygon fill="midnightblue" stroke="midnightblue" points="303.11,-115.76 313.7,-115.38 305.19,-109.07 303.11,-115.76"/>
</g>
<!-- Node141 -->
<g id="node7" class="node">
<title>Node141</title>
<g id="a_node7"><a xlink:href="exec_8c.html#a34273d998f6620afb9efebbe0e325ad0" target="_top" xlink:title="Search an email.">
<polygon fill="white" stroke="black" points="183,-38.5 183,-57.5 253,-57.5 253,-38.5 183,-38.5"/>
<text text-anchor="middle" x="218" y="-45.5" font-family="Helvetica" font-size="10.00">msg_search</text>
</a>
</g>
</g>
<!-- Node1&#45;&gt;Node141 -->
<g id="edge7" class="edge">
<title>Node1&#45;&gt;Node141</title>
<path fill="none" stroke="midnightblue" d="M325.98,-106.59C313.96,-94.04 296.33,-77.53 278,-67 270.35,-62.6 261.55,-59.07 253.11,-56.31"/>
<polygon fill="midnightblue" stroke="midnightblue" points="323.64,-109.21 333.01,-114.15 328.76,-104.45 323.64,-109.21"/>
</g>
<!-- Node502 -->
<g id="node8" class="node">
<title>Node502</title>
<g id="a_node8"><a xlink:href="exec_8c.html#af19bf41d266bc5adc6815ed73dfe22e9" target="_top" xlink:title="Search in send&#45;mode.">
<polygon fill="white" stroke="black" points="158,-0.5 158,-19.5 278,-19.5 278,-0.5 158,-0.5"/>
<text text-anchor="middle" x="218" y="-7.5" font-family="Helvetica" font-size="10.00">msg_search_sendmode</text>
</a>
</g>
</g>
<!-- Node1&#45;&gt;Node502 -->
<g id="edge9" class="edge">
<title>Node1&#45;&gt;Node502</title>
<path fill="none" stroke="midnightblue" d="M333.5,-105C323.54,-83.54 304.53,-49.03 278,-29 272.85,-25.11 266.87,-22 260.73,-19.52"/>
<polygon fill="midnightblue" stroke="midnightblue" points="330.4,-106.64 337.66,-114.36 336.8,-103.8 330.4,-106.64"/>
</g>
<!-- Node2&#45;&gt;Node3 -->
<g id="edge2" class="edge">
<title>Node2&#45;&gt;Node3</title>
<path fill="none" stroke="midnightblue" d="M167.67,-206.05C153.23,-207.82 137.27,-209.77 122.23,-211.62"/>
<polygon fill="midnightblue" stroke="midnightblue" points="168.39,-209.49 177.89,-204.79 167.54,-202.54 168.39,-209.49"/>
</g>
<!-- Node2&#45;&gt;Node142 -->
<g id="edge3" class="edge">
<title>Node2&#45;&gt;Node142</title>
<path fill="none" stroke="midnightblue" d="M178.11,-186.56C171.19,-183.51 164.21,-179.98 158,-176 121.07,-152.34 85.53,-113.54 70.07,-95.63"/>
<polygon fill="midnightblue" stroke="midnightblue" points="176.87,-189.84 187.45,-190.42 179.54,-183.37 176.87,-189.84"/>
</g>
<!-- Node554&#45;&gt;Node142 -->
<g id="edge6" class="edge">
<title>Node554&#45;&gt;Node142</title>
<path fill="none" stroke="midnightblue" d="M163.36,-86C145.88,-86 126.61,-86 109.61,-86"/>
<polygon fill="midnightblue" stroke="midnightblue" points="163.41,-89.5 173.41,-86 163.41,-82.5 163.41,-89.5"/>
</g>
<!-- Node141&#45;&gt;Node142 -->
<g id="edge8" class="edge">
<title>Node141&#45;&gt;Node142</title>
<path fill="none" stroke="midnightblue" d="M173.23,-58.73C150.46,-64.31 122.86,-71.08 100.85,-76.48"/>
<polygon fill="midnightblue" stroke="midnightblue" points="174.11,-62.12 182.98,-56.34 172.44,-55.32 174.11,-62.12"/>
</g>
<!-- Node502&#45;&gt;Node142 -->
<g id="edge10" class="edge">
<title>Node502&#45;&gt;Node142</title>
<path fill="none" stroke="midnightblue" d="M173.01,-22.95C167.88,-24.82 162.78,-26.84 158,-29 127.26,-42.87 93.95,-64.22 75.78,-76.47"/>
<polygon fill="midnightblue" stroke="midnightblue" points="174.5,-26.14 182.81,-19.57 172.22,-19.52 174.5,-26.14"/>
</g>
</g>
</svg>
