<?xml version="1.0" encoding="UTF-8" standalone="no"?>
<!DOCTYPE svg PUBLIC "-//W3C//DTD SVG 1.1//EN"
 "http://www.w3.org/Graphics/SVG/1.1/DTD/svg11.dtd">
<!-- Generated by graphviz version 12.2.1 (20241206.2353)
 -->
<!-- Title: expando/filter.c Pages: 1 -->
<svg width="653pt" height="205pt"
 viewBox="0.00 0.00 652.50 205.00" xmlns="http://www.w3.org/2000/svg" xmlns:xlink="http://www.w3.org/1999/xlink">
<g id="graph0" class="graph" transform="scale(1 1) rotate(0) translate(4 201)">
<title>expando/filter.c</title>
<!-- Node1 -->
<g id="Node000001" class="node">
<title>Node1</title>
<g id="a_Node000001"><a xlink:title="Expando filtering.">
<polygon fill="#999999" stroke="#666666" points="314.38,-197 227.12,-197 227.12,-174.75 314.38,-174.75 314.38,-197"/>
<text text-anchor="middle" x="270.75" y="-183.5" font-family="Helvetica,sans-Serif" font-size="10.00">expando/filter.c</text>
</a>
</g>
</g>
<!-- Node2 -->
<g id="Node000002" class="node">
<title>Node2</title>
<g id="a_Node000002"><a xlink:title=" ">
<polygon fill="#e0e0e0" stroke="#999999" points="53.5,-22.25 0,-22.25 0,0 53.5,0 53.5,-22.25"/>
<text text-anchor="middle" x="26.75" y="-8.75" font-family="Helvetica,sans-Serif" font-size="10.00">config.h</text>
</a>
</g>
</g>
<!-- Node1&#45;&gt;Node2 -->
<g id="edge1_Node000001_Node000002" class="edge">
<title>Node1&#45;&gt;Node2</title>
<g id="a_edge1_Node000001_Node000002"><a xlink:title=" ">
<path fill="none" stroke="#63b8ff" d="M226.96,-182.03C184.76,-177.67 120.35,-166.64 71.75,-138.75 40.87,-121.03 29.9,-113.59 16.75,-80.5 10.79,-65.5 13.86,-47.37 18.11,-33.55"/>
<polygon fill="#63b8ff" stroke="#63b8ff" points="21.41,-34.73 21.45,-24.13 14.81,-32.39 21.41,-34.73"/>
</a>
</g>
</g>
<!-- Node3 -->
<g id="Node000003" class="node">
<title>Node3</title>
<g id="a_Node000003"><a xlink:title=" ">
<polygon fill="#e0e0e0" stroke="#999999" points="350.75,-138.75 298.75,-138.75 298.75,-116.5 350.75,-116.5 350.75,-138.75"/>
<text text-anchor="middle" x="324.75" y="-125.25" font-family="Helvetica,sans-Serif" font-size="10.00">errno.h</text>
</a>
</g>
</g>
<!-- Node1&#45;&gt;Node3 -->
<g id="edge2_Node000001_Node000003" class="edge">
<title>Node1&#45;&gt;Node3</title>
<g id="a_edge2_Node000001_Node000003"><a xlink:title=" ">
<path fill="none" stroke="#63b8ff" d="M280.91,-174.29C288.22,-166.67 298.29,-156.19 306.93,-147.19"/>
<polygon fill="#63b8ff" stroke="#63b8ff" points="309.19,-149.89 313.59,-140.25 304.14,-145.04 309.19,-149.89"/>
</a>
</g>
</g>
<!-- Node4 -->
<g id="Node000004" class="node">
<title>Node4</title>
<g id="a_Node000004"><a xlink:title=" ">
<polygon fill="#e0e0e0" stroke="#999999" points="165.5,-80.5 106,-80.5 106,-58.25 165.5,-58.25 165.5,-80.5"/>
<text text-anchor="middle" x="135.75" y="-67" font-family="Helvetica,sans-Serif" font-size="10.00">stdbool.h</text>
</a>
</g>
</g>
<!-- Node1&#45;&gt;Node4 -->
<g id="edge3_Node000001_Node000004" class="edge">
<title>Node1&#45;&gt;Node4</title>
<g id="a_edge3_Node000001_Node000004"><a xlink:title=" ">
<path fill="none" stroke="#63b8ff" d="M226.67,-178.86C182.11,-171.77 117.74,-158.41 102.75,-138.75 91.1,-123.47 103.41,-103.43 116.18,-89"/>
<polygon fill="#63b8ff" stroke="#63b8ff" points="118.56,-91.57 122.93,-81.92 113.49,-86.74 118.56,-91.57"/>
</a>
</g>
</g>
<!-- Node5 -->
<g id="Node000005" class="node">
<title>Node5</title>
<g id="a_Node000005"><a xlink:title=" ">
<polygon fill="#e0e0e0" stroke="#999999" points="416.5,-138.75 369,-138.75 369,-116.5 416.5,-116.5 416.5,-138.75"/>
<text text-anchor="middle" x="392.75" y="-125.25" font-family="Helvetica,sans-Serif" font-size="10.00">stdio.h</text>
</a>
</g>
</g>
<!-- Node1&#45;&gt;Node5 -->
<g id="edge4_Node000001_Node000005" class="edge">
<title>Node1&#45;&gt;Node5</title>
<g id="a_edge4_Node000001_Node000005"><a xlink:title=" ">
<path fill="none" stroke="#63b8ff" d="M293.7,-174.29C312.27,-165.73 338.68,-153.55 359.56,-143.93"/>
<polygon fill="#63b8ff" stroke="#63b8ff" points="360.92,-147.16 368.53,-139.79 357.98,-140.8 360.92,-147.16"/>
</a>
</g>
</g>
<!-- Node6 -->
<g id="Node000006" class="node">
<title>Node6</title>
<g id="a_Node000006"><a xlink:title=" ">
<polygon fill="#e0e0e0" stroke="#999999" points="486.75,-138.75 434.75,-138.75 434.75,-116.5 486.75,-116.5 486.75,-138.75"/>
<text text-anchor="middle" x="460.75" y="-125.25" font-family="Helvetica,sans-Serif" font-size="10.00">string.h</text>
</a>
</g>
</g>
<!-- Node1&#45;&gt;Node6 -->
<g id="edge5_Node000001_Node000006" class="edge">
<title>Node1&#45;&gt;Node6</title>
<g id="a_edge5_Node000001_Node000006"><a xlink:title=" ">
<path fill="none" stroke="#63b8ff" d="M306.49,-174.29C339.9,-164.4 389.61,-149.69 423.5,-139.65"/>
<polygon fill="#63b8ff" stroke="#63b8ff" points="424.3,-143.07 432.9,-136.87 422.31,-136.35 424.3,-143.07"/>
</a>
</g>
</g>
<!-- Node7 -->
<g id="Node000007" class="node">
<title>Node7</title>
<g id="a_Node000007"><a xlink:title=" ">
<polygon fill="#e0e0e0" stroke="#999999" points="573,-138.75 504.5,-138.75 504.5,-116.5 573,-116.5 573,-138.75"/>
<text text-anchor="middle" x="538.75" y="-125.25" font-family="Helvetica,sans-Serif" font-size="10.00">sys/types.h</text>
</a>
</g>
</g>
<!-- Node1&#45;&gt;Node7 -->
<g id="edge6_Node000001_Node000007" class="edge">
<title>Node1&#45;&gt;Node7</title>
<g id="a_edge6_Node000001_Node000007"><a xlink:title=" ">
<path fill="none" stroke="#63b8ff" d="M314.81,-176.24C357.83,-167.71 425.45,-154.09 492.8,-139.36"/>
<polygon fill="#63b8ff" stroke="#63b8ff" points="493.54,-142.78 502.56,-137.21 492.04,-135.94 493.54,-142.78"/>
</a>
</g>
</g>
<!-- Node8 -->
<g id="Node000008" class="node">
<title>Node8</title>
<g id="a_Node000008"><a xlink:href="mutt_2lib_8h.html" target="_top" xlink:title="Convenience wrapper for the library headers.">
<polygon fill="#fff0f0" stroke="red" points="87.62,-80.5 25.88,-80.5 25.88,-58.25 87.62,-58.25 87.62,-80.5"/>
<text text-anchor="middle" x="56.75" y="-67" font-family="Helvetica,sans-Serif" font-size="10.00">mutt/lib.h</text>
</a>
</g>
</g>
<!-- Node1&#45;&gt;Node8 -->
<g id="edge7_Node000001_Node000008" class="edge">
<title>Node1&#45;&gt;Node8</title>
<g id="a_edge7_Node000001_Node000008"><a xlink:title=" ">
<path fill="none" stroke="#63b8ff" d="M226.8,-183.08C188.11,-179.42 132.11,-168.82 93.75,-138.75 78.51,-126.81 68.74,-106.78 63.08,-91.48"/>
<polygon fill="#63b8ff" stroke="#63b8ff" points="66.52,-90.72 60.02,-82.35 59.88,-92.94 66.52,-90.72"/>
</a>
</g>
</g>
<!-- Node55 -->
<g id="Node000055" class="node">
<title>Node55</title>
<g id="a_Node000055"><a xlink:href="gui_2lib_8h.html" target="_top" xlink:title="Convenience wrapper for the gui headers.">
<polygon fill="#fff0f0" stroke="red" points="644.5,-138.75 591,-138.75 591,-116.5 644.5,-116.5 644.5,-138.75"/>
<text text-anchor="middle" x="617.75" y="-125.25" font-family="Helvetica,sans-Serif" font-size="10.00">gui/lib.h</text>
</a>
</g>
</g>
<!-- Node1&#45;&gt;Node55 -->
<g id="edge9_Node000001_Node000055" class="edge">
<title>Node1&#45;&gt;Node55</title>
<g id="a_edge9_Node000001_Node000055"><a xlink:title=" ">
<path fill="none" stroke="#63b8ff" d="M314.84,-180.12C373.22,-173.44 479.5,-159.92 579.5,-139.01"/>
<polygon fill="#63b8ff" stroke="#63b8ff" points="580.18,-142.44 589.23,-136.94 578.73,-135.6 580.18,-142.44"/>
</a>
</g>
</g>
<!-- Node100 -->
<g id="Node000100" class="node">
<title>Node100</title>
<g id="a_Node000100"><a xlink:href="expando_2expando_8h.html" target="_top" xlink:title="Parsed Expando.">
<polygon fill="white" stroke="#666666" points="243.12,-138.75 178.38,-138.75 178.38,-116.5 243.12,-116.5 243.12,-138.75"/>
<text text-anchor="middle" x="210.75" y="-125.25" font-family="Helvetica,sans-Serif" font-size="10.00">expando.h</text>
</a>
</g>
</g>
<!-- Node1&#45;&gt;Node100 -->
<g id="edge10_Node000001_Node000100" class="edge">
<title>Node1&#45;&gt;Node100</title>
<g id="a_edge10_Node000001_Node000100"><a xlink:title=" ">
<path fill="none" stroke="#63b8ff" d="M259.46,-174.29C251.25,-166.6 239.92,-155.97 230.26,-146.91"/>
<polygon fill="#63b8ff" stroke="#63b8ff" points="232.78,-144.48 223.09,-140.19 227.99,-149.59 232.78,-144.48"/>
</a>
</g>
</g>
<!-- Node101 -->
<g id="Node000101" class="node">
<title>Node101</title>
<g id="a_Node000101"><a xlink:href="render_8h.html" target="_top" xlink:title="Render Expandos using Data.">
<polygon fill="#fff0f0" stroke="red" points="238.25,-80.5 183.25,-80.5 183.25,-58.25 238.25,-58.25 238.25,-80.5"/>
<text text-anchor="middle" x="210.75" y="-67" font-family="Helvetica,sans-Serif" font-size="10.00">render.h</text>
</a>
</g>
</g>
<!-- Node1&#45;&gt;Node101 -->
<g id="edge17_Node000001_Node000101" class="edge">
<title>Node1&#45;&gt;Node101</title>
<g id="a_edge17_Node000001_Node000101"><a xlink:title=" ">
<path fill="none" stroke="#63b8ff" d="M269.38,-174.6C267.21,-160.72 262.12,-135.54 251.75,-116.5 246.31,-106.52 238.34,-96.89 230.87,-89.04"/>
<polygon fill="#63b8ff" stroke="#63b8ff" points="233.43,-86.65 223.88,-82.07 228.49,-91.6 233.43,-86.65"/>
</a>
</g>
</g>
<!-- Node102 -->
<g id="Node000102" class="node">
<title>Node102</title>
<g id="a_Node000102"><a xlink:href="node_8h.html" target="_top" xlink:title="Basic Expando Node.">
<polygon fill="#fff0f0" stroke="red" points="160.25,-138.75 111.25,-138.75 111.25,-116.5 160.25,-116.5 160.25,-138.75"/>
<text text-anchor="middle" x="135.75" y="-125.25" font-family="Helvetica,sans-Serif" font-size="10.00">node.h</text>
</a>
</g>
</g>
<!-- Node1&#45;&gt;Node102 -->
<g id="edge13_Node000001_Node000102" class="edge">
<title>Node1&#45;&gt;Node102</title>
<g id="a_edge13_Node000001_Node000102"><a xlink:title=" ">
<path fill="none" stroke="#63b8ff" d="M245.36,-174.29C224.39,-165.56 194.4,-153.06 171.08,-143.35"/>
<polygon fill="#63b8ff" stroke="#63b8ff" points="172.55,-140.17 161.97,-139.55 169.85,-146.63 172.55,-140.17"/>
</a>
</g>
</g>
<!-- Node8&#45;&gt;Node2 -->
<g id="edge8_Node000008_Node000002" class="edge">
<title>Node8&#45;&gt;Node2</title>
<g id="a_edge8_Node000008_Node000002"><a xlink:title=" ">
<path fill="none" stroke="#63b8ff" d="M51.11,-57.79C47.34,-50.72 42.25,-41.19 37.7,-32.66"/>
<polygon fill="#63b8ff" stroke="#63b8ff" points="40.87,-31.17 33.08,-23.99 34.7,-34.46 40.87,-31.17"/>
</a>
</g>
</g>
<!-- Node100&#45;&gt;Node4 -->
<g id="edge11_Node000100_Node000004" class="edge">
<title>Node100&#45;&gt;Node4</title>
<g id="a_edge11_Node000100_Node000004"><a xlink:title=" ">
<path fill="none" stroke="#63b8ff" d="M196.64,-116.04C185.96,-108.03 171.05,-96.85 158.67,-87.56"/>
<polygon fill="#63b8ff" stroke="#63b8ff" points="161.1,-85.02 151,-81.82 156.9,-90.62 161.1,-85.02"/>
</a>
</g>
</g>
<!-- Node100&#45;&gt;Node101 -->
<g id="edge12_Node000100_Node000101" class="edge">
<title>Node100&#45;&gt;Node101</title>
<g id="a_edge12_Node000100_Node000101"><a xlink:title=" ">
<path fill="none" stroke="#63b8ff" d="M210.75,-116.04C210.75,-109.37 210.75,-100.49 210.75,-92.34"/>
<polygon fill="#63b8ff" stroke="#63b8ff" points="214.25,-92.42 210.75,-82.42 207.25,-92.42 214.25,-92.42"/>
</a>
</g>
</g>
<!-- Node102&#45;&gt;Node4 -->
<g id="edge14_Node000102_Node000004" class="edge">
<title>Node102&#45;&gt;Node4</title>
<g id="a_edge14_Node000102_Node000004"><a xlink:title=" ">
<path fill="none" stroke="#63b8ff" d="M135.75,-116.04C135.75,-109.37 135.75,-100.49 135.75,-92.34"/>
<polygon fill="#63b8ff" stroke="#63b8ff" points="139.25,-92.42 135.75,-82.42 132.25,-92.42 139.25,-92.42"/>
</a>
</g>
</g>
<!-- Node102&#45;&gt;Node8 -->
<g id="edge15_Node000102_Node000008" class="edge">
<title>Node102&#45;&gt;Node8</title>
<g id="a_edge15_Node000102_Node000008"><a xlink:title=" ">
<path fill="none" stroke="#63b8ff" d="M120.89,-116.04C109.64,-108.03 93.94,-96.85 80.89,-87.56"/>
<polygon fill="#63b8ff" stroke="#63b8ff" points="82.95,-84.73 72.78,-81.79 78.89,-90.44 82.95,-84.73"/>
</a>
</g>
</g>
<!-- Node102&#45;&gt;Node101 -->
<g id="edge16_Node000102_Node000101" class="edge">
<title>Node102&#45;&gt;Node101</title>
<g id="a_edge16_Node000102_Node000101"><a xlink:title=" ">
<path fill="none" stroke="#63b8ff" d="M149.86,-116.04C160.54,-108.03 175.45,-96.85 187.83,-87.56"/>
<polygon fill="#63b8ff" stroke="#63b8ff" points="189.6,-90.62 195.5,-81.82 185.4,-85.02 189.6,-90.62"/>
</a>
</g>
</g>
</g>
</svg>
