<?xml version="1.0" encoding="UTF-8" standalone="no"?>
<!DOCTYPE svg PUBLIC "-//W3C//DTD SVG 1.1//EN"
 "http://www.w3.org/Graphics/SVG/1.1/DTD/svg11.dtd">
<!-- Generated by graphviz version 12.2.1 (20241206.2353)
 -->
<!-- Title: nntp/expando_browser.c Pages: 1 -->
<svg width="634pt" height="205pt"
 viewBox="0.00 0.00 634.18 205.00" xmlns="http://www.w3.org/2000/svg" xmlns:xlink="http://www.w3.org/1999/xlink">
<g id="graph0" class="graph" transform="scale(1 1) rotate(0) translate(4 201)">
<title>nntp/expando_browser.c</title>
<!-- Node1 -->
<g id="Node000001" class="node">
<title>Node1</title>
<g id="a_Node000001"><a xlink:title="Browse NNTP groups.">
<polygon fill="#999999" stroke="#666666" points="338.31,-197 209.06,-197 209.06,-174.75 338.31,-174.75 338.31,-197"/>
<text text-anchor="middle" x="273.68" y="-183.5" font-family="Helvetica,sans-Serif" font-size="10.00">nntp/expando_browser.c</text>
</a>
</g>
</g>
<!-- Node2 -->
<g id="Node000002" class="node">
<title>Node2</title>
<g id="a_Node000002"><a xlink:title=" ">
<polygon fill="#e0e0e0" stroke="#999999" points="221.43,-22.25 167.93,-22.25 167.93,0 221.43,0 221.43,-22.25"/>
<text text-anchor="middle" x="194.68" y="-8.75" font-family="Helvetica,sans-Serif" font-size="10.00">config.h</text>
</a>
</g>
</g>
<!-- Node1&#45;&gt;Node2 -->
<g id="edge1_Node000001_Node000002" class="edge">
<title>Node1&#45;&gt;Node2</title>
<g id="a_edge1_Node000001_Node000002"><a xlink:title=" ">
<path fill="none" stroke="#63b8ff" d="M208.82,-182.74C139.29,-178.92 35.5,-168.3 10.68,-138.75 -37.18,-81.77 90.11,-39.06 156.85,-21.25"/>
<polygon fill="#63b8ff" stroke="#63b8ff" points="157.51,-24.69 166.31,-18.79 155.75,-17.92 157.51,-24.69"/>
</a>
</g>
</g>
<!-- Node3 -->
<g id="Node000003" class="node">
<title>Node3</title>
<g id="a_Node000003"><a xlink:title=" ">
<polygon fill="#e0e0e0" stroke="#999999" points="238.43,-80.5 178.93,-80.5 178.93,-58.25 238.43,-58.25 238.43,-80.5"/>
<text text-anchor="middle" x="208.68" y="-67" font-family="Helvetica,sans-Serif" font-size="10.00">stdbool.h</text>
</a>
</g>
</g>
<!-- Node1&#45;&gt;Node3 -->
<g id="edge2_Node000001_Node000003" class="edge">
<title>Node1&#45;&gt;Node3</title>
<g id="a_edge2_Node000001_Node000003"><a xlink:title=" ">
<path fill="none" stroke="#63b8ff" d="M244.13,-174.42C228.19,-167.09 209.94,-155.56 200.68,-138.75 192.75,-124.36 195.65,-105.7 200.03,-91.51"/>
<polygon fill="#63b8ff" stroke="#63b8ff" points="203.26,-92.86 203.34,-82.26 196.68,-90.49 203.26,-92.86"/>
</a>
</g>
</g>
<!-- Node4 -->
<g id="Node000004" class="node">
<title>Node4</title>
<g id="a_Node000004"><a xlink:title=" ">
<polygon fill="#e0e0e0" stroke="#999999" points="153.43,-138.75 105.93,-138.75 105.93,-116.5 153.43,-116.5 153.43,-138.75"/>
<text text-anchor="middle" x="129.68" y="-125.25" font-family="Helvetica,sans-Serif" font-size="10.00">stdio.h</text>
</a>
</g>
</g>
<!-- Node1&#45;&gt;Node4 -->
<g id="edge3_Node000001_Node000004" class="edge">
<title>Node1&#45;&gt;Node4</title>
<g id="a_edge3_Node000001_Node000004"><a xlink:title=" ">
<path fill="none" stroke="#63b8ff" d="M246.6,-174.29C223.32,-165.2 189.61,-152.04 164.37,-142.17"/>
<polygon fill="#63b8ff" stroke="#63b8ff" points="165.77,-138.97 155.18,-138.59 163.23,-145.49 165.77,-138.97"/>
</a>
</g>
</g>
<!-- Node5 -->
<g id="Node000005" class="node">
<title>Node5</title>
<g id="a_Node000005"><a xlink:href="mutt_2lib_8h.html" target="_top" xlink:title="Convenience wrapper for the library headers.">
<polygon fill="#fff0f0" stroke="red" points="429.56,-80.5 367.81,-80.5 367.81,-58.25 429.56,-58.25 429.56,-80.5"/>
<text text-anchor="middle" x="398.68" y="-67" font-family="Helvetica,sans-Serif" font-size="10.00">mutt/lib.h</text>
</a>
</g>
</g>
<!-- Node1&#45;&gt;Node5 -->
<g id="edge4_Node000001_Node000005" class="edge">
<title>Node1&#45;&gt;Node5</title>
<g id="a_edge4_Node000001_Node000005"><a xlink:title=" ">
<path fill="none" stroke="#63b8ff" d="M338.51,-175.91C381.84,-168.44 433.28,-156.19 446.68,-138.75 459.78,-121.71 441.63,-101.49 424.02,-87.48"/>
<polygon fill="#63b8ff" stroke="#63b8ff" points="426.35,-84.85 416.25,-81.67 422.17,-90.46 426.35,-84.85"/>
</a>
</g>
</g>
<!-- Node54 -->
<g id="Node000054" class="node">
<title>Node54</title>
<g id="a_Node000054"><a xlink:href="config_2lib_8h.html" target="_top" xlink:title="Convenience wrapper for the config headers.">
<polygon fill="#fff0f0" stroke="red" points="87.56,-138.75 19.81,-138.75 19.81,-116.5 87.56,-116.5 87.56,-138.75"/>
<text text-anchor="middle" x="53.68" y="-125.25" font-family="Helvetica,sans-Serif" font-size="10.00">config/lib.h</text>
</a>
</g>
</g>
<!-- Node1&#45;&gt;Node54 -->
<g id="edge6_Node000001_Node000054" class="edge">
<title>Node1&#45;&gt;Node54</title>
<g id="a_edge6_Node000001_Node000054"><a xlink:title=" ">
<path fill="none" stroke="#63b8ff" d="M232.3,-174.29C194.35,-164.59 138.26,-150.25 99.09,-140.23"/>
<polygon fill="#63b8ff" stroke="#63b8ff" points="100.04,-136.86 89.48,-137.78 98.3,-143.65 100.04,-136.86"/>
</a>
</g>
</g>
<!-- Node69 -->
<g id="Node000069" class="node">
<title>Node69</title>
<g id="a_Node000069"><a xlink:href="core_2lib_8h.html" target="_top" xlink:title="Convenience wrapper for the core headers.">
<polygon fill="#fff0f0" stroke="red" points="341.43,-138.75 281.93,-138.75 281.93,-116.5 341.43,-116.5 341.43,-138.75"/>
<text text-anchor="middle" x="311.68" y="-125.25" font-family="Helvetica,sans-Serif" font-size="10.00">core/lib.h</text>
</a>
</g>
</g>
<!-- Node1&#45;&gt;Node69 -->
<g id="edge8_Node000001_Node000069" class="edge">
<title>Node1&#45;&gt;Node69</title>
<g id="a_edge8_Node000001_Node000069"><a xlink:title=" ">
<path fill="none" stroke="#63b8ff" d="M280.83,-174.29C285.71,-167.07 292.33,-157.26 298.19,-148.59"/>
<polygon fill="#63b8ff" stroke="#63b8ff" points="301.02,-150.66 303.72,-140.41 295.22,-146.74 301.02,-150.66"/>
</a>
</g>
</g>
<!-- Node79 -->
<g id="Node000079" class="node">
<title>Node79</title>
<g id="a_Node000079"><a xlink:href="expando__browser_8h.html" target="_top" xlink:title="NNTP Expando definitions.">
<polygon fill="white" stroke="#666666" points="599.31,-138.75 494.06,-138.75 494.06,-116.5 599.31,-116.5 599.31,-138.75"/>
<text text-anchor="middle" x="546.68" y="-125.25" font-family="Helvetica,sans-Serif" font-size="10.00">expando_browser.h</text>
</a>
</g>
</g>
<!-- Node1&#45;&gt;Node79 -->
<g id="edge9_Node000001_Node000079" class="edge">
<title>Node1&#45;&gt;Node79</title>
<g id="a_edge9_Node000001_Node000079"><a xlink:title=" ">
<path fill="none" stroke="#63b8ff" d="M325.03,-174.29C370.22,-164.98 436.13,-151.4 484.33,-141.47"/>
<polygon fill="#63b8ff" stroke="#63b8ff" points="484.99,-144.91 494.08,-139.46 483.58,-138.05 484.99,-144.91"/>
</a>
</g>
</g>
<!-- Node80 -->
<g id="Node000080" class="node">
<title>Node80</title>
<g id="a_Node000080"><a xlink:href="expando_2lib_8h.html" target="_top" xlink:title="Parse Expando string.">
<polygon fill="#fff0f0" stroke="red" points="626.18,-80.5 547.18,-80.5 547.18,-58.25 626.18,-58.25 626.18,-80.5"/>
<text text-anchor="middle" x="586.68" y="-67" font-family="Helvetica,sans-Serif" font-size="10.00">expando/lib.h</text>
</a>
</g>
</g>
<!-- Node1&#45;&gt;Node80 -->
<g id="edge14_Node000001_Node000080" class="edge">
<title>Node1&#45;&gt;Node80</title>
<g id="a_edge14_Node000001_Node000080"><a xlink:title=" ">
<path fill="none" stroke="#63b8ff" d="M338.47,-185.61C425.8,-185.05 574.35,-178.14 608.68,-138.75 620.53,-125.16 611.97,-105.1 602.28,-90.22"/>
<polygon fill="#63b8ff" stroke="#63b8ff" points="605.16,-88.23 596.51,-82.12 599.46,-92.3 605.16,-88.23"/>
</a>
</g>
</g>
<!-- Node99 -->
<g id="Node000099" class="node">
<title>Node99</title>
<g id="a_Node000099"><a xlink:href="browser_2lib_8h.html" target="_top" xlink:title="Select a Mailbox from a list.">
<polygon fill="#fff0f0" stroke="red" points="437.43,-138.75 359.93,-138.75 359.93,-116.5 437.43,-116.5 437.43,-138.75"/>
<text text-anchor="middle" x="398.68" y="-125.25" font-family="Helvetica,sans-Serif" font-size="10.00">browser/lib.h</text>
</a>
</g>
</g>
<!-- Node1&#45;&gt;Node99 -->
<g id="edge11_Node000001_Node000099" class="edge">
<title>Node1&#45;&gt;Node99</title>
<g id="a_edge11_Node000001_Node000099"><a xlink:title=" ">
<path fill="none" stroke="#63b8ff" d="M297.19,-174.29C316.31,-165.69 343.53,-153.44 364.97,-143.79"/>
<polygon fill="#63b8ff" stroke="#63b8ff" points="366.21,-147.07 373.9,-139.78 363.34,-140.69 366.21,-147.07"/>
</a>
</g>
</g>
<!-- Node100 -->
<g id="Node000100" class="node">
<title>Node100</title>
<g id="a_Node000100"><a xlink:href="nntp_2mdata_8h.html" target="_top" xlink:title="Nntp&#45;specific Mailbox data.">
<polygon fill="#fff0f0" stroke="red" points="263.81,-138.75 209.56,-138.75 209.56,-116.5 263.81,-116.5 263.81,-138.75"/>
<text text-anchor="middle" x="236.68" y="-125.25" font-family="Helvetica,sans-Serif" font-size="10.00">mdata.h</text>
</a>
</g>
</g>
<!-- Node1&#45;&gt;Node100 -->
<g id="edge15_Node000001_Node000100" class="edge">
<title>Node1&#45;&gt;Node100</title>
<g id="a_edge15_Node000001_Node000100"><a xlink:title=" ">
<path fill="none" stroke="#63b8ff" d="M266.72,-174.29C261.97,-167.07 255.52,-157.26 249.82,-148.59"/>
<polygon fill="#63b8ff" stroke="#63b8ff" points="252.86,-146.85 244.44,-140.42 247.01,-150.7 252.86,-146.85"/>
</a>
</g>
</g>
<!-- Node5&#45;&gt;Node2 -->
<g id="edge5_Node000005_Node000002" class="edge">
<title>Node5&#45;&gt;Node2</title>
<g id="a_edge5_Node000005_Node000002"><a xlink:title=" ">
<path fill="none" stroke="#63b8ff" d="M367.7,-59.83C331.48,-49.85 271.55,-33.32 232.59,-22.58"/>
<polygon fill="#63b8ff" stroke="#63b8ff" points="233.74,-19.26 223.17,-19.98 231.88,-26.01 233.74,-19.26"/>
</a>
</g>
</g>
<!-- Node54&#45;&gt;Node3 -->
<g id="edge7_Node000054_Node000003" class="edge">
<title>Node54&#45;&gt;Node3</title>
<g id="a_edge7_Node000054_Node000003"><a xlink:title=" ">
<path fill="none" stroke="#63b8ff" d="M82.84,-116.04C107.19,-107.21 142.16,-94.52 169.05,-84.76"/>
<polygon fill="#63b8ff" stroke="#63b8ff" points="170.03,-88.13 178.24,-81.42 167.64,-81.55 170.03,-88.13"/>
</a>
</g>
</g>
<!-- Node79&#45;&gt;Node80 -->
<g id="edge10_Node000079_Node000080" class="edge">
<title>Node79&#45;&gt;Node80</title>
<g id="a_edge10_Node000079_Node000080"><a xlink:title=" ">
<path fill="none" stroke="#63b8ff" d="M554.21,-116.04C559.4,-108.74 566.47,-98.8 572.68,-90.06"/>
<polygon fill="#63b8ff" stroke="#63b8ff" points="575.37,-92.32 578.32,-82.14 569.67,-88.26 575.37,-92.32"/>
</a>
</g>
</g>
<!-- Node99&#45;&gt;Node3 -->
<g id="edge12_Node000099_Node000003" class="edge">
<title>Node99&#45;&gt;Node3</title>
<g id="a_edge12_Node000099_Node000003"><a xlink:title=" ">
<path fill="none" stroke="#63b8ff" d="M362.94,-116.04C330.69,-106.49 283.25,-92.45 249.51,-82.46"/>
<polygon fill="#63b8ff" stroke="#63b8ff" points="250.67,-79.15 240.09,-79.67 248.68,-85.87 250.67,-79.15"/>
</a>
</g>
</g>
<!-- Node99&#45;&gt;Node5 -->
<g id="edge13_Node000099_Node000005" class="edge">
<title>Node99&#45;&gt;Node5</title>
<g id="a_edge13_Node000099_Node000005"><a xlink:title=" ">
<path fill="none" stroke="#63b8ff" d="M398.68,-116.04C398.68,-109.37 398.68,-100.49 398.68,-92.34"/>
<polygon fill="#63b8ff" stroke="#63b8ff" points="402.18,-92.42 398.68,-82.42 395.18,-92.42 402.18,-92.42"/>
</a>
</g>
</g>
<!-- Node100&#45;&gt;Node3 -->
<g id="edge16_Node000100_Node000003" class="edge">
<title>Node100&#45;&gt;Node3</title>
<g id="a_edge16_Node000100_Node000003"><a xlink:title=" ">
<path fill="none" stroke="#63b8ff" d="M231.42,-116.04C227.94,-109.05 223.26,-99.65 219.05,-91.2"/>
<polygon fill="#63b8ff" stroke="#63b8ff" points="222.19,-89.66 214.6,-82.26 215.92,-92.77 222.19,-89.66"/>
</a>
</g>
</g>
</g>
</svg>
