<?xml version="1.0" encoding="UTF-8" standalone="no"?>
<!DOCTYPE svg PUBLIC "-//W3C//DTD SVG 1.1//EN"
 "http://www.w3.org/Graphics/SVG/1.1/DTD/svg11.dtd">
<!-- Generated by graphviz version 7.1.0 (0)
 -->
<!-- Title: filter_text Pages: 1 -->
<svg width="186pt" height="286pt"
 viewBox="0.00 0.00 186.00 286.00" xmlns="http://www.w3.org/2000/svg" xmlns:xlink="http://www.w3.org/1999/xlink">
<g id="graph0" class="graph" transform="scale(1 1) rotate(0) translate(4 282)">
<title>filter_text</title>
<!-- Node1 -->
<g id="node1" class="node">
<title>Node1</title>
<g id="a_node1"><a xlink:title="Filter the text through an external command.">
<polygon fill="#999999" stroke="#666666" points="62,-148 0,-148 0,-129 62,-129 62,-148"/>
<text text-anchor="middle" x="31" y="-136" font-family="Helvetica,sans-Serif" font-size="10.00">filter_text</text>
</a>
</g>
</g>
<!-- Node2 -->
<g id="node2" class="node">
<title>Node2</title>
<g id="a_node2"><a xlink:href="buffer_8c.html#ac8c1b4224978605f05de115d11107551" target="_top" xlink:title="Return a pointer to a char found in the buffer.">
<polygon fill="white" stroke="#666666" points="178,-278 98,-278 98,-259 178,-259 178,-278"/>
<text text-anchor="middle" x="138" y="-266" font-family="Helvetica,sans-Serif" font-size="10.00">buf_find_char</text>
</a>
</g>
</g>
<!-- Node1&#45;&gt;Node2 -->
<g id="edge1" class="edge">
<title>Node1&#45;&gt;Node2</title>
<path fill="none" stroke="#63b8ff" d="M35.41,-148.2C43.29,-169.41 64.69,-220.37 98,-250.5 98.77,-251.2 99.58,-251.88 100.41,-252.53"/>
<polygon fill="#63b8ff" stroke="#63b8ff" points="98.48,-255.45 108.79,-257.9 102.26,-249.56 98.48,-255.45"/>
</g>
<!-- Node3 -->
<g id="node3" class="node">
<title>Node3</title>
<g id="a_node3"><a xlink:href="buffer_8c.html#a4964d146427002ec3b52e121513b6078" target="_top" xlink:title="Move the dptr to end of the Buffer.">
<polygon fill="#fff0f0" stroke="red" points="174.5,-241 101.5,-241 101.5,-222 174.5,-222 174.5,-241"/>
<text text-anchor="middle" x="138" y="-229" font-family="Helvetica,sans-Serif" font-size="10.00">buf_fix_dptr</text>
</a>
</g>
</g>
<!-- Node1&#45;&gt;Node3 -->
<g id="edge2" class="edge">
<title>Node1&#45;&gt;Node3</title>
<path fill="none" stroke="#63b8ff" d="M38.65,-148.43C49.51,-164.02 72.42,-194.42 98,-213.5 99.14,-214.35 100.33,-215.18 101.56,-215.98"/>
<polygon fill="#63b8ff" stroke="#63b8ff" points="99.63,-218.91 110.05,-220.79 103.08,-212.82 99.63,-218.91"/>
</g>
<!-- Node6 -->
<g id="node4" class="node">
<title>Node6</title>
<g id="a_node4"><a xlink:href="buffer_8c.html#a4245e227baa2a9beb6991917404aab0d" target="_top" xlink:title="Is the Buffer empty?">
<polygon fill="white" stroke="#666666" points="177,-204 99,-204 99,-185 177,-185 177,-204"/>
<text text-anchor="middle" x="138" y="-192" font-family="Helvetica,sans-Serif" font-size="10.00">buf_is_empty</text>
</a>
</g>
</g>
<!-- Node1&#45;&gt;Node6 -->
<g id="edge3" class="edge">
<title>Node1&#45;&gt;Node6</title>
<path fill="none" stroke="#63b8ff" d="M48.32,-148.44C61.54,-156.37 80.74,-167.57 98,-176.5 100.07,-177.57 102.22,-178.65 104.39,-179.72"/>
<polygon fill="#63b8ff" stroke="#63b8ff" points="102.66,-182.77 113.19,-183.91 105.67,-176.45 102.66,-182.77"/>
</g>
<!-- Node5 -->
<g id="node5" class="node">
<title>Node5</title>
<g id="a_node5"><a xlink:href="buffer_8c.html#a2914dc2d9a9d77e4c9970b4249be9370" target="_top" xlink:title="Calculate the length of a Buffer.">
<polygon fill="white" stroke="#666666" points="163.5,-167 112.5,-167 112.5,-148 163.5,-148 163.5,-167"/>
<text text-anchor="middle" x="138" y="-155" font-family="Helvetica,sans-Serif" font-size="10.00">buf_len</text>
</a>
</g>
</g>
<!-- Node1&#45;&gt;Node5 -->
<g id="edge4" class="edge">
<title>Node1&#45;&gt;Node5</title>
<path fill="none" stroke="#63b8ff" d="M62.37,-144C74.43,-146.18 88.39,-148.7 100.95,-150.98"/>
<polygon fill="#63b8ff" stroke="#63b8ff" points="100.05,-154.37 110.51,-152.71 101.3,-147.48 100.05,-154.37"/>
</g>
<!-- Node7 -->
<g id="node6" class="node">
<title>Node7</title>
<g id="a_node6"><a xlink:href="buffer_8c.html#a3b1f80652b37dc26046f9acdd85a0b05" target="_top" xlink:title="Reset an existing Buffer.">
<polygon fill="#fff0f0" stroke="red" points="168.5,-130 107.5,-130 107.5,-111 168.5,-111 168.5,-130"/>
<text text-anchor="middle" x="138" y="-118" font-family="Helvetica,sans-Serif" font-size="10.00">buf_reset</text>
</a>
</g>
</g>
<!-- Node1&#45;&gt;Node7 -->
<g id="edge5" class="edge">
<title>Node1&#45;&gt;Node7</title>
<path fill="none" stroke="#63b8ff" d="M62.37,-133.29C72.8,-131.51 84.65,-129.47 95.8,-127.56"/>
<polygon fill="#63b8ff" stroke="#63b8ff" points="96.3,-131.03 105.57,-125.89 95.12,-124.13 96.3,-131.03"/>
</g>
<!-- Node8 -->
<g id="node7" class="node">
<title>Node8</title>
<g id="a_node7"><a xlink:href="buffer_8h.html#a728ebc5a947b77c8d56db44ce553a7ab" target="_top" xlink:title="Convert a buffer to a const char * &quot;string&quot;.">
<polygon fill="white" stroke="#666666" points="170,-93 106,-93 106,-74 170,-74 170,-93"/>
<text text-anchor="middle" x="138" y="-81" font-family="Helvetica,sans-Serif" font-size="10.00">buf_string</text>
</a>
</g>
</g>
<!-- Node1&#45;&gt;Node8 -->
<g id="edge6" class="edge">
<title>Node1&#45;&gt;Node8</title>
<path fill="none" stroke="#63b8ff" d="M49.53,-128.65C62.76,-121.29 81.41,-111.06 98,-102.5 100.58,-101.17 103.26,-99.81 105.96,-98.46"/>
<polygon fill="#63b8ff" stroke="#63b8ff" points="107.49,-101.61 114.91,-94.05 104.39,-95.33 107.49,-101.61"/>
</g>
<!-- Node9 -->
<g id="node8" class="node">
<title>Node9</title>
<g id="a_node8"><a xlink:href="mutt_2filter_8c.html#ad1ec6916f8ee2520af1711891f6b5302" target="_top" xlink:title="Set up filter program.">
<polygon fill="#fff0f0" stroke="red" points="174.5,-56 101.5,-56 101.5,-37 174.5,-37 174.5,-56"/>
<text text-anchor="middle" x="138" y="-44" font-family="Helvetica,sans-Serif" font-size="10.00">filter_create</text>
</a>
</g>
</g>
<!-- Node1&#45;&gt;Node9 -->
<g id="edge7" class="edge">
<title>Node1&#45;&gt;Node9</title>
<path fill="none" stroke="#63b8ff" d="M38.94,-128.66C50.02,-113.52 73.01,-84.29 98,-65.5 99.72,-64.21 101.53,-62.97 103.41,-61.79"/>
<polygon fill="#63b8ff" stroke="#63b8ff" points="104.73,-65.06 111.74,-57.11 101.31,-58.96 104.73,-65.06"/>
</g>
<!-- Node14 -->
<g id="node9" class="node">
<title>Node14</title>
<g id="a_node9"><a xlink:href="mutt_2filter_8c.html#a22c6912b837b1114c3276c990e73dca3" target="_top" xlink:title="Wait for the exit of a process and return its status.">
<polygon fill="#fff0f0" stroke="red" points="169,-19 107,-19 107,0 169,0 169,-19"/>
<text text-anchor="middle" x="138" y="-7" font-family="Helvetica,sans-Serif" font-size="10.00">filter_wait</text>
</a>
</g>
</g>
<!-- Node1&#45;&gt;Node14 -->
<g id="edge8" class="edge">
<title>Node1&#45;&gt;Node14</title>
<path fill="none" stroke="#63b8ff" d="M35.62,-128.71C43.79,-107.8 65.49,-58.29 98,-28.5 99.21,-27.39 100.51,-26.33 101.85,-25.31"/>
<polygon fill="#63b8ff" stroke="#63b8ff" points="103.42,-28.46 110.03,-20.18 99.7,-22.54 103.42,-28.46"/>
</g>
</g>
</svg>
