<?xml version="1.0" encoding="UTF-8" standalone="no"?>
<!DOCTYPE svg PUBLIC "-//W3C//DTD SVG 1.1//EN"
 "http://www.w3.org/Graphics/SVG/1.1/DTD/svg11.dtd">
<!-- Generated by graphviz version 7.1.0 (0)
 -->
<!-- Title: pipe_message Pages: 1 -->
<svg width="449pt" height="433pt"
 viewBox="0.00 0.00 449.00 433.47" xmlns="http://www.w3.org/2000/svg" xmlns:xlink="http://www.w3.org/1999/xlink">
<g id="graph0" class="graph" transform="scale(1 1) rotate(0) translate(4 429.47)">
<title>pipe_message</title>
<!-- Node1 -->
<g id="node1" class="node">
<title>Node1</title>
<g id="a_node1"><a xlink:title="Pipe message to a command.">
<polygon fill="#999999" stroke="#666666" points="83,-222 0,-222 0,-203 83,-203 83,-222"/>
<text text-anchor="middle" x="41.5" y="-210" font-family="Helvetica,sans-Serif" font-size="10.00">pipe_message</text>
</a>
</g>
</g>
<!-- Node2 -->
<g id="node2" class="node">
<title>Node2</title>
<g id="a_node2"><a xlink:href="crypt_8c.html#a4ee7f1419a7e39b0e9f1f9d550f4de43" target="_top" xlink:title="Check that we have a usable passphrase, ask if not.">
<polygon fill="#fff0f0" stroke="red" points="429,-421 307,-421 307,-402 429,-402 429,-421"/>
<text text-anchor="middle" x="368" y="-409" font-family="Helvetica,sans-Serif" font-size="10.00">crypt_valid_passphrase</text>
</a>
</g>
</g>
<!-- Node1&#45;&gt;Node2 -->
<g id="edge1" class="edge">
<title>Node1&#45;&gt;Node2</title>
<path fill="none" stroke="#63b8ff" d="M43.36,-222.27C46.62,-252.94 61.2,-347.74 119,-389.5 171.66,-427.55 247.98,-428.5 302.02,-422.8"/>
<polygon fill="#63b8ff" stroke="#63b8ff" points="302.17,-426.31 311.69,-421.67 301.35,-419.36 302.17,-426.31"/>
</g>
<!-- Node5 -->
<g id="node3" class="node">
<title>Node5</title>
<g id="a_node3"><a xlink:href="config_2helpers_8c.html#ae50f679dd6c5bd1ba820884c8602f038" target="_top" xlink:title="Get a boolean config item by name.">
<polygon fill="#fff0f0" stroke="red" points="232,-241 146,-241 146,-222 232,-222 232,-241"/>
<text text-anchor="middle" x="189" y="-229" font-family="Helvetica,sans-Serif" font-size="10.00">cs_subset_bool</text>
</a>
</g>
</g>
<!-- Node1&#45;&gt;Node5 -->
<g id="edge2" class="edge">
<title>Node1&#45;&gt;Node5</title>
<path fill="none" stroke="#63b8ff" d="M83.42,-217.84C99.19,-219.9 117.46,-222.29 134.26,-224.48"/>
<polygon fill="#63b8ff" stroke="#63b8ff" points="133.75,-227.95 144.12,-225.77 134.65,-221 133.75,-227.95"/>
</g>
<!-- Node33 -->
<g id="node4" class="node">
<title>Node33</title>
<g id="a_node4"><a xlink:href="filter_8c.html#ad1ec6916f8ee2520af1711891f6b5302" target="_top" xlink:title="Set up filter program.">
<polygon fill="#fff0f0" stroke="red" points="225.5,-204 152.5,-204 152.5,-185 225.5,-185 225.5,-204"/>
<text text-anchor="middle" x="189" y="-192" font-family="Helvetica,sans-Serif" font-size="10.00">filter_create</text>
</a>
</g>
</g>
<!-- Node1&#45;&gt;Node33 -->
<g id="edge3" class="edge">
<title>Node1&#45;&gt;Node33</title>
<path fill="none" stroke="#63b8ff" d="M83.42,-207.44C101.38,-205.22 122.56,-202.6 141.15,-200.3"/>
<polygon fill="#63b8ff" stroke="#63b8ff" points="141.34,-203.8 150.83,-199.1 140.48,-196.85 141.34,-203.8"/>
</g>
<!-- Node37 -->
<g id="node5" class="node">
<title>Node37</title>
<g id="a_node5"><a xlink:href="filter_8c.html#a22c6912b837b1114c3276c990e73dca3" target="_top" xlink:title="Wait for the exit of a process and return its status.">
<polygon fill="#fff0f0" stroke="red" points="220,-167 158,-167 158,-148 220,-148 220,-167"/>
<text text-anchor="middle" x="189" y="-155" font-family="Helvetica,sans-Serif" font-size="10.00">filter_wait</text>
</a>
</g>
</g>
<!-- Node1&#45;&gt;Node37 -->
<g id="edge4" class="edge">
<title>Node1&#45;&gt;Node37</title>
<path fill="none" stroke="#63b8ff" d="M60.3,-202.66C75.54,-194.54 98.23,-183.15 119,-175.5 127.84,-172.25 137.52,-169.34 146.75,-166.85"/>
<polygon fill="#63b8ff" stroke="#63b8ff" points="147.44,-170.29 156.25,-164.42 145.7,-163.51 147.44,-170.29"/>
</g>
<!-- Node38 -->
<g id="node6" class="node">
<title>Node38</title>
<g id="a_node6"><a xlink:href="curs__lib_8c.html#ab6a61cdfcf8c2c73ee59381c79c79774" target="_top" xlink:title="Prompt the user to &#39;press any key&#39; and wait.">
<polygon fill="#fff0f0" stroke="red" points="259,-130 119,-130 119,-111 259,-111 259,-130"/>
<text text-anchor="middle" x="189" y="-118" font-family="Helvetica,sans-Serif" font-size="10.00">mutt_any_key_to_continue</text>
</a>
</g>
</g>
<!-- Node1&#45;&gt;Node38 -->
<g id="edge5" class="edge">
<title>Node1&#45;&gt;Node38</title>
<path fill="none" stroke="#63b8ff" d="M49.81,-202.7C62.23,-186.77 89.04,-155.34 119,-138.5 121.5,-137.09 124.12,-135.79 126.8,-134.59"/>
<polygon fill="#63b8ff" stroke="#63b8ff" points="127.99,-137.89 136.03,-130.99 125.44,-131.37 127.99,-137.89"/>
</g>
<!-- Node14 -->
<g id="node7" class="node">
<title>Node14</title>
<g id="a_node7"><a xlink:href="curs__lib_8c.html#acd14d074d8b9e6cb21e851dd573cdec2" target="_top" xlink:title="Shutdown curses.">
<polygon fill="#fff0f0" stroke="red" points="227.5,-93 150.5,-93 150.5,-74 227.5,-74 227.5,-93"/>
<text text-anchor="middle" x="189" y="-81" font-family="Helvetica,sans-Serif" font-size="10.00">mutt_endwin</text>
</a>
</g>
</g>
<!-- Node1&#45;&gt;Node14 -->
<g id="edge6" class="edge">
<title>Node1&#45;&gt;Node14</title>
<path fill="none" stroke="#63b8ff" d="M46.38,-202.75C55.54,-181 80.67,-128.36 119,-101.5 125.06,-97.25 132.05,-94.01 139.21,-91.53"/>
<polygon fill="#63b8ff" stroke="#63b8ff" points="140.04,-94.93 148.65,-88.75 138.06,-88.22 140.04,-94.93"/>
</g>
<!-- Node77 -->
<g id="node8" class="node">
<title>Node77</title>
<g id="a_node8"><a xlink:href="file_8c.html#a31f49795ff5b9558db5476e5777e63b6" target="_top" xlink:title="Close a FILE handle (and NULL the pointer)">
<polygon fill="white" stroke="#666666" points="233.5,-56 144.5,-56 144.5,-37 233.5,-37 233.5,-56"/>
<text text-anchor="middle" x="189" y="-44" font-family="Helvetica,sans-Serif" font-size="10.00">mutt_file_fclose</text>
</a>
</g>
</g>
<!-- Node1&#45;&gt;Node77 -->
<g id="edge7" class="edge">
<title>Node1&#45;&gt;Node77</title>
<path fill="none" stroke="#63b8ff" d="M44.6,-202.8C50.88,-176.29 72.01,-102.07 119,-64.5 123.42,-60.97 128.46,-58.12 133.76,-55.83"/>
<polygon fill="#63b8ff" stroke="#63b8ff" points="134.53,-59.27 142.75,-52.59 132.15,-52.69 134.53,-59.27"/>
</g>
<!-- Node78 -->
<g id="node9" class="node">
<title>Node78</title>
<g id="a_node9"><a xlink:href="hook_8c.html#af487ca5e3f7da21c86e3ad61fdb55faa" target="_top" xlink:title="Perform a message hook.">
<polygon fill="#fff0f0" stroke="red" points="245.5,-19 132.5,-19 132.5,0 245.5,0 245.5,-19"/>
<text text-anchor="middle" x="189" y="-7" font-family="Helvetica,sans-Serif" font-size="10.00">mutt_message_hook</text>
</a>
</g>
</g>
<!-- Node1&#45;&gt;Node78 -->
<g id="edge8" class="edge">
<title>Node1&#45;&gt;Node78</title>
<path fill="none" stroke="#63b8ff" d="M43.53,-202.71C47.29,-171.91 63.19,-76.14 119,-27.5 120.1,-26.54 121.25,-25.63 122.44,-24.77"/>
<polygon fill="#63b8ff" stroke="#63b8ff" points="124.02,-27.89 130.87,-19.81 120.48,-21.86 124.02,-27.89"/>
</g>
<!-- Node110 -->
<g id="node10" class="node">
<title>Node110</title>
<g id="a_node10"><a xlink:href="attachments_8c.html#a521686f973cf66e6c60be12cc9659ac3" target="_top" xlink:title="Parse a MIME email.">
<polygon fill="#fff0f0" stroke="red" points="441,-365 295,-365 295,-346 441,-346 441,-365"/>
<text text-anchor="middle" x="368" y="-353" font-family="Helvetica,sans-Serif" font-size="10.00">mutt_parse_mime_message</text>
</a>
</g>
</g>
<!-- Node1&#45;&gt;Node110 -->
<g id="edge9" class="edge">
<title>Node1&#45;&gt;Node110</title>
<path fill="none" stroke="#63b8ff" d="M43.91,-222.31C48.54,-250.52 66.18,-331.95 119,-364.5 183.96,-404.53 277.74,-384.87 329.36,-368.94"/>
<polygon fill="#63b8ff" stroke="#63b8ff" points="330.43,-372.28 338.88,-365.89 328.29,-365.61 330.43,-372.28"/>
</g>
<!-- Node85 -->
<g id="node11" class="node">
<title>Node85</title>
<g id="a_node11"><a xlink:href="mx_8c.html#a2610a2afe8887bb874131a4ba092aa6a" target="_top" xlink:title="Close a message.">
<polygon fill="#fff0f0" stroke="red" points="409.5,-322 326.5,-322 326.5,-303 409.5,-303 409.5,-322"/>
<text text-anchor="middle" x="368" y="-310" font-family="Helvetica,sans-Serif" font-size="10.00">mx_msg_close</text>
</a>
</g>
</g>
<!-- Node1&#45;&gt;Node85 -->
<g id="edge10" class="edge">
<title>Node1&#45;&gt;Node85</title>
<path fill="none" stroke="#63b8ff" d="M50.81,-222.06C63.79,-236.3 90.39,-262.77 119,-275.5 182.42,-303.71 263.04,-311.13 314.84,-312.72"/>
<polygon fill="#63b8ff" stroke="#63b8ff" points="314.48,-316.21 324.56,-312.95 314.65,-309.21 314.48,-316.21"/>
</g>
<!-- Node87 -->
<g id="node12" class="node">
<title>Node87</title>
<g id="a_node12"><a xlink:href="mx_8c.html#a9b2902ecb2bebbd553a8ec733ca59886" target="_top" xlink:title="Return a stream pointer for a message.">
<polygon fill="#fff0f0" stroke="red" points="409.5,-285 326.5,-285 326.5,-266 409.5,-266 409.5,-285"/>
<text text-anchor="middle" x="368" y="-273" font-family="Helvetica,sans-Serif" font-size="10.00">mx_msg_open</text>
</a>
</g>
</g>
<!-- Node1&#45;&gt;Node87 -->
<g id="edge11" class="edge">
<title>Node1&#45;&gt;Node87</title>
<path fill="none" stroke="#63b8ff" d="M58.85,-222.48C73.9,-231.15 97.15,-243.28 119,-249.5 184.86,-268.26 264.01,-273.76 314.89,-275.23"/>
<polygon fill="#63b8ff" stroke="#63b8ff" points="314.65,-278.72 324.73,-275.47 314.82,-271.73 314.65,-278.72"/>
</g>
<!-- Node1269 -->
<g id="node13" class="node">
<title>Node1269</title>
<g id="a_node13"><a xlink:href="external_8c.html#ae4d23abacf682ae58ea7dd61f979309c" target="_top" xlink:title="Pipe a message.">
<polygon fill="#fff0f0" stroke="red" points="219.5,-355 158.5,-355 158.5,-336 219.5,-336 219.5,-355"/>
<text text-anchor="middle" x="189" y="-343" font-family="Helvetica,sans-Serif" font-size="10.00">pipe_msg</text>
</a>
</g>
</g>
<!-- Node1&#45;&gt;Node1269 -->
<g id="edge12" class="edge">
<title>Node1&#45;&gt;Node1269</title>
<path fill="none" stroke="#63b8ff" d="M46.73,-222.18C56.42,-243.29 82.29,-293.77 119,-321.5 127.31,-327.78 137.39,-332.49 147.24,-336.01"/>
<polygon fill="#63b8ff" stroke="#63b8ff" points="146.14,-339.33 156.73,-339.03 148.26,-332.66 146.14,-339.33"/>
</g>
<!-- Node1269&#45;&gt;Node2 -->
<g id="edge13" class="edge">
<title>Node1269&#45;&gt;Node2</title>
<path fill="none" stroke="#63b8ff" d="M216.5,-355.38C246.61,-366.61 295.96,-385.01 329.89,-397.66"/>
<polygon fill="#63b8ff" stroke="#63b8ff" points="328.31,-400.81 338.9,-401.02 330.76,-394.25 328.31,-400.81"/>
</g>
<!-- Node1269&#45;&gt;Node110 -->
<g id="edge14" class="edge">
<title>Node1269&#45;&gt;Node110</title>
<path fill="none" stroke="#63b8ff" d="M219.63,-347.17C237.3,-348.17 260.71,-349.5 283.66,-350.79"/>
<polygon fill="#63b8ff" stroke="#63b8ff" points="283.17,-354.27 293.35,-351.34 283.56,-347.28 283.17,-354.27"/>
</g>
<!-- Node1269&#45;&gt;Node85 -->
<g id="edge15" class="edge">
<title>Node1269&#45;&gt;Node85</title>
<path fill="none" stroke="#63b8ff" d="M219.63,-339.98C245.66,-335.12 284.13,-327.95 315.23,-322.15"/>
<polygon fill="#63b8ff" stroke="#63b8ff" points="315.65,-325.63 324.84,-320.36 314.37,-318.75 315.65,-325.63"/>
</g>
<!-- Node1269&#45;&gt;Node87 -->
<g id="edge16" class="edge">
<title>Node1269&#45;&gt;Node87</title>
<path fill="none" stroke="#63b8ff" d="M206.96,-335.68C227.31,-324.23 262.73,-305.37 295,-293.5 301.51,-291.11 308.46,-288.92 315.38,-286.97"/>
<polygon fill="#63b8ff" stroke="#63b8ff" points="315.95,-290.44 324.71,-284.48 314.15,-283.68 315.95,-290.44"/>
</g>
</g>
</svg>
