<?xml version="1.0" encoding="UTF-8" standalone="no"?>
<!DOCTYPE svg PUBLIC "-//W3C//DTD SVG 1.1//EN"
 "http://www.w3.org/Graphics/SVG/1.1/DTD/svg11.dtd">
<!-- Generated by graphviz version 7.1.0 (0)
 -->
<!-- Title: mutt_shell_escape Pages: 1 -->
<svg width="385pt" height="436pt"
 viewBox="0.00 0.00 385.00 436.00" xmlns="http://www.w3.org/2000/svg" xmlns:xlink="http://www.w3.org/1999/xlink">
<g id="graph0" class="graph" transform="scale(1 1) rotate(0) translate(4 432)">
<title>mutt_shell_escape</title>
<!-- Node1 -->
<g id="node1" class="node">
<title>Node1</title>
<g id="a_node1"><a xlink:title="Invoke a command in a subshell.">
<polygon fill="#999999" stroke="#666666" points="101,-222 0,-222 0,-203 101,-203 101,-222"/>
<text text-anchor="middle" x="50.5" y="-210" font-family="Helvetica,sans-Serif" font-size="10.00">mutt_shell_escape</text>
</a>
</g>
</g>
<!-- Node2 -->
<g id="node2" class="node">
<title>Node2</title>
<g id="a_node2"><a xlink:href="buffer_8c.html#a4245e227baa2a9beb6991917404aab0d" target="_top" xlink:title="Is the Buffer empty?">
<polygon fill="#fff0f0" stroke="red" points="246,-428 168,-428 168,-409 246,-409 246,-428"/>
<text text-anchor="middle" x="207" y="-416" font-family="Helvetica,sans-Serif" font-size="10.00">buf_is_empty</text>
</a>
</g>
</g>
<!-- Node1&#45;&gt;Node2 -->
<g id="edge1" class="edge">
<title>Node1&#45;&gt;Node2</title>
<path fill="none" stroke="#63b8ff" d="M52.98,-222.47C58.18,-253.83 78.57,-351.32 137,-400.5 142.72,-405.32 149.59,-408.86 156.74,-411.47"/>
<polygon fill="#63b8ff" stroke="#63b8ff" points="155.67,-414.8 166.25,-414.31 157.67,-408.09 155.67,-414.8"/>
</g>
<!-- Node5 -->
<g id="node3" class="node">
<title>Node5</title>
<g id="a_node3"><a xlink:href="pool_8c.html#a41cba27c25d33cb6822789a2856093f2" target="_top" xlink:title="Get a Buffer from the pool.">
<polygon fill="#fff0f0" stroke="red" points="245.5,-391 168.5,-391 168.5,-372 245.5,-372 245.5,-391"/>
<text text-anchor="middle" x="207" y="-379" font-family="Helvetica,sans-Serif" font-size="10.00">buf_pool_get</text>
</a>
</g>
</g>
<!-- Node1&#45;&gt;Node5 -->
<g id="edge2" class="edge">
<title>Node1&#45;&gt;Node5</title>
<path fill="none" stroke="#63b8ff" d="M54.15,-222.41C61.93,-249.5 87.32,-325.31 137,-363.5 142.93,-368.06 149.91,-371.47 157.1,-374.02"/>
<polygon fill="#63b8ff" stroke="#63b8ff" points="156.06,-377.36 166.64,-376.83 158.04,-370.64 156.06,-377.36"/>
</g>
<!-- Node13 -->
<g id="node4" class="node">
<title>Node13</title>
<g id="a_node4"><a xlink:href="pool_8c.html#a4cc6068279461cb8628219586dfa35a1" target="_top" xlink:title="Return a Buffer to the pool.">
<polygon fill="#fff0f0" stroke="red" points="254.5,-354 159.5,-354 159.5,-335 254.5,-335 254.5,-354"/>
<text text-anchor="middle" x="207" y="-342" font-family="Helvetica,sans-Serif" font-size="10.00">buf_pool_release</text>
</a>
</g>
</g>
<!-- Node1&#45;&gt;Node13 -->
<g id="edge3" class="edge">
<title>Node1&#45;&gt;Node13</title>
<path fill="none" stroke="#63b8ff" d="M55.93,-222.19C66.55,-244.31 95.71,-298.78 137,-326.5 140.65,-328.95 144.62,-331.07 148.75,-332.9"/>
<polygon fill="#63b8ff" stroke="#63b8ff" points="147.24,-336.07 157.83,-336.35 149.72,-329.53 147.24,-336.07"/>
</g>
<!-- Node18 -->
<g id="node5" class="node">
<title>Node18</title>
<g id="a_node5"><a xlink:href="buffer_8c.html#ac958acbd189e463a2c3bbc2f23aaeb1e" target="_top" xlink:title="Copy a string into a Buffer.">
<polygon fill="#fff0f0" stroke="red" points="239.5,-317 174.5,-317 174.5,-298 239.5,-298 239.5,-317"/>
<text text-anchor="middle" x="207" y="-305" font-family="Helvetica,sans-Serif" font-size="10.00">buf_strcpy</text>
</a>
</g>
</g>
<!-- Node1&#45;&gt;Node18 -->
<g id="edge4" class="edge">
<title>Node1&#45;&gt;Node18</title>
<path fill="none" stroke="#63b8ff" d="M60.89,-222.29C75.77,-237.32 106.25,-266.14 137,-283.5 145.17,-288.11 154.37,-292.06 163.33,-295.34"/>
<polygon fill="#63b8ff" stroke="#63b8ff" points="162.03,-298.6 172.63,-298.53 164.3,-291.98 162.03,-298.6"/>
</g>
<!-- Node19 -->
<g id="node6" class="node">
<title>Node19</title>
<g id="a_node6"><a xlink:href="buffer_8h.html#a728ebc5a947b77c8d56db44ce553a7ab" target="_top" xlink:title="Convert a buffer to a const char * &quot;string&quot;.">
<polygon fill="white" stroke="#666666" points="377,-149 313,-149 313,-130 377,-130 377,-149"/>
<text text-anchor="middle" x="345" y="-137" font-family="Helvetica,sans-Serif" font-size="10.00">buf_string</text>
</a>
</g>
</g>
<!-- Node1&#45;&gt;Node19 -->
<g id="edge5" class="edge">
<title>Node1&#45;&gt;Node19</title>
<path fill="none" stroke="#63b8ff" d="M68.63,-222.44C108.13,-243.93 207.51,-289.73 277,-250.5 311.18,-231.21 329.88,-186.69 338.34,-160.27"/>
<polygon fill="#63b8ff" stroke="#63b8ff" points="341.69,-161.28 341.17,-150.7 334.97,-159.3 341.69,-161.28"/>
</g>
<!-- Node20 -->
<g id="node7" class="node">
<title>Node20</title>
<g id="a_node7"><a xlink:href="config_2helpers_8c.html#ae50f679dd6c5bd1ba820884c8602f038" target="_top" xlink:title="Get a boolean config item by name.">
<polygon fill="#fff0f0" stroke="red" points="250,-241 164,-241 164,-222 250,-222 250,-241"/>
<text text-anchor="middle" x="207" y="-229" font-family="Helvetica,sans-Serif" font-size="10.00">cs_subset_bool</text>
</a>
</g>
</g>
<!-- Node1&#45;&gt;Node20 -->
<g id="edge6" class="edge">
<title>Node1&#45;&gt;Node20</title>
<path fill="none" stroke="#63b8ff" d="M101.24,-218.62C117.58,-220.63 135.81,-222.87 152.42,-224.91"/>
<polygon fill="#63b8ff" stroke="#63b8ff" points="151.77,-228.36 162.12,-226.1 152.62,-221.41 151.77,-228.36"/>
</g>
<!-- Node37 -->
<g id="node8" class="node">
<title>Node37</title>
<g id="a_node8"><a xlink:href="config_2helpers_8c.html#a6b1589ee93ff51ef31f1d9324e138078" target="_top" xlink:title="Get a string config item by name.">
<polygon fill="#fff0f0" stroke="red" points="253,-204 161,-204 161,-185 253,-185 253,-204"/>
<text text-anchor="middle" x="207" y="-192" font-family="Helvetica,sans-Serif" font-size="10.00">cs_subset_string</text>
</a>
</g>
</g>
<!-- Node1&#45;&gt;Node37 -->
<g id="edge7" class="edge">
<title>Node1&#45;&gt;Node37</title>
<path fill="none" stroke="#63b8ff" d="M101.24,-206.71C116.57,-204.92 133.56,-202.94 149.33,-201.1"/>
<polygon fill="#63b8ff" stroke="#63b8ff" points="149.51,-204.6 159.04,-199.97 148.7,-197.65 149.51,-204.6"/>
</g>
<!-- Node38 -->
<g id="node9" class="node">
<title>Node38</title>
<g id="a_node9"><a xlink:href="msgwin_8c.html#a6281c19688604bf8bf2e5631d8326380" target="_top" xlink:title="Clear the text in the Message Window.">
<polygon fill="#fff0f0" stroke="red" points="257.5,-167 156.5,-167 156.5,-148 257.5,-148 257.5,-167"/>
<text text-anchor="middle" x="207" y="-155" font-family="Helvetica,sans-Serif" font-size="10.00">msgwin_clear_text</text>
</a>
</g>
</g>
<!-- Node1&#45;&gt;Node38 -->
<g id="edge8" class="edge">
<title>Node1&#45;&gt;Node38</title>
<path fill="none" stroke="#63b8ff" d="M72.99,-202.54C90.1,-194.83 114.78,-184.2 137,-176.5 142.87,-174.47 149.08,-172.5 155.27,-170.66"/>
<polygon fill="#63b8ff" stroke="#63b8ff" points="156.22,-174.02 164.87,-167.9 154.29,-167.3 156.22,-174.02"/>
</g>
<!-- Node74 -->
<g id="node10" class="node">
<title>Node74</title>
<g id="a_node10"><a xlink:href="curs__lib_8c.html#ab6a61cdfcf8c2c73ee59381c79c79774" target="_top" xlink:title="Prompt the user to &#39;press any key&#39; and wait.">
<polygon fill="#fff0f0" stroke="red" points="277,-130 137,-130 137,-111 277,-111 277,-130"/>
<text text-anchor="middle" x="207" y="-118" font-family="Helvetica,sans-Serif" font-size="10.00">mutt_any_key_to_continue</text>
</a>
</g>
</g>
<!-- Node1&#45;&gt;Node74 -->
<g id="edge9" class="edge">
<title>Node1&#45;&gt;Node74</title>
<path fill="none" stroke="#63b8ff" d="M59.99,-202.93C74.33,-187.34 104.93,-156.51 137,-139.5 140.62,-137.58 144.44,-135.84 148.37,-134.27"/>
<polygon fill="#63b8ff" stroke="#63b8ff" points="149.26,-137.67 157.48,-130.99 146.89,-131.08 149.26,-137.67"/>
</g>
<!-- Node81 -->
<g id="node11" class="node">
<title>Node81</title>
<g id="a_node11"><a xlink:href="curs__lib_8c.html#acd14d074d8b9e6cb21e851dd573cdec2" target="_top" xlink:title="Shutdown curses.">
<polygon fill="#fff0f0" stroke="red" points="245.5,-93 168.5,-93 168.5,-74 245.5,-74 245.5,-93"/>
<text text-anchor="middle" x="207" y="-81" font-family="Helvetica,sans-Serif" font-size="10.00">mutt_endwin</text>
</a>
</g>
</g>
<!-- Node1&#45;&gt;Node81 -->
<g id="edge10" class="edge">
<title>Node1&#45;&gt;Node81</title>
<path fill="none" stroke="#63b8ff" d="M56.38,-202.55C67.52,-180.88 96.99,-129.25 137,-102.5 143.17,-98.37 150.22,-95.14 157.41,-92.6"/>
<polygon fill="#63b8ff" stroke="#63b8ff" points="158.33,-95.98 166.87,-89.71 156.28,-89.29 158.33,-95.98"/>
</g>
<!-- Node83 -->
<g id="node12" class="node">
<title>Node83</title>
<g id="a_node12"><a xlink:href="system_8c.html#aa1d4ad04b000036513ca3f741059942c" target="_top" xlink:title="Run an external command.">
<polygon fill="#fff0f0" stroke="red" points="245.5,-56 168.5,-56 168.5,-37 245.5,-37 245.5,-56"/>
<text text-anchor="middle" x="207" y="-44" font-family="Helvetica,sans-Serif" font-size="10.00">mutt_system</text>
</a>
</g>
</g>
<!-- Node1&#45;&gt;Node83 -->
<g id="edge11" class="edge">
<title>Node1&#45;&gt;Node83</title>
<path fill="none" stroke="#63b8ff" d="M54.38,-202.5C62.56,-175.89 88.58,-102.79 137,-65.5 142.95,-60.92 149.93,-57.44 157.13,-54.8"/>
<polygon fill="#63b8ff" stroke="#63b8ff" points="158.15,-58.15 166.68,-51.85 156.09,-51.46 158.15,-58.15"/>
</g>
<!-- Node577 -->
<g id="node13" class="node">
<title>Node577</title>
<g id="a_node13"><a xlink:href="group__gui__mw.html#gabcbd2498b412e9f8e9d953cafc01989c" target="_top" xlink:title="Ask the user for a string &#45;.">
<polygon fill="#fff0f0" stroke="red" points="246,-19 168,-19 168,0 246,0 246,-19"/>
<text text-anchor="middle" x="207" y="-7" font-family="Helvetica,sans-Serif" font-size="10.00">mw_get_field</text>
</a>
</g>
</g>
<!-- Node1&#45;&gt;Node577 -->
<g id="edge12" class="edge">
<title>Node1&#45;&gt;Node577</title>
<path fill="none" stroke="#63b8ff" d="M53.08,-202.77C58.57,-172.16 79.72,-76.96 137,-28.5 142.73,-23.65 149.6,-20.03 156.75,-17.33"/>
<polygon fill="#63b8ff" stroke="#63b8ff" points="157.77,-20.68 166.27,-14.35 155.68,-14 157.77,-20.68"/>
</g>
<!-- Node577&#45;&gt;Node19 -->
<g id="edge13" class="edge">
<title>Node577&#45;&gt;Node19</title>
<path fill="none" stroke="#63b8ff" d="M246.17,-14.59C256.91,-17.4 268.09,-21.75 277,-28.5 307.84,-51.86 327.47,-93.89 337.04,-118.99"/>
<polygon fill="#63b8ff" stroke="#63b8ff" points="333.74,-120.15 340.42,-128.37 340.32,-117.77 333.74,-120.15"/>
</g>
</g>
</svg>
