<?xml version="1.0" encoding="UTF-8" standalone="no"?>
<!DOCTYPE svg PUBLIC "-//W3C//DTD SVG 1.1//EN"
 "http://www.w3.org/Graphics/SVG/1.1/DTD/svg11.dtd">
<!-- Generated by graphviz version 7.1.0 (0)
 -->
<!-- Title: parse_extract_token Pages: 1 -->
<svg width="482pt" height="551pt"
 viewBox="0.00 0.00 482.00 551.00" xmlns="http://www.w3.org/2000/svg" xmlns:xlink="http://www.w3.org/1999/xlink">
<g id="graph0" class="graph" transform="scale(1 1) rotate(0) translate(4 547)">
<title>parse_extract_token</title>
<!-- Node1 -->
<g id="node1" class="node">
<title>Node1</title>
<g id="a_node1"><a xlink:title="Extract one token from a string.">
<polygon fill="#999999" stroke="#666666" points="110,-279 0,-279 0,-260 110,-260 110,-279"/>
<text text-anchor="middle" x="55" y="-267" font-family="Helvetica,sans-Serif" font-size="10.00">parse_extract_token</text>
</a>
</g>
</g>
<!-- Node1&#45;&gt;Node1 -->
<g id="edge21" class="edge">
<title>Node1&#45;&gt;Node1</title>
<path fill="none" stroke="#63b8ff" d="M30.58,-279.37C19.44,-287.94 27.58,-297 55,-297 70.42,-297 79.75,-294.13 82.97,-290.1"/>
<polygon fill="#63b8ff" stroke="#63b8ff" points="86.36,-289.2 79.9,-280.81 79.72,-291.4 86.36,-289.2"/>
</g>
<!-- Node2 -->
<g id="node2" class="node">
<title>Node2</title>
<g id="a_node2"><a xlink:href="buffer_8c.html#a9765efbb7f2c32e46fb1cb271a02ba20" target="_top" xlink:title="Add a single character to a Buffer.">
<polygon fill="#fff0f0" stroke="red" points="243.5,-543 178.5,-543 178.5,-524 243.5,-524 243.5,-543"/>
<text text-anchor="middle" x="211" y="-531" font-family="Helvetica,sans-Serif" font-size="10.00">buf_addch</text>
</a>
</g>
</g>
<!-- Node1&#45;&gt;Node2 -->
<g id="edge1" class="edge">
<title>Node1&#45;&gt;Node2</title>
<path fill="none" stroke="#63b8ff" d="M56.83,-279.26C60.37,-315.1 77.4,-440.9 146,-509.5 151.94,-515.44 159.49,-519.93 167.31,-523.32"/>
<polygon fill="#63b8ff" stroke="#63b8ff" points="165.99,-526.57 176.59,-526.76 168.43,-520 165.99,-526.57"/>
</g>
<!-- Node11 -->
<g id="node3" class="node">
<title>Node11</title>
<g id="a_node3"><a xlink:href="buffer_8c.html#a9924e74ddcb5280ab380e4627d1fba99" target="_top" xlink:title="Add a string to a Buffer.">
<polygon fill="#fff0f0" stroke="red" points="379,-486 312,-486 312,-467 379,-467 379,-486"/>
<text text-anchor="middle" x="345.5" y="-474" font-family="Helvetica,sans-Serif" font-size="10.00">buf_addstr</text>
</a>
</g>
</g>
<!-- Node1&#45;&gt;Node11 -->
<g id="edge2" class="edge">
<title>Node1&#45;&gt;Node11</title>
<path fill="none" stroke="#63b8ff" d="M56.68,-279.2C59.67,-313.56 74.89,-429.87 146,-476.5 192.3,-506.85 258.65,-499.11 301.67,-489.13"/>
<polygon fill="#63b8ff" stroke="#63b8ff" points="302.27,-492.59 311.14,-486.79 300.59,-485.8 302.27,-492.59"/>
</g>
<!-- Node13 -->
<g id="node4" class="node">
<title>Node13</title>
<g id="a_node4"><a xlink:href="buffer_8c.html#ad68834195d667b0932da5133a5402d70" target="_top" xlink:title="Copy a Buffer&#39;s contents to another Buffer.">
<polygon fill="#fff0f0" stroke="red" points="240.5,-317 181.5,-317 181.5,-298 240.5,-298 240.5,-317"/>
<text text-anchor="middle" x="211" y="-305" font-family="Helvetica,sans-Serif" font-size="10.00">buf_copy</text>
</a>
</g>
</g>
<!-- Node1&#45;&gt;Node13 -->
<g id="edge3" class="edge">
<title>Node1&#45;&gt;Node13</title>
<path fill="none" stroke="#63b8ff" d="M96.46,-279.48C119.33,-285.13 147.8,-292.15 170.51,-297.76"/>
<polygon fill="#63b8ff" stroke="#63b8ff" points="169.46,-301.1 180,-300.1 171.13,-294.3 169.46,-301.1"/>
</g>
<!-- Node15 -->
<g id="node5" class="node">
<title>Node15</title>
<g id="a_node5"><a xlink:href="buffer_8c.html#a3b1f80652b37dc26046f9acdd85a0b05" target="_top" xlink:title="Reset an existing Buffer.">
<polygon fill="white" stroke="#666666" points="376,-391 315,-391 315,-372 376,-372 376,-391"/>
<text text-anchor="middle" x="345.5" y="-379" font-family="Helvetica,sans-Serif" font-size="10.00">buf_reset</text>
</a>
</g>
</g>
<!-- Node1&#45;&gt;Node15 -->
<g id="edge9" class="edge">
<title>Node1&#45;&gt;Node15</title>
<path fill="none" stroke="#63b8ff" d="M59.07,-279.14C67.81,-304.67 95.45,-373.9 146,-400.5 198.48,-428.12 269.6,-410.27 310.92,-395.43"/>
<polygon fill="#63b8ff" stroke="#63b8ff" points="311.95,-398.79 320.08,-392 309.49,-392.23 311.95,-398.79"/>
</g>
<!-- Node16 -->
<g id="node6" class="node">
<title>Node16</title>
<g id="a_node6"><a xlink:href="buffer_8c.html#a151ed4672a43461119841001f008f31d" target="_top" xlink:title="Set current read/write position to offset from beginning.">
<polygon fill="#fff0f0" stroke="red" points="474,-335 415,-335 415,-316 474,-316 474,-335"/>
<text text-anchor="middle" x="444.5" y="-323" font-family="Helvetica,sans-Serif" font-size="10.00">buf_seek</text>
</a>
</g>
</g>
<!-- Node1&#45;&gt;Node16 -->
<g id="edge10" class="edge">
<title>Node1&#45;&gt;Node16</title>
<path fill="none" stroke="#63b8ff" d="M110.48,-272.21C155.15,-274.91 219.91,-279.92 276,-288.5 320.17,-295.26 370.1,-306.8 403.87,-315.2"/>
<polygon fill="#63b8ff" stroke="#63b8ff" points="402.65,-318.51 413.2,-317.55 404.36,-311.72 402.65,-318.51"/>
</g>
<!-- Node17 -->
<g id="node7" class="node">
<title>Node17</title>
<g id="a_node7"><a xlink:href="pool_8c.html#a41cba27c25d33cb6822789a2856093f2" target="_top" xlink:title="Get a Buffer from the pool.">
<polygon fill="#fff0f0" stroke="red" points="249.5,-354 172.5,-354 172.5,-335 249.5,-335 249.5,-354"/>
<text text-anchor="middle" x="211" y="-342" font-family="Helvetica,sans-Serif" font-size="10.00">buf_pool_get</text>
</a>
</g>
</g>
<!-- Node1&#45;&gt;Node17 -->
<g id="edge6" class="edge">
<title>Node1&#45;&gt;Node17</title>
<path fill="none" stroke="#63b8ff" d="M69.39,-279.44C86.43,-291.7 117.13,-312.52 146,-325.5 150.9,-327.7 156.11,-329.73 161.38,-331.57"/>
<polygon fill="#63b8ff" stroke="#63b8ff" points="160.13,-334.85 170.72,-334.62 162.31,-328.19 160.13,-334.85"/>
</g>
<!-- Node20 -->
<g id="node8" class="node">
<title>Node20</title>
<g id="a_node8"><a xlink:href="pool_8c.html#a4cc6068279461cb8628219586dfa35a1" target="_top" xlink:title="Return a Buffer to the pool.">
<polygon fill="#fff0f0" stroke="red" points="258.5,-391 163.5,-391 163.5,-372 258.5,-372 258.5,-391"/>
<text text-anchor="middle" x="211" y="-379" font-family="Helvetica,sans-Serif" font-size="10.00">buf_pool_release</text>
</a>
</g>
</g>
<!-- Node1&#45;&gt;Node20 -->
<g id="edge7" class="edge">
<title>Node1&#45;&gt;Node20</title>
<path fill="none" stroke="#63b8ff" d="M62.72,-279.24C76.26,-298.14 108.73,-339.9 146,-362.5 148.93,-364.28 152.03,-365.9 155.23,-367.37"/>
<polygon fill="#63b8ff" stroke="#63b8ff" points="153.71,-370.53 164.29,-371.04 156.33,-364.04 153.71,-370.53"/>
</g>
<!-- Node23 -->
<g id="node9" class="node">
<title>Node23</title>
<g id="a_node9"><a xlink:href="buffer_8c.html#ac958acbd189e463a2c3bbc2f23aaeb1e" target="_top" xlink:title="Copy a string into a Buffer.">
<polygon fill="white" stroke="#666666" points="243.5,-467 178.5,-467 178.5,-448 243.5,-448 243.5,-467"/>
<text text-anchor="middle" x="211" y="-455" font-family="Helvetica,sans-Serif" font-size="10.00">buf_strcpy</text>
</a>
</g>
</g>
<!-- Node1&#45;&gt;Node23 -->
<g id="edge11" class="edge">
<title>Node1&#45;&gt;Node23</title>
<path fill="none" stroke="#63b8ff" d="M58.68,-279.16C66.91,-307.09 94.45,-388.84 146,-433.5 152.29,-438.95 159.94,-443.21 167.72,-446.53"/>
<polygon fill="#63b8ff" stroke="#63b8ff" points="166.31,-449.74 176.9,-449.97 168.76,-443.18 166.31,-449.74"/>
</g>
<!-- Node24 -->
<g id="node10" class="node">
<title>Node24</title>
<g id="a_node10"><a xlink:href="buffer_8h.html#a728ebc5a947b77c8d56db44ce553a7ab" target="_top" xlink:title="Convert a buffer to a const char * &quot;string&quot;.">
<polygon fill="white" stroke="#666666" points="243,-241 179,-241 179,-222 243,-222 243,-241"/>
<text text-anchor="middle" x="211" y="-229" font-family="Helvetica,sans-Serif" font-size="10.00">buf_string</text>
</a>
</g>
</g>
<!-- Node1&#45;&gt;Node24 -->
<g id="edge14" class="edge">
<title>Node1&#45;&gt;Node24</title>
<path fill="none" stroke="#63b8ff" d="M96.46,-259.52C118.32,-254.12 145.29,-247.47 167.45,-242"/>
<polygon fill="#63b8ff" stroke="#63b8ff" points="168.22,-245.42 177.09,-239.62 166.54,-238.62 168.22,-245.42"/>
</g>
<!-- Node25 -->
<g id="node11" class="node">
<title>Node25</title>
<g id="a_node11"><a xlink:href="subset_8c.html#a7e8ecc401fed4ef7d076bc377ec8b80a" target="_top" xlink:title="Get a config item as a string.">
<polygon fill="#fff0f0" stroke="red" points="276,-204 146,-204 146,-185 276,-185 276,-204"/>
<text text-anchor="middle" x="211" y="-192" font-family="Helvetica,sans-Serif" font-size="10.00">cs_subset_str_string_get</text>
</a>
</g>
</g>
<!-- Node1&#45;&gt;Node25 -->
<g id="edge15" class="edge">
<title>Node1&#45;&gt;Node25</title>
<path fill="none" stroke="#63b8ff" d="M69.03,-259.52C85.95,-246.98 116.78,-225.53 146,-212.5 149.59,-210.9 153.35,-209.41 157.18,-208.02"/>
<polygon fill="#63b8ff" stroke="#63b8ff" points="158.25,-211.36 166.63,-204.88 156.04,-204.72 158.25,-211.36"/>
</g>
<!-- Node40 -->
<g id="node12" class="node">
<title>Node40</title>
<g id="a_node12"><a xlink:href="mutt_2filter_8c.html#ad1ec6916f8ee2520af1711891f6b5302" target="_top" xlink:title="Set up filter program.">
<polygon fill="#fff0f0" stroke="red" points="247.5,-167 174.5,-167 174.5,-148 247.5,-148 247.5,-167"/>
<text text-anchor="middle" x="211" y="-155" font-family="Helvetica,sans-Serif" font-size="10.00">filter_create</text>
</a>
</g>
</g>
<!-- Node1&#45;&gt;Node40 -->
<g id="edge16" class="edge">
<title>Node1&#45;&gt;Node40</title>
<path fill="none" stroke="#63b8ff" d="M62.67,-259.6C76.11,-240.41 108.42,-198.06 146,-175.5 151.32,-172.31 157.23,-169.66 163.24,-167.47"/>
<polygon fill="#63b8ff" stroke="#63b8ff" points="164.17,-170.85 172.63,-164.47 162.04,-164.18 164.17,-170.85"/>
</g>
<!-- Node45 -->
<g id="node13" class="node">
<title>Node45</title>
<g id="a_node13"><a xlink:href="mutt_2filter_8c.html#a22c6912b837b1114c3276c990e73dca3" target="_top" xlink:title="Wait for the exit of a process and return its status.">
<polygon fill="#fff0f0" stroke="red" points="242,-130 180,-130 180,-111 242,-111 242,-130"/>
<text text-anchor="middle" x="211" y="-118" font-family="Helvetica,sans-Serif" font-size="10.00">filter_wait</text>
</a>
</g>
</g>
<!-- Node1&#45;&gt;Node45 -->
<g id="edge17" class="edge">
<title>Node1&#45;&gt;Node45</title>
<path fill="none" stroke="#63b8ff" d="M59.97,-259.54C70.26,-235 100.24,-171.28 146,-138.5 152.77,-133.65 160.82,-130.1 168.87,-127.51"/>
<polygon fill="#63b8ff" stroke="#63b8ff" points="169.57,-130.95 178.29,-124.93 167.72,-124.2 169.57,-130.95"/>
</g>
<!-- Node46 -->
<g id="node14" class="node">
<title>Node46</title>
<g id="a_node14"><a xlink:href="file_8c.html#a1ad76f956147154f16128b7761dadd58" target="_top" xlink:title="Read a line from a file.">
<polygon fill="white" stroke="#666666" points="263,-93 159,-93 159,-74 263,-74 263,-93"/>
<text text-anchor="middle" x="211" y="-81" font-family="Helvetica,sans-Serif" font-size="10.00">mutt_file_read_line</text>
</a>
</g>
</g>
<!-- Node1&#45;&gt;Node46 -->
<g id="edge18" class="edge">
<title>Node1&#45;&gt;Node46</title>
<path fill="none" stroke="#63b8ff" d="M58.32,-259.8C65.72,-231 91.56,-145.21 146,-101.5 147.14,-100.59 148.32,-99.72 149.54,-98.89"/>
<polygon fill="#63b8ff" stroke="#63b8ff" points="151.1,-102.03 158.17,-94.13 147.72,-95.9 151.1,-102.03"/>
</g>
<!-- Node47 -->
<g id="node15" class="node">
<title>Node47</title>
<g id="a_node15"><a xlink:href="mutt_2string_8c.html#a954e319c94dafe57f48ea9b847269127" target="_top" xlink:title="Get an environment variable.">
<polygon fill="white" stroke="#666666" points="258,-56 164,-56 164,-37 258,-37 258,-56"/>
<text text-anchor="middle" x="211" y="-44" font-family="Helvetica,sans-Serif" font-size="10.00">mutt_str_getenv</text>
</a>
</g>
</g>
<!-- Node1&#45;&gt;Node47 -->
<g id="edge19" class="edge">
<title>Node1&#45;&gt;Node47</title>
<path fill="none" stroke="#63b8ff" d="M57.33,-259.63C62.32,-226.66 82.93,-119.33 146,-64.5 148.33,-62.48 150.87,-60.68 153.55,-59.08"/>
<polygon fill="#63b8ff" stroke="#63b8ff" points="154.93,-62.3 162.4,-54.79 151.87,-56 154.93,-62.3"/>
</g>
<!-- Node48 -->
<g id="node16" class="node">
<title>Node48</title>
<g id="a_node16"><a xlink:href="mutt_2string_8c.html#a116d1d2391bc57f2ba3a9d9cfb15db76" target="_top" xlink:title="Duplicate a sub&#45;string.">
<polygon fill="white" stroke="#666666" points="253.5,-19 168.5,-19 168.5,0 253.5,0 253.5,-19"/>
<text text-anchor="middle" x="211" y="-7" font-family="Helvetica,sans-Serif" font-size="10.00">mutt_strn_dup</text>
</a>
</g>
</g>
<!-- Node1&#45;&gt;Node48 -->
<g id="edge20" class="edge">
<title>Node1&#45;&gt;Node48</title>
<path fill="none" stroke="#63b8ff" d="M56.59,-259.72C59.33,-223.24 73.97,-93.86 146,-27.5 149.49,-24.29 153.5,-21.64 157.78,-19.47"/>
<polygon fill="#63b8ff" stroke="#63b8ff" points="158.84,-22.82 166.75,-15.77 156.17,-16.35 158.84,-22.82"/>
</g>
<!-- Node13&#45;&gt;Node15 -->
<g id="edge4" class="edge">
<title>Node13&#45;&gt;Node15</title>
<path fill="none" stroke="#63b8ff" d="M240.99,-312.98C252.31,-315.8 265.15,-319.85 276,-325.5 295.26,-335.52 314.14,-351.55 327.19,-363.9"/>
<polygon fill="#63b8ff" stroke="#63b8ff" points="324.53,-366.2 334.13,-370.68 329.42,-361.19 324.53,-366.2"/>
</g>
<!-- Node15&#45;&gt;Node16 -->
<g id="edge5" class="edge">
<title>Node15&#45;&gt;Node16</title>
<path fill="none" stroke="#63b8ff" d="M363.4,-371.75C378.05,-363.29 399.52,-350.89 416.55,-341.06"/>
<polygon fill="#63b8ff" stroke="#63b8ff" points="418.25,-344.12 425.16,-336.09 414.75,-338.06 418.25,-344.12"/>
</g>
<!-- Node20&#45;&gt;Node15 -->
<g id="edge8" class="edge">
<title>Node20&#45;&gt;Node15</title>
<path fill="none" stroke="#63b8ff" d="M258.71,-381.5C273.27,-381.5 289.2,-381.5 303.34,-381.5"/>
<polygon fill="#63b8ff" stroke="#63b8ff" points="303.22,-385 313.22,-381.5 303.22,-378 303.22,-385"/>
</g>
<!-- Node23&#45;&gt;Node11 -->
<g id="edge12" class="edge">
<title>Node23&#45;&gt;Node11</title>
<path fill="none" stroke="#63b8ff" d="M243.74,-462.05C260.73,-464.49 281.92,-467.53 300.48,-470.19"/>
<polygon fill="#63b8ff" stroke="#63b8ff" points="299.74,-473.62 310.14,-471.57 300.74,-466.69 299.74,-473.62"/>
</g>
<!-- Node23&#45;&gt;Node15 -->
<g id="edge13" class="edge">
<title>Node23&#45;&gt;Node15</title>
<path fill="none" stroke="#63b8ff" d="M243.73,-447.66C254.29,-443.85 265.92,-439.06 276,-433.5 293.67,-423.75 311.78,-409.8 324.94,-398.8"/>
<polygon fill="#63b8ff" stroke="#63b8ff" points="327.1,-401.56 332.42,-392.4 322.55,-396.24 327.1,-401.56"/>
</g>
</g>
</svg>
