<?xml version="1.0" encoding="UTF-8" standalone="no"?>
<!DOCTYPE svg PUBLIC "-//W3C//DTD SVG 1.1//EN"
 "http://www.w3.org/Graphics/SVG/1.1/DTD/svg11.dtd">
<!-- Generated by graphviz version 2.40.1 (20161225.0304)
 -->
<!-- Title: mutt_buffer_quote_filename Pages: 1 -->
<svg width="307pt" height="66pt"
 viewBox="0.00 0.00 307.00 66.00" xmlns="http://www.w3.org/2000/svg" xmlns:xlink="http://www.w3.org/1999/xlink">
<g id="graph0" class="graph" transform="scale(1 1) rotate(0) translate(4 62)">
<title>mutt_buffer_quote_filename</title>
<polygon fill="#ffffff" stroke="transparent" points="-4,4 -4,-62 303,-62 303,4 -4,4"/>
<!-- Node14331 -->
<g id="node1" class="node">
<title>Node14331</title>
<polygon fill="#bfbfbf" stroke="#000000" points="0,-19.5 0,-38.5 155,-38.5 155,-19.5 0,-19.5"/>
<text text-anchor="middle" x="77.5" y="-26.5" font-family="Helvetica,sans-Serif" font-size="10.00" fill="#000000">mutt_buffer_quote_filename</text>
</g>
<!-- Node14332 -->
<g id="node2" class="node">
<title>Node14332</title>
<g id="a_node2"><a xlink:href="buffer_8c.html#adb26acff5f6b9bb7c322669bcb7c48e3" target="_top" xlink:title="Reset an existing Buffer. ">
<polygon fill="#ffffff" stroke="#000000" points="193,-38.5 193,-57.5 297,-57.5 297,-38.5 193,-38.5"/>
<text text-anchor="middle" x="245" y="-45.5" font-family="Helvetica,sans-Serif" font-size="10.00" fill="#000000">mutt_buffer_reset</text>
</a>
</g>
</g>
<!-- Node14331&#45;&gt;Node14332 -->
<g id="edge1" class="edge">
<title>Node14331&#45;&gt;Node14332</title>
<path fill="none" stroke="#191970" d="M155.3656,-37.8325C164.4535,-38.8634 173.6343,-39.9048 182.4771,-40.9078"/>
<polygon fill="#191970" stroke="#191970" points="182.3458,-44.4153 192.6766,-42.0648 183.1348,-37.4599 182.3458,-44.4153"/>
</g>
<!-- Node14333 -->
<g id="node3" class="node">
<title>Node14333</title>
<g id="a_node3"><a xlink:href="buffer_8c.html#a819a9cb669c1a7e8e2218c672b794492" target="_top" xlink:title="Add a single character to a Buffer. ">
<polygon fill="#ffffff" stroke="#ff0000" points="191,-.5 191,-19.5 299,-19.5 299,-.5 191,-.5"/>
<text text-anchor="middle" x="245" y="-7.5" font-family="Helvetica,sans-Serif" font-size="10.00" fill="#000000">mutt_buffer_addch</text>
</a>
</g>
</g>
<!-- Node14331&#45;&gt;Node14333 -->
<g id="edge2" class="edge">
<title>Node14331&#45;&gt;Node14333</title>
<path fill="none" stroke="#191970" d="M155.3656,-20.1675C163.8689,-19.2029 172.4534,-18.2292 180.7663,-17.2862"/>
<polygon fill="#191970" stroke="#191970" points="181.2059,-20.7589 190.7477,-16.154 180.4169,-13.8035 181.2059,-20.7589"/>
</g>
</g>
</svg>
