<?xml version="1.0" encoding="UTF-8" standalone="no"?>
<!DOCTYPE svg PUBLIC "-//W3C//DTD SVG 1.1//EN"
 "http://www.w3.org/Graphics/SVG/1.1/DTD/svg11.dtd">
<!-- Generated by graphviz version 12.2.1 (20241206.2353)
 -->
<!-- Title: mutt_file_lock Pages: 1 -->
<svg width="248pt" height="190pt"
 viewBox="0.00 0.00 247.75 190.25" xmlns="http://www.w3.org/2000/svg" xmlns:xlink="http://www.w3.org/1999/xlink">
<g id="graph0" class="graph" transform="scale(1 1) rotate(0) translate(4 186.25)">
<title>mutt_file_lock</title>
<!-- Node1 -->
<g id="Node000001" class="node">
<title>Node1</title>
<g id="a_Node000001"><a xlink:title="(Try to) Lock a file using fcntl()">
<polygon fill="#999999" stroke="#666666" points="239.75,-102.25 160,-102.25 160,-80 239.75,-80 239.75,-102.25"/>
<text text-anchor="middle" x="199.88" y="-88.75" font-family="Helvetica,sans-Serif" font-size="10.00">mutt_file_lock</text>
</a>
</g>
</g>
<!-- Node2 -->
<g id="Node000002" class="node">
<title>Node2</title>
<g id="a_Node000002"><a xlink:href="compmbox_2compress_8c.html#a8c82fa05ac9a30a1cd0e5c5b472ae066" target="_top" xlink:title="Try to lock the Mailbox.realpath.">
<polygon fill="#fff0f0" stroke="red" points="100.38,-182.25 23.62,-182.25 23.62,-160 100.38,-160 100.38,-182.25"/>
<text text-anchor="middle" x="62" y="-168.75" font-family="Helvetica,sans-Serif" font-size="10.00">lock_realpath</text>
</a>
</g>
</g>
<!-- Node1&#45;&gt;Node2 -->
<g id="edge1_Node000001_Node000002" class="edge">
<title>Node1&#45;&gt;Node2</title>
<g id="a_edge1_Node000001_Node000002"><a xlink:title=" ">
<path fill="none" stroke="#63b8ff" d="M179.56,-109.86C165.21,-122.93 144.62,-139.96 124,-151.12 116.75,-155.05 108.59,-158.38 100.66,-161.13"/>
<polygon fill="#63b8ff" stroke="#63b8ff" points="181.61,-112.74 186.53,-103.36 176.83,-107.62 181.61,-112.74"/>
</a>
</g>
</g>
<!-- Node7 -->
<g id="Node000007" class="node">
<title>Node7</title>
<g id="a_Node000007"><a xlink:href="mbox_8c.html#a1c304c29562f920b2ba11fabcc14c268" target="_top" xlink:title="Lock a mailbox.">
<polygon fill="#fff0f0" stroke="red" points="114.62,-142.25 9.38,-142.25 9.38,-120 114.62,-120 114.62,-142.25"/>
<text text-anchor="middle" x="62" y="-128.75" font-family="Helvetica,sans-Serif" font-size="10.00">mbox_lock_mailbox</text>
</a>
</g>
</g>
<!-- Node1&#45;&gt;Node7 -->
<g id="edge2_Node000001_Node000007" class="edge">
<title>Node1&#45;&gt;Node7</title>
<g id="a_edge2_Node000001_Node000007"><a xlink:title=" ">
<path fill="none" stroke="#63b8ff" d="M148.68,-105.9C133.35,-110.42 116.71,-115.31 102.21,-119.58"/>
<polygon fill="#63b8ff" stroke="#63b8ff" points="149.52,-109.3 158.12,-103.12 147.54,-102.59 149.52,-109.3"/>
</a>
</g>
</g>
<!-- Node12 -->
<g id="Node000012" class="node">
<title>Node12</title>
<g id="a_Node000012"><a xlink:href="file_8c.html#a1d61fd8c991d26942e6ae461aaf0fe13" target="_top" xlink:title="Delete a file if it&#39;s empty.">
<polygon fill="#fff0f0" stroke="red" points="124,-102.25 0,-102.25 0,-80 124,-80 124,-102.25"/>
<text text-anchor="middle" x="62" y="-88.75" font-family="Helvetica,sans-Serif" font-size="10.00">mutt_file_unlink_empty</text>
</a>
</g>
</g>
<!-- Node1&#45;&gt;Node12 -->
<g id="edge3_Node000001_Node000012" class="edge">
<title>Node1&#45;&gt;Node12</title>
<g id="a_edge3_Node000001_Node000012"><a xlink:title=" ">
<path fill="none" stroke="#63b8ff" d="M148.16,-91.12C140.44,-91.12 132.4,-91.12 124.48,-91.12"/>
<polygon fill="#63b8ff" stroke="#63b8ff" points="148.06,-94.63 158.06,-91.13 148.06,-87.63 148.06,-94.63"/>
</a>
</g>
</g>
<!-- Node769 -->
<g id="Node000769" class="node">
<title>Node769</title>
<g id="a_Node000769"><a xlink:href="newsrc_8c.html#a57bd184c51b8701e9613761a629ca485" target="_top" xlink:title="Parse .newsrc file.">
<polygon fill="#fff0f0" stroke="red" points="114.25,-62.25 9.75,-62.25 9.75,-40 114.25,-40 114.25,-62.25"/>
<text text-anchor="middle" x="62" y="-48.75" font-family="Helvetica,sans-Serif" font-size="10.00">nntp_newsrc_parse</text>
</a>
</g>
</g>
<!-- Node1&#45;&gt;Node769 -->
<g id="edge4_Node000001_Node000769" class="edge">
<title>Node1&#45;&gt;Node769</title>
<g id="a_edge4_Node000001_Node000769"><a xlink:title=" ">
<path fill="none" stroke="#63b8ff" d="M148.68,-76.35C133.35,-71.83 116.71,-66.94 102.21,-62.67"/>
<polygon fill="#63b8ff" stroke="#63b8ff" points="147.54,-79.66 158.12,-79.13 149.52,-72.95 147.54,-79.66"/>
</a>
</g>
</g>
<!-- Node770 -->
<g id="Node000770" class="node">
<title>Node770</title>
<g id="a_Node000770"><a xlink:href="group__store__open.html#ga1664c0edbe9cf361b0ff4dd5864d9a6e" target="_top" xlink:title="Open a connection to a Store &#45; Implements StoreOps::open() &#45;.">
<polygon fill="white" stroke="#666666" points="107.5,-22.25 16.5,-22.25 16.5,0 107.5,0 107.5,-22.25"/>
<text text-anchor="middle" x="62" y="-8.75" font-family="Helvetica,sans-Serif" font-size="10.00">store_bdb_open</text>
</a>
</g>
</g>
<!-- Node1&#45;&gt;Node770 -->
<g id="edge5_Node000001_Node000770" class="edge">
<title>Node1&#45;&gt;Node770</title>
<g id="a_edge5_Node000001_Node000770"><a xlink:title=" ">
<path fill="none" stroke="#63b8ff" d="M179.56,-72.39C165.21,-59.32 144.62,-42.29 124,-31.12 118.12,-27.94 111.64,-25.15 105.18,-22.75"/>
<polygon fill="#63b8ff" stroke="#63b8ff" points="176.83,-74.63 186.53,-78.89 181.61,-69.51 176.83,-74.63"/>
</a>
</g>
</g>
</g>
</svg>
