<?xml version="1.0" encoding="UTF-8" standalone="no"?>
<!DOCTYPE svg PUBLIC "-//W3C//DTD SVG 1.1//EN"
 "http://www.w3.org/Graphics/SVG/1.1/DTD/svg11.dtd">
<!-- Generated by graphviz version 2.40.1 (20161225.0304)
 -->
<!-- Title: flags.c Pages: 1 -->
<svg width="700pt" height="196pt"
 viewBox="0.00 0.00 700.34 196.00" xmlns="http://www.w3.org/2000/svg" xmlns:xlink="http://www.w3.org/1999/xlink">
<g id="graph0" class="graph" transform="scale(1 1) rotate(0) translate(4 192)">
<title>flags.c</title>
<polygon fill="#ffffff" stroke="transparent" points="-4,4 -4,-192 696.3427,-192 696.3427,4 -4,4"/>
<!-- Node0 -->
<g id="node1" class="node">
<title>Node0</title>
<polygon fill="#bfbfbf" stroke="#000000" points="267.3427,-168.5 267.3427,-187.5 315.3427,-187.5 315.3427,-168.5 267.3427,-168.5"/>
<text text-anchor="middle" x="291.3427" y="-175.5" font-family="Helvetica,sans-Serif" font-size="10.00" fill="#000000">flags.c</text>
</g>
<!-- Node1 -->
<g id="node2" class="node">
<title>Node1</title>
<polygon fill="#ffffff" stroke="#bfbfbf" points="132.8427,-.5 132.8427,-19.5 187.8427,-19.5 187.8427,-.5 132.8427,-.5"/>
<text text-anchor="middle" x="160.3427" y="-7.5" font-family="Helvetica,sans-Serif" font-size="10.00" fill="#000000">config.h</text>
</g>
<!-- Node0&#45;&gt;Node1 -->
<g id="edge1" class="edge">
<title>Node0&#45;&gt;Node1</title>
<path fill="none" stroke="#191970" d="M267.0605,-175.8156C212.1785,-170.5139 80.4655,-155.6364 43.3427,-132 17.5424,-115.5728 12.6768,-105.127 3.3427,-76 .63,-67.5352 -1.9863,-63.1144 3.3427,-56 17.6666,-36.877 80.9726,-23.0214 122.6925,-15.7692"/>
<polygon fill="#191970" stroke="#191970" points="123.5113,-19.1806 132.7911,-14.0684 122.3487,-12.2778 123.5113,-19.1806"/>
</g>
<!-- Node2 -->
<g id="node3" class="node">
<title>Node2</title>
<polygon fill="#ffffff" stroke="#bfbfbf" points="132.3427,-56.5 132.3427,-75.5 188.3427,-75.5 188.3427,-56.5 132.3427,-56.5"/>
<text text-anchor="middle" x="160.3427" y="-63.5" font-family="Helvetica,sans-Serif" font-size="10.00" fill="#000000">stddef.h</text>
</g>
<!-- Node0&#45;&gt;Node2 -->
<g id="edge2" class="edge">
<title>Node0&#45;&gt;Node2</title>
<path fill="none" stroke="#191970" d="M267.2589,-174.3943C241.844,-169.3309 202.35,-157.673 179.3427,-132 168.0402,-119.388 163.4307,-100.4549 161.5666,-86.0967"/>
<polygon fill="#191970" stroke="#191970" points="165.0157,-85.3946 160.5848,-75.7708 158.0472,-86.0572 165.0157,-85.3946"/>
</g>
<!-- Node3 -->
<g id="node4" class="node">
<title>Node3</title>
<polygon fill="#ffffff" stroke="#bfbfbf" points="327.3427,-56.5 327.3427,-75.5 389.3427,-75.5 389.3427,-56.5 327.3427,-56.5"/>
<text text-anchor="middle" x="358.3427" y="-63.5" font-family="Helvetica,sans-Serif" font-size="10.00" fill="#000000">stdbool.h</text>
</g>
<!-- Node0&#45;&gt;Node3 -->
<g id="edge3" class="edge">
<title>Node0&#45;&gt;Node3</title>
<path fill="none" stroke="#191970" d="M296.8858,-168.0879C304.1792,-155.1128 317.4661,-131.7034 329.3427,-112 334.8666,-102.8357 341.1839,-92.7691 346.5092,-84.3957"/>
<polygon fill="#191970" stroke="#191970" points="349.5672,-86.1102 352.0049,-75.7996 343.6695,-82.3396 349.5672,-86.1102"/>
</g>
<!-- Node4 -->
<g id="node5" class="node">
<title>Node4</title>
<g id="a_node5"><a xlink:href="mutt_2lib_8h.html" target="_top" xlink:title="Convenience wrapper for the library headers. ">
<polygon fill="#ffffff" stroke="#ff0000" points="12.3427,-56.5 12.3427,-75.5 76.3427,-75.5 76.3427,-56.5 12.3427,-56.5"/>
<text text-anchor="middle" x="44.3427" y="-63.5" font-family="Helvetica,sans-Serif" font-size="10.00" fill="#000000">mutt/lib.h</text>
</a>
</g>
</g>
<!-- Node0&#45;&gt;Node4 -->
<g id="edge4" class="edge">
<title>Node0&#45;&gt;Node4</title>
<path fill="none" stroke="#191970" d="M267.2559,-176.5889C213.6079,-172.94 86.6973,-161.3437 57.3427,-132 45.3638,-120.0256 42.7853,-100.4359 42.8006,-85.7027"/>
<polygon fill="#191970" stroke="#191970" points="46.3026,-85.7213 43.2053,-75.5893 39.3082,-85.4414 46.3026,-85.7213"/>
</g>
<!-- Node48 -->
<g id="node6" class="node">
<title>Node48</title>
<g id="a_node6"><a xlink:href="config_2lib_8h.html" target="_top" xlink:title="Convenience wrapper for the config headers. ">
<polygon fill="#ffffff" stroke="#ff0000" points="338.3427,-112.5 338.3427,-131.5 408.3427,-131.5 408.3427,-112.5 338.3427,-112.5"/>
<text text-anchor="middle" x="373.3427" y="-119.5" font-family="Helvetica,sans-Serif" font-size="10.00" fill="#000000">config/lib.h</text>
</a>
</g>
</g>
<!-- Node0&#45;&gt;Node48 -->
<g id="edge5" class="edge">
<title>Node0&#45;&gt;Node48</title>
<path fill="none" stroke="#191970" d="M305.626,-168.2455C318.0897,-159.7337 336.3878,-147.2375 350.8218,-137.3801"/>
<polygon fill="#191970" stroke="#191970" points="352.9389,-140.1726 359.223,-131.6427 348.9911,-134.392 352.9389,-140.1726"/>
</g>
<!-- Node63 -->
<g id="node7" class="node">
<title>Node63</title>
<g id="a_node7"><a xlink:href="email_2lib_8h.html" target="_top" xlink:title="Structs that make up an email. ">
<polygon fill="#ffffff" stroke="#ff0000" points="550.3427,-112.5 550.3427,-131.5 618.3427,-131.5 618.3427,-112.5 550.3427,-112.5"/>
<text text-anchor="middle" x="584.3427" y="-119.5" font-family="Helvetica,sans-Serif" font-size="10.00" fill="#000000">email/lib.h</text>
</a>
</g>
</g>
<!-- Node0&#45;&gt;Node63 -->
<g id="edge7" class="edge">
<title>Node0&#45;&gt;Node63</title>
<path fill="none" stroke="#191970" d="M315.3684,-173.6521C359.2903,-165.6675 455.4686,-148.015 536.3427,-132 537.6108,-131.7489 538.8975,-131.4923 540.1959,-131.2319"/>
<polygon fill="#191970" stroke="#191970" points="541.1682,-134.606 550.2712,-129.1851 539.7745,-127.7461 541.1682,-134.606"/>
</g>
<!-- Node84 -->
<g id="node8" class="node">
<title>Node84</title>
<g id="a_node8"><a xlink:href="core_2lib_8h.html" target="_top" xlink:title="Convenience wrapper for the core headers. ">
<polygon fill="#ffffff" stroke="#ff0000" points="460.3427,-56.5 460.3427,-75.5 522.3427,-75.5 522.3427,-56.5 460.3427,-56.5"/>
<text text-anchor="middle" x="491.3427" y="-63.5" font-family="Helvetica,sans-Serif" font-size="10.00" fill="#000000">core/lib.h</text>
</a>
</g>
</g>
<!-- Node0&#45;&gt;Node84 -->
<g id="edge8" class="edge">
<title>Node0&#45;&gt;Node84</title>
<path fill="none" stroke="#191970" d="M315.4541,-176.456C365.9185,-172.6697 479.9395,-161.0257 503.3427,-132 514.0336,-118.7406 508.5928,-99.0906 501.9629,-84.6792"/>
<polygon fill="#191970" stroke="#191970" points="505.0328,-82.995 497.3666,-75.682 498.7991,-86.1796 505.0328,-82.995"/>
</g>
<!-- Node89 -->
<g id="node9" class="node">
<title>Node89</title>
<g id="a_node9"><a xlink:href="gui_2lib_8h.html" target="_top" xlink:title="Convenience wrapper for the gui headers. ">
<polygon fill="#ffffff" stroke="#ff0000" points="636.3427,-112.5 636.3427,-131.5 692.3427,-131.5 692.3427,-112.5 636.3427,-112.5"/>
<text text-anchor="middle" x="664.3427" y="-119.5" font-family="Helvetica,sans-Serif" font-size="10.00" fill="#000000">gui/lib.h</text>
</a>
</g>
</g>
<!-- Node0&#45;&gt;Node89 -->
<g id="edge9" class="edge">
<title>Node0&#45;&gt;Node89</title>
<path fill="none" stroke="#191970" d="M315.5587,-175.7584C369.6091,-170.5279 504.2928,-156.2349 626.2695,-132.0087"/>
<polygon fill="#191970" stroke="#191970" points="627.0375,-135.4243 636.1495,-130.0186 625.6552,-128.5621 627.0375,-135.4243"/>
</g>
<!-- Node93 -->
<g id="node10" class="node">
<title>Node93</title>
<g id="a_node10"><a xlink:href="mutt_8h.html" target="_top" xlink:title="Many unsorted constants and some structs. ">
<polygon fill="#ffffff" stroke="#ff0000" points="244.8427,-56.5 244.8427,-75.5 293.8427,-75.5 293.8427,-56.5 244.8427,-56.5"/>
<text text-anchor="middle" x="269.3427" y="-63.5" font-family="Helvetica,sans-Serif" font-size="10.00" fill="#000000">mutt.h</text>
</a>
</g>
</g>
<!-- Node0&#45;&gt;Node93 -->
<g id="edge10" class="edge">
<title>Node0&#45;&gt;Node93</title>
<path fill="none" stroke="#191970" d="M289.467,-168.4509C285.8626,-150.1013 277.9051,-109.5908 273.1474,-85.3693"/>
<polygon fill="#191970" stroke="#191970" points="276.5755,-84.6627 271.2136,-75.5249 269.7068,-86.012 276.5755,-84.6627"/>
</g>
<!-- Node109 -->
<g id="node11" class="node">
<title>Node109</title>
<g id="a_node11"><a xlink:href="index_2lib_8h.html" target="_top" xlink:title="GUI manage the main index (list of emails) ">
<polygon fill="#ffffff" stroke="#ff0000" points="426.3427,-112.5 426.3427,-131.5 494.3427,-131.5 494.3427,-112.5 426.3427,-112.5"/>
<text text-anchor="middle" x="460.3427" y="-119.5" font-family="Helvetica,sans-Serif" font-size="10.00" fill="#000000">index/lib.h</text>
</a>
</g>
</g>
<!-- Node0&#45;&gt;Node109 -->
<g id="edge12" class="edge">
<title>Node0&#45;&gt;Node109</title>
<path fill="none" stroke="#191970" d="M315.5562,-169.9766C343.3478,-160.7675 389.2935,-145.5429 421.97,-134.7152"/>
<polygon fill="#191970" stroke="#191970" points="423.2587,-137.9754 431.6502,-131.5076 421.0568,-131.3307 423.2587,-137.9754"/>
</g>
<!-- Node96 -->
<g id="node12" class="node">
<title>Node96</title>
<g id="a_node12"><a xlink:href="keymap_8h.html" target="_top" xlink:title="Manage keymappings. ">
<polygon fill="#ffffff" stroke="#ff0000" points="66.8427,-112.5 66.8427,-131.5 131.8427,-131.5 131.8427,-112.5 66.8427,-112.5"/>
<text text-anchor="middle" x="99.3427" y="-119.5" font-family="Helvetica,sans-Serif" font-size="10.00" fill="#000000">keymap.h</text>
</a>
</g>
</g>
<!-- Node0&#45;&gt;Node96 -->
<g id="edge15" class="edge">
<title>Node0&#45;&gt;Node96</title>
<path fill="none" stroke="#191970" d="M267.0257,-170.9076C235.6243,-161.7488 180.4494,-145.6561 142.0001,-134.4417"/>
<polygon fill="#191970" stroke="#191970" points="142.702,-131.0007 132.122,-131.5606 140.742,-137.7207 142.702,-131.0007"/>
</g>
<!-- Node111 -->
<g id="node13" class="node">
<title>Node111</title>
<g id="a_node13"><a xlink:href="protos_8h.html" target="_top" xlink:title="Prototypes for many functions. ">
<polygon fill="#ffffff" stroke="#ff0000" points="188.3427,-112.5 188.3427,-131.5 244.3427,-131.5 244.3427,-112.5 188.3427,-112.5"/>
<text text-anchor="middle" x="216.3427" y="-119.5" font-family="Helvetica,sans-Serif" font-size="10.00" fill="#000000">protos.h</text>
</a>
</g>
</g>
<!-- Node0&#45;&gt;Node111 -->
<g id="edge19" class="edge">
<title>Node0&#45;&gt;Node111</title>
<path fill="none" stroke="#191970" d="M278.2787,-168.2455C266.9864,-159.814 250.4582,-147.4729 237.3156,-137.6598"/>
<polygon fill="#191970" stroke="#191970" points="239.3638,-134.8211 229.257,-131.6427 235.1758,-140.4301 239.3638,-134.8211"/>
</g>
<!-- Node48&#45;&gt;Node3 -->
<g id="edge6" class="edge">
<title>Node48&#45;&gt;Node3</title>
<path fill="none" stroke="#191970" d="M370.7299,-112.2455C368.751,-104.8579 365.9683,-94.4689 363.5414,-85.4087"/>
<polygon fill="#191970" stroke="#191970" points="366.8938,-84.3966 360.9255,-75.6427 360.1321,-86.2078 366.8938,-84.3966"/>
</g>
<!-- Node93&#45;&gt;Node1 -->
<g id="edge11" class="edge">
<title>Node93&#45;&gt;Node1</title>
<path fill="none" stroke="#191970" d="M250.3563,-56.2455C233.1635,-47.4125 207.6189,-34.2887 188.1294,-24.2758"/>
<polygon fill="#191970" stroke="#191970" points="189.6057,-21.0993 179.1114,-19.6427 186.4068,-27.3257 189.6057,-21.0993"/>
</g>
<!-- Node109&#45;&gt;Node3 -->
<g id="edge13" class="edge">
<title>Node109&#45;&gt;Node3</title>
<path fill="none" stroke="#191970" d="M442.5756,-112.2455C426.6332,-103.4928 403.0168,-90.527 384.8438,-80.5496"/>
<polygon fill="#191970" stroke="#191970" points="386.3563,-77.3873 375.9061,-75.6427 382.9875,-83.5233 386.3563,-77.3873"/>
</g>
<!-- Node109&#45;&gt;Node84 -->
<g id="edge14" class="edge">
<title>Node109&#45;&gt;Node84</title>
<path fill="none" stroke="#191970" d="M465.7425,-112.2455C469.9654,-104.617 475.9599,-93.7881 481.0868,-84.5267"/>
<polygon fill="#191970" stroke="#191970" points="484.2237,-86.0867 486.0048,-75.6427 478.0994,-82.6965 484.2237,-86.0867"/>
</g>
<!-- Node96&#45;&gt;Node1 -->
<g id="edge16" class="edge">
<title>Node96&#45;&gt;Node1</title>
<path fill="none" stroke="#191970" d="M101.8232,-112.1696C105.4157,-98.88 112.8094,-74.6955 123.3427,-56 129.1533,-45.6867 137.2523,-35.316 144.392,-27.039"/>
<polygon fill="#191970" stroke="#191970" points="147.0395,-29.3289 151.0916,-19.5395 141.8192,-24.6653 147.0395,-29.3289"/>
</g>
<!-- Node96&#45;&gt;Node2 -->
<g id="edge17" class="edge">
<title>Node96&#45;&gt;Node2</title>
<path fill="none" stroke="#191970" d="M109.9681,-112.2455C118.89,-104.0549 131.8307,-92.1749 142.3619,-82.5069"/>
<polygon fill="#191970" stroke="#191970" points="144.8394,-84.9837 149.839,-75.6427 140.1055,-79.8271 144.8394,-84.9837"/>
</g>
<!-- Node96&#45;&gt;Node4 -->
<g id="edge18" class="edge">
<title>Node96&#45;&gt;Node4</title>
<path fill="none" stroke="#191970" d="M89.7624,-112.2455C81.7969,-104.1352 70.2786,-92.4075 60.8347,-82.7919"/>
<polygon fill="#191970" stroke="#191970" points="63.3173,-80.3247 53.8131,-75.6427 58.3232,-85.2297 63.3173,-80.3247"/>
</g>
<!-- Node111&#45;&gt;Node1 -->
<g id="edge20" class="edge">
<title>Node111&#45;&gt;Node1</title>
<path fill="none" stroke="#191970" d="M214.7687,-112.149C212.3664,-98.8362 207.0119,-74.6254 197.3427,-56 191.9593,-45.6303 184.0333,-35.3742 176.8967,-27.1868"/>
<polygon fill="#191970" stroke="#191970" points="179.4631,-24.8067 170.1467,-19.7614 174.2834,-29.5153 179.4631,-24.8067"/>
</g>
<!-- Node111&#45;&gt;Node2 -->
<g id="edge21" class="edge">
<title>Node111&#45;&gt;Node2</title>
<path fill="none" stroke="#191970" d="M206.5882,-112.2455C198.4779,-104.1352 186.7502,-92.4075 177.1346,-82.7919"/>
<polygon fill="#191970" stroke="#191970" points="179.5313,-80.2389 169.9853,-75.6427 174.5816,-85.1887 179.5313,-80.2389"/>
</g>
<!-- Node111&#45;&gt;Node3 -->
<g id="edge22" class="edge">
<title>Node111&#45;&gt;Node3</title>
<path fill="none" stroke="#191970" d="M240.7533,-112.3733C263.9569,-103.2226 299.0465,-89.3844 324.8569,-79.2057"/>
<polygon fill="#191970" stroke="#191970" points="326.2319,-82.4258 334.2505,-75.5011 323.6637,-75.9139 326.2319,-82.4258"/>
</g>
<!-- Node111&#45;&gt;Node4 -->
<g id="edge23" class="edge">
<title>Node111&#45;&gt;Node4</title>
<path fill="none" stroke="#191970" d="M188.3251,-112.878C159.8936,-103.6212 115.6362,-89.2118 83.6922,-78.8115"/>
<polygon fill="#191970" stroke="#191970" points="84.3814,-75.3551 73.7891,-75.5872 82.2142,-82.0112 84.3814,-75.3551"/>
</g>
<!-- Node111&#45;&gt;Node93 -->
<g id="edge24" class="edge">
<title>Node111&#45;&gt;Node93</title>
<path fill="none" stroke="#191970" d="M225.5746,-112.2455C233.1744,-104.2155 244.1304,-92.6394 253.1794,-83.0781"/>
<polygon fill="#191970" stroke="#191970" points="255.8847,-85.3115 260.2166,-75.6427 250.8006,-80.4998 255.8847,-85.3115"/>
</g>
</g>
</svg>
