<?xml version="1.0" encoding="UTF-8" standalone="no"?>
<!DOCTYPE svg PUBLIC "-//W3C//DTD SVG 1.1//EN"
 "http://www.w3.org/Graphics/SVG/1.1/DTD/svg11.dtd">
<!-- Generated by graphviz version 7.1.0 (0)
 -->
<!-- Title: store/gdbm.c Pages: 1 -->
<svg width="387pt" height="137pt"
 viewBox="0.00 0.00 386.81 137.00" xmlns="http://www.w3.org/2000/svg" xmlns:xlink="http://www.w3.org/1999/xlink">
<g id="graph0" class="graph" transform="scale(1 1) rotate(0) translate(4 133)">
<title>store/gdbm.c</title>
<!-- Node1 -->
<g id="node1" class="node">
<title>Node1</title>
<g id="a_node1"><a xlink:title="GNU dbm backend for the key/value Store.">
<polygon fill="#999999" stroke="#666666" points="224.31,-129 145.31,-129 145.31,-110 224.31,-110 224.31,-129"/>
<text text-anchor="middle" x="184.81" y="-117" font-family="Helvetica,sans-Serif" font-size="10.00">store/gdbm.c</text>
</a>
</g>
</g>
<!-- Node2 -->
<g id="node2" class="node">
<title>Node2</title>
<g id="a_node2"><a xlink:title=" ">
<polygon fill="#e0e0e0" stroke="#999999" points="112.81,-19 58.81,-19 58.81,0 112.81,0 112.81,-19"/>
<text text-anchor="middle" x="85.81" y="-7" font-family="Helvetica,sans-Serif" font-size="10.00">config.h</text>
</a>
</g>
</g>
<!-- Node1&#45;&gt;Node2 -->
<g id="edge1" class="edge">
<title>Node1&#45;&gt;Node2</title>
<path fill="none" stroke="#63b8ff" d="M144.91,-114.31C97.27,-108.39 21.88,-95.8 4.81,-74 -11.84,-52.73 19.43,-34.43 47.82,-23.02"/>
<polygon fill="#63b8ff" stroke="#63b8ff" points="48.93,-26.34 57.04,-19.53 46.45,-19.8 48.93,-26.34"/>
</g>
<!-- Node3 -->
<g id="node3" class="node">
<title>Node3</title>
<g id="a_node3"><a xlink:title=" ">
<polygon fill="#e0e0e0" stroke="#999999" points="67.31,-74 14.31,-74 14.31,-55 67.31,-55 67.31,-74"/>
<text text-anchor="middle" x="40.81" y="-62" font-family="Helvetica,sans-Serif" font-size="10.00">gdbm.h</text>
</a>
</g>
</g>
<!-- Node1&#45;&gt;Node3 -->
<g id="edge2" class="edge">
<title>Node1&#45;&gt;Node3</title>
<path fill="none" stroke="#63b8ff" d="M160.39,-109.51C137.08,-100.93 101.73,-87.92 75.5,-78.27"/>
<polygon fill="#63b8ff" stroke="#63b8ff" points="76.9,-75.05 66.3,-74.88 74.48,-81.62 76.9,-75.05"/>
</g>
<!-- Node4 -->
<g id="node4" class="node">
<title>Node4</title>
<g id="a_node4"><a xlink:title=" ">
<polygon fill="#e0e0e0" stroke="#999999" points="135.81,-74 85.81,-74 85.81,-55 135.81,-55 135.81,-74"/>
<text text-anchor="middle" x="110.81" y="-62" font-family="Helvetica,sans-Serif" font-size="10.00">limits.h</text>
</a>
</g>
</g>
<!-- Node1&#45;&gt;Node4 -->
<g id="edge3" class="edge">
<title>Node1&#45;&gt;Node4</title>
<path fill="none" stroke="#63b8ff" d="M172.26,-109.51C161.35,-101.7 145.31,-90.21 132.35,-80.93"/>
<polygon fill="#63b8ff" stroke="#63b8ff" points="134.58,-78.22 124.41,-75.24 130.51,-83.91 134.58,-78.22"/>
</g>
<!-- Node5 -->
<g id="node5" class="node">
<title>Node5</title>
<g id="a_node5"><a xlink:title=" ">
<polygon fill="#e0e0e0" stroke="#999999" points="378.81,-19 318.81,-19 318.81,0 378.81,0 378.81,-19"/>
<text text-anchor="middle" x="348.81" y="-7" font-family="Helvetica,sans-Serif" font-size="10.00">stdbool.h</text>
</a>
</g>
</g>
<!-- Node1&#45;&gt;Node5 -->
<g id="edge4" class="edge">
<title>Node1&#45;&gt;Node5</title>
<path fill="none" stroke="#63b8ff" d="M224.45,-113.58C269.03,-107.13 337.27,-94.2 352.81,-74 362.3,-61.68 360.14,-43.71 356.28,-30.03"/>
<polygon fill="#63b8ff" stroke="#63b8ff" points="359.68,-29.16 353.18,-20.79 353.05,-31.39 359.68,-29.16"/>
</g>
<!-- Node6 -->
<g id="node6" class="node">
<title>Node6</title>
<g id="a_node6"><a xlink:title=" ">
<polygon fill="#e0e0e0" stroke="#999999" points="289.31,-74 234.31,-74 234.31,-55 289.31,-55 289.31,-74"/>
<text text-anchor="middle" x="261.81" y="-62" font-family="Helvetica,sans-Serif" font-size="10.00">stddef.h</text>
</a>
</g>
</g>
<!-- Node1&#45;&gt;Node6 -->
<g id="edge5" class="edge">
<title>Node1&#45;&gt;Node6</title>
<path fill="none" stroke="#63b8ff" d="M197.88,-109.51C209.34,-101.62 226.25,-89.98 239.8,-80.65"/>
<polygon fill="#63b8ff" stroke="#63b8ff" points="241.45,-83.77 247.7,-75.22 237.48,-78 241.45,-83.77"/>
</g>
<!-- Node7 -->
<g id="node7" class="node">
<title>Node7</title>
<g id="a_node7"><a xlink:href="mutt_2lib_8h.html" target="_top" xlink:title="Convenience wrapper for the library headers.">
<polygon fill="#fff0f0" stroke="red" points="215.81,-74 153.81,-74 153.81,-55 215.81,-55 215.81,-74"/>
<text text-anchor="middle" x="184.81" y="-62" font-family="Helvetica,sans-Serif" font-size="10.00">mutt/lib.h</text>
</a>
</g>
</g>
<!-- Node1&#45;&gt;Node7 -->
<g id="edge6" class="edge">
<title>Node1&#45;&gt;Node7</title>
<path fill="none" stroke="#63b8ff" d="M184.81,-109.75C184.81,-103.27 184.81,-94.16 184.81,-85.9"/>
<polygon fill="#63b8ff" stroke="#63b8ff" points="188.32,-85.96 184.82,-75.96 181.32,-85.96 188.32,-85.96"/>
</g>
<!-- Node56 -->
<g id="node8" class="node">
<title>Node56</title>
<g id="a_node8"><a xlink:href="store_2lib_8h.html" target="_top" xlink:title="Key value store.">
<polygon fill="#fff0f0" stroke="red" points="343.81,-74 307.81,-74 307.81,-55 343.81,-55 343.81,-74"/>
<text text-anchor="middle" x="325.81" y="-62" font-family="Helvetica,sans-Serif" font-size="10.00">lib.h</text>
</a>
</g>
</g>
<!-- Node1&#45;&gt;Node56 -->
<g id="edge8" class="edge">
<title>Node1&#45;&gt;Node56</title>
<path fill="none" stroke="#63b8ff" d="M208.73,-109.51C233.1,-100.35 270.9,-86.14 296.92,-76.36"/>
<polygon fill="#63b8ff" stroke="#63b8ff" points="298.08,-79.67 306.2,-72.87 295.61,-73.11 298.08,-79.67"/>
</g>
<!-- Node7&#45;&gt;Node2 -->
<g id="edge7" class="edge">
<title>Node7&#45;&gt;Node2</title>
<path fill="none" stroke="#63b8ff" d="M168.02,-54.51C152.71,-46.31 129.84,-34.07 112.11,-24.58"/>
<polygon fill="#63b8ff" stroke="#63b8ff" points="114.16,-21.71 103.7,-20.07 110.86,-27.88 114.16,-21.71"/>
</g>
<!-- Node56&#45;&gt;Node5 -->
<g id="edge9" class="edge">
<title>Node56&#45;&gt;Node5</title>
<path fill="none" stroke="#63b8ff" d="M329.61,-54.75C332.56,-47.96 336.75,-38.3 340.47,-29.73"/>
<polygon fill="#63b8ff" stroke="#63b8ff" points="343.56,-31.4 344.33,-20.83 337.14,-28.61 343.56,-31.4"/>
</g>
</g>
</svg>
