<?xml version="1.0" encoding="UTF-8" standalone="no"?>
<!DOCTYPE svg PUBLIC "-//W3C//DTD SVG 1.1//EN"
 "http://www.w3.org/Graphics/SVG/1.1/DTD/svg11.dtd">
<!-- Generated by graphviz version 7.1.0 (0)
 -->
<!-- Title: km_error_key Pages: 1 -->
<svg width="213pt" height="508pt"
 viewBox="0.00 0.00 213.00 508.00" xmlns="http://www.w3.org/2000/svg" xmlns:xlink="http://www.w3.org/1999/xlink">
<g id="graph0" class="graph" transform="scale(1 1) rotate(0) translate(4 504)">
<title>km_error_key</title>
<!-- Node1 -->
<g id="node1" class="node">
<title>Node1</title>
<g id="a_node1"><a xlink:title="Handle an unbound key sequence.">
<polygon fill="#999999" stroke="#666666" points="205,-259 125,-259 125,-240 205,-240 205,-259"/>
<text text-anchor="middle" x="165" y="-247" font-family="Helvetica,sans-Serif" font-size="10.00">km_error_key</text>
</a>
</g>
</g>
<!-- Node2 -->
<g id="node2" class="node">
<title>Node2</title>
<g id="a_node2"><a xlink:href="group__gui__dlg.html#gaee420e636381e1cea6cce6a794b77a14" target="_top" xlink:title="Display a menu of Aliases &#45;.">
<polygon fill="#fff0f0" stroke="red" points="72,-500 17,-500 17,-481 72,-481 72,-500"/>
<text text-anchor="middle" x="44.5" y="-488" font-family="Helvetica,sans-Serif" font-size="10.00">dlg_alias</text>
</a>
</g>
</g>
<!-- Node1&#45;&gt;Node2 -->
<g id="edge1" class="edge">
<title>Node1&#45;&gt;Node2</title>
<path fill="none" stroke="#63b8ff" d="M162.59,-270.75C158.61,-314.19 143.7,-413.95 89,-472.5 84.42,-477.4 78.32,-481 72.13,-483.64"/>
<polygon fill="#63b8ff" stroke="#63b8ff" points="166.07,-271.16 163.37,-260.92 159.09,-270.61 166.07,-271.16"/>
</g>
<!-- Node8 -->
<g id="node3" class="node">
<title>Node8</title>
<g id="a_node3"><a xlink:href="group__gui__dlg.html#gac409b9da544a983e07a55108487079be" target="_top" xlink:title="Show the attachments in a Menu &#45;.">
<polygon fill="#fff0f0" stroke="red" points="89,-463 0,-463 0,-444 89,-444 89,-463"/>
<text text-anchor="middle" x="44.5" y="-451" font-family="Helvetica,sans-Serif" font-size="10.00">dlg_attachment</text>
</a>
</g>
</g>
<!-- Node1&#45;&gt;Node8 -->
<g id="edge2" class="edge">
<title>Node1&#45;&gt;Node8</title>
<path fill="none" stroke="#63b8ff" d="M160.95,-270.56C154.42,-308.42 135.68,-388.39 89,-435.5 85.78,-438.75 81.88,-441.44 77.77,-443.66"/>
<polygon fill="#63b8ff" stroke="#63b8ff" points="164.36,-271.37 162.48,-260.94 157.45,-270.27 164.36,-271.37"/>
</g>
<!-- Node10 -->
<g id="node4" class="node">
<title>Node10</title>
<g id="a_node4"><a xlink:href="group__gui__dlg.html#gab4a4e8d5d5aadc4545c1ad53370a1cc0" target="_top" xlink:title="Display the Autocrypt account Menu &#45;.">
<polygon fill="#fff0f0" stroke="red" points="84.5,-426 4.5,-426 4.5,-407 84.5,-407 84.5,-426"/>
<text text-anchor="middle" x="44.5" y="-414" font-family="Helvetica,sans-Serif" font-size="10.00">dlg_autocrypt</text>
</a>
</g>
</g>
<!-- Node1&#45;&gt;Node10 -->
<g id="edge3" class="edge">
<title>Node1&#45;&gt;Node10</title>
<path fill="none" stroke="#63b8ff" d="M158.62,-270.27C149.41,-301.96 127.78,-362.49 89,-398.5 85.53,-401.73 81.39,-404.41 77.08,-406.64"/>
<polygon fill="#63b8ff" stroke="#63b8ff" points="161.96,-271.33 161.24,-260.76 155.21,-269.48 161.96,-271.33"/>
</g>
<!-- Node12 -->
<g id="node5" class="node">
<title>Node12</title>
<g id="a_node5"><a xlink:href="group__gui__dlg.html#ga0772d3d88c6b65815188e5d56d1498fb" target="_top" xlink:title="Let the user select a file &#45;.">
<polygon fill="#fff0f0" stroke="red" points="81.5,-389 7.5,-389 7.5,-370 81.5,-370 81.5,-389"/>
<text text-anchor="middle" x="44.5" y="-377" font-family="Helvetica,sans-Serif" font-size="10.00">dlg_browser</text>
</a>
</g>
</g>
<!-- Node1&#45;&gt;Node12 -->
<g id="edge4" class="edge">
<title>Node1&#45;&gt;Node12</title>
<path fill="none" stroke="#63b8ff" d="M155.09,-269.61C143.23,-294.3 120.09,-336.02 89,-361.5 85.08,-364.71 80.51,-367.42 75.83,-369.69"/>
<polygon fill="#63b8ff" stroke="#63b8ff" points="158.2,-271.21 159.22,-260.67 151.85,-268.28 158.2,-271.21"/>
</g>
<!-- Node312 -->
<g id="node6" class="node">
<title>Node312</title>
<g id="a_node6"><a xlink:href="group__gui__dlg.html#ga4bb08d7fcc8d6dc6524a6a9d153c5820" target="_top" xlink:title="Allow the user to edit the message envelope &#45;.">
<polygon fill="#fff0f0" stroke="red" points="83,-352 6,-352 6,-333 83,-333 83,-352"/>
<text text-anchor="middle" x="44.5" y="-340" font-family="Helvetica,sans-Serif" font-size="10.00">dlg_compose</text>
</a>
</g>
</g>
<!-- Node1&#45;&gt;Node312 -->
<g id="edge5" class="edge">
<title>Node1&#45;&gt;Node312</title>
<path fill="none" stroke="#63b8ff" d="M148.95,-268.29C134.88,-284.87 112.55,-308.77 89,-324.5 84.38,-327.59 79.14,-330.3 73.95,-332.63"/>
<polygon fill="#63b8ff" stroke="#63b8ff" points="151.58,-270.6 155.26,-260.66 146.19,-266.13 151.58,-270.6"/>
</g>
<!-- Node706 -->
<g id="node7" class="node">
<title>Node706</title>
<g id="a_node7"><a xlink:href="group__gui__dlg.html#ga067e027820ea20630ff23e4774c206ea" target="_top" xlink:title="Get the user to select a key &#45;.">
<polygon fill="#fff0f0" stroke="red" points="78.5,-315 10.5,-315 10.5,-296 78.5,-296 78.5,-315"/>
<text text-anchor="middle" x="44.5" y="-303" font-family="Helvetica,sans-Serif" font-size="10.00">dlg_gpgme</text>
</a>
</g>
</g>
<!-- Node1&#45;&gt;Node706 -->
<g id="edge6" class="edge">
<title>Node1&#45;&gt;Node706</title>
<path fill="none" stroke="#63b8ff" d="M135.45,-264.61C121.56,-271.8 104.54,-280.36 89,-287.5 83.06,-290.23 76.58,-293.01 70.49,-295.55"/>
<polygon fill="#63b8ff" stroke="#63b8ff" points="136.8,-267.86 144.05,-260.13 133.57,-261.65 136.8,-267.86"/>
</g>
<!-- Node712 -->
<g id="node8" class="node">
<title>Node712</title>
<g id="a_node8"><a xlink:href="group__gui__dlg.html#ga83c5fc3028cc9a8a848880f2c2a80086" target="_top" xlink:title="Select an item from a history list &#45;.">
<polygon fill="#fff0f0" stroke="red" points="78.5,-278 10.5,-278 10.5,-259 78.5,-259 78.5,-278"/>
<text text-anchor="middle" x="44.5" y="-266" font-family="Helvetica,sans-Serif" font-size="10.00">dlg_history</text>
</a>
</g>
</g>
<!-- Node1&#45;&gt;Node712 -->
<g id="edge7" class="edge">
<title>Node1&#45;&gt;Node712</title>
<path fill="none" stroke="#63b8ff" d="M113.51,-257.59C101.8,-259.47 89.61,-261.43 78.85,-263.15"/>
<polygon fill="#63b8ff" stroke="#63b8ff" points="113.73,-261.11 123.05,-256.07 112.62,-254.19 113.73,-261.11"/>
</g>
<!-- Node124 -->
<g id="node9" class="node">
<title>Node124</title>
<g id="a_node9"><a xlink:href="group__gui__dlg.html#gaf4266da82ada988b3b2482b910ddb15a" target="_top" xlink:title="Display a list of emails &#45;.">
<polygon fill="#fff0f0" stroke="red" points="74.5,-241 14.5,-241 14.5,-222 74.5,-222 74.5,-241"/>
<text text-anchor="middle" x="44.5" y="-229" font-family="Helvetica,sans-Serif" font-size="10.00">dlg_index</text>
</a>
</g>
</g>
<!-- Node1&#45;&gt;Node124 -->
<g id="edge8" class="edge">
<title>Node1&#45;&gt;Node124</title>
<path fill="none" stroke="#63b8ff" d="M113.19,-241.78C100.02,-239.78 86.29,-237.7 74.67,-235.93"/>
<polygon fill="#63b8ff" stroke="#63b8ff" points="112.63,-245.24 123.04,-243.28 113.68,-238.32 112.63,-245.24"/>
</g>
<!-- Node125 -->
<g id="node10" class="node">
<title>Node125</title>
<g id="a_node10"><a xlink:href="group__gui__dlg.html#gaa0492e04d356a4dc2eed8a5ac9dd16d7" target="_top" xlink:title="Display an email, attachment, or help, in a window &#45;.">
<polygon fill="#fff0f0" stroke="red" points="76,-204 13,-204 13,-185 76,-185 76,-204"/>
<text text-anchor="middle" x="44.5" y="-192" font-family="Helvetica,sans-Serif" font-size="10.00">dlg_pager</text>
</a>
</g>
</g>
<!-- Node1&#45;&gt;Node125 -->
<g id="edge9" class="edge">
<title>Node1&#45;&gt;Node125</title>
<path fill="none" stroke="#63b8ff" d="M133.48,-234.55C119.91,-227.98 103.71,-220.24 89,-213.5 82.41,-210.48 75.21,-207.29 68.6,-204.41"/>
<polygon fill="#63b8ff" stroke="#63b8ff" points="131.83,-237.64 142.36,-238.86 134.9,-231.34 131.83,-237.64"/>
</g>
<!-- Node715 -->
<g id="node11" class="node">
<title>Node715</title>
<g id="a_node11"><a xlink:href="group__gui__dlg.html#ga910fa61e8d073d59d75b57b3effc738a" target="_top" xlink:title="Show menu to select a Pattern &#45;.">
<polygon fill="#fff0f0" stroke="red" points="80,-167 9,-167 9,-148 80,-148 80,-167"/>
<text text-anchor="middle" x="44.5" y="-155" font-family="Helvetica,sans-Serif" font-size="10.00">dlg_pattern</text>
</a>
</g>
</g>
<!-- Node1&#45;&gt;Node715 -->
<g id="edge10" class="edge">
<title>Node1&#45;&gt;Node715</title>
<path fill="none" stroke="#63b8ff" d="M148.54,-231.08C134.35,-215.05 112.07,-192.01 89,-176.5 83.94,-173.1 78.17,-170.07 72.52,-167.5"/>
<polygon fill="#63b8ff" stroke="#63b8ff" points="145.74,-233.18 154.92,-238.46 151.03,-228.6 145.74,-233.18"/>
</g>
<!-- Node717 -->
<g id="node12" class="node">
<title>Node717</title>
<g id="a_node12"><a xlink:href="group__gui__dlg.html#gaad46a16a4fdb23a65bd97ea311291cad" target="_top" xlink:title="Let the user select a key to use &#45;.">
<polygon fill="#fff0f0" stroke="red" points="71,-130 18,-130 18,-111 71,-111 71,-130"/>
<text text-anchor="middle" x="44.5" y="-118" font-family="Helvetica,sans-Serif" font-size="10.00">dlg_pgp</text>
</a>
</g>
</g>
<!-- Node1&#45;&gt;Node717 -->
<g id="edge11" class="edge">
<title>Node1&#45;&gt;Node717</title>
<path fill="none" stroke="#63b8ff" d="M154.74,-229.48C142.65,-205.3 119.42,-164.71 89,-139.5 83.8,-135.19 77.46,-131.69 71.26,-128.92"/>
<polygon fill="#63b8ff" stroke="#63b8ff" points="151.47,-230.77 158.96,-238.25 157.77,-227.73 151.47,-230.77"/>
</g>
<!-- Node555 -->
<g id="node13" class="node">
<title>Node555</title>
<g id="a_node13"><a xlink:href="group__gui__dlg.html#ga0085fc5cc00f40fb966d7d47b8092f92" target="_top" xlink:title="Create a Menu to select a postponed message &#45;.">
<polygon fill="#fff0f0" stroke="red" points="87.5,-93 1.5,-93 1.5,-74 87.5,-74 87.5,-93"/>
<text text-anchor="middle" x="44.5" y="-81" font-family="Helvetica,sans-Serif" font-size="10.00">dlg_postponed</text>
</a>
</g>
</g>
<!-- Node1&#45;&gt;Node555 -->
<g id="edge12" class="edge">
<title>Node1&#45;&gt;Node555</title>
<path fill="none" stroke="#63b8ff" d="M158.45,-229.09C149.03,-197.95 127.12,-138.4 89,-102.5 85.16,-98.88 80.52,-95.89 75.72,-93.43"/>
<polygon fill="#63b8ff" stroke="#63b8ff" points="155.01,-229.78 161.14,-238.42 161.74,-227.84 155.01,-229.78"/>
</g>
<!-- Node720 -->
<g id="node14" class="node">
<title>Node720</title>
<g id="a_node14"><a xlink:href="group__gui__dlg.html#ga829b076c15b48324f760aca2185d28ff" target="_top" xlink:title="Get the user to enter an Address Query &#45;.">
<polygon fill="#fff0f0" stroke="red" points="76,-56 13,-56 13,-37 76,-37 76,-56"/>
<text text-anchor="middle" x="44.5" y="-44" font-family="Helvetica,sans-Serif" font-size="10.00">dlg_query</text>
</a>
</g>
</g>
<!-- Node1&#45;&gt;Node720 -->
<g id="edge13" class="edge">
<title>Node1&#45;&gt;Node720</title>
<path fill="none" stroke="#63b8ff" d="M160.79,-228.75C154.01,-191.43 134.88,-112.53 89,-65.5 85.43,-61.84 81.04,-58.84 76.43,-56.4"/>
<polygon fill="#63b8ff" stroke="#63b8ff" points="157.27,-228.93 162.39,-238.21 164.18,-227.77 157.27,-228.93"/>
</g>
<!-- Node723 -->
<g id="node15" class="node">
<title>Node723</title>
<g id="a_node15"><a xlink:href="group__gui__dlg.html#gaf7f866a50b02f14c12ad47a0b20ce0fc" target="_top" xlink:title="Get the user to select a key &#45;.">
<polygon fill="#fff0f0" stroke="red" points="77.5,-19 11.5,-19 11.5,0 77.5,0 77.5,-19"/>
<text text-anchor="middle" x="44.5" y="-7" font-family="Helvetica,sans-Serif" font-size="10.00">dlg_smime</text>
</a>
</g>
</g>
<!-- Node1&#45;&gt;Node723 -->
<g id="edge14" class="edge">
<title>Node1&#45;&gt;Node723</title>
<path fill="none" stroke="#63b8ff" d="M162.44,-228.52C158.18,-185.63 142.78,-87.03 89,-28.5 85.65,-24.86 81.49,-21.88 77.07,-19.45"/>
<polygon fill="#63b8ff" stroke="#63b8ff" points="158.93,-228.55 163.28,-238.21 165.9,-227.95 158.93,-228.55"/>
</g>
</g>
</svg>
