<?xml version="1.0" encoding="UTF-8" standalone="no"?>
<!DOCTYPE svg PUBLIC "-//W3C//DTD SVG 1.1//EN"
 "http://www.w3.org/Graphics/SVG/1.1/DTD/svg11.dtd">
<!-- Generated by graphviz version 7.1.0 (0)
 -->
<!-- Title: mutt_flushinp Pages: 1 -->
<svg width="394pt" height="525pt"
 viewBox="0.00 0.00 394.00 525.00" xmlns="http://www.w3.org/2000/svg" xmlns:xlink="http://www.w3.org/1999/xlink">
<g id="graph0" class="graph" transform="scale(1 1) rotate(0) translate(4 521)">
<title>mutt_flushinp</title>
<!-- Node1 -->
<g id="node1" class="node">
<title>Node1</title>
<g id="a_node1"><a xlink:title="Empty all the keyboard buffers.">
<polygon fill="#999999" stroke="#666666" points="386,-273 306,-273 306,-254 386,-254 386,-273"/>
<text text-anchor="middle" x="346" y="-261" font-family="Helvetica,sans-Serif" font-size="10.00">mutt_flushinp</text>
</a>
</g>
</g>
<!-- Node2 -->
<g id="node2" class="node">
<title>Node2</title>
<g id="a_node2"><a xlink:href="pager_2functions_8c.html#ac15fbc6c161f1b9223fca642f12539f9" target="_top" xlink:title="Check that pager is in correct mode.">
<polygon fill="#fff0f0" stroke="red" points="268,-517 159,-517 159,-498 268,-498 268,-517"/>
<text text-anchor="middle" x="213.5" y="-505" font-family="Helvetica,sans-Serif" font-size="10.00">assert_pager_mode</text>
</a>
</g>
</g>
<!-- Node1&#45;&gt;Node2 -->
<g id="edge1" class="edge">
<title>Node1&#45;&gt;Node2</title>
<path fill="none" stroke="#63b8ff" d="M344.12,-284.49C341.12,-328.69 327.93,-431.96 270,-489.5 266.77,-492.71 262.95,-495.35 258.87,-497.52"/>
<polygon fill="#63b8ff" stroke="#63b8ff" points="347.6,-284.93 344.66,-274.75 340.61,-284.54 347.6,-284.93"/>
</g>
<!-- Node4 -->
<g id="node3" class="node">
<title>Node4</title>
<g id="a_node3"><a xlink:href="attach_2functions_8c.html#a236354e7617c41529a4d59cd03558041" target="_top" xlink:title="Check if in attach&#45;message mode.">
<polygon fill="#fff0f0" stroke="red" points="251.5,-480 175.5,-480 175.5,-461 251.5,-461 251.5,-480"/>
<text text-anchor="middle" x="213.5" y="-468" font-family="Helvetica,sans-Serif" font-size="10.00">check_attach</text>
</a>
</g>
</g>
<!-- Node1&#45;&gt;Node4 -->
<g id="edge2" class="edge">
<title>Node1&#45;&gt;Node4</title>
<path fill="none" stroke="#63b8ff" d="M342.49,-284.72C336.79,-323.55 319.28,-406.29 270,-452.5 264.9,-457.28 258.52,-460.79 251.92,-463.37"/>
<polygon fill="#63b8ff" stroke="#63b8ff" points="345.96,-285.23 343.81,-274.85 339.02,-284.3 345.96,-285.23"/>
</g>
<!-- Node15 -->
<g id="node4" class="node">
<title>Node15</title>
<g id="a_node4"><a xlink:href="attach_2functions_8c.html#ac0088fa2a9f68e82d502399dd21054d7" target="_top" xlink:title="Check if the Mailbox is readonly.">
<polygon fill="#fff0f0" stroke="red" points="257.5,-443 169.5,-443 169.5,-424 257.5,-424 257.5,-443"/>
<text text-anchor="middle" x="213.5" y="-431" font-family="Helvetica,sans-Serif" font-size="10.00">check_readonly</text>
</a>
</g>
</g>
<!-- Node1&#45;&gt;Node15 -->
<g id="edge3" class="edge">
<title>Node1&#45;&gt;Node15</title>
<path fill="none" stroke="#63b8ff" d="M339.29,-284.23C329.77,-315.31 307.84,-374.09 270,-409.5 263.64,-415.45 255.57,-420.07 247.56,-423.59"/>
<polygon fill="#63b8ff" stroke="#63b8ff" points="342.58,-285.48 342.02,-274.9 335.86,-283.52 342.58,-285.48"/>
</g>
<!-- Node16 -->
<g id="node5" class="node">
<title>Node16</title>
<g id="a_node5"><a xlink:href="group__attach__function__api.html#gaa0138c1673949fc9609d395b785da4ad" target="_top" xlink:title="delete the current entry &#45; Implements attach_function_t &#45;">
<polygon fill="white" stroke="#666666" points="121,-424 0,-424 0,-405 121,-405 121,-424"/>
<text text-anchor="middle" x="60.5" y="-412" font-family="Helvetica,sans-Serif" font-size="10.00">op_attachment_delete</text>
</a>
</g>
</g>
<!-- Node1&#45;&gt;Node16 -->
<g id="edge14" class="edge">
<title>Node1&#45;&gt;Node16</title>
<path fill="none" stroke="#63b8ff" d="M337.43,-283.78C326.64,-309.7 304.27,-353.92 270,-376.5 225.91,-405.55 165.73,-413.97 121.36,-415.76"/>
<polygon fill="#63b8ff" stroke="#63b8ff" points="340.6,-285.29 341.02,-274.71 334.09,-282.72 340.6,-285.29"/>
</g>
<!-- Node18 -->
<g id="node6" class="node">
<title>Node18</title>
<g id="a_node6"><a xlink:href="group__gui__dlg.html#gaa0492e04d356a4dc2eed8a5ac9dd16d7" target="_top" xlink:title="Display an email, attachment, or help, in a window &#45;.">
<polygon fill="#fff0f0" stroke="red" points="245,-367 182,-367 182,-348 245,-348 245,-367"/>
<text text-anchor="middle" x="213.5" y="-355" font-family="Helvetica,sans-Serif" font-size="10.00">dlg_pager</text>
</a>
</g>
</g>
<!-- Node1&#45;&gt;Node18 -->
<g id="edge5" class="edge">
<title>Node1&#45;&gt;Node18</title>
<path fill="none" stroke="#63b8ff" d="M330.74,-282.45C316.93,-299.58 294.53,-324.37 270,-339.5 262.5,-344.13 253.69,-347.69 245.32,-350.37"/>
<polygon fill="#63b8ff" stroke="#63b8ff" points="333.49,-284.61 336.89,-274.57 327.98,-280.3 333.49,-284.61"/>
</g>
<!-- Node80 -->
<g id="node7" class="node">
<title>Node80</title>
<g id="a_node7"><a xlink:href="get_8c.html#a02c02dae4cefb87a1de76d2015165028" target="_top" xlink:title="Determine what a keypress should do.">
<polygon fill="#fff0f0" stroke="red" points="260.5,-330 166.5,-330 166.5,-311 260.5,-311 260.5,-330"/>
<text text-anchor="middle" x="213.5" y="-318" font-family="Helvetica,sans-Serif" font-size="10.00">km_dokey_event</text>
</a>
</g>
</g>
<!-- Node1&#45;&gt;Node80 -->
<g id="edge6" class="edge">
<title>Node1&#45;&gt;Node80</title>
<path fill="none" stroke="#63b8ff" d="M312.26,-277.96C299.13,-283.75 283.85,-290.46 270,-296.5 259.32,-301.16 247.47,-306.29 237.47,-310.61"/>
<polygon fill="#63b8ff" stroke="#63b8ff" points="313.58,-281.2 321.32,-273.97 310.75,-274.8 313.58,-281.2"/>
</g>
<!-- Node750 -->
<g id="node8" class="node">
<title>Node750</title>
<g id="a_node8"><a xlink:href="get_8c.html#af87fdac52c904eb8660ec65c094750b2" target="_top" xlink:title="Try to find the key in the generic menu bindings.">
<polygon fill="white" stroke="#666666" points="100.5,-330 20.5,-330 20.5,-311 100.5,-311 100.5,-330"/>
<text text-anchor="middle" x="60.5" y="-318" font-family="Helvetica,sans-Serif" font-size="10.00">retry_generic</text>
</a>
</g>
</g>
<!-- Node1&#45;&gt;Node750 -->
<g id="edge17" class="edge">
<title>Node1&#45;&gt;Node750</title>
<path fill="none" stroke="#63b8ff" d="M294.6,-273.63C239.11,-284.79 151.09,-302.49 100.58,-312.64"/>
<polygon fill="#63b8ff" stroke="#63b8ff" points="294.98,-277.13 304.1,-271.72 293.6,-270.26 294.98,-277.13"/>
</g>
<!-- Node44 -->
<g id="node9" class="node">
<title>Node44</title>
<g id="a_node9"><a xlink:href="main_8c.html#adedb285b02c41bde2158ded9cc9fd7ac" target="_top" xlink:title="Start NeoMutt.">
<polygon fill="white" stroke="#666666" points="80,-235 41,-235 41,-216 80,-216 80,-235"/>
<text text-anchor="middle" x="60.5" y="-223" font-family="Helvetica,sans-Serif" font-size="10.00">main</text>
</a>
</g>
</g>
<!-- Node1&#45;&gt;Node44 -->
<g id="edge9" class="edge">
<title>Node1&#45;&gt;Node44</title>
<path fill="none" stroke="#63b8ff" d="M294.54,-256.74C230.55,-248.16 123.36,-233.79 80.27,-228.02"/>
<polygon fill="#63b8ff" stroke="#63b8ff" points="293.7,-260.16 304.08,-258.02 294.63,-253.22 293.7,-260.16"/>
</g>
<!-- Node96 -->
<g id="node10" class="node">
<title>Node96</title>
<g id="a_node10"><a xlink:href="autocrypt_8c.html#ac2a58142d9962d1108cf66d8386a70bd" target="_top" xlink:title="Initialise Autocrypt.">
<polygon fill="#fff0f0" stroke="red" points="267,-216 160,-216 160,-197 267,-197 267,-216"/>
<text text-anchor="middle" x="213.5" y="-204" font-family="Helvetica,sans-Serif" font-size="10.00">mutt_autocrypt_init</text>
</a>
</g>
</g>
<!-- Node1&#45;&gt;Node96 -->
<g id="edge10" class="edge">
<title>Node1&#45;&gt;Node96</title>
<path fill="none" stroke="#63b8ff" d="M312.26,-249.04C299.13,-243.25 283.85,-236.54 270,-230.5 259.32,-225.84 247.47,-220.71 237.47,-216.39"/>
<polygon fill="#63b8ff" stroke="#63b8ff" points="310.75,-252.2 321.32,-253.03 313.58,-245.8 310.75,-252.2"/>
</g>
<!-- Node751 -->
<g id="node11" class="node">
<title>Node751</title>
<g id="a_node11"><a xlink:href="group__command__parse.html#gaf84f116289baf67db6243a7442a03b4f" target="_top" xlink:title="Parse the &#39;exec&#39; command &#45; Implements Command::parse() &#45;.">
<polygon fill="white" stroke="#666666" points="261,-179 166,-179 166,-160 261,-160 261,-179"/>
<text text-anchor="middle" x="213.5" y="-167" font-family="Helvetica,sans-Serif" font-size="10.00">mutt_parse_exec</text>
</a>
</g>
</g>
<!-- Node1&#45;&gt;Node751 -->
<g id="edge12" class="edge">
<title>Node1&#45;&gt;Node751</title>
<path fill="none" stroke="#63b8ff" d="M330.74,-244.55C316.93,-227.42 294.53,-202.63 270,-187.5 264.91,-184.36 259.22,-181.71 253.48,-179.5"/>
<polygon fill="#63b8ff" stroke="#63b8ff" points="327.98,-246.7 336.89,-252.43 333.49,-242.39 327.98,-246.7"/>
</g>
<!-- Node752 -->
<g id="node12" class="node">
<title>Node752</title>
<g id="a_node12"><a xlink:href="curs__lib_8c.html#ac7ca868e51ee14c92ab7a7b09487258e" target="_top" xlink:title="Ask the user if they want to leave NeoMutt.">
<polygon fill="#fff0f0" stroke="red" points="259.5,-142 167.5,-142 167.5,-123 259.5,-123 259.5,-142"/>
<text text-anchor="middle" x="213.5" y="-130" font-family="Helvetica,sans-Serif" font-size="10.00">mutt_query_exit</text>
</a>
</g>
</g>
<!-- Node1&#45;&gt;Node752 -->
<g id="edge13" class="edge">
<title>Node1&#45;&gt;Node752</title>
<path fill="none" stroke="#63b8ff" d="M336.62,-243.18C325.2,-217.9 302.38,-175.08 270,-150.5 265.72,-147.25 260.84,-144.58 255.78,-142.38"/>
<polygon fill="#63b8ff" stroke="#63b8ff" points="333.4,-244.55 340.59,-252.34 339.83,-241.77 333.4,-244.55"/>
</g>
<!-- Node781 -->
<g id="node13" class="node">
<title>Node781</title>
<g id="a_node13"><a xlink:href="index_2functions_8c.html#adb916971873eb206d5a86396b72a35de" target="_top" xlink:title="Check the pre&#45;requisites for a function.">
<polygon fill="#fff0f0" stroke="red" points="237.5,-105 189.5,-105 189.5,-86 237.5,-86 237.5,-105"/>
<text text-anchor="middle" x="213.5" y="-93" font-family="Helvetica,sans-Serif" font-size="10.00">prereq</text>
</a>
</g>
</g>
<!-- Node1&#45;&gt;Node781 -->
<g id="edge15" class="edge">
<title>Node1&#45;&gt;Node781</title>
<path fill="none" stroke="#63b8ff" d="M340.12,-242.67C331.5,-210.39 310.53,-148.36 270,-113.5 261.02,-105.77 248.65,-101.35 237.87,-98.82"/>
<polygon fill="#63b8ff" stroke="#63b8ff" points="336.73,-243.51 342.55,-252.35 343.52,-241.8 336.73,-243.51"/>
</g>
<!-- Node771 -->
<g id="node14" class="node">
<title>Node771</title>
<g id="a_node14"><a xlink:href="imap_2message_8c.html#aa881016bc7aba8e6c29a910459cfa260" target="_top" xlink:title="Ask the user whether to abort the download.">
<polygon fill="#fff0f0" stroke="red" points="270,-67.5 157,-67.5 157,-37.5 270,-37.5 270,-67.5"/>
<text text-anchor="start" x="165" y="-55.5" font-family="Helvetica,sans-Serif" font-size="10.00">query_abort_header</text>
<text text-anchor="middle" x="213.5" y="-44.5" font-family="Helvetica,sans-Serif" font-size="10.00">_download</text>
</a>
</g>
</g>
<!-- Node1&#45;&gt;Node771 -->
<g id="edge16" class="edge">
<title>Node1&#45;&gt;Node771</title>
<path fill="none" stroke="#63b8ff" d="M341.91,-242.4C335.31,-204.46 316.48,-124.24 270,-76.5 266.85,-73.27 263.19,-70.44 259.29,-67.98"/>
<polygon fill="#63b8ff" stroke="#63b8ff" points="338.42,-242.72 343.46,-252.04 345.33,-241.61 338.42,-242.72"/>
</g>
<!-- Node313 -->
<g id="node15" class="node">
<title>Node313</title>
<g id="a_node15"><a xlink:href="editor_2window_8c.html#ae97582af5919a128251070d8d67543dc" target="_top" xlink:title="Insert a normal character.">
<polygon fill="#fff0f0" stroke="red" points="246,-19 181,-19 181,0 246,0 246,-19"/>
<text text-anchor="middle" x="213.5" y="-7" font-family="Helvetica,sans-Serif" font-size="10.00">self_insert</text>
</a>
</g>
</g>
<!-- Node1&#45;&gt;Node313 -->
<g id="edge18" class="edge">
<title>Node1&#45;&gt;Node313</title>
<path fill="none" stroke="#63b8ff" d="M344.36,-242.68C341.85,-197.44 329.58,-89.34 270,-28.5 263.66,-22.02 255.02,-17.75 246.44,-14.94"/>
<polygon fill="#63b8ff" stroke="#63b8ff" points="340.85,-242.56 344.79,-252.4 347.85,-242.26 340.85,-242.56"/>
</g>
<!-- Node15&#45;&gt;Node16 -->
<g id="edge4" class="edge">
<title>Node15&#45;&gt;Node16</title>
<path fill="none" stroke="#63b8ff" d="M158.08,-426.65C146.17,-425.15 133.49,-423.56 121.37,-422.03"/>
<polygon fill="#63b8ff" stroke="#63b8ff" points="157.37,-430.09 167.73,-427.87 158.24,-423.15 157.37,-430.09"/>
</g>
<!-- Node80&#45;&gt;Node750 -->
<g id="edge7" class="edge">
<title>Node80&#45;&gt;Node750</title>
<path fill="none" stroke="#63b8ff" d="M155.02,-313.92C136.88,-313.57 117.28,-313.76 100.72,-314.5"/>
<polygon fill="#63b8ff" stroke="#63b8ff" points="154.77,-317.42 164.86,-314.19 154.96,-310.42 154.77,-317.42"/>
</g>
<!-- Node750&#45;&gt;Node80 -->
<g id="edge8" class="edge">
<title>Node750&#45;&gt;Node80</title>
<path fill="none" stroke="#63b8ff" d="M112.19,-326.92C129.71,-327.4 149.24,-327.36 166.37,-326.77"/>
<polygon fill="#63b8ff" stroke="#63b8ff" points="112.36,-323.42 102.24,-326.56 112.1,-330.41 112.36,-323.42"/>
</g>
<!-- Node96&#45;&gt;Node44 -->
<g id="edge11" class="edge">
<title>Node96&#45;&gt;Node44</title>
<path fill="none" stroke="#63b8ff" d="M148.51,-214.55C123.85,-217.65 97.5,-220.97 80.35,-223.13"/>
<polygon fill="#63b8ff" stroke="#63b8ff" points="148.7,-218.06 158.19,-213.33 147.83,-211.11 148.7,-218.06"/>
</g>
</g>
</svg>
