<?xml version="1.0" encoding="UTF-8" standalone="no"?>
<!DOCTYPE svg PUBLIC "-//W3C//DTD SVG 1.1//EN"
 "http://www.w3.org/Graphics/SVG/1.1/DTD/svg11.dtd">
<!-- Generated by graphviz version 12.2.1 (20241206.2353)
 -->
<!-- Title: mutt_flushinp Pages: 1 -->
<svg width="367pt" height="498pt"
 viewBox="0.00 0.00 367.25 498.25" xmlns="http://www.w3.org/2000/svg" xmlns:xlink="http://www.w3.org/1999/xlink">
<g id="graph0" class="graph" transform="scale(1 1) rotate(0) translate(4 494.25)">
<title>mutt_flushinp</title>
<!-- Node1 -->
<g id="Node000001" class="node">
<title>Node1</title>
<g id="a_Node000001"><a xlink:title="MacroEvents moved to KeyModuleData UngetKeyEvents moved to KeyModuleData.">
<polygon fill="#999999" stroke="#666666" points="359.25,-256.25 279.5,-256.25 279.5,-234 359.25,-234 359.25,-256.25"/>
<text text-anchor="middle" x="319.38" y="-242.75" font-family="Helvetica,sans-Serif" font-size="10.00">mutt_flushinp</text>
</a>
</g>
</g>
<!-- Node2 -->
<g id="Node000002" class="node">
<title>Node2</title>
<g id="a_Node000002"><a xlink:href="pager_2functions_8c.html#ac15fbc6c161f1b9223fca642f12539f9" target="_top" xlink:title="Check that pager is in correct mode.">
<polygon fill="#fff0f0" stroke="red" points="241.62,-490.25 133.38,-490.25 133.38,-468 241.62,-468 241.62,-490.25"/>
<text text-anchor="middle" x="187.5" y="-476.75" font-family="Helvetica,sans-Serif" font-size="10.00">assert_pager_mode</text>
</a>
</g>
</g>
<!-- Node1&#45;&gt;Node2 -->
<g id="edge1_Node000001_Node000002" class="edge">
<title>Node1&#45;&gt;Node2</title>
<g id="a_edge1_Node000001_Node000002"><a xlink:title=" ">
<path fill="none" stroke="#63b8ff" d="M316.67,-268.12C312.26,-311.34 296.76,-405.21 243.5,-459.12 240.22,-462.45 236.34,-465.23 232.18,-467.54"/>
<polygon fill="#63b8ff" stroke="#63b8ff" points="320.16,-268.44 317.56,-258.16 313.18,-267.81 320.16,-268.44"/>
</a>
</g>
</g>
<!-- Node4 -->
<g id="Node000004" class="node">
<title>Node4</title>
<g id="a_Node000004"><a xlink:href="attach_2functions_8c.html#a236354e7617c41529a4d59cd03558041" target="_top" xlink:title="Check if in attach&#45;message mode.">
<polygon fill="#fff0f0" stroke="red" points="225.12,-450.25 149.88,-450.25 149.88,-428 225.12,-428 225.12,-450.25"/>
<text text-anchor="middle" x="187.5" y="-436.75" font-family="Helvetica,sans-Serif" font-size="10.00">check_attach</text>
</a>
</g>
</g>
<!-- Node1&#45;&gt;Node4 -->
<g id="edge2_Node000001_Node000004" class="edge">
<title>Node1&#45;&gt;Node4</title>
<g id="a_edge2_Node000001_Node000004"><a xlink:title=" ">
<path fill="none" stroke="#63b8ff" d="M314.62,-267.63C307.35,-304.33 287.97,-377.14 243.5,-419.12 238.4,-423.94 232.06,-427.61 225.51,-430.4"/>
<polygon fill="#63b8ff" stroke="#63b8ff" points="317.99,-268.63 316.36,-258.16 311.11,-267.36 317.99,-268.63"/>
</a>
</g>
</g>
<!-- Node15 -->
<g id="Node000015" class="node">
<title>Node15</title>
<g id="a_Node000015"><a xlink:href="attach_2functions_8c.html#ac0088fa2a9f68e82d502399dd21054d7" target="_top" xlink:title="Check if the Mailbox is readonly.">
<polygon fill="#fff0f0" stroke="red" points="231.12,-410.25 143.88,-410.25 143.88,-388 231.12,-388 231.12,-410.25"/>
<text text-anchor="middle" x="187.5" y="-396.75" font-family="Helvetica,sans-Serif" font-size="10.00">check_readonly</text>
</a>
</g>
</g>
<!-- Node1&#45;&gt;Node15 -->
<g id="edge3_Node000001_Node000015" class="edge">
<title>Node1&#45;&gt;Node15</title>
<g id="a_edge3_Node000001_Node000015"><a xlink:title=" ">
<path fill="none" stroke="#63b8ff" d="M310.39,-267.41C299.29,-295.58 276.76,-344.02 243.5,-374.12 237.44,-379.62 229.96,-384.08 222.5,-387.64"/>
<polygon fill="#63b8ff" stroke="#63b8ff" points="313.64,-268.7 313.9,-258.11 307.09,-266.22 313.64,-268.7"/>
</a>
</g>
</g>
<!-- Node16 -->
<g id="Node000016" class="node">
<title>Node16</title>
<g id="a_Node000016"><a xlink:href="group__attach__function__api.html#ga390a5008e9593356303e4aa7cfc67b8b" target="_top" xlink:title="delete the current entry &#45; Implements attach_function_t &#45;">
<polygon fill="white" stroke="#666666" points="95.5,-385.25 0,-385.25 0,-363 95.5,-363 95.5,-385.25"/>
<text text-anchor="middle" x="47.75" y="-371.75" font-family="Helvetica,sans-Serif" font-size="10.00">op_attach_delete</text>
</a>
</g>
</g>
<!-- Node1&#45;&gt;Node16 -->
<g id="edge11_Node000001_Node000016" class="edge">
<title>Node1&#45;&gt;Node16</title>
<g id="a_edge11_Node000001_Node000016"><a xlink:title=" ">
<path fill="none" stroke="#63b8ff" d="M304.02,-265.88C290.46,-283.92 268.51,-309.41 243.5,-324.12 197.47,-351.21 136.89,-363.78 95.6,-369.51"/>
<polygon fill="#63b8ff" stroke="#63b8ff" points="306.72,-268.11 309.76,-257.97 301.06,-264 306.72,-268.11"/>
</a>
</g>
</g>
<!-- Node18 -->
<g id="Node000018" class="node">
<title>Node18</title>
<g id="a_Node000018"><a xlink:href="group__gui__dlg.html#gaa0492e04d356a4dc2eed8a5ac9dd16d7" target="_top" xlink:title="Display an email, attachment, or help, in a window &#45;.">
<polygon fill="#fff0f0" stroke="red" points="79,-318.25 16.5,-318.25 16.5,-296 79,-296 79,-318.25"/>
<text text-anchor="middle" x="47.75" y="-304.75" font-family="Helvetica,sans-Serif" font-size="10.00">dlg_pager</text>
</a>
</g>
</g>
<!-- Node1&#45;&gt;Node18 -->
<g id="edge5_Node000001_Node000018" class="edge">
<title>Node1&#45;&gt;Node18</title>
<g id="a_edge5_Node000001_Node000018"><a xlink:title=" ">
<path fill="none" stroke="#63b8ff" d="M300.28,-264.63C286.27,-278.24 265.58,-295.32 243.5,-303.12 188.34,-322.62 118.79,-317.6 79.5,-312.29"/>
<polygon fill="#63b8ff" stroke="#63b8ff" points="302.5,-267.37 307.03,-257.79 297.51,-262.45 302.5,-267.37"/>
</a>
</g>
</g>
<!-- Node86 -->
<g id="Node000086" class="node">
<title>Node86</title>
<g id="a_Node000086"><a xlink:href="get_8c.html#a7ee8363d010586a4640185b487891586" target="_top" xlink:title="Determine what a keypress should do.">
<polygon fill="#fff0f0" stroke="red" points="218.75,-276.25 156.25,-276.25 156.25,-254 218.75,-254 218.75,-276.25"/>
<text text-anchor="middle" x="187.5" y="-262.75" font-family="Helvetica,sans-Serif" font-size="10.00">km_dokey</text>
</a>
</g>
</g>
<!-- Node1&#45;&gt;Node86 -->
<g id="edge6_Node000001_Node000086" class="edge">
<title>Node1&#45;&gt;Node86</title>
<g id="a_edge6_Node000001_Node000086"><a xlink:title=" ">
<path fill="none" stroke="#63b8ff" d="M267.9,-252.9C251.4,-255.44 233.59,-258.18 219.03,-260.42"/>
<polygon fill="#63b8ff" stroke="#63b8ff" points="268.21,-256.39 277.56,-251.41 267.14,-249.47 268.21,-256.39"/>
</a>
</g>
</g>
<!-- Node47 -->
<g id="Node000047" class="node">
<title>Node47</title>
<g id="a_Node000047"><a xlink:href="main_8c.html#adedb285b02c41bde2158ded9cc9fd7ac" target="_top" xlink:title="Start NeoMutt.">
<polygon fill="white" stroke="#666666" points="206.75,-236.25 168.25,-236.25 168.25,-214 206.75,-214 206.75,-236.25"/>
<text text-anchor="middle" x="187.5" y="-222.75" font-family="Helvetica,sans-Serif" font-size="10.00">main</text>
</a>
</g>
</g>
<!-- Node1&#45;&gt;Node47 -->
<g id="edge9_Node000001_Node000047" class="edge">
<title>Node1&#45;&gt;Node47</title>
<g id="a_edge9_Node000001_Node000047"><a xlink:title=" ">
<path fill="none" stroke="#63b8ff" d="M267.81,-237.34C246.46,-234.05 222.92,-230.42 207.07,-227.99"/>
<polygon fill="#63b8ff" stroke="#63b8ff" points="267.14,-240.78 277.56,-238.84 268.21,-233.86 267.14,-240.78"/>
</a>
</g>
</g>
<!-- Node781 -->
<g id="Node000781" class="node">
<title>Node781</title>
<g id="a_Node000781"><a xlink:href="curs__lib_8c.html#ac7ca868e51ee14c92ab7a7b09487258e" target="_top" xlink:title="Ask the user if they want to leave NeoMutt.">
<polygon fill="#fff0f0" stroke="red" points="233.38,-196.25 141.62,-196.25 141.62,-174 233.38,-174 233.38,-196.25"/>
<text text-anchor="middle" x="187.5" y="-182.75" font-family="Helvetica,sans-Serif" font-size="10.00">mutt_query_exit</text>
</a>
</g>
</g>
<!-- Node1&#45;&gt;Node781 -->
<g id="edge10_Node000001_Node000781" class="edge">
<title>Node1&#45;&gt;Node781</title>
<g id="a_edge10_Node000001_Node000781"><a xlink:title=" ">
<path fill="none" stroke="#63b8ff" d="M288.97,-228.17C275.36,-220.65 258.84,-211.97 243.5,-205.12 236.82,-202.14 229.55,-199.26 222.54,-196.65"/>
<polygon fill="#63b8ff" stroke="#63b8ff" points="286.98,-231.07 297.42,-232.9 290.41,-224.96 286.98,-231.07"/>
</a>
</g>
</g>
<!-- Node819 -->
<g id="Node000819" class="node">
<title>Node819</title>
<g id="a_Node000819"><a xlink:href="group__command__parse.html#ga4a9dea5306f77ec0e918b31428928e82" target="_top" xlink:title="Parse the &#39;exec&#39; command &#45; Implements Command::parse() &#45;.">
<polygon fill="white" stroke="#666666" points="221.38,-156.25 153.62,-156.25 153.62,-134 221.38,-134 221.38,-156.25"/>
<text text-anchor="middle" x="187.5" y="-142.75" font-family="Helvetica,sans-Serif" font-size="10.00">parse_exec</text>
</a>
</g>
</g>
<!-- Node1&#45;&gt;Node819 -->
<g id="edge12_Node000001_Node000819" class="edge">
<title>Node1&#45;&gt;Node819</title>
<g id="a_edge12_Node000001_Node000819"><a xlink:title=" ">
<path fill="none" stroke="#63b8ff" d="M303.71,-224.68C289.95,-206.79 267.88,-181.22 243.5,-165.12 236.89,-160.76 229.2,-157.2 221.7,-154.35"/>
<polygon fill="#63b8ff" stroke="#63b8ff" points="300.77,-226.59 309.56,-232.51 306.38,-222.4 300.77,-226.59"/>
</a>
</g>
</g>
<!-- Node820 -->
<g id="Node000820" class="node">
<title>Node820</title>
<g id="a_Node000820"><a xlink:href="index_2functions_8c.html#adb916971873eb206d5a86396b72a35de" target="_top" xlink:title="Check the pre&#45;requisites for a function.">
<polygon fill="#fff0f0" stroke="red" points="211.25,-116.25 163.75,-116.25 163.75,-94 211.25,-94 211.25,-116.25"/>
<text text-anchor="middle" x="187.5" y="-102.75" font-family="Helvetica,sans-Serif" font-size="10.00">prereq</text>
</a>
</g>
</g>
<!-- Node1&#45;&gt;Node820 -->
<g id="edge13_Node000001_Node000820" class="edge">
<title>Node1&#45;&gt;Node820</title>
<g id="a_edge13_Node000001_Node000820"><a xlink:title=" ">
<path fill="none" stroke="#63b8ff" d="M310,-223.25C298.73,-196.54 276.24,-151.65 243.5,-125.12 234.34,-117.71 222.19,-112.9 211.64,-109.87"/>
<polygon fill="#63b8ff" stroke="#63b8ff" points="306.71,-224.43 313.7,-232.39 313.2,-221.81 306.71,-224.43"/>
</a>
</g>
</g>
<!-- Node802 -->
<g id="Node000802" class="node">
<title>Node802</title>
<g id="a_Node000802"><a xlink:href="imap_2message_8c.html#aa881016bc7aba8e6c29a910459cfa260" target="_top" xlink:title="Ask the user whether to abort the download.">
<polygon fill="#fff0f0" stroke="red" points="243.5,-76.38 131.5,-76.38 131.5,-39.88 243.5,-39.88 243.5,-76.38"/>
<text text-anchor="start" x="139.5" y="-62.88" font-family="Helvetica,sans-Serif" font-size="10.00">query_abort_header</text>
<text text-anchor="middle" x="187.5" y="-48.62" font-family="Helvetica,sans-Serif" font-size="10.00">_download</text>
</a>
</g>
</g>
<!-- Node1&#45;&gt;Node802 -->
<g id="edge14_Node000001_Node000802" class="edge">
<title>Node1&#45;&gt;Node802</title>
<g id="a_edge14_Node000001_Node000802"><a xlink:title=" ">
<path fill="none" stroke="#63b8ff" d="M312.98,-222.56C303.88,-188.8 282.53,-124.89 243.5,-85.12 240.52,-82.09 237.13,-79.34 233.53,-76.87"/>
<polygon fill="#63b8ff" stroke="#63b8ff" points="309.54,-223.24 315.41,-232.06 316.32,-221.51 309.54,-223.24"/>
</a>
</g>
</g>
<!-- Node320 -->
<g id="Node000320" class="node">
<title>Node320</title>
<g id="a_Node000320"><a xlink:href="editor_2window_8c.html#ae97582af5919a128251070d8d67543dc" target="_top" xlink:title="Insert a normal character.">
<polygon fill="#fff0f0" stroke="red" points="219.5,-22.25 155.5,-22.25 155.5,0 219.5,0 219.5,-22.25"/>
<text text-anchor="middle" x="187.5" y="-8.75" font-family="Helvetica,sans-Serif" font-size="10.00">self_insert</text>
</a>
</g>
</g>
<!-- Node1&#45;&gt;Node320 -->
<g id="edge15_Node000001_Node000320" class="edge">
<title>Node1&#45;&gt;Node320</title>
<g id="a_edge15_Node000001_Node000320"><a xlink:title=" ">
<path fill="none" stroke="#63b8ff" d="M316.67,-222.13C312.26,-178.91 296.76,-85.04 243.5,-31.12 237.07,-24.62 228.37,-20.22 219.78,-17.24"/>
<polygon fill="#63b8ff" stroke="#63b8ff" points="313.18,-222.44 317.56,-232.09 320.16,-221.81 313.18,-222.44"/>
</a>
</g>
</g>
<!-- Node15&#45;&gt;Node16 -->
<g id="edge4_Node000015_Node000016" class="edge">
<title>Node15&#45;&gt;Node16</title>
<g id="a_edge4_Node000015_Node000016"><a xlink:title=" ">
<path fill="none" stroke="#63b8ff" d="M132.36,-389.3C120.3,-387.11 107.61,-384.81 95.87,-382.68"/>
<polygon fill="#63b8ff" stroke="#63b8ff" points="131.72,-392.74 142.18,-391.08 132.97,-385.85 131.72,-392.74"/>
</a>
</g>
</g>
<!-- Node86&#45;&gt;Node18 -->
<g id="edge7_Node000086_Node000018" class="edge">
<title>Node86&#45;&gt;Node18</title>
<g id="a_edge7_Node000086_Node000018"><a xlink:title=" ">
<path fill="none" stroke="#63b8ff" d="M144.98,-277.78C123.83,-284.23 98.57,-291.94 79.24,-297.83"/>
<polygon fill="#63b8ff" stroke="#63b8ff" points="145.94,-281.15 154.48,-274.89 143.9,-274.46 145.94,-281.15"/>
</a>
</g>
</g>
<!-- Node86&#45;&gt;Node86 -->
<g id="edge8_Node000086_Node000086" class="edge">
<title>Node86&#45;&gt;Node86</title>
<g id="a_edge8_Node000086_Node000086"><a xlink:title=" ">
<path fill="none" stroke="#63b8ff" d="M210.6,-287.7C207.45,-291.57 199.75,-294.25 187.5,-294.25 165.09,-294.25 157.91,-285.28 165.97,-276.49"/>
<polygon fill="#63b8ff" stroke="#63b8ff" points="214.09,-287.4 209.24,-277.98 207.16,-288.37 214.09,-287.4"/>
</a>
</g>
</g>
</g>
</svg>
