<?xml version="1.0" encoding="UTF-8" standalone="no"?>
<!DOCTYPE svg PUBLIC "-//W3C//DTD SVG 1.1//EN"
 "http://www.w3.org/Graphics/SVG/1.1/DTD/svg11.dtd">
<!-- Generated by graphviz version 7.1.0 (0)
 -->
<!-- Title: km_dokey_event Pages: 1 -->
<svg width="218pt" height="101pt"
 viewBox="0.00 0.00 218.00 101.00" xmlns="http://www.w3.org/2000/svg" xmlns:xlink="http://www.w3.org/1999/xlink">
<g id="graph0" class="graph" transform="scale(1 1) rotate(0) translate(4 97)">
<title>km_dokey_event</title>
<!-- Node1 -->
<g id="node1" class="node">
<title>Node1</title>
<g id="a_node1"><a xlink:title="Determine what a keypress should do.">
<polygon fill="#999999" stroke="#666666" points="210,-37 116,-37 116,-18 210,-18 210,-37"/>
<text text-anchor="middle" x="163" y="-25" font-family="Helvetica,sans-Serif" font-size="10.00">km_dokey_event</text>
</a>
</g>
</g>
<!-- Node2 -->
<g id="node2" class="node">
<title>Node2</title>
<g id="a_node2"><a xlink:href="get_8c.html#a41a7f3342ccbe6b726fecc8adf041d4e" target="_top" xlink:title="Determine what a keypress should do.">
<polygon fill="#fff0f0" stroke="red" points="71.5,-93 8.5,-93 8.5,-74 71.5,-74 71.5,-93"/>
<text text-anchor="middle" x="40" y="-81" font-family="Helvetica,sans-Serif" font-size="10.00">km_dokey</text>
</a>
</g>
</g>
<!-- Node1&#45;&gt;Node2 -->
<g id="edge1" class="edge">
<title>Node1&#45;&gt;Node2</title>
<path fill="none" stroke="#63b8ff" d="M130.34,-42.19C115.12,-49.24 96.62,-57.82 80,-65.5 74.31,-68.13 68.16,-70.97 62.46,-73.6"/>
<polygon fill="#63b8ff" stroke="#63b8ff" points="131.79,-45.37 139.39,-37.99 128.85,-39.02 131.79,-45.37"/>
</g>
<!-- Node298 -->
<g id="node3" class="node">
<title>Node298</title>
<g id="a_node3"><a xlink:href="group__gui__mw.html#gabcbd2498b412e9f8e9d953cafc01989c" target="_top" xlink:title="Ask the user for a string &#45;.">
<polygon fill="#fff0f0" stroke="red" points="79,-56 1,-56 1,-37 79,-37 79,-56"/>
<text text-anchor="middle" x="40" y="-44" font-family="Helvetica,sans-Serif" font-size="10.00">mw_get_field</text>
</a>
</g>
</g>
<!-- Node1&#45;&gt;Node298 -->
<g id="edge2" class="edge">
<title>Node1&#45;&gt;Node298</title>
<path fill="none" stroke="#63b8ff" d="M104.44,-36.54C95.9,-37.88 87.28,-39.23 79.26,-40.49"/>
<polygon fill="#63b8ff" stroke="#63b8ff" points="104.73,-40.04 114.07,-35.03 103.65,-33.12 104.73,-40.04"/>
</g>
<!-- Node739 -->
<g id="node4" class="node">
<title>Node739</title>
<g id="a_node4"><a xlink:href="get_8c.html#af87fdac52c904eb8660ec65c094750b2" target="_top" xlink:title="Try to find the key in the generic menu bindings.">
<polygon fill="white" stroke="#666666" points="80,-19 0,-19 0,0 80,0 80,-19"/>
<text text-anchor="middle" x="40" y="-7" font-family="Helvetica,sans-Serif" font-size="10.00">retry_generic</text>
</a>
</g>
</g>
<!-- Node1&#45;&gt;Node739 -->
<g id="edge3" class="edge">
<title>Node1&#45;&gt;Node739</title>
<path fill="none" stroke="#63b8ff" d="M122.95,-15.33C109.32,-12.79 94.02,-10.51 80.37,-8.99"/>
<polygon fill="#63b8ff" stroke="#63b8ff" points="121.96,-18.7 132.45,-17.23 123.33,-11.84 121.96,-18.7"/>
</g>
<!-- Node739&#45;&gt;Node1 -->
<g id="edge4" class="edge">
<title>Node739&#45;&gt;Node1</title>
<path fill="none" stroke="#63b8ff" d="M80.2,-21.69C91.48,-23.8 103.89,-25.72 115.56,-27.18"/>
<polygon fill="#63b8ff" stroke="#63b8ff" points="80.91,-18.27 70.42,-19.74 79.54,-25.13 80.91,-18.27"/>
</g>
</g>
</svg>
