<?xml version="1.0" encoding="UTF-8" standalone="no"?>
<!DOCTYPE svg PUBLIC "-//W3C//DTD SVG 1.1//EN"
 "http://www.w3.org/Graphics/SVG/1.1/DTD/svg11.dtd">
<!-- Generated by graphviz version 12.2.1 (20241206.2353)
 -->
<!-- Title: array_pop Pages: 1 -->
<svg width="206pt" height="88pt"
 viewBox="0.00 0.00 205.75 88.25" xmlns="http://www.w3.org/2000/svg" xmlns:xlink="http://www.w3.org/1999/xlink">
<g id="graph0" class="graph" transform="scale(1 1) rotate(0) translate(4 84.25)">
<title>array_pop</title>
<!-- Node1 -->
<g id="Node000001" class="node">
<title>Node1</title>
<g id="a_Node000001"><a xlink:title="Remove an event from the array.">
<polygon fill="#999999" stroke="#666666" points="197.75,-51.25 135.25,-51.25 135.25,-29 197.75,-29 197.75,-51.25"/>
<text text-anchor="middle" x="166.5" y="-37.75" font-family="Helvetica,sans-Serif" font-size="10.00">array_pop</text>
</a>
</g>
</g>
<!-- Node2 -->
<g id="Node000002" class="node">
<title>Node2</title>
<g id="a_Node000002"><a xlink:href="get_8c.html#a607eda89991600c0be751bbbd8ddce5d" target="_top" xlink:title="Clear the array until an OP_END_COND.">
<polygon fill="#fff0f0" stroke="red" points="99.25,-80.25 0,-80.25 0,-58 99.25,-58 99.25,-80.25"/>
<text text-anchor="middle" x="49.62" y="-66.75" font-family="Helvetica,sans-Serif" font-size="10.00">array_to_endcond</text>
</a>
</g>
</g>
<!-- Node1&#45;&gt;Node2 -->
<g id="edge1_Node000001_Node000002" class="edge">
<title>Node1&#45;&gt;Node2</title>
<g id="a_edge1_Node000001_Node000002"><a xlink:title=" ">
<path fill="none" stroke="#63b8ff" d="M124.03,-50.59C115.06,-52.86 105.53,-55.26 96.4,-57.57"/>
<polygon fill="#63b8ff" stroke="#63b8ff" points="124.71,-54.03 133.55,-48.19 123,-47.25 124.71,-54.03"/>
</a>
</g>
</g>
<!-- Node774 -->
<g id="Node000774" class="node">
<title>Node774</title>
<g id="a_Node000774"><a xlink:href="get_8c.html#a7d47b607e72adbec2c1963d6ae164a85" target="_top" xlink:title="Read a character from the input buffer.">
<polygon fill="#fff0f0" stroke="red" points="84.25,-22.25 15,-22.25 15,0 84.25,0 84.25,-22.25"/>
<text text-anchor="middle" x="49.62" y="-8.75" font-family="Helvetica,sans-Serif" font-size="10.00">mutt_getch</text>
</a>
</g>
</g>
<!-- Node1&#45;&gt;Node774 -->
<g id="edge2_Node000001_Node000774" class="edge">
<title>Node1&#45;&gt;Node774</title>
<g id="a_edge2_Node000001_Node000774"><a xlink:title=" ">
<path fill="none" stroke="#63b8ff" d="M123.99,-29.65C111.02,-26.37 96.87,-22.8 84.49,-19.67"/>
<polygon fill="#63b8ff" stroke="#63b8ff" points="123,-33 133.55,-32.06 124.71,-26.22 123,-33"/>
</a>
</g>
</g>
<!-- Node774&#45;&gt;Node774 -->
<g id="edge3_Node000774_Node000774" class="edge">
<title>Node774&#45;&gt;Node774</title>
<g id="a_edge3_Node000774_Node000774"><a xlink:title=" ">
<path fill="none" stroke="#63b8ff" d="M70.1,-33.7C67.31,-37.57 60.49,-40.25 49.62,-40.25 29.77,-40.25 23.4,-31.28 30.54,-22.49"/>
<polygon fill="#63b8ff" stroke="#63b8ff" points="73.6,-33.48 68.89,-23.99 66.65,-34.34 73.6,-33.48"/>
</a>
</g>
</g>
</g>
</svg>
