<?xml version="1.0" encoding="UTF-8" standalone="no"?>
<!DOCTYPE svg PUBLIC "-//W3C//DTD SVG 1.1//EN"
 "http://www.w3.org/Graphics/SVG/1.1/DTD/svg11.dtd">
<!-- Generated by graphviz version 2.40.1 (20161225.0304)
 -->
<!-- Title: email/globals.c Pages: 1 -->
<svg width="146pt" height="84pt"
 viewBox="0.00 0.00 145.50 84.00" xmlns="http://www.w3.org/2000/svg" xmlns:xlink="http://www.w3.org/1999/xlink">
<g id="graph0" class="graph" transform="scale(1 1) rotate(0) translate(4 80)">
<title>email/globals.c</title>
<polygon fill="#ffffff" stroke="transparent" points="-4,4 -4,-80 141.5,-80 141.5,4 -4,4"/>
<!-- Node0 -->
<g id="node1" class="node">
<title>Node0</title>
<polygon fill="#bfbfbf" stroke="#000000" points="21,-56.5 21,-75.5 112,-75.5 112,-56.5 21,-56.5"/>
<text text-anchor="middle" x="66.5" y="-63.5" font-family="Helvetica,sans-Serif" font-size="10.00" fill="#000000">email/globals.c</text>
</g>
<!-- Node1 -->
<g id="node2" class="node">
<title>Node1</title>
<polygon fill="#ffffff" stroke="#bfbfbf" points="0,-.5 0,-19.5 55,-19.5 55,-.5 0,-.5"/>
<text text-anchor="middle" x="27.5" y="-7.5" font-family="Helvetica,sans-Serif" font-size="10.00" fill="#000000">config.h</text>
</g>
<!-- Node0&#45;&gt;Node1 -->
<g id="edge1" class="edge">
<title>Node0&#45;&gt;Node1</title>
<path fill="none" stroke="#191970" d="M59.7067,-56.2455C54.2822,-48.4564 46.5339,-37.3308 39.9967,-27.9439"/>
<polygon fill="#191970" stroke="#191970" points="42.8025,-25.8485 34.2154,-19.6427 37.0583,-29.849 42.8025,-25.8485"/>
</g>
<!-- Node2 -->
<g id="node3" class="node">
<title>Node2</title>
<g id="a_node3"><a xlink:href="mutt_2lib_8h.html" target="_top" xlink:title="Convenience wrapper for the library headers. ">
<polygon fill="#ffffff" stroke="#ff0000" points="73.5,-.5 73.5,-19.5 137.5,-19.5 137.5,-.5 73.5,-.5"/>
<text text-anchor="middle" x="105.5" y="-7.5" font-family="Helvetica,sans-Serif" font-size="10.00" fill="#000000">mutt/lib.h</text>
</a>
</g>
</g>
<!-- Node0&#45;&gt;Node2 -->
<g id="edge2" class="edge">
<title>Node0&#45;&gt;Node2</title>
<path fill="none" stroke="#191970" d="M73.2933,-56.2455C78.7178,-48.4564 86.4661,-37.3308 93.0033,-27.9439"/>
<polygon fill="#191970" stroke="#191970" points="95.9417,-29.849 98.7846,-19.6427 90.1975,-25.8485 95.9417,-29.849"/>
</g>
</g>
</svg>
