<?xml version="1.0" encoding="UTF-8" standalone="no"?>
<!DOCTYPE svg PUBLIC "-//W3C//DTD SVG 1.1//EN"
 "http://www.w3.org/Graphics/SVG/1.1/DTD/svg11.dtd">
<!-- Generated by graphviz version 7.1.0 (0)
 -->
<!-- Title: gui/global.c Pages: 1 -->
<svg width="1066pt" height="192pt"
 viewBox="0.00 0.00 1066.00 192.00" xmlns="http://www.w3.org/2000/svg" xmlns:xlink="http://www.w3.org/1999/xlink">
<g id="graph0" class="graph" transform="scale(1 1) rotate(0) translate(4 188)">
<title>gui/global.c</title>
<!-- Node1 -->
<g id="node1" class="node">
<title>Node1</title>
<g id="a_node1"><a xlink:title="Global functions.">
<polygon fill="#999999" stroke="#666666" points="521.5,-184 451.5,-184 451.5,-165 521.5,-165 521.5,-184"/>
<text text-anchor="middle" x="486.5" y="-172" font-family="Helvetica,sans-Serif" font-size="10.00">gui/global.c</text>
</a>
</g>
</g>
<!-- Node2 -->
<g id="node2" class="node">
<title>Node2</title>
<g id="a_node2"><a xlink:title=" ">
<polygon fill="#e0e0e0" stroke="#999999" points="884.5,-19 830.5,-19 830.5,0 884.5,0 884.5,-19"/>
<text text-anchor="middle" x="857.5" y="-7" font-family="Helvetica,sans-Serif" font-size="10.00">config.h</text>
</a>
</g>
</g>
<!-- Node1&#45;&gt;Node2 -->
<g id="edge1" class="edge">
<title>Node1&#45;&gt;Node2</title>
<path fill="none" stroke="#63b8ff" d="M521.83,-172.6C621.67,-169.69 900.44,-158.93 927.5,-129 956.71,-96.69 908.84,-50.32 878.84,-26.29"/>
<polygon fill="#63b8ff" stroke="#63b8ff" points="881.09,-23.6 871.05,-20.24 876.8,-29.14 881.09,-23.6"/>
</g>
<!-- Node3 -->
<g id="node3" class="node">
<title>Node3</title>
<g id="a_node3"><a xlink:title=" ">
<polygon fill="#e0e0e0" stroke="#999999" points="403.5,-74 343.5,-74 343.5,-55 403.5,-55 403.5,-74"/>
<text text-anchor="middle" x="373.5" y="-62" font-family="Helvetica,sans-Serif" font-size="10.00">stdbool.h</text>
</a>
</g>
</g>
<!-- Node1&#45;&gt;Node3 -->
<g id="edge2" class="edge">
<title>Node1&#45;&gt;Node3</title>
<path fill="none" stroke="#63b8ff" d="M451.27,-171.84C393.89,-168.31 284.25,-157.88 260.5,-129 236.92,-100.32 290.67,-82.23 331.87,-73"/>
<polygon fill="#63b8ff" stroke="#63b8ff" points="332.54,-76.43 341.6,-70.94 331.09,-69.58 332.54,-76.43"/>
</g>
<!-- Node4 -->
<g id="node4" class="node">
<title>Node4</title>
<g id="a_node4"><a xlink:title=" ">
<polygon fill="#e0e0e0" stroke="#999999" points="55,-74 0,-74 0,-55 55,-55 55,-74"/>
<text text-anchor="middle" x="27.5" y="-62" font-family="Helvetica,sans-Serif" font-size="10.00">stddef.h</text>
</a>
</g>
</g>
<!-- Node1&#45;&gt;Node4 -->
<g id="edge3" class="edge">
<title>Node1&#45;&gt;Node4</title>
<path fill="none" stroke="#63b8ff" d="M451.13,-172.75C348.3,-170.22 54.92,-160.3 26.5,-129 15.95,-117.38 17.44,-99.06 20.84,-85.07"/>
<polygon fill="#63b8ff" stroke="#63b8ff" points="24.16,-86.21 23.64,-75.63 17.44,-84.22 24.16,-86.21"/>
</g>
<!-- Node5 -->
<g id="node5" class="node">
<title>Node5</title>
<g id="a_node5"><a xlink:title=" ">
<polygon fill="#e0e0e0" stroke="#999999" points="540.5,-74 492.5,-74 492.5,-55 540.5,-55 540.5,-74"/>
<text text-anchor="middle" x="516.5" y="-62" font-family="Helvetica,sans-Serif" font-size="10.00">stdio.h</text>
</a>
</g>
</g>
<!-- Node1&#45;&gt;Node5 -->
<g id="edge4" class="edge">
<title>Node1&#45;&gt;Node5</title>
<path fill="none" stroke="#63b8ff" d="M488.96,-164.66C493.75,-147.42 504.44,-108.9 511.01,-85.27"/>
<polygon fill="#63b8ff" stroke="#63b8ff" points="514.3,-86.49 513.61,-75.92 507.56,-84.62 514.3,-86.49"/>
</g>
<!-- Node6 -->
<g id="node6" class="node">
<title>Node6</title>
<g id="a_node6"><a xlink:href="mutt_2lib_8h.html" target="_top" xlink:title="Convenience wrapper for the library headers.">
<polygon fill="#fff0f0" stroke="red" points="783.5,-74 721.5,-74 721.5,-55 783.5,-55 783.5,-74"/>
<text text-anchor="middle" x="752.5" y="-62" font-family="Helvetica,sans-Serif" font-size="10.00">mutt/lib.h</text>
</a>
</g>
</g>
<!-- Node1&#45;&gt;Node6 -->
<g id="edge5" class="edge">
<title>Node1&#45;&gt;Node6</title>
<path fill="none" stroke="#63b8ff" d="M521.75,-174.11C596.91,-174.57 769.02,-170.92 805.5,-129 819.77,-112.6 798.62,-93.38 778.95,-80.42"/>
<polygon fill="#63b8ff" stroke="#63b8ff" points="780.92,-77.52 770.58,-75.23 777.23,-83.47 780.92,-77.52"/>
</g>
<!-- Node54 -->
<g id="node7" class="node">
<title>Node54</title>
<g id="a_node7"><a xlink:href="core_2lib_8h.html" target="_top" xlink:title="Convenience wrapper for the core headers.">
<polygon fill="#fff0f0" stroke="red" points="198.5,-74 138.5,-74 138.5,-55 198.5,-55 198.5,-74"/>
<text text-anchor="middle" x="168.5" y="-62" font-family="Helvetica,sans-Serif" font-size="10.00">core/lib.h</text>
</a>
</g>
</g>
<!-- Node1&#45;&gt;Node54 -->
<g id="edge7" class="edge">
<title>Node1&#45;&gt;Node54</title>
<path fill="none" stroke="#63b8ff" d="M451.18,-172.67C349.93,-169.95 64.21,-159.58 36.5,-129 6.86,-96.29 78.11,-78.74 127.05,-70.83"/>
<polygon fill="#63b8ff" stroke="#63b8ff" points="127.47,-74.31 136.83,-69.34 126.42,-67.39 127.47,-74.31"/>
</g>
<!-- Node64 -->
<g id="node8" class="node">
<title>Node64</title>
<g id="a_node8"><a xlink:href="global_8h.html" target="_top" xlink:title="Global functions.">
<polygon fill="white" stroke="#666666" points="406,-129 353,-129 353,-110 406,-110 406,-129"/>
<text text-anchor="middle" x="379.5" y="-117" font-family="Helvetica,sans-Serif" font-size="10.00">global.h</text>
</a>
</g>
</g>
<!-- Node1&#45;&gt;Node64 -->
<g id="edge8" class="edge">
<title>Node1&#45;&gt;Node64</title>
<path fill="none" stroke="#63b8ff" d="M468.35,-164.51C451.72,-156.27 426.86,-143.96 407.65,-134.45"/>
<polygon fill="#63b8ff" stroke="#63b8ff" points="409.25,-131.33 398.74,-130.03 406.15,-137.6 409.25,-131.33"/>
</g>
<!-- Node65 -->
<g id="node9" class="node">
<title>Node65</title>
<g id="a_node9"><a xlink:href="index_2lib_8h.html" target="_top" xlink:title="GUI manage the main index (list of emails)">
<polygon fill="#fff0f0" stroke="red" points="335,-129 270,-129 270,-110 335,-110 335,-129"/>
<text text-anchor="middle" x="302.5" y="-117" font-family="Helvetica,sans-Serif" font-size="10.00">index/lib.h</text>
</a>
</g>
</g>
<!-- Node1&#45;&gt;Node65 -->
<g id="edge9" class="edge">
<title>Node1&#45;&gt;Node65</title>
<path fill="none" stroke="#63b8ff" d="M455.29,-164.51C424.8,-155.73 378.18,-142.3 344.46,-132.59"/>
<polygon fill="#63b8ff" stroke="#63b8ff" points="345.59,-129.27 335.01,-129.87 343.65,-136 345.59,-129.27"/>
</g>
<!-- Node88 -->
<g id="node10" class="node">
<title>Node88</title>
<g id="a_node10"><a xlink:href="pager_2lib_8h.html" target="_top" xlink:title="GUI display a file/email/help in a viewport with paging.">
<polygon fill="#fff0f0" stroke="red" points="690.5,-129 622.5,-129 622.5,-110 690.5,-110 690.5,-129"/>
<text text-anchor="middle" x="656.5" y="-117" font-family="Helvetica,sans-Serif" font-size="10.00">pager/lib.h</text>
</a>
</g>
</g>
<!-- Node1&#45;&gt;Node88 -->
<g id="edge14" class="edge">
<title>Node1&#45;&gt;Node88</title>
<path fill="none" stroke="#63b8ff" d="M515.34,-164.51C543.26,-155.8 585.83,-142.53 616.92,-132.84"/>
<polygon fill="#63b8ff" stroke="#63b8ff" points="617.85,-136.21 626.36,-129.9 615.77,-129.53 617.85,-136.21"/>
</g>
<!-- Node89 -->
<g id="node11" class="node">
<title>Node89</title>
<g id="a_node11"><a xlink:href="curs__lib_8h.html" target="_top" xlink:title="GUI miscellaneous curses (window drawing) routines.">
<polygon fill="#fff0f0" stroke="red" points="105.5,-129 45.5,-129 45.5,-110 105.5,-110 105.5,-129"/>
<text text-anchor="middle" x="75.5" y="-117" font-family="Helvetica,sans-Serif" font-size="10.00">curs_lib.h</text>
</a>
</g>
</g>
<!-- Node1&#45;&gt;Node89 -->
<g id="edge19" class="edge">
<title>Node1&#45;&gt;Node89</title>
<path fill="none" stroke="#63b8ff" d="M451.21,-170.41C386.82,-164.53 245.78,-150.53 116.91,-129.25"/>
<polygon fill="#63b8ff" stroke="#63b8ff" points="117.61,-125.82 107.17,-127.63 116.46,-132.73 117.61,-125.82"/>
</g>
<!-- Node94 -->
<g id="node12" class="node">
<title>Node94</title>
<g id="a_node12"><a xlink:href="external_8h.html" target="_top" xlink:title="Manage where the email is piped to external commands.">
<polygon fill="white" stroke="#666666" points="488.5,-129 424.5,-129 424.5,-110 488.5,-110 488.5,-129"/>
<text text-anchor="middle" x="456.5" y="-117" font-family="Helvetica,sans-Serif" font-size="10.00">external.h</text>
</a>
</g>
</g>
<!-- Node1&#45;&gt;Node94 -->
<g id="edge22" class="edge">
<title>Node1&#45;&gt;Node94</title>
<path fill="none" stroke="#63b8ff" d="M481.55,-164.75C477.66,-157.88 472.11,-148.08 467.22,-139.45"/>
<polygon fill="#63b8ff" stroke="#63b8ff" points="470.28,-137.74 462.31,-130.76 464.19,-141.19 470.28,-137.74"/>
</g>
<!-- Node95 -->
<g id="node13" class="node">
<title>Node95</title>
<g id="a_node13"><a xlink:href="mutt__curses_8h.html" target="_top" xlink:title="Define wrapper functions around Curses.">
<polygon fill="#fff0f0" stroke="red" points="1058,-74 975,-74 975,-55 1058,-55 1058,-74"/>
<text text-anchor="middle" x="1016.5" y="-62" font-family="Helvetica,sans-Serif" font-size="10.00">mutt_curses.h</text>
</a>
</g>
</g>
<!-- Node1&#45;&gt;Node95 -->
<g id="edge25" class="edge">
<title>Node1&#45;&gt;Node95</title>
<path fill="none" stroke="#63b8ff" d="M521.82,-173.51C618.22,-173.01 883.8,-168.04 960.5,-129 980.11,-119.02 995.93,-99 1005.69,-84.1"/>
<polygon fill="#63b8ff" stroke="#63b8ff" points="1008.63,-86 1010.9,-75.65 1002.67,-82.33 1008.63,-86"/>
</g>
<!-- Node113 -->
<g id="node14" class="node">
<title>Node113</title>
<g id="a_node14"><a xlink:href="mutt__mailbox_8h.html" target="_top" xlink:title="Mailbox helper functions.">
<polygon fill="white" stroke="#666666" points="213,-129 124,-129 124,-110 213,-110 213,-129"/>
<text text-anchor="middle" x="168.5" y="-117" font-family="Helvetica,sans-Serif" font-size="10.00">mutt_mailbox.h</text>
</a>
</g>
</g>
<!-- Node1&#45;&gt;Node113 -->
<g id="edge27" class="edge">
<title>Node1&#45;&gt;Node113</title>
<path fill="none" stroke="#63b8ff" d="M451.25,-167.63C396.41,-158.49 290.17,-140.78 224.67,-129.86"/>
<polygon fill="#63b8ff" stroke="#63b8ff" points="225.27,-126.41 214.83,-128.22 224.12,-133.32 225.27,-126.41"/>
</g>
<!-- Node114 -->
<g id="node15" class="node">
<title>Node114</title>
<g id="a_node15"><a xlink:href="mutt__window_8h.html" target="_top" xlink:title="Window management.">
<polygon fill="#fff0f0" stroke="red" points="796.5,-129 708.5,-129 708.5,-110 796.5,-110 796.5,-129"/>
<text text-anchor="middle" x="752.5" y="-117" font-family="Helvetica,sans-Serif" font-size="10.00">mutt_window.h</text>
</a>
</g>
</g>
<!-- Node1&#45;&gt;Node114 -->
<g id="edge30" class="edge">
<title>Node1&#45;&gt;Node114</title>
<path fill="none" stroke="#63b8ff" d="M521.82,-166.46C566.59,-157.54 644.26,-142.07 696.98,-131.56"/>
<polygon fill="#63b8ff" stroke="#63b8ff" points="697.55,-135.02 706.68,-129.63 696.18,-128.15 697.55,-135.02"/>
</g>
<!-- Node115 -->
<g id="node16" class="node">
<title>Node115</title>
<g id="a_node16"><a xlink:href="opcodes_8h.html" target="_top" xlink:title="All user&#45;callable functions.">
<polygon fill="white" stroke="#666666" points="918,-129 853,-129 853,-110 918,-110 918,-129"/>
<text text-anchor="middle" x="885.5" y="-117" font-family="Helvetica,sans-Serif" font-size="10.00">opcodes.h</text>
</a>
</g>
</g>
<!-- Node1&#45;&gt;Node115 -->
<g id="edge34" class="edge">
<title>Node1&#45;&gt;Node115</title>
<path fill="none" stroke="#63b8ff" d="M521.81,-169.67C585.32,-162.63 722.97,-146.74 838.5,-129 839.5,-128.85 840.52,-128.69 841.54,-128.52"/>
<polygon fill="#63b8ff" stroke="#63b8ff" points="841.89,-132.02 851.17,-126.92 840.73,-125.11 841.89,-132.02"/>
</g>
<!-- Node116 -->
<g id="node17" class="node">
<title>Node116</title>
<g id="a_node17"><a xlink:href="version_8h.html" target="_top" xlink:title="Display version and copyright about NeoMutt.">
<polygon fill="white" stroke="#666666" points="604.5,-129 544.5,-129 544.5,-110 604.5,-110 604.5,-129"/>
<text text-anchor="middle" x="574.5" y="-117" font-family="Helvetica,sans-Serif" font-size="10.00">version.h</text>
</a>
</g>
</g>
<!-- Node1&#45;&gt;Node116 -->
<g id="edge37" class="edge">
<title>Node1&#45;&gt;Node116</title>
<path fill="none" stroke="#63b8ff" d="M501.43,-164.51C514.78,-156.47 534.61,-144.53 550.24,-135.11"/>
<polygon fill="#63b8ff" stroke="#63b8ff" points="551.74,-138.3 558.5,-130.14 548.12,-132.3 551.74,-138.3"/>
</g>
<!-- Node6&#45;&gt;Node2 -->
<g id="edge6" class="edge">
<title>Node6&#45;&gt;Node2</title>
<path fill="none" stroke="#63b8ff" d="M770.31,-54.51C786.63,-46.27 811.03,-33.96 829.87,-24.45"/>
<polygon fill="#63b8ff" stroke="#63b8ff" points="831.25,-27.67 838.6,-20.04 828.1,-21.42 831.25,-27.67"/>
</g>
<!-- Node65&#45;&gt;Node3 -->
<g id="edge10" class="edge">
<title>Node65&#45;&gt;Node3</title>
<path fill="none" stroke="#63b8ff" d="M314.54,-109.51C324.91,-101.77 340.1,-90.43 352.47,-81.2"/>
<polygon fill="#63b8ff" stroke="#63b8ff" points="354.5,-84.05 360.42,-75.26 350.31,-78.44 354.5,-84.05"/>
</g>
<!-- Node65&#45;&gt;Node5 -->
<g id="edge11" class="edge">
<title>Node65&#45;&gt;Node5</title>
<path fill="none" stroke="#63b8ff" d="M335.47,-110.33C374.93,-100.56 440.74,-84.26 481.2,-74.24"/>
<polygon fill="#63b8ff" stroke="#63b8ff" points="481.81,-77.7 490.68,-71.9 480.13,-70.9 481.81,-77.7"/>
</g>
<!-- Node65&#45;&gt;Node6 -->
<g id="edge12" class="edge">
<title>Node65&#45;&gt;Node6</title>
<path fill="none" stroke="#63b8ff" d="M335.12,-111.44C337.95,-110.92 340.77,-110.43 343.5,-110 476.44,-89.04 635.25,-74.83 709.83,-68.78"/>
<polygon fill="#63b8ff" stroke="#63b8ff" points="709.87,-72.29 719.56,-68 709.31,-65.31 709.87,-72.29"/>
</g>
<!-- Node65&#45;&gt;Node54 -->
<g id="edge13" class="edge">
<title>Node65&#45;&gt;Node54</title>
<path fill="none" stroke="#63b8ff" d="M279.77,-109.51C258.27,-101.01 225.77,-88.15 201.43,-78.53"/>
<polygon fill="#63b8ff" stroke="#63b8ff" points="202.89,-75.34 192.3,-74.91 200.31,-81.85 202.89,-75.34"/>
</g>
<!-- Node88&#45;&gt;Node2 -->
<g id="edge15" class="edge">
<title>Node88&#45;&gt;Node2</title>
<path fill="none" stroke="#63b8ff" d="M661.9,-109.74C670.79,-96.05 689.77,-69.66 712.5,-55 745.17,-33.93 788.38,-22.36 819.11,-16.34"/>
<polygon fill="#63b8ff" stroke="#63b8ff" points="819.54,-19.82 828.74,-14.57 818.28,-12.94 819.54,-19.82"/>
</g>
<!-- Node88&#45;&gt;Node3 -->
<g id="edge16" class="edge">
<title>Node88&#45;&gt;Node3</title>
<path fill="none" stroke="#63b8ff" d="M622.24,-111.69C619.28,-111.11 616.34,-110.54 613.5,-110 543.91,-96.67 462.83,-81.77 414.97,-73.04"/>
<polygon fill="#63b8ff" stroke="#63b8ff" points="415.79,-69.63 405.32,-71.28 414.53,-76.51 415.79,-69.63"/>
</g>
<!-- Node88&#45;&gt;Node5 -->
<g id="edge17" class="edge">
<title>Node88&#45;&gt;Node5</title>
<path fill="none" stroke="#63b8ff" d="M632.75,-109.51C610.19,-100.97 576.03,-88.03 550.56,-78.4"/>
<polygon fill="#63b8ff" stroke="#63b8ff" points="551.91,-75.16 541.31,-74.89 549.43,-81.71 551.91,-75.16"/>
</g>
<!-- Node88&#45;&gt;Node6 -->
<g id="edge18" class="edge">
<title>Node88&#45;&gt;Node6</title>
<path fill="none" stroke="#63b8ff" d="M672.79,-109.51C687.49,-101.39 709.39,-89.3 726.52,-79.85"/>
<polygon fill="#63b8ff" stroke="#63b8ff" points="728.07,-82.99 735.13,-75.09 724.68,-76.86 728.07,-82.99"/>
</g>
<!-- Node89&#45;&gt;Node3 -->
<g id="edge20" class="edge">
<title>Node89&#45;&gt;Node3</title>
<path fill="none" stroke="#63b8ff" d="M105.71,-111.78C108.67,-111.16 111.64,-110.56 114.5,-110 190.95,-95.11 280.6,-80.29 331.86,-72.07"/>
<polygon fill="#63b8ff" stroke="#63b8ff" points="332.3,-75.54 341.62,-70.51 331.19,-68.63 332.3,-75.54"/>
</g>
<!-- Node89&#45;&gt;Node4 -->
<g id="edge21" class="edge">
<title>Node89&#45;&gt;Node4</title>
<path fill="none" stroke="#63b8ff" d="M67.57,-109.75C60.94,-102.43 51.28,-91.76 43.11,-82.74"/>
<polygon fill="#63b8ff" stroke="#63b8ff" points="45.92,-80.63 36.61,-75.56 40.73,-85.33 45.92,-80.63"/>
</g>
<!-- Node94&#45;&gt;Node3 -->
<g id="edge23" class="edge">
<title>Node94&#45;&gt;Node3</title>
<path fill="none" stroke="#63b8ff" d="M442.42,-109.51C429.94,-101.54 411.48,-89.75 396.81,-80.38"/>
<polygon fill="#63b8ff" stroke="#63b8ff" points="398.96,-77.6 388.65,-75.17 395.19,-83.5 398.96,-77.6"/>
</g>
<!-- Node94&#45;&gt;Node5 -->
<g id="edge24" class="edge">
<title>Node94&#45;&gt;Node5</title>
<path fill="none" stroke="#63b8ff" d="M466.68,-109.51C475.26,-101.93 487.77,-90.88 498.1,-81.75"/>
<polygon fill="#63b8ff" stroke="#63b8ff" points="500.16,-84.6 505.34,-75.36 495.53,-79.36 500.16,-84.6"/>
</g>
<!-- Node95&#45;&gt;Node2 -->
<g id="edge26" class="edge">
<title>Node95&#45;&gt;Node2</title>
<path fill="none" stroke="#63b8ff" d="M989.53,-54.51C963.52,-45.84 923.95,-32.65 894.9,-22.97"/>
<polygon fill="#63b8ff" stroke="#63b8ff" points="896.37,-19.77 885.77,-19.92 894.15,-26.41 896.37,-19.77"/>
</g>
<!-- Node113&#45;&gt;Node3 -->
<g id="edge28" class="edge">
<title>Node113&#45;&gt;Node3</title>
<path fill="none" stroke="#63b8ff" d="M203.28,-109.51C238.89,-100.3 294.24,-85.99 332.09,-76.21"/>
<polygon fill="#63b8ff" stroke="#63b8ff" points="332.97,-79.59 341.77,-73.7 331.21,-72.82 332.97,-79.59"/>
</g>
<!-- Node113&#45;&gt;Node54 -->
<g id="edge29" class="edge">
<title>Node113&#45;&gt;Node54</title>
<path fill="none" stroke="#63b8ff" d="M168.5,-109.75C168.5,-103.27 168.5,-94.16 168.5,-85.9"/>
<polygon fill="#63b8ff" stroke="#63b8ff" points="172,-85.96 168.5,-75.96 165,-85.96 172,-85.96"/>
</g>
<!-- Node114&#45;&gt;Node2 -->
<g id="edge31" class="edge">
<title>Node114&#45;&gt;Node2</title>
<path fill="none" stroke="#63b8ff" d="M761.09,-109.66C778.55,-91.7 818.43,-50.69 841.05,-27.42"/>
<polygon fill="#63b8ff" stroke="#63b8ff" points="843.27,-30.16 847.73,-20.55 838.25,-25.28 843.27,-30.16"/>
</g>
<!-- Node114&#45;&gt;Node3 -->
<g id="edge32" class="edge">
<title>Node114&#45;&gt;Node3</title>
<path fill="none" stroke="#63b8ff" d="M708.27,-111.33C705.3,-110.87 702.36,-110.42 699.5,-110 597.32,-94.83 476.82,-78.89 414.87,-70.83"/>
<polygon fill="#63b8ff" stroke="#63b8ff" points="415.51,-67.39 405.15,-69.57 414.61,-74.33 415.51,-67.39"/>
</g>
<!-- Node114&#45;&gt;Node6 -->
<g id="edge33" class="edge">
<title>Node114&#45;&gt;Node6</title>
<path fill="none" stroke="#63b8ff" d="M752.5,-109.75C752.5,-103.27 752.5,-94.16 752.5,-85.9"/>
<polygon fill="#63b8ff" stroke="#63b8ff" points="756,-85.96 752.5,-75.96 749,-85.96 756,-85.96"/>
</g>
<!-- Node115&#45;&gt;Node2 -->
<g id="edge35" class="edge">
<title>Node115&#45;&gt;Node2</title>
<path fill="none" stroke="#63b8ff" d="M883.21,-109.66C878.76,-92.5 868.84,-54.26 862.71,-30.6"/>
<polygon fill="#63b8ff" stroke="#63b8ff" points="866.1,-29.73 860.2,-20.93 859.32,-31.48 866.1,-29.73"/>
</g>
<!-- Node115&#45;&gt;Node6 -->
<g id="edge36" class="edge">
<title>Node115&#45;&gt;Node6</title>
<path fill="none" stroke="#63b8ff" d="M862.94,-109.51C841.6,-101.01 809.34,-88.15 785.19,-78.53"/>
<polygon fill="#63b8ff" stroke="#63b8ff" points="786.72,-75.37 776.13,-74.92 784.13,-81.87 786.72,-75.37"/>
</g>
<!-- Node116&#45;&gt;Node3 -->
<g id="edge38" class="edge">
<title>Node116&#45;&gt;Node3</title>
<path fill="none" stroke="#63b8ff" d="M544.41,-110.57C509.92,-101.47 453.2,-86.52 414.65,-76.35"/>
<polygon fill="#63b8ff" stroke="#63b8ff" points="415.82,-73.04 405.26,-73.87 414.04,-79.81 415.82,-73.04"/>
</g>
<!-- Node116&#45;&gt;Node5 -->
<g id="edge39" class="edge">
<title>Node116&#45;&gt;Node5</title>
<path fill="none" stroke="#63b8ff" d="M564.66,-109.51C556.45,-102 544.52,-91.1 534.59,-82.03"/>
<polygon fill="#63b8ff" stroke="#63b8ff" points="537.05,-79.54 527.31,-75.38 532.33,-84.71 537.05,-79.54"/>
</g>
<!-- Node116&#45;&gt;Node6 -->
<g id="edge40" class="edge">
<title>Node116&#45;&gt;Node6</title>
<path fill="none" stroke="#63b8ff" d="M604.7,-109.51C634.06,-100.76 678.9,-87.42 711.48,-77.71"/>
<polygon fill="#63b8ff" stroke="#63b8ff" points="712.42,-81.09 721,-74.88 710.42,-74.38 712.42,-81.09"/>
</g>
</g>
</svg>
