<?xml version="1.0" encoding="UTF-8" standalone="no"?>
<!DOCTYPE svg PUBLIC "-//W3C//DTD SVG 1.1//EN"
 "http://www.w3.org/Graphics/SVG/1.1/DTD/svg11.dtd">
<!-- Generated by graphviz version 2.44.0 (0)
 -->
<!-- Title: tls_get_client_cert Pages: 1 -->
<svg width="254pt" height="66pt"
 viewBox="0.00 0.00 254.00 66.00" xmlns="http://www.w3.org/2000/svg" xmlns:xlink="http://www.w3.org/1999/xlink">
<g id="graph0" class="graph" transform="scale(1 1) rotate(0) translate(4 62)">
<title>tls_get_client_cert</title>
<polygon fill="white" stroke="transparent" points="-4,4 -4,-62 250,-62 250,4 -4,4"/>
<!-- Node1 -->
<g id="node1" class="node">
<title>Node1</title>
<g id="a_node1"><a xlink:title="Get the client certificate for a TLS connection.">
<polygon fill="#bfbfbf" stroke="black" points="0,-19.5 0,-38.5 97,-38.5 97,-19.5 0,-19.5"/>
<text text-anchor="middle" x="48.5" y="-26.5" font-family="Helvetica" font-size="10.00">tls_get_client_cert</text>
</a>
</g>
</g>
<!-- Node2 -->
<g id="node2" class="node">
<title>Node2</title>
<g id="a_node2"><a xlink:href="connaccount_8c.html#a2e00de19727c4db19f452dde494a770a" target="_top" xlink:title="Retrieve username into ConnAccount, if necessary.">
<polygon fill="white" stroke="red" points="133,-38.5 133,-57.5 246,-57.5 246,-38.5 133,-38.5"/>
<text text-anchor="middle" x="189.5" y="-45.5" font-family="Helvetica" font-size="10.00">mutt_account_getuser</text>
</a>
</g>
</g>
<!-- Node1&#45;&gt;Node2 -->
<g id="edge1" class="edge">
<title>Node1&#45;&gt;Node2</title>
<path fill="none" stroke="midnightblue" d="M97.34,-35.54C105.58,-36.67 114.27,-37.85 122.88,-39.03"/>
<polygon fill="midnightblue" stroke="midnightblue" points="122.54,-42.52 132.92,-40.4 123.49,-35.58 122.54,-42.52"/>
</g>
<!-- Node12 -->
<g id="node3" class="node">
<title>Node12</title>
<g id="a_node3"><a xlink:href="memory_8c.html#a4c1612d209c7825d55e6a014df352f03" target="_top" xlink:title="Allocate zeroed memory on the heap.">
<polygon fill="white" stroke="red" points="142.5,-0.5 142.5,-19.5 236.5,-19.5 236.5,-0.5 142.5,-0.5"/>
<text text-anchor="middle" x="189.5" y="-7.5" font-family="Helvetica" font-size="10.00">mutt_mem_calloc</text>
</a>
</g>
</g>
<!-- Node1&#45;&gt;Node12 -->
<g id="edge2" class="edge">
<title>Node1&#45;&gt;Node12</title>
<path fill="none" stroke="midnightblue" d="M97.34,-22.46C108.63,-20.92 120.78,-19.26 132.41,-17.67"/>
<polygon fill="midnightblue" stroke="midnightblue" points="133.02,-21.12 142.45,-16.29 132.07,-14.18 133.02,-21.12"/>
</g>
</g>
</svg>
