<?xml version="1.0" encoding="UTF-8" standalone="no"?>
<!DOCTYPE svg PUBLIC "-//W3C//DTD SVG 1.1//EN"
 "http://www.w3.org/Graphics/SVG/1.1/DTD/svg11.dtd">
<!-- Generated by graphviz version 2.40.1 (20161225.0304)
 -->
<!-- Title: tls_check_stored_hostname Pages: 1 -->
<svg width="315pt" height="256pt"
 viewBox="0.00 0.00 315.00 256.00" xmlns="http://www.w3.org/2000/svg" xmlns:xlink="http://www.w3.org/1999/xlink">
<g id="graph0" class="graph" transform="scale(1 1) rotate(0) translate(4 252)">
<title>tls_check_stored_hostname</title>
<polygon fill="#ffffff" stroke="transparent" points="-4,4 -4,-252 311,-252 311,4 -4,4"/>
<!-- Node1554 -->
<g id="node1" class="node">
<title>Node1554</title>
<polygon fill="#bfbfbf" stroke="#000000" points="0,-114.5 0,-133.5 152,-133.5 152,-114.5 0,-114.5"/>
<text text-anchor="middle" x="76" y="-121.5" font-family="Helvetica,sans-Serif" font-size="10.00" fill="#000000">tls_check_stored_hostname</text>
</g>
<!-- Node1555 -->
<g id="node2" class="node">
<title>Node1555</title>
<g id="a_node2"><a xlink:href="file_8c.html#ae1c0c19fec03274220b3ca065ad1e2e5" target="_top" xlink:title="Call fopen() safely. ">
<polygon fill="#ffffff" stroke="#ff0000" points="201,-228.5 201,-247.5 294,-247.5 294,-228.5 201,-228.5"/>
<text text-anchor="middle" x="247.5" y="-235.5" font-family="Helvetica,sans-Serif" font-size="10.00" fill="#000000">mutt_file_fopen</text>
</a>
</g>
</g>
<!-- Node1554&#45;&gt;Node1555 -->
<g id="edge1" class="edge">
<title>Node1554&#45;&gt;Node1555</title>
<path fill="none" stroke="#191970" d="M84.6403,-133.5044C102.2937,-152.3895 144.5174,-194.8899 188,-219 191.8927,-221.1584 196.0667,-223.1131 200.3318,-224.874"/>
<polygon fill="#191970" stroke="#191970" points="199.1487,-228.1684 209.7405,-228.4229 201.6192,-221.6188 199.1487,-228.1684"/>
</g>
<!-- Node1577 -->
<g id="node3" class="node">
<title>Node1577</title>
<g id="a_node3"><a xlink:href="gnutls_8c.html#a8239964b8dfceb6044efcd2e7d782460" target="_top" xlink:title="Create a fingerprint of a TLS Certificate. ">
<polygon fill="#ffffff" stroke="#ff0000" points="205.5,-190.5 205.5,-209.5 289.5,-209.5 289.5,-190.5 205.5,-190.5"/>
<text text-anchor="middle" x="247.5" y="-197.5" font-family="Helvetica,sans-Serif" font-size="10.00" fill="#000000">tls_fingerprint</text>
</a>
</g>
</g>
<!-- Node1554&#45;&gt;Node1577 -->
<g id="edge2" class="edge">
<title>Node1554&#45;&gt;Node1577</title>
<path fill="none" stroke="#191970" d="M92.676,-133.5653C114.2139,-145.6657 153.0886,-166.6524 188,-181 193.3973,-183.2181 199.1546,-185.3433 204.882,-187.3165"/>
<polygon fill="#191970" stroke="#191970" points="203.8305,-190.6552 214.4239,-190.4835 206.0356,-184.0116 203.8305,-190.6552"/>
</g>
<!-- Node1579 -->
<g id="node4" class="node">
<title>Node1579</title>
<g id="a_node4"><a xlink:href="file_8c.html#a81b7082d89a1fc17d74b7495648ea06e" target="_top" xlink:title="Read a line from a file. ">
<polygon fill="#ffffff" stroke="#ff0000" points="192.5,-152.5 192.5,-171.5 302.5,-171.5 302.5,-152.5 192.5,-152.5"/>
<text text-anchor="middle" x="247.5" y="-159.5" font-family="Helvetica,sans-Serif" font-size="10.00" fill="#000000">mutt_file_read_line</text>
</a>
</g>
</g>
<!-- Node1554&#45;&gt;Node1579 -->
<g id="edge3" class="edge">
<title>Node1554&#45;&gt;Node1579</title>
<path fill="none" stroke="#191970" d="M119.2767,-133.589C142.1119,-138.6487 170.3232,-144.8996 194.4648,-150.2488"/>
<polygon fill="#191970" stroke="#191970" points="194.0141,-153.7337 204.5345,-152.4799 195.5285,-146.8995 194.0141,-153.7337"/>
</g>
<!-- Node1581 -->
<g id="node5" class="node">
<title>Node1581</title>
<g id="a_node5"><a xlink:href="prex_8c.html#a6d37a39ea94554b5ba057b72744384a4" target="_top" xlink:title="match a precompiled regex against a string ">
<polygon fill="#ffffff" stroke="#ff0000" points="193,-114.5 193,-133.5 302,-133.5 302,-114.5 193,-114.5"/>
<text text-anchor="middle" x="247.5" y="-121.5" font-family="Helvetica,sans-Serif" font-size="10.00" fill="#000000">mutt_prex_capture</text>
</a>
</g>
</g>
<!-- Node1554&#45;&gt;Node1581 -->
<g id="edge4" class="edge">
<title>Node1554&#45;&gt;Node1581</title>
<path fill="none" stroke="#191970" d="M152.2211,-124C162.3797,-124 172.7189,-124 182.6589,-124"/>
<polygon fill="#191970" stroke="#191970" points="182.8487,-127.5001 192.8487,-124 182.8486,-120.5001 182.8487,-127.5001"/>
</g>
<!-- Node1583 -->
<g id="node6" class="node">
<title>Node1583</title>
<g id="a_node6"><a xlink:href="mutt_2regex3_8h.html#a8c0336091c762c8206a756a3aa8753a3" target="_top" xlink:title="Return the end of a match. ">
<polygon fill="#ffffff" stroke="#000000" points="190,-76.5 190,-95.5 305,-95.5 305,-76.5 190,-76.5"/>
<text text-anchor="middle" x="247.5" y="-83.5" font-family="Helvetica,sans-Serif" font-size="10.00" fill="#000000">mutt_regmatch_end</text>
</a>
</g>
</g>
<!-- Node1554&#45;&gt;Node1583 -->
<g id="edge5" class="edge">
<title>Node1554&#45;&gt;Node1583</title>
<path fill="none" stroke="#191970" d="M119.2767,-114.411C142.1119,-109.3513 170.3232,-103.1004 194.4648,-97.7512"/>
<polygon fill="#191970" stroke="#191970" points="195.5285,-101.1005 204.5345,-95.5201 194.0141,-94.2663 195.5285,-101.1005"/>
</g>
<!-- Node1584 -->
<g id="node7" class="node">
<title>Node1584</title>
<g id="a_node7"><a xlink:href="mutt_2regex3_8h.html#ace9a8836dfa6c039cb619573c60e253f" target="_top" xlink:title="Return the start of a match. ">
<polygon fill="#ffffff" stroke="#000000" points="188,-38.5 188,-57.5 307,-57.5 307,-38.5 188,-38.5"/>
<text text-anchor="middle" x="247.5" y="-45.5" font-family="Helvetica,sans-Serif" font-size="10.00" fill="#000000">mutt_regmatch_start</text>
</a>
</g>
</g>
<!-- Node1554&#45;&gt;Node1584 -->
<g id="edge6" class="edge">
<title>Node1554&#45;&gt;Node1584</title>
<path fill="none" stroke="#191970" d="M92.676,-114.4347C114.2139,-102.3343 153.0886,-81.3476 188,-67 193.3973,-64.7819 199.1546,-62.6567 204.882,-60.6835"/>
<polygon fill="#191970" stroke="#191970" points="206.0356,-63.9884 214.4239,-57.5165 203.8305,-57.3448 206.0356,-63.9884"/>
</g>
<!-- Node1585 -->
<g id="node8" class="node">
<title>Node1585</title>
<g id="a_node8"><a xlink:href="file_8c.html#a31f49795ff5b9558db5476e5777e63b6" target="_top" xlink:title="Close a FILE handle (and NULL the pointer) ">
<polygon fill="#ffffff" stroke="#000000" points="200,-.5 200,-19.5 295,-19.5 295,-.5 200,-.5"/>
<text text-anchor="middle" x="247.5" y="-7.5" font-family="Helvetica,sans-Serif" font-size="10.00" fill="#000000">mutt_file_fclose</text>
</a>
</g>
</g>
<!-- Node1554&#45;&gt;Node1585 -->
<g id="edge7" class="edge">
<title>Node1554&#45;&gt;Node1585</title>
<path fill="none" stroke="#191970" d="M84.6403,-114.4956C102.2937,-95.6105 144.5174,-53.1101 188,-29 191.8927,-26.8416 196.0667,-24.8869 200.3318,-23.126"/>
<polygon fill="#191970" stroke="#191970" points="201.6192,-26.3812 209.7405,-19.5771 199.1487,-19.8316 201.6192,-26.3812"/>
</g>
</g>
</svg>
