<?xml version="1.0" encoding="UTF-8" standalone="no"?>
<!DOCTYPE svg PUBLIC "-//W3C//DTD SVG 1.1//EN"
 "http://www.w3.org/Graphics/SVG/1.1/DTD/svg11.dtd">
<!-- Generated by graphviz version 12.2.1 (20241206.2353)
 -->
<!-- Title: tls_negotiate Pages: 1 -->
<svg width="367pt" height="308pt"
 viewBox="0.00 0.00 366.50 308.07" xmlns="http://www.w3.org/2000/svg" xmlns:xlink="http://www.w3.org/1999/xlink">
<g id="graph0" class="graph" transform="scale(1 1) rotate(0) translate(4 304.07)">
<title>tls_negotiate</title>
<!-- Node1 -->
<g id="Node000001" class="node">
<title>Node1</title>
<g id="a_Node000001"><a xlink:title="Negotiate TLS connection.">
<polygon fill="#999999" stroke="#666666" points="76,-176.38 0,-176.38 0,-154.12 76,-154.12 76,-176.38"/>
<text text-anchor="middle" x="38" y="-162.88" font-family="Helvetica,sans-Serif" font-size="10.00">tls_negotiate</text>
</a>
</g>
</g>
<!-- Node2 -->
<g id="Node000002" class="node">
<title>Node2</title>
<g id="a_Node000002"><a xlink:href="config_2helpers_8c.html#a96039a9f8d37daad993ae7b490510339" target="_top" xlink:title="Get a number config item by name.">
<polygon fill="#fff0f0" stroke="red" points="358.5,-236.38 256.25,-236.38 256.25,-214.12 358.5,-214.12 358.5,-236.38"/>
<text text-anchor="middle" x="307.38" y="-222.88" font-family="Helvetica,sans-Serif" font-size="10.00">cs_subset_number</text>
</a>
</g>
</g>
<!-- Node1&#45;&gt;Node2 -->
<g id="edge1_Node000001_Node000002" class="edge">
<title>Node1&#45;&gt;Node2</title>
<g id="a_edge1_Node000001_Node000002"><a xlink:title=" ">
<path fill="none" stroke="#63b8ff" d="M41.85,-176.53C48.84,-201.55 69.49,-261.35 112,-285.25 153.94,-308.83 174.35,-299.66 220.25,-285.25 245.77,-277.24 270.35,-258.68 286.67,-244.31"/>
<polygon fill="#63b8ff" stroke="#63b8ff" points="288.7,-247.2 293.72,-237.87 283.98,-242.03 288.7,-247.2"/>
</a>
</g>
</g>
<!-- Node23 -->
<g id="Node000023" class="node">
<title>Node23</title>
<g id="a_Node000023"><a xlink:href="config_2helpers_8c.html#a9f184e61342916799259930333f4205f" target="_top" xlink:title="Get a path config item by name.">
<polygon fill="#fff0f0" stroke="red" points="209,-276.38 123.25,-276.38 123.25,-254.12 209,-254.12 209,-276.38"/>
<text text-anchor="middle" x="166.12" y="-262.88" font-family="Helvetica,sans-Serif" font-size="10.00">cs_subset_path</text>
</a>
</g>
</g>
<!-- Node1&#45;&gt;Node23 -->
<g id="edge2_Node000001_Node000023" class="edge">
<title>Node1&#45;&gt;Node23</title>
<g id="a_edge2_Node000001_Node000023"><a xlink:title=" ">
<path fill="none" stroke="#63b8ff" d="M46.67,-176.63C58.73,-193.72 83.67,-226.05 112,-245.25 113.8,-246.47 115.69,-247.63 117.64,-248.74"/>
<polygon fill="#63b8ff" stroke="#63b8ff" points="115.85,-251.75 126.36,-253.07 118.96,-245.48 115.85,-251.75"/>
</a>
</g>
</g>
<!-- Node24 -->
<g id="Node000024" class="node">
<title>Node24</title>
<g id="a_Node000024"><a xlink:href="muttlib_8c.html#a6fbcbe533be7c4e05d99b0eb9cdb2581" target="_top" xlink:title="Sleep for a while.">
<polygon fill="white" stroke="#666666" points="200,-236.38 132.25,-236.38 132.25,-214.12 200,-214.12 200,-236.38"/>
<text text-anchor="middle" x="166.12" y="-222.88" font-family="Helvetica,sans-Serif" font-size="10.00">mutt_sleep</text>
</a>
</g>
</g>
<!-- Node1&#45;&gt;Node24 -->
<g id="edge3_Node000001_Node000024" class="edge">
<title>Node1&#45;&gt;Node24</title>
<g id="a_edge3_Node000001_Node000024"><a xlink:title=" ">
<path fill="none" stroke="#63b8ff" d="M58.14,-176.71C72.64,-185.15 93.22,-196.62 112,-205.25 115.12,-206.68 118.38,-208.1 121.68,-209.47"/>
<polygon fill="#63b8ff" stroke="#63b8ff" points="120.25,-212.67 130.83,-213.13 122.85,-206.17 120.25,-212.67"/>
</a>
</g>
</g>
<!-- Node25 -->
<g id="Node000025" class="node">
<title>Node25</title>
<g id="a_Node000025"><a xlink:href="mutt_2string_8c.html#acca6786b903b22a5924219f9db96e10d" target="_top" xlink:title="Calculate the length of a string, safely.">
<polygon fill="white" stroke="#666666" points="203.38,-196.38 128.88,-196.38 128.88,-174.12 203.38,-174.12 203.38,-196.38"/>
<text text-anchor="middle" x="166.12" y="-182.88" font-family="Helvetica,sans-Serif" font-size="10.00">mutt_str_len</text>
</a>
</g>
</g>
<!-- Node1&#45;&gt;Node25 -->
<g id="edge5_Node000001_Node000025" class="edge">
<title>Node1&#45;&gt;Node25</title>
<g id="a_edge5_Node000001_Node000025"><a xlink:title=" ">
<path fill="none" stroke="#63b8ff" d="M76.16,-171.14C89.1,-173.19 103.81,-175.53 117.48,-177.7"/>
<polygon fill="#63b8ff" stroke="#63b8ff" points="116.75,-181.12 127.17,-179.23 117.84,-174.21 116.75,-181.12"/>
</a>
</g>
</g>
<!-- Node26 -->
<g id="Node000026" class="node">
<title>Node26</title>
<g id="a_Node000026"><a xlink:href="gnutls_8c.html#a0b8141f6dc5a59f2080067f026b20860" target="_top" xlink:title="Check a connection&#39;s certificate.">
<polygon fill="#fff0f0" stroke="red" points="220.25,-156.38 112,-156.38 112,-134.12 220.25,-134.12 220.25,-156.38"/>
<text text-anchor="middle" x="166.12" y="-142.88" font-family="Helvetica,sans-Serif" font-size="10.00">tls_check_certificate</text>
</a>
</g>
</g>
<!-- Node1&#45;&gt;Node26 -->
<g id="edge6_Node000001_Node000026" class="edge">
<title>Node1&#45;&gt;Node26</title>
<g id="a_edge6_Node000001_Node000026"><a xlink:title=" ">
<path fill="none" stroke="#63b8ff" d="M76.16,-159.36C83.85,-158.14 92.17,-156.82 100.52,-155.49"/>
<polygon fill="#63b8ff" stroke="#63b8ff" points="101.05,-158.95 110.38,-153.93 99.96,-152.04 101.05,-158.95"/>
</a>
</g>
</g>
<!-- Node1277 -->
<g id="Node001277" class="node">
<title>Node1277</title>
<g id="a_Node001277"><a xlink:href="gnutls_8c.html#ac78a03ed1e6f606a618f474c0dd798ca" target="_top" xlink:title="Get the client certificate for a TLS connection.">
<polygon fill="white" stroke="#666666" points="215.75,-116.38 116.5,-116.38 116.5,-94.12 215.75,-94.12 215.75,-116.38"/>
<text text-anchor="middle" x="166.12" y="-102.88" font-family="Helvetica,sans-Serif" font-size="10.00">tls_get_client_cert</text>
</a>
</g>
</g>
<!-- Node1&#45;&gt;Node1277 -->
<g id="edge7_Node000001_Node001277" class="edge">
<title>Node1&#45;&gt;Node1277</title>
<g id="a_edge7_Node000001_Node001277"><a xlink:title=" ">
<path fill="none" stroke="#63b8ff" d="M58.14,-153.79C72.64,-145.35 93.22,-133.88 112,-125.25 115.12,-123.82 118.38,-122.4 121.68,-121.03"/>
<polygon fill="#63b8ff" stroke="#63b8ff" points="122.85,-124.33 130.83,-117.37 120.25,-117.83 122.85,-124.33"/>
</a>
</g>
</g>
<!-- Node1278 -->
<g id="Node001278" class="node">
<title>Node1278</title>
<g id="a_Node001278"><a xlink:href="gnutls_8c.html#af441e4ca9946761948ca442ec7cbc1a2" target="_top" xlink:title="Set the priority of various protocols.">
<polygon fill="#fff0f0" stroke="red" points="208.25,-76.38 124,-76.38 124,-54.12 208.25,-54.12 208.25,-76.38"/>
<text text-anchor="middle" x="166.12" y="-62.88" font-family="Helvetica,sans-Serif" font-size="10.00">tls_set_priority</text>
</a>
</g>
</g>
<!-- Node1&#45;&gt;Node1278 -->
<g id="edge8_Node000001_Node001278" class="edge">
<title>Node1&#45;&gt;Node1278</title>
<g id="a_edge8_Node000001_Node001278"><a xlink:title=" ">
<path fill="none" stroke="#63b8ff" d="M46.67,-153.87C58.73,-136.78 83.67,-104.45 112,-85.25 113.8,-84.03 115.69,-82.87 117.64,-81.76"/>
<polygon fill="#63b8ff" stroke="#63b8ff" points="118.96,-85.02 126.36,-77.43 115.85,-78.75 118.96,-85.02"/>
</a>
</g>
</g>
<!-- Node882 -->
<g id="Node000882" class="node">
<title>Node882</title>
<g id="a_Node000882"><a xlink:href="gnutls_8c.html#a31348fe59f2939376ca1758c8f0dc767" target="_top" xlink:title="Poll a socket with configured timeout.">
<polygon fill="#fff0f0" stroke="red" points="219.12,-36.5 113.12,-36.5 113.12,0 219.12,0 219.12,-36.5"/>
<text text-anchor="start" x="121.12" y="-23" font-family="Helvetica,sans-Serif" font-size="10.00">tls_socket_poll_with</text>
<text text-anchor="middle" x="166.12" y="-8.75" font-family="Helvetica,sans-Serif" font-size="10.00">_timeout</text>
</a>
</g>
</g>
<!-- Node1&#45;&gt;Node882 -->
<g id="edge9_Node000001_Node000882" class="edge">
<title>Node1&#45;&gt;Node882</title>
<g id="a_edge9_Node000001_Node000882"><a xlink:title=" ">
<path fill="none" stroke="#63b8ff" d="M43.37,-153.92C52.77,-130.82 76.94,-77.73 112,-45.25 112.61,-44.68 113.24,-44.13 113.88,-43.58"/>
<polygon fill="#63b8ff" stroke="#63b8ff" points="115.63,-46.63 121.56,-37.85 111.45,-41.02 115.63,-46.63"/>
</a>
</g>
</g>
<!-- Node24&#45;&gt;Node2 -->
<g id="edge4_Node000024_Node000002" class="edge">
<title>Node24&#45;&gt;Node2</title>
<g id="a_edge4_Node000024_Node000002"><a xlink:title=" ">
<path fill="none" stroke="#63b8ff" d="M200.48,-225.25C213.69,-225.25 229.31,-225.25 244.44,-225.25"/>
<polygon fill="#63b8ff" stroke="#63b8ff" points="244.36,-228.75 254.36,-225.25 244.36,-221.75 244.36,-228.75"/>
</a>
</g>
</g>
<!-- Node882&#45;&gt;Node2 -->
<g id="edge10_Node000882_Node000002" class="edge">
<title>Node882&#45;&gt;Node2</title>
<g id="a_edge10_Node000882_Node000002"><a xlink:title=" ">
<path fill="none" stroke="#63b8ff" d="M210.33,-36.97C213.91,-39.46 217.29,-42.21 220.25,-45.25 265.26,-91.35 290.33,-165.47 300.67,-202.56"/>
<polygon fill="#63b8ff" stroke="#63b8ff" points="297.27,-203.41 303.23,-212.17 304.04,-201.6 297.27,-203.41"/>
</a>
</g>
</g>
</g>
</svg>
