<?xml version="1.0" encoding="UTF-8" standalone="no"?>
<!DOCTYPE svg PUBLIC "-//W3C//DTD SVG 1.1//EN"
 "http://www.w3.org/Graphics/SVG/1.1/DTD/svg11.dtd">
<!-- Generated by graphviz version 7.1.0 (0)
 -->
<!-- Title: tls_get_client_cert Pages: 1 -->
<svg width="265pt" height="64pt"
 viewBox="0.00 0.00 265.00 64.00" xmlns="http://www.w3.org/2000/svg" xmlns:xlink="http://www.w3.org/1999/xlink">
<g id="graph0" class="graph" transform="scale(1 1) rotate(0) translate(4 60)">
<title>tls_get_client_cert</title>
<!-- Node1 -->
<g id="node1" class="node">
<title>Node1</title>
<g id="a_node1"><a xlink:title="Get the client certificate for a TLS connection.">
<polygon fill="#999999" stroke="#666666" points="100,-37 0,-37 0,-18 100,-18 100,-37"/>
<text text-anchor="middle" x="50" y="-25" font-family="Helvetica,sans-Serif" font-size="10.00">tls_get_client_cert</text>
</a>
</g>
</g>
<!-- Node2 -->
<g id="node2" class="node">
<title>Node2</title>
<g id="a_node2"><a xlink:href="connaccount_8c.html#a2e00de19727c4db19f452dde494a770a" target="_top" xlink:title="Retrieve username into ConnAccount, if necessary.">
<polygon fill="#fff0f0" stroke="red" points="257,-56 136,-56 136,-37 257,-37 257,-56"/>
<text text-anchor="middle" x="196.5" y="-44" font-family="Helvetica,sans-Serif" font-size="10.00">mutt_account_getuser</text>
</a>
</g>
</g>
<!-- Node1&#45;&gt;Node2 -->
<g id="edge1" class="edge">
<title>Node1&#45;&gt;Node2</title>
<path fill="none" stroke="#63b8ff" d="M100.32,-33.99C108.05,-35 116.16,-36.07 124.26,-37.13"/>
<polygon fill="#63b8ff" stroke="#63b8ff" points="123.78,-40.6 134.15,-38.43 124.7,-33.66 123.78,-40.6"/>
</g>
<!-- Node17 -->
<g id="node3" class="node">
<title>Node17</title>
<g id="a_node3"><a xlink:href="memory_8c.html#a39469100e5b8ae30c8f6f21e206aefe8" target="_top" xlink:title="Allocate zeroed memory on the heap.">
<polygon fill="#fff0f0" stroke="red" points="245,-19 148,-19 148,0 245,0 245,-19"/>
<text text-anchor="middle" x="196.5" y="-7" font-family="Helvetica,sans-Serif" font-size="10.00">mutt_mem_calloc</text>
</a>
</g>
</g>
<!-- Node1&#45;&gt;Node17 -->
<g id="edge2" class="edge">
<title>Node1&#45;&gt;Node17</title>
<path fill="none" stroke="#63b8ff" d="M100.32,-21.36C111.97,-19.9 124.51,-18.34 136.53,-16.85"/>
<polygon fill="#63b8ff" stroke="#63b8ff" points="136.87,-20.33 146.36,-15.62 136.01,-13.38 136.87,-20.33"/>
</g>
</g>
</svg>
