<?xml version="1.0" encoding="UTF-8" standalone="no"?>
<!DOCTYPE svg PUBLIC "-//W3C//DTD SVG 1.1//EN"
 "http://www.w3.org/Graphics/SVG/1.1/DTD/svg11.dtd">
<!-- Generated by graphviz version 12.2.1 (20241206.2353)
 -->
<!-- Title: autocrypt/gpgme.c Pages: 1 -->
<svg width="824pt" height="205pt"
 viewBox="0.00 0.00 824.38 205.00" xmlns="http://www.w3.org/2000/svg" xmlns:xlink="http://www.w3.org/1999/xlink">
<g id="graph0" class="graph" transform="scale(1 1) rotate(0) translate(4 201)">
<title>autocrypt/gpgme.c</title>
<!-- Node1 -->
<g id="Node000001" class="node">
<title>Node1</title>
<g id="a_Node000001"><a xlink:title="Autocrypt GPGME handler.">
<polygon fill="#999999" stroke="#666666" points="379.38,-197 274.12,-197 274.12,-174.75 379.38,-174.75 379.38,-197"/>
<text text-anchor="middle" x="326.75" y="-183.5" font-family="Helvetica,sans-Serif" font-size="10.00">autocrypt/gpgme.c</text>
</a>
</g>
</g>
<!-- Node2 -->
<g id="Node000002" class="node">
<title>Node2</title>
<g id="a_Node000002"><a xlink:title=" ">
<polygon fill="#e0e0e0" stroke="#999999" points="53.5,-22.25 0,-22.25 0,0 53.5,0 53.5,-22.25"/>
<text text-anchor="middle" x="26.75" y="-8.75" font-family="Helvetica,sans-Serif" font-size="10.00">config.h</text>
</a>
</g>
</g>
<!-- Node1&#45;&gt;Node2 -->
<g id="edge1_Node000001_Node000002" class="edge">
<title>Node1&#45;&gt;Node2</title>
<g id="a_edge1_Node000001_Node000002"><a xlink:title=" ">
<path fill="none" stroke="#63b8ff" d="M273.76,-181.92C202.39,-176.99 80.23,-164.92 44.75,-138.75 14.15,-116.18 11.31,-96.02 15.75,-58.25 16.71,-50.09 18.59,-41.29 20.53,-33.58"/>
<polygon fill="#63b8ff" stroke="#63b8ff" points="23.87,-34.65 23.11,-24.08 17.11,-32.82 23.87,-34.65"/>
</a>
</g>
</g>
<!-- Node3 -->
<g id="Node000003" class="node">
<title>Node3</title>
<g id="a_Node000003"><a xlink:title=" ">
<polygon fill="#e0e0e0" stroke="#999999" points="423,-138.75 354.5,-138.75 354.5,-116.5 423,-116.5 423,-138.75"/>
<text text-anchor="middle" x="388.75" y="-125.25" font-family="Helvetica,sans-Serif" font-size="10.00">gpg&#45;error.h</text>
</a>
</g>
</g>
<!-- Node1&#45;&gt;Node3 -->
<g id="edge2_Node000001_Node000003" class="edge">
<title>Node1&#45;&gt;Node3</title>
<g id="a_edge2_Node000001_Node000003"><a xlink:title=" ">
<path fill="none" stroke="#63b8ff" d="M338.41,-174.29C346.98,-166.52 358.84,-155.76 368.9,-146.64"/>
<polygon fill="#63b8ff" stroke="#63b8ff" points="370.97,-149.49 376.02,-140.17 366.26,-144.3 370.97,-149.49"/>
</a>
</g>
</g>
<!-- Node4 -->
<g id="Node000004" class="node">
<title>Node4</title>
<g id="a_Node000004"><a xlink:title=" ">
<polygon fill="#e0e0e0" stroke="#999999" points="498.75,-138.75 440.75,-138.75 440.75,-116.5 498.75,-116.5 498.75,-138.75"/>
<text text-anchor="middle" x="469.75" y="-125.25" font-family="Helvetica,sans-Serif" font-size="10.00">gpgme.h</text>
</a>
</g>
</g>
<!-- Node1&#45;&gt;Node4 -->
<g id="edge3_Node000001_Node000004" class="edge">
<title>Node1&#45;&gt;Node4</title>
<g id="a_edge3_Node000001_Node000004"><a xlink:title=" ">
<path fill="none" stroke="#63b8ff" d="M353.65,-174.29C375.92,-165.53 407.8,-152.99 432.52,-143.27"/>
<polygon fill="#63b8ff" stroke="#63b8ff" points="433.54,-146.63 441.56,-139.71 430.98,-140.12 433.54,-146.63"/>
</a>
</g>
</g>
<!-- Node5 -->
<g id="Node000005" class="node">
<title>Node5</title>
<g id="a_Node000005"><a xlink:title=" ">
<polygon fill="#e0e0e0" stroke="#999999" points="213.5,-22.25 154,-22.25 154,0 213.5,0 213.5,-22.25"/>
<text text-anchor="middle" x="183.75" y="-8.75" font-family="Helvetica,sans-Serif" font-size="10.00">stdbool.h</text>
</a>
</g>
</g>
<!-- Node1&#45;&gt;Node5 -->
<g id="edge4_Node000001_Node000005" class="edge">
<title>Node1&#45;&gt;Node5</title>
<g id="a_edge4_Node000001_Node000005"><a xlink:title=" ">
<path fill="none" stroke="#63b8ff" d="M273.72,-175.31C248.86,-168.57 220.27,-157.32 199.75,-138.75 171.66,-113.33 166.94,-95.82 171.75,-58.25 172.8,-50.06 174.85,-41.25 176.97,-33.55"/>
<polygon fill="#63b8ff" stroke="#63b8ff" points="180.3,-34.63 179.78,-24.05 173.58,-32.65 180.3,-34.63"/>
</a>
</g>
</g>
<!-- Node6 -->
<g id="Node000006" class="node">
<title>Node6</title>
<g id="a_Node000006"><a xlink:title=" ">
<polygon fill="#e0e0e0" stroke="#999999" points="570.88,-138.75 516.62,-138.75 516.62,-116.5 570.88,-116.5 570.88,-138.75"/>
<text text-anchor="middle" x="543.75" y="-125.25" font-family="Helvetica,sans-Serif" font-size="10.00">stddef.h</text>
</a>
</g>
</g>
<!-- Node1&#45;&gt;Node6 -->
<g id="edge5_Node000001_Node000006" class="edge">
<title>Node1&#45;&gt;Node6</title>
<g id="a_edge5_Node000001_Node000006"><a xlink:title=" ">
<path fill="none" stroke="#63b8ff" d="M369.62,-174.27C403.9,-165.71 453.48,-153.19 505.19,-139.4"/>
<polygon fill="#63b8ff" stroke="#63b8ff" points="506.03,-142.79 514.79,-136.83 504.22,-136.03 506.03,-142.79"/>
</a>
</g>
</g>
<!-- Node7 -->
<g id="Node000007" class="node">
<title>Node7</title>
<g id="a_Node000007"><a xlink:href="autocrypt_2private_8h.html" target="_top" xlink:title="Shared constants/structs that are private to Autocrypt.">
<polygon fill="#fff0f0" stroke="red" points="124.75,-138.75 66.75,-138.75 66.75,-116.5 124.75,-116.5 124.75,-138.75"/>
<text text-anchor="middle" x="95.75" y="-125.25" font-family="Helvetica,sans-Serif" font-size="10.00">private.h</text>
</a>
</g>
</g>
<!-- Node1&#45;&gt;Node7 -->
<g id="edge6_Node000001_Node000007" class="edge">
<title>Node1&#45;&gt;Node7</title>
<g id="a_edge6_Node000001_Node000007"><a xlink:title=" ">
<path fill="none" stroke="#63b8ff" d="M283.3,-174.29C241.01,-164 177.27,-148.47 136.07,-138.44"/>
<polygon fill="#63b8ff" stroke="#63b8ff" points="137.11,-135.09 126.56,-136.13 135.45,-141.89 137.11,-135.09"/>
</a>
</g>
</g>
<!-- Node9 -->
<g id="Node000009" class="node">
<title>Node9</title>
<g id="a_Node000009"><a xlink:href="mutt_2lib_8h.html" target="_top" xlink:title="Convenience wrapper for the library headers.">
<polygon fill="#fff0f0" stroke="red" points="86.62,-80.5 24.88,-80.5 24.88,-58.25 86.62,-58.25 86.62,-80.5"/>
<text text-anchor="middle" x="55.75" y="-67" font-family="Helvetica,sans-Serif" font-size="10.00">mutt/lib.h</text>
</a>
</g>
</g>
<!-- Node1&#45;&gt;Node9 -->
<g id="edge10_Node000001_Node000009" class="edge">
<title>Node1&#45;&gt;Node9</title>
<g id="a_edge10_Node000001_Node000009"><a xlink:title=" ">
<path fill="none" stroke="#63b8ff" d="M273.86,-183.47C203.65,-180.37 85.28,-170.46 57.75,-138.75 46.8,-126.14 47.28,-106.75 49.93,-91.84"/>
<polygon fill="#63b8ff" stroke="#63b8ff" points="53.34,-92.61 52.13,-82.08 46.52,-91.07 53.34,-92.61"/>
</a>
</g>
</g>
<!-- Node58 -->
<g id="Node000058" class="node">
<title>Node58</title>
<g id="a_Node000058"><a xlink:href="address_2lib_8h.html" target="_top" xlink:title="Email Address Handling.">
<polygon fill="#fff0f0" stroke="red" points="664.38,-138.75 589.12,-138.75 589.12,-116.5 664.38,-116.5 664.38,-138.75"/>
<text text-anchor="middle" x="626.75" y="-125.25" font-family="Helvetica,sans-Serif" font-size="10.00">address/lib.h</text>
</a>
</g>
</g>
<!-- Node1&#45;&gt;Node58 -->
<g id="edge11_Node000001_Node000058" class="edge">
<title>Node1&#45;&gt;Node58</title>
<g id="a_edge11_Node000001_Node000058"><a xlink:title=" ">
<path fill="none" stroke="#63b8ff" d="M379.66,-175.73C428.51,-167.18 503.36,-153.79 577.83,-139.09"/>
<polygon fill="#63b8ff" stroke="#63b8ff" points="578.19,-142.58 587.32,-137.2 576.83,-135.72 578.19,-142.58"/>
</a>
</g>
</g>
<!-- Node63 -->
<g id="Node000063" class="node">
<title>Node63</title>
<g id="a_Node000063"><a xlink:href="config_2lib_8h.html" target="_top" xlink:title="Convenience wrapper for the config headers.">
<polygon fill="#fff0f0" stroke="red" points="248.62,-80.5 180.88,-80.5 180.88,-58.25 248.62,-58.25 248.62,-80.5"/>
<text text-anchor="middle" x="214.75" y="-67" font-family="Helvetica,sans-Serif" font-size="10.00">config/lib.h</text>
</a>
</g>
</g>
<!-- Node1&#45;&gt;Node63 -->
<g id="edge12_Node000001_Node000063" class="edge">
<title>Node1&#45;&gt;Node63</title>
<g id="a_edge12_Node000001_Node000063"><a xlink:title=" ">
<path fill="none" stroke="#63b8ff" d="M273.74,-177.6C250.02,-171.41 224.19,-159.96 209.75,-138.75 200.44,-125.07 202.72,-106.07 206.74,-91.58"/>
<polygon fill="#63b8ff" stroke="#63b8ff" points="210.06,-92.7 209.85,-82.11 203.41,-90.52 210.06,-92.7"/>
</a>
</g>
</g>
<!-- Node78 -->
<g id="Node000078" class="node">
<title>Node78</title>
<g id="a_Node000078"><a xlink:href="core_2lib_8h.html" target="_top" xlink:title="Convenience wrapper for the core headers.">
<polygon fill="#fff0f0" stroke="red" points="741.5,-138.75 682,-138.75 682,-116.5 741.5,-116.5 741.5,-138.75"/>
<text text-anchor="middle" x="711.75" y="-125.25" font-family="Helvetica,sans-Serif" font-size="10.00">core/lib.h</text>
</a>
</g>
</g>
<!-- Node1&#45;&gt;Node78 -->
<g id="edge14_Node000001_Node000078" class="edge">
<title>Node1&#45;&gt;Node78</title>
<g id="a_edge14_Node000001_Node000078"><a xlink:title=" ">
<path fill="none" stroke="#63b8ff" d="M379.71,-179.97C445.79,-173.38 562.41,-160.2 670.45,-139.23"/>
<polygon fill="#63b8ff" stroke="#63b8ff" points="670.93,-142.71 680.06,-137.34 669.58,-135.84 670.93,-142.71"/>
</a>
</g>
</g>
<!-- Node88 -->
<g id="Node000088" class="node">
<title>Node88</title>
<g id="a_Node000088"><a xlink:href="ncrypt_2lib_8h.html" target="_top" xlink:title="API for encryption/signing of emails.">
<polygon fill="#fff0f0" stroke="red" points="348.38,-80.5 279.12,-80.5 279.12,-58.25 348.38,-58.25 348.38,-80.5"/>
<text text-anchor="middle" x="313.75" y="-67" font-family="Helvetica,sans-Serif" font-size="10.00">ncrypt/lib.h</text>
</a>
</g>
</g>
<!-- Node1&#45;&gt;Node88 -->
<g id="edge15_Node000001_Node000088" class="edge">
<title>Node1&#45;&gt;Node88</title>
<g id="a_edge15_Node000001_Node000088"><a xlink:title=" ">
<path fill="none" stroke="#63b8ff" d="M325.55,-174.31C323.44,-155.73 319.03,-116.87 316.24,-92.29"/>
<polygon fill="#63b8ff" stroke="#63b8ff" points="319.72,-91.96 315.12,-82.42 312.77,-92.75 319.72,-91.96"/>
</a>
</g>
</g>
<!-- Node89 -->
<g id="Node000089" class="node">
<title>Node89</title>
<g id="a_Node000089"><a xlink:href="question_2lib_8h.html" target="_top" xlink:title="Ask the user a question.">
<polygon fill="white" stroke="#666666" points="298.62,-138.75 218.88,-138.75 218.88,-116.5 298.62,-116.5 298.62,-138.75"/>
<text text-anchor="middle" x="258.75" y="-125.25" font-family="Helvetica,sans-Serif" font-size="10.00">question/lib.h</text>
</a>
</g>
</g>
<!-- Node1&#45;&gt;Node89 -->
<g id="edge17_Node000001_Node000089" class="edge">
<title>Node1&#45;&gt;Node89</title>
<g id="a_edge17_Node000001_Node000089"><a xlink:title=" ">
<path fill="none" stroke="#63b8ff" d="M313.96,-174.29C304.46,-166.44 291.29,-155.54 280.19,-146.36"/>
<polygon fill="#63b8ff" stroke="#63b8ff" points="282.59,-143.8 272.65,-140.12 278.12,-149.19 282.59,-143.8"/>
</a>
</g>
</g>
<!-- Node90 -->
<g id="Node000090" class="node">
<title>Node90</title>
<g id="a_Node000090"><a xlink:title=" ">
<polygon fill="#e0e0e0" stroke="#999999" points="816.38,-138.75 759.12,-138.75 759.12,-116.5 816.38,-116.5 816.38,-138.75"/>
<text text-anchor="middle" x="787.75" y="-125.25" font-family="Helvetica,sans-Serif" font-size="10.00">globals.h</text>
</a>
</g>
</g>
<!-- Node1&#45;&gt;Node90 -->
<g id="edge19_Node000001_Node000090" class="edge">
<title>Node1&#45;&gt;Node90</title>
<g id="a_edge19_Node000001_Node000090"><a xlink:title=" ">
<path fill="none" stroke="#63b8ff" d="M379.7,-181.82C458.21,-176.71 610.25,-164.53 747.64,-139.12"/>
<polygon fill="#63b8ff" stroke="#63b8ff" points="748.1,-142.59 757.28,-137.3 746.8,-135.71 748.1,-142.59"/>
</a>
</g>
</g>
<!-- Node7&#45;&gt;Node5 -->
<g id="edge7_Node000007_Node000005" class="edge">
<title>Node7&#45;&gt;Node5</title>
<g id="a_edge7_Node000007_Node000005"><a xlink:title=" ">
<path fill="none" stroke="#63b8ff" d="M101.25,-116.45C108.88,-102.69 123.48,-77.64 138.75,-58.25 146.46,-48.47 155.97,-38.47 164.26,-30.29"/>
<polygon fill="#63b8ff" stroke="#63b8ff" points="166.47,-33.03 171.24,-23.57 161.61,-27.99 166.47,-33.03"/>
</a>
</g>
</g>
<!-- Node7&#45;&gt;Node9 -->
<g id="edge8_Node000007_Node000009" class="edge">
<title>Node7&#45;&gt;Node9</title>
<g id="a_edge8_Node000007_Node000009"><a xlink:title=" ">
<path fill="none" stroke="#63b8ff" d="M88.23,-116.04C83.03,-108.74 75.96,-98.8 69.75,-90.06"/>
<polygon fill="#63b8ff" stroke="#63b8ff" points="72.76,-88.26 64.12,-82.14 67.06,-92.32 72.76,-88.26"/>
</a>
</g>
</g>
<!-- Node9&#45;&gt;Node2 -->
<g id="edge9_Node000009_Node000002" class="edge">
<title>Node9&#45;&gt;Node2</title>
<g id="a_edge9_Node000009_Node000002"><a xlink:title=" ">
<path fill="none" stroke="#63b8ff" d="M50.3,-57.79C46.65,-50.72 41.73,-41.19 37.34,-32.66"/>
<polygon fill="#63b8ff" stroke="#63b8ff" points="40.57,-31.29 32.87,-24 34.35,-34.5 40.57,-31.29"/>
</a>
</g>
</g>
<!-- Node63&#45;&gt;Node5 -->
<g id="edge13_Node000063_Node000005" class="edge">
<title>Node63&#45;&gt;Node5</title>
<g id="a_edge13_Node000063_Node000005"><a xlink:title=" ">
<path fill="none" stroke="#63b8ff" d="M208.92,-57.79C205.02,-50.72 199.77,-41.19 195.07,-32.66"/>
<polygon fill="#63b8ff" stroke="#63b8ff" points="198.18,-31.05 190.29,-23.98 192.05,-34.43 198.18,-31.05"/>
</a>
</g>
</g>
<!-- Node88&#45;&gt;Node5 -->
<g id="edge16_Node000088_Node000005" class="edge">
<title>Node88&#45;&gt;Node5</title>
<g id="a_edge16_Node000088_Node000005"><a xlink:title=" ">
<path fill="none" stroke="#63b8ff" d="M289.3,-57.79C269.32,-49.15 240.85,-36.83 218.5,-27.16"/>
<polygon fill="#63b8ff" stroke="#63b8ff" points="220.05,-24.02 209.48,-23.26 217.27,-30.44 220.05,-24.02"/>
</a>
</g>
</g>
<!-- Node89&#45;&gt;Node63 -->
<g id="edge18_Node000089_Node000063" class="edge">
<title>Node89&#45;&gt;Node63</title>
<g id="a_edge18_Node000089_Node000063"><a xlink:title=" ">
<path fill="none" stroke="#63b8ff" d="M250.47,-116.04C244.7,-108.66 236.82,-98.59 229.93,-89.78"/>
<polygon fill="#63b8ff" stroke="#63b8ff" points="232.84,-87.82 223.92,-82.1 227.33,-92.13 232.84,-87.82"/>
</a>
</g>
</g>
</g>
</svg>
