<?xml version="1.0" encoding="UTF-8" standalone="no"?>
<!DOCTYPE svg PUBLIC "-//W3C//DTD SVG 1.1//EN"
 "http://www.w3.org/Graphics/SVG/1.1/DTD/svg11.dtd">
<!-- Generated by graphviz version 7.1.0 (0)
 -->
<!-- Title: verify_key Pages: 1 -->
<svg width="361pt" height="317pt"
 viewBox="0.00 0.00 361.00 317.00" xmlns="http://www.w3.org/2000/svg" xmlns:xlink="http://www.w3.org/1999/xlink">
<g id="graph0" class="graph" transform="scale(1 1) rotate(0) translate(4 313)">
<title>verify_key</title>
<!-- Node1 -->
<g id="node1" class="node">
<title>Node1</title>
<g id="a_node1"><a xlink:title="Show detailed information about the selected key.">
<polygon fill="#999999" stroke="#666666" points="64,-167 0,-167 0,-148 64,-148 64,-167"/>
<text text-anchor="middle" x="32" y="-155" font-family="Helvetica,sans-Serif" font-size="10.00">verify_key</text>
</a>
</g>
</g>
<!-- Node2 -->
<g id="node2" class="node">
<title>Node2</title>
<g id="a_node2"><a xlink:href="pool_8c.html#a41cba27c25d33cb6822789a2856093f2" target="_top" xlink:title="Get a Buffer from the pool.">
<polygon fill="#fff0f0" stroke="red" points="344,-309 267,-309 267,-290 344,-290 344,-309"/>
<text text-anchor="middle" x="305.5" y="-297" font-family="Helvetica,sans-Serif" font-size="10.00">buf_pool_get</text>
</a>
</g>
</g>
<!-- Node1&#45;&gt;Node2 -->
<g id="edge1" class="edge">
<title>Node1&#45;&gt;Node2</title>
<path fill="none" stroke="#63b8ff" d="M35.43,-167.43C41.67,-190.62 60.61,-248.34 100,-274.5 146.09,-305.11 211.14,-307.85 255.41,-305.23"/>
<polygon fill="#63b8ff" stroke="#63b8ff" points="255.52,-308.74 265.25,-304.53 255.02,-301.75 255.52,-308.74"/>
</g>
<!-- Node10 -->
<g id="node3" class="node">
<title>Node10</title>
<g id="a_node3"><a xlink:href="pool_8c.html#a4cc6068279461cb8628219586dfa35a1" target="_top" xlink:title="Return a Buffer to the pool.">
<polygon fill="#fff0f0" stroke="red" points="353,-253 258,-253 258,-234 353,-234 353,-253"/>
<text text-anchor="middle" x="305.5" y="-241" font-family="Helvetica,sans-Serif" font-size="10.00">buf_pool_release</text>
</a>
</g>
</g>
<!-- Node1&#45;&gt;Node10 -->
<g id="edge2" class="edge">
<title>Node1&#45;&gt;Node10</title>
<path fill="none" stroke="#63b8ff" d="M36.41,-167.4C44.05,-187.81 64.7,-234.2 100,-252.5 151.84,-279.38 221.38,-268.04 264.55,-256.48"/>
<polygon fill="#63b8ff" stroke="#63b8ff" points="265.32,-259.9 274,-253.81 263.42,-253.16 265.32,-259.9"/>
</g>
<!-- Node15 -->
<g id="node4" class="node">
<title>Node15</title>
<g id="a_node4"><a xlink:href="buffer_8h.html#a728ebc5a947b77c8d56db44ce553a7ab" target="_top" xlink:title="Convert a buffer to a const char * &quot;string&quot;.">
<polygon fill="white" stroke="#666666" points="337.5,-216 273.5,-216 273.5,-197 337.5,-197 337.5,-216"/>
<text text-anchor="middle" x="305.5" y="-204" font-family="Helvetica,sans-Serif" font-size="10.00">buf_string</text>
</a>
</g>
</g>
<!-- Node1&#45;&gt;Node15 -->
<g id="edge3" class="edge">
<title>Node1&#45;&gt;Node15</title>
<path fill="none" stroke="#63b8ff" d="M64.18,-166.66C75.41,-169.74 88.21,-173.03 100,-175.5 155.46,-187.12 220.25,-196.19 261.79,-201.44"/>
<polygon fill="#63b8ff" stroke="#63b8ff" points="261.27,-204.9 271.62,-202.67 262.13,-197.96 261.27,-204.9"/>
</g>
<!-- Node16 -->
<g id="node5" class="node">
<title>Node16</title>
<g id="a_node5"><a xlink:href="gpgme_8c.html#aa667cdd7c0982ff566f8e521849e2341" target="_top" xlink:title="Create a GPGME context.">
<polygon fill="#fff0f0" stroke="red" points="222,-167 100,-167 100,-148 222,-148 222,-167"/>
<text text-anchor="middle" x="161" y="-155" font-family="Helvetica,sans-Serif" font-size="10.00">create_gpgme_context</text>
</a>
</g>
</g>
<!-- Node1&#45;&gt;Node16 -->
<g id="edge4" class="edge">
<title>Node1&#45;&gt;Node16</title>
<path fill="none" stroke="#63b8ff" d="M64.39,-157.5C71.77,-157.5 79.92,-157.5 88.27,-157.5"/>
<polygon fill="#63b8ff" stroke="#63b8ff" points="88.21,-161 98.21,-157.5 88.21,-154 88.21,-161"/>
</g>
<!-- Node34 -->
<g id="node6" class="node">
<title>Node34</title>
<g id="a_node6"><a xlink:href="crypt__gpgme_8c.html#abc67bef5541f788bbc5f87f502514eed" target="_top" xlink:title="Find the ID for the key.">
<polygon fill="#fff0f0" stroke="red" points="195.5,-130 126.5,-130 126.5,-111 195.5,-111 195.5,-130"/>
<text text-anchor="middle" x="161" y="-118" font-family="Helvetica,sans-Serif" font-size="10.00">crypt_keyid</text>
</a>
</g>
</g>
<!-- Node1&#45;&gt;Node34 -->
<g id="edge5" class="edge">
<title>Node1&#45;&gt;Node34</title>
<path fill="none" stroke="#63b8ff" d="M64.39,-148.35C79.82,-143.86 98.67,-138.37 115.55,-133.45"/>
<polygon fill="#63b8ff" stroke="#63b8ff" points="116.22,-136.9 124.85,-130.74 114.27,-130.18 116.22,-136.9"/>
</g>
<!-- Node36 -->
<g id="node7" class="node">
<title>Node36</title>
<g id="a_node7"><a xlink:href="mutt__logging_8c.html#af068b3f524a31fad293b2fb61dfc4534" target="_top" xlink:title="Clear the message line (bottom line of screen)">
<polygon fill="#fff0f0" stroke="red" points="208.5,-93 113.5,-93 113.5,-74 208.5,-74 208.5,-93"/>
<text text-anchor="middle" x="161" y="-81" font-family="Helvetica,sans-Serif" font-size="10.00">mutt_clear_error</text>
</a>
</g>
</g>
<!-- Node1&#45;&gt;Node36 -->
<g id="edge6" class="edge">
<title>Node1&#45;&gt;Node36</title>
<path fill="none" stroke="#63b8ff" d="M42.07,-147.79C54.17,-135.38 76.77,-114 100,-101.5 102.65,-100.08 105.42,-98.75 108.27,-97.51"/>
<polygon fill="#63b8ff" stroke="#63b8ff" points="109.29,-100.87 117.35,-93.99 106.76,-94.34 109.29,-100.87"/>
</g>
<!-- Node80 -->
<g id="node8" class="node">
<title>Node80</title>
<g id="a_node8"><a xlink:href="do__pager_8c.html#a9d3af21b7fdf24249c261a9a1aa9f3be" target="_top" xlink:title="Display some page&#45;able text to the user (help or attachment)">
<polygon fill="#fff0f0" stroke="red" points="205,-243 117,-243 117,-224 205,-224 205,-243"/>
<text text-anchor="middle" x="161" y="-231" font-family="Helvetica,sans-Serif" font-size="10.00">mutt_do_pager</text>
</a>
</g>
</g>
<!-- Node1&#45;&gt;Node80 -->
<g id="edge7" class="edge">
<title>Node1&#45;&gt;Node80</title>
<path fill="none" stroke="#63b8ff" d="M43.7,-167.35C56.39,-178.65 78.54,-197.2 100,-209.5 106.26,-213.09 113.16,-216.39 119.99,-219.32"/>
<polygon fill="#63b8ff" stroke="#63b8ff" points="118.56,-222.52 129.15,-223.03 121.2,-216.03 118.56,-222.52"/>
</g>
<!-- Node77 -->
<g id="node9" class="node">
<title>Node77</title>
<g id="a_node9"><a xlink:href="mutt_2string_8c.html#a6b6a50296dd2a31863a43379ef4a343d" target="_top" xlink:title="Compare two strings.">
<polygon fill="#fff0f0" stroke="red" points="204,-56 118,-56 118,-37 204,-37 204,-56"/>
<text text-anchor="middle" x="161" y="-44" font-family="Helvetica,sans-Serif" font-size="10.00">mutt_str_equal</text>
</a>
</g>
</g>
<!-- Node1&#45;&gt;Node77 -->
<g id="edge11" class="edge">
<title>Node1&#45;&gt;Node77</title>
<path fill="none" stroke="#63b8ff" d="M37.35,-147.72C46.29,-128.76 68.56,-86.9 100,-64.5 102.33,-62.84 104.8,-61.34 107.38,-59.97"/>
<polygon fill="#63b8ff" stroke="#63b8ff" points="108.62,-63.25 116.31,-55.96 105.75,-56.86 108.62,-63.25"/>
</g>
<!-- Node1375 -->
<g id="node10" class="node">
<title>Node1375</title>
<g id="a_node10"><a xlink:href="gpgme__functions_8c.html#a66639b373a3cc1f57f1526dad35085a7" target="_top" xlink:title="Verbose information about a key or certificate to a file.">
<polygon fill="#fff0f0" stroke="red" points="202,-19 120,-19 120,0 202,0 202,-19"/>
<text text-anchor="middle" x="161" y="-7" font-family="Helvetica,sans-Serif" font-size="10.00">print_key_info</text>
</a>
</g>
</g>
<!-- Node1&#45;&gt;Node1375 -->
<g id="edge12" class="edge">
<title>Node1&#45;&gt;Node1375</title>
<path fill="none" stroke="#63b8ff" d="M35.24,-147.68C41.27,-123.5 60.16,-60.6 100,-27.5 102.84,-25.14 105.99,-23.08 109.31,-21.3"/>
<polygon fill="#63b8ff" stroke="#63b8ff" points="110.55,-24.58 118.27,-17.33 107.71,-18.18 110.55,-24.58"/>
</g>
<!-- Node80&#45;&gt;Node2 -->
<g id="edge8" class="edge">
<title>Node80&#45;&gt;Node2</title>
<path fill="none" stroke="#63b8ff" d="M183.33,-243.38C207.05,-254.37 245.59,-272.22 272.83,-284.83"/>
<polygon fill="#63b8ff" stroke="#63b8ff" points="271.1,-287.89 281.65,-288.92 274.04,-281.54 271.1,-287.89"/>
</g>
<!-- Node80&#45;&gt;Node10 -->
<g id="edge9" class="edge">
<title>Node80&#45;&gt;Node10</title>
<path fill="none" stroke="#63b8ff" d="M205.14,-236.53C218.07,-237.43 232.47,-238.45 246.2,-239.41"/>
<polygon fill="#63b8ff" stroke="#63b8ff" points="245.8,-242.89 256.02,-240.1 246.29,-235.91 245.8,-242.89"/>
</g>
<!-- Node80&#45;&gt;Node15 -->
<g id="edge10" class="edge">
<title>Node80&#45;&gt;Node15</title>
<path fill="none" stroke="#63b8ff" d="M205.14,-225.33C223.15,-221.91 244.01,-217.96 261.96,-214.56"/>
<polygon fill="#63b8ff" stroke="#63b8ff" points="262.61,-218 271.78,-212.7 261.31,-211.12 262.61,-218"/>
</g>
</g>
</svg>
