<?xml version="1.0" encoding="UTF-8" standalone="no"?>
<!DOCTYPE svg PUBLIC "-//W3C//DTD SVG 1.1//EN"
 "http://www.w3.org/Graphics/SVG/1.1/DTD/svg11.dtd">
<!-- Generated by graphviz version 2.40.1 (20161225.0304)
 -->
<!-- Title: dot_mailbox Pages: 1 -->
<svg width="389pt" height="613pt"
 viewBox="0.00 0.00 389.00 613.36" xmlns="http://www.w3.org/2000/svg" xmlns:xlink="http://www.w3.org/1999/xlink">
<g id="graph0" class="graph" transform="scale(1 1) rotate(0) translate(4 609.3606)">
<title>dot_mailbox</title>
<polygon fill="#ffffff" stroke="transparent" points="-4,4 -4,-609.3606 385,-609.3606 385,4 -4,4"/>
<!-- Node14775 -->
<g id="node1" class="node">
<title>Node14775</title>
<polygon fill="#bfbfbf" stroke="#000000" points="0,-287.1774 0,-306.1774 77,-306.1774 77,-287.1774 0,-287.1774"/>
<text text-anchor="middle" x="38.5" y="-294.1774" font-family="Helvetica,sans-Serif" font-size="10.00" fill="#000000">dot_mailbox</text>
</g>
<!-- Node14776 -->
<g id="node2" class="node">
<title>Node14776</title>
<g id="a_node2"><a xlink:href="graphviz_8c.html#ae3a3025fb8683c2277aaf965ea043b45" target="_top" xlink:title="dot_object_header">
<polygon fill="#ffffff" stroke="#ff0000" points="274,-249.1774 274,-268.1774 381,-268.1774 381,-249.1774 274,-249.1774"/>
<text text-anchor="middle" x="327.5" y="-256.1774" font-family="Helvetica,sans-Serif" font-size="10.00" fill="#000000">dot_object_header</text>
</a>
</g>
</g>
<!-- Node14775&#45;&gt;Node14776 -->
<g id="edge1" class="edge">
<title>Node14775&#45;&gt;Node14776</title>
<path fill="none" stroke="#191970" d="M46.9584,-306.2794C59.683,-319.9144 85.2352,-344.2743 113,-353.6774 165.6197,-371.4983 191.055,-383.3857 238,-353.6774 269.5828,-333.6908 246.2695,-302.7365 274,-277.6774 275.8877,-275.9716 277.9386,-274.4167 280.1006,-272.9994"/>
<polygon fill="#191970" stroke="#191970" points="281.7927,-276.0633 288.8804,-268.1883 278.4288,-269.9246 281.7927,-276.0633"/>
</g>
<!-- Node14778 -->
<g id="node3" class="node">
<title>Node14778</title>
<g id="a_node3"><a xlink:href="graphviz_8c.html#a1656f881d504363e0672220652019a35" target="_top" xlink:title="dot_mailbox_type">
<polygon fill="#ffffff" stroke="#000000" points="123.5,-553.1774 123.5,-572.1774 227.5,-572.1774 227.5,-553.1774 123.5,-553.1774"/>
<text text-anchor="middle" x="175.5" y="-560.1774" font-family="Helvetica,sans-Serif" font-size="10.00" fill="#000000">dot_mailbox_type</text>
</a>
</g>
</g>
<!-- Node14775&#45;&gt;Node14778 -->
<g id="edge2" class="edge">
<title>Node14775&#45;&gt;Node14778</title>
<path fill="none" stroke="#191970" d="M40.2783,-306.1891C47.9846,-346.5164 79.6142,-502.9408 113,-538.6774 116.5781,-542.5075 120.8348,-545.7329 125.4202,-548.4478"/>
<polygon fill="#191970" stroke="#191970" points="124.0476,-551.6757 134.551,-553.0644 127.2061,-545.4287 124.0476,-551.6757"/>
</g>
<!-- Node14779 -->
<g id="node4" class="node">
<title>Node14779</title>
<g id="a_node4"><a xlink:href="graphviz_8c.html#a76320fed9a46a01b4d20dabc96678c94" target="_top" xlink:title="dot_type_string">
<polygon fill="#ffffff" stroke="#ff0000" points="281.5,-287.1774 281.5,-306.1774 373.5,-306.1774 373.5,-287.1774 281.5,-287.1774"/>
<text text-anchor="middle" x="327.5" y="-294.1774" font-family="Helvetica,sans-Serif" font-size="10.00" fill="#000000">dot_type_string</text>
</a>
</g>
</g>
<!-- Node14775&#45;&gt;Node14779 -->
<g id="edge3" class="edge">
<title>Node14775&#45;&gt;Node14779</title>
<path fill="none" stroke="#191970" d="M40.451,-306.4655C48.2404,-344.4577 78.3709,-481.258 113,-505.6774 158.4023,-537.6939 193.1902,-538.518 238,-505.6774 280.8558,-474.269 252.8507,-440.4198 274,-391.6774 286.0621,-363.8781 303.9607,-333.6954 315.6786,-314.9821"/>
<polygon fill="#191970" stroke="#191970" points="318.7757,-316.6338 321.1793,-306.3152 312.8655,-312.8828 318.7757,-316.6338"/>
</g>
<!-- Node14784 -->
<g id="node5" class="node">
<title>Node14784</title>
<g id="a_node5"><a xlink:href="graphviz_8c.html#ac02c05efe3bafd7fecf7802dd1f02a7c" target="_top" xlink:title="dot_path_imap">
<polygon fill="#ffffff" stroke="#ff0000" points="131,-477.1774 131,-496.1774 220,-496.1774 220,-477.1774 131,-477.1774"/>
<text text-anchor="middle" x="175.5" y="-484.1774" font-family="Helvetica,sans-Serif" font-size="10.00" fill="#000000">dot_path_imap</text>
</a>
</g>
</g>
<!-- Node14775&#45;&gt;Node14784 -->
<g id="edge4" class="edge">
<title>Node14775&#45;&gt;Node14784</title>
<path fill="none" stroke="#191970" d="M39.8664,-306.459C44.4497,-335.5362 61.9714,-422.2383 113,-467.6774 115.664,-470.0496 118.6168,-472.1257 121.7474,-473.9427"/>
<polygon fill="#191970" stroke="#191970" points="120.4232,-477.1904 130.9479,-478.4077 123.4795,-470.8928 120.4232,-477.1904"/>
</g>
<!-- Node14803 -->
<g id="node6" class="node">
<title>Node14803</title>
<g id="a_node6"><a xlink:href="graphviz_8c.html#a13c174ff7e1d69eef371d714c73d0fe4" target="_top" xlink:title="dot_path_fs">
<polygon fill="#ffffff" stroke="#ff0000" points="138.5,-439.1774 138.5,-458.1774 212.5,-458.1774 212.5,-439.1774 138.5,-439.1774"/>
<text text-anchor="middle" x="175.5" y="-446.1774" font-family="Helvetica,sans-Serif" font-size="10.00" fill="#000000">dot_path_fs</text>
</a>
</g>
</g>
<!-- Node14775&#45;&gt;Node14803 -->
<g id="edge5" class="edge">
<title>Node14775&#45;&gt;Node14803</title>
<path fill="none" stroke="#191970" d="M41.1597,-306.3597C48.386,-330.8377 70.7328,-395.661 113,-429.6774 117.6978,-433.4582 123.1404,-436.4881 128.8157,-438.9159"/>
<polygon fill="#191970" stroke="#191970" points="127.9024,-442.3087 138.4962,-442.4596 130.3088,-435.7353 127.9024,-442.3087"/>
</g>
<!-- Node14804 -->
<g id="node7" class="node">
<title>Node14804</title>
<g id="a_node7"><a xlink:href="graphviz_8c.html#a2f56b10d474bf1239f934b3a19677c2d" target="_top" xlink:title="dot_ptr">
<polygon fill="#ffffff" stroke="#000000" points="302,-401.1774 302,-420.1774 353,-420.1774 353,-401.1774 302,-401.1774"/>
<text text-anchor="middle" x="327.5" y="-408.1774" font-family="Helvetica,sans-Serif" font-size="10.00" fill="#000000">dot_ptr</text>
</a>
</g>
</g>
<!-- Node14775&#45;&gt;Node14804 -->
<g id="edge6" class="edge">
<title>Node14775&#45;&gt;Node14804</title>
<path fill="none" stroke="#191970" d="M39.477,-306.349C44.3195,-352.1446 67.361,-546.4351 113,-581.6774 156.9715,-615.6322 190.4729,-610.4454 238,-581.6774 293.3336,-548.1842 316.107,-467.9771 323.9624,-430.5462"/>
<polygon fill="#191970" stroke="#191970" points="327.4618,-430.8872 325.9409,-420.4021 320.5913,-429.5471 327.4618,-430.8872"/>
</g>
<!-- Node14805 -->
<g id="node8" class="node">
<title>Node14805</title>
<g id="a_node8"><a xlink:href="graphviz_8c.html#a0f62d21c20c6e51ebe81254d03ecb82c" target="_top" xlink:title="dot_type_number">
<polygon fill="#ffffff" stroke="#000000" points="276.5,-116.1774 276.5,-135.1774 378.5,-135.1774 378.5,-116.1774 276.5,-116.1774"/>
<text text-anchor="middle" x="327.5" y="-123.1774" font-family="Helvetica,sans-Serif" font-size="10.00" fill="#000000">dot_type_number</text>
</a>
</g>
</g>
<!-- Node14775&#45;&gt;Node14805 -->
<g id="edge7" class="edge">
<title>Node14775&#45;&gt;Node14805</title>
<path fill="none" stroke="#191970" d="M39.5686,-287.0441C44.7472,-242.2979 68.8056,-55.4923 113,-21.6774 157.1218,12.0818 187.5041,1.4869 238,-21.6774 276.2495,-39.224 304.3294,-82.0792 318.0605,-106.9574"/>
<polygon fill="#191970" stroke="#191970" points="315.1324,-108.9067 322.908,-116.1034 321.3174,-105.6286 315.1324,-108.9067"/>
</g>
<!-- Node14806 -->
<g id="node9" class="node">
<title>Node14806</title>
<g id="a_node9"><a xlink:href="graphviz_8c.html#a96022b0ce38d17ab5e632f65b223b38a" target="_top" xlink:title="dot_object_footer">
<polygon fill="#ffffff" stroke="#000000" points="276.5,-211.1774 276.5,-230.1774 378.5,-230.1774 378.5,-211.1774 276.5,-211.1774"/>
<text text-anchor="middle" x="327.5" y="-218.1774" font-family="Helvetica,sans-Serif" font-size="10.00" fill="#000000">dot_object_footer</text>
</a>
</g>
</g>
<!-- Node14775&#45;&gt;Node14806 -->
<g id="edge8" class="edge">
<title>Node14775&#45;&gt;Node14806</title>
<path fill="none" stroke="#191970" d="M39.8962,-286.9072C46.1335,-244.7802 72.9106,-79.4589 113,-49.6774 157.5964,-16.5477 192.2828,-18.1122 238,-49.6774 275.1561,-75.3317 252.838,-104.7915 274,-144.6774 285.2529,-165.8867 301.4988,-188.1163 313.1319,-203.0149"/>
<polygon fill="#191970" stroke="#191970" points="310.4157,-205.2226 319.3757,-210.8767 315.8973,-200.8691 310.4157,-205.2226"/>
</g>
<!-- Node14807 -->
<g id="node10" class="node">
<title>Node14807</title>
<g id="a_node10"><a xlink:href="graphviz_8c.html#a04ff0b49b1ca663670e838f76e1666d8" target="_top" xlink:title="dot_mailbox_maildir">
<polygon fill="#ffffff" stroke="#ff0000" points="117,-249.1774 117,-268.1774 234,-268.1774 234,-249.1774 117,-249.1774"/>
<text text-anchor="middle" x="175.5" y="-256.1774" font-family="Helvetica,sans-Serif" font-size="10.00" fill="#000000">dot_mailbox_maildir</text>
</a>
</g>
</g>
<!-- Node14775&#45;&gt;Node14807 -->
<g id="edge9" class="edge">
<title>Node14775&#45;&gt;Node14807</title>
<path fill="none" stroke="#191970" d="M73.0709,-287.0884C90.6752,-282.2055 112.2793,-276.2131 131.101,-270.9925"/>
<polygon fill="#191970" stroke="#191970" points="132.2395,-274.3089 140.9402,-268.2634 130.3685,-267.5636 132.2395,-274.3089"/>
</g>
<!-- Node14814 -->
<g id="node11" class="node">
<title>Node14814</title>
<g id="a_node11"><a xlink:href="graphviz_8c.html#a45c3cc87effc026af1c6d4f3e3b5e928" target="_top" xlink:title="dot_mailbox_imap">
<polygon fill="#ffffff" stroke="#000000" points="122,-211.1774 122,-230.1774 229,-230.1774 229,-211.1774 122,-211.1774"/>
<text text-anchor="middle" x="175.5" y="-218.1774" font-family="Helvetica,sans-Serif" font-size="10.00" fill="#000000">dot_mailbox_imap</text>
</a>
</g>
</g>
<!-- Node14775&#45;&gt;Node14814 -->
<g id="edge13" class="edge">
<title>Node14775&#45;&gt;Node14814</title>
<path fill="none" stroke="#191970" d="M48.7744,-286.8614C62.4319,-274.2978 87.7888,-252.6145 113,-239.6774 117.3135,-237.464 121.9293,-235.4599 126.6261,-233.6571"/>
<polygon fill="#191970" stroke="#191970" points="128.0465,-236.8674 136.3098,-230.2365 125.715,-230.267 128.0465,-236.8674"/>
</g>
<!-- Node14815 -->
<g id="node12" class="node">
<title>Node14815</title>
<g id="a_node12"><a xlink:href="graphviz_8c.html#aaa2fcbfa3d61dac43b860b1095ef17c9" target="_top" xlink:title="dot_mailbox_pop">
<polygon fill="#ffffff" stroke="#000000" points="125,-325.1774 125,-344.1774 226,-344.1774 226,-325.1774 125,-325.1774"/>
<text text-anchor="middle" x="175.5" y="-332.1774" font-family="Helvetica,sans-Serif" font-size="10.00" fill="#000000">dot_mailbox_pop</text>
</a>
</g>
</g>
<!-- Node14775&#45;&gt;Node14815 -->
<g id="edge17" class="edge">
<title>Node14775&#45;&gt;Node14815</title>
<path fill="none" stroke="#191970" d="M73.0709,-306.2664C90.6752,-311.1494 112.2793,-317.1418 131.101,-322.3624"/>
<polygon fill="#191970" stroke="#191970" points="130.3685,-325.7913 140.9402,-325.0915 132.2395,-319.046 130.3685,-325.7913"/>
</g>
<!-- Node14816 -->
<g id="node13" class="node">
<title>Node14816</title>
<g id="a_node13"><a xlink:href="graphviz_8c.html#aff25d042f743c00527fbb752be2a8acb" target="_top" xlink:title="dot_mailbox_mbox">
<polygon fill="#ffffff" stroke="#ff0000" points="120.5,-401.1774 120.5,-420.1774 230.5,-420.1774 230.5,-401.1774 120.5,-401.1774"/>
<text text-anchor="middle" x="175.5" y="-408.1774" font-family="Helvetica,sans-Serif" font-size="10.00" fill="#000000">dot_mailbox_mbox</text>
</a>
</g>
</g>
<!-- Node14775&#45;&gt;Node14816 -->
<g id="edge21" class="edge">
<title>Node14775&#45;&gt;Node14816</title>
<path fill="none" stroke="#191970" d="M44.0386,-306.1965C55.0079,-324.2815 81.2068,-363.8361 113,-386.6774 118.6446,-390.7327 125.0623,-394.203 131.5839,-397.1402"/>
<polygon fill="#191970" stroke="#191970" points="130.5556,-400.5017 141.1353,-401.0684 133.2181,-394.0278 130.5556,-400.5017"/>
</g>
<!-- Node14817 -->
<g id="node14" class="node">
<title>Node14817</title>
<g id="a_node14"><a xlink:href="graphviz_8c.html#a72703842b556a3ce30795ba23caf6c36" target="_top" xlink:title="dot_mailbox_nntp">
<polygon fill="#ffffff" stroke="#ff0000" points="123.5,-173.1774 123.5,-192.1774 227.5,-192.1774 227.5,-173.1774 123.5,-173.1774"/>
<text text-anchor="middle" x="175.5" y="-180.1774" font-family="Helvetica,sans-Serif" font-size="10.00" fill="#000000">dot_mailbox_nntp</text>
</a>
</g>
</g>
<!-- Node14775&#45;&gt;Node14817 -->
<g id="edge26" class="edge">
<title>Node14775&#45;&gt;Node14817</title>
<path fill="none" stroke="#191970" d="M43.4299,-286.9997C53.7031,-267.803 79.2775,-224.77 113,-201.6774 115.8949,-199.6951 119.0029,-197.9143 122.2302,-196.3154"/>
<polygon fill="#191970" stroke="#191970" points="123.7773,-199.4597 131.5635,-192.2746 120.9961,-193.0359 123.7773,-199.4597"/>
</g>
<!-- Node14819 -->
<g id="node15" class="node">
<title>Node14819</title>
<g id="a_node15"><a xlink:href="graphviz_8c.html#a3c51f0ea155fa52f30163273a48feaf3" target="_top" xlink:title="dot_mailbox_notmuch">
<polygon fill="#ffffff" stroke="#000000" points="113,-97.1774 113,-116.1774 238,-116.1774 238,-97.1774 113,-97.1774"/>
<text text-anchor="middle" x="175.5" y="-104.1774" font-family="Helvetica,sans-Serif" font-size="10.00" fill="#000000">dot_mailbox_notmuch</text>
</a>
</g>
</g>
<!-- Node14775&#45;&gt;Node14819 -->
<g id="edge31" class="edge">
<title>Node14775&#45;&gt;Node14819</title>
<path fill="none" stroke="#191970" d="M39.8664,-286.8959C44.4497,-257.8187 61.9714,-171.1166 113,-125.6774 114.7548,-124.1148 116.635,-122.6807 118.6087,-121.3645"/>
<polygon fill="#191970" stroke="#191970" points="120.6965,-124.2101 127.763,-116.3161 117.3161,-118.0804 120.6965,-124.2101"/>
</g>
<!-- Node14820 -->
<g id="node16" class="node">
<title>Node14820</title>
<g id="a_node16"><a xlink:href="graphviz_8c.html#a7ffddcc72974cbe733cfebeb0973ff2a" target="_top" xlink:title="dot_add_link">
<polygon fill="#ffffff" stroke="#ff0000" points="136,-59.1774 136,-78.1774 215,-78.1774 215,-59.1774 136,-59.1774"/>
<text text-anchor="middle" x="175.5" y="-66.1774" font-family="Helvetica,sans-Serif" font-size="10.00" fill="#000000">dot_add_link</text>
</a>
</g>
</g>
<!-- Node14775&#45;&gt;Node14820 -->
<g id="edge35" class="edge">
<title>Node14775&#45;&gt;Node14820</title>
<path fill="none" stroke="#191970" d="M38.9783,-287.1705C41.1468,-254.4136 52.7901,-145.1049 113,-87.6774 116.8507,-84.0047 121.3895,-81.0399 126.2348,-78.6471"/>
<polygon fill="#191970" stroke="#191970" points="127.9043,-81.7455 135.83,-74.7146 125.2496,-75.2684 127.9043,-81.7455"/>
</g>
<!-- Node14822 -->
<g id="node17" class="node">
<title>Node14822</title>
<g id="a_node17"><a xlink:href="graphviz_8c.html#ac53b645e4582df6cbe250bf241b99f4a" target="_top" xlink:title="dot_comp">
<polygon fill="#ffffff" stroke="#000000" points="143,-287.1774 143,-306.1774 208,-306.1774 208,-287.1774 143,-287.1774"/>
<text text-anchor="middle" x="175.5" y="-294.1774" font-family="Helvetica,sans-Serif" font-size="10.00" fill="#000000">dot_comp</text>
</a>
</g>
</g>
<!-- Node14775&#45;&gt;Node14822 -->
<g id="edge36" class="edge">
<title>Node14775&#45;&gt;Node14822</title>
<path fill="none" stroke="#191970" d="M77.0267,-296.6774C94.3603,-296.6774 114.8834,-296.6774 132.6955,-296.6774"/>
<polygon fill="#191970" stroke="#191970" points="132.8252,-300.1775 142.8252,-296.6774 132.8251,-293.1775 132.8252,-300.1775"/>
</g>
<!-- Node14823 -->
<g id="node18" class="node">
<title>Node14823</title>
<g id="a_node18"><a xlink:href="graphviz_8c.html#aa9614fed6267b10e8dc9d154a060a0e9" target="_top" xlink:title="dot_config">
<polygon fill="#ffffff" stroke="#ff0000" points="142,-135.1774 142,-154.1774 209,-154.1774 209,-135.1774 142,-135.1774"/>
<text text-anchor="middle" x="175.5" y="-142.1774" font-family="Helvetica,sans-Serif" font-size="10.00" fill="#000000">dot_config</text>
</a>
</g>
</g>
<!-- Node14775&#45;&gt;Node14823 -->
<g id="edge40" class="edge">
<title>Node14775&#45;&gt;Node14823</title>
<path fill="none" stroke="#191970" d="M41.1597,-286.9952C48.386,-262.5172 70.7328,-197.6939 113,-163.6774 118.5206,-159.2345 125.0697,-155.8285 131.8163,-153.2179"/>
<polygon fill="#191970" stroke="#191970" points="133.3502,-156.3972 141.7454,-149.9342 131.1522,-149.7512 133.3502,-156.3972"/>
</g>
<!-- Node14807&#45;&gt;Node14776 -->
<g id="edge10" class="edge">
<title>Node14807&#45;&gt;Node14776</title>
<path fill="none" stroke="#191970" d="M234.2672,-258.6774C243.9396,-258.6774 254.0051,-258.6774 263.7914,-258.6774"/>
<polygon fill="#191970" stroke="#191970" points="263.8604,-262.1775 273.8604,-258.6774 263.8603,-255.1775 263.8604,-262.1775"/>
</g>
<!-- Node14807&#45;&gt;Node14779 -->
<g id="edge11" class="edge">
<title>Node14807&#45;&gt;Node14779</title>
<path fill="none" stroke="#191970" d="M213.856,-268.2664C233.8237,-273.2584 258.4295,-279.4098 279.6334,-284.7108"/>
<polygon fill="#191970" stroke="#191970" points="278.8695,-288.1275 289.4198,-287.1574 280.5673,-281.3365 278.8695,-288.1275"/>
</g>
<!-- Node14807&#45;&gt;Node14806 -->
<g id="edge12" class="edge">
<title>Node14807&#45;&gt;Node14806</title>
<path fill="none" stroke="#191970" d="M213.856,-249.0884C233.8237,-244.0965 258.4295,-237.9451 279.6334,-232.6441"/>
<polygon fill="#191970" stroke="#191970" points="280.5673,-236.0184 289.4198,-230.1975 278.8695,-229.2274 280.5673,-236.0184"/>
</g>
<!-- Node14814&#45;&gt;Node14776 -->
<g id="edge14" class="edge">
<title>Node14814&#45;&gt;Node14776</title>
<path fill="none" stroke="#191970" d="M213.856,-230.2664C233.8237,-235.2584 258.4295,-241.4098 279.6334,-246.7108"/>
<polygon fill="#191970" stroke="#191970" points="278.8695,-250.1275 289.4198,-249.1574 280.5673,-243.3365 278.8695,-250.1275"/>
</g>
<!-- Node14814&#45;&gt;Node14779 -->
<g id="edge15" class="edge">
<title>Node14814&#45;&gt;Node14779</title>
<path fill="none" stroke="#191970" d="M217.8166,-230.2673C224.8335,-232.7643 231.8265,-235.8603 238,-239.6774 257.7875,-251.9122 254.4999,-264.9897 274,-277.6774 277.0723,-279.6765 280.381,-281.4956 283.7925,-283.145"/>
<polygon fill="#191970" stroke="#191970" points="282.4041,-286.3578 292.9714,-287.1215 285.1868,-279.9347 282.4041,-286.3578"/>
</g>
<!-- Node14814&#45;&gt;Node14806 -->
<g id="edge16" class="edge">
<title>Node14814&#45;&gt;Node14806</title>
<path fill="none" stroke="#191970" d="M229.0895,-220.6774C241.109,-220.6774 253.9498,-220.6774 266.2541,-220.6774"/>
<polygon fill="#191970" stroke="#191970" points="266.4336,-224.1775 276.4336,-220.6774 266.4336,-217.1775 266.4336,-224.1775"/>
</g>
<!-- Node14815&#45;&gt;Node14776 -->
<g id="edge18" class="edge">
<title>Node14815&#45;&gt;Node14776</title>
<path fill="none" stroke="#191970" d="M217.8166,-325.0875C224.8335,-322.5906 231.8265,-319.4945 238,-315.6774 257.7875,-303.4427 254.4999,-290.3652 274,-277.6774 277.0723,-275.6784 280.381,-273.8593 283.7925,-272.2099"/>
<polygon fill="#191970" stroke="#191970" points="285.1868,-275.4202 292.9714,-268.2334 282.4041,-268.997 285.1868,-275.4202"/>
</g>
<!-- Node14815&#45;&gt;Node14804 -->
<g id="edge19" class="edge">
<title>Node14815&#45;&gt;Node14804</title>
<path fill="none" stroke="#191970" d="M194.7509,-344.3029C221.1335,-357.4942 268.7136,-381.2843 299.168,-396.5114"/>
<polygon fill="#191970" stroke="#191970" points="297.8959,-399.7885 308.4054,-401.1301 301.0264,-393.5275 297.8959,-399.7885"/>
</g>
<!-- Node14815&#45;&gt;Node14806 -->
<g id="edge20" class="edge">
<title>Node14815&#45;&gt;Node14806</title>
<path fill="none" stroke="#191970" d="M222.8045,-325.0489C228.3044,-322.6005 233.5345,-319.5294 238,-315.6774 266.301,-291.2645 246.2695,-264.7365 274,-239.6774 275.8877,-237.9716 277.9386,-236.4167 280.1006,-234.9994"/>
<polygon fill="#191970" stroke="#191970" points="281.7927,-238.0633 288.8804,-230.1883 278.4288,-231.9246 281.7927,-238.0633"/>
</g>
<!-- Node14816&#45;&gt;Node14776 -->
<g id="edge22" class="edge">
<title>Node14816&#45;&gt;Node14776</title>
<path fill="none" stroke="#191970" d="M216.0285,-401.112C224.1292,-397.659 231.9844,-392.9866 238,-386.6774 273.2059,-349.753 238.3282,-314.1519 274,-277.6774 275.4214,-276.2241 276.961,-274.8815 278.5906,-273.6414"/>
<polygon fill="#191970" stroke="#191970" points="280.6689,-276.4724 287.3573,-268.2555 277.0046,-270.5081 280.6689,-276.4724"/>
</g>
<!-- Node14816&#45;&gt;Node14779 -->
<g id="edge24" class="edge">
<title>Node14816&#45;&gt;Node14779</title>
<path fill="none" stroke="#191970" d="M207.9105,-401.1734C217.9872,-397.4614 228.8455,-392.6414 238,-386.6774 268.8799,-366.56 297.6119,-334.3143 313.8222,-314.3744"/>
<polygon fill="#191970" stroke="#191970" points="316.6726,-316.4133 320.1624,-306.4097 311.196,-312.0537 316.6726,-316.4133"/>
</g>
<!-- Node14816&#45;&gt;Node14804 -->
<g id="edge23" class="edge">
<title>Node14816&#45;&gt;Node14804</title>
<path fill="none" stroke="#191970" d="M230.8055,-410.6774C251.0994,-410.6774 273.5242,-410.6774 291.6651,-410.6774"/>
<polygon fill="#191970" stroke="#191970" points="291.8026,-414.1775 301.8026,-410.6774 291.8026,-407.1775 291.8026,-414.1775"/>
</g>
<!-- Node14816&#45;&gt;Node14806 -->
<g id="edge25" class="edge">
<title>Node14816&#45;&gt;Node14806</title>
<path fill="none" stroke="#191970" d="M189.9376,-400.9951C204.0965,-390.7926 225.3474,-373.4768 238,-353.6774 266.6112,-308.9057 237.0996,-277.9066 274,-239.6774 275.4118,-238.2148 276.9435,-236.8644 278.5664,-235.6179"/>
<polygon fill="#191970" stroke="#191970" points="280.6466,-238.4467 287.3101,-230.2097 276.9643,-232.4934 280.6466,-238.4467"/>
</g>
<!-- Node14817&#45;&gt;Node14776 -->
<g id="edge27" class="edge">
<title>Node14817&#45;&gt;Node14776</title>
<path fill="none" stroke="#191970" d="M217.8166,-192.2673C224.8335,-194.7643 231.8265,-197.8603 238,-201.6774 257.7875,-213.9122 254.4999,-226.9897 274,-239.6774 277.0723,-241.6765 280.381,-243.4956 283.7925,-245.145"/>
<polygon fill="#191970" stroke="#191970" points="282.4041,-248.3578 292.9714,-249.1215 285.1868,-241.9347 282.4041,-248.3578"/>
</g>
<!-- Node14817&#45;&gt;Node14779 -->
<g id="edge28" class="edge">
<title>Node14817&#45;&gt;Node14779</title>
<path fill="none" stroke="#191970" d="M222.8045,-192.3059C228.3044,-194.7544 233.5345,-197.8255 238,-201.6774 266.301,-226.0903 246.2695,-252.6184 274,-277.6774 275.8877,-279.3833 277.9386,-280.9382 280.1006,-282.3555"/>
<polygon fill="#191970" stroke="#191970" points="278.4288,-285.4303 288.8804,-287.1666 281.7927,-279.2916 278.4288,-285.4303"/>
</g>
<!-- Node14817&#45;&gt;Node14805 -->
<g id="edge29" class="edge">
<title>Node14817&#45;&gt;Node14805</title>
<path fill="none" stroke="#191970" d="M209.1259,-173.1721C218.5369,-170.3182 228.7258,-167.0451 238,-163.6774 258.0284,-156.4046 280.0651,-147.0653 297.2604,-139.4655"/>
<polygon fill="#191970" stroke="#191970" points="299.0676,-142.4918 306.7735,-135.2206 296.2152,-136.0993 299.0676,-142.4918"/>
</g>
<!-- Node14817&#45;&gt;Node14806 -->
<g id="edge30" class="edge">
<title>Node14817&#45;&gt;Node14806</title>
<path fill="none" stroke="#191970" d="M213.856,-192.2664C233.8237,-197.2584 258.4295,-203.4098 279.6334,-208.7108"/>
<polygon fill="#191970" stroke="#191970" points="278.8695,-212.1275 289.4198,-211.1574 280.5673,-205.3365 278.8695,-212.1275"/>
</g>
<!-- Node14819&#45;&gt;Node14776 -->
<g id="edge32" class="edge">
<title>Node14819&#45;&gt;Node14776</title>
<path fill="none" stroke="#191970" d="M224.2584,-116.1897C229.3215,-118.661 234.0495,-121.7692 238,-125.6774 275.7722,-163.0455 237.0996,-201.4483 274,-239.6774 275.4118,-241.1401 276.9435,-242.4904 278.5664,-243.737"/>
<polygon fill="#191970" stroke="#191970" points="276.9643,-246.8615 287.3101,-249.1452 280.6466,-240.9082 276.9643,-246.8615"/>
</g>
<!-- Node14819&#45;&gt;Node14805 -->
<g id="edge33" class="edge">
<title>Node14819&#45;&gt;Node14805</title>
<path fill="none" stroke="#191970" d="M238.2018,-114.5152C247.3519,-115.6589 256.7675,-116.8359 265.8955,-117.9769"/>
<polygon fill="#191970" stroke="#191970" points="265.6927,-121.4787 276.0497,-119.2462 266.561,-114.5327 265.6927,-121.4787"/>
</g>
<!-- Node14819&#45;&gt;Node14806 -->
<g id="edge34" class="edge">
<title>Node14819&#45;&gt;Node14806</title>
<path fill="none" stroke="#191970" d="M217.8256,-116.2529C224.8415,-118.7514 231.8318,-121.8518 238,-125.6774 270.8563,-146.0559 299.6733,-181.4713 315.2397,-202.8266"/>
<polygon fill="#191970" stroke="#191970" points="312.4266,-204.9102 321.0729,-211.0333 318.1321,-200.8547 312.4266,-204.9102"/>
</g>
<!-- Node14822&#45;&gt;Node14776 -->
<g id="edge37" class="edge">
<title>Node14822&#45;&gt;Node14776</title>
<path fill="none" stroke="#191970" d="M208.1078,-288.5255C228.8522,-283.3394 256.0831,-276.5317 279.2996,-270.7275"/>
<polygon fill="#191970" stroke="#191970" points="280.4562,-274.0462 289.3088,-268.2253 278.7584,-267.2552 280.4562,-274.0462"/>
</g>
<!-- Node14822&#45;&gt;Node14779 -->
<g id="edge38" class="edge">
<title>Node14822&#45;&gt;Node14779</title>
<path fill="none" stroke="#191970" d="M208.1078,-296.6774C226.4742,-296.6774 249.925,-296.6774 271.1728,-296.6774"/>
<polygon fill="#191970" stroke="#191970" points="271.3946,-300.1775 281.3946,-296.6774 271.3945,-293.1775 271.3946,-300.1775"/>
</g>
<!-- Node14822&#45;&gt;Node14806 -->
<g id="edge39" class="edge">
<title>Node14822&#45;&gt;Node14806</title>
<path fill="none" stroke="#191970" d="M208.0153,-290.2165C218.0975,-287.3347 228.9327,-283.2838 238,-277.6774 257.7875,-265.4427 254.4999,-252.3652 274,-239.6774 277.0723,-237.6784 280.381,-235.8593 283.7925,-234.2099"/>
<polygon fill="#191970" stroke="#191970" points="285.1868,-237.4202 292.9714,-230.2334 282.4041,-230.997 285.1868,-237.4202"/>
</g>
<!-- Node14823&#45;&gt;Node14776 -->
<g id="edge41" class="edge">
<title>Node14823&#45;&gt;Node14776</title>
<path fill="none" stroke="#191970" d="M209.2107,-149.5083C219.3569,-152.3029 229.9278,-156.7142 238,-163.6774 266.301,-188.0903 246.2695,-214.6184 274,-239.6774 275.8877,-241.3833 277.9386,-242.9382 280.1006,-244.3555"/>
<polygon fill="#191970" stroke="#191970" points="278.4288,-247.4303 288.8804,-249.1666 281.7927,-241.2916 278.4288,-247.4303"/>
</g>
<!-- Node14823&#45;&gt;Node14779 -->
<g id="edge42" class="edge">
<title>Node14823&#45;&gt;Node14779</title>
<path fill="none" stroke="#191970" d="M209.1545,-148.6927C219.5362,-151.4343 230.2602,-156.0204 238,-163.6774 275.7722,-201.0455 237.0996,-239.4483 274,-277.6774 275.4118,-279.1401 276.9435,-280.4904 278.5664,-281.737"/>
<polygon fill="#191970" stroke="#191970" points="276.9643,-284.8615 287.3101,-287.1452 280.6466,-278.9082 276.9643,-284.8615"/>
</g>
<!-- Node14823&#45;&gt;Node14805 -->
<g id="edge43" class="edge">
<title>Node14823&#45;&gt;Node14805</title>
<path fill="none" stroke="#191970" d="M209.2337,-140.4607C225.9915,-138.366 246.7693,-135.7688 266.2115,-133.3385"/>
<polygon fill="#191970" stroke="#191970" points="266.7398,-136.7998 276.2285,-132.0864 265.8715,-129.8538 266.7398,-136.7998"/>
</g>
<!-- Node14823&#45;&gt;Node14806 -->
<g id="edge44" class="edge">
<title>Node14823&#45;&gt;Node14806</title>
<path fill="none" stroke="#191970" d="M209.2072,-153.0974C218.7144,-155.9586 228.9331,-159.507 238,-163.6774 262.7985,-175.0838 288.8734,-192.3815 306.4395,-204.9296"/>
<polygon fill="#191970" stroke="#191970" points="304.6505,-207.9561 314.798,-211.0022 308.7649,-202.2929 304.6505,-207.9561"/>
</g>
</g>
</svg>
