<?xml version="1.0" encoding="UTF-8" standalone="no"?>
<!DOCTYPE svg PUBLIC "-//W3C//DTD SVG 1.1//EN"
 "http://www.w3.org/Graphics/SVG/1.1/DTD/svg11.dtd">
<!-- Generated by graphviz version 2.40.1 (20161225.0304)
 -->
<!-- Title: debug/graphviz.c Pages: 1 -->
<svg width="2517pt" height="252pt"
 viewBox="0.00 0.00 2516.50 252.00" xmlns="http://www.w3.org/2000/svg" xmlns:xlink="http://www.w3.org/1999/xlink">
<g id="graph0" class="graph" transform="scale(1 1) rotate(0) translate(4 248)">
<title>debug/graphviz.c</title>
<polygon fill="#ffffff" stroke="transparent" points="-4,4 -4,-248 2512.5,-248 2512.5,4 -4,4"/>
<!-- Node0 -->
<g id="node1" class="node">
<title>Node0</title>
<polygon fill="#bfbfbf" stroke="#000000" points="1201,-224.5 1201,-243.5 1301,-243.5 1301,-224.5 1201,-224.5"/>
<text text-anchor="middle" x="1251" y="-231.5" font-family="Helvetica,sans-Serif" font-size="10.00" fill="#000000">debug/graphviz.c</text>
</g>
<!-- Node1 -->
<g id="node2" class="node">
<title>Node1</title>
<polygon fill="#ffffff" stroke="#bfbfbf" points="1541.5,-.5 1541.5,-19.5 1596.5,-19.5 1596.5,-.5 1541.5,-.5"/>
<text text-anchor="middle" x="1569" y="-7.5" font-family="Helvetica,sans-Serif" font-size="10.00" fill="#000000">config.h</text>
</g>
<!-- Node0&#45;&gt;Node1 -->
<g id="edge1" class="edge">
<title>Node0&#45;&gt;Node1</title>
<path fill="none" stroke="#191970" d="M1301.0869,-233.6666C1441.705,-232.2704 1832.7141,-225.0612 1876,-188 1920.5652,-149.8435 1918.423,-95.4515 1875,-56 1855.395,-38.1881 1684.3794,-20.5189 1606.8841,-13.3443"/>
<polygon fill="#191970" stroke="#191970" points="1606.8727,-9.8287 1596.5953,-12.4026 1606.2347,-16.7995 1606.8727,-9.8287"/>
</g>
<!-- Node2 -->
<g id="node3" class="node">
<title>Node2</title>
<polygon fill="#ffffff" stroke="#bfbfbf" points="764,-.5 764,-19.5 826,-19.5 826,-.5 764,-.5"/>
<text text-anchor="middle" x="795" y="-7.5" font-family="Helvetica,sans-Serif" font-size="10.00" fill="#000000">stdbool.h</text>
</g>
<!-- Node0&#45;&gt;Node2 -->
<g id="edge2" class="edge">
<title>Node0&#45;&gt;Node2</title>
<path fill="none" stroke="#191970" d="M1301.4409,-230.8466C1355.5113,-226.18 1443.1356,-214.8682 1514,-188 1563.2717,-169.3186 1636.8706,-153.9638 1605,-112 1548.9116,-38.1488 1495.3425,-72.0139 1404,-56 1294.3853,-36.7826 955.0637,-18.1521 836.4458,-12.0672"/>
<polygon fill="#191970" stroke="#191970" points="836.4866,-8.5648 826.3213,-11.5508 836.13,-15.5557 836.4866,-8.5648"/>
</g>
<!-- Node3 -->
<g id="node4" class="node">
<title>Node3</title>
<polygon fill="#ffffff" stroke="#bfbfbf" points="512,-56.5 512,-75.5 562,-75.5 562,-56.5 512,-56.5"/>
<text text-anchor="middle" x="537" y="-63.5" font-family="Helvetica,sans-Serif" font-size="10.00" fill="#000000">stdio.h</text>
</g>
<!-- Node0&#45;&gt;Node3 -->
<g id="edge3" class="edge">
<title>Node0&#45;&gt;Node3</title>
<path fill="none" stroke="#191970" d="M1200.9991,-233.2275C1106.1444,-230.9812 893.9125,-222.2111 719,-188 636.3592,-171.8363 588.4867,-199.3933 538,-132 528.1448,-118.8446 529.0195,-99.7112 531.694,-85.4288"/>
<polygon fill="#191970" stroke="#191970" points="535.1168,-86.1614 533.9421,-75.6319 528.2941,-84.5958 535.1168,-86.1614"/>
</g>
<!-- Node4 -->
<g id="node5" class="node">
<title>Node4</title>
<polygon fill="#ffffff" stroke="#bfbfbf" points="1958.5,-168.5 1958.5,-187.5 2011.5,-187.5 2011.5,-168.5 1958.5,-168.5"/>
<text text-anchor="middle" x="1985" y="-175.5" font-family="Helvetica,sans-Serif" font-size="10.00" fill="#000000">string.h</text>
</g>
<!-- Node0&#45;&gt;Node4 -->
<g id="edge4" class="edge">
<title>Node0&#45;&gt;Node4</title>
<path fill="none" stroke="#191970" d="M1301.3847,-231.7898C1439.1203,-225.567 1819.9109,-207.1042 1944,-188 1945.4483,-187.777 1946.9205,-187.5279 1948.4041,-187.258"/>
<polygon fill="#191970" stroke="#191970" points="1949.1393,-190.6801 1958.227,-185.2335 1947.7263,-183.8242 1949.1393,-190.6801"/>
</g>
<!-- Node5 -->
<g id="node6" class="node">
<title>Node5</title>
<polygon fill="#ffffff" stroke="#bfbfbf" points="2030,-168.5 2030,-187.5 2094,-187.5 2094,-168.5 2030,-168.5"/>
<text text-anchor="middle" x="2062" y="-175.5" font-family="Helvetica,sans-Serif" font-size="10.00" fill="#000000">sys/stat.h</text>
</g>
<!-- Node0&#45;&gt;Node5 -->
<g id="edge5" class="edge">
<title>Node0&#45;&gt;Node5</title>
<path fill="none" stroke="#191970" d="M1301.0617,-232.1857C1445.6203,-226.7642 1862.8381,-209.7876 2019.915,-187.8631"/>
<polygon fill="#191970" stroke="#191970" points="2020.4884,-191.3166 2029.8795,-186.4119 2019.4795,-184.3897 2020.4884,-191.3166"/>
</g>
<!-- Node6 -->
<g id="node7" class="node">
<title>Node6</title>
<polygon fill="#ffffff" stroke="#bfbfbf" points="1692,-56.5 1692,-75.5 1740,-75.5 1740,-56.5 1692,-56.5"/>
<text text-anchor="middle" x="1716" y="-63.5" font-family="Helvetica,sans-Serif" font-size="10.00" fill="#000000">time.h</text>
</g>
<!-- Node0&#45;&gt;Node6 -->
<g id="edge6" class="edge">
<title>Node0&#45;&gt;Node6</title>
<path fill="none" stroke="#191970" d="M1301.0621,-231.8157C1408.6302,-226.6776 1654.4188,-212.3857 1683,-188 1712.7812,-162.5904 1717.0798,-113.3396 1716.9501,-85.8219"/>
<polygon fill="#191970" stroke="#191970" points="1720.4486,-85.7141 1716.6994,-75.8048 1713.4508,-85.8893 1720.4486,-85.7141"/>
</g>
<!-- Node7 -->
<g id="node8" class="node">
<title>Node7</title>
<g id="a_node8"><a xlink:href="mutt_2lib_8h.html" target="_top" xlink:title="Convenience wrapper for the library headers. ">
<polygon fill="#ffffff" stroke="#ff0000" points="1408,-112.5 1408,-131.5 1472,-131.5 1472,-112.5 1408,-112.5"/>
<text text-anchor="middle" x="1440" y="-119.5" font-family="Helvetica,sans-Serif" font-size="10.00" fill="#000000">mutt/lib.h</text>
</a>
</g>
</g>
<!-- Node0&#45;&gt;Node7 -->
<g id="edge7" class="edge">
<title>Node0&#45;&gt;Node7</title>
<path fill="none" stroke="#191970" d="M1301.1439,-230.7857C1359.8392,-225.8558 1451.7545,-214.099 1473,-188 1485.1465,-173.0786 1471.6831,-152.9491 1458.4782,-138.858"/>
<polygon fill="#191970" stroke="#191970" points="1460.8821,-136.3122 1451.3331,-131.7223 1455.9356,-141.2653 1460.8821,-136.3122"/>
</g>
<!-- Node49 -->
<g id="node9" class="node">
<title>Node49</title>
<g id="a_node9"><a xlink:href="address_2lib_8h.html" target="_top" xlink:title="Email Address Handling. ">
<polygon fill="#ffffff" stroke="#ff0000" points="2112.5,-168.5 2112.5,-187.5 2191.5,-187.5 2191.5,-168.5 2112.5,-168.5"/>
<text text-anchor="middle" x="2152" y="-175.5" font-family="Helvetica,sans-Serif" font-size="10.00" fill="#000000">address/lib.h</text>
</a>
</g>
</g>
<!-- Node0&#45;&gt;Node49 -->
<g id="edge8" class="edge">
<title>Node0&#45;&gt;Node49</title>
<path fill="none" stroke="#191970" d="M1301.2363,-232.262C1456.3825,-226.7437 1927.446,-208.8225 2102.153,-187.8806"/>
<polygon fill="#191970" stroke="#191970" points="2102.745,-191.334 2112.2361,-186.6256 2101.8803,-184.3876 2102.745,-191.334"/>
</g>
<!-- Node53 -->
<g id="node10" class="node">
<title>Node53</title>
<g id="a_node10"><a xlink:href="config_2lib_8h.html" target="_top" xlink:title="Convenience wrapper for the config headers. ">
<polygon fill="#ffffff" stroke="#ff0000" points="1168,-56.5 1168,-75.5 1238,-75.5 1238,-56.5 1168,-56.5"/>
<text text-anchor="middle" x="1203" y="-63.5" font-family="Helvetica,sans-Serif" font-size="10.00" fill="#000000">config/lib.h</text>
</a>
</g>
</g>
<!-- Node0&#45;&gt;Node53 -->
<g id="edge9" class="edge">
<title>Node0&#45;&gt;Node53</title>
<path fill="none" stroke="#191970" d="M1248.2818,-224.4862C1240.6613,-197.8144 1218.9748,-121.9117 1208.6271,-85.695"/>
<polygon fill="#191970" stroke="#191970" points="1211.9206,-84.4816 1205.808,-75.8279 1205.1899,-86.4047 1211.9206,-84.4816"/>
</g>
<!-- Node68 -->
<g id="node11" class="node">
<title>Node68</title>
<g id="a_node11"><a xlink:href="email_2lib_8h.html" target="_top" xlink:title="Structs that make up an email. ">
<polygon fill="#ffffff" stroke="#ff0000" points="1130,-112.5 1130,-131.5 1198,-131.5 1198,-112.5 1130,-112.5"/>
<text text-anchor="middle" x="1164" y="-119.5" font-family="Helvetica,sans-Serif" font-size="10.00" fill="#000000">email/lib.h</text>
</a>
</g>
</g>
<!-- Node0&#45;&gt;Node68 -->
<g id="edge11" class="edge">
<title>Node0&#45;&gt;Node68</title>
<path fill="none" stroke="#191970" d="M1237.3904,-224.1771C1226.1159,-215.5556 1210.1857,-202.2041 1199,-188 1187.6181,-173.5467 1178.104,-154.8478 1171.8822,-141.0453"/>
<polygon fill="#191970" stroke="#191970" points="1174.9759,-139.3815 1167.7897,-131.5962 1168.5525,-142.1636 1174.9759,-139.3815"/>
</g>
<!-- Node85 -->
<g id="node12" class="node">
<title>Node85</title>
<g id="a_node12"><a xlink:href="core_2lib_8h.html" target="_top" xlink:title="Convenience wrapper for the core headers. ">
<polygon fill="#ffffff" stroke="#ff0000" points="838,-56.5 838,-75.5 900,-75.5 900,-56.5 838,-56.5"/>
<text text-anchor="middle" x="869" y="-63.5" font-family="Helvetica,sans-Serif" font-size="10.00" fill="#000000">core/lib.h</text>
</a>
</g>
</g>
<!-- Node0&#45;&gt;Node85 -->
<g id="edge12" class="edge">
<title>Node0&#45;&gt;Node85</title>
<path fill="none" stroke="#191970" d="M1200.8728,-225.5923C1161.7168,-218.1575 1106.3552,-205.7207 1060,-188 1010.9638,-169.2544 1000.1558,-160.394 956,-132 931.829,-116.457 905.7805,-96.1815 888.5519,-82.2269"/>
<polygon fill="#191970" stroke="#191970" points="890.3602,-79.1844 880.403,-75.5642 885.9293,-84.6036 890.3602,-79.1844"/>
</g>
<!-- Node90 -->
<g id="node13" class="node">
<title>Node90</title>
<g id="a_node13"><a xlink:href="conn_2lib_8h.html" target="_top" xlink:title="Connection Library. ">
<polygon fill="#ffffff" stroke="#ff0000" points="1802,-56.5 1802,-75.5 1866,-75.5 1866,-56.5 1802,-56.5"/>
<text text-anchor="middle" x="1834" y="-63.5" font-family="Helvetica,sans-Serif" font-size="10.00" fill="#000000">conn/lib.h</text>
</a>
</g>
</g>
<!-- Node0&#45;&gt;Node90 -->
<g id="edge13" class="edge">
<title>Node0&#45;&gt;Node90</title>
<path fill="none" stroke="#191970" d="M1301.492,-233.252C1438.4486,-230.7931 1809.6235,-221.1133 1853,-188 1880.7627,-166.8061 1885.0296,-144.7908 1873,-112 1868.9432,-100.9418 1860.9203,-90.7193 1853.2006,-82.7335"/>
<polygon fill="#191970" stroke="#191970" points="1855.3698,-79.9632 1845.74,-75.5451 1850.5128,-85.0041 1855.3698,-79.9632"/>
</g>
<!-- Node98 -->
<g id="node14" class="node">
<title>Node98</title>
<g id="a_node14"><a xlink:href="debug_2lib_8h.html" target="_top" xlink:title="Convenience wrapper for the debug headers. ">
<polygon fill="#ffffff" stroke="#ff0000" points="1093,-168.5 1093,-187.5 1131,-187.5 1131,-168.5 1093,-168.5"/>
<text text-anchor="middle" x="1112" y="-175.5" font-family="Helvetica,sans-Serif" font-size="10.00" fill="#000000">lib.h</text>
</a>
</g>
</g>
<!-- Node0&#45;&gt;Node98 -->
<g id="edge15" class="edge">
<title>Node0&#45;&gt;Node98</title>
<path fill="none" stroke="#191970" d="M1227.105,-224.3733C1203.1213,-214.7107 1166.1646,-199.8217 1140.6277,-189.5335"/>
<polygon fill="#191970" stroke="#191970" points="1141.7023,-186.1931 1131.1188,-185.7026 1139.0864,-192.686 1141.7023,-186.1931"/>
</g>
<!-- Node99 -->
<g id="node15" class="node">
<title>Node99</title>
<g id="a_node15"><a xlink:href="compmbox_2lib_8h.html" target="_top" xlink:title="Compressed mbox local mailbox type. ">
<polygon fill="#ffffff" stroke="#000000" points="547.5,-112.5 547.5,-131.5 642.5,-131.5 642.5,-112.5 547.5,-112.5"/>
<text text-anchor="middle" x="595" y="-119.5" font-family="Helvetica,sans-Serif" font-size="10.00" fill="#000000">compmbox/lib.h</text>
</a>
</g>
</g>
<!-- Node0&#45;&gt;Node99 -->
<g id="edge19" class="edge">
<title>Node0&#45;&gt;Node99</title>
<path fill="none" stroke="#191970" d="M1200.8554,-232.5115C1116.296,-229.2096 940.3407,-218.9239 795,-188 734.6293,-175.155 666.9142,-150.5528 627.7899,-135.2838"/>
<polygon fill="#191970" stroke="#191970" points="628.8333,-131.933 618.2464,-131.5224 626.2665,-138.4455 628.8333,-131.933"/>
</g>
<!-- Node100 -->
<g id="node16" class="node">
<title>Node100</title>
<g id="a_node16"><a xlink:href="imap_2lib_8h.html" target="_top" xlink:title="IMAP network mailbox. ">
<polygon fill="#ffffff" stroke="#ff0000" points="1008.5,-112.5 1008.5,-131.5 1073.5,-131.5 1073.5,-112.5 1008.5,-112.5"/>
<text text-anchor="middle" x="1041" y="-119.5" font-family="Helvetica,sans-Serif" font-size="10.00" fill="#000000">imap/lib.h</text>
</a>
</g>
</g>
<!-- Node0&#45;&gt;Node100 -->
<g id="edge23" class="edge">
<title>Node0&#45;&gt;Node100</title>
<path fill="none" stroke="#191970" d="M1200.9031,-229.6376C1165.4198,-224.4316 1118.2358,-213.018 1084,-188 1067.6721,-176.0683 1055.8598,-155.8991 1048.7944,-140.9902"/>
<polygon fill="#191970" stroke="#191970" points="1051.9172,-139.398 1044.6642,-131.6749 1045.5179,-142.2353 1051.9172,-139.398"/>
</g>
<!-- Node102 -->
<g id="node17" class="node">
<title>Node102</title>
<g id="a_node17"><a xlink:href="maildir_2lib_8h.html" target="_top" xlink:title="Maildir local mailbox type. ">
<polygon fill="#ffffff" stroke="#000000" points="660.5,-112.5 660.5,-131.5 735.5,-131.5 735.5,-112.5 660.5,-112.5"/>
<text text-anchor="middle" x="698" y="-119.5" font-family="Helvetica,sans-Serif" font-size="10.00" fill="#000000">maildir/lib.h</text>
</a>
</g>
</g>
<!-- Node0&#45;&gt;Node102 -->
<g id="edge27" class="edge">
<title>Node0&#45;&gt;Node102</title>
<path fill="none" stroke="#191970" d="M1200.8727,-232.5232C1125.3821,-229.3208 978.5186,-219.2716 858,-188 809.7642,-175.484 756.8765,-151.4855 725.6078,-136.1346"/>
<polygon fill="#191970" stroke="#191970" points="727.1395,-132.9875 716.6268,-131.6704 724.0237,-139.2558 727.1395,-132.9875"/>
</g>
<!-- Node103 -->
<g id="node18" class="node">
<title>Node103</title>
<polygon fill="#ffffff" stroke="#bfbfbf" points="2210,-168.5 2210,-187.5 2278,-187.5 2278,-168.5 2210,-168.5"/>
<text text-anchor="middle" x="2244" y="-175.5" font-family="Helvetica,sans-Serif" font-size="10.00" fill="#000000">mbox/lib.h</text>
</g>
<!-- Node0&#45;&gt;Node103 -->
<g id="edge31" class="edge">
<title>Node0&#45;&gt;Node103</title>
<path fill="none" stroke="#191970" d="M1301.2797,-232.7615C1468.4205,-228.4606 2005.3467,-213.1195 2199.7352,-187.8936"/>
<polygon fill="#191970" stroke="#191970" points="2200.3947,-191.3364 2209.8365,-186.53 2199.4582,-184.3993 2200.3947,-191.3364"/>
</g>
<!-- Node74 -->
<g id="node19" class="node">
<title>Node74</title>
<g id="a_node19"><a xlink:href="ncrypt_2lib_8h.html" target="_top" xlink:title="API for encryption/signing of emails. ">
<polygon fill="#ffffff" stroke="#ff0000" points="51.5,-112.5 51.5,-131.5 122.5,-131.5 122.5,-112.5 51.5,-112.5"/>
<text text-anchor="middle" x="87" y="-119.5" font-family="Helvetica,sans-Serif" font-size="10.00" fill="#000000">ncrypt/lib.h</text>
</a>
</g>
</g>
<!-- Node0&#45;&gt;Node74 -->
<g id="edge32" class="edge">
<title>Node0&#45;&gt;Node74</title>
<path fill="none" stroke="#191970" d="M1200.8042,-233.6957C1026.2956,-232.3202 446.7755,-225.0077 265,-188 210.6201,-176.9288 150.7704,-151.8691 116.1714,-136.0118"/>
<polygon fill="#191970" stroke="#191970" points="117.2367,-132.6474 106.6931,-131.6071 114.2867,-138.9954 117.2367,-132.6474"/>
</g>
<!-- Node104 -->
<g id="node20" class="node">
<title>Node104</title>
<g id="a_node20"><a xlink:href="nntp_2lib_8h.html" target="_top" xlink:title="Usenet network mailbox type; talk to an NNTP server. ">
<polygon fill="#ffffff" stroke="#ff0000" points="429,-112.5 429,-131.5 491,-131.5 491,-112.5 429,-112.5"/>
<text text-anchor="middle" x="460" y="-119.5" font-family="Helvetica,sans-Serif" font-size="10.00" fill="#000000">nntp/lib.h</text>
</a>
</g>
</g>
<!-- Node0&#45;&gt;Node104 -->
<g id="edge35" class="edge">
<title>Node0&#45;&gt;Node104</title>
<path fill="none" stroke="#191970" d="M1200.8465,-233.4443C1043.296,-231.3498 565.173,-222.2119 505,-188 486.8031,-177.654 474.4208,-156.5646 467.3222,-140.9969"/>
<polygon fill="#191970" stroke="#191970" points="470.5252,-139.5848 463.4124,-131.7325 464.076,-142.3066 470.5252,-139.5848"/>
</g>
<!-- Node106 -->
<g id="node21" class="node">
<title>Node106</title>
<g id="a_node21"><a xlink:href="notmuch_2lib_8h.html" target="_top" xlink:title="Notmuch virtual mailbox type. ">
<polygon fill="#ffffff" stroke="#ff0000" points="753.5,-112.5 753.5,-131.5 836.5,-131.5 836.5,-112.5 753.5,-112.5"/>
<text text-anchor="middle" x="795" y="-119.5" font-family="Helvetica,sans-Serif" font-size="10.00" fill="#000000">notmuch/lib.h</text>
</a>
</g>
</g>
<!-- Node0&#45;&gt;Node106 -->
<g id="edge39" class="edge">
<title>Node0&#45;&gt;Node106</title>
<path fill="none" stroke="#191970" d="M1200.8241,-229.9459C1118.076,-222.8302 956.7912,-207.027 903,-188 869.647,-176.2023 835.5293,-153.1394 814.8007,-137.647"/>
<polygon fill="#191970" stroke="#191970" points="816.8512,-134.8092 806.778,-131.5259 812.6051,-140.3743 816.8512,-134.8092"/>
</g>
<!-- Node107 -->
<g id="node22" class="node">
<title>Node107</title>
<g id="a_node22"><a xlink:href="pop_2lib_8h.html" target="_top" xlink:title="POP network mailbox. ">
<polygon fill="#ffffff" stroke="#000000" points="854.5,-112.5 854.5,-131.5 913.5,-131.5 913.5,-112.5 854.5,-112.5"/>
<text text-anchor="middle" x="884" y="-119.5" font-family="Helvetica,sans-Serif" font-size="10.00" fill="#000000">pop/lib.h</text>
</a>
</g>
</g>
<!-- Node0&#45;&gt;Node107 -->
<g id="edge42" class="edge">
<title>Node0&#45;&gt;Node107</title>
<path fill="none" stroke="#191970" d="M1200.7968,-231.8091C1121.674,-227.5438 972.3917,-215.9632 928,-188 910.5801,-177.0269 898.5004,-156.3615 891.4646,-141.0664"/>
<polygon fill="#191970" stroke="#191970" points="894.5367,-139.3474 887.3959,-131.5206 888.0972,-142.0922 894.5367,-139.3474"/>
</g>
<!-- Node108 -->
<g id="node23" class="node">
<title>Node108</title>
<g id="a_node23"><a xlink:href="context_8h.html" target="_top" xlink:title="The &quot;currently&#45;open&quot; mailbox. ">
<polygon fill="#ffffff" stroke="#ff0000" points="0,-56.5 0,-75.5 62,-75.5 62,-56.5 0,-56.5"/>
<text text-anchor="middle" x="31" y="-63.5" font-family="Helvetica,sans-Serif" font-size="10.00" fill="#000000">context.h</text>
</a>
</g>
</g>
<!-- Node0&#45;&gt;Node108 -->
<g id="edge44" class="edge">
<title>Node0&#45;&gt;Node108</title>
<path fill="none" stroke="#191970" d="M1200.9074,-232.7551C1004.1817,-227.7393 290.4312,-208.3046 191,-188 121.6856,-173.8455 86.9345,-186.6418 42,-132 31.5205,-119.2566 29.2833,-100.3378 29.3683,-86.0186"/>
<polygon fill="#191970" stroke="#191970" points="32.8781,-85.871 29.8213,-75.7268 25.8849,-85.5632 32.8781,-85.871"/>
</g>
<!-- Node109 -->
<g id="node24" class="node">
<title>Node109</title>
<g id="a_node24"><a xlink:href="imap_2adata_8h.html" target="_top" xlink:title="Imap&#45;specific Account data. ">
<polygon fill="#ffffff" stroke="#000000" points="1382.5,-168.5 1382.5,-187.5 1463.5,-187.5 1463.5,-168.5 1382.5,-168.5"/>
<text text-anchor="middle" x="1423" y="-175.5" font-family="Helvetica,sans-Serif" font-size="10.00" fill="#000000">imap/adata.h</text>
</a>
</g>
</g>
<!-- Node0&#45;&gt;Node109 -->
<g id="edge46" class="edge">
<title>Node0&#45;&gt;Node109</title>
<path fill="none" stroke="#191970" d="M1280.5679,-224.3733C1309.1688,-215.0613 1352.6788,-200.8953 1384.0819,-190.671"/>
<polygon fill="#191970" stroke="#191970" points="1385.3928,-193.9251 1393.818,-187.5011 1383.2257,-187.269 1385.3928,-193.9251"/>
</g>
<!-- Node110 -->
<g id="node25" class="node">
<title>Node110</title>
<g id="a_node25"><a xlink:href="imap_2private_8h.html" target="_top" xlink:title="Shared constants/structs that are private to IMAP. ">
<polygon fill="#ffffff" stroke="#ff0000" points="1254,-112.5 1254,-131.5 1314,-131.5 1314,-112.5 1254,-112.5"/>
<text text-anchor="middle" x="1284" y="-119.5" font-family="Helvetica,sans-Serif" font-size="10.00" fill="#000000">private.h</text>
</a>
</g>
</g>
<!-- Node0&#45;&gt;Node110 -->
<g id="edge58" class="edge">
<title>Node0&#45;&gt;Node110</title>
<path fill="none" stroke="#191970" d="M1253.8136,-224.4509C1259.2202,-206.1013 1271.1563,-165.5908 1278.293,-141.3693"/>
<polygon fill="#191970" stroke="#191970" points="1281.7245,-142.1064 1281.1936,-131.5249 1275.0099,-140.128 1281.7245,-142.1064"/>
</g>
<!-- Node113 -->
<g id="node26" class="node">
<title>Node113</title>
<g id="a_node26"><a xlink:href="imap_2mdata_8h.html" target="_top" xlink:title="Imap&#45;specific Mailbox data. ">
<polygon fill="#ffffff" stroke="#ff0000" points="1279.5,-168.5 1279.5,-187.5 1364.5,-187.5 1364.5,-168.5 1279.5,-168.5"/>
<text text-anchor="middle" x="1322" y="-175.5" font-family="Helvetica,sans-Serif" font-size="10.00" fill="#000000">imap/mdata.h</text>
</a>
</g>
</g>
<!-- Node0&#45;&gt;Node113 -->
<g id="edge55" class="edge">
<title>Node0&#45;&gt;Node113</title>
<path fill="none" stroke="#191970" d="M1263.3673,-224.2455C1273.9554,-215.8943 1289.4064,-203.7076 1301.7893,-193.9408"/>
<polygon fill="#191970" stroke="#191970" points="1304.0903,-196.5837 1309.7745,-187.6427 1299.7553,-191.0875 1304.0903,-196.5837"/>
</g>
<!-- Node114 -->
<g id="node27" class="node">
<title>Node114</title>
<g id="a_node27"><a xlink:href="maildir_2edata_8h.html" target="_top" xlink:title="Maildir&#45;specific Email data. ">
<polygon fill="#ffffff" stroke="#000000" points="2296.5,-168.5 2296.5,-187.5 2387.5,-187.5 2387.5,-168.5 2296.5,-168.5"/>
<text text-anchor="middle" x="2342" y="-175.5" font-family="Helvetica,sans-Serif" font-size="10.00" fill="#000000">maildir/edata.h</text>
</a>
</g>
</g>
<!-- Node0&#45;&gt;Node114 -->
<g id="edge59" class="edge">
<title>Node0&#45;&gt;Node114</title>
<path fill="none" stroke="#191970" d="M1301.0455,-232.678C1477.7629,-227.8717 2072.8341,-210.4779 2286.2757,-187.8864"/>
<polygon fill="#191970" stroke="#191970" points="2286.8921,-191.3399 2296.4518,-186.7723 2286.1302,-184.3815 2286.8921,-191.3399"/>
</g>
<!-- Node115 -->
<g id="node28" class="node">
<title>Node115</title>
<g id="a_node28"><a xlink:href="maildir_2mdata_8h.html" target="_top" xlink:title="Maildir&#45;specific Mailbox data. ">
<polygon fill="#ffffff" stroke="#ff0000" points="1730.5,-168.5 1730.5,-187.5 1825.5,-187.5 1825.5,-168.5 1730.5,-168.5"/>
<text text-anchor="middle" x="1778" y="-175.5" font-family="Helvetica,sans-Serif" font-size="10.00" fill="#000000">maildir/mdata.h</text>
</a>
</g>
</g>
<!-- Node0&#45;&gt;Node115 -->
<g id="edge60" class="edge">
<title>Node0&#45;&gt;Node115</title>
<path fill="none" stroke="#191970" d="M1301.0045,-230.0656C1386.3113,-223.1272 1565.364,-207.5802 1716,-188 1717.4529,-187.8112 1718.924,-187.6146 1720.4076,-187.4116"/>
<polygon fill="#191970" stroke="#191970" points="1720.9125,-190.8751 1730.3156,-185.9933 1719.9205,-183.9457 1720.9125,-190.8751"/>
</g>
<!-- Node116 -->
<g id="node29" class="node">
<title>Node116</title>
<g id="a_node29"><a xlink:href="maildir_2private_8h.html" target="_top" xlink:title="Maildir/MH private types. ">
<polygon fill="#ffffff" stroke="#ff0000" points="179,-112.5 179,-131.5 277,-131.5 277,-112.5 179,-112.5"/>
<text text-anchor="middle" x="228" y="-119.5" font-family="Helvetica,sans-Serif" font-size="10.00" fill="#000000">maildir/private.h</text>
</a>
</g>
</g>
<!-- Node0&#45;&gt;Node116 -->
<g id="edge62" class="edge">
<title>Node0&#45;&gt;Node116</title>
<path fill="none" stroke="#191970" d="M1200.8081,-233.5622C1016.4827,-231.6831 383.2881,-222.7375 300,-188 275.7027,-177.8662 254.3955,-155.7504 241.3877,-139.9124"/>
<polygon fill="#191970" stroke="#191970" points="243.9896,-137.5596 235.0487,-131.8753 238.4934,-141.8945 243.9896,-137.5596"/>
</g>
<!-- Node117 -->
<g id="node30" class="node">
<title>Node117</title>
<g id="a_node30"><a xlink:href="nntp_2adata_8h.html" target="_top" xlink:title="Nntp&#45;specific Account data. ">
<polygon fill="#ffffff" stroke="#ff0000" points="295,-112.5 295,-131.5 373,-131.5 373,-112.5 295,-112.5"/>
<text text-anchor="middle" x="334" y="-119.5" font-family="Helvetica,sans-Serif" font-size="10.00" fill="#000000">nntp/adata.h</text>
</a>
</g>
</g>
<!-- Node0&#45;&gt;Node117 -->
<g id="edge65" class="edge">
<title>Node0&#45;&gt;Node117</title>
<path fill="none" stroke="#191970" d="M1200.9017,-233.4453C1010.3671,-231.0947 339.9825,-220.5324 309,-188 296.2852,-174.6492 307.1539,-154.1916 318.2755,-139.5939"/>
<polygon fill="#191970" stroke="#191970" points="321.0506,-141.7292 324.6765,-131.7741 315.6339,-137.2952 321.0506,-141.7292"/>
</g>
<!-- Node118 -->
<g id="node31" class="node">
<title>Node118</title>
<g id="a_node31"><a xlink:href="nntp_2mdata_8h.html" target="_top" xlink:title="Nntp&#45;specific Mailbox data. ">
<polygon fill="#ffffff" stroke="#000000" points="318,-168.5 318,-187.5 400,-187.5 400,-168.5 318,-168.5"/>
<text text-anchor="middle" x="359" y="-175.5" font-family="Helvetica,sans-Serif" font-size="10.00" fill="#000000">nntp/mdata.h</text>
</a>
</g>
</g>
<!-- Node0&#45;&gt;Node118 -->
<g id="edge68" class="edge">
<title>Node0&#45;&gt;Node118</title>
<path fill="none" stroke="#191970" d="M1200.8111,-233.4248C1070.5278,-231.4595 711.01,-223.0235 414,-188 412.7259,-187.8498 411.4368,-187.6884 410.1375,-187.5174"/>
<polygon fill="#191970" stroke="#191970" points="410.4622,-184.0277 400.061,-186.0444 409.4496,-190.9541 410.4622,-184.0277"/>
</g>
<!-- Node119 -->
<g id="node32" class="node">
<title>Node119</title>
<g id="a_node32"><a xlink:href="notmuch_2adata_8h.html" target="_top" xlink:title="Notmuch&#45;specific Account data. ">
<polygon fill="#ffffff" stroke="#ff0000" points="356.5,-56.5 356.5,-75.5 455.5,-75.5 455.5,-56.5 356.5,-56.5"/>
<text text-anchor="middle" x="406" y="-63.5" font-family="Helvetica,sans-Serif" font-size="10.00" fill="#000000">notmuch/adata.h</text>
</a>
</g>
</g>
<!-- Node0&#45;&gt;Node119 -->
<g id="edge71" class="edge">
<title>Node0&#45;&gt;Node119</title>
<path fill="none" stroke="#191970" d="M1200.9496,-232.951C1040.7119,-229.3248 546.9579,-215.9783 481,-188 447.119,-173.6282 438.2409,-163.9647 420,-132 411.9267,-117.8527 408.4933,-99.6001 407.0412,-85.8769"/>
<polygon fill="#191970" stroke="#191970" points="410.5064,-85.2973 406.2291,-75.6042 403.5282,-85.849 410.5064,-85.2973"/>
</g>
<!-- Node121 -->
<g id="node33" class="node">
<title>Node121</title>
<g id="a_node33"><a xlink:href="notmuch_2mdata_8h.html" target="_top" xlink:title="Notmuch&#45;specific Mailbox data. ">
<polygon fill="#ffffff" stroke="#ff0000" points="2405.5,-168.5 2405.5,-187.5 2508.5,-187.5 2508.5,-168.5 2405.5,-168.5"/>
<text text-anchor="middle" x="2457" y="-175.5" font-family="Helvetica,sans-Serif" font-size="10.00" fill="#000000">notmuch/mdata.h</text>
</a>
</g>
</g>
<!-- Node0&#45;&gt;Node121 -->
<g id="edge73" class="edge">
<title>Node0&#45;&gt;Node121</title>
<path fill="none" stroke="#191970" d="M1301.3168,-232.8188C1490.4749,-228.25 2159.7363,-210.8955 2395.137,-188.0527"/>
<polygon fill="#191970" stroke="#191970" points="2395.7435,-191.5095 2405.3449,-187.0303 2395.0458,-184.5444 2395.7435,-191.5095"/>
</g>
<!-- Node123 -->
<g id="node34" class="node">
<title>Node123</title>
<g id="a_node34"><a xlink:href="notmuch_2private_8h.html" target="_top" xlink:title="Notmuch private types. ">
<polygon fill="#ffffff" stroke="#ff0000" points="1490,-112.5 1490,-131.5 1596,-131.5 1596,-112.5 1490,-112.5"/>
<text text-anchor="middle" x="1543" y="-119.5" font-family="Helvetica,sans-Serif" font-size="10.00" fill="#000000">notmuch/private.h</text>
</a>
</g>
</g>
<!-- Node0&#45;&gt;Node123 -->
<g id="edge74" class="edge">
<title>Node0&#45;&gt;Node123</title>
<path fill="none" stroke="#191970" d="M1301.0188,-228.3824C1361.1669,-220.9356 1457.9203,-206.5455 1489,-188 1507.9809,-176.674 1523.1888,-156.1111 1532.5689,-140.9371"/>
<polygon fill="#191970" stroke="#191970" points="1535.832,-142.2916 1537.8725,-131.8951 1529.794,-138.75 1535.832,-142.2916"/>
</g>
<!-- Node124 -->
<g id="node35" class="node">
<title>Node124</title>
<g id="a_node35"><a xlink:href="pop_2adata_8h.html" target="_top" xlink:title="Pop&#45;specific Account data. ">
<polygon fill="#ffffff" stroke="#000000" points="1600,-168.5 1600,-187.5 1674,-187.5 1674,-168.5 1600,-168.5"/>
<text text-anchor="middle" x="1637" y="-175.5" font-family="Helvetica,sans-Serif" font-size="10.00" fill="#000000">pop/adata.h</text>
</a>
</g>
</g>
<!-- Node0&#45;&gt;Node124 -->
<g id="edge77" class="edge">
<title>Node0&#45;&gt;Node124</title>
<path fill="none" stroke="#191970" d="M1301.0804,-228.0302C1366.6893,-220.0019 1485.2405,-204.7821 1586,-188 1587.2766,-187.7874 1588.5703,-187.5672 1589.8751,-187.3409"/>
<polygon fill="#191970" stroke="#191970" points="1590.779,-190.7344 1599.9979,-185.5131 1589.5351,-183.8458 1590.779,-190.7344"/>
</g>
<!-- Node125 -->
<g id="node36" class="node">
<title>Node125</title>
<g id="a_node36"><a xlink:href="pop_2private_8h.html" target="_top" xlink:title="POP network mailbox. ">
<polygon fill="#ffffff" stroke="#000000" points="1804,-112.5 1804,-131.5 1864,-131.5 1864,-112.5 1804,-112.5"/>
<text text-anchor="middle" x="1834" y="-119.5" font-family="Helvetica,sans-Serif" font-size="10.00" fill="#000000">private.h</text>
</a>
</g>
</g>
<!-- Node0&#45;&gt;Node125 -->
<g id="edge85" class="edge">
<title>Node0&#45;&gt;Node125</title>
<path fill="none" stroke="#191970" d="M1301.0024,-231.8908C1439.1306,-225.8242 1816.965,-207.5115 1835,-188 1846.3919,-175.6755 1844.4223,-155.8519 1840.6507,-141.1429"/>
<polygon fill="#191970" stroke="#191970" points="1843.9866,-140.0824 1837.7511,-131.5168 1837.2841,-142.1014 1843.9866,-140.0824"/>
</g>
<!-- Node53&#45;&gt;Node2 -->
<g id="edge10" class="edge">
<title>Node53&#45;&gt;Node2</title>
<path fill="none" stroke="#191970" d="M1167.861,-61.177C1092.7561,-50.8685 916.9056,-26.7321 836.475,-15.6926"/>
<polygon fill="#191970" stroke="#191970" points="836.6193,-12.1797 826.2363,-14.2873 835.6674,-19.1147 836.6193,-12.1797"/>
</g>
<!-- Node90&#45;&gt;Node1 -->
<g id="edge14" class="edge">
<title>Node90&#45;&gt;Node1</title>
<path fill="none" stroke="#191970" d="M1801.7707,-59.1893C1752.5019,-48.7778 1658.6889,-28.9531 1606.4612,-17.9163"/>
<polygon fill="#191970" stroke="#191970" points="1607.1032,-14.4748 1596.5956,-15.8315 1605.6559,-21.3235 1607.1032,-14.4748"/>
</g>
<!-- Node98&#45;&gt;Node2 -->
<g id="edge16" class="edge">
<title>Node98&#45;&gt;Node2</title>
<path fill="none" stroke="#191970" d="M1110.1317,-168.1439C1106.9526,-153.928 1099.1944,-127.6609 1083,-112 1013.794,-45.0739 897.9542,-21.7757 836.3929,-13.8834"/>
<polygon fill="#191970" stroke="#191970" points="836.6204,-10.3856 826.2732,-12.6629 835.7821,-17.3352 836.6204,-10.3856"/>
</g>
<!-- Node98&#45;&gt;Node68 -->
<g id="edge17" class="edge">
<title>Node98&#45;&gt;Node68</title>
<path fill="none" stroke="#191970" d="M1121.0577,-168.2455C1128.5142,-160.2155 1139.2634,-148.6394 1148.1417,-139.0781"/>
<polygon fill="#191970" stroke="#191970" points="1150.8063,-141.3522 1155.0461,-131.6427 1145.6768,-136.589 1150.8063,-141.3522"/>
</g>
<!-- Node98&#45;&gt;Node85 -->
<g id="edge18" class="edge">
<title>Node98&#45;&gt;Node85</title>
<path fill="none" stroke="#191970" d="M1092.784,-170.6285C1070.3211,-161.892 1032.1261,-146.6639 1000,-132 963.4791,-115.3301 922.2623,-94.1638 895.9813,-80.3598"/>
<polygon fill="#191970" stroke="#191970" points="897.489,-77.198 887.0109,-75.6291 894.2236,-83.3898 897.489,-77.198"/>
</g>
<!-- Node99&#45;&gt;Node2 -->
<g id="edge20" class="edge">
<title>Node99&#45;&gt;Node2</title>
<path fill="none" stroke="#191970" d="M612.0519,-112.4509C647.1069,-92.8201 727.4538,-47.8259 769.0228,-24.5472"/>
<polygon fill="#191970" stroke="#191970" points="770.9763,-27.4647 777.9913,-19.5249 767.5561,-21.3572 770.9763,-27.4647"/>
</g>
<!-- Node99&#45;&gt;Node3 -->
<g id="edge21" class="edge">
<title>Node99&#45;&gt;Node3</title>
<path fill="none" stroke="#191970" d="M584.8972,-112.2455C576.4972,-104.1352 564.3506,-92.4075 554.3916,-82.7919"/>
<polygon fill="#191970" stroke="#191970" points="556.6122,-80.0707 546.9871,-75.6427 551.75,-85.1066 556.6122,-80.0707"/>
</g>
<!-- Node99&#45;&gt;Node85 -->
<g id="edge22" class="edge">
<title>Node99&#45;&gt;Node85</title>
<path fill="none" stroke="#191970" d="M641.791,-112.4369C694.1273,-101.7404 778.0817,-84.5818 827.9561,-74.3885"/>
<polygon fill="#191970" stroke="#191970" points="828.6608,-77.8169 837.7574,-72.3853 827.2591,-70.9587 828.6608,-77.8169"/>
</g>
<!-- Node100&#45;&gt;Node1 -->
<g id="edge24" class="edge">
<title>Node100&#45;&gt;Node1</title>
<path fill="none" stroke="#191970" d="M1053.9936,-112.4094C1074.911,-97.5266 1117.8799,-69.2104 1159,-56 1227.8889,-33.8684 1443.4104,-18.0186 1531.2101,-12.32"/>
<polygon fill="#191970" stroke="#191970" points="1531.5101,-15.808 1541.2657,-11.6756 1531.0623,-8.8224 1531.5101,-15.808"/>
</g>
<!-- Node100&#45;&gt;Node2 -->
<g id="edge25" class="edge">
<title>Node100&#45;&gt;Node2</title>
<path fill="none" stroke="#191970" d="M1022.8582,-112.349C997.6175,-99.0555 950.3422,-74.6405 909,-56 882.9001,-44.232 852.8501,-32.166 830.1567,-23.3456"/>
<polygon fill="#191970" stroke="#191970" points="831.1914,-19.9933 820.602,-19.6546 828.6689,-26.523 831.1914,-19.9933"/>
</g>
<!-- Node100&#45;&gt;Node85 -->
<g id="edge26" class="edge">
<title>Node100&#45;&gt;Node85</title>
<path fill="none" stroke="#191970" d="M1011.4321,-112.3733C982.8312,-103.0613 939.3212,-88.8953 907.9181,-78.671"/>
<polygon fill="#191970" stroke="#191970" points="908.7743,-75.269 898.182,-75.5011 906.6072,-81.9251 908.7743,-75.269"/>
</g>
<!-- Node102&#45;&gt;Node2 -->
<g id="edge28" class="edge">
<title>Node102&#45;&gt;Node2</title>
<path fill="none" stroke="#191970" d="M706.2702,-112.4509C722.6634,-93.5227 759.4789,-51.014 780.166,-27.1279"/>
<polygon fill="#191970" stroke="#191970" points="782.8497,-29.3754 786.7508,-19.5249 777.5583,-24.7927 782.8497,-29.3754"/>
</g>
<!-- Node102&#45;&gt;Node3 -->
<g id="edge29" class="edge">
<title>Node102&#45;&gt;Node3</title>
<path fill="none" stroke="#191970" d="M670.3231,-112.3733C643.0209,-102.8769 601.2049,-88.3321 571.6959,-78.0682"/>
<polygon fill="#191970" stroke="#191970" points="572.7939,-74.7444 562.1991,-74.7649 570.4942,-81.3559 572.7939,-74.7444"/>
</g>
<!-- Node102&#45;&gt;Node85 -->
<g id="edge30" class="edge">
<title>Node102&#45;&gt;Node85</title>
<path fill="none" stroke="#191970" d="M727.3959,-112.3733C755.8307,-103.0613 799.0877,-88.8953 830.3081,-78.671"/>
<polygon fill="#191970" stroke="#191970" points="831.5736,-81.9396 839.9876,-75.5011 829.395,-75.2872 831.5736,-81.9396"/>
</g>
<!-- Node74&#45;&gt;Node2 -->
<g id="edge33" class="edge">
<title>Node74&#45;&gt;Node2</title>
<path fill="none" stroke="#191970" d="M91.1205,-112.2624C98.0855,-97.1782 113.7388,-68.591 137,-56 191.1057,-26.7132 618.0588,-14.1807 753.7517,-10.9116"/>
<polygon fill="#191970" stroke="#191970" points="753.8378,-14.4106 763.7522,-10.6748 753.6721,-7.4126 753.8378,-14.4106"/>
</g>
<!-- Node74&#45;&gt;Node3 -->
<g id="edge34" class="edge">
<title>Node74&#45;&gt;Node3</title>
<path fill="none" stroke="#191970" d="M122.5742,-117.6897C209.9756,-107.0956 430.5689,-80.3291 464,-76 476.2648,-74.4118 489.6774,-72.5969 501.6216,-70.9531"/>
<polygon fill="#191970" stroke="#191970" points="502.2481,-74.3999 511.6742,-69.5626 501.2889,-67.4659 502.2481,-74.3999"/>
</g>
<!-- Node104&#45;&gt;Node2 -->
<g id="edge36" class="edge">
<title>Node104&#45;&gt;Node2</title>
<path fill="none" stroke="#191970" d="M463.4652,-112.0359C469.1894,-97.1816 482.1101,-69.5318 503,-56 543.6621,-29.6605 683.1786,-17.1516 753.6153,-12.3997"/>
<polygon fill="#191970" stroke="#191970" points="754.1433,-15.8728 763.8939,-11.7284 753.6871,-8.8877 754.1433,-15.8728"/>
</g>
<!-- Node104&#45;&gt;Node3 -->
<g id="edge37" class="edge">
<title>Node104&#45;&gt;Node3</title>
<path fill="none" stroke="#191970" d="M473.4124,-112.2455C485.0057,-103.814 501.9748,-91.4729 515.4678,-81.6598"/>
<polygon fill="#191970" stroke="#191970" points="517.7126,-84.355 523.7413,-75.6427 513.5953,-78.6938 517.7126,-84.355"/>
</g>
<!-- Node104&#45;&gt;Node85 -->
<g id="edge38" class="edge">
<title>Node104&#45;&gt;Node85</title>
<path fill="none" stroke="#191970" d="M491.0772,-117.7449C564.0163,-107.7582 746.1788,-82.8166 828.0342,-71.609"/>
<polygon fill="#191970" stroke="#191970" points="828.5374,-75.0729 837.9701,-70.2486 827.5877,-68.1376 828.5374,-75.0729"/>
</g>
<!-- Node106&#45;&gt;Node2 -->
<g id="edge40" class="edge">
<title>Node106&#45;&gt;Node2</title>
<path fill="none" stroke="#191970" d="M795,-112.4509C795,-94.184 795,-53.9553 795,-29.6976"/>
<polygon fill="#191970" stroke="#191970" points="798.5001,-29.5249 795,-19.5249 791.5001,-29.5249 798.5001,-29.5249"/>
</g>
<!-- Node106&#45;&gt;Node85 -->
<g id="edge41" class="edge">
<title>Node106&#45;&gt;Node85</title>
<path fill="none" stroke="#191970" d="M807.8898,-112.2455C818.9254,-103.8943 835.0292,-91.7076 847.9353,-81.9408"/>
<polygon fill="#191970" stroke="#191970" points="850.3959,-84.4681 856.2579,-75.6427 846.1717,-78.8862 850.3959,-84.4681"/>
</g>
<!-- Node107&#45;&gt;Node85 -->
<g id="edge43" class="edge">
<title>Node107&#45;&gt;Node85</title>
<path fill="none" stroke="#191970" d="M881.3872,-112.2455C879.4084,-104.8579 876.6256,-94.4689 874.1988,-85.4087"/>
<polygon fill="#191970" stroke="#191970" points="877.5511,-84.3966 871.5829,-75.6427 870.7895,-86.2078 877.5511,-84.3966"/>
</g>
<!-- Node108&#45;&gt;Node2 -->
<g id="edge45" class="edge">
<title>Node108&#45;&gt;Node2</title>
<path fill="none" stroke="#191970" d="M62.0575,-60.2169C71.34,-58.6527 81.5587,-57.0925 91,-56 341.5131,-27.0129 644.4501,-14.8976 753.4393,-11.2654"/>
<polygon fill="#191970" stroke="#191970" points="753.7928,-14.7558 763.6729,-10.9305 753.5637,-7.7596 753.7928,-14.7558"/>
</g>
<!-- Node109&#45;&gt;Node2 -->
<g id="edge47" class="edge">
<title>Node109&#45;&gt;Node2</title>
<path fill="none" stroke="#191970" d="M1414.5774,-168.1644C1393.2525,-144.0411 1334.2363,-82.0182 1270,-56 1191.6617,-24.2699 936.4761,-13.8981 836.0945,-10.9946"/>
<polygon fill="#191970" stroke="#191970" points="836.1273,-7.4942 826.0335,-10.7138 835.9319,-14.4915 836.1273,-7.4942"/>
</g>
<!-- Node109&#45;&gt;Node6 -->
<g id="edge48" class="edge">
<title>Node109&#45;&gt;Node6</title>
<path fill="none" stroke="#191970" d="M1414.1131,-168.391C1402.3384,-154.4828 1384.639,-128.5953 1399,-112 1417.3335,-90.8141 1603.2394,-74.478 1681.5332,-68.4846"/>
<polygon fill="#191970" stroke="#191970" points="1682.1292,-71.9497 1691.838,-67.7081 1681.6032,-64.9695 1682.1292,-71.9497"/>
</g>
<!-- Node109&#45;&gt;Node7 -->
<g id="edge54" class="edge">
<title>Node109&#45;&gt;Node7</title>
<path fill="none" stroke="#191970" d="M1425.9612,-168.2455C1428.2038,-160.8579 1431.3577,-150.4689 1434.1081,-141.4087"/>
<polygon fill="#191970" stroke="#191970" points="1437.517,-142.2282 1437.0728,-131.6427 1430.8188,-140.1948 1437.517,-142.2282"/>
</g>
<!-- Node109&#45;&gt;Node110 -->
<g id="edge49" class="edge">
<title>Node109&#45;&gt;Node110</title>
<path fill="none" stroke="#191970" d="M1399.105,-168.3733C1376.4918,-159.2629 1342.3458,-145.5062 1317.1127,-135.3404"/>
<polygon fill="#191970" stroke="#191970" points="1318.1666,-131.9917 1307.5831,-131.5011 1315.5507,-138.4845 1318.1666,-131.9917"/>
</g>
<!-- Node110&#45;&gt;Node1 -->
<g id="edge50" class="edge">
<title>Node110&#45;&gt;Node1</title>
<path fill="none" stroke="#191970" d="M1308.2989,-112.4509C1359.1988,-92.4482 1477.1085,-46.1117 1535.2893,-23.2477"/>
<polygon fill="#191970" stroke="#191970" points="1536.7356,-26.44 1544.7626,-19.5249 1534.1753,-19.925 1536.7356,-26.44"/>
</g>
<!-- Node110&#45;&gt;Node2 -->
<g id="edge51" class="edge">
<title>Node110&#45;&gt;Node2</title>
<path fill="none" stroke="#191970" d="M1281.6618,-112.4209C1277.4819,-97.5537 1267.2092,-69.2587 1247,-56 1213.0473,-33.7245 941.2434,-17.5209 836.2155,-12.0345"/>
<polygon fill="#191970" stroke="#191970" points="836.1681,-8.5275 826.001,-11.5073 835.8073,-15.5182 836.1681,-8.5275"/>
</g>
<!-- Node110&#45;&gt;Node3 -->
<g id="edge52" class="edge">
<title>Node110&#45;&gt;Node3</title>
<path fill="none" stroke="#191970" d="M1253.6945,-117.6332C1239.5319,-115.7032 1222.4267,-113.5299 1207,-112 964.9186,-87.9924 672.3814,-72.5621 572.4423,-67.6751"/>
<polygon fill="#191970" stroke="#191970" points="572.4546,-64.1717 562.2967,-67.183 572.1154,-71.1635 572.4546,-64.1717"/>
</g>
<!-- Node110&#45;&gt;Node53 -->
<g id="edge53" class="edge">
<title>Node110&#45;&gt;Node53</title>
<path fill="none" stroke="#191970" d="M1269.8909,-112.2455C1257.5791,-103.7337 1239.5042,-91.2375 1225.2462,-81.3801"/>
<polygon fill="#191970" stroke="#191970" points="1227.1634,-78.4506 1216.9474,-75.6427 1223.1826,-84.2085 1227.1634,-78.4506"/>
</g>
<!-- Node113&#45;&gt;Node7 -->
<g id="edge57" class="edge">
<title>Node113&#45;&gt;Node7</title>
<path fill="none" stroke="#191970" d="M1342.2849,-168.3733C1361.1421,-159.4241 1389.446,-145.9917 1410.7455,-135.8835"/>
<polygon fill="#191970" stroke="#191970" points="1412.4461,-138.9506 1419.9798,-131.5011 1409.4449,-132.6266 1412.4461,-138.9506"/>
</g>
<!-- Node113&#45;&gt;Node110 -->
<g id="edge56" class="edge">
<title>Node113&#45;&gt;Node110</title>
<path fill="none" stroke="#191970" d="M1315.3809,-168.2455C1310.0954,-160.4564 1302.5459,-149.3308 1296.1762,-139.9439"/>
<polygon fill="#191970" stroke="#191970" points="1299.0545,-137.9522 1290.5432,-131.6427 1293.2621,-141.8827 1299.0545,-137.9522"/>
</g>
<!-- Node115&#45;&gt;Node6 -->
<g id="edge61" class="edge">
<title>Node115&#45;&gt;Node6</title>
<path fill="none" stroke="#191970" d="M1775.1231,-168.2042C1771.0162,-154.9539 1762.7635,-130.8137 1752,-112 1746.2442,-101.9392 1738.4518,-91.6927 1731.5888,-83.4317"/>
<polygon fill="#191970" stroke="#191970" points="1734.0654,-80.9431 1724.8976,-75.6326 1728.7527,-85.5012 1734.0654,-80.9431"/>
</g>
<!-- Node116&#45;&gt;Node2 -->
<g id="edge64" class="edge">
<title>Node116&#45;&gt;Node2</title>
<path fill="none" stroke="#191970" d="M239.2256,-112.3202C257.351,-97.3149 294.8045,-68.8342 332,-56 409.5433,-29.2439 655.4674,-15.989 753.7927,-11.6534"/>
<polygon fill="#191970" stroke="#191970" points="754.0982,-15.1436 763.9377,-11.2148 753.7958,-8.1501 754.0982,-15.1436"/>
</g>
<!-- Node116&#45;&gt;Node3 -->
<g id="edge63" class="edge">
<title>Node116&#45;&gt;Node3</title>
<path fill="none" stroke="#191970" d="M277.3036,-113.0647C340.052,-101.6928 446.8878,-82.331 501.9269,-72.3563"/>
<polygon fill="#191970" stroke="#191970" points="502.6818,-75.7766 511.8974,-70.5493 501.4335,-68.8888 502.6818,-75.7766"/>
</g>
<!-- Node117&#45;&gt;Node2 -->
<g id="edge66" class="edge">
<title>Node117&#45;&gt;Node2</title>
<path fill="none" stroke="#191970" d="M332.6937,-112.2338C331.3495,-97.638 331.2942,-70.3212 347,-56 376.7434,-28.8788 648.5216,-15.6254 753.7006,-11.4783"/>
<polygon fill="#191970" stroke="#191970" points="754.0737,-14.9666 763.9311,-11.0831 753.8034,-7.9718 754.0737,-14.9666"/>
</g>
<!-- Node117&#45;&gt;Node3 -->
<g id="edge67" class="edge">
<title>Node117&#45;&gt;Node3</title>
<path fill="none" stroke="#191970" d="M368.8969,-112.3733C406.0961,-102.1114 464.6643,-85.9547 501.9297,-75.6746"/>
<polygon fill="#191970" stroke="#191970" points="503.1309,-78.974 511.8401,-72.9407 501.2694,-72.2261 503.1309,-78.974"/>
</g>
<!-- Node118&#45;&gt;Node2 -->
<g id="edge69" class="edge">
<title>Node118&#45;&gt;Node2</title>
<path fill="none" stroke="#191970" d="M317.9726,-173.8724C268.016,-167.9009 188.0487,-154.9684 170,-132 164.5079,-125.0108 165.2372,-119.5052 170,-112 201.3199,-62.6466 232.5918,-71.3234 289,-56 376.4417,-32.2463 649.4174,-16.9925 753.8234,-11.8942"/>
<polygon fill="#191970" stroke="#191970" points="754.1498,-15.3826 763.9696,-11.4049 753.8126,-8.3908 754.1498,-15.3826"/>
</g>
<!-- Node118&#45;&gt;Node104 -->
<g id="edge70" class="edge">
<title>Node118&#45;&gt;Node104</title>
<path fill="none" stroke="#191970" d="M376.5929,-168.2455C392.379,-159.4928 415.7639,-146.527 433.7587,-136.5496"/>
<polygon fill="#191970" stroke="#191970" points="435.5603,-139.5528 442.6087,-131.6427 432.1659,-133.4308 435.5603,-139.5528"/>
</g>
<!-- Node119&#45;&gt;Node2 -->
<g id="edge72" class="edge">
<title>Node119&#45;&gt;Node2</title>
<path fill="none" stroke="#191970" d="M455.6035,-58.1773C460.4667,-57.4321 465.3282,-56.6956 470,-56 571.7691,-40.848 691.6512,-24.1871 753.4728,-15.6829"/>
<polygon fill="#191970" stroke="#191970" points="754.174,-19.1195 763.6045,-14.2907 753.2211,-12.1846 754.174,-19.1195"/>
</g>
<!-- Node123&#45;&gt;Node2 -->
<g id="edge75" class="edge">
<title>Node123&#45;&gt;Node2</title>
<path fill="none" stroke="#191970" d="M1521.6452,-112.4164C1487.4505,-97.543 1417.9485,-69.2397 1356,-56 1256.5942,-34.7549 948.2664,-17.661 836.2266,-12.0017"/>
<polygon fill="#191970" stroke="#191970" points="836.173,-8.4947 826.0104,-11.4899 835.8228,-15.4859 836.173,-8.4947"/>
</g>
<!-- Node123&#45;&gt;Node6 -->
<g id="edge76" class="edge">
<title>Node123&#45;&gt;Node6</title>
<path fill="none" stroke="#191970" d="M1572.7398,-112.3733C1603.1633,-102.5252 1650.3591,-87.2479 1682.185,-76.9459"/>
<polygon fill="#191970" stroke="#191970" points="1683.5012,-80.1987 1691.9373,-73.7891 1681.3454,-73.5389 1683.5012,-80.1987"/>
</g>
<!-- Node124&#45;&gt;Node2 -->
<g id="edge79" class="edge">
<title>Node124&#45;&gt;Node2</title>
<path fill="none" stroke="#191970" d="M1640.9124,-168.4924C1649.6127,-145.6412 1667.5643,-87.2215 1638,-56 1610.1724,-26.6126 1002.6886,-13.6907 836.6278,-10.6998"/>
<polygon fill="#191970" stroke="#191970" points="836.3994,-7.1953 826.3388,-10.5171 836.2751,-14.1942 836.3994,-7.1953"/>
</g>
<!-- Node124&#45;&gt;Node6 -->
<g id="edge78" class="edge">
<title>Node124&#45;&gt;Node6</title>
<path fill="none" stroke="#191970" d="M1645.8348,-168.4941C1654.0616,-159.4369 1666.4561,-145.2548 1676,-132 1687.0879,-116.6009 1698.1498,-98.0405 1705.8211,-84.5294"/>
<polygon fill="#191970" stroke="#191970" points="1708.932,-86.1372 1710.7595,-75.7012 1702.8229,-82.7198 1708.932,-86.1372"/>
</g>
<!-- Node124&#45;&gt;Node7 -->
<g id="edge84" class="edge">
<title>Node124&#45;&gt;Node7</title>
<path fill="none" stroke="#191970" d="M1603.1345,-168.3733C1569.5487,-158.826 1518.0132,-144.1763 1481.8757,-133.9037"/>
<polygon fill="#191970" stroke="#191970" points="1482.695,-130.4981 1472.1191,-131.1303 1480.781,-137.2313 1482.695,-130.4981"/>
</g>
<!-- Node124&#45;&gt;Node125 -->
<g id="edge80" class="edge">
<title>Node124&#45;&gt;Node125</title>
<path fill="none" stroke="#191970" d="M1670.8655,-168.3733C1705.0546,-158.6545 1757.8442,-143.6484 1794.0567,-133.3544"/>
<polygon fill="#191970" stroke="#191970" points="1795.1398,-136.6853 1803.8017,-130.5843 1793.2258,-129.952 1795.1398,-136.6853"/>
</g>
<!-- Node125&#45;&gt;Node2 -->
<g id="edge81" class="edge">
<title>Node125&#45;&gt;Node2</title>
<path fill="none" stroke="#191970" d="M1825.2626,-112.104C1811.0478,-96.8027 1781.243,-67.9235 1749,-56 1662.6454,-24.066 1008.0624,-12.9187 836.2137,-10.5263"/>
<polygon fill="#191970" stroke="#191970" points="836.1111,-7.0247 826.0641,-10.3875 836.0153,-14.024 836.1111,-7.0247"/>
</g>
<!-- Node125&#45;&gt;Node6 -->
<g id="edge82" class="edge">
<title>Node125&#45;&gt;Node6</title>
<path fill="none" stroke="#191970" d="M1813.7151,-112.3733C1794.8579,-103.4241 1766.554,-89.9917 1745.2545,-79.8835"/>
<polygon fill="#191970" stroke="#191970" points="1746.5551,-76.6266 1736.0202,-75.5011 1743.5539,-82.9506 1746.5551,-76.6266"/>
</g>
<!-- Node125&#45;&gt;Node90 -->
<g id="edge83" class="edge">
<title>Node125&#45;&gt;Node90</title>
<path fill="none" stroke="#191970" d="M1834,-112.2455C1834,-104.9382 1834,-94.6944 1834,-85.7046"/>
<polygon fill="#191970" stroke="#191970" points="1837.5001,-85.6426 1834,-75.6427 1830.5001,-85.6427 1837.5001,-85.6426"/>
</g>
</g>
</svg>
