<?xml version="1.0" encoding="UTF-8" standalone="no"?>
<!DOCTYPE svg PUBLIC "-//W3C//DTD SVG 1.1//EN"
 "http://www.w3.org/Graphics/SVG/1.1/DTD/svg11.dtd">
<!-- Generated by graphviz version 7.1.0 (0)
 -->
<!-- Title: debug/graphviz.c Pages: 1 -->
<svg width="2560pt" height="247pt"
 viewBox="0.00 0.00 2560.39 247.00" xmlns="http://www.w3.org/2000/svg" xmlns:xlink="http://www.w3.org/1999/xlink">
<g id="graph0" class="graph" transform="scale(1 1) rotate(0) translate(4 243)">
<title>debug/graphviz.c</title>
<!-- Node1 -->
<g id="node1" class="node">
<title>Node1</title>
<g id="a_node1"><a xlink:title="Create a GraphViz dot file from the NeoMutt objects.">
<polygon fill="#999999" stroke="#666666" points="1313.39,-239 1216.39,-239 1216.39,-220 1313.39,-220 1313.39,-239"/>
<text text-anchor="middle" x="1264.89" y="-227" font-family="Helvetica,sans-Serif" font-size="10.00">debug/graphviz.c</text>
</a>
</g>
</g>
<!-- Node2 -->
<g id="node2" class="node">
<title>Node2</title>
<g id="a_node2"><a xlink:title=" ">
<polygon fill="#e0e0e0" stroke="#999999" points="157.89,-19 103.89,-19 103.89,0 157.89,0 157.89,-19"/>
<text text-anchor="middle" x="130.89" y="-7" font-family="Helvetica,sans-Serif" font-size="10.00">config.h</text>
</a>
</g>
</g>
<!-- Node1&#45;&gt;Node2 -->
<g id="edge1" class="edge">
<title>Node1&#45;&gt;Node2</title>
<path fill="none" stroke="#63b8ff" d="M1215.89,-228.59C993.28,-228.76 86.17,-226.82 44.89,-184 25.76,-164.16 -49.2,-215.98 51.89,-55 61.34,-39.94 77.83,-29.51 93.3,-22.55"/>
<polygon fill="#63b8ff" stroke="#63b8ff" points="94.42,-25.88 102.36,-18.85 91.77,-19.4 94.42,-25.88"/>
</g>
<!-- Node3 -->
<g id="node3" class="node">
<title>Node3</title>
<g id="a_node3"><a xlink:title=" ">
<polygon fill="#e0e0e0" stroke="#999999" points="1206.89,-19 1146.89,-19 1146.89,0 1206.89,0 1206.89,-19"/>
<text text-anchor="middle" x="1176.89" y="-7" font-family="Helvetica,sans-Serif" font-size="10.00">stdbool.h</text>
</a>
</g>
</g>
<!-- Node1&#45;&gt;Node3 -->
<g id="edge2" class="edge">
<title>Node1&#45;&gt;Node3</title>
<path fill="none" stroke="#63b8ff" d="M1313.49,-229.34C1428.63,-229.61 1702.77,-219.12 1624.89,-110 1577.64,-43.8 1320.8,-19.9 1218.74,-12.94"/>
<polygon fill="#63b8ff" stroke="#63b8ff" points="1219.08,-9.46 1208.87,-12.29 1218.62,-16.44 1219.08,-9.46"/>
</g>
<!-- Node4 -->
<g id="node4" class="node">
<title>Node4</title>
<g id="a_node4"><a xlink:title=" ">
<polygon fill="#e0e0e0" stroke="#999999" points="1145.89,-74 1097.89,-74 1097.89,-55 1145.89,-55 1145.89,-74"/>
<text text-anchor="middle" x="1121.89" y="-62" font-family="Helvetica,sans-Serif" font-size="10.00">stdio.h</text>
</a>
</g>
</g>
<!-- Node1&#45;&gt;Node4 -->
<g id="edge3" class="edge">
<title>Node1&#45;&gt;Node4</title>
<path fill="none" stroke="#63b8ff" d="M1246.85,-219.66C1218.76,-204.91 1164.88,-172.57 1136.89,-129 1128.53,-116 1124.82,-98.82 1123.18,-85.62"/>
<polygon fill="#63b8ff" stroke="#63b8ff" points="1126.69,-85.58 1122.29,-75.94 1119.72,-86.22 1126.69,-85.58"/>
</g>
<!-- Node5 -->
<g id="node5" class="node">
<title>Node5</title>
<g id="a_node5"><a xlink:title=" ">
<polygon fill="#e0e0e0" stroke="#999999" points="2189.39,-184 2136.39,-184 2136.39,-165 2189.39,-165 2189.39,-184"/>
<text text-anchor="middle" x="2162.89" y="-172" font-family="Helvetica,sans-Serif" font-size="10.00">string.h</text>
</a>
</g>
</g>
<!-- Node1&#45;&gt;Node5 -->
<g id="edge4" class="edge">
<title>Node1&#45;&gt;Node5</title>
<path fill="none" stroke="#63b8ff" d="M1313.44,-228.57C1444.47,-228.18 1816.02,-223.41 2121.89,-184 2122.9,-183.87 2123.92,-183.73 2124.95,-183.58"/>
<polygon fill="#63b8ff" stroke="#63b8ff" points="2125.32,-187.06 2134.59,-181.92 2124.14,-180.17 2125.32,-187.06"/>
</g>
<!-- Node6 -->
<g id="node6" class="node">
<title>Node6</title>
<g id="a_node6"><a xlink:title=" ">
<polygon fill="#e0e0e0" stroke="#999999" points="2268.39,-184 2207.39,-184 2207.39,-165 2268.39,-165 2268.39,-184"/>
<text text-anchor="middle" x="2237.89" y="-172" font-family="Helvetica,sans-Serif" font-size="10.00">sys/stat.h</text>
</a>
</g>
</g>
<!-- Node1&#45;&gt;Node6 -->
<g id="edge5" class="edge">
<title>Node1&#45;&gt;Node6</title>
<path fill="none" stroke="#63b8ff" d="M1313.76,-229.04C1451.32,-229.94 1853.54,-228.39 2195.51,-184.23"/>
<polygon fill="#63b8ff" stroke="#63b8ff" points="2195.93,-187.71 2205.39,-182.94 2195.02,-180.77 2195.93,-187.71"/>
</g>
<!-- Node7 -->
<g id="node7" class="node">
<title>Node7</title>
<g id="a_node7"><a xlink:title=" ">
<polygon fill="#e0e0e0" stroke="#999999" points="669.39,-74 622.39,-74 622.39,-55 669.39,-55 669.39,-74"/>
<text text-anchor="middle" x="645.89" y="-62" font-family="Helvetica,sans-Serif" font-size="10.00">time.h</text>
</a>
</g>
</g>
<!-- Node1&#45;&gt;Node7 -->
<g id="edge6" class="edge">
<title>Node1&#45;&gt;Node7</title>
<path fill="none" stroke="#63b8ff" d="M1215.91,-227.18C1100.78,-223.66 815.84,-212.26 724.89,-184 677.93,-169.41 653.54,-171.54 628.89,-129 620.84,-115.11 626.76,-97.32 633.74,-84.11"/>
<polygon fill="#63b8ff" stroke="#63b8ff" points="636.71,-85.96 638.79,-75.57 630.68,-82.39 636.71,-85.96"/>
</g>
<!-- Node8 -->
<g id="node8" class="node">
<title>Node8</title>
<g id="a_node8"><a xlink:href="mutt_2lib_8h.html" target="_top" xlink:title="Convenience wrapper for the library headers.">
<polygon fill="#fff0f0" stroke="red" points="235.89,-129 173.89,-129 173.89,-110 235.89,-110 235.89,-129"/>
<text text-anchor="middle" x="204.89" y="-117" font-family="Helvetica,sans-Serif" font-size="10.00">mutt/lib.h</text>
</a>
</g>
</g>
<!-- Node1&#45;&gt;Node8 -->
<g id="edge7" class="edge">
<title>Node1&#45;&gt;Node8</title>
<path fill="none" stroke="#63b8ff" d="M1215.98,-228.34C1010.48,-227.42 225.83,-221.47 189.89,-184 178.39,-172.02 184.98,-152.93 192.71,-138.81"/>
<polygon fill="#63b8ff" stroke="#63b8ff" points="195.58,-140.83 197.78,-130.47 189.6,-137.19 195.58,-140.83"/>
</g>
<!-- Node55 -->
<g id="node9" class="node">
<title>Node55</title>
<g id="a_node9"><a xlink:href="address_2lib_8h.html" target="_top" xlink:title="Email Address Handling.">
<polygon fill="#fff0f0" stroke="red" points="2362.89,-184 2286.89,-184 2286.89,-165 2362.89,-165 2362.89,-184"/>
<text text-anchor="middle" x="2324.89" y="-172" font-family="Helvetica,sans-Serif" font-size="10.00">address/lib.h</text>
</a>
</g>
</g>
<!-- Node1&#45;&gt;Node55 -->
<g id="edge9" class="edge">
<title>Node1&#45;&gt;Node55</title>
<path fill="none" stroke="#63b8ff" d="M1313.83,-228.69C1459.01,-228.74 1900.02,-225.34 2275.12,-184.14"/>
<polygon fill="#63b8ff" stroke="#63b8ff" points="2275.42,-187.63 2284.97,-183.05 2274.64,-180.68 2275.42,-187.63"/>
</g>
<!-- Node60 -->
<g id="node10" class="node">
<title>Node60</title>
<g id="a_node10"><a xlink:href="config_2lib_8h.html" target="_top" xlink:title="Convenience wrapper for the config headers.">
<polygon fill="#fff0f0" stroke="red" points="417.89,-74 349.89,-74 349.89,-55 417.89,-55 417.89,-74"/>
<text text-anchor="middle" x="383.89" y="-62" font-family="Helvetica,sans-Serif" font-size="10.00">config/lib.h</text>
</a>
</g>
</g>
<!-- Node1&#45;&gt;Node60 -->
<g id="edge10" class="edge">
<title>Node1&#45;&gt;Node60</title>
<path fill="none" stroke="#63b8ff" d="M1216.16,-227.46C1054.12,-223.75 539.57,-210.03 469.89,-184 432.49,-170.03 420.49,-162.57 398.89,-129 390.52,-116.01 386.81,-98.83 385.17,-85.62"/>
<polygon fill="#63b8ff" stroke="#63b8ff" points="388.68,-85.58 384.29,-75.94 381.71,-86.22 388.68,-85.58"/>
</g>
<!-- Node75 -->
<g id="node11" class="node">
<title>Node75</title>
<g id="a_node11"><a xlink:href="email_2lib_8h.html" target="_top" xlink:title="Structs that make up an email.">
<polygon fill="#fff0f0" stroke="red" points="1505.39,-129 1440.39,-129 1440.39,-110 1505.39,-110 1505.39,-129"/>
<text text-anchor="middle" x="1472.89" y="-117" font-family="Helvetica,sans-Serif" font-size="10.00">email/lib.h</text>
</a>
</g>
</g>
<!-- Node1&#45;&gt;Node75 -->
<g id="edge12" class="edge">
<title>Node1&#45;&gt;Node75</title>
<path fill="none" stroke="#63b8ff" d="M1313.81,-226.47C1351.5,-222.61 1403.06,-212.08 1438.89,-184 1453.03,-172.91 1462.01,-154.25 1467.17,-140.02"/>
<polygon fill="#63b8ff" stroke="#63b8ff" points="1470.4,-141.41 1470.16,-130.81 1463.74,-139.24 1470.4,-141.41"/>
</g>
<!-- Node90 -->
<g id="node12" class="node">
<title>Node90</title>
<g id="a_node12"><a xlink:href="core_2lib_8h.html" target="_top" xlink:title="Convenience wrapper for the core headers.">
<polygon fill="#fff0f0" stroke="red" points="1863.89,-74 1803.89,-74 1803.89,-55 1863.89,-55 1863.89,-74"/>
<text text-anchor="middle" x="1833.89" y="-62" font-family="Helvetica,sans-Serif" font-size="10.00">core/lib.h</text>
</a>
</g>
</g>
<!-- Node1&#45;&gt;Node90 -->
<g id="edge13" class="edge">
<title>Node1&#45;&gt;Node90</title>
<path fill="none" stroke="#63b8ff" d="M1313.7,-229.1C1463.53,-230.43 1909.37,-230.42 1952.89,-184 1961.85,-174.44 1976.34,-144.68 1951.89,-110 1934.63,-85.53 1902.13,-74.5 1875.61,-69.54"/>
<polygon fill="#63b8ff" stroke="#63b8ff" points="1876.21,-66.1 1865.78,-67.96 1875.1,-73.01 1876.21,-66.1"/>
</g>
<!-- Node102 -->
<g id="node13" class="node">
<title>Node102</title>
<g id="a_node13"><a xlink:href="conn_2lib_8h.html" target="_top" xlink:title="Connection Library.">
<polygon fill="#fff0f0" stroke="red" points="131.89,-74 69.89,-74 69.89,-55 131.89,-55 131.89,-74"/>
<text text-anchor="middle" x="100.89" y="-62" font-family="Helvetica,sans-Serif" font-size="10.00">conn/lib.h</text>
</a>
</g>
</g>
<!-- Node1&#45;&gt;Node102 -->
<g id="edge14" class="edge">
<title>Node1&#45;&gt;Node102</title>
<path fill="none" stroke="#63b8ff" d="M1216.05,-228.57C995.18,-228.65 98.7,-226.35 57.89,-184 30.41,-155.5 63.23,-108.11 84.86,-82.76"/>
<polygon fill="#63b8ff" stroke="#63b8ff" points="87.42,-85.14 91.44,-75.33 82.19,-80.49 87.42,-85.14"/>
</g>
<!-- Node109 -->
<g id="node14" class="node">
<title>Node109</title>
<g id="a_node14"><a xlink:href="debug_2lib_8h.html" target="_top" xlink:title="Convenience wrapper for the debug headers.">
<polygon fill="#fff0f0" stroke="red" points="1429.89,-184 1393.89,-184 1393.89,-165 1429.89,-165 1429.89,-184"/>
<text text-anchor="middle" x="1411.89" y="-172" font-family="Helvetica,sans-Serif" font-size="10.00">lib.h</text>
</a>
</g>
</g>
<!-- Node1&#45;&gt;Node109 -->
<g id="edge16" class="edge">
<title>Node1&#45;&gt;Node109</title>
<path fill="none" stroke="#63b8ff" d="M1289.82,-219.51C1315.63,-210.21 1355.88,-195.69 1383.04,-185.9"/>
<polygon fill="#63b8ff" stroke="#63b8ff" points="1384.15,-189.22 1392.37,-182.54 1381.78,-182.63 1384.15,-189.22"/>
</g>
<!-- Node110 -->
<g id="node15" class="node">
<title>Node110</title>
<g id="a_node15"><a xlink:href="expando_2lib_8h.html" target="_top" xlink:title="Parse Expando string.">
<polygon fill="#fff0f0" stroke="red" points="1927.89,-129 1847.89,-129 1847.89,-110 1927.89,-110 1927.89,-129"/>
<text text-anchor="middle" x="1887.89" y="-117" font-family="Helvetica,sans-Serif" font-size="10.00">expando/lib.h</text>
</a>
</g>
</g>
<!-- Node1&#45;&gt;Node110 -->
<g id="edge30" class="edge">
<title>Node1&#45;&gt;Node110</title>
<path fill="none" stroke="#63b8ff" d="M1313.63,-227.61C1427.47,-225.02 1707.81,-215.54 1795.89,-184 1824.56,-173.73 1852.65,-152.19 1870.1,-137.05"/>
<polygon fill="#63b8ff" stroke="#63b8ff" points="1872.39,-139.7 1877.51,-130.43 1867.72,-134.49 1872.39,-139.7"/>
</g>
<!-- Node130 -->
<g id="node16" class="node">
<title>Node130</title>
<g id="a_node16"><a xlink:href="attach_2lib_8h.html" target="_top" xlink:title="GUI display the mailboxes in a side panel.">
<polygon fill="#fff0f0" stroke="red" points="1943.89,-184 1875.89,-184 1875.89,-165 1943.89,-165 1943.89,-184"/>
<text text-anchor="middle" x="1909.89" y="-172" font-family="Helvetica,sans-Serif" font-size="10.00">attach/lib.h</text>
</a>
</g>
</g>
<!-- Node1&#45;&gt;Node130 -->
<g id="edge23" class="edge">
<title>Node1&#45;&gt;Node130</title>
<path fill="none" stroke="#63b8ff" d="M1313.54,-226.35C1415.13,-221.52 1657.14,-208.32 1858.89,-184 1860.67,-183.78 1862.49,-183.55 1864.32,-183.3"/>
<polygon fill="#63b8ff" stroke="#63b8ff" points="1864.77,-186.78 1874.16,-181.86 1863.76,-179.85 1864.77,-186.78"/>
</g>
<!-- Node135 -->
<g id="node17" class="node">
<title>Node135</title>
<g id="a_node17"><a xlink:href="compmbox_2lib_8h.html" target="_top" xlink:title="Compressed mbox local mailbox type.">
<polygon fill="white" stroke="#666666" points="1615.89,-129 1523.89,-129 1523.89,-110 1615.89,-110 1615.89,-129"/>
<text text-anchor="middle" x="1569.89" y="-117" font-family="Helvetica,sans-Serif" font-size="10.00">compmbox/lib.h</text>
</a>
</g>
</g>
<!-- Node1&#45;&gt;Node135 -->
<g id="edge27" class="edge">
<title>Node1&#45;&gt;Node135</title>
<path fill="none" stroke="#63b8ff" d="M1313.63,-221.67C1354.05,-215.01 1412.51,-203.06 1460.89,-184 1492.93,-171.37 1526.74,-150.3 1548.05,-135.92"/>
<polygon fill="#63b8ff" stroke="#63b8ff" points="1549.94,-138.87 1556.2,-130.32 1545.98,-133.1 1549.94,-138.87"/>
</g>
<!-- Node136 -->
<g id="node18" class="node">
<title>Node136</title>
<g id="a_node18"><a xlink:href="imap_2lib_8h.html" target="_top" xlink:title="IMAP network mailbox.">
<polygon fill="#fff0f0" stroke="red" points="1383.89,-129 1321.89,-129 1321.89,-110 1383.89,-110 1383.89,-129"/>
<text text-anchor="middle" x="1352.89" y="-117" font-family="Helvetica,sans-Serif" font-size="10.00">imap/lib.h</text>
</a>
</g>
</g>
<!-- Node1&#45;&gt;Node136 -->
<g id="edge31" class="edge">
<title>Node1&#45;&gt;Node136</title>
<path fill="none" stroke="#63b8ff" d="M1272.09,-219.66C1286.53,-201.94 1319.26,-161.77 1338.34,-138.35"/>
<polygon fill="#63b8ff" stroke="#63b8ff" points="1341.03,-140.6 1344.63,-130.63 1335.6,-136.18 1341.03,-140.6"/>
</g>
<!-- Node138 -->
<g id="node19" class="node">
<title>Node138</title>
<g id="a_node19"><a xlink:href="maildir_2lib_8h.html" target="_top" xlink:title="Maildir local mailbox type.">
<polygon fill="white" stroke="#666666" points="2131.39,-129 2060.39,-129 2060.39,-110 2131.39,-110 2131.39,-129"/>
<text text-anchor="middle" x="2095.89" y="-117" font-family="Helvetica,sans-Serif" font-size="10.00">maildir/lib.h</text>
</a>
</g>
</g>
<!-- Node1&#45;&gt;Node138 -->
<g id="edge35" class="edge">
<title>Node1&#45;&gt;Node138</title>
<path fill="none" stroke="#63b8ff" d="M1313.78,-229.1C1457.99,-230.32 1879.47,-229.78 2007.89,-184 2036.04,-173.96 2063.09,-151.99 2079.59,-136.72"/>
<polygon fill="#63b8ff" stroke="#63b8ff" points="2081.72,-139.53 2086.53,-130.09 2076.88,-134.47 2081.72,-139.53"/>
</g>
<!-- Node139 -->
<g id="node20" class="node">
<title>Node139</title>
<g id="a_node20"><a xlink:title=" ">
<polygon fill="#e0e0e0" stroke="#999999" points="2446.89,-184 2380.89,-184 2380.89,-165 2446.89,-165 2446.89,-184"/>
<text text-anchor="middle" x="2413.89" y="-172" font-family="Helvetica,sans-Serif" font-size="10.00">mbox/lib.h</text>
</a>
</g>
</g>
<!-- Node1&#45;&gt;Node139 -->
<g id="edge37" class="edge">
<title>Node1&#45;&gt;Node139</title>
<path fill="none" stroke="#63b8ff" d="M1313.83,-227.57C1496.71,-223.94 2140.67,-209.71 2369.27,-184.07"/>
<polygon fill="#63b8ff" stroke="#63b8ff" points="2369.46,-187.57 2378.99,-182.93 2368.65,-180.62 2369.46,-187.57"/>
</g>
<!-- Node80 -->
<g id="node21" class="node">
<title>Node80</title>
<g id="a_node21"><a xlink:href="ncrypt_2lib_8h.html" target="_top" xlink:title="API for encryption/signing of emails.">
<polygon fill="#fff0f0" stroke="red" points="1089.89,-129 1019.89,-129 1019.89,-110 1089.89,-110 1089.89,-129"/>
<text text-anchor="middle" x="1054.89" y="-117" font-family="Helvetica,sans-Serif" font-size="10.00">ncrypt/lib.h</text>
</a>
</g>
</g>
<!-- Node1&#45;&gt;Node80 -->
<g id="edge38" class="edge">
<title>Node1&#45;&gt;Node80</title>
<path fill="none" stroke="#63b8ff" d="M1216.07,-223.26C1182.25,-217.75 1137.46,-206.56 1103.89,-184 1086.94,-172.61 1073.33,-153.44 1064.8,-139.13"/>
<polygon fill="#63b8ff" stroke="#63b8ff" points="1067.99,-137.67 1060.03,-130.67 1061.89,-141.1 1067.99,-137.67"/>
</g>
<!-- Node140 -->
<g id="node22" class="node">
<title>Node140</title>
<g id="a_node22"><a xlink:href="nntp_2lib_8h.html" target="_top" xlink:title="Usenet network mailbox type; talk to an NNTP server.">
<polygon fill="#fff0f0" stroke="red" points="1207.89,-129 1145.89,-129 1145.89,-110 1207.89,-110 1207.89,-129"/>
<text text-anchor="middle" x="1176.89" y="-117" font-family="Helvetica,sans-Serif" font-size="10.00">nntp/lib.h</text>
</a>
</g>
</g>
<!-- Node1&#45;&gt;Node140 -->
<g id="edge41" class="edge">
<title>Node1&#45;&gt;Node140</title>
<path fill="none" stroke="#63b8ff" d="M1257.68,-219.66C1243.25,-201.94 1210.51,-161.77 1191.43,-138.35"/>
<polygon fill="#63b8ff" stroke="#63b8ff" points="1194.17,-136.18 1185.14,-130.63 1188.75,-140.6 1194.17,-136.18"/>
</g>
<!-- Node142 -->
<g id="node23" class="node">
<title>Node142</title>
<g id="a_node23"><a xlink:href="pattern_2lib_8h.html" target="_top" xlink:title="Match patterns to emails.">
<polygon fill="#fff0f0" stroke="red" points="142.39,-184 67.39,-184 67.39,-165 142.39,-165 142.39,-184"/>
<text text-anchor="middle" x="104.89" y="-172" font-family="Helvetica,sans-Serif" font-size="10.00">pattern/lib.h</text>
</a>
</g>
</g>
<!-- Node1&#45;&gt;Node142 -->
<g id="edge45" class="edge">
<title>Node1&#45;&gt;Node142</title>
<path fill="none" stroke="#63b8ff" d="M1216.14,-228.66C1060.98,-228.71 564.85,-225.38 156.89,-184 155.89,-183.9 154.89,-183.79 153.87,-183.68"/>
<polygon fill="#63b8ff" stroke="#63b8ff" points="154.74,-180.26 144.37,-182.45 153.84,-187.2 154.74,-180.26"/>
</g>
<!-- Node146 -->
<g id="node24" class="node">
<title>Node146</title>
<g id="a_node24"><a xlink:href="pop_2lib_8h.html" target="_top" xlink:title="POP network mailbox.">
<polygon fill="white" stroke="#666666" points="2207.89,-129 2149.89,-129 2149.89,-110 2207.89,-110 2207.89,-129"/>
<text text-anchor="middle" x="2178.89" y="-117" font-family="Helvetica,sans-Serif" font-size="10.00">pop/lib.h</text>
</a>
</g>
</g>
<!-- Node1&#45;&gt;Node146 -->
<g id="edge49" class="edge">
<title>Node1&#45;&gt;Node146</title>
<path fill="none" stroke="#63b8ff" d="M1313.87,-228.03C1461.5,-226.23 1900.52,-218.1 2038.89,-184 2061.27,-178.48 2117.23,-151.48 2151.23,-134.51"/>
<polygon fill="#63b8ff" stroke="#63b8ff" points="2152.71,-137.69 2160.07,-130.08 2149.57,-131.43 2152.71,-137.69"/>
</g>
<!-- Node147 -->
<g id="node25" class="node">
<title>Node147</title>
<g id="a_node25"><a xlink:href="imap_2adata_8h.html" target="_top" xlink:title="Imap&#45;specific Account data.">
<polygon fill="white" stroke="#666666" points="276.39,-184 199.39,-184 199.39,-165 276.39,-165 276.39,-184"/>
<text text-anchor="middle" x="237.89" y="-172" font-family="Helvetica,sans-Serif" font-size="10.00">imap/adata.h</text>
</a>
</g>
</g>
<!-- Node1&#45;&gt;Node147 -->
<g id="edge51" class="edge">
<title>Node1&#45;&gt;Node147</title>
<path fill="none" stroke="#63b8ff" d="M1216.01,-228.58C1074.05,-228.34 649.34,-224.14 288.02,-184.21"/>
<polygon fill="#63b8ff" stroke="#63b8ff" points="288.64,-180.75 278.31,-183.12 287.86,-187.71 288.64,-180.75"/>
</g>
<!-- Node148 -->
<g id="node26" class="node">
<title>Node148</title>
<g id="a_node26"><a xlink:href="imap_2private_8h.html" target="_top" xlink:title="Shared constants/structs that are private to IMAP.">
<polygon fill="#fff0f0" stroke="red" points="351.39,-129 292.39,-129 292.39,-110 351.39,-110 351.39,-129"/>
<text text-anchor="middle" x="321.89" y="-117" font-family="Helvetica,sans-Serif" font-size="10.00">private.h</text>
</a>
</g>
</g>
<!-- Node1&#45;&gt;Node148 -->
<g id="edge64" class="edge">
<title>Node1&#45;&gt;Node148</title>
<path fill="none" stroke="#63b8ff" d="M1215.9,-228.98C1059.94,-230.02 576.54,-229.4 427.89,-184 394.91,-173.93 361.57,-151.48 341.31,-136.16"/>
<polygon fill="#63b8ff" stroke="#63b8ff" points="343.71,-133.6 333.67,-130.23 339.42,-139.13 343.71,-133.6"/>
</g>
<!-- Node149 -->
<g id="node27" class="node">
<title>Node149</title>
<g id="a_node27"><a xlink:href="imap_2mdata_8h.html" target="_top" xlink:title="Imap&#45;specific Mailbox data.">
<polygon fill="#fff0f0" stroke="red" points="375.39,-184 294.39,-184 294.39,-165 375.39,-165 375.39,-184"/>
<text text-anchor="middle" x="334.89" y="-172" font-family="Helvetica,sans-Serif" font-size="10.00">imap/mdata.h</text>
</a>
</g>
</g>
<!-- Node1&#45;&gt;Node149 -->
<g id="edge60" class="edge">
<title>Node1&#45;&gt;Node149</title>
<path fill="none" stroke="#63b8ff" d="M1215.9,-227.77C1082.8,-225.4 703.48,-216.12 389.89,-184 388.88,-183.9 387.86,-183.79 386.83,-183.67"/>
<polygon fill="#63b8ff" stroke="#63b8ff" points="387.53,-180.23 377.17,-182.47 386.66,-187.18 387.53,-180.23"/>
</g>
<!-- Node150 -->
<g id="node28" class="node">
<title>Node150</title>
<g id="a_node28"><a xlink:href="maildir_2edata_8h.html" target="_top" xlink:title="Maildir&#45;specific Email data.">
<polygon fill="white" stroke="#666666" points="2552.39,-184 2465.39,-184 2465.39,-165 2552.39,-165 2552.39,-184"/>
<text text-anchor="middle" x="2508.89" y="-172" font-family="Helvetica,sans-Serif" font-size="10.00">maildir/edata.h</text>
</a>
</g>
</g>
<!-- Node1&#45;&gt;Node150 -->
<g id="edge65" class="edge">
<title>Node1&#45;&gt;Node150</title>
<path fill="none" stroke="#63b8ff" d="M1313.81,-228.8C1475.17,-229.34 2005.29,-227.54 2453.74,-184.06"/>
<polygon fill="#63b8ff" stroke="#63b8ff" points="2453.86,-187.57 2463.47,-183.11 2453.18,-180.6 2453.86,-187.57"/>
</g>
<!-- Node151 -->
<g id="node29" class="node">
<title>Node151</title>
<g id="a_node29"><a xlink:href="maildir_2mdata_8h.html" target="_top" xlink:title="Maildir&#45;specific Mailbox data.">
<polygon fill="#fff0f0" stroke="red" points="727.89,-129 637.89,-129 637.89,-110 727.89,-110 727.89,-129"/>
<text text-anchor="middle" x="682.89" y="-117" font-family="Helvetica,sans-Serif" font-size="10.00">maildir/mdata.h</text>
</a>
</g>
</g>
<!-- Node1&#45;&gt;Node151 -->
<g id="edge66" class="edge">
<title>Node1&#45;&gt;Node151</title>
<path fill="none" stroke="#63b8ff" d="M1216.08,-227.95C1105.65,-226.12 839.85,-218.18 757.89,-184 733.63,-173.89 711.41,-152.95 697.56,-137.88"/>
<polygon fill="#63b8ff" stroke="#63b8ff" points="700.32,-135.72 691.07,-130.54 695.07,-140.35 700.32,-135.72"/>
</g>
<!-- Node152 -->
<g id="node30" class="node">
<title>Node152</title>
<g id="a_node30"><a xlink:href="mview_8h.html" target="_top" xlink:title="View of a Mailbox.">
<polygon fill="#fff0f0" stroke="red" points="1784.39,-74 1729.39,-74 1729.39,-55 1784.39,-55 1784.39,-74"/>
<text text-anchor="middle" x="1756.89" y="-62" font-family="Helvetica,sans-Serif" font-size="10.00">mview.h</text>
</a>
</g>
</g>
<!-- Node1&#45;&gt;Node152 -->
<g id="edge68" class="edge">
<title>Node1&#45;&gt;Node152</title>
<path fill="none" stroke="#63b8ff" d="M1313.55,-226.4C1408.96,-221.79 1617.13,-209.12 1683.89,-184 1723.59,-169.06 1742.36,-166.66 1761.89,-129 1768.9,-115.47 1766.91,-98.11 1763.58,-84.96"/>
<polygon fill="#63b8ff" stroke="#63b8ff" points="1767.04,-84.31 1760.81,-75.74 1760.34,-86.33 1767.04,-84.31"/>
</g>
<!-- Node153 -->
<g id="node31" class="node">
<title>Node153</title>
<g id="a_node31"><a xlink:href="nntp_2adata_8h.html" target="_top" xlink:title="Nntp&#45;specific Account data.">
<polygon fill="#fff0f0" stroke="red" points="1303.39,-129 1226.39,-129 1226.39,-110 1303.39,-110 1303.39,-129"/>
<text text-anchor="middle" x="1264.89" y="-117" font-family="Helvetica,sans-Serif" font-size="10.00">nntp/adata.h</text>
</a>
</g>
</g>
<!-- Node1&#45;&gt;Node153 -->
<g id="edge70" class="edge">
<title>Node1&#45;&gt;Node153</title>
<path fill="none" stroke="#63b8ff" d="M1264.89,-219.66C1264.89,-202.57 1264.89,-164.61 1264.89,-140.92"/>
<polygon fill="#63b8ff" stroke="#63b8ff" points="1268.39,-140.97 1264.89,-130.97 1261.39,-140.97 1268.39,-140.97"/>
</g>
<!-- Node154 -->
<g id="node32" class="node">
<title>Node154</title>
<g id="a_node32"><a xlink:href="nntp_2mdata_8h.html" target="_top" xlink:title="Nntp&#45;specific Mailbox data.">
<polygon fill="white" stroke="#666666" points="990.89,-184 910.89,-184 910.89,-165 990.89,-165 990.89,-184"/>
<text text-anchor="middle" x="950.89" y="-172" font-family="Helvetica,sans-Serif" font-size="10.00">nntp/mdata.h</text>
</a>
</g>
</g>
<!-- Node1&#45;&gt;Node154 -->
<g id="edge73" class="edge">
<title>Node1&#45;&gt;Node154</title>
<path fill="none" stroke="#63b8ff" d="M1216.17,-220.28C1158.19,-210.49 1061.81,-194.22 1002.56,-184.22"/>
<polygon fill="#63b8ff" stroke="#63b8ff" points="1003.16,-180.77 992.72,-182.56 1002,-187.68 1003.16,-180.77"/>
</g>
<!-- Node155 -->
<g id="node33" class="node">
<title>Node155</title>
<g id="a_node33"><a xlink:href="pop_2adata_8h.html" target="_top" xlink:title="Pop&#45;specific Account data.">
<polygon fill="white" stroke="#666666" points="581.39,-184 508.39,-184 508.39,-165 581.39,-165 581.39,-184"/>
<text text-anchor="middle" x="544.89" y="-172" font-family="Helvetica,sans-Serif" font-size="10.00">pop/adata.h</text>
</a>
</g>
</g>
<!-- Node1&#45;&gt;Node155 -->
<g id="edge77" class="edge">
<title>Node1&#45;&gt;Node155</title>
<path fill="none" stroke="#63b8ff" d="M1216.05,-226.9C1105.38,-222.93 827.13,-210.89 595.89,-184 594.89,-183.88 593.89,-183.76 592.87,-183.64"/>
<polygon fill="#63b8ff" stroke="#63b8ff" points="593.76,-180.22 583.37,-182.31 592.79,-187.16 593.76,-180.22"/>
</g>
<!-- Node156 -->
<g id="node34" class="node">
<title>Node156</title>
<g id="a_node34"><a xlink:href="pop_2private_8h.html" target="_top" xlink:title="POP network mailbox.">
<polygon fill="white" stroke="#666666" points="467.39,-129 408.39,-129 408.39,-110 467.39,-110 467.39,-129"/>
<text text-anchor="middle" x="437.89" y="-117" font-family="Helvetica,sans-Serif" font-size="10.00">private.h</text>
</a>
</g>
</g>
<!-- Node1&#45;&gt;Node156 -->
<g id="edge85" class="edge">
<title>Node1&#45;&gt;Node156</title>
<path fill="none" stroke="#63b8ff" d="M1216.14,-227.73C1057.7,-224.93 563.76,-213.89 498.89,-184 477.9,-174.33 460.44,-153.95 449.65,-138.87"/>
<polygon fill="#63b8ff" stroke="#63b8ff" points="452.64,-137.05 444.13,-130.73 446.84,-140.97 452.64,-137.05"/>
</g>
<!-- Node157 -->
<g id="node35" class="node">
<title>Node157</title>
<g id="a_node35"><a xlink:href="notmuch_2lib_8h.html" target="_top" xlink:title="Notmuch virtual mailbox type.">
<polygon fill="#fff0f0" stroke="red" points="1753.39,-129 1672.39,-129 1672.39,-110 1753.39,-110 1753.39,-129"/>
<text text-anchor="middle" x="1712.89" y="-117" font-family="Helvetica,sans-Serif" font-size="10.00">notmuch/lib.h</text>
</a>
</g>
</g>
<!-- Node1&#45;&gt;Node157 -->
<g id="edge86" class="edge">
<title>Node1&#45;&gt;Node157</title>
<path fill="none" stroke="#63b8ff" d="M1313.57,-227.36C1405.16,-224.52 1599.19,-214.92 1657.89,-184 1677.2,-173.83 1692.73,-153.84 1702.3,-139"/>
<polygon fill="#63b8ff" stroke="#63b8ff" points="1705.2,-140.97 1707.4,-130.6 1699.21,-137.33 1705.2,-140.97"/>
</g>
<!-- Node158 -->
<g id="node36" class="node">
<title>Node158</title>
<g id="a_node36"><a xlink:href="notmuch_2adata_8h.html" target="_top" xlink:title="Notmuch&#45;specific Account data.">
<polygon fill="#fff0f0" stroke="red" points="2219.89,-74 2123.89,-74 2123.89,-55 2219.89,-55 2219.89,-74"/>
<text text-anchor="middle" x="2171.89" y="-62" font-family="Helvetica,sans-Serif" font-size="10.00">notmuch/adata.h</text>
</a>
</g>
</g>
<!-- Node1&#45;&gt;Node158 -->
<g id="edge89" class="edge">
<title>Node1&#45;&gt;Node158</title>
<path fill="none" stroke="#63b8ff" d="M1313.75,-227.86C1465.95,-225.55 1930.06,-215.99 2076.89,-184 2080.97,-183.11 2214.53,-132.45 2216.89,-129 2228.08,-112.57 2211.55,-94.05 2195.46,-81.27"/>
<polygon fill="#63b8ff" stroke="#63b8ff" points="2197.59,-78.5 2187.46,-75.37 2193.43,-84.13 2197.59,-78.5"/>
</g>
<!-- Node160 -->
<g id="node37" class="node">
<title>Node160</title>
<g id="a_node37"><a xlink:href="notmuch_2mdata_8h.html" target="_top" xlink:title="Notmuch&#45;specific Mailbox data.">
<polygon fill="#fff0f0" stroke="red" points="866.89,-184 766.89,-184 766.89,-165 866.89,-165 866.89,-184"/>
<text text-anchor="middle" x="816.89" y="-172" font-family="Helvetica,sans-Serif" font-size="10.00">notmuch/mdata.h</text>
</a>
</g>
</g>
<!-- Node1&#45;&gt;Node160 -->
<g id="edge91" class="edge">
<title>Node1&#45;&gt;Node160</title>
<path fill="none" stroke="#63b8ff" d="M1216.09,-222.73C1134.07,-213.02 968.75,-193.47 878.72,-182.82"/>
<polygon fill="#63b8ff" stroke="#63b8ff" points="879.18,-179.35 868.84,-181.65 878.36,-186.3 879.18,-179.35"/>
</g>
<!-- Node162 -->
<g id="node38" class="node">
<title>Node162</title>
<g id="a_node38"><a xlink:href="notmuch_2private_8h.html" target="_top" xlink:title="Notmuch private types.">
<polygon fill="#fff0f0" stroke="red" points="963.89,-129 859.89,-129 859.89,-110 963.89,-110 963.89,-129"/>
<text text-anchor="middle" x="911.89" y="-117" font-family="Helvetica,sans-Serif" font-size="10.00">notmuch/private.h</text>
</a>
</g>
</g>
<!-- Node1&#45;&gt;Node162 -->
<g id="edge93" class="edge">
<title>Node1&#45;&gt;Node162</title>
<path fill="none" stroke="#63b8ff" d="M1221.36,-219.54C1183.81,-211.45 1128.32,-198.59 1080.89,-184 1032.3,-169.06 977.45,-147.57 943.77,-133.82"/>
<polygon fill="#63b8ff" stroke="#63b8ff" points="945.18,-130.61 934.6,-130.05 942.52,-137.09 945.18,-130.61"/>
</g>
<!-- Node8&#45;&gt;Node2 -->
<g id="edge8" class="edge">
<title>Node8&#45;&gt;Node2</title>
<path fill="none" stroke="#63b8ff" d="M198.83,-109.66C186.74,-92.02 159.41,-52.12 143.33,-28.67"/>
<polygon fill="#63b8ff" stroke="#63b8ff" points="146.42,-26.98 137.88,-20.71 140.65,-30.94 146.42,-26.98"/>
</g>
<!-- Node60&#45;&gt;Node3 -->
<g id="edge11" class="edge">
<title>Node60&#45;&gt;Node3</title>
<path fill="none" stroke="#63b8ff" d="M418.1,-57.61C424.65,-56.62 431.47,-55.7 437.89,-55 702.34,-26.29 1022.19,-14.92 1135.03,-11.61"/>
<polygon fill="#63b8ff" stroke="#63b8ff" points="1135.12,-15.11 1145.02,-11.33 1134.92,-8.11 1135.12,-15.11"/>
</g>
<!-- Node102&#45;&gt;Node2 -->
<g id="edge15" class="edge">
<title>Node102&#45;&gt;Node2</title>
<path fill="none" stroke="#63b8ff" d="M105.84,-54.75C109.72,-47.88 115.27,-38.08 120.16,-29.45"/>
<polygon fill="#63b8ff" stroke="#63b8ff" points="123.2,-31.19 125.08,-20.76 117.11,-27.74 123.2,-31.19"/>
</g>
<!-- Node109&#45;&gt;Node3 -->
<g id="edge17" class="edge">
<title>Node109&#45;&gt;Node3</title>
<path fill="none" stroke="#63b8ff" d="M1410.76,-164.67C1408.81,-151.81 1403.88,-127.55 1392.89,-110 1373.68,-79.35 1364.46,-72.66 1332.89,-55 1296.82,-34.83 1250.86,-23.17 1218.19,-16.88"/>
<polygon fill="#63b8ff" stroke="#63b8ff" points="1219.18,-13.5 1208.72,-15.15 1217.92,-20.39 1219.18,-13.5"/>
</g>
<!-- Node109&#45;&gt;Node7 -->
<g id="edge18" class="edge">
<title>Node109&#45;&gt;Node7</title>
<path fill="none" stroke="#63b8ff" d="M1393.45,-173.73C1335.7,-173.99 1153.64,-171.15 1010.89,-129 992.78,-123.65 990.93,-115.57 972.89,-110 869.98,-78.23 741.9,-69.12 681.09,-66.53"/>
<polygon fill="#63b8ff" stroke="#63b8ff" points="681.49,-63.04 671.37,-66.15 681.22,-70.03 681.49,-63.04"/>
</g>
<!-- Node109&#45;&gt;Node8 -->
<g id="edge19" class="edge">
<title>Node109&#45;&gt;Node8</title>
<path fill="none" stroke="#63b8ff" d="M1393.59,-173.25C1286.8,-171.71 733.31,-162.38 282.89,-129 271.37,-128.15 258.93,-126.93 247.44,-125.68"/>
<polygon fill="#63b8ff" stroke="#63b8ff" points="248.17,-122.24 237.84,-124.6 247.39,-129.19 248.17,-122.24"/>
</g>
<!-- Node109&#45;&gt;Node75 -->
<g id="edge20" class="edge">
<title>Node109&#45;&gt;Node75</title>
<path fill="none" stroke="#63b8ff" d="M1422.23,-164.51C1430.96,-156.93 1443.68,-145.88 1454.18,-136.75"/>
<polygon fill="#63b8ff" stroke="#63b8ff" points="1456.3,-139.55 1461.55,-130.35 1451.7,-134.27 1456.3,-139.55"/>
</g>
<!-- Node109&#45;&gt;Node90 -->
<g id="edge21" class="edge">
<title>Node109&#45;&gt;Node90</title>
<path fill="none" stroke="#63b8ff" d="M1430,-172.6C1492.92,-169.26 1701.47,-156.32 1761.89,-129 1785.28,-118.42 1806.59,-97.59 1819.85,-82.66"/>
<polygon fill="#63b8ff" stroke="#63b8ff" points="1822.19,-85.31 1826.03,-75.43 1816.87,-80.76 1822.19,-85.31"/>
</g>
<!-- Node109&#45;&gt;Node110 -->
<g id="edge22" class="edge">
<title>Node109&#45;&gt;Node110</title>
<path fill="none" stroke="#63b8ff" d="M1430.02,-171.92C1488.59,-166.75 1677.94,-149.48 1833.89,-129 1834.71,-128.89 1835.55,-128.78 1836.39,-128.67"/>
<polygon fill="#63b8ff" stroke="#63b8ff" points="1836.61,-132.17 1846.02,-127.3 1835.63,-125.24 1836.61,-132.17"/>
</g>
<!-- Node130&#45;&gt;Node3 -->
<g id="edge24" class="edge">
<title>Node130&#45;&gt;Node3</title>
<path fill="none" stroke="#63b8ff" d="M1923.06,-164.61C1939.04,-152.65 1962.59,-130.5 1951.89,-110 1932.08,-72.08 1913.28,-69.11 1872.89,-55 1751.09,-12.46 1349.8,-9.91 1218.71,-10.25"/>
<polygon fill="#63b8ff" stroke="#63b8ff" points="1218.75,-6.75 1208.76,-10.28 1218.77,-13.75 1218.75,-6.75"/>
</g>
<!-- Node130&#45;&gt;Node90 -->
<g id="edge25" class="edge">
<title>Node130&#45;&gt;Node90</title>
<path fill="none" stroke="#63b8ff" d="M1918.74,-164.8C1930.57,-152.09 1948.73,-128.02 1936.89,-110 1923.16,-89.11 1897.31,-77.98 1874.95,-72.08"/>
<polygon fill="#63b8ff" stroke="#63b8ff" points="1875.99,-68.73 1865.46,-69.86 1874.4,-75.54 1875.99,-68.73"/>
</g>
<!-- Node130&#45;&gt;Node110 -->
<g id="edge26" class="edge">
<title>Node130&#45;&gt;Node110</title>
<path fill="none" stroke="#63b8ff" d="M1906.25,-164.75C1903.47,-158.04 1899.52,-148.52 1895.99,-140.02"/>
<polygon fill="#63b8ff" stroke="#63b8ff" points="1899.24,-138.73 1892.18,-130.84 1892.78,-141.42 1899.24,-138.73"/>
</g>
<!-- Node135&#45;&gt;Node3 -->
<g id="edge28" class="edge">
<title>Node135&#45;&gt;Node3</title>
<path fill="none" stroke="#63b8ff" d="M1553.1,-109.51C1526.75,-95.77 1473.71,-69.59 1425.89,-55 1354.72,-33.29 1268.7,-20.83 1218.65,-14.88"/>
<polygon fill="#63b8ff" stroke="#63b8ff" points="1219.17,-11.42 1208.83,-13.75 1218.37,-18.37 1219.17,-11.42"/>
</g>
<!-- Node135&#45;&gt;Node4 -->
<g id="edge29" class="edge">
<title>Node135&#45;&gt;Node4</title>
<path fill="none" stroke="#63b8ff" d="M1523.46,-111.32C1520.22,-110.86 1517.01,-110.41 1513.89,-110 1382.63,-92.59 1226.07,-76.1 1157.27,-69.07"/>
<polygon fill="#63b8ff" stroke="#63b8ff" points="1158.05,-65.63 1147.74,-68.1 1157.34,-72.59 1158.05,-65.63"/>
</g>
<!-- Node136&#45;&gt;Node2 -->
<g id="edge32" class="edge">
<title>Node136&#45;&gt;Node2</title>
<path fill="none" stroke="#63b8ff" d="M1331.4,-109.5C1295.56,-94.98 1220.98,-66.82 1154.89,-55 960.28,-20.21 332.1,-12.29 169.57,-10.8"/>
<polygon fill="#63b8ff" stroke="#63b8ff" points="169.8,-7.31 159.77,-10.72 169.74,-14.3 169.8,-7.31"/>
</g>
<!-- Node136&#45;&gt;Node3 -->
<g id="edge33" class="edge">
<title>Node136&#45;&gt;Node3</title>
<path fill="none" stroke="#63b8ff" d="M1349.23,-109.77C1343.08,-96.14 1329.4,-69.81 1309.89,-55 1283.04,-34.62 1246.34,-23.27 1218.29,-17.14"/>
<polygon fill="#63b8ff" stroke="#63b8ff" points="1219.22,-13.76 1208.72,-15.2 1217.82,-20.62 1219.22,-13.76"/>
</g>
<!-- Node136&#45;&gt;Node90 -->
<g id="edge34" class="edge">
<title>Node136&#45;&gt;Node90</title>
<path fill="none" stroke="#63b8ff" d="M1384.38,-115C1398.58,-113.44 1415.58,-111.6 1430.89,-110 1588.09,-93.62 1631.14,-98.22 1792.21,-73.89"/>
<polygon fill="#63b8ff" stroke="#63b8ff" points="1792.65,-77.37 1802,-72.4 1791.59,-70.45 1792.65,-77.37"/>
</g>
<!-- Node138&#45;&gt;Node90 -->
<g id="edge36" class="edge">
<title>Node138&#45;&gt;Node90</title>
<path fill="none" stroke="#63b8ff" d="M2060.01,-111.24C2011.77,-101.48 1926.2,-84.17 1875.29,-73.88"/>
<polygon fill="#63b8ff" stroke="#63b8ff" points="1876.04,-70.46 1865.54,-71.9 1874.65,-77.32 1876.04,-70.46"/>
</g>
<!-- Node80&#45;&gt;Node3 -->
<g id="edge39" class="edge">
<title>Node80&#45;&gt;Node3</title>
<path fill="none" stroke="#63b8ff" d="M1057.69,-109.64C1062.29,-96.29 1072.61,-70.9 1088.89,-55 1102.85,-41.36 1121.83,-31.04 1138.59,-23.79"/>
<polygon fill="#63b8ff" stroke="#63b8ff" points="1139.87,-27.05 1147.81,-20.04 1137.23,-20.57 1139.87,-27.05"/>
</g>
<!-- Node80&#45;&gt;Node4 -->
<g id="edge40" class="edge">
<title>Node80&#45;&gt;Node4</title>
<path fill="none" stroke="#63b8ff" d="M1066.25,-109.51C1075.94,-101.85 1090.09,-90.66 1101.69,-81.47"/>
<polygon fill="#63b8ff" stroke="#63b8ff" points="1103.83,-84.25 1109.5,-75.3 1099.49,-78.76 1103.83,-84.25"/>
</g>
<!-- Node140&#45;&gt;Node3 -->
<g id="edge42" class="edge">
<title>Node140&#45;&gt;Node3</title>
<path fill="none" stroke="#63b8ff" d="M1176.89,-109.66C1176.89,-92.57 1176.89,-54.61 1176.89,-30.92"/>
<polygon fill="#63b8ff" stroke="#63b8ff" points="1180.39,-30.97 1176.89,-20.97 1173.39,-30.97 1180.39,-30.97"/>
</g>
<!-- Node140&#45;&gt;Node4 -->
<g id="edge43" class="edge">
<title>Node140&#45;&gt;Node4</title>
<path fill="none" stroke="#63b8ff" d="M1167.8,-109.75C1160.05,-102.27 1148.68,-91.32 1139.19,-82.17"/>
<polygon fill="#63b8ff" stroke="#63b8ff" points="1141.88,-79.91 1132.26,-75.49 1137.03,-84.95 1141.88,-79.91"/>
</g>
<!-- Node140&#45;&gt;Node90 -->
<g id="edge44" class="edge">
<title>Node140&#45;&gt;Node90</title>
<path fill="none" stroke="#63b8ff" d="M1208.25,-111.38C1211.16,-110.86 1214.07,-110.38 1216.89,-110 1467.42,-75.74 1536.71,-107.2 1792.38,-73.78"/>
<polygon fill="#63b8ff" stroke="#63b8ff" points="1792.57,-77.28 1802.02,-72.5 1791.64,-70.35 1792.57,-77.28"/>
</g>
<!-- Node142&#45;&gt;Node2 -->
<g id="edge46" class="edge">
<title>Node142&#45;&gt;Node2</title>
<path fill="none" stroke="#63b8ff" d="M96.73,-164.79C78.89,-144.66 39.65,-93.66 60.89,-55 68.4,-41.32 82.1,-31.25 95.39,-24.18"/>
<polygon fill="#63b8ff" stroke="#63b8ff" points="96.54,-27.52 104.02,-20.01 93.49,-21.21 96.54,-27.52"/>
</g>
<!-- Node142&#45;&gt;Node3 -->
<g id="edge47" class="edge">
<title>Node142&#45;&gt;Node3</title>
<path fill="none" stroke="#63b8ff" d="M110.55,-164.74C126.54,-140.96 174.81,-75.62 234.89,-55 320.7,-25.54 964.19,-13.73 1135.23,-11.1"/>
<polygon fill="#63b8ff" stroke="#63b8ff" points="1135.03,-14.6 1144.98,-10.95 1134.93,-7.6 1135.03,-14.6"/>
</g>
<!-- Node142&#45;&gt;Node8 -->
<g id="edge48" class="edge">
<title>Node142&#45;&gt;Node8</title>
<path fill="none" stroke="#63b8ff" d="M121.85,-164.51C137.24,-156.35 160.2,-144.19 178.07,-134.71"/>
<polygon fill="#63b8ff" stroke="#63b8ff" points="179.64,-137.84 186.84,-130.07 176.36,-131.66 179.64,-137.84"/>
</g>
<!-- Node146&#45;&gt;Node90 -->
<g id="edge50" class="edge">
<title>Node146&#45;&gt;Node90</title>
<path fill="none" stroke="#63b8ff" d="M2149.47,-111.69C2146.58,-111.09 2143.68,-110.51 2140.89,-110 2046.29,-92.59 1934.27,-77.81 1875.17,-70.47"/>
<polygon fill="#63b8ff" stroke="#63b8ff" points="1875.93,-67.04 1865.58,-69.29 1875.08,-73.99 1875.93,-67.04"/>
</g>
<!-- Node147&#45;&gt;Node3 -->
<g id="edge52" class="edge">
<title>Node147&#45;&gt;Node3</title>
<path fill="none" stroke="#63b8ff" d="M213.1,-164.69C185.95,-153.63 148.32,-133.26 164.89,-110 186.58,-79.55 287.19,-62.16 323.89,-55 482.07,-24.15 986.59,-13.61 1135.27,-11.13"/>
<polygon fill="#63b8ff" stroke="#63b8ff" points="1135.1,-14.63 1145.04,-10.97 1134.98,-7.63 1135.1,-14.63"/>
</g>
<!-- Node147&#45;&gt;Node7 -->
<g id="edge53" class="edge">
<title>Node147&#45;&gt;Node7</title>
<path fill="none" stroke="#63b8ff" d="M241.3,-164.74C247.33,-150.57 261.31,-122.88 282.89,-110 337.72,-77.27 530.54,-68.5 610.61,-66.24"/>
<polygon fill="#63b8ff" stroke="#63b8ff" points="610.6,-69.75 620.51,-65.99 610.42,-62.75 610.6,-69.75"/>
</g>
<!-- Node147&#45;&gt;Node8 -->
<g id="edge59" class="edge">
<title>Node147&#45;&gt;Node8</title>
<path fill="none" stroke="#63b8ff" d="M232.44,-164.75C228.12,-157.81 221.92,-147.86 216.5,-139.16"/>
<polygon fill="#63b8ff" stroke="#63b8ff" points="219.51,-137.37 211.25,-130.73 213.57,-141.07 219.51,-137.37"/>
</g>
<!-- Node147&#45;&gt;Node148 -->
<g id="edge54" class="edge">
<title>Node147&#45;&gt;Node148</title>
<path fill="none" stroke="#63b8ff" d="M252.14,-164.51C264.76,-156.54 283.44,-144.75 298.3,-135.38"/>
<polygon fill="#63b8ff" stroke="#63b8ff" points="299.98,-138.46 306.57,-130.17 296.24,-132.54 299.98,-138.46"/>
</g>
<!-- Node148&#45;&gt;Node2 -->
<g id="edge55" class="edge">
<title>Node148&#45;&gt;Node2</title>
<path fill="none" stroke="#63b8ff" d="M306.26,-109.66C273.38,-91.07 196.79,-47.77 156.58,-25.03"/>
<polygon fill="#63b8ff" stroke="#63b8ff" points="158.48,-22.08 148.05,-20.21 155.03,-28.17 158.48,-22.08"/>
</g>
<!-- Node148&#45;&gt;Node3 -->
<g id="edge56" class="edge">
<title>Node148&#45;&gt;Node3</title>
<path fill="none" stroke="#63b8ff" d="M321.6,-109.82C321.66,-95.76 324.06,-68.23 340.89,-55 372.4,-30.21 970.94,-15.09 1135.39,-11.39"/>
<polygon fill="#63b8ff" stroke="#63b8ff" points="1135.03,-14.9 1144.95,-11.18 1134.88,-7.9 1135.03,-14.9"/>
</g>
<!-- Node148&#45;&gt;Node4 -->
<g id="edge57" class="edge">
<title>Node148&#45;&gt;Node4</title>
<path fill="none" stroke="#63b8ff" d="M351.84,-114.85C366.07,-113.21 383.34,-111.34 398.89,-110 662.5,-87.35 981.15,-71.87 1086.32,-67.08"/>
<polygon fill="#63b8ff" stroke="#63b8ff" points="1086.17,-70.59 1096,-66.64 1085.85,-63.6 1086.17,-70.59"/>
</g>
<!-- Node148&#45;&gt;Node60 -->
<g id="edge58" class="edge">
<title>Node148&#45;&gt;Node60</title>
<path fill="none" stroke="#63b8ff" d="M332.4,-109.51C341.27,-101.93 354.2,-90.88 364.88,-81.75"/>
<polygon fill="#63b8ff" stroke="#63b8ff" points="367.05,-84.5 372.37,-75.34 362.5,-79.18 367.05,-84.5"/>
</g>
<!-- Node149&#45;&gt;Node7 -->
<g id="edge61" class="edge">
<title>Node149&#45;&gt;Node7</title>
<path fill="none" stroke="#63b8ff" d="M364.74,-164.57C393.38,-155.88 437.78,-142.12 475.89,-129 523.87,-112.48 578.77,-91.61 612.89,-78.4"/>
<polygon fill="#63b8ff" stroke="#63b8ff" points="613.73,-81.83 621.79,-74.95 611.2,-75.31 613.73,-81.83"/>
</g>
<!-- Node149&#45;&gt;Node8 -->
<g id="edge63" class="edge">
<title>Node149&#45;&gt;Node8</title>
<path fill="none" stroke="#63b8ff" d="M312.83,-164.51C292.07,-156.04 260.73,-143.27 237.15,-133.66"/>
<polygon fill="#63b8ff" stroke="#63b8ff" points="238.6,-130.46 228.01,-129.93 235.95,-136.95 238.6,-130.46"/>
</g>
<!-- Node149&#45;&gt;Node148 -->
<g id="edge62" class="edge">
<title>Node149&#45;&gt;Node148</title>
<path fill="none" stroke="#63b8ff" d="M332.74,-164.75C331.13,-158.19 328.86,-148.95 326.82,-140.6"/>
<polygon fill="#63b8ff" stroke="#63b8ff" points="330.22,-139.79 324.44,-130.91 323.42,-141.46 330.22,-139.79"/>
</g>
<!-- Node151&#45;&gt;Node7 -->
<g id="edge67" class="edge">
<title>Node151&#45;&gt;Node7</title>
<path fill="none" stroke="#63b8ff" d="M676.78,-109.75C671.88,-102.73 664.84,-92.64 658.71,-83.87"/>
<polygon fill="#63b8ff" stroke="#63b8ff" points="661.59,-81.88 652.99,-75.68 655.85,-85.89 661.59,-81.88"/>
</g>
<!-- Node152&#45;&gt;Node3 -->
<g id="edge69" class="edge">
<title>Node152&#45;&gt;Node3</title>
<path fill="none" stroke="#63b8ff" d="M1729.35,-57.83C1723.6,-56.78 1717.56,-55.77 1711.89,-55 1528.92,-30.18 1308.75,-17.12 1218.52,-12.49"/>
<polygon fill="#63b8ff" stroke="#63b8ff" points="1218.85,-9 1208.68,-11.99 1218.49,-15.99 1218.85,-9"/>
</g>
<!-- Node153&#45;&gt;Node3 -->
<g id="edge71" class="edge">
<title>Node153&#45;&gt;Node3</title>
<path fill="none" stroke="#63b8ff" d="M1257.68,-109.66C1243.25,-91.94 1210.51,-51.77 1191.43,-28.35"/>
<polygon fill="#63b8ff" stroke="#63b8ff" points="1194.17,-26.18 1185.14,-20.63 1188.75,-30.6 1194.17,-26.18"/>
</g>
<!-- Node153&#45;&gt;Node4 -->
<g id="edge72" class="edge">
<title>Node153&#45;&gt;Node4</title>
<path fill="none" stroke="#63b8ff" d="M1240.63,-109.51C1217.48,-100.93 1182.37,-87.92 1156.33,-78.27"/>
<polygon fill="#63b8ff" stroke="#63b8ff" points="1157.8,-75.08 1147.2,-74.88 1155.37,-81.64 1157.8,-75.08"/>
</g>
<!-- Node154&#45;&gt;Node3 -->
<g id="edge74" class="edge">
<title>Node154&#45;&gt;Node3</title>
<path fill="none" stroke="#63b8ff" d="M910.71,-164.51C875.09,-154.6 831.5,-136.46 850.89,-110 884.89,-63.59 1055.3,-30.28 1135.29,-16.94"/>
<polygon fill="#63b8ff" stroke="#63b8ff" points="1135.62,-20.44 1144.92,-15.37 1134.49,-13.53 1135.62,-20.44"/>
</g>
<!-- Node154&#45;&gt;Node7 -->
<g id="edge75" class="edge">
<title>Node154&#45;&gt;Node7</title>
<path fill="none" stroke="#63b8ff" d="M923.29,-164.54C896.33,-155.73 854.18,-141.77 817.89,-129 769.79,-112.08 714.55,-91.48 679.93,-78.42"/>
<polygon fill="#63b8ff" stroke="#63b8ff" points="681.46,-75.26 670.87,-75 678.98,-81.8 681.46,-75.26"/>
</g>
<!-- Node154&#45;&gt;Node140 -->
<g id="edge76" class="edge">
<title>Node154&#45;&gt;Node140</title>
<path fill="none" stroke="#63b8ff" d="M989.22,-164.51C1029.51,-155.06 1092.72,-140.24 1134.48,-130.44"/>
<polygon fill="#63b8ff" stroke="#63b8ff" points="1135.24,-133.86 1144.18,-128.17 1133.64,-127.05 1135.24,-133.86"/>
</g>
<!-- Node155&#45;&gt;Node3 -->
<g id="edge78" class="edge">
<title>Node155&#45;&gt;Node3</title>
<path fill="none" stroke="#63b8ff" d="M546.83,-164.52C552.37,-141.36 570.69,-79.65 612.89,-55 657.67,-28.84 1012.49,-15.55 1135.26,-11.71"/>
<polygon fill="#63b8ff" stroke="#63b8ff" points="1135.33,-15.21 1145.22,-11.4 1135.11,-8.21 1135.33,-15.21"/>
</g>
<!-- Node155&#45;&gt;Node7 -->
<g id="edge79" class="edge">
<title>Node155&#45;&gt;Node7</title>
<path fill="none" stroke="#63b8ff" d="M551.06,-164.91C560.26,-152.35 578.35,-128.45 595.89,-110 605.37,-100.02 616.79,-89.74 626.32,-81.58"/>
<polygon fill="#63b8ff" stroke="#63b8ff" points="628.52,-84.31 633.92,-75.19 624.01,-78.95 628.52,-84.31"/>
</g>
<!-- Node155&#45;&gt;Node8 -->
<g id="edge84" class="edge">
<title>Node155&#45;&gt;Node8</title>
<path fill="none" stroke="#63b8ff" d="M508.18,-167.78C444.55,-157.86 314.15,-137.53 246.97,-127.06"/>
<polygon fill="#63b8ff" stroke="#63b8ff" points="247.88,-123.66 237.46,-125.58 246.8,-130.58 247.88,-123.66"/>
</g>
<!-- Node155&#45;&gt;Node156 -->
<g id="edge80" class="edge">
<title>Node155&#45;&gt;Node156</title>
<path fill="none" stroke="#63b8ff" d="M526.73,-164.51C510.11,-156.27 485.24,-143.96 466.04,-134.45"/>
<polygon fill="#63b8ff" stroke="#63b8ff" points="467.64,-131.33 457.13,-130.03 464.53,-137.6 467.64,-131.33"/>
</g>
<!-- Node156&#45;&gt;Node3 -->
<g id="edge81" class="edge">
<title>Node156&#45;&gt;Node3</title>
<path fill="none" stroke="#63b8ff" d="M441.08,-109.61C446.78,-95.23 460.17,-67.27 481.89,-55 538.71,-22.89 994.13,-13.29 1135.31,-11.07"/>
<polygon fill="#63b8ff" stroke="#63b8ff" points="1135,-14.57 1144.94,-10.92 1134.89,-7.58 1135,-14.57"/>
</g>
<!-- Node156&#45;&gt;Node7 -->
<g id="edge82" class="edge">
<title>Node156&#45;&gt;Node7</title>
<path fill="none" stroke="#63b8ff" d="M467.69,-110.91C505.52,-101.27 570.67,-84.66 610.84,-74.43"/>
<polygon fill="#63b8ff" stroke="#63b8ff" points="611.67,-77.83 620.49,-71.97 609.94,-71.05 611.67,-77.83"/>
</g>
<!-- Node156&#45;&gt;Node102 -->
<g id="edge83" class="edge">
<title>Node156&#45;&gt;Node102</title>
<path fill="none" stroke="#63b8ff" d="M407.98,-113.8C347.98,-104.36 212.77,-83.1 143.52,-72.2"/>
<polygon fill="#63b8ff" stroke="#63b8ff" points="144.11,-68.75 133.68,-70.66 143.02,-75.67 144.11,-68.75"/>
</g>
<!-- Node157&#45;&gt;Node3 -->
<g id="edge87" class="edge">
<title>Node157&#45;&gt;Node3</title>
<path fill="none" stroke="#63b8ff" d="M1708.21,-109.63C1700.12,-95.3 1682.01,-67.4 1657.89,-55 1581.74,-15.88 1321.11,-10.85 1218.69,-10.42"/>
<polygon fill="#63b8ff" stroke="#63b8ff" points="1218.82,-6.92 1208.81,-10.4 1218.8,-13.92 1218.82,-6.92"/>
</g>
<!-- Node157&#45;&gt;Node90 -->
<g id="edge88" class="edge">
<title>Node157&#45;&gt;Node90</title>
<path fill="none" stroke="#63b8ff" d="M1733.41,-109.51C1752.56,-101.12 1781.38,-88.5 1803.25,-78.92"/>
<polygon fill="#63b8ff" stroke="#63b8ff" points="1804.52,-82.18 1812.28,-74.97 1801.71,-75.77 1804.52,-82.18"/>
</g>
<!-- Node158&#45;&gt;Node3 -->
<g id="edge90" class="edge">
<title>Node158&#45;&gt;Node3</title>
<path fill="none" stroke="#63b8ff" d="M2123.43,-60.05C2100.01,-58.43 2071.49,-56.52 2045.89,-55 1727.78,-36.13 1343.88,-18.14 1218.6,-12.4"/>
<polygon fill="#63b8ff" stroke="#63b8ff" points="1218.96,-8.91 1208.81,-11.95 1218.64,-15.9 1218.96,-8.91"/>
</g>
<!-- Node160&#45;&gt;Node7 -->
<g id="edge92" class="edge">
<title>Node160&#45;&gt;Node7</title>
<path fill="none" stroke="#63b8ff" d="M807.06,-164.54C792.46,-151.51 763.88,-127.03 736.89,-110 718.04,-98.11 695.56,-87.09 677.66,-78.99"/>
<polygon fill="#63b8ff" stroke="#63b8ff" points="679.12,-75.81 668.56,-74.95 676.28,-82.21 679.12,-75.81"/>
</g>
<!-- Node162&#45;&gt;Node3 -->
<g id="edge94" class="edge">
<title>Node162&#45;&gt;Node3</title>
<path fill="none" stroke="#63b8ff" d="M933.57,-109.66C980.06,-90.72 1089.54,-46.1 1144.38,-23.75"/>
<polygon fill="#63b8ff" stroke="#63b8ff" points="1145.56,-27.05 1153.5,-20.03 1142.92,-20.56 1145.56,-27.05"/>
</g>
<!-- Node162&#45;&gt;Node7 -->
<g id="edge95" class="edge">
<title>Node162&#45;&gt;Node7</title>
<path fill="none" stroke="#63b8ff" d="M866.76,-109.51C814.29,-99.05 728.79,-82.02 681.02,-72.5"/>
<polygon fill="#63b8ff" stroke="#63b8ff" points="681.7,-69.07 671.21,-70.55 680.33,-75.93 681.7,-69.07"/>
</g>
</g>
</svg>
