<?xml version="1.0" encoding="UTF-8" standalone="no"?>
<!DOCTYPE svg PUBLIC "-//W3C//DTD SVG 1.1//EN"
 "http://www.w3.org/Graphics/SVG/1.1/DTD/svg11.dtd">
<!-- Generated by graphviz version 7.1.0 (0)
 -->
<!-- Title: dot_array_actx_idx Pages: 1 -->
<svg width="376pt" height="211pt"
 viewBox="0.00 0.00 376.00 211.00" xmlns="http://www.w3.org/2000/svg" xmlns:xlink="http://www.w3.org/1999/xlink">
<g id="graph0" class="graph" transform="scale(1 1) rotate(0) translate(4 207)">
<title>dot_array_actx_idx</title>
<!-- Node1 -->
<g id="node1" class="node">
<title>Node1</title>
<g id="a_node1"><a xlink:title=" ">
<polygon fill="#999999" stroke="#666666" points="102,-108 0,-108 0,-89 102,-89 102,-108"/>
<text text-anchor="middle" x="51" y="-96" font-family="Helvetica,sans-Serif" font-size="10.00">dot_array_actx_idx</text>
</a>
</g>
</g>
<!-- Node2 -->
<g id="node2" class="node">
<title>Node2</title>
<g id="a_node2"><a xlink:href="graphviz_8c.html#acc02aef238b4d9d7c599b328a952224a" target="_top" xlink:title=" ">
<polygon fill="#fff0f0" stroke="red" points="220,-203 146,-203 146,-184 220,-184 220,-203"/>
<text text-anchor="middle" x="183" y="-191" font-family="Helvetica,sans-Serif" font-size="10.00">dot_add_link</text>
</a>
</g>
</g>
<!-- Node1&#45;&gt;Node2 -->
<g id="edge1" class="edge">
<title>Node1&#45;&gt;Node2</title>
<path fill="none" stroke="#63b8ff" d="M62.61,-108.39C78.34,-122.8 109.13,-149.97 138,-169.5 142.33,-172.43 147.06,-175.31 151.75,-178"/>
<polygon fill="#63b8ff" stroke="#63b8ff" points="150.04,-181.05 160.49,-182.8 153.41,-174.91 150.04,-181.05"/>
</g>
<!-- Node7 -->
<g id="node3" class="node">
<title>Node7</title>
<g id="a_node3"><a xlink:href="graphviz_8c.html#a2b6e686e02aa12431c0aa3798de5c922" target="_top" xlink:title=" ">
<polygon fill="#fff0f0" stroke="red" points="228,-89 138,-89 138,-70 228,-70 228,-89"/>
<text text-anchor="middle" x="183" y="-77" font-family="Helvetica,sans-Serif" font-size="10.00">dot_attach_ptr2</text>
</a>
</g>
</g>
<!-- Node1&#45;&gt;Node7 -->
<g id="edge2" class="edge">
<title>Node1&#45;&gt;Node7</title>
<path fill="none" stroke="#63b8ff" d="M102.26,-91.15C110.23,-89.99 118.5,-88.78 126.58,-87.6"/>
<polygon fill="#63b8ff" stroke="#63b8ff" points="126.92,-91.09 136.31,-86.18 125.9,-84.16 126.92,-91.09"/>
</g>
<!-- Node8 -->
<g id="node4" class="node">
<title>Node8</title>
<g id="a_node4"><a xlink:href="graphviz_8c.html#a1cd1f4f592dd28e578c1225195d3b27b" target="_top" xlink:title=" ">
<polygon fill="white" stroke="#666666" points="366,-155 266,-155 266,-136 366,-136 366,-155"/>
<text text-anchor="middle" x="316" y="-143" font-family="Helvetica,sans-Serif" font-size="10.00">dot_object_footer</text>
</a>
</g>
</g>
<!-- Node1&#45;&gt;Node8 -->
<g id="edge7" class="edge">
<title>Node1&#45;&gt;Node8</title>
<path fill="none" stroke="#63b8ff" d="M102.4,-107.51C145.71,-115.25 208.28,-126.43 254.33,-134.66"/>
<polygon fill="#63b8ff" stroke="#63b8ff" points="253.71,-138.1 264.17,-136.42 254.95,-131.21 253.71,-138.1"/>
</g>
<!-- Node9 -->
<g id="node5" class="node">
<title>Node9</title>
<g id="a_node5"><a xlink:href="graphviz_8c.html#ad0b3a63a65a8d1f17e1ac79d30f6942f" target="_top" xlink:title=" ">
<polygon fill="#fff0f0" stroke="red" points="368,-99 264,-99 264,-80 368,-80 368,-99"/>
<text text-anchor="middle" x="316" y="-87" font-family="Helvetica,sans-Serif" font-size="10.00">dot_object_header</text>
</a>
</g>
</g>
<!-- Node1&#45;&gt;Node9 -->
<g id="edge8" class="edge">
<title>Node1&#45;&gt;Node9</title>
<path fill="none" stroke="#63b8ff" d="M102.49,-99.88C137.69,-100.5 185.74,-100.68 228,-98.5 235.83,-98.1 244.05,-97.49 252.17,-96.78"/>
<polygon fill="#63b8ff" stroke="#63b8ff" points="252.41,-100.27 262.04,-95.85 251.75,-93.3 252.41,-100.27"/>
</g>
<!-- Node10 -->
<g id="node6" class="node">
<title>Node10</title>
<g id="a_node6"><a xlink:href="graphviz_8c.html#ac6d908028efc2f211e55a6883cb013de" target="_top" xlink:title=" ">
<polygon fill="white" stroke="#666666" points="341.5,-56 290.5,-56 290.5,-37 341.5,-37 341.5,-56"/>
<text text-anchor="middle" x="316" y="-44" font-family="Helvetica,sans-Serif" font-size="10.00">dot_ptr</text>
</a>
</g>
</g>
<!-- Node1&#45;&gt;Node10 -->
<g id="edge9" class="edge">
<title>Node1&#45;&gt;Node10</title>
<path fill="none" stroke="#63b8ff" d="M70.18,-88.63C87.19,-79.89 113.56,-67.62 138,-61.5 185.71,-49.55 242.66,-46.67 278.83,-46.19"/>
<polygon fill="#63b8ff" stroke="#63b8ff" points="278.77,-49.69 288.74,-46.13 278.72,-42.69 278.77,-49.69"/>
</g>
<!-- Node13 -->
<g id="node7" class="node">
<title>Node13</title>
<g id="a_node7"><a xlink:href="graphviz_8c.html#a31f8f12f71bf220b086c45766411631c" target="_top" xlink:title=" ">
<polygon fill="white" stroke="#666666" points="366,-19 266,-19 266,0 366,0 366,-19"/>
<text text-anchor="middle" x="316" y="-7" font-family="Helvetica,sans-Serif" font-size="10.00">dot_type_number</text>
</a>
</g>
</g>
<!-- Node1&#45;&gt;Node13 -->
<g id="edge10" class="edge">
<title>Node1&#45;&gt;Node13</title>
<path fill="none" stroke="#63b8ff" d="M64.32,-88.7C80.34,-76.46 109.65,-55.75 138,-44.5 175.3,-29.69 219.61,-20.94 254.56,-15.89"/>
<polygon fill="#63b8ff" stroke="#63b8ff" points="254.63,-19.41 264.06,-14.58 253.67,-12.48 254.63,-19.41"/>
</g>
<!-- Node7&#45;&gt;Node8 -->
<g id="edge3" class="edge">
<title>Node7&#45;&gt;Node8</title>
<path fill="none" stroke="#63b8ff" d="M203.61,-89.38C225.22,-100.27 260.22,-117.9 285.22,-130.5"/>
<polygon fill="#63b8ff" stroke="#63b8ff" points="283.4,-133.5 293.9,-134.87 286.55,-127.25 283.4,-133.5"/>
</g>
<!-- Node7&#45;&gt;Node9 -->
<g id="edge4" class="edge">
<title>Node7&#45;&gt;Node9</title>
<path fill="none" stroke="#63b8ff" d="M228.35,-82.89C236.12,-83.48 244.33,-84.11 252.49,-84.73"/>
<polygon fill="#63b8ff" stroke="#63b8ff" points="252.17,-88.21 262.41,-85.49 252.7,-81.23 252.17,-88.21"/>
</g>
<!-- Node7&#45;&gt;Node10 -->
<g id="edge5" class="edge">
<title>Node7&#45;&gt;Node10</title>
<path fill="none" stroke="#63b8ff" d="M223.66,-69.51C241.45,-65.03 262.27,-59.78 279.54,-55.43"/>
<polygon fill="#63b8ff" stroke="#63b8ff" points="279.99,-58.93 288.83,-53.09 278.28,-52.14 279.99,-58.93"/>
</g>
<!-- Node7&#45;&gt;Node13 -->
<g id="edge6" class="edge">
<title>Node7&#45;&gt;Node13</title>
<path fill="none" stroke="#63b8ff" d="M197.01,-69.65C212.38,-58.35 239.04,-39.8 264,-27.5 266.71,-26.16 269.54,-24.88 272.43,-23.66"/>
<polygon fill="#63b8ff" stroke="#63b8ff" points="273.54,-26.98 281.55,-20.05 270.97,-20.47 273.54,-26.98"/>
</g>
</g>
</svg>
