<?xml version="1.0" encoding="UTF-8" standalone="no"?>
<!DOCTYPE svg PUBLIC "-//W3C//DTD SVG 1.1//EN"
 "http://www.w3.org/Graphics/SVG/1.1/DTD/svg11.dtd">
<!-- Generated by graphviz version 2.40.1 (20161225.0304)
 -->
<!-- Title: dot_account_mbox Pages: 1 -->
<svg width="260pt" height="218pt"
 viewBox="0.00 0.00 260.00 218.00" xmlns="http://www.w3.org/2000/svg" xmlns:xlink="http://www.w3.org/1999/xlink">
<g id="graph0" class="graph" transform="scale(1 1) rotate(0) translate(4 214)">
<title>dot_account_mbox</title>
<polygon fill="#ffffff" stroke="transparent" points="-4,4 -4,-214 256,-214 256,4 -4,4"/>
<!-- Node19678 -->
<g id="node1" class="node">
<title>Node19678</title>
<polygon fill="#bfbfbf" stroke="#000000" points="0,-95.5 0,-114.5 109,-114.5 109,-95.5 0,-95.5"/>
<text text-anchor="middle" x="54.5" y="-102.5" font-family="Helvetica,sans-Serif" font-size="10.00" fill="#000000">dot_account_mbox</text>
</g>
<!-- Node19679 -->
<g id="node2" class="node">
<title>Node19679</title>
<g id="a_node2"><a xlink:href="graphviz_8c.html#ae3a3025fb8683c2277aaf965ea043b45" target="_top" xlink:title="dot_object_header">
<polygon fill="#ffffff" stroke="#ff0000" points="145,-190.5 145,-209.5 252,-209.5 252,-190.5 145,-190.5"/>
<text text-anchor="middle" x="198.5" y="-197.5" font-family="Helvetica,sans-Serif" font-size="10.00" fill="#000000">dot_object_header</text>
</a>
</g>
</g>
<!-- Node19678&#45;&gt;Node19679 -->
<g id="edge1" class="edge">
<title>Node19678&#45;&gt;Node19679</title>
<path fill="none" stroke="#191970" d="M63.6702,-114.6872C79.1133,-130.5124 111.8802,-162.0418 145,-181 148.6088,-183.0657 152.4811,-184.9666 156.4321,-186.7009"/>
<polygon fill="#191970" stroke="#191970" points="155.1235,-189.947 165.7067,-190.4443 157.7435,-183.4558 155.1235,-189.947"/>
</g>
<!-- Node19681 -->
<g id="node3" class="node">
<title>Node19681</title>
<g id="a_node3"><a xlink:href="graphviz_8c.html#a2f56b10d474bf1239f934b3a19677c2d" target="_top" xlink:title="dot_ptr">
<polygon fill="#ffffff" stroke="#000000" points="173,-152.5 173,-171.5 224,-171.5 224,-152.5 173,-152.5"/>
<text text-anchor="middle" x="198.5" y="-159.5" font-family="Helvetica,sans-Serif" font-size="10.00" fill="#000000">dot_ptr</text>
</a>
</g>
</g>
<!-- Node19678&#45;&gt;Node19681 -->
<g id="edge2" class="edge">
<title>Node19678&#45;&gt;Node19681</title>
<path fill="none" stroke="#191970" d="M76.3047,-114.5617C94.5489,-122.4639 121.3221,-133.8328 145,-143 150.9114,-145.2887 157.2292,-147.6265 163.376,-149.8445"/>
<polygon fill="#191970" stroke="#191970" points="162.2171,-153.147 172.8117,-153.2067 164.5667,-146.5531 162.2171,-153.147"/>
</g>
<!-- Node19682 -->
<g id="node4" class="node">
<title>Node19682</title>
<g id="a_node4"><a xlink:href="graphviz_8c.html#ae9fa7162b25052dac0b0f775ed4a8287" target="_top" xlink:title="dot_type_date">
<polygon fill="#ffffff" stroke="#ff0000" points="155.5,-114.5 155.5,-133.5 241.5,-133.5 241.5,-114.5 155.5,-114.5"/>
<text text-anchor="middle" x="198.5" y="-121.5" font-family="Helvetica,sans-Serif" font-size="10.00" fill="#000000">dot_type_date</text>
</a>
</g>
</g>
<!-- Node19678&#45;&gt;Node19682 -->
<g id="edge3" class="edge">
<title>Node19678&#45;&gt;Node19682</title>
<path fill="none" stroke="#191970" d="M109.351,-112.2373C121.154,-113.7946 133.6097,-115.4381 145.3467,-116.9867"/>
<polygon fill="#191970" stroke="#191970" points="145.0696,-120.4804 155.4416,-118.3187 145.9854,-113.5406 145.0696,-120.4804"/>
</g>
<!-- Node19687 -->
<g id="node5" class="node">
<title>Node19687</title>
<g id="a_node5"><a xlink:href="graphviz_8c.html#a76320fed9a46a01b4d20dabc96678c94" target="_top" xlink:title="dot_type_string">
<polygon fill="#ffffff" stroke="#ff0000" points="152.5,-76.5 152.5,-95.5 244.5,-95.5 244.5,-76.5 152.5,-76.5"/>
<text text-anchor="middle" x="198.5" y="-83.5" font-family="Helvetica,sans-Serif" font-size="10.00" fill="#000000">dot_type_string</text>
</a>
</g>
</g>
<!-- Node19678&#45;&gt;Node19687 -->
<g id="edge4" class="edge">
<title>Node19678&#45;&gt;Node19687</title>
<path fill="none" stroke="#191970" d="M109.351,-97.7627C120.0723,-96.3481 131.3322,-94.8624 142.1027,-93.4413"/>
<polygon fill="#191970" stroke="#191970" points="142.7895,-96.8811 152.2457,-92.103 141.8737,-89.9413 142.7895,-96.8811"/>
</g>
<!-- Node19692 -->
<g id="node6" class="node">
<title>Node19692</title>
<g id="a_node6"><a xlink:href="graphviz_8c.html#a4b97dd3f0fe861e949d3740fda1bca93" target="_top" xlink:title="dot_type_bool">
<polygon fill="#ffffff" stroke="#000000" points="155.5,-38.5 155.5,-57.5 241.5,-57.5 241.5,-38.5 155.5,-38.5"/>
<text text-anchor="middle" x="198.5" y="-45.5" font-family="Helvetica,sans-Serif" font-size="10.00" fill="#000000">dot_type_bool</text>
</a>
</g>
</g>
<!-- Node19678&#45;&gt;Node19692 -->
<g id="edge5" class="edge">
<title>Node19678&#45;&gt;Node19692</title>
<path fill="none" stroke="#191970" d="M76.3047,-95.4383C94.5489,-87.5361 121.3221,-76.1672 145,-67 150.1703,-64.9982 155.6515,-62.9589 161.0573,-60.995"/>
<polygon fill="#191970" stroke="#191970" points="162.3905,-64.2353 170.6229,-57.5661 160.0284,-57.6458 162.3905,-64.2353"/>
</g>
<!-- Node19693 -->
<g id="node7" class="node">
<title>Node19693</title>
<g id="a_node7"><a xlink:href="graphviz_8c.html#a96022b0ce38d17ab5e632f65b223b38a" target="_top" xlink:title="dot_object_footer">
<polygon fill="#ffffff" stroke="#000000" points="147.5,-.5 147.5,-19.5 249.5,-19.5 249.5,-.5 147.5,-.5"/>
<text text-anchor="middle" x="198.5" y="-7.5" font-family="Helvetica,sans-Serif" font-size="10.00" fill="#000000">dot_object_footer</text>
</a>
</g>
</g>
<!-- Node19678&#45;&gt;Node19693 -->
<g id="edge6" class="edge">
<title>Node19678&#45;&gt;Node19693</title>
<path fill="none" stroke="#191970" d="M63.6702,-95.3128C79.1133,-79.4876 111.8802,-47.9582 145,-29 148.6088,-26.9343 152.4811,-25.0334 156.4321,-23.2991"/>
<polygon fill="#191970" stroke="#191970" points="157.7435,-26.5442 165.7067,-19.5557 155.1235,-20.053 157.7435,-26.5442"/>
</g>
</g>
</svg>
