<?xml version="1.0" encoding="UTF-8" standalone="no"?>
<!DOCTYPE svg PUBLIC "-//W3C//DTD SVG 1.1//EN"
 "http://www.w3.org/Graphics/SVG/1.1/DTD/svg11.dtd">
<!-- Generated by graphviz version 12.2.1 (20241206.2353)
 -->
<!-- Title: dot_mailbox_pop Pages: 1 -->
<svg width="242pt" height="110pt"
 viewBox="0.00 0.00 241.75 110.25" xmlns="http://www.w3.org/2000/svg" xmlns:xlink="http://www.w3.org/1999/xlink">
<g id="graph0" class="graph" transform="scale(1 1) rotate(0) translate(4 106.25)">
<title>dot_mailbox_pop</title>
<!-- Node1 -->
<g id="Node000001" class="node">
<title>Node1</title>
<g id="a_Node000001"><a xlink:title="Dump POP mailbox metadata.">
<polygon fill="#999999" stroke="#666666" points="94.75,-62.25 0,-62.25 0,-40 94.75,-40 94.75,-62.25"/>
<text text-anchor="middle" x="47.38" y="-48.75" font-family="Helvetica,sans-Serif" font-size="10.00">dot_mailbox_pop</text>
</a>
</g>
</g>
<!-- Node2 -->
<g id="Node000002" class="node">
<title>Node2</title>
<g id="a_Node000002"><a xlink:href="graphviz_8c.html#a1cd1f4f592dd28e578c1225195d3b27b" target="_top" xlink:title="Write GraphViz object footer.">
<polygon fill="white" stroke="#666666" points="231.88,-102.25 132.62,-102.25 132.62,-80 231.88,-80 231.88,-102.25"/>
<text text-anchor="middle" x="182.25" y="-88.75" font-family="Helvetica,sans-Serif" font-size="10.00">dot_object_footer</text>
</a>
</g>
</g>
<!-- Node1&#45;&gt;Node2 -->
<g id="edge1_Node000001_Node000002" class="edge">
<title>Node1&#45;&gt;Node2</title>
<g id="a_edge1_Node000001_Node000002"><a xlink:title=" ">
<path fill="none" stroke="#63b8ff" d="M86.81,-62.69C100.99,-66.97 117.26,-71.86 132.26,-76.38"/>
<polygon fill="#63b8ff" stroke="#63b8ff" points="130.87,-79.61 141.45,-79.15 132.89,-72.91 130.87,-79.61"/>
</a>
</g>
</g>
<!-- Node3 -->
<g id="Node000003" class="node">
<title>Node3</title>
<g id="a_Node000003"><a xlink:href="graphviz_8c.html#ad0b3a63a65a8d1f17e1ac79d30f6942f" target="_top" xlink:title="Write GraphViz object header.">
<polygon fill="#fff0f0" stroke="red" points="233.75,-62.25 130.75,-62.25 130.75,-40 233.75,-40 233.75,-62.25"/>
<text text-anchor="middle" x="182.25" y="-48.75" font-family="Helvetica,sans-Serif" font-size="10.00">dot_object_header</text>
</a>
</g>
</g>
<!-- Node1&#45;&gt;Node3 -->
<g id="edge2_Node000001_Node000003" class="edge">
<title>Node1&#45;&gt;Node3</title>
<g id="a_edge2_Node000001_Node000003"><a xlink:title=" ">
<path fill="none" stroke="#63b8ff" d="M95.22,-51.12C102.94,-51.12 111.05,-51.12 119.07,-51.12"/>
<polygon fill="#63b8ff" stroke="#63b8ff" points="118.8,-54.63 128.8,-51.13 118.8,-47.63 118.8,-54.63"/>
</a>
</g>
</g>
<!-- Node5 -->
<g id="Node000005" class="node">
<title>Node5</title>
<g id="a_Node000005"><a xlink:href="graphviz_8c.html#ac6d908028efc2f211e55a6883cb013de" target="_top" xlink:title="Write a pointer field to GraphViz output.">
<polygon fill="white" stroke="#666666" points="207.5,-22.25 157,-22.25 157,0 207.5,0 207.5,-22.25"/>
<text text-anchor="middle" x="182.25" y="-8.75" font-family="Helvetica,sans-Serif" font-size="10.00">dot_ptr</text>
</a>
</g>
</g>
<!-- Node1&#45;&gt;Node5 -->
<g id="edge3_Node000001_Node000005" class="edge">
<title>Node1&#45;&gt;Node5</title>
<g id="a_edge3_Node000001_Node000005"><a xlink:title=" ">
<path fill="none" stroke="#63b8ff" d="M86.81,-39.56C105.38,-33.96 127.53,-27.3 145.71,-21.83"/>
<polygon fill="#63b8ff" stroke="#63b8ff" points="146.71,-25.18 155.27,-18.95 144.69,-18.48 146.71,-25.18"/>
</a>
</g>
</g>
</g>
</svg>
