<?xml version="1.0" encoding="UTF-8" standalone="no"?>
<!DOCTYPE svg PUBLIC "-//W3C//DTD SVG 1.1//EN"
 "http://www.w3.org/Graphics/SVG/1.1/DTD/svg11.dtd">
<!-- Generated by graphviz version 7.1.0 (0)
 -->
<!-- Title: dot_list_head Pages: 1 -->
<svg width="330pt" height="238pt"
 viewBox="0.00 0.00 330.00 238.29" xmlns="http://www.w3.org/2000/svg" xmlns:xlink="http://www.w3.org/1999/xlink">
<g id="graph0" class="graph" transform="scale(1 1) rotate(0) translate(4 234.29)">
<title>dot_list_head</title>
<!-- Node1 -->
<g id="node1" class="node">
<title>Node1</title>
<g id="a_node1"><a xlink:title=" ">
<polygon fill="#999999" stroke="#666666" points="77,-117.29 0,-117.29 0,-98.29 77,-98.29 77,-117.29"/>
<text text-anchor="middle" x="38.5" y="-105.29" font-family="Helvetica,sans-Serif" font-size="10.00">dot_list_head</text>
</a>
</g>
</g>
<!-- Node2 -->
<g id="node2" class="node">
<title>Node2</title>
<g id="a_node2"><a xlink:href="buffer_8c.html#a9765efbb7f2c32e46fb1cb271a02ba20" target="_top" xlink:title="Add a single character to a Buffer.">
<polygon fill="#fff0f0" stroke="red" points="193,-230.29 128,-230.29 128,-211.29 193,-211.29 193,-230.29"/>
<text text-anchor="middle" x="160.5" y="-218.29" font-family="Helvetica,sans-Serif" font-size="10.00">buf_addch</text>
</a>
</g>
</g>
<!-- Node1&#45;&gt;Node2 -->
<g id="edge1" class="edge">
<title>Node1&#45;&gt;Node2</title>
<path fill="none" stroke="#63b8ff" d="M44.64,-117.56C55.08,-136.52 80.57,-178.61 113,-202.79 114.53,-203.93 116.13,-205.01 117.8,-206.02"/>
<polygon fill="#63b8ff" stroke="#63b8ff" points="115.93,-209 126.42,-210.5 119.15,-202.78 115.93,-209"/>
</g>
<!-- Node6 -->
<g id="node3" class="node">
<title>Node6</title>
<g id="a_node3"><a xlink:href="buffer_8c.html#a9924e74ddcb5280ab380e4627d1fba99" target="_top" xlink:title="Add a string to a Buffer.">
<polygon fill="#fff0f0" stroke="red" points="194,-193.29 127,-193.29 127,-174.29 194,-174.29 194,-193.29"/>
<text text-anchor="middle" x="160.5" y="-181.29" font-family="Helvetica,sans-Serif" font-size="10.00">buf_addstr</text>
</a>
</g>
</g>
<!-- Node1&#45;&gt;Node6 -->
<g id="edge2" class="edge">
<title>Node1&#45;&gt;Node6</title>
<path fill="none" stroke="#63b8ff" d="M52.4,-117.76C66.8,-128.67 90.96,-146.4 113,-159.79 118.01,-162.84 123.46,-165.88 128.8,-168.72"/>
<polygon fill="#63b8ff" stroke="#63b8ff" points="126.96,-171.71 137.45,-173.19 130.17,-165.49 126.96,-171.71"/>
</g>
<!-- Node8 -->
<g id="node4" class="node">
<title>Node8</title>
<g id="a_node4"><a xlink:href="buffer_8c.html#a4245e227baa2a9beb6991917404aab0d" target="_top" xlink:title="Is the Buffer empty?">
<polygon fill="#fff0f0" stroke="red" points="322,-61.29 244,-61.29 244,-42.29 322,-42.29 322,-61.29"/>
<text text-anchor="middle" x="283" y="-49.29" font-family="Helvetica,sans-Serif" font-size="10.00">buf_is_empty</text>
</a>
</g>
</g>
<!-- Node1&#45;&gt;Node8 -->
<g id="edge3" class="edge">
<title>Node1&#45;&gt;Node8</title>
<path fill="none" stroke="#63b8ff" d="M63.72,-117.74C97.43,-130.02 159.79,-146.95 208,-126.79 234.79,-115.59 256.81,-89.45 269.67,-71.2"/>
<polygon fill="#63b8ff" stroke="#63b8ff" points="272.48,-73.28 275.16,-63.03 266.67,-69.38 272.48,-73.28"/>
</g>
<!-- Node11 -->
<g id="node5" class="node">
<title>Node11</title>
<g id="a_node5"><a xlink:href="pool_8c.html#a41cba27c25d33cb6822789a2856093f2" target="_top" xlink:title="Get a Buffer from the pool.">
<polygon fill="#fff0f0" stroke="red" points="199,-117.29 122,-117.29 122,-98.29 199,-98.29 199,-117.29"/>
<text text-anchor="middle" x="160.5" y="-105.29" font-family="Helvetica,sans-Serif" font-size="10.00">buf_pool_get</text>
</a>
</g>
</g>
<!-- Node1&#45;&gt;Node11 -->
<g id="edge4" class="edge">
<title>Node1&#45;&gt;Node11</title>
<path fill="none" stroke="#63b8ff" d="M77.47,-107.79C87.97,-107.79 99.51,-107.79 110.54,-107.79"/>
<polygon fill="#63b8ff" stroke="#63b8ff" points="110.26,-111.29 120.26,-107.79 110.26,-104.29 110.26,-111.29"/>
</g>
<!-- Node14 -->
<g id="node6" class="node">
<title>Node14</title>
<g id="a_node6"><a xlink:href="pool_8c.html#a4cc6068279461cb8628219586dfa35a1" target="_top" xlink:title="Return a Buffer to the pool.">
<polygon fill="#fff0f0" stroke="red" points="208,-80.29 113,-80.29 113,-61.29 208,-61.29 208,-80.29"/>
<text text-anchor="middle" x="160.5" y="-68.29" font-family="Helvetica,sans-Serif" font-size="10.00">buf_pool_release</text>
</a>
</g>
</g>
<!-- Node1&#45;&gt;Node14 -->
<g id="edge5" class="edge">
<title>Node1&#45;&gt;Node14</title>
<path fill="none" stroke="#63b8ff" d="M71.66,-97.88C85.38,-93.65 101.59,-88.65 116.33,-84.1"/>
<polygon fill="#63b8ff" stroke="#63b8ff" points="117.28,-87.47 125.81,-81.18 115.22,-80.78 117.28,-87.47"/>
</g>
<!-- Node19 -->
<g id="node7" class="node">
<title>Node19</title>
<g id="a_node7"><a xlink:href="buffer_8h.html#a728ebc5a947b77c8d56db44ce553a7ab" target="_top" xlink:title="Convert a buffer to a const char * &quot;string&quot;.">
<polygon fill="white" stroke="#666666" points="315,-24.29 251,-24.29 251,-5.29 315,-5.29 315,-24.29"/>
<text text-anchor="middle" x="283" y="-12.29" font-family="Helvetica,sans-Serif" font-size="10.00">buf_string</text>
</a>
</g>
</g>
<!-- Node1&#45;&gt;Node19 -->
<g id="edge6" class="edge">
<title>Node1&#45;&gt;Node19</title>
<path fill="none" stroke="#63b8ff" d="M43.6,-98.07C52.66,-78.01 76.51,-32.46 113,-14.79 152.67,4.42 203.99,1.08 239.61,-4.96"/>
<polygon fill="#63b8ff" stroke="#63b8ff" points="238.64,-8.34 249.11,-6.71 239.91,-1.45 238.64,-8.34"/>
</g>
<!-- Node20 -->
<g id="node8" class="node">
<title>Node20</title>
<g id="a_node8"><a xlink:href="graphviz_8c.html#a7a64ec16eeb2adc0e79839d367324c5c" target="_top" xlink:title=" ">
<polygon fill="#fff0f0" stroke="red" points="205,-43.29 116,-43.29 116,-24.29 205,-24.29 205,-43.29"/>
<text text-anchor="middle" x="160.5" y="-31.29" font-family="Helvetica,sans-Serif" font-size="10.00">dot_type_string</text>
</a>
</g>
</g>
<!-- Node1&#45;&gt;Node20 -->
<g id="edge7" class="edge">
<title>Node1&#45;&gt;Node20</title>
<path fill="none" stroke="#63b8ff" d="M50.83,-97.86C64.75,-86.02 89.42,-66.14 113,-52.79 115.77,-51.22 118.71,-49.71 121.69,-48.28"/>
<polygon fill="#63b8ff" stroke="#63b8ff" points="122.82,-51.61 130.52,-44.33 119.97,-45.22 122.82,-51.61"/>
</g>
<!-- Node20&#45;&gt;Node8 -->
<g id="edge8" class="edge">
<title>Node20&#45;&gt;Node8</title>
<path fill="none" stroke="#63b8ff" d="M205.34,-40.34C214.14,-41.66 223.45,-43.05 232.43,-44.39"/>
<polygon fill="#63b8ff" stroke="#63b8ff" points="231.66,-47.81 242.07,-45.83 232.7,-40.89 231.66,-47.81"/>
</g>
<!-- Node20&#45;&gt;Node19 -->
<g id="edge9" class="edge">
<title>Node20&#45;&gt;Node19</title>
<path fill="none" stroke="#63b8ff" d="M205.34,-26.88C216.53,-25.12 228.54,-23.22 239.65,-21.47"/>
<polygon fill="#63b8ff" stroke="#63b8ff" points="240,-24.96 249.34,-19.94 238.91,-18.04 240,-24.96"/>
</g>
</g>
</svg>
