<?xml version="1.0" encoding="UTF-8" standalone="no"?>
<!DOCTYPE svg PUBLIC "-//W3C//DTD SVG 1.1//EN"
 "http://www.w3.org/Graphics/SVG/1.1/DTD/svg11.dtd">
<!-- Generated by graphviz version 12.2.1 (20241206.2353)
 -->
<!-- Title: op_jump Pages: 1 -->
<svg width="237pt" height="408pt"
 viewBox="0.00 0.00 236.50 408.25" xmlns="http://www.w3.org/2000/svg" xmlns:xlink="http://www.w3.org/1999/xlink">
<g id="graph0" class="graph" transform="scale(1 1) rotate(0) translate(4 404.25)">
<title>op_jump</title>
<!-- Node1 -->
<g id="Node000001" class="node">
<title>Node1</title>
<g id="a_Node000001"><a xlink:title="Jump to an index number &#45; Implements index_function_t &#45;.">
<polygon fill="#999999" stroke="#666666" points="55.75,-202.25 0,-202.25 0,-180 55.75,-180 55.75,-202.25"/>
<text text-anchor="middle" x="27.88" y="-188.75" font-family="Helvetica,sans-Serif" font-size="10.00">op_jump</text>
</a>
</g>
</g>
<!-- Node2 -->
<g id="Node000002" class="node">
<title>Node2</title>
<g id="a_Node000002"><a xlink:href="buffer_8c.html#a4245e227baa2a9beb6991917404aab0d" target="_top" xlink:title="Is the Buffer empty?">
<polygon fill="#fff0f0" stroke="red" points="198.88,-400.25 121.38,-400.25 121.38,-378 198.88,-378 198.88,-400.25"/>
<text text-anchor="middle" x="160.12" y="-386.75" font-family="Helvetica,sans-Serif" font-size="10.00">buf_is_empty</text>
</a>
</g>
</g>
<!-- Node1&#45;&gt;Node2 -->
<g id="edge1_Node000001_Node000002" class="edge">
<title>Node1&#45;&gt;Node2</title>
<g id="a_edge1_Node000001_Node000002"><a xlink:title=" ">
<path fill="none" stroke="#63b8ff" d="M29.47,-202.6C31.71,-234.01 42.33,-322.17 91.75,-369.12 96.97,-374.09 103.37,-377.83 110.13,-380.64"/>
<polygon fill="#63b8ff" stroke="#63b8ff" points="108.89,-383.92 119.49,-383.85 111.16,-377.3 108.89,-383.92"/>
</a>
</g>
</g>
<!-- Node5 -->
<g id="Node000005" class="node">
<title>Node5</title>
<g id="a_Node000005"><a xlink:href="pool_8c.html#a41cba27c25d33cb6822789a2856093f2" target="_top" xlink:title="Get a Buffer from the pool.">
<polygon fill="#fff0f0" stroke="red" points="198.5,-360.25 121.75,-360.25 121.75,-338 198.5,-338 198.5,-360.25"/>
<text text-anchor="middle" x="160.12" y="-346.75" font-family="Helvetica,sans-Serif" font-size="10.00">buf_pool_get</text>
</a>
</g>
</g>
<!-- Node1&#45;&gt;Node5 -->
<g id="edge2_Node000001_Node000005" class="edge">
<title>Node1&#45;&gt;Node5</title>
<g id="a_edge2_Node000001_Node000005"><a xlink:title=" ">
<path fill="none" stroke="#63b8ff" d="M30.81,-202.69C35.83,-229.13 51.82,-294.39 91.75,-329.12 97.19,-333.85 103.7,-337.47 110.51,-340.22"/>
<polygon fill="#63b8ff" stroke="#63b8ff" points="109.3,-343.51 119.89,-343.41 111.55,-336.88 109.3,-343.51"/>
</a>
</g>
</g>
<!-- Node13 -->
<g id="Node000013" class="node">
<title>Node13</title>
<g id="a_Node000013"><a xlink:href="pool_8c.html#a4cc6068279461cb8628219586dfa35a1" target="_top" xlink:title="Return a Buffer to the pool.">
<polygon fill="#fff0f0" stroke="red" points="207.5,-320.25 112.75,-320.25 112.75,-298 207.5,-298 207.5,-320.25"/>
<text text-anchor="middle" x="160.12" y="-306.75" font-family="Helvetica,sans-Serif" font-size="10.00">buf_pool_release</text>
</a>
</g>
</g>
<!-- Node1&#45;&gt;Node13 -->
<g id="edge3_Node000001_Node000013" class="edge">
<title>Node1&#45;&gt;Node13</title>
<g id="a_edge3_Node000001_Node000013"><a xlink:title=" ">
<path fill="none" stroke="#63b8ff" d="M33.14,-202.71C41.28,-223.24 61.05,-266.05 91.75,-289.12 94.92,-291.51 98.37,-293.61 101.98,-295.46"/>
<polygon fill="#63b8ff" stroke="#63b8ff" points="100.51,-298.63 111.07,-299.43 103.31,-292.22 100.51,-298.63"/>
</a>
</g>
</g>
<!-- Node18 -->
<g id="Node000018" class="node">
<title>Node18</title>
<g id="a_Node000018"><a xlink:href="buffer_8h.html#a728ebc5a947b77c8d56db44ce553a7ab" target="_top" xlink:title="Convert a buffer to a const char * &quot;string&quot;.">
<polygon fill="white" stroke="#666666" points="191.75,-262.25 128.5,-262.25 128.5,-240 191.75,-240 191.75,-262.25"/>
<text text-anchor="middle" x="160.12" y="-248.75" font-family="Helvetica,sans-Serif" font-size="10.00">buf_string</text>
</a>
</g>
</g>
<!-- Node1&#45;&gt;Node18 -->
<g id="edge4_Node000001_Node000018" class="edge">
<title>Node1&#45;&gt;Node18</title>
<g id="a_edge4_Node000001_Node000018"><a xlink:title=" ">
<path fill="none" stroke="#63b8ff" d="M44.2,-202.6C56.53,-211.38 74.56,-223.29 91.75,-231.12 99.78,-234.78 108.65,-237.97 117.24,-240.66"/>
<polygon fill="#63b8ff" stroke="#63b8ff" points="116.25,-244.02 126.83,-243.48 118.23,-237.3 116.25,-244.02"/>
</a>
</g>
</g>
<!-- Node19 -->
<g id="Node000019" class="node">
<title>Node19</title>
<g id="a_Node000019"><a xlink:href="crypt__gpgme_8h.html#aa6f37478ebd949c46ad620ad1acd2d6e" target="_top" xlink:title=" ">
<polygon fill="white" stroke="#666666" points="178.25,-222.25 142,-222.25 142,-200 178.25,-200 178.25,-222.25"/>
<text text-anchor="middle" x="160.12" y="-208.75" font-family="Helvetica,sans-Serif" font-size="10.00">digit</text>
</a>
</g>
</g>
<!-- Node1&#45;&gt;Node19 -->
<g id="edge6_Node000001_Node000019" class="edge">
<title>Node1&#45;&gt;Node19</title>
<g id="a_edge6_Node000001_Node000019"><a xlink:title=" ">
<path fill="none" stroke="#63b8ff" d="M56.18,-195.32C77.96,-198.66 108.37,-203.33 130.49,-206.73"/>
<polygon fill="#63b8ff" stroke="#63b8ff" points="129.91,-210.18 140.32,-208.24 130.97,-203.26 129.91,-210.18"/>
</a>
</g>
</g>
<!-- Node20 -->
<g id="Node000020" class="node">
<title>Node20</title>
<g id="a_Node000020"><a xlink:href="menu_2menu_8c.html#ae279bb826b97fcc88c0714b2a6383851" target="_top" xlink:title="Set the current selection in the Menu.">
<polygon fill="#fff0f0" stroke="red" points="205.62,-182.25 114.62,-182.25 114.62,-160 205.62,-160 205.62,-182.25"/>
<text text-anchor="middle" x="160.12" y="-168.75" font-family="Helvetica,sans-Serif" font-size="10.00">menu_set_index</text>
</a>
</g>
</g>
<!-- Node1&#45;&gt;Node20 -->
<g id="edge7_Node000001_Node000020" class="edge">
<title>Node1&#45;&gt;Node20</title>
<g id="a_edge7_Node000001_Node000020"><a xlink:title=" ">
<path fill="none" stroke="#63b8ff" d="M56.18,-186.93C69.82,-184.84 86.84,-182.22 103.09,-179.73"/>
<polygon fill="#63b8ff" stroke="#63b8ff" points="103.32,-183.23 112.67,-178.26 102.26,-176.32 103.32,-183.23"/>
</a>
</g>
</g>
<!-- Node44 -->
<g id="Node000044" class="node">
<title>Node44</title>
<g id="a_Node000044"><a xlink:href="gui_2thread_8c.html#a7ea1d8cc762023c88ee9152f9d0a7ce0" target="_top" xlink:title="Count the messages in a thread.">
<polygon fill="#fff0f0" stroke="red" points="228.5,-142.25 91.75,-142.25 91.75,-120 228.5,-120 228.5,-142.25"/>
<text text-anchor="middle" x="160.12" y="-128.75" font-family="Helvetica,sans-Serif" font-size="10.00">mutt_messages_in_thread</text>
</a>
</g>
</g>
<!-- Node1&#45;&gt;Node44 -->
<g id="edge8_Node000001_Node000044" class="edge">
<title>Node1&#45;&gt;Node44</title>
<g id="a_edge8_Node000001_Node000044"><a xlink:title=" ">
<path fill="none" stroke="#63b8ff" d="M44.2,-179.65C56.53,-170.87 74.56,-158.96 91.75,-151.12 95.47,-149.43 99.36,-147.84 103.33,-146.35"/>
<polygon fill="#63b8ff" stroke="#63b8ff" points="104.2,-149.75 112.48,-143.15 101.89,-143.15 104.2,-149.75"/>
</a>
</g>
</g>
<!-- Node48 -->
<g id="Node000048" class="node">
<title>Node48</title>
<g id="a_Node000048"><a xlink:href="gui_2thread_8c.html#ad208699eb4bc42837530572fbe4caf8d" target="_top" xlink:title="Set the virtual index number of all the messages in a mailbox.">
<polygon fill="#fff0f0" stroke="red" points="204.12,-102.25 116.12,-102.25 116.12,-80 204.12,-80 204.12,-102.25"/>
<text text-anchor="middle" x="160.12" y="-88.75" font-family="Helvetica,sans-Serif" font-size="10.00">mutt_set_vnum</text>
</a>
</g>
</g>
<!-- Node1&#45;&gt;Node48 -->
<g id="edge9_Node000001_Node000048" class="edge">
<title>Node1&#45;&gt;Node48</title>
<g id="a_edge9_Node000001_Node000048"><a xlink:title=" ">
<path fill="none" stroke="#63b8ff" d="M34.77,-179.75C44.37,-162.36 65.01,-129.29 91.75,-111.12 95.89,-108.31 100.44,-105.89 105.15,-103.8"/>
<polygon fill="#63b8ff" stroke="#63b8ff" points="106.17,-107.15 114.24,-100.28 103.65,-100.62 106.17,-107.15"/>
</a>
</g>
</g>
<!-- Node50 -->
<g id="Node000050" class="node">
<title>Node50</title>
<g id="a_Node000050"><a xlink:href="get_8c.html#ae568d7843782964d3ab8566aa9c59e7b" target="_top" xlink:title="Return a keystroke to the input buffer.">
<polygon fill="#fff0f0" stroke="red" points="203,-62.25 117.25,-62.25 117.25,-40 203,-40 203,-62.25"/>
<text text-anchor="middle" x="160.12" y="-48.75" font-family="Helvetica,sans-Serif" font-size="10.00">mutt_unget_ch</text>
</a>
</g>
</g>
<!-- Node1&#45;&gt;Node50 -->
<g id="edge10_Node000001_Node000050" class="edge">
<title>Node1&#45;&gt;Node50</title>
<g id="a_edge10_Node000001_Node000050"><a xlink:title=" ">
<path fill="none" stroke="#63b8ff" d="M31.65,-179.63C38.02,-155.75 55.97,-100.56 91.75,-71.12 96.17,-67.49 101.24,-64.51 106.56,-62.08"/>
<polygon fill="#63b8ff" stroke="#63b8ff" points="107.54,-65.45 115.6,-58.58 105.01,-58.92 107.54,-65.45"/>
</a>
</g>
</g>
<!-- Node53 -->
<g id="Node000053" class="node">
<title>Node53</title>
<g id="a_Node000053"><a xlink:href="group__gui__mw.html#gabcbd2498b412e9f8e9d953cafc01989c" target="_top" xlink:title="Ask the user for a string &#45;.">
<polygon fill="#fff0f0" stroke="red" points="198.88,-22.25 121.38,-22.25 121.38,0 198.88,0 198.88,-22.25"/>
<text text-anchor="middle" x="160.12" y="-8.75" font-family="Helvetica,sans-Serif" font-size="10.00">mw_get_field</text>
</a>
</g>
</g>
<!-- Node1&#45;&gt;Node53 -->
<g id="edge11_Node000001_Node000053" class="edge">
<title>Node1&#45;&gt;Node53</title>
<g id="a_edge11_Node000001_Node000053"><a xlink:title=" ">
<path fill="none" stroke="#63b8ff" d="M30,-179.53C33.47,-150.21 46.67,-72.49 91.75,-31.12 97.06,-26.25 103.51,-22.56 110.28,-19.77"/>
<polygon fill="#63b8ff" stroke="#63b8ff" points="111.32,-23.12 119.65,-16.57 109.06,-16.49 111.32,-23.12"/>
</a>
</g>
</g>
<!-- Node18&#45;&gt;Node18 -->
<g id="edge5_Node000018_Node000018" class="edge">
<title>Node18&#45;&gt;Node18</title>
<g id="a_edge5_Node000018_Node000018"><a xlink:title=" ">
<path fill="none" stroke="#63b8ff" d="M138.53,-262.49C130.45,-271.28 137.65,-280.25 160.12,-280.25 172.41,-280.25 180.14,-277.57 183.29,-273.7"/>
<polygon fill="#63b8ff" stroke="#63b8ff" points="186.78,-273.4 181.93,-263.98 179.85,-274.37 186.78,-273.4"/>
</a>
</g>
</g>
</g>
</svg>
