<?xml version="1.0" encoding="UTF-8" standalone="no"?>
<!DOCTYPE svg PUBLIC "-//W3C//DTD SVG 1.1//EN"
 "http://www.w3.org/Graphics/SVG/1.1/DTD/svg11.dtd">
<!-- Generated by graphviz version 7.1.0 (0)
 -->
<!-- Title: group_add_addrlist Pages: 1 -->
<svg width="422pt" height="95pt"
 viewBox="0.00 0.00 422.00 94.50" xmlns="http://www.w3.org/2000/svg" xmlns:xlink="http://www.w3.org/1999/xlink">
<g id="graph0" class="graph" transform="scale(1 1) rotate(0) translate(4 90.5)">
<title>group_add_addrlist</title>
<!-- Node1 -->
<g id="node1" class="node">
<title>Node1</title>
<g id="a_node1"><a xlink:title="Add an Address List to a Group.">
<polygon fill="#999999" stroke="#666666" points="105,-67.5 0,-67.5 0,-48.5 105,-48.5 105,-67.5"/>
<text text-anchor="middle" x="52.5" y="-55.5" font-family="Helvetica,sans-Serif" font-size="10.00">group_add_addrlist</text>
</a>
</g>
</g>
<!-- Node2 -->
<g id="node2" class="node">
<title>Node2</title>
<g id="a_node2"><a xlink:href="address_2address_8c.html#a68385b174baad74a9aecf3dec61432a0" target="_top" xlink:title="Append an Address to an AddressList.">
<polygon fill="white" stroke="#666666" points="414,-86.5 296,-86.5 296,-67.5 414,-67.5 414,-86.5"/>
<text text-anchor="middle" x="355" y="-74.5" font-family="Helvetica,sans-Serif" font-size="10.00">mutt_addrlist_append</text>
</a>
</g>
</g>
<!-- Node1&#45;&gt;Node2 -->
<g id="edge1" class="edge">
<title>Node1&#45;&gt;Node2</title>
<path fill="none" stroke="#63b8ff" d="M90.68,-67.91C106.13,-71.55 124.31,-75.21 141,-77 188.56,-82.1 242.43,-82.05 284.1,-80.75"/>
<polygon fill="#63b8ff" stroke="#63b8ff" points="284.12,-84.25 294,-80.4 283.88,-77.25 284.12,-84.25"/>
</g>
<!-- Node3 -->
<g id="node3" class="node">
<title>Node3</title>
<g id="a_node3"><a xlink:href="address_2address_8c.html#a16764dc80c9b3f6ad2897c8b7e59bd10" target="_top" xlink:title="Copy a list of addresses into another list.">
<polygon fill="#fff0f0" stroke="red" points="252.5,-67.5 148.5,-67.5 148.5,-48.5 252.5,-48.5 252.5,-67.5"/>
<text text-anchor="middle" x="200.5" y="-55.5" font-family="Helvetica,sans-Serif" font-size="10.00">mutt_addrlist_copy</text>
</a>
</g>
</g>
<!-- Node1&#45;&gt;Node3 -->
<g id="edge2" class="edge">
<title>Node1&#45;&gt;Node3</title>
<path fill="none" stroke="#63b8ff" d="M105.39,-58C115.62,-58 126.46,-58 137,-58"/>
<polygon fill="#63b8ff" stroke="#63b8ff" points="136.76,-61.5 146.76,-58 136.76,-54.5 136.76,-61.5"/>
</g>
<!-- Node14 -->
<g id="node4" class="node">
<title>Node14</title>
<g id="a_node4"><a xlink:href="address_2address_8c.html#a968e9f56e7408d5e0fa1d1135bdee017" target="_top" xlink:title="Remove cross&#45;references.">
<polygon fill="#fff0f0" stroke="red" points="260,-30 141,-30 141,0 260,0 260,-30"/>
<text text-anchor="start" x="149" y="-18" font-family="Helvetica,sans-Serif" font-size="10.00">mutt_addrlist_remove</text>
<text text-anchor="middle" x="200.5" y="-7" font-family="Helvetica,sans-Serif" font-size="10.00">_xrefs</text>
</a>
</g>
</g>
<!-- Node1&#45;&gt;Node14 -->
<g id="edge4" class="edge">
<title>Node1&#45;&gt;Node14</title>
<path fill="none" stroke="#63b8ff" d="M87.36,-48.03C101.87,-43.75 119.31,-38.62 136.07,-33.68"/>
<polygon fill="#63b8ff" stroke="#63b8ff" points="136.89,-37.09 145.49,-30.91 134.91,-30.37 136.89,-37.09"/>
</g>
<!-- Node3&#45;&gt;Node2 -->
<g id="edge3" class="edge">
<title>Node3&#45;&gt;Node2</title>
<path fill="none" stroke="#63b8ff" d="M252.7,-64.38C262.81,-65.64 273.57,-66.98 284.17,-68.3"/>
<polygon fill="#63b8ff" stroke="#63b8ff" points="283.71,-71.77 294.06,-69.53 284.57,-64.82 283.71,-71.77"/>
</g>
</g>
</svg>
