<?xml version="1.0" encoding="UTF-8" standalone="no"?>
<!DOCTYPE svg PUBLIC "-//W3C//DTD SVG 1.1//EN"
 "http://www.w3.org/Graphics/SVG/1.1/DTD/svg11.dtd">
<!-- Generated by graphviz version 12.2.1 (20241206.2353)
 -->
<!-- Title: nm_default_url_validator Pages: 1 -->
<svg width="286pt" height="70pt"
 viewBox="0.00 0.00 286.00 70.25" xmlns="http://www.w3.org/2000/svg" xmlns:xlink="http://www.w3.org/1999/xlink">
<g id="graph0" class="graph" transform="scale(1 1) rotate(0) translate(4 66.25)">
<title>nm_default_url_validator</title>
<!-- Node1 -->
<g id="Node000001" class="node">
<title>Node1</title>
<g id="a_Node000001"><a xlink:title="Validate the &quot;nm_default_url&quot; config variable &#45; Implements ConfigDef::validator() &#45;.">
<polygon fill="#999999" stroke="#666666" points="130.75,-42.25 0,-42.25 0,-20 130.75,-20 130.75,-42.25"/>
<text text-anchor="middle" x="65.38" y="-28.75" font-family="Helvetica,sans-Serif" font-size="10.00">nm_default_url_validator</text>
</a>
</g>
</g>
<!-- Node2 -->
<g id="Node000002" class="node">
<title>Node2</title>
<g id="a_Node000002"><a xlink:href="buffer_8c.html#a02123807d31181ac701b566226e93b33" target="_top" xlink:title="Format a string overwriting a Buffer.">
<polygon fill="#fff0f0" stroke="red" points="253.62,-62.25 191.12,-62.25 191.12,-40 253.62,-40 253.62,-62.25"/>
<text text-anchor="middle" x="222.38" y="-48.75" font-family="Helvetica,sans-Serif" font-size="10.00">buf_printf</text>
</a>
</g>
</g>
<!-- Node1&#45;&gt;Node2 -->
<g id="edge1_Node000001_Node000002" class="edge">
<title>Node1&#45;&gt;Node2</title>
<g id="a_edge1_Node000001_Node000002"><a xlink:title=" ">
<path fill="none" stroke="#63b8ff" d="M131.21,-39.49C147.58,-41.6 164.71,-43.81 179.6,-45.73"/>
<polygon fill="#63b8ff" stroke="#63b8ff" points="179.13,-49.2 189.5,-47.01 180.03,-42.26 179.13,-49.2"/>
</a>
</g>
</g>
<!-- Node8 -->
<g id="Node000008" class="node">
<title>Node8</title>
<g id="a_Node000008"><a xlink:href="notmuch_2config_8c.html#a504134ea1c1e6b8bdb24a83539a3bf34" target="_top" xlink:title="Checks that a URL is in required form.">
<polygon fill="#fff0f0" stroke="red" points="278,-22.25 166.75,-22.25 166.75,0 278,0 278,-22.25"/>
<text text-anchor="middle" x="222.38" y="-8.75" font-family="Helvetica,sans-Serif" font-size="10.00">is_valid_notmuch_url</text>
</a>
</g>
</g>
<!-- Node1&#45;&gt;Node8 -->
<g id="edge2_Node000001_Node000008" class="edge">
<title>Node1&#45;&gt;Node8</title>
<g id="a_edge2_Node000001_Node000008"><a xlink:title=" ">
<path fill="none" stroke="#63b8ff" d="M131.21,-22.76C139.22,-21.73 147.41,-20.67 155.43,-19.63"/>
<polygon fill="#63b8ff" stroke="#63b8ff" points="155.65,-23.13 165.12,-18.38 154.76,-16.19 155.65,-23.13"/>
</a>
</g>
</g>
</g>
</svg>
