<?xml version="1.0" encoding="UTF-8" standalone="no"?>
<!DOCTYPE svg PUBLIC "-//W3C//DTD SVG 1.1//EN"
 "http://www.w3.org/Graphics/SVG/1.1/DTD/svg11.dtd">
<!-- Generated by graphviz version 7.1.0 (0)
 -->
<!-- Title: pgp_class_encrypt_message Pages: 1 -->
<svg width="625pt" height="647pt"
 viewBox="0.00 0.00 625.00 647.33" xmlns="http://www.w3.org/2000/svg" xmlns:xlink="http://www.w3.org/1999/xlink">
<g id="graph0" class="graph" transform="scale(1 1) rotate(0) translate(4 643.33)">
<title>pgp_class_encrypt_message</title>
<!-- Node1 -->
<g id="node1" class="node">
<title>Node1</title>
<g id="a_node1"><a xlink:title="PGP encrypt an email &#45; Implements CryptModuleSpecs::pgp_encrypt_message() &#45;.">
<polygon fill="#999999" stroke="#666666" points="146,-338.33 0,-338.33 0,-319.33 146,-319.33 146,-338.33"/>
<text text-anchor="middle" x="73" y="-326.33" font-family="Helvetica,sans-Serif" font-size="10.00">pgp_class_encrypt_message</text>
</a>
</g>
</g>
<!-- Node2 -->
<g id="node2" class="node">
<title>Node2</title>
<g id="a_node2"><a xlink:href="pool_8c.html#a41cba27c25d33cb6822789a2856093f2" target="_top" xlink:title="Get a Buffer from the pool.">
<polygon fill="#fff0f0" stroke="red" points="290.5,-639.33 213.5,-639.33 213.5,-620.33 290.5,-620.33 290.5,-639.33"/>
<text text-anchor="middle" x="252" y="-627.33" font-family="Helvetica,sans-Serif" font-size="10.00">buf_pool_get</text>
</a>
</g>
</g>
<!-- Node1&#45;&gt;Node2 -->
<g id="edge1" class="edge">
<title>Node1&#45;&gt;Node2</title>
<path fill="none" stroke="#63b8ff" d="M74.63,-338.63C77.77,-379.02 95.25,-534.09 182,-611.83 187.76,-617 194.82,-620.71 202.2,-623.38"/>
<polygon fill="#63b8ff" stroke="#63b8ff" points="201.1,-626.7 211.68,-626.15 203.07,-619.98 201.1,-626.7"/>
</g>
<!-- Node10 -->
<g id="node3" class="node">
<title>Node10</title>
<g id="a_node3"><a xlink:href="pool_8c.html#a4cc6068279461cb8628219586dfa35a1" target="_top" xlink:title="Return a Buffer to the pool.">
<polygon fill="#fff0f0" stroke="red" points="299.5,-602.33 204.5,-602.33 204.5,-583.33 299.5,-583.33 299.5,-602.33"/>
<text text-anchor="middle" x="252" y="-590.33" font-family="Helvetica,sans-Serif" font-size="10.00">buf_pool_release</text>
</a>
</g>
</g>
<!-- Node1&#45;&gt;Node10 -->
<g id="edge2" class="edge">
<title>Node1&#45;&gt;Node10</title>
<path fill="none" stroke="#63b8ff" d="M75.58,-338.68C81.87,-374.83 108.53,-501.57 182,-568.83 185.94,-572.44 190.46,-575.52 195.25,-578.13"/>
<polygon fill="#63b8ff" stroke="#63b8ff" points="193.47,-581.16 204.01,-582.23 196.44,-574.82 193.47,-581.16"/>
</g>
<!-- Node15 -->
<g id="node4" class="node">
<title>Node15</title>
<g id="a_node4"><a xlink:href="buffer_8c.html#ad76477cc0c660bc50162393e997233eb" target="_top" xlink:title="Copy a Buffer&#39;s string.">
<polygon fill="white" stroke="#666666" points="460,-451.33 393,-451.33 393,-432.33 460,-432.33 460,-451.33"/>
<text text-anchor="middle" x="426.5" y="-439.33" font-family="Helvetica,sans-Serif" font-size="10.00">buf_strdup</text>
</a>
</g>
</g>
<!-- Node1&#45;&gt;Node15 -->
<g id="edge3" class="edge">
<title>Node1&#45;&gt;Node15</title>
<path fill="none" stroke="#63b8ff" d="M82.28,-338.78C98.89,-357.96 138.47,-399.75 182,-417.83 247.37,-444.99 330.81,-446.96 381.1,-445.03"/>
<polygon fill="#63b8ff" stroke="#63b8ff" points="381.19,-448.53 391.02,-444.57 380.87,-441.54 381.19,-448.53"/>
</g>
<!-- Node16 -->
<g id="node5" class="node">
<title>Node16</title>
<g id="a_node5"><a xlink:href="mutt_2string_8c.html#a3fe33d90e4814281cd57de048119c950" target="_top" xlink:title="Copy a string, safely.">
<polygon fill="#fff0f0" stroke="red" points="613.5,-451.33 534.5,-451.33 534.5,-432.33 613.5,-432.33 613.5,-451.33"/>
<text text-anchor="middle" x="574" y="-439.33" font-family="Helvetica,sans-Serif" font-size="10.00">mutt_str_dup</text>
</a>
</g>
</g>
<!-- Node1&#45;&gt;Node16 -->
<g id="edge17" class="edge">
<title>Node1&#45;&gt;Node16</title>
<path fill="none" stroke="#63b8ff" d="M88.99,-338.81C109.19,-351.73 146.7,-373.87 182,-384.83 315.88,-426.42 356.96,-399.37 495,-423.83 504.15,-425.45 513.83,-427.45 523.15,-429.53"/>
<polygon fill="#63b8ff" stroke="#63b8ff" points="522.28,-432.92 532.8,-431.73 523.84,-426.09 522.28,-432.92"/>
</g>
<!-- Node17 -->
<g id="node6" class="node">
<title>Node17</title>
<g id="a_node6"><a xlink:href="buffer_8h.html#a728ebc5a947b77c8d56db44ce553a7ab" target="_top" xlink:title="Convert a buffer to a const char * &quot;string&quot;.">
<polygon fill="white" stroke="#666666" points="284,-489.33 220,-489.33 220,-470.33 284,-470.33 284,-489.33"/>
<text text-anchor="middle" x="252" y="-477.33" font-family="Helvetica,sans-Serif" font-size="10.00">buf_string</text>
</a>
</g>
</g>
<!-- Node1&#45;&gt;Node17 -->
<g id="edge5" class="edge">
<title>Node1&#45;&gt;Node17</title>
<path fill="none" stroke="#63b8ff" d="M79.74,-338.64C94.02,-362.23 133.52,-422.64 182,-455.83 190.12,-461.4 199.66,-465.79 209.02,-469.22"/>
<polygon fill="#63b8ff" stroke="#63b8ff" points="207.78,-472.49 218.38,-472.33 209.99,-465.85 207.78,-472.49"/>
</g>
<!-- Node18 -->
<g id="node7" class="node">
<title>Node18</title>
<g id="a_node7"><a xlink:href="crypt_8c.html#ac8f7e9a0aff78e25866f228aca6862bd" target="_top" xlink:title="Convert an email to 7bit encoding.">
<polygon fill="#fff0f0" stroke="red" points="485.5,-131.33 367.5,-131.33 367.5,-112.33 485.5,-112.33 485.5,-131.33"/>
<text text-anchor="middle" x="426.5" y="-119.33" font-family="Helvetica,sans-Serif" font-size="10.00">crypt_convert_to_7bit</text>
</a>
</g>
</g>
<!-- Node1&#45;&gt;Node18 -->
<g id="edge6" class="edge">
<title>Node1&#45;&gt;Node18</title>
<path fill="none" stroke="#63b8ff" d="M76.69,-319.11C85.69,-288.59 117.86,-194.27 182,-152.83 233.42,-119.62 303.79,-113.92 355.67,-115.31"/>
<polygon fill="#63b8ff" stroke="#63b8ff" points="355.46,-118.81 365.59,-115.68 355.73,-111.81 355.46,-118.81"/>
</g>
<!-- Node19 -->
<g id="node8" class="node">
<title>Node19</title>
<g id="a_node8"><a xlink:href="config_2helpers_8c.html#ae50f679dd6c5bd1ba820884c8602f038" target="_top" xlink:title="Get a boolean config item by name.">
<polygon fill="#fff0f0" stroke="red" points="617,-159.33 531,-159.33 531,-140.33 617,-140.33 617,-159.33"/>
<text text-anchor="middle" x="574" y="-147.33" font-family="Helvetica,sans-Serif" font-size="10.00">cs_subset_bool</text>
</a>
</g>
</g>
<!-- Node1&#45;&gt;Node19 -->
<g id="edge9" class="edge">
<title>Node1&#45;&gt;Node19</title>
<path fill="none" stroke="#63b8ff" d="M73.87,-318.96C73.91,-275.39 80.52,-99.24 182,-27.83 305.38,58.98 492.79,-81.88 553.37,-132.68"/>
<polygon fill="#63b8ff" stroke="#63b8ff" points="550.95,-135.21 560.83,-139.03 555.49,-129.88 550.95,-135.21"/>
</g>
<!-- Node315 -->
<g id="node9" class="node">
<title>Node315</title>
<g id="a_node9"><a xlink:href="mutt_2filter_8c.html#a22c6912b837b1114c3276c990e73dca3" target="_top" xlink:title="Wait for the exit of a process and return its status.">
<polygon fill="#fff0f0" stroke="red" points="283,-375.33 221,-375.33 221,-356.33 283,-356.33 283,-375.33"/>
<text text-anchor="middle" x="252" y="-363.33" font-family="Helvetica,sans-Serif" font-size="10.00">filter_wait</text>
</a>
</g>
</g>
<!-- Node1&#45;&gt;Node315 -->
<g id="edge10" class="edge">
<title>Node1&#45;&gt;Node315</title>
<path fill="none" stroke="#63b8ff" d="M121.43,-338.75C148.91,-344.49 183.17,-351.65 209.55,-357.17"/>
<polygon fill="#63b8ff" stroke="#63b8ff" points="208.72,-360.57 219.22,-359.19 210.15,-353.72 208.72,-360.57"/>
</g>
<!-- Node1296 -->
<g id="node10" class="node">
<title>Node1296</title>
<g id="a_node10"><a xlink:href="curs__lib_8c.html#ab6a61cdfcf8c2c73ee59381c79c79774" target="_top" xlink:title="Prompt the user to &#39;press any key&#39; and wait.">
<polygon fill="#fff0f0" stroke="red" points="322,-338.33 182,-338.33 182,-319.33 322,-319.33 322,-338.33"/>
<text text-anchor="middle" x="252" y="-326.33" font-family="Helvetica,sans-Serif" font-size="10.00">mutt_any_key_to_continue</text>
</a>
</g>
</g>
<!-- Node1&#45;&gt;Node1296 -->
<g id="edge11" class="edge">
<title>Node1&#45;&gt;Node1296</title>
<path fill="none" stroke="#63b8ff" d="M146.25,-328.83C154.17,-328.83 162.28,-328.83 170.3,-328.83"/>
<polygon fill="#63b8ff" stroke="#63b8ff" points="170.04,-332.33 180.04,-328.83 170.04,-325.33 170.04,-332.33"/>
</g>
<!-- Node539 -->
<g id="node11" class="node">
<title>Node539</title>
<g id="a_node11"><a xlink:href="email_2body_8c.html#a37b346253e3b97aa64bb38ffc8d1ea0c" target="_top" xlink:title="Create a new Body.">
<polygon fill="white" stroke="#666666" points="297,-301.33 207,-301.33 207,-282.33 297,-282.33 297,-301.33"/>
<text text-anchor="middle" x="252" y="-289.33" font-family="Helvetica,sans-Serif" font-size="10.00">mutt_body_new</text>
</a>
</g>
</g>
<!-- Node1&#45;&gt;Node539 -->
<g id="edge12" class="edge">
<title>Node1&#45;&gt;Node539</title>
<path fill="none" stroke="#63b8ff" d="M121.43,-318.92C144.33,-314.13 171.94,-308.36 195.77,-303.38"/>
<polygon fill="#63b8ff" stroke="#63b8ff" points="196.23,-306.86 205.3,-301.39 194.8,-300.01 196.23,-306.86"/>
</g>
<!-- Node1297 -->
<g id="node12" class="node">
<title>Node1297</title>
<g id="a_node12"><a xlink:href="multipart_8c.html#af4c3a6ae771ff84860d31fbd54325af3" target="_top" xlink:title="Create a unique boundary id for a MIME part.">
<polygon fill="#fff0f0" stroke="red" points="320,-526.33 184,-526.33 184,-507.33 320,-507.33 320,-526.33"/>
<text text-anchor="middle" x="252" y="-514.33" font-family="Helvetica,sans-Serif" font-size="10.00">mutt_generate_boundary</text>
</a>
</g>
</g>
<!-- Node1&#45;&gt;Node1297 -->
<g id="edge13" class="edge">
<title>Node1&#45;&gt;Node1297</title>
<path fill="none" stroke="#63b8ff" d="M77.31,-338.72C87.67,-368.06 122.39,-455.37 182,-498.83 183.38,-499.84 184.8,-500.78 186.27,-501.68"/>
<polygon fill="#63b8ff" stroke="#63b8ff" points="184.62,-504.76 195.12,-506.16 187.78,-498.52 184.62,-504.76"/>
</g>
<!-- Node542 -->
<g id="node13" class="node">
<title>Node542</title>
<g id="a_node13"><a xlink:href="parameter_8c.html#a42249fc15b1e52df046a0a10de29da44" target="_top" xlink:title="Set a Parameter.">
<polygon fill="#fff0f0" stroke="red" points="472.5,-526.33 380.5,-526.33 380.5,-507.33 472.5,-507.33 472.5,-526.33"/>
<text text-anchor="middle" x="426.5" y="-514.33" font-family="Helvetica,sans-Serif" font-size="10.00">mutt_param_set</text>
</a>
</g>
</g>
<!-- Node1&#45;&gt;Node542 -->
<g id="edge16" class="edge">
<title>Node1&#45;&gt;Node542</title>
<path fill="none" stroke="#63b8ff" d="M75.52,-338.61C81.48,-373.21 106.78,-490.24 182,-535.83 247.91,-575.78 342.97,-549.43 392.57,-530.78"/>
<polygon fill="#63b8ff" stroke="#63b8ff" points="393.55,-534.16 401.6,-527.26 391.01,-527.63 393.55,-534.16"/>
</g>
<!-- Node1277 -->
<g id="node14" class="node">
<title>Node1277</title>
<g id="a_node14"><a xlink:href="send_2body_8c.html#a833ceeb9577d06bdb2b888190bba83ff" target="_top" xlink:title="Write a MIME part.">
<polygon fill="#fff0f0" stroke="red" points="315,-207.33 189,-207.33 189,-188.33 315,-188.33 315,-207.33"/>
<text text-anchor="middle" x="252" y="-195.33" font-family="Helvetica,sans-Serif" font-size="10.00">mutt_write_mime_body</text>
</a>
</g>
</g>
<!-- Node1&#45;&gt;Node1277 -->
<g id="edge18" class="edge">
<title>Node1&#45;&gt;Node1277</title>
<path fill="none" stroke="#63b8ff" d="M84.93,-318.93C103.98,-301.89 144.77,-266.3 182,-239.83 195.26,-230.41 210.67,-220.9 223.56,-213.32"/>
<polygon fill="#63b8ff" stroke="#63b8ff" points="225.06,-216.5 231.95,-208.45 221.55,-210.44 225.06,-216.5"/>
</g>
<!-- Node1060 -->
<g id="node15" class="node">
<title>Node1060</title>
<g id="a_node15"><a xlink:href="header_8c.html#abe9abfb9bc01d4bd091f09ba7b49740b" target="_top" xlink:title="Create a MIME header.">
<polygon fill="#fff0f0" stroke="red" points="495,-186.33 358,-186.33 358,-167.33 495,-167.33 495,-186.33"/>
<text text-anchor="middle" x="426.5" y="-174.33" font-family="Helvetica,sans-Serif" font-size="10.00">mutt_write_mime_header</text>
</a>
</g>
</g>
<!-- Node1&#45;&gt;Node1060 -->
<g id="edge22" class="edge">
<title>Node1&#45;&gt;Node1060</title>
<path fill="none" stroke="#63b8ff" d="M77.44,-319.12C87.92,-291.19 122.43,-210.69 182,-179.83 242.2,-148.65 322.54,-155.36 374.15,-164.72"/>
<polygon fill="#63b8ff" stroke="#63b8ff" points="373.38,-168.14 383.86,-166.59 374.71,-161.26 373.38,-168.14"/>
</g>
<!-- Node1299 -->
<g id="node16" class="node">
<title>Node1299</title>
<g id="a_node16"><a xlink:href="group__crypto__void__passphrase.html#ga5f22ad399cd8c0e467f61969e762aba0" target="_top" xlink:title="Forget the cached passphrase &#45; Implements CryptModuleSpecs::void_passphrase() &#45;.">
<polygon fill="white" stroke="#666666" points="322,-93.33 182,-93.33 182,-74.33 322,-74.33 322,-93.33"/>
<text text-anchor="middle" x="252" y="-81.33" font-family="Helvetica,sans-Serif" font-size="10.00">pgp_class_void_passphrase</text>
</a>
</g>
</g>
<!-- Node1&#45;&gt;Node1299 -->
<g id="edge23" class="edge">
<title>Node1&#45;&gt;Node1299</title>
<path fill="none" stroke="#63b8ff" d="M75.93,-319.29C83.27,-285.36 112.67,-169.32 182,-107.83 186.06,-104.24 190.68,-101.17 195.57,-98.56"/>
<polygon fill="#63b8ff" stroke="#63b8ff" points="196.89,-101.81 204.52,-94.45 193.97,-95.45 196.89,-101.81"/>
</g>
<!-- Node1300 -->
<g id="node17" class="node">
<title>Node1300</title>
<g id="a_node17"><a xlink:href="pgpinvoke_8c.html#a20c6ffdd8d441f667f3be7de29fea174" target="_top" xlink:title="Use PGP to encrypt a file.">
<polygon fill="#fff0f0" stroke="red" points="307,-56.33 197,-56.33 197,-37.33 307,-37.33 307,-56.33"/>
<text text-anchor="middle" x="252" y="-44.33" font-family="Helvetica,sans-Serif" font-size="10.00">pgp_invoke_encrypt</text>
</a>
</g>
</g>
<!-- Node1&#45;&gt;Node1300 -->
<g id="edge24" class="edge">
<title>Node1&#45;&gt;Node1300</title>
<path fill="none" stroke="#63b8ff" d="M74.94,-318.9C79.18,-279.98 100.01,-136.57 182,-64.83 183.47,-63.54 185.03,-62.35 186.65,-61.23"/>
<polygon fill="#63b8ff" stroke="#63b8ff" points="188.18,-64.39 195.21,-56.46 184.77,-58.27 188.18,-64.39"/>
</g>
<!-- Node1303 -->
<g id="node18" class="node">
<title>Node1303</title>
<g id="a_node18"><a xlink:href="pgp_8c.html#ab97e1713bb20da422b5a71b68747edf9" target="_top" xlink:title="Does the user want to use the gpg agent?">
<polygon fill="#fff0f0" stroke="red" points="481.5,-243.33 371.5,-243.33 371.5,-224.33 481.5,-224.33 481.5,-243.33"/>
<text text-anchor="middle" x="426.5" y="-231.33" font-family="Helvetica,sans-Serif" font-size="10.00">pgp_use_gpg_agent</text>
</a>
</g>
</g>
<!-- Node1&#45;&gt;Node1303 -->
<g id="edge25" class="edge">
<title>Node1&#45;&gt;Node1303</title>
<path fill="none" stroke="#63b8ff" d="M89.44,-319.03C109.82,-306.55 147.21,-285.24 182,-273.83 240.54,-254.63 310.14,-244.38 359.91,-239.09"/>
<polygon fill="#63b8ff" stroke="#63b8ff" points="360.07,-242.59 369.66,-238.09 359.36,-235.62 360.07,-242.59"/>
</g>
<!-- Node15&#45;&gt;Node16 -->
<g id="edge4" class="edge">
<title>Node15&#45;&gt;Node16</title>
<path fill="none" stroke="#63b8ff" d="M460.15,-441.83C478.59,-441.83 502.02,-441.83 522.75,-441.83"/>
<polygon fill="#63b8ff" stroke="#63b8ff" points="522.75,-445.33 532.75,-441.83 522.75,-438.33 522.75,-445.33"/>
</g>
<!-- Node18&#45;&gt;Node18 -->
<g id="edge7" class="edge">
<title>Node18&#45;&gt;Node18</title>
<path fill="none" stroke="#63b8ff" d="M403.41,-131.7C392.87,-140.27 400.57,-149.33 426.5,-149.33 440.68,-149.33 449.41,-146.62 452.68,-142.76"/>
<polygon fill="#63b8ff" stroke="#63b8ff" points="456.06,-141.85 450,-133.16 449.32,-143.73 456.06,-141.85"/>
</g>
<!-- Node18&#45;&gt;Node19 -->
<g id="edge8" class="edge">
<title>Node18&#45;&gt;Node19</title>
<path fill="none" stroke="#63b8ff" d="M479.21,-131.78C492.22,-134.29 506.22,-136.98 519.33,-139.5"/>
<polygon fill="#63b8ff" stroke="#63b8ff" points="518.6,-142.93 529.08,-141.38 519.93,-136.06 518.6,-142.93"/>
</g>
<!-- Node1297&#45;&gt;Node542 -->
<g id="edge14" class="edge">
<title>Node1297&#45;&gt;Node542</title>
<path fill="none" stroke="#63b8ff" d="M320.19,-516.83C336.33,-516.83 353.4,-516.83 369,-516.83"/>
<polygon fill="#63b8ff" stroke="#63b8ff" points="368.54,-520.33 378.54,-516.83 368.54,-513.33 368.54,-520.33"/>
</g>
<!-- Node542&#45;&gt;Node16 -->
<g id="edge15" class="edge">
<title>Node542&#45;&gt;Node16</title>
<path fill="none" stroke="#63b8ff" d="M446.82,-506.87C471.74,-494.03 515.31,-471.57 544.16,-456.7"/>
<polygon fill="#63b8ff" stroke="#63b8ff" points="545.43,-459.98 552.72,-452.29 542.22,-453.76 545.43,-459.98"/>
</g>
<!-- Node1277&#45;&gt;Node1277 -->
<g id="edge19" class="edge">
<title>Node1277&#45;&gt;Node1277</title>
<path fill="none" stroke="#63b8ff" d="M224.68,-207.7C212.22,-216.27 221.33,-225.33 252,-225.33 269.25,-225.33 279.68,-222.47 283.29,-218.43"/>
<polygon fill="#63b8ff" stroke="#63b8ff" points="286.6,-217.28 279.84,-209.12 280.03,-219.71 286.6,-217.28"/>
</g>
<!-- Node1277&#45;&gt;Node1060 -->
<g id="edge20" class="edge">
<title>Node1277&#45;&gt;Node1060</title>
<path fill="none" stroke="#63b8ff" d="M315.28,-190.25C325.41,-189.02 336.03,-187.73 346.5,-186.45"/>
<polygon fill="#63b8ff" stroke="#63b8ff" points="346.77,-189.94 356.27,-185.26 345.92,-183 346.77,-189.94"/>
</g>
<!-- Node1060&#45;&gt;Node19 -->
<g id="edge21" class="edge">
<title>Node1060&#45;&gt;Node19</title>
<path fill="none" stroke="#63b8ff" d="M481.27,-166.86C493.79,-164.53 507.11,-162.06 519.61,-159.74"/>
<polygon fill="#63b8ff" stroke="#63b8ff" points="520.14,-163.2 529.33,-157.94 518.86,-156.32 520.14,-163.2"/>
</g>
<!-- Node1303&#45;&gt;Node19 -->
<g id="edge26" class="edge">
<title>Node1303&#45;&gt;Node19</title>
<path fill="none" stroke="#63b8ff" d="M445.32,-223.93C458.96,-216.32 478.22,-205.5 495,-195.83 512.26,-185.88 531.55,-174.51 546.63,-165.56"/>
<polygon fill="#63b8ff" stroke="#63b8ff" points="548.21,-168.69 555.02,-160.57 544.63,-162.68 548.21,-168.69"/>
</g>
</g>
</svg>
