<?xml version="1.0" encoding="UTF-8" standalone="no"?>
<!DOCTYPE svg PUBLIC "-//W3C//DTD SVG 1.1//EN"
 "http://www.w3.org/Graphics/SVG/1.1/DTD/svg11.dtd">
<!-- Generated by graphviz version 12.2.1 (20241206.2353)
 -->
<!-- Title: parse_unscore Pages: 1 -->
<svg width="337pt" height="224pt"
 viewBox="0.00 0.00 336.50 224.25" xmlns="http://www.w3.org/2000/svg" xmlns:xlink="http://www.w3.org/1999/xlink">
<g id="graph0" class="graph" transform="scale(1 1) rotate(0) translate(4 220.25)">
<title>parse_unscore</title>
<!-- Node1 -->
<g id="Node000001" class="node">
<title>Node1</title>
<g id="a_Node000001"><a xlink:title="Parse the &#39;unscore&#39; command &#45; Implements Command::parse() &#45;.">
<polygon fill="#999999" stroke="#666666" points="83.5,-120.25 0,-120.25 0,-98 83.5,-98 83.5,-120.25"/>
<text text-anchor="middle" x="41.75" y="-106.75" font-family="Helvetica,sans-Serif" font-size="10.00">parse_unscore</text>
</a>
</g>
</g>
<!-- Node2 -->
<g id="Node000002" class="node">
<title>Node2</title>
<g id="a_Node000002"><a xlink:href="buffer_8c.html#a02123807d31181ac701b566226e93b33" target="_top" xlink:title="Format a string overwriting a Buffer.">
<polygon fill="#fff0f0" stroke="red" points="205.62,-216.25 143.12,-216.25 143.12,-194 205.62,-194 205.62,-216.25"/>
<text text-anchor="middle" x="174.38" y="-202.75" font-family="Helvetica,sans-Serif" font-size="10.00">buf_printf</text>
</a>
</g>
</g>
<!-- Node1&#45;&gt;Node2 -->
<g id="edge1_Node000001_Node000002" class="edge">
<title>Node1&#45;&gt;Node2</title>
<g id="a_edge1_Node000001_Node000002"><a xlink:title=" ">
<path fill="none" stroke="#63b8ff" d="M53.01,-120.64C66.94,-135.75 93.11,-162.44 119.5,-180.12 124.03,-183.16 128.98,-186.01 133.99,-188.61"/>
<polygon fill="#63b8ff" stroke="#63b8ff" points="132.36,-191.71 142.88,-192.95 135.43,-185.42 132.36,-191.71"/>
</a>
</g>
</g>
<!-- Node8 -->
<g id="Node000008" class="node">
<title>Node8</title>
<g id="a_Node000008"><a xlink:href="buffer_8h.html#a728ebc5a947b77c8d56db44ce553a7ab" target="_top" xlink:title="Convert a buffer to a const char * &quot;string&quot;.">
<polygon fill="white" stroke="#666666" points="328.5,-99.25 265.25,-99.25 265.25,-77 328.5,-77 328.5,-99.25"/>
<text text-anchor="middle" x="296.88" y="-85.75" font-family="Helvetica,sans-Serif" font-size="10.00">buf_string</text>
</a>
</g>
</g>
<!-- Node1&#45;&gt;Node8 -->
<g id="edge2_Node000001_Node000008" class="edge">
<title>Node1&#45;&gt;Node8</title>
<g id="a_edge2_Node000001_Node000008"><a xlink:title=" ">
<path fill="none" stroke="#63b8ff" d="M60.16,-120.66C75.17,-129.87 97.78,-142.04 119.5,-147.12 166.99,-158.24 183.64,-164.42 229.25,-147.12 249.87,-139.31 268.21,-121.87 280.4,-107.96"/>
<polygon fill="#63b8ff" stroke="#63b8ff" points="282.79,-110.56 286.51,-100.64 277.42,-106.07 282.79,-110.56"/>
</a>
</g>
</g>
<!-- Node9 -->
<g id="Node000009" class="node">
<title>Node9</title>
<g id="a_Node000009"><a xlink:href="compile_8c.html#ae447e834babbe84bef7005199ec39962" target="_top" xlink:title="Free a Pattern.">
<polygon fill="#fff0f0" stroke="red" points="225.5,-120.25 123.25,-120.25 123.25,-98 225.5,-98 225.5,-120.25"/>
<text text-anchor="middle" x="174.38" y="-106.75" font-family="Helvetica,sans-Serif" font-size="10.00">mutt_pattern_free</text>
</a>
</g>
</g>
<!-- Node1&#45;&gt;Node9 -->
<g id="edge4_Node000001_Node000009" class="edge">
<title>Node1&#45;&gt;Node9</title>
<g id="a_edge4_Node000001_Node000009"><a xlink:title=" ">
<path fill="none" stroke="#63b8ff" d="M83.72,-109.12C92.55,-109.12 102.07,-109.12 111.5,-109.12"/>
<polygon fill="#63b8ff" stroke="#63b8ff" points="111.39,-112.63 121.39,-109.13 111.39,-105.63 111.39,-112.63"/>
</a>
</g>
</g>
<!-- Node11 -->
<g id="Node000011" class="node">
<title>Node11</title>
<g id="a_Node000011"><a xlink:href="mutt_2string_8c.html#a6b6a50296dd2a31863a43379ef4a343d" target="_top" xlink:title="Compare two strings.">
<polygon fill="#fff0f0" stroke="red" points="217.25,-80.25 131.5,-80.25 131.5,-58 217.25,-58 217.25,-80.25"/>
<text text-anchor="middle" x="174.38" y="-66.75" font-family="Helvetica,sans-Serif" font-size="10.00">mutt_str_equal</text>
</a>
</g>
</g>
<!-- Node1&#45;&gt;Node11 -->
<g id="edge6_Node000001_Node000011" class="edge">
<title>Node1&#45;&gt;Node11</title>
<g id="a_edge6_Node000001_Node000011"><a xlink:title=" ">
<path fill="none" stroke="#63b8ff" d="M80.53,-97.56C94.34,-93.33 110.16,-88.48 124.78,-84"/>
<polygon fill="#63b8ff" stroke="#63b8ff" points="125.69,-87.39 134.23,-81.11 123.64,-80.69 125.69,-87.39"/>
</a>
</g>
</g>
<!-- Node13 -->
<g id="Node000013" class="node">
<title>Node13</title>
<g id="a_Node000013"><a xlink:href="extract_8c.html#aabf9d6ea465d5c12bfa99c6b3d8dcf94" target="_top" xlink:title="Extract one token from a string.">
<polygon fill="#fff0f0" stroke="red" points="229.25,-22.25 119.5,-22.25 119.5,0 229.25,0 229.25,-22.25"/>
<text text-anchor="middle" x="174.38" y="-8.75" font-family="Helvetica,sans-Serif" font-size="10.00">parse_extract_token</text>
</a>
</g>
</g>
<!-- Node1&#45;&gt;Node13 -->
<g id="edge7_Node000001_Node000013" class="edge">
<title>Node1&#45;&gt;Node13</title>
<g id="a_edge7_Node000001_Node000013"><a xlink:title=" ">
<path fill="none" stroke="#63b8ff" d="M57.02,-97.63C72.31,-85.39 97.37,-65.56 119.5,-49.12 128.54,-42.41 138.59,-35.24 147.54,-28.96"/>
<polygon fill="#63b8ff" stroke="#63b8ff" points="149.28,-32.02 155.48,-23.42 145.27,-26.28 149.28,-32.02"/>
</a>
</g>
</g>
<!-- Node8&#45;&gt;Node8 -->
<g id="edge3_Node000008_Node000008" class="edge">
<title>Node8&#45;&gt;Node8</title>
<g id="a_edge3_Node000008_Node000008"><a xlink:title=" ">
<path fill="none" stroke="#63b8ff" d="M276.87,-99.49C269.39,-108.28 276.06,-117.25 296.88,-117.25 308.26,-117.25 315.41,-114.57 318.33,-110.7"/>
<polygon fill="#63b8ff" stroke="#63b8ff" points="321.83,-110.45 317.07,-100.99 314.89,-111.35 321.83,-110.45"/>
</a>
</g>
</g>
<!-- Node9&#45;&gt;Node9 -->
<g id="edge5_Node000009_Node000009" class="edge">
<title>Node9&#45;&gt;Node9</title>
<g id="a_edge5_Node000009_Node000009"><a xlink:title=" ">
<path fill="none" stroke="#63b8ff" d="M154.37,-120.49C146.89,-129.28 153.56,-138.25 174.38,-138.25 185.76,-138.25 192.91,-135.57 195.83,-131.7"/>
<polygon fill="#63b8ff" stroke="#63b8ff" points="199.33,-131.45 194.57,-121.99 192.39,-132.35 199.33,-131.45"/>
</a>
</g>
</g>
<!-- Node13&#45;&gt;Node8 -->
<g id="edge8_Node000013_Node000008" class="edge">
<title>Node13&#45;&gt;Node8</title>
<g id="a_edge8_Node000013_Node000008"><a xlink:title=" ">
<path fill="none" stroke="#63b8ff" d="M193.42,-22.65C213.2,-35.3 245.2,-55.74 268.17,-70.42"/>
<polygon fill="#63b8ff" stroke="#63b8ff" points="266.13,-73.27 276.44,-75.7 269.89,-67.37 266.13,-73.27"/>
</a>
</g>
</g>
<!-- Node13&#45;&gt;Node13 -->
<g id="edge9_Node000013_Node000013" class="edge">
<title>Node13&#45;&gt;Node13</title>
<g id="a_edge9_Node000013_Node000013"><a xlink:title=" ">
<path fill="none" stroke="#63b8ff" d="M154.37,-22.49C146.89,-31.28 153.56,-40.25 174.38,-40.25 185.76,-40.25 192.91,-37.57 195.83,-33.7"/>
<polygon fill="#63b8ff" stroke="#63b8ff" points="199.33,-33.45 194.57,-23.99 192.39,-34.35 199.33,-33.45"/>
</a>
</g>
</g>
</g>
</svg>
