<?xml version="1.0" encoding="UTF-8" standalone="no"?>
<!DOCTYPE svg PUBLIC "-//W3C//DTD SVG 1.1//EN"
 "http://www.w3.org/Graphics/SVG/1.1/DTD/svg11.dtd">
<!-- Generated by graphviz version 12.2.1 (20241206.2353)
 -->
<!-- Title: parse_nospam Pages: 1 -->
<svg width="379pt" height="304pt"
 viewBox="0.00 0.00 379.25 304.32" xmlns="http://www.w3.org/2000/svg" xmlns:xlink="http://www.w3.org/1999/xlink">
<g id="graph0" class="graph" transform="scale(1 1) rotate(0) translate(4 300.32)">
<title>parse_nospam</title>
<!-- Node1 -->
<g id="Node000001" class="node">
<title>Node1</title>
<g id="a_Node000001"><a xlink:title="Parse the &#39;nospam&#39; command &#45; Implements Command::parse() &#45;.">
<polygon fill="#999999" stroke="#666666" points="83.5,-170 0,-170 0,-147.75 83.5,-147.75 83.5,-170"/>
<text text-anchor="middle" x="41.75" y="-156.5" font-family="Helvetica,sans-Serif" font-size="10.00">parse_nospam</text>
</a>
</g>
</g>
<!-- Node2 -->
<g id="Node000002" class="node">
<title>Node2</title>
<g id="a_Node000002"><a xlink:href="buffer_8c.html#a02123807d31181ac701b566226e93b33" target="_top" xlink:title="Format a string overwriting a Buffer.">
<polygon fill="#fff0f0" stroke="red" points="359.62,-287 297.12,-287 297.12,-264.75 359.62,-264.75 359.62,-287"/>
<text text-anchor="middle" x="328.38" y="-273.5" font-family="Helvetica,sans-Serif" font-size="10.00">buf_printf</text>
</a>
</g>
</g>
<!-- Node1&#45;&gt;Node2 -->
<g id="edge1_Node000001_Node000002" class="edge">
<title>Node1&#45;&gt;Node2</title>
<g id="a_edge1_Node000001_Node000002"><a xlink:title=" ">
<path fill="none" stroke="#63b8ff" d="M46.11,-170.37C54.09,-195.25 76.75,-253.69 119.5,-276.88 171.33,-305 241.69,-296.81 285.8,-287.21"/>
<polygon fill="#63b8ff" stroke="#63b8ff" points="286.54,-290.63 295.49,-284.97 284.96,-283.81 286.54,-290.63"/>
</a>
</g>
</g>
<!-- Node8 -->
<g id="Node000008" class="node">
<title>Node8</title>
<g id="a_Node000008"><a xlink:href="buffer_8h.html#a728ebc5a947b77c8d56db44ce553a7ab" target="_top" xlink:title="Convert a buffer to a const char * &quot;string&quot;.">
<polygon fill="white" stroke="#666666" points="360,-170 296.75,-170 296.75,-147.75 360,-147.75 360,-170"/>
<text text-anchor="middle" x="328.38" y="-156.5" font-family="Helvetica,sans-Serif" font-size="10.00">buf_string</text>
</a>
</g>
</g>
<!-- Node1&#45;&gt;Node8 -->
<g id="edge2_Node000001_Node000008" class="edge">
<title>Node1&#45;&gt;Node8</title>
<g id="a_edge2_Node000001_Node000008"><a xlink:title=" ">
<path fill="none" stroke="#63b8ff" d="M59.18,-170.44C74.12,-180.19 97.17,-193.41 119.5,-198.88 175.62,-212.62 193.34,-212.46 249.5,-198.88 267.69,-194.48 286.39,-185.06 300.91,-176.47"/>
<polygon fill="#63b8ff" stroke="#63b8ff" points="302.72,-179.46 309.39,-171.23 299.04,-173.51 302.72,-179.46"/>
</a>
</g>
</g>
<!-- Node9 -->
<g id="Node000009" class="node">
<title>Node9</title>
<g id="a_Node000009"><a xlink:href="mutt_2regex_8c.html#a305eb49ea76a2bc81bf89c1b5417c308" target="_top" xlink:title="Compile a regex string and add it to a list.">
<polygon fill="#fff0f0" stroke="red" points="236.38,-268 132.62,-268 132.62,-245.75 236.38,-245.75 236.38,-268"/>
<text text-anchor="middle" x="184.5" y="-254.5" font-family="Helvetica,sans-Serif" font-size="10.00">mutt_regexlist_add</text>
</a>
</g>
</g>
<!-- Node1&#45;&gt;Node9 -->
<g id="edge4_Node000001_Node000009" class="edge">
<title>Node1&#45;&gt;Node9</title>
<g id="a_edge4_Node000001_Node000009"><a xlink:title=" ">
<path fill="none" stroke="#63b8ff" d="M52.32,-170.45C65.86,-186.2 92.03,-214.41 119.5,-231.88 124.72,-235.2 130.46,-238.2 136.28,-240.87"/>
<polygon fill="#63b8ff" stroke="#63b8ff" points="134.8,-244.05 145.37,-244.74 137.54,-237.61 134.8,-244.05"/>
</a>
</g>
</g>
<!-- Node16 -->
<g id="Node000016" class="node">
<title>Node16</title>
<g id="a_Node000016"><a xlink:href="mutt_2regex_8c.html#a2c9214257c0c29629a4481d8937a8be3" target="_top" xlink:title="Free a RegexList object.">
<polygon fill="#fff0f0" stroke="red" points="237.5,-190 131.5,-190 131.5,-167.75 237.5,-167.75 237.5,-190"/>
<text text-anchor="middle" x="184.5" y="-176.5" font-family="Helvetica,sans-Serif" font-size="10.00">mutt_regexlist_free</text>
</a>
</g>
</g>
<!-- Node1&#45;&gt;Node16 -->
<g id="edge6_Node000001_Node000016" class="edge">
<title>Node1&#45;&gt;Node16</title>
<g id="a_edge6_Node000001_Node000016"><a xlink:title=" ">
<path fill="none" stroke="#63b8ff" d="M83.84,-164.71C95.15,-166.32 107.68,-168.1 119.94,-169.84"/>
<polygon fill="#63b8ff" stroke="#63b8ff" points="119.18,-173.27 129.57,-171.21 120.16,-166.34 119.18,-173.27"/>
</a>
</g>
</g>
<!-- Node17 -->
<g id="Node000017" class="node">
<title>Node17</title>
<g id="a_Node000017"><a xlink:href="mutt_2regex_8c.html#a4cd5feab8463aea0a18d195f6c3a704d" target="_top" xlink:title="Free a ReplaceList object.">
<polygon fill="#fff0f0" stroke="red" points="241.25,-150 127.75,-150 127.75,-127.75 241.25,-127.75 241.25,-150"/>
<text text-anchor="middle" x="184.5" y="-136.5" font-family="Helvetica,sans-Serif" font-size="10.00">mutt_replacelist_free</text>
</a>
</g>
</g>
<!-- Node1&#45;&gt;Node17 -->
<g id="edge7_Node000001_Node000017" class="edge">
<title>Node1&#45;&gt;Node17</title>
<g id="a_edge7_Node000001_Node000017"><a xlink:title=" ">
<path fill="none" stroke="#63b8ff" d="M83.84,-153.04C93.96,-151.6 105.06,-150.02 116.06,-148.46"/>
<polygon fill="#63b8ff" stroke="#63b8ff" points="116.54,-151.93 125.95,-147.05 115.56,-145 116.54,-151.93"/>
</a>
</g>
</g>
<!-- Node18 -->
<g id="Node000018" class="node">
<title>Node18</title>
<g id="a_Node000018"><a xlink:href="mutt_2regex_8c.html#a10e50965e40cc0fe521c15c77d1e4841" target="_top" xlink:title="Remove a pattern from a list.">
<polygon fill="#fff0f0" stroke="red" points="249.5,-52 119.5,-52 119.5,-29.75 249.5,-29.75 249.5,-52"/>
<text text-anchor="middle" x="184.5" y="-38.5" font-family="Helvetica,sans-Serif" font-size="10.00">mutt_replacelist_remove</text>
</a>
</g>
</g>
<!-- Node1&#45;&gt;Node18 -->
<g id="edge8_Node000001_Node000018" class="edge">
<title>Node1&#45;&gt;Node18</title>
<g id="a_edge8_Node000001_Node000018"><a xlink:title=" ">
<path fill="none" stroke="#63b8ff" d="M48.69,-147.35C59.8,-126.89 85.72,-84.22 119.5,-60.88 121.3,-59.64 123.17,-58.47 125.11,-57.37"/>
<polygon fill="#63b8ff" stroke="#63b8ff" points="126.36,-60.65 133.81,-53.12 123.29,-54.36 126.36,-60.65"/>
</a>
</g>
</g>
<!-- Node19 -->
<g id="Node000019" class="node">
<title>Node19</title>
<g id="a_Node000019"><a xlink:href="mutt_2string_8c.html#a6b6a50296dd2a31863a43379ef4a343d" target="_top" xlink:title="Compare two strings.">
<polygon fill="#fff0f0" stroke="red" points="371.25,-33 285.5,-33 285.5,-10.75 371.25,-10.75 371.25,-33"/>
<text text-anchor="middle" x="328.38" y="-19.5" font-family="Helvetica,sans-Serif" font-size="10.00">mutt_str_equal</text>
</a>
</g>
</g>
<!-- Node1&#45;&gt;Node19 -->
<g id="edge10_Node000001_Node000019" class="edge">
<title>Node1&#45;&gt;Node19</title>
<g id="a_edge10_Node000001_Node000019"><a xlink:title=" ">
<path fill="none" stroke="#63b8ff" d="M45,-147.62C51.18,-120.02 71.29,-49.23 119.5,-20.88 167.01,7.06 231.8,1.31 276.36,-7.87"/>
<polygon fill="#63b8ff" stroke="#63b8ff" points="275.51,-11.27 286.03,-10.01 277.02,-4.44 275.51,-11.27"/>
</a>
</g>
</g>
<!-- Node21 -->
<g id="Node000021" class="node">
<title>Node21</title>
<g id="a_Node000021"><a xlink:href="extract_8c.html#aabf9d6ea465d5c12bfa99c6b3d8dcf94" target="_top" xlink:title="Extract one token from a string.">
<polygon fill="#fff0f0" stroke="red" points="239.38,-92 129.62,-92 129.62,-69.75 239.38,-69.75 239.38,-92"/>
<text text-anchor="middle" x="184.5" y="-78.5" font-family="Helvetica,sans-Serif" font-size="10.00">parse_extract_token</text>
</a>
</g>
</g>
<!-- Node1&#45;&gt;Node21 -->
<g id="edge11_Node000001_Node000021" class="edge">
<title>Node1&#45;&gt;Node21</title>
<g id="a_edge11_Node000001_Node000021"><a xlink:title=" ">
<path fill="none" stroke="#63b8ff" d="M63.52,-147.37C87.11,-134.29 125.85,-112.82 152.91,-97.83"/>
<polygon fill="#63b8ff" stroke="#63b8ff" points="154.27,-101.07 161.32,-93.17 150.88,-94.95 154.27,-101.07"/>
</a>
</g>
</g>
<!-- Node8&#45;&gt;Node8 -->
<g id="edge3_Node000008_Node000008" class="edge">
<title>Node8&#45;&gt;Node8</title>
<g id="a_edge3_Node000008_Node000008"><a xlink:title=" ">
<path fill="none" stroke="#63b8ff" d="M304.88,-170.24C296.1,-179.03 303.93,-188 328.38,-188 341.74,-188 350.14,-185.32 353.58,-181.45"/>
<polygon fill="#63b8ff" stroke="#63b8ff" points="357.06,-181.09 352.1,-171.73 350.14,-182.15 357.06,-181.09"/>
</a>
</g>
</g>
<!-- Node9&#45;&gt;Node2 -->
<g id="edge5_Node000009_Node000002" class="edge">
<title>Node9&#45;&gt;Node2</title>
<g id="a_edge5_Node000009_Node000002"><a xlink:title=" ">
<path fill="none" stroke="#63b8ff" d="M236.72,-263.74C252.79,-265.89 270.32,-268.23 285.64,-270.29"/>
<polygon fill="#63b8ff" stroke="#63b8ff" points="285,-273.73 295.37,-271.59 285.93,-266.79 285,-273.73"/>
</a>
</g>
</g>
<!-- Node18&#45;&gt;Node19 -->
<g id="edge9_Node000018_Node000019" class="edge">
<title>Node18&#45;&gt;Node19</title>
<g id="a_edge9_Node000018_Node000019"><a xlink:title=" ">
<path fill="none" stroke="#63b8ff" d="M249.8,-32.27C257.87,-31.18 266.07,-30.09 273.96,-29.03"/>
<polygon fill="#63b8ff" stroke="#63b8ff" points="274.29,-32.52 283.74,-27.72 273.36,-25.58 274.29,-32.52"/>
</a>
</g>
</g>
<!-- Node21&#45;&gt;Node8 -->
<g id="edge12_Node000021_Node000008" class="edge">
<title>Node21&#45;&gt;Node8</title>
<g id="a_edge12_Node000021_Node000008"><a xlink:title=" ">
<path fill="none" stroke="#63b8ff" d="M206.43,-92.39C230.22,-105.46 269.26,-126.93 296.54,-141.92"/>
<polygon fill="#63b8ff" stroke="#63b8ff" points="294.58,-144.84 305.03,-146.59 297.95,-138.71 294.58,-144.84"/>
</a>
</g>
</g>
<!-- Node21&#45;&gt;Node21 -->
<g id="edge13_Node000021_Node000021" class="edge">
<title>Node21&#45;&gt;Node21</title>
<g id="a_edge13_Node000021_Node000021"><a xlink:title=" ">
<path fill="none" stroke="#63b8ff" d="M161.19,-92.24C152.47,-101.03 160.24,-110 184.5,-110 197.77,-110 206.1,-107.32 209.5,-103.45"/>
<polygon fill="#63b8ff" stroke="#63b8ff" points="212.99,-103.1 208.04,-93.73 206.07,-104.14 212.99,-103.1"/>
</a>
</g>
</g>
</g>
</svg>
