<?xml version="1.0" encoding="UTF-8" standalone="no"?>
<!DOCTYPE svg PUBLIC "-//W3C//DTD SVG 1.1//EN"
 "http://www.w3.org/Graphics/SVG/1.1/DTD/svg11.dtd">
<!-- Generated by graphviz version 12.2.1 (20241206.2353)
 -->
<!-- Title: expando_reset Pages: 1 -->
<svg width="340pt" height="188pt"
 viewBox="0.00 0.00 339.50 188.25" xmlns="http://www.w3.org/2000/svg" xmlns:xlink="http://www.w3.org/1999/xlink">
<g id="graph0" class="graph" transform="scale(1 1) rotate(0) translate(4 184.25)">
<title>expando_reset</title>
<!-- Node1 -->
<g id="Node000001" class="node">
<title>Node1</title>
<g id="a_Node000001"><a xlink:title="Reset an Expando to its initial value &#45; Implements ConfigSetType::reset() &#45;.">
<polygon fill="#999999" stroke="#666666" points="84.25,-102.25 0,-102.25 0,-80 84.25,-80 84.25,-102.25"/>
<text text-anchor="middle" x="42.12" y="-88.75" font-family="Helvetica,sans-Serif" font-size="10.00">expando_reset</text>
</a>
</g>
</g>
<!-- Node2 -->
<g id="Node000002" class="node">
<title>Node2</title>
<g id="a_Node000002"><a xlink:href="group__cfg__type__destroy.html#ga6455fa4329665d6d8d018367469c2932" target="_top" xlink:title="Destroy an Expando object &#45; Implements ConfigSetType::destroy() &#45;.">
<polygon fill="white" stroke="#666666" points="215.75,-180.25 120.25,-180.25 120.25,-158 215.75,-158 215.75,-180.25"/>
<text text-anchor="middle" x="168" y="-166.75" font-family="Helvetica,sans-Serif" font-size="10.00">expando_destroy</text>
</a>
</g>
</g>
<!-- Node1&#45;&gt;Node2 -->
<g id="edge1_Node000001_Node000002" class="edge">
<title>Node1&#45;&gt;Node2</title>
<g id="a_edge1_Node000001_Node000002"><a xlink:title=" ">
<path fill="none" stroke="#63b8ff" d="M58.74,-102.61C74.08,-113.72 98.32,-130.78 120.25,-144.12 124.83,-146.91 129.74,-149.72 134.59,-152.4"/>
<polygon fill="#63b8ff" stroke="#63b8ff" points="132.57,-155.28 143.03,-156.95 135.89,-149.12 132.57,-155.28"/>
</a>
</g>
</g>
<!-- Node3 -->
<g id="Node000003" class="node">
<title>Node3</title>
<g id="a_Node000003"><a xlink:href="expando_2expando_8c.html#a949d8a4d7721966b8f8fdba9e9db10b3" target="_top" xlink:title="Free an Expando object.">
<polygon fill="#fff0f0" stroke="red" points="331.5,-141.25 251.75,-141.25 251.75,-119 331.5,-119 331.5,-141.25"/>
<text text-anchor="middle" x="291.62" y="-127.75" font-family="Helvetica,sans-Serif" font-size="10.00">expando_free</text>
</a>
</g>
</g>
<!-- Node1&#45;&gt;Node3 -->
<g id="edge4_Node000001_Node000003" class="edge">
<title>Node1&#45;&gt;Node3</title>
<g id="a_edge4_Node000001_Node000003"><a xlink:title=" ">
<path fill="none" stroke="#63b8ff" d="M83.31,-102.7C95.13,-105.79 108.14,-108.89 120.25,-111.12 160.35,-118.52 206.33,-123.44 240.41,-126.42"/>
<polygon fill="#63b8ff" stroke="#63b8ff" points="239.72,-129.87 249.98,-127.23 240.31,-122.9 239.72,-129.87"/>
</a>
</g>
</g>
<!-- Node5 -->
<g id="Node000005" class="node">
<title>Node5</title>
<g id="a_Node000005"><a xlink:href="expando_2expando_8c.html#aeed8ce276977c115efe2efb3862db5ad" target="_top" xlink:title="Compare two expandos.">
<polygon fill="#fff0f0" stroke="red" points="210.88,-102.25 125.12,-102.25 125.12,-80 210.88,-80 210.88,-102.25"/>
<text text-anchor="middle" x="168" y="-88.75" font-family="Helvetica,sans-Serif" font-size="10.00">expando_equal</text>
</a>
</g>
</g>
<!-- Node1&#45;&gt;Node5 -->
<g id="edge3_Node000001_Node000005" class="edge">
<title>Node1&#45;&gt;Node5</title>
<g id="a_edge3_Node000001_Node000005"><a xlink:title=" ">
<path fill="none" stroke="#63b8ff" d="M84.72,-91.12C93.91,-91.12 103.78,-91.12 113.38,-91.12"/>
<polygon fill="#63b8ff" stroke="#63b8ff" points="113.37,-94.63 123.37,-91.13 113.37,-87.63 113.37,-94.63"/>
</a>
</g>
</g>
<!-- Node8 -->
<g id="Node000008" class="node">
<title>Node8</title>
<g id="a_Node000008"><a xlink:href="expando_2expando_8c.html#a301a11afc09d7f98e652604400c6680b" target="_top" xlink:title="Parse an Expando string.">
<polygon fill="#fff0f0" stroke="red" points="211.25,-62.25 124.75,-62.25 124.75,-40 211.25,-40 211.25,-62.25"/>
<text text-anchor="middle" x="168" y="-48.75" font-family="Helvetica,sans-Serif" font-size="10.00">expando_parse</text>
</a>
</g>
</g>
<!-- Node1&#45;&gt;Node8 -->
<g id="edge5_Node000001_Node000008" class="edge">
<title>Node1&#45;&gt;Node8</title>
<g id="a_edge5_Node000001_Node000008"><a xlink:title=" ">
<path fill="none" stroke="#63b8ff" d="M78.95,-79.56C91.92,-75.37 106.76,-70.58 120.51,-66.14"/>
<polygon fill="#63b8ff" stroke="#63b8ff" points="121.37,-69.54 129.81,-63.13 119.22,-62.88 121.37,-69.54"/>
</a>
</g>
</g>
<!-- Node70 -->
<g id="Node000070" class="node">
<title>Node70</title>
<g id="a_Node000070"><a xlink:href="config_2set_8h.html#a09a8cc6d80d0de8506c22effdaebef97" target="_top" xlink:title="Validator function for D_ON_STARTUP.">
<polygon fill="#fff0f0" stroke="red" points="204.88,-22.25 131.12,-22.25 131.12,0 204.88,0 204.88,-22.25"/>
<text text-anchor="middle" x="168" y="-8.75" font-family="Helvetica,sans-Serif" font-size="10.00">startup_only</text>
</a>
</g>
</g>
<!-- Node1&#45;&gt;Node70 -->
<g id="edge7_Node000001_Node000070" class="edge">
<title>Node1&#45;&gt;Node70</title>
<g id="a_edge7_Node000001_Node000070"><a xlink:title=" ">
<path fill="none" stroke="#63b8ff" d="M55.76,-79.63C70.46,-66.66 95.84,-45.51 120.25,-31.12 122.27,-29.93 124.37,-28.78 126.52,-27.65"/>
<polygon fill="#63b8ff" stroke="#63b8ff" points="127.92,-30.87 135.4,-23.37 124.87,-24.57 127.92,-30.87"/>
</a>
</g>
</g>
<!-- Node2&#45;&gt;Node3 -->
<g id="edge2_Node000002_Node000003" class="edge">
<title>Node2&#45;&gt;Node3</title>
<g id="a_edge2_Node000002_Node000003"><a xlink:title=" ">
<path fill="none" stroke="#63b8ff" d="M205.16,-157.53C217.19,-153.67 230.76,-149.32 243.48,-145.24"/>
<polygon fill="#63b8ff" stroke="#63b8ff" points="244.5,-148.59 252.95,-142.21 242.36,-141.93 244.5,-148.59"/>
</a>
</g>
</g>
<!-- Node8&#45;&gt;Node3 -->
<g id="edge6_Node000008_Node000003" class="edge">
<title>Node8&#45;&gt;Node3</title>
<g id="a_edge6_Node000008_Node000003"><a xlink:title=" ">
<path fill="none" stroke="#63b8ff" d="M199.26,-62.68C204.87,-65.21 210.59,-68.06 215.75,-71.12 235.13,-82.63 255.08,-98.59 269.5,-111.01"/>
<polygon fill="#63b8ff" stroke="#63b8ff" points="267.17,-113.61 276.99,-117.58 271.78,-108.35 267.17,-113.61"/>
</a>
</g>
</g>
</g>
</svg>
