<?xml version="1.0" encoding="UTF-8" standalone="no"?>
<!DOCTYPE svg PUBLIC "-//W3C//DTD SVG 1.1//EN"
 "http://www.w3.org/Graphics/SVG/1.1/DTD/svg11.dtd">
<!-- Generated by graphviz version 12.2.1 (20241206.2353)
 -->
<!-- Title: dlg_certificate Pages: 1 -->
<svg width="406pt" height="486pt"
 viewBox="0.00 0.00 406.25 486.25" xmlns="http://www.w3.org/2000/svg" xmlns:xlink="http://www.w3.org/1999/xlink">
<g id="graph0" class="graph" transform="scale(1 1) rotate(0) translate(4 482.25)">
<title>dlg_certificate</title>
<!-- Node1 -->
<g id="Node000001" class="node">
<title>Node1</title>
<g id="a_Node000001"><a xlink:title="Ask the user to validate the certificate &#45;.">
<polygon fill="#999999" stroke="#666666" points="81.25,-259.25 0,-259.25 0,-237 81.25,-237 81.25,-259.25"/>
<text text-anchor="middle" x="40.62" y="-245.75" font-family="Helvetica,sans-Serif" font-size="10.00">dlg_certificate</text>
</a>
</g>
</g>
<!-- Node2 -->
<g id="Node000002" class="node">
<title>Node2</title>
<g id="a_Node000002"><a xlink:href="group__menu__make__entry.html#ga54426e7c96b9c31cc09e77ff982fbce6" target="_top" xlink:title="Create a Certificate for the Menu &#45; Implements Menu::make_entry() &#45;.">
<polygon fill="#fff0f0" stroke="red" points="234.12,-478.25 139.38,-478.25 139.38,-456 234.12,-456 234.12,-478.25"/>
<text text-anchor="middle" x="186.75" y="-464.75" font-family="Helvetica,sans-Serif" font-size="10.00">cert_make_entry</text>
</a>
</g>
</g>
<!-- Node1&#45;&gt;Node2 -->
<g id="edge1_Node000001_Node000002" class="edge">
<title>Node1&#45;&gt;Node2</title>
<g id="a_edge1_Node000001_Node000002"><a xlink:title=" ">
<path fill="none" stroke="#63b8ff" d="M42.5,-259.5C45.74,-293.33 59.97,-394.21 117.25,-447.12 120.73,-450.34 124.7,-453.04 128.94,-455.31"/>
<polygon fill="#63b8ff" stroke="#63b8ff" points="127.25,-458.39 137.81,-459.24 130.09,-451.99 127.25,-458.39"/>
</a>
</g>
</g>
<!-- Node10 -->
<g id="Node000010" class="node">
<title>Node10</title>
<g id="a_Node000010"><a xlink:href="get_8c.html#a41a7f3342ccbe6b726fecc8adf041d4e" target="_top" xlink:title="Determine what a keypress should do.">
<polygon fill="#fff0f0" stroke="red" points="218,-438.25 155.5,-438.25 155.5,-416 218,-416 218,-438.25"/>
<text text-anchor="middle" x="186.75" y="-424.75" font-family="Helvetica,sans-Serif" font-size="10.00">km_dokey</text>
</a>
</g>
</g>
<!-- Node1&#45;&gt;Node10 -->
<g id="edge2_Node000001_Node000010" class="edge">
<title>Node1&#45;&gt;Node10</title>
<g id="a_edge2_Node000001_Node000010"><a xlink:title=" ">
<path fill="none" stroke="#63b8ff" d="M43.75,-259.7C49.75,-288.98 69.54,-366.5 117.25,-407.12 124.84,-413.59 134.43,-417.97 144.02,-420.93"/>
<polygon fill="#63b8ff" stroke="#63b8ff" points="143.12,-424.31 153.67,-423.42 144.86,-417.54 143.12,-424.31"/>
</a>
</g>
</g>
<!-- Node144 -->
<g id="Node000144" class="node">
<title>Node144</title>
<g id="a_Node000144"><a xlink:href="dlg__verifycert_8c.html#a1634a9781ed0b04f1b611f3088ce2209" target="_top" xlink:title="Check if there are any menu key events to process.">
<polygon fill="#fff0f0" stroke="red" points="240.5,-398.25 133,-398.25 133,-376 240.5,-376 240.5,-398.25"/>
<text text-anchor="middle" x="186.75" y="-384.75" font-family="Helvetica,sans-Serif" font-size="10.00">menu_dialog_dokey</text>
</a>
</g>
</g>
<!-- Node1&#45;&gt;Node144 -->
<g id="edge3_Node000001_Node000144" class="edge">
<title>Node1&#45;&gt;Node144</title>
<g id="a_edge3_Node000001_Node000144"><a xlink:title=" ">
<path fill="none" stroke="#63b8ff" d="M45.68,-259.56C54.7,-283.3 78.7,-338.16 117.25,-367.12 119,-368.44 120.83,-369.66 122.72,-370.81"/>
<polygon fill="#63b8ff" stroke="#63b8ff" points="120.8,-373.75 131.29,-375.2 123.99,-367.53 120.8,-373.75"/>
</a>
</g>
</g>
<!-- Node146 -->
<g id="Node000146" class="node">
<title>Node146</title>
<g id="a_Node000146"><a xlink:href="dlg__verifycert_8c.html#a9aa21dab929a7c328f0b065f36b202d3" target="_top" xlink:title="Convert menubar movement to scrolling.">
<polygon fill="white" stroke="#666666" points="255.12,-358.25 118.38,-358.25 118.38,-336 255.12,-336 255.12,-358.25"/>
<text text-anchor="middle" x="186.75" y="-344.75" font-family="Helvetica,sans-Serif" font-size="10.00">menu_dialog_translate_op</text>
</a>
</g>
</g>
<!-- Node1&#45;&gt;Node146 -->
<g id="edge4_Node000001_Node000146" class="edge">
<title>Node1&#45;&gt;Node146</title>
<g id="a_edge4_Node000001_Node000146"><a xlink:title=" ">
<path fill="none" stroke="#63b8ff" d="M49.52,-259.62C61.95,-276.83 87.71,-309.19 117.25,-327.12 119.57,-328.54 122,-329.85 124.5,-331.08"/>
<polygon fill="#63b8ff" stroke="#63b8ff" points="123.11,-334.29 133.68,-335.04 125.88,-327.86 123.11,-334.29"/>
</a>
</g>
</g>
<!-- Node147 -->
<g id="Node000147" class="node">
<title>Node147</title>
<g id="a_Node000147"><a xlink:href="group__dispatcher__api.html#gac00aa5fb65018e7719a6567aac6f41a6" target="_top" xlink:title="Perform a Menu function &#45; Implements function_dispatcher_t &#45;.">
<polygon fill="#fff0f0" stroke="red" points="256.25,-318.25 117.25,-318.25 117.25,-296 256.25,-296 256.25,-318.25"/>
<text text-anchor="middle" x="186.75" y="-304.75" font-family="Helvetica,sans-Serif" font-size="10.00">menu_function_dispatcher</text>
</a>
</g>
</g>
<!-- Node1&#45;&gt;Node147 -->
<g id="edge5_Node000001_Node000147" class="edge">
<title>Node1&#45;&gt;Node147</title>
<g id="a_edge5_Node000001_Node000147"><a xlink:title=" ">
<path fill="none" stroke="#63b8ff" d="M65.95,-259.6C80.68,-266.42 99.91,-275.08 117.25,-282.12 125.16,-285.34 133.66,-288.6 141.88,-291.65"/>
<polygon fill="#63b8ff" stroke="#63b8ff" points="140.45,-294.85 151.04,-295.01 142.86,-288.28 140.45,-294.85"/>
</a>
</g>
</g>
<!-- Node149 -->
<g id="Node000149" class="node">
<title>Node149</title>
<g id="a_Node000149"><a xlink:href="opcodes_8c.html#ae0f924b381cbef15a0aa71993b74215d" target="_top" xlink:title="Get the name of an opcode.">
<polygon fill="white" stroke="#666666" points="398.25,-298.25 292.25,-298.25 292.25,-276 398.25,-276 398.25,-298.25"/>
<text text-anchor="middle" x="345.25" y="-284.75" font-family="Helvetica,sans-Serif" font-size="10.00">opcodes_get_name</text>
</a>
</g>
</g>
<!-- Node1&#45;&gt;Node149 -->
<g id="edge8_Node000001_Node000149" class="edge">
<title>Node1&#45;&gt;Node149</title>
<g id="a_edge8_Node000001_Node000149"><a xlink:title=" ">
<path fill="none" stroke="#63b8ff" d="M81.5,-253.26C132.24,-259.8 220.49,-271.18 280.58,-278.92"/>
<polygon fill="#63b8ff" stroke="#63b8ff" points="279.97,-282.37 290.33,-280.18 280.86,-275.43 279.97,-282.37"/>
</a>
</g>
</g>
<!-- Node58 -->
<g id="Node000058" class="node">
<title>Node58</title>
<g id="a_Node000058"><a xlink:href="msgwin_8c.html#ac1dc426af34116e8de4ebfb20d0cb44f" target="_top" xlink:title="Set the text for the Message Window.">
<polygon fill="#fff0f0" stroke="red" points="233,-240.25 140.5,-240.25 140.5,-218 233,-218 233,-240.25"/>
<text text-anchor="middle" x="186.75" y="-226.75" font-family="Helvetica,sans-Serif" font-size="10.00">msgwin_set_text</text>
</a>
</g>
</g>
<!-- Node1&#45;&gt;Node58 -->
<g id="edge7_Node000001_Node000058" class="edge">
<title>Node1&#45;&gt;Node58</title>
<g id="a_edge7_Node000001_Node000058"><a xlink:title=" ">
<path fill="none" stroke="#63b8ff" d="M81.39,-242.88C96.01,-240.96 112.86,-238.73 128.7,-236.65"/>
<polygon fill="#63b8ff" stroke="#63b8ff" points="129.05,-240.13 138.5,-235.35 128.13,-233.19 129.05,-240.13"/>
</a>
</g>
</g>
<!-- Node150 -->
<g id="Node000150" class="node">
<title>Node150</title>
<g id="a_Node000150"><a xlink:href="sbar_8c.html#aea83b6013a1be53fcb5ef26b0dc84cd3" target="_top" xlink:title="Set the title for the Simple Bar.">
<polygon fill="#fff0f0" stroke="red" points="225.5,-200.25 148,-200.25 148,-178 225.5,-178 225.5,-200.25"/>
<text text-anchor="middle" x="186.75" y="-186.75" font-family="Helvetica,sans-Serif" font-size="10.00">sbar_set_title</text>
</a>
</g>
</g>
<!-- Node1&#45;&gt;Node150 -->
<g id="edge9_Node000001_Node000150" class="edge">
<title>Node1&#45;&gt;Node150</title>
<g id="a_edge9_Node000001_Node000150"><a xlink:title=" ">
<path fill="none" stroke="#63b8ff" d="M61.35,-236.62C76.34,-228.21 97.63,-216.96 117.25,-209.12 123.44,-206.65 130.06,-204.33 136.64,-202.22"/>
<polygon fill="#63b8ff" stroke="#63b8ff" points="137.64,-205.57 146.18,-199.29 135.59,-198.88 137.64,-205.57"/>
</a>
</g>
</g>
<!-- Node152 -->
<g id="Node000152" class="node">
<title>Node152</title>
<g id="a_Node000152"><a xlink:href="gui_2simple_8c.html#a4b8e413b9970200cd75543dd09d38622" target="_top" xlink:title="Destroy a simple index Dialog.">
<polygon fill="#fff0f0" stroke="red" points="237.88,-160.25 135.62,-160.25 135.62,-138 237.88,-138 237.88,-160.25"/>
<text text-anchor="middle" x="186.75" y="-146.75" font-family="Helvetica,sans-Serif" font-size="10.00">simple_dialog_free</text>
</a>
</g>
</g>
<!-- Node1&#45;&gt;Node152 -->
<g id="edge10_Node000001_Node000152" class="edge">
<title>Node1&#45;&gt;Node152</title>
<g id="a_edge10_Node000001_Node000152"><a xlink:title=" ">
<path fill="none" stroke="#63b8ff" d="M49.52,-236.63C61.95,-219.42 87.71,-187.06 117.25,-169.12 119.71,-167.63 122.28,-166.25 124.93,-164.96"/>
<polygon fill="#63b8ff" stroke="#63b8ff" points="126.21,-168.22 134.04,-161.07 123.47,-161.78 126.21,-168.22"/>
</a>
</g>
</g>
<!-- Node154 -->
<g id="Node000154" class="node">
<title>Node154</title>
<g id="a_Node000154"><a xlink:href="gui_2simple_8c.html#acafc61cba453ae248152b284c2bb12d8" target="_top" xlink:title="Create a simple index Dialog.">
<polygon fill="#fff0f0" stroke="red" points="237.5,-102.25 136,-102.25 136,-80 237.5,-80 237.5,-102.25"/>
<text text-anchor="middle" x="186.75" y="-88.75" font-family="Helvetica,sans-Serif" font-size="10.00">simple_dialog_new</text>
</a>
</g>
</g>
<!-- Node1&#45;&gt;Node154 -->
<g id="edge11_Node000001_Node000154" class="edge">
<title>Node1&#45;&gt;Node154</title>
<g id="a_edge11_Node000001_Node000154"><a xlink:title=" ">
<path fill="none" stroke="#63b8ff" d="M46.54,-236.65C56.81,-213.77 82.51,-161.86 117.25,-129.12 126.18,-120.72 137.31,-113.52 148,-107.72"/>
<polygon fill="#63b8ff" stroke="#63b8ff" points="149.36,-110.95 156.67,-103.28 146.17,-104.72 149.36,-110.95"/>
</a>
</g>
</g>
<!-- Node105 -->
<g id="Node000105" class="node">
<title>Node105</title>
<g id="a_Node000105"><a xlink:href="mutt__window_8c.html#a0af7bfe97dbb8f95d03851ec3fe62553" target="_top" xlink:title="Reflow, recalc and repaint a tree of Windows.">
<polygon fill="#fff0f0" stroke="red" points="230.75,-62.25 142.75,-62.25 142.75,-40 230.75,-40 230.75,-62.25"/>
<text text-anchor="middle" x="186.75" y="-48.75" font-family="Helvetica,sans-Serif" font-size="10.00">window_redraw</text>
</a>
</g>
</g>
<!-- Node1&#45;&gt;Node105 -->
<g id="edge13_Node000001_Node000105" class="edge">
<title>Node1&#45;&gt;Node105</title>
<g id="a_edge13_Node000001_Node000105"><a xlink:title=" ">
<path fill="none" stroke="#63b8ff" d="M43.12,-236.65C47.83,-205.27 65.25,-117.25 117.25,-71.12 121.6,-67.27 126.66,-64.15 132.01,-61.64"/>
<polygon fill="#63b8ff" stroke="#63b8ff" points="133.13,-64.96 141.17,-58.05 130.58,-58.44 133.13,-64.96"/>
</a>
</g>
</g>
<!-- Node139 -->
<g id="Node000139" class="node">
<title>Node139</title>
<g id="a_Node000139"><a xlink:href="mutt__window_8c.html#a9b0eb963bae817aae94c7f3427b99f7d" target="_top" xlink:title="Set the Window focus.">
<polygon fill="#fff0f0" stroke="red" points="236.38,-22.25 137.12,-22.25 137.12,0 236.38,0 236.38,-22.25"/>
<text text-anchor="middle" x="186.75" y="-8.75" font-family="Helvetica,sans-Serif" font-size="10.00">window_set_focus</text>
</a>
</g>
</g>
<!-- Node1&#45;&gt;Node139 -->
<g id="edge14_Node000001_Node000139" class="edge">
<title>Node1&#45;&gt;Node139</title>
<g id="a_edge14_Node000001_Node000139"><a xlink:title=" ">
<path fill="none" stroke="#63b8ff" d="M42.09,-236.77C44.2,-201.01 55.64,-89.65 117.25,-31.12 120.12,-28.4 123.34,-26.04 126.78,-24"/>
<polygon fill="#63b8ff" stroke="#63b8ff" points="128.13,-27.24 135.59,-19.72 125.07,-20.94 128.13,-27.24"/>
</a>
</g>
</g>
<!-- Node147&#45;&gt;Node149 -->
<g id="edge6_Node000147_Node000149" class="edge">
<title>Node147&#45;&gt;Node149</title>
<g id="a_edge6_Node000147_Node000149"><a xlink:title=" ">
<path fill="none" stroke="#63b8ff" d="M256.39,-298.35C264.54,-297.31 272.83,-296.25 280.91,-295.22"/>
<polygon fill="#63b8ff" stroke="#63b8ff" points="281.16,-298.72 290.63,-293.98 280.27,-291.77 281.16,-298.72"/>
</a>
</g>
</g>
<!-- Node154&#45;&gt;Node154 -->
<g id="edge12_Node000154_Node000154" class="edge">
<title>Node154&#45;&gt;Node154</title>
<g id="a_edge12_Node000154_Node000154"><a xlink:title=" ">
<path fill="none" stroke="#63b8ff" d="M162.89,-102.49C153.97,-111.28 161.92,-120.25 186.75,-120.25 200.33,-120.25 208.86,-117.57 212.34,-113.7"/>
<polygon fill="#63b8ff" stroke="#63b8ff" points="215.83,-113.33 210.84,-103.98 208.91,-114.4 215.83,-113.33"/>
</a>
</g>
</g>
</g>
</svg>
