<?xml version="1.0" encoding="UTF-8" standalone="no"?>
<!DOCTYPE svg PUBLIC "-//W3C//DTD SVG 1.1//EN"
 "http://www.w3.org/Graphics/SVG/1.1/DTD/svg11.dtd">
<!-- Generated by graphviz version 7.1.0 (0)
 -->
<!-- Title: op_main_untag_pattern Pages: 1 -->
<svg width="286pt" height="64pt"
 viewBox="0.00 0.00 286.00 64.00" xmlns="http://www.w3.org/2000/svg" xmlns:xlink="http://www.w3.org/1999/xlink">
<g id="graph0" class="graph" transform="scale(1 1) rotate(0) translate(4 60)">
<title>op_main_untag_pattern</title>
<!-- Node1 -->
<g id="node1" class="node">
<title>Node1</title>
<g id="a_node1"><a xlink:title="Untag messages matching a pattern &#45; Implements index_function_t &#45;.">
<polygon fill="#999999" stroke="#666666" points="127,-37 0,-37 0,-18 127,-18 127,-37"/>
<text text-anchor="middle" x="63.5" y="-25" font-family="Helvetica,sans-Serif" font-size="10.00">op_main_untag_pattern</text>
</a>
</g>
</g>
<!-- Node2 -->
<g id="node2" class="node">
<title>Node2</title>
<g id="a_node2"><a xlink:href="menu_8c.html#a5a9733924cc01176ee916515a3683268" target="_top" xlink:title="Queue a request for a redraw.">
<polygon fill="white" stroke="#666666" points="278,-56 163,-56 163,-37 278,-37 278,-56"/>
<text text-anchor="middle" x="220.5" y="-44" font-family="Helvetica,sans-Serif" font-size="10.00">menu_queue_redraw</text>
</a>
</g>
</g>
<!-- Node1&#45;&gt;Node2 -->
<g id="edge1" class="edge">
<title>Node1&#45;&gt;Node2</title>
<path fill="none" stroke="#63b8ff" d="M127.1,-35.17C135.09,-36.15 143.31,-37.16 151.38,-38.15"/>
<polygon fill="#63b8ff" stroke="#63b8ff" points="150.82,-41.61 161.17,-39.35 151.67,-34.66 150.82,-41.61"/>
</g>
<!-- Node3 -->
<g id="node3" class="node">
<title>Node3</title>
<g id="a_node3"><a xlink:href="pattern_8c.html#ae911b40793f1618f8d6a640b4469f549" target="_top" xlink:title="Perform some Pattern matching.">
<polygon fill="#fff0f0" stroke="red" points="272.5,-19 168.5,-19 168.5,0 272.5,0 272.5,-19"/>
<text text-anchor="middle" x="220.5" y="-7" font-family="Helvetica,sans-Serif" font-size="10.00">mutt_pattern_func</text>
</a>
</g>
</g>
<!-- Node1&#45;&gt;Node3 -->
<g id="edge2" class="edge">
<title>Node1&#45;&gt;Node3</title>
<path fill="none" stroke="#63b8ff" d="M127.1,-20.23C136.88,-19.09 146.99,-17.92 156.78,-16.78"/>
<polygon fill="#63b8ff" stroke="#63b8ff" points="157.04,-20.28 166.57,-15.65 156.24,-13.32 157.04,-20.28"/>
</g>
</g>
</svg>
