<?xml version="1.0" encoding="UTF-8" standalone="no"?>
<!DOCTYPE svg PUBLIC "-//W3C//DTD SVG 1.1//EN"
 "http://www.w3.org/Graphics/SVG/1.1/DTD/svg11.dtd">
<!-- Generated by graphviz version 12.2.1 (20241206.2353)
 -->
<!-- Title: mutt_lua_source_file Pages: 1 -->
<svg width="395pt" height="316pt"
 viewBox="0.00 0.00 395.00 316.25" xmlns="http://www.w3.org/2000/svg" xmlns:xlink="http://www.w3.org/1999/xlink">
<g id="graph0" class="graph" transform="scale(1 1) rotate(0) translate(4 312.25)">
<title>mutt_lua_source_file</title>
<!-- Node1 -->
<g id="Node000001" class="node">
<title>Node1</title>
<g id="a_Node000001"><a xlink:title="Parse the &#39;lua&#45;source&#39; command &#45; Implements Command::parse() &#45;.">
<polygon fill="#999999" stroke="#666666" points="110.5,-160.25 0,-160.25 0,-138 110.5,-138 110.5,-160.25"/>
<text text-anchor="middle" x="55.25" y="-146.75" font-family="Helvetica,sans-Serif" font-size="10.00">mutt_lua_source_file</text>
</a>
</g>
</g>
<!-- Node2 -->
<g id="Node000002" class="node">
<title>Node2</title>
<g id="a_Node000002"><a xlink:href="buffer_8c.html#ad68834195d667b0932da5133a5402d70" target="_top" xlink:title="Copy a Buffer&#39;s contents to another Buffer.">
<polygon fill="#fff0f0" stroke="red" points="368.62,-308.25 310.62,-308.25 310.62,-286 368.62,-286 368.62,-308.25"/>
<text text-anchor="middle" x="339.62" y="-294.75" font-family="Helvetica,sans-Serif" font-size="10.00">buf_copy</text>
</a>
</g>
</g>
<!-- Node1&#45;&gt;Node2 -->
<g id="edge1_Node000001_Node000002" class="edge">
<title>Node1&#45;&gt;Node2</title>
<g id="a_edge1_Node000001_Node000002"><a xlink:title=" ">
<path fill="none" stroke="#63b8ff" d="M61.25,-160.65C72.51,-185.06 102.36,-241.91 146.5,-268.12 193.49,-296.03 257.95,-300.23 298.95,-299.55"/>
<polygon fill="#63b8ff" stroke="#63b8ff" points="298.96,-303.05 308.85,-299.27 298.76,-296.06 298.96,-303.05"/>
</a>
</g>
</g>
<!-- Node9 -->
<g id="Node000009" class="node">
<title>Node9</title>
<g id="a_Node000009"><a xlink:href="muttlib_8c.html#adde3990a0490dfba609fc94dbdbfd6b3" target="_top" xlink:title="Create the canonical path.">
<polygon fill="#fff0f0" stroke="red" points="249.12,-102.25 153.62,-102.25 153.62,-80 249.12,-80 249.12,-102.25"/>
<text text-anchor="middle" x="201.38" y="-88.75" font-family="Helvetica,sans-Serif" font-size="10.00">buf_expand_path</text>
</a>
</g>
</g>
<!-- Node1&#45;&gt;Node9 -->
<g id="edge2_Node000001_Node000009" class="edge">
<title>Node1&#45;&gt;Node9</title>
<g id="a_edge2_Node000001_Node000009"><a xlink:title=" ">
<path fill="none" stroke="#63b8ff" d="M85.07,-137.53C106.87,-128.75 137.04,-116.61 161.06,-106.95"/>
<polygon fill="#63b8ff" stroke="#63b8ff" points="162.23,-110.25 170.2,-103.27 159.62,-103.75 162.23,-110.25"/>
</a>
</g>
</g>
<!-- Node14 -->
<g id="Node000014" class="node">
<title>Node14</title>
<g id="a_Node000014"><a xlink:href="pool_8c.html#a41cba27c25d33cb6822789a2856093f2" target="_top" xlink:title="Get a Buffer from the pool.">
<polygon fill="#fff0f0" stroke="red" points="378,-263.25 301.25,-263.25 301.25,-241 378,-241 378,-263.25"/>
<text text-anchor="middle" x="339.62" y="-249.75" font-family="Helvetica,sans-Serif" font-size="10.00">buf_pool_get</text>
</a>
</g>
</g>
<!-- Node1&#45;&gt;Node14 -->
<g id="edge3_Node000001_Node000014" class="edge">
<title>Node1&#45;&gt;Node14</title>
<g id="a_edge3_Node000001_Node000014"><a xlink:title=" ">
<path fill="none" stroke="#63b8ff" d="M62.85,-160.72C75.74,-182.04 106.51,-226.96 146.5,-245.12 191.72,-265.67 249.29,-264.69 289.57,-260.27"/>
<polygon fill="#63b8ff" stroke="#63b8ff" points="289.96,-263.75 299.46,-259.07 289.11,-256.8 289.96,-263.75"/>
</a>
</g>
</g>
<!-- Node19 -->
<g id="Node000019" class="node">
<title>Node19</title>
<g id="a_Node000019"><a xlink:href="pool_8c.html#a4cc6068279461cb8628219586dfa35a1" target="_top" xlink:title="Return a Buffer to the pool.">
<polygon fill="#fff0f0" stroke="red" points="387,-213.25 292.25,-213.25 292.25,-191 387,-191 387,-213.25"/>
<text text-anchor="middle" x="339.62" y="-199.75" font-family="Helvetica,sans-Serif" font-size="10.00">buf_pool_release</text>
</a>
</g>
</g>
<!-- Node1&#45;&gt;Node19 -->
<g id="edge4_Node000001_Node000019" class="edge">
<title>Node1&#45;&gt;Node19</title>
<g id="a_edge4_Node000001_Node000019"><a xlink:title=" ">
<path fill="none" stroke="#63b8ff" d="M110.69,-159.34C159.46,-168.5 230.77,-181.88 280.61,-191.24"/>
<polygon fill="#63b8ff" stroke="#63b8ff" points="279.88,-194.66 290.35,-193.06 281.17,-187.78 279.88,-194.66"/>
</a>
</g>
</g>
<!-- Node22 -->
<g id="Node000022" class="node">
<title>Node22</title>
<g id="a_Node000022"><a xlink:href="buffer_8c.html#a02123807d31181ac701b566226e93b33" target="_top" xlink:title="Format a string overwriting a Buffer.">
<polygon fill="#fff0f0" stroke="red" points="232.62,-62.25 170.12,-62.25 170.12,-40 232.62,-40 232.62,-62.25"/>
<text text-anchor="middle" x="201.38" y="-48.75" font-family="Helvetica,sans-Serif" font-size="10.00">buf_printf</text>
</a>
</g>
</g>
<!-- Node1&#45;&gt;Node22 -->
<g id="edge5_Node000001_Node000022" class="edge">
<title>Node1&#45;&gt;Node22</title>
<g id="a_edge5_Node000001_Node000022"><a xlink:title=" ">
<path fill="none" stroke="#63b8ff" d="M66.91,-137.6C82.83,-120.95 114.41,-90.1 146.5,-71.12 150.56,-68.73 154.95,-66.53 159.42,-64.55"/>
<polygon fill="#63b8ff" stroke="#63b8ff" points="160.52,-67.88 168.46,-60.87 157.88,-61.39 160.52,-67.88"/>
</a>
</g>
</g>
<!-- Node25 -->
<g id="Node000025" class="node">
<title>Node25</title>
<g id="a_Node000025"><a xlink:href="buffer_8h.html#a728ebc5a947b77c8d56db44ce553a7ab" target="_top" xlink:title="Convert a buffer to a const char * &quot;string&quot;.">
<polygon fill="white" stroke="#666666" points="371.25,-150.25 308,-150.25 308,-128 371.25,-128 371.25,-150.25"/>
<text text-anchor="middle" x="339.62" y="-136.75" font-family="Helvetica,sans-Serif" font-size="10.00">buf_string</text>
</a>
</g>
</g>
<!-- Node1&#45;&gt;Node25 -->
<g id="edge6_Node000001_Node000025" class="edge">
<title>Node1&#45;&gt;Node25</title>
<g id="a_edge6_Node000001_Node000025"><a xlink:title=" ">
<path fill="none" stroke="#63b8ff" d="M110.69,-147.2C164.85,-145.28 246.8,-142.38 296.27,-140.62"/>
<polygon fill="#63b8ff" stroke="#63b8ff" points="296.13,-144.13 306,-140.28 295.88,-137.14 296.13,-144.13"/>
</a>
</g>
</g>
<!-- Node1279 -->
<g id="Node001279" class="node">
<title>Node1279</title>
<g id="a_Node001279"><a xlink:href="mutt__lua_8c.html#a5383cb18959ca91373948507ba24e7f4" target="_top" xlink:title="Initialise a Lua State.">
<polygon fill="#fff0f0" stroke="red" points="225.5,-22.25 177.25,-22.25 177.25,0 225.5,0 225.5,-22.25"/>
<text text-anchor="middle" x="201.38" y="-8.75" font-family="Helvetica,sans-Serif" font-size="10.00">lua_init</text>
</a>
</g>
</g>
<!-- Node1&#45;&gt;Node1279 -->
<g id="edge8_Node000001_Node001279" class="edge">
<title>Node1&#45;&gt;Node1279</title>
<g id="a_edge8_Node000001_Node001279"><a xlink:title=" ">
<path fill="none" stroke="#63b8ff" d="M62.1,-137.67C74.54,-114.38 105.85,-61.18 146.5,-31.12 152.4,-26.77 159.35,-23.26 166.26,-20.48"/>
<polygon fill="#63b8ff" stroke="#63b8ff" points="167.26,-23.84 175.52,-17.19 164.92,-17.24 167.26,-23.84"/>
</a>
</g>
</g>
<!-- Node1285 -->
<g id="Node001285" class="node">
<title>Node1285</title>
<g id="a_Node001285"><a xlink:href="extract_8c.html#a2bdbddd6f12833e1b893bbffda6d64a3" target="_top" xlink:title="Extract one token from a string.">
<polygon fill="#fff0f0" stroke="red" points="256.25,-218.25 146.5,-218.25 146.5,-196 256.25,-196 256.25,-218.25"/>
<text text-anchor="middle" x="201.38" y="-204.75" font-family="Helvetica,sans-Serif" font-size="10.00">parse_extract_token</text>
</a>
</g>
</g>
<!-- Node1&#45;&gt;Node1285 -->
<g id="edge9_Node000001_Node001285" class="edge">
<title>Node1&#45;&gt;Node1285</title>
<g id="a_edge9_Node000001_Node001285"><a xlink:title=" ">
<path fill="none" stroke="#63b8ff" d="M85.07,-160.72C106.87,-169.5 137.04,-181.64 161.06,-191.3"/>
<polygon fill="#63b8ff" stroke="#63b8ff" points="159.62,-194.5 170.2,-194.98 162.23,-188 159.62,-194.5"/>
</a>
</g>
</g>
<!-- Node25&#45;&gt;Node25 -->
<g id="edge7_Node000025_Node000025" class="edge">
<title>Node25&#45;&gt;Node25</title>
<g id="a_edge7_Node000025_Node000025"><a xlink:title=" ">
<path fill="none" stroke="#63b8ff" d="M317.05,-150.49C308.61,-159.28 316.13,-168.25 339.62,-168.25 352.47,-168.25 360.54,-165.57 363.84,-161.7"/>
<polygon fill="#63b8ff" stroke="#63b8ff" points="367.33,-161.37 362.42,-151.98 360.4,-162.38 367.33,-161.37"/>
</a>
</g>
</g>
<!-- Node1285&#45;&gt;Node2 -->
<g id="edge10_Node001285_Node000002" class="edge">
<title>Node1285&#45;&gt;Node2</title>
<g id="a_edge10_Node001285_Node000002"><a xlink:title=" ">
<path fill="none" stroke="#63b8ff" d="M216.91,-218.55C234.34,-232.04 264.68,-254.83 292.25,-272.12 296.55,-274.82 301.17,-277.53 305.76,-280.1"/>
<polygon fill="#63b8ff" stroke="#63b8ff" points="303.86,-283.06 314.31,-284.78 307.21,-276.91 303.86,-283.06"/>
</a>
</g>
</g>
<!-- Node1285&#45;&gt;Node14 -->
<g id="edge11_Node001285_Node000014" class="edge">
<title>Node1285&#45;&gt;Node14</title>
<g id="a_edge11_Node001285_Node000014"><a xlink:title=" ">
<path fill="none" stroke="#63b8ff" d="M237.46,-218.71C254.31,-224.28 274.71,-231.02 292.77,-236.98"/>
<polygon fill="#63b8ff" stroke="#63b8ff" points="291.63,-240.29 302.22,-240.1 293.82,-233.64 291.63,-240.29"/>
</a>
</g>
</g>
<!-- Node1285&#45;&gt;Node19 -->
<g id="edge12_Node001285_Node000019" class="edge">
<title>Node1285&#45;&gt;Node19</title>
<g id="a_edge12_Node001285_Node000019"><a xlink:title=" ">
<path fill="none" stroke="#63b8ff" d="M256.62,-205.13C264.49,-204.85 272.63,-204.55 280.58,-204.26"/>
<polygon fill="#63b8ff" stroke="#63b8ff" points="280.66,-207.75 290.53,-203.89 280.41,-200.76 280.66,-207.75"/>
</a>
</g>
</g>
<!-- Node1285&#45;&gt;Node25 -->
<g id="edge13_Node001285_Node000025" class="edge">
<title>Node1285&#45;&gt;Node25</title>
<g id="a_edge13_Node001285_Node000025"><a xlink:title=" ">
<path fill="none" stroke="#63b8ff" d="M225.49,-195.59C247.41,-184.65 280.59,-168.09 305.36,-155.73"/>
<polygon fill="#63b8ff" stroke="#63b8ff" points="306.66,-158.99 314.04,-151.39 303.53,-152.73 306.66,-158.99"/>
</a>
</g>
</g>
<!-- Node1285&#45;&gt;Node1285 -->
<g id="edge14_Node001285_Node001285" class="edge">
<title>Node1285&#45;&gt;Node1285</title>
<g id="a_edge14_Node001285_Node001285"><a xlink:title=" ">
<path fill="none" stroke="#63b8ff" d="M178.8,-218.49C170.36,-227.28 177.88,-236.25 201.38,-236.25 214.22,-236.25 222.29,-233.57 225.59,-229.7"/>
<polygon fill="#63b8ff" stroke="#63b8ff" points="229.08,-229.37 224.17,-219.98 222.15,-230.38 229.08,-229.37"/>
</a>
</g>
</g>
</g>
</svg>
