<?xml version="1.0" encoding="UTF-8" standalone="no"?>
<!DOCTYPE svg PUBLIC "-//W3C//DTD SVG 1.1//EN"
 "http://www.w3.org/Graphics/SVG/1.1/DTD/svg11.dtd">
<!-- Generated by graphviz version 7.1.0 (0)
 -->
<!-- Title: pgp_key_flags Pages: 1 -->
<svg width="188pt" height="64pt"
 viewBox="0.00 0.00 188.00 64.00" xmlns="http://www.w3.org/2000/svg" xmlns:xlink="http://www.w3.org/1999/xlink">
<g id="graph0" class="graph" transform="scale(1 1) rotate(0) translate(4 60)">
<title>pgp_key_flags</title>
<!-- Node1 -->
<g id="node1" class="node">
<title>Node1</title>
<g id="a_node1"><a xlink:title="PGP: Key Flags &#45; Implements get_string_t &#45;.">
<polygon fill="#999999" stroke="#666666" points="81,-37 0,-37 0,-18 81,-18 81,-37"/>
<text text-anchor="middle" x="40.5" y="-25" font-family="Helvetica,sans-Serif" font-size="10.00">pgp_key_flags</text>
</a>
</g>
</g>
<!-- Node2 -->
<g id="node2" class="node">
<title>Node2</title>
<g id="a_node2"><a xlink:href="buffer_8c.html#a02123807d31181ac701b566226e93b33" target="_top" xlink:title="Format a string overwriting a Buffer.">
<polygon fill="#fff0f0" stroke="red" points="180,-56 117,-56 117,-37 180,-37 180,-56"/>
<text text-anchor="middle" x="148.5" y="-44" font-family="Helvetica,sans-Serif" font-size="10.00">buf_printf</text>
</a>
</g>
</g>
<!-- Node1&#45;&gt;Node2 -->
<g id="edge1" class="edge">
<title>Node1&#45;&gt;Node2</title>
<path fill="none" stroke="#63b8ff" d="M81.27,-34.63C89.26,-36.06 97.67,-37.57 105.72,-39.01"/>
<polygon fill="#63b8ff" stroke="#63b8ff" points="104.83,-42.41 115.29,-40.73 106.07,-35.52 104.83,-42.41"/>
</g>
<!-- Node8 -->
<g id="node3" class="node">
<title>Node8</title>
<g id="a_node3"><a xlink:href="expando__pgp_8c.html#a9cb50994cfe04867f6684f506930dff3" target="_top" xlink:title="Turn PGP key flags into a string.">
<polygon fill="white" stroke="#666666" points="179,-19 118,-19 118,0 179,0 179,-19"/>
<text text-anchor="middle" x="148.5" y="-7" font-family="Helvetica,sans-Serif" font-size="10.00">pgp_flags</text>
</a>
</g>
</g>
<!-- Node1&#45;&gt;Node8 -->
<g id="edge2" class="edge">
<title>Node1&#45;&gt;Node8</title>
<path fill="none" stroke="#63b8ff" d="M81.27,-20.75C89.5,-19.35 98.18,-17.88 106.45,-16.47"/>
<polygon fill="#63b8ff" stroke="#63b8ff" points="107.01,-19.93 116.28,-14.8 105.84,-13.02 107.01,-19.93"/>
</g>
</g>
</svg>
