<?xml version="1.0" encoding="UTF-8" standalone="no"?>
<!DOCTYPE svg PUBLIC "-//W3C//DTD SVG 1.1//EN"
 "http://www.w3.org/Graphics/SVG/1.1/DTD/svg11.dtd">
<!-- Generated by graphviz version 7.1.0 (0)
 -->
<!-- Title: op_display_message Pages: 1 -->
<svg width="442pt" height="639pt"
 viewBox="0.00 0.00 442.00 639.00" xmlns="http://www.w3.org/2000/svg" xmlns:xlink="http://www.w3.org/1999/xlink">
<g id="graph0" class="graph" transform="scale(1 1) rotate(0) translate(4 635)">
<title>op_display_message</title>
<!-- Node1 -->
<g id="node1" class="node">
<title>Node1</title>
<g id="a_node1"><a xlink:title="Display a message &#45; Implements index_function_t &#45;.">
<polygon fill="#999999" stroke="#666666" points="110,-318 0,-318 0,-299 110,-299 110,-318"/>
<text text-anchor="middle" x="55" y="-306" font-family="Helvetica,sans-Serif" font-size="10.00">op_display_message</text>
</a>
</g>
</g>
<!-- Node2 -->
<g id="node2" class="node">
<title>Node2</title>
<g id="a_node2"><a xlink:href="bool_8c.html#a5ef0a3002d75e9d9a91cda84336c13f5" target="_top" xlink:title="Toggle the value of a bool.">
<polygon fill="#fff0f0" stroke="red" points="262,-631 173,-631 173,-612 262,-612 262,-631"/>
<text text-anchor="middle" x="217.5" y="-619" font-family="Helvetica,sans-Serif" font-size="10.00">bool_str_toggle</text>
</a>
</g>
</g>
<!-- Node1&#45;&gt;Node2 -->
<g id="edge1" class="edge">
<title>Node1&#45;&gt;Node2</title>
<path fill="none" stroke="#63b8ff" d="M55.79,-318.38C55.48,-359.85 60.03,-521.41 146,-603.5 150.57,-607.86 156.04,-611.21 161.89,-613.77"/>
<polygon fill="#63b8ff" stroke="#63b8ff" points="160.69,-617.05 171.29,-617.07 163.01,-610.45 160.69,-617.05"/>
</g>
<!-- Node28 -->
<g id="node3" class="node">
<title>Node28</title>
<g id="a_node3"><a xlink:href="config_2helpers_8c.html#ae50f679dd6c5bd1ba820884c8602f038" target="_top" xlink:title="Get a boolean config item by name.">
<polygon fill="#fff0f0" stroke="red" points="422.5,-575 336.5,-575 336.5,-556 422.5,-556 422.5,-575"/>
<text text-anchor="middle" x="379.5" y="-563" font-family="Helvetica,sans-Serif" font-size="10.00">cs_subset_bool</text>
</a>
</g>
</g>
<!-- Node1&#45;&gt;Node28 -->
<g id="edge2" class="edge">
<title>Node1&#45;&gt;Node28</title>
<path fill="none" stroke="#63b8ff" d="M56.77,-318.34C60.05,-353.24 76.16,-472.01 146,-527.5 173,-548.95 265.31,-558.63 325.18,-562.74"/>
<polygon fill="#63b8ff" stroke="#63b8ff" points="324.61,-566.21 334.81,-563.37 325.06,-559.22 324.61,-566.21"/>
</g>
<!-- Node30 -->
<g id="node4" class="node">
<title>Node30</title>
<g id="a_node4"><a xlink:href="mview_8c.html#ab741b6f8f1f2a5f4f1e33f488881699c" target="_top" xlink:title="Get an array of the tagged Emails.">
<polygon fill="#fff0f0" stroke="red" points="261,-518 174,-518 174,-499 261,-499 261,-518"/>
<text text-anchor="middle" x="217.5" y="-506" font-family="Helvetica,sans-Serif" font-size="10.00">ea_add_tagged</text>
</a>
</g>
</g>
<!-- Node1&#45;&gt;Node30 -->
<g id="edge3" class="edge">
<title>Node1&#45;&gt;Node30</title>
<path fill="none" stroke="#63b8ff" d="M58.19,-318.09C65.36,-347.44 90.97,-436.9 146,-484.5 151.07,-488.89 156.99,-492.48 163.19,-495.43"/>
<polygon fill="#63b8ff" stroke="#63b8ff" points="161.83,-498.65 172.41,-499.22 164.49,-492.18 161.83,-498.65"/>
</g>
<!-- Node32 -->
<g id="node5" class="node">
<title>Node32</title>
<g id="a_node5"><a xlink:href="pager_2message_8c.html#ad081e1099ae8f2f467644023b0f1470c" target="_top" xlink:title="Display a message in an external program.">
<polygon fill="#fff0f0" stroke="red" points="261,-594 174,-594 174,-575 261,-575 261,-594"/>
<text text-anchor="middle" x="217.5" y="-582" font-family="Helvetica,sans-Serif" font-size="10.00">external_pager</text>
</a>
</g>
</g>
<!-- Node1&#45;&gt;Node32 -->
<g id="edge4" class="edge">
<title>Node1&#45;&gt;Node32</title>
<path fill="none" stroke="#63b8ff" d="M56.55,-318.3C59.19,-355.44 73.53,-489.1 146,-560.5 150.96,-565.38 156.94,-569.27 163.31,-572.37"/>
<polygon fill="#63b8ff" stroke="#63b8ff" points="161.56,-575.44 172.14,-576.04 164.24,-568.97 161.56,-575.44"/>
</g>
<!-- Node1302 -->
<g id="node6" class="node">
<title>Node1302</title>
<g id="a_node6"><a xlink:href="index_2shared__data_8c.html#a0119b6b16a583ae731cf2f6a2b5c7e7c" target="_top" xlink:title="Set the current Email for the Index and friends.">
<polygon fill="#fff0f0" stroke="red" points="278,-442.5 157,-442.5 157,-412.5 278,-412.5 278,-442.5"/>
<text text-anchor="start" x="165" y="-430.5" font-family="Helvetica,sans-Serif" font-size="10.00">index_shared_data_set</text>
<text text-anchor="middle" x="217.5" y="-419.5" font-family="Helvetica,sans-Serif" font-size="10.00">_email</text>
</a>
</g>
</g>
<!-- Node1&#45;&gt;Node1302 -->
<g id="edge6" class="edge">
<title>Node1&#45;&gt;Node1302</title>
<path fill="none" stroke="#63b8ff" d="M62.75,-318.33C76.34,-337.42 108.9,-379.71 146,-403.5 147.88,-404.7 149.82,-405.85 151.82,-406.95"/>
<polygon fill="#63b8ff" stroke="#63b8ff" points="150.24,-410.08 160.76,-411.36 153.34,-403.8 150.24,-410.08"/>
</g>
<!-- Node16 -->
<g id="node7" class="node">
<title>Node16</title>
<g id="a_node7"><a xlink:href="mutt_2notify_8c.html#ade2f42f8e0d8a843e87816300799a8e1" target="_top" xlink:title="Send out a notification message.">
<polygon fill="#fff0f0" stroke="red" points="415,-437 344,-437 344,-418 415,-418 415,-437"/>
<text text-anchor="middle" x="379.5" y="-425" font-family="Helvetica,sans-Serif" font-size="10.00">notify_send</text>
</a>
</g>
</g>
<!-- Node1&#45;&gt;Node16 -->
<g id="edge15" class="edge">
<title>Node1&#45;&gt;Node16</title>
<path fill="none" stroke="#63b8ff" d="M58.56,-318.19C66.31,-345.31 92.33,-421.86 146,-451.5 210.13,-486.91 299.43,-460.45 346.51,-441.76"/>
<polygon fill="#63b8ff" stroke="#63b8ff" points="347.67,-445.07 355.59,-438.03 345.01,-438.6 347.67,-445.07"/>
</g>
<!-- Node1150 -->
<g id="node8" class="node">
<title>Node1150</title>
<g id="a_node8"><a xlink:href="menu_8c.html#a67ee9260e41986eb4487124b004cff18" target="_top" xlink:title="Get the current selection in the Menu.">
<polygon fill="white" stroke="#666666" points="426,-337 333,-337 333,-318 426,-318 426,-337"/>
<text text-anchor="middle" x="379.5" y="-325" font-family="Helvetica,sans-Serif" font-size="10.00">menu_get_index</text>
</a>
</g>
</g>
<!-- Node1&#45;&gt;Node1150 -->
<g id="edge8" class="edge">
<title>Node1&#45;&gt;Node1150</title>
<path fill="none" stroke="#63b8ff" d="M110.11,-318.11C121.91,-319.87 134.34,-321.47 146,-322.5 205.51,-327.74 273.89,-328.6 321.02,-328.38"/>
<polygon fill="#63b8ff" stroke="#63b8ff" points="321.03,-331.88 331.01,-328.32 320.99,-324.88 321.03,-331.88"/>
</g>
<!-- Node433 -->
<g id="node9" class="node">
<title>Node433</title>
<g id="a_node9"><a xlink:href="menu_8c.html#a5a9733924cc01176ee916515a3683268" target="_top" xlink:title="Queue a request for a redraw.">
<polygon fill="white" stroke="#666666" points="275,-204 160,-204 160,-185 275,-185 275,-204"/>
<text text-anchor="middle" x="217.5" y="-192" font-family="Helvetica,sans-Serif" font-size="10.00">menu_queue_redraw</text>
</a>
</g>
</g>
<!-- Node1&#45;&gt;Node433 -->
<g id="edge9" class="edge">
<title>Node1&#45;&gt;Node433</title>
<path fill="none" stroke="#63b8ff" d="M63.31,-298.64C77.37,-280.33 109.98,-240.92 146,-218.5 152.34,-214.55 159.41,-211.16 166.56,-208.28"/>
<polygon fill="#63b8ff" stroke="#63b8ff" points="167.43,-211.7 175.59,-204.95 165,-205.13 167.43,-211.7"/>
</g>
<!-- Node465 -->
<g id="node10" class="node">
<title>Node465</title>
<g id="a_node10"><a xlink:href="menu_8c.html#ae279bb826b97fcc88c0714b2a6383851" target="_top" xlink:title="Set the current selection in the Menu.">
<polygon fill="#fff0f0" stroke="red" points="425.5,-290 333.5,-290 333.5,-271 425.5,-271 425.5,-290"/>
<text text-anchor="middle" x="379.5" y="-278" font-family="Helvetica,sans-Serif" font-size="10.00">menu_set_index</text>
</a>
</g>
</g>
<!-- Node1&#45;&gt;Node465 -->
<g id="edge10" class="edge">
<title>Node1&#45;&gt;Node465</title>
<path fill="none" stroke="#63b8ff" d="M110.17,-304.37C157.41,-300.71 227.77,-295.07 289,-289.5 299.73,-288.52 311.19,-287.42 322.19,-286.33"/>
<polygon fill="#63b8ff" stroke="#63b8ff" points="322.34,-289.83 331.94,-285.35 321.64,-282.86 322.34,-289.83"/>
</g>
<!-- Node1304 -->
<g id="node11" class="node">
<title>Node1304</title>
<g id="a_node11"><a xlink:href="external_8c.html#a23c278f3dad0af8af9d332c0f25cc3a6" target="_top" xlink:title="Check if a message has inline PGP content.">
<polygon fill="#fff0f0" stroke="red" points="289,-167 146,-167 146,-148 289,-148 289,-167"/>
<text text-anchor="middle" x="217.5" y="-155" font-family="Helvetica,sans-Serif" font-size="10.00">mutt_check_traditional_pgp</text>
</a>
</g>
</g>
<!-- Node1&#45;&gt;Node1304 -->
<g id="edge11" class="edge">
<title>Node1&#45;&gt;Node1304</title>
<path fill="none" stroke="#63b8ff" d="M59.73,-298.68C69.66,-273.89 99.25,-208.38 146,-175.5 147.6,-174.38 149.26,-173.32 150.97,-172.33"/>
<polygon fill="#63b8ff" stroke="#63b8ff" points="152.41,-175.53 159.88,-168.02 149.36,-169.23 152.41,-175.53"/>
</g>
<!-- Node1307 -->
<g id="node12" class="node">
<title>Node1307</title>
<g id="a_node12"><a xlink:href="pager_2message_8c.html#a73f785b2d25ca1cbbc135258914d9fdf" target="_top" xlink:title="Display a message in the pager.">
<polygon fill="#fff0f0" stroke="red" points="278,-130 157,-130 157,-111 278,-111 278,-130"/>
<text text-anchor="middle" x="217.5" y="-118" font-family="Helvetica,sans-Serif" font-size="10.00">mutt_display_message</text>
</a>
</g>
</g>
<!-- Node1&#45;&gt;Node1307 -->
<g id="edge12" class="edge">
<title>Node1&#45;&gt;Node1307</title>
<path fill="none" stroke="#63b8ff" d="M58.23,-298.63C65.4,-269.31 90.64,-182.09 146,-138.5 147.14,-137.6 148.33,-136.74 149.55,-135.93"/>
<polygon fill="#63b8ff" stroke="#63b8ff" points="151.05,-139.1 158.13,-131.21 147.68,-132.96 151.05,-139.1"/>
</g>
<!-- Node1364 -->
<g id="node13" class="node">
<title>Node1364</title>
<g id="a_node13"><a xlink:href="mview_8c.html#a1859332ec86bc1394a46665b33f847b9" target="_top" xlink:title="Get a virtual Email.">
<polygon fill="white" stroke="#666666" points="434,-253 325,-253 325,-234 434,-234 434,-253"/>
<text text-anchor="middle" x="379.5" y="-241" font-family="Helvetica,sans-Serif" font-size="10.00">mutt_get_virt_email</text>
</a>
</g>
</g>
<!-- Node1&#45;&gt;Node1364 -->
<g id="edge13" class="edge">
<title>Node1&#45;&gt;Node1364</title>
<path fill="none" stroke="#63b8ff" d="M67.21,-298.55C83.32,-284.98 114.54,-261.21 146,-251.5 200.55,-234.66 265.74,-233.98 313.19,-236.74"/>
<polygon fill="#63b8ff" stroke="#63b8ff" points="312.83,-240.23 323.04,-237.39 313.29,-233.24 312.83,-240.23"/>
</g>
<!-- Node1365 -->
<g id="node14" class="node">
<title>Node1365</title>
<g id="a_node14"><a xlink:href="mutt__thread_8c.html#ad208699eb4bc42837530572fbe4caf8d" target="_top" xlink:title="Set the virtual index number of all the messages in a mailbox.">
<polygon fill="#fff0f0" stroke="red" points="262,-93 173,-93 173,-74 262,-74 262,-93"/>
<text text-anchor="middle" x="217.5" y="-81" font-family="Helvetica,sans-Serif" font-size="10.00">mutt_set_vnum</text>
</a>
</g>
</g>
<!-- Node1&#45;&gt;Node1365 -->
<g id="edge14" class="edge">
<title>Node1&#45;&gt;Node1365</title>
<path fill="none" stroke="#63b8ff" d="M57.18,-298.94C61.79,-266.01 81.55,-156.37 146,-101.5 150.69,-97.51 156.15,-94.38 161.92,-91.94"/>
<polygon fill="#63b8ff" stroke="#63b8ff" points="162.81,-95.34 171.1,-88.74 160.5,-88.73 162.81,-95.34"/>
</g>
<!-- Node1287 -->
<g id="node15" class="node">
<title>Node1287</title>
<g id="a_node15"><a xlink:href="pager_2config_8c.html#a3f9c594c9fdc97ee3fd49052f0914892" target="_top" xlink:title="Get the value of $pager.">
<polygon fill="#fff0f0" stroke="red" points="266,-56 169,-56 169,-37 266,-37 266,-56"/>
<text text-anchor="middle" x="217.5" y="-44" font-family="Helvetica,sans-Serif" font-size="10.00">pager_get_pager</text>
</a>
</g>
</g>
<!-- Node1&#45;&gt;Node1287 -->
<g id="edge16" class="edge">
<title>Node1&#45;&gt;Node1287</title>
<path fill="none" stroke="#63b8ff" d="M56.51,-298.58C58.97,-261.61 72.73,-130.56 146,-64.5 149.59,-61.26 153.68,-58.59 158.04,-56.39"/>
<polygon fill="#63b8ff" stroke="#63b8ff" points="159.28,-59.67 167.2,-52.63 156.62,-53.19 159.28,-59.67"/>
</g>
<!-- Node1367 -->
<g id="node16" class="node">
<title>Node1367</title>
<g id="a_node16"><a xlink:href="dlg__index_8c.html#a5c88a7cc2d9e9ed37eaa8cf81c5db8e6" target="_top" xlink:title="Update the index.">
<polygon fill="#fff0f0" stroke="red" points="257,-280 178,-280 178,-261 257,-261 257,-280"/>
<text text-anchor="middle" x="217.5" y="-268" font-family="Helvetica,sans-Serif" font-size="10.00">update_index</text>
</a>
</g>
</g>
<!-- Node1&#45;&gt;Node1367 -->
<g id="edge17" class="edge">
<title>Node1&#45;&gt;Node1367</title>
<path fill="none" stroke="#63b8ff" d="M98.17,-298.52C119.13,-293.55 144.6,-287.52 166.53,-282.33"/>
<polygon fill="#63b8ff" stroke="#63b8ff" points="167.24,-285.76 176.17,-280.05 165.63,-278.95 167.24,-285.76"/>
</g>
<!-- Node1416 -->
<g id="node17" class="node">
<title>Node1416</title>
<g id="a_node17"><a xlink:href="mutt__window_8c.html#a24aadc0e7b2775fcdec602583e285fb4" target="_top" xlink:title="Does the given Window have the focus?">
<polygon fill="#fff0f0" stroke="red" points="269.5,-19 165.5,-19 165.5,0 269.5,0 269.5,-19"/>
<text text-anchor="middle" x="217.5" y="-7" font-family="Helvetica,sans-Serif" font-size="10.00">window_is_focused</text>
</a>
</g>
</g>
<!-- Node1&#45;&gt;Node1416 -->
<g id="edge21" class="edge">
<title>Node1&#45;&gt;Node1416</title>
<path fill="none" stroke="#63b8ff" d="M55.97,-298.53C56.39,-258.14 63.58,-105.11 146,-27.5 148.71,-24.95 151.74,-22.74 154.96,-20.84"/>
<polygon fill="#63b8ff" stroke="#63b8ff" points="156.25,-24.1 163.78,-16.65 153.25,-17.78 156.25,-24.1"/>
</g>
<!-- Node386 -->
<g id="node18" class="node">
<title>Node386</title>
<g id="a_node18"><a xlink:href="mutt__window_8c.html#a9b0eb963bae817aae94c7f3427b99f7d" target="_top" xlink:title="Set the Window focus.">
<polygon fill="#fff0f0" stroke="red" points="267.5,-394 167.5,-394 167.5,-375 267.5,-375 267.5,-394"/>
<text text-anchor="middle" x="217.5" y="-382" font-family="Helvetica,sans-Serif" font-size="10.00">window_set_focus</text>
</a>
</g>
</g>
<!-- Node1&#45;&gt;Node386 -->
<g id="edge22" class="edge">
<title>Node1&#45;&gt;Node386</title>
<path fill="none" stroke="#63b8ff" d="M71.12,-318.47C88.62,-329.71 118.56,-348.05 146,-360.5 154.28,-364.26 163.33,-367.76 172.1,-370.87"/>
<polygon fill="#63b8ff" stroke="#63b8ff" points="170.96,-374.17 181.55,-374.09 173.22,-367.55 170.96,-374.17"/>
</g>
<!-- Node32&#45;&gt;Node28 -->
<g id="edge5" class="edge">
<title>Node32&#45;&gt;Node28</title>
<path fill="none" stroke="#63b8ff" d="M261.38,-579.41C280.9,-577.09 304.22,-574.32 324.89,-571.87"/>
<polygon fill="#63b8ff" stroke="#63b8ff" points="325.04,-575.37 334.56,-570.72 324.21,-568.42 325.04,-575.37"/>
</g>
<!-- Node1302&#45;&gt;Node16 -->
<g id="edge7" class="edge">
<title>Node1302&#45;&gt;Node16</title>
<path fill="none" stroke="#63b8ff" d="M278.08,-427.5C295.98,-427.5 315.35,-427.5 332.25,-427.5"/>
<polygon fill="#63b8ff" stroke="#63b8ff" points="332,-431 342,-427.5 332,-424 332,-431"/>
</g>
<!-- Node1367&#45;&gt;Node1150 -->
<g id="edge18" class="edge">
<title>Node1367&#45;&gt;Node1150</title>
<path fill="none" stroke="#63b8ff" d="M246.37,-280.43C272.33,-289.68 311.26,-303.55 340.15,-313.84"/>
<polygon fill="#63b8ff" stroke="#63b8ff" points="338.66,-317.02 349.26,-317.08 341.01,-310.43 338.66,-317.02"/>
</g>
<!-- Node1367&#45;&gt;Node465 -->
<g id="edge19" class="edge">
<title>Node1367&#45;&gt;Node465</title>
<path fill="none" stroke="#63b8ff" d="M257.23,-272.92C276.6,-274.13 300.4,-275.62 321.78,-276.95"/>
<polygon fill="#63b8ff" stroke="#63b8ff" points="321.32,-280.43 331.52,-277.56 321.76,-273.45 321.32,-280.43"/>
</g>
<!-- Node1367&#45;&gt;Node1364 -->
<g id="edge20" class="edge">
<title>Node1367&#45;&gt;Node1364</title>
<path fill="none" stroke="#63b8ff" d="M257.23,-263.96C274.16,-261.11 294.49,-257.68 313.62,-254.45"/>
<polygon fill="#63b8ff" stroke="#63b8ff" points="313.94,-257.94 323.22,-252.83 312.78,-251.04 313.94,-257.94"/>
</g>
<!-- Node386&#45;&gt;Node16 -->
<g id="edge23" class="edge">
<title>Node386&#45;&gt;Node16</title>
<path fill="none" stroke="#63b8ff" d="M255.61,-394.47C278.59,-400.65 308.26,-408.62 332.7,-415.19"/>
<polygon fill="#63b8ff" stroke="#63b8ff" points="331.48,-418.49 342.05,-417.7 333.3,-411.73 331.48,-418.49"/>
</g>
</g>
</svg>
