<?xml version="1.0" encoding="UTF-8" standalone="no"?>
<!DOCTYPE svg PUBLIC "-//W3C//DTD SVG 1.1//EN"
 "http://www.w3.org/Graphics/SVG/1.1/DTD/svg11.dtd">
<!-- Generated by graphviz version 7.1.0 (0)
 -->
<!-- Title: dump_bind_macro Pages: 1 -->
<svg width="389pt" height="370pt"
 viewBox="0.00 0.00 389.00 369.90" xmlns="http://www.w3.org/2000/svg" xmlns:xlink="http://www.w3.org/1999/xlink">
<g id="graph0" class="graph" transform="scale(1 1) rotate(0) translate(4 365.9)">
<title>dump_bind_macro</title>
<!-- Node1 -->
<g id="node1" class="node">
<title>Node1</title>
<g id="a_node1"><a xlink:title="Parse &#39;bind&#39; and &#39;macro&#39; commands &#45; Implements Command::parse() &#45;.">
<polygon fill="#999999" stroke="#666666" points="101,-186 0,-186 0,-167 101,-167 101,-186"/>
<text text-anchor="middle" x="50.5" y="-174" font-family="Helvetica,sans-Serif" font-size="10.00">dump_bind_macro</text>
</a>
</g>
</g>
<!-- Node2 -->
<g id="node2" class="node">
<title>Node2</title>
<g id="a_node2"><a xlink:href="pool_8c.html#a41cba27c25d33cb6822789a2856093f2" target="_top" xlink:title="Get a Buffer from the pool.">
<polygon fill="#fff0f0" stroke="red" points="372,-336 295,-336 295,-317 372,-317 372,-336"/>
<text text-anchor="middle" x="333.5" y="-324" font-family="Helvetica,sans-Serif" font-size="10.00">buf_pool_get</text>
</a>
</g>
</g>
<!-- Node1&#45;&gt;Node2 -->
<g id="edge1" class="edge">
<title>Node1&#45;&gt;Node2</title>
<path fill="none" stroke="#63b8ff" d="M52.88,-186.1C57.77,-216.18 77.34,-308.82 137,-345.5 187.56,-376.58 259.73,-356.62 300.76,-340.65"/>
<polygon fill="#63b8ff" stroke="#63b8ff" points="301.87,-343.98 309.82,-336.97 299.24,-337.49 301.87,-343.98"/>
</g>
<!-- Node10 -->
<g id="node3" class="node">
<title>Node10</title>
<g id="a_node3"><a xlink:href="pool_8c.html#a4cc6068279461cb8628219586dfa35a1" target="_top" xlink:title="Return a Buffer to the pool.">
<polygon fill="#fff0f0" stroke="red" points="381,-253 286,-253 286,-234 381,-234 381,-253"/>
<text text-anchor="middle" x="333.5" y="-241" font-family="Helvetica,sans-Serif" font-size="10.00">buf_pool_release</text>
</a>
</g>
</g>
<!-- Node1&#45;&gt;Node10 -->
<g id="edge2" class="edge">
<title>Node1&#45;&gt;Node10</title>
<path fill="none" stroke="#63b8ff" d="M101.49,-186.32C141.76,-194.48 199.75,-206.77 250,-219.5 262.86,-222.76 276.74,-226.65 289.39,-230.34"/>
<polygon fill="#63b8ff" stroke="#63b8ff" points="288.09,-233.61 298.67,-233.08 290.07,-226.89 288.09,-233.61"/>
</g>
<!-- Node15 -->
<g id="node4" class="node">
<title>Node15</title>
<g id="a_node4"><a xlink:href="buffer_8c.html#a02123807d31181ac701b566226e93b33" target="_top" xlink:title="Format a string overwriting a Buffer.">
<polygon fill="#fff0f0" stroke="red" points="225,-167 162,-167 162,-148 225,-148 225,-167"/>
<text text-anchor="middle" x="193.5" y="-155" font-family="Helvetica,sans-Serif" font-size="10.00">buf_printf</text>
</a>
</g>
</g>
<!-- Node1&#45;&gt;Node15 -->
<g id="edge3" class="edge">
<title>Node1&#45;&gt;Node15</title>
<path fill="none" stroke="#63b8ff" d="M101.21,-169.8C117.26,-167.64 134.89,-165.26 150.33,-163.18"/>
<polygon fill="#63b8ff" stroke="#63b8ff" points="150.72,-166.66 160.16,-161.86 149.78,-159.72 150.72,-166.66"/>
</g>
<!-- Node17 -->
<g id="node5" class="node">
<title>Node17</title>
<g id="a_node5"><a xlink:href="buffer_8h.html#a728ebc5a947b77c8d56db44ce553a7ab" target="_top" xlink:title="Convert a buffer to a const char * &quot;string&quot;.">
<polygon fill="white" stroke="#666666" points="365.5,-290 301.5,-290 301.5,-271 365.5,-271 365.5,-290"/>
<text text-anchor="middle" x="333.5" y="-278" font-family="Helvetica,sans-Serif" font-size="10.00">buf_string</text>
</a>
</g>
</g>
<!-- Node1&#45;&gt;Node17 -->
<g id="edge4" class="edge">
<title>Node1&#45;&gt;Node17</title>
<path fill="none" stroke="#63b8ff" d="M69.1,-186.49C86.1,-195.86 112.77,-209.85 137,-219.5 185.72,-238.91 199.96,-237.79 250,-253.5 263.7,-257.8 278.64,-262.65 291.99,-267.03"/>
<polygon fill="#63b8ff" stroke="#63b8ff" points="290.74,-270.3 301.33,-270.11 292.93,-263.65 290.74,-270.3"/>
</g>
<!-- Node18 -->
<g id="node6" class="node">
<title>Node18</title>
<g id="a_node6"><a xlink:href="key_2dump_8c.html#a8560e90d0bb95ca6ffdedc527a5ab960" target="_top" xlink:title="Dump the key bindings.">
<polygon fill="#fff0f0" stroke="red" points="226.5,-130 160.5,-130 160.5,-111 226.5,-111 226.5,-130"/>
<text text-anchor="middle" x="193.5" y="-118" font-family="Helvetica,sans-Serif" font-size="10.00">colon_bind</text>
</a>
</g>
</g>
<!-- Node1&#45;&gt;Node18 -->
<g id="edge5" class="edge">
<title>Node1&#45;&gt;Node18</title>
<path fill="none" stroke="#63b8ff" d="M72.33,-166.51C89.48,-158.46 114.55,-147.1 137,-138.5 140.92,-137 145.02,-135.51 149.15,-134.07"/>
<polygon fill="#63b8ff" stroke="#63b8ff" points="150.23,-137.4 158.58,-130.89 147.99,-130.77 150.23,-137.4"/>
</g>
<!-- Node38 -->
<g id="node7" class="node">
<title>Node38</title>
<g id="a_node7"><a xlink:href="key_2dump_8c.html#a19b326981a8b3619d0b3045edd385c59" target="_top" xlink:title="Dump the macros.">
<polygon fill="#fff0f0" stroke="red" points="230.5,-93 156.5,-93 156.5,-74 230.5,-74 230.5,-93"/>
<text text-anchor="middle" x="193.5" y="-81" font-family="Helvetica,sans-Serif" font-size="10.00">colon_macro</text>
</a>
</g>
</g>
<!-- Node1&#45;&gt;Node38 -->
<g id="edge6" class="edge">
<title>Node1&#45;&gt;Node38</title>
<path fill="none" stroke="#63b8ff" d="M60.25,-166.56C74.73,-150.68 105.24,-119.55 137,-101.5 139.67,-99.98 142.49,-98.57 145.39,-97.26"/>
<polygon fill="#63b8ff" stroke="#63b8ff" points="146.69,-100.51 154.66,-93.53 144.08,-94.01 146.69,-100.51"/>
</g>
<!-- Node40 -->
<g id="node8" class="node">
<title>Node40</title>
<g id="a_node8"><a xlink:href="do__pager_8c.html#a9d3af21b7fdf24249c261a9a1aa9f3be" target="_top" xlink:title="Display some page&#45;able text to the user (help or attachment)">
<polygon fill="#fff0f0" stroke="red" points="237.5,-336 149.5,-336 149.5,-317 237.5,-317 237.5,-336"/>
<text text-anchor="middle" x="193.5" y="-324" font-family="Helvetica,sans-Serif" font-size="10.00">mutt_do_pager</text>
</a>
</g>
</g>
<!-- Node1&#45;&gt;Node40 -->
<g id="edge7" class="edge">
<title>Node1&#45;&gt;Node40</title>
<path fill="none" stroke="#63b8ff" d="M55.18,-186.43C64.76,-210.9 92.82,-274.58 137,-308.5 138.31,-309.5 139.67,-310.45 141.08,-311.35"/>
<polygon fill="#63b8ff" stroke="#63b8ff" points="139.08,-314.25 149.56,-315.83 142.36,-308.06 139.08,-314.25"/>
</g>
<!-- Node248 -->
<g id="node9" class="node">
<title>Node248</title>
<g id="a_node9"><a xlink:href="mutt_2string_8c.html#a29db81d6f5a7dd216cbea75ecf8a5885" target="_top" xlink:title="Compare two strings, ignoring case.">
<polygon fill="#fff0f0" stroke="red" points="238,-56 149,-56 149,-37 238,-37 238,-56"/>
<text text-anchor="middle" x="193.5" y="-44" font-family="Helvetica,sans-Serif" font-size="10.00">mutt_istr_equal</text>
</a>
</g>
</g>
<!-- Node1&#45;&gt;Node248 -->
<g id="edge11" class="edge">
<title>Node1&#45;&gt;Node248</title>
<path fill="none" stroke="#63b8ff" d="M56.25,-166.83C67.35,-145.23 97.07,-92.78 137,-64.5 138.56,-63.39 140.2,-62.35 141.89,-61.37"/>
<polygon fill="#63b8ff" stroke="#63b8ff" points="143.2,-64.63 150.63,-57.08 140.12,-58.34 143.2,-64.63"/>
</g>
<!-- Node1384 -->
<g id="node10" class="node">
<title>Node1384</title>
<g id="a_node10"><a xlink:href="mapping_8c.html#a7fbce597ae32241423b64dad5a0173a3" target="_top" xlink:title="Lookup the constant for a string.">
<polygon fill="#fff0f0" stroke="red" points="250,-19 137,-19 137,0 250,0 250,-19"/>
<text text-anchor="middle" x="193.5" y="-7" font-family="Helvetica,sans-Serif" font-size="10.00">mutt_map_get_value</text>
</a>
</g>
</g>
<!-- Node1&#45;&gt;Node1384 -->
<g id="edge12" class="edge">
<title>Node1&#45;&gt;Node1384</title>
<path fill="none" stroke="#63b8ff" d="M54.31,-166.87C62.49,-140.52 88.83,-66.59 137,-27.5 138.13,-26.58 139.3,-25.71 140.52,-24.89"/>
<polygon fill="#63b8ff" stroke="#63b8ff" points="142.08,-28.03 149.12,-20.11 138.68,-21.91 142.08,-28.03"/>
</g>
<!-- Node1385 -->
<g id="node11" class="node">
<title>Node1385</title>
<g id="a_node11"><a xlink:href="extract_8c.html#a2bdbddd6f12833e1b893bbffda6d64a3" target="_top" xlink:title="Extract one token from a string.">
<polygon fill="#fff0f0" stroke="red" points="248.5,-281 138.5,-281 138.5,-262 248.5,-262 248.5,-281"/>
<text text-anchor="middle" x="193.5" y="-269" font-family="Helvetica,sans-Serif" font-size="10.00">parse_extract_token</text>
</a>
</g>
</g>
<!-- Node1&#45;&gt;Node1385 -->
<g id="edge13" class="edge">
<title>Node1&#45;&gt;Node1385</title>
<path fill="none" stroke="#63b8ff" d="M61.3,-186.26C76.48,-200.99 107.07,-229.13 137,-247.5 142.62,-250.95 148.82,-254.15 154.98,-257.02"/>
<polygon fill="#63b8ff" stroke="#63b8ff" points="153.24,-260.08 163.81,-260.9 156.06,-253.67 153.24,-260.08"/>
</g>
<!-- Node40&#45;&gt;Node2 -->
<g id="edge8" class="edge">
<title>Node40&#45;&gt;Node2</title>
<path fill="none" stroke="#63b8ff" d="M237.79,-326.5C252.4,-326.5 268.81,-326.5 283.81,-326.5"/>
<polygon fill="#63b8ff" stroke="#63b8ff" points="283.44,-330 293.44,-326.5 283.44,-323 283.44,-330"/>
</g>
<!-- Node40&#45;&gt;Node10 -->
<g id="edge9" class="edge">
<title>Node40&#45;&gt;Node10</title>
<path fill="none" stroke="#63b8ff" d="M234.97,-316.54C240.27,-314.34 245.43,-311.69 250,-308.5 271.28,-293.62 265.29,-278.16 286,-262.5 287.77,-261.16 289.66,-259.9 291.61,-258.71"/>
<polygon fill="#63b8ff" stroke="#63b8ff" points="293.17,-261.84 300.41,-254.11 289.93,-255.64 293.17,-261.84"/>
</g>
<!-- Node40&#45;&gt;Node17 -->
<g id="edge10" class="edge">
<title>Node40&#45;&gt;Node17</title>
<path fill="none" stroke="#63b8ff" d="M225.35,-316.58C233.38,-313.97 242.02,-311.15 250,-308.5 263.91,-303.89 279.1,-298.75 292.62,-294.16"/>
<polygon fill="#63b8ff" stroke="#63b8ff" points="293.75,-297.47 302.08,-290.93 291.49,-290.84 293.75,-297.47"/>
</g>
<!-- Node1385&#45;&gt;Node2 -->
<g id="edge14" class="edge">
<title>Node1385&#45;&gt;Node2</title>
<path fill="none" stroke="#63b8ff" d="M219.49,-281.46C241.18,-290.1 272.82,-302.72 297.11,-312.4"/>
<polygon fill="#63b8ff" stroke="#63b8ff" points="295.7,-315.6 306.29,-316.05 298.3,-309.1 295.7,-315.6"/>
</g>
<!-- Node1385&#45;&gt;Node10 -->
<g id="edge15" class="edge">
<title>Node1385&#45;&gt;Node10</title>
<path fill="none" stroke="#63b8ff" d="M243.54,-261.55C253.67,-259.49 264.42,-257.31 274.83,-255.2"/>
<polygon fill="#63b8ff" stroke="#63b8ff" points="275.34,-258.67 284.44,-253.25 273.95,-251.81 275.34,-258.67"/>
</g>
<!-- Node1385&#45;&gt;Node17 -->
<g id="edge16" class="edge">
<title>Node1385&#45;&gt;Node17</title>
<path fill="none" stroke="#63b8ff" d="M248.65,-275.03C262.29,-275.92 276.75,-276.86 289.74,-277.71"/>
<polygon fill="#63b8ff" stroke="#63b8ff" points="289.49,-281.2 299.69,-278.36 289.94,-274.22 289.49,-281.2"/>
</g>
<!-- Node1385&#45;&gt;Node1385 -->
<g id="edge17" class="edge">
<title>Node1385&#45;&gt;Node1385</title>
<path fill="none" stroke="#63b8ff" d="M171.58,-281.37C161.58,-289.94 168.89,-299 193.5,-299 206.96,-299 215.24,-296.29 218.35,-292.43"/>
<polygon fill="#63b8ff" stroke="#63b8ff" points="221.75,-291.6 215.81,-282.83 214.98,-293.39 221.75,-291.6"/>
</g>
</g>
</svg>
