<?xml version="1.0" encoding="UTF-8" standalone="no"?>
<!DOCTYPE svg PUBLIC "-//W3C//DTD SVG 1.1//EN"
 "http://www.w3.org/Graphics/SVG/1.1/DTD/svg11.dtd">
<!-- Generated by graphviz version 12.2.1 (20241206.2353)
 -->
<!-- Title: op_generic_select_entry Pages: 1 -->
<svg width="272pt" height="270pt"
 viewBox="0.00 0.00 271.75 270.25" xmlns="http://www.w3.org/2000/svg" xmlns:xlink="http://www.w3.org/1999/xlink">
<g id="graph0" class="graph" transform="scale(1 1) rotate(0) translate(4 266.25)">
<title>op_generic_select_entry</title>
<!-- Node1 -->
<g id="Node000001" class="node">
<title>Node1</title>
<g id="a_Node000001"><a xlink:title="Select the current entry &#45; Implements gpgme_function_t &#45;.">
<polygon fill="#999999" stroke="#666666" points="129.25,-142.25 0,-142.25 0,-120 129.25,-120 129.25,-142.25"/>
<text text-anchor="middle" x="64.62" y="-128.75" font-family="Helvetica,sans-Serif" font-size="10.00">op_generic_select_entry</text>
</a>
</g>
</g>
<!-- Node2 -->
<g id="Node000002" class="node">
<title>Node2</title>
<g id="a_Node000002"><a xlink:href="crypt__gpgme_8c.html#a1a312249829b10264dc386a2657abce5" target="_top" xlink:title="Return a copy of KEY.">
<polygon fill="white" stroke="#666666" points="257.75,-262.25 171.25,-262.25 171.25,-240 257.75,-240 257.75,-262.25"/>
<text text-anchor="middle" x="214.5" y="-248.75" font-family="Helvetica,sans-Serif" font-size="10.00">crypt_copy_key</text>
</a>
</g>
</g>
<!-- Node1&#45;&gt;Node2 -->
<g id="edge1_Node000001_Node000002" class="edge">
<title>Node1&#45;&gt;Node2</title>
<g id="a_edge1_Node000001_Node000002"><a xlink:title=" ">
<path fill="none" stroke="#63b8ff" d="M74.36,-142.47C90.42,-162.68 126.56,-205.22 165.25,-231.12 167.03,-232.32 168.89,-233.46 170.81,-234.55"/>
<polygon fill="#63b8ff" stroke="#63b8ff" points="168.82,-237.47 179.32,-238.9 172.01,-231.23 168.82,-237.47"/>
</a>
</g>
</g>
<!-- Node3 -->
<g id="Node000003" class="node">
<title>Node3</title>
<g id="a_Node000003"><a xlink:href="crypt__gpgme_8c.html#a62e8dd3b32254251fb76bd1969a3403d" target="_top" xlink:title="Is the key strong.">
<polygon fill="white" stroke="#666666" points="263.75,-222.25 165.25,-222.25 165.25,-200 263.75,-200 263.75,-222.25"/>
<text text-anchor="middle" x="214.5" y="-208.75" font-family="Helvetica,sans-Serif" font-size="10.00">crypt_id_is_strong</text>
</a>
</g>
</g>
<!-- Node1&#45;&gt;Node3 -->
<g id="edge2_Node000001_Node000003" class="edge">
<title>Node1&#45;&gt;Node3</title>
<g id="a_edge2_Node000001_Node000003"><a xlink:title=" ">
<path fill="none" stroke="#63b8ff" d="M82.81,-142.56C102.32,-155.28 135.33,-176.02 165.25,-191.12 167.8,-192.41 170.45,-193.69 173.14,-194.93"/>
<polygon fill="#63b8ff" stroke="#63b8ff" points="171.64,-198.09 182.2,-198.93 174.47,-191.69 171.64,-198.09"/>
</a>
</g>
</g>
<!-- Node4 -->
<g id="Node000004" class="node">
<title>Node4</title>
<g id="a_Node000004"><a xlink:href="crypt__gpgme_8c.html#a3e2ecd88211e846a6f486f1a7df1aa32" target="_top" xlink:title="Is key ID valid.">
<polygon fill="white" stroke="#666666" points="259.25,-182.25 169.75,-182.25 169.75,-160 259.25,-160 259.25,-182.25"/>
<text text-anchor="middle" x="214.5" y="-168.75" font-family="Helvetica,sans-Serif" font-size="10.00">crypt_id_is_valid</text>
</a>
</g>
</g>
<!-- Node1&#45;&gt;Node4 -->
<g id="edge3_Node000001_Node000004" class="edge">
<title>Node1&#45;&gt;Node4</title>
<g id="a_edge3_Node000001_Node000004"><a xlink:title=" ">
<path fill="none" stroke="#63b8ff" d="M108.4,-142.69C124.42,-147.03 142.83,-152.01 159.73,-156.58"/>
<polygon fill="#63b8ff" stroke="#63b8ff" points="158.54,-159.88 169.11,-159.12 160.37,-153.13 158.54,-159.88"/>
</a>
</g>
</g>
<!-- Node5 -->
<g id="Node000005" class="node">
<title>Node5</title>
<g id="a_Node000005"><a xlink:href="gpgme__functions_8c.html#a9cb16b08108f16a623ed75e5f27f6863" target="_top" xlink:title="Is the key valid.">
<polygon fill="white" stroke="#666666" points="263,-142.25 166,-142.25 166,-120 263,-120 263,-142.25"/>
<text text-anchor="middle" x="214.5" y="-128.75" font-family="Helvetica,sans-Serif" font-size="10.00">crypt_key_is_valid</text>
</a>
</g>
</g>
<!-- Node1&#45;&gt;Node5 -->
<g id="edge4_Node000001_Node000005" class="edge">
<title>Node1&#45;&gt;Node5</title>
<g id="a_edge4_Node000001_Node000005"><a xlink:title=" ">
<path fill="none" stroke="#63b8ff" d="M129.63,-131.12C137.9,-131.12 146.35,-131.12 154.54,-131.12"/>
<polygon fill="#63b8ff" stroke="#63b8ff" points="154.39,-134.63 164.39,-131.13 154.39,-127.63 154.39,-134.63"/>
</a>
</g>
</g>
<!-- Node6 -->
<g id="Node000006" class="node">
<title>Node6</title>
<g id="a_Node000006"><a xlink:href="menu_2menu_8c.html#a67ee9260e41986eb4487124b004cff18" target="_top" xlink:title="Get the current selection in the Menu.">
<polygon fill="white" stroke="#666666" points="260.75,-102.25 168.25,-102.25 168.25,-80 260.75,-80 260.75,-102.25"/>
<text text-anchor="middle" x="214.5" y="-88.75" font-family="Helvetica,sans-Serif" font-size="10.00">menu_get_index</text>
</a>
</g>
</g>
<!-- Node1&#45;&gt;Node6 -->
<g id="edge5_Node000001_Node000006" class="edge">
<title>Node1&#45;&gt;Node6</title>
<g id="a_edge5_Node000001_Node000006"><a xlink:title=" ">
<path fill="none" stroke="#63b8ff" d="M108.4,-119.56C124.42,-115.22 142.83,-110.24 159.73,-105.67"/>
<polygon fill="#63b8ff" stroke="#63b8ff" points="160.37,-109.12 169.11,-103.13 158.54,-102.37 160.37,-109.12"/>
</a>
</g>
</g>
<!-- Node7 -->
<g id="Node000007" class="node">
<title>Node7</title>
<g id="a_Node000007"><a xlink:href="mutt__logging_8c.html#af068b3f524a31fad293b2fb61dfc4534" target="_top" xlink:title="Clear the message line (bottom line of screen)">
<polygon fill="#fff0f0" stroke="red" points="261.88,-62.25 167.12,-62.25 167.12,-40 261.88,-40 261.88,-62.25"/>
<text text-anchor="middle" x="214.5" y="-48.75" font-family="Helvetica,sans-Serif" font-size="10.00">mutt_clear_error</text>
</a>
</g>
</g>
<!-- Node1&#45;&gt;Node7 -->
<g id="edge6_Node000001_Node000007" class="edge">
<title>Node1&#45;&gt;Node7</title>
<g id="a_edge6_Node000001_Node000007"><a xlink:title=" ">
<path fill="none" stroke="#63b8ff" d="M82.81,-119.69C102.32,-106.97 135.33,-86.23 165.25,-71.12 167.8,-69.84 170.45,-68.56 173.14,-67.32"/>
<polygon fill="#63b8ff" stroke="#63b8ff" points="174.47,-70.56 182.2,-63.32 171.64,-64.16 174.47,-70.56"/>
</a>
</g>
</g>
<!-- Node81 -->
<g id="Node000081" class="node">
<title>Node81</title>
<g id="a_Node000081"><a xlink:href="question_8c.html#ae359ab94312d9ae6bcad5ab5b52bd529" target="_top" xlink:title="Ask the user a Yes/No question.">
<polygon fill="#fff0f0" stroke="red" points="257.75,-22.25 171.25,-22.25 171.25,0 257.75,0 257.75,-22.25"/>
<text text-anchor="middle" x="214.5" y="-8.75" font-family="Helvetica,sans-Serif" font-size="10.00">query_yesorno</text>
</a>
</g>
</g>
<!-- Node1&#45;&gt;Node81 -->
<g id="edge7_Node000001_Node000081" class="edge">
<title>Node1&#45;&gt;Node81</title>
<g id="a_edge7_Node000001_Node000081"><a xlink:title=" ">
<path fill="none" stroke="#63b8ff" d="M74.36,-119.78C90.42,-99.57 126.56,-57.03 165.25,-31.12 167.03,-29.93 168.89,-28.79 170.81,-27.7"/>
<polygon fill="#63b8ff" stroke="#63b8ff" points="172.01,-31.02 179.32,-23.35 168.82,-24.78 172.01,-31.02"/>
</a>
</g>
</g>
</g>
</svg>
