<?xml version="1.0" encoding="UTF-8" standalone="no"?>
<!DOCTYPE svg PUBLIC "-//W3C//DTD SVG 1.1//EN"
 "http://www.w3.org/Graphics/SVG/1.1/DTD/svg11.dtd">
<!-- Generated by graphviz version 12.2.1 (20241206.2353)
 -->
<!-- Title: parse_macro Pages: 1 -->
<svg width="617pt" height="814pt"
 viewBox="0.00 0.00 616.75 813.85" xmlns="http://www.w3.org/2000/svg" xmlns:xlink="http://www.w3.org/1999/xlink">
<g id="graph0" class="graph" transform="scale(1 1) rotate(0) translate(4 809.85)">
<title>parse_macro</title>
<!-- Node1 -->
<g id="Node000001" class="node">
<title>Node1</title>
<g id="a_Node000001"><a xlink:title="Parse the &#39;macro&#39; command &#45; Implements Command::parse() &#45;.">
<polygon fill="#999999" stroke="#666666" points="75.25,-401.25 0,-401.25 0,-379 75.25,-379 75.25,-401.25"/>
<text text-anchor="middle" x="37.62" y="-387.75" font-family="Helvetica,sans-Serif" font-size="10.00">parse_macro</text>
</a>
</g>
</g>
<!-- Node2 -->
<g id="Node000002" class="node">
<title>Node2</title>
<g id="a_Node000002"><a xlink:href="buffer_8c.html#a52e24da79941dc16d5577dac9dfc2698" target="_top" xlink:title="Return the character at the given offset.">
<polygon fill="#fff0f0" stroke="red" points="347.25,-774.25 302,-774.25 302,-752 347.25,-752 347.25,-774.25"/>
<text text-anchor="middle" x="324.62" y="-760.75" font-family="Helvetica,sans-Serif" font-size="10.00">buf_at</text>
</a>
</g>
</g>
<!-- Node1&#45;&gt;Node2 -->
<g id="edge1_Node000001_Node000002" class="edge">
<title>Node1&#45;&gt;Node2</title>
<g id="a_edge1_Node000001_Node000002"><a xlink:title=" ">
<path fill="none" stroke="#63b8ff" d="M38.86,-401.39C40.34,-460.32 50.45,-732.53 111.25,-783.12 162.14,-825.47 245.51,-798.93 291.19,-779.05"/>
<polygon fill="#63b8ff" stroke="#63b8ff" points="292.63,-782.24 300.3,-774.94 289.75,-775.86 292.63,-782.24"/>
</a>
</g>
</g>
<!-- Node4 -->
<g id="Node000004" class="node">
<title>Node4</title>
<g id="a_Node000004"><a xlink:href="buffer_8c.html#a4245e227baa2a9beb6991917404aab0d" target="_top" xlink:title="Is the Buffer empty?">
<polygon fill="white" stroke="#666666" points="210.12,-774.25 132.62,-774.25 132.62,-752 210.12,-752 210.12,-774.25"/>
<text text-anchor="middle" x="171.38" y="-760.75" font-family="Helvetica,sans-Serif" font-size="10.00">buf_is_empty</text>
</a>
</g>
</g>
<!-- Node1&#45;&gt;Node4 -->
<g id="edge2_Node000001_Node000004" class="edge">
<title>Node1&#45;&gt;Node4</title>
<g id="a_edge2_Node000001_Node000004"><a xlink:title=" ">
<path fill="none" stroke="#63b8ff" d="M39.59,-401.48C44.37,-455.3 67.05,-684.38 111.25,-738.12 114.44,-742.01 118.34,-745.3 122.61,-748.08"/>
<polygon fill="#63b8ff" stroke="#63b8ff" points="120.6,-750.97 131.05,-752.69 123.95,-744.83 120.6,-750.97"/>
</a>
</g>
</g>
<!-- Node5 -->
<g id="Node000005" class="node">
<title>Node5</title>
<g id="a_Node000005"><a xlink:href="pool_8c.html#a41cba27c25d33cb6822789a2856093f2" target="_top" xlink:title="Get a Buffer from the pool.">
<polygon fill="#fff0f0" stroke="red" points="503.5,-449.25 426.75,-449.25 426.75,-427 503.5,-427 503.5,-449.25"/>
<text text-anchor="middle" x="465.12" y="-435.75" font-family="Helvetica,sans-Serif" font-size="10.00">buf_pool_get</text>
</a>
</g>
</g>
<!-- Node1&#45;&gt;Node5 -->
<g id="edge4_Node000001_Node000005" class="edge">
<title>Node1&#45;&gt;Node5</title>
<g id="a_edge4_Node000001_Node000005"><a xlink:title=" ">
<path fill="none" stroke="#63b8ff" d="M75.68,-390.7C114.58,-391.57 177.46,-393.74 231.5,-399.12 298.72,-405.82 315.19,-410.57 381.75,-422.12 392.62,-424.01 404.26,-426.18 415.27,-428.3"/>
<polygon fill="#63b8ff" stroke="#63b8ff" points="414.49,-431.71 424.97,-430.19 415.82,-424.84 414.49,-431.71"/>
</a>
</g>
</g>
<!-- Node13 -->
<g id="Node000013" class="node">
<title>Node13</title>
<g id="a_Node000013"><a xlink:href="pool_8c.html#a4cc6068279461cb8628219586dfa35a1" target="_top" xlink:title="Return a Buffer to the pool.">
<polygon fill="#fff0f0" stroke="red" points="512.5,-563.25 417.75,-563.25 417.75,-541 512.5,-541 512.5,-563.25"/>
<text text-anchor="middle" x="465.12" y="-549.75" font-family="Helvetica,sans-Serif" font-size="10.00">buf_pool_release</text>
</a>
</g>
</g>
<!-- Node1&#45;&gt;Node13 -->
<g id="edge5_Node000001_Node000013" class="edge">
<title>Node1&#45;&gt;Node13</title>
<g id="a_edge5_Node000001_Node000013"><a xlink:title=" ">
<path fill="none" stroke="#63b8ff" d="M39.62,-401.33C43.09,-433.73 57.58,-528.44 111.25,-579.12 200.14,-663.07 268.03,-674 381.75,-629.12 410.44,-617.8 435.01,-591.26 449.67,-572.51"/>
<polygon fill="#63b8ff" stroke="#63b8ff" points="452.29,-574.85 455.5,-564.75 446.69,-570.65 452.29,-574.85"/>
</a>
</g>
</g>
<!-- Node16 -->
<g id="Node000016" class="node">
<title>Node16</title>
<g id="a_Node000016"><a xlink:href="buffer_8c.html#a3b1f80652b37dc26046f9acdd85a0b05" target="_top" xlink:title="Reset an existing Buffer.">
<polygon fill="#fff0f0" stroke="red" points="608.75,-602.25 548.5,-602.25 548.5,-580 608.75,-580 608.75,-602.25"/>
<text text-anchor="middle" x="578.62" y="-588.75" font-family="Helvetica,sans-Serif" font-size="10.00">buf_reset</text>
</a>
</g>
</g>
<!-- Node1&#45;&gt;Node16 -->
<g id="edge9_Node000001_Node000016" class="edge">
<title>Node1&#45;&gt;Node16</title>
<g id="a_edge9_Node000001_Node000016"><a xlink:title=" ">
<path fill="none" stroke="#63b8ff" d="M39.91,-401.55C45.5,-449.11 69.35,-630.5 111.25,-666.12 247.22,-781.73 354.56,-733.24 512.5,-650.12 531.15,-640.31 548.63,-623.91 560.78,-610.89"/>
<polygon fill="#63b8ff" stroke="#63b8ff" points="563.19,-613.44 567.27,-603.66 557.99,-608.76 563.19,-613.44"/>
</a>
</g>
</g>
<!-- Node18 -->
<g id="Node000018" class="node">
<title>Node18</title>
<g id="a_Node000018"><a xlink:href="buffer_8c.html#a02123807d31181ac701b566226e93b33" target="_top" xlink:title="Format a string overwriting a Buffer.">
<polygon fill="#fff0f0" stroke="red" points="355.88,-334.25 293.38,-334.25 293.38,-312 355.88,-312 355.88,-334.25"/>
<text text-anchor="middle" x="324.62" y="-320.75" font-family="Helvetica,sans-Serif" font-size="10.00">buf_printf</text>
</a>
</g>
</g>
<!-- Node1&#45;&gt;Node18 -->
<g id="edge7_Node000001_Node000018" class="edge">
<title>Node1&#45;&gt;Node18</title>
<g id="a_edge7_Node000001_Node000018"><a xlink:title=" ">
<path fill="none" stroke="#63b8ff" d="M54.16,-378.61C68.29,-368.78 90.1,-355.15 111.25,-348.12 168.21,-329.2 237.93,-324.21 281.58,-323.1"/>
<polygon fill="#63b8ff" stroke="#63b8ff" points="281.45,-326.6 291.38,-322.91 281.31,-319.6 281.45,-326.6"/>
</a>
</g>
</g>
<!-- Node20 -->
<g id="Node000020" class="node">
<title>Node20</title>
<g id="a_Node000020"><a xlink:href="buffer_8c.html#ac958acbd189e463a2c3bbc2f23aaeb1e" target="_top" xlink:title="Copy a string into a Buffer.">
<polygon fill="#fff0f0" stroke="red" points="497.12,-641.25 433.12,-641.25 433.12,-619 497.12,-619 497.12,-641.25"/>
<text text-anchor="middle" x="465.12" y="-627.75" font-family="Helvetica,sans-Serif" font-size="10.00">buf_strcpy</text>
</a>
</g>
</g>
<!-- Node1&#45;&gt;Node20 -->
<g id="edge10_Node000001_Node000020" class="edge">
<title>Node1&#45;&gt;Node20</title>
<g id="a_edge10_Node000001_Node000020"><a xlink:title=" ">
<path fill="none" stroke="#63b8ff" d="M38.24,-401.53C37.62,-440.19 41.2,-567.26 111.25,-629.12 198.49,-706.18 350.61,-669.41 423.25,-645.33"/>
<polygon fill="#63b8ff" stroke="#63b8ff" points="424.02,-648.76 432.35,-642.22 421.76,-642.14 424.02,-648.76"/>
</a>
</g>
</g>
<!-- Node21 -->
<g id="Node000021" class="node">
<title>Node21</title>
<g id="a_Node000021"><a xlink:href="buffer_8h.html#a728ebc5a947b77c8d56db44ce553a7ab" target="_top" xlink:title="Convert a buffer to a const char * &quot;string&quot;.">
<polygon fill="white" stroke="#666666" points="496.75,-382.25 433.5,-382.25 433.5,-360 496.75,-360 496.75,-382.25"/>
<text text-anchor="middle" x="465.12" y="-368.75" font-family="Helvetica,sans-Serif" font-size="10.00">buf_string</text>
</a>
</g>
</g>
<!-- Node1&#45;&gt;Node21 -->
<g id="edge12_Node000001_Node000021" class="edge">
<title>Node1&#45;&gt;Node21</title>
<g id="a_edge12_Node000001_Node000021"><a xlink:title=" ">
<path fill="none" stroke="#63b8ff" d="M40.02,-378.79C45.95,-332.47 70.7,-158.28 111.25,-124.12 164.61,-79.18 197.82,-112.46 267.5,-109.12 318.22,-106.7 340.81,-79.08 381.75,-109.12 459.17,-165.94 465.76,-295.51 465.05,-348.2"/>
<polygon fill="#63b8ff" stroke="#63b8ff" points="461.55,-347.99 464.8,-358.07 468.55,-348.16 461.55,-347.99"/>
</a>
</g>
</g>
<!-- Node22 -->
<g id="Node000022" class="node">
<title>Node22</title>
<g id="a_Node000022"><a xlink:href="group__command__parse.html#gaf9686752b880e9db03c03d3c6b3124b2" target="_top" xlink:title="Parse &#39;bind&#39; and &#39;macro&#39; commands &#45; Implements Command::parse() &#45;.">
<polygon fill="#fff0f0" stroke="red" points="221.75,-430.25 121,-430.25 121,-408 221.75,-408 221.75,-430.25"/>
<text text-anchor="middle" x="171.38" y="-416.75" font-family="Helvetica,sans-Serif" font-size="10.00">dump_bind_macro</text>
</a>
</g>
</g>
<!-- Node1&#45;&gt;Node22 -->
<g id="edge14_Node000001_Node000022" class="edge">
<title>Node1&#45;&gt;Node22</title>
<g id="a_edge14_Node000001_Node000022"><a xlink:title=" ">
<path fill="none" stroke="#63b8ff" d="M75.68,-398.28C86.29,-400.62 98.14,-403.23 109.78,-405.79"/>
<polygon fill="#63b8ff" stroke="#63b8ff" points="108.82,-409.16 119.34,-407.89 110.33,-402.32 108.82,-409.16"/>
</a>
</g>
</g>
<!-- Node1392 -->
<g id="Node001392" class="node">
<title>Node1392</title>
<g id="a_Node001392"><a xlink:href="extract_8c.html#a2bdbddd6f12833e1b893bbffda6d64a3" target="_top" xlink:title="Extract one token from a string.">
<polygon fill="#fff0f0" stroke="red" points="379.5,-602.25 269.75,-602.25 269.75,-580 379.5,-580 379.5,-602.25"/>
<text text-anchor="middle" x="324.62" y="-588.75" font-family="Helvetica,sans-Serif" font-size="10.00">parse_extract_token</text>
</a>
</g>
</g>
<!-- Node1&#45;&gt;Node1392 -->
<g id="edge37_Node000001_Node001392" class="edge">
<title>Node1&#45;&gt;Node1392</title>
<g id="a_edge37_Node000001_Node001392"><a xlink:title=" ">
<path fill="none" stroke="#63b8ff" d="M40.52,-401.44C45.93,-430.01 64.19,-505.46 111.25,-543.12 152.74,-576.33 212.71,-587.54 258.35,-590.9"/>
<polygon fill="#63b8ff" stroke="#63b8ff" points="257.92,-594.38 268.11,-591.5 258.35,-587.39 257.92,-594.38"/>
</a>
</g>
</g>
<!-- Node1393 -->
<g id="Node001393" class="node">
<title>Node1393</title>
<g id="a_Node001393"><a xlink:href="key_2commands_8c.html#a11591b7917643bd6420fa3816d48abe2" target="_top" xlink:title="Set up a key binding.">
<polygon fill="#fff0f0" stroke="red" points="198.88,-257.25 143.88,-257.25 143.88,-235 198.88,-235 198.88,-257.25"/>
<text text-anchor="middle" x="171.38" y="-243.75" font-family="Helvetica,sans-Serif" font-size="10.00">km_bind</text>
</a>
</g>
</g>
<!-- Node1&#45;&gt;Node1393 -->
<g id="edge26_Node000001_Node001393" class="edge">
<title>Node1&#45;&gt;Node1393</title>
<g id="a_edge26_Node000001_Node001393"><a xlink:title=" ">
<path fill="none" stroke="#63b8ff" d="M48.94,-378.7C62.99,-363.15 88.95,-334.47 111.25,-310.12 124.9,-295.22 140.4,-278.45 152.11,-265.81"/>
<polygon fill="#63b8ff" stroke="#63b8ff" points="154.62,-268.25 158.85,-258.54 149.48,-263.49 154.62,-268.25"/>
</a>
</g>
</g>
<!-- Node38 -->
<g id="Node000038" class="node">
<title>Node38</title>
<g id="a_Node000038"><a xlink:href="mapping_8c.html#ae52d375da6dc3039d2341ae4ace4f557" target="_top" xlink:title="Lookup a string for a constant.">
<polygon fill="white" stroke="#666666" points="381.75,-180.25 267.5,-180.25 267.5,-158 381.75,-158 381.75,-180.25"/>
<text text-anchor="middle" x="324.62" y="-166.75" font-family="Helvetica,sans-Serif" font-size="10.00">mutt_map_get_name</text>
</a>
</g>
</g>
<!-- Node1&#45;&gt;Node38 -->
<g id="edge34_Node000001_Node000038" class="edge">
<title>Node1&#45;&gt;Node38</title>
<g id="a_edge34_Node000001_Node000038"><a xlink:title=" ">
<path fill="none" stroke="#63b8ff" d="M40.28,-378.57C45.19,-348.61 62.52,-267.84 111.25,-226.12 151.48,-191.68 210.49,-177.83 256.1,-172.36"/>
<polygon fill="#63b8ff" stroke="#63b8ff" points="256.31,-175.86 265.88,-171.31 255.56,-168.9 256.31,-175.86"/>
</a>
</g>
</g>
<!-- Node29 -->
<g id="Node000029" class="node">
<title>Node29</title>
<g id="a_Node000029"><a xlink:href="mutt_2string_8c.html#a3fe33d90e4814281cd57de048119c950" target="_top" xlink:title="Copy a string, safely.">
<polygon fill="#fff0f0" stroke="red" points="363.75,-140.25 285.5,-140.25 285.5,-118 363.75,-118 363.75,-140.25"/>
<text text-anchor="middle" x="324.62" y="-126.75" font-family="Helvetica,sans-Serif" font-size="10.00">mutt_str_dup</text>
</a>
</g>
</g>
<!-- Node1&#45;&gt;Node29 -->
<g id="edge35_Node000001_Node000029" class="edge">
<title>Node1&#45;&gt;Node29</title>
<g id="a_edge35_Node000001_Node000029"><a xlink:title=" ">
<path fill="none" stroke="#63b8ff" d="M38.7,-378.51C39.6,-341.96 47.62,-228.44 111.25,-172.12 155.88,-132.62 226.61,-125.55 274.05,-125.89"/>
<polygon fill="#63b8ff" stroke="#63b8ff" points="273.69,-129.38 283.76,-126.08 273.83,-122.38 273.69,-129.38"/>
</a>
</g>
</g>
<!-- Node1399 -->
<g id="Node001399" class="node">
<title>Node1399</title>
<g id="a_Node001399"><a xlink:href="key_2lib_8c.html#aff53463851870df55bceb41d84e4cc96" target="_top" xlink:title="Get a human&#45;readable key string.">
<polygon fill="#fff0f0" stroke="red" points="231.5,-62.25 111.25,-62.25 111.25,-40 231.5,-40 231.5,-62.25"/>
<text text-anchor="middle" x="171.38" y="-48.75" font-family="Helvetica,sans-Serif" font-size="10.00">km_expand_key_string</text>
</a>
</g>
</g>
<!-- Node1&#45;&gt;Node1399 -->
<g id="edge33_Node000001_Node001399" class="edge">
<title>Node1&#45;&gt;Node1399</title>
<g id="a_edge33_Node000001_Node001399"><a xlink:title=" ">
<path fill="none" stroke="#63b8ff" d="M39.89,-378.54C45.68,-327.61 71.02,-123.99 111.25,-76.12 113.62,-73.31 116.36,-70.8 119.33,-68.58"/>
<polygon fill="#63b8ff" stroke="#63b8ff" points="120.89,-71.73 127.55,-63.49 117.2,-65.78 120.89,-71.73"/>
</a>
</g>
</g>
<!-- Node74 -->
<g id="Node000074" class="node">
<title>Node74</title>
<g id="a_Node000074"><a xlink:href="mutt_2notify_8c.html#ade2f42f8e0d8a843e87816300799a8e1" target="_top" xlink:title="Send out a notification message.">
<polygon fill="#fff0f0" stroke="red" points="206.38,-22.25 136.38,-22.25 136.38,0 206.38,0 206.38,-22.25"/>
<text text-anchor="middle" x="171.38" y="-8.75" font-family="Helvetica,sans-Serif" font-size="10.00">notify_send</text>
</a>
</g>
</g>
<!-- Node1&#45;&gt;Node74 -->
<g id="edge36_Node000001_Node000074" class="edge">
<title>Node1&#45;&gt;Node74</title>
<g id="a_edge36_Node000001_Node000074"><a xlink:title=" ">
<path fill="none" stroke="#63b8ff" d="M39.43,-378.71C43.52,-323.55 63.76,-85.05 111.25,-31.12 115.18,-26.67 120.14,-23.2 125.5,-20.5"/>
<polygon fill="#63b8ff" stroke="#63b8ff" points="126.79,-23.76 134.76,-16.78 124.18,-17.26 126.79,-23.76"/>
</a>
</g>
</g>
<!-- Node1400 -->
<g id="Node001400" class="node">
<title>Node1400</title>
<g id="a_Node001400"><a xlink:href="key_2commands_8c.html#abef8d8fc8603d392f925e15e171ec7b0" target="_top" xlink:title="Parse a user&#45;config key binding.">
<polygon fill="#fff0f0" stroke="red" points="212.75,-534.25 130,-534.25 130,-512 212.75,-512 212.75,-534.25"/>
<text text-anchor="middle" x="171.38" y="-520.75" font-family="Helvetica,sans-Serif" font-size="10.00">parse_keymap</text>
</a>
</g>
</g>
<!-- Node1&#45;&gt;Node1400 -->
<g id="edge38_Node000001_Node001400" class="edge">
<title>Node1&#45;&gt;Node1400</title>
<g id="a_edge38_Node000001_Node001400"><a xlink:title=" ">
<path fill="none" stroke="#63b8ff" d="M49.86,-401.46C72.42,-424.24 123.44,-475.75 151.32,-503.89"/>
<polygon fill="#63b8ff" stroke="#63b8ff" points="148.58,-506.1 158.11,-510.74 153.55,-501.17 148.58,-506.1"/>
</a>
</g>
</g>
<!-- Node4&#45;&gt;Node2 -->
<g id="edge3_Node000004_Node000002" class="edge">
<title>Node4&#45;&gt;Node2</title>
<g id="a_edge3_Node000004_Node000002"><a xlink:title=" ">
<path fill="none" stroke="#63b8ff" d="M210.54,-763.12C235.13,-763.12 266.8,-763.12 290.36,-763.12"/>
<polygon fill="#63b8ff" stroke="#63b8ff" points="290.35,-766.63 300.35,-763.13 290.35,-759.63 290.35,-766.63"/>
</a>
</g>
</g>
<!-- Node13&#45;&gt;Node16 -->
<g id="edge6_Node000013_Node000016" class="edge">
<title>Node13&#45;&gt;Node16</title>
<g id="a_edge6_Node000013_Node000016"><a xlink:title=" ">
<path fill="none" stroke="#63b8ff" d="M499.28,-563.72C511.29,-567.92 524.99,-572.72 537.54,-577.1"/>
<polygon fill="#63b8ff" stroke="#63b8ff" points="536.18,-580.34 546.77,-580.33 538.49,-573.73 536.18,-580.34"/>
</a>
</g>
</g>
<!-- Node18&#45;&gt;Node16 -->
<g id="edge8_Node000018_Node000016" class="edge">
<title>Node18&#45;&gt;Node16</title>
<g id="a_edge8_Node000018_Node000016"><a xlink:title=" ">
<path fill="none" stroke="#63b8ff" d="M356.33,-318.37C397.22,-313.9 469.37,-312.74 512.5,-351.12 545.26,-380.28 567.04,-514.33 574.64,-568.41"/>
<polygon fill="#63b8ff" stroke="#63b8ff" points="571.12,-568.57 575.95,-578 578.06,-567.62 571.12,-568.57"/>
</a>
</g>
</g>
<!-- Node20&#45;&gt;Node16 -->
<g id="edge11_Node000020_Node000016" class="edge">
<title>Node20&#45;&gt;Node16</title>
<g id="a_edge11_Node000020_Node000016"><a xlink:title=" ">
<path fill="none" stroke="#63b8ff" d="M497.48,-619.16C509.86,-614.83 524.24,-609.8 537.37,-605.21"/>
<polygon fill="#63b8ff" stroke="#63b8ff" points="538.32,-608.58 546.61,-601.97 536.01,-601.97 538.32,-608.58"/>
</a>
</g>
</g>
<!-- Node21&#45;&gt;Node21 -->
<g id="edge13_Node000021_Node000021" class="edge">
<title>Node21&#45;&gt;Node21</title>
<g id="a_edge13_Node000021_Node000021"><a xlink:title=" ">
<path fill="none" stroke="#63b8ff" d="M446.59,-382.49C439.66,-391.28 445.84,-400.25 465.12,-400.25 475.67,-400.25 482.3,-397.57 485.01,-393.7"/>
<polygon fill="#63b8ff" stroke="#63b8ff" points="488.51,-393.5 483.84,-383.99 481.56,-394.33 488.51,-393.5"/>
</a>
</g>
</g>
<!-- Node22&#45;&gt;Node5 -->
<g id="edge15_Node000022_Node000005" class="edge">
<title>Node22&#45;&gt;Node5</title>
<g id="a_edge15_Node000022_Node000005"><a xlink:title=" ">
<path fill="none" stroke="#63b8ff" d="M222.2,-422.37C276.17,-425.88 361.74,-431.46 415.32,-434.95"/>
<polygon fill="#63b8ff" stroke="#63b8ff" points="414.85,-438.42 425.06,-435.58 415.31,-431.44 414.85,-438.42"/>
</a>
</g>
</g>
<!-- Node22&#45;&gt;Node13 -->
<g id="edge16_Node000022_Node000013" class="edge">
<title>Node22&#45;&gt;Node13</title>
<g id="a_edge16_Node000022_Node000013"><a xlink:title=" ">
<path fill="none" stroke="#63b8ff" d="M197.76,-430.7C249.83,-454.43 368.86,-508.7 428.58,-535.92"/>
<polygon fill="#63b8ff" stroke="#63b8ff" points="427.08,-539.09 437.63,-540.05 429.99,-532.72 427.08,-539.09"/>
</a>
</g>
</g>
<!-- Node22&#45;&gt;Node18 -->
<g id="edge17_Node000022_Node000018" class="edge">
<title>Node22&#45;&gt;Node18</title>
<g id="a_edge17_Node000022_Node000018"><a xlink:title=" ">
<path fill="none" stroke="#63b8ff" d="M190.62,-407.55C216.74,-390.97 265.01,-360.33 295.66,-340.88"/>
<polygon fill="#63b8ff" stroke="#63b8ff" points="297.47,-343.87 304.04,-335.56 293.72,-337.96 297.47,-343.87"/>
</a>
</g>
</g>
<!-- Node22&#45;&gt;Node21 -->
<g id="edge18_Node000022_Node000021" class="edge">
<title>Node22&#45;&gt;Node21</title>
<g id="a_edge18_Node000022_Node000021"><a xlink:title=" ">
<path fill="none" stroke="#63b8ff" d="M222.2,-410.93C278.48,-401.67 369.11,-386.76 422.01,-378.05"/>
<polygon fill="#63b8ff" stroke="#63b8ff" points="422.54,-381.51 431.84,-376.44 421.4,-374.61 422.54,-381.51"/>
</a>
</g>
</g>
<!-- Node22&#45;&gt;Node1392 -->
<g id="edge19_Node000022_Node001392" class="edge">
<title>Node22&#45;&gt;Node1392</title>
<g id="a_edge19_Node000022_Node001392"><a xlink:title=" ">
<path fill="none" stroke="#63b8ff" d="M182.53,-430.68C207.93,-459.56 274.44,-535.19 306.22,-571.34"/>
<polygon fill="#63b8ff" stroke="#63b8ff" points="303.28,-573.29 312.51,-578.49 308.54,-568.67 303.28,-573.29"/>
</a>
</g>
</g>
<!-- Node1392&#45;&gt;Node5 -->
<g id="edge20_Node001392_Node000005" class="edge">
<title>Node1392&#45;&gt;Node5</title>
<g id="a_edge20_Node001392_Node000005"><a xlink:title=" ">
<path fill="none" stroke="#63b8ff" d="M336.04,-579.63C359.61,-553.58 417.3,-489.85 446.53,-457.56"/>
<polygon fill="#63b8ff" stroke="#63b8ff" points="448.84,-460.23 452.95,-450.46 443.65,-455.53 448.84,-460.23"/>
</a>
</g>
</g>
<!-- Node1392&#45;&gt;Node13 -->
<g id="edge21_Node001392_Node000013" class="edge">
<title>Node1392&#45;&gt;Node13</title>
<g id="a_edge21_Node001392_Node000013"><a xlink:title=" ">
<path fill="none" stroke="#63b8ff" d="M366.8,-579.53C381.05,-575.52 397.2,-570.97 412.2,-566.75"/>
<polygon fill="#63b8ff" stroke="#63b8ff" points="412.73,-570.23 421.41,-564.15 410.83,-563.5 412.73,-570.23"/>
</a>
</g>
</g>
<!-- Node1392&#45;&gt;Node16 -->
<g id="edge22_Node001392_Node000016" class="edge">
<title>Node1392&#45;&gt;Node16</title>
<g id="a_edge22_Node001392_Node000016"><a xlink:title=" ">
<path fill="none" stroke="#63b8ff" d="M379.99,-591.12C427.08,-591.12 494.14,-591.12 536.77,-591.12"/>
<polygon fill="#63b8ff" stroke="#63b8ff" points="536.6,-594.63 546.6,-591.13 536.6,-587.63 536.6,-594.63"/>
</a>
</g>
</g>
<!-- Node1392&#45;&gt;Node20 -->
<g id="edge23_Node001392_Node000020" class="edge">
<title>Node1392&#45;&gt;Node20</title>
<g id="a_edge23_Node001392_Node000020"><a xlink:title=" ">
<path fill="none" stroke="#63b8ff" d="M366.8,-602.72C384.2,-607.62 404.45,-613.32 421.95,-618.25"/>
<polygon fill="#63b8ff" stroke="#63b8ff" points="420.97,-621.61 431.55,-620.95 422.87,-614.87 420.97,-621.61"/>
</a>
</g>
</g>
<!-- Node1392&#45;&gt;Node21 -->
<g id="edge24_Node001392_Node000021" class="edge">
<title>Node1392&#45;&gt;Node21</title>
<g id="a_edge24_Node001392_Node000021"><a xlink:title=" ">
<path fill="none" stroke="#63b8ff" d="M330.39,-579.53C342.54,-550.7 376.63,-474.05 417.75,-418.12 425.01,-408.25 434.29,-398.43 442.64,-390.34"/>
<polygon fill="#63b8ff" stroke="#63b8ff" points="444.88,-393.04 449.77,-383.64 440.09,-387.93 444.88,-393.04"/>
</a>
</g>
</g>
<!-- Node1392&#45;&gt;Node1392 -->
<g id="edge25_Node001392_Node001392" class="edge">
<title>Node1392&#45;&gt;Node1392</title>
<g id="a_edge25_Node001392_Node001392"><a xlink:title=" ">
<path fill="none" stroke="#63b8ff" d="M301.68,-602.49C293.1,-611.28 300.75,-620.25 324.62,-620.25 337.68,-620.25 345.88,-617.57 349.23,-613.7"/>
<polygon fill="#63b8ff" stroke="#63b8ff" points="352.72,-613.36 347.79,-603.98 345.8,-614.39 352.72,-613.36"/>
</a>
</g>
</g>
<!-- Node1393&#45;&gt;Node5 -->
<g id="edge27_Node001393_Node000005" class="edge">
<title>Node1393&#45;&gt;Node5</title>
<g id="a_edge27_Node001393_Node000005"><a xlink:title=" ">
<path fill="none" stroke="#63b8ff" d="M199.26,-240.51C243.14,-233.03 330.4,-225.47 381.75,-270.12 429.91,-312 380.01,-357.66 417.75,-409.12 420.8,-413.29 424.65,-416.99 428.81,-420.24"/>
<polygon fill="#63b8ff" stroke="#63b8ff" points="426.76,-423.07 437,-425.78 430.68,-417.28 426.76,-423.07"/>
</a>
</g>
</g>
<!-- Node1393&#45;&gt;Node13 -->
<g id="edge28_Node001393_Node000013" class="edge">
<title>Node1393&#45;&gt;Node13</title>
<g id="a_edge28_Node001393_Node000013"><a xlink:title=" ">
<path fill="none" stroke="#63b8ff" d="M198.97,-251.77C252.42,-263.35 368.91,-289.8 381.75,-303.12 430.81,-354.06 393.95,-391.53 417.75,-458.12 427.02,-484.05 441.53,-512.17 451.85,-530.83"/>
<polygon fill="#63b8ff" stroke="#63b8ff" points="448.67,-532.32 456.63,-539.32 454.77,-528.88 448.67,-532.32"/>
</a>
</g>
</g>
<!-- Node1393&#45;&gt;Node18 -->
<g id="edge29_Node001393_Node000018" class="edge">
<title>Node1393&#45;&gt;Node18</title>
<g id="a_edge29_Node001393_Node000018"><a xlink:title=" ">
<path fill="none" stroke="#63b8ff" d="M192.17,-257.56C211.24,-268.43 241.02,-285.02 267.5,-298.12 273.5,-301.1 279.94,-304.11 286.23,-306.98"/>
<polygon fill="#63b8ff" stroke="#63b8ff" points="284.64,-310.1 295.2,-310.99 287.5,-303.71 284.64,-310.1"/>
</a>
</g>
</g>
<!-- Node1393&#45;&gt;Node21 -->
<g id="edge30_Node001393_Node000021" class="edge">
<title>Node1393&#45;&gt;Node21</title>
<g id="a_edge30_Node001393_Node000021"><a xlink:title=" ">
<path fill="none" stroke="#63b8ff" d="M199.27,-235.43C241.27,-220.57 323.67,-199.03 381.75,-232.12 425.84,-257.25 448.75,-316.27 458.4,-348.74"/>
<polygon fill="#63b8ff" stroke="#63b8ff" points="455.01,-349.6 461.06,-358.3 461.75,-347.73 455.01,-349.6"/>
</a>
</g>
</g>
<!-- Node1393&#45;&gt;Node38 -->
<g id="edge31_Node001393_Node000038" class="edge">
<title>Node1393&#45;&gt;Node38</title>
<g id="a_edge31_Node001393_Node000038"><a xlink:title=" ">
<path fill="none" stroke="#63b8ff" d="M192.17,-234.69C211.24,-223.82 241.02,-207.23 267.5,-194.12 273.5,-191.15 279.94,-188.14 286.23,-185.27"/>
<polygon fill="#63b8ff" stroke="#63b8ff" points="287.5,-188.54 295.2,-181.26 284.64,-182.15 287.5,-188.54"/>
</a>
</g>
</g>
<!-- Node1393&#45;&gt;Node29 -->
<g id="edge32_Node001393_Node000029" class="edge">
<title>Node1393&#45;&gt;Node29</title>
<g id="a_edge32_Node001393_Node000029"><a xlink:title=" ">
<path fill="none" stroke="#63b8ff" d="M180.79,-234.6C195.99,-214.56 229.94,-173.13 267.5,-149.12 269.78,-147.67 272.18,-146.3 274.65,-145.02"/>
<polygon fill="#63b8ff" stroke="#63b8ff" points="276.09,-148.21 283.72,-140.85 273.17,-141.85 276.09,-148.21"/>
</a>
</g>
</g>
<!-- Node1400&#45;&gt;Node2 -->
<g id="edge39_Node001400_Node000002" class="edge">
<title>Node1400&#45;&gt;Node2</title>
<g id="a_edge39_Node001400_Node000002"><a xlink:title=" ">
<path fill="none" stroke="#63b8ff" d="M179.67,-534.7C203.53,-572.56 279.48,-693.08 310.37,-742.09"/>
<polygon fill="#63b8ff" stroke="#63b8ff" points="307.3,-743.79 315.6,-750.38 313.23,-740.06 307.3,-743.79"/>
</a>
</g>
</g>
<!-- Node1400&#45;&gt;Node5 -->
<g id="edge40_Node001400_Node000005" class="edge">
<title>Node1400&#45;&gt;Node5</title>
<g id="a_edge40_Node001400_Node000005"><a xlink:title=" ">
<path fill="none" stroke="#63b8ff" d="M212.03,-511.57C264.9,-496.17 358.44,-468.92 415.51,-452.29"/>
<polygon fill="#63b8ff" stroke="#63b8ff" points="416.34,-455.69 424.96,-449.54 414.38,-448.97 416.34,-455.69"/>
</a>
</g>
</g>
<!-- Node1400&#45;&gt;Node13 -->
<g id="edge41_Node001400_Node000013" class="edge">
<title>Node1400&#45;&gt;Node13</title>
<g id="a_edge41_Node001400_Node000013"><a xlink:title=" ">
<path fill="none" stroke="#63b8ff" d="M213.25,-527.19C263.43,-532.18 348.86,-540.67 405.89,-546.34"/>
<polygon fill="#63b8ff" stroke="#63b8ff" points="405.45,-549.81 415.75,-547.32 406.15,-542.84 405.45,-549.81"/>
</a>
</g>
</g>
<!-- Node1400&#45;&gt;Node18 -->
<g id="edge42_Node001400_Node000018" class="edge">
<title>Node1400&#45;&gt;Node18</title>
<g id="a_edge42_Node001400_Node000018"><a xlink:title=" ">
<path fill="none" stroke="#63b8ff" d="M181.16,-511.51C205.97,-478.7 276.81,-385.02 308.26,-343.44"/>
<polygon fill="#63b8ff" stroke="#63b8ff" points="311.04,-345.57 314.28,-335.49 305.45,-341.35 311.04,-345.57"/>
</a>
</g>
</g>
<!-- Node1400&#45;&gt;Node1392 -->
<g id="edge43_Node001400_Node001392" class="edge">
<title>Node1400&#45;&gt;Node1392</title>
<g id="a_edge43_Node001400_Node001392"><a xlink:title=" ">
<path fill="none" stroke="#63b8ff" d="M197.79,-534.66C216.94,-543.34 243.85,-555.51 267.5,-566.12 273.95,-569.02 280.82,-572.09 287.47,-575.05"/>
<polygon fill="#63b8ff" stroke="#63b8ff" points="285.68,-578.09 296.24,-578.96 288.53,-571.7 285.68,-578.09"/>
</a>
</g>
</g>
</g>
</svg>
