<?xml version="1.0" encoding="UTF-8" standalone="no"?>
<!DOCTYPE svg PUBLIC "-//W3C//DTD SVG 1.1//EN"
 "http://www.w3.org/Graphics/SVG/1.1/DTD/svg11.dtd">
<!-- Generated by graphviz version 7.1.0 (0)
 -->
<!-- Title: tunnel_socket_open Pages: 1 -->
<svg width="288pt" height="175pt"
 viewBox="0.00 0.00 288.00 175.00" xmlns="http://www.w3.org/2000/svg" xmlns:xlink="http://www.w3.org/1999/xlink">
<g id="graph0" class="graph" transform="scale(1 1) rotate(0) translate(4 171)">
<title>tunnel_socket_open</title>
<!-- Node1 -->
<g id="node1" class="node">
<title>Node1</title>
<g id="a_node1"><a xlink:title="Open a tunnel socket &#45; Implements Connection::open() &#45;.">
<polygon fill="#999999" stroke="#666666" points="110,-93 0,-93 0,-74 110,-74 110,-93"/>
<text text-anchor="middle" x="55" y="-81" font-family="Helvetica,sans-Serif" font-size="10.00">tunnel_socket_open</text>
</a>
</g>
</g>
<!-- Node2 -->
<g id="node2" class="node">
<title>Node2</title>
<g id="a_node2"><a xlink:href="config_2helpers_8c.html#ae50f679dd6c5bd1ba820884c8602f038" target="_top" xlink:title="Get a boolean config item by name.">
<polygon fill="#fff0f0" stroke="red" points="256,-167 170,-167 170,-148 256,-148 256,-167"/>
<text text-anchor="middle" x="213" y="-155" font-family="Helvetica,sans-Serif" font-size="10.00">cs_subset_bool</text>
</a>
</g>
</g>
<!-- Node1&#45;&gt;Node2 -->
<g id="edge1" class="edge">
<title>Node1&#45;&gt;Node2</title>
<path fill="none" stroke="#63b8ff" d="M69.05,-93.33C85.98,-105.67 116.82,-126.77 146,-139.5 150.23,-141.34 154.69,-143.04 159.21,-144.6"/>
<polygon fill="#63b8ff" stroke="#63b8ff" points="157.79,-147.82 168.38,-147.51 159.91,-141.14 157.79,-147.82"/>
</g>
<!-- Node30 -->
<g id="node3" class="node">
<title>Node30</title>
<g id="a_node3"><a xlink:href="config_2helpers_8c.html#a6b1589ee93ff51ef31f1d9324e138078" target="_top" xlink:title="Get a string config item by name.">
<polygon fill="#fff0f0" stroke="red" points="259,-130 167,-130 167,-111 259,-111 259,-130"/>
<text text-anchor="middle" x="213" y="-118" font-family="Helvetica,sans-Serif" font-size="10.00">cs_subset_string</text>
</a>
</g>
</g>
<!-- Node1&#45;&gt;Node30 -->
<g id="edge2" class="edge">
<title>Node1&#45;&gt;Node30</title>
<path fill="none" stroke="#63b8ff" d="M97.81,-93.42C116.6,-97.87 139,-103.19 158.97,-107.92"/>
<polygon fill="#63b8ff" stroke="#63b8ff" points="158.07,-111.31 168.61,-110.21 159.68,-104.49 158.07,-111.31"/>
</g>
<!-- Node31 -->
<g id="node4" class="node">
<title>Node31</title>
<g id="a_node4"><a xlink:href="memory_8c.html#ab856dc3a382ecbde1e18f558b81ff5d9" target="_top" xlink:title="Allocate memory on the heap.">
<polygon fill="#fff0f0" stroke="red" points="263.5,-93 162.5,-93 162.5,-74 263.5,-74 263.5,-93"/>
<text text-anchor="middle" x="213" y="-81" font-family="Helvetica,sans-Serif" font-size="10.00">mutt_mem_malloc</text>
</a>
</g>
</g>
<!-- Node1&#45;&gt;Node31 -->
<g id="edge3" class="edge">
<title>Node1&#45;&gt;Node31</title>
<path fill="none" stroke="#63b8ff" d="M110.12,-83.5C123.32,-83.5 137.53,-83.5 151.03,-83.5"/>
<polygon fill="#63b8ff" stroke="#63b8ff" points="150.64,-87 160.64,-83.5 150.64,-80 150.64,-87"/>
</g>
<!-- Node32 -->
<g id="node5" class="node">
<title>Node32</title>
<g id="a_node5"><a xlink:href="signal_8c.html#a8f760c89850a7fdab70f3e084dae29ea" target="_top" xlink:title="Block signals before calling exec()">
<polygon fill="white" stroke="#666666" points="274,-56 152,-56 152,-37 274,-37 274,-56"/>
<text text-anchor="middle" x="213" y="-44" font-family="Helvetica,sans-Serif" font-size="10.00">mutt_sig_block_system</text>
</a>
</g>
</g>
<!-- Node1&#45;&gt;Node32 -->
<g id="edge4" class="edge">
<title>Node1&#45;&gt;Node32</title>
<path fill="none" stroke="#63b8ff" d="M97.81,-73.58C116.6,-69.13 139,-63.81 158.97,-59.08"/>
<polygon fill="#63b8ff" stroke="#63b8ff" points="159.68,-62.51 168.61,-56.79 158.07,-55.69 159.68,-62.51"/>
</g>
<!-- Node33 -->
<g id="node6" class="node">
<title>Node33</title>
<g id="a_node6"><a xlink:href="signal_8c.html#ad44b8fd5380fa4749911e9f1792af99d" target="_top" xlink:title="Restore previously blocked signals.">
<polygon fill="white" stroke="#666666" points="280,-19 146,-19 146,0 280,0 280,-19"/>
<text text-anchor="middle" x="213" y="-7" font-family="Helvetica,sans-Serif" font-size="10.00">mutt_sig_unblock_system</text>
</a>
</g>
</g>
<!-- Node1&#45;&gt;Node33 -->
<g id="edge5" class="edge">
<title>Node1&#45;&gt;Node33</title>
<path fill="none" stroke="#63b8ff" d="M69.7,-73.51C86.81,-61.41 117.34,-41.11 146,-28.5 150.54,-26.5 155.35,-24.65 160.22,-22.95"/>
<polygon fill="#63b8ff" stroke="#63b8ff" points="161.04,-26.37 169.46,-19.95 158.87,-19.71 161.04,-26.37"/>
</g>
</g>
</svg>
