<?xml version="1.0" encoding="UTF-8" standalone="no"?>
<!DOCTYPE svg PUBLIC "-//W3C//DTD SVG 1.1//EN"
 "http://www.w3.org/Graphics/SVG/1.1/DTD/svg11.dtd">
<!-- Generated by graphviz version 7.1.0 (0)
 -->
<!-- Title: imap_auth_plain Pages: 1 -->
<svg width="387pt" height="346pt"
 viewBox="0.00 0.00 387.00 346.01" xmlns="http://www.w3.org/2000/svg" xmlns:xlink="http://www.w3.org/1999/xlink">
<g id="graph0" class="graph" transform="scale(1 1) rotate(0) translate(4 342.01)">
<title>imap_auth_plain</title>
<!-- Node1 -->
<g id="node1" class="node">
<title>Node1</title>
<g id="a_node1"><a xlink:title="SASL PLAIN support &#45; Implements ImapAuth::authenticate() &#45;.">
<polygon fill="#999999" stroke="#666666" points="91,-188 0,-188 0,-169 91,-169 91,-188"/>
<text text-anchor="middle" x="45.5" y="-176" font-family="Helvetica,sans-Serif" font-size="10.00">imap_auth_plain</text>
</a>
</g>
</g>
<!-- Node2 -->
<g id="node2" class="node">
<title>Node2</title>
<g id="a_node2"><a xlink:href="buffer_8c.html#a9924e74ddcb5280ab380e4627d1fba99" target="_top" xlink:title="Add a string to a Buffer.">
<polygon fill="#fff0f0" stroke="red" points="365,-337 298,-337 298,-318 365,-318 365,-337"/>
<text text-anchor="middle" x="331.5" y="-325" font-family="Helvetica,sans-Serif" font-size="10.00">buf_addstr</text>
</a>
</g>
</g>
<!-- Node1&#45;&gt;Node2 -->
<g id="edge1" class="edge">
<title>Node1&#45;&gt;Node2</title>
<path fill="none" stroke="#63b8ff" d="M49.1,-188.4C56.39,-213.98 79.67,-282.32 127,-311.5 175.22,-341.23 242.56,-340.07 286.35,-335.01"/>
<polygon fill="#63b8ff" stroke="#63b8ff" points="286.79,-338.48 296.26,-333.73 285.9,-331.54 286.79,-338.48"/>
</g>
<!-- Node7 -->
<g id="node3" class="node">
<title>Node7</title>
<g id="a_node3"><a xlink:href="pool_8c.html#a41cba27c25d33cb6822789a2856093f2" target="_top" xlink:title="Get a Buffer from the pool.">
<polygon fill="#fff0f0" stroke="red" points="370,-281 293,-281 293,-262 370,-262 370,-281"/>
<text text-anchor="middle" x="331.5" y="-269" font-family="Helvetica,sans-Serif" font-size="10.00">buf_pool_get</text>
</a>
</g>
</g>
<!-- Node1&#45;&gt;Node7 -->
<g id="edge2" class="edge">
<title>Node1&#45;&gt;Node7</title>
<path fill="none" stroke="#63b8ff" d="M49.99,-188.4C58.72,-211.46 83.96,-268.43 127,-290.5 181.2,-318.29 254.21,-300.27 296.44,-285.38"/>
<polygon fill="#63b8ff" stroke="#63b8ff" points="297.39,-288.76 305.57,-282.02 294.97,-282.19 297.39,-288.76"/>
</g>
<!-- Node10 -->
<g id="node4" class="node">
<title>Node10</title>
<g id="a_node4"><a xlink:href="pool_8c.html#a4cc6068279461cb8628219586dfa35a1" target="_top" xlink:title="Return a Buffer to the pool.">
<polygon fill="#fff0f0" stroke="red" points="379,-207 284,-207 284,-188 379,-188 379,-207"/>
<text text-anchor="middle" x="331.5" y="-195" font-family="Helvetica,sans-Serif" font-size="10.00">buf_pool_release</text>
</a>
</g>
</g>
<!-- Node1&#45;&gt;Node10 -->
<g id="edge3" class="edge">
<title>Node1&#45;&gt;Node10</title>
<path fill="none" stroke="#63b8ff" d="M64.72,-168.62C80.64,-160.6 104.62,-149.91 127,-145.5 179.76,-135.1 196.33,-130.58 248,-145.5 271.57,-152.31 294.89,-168.07 310.7,-180.47"/>
<polygon fill="#63b8ff" stroke="#63b8ff" points="308.36,-183.08 318.32,-186.69 312.78,-177.66 308.36,-183.08"/>
</g>
<!-- Node15 -->
<g id="node5" class="node">
<title>Node15</title>
<g id="a_node5"><a xlink:href="buffer_8h.html#a728ebc5a947b77c8d56db44ce553a7ab" target="_top" xlink:title="Convert a buffer to a const char * &quot;string&quot;.">
<polygon fill="white" stroke="#666666" points="363.5,-244 299.5,-244 299.5,-225 363.5,-225 363.5,-244"/>
<text text-anchor="middle" x="331.5" y="-232" font-family="Helvetica,sans-Serif" font-size="10.00">buf_string</text>
</a>
</g>
</g>
<!-- Node1&#45;&gt;Node15 -->
<g id="edge4" class="edge">
<title>Node1&#45;&gt;Node15</title>
<path fill="none" stroke="#63b8ff" d="M91.32,-169.13C133.53,-162.47 197.62,-158.08 248,-179.5 269.11,-188.48 264.86,-203.85 284,-216.5 285.79,-217.68 287.66,-218.8 289.59,-219.86"/>
<polygon fill="#63b8ff" stroke="#63b8ff" points="287.66,-222.82 298.19,-224.02 290.71,-216.52 287.66,-222.82"/>
</g>
<!-- Node16 -->
<g id="node6" class="node">
<title>Node16</title>
<g id="a_node6"><a xlink:href="imap_2command_8c.html#a07786a21982bd266c8faca5423b7f2cf" target="_top" xlink:title="Given an IMAP command, send it to the server.">
<polygon fill="#fff0f0" stroke="red" points="232,-93 143,-93 143,-74 232,-74 232,-93"/>
<text text-anchor="middle" x="187.5" y="-81" font-family="Helvetica,sans-Serif" font-size="10.00">imap_cmd_start</text>
</a>
</g>
</g>
<!-- Node1&#45;&gt;Node16 -->
<g id="edge5" class="edge">
<title>Node1&#45;&gt;Node16</title>
<path fill="none" stroke="#63b8ff" d="M55.56,-168.6C69.63,-153.69 98.14,-125.32 127,-107.5 132.91,-103.85 139.47,-100.56 146.01,-97.66"/>
<polygon fill="#63b8ff" stroke="#63b8ff" points="146.89,-101.09 154.79,-94.02 144.21,-94.62 146.89,-101.09"/>
</g>
<!-- Node45 -->
<g id="node7" class="node">
<title>Node45</title>
<g id="a_node7"><a xlink:href="imap_2command_8c.html#a8b9d7c9333e35981d94074e9dcc28e6f" target="_top" xlink:title="Reads server responses from an IMAP command.">
<polygon fill="#fff0f0" stroke="red" points="231.5,-56 143.5,-56 143.5,-37 231.5,-37 231.5,-56"/>
<text text-anchor="middle" x="187.5" y="-44" font-family="Helvetica,sans-Serif" font-size="10.00">imap_cmd_step</text>
</a>
</g>
</g>
<!-- Node1&#45;&gt;Node45 -->
<g id="edge6" class="edge">
<title>Node1&#45;&gt;Node45</title>
<path fill="none" stroke="#63b8ff" d="M50.73,-168.59C60.67,-146.48 87.7,-92.85 127,-64.5 128.91,-63.12 130.94,-61.84 133.03,-60.66"/>
<polygon fill="#63b8ff" stroke="#63b8ff" points="134.36,-63.91 141.9,-56.47 131.37,-57.58 134.36,-63.91"/>
</g>
<!-- Node1275 -->
<g id="node8" class="node">
<title>Node1275</title>
<g id="a_node8"><a xlink:href="connaccount_8c.html#a2bc0b90ace43b835b6ad51f3d8fa5c1a" target="_top" xlink:title="Fetch password into ConnAccount, if necessary.">
<polygon fill="#fff0f0" stroke="red" points="247.5,-244 127.5,-244 127.5,-225 247.5,-225 247.5,-244"/>
<text text-anchor="middle" x="187.5" y="-232" font-family="Helvetica,sans-Serif" font-size="10.00">mutt_account_getpass</text>
</a>
</g>
</g>
<!-- Node1&#45;&gt;Node1275 -->
<g id="edge7" class="edge">
<title>Node1&#45;&gt;Node1275</title>
<path fill="none" stroke="#63b8ff" d="M65.35,-188.37C81.45,-196.56 105.37,-208.17 127,-216.5 131.13,-218.09 135.47,-219.63 139.83,-221.1"/>
<polygon fill="#63b8ff" stroke="#63b8ff" points="138.62,-224.39 149.22,-224.13 140.77,-217.73 138.62,-224.39"/>
</g>
<!-- Node1280 -->
<g id="node9" class="node">
<title>Node1280</title>
<g id="a_node9"><a xlink:href="connaccount_8c.html#a2e00de19727c4db19f452dde494a770a" target="_top" xlink:title="Retrieve username into ConnAccount, if necessary.">
<polygon fill="#fff0f0" stroke="red" points="248,-207 127,-207 127,-188 248,-188 248,-207"/>
<text text-anchor="middle" x="187.5" y="-195" font-family="Helvetica,sans-Serif" font-size="10.00">mutt_account_getuser</text>
</a>
</g>
</g>
<!-- Node1&#45;&gt;Node1280 -->
<g id="edge11" class="edge">
<title>Node1&#45;&gt;Node1280</title>
<path fill="none" stroke="#63b8ff" d="M91.18,-184.56C98.94,-185.62 107.18,-186.73 115.43,-187.86"/>
<polygon fill="#63b8ff" stroke="#63b8ff" points="114.78,-191.3 125.16,-189.18 115.72,-184.36 114.78,-191.3"/>
</g>
<!-- Node391 -->
<g id="node10" class="node">
<title>Node391</title>
<g id="a_node10"><a xlink:href="mutt__logging_8c.html#af068b3f524a31fad293b2fb61dfc4534" target="_top" xlink:title="Clear the message line (bottom line of screen)">
<polygon fill="#fff0f0" stroke="red" points="235,-19 140,-19 140,0 235,0 235,-19"/>
<text text-anchor="middle" x="187.5" y="-7" font-family="Helvetica,sans-Serif" font-size="10.00">mutt_clear_error</text>
</a>
</g>
</g>
<!-- Node1&#45;&gt;Node391 -->
<g id="edge15" class="edge">
<title>Node1&#45;&gt;Node391</title>
<path fill="none" stroke="#63b8ff" d="M48.89,-168.7C55.95,-141.89 79.24,-66.71 127,-27.5 128.1,-26.59 129.25,-25.74 130.43,-24.92"/>
<polygon fill="#63b8ff" stroke="#63b8ff" points="131.8,-28.16 138.8,-20.21 128.37,-22.06 131.8,-28.16"/>
</g>
<!-- Node1281 -->
<g id="node11" class="node">
<title>Node1281</title>
<g id="a_node11"><a xlink:href="sasl__plain_8c.html#a823ff643553588897f0621b8981d80ce" target="_top" xlink:title="Construct a base64 encoded SASL PLAIN message.">
<polygon fill="#fff0f0" stroke="red" points="242.5,-281 132.5,-281 132.5,-262 242.5,-262 242.5,-281"/>
<text text-anchor="middle" x="187.5" y="-269" font-family="Helvetica,sans-Serif" font-size="10.00">mutt_sasl_plain_msg</text>
</a>
</g>
</g>
<!-- Node1&#45;&gt;Node1281 -->
<g id="edge16" class="edge">
<title>Node1&#45;&gt;Node1281</title>
<path fill="none" stroke="#63b8ff" d="M54.36,-188.28C67.66,-204.22 96.2,-235.79 127,-253.5 129.33,-254.84 131.77,-256.09 134.27,-257.25"/>
<polygon fill="#63b8ff" stroke="#63b8ff" points="132.85,-260.45 143.43,-260.99 135.5,-253.97 132.85,-260.45"/>
</g>
<!-- Node1275&#45;&gt;Node7 -->
<g id="edge8" class="edge">
<title>Node1275&#45;&gt;Node7</title>
<path fill="none" stroke="#63b8ff" d="M226.55,-244.42C243.56,-248.85 263.81,-254.12 281.9,-258.84"/>
<polygon fill="#63b8ff" stroke="#63b8ff" points="280.81,-262.17 291.37,-261.3 282.57,-255.4 280.81,-262.17"/>
</g>
<!-- Node1275&#45;&gt;Node10 -->
<g id="edge9" class="edge">
<title>Node1275&#45;&gt;Node10</title>
<path fill="none" stroke="#63b8ff" d="M226.55,-224.58C243.35,-220.21 263.3,-215.01 281.21,-210.34"/>
<polygon fill="#63b8ff" stroke="#63b8ff" points="282.08,-213.73 290.88,-207.82 280.32,-206.96 282.08,-213.73"/>
</g>
<!-- Node1275&#45;&gt;Node15 -->
<g id="edge10" class="edge">
<title>Node1275&#45;&gt;Node15</title>
<path fill="none" stroke="#63b8ff" d="M247.9,-234.5C261.4,-234.5 275.47,-234.5 288.1,-234.5"/>
<polygon fill="#63b8ff" stroke="#63b8ff" points="287.71,-238 297.71,-234.5 287.71,-231 287.71,-238"/>
</g>
<!-- Node1280&#45;&gt;Node7 -->
<g id="edge12" class="edge">
<title>Node1280&#45;&gt;Node7</title>
<path fill="none" stroke="#63b8ff" d="M229.06,-207.49C235.64,-209.93 242.19,-212.91 248,-216.5 267.51,-228.57 264.86,-240.85 284,-253.5 285.79,-254.68 287.66,-255.8 289.59,-256.86"/>
<polygon fill="#63b8ff" stroke="#63b8ff" points="287.66,-259.82 298.19,-261.02 290.71,-253.52 287.66,-259.82"/>
</g>
<!-- Node1280&#45;&gt;Node10 -->
<g id="edge13" class="edge">
<title>Node1280&#45;&gt;Node10</title>
<path fill="none" stroke="#63b8ff" d="M248.31,-197.5C256.25,-197.5 264.39,-197.5 272.31,-197.5"/>
<polygon fill="#63b8ff" stroke="#63b8ff" points="272.19,-201 282.19,-197.5 272.19,-194 272.19,-201"/>
</g>
<!-- Node1280&#45;&gt;Node15 -->
<g id="edge14" class="edge">
<title>Node1280&#45;&gt;Node15</title>
<path fill="none" stroke="#63b8ff" d="M226.55,-207.42C245.51,-212.35 268.49,-218.34 288.01,-223.43"/>
<polygon fill="#63b8ff" stroke="#63b8ff" points="287.03,-226.79 297.59,-225.93 288.8,-220.02 287.03,-226.79"/>
</g>
<!-- Node1281&#45;&gt;Node2 -->
<g id="edge17" class="edge">
<title>Node1281&#45;&gt;Node2</title>
<path fill="none" stroke="#63b8ff" d="M213.56,-281.38C236.03,-290.24 269.26,-303.35 294.56,-313.33"/>
<polygon fill="#63b8ff" stroke="#63b8ff" points="293.22,-316.56 303.8,-316.97 295.79,-310.05 293.22,-316.56"/>
</g>
<!-- Node1281&#45;&gt;Node7 -->
<g id="edge18" class="edge">
<title>Node1281&#45;&gt;Node7</title>
<path fill="none" stroke="#63b8ff" d="M242.99,-271.5C255.56,-271.5 268.86,-271.5 281.19,-271.5"/>
<polygon fill="#63b8ff" stroke="#63b8ff" points="281.14,-275 291.14,-271.5 281.14,-268 281.14,-275"/>
</g>
<!-- Node1281&#45;&gt;Node10 -->
<g id="edge19" class="edge">
<title>Node1281&#45;&gt;Node10</title>
<path fill="none" stroke="#63b8ff" d="M230.94,-261.57C236.88,-259.36 242.74,-256.7 248,-253.5 267.6,-241.58 264.98,-229.33 284,-216.5 286.2,-215.02 288.53,-213.62 290.93,-212.31"/>
<polygon fill="#63b8ff" stroke="#63b8ff" points="292.21,-215.58 299.67,-208.06 289.15,-209.28 292.21,-215.58"/>
</g>
<!-- Node1281&#45;&gt;Node15 -->
<g id="edge20" class="edge">
<title>Node1281&#45;&gt;Node15</title>
<path fill="none" stroke="#63b8ff" d="M226.55,-261.58C245.51,-256.65 268.49,-250.66 288.01,-245.57"/>
<polygon fill="#63b8ff" stroke="#63b8ff" points="288.8,-248.98 297.59,-243.07 287.03,-242.21 288.8,-248.98"/>
</g>
</g>
</svg>
