<?xml version="1.0" encoding="UTF-8" standalone="no"?>
<!DOCTYPE svg PUBLIC "-//W3C//DTD SVG 1.1//EN"
 "http://www.w3.org/Graphics/SVG/1.1/DTD/svg11.dtd">
<!-- Generated by graphviz version 2.40.1 (20161225.0304)
 -->
<!-- Title: mutt_grouplist_add_regex Pages: 1 -->
<svg width="267pt" height="192pt"
 viewBox="0.00 0.00 267.00 191.50" xmlns="http://www.w3.org/2000/svg" xmlns:xlink="http://www.w3.org/1999/xlink">
<g id="graph0" class="graph" transform="scale(1 1) rotate(0) translate(4 187.5)">
<title>mutt_grouplist_add_regex</title>
<polygon fill="#ffffff" stroke="transparent" points="-4,4 -4,-187.5 263,-187.5 263,4 -4,4"/>
<!-- Node48 -->
<g id="node1" class="node">
<title>Node48</title>
<polygon fill="#bfbfbf" stroke="#000000" points="0,-82.5 0,-112.5 111,-112.5 111,-82.5 0,-82.5"/>
<text text-anchor="start" x="8" y="-100.5" font-family="Helvetica,sans-Serif" font-size="10.00" fill="#000000">mutt_grouplist_add</text>
<text text-anchor="middle" x="55.5" y="-89.5" font-family="Helvetica,sans-Serif" font-size="10.00" fill="#000000">_regex</text>
</g>
<!-- Node49 -->
<g id="node2" class="node">
<title>Node49</title>
<g id="a_node2"><a xlink:href="command__parse_8h.html#a2b802266d3a89bc30f84dda0854c54c8" target="_top" xlink:title="Parse the &#39;alternates&#39; command &#45; Implements Command::parse() ">
<polygon fill="#ffffff" stroke="#000000" points="154,-164 154,-183 252,-183 252,-164 154,-164"/>
<text text-anchor="middle" x="203" y="-171" font-family="Helvetica,sans-Serif" font-size="10.00" fill="#000000">parse_alternates</text>
</a>
</g>
</g>
<!-- Node48&#45;&gt;Node49 -->
<g id="edge1" class="edge">
<title>Node48&#45;&gt;Node49</title>
<path fill="none" stroke="#191970" d="M85.1193,-118.3856C102.5673,-130.0596 125.3923,-144.2717 147,-154.5 154.5163,-158.058 162.8826,-161.2665 170.8084,-163.9906"/>
<polygon fill="#191970" stroke="#191970" points="86.7594,-115.2687 76.5202,-112.5468 82.8272,-121.0599 86.7594,-115.2687"/>
</g>
<!-- Node50 -->
<g id="node3" class="node">
<title>Node50</title>
<g id="a_node3"><a xlink:href="command__parse_8h.html#a837b7ba6d366f3151fbe47441ca34cc9" target="_top" xlink:title="Parse the &#39;group&#39; and &#39;ungroup&#39; commands &#45; Implements Command::parse() ">
<polygon fill="#ffffff" stroke="#000000" points="164.5,-126 164.5,-145 241.5,-145 241.5,-126 164.5,-126"/>
<text text-anchor="middle" x="203" y="-133" font-family="Helvetica,sans-Serif" font-size="10.00" fill="#000000">parse_group</text>
</a>
</g>
</g>
<!-- Node48&#45;&gt;Node50 -->
<g id="edge2" class="edge">
<title>Node48&#45;&gt;Node50</title>
<path fill="none" stroke="#191970" d="M121.238,-114.4359C136.5621,-118.3838 152.3531,-122.452 165.9223,-125.9478"/>
<polygon fill="#191970" stroke="#191970" points="121.8204,-110.9717 111.2634,-111.8662 120.074,-117.7504 121.8204,-110.9717"/>
</g>
<!-- Node51 -->
<g id="node4" class="node">
<title>Node51</title>
<g id="a_node4"><a xlink:href="command__parse_8h.html#a89f64a00e7616e86cb8a32502bf51bd2" target="_top" xlink:title="Parse the &#39;lists&#39; command &#45; Implements Command::parse() ">
<polygon fill="#ffffff" stroke="#000000" points="168.5,-88 168.5,-107 237.5,-107 237.5,-88 168.5,-88"/>
<text text-anchor="middle" x="203" y="-95" font-family="Helvetica,sans-Serif" font-size="10.00" fill="#000000">parse_lists</text>
</a>
</g>
</g>
<!-- Node48&#45;&gt;Node51 -->
<g id="edge3" class="edge">
<title>Node48&#45;&gt;Node51</title>
<path fill="none" stroke="#191970" d="M121.6877,-97.5C137.7052,-97.5 154.2035,-97.5 168.1176,-97.5"/>
<polygon fill="#191970" stroke="#191970" points="121.2635,-94.0001 111.2634,-97.5 121.2634,-101.0001 121.2635,-94.0001"/>
</g>
<!-- Node52 -->
<g id="node5" class="node">
<title>Node52</title>
<g id="a_node5"><a xlink:href="command__parse_8h.html#aed640aef855cb08e585f231d4aa5d110" target="_top" xlink:title="Parse the &#39;subscribe&#39; command &#45; Implements Command::parse() ">
<polygon fill="#ffffff" stroke="#000000" points="155.5,-50 155.5,-69 250.5,-69 250.5,-50 155.5,-50"/>
<text text-anchor="middle" x="203" y="-57" font-family="Helvetica,sans-Serif" font-size="10.00" fill="#000000">parse_subscribe</text>
</a>
</g>
</g>
<!-- Node48&#45;&gt;Node52 -->
<g id="edge4" class="edge">
<title>Node48&#45;&gt;Node52</title>
<path fill="none" stroke="#191970" d="M121.238,-80.5641C136.5621,-76.6162 152.3531,-72.548 165.9223,-69.0522"/>
<polygon fill="#191970" stroke="#191970" points="120.074,-77.2496 111.2634,-83.1338 121.8204,-84.0283 120.074,-77.2496"/>
</g>
<!-- Node53 -->
<g id="node6" class="node">
<title>Node53</title>
<g id="a_node6"><a xlink:href="mutt__grouplist__add__regex_8c.html#a944f2869fcdee951b17e8bdc95824850" target="_top" xlink:title="test_mutt_grouplist\l_add_regex">
<polygon fill="#ffffff" stroke="#000000" points="147,-.5 147,-30.5 259,-30.5 259,-.5 147,-.5"/>
<text text-anchor="start" x="155" y="-18.5" font-family="Helvetica,sans-Serif" font-size="10.00" fill="#000000">test_mutt_grouplist</text>
<text text-anchor="middle" x="203" y="-7.5" font-family="Helvetica,sans-Serif" font-size="10.00" fill="#000000">_add_regex</text>
</a>
</g>
</g>
<!-- Node48&#45;&gt;Node53 -->
<g id="edge5" class="edge">
<title>Node48&#45;&gt;Node53</title>
<path fill="none" stroke="#191970" d="M86.5546,-76.6718C103.9782,-65.3661 126.3121,-51.4949 147,-40.5 153.4872,-37.0523 160.5456,-33.6469 167.3961,-30.5115"/>
<polygon fill="#191970" stroke="#191970" points="84.3748,-73.9155 77.9255,-82.3212 88.2091,-79.772 84.3748,-73.9155"/>
</g>
</g>
</svg>
