<?xml version="1.0" encoding="UTF-8" standalone="no"?>
<!DOCTYPE svg PUBLIC "-//W3C//DTD SVG 1.1//EN"
 "http://www.w3.org/Graphics/SVG/1.1/DTD/svg11.dtd">
<!-- Generated by graphviz version 7.1.0 (0)
 -->
<!-- Title: regex_string_set Pages: 1 -->
<svg width="338pt" height="133pt"
 viewBox="0.00 0.00 338.00 133.04" xmlns="http://www.w3.org/2000/svg" xmlns:xlink="http://www.w3.org/1999/xlink">
<g id="graph0" class="graph" transform="scale(1 1) rotate(0) translate(4 129.04)">
<title>regex_string_set</title>
<!-- Node1 -->
<g id="node1" class="node">
<title>Node1</title>
<g id="a_node1"><a xlink:title="Set a Regex by string &#45; Implements ConfigSetType::string_set() &#45;.">
<polygon fill="#999999" stroke="#666666" points="93,-72.02 0,-72.02 0,-53.02 93,-53.02 93,-72.02"/>
<text text-anchor="middle" x="46.5" y="-60.02" font-family="Helvetica,sans-Serif" font-size="10.00">regex_string_set</text>
</a>
</g>
</g>
<!-- Node2 -->
<g id="node2" class="node">
<title>Node2</title>
<g id="a_node2"><a xlink:href="mutt_2string_8c.html#a3fe33d90e4814281cd57de048119c950" target="_top" xlink:title="Copy a string, safely.">
<polygon fill="white" stroke="#666666" points="330,-109.02 251,-109.02 251,-90.02 330,-90.02 330,-109.02"/>
<text text-anchor="middle" x="290.5" y="-97.02" font-family="Helvetica,sans-Serif" font-size="10.00">mutt_str_dup</text>
</a>
</g>
</g>
<!-- Node1&#45;&gt;Node2 -->
<g id="edge1" class="edge">
<title>Node1&#45;&gt;Node2</title>
<path fill="none" stroke="#63b8ff" d="M57.46,-72.42C71.81,-85.93 99.82,-109.46 129,-118.52 169.51,-131.1 218.15,-122.19 251.18,-112.79"/>
<polygon fill="#63b8ff" stroke="#63b8ff" points="252.16,-116.15 260.73,-109.92 250.15,-109.45 252.16,-116.15"/>
</g>
<!-- Node3 -->
<g id="node3" class="node">
<title>Node3</title>
<g id="a_node3"><a xlink:href="mutt_2string_8c.html#a6b6a50296dd2a31863a43379ef4a343d" target="_top" xlink:title="Compare two strings.">
<polygon fill="#fff0f0" stroke="red" points="215,-109.02 129,-109.02 129,-90.02 215,-90.02 215,-109.02"/>
<text text-anchor="middle" x="172" y="-97.02" font-family="Helvetica,sans-Serif" font-size="10.00">mutt_str_equal</text>
</a>
</g>
</g>
<!-- Node1&#45;&gt;Node3 -->
<g id="edge2" class="edge">
<title>Node1&#45;&gt;Node3</title>
<path fill="none" stroke="#63b8ff" d="M80.6,-72.44C94.85,-76.71 111.73,-81.76 127.02,-86.34"/>
<polygon fill="#63b8ff" stroke="#63b8ff" points="125.78,-89.63 136.36,-89.14 127.79,-82.92 125.78,-89.63"/>
</g>
<!-- Node5 -->
<g id="node4" class="node">
<title>Node5</title>
<g id="a_node4"><a xlink:href="group__cfg__type__destroy.html#ga51745ca37912561b82be4b0560686d6c" target="_top" xlink:title="Destroy a Regex object &#45; Implements ConfigSetType::destroy() &#45;.">
<polygon fill="white" stroke="#666666" points="213.5,-35.02 130.5,-35.02 130.5,-16.02 213.5,-16.02 213.5,-35.02"/>
<text text-anchor="middle" x="172" y="-23.02" font-family="Helvetica,sans-Serif" font-size="10.00">regex_destroy</text>
</a>
</g>
</g>
<!-- Node1&#45;&gt;Node5 -->
<g id="edge3" class="edge">
<title>Node1&#45;&gt;Node5</title>
<path fill="none" stroke="#63b8ff" d="M80.6,-52.6C94.85,-48.33 111.73,-43.28 127.02,-38.7"/>
<polygon fill="#63b8ff" stroke="#63b8ff" points="127.79,-42.12 136.36,-35.9 125.78,-35.41 127.79,-42.12"/>
</g>
<!-- Node6 -->
<g id="node5" class="node">
<title>Node6</title>
<g id="a_node5"><a xlink:href="config_2regex_8c.html#aeb6632e5ec38d9ec3dae0e99558cd6cb" target="_top" xlink:title="Free a Regex object.">
<polygon fill="white" stroke="#666666" points="324,-35.02 257,-35.02 257,-16.02 324,-16.02 324,-35.02"/>
<text text-anchor="middle" x="290.5" y="-23.02" font-family="Helvetica,sans-Serif" font-size="10.00">regex_free</text>
</a>
</g>
</g>
<!-- Node1&#45;&gt;Node6 -->
<g id="edge5" class="edge">
<title>Node1&#45;&gt;Node6</title>
<path fill="none" stroke="#63b8ff" d="M57.46,-52.62C71.81,-39.11 99.82,-15.58 129,-6.52 169.51,6.06 218.15,-2.85 251.18,-12.25"/>
<polygon fill="#63b8ff" stroke="#63b8ff" points="250.15,-15.59 260.73,-15.12 252.16,-8.89 250.15,-15.59"/>
</g>
<!-- Node7 -->
<g id="node6" class="node">
<title>Node7</title>
<g id="a_node6"><a xlink:href="config_2regex_8c.html#a2514a6f801b90e662923176d32535b84" target="_top" xlink:title="Create an Regex from a string.">
<polygon fill="#fff0f0" stroke="red" points="205,-72.02 139,-72.02 139,-53.02 205,-53.02 205,-72.02"/>
<text text-anchor="middle" x="172" y="-60.02" font-family="Helvetica,sans-Serif" font-size="10.00">regex_new</text>
</a>
</g>
</g>
<!-- Node1&#45;&gt;Node7 -->
<g id="edge6" class="edge">
<title>Node1&#45;&gt;Node7</title>
<path fill="none" stroke="#63b8ff" d="M93.49,-62.52C104.57,-62.52 116.37,-62.52 127.34,-62.52"/>
<polygon fill="#63b8ff" stroke="#63b8ff" points="127.33,-66.02 137.33,-62.52 127.33,-59.02 127.33,-66.02"/>
</g>
<!-- Node5&#45;&gt;Node6 -->
<g id="edge4" class="edge">
<title>Node5&#45;&gt;Node6</title>
<path fill="none" stroke="#63b8ff" d="M213.75,-25.52C223.95,-25.52 234.94,-25.52 245.3,-25.52"/>
<polygon fill="#63b8ff" stroke="#63b8ff" points="245.14,-29.02 255.14,-25.52 245.14,-22.02 245.14,-29.02"/>
</g>
<!-- Node7&#45;&gt;Node2 -->
<g id="edge7" class="edge">
<title>Node7&#45;&gt;Node2</title>
<path fill="none" stroke="#63b8ff" d="M204.22,-72.44C217.54,-76.67 233.28,-81.67 247.59,-86.21"/>
<polygon fill="#63b8ff" stroke="#63b8ff" points="246.16,-89.43 256.75,-89.12 248.28,-82.76 246.16,-89.43"/>
</g>
<!-- Node7&#45;&gt;Node6 -->
<g id="edge8" class="edge">
<title>Node7&#45;&gt;Node6</title>
<path fill="none" stroke="#63b8ff" d="M204.22,-52.6C217.54,-48.37 233.28,-43.37 247.59,-38.83"/>
<polygon fill="#63b8ff" stroke="#63b8ff" points="248.28,-42.28 256.75,-35.92 246.16,-35.61 248.28,-42.28"/>
</g>
</g>
</svg>
