<?xml version="1.0" encoding="UTF-8" standalone="no"?>
<!DOCTYPE svg PUBLIC "-//W3C//DTD SVG 1.1//EN"
 "http://www.w3.org/Graphics/SVG/1.1/DTD/svg11.dtd">
<!-- Generated by graphviz version 12.2.1 (20241206.2353)
 -->
<!-- Title: parse_my_hdr Pages: 1 -->
<svg width="336pt" height="312pt"
 viewBox="0.00 0.00 335.75 311.86" xmlns="http://www.w3.org/2000/svg" xmlns:xlink="http://www.w3.org/1999/xlink">
<g id="graph0" class="graph" transform="scale(1 1) rotate(0) translate(4 307.86)">
<title>parse_my_hdr</title>
<!-- Node1 -->
<g id="Node000001" class="node">
<title>Node1</title>
<g id="a_Node000001"><a xlink:title="Parse the &#39;my_hdr&#39; command &#45; Implements Command::parse() &#45;.">
<polygon fill="#999999" stroke="#666666" points="82,-147.86 0,-147.86 0,-125.61 82,-125.61 82,-147.86"/>
<text text-anchor="middle" x="41" y="-134.36" font-family="Helvetica,sans-Serif" font-size="10.00">parse_my_hdr</text>
</a>
</g>
</g>
<!-- Node2 -->
<g id="Node000002" class="node">
<title>Node2</title>
<g id="a_Node000002"><a xlink:href="buffer_8c.html#a02123807d31181ac701b566226e93b33" target="_top" xlink:title="Format a string overwriting a Buffer.">
<polygon fill="#fff0f0" stroke="red" points="204.12,-303.86 141.62,-303.86 141.62,-281.61 204.12,-281.61 204.12,-303.86"/>
<text text-anchor="middle" x="172.88" y="-290.36" font-family="Helvetica,sans-Serif" font-size="10.00">buf_printf</text>
</a>
</g>
</g>
<!-- Node1&#45;&gt;Node2 -->
<g id="edge1_Node000001_Node000002" class="edge">
<title>Node1&#45;&gt;Node2</title>
<g id="a_edge1_Node000001_Node000002"><a xlink:title=" ">
<path fill="none" stroke="#63b8ff" d="M45.88,-148.08C54.87,-172.87 79.35,-232.46 118,-267.74 121.98,-271.37 126.58,-274.56 131.38,-277.34"/>
<polygon fill="#63b8ff" stroke="#63b8ff" points="129.54,-280.33 140.03,-281.78 132.74,-274.1 129.54,-280.33"/>
</a>
</g>
</g>
<!-- Node8 -->
<g id="Node000008" class="node">
<title>Node8</title>
<g id="a_Node000008"><a xlink:href="buffer_8c.html#ac958acbd189e463a2c3bbc2f23aaeb1e" target="_top" xlink:title="Copy a string into a Buffer.">
<polygon fill="#fff0f0" stroke="red" points="327.75,-235.86 263.75,-235.86 263.75,-213.61 327.75,-213.61 327.75,-235.86"/>
<text text-anchor="middle" x="295.75" y="-222.36" font-family="Helvetica,sans-Serif" font-size="10.00">buf_strcpy</text>
</a>
</g>
</g>
<!-- Node1&#45;&gt;Node8 -->
<g id="edge2_Node000001_Node000008" class="edge">
<title>Node1&#45;&gt;Node8</title>
<g id="a_edge2_Node000001_Node000008"><a xlink:title=" ">
<path fill="none" stroke="#63b8ff" d="M46.76,-148.3C56.44,-170.04 80.68,-216.45 118,-234.74 160.27,-255.45 215.23,-247.8 252.56,-238.31"/>
<polygon fill="#63b8ff" stroke="#63b8ff" points="253.35,-241.72 262.08,-235.73 251.52,-234.97 253.35,-241.72"/>
</a>
</g>
</g>
<!-- Node12 -->
<g id="Node000012" class="node">
<title>Node12</title>
<g id="a_Node000012"><a xlink:href="buffer_8h.html#a728ebc5a947b77c8d56db44ce553a7ab" target="_top" xlink:title="Convert a buffer to a const char * &quot;string&quot;.">
<polygon fill="white" stroke="#666666" points="327.38,-107.86 264.12,-107.86 264.12,-85.61 327.38,-85.61 327.38,-107.86"/>
<text text-anchor="middle" x="295.75" y="-94.36" font-family="Helvetica,sans-Serif" font-size="10.00">buf_string</text>
</a>
</g>
</g>
<!-- Node1&#45;&gt;Node12 -->
<g id="edge3_Node000001_Node000012" class="edge">
<title>Node1&#45;&gt;Node12</title>
<g id="a_edge3_Node000001_Node000012"><a xlink:title=" ">
<path fill="none" stroke="#63b8ff" d="M45.12,-125.44C52.71,-100.38 74.79,-40.52 118,-16.74 160.73,6.78 183.55,3.9 227.75,-16.74 253.39,-28.71 272.69,-55.86 283.83,-75.2"/>
<polygon fill="#63b8ff" stroke="#63b8ff" points="280.73,-76.82 288.59,-83.93 286.88,-73.48 280.73,-76.82"/>
</a>
</g>
</g>
<!-- Node13 -->
<g id="Node000013" class="node">
<title>Node13</title>
<g id="a_Node000013"><a xlink:href="email_2email_8c.html#ad388addf64f1fc80598dd8cf70307ef9" target="_top" xlink:title="Add a header to a list.">
<polygon fill="#fff0f0" stroke="red" points="208.62,-167.86 137.12,-167.86 137.12,-145.61 208.62,-145.61 208.62,-167.86"/>
<text text-anchor="middle" x="172.88" y="-154.36" font-family="Helvetica,sans-Serif" font-size="10.00">header_add</text>
</a>
</g>
</g>
<!-- Node1&#45;&gt;Node13 -->
<g id="edge5_Node000001_Node000013" class="edge">
<title>Node1&#45;&gt;Node13</title>
<g id="a_edge5_Node000001_Node000013"><a xlink:title=" ">
<path fill="none" stroke="#63b8ff" d="M82.38,-142.96C96.13,-145.07 111.6,-147.46 125.76,-149.64"/>
<polygon fill="#63b8ff" stroke="#63b8ff" points="124.87,-153.04 135.29,-151.1 125.94,-146.12 124.87,-153.04"/>
</a>
</g>
</g>
<!-- Node16 -->
<g id="Node000016" class="node">
<title>Node16</title>
<g id="a_Node000016"><a xlink:href="email_2email_8c.html#afe01890a3071413e9cc8e41f159720ad" target="_top" xlink:title="Find a header, matching on its field, in a list of headers.">
<polygon fill="#fff0f0" stroke="red" points="209,-127.86 136.75,-127.86 136.75,-105.61 209,-105.61 209,-127.86"/>
<text text-anchor="middle" x="172.88" y="-114.36" font-family="Helvetica,sans-Serif" font-size="10.00">header_find</text>
</a>
</g>
</g>
<!-- Node1&#45;&gt;Node16 -->
<g id="edge6_Node000001_Node000016" class="edge">
<title>Node1&#45;&gt;Node16</title>
<g id="a_edge6_Node000001_Node000016"><a xlink:title=" ">
<path fill="none" stroke="#63b8ff" d="M82.38,-130.52C95.88,-128.44 111.03,-126.11 124.98,-123.96"/>
<polygon fill="#63b8ff" stroke="#63b8ff" points="125.51,-127.42 134.86,-122.44 124.44,-120.5 125.51,-127.42"/>
</a>
</g>
</g>
<!-- Node18 -->
<g id="Node000018" class="node">
<title>Node18</title>
<g id="a_Node000018"><a xlink:href="email_2email_8c.html#ae587d1b64d09838f9344c68cb808bb2c" target="_top" xlink:title="Update an existing header.">
<polygon fill="#fff0f0" stroke="red" points="216.5,-87.86 129.25,-87.86 129.25,-65.61 216.5,-65.61 216.5,-87.86"/>
<text text-anchor="middle" x="172.88" y="-74.36" font-family="Helvetica,sans-Serif" font-size="10.00">header_update</text>
</a>
</g>
</g>
<!-- Node1&#45;&gt;Node18 -->
<g id="edge7_Node000001_Node000018" class="edge">
<title>Node1&#45;&gt;Node18</title>
<g id="a_edge7_Node000001_Node000018"><a xlink:title=" ">
<path fill="none" stroke="#63b8ff" d="M62.29,-125.14C77.4,-116.73 98.67,-105.37 118,-96.74 121.18,-95.32 124.49,-93.92 127.84,-92.55"/>
<polygon fill="#63b8ff" stroke="#63b8ff" points="129.12,-95.81 137.14,-88.9 126.56,-89.29 129.12,-95.81"/>
</a>
</g>
</g>
<!-- Node19 -->
<g id="Node000019" class="node">
<title>Node19</title>
<g id="a_Node000019"><a xlink:href="mutt_2notify_8c.html#ade2f42f8e0d8a843e87816300799a8e1" target="_top" xlink:title="Send out a notification message.">
<polygon fill="#fff0f0" stroke="red" points="207.88,-47.86 137.88,-47.86 137.88,-25.61 207.88,-25.61 207.88,-47.86"/>
<text text-anchor="middle" x="172.88" y="-34.36" font-family="Helvetica,sans-Serif" font-size="10.00">notify_send</text>
</a>
</g>
</g>
<!-- Node1&#45;&gt;Node19 -->
<g id="edge8_Node000001_Node000019" class="edge">
<title>Node1&#45;&gt;Node19</title>
<g id="a_edge8_Node000001_Node000019"><a xlink:title=" ">
<path fill="none" stroke="#63b8ff" d="M50.08,-125.36C62.76,-108.27 88.9,-75.94 118,-56.74 120.86,-54.85 123.93,-53.11 127.09,-51.5"/>
<polygon fill="#63b8ff" stroke="#63b8ff" points="128.34,-54.78 136.02,-47.49 125.46,-48.4 128.34,-54.78"/>
</a>
</g>
</g>
<!-- Node21 -->
<g id="Node000021" class="node">
<title>Node21</title>
<g id="a_Node000021"><a xlink:href="extract_8c.html#aabf9d6ea465d5c12bfa99c6b3d8dcf94" target="_top" xlink:title="Extract one token from a string.">
<polygon fill="#fff0f0" stroke="red" points="227.75,-207.86 118,-207.86 118,-185.61 227.75,-185.61 227.75,-207.86"/>
<text text-anchor="middle" x="172.88" y="-194.36" font-family="Helvetica,sans-Serif" font-size="10.00">parse_extract_token</text>
</a>
</g>
</g>
<!-- Node1&#45;&gt;Node21 -->
<g id="edge9_Node000001_Node000021" class="edge">
<title>Node1&#45;&gt;Node21</title>
<g id="a_edge9_Node000001_Node000021"><a xlink:title=" ">
<path fill="none" stroke="#63b8ff" d="M62.29,-148.33C77.4,-156.74 98.67,-168.11 118,-176.74 121.18,-178.16 124.49,-179.56 127.84,-180.93"/>
<polygon fill="#63b8ff" stroke="#63b8ff" points="126.56,-184.18 137.14,-184.58 129.12,-177.67 126.56,-184.18"/>
</a>
</g>
</g>
<!-- Node12&#45;&gt;Node12 -->
<g id="edge4_Node000012_Node000012" class="edge">
<title>Node12&#45;&gt;Node12</title>
<g id="a_edge4_Node000012_Node000012"><a xlink:title=" ">
<path fill="none" stroke="#63b8ff" d="M275.69,-108.1C268.18,-116.89 274.87,-125.86 295.75,-125.86 307.17,-125.86 314.34,-123.18 317.27,-119.31"/>
<polygon fill="#63b8ff" stroke="#63b8ff" points="320.77,-119.06 316.01,-109.6 313.83,-119.97 320.77,-119.06"/>
</a>
</g>
</g>
<!-- Node21&#45;&gt;Node8 -->
<g id="edge10_Node000021_Node000008" class="edge">
<title>Node21&#45;&gt;Node8</title>
<g id="a_edge10_Node000021_Node000008"><a xlink:title=" ">
<path fill="none" stroke="#63b8ff" d="M223.74,-208.29C233.26,-210.49 243.15,-212.78 252.41,-214.93"/>
<polygon fill="#63b8ff" stroke="#63b8ff" points="251.32,-218.27 261.85,-217.12 252.9,-211.45 251.32,-218.27"/>
</a>
</g>
</g>
<!-- Node21&#45;&gt;Node12 -->
<g id="edge11_Node000021_Node000012" class="edge">
<title>Node21&#45;&gt;Node12</title>
<g id="a_edge11_Node000021_Node000012"><a xlink:title=" ">
<path fill="none" stroke="#63b8ff" d="M212.5,-185.21C217.86,-182.83 223.1,-180.02 227.75,-176.74 250.27,-160.85 269.69,-135.59 281.73,-117.71"/>
<polygon fill="#63b8ff" stroke="#63b8ff" points="284.6,-119.72 287.12,-109.43 278.73,-115.9 284.6,-119.72"/>
</a>
</g>
</g>
<!-- Node21&#45;&gt;Node21 -->
<g id="edge12_Node000021_Node000021" class="edge">
<title>Node21&#45;&gt;Node21</title>
<g id="a_edge12_Node000021_Node000021"><a xlink:title=" ">
<path fill="none" stroke="#63b8ff" d="M152.81,-208.1C145.31,-216.89 152,-225.86 172.88,-225.86 184.29,-225.86 191.47,-223.18 194.4,-219.31"/>
<polygon fill="#63b8ff" stroke="#63b8ff" points="197.89,-219.06 193.13,-209.6 190.95,-219.97 197.89,-219.06"/>
</a>
</g>
</g>
</g>
</svg>
