<?xml version="1.0" encoding="UTF-8" standalone="no"?>
<!DOCTYPE svg PUBLIC "-//W3C//DTD SVG 1.1//EN"
 "http://www.w3.org/Graphics/SVG/1.1/DTD/svg11.dtd">
<!-- Generated by graphviz version 7.1.0 (0)
 -->
<!-- Title: pgp_entry_pgp_f Pages: 1 -->
<svg width="202pt" height="64pt"
 viewBox="0.00 0.00 202.00 64.00" xmlns="http://www.w3.org/2000/svg" xmlns:xlink="http://www.w3.org/1999/xlink">
<g id="graph0" class="graph" transform="scale(1 1) rotate(0) translate(4 60)">
<title>pgp_entry_pgp_f</title>
<!-- Node1 -->
<g id="node1" class="node">
<title>Node1</title>
<g id="a_node1"><a xlink:title="PGP: Key Flags &#45; Implements ExpandoRenderData::get_string() &#45;.">
<polygon fill="#999999" stroke="#666666" points="95,-37 0,-37 0,-18 95,-18 95,-37"/>
<text text-anchor="middle" x="47.5" y="-25" font-family="Helvetica,sans-Serif" font-size="10.00">pgp_entry_pgp_f</text>
</a>
</g>
</g>
<!-- Node2 -->
<g id="node2" class="node">
<title>Node2</title>
<g id="a_node2"><a xlink:href="buffer_8c.html#a02123807d31181ac701b566226e93b33" target="_top" xlink:title="Format a string overwriting a Buffer.">
<polygon fill="#fff0f0" stroke="red" points="194,-56 131,-56 131,-37 194,-37 194,-56"/>
<text text-anchor="middle" x="162.5" y="-44" font-family="Helvetica,sans-Serif" font-size="10.00">buf_printf</text>
</a>
</g>
</g>
<!-- Node1&#45;&gt;Node2 -->
<g id="edge1" class="edge">
<title>Node1&#45;&gt;Node2</title>
<path fill="none" stroke="#63b8ff" d="M95.44,-35.39C103.43,-36.74 111.67,-38.12 119.52,-39.44"/>
<polygon fill="#63b8ff" stroke="#63b8ff" points="118.72,-42.86 129.16,-41.06 119.88,-35.95 118.72,-42.86"/>
</g>
<!-- Node14 -->
<g id="node3" class="node">
<title>Node14</title>
<g id="a_node3"><a xlink:href="dlg__pgp_8c.html#a9cb50994cfe04867f6684f506930dff3" target="_top" xlink:title="Turn PGP key flags into a string.">
<polygon fill="white" stroke="#666666" points="193,-19 132,-19 132,0 193,0 193,-19"/>
<text text-anchor="middle" x="162.5" y="-7" font-family="Helvetica,sans-Serif" font-size="10.00">pgp_flags</text>
</a>
</g>
</g>
<!-- Node1&#45;&gt;Node14 -->
<g id="edge2" class="edge">
<title>Node1&#45;&gt;Node14</title>
<path fill="none" stroke="#63b8ff" d="M95.44,-20.02C103.77,-18.7 112.38,-17.32 120.52,-16.03"/>
<polygon fill="#63b8ff" stroke="#63b8ff" points="120.83,-19.52 130.15,-14.49 119.72,-12.61 120.83,-19.52"/>
</g>
</g>
</svg>
