<?xml version="1.0" encoding="UTF-8" standalone="no"?>
<!DOCTYPE svg PUBLIC "-//W3C//DTD SVG 1.1//EN"
 "http://www.w3.org/Graphics/SVG/1.1/DTD/svg11.dtd">
<!-- Generated by graphviz version 12.2.1 (20241206.2353)
 -->
<!-- Title: dlg_attachment Pages: 1 -->
<svg width="453pt" height="998pt"
 viewBox="0.00 0.00 452.75 997.83" xmlns="http://www.w3.org/2000/svg" xmlns:xlink="http://www.w3.org/1999/xlink">
<g id="graph0" class="graph" transform="scale(1 1) rotate(0) translate(4 993.83)">
<title>dlg_attachment</title>
<!-- Node1 -->
<g id="Node000001" class="node">
<title>Node1</title>
<g id="a_Node000001"><a xlink:title="Show the attachments in a Menu &#45;.">
<polygon fill="#999999" stroke="#666666" points="88,-498.25 0,-498.25 0,-476 88,-476 88,-498.25"/>
<text text-anchor="middle" x="44" y="-484.75" font-family="Helvetica,sans-Serif" font-size="10.00">dlg_attachment</text>
</a>
</g>
</g>
<!-- Node2 -->
<g id="Node000002" class="node">
<title>Node2</title>
<g id="a_Node000002"><a xlink:href="group__observer__api.html#gaa0ad017a4e5e0e4a4c07d05319719fd4" target="_top" xlink:title="Notification that a Config Variable has changed &#45; Implements observer_t &#45;.">
<polygon fill="#fff0f0" stroke="red" points="444.75,-862.25 320,-862.25 320,-840 444.75,-840 444.75,-862.25"/>
<text text-anchor="middle" x="382.38" y="-848.75" font-family="Helvetica,sans-Serif" font-size="10.00">attach_config_observer</text>
</a>
</g>
</g>
<!-- Node1&#45;&gt;Node2 -->
<g id="edge1_Node000001_Node000002" class="edge">
<title>Node1&#45;&gt;Node2</title>
<g id="a_edge1_Node000001_Node000002"><a xlink:title=" ">
<path fill="none" stroke="#63b8ff" d="M45.01,-498.45C45.34,-564.47 50.64,-898.98 124,-961.12 178.26,-1007.09 219.16,-990.32 284,-961.12 324.27,-942.99 354.61,-899.07 370.03,-872.54"/>
<polygon fill="#63b8ff" stroke="#63b8ff" points="372.98,-874.43 374.8,-863.99 366.87,-871.02 372.98,-874.43"/>
</a>
</g>
</g>
<!-- Node6 -->
<g id="Node000006" class="node">
<title>Node6</title>
<g id="a_Node000006"><a xlink:href="group__dispatcher__api.html#ga539d9c120b47828fd817a448232d3ac5" target="_top" xlink:title="Perform a Attach function &#45; Implements function_dispatcher_t &#45;.">
<polygon fill="#fff0f0" stroke="red" points="274.25,-952.25 133.75,-952.25 133.75,-930 274.25,-930 274.25,-952.25"/>
<text text-anchor="middle" x="204" y="-938.75" font-family="Helvetica,sans-Serif" font-size="10.00">attach_function_dispatcher</text>
</a>
</g>
</g>
<!-- Node1&#45;&gt;Node6 -->
<g id="edge2_Node000001_Node000006" class="edge">
<title>Node1&#45;&gt;Node6</title>
<g id="a_edge2_Node000001_Node000006"><a xlink:title=" ">
<path fill="none" stroke="#63b8ff" d="M45.45,-498.45C48.16,-560.33 64.13,-857.05 124,-921.12 124.48,-921.64 124.98,-922.15 125.48,-922.64"/>
<polygon fill="#63b8ff" stroke="#63b8ff" points="123.24,-925.33 133.29,-928.66 127.51,-919.78 123.24,-925.33"/>
</a>
</g>
</g>
<!-- Node8 -->
<g id="Node000008" class="node">
<title>Node8</title>
<g id="a_Node000008"><a xlink:href="group__menu__make__entry.html#gab81d49cdf17c766adcf02d351c778dd2" target="_top" xlink:title="Format an Attachment for the Menu &#45; Implements Menu::make_entry() &#45;.">
<polygon fill="#fff0f0" stroke="red" points="256.25,-912.25 151.75,-912.25 151.75,-890 256.25,-890 256.25,-912.25"/>
<text text-anchor="middle" x="204" y="-898.75" font-family="Helvetica,sans-Serif" font-size="10.00">attach_make_entry</text>
</a>
</g>
</g>
<!-- Node1&#45;&gt;Node8 -->
<g id="edge3_Node000001_Node000008" class="edge">
<title>Node1&#45;&gt;Node8</title>
<g id="a_edge3_Node000001_Node000008"><a xlink:title=" ">
<path fill="none" stroke="#63b8ff" d="M45.69,-498.55C49.43,-557.17 69.31,-823.62 124,-881.12 128.68,-886.05 134.39,-889.83 140.58,-892.72"/>
<polygon fill="#63b8ff" stroke="#63b8ff" points="139.33,-895.99 149.92,-896.26 141.81,-889.45 139.33,-895.99"/>
</a>
</g>
</g>
<!-- Node52 -->
<g id="Node000052" class="node">
<title>Node52</title>
<g id="a_Node000052"><a xlink:href="group__menu__mdata__free.html#gac0aca6325c8ed461694dedcc92407777" target="_top" xlink:title="Free the Attach Data &#45; Implements Menu::mdata_free() &#45;.">
<polygon fill="white" stroke="#666666" points="269.38,-872.25 138.62,-872.25 138.62,-850 269.38,-850 269.38,-872.25"/>
<text text-anchor="middle" x="204" y="-858.75" font-family="Helvetica,sans-Serif" font-size="10.00">attach_private_data_free</text>
</a>
</g>
</g>
<!-- Node1&#45;&gt;Node52 -->
<g id="edge4_Node000001_Node000052" class="edge">
<title>Node1&#45;&gt;Node52</title>
<g id="a_edge4_Node000001_Node000052"><a xlink:title=" ">
<path fill="none" stroke="#63b8ff" d="M45.96,-498.47C50.81,-553.27 74.4,-790.1 124,-841.12 125.55,-842.72 127.21,-844.2 128.96,-845.56"/>
<polygon fill="#63b8ff" stroke="#63b8ff" points="126.76,-848.31 137.08,-850.69 130.49,-842.39 126.76,-848.31"/>
</a>
</g>
</g>
<!-- Node53 -->
<g id="Node000053" class="node">
<title>Node53</title>
<g id="a_Node000053"><a xlink:href="attach_2private__data_8c.html#a5026c86ffb7a2fd59e011f3b3462b381" target="_top" xlink:title="Create new Attach Data.">
<polygon fill="white" stroke="#666666" points="269,-832.25 139,-832.25 139,-810 269,-810 269,-832.25"/>
<text text-anchor="middle" x="204" y="-818.75" font-family="Helvetica,sans-Serif" font-size="10.00">attach_private_data_new</text>
</a>
</g>
</g>
<!-- Node1&#45;&gt;Node53 -->
<g id="edge5_Node000001_Node000053" class="edge">
<title>Node1&#45;&gt;Node53</title>
<g id="a_edge5_Node000001_Node000053"><a xlink:title=" ">
<path fill="none" stroke="#63b8ff" d="M46.31,-498.53C52.39,-549.58 79.51,-756.57 124,-801.12 125.61,-802.74 127.33,-804.23 129.15,-805.61"/>
<polygon fill="#63b8ff" stroke="#63b8ff" points="127.22,-808.53 137.58,-810.78 130.88,-802.56 127.22,-808.53"/>
</a>
</g>
</g>
<!-- Node54 -->
<g id="Node000054" class="node">
<title>Node54</title>
<g id="a_Node000054"><a xlink:href="group__menu__tag.html#gacff66a710677c3332c467f57f59074b8" target="_top" xlink:title="Tag an attachment &#45; Implements Menu::tag() &#45;.">
<polygon fill="white" stroke="#666666" points="236,-792.25 172,-792.25 172,-770 236,-770 236,-792.25"/>
<text text-anchor="middle" x="204" y="-778.75" font-family="Helvetica,sans-Serif" font-size="10.00">attach_tag</text>
</a>
</g>
</g>
<!-- Node1&#45;&gt;Node54 -->
<g id="edge6_Node000001_Node000054" class="edge">
<title>Node1&#45;&gt;Node54</title>
<g id="a_edge6_Node000001_Node000054"><a xlink:title=" ">
<path fill="none" stroke="#63b8ff" d="M44.58,-498.48C43.69,-540.15 46.45,-686.07 124,-761.12 133.75,-770.56 147.28,-775.73 160.4,-778.51"/>
<polygon fill="#63b8ff" stroke="#63b8ff" points="159.77,-781.96 170.21,-780.14 160.92,-775.05 159.77,-781.96"/>
</a>
</g>
</g>
<!-- Node55 -->
<g id="Node000055" class="node">
<title>Node55</title>
<g id="a_Node000055"><a xlink:href="group__observer__api.html#gaf03da6c6d8a55ac381f26505a9414b4f" target="_top" xlink:title="Notification that a Window has changed &#45; Implements observer_t &#45;.">
<polygon fill="#fff0f0" stroke="red" points="269.75,-734.25 138.25,-734.25 138.25,-712 269.75,-712 269.75,-734.25"/>
<text text-anchor="middle" x="204" y="-720.75" font-family="Helvetica,sans-Serif" font-size="10.00">attach_window_observer</text>
</a>
</g>
</g>
<!-- Node1&#45;&gt;Node55 -->
<g id="edge7_Node000001_Node000055" class="edge">
<title>Node1&#45;&gt;Node55</title>
<g id="a_edge7_Node000001_Node000055"><a xlink:title=" ">
<path fill="none" stroke="#63b8ff" d="M45.59,-498.54C48.1,-534.45 60.85,-646.15 124,-703.12 125.28,-704.28 126.62,-705.37 128,-706.4"/>
<polygon fill="#63b8ff" stroke="#63b8ff" points="126.12,-709.35 136.48,-711.56 129.76,-703.37 126.12,-709.35"/>
</a>
</g>
</g>
<!-- Node57 -->
<g id="Node000057" class="node">
<title>Node57</title>
<g id="a_Node000057"><a xlink:href="group__dispatcher__api.html#gac7fdd018d82bde8b5b89be1f2af9a74e" target="_top" xlink:title="Perform a Global function &#45; Implements function_dispatcher_t &#45;.">
<polygon fill="#fff0f0" stroke="red" points="273.88,-694.25 134.12,-694.25 134.12,-672 273.88,-672 273.88,-694.25"/>
<text text-anchor="middle" x="204" y="-680.75" font-family="Helvetica,sans-Serif" font-size="10.00">global_function_dispatcher</text>
</a>
</g>
</g>
<!-- Node1&#45;&gt;Node57 -->
<g id="edge10_Node000001_Node000057" class="edge">
<title>Node1&#45;&gt;Node57</title>
<g id="a_edge10_Node000001_Node000057"><a xlink:title=" ">
<path fill="none" stroke="#63b8ff" d="M46.99,-498.6C52.9,-529.19 73.21,-613.37 124,-658.12 127.74,-661.42 131.92,-664.29 136.35,-666.77"/>
<polygon fill="#63b8ff" stroke="#63b8ff" points="134.49,-669.76 145.01,-670.97 137.54,-663.46 134.49,-669.76"/>
</a>
</g>
</g>
<!-- Node60 -->
<g id="Node000060" class="node">
<title>Node60</title>
<g id="a_Node000060"><a xlink:href="opcodes_8c.html#ae0f924b381cbef15a0aa71993b74215d" target="_top" xlink:title="Get the name of an opcode.">
<polygon fill="white" stroke="#666666" points="435.38,-627.25 329.38,-627.25 329.38,-605 435.38,-605 435.38,-627.25"/>
<text text-anchor="middle" x="382.38" y="-613.75" font-family="Helvetica,sans-Serif" font-size="10.00">opcodes_get_name</text>
</a>
</g>
</g>
<!-- Node1&#45;&gt;Node60 -->
<g id="edge25_Node000001_Node000060" class="edge">
<title>Node1&#45;&gt;Node60</title>
<g id="a_edge25_Node000001_Node000060"><a xlink:title=" ">
<path fill="none" stroke="#63b8ff" d="M47.42,-498.4C54.04,-526.02 75.28,-596.88 124,-625.12 190.44,-663.65 283.61,-646.42 337.71,-630.91"/>
<polygon fill="#63b8ff" stroke="#63b8ff" points="338.61,-634.3 347.19,-628.09 336.61,-627.59 338.61,-634.3"/>
</a>
</g>
</g>
<!-- Node61 -->
<g id="Node000061" class="node">
<title>Node61</title>
<g id="a_Node000061"><a xlink:href="get_8c.html#a1e1a8ca8690173df7c4bac4f01f29b52" target="_top" xlink:title="Determine what a keypress should do.">
<polygon fill="#fff0f0" stroke="red" points="235.25,-598.25 172.75,-598.25 172.75,-576 235.25,-576 235.25,-598.25"/>
<text text-anchor="middle" x="204" y="-584.75" font-family="Helvetica,sans-Serif" font-size="10.00">km_dokey</text>
</a>
</g>
</g>
<!-- Node1&#45;&gt;Node61 -->
<g id="edge12_Node000001_Node000061" class="edge">
<title>Node1&#45;&gt;Node61</title>
<g id="a_edge12_Node000001_Node000061"><a xlink:title=" ">
<path fill="none" stroke="#63b8ff" d="M53.05,-498.6C65.95,-516.13 93,-549.38 124,-567.12 135.28,-573.58 148.64,-577.98 161.13,-580.97"/>
<polygon fill="#63b8ff" stroke="#63b8ff" points="160.29,-584.36 170.8,-583.01 161.74,-577.52 160.29,-584.36"/>
</a>
</g>
</g>
<!-- Node170 -->
<g id="Node000170" class="node">
<title>Node170</title>
<g id="a_Node000170"><a xlink:href="get_8c.html#aeefc0780aa0cc9f81c8a257cab4f0979" target="_top" xlink:title="Handle an unbound key sequence.">
<polygon fill="#fff0f0" stroke="red" points="243.88,-558.25 164.12,-558.25 164.12,-536 243.88,-536 243.88,-558.25"/>
<text text-anchor="middle" x="204" y="-544.75" font-family="Helvetica,sans-Serif" font-size="10.00">km_error_key</text>
</a>
</g>
</g>
<!-- Node1&#45;&gt;Node170 -->
<g id="edge15_Node000001_Node000170" class="edge">
<title>Node1&#45;&gt;Node170</title>
<g id="a_edge15_Node000001_Node000170"><a xlink:title=" ">
<path fill="none" stroke="#63b8ff" d="M64.58,-498.57C80.24,-507.35 102.98,-519.25 124,-527.12 133.14,-530.55 143.1,-533.58 152.76,-536.18"/>
<polygon fill="#63b8ff" stroke="#63b8ff" points="151.88,-539.57 162.44,-538.66 153.62,-532.79 151.88,-539.57"/>
</a>
</g>
</g>
<!-- Node175 -->
<g id="Node000175" class="node">
<title>Node175</title>
<g id="a_Node000175"><a xlink:href="group__dispatcher__api.html#gad454afae4ce796a49a888da9d0fe6a2b" target="_top" xlink:title="Perform a Menu function &#45; Implements function_dispatcher_t &#45;.">
<polygon fill="#fff0f0" stroke="red" points="273.5,-518.25 134.5,-518.25 134.5,-496 273.5,-496 273.5,-518.25"/>
<text text-anchor="middle" x="204" y="-504.75" font-family="Helvetica,sans-Serif" font-size="10.00">menu_function_dispatcher</text>
</a>
</g>
</g>
<!-- Node1&#45;&gt;Node175 -->
<g id="edge16_Node000001_Node000175" class="edge">
<title>Node1&#45;&gt;Node175</title>
<g id="a_edge16_Node000001_Node000175"><a xlink:title=" ">
<path fill="none" stroke="#63b8ff" d="M88.17,-492.59C98.91,-493.95 110.76,-495.45 122.65,-496.95"/>
<polygon fill="#63b8ff" stroke="#63b8ff" points="122.17,-500.42 132.53,-498.2 123.05,-493.48 122.17,-500.42"/>
</a>
</g>
</g>
<!-- Node176 -->
<g id="Node000176" class="node">
<title>Node176</title>
<g id="a_Node000176"><a xlink:href="group__dispatcher__api.html#gaba2973f42737d632b376733a5ab9edec" target="_top" xlink:title="Perform tagging operations on the Menu &#45; Implements function_dispatcher_t &#45;.">
<polygon fill="#fff0f0" stroke="red" points="272,-478.25 136,-478.25 136,-456 272,-456 272,-478.25"/>
<text text-anchor="middle" x="204" y="-464.75" font-family="Helvetica,sans-Serif" font-size="10.00">menu_tagging_dispatcher</text>
</a>
</g>
</g>
<!-- Node1&#45;&gt;Node176 -->
<g id="edge18_Node000001_Node000176" class="edge">
<title>Node1&#45;&gt;Node176</title>
<g id="a_edge18_Node000001_Node000176"><a xlink:title=" ">
<path fill="none" stroke="#63b8ff" d="M88.17,-481.66C99.37,-480.24 111.78,-478.67 124.18,-477.1"/>
<polygon fill="#63b8ff" stroke="#63b8ff" points="124.55,-480.58 134.03,-475.85 123.67,-473.64 124.55,-480.58"/>
</a>
</g>
</g>
<!-- Node192 -->
<g id="Node000192" class="node">
<title>Node192</title>
<g id="a_Node000192"><a xlink:href="attach_2attach_8c.html#a015f0af47b8748f62d757fbf59523532" target="_top" xlink:title="Create a new Attachment Context.">
<polygon fill="white" stroke="#666666" points="246.5,-438.25 161.5,-438.25 161.5,-416 246.5,-416 246.5,-438.25"/>
<text text-anchor="middle" x="204" y="-424.75" font-family="Helvetica,sans-Serif" font-size="10.00">mutt_actx_new</text>
</a>
</g>
</g>
<!-- Node1&#45;&gt;Node192 -->
<g id="edge19_Node000001_Node000192" class="edge">
<title>Node1&#45;&gt;Node192</title>
<g id="a_edge19_Node000001_Node000192"><a xlink:title=" ">
<path fill="none" stroke="#63b8ff" d="M64.58,-475.68C80.24,-466.9 102.98,-455 124,-447.12 132.29,-444.02 141.25,-441.24 150.05,-438.81"/>
<polygon fill="#63b8ff" stroke="#63b8ff" points="150.81,-442.23 159.6,-436.3 149.04,-435.46 150.81,-442.23"/>
</a>
</g>
</g>
<!-- Node90 -->
<g id="Node000090" class="node">
<title>Node90</title>
<g id="a_Node000090"><a xlink:href="mutt__logging_8c.html#af068b3f524a31fad293b2fb61dfc4534" target="_top" xlink:title="Clear the message line (bottom line of screen)">
<polygon fill="#fff0f0" stroke="red" points="251.38,-398.25 156.62,-398.25 156.62,-376 251.38,-376 251.38,-398.25"/>
<text text-anchor="middle" x="204" y="-384.75" font-family="Helvetica,sans-Serif" font-size="10.00">mutt_clear_error</text>
</a>
</g>
</g>
<!-- Node1&#45;&gt;Node90 -->
<g id="edge20_Node000001_Node000090" class="edge">
<title>Node1&#45;&gt;Node90</title>
<g id="a_edge20_Node000001_Node000090"><a xlink:title=" ">
<path fill="none" stroke="#63b8ff" d="M53.05,-475.65C65.95,-458.12 93,-424.87 124,-407.12 130.6,-403.35 137.91,-400.27 145.34,-397.78"/>
<polygon fill="#63b8ff" stroke="#63b8ff" points="146.22,-401.17 154.8,-394.95 144.22,-394.46 146.22,-401.17"/>
</a>
</g>
</g>
<!-- Node193 -->
<g id="Node000193" class="node">
<title>Node193</title>
<g id="a_Node000193"><a xlink:href="run_8c.html#a5559356209e7eb1c262f752660ddc8a1" target="_top" xlink:title="Perform a message hook.">
<polygon fill="#fff0f0" stroke="red" points="260,-358.25 148,-358.25 148,-336 260,-336 260,-358.25"/>
<text text-anchor="middle" x="204" y="-344.75" font-family="Helvetica,sans-Serif" font-size="10.00">mutt_message_hook</text>
</a>
</g>
</g>
<!-- Node1&#45;&gt;Node193 -->
<g id="edge21_Node000001_Node000193" class="edge">
<title>Node1&#45;&gt;Node193</title>
<g id="a_edge21_Node000001_Node000193"><a xlink:title=" ">
<path fill="none" stroke="#63b8ff" d="M49.13,-475.85C58.51,-451.88 83.76,-395.75 124,-367.12 128.07,-364.23 132.51,-361.76 137.15,-359.64"/>
<polygon fill="#63b8ff" stroke="#63b8ff" points="138.12,-363.02 146.15,-356.11 135.56,-356.5 138.12,-363.02"/>
</a>
</g>
</g>
<!-- Node218 -->
<g id="Node000218" class="node">
<title>Node218</title>
<g id="a_Node000218"><a xlink:href="attach_2commands_8c.html#a521686f973cf66e6c60be12cc9659ac3" target="_top" xlink:title="Parse a MIME email.">
<polygon fill="#fff0f0" stroke="red" points="276.88,-318.25 131.12,-318.25 131.12,-296 276.88,-296 276.88,-318.25"/>
<text text-anchor="middle" x="204" y="-304.75" font-family="Helvetica,sans-Serif" font-size="10.00">mutt_parse_mime_message</text>
</a>
</g>
</g>
<!-- Node1&#45;&gt;Node218 -->
<g id="edge22_Node000001_Node000218" class="edge">
<title>Node1&#45;&gt;Node218</title>
<g id="a_edge22_Node000001_Node000218"><a xlink:title=" ">
<path fill="none" stroke="#63b8ff" d="M47.19,-475.79C53.46,-446.4 74.38,-367.26 124,-327.12 125.31,-326.07 126.66,-325.07 128.06,-324.12"/>
<polygon fill="#63b8ff" stroke="#63b8ff" points="129.52,-327.31 136.48,-319.33 126.06,-321.23 129.52,-327.31"/>
</a>
</g>
</g>
<!-- Node1320 -->
<g id="Node001320" class="node">
<title>Node1320</title>
<g id="a_Node001320"><a xlink:href="recvattach_8c.html#a2ebb5a39bf8782104e464889b1d76b92" target="_top" xlink:title="Update the Attachment Menu.">
<polygon fill="#fff0f0" stroke="red" points="284,-278.25 124,-278.25 124,-256 284,-256 284,-278.25"/>
<text text-anchor="middle" x="204" y="-264.75" font-family="Helvetica,sans-Serif" font-size="10.00">mutt_update_recvattach_menu</text>
</a>
</g>
</g>
<!-- Node1&#45;&gt;Node1320 -->
<g id="edge23_Node000001_Node001320" class="edge">
<title>Node1&#45;&gt;Node1320</title>
<g id="a_edge23_Node000001_Node001320"><a xlink:title=" ">
<path fill="none" stroke="#63b8ff" d="M45.98,-475.58C49.54,-441.28 64.85,-339.14 124,-287.12 125.08,-286.18 126.19,-285.28 127.34,-284.42"/>
<polygon fill="#63b8ff" stroke="#63b8ff" points="128.78,-287.64 135.44,-279.4 125.09,-281.69 128.78,-287.64"/>
</a>
</g>
</g>
<!-- Node159 -->
<g id="Node000159" class="node">
<title>Node159</title>
<g id="a_Node000159"><a xlink:href="mutt_2notify_8c.html#a67c25689b9f61f36d922c2b8e21685be" target="_top" xlink:title="Add an observer to an object.">
<polygon fill="white" stroke="#666666" points="438.38,-171.25 326.38,-171.25 326.38,-149 438.38,-149 438.38,-171.25"/>
<text text-anchor="middle" x="382.38" y="-157.75" font-family="Helvetica,sans-Serif" font-size="10.00">notify_observer_add</text>
</a>
</g>
</g>
<!-- Node1&#45;&gt;Node159 -->
<g id="edge24_Node000001_Node000159" class="edge">
<title>Node1&#45;&gt;Node159</title>
<g id="a_edge24_Node000001_Node000159"><a xlink:title=" ">
<path fill="none" stroke="#63b8ff" d="M45.09,-475.54C46.03,-436.84 54.54,-310.93 124,-247.12 177.83,-197.68 215.33,-234.17 284,-209.12 307.7,-200.48 333.13,-187.55 352.05,-177.14"/>
<polygon fill="#63b8ff" stroke="#63b8ff" points="353.5,-180.34 360.52,-172.4 350.08,-174.23 353.5,-180.34"/>
</a>
</g>
</g>
<!-- Node471 -->
<g id="Node000471" class="node">
<title>Node471</title>
<g id="a_Node000471"><a xlink:href="sbar_8c.html#aea83b6013a1be53fcb5ef26b0dc84cd3" target="_top" xlink:title="Set the title for the Simple Bar.">
<polygon fill="#fff0f0" stroke="red" points="242.75,-200.25 165.25,-200.25 165.25,-178 242.75,-178 242.75,-200.25"/>
<text text-anchor="middle" x="204" y="-186.75" font-family="Helvetica,sans-Serif" font-size="10.00">sbar_set_title</text>
</a>
</g>
</g>
<!-- Node1&#45;&gt;Node471 -->
<g id="edge26_Node000001_Node000471" class="edge">
<title>Node1&#45;&gt;Node471</title>
<g id="a_edge26_Node000001_Node000471"><a xlink:title=" ">
<path fill="none" stroke="#63b8ff" d="M44.74,-475.67C44.44,-434.29 49.06,-290.94 124,-214.12 132.06,-205.86 142.83,-200.32 153.82,-196.61"/>
<polygon fill="#63b8ff" stroke="#63b8ff" points="154.68,-200 163.33,-193.89 152.76,-193.27 154.68,-200"/>
</a>
</g>
</g>
<!-- Node472 -->
<g id="Node000472" class="node">
<title>Node472</title>
<g id="a_Node000472"><a xlink:href="gui_2simple_8c.html#a4b8e413b9970200cd75543dd09d38622" target="_top" xlink:title="Destroy a simple index Dialog.">
<polygon fill="#fff0f0" stroke="red" points="255.12,-160.25 152.88,-160.25 152.88,-138 255.12,-138 255.12,-160.25"/>
<text text-anchor="middle" x="204" y="-146.75" font-family="Helvetica,sans-Serif" font-size="10.00">simple_dialog_free</text>
</a>
</g>
</g>
<!-- Node1&#45;&gt;Node472 -->
<g id="edge27_Node000001_Node000472" class="edge">
<title>Node1&#45;&gt;Node472</title>
<g id="a_edge27_Node000001_Node000472"><a xlink:title=" ">
<path fill="none" stroke="#63b8ff" d="M46.29,-475.58C52.28,-423.88 79.05,-214.28 124,-169.12 129.04,-164.06 135.17,-160.21 141.77,-157.3"/>
<polygon fill="#63b8ff" stroke="#63b8ff" points="142.77,-160.66 150.99,-153.98 140.4,-154.08 142.77,-160.66"/>
</a>
</g>
</g>
<!-- Node474 -->
<g id="Node000474" class="node">
<title>Node474</title>
<g id="a_Node000474"><a xlink:href="gui_2simple_8c.html#acafc61cba453ae248152b284c2bb12d8" target="_top" xlink:title="Create a simple index Dialog.">
<polygon fill="#fff0f0" stroke="red" points="254.75,-102.25 153.25,-102.25 153.25,-80 254.75,-80 254.75,-102.25"/>
<text text-anchor="middle" x="204" y="-88.75" font-family="Helvetica,sans-Serif" font-size="10.00">simple_dialog_new</text>
</a>
</g>
</g>
<!-- Node1&#45;&gt;Node474 -->
<g id="edge28_Node000001_Node000474" class="edge">
<title>Node1&#45;&gt;Node474</title>
<g id="a_edge28_Node000001_Node000474"><a xlink:title=" ">
<path fill="none" stroke="#63b8ff" d="M46.16,-475.85C51.97,-421.35 79.35,-185.51 124,-129.12 131.3,-119.9 141.4,-112.79 151.93,-107.34"/>
<polygon fill="#63b8ff" stroke="#63b8ff" points="153.13,-110.65 160.72,-103.26 150.18,-104.3 153.13,-110.65"/>
</a>
</g>
</g>
<!-- Node134 -->
<g id="Node000134" class="node">
<title>Node134</title>
<g id="a_Node000134"><a xlink:href="mutt__window_8c.html#a0af7bfe97dbb8f95d03851ec3fe62553" target="_top" xlink:title="Reflow, recalc and repaint a tree of Windows.">
<polygon fill="#fff0f0" stroke="red" points="248,-62.25 160,-62.25 160,-40 248,-40 248,-62.25"/>
<text text-anchor="middle" x="204" y="-48.75" font-family="Helvetica,sans-Serif" font-size="10.00">window_redraw</text>
</a>
</g>
</g>
<!-- Node1&#45;&gt;Node134 -->
<g id="edge31_Node000001_Node000134" class="edge">
<title>Node1&#45;&gt;Node134</title>
<g id="a_edge31_Node000001_Node000134"><a xlink:title=" ">
<path fill="none" stroke="#63b8ff" d="M45.55,-475.87C48.69,-415.69 66.43,-132.28 124,-71.12 130.69,-64.02 139.52,-59.29 148.84,-56.17"/>
<polygon fill="#63b8ff" stroke="#63b8ff" points="149.69,-59.57 158.44,-53.6 147.88,-52.8 149.69,-59.57"/>
</a>
</g>
</g>
<!-- Node167 -->
<g id="Node000167" class="node">
<title>Node167</title>
<g id="a_Node000167"><a xlink:href="mutt__window_8c.html#a9b0eb963bae817aae94c7f3427b99f7d" target="_top" xlink:title="Set the Window focus.">
<polygon fill="#fff0f0" stroke="red" points="253.62,-22.25 154.38,-22.25 154.38,0 253.62,0 253.62,-22.25"/>
<text text-anchor="middle" x="204" y="-8.75" font-family="Helvetica,sans-Serif" font-size="10.00">window_set_focus</text>
</a>
</g>
</g>
<!-- Node1&#45;&gt;Node167 -->
<g id="edge32_Node000001_Node000167" class="edge">
<title>Node1&#45;&gt;Node167</title>
<g id="a_edge32_Node000001_Node000167"><a xlink:title=" ">
<path fill="none" stroke="#63b8ff" d="M45.35,-475.65C47.54,-411.61 61.34,-98.76 124,-31.12 129.3,-25.41 135.97,-21.22 143.19,-18.18"/>
<polygon fill="#63b8ff" stroke="#63b8ff" points="144.28,-21.51 152.62,-14.98 142.02,-14.88 144.28,-21.51"/>
</a>
</g>
</g>
<!-- Node55&#45;&gt;Node2 -->
<g id="edge8_Node000055_Node000002" class="edge">
<title>Node55&#45;&gt;Node2</title>
<g id="a_edge8_Node000055_Node000002"><a xlink:title=" ">
<path fill="none" stroke="#63b8ff" d="M234.28,-734.71C249.68,-741.41 268.52,-750.6 284,-761.12 314.54,-781.89 345.04,-811.98 363.56,-831.54"/>
<polygon fill="#63b8ff" stroke="#63b8ff" points="360.78,-833.69 370.15,-838.62 365.9,-828.91 360.78,-833.69"/>
</a>
</g>
</g>
<!-- Node55&#45;&gt;Node55 -->
<g id="edge9_Node000055_Node000055" class="edge">
<title>Node55&#45;&gt;Node55</title>
<g id="a_edge9_Node000055_Node000055"><a xlink:title=" ">
<path fill="none" stroke="#63b8ff" d="M177.87,-734.49C168.1,-743.28 176.81,-752.25 204,-752.25 218.87,-752.25 228.21,-749.57 232.02,-745.7"/>
<polygon fill="#63b8ff" stroke="#63b8ff" points="235.5,-745.25 230.38,-735.98 228.6,-746.42 235.5,-745.25"/>
</a>
</g>
</g>
<!-- Node57&#45;&gt;Node60 -->
<g id="edge11_Node000057_Node000060" class="edge">
<title>Node57&#45;&gt;Node60</title>
<g id="a_edge11_Node000057_Node000060"><a xlink:title=" ">
<path fill="none" stroke="#63b8ff" d="M244.24,-671.56C257.01,-667.57 271.19,-662.9 284,-658.12 304.81,-650.37 327.63,-640.59 345.95,-632.43"/>
<polygon fill="#63b8ff" stroke="#63b8ff" points="347.37,-635.62 355.06,-628.33 344.5,-629.24 347.37,-635.62"/>
</a>
</g>
</g>
<!-- Node61&#45;&gt;Node60 -->
<g id="edge14_Node000061_Node000060" class="edge">
<title>Node61&#45;&gt;Node60</title>
<g id="a_edge14_Node000061_Node000060"><a xlink:title=" ">
<path fill="none" stroke="#63b8ff" d="M235.72,-592.18C258.28,-595.88 289.71,-601.05 317.61,-605.64"/>
<polygon fill="#63b8ff" stroke="#63b8ff" points="316.98,-609.08 327.41,-607.25 318.11,-602.18 316.98,-609.08"/>
</a>
</g>
</g>
<!-- Node61&#45;&gt;Node61 -->
<g id="edge13_Node000061_Node000061" class="edge">
<title>Node61&#45;&gt;Node61</title>
<g id="a_edge13_Node000061_Node000061"><a xlink:title=" ">
<path fill="none" stroke="#63b8ff" d="M177.87,-598.49C168.1,-607.28 176.81,-616.25 204,-616.25 218.87,-616.25 228.21,-613.57 232.02,-609.7"/>
<polygon fill="#63b8ff" stroke="#63b8ff" points="235.5,-609.25 230.38,-599.98 228.6,-610.42 235.5,-609.25"/>
</a>
</g>
</g>
<!-- Node175&#45;&gt;Node60 -->
<g id="edge17_Node000175_Node000060" class="edge">
<title>Node175&#45;&gt;Node60</title>
<g id="a_edge17_Node000175_Node000060"><a xlink:title=" ">
<path fill="none" stroke="#63b8ff" d="M264.04,-518.62C270.96,-520.96 277.77,-523.77 284,-527.12 316.7,-544.74 347.04,-575.75 364.9,-596.12"/>
<polygon fill="#63b8ff" stroke="#63b8ff" points="362.04,-598.17 371.2,-603.49 367.36,-593.62 362.04,-598.17"/>
</a>
</g>
</g>
<!-- Node474&#45;&gt;Node159 -->
<g id="edge29_Node000474_Node000159" class="edge">
<title>Node474&#45;&gt;Node159</title>
<g id="a_edge29_Node000474_Node000159"><a xlink:title=" ">
<path fill="none" stroke="#63b8ff" d="M234.52,-102.67C263.77,-114.12 308.78,-131.73 341.26,-144.43"/>
<polygon fill="#63b8ff" stroke="#63b8ff" points="339.76,-147.6 350.35,-147.99 342.31,-141.08 339.76,-147.6"/>
</a>
</g>
</g>
<!-- Node474&#45;&gt;Node474 -->
<g id="edge30_Node000474_Node000474" class="edge">
<title>Node474&#45;&gt;Node474</title>
<g id="a_edge30_Node000474_Node000474"><a xlink:title=" ">
<path fill="none" stroke="#63b8ff" d="M177.87,-102.49C168.1,-111.28 176.81,-120.25 204,-120.25 218.87,-120.25 228.21,-117.57 232.02,-113.7"/>
<polygon fill="#63b8ff" stroke="#63b8ff" points="235.5,-113.25 230.38,-103.98 228.6,-114.42 235.5,-113.25"/>
</a>
</g>
</g>
</g>
</svg>
