<?xml version="1.0" encoding="UTF-8" standalone="no"?>
<!DOCTYPE svg PUBLIC "-//W3C//DTD SVG 1.1//EN"
 "http://www.w3.org/Graphics/SVG/1.1/DTD/svg11.dtd">
<!-- Generated by graphviz version 7.1.0 (0)
 -->
<!-- Title: op_attachment_pipe Pages: 1 -->
<svg width="294pt" height="64pt"
 viewBox="0.00 0.00 294.00 64.00" xmlns="http://www.w3.org/2000/svg" xmlns:xlink="http://www.w3.org/1999/xlink">
<g id="graph0" class="graph" transform="scale(1 1) rotate(0) translate(4 60)">
<title>op_attachment_pipe</title>
<!-- Node1 -->
<g id="node1" class="node">
<title>Node1</title>
<g id="a_node1"><a xlink:title="pipe message/attachment to a shell command &#45; Implements attach_function_t &#45;">
<polygon fill="#999999" stroke="#666666" points="111,-37 0,-37 0,-18 111,-18 111,-37"/>
<text text-anchor="middle" x="55.5" y="-25" font-family="Helvetica,sans-Serif" font-size="10.00">op_attachment_pipe</text>
</a>
</g>
</g>
<!-- Node2 -->
<g id="node2" class="node">
<title>Node2</title>
<g id="a_node2"><a xlink:href="recvattach_8c.html#a718168300f4a21fa0c1a28321aeaa6ee" target="_top" xlink:title="Get the current attachment.">
<polygon fill="#fff0f0" stroke="red" points="271,-56 162,-56 162,-37 271,-37 271,-56"/>
<text text-anchor="middle" x="216.5" y="-44" font-family="Helvetica,sans-Serif" font-size="10.00">current_attachment</text>
</a>
</g>
</g>
<!-- Node1&#45;&gt;Node2 -->
<g id="edge1" class="edge">
<title>Node1&#45;&gt;Node2</title>
<path fill="none" stroke="#63b8ff" d="M111.22,-34.04C123.86,-35.55 137.44,-37.17 150.48,-38.73"/>
<polygon fill="#63b8ff" stroke="#63b8ff" points="149.91,-42.19 160.25,-39.9 150.74,-35.24 149.91,-42.19"/>
</g>
<!-- Node4 -->
<g id="node3" class="node">
<title>Node4</title>
<g id="a_node3"><a xlink:href="recvattach_8c.html#a864d3327398fde25536c45736abde530" target="_top" xlink:title="Pipe a list of attachments to a command.">
<polygon fill="#fff0f0" stroke="red" points="286,-19 147,-19 147,0 286,0 286,-19"/>
<text text-anchor="middle" x="216.5" y="-7" font-family="Helvetica,sans-Serif" font-size="10.00">mutt_pipe_attachment_list</text>
</a>
</g>
</g>
<!-- Node1&#45;&gt;Node4 -->
<g id="edge2" class="edge">
<title>Node1&#45;&gt;Node4</title>
<path fill="none" stroke="#63b8ff" d="M111.22,-21.31C119.06,-20.42 127.26,-19.49 135.47,-18.56"/>
<polygon fill="#63b8ff" stroke="#63b8ff" points="135.59,-22.07 145.13,-17.47 134.8,-15.11 135.59,-22.07"/>
</g>
</g>
</svg>
