<?xml version="1.0" encoding="UTF-8" standalone="no"?>
<!DOCTYPE svg PUBLIC "-//W3C//DTD SVG 1.1//EN"
 "http://www.w3.org/Graphics/SVG/1.1/DTD/svg11.dtd">
<!-- Generated by graphviz version 12.2.1 (20241206.2353)
 -->
<!-- Title: msgid_random_3 Pages: 1 -->
<svg width="276pt" height="110pt"
 viewBox="0.00 0.00 275.50 110.25" xmlns="http://www.w3.org/2000/svg" xmlns:xlink="http://www.w3.org/1999/xlink">
<g id="graph0" class="graph" transform="scale(1 1) rotate(0) translate(4 106.25)">
<title>msgid_random_3</title>
<!-- Node1 -->
<g id="Node000001" class="node">
<title>Node1</title>
<g id="a_Node000001"><a xlink:title="Message Id: 3 Random Bytes of Base64 &#45; Implements get_string_t &#45;.">
<polygon fill="#999999" stroke="#666666" points="94.75,-62.25 0,-62.25 0,-40 94.75,-40 94.75,-62.25"/>
<text text-anchor="middle" x="47.38" y="-48.75" font-family="Helvetica,sans-Serif" font-size="10.00">msgid_random_3</text>
</a>
</g>
</g>
<!-- Node2 -->
<g id="Node000002" class="node">
<title>Node2</title>
<g id="a_Node000002"><a xlink:href="buffer_8c.html#ac958acbd189e463a2c3bbc2f23aaeb1e" target="_top" xlink:title="Copy a string into a Buffer.">
<polygon fill="#fff0f0" stroke="red" points="231.12,-102.25 167.12,-102.25 167.12,-80 231.12,-80 231.12,-102.25"/>
<text text-anchor="middle" x="199.12" y="-88.75" font-family="Helvetica,sans-Serif" font-size="10.00">buf_strcpy</text>
</a>
</g>
</g>
<!-- Node1&#45;&gt;Node2 -->
<g id="edge1_Node000001_Node000002" class="edge">
<title>Node1&#45;&gt;Node2</title>
<g id="a_edge1_Node000001_Node000002"><a xlink:title=" ">
<path fill="none" stroke="#63b8ff" d="M91.69,-62.69C111.86,-68.08 135.76,-74.47 155.81,-79.82"/>
<polygon fill="#63b8ff" stroke="#63b8ff" points="154.77,-83.17 165.34,-82.37 156.58,-76.4 154.77,-83.17"/>
</a>
</g>
</g>
<!-- Node10 -->
<g id="Node000010" class="node">
<title>Node10</title>
<g id="a_Node000010"><a xlink:href="base64_8c.html#a2e95c58da2c4d998070bb1d65a1379be" target="_top" xlink:title="Convert raw bytes to a URL&#45;safe base64 string.">
<polygon fill="#fff0f0" stroke="red" points="267.5,-62.25 130.75,-62.25 130.75,-40 267.5,-40 267.5,-62.25"/>
<text text-anchor="middle" x="199.12" y="-48.75" font-family="Helvetica,sans-Serif" font-size="10.00">mutt_b64_encode_urlsafe</text>
</a>
</g>
</g>
<!-- Node1&#45;&gt;Node10 -->
<g id="edge2_Node000001_Node000010" class="edge">
<title>Node1&#45;&gt;Node10</title>
<g id="a_edge2_Node000001_Node000010"><a xlink:title=" ">
<path fill="none" stroke="#63b8ff" d="M94.94,-51.12C102.67,-51.12 110.87,-51.12 119.15,-51.12"/>
<polygon fill="#63b8ff" stroke="#63b8ff" points="118.92,-54.63 128.92,-51.13 118.92,-47.63 118.92,-54.63"/>
</a>
</g>
</g>
<!-- Node12 -->
<g id="Node000012" class="node">
<title>Node12</title>
<g id="a_Node000012"><a xlink:href="random_8c.html#ab6f7ab904f47a0ccc44ece588dbd7800" target="_top" xlink:title="Fill a buffer with randomness.">
<polygon fill="white" stroke="#666666" points="239,-22.25 159.25,-22.25 159.25,0 239,0 239,-22.25"/>
<text text-anchor="middle" x="199.12" y="-8.75" font-family="Helvetica,sans-Serif" font-size="10.00">mutt_randbuf</text>
</a>
</g>
</g>
<!-- Node1&#45;&gt;Node12 -->
<g id="edge3_Node000001_Node000012" class="edge">
<title>Node1&#45;&gt;Node12</title>
<g id="a_edge3_Node000001_Node000012"><a xlink:title=" ">
<path fill="none" stroke="#63b8ff" d="M91.69,-39.56C109.29,-34.85 129.73,-29.39 147.97,-24.52"/>
<polygon fill="#63b8ff" stroke="#63b8ff" points="148.78,-27.93 157.53,-21.97 146.97,-21.17 148.78,-27.93"/>
</a>
</g>
</g>
</g>
</svg>
