<?xml version="1.0" encoding="UTF-8" standalone="no"?>
<!DOCTYPE svg PUBLIC "-//W3C//DTD SVG 1.1//EN"
 "http://www.w3.org/Graphics/SVG/1.1/DTD/svg11.dtd">
<!-- Generated by graphviz version 12.2.1 (20241206.2353)
 -->
<!-- Title: parse_unhook Pages: 1 -->
<svg width="388pt" height="434pt"
 viewBox="0.00 0.00 387.50 434.25" xmlns="http://www.w3.org/2000/svg" xmlns:xlink="http://www.w3.org/1999/xlink">
<g id="graph0" class="graph" transform="scale(1 1) rotate(0) translate(4 430.25)">
<title>parse_unhook</title>
<!-- Node1 -->
<g id="Node000001" class="node">
<title>Node1</title>
<g id="a_Node000001"><a xlink:title="Parse the unhook command &#45; Implements Command::parse() &#45;.">
<polygon fill="#999999" stroke="#666666" points="82,-220.25 0,-220.25 0,-198 82,-198 82,-220.25"/>
<text text-anchor="middle" x="41" y="-206.75" font-family="Helvetica,sans-Serif" font-size="10.00">parse_unhook</text>
</a>
</g>
</g>
<!-- Node2 -->
<g id="Node000002" class="node">
<title>Node2</title>
<g id="a_Node000002"><a xlink:href="buffer_8c.html#a9924e74ddcb5280ab380e4627d1fba99" target="_top" xlink:title="Add a string to a Buffer.">
<polygon fill="#fff0f0" stroke="red" points="365.25,-426.25 299,-426.25 299,-404 365.25,-404 365.25,-426.25"/>
<text text-anchor="middle" x="332.12" y="-412.75" font-family="Helvetica,sans-Serif" font-size="10.00">buf_addstr</text>
</a>
</g>
</g>
<!-- Node1&#45;&gt;Node2 -->
<g id="edge1_Node000001_Node000002" class="edge">
<title>Node1&#45;&gt;Node2</title>
<g id="a_edge1_Node000001_Node000002"><a xlink:title=" ">
<path fill="none" stroke="#63b8ff" d="M42.97,-220.32C46.42,-252.58 61.13,-346.22 118,-389.12 166.83,-425.96 240.63,-426.26 287.32,-421.72"/>
<polygon fill="#63b8ff" stroke="#63b8ff" points="287.52,-425.22 297.07,-420.65 286.75,-418.26 287.52,-425.22"/>
</a>
</g>
</g>
<!-- Node7 -->
<g id="Node000007" class="node">
<title>Node7</title>
<g id="a_Node000007"><a xlink:href="pool_8c.html#a41cba27c25d33cb6822789a2856093f2" target="_top" xlink:title="Get a Buffer from the pool.">
<polygon fill="#fff0f0" stroke="red" points="370.5,-381.25 293.75,-381.25 293.75,-359 370.5,-359 370.5,-381.25"/>
<text text-anchor="middle" x="332.12" y="-367.75" font-family="Helvetica,sans-Serif" font-size="10.00">buf_pool_get</text>
</a>
</g>
</g>
<!-- Node1&#45;&gt;Node7 -->
<g id="edge2_Node000001_Node000007" class="edge">
<title>Node1&#45;&gt;Node7</title>
<g id="a_edge2_Node000001_Node000007"><a xlink:title=" ">
<path fill="none" stroke="#63b8ff" d="M43.66,-220.65C48.62,-250.41 66.38,-329.85 118,-363.12 166.91,-394.65 236.1,-390.1 282.23,-381.89"/>
<polygon fill="#63b8ff" stroke="#63b8ff" points="282.79,-385.35 291.95,-380.03 281.47,-378.48 282.79,-385.35"/>
</a>
</g>
</g>
<!-- Node10 -->
<g id="Node000010" class="node">
<title>Node10</title>
<g id="a_Node000010"><a xlink:href="pool_8c.html#a4cc6068279461cb8628219586dfa35a1" target="_top" xlink:title="Return a Buffer to the pool.">
<polygon fill="#fff0f0" stroke="red" points="379.5,-331.25 284.75,-331.25 284.75,-309 379.5,-309 379.5,-331.25"/>
<text text-anchor="middle" x="332.12" y="-317.75" font-family="Helvetica,sans-Serif" font-size="10.00">buf_pool_release</text>
</a>
</g>
</g>
<!-- Node1&#45;&gt;Node10 -->
<g id="edge3_Node000001_Node000010" class="edge">
<title>Node1&#45;&gt;Node10</title>
<g id="a_edge3_Node000001_Node000010"><a xlink:title=" ">
<path fill="none" stroke="#63b8ff" d="M59.23,-220.58C74.27,-230.21 96.93,-243.85 118,-253.12 168.94,-275.55 229.75,-293.89 273.34,-305.67"/>
<polygon fill="#63b8ff" stroke="#63b8ff" points="272.29,-309.02 282.86,-308.21 274.1,-302.25 272.29,-309.02"/>
</a>
</g>
</g>
<!-- Node15 -->
<g id="Node000015" class="node">
<title>Node15</title>
<g id="a_Node000015"><a xlink:href="buffer_8c.html#a02123807d31181ac701b566226e93b33" target="_top" xlink:title="Format a string overwriting a Buffer.">
<polygon fill="#fff0f0" stroke="red" points="214.62,-220.25 152.12,-220.25 152.12,-198 214.62,-198 214.62,-220.25"/>
<text text-anchor="middle" x="183.38" y="-206.75" font-family="Helvetica,sans-Serif" font-size="10.00">buf_printf</text>
</a>
</g>
</g>
<!-- Node1&#45;&gt;Node15 -->
<g id="edge4_Node000001_Node000015" class="edge">
<title>Node1&#45;&gt;Node15</title>
<g id="a_edge4_Node000001_Node000015"><a xlink:title=" ">
<path fill="none" stroke="#63b8ff" d="M82.23,-209.12C100.52,-209.12 122.16,-209.12 140.64,-209.12"/>
<polygon fill="#63b8ff" stroke="#63b8ff" points="140.45,-212.63 150.45,-209.13 140.45,-205.63 140.45,-212.63"/>
</a>
</g>
</g>
<!-- Node17 -->
<g id="Node000017" class="node">
<title>Node17</title>
<g id="a_Node000017"><a xlink:href="buffer_8h.html#a728ebc5a947b77c8d56db44ce553a7ab" target="_top" xlink:title="Convert a buffer to a const char * &quot;string&quot;.">
<polygon fill="white" stroke="#666666" points="363.75,-268.25 300.5,-268.25 300.5,-246 363.75,-246 363.75,-268.25"/>
<text text-anchor="middle" x="332.12" y="-254.75" font-family="Helvetica,sans-Serif" font-size="10.00">buf_string</text>
</a>
</g>
</g>
<!-- Node1&#45;&gt;Node17 -->
<g id="edge5_Node000001_Node000017" class="edge">
<title>Node1&#45;&gt;Node17</title>
<g id="a_edge5_Node000001_Node000017"><a xlink:title=" ">
<path fill="none" stroke="#63b8ff" d="M82.01,-220.67C93.56,-223.72 106.22,-226.81 118,-229.12 176.87,-240.69 245.85,-248.77 289.02,-253.18"/>
<polygon fill="#63b8ff" stroke="#63b8ff" points="288.42,-256.64 298.71,-254.15 289.11,-249.68 288.42,-256.64"/>
</a>
</g>
</g>
<!-- Node18 -->
<g id="Node000018" class="node">
<title>Node18</title>
<g id="a_Node000018"><a xlink:href="commands_2commands_8c.html#a4c0d901e40e21da4b09b52df4d75b41e" target="_top" xlink:title="Find a NeoMutt Command by its name.">
<polygon fill="white" stroke="#666666" points="248.75,-180.25 118,-180.25 118,-158 248.75,-158 248.75,-180.25"/>
<text text-anchor="middle" x="183.38" y="-166.75" font-family="Helvetica,sans-Serif" font-size="10.00">command_find_by_name</text>
</a>
</g>
</g>
<!-- Node1&#45;&gt;Node18 -->
<g id="edge7_Node000001_Node000018" class="edge">
<title>Node1&#45;&gt;Node18</title>
<g id="a_edge7_Node000001_Node000018"><a xlink:title=" ">
<path fill="none" stroke="#63b8ff" d="M82.23,-197.66C97.37,-193.35 114.8,-188.38 130.83,-183.81"/>
<polygon fill="#63b8ff" stroke="#63b8ff" points="131.54,-187.25 140.2,-181.14 129.62,-180.52 131.54,-187.25"/>
</a>
</g>
</g>
<!-- Node19 -->
<g id="Node000019" class="node">
<title>Node19</title>
<g id="a_Node000019"><a xlink:href="mutt_2string_8c.html#a6b6a50296dd2a31863a43379ef4a343d" target="_top" xlink:title="Compare two strings.">
<polygon fill="#fff0f0" stroke="red" points="375,-161.25 289.25,-161.25 289.25,-139 375,-139 375,-161.25"/>
<text text-anchor="middle" x="332.12" y="-147.75" font-family="Helvetica,sans-Serif" font-size="10.00">mutt_str_equal</text>
</a>
</g>
</g>
<!-- Node1&#45;&gt;Node19 -->
<g id="edge12_Node000001_Node000019" class="edge">
<title>Node1&#45;&gt;Node19</title>
<g id="a_edge12_Node000001_Node000019"><a xlink:title=" ">
<path fill="none" stroke="#63b8ff" d="M51.89,-197.55C65.19,-182.99 90.37,-158.72 118,-149.12 169.98,-131.08 233.49,-134.34 277.59,-140.24"/>
<polygon fill="#63b8ff" stroke="#63b8ff" points="277.03,-143.69 287.43,-141.65 278.03,-136.76 277.03,-143.69"/>
</a>
</g>
</g>
<!-- Node21 -->
<g id="Node000021" class="node">
<title>Node21</title>
<g id="a_Node000021"><a xlink:href="hooks_2parse_8c.html#a5158a12937ec41e078fe95c10d332217" target="_top" xlink:title="Delete all the index&#45;format&#45;hooks.">
<polygon fill="#fff0f0" stroke="red" points="239.75,-102.25 127,-102.25 127,-80 239.75,-80 239.75,-102.25"/>
<text text-anchor="middle" x="183.38" y="-88.75" font-family="Helvetica,sans-Serif" font-size="10.00">delete_idxfmt_hooks</text>
</a>
</g>
</g>
<!-- Node1&#45;&gt;Node21 -->
<g id="edge9_Node000001_Node000021" class="edge">
<title>Node1&#45;&gt;Node21</title>
<g id="a_edge9_Node000001_Node000021"><a xlink:title=" ">
<path fill="none" stroke="#63b8ff" d="M48.52,-197.8C60.16,-178.52 86.28,-139.16 118,-116.12 122.55,-112.82 127.6,-109.89 132.8,-107.3"/>
<polygon fill="#63b8ff" stroke="#63b8ff" points="133.86,-110.66 141.54,-103.37 130.99,-104.28 133.86,-110.66"/>
</a>
</g>
</g>
<!-- Node23 -->
<g id="Node000023" class="node">
<title>Node23</title>
<g id="a_Node000023"><a xlink:href="mutt_2charset_8c.html#a1b4218535731ab6b94715522af613e00" target="_top" xlink:title="Remove all the character set lookups.">
<polygon fill="#fff0f0" stroke="red" points="248.38,-62.25 118.38,-62.25 118.38,-40 248.38,-40 248.38,-62.25"/>
<text text-anchor="middle" x="183.38" y="-48.75" font-family="Helvetica,sans-Serif" font-size="10.00">mutt_ch_lookup_remove</text>
</a>
</g>
</g>
<!-- Node1&#45;&gt;Node23 -->
<g id="edge10_Node000001_Node000023" class="edge">
<title>Node1&#45;&gt;Node23</title>
<g id="a_edge10_Node000001_Node000023"><a xlink:title=" ">
<path fill="none" stroke="#63b8ff" d="M45.12,-197.56C52.84,-171.13 75.4,-105.88 118,-71.12 119.28,-70.08 120.6,-69.1 121.98,-68.16"/>
<polygon fill="#63b8ff" stroke="#63b8ff" points="123.3,-71.44 130.27,-63.45 119.85,-65.35 123.3,-71.44"/>
</a>
</g>
</g>
<!-- Node25 -->
<g id="Node000025" class="node">
<title>Node25</title>
<g id="a_Node000025"><a xlink:href="hooks_2parse_8c.html#a45d192929924e15580eca983319585d4" target="_top" xlink:title="Delete matching hooks.">
<polygon fill="#fff0f0" stroke="red" points="236,-22.25 130.75,-22.25 130.75,0 236,0 236,-22.25"/>
<text text-anchor="middle" x="183.38" y="-8.75" font-family="Helvetica,sans-Serif" font-size="10.00">mutt_delete_hooks</text>
</a>
</g>
</g>
<!-- Node1&#45;&gt;Node25 -->
<g id="edge11_Node000001_Node000025" class="edge">
<title>Node1&#45;&gt;Node25</title>
<g id="a_edge11_Node000001_Node000025"><a xlink:title=" ">
<path fill="none" stroke="#63b8ff" d="M43.54,-197.64C48.37,-166.19 66.12,-77.95 118,-31.12 118.93,-30.28 119.9,-29.47 120.9,-28.7"/>
<polygon fill="#63b8ff" stroke="#63b8ff" points="122.7,-31.7 129.31,-23.42 118.98,-25.77 122.7,-31.7"/>
</a>
</g>
</g>
<!-- Node31 -->
<g id="Node000031" class="node">
<title>Node31</title>
<g id="a_Node000031"><a xlink:href="extract_8c.html#aabf9d6ea465d5c12bfa99c6b3d8dcf94" target="_top" xlink:title="Extract one token from a string.">
<polygon fill="#fff0f0" stroke="red" points="238.25,-336.25 128.5,-336.25 128.5,-314 238.25,-314 238.25,-336.25"/>
<text text-anchor="middle" x="183.38" y="-322.75" font-family="Helvetica,sans-Serif" font-size="10.00">parse_extract_token</text>
</a>
</g>
</g>
<!-- Node1&#45;&gt;Node31 -->
<g id="edge13_Node000001_Node000031" class="edge">
<title>Node1&#45;&gt;Node31</title>
<g id="a_edge13_Node000001_Node000031"><a xlink:title=" ">
<path fill="none" stroke="#63b8ff" d="M48.77,-220.5C60.59,-239.47 86.73,-277.68 118,-300.12 122.63,-303.45 127.76,-306.4 133.04,-309"/>
<polygon fill="#63b8ff" stroke="#63b8ff" points="131.36,-312.09 141.92,-312.97 134.22,-305.69 131.36,-312.09"/>
</a>
</g>
</g>
<!-- Node17&#45;&gt;Node17 -->
<g id="edge6_Node000017_Node000017" class="edge">
<title>Node17&#45;&gt;Node17</title>
<g id="a_edge6_Node000017_Node000017"><a xlink:title=" ">
<path fill="none" stroke="#63b8ff" d="M307.84,-268.49C298.75,-277.28 306.85,-286.25 332.12,-286.25 345.95,-286.25 354.63,-283.57 358.18,-279.7"/>
<polygon fill="#63b8ff" stroke="#63b8ff" points="361.66,-279.31 356.65,-269.98 354.75,-280.4 361.66,-279.31"/>
</a>
</g>
</g>
<!-- Node18&#45;&gt;Node19 -->
<g id="edge8_Node000018_Node000019" class="edge">
<title>Node18&#45;&gt;Node19</title>
<g id="a_edge8_Node000018_Node000019"><a xlink:title=" ">
<path fill="none" stroke="#63b8ff" d="M249.17,-160.74C258.67,-159.51 268.37,-158.25 277.61,-157.05"/>
<polygon fill="#63b8ff" stroke="#63b8ff" points="278.05,-160.53 287.52,-155.77 277.16,-153.58 278.05,-160.53"/>
</a>
</g>
</g>
<!-- Node31&#45;&gt;Node2 -->
<g id="edge14_Node000031_Node000002" class="edge">
<title>Node31&#45;&gt;Node2</title>
<g id="a_edge14_Node000031_Node000002"><a xlink:title=" ">
<path fill="none" stroke="#63b8ff" d="M201.16,-336.59C220.89,-349.92 254.74,-372.36 284.75,-390.12 289.21,-392.77 293.97,-395.46 298.67,-398.06"/>
<polygon fill="#63b8ff" stroke="#63b8ff" points="296.96,-401.11 307.42,-402.81 300.3,-394.96 296.96,-401.11"/>
</a>
</g>
</g>
<!-- Node31&#45;&gt;Node7 -->
<g id="edge15_Node000031_Node000007" class="edge">
<title>Node31&#45;&gt;Node7</title>
<g id="a_edge15_Node000031_Node000007"><a xlink:title=" ">
<path fill="none" stroke="#63b8ff" d="M222.17,-336.71C240.57,-342.36 262.91,-349.21 282.56,-355.23"/>
<polygon fill="#63b8ff" stroke="#63b8ff" points="281.43,-358.55 292.01,-358.13 283.48,-351.85 281.43,-358.55"/>
</a>
</g>
</g>
<!-- Node31&#45;&gt;Node10 -->
<g id="edge16_Node000031_Node000010" class="edge">
<title>Node31&#45;&gt;Node10</title>
<g id="a_edge16_Node000031_Node000010"><a xlink:title=" ">
<path fill="none" stroke="#63b8ff" d="M238.6,-323.28C249.87,-322.89 261.78,-322.49 273.18,-322.1"/>
<polygon fill="#63b8ff" stroke="#63b8ff" points="272.97,-325.61 282.85,-321.77 272.73,-318.61 272.97,-325.61"/>
</a>
</g>
</g>
<!-- Node31&#45;&gt;Node17 -->
<g id="edge17_Node000031_Node000017" class="edge">
<title>Node31&#45;&gt;Node17</title>
<g id="a_edge17_Node000031_Node000017"><a xlink:title=" ">
<path fill="none" stroke="#63b8ff" d="M209.27,-313.59C233.09,-302.55 269.26,-285.79 296.01,-273.4"/>
<polygon fill="#63b8ff" stroke="#63b8ff" points="297.13,-276.73 304.74,-269.35 294.19,-270.38 297.13,-276.73"/>
</a>
</g>
</g>
<!-- Node31&#45;&gt;Node31 -->
<g id="edge18_Node000031_Node000031" class="edge">
<title>Node31&#45;&gt;Node31</title>
<g id="a_edge18_Node000031_Node000031"><a xlink:title=" ">
<path fill="none" stroke="#63b8ff" d="M160.13,-336.49C151.43,-345.28 159.18,-354.25 183.38,-354.25 196.61,-354.25 204.92,-351.57 208.31,-347.7"/>
<polygon fill="#63b8ff" stroke="#63b8ff" points="211.8,-347.35 206.85,-337.98 204.88,-348.39 211.8,-347.35"/>
</a>
</g>
</g>
</g>
</svg>
