<?xml version="1.0" encoding="UTF-8" standalone="no"?>
<!DOCTYPE svg PUBLIC "-//W3C//DTD SVG 1.1//EN"
 "http://www.w3.org/Graphics/SVG/1.1/DTD/svg11.dtd">
<!-- Generated by graphviz version 7.1.0 (0)
 -->
<!-- Title: enum_native_set Pages: 1 -->
<svg width="254pt" height="64pt"
 viewBox="0.00 0.00 254.00 64.00" xmlns="http://www.w3.org/2000/svg" xmlns:xlink="http://www.w3.org/1999/xlink">
<g id="graph0" class="graph" transform="scale(1 1) rotate(0) translate(4 60)">
<title>enum_native_set</title>
<!-- Node1 -->
<g id="node1" class="node">
<title>Node1</title>
<g id="a_node1"><a xlink:title="Set an Enumeration config item by int &#45; Implements ConfigSetType::native_set() &#45;.">
<polygon fill="#999999" stroke="#666666" points="95,-37 0,-37 0,-18 95,-18 95,-37"/>
<text text-anchor="middle" x="47.5" y="-25" font-family="Helvetica,sans-Serif" font-size="10.00">enum_native_set</text>
</a>
</g>
</g>
<!-- Node2 -->
<g id="node2" class="node">
<title>Node2</title>
<g id="a_node2"><a xlink:href="buffer_8c.html#a02123807d31181ac701b566226e93b33" target="_top" xlink:title="Format a string overwriting a Buffer.">
<polygon fill="#fff0f0" stroke="red" points="220,-56 157,-56 157,-37 220,-37 220,-56"/>
<text text-anchor="middle" x="188.5" y="-44" font-family="Helvetica,sans-Serif" font-size="10.00">buf_printf</text>
</a>
</g>
</g>
<!-- Node1&#45;&gt;Node2 -->
<g id="edge1" class="edge">
<title>Node1&#45;&gt;Node2</title>
<path fill="none" stroke="#63b8ff" d="M95.17,-33.88C111.55,-36.12 129.82,-38.62 145.76,-40.8"/>
<polygon fill="#63b8ff" stroke="#63b8ff" points="145.02,-44.23 155.4,-42.11 145.97,-37.29 145.02,-44.23"/>
</g>
<!-- Node14 -->
<g id="node3" class="node">
<title>Node14</title>
<g id="a_node3"><a xlink:href="mapping_8c.html#ae52d375da6dc3039d2341ae4ace4f557" target="_top" xlink:title="Lookup a string for a constant.">
<polygon fill="white" stroke="#666666" points="246,-19 131,-19 131,0 246,0 246,-19"/>
<text text-anchor="middle" x="188.5" y="-7" font-family="Helvetica,sans-Serif" font-size="10.00">mutt_map_get_name</text>
</a>
</g>
</g>
<!-- Node1&#45;&gt;Node14 -->
<g id="edge2" class="edge">
<title>Node1&#45;&gt;Node14</title>
<path fill="none" stroke="#63b8ff" d="M95.17,-21.46C102.98,-20.45 111.22,-19.38 119.43,-18.31"/>
<polygon fill="#63b8ff" stroke="#63b8ff" points="119.61,-21.82 129.07,-17.07 118.71,-14.88 119.61,-21.82"/>
</g>
</g>
</svg>
