<?xml version="1.0" encoding="UTF-8" standalone="no"?>
<!DOCTYPE svg PUBLIC "-//W3C//DTD SVG 1.1//EN"
 "http://www.w3.org/Graphics/SVG/1.1/DTD/svg11.dtd">
<!-- Generated by graphviz version 12.2.1 (20241206.2353)
 -->
<!-- Title: attach_function_dispatcher Pages: 1 -->
<svg width="293pt" height="84pt"
 viewBox="0.00 0.00 292.75 84.38" xmlns="http://www.w3.org/2000/svg" xmlns:xlink="http://www.w3.org/1999/xlink">
<g id="graph0" class="graph" transform="scale(1 1) rotate(0) translate(4 80.38)">
<title>attach_function_dispatcher</title>
<!-- Node1 -->
<g id="Node000001" class="node">
<title>Node1</title>
<g id="a_Node000001"><a xlink:title="Perform a Attach function &#45; Implements function_dispatcher_t &#45;.">
<polygon fill="#999999" stroke="#666666" points="140.5,-52.38 0,-52.38 0,-30.12 140.5,-30.12 140.5,-52.38"/>
<text text-anchor="middle" x="70.25" y="-38.88" font-family="Helvetica,sans-Serif" font-size="10.00">attach_function_dispatcher</text>
</a>
</g>
</g>
<!-- Node2 -->
<g id="Node000002" class="node">
<title>Node2</title>
<g id="a_Node000002"><a xlink:href="dialog_8c.html#ae9143ce9323ae3351fd9b612a6063ada" target="_top" xlink:title="Find the parent Dialog of a Window.">
<polygon fill="white" stroke="#666666" points="263.75,-76.38 197.5,-76.38 197.5,-54.12 263.75,-54.12 263.75,-76.38"/>
<text text-anchor="middle" x="230.62" y="-62.88" font-family="Helvetica,sans-Serif" font-size="10.00">dialog_find</text>
</a>
</g>
</g>
<!-- Node1&#45;&gt;Node2 -->
<g id="edge1_Node000001_Node000002" class="edge">
<title>Node1&#45;&gt;Node2</title>
<g id="a_edge1_Node000001_Node000002"><a xlink:title=" ">
<path fill="none" stroke="#63b8ff" d="M140.72,-51.78C156.04,-54.1 171.86,-56.5 185.82,-58.61"/>
<polygon fill="#63b8ff" stroke="#63b8ff" points="185.16,-62.05 195.57,-60.09 186.21,-55.13 185.16,-62.05"/>
</a>
</g>
</g>
<!-- Node3 -->
<g id="Node000003" class="node">
<title>Node3</title>
<g id="a_Node000003"><a xlink:href="dispatcher_8c.html#a7f7e98d4febdf9d639018f54d1f5f4fc" target="_top" xlink:title="Flush pending keys after a dispatch error.">
<polygon fill="#fff0f0" stroke="red" points="284.75,-36.5 176.5,-36.5 176.5,0 284.75,0 284.75,-36.5"/>
<text text-anchor="start" x="184.5" y="-23" font-family="Helvetica,sans-Serif" font-size="10.00">dispatcher_flush_on</text>
<text text-anchor="middle" x="230.62" y="-8.75" font-family="Helvetica,sans-Serif" font-size="10.00">_error</text>
</a>
</g>
</g>
<!-- Node1&#45;&gt;Node3 -->
<g id="edge2_Node000001_Node000003" class="edge">
<title>Node1&#45;&gt;Node3</title>
<g id="a_edge2_Node000001_Node000003"><a xlink:title=" ">
<path fill="none" stroke="#63b8ff" d="M140.72,-31.16C148.85,-29.98 157.12,-28.78 165.19,-27.61"/>
<polygon fill="#63b8ff" stroke="#63b8ff" points="165.52,-31.1 174.91,-26.2 164.51,-24.17 165.52,-31.1"/>
</a>
</g>
</g>
</g>
</svg>
