<?xml version="1.0" encoding="UTF-8" standalone="no"?>
<!DOCTYPE svg PUBLIC "-//W3C//DTD SVG 1.1//EN"
 "http://www.w3.org/Graphics/SVG/1.1/DTD/svg11.dtd">
<!-- Generated by graphviz version 12.2.1 (20241206.2353)
 -->
<!-- Title: mw_what_key Pages: 1 -->
<svg width="685pt" height="724pt"
 viewBox="0.00 0.00 685.00 724.37" xmlns="http://www.w3.org/2000/svg" xmlns:xlink="http://www.w3.org/1999/xlink">
<g id="graph0" class="graph" transform="scale(1 1) rotate(0) translate(4 720.37)">
<title>mw_what_key</title>
<!-- Node1 -->
<g id="Node000001" class="node">
<title>Node1</title>
<g id="a_Node000001"><a xlink:title="Display the value of a key &#45;.">
<polygon fill="#999999" stroke="#666666" points="79.75,-363.37 0,-363.37 0,-341.12 79.75,-341.12 79.75,-363.37"/>
<text text-anchor="middle" x="39.88" y="-349.87" font-family="Helvetica,sans-Serif" font-size="10.00">mw_what_key</text>
</a>
</g>
</g>
<!-- Node2 -->
<g id="Node000002" class="node">
<title>Node2</title>
<g id="a_Node000002"><a xlink:href="pool_8c.html#a41cba27c25d33cb6822789a2856093f2" target="_top" xlink:title="Get a Buffer from the pool.">
<polygon fill="#fff0f0" stroke="red" points="215.38,-716.37 138.62,-716.37 138.62,-694.12 215.38,-694.12 215.38,-716.37"/>
<text text-anchor="middle" x="177" y="-702.87" font-family="Helvetica,sans-Serif" font-size="10.00">buf_pool_get</text>
</a>
</g>
</g>
<!-- Node1&#45;&gt;Node2 -->
<g id="edge1_Node000001_Node000002" class="edge">
<title>Node1&#45;&gt;Node2</title>
<g id="a_edge1_Node000001_Node000002"><a xlink:title=" ">
<path fill="none" stroke="#63b8ff" d="M41.93,-363.54C47.08,-416.04 71.01,-635.83 115.75,-685.25 119.21,-689.07 123.43,-692.17 128,-694.67"/>
<polygon fill="#63b8ff" stroke="#63b8ff" points="126.48,-697.83 137.04,-698.65 129.3,-691.42 126.48,-697.83"/>
</a>
</g>
</g>
<!-- Node10 -->
<g id="Node000010" class="node">
<title>Node10</title>
<g id="a_Node000010"><a xlink:href="pool_8c.html#a4cc6068279461cb8628219586dfa35a1" target="_top" xlink:title="Return a Buffer to the pool.">
<polygon fill="#fff0f0" stroke="red" points="224.38,-636.37 129.62,-636.37 129.62,-614.12 224.38,-614.12 224.38,-636.37"/>
<text text-anchor="middle" x="177" y="-622.87" font-family="Helvetica,sans-Serif" font-size="10.00">buf_pool_release</text>
</a>
</g>
</g>
<!-- Node1&#45;&gt;Node10 -->
<g id="edge2_Node000001_Node000010" class="edge">
<title>Node1&#45;&gt;Node10</title>
<g id="a_edge2_Node000001_Node000010"><a xlink:title=" ">
<path fill="none" stroke="#63b8ff" d="M41.03,-363.77C42.16,-402.35 50.88,-528.54 115.75,-600.25 118.37,-603.15 121.39,-605.72 124.64,-608"/>
<polygon fill="#63b8ff" stroke="#63b8ff" points="122.6,-610.86 132.99,-612.92 126.15,-604.83 122.6,-610.86"/>
</a>
</g>
</g>
<!-- Node13 -->
<g id="Node000013" class="node">
<title>Node13</title>
<g id="a_Node000013"><a xlink:href="buffer_8c.html#a3b1f80652b37dc26046f9acdd85a0b05" target="_top" xlink:title="Reset an existing Buffer.">
<polygon fill="#fff0f0" stroke="red" points="352.12,-636.37 291.88,-636.37 291.88,-614.12 352.12,-614.12 352.12,-636.37"/>
<text text-anchor="middle" x="322" y="-622.87" font-family="Helvetica,sans-Serif" font-size="10.00">buf_reset</text>
</a>
</g>
</g>
<!-- Node1&#45;&gt;Node13 -->
<g id="edge6_Node000001_Node000013" class="edge">
<title>Node1&#45;&gt;Node13</title>
<g id="a_edge6_Node000001_Node000013"><a xlink:title=" ">
<path fill="none" stroke="#63b8ff" d="M41.49,-363.7C44.02,-398.74 56.44,-505.53 115.75,-562.25 127.88,-573.85 224.52,-600.3 280.76,-614.97"/>
<polygon fill="#63b8ff" stroke="#63b8ff" points="279.75,-618.33 290.31,-617.45 281.51,-611.55 279.75,-618.33"/>
</a>
</g>
</g>
<!-- Node15 -->
<g id="Node000015" class="node">
<title>Node15</title>
<g id="a_Node000015"><a xlink:href="buffer_8c.html#a02123807d31181ac701b566226e93b33" target="_top" xlink:title="Format a string overwriting a Buffer.">
<polygon fill="#fff0f0" stroke="red" points="208.25,-676.37 145.75,-676.37 145.75,-654.12 208.25,-654.12 208.25,-676.37"/>
<text text-anchor="middle" x="177" y="-662.87" font-family="Helvetica,sans-Serif" font-size="10.00">buf_printf</text>
</a>
</g>
</g>
<!-- Node1&#45;&gt;Node15 -->
<g id="edge4_Node000001_Node000015" class="edge">
<title>Node1&#45;&gt;Node15</title>
<g id="a_edge4_Node000001_Node000015"><a xlink:title=" ">
<path fill="none" stroke="#63b8ff" d="M42.34,-363.79C48.77,-412.73 75.93,-602.52 115.75,-645.25 120.95,-650.83 127.74,-654.85 134.88,-657.75"/>
<polygon fill="#63b8ff" stroke="#63b8ff" points="133.43,-660.96 144.02,-660.78 135.63,-654.31 133.43,-660.96"/>
</a>
</g>
</g>
<!-- Node17 -->
<g id="Node000017" class="node">
<title>Node17</title>
<g id="a_Node000017"><a xlink:href="buffer_8h.html#a728ebc5a947b77c8d56db44ce553a7ab" target="_top" xlink:title="Convert a buffer to a const char * &quot;string&quot;.">
<polygon fill="white" stroke="#666666" points="484.38,-287.37 421.12,-287.37 421.12,-265.12 484.38,-265.12 484.38,-287.37"/>
<text text-anchor="middle" x="452.75" y="-273.87" font-family="Helvetica,sans-Serif" font-size="10.00">buf_string</text>
</a>
</g>
</g>
<!-- Node1&#45;&gt;Node17 -->
<g id="edge7_Node000001_Node000017" class="edge">
<title>Node1&#45;&gt;Node17</title>
<g id="a_edge7_Node000001_Node000017"><a xlink:title=" ">
<path fill="none" stroke="#63b8ff" d="M62.21,-340.64C76.87,-333.15 97,-323.81 115.75,-318.25 218.42,-287.8 345.1,-279.42 409.64,-277.11"/>
<polygon fill="#63b8ff" stroke="#63b8ff" points="409.55,-280.62 419.44,-276.8 409.33,-273.62 409.55,-280.62"/>
</a>
</g>
</g>
<!-- Node18 -->
<g id="Node000018" class="node">
<title>Node18</title>
<g id="a_Node000018"><a xlink:href="key_2keymap_8c.html#a395d79db4e39e2240b6e8ecc726b5c97" target="_top" xlink:title="Get the human name for a key.">
<polygon fill="#fff0f0" stroke="red" points="228.5,-520.37 125.5,-520.37 125.5,-498.12 228.5,-498.12 228.5,-520.37"/>
<text text-anchor="middle" x="177" y="-506.87" font-family="Helvetica,sans-Serif" font-size="10.00">keymap_get_name</text>
</a>
</g>
</g>
<!-- Node1&#45;&gt;Node18 -->
<g id="edge9_Node000001_Node000018" class="edge">
<title>Node1&#45;&gt;Node18</title>
<g id="a_edge9_Node000001_Node000018"><a xlink:title=" ">
<path fill="none" stroke="#63b8ff" d="M43.97,-363.67C51.62,-389.79 73.92,-454.33 115.75,-489.25 116.87,-490.18 118.03,-491.07 119.23,-491.92"/>
<polygon fill="#63b8ff" stroke="#63b8ff" points="117.34,-494.87 127.74,-496.89 120.88,-488.83 117.34,-494.87"/>
</a>
</g>
</g>
<!-- Node22 -->
<g id="Node000022" class="node">
<title>Node22</title>
<g id="a_Node000022"><a xlink:href="msgcont_8c.html#aa78e5fc8401697d653184962a319c907" target="_top" xlink:title="Remove the last Window from the Container Stack.">
<polygon fill="#fff0f0" stroke="red" points="236,-480.37 118,-480.37 118,-458.12 236,-458.12 236,-480.37"/>
<text text-anchor="middle" x="177" y="-466.87" font-family="Helvetica,sans-Serif" font-size="10.00">msgcont_pop_window</text>
</a>
</g>
</g>
<!-- Node1&#45;&gt;Node22 -->
<g id="edge10_Node000001_Node000022" class="edge">
<title>Node1&#45;&gt;Node22</title>
<g id="a_edge10_Node000001_Node000022"><a xlink:title=" ">
<path fill="none" stroke="#63b8ff" d="M47.53,-363.68C59.15,-382.75 84.87,-421.23 115.75,-444.25 120.06,-447.46 124.85,-450.34 129.79,-452.91"/>
<polygon fill="#63b8ff" stroke="#63b8ff" points="128.12,-455.99 138.65,-457.08 131.1,-449.65 128.12,-455.99"/>
</a>
</g>
</g>
<!-- Node24 -->
<g id="Node000024" class="node">
<title>Node24</title>
<g id="a_Node000024"><a xlink:href="neomutt_8c.html#ab58efd47fa66c8187cfdce43078c94fa" target="_top" xlink:title="Get the private data for a Module.">
<polygon fill="white" stroke="#666666" points="677,-421.37 535.75,-421.37 535.75,-399.12 677,-399.12 677,-421.37"/>
<text text-anchor="middle" x="606.38" y="-407.87" font-family="Helvetica,sans-Serif" font-size="10.00">neomutt_get_module_data</text>
</a>
</g>
</g>
<!-- Node1&#45;&gt;Node24 -->
<g id="edge30_Node000001_Node000024" class="edge">
<title>Node1&#45;&gt;Node24</title>
<g id="a_edge30_Node000001_Node000024"><a xlink:title=" ">
<path fill="none" stroke="#63b8ff" d="M80.2,-355.75C159.57,-362.91 344.61,-379.99 499.75,-397.25 507.7,-398.13 515.99,-399.09 524.27,-400.07"/>
<polygon fill="#63b8ff" stroke="#63b8ff" points="523.67,-403.52 534.02,-401.24 524.5,-396.57 523.67,-403.52"/>
</a>
</g>
</g>
<!-- Node41 -->
<g id="Node000041" class="node">
<title>Node41</title>
<g id="a_Node000041"><a xlink:href="mutt__window_8c.html#a0af7bfe97dbb8f95d03851ec3fe62553" target="_top" xlink:title="Reflow, recalc and repaint a tree of Windows.">
<polygon fill="#fff0f0" stroke="red" points="366,-441.37 278,-441.37 278,-419.12 366,-419.12 366,-441.37"/>
<text text-anchor="middle" x="322" y="-427.87" font-family="Helvetica,sans-Serif" font-size="10.00">window_redraw</text>
</a>
</g>
</g>
<!-- Node1&#45;&gt;Node41 -->
<g id="edge33_Node000001_Node000041" class="edge">
<title>Node1&#45;&gt;Node41</title>
<g id="a_edge33_Node000001_Node000041"><a xlink:title=" ">
<path fill="none" stroke="#63b8ff" d="M51.23,-363.73C64.6,-377.69 89.31,-400.69 115.75,-411.25 164.16,-430.57 223.92,-434.06 266.45,-433.47"/>
<polygon fill="#63b8ff" stroke="#63b8ff" points="266.26,-436.98 276.18,-433.25 266.1,-429.98 266.26,-436.98"/>
</a>
</g>
</g>
<!-- Node48 -->
<g id="Node000048" class="node">
<title>Node48</title>
<g id="a_Node000048"><a xlink:href="msgcont_8c.html#a7fbc9d3ea3efbadfc28976f8030e7a6c" target="_top" xlink:title="Add a window to the Container Stack.">
<polygon fill="#fff0f0" stroke="red" points="238.25,-402.37 115.75,-402.37 115.75,-380.12 238.25,-380.12 238.25,-402.37"/>
<text text-anchor="middle" x="177" y="-388.87" font-family="Helvetica,sans-Serif" font-size="10.00">msgcont_push_window</text>
</a>
</g>
</g>
<!-- Node1&#45;&gt;Node48 -->
<g id="edge14_Node000001_Node000048" class="edge">
<title>Node1&#45;&gt;Node48</title>
<g id="a_edge14_Node000001_Node000048"><a xlink:title=" ">
<path fill="none" stroke="#63b8ff" d="M79.96,-363.53C94.13,-367.62 110.36,-372.3 125.38,-376.64"/>
<polygon fill="#63b8ff" stroke="#63b8ff" points="124.03,-379.89 134.61,-379.3 125.97,-373.17 124.03,-379.89"/>
</a>
</g>
</g>
<!-- Node51 -->
<g id="Node000051" class="node">
<title>Node51</title>
<g id="a_Node000051"><a xlink:href="msgwin_8c.html#a7afedab303914dc5d7b943d9b63feca4" target="_top" xlink:title="Add text to the Message Window.">
<polygon fill="#fff0f0" stroke="red" points="369.75,-325.37 274.25,-325.37 274.25,-303.12 369.75,-303.12 369.75,-325.37"/>
<text text-anchor="middle" x="322" y="-311.87" font-family="Helvetica,sans-Serif" font-size="10.00">msgwin_add_text</text>
</a>
</g>
</g>
<!-- Node1&#45;&gt;Node51 -->
<g id="edge17_Node000001_Node000051" class="edge">
<title>Node1&#45;&gt;Node51</title>
<g id="a_edge17_Node000001_Node000051"><a xlink:title=" ">
<path fill="none" stroke="#63b8ff" d="M80.04,-344.4C91.52,-342.24 104.11,-340.01 115.75,-338.25 165.19,-330.74 221.65,-324.29 262.82,-319.98"/>
<polygon fill="#63b8ff" stroke="#63b8ff" points="262.91,-323.49 272.5,-318.97 262.19,-316.52 262.91,-323.49"/>
</a>
</g>
</g>
<!-- Node57 -->
<g id="Node000057" class="node">
<title>Node57</title>
<g id="a_Node000057"><a xlink:href="msgwin_8c.html#a6281c19688604bf8bf2e5631d8326380" target="_top" xlink:title="Clear the text in the Message Window.">
<polygon fill="white" stroke="#666666" points="227.38,-248.37 126.62,-248.37 126.62,-226.12 227.38,-226.12 227.38,-248.37"/>
<text text-anchor="middle" x="177" y="-234.87" font-family="Helvetica,sans-Serif" font-size="10.00">msgwin_clear_text</text>
</a>
</g>
</g>
<!-- Node1&#45;&gt;Node57 -->
<g id="edge19_Node000001_Node000057" class="edge">
<title>Node1&#45;&gt;Node57</title>
<g id="a_edge19_Node000001_Node000057"><a xlink:title=" ">
<path fill="none" stroke="#63b8ff" d="M47.78,-340.77C59.58,-322.02 85.32,-284.67 115.75,-262.25 120.08,-259.06 124.88,-256.19 129.82,-253.63"/>
<polygon fill="#63b8ff" stroke="#63b8ff" points="131.13,-256.89 138.7,-249.47 128.16,-250.55 131.13,-256.89"/>
</a>
</g>
</g>
<!-- Node58 -->
<g id="Node000058" class="node">
<title>Node58</title>
<g id="a_Node000058"><a xlink:href="msgwin_8c.html#ac1dc426af34116e8de4ebfb20d0cb44f" target="_top" xlink:title="Set the text for the Message Window.">
<polygon fill="#fff0f0" stroke="red" points="368.25,-247.37 275.75,-247.37 275.75,-225.12 368.25,-225.12 368.25,-247.37"/>
<text text-anchor="middle" x="322" y="-233.87" font-family="Helvetica,sans-Serif" font-size="10.00">msgwin_set_text</text>
</a>
</g>
</g>
<!-- Node1&#45;&gt;Node58 -->
<g id="edge26_Node000001_Node000058" class="edge">
<title>Node1&#45;&gt;Node58</title>
<g id="a_edge26_Node000001_Node000058"><a xlink:title=" ">
<path fill="none" stroke="#63b8ff" d="M43.15,-340.83C49.26,-313.57 68.87,-244.85 115.75,-217.25 167.95,-186.51 240.85,-204.72 284.26,-220.6"/>
<polygon fill="#63b8ff" stroke="#63b8ff" points="282.89,-223.82 293.48,-224.11 285.38,-217.28 282.89,-223.82"/>
</a>
</g>
</g>
<!-- Node72 -->
<g id="Node000072" class="node">
<title>Node72</title>
<g id="a_Node000072"><a xlink:href="color_2simple_8c.html#ae60958374804169f78021b5742e33f15" target="_top" xlink:title="Get the colour of an object by its ID.">
<polygon fill="white" stroke="#666666" points="499.75,-247.37 405.75,-247.37 405.75,-225.12 499.75,-225.12 499.75,-247.37"/>
<text text-anchor="middle" x="452.75" y="-233.87" font-family="Helvetica,sans-Serif" font-size="10.00">simple_color_get</text>
</a>
</g>
</g>
<!-- Node1&#45;&gt;Node72 -->
<g id="edge32_Node000001_Node000072" class="edge">
<title>Node1&#45;&gt;Node72</title>
<g id="a_edge32_Node000001_Node000072"><a xlink:title=" ">
<path fill="none" stroke="#63b8ff" d="M42.27,-340.93C46.65,-310.92 63.12,-229.37 115.75,-196.25 212.34,-135.47 355.82,-189.96 419.4,-219.78"/>
<polygon fill="#63b8ff" stroke="#63b8ff" points="417.72,-222.86 428.25,-224.03 420.75,-216.55 417.72,-222.86"/>
</a>
</g>
</g>
<!-- Node73 -->
<g id="Node000073" class="node">
<title>Node73</title>
<g id="a_Node000073"><a xlink:href="msgwin_8c.html#a265a7fe33d69d23d8d485f90fd14ff31" target="_top" xlink:title="Create the Message Window.">
<polygon fill="#fff0f0" stroke="red" points="490,-539.37 415.5,-539.37 415.5,-517.12 490,-517.12 490,-539.37"/>
<text text-anchor="middle" x="452.75" y="-525.87" font-family="Helvetica,sans-Serif" font-size="10.00">msgwin_new</text>
</a>
</g>
</g>
<!-- Node1&#45;&gt;Node73 -->
<g id="edge24_Node000001_Node000073" class="edge">
<title>Node1&#45;&gt;Node73</title>
<g id="a_edge24_Node000001_Node000073"><a xlink:title=" ">
<path fill="none" stroke="#63b8ff" d="M41.6,-363.59C44.38,-396.23 57.35,-490.54 115.75,-529.25 161.63,-559.65 322.46,-544.69 403.83,-534.72"/>
<polygon fill="#63b8ff" stroke="#63b8ff" points="404.25,-538.19 413.73,-533.48 403.38,-531.25 404.25,-538.19"/>
</a>
</g>
</g>
<!-- Node5 -->
<g id="Node000005" class="node">
<title>Node5</title>
<g id="a_Node000005"><a xlink:href="exit_8c.html#a65be75bf998d2462599b7d391676554c" target="_top" xlink:title="Leave NeoMutt NOW.">
<polygon fill="white" stroke="#666666" points="206.75,-132.37 147.25,-132.37 147.25,-110.12 206.75,-110.12 206.75,-132.37"/>
<text text-anchor="middle" x="177" y="-118.87" font-family="Helvetica,sans-Serif" font-size="10.00">mutt_exit</text>
</a>
</g>
</g>
<!-- Node1&#45;&gt;Node5 -->
<g id="edge27_Node000001_Node000005" class="edge">
<title>Node1&#45;&gt;Node5</title>
<g id="a_edge27_Node000001_Node000005"><a xlink:title=" ">
<path fill="none" stroke="#63b8ff" d="M41.86,-340.77C45.38,-306.59 60.26,-204.28 115.75,-146.25 121.51,-140.23 128.93,-135.6 136.59,-132.07"/>
<polygon fill="#63b8ff" stroke="#63b8ff" points="137.64,-135.41 145.63,-128.46 135.05,-128.91 137.64,-135.41"/>
</a>
</g>
</g>
<!-- Node90 -->
<g id="Node000090" class="node">
<title>Node90</title>
<g id="a_Node000090"><a xlink:href="mutt__window_8c.html#a52ff022e671a7fbdec773fc2d24e0e15" target="_top" xlink:title="Free a Window and its children.">
<polygon fill="#fff0f0" stroke="red" points="228.12,-52.37 125.88,-52.37 125.88,-30.12 228.12,-30.12 228.12,-52.37"/>
<text text-anchor="middle" x="177" y="-38.87" font-family="Helvetica,sans-Serif" font-size="10.00">mutt_window_free</text>
</a>
</g>
</g>
<!-- Node1&#45;&gt;Node90 -->
<g id="edge28_Node000001_Node000090" class="edge">
<title>Node1&#45;&gt;Node90</title>
<g id="a_edge28_Node000001_Node000090"><a xlink:title=" ">
<path fill="none" stroke="#63b8ff" d="M42.35,-340.78C48.82,-292.17 76.15,-103.67 115.75,-61.25 116.34,-60.61 116.96,-60 117.59,-59.4"/>
<polygon fill="#63b8ff" stroke="#63b8ff" points="119.49,-62.35 125.48,-53.61 115.35,-56.7 119.49,-62.35"/>
</a>
</g>
</g>
<!-- Node34 -->
<g id="Node000034" class="node">
<title>Node34</title>
<g id="a_Node000034"><a xlink:href="mutt_2notify_8c.html#ade2f42f8e0d8a843e87816300799a8e1" target="_top" xlink:title="Send out a notification message.">
<polygon fill="#fff0f0" stroke="red" points="357,-52.37 287,-52.37 287,-30.12 357,-30.12 357,-52.37"/>
<text text-anchor="middle" x="322" y="-38.87" font-family="Helvetica,sans-Serif" font-size="10.00">notify_send</text>
</a>
</g>
</g>
<!-- Node1&#45;&gt;Node34 -->
<g id="edge31_Node000001_Node000034" class="edge">
<title>Node1&#45;&gt;Node34</title>
<g id="a_edge31_Node000001_Node000034"><a xlink:title=" ">
<path fill="none" stroke="#63b8ff" d="M41.63,-340.68C45.37,-286.96 63.97,-62.62 115.75,-21.25 164.87,18 243.19,-6.01 287.53,-24.96"/>
<polygon fill="#63b8ff" stroke="#63b8ff" points="286.09,-28.15 296.65,-29.01 288.93,-21.75 286.09,-28.15"/>
</a>
</g>
</g>
<!-- Node94 -->
<g id="Node000094" class="node">
<title>Node94</title>
<g id="a_Node000094"><a xlink:href="mutt__window_8c.html#a9b0eb963bae817aae94c7f3427b99f7d" target="_top" xlink:title="Set the Window focus.">
<polygon fill="#fff0f0" stroke="red" points="226.62,-92.37 127.38,-92.37 127.38,-70.12 226.62,-70.12 226.62,-92.37"/>
<text text-anchor="middle" x="177" y="-78.87" font-family="Helvetica,sans-Serif" font-size="10.00">window_set_focus</text>
</a>
</g>
</g>
<!-- Node1&#45;&gt;Node94 -->
<g id="edge34_Node000001_Node000094" class="edge">
<title>Node1&#45;&gt;Node94</title>
<g id="a_edge34_Node000001_Node000094"><a xlink:title=" ">
<path fill="none" stroke="#63b8ff" d="M40.78,-340.67C41.1,-301.37 47.52,-171.59 115.75,-101.25 116.47,-100.5 117.22,-99.79 118,-99.1"/>
<polygon fill="#63b8ff" stroke="#63b8ff" points="119.72,-102.16 125.89,-93.55 115.7,-96.43 119.72,-102.16"/>
</a>
</g>
</g>
<!-- Node10&#45;&gt;Node13 -->
<g id="edge3_Node000010_Node000013" class="edge">
<title>Node10&#45;&gt;Node13</title>
<g id="a_edge3_Node000010_Node000013"><a xlink:title=" ">
<path fill="none" stroke="#63b8ff" d="M224.82,-625.25C242.69,-625.25 262.91,-625.25 280.17,-625.25"/>
<polygon fill="#63b8ff" stroke="#63b8ff" points="280.08,-628.75 290.08,-625.25 280.08,-621.75 280.08,-628.75"/>
</a>
</g>
</g>
<!-- Node15&#45;&gt;Node13 -->
<g id="edge5_Node000015_Node000013" class="edge">
<title>Node15&#45;&gt;Node13</title>
<g id="a_edge5_Node000015_Node000013"><a xlink:title=" ">
<path fill="none" stroke="#63b8ff" d="M208.68,-656.67C229.74,-650.77 257.91,-642.89 280.77,-636.5"/>
<polygon fill="#63b8ff" stroke="#63b8ff" points="281.69,-639.88 290.38,-633.81 279.81,-633.13 281.69,-639.88"/>
</a>
</g>
</g>
<!-- Node17&#45;&gt;Node17 -->
<g id="edge8_Node000017_Node000017" class="edge">
<title>Node17&#45;&gt;Node17</title>
<g id="a_edge8_Node000017_Node000017"><a xlink:title=" ">
<path fill="none" stroke="#63b8ff" d="M431.4,-287.61C423.42,-296.4 430.53,-305.37 452.75,-305.37 464.9,-305.37 472.53,-302.69 475.65,-298.82"/>
<polygon fill="#63b8ff" stroke="#63b8ff" points="479.15,-298.53 474.31,-289.11 472.21,-299.49 479.15,-298.53"/>
</a>
</g>
</g>
<!-- Node22&#45;&gt;Node24 -->
<g id="edge11_Node000022_Node000024" class="edge">
<title>Node22&#45;&gt;Node24</title>
<g id="a_edge11_Node000022_Node000024"><a xlink:title=" ">
<path fill="none" stroke="#63b8ff" d="M236.46,-465.48C301.19,-460.75 408.46,-451.26 499.75,-435.25 516.34,-432.34 534.22,-428.41 550.47,-424.53"/>
<polygon fill="#63b8ff" stroke="#63b8ff" points="551.06,-427.99 559.95,-422.23 549.4,-421.19 551.06,-427.99"/>
</a>
</g>
</g>
<!-- Node22&#45;&gt;Node41 -->
<g id="edge12_Node000022_Node000041" class="edge">
<title>Node22&#45;&gt;Node41</title>
<g id="a_edge12_Node000022_Node000041"><a xlink:title=" ">
<path fill="none" stroke="#63b8ff" d="M220.52,-457.65C235.22,-453.64 251.9,-449.09 267.38,-444.87"/>
<polygon fill="#63b8ff" stroke="#63b8ff" points="268.21,-448.27 276.94,-442.26 266.37,-441.52 268.21,-448.27"/>
</a>
</g>
</g>
<!-- Node41&#45;&gt;Node24 -->
<g id="edge13_Node000041_Node000024" class="edge">
<title>Node41&#45;&gt;Node24</title>
<g id="a_edge13_Node000041_Node000024"><a xlink:title=" ">
<path fill="none" stroke="#63b8ff" d="M366.19,-427.19C407.99,-424.23 472.4,-419.66 523.85,-416.02"/>
<polygon fill="#63b8ff" stroke="#63b8ff" points="524.05,-419.52 533.78,-415.32 523.55,-412.53 524.05,-419.52"/>
</a>
</g>
</g>
<!-- Node48&#45;&gt;Node24 -->
<g id="edge15_Node000048_Node000024" class="edge">
<title>Node48&#45;&gt;Node24</title>
<g id="a_edge15_Node000048_Node000024"><a xlink:title=" ">
<path fill="none" stroke="#63b8ff" d="M238.33,-393.93C313.04,-397.25 440.63,-402.92 523.97,-406.63"/>
<polygon fill="#63b8ff" stroke="#63b8ff" points="523.77,-410.12 533.91,-407.07 524.08,-403.13 523.77,-410.12"/>
</a>
</g>
</g>
<!-- Node48&#45;&gt;Node41 -->
<g id="edge16_Node000048_Node000041" class="edge">
<title>Node48&#45;&gt;Node41</title>
<g id="a_edge16_Node000048_Node000041"><a xlink:title=" ">
<path fill="none" stroke="#63b8ff" d="M220.52,-402.84C235.22,-406.85 251.9,-411.4 267.38,-415.62"/>
<polygon fill="#63b8ff" stroke="#63b8ff" points="266.37,-418.98 276.94,-418.23 268.21,-412.22 266.37,-418.98"/>
</a>
</g>
</g>
<!-- Node51&#45;&gt;Node17 -->
<g id="edge18_Node000051_Node000017" class="edge">
<title>Node51&#45;&gt;Node17</title>
<g id="a_edge18_Node000051_Node000017"><a xlink:title=" ">
<path fill="none" stroke="#63b8ff" d="M362.33,-302.64C377.44,-298.18 394.74,-293.07 410.07,-288.55"/>
<polygon fill="#63b8ff" stroke="#63b8ff" points="410.77,-291.99 419.37,-285.8 408.79,-285.28 410.77,-291.99"/>
</a>
</g>
</g>
<!-- Node57&#45;&gt;Node58 -->
<g id="edge20_Node000057_Node000058" class="edge">
<title>Node57&#45;&gt;Node58</title>
<g id="a_edge20_Node000057_Node000058"><a xlink:title=" ">
<path fill="none" stroke="#63b8ff" d="M227.61,-236.9C239.35,-236.82 251.96,-236.73 263.99,-236.64"/>
<polygon fill="#63b8ff" stroke="#63b8ff" points="263.82,-240.15 273.8,-236.58 263.77,-233.15 263.82,-240.15"/>
</a>
</g>
</g>
<!-- Node58&#45;&gt;Node17 -->
<g id="edge21_Node000058_Node000017" class="edge">
<title>Node58&#45;&gt;Node17</title>
<g id="a_edge21_Node000058_Node000017"><a xlink:title=" ">
<path fill="none" stroke="#63b8ff" d="M360.24,-247.82C375.81,-252.65 393.97,-258.29 409.99,-263.27"/>
<polygon fill="#63b8ff" stroke="#63b8ff" points="408.64,-266.52 419.23,-266.14 410.72,-259.83 408.64,-266.52"/>
</a>
</g>
</g>
<!-- Node58&#45;&gt;Node72 -->
<g id="edge22_Node000058_Node000072" class="edge">
<title>Node58&#45;&gt;Node72</title>
<g id="a_edge22_Node000058_Node000072"><a xlink:title=" ">
<path fill="none" stroke="#63b8ff" d="M368.39,-236.25C376.75,-236.25 385.57,-236.25 394.23,-236.25"/>
<polygon fill="#63b8ff" stroke="#63b8ff" points="393.95,-239.75 403.95,-236.25 393.95,-232.75 393.95,-239.75"/>
</a>
</g>
</g>
<!-- Node72&#45;&gt;Node24 -->
<g id="edge23_Node000072_Node000024" class="edge">
<title>Node72&#45;&gt;Node24</title>
<g id="a_edge23_Node000072_Node000024"><a xlink:title=" ">
<path fill="none" stroke="#63b8ff" d="M486.74,-247.86C491.36,-250.25 495.85,-253.03 499.75,-256.25 545.38,-293.9 579.63,-356.12 595.54,-388.76"/>
<polygon fill="#63b8ff" stroke="#63b8ff" points="592.29,-390.07 599.74,-397.61 598.61,-387.07 592.29,-390.07"/>
</a>
</g>
</g>
<!-- Node73&#45;&gt;Node24 -->
<g id="edge25_Node000073_Node000024" class="edge">
<title>Node73&#45;&gt;Node24</title>
<g id="a_edge25_Node000073_Node000024"><a xlink:title=" ">
<path fill="none" stroke="#63b8ff" d="M468.56,-516.72C494.9,-496.22 550.07,-453.29 581.72,-428.66"/>
<polygon fill="#63b8ff" stroke="#63b8ff" points="583.79,-431.48 589.53,-422.58 579.49,-425.96 583.79,-431.48"/>
</a>
</g>
</g>
<!-- Node90&#45;&gt;Node34 -->
<g id="edge29_Node000090_Node000034" class="edge">
<title>Node90&#45;&gt;Node34</title>
<g id="a_edge29_Node000090_Node000034"><a xlink:title=" ">
<path fill="none" stroke="#63b8ff" d="M228.42,-41.25C243.8,-41.25 260.6,-41.25 275.63,-41.25"/>
<polygon fill="#63b8ff" stroke="#63b8ff" points="275.2,-44.75 285.2,-41.25 275.2,-37.75 275.2,-44.75"/>
</a>
</g>
</g>
<!-- Node94&#45;&gt;Node34 -->
<g id="edge35_Node000094_Node000034" class="edge">
<title>Node94&#45;&gt;Node34</title>
<g id="a_edge35_Node000094_Node000034"><a xlink:title=" ">
<path fill="none" stroke="#63b8ff" d="M219.36,-69.68C237.12,-64.71 257.92,-58.89 276.06,-53.82"/>
<polygon fill="#63b8ff" stroke="#63b8ff" points="276.81,-57.24 285.5,-51.18 274.93,-50.5 276.81,-57.24"/>
</a>
</g>
</g>
</g>
</svg>
