<?xml version="1.0" encoding="UTF-8" standalone="no"?>
<!DOCTYPE svg PUBLIC "-//W3C//DTD SVG 1.1//EN"
 "http://www.w3.org/Graphics/SVG/1.1/DTD/svg11.dtd">
<!-- Generated by graphviz version 7.1.0 (0)
 -->
<!-- Title: mutt_parse_mono Pages: 1 -->
<svg width="501pt" height="190pt"
 viewBox="0.00 0.00 501.00 190.03" xmlns="http://www.w3.org/2000/svg" xmlns:xlink="http://www.w3.org/1999/xlink">
<g id="graph0" class="graph" transform="scale(1 1) rotate(0) translate(4 186.03)">
<title>mutt_parse_mono</title>
<!-- Node1 -->
<g id="node1" class="node">
<title>Node1</title>
<g id="a_node1"><a xlink:title="Parse the &#39;mono&#39; command &#45; Implements Command::parse() &#45;.">
<polygon fill="#999999" stroke="#666666" points="101,-113 0,-113 0,-94 101,-94 101,-113"/>
<text text-anchor="middle" x="50.5" y="-101" font-family="Helvetica,sans-Serif" font-size="10.00">mutt_parse_mono</text>
</a>
</g>
</g>
<!-- Node2 -->
<g id="node2" class="node">
<title>Node2</title>
<g id="a_node2"><a xlink:href="buffer_8h.html#a728ebc5a947b77c8d56db44ce553a7ab" target="_top" xlink:title="Convert a buffer to a const char * &quot;string&quot;.">
<polygon fill="white" stroke="#666666" points="493,-133 429,-133 429,-114 493,-114 493,-133"/>
<text text-anchor="middle" x="461" y="-121" font-family="Helvetica,sans-Serif" font-size="10.00">buf_string</text>
</a>
</g>
</g>
<!-- Node1&#45;&gt;Node2 -->
<g id="edge1" class="edge">
<title>Node1&#45;&gt;Node2</title>
<path fill="none" stroke="#63b8ff" d="M62.66,-113.42C78.09,-126.42 107.41,-148.61 137,-157.5 245.97,-190.25 282.82,-188.9 393,-160.5 408.88,-156.41 425.03,-147.66 437.49,-139.7"/>
<polygon fill="#63b8ff" stroke="#63b8ff" points="439.39,-142.63 445.74,-134.15 435.49,-136.82 439.39,-142.63"/>
</g>
<!-- Node3 -->
<g id="node3" class="node">
<title>Node3</title>
<g id="a_node3"><a xlink:href="debug_8h.html#a63e0ab098a555876b7a74f285ff7d692" target="_top" xlink:title=" ">
<polygon fill="white" stroke="#666666" points="375,-57 301,-57 301,-38 375,-38 375,-57"/>
<text text-anchor="middle" x="338" y="-45" font-family="Helvetica,sans-Serif" font-size="10.00">color_debug</text>
</a>
</g>
</g>
<!-- Node1&#45;&gt;Node3 -->
<g id="edge2" class="edge">
<title>Node1&#45;&gt;Node3</title>
<path fill="none" stroke="#63b8ff" d="M69.91,-93.51C86.84,-84.83 112.88,-72.7 137,-66.5 187.99,-53.39 248.39,-49.14 289.37,-47.85"/>
<polygon fill="#63b8ff" stroke="#63b8ff" points="289.23,-51.36 299.14,-47.6 289.05,-44.36 289.23,-51.36"/>
</g>
<!-- Node4 -->
<g id="node4" class="node">
<title>Node4</title>
<g id="a_node4"><a xlink:href="debug_8c.html#a9e36e62f2dc4ba10ce42c89fa992df0e" target="_top" xlink:title="Dump all the Curses colours.">
<polygon fill="#fff0f0" stroke="red" points="247,-19 137,-19 137,0 247,0 247,-19"/>
<text text-anchor="middle" x="192" y="-7" font-family="Helvetica,sans-Serif" font-size="10.00">curses_colors_dump</text>
</a>
</g>
</g>
<!-- Node1&#45;&gt;Node4 -->
<g id="edge3" class="edge">
<title>Node1&#45;&gt;Node4</title>
<path fill="none" stroke="#63b8ff" d="M61.6,-93.69C76.94,-79.16 107.44,-51.71 137,-33.5 142.4,-30.17 148.35,-27.05 154.26,-24.23"/>
<polygon fill="#63b8ff" stroke="#63b8ff" points="155.69,-27.43 163.36,-20.12 152.8,-21.05 155.69,-27.43"/>
</g>
<!-- Node27 -->
<g id="node5" class="node">
<title>Node27</title>
<g id="a_node5"><a xlink:href="group__parser__callback__api.html#ga7c967f6df144fa89e2590398d6ed2855" target="_top" xlink:title="Parse an attribute description &#45; Implements parser_callback_t &#45;.">
<polygon fill="#fff0f0" stroke="red" points="237,-132 147,-132 147,-113 237,-113 237,-132"/>
<text text-anchor="middle" x="192" y="-120" font-family="Helvetica,sans-Serif" font-size="10.00">parse_attr_spec</text>
</a>
</g>
</g>
<!-- Node1&#45;&gt;Node27 -->
<g id="edge4" class="edge">
<title>Node1&#45;&gt;Node27</title>
<path fill="none" stroke="#63b8ff" d="M101.47,-110.31C112.61,-111.82 124.48,-113.44 135.82,-114.98"/>
<polygon fill="#63b8ff" stroke="#63b8ff" points="135.05,-118.41 145.43,-116.29 136,-111.48 135.05,-118.41"/>
</g>
<!-- Node32 -->
<g id="node6" class="node">
<title>Node32</title>
<g id="a_node6"><a xlink:href="extract_8c.html#a2bdbddd6f12833e1b893bbffda6d64a3" target="_top" xlink:title="Extract one token from a string.">
<polygon fill="#fff0f0" stroke="red" points="393,-133 283,-133 283,-114 393,-114 393,-133"/>
<text text-anchor="middle" x="338" y="-121" font-family="Helvetica,sans-Serif" font-size="10.00">parse_extract_token</text>
</a>
</g>
</g>
<!-- Node1&#45;&gt;Node32 -->
<g id="edge12" class="edge">
<title>Node1&#45;&gt;Node32</title>
<path fill="none" stroke="#63b8ff" d="M68.14,-113.42C84.87,-122.78 111.74,-136.14 137,-141.5 187.86,-152.29 247.33,-144.4 288.13,-135.93"/>
<polygon fill="#63b8ff" stroke="#63b8ff" points="288.87,-139.35 297.9,-133.81 287.38,-132.52 288.87,-139.35"/>
</g>
<!-- Node60 -->
<g id="node7" class="node">
<title>Node60</title>
<g id="a_node7"><a xlink:href="color_2command_8c.html#abf4fa6284b875336d79d4cf473c3019d" target="_top" xlink:title="Parse a &#39;color&#39; command.">
<polygon fill="#fff0f0" stroke="red" points="227.5,-95 156.5,-95 156.5,-76 227.5,-76 227.5,-95"/>
<text text-anchor="middle" x="192" y="-83" font-family="Helvetica,sans-Serif" font-size="10.00">parse_color</text>
</a>
</g>
</g>
<!-- Node1&#45;&gt;Node60 -->
<g id="edge8" class="edge">
<title>Node1&#45;&gt;Node60</title>
<path fill="none" stroke="#63b8ff" d="M101.47,-97.05C115.64,-95.22 131,-93.24 144.92,-91.45"/>
<polygon fill="#63b8ff" stroke="#63b8ff" points="145.26,-94.93 154.73,-90.18 144.36,-87.99 145.26,-94.93"/>
</g>
<!-- Node27&#45;&gt;Node32 -->
<g id="edge5" class="edge">
<title>Node27&#45;&gt;Node32</title>
<path fill="none" stroke="#63b8ff" d="M237.38,-122.81C248.1,-122.88 259.79,-122.96 271.26,-123.04"/>
<polygon fill="#63b8ff" stroke="#63b8ff" points="271.08,-126.54 281.1,-123.11 271.13,-119.54 271.08,-126.54"/>
</g>
<!-- Node32&#45;&gt;Node2 -->
<g id="edge6" class="edge">
<title>Node32&#45;&gt;Node2</title>
<path fill="none" stroke="#63b8ff" d="M393.48,-123.5C401.48,-123.5 409.62,-123.5 417.33,-123.5"/>
<polygon fill="#63b8ff" stroke="#63b8ff" points="417.13,-127 427.13,-123.5 417.13,-120 417.13,-127"/>
</g>
<!-- Node32&#45;&gt;Node32 -->
<g id="edge7" class="edge">
<title>Node32&#45;&gt;Node32</title>
<path fill="none" stroke="#63b8ff" d="M318.74,-133.37C309.96,-141.94 316.38,-151 338,-151 349.82,-151 357.1,-148.29 359.83,-144.43"/>
<polygon fill="#63b8ff" stroke="#63b8ff" points="363.28,-143.79 357.6,-134.84 356.46,-145.38 363.28,-143.79"/>
</g>
<!-- Node60&#45;&gt;Node2 -->
<g id="edge9" class="edge">
<title>Node60&#45;&gt;Node2</title>
<path fill="none" stroke="#63b8ff" d="M227.93,-87.27C268.03,-89.69 335.68,-95.01 393,-105.5 400.97,-106.96 409.38,-108.9 417.45,-110.96"/>
<polygon fill="#63b8ff" stroke="#63b8ff" points="416.52,-114.33 427.08,-113.53 418.32,-107.57 416.52,-114.33"/>
</g>
<!-- Node60&#45;&gt;Node3 -->
<g id="edge10" class="edge">
<title>Node60&#45;&gt;Node3</title>
<path fill="none" stroke="#63b8ff" d="M227.86,-76.3C246.47,-71.39 269.64,-65.28 289.84,-59.95"/>
<polygon fill="#63b8ff" stroke="#63b8ff" points="290.47,-63.4 299.24,-57.46 288.68,-56.63 290.47,-63.4"/>
</g>
<!-- Node60&#45;&gt;Node32 -->
<g id="edge11" class="edge">
<title>Node60&#45;&gt;Node32</title>
<path fill="none" stroke="#63b8ff" d="M227.86,-94.7C245.96,-99.48 268.38,-105.39 288.19,-110.62"/>
<polygon fill="#63b8ff" stroke="#63b8ff" points="287.15,-113.97 297.72,-113.13 288.94,-107.2 287.15,-113.97"/>
</g>
</g>
</svg>
