<?xml version="1.0" encoding="UTF-8" standalone="no"?>
<!DOCTYPE svg PUBLIC "-//W3C//DTD SVG 1.1//EN"
 "http://www.w3.org/Graphics/SVG/1.1/DTD/svg11.dtd">
<!-- Generated by graphviz version 7.1.0 (0)
 -->
<!-- Title: op_compose_rename_file Pages: 1 -->
<svg width="439pt" height="550pt"
 viewBox="0.00 0.00 439.00 550.00" xmlns="http://www.w3.org/2000/svg" xmlns:xlink="http://www.w3.org/1999/xlink">
<g id="graph0" class="graph" transform="scale(1 1) rotate(0) translate(4 546)">
<title>op_compose_rename_file</title>
<!-- Node1 -->
<g id="node1" class="node">
<title>Node1</title>
<g id="a_node1"><a xlink:title="Rename/move an attached file &#45; Implements compose_function_t &#45;.">
<polygon fill="#999999" stroke="#666666" points="134,-278 0,-278 0,-259 134,-259 134,-278"/>
<text text-anchor="middle" x="67" y="-266" font-family="Helvetica,sans-Serif" font-size="10.00">op_compose_rename_file</text>
</a>
</g>
</g>
<!-- Node2 -->
<g id="node2" class="node">
<title>Node2</title>
<g id="a_node2"><a xlink:href="muttlib_8c.html#adde3990a0490dfba609fc94dbdbfd6b3" target="_top" xlink:title="Create the canonical path.">
<polygon fill="#fff0f0" stroke="red" points="283,-542 187,-542 187,-523 283,-523 283,-542"/>
<text text-anchor="middle" x="235" y="-530" font-family="Helvetica,sans-Serif" font-size="10.00">buf_expand_path</text>
</a>
</g>
</g>
<!-- Node1&#45;&gt;Node2 -->
<g id="edge1" class="edge">
<title>Node1&#45;&gt;Node2</title>
<path fill="none" stroke="#63b8ff" d="M69.06,-278.47C73.56,-315.64 94.45,-447.44 170,-514.5 172.04,-516.31 174.25,-517.94 176.58,-519.41"/>
<polygon fill="#63b8ff" stroke="#63b8ff" points="174.85,-522.46 185.35,-523.88 178.03,-516.22 174.85,-522.46"/>
</g>
<!-- Node227 -->
<g id="node3" class="node">
<title>Node227</title>
<g id="a_node3"><a xlink:href="buffer_8c.html#a4245e227baa2a9beb6991917404aab0d" target="_top" xlink:title="Is the Buffer empty?">
<polygon fill="white" stroke="#666666" points="274,-505 196,-505 196,-486 274,-486 274,-505"/>
<text text-anchor="middle" x="235" y="-493" font-family="Helvetica,sans-Serif" font-size="10.00">buf_is_empty</text>
</a>
</g>
</g>
<!-- Node1&#45;&gt;Node227 -->
<g id="edge2" class="edge">
<title>Node1&#45;&gt;Node227</title>
<path fill="none" stroke="#63b8ff" d="M70.16,-278.09C77.85,-310.16 106.92,-414.82 170,-471.5 174.52,-475.56 179.8,-478.96 185.35,-481.8"/>
<polygon fill="#63b8ff" stroke="#63b8ff" points="183.58,-484.85 194.14,-485.71 186.42,-478.45 183.58,-484.85"/>
</g>
<!-- Node14 -->
<g id="node4" class="node">
<title>Node14</title>
<g id="a_node4"><a xlink:href="pool_8c.html#a41cba27c25d33cb6822789a2856093f2" target="_top" xlink:title="Get a Buffer from the pool.">
<polygon fill="#fff0f0" stroke="red" points="422,-457 345,-457 345,-438 422,-438 422,-457"/>
<text text-anchor="middle" x="383.5" y="-445" font-family="Helvetica,sans-Serif" font-size="10.00">buf_pool_get</text>
</a>
</g>
</g>
<!-- Node1&#45;&gt;Node14 -->
<g id="edge3" class="edge">
<title>Node1&#45;&gt;Node14</title>
<path fill="none" stroke="#63b8ff" d="M71.14,-278.21C80.75,-306.19 112.64,-387.22 170,-422.5 219.48,-452.94 287.81,-455.52 333.49,-452.92"/>
<polygon fill="#63b8ff" stroke="#63b8ff" points="333.63,-456.41 343.37,-452.24 333.15,-449.43 333.63,-456.41"/>
</g>
<!-- Node19 -->
<g id="node5" class="node">
<title>Node19</title>
<g id="a_node5"><a xlink:href="pool_8c.html#a4cc6068279461cb8628219586dfa35a1" target="_top" xlink:title="Return a Buffer to the pool.">
<polygon fill="#fff0f0" stroke="red" points="431,-401 336,-401 336,-382 431,-382 431,-401"/>
<text text-anchor="middle" x="383.5" y="-389" font-family="Helvetica,sans-Serif" font-size="10.00">buf_pool_release</text>
</a>
</g>
</g>
<!-- Node1&#45;&gt;Node19 -->
<g id="edge4" class="edge">
<title>Node1&#45;&gt;Node19</title>
<path fill="none" stroke="#63b8ff" d="M71.87,-278.25C82.71,-304.08 116.19,-374.08 170,-400.5 224.43,-427.23 296.46,-415.96 341.12,-404.45"/>
<polygon fill="#63b8ff" stroke="#63b8ff" points="341.94,-407.86 350.67,-401.86 340.1,-401.1 341.94,-407.86"/>
</g>
<!-- Node653 -->
<g id="node6" class="node">
<title>Node653</title>
<g id="a_node6"><a xlink:href="muttlib_8c.html#a777680c324667521d8c486051c22fe10" target="_top" xlink:title="Shorten a mailbox path using &#39;~&#39; or &#39;=&#39;.">
<polygon fill="#fff0f0" stroke="red" points="288,-278 182,-278 182,-259 288,-259 288,-278"/>
<text text-anchor="middle" x="235" y="-266" font-family="Helvetica,sans-Serif" font-size="10.00">buf_pretty_mailbox</text>
</a>
</g>
</g>
<!-- Node1&#45;&gt;Node653 -->
<g id="edge5" class="edge">
<title>Node1&#45;&gt;Node653</title>
<path fill="none" stroke="#63b8ff" d="M134.08,-268.5C146.08,-268.5 158.56,-268.5 170.47,-268.5"/>
<polygon fill="#63b8ff" stroke="#63b8ff" points="170.17,-272 180.17,-268.5 170.17,-265 170.17,-272"/>
</g>
<!-- Node24 -->
<g id="node7" class="node">
<title>Node24</title>
<g id="a_node7"><a xlink:href="buffer_8c.html#ac958acbd189e463a2c3bbc2f23aaeb1e" target="_top" xlink:title="Copy a string into a Buffer.">
<polygon fill="#fff0f0" stroke="red" points="267.5,-241 202.5,-241 202.5,-222 267.5,-222 267.5,-241"/>
<text text-anchor="middle" x="235" y="-229" font-family="Helvetica,sans-Serif" font-size="10.00">buf_strcpy</text>
</a>
</g>
</g>
<!-- Node1&#45;&gt;Node24 -->
<g id="edge6" class="edge">
<title>Node1&#45;&gt;Node24</title>
<path fill="none" stroke="#63b8ff" d="M112.48,-258.58C136.86,-253.15 166.93,-246.45 191.06,-241.07"/>
<polygon fill="#63b8ff" stroke="#63b8ff" points="191.55,-244.55 200.55,-238.96 190.03,-237.72 191.55,-244.55"/>
</g>
<!-- Node25 -->
<g id="node8" class="node">
<title>Node25</title>
<g id="a_node8"><a xlink:href="buffer_8h.html#a728ebc5a947b77c8d56db44ce553a7ab" target="_top" xlink:title="Convert a buffer to a const char * &quot;string&quot;.">
<polygon fill="white" stroke="#666666" points="415.5,-354 351.5,-354 351.5,-335 415.5,-335 415.5,-354"/>
<text text-anchor="middle" x="383.5" y="-342" font-family="Helvetica,sans-Serif" font-size="10.00">buf_string</text>
</a>
</g>
</g>
<!-- Node1&#45;&gt;Node25 -->
<g id="edge7" class="edge">
<title>Node1&#45;&gt;Node25</title>
<path fill="none" stroke="#63b8ff" d="M109.12,-278.44C169.02,-292.91 279.75,-319.67 340.28,-334.3"/>
<polygon fill="#63b8ff" stroke="#63b8ff" points="339.31,-337.66 349.85,-336.61 340.96,-330.86 339.31,-337.66"/>
</g>
<!-- Node1275 -->
<g id="node9" class="node">
<title>Node1275</title>
<g id="a_node9"><a xlink:href="compose_2functions_8c.html#a0b0529f94fccff91159e173fb58a7c64" target="_top" xlink:title="Check if there are any attachments.">
<polygon fill="white" stroke="#666666" points="272,-204 198,-204 198,-185 272,-185 272,-204"/>
<text text-anchor="middle" x="235" y="-192" font-family="Helvetica,sans-Serif" font-size="10.00">check_count</text>
</a>
</g>
</g>
<!-- Node1&#45;&gt;Node1275 -->
<g id="edge8" class="edge">
<title>Node1&#45;&gt;Node1275</title>
<path fill="none" stroke="#63b8ff" d="M83.35,-258.62C102.85,-246.41 137.84,-225.65 170,-212.5 175.34,-210.32 181.03,-208.3 186.74,-206.47"/>
<polygon fill="#63b8ff" stroke="#63b8ff" points="187.62,-209.86 196.19,-203.62 185.6,-203.16 187.62,-209.86"/>
</g>
<!-- Node1276 -->
<g id="node10" class="node">
<title>Node1276</title>
<g id="a_node10"><a xlink:href="recvattach_8c.html#a718168300f4a21fa0c1a28321aeaa6ee" target="_top" xlink:title="Get the current attachment.">
<polygon fill="#fff0f0" stroke="red" points="289.5,-167 180.5,-167 180.5,-148 289.5,-148 289.5,-167"/>
<text text-anchor="middle" x="235" y="-155" font-family="Helvetica,sans-Serif" font-size="10.00">current_attachment</text>
</a>
</g>
</g>
<!-- Node1&#45;&gt;Node1276 -->
<g id="edge9" class="edge">
<title>Node1&#45;&gt;Node1276</title>
<path fill="none" stroke="#63b8ff" d="M75.9,-258.75C91.73,-239.84 129.35,-198.06 170,-175.5 172.52,-174.1 175.15,-172.81 177.85,-171.61"/>
<polygon fill="#63b8ff" stroke="#63b8ff" points="179.08,-174.88 187.12,-167.98 176.54,-168.36 179.08,-174.88"/>
</g>
<!-- Node476 -->
<g id="node11" class="node">
<title>Node476</title>
<g id="a_node11"><a xlink:href="menu_8c.html#a5a9733924cc01176ee916515a3683268" target="_top" xlink:title="Queue a request for a redraw.">
<polygon fill="white" stroke="#666666" points="292.5,-130 177.5,-130 177.5,-111 292.5,-111 292.5,-130"/>
<text text-anchor="middle" x="235" y="-118" font-family="Helvetica,sans-Serif" font-size="10.00">menu_queue_redraw</text>
</a>
</g>
</g>
<!-- Node1&#45;&gt;Node476 -->
<g id="edge10" class="edge">
<title>Node1&#45;&gt;Node476</title>
<path fill="none" stroke="#63b8ff" d="M72.9,-258.62C85.47,-234.28 121.37,-171.05 170,-138.5 171.8,-137.3 173.68,-136.17 175.61,-135.12"/>
<polygon fill="#63b8ff" stroke="#63b8ff" points="176.7,-138.48 184.31,-131.11 173.77,-132.12 176.7,-138.48"/>
</g>
<!-- Node1277 -->
<g id="node12" class="node">
<title>Node1277</title>
<g id="a_node12"><a xlink:href="file_8c.html#a8154bfd014904ca57b0ba2cfb31e26bc" target="_top" xlink:title="Rename a file.">
<polygon fill="#fff0f0" stroke="red" points="284,-93 186,-93 186,-74 284,-74 284,-93"/>
<text text-anchor="middle" x="235" y="-81" font-family="Helvetica,sans-Serif" font-size="10.00">mutt_file_rename</text>
</a>
</g>
</g>
<!-- Node1&#45;&gt;Node1277 -->
<g id="edge11" class="edge">
<title>Node1&#45;&gt;Node1277</title>
<path fill="none" stroke="#63b8ff" d="M71.05,-258.85C80.62,-230.17 112.86,-144.79 170,-101.5 171.76,-100.17 173.61,-98.93 175.54,-97.79"/>
<polygon fill="#63b8ff" stroke="#63b8ff" points="176.86,-101.04 184.28,-93.47 173.76,-94.76 176.86,-101.04"/>
</g>
<!-- Node1278 -->
<g id="node13" class="node">
<title>Node1278</title>
<g id="a_node13"><a xlink:href="hook_8c.html#af487ca5e3f7da21c86e3ad61fdb55faa" target="_top" xlink:title="Perform a message hook.">
<polygon fill="#fff0f0" stroke="red" points="291.5,-391 178.5,-391 178.5,-372 291.5,-372 291.5,-391"/>
<text text-anchor="middle" x="235" y="-379" font-family="Helvetica,sans-Serif" font-size="10.00">mutt_message_hook</text>
</a>
</g>
</g>
<!-- Node1&#45;&gt;Node1278 -->
<g id="edge12" class="edge">
<title>Node1&#45;&gt;Node1278</title>
<path fill="none" stroke="#63b8ff" d="M75.9,-278.31C91.75,-297.34 129.38,-339.43 170,-362.5 173.17,-364.3 176.54,-365.95 179.99,-367.45"/>
<polygon fill="#63b8ff" stroke="#63b8ff" points="178.55,-370.65 189.13,-370.99 181.07,-364.12 178.55,-370.65"/>
</g>
<!-- Node1283 -->
<g id="node14" class="node">
<title>Node1283</title>
<g id="a_node14"><a xlink:href="sendlib_8c.html#ae75843a591a8292e4f4e42df29c8b2d0" target="_top" xlink:title="Timestamp an Attachment.">
<polygon fill="#fff0f0" stroke="red" points="300,-56 170,-56 170,-37 300,-37 300,-56"/>
<text text-anchor="middle" x="235" y="-44" font-family="Helvetica,sans-Serif" font-size="10.00">mutt_stamp_attachment</text>
</a>
</g>
</g>
<!-- Node1&#45;&gt;Node1283 -->
<g id="edge16" class="edge">
<title>Node1&#45;&gt;Node1283</title>
<path fill="none" stroke="#63b8ff" d="M69.96,-258.65C77.04,-225.76 104.38,-118.73 170,-64.5 171.1,-63.59 172.25,-62.73 173.43,-61.91"/>
<polygon fill="#63b8ff" stroke="#63b8ff" points="174.79,-65.16 181.76,-57.18 171.33,-59.07 174.79,-65.16"/>
</g>
<!-- Node84 -->
<g id="node15" class="node">
<title>Node84</title>
<g id="a_node15"><a xlink:href="mutt_2string_8c.html#af8c32ffc64dd55e92001a974a4be6bbf" target="_top" xlink:title="Replace one string with another.">
<polygon fill="#fff0f0" stroke="red" points="282.5,-19 187.5,-19 187.5,0 282.5,0 282.5,-19"/>
<text text-anchor="middle" x="235" y="-7" font-family="Helvetica,sans-Serif" font-size="10.00">mutt_str_replace</text>
</a>
</g>
</g>
<!-- Node1&#45;&gt;Node84 -->
<g id="edge17" class="edge">
<title>Node1&#45;&gt;Node84</title>
<path fill="none" stroke="#63b8ff" d="M69.13,-258.73C73.87,-222.29 95.52,-93.13 170,-27.5 172.16,-25.6 174.51,-23.89 176.98,-22.37"/>
<polygon fill="#63b8ff" stroke="#63b8ff" points="178.32,-25.61 185.7,-18.01 175.19,-19.35 178.32,-25.61"/>
</g>
<!-- Node582 -->
<g id="node16" class="node">
<title>Node582</title>
<g id="a_node16"><a xlink:href="group__gui__mw.html#gabcbd2498b412e9f8e9d953cafc01989c" target="_top" xlink:title="Ask the user for a string &#45;.">
<polygon fill="#fff0f0" stroke="red" points="274,-354 196,-354 196,-335 274,-335 274,-354"/>
<text text-anchor="middle" x="235" y="-342" font-family="Helvetica,sans-Serif" font-size="10.00">mw_get_field</text>
</a>
</g>
</g>
<!-- Node1&#45;&gt;Node582 -->
<g id="edge18" class="edge">
<title>Node1&#45;&gt;Node582</title>
<path fill="none" stroke="#63b8ff" d="M85.76,-278.33C105.88,-289.28 139.81,-307.19 170,-320.5 177.93,-323.99 186.54,-327.45 194.8,-330.6"/>
<polygon fill="#63b8ff" stroke="#63b8ff" points="193.36,-333.8 203.95,-334.02 195.81,-327.24 193.36,-333.8"/>
</g>
<!-- Node1278&#45;&gt;Node14 -->
<g id="edge13" class="edge">
<title>Node1278&#45;&gt;Node14</title>
<path fill="none" stroke="#63b8ff" d="M257.93,-391.38C282.31,-402.37 321.94,-420.22 349.94,-432.83"/>
<polygon fill="#63b8ff" stroke="#63b8ff" points="348.48,-436.01 359.04,-436.93 351.36,-429.63 348.48,-436.01"/>
</g>
<!-- Node1278&#45;&gt;Node19 -->
<g id="edge14" class="edge">
<title>Node1278&#45;&gt;Node19</title>
<path fill="none" stroke="#63b8ff" d="M291.8,-385.31C302.49,-386.04 313.71,-386.8 324.46,-387.54"/>
<polygon fill="#63b8ff" stroke="#63b8ff" points="324.19,-391.03 334.4,-388.22 324.66,-384.04 324.19,-391.03"/>
</g>
<!-- Node1278&#45;&gt;Node25 -->
<g id="edge15" class="edge">
<title>Node1278&#45;&gt;Node25</title>
<path fill="none" stroke="#63b8ff" d="M275.26,-371.58C295.28,-366.53 319.66,-360.37 340.11,-355.21"/>
<polygon fill="#63b8ff" stroke="#63b8ff" points="340.71,-358.66 349.55,-352.82 339,-351.88 340.71,-358.66"/>
</g>
<!-- Node582&#45;&gt;Node25 -->
<g id="edge19" class="edge">
<title>Node582&#45;&gt;Node25</title>
<path fill="none" stroke="#63b8ff" d="M274.49,-344.5C294.57,-344.5 319.18,-344.5 339.84,-344.5"/>
<polygon fill="#63b8ff" stroke="#63b8ff" points="339.65,-348 349.65,-344.5 339.65,-341 339.65,-348"/>
</g>
</g>
</svg>
