<?xml version="1.0" encoding="UTF-8" standalone="no"?>
<!DOCTYPE svg PUBLIC "-//W3C//DTD SVG 1.1//EN"
 "http://www.w3.org/Graphics/SVG/1.1/DTD/svg11.dtd">
<!-- Generated by graphviz version 12.2.1 (20241206.2353)
 -->
<!-- Title: mutt_parse_idxfmt_hook Pages: 1 -->
<svg width="444pt" height="810pt"
 viewBox="0.00 0.00 443.75 809.51" xmlns="http://www.w3.org/2000/svg" xmlns:xlink="http://www.w3.org/1999/xlink">
<g id="graph0" class="graph" transform="scale(1 1) rotate(0) translate(4 805.51)">
<title>mutt_parse_idxfmt_hook</title>
<!-- Node1 -->
<g id="Node000001" class="node">
<title>Node1</title>
<g id="a_Node000001"><a xlink:title="Parse the &#39;index&#45;format&#45;hook&#39; command &#45; Implements Command::parse() &#45;.">
<polygon fill="#999999" stroke="#666666" points="131.5,-399.25 0,-399.25 0,-377 131.5,-377 131.5,-399.25"/>
<text text-anchor="middle" x="65.75" y="-385.75" font-family="Helvetica,sans-Serif" font-size="10.00">mutt_parse_idxfmt_hook</text>
</a>
</g>
</g>
<!-- Node2 -->
<g id="Node000002" class="node">
<title>Node2</title>
<g id="a_Node000002"><a xlink:href="pool_8c.html#a41cba27c25d33cb6822789a2856093f2" target="_top" xlink:title="Get a Buffer from the pool.">
<polygon fill="#fff0f0" stroke="red" points="426.75,-671.25 350,-671.25 350,-649 426.75,-649 426.75,-671.25"/>
<text text-anchor="middle" x="388.38" y="-657.75" font-family="Helvetica,sans-Serif" font-size="10.00">buf_pool_get</text>
</a>
</g>
</g>
<!-- Node1&#45;&gt;Node2 -->
<g id="edge1_Node000001_Node000002" class="edge">
<title>Node1&#45;&gt;Node2</title>
<g id="a_edge1_Node000001_Node000002"><a xlink:title=" ">
<path fill="none" stroke="#63b8ff" d="M66.24,-399.45C64.81,-446.01 66.35,-623.71 167.5,-697.12 225.07,-738.91 313.29,-701.64 358.49,-677.28"/>
<polygon fill="#63b8ff" stroke="#63b8ff" points="360.13,-680.37 367.17,-672.45 356.73,-674.25 360.13,-680.37"/>
</a>
</g>
</g>
<!-- Node10 -->
<g id="Node000010" class="node">
<title>Node10</title>
<g id="a_Node000010"><a xlink:href="pool_8c.html#a4cc6068279461cb8628219586dfa35a1" target="_top" xlink:title="Return a Buffer to the pool.">
<polygon fill="#fff0f0" stroke="red" points="435.75,-631.25 341,-631.25 341,-609 435.75,-609 435.75,-631.25"/>
<text text-anchor="middle" x="388.38" y="-617.75" font-family="Helvetica,sans-Serif" font-size="10.00">buf_pool_release</text>
</a>
</g>
</g>
<!-- Node1&#45;&gt;Node10 -->
<g id="edge2_Node000001_Node000010" class="edge">
<title>Node1&#45;&gt;Node10</title>
<g id="a_edge2_Node000001_Node000010"><a xlink:title=" ">
<path fill="none" stroke="#63b8ff" d="M68.23,-399.66C73.62,-436.42 95.79,-551.27 167.5,-601.12 214.58,-633.86 281.76,-634.82 329.45,-629.96"/>
<polygon fill="#63b8ff" stroke="#63b8ff" points="329.78,-633.44 339.32,-628.83 328.99,-626.49 329.78,-633.44"/>
</a>
</g>
</g>
<!-- Node15 -->
<g id="Node000015" class="node">
<title>Node15</title>
<g id="a_Node000015"><a xlink:href="buffer_8c.html#a02123807d31181ac701b566226e93b33" target="_top" xlink:title="Format a string overwriting a Buffer.">
<polygon fill="#fff0f0" stroke="red" points="419.62,-573.25 357.12,-573.25 357.12,-551 419.62,-551 419.62,-573.25"/>
<text text-anchor="middle" x="388.38" y="-559.75" font-family="Helvetica,sans-Serif" font-size="10.00">buf_printf</text>
</a>
</g>
</g>
<!-- Node1&#45;&gt;Node15 -->
<g id="edge3_Node000001_Node000015" class="edge">
<title>Node1&#45;&gt;Node15</title>
<g id="a_edge3_Node000001_Node000015"><a xlink:title=" ">
<path fill="none" stroke="#63b8ff" d="M73.19,-399.46C87.17,-422.98 122.67,-477.22 167.5,-505.12 175.16,-509.89 284.35,-537 345.91,-552.05"/>
<polygon fill="#63b8ff" stroke="#63b8ff" points="344.8,-555.38 355.34,-554.35 346.46,-548.58 344.8,-555.38"/>
</a>
</g>
</g>
<!-- Node17 -->
<g id="Node000017" class="node">
<title>Node17</title>
<g id="a_Node000017"><a xlink:href="buffer_8c.html#ad76477cc0c660bc50162393e997233eb" target="_top" xlink:title="Copy a Buffer&#39;s string.">
<polygon fill="#fff0f0" stroke="red" points="421.5,-785.25 355.25,-785.25 355.25,-763 421.5,-763 421.5,-785.25"/>
<text text-anchor="middle" x="388.38" y="-771.75" font-family="Helvetica,sans-Serif" font-size="10.00">buf_strdup</text>
</a>
</g>
</g>
<!-- Node1&#45;&gt;Node17 -->
<g id="edge4_Node000001_Node000017" class="edge">
<title>Node1&#45;&gt;Node17</title>
<g id="a_edge4_Node000001_Node000017"><a xlink:title=" ">
<path fill="none" stroke="#63b8ff" d="M67.89,-399.65C74.02,-458.74 105.02,-726.83 167.5,-775.12 217.83,-814.03 295.8,-801.86 344.1,-788.63"/>
<polygon fill="#63b8ff" stroke="#63b8ff" points="345.03,-792 353.66,-785.87 343.09,-785.28 345.03,-792"/>
</a>
</g>
</g>
<!-- Node19 -->
<g id="Node000019" class="node">
<title>Node19</title>
<g id="a_Node000019"><a xlink:href="buffer_8h.html#a728ebc5a947b77c8d56db44ce553a7ab" target="_top" xlink:title="Convert a buffer to a const char * &quot;string&quot;.">
<polygon fill="white" stroke="#666666" points="420,-496.25 356.75,-496.25 356.75,-474 420,-474 420,-496.25"/>
<text text-anchor="middle" x="388.38" y="-482.75" font-family="Helvetica,sans-Serif" font-size="10.00">buf_string</text>
</a>
</g>
</g>
<!-- Node1&#45;&gt;Node19 -->
<g id="edge5_Node000001_Node000019" class="edge">
<title>Node1&#45;&gt;Node19</title>
<g id="a_edge5_Node000001_Node000019"><a xlink:title=" ">
<path fill="none" stroke="#63b8ff" d="M98.35,-399.65C118.13,-406.72 144.18,-415.79 167.5,-423.12 228.93,-442.44 300.89,-462.19 345.3,-474.06"/>
<polygon fill="#63b8ff" stroke="#63b8ff" points="344.23,-477.4 354.79,-476.59 346.03,-470.63 344.23,-477.4"/>
</a>
</g>
</g>
<!-- Node20 -->
<g id="Node000020" class="node">
<title>Node20</title>
<g id="a_Node000020"><a xlink:href="config_2helpers_8c.html#a6b1589ee93ff51ef31f1d9324e138078" target="_top" xlink:title="Get a string config item by name.">
<polygon fill="#fff0f0" stroke="red" points="282.12,-380.25 190.38,-380.25 190.38,-358 282.12,-358 282.12,-380.25"/>
<text text-anchor="middle" x="236.25" y="-366.75" font-family="Helvetica,sans-Serif" font-size="10.00">cs_subset_string</text>
</a>
</g>
</g>
<!-- Node1&#45;&gt;Node20 -->
<g id="edge7_Node000001_Node000020" class="edge">
<title>Node1&#45;&gt;Node20</title>
<g id="a_edge7_Node000001_Node000020"><a xlink:title=" ">
<path fill="none" stroke="#63b8ff" d="M131.9,-380.78C147.39,-379.03 163.8,-377.18 178.87,-375.48"/>
<polygon fill="#63b8ff" stroke="#63b8ff" points="179.04,-378.98 188.59,-374.39 178.26,-372.03 179.04,-378.98"/>
</a>
</g>
</g>
<!-- Node34 -->
<g id="Node000034" class="node">
<title>Node34</title>
<g id="a_Node000034"><a xlink:href="expando_2expando_8c.html#a949d8a4d7721966b8f8fdba9e9db10b3" target="_top" xlink:title="Free an Expando object.">
<polygon fill="#fff0f0" stroke="red" points="428.25,-322.25 348.5,-322.25 348.5,-300 428.25,-300 428.25,-322.25"/>
<text text-anchor="middle" x="388.38" y="-308.75" font-family="Helvetica,sans-Serif" font-size="10.00">expando_free</text>
</a>
</g>
</g>
<!-- Node1&#45;&gt;Node34 -->
<g id="edge8_Node000001_Node000034" class="edge">
<title>Node1&#45;&gt;Node34</title>
<g id="a_edge8_Node000001_Node000034"><a xlink:title=" ">
<path fill="none" stroke="#63b8ff" d="M92.37,-376.58C112.45,-367.93 141.29,-356.39 167.5,-349.12 224.68,-333.29 292.15,-322.8 337.12,-316.93"/>
<polygon fill="#63b8ff" stroke="#63b8ff" points="337.36,-320.42 346.83,-315.69 336.47,-313.48 337.36,-320.42"/>
</a>
</g>
</g>
<!-- Node36 -->
<g id="Node000036" class="node">
<title>Node36</title>
<g id="a_Node000036"><a xlink:href="expando_2expando_8c.html#a301a11afc09d7f98e652604400c6680b" target="_top" xlink:title="Parse an Expando string.">
<polygon fill="#fff0f0" stroke="red" points="279.5,-302.25 193,-302.25 193,-280 279.5,-280 279.5,-302.25"/>
<text text-anchor="middle" x="236.25" y="-288.75" font-family="Helvetica,sans-Serif" font-size="10.00">expando_parse</text>
</a>
</g>
</g>
<!-- Node1&#45;&gt;Node36 -->
<g id="edge9_Node000001_Node000036" class="edge">
<title>Node1&#45;&gt;Node36</title>
<g id="a_edge9_Node000001_Node000036"><a xlink:title=" ">
<path fill="none" stroke="#63b8ff" d="M80.32,-376.61C98.98,-361.22 134.06,-333.83 167.5,-316.12 174.05,-312.66 181.19,-309.46 188.3,-306.59"/>
<polygon fill="#63b8ff" stroke="#63b8ff" points="189.12,-310.02 197.2,-303.17 186.61,-303.48 189.12,-310.02"/>
</a>
</g>
</g>
<!-- Node79 -->
<g id="Node000079" class="node">
<title>Node79</title>
<g id="a_Node000079"><a xlink:href="index_8c.html#a5915d8b932eb86633f1d7d65a8c83289" target="_top" xlink:title="Get the current Mailbox view.">
<polygon fill="#fff0f0" stroke="red" points="304.25,-262.25 168.25,-262.25 168.25,-240 304.25,-240 304.25,-262.25"/>
<text text-anchor="middle" x="236.25" y="-248.75" font-family="Helvetica,sans-Serif" font-size="10.00">get_current_mailbox_view</text>
</a>
</g>
</g>
<!-- Node1&#45;&gt;Node79 -->
<g id="edge11_Node000001_Node000079" class="edge">
<title>Node1&#45;&gt;Node79</title>
<g id="a_edge11_Node000001_Node000079"><a xlink:title=" ">
<path fill="none" stroke="#63b8ff" d="M73.49,-376.55C87.75,-353.07 123.37,-299.63 167.5,-271.12 169.59,-269.77 171.78,-268.51 174.03,-267.33"/>
<polygon fill="#63b8ff" stroke="#63b8ff" points="175.23,-270.63 182.87,-263.3 172.32,-264.26 175.23,-270.63"/>
</a>
</g>
</g>
<!-- Node82 -->
<g id="Node000082" class="node">
<title>Node82</title>
<g id="a_Node000082"><a xlink:href="hook_8c.html#af03b03a2d048b4a3972e4737a025183b" target="_top" xlink:title="Create a Hook.">
<polygon fill="white" stroke="#666666" points="267.5,-222.25 205,-222.25 205,-200 267.5,-200 267.5,-222.25"/>
<text text-anchor="middle" x="236.25" y="-208.75" font-family="Helvetica,sans-Serif" font-size="10.00">hook_new</text>
</a>
</g>
</g>
<!-- Node1&#45;&gt;Node82 -->
<g id="edge12_Node000001_Node000082" class="edge">
<title>Node1&#45;&gt;Node82</title>
<g id="a_edge12_Node000001_Node000082"><a xlink:title=" ">
<path fill="none" stroke="#63b8ff" d="M70.83,-376.66C81.73,-347.68 114.39,-270.97 167.5,-231.12 175.17,-225.37 184.48,-221.26 193.71,-218.34"/>
<polygon fill="#63b8ff" stroke="#63b8ff" points="194.61,-221.72 203.35,-215.72 192.78,-214.96 194.61,-221.72"/>
</a>
</g>
</g>
<!-- Node83 -->
<g id="Node000083" class="node">
<title>Node83</title>
<g id="a_Node000083"><a xlink:href="group__hash__hdata__free__api.html#ga6c55d68e0ab13d9aaf342c1fd33f3399" target="_top" xlink:title="Free our hash table data &#45; Implements hash_hdata_free_t &#45;.">
<polygon fill="#fff0f0" stroke="red" points="296,-182.25 176.5,-182.25 176.5,-160 296,-160 296,-182.25"/>
<text text-anchor="middle" x="236.25" y="-168.75" font-family="Helvetica,sans-Serif" font-size="10.00">idxfmt_hashelem_free</text>
</a>
</g>
</g>
<!-- Node1&#45;&gt;Node83 -->
<g id="edge13_Node000001_Node000083" class="edge">
<title>Node1&#45;&gt;Node83</title>
<g id="a_edge13_Node000001_Node000083"><a xlink:title=" ">
<path fill="none" stroke="#63b8ff" d="M69.21,-376.8C77.13,-343.15 105.12,-242.88 167.5,-191.12 168.77,-190.07 170.09,-189.08 171.46,-188.13"/>
<polygon fill="#63b8ff" stroke="#63b8ff" points="172.79,-191.4 179.71,-183.38 169.3,-185.34 172.79,-191.4"/>
</a>
</g>
</g>
<!-- Node87 -->
<g id="Node000087" class="node">
<title>Node87</title>
<g id="a_Node000087"><a xlink:href="pattern_8c.html#ac4be56068a28743c1ca64c1e61e76ae2" target="_top" xlink:title="Convert a simple search into a real request.">
<polygon fill="#fff0f0" stroke="red" points="288.12,-496.25 184.38,-496.25 184.38,-474 288.12,-474 288.12,-496.25"/>
<text text-anchor="middle" x="236.25" y="-482.75" font-family="Helvetica,sans-Serif" font-size="10.00">mutt_check_simple</text>
</a>
</g>
</g>
<!-- Node1&#45;&gt;Node87 -->
<g id="edge14_Node000001_Node000087" class="edge">
<title>Node1&#45;&gt;Node87</title>
<g id="a_edge14_Node000001_Node000087"><a xlink:title=" ">
<path fill="none" stroke="#63b8ff" d="M80.32,-399.64C98.98,-415.03 134.06,-442.42 167.5,-460.12 174.05,-463.59 181.19,-466.79 188.3,-469.66"/>
<polygon fill="#63b8ff" stroke="#63b8ff" points="186.61,-472.77 197.2,-473.08 189.12,-466.23 186.61,-472.77"/>
</a>
</g>
</g>
<!-- Node91 -->
<g id="Node000091" class="node">
<title>Node91</title>
<g id="a_Node000091"><a xlink:href="mutt_2string_8c.html#a6b6a50296dd2a31863a43379ef4a343d" target="_top" xlink:title="Compare two strings.">
<polygon fill="#fff0f0" stroke="red" points="431.25,-438.25 345.5,-438.25 345.5,-416 431.25,-416 431.25,-438.25"/>
<text text-anchor="middle" x="388.38" y="-424.75" font-family="Helvetica,sans-Serif" font-size="10.00">mutt_str_equal</text>
</a>
</g>
</g>
<!-- Node1&#45;&gt;Node91 -->
<g id="edge32_Node000001_Node000091" class="edge">
<title>Node1&#45;&gt;Node91</title>
<g id="a_edge32_Node000001_Node000091"><a xlink:title=" ">
<path fill="none" stroke="#63b8ff" d="M131.63,-396.02C191.08,-403.25 278.06,-413.83 333.69,-420.6"/>
<polygon fill="#63b8ff" stroke="#63b8ff" points="333.22,-424.06 343.56,-421.8 334.06,-417.11 333.22,-424.06"/>
</a>
</g>
</g>
<!-- Node94 -->
<g id="Node000094" class="node">
<title>Node94</title>
<g id="a_Node000094"><a xlink:href="commands_8c.html#aef2d030e6e9498e89343f12c2fa918b8" target="_top" xlink:title="Get the current file path that is being parsed.">
<polygon fill="#fff0f0" stroke="red" points="297.5,-766.25 175,-766.25 175,-744 297.5,-744 297.5,-766.25"/>
<text text-anchor="middle" x="236.25" y="-752.75" font-family="Helvetica,sans-Serif" font-size="10.00">mutt_get_sourced_cwd</text>
</a>
</g>
</g>
<!-- Node1&#45;&gt;Node94 -->
<g id="edge19_Node000001_Node000094" class="edge">
<title>Node1&#45;&gt;Node94</title>
<g id="a_edge19_Node000001_Node000094"><a xlink:title=" ">
<path fill="none" stroke="#63b8ff" d="M66.64,-399.63C66.84,-447.1 73.86,-629.98 167.5,-730.12 170.24,-733.05 173.35,-735.64 176.7,-737.92"/>
<polygon fill="#63b8ff" stroke="#63b8ff" points="174.91,-740.93 185.33,-742.85 178.38,-734.85 174.91,-740.93"/>
</a>
</g>
</g>
<!-- Node97 -->
<g id="Node000097" class="node">
<title>Node97</title>
<g id="a_Node000097"><a xlink:href="hash_8c.html#a21cfc2c56db496fc57d3d85a71c03215" target="_top" xlink:title="Find the HashElem data in a Hash Table element using a key.">
<polygon fill="#fff0f0" stroke="red" points="279.88,-142.25 192.62,-142.25 192.62,-120 279.88,-120 279.88,-142.25"/>
<text text-anchor="middle" x="236.25" y="-128.75" font-family="Helvetica,sans-Serif" font-size="10.00">mutt_hash_find</text>
</a>
</g>
</g>
<!-- Node1&#45;&gt;Node97 -->
<g id="edge23_Node000001_Node000097" class="edge">
<title>Node1&#45;&gt;Node97</title>
<g id="a_edge23_Node000001_Node000097"><a xlink:title=" ">
<path fill="none" stroke="#63b8ff" d="M68.15,-376.76C73.45,-338.78 95.74,-215.08 167.5,-151.12 171.74,-147.35 176.66,-144.28 181.88,-141.79"/>
<polygon fill="#63b8ff" stroke="#63b8ff" points="182.79,-145.2 190.78,-138.25 180.2,-138.7 182.79,-145.2"/>
</a>
</g>
</g>
<!-- Node99 -->
<g id="Node000099" class="node">
<title>Node99</title>
<g id="a_Node000099"><a xlink:href="hash_8c.html#a10bd305a8183db9829caee9ea1bac2f5" target="_top" xlink:title="Add a new element to the Hash Table (with string keys)">
<polygon fill="#fff0f0" stroke="red" points="284.38,-102.25 188.12,-102.25 188.12,-80 284.38,-80 284.38,-102.25"/>
<text text-anchor="middle" x="236.25" y="-88.75" font-family="Helvetica,sans-Serif" font-size="10.00">mutt_hash_insert</text>
</a>
</g>
</g>
<!-- Node1&#45;&gt;Node99 -->
<g id="edge24_Node000001_Node000099" class="edge">
<title>Node1&#45;&gt;Node99</title>
<g id="a_edge24_Node000001_Node000099"><a xlink:title=" ">
<path fill="none" stroke="#63b8ff" d="M67.38,-376.68C70.31,-334.68 86.22,-187.53 167.5,-111.12 170.54,-108.27 173.96,-105.82 177.62,-103.72"/>
<polygon fill="#63b8ff" stroke="#63b8ff" points="178.83,-107.02 186.37,-99.58 175.83,-100.69 178.83,-107.02"/>
</a>
</g>
</g>
<!-- Node100 -->
<g id="Node000100" class="node">
<title>Node100</title>
<g id="a_Node000100"><a xlink:href="hash_8c.html#a75439958fb5faf57c039faec79d19998" target="_top" xlink:title="Create a new Hash Table (with string keys)">
<polygon fill="#fff0f0" stroke="red" points="280.25,-62.25 192.25,-62.25 192.25,-40 280.25,-40 280.25,-62.25"/>
<text text-anchor="middle" x="236.25" y="-48.75" font-family="Helvetica,sans-Serif" font-size="10.00">mutt_hash_new</text>
</a>
</g>
</g>
<!-- Node1&#45;&gt;Node100 -->
<g id="edge25_Node000001_Node000100" class="edge">
<title>Node1&#45;&gt;Node100</title>
<g id="a_edge25_Node000001_Node000100"><a xlink:title=" ">
<path fill="none" stroke="#63b8ff" d="M66.78,-376.67C67.53,-331.01 76.54,-160.23 167.5,-71.12 171.61,-67.1 176.49,-63.88 181.72,-61.3"/>
<polygon fill="#63b8ff" stroke="#63b8ff" points="182.74,-64.66 190.69,-57.66 180.11,-58.17 182.74,-64.66"/>
</a>
</g>
</g>
<!-- Node106 -->
<g id="Node000106" class="node">
<title>Node106</title>
<g id="a_Node000106"><a xlink:href="hash_8c.html#a8fdd3fbf2f93e78267168d3a8d2b4d79" target="_top" xlink:title="Set the destructor for a Hash Table.">
<polygon fill="white" stroke="#666666" points="305,-22.25 167.5,-22.25 167.5,0 305,0 305,-22.25"/>
<text text-anchor="middle" x="236.25" y="-8.75" font-family="Helvetica,sans-Serif" font-size="10.00">mutt_hash_set_destructor</text>
</a>
</g>
</g>
<!-- Node1&#45;&gt;Node106 -->
<g id="edge26_Node000001_Node000106" class="edge">
<title>Node1&#45;&gt;Node106</title>
<g id="a_edge26_Node000001_Node000106"><a xlink:title=" ">
<path fill="none" stroke="#63b8ff" d="M66.3,-376.62C65.03,-327.48 66.79,-133.05 167.5,-31.12 168.11,-30.5 168.75,-29.9 169.4,-29.32"/>
<polygon fill="#63b8ff" stroke="#63b8ff" points="171.31,-32.25 177.43,-23.6 167.25,-26.55 171.31,-32.25"/>
</a>
</g>
</g>
<!-- Node107 -->
<g id="Node000107" class="node">
<title>Node107</title>
<g id="a_Node000107"><a xlink:href="compile_8c.html#a43039fbeb001087dad2a07081ca9526e" target="_top" xlink:title="Create a Pattern.">
<polygon fill="#fff0f0" stroke="red" points="290.38,-670.25 182.12,-670.25 182.12,-648 290.38,-648 290.38,-670.25"/>
<text text-anchor="middle" x="236.25" y="-656.75" font-family="Helvetica,sans-Serif" font-size="10.00">mutt_pattern_comp</text>
</a>
</g>
</g>
<!-- Node1&#45;&gt;Node107 -->
<g id="edge27_Node000001_Node000107" class="edge">
<title>Node1&#45;&gt;Node107</title>
<g id="a_edge27_Node000001_Node000107"><a xlink:title=" ">
<path fill="none" stroke="#63b8ff" d="M68.18,-399.73C73.57,-438.54 96.11,-565.21 167.5,-634.12 170.71,-637.22 174.33,-639.94 178.19,-642.32"/>
<polygon fill="#63b8ff" stroke="#63b8ff" points="176.36,-645.32 186.84,-646.89 179.63,-639.12 176.36,-645.32"/>
</a>
</g>
</g>
<!-- Node126 -->
<g id="Node000126" class="node">
<title>Node126</title>
<g id="a_Node000126"><a xlink:href="extract_8c.html#a2bdbddd6f12833e1b893bbffda6d64a3" target="_top" xlink:title="Extract one token from a string.">
<polygon fill="#fff0f0" stroke="red" points="291.12,-574.25 181.38,-574.25 181.38,-552 291.12,-552 291.12,-574.25"/>
<text text-anchor="middle" x="236.25" y="-560.75" font-family="Helvetica,sans-Serif" font-size="10.00">parse_extract_token</text>
</a>
</g>
</g>
<!-- Node1&#45;&gt;Node126 -->
<g id="edge33_Node000001_Node000126" class="edge">
<title>Node1&#45;&gt;Node126</title>
<g id="a_edge33_Node000001_Node000126"><a xlink:title=" ">
<path fill="none" stroke="#63b8ff" d="M71.48,-399.69C83.42,-427.5 117.44,-498.76 167.5,-538.12 171.71,-541.44 176.41,-544.34 181.31,-546.88"/>
<polygon fill="#63b8ff" stroke="#63b8ff" points="179.64,-549.96 190.18,-550.96 182.56,-543.6 179.64,-549.96"/>
</a>
</g>
</g>
<!-- Node19&#45;&gt;Node19 -->
<g id="edge6_Node000019_Node000019" class="edge">
<title>Node19&#45;&gt;Node19</title>
<g id="a_edge6_Node000019_Node000019"><a xlink:title=" ">
<path fill="none" stroke="#63b8ff" d="M363.54,-496.49C354.25,-505.28 362.53,-514.25 388.38,-514.25 402.51,-514.25 411.39,-511.57 415.02,-507.7"/>
<polygon fill="#63b8ff" stroke="#63b8ff" points="418.5,-507.3 413.46,-497.98 411.59,-508.41 418.5,-507.3"/>
</a>
</g>
</g>
<!-- Node36&#45;&gt;Node34 -->
<g id="edge10_Node000036_Node000034" class="edge">
<title>Node36&#45;&gt;Node34</title>
<g id="a_edge10_Node000036_Node000034"><a xlink:title=" ">
<path fill="none" stroke="#63b8ff" d="M279.87,-296.8C297.67,-299.17 318.49,-301.95 337.04,-304.42"/>
<polygon fill="#63b8ff" stroke="#63b8ff" points="336.37,-307.86 346.75,-305.71 337.3,-300.92 336.37,-307.86"/>
</a>
</g>
</g>
<!-- Node87&#45;&gt;Node2 -->
<g id="edge15_Node000087_Node000002" class="edge">
<title>Node87&#45;&gt;Node2</title>
<g id="a_edge15_Node000087_Node000002"><a xlink:title=" ">
<path fill="none" stroke="#63b8ff" d="M255.34,-496.71C270.46,-507.22 291.62,-523.95 305,-543.12 331.31,-580.84 309.34,-606.78 341,-640.12 341.59,-640.74 342.2,-641.35 342.83,-641.93"/>
<polygon fill="#63b8ff" stroke="#63b8ff" points="340.58,-644.62 350.72,-647.67 344.69,-638.96 340.58,-644.62"/>
</a>
</g>
</g>
<!-- Node87&#45;&gt;Node10 -->
<g id="edge16_Node000087_Node000010" class="edge">
<title>Node87&#45;&gt;Node10</title>
<g id="a_edge16_Node000087_Node000010"><a xlink:title=" ">
<path fill="none" stroke="#63b8ff" d="M251.69,-496.65C265.7,-508.04 287.38,-526.15 305,-543.12 321.99,-559.49 323.84,-565.94 341,-582.12 348.03,-588.75 356.06,-595.57 363.44,-601.57"/>
<polygon fill="#63b8ff" stroke="#63b8ff" points="361.13,-604.2 371.13,-607.7 365.5,-598.73 361.13,-604.2"/>
</a>
</g>
</g>
<!-- Node87&#45;&gt;Node19 -->
<g id="edge17_Node000087_Node000019" class="edge">
<title>Node87&#45;&gt;Node19</title>
<g id="a_edge17_Node000087_Node000019"><a xlink:title=" ">
<path fill="none" stroke="#63b8ff" d="M288.49,-485.12C306.94,-485.12 327.53,-485.12 345.12,-485.12"/>
<polygon fill="#63b8ff" stroke="#63b8ff" points="344.96,-488.63 354.96,-485.13 344.96,-481.63 344.96,-488.63"/>
</a>
</g>
</g>
<!-- Node87&#45;&gt;Node91 -->
<g id="edge18_Node000087_Node000091" class="edge">
<title>Node87&#45;&gt;Node91</title>
<g id="a_edge18_Node000087_Node000091"><a xlink:title=" ">
<path fill="none" stroke="#63b8ff" d="M267.27,-473.53C290.08,-464.72 321.69,-452.5 346.76,-442.82"/>
<polygon fill="#63b8ff" stroke="#63b8ff" points="347.93,-446.12 356,-439.25 345.41,-439.59 347.93,-446.12"/>
</a>
</g>
</g>
<!-- Node94&#45;&gt;Node2 -->
<g id="edge20_Node000094_Node000002" class="edge">
<title>Node94&#45;&gt;Node2</title>
<g id="a_edge20_Node000094_Node000002"><a xlink:title=" ">
<path fill="none" stroke="#63b8ff" d="M275.59,-743.63C285.49,-739.96 295.91,-735.44 305,-730.12 328.92,-716.14 352.65,-695 368.46,-679.61"/>
<polygon fill="#63b8ff" stroke="#63b8ff" points="370.68,-682.34 375.3,-672.8 365.74,-677.38 370.68,-682.34"/>
</a>
</g>
</g>
<!-- Node94&#45;&gt;Node10 -->
<g id="edge21_Node000094_Node000010" class="edge">
<title>Node94&#45;&gt;Node10</title>
<g id="a_edge21_Node000094_Node000010"><a xlink:title=" ">
<path fill="none" stroke="#63b8ff" d="M253.23,-743.64C267.78,-732.71 289.3,-715.28 305,-697.12 324.6,-674.46 318.23,-659.59 341,-640.12 342.09,-639.2 343.22,-638.3 344.4,-637.45"/>
<polygon fill="#63b8ff" stroke="#63b8ff" points="346,-640.57 352.71,-632.37 342.35,-634.6 346,-640.57"/>
</a>
</g>
</g>
<!-- Node94&#45;&gt;Node17 -->
<g id="edge22_Node000094_Node000017" class="edge">
<title>Node94&#45;&gt;Node17</title>
<g id="a_edge22_Node000094_Node000017"><a xlink:title=" ">
<path fill="none" stroke="#63b8ff" d="M297.88,-762.8C313.29,-764.75 329.54,-766.81 343.91,-768.62"/>
<polygon fill="#63b8ff" stroke="#63b8ff" points="343.11,-772.05 353.47,-769.83 343.99,-765.11 343.11,-772.05"/>
</a>
</g>
</g>
<!-- Node107&#45;&gt;Node2 -->
<g id="edge28_Node000107_Node000002" class="edge">
<title>Node107&#45;&gt;Node2</title>
<g id="a_edge28_Node000107_Node000002"><a xlink:title=" ">
<path fill="none" stroke="#63b8ff" d="M290.6,-659.48C306.18,-659.58 323.13,-659.7 338.42,-659.8"/>
<polygon fill="#63b8ff" stroke="#63b8ff" points="338.21,-663.3 348.23,-659.86 338.26,-656.3 338.21,-663.3"/>
</a>
</g>
</g>
<!-- Node107&#45;&gt;Node10 -->
<g id="edge29_Node000107_Node000010" class="edge">
<title>Node107&#45;&gt;Node10</title>
<g id="a_edge29_Node000107_Node000010"><a xlink:title=" ">
<path fill="none" stroke="#63b8ff" d="M281.89,-647.53C297.48,-643.48 315.17,-638.88 331.56,-634.62"/>
<polygon fill="#63b8ff" stroke="#63b8ff" points="332.39,-638.03 341.19,-632.12 330.63,-631.25 332.39,-638.03"/>
</a>
</g>
</g>
<!-- Node107&#45;&gt;Node15 -->
<g id="edge30_Node000107_Node000015" class="edge">
<title>Node107&#45;&gt;Node15</title>
<g id="a_edge30_Node000107_Node000015"><a xlink:title=" ">
<path fill="none" stroke="#63b8ff" d="M255.06,-647.62C281.02,-630.84 329.47,-599.54 359.98,-579.82"/>
<polygon fill="#63b8ff" stroke="#63b8ff" points="361.82,-582.81 368.32,-574.44 358.02,-576.93 361.82,-582.81"/>
</a>
</g>
</g>
<!-- Node107&#45;&gt;Node107 -->
<g id="edge31_Node000107_Node000107" class="edge">
<title>Node107&#45;&gt;Node107</title>
<g id="a_edge31_Node000107_Node000107"><a xlink:title=" ">
<path fill="none" stroke="#63b8ff" d="M211.41,-670.49C202.12,-679.28 210.4,-688.25 236.25,-688.25 250.39,-688.25 259.27,-685.57 262.9,-681.7"/>
<polygon fill="#63b8ff" stroke="#63b8ff" points="266.38,-681.3 261.33,-671.98 259.46,-682.41 266.38,-681.3"/>
</a>
</g>
</g>
<!-- Node126&#45;&gt;Node2 -->
<g id="edge34_Node000126_Node000002" class="edge">
<title>Node126&#45;&gt;Node2</title>
<g id="a_edge34_Node000126_Node000002"><a xlink:title=" ">
<path fill="none" stroke="#63b8ff" d="M250.64,-574.66C269.76,-590.75 306.41,-620.19 341,-640.12 343.16,-641.37 345.41,-642.59 347.71,-643.76"/>
<polygon fill="#63b8ff" stroke="#63b8ff" points="346.03,-646.84 356.56,-647.99 349.05,-640.52 346.03,-646.84"/>
</a>
</g>
</g>
<!-- Node126&#45;&gt;Node10 -->
<g id="edge35_Node000126_Node000010" class="edge">
<title>Node126&#45;&gt;Node10</title>
<g id="a_edge35_Node000126_Node000010"><a xlink:title=" ">
<path fill="none" stroke="#63b8ff" d="M267.63,-574.66C290.24,-583.25 321.36,-595.06 346.21,-604.5"/>
<polygon fill="#63b8ff" stroke="#63b8ff" points="344.78,-607.69 355.37,-607.97 347.26,-601.15 344.78,-607.69"/>
</a>
</g>
</g>
<!-- Node126&#45;&gt;Node19 -->
<g id="edge36_Node000126_Node000019" class="edge">
<title>Node126&#45;&gt;Node19</title>
<g id="a_edge36_Node000126_Node000019"><a xlink:title=" ">
<path fill="none" stroke="#63b8ff" d="M259.4,-551.62C284.68,-538.48 326.25,-516.88 355.12,-501.88"/>
<polygon fill="#63b8ff" stroke="#63b8ff" points="356.53,-505.1 363.79,-497.38 353.3,-498.88 356.53,-505.1"/>
</a>
</g>
</g>
<!-- Node126&#45;&gt;Node126 -->
<g id="edge37_Node000126_Node000126" class="edge">
<title>Node126&#45;&gt;Node126</title>
<g id="a_edge37_Node000126_Node000126"><a xlink:title=" ">
<path fill="none" stroke="#63b8ff" d="M211.41,-574.49C202.12,-583.28 210.4,-592.25 236.25,-592.25 250.39,-592.25 259.27,-589.57 262.9,-585.7"/>
<polygon fill="#63b8ff" stroke="#63b8ff" points="266.38,-585.3 261.33,-575.98 259.46,-586.41 266.38,-585.3"/>
</a>
</g>
</g>
</g>
</svg>
