<?xml version="1.0" encoding="UTF-8" standalone="no"?>
<!DOCTYPE svg PUBLIC "-//W3C//DTD SVG 1.1//EN"
 "http://www.w3.org/Graphics/SVG/1.1/DTD/svg11.dtd">
<!-- Generated by graphviz version 12.2.1 (20241206.2353)
 -->
<!-- Title: op_mark_msg Pages: 1 -->
<svg width="352pt" height="356pt"
 viewBox="0.00 0.00 351.50 356.25" xmlns="http://www.w3.org/2000/svg" xmlns:xlink="http://www.w3.org/1999/xlink">
<g id="graph0" class="graph" transform="scale(1 1) rotate(0) translate(4 352.25)">
<title>op_mark_msg</title>
<!-- Node1 -->
<g id="Node000001" class="node">
<title>Node1</title>
<g id="a_Node000001"><a xlink:title="Create a hotkey macro for the current message &#45; Implements index_function_t &#45;.">
<polygon fill="#999999" stroke="#666666" points="80.5,-193.25 0,-193.25 0,-171 80.5,-171 80.5,-193.25"/>
<text text-anchor="middle" x="40.25" y="-179.75" font-family="Helvetica,sans-Serif" font-size="10.00">op_mark_msg</text>
</a>
</g>
</g>
<!-- Node2 -->
<g id="Node000002" class="node">
<title>Node2</title>
<g id="a_Node000002"><a xlink:href="buffer_8c.html#a4245e227baa2a9beb6991917404aab0d" target="_top" xlink:title="Is the Buffer empty?">
<polygon fill="#fff0f0" stroke="red" points="203.38,-348.25 125.88,-348.25 125.88,-326 203.38,-326 203.38,-348.25"/>
<text text-anchor="middle" x="164.62" y="-334.75" font-family="Helvetica,sans-Serif" font-size="10.00">buf_is_empty</text>
</a>
</g>
</g>
<!-- Node1&#45;&gt;Node2 -->
<g id="edge1_Node000001_Node000002" class="edge">
<title>Node1&#45;&gt;Node2</title>
<g id="a_edge1_Node000001_Node000002"><a xlink:title=" ">
<path fill="none" stroke="#63b8ff" d="M45.36,-193.6C54.64,-218.12 79.32,-276.3 116.5,-312.12 119.48,-314.99 122.85,-317.62 126.38,-320"/>
<polygon fill="#63b8ff" stroke="#63b8ff" points="124.3,-322.84 134.68,-324.97 127.89,-316.83 124.3,-322.84"/>
</a>
</g>
</g>
<!-- Node5 -->
<g id="Node000005" class="node">
<title>Node5</title>
<g id="a_Node000005"><a xlink:href="pool_8c.html#a41cba27c25d33cb6822789a2856093f2" target="_top" xlink:title="Get a Buffer from the pool.">
<polygon fill="#fff0f0" stroke="red" points="334.5,-308.25 257.75,-308.25 257.75,-286 334.5,-286 334.5,-308.25"/>
<text text-anchor="middle" x="296.12" y="-294.75" font-family="Helvetica,sans-Serif" font-size="10.00">buf_pool_get</text>
</a>
</g>
</g>
<!-- Node1&#45;&gt;Node5 -->
<g id="edge2_Node000001_Node000005" class="edge">
<title>Node1&#45;&gt;Node5</title>
<g id="a_edge2_Node000001_Node000005"><a xlink:title=" ">
<path fill="none" stroke="#63b8ff" d="M48.19,-193.55C59.85,-211.7 85.22,-246.82 116.5,-264.12 156.63,-286.34 208.83,-293.96 246.42,-296.4"/>
<polygon fill="#63b8ff" stroke="#63b8ff" points="245.9,-299.88 256.07,-296.93 246.28,-292.89 245.9,-299.88"/>
</a>
</g>
</g>
<!-- Node13 -->
<g id="Node000013" class="node">
<title>Node13</title>
<g id="a_Node000013"><a xlink:href="pool_8c.html#a4cc6068279461cb8628219586dfa35a1" target="_top" xlink:title="Return a Buffer to the pool.">
<polygon fill="#fff0f0" stroke="red" points="343.5,-267.25 248.75,-267.25 248.75,-245 343.5,-245 343.5,-267.25"/>
<text text-anchor="middle" x="296.12" y="-253.75" font-family="Helvetica,sans-Serif" font-size="10.00">buf_pool_release</text>
</a>
</g>
</g>
<!-- Node1&#45;&gt;Node13 -->
<g id="edge3_Node000001_Node000013" class="edge">
<title>Node1&#45;&gt;Node13</title>
<g id="a_edge3_Node000001_Node000013"><a xlink:title=" ">
<path fill="none" stroke="#63b8ff" d="M51.65,-193.64C65.09,-207.64 89.92,-230.68 116.5,-241.12 154.79,-256.17 201.17,-259.68 237.07,-259.55"/>
<polygon fill="#63b8ff" stroke="#63b8ff" points="236.87,-263.05 246.82,-259.41 236.77,-256.05 236.87,-263.05"/>
</a>
</g>
</g>
<!-- Node18 -->
<g id="Node000018" class="node">
<title>Node18</title>
<g id="a_Node000018"><a xlink:href="buffer_8c.html#a02123807d31181ac701b566226e93b33" target="_top" xlink:title="Format a string overwriting a Buffer.">
<polygon fill="#fff0f0" stroke="red" points="327.38,-225.25 264.88,-225.25 264.88,-203 327.38,-203 327.38,-225.25"/>
<text text-anchor="middle" x="296.12" y="-211.75" font-family="Helvetica,sans-Serif" font-size="10.00">buf_printf</text>
</a>
</g>
</g>
<!-- Node1&#45;&gt;Node18 -->
<g id="edge4_Node000001_Node000018" class="edge">
<title>Node1&#45;&gt;Node18</title>
<g id="a_edge4_Node000001_Node000018"><a xlink:title=" ">
<path fill="none" stroke="#63b8ff" d="M80.82,-185.99C115.62,-189.5 167.62,-195.07 212.75,-201.12 226.07,-202.91 240.56,-205.11 253.62,-207.19"/>
<polygon fill="#63b8ff" stroke="#63b8ff" points="252.74,-210.59 263.17,-208.73 253.85,-203.68 252.74,-210.59"/>
</a>
</g>
</g>
<!-- Node20 -->
<g id="Node000020" class="node">
<title>Node20</title>
<g id="a_Node000020"><a xlink:href="buffer_8h.html#a728ebc5a947b77c8d56db44ce553a7ab" target="_top" xlink:title="Convert a buffer to a const char * &quot;string&quot;.">
<polygon fill="white" stroke="#666666" points="327.75,-163.25 264.5,-163.25 264.5,-141 327.75,-141 327.75,-163.25"/>
<text text-anchor="middle" x="296.12" y="-149.75" font-family="Helvetica,sans-Serif" font-size="10.00">buf_string</text>
</a>
</g>
</g>
<!-- Node1&#45;&gt;Node20 -->
<g id="edge5_Node000001_Node000020" class="edge">
<title>Node1&#45;&gt;Node20</title>
<g id="a_edge5_Node000001_Node000020"><a xlink:title=" ">
<path fill="none" stroke="#63b8ff" d="M80.97,-174.01C92.4,-171.87 104.92,-169.72 116.5,-168.12 162.98,-161.73 216.63,-157.32 252.91,-154.78"/>
<polygon fill="#63b8ff" stroke="#63b8ff" points="252.8,-158.29 262.54,-154.12 252.32,-151.31 252.8,-158.29"/>
</a>
</g>
</g>
<!-- Node21 -->
<g id="Node000021" class="node">
<title>Node21</title>
<g id="a_Node000021"><a xlink:href="config_2helpers_8c.html#a6b1589ee93ff51ef31f1d9324e138078" target="_top" xlink:title="Get a string config item by name.">
<polygon fill="#fff0f0" stroke="red" points="210.5,-116.25 118.75,-116.25 118.75,-94 210.5,-94 210.5,-116.25"/>
<text text-anchor="middle" x="164.62" y="-102.75" font-family="Helvetica,sans-Serif" font-size="10.00">cs_subset_string</text>
</a>
</g>
</g>
<!-- Node1&#45;&gt;Node21 -->
<g id="edge7_Node000001_Node000021" class="edge">
<title>Node1&#45;&gt;Node21</title>
<g id="a_edge7_Node000001_Node000021"><a xlink:title=" ">
<path fill="none" stroke="#63b8ff" d="M56.75,-170.62C71.72,-159.7 95.2,-143.08 116.5,-130.12 121.1,-127.33 126.05,-124.51 130.95,-121.82"/>
<polygon fill="#63b8ff" stroke="#63b8ff" points="132.29,-125.07 139.46,-117.27 128.99,-118.9 132.29,-125.07"/>
</a>
</g>
</g>
<!-- Node36 -->
<g id="Node000036" class="node">
<title>Node36</title>
<g id="a_Node000036"><a xlink:href="key_2menu_8c.html#a8329a38b3fd03e6b5d2d05dfb0c5d465" target="_top" xlink:title="Set up a key binding.">
<polygon fill="#fff0f0" stroke="red" points="192.12,-232.25 137.12,-232.25 137.12,-210 192.12,-210 192.12,-232.25"/>
<text text-anchor="middle" x="164.62" y="-218.75" font-family="Helvetica,sans-Serif" font-size="10.00">km_bind</text>
</a>
</g>
</g>
<!-- Node1&#45;&gt;Node36 -->
<g id="edge8_Node000001_Node000036" class="edge">
<title>Node1&#45;&gt;Node36</title>
<g id="a_edge8_Node000001_Node000036"><a xlink:title=" ">
<path fill="none" stroke="#63b8ff" d="M77.64,-193.72C92.94,-198.6 110.74,-204.27 126.16,-209.19"/>
<polygon fill="#63b8ff" stroke="#63b8ff" points="124.87,-212.45 135.46,-212.15 127,-205.78 124.87,-212.45"/>
</a>
</g>
</g>
<!-- Node54 -->
<g id="Node000054" class="node">
<title>Node54</title>
<g id="a_Node000054"><a xlink:href="file_8c.html#a3d65ddb42b63f7e5d0d965e8162b8d63" target="_top" xlink:title="Escape any regex&#45;magic characters in a string.">
<polygon fill="#fff0f0" stroke="red" points="212.75,-76.38 116.5,-76.38 116.5,-39.88 212.75,-39.88 212.75,-76.38"/>
<text text-anchor="start" x="124.5" y="-62.88" font-family="Helvetica,sans-Serif" font-size="10.00">mutt_file_sanitize</text>
<text text-anchor="middle" x="164.62" y="-48.62" font-family="Helvetica,sans-Serif" font-size="10.00">_regex</text>
</a>
</g>
</g>
<!-- Node1&#45;&gt;Node54 -->
<g id="edge13_Node000001_Node000054" class="edge">
<title>Node1&#45;&gt;Node54</title>
<g id="a_edge13_Node000001_Node000054"><a xlink:title=" ">
<path fill="none" stroke="#63b8ff" d="M47.96,-170.79C59.85,-151.4 86.26,-111.41 116.5,-85.12 117.14,-84.57 117.79,-84.02 118.46,-83.47"/>
<polygon fill="#63b8ff" stroke="#63b8ff" points="120.4,-86.39 126.39,-77.65 116.26,-80.74 120.4,-86.39"/>
</a>
</g>
</g>
<!-- Node55 -->
<g id="Node000055" class="node">
<title>Node55</title>
<g id="a_Node000055"><a xlink:href="group__gui__mw.html#gabcbd2498b412e9f8e9d953cafc01989c" target="_top" xlink:title="Ask the user for a string &#45;.">
<polygon fill="#fff0f0" stroke="red" points="203.38,-22.25 125.88,-22.25 125.88,0 203.38,0 203.38,-22.25"/>
<text text-anchor="middle" x="164.62" y="-8.75" font-family="Helvetica,sans-Serif" font-size="10.00">mw_get_field</text>
</a>
</g>
</g>
<!-- Node1&#45;&gt;Node55 -->
<g id="edge14_Node000001_Node000055" class="edge">
<title>Node1&#45;&gt;Node55</title>
<g id="a_edge14_Node000001_Node000055"><a xlink:title=" ">
<path fill="none" stroke="#63b8ff" d="M44.02,-170.63C51.25,-142.94 73.19,-71.87 116.5,-31.12 117.26,-30.41 118.06,-29.71 118.88,-29.04"/>
<polygon fill="#63b8ff" stroke="#63b8ff" points="120.78,-31.98 127.17,-23.53 116.91,-26.14 120.78,-31.98"/>
</a>
</g>
</g>
<!-- Node20&#45;&gt;Node20 -->
<g id="edge6_Node000020_Node000020" class="edge">
<title>Node20&#45;&gt;Node20</title>
<g id="a_edge6_Node000020_Node000020"><a xlink:title=" ">
<path fill="none" stroke="#63b8ff" d="M274.65,-163.49C266.62,-172.28 273.78,-181.25 296.12,-181.25 308.34,-181.25 316.02,-178.57 319.16,-174.7"/>
<polygon fill="#63b8ff" stroke="#63b8ff" points="322.65,-174.41 317.81,-164.98 315.72,-175.37 322.65,-174.41"/>
</a>
</g>
</g>
<!-- Node36&#45;&gt;Node5 -->
<g id="edge9_Node000036_Node000005" class="edge">
<title>Node36&#45;&gt;Node5</title>
<g id="a_edge9_Node000036_Node000005"><a xlink:title=" ">
<path fill="none" stroke="#63b8ff" d="M181.4,-232.66C197.77,-244.37 224.37,-262.65 248.75,-276.12 251.58,-277.69 254.54,-279.23 257.55,-280.73"/>
<polygon fill="#63b8ff" stroke="#63b8ff" points="255.9,-283.82 266.43,-284.97 258.91,-277.5 255.9,-283.82"/>
</a>
</g>
</g>
<!-- Node36&#45;&gt;Node13 -->
<g id="edge10_Node000036_Node000013" class="edge">
<title>Node36&#45;&gt;Node13</title>
<g id="a_edge10_Node000036_Node000013"><a xlink:title=" ">
<path fill="none" stroke="#63b8ff" d="M192.46,-228.38C206.62,-232.2 224.51,-237.04 241.38,-241.6"/>
<polygon fill="#63b8ff" stroke="#63b8ff" points="240.24,-244.92 250.81,-244.15 242.07,-238.16 240.24,-244.92"/>
</a>
</g>
</g>
<!-- Node36&#45;&gt;Node18 -->
<g id="edge11_Node000036_Node000018" class="edge">
<title>Node36&#45;&gt;Node18</title>
<g id="a_edge11_Node000036_Node000018"><a xlink:title=" ">
<path fill="none" stroke="#63b8ff" d="M192.46,-219.67C210.05,-218.72 233.4,-217.46 253.39,-216.38"/>
<polygon fill="#63b8ff" stroke="#63b8ff" points="253.39,-219.89 263.19,-215.85 253.01,-212.9 253.39,-219.89"/>
</a>
</g>
</g>
<!-- Node36&#45;&gt;Node20 -->
<g id="edge12_Node000036_Node000020" class="edge">
<title>Node36&#45;&gt;Node20</title>
<g id="a_edge12_Node000036_Node000020"><a xlink:title=" ">
<path fill="none" stroke="#63b8ff" d="M187.3,-209.58C208.12,-198.48 239.83,-181.59 263.47,-168.99"/>
<polygon fill="#63b8ff" stroke="#63b8ff" points="264.86,-172.21 272.04,-164.42 261.57,-166.04 264.86,-172.21"/>
</a>
</g>
</g>
</g>
</svg>
