<?xml version="1.0" encoding="UTF-8" standalone="no"?>
<!DOCTYPE svg PUBLIC "-//W3C//DTD SVG 1.1//EN"
 "http://www.w3.org/Graphics/SVG/1.1/DTD/svg11.dtd">
<!-- Generated by graphviz version 7.1.0 (0)
 -->
<!-- Title: pgp_key_capabilities Pages: 1 -->
<svg width="248pt" height="64pt"
 viewBox="0.00 0.00 248.00 64.00" xmlns="http://www.w3.org/2000/svg" xmlns:xlink="http://www.w3.org/1999/xlink">
<g id="graph0" class="graph" transform="scale(1 1) rotate(0) translate(4 60)">
<title>pgp_key_capabilities</title>
<!-- Node1 -->
<g id="node1" class="node">
<title>Node1</title>
<g id="a_node1"><a xlink:title="PGP: Key Capabilities &#45; Implements get_string_t &#45;.">
<polygon fill="#999999" stroke="#666666" points="110,-37 0,-37 0,-18 110,-18 110,-37"/>
<text text-anchor="middle" x="55" y="-25" font-family="Helvetica,sans-Serif" font-size="10.00">pgp_key_capabilities</text>
</a>
</g>
</g>
<!-- Node2 -->
<g id="node2" class="node">
<title>Node2</title>
<g id="a_node2"><a xlink:href="buffer_8c.html#ac958acbd189e463a2c3bbc2f23aaeb1e" target="_top" xlink:title="Copy a string into a Buffer.">
<polygon fill="#fff0f0" stroke="red" points="225.5,-56 160.5,-56 160.5,-37 225.5,-37 225.5,-56"/>
<text text-anchor="middle" x="193" y="-44" font-family="Helvetica,sans-Serif" font-size="10.00">buf_strcpy</text>
</a>
</g>
</g>
<!-- Node1&#45;&gt;Node2 -->
<g id="edge1" class="edge">
<title>Node1&#45;&gt;Node2</title>
<path fill="none" stroke="#63b8ff" d="M110.14,-35.06C123.05,-36.87 136.66,-38.77 148.99,-40.49"/>
<polygon fill="#63b8ff" stroke="#63b8ff" points="148.47,-43.95 158.86,-41.87 149.44,-37.02 148.47,-43.95"/>
</g>
<!-- Node10 -->
<g id="node3" class="node">
<title>Node10</title>
<g id="a_node3"><a xlink:href="expando__pgp_8c.html#adb7b3bd022fa0618a7b3d057360fae5d" target="_top" xlink:title="Turn PGP key abilities into a string.">
<polygon fill="white" stroke="#666666" points="240,-19 146,-19 146,0 240,0 240,-19"/>
<text text-anchor="middle" x="193" y="-7" font-family="Helvetica,sans-Serif" font-size="10.00">pgp_key_abilities</text>
</a>
</g>
</g>
<!-- Node1&#45;&gt;Node10 -->
<g id="edge2" class="edge">
<title>Node1&#45;&gt;Node10</title>
<path fill="none" stroke="#63b8ff" d="M110.14,-20.33C118.1,-19.28 126.32,-18.19 134.34,-17.13"/>
<polygon fill="#63b8ff" stroke="#63b8ff" points="134.55,-20.63 144,-15.85 133.63,-13.7 134.55,-20.63"/>
</g>
</g>
</svg>
