<?xml version="1.0" encoding="UTF-8" standalone="no"?>
<!DOCTYPE svg PUBLIC "-//W3C//DTD SVG 1.1//EN"
 "http://www.w3.org/Graphics/SVG/1.1/DTD/svg11.dtd">
<!-- Generated by graphviz version 7.1.0 (0)
 -->
<!-- Title: compare_date_sent Pages: 1 -->
<svg width="362pt" height="46pt"
 viewBox="0.00 0.00 362.00 46.00" xmlns="http://www.w3.org/2000/svg" xmlns:xlink="http://www.w3.org/1999/xlink">
<g id="graph0" class="graph" transform="scale(1 1) rotate(0) translate(4 42)">
<title>compare_date_sent</title>
<!-- Node1 -->
<g id="node1" class="node">
<title>Node1</title>
<g id="a_node1"><a xlink:title="Compare the sent date of two emails &#45; Implements sort_mail_t &#45;.">
<polygon fill="#999999" stroke="#666666" points="354,-19 247,-19 247,0 354,0 354,-19"/>
<text text-anchor="middle" x="300.5" y="-7" font-family="Helvetica,sans-Serif" font-size="10.00">compare_date_sent</text>
</a>
</g>
</g>
<!-- Node2 -->
<g id="node2" class="node">
<title>Node2</title>
<g id="a_node2"><a xlink:href="group__sort__mail__api.html#ga6c132a64c5352af5047e75542e453ae2" target="_top" xlink:title="Compare the subject of two emails &#45; Implements sort_mail_t &#45;.">
<polygon fill="white" stroke="#666666" points="211,-38 116,-38 116,-19 211,-19 211,-38"/>
<text text-anchor="middle" x="163.5" y="-26" font-family="Helvetica,sans-Serif" font-size="10.00">compare_subject</text>
</a>
</g>
</g>
<!-- Node1&#45;&gt;Node2 -->
<g id="edge1" class="edge">
<title>Node1&#45;&gt;Node2</title>
<path fill="none" stroke="#63b8ff" d="M235.18,-18.55C227.08,-19.69 218.93,-20.84 211.18,-21.93"/>
<polygon fill="#63b8ff" stroke="#63b8ff" points="235.62,-22.03 245.03,-17.17 234.64,-15.09 235.62,-22.03"/>
</g>
<!-- Node3 -->
<g id="node3" class="node">
<title>Node3</title>
<g id="a_node3"><a xlink:href="sort_8c.html#a9550b5997c80d756cd886d4ee633e1e2" target="_top" xlink:title="Get the sort function for a given sort id.">
<polygon fill="#fff0f0" stroke="red" points="80,-19 0,-19 0,0 80,0 80,-19"/>
<text text-anchor="middle" x="40" y="-7" font-family="Helvetica,sans-Serif" font-size="10.00">get_sort_func</text>
</a>
</g>
</g>
<!-- Node1&#45;&gt;Node3 -->
<g id="edge3" class="edge">
<title>Node1&#45;&gt;Node3</title>
<path fill="none" stroke="#63b8ff" d="M235.22,-9.5C186.63,-9.5 121.49,-9.5 80.37,-9.5"/>
<polygon fill="#63b8ff" stroke="#63b8ff" points="235.05,-13 245.05,-9.5 235.05,-6 235.05,-13"/>
</g>
<!-- Node2&#45;&gt;Node3 -->
<g id="edge2" class="edge">
<title>Node2&#45;&gt;Node3</title>
<path fill="none" stroke="#63b8ff" d="M104.2,-19.38C96.12,-18.12 87.98,-16.85 80.36,-15.66"/>
<polygon fill="#63b8ff" stroke="#63b8ff" points="103.61,-22.83 114.03,-20.92 104.69,-15.92 103.61,-22.83"/>
</g>
</g>
</svg>
