<?xml version="1.0" encoding="UTF-8" standalone="no"?>
<!DOCTYPE svg PUBLIC "-//W3C//DTD SVG 1.1//EN"
 "http://www.w3.org/Graphics/SVG/1.1/DTD/svg11.dtd">
<!-- Generated by graphviz version 7.1.0 (0)
 -->
<!-- Title: ibar_window_observer Pages: 1 -->
<svg width="224pt" height="45pt"
 viewBox="0.00 0.00 224.00 45.00" xmlns="http://www.w3.org/2000/svg" xmlns:xlink="http://www.w3.org/1999/xlink">
<g id="graph0" class="graph" transform="scale(1 1) rotate(0) translate(4 41)">
<title>ibar_window_observer</title>
<!-- Node1 -->
<g id="node1" class="node">
<title>Node1</title>
<g id="a_node1"><a xlink:title="Notification that a Window has changed &#45; Implements observer_t &#45;.">
<polygon fill="#999999" stroke="#666666" points="216,-19 94,-19 94,0 216,0 216,-19"/>
<text text-anchor="middle" x="155" y="-7" font-family="Helvetica,sans-Serif" font-size="10.00">ibar_window_observer</text>
</a>
</g>
</g>
<!-- Node1&#45;&gt;Node1 -->
<g id="edge2" class="edge">
<title>Node1&#45;&gt;Node1</title>
<path fill="none" stroke="#63b8ff" d="M177.36,-30.43C174.57,-34.29 167.11,-37 155,-37 132.85,-37 126.28,-27.94 135.27,-19.37"/>
<polygon fill="#63b8ff" stroke="#63b8ff" points="180.8,-29.76 175.08,-20.84 173.99,-31.38 180.8,-29.76"/>
</g>
<!-- Node2 -->
<g id="node2" class="node">
<title>Node2</title>
<g id="a_node2"><a xlink:href="ibar_8c.html#a5c6fa4624085cff95eef47297c084ff6" target="_top" xlink:title="Create the Index Bar (status)">
<polygon fill="#fff0f0" stroke="red" points="58,-19 0,-19 0,0 58,0 58,-19"/>
<text text-anchor="middle" x="29" y="-7" font-family="Helvetica,sans-Serif" font-size="10.00">ibar_new</text>
</a>
</g>
</g>
<!-- Node1&#45;&gt;Node2 -->
<g id="edge1" class="edge">
<title>Node1&#45;&gt;Node2</title>
<path fill="none" stroke="#63b8ff" d="M82.56,-9.5C74.07,-9.5 65.82,-9.5 58.46,-9.5"/>
<polygon fill="#63b8ff" stroke="#63b8ff" points="82.3,-13 92.3,-9.5 82.3,-6 82.3,-13"/>
</g>
</g>
</svg>
