<?xml version="1.0" encoding="UTF-8" standalone="no"?>
<!DOCTYPE svg PUBLIC "-//W3C//DTD SVG 1.1//EN"
 "http://www.w3.org/Graphics/SVG/1.1/DTD/svg11.dtd">
<!-- Generated by graphviz version 12.2.1 (20241206.2353)
 -->
<!-- Title: list_make_entry Pages: 1 -->
<svg width="328pt" height="246pt"
 viewBox="0.00 0.00 328.25 246.25" xmlns="http://www.w3.org/2000/svg" xmlns:xlink="http://www.w3.org/1999/xlink">
<g id="graph0" class="graph" transform="scale(1 1) rotate(0) translate(4 242.25)">
<title>list_make_entry</title>
<!-- Node1 -->
<g id="Node000001" class="node">
<title>Node1</title>
<g id="a_Node000001"><a xlink:title="Format a mailing&#45;list action for the dialog &#45; Implements Menu::make_entry() &#45;.">
<polygon fill="#999999" stroke="#666666" points="88.75,-131.25 0,-131.25 0,-109 88.75,-109 88.75,-131.25"/>
<text text-anchor="middle" x="44.38" y="-117.75" font-family="Helvetica,sans-Serif" font-size="10.00">list_make_entry</text>
</a>
</g>
</g>
<!-- Node2 -->
<g id="Node000002" class="node">
<title>Node2</title>
<g id="a_Node000002"><a xlink:href="buffer_8c.html#a9765efbb7f2c32e46fb1cb271a02ba20" target="_top" xlink:title="Add a single character to a Buffer.">
<polygon fill="#fff0f0" stroke="red" points="203.38,-238.25 139.38,-238.25 139.38,-216 203.38,-216 203.38,-238.25"/>
<text text-anchor="middle" x="171.38" y="-224.75" font-family="Helvetica,sans-Serif" font-size="10.00">buf_addch</text>
</a>
</g>
</g>
<!-- Node1&#45;&gt;Node2 -->
<g id="edge1_Node000001_Node000002" class="edge">
<title>Node1&#45;&gt;Node2</title>
<g id="a_edge1_Node000001_Node000002"><a xlink:title=" ">
<path fill="none" stroke="#63b8ff" d="M54.48,-131.52C68.36,-148.39 96.23,-180.38 124.75,-202.12 128.36,-204.88 132.32,-207.52 136.34,-209.98"/>
<polygon fill="#63b8ff" stroke="#63b8ff" points="134.6,-213.01 145.01,-214.94 138.07,-206.94 134.6,-213.01"/>
</a>
</g>
</g>
<!-- Node7 -->
<g id="Node000007" class="node">
<title>Node7</title>
<g id="a_Node000007"><a xlink:href="buffer_8c.html#a9924e74ddcb5280ab380e4627d1fba99" target="_top" xlink:title="Add a string to a Buffer.">
<polygon fill="#fff0f0" stroke="red" points="320.25,-179.25 254,-179.25 254,-157 320.25,-157 320.25,-179.25"/>
<text text-anchor="middle" x="287.12" y="-165.75" font-family="Helvetica,sans-Serif" font-size="10.00">buf_addstr</text>
</a>
</g>
</g>
<!-- Node1&#45;&gt;Node7 -->
<g id="edge2_Node000001_Node000007" class="edge">
<title>Node1&#45;&gt;Node7</title>
<g id="a_edge2_Node000001_Node000007"><a xlink:title=" ">
<path fill="none" stroke="#63b8ff" d="M58.59,-131.53C73.5,-143.58 99.04,-161.83 124.75,-169.12 163.45,-180.11 209.5,-178.46 242.48,-174.89"/>
<polygon fill="#63b8ff" stroke="#63b8ff" points="242.55,-178.41 252.07,-173.74 241.72,-171.45 242.55,-178.41"/>
</a>
</g>
</g>
<!-- Node9 -->
<g id="Node000009" class="node">
<title>Node9</title>
<g id="a_Node000009"><a xlink:href="buffer_8c.html#ac958acbd189e463a2c3bbc2f23aaeb1e" target="_top" xlink:title="Copy a string into a Buffer.">
<polygon fill="#fff0f0" stroke="red" points="203.38,-160.25 139.38,-160.25 139.38,-138 203.38,-138 203.38,-160.25"/>
<text text-anchor="middle" x="171.38" y="-146.75" font-family="Helvetica,sans-Serif" font-size="10.00">buf_strcpy</text>
</a>
</g>
</g>
<!-- Node1&#45;&gt;Node9 -->
<g id="edge3_Node000001_Node000009" class="edge">
<title>Node1&#45;&gt;Node9</title>
<g id="a_edge3_Node000001_Node000009"><a xlink:title=" ">
<path fill="none" stroke="#63b8ff" d="M89.09,-130.27C101.71,-133.19 115.45,-136.38 127.98,-139.29"/>
<polygon fill="#63b8ff" stroke="#63b8ff" points="127.07,-142.67 137.6,-141.52 128.65,-135.85 127.07,-142.67"/>
</a>
</g>
</g>
<!-- Node12 -->
<g id="Node000012" class="node">
<title>Node12</title>
<g id="a_Node000012"><a xlink:href="buffer_8h.html#a728ebc5a947b77c8d56db44ce553a7ab" target="_top" xlink:title="Convert a buffer to a const char * &quot;string&quot;.">
<polygon fill="white" stroke="#666666" points="203,-102.25 139.75,-102.25 139.75,-80 203,-80 203,-102.25"/>
<text text-anchor="middle" x="171.38" y="-88.75" font-family="Helvetica,sans-Serif" font-size="10.00">buf_string</text>
</a>
</g>
</g>
<!-- Node1&#45;&gt;Node12 -->
<g id="edge5_Node000001_Node000012" class="edge">
<title>Node1&#45;&gt;Node12</title>
<g id="a_edge5_Node000001_Node000012"><a xlink:title=" ">
<path fill="none" stroke="#63b8ff" d="M89.09,-109.98C101.81,-107.03 115.68,-103.81 128.3,-100.89"/>
<polygon fill="#63b8ff" stroke="#63b8ff" points="129.04,-104.31 137.99,-98.64 127.46,-97.49 129.04,-104.31"/>
</a>
</g>
</g>
<!-- Node13 -->
<g id="Node000013" class="node">
<title>Node13</title>
<g id="a_Node000013"><a xlink:href="dlg__list_8c.html#a857d7a5b62b4a619d2e22624f7f8a714" target="_top" xlink:title="Get the stored value for a mailing&#45;list action.">
<polygon fill="white" stroke="#666666" points="218,-62.25 124.75,-62.25 124.75,-40 218,-40 218,-62.25"/>
<text text-anchor="middle" x="171.38" y="-48.75" font-family="Helvetica,sans-Serif" font-size="10.00">get_action_value</text>
</a>
</g>
</g>
<!-- Node1&#45;&gt;Node13 -->
<g id="edge7_Node000001_Node000013" class="edge">
<title>Node1&#45;&gt;Node13</title>
<g id="a_edge7_Node000001_Node000013"><a xlink:title=" ">
<path fill="none" stroke="#63b8ff" d="M62.62,-108.5C78.43,-98.09 102.66,-82.71 124.75,-71.12 127.14,-69.87 129.63,-68.63 132.15,-67.4"/>
<polygon fill="#63b8ff" stroke="#63b8ff" points="133.6,-70.59 141.2,-63.21 130.66,-64.24 133.6,-70.59"/>
</a>
</g>
</g>
<!-- Node14 -->
<g id="Node000014" class="node">
<title>Node14</title>
<g id="a_Node000014"><a xlink:href="curs__lib_8c.html#ad506c0f8d5c549c330f49e2fa56e207b" target="_top" xlink:title="Measure a string&#39;s width in screen cells.">
<polygon fill="#fff0f0" stroke="red" points="212,-22.25 130.75,-22.25 130.75,0 212,0 212,-22.25"/>
<text text-anchor="middle" x="171.38" y="-8.75" font-family="Helvetica,sans-Serif" font-size="10.00">mutt_strwidth</text>
</a>
</g>
</g>
<!-- Node1&#45;&gt;Node14 -->
<g id="edge8_Node000001_Node000014" class="edge">
<title>Node1&#45;&gt;Node14</title>
<g id="a_edge8_Node000001_Node000014"><a xlink:title=" ">
<path fill="none" stroke="#63b8ff" d="M53.15,-108.58C66.1,-90.08 93.75,-53.62 124.75,-31.12 126.11,-30.14 127.52,-29.19 128.97,-28.28"/>
<polygon fill="#63b8ff" stroke="#63b8ff" points="130.58,-31.39 137.63,-23.48 127.19,-25.26 130.58,-31.39"/>
</a>
</g>
</g>
<!-- Node9&#45;&gt;Node7 -->
<g id="edge4_Node000009_Node000007" class="edge">
<title>Node9&#45;&gt;Node7</title>
<g id="a_edge4_Node000009_Node000007"><a xlink:title=" ">
<path fill="none" stroke="#63b8ff" d="M203.76,-154.37C215.76,-156.37 229.68,-158.7 242.61,-160.86"/>
<polygon fill="#63b8ff" stroke="#63b8ff" points="241.72,-164.26 252.16,-162.45 242.88,-157.35 241.72,-164.26"/>
</a>
</g>
</g>
<!-- Node12&#45;&gt;Node12 -->
<g id="edge6_Node000012_Node000012" class="edge">
<title>Node12&#45;&gt;Node12</title>
<g id="a_edge6_Node000012_Node000012"><a xlink:title=" ">
<path fill="none" stroke="#63b8ff" d="M152.47,-102.49C145.41,-111.28 151.71,-120.25 171.38,-120.25 182.13,-120.25 188.89,-117.57 191.65,-113.7"/>
<polygon fill="#63b8ff" stroke="#63b8ff" points="195.15,-113.49 190.46,-103.99 188.2,-114.34 195.15,-113.49"/>
</a>
</g>
</g>
</g>
</svg>
