<?xml version="1.0" encoding="UTF-8" standalone="no"?>
<!DOCTYPE svg PUBLIC "-//W3C//DTD SVG 1.1//EN"
 "http://www.w3.org/Graphics/SVG/1.1/DTD/svg11.dtd">
<!-- Generated by graphviz version 7.1.0 (0)
 -->
<!-- Title: eat_message_range Pages: 1 -->
<svg width="262pt" height="45pt"
 viewBox="0.00 0.00 262.00 45.00" xmlns="http://www.w3.org/2000/svg" xmlns:xlink="http://www.w3.org/1999/xlink">
<g id="graph0" class="graph" transform="scale(1 1) rotate(0) translate(4 41)">
<title>eat_message_range</title>
<!-- Node1 -->
<g id="node1" class="node">
<title>Node1</title>
<g id="a_node1"><a xlink:title="Parse a range of message numbers &#45; Implements eat_arg_t &#45;.">
<polygon fill="#999999" stroke="#666666" points="254,-19 145,-19 145,0 254,0 254,-19"/>
<text text-anchor="middle" x="199.5" y="-7" font-family="Helvetica,sans-Serif" font-size="10.00">eat_message_range</text>
</a>
</g>
</g>
<!-- Node2 -->
<g id="node2" class="node">
<title>Node2</title>
<g id="a_node2"><a xlink:href="compile_8c.html#acf40948be2d6bd0deedbc24a016b41db" target="_top" xlink:title="Create a Pattern.">
<polygon fill="#fff0f0" stroke="red" points="109,-19 0,-19 0,0 109,0 109,-19"/>
<text text-anchor="middle" x="54.5" y="-7" font-family="Helvetica,sans-Serif" font-size="10.00">mutt_pattern_comp</text>
</a>
</g>
</g>
<!-- Node1&#45;&gt;Node2 -->
<g id="edge1" class="edge">
<title>Node1&#45;&gt;Node2</title>
<path fill="none" stroke="#63b8ff" d="M133.56,-9.5C125.5,-9.5 117.33,-9.5 109.46,-9.5"/>
<polygon fill="#63b8ff" stroke="#63b8ff" points="133.33,-13 143.33,-9.5 133.33,-6 133.33,-13"/>
</g>
<!-- Node2&#45;&gt;Node2 -->
<g id="edge2" class="edge">
<title>Node2&#45;&gt;Node2</title>
<path fill="none" stroke="#63b8ff" d="M80.24,-30.43C77.02,-34.29 68.44,-37 54.5,-37 29.01,-37 21.44,-27.94 31.8,-19.37"/>
<polygon fill="#63b8ff" stroke="#63b8ff" points="83.62,-29.54 77.6,-20.83 76.87,-31.4 83.62,-29.54"/>
</g>
</g>
</svg>
