<?xml version="1.0" encoding="UTF-8" standalone="no"?>
<!DOCTYPE svg PUBLIC "-//W3C//DTD SVG 1.1//EN"
 "http://www.w3.org/Graphics/SVG/1.1/DTD/svg11.dtd">
<!-- Generated by graphviz version 12.2.1 (20241206.2353)
 -->
<!-- Title: imap_mailbox_delete_observer Pages: 1 -->
<svg width="250pt" height="70pt"
 viewBox="0.00 0.00 250.00 70.25" xmlns="http://www.w3.org/2000/svg" xmlns:xlink="http://www.w3.org/1999/xlink">
<g id="graph0" class="graph" transform="scale(1 1) rotate(0) translate(4 66.25)">
<title>imap_mailbox_delete_observer</title>
<!-- Node1 -->
<g id="Node000001" class="node">
<title>Node1</title>
<g id="a_Node000001"><a xlink:title="Notification that a Mailbox is about to be deleted &#45; Implements observer_t &#45;.">
<polygon fill="#999999" stroke="#666666" points="242,-49.38 128.5,-49.38 128.5,-12.88 242,-12.88 242,-49.38"/>
<text text-anchor="start" x="136.5" y="-35.88" font-family="Helvetica,sans-Serif" font-size="10.00">imap_mailbox_delete</text>
<text text-anchor="middle" x="185.25" y="-21.62" font-family="Helvetica,sans-Serif" font-size="10.00">_observer</text>
</a>
</g>
</g>
<!-- Node2 -->
<g id="Node000002" class="node">
<title>Node2</title>
<g id="a_Node000002"><a xlink:href="group__account__adata__free.html#ga9067b3d9d150797256089f14b2f364c3" target="_top" xlink:title="Free the private Account data &#45; Implements Account::adata_free() &#45;.">
<polygon fill="#fff0f0" stroke="red" points="92.5,-62.25 0,-62.25 0,-40 92.5,-40 92.5,-62.25"/>
<text text-anchor="middle" x="46.25" y="-48.75" font-family="Helvetica,sans-Serif" font-size="10.00">imap_adata_free</text>
</a>
</g>
</g>
<!-- Node1&#45;&gt;Node2 -->
<g id="edge1_Node000001_Node000002" class="edge">
<title>Node1&#45;&gt;Node2</title>
<g id="a_edge1_Node000001_Node000002"><a xlink:title=" ">
<path fill="none" stroke="#63b8ff" d="M116.94,-40.95C108.69,-42.15 100.42,-43.36 92.61,-44.5"/>
<polygon fill="#63b8ff" stroke="#63b8ff" points="117.24,-44.44 126.63,-39.54 116.23,-37.52 117.24,-44.44"/>
</a>
</g>
</g>
<!-- Node4 -->
<g id="Node000004" class="node">
<title>Node4</title>
<g id="a_Node000004"><a xlink:href="imap_2adata_8c.html#aa5275b77a924131225664c98f5fb39f7" target="_top" xlink:title="Allocate and initialise a new ImapAccountData structure.">
<polygon fill="#fff0f0" stroke="red" points="92.12,-22.25 0.38,-22.25 0.38,0 92.12,0 92.12,-22.25"/>
<text text-anchor="middle" x="46.25" y="-8.75" font-family="Helvetica,sans-Serif" font-size="10.00">imap_adata_new</text>
</a>
</g>
</g>
<!-- Node1&#45;&gt;Node4 -->
<g id="edge2_Node000001_Node000004" class="edge">
<title>Node1&#45;&gt;Node4</title>
<g id="a_edge2_Node000001_Node000004"><a xlink:title=" ">
<path fill="none" stroke="#63b8ff" d="M116.94,-21.3C108.69,-20.1 100.42,-18.89 92.61,-17.75"/>
<polygon fill="#63b8ff" stroke="#63b8ff" points="116.23,-24.73 126.63,-22.71 117.24,-17.81 116.23,-24.73"/>
</a>
</g>
</g>
</g>
</svg>
