<?xml version="1.0" encoding="UTF-8" standalone="no"?>
<!DOCTYPE svg PUBLIC "-//W3C//DTD SVG 1.1//EN"
 "http://www.w3.org/Graphics/SVG/1.1/DTD/svg11.dtd">
<!-- Generated by graphviz version 7.1.0 (0)
 -->
<!-- Title: smime_class_verify_one Pages: 1 -->
<svg width="441pt" height="547pt"
 viewBox="0.00 0.00 441.00 547.00" xmlns="http://www.w3.org/2000/svg" xmlns:xlink="http://www.w3.org/1999/xlink">
<g id="graph0" class="graph" transform="scale(1 1) rotate(0) translate(4 543)">
<title>smime_class_verify_one</title>
<!-- Node1 -->
<g id="node1" class="node">
<title>Node1</title>
<g id="a_node1"><a xlink:title="Implements CryptModuleSpecs::verify_one() &#45;.">
<polygon fill="#999999" stroke="#666666" points="127,-278 0,-278 0,-259 127,-259 127,-278"/>
<text text-anchor="middle" x="63.5" y="-266" font-family="Helvetica,sans-Serif" font-size="10.00">smime_class_verify_one</text>
</a>
</g>
</g>
<!-- Node2 -->
<g id="node2" class="node">
<title>Node2</title>
<g id="a_node2"><a xlink:href="pool_8c.html#a41cba27c25d33cb6822789a2856093f2" target="_top" xlink:title="Get a Buffer from the pool.">
<polygon fill="#fff0f0" stroke="red" points="269.5,-539 192.5,-539 192.5,-520 269.5,-520 269.5,-539"/>
<text text-anchor="middle" x="231" y="-527" font-family="Helvetica,sans-Serif" font-size="10.00">buf_pool_get</text>
</a>
</g>
</g>
<!-- Node1&#45;&gt;Node2 -->
<g id="edge1" class="edge">
<title>Node1&#45;&gt;Node2</title>
<path fill="none" stroke="#63b8ff" d="M65.43,-278.37C69.41,-315.17 88.49,-445.61 163,-511.5 168.33,-516.21 174.77,-519.71 181.51,-522.3"/>
<polygon fill="#63b8ff" stroke="#63b8ff" points="180.23,-525.56 190.82,-525.22 182.32,-518.88 180.23,-525.56"/>
</g>
<!-- Node16 -->
<g id="node3" class="node">
<title>Node16</title>
<g id="a_node3"><a xlink:href="pool_8c.html#a4cc6068279461cb8628219586dfa35a1" target="_top" xlink:title="Return a Buffer to the pool.">
<polygon fill="#fff0f0" stroke="red" points="278.5,-502 183.5,-502 183.5,-483 278.5,-483 278.5,-502"/>
<text text-anchor="middle" x="231" y="-490" font-family="Helvetica,sans-Serif" font-size="10.00">buf_pool_release</text>
</a>
</g>
</g>
<!-- Node1&#45;&gt;Node16 -->
<g id="edge2" class="edge">
<title>Node1&#45;&gt;Node16</title>
<path fill="none" stroke="#63b8ff" d="M66.23,-278.47C72.53,-311.75 97.46,-420.01 163,-474.5 166.01,-477 169.33,-479.16 172.84,-481.02"/>
<polygon fill="#63b8ff" stroke="#63b8ff" points="171.17,-484.11 181.74,-484.9 173.97,-477.69 171.17,-484.11"/>
</g>
<!-- Node22 -->
<g id="node4" class="node">
<title>Node22</title>
<g id="a_node4"><a xlink:href="buffer_8c.html#a02123807d31181ac701b566226e93b33" target="_top" xlink:title="Format a string overwriting a Buffer.">
<polygon fill="#fff0f0" stroke="red" points="262.5,-465 199.5,-465 199.5,-446 262.5,-446 262.5,-465"/>
<text text-anchor="middle" x="231" y="-453" font-family="Helvetica,sans-Serif" font-size="10.00">buf_printf</text>
</a>
</g>
</g>
<!-- Node1&#45;&gt;Node22 -->
<g id="edge3" class="edge">
<title>Node1&#45;&gt;Node22</title>
<path fill="none" stroke="#63b8ff" d="M67.28,-278.3C76.07,-307.39 106.08,-393.98 163,-437.5 170.27,-443.06 179.12,-446.9 187.97,-449.56"/>
<polygon fill="#63b8ff" stroke="#63b8ff" points="187.06,-452.94 197.61,-451.96 188.75,-446.14 187.06,-452.94"/>
</g>
<!-- Node24 -->
<g id="node5" class="node">
<title>Node24</title>
<g id="a_node5"><a xlink:href="buffer_8h.html#a728ebc5a947b77c8d56db44ce553a7ab" target="_top" xlink:title="Convert a buffer to a const char * &quot;string&quot;.">
<polygon fill="white" stroke="#666666" points="263,-428 199,-428 199,-409 263,-409 263,-428"/>
<text text-anchor="middle" x="231" y="-416" font-family="Helvetica,sans-Serif" font-size="10.00">buf_string</text>
</a>
</g>
</g>
<!-- Node1&#45;&gt;Node24 -->
<g id="edge4" class="edge">
<title>Node1&#45;&gt;Node24</title>
<path fill="none" stroke="#63b8ff" d="M68.89,-278.21C80.51,-302.74 114.49,-367.59 163,-400.5 170.43,-405.54 179.21,-409.17 187.93,-411.79"/>
<polygon fill="#63b8ff" stroke="#63b8ff" points="186.81,-415.11 197.36,-414.21 188.55,-408.33 186.81,-415.11"/>
</g>
<!-- Node25 -->
<g id="node6" class="node">
<title>Node25</title>
<g id="a_node6"><a xlink:href="crypt_8c.html#ac85f3f9345f53423bce29d478a6d7aaa" target="_top" xlink:title="Print the current time.">
<polygon fill="#fff0f0" stroke="red" points="283.5,-391 178.5,-391 178.5,-372 283.5,-372 283.5,-391"/>
<text text-anchor="middle" x="231" y="-379" font-family="Helvetica,sans-Serif" font-size="10.00">crypt_current_time</text>
</a>
</g>
</g>
<!-- Node1&#45;&gt;Node25 -->
<g id="edge5" class="edge">
<title>Node1&#45;&gt;Node25</title>
<path fill="none" stroke="#63b8ff" d="M73.02,-278.43C88.99,-296.48 125.23,-334.89 163,-357.5 169.41,-361.34 176.53,-364.7 183.67,-367.6"/>
<polygon fill="#63b8ff" stroke="#63b8ff" points="182.05,-370.73 192.64,-370.98 184.52,-364.18 182.05,-370.73"/>
</g>
<!-- Node45 -->
<g id="node7" class="node">
<title>Node45</title>
<g id="a_node7"><a xlink:href="mutt_2state_8c.html#a0d52430e63f8cffdd0e6a78182ad4385" target="_top" xlink:title="Write a string to the state.">
<polygon fill="#fff0f0" stroke="red" points="433,-372 335,-372 335,-353 433,-353 433,-372"/>
<text text-anchor="middle" x="384" y="-360" font-family="Helvetica,sans-Serif" font-size="10.00">state_attach_puts</text>
</a>
</g>
</g>
<!-- Node1&#45;&gt;Node45 -->
<g id="edge16" class="edge">
<title>Node1&#45;&gt;Node45</title>
<path fill="none" stroke="#63b8ff" d="M78.11,-278.28C96.46,-290.98 130.59,-312.89 163,-324.5 215.36,-343.26 278.15,-352.93 323.23,-357.8"/>
<polygon fill="#63b8ff" stroke="#63b8ff" points="322.76,-361.27 333.07,-358.81 323.48,-354.31 322.76,-361.27"/>
</g>
<!-- Node50 -->
<g id="node8" class="node">
<title>Node50</title>
<g id="a_node8"><a xlink:href="filter_8c.html#a22c6912b837b1114c3276c990e73dca3" target="_top" xlink:title="Wait for the exit of a process and return its status.">
<polygon fill="#fff0f0" stroke="red" points="262,-315 200,-315 200,-296 262,-296 262,-315"/>
<text text-anchor="middle" x="231" y="-303" font-family="Helvetica,sans-Serif" font-size="10.00">filter_wait</text>
</a>
</g>
</g>
<!-- Node1&#45;&gt;Node50 -->
<g id="edge7" class="edge">
<title>Node1&#45;&gt;Node50</title>
<path fill="none" stroke="#63b8ff" d="M108.85,-278.42C133.65,-283.96 164.36,-290.82 188.65,-296.26"/>
<polygon fill="#63b8ff" stroke="#63b8ff" points="187.66,-299.62 198.19,-298.39 189.19,-292.79 187.66,-299.62"/>
</g>
<!-- Node52 -->
<g id="node9" class="node">
<title>Node52</title>
<g id="a_node9"><a xlink:href="handler_8c.html#ae4766ce7789cb13bef43c7b6833c3bf0" target="_top" xlink:title="Decode an email&#39;s attachment.">
<polygon fill="#fff0f0" stroke="red" points="299,-278 163,-278 163,-259 299,-259 299,-278"/>
<text text-anchor="middle" x="231" y="-266" font-family="Helvetica,sans-Serif" font-size="10.00">mutt_decode_attachment</text>
</a>
</g>
</g>
<!-- Node1&#45;&gt;Node52 -->
<g id="edge8" class="edge">
<title>Node1&#45;&gt;Node52</title>
<path fill="none" stroke="#63b8ff" d="M127.07,-268.5C134.97,-268.5 143.13,-268.5 151.24,-268.5"/>
<polygon fill="#63b8ff" stroke="#63b8ff" points="151.13,-272 161.13,-268.5 151.13,-265 151.13,-272"/>
</g>
<!-- Node94 -->
<g id="node10" class="node">
<title>Node94</title>
<g id="a_node10"><a xlink:href="file_8c.html#a0a6ff09a685fb6fa1120a582a5a6ef4a" target="_top" xlink:title="Copy the contents of one file into another.">
<polygon fill="white" stroke="#666666" points="291.5,-241 170.5,-241 170.5,-222 291.5,-222 291.5,-241"/>
<text text-anchor="middle" x="231" y="-229" font-family="Helvetica,sans-Serif" font-size="10.00">mutt_file_copy_stream</text>
</a>
</g>
</g>
<!-- Node1&#45;&gt;Node94 -->
<g id="edge9" class="edge">
<title>Node1&#45;&gt;Node94</title>
<path fill="none" stroke="#63b8ff" d="M108.85,-258.58C128.98,-254.08 153,-248.71 174.33,-243.95"/>
<polygon fill="#63b8ff" stroke="#63b8ff" points="175.05,-247.37 184.05,-241.77 173.53,-240.54 175.05,-247.37"/>
</g>
<!-- Node95 -->
<g id="node11" class="node">
<title>Node95</title>
<g id="a_node11"><a xlink:href="file_8c.html#a31f49795ff5b9558db5476e5777e63b6" target="_top" xlink:title="Close a FILE handle (and NULL the pointer)">
<polygon fill="white" stroke="#666666" points="275.5,-204 186.5,-204 186.5,-185 275.5,-185 275.5,-204"/>
<text text-anchor="middle" x="231" y="-192" font-family="Helvetica,sans-Serif" font-size="10.00">mutt_file_fclose</text>
</a>
</g>
</g>
<!-- Node1&#45;&gt;Node95 -->
<g id="edge10" class="edge">
<title>Node1&#45;&gt;Node95</title>
<path fill="none" stroke="#63b8ff" d="M79.63,-258.58C98.5,-246.55 132.06,-226.32 163,-213.5 167.91,-211.47 173.1,-209.57 178.35,-207.83"/>
<polygon fill="#63b8ff" stroke="#63b8ff" points="179.15,-211.24 187.65,-204.91 177.06,-204.56 179.15,-211.24"/>
</g>
<!-- Node96 -->
<g id="node12" class="node">
<title>Node96</title>
<g id="a_node12"><a xlink:href="file_8c.html#a1cd484089a0a5e38ac2c134c3d86abf9" target="_top" xlink:title="Call fopen() safely.">
<polygon fill="#fff0f0" stroke="red" points="276,-167 186,-167 186,-148 276,-148 276,-167"/>
<text text-anchor="middle" x="231" y="-155" font-family="Helvetica,sans-Serif" font-size="10.00">mutt_file_fopen</text>
</a>
</g>
</g>
<!-- Node1&#45;&gt;Node96 -->
<g id="edge11" class="edge">
<title>Node1&#45;&gt;Node96</title>
<path fill="none" stroke="#63b8ff" d="M72.31,-258.56C87.66,-239.72 123.67,-198.7 163,-176.5 166.8,-174.36 170.86,-172.44 175.03,-170.73"/>
<polygon fill="#63b8ff" stroke="#63b8ff" points="175.94,-174.12 184.13,-167.4 173.53,-167.55 175.94,-174.12"/>
</g>
<!-- Node104 -->
<g id="node13" class="node">
<title>Node104</title>
<g id="a_node13"><a xlink:href="file_8c.html#a1ad76f956147154f16128b7761dadd58" target="_top" xlink:title="Read a line from a file.">
<polygon fill="#fff0f0" stroke="red" points="283,-130 179,-130 179,-111 283,-111 283,-130"/>
<text text-anchor="middle" x="231" y="-118" font-family="Helvetica,sans-Serif" font-size="10.00">mutt_file_read_line</text>
</a>
</g>
</g>
<!-- Node1&#45;&gt;Node104 -->
<g id="edge12" class="edge">
<title>Node1&#45;&gt;Node104</title>
<path fill="none" stroke="#63b8ff" d="M69.16,-258.7C81.14,-234.55 115.48,-171.84 163,-139.5 165.36,-137.89 167.86,-136.42 170.44,-135.07"/>
<polygon fill="#63b8ff" stroke="#63b8ff" points="171.68,-138.35 179.39,-131.08 168.83,-131.96 171.68,-138.35"/>
</g>
<!-- Node106 -->
<g id="node14" class="node">
<title>Node106</title>
<g id="a_node14"><a xlink:href="file_8c.html#ae57463c2854c006a3c67b78736e9056e" target="_top" xlink:title="Delete a file, carefully.">
<polygon fill="white" stroke="#666666" points="276,-93 186,-93 186,-74 276,-74 276,-93"/>
<text text-anchor="middle" x="231" y="-81" font-family="Helvetica,sans-Serif" font-size="10.00">mutt_file_unlink</text>
</a>
</g>
</g>
<!-- Node1&#45;&gt;Node106 -->
<g id="edge13" class="edge">
<title>Node1&#45;&gt;Node106</title>
<path fill="none" stroke="#63b8ff" d="M67.5,-258.5C76.67,-229.63 107.22,-145.41 163,-102.5 166.72,-99.64 170.85,-97.21 175.18,-95.14"/>
<polygon fill="#63b8ff" stroke="#63b8ff" points="176.19,-98.51 184.16,-91.53 173.58,-92.02 176.19,-98.51"/>
</g>
<!-- Node79 -->
<g id="node15" class="node">
<title>Node79</title>
<g id="a_node15"><a xlink:href="mutt_2string_8c.html#a29db81d6f5a7dd216cbea75ecf8a5885" target="_top" xlink:title="Compare two strings, ignoring case.">
<polygon fill="#fff0f0" stroke="red" points="275.5,-56 186.5,-56 186.5,-37 275.5,-37 275.5,-56"/>
<text text-anchor="middle" x="231" y="-44" font-family="Helvetica,sans-Serif" font-size="10.00">mutt_istr_equal</text>
</a>
</g>
</g>
<!-- Node1&#45;&gt;Node79 -->
<g id="edge14" class="edge">
<title>Node1&#45;&gt;Node79</title>
<path fill="none" stroke="#63b8ff" d="M66.3,-258.71C72.85,-226.01 98.46,-119.61 163,-65.5 166.86,-62.27 171.23,-59.58 175.85,-57.35"/>
<polygon fill="#63b8ff" stroke="#63b8ff" points="176.88,-60.71 184.85,-53.73 174.27,-54.22 176.88,-60.71"/>
</g>
<!-- Node107 -->
<g id="node16" class="node">
<title>Node107</title>
<g id="a_node16"><a xlink:href="smime_8c.html#a78f4b26aa7184098db006fdc8eb96ae4" target="_top" xlink:title="Use SMIME to verify a file.">
<polygon fill="#fff0f0" stroke="red" points="288,-19 174,-19 174,0 288,0 288,-19"/>
<text text-anchor="middle" x="231" y="-7" font-family="Helvetica,sans-Serif" font-size="10.00">smime_invoke_verify</text>
</a>
</g>
</g>
<!-- Node1&#45;&gt;Node107 -->
<g id="edge15" class="edge">
<title>Node1&#45;&gt;Node107</title>
<path fill="none" stroke="#63b8ff" d="M65.53,-258.53C69.83,-221.95 89.76,-93.89 163,-28.5 164.43,-27.23 165.93,-26.04 167.5,-24.93"/>
<polygon fill="#63b8ff" stroke="#63b8ff" points="168.86,-28.19 175.78,-20.16 165.36,-22.12 168.86,-28.19"/>
</g>
<!-- Node25&#45;&gt;Node45 -->
<g id="edge6" class="edge">
<title>Node25&#45;&gt;Node45</title>
<path fill="none" stroke="#63b8ff" d="M283.97,-374.96C296.7,-373.36 310.43,-371.63 323.49,-369.99"/>
<polygon fill="#63b8ff" stroke="#63b8ff" points="323.76,-373.48 333.25,-368.76 322.89,-366.54 323.76,-373.48"/>
</g>
</g>
</svg>
