<?xml version="1.0" encoding="UTF-8" standalone="no"?>
<!DOCTYPE svg PUBLIC "-//W3C//DTD SVG 1.1//EN"
 "http://www.w3.org/Graphics/SVG/1.1/DTD/svg11.dtd">
<!-- Generated by graphviz version 12.2.1 (20241206.2353)
 -->
<!-- Title: op_compose_rename_file Pages: 1 -->
<svg width="438pt" height="582pt"
 viewBox="0.00 0.00 437.75 582.25" xmlns="http://www.w3.org/2000/svg" xmlns:xlink="http://www.w3.org/1999/xlink">
<g id="graph0" class="graph" transform="scale(1 1) rotate(0) translate(4 578.25)">
<title>op_compose_rename_file</title>
<!-- Node1 -->
<g id="Node000001" class="node">
<title>Node1</title>
<g id="a_Node000001"><a xlink:title="Rename/move an attached file &#45; Implements compose_function_t &#45;.">
<polygon fill="#999999" stroke="#666666" points="133.75,-302.25 0,-302.25 0,-280 133.75,-280 133.75,-302.25"/>
<text text-anchor="middle" x="66.88" y="-288.75" font-family="Helvetica,sans-Serif" font-size="10.00">op_compose_rename_file</text>
</a>
</g>
</g>
<!-- Node2 -->
<g id="Node000002" class="node">
<title>Node2</title>
<g id="a_Node000002"><a xlink:href="buffer_8c.html#a4245e227baa2a9beb6991917404aab0d" target="_top" xlink:title="Is the Buffer empty?">
<polygon fill="#fff0f0" stroke="red" points="273.12,-574.25 195.62,-574.25 195.62,-552 273.12,-552 273.12,-574.25"/>
<text text-anchor="middle" x="234.38" y="-560.75" font-family="Helvetica,sans-Serif" font-size="10.00">buf_is_empty</text>
</a>
</g>
</g>
<!-- Node1&#45;&gt;Node2 -->
<g id="edge1_Node000001_Node000002" class="edge">
<title>Node1&#45;&gt;Node2</title>
<g id="a_edge1_Node000001_Node000002"><a xlink:title=" ">
<path fill="none" stroke="#63b8ff" d="M69.41,-302.72C75.12,-341.51 98.64,-468.2 169.75,-538.12 174.19,-542.49 179.49,-546.12 185.1,-549.13"/>
<polygon fill="#63b8ff" stroke="#63b8ff" points="183.51,-552.25 194.06,-553.27 186.45,-545.9 183.51,-552.25"/>
</a>
</g>
</g>
<!-- Node5 -->
<g id="Node000005" class="node">
<title>Node5</title>
<g id="a_Node000005"><a xlink:href="pool_8c.html#a41cba27c25d33cb6822789a2856093f2" target="_top" xlink:title="Get a Buffer from the pool.">
<polygon fill="#fff0f0" stroke="red" points="420.75,-532.25 344,-532.25 344,-510 420.75,-510 420.75,-532.25"/>
<text text-anchor="middle" x="382.38" y="-518.75" font-family="Helvetica,sans-Serif" font-size="10.00">buf_pool_get</text>
</a>
</g>
</g>
<!-- Node1&#45;&gt;Node5 -->
<g id="edge2_Node000001_Node000005" class="edge">
<title>Node1&#45;&gt;Node5</title>
<g id="a_edge2_Node000001_Node000005"><a xlink:title=" ">
<path fill="none" stroke="#63b8ff" d="M69.73,-302.27C76.2,-337.28 101.21,-445.58 169.75,-494.12 217.26,-527.77 286.2,-530.28 332.35,-527.2"/>
<polygon fill="#63b8ff" stroke="#63b8ff" points="332.37,-530.71 342.06,-526.44 331.82,-523.74 332.37,-530.71"/>
</a>
</g>
</g>
<!-- Node13 -->
<g id="Node000013" class="node">
<title>Node13</title>
<g id="a_Node000013"><a xlink:href="pool_8c.html#a4cc6068279461cb8628219586dfa35a1" target="_top" xlink:title="Return a Buffer to the pool.">
<polygon fill="#fff0f0" stroke="red" points="429.75,-490.25 335,-490.25 335,-468 429.75,-468 429.75,-490.25"/>
<text text-anchor="middle" x="382.38" y="-476.75" font-family="Helvetica,sans-Serif" font-size="10.00">buf_pool_release</text>
</a>
</g>
</g>
<!-- Node1&#45;&gt;Node13 -->
<g id="edge3_Node000001_Node000013" class="edge">
<title>Node1&#45;&gt;Node13</title>
<g id="a_edge3_Node000001_Node000013"><a xlink:title=" ">
<path fill="none" stroke="#63b8ff" d="M70.44,-302.37C78.5,-334.73 106.6,-428.29 169.75,-467.12 215.6,-495.32 278.14,-495.21 323.33,-489.94"/>
<polygon fill="#63b8ff" stroke="#63b8ff" points="323.75,-493.42 333.22,-488.66 322.85,-486.48 323.75,-493.42"/>
</a>
</g>
</g>
<!-- Node18 -->
<g id="Node000018" class="node">
<title>Node18</title>
<g id="a_Node000018"><a xlink:href="buffer_8c.html#ac958acbd189e463a2c3bbc2f23aaeb1e" target="_top" xlink:title="Copy a string into a Buffer.">
<polygon fill="#fff0f0" stroke="red" points="414.38,-446.25 350.38,-446.25 350.38,-424 414.38,-424 414.38,-446.25"/>
<text text-anchor="middle" x="382.38" y="-432.75" font-family="Helvetica,sans-Serif" font-size="10.00">buf_strcpy</text>
</a>
</g>
</g>
<!-- Node1&#45;&gt;Node18 -->
<g id="edge4_Node000001_Node000018" class="edge">
<title>Node1&#45;&gt;Node18</title>
<g id="a_edge4_Node000001_Node000018"><a xlink:title=" ">
<path fill="none" stroke="#63b8ff" d="M76.24,-302.6C92.04,-323.37 128.39,-367.06 169.75,-389.12 198.57,-404.5 285.75,-420.19 338.8,-428.69"/>
<polygon fill="#63b8ff" stroke="#63b8ff" points="337.97,-432.1 348.4,-430.21 339.06,-425.19 337.97,-432.1"/>
</a>
</g>
</g>
<!-- Node19 -->
<g id="Node000019" class="node">
<title>Node19</title>
<g id="a_Node000019"><a xlink:href="buffer_8h.html#a728ebc5a947b77c8d56db44ce553a7ab" target="_top" xlink:title="Convert a buffer to a const char * &quot;string&quot;.">
<polygon fill="white" stroke="#666666" points="414,-380.25 350.75,-380.25 350.75,-358 414,-358 414,-380.25"/>
<text text-anchor="middle" x="382.38" y="-366.75" font-family="Helvetica,sans-Serif" font-size="10.00">buf_string</text>
</a>
</g>
</g>
<!-- Node1&#45;&gt;Node19 -->
<g id="edge5_Node000001_Node000019" class="edge">
<title>Node1&#45;&gt;Node19</title>
<g id="a_edge5_Node000001_Node000019"><a xlink:title=" ">
<path fill="none" stroke="#63b8ff" d="M114.47,-302.72C175.4,-317.88 281.21,-344.2 339.64,-358.74"/>
<polygon fill="#63b8ff" stroke="#63b8ff" points="338.64,-362.1 349.19,-361.12 340.33,-355.31 338.64,-362.1"/>
</a>
</g>
</g>
<!-- Node20 -->
<g id="Node000020" class="node">
<title>Node20</title>
<g id="a_Node000020"><a xlink:href="compose_2functions_8c.html#a0b0529f94fccff91159e173fb58a7c64" target="_top" xlink:title="Check if there are any attachments.">
<polygon fill="white" stroke="#666666" points="270.88,-302.25 197.88,-302.25 197.88,-280 270.88,-280 270.88,-302.25"/>
<text text-anchor="middle" x="234.38" y="-288.75" font-family="Helvetica,sans-Serif" font-size="10.00">check_count</text>
</a>
</g>
</g>
<!-- Node1&#45;&gt;Node20 -->
<g id="edge7_Node000001_Node000020" class="edge">
<title>Node1&#45;&gt;Node20</title>
<g id="a_edge7_Node000001_Node000020"><a xlink:title=" ">
<path fill="none" stroke="#63b8ff" d="M134.24,-291.12C151.6,-291.12 169.97,-291.12 186.12,-291.12"/>
<polygon fill="#63b8ff" stroke="#63b8ff" points="185.92,-294.63 195.92,-291.13 185.92,-287.63 185.92,-294.63"/>
</a>
</g>
</g>
<!-- Node21 -->
<g id="Node000021" class="node">
<title>Node21</title>
<g id="a_Node000021"><a xlink:href="recvattach_8c.html#a718168300f4a21fa0c1a28321aeaa6ee" target="_top" xlink:title="Get the current attachment.">
<polygon fill="#fff0f0" stroke="red" points="288.5,-262.25 180.25,-262.25 180.25,-240 288.5,-240 288.5,-262.25"/>
<text text-anchor="middle" x="234.38" y="-248.75" font-family="Helvetica,sans-Serif" font-size="10.00">current_attachment</text>
</a>
</g>
</g>
<!-- Node1&#45;&gt;Node21 -->
<g id="edge8_Node000001_Node000021" class="edge">
<title>Node1&#45;&gt;Node21</title>
<g id="a_edge8_Node000001_Node000021"><a xlink:title=" ">
<path fill="none" stroke="#63b8ff" d="M115.74,-279.56C134.02,-275.14 155.07,-270.05 174.27,-265.41"/>
<polygon fill="#63b8ff" stroke="#63b8ff" points="174.96,-268.84 183.86,-263.09 173.31,-262.04 174.96,-268.84"/>
</a>
</g>
</g>
<!-- Node23 -->
<g id="Node000023" class="node">
<title>Node23</title>
<g id="a_Node000023"><a xlink:href="hooks_2exec_8c.html#ab8440ad38319fcc7ba6280645e21e62f" target="_top" xlink:title="Perform a message hook.">
<polygon fill="#fff0f0" stroke="red" points="289.62,-380.25 179.12,-380.25 179.12,-358 289.62,-358 289.62,-380.25"/>
<text text-anchor="middle" x="234.38" y="-366.75" font-family="Helvetica,sans-Serif" font-size="10.00">exec_message_hook</text>
</a>
</g>
</g>
<!-- Node1&#45;&gt;Node23 -->
<g id="edge9_Node000001_Node000023" class="edge">
<title>Node1&#45;&gt;Node23</title>
<g id="a_edge9_Node000001_Node000023"><a xlink:title=" ">
<path fill="none" stroke="#63b8ff" d="M88.63,-302.74C108.99,-313.95 141.08,-331.08 169.75,-344.12 176.72,-347.3 184.21,-350.46 191.53,-353.41"/>
<polygon fill="#63b8ff" stroke="#63b8ff" points="190.04,-356.58 200.63,-357.01 192.62,-350.08 190.04,-356.58"/>
</a>
</g>
</g>
<!-- Node563 -->
<g id="Node000563" class="node">
<title>Node563</title>
<g id="a_Node000563"><a xlink:href="muttlib_8c.html#ab8f797f0a3b645c549e1503369a9832b" target="_top" xlink:title="Create the canonical path.">
<polygon fill="#fff0f0" stroke="red" points="272,-458.25 196.75,-458.25 196.75,-436 272,-436 272,-458.25"/>
<text text-anchor="middle" x="234.38" y="-444.75" font-family="Helvetica,sans-Serif" font-size="10.00">expand_path</text>
</a>
</g>
</g>
<!-- Node1&#45;&gt;Node563 -->
<g id="edge11_Node000001_Node000563" class="edge">
<title>Node1&#45;&gt;Node563</title>
<g id="a_edge11_Node000001_Node000563"><a xlink:title=" ">
<path fill="none" stroke="#63b8ff" d="M73.95,-302.61C87.74,-327.68 123.84,-387.79 169.75,-422.12 174.68,-425.81 180.23,-429.03 185.93,-431.82"/>
<polygon fill="#63b8ff" stroke="#63b8ff" points="184.34,-434.94 194.9,-435.78 187.16,-428.54 184.34,-434.94"/>
</a>
</g>
</g>
<!-- Node430 -->
<g id="Node000430" class="node">
<title>Node430</title>
<g id="a_Node000430"><a xlink:href="menu_2menu_8c.html#a5a9733924cc01176ee916515a3683268" target="_top" xlink:title="Queue a request for a redraw.">
<polygon fill="white" stroke="#666666" points="291.5,-222.25 177.25,-222.25 177.25,-200 291.5,-200 291.5,-222.25"/>
<text text-anchor="middle" x="234.38" y="-208.75" font-family="Helvetica,sans-Serif" font-size="10.00">menu_queue_redraw</text>
</a>
</g>
</g>
<!-- Node1&#45;&gt;Node430 -->
<g id="edge16_Node000001_Node000430" class="edge">
<title>Node1&#45;&gt;Node430</title>
<g id="a_edge16_Node000001_Node000430"><a xlink:title=" ">
<path fill="none" stroke="#63b8ff" d="M84.54,-279.7C104.21,-266.6 138.24,-245.14 169.75,-231.12 173.46,-229.48 177.35,-227.9 181.29,-226.42"/>
<polygon fill="#63b8ff" stroke="#63b8ff" points="182.11,-229.84 190.37,-223.2 179.77,-223.24 182.11,-229.84"/>
</a>
</g>
</g>
<!-- Node1316 -->
<g id="Node001316" class="node">
<title>Node1316</title>
<g id="a_Node001316"><a xlink:href="file_8c.html#a8154bfd014904ca57b0ba2cfb31e26bc" target="_top" xlink:title="Rename a file.">
<polygon fill="#fff0f0" stroke="red" points="283.25,-182.25 185.5,-182.25 185.5,-160 283.25,-160 283.25,-182.25"/>
<text text-anchor="middle" x="234.38" y="-168.75" font-family="Helvetica,sans-Serif" font-size="10.00">mutt_file_rename</text>
</a>
</g>
</g>
<!-- Node1&#45;&gt;Node1316 -->
<g id="edge17_Node000001_Node001316" class="edge">
<title>Node1&#45;&gt;Node1316</title>
<g id="a_edge17_Node000001_Node001316"><a xlink:title=" ">
<path fill="none" stroke="#63b8ff" d="M76.39,-279.77C92.43,-259.16 129.16,-215.48 169.75,-191.12 172.05,-189.74 174.46,-188.45 176.94,-187.23"/>
<polygon fill="#63b8ff" stroke="#63b8ff" points="178.23,-190.49 186.01,-183.3 175.44,-184.07 178.23,-190.49"/>
</a>
</g>
</g>
<!-- Node1317 -->
<g id="Node001317" class="node">
<title>Node1317</title>
<g id="a_Node001317"><a xlink:href="sendlib_8c.html#ae75843a591a8292e4f4e42df29c8b2d0" target="_top" xlink:title="Timestamp an Attachment.">
<polygon fill="#fff0f0" stroke="red" points="299,-142.25 169.75,-142.25 169.75,-120 299,-120 299,-142.25"/>
<text text-anchor="middle" x="234.38" y="-128.75" font-family="Helvetica,sans-Serif" font-size="10.00">mutt_stamp_attachment</text>
</a>
</g>
</g>
<!-- Node1&#45;&gt;Node1317 -->
<g id="edge18_Node000001_Node001317" class="edge">
<title>Node1&#45;&gt;Node1317</title>
<g id="a_edge18_Node000001_Node001317"><a xlink:title=" ">
<path fill="none" stroke="#63b8ff" d="M72.98,-279.8C85.52,-253.24 120.44,-186.56 169.75,-151.12 171.33,-149.99 172.98,-148.91 174.69,-147.9"/>
<polygon fill="#63b8ff" stroke="#63b8ff" points="176.21,-151.05 183.54,-143.4 173.04,-144.81 176.21,-151.05"/>
</a>
</g>
</g>
<!-- Node96 -->
<g id="Node000096" class="node">
<title>Node96</title>
<g id="a_Node000096"><a xlink:href="mutt_2string_8c.html#af8c32ffc64dd55e92001a974a4be6bbf" target="_top" xlink:title="Replace one string with another.">
<polygon fill="#fff0f0" stroke="red" points="281.38,-102.25 187.38,-102.25 187.38,-80 281.38,-80 281.38,-102.25"/>
<text text-anchor="middle" x="234.38" y="-88.75" font-family="Helvetica,sans-Serif" font-size="10.00">mutt_str_replace</text>
</a>
</g>
</g>
<!-- Node1&#45;&gt;Node96 -->
<g id="edge19_Node000001_Node000096" class="edge">
<title>Node1&#45;&gt;Node96</title>
<g id="a_edge19_Node000001_Node000096"><a xlink:title=" ">
<path fill="none" stroke="#63b8ff" d="M71.02,-279.92C80.42,-248.43 111.4,-158.32 169.75,-111.12 171.99,-109.31 174.41,-107.66 176.93,-106.15"/>
<polygon fill="#63b8ff" stroke="#63b8ff" points="178.38,-109.34 185.76,-101.74 175.25,-103.08 178.38,-109.34"/>
</a>
</g>
</g>
<!-- Node543 -->
<g id="Node000543" class="node">
<title>Node543</title>
<g id="a_Node000543"><a xlink:href="group__gui__mw.html#gabcbd2498b412e9f8e9d953cafc01989c" target="_top" xlink:title="Ask the user for a string &#45;.">
<polygon fill="#fff0f0" stroke="red" points="273.12,-62.25 195.62,-62.25 195.62,-40 273.12,-40 273.12,-62.25"/>
<text text-anchor="middle" x="234.38" y="-48.75" font-family="Helvetica,sans-Serif" font-size="10.00">mw_get_field</text>
</a>
</g>
</g>
<!-- Node1&#45;&gt;Node543 -->
<g id="edge20_Node000001_Node000543" class="edge">
<title>Node1&#45;&gt;Node543</title>
<g id="a_edge20_Node000001_Node000543"><a xlink:title=" ">
<path fill="none" stroke="#63b8ff" d="M69.83,-279.6C76.6,-243.3 102.4,-130.3 169.75,-71.12 174.15,-67.26 179.29,-64.14 184.72,-61.62"/>
<polygon fill="#63b8ff" stroke="#63b8ff" points="185.9,-64.92 193.96,-58.04 183.37,-58.39 185.9,-64.92"/>
</a>
</g>
</g>
<!-- Node662 -->
<g id="Node000662" class="node">
<title>Node662</title>
<g id="a_Node000662"><a xlink:href="muttlib_8c.html#a795f96cfea0cbef439e21b16e4613c70" target="_top" xlink:title="Shorten a mailbox path using &#39;~&#39; or &#39;=&#39;.">
<polygon fill="#fff0f0" stroke="red" points="276.88,-22.25 191.88,-22.25 191.88,0 276.88,0 276.88,-22.25"/>
<text text-anchor="middle" x="234.38" y="-8.75" font-family="Helvetica,sans-Serif" font-size="10.00">pretty_mailbox</text>
</a>
</g>
</g>
<!-- Node1&#45;&gt;Node662 -->
<g id="edge21_Node000001_Node000662" class="edge">
<title>Node1&#45;&gt;Node662</title>
<g id="a_edge21_Node000001_Node000662"><a xlink:title=" ">
<path fill="none" stroke="#63b8ff" d="M68.92,-279.58C73.21,-239.18 93.02,-102.74 169.75,-31.12 173.08,-28.01 176.9,-25.39 180.96,-23.17"/>
<polygon fill="#63b8ff" stroke="#63b8ff" points="182.39,-26.36 190.08,-19.07 179.53,-19.98 182.39,-26.36"/>
</a>
</g>
</g>
<!-- Node19&#45;&gt;Node19 -->
<g id="edge6_Node000019_Node000019" class="edge">
<title>Node19&#45;&gt;Node19</title>
<g id="a_edge6_Node000019_Node000019"><a xlink:title=" ">
<path fill="none" stroke="#63b8ff" d="M358.21,-380.49C349.17,-389.28 357.23,-398.25 382.38,-398.25 396.13,-398.25 404.77,-395.57 408.3,-391.7"/>
<polygon fill="#63b8ff" stroke="#63b8ff" points="411.78,-391.32 406.78,-381.98 404.87,-392.4 411.78,-391.32"/>
</a>
</g>
</g>
<!-- Node23&#45;&gt;Node19 -->
<g id="edge10_Node000023_Node000019" class="edge">
<title>Node23&#45;&gt;Node19</title>
<g id="a_edge10_Node000023_Node000019"><a xlink:title=" ">
<path fill="none" stroke="#63b8ff" d="M289.74,-369.12C306.02,-369.12 323.63,-369.12 339.01,-369.12"/>
<polygon fill="#63b8ff" stroke="#63b8ff" points="338.78,-372.63 348.78,-369.13 338.78,-365.63 338.78,-372.63"/>
</a>
</g>
</g>
<!-- Node563&#45;&gt;Node5 -->
<g id="edge12_Node000563_Node000005" class="edge">
<title>Node563&#45;&gt;Node5</title>
<g id="a_edge12_Node000563_Node000005"><a xlink:title=" ">
<path fill="none" stroke="#63b8ff" d="M257.02,-458.73C277.12,-469.43 307.93,-485.65 335,-499.12 338.73,-500.98 342.64,-502.89 346.55,-504.78"/>
<polygon fill="#63b8ff" stroke="#63b8ff" points="344.84,-507.84 355.38,-509 347.86,-501.53 344.84,-507.84"/>
</a>
</g>
</g>
<!-- Node563&#45;&gt;Node13 -->
<g id="edge13_Node000563_Node000013" class="edge">
<title>Node563&#45;&gt;Node13</title>
<g id="a_edge13_Node000563_Node000013"><a xlink:title=" ">
<path fill="none" stroke="#63b8ff" d="M272.22,-455.2C287.74,-458.6 306.18,-462.64 323.44,-466.43"/>
<polygon fill="#63b8ff" stroke="#63b8ff" points="322.58,-469.82 333.1,-468.54 324.08,-462.98 322.58,-469.82"/>
</a>
</g>
</g>
<!-- Node563&#45;&gt;Node18 -->
<g id="edge14_Node000563_Node000018" class="edge">
<title>Node563&#45;&gt;Node18</title>
<g id="a_edge14_Node000563_Node000018"><a xlink:title=" ">
<path fill="none" stroke="#63b8ff" d="M272.22,-444.1C292.46,-442.43 317.66,-440.36 338.75,-438.63"/>
<polygon fill="#63b8ff" stroke="#63b8ff" points="338.8,-442.14 348.48,-437.83 338.23,-435.16 338.8,-442.14"/>
</a>
</g>
</g>
<!-- Node563&#45;&gt;Node19 -->
<g id="edge15_Node000563_Node000019" class="edge">
<title>Node563&#45;&gt;Node19</title>
<g id="a_edge15_Node000563_Node000019"><a xlink:title=" ">
<path fill="none" stroke="#63b8ff" d="M256.92,-435.62C281.39,-422.54 321.57,-401.07 349.64,-386.08"/>
<polygon fill="#63b8ff" stroke="#63b8ff" points="351.24,-389.19 358.41,-381.39 347.94,-383.02 351.24,-389.19"/>
</a>
</g>
</g>
</g>
</svg>
