<?xml version="1.0" encoding="UTF-8" standalone="no"?>
<!DOCTYPE svg PUBLIC "-//W3C//DTD SVG 1.1//EN"
 "http://www.w3.org/Graphics/SVG/1.1/DTD/svg11.dtd">
<!-- Generated by graphviz version 12.2.1 (20241206.2353)
 -->
<!-- Title: op_compose_to_sender Pages: 1 -->
<svg width="303pt" height="150pt"
 viewBox="0.00 0.00 302.50 150.25" xmlns="http://www.w3.org/2000/svg" xmlns:xlink="http://www.w3.org/1999/xlink">
<g id="graph0" class="graph" transform="scale(1 1) rotate(0) translate(4 146.25)">
<title>op_compose_to_sender</title>
<!-- Node1 -->
<g id="Node000001" class="node">
<title>Node1</title>
<g id="a_Node000001"><a xlink:title="compose new message to the current message sender &#45; Implements attach_function_t &#45;">
<polygon fill="#999999" stroke="#666666" points="126.25,-82.25 0,-82.25 0,-60 126.25,-60 126.25,-82.25"/>
<text text-anchor="middle" x="63.12" y="-68.75" font-family="Helvetica,sans-Serif" font-size="10.00">op_compose_to_sender</text>
</a>
</g>
</g>
<!-- Node2 -->
<g id="Node000002" class="node">
<title>Node2</title>
<g id="a_Node000002"><a xlink:href="attach_2selection_8c.html#acaf0e5bd5b28ada558814f7b4204eedc" target="_top" xlink:title="Build a working set of Attachments for an action.">
<polygon fill="#fff0f0" stroke="red" points="275.38,-142.25 181.38,-142.25 181.38,-120 275.38,-120 275.38,-142.25"/>
<text text-anchor="middle" x="228.38" y="-128.75" font-family="Helvetica,sans-Serif" font-size="10.00">aa_add_selection</text>
</a>
</g>
</g>
<!-- Node1&#45;&gt;Node2 -->
<g id="edge1_Node000001_Node000002" class="edge">
<title>Node1&#45;&gt;Node2</title>
<g id="a_edge1_Node000001_Node000002"><a xlink:title=" ">
<path fill="none" stroke="#63b8ff" d="M90.53,-82.64C110.14,-91 137.64,-102.35 162.25,-111.12 166.95,-112.8 171.87,-114.47 176.81,-116.08"/>
<polygon fill="#63b8ff" stroke="#63b8ff" points="175.55,-119.36 186.14,-119.06 177.68,-112.69 175.55,-119.36"/>
</a>
</g>
</g>
<!-- Node8 -->
<g id="Node000008" class="node">
<title>Node8</title>
<g id="a_Node000008"><a xlink:href="attach_2functions_8c.html#a236354e7617c41529a4d59cd03558041" target="_top" xlink:title="Check if in attach&#45;message mode.">
<polygon fill="#fff0f0" stroke="red" points="266,-102.25 190.75,-102.25 190.75,-80 266,-80 266,-102.25"/>
<text text-anchor="middle" x="228.38" y="-88.75" font-family="Helvetica,sans-Serif" font-size="10.00">check_attach</text>
</a>
</g>
</g>
<!-- Node1&#45;&gt;Node8 -->
<g id="edge2_Node000001_Node000008" class="edge">
<title>Node1&#45;&gt;Node8</title>
<g id="a_edge2_Node000001_Node000008"><a xlink:title=" ">
<path fill="none" stroke="#63b8ff" d="M126.31,-78.74C143.88,-80.9 162.73,-83.2 179.33,-85.24"/>
<polygon fill="#63b8ff" stroke="#63b8ff" points="178.57,-88.67 188.92,-86.41 179.42,-81.72 178.57,-88.67"/>
</a>
</g>
</g>
<!-- Node11 -->
<g id="Node000011" class="node">
<title>Node11</title>
<g id="a_Node000011"><a xlink:href="menu_2menu_8c.html#a5a9733924cc01176ee916515a3683268" target="_top" xlink:title="Queue a request for a redraw.">
<polygon fill="white" stroke="#666666" points="285.5,-62.25 171.25,-62.25 171.25,-40 285.5,-40 285.5,-62.25"/>
<text text-anchor="middle" x="228.38" y="-48.75" font-family="Helvetica,sans-Serif" font-size="10.00">menu_queue_redraw</text>
</a>
</g>
</g>
<!-- Node1&#45;&gt;Node11 -->
<g id="edge3_Node000001_Node000011" class="edge">
<title>Node1&#45;&gt;Node11</title>
<g id="a_edge3_Node000001_Node000011"><a xlink:title=" ">
<path fill="none" stroke="#63b8ff" d="M126.31,-63.51C137.21,-62.17 148.6,-60.78 159.64,-59.42"/>
<polygon fill="#63b8ff" stroke="#63b8ff" points="159.99,-62.91 169.49,-58.22 159.14,-55.96 159.99,-62.91"/>
</a>
</g>
</g>
<!-- Node12 -->
<g id="Node000012" class="node">
<title>Node12</title>
<g id="a_Node000012"><a xlink:href="recvcmd_8c.html#a20a6bfbaa5bc71fa0ae1c1115b3e8366" target="_top" xlink:title="Compose an email to the sender in the email attachment.">
<polygon fill="#fff0f0" stroke="red" points="294.5,-22.25 162.25,-22.25 162.25,0 294.5,0 294.5,-22.25"/>
<text text-anchor="middle" x="228.38" y="-8.75" font-family="Helvetica,sans-Serif" font-size="10.00">mutt_attach_mail_sender</text>
</a>
</g>
</g>
<!-- Node1&#45;&gt;Node12 -->
<g id="edge4_Node000001_Node000012" class="edge">
<title>Node1&#45;&gt;Node12</title>
<g id="a_edge4_Node000001_Node000012"><a xlink:title=" ">
<path fill="none" stroke="#63b8ff" d="M90.53,-59.61C110.14,-51.25 137.64,-39.9 162.25,-31.12 166.95,-29.45 171.87,-27.78 176.81,-26.17"/>
<polygon fill="#63b8ff" stroke="#63b8ff" points="177.68,-29.56 186.14,-23.19 175.55,-22.89 177.68,-29.56"/>
</a>
</g>
</g>
</g>
</svg>
