<?xml version="1.0" encoding="UTF-8" standalone="no"?>
<!DOCTYPE svg PUBLIC "-//W3C//DTD SVG 1.1//EN"
 "http://www.w3.org/Graphics/SVG/1.1/DTD/svg11.dtd">
<!-- Generated by graphviz version 12.2.1 (20241206.2353)
 -->
<!-- Title: op_main_break_thread Pages: 1 -->
<svg width="279pt" height="230pt"
 viewBox="0.00 0.00 279.25 230.25" xmlns="http://www.w3.org/2000/svg" xmlns:xlink="http://www.w3.org/1999/xlink">
<g id="graph0" class="graph" transform="scale(1 1) rotate(0) translate(4 226.25)">
<title>op_main_break_thread</title>
<!-- Node1 -->
<g id="Node000001" class="node">
<title>Node1</title>
<g id="a_Node000001"><a xlink:title="Break the thread in two &#45; Implements index_function_t &#45;.">
<polygon fill="#999999" stroke="#666666" points="121,-122.25 0,-122.25 0,-100 121,-100 121,-122.25"/>
<text text-anchor="middle" x="60.5" y="-108.75" font-family="Helvetica,sans-Serif" font-size="10.00">op_main_break_thread</text>
</a>
</g>
</g>
<!-- Node2 -->
<g id="Node000002" class="node">
<title>Node2</title>
<g id="a_Node000002"><a xlink:href="dlg__index_8c.html#a0ae2dda8c87e81d6a3e8f8a15103e6c1" target="_top" xlink:title="Check the ACLs for a function.">
<polygon fill="white" stroke="#666666" points="243.5,-222.25 184.75,-222.25 184.75,-200 243.5,-200 243.5,-222.25"/>
<text text-anchor="middle" x="214.12" y="-208.75" font-family="Helvetica,sans-Serif" font-size="10.00">check_acl</text>
</a>
</g>
</g>
<!-- Node1&#45;&gt;Node2 -->
<g id="edge1_Node000001_Node000002" class="edge">
<title>Node1&#45;&gt;Node2</title>
<g id="a_edge1_Node000001_Node000002"><a xlink:title=" ">
<path fill="none" stroke="#63b8ff" d="M72.54,-122.69C89.35,-139.74 123.02,-171.68 157,-191.12 162.27,-194.14 168.08,-196.83 173.91,-199.18"/>
<polygon fill="#63b8ff" stroke="#63b8ff" points="172.27,-202.3 182.86,-202.51 174.71,-195.74 172.27,-202.3"/>
</a>
</g>
</g>
<!-- Node3 -->
<g id="Node000003" class="node">
<title>Node3</title>
<g id="a_Node000003"><a xlink:href="index_2functions_8c.html#a29abff6fd0d67c46bd9a0b2bb71c302a" target="_top" xlink:title="Build a working set of Emails for an action.">
<polygon fill="#fff0f0" stroke="red" points="261.5,-182.25 166.75,-182.25 166.75,-160 261.5,-160 261.5,-182.25"/>
<text text-anchor="middle" x="214.12" y="-168.75" font-family="Helvetica,sans-Serif" font-size="10.00">ea_add_selection</text>
</a>
</g>
</g>
<!-- Node1&#45;&gt;Node3 -->
<g id="edge2_Node000001_Node000003" class="edge">
<title>Node1&#45;&gt;Node3</title>
<g id="a_edge2_Node000001_Node000003"><a xlink:title=" ">
<path fill="none" stroke="#63b8ff" d="M88.1,-122.72C107.17,-130.93 133.53,-142.04 157,-151.12 160.89,-152.63 164.96,-154.16 169.04,-155.67"/>
<polygon fill="#63b8ff" stroke="#63b8ff" points="167.76,-158.93 178.35,-159.06 170.15,-152.35 167.76,-158.93"/>
</a>
</g>
</g>
<!-- Node11 -->
<g id="Node000011" class="node">
<title>Node11</title>
<g id="a_Node000011"><a xlink:href="menu_2menu_8c.html#a5a9733924cc01176ee916515a3683268" target="_top" xlink:title="Queue a request for a redraw.">
<polygon fill="white" stroke="#666666" points="271.25,-142.25 157,-142.25 157,-120 271.25,-120 271.25,-142.25"/>
<text text-anchor="middle" x="214.12" y="-128.75" font-family="Helvetica,sans-Serif" font-size="10.00">menu_queue_redraw</text>
</a>
</g>
</g>
<!-- Node1&#45;&gt;Node11 -->
<g id="edge3_Node000001_Node000011" class="edge">
<title>Node1&#45;&gt;Node11</title>
<g id="a_edge3_Node000001_Node000011"><a xlink:title=" ">
<path fill="none" stroke="#63b8ff" d="M121.43,-119.03C129.3,-120.07 137.42,-121.14 145.41,-122.19"/>
<polygon fill="#63b8ff" stroke="#63b8ff" points="144.73,-125.63 155.1,-123.47 145.64,-118.69 144.73,-125.63"/>
</a>
</g>
</g>
<!-- Node12 -->
<g id="Node000012" class="node">
<title>Node12</title>
<g id="a_Node000012"><a xlink:href="menu_2menu_8c.html#ae279bb826b97fcc88c0714b2a6383851" target="_top" xlink:title="Set the current selection in the Menu.">
<polygon fill="#fff0f0" stroke="red" points="259.62,-102.25 168.62,-102.25 168.62,-80 259.62,-80 259.62,-102.25"/>
<text text-anchor="middle" x="214.12" y="-88.75" font-family="Helvetica,sans-Serif" font-size="10.00">menu_set_index</text>
</a>
</g>
</g>
<!-- Node1&#45;&gt;Node12 -->
<g id="edge4_Node000001_Node000012" class="edge">
<title>Node1&#45;&gt;Node12</title>
<g id="a_edge4_Node000001_Node000012"><a xlink:title=" ">
<path fill="none" stroke="#63b8ff" d="M121.43,-103.22C133.1,-101.68 145.3,-100.07 156.84,-98.55"/>
<polygon fill="#63b8ff" stroke="#63b8ff" points="157.18,-102.04 166.63,-97.26 156.26,-95.1 157.18,-102.04"/>
</a>
</g>
</g>
<!-- Node40 -->
<g id="Node000040" class="node">
<title>Node40</title>
<g id="a_Node000040"><a xlink:href="email_2thread_8c.html#a8d7767d330784742799077faac576edb" target="_top" xlink:title="Break the email Thread.">
<polygon fill="#fff0f0" stroke="red" points="266.38,-62.25 161.88,-62.25 161.88,-40 266.38,-40 266.38,-62.25"/>
<text text-anchor="middle" x="214.12" y="-48.75" font-family="Helvetica,sans-Serif" font-size="10.00">mutt_break_thread</text>
</a>
</g>
</g>
<!-- Node1&#45;&gt;Node40 -->
<g id="edge5_Node000001_Node000040" class="edge">
<title>Node1&#45;&gt;Node40</title>
<g id="a_edge5_Node000001_Node000040"><a xlink:title=" ">
<path fill="none" stroke="#63b8ff" d="M88.1,-99.53C107.17,-91.32 133.53,-80.21 157,-71.12 160.89,-69.62 164.96,-68.09 169.04,-66.58"/>
<polygon fill="#63b8ff" stroke="#63b8ff" points="170.15,-69.9 178.35,-63.19 167.76,-63.32 170.15,-69.9"/>
</a>
</g>
</g>
<!-- Node45 -->
<g id="Node000045" class="node">
<title>Node45</title>
<g id="a_Node000045"><a xlink:href="email_2sort_8c.html#ac1d3dc1cd44f9b45eb265c9fa1447319" target="_top" xlink:title="Sort emails by their headers.">
<polygon fill="#fff0f0" stroke="red" points="266.38,-22.25 161.88,-22.25 161.88,0 266.38,0 266.38,-22.25"/>
<text text-anchor="middle" x="214.12" y="-8.75" font-family="Helvetica,sans-Serif" font-size="10.00">mutt_sort_headers</text>
</a>
</g>
</g>
<!-- Node1&#45;&gt;Node45 -->
<g id="edge6_Node000001_Node000045" class="edge">
<title>Node1&#45;&gt;Node45</title>
<g id="a_edge6_Node000001_Node000045"><a xlink:title=" ">
<path fill="none" stroke="#63b8ff" d="M72.54,-99.56C89.35,-82.51 123.02,-50.57 157,-31.12 159.44,-29.73 161.98,-28.41 164.6,-27.16"/>
<polygon fill="#63b8ff" stroke="#63b8ff" points="165.71,-30.49 173.48,-23.29 162.92,-24.07 165.71,-30.49"/>
</a>
</g>
</g>
</g>
</svg>
