<?xml version="1.0" encoding="UTF-8" standalone="no"?>
<!DOCTYPE svg PUBLIC "-//W3C//DTD SVG 1.1//EN"
 "http://www.w3.org/Graphics/SVG/1.1/DTD/svg11.dtd">
<!-- Generated by graphviz version 7.1.0 (0)
 -->
<!-- Title: index_color Pages: 1 -->
<svg width="237pt" height="64pt"
 viewBox="0.00 0.00 237.00 64.00" xmlns="http://www.w3.org/2000/svg" xmlns:xlink="http://www.w3.org/1999/xlink">
<g id="graph0" class="graph" transform="scale(1 1) rotate(0) translate(4 60)">
<title>index_color</title>
<!-- Node1 -->
<g id="node1" class="node">
<title>Node1</title>
<g id="a_node1"><a xlink:title="Calculate the colour for a line of the index &#45; Implements Menu::color() &#45;.">
<polygon fill="#999999" stroke="#666666" points="69,-37 0,-37 0,-18 69,-18 69,-37"/>
<text text-anchor="middle" x="34.5" y="-25" font-family="Helvetica,sans-Serif" font-size="10.00">index_color</text>
</a>
</g>
</g>
<!-- Node2 -->
<g id="node2" class="node">
<title>Node2</title>
<g id="a_node2"><a xlink:href="mview_8c.html#a1859332ec86bc1394a46665b33f847b9" target="_top" xlink:title="Get a virtual Email.">
<polygon fill="white" stroke="#666666" points="221.5,-56 112.5,-56 112.5,-37 221.5,-37 221.5,-56"/>
<text text-anchor="middle" x="167" y="-44" font-family="Helvetica,sans-Serif" font-size="10.00">mutt_get_virt_email</text>
</a>
</g>
</g>
<!-- Node1&#45;&gt;Node2 -->
<g id="edge1" class="edge">
<title>Node1&#45;&gt;Node2</title>
<path fill="none" stroke="#63b8ff" d="M69.45,-32.44C79.14,-33.85 90.05,-35.44 100.95,-37.03"/>
<polygon fill="#63b8ff" stroke="#63b8ff" points="100.35,-40.48 110.75,-38.46 101.36,-33.55 100.35,-40.48"/>
</g>
<!-- Node3 -->
<g id="node3" class="node">
<title>Node3</title>
<g id="a_node3"><a xlink:href="dlg__index_8c.html#a6566b9f6bf6671102a3330bee435ed8b" target="_top" xlink:title="Select a colour for a message.">
<polygon fill="#fff0f0" stroke="red" points="229,-19 105,-19 105,0 229,0 229,-19"/>
<text text-anchor="middle" x="167" y="-7" font-family="Helvetica,sans-Serif" font-size="10.00">mutt_set_header_color</text>
</a>
</g>
</g>
<!-- Node1&#45;&gt;Node3 -->
<g id="edge2" class="edge">
<title>Node1&#45;&gt;Node3</title>
<path fill="none" stroke="#63b8ff" d="M69.45,-22.82C76.87,-21.79 85,-20.67 93.3,-19.53"/>
<polygon fill="#63b8ff" stroke="#63b8ff" points="93.74,-23 103.16,-18.17 92.78,-16.07 93.74,-23"/>
</g>
</g>
</svg>
