<?xml version="1.0" encoding="UTF-8" standalone="no"?>
<!DOCTYPE svg PUBLIC "-//W3C//DTD SVG 1.1//EN"
 "http://www.w3.org/Graphics/SVG/1.1/DTD/svg11.dtd">
<!-- Generated by graphviz version 7.1.0 (0)
 -->
<!-- Title: dlg_query Pages: 1 -->
<svg width="390pt" height="512pt"
 viewBox="0.00 0.00 390.00 512.00" xmlns="http://www.w3.org/2000/svg" xmlns:xlink="http://www.w3.org/1999/xlink">
<g id="graph0" class="graph" transform="scale(1 1) rotate(0) translate(4 508)">
<title>dlg_query</title>
<!-- Node1 -->
<g id="node1" class="node">
<title>Node1</title>
<g id="a_node1"><a xlink:title="Get the user to enter an Address Query &#45;.">
<polygon fill="#999999" stroke="#666666" points="63,-261 0,-261 0,-242 63,-242 63,-261"/>
<text text-anchor="middle" x="31.5" y="-249" font-family="Helvetica,sans-Serif" font-size="10.00">dlg_query</text>
</a>
</g>
</g>
<!-- Node2 -->
<g id="node2" class="node">
<title>Node2</title>
<g id="a_node2"><a xlink:href="alias_2sort_8c.html#a8bc2a37fada3aaa7c58cad015f43af16" target="_top" xlink:title="Sort and reindex an AliasViewArray.">
<polygon fill="#fff0f0" stroke="red" points="213,-504 125,-504 125,-485 213,-485 213,-504"/>
<text text-anchor="middle" x="169" y="-492" font-family="Helvetica,sans-Serif" font-size="10.00">alias_array_sort</text>
</a>
</g>
</g>
<!-- Node1&#45;&gt;Node2 -->
<g id="edge1" class="edge">
<title>Node1&#45;&gt;Node2</title>
<path fill="none" stroke="#63b8ff" d="M32.24,-261.29C31.87,-296.1 35.5,-415.01 99,-476.5 103.39,-480.75 108.66,-484.03 114.29,-486.56"/>
<polygon fill="#63b8ff" stroke="#63b8ff" points="112.72,-489.71 123.31,-489.83 115.1,-483.13 112.72,-489.71"/>
</g>
<!-- Node32 -->
<g id="node3" class="node">
<title>Node32</title>
<g id="a_node3"><a xlink:href="group__dispatcher__api.html#gad138c2f941a76a2f204c554d16c6b865" target="_top" xlink:title="Perform a Alias function &#45; Implements function_dispatcher_t &#45;.">
<polygon fill="#fff0f0" stroke="red" points="235,-393 103,-393 103,-374 235,-374 235,-393"/>
<text text-anchor="middle" x="169" y="-381" font-family="Helvetica,sans-Serif" font-size="10.00">alias_function_dispatcher</text>
</a>
</g>
</g>
<!-- Node1&#45;&gt;Node32 -->
<g id="edge2" class="edge">
<title>Node1&#45;&gt;Node32</title>
<path fill="none" stroke="#63b8ff" d="M35.96,-261.41C43.82,-282.52 65.01,-332.19 99,-359.5 103.7,-363.27 109.03,-366.47 114.59,-369.18"/>
<polygon fill="#63b8ff" stroke="#63b8ff" points="112.82,-372.23 123.39,-372.95 115.57,-365.79 112.82,-372.23"/>
</g>
<!-- Node36 -->
<g id="node4" class="node">
<title>Node36</title>
<g id="a_node4"><a xlink:href="opcodes_8c.html#ae0f924b381cbef15a0aa71993b74215d" target="_top" xlink:title="Get the name of an opcode.">
<polygon fill="white" stroke="#666666" points="382,-411 275,-411 275,-392 382,-392 382,-411"/>
<text text-anchor="middle" x="328.5" y="-399" font-family="Helvetica,sans-Serif" font-size="10.00">opcodes_get_name</text>
</a>
</g>
</g>
<!-- Node1&#45;&gt;Node36 -->
<g id="edge14" class="edge">
<title>Node1&#45;&gt;Node36</title>
<path fill="none" stroke="#63b8ff" d="M38.54,-261.41C48.88,-277.53 71.55,-309.35 99,-326.5 153.78,-360.73 177.87,-344.63 239,-365.5 257.8,-371.92 278.38,-380.21 294.96,-387.22"/>
<polygon fill="#63b8ff" stroke="#63b8ff" points="293.25,-390.3 303.83,-391.01 296.01,-383.86 293.25,-390.3"/>
</g>
<!-- Node8 -->
<g id="node5" class="node">
<title>Node8</title>
<g id="a_node5"><a xlink:href="buffer_8h.html#a728ebc5a947b77c8d56db44ce553a7ab" target="_top" xlink:title="Convert a buffer to a const char * &quot;string&quot;.">
<polygon fill="white" stroke="#666666" points="360.5,-261 296.5,-261 296.5,-242 360.5,-242 360.5,-261"/>
<text text-anchor="middle" x="328.5" y="-249" font-family="Helvetica,sans-Serif" font-size="10.00">buf_string</text>
</a>
</g>
</g>
<!-- Node1&#45;&gt;Node8 -->
<g id="edge4" class="edge">
<title>Node1&#45;&gt;Node8</title>
<path fill="none" stroke="#63b8ff" d="M63.24,-251.5C116.22,-251.5 224.86,-251.5 285.03,-251.5"/>
<polygon fill="#63b8ff" stroke="#63b8ff" points="284.88,-255 294.88,-251.5 284.88,-248 284.88,-255"/>
</g>
<!-- Node37 -->
<g id="node6" class="node">
<title>Node37</title>
<g id="a_node6"><a xlink:href="group__dispatcher__api.html#gaabbb7ead0c80b7977bed2006dcac355f" target="_top" xlink:title="Perform a Global function &#45; Implements function_dispatcher_t &#45;.">
<polygon fill="#fff0f0" stroke="red" points="239,-467 99,-467 99,-448 239,-448 239,-467"/>
<text text-anchor="middle" x="169" y="-455" font-family="Helvetica,sans-Serif" font-size="10.00">global_function_dispatcher</text>
</a>
</g>
</g>
<!-- Node1&#45;&gt;Node37 -->
<g id="edge5" class="edge">
<title>Node1&#45;&gt;Node37</title>
<path fill="none" stroke="#63b8ff" d="M32.9,-261.41C34.72,-292.59 44.69,-389.61 99,-439.5 99.78,-440.21 100.58,-440.9 101.41,-441.56"/>
<polygon fill="#63b8ff" stroke="#63b8ff" points="99.39,-444.43 109.7,-446.85 103.15,-438.53 99.39,-444.43"/>
</g>
<!-- Node38 -->
<g id="node7" class="node">
<title>Node38</title>
<g id="a_node7"><a xlink:href="get_8c.html#a41a7f3342ccbe6b726fecc8adf041d4e" target="_top" xlink:title="Determine what a keypress should do.">
<polygon fill="#fff0f0" stroke="red" points="200.5,-317 137.5,-317 137.5,-298 200.5,-298 200.5,-317"/>
<text text-anchor="middle" x="169" y="-305" font-family="Helvetica,sans-Serif" font-size="10.00">km_dokey</text>
</a>
</g>
</g>
<!-- Node1&#45;&gt;Node38 -->
<g id="edge7" class="edge">
<title>Node1&#45;&gt;Node38</title>
<path fill="none" stroke="#63b8ff" d="M47.24,-261.44C60.35,-269.9 80.28,-281.87 99,-289.5 107.64,-293.02 117.17,-296.03 126.32,-298.52"/>
<polygon fill="#63b8ff" stroke="#63b8ff" points="125.19,-301.85 135.74,-300.93 126.92,-295.06 125.19,-301.85"/>
</g>
<!-- Node156 -->
<g id="node8" class="node">
<title>Node156</title>
<g id="a_node8"><a xlink:href="get_8c.html#aeefc0780aa0cc9f81c8a257cab4f0979" target="_top" xlink:title="Handle an unbound key sequence.">
<polygon fill="#fff0f0" stroke="red" points="209,-280 129,-280 129,-261 209,-261 209,-280"/>
<text text-anchor="middle" x="169" y="-268" font-family="Helvetica,sans-Serif" font-size="10.00">km_error_key</text>
</a>
</g>
</g>
<!-- Node1&#45;&gt;Node156 -->
<g id="edge8" class="edge">
<title>Node1&#45;&gt;Node156</title>
<path fill="none" stroke="#63b8ff" d="M63.25,-255.81C79.21,-258.05 99.12,-260.84 117.29,-263.39"/>
<polygon fill="#63b8ff" stroke="#63b8ff" points="116.73,-266.84 127.12,-264.77 117.7,-259.91 116.73,-266.84"/>
</g>
<!-- Node161 -->
<g id="node9" class="node">
<title>Node161</title>
<g id="a_node9"><a xlink:href="group__dispatcher__api.html#gac00aa5fb65018e7719a6567aac6f41a6" target="_top" xlink:title="Perform a Menu function &#45; Implements function_dispatcher_t &#45;.">
<polygon fill="#fff0f0" stroke="red" points="239,-430 99,-430 99,-411 239,-411 239,-430"/>
<text text-anchor="middle" x="169" y="-418" font-family="Helvetica,sans-Serif" font-size="10.00">menu_function_dispatcher</text>
</a>
</g>
</g>
<!-- Node1&#45;&gt;Node161 -->
<g id="edge10" class="edge">
<title>Node1&#45;&gt;Node161</title>
<path fill="none" stroke="#63b8ff" d="M33.85,-261.36C38.09,-288.33 53.64,-363.86 99,-402.5 99.94,-403.3 100.92,-404.07 101.92,-404.8"/>
<polygon fill="#63b8ff" stroke="#63b8ff" points="99.89,-407.67 110.28,-409.77 103.46,-401.65 99.89,-407.67"/>
</g>
<!-- Node162 -->
<g id="node10" class="node">
<title>Node162</title>
<g id="a_node10"><a xlink:href="group__dispatcher__api.html#ga5e8255587939773540dbea386c99e08d" target="_top" xlink:title="Perform tagging operations on the Menu &#45; Implements function_dispatcher_t &#45;.">
<polygon fill="#fff0f0" stroke="red" points="237.5,-204 100.5,-204 100.5,-185 237.5,-185 237.5,-204"/>
<text text-anchor="middle" x="169" y="-192" font-family="Helvetica,sans-Serif" font-size="10.00">menu_tagging_dispatcher</text>
</a>
</g>
</g>
<!-- Node1&#45;&gt;Node162 -->
<g id="edge12" class="edge">
<title>Node1&#45;&gt;Node162</title>
<path fill="none" stroke="#63b8ff" d="M50.84,-241.62C64.04,-234.7 82.36,-225.49 99,-218.5 107.65,-214.87 117.05,-211.33 126.06,-208.14"/>
<polygon fill="#63b8ff" stroke="#63b8ff" points="127.04,-211.51 135.34,-204.93 124.75,-204.89 127.04,-211.51"/>
</g>
<!-- Node62 -->
<g id="node11" class="node">
<title>Node62</title>
<g id="a_node11"><a xlink:href="mutt__logging_8c.html#af068b3f524a31fad293b2fb61dfc4534" target="_top" xlink:title="Clear the message line (bottom line of screen)">
<polygon fill="#fff0f0" stroke="red" points="216.5,-167 121.5,-167 121.5,-148 216.5,-148 216.5,-167"/>
<text text-anchor="middle" x="169" y="-155" font-family="Helvetica,sans-Serif" font-size="10.00">mutt_clear_error</text>
</a>
</g>
</g>
<!-- Node1&#45;&gt;Node62 -->
<g id="edge13" class="edge">
<title>Node1&#45;&gt;Node62</title>
<path fill="none" stroke="#63b8ff" d="M38.31,-241.67C48.48,-225.34 71.11,-192.74 99,-175.5 102.58,-173.29 106.43,-171.34 110.41,-169.64"/>
<polygon fill="#63b8ff" stroke="#63b8ff" points="111.57,-172.94 119.74,-166.18 109.14,-166.38 111.57,-172.94"/>
</g>
<!-- Node178 -->
<g id="node12" class="node">
<title>Node178</title>
<g id="a_node12"><a xlink:href="dlg__query_8c.html#a7a64cb185c2523d0214f2960d9a970fc" target="_top" xlink:title="Create an Query Selection Dialog.">
<polygon fill="#fff0f0" stroke="red" points="219,-130 119,-130 119,-111 219,-111 219,-130"/>
<text text-anchor="middle" x="169" y="-118" font-family="Helvetica,sans-Serif" font-size="10.00">query_dialog_new</text>
</a>
</g>
</g>
<!-- Node1&#45;&gt;Node178 -->
<g id="edge15" class="edge">
<title>Node1&#45;&gt;Node178</title>
<path fill="none" stroke="#63b8ff" d="M35.44,-241.58C42.52,-219.48 62.68,-165.94 99,-138.5 101.91,-136.3 105.07,-134.37 108.38,-132.67"/>
<polygon fill="#63b8ff" stroke="#63b8ff" points="109.46,-136.01 117.27,-128.85 106.7,-129.58 109.46,-136.01"/>
</g>
<!-- Node253 -->
<g id="node13" class="node">
<title>Node253</title>
<g id="a_node13"><a xlink:href="gui_2simple_8c.html#a4b8e413b9970200cd75543dd09d38622" target="_top" xlink:title="Destroy a simple index Dialog.">
<polygon fill="#fff0f0" stroke="red" points="220.5,-93 117.5,-93 117.5,-74 220.5,-74 220.5,-93"/>
<text text-anchor="middle" x="169" y="-81" font-family="Helvetica,sans-Serif" font-size="10.00">simple_dialog_free</text>
</a>
</g>
</g>
<!-- Node1&#45;&gt;Node253 -->
<g id="edge16" class="edge">
<title>Node1&#45;&gt;Node253</title>
<path fill="none" stroke="#63b8ff" d="M33.87,-241.7C38.17,-214.91 53.85,-139.87 99,-101.5 101.48,-99.4 104.17,-97.53 107.01,-95.89"/>
<polygon fill="#63b8ff" stroke="#63b8ff" points="108.24,-99.18 115.77,-91.72 105.23,-92.86 108.24,-99.18"/>
</g>
<!-- Node117 -->
<g id="node14" class="node">
<title>Node117</title>
<g id="a_node14"><a xlink:href="mutt__window_8c.html#a0af7bfe97dbb8f95d03851ec3fe62553" target="_top" xlink:title="Reflow, recalc and repaint a tree of Windows.">
<polygon fill="#fff0f0" stroke="red" points="213.5,-56 124.5,-56 124.5,-37 213.5,-37 213.5,-56"/>
<text text-anchor="middle" x="169" y="-44" font-family="Helvetica,sans-Serif" font-size="10.00">window_redraw</text>
</a>
</g>
</g>
<!-- Node1&#45;&gt;Node117 -->
<g id="edge17" class="edge">
<title>Node1&#45;&gt;Node117</title>
<path fill="none" stroke="#63b8ff" d="M32.92,-241.64C34.79,-210.62 44.91,-114.1 99,-64.5 103.28,-60.57 108.31,-57.48 113.67,-55.05"/>
<polygon fill="#63b8ff" stroke="#63b8ff" points="114.68,-58.41 122.86,-51.67 112.26,-51.84 114.68,-58.41"/>
</g>
<!-- Node151 -->
<g id="node15" class="node">
<title>Node151</title>
<g id="a_node15"><a xlink:href="mutt__window_8c.html#a9b0eb963bae817aae94c7f3427b99f7d" target="_top" xlink:title="Set the Window focus.">
<polygon fill="#fff0f0" stroke="red" points="219,-19 119,-19 119,0 219,0 219,-19"/>
<text text-anchor="middle" x="169" y="-7" font-family="Helvetica,sans-Serif" font-size="10.00">window_set_focus</text>
</a>
</g>
</g>
<!-- Node1&#45;&gt;Node151 -->
<g id="edge18" class="edge">
<title>Node1&#45;&gt;Node151</title>
<path fill="none" stroke="#63b8ff" d="M32.25,-241.75C31.94,-207.09 35.72,-88.7 99,-27.5 101.84,-24.75 105.06,-22.4 108.5,-20.41"/>
<polygon fill="#63b8ff" stroke="#63b8ff" points="109.73,-23.69 117.32,-16.29 106.77,-17.35 109.73,-23.69"/>
</g>
<!-- Node32&#45;&gt;Node36 -->
<g id="edge3" class="edge">
<title>Node32&#45;&gt;Node36</title>
<path fill="none" stroke="#63b8ff" d="M235.43,-390.98C244.8,-392.05 254.43,-393.15 263.77,-394.22"/>
<polygon fill="#63b8ff" stroke="#63b8ff" points="263.15,-397.67 273.48,-395.33 263.94,-390.71 263.15,-397.67"/>
</g>
<!-- Node37&#45;&gt;Node36 -->
<g id="edge6" class="edge">
<title>Node37&#45;&gt;Node36</title>
<path fill="none" stroke="#63b8ff" d="M212.26,-447.55C221.17,-445.16 230.45,-442.43 239,-439.5 258.46,-432.83 279.66,-423.79 296.43,-416.2"/>
<polygon fill="#63b8ff" stroke="#63b8ff" points="297.75,-419.45 305.37,-412.1 294.82,-413.09 297.75,-419.45"/>
</g>
<!-- Node156&#45;&gt;Node8 -->
<g id="edge9" class="edge">
<title>Node156&#45;&gt;Node8</title>
<path fill="none" stroke="#63b8ff" d="M209.34,-265.75C232.25,-262.99 261.17,-259.5 284.66,-256.67"/>
<polygon fill="#63b8ff" stroke="#63b8ff" points="285.03,-260.15 294.54,-255.48 284.2,-253.2 285.03,-260.15"/>
</g>
<!-- Node161&#45;&gt;Node36 -->
<g id="edge11" class="edge">
<title>Node161&#45;&gt;Node36</title>
<path fill="none" stroke="#63b8ff" d="M239.08,-412.17C247.17,-411.19 255.4,-410.2 263.42,-409.23"/>
<polygon fill="#63b8ff" stroke="#63b8ff" points="263.56,-412.74 273.07,-408.07 262.73,-405.79 263.56,-412.74"/>
</g>
</g>
</svg>
