<?xml version="1.0" encoding="UTF-8" standalone="no"?>
<!DOCTYPE svg PUBLIC "-//W3C//DTD SVG 1.1//EN"
 "http://www.w3.org/Graphics/SVG/1.1/DTD/svg11.dtd">
<!-- Generated by graphviz version 7.1.0 (0)
 -->
<!-- Title: mutt_lua_parse Pages: 1 -->
<svg width="292pt" height="103pt"
 viewBox="0.00 0.00 292.00 103.00" xmlns="http://www.w3.org/2000/svg" xmlns:xlink="http://www.w3.org/1999/xlink">
<g id="graph0" class="graph" transform="scale(1 1) rotate(0) translate(4 99)">
<title>mutt_lua_parse</title>
<!-- Node1 -->
<g id="node1" class="node">
<title>Node1</title>
<g id="a_node1"><a xlink:title="Parse the &#39;lua&#39; command &#45; Implements Command::parse() &#45;.">
<polygon fill="#999999" stroke="#666666" points="88,-57 0,-57 0,-38 88,-38 88,-57"/>
<text text-anchor="middle" x="44" y="-45" font-family="Helvetica,sans-Serif" font-size="10.00">mutt_lua_parse</text>
</a>
</g>
</g>
<!-- Node2 -->
<g id="node2" class="node">
<title>Node2</title>
<g id="a_node2"><a xlink:href="buffer_8c.html#a02123807d31181ac701b566226e93b33" target="_top" xlink:title="Format a string overwriting a Buffer.">
<polygon fill="#fff0f0" stroke="red" points="187,-95 124,-95 124,-76 187,-76 187,-95"/>
<text text-anchor="middle" x="155.5" y="-83" font-family="Helvetica,sans-Serif" font-size="10.00">buf_printf</text>
</a>
</g>
</g>
<!-- Node1&#45;&gt;Node2 -->
<g id="edge1" class="edge">
<title>Node1&#45;&gt;Node2</title>
<path fill="none" stroke="#63b8ff" d="M73.77,-57.48C86.47,-61.89 101.6,-67.14 115.31,-71.9"/>
<polygon fill="#63b8ff" stroke="#63b8ff" points="113.9,-75.11 124.49,-75.09 116.19,-68.5 113.9,-75.11"/>
</g>
<!-- Node3 -->
<g id="node3" class="node">
<title>Node3</title>
<g id="a_node3"><a xlink:href="buffer_8c.html#a3b1f80652b37dc26046f9acdd85a0b05" target="_top" xlink:title="Reset an existing Buffer.">
<polygon fill="#fff0f0" stroke="red" points="284,-76 223,-76 223,-57 284,-57 284,-76"/>
<text text-anchor="middle" x="253.5" y="-64" font-family="Helvetica,sans-Serif" font-size="10.00">buf_reset</text>
</a>
</g>
</g>
<!-- Node1&#45;&gt;Node3 -->
<g id="edge3" class="edge">
<title>Node1&#45;&gt;Node3</title>
<path fill="none" stroke="#63b8ff" d="M88.5,-51.48C124.69,-54.8 175.86,-59.48 211.38,-62.73"/>
<polygon fill="#63b8ff" stroke="#63b8ff" points="211,-66.21 221.27,-63.64 211.63,-59.24 211,-66.21"/>
</g>
<!-- Node8 -->
<g id="node4" class="node">
<title>Node8</title>
<g id="a_node4"><a xlink:href="mutt__lua_8c.html#a5383cb18959ca91373948507ba24e7f4" target="_top" xlink:title="Initialise a Lua State.">
<polygon fill="#fff0f0" stroke="red" points="180,-19 131,-19 131,0 180,0 180,-19"/>
<text text-anchor="middle" x="155.5" y="-7" font-family="Helvetica,sans-Serif" font-size="10.00">lua_init</text>
</a>
</g>
</g>
<!-- Node1&#45;&gt;Node8 -->
<g id="edge4" class="edge">
<title>Node1&#45;&gt;Node8</title>
<path fill="none" stroke="#63b8ff" d="M73.77,-37.52C87.91,-32.61 105.06,-26.66 119.9,-21.51"/>
<polygon fill="#63b8ff" stroke="#63b8ff" points="120.99,-24.83 129.29,-18.25 118.7,-18.22 120.99,-24.83"/>
</g>
<!-- Node2&#45;&gt;Node3 -->
<g id="edge2" class="edge">
<title>Node2&#45;&gt;Node3</title>
<path fill="none" stroke="#63b8ff" d="M187.4,-79.38C195.08,-77.86 203.42,-76.21 211.5,-74.61"/>
<polygon fill="#63b8ff" stroke="#63b8ff" points="212.02,-78.08 221.15,-72.7 210.66,-71.21 212.02,-78.08"/>
</g>
</g>
</svg>
