<?xml version="1.0" encoding="UTF-8" standalone="no"?>
<!DOCTYPE svg PUBLIC "-//W3C//DTD SVG 1.1//EN"
 "http://www.w3.org/Graphics/SVG/1.1/DTD/svg11.dtd">
<!-- Generated by graphviz version 7.1.0 (0)
 -->
<!-- Title: gpgme_key_id Pages: 1 -->
<svg width="196pt" height="64pt"
 viewBox="0.00 0.00 196.00 64.00" xmlns="http://www.w3.org/2000/svg" xmlns:xlink="http://www.w3.org/1999/xlink">
<g id="graph0" class="graph" transform="scale(1 1) rotate(0) translate(4 60)">
<title>gpgme_key_id</title>
<!-- Node1 -->
<g id="node1" class="node">
<title>Node1</title>
<g id="a_node1"><a xlink:title="GPGME: Key id &#45; Implements get_string_t &#45;.">
<polygon fill="#999999" stroke="#666666" points="83,-37 0,-37 0,-18 83,-18 83,-37"/>
<text text-anchor="middle" x="41.5" y="-25" font-family="Helvetica,sans-Serif" font-size="10.00">gpgme_key_id</text>
</a>
</g>
</g>
<!-- Node2 -->
<g id="node2" class="node">
<title>Node2</title>
<g id="a_node2"><a xlink:href="buffer_8c.html#ac958acbd189e463a2c3bbc2f23aaeb1e" target="_top" xlink:title="Copy a string into a Buffer.">
<polygon fill="#fff0f0" stroke="red" points="186,-56 121,-56 121,-37 186,-37 186,-56"/>
<text text-anchor="middle" x="153.5" y="-44" font-family="Helvetica,sans-Serif" font-size="10.00">buf_strcpy</text>
</a>
</g>
</g>
<!-- Node1&#45;&gt;Node2 -->
<g id="edge1" class="edge">
<title>Node1&#45;&gt;Node2</title>
<path fill="none" stroke="#63b8ff" d="M83.46,-34.57C91.94,-36.04 100.9,-37.59 109.46,-39.07"/>
<polygon fill="#63b8ff" stroke="#63b8ff" points="108.85,-42.51 119.3,-40.77 110.04,-35.61 108.85,-42.51"/>
</g>
<!-- Node10 -->
<g id="node3" class="node">
<title>Node10</title>
<g id="a_node3"><a xlink:href="crypt__gpgme_8c.html#abc67bef5541f788bbc5f87f502514eed" target="_top" xlink:title="Find the ID for the key.">
<polygon fill="#fff0f0" stroke="red" points="188,-19 119,-19 119,0 188,0 188,-19"/>
<text text-anchor="middle" x="153.5" y="-7" font-family="Helvetica,sans-Serif" font-size="10.00">crypt_keyid</text>
</a>
</g>
</g>
<!-- Node1&#45;&gt;Node10 -->
<g id="edge2" class="edge">
<title>Node1&#45;&gt;Node10</title>
<path fill="none" stroke="#63b8ff" d="M83.46,-20.8C91.26,-19.52 99.46,-18.18 107.38,-16.88"/>
<polygon fill="#63b8ff" stroke="#63b8ff" points="107.9,-20.34 117.2,-15.28 106.77,-13.44 107.9,-20.34"/>
</g>
</g>
</svg>
