<?xml version="1.0" encoding="UTF-8" standalone="no"?>
<!DOCTYPE svg PUBLIC "-//W3C//DTD SVG 1.1//EN"
 "http://www.w3.org/Graphics/SVG/1.1/DTD/svg11.dtd">
<!-- Generated by graphviz version 12.2.1 (20241206.2353)
 -->
<!-- Title: op_attachment_toggle_disposition Pages: 1 -->
<svg width="279pt" height="110pt"
 viewBox="0.00 0.00 278.50 110.25" xmlns="http://www.w3.org/2000/svg" xmlns:xlink="http://www.w3.org/1999/xlink">
<g id="graph0" class="graph" transform="scale(1 1) rotate(0) translate(4 106.25)">
<title>op_attachment_toggle_disposition</title>
<!-- Node1 -->
<g id="Node000001" class="node">
<title>Node1</title>
<g id="a_Node000001"><a xlink:title="Toggle disposition between inline/attachment &#45; Implements compose_function_t &#45;.">
<polygon fill="#999999" stroke="#666666" points="120.25,-69.38 0,-69.38 0,-32.88 120.25,-32.88 120.25,-69.38"/>
<text text-anchor="start" x="8" y="-55.88" font-family="Helvetica,sans-Serif" font-size="10.00">op_attachment_toggle</text>
<text text-anchor="middle" x="60.12" y="-41.62" font-family="Helvetica,sans-Serif" font-size="10.00">_disposition</text>
</a>
</g>
</g>
<!-- Node2 -->
<g id="Node000002" class="node">
<title>Node2</title>
<g id="a_Node000002"><a xlink:href="recvattach_8c.html#a718168300f4a21fa0c1a28321aeaa6ee" target="_top" xlink:title="Get the current attachment.">
<polygon fill="#fff0f0" stroke="red" points="267.5,-102.25 159.25,-102.25 159.25,-80 267.5,-80 267.5,-102.25"/>
<text text-anchor="middle" x="213.38" y="-88.75" font-family="Helvetica,sans-Serif" font-size="10.00">current_attachment</text>
</a>
</g>
</g>
<!-- Node1&#45;&gt;Node2 -->
<g id="edge1_Node000001_Node000002" class="edge">
<title>Node1&#45;&gt;Node2</title>
<g id="a_edge1_Node000001_Node000002"><a xlink:title=" ">
<path fill="none" stroke="#63b8ff" d="M120.47,-66.82C132.76,-70.07 145.66,-73.48 157.77,-76.68"/>
<polygon fill="#63b8ff" stroke="#63b8ff" points="156.61,-80 167.17,-79.17 158.4,-73.23 156.61,-80"/>
</a>
</g>
</g>
<!-- Node4 -->
<g id="Node000004" class="node">
<title>Node4</title>
<g id="a_Node000004"><a xlink:href="menu_8c.html#a5a9733924cc01176ee916515a3683268" target="_top" xlink:title="Queue a request for a redraw.">
<polygon fill="white" stroke="#666666" points="270.5,-62.25 156.25,-62.25 156.25,-40 270.5,-40 270.5,-62.25"/>
<text text-anchor="middle" x="213.38" y="-48.75" font-family="Helvetica,sans-Serif" font-size="10.00">menu_queue_redraw</text>
</a>
</g>
</g>
<!-- Node1&#45;&gt;Node4 -->
<g id="edge2_Node000001_Node000004" class="edge">
<title>Node1&#45;&gt;Node4</title>
<g id="a_edge2_Node000001_Node000004"><a xlink:title=" ">
<path fill="none" stroke="#63b8ff" d="M120.47,-51.12C128.46,-51.12 136.7,-51.12 144.82,-51.12"/>
<polygon fill="#63b8ff" stroke="#63b8ff" points="144.65,-54.63 154.65,-51.13 144.65,-47.63 144.65,-54.63"/>
</a>
</g>
</g>
<!-- Node5 -->
<g id="Node000005" class="node">
<title>Node5</title>
<g id="a_Node000005"><a xlink:href="mutt_2notify_8c.html#ade2f42f8e0d8a843e87816300799a8e1" target="_top" xlink:title="Send out a notification message.">
<polygon fill="#fff0f0" stroke="red" points="248.38,-22.25 178.38,-22.25 178.38,0 248.38,0 248.38,-22.25"/>
<text text-anchor="middle" x="213.38" y="-8.75" font-family="Helvetica,sans-Serif" font-size="10.00">notify_send</text>
</a>
</g>
</g>
<!-- Node1&#45;&gt;Node5 -->
<g id="edge3_Node000001_Node000005" class="edge">
<title>Node1&#45;&gt;Node5</title>
<g id="a_edge3_Node000001_Node000005"><a xlink:title=" ">
<path fill="none" stroke="#63b8ff" d="M120.47,-35.43C136.03,-31.31 152.56,-26.94 167.25,-23.06"/>
<polygon fill="#63b8ff" stroke="#63b8ff" points="167.84,-26.52 176.61,-20.58 166.05,-19.76 167.84,-26.52"/>
</a>
</g>
</g>
</g>
</svg>
