<?xml version="1.0" encoding="UTF-8" standalone="no"?>
<!DOCTYPE svg PUBLIC "-//W3C//DTD SVG 1.1//EN"
 "http://www.w3.org/Graphics/SVG/1.1/DTD/svg11.dtd">
<!-- Generated by graphviz version 7.1.0 (0)
 -->
<!-- Title: pgp_class_encrypted_handler Pages: 1 -->
<svg width="466pt" height="385pt"
 viewBox="0.00 0.00 466.00 385.13" xmlns="http://www.w3.org/2000/svg" xmlns:xlink="http://www.w3.org/1999/xlink">
<g id="graph0" class="graph" transform="scale(1 1) rotate(0) translate(4 381.13)">
<title>pgp_class_encrypted_handler</title>
<!-- Node1 -->
<g id="node1" class="node">
<title>Node1</title>
<g id="a_node1"><a xlink:title="Manage a PGP or S/MIME encrypted MIME part &#45; Implements CryptModuleSpecs::encrypted_handler() &#45;.">
<polygon fill="#999999" stroke="#666666" points="113,-222 0,-222 0,-192 113,-192 113,-222"/>
<text text-anchor="start" x="8" y="-210" font-family="Helvetica,sans-Serif" font-size="10.00">pgp_class_encrypted</text>
<text text-anchor="middle" x="56.5" y="-199" font-family="Helvetica,sans-Serif" font-size="10.00">_handler</text>
</a>
</g>
</g>
<!-- Node2 -->
<g id="node2" class="node">
<title>Node2</title>
<g id="a_node2"><a xlink:href="crypt_8c.html#ac85f3f9345f53423bce29d478a6d7aaa" target="_top" xlink:title="Print the current time.">
<polygon fill="#fff0f0" stroke="red" points="268,-348.5 163,-348.5 163,-329.5 268,-329.5 268,-348.5"/>
<text text-anchor="middle" x="215.5" y="-336.5" font-family="Helvetica,sans-Serif" font-size="10.00">crypt_current_time</text>
</a>
</g>
</g>
<!-- Node1&#45;&gt;Node2 -->
<g id="edge1" class="edge">
<title>Node1&#45;&gt;Node2</title>
<path fill="none" stroke="#63b8ff" d="M65.66,-222.49C79.45,-247.16 109.76,-295.22 149,-321 150.85,-322.21 152.78,-323.35 154.76,-324.4"/>
<polygon fill="#63b8ff" stroke="#63b8ff" points="153.16,-327.52 163.71,-328.46 156.05,-321.14 153.16,-327.52"/>
</g>
<!-- Node35 -->
<g id="node3" class="node">
<title>Node35</title>
<g id="a_node3"><a xlink:href="mutt_2state_8c.html#a0d52430e63f8cffdd0e6a78182ad4385" target="_top" xlink:title="Write a string to the state.">
<polygon fill="#fff0f0" stroke="red" points="437,-348.5 339,-348.5 339,-329.5 437,-329.5 437,-348.5"/>
<text text-anchor="middle" x="388" y="-336.5" font-family="Helvetica,sans-Serif" font-size="10.00">state_attach_puts</text>
</a>
</g>
</g>
<!-- Node1&#45;&gt;Node35 -->
<g id="edge16" class="edge">
<title>Node1&#45;&gt;Node35</title>
<path fill="none" stroke="#63b8ff" d="M61.32,-222.15C70.3,-254.17 96.12,-328.21 149,-358 213.83,-394.52 304.77,-370.48 353.32,-352.85"/>
<polygon fill="#63b8ff" stroke="#63b8ff" points="354.32,-356.22 362.45,-349.42 351.86,-349.67 354.32,-356.22"/>
</g>
<!-- Node40 -->
<g id="node4" class="node">
<title>Node40</title>
<g id="a_node4"><a xlink:href="email_2body_8c.html#a129af1c316fcbc26b55fb48957bab2cb" target="_top" xlink:title="Free a Body.">
<polygon fill="#fff0f0" stroke="red" points="261,-141.5 170,-141.5 170,-122.5 261,-122.5 261,-141.5"/>
<text text-anchor="middle" x="215.5" y="-129.5" font-family="Helvetica,sans-Serif" font-size="10.00">mutt_body_free</text>
</a>
</g>
</g>
<!-- Node1&#45;&gt;Node40 -->
<g id="edge3" class="edge">
<title>Node1&#45;&gt;Node40</title>
<path fill="none" stroke="#63b8ff" d="M89.65,-191.64C117.21,-178.48 156.65,-159.64 183.79,-146.67"/>
<polygon fill="#63b8ff" stroke="#63b8ff" points="185.01,-149.97 192.52,-142.5 181.99,-143.65 185.01,-149.97"/>
</g>
<!-- Node43 -->
<g id="node5" class="node">
<title>Node43</title>
<g id="a_node5"><a xlink:href="envelope_8c.html#a244dacf9b1001c9ce1dbd473e001381f" target="_top" xlink:title="Free an Envelope.">
<polygon fill="#fff0f0" stroke="red" points="430.5,-169.5 345.5,-169.5 345.5,-150.5 430.5,-150.5 430.5,-169.5"/>
<text text-anchor="middle" x="388" y="-157.5" font-family="Helvetica,sans-Serif" font-size="10.00">mutt_env_free</text>
</a>
</g>
</g>
<!-- Node1&#45;&gt;Node43 -->
<g id="edge7" class="edge">
<title>Node1&#45;&gt;Node43</title>
<path fill="none" stroke="#63b8ff" d="M113.4,-199.03C175.15,-190.22 273.83,-176.14 334.28,-167.52"/>
<polygon fill="#63b8ff" stroke="#63b8ff" points="334.57,-171.01 343.97,-166.14 333.58,-164.08 334.57,-171.01"/>
</g>
<!-- Node57 -->
<g id="node6" class="node">
<title>Node57</title>
<g id="a_node6"><a xlink:href="handler_8c.html#a3e520d3004995a6c0cf0696edfd209fb" target="_top" xlink:title="Handler for the Body of an email.">
<polygon fill="#fff0f0" stroke="red" points="269,-104.5 162,-104.5 162,-85.5 269,-85.5 269,-104.5"/>
<text text-anchor="middle" x="215.5" y="-92.5" font-family="Helvetica,sans-Serif" font-size="10.00">mutt_body_handler</text>
</a>
</g>
</g>
<!-- Node1&#45;&gt;Node57 -->
<g id="edge6" class="edge">
<title>Node1&#45;&gt;Node57</title>
<path fill="none" stroke="#63b8ff" d="M68.35,-191.53C83.84,-170.59 114.29,-133.5 149,-113 151.31,-111.63 153.73,-110.37 156.22,-109.2"/>
<polygon fill="#63b8ff" stroke="#63b8ff" points="157.43,-112.49 165.35,-105.46 154.77,-106.01 157.43,-112.49"/>
</g>
<!-- Node439 -->
<g id="node7" class="node">
<title>Node439</title>
<g id="a_node7"><a xlink:href="file_8c.html#a31f49795ff5b9558db5476e5777e63b6" target="_top" xlink:title="Close a FILE handle (and NULL the pointer)">
<polygon fill="white" stroke="#666666" points="432.5,-292.5 343.5,-292.5 343.5,-273.5 432.5,-273.5 432.5,-292.5"/>
<text text-anchor="middle" x="388" y="-280.5" font-family="Helvetica,sans-Serif" font-size="10.00">mutt_file_fclose</text>
</a>
</g>
</g>
<!-- Node1&#45;&gt;Node439 -->
<g id="edge8" class="edge">
<title>Node1&#45;&gt;Node439</title>
<path fill="none" stroke="#63b8ff" d="M113.09,-221.23C124.93,-224.19 137.37,-227.24 149,-230 211.54,-244.82 283.61,-260.7 331.91,-271.18"/>
<polygon fill="#63b8ff" stroke="#63b8ff" points="331.06,-274.57 341.57,-273.27 332.54,-267.73 331.06,-274.57"/>
</g>
<!-- Node188 -->
<g id="node8" class="node">
<title>Node188</title>
<g id="a_node8"><a xlink:href="crypt_8c.html#a345fb1ff241b3fc778632947c2b08d37" target="_top" xlink:title="Is a message signed?">
<polygon fill="#fff0f0" stroke="red" points="282,-67.5 149,-67.5 149,-48.5 282,-48.5 282,-67.5"/>
<text text-anchor="middle" x="215.5" y="-55.5" font-family="Helvetica,sans-Serif" font-size="10.00">mutt_is_multipart_signed</text>
</a>
</g>
</g>
<!-- Node1&#45;&gt;Node188 -->
<g id="edge9" class="edge">
<title>Node1&#45;&gt;Node188</title>
<path fill="none" stroke="#63b8ff" d="M63.83,-191.86C76.08,-164.44 105.71,-106.56 149,-76 150.59,-74.88 152.25,-73.83 153.96,-72.84"/>
<polygon fill="#63b8ff" stroke="#63b8ff" points="155.37,-76.04 162.84,-68.53 152.32,-69.74 155.37,-76.04"/>
</g>
<!-- Node1225 -->
<g id="node9" class="node">
<title>Node1225</title>
<g id="a_node9"><a xlink:href="group__handler__api.html#ga46d79c912a64e15060a74ba4556f05d9" target="_top" xlink:title="Handler for protected headers &#45; Implements handler_t &#45;.">
<polygon fill="#fff0f0" stroke="red" points="281.5,-30 149.5,-30 149.5,0 281.5,0 281.5,-30"/>
<text text-anchor="start" x="157.5" y="-18" font-family="Helvetica,sans-Serif" font-size="10.00">mutt_protected_headers</text>
<text text-anchor="middle" x="215.5" y="-7" font-family="Helvetica,sans-Serif" font-size="10.00">_handler</text>
</a>
</g>
</g>
<!-- Node1&#45;&gt;Node1225 -->
<g id="edge10" class="edge">
<title>Node1&#45;&gt;Node1225</title>
<path fill="none" stroke="#63b8ff" d="M61.79,-191.65C71.7,-158.96 99.2,-81.95 149,-39 149.94,-38.19 150.91,-37.41 151.91,-36.65"/>
<polygon fill="#63b8ff" stroke="#63b8ff" points="153.68,-39.67 160.19,-31.31 149.89,-33.78 153.68,-39.67"/>
</g>
<!-- Node1262 -->
<g id="node10" class="node">
<title>Node1262</title>
<g id="a_node10"><a xlink:href="group__crypto__void__passphrase.html#ga5f22ad399cd8c0e467f61969e762aba0" target="_top" xlink:title="Forget the cached passphrase &#45; Implements CryptModuleSpecs::void_passphrase() &#45;.">
<polygon fill="white" stroke="#666666" points="458,-235.5 318,-235.5 318,-216.5 458,-216.5 458,-235.5"/>
<text text-anchor="middle" x="388" y="-223.5" font-family="Helvetica,sans-Serif" font-size="10.00">pgp_class_void_passphrase</text>
</a>
</g>
</g>
<!-- Node1&#45;&gt;Node1262 -->
<g id="edge11" class="edge">
<title>Node1&#45;&gt;Node1262</title>
<path fill="none" stroke="#63b8ff" d="M113.4,-210.22C166.35,-213.28 246.46,-217.9 306.34,-221.35"/>
<polygon fill="#63b8ff" stroke="#63b8ff" points="305.95,-224.83 316.14,-221.91 306.35,-217.84 305.95,-224.83"/>
</g>
<!-- Node1263 -->
<g id="node11" class="node">
<title>Node1263</title>
<g id="a_node11"><a xlink:href="pgp_8c.html#a2710f9de758f312094ad0e30e69a40da" target="_top" xlink:title="Decrypt part of a PGP message.">
<polygon fill="#fff0f0" stroke="red" points="265,-311.5 166,-311.5 166,-292.5 265,-292.5 265,-311.5"/>
<text text-anchor="middle" x="215.5" y="-299.5" font-family="Helvetica,sans-Serif" font-size="10.00">pgp_decrypt_part</text>
</a>
</g>
</g>
<!-- Node1&#45;&gt;Node1263 -->
<g id="edge12" class="edge">
<title>Node1&#45;&gt;Node1263</title>
<path fill="none" stroke="#63b8ff" d="M73.92,-222.31C91.43,-237.98 120.5,-262.22 149,-278 155.76,-281.74 163.23,-285.11 170.62,-288.06"/>
<polygon fill="#63b8ff" stroke="#63b8ff" points="169.3,-291.3 179.89,-291.54 171.76,-284.75 169.3,-291.3"/>
</g>
<!-- Node2&#45;&gt;Node35 -->
<g id="edge2" class="edge">
<title>Node2&#45;&gt;Node35</title>
<path fill="none" stroke="#63b8ff" d="M268.12,-339C286.79,-339 308.03,-339 327.34,-339"/>
<polygon fill="#63b8ff" stroke="#63b8ff" points="327.25,-342.5 337.25,-339 327.25,-335.5 327.25,-342.5"/>
</g>
<!-- Node40&#45;&gt;Node40 -->
<g id="edge4" class="edge">
<title>Node40&#45;&gt;Node40</title>
<path fill="none" stroke="#63b8ff" d="M190.61,-141.87C179.25,-150.44 187.55,-159.5 215.5,-159.5 231.22,-159.5 240.72,-156.63 244.01,-152.6"/>
<polygon fill="#63b8ff" stroke="#63b8ff" points="247.39,-151.66 240.88,-143.3 240.75,-153.9 247.39,-151.66"/>
</g>
<!-- Node40&#45;&gt;Node43 -->
<g id="edge5" class="edge">
<title>Node40&#45;&gt;Node43</title>
<path fill="none" stroke="#63b8ff" d="M261.3,-139.36C283.6,-143.02 310.7,-147.47 334.03,-151.3"/>
<polygon fill="#63b8ff" stroke="#63b8ff" points="333.21,-154.71 343.64,-152.88 334.34,-147.81 333.21,-154.71"/>
</g>
<!-- Node1263&#45;&gt;Node35 -->
<g id="edge15" class="edge">
<title>Node1263&#45;&gt;Node35</title>
<path fill="none" stroke="#63b8ff" d="M262.19,-311.92C283.02,-316.44 307.9,-321.84 329.95,-326.62"/>
<polygon fill="#63b8ff" stroke="#63b8ff" points="329.19,-330.04 339.7,-328.74 330.67,-323.2 329.19,-330.04"/>
</g>
<!-- Node1263&#45;&gt;Node439 -->
<g id="edge13" class="edge">
<title>Node1263&#45;&gt;Node439</title>
<path fill="none" stroke="#63b8ff" d="M265.36,-296.56C286.13,-294.24 310.45,-291.53 331.86,-289.15"/>
<polygon fill="#63b8ff" stroke="#63b8ff" points="332.03,-292.65 341.58,-288.06 331.25,-285.69 332.03,-292.65"/>
</g>
<!-- Node1263&#45;&gt;Node1262 -->
<g id="edge14" class="edge">
<title>Node1263&#45;&gt;Node1262</title>
<path fill="none" stroke="#63b8ff" d="M238.79,-292.06C268.28,-278.92 320.46,-255.66 354.38,-240.54"/>
<polygon fill="#63b8ff" stroke="#63b8ff" points="355.61,-243.82 363.32,-236.55 352.76,-237.43 355.61,-243.82"/>
</g>
</g>
</svg>
