<?xml version="1.0" encoding="UTF-8" standalone="no"?>
<!DOCTYPE svg PUBLIC "-//W3C//DTD SVG 1.1//EN"
 "http://www.w3.org/Graphics/SVG/1.1/DTD/svg11.dtd">
<!-- Generated by graphviz version 7.1.0 (0)
 -->
<!-- Title: dlg_gpgme Pages: 1 -->
<svg width="273pt" height="101pt"
 viewBox="0.00 0.00 273.00 101.00" xmlns="http://www.w3.org/2000/svg" xmlns:xlink="http://www.w3.org/1999/xlink">
<g id="graph0" class="graph" transform="scale(1 1) rotate(0) translate(4 97)">
<title>dlg_gpgme</title>
<!-- Node1 -->
<g id="node1" class="node">
<title>Node1</title>
<g id="a_node1"><a xlink:title="Get the user to select a key &#45;.">
<polygon fill="#999999" stroke="#666666" points="265,-56 197,-56 197,-37 265,-37 265,-56"/>
<text text-anchor="middle" x="231" y="-44" font-family="Helvetica,sans-Serif" font-size="10.00">dlg_gpgme</text>
</a>
</g>
</g>
<!-- Node2 -->
<g id="node2" class="node">
<title>Node2</title>
<g id="a_node2"><a xlink:href="crypt__gpgme_8c.html#a0a7f5288fc746b6f7f5cbb6e49ec1f47" target="_top" xlink:title="Find a key by email address.">
<polygon fill="#fff0f0" stroke="red" points="135.5,-93 25.5,-93 25.5,-74 135.5,-74 135.5,-93"/>
<text text-anchor="middle" x="80.5" y="-81" font-family="Helvetica,sans-Serif" font-size="10.00">crypt_getkeybyaddr</text>
</a>
</g>
</g>
<!-- Node1&#45;&gt;Node2 -->
<g id="edge1" class="edge">
<title>Node1&#45;&gt;Node2</title>
<path fill="none" stroke="#63b8ff" d="M185.79,-59C177.57,-61.23 169.04,-63.48 161,-65.5 150.02,-68.25 138.14,-71.04 126.99,-73.58"/>
<polygon fill="#63b8ff" stroke="#63b8ff" points="186.56,-62.42 195.28,-56.39 184.71,-55.67 186.56,-62.42"/>
</g>
<!-- Node63 -->
<g id="node3" class="node">
<title>Node63</title>
<g id="a_node3"><a xlink:href="crypt__gpgme_8c.html#a5fee66cefad8cab3f8cb31c27ad52085" target="_top" xlink:title="Find a key by string.">
<polygon fill="#fff0f0" stroke="red" points="131,-56 30,-56 30,-37 131,-37 131,-56"/>
<text text-anchor="middle" x="80.5" y="-44" font-family="Helvetica,sans-Serif" font-size="10.00">crypt_getkeybystr</text>
</a>
</g>
</g>
<!-- Node1&#45;&gt;Node63 -->
<g id="edge2" class="edge">
<title>Node1&#45;&gt;Node63</title>
<path fill="none" stroke="#63b8ff" d="M185.34,-46.5C168.33,-46.5 148.83,-46.5 131.36,-46.5"/>
<polygon fill="#63b8ff" stroke="#63b8ff" points="185.16,-50 195.16,-46.5 185.16,-43 185.16,-50"/>
</g>
<!-- Node66 -->
<g id="node4" class="node">
<title>Node66</title>
<g id="a_node4"><a xlink:href="crypt__gpgme_8c.html#a2e8df329d00791c453eb6b3f60eabfdf" target="_top" xlink:title="Select a private Autocrypt key for a new account.">
<polygon fill="#fff0f0" stroke="red" points="161,-19 0,-19 0,0 161,0 161,-19"/>
<text text-anchor="middle" x="80.5" y="-7" font-family="Helvetica,sans-Serif" font-size="10.00">mutt_gpgme_select_secret_key</text>
</a>
</g>
</g>
<!-- Node1&#45;&gt;Node66 -->
<g id="edge3" class="edge">
<title>Node1&#45;&gt;Node66</title>
<path fill="none" stroke="#63b8ff" d="M185.75,-34.81C177.53,-32.68 169.01,-30.5 161,-28.5 149.02,-25.51 136,-22.35 124.04,-19.49"/>
<polygon fill="#63b8ff" stroke="#63b8ff" points="184.67,-38.15 195.23,-37.28 186.44,-31.37 184.67,-38.15"/>
</g>
</g>
</svg>
