<?xml version="1.0" encoding="UTF-8" standalone="no"?>
<!DOCTYPE svg PUBLIC "-//W3C//DTD SVG 1.1//EN"
 "http://www.w3.org/Graphics/SVG/1.1/DTD/svg11.dtd">
<!-- Generated by graphviz version 7.1.0 (0)
 -->
<!-- Title: number_string_set Pages: 1 -->
<svg width="321pt" height="116pt"
 viewBox="0.00 0.00 321.00 116.31" xmlns="http://www.w3.org/2000/svg" xmlns:xlink="http://www.w3.org/1999/xlink">
<g id="graph0" class="graph" transform="scale(1 1) rotate(0) translate(4 112.31)">
<title>number_string_set</title>
<!-- Node1 -->
<g id="node1" class="node">
<title>Node1</title>
<g id="a_node1"><a xlink:title="Set a Number by string &#45; Implements ConfigSetType::string_set() &#45;.">
<polygon fill="#999999" stroke="#666666" points="104,-74 0,-74 0,-55 104,-55 104,-74"/>
<text text-anchor="middle" x="52" y="-62" font-family="Helvetica,sans-Serif" font-size="10.00">number_string_set</text>
</a>
</g>
</g>
<!-- Node2 -->
<g id="node2" class="node">
<title>Node2</title>
<g id="a_node2"><a xlink:href="buffer_8c.html#a02123807d31181ac701b566226e93b33" target="_top" xlink:title="Format a string overwriting a Buffer.">
<polygon fill="#fff0f0" stroke="red" points="313,-75 250,-75 250,-56 313,-56 313,-75"/>
<text text-anchor="middle" x="281.5" y="-63" font-family="Helvetica,sans-Serif" font-size="10.00">buf_printf</text>
</a>
</g>
</g>
<!-- Node1&#45;&gt;Node2 -->
<g id="edge1" class="edge">
<title>Node1&#45;&gt;Node2</title>
<path fill="none" stroke="#63b8ff" d="M69.96,-74.42C87,-83.78 114.35,-97.14 140,-102.5 172.19,-109.22 182.17,-110.76 214,-102.5 229.79,-98.4 245.81,-89.66 258.17,-81.69"/>
<polygon fill="#63b8ff" stroke="#63b8ff" points="260.03,-84.66 266.35,-76.16 256.11,-78.86 260.03,-84.66"/>
</g>
<!-- Node8 -->
<g id="node3" class="node">
<title>Node8</title>
<g id="a_node3"><a xlink:href="number_8c.html#a65eed72aebcf5b494f649e9db3168640" target="_top" xlink:title="Get an int from a Number config item.">
<polygon fill="white" stroke="#666666" points="209.5,-93 144.5,-93 144.5,-74 209.5,-74 209.5,-93"/>
<text text-anchor="middle" x="177" y="-81" font-family="Helvetica,sans-Serif" font-size="10.00">native_get</text>
</a>
</g>
</g>
<!-- Node1&#45;&gt;Node8 -->
<g id="edge2" class="edge">
<title>Node1&#45;&gt;Node8</title>
<path fill="none" stroke="#63b8ff" d="M104.45,-72.45C113.89,-73.91 123.66,-75.42 132.83,-76.83"/>
<polygon fill="#63b8ff" stroke="#63b8ff" points="132.14,-80.27 142.56,-78.33 133.21,-73.35 132.14,-80.27"/>
</g>
<!-- Node9 -->
<g id="node4" class="node">
<title>Node9</title>
<g id="a_node4"><a xlink:href="number_8c.html#a262527b65d66a569b56f715488b14907" target="_top" xlink:title="Set an int into a Number config item.">
<polygon fill="white" stroke="#666666" points="209,-56 145,-56 145,-37 209,-37 209,-56"/>
<text text-anchor="middle" x="177" y="-44" font-family="Helvetica,sans-Serif" font-size="10.00">native_set</text>
</a>
</g>
</g>
<!-- Node1&#45;&gt;Node9 -->
<g id="edge3" class="edge">
<title>Node1&#45;&gt;Node9</title>
<path fill="none" stroke="#63b8ff" d="M104.45,-56.97C114.19,-55.55 124.27,-54.07 133.68,-52.69"/>
<polygon fill="#63b8ff" stroke="#63b8ff" points="133.88,-56.2 143.27,-51.29 132.86,-49.28 133.88,-56.2"/>
</g>
<!-- Node10 -->
<g id="node5" class="node">
<title>Node10</title>
<g id="a_node5"><a xlink:href="config_2set_8h.html#a09a8cc6d80d0de8506c22effdaebef97" target="_top" xlink:title="Validator function for D_ON_STARTUP.">
<polygon fill="white" stroke="#666666" points="214,-19 140,-19 140,0 214,0 214,-19"/>
<text text-anchor="middle" x="177" y="-7" font-family="Helvetica,sans-Serif" font-size="10.00">startup_only</text>
</a>
</g>
</g>
<!-- Node1&#45;&gt;Node10 -->
<g id="edge4" class="edge">
<title>Node1&#45;&gt;Node10</title>
<path fill="none" stroke="#63b8ff" d="M75.27,-54.54C94.34,-46.01 122.05,-33.62 143.58,-24"/>
<polygon fill="#63b8ff" stroke="#63b8ff" points="144.81,-27.28 152.51,-20 141.95,-20.89 144.81,-27.28"/>
</g>
<!-- Node10&#45;&gt;Node2 -->
<g id="edge5" class="edge">
<title>Node10&#45;&gt;Node2</title>
<path fill="none" stroke="#63b8ff" d="M197.1,-19.48C202.57,-22.37 208.53,-25.54 214,-28.5 226.94,-35.51 241.2,-43.43 253.2,-50.13"/>
<polygon fill="#63b8ff" stroke="#63b8ff" points="251.3,-53.08 261.74,-54.92 254.72,-46.97 251.3,-53.08"/>
</g>
</g>
</svg>
