<?xml version="1.0" encoding="UTF-8" standalone="no"?>
<!DOCTYPE svg PUBLIC "-//W3C//DTD SVG 1.1//EN"
 "http://www.w3.org/Graphics/SVG/1.1/DTD/svg11.dtd">
<!-- Generated by graphviz version 7.1.0 (0)
 -->
<!-- Title: number_string_plus_equals Pages: 1 -->
<svg width="359pt" height="119pt"
 viewBox="0.00 0.00 359.00 118.69" xmlns="http://www.w3.org/2000/svg" xmlns:xlink="http://www.w3.org/1999/xlink">
<g id="graph0" class="graph" transform="scale(1 1) rotate(0) translate(4 114.69)">
<title>number_string_plus_equals</title>
<!-- Node1 -->
<g id="node1" class="node">
<title>Node1</title>
<g id="a_node1"><a xlink:title="Add to a Number by string &#45; Implements ConfigSetType::string_plus_equals() &#45;.">
<polygon fill="#999999" stroke="#666666" points="109,-79.5 0,-79.5 0,-49.5 109,-49.5 109,-79.5"/>
<text text-anchor="start" x="8" y="-67.5" font-family="Helvetica,sans-Serif" font-size="10.00">number_string_plus</text>
<text text-anchor="middle" x="54.5" y="-56.5" font-family="Helvetica,sans-Serif" font-size="10.00">_equals</text>
</a>
</g>
</g>
<!-- Node2 -->
<g id="node2" class="node">
<title>Node2</title>
<g id="a_node2"><a xlink:href="buffer_8c.html#a02123807d31181ac701b566226e93b33" target="_top" xlink:title="Format a string overwriting a Buffer.">
<polygon fill="#fff0f0" stroke="red" points="351,-75 288,-75 288,-56 351,-56 351,-75"/>
<text text-anchor="middle" x="319.5" y="-63" font-family="Helvetica,sans-Serif" font-size="10.00">buf_printf</text>
</a>
</g>
</g>
<!-- Node1&#45;&gt;Node2 -->
<g id="edge1" class="edge">
<title>Node1&#45;&gt;Node2</title>
<path fill="none" stroke="#63b8ff" d="M83.57,-79.87C100.75,-88.39 123.5,-98.12 145,-102.5 191.6,-111.98 205.97,-114.44 252,-102.5 267.79,-98.4 283.81,-89.66 296.17,-81.69"/>
<polygon fill="#63b8ff" stroke="#63b8ff" points="298.03,-84.66 304.35,-76.16 294.11,-78.86 298.03,-84.66"/>
</g>
<!-- Node8 -->
<g id="node3" class="node">
<title>Node8</title>
<g id="a_node3"><a xlink:href="number_8c.html#a262527b65d66a569b56f715488b14907" target="_top" xlink:title="Set an int into a Number config item.">
<polygon fill="white" stroke="#666666" points="230.5,-93 166.5,-93 166.5,-74 230.5,-74 230.5,-93"/>
<text text-anchor="middle" x="198.5" y="-81" font-family="Helvetica,sans-Serif" font-size="10.00">native_set</text>
</a>
</g>
</g>
<!-- Node1&#45;&gt;Node8 -->
<g id="edge2" class="edge">
<title>Node1&#45;&gt;Node8</title>
<path fill="none" stroke="#63b8ff" d="M109.18,-71.68C124.43,-73.72 140.81,-75.91 155.27,-77.85"/>
<polygon fill="#63b8ff" stroke="#63b8ff" points="154.52,-81.28 164.9,-79.14 155.45,-74.34 154.52,-81.28"/>
</g>
<!-- Node9 -->
<g id="node4" class="node">
<title>Node9</title>
<g id="a_node4"><a xlink:href="group__cfg__type__native__get.html#ga414eeb210cc86064228a09cc7d92ef90" target="_top" xlink:title="Get an int from a Number config item &#45; Implements ConfigSetType::native_get() &#45;.">
<polygon fill="#fff0f0" stroke="red" points="252,-56 145,-56 145,-37 252,-37 252,-56"/>
<text text-anchor="middle" x="198.5" y="-44" font-family="Helvetica,sans-Serif" font-size="10.00">number_native_get</text>
</a>
</g>
</g>
<!-- Node1&#45;&gt;Node9 -->
<g id="edge3" class="edge">
<title>Node1&#45;&gt;Node9</title>
<path fill="none" stroke="#63b8ff" d="M109.18,-57.69C117.08,-56.69 125.29,-55.65 133.37,-54.63"/>
<polygon fill="#63b8ff" stroke="#63b8ff" points="133.7,-58.12 143.18,-53.39 132.82,-51.17 133.7,-58.12"/>
</g>
<!-- Node11 -->
<g id="node5" class="node">
<title>Node11</title>
<g id="a_node5"><a xlink:href="config_2set_8h.html#a09a8cc6d80d0de8506c22effdaebef97" target="_top" xlink:title="Validator function for D_ON_STARTUP.">
<polygon fill="white" stroke="#666666" points="235.5,-19 161.5,-19 161.5,0 235.5,0 235.5,-19"/>
<text text-anchor="middle" x="198.5" y="-7" font-family="Helvetica,sans-Serif" font-size="10.00">startup_only</text>
</a>
</g>
</g>
<!-- Node1&#45;&gt;Node11 -->
<g id="edge4" class="edge">
<title>Node1&#45;&gt;Node11</title>
<path fill="none" stroke="#63b8ff" d="M92.83,-49.14C108.84,-42.64 127.79,-35.07 145,-28.5 149.43,-26.81 154.09,-25.07 158.72,-23.36"/>
<polygon fill="#63b8ff" stroke="#63b8ff" points="159.75,-26.71 167.95,-19.99 157.35,-20.13 159.75,-26.71"/>
</g>
<!-- Node11&#45;&gt;Node2 -->
<g id="edge5" class="edge">
<title>Node11&#45;&gt;Node2</title>
<path fill="none" stroke="#63b8ff" d="M229.54,-19.43C236.98,-22.15 244.86,-25.24 252,-28.5 265.76,-34.77 280.51,-42.83 292.62,-49.83"/>
<polygon fill="#63b8ff" stroke="#63b8ff" points="290.78,-52.81 301.18,-54.86 294.33,-46.77 290.78,-52.81"/>
</g>
</g>
</svg>
