<?xml version="1.0" encoding="UTF-8" standalone="no"?>
<!DOCTYPE svg PUBLIC "-//W3C//DTD SVG 1.1//EN"
 "http://www.w3.org/Graphics/SVG/1.1/DTD/svg11.dtd">
<!-- Generated by graphviz version 12.2.1 (20241206.2353)
 -->
<!-- Title: conn/gsasl.c Pages: 1 -->
<svg width="528pt" height="205pt"
 viewBox="0.00 0.00 527.75 205.00" xmlns="http://www.w3.org/2000/svg" xmlns:xlink="http://www.w3.org/1999/xlink">
<g id="graph0" class="graph" transform="scale(1 1) rotate(0) translate(4 201)">
<title>conn/gsasl.c</title>
<!-- Node1 -->
<g id="Node000001" class="node">
<title>Node1</title>
<g id="a_Node000001"><a xlink:title="GNU SASL authentication support.">
<polygon fill="#999999" stroke="#666666" points="252.88,-197 180.62,-197 180.62,-174.75 252.88,-174.75 252.88,-197"/>
<text text-anchor="middle" x="216.75" y="-183.5" font-family="Helvetica,sans-Serif" font-size="10.00">conn/gsasl.c</text>
</a>
</g>
</g>
<!-- Node2 -->
<g id="Node000002" class="node">
<title>Node2</title>
<g id="a_Node000002"><a xlink:title=" ">
<polygon fill="#e0e0e0" stroke="#999999" points="53.5,-80.5 0,-80.5 0,-58.25 53.5,-58.25 53.5,-80.5"/>
<text text-anchor="middle" x="26.75" y="-67" font-family="Helvetica,sans-Serif" font-size="10.00">config.h</text>
</a>
</g>
</g>
<!-- Node1&#45;&gt;Node2 -->
<g id="edge1_Node000001_Node000002" class="edge">
<title>Node1&#45;&gt;Node2</title>
<g id="a_edge1_Node000001_Node000002"><a xlink:title=" ">
<path fill="none" stroke="#63b8ff" d="M180.24,-181.41C130.05,-175.8 43.74,-162.85 24.75,-138.75 14.42,-125.65 16.03,-106.34 19.58,-91.58"/>
<polygon fill="#63b8ff" stroke="#63b8ff" points="22.83,-92.96 22.24,-82.38 16.11,-91.02 22.83,-92.96"/>
</a>
</g>
</g>
<!-- Node3 -->
<g id="Node000003" class="node">
<title>Node3</title>
<g id="a_Node000003"><a xlink:title=" ">
<polygon fill="#e0e0e0" stroke="#999999" points="202.5,-80.5 155,-80.5 155,-58.25 202.5,-58.25 202.5,-80.5"/>
<text text-anchor="middle" x="178.75" y="-67" font-family="Helvetica,sans-Serif" font-size="10.00">gsasl.h</text>
</a>
</g>
</g>
<!-- Node1&#45;&gt;Node3 -->
<g id="edge2_Node000001_Node000003" class="edge">
<title>Node1&#45;&gt;Node3</title>
<g id="a_edge2_Node000001_Node000003"><a xlink:title=" ">
<path fill="none" stroke="#63b8ff" d="M205.31,-174.37C196.78,-165.74 185.78,-152.7 180.75,-138.75 175.38,-123.87 175.06,-105.96 175.99,-92.2"/>
<polygon fill="#63b8ff" stroke="#63b8ff" points="179.45,-92.74 176.93,-82.45 172.48,-92.07 179.45,-92.74"/>
</a>
</g>
</g>
<!-- Node4 -->
<g id="Node000004" class="node">
<title>Node4</title>
<g id="a_Node000004"><a xlink:title=" ">
<polygon fill="#e0e0e0" stroke="#999999" points="336.5,-22.25 277,-22.25 277,0 336.5,0 336.5,-22.25"/>
<text text-anchor="middle" x="306.75" y="-8.75" font-family="Helvetica,sans-Serif" font-size="10.00">stdbool.h</text>
</a>
</g>
</g>
<!-- Node1&#45;&gt;Node4 -->
<g id="edge3_Node000001_Node000004" class="edge">
<title>Node1&#45;&gt;Node4</title>
<g id="a_edge3_Node000001_Node000004"><a xlink:title=" ">
<path fill="none" stroke="#63b8ff" d="M226.17,-174.45C233.98,-165.45 245.01,-151.87 252.75,-138.75 273.4,-103.74 290.44,-59.36 299.56,-33.52"/>
<polygon fill="#63b8ff" stroke="#63b8ff" points="302.83,-34.77 302.79,-24.17 296.22,-32.48 302.83,-34.77"/>
</a>
</g>
</g>
<!-- Node5 -->
<g id="Node000005" class="node">
<title>Node5</title>
<g id="a_Node000005"><a xlink:title=" ">
<polygon fill="#e0e0e0" stroke="#999999" points="132.88,-80.5 78.62,-80.5 78.62,-58.25 132.88,-58.25 132.88,-80.5"/>
<text text-anchor="middle" x="105.75" y="-67" font-family="Helvetica,sans-Serif" font-size="10.00">stddef.h</text>
</a>
</g>
</g>
<!-- Node1&#45;&gt;Node5 -->
<g id="edge4_Node000001_Node000005" class="edge">
<title>Node1&#45;&gt;Node5</title>
<g id="a_edge4_Node000001_Node000005"><a xlink:title=" ">
<path fill="none" stroke="#63b8ff" d="M206.37,-174.26C197.24,-164.93 183.59,-150.95 171.75,-138.75 155.35,-121.85 136.72,-102.54 123.45,-88.76"/>
<polygon fill="#63b8ff" stroke="#63b8ff" points="126.08,-86.45 116.62,-81.68 121.04,-91.31 126.08,-86.45"/>
</a>
</g>
</g>
<!-- Node6 -->
<g id="Node000006" class="node">
<title>Node6</title>
<g id="a_Node000006"><a xlink:href="mutt_2lib_8h.html" target="_top" xlink:title="Convenience wrapper for the library headers.">
<polygon fill="#fff0f0" stroke="red" points="95.62,-138.75 33.88,-138.75 33.88,-116.5 95.62,-116.5 95.62,-138.75"/>
<text text-anchor="middle" x="64.75" y="-125.25" font-family="Helvetica,sans-Serif" font-size="10.00">mutt/lib.h</text>
</a>
</g>
</g>
<!-- Node1&#45;&gt;Node6 -->
<g id="edge5_Node000001_Node000006" class="edge">
<title>Node1&#45;&gt;Node6</title>
<g id="a_edge5_Node000001_Node000006"><a xlink:title=" ">
<path fill="none" stroke="#63b8ff" d="M188.16,-174.29C164.38,-165.5 130.29,-152.88 103.97,-143.14"/>
<polygon fill="#63b8ff" stroke="#63b8ff" points="105.22,-139.87 94.63,-139.68 102.79,-146.44 105.22,-139.87"/>
</a>
</g>
</g>
<!-- Node55 -->
<g id="Node000055" class="node">
<title>Node55</title>
<g id="a_Node000055"><a xlink:href="connaccount_8h.html" target="_top" xlink:title="Connection Credentials.">
<polygon fill="#fff0f0" stroke="red" points="383.5,-80.5 300,-80.5 300,-58.25 383.5,-58.25 383.5,-80.5"/>
<text text-anchor="middle" x="341.75" y="-67" font-family="Helvetica,sans-Serif" font-size="10.00">connaccount.h</text>
</a>
</g>
</g>
<!-- Node1&#45;&gt;Node55 -->
<g id="edge8_Node000001_Node000055" class="edge">
<title>Node1&#45;&gt;Node55</title>
<g id="a_edge8_Node000001_Node000055"><a xlink:title=" ">
<path fill="none" stroke="#63b8ff" d="M235.69,-174.3C250.2,-165.72 270.28,-152.79 285.75,-138.75 302,-124.01 317.57,-104.4 328.15,-89.96"/>
<polygon fill="#63b8ff" stroke="#63b8ff" points="330.77,-92.32 333.74,-82.15 325.07,-88.24 330.77,-92.32"/>
</a>
</g>
</g>
<!-- Node56 -->
<g id="Node000056" class="node">
<title>Node56</title>
<g id="a_Node000056"><a xlink:href="connection_8h.html" target="_top" xlink:title="An open network connection (socket)">
<polygon fill="#fff0f0" stroke="red" points="413.75,-138.75 337.75,-138.75 337.75,-116.5 413.75,-116.5 413.75,-138.75"/>
<text text-anchor="middle" x="375.75" y="-125.25" font-family="Helvetica,sans-Serif" font-size="10.00">connection.h</text>
</a>
</g>
</g>
<!-- Node1&#45;&gt;Node56 -->
<g id="edge10_Node000001_Node000056" class="edge">
<title>Node1&#45;&gt;Node56</title>
<g id="a_edge10_Node000001_Node000056"><a xlink:title=" ">
<path fill="none" stroke="#63b8ff" d="M246.66,-174.29C271.75,-165.42 307.82,-152.66 335.46,-142.88"/>
<polygon fill="#63b8ff" stroke="#63b8ff" points="336.29,-146.3 344.55,-139.66 333.96,-139.7 336.29,-146.3"/>
</a>
</g>
</g>
<!-- Node57 -->
<g id="Node000057" class="node">
<title>Node57</title>
<g id="a_Node000057"><a xlink:href="gsasl2_8h.html" target="_top" xlink:title="GNU SASL authentication support.">
<polygon fill="white" stroke="#666666" points="243.5,-138.75 190,-138.75 190,-116.5 243.5,-116.5 243.5,-138.75"/>
<text text-anchor="middle" x="216.75" y="-125.25" font-family="Helvetica,sans-Serif" font-size="10.00">gsasl2.h</text>
</a>
</g>
</g>
<!-- Node1&#45;&gt;Node57 -->
<g id="edge12_Node000001_Node000057" class="edge">
<title>Node1&#45;&gt;Node57</title>
<g id="a_edge12_Node000001_Node000057"><a xlink:title=" ">
<path fill="none" stroke="#63b8ff" d="M216.75,-174.29C216.75,-167.62 216.75,-158.74 216.75,-150.59"/>
<polygon fill="#63b8ff" stroke="#63b8ff" points="220.25,-150.67 216.75,-140.67 213.25,-150.67 220.25,-150.67"/>
</a>
</g>
</g>
<!-- Node58 -->
<g id="Node000058" class="node">
<title>Node58</title>
<g id="a_Node000058"><a xlink:href="mutt__account_8h.html" target="_top" xlink:title="ConnAccount object used by POP and IMAP.">
<polygon fill="white" stroke="#666666" points="519.75,-138.75 431.75,-138.75 431.75,-116.5 519.75,-116.5 519.75,-138.75"/>
<text text-anchor="middle" x="475.75" y="-125.25" font-family="Helvetica,sans-Serif" font-size="10.00">mutt_account.h</text>
</a>
</g>
</g>
<!-- Node1&#45;&gt;Node58 -->
<g id="edge14_Node000001_Node000058" class="edge">
<title>Node1&#45;&gt;Node58</title>
<g id="a_edge14_Node000001_Node000058"><a xlink:title=" ">
<path fill="none" stroke="#63b8ff" d="M253.31,-176.94C296.87,-167.48 370.07,-151.58 420.54,-140.62"/>
<polygon fill="#63b8ff" stroke="#63b8ff" points="421.07,-144.08 430.1,-138.54 419.58,-137.24 421.07,-144.08"/>
</a>
</g>
</g>
<!-- Node6&#45;&gt;Node2 -->
<g id="edge6_Node000006_Node000002" class="edge">
<title>Node6&#45;&gt;Node2</title>
<g id="a_edge6_Node000006_Node000002"><a xlink:title=" ">
<path fill="none" stroke="#63b8ff" d="M57.6,-116.04C52.72,-108.82 46.1,-99.01 40.24,-90.34"/>
<polygon fill="#63b8ff" stroke="#63b8ff" points="43.21,-88.49 34.71,-82.16 37.41,-92.41 43.21,-88.49"/>
</a>
</g>
</g>
<!-- Node6&#45;&gt;Node5 -->
<g id="edge7_Node000006_Node000005" class="edge">
<title>Node6&#45;&gt;Node5</title>
<g id="a_edge7_Node000006_Node000005"><a xlink:title=" ">
<path fill="none" stroke="#63b8ff" d="M72.46,-116.04C77.79,-108.74 85.03,-98.8 91.4,-90.06"/>
<polygon fill="#63b8ff" stroke="#63b8ff" points="94.12,-92.27 97.18,-82.13 88.46,-88.15 94.12,-92.27"/>
</a>
</g>
</g>
<!-- Node55&#45;&gt;Node4 -->
<g id="edge9_Node000055_Node000004" class="edge">
<title>Node55&#45;&gt;Node4</title>
<g id="a_edge9_Node000055_Node000004"><a xlink:title=" ">
<path fill="none" stroke="#63b8ff" d="M335.17,-57.79C330.72,-50.65 324.7,-40.98 319.35,-32.38"/>
<polygon fill="#63b8ff" stroke="#63b8ff" points="322.36,-30.58 314.1,-23.94 316.41,-34.28 322.36,-30.58"/>
</a>
</g>
</g>
<!-- Node56&#45;&gt;Node55 -->
<g id="edge11_Node000056_Node000055" class="edge">
<title>Node56&#45;&gt;Node55</title>
<g id="a_edge11_Node000056_Node000055"><a xlink:title=" ">
<path fill="none" stroke="#63b8ff" d="M369.35,-116.04C365.03,-108.9 359.19,-99.23 353.99,-90.63"/>
<polygon fill="#63b8ff" stroke="#63b8ff" points="357.07,-88.95 348.9,-82.2 351.08,-92.57 357.07,-88.95"/>
</a>
</g>
</g>
<!-- Node57&#45;&gt;Node3 -->
<g id="edge13_Node000057_Node000003" class="edge">
<title>Node57&#45;&gt;Node3</title>
<g id="a_edge13_Node000057_Node000003"><a xlink:title=" ">
<path fill="none" stroke="#63b8ff" d="M209.6,-116.04C204.72,-108.82 198.1,-99.01 192.24,-90.34"/>
<polygon fill="#63b8ff" stroke="#63b8ff" points="195.21,-88.49 186.71,-82.16 189.41,-92.41 195.21,-88.49"/>
</a>
</g>
</g>
</g>
</svg>
