<?xml version="1.0" encoding="UTF-8" standalone="no"?>
<!DOCTYPE svg PUBLIC "-//W3C//DTD SVG 1.1//EN"
 "http://www.w3.org/Graphics/SVG/1.1/DTD/svg11.dtd">
<!-- Generated by graphviz version 2.44.0 (0)
 -->
<!-- Title: handler.h Pages: 1 -->
<svg width="1392pt" height="84pt"
 viewBox="0.00 0.00 1391.50 84.00" xmlns="http://www.w3.org/2000/svg" xmlns:xlink="http://www.w3.org/1999/xlink">
<g id="graph0" class="graph" transform="scale(1 1) rotate(0) translate(4 80)">
<title>handler.h</title>
<polygon fill="white" stroke="transparent" points="-4,4 -4,-80 1387.5,-80 1387.5,4 -4,4"/>
<!-- Node1 -->
<g id="node1" class="node">
<title>Node1</title>
<g id="a_node1"><a xlink:title=" ">
<polygon fill="#bfbfbf" stroke="black" points="667.5,-56.5 667.5,-75.5 723.5,-75.5 723.5,-56.5 667.5,-56.5"/>
<text text-anchor="middle" x="695.5" y="-63.5" font-family="Helvetica" font-size="10.00">handler.h</text>
</a>
</g>
</g>
<!-- Node2 -->
<g id="node2" class="node">
<title>Node2</title>
<g id="a_node2"><a xlink:href="copy_8c.html" target="_top" xlink:title=" ">
<polygon fill="white" stroke="black" points="0,-0.5 0,-19.5 45,-19.5 45,-0.5 0,-0.5"/>
<text text-anchor="middle" x="22.5" y="-7.5" font-family="Helvetica" font-size="10.00">copy.c</text>
</a>
</g>
</g>
<!-- Node1&#45;&gt;Node2 -->
<g id="edge1" class="edge">
<title>Node1&#45;&gt;Node2</title>
<path fill="none" stroke="midnightblue" d="M657.25,-65.02C557.34,-64.5 280.64,-59.31 54.5,-20 51.43,-19.47 48.23,-18.76 45.09,-17.97"/>
<polygon fill="midnightblue" stroke="midnightblue" points="657.44,-68.52 667.45,-65.06 657.47,-61.52 657.44,-68.52"/>
</g>
<!-- Node3 -->
<g id="node3" class="node">
<title>Node3</title>
<g id="a_node3"><a xlink:href="handler_8c.html" target="_top" xlink:title=" ">
<polygon fill="white" stroke="black" points="63.5,-0.5 63.5,-19.5 119.5,-19.5 119.5,-0.5 63.5,-0.5"/>
<text text-anchor="middle" x="91.5" y="-7.5" font-family="Helvetica" font-size="10.00">handler.c</text>
</a>
</g>
</g>
<!-- Node1&#45;&gt;Node3 -->
<g id="edge2" class="edge">
<title>Node1&#45;&gt;Node3</title>
<path fill="none" stroke="midnightblue" d="M657.08,-64.06C565.19,-61.36 325.69,-51.6 128.5,-20 125.63,-19.54 122.65,-18.97 119.69,-18.35"/>
<polygon fill="midnightblue" stroke="midnightblue" points="657.19,-67.57 667.29,-64.35 657.39,-60.57 657.19,-67.57"/>
</g>
<!-- Node4 -->
<g id="node4" class="node">
<title>Node4</title>
<g id="a_node4"><a xlink:href="mutt__attach_8c.html" target="_top" xlink:title=" ">
<polygon fill="white" stroke="black" points="138,-0.5 138,-19.5 215,-19.5 215,-0.5 138,-0.5"/>
<text text-anchor="middle" x="176.5" y="-7.5" font-family="Helvetica" font-size="10.00">mutt_attach.c</text>
</a>
</g>
</g>
<!-- Node1&#45;&gt;Node4 -->
<g id="edge3" class="edge">
<title>Node1&#45;&gt;Node4</title>
<path fill="none" stroke="midnightblue" d="M657.11,-62.51C576.63,-57.03 384.46,-42.59 224.5,-20 221.48,-19.57 218.36,-19.09 215.22,-18.57"/>
<polygon fill="midnightblue" stroke="midnightblue" points="657.05,-66.01 667.26,-63.19 657.52,-59.03 657.05,-66.01"/>
</g>
<!-- Node5 -->
<g id="node5" class="node">
<title>Node5</title>
<g id="a_node5"><a xlink:href="mutt__config_8c.html" target="_top" xlink:title=" ">
<polygon fill="white" stroke="black" points="233.5,-0.5 233.5,-19.5 309.5,-19.5 309.5,-0.5 233.5,-0.5"/>
<text text-anchor="middle" x="271.5" y="-7.5" font-family="Helvetica" font-size="10.00">mutt_config.c</text>
</a>
</g>
</g>
<!-- Node1&#45;&gt;Node5 -->
<g id="edge4" class="edge">
<title>Node1&#45;&gt;Node5</title>
<path fill="none" stroke="midnightblue" d="M656.73,-61.28C588.26,-54.51 441.54,-39.1 318.5,-20 315.63,-19.55 312.66,-19.06 309.68,-18.54"/>
<polygon fill="midnightblue" stroke="midnightblue" points="656.74,-64.8 667.03,-62.29 657.42,-57.83 656.74,-64.8"/>
</g>
<!-- Node6 -->
<g id="node6" class="node">
<title>Node6</title>
<g id="a_node6"><a xlink:href="crypt_8c.html" target="_top" xlink:title=" ">
<polygon fill="white" stroke="black" points="328,-0.5 328,-19.5 405,-19.5 405,-0.5 328,-0.5"/>
<text text-anchor="middle" x="366.5" y="-7.5" font-family="Helvetica" font-size="10.00">ncrypt/crypt.c</text>
</a>
</g>
</g>
<!-- Node1&#45;&gt;Node6 -->
<g id="edge5" class="edge">
<title>Node1&#45;&gt;Node6</title>
<path fill="none" stroke="midnightblue" d="M657.24,-59.28C602.95,-51.07 500.48,-35.26 413.5,-20 410.8,-19.53 408.01,-19.02 405.21,-18.51"/>
<polygon fill="midnightblue" stroke="midnightblue" points="657.02,-62.79 667.43,-60.82 658.07,-55.86 657.02,-62.79"/>
</g>
<!-- Node7 -->
<g id="node7" class="node">
<title>Node7</title>
<g id="a_node7"><a xlink:href="crypt__gpgme_8c.html" target="_top" xlink:title=" ">
<polygon fill="white" stroke="black" points="423,-0.5 423,-19.5 536,-19.5 536,-0.5 423,-0.5"/>
<text text-anchor="middle" x="479.5" y="-7.5" font-family="Helvetica" font-size="10.00">ncrypt/crypt_gpgme.c</text>
</a>
</g>
</g>
<!-- Node1&#45;&gt;Node7 -->
<g id="edge6" class="edge">
<title>Node1&#45;&gt;Node7</title>
<path fill="none" stroke="midnightblue" d="M657.46,-55.49C616.81,-45.33 552.96,-29.36 513.8,-19.58"/>
<polygon fill="midnightblue" stroke="midnightblue" points="656.71,-58.91 667.26,-57.94 658.41,-52.12 656.71,-58.91"/>
</g>
<!-- Node8 -->
<g id="node8" class="node">
<title>Node8</title>
<g id="a_node8"><a xlink:href="pgp_8c.html" target="_top" xlink:title=" ">
<polygon fill="white" stroke="black" points="554.5,-0.5 554.5,-19.5 626.5,-19.5 626.5,-0.5 554.5,-0.5"/>
<text text-anchor="middle" x="590.5" y="-7.5" font-family="Helvetica" font-size="10.00">ncrypt/pgp.c</text>
</a>
</g>
</g>
<!-- Node1&#45;&gt;Node8 -->
<g id="edge7" class="edge">
<title>Node1&#45;&gt;Node8</title>
<path fill="none" stroke="midnightblue" d="M669.69,-51.73C650.25,-41.73 624.15,-28.31 607.33,-19.65"/>
<polygon fill="midnightblue" stroke="midnightblue" points="668.14,-54.86 678.63,-56.32 671.34,-48.64 668.14,-54.86"/>
</g>
<!-- Node9 -->
<g id="node9" class="node">
<title>Node9</title>
<g id="a_node9"><a xlink:href="pgpmicalg_8c.html" target="_top" xlink:title=" ">
<polygon fill="white" stroke="black" points="645,-0.5 645,-19.5 746,-19.5 746,-0.5 645,-0.5"/>
<text text-anchor="middle" x="695.5" y="-7.5" font-family="Helvetica" font-size="10.00">ncrypt/pgpmicalg.c</text>
</a>
</g>
</g>
<!-- Node1&#45;&gt;Node9 -->
<g id="edge8" class="edge">
<title>Node1&#45;&gt;Node9</title>
<path fill="none" stroke="midnightblue" d="M695.5,-45.8C695.5,-36.91 695.5,-26.78 695.5,-19.75"/>
<polygon fill="midnightblue" stroke="midnightblue" points="692,-46.08 695.5,-56.08 699,-46.08 692,-46.08"/>
</g>
<!-- Node10 -->
<g id="node10" class="node">
<title>Node10</title>
<g id="a_node10"><a xlink:href="smime_8c.html" target="_top" xlink:title=" ">
<polygon fill="white" stroke="black" points="764,-0.5 764,-19.5 849,-19.5 849,-0.5 764,-0.5"/>
<text text-anchor="middle" x="806.5" y="-7.5" font-family="Helvetica" font-size="10.00">ncrypt/smime.c</text>
</a>
</g>
</g>
<!-- Node1&#45;&gt;Node10 -->
<g id="edge9" class="edge">
<title>Node1&#45;&gt;Node10</title>
<path fill="none" stroke="midnightblue" d="M722.51,-51.86C743.09,-41.85 770.84,-28.35 788.71,-19.65"/>
<polygon fill="midnightblue" stroke="midnightblue" points="720.8,-48.8 713.33,-56.32 723.86,-55.1 720.8,-48.8"/>
</g>
<!-- Node11 -->
<g id="node11" class="node">
<title>Node11</title>
<g id="a_node11"><a xlink:href="exec_8c.html" target="_top" xlink:title=" ">
<polygon fill="white" stroke="black" points="867.5,-0.5 867.5,-19.5 945.5,-19.5 945.5,-0.5 867.5,-0.5"/>
<text text-anchor="middle" x="906.5" y="-7.5" font-family="Helvetica" font-size="10.00">pattern/exec.c</text>
</a>
</g>
</g>
<!-- Node1&#45;&gt;Node11 -->
<g id="edge10" class="edge">
<title>Node1&#45;&gt;Node11</title>
<path fill="none" stroke="midnightblue" d="M733.38,-55.31C773.17,-45.12 835.14,-29.26 873.14,-19.54"/>
<polygon fill="midnightblue" stroke="midnightblue" points="732.34,-51.96 723.52,-57.83 734.07,-58.74 732.34,-51.96"/>
</g>
<!-- Node12 -->
<g id="node12" class="node">
<title>Node12</title>
<g id="a_node12"><a xlink:href="postpone_8c.html" target="_top" xlink:title=" ">
<polygon fill="white" stroke="black" points="964,-0.5 964,-19.5 1029,-19.5 1029,-0.5 964,-0.5"/>
<text text-anchor="middle" x="996.5" y="-7.5" font-family="Helvetica" font-size="10.00">postpone.c</text>
</a>
</g>
</g>
<!-- Node1&#45;&gt;Node12 -->
<g id="edge11" class="edge">
<title>Node1&#45;&gt;Node12</title>
<path fill="none" stroke="midnightblue" d="M733.69,-58.84C784.29,-50.58 876.28,-35.17 954.5,-20 957.57,-19.4 960.77,-18.76 963.97,-18.1"/>
<polygon fill="midnightblue" stroke="midnightblue" points="732.85,-55.43 723.54,-60.5 733.98,-62.34 732.85,-55.43"/>
</g>
<!-- Node13 -->
<g id="node13" class="node">
<title>Node13</title>
<g id="a_node13"><a xlink:href="recvattach_8c.html" target="_top" xlink:title=" ">
<polygon fill="white" stroke="black" points="1047.5,-0.5 1047.5,-19.5 1117.5,-19.5 1117.5,-0.5 1047.5,-0.5"/>
<text text-anchor="middle" x="1082.5" y="-7.5" font-family="Helvetica" font-size="10.00">recvattach.c</text>
</a>
</g>
</g>
<!-- Node1&#45;&gt;Node13 -->
<g id="edge12" class="edge">
<title>Node1&#45;&gt;Node13</title>
<path fill="none" stroke="midnightblue" d="M733.56,-60.9C796.99,-53.88 928.25,-38.48 1038.5,-20 1041.42,-19.51 1044.45,-18.97 1047.48,-18.4"/>
<polygon fill="midnightblue" stroke="midnightblue" points="733.17,-57.43 723.61,-62 733.93,-64.38 733.17,-57.43"/>
</g>
<!-- Node14 -->
<g id="node14" class="node">
<title>Node14</title>
<g id="a_node14"><a xlink:href="recvcmd_8c.html" target="_top" xlink:title=" ">
<polygon fill="white" stroke="black" points="1135.5,-0.5 1135.5,-19.5 1197.5,-19.5 1197.5,-0.5 1135.5,-0.5"/>
<text text-anchor="middle" x="1166.5" y="-7.5" font-family="Helvetica" font-size="10.00">recvcmd.c</text>
</a>
</g>
</g>
<!-- Node1&#45;&gt;Node14 -->
<g id="edge13" class="edge">
<title>Node1&#45;&gt;Node14</title>
<path fill="none" stroke="midnightblue" d="M734.08,-62.5C809.72,-57.25 982.68,-43.6 1126.5,-20 1129.31,-19.54 1132.22,-19 1135.13,-18.42"/>
<polygon fill="midnightblue" stroke="midnightblue" points="733.38,-59.04 723.64,-63.21 733.85,-66.02 733.38,-59.04"/>
</g>
<!-- Node15 -->
<g id="node15" class="node">
<title>Node15</title>
<g id="a_node15"><a xlink:href="send_8c.html" target="_top" xlink:title=" ">
<polygon fill="white" stroke="black" points="1215.5,-0.5 1215.5,-19.5 1285.5,-19.5 1285.5,-0.5 1215.5,-0.5"/>
<text text-anchor="middle" x="1250.5" y="-7.5" font-family="Helvetica" font-size="10.00">send/send.c</text>
</a>
</g>
</g>
<!-- Node1&#45;&gt;Node15 -->
<g id="edge14" class="edge">
<title>Node1&#45;&gt;Node15</title>
<path fill="none" stroke="midnightblue" d="M733.84,-63.12C819.14,-58.61 1030.93,-45.6 1206.5,-20 1209.43,-19.57 1212.46,-19.07 1215.5,-18.53"/>
<polygon fill="midnightblue" stroke="midnightblue" points="733.41,-59.64 723.6,-63.65 733.77,-66.63 733.41,-59.64"/>
</g>
<!-- Node16 -->
<g id="node16" class="node">
<title>Node16</title>
<g id="a_node16"><a xlink:href="sendlib_8c.html" target="_top" xlink:title=" ">
<polygon fill="white" stroke="black" points="1303.5,-0.5 1303.5,-19.5 1383.5,-19.5 1383.5,-0.5 1303.5,-0.5"/>
<text text-anchor="middle" x="1343.5" y="-7.5" font-family="Helvetica" font-size="10.00">send/sendlib.c</text>
</a>
</g>
</g>
<!-- Node1&#45;&gt;Node16 -->
<g id="edge15" class="edge">
<title>Node1&#45;&gt;Node16</title>
<path fill="none" stroke="midnightblue" d="M733.69,-63.55C828.77,-59.62 1083.65,-47.2 1294.5,-20 1297.42,-19.62 1300.42,-19.19 1303.44,-18.72"/>
<polygon fill="midnightblue" stroke="midnightblue" points="733.53,-60.05 723.68,-63.95 733.81,-67.04 733.53,-60.05"/>
</g>
</g>
</svg>
