<?xml version="1.0" encoding="UTF-8" standalone="no"?>
<!DOCTYPE svg PUBLIC "-//W3C//DTD SVG 1.1//EN"
 "http://www.w3.org/Graphics/SVG/1.1/DTD/svg11.dtd">
<!-- Generated by graphviz version 2.40.1 (20161225.0304)
 -->
<!-- Title: alternative_handler Pages: 1 -->
<svg width="557pt" height="558pt"
 viewBox="0.00 0.00 557.00 558.00" xmlns="http://www.w3.org/2000/svg" xmlns:xlink="http://www.w3.org/1999/xlink">
<g id="graph0" class="graph" transform="scale(1 1) rotate(0) translate(4 554)">
<title>alternative_handler</title>
<polygon fill="#ffffff" stroke="transparent" points="-4,4 -4,-554 553,-554 553,4 -4,4"/>
<!-- Node13102 -->
<g id="node1" class="node">
<title>Node13102</title>
<polygon fill="#bfbfbf" stroke="#000000" points="0,-284.5 0,-303.5 112,-303.5 112,-284.5 0,-284.5"/>
<text text-anchor="middle" x="56" y="-291.5" font-family="Helvetica,sans-Serif" font-size="10.00" fill="#000000">alternative_handler</text>
</g>
<!-- Node13103 -->
<g id="node2" class="node">
<title>Node13103</title>
<g id="a_node2"><a xlink:href="email_2body_8c.html#aee001296b775e82e3988b5a81e53e30c" target="_top" xlink:title="Create a new Body. ">
<polygon fill="#ffffff" stroke="#ff0000" points="161.5,-530.5 161.5,-549.5 256.5,-549.5 256.5,-530.5 161.5,-530.5"/>
<text text-anchor="middle" x="209" y="-537.5" font-family="Helvetica,sans-Serif" font-size="10.00" fill="#000000">mutt_body_new</text>
</a>
</g>
</g>
<!-- Node13102&#45;&gt;Node13103 -->
<g id="edge1" class="edge">
<title>Node13102&#45;&gt;Node13103</title>
<path fill="none" stroke="#191970" d="M57.0272,-303.8495C61.2069,-338.8582 80.0971,-458.518 148,-521 149.7243,-522.5866 151.5794,-524.0408 153.532,-525.3735"/>
<polygon fill="#191970" stroke="#191970" points="152.1808,-528.6289 162.6138,-530.4736 155.6083,-522.5254 152.1808,-528.6289"/>
</g>
<!-- Node13106 -->
<g id="node3" class="node">
<title>Node13106</title>
<g id="a_node3"><a xlink:href="parse_8c.html#ad5c83c39801d48f7bb7af082d599a687" target="_top" xlink:title="Parse a multipart structure. ">
<polygon fill="#ffffff" stroke="#ff0000" points="148,-492.5 148,-511.5 270,-511.5 270,-492.5 148,-492.5"/>
<text text-anchor="middle" x="209" y="-499.5" font-family="Helvetica,sans-Serif" font-size="10.00" fill="#000000">mutt_parse_multipart</text>
</a>
</g>
</g>
<!-- Node13102&#45;&gt;Node13106 -->
<g id="edge2" class="edge">
<title>Node13102&#45;&gt;Node13106</title>
<path fill="none" stroke="#191970" d="M58.2683,-303.9087C65.7044,-334.2455 92.1371,-426.8902 148,-478 152.357,-481.9863 157.4539,-485.3426 162.8119,-488.1606"/>
<polygon fill="#191970" stroke="#191970" points="161.4456,-491.3849 171.9907,-492.411 164.3871,-485.0329 161.4456,-491.3849"/>
</g>
<!-- Node13183 -->
<g id="node4" class="node">
<title>Node13183</title>
<g id="a_node4"><a xlink:href="parameter_8c.html#a0c6d54a87e015a496c8dbecfcd4002c9" target="_top" xlink:title="Find a matching Parameter. ">
<polygon fill="#ffffff" stroke="#000000" points="311,-208.5 311,-227.5 409,-227.5 409,-208.5 311,-208.5"/>
<text text-anchor="middle" x="360" y="-215.5" font-family="Helvetica,sans-Serif" font-size="10.00" fill="#000000">mutt_param_get</text>
</a>
</g>
</g>
<!-- Node13102&#45;&gt;Node13183 -->
<g id="edge3" class="edge">
<title>Node13102&#45;&gt;Node13183</title>
<path fill="none" stroke="#191970" d="M94.194,-284.4515C149.3678,-270.6581 251.3515,-245.1621 311.687,-230.0783"/>
<polygon fill="#191970" stroke="#191970" points="312.8706,-233.3901 321.7231,-227.5692 311.1728,-226.5991 312.8706,-233.3901"/>
</g>
<!-- Node13121 -->
<g id="node5" class="node">
<title>Node13121</title>
<g id="a_node5"><a xlink:href="mutt_2string_8c.html#a29db81d6f5a7dd216cbea75ecf8a5885" target="_top" xlink:title="Compare two strings, ignoring case. ">
<polygon fill="#ffffff" stroke="#ff0000" points="453,-284.5 453,-303.5 546,-303.5 546,-284.5 453,-284.5"/>
<text text-anchor="middle" x="499.5" y="-291.5" font-family="Helvetica,sans-Serif" font-size="10.00" fill="#000000">mutt_istr_equal</text>
</a>
</g>
</g>
<!-- Node13102&#45;&gt;Node13121 -->
<g id="edge5" class="edge">
<title>Node13102&#45;&gt;Node13121</title>
<path fill="none" stroke="#191970" d="M58.2519,-284.4637C65.4881,-256.2569 91.0743,-173.1947 148,-141 195.197,-114.3074 215.9068,-137.2615 270,-141 334.4606,-145.455 359.557,-126.201 414,-161 436.0086,-175.0675 472.5465,-241.7224 489.8481,-275.0024"/>
<polygon fill="#191970" stroke="#191970" points="486.8748,-276.8738 494.5627,-284.1641 493.0991,-273.6708 486.8748,-276.8738"/>
</g>
<!-- Node13108 -->
<g id="node6" class="node">
<title>Node13108</title>
<g id="a_node6"><a xlink:href="mutt_2string_8c.html#acca6786b903b22a5924219f9db96e10d" target="_top" xlink:title="Calculate the length of a string, safely. ">
<polygon fill="#ffffff" stroke="#000000" points="460.5,-447.5 460.5,-466.5 538.5,-466.5 538.5,-447.5 460.5,-447.5"/>
<text text-anchor="middle" x="499.5" y="-454.5" font-family="Helvetica,sans-Serif" font-size="10.00" fill="#000000">mutt_str_len</text>
</a>
</g>
</g>
<!-- Node13102&#45;&gt;Node13108 -->
<g id="edge6" class="edge">
<title>Node13102&#45;&gt;Node13108</title>
<path fill="none" stroke="#191970" d="M59.7981,-303.627C69.927,-327.8696 100.1182,-391.4572 148,-419 243.7178,-474.0592 378.4932,-470.4997 450.1612,-463.5183"/>
<polygon fill="#191970" stroke="#191970" points="450.6797,-466.9834 460.2651,-462.4701 449.9572,-460.0208 450.6797,-466.9834"/>
</g>
<!-- Node13187 -->
<g id="node7" class="node">
<title>Node13187</title>
<g id="a_node7"><a xlink:href="mutt_2string_8c.html#a3d08429dbbe4d2d7a04f57f88dc431be" target="_top" xlink:title="Check for equality of two strings ignoring case (to a maximum), safely. ">
<polygon fill="#ffffff" stroke="#000000" points="450,-395.5 450,-414.5 549,-414.5 549,-395.5 450,-395.5"/>
<text text-anchor="middle" x="499.5" y="-402.5" font-family="Helvetica,sans-Serif" font-size="10.00" fill="#000000">mutt_istrn_equal</text>
</a>
</g>
</g>
<!-- Node13102&#45;&gt;Node13187 -->
<g id="edge7" class="edge">
<title>Node13102&#45;&gt;Node13187</title>
<path fill="none" stroke="#191970" d="M61.5825,-303.7578C74.0009,-324.3723 106.1481,-372.0168 148,-391 242.7582,-433.9805 367.0725,-425.9536 439.6341,-415.7751"/>
<polygon fill="#191970" stroke="#191970" points="440.5674,-419.1758 449.9547,-414.2635 439.553,-412.2497 440.5674,-419.1758"/>
</g>
<!-- Node13851 -->
<g id="node8" class="node">
<title>Node13851</title>
<g id="a_node8"><a xlink:href="handler_8c.html#a09f27e2821153040ea4cad0b9ade6153" target="_top" xlink:title="Should email body be filtered by mailcap. ">
<polygon fill="#ffffff" stroke="#ff0000" points="322.5,-367.5 322.5,-386.5 397.5,-386.5 397.5,-367.5 322.5,-367.5"/>
<text text-anchor="middle" x="360" y="-374.5" font-family="Helvetica,sans-Serif" font-size="10.00" fill="#000000">is_autoview</text>
</a>
</g>
</g>
<!-- Node13102&#45;&gt;Node13851 -->
<g id="edge8" class="edge">
<title>Node13102&#45;&gt;Node13851</title>
<path fill="none" stroke="#191970" d="M63.8874,-303.6283C78.4341,-320.5592 111.3678,-355.1766 148,-369 201.4364,-389.1645 267.9223,-387.8356 312.0419,-383.6533"/>
<polygon fill="#191970" stroke="#191970" points="312.6167,-387.1126 322.2034,-382.602 311.8963,-380.1498 312.6167,-387.1126"/>
</g>
<!-- Node13916 -->
<g id="node9" class="node">
<title>Node13916</title>
<g id="a_node9"><a xlink:href="handler_8c.html#ad8ffd2d9dd15e18644b821ec35c7ce52" target="_top" xlink:title="Will decoding the attachment produce any output. ">
<polygon fill="#ffffff" stroke="#ff0000" points="157.5,-322.5 157.5,-341.5 260.5,-341.5 260.5,-322.5 157.5,-322.5"/>
<text text-anchor="middle" x="209" y="-329.5" font-family="Helvetica,sans-Serif" font-size="10.00" fill="#000000">mutt_can_decode</text>
</a>
</g>
</g>
<!-- Node13102&#45;&gt;Node13916 -->
<g id="edge12" class="edge">
<title>Node13102&#45;&gt;Node13916</title>
<path fill="none" stroke="#191970" d="M94.6084,-303.589C114.7074,-308.5809 139.4751,-314.7324 160.8185,-320.0334"/>
<polygon fill="#191970" stroke="#191970" points="160.1204,-323.4662 170.6693,-322.4799 161.8078,-316.6726 160.1204,-323.4662"/>
</g>
<!-- Node13883 -->
<g id="node10" class="node">
<title>Node13883</title>
<g id="a_node10"><a xlink:href="file_8c.html#a2bafa45ca3c8ce7d96303377d860e2db" target="_top" xlink:title="Copy some content from one file to another. ">
<polygon fill="#ffffff" stroke="#000000" points="148.5,-208.5 148.5,-227.5 269.5,-227.5 269.5,-208.5 148.5,-208.5"/>
<text text-anchor="middle" x="209" y="-215.5" font-family="Helvetica,sans-Serif" font-size="10.00" fill="#000000">mutt_file_copy_bytes</text>
</a>
</g>
</g>
<!-- Node13102&#45;&gt;Node13883 -->
<g id="edge16" class="edge">
<title>Node13102&#45;&gt;Node13883</title>
<path fill="none" stroke="#191970" d="M71.2754,-284.4907C89.2486,-273.5095 120.1742,-255.2581 148,-242 155.9012,-238.2353 164.5604,-234.5666 172.809,-231.2759"/>
<polygon fill="#191970" stroke="#191970" points="174.1867,-234.4955 182.2335,-227.6035 171.6451,-227.9731 174.1867,-234.4955"/>
</g>
<!-- Node13111 -->
<g id="node11" class="node">
<title>Node13111</title>
<g id="a_node11"><a xlink:href="mutt_2string_8c.html#a6b6a50296dd2a31863a43379ef4a343d" target="_top" xlink:title="Compare two strings. ">
<polygon fill="#ffffff" stroke="#ff0000" points="454.5,-170.5 454.5,-189.5 544.5,-189.5 544.5,-170.5 454.5,-170.5"/>
<text text-anchor="middle" x="499.5" y="-177.5" font-family="Helvetica,sans-Serif" font-size="10.00" fill="#000000">mutt_str_equal</text>
</a>
</g>
</g>
<!-- Node13102&#45;&gt;Node13111 -->
<g id="edge17" class="edge">
<title>Node13102&#45;&gt;Node13111</title>
<path fill="none" stroke="#191970" d="M57.7176,-284.3193C63.6823,-253.9787 86.5949,-160.5894 148,-124 249.6462,-63.4322 300.2965,-102.2598 414,-135 436.849,-141.5792 460.6085,-154.6693 477.2647,-165.0428"/>
<polygon fill="#191970" stroke="#191970" points="475.4277,-168.0225 485.7365,-170.4677 479.2026,-162.1275 475.4277,-168.0225"/>
</g>
<!-- Node13958 -->
<g id="node12" class="node">
<title>Node13958</title>
<g id="a_node12"><a xlink:href="handler_8c.html#a65fb47883fc038b1b14a50c8064d5407" target="_top" xlink:title="Print a separator for the Mime part. ">
<polygon fill="#ffffff" stroke="#ff0000" points="165.5,-170.5 165.5,-189.5 252.5,-189.5 252.5,-170.5 165.5,-170.5"/>
<text text-anchor="middle" x="209" y="-177.5" font-family="Helvetica,sans-Serif" font-size="10.00" fill="#000000">print_part_line</text>
</a>
</g>
</g>
<!-- Node13102&#45;&gt;Node13958 -->
<g id="edge18" class="edge">
<title>Node13102&#45;&gt;Node13958</title>
<path fill="none" stroke="#191970" d="M62.6868,-284.3858C76.4496,-265.3034 109.8715,-222.4658 148,-199 151.4096,-196.9016 155.0703,-195.0172 158.8436,-193.3282"/>
<polygon fill="#191970" stroke="#191970" points="160.387,-196.4807 168.3758,-189.5217 157.7909,-189.9799 160.387,-196.4807"/>
</g>
<!-- Node13880 -->
<g id="node13" class="node">
<title>Node13880</title>
<g id="a_node13"><a xlink:href="state_8c.html#a6c4ef22b21b511fab506f66b908dae21" target="_top" xlink:title="Write a unique marker around content. ">
<polygon fill="#ffffff" stroke="#000000" points="306,-170.5 306,-189.5 414,-189.5 414,-170.5 306,-170.5"/>
<text text-anchor="middle" x="360" y="-177.5" font-family="Helvetica,sans-Serif" font-size="10.00" fill="#000000">state_mark_attach</text>
</a>
</g>
</g>
<!-- Node13102&#45;&gt;Node13880 -->
<g id="edge29" class="edge">
<title>Node13102&#45;&gt;Node13880</title>
<path fill="none" stroke="#191970" d="M59.1639,-284.2131C68.1432,-258.288 96.5258,-187.9829 148,-161 205.8429,-130.6786 284.8604,-151.2783 328.2479,-166.9422"/>
<polygon fill="#191970" stroke="#191970" points="327.1191,-170.2568 337.7115,-170.4863 329.5742,-163.7014 327.1191,-170.2568"/>
</g>
<!-- Node13850 -->
<g id="node14" class="node">
<title>Node13850</title>
<g id="a_node14"><a xlink:href="handler_8c.html#adae8bf0eec9bee0bd62f639bbcf8599f" target="_top" xlink:title="Handler for the Body of an email. ">
<polygon fill="#ffffff" stroke="#ff0000" points="153.5,-284.5 153.5,-303.5 264.5,-303.5 264.5,-284.5 153.5,-284.5"/>
<text text-anchor="middle" x="209" y="-291.5" font-family="Helvetica,sans-Serif" font-size="10.00" fill="#000000">mutt_body_handler</text>
</a>
</g>
</g>
<!-- Node13102&#45;&gt;Node13850 -->
<g id="edge22" class="edge">
<title>Node13102&#45;&gt;Node13850</title>
<path fill="none" stroke="#191970" d="M112.1028,-287.4679C122.2091,-287.2472 132.8278,-287.1941 143.1803,-287.3088"/>
<polygon fill="#191970" stroke="#191970" points="143.3583,-290.8122 153.4153,-287.4794 143.475,-283.8131 143.3583,-290.8122"/>
</g>
<!-- Node13261 -->
<g id="node15" class="node">
<title>Node13261</title>
<g id="a_node15"><a xlink:href="email_2body_8c.html#a129af1c316fcbc26b55fb48957bab2cb" target="_top" xlink:title="Free a Body. ">
<polygon fill="#ffffff" stroke="#ff0000" points="162,-.5 162,-19.5 256,-19.5 256,-.5 162,-.5"/>
<text text-anchor="middle" x="209" y="-7.5" font-family="Helvetica,sans-Serif" font-size="10.00" fill="#000000">mutt_body_free</text>
</a>
</g>
</g>
<!-- Node13102&#45;&gt;Node13261 -->
<g id="edge30" class="edge">
<title>Node13102&#45;&gt;Node13261</title>
<path fill="none" stroke="#191970" d="M57.5616,-284.2035C63.5454,-249.2576 87.7721,-128.7195 148,-52 156.6455,-40.9872 168.9727,-31.7442 180.2853,-24.7579"/>
<polygon fill="#191970" stroke="#191970" points="182.1741,-27.7082 189.0506,-19.6482 178.6487,-21.6607 182.1741,-27.7082"/>
</g>
<!-- Node13183&#45;&gt;Node13121 -->
<g id="edge4" class="edge">
<title>Node13183&#45;&gt;Node13121</title>
<path fill="none" stroke="#191970" d="M377.6678,-227.6255C401.7759,-240.7597 445.1703,-264.401 473.134,-279.6358"/>
<polygon fill="#191970" stroke="#191970" points="471.5199,-282.742 481.9757,-284.4527 474.8688,-276.5951 471.5199,-282.742"/>
</g>
<!-- Node13851&#45;&gt;Node13121 -->
<g id="edge11" class="edge">
<title>Node13851&#45;&gt;Node13121</title>
<path fill="none" stroke="#191970" d="M377.0884,-367.3363C387.7427,-361.2751 401.7158,-353.26 414,-346 434.8225,-333.6938 458.2836,-319.3938 475.3552,-308.9079"/>
<polygon fill="#191970" stroke="#191970" points="477.4423,-311.7333 484.1248,-303.5117 473.7738,-305.7715 477.4423,-311.7333"/>
</g>
<!-- Node13851&#45;&gt;Node13108 -->
<g id="edge9" class="edge">
<title>Node13851&#45;&gt;Node13108</title>
<path fill="none" stroke="#191970" d="M376.827,-386.6499C400.9163,-400.4646 445.4368,-425.996 473.7034,-442.2062"/>
<polygon fill="#191970" stroke="#191970" points="472.1974,-445.3773 482.6134,-447.3159 475.6798,-439.3049 472.1974,-445.3773"/>
</g>
<!-- Node13851&#45;&gt;Node13187 -->
<g id="edge10" class="edge">
<title>Node13851&#45;&gt;Node13187</title>
<path fill="none" stroke="#191970" d="M397.7507,-384.5772C411.3218,-387.3012 426.9564,-390.4393 441.8343,-393.4255"/>
<polygon fill="#191970" stroke="#191970" points="441.4856,-396.9253 451.9789,-395.4617 442.8632,-390.0622 441.4856,-396.9253"/>
</g>
<!-- Node13916&#45;&gt;Node13121 -->
<g id="edge14" class="edge">
<title>Node13916&#45;&gt;Node13121</title>
<path fill="none" stroke="#191970" d="M260.8992,-326.5877C302.3922,-322.1007 362.0135,-315.2954 414,-308 423.3969,-306.6813 433.3547,-305.1623 443.0263,-303.6219"/>
<polygon fill="#191970" stroke="#191970" points="443.652,-307.0663 452.9659,-302.0164 442.5357,-300.1559 443.652,-307.0663"/>
</g>
<!-- Node13916&#45;&gt;Node13851 -->
<g id="edge13" class="edge">
<title>Node13916&#45;&gt;Node13851</title>
<path fill="none" stroke="#191970" d="M241.0232,-341.5433C263.5454,-348.2552 293.8976,-357.3006 318.3078,-364.5752"/>
<polygon fill="#191970" stroke="#191970" points="317.4398,-367.9686 328.0229,-367.4704 319.4391,-361.2601 317.4398,-367.9686"/>
</g>
<!-- Node13916&#45;&gt;Node13916 -->
<g id="edge15" class="edge">
<title>Node13916&#45;&gt;Node13916</title>
<path fill="none" stroke="#191970" d="M185.8806,-341.7571C174.6334,-350.5653 182.3398,-360 209,-360 226.4957,-360 235.8288,-355.9368 236.9991,-350.6539"/>
<polygon fill="#191970" stroke="#191970" points="239.9971,-348.8417 232.1194,-341.7571 233.8597,-352.208 239.9971,-348.8417"/>
</g>
<!-- Node13958&#45;&gt;Node13183 -->
<g id="edge21" class="edge">
<title>Node13958&#45;&gt;Node13183</title>
<path fill="none" stroke="#191970" d="M247.1037,-189.589C266.94,-194.5809 291.3839,-200.7324 312.4483,-206.0334"/>
<polygon fill="#191970" stroke="#191970" points="311.6185,-209.4336 322.1703,-208.4799 313.3269,-202.6452 311.6185,-209.4336"/>
</g>
<!-- Node13958&#45;&gt;Node13880 -->
<g id="edge19" class="edge">
<title>Node13958&#45;&gt;Node13880</title>
<path fill="none" stroke="#191970" d="M252.6755,-180C266.0626,-180 281.0836,-180 295.5513,-180"/>
<polygon fill="#191970" stroke="#191970" points="295.957,-183.5001 305.957,-180 295.9569,-176.5001 295.957,-183.5001"/>
</g>
<!-- Node13880&#45;&gt;Node13111 -->
<g id="edge20" class="edge">
<title>Node13880&#45;&gt;Node13111</title>
<path fill="none" stroke="#191970" d="M414.3338,-180C424.0998,-180 434.2903,-180 444.0864,-180"/>
<polygon fill="#191970" stroke="#191970" points="444.118,-183.5001 454.118,-180 444.1179,-176.5001 444.118,-183.5001"/>
</g>
<!-- Node13850&#45;&gt;Node13102 -->
<g id="edge27" class="edge">
<title>Node13850&#45;&gt;Node13102</title>
<path fill="none" stroke="#191970" d="M153.4153,-300.5206C143.3267,-300.7471 132.7124,-300.8059 122.351,-300.6969"/>
<polygon fill="#191970" stroke="#191970" points="122.1578,-297.1935 112.1028,-300.5321 122.0451,-304.1925 122.1578,-297.1935"/>
</g>
<!-- Node13850&#45;&gt;Node13183 -->
<g id="edge25" class="edge">
<title>Node13850&#45;&gt;Node13183</title>
<path fill="none" stroke="#191970" d="M238.333,-284.4021C248.6414,-280.529 260.1122,-275.6344 270,-270 287.6112,-259.9646 288.6106,-252.4151 306,-242 312.1499,-238.3166 318.9657,-234.8559 325.6257,-231.7708"/>
<polygon fill="#191970" stroke="#191970" points="327.4524,-234.7896 335.176,-227.5373 324.6156,-228.3902 327.4524,-234.7896"/>
</g>
<!-- Node13850&#45;&gt;Node13121 -->
<g id="edge24" class="edge">
<title>Node13850&#45;&gt;Node13121</title>
<path fill="none" stroke="#191970" d="M264.6676,-294C315.6848,-294 390.8923,-294 442.3665,-294"/>
<polygon fill="#191970" stroke="#191970" points="442.6516,-297.5001 452.6516,-294 442.6515,-290.5001 442.6516,-297.5001"/>
</g>
<!-- Node13850&#45;&gt;Node13851 -->
<g id="edge23" class="edge">
<title>Node13850&#45;&gt;Node13851</title>
<path fill="none" stroke="#191970" d="M246.1819,-303.524C254.2237,-306.1462 262.5458,-309.3064 270,-313 296.5745,-326.1679 323.8942,-346.7898 341.3558,-361.0498"/>
<polygon fill="#191970" stroke="#191970" points="339.1621,-363.7776 349.0895,-367.4786 343.6368,-358.3946 339.1621,-363.7776"/>
</g>
<!-- Node13850&#45;&gt;Node13111 -->
<g id="edge26" class="edge">
<title>Node13850&#45;&gt;Node13111</title>
<path fill="none" stroke="#191970" d="M260.2762,-284.4656C302.724,-275.4733 363.9602,-259.9251 414,-237 438.1699,-225.9268 463.1733,-208.4301 479.8493,-195.7408"/>
<polygon fill="#191970" stroke="#191970" points="482.0059,-198.4975 487.7622,-189.6028 477.7155,-192.9665 482.0059,-198.4975"/>
</g>
<!-- Node13850&#45;&gt;Node13880 -->
<g id="edge28" class="edge">
<title>Node13850&#45;&gt;Node13880</title>
<path fill="none" stroke="#191970" d="M219.9871,-284.1052C232.3478,-272.8882 252.9285,-253.9547 270,-237 286.5068,-220.6061 286.4814,-211.6593 306,-199 309.1008,-196.9889 312.4402,-195.1612 315.8834,-193.506"/>
<polygon fill="#191970" stroke="#191970" points="317.3453,-196.6873 325.148,-189.52 314.5788,-190.2571 317.3453,-196.6873"/>
</g>
<!-- Node13261&#45;&gt;Node13261 -->
<g id="edge31" class="edge">
<title>Node13261&#45;&gt;Node13261</title>
<path fill="none" stroke="#191970" d="M185.8806,-19.7571C174.6334,-28.5653 182.3398,-38 209,-38 226.4957,-38 235.8288,-33.9368 236.9991,-28.6539"/>
<polygon fill="#191970" stroke="#191970" points="239.9971,-26.8417 232.1194,-19.7571 233.8597,-30.208 239.9971,-26.8417"/>
</g>
</g>
</svg>
