<?xml version="1.0" encoding="UTF-8" standalone="no"?>
<!DOCTYPE svg PUBLIC "-//W3C//DTD SVG 1.1//EN"
 "http://www.w3.org/Graphics/SVG/1.1/DTD/svg11.dtd">
<!-- Generated by graphviz version 2.40.1 (20161225.0304)
 -->
<!-- Title: external_body_handler Pages: 1 -->
<svg width="442pt" height="332pt"
 viewBox="0.00 0.00 442.00 332.00" xmlns="http://www.w3.org/2000/svg" xmlns:xlink="http://www.w3.org/1999/xlink">
<g id="graph0" class="graph" transform="scale(1 1) rotate(0) translate(4 328)">
<title>external_body_handler</title>
<polygon fill="#ffffff" stroke="transparent" points="-4,4 -4,-328 438,-328 438,4 -4,4"/>
<!-- Node10699 -->
<g id="node1" class="node">
<title>Node10699</title>
<polygon fill="#bfbfbf" stroke="#000000" points="0,-152.5 0,-171.5 128,-171.5 128,-152.5 0,-152.5"/>
<text text-anchor="middle" x="64" y="-159.5" font-family="Helvetica,sans-Serif" font-size="10.00" fill="#000000">external_body_handler</text>
</g>
<!-- Node10700 -->
<g id="node2" class="node">
<title>Node10700</title>
<g id="a_node2"><a xlink:href="parameter_8c.html#a0c6d54a87e015a496c8dbecfcd4002c9" target="_top" xlink:title="Find a matching Parameter. ">
<polygon fill="#ffffff" stroke="#000000" points="178,-304.5 178,-323.5 276,-323.5 276,-304.5 178,-304.5"/>
<text text-anchor="middle" x="227" y="-311.5" font-family="Helvetica,sans-Serif" font-size="10.00" fill="#000000">mutt_param_get</text>
</a>
</g>
</g>
<!-- Node10699&#45;&gt;Node10700 -->
<g id="edge1" class="edge">
<title>Node10699&#45;&gt;Node10700</title>
<path fill="none" stroke="#191970" d="M69.1611,-171.8163C82.0482,-195.4384 117.9397,-256.0068 164,-290 169.568,-294.1093 175.9245,-297.6006 182.4084,-300.5402"/>
<polygon fill="#191970" stroke="#191970" points="181.3428,-303.8865 191.9221,-304.4601 184.0095,-297.4144 181.3428,-303.8865"/>
</g>
<!-- Node10701 -->
<g id="node3" class="node">
<title>Node10701</title>
<g id="a_node3"><a xlink:href="mutt_2string_8c.html#a29db81d6f5a7dd216cbea75ecf8a5885" target="_top" xlink:title="Compare two strings, ignoring case. ">
<polygon fill="#ffffff" stroke="#ff0000" points="333.5,-285.5 333.5,-304.5 426.5,-304.5 426.5,-285.5 333.5,-285.5"/>
<text text-anchor="middle" x="380" y="-292.5" font-family="Helvetica,sans-Serif" font-size="10.00" fill="#000000">mutt_istr_equal</text>
</a>
</g>
</g>
<!-- Node10699&#45;&gt;Node10701 -->
<g id="edge5" class="edge">
<title>Node10699&#45;&gt;Node10701</title>
<path fill="none" stroke="#191970" d="M74.2352,-171.6383C91.4467,-187.3435 127.8601,-218.4596 164,-236 215.2085,-260.8539 278.5027,-276.5784 323.304,-285.4859"/>
<polygon fill="#191970" stroke="#191970" points="322.6553,-288.9252 333.1384,-287.391 323.9866,-282.053 322.6553,-288.9252"/>
</g>
<!-- Node10703 -->
<g id="node4" class="node">
<title>Node10703</title>
<g id="a_node4"><a xlink:href="state_8c.html#a6c4ef22b21b511fab506f66b908dae21" target="_top" xlink:title="Write a unique marker around content. ">
<polygon fill="#ffffff" stroke="#ff0000" points="326,-190.5 326,-209.5 434,-209.5 434,-190.5 326,-190.5"/>
<text text-anchor="middle" x="380" y="-197.5" font-family="Helvetica,sans-Serif" font-size="10.00" fill="#000000">state_mark_attach</text>
</a>
</g>
</g>
<!-- Node10699&#45;&gt;Node10703 -->
<g id="edge3" class="edge">
<title>Node10699&#45;&gt;Node10703</title>
<path fill="none" stroke="#191970" d="M76.0141,-171.6521C93.9168,-185.3495 129.2299,-209.7864 164,-219 223.0786,-234.6551 294.0982,-222.8117 338.1514,-212.052"/>
<polygon fill="#191970" stroke="#191970" points="339.1037,-215.4213 347.9368,-209.5708 337.3832,-208.6361 339.1037,-215.4213"/>
</g>
<!-- Node10706 -->
<g id="node5" class="node">
<title>Node10706</title>
<g id="a_node5"><a xlink:href="date_8c.html#ad8aaf5118148ed8f6708f32bfab3146f" target="_top" xlink:title="Parse a date string in RFC822 format. ">
<polygon fill="#ffffff" stroke="#ff0000" points="164,-190.5 164,-209.5 290,-209.5 290,-190.5 164,-190.5"/>
<text text-anchor="middle" x="227" y="-197.5" font-family="Helvetica,sans-Serif" font-size="10.00" fill="#000000">mutt_date_parse_date</text>
</a>
</g>
</g>
<!-- Node10699&#45;&gt;Node10706 -->
<g id="edge4" class="edge">
<title>Node10699&#45;&gt;Node10706</title>
<path fill="none" stroke="#191970" d="M105.1318,-171.589C126.7383,-176.6261 153.409,-182.8438 176.2858,-188.1771"/>
<polygon fill="#191970" stroke="#191970" points="175.6305,-191.6181 186.164,-190.4799 177.2198,-184.8009 175.6305,-191.6181"/>
</g>
<!-- Node10724 -->
<g id="node6" class="node">
<title>Node10724</title>
<g id="a_node6"><a xlink:href="muttlib_8c.html#aad2fd68e85ca1e5f55e3bf1983b16933" target="_top" xlink:title="Display an abbreviated size, like 3.4K. ">
<polygon fill="#ffffff" stroke="#ff0000" points="168.5,-152.5 168.5,-171.5 285.5,-171.5 285.5,-152.5 168.5,-152.5"/>
<text text-anchor="middle" x="227" y="-159.5" font-family="Helvetica,sans-Serif" font-size="10.00" fill="#000000">mutt_str_pretty_size</text>
</a>
</g>
</g>
<!-- Node10699&#45;&gt;Node10724 -->
<g id="edge6" class="edge">
<title>Node10699&#45;&gt;Node10724</title>
<path fill="none" stroke="#191970" d="M128.4219,-162C138.1966,-162 148.3144,-162 158.1782,-162"/>
<polygon fill="#191970" stroke="#191970" points="158.3404,-165.5001 168.3404,-162 158.3403,-158.5001 158.3404,-165.5001"/>
</g>
<!-- Node10726 -->
<g id="node7" class="node">
<title>Node10726</title>
<g id="a_node7"><a xlink:href="state_8c.html#a8d8c6b5b8e9a2427e68fab5f5403cb63" target="_top" xlink:title="Write a string to the state. ">
<polygon fill="#ffffff" stroke="#000000" points="175,-114.5 175,-133.5 279,-133.5 279,-114.5 175,-114.5"/>
<text text-anchor="middle" x="227" y="-121.5" font-family="Helvetica,sans-Serif" font-size="10.00" fill="#000000">state_attach_puts</text>
</a>
</g>
</g>
<!-- Node10699&#45;&gt;Node10726 -->
<g id="edge7" class="edge">
<title>Node10699&#45;&gt;Node10726</title>
<path fill="none" stroke="#191970" d="M105.1318,-152.411C126.7383,-147.3739 153.409,-141.1562 176.2858,-135.8229"/>
<polygon fill="#191970" stroke="#191970" points="177.2198,-139.1991 186.164,-133.5201 175.6305,-132.3819 177.2198,-139.1991"/>
</g>
<!-- Node10727 -->
<g id="node8" class="node">
<title>Node10727</title>
<g id="a_node8"><a xlink:href="state_8c.html#a274bd2d5df990d61848a6be9b18840f7" target="_top" xlink:title="Write a formatted string to the State. ">
<polygon fill="#ffffff" stroke="#ff0000" points="190.5,-76.5 190.5,-95.5 263.5,-95.5 263.5,-76.5 190.5,-76.5"/>
<text text-anchor="middle" x="227" y="-83.5" font-family="Helvetica,sans-Serif" font-size="10.00" fill="#000000">state_printf</text>
</a>
</g>
</g>
<!-- Node10699&#45;&gt;Node10727 -->
<g id="edge9" class="edge">
<title>Node10699&#45;&gt;Node10727</title>
<path fill="none" stroke="#191970" d="M78.3725,-152.4237C97.3336,-140.1195 132.0485,-118.7161 164,-105 169.3128,-102.7193 174.9872,-100.5978 180.6726,-98.6617"/>
<polygon fill="#191970" stroke="#191970" points="181.752,-101.9912 190.1892,-95.583 179.5973,-95.331 181.752,-101.9912"/>
</g>
<!-- Node10730 -->
<g id="node9" class="node">
<title>Node10730</title>
<g id="a_node9"><a xlink:href="copy_8c.html#a52e9f9a52a91efbaeca673868cfc8b93" target="_top" xlink:title="Copy header from one file to another. ">
<polygon fill="#ffffff" stroke="#ff0000" points="182.5,-38.5 182.5,-57.5 271.5,-57.5 271.5,-38.5 182.5,-38.5"/>
<text text-anchor="middle" x="227" y="-45.5" font-family="Helvetica,sans-Serif" font-size="10.00" fill="#000000">mutt_copy_hdr</text>
</a>
</g>
</g>
<!-- Node10699&#45;&gt;Node10730 -->
<g id="edge10" class="edge">
<title>Node10699&#45;&gt;Node10730</title>
<path fill="none" stroke="#191970" d="M71.4503,-152.3846C86.7371,-133.2999 123.6247,-90.4584 164,-67 167.6672,-64.8694 171.5956,-62.9571 175.6325,-61.2447"/>
<polygon fill="#191970" stroke="#191970" points="177.0814,-64.4381 185.1766,-57.6031 174.5859,-57.898 177.0814,-64.4381"/>
</g>
<!-- Node10722 -->
<g id="node10" class="node">
<title>Node10722</title>
<g id="a_node10"><a xlink:href="date_8c.html#a97bacb1574ec0b1c69b6236fbacceccf" target="_top" xlink:title="Return the number of seconds since the Unix epoch. ">
<polygon fill="#ffffff" stroke="#ff0000" points="176.5,-.5 176.5,-19.5 277.5,-19.5 277.5,-.5 176.5,-.5"/>
<text text-anchor="middle" x="227" y="-7.5" font-family="Helvetica,sans-Serif" font-size="10.00" fill="#000000">mutt_date_epoch</text>
</a>
</g>
</g>
<!-- Node10699&#45;&gt;Node10722 -->
<g id="edge11" class="edge">
<title>Node10699&#45;&gt;Node10722</title>
<path fill="none" stroke="#191970" d="M68.5436,-152.3042C80.5275,-127.7943 115.4417,-62.9024 164,-29 166.8496,-27.0105 169.9116,-25.2255 173.0953,-23.6245"/>
<polygon fill="#191970" stroke="#191970" points="174.5613,-26.8035 182.3145,-19.5828 171.7507,-20.3925 174.5613,-26.8035"/>
</g>
<!-- Node10700&#45;&gt;Node10701 -->
<g id="edge2" class="edge">
<title>Node10700&#45;&gt;Node10701</title>
<path fill="none" stroke="#191970" d="M276.2523,-307.8837C291.3009,-306.0149 307.9677,-303.9452 323.4601,-302.0213"/>
<polygon fill="#191970" stroke="#191970" points="323.9501,-305.4874 333.4425,-300.7816 323.0874,-298.5408 323.9501,-305.4874"/>
</g>
<!-- Node10726&#45;&gt;Node10703 -->
<g id="edge8" class="edge">
<title>Node10726&#45;&gt;Node10703</title>
<path fill="none" stroke="#191970" d="M264.5956,-133.5136C273.1124,-136.1671 281.9996,-139.343 290,-143 314.9241,-154.3928 341.1467,-171.6927 358.815,-184.245"/>
<polygon fill="#191970" stroke="#191970" points="357.0671,-187.3 367.2224,-190.3198 361.1668,-181.6262 357.0671,-187.3"/>
</g>
</g>
</svg>
