<?xml version="1.0" encoding="UTF-8" standalone="no"?>
<!DOCTYPE svg PUBLIC "-//W3C//DTD SVG 1.1//EN"
 "http://www.w3.org/Graphics/SVG/1.1/DTD/svg11.dtd">
<!-- Generated by graphviz version 2.44.0 (0)
 -->
<!-- Title: decode_quoted Pages: 1 -->
<svg width="216pt" height="66pt"
 viewBox="0.00 0.00 216.00 66.00" xmlns="http://www.w3.org/2000/svg" xmlns:xlink="http://www.w3.org/1999/xlink">
<g id="graph0" class="graph" transform="scale(1 1) rotate(0) translate(4 62)">
<title>decode_quoted</title>
<polygon fill="white" stroke="transparent" points="-4,4 -4,-62 212,-62 212,4 -4,4"/>
<!-- Node1 -->
<g id="node1" class="node">
<title>Node1</title>
<g id="a_node1"><a xlink:title="Decode an attachment encoded with quoted&#45;printable.">
<polygon fill="#bfbfbf" stroke="black" points="0,-19.5 0,-38.5 83,-38.5 83,-19.5 0,-19.5"/>
<text text-anchor="middle" x="41.5" y="-26.5" font-family="Helvetica" font-size="10.00">decode_quoted</text>
</a>
</g>
</g>
<!-- Node2 -->
<g id="node2" class="node">
<title>Node2</title>
<g id="a_node2"><a xlink:href="handler_8c.html#a5c6c2cd1f11389cb6a7af6e27d79dfc3" target="_top" xlink:title="Convert text and write it to a file.">
<polygon fill="white" stroke="red" points="119,-38.5 119,-57.5 208,-57.5 208,-38.5 119,-38.5"/>
<text text-anchor="middle" x="163.5" y="-45.5" font-family="Helvetica" font-size="10.00">convert_to_state</text>
</a>
</g>
</g>
<!-- Node1&#45;&gt;Node2 -->
<g id="edge1" class="edge">
<title>Node1&#45;&gt;Node2</title>
<path fill="none" stroke="midnightblue" d="M83.13,-35.43C91.34,-36.73 100.09,-38.12 108.67,-39.48"/>
<polygon fill="midnightblue" stroke="midnightblue" points="108.2,-42.95 118.63,-41.05 109.3,-36.03 108.2,-42.95"/>
</g>
<!-- Node6 -->
<g id="node3" class="node">
<title>Node6</title>
<g id="a_node3"><a xlink:href="handler_8c.html#ad9dfa15d279adb0b36f48b69960b73f0" target="_top" xlink:title="Decode a line of quoted&#45;printable text.">
<polygon fill="white" stroke="red" points="121.5,-0.5 121.5,-19.5 205.5,-19.5 205.5,-0.5 121.5,-0.5"/>
<text text-anchor="middle" x="163.5" y="-7.5" font-family="Helvetica" font-size="10.00">qp_decode_line</text>
</a>
</g>
</g>
<!-- Node1&#45;&gt;Node6 -->
<g id="edge2" class="edge">
<title>Node1&#45;&gt;Node6</title>
<path fill="none" stroke="midnightblue" d="M83.13,-22.57C92.11,-21.14 101.75,-19.62 111.11,-18.14"/>
<polygon fill="midnightblue" stroke="midnightblue" points="111.77,-21.58 121.1,-16.56 110.67,-14.66 111.77,-21.58"/>
</g>
</g>
</svg>
