<?xml version="1.0" encoding="UTF-8" standalone="no"?>
<!DOCTYPE svg PUBLIC "-//W3C//DTD SVG 1.1//EN"
 "http://www.w3.org/Graphics/SVG/1.1/DTD/svg11.dtd">
<!-- Generated by graphviz version 2.40.1 (20161225.0304)
 -->
<!-- Title: mutt_hash_delete Pages: 1 -->
<svg width="298pt" height="370pt"
 viewBox="0.00 0.00 298.00 370.00" xmlns="http://www.w3.org/2000/svg" xmlns:xlink="http://www.w3.org/1999/xlink">
<g id="graph0" class="graph" transform="scale(1 1) rotate(0) translate(4 366)">
<title>mutt_hash_delete</title>
<polygon fill="#ffffff" stroke="transparent" points="-4,4 -4,-366 294,-366 294,4 -4,4"/>
<!-- Node2 -->
<g id="node1" class="node">
<title>Node2</title>
<polygon fill="#bfbfbf" stroke="#000000" points="0,-171.5 0,-190.5 104,-190.5 104,-171.5 0,-171.5"/>
<text text-anchor="middle" x="52" y="-178.5" font-family="Helvetica,sans-Serif" font-size="10.00" fill="#000000">mutt_hash_delete</text>
</g>
<!-- Node3 -->
<g id="node2" class="node">
<title>Node3</title>
<g id="a_node2"><a xlink:href="group_8c.html#a3ad7cc65031fa1174d8fddb060095661" target="_top" xlink:title="Remove a Group from the Hash Table. ">
<polygon fill="#ffffff" stroke="#ff0000" points="171.5,-342.5 171.5,-361.5 258.5,-361.5 258.5,-342.5 171.5,-342.5"/>
<text text-anchor="middle" x="215" y="-349.5" font-family="Helvetica,sans-Serif" font-size="10.00" fill="#000000">group_remove</text>
</a>
</g>
</g>
<!-- Node2&#45;&gt;Node3 -->
<g id="edge1" class="edge">
<title>Node2&#45;&gt;Node3</title>
<path fill="none" stroke="#191970" d="M57.6855,-200.2791C68.3055,-232.8248 94.3172,-298.4834 140,-333 149.0023,-339.8019 160.1718,-344.1857 171.117,-347.0059"/>
<polygon fill="#191970" stroke="#191970" points="60.9867,-199.1083 54.6678,-190.6041 54.3042,-201.1927 60.9867,-199.1083"/>
</g>
<!-- Node8 -->
<g id="node3" class="node">
<title>Node8</title>
<g id="a_node3"><a xlink:href="commands_8c.html#a72d3cb8212a486f5f5db50e1f87565fc" target="_top" xlink:title="Get the protected header and update the index. ">
<polygon fill="#ffffff" stroke="#ff0000" points="140,-304.5 140,-323.5 290,-323.5 290,-304.5 140,-304.5"/>
<text text-anchor="middle" x="215" y="-311.5" font-family="Helvetica,sans-Serif" font-size="10.00" fill="#000000">process_protected_headers</text>
</a>
</g>
</g>
<!-- Node2&#45;&gt;Node8 -->
<g id="edge2" class="edge">
<title>Node2&#45;&gt;Node8</title>
<path fill="none" stroke="#191970" d="M61.2953,-199.7389C74.9568,-225.2899 102.9083,-270.6584 140,-295 145.9518,-298.9059 152.6539,-302.0089 159.5404,-304.4741"/>
<polygon fill="#191970" stroke="#191970" points="64.3261,-197.9802 56.6223,-190.7069 58.109,-201.1969 64.3261,-197.9802"/>
</g>
<!-- Node573 -->
<g id="node4" class="node">
<title>Node573</title>
<g id="a_node4"><a xlink:href="reverse_8h.html#adcac6af93dc6927de0a242fb1a75577b" target="_top" xlink:title="Remove an email address lookup for an Alias. ">
<polygon fill="#ffffff" stroke="#ff0000" points="156,-266.5 156,-285.5 274,-285.5 274,-266.5 156,-266.5"/>
<text text-anchor="middle" x="215" y="-273.5" font-family="Helvetica,sans-Serif" font-size="10.00" fill="#000000">alias_reverse_delete</text>
</a>
</g>
</g>
<!-- Node2&#45;&gt;Node573 -->
<g id="edge3" class="edge">
<title>Node2&#45;&gt;Node573</title>
<path fill="none" stroke="#191970" d="M67.2822,-198.2454C83.6096,-215.6132 111.0749,-241.9326 140,-257 147.3859,-260.8474 155.5934,-263.9457 163.7913,-266.432"/>
<polygon fill="#191970" stroke="#191970" points="69.5424,-195.5316 60.204,-190.527 64.3833,-200.2627 69.5424,-195.5316"/>
</g>
<!-- Node577 -->
<g id="node5" class="node">
<title>Node577</title>
<g id="a_node5"><a xlink:href="set_8h.html#afc62808c51333fd2e3acb261a917b65c" target="_top" xlink:title="Remove an inherited config item. ">
<polygon fill="#ffffff" stroke="#ff0000" points="154.5,-228.5 154.5,-247.5 275.5,-247.5 275.5,-228.5 154.5,-228.5"/>
<text text-anchor="middle" x="215" y="-235.5" font-family="Helvetica,sans-Serif" font-size="10.00" fill="#000000">cs_uninherit_variable</text>
</a>
</g>
</g>
<!-- Node2&#45;&gt;Node577 -->
<g id="edge4" class="edge">
<title>Node2&#45;&gt;Node577</title>
<path fill="none" stroke="#191970" d="M80.9157,-194.8739C97.8687,-202.6556 119.8498,-212.1459 140,-219 150.3005,-222.5037 161.5911,-225.6924 172.2142,-228.4146"/>
<polygon fill="#191970" stroke="#191970" points="82.11,-191.5692 71.5669,-190.5225 79.156,-197.9155 82.11,-191.5692"/>
</g>
<!-- Node589 -->
<g id="node6" class="node">
<title>Node589</title>
<g id="a_node6"><a xlink:href="context_8c.html#a92575db3c6672525f1e08a35c6112f07" target="_top" xlink:title="Update a Context structure&#39;s internal tables. ">
<polygon fill="#ffffff" stroke="#ff0000" points="172,-190.5 172,-209.5 258,-209.5 258,-190.5 172,-190.5"/>
<text text-anchor="middle" x="215" y="-197.5" font-family="Helvetica,sans-Serif" font-size="10.00" fill="#000000">update_tables</text>
</a>
</g>
</g>
<!-- Node2&#45;&gt;Node589 -->
<g id="edge5" class="edge">
<title>Node2&#45;&gt;Node589</title>
<path fill="none" stroke="#191970" d="M113.9644,-188.2228C133.2956,-190.4762 154.1849,-192.9111 171.9246,-194.9789"/>
<polygon fill="#191970" stroke="#191970" points="114.3604,-184.7454 104.0224,-187.064 113.5499,-191.6983 114.3604,-184.7454"/>
</g>
<!-- Node590 -->
<g id="node7" class="node">
<title>Node590</title>
<g id="a_node7"><a xlink:href="history_8c.html#a80279e314b487c4cb563c3f7e4779b05" target="_top" xlink:title="Decrease the refcount of a history string. ">
<polygon fill="#ffffff" stroke="#ff0000" points="172,-152.5 172,-171.5 258,-171.5 258,-152.5 172,-152.5"/>
<text text-anchor="middle" x="215" y="-159.5" font-family="Helvetica,sans-Serif" font-size="10.00" fill="#000000">dup_hash_dec</text>
</a>
</g>
</g>
<!-- Node2&#45;&gt;Node590 -->
<g id="edge6" class="edge">
<title>Node2&#45;&gt;Node590</title>
<path fill="none" stroke="#191970" d="M113.9644,-173.7772C133.2956,-171.5238 154.1849,-169.0889 171.9246,-167.0211"/>
<polygon fill="#191970" stroke="#191970" points="113.5499,-170.3017 104.0224,-174.936 114.3604,-177.2546 113.5499,-170.3017"/>
</g>
<!-- Node595 -->
<g id="node8" class="node">
<title>Node595</title>
<g id="a_node8"><a xlink:href="mutt__header_8c.html#adbf8481bef234ff106f38546ebde867b" target="_top" xlink:title="Decrease the refcount of a label. ">
<polygon fill="#ffffff" stroke="#ff0000" points="174,-114.5 174,-133.5 256,-133.5 256,-114.5 174,-114.5"/>
<text text-anchor="middle" x="215" y="-121.5" font-family="Helvetica,sans-Serif" font-size="10.00" fill="#000000">label_ref_dec</text>
</a>
</g>
</g>
<!-- Node2&#45;&gt;Node595 -->
<g id="edge7" class="edge">
<title>Node2&#45;&gt;Node595</title>
<path fill="none" stroke="#191970" d="M80.9157,-167.1261C97.8687,-159.3444 119.8498,-149.8541 140,-143 150.8091,-139.3233 162.7087,-135.9935 173.7829,-133.1856"/>
<polygon fill="#191970" stroke="#191970" points="79.156,-164.0845 71.5669,-171.4775 82.11,-170.4308 79.156,-164.0845"/>
</g>
<!-- Node201 -->
<g id="node9" class="node">
<title>Node201</title>
<g id="a_node9"><a xlink:href="nntp_8c.html#a1782c5df61421b1951f9672b5d78d952" target="_top" xlink:title="Fetch list of all newsgroups from server. ">
<polygon fill="#ffffff" stroke="#ff0000" points="163,-76.5 163,-95.5 267,-95.5 267,-76.5 163,-76.5"/>
<text text-anchor="middle" x="215" y="-83.5" font-family="Helvetica,sans-Serif" font-size="10.00" fill="#000000">nntp_active_fetch</text>
</a>
</g>
</g>
<!-- Node2&#45;&gt;Node201 -->
<g id="edge8" class="edge">
<title>Node2&#45;&gt;Node201</title>
<path fill="none" stroke="#191970" d="M67.2822,-163.7546C83.6096,-146.3868 111.0749,-120.0674 140,-105 147.3859,-101.1526 155.5934,-98.0543 163.7913,-95.568"/>
<polygon fill="#191970" stroke="#191970" points="64.3833,-161.7373 60.204,-171.473 69.5424,-166.4684 64.3833,-161.7373"/>
</g>
<!-- Node299 -->
<g id="node10" class="node">
<title>Node299</title>
<g id="a_node10"><a xlink:href="nntp_8c.html#a8172b84fb247cfce5bba309b89154371" target="_top" xlink:title="Open an email message in a Mailbox &#45; Implements MxOps::msg_open() ">
<polygon fill="#ffffff" stroke="#000000" points="168,-38.5 168,-57.5 262,-57.5 262,-38.5 168,-38.5"/>
<text text-anchor="middle" x="215" y="-45.5" font-family="Helvetica,sans-Serif" font-size="10.00" fill="#000000">nntp_msg_open</text>
</a>
</g>
</g>
<!-- Node2&#45;&gt;Node299 -->
<g id="edge9" class="edge">
<title>Node2&#45;&gt;Node299</title>
<path fill="none" stroke="#191970" d="M61.2953,-162.2611C74.9568,-136.7101 102.9083,-91.3416 140,-67 148.3101,-61.5464 158.0827,-57.6581 167.778,-54.8858"/>
<polygon fill="#191970" stroke="#191970" points="58.109,-160.8031 56.6223,-171.2931 64.3261,-164.0198 58.109,-160.8031"/>
</g>
<!-- Node388 -->
<g id="node11" class="node">
<title>Node388</title>
<g id="a_node11"><a xlink:href="pop_8c.html#a0263abbcf87d283cf024fc87c11097e9" target="_top" xlink:title="Open an email message in a Mailbox &#45; Implements MxOps::msg_open() ">
<polygon fill="#ffffff" stroke="#000000" points="170,-.5 170,-19.5 260,-19.5 260,-.5 170,-.5"/>
<text text-anchor="middle" x="215" y="-7.5" font-family="Helvetica,sans-Serif" font-size="10.00" fill="#000000">pop_msg_open</text>
</a>
</g>
</g>
<!-- Node2&#45;&gt;Node388 -->
<g id="edge10" class="edge">
<title>Node2&#45;&gt;Node388</title>
<path fill="none" stroke="#191970" d="M57.6855,-161.7209C68.3055,-129.1752 94.3172,-63.5166 140,-29 148.6808,-22.4411 159.3767,-18.1306 169.9435,-15.3023"/>
<polygon fill="#191970" stroke="#191970" points="54.3042,-160.8073 54.6678,-171.3959 60.9867,-162.8917 54.3042,-160.8073"/>
</g>
</g>
</svg>
