<?xml version="1.0" encoding="UTF-8" standalone="no"?>
<!DOCTYPE svg PUBLIC "-//W3C//DTD SVG 1.1//EN"
 "http://www.w3.org/Graphics/SVG/1.1/DTD/svg11.dtd">
<!-- Generated by graphviz version 7.1.0 (0)
 -->
<!-- Title: mutt/hash.h Pages: 1 -->
<svg width="208pt" height="137pt"
 viewBox="0.00 0.00 207.81 137.00" xmlns="http://www.w3.org/2000/svg" xmlns:xlink="http://www.w3.org/1999/xlink">
<g id="graph0" class="graph" transform="scale(1 1) rotate(0) translate(4 133)">
<title>mutt/hash.h</title>
<!-- Node1 -->
<g id="node1" class="node">
<title>Node1</title>
<g id="a_node1"><a xlink:title="Hash Table data structure.">
<polygon fill="#999999" stroke="#666666" points="109.31,-129 35.31,-129 35.31,-110 109.31,-110 109.31,-129"/>
<text text-anchor="middle" x="72.31" y="-117" font-family="Helvetica,sans-Serif" font-size="10.00">mutt/hash.h</text>
</a>
</g>
</g>
<!-- Node2 -->
<g id="node2" class="node">
<title>Node2</title>
<g id="a_node2"><a xlink:title=" ">
<polygon fill="#e0e0e0" stroke="#999999" points="109.31,-19 49.31,-19 49.31,0 109.31,0 109.31,-19"/>
<text text-anchor="middle" x="79.31" y="-7" font-family="Helvetica,sans-Serif" font-size="10.00">stdbool.h</text>
</a>
</g>
</g>
<!-- Node1&#45;&gt;Node2 -->
<g id="edge1" class="edge">
<title>Node1&#45;&gt;Node2</title>
<path fill="none" stroke="#63b8ff" d="M48.63,-109.56C23.67,-98.66 -10.3,-78.73 3.31,-55 11.38,-40.91 25.84,-30.85 40,-23.9"/>
<polygon fill="#63b8ff" stroke="#63b8ff" points="41.06,-27.26 48.77,-20 38.21,-20.87 41.06,-27.26"/>
</g>
<!-- Node3 -->
<g id="node3" class="node">
<title>Node3</title>
<g id="a_node3"><a xlink:title=" ">
<polygon fill="#e0e0e0" stroke="#999999" points="64.31,-74 12.31,-74 12.31,-55 64.31,-55 64.31,-74"/>
<text text-anchor="middle" x="38.31" y="-62" font-family="Helvetica,sans-Serif" font-size="10.00">stdint.h</text>
</a>
</g>
</g>
<!-- Node1&#45;&gt;Node3 -->
<g id="edge2" class="edge">
<title>Node1&#45;&gt;Node3</title>
<path fill="none" stroke="#63b8ff" d="M66.69,-109.75C62.19,-102.73 55.72,-92.64 50.09,-83.87"/>
<polygon fill="#63b8ff" stroke="#63b8ff" points="53.21,-82.24 44.86,-75.72 47.31,-86.02 53.21,-82.24"/>
</g>
<!-- Node4 -->
<g id="node4" class="node">
<title>Node4</title>
<g id="a_node4"><a xlink:title=" ">
<polygon fill="#e0e0e0" stroke="#999999" points="132.31,-74 82.31,-74 82.31,-55 132.31,-55 132.31,-74"/>
<text text-anchor="middle" x="107.31" y="-62" font-family="Helvetica,sans-Serif" font-size="10.00">stdlib.h</text>
</a>
</g>
</g>
<!-- Node1&#45;&gt;Node4 -->
<g id="edge3" class="edge">
<title>Node1&#45;&gt;Node4</title>
<path fill="none" stroke="#63b8ff" d="M78.09,-109.75C82.72,-102.73 89.38,-92.64 95.17,-83.87"/>
<polygon fill="#63b8ff" stroke="#63b8ff" points="97.98,-85.98 100.57,-75.71 92.14,-82.12 97.98,-85.98"/>
</g>
<!-- Node5 -->
<g id="node5" class="node">
<title>Node5</title>
<g id="a_node5"><a xlink:href="array_8h.html" target="_top" xlink:title="Linear Array data structure.">
<polygon fill="#fff0f0" stroke="red" points="199.81,-74 150.81,-74 150.81,-55 199.81,-55 199.81,-74"/>
<text text-anchor="middle" x="175.31" y="-62" font-family="Helvetica,sans-Serif" font-size="10.00">array.h</text>
</a>
</g>
</g>
<!-- Node1&#45;&gt;Node5 -->
<g id="edge4" class="edge">
<title>Node1&#45;&gt;Node5</title>
<path fill="none" stroke="#63b8ff" d="M89.78,-109.51C105.71,-101.31 129.5,-89.07 147.95,-79.58"/>
<polygon fill="#63b8ff" stroke="#63b8ff" points="149.46,-82.74 156.75,-75.05 146.25,-76.51 149.46,-82.74"/>
</g>
<!-- Node5&#45;&gt;Node2 -->
<g id="edge5" class="edge">
<title>Node5&#45;&gt;Node2</title>
<path fill="none" stroke="#63b8ff" d="M159.02,-54.51C144.31,-46.39 122.42,-34.3 105.29,-24.85"/>
<polygon fill="#63b8ff" stroke="#63b8ff" points="107.12,-21.86 96.68,-20.09 103.74,-27.99 107.12,-21.86"/>
</g>
</g>
</svg>
