<?xml version="1.0" encoding="UTF-8" standalone="no"?>
<!DOCTYPE svg PUBLIC "-//W3C//DTD SVG 1.1//EN"
 "http://www.w3.org/Graphics/SVG/1.1/DTD/svg11.dtd">
<!-- Generated by graphviz version 2.40.1 (20161225.0304)
 -->
<!-- Title: mutt_hash_int_delete Pages: 1 -->
<svg width="300pt" height="78pt"
 viewBox="0.00 0.00 300.00 77.50" xmlns="http://www.w3.org/2000/svg" xmlns:xlink="http://www.w3.org/1999/xlink">
<g id="graph0" class="graph" transform="scale(1 1) rotate(0) translate(4 73.5)">
<title>mutt_hash_int_delete</title>
<polygon fill="#ffffff" stroke="transparent" points="-4,4 -4,-73.5 296,-73.5 296,4 -4,4"/>
<!-- Node12926 -->
<g id="node1" class="node">
<title>Node12926</title>
<polygon fill="#bfbfbf" stroke="#000000" points="0,-28 0,-47 122,-47 122,-28 0,-28"/>
<text text-anchor="middle" x="61" y="-35" font-family="Helvetica,sans-Serif" font-size="10.00" fill="#000000">mutt_hash_int_delete</text>
</g>
<!-- Node12927 -->
<g id="node2" class="node">
<title>Node12927</title>
<g id="a_node2"><a xlink:href="imap_2private_8h.html#aa526e62e5ec404f052c82e72f8a942b8" target="_top" xlink:title="Purge messages from the server. ">
<polygon fill="#ffffff" stroke="#ff0000" points="158,-50 158,-69 292,-69 292,-50 158,-50"/>
<text text-anchor="middle" x="225" y="-57" font-family="Helvetica,sans-Serif" font-size="10.00" fill="#000000">imap_expunge_mailbox</text>
</a>
</g>
</g>
<!-- Node12926&#45;&gt;Node12927 -->
<g id="edge1" class="edge">
<title>Node12926&#45;&gt;Node12927</title>
<path fill="none" stroke="#191970" d="M132.0236,-47.0276C140.5879,-48.1764 149.3149,-49.3471 157.8217,-50.4883"/>
<polygon fill="#191970" stroke="#191970" points="132.4441,-43.5527 122.0675,-45.692 131.5134,-50.4906 132.4441,-43.5527"/>
</g>
<!-- Node13437 -->
<g id="node3" class="node">
<title>Node13437</title>
<g id="a_node3"><a xlink:href="mutt__hash__int__delete_8c.html#ad5c8e7b3e888244650d7f3ee77a0c4f2" target="_top" xlink:title="test_mutt_hash_int\l_delete">
<polygon fill="#ffffff" stroke="#000000" points="170,-.5 170,-30.5 280,-30.5 280,-.5 170,-.5"/>
<text text-anchor="start" x="178" y="-18.5" font-family="Helvetica,sans-Serif" font-size="10.00" fill="#000000">test_mutt_hash_int</text>
<text text-anchor="middle" x="225" y="-7.5" font-family="Helvetica,sans-Serif" font-size="10.00" fill="#000000">_delete</text>
</a>
</g>
</g>
<!-- Node12926&#45;&gt;Node13437 -->
<g id="edge2" class="edge">
<title>Node12926&#45;&gt;Node13437</title>
<path fill="none" stroke="#191970" d="M132.1022,-27.9619C144.7377,-26.2669 157.7247,-24.5247 169.8342,-22.9003"/>
<polygon fill="#191970" stroke="#191970" points="131.5134,-24.5094 122.0675,-29.308 132.4441,-31.4473 131.5134,-24.5094"/>
</g>
</g>
</svg>
