<?xml version="1.0" encoding="UTF-8" standalone="no"?>
<!DOCTYPE svg PUBLIC "-//W3C//DTD SVG 1.1//EN"
 "http://www.w3.org/Graphics/SVG/1.1/DTD/svg11.dtd">
<!-- Generated by graphviz version 7.1.0 (0)
 -->
<!-- Title: add_index_color Pages: 1 -->
<svg width="230pt" height="45pt"
 viewBox="0.00 0.00 230.00 45.00" xmlns="http://www.w3.org/2000/svg" xmlns:xlink="http://www.w3.org/1999/xlink">
<g id="graph0" class="graph" transform="scale(1 1) rotate(0) translate(4 41)">
<title>add_index_color</title>
<!-- Node1 -->
<g id="node1" class="node">
<title>Node1</title>
<g id="a_node1"><a xlink:title="Insert a color marker into a string.">
<polygon fill="#999999" stroke="#666666" points="222,-19 131,-19 131,0 222,0 222,-19"/>
<text text-anchor="middle" x="176.5" y="-7" font-family="Helvetica,sans-Serif" font-size="10.00">add_index_color</text>
</a>
</g>
</g>
<!-- Node2 -->
<g id="node2" class="node">
<title>Node2</title>
<g id="a_node2"><a xlink:href="group__expando__api.html#ga9dfc719f961c9cb9dc212d10ea8123ab" target="_top" xlink:title="Format a string for the index list &#45; Implements format_t &#45;.">
<polygon fill="#fff0f0" stroke="red" points="95,-19 0,-19 0,0 95,0 95,-19"/>
<text text-anchor="middle" x="47.5" y="-7" font-family="Helvetica,sans-Serif" font-size="10.00">index_format_str</text>
</a>
</g>
</g>
<!-- Node1&#45;&gt;Node2 -->
<g id="edge1" class="edge">
<title>Node1&#45;&gt;Node2</title>
<path fill="none" stroke="#63b8ff" d="M119.25,-9.5C111.3,-9.5 103.2,-9.5 95.45,-9.5"/>
<polygon fill="#63b8ff" stroke="#63b8ff" points="119.21,-13 129.21,-9.5 119.21,-6 119.21,-13"/>
</g>
<!-- Node2&#45;&gt;Node2 -->
<g id="edge2" class="edge">
<title>Node2&#45;&gt;Node2</title>
<path fill="none" stroke="#63b8ff" d="M70.4,-30.43C67.53,-34.29 59.9,-37 47.5,-37 24.82,-37 18.09,-27.94 27.3,-19.37"/>
<polygon fill="#63b8ff" stroke="#63b8ff" points="73.83,-29.72 68.05,-20.84 67.03,-31.38 73.83,-29.72"/>
</g>
</g>
</svg>
