<?xml version="1.0" encoding="UTF-8" standalone="no"?>
<!DOCTYPE svg PUBLIC "-//W3C//DTD SVG 1.1//EN"
 "http://www.w3.org/Graphics/SVG/1.1/DTD/svg11.dtd">
<!-- Generated by graphviz version 12.2.1 (20241206.2353)
 -->
<!-- Title: send/header.h Pages: 1 -->
<svg width="170pt" height="147pt"
 viewBox="0.00 0.00 169.75 146.75" xmlns="http://www.w3.org/2000/svg" xmlns:xlink="http://www.w3.org/1999/xlink">
<g id="graph0" class="graph" transform="scale(1 1) rotate(0) translate(4 142.75)">
<title>send/header.h</title>
<!-- Node1 -->
<g id="Node000001" class="node">
<title>Node1</title>
<g id="a_Node000001"><a xlink:title="Convenience wrapper for the send headers.">
<polygon fill="#999999" stroke="#666666" points="129.12,-138.75 46.38,-138.75 46.38,-116.5 129.12,-116.5 129.12,-138.75"/>
<text text-anchor="middle" x="87.75" y="-125.25" font-family="Helvetica,sans-Serif" font-size="10.00">send/header.h</text>
</a>
</g>
</g>
<!-- Node2 -->
<g id="Node000002" class="node">
<title>Node2</title>
<g id="a_Node000002"><a xlink:title=" ">
<polygon fill="#e0e0e0" stroke="#999999" points="59.5,-80.5 0,-80.5 0,-58.25 59.5,-58.25 59.5,-80.5"/>
<text text-anchor="middle" x="29.75" y="-67" font-family="Helvetica,sans-Serif" font-size="10.00">stdbool.h</text>
</a>
</g>
</g>
<!-- Node1&#45;&gt;Node2 -->
<g id="edge1_Node000001_Node000002" class="edge">
<title>Node1&#45;&gt;Node2</title>
<g id="a_edge1_Node000001_Node000002"><a xlink:title=" ">
<path fill="none" stroke="#63b8ff" d="M76.84,-116.04C68.9,-108.35 57.95,-97.72 48.61,-88.66"/>
<polygon fill="#63b8ff" stroke="#63b8ff" points="51.31,-86.41 41.7,-81.96 46.44,-91.44 51.31,-86.41"/>
</a>
</g>
</g>
<!-- Node3 -->
<g id="Node000003" class="node">
<title>Node3</title>
<g id="a_Node000003"><a xlink:title=" ">
<polygon fill="#e0e0e0" stroke="#999999" points="136.5,-22.25 89,-22.25 89,0 136.5,0 136.5,-22.25"/>
<text text-anchor="middle" x="112.75" y="-8.75" font-family="Helvetica,sans-Serif" font-size="10.00">stdio.h</text>
</a>
</g>
</g>
<!-- Node1&#45;&gt;Node3 -->
<g id="edge2_Node000001_Node000003" class="edge">
<title>Node1&#45;&gt;Node3</title>
<g id="a_edge2_Node000001_Node000003"><a xlink:title=" ">
<path fill="none" stroke="#63b8ff" d="M90.06,-116.06C94.13,-97.4 102.68,-58.26 108.04,-33.7"/>
<polygon fill="#63b8ff" stroke="#63b8ff" points="111.41,-34.66 110.13,-24.14 104.57,-33.17 111.41,-34.66"/>
</a>
</g>
</g>
<!-- Node4 -->
<g id="Node000004" class="node">
<title>Node4</title>
<g id="a_Node000004"><a xlink:href="copy_8h.html" target="_top" xlink:title="Duplicate the structure of an entire email.">
<polygon fill="#fff0f0" stroke="red" points="161.75,-80.5 115.75,-80.5 115.75,-58.25 161.75,-58.25 161.75,-80.5"/>
<text text-anchor="middle" x="138.75" y="-67" font-family="Helvetica,sans-Serif" font-size="10.00">copy.h</text>
</a>
</g>
</g>
<!-- Node1&#45;&gt;Node4 -->
<g id="edge3_Node000001_Node000004" class="edge">
<title>Node1&#45;&gt;Node4</title>
<g id="a_edge3_Node000001_Node000004"><a xlink:title=" ">
<path fill="none" stroke="#63b8ff" d="M97.34,-116.04C104.18,-108.5 113.56,-98.16 121.66,-89.22"/>
<polygon fill="#63b8ff" stroke="#63b8ff" points="124.06,-91.79 128.18,-82.03 118.87,-87.09 124.06,-91.79"/>
</a>
</g>
</g>
<!-- Node4&#45;&gt;Node3 -->
<g id="edge4_Node000004_Node000003" class="edge">
<title>Node4&#45;&gt;Node3</title>
<g id="a_edge4_Node000004_Node000003"><a xlink:title=" ">
<path fill="none" stroke="#63b8ff" d="M133.86,-57.79C130.63,-50.8 126.28,-41.4 122.37,-32.95"/>
<polygon fill="#63b8ff" stroke="#63b8ff" points="125.63,-31.64 118.25,-24.03 119.27,-34.58 125.63,-31.64"/>
</a>
</g>
</g>
</g>
</svg>
