<?xml version="1.0" encoding="UTF-8" standalone="no"?>
<!DOCTYPE svg PUBLIC "-//W3C//DTD SVG 1.1//EN"
 "http://www.w3.org/Graphics/SVG/1.1/DTD/svg11.dtd">
<!-- Generated by graphviz version 7.1.0 (0)
 -->
<!-- Title: helpbar/helpbar.c Pages: 1 -->
<svg width="664pt" height="247pt"
 viewBox="0.00 0.00 663.73 247.00" xmlns="http://www.w3.org/2000/svg" xmlns:xlink="http://www.w3.org/1999/xlink">
<g id="graph0" class="graph" transform="scale(1 1) rotate(0) translate(4 243)">
<title>helpbar/helpbar.c</title>
<!-- Node1 -->
<g id="node1" class="node">
<title>Node1</title>
<g id="a_node1"><a xlink:title="Help Bar.">
<polygon fill="#999999" stroke="#666666" points="371.23,-239 273.23,-239 273.23,-220 371.23,-220 371.23,-239"/>
<text text-anchor="middle" x="322.23" y="-227" font-family="Helvetica,sans-Serif" font-size="10.00">helpbar/helpbar.c</text>
</a>
</g>
</g>
<!-- Node2 -->
<g id="node2" class="node">
<title>Node2</title>
<g id="a_node2"><a xlink:title=" ">
<polygon fill="#e0e0e0" stroke="#999999" points="107.23,-19 53.23,-19 53.23,0 107.23,0 107.23,-19"/>
<text text-anchor="middle" x="80.23" y="-7" font-family="Helvetica,sans-Serif" font-size="10.00">config.h</text>
</a>
</g>
</g>
<!-- Node1&#45;&gt;Node2 -->
<g id="edge1" class="edge">
<title>Node1&#45;&gt;Node2</title>
<path fill="none" stroke="#63b8ff" d="M272.82,-223.49C212.82,-216.68 115.87,-203.12 85.23,-184 28.97,-148.89 -21.69,-113.13 10.23,-55 17.75,-41.32 31.44,-31.25 44.74,-24.18"/>
<polygon fill="#63b8ff" stroke="#63b8ff" points="45.88,-27.52 53.36,-20.01 42.84,-21.21 45.88,-27.52"/>
</g>
<!-- Node3 -->
<g id="node3" class="node">
<title>Node3</title>
<g id="a_node3"><a xlink:title=" ">
<polygon fill="#e0e0e0" stroke="#999999" points="309.23,-74 249.23,-74 249.23,-55 309.23,-55 309.23,-74"/>
<text text-anchor="middle" x="279.23" y="-62" font-family="Helvetica,sans-Serif" font-size="10.00">stdbool.h</text>
</a>
</g>
</g>
<!-- Node1&#45;&gt;Node3 -->
<g id="edge2" class="edge">
<title>Node1&#45;&gt;Node3</title>
<path fill="none" stroke="#63b8ff" d="M322.54,-219.56C322.95,-199.37 322.34,-148.95 308.23,-110 304.82,-100.6 299.1,-91.17 293.63,-83.43"/>
<polygon fill="#63b8ff" stroke="#63b8ff" points="296.53,-81.47 287.72,-75.58 290.94,-85.68 296.53,-81.47"/>
</g>
<!-- Node4 -->
<g id="node4" class="node">
<title>Node4</title>
<g id="a_node4"><a xlink:href="helpbar_2private_8h.html" target="_top" xlink:title="Shared constants/structs that are private to the Help Bar.">
<polygon fill="white" stroke="#666666" points="447.73,-184 388.73,-184 388.73,-165 447.73,-165 447.73,-184"/>
<text text-anchor="middle" x="418.23" y="-172" font-family="Helvetica,sans-Serif" font-size="10.00">private.h</text>
</a>
</g>
</g>
<!-- Node1&#45;&gt;Node4 -->
<g id="edge3" class="edge">
<title>Node1&#45;&gt;Node4</title>
<path fill="none" stroke="#63b8ff" d="M338.52,-219.51C353.22,-211.39 375.12,-199.3 392.25,-189.85"/>
<polygon fill="#63b8ff" stroke="#63b8ff" points="393.8,-192.99 400.86,-185.09 390.42,-186.86 393.8,-192.99"/>
</g>
<!-- Node5 -->
<g id="node5" class="node">
<title>Node5</title>
<g id="a_node5"><a xlink:href="mutt_2lib_8h.html" target="_top" xlink:title="Convenience wrapper for the library headers.">
<polygon fill="#fff0f0" stroke="red" points="81.23,-74 19.23,-74 19.23,-55 81.23,-55 81.23,-74"/>
<text text-anchor="middle" x="50.23" y="-62" font-family="Helvetica,sans-Serif" font-size="10.00">mutt/lib.h</text>
</a>
</g>
</g>
<!-- Node1&#45;&gt;Node5 -->
<g id="edge4" class="edge">
<title>Node1&#45;&gt;Node5</title>
<path fill="none" stroke="#63b8ff" d="M272.83,-222.09C233.71,-215.79 178.33,-204.12 133.23,-184 94.16,-166.57 75.22,-166.28 54.23,-129 46.84,-115.87 46.19,-98.7 47.2,-85.53"/>
<polygon fill="#63b8ff" stroke="#63b8ff" points="50.64,-86.23 48.32,-75.89 43.69,-85.41 50.64,-86.23"/>
</g>
<!-- Node55 -->
<g id="node6" class="node">
<title>Node55</title>
<g id="a_node6"><a xlink:href="config_2lib_8h.html" target="_top" xlink:title="Convenience wrapper for the config headers.">
<polygon fill="#fff0f0" stroke="red" points="423.23,-129 355.23,-129 355.23,-110 423.23,-110 423.23,-129"/>
<text text-anchor="middle" x="389.23" y="-117" font-family="Helvetica,sans-Serif" font-size="10.00">config/lib.h</text>
</a>
</g>
</g>
<!-- Node1&#45;&gt;Node55 -->
<g id="edge6" class="edge">
<title>Node1&#45;&gt;Node55</title>
<path fill="none" stroke="#63b8ff" d="M327.71,-219.66C338.61,-202.1 363.19,-162.48 377.76,-138.98"/>
<polygon fill="#63b8ff" stroke="#63b8ff" points="380.58,-141.09 382.88,-130.75 374.63,-137.4 380.58,-141.09"/>
</g>
<!-- Node70 -->
<g id="node7" class="node">
<title>Node70</title>
<g id="a_node7"><a xlink:href="core_2lib_8h.html" target="_top" xlink:title="Convenience wrapper for the core headers.">
<polygon fill="#fff0f0" stroke="red" points="299.23,-129 239.23,-129 239.23,-110 299.23,-110 299.23,-129"/>
<text text-anchor="middle" x="269.23" y="-117" font-family="Helvetica,sans-Serif" font-size="10.00">core/lib.h</text>
</a>
</g>
</g>
<!-- Node1&#45;&gt;Node70 -->
<g id="edge8" class="edge">
<title>Node1&#45;&gt;Node70</title>
<path fill="none" stroke="#63b8ff" d="M317.89,-219.66C309.35,-202.26 290.18,-163.19 278.62,-139.62"/>
<polygon fill="#63b8ff" stroke="#63b8ff" points="281.84,-138.25 274.3,-130.82 275.56,-141.34 281.84,-138.25"/>
</g>
<!-- Node80 -->
<g id="node8" class="node">
<title>Node80</title>
<g id="a_node8"><a xlink:href="gui_2lib_8h.html" target="_top" xlink:title="Convenience wrapper for the gui headers.">
<polygon fill="#fff0f0" stroke="red" points="520.23,-184 466.23,-184 466.23,-165 520.23,-165 520.23,-184"/>
<text text-anchor="middle" x="493.23" y="-172" font-family="Helvetica,sans-Serif" font-size="10.00">gui/lib.h</text>
</a>
</g>
</g>
<!-- Node1&#45;&gt;Node80 -->
<g id="edge9" class="edge">
<title>Node1&#45;&gt;Node80</title>
<path fill="none" stroke="#63b8ff" d="M351.24,-219.51C379.75,-210.67 423.44,-197.13 454.83,-187.4"/>
<polygon fill="#63b8ff" stroke="#63b8ff" points="455.82,-190.76 464.34,-184.46 453.75,-184.07 455.82,-190.76"/>
</g>
<!-- Node116 -->
<g id="node9" class="node">
<title>Node116</title>
<g id="a_node9"><a xlink:href="helpbar_2lib_8h.html" target="_top" xlink:title="Help Bar Convenience wrapper for the Help Bar headers.">
<polygon fill="white" stroke="#666666" points="574.23,-184 538.23,-184 538.23,-165 574.23,-165 574.23,-184"/>
<text text-anchor="middle" x="556.23" y="-172" font-family="Helvetica,sans-Serif" font-size="10.00">lib.h</text>
</a>
</g>
</g>
<!-- Node1&#45;&gt;Node116 -->
<g id="edge10" class="edge">
<title>Node1&#45;&gt;Node116</title>
<path fill="none" stroke="#63b8ff" d="M370.22,-219.5C409.9,-211.77 467.92,-199.78 526.97,-184.4"/>
<polygon fill="#63b8ff" stroke="#63b8ff" points="527.76,-187.81 536.54,-181.88 525.97,-181.05 527.76,-187.81"/>
</g>
<!-- Node91 -->
<g id="node10" class="node">
<title>Node91</title>
<g id="a_node10"><a xlink:href="color_2lib_8h.html" target="_top" xlink:title="Color and attribute parsing.">
<polygon fill="#fff0f0" stroke="red" points="655.73,-184 592.73,-184 592.73,-165 655.73,-165 655.73,-184"/>
<text text-anchor="middle" x="624.23" y="-172" font-family="Helvetica,sans-Serif" font-size="10.00">color/lib.h</text>
</a>
</g>
</g>
<!-- Node1&#45;&gt;Node91 -->
<g id="edge11" class="edge">
<title>Node1&#45;&gt;Node91</title>
<path fill="none" stroke="#63b8ff" d="M371.39,-220.65C421.57,-212.52 501.98,-199.17 581.29,-184.31"/>
<polygon fill="#63b8ff" stroke="#63b8ff" points="581.8,-187.77 590.98,-182.48 580.51,-180.89 581.8,-187.77"/>
</g>
<!-- Node83 -->
<g id="node11" class="node">
<title>Node83</title>
<g id="a_node11"><a xlink:href="key_2lib_8h.html" target="_top" xlink:title="Manage keymappings.">
<polygon fill="#fff0f0" stroke="red" points="220.23,-184 164.23,-184 164.23,-165 220.23,-165 220.23,-184"/>
<text text-anchor="middle" x="192.23" y="-172" font-family="Helvetica,sans-Serif" font-size="10.00">key/lib.h</text>
</a>
</g>
</g>
<!-- Node1&#45;&gt;Node83 -->
<g id="edge12" class="edge">
<title>Node1&#45;&gt;Node83</title>
<path fill="none" stroke="#63b8ff" d="M300.18,-219.51C279.42,-211.04 248.07,-198.27 224.5,-188.66"/>
<polygon fill="#63b8ff" stroke="#63b8ff" points="225.94,-185.46 215.36,-184.93 223.3,-191.95 225.94,-185.46"/>
</g>
<!-- Node84 -->
<g id="node12" class="node">
<title>Node84</title>
<g id="a_node12"><a xlink:href="menu_2lib_8h.html" target="_top" xlink:title="GUI present the user with a selectable list.">
<polygon fill="#fff0f0" stroke="red" points="144.73,-129 77.73,-129 77.73,-110 144.73,-110 144.73,-129"/>
<text text-anchor="middle" x="111.23" y="-117" font-family="Helvetica,sans-Serif" font-size="10.00">menu/lib.h</text>
</a>
</g>
</g>
<!-- Node1&#45;&gt;Node84 -->
<g id="edge21" class="edge">
<title>Node1&#45;&gt;Node84</title>
<path fill="none" stroke="#63b8ff" d="M272.74,-224.41C237.32,-219.43 189.97,-208.41 155.23,-184 139.3,-172.8 127.29,-153.88 119.87,-139.6"/>
<polygon fill="#63b8ff" stroke="#63b8ff" points="123.09,-138.21 115.58,-130.74 116.79,-141.26 123.09,-138.21"/>
</g>
<!-- Node5&#45;&gt;Node2 -->
<g id="edge5" class="edge">
<title>Node5&#45;&gt;Node2</title>
<path fill="none" stroke="#63b8ff" d="M55.19,-54.75C59.07,-47.88 64.62,-38.08 69.51,-29.45"/>
<polygon fill="#63b8ff" stroke="#63b8ff" points="72.54,-31.19 74.42,-20.76 66.45,-27.74 72.54,-31.19"/>
</g>
<!-- Node55&#45;&gt;Node3 -->
<g id="edge7" class="edge">
<title>Node55&#45;&gt;Node3</title>
<path fill="none" stroke="#63b8ff" d="M370.57,-109.51C353.4,-101.24 327.68,-88.84 307.9,-79.31"/>
<polygon fill="#63b8ff" stroke="#63b8ff" points="309.51,-76.2 298.98,-75.01 306.47,-82.51 309.51,-76.2"/>
</g>
<!-- Node83&#45;&gt;Node2 -->
<g id="edge13" class="edge">
<title>Node83&#45;&gt;Node2</title>
<path fill="none" stroke="#63b8ff" d="M187.15,-164.73C179.92,-152.35 166.08,-129.11 153.23,-110 133.59,-80.78 109.08,-48.07 94.05,-28.39"/>
<polygon fill="#63b8ff" stroke="#63b8ff" points="96.92,-26.38 88.05,-20.58 91.36,-30.64 96.92,-26.38"/>
</g>
<!-- Node83&#45;&gt;Node3 -->
<g id="edge14" class="edge">
<title>Node83&#45;&gt;Node3</title>
<path fill="none" stroke="#63b8ff" d="M196.42,-164.76C202.74,-152.01 215.58,-127.89 230.23,-110 238.75,-99.6 249.72,-89.41 259.12,-81.41"/>
<polygon fill="#63b8ff" stroke="#63b8ff" points="261.19,-84.24 266.68,-75.18 256.73,-78.84 261.19,-84.24"/>
</g>
<!-- Node83&#45;&gt;Node5 -->
<g id="edge15" class="edge">
<title>Node83&#45;&gt;Node5</title>
<path fill="none" stroke="#63b8ff" d="M163.8,-170.74C135.67,-166.51 93.29,-155.83 68.23,-129 57.21,-117.2 52.87,-99.16 51.19,-85.32"/>
<polygon fill="#63b8ff" stroke="#63b8ff" points="54.7,-85.28 50.41,-75.6 47.73,-85.84 54.7,-85.28"/>
</g>
<!-- Node83&#45;&gt;Node70 -->
<g id="edge16" class="edge">
<title>Node83&#45;&gt;Node70</title>
<path fill="none" stroke="#63b8ff" d="M205.29,-164.51C216.76,-156.62 233.67,-144.98 247.22,-135.65"/>
<polygon fill="#63b8ff" stroke="#63b8ff" points="248.86,-138.77 255.12,-130.22 244.89,-133 248.86,-138.77"/>
</g>
<!-- Node83&#45;&gt;Node84 -->
<g id="edge17" class="edge">
<title>Node83&#45;&gt;Node84</title>
<path fill="none" stroke="#63b8ff" d="M178.49,-164.51C166.43,-156.62 148.65,-144.98 134.39,-135.65"/>
<polygon fill="#63b8ff" stroke="#63b8ff" points="136.32,-132.73 126.04,-130.19 132.49,-138.59 136.32,-132.73"/>
</g>
<!-- Node84&#45;&gt;Node2 -->
<g id="edge18" class="edge">
<title>Node84&#45;&gt;Node2</title>
<path fill="none" stroke="#63b8ff" d="M108.7,-109.66C103.74,-92.42 92.69,-53.9 85.91,-30.27"/>
<polygon fill="#63b8ff" stroke="#63b8ff" points="89.34,-29.56 83.22,-20.92 82.62,-31.49 89.34,-29.56"/>
</g>
<!-- Node84&#45;&gt;Node3 -->
<g id="edge19" class="edge">
<title>Node84&#45;&gt;Node3</title>
<path fill="none" stroke="#63b8ff" d="M139.73,-109.51C167.33,-100.8 209.39,-87.53 240.12,-77.84"/>
<polygon fill="#63b8ff" stroke="#63b8ff" points="240.95,-81.25 249.43,-74.9 238.84,-74.57 240.95,-81.25"/>
</g>
<!-- Node84&#45;&gt;Node5 -->
<g id="edge20" class="edge">
<title>Node84&#45;&gt;Node5</title>
<path fill="none" stroke="#63b8ff" d="M100.88,-109.51C92.16,-101.93 79.44,-90.88 68.94,-81.75"/>
<polygon fill="#63b8ff" stroke="#63b8ff" points="71.41,-79.27 61.57,-75.35 66.82,-84.55 71.41,-79.27"/>
</g>
</g>
</svg>
