<?xml version="1.0" encoding="UTF-8" standalone="no"?>
<!DOCTYPE svg PUBLIC "-//W3C//DTD SVG 1.1//EN"
 "http://www.w3.org/Graphics/SVG/1.1/DTD/svg11.dtd">
<!-- Generated by graphviz version 2.40.1 (20161225.0304)
 -->
<!-- Title: mutt_hist_add Pages: 1 -->
<svg width="255pt" height="66pt"
 viewBox="0.00 0.00 255.00 66.00" xmlns="http://www.w3.org/2000/svg" xmlns:xlink="http://www.w3.org/1999/xlink">
<g id="graph0" class="graph" transform="scale(1 1) rotate(0) translate(4 62)">
<title>mutt_hist_add</title>
<polygon fill="#ffffff" stroke="transparent" points="-4,4 -4,-62 251,-62 251,4 -4,4"/>
<!-- Node78 -->
<g id="node1" class="node">
<title>Node78</title>
<polygon fill="#bfbfbf" stroke="#000000" points="0,-19.5 0,-38.5 86,-38.5 86,-19.5 0,-19.5"/>
<text text-anchor="middle" x="43" y="-26.5" font-family="Helvetica,sans-Serif" font-size="10.00" fill="#000000">mutt_hist_add</text>
</g>
<!-- Node79 -->
<g id="node2" class="node">
<title>Node79</title>
<g id="a_node2"><a xlink:href="protos_8h.html#ae45373a28b592394bdea7a2a4d9f0a5f" target="_top" xlink:title="Ask the user for a string. ">
<polygon fill="#ffffff" stroke="#ff0000" points="122,-38.5 122,-57.5 247,-57.5 247,-38.5 122,-38.5"/>
<text text-anchor="middle" x="184.5" y="-45.5" font-family="Helvetica,sans-Serif" font-size="10.00" fill="#000000">mutt_enter_string_full</text>
</a>
</g>
</g>
<!-- Node78&#45;&gt;Node79 -->
<g id="edge1" class="edge">
<title>Node78&#45;&gt;Node79</title>
<path fill="none" stroke="#191970" d="M96.19,-36.1421C104.5298,-37.2619 113.2171,-38.4284 121.7473,-39.5738"/>
<polygon fill="#191970" stroke="#191970" points="96.6004,-32.6659 86.2235,-34.8039 95.6688,-39.6036 96.6004,-32.6659"/>
</g>
<!-- Node644 -->
<g id="node3" class="node">
<title>Node644</title>
<g id="a_node3"><a xlink:href="history_2lib_8h.html#a282fdccadb31bf6aaf2a45c392a46f88" target="_top" xlink:title="Read the History from a file. ">
<polygon fill="#ffffff" stroke="#ff0000" points="129.5,-.5 129.5,-19.5 239.5,-19.5 239.5,-.5 129.5,-.5"/>
<text text-anchor="middle" x="184.5" y="-7.5" font-family="Helvetica,sans-Serif" font-size="10.00" fill="#000000">mutt_hist_read_file</text>
</a>
</g>
</g>
<!-- Node78&#45;&gt;Node644 -->
<g id="edge2" class="edge">
<title>Node78&#45;&gt;Node644</title>
<path fill="none" stroke="#191970" d="M96.3315,-21.8389C107.0943,-20.3937 118.4306,-18.8715 129.2573,-17.4177"/>
<polygon fill="#191970" stroke="#191970" points="95.6688,-18.3964 86.2235,-23.1961 96.6004,-25.3341 95.6688,-18.3964"/>
</g>
</g>
</svg>
