<?xml version="1.0" encoding="UTF-8" standalone="no"?>
<!DOCTYPE svg PUBLIC "-//W3C//DTD SVG 1.1//EN"
 "http://www.w3.org/Graphics/SVG/1.1/DTD/svg11.dtd">
<!-- Generated by graphviz version 2.40.1 (20161225.0304)
 -->
<!-- Title: get_history Pages: 1 -->
<svg width="369pt" height="294pt"
 viewBox="0.00 0.00 369.00 294.00" xmlns="http://www.w3.org/2000/svg" xmlns:xlink="http://www.w3.org/1999/xlink">
<g id="graph0" class="graph" transform="scale(1 1) rotate(0) translate(4 290)">
<title>get_history</title>
<polygon fill="#ffffff" stroke="transparent" points="-4,4 -4,-290 365,-290 365,4 -4,4"/>
<!-- Node24 -->
<g id="node1" class="node">
<title>Node24</title>
<polygon fill="#bfbfbf" stroke="#000000" points="0,-133.5 0,-152.5 71,-152.5 71,-133.5 0,-133.5"/>
<text text-anchor="middle" x="35.5" y="-140.5" font-family="Helvetica,sans-Serif" font-size="10.00" fill="#000000">get_history</text>
</g>
<!-- Node25 -->
<g id="node2" class="node">
<title>Node25</title>
<g id="a_node2"><a xlink:href="history_8c.html#a115238984c7cbc554e1526f7ce460f60" target="_top" xlink:title="De&#45;dupe the history. ">
<polygon fill="#ffffff" stroke="#000000" points="112,-266.5 112,-285.5 234,-285.5 234,-266.5 112,-266.5"/>
<text text-anchor="middle" x="173" y="-273.5" font-family="Helvetica,sans-Serif" font-size="10.00" fill="#000000">remove_history_dups</text>
</a>
</g>
</g>
<!-- Node24&#45;&gt;Node25 -->
<g id="edge1" class="edge">
<title>Node24&#45;&gt;Node25</title>
<path fill="none" stroke="#191970" d="M43.4267,-162.1357C54.352,-186.3002 76.2375,-227.6531 107,-252 114.8395,-258.2046 124.4285,-262.8968 133.8418,-266.4088"/>
<polygon fill="#191970" stroke="#191970" points="46.4992,-160.4242 39.3033,-152.648 40.0793,-163.2144 46.4992,-160.4242"/>
</g>
<!-- Node26 -->
<g id="node3" class="node">
<title>Node26</title>
<g id="a_node3"><a xlink:href="history_2lib_8h.html#a541c9c8be36706c87b62c896a897f680" target="_top" xlink:title="Add a string to a history. ">
<polygon fill="#ffffff" stroke="#ff0000" points="275,-247.5 275,-266.5 361,-266.5 361,-247.5 275,-247.5"/>
<text text-anchor="middle" x="318" y="-254.5" font-family="Helvetica,sans-Serif" font-size="10.00" fill="#000000">mutt_hist_add</text>
</a>
</g>
</g>
<!-- Node24&#45;&gt;Node26 -->
<g id="edge4" class="edge">
<title>Node24&#45;&gt;Node26</title>
<path fill="none" stroke="#191970" d="M47.1524,-160.9028C59.7072,-178.6364 81.3715,-205.0974 107,-219 160.0022,-247.7519 230.4188,-255.3318 274.9849,-257.0218"/>
<polygon fill="#191970" stroke="#191970" points="49.972,-158.8252 41.4446,-152.5375 44.1897,-162.7706 49.972,-158.8252"/>
</g>
<!-- Node593 -->
<g id="node4" class="node">
<title>Node593</title>
<g id="a_node4"><a xlink:href="history_2lib_8h.html#a40b0d1de2839ee28e60ab014fbe281be" target="_top" xlink:title="Find matches in a history list. ">
<polygon fill="#ffffff" stroke="#ff0000" points="122.5,-190.5 122.5,-209.5 223.5,-209.5 223.5,-190.5 122.5,-190.5"/>
<text text-anchor="middle" x="173" y="-197.5" font-family="Helvetica,sans-Serif" font-size="10.00" fill="#000000">mutt_hist_search</text>
</a>
</g>
</g>
<!-- Node24&#45;&gt;Node593 -->
<g id="edge3" class="edge">
<title>Node24&#45;&gt;Node593</title>
<path fill="none" stroke="#191970" d="M59.9344,-157.6186C73.4735,-165.2974 90.8002,-174.4467 107,-181 115.8428,-184.5772 125.6042,-187.7741 134.8465,-190.479"/>
<polygon fill="#191970" stroke="#191970" points="61.6363,-154.5598 51.2267,-152.5874 58.1343,-160.6208 61.6363,-154.5598"/>
</g>
<!-- Node594 -->
<g id="node5" class="node">
<title>Node594</title>
<g id="a_node5"><a xlink:href="history_2lib_8h.html#a3bd0e4a7ce28aae28736c86f577968b9" target="_top" xlink:title="Get the next string in a History. ">
<polygon fill="#ffffff" stroke="#ff0000" points="128,-152.5 128,-171.5 218,-171.5 218,-152.5 128,-152.5"/>
<text text-anchor="middle" x="173" y="-159.5" font-family="Helvetica,sans-Serif" font-size="10.00" fill="#000000">mutt_hist_next</text>
</a>
</g>
</g>
<!-- Node24&#45;&gt;Node594 -->
<g id="edge5" class="edge">
<title>Node24&#45;&gt;Node594</title>
<path fill="none" stroke="#191970" d="M81.3232,-149.3319C96.2843,-151.3993 112.8813,-153.6927 127.7966,-155.7537"/>
<polygon fill="#191970" stroke="#191970" points="81.6526,-145.8443 71.2676,-147.9424 80.6943,-152.7784 81.6526,-145.8443"/>
</g>
<!-- Node595 -->
<g id="node6" class="node">
<title>Node595</title>
<g id="a_node6"><a xlink:href="history_2lib_8h.html#a9c81cb82877d80de3874bc359c473d12" target="_top" xlink:title="Get the previous string in a History. ">
<polygon fill="#ffffff" stroke="#ff0000" points="128,-114.5 128,-133.5 218,-133.5 218,-114.5 128,-114.5"/>
<text text-anchor="middle" x="173" y="-121.5" font-family="Helvetica,sans-Serif" font-size="10.00" fill="#000000">mutt_hist_prev</text>
</a>
</g>
</g>
<!-- Node24&#45;&gt;Node595 -->
<g id="edge6" class="edge">
<title>Node24&#45;&gt;Node595</title>
<path fill="none" stroke="#191970" d="M81.3232,-136.6681C96.2843,-134.6007 112.8813,-132.3073 127.7966,-130.2463"/>
<polygon fill="#191970" stroke="#191970" points="80.6943,-133.2216 71.2676,-138.0576 81.6526,-140.1557 80.6943,-133.2216"/>
</g>
<!-- Node596 -->
<g id="node7" class="node">
<title>Node596</title>
<g id="a_node7"><a xlink:href="history_2lib_8h.html#a6197a536a3da0385551bac50a45d6a7a" target="_top" xlink:title="Move the &#39;current&#39; position to the end of the History. ">
<polygon fill="#ffffff" stroke="#ff0000" points="111.5,-76.5 111.5,-95.5 234.5,-95.5 234.5,-76.5 111.5,-76.5"/>
<text text-anchor="middle" x="173" y="-83.5" font-family="Helvetica,sans-Serif" font-size="10.00" fill="#000000">mutt_hist_reset_state</text>
</a>
</g>
</g>
<!-- Node24&#45;&gt;Node596 -->
<g id="edge7" class="edge">
<title>Node24&#45;&gt;Node596</title>
<path fill="none" stroke="#191970" d="M59.9344,-128.3814C73.4735,-120.7026 90.8002,-111.5533 107,-105 115.8428,-101.4228 125.6042,-98.2259 134.8465,-95.521"/>
<polygon fill="#191970" stroke="#191970" points="58.1343,-125.3792 51.2267,-133.4126 61.6363,-131.4402 58.1343,-125.3792"/>
</g>
<!-- Node597 -->
<g id="node8" class="node">
<title>Node597</title>
<g id="a_node8"><a xlink:href="history_2lib_8h.html#a493d2064e68bab2fe5cee4b4769c2d49" target="_top" xlink:title="Is the current History position at the &#39;scratch&#39; place? ">
<polygon fill="#ffffff" stroke="#ff0000" points="113.5,-38.5 113.5,-57.5 232.5,-57.5 232.5,-38.5 113.5,-38.5"/>
<text text-anchor="middle" x="173" y="-45.5" font-family="Helvetica,sans-Serif" font-size="10.00" fill="#000000">mutt_hist_at_scratch</text>
</a>
</g>
</g>
<!-- Node24&#45;&gt;Node597 -->
<g id="edge8" class="edge">
<title>Node24&#45;&gt;Node597</title>
<path fill="none" stroke="#191970" d="M47.869,-125.0782C60.7218,-107.7697 82.3778,-82.0317 107,-67 113.3098,-63.1479 120.4345,-60.0473 127.6093,-57.56"/>
<polygon fill="#191970" stroke="#191970" points="44.9815,-123.0987 41.9812,-133.2598 50.6632,-127.1875 44.9815,-123.0987"/>
</g>
<!-- Node598 -->
<g id="node9" class="node">
<title>Node598</title>
<g id="a_node9"><a xlink:href="history_2lib_8h.html#a2d26cab55cd51b83f6e2a45a8ce44799" target="_top" xlink:title="Save a temporary string to the History. ">
<polygon fill="#ffffff" stroke="#ff0000" points="107,-.5 107,-19.5 239,-19.5 239,-.5 107,-.5"/>
<text text-anchor="middle" x="173" y="-7.5" font-family="Helvetica,sans-Serif" font-size="10.00" fill="#000000">mutt_hist_save_scratch</text>
</a>
</g>
</g>
<!-- Node24&#45;&gt;Node598 -->
<g id="edge9" class="edge">
<title>Node24&#45;&gt;Node598</title>
<path fill="none" stroke="#191970" d="M42.4823,-123.7519C52.707,-98.2788 74.1776,-53.7174 107,-29 112.1435,-25.1266 118.0537,-22.042 124.1783,-19.5856"/>
<polygon fill="#191970" stroke="#191970" points="39.1002,-122.7964 38.7884,-133.3867 45.6363,-125.3023 39.1002,-122.7964"/>
</g>
<!-- Node25&#45;&gt;Node26 -->
<g id="edge2" class="edge">
<title>Node25&#45;&gt;Node26</title>
<path fill="none" stroke="#191970" d="M244.0389,-266.6915C254.476,-265.3238 264.9535,-263.9509 274.6057,-262.6861"/>
<polygon fill="#191970" stroke="#191970" points="243.5333,-263.2277 234.0728,-267.9974 244.4428,-270.1684 243.5333,-263.2277"/>
</g>
</g>
</svg>
