<?xml version="1.0" encoding="UTF-8" standalone="no"?>
<!DOCTYPE svg PUBLIC "-//W3C//DTD SVG 1.1//EN"
 "http://www.w3.org/Graphics/SVG/1.1/DTD/svg11.dtd">
<!-- Generated by graphviz version 12.2.1 (20241206.2353)
 -->
<!-- Title: hooks_cleanup Pages: 1 -->
<svg width="241pt" height="110pt"
 viewBox="0.00 0.00 241.00 110.25" xmlns="http://www.w3.org/2000/svg" xmlns:xlink="http://www.w3.org/1999/xlink">
<g id="graph0" class="graph" transform="scale(1 1) rotate(0) translate(4 106.25)">
<title>hooks_cleanup</title>
<!-- Node1 -->
<g id="Node000001" class="node">
<title>Node1</title>
<g id="a_Node000001"><a xlink:title="Clean up a Module &#45; Implements Module::cleanup()">
<polygon fill="#999999" stroke="#666666" points="84.25,-62.25 0,-62.25 0,-40 84.25,-40 84.25,-62.25"/>
<text text-anchor="middle" x="42.12" y="-48.75" font-family="Helvetica,sans-Serif" font-size="10.00">hooks_cleanup</text>
</a>
</g>
</g>
<!-- Node2 -->
<g id="Node000002" class="node">
<title>Node2</title>
<g id="a_Node000002"><a xlink:href="hooks_2parse_8c.html#a9738f8b3f197218c44f294bca64eeb94" target="_top" xlink:title="Delete all the index&#45;format&#45;hooks.">
<polygon fill="#fff0f0" stroke="red" points="233,-102.25 120.25,-102.25 120.25,-80 233,-80 233,-102.25"/>
<text text-anchor="middle" x="176.62" y="-88.75" font-family="Helvetica,sans-Serif" font-size="10.00">delete_idxfmt_hooks</text>
</a>
</g>
</g>
<!-- Node1&#45;&gt;Node2 -->
<g id="edge1_Node000001_Node000002" class="edge">
<title>Node1&#45;&gt;Node2</title>
<g id="a_edge1_Node000001_Node000002"><a xlink:title=" ">
<path fill="none" stroke="#63b8ff" d="M81.45,-62.69C95.6,-66.97 111.82,-71.86 126.77,-76.38"/>
<polygon fill="#63b8ff" stroke="#63b8ff" points="125.35,-79.6 135.94,-79.14 127.38,-72.9 125.35,-79.6"/>
</a>
</g>
</g>
<!-- Node4 -->
<g id="Node000004" class="node">
<title>Node4</title>
<g id="a_Node000004"><a xlink:href="hooks_2parse_8c.html#a300c28934505b92bd1a61992aa19abc3" target="_top" xlink:title="Delete matching hooks.">
<polygon fill="#fff0f0" stroke="red" points="229.25,-62.25 124,-62.25 124,-40 229.25,-40 229.25,-62.25"/>
<text text-anchor="middle" x="176.62" y="-48.75" font-family="Helvetica,sans-Serif" font-size="10.00">mutt_delete_hooks</text>
</a>
</g>
</g>
<!-- Node1&#45;&gt;Node4 -->
<g id="edge2_Node000001_Node000004" class="edge">
<title>Node1&#45;&gt;Node4</title>
<g id="a_edge2_Node000001_Node000004"><a xlink:title=" ">
<path fill="none" stroke="#63b8ff" d="M84.69,-51.12C93.53,-51.12 103.07,-51.12 112.52,-51.12"/>
<polygon fill="#63b8ff" stroke="#63b8ff" points="112.44,-54.63 122.44,-51.13 112.44,-47.63 112.44,-54.63"/>
</a>
</g>
</g>
<!-- Node10 -->
<g id="Node000010" class="node">
<title>Node10</title>
<g id="a_Node000010"><a xlink:href="mutt_2notify_8c.html#ae7fe885788b891a9f2b0bf6c5aae2613" target="_top" xlink:title="Free a notification handler.">
<polygon fill="#fff0f0" stroke="red" points="210.12,-22.25 143.12,-22.25 143.12,0 210.12,0 210.12,-22.25"/>
<text text-anchor="middle" x="176.62" y="-8.75" font-family="Helvetica,sans-Serif" font-size="10.00">notify_free</text>
</a>
</g>
</g>
<!-- Node1&#45;&gt;Node10 -->
<g id="edge3_Node000001_Node000010" class="edge">
<title>Node1&#45;&gt;Node10</title>
<g id="a_edge3_Node000001_Node000010"><a xlink:title=" ">
<path fill="none" stroke="#63b8ff" d="M81.45,-39.56C97.22,-34.79 115.58,-29.25 131.88,-24.33"/>
<polygon fill="#63b8ff" stroke="#63b8ff" points="132.76,-27.72 141.32,-21.48 130.74,-21.02 132.76,-27.72"/>
</a>
</g>
</g>
</g>
</svg>
