<?xml version="1.0" encoding="UTF-8" standalone="no"?>
<!DOCTYPE svg PUBLIC "-//W3C//DTD SVG 1.1//EN"
 "http://www.w3.org/Graphics/SVG/1.1/DTD/svg11.dtd">
<!-- Generated by graphviz version 12.2.1 (20241206.2353)
 -->
<!-- Title: mutt_account_hook Pages: 1 -->
<svg width="253pt" height="208pt"
 viewBox="0.00 0.00 253.00 208.25" xmlns="http://www.w3.org/2000/svg" xmlns:xlink="http://www.w3.org/1999/xlink">
<g id="graph0" class="graph" transform="scale(1 1) rotate(0) translate(4 204.25)">
<title>mutt_account_hook</title>
<!-- Node1 -->
<g id="Node000001" class="node">
<title>Node1</title>
<g id="a_Node000001"><a xlink:title="Perform an account hook.">
<polygon fill="#999999" stroke="#666666" points="106.75,-102.25 0,-102.25 0,-80 106.75,-80 106.75,-102.25"/>
<text text-anchor="middle" x="53.38" y="-88.75" font-family="Helvetica,sans-Serif" font-size="10.00">mutt_account_hook</text>
</a>
</g>
</g>
<!-- Node2 -->
<g id="Node000002" class="node">
<title>Node2</title>
<g id="a_Node000002"><a xlink:href="pool_8c.html#a41cba27c25d33cb6822789a2856093f2" target="_top" xlink:title="Get a Buffer from the pool.">
<polygon fill="#fff0f0" stroke="red" points="232.25,-200.25 155.5,-200.25 155.5,-178 232.25,-178 232.25,-200.25"/>
<text text-anchor="middle" x="193.88" y="-186.75" font-family="Helvetica,sans-Serif" font-size="10.00">buf_pool_get</text>
</a>
</g>
</g>
<!-- Node1&#45;&gt;Node2 -->
<g id="edge1_Node000001_Node000002" class="edge">
<title>Node1&#45;&gt;Node2</title>
<g id="a_edge1_Node000001_Node000002"><a xlink:title=" ">
<path fill="none" stroke="#63b8ff" d="M64.82,-102.56C80.43,-119.11 111.37,-149.83 142.75,-169.12 144.75,-170.35 146.83,-171.53 148.96,-172.66"/>
<polygon fill="#63b8ff" stroke="#63b8ff" points="147.3,-175.74 157.84,-176.9 150.32,-169.43 147.3,-175.74"/>
</a>
</g>
</g>
<!-- Node10 -->
<g id="Node000010" class="node">
<title>Node10</title>
<g id="a_Node000010"><a xlink:href="pool_8c.html#a4cc6068279461cb8628219586dfa35a1" target="_top" xlink:title="Return a Buffer to the pool.">
<polygon fill="#fff0f0" stroke="red" points="241.25,-160.25 146.5,-160.25 146.5,-138 241.25,-138 241.25,-160.25"/>
<text text-anchor="middle" x="193.88" y="-146.75" font-family="Helvetica,sans-Serif" font-size="10.00">buf_pool_release</text>
</a>
</g>
</g>
<!-- Node1&#45;&gt;Node10 -->
<g id="edge2_Node000001_Node000010" class="edge">
<title>Node1&#45;&gt;Node10</title>
<g id="a_edge2_Node000001_Node000010"><a xlink:title=" ">
<path fill="none" stroke="#63b8ff" d="M80.59,-102.61C98.14,-110.25 121.77,-120.43 142.75,-129.12 146.08,-130.51 149.55,-131.92 153.03,-133.34"/>
<polygon fill="#63b8ff" stroke="#63b8ff" points="151.41,-136.46 162,-136.95 154.03,-129.97 151.41,-136.46"/>
</a>
</g>
</g>
<!-- Node15 -->
<g id="Node000015" class="node">
<title>Node15</title>
<g id="a_Node000015"><a xlink:href="buffer_8h.html#a728ebc5a947b77c8d56db44ce553a7ab" target="_top" xlink:title="Convert a buffer to a const char * &quot;string&quot;.">
<polygon fill="white" stroke="#666666" points="225.5,-102.25 162.25,-102.25 162.25,-80 225.5,-80 225.5,-102.25"/>
<text text-anchor="middle" x="193.88" y="-88.75" font-family="Helvetica,sans-Serif" font-size="10.00">buf_string</text>
</a>
</g>
</g>
<!-- Node1&#45;&gt;Node15 -->
<g id="edge3_Node000001_Node000015" class="edge">
<title>Node1&#45;&gt;Node15</title>
<g id="a_edge3_Node000001_Node000015"><a xlink:title=" ">
<path fill="none" stroke="#63b8ff" d="M107.13,-91.12C121.58,-91.12 137.05,-91.12 150.82,-91.12"/>
<polygon fill="#63b8ff" stroke="#63b8ff" points="150.41,-94.63 160.41,-91.13 150.41,-87.63 150.41,-94.63"/>
</a>
</g>
</g>
<!-- Node16 -->
<g id="Node000016" class="node">
<title>Node16</title>
<g id="a_Node000016"><a xlink:href="mutt_2regex_8c.html#ad25947e610db74945537b99edf428982" target="_top" xlink:title="Shorthand to mutt_regex_capture()">
<polygon fill="#fff0f0" stroke="red" points="245,-62.25 142.75,-62.25 142.75,-40 245,-40 245,-62.25"/>
<text text-anchor="middle" x="193.88" y="-48.75" font-family="Helvetica,sans-Serif" font-size="10.00">mutt_regex_match</text>
</a>
</g>
</g>
<!-- Node1&#45;&gt;Node16 -->
<g id="edge5_Node000001_Node000016" class="edge">
<title>Node1&#45;&gt;Node16</title>
<g id="a_edge5_Node000001_Node000016"><a xlink:title=" ">
<path fill="none" stroke="#63b8ff" d="M94.43,-79.56C109.36,-75.24 126.51,-70.29 142.26,-65.74"/>
<polygon fill="#63b8ff" stroke="#63b8ff" points="142.81,-69.23 151.45,-63.09 140.87,-62.5 142.81,-69.23"/>
</a>
</g>
</g>
<!-- Node18 -->
<g id="Node000018" class="node">
<title>Node18</title>
<g id="a_Node000018"><a xlink:href="commands_8c.html#a3661ee2d6db04b9f787cac051efc3b32" target="_top" xlink:title="Parse and run a muttrc line in a relative directory.">
<polygon fill="#fff0f0" stroke="red" points="243.12,-22.25 144.62,-22.25 144.62,0 243.12,0 243.12,-22.25"/>
<text text-anchor="middle" x="193.88" y="-8.75" font-family="Helvetica,sans-Serif" font-size="10.00">parse_rc_line_cwd</text>
</a>
</g>
</g>
<!-- Node1&#45;&gt;Node18 -->
<g id="edge6_Node000001_Node000018" class="edge">
<title>Node1&#45;&gt;Node18</title>
<g id="a_edge6_Node000001_Node000018"><a xlink:title=" ">
<path fill="none" stroke="#63b8ff" d="M69.07,-79.68C86.12,-66.76 115.4,-45.65 142.75,-31.12 145.25,-29.8 147.85,-28.51 150.51,-27.26"/>
<polygon fill="#63b8ff" stroke="#63b8ff" points="151.73,-30.55 159.47,-23.31 148.91,-24.14 151.73,-30.55"/>
</a>
</g>
</g>
<!-- Node15&#45;&gt;Node15 -->
<g id="edge4_Node000015_Node000015" class="edge">
<title>Node15&#45;&gt;Node15</title>
<g id="a_edge4_Node000015_Node000015"><a xlink:title=" ">
<path fill="none" stroke="#63b8ff" d="M170.93,-102.49C162.35,-111.28 170,-120.25 193.88,-120.25 206.93,-120.25 215.13,-117.57 218.48,-113.7"/>
<polygon fill="#63b8ff" stroke="#63b8ff" points="221.97,-113.36 217.04,-103.98 215.05,-114.39 221.97,-113.36"/>
</a>
</g>
</g>
</g>
</svg>
