<?xml version="1.0" encoding="UTF-8" standalone="no"?>
<!DOCTYPE svg PUBLIC "-//W3C//DTD SVG 1.1//EN"
 "http://www.w3.org/Graphics/SVG/1.1/DTD/svg11.dtd">
<!-- Generated by graphviz version 12.2.1 (20241206.2353)
 -->
<!-- Title: mutt_delete_hooks Pages: 1 -->
<svg width="258pt" height="70pt"
 viewBox="0.00 0.00 258.25 70.25" xmlns="http://www.w3.org/2000/svg" xmlns:xlink="http://www.w3.org/1999/xlink">
<g id="graph0" class="graph" transform="scale(1 1) rotate(0) translate(4 66.25)">
<title>mutt_delete_hooks</title>
<!-- Node1 -->
<g id="Node000001" class="node">
<title>Node1</title>
<g id="a_Node000001"><a xlink:title="Delete matching hooks.">
<polygon fill="#999999" stroke="#666666" points="250.25,-42.25 145,-42.25 145,-20 250.25,-20 250.25,-42.25"/>
<text text-anchor="middle" x="197.62" y="-28.75" font-family="Helvetica,sans-Serif" font-size="10.00">mutt_delete_hooks</text>
</a>
</g>
</g>
<!-- Node2 -->
<g id="Node000002" class="node">
<title>Node2</title>
<g id="a_Node000002"><a xlink:href="main_8c.html#adedb285b02c41bde2158ded9cc9fd7ac" target="_top" xlink:title="Start NeoMutt.">
<polygon fill="white" stroke="#666666" points="73.75,-62.25 35.25,-62.25 35.25,-40 73.75,-40 73.75,-62.25"/>
<text text-anchor="middle" x="54.5" y="-48.75" font-family="Helvetica,sans-Serif" font-size="10.00">main</text>
</a>
</g>
</g>
<!-- Node1&#45;&gt;Node2 -->
<g id="edge1_Node000001_Node000002" class="edge">
<title>Node1&#45;&gt;Node2</title>
<g id="a_edge1_Node000001_Node000002"><a xlink:title=" ">
<path fill="none" stroke="#63b8ff" d="M133.7,-40.04C112.08,-43.11 89.49,-46.31 74.18,-48.48"/>
<polygon fill="#63b8ff" stroke="#63b8ff" points="133.97,-43.54 143.38,-38.67 132.99,-36.61 133.97,-43.54"/>
</a>
</g>
</g>
<!-- Node3 -->
<g id="Node000003" class="node">
<title>Node3</title>
<g id="a_Node000003"><a xlink:href="group__command__parse.html#ga08435414661f48483bb9739ffab9998a" target="_top" xlink:title="Parse the &#39;unhook&#39; command &#45; Implements Command::parse() &#45;.">
<polygon fill="white" stroke="#666666" points="109,-22.25 0,-22.25 0,0 109,0 109,-22.25"/>
<text text-anchor="middle" x="54.5" y="-8.75" font-family="Helvetica,sans-Serif" font-size="10.00">mutt_parse_unhook</text>
</a>
</g>
</g>
<!-- Node1&#45;&gt;Node3 -->
<g id="edge2_Node000001_Node000003" class="edge">
<title>Node1&#45;&gt;Node3</title>
<g id="a_edge2_Node000001_Node000003"><a xlink:title=" ">
<path fill="none" stroke="#63b8ff" d="M133.51,-22.18C125.37,-21.03 117.1,-19.85 109.14,-18.73"/>
<polygon fill="#63b8ff" stroke="#63b8ff" points="132.99,-25.64 143.38,-23.58 133.97,-18.71 132.99,-25.64"/>
</a>
</g>
</g>
</g>
</svg>
