<?xml version="1.0" encoding="UTF-8" standalone="no"?>
<!DOCTYPE svg PUBLIC "-//W3C//DTD SVG 1.1//EN"
 "http://www.w3.org/Graphics/SVG/1.1/DTD/svg11.dtd">
<!-- Generated by graphviz version 2.40.1 (20161225.0304)
 -->
<!-- Title: mutt_message_hook Pages: 1 -->
<svg width="450pt" height="110pt"
 viewBox="0.00 0.00 450.00 109.69" xmlns="http://www.w3.org/2000/svg" xmlns:xlink="http://www.w3.org/1999/xlink">
<g id="graph0" class="graph" transform="scale(1 1) rotate(0) translate(4 105.6851)">
<title>mutt_message_hook</title>
<polygon fill="#ffffff" stroke="transparent" points="-4,4 -4,-105.6851 446,-105.6851 446,4 -4,4"/>
<!-- Node4888 -->
<g id="node1" class="node">
<title>Node4888</title>
<polygon fill="#bfbfbf" stroke="#000000" points="0,-47.5 0,-66.5 119,-66.5 119,-47.5 0,-47.5"/>
<text text-anchor="middle" x="59.5" y="-54.5" font-family="Helvetica,sans-Serif" font-size="10.00" fill="#000000">mutt_message_hook</text>
</g>
<!-- Node4889 -->
<g id="node2" class="node">
<title>Node4889</title>
<g id="a_node2"><a xlink:href="pool_8c.html#a2129d5ea0085753afdd37cf62161845d" target="_top" xlink:title="Get a Buffer from the pool. ">
<polygon fill="#ffffff" stroke="#ff0000" points="311,-47.5 311,-66.5 432,-66.5 432,-47.5 311,-47.5"/>
<text text-anchor="middle" x="371.5" y="-54.5" font-family="Helvetica,sans-Serif" font-size="10.00" fill="#000000">mutt_buffer_pool_get</text>
</a>
</g>
</g>
<!-- Node4888&#45;&gt;Node4889 -->
<g id="edge1" class="edge">
<title>Node4888&#45;&gt;Node4889</title>
<path fill="none" stroke="#191970" d="M77.5365,-66.5812C96.2862,-75.9568 126.7843,-89.5926 155,-95 203.0151,-104.2019 216.8272,-103.3368 265,-95 291.8856,-90.3472 320.9701,-79.5455 341.9409,-70.6432"/>
<polygon fill="#191970" stroke="#191970" points="343.4816,-73.7898 351.2529,-66.5885 340.687,-67.3718 343.4816,-73.7898"/>
</g>
<!-- Node4897 -->
<g id="node3" class="node">
<title>Node4897</title>
<g id="a_node3"><a xlink:href="exec_8c.html#a19019da905ed802ad656fbe8b2c8ca93" target="_top" xlink:title="Match a pattern against an email header. ">
<polygon fill="#ffffff" stroke="#ff0000" points="155.5,-66.5 155.5,-85.5 264.5,-85.5 264.5,-66.5 155.5,-66.5"/>
<text text-anchor="middle" x="210" y="-73.5" font-family="Helvetica,sans-Serif" font-size="10.00" fill="#000000">mutt_pattern_exec</text>
</a>
</g>
</g>
<!-- Node4888&#45;&gt;Node4897 -->
<g id="edge2" class="edge">
<title>Node4888&#45;&gt;Node4897</title>
<path fill="none" stroke="#191970" d="M119.414,-64.5639C127.8981,-65.635 136.6538,-66.7403 145.2246,-67.8224"/>
<polygon fill="#191970" stroke="#191970" points="144.8141,-71.2982 155.1737,-69.0784 145.6909,-64.3534 144.8141,-71.2982"/>
</g>
<!-- Node5253 -->
<g id="node4" class="node">
<title>Node5253</title>
<g id="a_node4"><a xlink:href="init_8c.html#a136d8ba552e1a6f982e8349e0629ee8d" target="_top" xlink:title="Parse a line of user config. ">
<polygon fill="#ffffff" stroke="#ff0000" points="155,-28.5 155,-47.5 265,-47.5 265,-28.5 155,-28.5"/>
<text text-anchor="middle" x="210" y="-35.5" font-family="Helvetica,sans-Serif" font-size="10.00" fill="#000000">mutt_parse_rc_line</text>
</a>
</g>
</g>
<!-- Node4888&#45;&gt;Node5253 -->
<g id="edge3" class="edge">
<title>Node4888&#45;&gt;Node5253</title>
<path fill="none" stroke="#191970" d="M119.414,-49.4361C127.6893,-48.3914 136.2231,-47.314 144.5916,-46.2575"/>
<polygon fill="#191970" stroke="#191970" points="145.2061,-49.7078 154.6889,-44.9828 144.3292,-42.763 145.2061,-49.7078"/>
</g>
<!-- Node4922 -->
<g id="node5" class="node">
<title>Node4922</title>
<g id="a_node5"><a xlink:href="pool_8c.html#a08b48e2ac8849341888ee7429cc5093c" target="_top" xlink:title="Free a Buffer from the pool. ">
<polygon fill="#ffffff" stroke="#ff0000" points="301,-.5 301,-19.5 442,-19.5 442,-.5 301,-.5"/>
<text text-anchor="middle" x="371.5" y="-7.5" font-family="Helvetica,sans-Serif" font-size="10.00" fill="#000000">mutt_buffer_pool_release</text>
</a>
</g>
</g>
<!-- Node4888&#45;&gt;Node4922 -->
<g id="edge6" class="edge">
<title>Node4888&#45;&gt;Node4922</title>
<path fill="none" stroke="#191970" d="M77.9369,-47.4889C96.7533,-38.3101 127.0773,-24.9551 155,-19 199.0927,-9.5963 249.3493,-7.0247 290.3356,-6.9493"/>
<polygon fill="#191970" stroke="#191970" points="290.5358,-10.4498 300.5467,-6.9813 290.5577,-3.4499 290.5358,-10.4498"/>
</g>
<!-- Node5253&#45;&gt;Node4889 -->
<g id="edge4" class="edge">
<title>Node5253&#45;&gt;Node4889</title>
<path fill="none" stroke="#191970" d="M265.1274,-44.4856C276.621,-45.8378 288.8872,-47.2809 300.8528,-48.6886"/>
<polygon fill="#191970" stroke="#191970" points="300.4691,-52.1675 310.8096,-49.8599 301.287,-45.2154 300.4691,-52.1675"/>
</g>
<!-- Node5253&#45;&gt;Node4922 -->
<g id="edge5" class="edge">
<title>Node5253&#45;&gt;Node4922</title>
<path fill="none" stroke="#191970" d="M265.1274,-28.4423C278.51,-26.1221 292.9399,-23.6203 306.7232,-21.2307"/>
<polygon fill="#191970" stroke="#191970" points="307.3659,-24.6715 316.621,-19.5146 306.1701,-17.7744 307.3659,-24.6715"/>
</g>
</g>
</svg>
