<?xml version="1.0" encoding="UTF-8" standalone="no"?>
<!DOCTYPE svg PUBLIC "-//W3C//DTD SVG 1.1//EN"
 "http://www.w3.org/Graphics/SVG/1.1/DTD/svg11.dtd">
<!-- Generated by graphviz version 7.1.0 (0)
 -->
<!-- Title: imap_allow_reopen Pages: 1 -->
<svg width="253pt" height="64pt"
 viewBox="0.00 0.00 253.00 64.00" xmlns="http://www.w3.org/2000/svg" xmlns:xlink="http://www.w3.org/1999/xlink">
<g id="graph0" class="graph" transform="scale(1 1) rotate(0) translate(4 60)">
<title>imap_allow_reopen</title>
<!-- Node1 -->
<g id="node1" class="node">
<title>Node1</title>
<g id="a_node1"><a xlink:title="Allow re&#45;opening a folder upon expunge.">
<polygon fill="#999999" stroke="#666666" points="245,-37 140,-37 140,-18 245,-18 245,-37"/>
<text text-anchor="middle" x="192.5" y="-25" font-family="Helvetica,sans-Serif" font-size="10.00">imap_allow_reopen</text>
</a>
</g>
</g>
<!-- Node2 -->
<g id="node2" class="node">
<title>Node2</title>
<g id="a_node2"><a xlink:href="group__mx__mbox__check.html#gab274718bd33e0eb6ce4e102d9483d085" target="_top" xlink:title="Check for new mail &#45; Implements MxOps::mbox_check() &#45;.">
<polygon fill="white" stroke="#666666" points="102.5,-56 1.5,-56 1.5,-37 102.5,-37 102.5,-56"/>
<text text-anchor="middle" x="52" y="-44" font-family="Helvetica,sans-Serif" font-size="10.00">imap_mbox_check</text>
</a>
</g>
</g>
<!-- Node1&#45;&gt;Node2 -->
<g id="edge1" class="edge">
<title>Node1&#45;&gt;Node2</title>
<path fill="none" stroke="#63b8ff" d="M128.14,-36.19C119.7,-37.35 111.13,-38.52 102.96,-39.65"/>
<polygon fill="#63b8ff" stroke="#63b8ff" points="128.6,-39.66 138.03,-34.83 127.65,-32.73 128.6,-39.66"/>
</g>
<!-- Node3 -->
<g id="node3" class="node">
<title>Node3</title>
<g id="a_node3"><a xlink:href="imap_8c.html#ac964d627e8a2fad2b74d00096594d0ed" target="_top" xlink:title="Sync all the changes to the server.">
<polygon fill="#fff0f0" stroke="red" points="104,-19 0,-19 0,0 104,0 104,-19"/>
<text text-anchor="middle" x="52" y="-7" font-family="Helvetica,sans-Serif" font-size="10.00">imap_sync_mailbox</text>
</a>
</g>
</g>
<!-- Node1&#45;&gt;Node3 -->
<g id="edge2" class="edge">
<title>Node1&#45;&gt;Node3</title>
<path fill="none" stroke="#63b8ff" d="M128.31,-19.29C120.28,-18.24 112.15,-17.19 104.34,-16.17"/>
<polygon fill="#63b8ff" stroke="#63b8ff" points="127.67,-22.73 138.03,-20.55 128.57,-15.79 127.67,-22.73"/>
</g>
</g>
</svg>
