<?xml version="1.0" encoding="UTF-8" standalone="no"?>
<!DOCTYPE svg PUBLIC "-//W3C//DTD SVG 1.1//EN"
 "http://www.w3.org/Graphics/SVG/1.1/DTD/svg11.dtd">
<!-- Generated by graphviz version 2.40.1 (20161225.0304)
 -->
<!-- Title: imap_mdata_free Pages: 1 -->
<svg width="276pt" height="332pt"
 viewBox="0.00 0.00 276.00 332.00" xmlns="http://www.w3.org/2000/svg" xmlns:xlink="http://www.w3.org/1999/xlink">
<g id="graph0" class="graph" transform="scale(1 1) rotate(0) translate(4 328)">
<title>imap_mdata_free</title>
<polygon fill="#ffffff" stroke="transparent" points="-4,4 -4,-328 272,-328 272,4 -4,4"/>
<!-- Node49809 -->
<g id="node1" class="node">
<title>Node49809</title>
<polygon fill="#bfbfbf" stroke="#000000" points="0,-152.5 0,-171.5 103,-171.5 103,-152.5 0,-152.5"/>
<text text-anchor="middle" x="51.5" y="-159.5" font-family="Helvetica,sans-Serif" font-size="10.00" fill="#000000">imap_mdata_free</text>
</g>
<!-- Node49810 -->
<g id="node2" class="node">
<title>Node49810</title>
<g id="a_node2"><a xlink:href="imap_2lib_8h.html#ad29c8310856c366b81a118ff231ed35c" target="_top" xlink:title="Create a new IMAP mailbox. ">
<polygon fill="#ffffff" stroke="#ff0000" points="142.5,-304.5 142.5,-323.5 264.5,-323.5 264.5,-304.5 142.5,-304.5"/>
<text text-anchor="middle" x="203.5" y="-311.5" font-family="Helvetica,sans-Serif" font-size="10.00" fill="#000000">imap_mailbox_create</text>
</a>
</g>
</g>
<!-- Node49809&#45;&gt;Node49810 -->
<g id="edge1" class="edge">
<title>Node49809&#45;&gt;Node49810</title>
<path fill="none" stroke="#191970" d="M58.9583,-181.1315C71.2357,-210.1172 98.4539,-264.9576 139,-295 144.2525,-298.8918 150.2935,-301.9902 156.5266,-304.456"/>
<polygon fill="#191970" stroke="#191970" points="62.1344,-179.6511 55.114,-171.7161 55.6538,-182.2972 62.1344,-179.6511"/>
</g>
<!-- Node50278 -->
<g id="node3" class="node">
<title>Node50278</title>
<g id="a_node3"><a xlink:href="imap_2lib_8h.html#ae031b576b34ef1f6cb04aeaaab1c4bb7" target="_top" xlink:title="Rename a mailbox. ">
<polygon fill="#ffffff" stroke="#ff0000" points="139,-266.5 139,-285.5 268,-285.5 268,-266.5 139,-266.5"/>
<text text-anchor="middle" x="203.5" y="-273.5" font-family="Helvetica,sans-Serif" font-size="10.00" fill="#000000">imap_mailbox_rename</text>
</a>
</g>
</g>
<!-- Node49809&#45;&gt;Node50278 -->
<g id="edge2" class="edge">
<title>Node49809&#45;&gt;Node50278</title>
<path fill="none" stroke="#191970" d="M63.5677,-180.1952C78.7123,-201.6361 106.6583,-236.882 139,-257 145.1457,-260.8229 152.0978,-263.9085 159.1052,-266.3897"/>
<polygon fill="#191970" stroke="#191970" points="66.2615,-177.9355 57.7125,-171.6773 60.4929,-181.9008 66.2615,-177.9355"/>
</g>
<!-- Node50051 -->
<g id="node4" class="node">
<title>Node50051</title>
<g id="a_node4"><a xlink:href="imap_2lib_8h.html#a0d5f24d9ba8d3ef9e95134cae1198408" target="_top" xlink:title="Refresh the number of total and new messages. ">
<polygon fill="#ffffff" stroke="#ff0000" points="151.5,-228.5 151.5,-247.5 255.5,-247.5 255.5,-228.5 151.5,-228.5"/>
<text text-anchor="middle" x="203.5" y="-235.5" font-family="Helvetica,sans-Serif" font-size="10.00" fill="#000000">imap_path_status</text>
</a>
</g>
</g>
<!-- Node49809&#45;&gt;Node50051 -->
<g id="edge3" class="edge">
<title>Node49809&#45;&gt;Node50051</title>
<path fill="none" stroke="#191970" d="M71.7145,-177.6166C88.8426,-190.232 114.4635,-207.6898 139,-219 146.9512,-222.6651 155.7795,-225.8135 164.2887,-228.4333"/>
<polygon fill="#191970" stroke="#191970" points="73.6829,-174.718 63.5825,-171.5192 69.4836,-180.3185 73.6829,-174.718"/>
</g>
<!-- Node50308 -->
<g id="node5" class="node">
<title>Node50308</title>
<g id="a_node5"><a xlink:href="imap_2lib_8h.html#a36034876b5ce260ff6d70a435f8f36ca" target="_top" xlink:title="Subscribe to a mailbox. ">
<polygon fill="#ffffff" stroke="#ff0000" points="157,-190.5 157,-209.5 250,-209.5 250,-190.5 157,-190.5"/>
<text text-anchor="middle" x="203.5" y="-197.5" font-family="Helvetica,sans-Serif" font-size="10.00" fill="#000000">imap_subscribe</text>
</a>
</g>
</g>
<!-- Node49809&#45;&gt;Node50308 -->
<g id="edge4" class="edge">
<title>Node49809&#45;&gt;Node50308</title>
<path fill="none" stroke="#191970" d="M99.66,-174.04C120.8951,-179.3488 145.495,-185.4988 165.4198,-190.4799"/>
<polygon fill="#191970" stroke="#191970" points="100.4063,-170.6189 89.856,-171.589 98.7085,-177.4099 100.4063,-170.6189"/>
</g>
<!-- Node49868 -->
<g id="node6" class="node">
<title>Node49868</title>
<g id="a_node6"><a xlink:href="imap_2lib_8h.html#a768ec60d7525b728f5f1b1cd6789c8e8" target="_top" xlink:title="Try to complete an IMAP folder path. ">
<polygon fill="#ffffff" stroke="#ff0000" points="157.5,-152.5 157.5,-171.5 249.5,-171.5 249.5,-152.5 157.5,-152.5"/>
<text text-anchor="middle" x="203.5" y="-159.5" font-family="Helvetica,sans-Serif" font-size="10.00" fill="#000000">imap_complete</text>
</a>
</g>
</g>
<!-- Node49809&#45;&gt;Node49868 -->
<g id="edge5" class="edge">
<title>Node49809&#45;&gt;Node49868</title>
<path fill="none" stroke="#191970" d="M113.4268,-162C128.1414,-162 143.5853,-162 157.447,-162"/>
<polygon fill="#191970" stroke="#191970" points="113.3847,-158.5001 103.3846,-162 113.3846,-165.5001 113.3847,-158.5001"/>
</g>
<!-- Node49887 -->
<g id="node7" class="node">
<title>Node49887</title>
<g id="a_node7"><a xlink:href="imap_2lib_8h.html#af182b942c92c298d0b1762e7c8a2660f" target="_top" xlink:title="Use server COPY command to copy deleted messages to trash. ">
<polygon fill="#ffffff" stroke="#ff0000" points="156,-114.5 156,-133.5 251,-133.5 251,-114.5 156,-114.5"/>
<text text-anchor="middle" x="203.5" y="-121.5" font-family="Helvetica,sans-Serif" font-size="10.00" fill="#000000">imap_fast_trash</text>
</a>
</g>
</g>
<!-- Node49809&#45;&gt;Node49887 -->
<g id="edge6" class="edge">
<title>Node49809&#45;&gt;Node49887</title>
<path fill="none" stroke="#191970" d="M99.66,-149.96C120.8951,-144.6512 145.495,-138.5012 165.4198,-133.5201"/>
<polygon fill="#191970" stroke="#191970" points="98.7085,-146.5901 89.856,-152.411 100.4063,-153.3811 98.7085,-146.5901"/>
</g>
<!-- Node49837 -->
<g id="node8" class="node">
<title>Node49837</title>
<g id="a_node8"><a xlink:href="imap_8c.html#a426ab6becdd21a3bc74f8aa240bd8f33" target="_top" xlink:title="Add a Mailbox to an Account &#45; Implements MxOps::ac_add() ">
<polygon fill="#ffffff" stroke="#000000" points="163,-76.5 163,-95.5 244,-95.5 244,-76.5 163,-76.5"/>
<text text-anchor="middle" x="203.5" y="-83.5" font-family="Helvetica,sans-Serif" font-size="10.00" fill="#000000">imap_ac_add</text>
</a>
</g>
</g>
<!-- Node49809&#45;&gt;Node49837 -->
<g id="edge7" class="edge">
<title>Node49809&#45;&gt;Node49837</title>
<path fill="none" stroke="#191970" d="M71.7145,-146.3834C88.8426,-133.768 114.4635,-116.3102 139,-105 146.9512,-101.3349 155.7795,-98.1865 164.2887,-95.5667"/>
<polygon fill="#191970" stroke="#191970" points="69.4836,-143.6815 63.5825,-152.4808 73.6829,-149.282 69.4836,-143.6815"/>
</g>
<!-- Node50325 -->
<g id="node9" class="node">
<title>Node50325</title>
<g id="a_node9"><a xlink:href="util_8c.html#a78c7437c0f185ed8ab37e666b8a69ec0" target="_top" xlink:title="Get the path of the parent folder. ">
<polygon fill="#ffffff" stroke="#ff0000" points="140.5,-38.5 140.5,-57.5 266.5,-57.5 266.5,-38.5 140.5,-38.5"/>
<text text-anchor="middle" x="203.5" y="-45.5" font-family="Helvetica,sans-Serif" font-size="10.00" fill="#000000">imap_get_parent_path</text>
</a>
</g>
</g>
<!-- Node49809&#45;&gt;Node50325 -->
<g id="edge8" class="edge">
<title>Node49809&#45;&gt;Node50325</title>
<path fill="none" stroke="#191970" d="M63.5677,-143.8048C78.7123,-122.3639 106.6583,-87.118 139,-67 145.1457,-63.1771 152.0978,-60.0915 159.1052,-57.6103"/>
<polygon fill="#191970" stroke="#191970" points="60.4929,-142.0992 57.7125,-152.3227 66.2615,-146.0645 60.4929,-142.0992"/>
</g>
<!-- Node50329 -->
<g id="node10" class="node">
<title>Node50329</title>
<g id="a_node10"><a xlink:href="util_8c.html#a7c4dbc9f84be00789935c291832b75b2" target="_top" xlink:title="Cleans an IMAP path using imap_fix_path. ">
<polygon fill="#ffffff" stroke="#ff0000" points="153.5,-.5 153.5,-19.5 253.5,-19.5 253.5,-.5 153.5,-.5"/>
<text text-anchor="middle" x="203.5" y="-7.5" font-family="Helvetica,sans-Serif" font-size="10.00" fill="#000000">imap_clean_path</text>
</a>
</g>
</g>
<!-- Node49809&#45;&gt;Node50329 -->
<g id="edge9" class="edge">
<title>Node49809&#45;&gt;Node50329</title>
<path fill="none" stroke="#191970" d="M58.9583,-142.8685C71.2357,-113.8828 98.4539,-59.0424 139,-29 144.2525,-25.1082 150.2935,-22.0098 156.5266,-19.544"/>
<polygon fill="#191970" stroke="#191970" points="55.6538,-141.7028 55.114,-152.2839 62.1344,-144.3489 55.6538,-141.7028"/>
</g>
</g>
</svg>
