<?xml version="1.0" encoding="UTF-8" standalone="no"?>
<!DOCTYPE svg PUBLIC "-//W3C//DTD SVG 1.1//EN"
 "http://www.w3.org/Graphics/SVG/1.1/DTD/svg11.dtd">
<!-- Generated by graphviz version 2.44.0 (0)
 -->
<!-- Title: imap_read_headers Pages: 1 -->
<svg width="239pt" height="66pt"
 viewBox="0.00 0.00 239.00 66.00" xmlns="http://www.w3.org/2000/svg" xmlns:xlink="http://www.w3.org/1999/xlink">
<g id="graph0" class="graph" transform="scale(1 1) rotate(0) translate(4 62)">
<title>imap_read_headers</title>
<polygon fill="white" stroke="transparent" points="-4,4 -4,-62 235,-62 235,4 -4,4"/>
<!-- Node1 -->
<g id="node1" class="node">
<title>Node1</title>
<g id="a_node1"><a xlink:title="Read headers from the server.">
<polygon fill="#bfbfbf" stroke="black" points="129,-19.5 129,-38.5 231,-38.5 231,-19.5 129,-19.5"/>
<text text-anchor="middle" x="180" y="-26.5" font-family="Helvetica" font-size="10.00">imap_read_headers</text>
</a>
</g>
</g>
<!-- Node2 -->
<g id="node2" class="node">
<title>Node2</title>
<g id="a_node2"><a xlink:href="imap_2private_8h.html#af2ca39cef31791d421e96e168ee1bda5" target="_top" xlink:title="Attempt to perform cleanup.">
<polygon fill="white" stroke="red" points="1.5,-38.5 1.5,-57.5 91.5,-57.5 91.5,-38.5 1.5,-38.5"/>
<text text-anchor="middle" x="46.5" y="-45.5" font-family="Helvetica" font-size="10.00">imap_cmd_finish</text>
</a>
</g>
</g>
<!-- Node1&#45;&gt;Node2 -->
<g id="edge1" class="edge">
<title>Node1&#45;&gt;Node2</title>
<path fill="none" stroke="midnightblue" d="M118.77,-37.7C109.71,-39.01 100.5,-40.34 91.85,-41.59"/>
<polygon fill="midnightblue" stroke="midnightblue" points="119.51,-41.13 128.91,-36.24 118.51,-34.2 119.51,-41.13"/>
</g>
<!-- Node232 -->
<g id="node3" class="node">
<title>Node232</title>
<g id="a_node3"><a xlink:href="imap_8c.html#ac97da7839145e4cf23c319967ecc7001" target="_top" xlink:title="Open a mailbox &#45; Implements MxOps::mbox_open()">
<polygon fill="white" stroke="black" points="0,-0.5 0,-19.5 93,-19.5 93,-0.5 0,-0.5"/>
<text text-anchor="middle" x="46.5" y="-7.5" font-family="Helvetica" font-size="10.00">imap_mbox_open</text>
</a>
</g>
</g>
<!-- Node1&#45;&gt;Node232 -->
<g id="edge2" class="edge">
<title>Node1&#45;&gt;Node232</title>
<path fill="none" stroke="midnightblue" d="M118.86,-20.31C110.21,-19.06 101.44,-17.79 93.13,-16.59"/>
<polygon fill="midnightblue" stroke="midnightblue" points="118.51,-23.8 128.91,-21.76 119.51,-16.87 118.51,-23.8"/>
</g>
</g>
</svg>
