<?xml version="1.0" encoding="UTF-8" standalone="no"?>
<!DOCTYPE svg PUBLIC "-//W3C//DTD SVG 1.1//EN"
 "http://www.w3.org/Graphics/SVG/1.1/DTD/svg11.dtd">
<!-- Generated by graphviz version 7.1.0 (0)
 -->
<!-- Title: imap_check_mailbox Pages: 1 -->
<svg width="282pt" height="175pt"
 viewBox="0.00 0.00 282.00 175.00" xmlns="http://www.w3.org/2000/svg" xmlns:xlink="http://www.w3.org/1999/xlink">
<g id="graph0" class="graph" transform="scale(1 1) rotate(0) translate(4 171)">
<title>imap_check_mailbox</title>
<!-- Node1 -->
<g id="node1" class="node">
<title>Node1</title>
<g id="a_node1"><a xlink:title="Use the NOOP or IDLE command to poll for new mail.">
<polygon fill="#999999" stroke="#666666" points="274,-93 164,-93 164,-74 274,-74 274,-93"/>
<text text-anchor="middle" x="219" y="-81" font-family="Helvetica,sans-Serif" font-size="10.00">imap_check_mailbox</text>
</a>
</g>
</g>
<!-- Node2 -->
<g id="node2" class="node">
<title>Node2</title>
<g id="a_node2"><a xlink:href="util_8c.html#acc4065d4fc98a5231a4b4a52f9cd6f52" target="_top" xlink:title="Poll the current folder to keep the connection alive.">
<polygon fill="#fff0f0" stroke="red" points="110,-167 18,-167 18,-148 110,-148 110,-167"/>
<text text-anchor="middle" x="64" y="-155" font-family="Helvetica,sans-Serif" font-size="10.00">imap_keep_alive</text>
</a>
</g>
</g>
<!-- Node1&#45;&gt;Node2 -->
<g id="edge1" class="edge">
<title>Node1&#45;&gt;Node2</title>
<path fill="none" stroke="#63b8ff" d="M195.72,-99.82C178.07,-112.12 152.41,-128.67 128,-139.5 121.14,-142.54 113.63,-145.21 106.26,-147.5"/>
<polygon fill="#63b8ff" stroke="#63b8ff" points="197.27,-103.01 203.4,-94.36 193.22,-97.3 197.27,-103.01"/>
</g>
<!-- Node700 -->
<g id="node3" class="node">
<title>Node700</title>
<g id="a_node3"><a xlink:href="group__mx__mbox__check.html#gab274718bd33e0eb6ce4e102d9483d085" target="_top" xlink:title="Check for new mail &#45; Implements MxOps::mbox_check() &#45;.">
<polygon fill="white" stroke="#666666" points="114.5,-130 13.5,-130 13.5,-111 114.5,-111 114.5,-130"/>
<text text-anchor="middle" x="64" y="-118" font-family="Helvetica,sans-Serif" font-size="10.00">imap_mbox_check</text>
</a>
</g>
</g>
<!-- Node1&#45;&gt;Node700 -->
<g id="edge2" class="edge">
<title>Node1&#45;&gt;Node700</title>
<path fill="none" stroke="#63b8ff" d="M165.83,-96.12C146.33,-100.83 124.48,-106.12 106.11,-110.56"/>
<polygon fill="#63b8ff" stroke="#63b8ff" points="166.63,-99.52 175.53,-93.77 164.99,-92.72 166.63,-99.52"/>
</g>
<!-- Node299 -->
<g id="node4" class="node">
<title>Node299</title>
<g id="a_node4"><a xlink:href="imap_8c.html#ac964d627e8a2fad2b74d00096594d0ed" target="_top" xlink:title="Sync all the changes to the server.">
<polygon fill="#fff0f0" stroke="red" points="116,-93 12,-93 12,-74 116,-74 116,-93"/>
<text text-anchor="middle" x="64" y="-81" font-family="Helvetica,sans-Serif" font-size="10.00">imap_sync_mailbox</text>
</a>
</g>
</g>
<!-- Node1&#45;&gt;Node299 -->
<g id="edge3" class="edge">
<title>Node1&#45;&gt;Node299</title>
<path fill="none" stroke="#63b8ff" d="M152.27,-83.5C140.26,-83.5 127.89,-83.5 116.38,-83.5"/>
<polygon fill="#63b8ff" stroke="#63b8ff" points="152.11,-87 162.11,-83.5 152.11,-80 152.11,-87"/>
</g>
<!-- Node701 -->
<g id="node5" class="node">
<title>Node701</title>
<g id="a_node5"><a xlink:href="group__observer__api.html#gadb8fb5371e79acd99a711766d44506a1" target="_top" xlink:title="Notification that a timeout has occurred &#45; Implements observer_t &#45;.">
<polygon fill="#fff0f0" stroke="red" points="128,-56 0,-56 0,-37 128,-37 128,-56"/>
<text text-anchor="middle" x="64" y="-44" font-family="Helvetica,sans-Serif" font-size="10.00">imap_timeout_observer</text>
</a>
</g>
</g>
<!-- Node1&#45;&gt;Node701 -->
<g id="edge4" class="edge">
<title>Node1&#45;&gt;Node701</title>
<path fill="none" stroke="#63b8ff" d="M165.83,-70.88C146.33,-66.17 124.48,-60.88 106.11,-56.44"/>
<polygon fill="#63b8ff" stroke="#63b8ff" points="164.99,-74.28 175.53,-73.23 166.63,-67.48 164.99,-74.28"/>
</g>
<!-- Node704 -->
<g id="node6" class="node">
<title>Node704</title>
<g id="a_node6"><a xlink:href="group__index__function__api.html#gab0a32c45e3c4a6da96f70a2afa28b3aa" target="_top" xlink:title="Force retrieval of mail from IMAP server &#45; Implements index_function_t &#45;.">
<polygon fill="white" stroke="#666666" points="119.5,-19 8.5,-19 8.5,0 119.5,0 119.5,-19"/>
<text text-anchor="middle" x="64" y="-7" font-family="Helvetica,sans-Serif" font-size="10.00">op_main_imap_fetch</text>
</a>
</g>
</g>
<!-- Node1&#45;&gt;Node704 -->
<g id="edge5" class="edge">
<title>Node1&#45;&gt;Node704</title>
<path fill="none" stroke="#63b8ff" d="M194.82,-67.05C177.16,-55.09 151.89,-39.19 128,-28.5 120.28,-25.05 111.76,-22 103.55,-19.42"/>
<polygon fill="#63b8ff" stroke="#63b8ff" points="192.81,-69.91 203.03,-72.71 196.78,-64.15 192.81,-69.91"/>
</g>
</g>
</svg>
