<?xml version="1.0" encoding="UTF-8" standalone="no"?>
<!DOCTYPE svg PUBLIC "-//W3C//DTD SVG 1.1//EN"
 "http://www.w3.org/Graphics/SVG/1.1/DTD/svg11.dtd">
<!-- Generated by graphviz version 2.40.1 (20161225.0304)
 -->
<!-- Title: mutt_seqset_iterator_new Pages: 1 -->
<svg width="292pt" height="66pt"
 viewBox="0.00 0.00 292.00 66.00" xmlns="http://www.w3.org/2000/svg" xmlns:xlink="http://www.w3.org/1999/xlink">
<g id="graph0" class="graph" transform="scale(1 1) rotate(0) translate(4 62)">
<title>mutt_seqset_iterator_new</title>
<polygon fill="#ffffff" stroke="transparent" points="-4,4 -4,-62 288,-62 288,4 -4,4"/>
<!-- Node56792 -->
<g id="node1" class="node">
<title>Node56792</title>
<polygon fill="#bfbfbf" stroke="#000000" points="0,-19.5 0,-38.5 144,-38.5 144,-19.5 0,-19.5"/>
<text text-anchor="middle" x="72" y="-26.5" font-family="Helvetica,sans-Serif" font-size="10.00" fill="#000000">mutt_seqset_iterator_new</text>
</g>
<!-- Node56793 -->
<g id="node2" class="node">
<title>Node56793</title>
<g id="a_node2"><a xlink:href="memory_8c.html#a4c1612d209c7825d55e6a014df352f03" target="_top" xlink:title="Allocate zeroed memory on the heap. ">
<polygon fill="#ffffff" stroke="#ff0000" points="180,-38.5 180,-57.5 284,-57.5 284,-38.5 180,-38.5"/>
<text text-anchor="middle" x="232" y="-45.5" font-family="Helvetica,sans-Serif" font-size="10.00" fill="#000000">mutt_mem_calloc</text>
</a>
</g>
</g>
<!-- Node56792&#45;&gt;Node56793 -->
<g id="edge1" class="edge">
<title>Node56792&#45;&gt;Node56793</title>
<path fill="none" stroke="#191970" d="M144.043,-37.5551C152.6525,-38.5775 161.3861,-39.6146 169.8397,-40.6185"/>
<polygon fill="#191970" stroke="#191970" points="169.6422,-44.1195 179.9852,-41.8232 170.4677,-37.1684 169.6422,-44.1195"/>
</g>
<!-- Node56795 -->
<g id="node3" class="node">
<title>Node56795</title>
<g id="a_node3"><a xlink:href="mutt_2string_8c.html#a4c2560f787bd1226b977992c16860c98" target="_top" xlink:title="Copy a string, safely. ">
<polygon fill="#ffffff" stroke="#000000" points="191.5,-.5 191.5,-19.5 272.5,-19.5 272.5,-.5 191.5,-.5"/>
<text text-anchor="middle" x="232" y="-7.5" font-family="Helvetica,sans-Serif" font-size="10.00" fill="#000000">mutt_str_dup</text>
</a>
</g>
</g>
<!-- Node56792&#45;&gt;Node56795 -->
<g id="edge2" class="edge">
<title>Node56792&#45;&gt;Node56795</title>
<path fill="none" stroke="#191970" d="M144.043,-20.4449C156.617,-18.9517 169.4558,-17.4271 181.3004,-16.0206"/>
<polygon fill="#191970" stroke="#191970" points="181.9042,-19.4736 191.4216,-14.8187 181.0787,-12.5224 181.9042,-19.4736"/>
</g>
</g>
</svg>
