<?xml version="1.0" encoding="UTF-8" standalone="no"?>
<!DOCTYPE svg PUBLIC "-//W3C//DTD SVG 1.1//EN"
 "http://www.w3.org/Graphics/SVG/1.1/DTD/svg11.dtd">
<!-- Generated by graphviz version 12.2.1 (20241206.2353)
 -->
<!-- Title: imap_append_message Pages: 1 -->
<svg width="416pt" height="606pt"
 viewBox="0.00 0.00 416.00 606.25" xmlns="http://www.w3.org/2000/svg" xmlns:xlink="http://www.w3.org/1999/xlink">
<g id="graph0" class="graph" transform="scale(1 1) rotate(0) translate(4 602.25)">
<title>imap_append_message</title>
<!-- Node1 -->
<g id="Node000001" class="node">
<title>Node1</title>
<g id="a_Node000001"><a xlink:title="Write an email back to the server.">
<polygon fill="#999999" stroke="#666666" points="124,-300.25 0,-300.25 0,-278 124,-278 124,-300.25"/>
<text text-anchor="middle" x="62" y="-286.75" font-family="Helvetica,sans-Serif" font-size="10.00">imap_append_message</text>
</a>
</g>
</g>
<!-- Node2 -->
<g id="Node000002" class="node">
<title>Node2</title>
<g id="a_Node000002"><a xlink:href="buffer_8c.html#a9924e74ddcb5280ab380e4627d1fba99" target="_top" xlink:title="Add a string to a Buffer.">
<polygon fill="#fff0f0" stroke="red" points="253.62,-598.25 187.38,-598.25 187.38,-576 253.62,-576 253.62,-598.25"/>
<text text-anchor="middle" x="220.5" y="-584.75" font-family="Helvetica,sans-Serif" font-size="10.00">buf_addstr</text>
</a>
</g>
</g>
<!-- Node1&#45;&gt;Node2 -->
<g id="edge1_Node000001_Node000002" class="edge">
<title>Node1&#45;&gt;Node2</title>
<g id="a_edge1_Node000001_Node000002"><a xlink:title=" ">
<path fill="none" stroke="#63b8ff" d="M63.54,-300.5C66.13,-342.27 80.75,-488.78 160,-567.12 164.67,-571.74 170.43,-575.29 176.52,-578.02"/>
<polygon fill="#63b8ff" stroke="#63b8ff" points="174.92,-581.16 185.51,-581.36 177.35,-574.6 174.92,-581.16"/>
</a>
</g>
</g>
<!-- Node7 -->
<g id="Node000007" class="node">
<title>Node7</title>
<g id="a_Node000007"><a xlink:href="pool_8c.html#a41cba27c25d33cb6822789a2856093f2" target="_top" xlink:title="Get a Buffer from the pool.">
<polygon fill="#fff0f0" stroke="red" points="258.88,-558.25 182.12,-558.25 182.12,-536 258.88,-536 258.88,-558.25"/>
<text text-anchor="middle" x="220.5" y="-544.75" font-family="Helvetica,sans-Serif" font-size="10.00">buf_pool_get</text>
</a>
</g>
</g>
<!-- Node1&#45;&gt;Node7 -->
<g id="edge2_Node000001_Node000007" class="edge">
<title>Node1&#45;&gt;Node7</title>
<g id="a_edge2_Node000001_Node000007"><a xlink:title=" ">
<path fill="none" stroke="#63b8ff" d="M64.32,-300.7C69.28,-338.79 90.23,-461.6 160,-527.12 163.44,-530.36 167.42,-533.07 171.66,-535.34"/>
<polygon fill="#63b8ff" stroke="#63b8ff" points="169.94,-538.41 180.5,-539.27 172.79,-532.01 169.94,-538.41"/>
</a>
</g>
</g>
<!-- Node10 -->
<g id="Node000010" class="node">
<title>Node10</title>
<g id="a_Node000010"><a xlink:href="pool_8c.html#a4cc6068279461cb8628219586dfa35a1" target="_top" xlink:title="Return a Buffer to the pool.">
<polygon fill="#fff0f0" stroke="red" points="267.88,-518.25 173.12,-518.25 173.12,-496 267.88,-496 267.88,-518.25"/>
<text text-anchor="middle" x="220.5" y="-504.75" font-family="Helvetica,sans-Serif" font-size="10.00">buf_pool_release</text>
</a>
</g>
</g>
<!-- Node1&#45;&gt;Node10 -->
<g id="edge3_Node000001_Node000010" class="edge">
<title>Node1&#45;&gt;Node10</title>
<g id="a_edge3_Node000001_Node000010"><a xlink:title=" ">
<path fill="none" stroke="#63b8ff" d="M65.31,-300.39C72.75,-333.9 99.27,-433.88 160,-487.12 160.94,-487.95 161.92,-488.74 162.93,-489.5"/>
<polygon fill="#63b8ff" stroke="#63b8ff" points="161.04,-492.45 171.39,-494.71 164.71,-486.49 161.04,-492.45"/>
</a>
</g>
</g>
<!-- Node15 -->
<g id="Node000015" class="node">
<title>Node15</title>
<g id="a_Node000015"><a xlink:href="buffer_8h.html#a728ebc5a947b77c8d56db44ce553a7ab" target="_top" xlink:title="Convert a buffer to a const char * &quot;string&quot;.">
<polygon fill="white" stroke="#666666" points="252.12,-460.25 188.88,-460.25 188.88,-438 252.12,-438 252.12,-460.25"/>
<text text-anchor="middle" x="220.5" y="-446.75" font-family="Helvetica,sans-Serif" font-size="10.00">buf_string</text>
</a>
</g>
</g>
<!-- Node1&#45;&gt;Node15 -->
<g id="edge4_Node000001_Node000015" class="edge">
<title>Node1&#45;&gt;Node15</title>
<g id="a_edge4_Node000001_Node000015"><a xlink:title=" ">
<path fill="none" stroke="#63b8ff" d="M67.75,-300.39C79.46,-326.82 112.25,-393.24 160,-429.12 165.36,-433.15 171.57,-436.4 177.93,-439.01"/>
<polygon fill="#63b8ff" stroke="#63b8ff" points="176.61,-442.25 187.2,-442.31 178.96,-435.66 176.61,-442.25"/>
</a>
</g>
</g>
<!-- Node16 -->
<g id="Node000016" class="node">
<title>Node16</title>
<g id="a_Node000016"><a xlink:href="imap_2message_8c.html#a6d20c017931a27796e7462278f74defe" target="_top" xlink:title="Write data to a connection.">
<polygon fill="white" stroke="#666666" points="256.62,-420.25 184.38,-420.25 184.38,-398 256.62,-398 256.62,-420.25"/>
<text text-anchor="middle" x="220.5" y="-406.75" font-family="Helvetica,sans-Serif" font-size="10.00">flush_buffer</text>
</a>
</g>
</g>
<!-- Node1&#45;&gt;Node16 -->
<g id="edge6_Node000001_Node000016" class="edge">
<title>Node1&#45;&gt;Node16</title>
<g id="a_edge6_Node000001_Node000016"><a xlink:title=" ">
<path fill="none" stroke="#63b8ff" d="M71.03,-300.43C86.16,-320.95 120.92,-364.49 160,-389.12 164.21,-391.78 168.81,-394.12 173.53,-396.18"/>
<polygon fill="#63b8ff" stroke="#63b8ff" points="171.95,-399.32 182.54,-399.7 174.49,-392.8 171.95,-399.32"/>
</a>
</g>
</g>
<!-- Node17 -->
<g id="Node000017" class="node">
<title>Node17</title>
<g id="a_Node000017"><a xlink:href="imap_2adata_8c.html#abe5c03ce9b5a9a60450482316b4d99ea" target="_top" xlink:title="Get the Account data for this mailbox.">
<polygon fill="white" stroke="#666666" points="264.88,-380.25 176.12,-380.25 176.12,-358 264.88,-358 264.88,-380.25"/>
<text text-anchor="middle" x="220.5" y="-366.75" font-family="Helvetica,sans-Serif" font-size="10.00">imap_adata_get</text>
</a>
</g>
</g>
<!-- Node1&#45;&gt;Node17 -->
<g id="edge7_Node000001_Node000017" class="edge">
<title>Node1&#45;&gt;Node17</title>
<g id="a_edge7_Node000001_Node000017"><a xlink:title=" ">
<path fill="none" stroke="#63b8ff" d="M79.17,-300.74C97.91,-313.82 130.07,-335.07 160,-349.12 163.3,-350.68 166.76,-352.17 170.28,-353.58"/>
<polygon fill="#63b8ff" stroke="#63b8ff" points="168.89,-356.8 179.48,-357.06 171.37,-350.25 168.89,-356.8"/>
</a>
</g>
</g>
<!-- Node18 -->
<g id="Node000018" class="node">
<title>Node18</title>
<g id="a_Node000018"><a xlink:href="imap_2command_8c.html#a07786a21982bd266c8faca5423b7f2cf" target="_top" xlink:title="Given an IMAP command, send it to the server.">
<polygon fill="#fff0f0" stroke="red" points="264.88,-340.25 176.12,-340.25 176.12,-318 264.88,-318 264.88,-340.25"/>
<text text-anchor="middle" x="220.5" y="-326.75" font-family="Helvetica,sans-Serif" font-size="10.00">imap_cmd_start</text>
</a>
</g>
</g>
<!-- Node1&#45;&gt;Node18 -->
<g id="edge8_Node000001_Node000018" class="edge">
<title>Node1&#45;&gt;Node18</title>
<g id="a_edge8_Node000001_Node000018"><a xlink:title=" ">
<path fill="none" stroke="#63b8ff" d="M108.27,-300.69C125.92,-305.21 146.31,-310.42 164.77,-315.14"/>
<polygon fill="#63b8ff" stroke="#63b8ff" points="163.66,-318.47 174.22,-317.55 165.4,-311.68 163.66,-318.47"/>
</a>
</g>
</g>
<!-- Node47 -->
<g id="Node000047" class="node">
<title>Node47</title>
<g id="a_Node000047"><a xlink:href="imap_2command_8c.html#a8b9d7c9333e35981d94074e9dcc28e6f" target="_top" xlink:title="Reads server responses from an IMAP command.">
<polygon fill="#fff0f0" stroke="red" points="264.12,-300.25 176.88,-300.25 176.88,-278 264.12,-278 264.12,-300.25"/>
<text text-anchor="middle" x="220.5" y="-286.75" font-family="Helvetica,sans-Serif" font-size="10.00">imap_cmd_step</text>
</a>
</g>
</g>
<!-- Node1&#45;&gt;Node47 -->
<g id="edge9_Node000001_Node000047" class="edge">
<title>Node1&#45;&gt;Node47</title>
<g id="a_edge9_Node000001_Node000047"><a xlink:title=" ">
<path fill="none" stroke="#63b8ff" d="M124.4,-289.12C137.92,-289.12 152.13,-289.12 165.33,-289.12"/>
<polygon fill="#63b8ff" stroke="#63b8ff" points="165.12,-292.63 175.12,-289.13 165.12,-285.63 165.12,-292.63"/>
</a>
</g>
</g>
<!-- Node50 -->
<g id="Node000050" class="node">
<title>Node50</title>
<g id="a_Node000050"><a xlink:href="util_8c.html#adeb5e149a78c8a6dc9e5763fd015577a" target="_top" xlink:title="Find where the next IMAP word begins.">
<polygon fill="#fff0f0" stroke="red" points="408,-280.25 317,-280.25 317,-258 408,-258 408,-280.25"/>
<text text-anchor="middle" x="362.5" y="-266.75" font-family="Helvetica,sans-Serif" font-size="10.00">imap_next_word</text>
</a>
</g>
</g>
<!-- Node1&#45;&gt;Node50 -->
<g id="edge12_Node000001_Node000050" class="edge">
<title>Node1&#45;&gt;Node50</title>
<g id="a_edge12_Node000001_Node000050"><a xlink:title=" ">
<path fill="none" stroke="#63b8ff" d="M109.57,-277.52C125.46,-274.1 143.41,-270.82 160,-269.12 208.88,-264.14 264.79,-264.62 305.29,-266.08"/>
<polygon fill="#63b8ff" stroke="#63b8ff" points="304.91,-269.57 315.04,-266.46 305.18,-262.57 304.91,-269.57"/>
</a>
</g>
</g>
<!-- Node66 -->
<g id="Node000066" class="node">
<title>Node66</title>
<g id="a_Node000066"><a xlink:href="imap_2mdata_8c.html#a567e2876fed5edb8626c5fefba4ac7ce" target="_top" xlink:title="Get the Mailbox data for this mailbox.">
<polygon fill="white" stroke="#666666" points="266.75,-222.25 174.25,-222.25 174.25,-200 266.75,-200 266.75,-222.25"/>
<text text-anchor="middle" x="220.5" y="-208.75" font-family="Helvetica,sans-Serif" font-size="10.00">imap_mdata_get</text>
</a>
</g>
</g>
<!-- Node1&#45;&gt;Node66 -->
<g id="edge11_Node000001_Node000066" class="edge">
<title>Node1&#45;&gt;Node66</title>
<g id="a_edge11_Node000001_Node000066"><a xlink:title=" ">
<path fill="none" stroke="#63b8ff" d="M82.75,-277.56C102.14,-266.39 132.68,-249.28 160,-236.12 166.36,-233.06 173.19,-229.99 179.88,-227.1"/>
<polygon fill="#63b8ff" stroke="#63b8ff" points="180.94,-230.46 188.79,-223.33 178.22,-224.01 180.94,-230.46"/>
</a>
</g>
</g>
<!-- Node1280 -->
<g id="Node001280" class="node">
<title>Node1280</title>
<g id="a_Node001280"><a xlink:href="mutt_2date_8c.html#a871b4f63007a26f13156262ff04f0286" target="_top" xlink:title="Format date in IMAP style: DD&#45;MMM&#45;YYYY HH:MM:SS +ZZzz.">
<polygon fill="#fff0f0" stroke="red" points="281,-182.25 160,-182.25 160,-160 281,-160 281,-182.25"/>
<text text-anchor="middle" x="220.5" y="-168.75" font-family="Helvetica,sans-Serif" font-size="10.00">mutt_date_make_imap</text>
</a>
</g>
</g>
<!-- Node1&#45;&gt;Node1280 -->
<g id="edge13_Node000001_Node001280" class="edge">
<title>Node1&#45;&gt;Node1280</title>
<g id="a_edge13_Node000001_Node001280"><a xlink:title=" ">
<path fill="none" stroke="#63b8ff" d="M71.32,-277.74C86.67,-257.51 121.4,-215.18 160,-191.12 162.14,-189.79 164.38,-188.53 166.69,-187.35"/>
<polygon fill="#63b8ff" stroke="#63b8ff" points="168.05,-190.58 175.71,-183.26 165.16,-184.2 168.05,-190.58"/>
</a>
</g>
</g>
<!-- Node804 -->
<g id="Node000804" class="node">
<title>Node804</title>
<g id="a_Node000804"><a xlink:href="progress_8c.html#ab4c7a63427cdcaae2b1147ff6f010af4" target="_top" xlink:title="Free a Progress Bar.">
<polygon fill="#fff0f0" stroke="red" points="260.75,-142.25 180.25,-142.25 180.25,-120 260.75,-120 260.75,-142.25"/>
<text text-anchor="middle" x="220.5" y="-128.75" font-family="Helvetica,sans-Serif" font-size="10.00">progress_free</text>
</a>
</g>
</g>
<!-- Node1&#45;&gt;Node804 -->
<g id="edge14_Node000001_Node000804" class="edge">
<title>Node1&#45;&gt;Node804</title>
<g id="a_edge14_Node000001_Node000804"><a xlink:title=" ">
<path fill="none" stroke="#63b8ff" d="M67.98,-277.63C79.93,-251.33 112.83,-186.33 160,-151.12 162.97,-148.91 166.2,-146.93 169.57,-145.16"/>
<polygon fill="#63b8ff" stroke="#63b8ff" points="170.91,-148.39 178.59,-141.09 168.04,-142.01 170.91,-148.39"/>
</a>
</g>
</g>
<!-- Node805 -->
<g id="Node000805" class="node">
<title>Node805</title>
<g id="a_Node000805"><a xlink:href="progress_8c.html#a551a8d9e844532e2851d6bee121c09b3" target="_top" xlink:title="Create a new Progress Bar.">
<polygon fill="#fff0f0" stroke="red" points="260.38,-102.25 180.62,-102.25 180.62,-80 260.38,-80 260.38,-102.25"/>
<text text-anchor="middle" x="220.5" y="-88.75" font-family="Helvetica,sans-Serif" font-size="10.00">progress_new</text>
</a>
</g>
</g>
<!-- Node1&#45;&gt;Node805 -->
<g id="edge15_Node000001_Node000805" class="edge">
<title>Node1&#45;&gt;Node805</title>
<g id="a_edge15_Node000001_Node000805"><a xlink:title=" ">
<path fill="none" stroke="#63b8ff" d="M66.04,-277.66C74.93,-246.28 103.92,-158.17 160,-111.12 163.01,-108.6 166.36,-106.38 169.89,-104.45"/>
<polygon fill="#63b8ff" stroke="#63b8ff" points="171.19,-107.7 178.79,-100.33 168.25,-101.35 171.19,-107.7"/>
</a>
</g>
</g>
<!-- Node816 -->
<g id="Node000816" class="node">
<title>Node816</title>
<g id="a_Node000816"><a xlink:href="progress_2lib_8h.html#abd7142bf1b3c664cf1c3edca7c9b41d8" target="_top" xlink:title=" ">
<polygon fill="#fff0f0" stroke="red" points="281,-62.25 160,-62.25 160,-40 281,-40 281,-62.25"/>
<text text-anchor="middle" x="220.5" y="-48.75" font-family="Helvetica,sans-Serif" font-size="10.00">progress_set_message</text>
</a>
</g>
</g>
<!-- Node1&#45;&gt;Node816 -->
<g id="edge16_Node000001_Node000816" class="edge">
<title>Node1&#45;&gt;Node816</title>
<g id="a_edge16_Node000001_Node000816"><a xlink:title=" ">
<path fill="none" stroke="#63b8ff" d="M64.77,-277.77C70.92,-241.99 94.73,-130.5 160,-71.12 160.93,-70.28 161.89,-69.47 162.89,-68.7"/>
<polygon fill="#63b8ff" stroke="#63b8ff" points="164.68,-71.71 171.28,-63.42 160.95,-65.78 164.68,-71.71"/>
</a>
</g>
</g>
<!-- Node819 -->
<g id="Node000819" class="node">
<title>Node819</title>
<g id="a_Node000819"><a xlink:href="progress_8c.html#ae0ca330f9059a039a4ece5cb1b00155b" target="_top" xlink:title="Update the state of the progress bar.">
<polygon fill="#fff0f0" stroke="red" points="267.5,-22.25 173.5,-22.25 173.5,0 267.5,0 267.5,-22.25"/>
<text text-anchor="middle" x="220.5" y="-8.75" font-family="Helvetica,sans-Serif" font-size="10.00">progress_update</text>
</a>
</g>
</g>
<!-- Node1&#45;&gt;Node819 -->
<g id="edge17_Node000001_Node000819" class="edge">
<title>Node1&#45;&gt;Node819</title>
<g id="a_edge17_Node000001_Node000819"><a xlink:title=" ">
<path fill="none" stroke="#63b8ff" d="M63.89,-277.73C67.62,-237.85 85.46,-103.08 160,-31.12 161.2,-29.97 162.47,-28.87 163.8,-27.85"/>
<polygon fill="#63b8ff" stroke="#63b8ff" points="165.34,-31.01 171.96,-22.74 161.63,-25.08 165.34,-31.01"/>
</a>
</g>
</g>
<!-- Node15&#45;&gt;Node15 -->
<g id="edge5_Node000015_Node000015" class="edge">
<title>Node15&#45;&gt;Node15</title>
<g id="a_edge5_Node000015_Node000015"><a xlink:title=" ">
<path fill="none" stroke="#63b8ff" d="M197.31,-460.49C188.64,-469.28 196.37,-478.25 220.5,-478.25 233.7,-478.25 241.99,-475.57 245.37,-471.7"/>
<polygon fill="#63b8ff" stroke="#63b8ff" points="248.86,-471.35 243.91,-461.98 241.94,-472.39 248.86,-471.35"/>
</a>
</g>
</g>
<!-- Node47&#45;&gt;Node50 -->
<g id="edge10_Node000047_Node000050" class="edge">
<title>Node47&#45;&gt;Node50</title>
<g id="a_edge10_Node000047_Node000050"><a xlink:title=" ">
<path fill="none" stroke="#63b8ff" d="M264.27,-283.02C277.21,-281.17 291.62,-279.11 305.3,-277.15"/>
<polygon fill="#63b8ff" stroke="#63b8ff" points="305.67,-280.64 315.07,-275.76 304.68,-273.71 305.67,-280.64"/>
</a>
</g>
</g>
</g>
</svg>
