<?xml version="1.0" encoding="UTF-8" standalone="no"?>
<!DOCTYPE svg PUBLIC "-//W3C//DTD SVG 1.1//EN"
 "http://www.w3.org/Graphics/SVG/1.1/DTD/svg11.dtd">
<!-- Generated by graphviz version 7.1.0 (0)
 -->
<!-- Title: cmd_parse_list Pages: 1 -->
<svg width="429pt" height="216pt"
 viewBox="0.00 0.00 429.00 216.00" xmlns="http://www.w3.org/2000/svg" xmlns:xlink="http://www.w3.org/1999/xlink">
<g id="graph0" class="graph" transform="scale(1 1) rotate(0) translate(4 212)">
<title>cmd_parse_list</title>
<!-- Node1 -->
<g id="node1" class="node">
<title>Node1</title>
<g id="a_node1"><a xlink:title="Parse a server LIST command (list mailboxes)">
<polygon fill="#999999" stroke="#666666" points="84,-113 0,-113 0,-94 84,-94 84,-113"/>
<text text-anchor="middle" x="42" y="-101" font-family="Helvetica,sans-Serif" font-size="10.00">cmd_parse_list</text>
</a>
</g>
</g>
<!-- Node2 -->
<g id="node2" class="node">
<title>Node2</title>
<g id="a_node2"><a xlink:href="imap_2command_8c.html#a8b9d7c9333e35981d94074e9dcc28e6f" target="_top" xlink:title="Reads server responses from an IMAP command.">
<polygon fill="#fff0f0" stroke="red" points="239,-208 151,-208 151,-189 239,-189 239,-208"/>
<text text-anchor="middle" x="195" y="-196" font-family="Helvetica,sans-Serif" font-size="10.00">imap_cmd_step</text>
</a>
</g>
</g>
<!-- Node1&#45;&gt;Node2 -->
<g id="edge1" class="edge">
<title>Node1&#45;&gt;Node2</title>
<path fill="none" stroke="#63b8ff" d="M51.21,-113.43C64.27,-128.64 91.28,-157.7 120,-174.5 126.81,-178.49 134.38,-181.9 141.99,-184.8"/>
<polygon fill="#63b8ff" stroke="#63b8ff" points="140.68,-188.05 151.28,-188.06 143,-181.45 140.68,-188.05"/>
</g>
<!-- Node219 -->
<g id="node3" class="node">
<title>Node219</title>
<g id="a_node3"><a xlink:href="util_8c.html#adeb5e149a78c8a6dc9e5763fd015577a" target="_top" xlink:title="Find where the next IMAP word begins.">
<polygon fill="#fff0f0" stroke="red" points="409.5,-189 317.5,-189 317.5,-170 409.5,-170 409.5,-189"/>
<text text-anchor="middle" x="363.5" y="-177" font-family="Helvetica,sans-Serif" font-size="10.00">imap_next_word</text>
</a>
</g>
</g>
<!-- Node1&#45;&gt;Node219 -->
<g id="edge4" class="edge">
<title>Node1&#45;&gt;Node219</title>
<path fill="none" stroke="#63b8ff" d="M59.51,-113.49C74.7,-122.22 98.12,-134.56 120,-141.5 182,-161.15 256.26,-170.88 306.13,-175.53"/>
<polygon fill="#63b8ff" stroke="#63b8ff" points="305.54,-178.99 315.81,-176.39 306.16,-172.02 305.54,-178.99"/>
</g>
<!-- Node351 -->
<g id="node4" class="node">
<title>Node351</title>
<g id="a_node4"><a xlink:href="util_8c.html#a3a3aa36d9170dbd75353b08e9c54f0ae" target="_top" xlink:title="Write number of bytes in an IMAP literal into bytes.">
<polygon fill="#fff0f0" stroke="red" points="255,-132 135,-132 135,-113 255,-113 255,-132"/>
<text text-anchor="middle" x="195" y="-120" font-family="Helvetica,sans-Serif" font-size="10.00">imap_get_literal_count</text>
</a>
</g>
</g>
<!-- Node1&#45;&gt;Node351 -->
<g id="edge3" class="edge">
<title>Node1&#45;&gt;Node351</title>
<path fill="none" stroke="#63b8ff" d="M84.26,-108.69C96.4,-110.22 110.05,-111.94 123.48,-113.63"/>
<polygon fill="#63b8ff" stroke="#63b8ff" points="122.81,-117.07 133.17,-114.85 123.69,-110.12 122.81,-117.07"/>
</g>
<!-- Node1266 -->
<g id="node5" class="node">
<title>Node1266</title>
<g id="a_node5"><a xlink:href="util_8c.html#a09db8de472b96f057813558da6a65a8e" target="_top" xlink:title="Remove quoting from a mailbox name.">
<polygon fill="#fff0f0" stroke="red" points="270,-95 120,-95 120,-76 270,-76 270,-95"/>
<text text-anchor="middle" x="195" y="-83" font-family="Helvetica,sans-Serif" font-size="10.00">imap_unmunge_mbox_name</text>
</a>
</g>
</g>
<!-- Node1&#45;&gt;Node1266 -->
<g id="edge5" class="edge">
<title>Node1&#45;&gt;Node1266</title>
<path fill="none" stroke="#63b8ff" d="M84.26,-98.58C91.83,-97.68 99.97,-96.71 108.29,-95.72"/>
<polygon fill="#63b8ff" stroke="#63b8ff" points="108.67,-99.2 118.19,-94.54 107.84,-92.25 108.67,-99.2"/>
</g>
<!-- Node1267 -->
<g id="node6" class="node">
<title>Node1267</title>
<g id="a_node6"><a xlink:href="util_8c.html#a6d953ab75341a9942b06408013083a15" target="_top" xlink:title="Equally stupid unquoting routine.">
<polygon fill="white" stroke="#666666" points="421,-76 306,-76 306,-57 421,-57 421,-76"/>
<text text-anchor="middle" x="363.5" y="-64" font-family="Helvetica,sans-Serif" font-size="10.00">imap_unquote_string</text>
</a>
</g>
</g>
<!-- Node1&#45;&gt;Node1267 -->
<g id="edge7" class="edge">
<title>Node1&#45;&gt;Node1267</title>
<path fill="none" stroke="#63b8ff" d="M58.17,-93.67C73.18,-84.58 97.15,-71.7 120,-66.5 177.76,-53.34 245.3,-54.65 294.4,-58.5"/>
<polygon fill="#63b8ff" stroke="#63b8ff" points="294.08,-61.98 304.34,-59.34 294.67,-55 294.08,-61.98"/>
</g>
<!-- Node46 -->
<g id="node7" class="node">
<title>Node46</title>
<g id="a_node7"><a xlink:href="mutt_2string_8c.html#aebd2a8a3f8a30062c31fa1474d87cc41" target="_top" xlink:title="Check whether a string starts with a prefix, ignoring case.">
<polygon fill="#fff0f0" stroke="red" points="249.5,-19 140.5,-19 140.5,0 249.5,0 249.5,-19"/>
<text text-anchor="middle" x="195" y="-7" font-family="Helvetica,sans-Serif" font-size="10.00">mutt_istr_startswith</text>
</a>
</g>
</g>
<!-- Node1&#45;&gt;Node46 -->
<g id="edge8" class="edge">
<title>Node1&#45;&gt;Node46</title>
<path fill="none" stroke="#63b8ff" d="M51.24,-93.72C64.34,-78.73 91.4,-50.09 120,-33.5 126.83,-29.54 134.4,-26.13 142.01,-23.24"/>
<polygon fill="#63b8ff" stroke="#63b8ff" points="143.03,-26.59 151.31,-19.98 140.71,-19.99 143.03,-26.59"/>
</g>
<!-- Node2&#45;&gt;Node219 -->
<g id="edge2" class="edge">
<title>Node2&#45;&gt;Node219</title>
<path fill="none" stroke="#63b8ff" d="M239.31,-193.56C259.57,-191.25 283.96,-188.46 305.67,-185.99"/>
<polygon fill="#63b8ff" stroke="#63b8ff" points="306.04,-189.47 315.57,-184.85 305.24,-182.51 306.04,-189.47"/>
</g>
<!-- Node1266&#45;&gt;Node1267 -->
<g id="edge6" class="edge">
<title>Node1266&#45;&gt;Node1267</title>
<path fill="none" stroke="#63b8ff" d="M270.48,-77C278.4,-76.1 286.41,-75.18 294.25,-74.29"/>
<polygon fill="#63b8ff" stroke="#63b8ff" points="294.52,-77.78 304.06,-73.17 293.73,-70.83 294.52,-77.78"/>
</g>
</g>
</svg>
