<?xml version="1.0" encoding="UTF-8" standalone="no"?>
<!DOCTYPE svg PUBLIC "-//W3C//DTD SVG 1.1//EN"
 "http://www.w3.org/Graphics/SVG/1.1/DTD/svg11.dtd">
<!-- Generated by graphviz version 7.1.0 (0)
 -->
<!-- Title: complete_hosts Pages: 1 -->
<svg width="380pt" height="443pt"
 viewBox="0.00 0.00 380.00 442.77" xmlns="http://www.w3.org/2000/svg" xmlns:xlink="http://www.w3.org/1999/xlink">
<g id="graph0" class="graph" transform="scale(1 1) rotate(0) translate(4 438.77)">
<title>complete_hosts</title>
<!-- Node1 -->
<g id="node1" class="node">
<title>Node1</title>
<g id="a_node1"><a xlink:title="Look for completion matches for mailboxes.">
<polygon fill="#999999" stroke="#666666" points="89,-237.83 0,-237.83 0,-218.83 89,-218.83 89,-237.83"/>
<text text-anchor="middle" x="44.5" y="-225.83" font-family="Helvetica,sans-Serif" font-size="10.00">complete_hosts</text>
</a>
</g>
</g>
<!-- Node2 -->
<g id="node2" class="node">
<title>Node2</title>
<g id="a_node2"><a xlink:href="buffer_8c.html#a2914dc2d9a9d77e4c9970b4249be9370" target="_top" xlink:title="Calculate the length of a Buffer.">
<polygon fill="white" stroke="#666666" points="356,-406.83 305,-406.83 305,-387.83 356,-387.83 356,-406.83"/>
<text text-anchor="middle" x="330.5" y="-394.83" font-family="Helvetica,sans-Serif" font-size="10.00">buf_len</text>
</a>
</g>
</g>
<!-- Node1&#45;&gt;Node2 -->
<g id="edge1" class="edge">
<title>Node1&#45;&gt;Node2</title>
<path fill="none" stroke="#63b8ff" d="M46.08,-238.01C48.58,-270.24 61.49,-374.23 125,-416.33 177.63,-451.21 255.3,-428.74 298.19,-411.58"/>
<polygon fill="#63b8ff" stroke="#63b8ff" points="299.27,-414.92 307.16,-407.84 296.58,-408.45 299.27,-414.92"/>
</g>
<!-- Node3 -->
<g id="node3" class="node">
<title>Node3</title>
<g id="a_node3"><a xlink:href="buffer_8c.html#ac958acbd189e463a2c3bbc2f23aaeb1e" target="_top" xlink:title="Copy a string into a Buffer.">
<polygon fill="#fff0f0" stroke="red" points="221.5,-406.83 156.5,-406.83 156.5,-387.83 221.5,-387.83 221.5,-406.83"/>
<text text-anchor="middle" x="189" y="-394.83" font-family="Helvetica,sans-Serif" font-size="10.00">buf_strcpy</text>
</a>
</g>
</g>
<!-- Node1&#45;&gt;Node3 -->
<g id="edge2" class="edge">
<title>Node1&#45;&gt;Node3</title>
<path fill="none" stroke="#63b8ff" d="M47.79,-238.17C54.58,-265.07 77.17,-340.47 125,-379.33 130.86,-384.09 137.92,-387.59 145.17,-390.17"/>
<polygon fill="#63b8ff" stroke="#63b8ff" points="144.13,-393.51 154.71,-392.98 146.11,-386.8 144.13,-393.51"/>
</g>
<!-- Node16 -->
<g id="node4" class="node">
<title>Node16</title>
<g id="a_node4"><a xlink:href="buffer_8h.html#a728ebc5a947b77c8d56db44ce553a7ab" target="_top" xlink:title="Convert a buffer to a const char * &quot;string&quot;.">
<polygon fill="white" stroke="#666666" points="362.5,-293.83 298.5,-293.83 298.5,-274.83 362.5,-274.83 362.5,-293.83"/>
<text text-anchor="middle" x="330.5" y="-281.83" font-family="Helvetica,sans-Serif" font-size="10.00">buf_string</text>
</a>
</g>
</g>
<!-- Node1&#45;&gt;Node16 -->
<g id="edge3" class="edge">
<title>Node1&#45;&gt;Node16</title>
<path fill="none" stroke="#63b8ff" d="M51.95,-238.06C63.93,-255.15 91.5,-290.02 125,-303.33 180.09,-325.21 249.88,-310.66 292.04,-297.76"/>
<polygon fill="#63b8ff" stroke="#63b8ff" points="293,-301.13 301.46,-294.75 290.87,-294.46 293,-301.13"/>
</g>
<!-- Node17 -->
<g id="node5" class="node">
<title>Node17</title>
<g id="a_node5"><a xlink:href="imap_8c.html#a9229a56533493138e228a3a6c7a0df22" target="_top" xlink:title="Find longest prefix common to two strings.">
<polygon fill="#fff0f0" stroke="red" points="253,-369.83 125,-369.83 125,-350.83 253,-350.83 253,-369.83"/>
<text text-anchor="middle" x="189" y="-357.83" font-family="Helvetica,sans-Serif" font-size="10.00">longest_common_prefix</text>
</a>
</g>
</g>
<!-- Node1&#45;&gt;Node17 -->
<g id="edge4" class="edge">
<title>Node1&#45;&gt;Node17</title>
<path fill="none" stroke="#63b8ff" d="M50.24,-238.15C60.82,-259.08 88.3,-308.43 125,-336.33 129.89,-340.05 135.43,-343.25 141.13,-345.99"/>
<polygon fill="#63b8ff" stroke="#63b8ff" points="139.54,-349.12 150.11,-349.85 142.3,-342.68 139.54,-349.12"/>
</g>
<!-- Node19 -->
<g id="node6" class="node">
<title>Node19</title>
<g id="a_node6"><a xlink:href="mailbox_8h.html#a7e9739eb3e94344633f7051c2fb9453e" target="_top" xlink:title="Get the Mailbox&#39;s path string.">
<polygon fill="white" stroke="#666666" points="228,-293.83 150,-293.83 150,-274.83 228,-274.83 228,-293.83"/>
<text text-anchor="middle" x="189" y="-281.83" font-family="Helvetica,sans-Serif" font-size="10.00">mailbox_path</text>
</a>
</g>
</g>
<!-- Node1&#45;&gt;Node19 -->
<g id="edge6" class="edge">
<title>Node1&#45;&gt;Node19</title>
<path fill="none" stroke="#63b8ff" d="M64.07,-238.3C79.94,-246.55 103.54,-258.2 125,-266.33 129.43,-268.01 134.08,-269.61 138.77,-271.13"/>
<polygon fill="#63b8ff" stroke="#63b8ff" points="137.65,-274.45 148.24,-274.05 139.71,-267.76 137.65,-274.45"/>
</g>
<!-- Node20 -->
<g id="node7" class="node">
<title>Node20</title>
<g id="a_node7"><a xlink:href="mutt__account_8c.html#a7b58d7c236d1bea3a516cf682648bf3e" target="_top" xlink:title="Fill URL with info from account.">
<polygon fill="white" stroke="#666666" points="242.5,-256.83 135.5,-256.83 135.5,-237.83 242.5,-237.83 242.5,-256.83"/>
<text text-anchor="middle" x="189" y="-244.83" font-family="Helvetica,sans-Serif" font-size="10.00">mutt_account_tourl</text>
</a>
</g>
</g>
<!-- Node1&#45;&gt;Node20 -->
<g id="edge8" class="edge">
<title>Node1&#45;&gt;Node20</title>
<path fill="none" stroke="#63b8ff" d="M89.42,-234.18C100.39,-235.65 112.37,-237.24 124.09,-238.81"/>
<polygon fill="#63b8ff" stroke="#63b8ff" points="123.33,-242.24 133.71,-240.09 124.26,-235.3 123.33,-242.24"/>
</g>
<!-- Node21 -->
<g id="node8" class="node">
<title>Node21</title>
<g id="a_node8"><a xlink:href="mutt_2string_8c.html#ad20e00309de897a1e882fc7400335b83" target="_top" xlink:title="Copy a string into a buffer (guaranteeing NUL&#45;termination)">
<polygon fill="white" stroke="#666666" points="372,-115.83 289,-115.83 289,-96.83 372,-96.83 372,-115.83"/>
<text text-anchor="middle" x="330.5" y="-103.83" font-family="Helvetica,sans-Serif" font-size="10.00">mutt_str_copy</text>
</a>
</g>
</g>
<!-- Node1&#45;&gt;Node21 -->
<g id="edge9" class="edge">
<title>Node1&#45;&gt;Node21</title>
<path fill="none" stroke="#63b8ff" d="M45.68,-218.67C46.9,-184.48 56.15,-68.64 125,-21.33 171.89,10.89 201.03,1.82 253,-21.33 282.96,-34.67 306.11,-66.19 318.76,-86.87"/>
<polygon fill="#63b8ff" stroke="#63b8ff" points="315.58,-88.36 323.64,-95.24 321.63,-84.83 315.58,-88.36"/>
</g>
<!-- Node22 -->
<g id="node9" class="node">
<title>Node22</title>
<g id="a_node9"><a xlink:href="mutt_2string_8c.html#a9bf968304f4f9b49e24215cb2e28d22d" target="_top" xlink:title="Check whether a string starts with a prefix.">
<polygon fill="#fff0f0" stroke="red" points="242.5,-182.83 135.5,-182.83 135.5,-163.83 242.5,-163.83 242.5,-182.83"/>
<text text-anchor="middle" x="189" y="-170.83" font-family="Helvetica,sans-Serif" font-size="10.00">mutt_str_startswith</text>
</a>
</g>
</g>
<!-- Node1&#45;&gt;Node22 -->
<g id="edge10" class="edge">
<title>Node1&#45;&gt;Node22</title>
<path fill="none" stroke="#63b8ff" d="M65.45,-218.41C81.34,-210.72 104.29,-200.1 125,-192.33 130.28,-190.35 135.86,-188.42 141.44,-186.61"/>
<polygon fill="#63b8ff" stroke="#63b8ff" points="142.14,-190.06 150.63,-183.72 140.04,-183.38 142.14,-190.06"/>
</g>
<!-- Node24 -->
<g id="node10" class="node">
<title>Node24</title>
<g id="a_node10"><a xlink:href="mutt_2string_8c.html#a6f574867aa9db4d434adbc8af1f5f7e7" target="_top" xlink:title="Check for equality of two strings (to a maximum), safely.">
<polygon fill="white" stroke="#666666" points="235,-145.83 143,-145.83 143,-126.83 235,-126.83 235,-145.83"/>
<text text-anchor="middle" x="189" y="-133.83" font-family="Helvetica,sans-Serif" font-size="10.00">mutt_strn_equal</text>
</a>
</g>
</g>
<!-- Node1&#45;&gt;Node24 -->
<g id="edge11" class="edge">
<title>Node1&#45;&gt;Node24</title>
<path fill="none" stroke="#63b8ff" d="M53.29,-218.81C66.47,-203.3 94.72,-172.58 125,-155.33 128.18,-153.52 131.54,-151.86 135,-150.36"/>
<polygon fill="#63b8ff" stroke="#63b8ff" points="136.1,-153.68 144.15,-146.8 133.56,-147.16 136.1,-153.68"/>
</g>
<!-- Node25 -->
<g id="node11" class="node">
<title>Node25</title>
<g id="a_node11"><a xlink:href="neomutt_8c.html#a124116674adb30d3bceef08eeaad6905" target="_top" xlink:title="Free a Mailbox List.">
<polygon fill="white" stroke="#666666" points="244,-108.33 134,-108.33 134,-78.33 244,-78.33 244,-108.33"/>
<text text-anchor="start" x="142" y="-96.33" font-family="Helvetica,sans-Serif" font-size="10.00">neomutt_mailboxlist</text>
<text text-anchor="middle" x="189" y="-85.33" font-family="Helvetica,sans-Serif" font-size="10.00">_clear</text>
</a>
</g>
</g>
<!-- Node1&#45;&gt;Node25 -->
<g id="edge12" class="edge">
<title>Node1&#45;&gt;Node25</title>
<path fill="none" stroke="#63b8ff" d="M50.22,-218.36C60.76,-197.12 88.18,-146.98 125,-118.33 126.74,-116.97 128.57,-115.68 130.45,-114.45"/>
<polygon fill="#63b8ff" stroke="#63b8ff" points="132.04,-117.58 138.98,-109.57 128.56,-111.5 132.04,-117.58"/>
</g>
<!-- Node26 -->
<g id="node12" class="node">
<title>Node26</title>
<g id="a_node12"><a xlink:href="neomutt_8c.html#a74862fb7702c895aaacaebb097af8bb2" target="_top" xlink:title="Get a List of all Mailboxes.">
<polygon fill="#fff0f0" stroke="red" points="244,-60.33 134,-60.33 134,-30.33 244,-30.33 244,-60.33"/>
<text text-anchor="start" x="142" y="-48.33" font-family="Helvetica,sans-Serif" font-size="10.00">neomutt_mailboxlist</text>
<text text-anchor="middle" x="189" y="-37.33" font-family="Helvetica,sans-Serif" font-size="10.00">_get_all</text>
</a>
</g>
</g>
<!-- Node1&#45;&gt;Node26 -->
<g id="edge13" class="edge">
<title>Node1&#45;&gt;Node26</title>
<path fill="none" stroke="#63b8ff" d="M47.72,-218.59C54.45,-191.2 77.17,-112.61 125,-69.33 125.91,-68.5 126.85,-67.71 127.82,-66.94"/>
<polygon fill="#63b8ff" stroke="#63b8ff" points="129.54,-69.99 135.91,-61.53 125.65,-64.18 129.54,-69.99"/>
</g>
<!-- Node28 -->
<g id="node13" class="node">
<title>Node28</title>
<g id="a_node13"><a xlink:href="url_8c.html#a4cdc82c89b3fa52b384a16ef0e971d68" target="_top" xlink:title="Output the URL string for a given Url object.">
<polygon fill="#fff0f0" stroke="red" points="224.5,-219.83 153.5,-219.83 153.5,-200.83 224.5,-200.83 224.5,-219.83"/>
<text text-anchor="middle" x="189" y="-207.83" font-family="Helvetica,sans-Serif" font-size="10.00">url_tostring</text>
</a>
</g>
</g>
<!-- Node1&#45;&gt;Node28 -->
<g id="edge14" class="edge">
<title>Node1&#45;&gt;Node28</title>
<path fill="none" stroke="#63b8ff" d="M89.42,-222.78C106.03,-220.68 124.98,-218.29 141.79,-216.17"/>
<polygon fill="#63b8ff" stroke="#63b8ff" points="142.05,-219.66 151.53,-214.93 141.18,-212.72 142.05,-219.66"/>
</g>
<!-- Node17&#45;&gt;Node2 -->
<g id="edge5" class="edge">
<title>Node17&#45;&gt;Node2</title>
<path fill="none" stroke="#63b8ff" d="M227.38,-370.24C247.99,-375.71 273.44,-382.46 293.77,-387.85"/>
<polygon fill="#63b8ff" stroke="#63b8ff" points="292.76,-391.2 303.32,-390.38 294.55,-384.44 292.76,-391.2"/>
</g>
<!-- Node19&#45;&gt;Node16 -->
<g id="edge7" class="edge">
<title>Node19&#45;&gt;Node16</title>
<path fill="none" stroke="#63b8ff" d="M228.49,-284.33C246.57,-284.33 268.18,-284.33 286.77,-284.33"/>
<polygon fill="#63b8ff" stroke="#63b8ff" points="286.67,-287.83 296.67,-284.33 286.67,-280.83 286.67,-287.83"/>
</g>
<!-- Node28&#45;&gt;Node16 -->
<g id="edge15" class="edge">
<title>Node28&#45;&gt;Node16</title>
<path fill="none" stroke="#63b8ff" d="M224.79,-218.59C234.19,-221.41 244.19,-224.98 253,-229.33 273.7,-239.54 294.82,-255.2 309.61,-267.2"/>
<polygon fill="#63b8ff" stroke="#63b8ff" points="307.26,-269.8 317.18,-273.5 311.73,-264.42 307.26,-269.8"/>
</g>
<!-- Node28&#45;&gt;Node21 -->
<g id="edge16" class="edge">
<title>Node28&#45;&gt;Node21</title>
<path fill="none" stroke="#63b8ff" d="M224.83,-204.13C234.43,-201.45 244.52,-197.65 253,-192.33 280.39,-175.11 303.74,-145.28 317.19,-125.67"/>
<polygon fill="#63b8ff" stroke="#63b8ff" points="320.01,-127.75 322.62,-117.48 314.18,-123.88 320.01,-127.75"/>
</g>
</g>
</svg>
