<?xml version="1.0" encoding="UTF-8" standalone="no"?>
<!DOCTYPE svg PUBLIC "-//W3C//DTD SVG 1.1//EN"
 "http://www.w3.org/Graphics/SVG/1.1/DTD/svg11.dtd">
<!-- Generated by graphviz version 2.40.1 (20161225.0304)
 -->
<!-- Title: imap_mbox_open_append Pages: 1 -->
<svg width="446pt" height="161pt"
 viewBox="0.00 0.00 446.00 161.35" xmlns="http://www.w3.org/2000/svg" xmlns:xlink="http://www.w3.org/1999/xlink">
<g id="graph0" class="graph" transform="scale(1 1) rotate(0) translate(4 157.3455)">
<title>imap_mbox_open_append</title>
<polygon fill="#ffffff" stroke="transparent" points="-4,4 -4,-157.3455 442,-157.3455 442,4 -4,4"/>
<!-- Node64261 -->
<g id="node1" class="node">
<title>Node64261</title>
<polygon fill="#bfbfbf" stroke="#000000" points="0,-76.5 0,-95.5 145,-95.5 145,-76.5 0,-76.5"/>
<text text-anchor="middle" x="72.5" y="-83.5" font-family="Helvetica,sans-Serif" font-size="10.00" fill="#000000">imap_mbox_open_append</text>
</g>
<!-- Node64262 -->
<g id="node2" class="node">
<title>Node64262</title>
<g id="a_node2"><a xlink:href="imap__private_8h.html#a0ca70f0a790494cb3e6cbdaf3cb004a4" target="_top" xlink:title="Get the Account data for this mailbox. ">
<polygon fill="#ffffff" stroke="#000000" points="341,-133.5 341,-152.5 436,-152.5 436,-133.5 341,-133.5"/>
<text text-anchor="middle" x="388.5" y="-140.5" font-family="Helvetica,sans-Serif" font-size="10.00" fill="#000000">imap_adata_get</text>
</a>
</g>
</g>
<!-- Node64261&#45;&gt;Node64262 -->
<g id="edge1" class="edge">
<title>Node64261&#45;&gt;Node64262</title>
<path fill="none" stroke="#191970" d="M85.678,-95.6628C105.2803,-109.3735 143.8144,-133.8268 181,-143 230.4368,-155.1955 288.5386,-153.9239 330.6662,-150.3387"/>
<polygon fill="#191970" stroke="#191970" points="331.11,-153.8128 340.7471,-149.411 330.4684,-146.8422 331.11,-153.8128"/>
</g>
<!-- Node64263 -->
<g id="node3" class="node">
<title>Node64263</title>
<g id="a_node3"><a xlink:href="imap__private_8h.html#acdbc54bfe42c13f551c58b0a9b9ba8ff" target="_top" xlink:title="Get the Mailbox data for this mailbox. ">
<polygon fill="#ffffff" stroke="#000000" points="339,-95.5 339,-114.5 438,-114.5 438,-95.5 339,-95.5"/>
<text text-anchor="middle" x="388.5" y="-102.5" font-family="Helvetica,sans-Serif" font-size="10.00" fill="#000000">imap_mdata_get</text>
</a>
</g>
</g>
<!-- Node64261&#45;&gt;Node64263 -->
<g id="edge2" class="edge">
<title>Node64261&#45;&gt;Node64263</title>
<path fill="none" stroke="#191970" d="M145.3936,-90.3828C200.9291,-93.722 276.4596,-98.2634 328.5203,-101.3936"/>
<polygon fill="#191970" stroke="#191970" points="328.4146,-104.8935 338.6066,-102.0001 328.8348,-97.9061 328.4146,-104.8935"/>
</g>
<!-- Node64264 -->
<g id="node4" class="node">
<title>Node64264</title>
<g id="a_node4"><a xlink:href="imap_8c.html#a0b252c6e7f2cc646db9414ea27a11a55" target="_top" xlink:title="Refresh the number of total and new messages. ">
<polygon fill="#ffffff" stroke="#ff0000" points="181,-114.5 181,-133.5 303,-133.5 303,-114.5 181,-114.5"/>
<text text-anchor="middle" x="242" y="-121.5" font-family="Helvetica,sans-Serif" font-size="10.00" fill="#000000">imap_mailbox_status</text>
</a>
</g>
</g>
<!-- Node64261&#45;&gt;Node64264 -->
<g id="edge3" class="edge">
<title>Node64261&#45;&gt;Node64264</title>
<path fill="none" stroke="#191970" d="M115.272,-95.589C137.8409,-100.6487 165.7232,-106.8996 189.5833,-112.2488"/>
<polygon fill="#191970" stroke="#191970" points="189.0121,-115.7075 199.5356,-114.4799 190.5435,-108.8771 189.0121,-115.7075"/>
</g>
<!-- Node64595 -->
<g id="node5" class="node">
<title>Node64595</title>
<g id="a_node5"><a xlink:href="curs__lib_8c.html#a67a4f6d2c21c9de420130089bb20505c" target="_top" xlink:title="Ask the user a Yes/No question. ">
<polygon fill="#ffffff" stroke="#ff0000" points="200,-38.5 200,-57.5 284,-57.5 284,-38.5 200,-38.5"/>
<text text-anchor="middle" x="242" y="-45.5" font-family="Helvetica,sans-Serif" font-size="10.00" fill="#000000">mutt_yesorno</text>
</a>
</g>
</g>
<!-- Node64261&#45;&gt;Node64595 -->
<g id="edge6" class="edge">
<title>Node64261&#45;&gt;Node64595</title>
<path fill="none" stroke="#191970" d="M115.272,-76.411C137.9267,-71.3321 165.9353,-65.0529 189.8553,-59.6903"/>
<polygon fill="#191970" stroke="#191970" points="190.8367,-63.0572 199.8288,-57.4543 189.3054,-56.2267 190.8367,-63.0572"/>
</g>
<!-- Node65337 -->
<g id="node6" class="node">
<title>Node65337</title>
<g id="a_node6"><a xlink:href="imap_8c.html#aee0bf2d345124a22054cbf217b6fb5f0" target="_top" xlink:title="Create a new mailbox. ">
<polygon fill="#ffffff" stroke="#ff0000" points="181,-.5 181,-19.5 303,-19.5 303,-.5 181,-.5"/>
<text text-anchor="middle" x="242" y="-7.5" font-family="Helvetica,sans-Serif" font-size="10.00" fill="#000000">imap_create_mailbox</text>
</a>
</g>
</g>
<!-- Node64261&#45;&gt;Node65337 -->
<g id="edge7" class="edge">
<title>Node64261&#45;&gt;Node65337</title>
<path fill="none" stroke="#191970" d="M88.596,-76.3539C109.3988,-64.1683 146.9931,-43.0915 181,-29 186.383,-26.7694 192.1253,-24.6543 197.8529,-22.7011"/>
<polygon fill="#191970" stroke="#191970" points="198.9951,-26.01 207.4119,-19.5751 196.8193,-19.3567 198.9951,-26.01"/>
</g>
<!-- Node64264&#45;&gt;Node64262 -->
<g id="edge4" class="edge">
<title>Node64264&#45;&gt;Node64262</title>
<path fill="none" stroke="#191970" d="M303.2803,-131.9476C312.3953,-133.1298 321.7643,-134.3449 330.8022,-135.517"/>
<polygon fill="#191970" stroke="#191970" points="330.4673,-139.0028 340.8344,-136.8181 331.3677,-132.0609 330.4673,-139.0028"/>
</g>
<!-- Node64264&#45;&gt;Node64263 -->
<g id="edge5" class="edge">
<title>Node64264&#45;&gt;Node64263</title>
<path fill="none" stroke="#191970" d="M303.2803,-116.0524C311.6418,-114.968 320.2171,-113.8558 328.5545,-112.7745"/>
<polygon fill="#191970" stroke="#191970" points="329.1091,-116.232 338.5759,-111.4748 328.2088,-109.2901 329.1091,-116.232"/>
</g>
</g>
</svg>
