<?xml version="1.0" encoding="UTF-8" standalone="no"?>
<!DOCTYPE svg PUBLIC "-//W3C//DTD SVG 1.1//EN"
 "http://www.w3.org/Graphics/SVG/1.1/DTD/svg11.dtd">
<!-- Generated by graphviz version 7.1.0 (0)
 -->
<!-- Title: imap/auth.c Pages: 1 -->
<svg width="414pt" height="137pt"
 viewBox="0.00 0.00 414.38 137.00" xmlns="http://www.w3.org/2000/svg" xmlns:xlink="http://www.w3.org/1999/xlink">
<g id="graph0" class="graph" transform="scale(1 1) rotate(0) translate(4 133)">
<title>imap/auth.c</title>
<!-- Node1 -->
<g id="node1" class="node">
<title>Node1</title>
<g id="a_node1"><a xlink:title="IMAP authenticator multiplexor.">
<polygon fill="#999999" stroke="#666666" points="240,-129 169,-129 169,-110 240,-110 240,-129"/>
<text text-anchor="middle" x="204.5" y="-117" font-family="Helvetica,sans-Serif" font-size="10.00">imap/auth.c</text>
</a>
</g>
</g>
<!-- Node2 -->
<g id="node2" class="node">
<title>Node2</title>
<g id="a_node2"><a xlink:title=" ">
<polygon fill="#e0e0e0" stroke="#999999" points="173.5,-19 119.5,-19 119.5,0 173.5,0 173.5,-19"/>
<text text-anchor="middle" x="146.5" y="-7" font-family="Helvetica,sans-Serif" font-size="10.00">config.h</text>
</a>
</g>
</g>
<!-- Node1&#45;&gt;Node2 -->
<g id="edge1" class="edge">
<title>Node1&#45;&gt;Node2</title>
<path fill="none" stroke="#63b8ff" d="M195.15,-109.78C186.61,-101.35 174.18,-87.86 166.5,-74 158.86,-60.21 153.68,-43.09 150.51,-30.1"/>
<polygon fill="#63b8ff" stroke="#63b8ff" points="154,-29.63 148.4,-20.63 147.16,-31.15 154,-29.63"/>
</g>
<!-- Node3 -->
<g id="node3" class="node">
<title>Node3</title>
<g id="a_node3"><a xlink:title=" ">
<polygon fill="#e0e0e0" stroke="#999999" points="118,-74 65,-74 65,-55 118,-55 118,-74"/>
<text text-anchor="middle" x="91.5" y="-62" font-family="Helvetica,sans-Serif" font-size="10.00">string.h</text>
</a>
</g>
</g>
<!-- Node1&#45;&gt;Node3 -->
<g id="edge2" class="edge">
<title>Node1&#45;&gt;Node3</title>
<path fill="none" stroke="#63b8ff" d="M185.33,-109.51C167.61,-101.2 141.02,-88.73 120.67,-79.18"/>
<polygon fill="#63b8ff" stroke="#63b8ff" points="122.3,-76.08 111.76,-75 119.32,-82.42 122.3,-76.08"/>
</g>
<!-- Node4 -->
<g id="node4" class="node">
<title>Node4</title>
<g id="a_node4"><a xlink:href="imap_2private_8h.html" target="_top" xlink:title="Shared constants/structs that are private to IMAP.">
<polygon fill="#fff0f0" stroke="red" points="234,-74 175,-74 175,-55 234,-55 234,-74"/>
<text text-anchor="middle" x="204.5" y="-62" font-family="Helvetica,sans-Serif" font-size="10.00">private.h</text>
</a>
</g>
</g>
<!-- Node1&#45;&gt;Node4 -->
<g id="edge3" class="edge">
<title>Node1&#45;&gt;Node4</title>
<path fill="none" stroke="#63b8ff" d="M204.5,-109.75C204.5,-103.27 204.5,-94.16 204.5,-85.9"/>
<polygon fill="#63b8ff" stroke="#63b8ff" points="208,-85.96 204.5,-75.96 201,-85.96 208,-85.96"/>
</g>
<!-- Node8 -->
<g id="node5" class="node">
<title>Node8</title>
<g id="a_node5"><a xlink:href="config_2lib_8h.html" target="_top" xlink:title="Convenience wrapper for the config headers.">
<polygon fill="#fff0f0" stroke="red" points="356.5,-19 288.5,-19 288.5,0 356.5,0 356.5,-19"/>
<text text-anchor="middle" x="322.5" y="-7" font-family="Helvetica,sans-Serif" font-size="10.00">config/lib.h</text>
</a>
</g>
</g>
<!-- Node1&#45;&gt;Node8 -->
<g id="edge7" class="edge">
<title>Node1&#45;&gt;Node8</title>
<path fill="none" stroke="#63b8ff" d="M240.22,-115.66C291.41,-110.77 381.69,-98.79 401.5,-74 417.96,-53.4 388.08,-35.16 360.47,-23.57"/>
<polygon fill="#63b8ff" stroke="#63b8ff" points="362.1,-20.45 351.51,-20.03 359.52,-26.96 362.1,-20.45"/>
</g>
<!-- Node20 -->
<g id="node6" class="node">
<title>Node20</title>
<g id="a_node6"><a xlink:href="mutt_2lib_8h.html" target="_top" xlink:title="Convenience wrapper for the library headers.">
<polygon fill="#fff0f0" stroke="red" points="314.5,-74 252.5,-74 252.5,-55 314.5,-55 314.5,-74"/>
<text text-anchor="middle" x="283.5" y="-62" font-family="Helvetica,sans-Serif" font-size="10.00">mutt/lib.h</text>
</a>
</g>
</g>
<!-- Node1&#45;&gt;Node20 -->
<g id="edge6" class="edge">
<title>Node1&#45;&gt;Node20</title>
<path fill="none" stroke="#63b8ff" d="M217.9,-109.51C229.66,-101.62 247.01,-89.98 260.91,-80.65"/>
<polygon fill="#63b8ff" stroke="#63b8ff" points="262.69,-83.68 269.04,-75.2 258.79,-77.87 262.69,-83.68"/>
</g>
<!-- Node69 -->
<g id="node7" class="node">
<title>Node69</title>
<g id="a_node7"><a xlink:href="core_2lib_8h.html" target="_top" xlink:title="Convenience wrapper for the core headers.">
<polygon fill="#fff0f0" stroke="red" points="392.5,-74 332.5,-74 332.5,-55 392.5,-55 392.5,-74"/>
<text text-anchor="middle" x="362.5" y="-62" font-family="Helvetica,sans-Serif" font-size="10.00">core/lib.h</text>
</a>
</g>
</g>
<!-- Node1&#45;&gt;Node69 -->
<g id="edge8" class="edge">
<title>Node1&#45;&gt;Node69</title>
<path fill="none" stroke="#63b8ff" d="M231.3,-109.51C257.03,-100.88 296.13,-87.76 324.95,-78.1"/>
<polygon fill="#63b8ff" stroke="#63b8ff" points="326.03,-81.43 334.4,-74.93 323.8,-74.79 326.03,-81.43"/>
</g>
<!-- Node79 -->
<g id="node8" class="node">
<title>Node79</title>
<g id="a_node8"><a xlink:href="auth_8h.html" target="_top" xlink:title="IMAP authenticator multiplexor.">
<polygon fill="#fff0f0" stroke="red" points="47,-74 0,-74 0,-55 47,-55 47,-74"/>
<text text-anchor="middle" x="23.5" y="-62" font-family="Helvetica,sans-Serif" font-size="10.00">auth.h</text>
</a>
</g>
</g>
<!-- Node1&#45;&gt;Node79 -->
<g id="edge9" class="edge">
<title>Node1&#45;&gt;Node79</title>
<path fill="none" stroke="#63b8ff" d="M173.8,-109.51C141.72,-100.12 91.5,-85.41 58.05,-75.62"/>
<polygon fill="#63b8ff" stroke="#63b8ff" points="59.44,-72.38 48.86,-72.92 57.47,-79.09 59.44,-72.38"/>
</g>
<!-- Node4&#45;&gt;Node2 -->
<g id="edge4" class="edge">
<title>Node4&#45;&gt;Node2</title>
<path fill="none" stroke="#63b8ff" d="M194.66,-54.51C186.45,-47 174.52,-36.1 164.59,-27.03"/>
<polygon fill="#63b8ff" stroke="#63b8ff" points="167.05,-24.54 157.31,-20.38 162.33,-29.71 167.05,-24.54"/>
</g>
<!-- Node4&#45;&gt;Node8 -->
<g id="edge5" class="edge">
<title>Node4&#45;&gt;Node8</title>
<path fill="none" stroke="#63b8ff" d="M224.52,-54.51C243.11,-46.16 271.04,-33.61 292.33,-24.05"/>
<polygon fill="#63b8ff" stroke="#63b8ff" points="293.71,-27.27 301.4,-19.98 290.84,-20.88 293.71,-27.27"/>
</g>
<!-- Node79&#45;&gt;Node2 -->
<g id="edge10" class="edge">
<title>Node79&#45;&gt;Node2</title>
<path fill="none" stroke="#63b8ff" d="M44.37,-54.51C63.92,-46.08 93.4,-33.38 115.67,-23.79"/>
<polygon fill="#63b8ff" stroke="#63b8ff" points="116.75,-27.13 124.55,-19.96 113.98,-20.7 116.75,-27.13"/>
</g>
</g>
</svg>
