<?xml version="1.0" encoding="UTF-8" standalone="no"?>
<!DOCTYPE svg PUBLIC "-//W3C//DTD SVG 1.1//EN"
 "http://www.w3.org/Graphics/SVG/1.1/DTD/svg11.dtd">
<!-- Generated by graphviz version 7.1.0 (0)
 -->
<!-- Title: imap_read_headers Pages: 1 -->
<svg width="249pt" height="64pt"
 viewBox="0.00 0.00 249.00 64.00" xmlns="http://www.w3.org/2000/svg" xmlns:xlink="http://www.w3.org/1999/xlink">
<g id="graph0" class="graph" transform="scale(1 1) rotate(0) translate(4 60)">
<title>imap_read_headers</title>
<!-- Node1 -->
<g id="node1" class="node">
<title>Node1</title>
<g id="a_node1"><a xlink:title="Read headers from the server.">
<polygon fill="#999999" stroke="#666666" points="241,-37 134,-37 134,-18 241,-18 241,-37"/>
<text text-anchor="middle" x="187.5" y="-25" font-family="Helvetica,sans-Serif" font-size="10.00">imap_read_headers</text>
</a>
</g>
</g>
<!-- Node2 -->
<g id="node2" class="node">
<title>Node2</title>
<g id="a_node2"><a xlink:href="imap_2command_8c.html#af2ca39cef31791d421e96e168ee1bda5" target="_top" xlink:title="Attempt to perform cleanup.">
<polygon fill="#fff0f0" stroke="red" points="95,-56 3,-56 3,-37 95,-37 95,-56"/>
<text text-anchor="middle" x="49" y="-44" font-family="Helvetica,sans-Serif" font-size="10.00">imap_cmd_finish</text>
</a>
</g>
</g>
<!-- Node1&#45;&gt;Node2 -->
<g id="edge1" class="edge">
<title>Node1&#45;&gt;Node2</title>
<path fill="none" stroke="#63b8ff" d="M122.52,-36.41C113.25,-37.7 103.88,-39 95.09,-40.22"/>
<polygon fill="#63b8ff" stroke="#63b8ff" points="122.8,-39.9 132.23,-35.05 121.84,-32.97 122.8,-39.9"/>
</g>
<!-- Node555 -->
<g id="node3" class="node">
<title>Node555</title>
<g id="a_node3"><a xlink:href="group__mx__mbox__open.html#gac97da7839145e4cf23c319967ecc7001" target="_top" xlink:title="Open a mailbox &#45; Implements MxOps::mbox_open() &#45;.">
<polygon fill="white" stroke="#666666" points="98,-19 0,-19 0,0 98,0 98,-19"/>
<text text-anchor="middle" x="49" y="-7" font-family="Helvetica,sans-Serif" font-size="10.00">imap_mbox_open</text>
</a>
</g>
</g>
<!-- Node1&#45;&gt;Node555 -->
<g id="edge2" class="edge">
<title>Node1&#45;&gt;Node555</title>
<path fill="none" stroke="#63b8ff" d="M122.33,-19.04C114.2,-17.97 105.99,-16.88 98.17,-15.85"/>
<polygon fill="#63b8ff" stroke="#63b8ff" points="121.85,-22.51 132.22,-20.34 122.77,-15.57 121.85,-22.51"/>
</g>
</g>
</svg>
