<?xml version="1.0" encoding="UTF-8" standalone="no"?>
<!DOCTYPE svg PUBLIC "-//W3C//DTD SVG 1.1//EN"
 "http://www.w3.org/Graphics/SVG/1.1/DTD/svg11.dtd">
<!-- Generated by graphviz version 2.44.0 (0)
 -->
<!-- Title: imap_account_match Pages: 1 -->
<svg width="390pt" height="218pt"
 viewBox="0.00 0.00 390.00 218.00" xmlns="http://www.w3.org/2000/svg" xmlns:xlink="http://www.w3.org/1999/xlink">
<g id="graph0" class="graph" transform="scale(1 1) rotate(0) translate(4 214)">
<title>imap_account_match</title>
<polygon fill="white" stroke="transparent" points="-4,4 -4,-214 386,-214 386,4 -4,4"/>
<!-- Node1 -->
<g id="node1" class="node">
<title>Node1</title>
<g id="a_node1"><a xlink:title="Compare two Accounts.">
<polygon fill="#bfbfbf" stroke="black" points="272,-95.5 272,-114.5 382,-114.5 382,-95.5 272,-95.5"/>
<text text-anchor="middle" x="327" y="-102.5" font-family="Helvetica" font-size="10.00">imap_account_match</text>
</a>
</g>
</g>
<!-- Node2 -->
<g id="node2" class="node">
<title>Node2</title>
<g id="a_node2"><a xlink:href="util_8c.html#ac1109505626c478d320c9817315c372b" target="_top" xlink:title="Find the Account data for this path.">
<polygon fill="white" stroke="red" points="135,-190.5 135,-209.5 223,-209.5 223,-190.5 135,-190.5"/>
<text text-anchor="middle" x="179" y="-197.5" font-family="Helvetica" font-size="10.00">imap_adata_find</text>
</a>
</g>
</g>
<!-- Node1&#45;&gt;Node2 -->
<g id="edge1" class="edge">
<title>Node1&#45;&gt;Node2</title>
<path fill="none" stroke="midnightblue" d="M307.88,-121.65C290.41,-137.12 262.76,-160.09 236,-176 226.64,-181.57 215.74,-186.54 206.06,-190.5"/>
<polygon fill="midnightblue" stroke="midnightblue" points="310.49,-124.01 315.59,-114.73 305.81,-118.81 310.49,-124.01"/>
</g>
<!-- Node410 -->
<g id="node3" class="node">
<title>Node410</title>
<g id="a_node3"><a xlink:href="imap_2lib_8h.html#af182b942c92c298d0b1762e7c8a2660f" target="_top" xlink:title="Use server COPY command to copy deleted messages to trash.">
<polygon fill="white" stroke="red" points="0,-171.5 0,-190.5 86,-190.5 86,-171.5 0,-171.5"/>
<text text-anchor="middle" x="43" y="-178.5" font-family="Helvetica" font-size="10.00">imap_fast_trash</text>
</a>
</g>
</g>
<!-- Node1&#45;&gt;Node410 -->
<g id="edge5" class="edge">
<title>Node1&#45;&gt;Node410</title>
<path fill="none" stroke="midnightblue" d="M297.35,-118.87C279.94,-126.85 257.07,-136.54 236,-143 185.48,-158.49 125.49,-169.18 86.18,-175.19"/>
<polygon fill="midnightblue" stroke="midnightblue" points="298.83,-122.04 306.42,-114.64 295.87,-115.7 298.83,-122.04"/>
</g>
<!-- Node150 -->
<g id="node4" class="node">
<title>Node150</title>
<g id="a_node4"><a xlink:href="imap_2lib_8h.html#a3148406431ca84d8cfaae786e47c5c8d" target="_top" xlink:title="IMAP hook into the folder browser.">
<polygon fill="white" stroke="red" points="142,-114.5 142,-133.5 216,-133.5 216,-114.5 142,-114.5"/>
<text text-anchor="middle" x="179" y="-121.5" font-family="Helvetica" font-size="10.00">imap_browse</text>
</a>
</g>
</g>
<!-- Node1&#45;&gt;Node150 -->
<g id="edge3" class="edge">
<title>Node1&#45;&gt;Node150</title>
<path fill="none" stroke="midnightblue" d="M261.54,-113.39C246.01,-115.41 229.95,-117.5 216.24,-119.28"/>
<polygon fill="midnightblue" stroke="midnightblue" points="262.17,-116.84 271.63,-112.07 261.27,-109.89 262.17,-116.84"/>
</g>
<!-- Node408 -->
<g id="node5" class="node">
<title>Node408</title>
<g id="a_node5"><a xlink:href="message_8c.html#a733c2961ff414db54d7259ab1387ca6c" target="_top" xlink:title="Server COPY messages to another folder.">
<polygon fill="white" stroke="red" points="122,-76.5 122,-95.5 236,-95.5 236,-76.5 122,-76.5"/>
<text text-anchor="middle" x="179" y="-83.5" font-family="Helvetica" font-size="10.00">imap_copy_messages</text>
</a>
</g>
</g>
<!-- Node1&#45;&gt;Node408 -->
<g id="edge4" class="edge">
<title>Node1&#45;&gt;Node408</title>
<path fill="none" stroke="midnightblue" d="M261.52,-96.61C253.13,-95.52 244.6,-94.41 236.36,-93.33"/>
<polygon fill="midnightblue" stroke="midnightblue" points="261.27,-100.11 271.63,-97.93 262.17,-93.16 261.27,-100.11"/>
</g>
<!-- Node280 -->
<g id="node6" class="node">
<title>Node280</title>
<g id="a_node6"><a xlink:href="imap_8c.html#ac97da7839145e4cf23c319967ecc7001" target="_top" xlink:title="Open a mailbox &#45; Implements MxOps::mbox_open()">
<polygon fill="white" stroke="black" points="132.5,-38.5 132.5,-57.5 225.5,-57.5 225.5,-38.5 132.5,-38.5"/>
<text text-anchor="middle" x="179" y="-45.5" font-family="Helvetica" font-size="10.00">imap_mbox_open</text>
</a>
</g>
</g>
<!-- Node1&#45;&gt;Node280 -->
<g id="edge6" class="edge">
<title>Node1&#45;&gt;Node280</title>
<path fill="none" stroke="midnightblue" d="M294.8,-91.17C277.58,-83.7 255.75,-74.51 236,-67 227.46,-63.75 218.09,-60.47 209.5,-57.56"/>
<polygon fill="midnightblue" stroke="midnightblue" points="293.79,-94.55 304.35,-95.34 296.59,-88.13 293.79,-94.55"/>
</g>
<!-- Node556 -->
<g id="node7" class="node">
<title>Node556</title>
<g id="a_node7"><a xlink:href="util_8c.html#a99de91a4d9fc2f36a4655277554e2c8f" target="_top" xlink:title="Prettify an IMAP mailbox name.">
<polygon fill="white" stroke="red" points="125.5,-0.5 125.5,-19.5 232.5,-19.5 232.5,-0.5 125.5,-0.5"/>
<text text-anchor="middle" x="179" y="-7.5" font-family="Helvetica" font-size="10.00">imap_pretty_mailbox</text>
</a>
</g>
</g>
<!-- Node1&#45;&gt;Node556 -->
<g id="edge7" class="edge">
<title>Node1&#45;&gt;Node556</title>
<path fill="none" stroke="midnightblue" d="M309.49,-87.69C292.47,-70.71 264.46,-45.08 236,-29 229.47,-25.31 222.12,-22.19 214.93,-19.6"/>
<polygon fill="midnightblue" stroke="midnightblue" points="307.42,-90.57 316.92,-95.26 312.41,-85.67 307.42,-90.57"/>
</g>
<!-- Node2&#45;&gt;Node410 -->
<g id="edge2" class="edge">
<title>Node2&#45;&gt;Node410</title>
<path fill="none" stroke="midnightblue" d="M124.76,-192.45C111.93,-190.63 98.39,-188.71 86.14,-186.98"/>
<polygon fill="midnightblue" stroke="midnightblue" points="124.47,-195.95 134.86,-193.88 125.45,-189.01 124.47,-195.95"/>
</g>
</g>
</svg>
