<?xml version="1.0" encoding="UTF-8" standalone="no"?>
<!DOCTYPE svg PUBLIC "-//W3C//DTD SVG 1.1//EN"
 "http://www.w3.org/Graphics/SVG/1.1/DTD/svg11.dtd">
<!-- Generated by graphviz version 2.40.1 (20161225.0304)
 -->
<!-- Title: imap_hcache_put Pages: 1 -->
<svg width="256pt" height="104pt"
 viewBox="0.00 0.00 256.00 104.00" xmlns="http://www.w3.org/2000/svg" xmlns:xlink="http://www.w3.org/1999/xlink">
<g id="graph0" class="graph" transform="scale(1 1) rotate(0) translate(4 100)">
<title>imap_hcache_put</title>
<polygon fill="#ffffff" stroke="transparent" points="-4,4 -4,-100 252,-100 252,4 -4,4"/>
<!-- Node43460 -->
<g id="node1" class="node">
<title>Node43460</title>
<polygon fill="#bfbfbf" stroke="#000000" points="0,-38.5 0,-57.5 102,-57.5 102,-38.5 0,-38.5"/>
<text text-anchor="middle" x="51" y="-45.5" font-family="Helvetica,sans-Serif" font-size="10.00" fill="#000000">imap_hcache_put</text>
</g>
<!-- Node43461 -->
<g id="node2" class="node">
<title>Node43461</title>
<g id="a_node2"><a xlink:href="imap__private_8h.html#a849b9e42b71ec60e252b9fdb9c8edfbc" target="_top" xlink:title="Get the private data for this Email. ">
<polygon fill="#ffffff" stroke="#000000" points="145.5,-76.5 145.5,-95.5 240.5,-95.5 240.5,-76.5 145.5,-76.5"/>
<text text-anchor="middle" x="193" y="-83.5" font-family="Helvetica,sans-Serif" font-size="10.00" fill="#000000">imap_edata_get</text>
</a>
</g>
</g>
<!-- Node43460&#45;&gt;Node43461 -->
<g id="edge1" class="edge">
<title>Node43460&#45;&gt;Node43461</title>
<path fill="none" stroke="#191970" d="M86.8326,-57.589C105.1634,-62.4944 127.6784,-68.5196 147.2501,-73.7571"/>
<polygon fill="#191970" stroke="#191970" points="146.614,-77.2099 157.1789,-76.4141 148.4236,-70.4479 146.614,-77.2099"/>
</g>
<!-- Node43462 -->
<g id="node3" class="node">
<title>Node43462</title>
<g id="a_node3"><a xlink:href="hcache_8c.html#a1ed43e2b7207723f17e5969519bb310b" target="_top" xlink:title="Multiplexor for HcacheOps::store. ">
<polygon fill="#ffffff" stroke="#ff0000" points="138,-38.5 138,-57.5 248,-57.5 248,-38.5 138,-38.5"/>
<text text-anchor="middle" x="193" y="-45.5" font-family="Helvetica,sans-Serif" font-size="10.00" fill="#000000">mutt_hcache_store</text>
</a>
</g>
</g>
<!-- Node43460&#45;&gt;Node43462 -->
<g id="edge2" class="edge">
<title>Node43460&#45;&gt;Node43462</title>
<path fill="none" stroke="#191970" d="M102.2653,-48C110.6017,-48 119.3324,-48 127.9456,-48"/>
<polygon fill="#191970" stroke="#191970" points="127.9721,-51.5001 137.9721,-48 127.972,-44.5001 127.9721,-51.5001"/>
</g>
<!-- Node43495 -->
<g id="node4" class="node">
<title>Node43495</title>
<g id="a_node4"><a xlink:href="mutt_2string_8c.html#aca11f88d08a860c07419df3efb18f35a" target="_top" xlink:title="Calculate the length of a string, safely. ">
<polygon fill="#ffffff" stroke="#000000" points="147.5,-.5 147.5,-19.5 238.5,-19.5 238.5,-.5 147.5,-.5"/>
<text text-anchor="middle" x="193" y="-7.5" font-family="Helvetica,sans-Serif" font-size="10.00" fill="#000000">mutt_str_strlen</text>
</a>
</g>
</g>
<!-- Node43460&#45;&gt;Node43495 -->
<g id="edge3" class="edge">
<title>Node43460&#45;&gt;Node43495</title>
<path fill="none" stroke="#191970" d="M86.8326,-38.411C105.1634,-33.5056 127.6784,-27.4804 147.2501,-22.2429"/>
<polygon fill="#191970" stroke="#191970" points="148.4236,-25.5521 157.1789,-19.5859 146.614,-18.7901 148.4236,-25.5521"/>
</g>
</g>
</svg>
