<?xml version="1.0" encoding="UTF-8" standalone="no"?>
<!DOCTYPE svg PUBLIC "-//W3C//DTD SVG 1.1//EN"
 "http://www.w3.org/Graphics/SVG/1.1/DTD/svg11.dtd">
<!-- Generated by graphviz version 12.2.1 (20241206.2353)
 -->
<!-- Title: imap_fast_trash Pages: 1 -->
<svg width="434pt" height="740pt"
 viewBox="0.00 0.00 434.00 740.25" xmlns="http://www.w3.org/2000/svg" xmlns:xlink="http://www.w3.org/1999/xlink">
<g id="graph0" class="graph" transform="scale(1 1) rotate(0) translate(4 736.25)">
<title>imap_fast_trash</title>
<!-- Node1 -->
<g id="Node000001" class="node">
<title>Node1</title>
<g id="a_Node000001"><a xlink:title="Use server COPY command to copy deleted messages to trash.">
<polygon fill="#999999" stroke="#666666" points="88,-379.25 0,-379.25 0,-357 88,-357 88,-379.25"/>
<text text-anchor="middle" x="44" y="-365.75" font-family="Helvetica,sans-Serif" font-size="10.00">imap_fast_trash</text>
</a>
</g>
</g>
<!-- Node2 -->
<g id="Node000002" class="node">
<title>Node2</title>
<g id="a_Node000002"><a xlink:href="pool_8c.html#a41cba27c25d33cb6822789a2856093f2" target="_top" xlink:title="Get a Buffer from the pool.">
<polygon fill="#fff0f0" stroke="red" points="408.38,-497.25 331.62,-497.25 331.62,-475 408.38,-475 408.38,-497.25"/>
<text text-anchor="middle" x="370" y="-483.75" font-family="Helvetica,sans-Serif" font-size="10.00">buf_pool_get</text>
</a>
</g>
</g>
<!-- Node1&#45;&gt;Node2 -->
<g id="edge1_Node000001_Node000002" class="edge">
<title>Node1&#45;&gt;Node2</title>
<g id="a_edge1_Node000001_Node000002"><a xlink:title=" ">
<path fill="none" stroke="#63b8ff" d="M50.19,-379.55C60.64,-401.07 86.5,-447.25 124,-467.12 185.5,-499.72 268.13,-498.49 319.97,-493.3"/>
<polygon fill="#63b8ff" stroke="#63b8ff" points="320.12,-496.81 329.68,-492.24 319.36,-489.85 320.12,-496.81"/>
</a>
</g>
</g>
<!-- Node10 -->
<g id="Node000010" class="node">
<title>Node10</title>
<g id="a_Node000010"><a xlink:href="pool_8c.html#a4cc6068279461cb8628219586dfa35a1" target="_top" xlink:title="Return a Buffer to the pool.">
<polygon fill="#fff0f0" stroke="red" points="417.38,-457.25 322.62,-457.25 322.62,-435 417.38,-435 417.38,-457.25"/>
<text text-anchor="middle" x="370" y="-443.75" font-family="Helvetica,sans-Serif" font-size="10.00">buf_pool_release</text>
</a>
</g>
</g>
<!-- Node1&#45;&gt;Node10 -->
<g id="edge2_Node000001_Node000010" class="edge">
<title>Node1&#45;&gt;Node10</title>
<g id="a_edge2_Node000001_Node000010"><a xlink:title=" ">
<path fill="none" stroke="#63b8ff" d="M88.36,-365.44C136.14,-363.88 214.61,-365.53 278,-387.12 303.87,-395.94 329.65,-413.72 347.13,-427.47"/>
<polygon fill="#63b8ff" stroke="#63b8ff" points="344.79,-430.08 354.76,-433.66 349.2,-424.64 344.79,-430.08"/>
</a>
</g>
</g>
<!-- Node15 -->
<g id="Node000015" class="node">
<title>Node15</title>
<g id="a_Node000015"><a xlink:href="config_2helpers_8c.html#ae50f679dd6c5bd1ba820884c8602f038" target="_top" xlink:title="Get a boolean config item by name.">
<polygon fill="#fff0f0" stroke="red" points="243.5,-654.25 158.5,-654.25 158.5,-632 243.5,-632 243.5,-654.25"/>
<text text-anchor="middle" x="201" y="-640.75" font-family="Helvetica,sans-Serif" font-size="10.00">cs_subset_bool</text>
</a>
</g>
</g>
<!-- Node1&#45;&gt;Node15 -->
<g id="edge3_Node000001_Node000015" class="edge">
<title>Node1&#45;&gt;Node15</title>
<g id="a_edge3_Node000001_Node000015"><a xlink:title=" ">
<path fill="none" stroke="#63b8ff" d="M45.13,-379.68C46.2,-418.89 55.05,-548.36 124,-618.12 130.53,-624.73 138.82,-629.59 147.52,-633.16"/>
<polygon fill="#63b8ff" stroke="#63b8ff" points="146.22,-636.41 156.81,-636.42 148.53,-629.81 146.22,-636.41"/>
</a>
</g>
</g>
<!-- Node32 -->
<g id="Node000032" class="node">
<title>Node32</title>
<g id="a_Node000032"><a xlink:href="util_8c.html#ac2225c270b21b238b8f64e1f7090baf0" target="_top" xlink:title="Compare two Accounts.">
<polygon fill="#fff0f0" stroke="red" points="426,-712.25 314,-712.25 314,-690 426,-690 426,-712.25"/>
<text text-anchor="middle" x="370" y="-698.75" font-family="Helvetica,sans-Serif" font-size="10.00">imap_account_match</text>
</a>
</g>
</g>
<!-- Node1&#45;&gt;Node32 -->
<g id="edge4_Node000001_Node000032" class="edge">
<title>Node1&#45;&gt;Node32</title>
<g id="a_edge4_Node000001_Node000032"><a xlink:title=" ">
<path fill="none" stroke="#63b8ff" d="M46.41,-379.6C52.71,-429.1 80.01,-623.64 124,-663.12 149.65,-686.15 239.07,-695.24 302.45,-698.81"/>
<polygon fill="#63b8ff" stroke="#63b8ff" points="301.88,-702.29 312.06,-699.32 302.25,-695.3 301.88,-702.29"/>
</a>
</g>
</g>
<!-- Node38 -->
<g id="Node000038" class="node">
<title>Node38</title>
<g id="a_Node000038"><a xlink:href="util_8c.html#ac1109505626c478d320c9817315c372b" target="_top" xlink:title="Find the Account data for this path.">
<polygon fill="#fff0f0" stroke="red" points="246.5,-732.25 155.5,-732.25 155.5,-710 246.5,-710 246.5,-732.25"/>
<text text-anchor="middle" x="201" y="-718.75" font-family="Helvetica,sans-Serif" font-size="10.00">imap_adata_find</text>
</a>
</g>
</g>
<!-- Node1&#45;&gt;Node38 -->
<g id="edge5_Node000001_Node000038" class="edge">
<title>Node1&#45;&gt;Node38</title>
<g id="a_edge5_Node000001_Node000038"><a xlink:title=" ">
<path fill="none" stroke="#63b8ff" d="M46.27,-379.61C52.28,-431.98 79.44,-647.78 124,-696.12 129.63,-702.23 136.78,-706.85 144.43,-710.34"/>
<polygon fill="#63b8ff" stroke="#63b8ff" points="143.07,-713.57 153.66,-713.9 145.59,-707.04 143.07,-713.57"/>
</a>
</g>
</g>
<!-- Node125 -->
<g id="Node000125" class="node">
<title>Node125</title>
<g id="a_Node000125"><a xlink:href="imap_2adata_8c.html#abe5c03ce9b5a9a60450482316b4d99ea" target="_top" xlink:title="Get the Account data for this mailbox.">
<polygon fill="white" stroke="#666666" points="414.38,-319.25 325.62,-319.25 325.62,-297 414.38,-297 414.38,-319.25"/>
<text text-anchor="middle" x="370" y="-305.75" font-family="Helvetica,sans-Serif" font-size="10.00">imap_adata_get</text>
</a>
</g>
</g>
<!-- Node1&#45;&gt;Node125 -->
<g id="edge7_Node000001_Node000125" class="edge">
<title>Node1&#45;&gt;Node125</title>
<g id="a_edge7_Node000001_Node000125"><a xlink:title=" ">
<path fill="none" stroke="#63b8ff" d="M47.4,-356.77C53.95,-328.96 75.06,-257.6 124,-229.12 183.16,-194.7 213.88,-205.18 278,-229.12 309.33,-240.83 337.01,-268.71 353.39,-288.01"/>
<polygon fill="#63b8ff" stroke="#63b8ff" points="350.49,-289.99 359.53,-295.52 355.9,-285.56 350.49,-289.99"/>
</a>
</g>
</g>
<!-- Node126 -->
<g id="Node000126" class="node">
<title>Node126</title>
<g id="a_Node000126"><a xlink:href="imap_8c.html#aa5a2e18584baccb70a031196c1843f9c" target="_top" xlink:title="Create a new mailbox.">
<polygon fill="#fff0f0" stroke="red" points="257.38,-576.25 144.62,-576.25 144.62,-554 257.38,-554 257.38,-576.25"/>
<text text-anchor="middle" x="201" y="-562.75" font-family="Helvetica,sans-Serif" font-size="10.00">imap_create_mailbox</text>
</a>
</g>
</g>
<!-- Node1&#45;&gt;Node126 -->
<g id="edge8_Node000001_Node000126" class="edge">
<title>Node1&#45;&gt;Node126</title>
<g id="a_edge8_Node000001_Node000126"><a xlink:title=" ">
<path fill="none" stroke="#63b8ff" d="M46.66,-379.68C51.84,-411.28 70.65,-499.81 124,-545.12 127.06,-547.72 130.41,-549.98 133.96,-551.96"/>
<polygon fill="#63b8ff" stroke="#63b8ff" points="132.45,-555.12 143,-556.15 135.4,-548.77 132.45,-555.12"/>
</a>
</g>
</g>
<!-- Node130 -->
<g id="Node000130" class="node">
<title>Node130</title>
<g id="a_Node000130"><a xlink:href="imap_2command_8c.html#adeef1f9ecc4cb80dbddee9264200d7bd" target="_top" xlink:title="Execute a command and wait for the response from the server.">
<polygon fill="#fff0f0" stroke="red" points="402,-556.25 338,-556.25 338,-534 402,-534 402,-556.25"/>
<text text-anchor="middle" x="370" y="-542.75" font-family="Helvetica,sans-Serif" font-size="10.00">imap_exec</text>
</a>
</g>
</g>
<!-- Node1&#45;&gt;Node130 -->
<g id="edge12_Node000001_Node000130" class="edge">
<title>Node1&#45;&gt;Node130</title>
<g id="a_edge12_Node000001_Node000130"><a xlink:title=" ">
<path fill="none" stroke="#63b8ff" d="M45,-379.5C45.7,-416.79 53.55,-535.8 124,-585.12 190.28,-631.53 291.1,-588.37 340.16,-562.04"/>
<polygon fill="#63b8ff" stroke="#63b8ff" points="341.7,-565.19 348.76,-557.3 338.32,-559.06 341.7,-565.19"/>
</a>
</g>
</g>
<!-- Node146 -->
<g id="Node000146" class="node">
<title>Node146</title>
<g id="a_Node000146"><a xlink:href="util_8c.html#aab316d8524d30a8813bab633aa9505e6" target="_top" xlink:title="Show an error and abort.">
<polygon fill="white" stroke="#666666" points="234.88,-418.25 167.12,-418.25 167.12,-396 234.88,-396 234.88,-418.25"/>
<text text-anchor="middle" x="201" y="-404.75" font-family="Helvetica,sans-Serif" font-size="10.00">imap_error</text>
</a>
</g>
</g>
<!-- Node1&#45;&gt;Node146 -->
<g id="edge11_Node000001_Node000146" class="edge">
<title>Node1&#45;&gt;Node146</title>
<g id="a_edge11_Node000001_Node000146"><a xlink:title=" ">
<path fill="none" stroke="#63b8ff" d="M88.18,-378.99C109.28,-384.3 134.65,-390.68 155.88,-396.02"/>
<polygon fill="#63b8ff" stroke="#63b8ff" points="154.86,-399.38 165.41,-398.42 156.57,-392.59 154.86,-399.38"/>
</a>
</g>
</g>
<!-- Node730 -->
<g id="Node000730" class="node">
<title>Node730</title>
<g id="a_Node000730"><a xlink:href="msg__set_8c.html#aec8547f03ba0fb725e18a66a5722f1af" target="_top" xlink:title="Execute a command using a set of UIDs.">
<polygon fill="#fff0f0" stroke="red" points="254.38,-536.25 147.62,-536.25 147.62,-514 254.38,-514 254.38,-536.25"/>
<text text-anchor="middle" x="201" y="-522.75" font-family="Helvetica,sans-Serif" font-size="10.00">imap_exec_msg_set</text>
</a>
</g>
</g>
<!-- Node1&#45;&gt;Node730 -->
<g id="edge13_Node000001_Node000730" class="edge">
<title>Node1&#45;&gt;Node730</title>
<g id="a_edge13_Node000001_Node000730"><a xlink:title=" ">
<path fill="none" stroke="#63b8ff" d="M48.7,-379.52C57.53,-404.96 82.29,-466.76 124,-500.12 128.19,-503.47 132.84,-506.38 137.72,-508.9"/>
<polygon fill="#63b8ff" stroke="#63b8ff" points="136.05,-511.99 146.61,-512.93 138.95,-505.62 136.05,-511.99"/>
</a>
</g>
</g>
<!-- Node732 -->
<g id="Node000732" class="node">
<title>Node732</title>
<g id="a_Node000732"><a xlink:href="util_8c.html#af7e377ed18e6573f09e3fc0ead565064" target="_top" xlink:title="Get the qualifier from a tagged response.">
<polygon fill="#fff0f0" stroke="red" points="251.75,-340.25 150.25,-340.25 150.25,-318 251.75,-318 251.75,-340.25"/>
<text text-anchor="middle" x="201" y="-326.75" font-family="Helvetica,sans-Serif" font-size="10.00">imap_get_qualifier</text>
</a>
</g>
</g>
<!-- Node1&#45;&gt;Node732 -->
<g id="edge17_Node000001_Node000732" class="edge">
<title>Node1&#45;&gt;Node732</title>
<g id="a_edge17_Node000001_Node000732"><a xlink:title=" ">
<path fill="none" stroke="#63b8ff" d="M88.18,-357.26C105.09,-353.01 124.74,-348.06 142.8,-343.52"/>
<polygon fill="#63b8ff" stroke="#63b8ff" points="143.49,-346.95 152.34,-341.12 141.78,-340.16 143.49,-346.95"/>
</a>
</g>
</g>
<!-- Node713 -->
<g id="Node000713" class="node">
<title>Node713</title>
<g id="a_Node000713"><a xlink:href="group__mailbox__mdata__free.html#gaf9402720638723993c57f16f8e84a398" target="_top" xlink:title="Free the private Mailbox data &#45; Implements Mailbox::mdata_free() &#45;.">
<polygon fill="#fff0f0" stroke="red" points="249.12,-300.25 152.88,-300.25 152.88,-278 249.12,-278 249.12,-300.25"/>
<text text-anchor="middle" x="201" y="-286.75" font-family="Helvetica,sans-Serif" font-size="10.00">imap_mdata_free</text>
</a>
</g>
</g>
<!-- Node1&#45;&gt;Node713 -->
<g id="edge18_Node000001_Node000713" class="edge">
<title>Node1&#45;&gt;Node713</title>
<g id="a_edge18_Node000001_Node000713"><a xlink:title=" ">
<path fill="none" stroke="#63b8ff" d="M57.14,-356.67C71.86,-343.38 97.94,-321.69 124,-309.12 129.75,-306.35 135.93,-303.93 142.2,-301.81"/>
<polygon fill="#63b8ff" stroke="#63b8ff" points="142.8,-305.29 151.32,-298.99 140.73,-298.6 142.8,-305.29"/>
</a>
</g>
</g>
<!-- Node729 -->
<g id="Node000729" class="node">
<title>Node729</title>
<g id="a_Node000729"><a xlink:href="group__sort__api.html#ga0d6dcc7ed2c52979f65f4918df607163" target="_top" xlink:title="Compare two UIDs &#45; Implements sort_t &#45;.">
<polygon fill="white" stroke="#666666" points="241.25,-260.25 160.75,-260.25 160.75,-238 241.25,-238 241.25,-260.25"/>
<text text-anchor="middle" x="201" y="-246.75" font-family="Helvetica,sans-Serif" font-size="10.00">imap_sort_uid</text>
</a>
</g>
</g>
<!-- Node1&#45;&gt;Node729 -->
<g id="edge19_Node000001_Node000729" class="edge">
<title>Node1&#45;&gt;Node729</title>
<g id="a_edge19_Node000001_Node000729"><a xlink:title=" ">
<path fill="none" stroke="#63b8ff" d="M50.89,-356.65C62.15,-335.87 88.81,-292.05 124,-269.12 131.72,-264.1 140.66,-260.33 149.63,-257.51"/>
<polygon fill="#63b8ff" stroke="#63b8ff" points="150.34,-260.94 159.06,-254.91 148.49,-254.19 150.34,-260.94"/>
</a>
</g>
</g>
<!-- Node733 -->
<g id="Node000733" class="node">
<title>Node733</title>
<g id="a_Node000733"><a xlink:href="imap_8c.html#abf465f5f6004ebf7bb4ad8e59a2f5b6c" target="_top" xlink:title="Update server to reflect the flags of a single message.">
<polygon fill="#fff0f0" stroke="red" points="278,-458.25 124,-458.25 124,-436 278,-436 278,-458.25"/>
<text text-anchor="middle" x="201" y="-444.75" font-family="Helvetica,sans-Serif" font-size="10.00">imap_sync_message_for_copy</text>
</a>
</g>
</g>
<!-- Node1&#45;&gt;Node733 -->
<g id="edge20_Node000001_Node000733" class="edge">
<title>Node1&#45;&gt;Node733</title>
<g id="a_edge20_Node000001_Node000733"><a xlink:title=" ">
<path fill="none" stroke="#63b8ff" d="M57.14,-379.58C71.86,-392.87 97.94,-414.56 124,-427.12 127.49,-428.81 131.13,-430.36 134.86,-431.79"/>
<polygon fill="#63b8ff" stroke="#63b8ff" points="133.49,-435.02 144.09,-435.03 135.81,-428.42 133.49,-435.02"/>
</a>
</g>
</g>
<!-- Node691 -->
<g id="Node000691" class="node">
<title>Node691</title>
<g id="a_Node000691"><a xlink:href="core_2mailbox_8h.html#a7e9739eb3e94344633f7051c2fb9453e" target="_top" xlink:title="Get the Mailbox&#39;s path string.">
<polygon fill="#fff0f0" stroke="red" points="239.75,-182.25 162.25,-182.25 162.25,-160 239.75,-160 239.75,-182.25"/>
<text text-anchor="middle" x="201" y="-168.75" font-family="Helvetica,sans-Serif" font-size="10.00">mailbox_path</text>
</a>
</g>
</g>
<!-- Node1&#45;&gt;Node691 -->
<g id="edge25_Node000001_Node000691" class="edge">
<title>Node1&#45;&gt;Node691</title>
<g id="a_edge25_Node000001_Node000691"><a xlink:title=" ">
<path fill="none" stroke="#63b8ff" d="M47,-356.61C52.93,-325.93 73.27,-241.44 124,-196.12 131.76,-189.19 141.49,-184.18 151.36,-180.55"/>
<polygon fill="#63b8ff" stroke="#63b8ff" points="152.15,-183.97 160.61,-177.6 150.02,-177.31 152.15,-183.97"/>
</a>
</g>
</g>
<!-- Node441 -->
<g id="Node000441" class="node">
<title>Node441</title>
<g id="a_Node000441"><a xlink:href="mutt__logging_8c.html#af068b3f524a31fad293b2fb61dfc4534" target="_top" xlink:title="Clear the message line (bottom line of screen)">
<polygon fill="#fff0f0" stroke="red" points="248.38,-142.25 153.62,-142.25 153.62,-120 248.38,-120 248.38,-142.25"/>
<text text-anchor="middle" x="201" y="-128.75" font-family="Helvetica,sans-Serif" font-size="10.00">mutt_clear_error</text>
</a>
</g>
</g>
<!-- Node1&#45;&gt;Node441 -->
<g id="edge26_Node000001_Node000441" class="edge">
<title>Node1&#45;&gt;Node441</title>
<g id="a_edge26_Node000001_Node000441"><a xlink:title=" ">
<path fill="none" stroke="#63b8ff" d="M45.6,-356.69C48.12,-320.68 60.91,-208.68 124,-151.12 129.49,-146.12 136.07,-142.34 143.05,-139.49"/>
<polygon fill="#63b8ff" stroke="#63b8ff" points="143.69,-142.97 152.02,-136.43 141.43,-136.34 143.69,-142.97"/>
</a>
</g>
</g>
<!-- Node84 -->
<g id="Node000084" class="node">
<title>Node84</title>
<g id="a_Node000084"><a xlink:href="mutt_2string_8c.html#aebd2a8a3f8a30062c31fa1474d87cc41" target="_top" xlink:title="Check whether a string starts with a prefix, ignoring case.">
<polygon fill="#fff0f0" stroke="red" points="255.12,-102.25 146.88,-102.25 146.88,-80 255.12,-80 255.12,-102.25"/>
<text text-anchor="middle" x="201" y="-88.75" font-family="Helvetica,sans-Serif" font-size="10.00">mutt_istr_startswith</text>
</a>
</g>
</g>
<!-- Node1&#45;&gt;Node84 -->
<g id="edge27_Node000001_Node000084" class="edge">
<title>Node1&#45;&gt;Node84</title>
<g id="a_edge27_Node000001_Node000084"><a xlink:title=" ">
<path fill="none" stroke="#63b8ff" d="M44.85,-356.66C45,-316.53 51.09,-181.11 124,-111.12 127.64,-107.63 131.82,-104.73 136.3,-102.32"/>
<polygon fill="#63b8ff" stroke="#63b8ff" points="137.4,-105.66 145.12,-98.41 134.56,-99.26 137.4,-105.66"/>
</a>
</g>
</g>
<!-- Node740 -->
<g id="Node000740" class="node">
<title>Node740</title>
<g id="a_Node000740"><a xlink:href="question_8c.html#a4b3912ba3a832ef36b474de959451bc7" target="_top" xlink:title="Ask the user a Yes/No question offering help.">
<polygon fill="#fff0f0" stroke="red" points="256.62,-62.25 145.38,-62.25 145.38,-40 256.62,-40 256.62,-62.25"/>
<text text-anchor="middle" x="201" y="-48.75" font-family="Helvetica,sans-Serif" font-size="10.00">query_yesorno_help</text>
</a>
</g>
</g>
<!-- Node1&#45;&gt;Node740 -->
<g id="edge28_Node000001_Node000740" class="edge">
<title>Node1&#45;&gt;Node740</title>
<g id="a_edge28_Node000001_Node000740"><a xlink:title=" ">
<path fill="none" stroke="#63b8ff" d="M46.5,-356.69C53.19,-307.32 81.88,-113.14 124,-71.12 127.22,-67.91 130.9,-65.19 134.85,-62.9"/>
<polygon fill="#63b8ff" stroke="#63b8ff" points="136.24,-66.12 143.78,-58.68 133.24,-59.79 136.24,-66.12"/>
</a>
</g>
</g>
<!-- Node1069 -->
<g id="Node001069" class="node">
<title>Node1069</title>
<g id="a_Node001069"><a xlink:href="imap_8c.html#ac30d8241e3cfecce5ba3eb4baf7644c1" target="_top" xlink:title="Create a list of Email UIDs by type.">
<polygon fill="#fff0f0" stroke="red" points="248.75,-22.25 153.25,-22.25 153.25,0 248.75,0 248.75,-22.25"/>
<text text-anchor="middle" x="201" y="-8.75" font-family="Helvetica,sans-Serif" font-size="10.00">select_email_uids</text>
</a>
</g>
</g>
<!-- Node1&#45;&gt;Node1069 -->
<g id="edge29_Node000001_Node001069" class="edge">
<title>Node1&#45;&gt;Node1069</title>
<g id="a_edge29_Node000001_Node001069"><a xlink:title=" ">
<path fill="none" stroke="#63b8ff" d="M46.12,-356.63C51.55,-303.18 76.85,-79.57 124,-31.12 129.06,-25.93 135.29,-22.03 142,-19.11"/>
<polygon fill="#63b8ff" stroke="#63b8ff" points="143.13,-22.42 151.39,-15.79 140.8,-15.82 143.13,-22.42"/>
</a>
</g>
</g>
<!-- Node38&#45;&gt;Node32 -->
<g id="edge6_Node000038_Node000032" class="edge">
<title>Node38&#45;&gt;Node32</title>
<g id="a_edge6_Node000038_Node000032"><a xlink:title=" ">
<path fill="none" stroke="#63b8ff" d="M246.75,-715.77C263.8,-713.72 283.6,-711.35 302.25,-709.12"/>
<polygon fill="#63b8ff" stroke="#63b8ff" points="302.66,-712.59 312.17,-707.93 301.83,-705.64 302.66,-712.59"/>
</a>
</g>
</g>
<!-- Node126&#45;&gt;Node130 -->
<g id="edge9_Node000126_Node000130" class="edge">
<title>Node126&#45;&gt;Node130</title>
<g id="a_edge9_Node000126_Node000130"><a xlink:title=" ">
<path fill="none" stroke="#63b8ff" d="M257.61,-558.47C280.08,-555.77 305.6,-552.72 326.53,-550.21"/>
<polygon fill="#63b8ff" stroke="#63b8ff" points="326.94,-553.69 336.46,-549.02 326.11,-546.74 326.94,-553.69"/>
</a>
</g>
</g>
<!-- Node130&#45;&gt;Node130 -->
<g id="edge10_Node000130_Node000130" class="edge">
<title>Node130&#45;&gt;Node130</title>
<g id="a_edge10_Node000130_Node000130"><a xlink:title=" ">
<path fill="none" stroke="#63b8ff" d="M342.4,-556.49C332.08,-565.28 341.28,-574.25 370,-574.25 385.7,-574.25 395.57,-571.57 399.6,-567.7"/>
<polygon fill="#63b8ff" stroke="#63b8ff" points="403.07,-567.2 397.86,-557.98 396.18,-568.44 403.07,-567.2"/>
</a>
</g>
</g>
<!-- Node730&#45;&gt;Node2 -->
<g id="edge14_Node000730_Node000002" class="edge">
<title>Node730&#45;&gt;Node2</title>
<g id="a_edge14_Node000730_Node000002"><a xlink:title=" ">
<path fill="none" stroke="#63b8ff" d="M251.65,-513.53C273.25,-508.49 298.48,-502.59 320.01,-497.57"/>
<polygon fill="#63b8ff" stroke="#63b8ff" points="320.79,-500.98 329.73,-495.29 319.2,-494.16 320.79,-500.98"/>
</a>
</g>
</g>
<!-- Node730&#45;&gt;Node10 -->
<g id="edge15_Node000730_Node000010" class="edge">
<title>Node730&#45;&gt;Node10</title>
<g id="a_edge15_Node000730_Node000010"><a xlink:title=" ">
<path fill="none" stroke="#63b8ff" d="M221.83,-513.62C243.9,-501.07 280.84,-480.81 314,-466.12 317.34,-464.64 320.84,-463.18 324.37,-461.77"/>
<polygon fill="#63b8ff" stroke="#63b8ff" points="325.49,-465.09 333.56,-458.22 322.97,-458.56 325.49,-465.09"/>
</a>
</g>
</g>
<!-- Node730&#45;&gt;Node130 -->
<g id="edge16_Node000730_Node000130" class="edge">
<title>Node730&#45;&gt;Node130</title>
<g id="a_edge16_Node000730_Node000130"><a xlink:title=" ">
<path fill="none" stroke="#63b8ff" d="M254.84,-531.45C278.01,-534.23 304.83,-537.44 326.65,-540.05"/>
<polygon fill="#63b8ff" stroke="#63b8ff" points="326.03,-543.5 336.38,-541.22 326.87,-536.55 326.03,-543.5"/>
</a>
</g>
</g>
<!-- Node733&#45;&gt;Node2 -->
<g id="edge21_Node000733_Node000002" class="edge">
<title>Node733&#45;&gt;Node2</title>
<g id="a_edge21_Node000733_Node000002"><a xlink:title=" ">
<path fill="none" stroke="#63b8ff" d="M251.65,-458.72C273.25,-463.76 298.48,-469.66 320.01,-474.68"/>
<polygon fill="#63b8ff" stroke="#63b8ff" points="319.2,-478.09 329.73,-476.96 320.79,-471.27 319.2,-478.09"/>
</a>
</g>
</g>
<!-- Node733&#45;&gt;Node10 -->
<g id="edge22_Node000733_Node000010" class="edge">
<title>Node733&#45;&gt;Node10</title>
<g id="a_edge22_Node000733_Node000010"><a xlink:title=" ">
<path fill="none" stroke="#63b8ff" d="M278.17,-446.67C289.29,-446.6 300.58,-446.53 311.25,-446.47"/>
<polygon fill="#63b8ff" stroke="#63b8ff" points="311.06,-449.97 321.04,-446.41 311.02,-442.97 311.06,-449.97"/>
</a>
</g>
</g>
<!-- Node733&#45;&gt;Node125 -->
<g id="edge23_Node000733_Node000125" class="edge">
<title>Node733&#45;&gt;Node125</title>
<g id="a_edge23_Node000733_Node000125"><a xlink:title=" ">
<path fill="none" stroke="#63b8ff" d="M261.76,-435.54C267.48,-433.23 273,-430.45 278,-427.12 315.48,-402.16 343.89,-356.53 358.35,-329.61"/>
<polygon fill="#63b8ff" stroke="#63b8ff" points="361.32,-331.48 362.82,-320.99 355.11,-328.25 361.32,-331.48"/>
</a>
</g>
</g>
<!-- Node733&#45;&gt;Node130 -->
<g id="edge24_Node000733_Node000130" class="edge">
<title>Node733&#45;&gt;Node130</title>
<g id="a_edge24_Node000733_Node000130"><a xlink:title=" ">
<path fill="none" stroke="#63b8ff" d="M221.48,-458.56C250.57,-475.63 305.55,-507.89 339.55,-527.85"/>
<polygon fill="#63b8ff" stroke="#63b8ff" points="337.68,-530.8 348.08,-532.85 341.22,-524.77 337.68,-530.8"/>
</a>
</g>
</g>
</g>
</svg>
