<?xml version="1.0" encoding="UTF-8" standalone="no"?>
<!DOCTYPE svg PUBLIC "-//W3C//DTD SVG 1.1//EN"
 "http://www.w3.org/Graphics/SVG/1.1/DTD/svg11.dtd">
<!-- Generated by graphviz version 2.40.1 (20161225.0304)
 -->
<!-- Title: index_pager_init Pages: 1 -->
<svg width="447pt" height="203pt"
 viewBox="0.00 0.00 447.00 202.55" xmlns="http://www.w3.org/2000/svg" xmlns:xlink="http://www.w3.org/1999/xlink">
<g id="graph0" class="graph" transform="scale(1 1) rotate(0) translate(4 198.5458)">
<title>index_pager_init</title>
<polygon fill="#ffffff" stroke="transparent" points="-4,4 -4,-198.5458 443,-198.5458 443,4 -4,4"/>
<!-- Node26167 -->
<g id="node1" class="node">
<title>Node26167</title>
<polygon fill="#bfbfbf" stroke="#000000" points="0,-95.5 0,-114.5 98,-114.5 98,-95.5 0,-95.5"/>
<text text-anchor="middle" x="49" y="-102.5" font-family="Helvetica,sans-Serif" font-size="10.00" fill="#000000">index_pager_init</text>
</g>
<!-- Node26168 -->
<g id="node2" class="node">
<title>Node26168</title>
<g id="a_node2"><a xlink:href="mutt__window_8c.html#a90c890d7906f49dd9fbb1f66db7d3b89" target="_top" xlink:title="Create a new Window. ">
<polygon fill="#ffffff" stroke="#ff0000" points="318,-152.5 318,-171.5 426,-171.5 426,-152.5 318,-152.5"/>
<text text-anchor="middle" x="372" y="-159.5" font-family="Helvetica,sans-Serif" font-size="10.00" fill="#000000">mutt_window_new</text>
</a>
</g>
</g>
<!-- Node26167&#45;&gt;Node26168 -->
<g id="edge1" class="edge">
<title>Node26167&#45;&gt;Node26168</title>
<path fill="none" stroke="#191970" d="M55.8253,-114.602C68.7475,-131.8447 98.6784,-167.5118 134,-181 201.4236,-206.7469 287.2283,-188.6818 335.2215,-174.4908"/>
<polygon fill="#191970" stroke="#191970" points="336.3305,-177.8118 344.8685,-171.5386 334.282,-171.1182 336.3305,-177.8118"/>
</g>
<!-- Node26172 -->
<g id="node3" class="node">
<title>Node26172</title>
<g id="a_node3"><a xlink:href="mutt_2notify_8c.html#a67c25689b9f61f36d922c2b8e21685be" target="_top" xlink:title="Add an observer to an object. ">
<polygon fill="#ffffff" stroke="#ff0000" points="143.5,-38.5 143.5,-57.5 259.5,-57.5 259.5,-38.5 143.5,-38.5"/>
<text text-anchor="middle" x="201.5" y="-45.5" font-family="Helvetica,sans-Serif" font-size="10.00" fill="#000000">notify_observer_add</text>
</a>
</g>
</g>
<!-- Node26167&#45;&gt;Node26172 -->
<g id="edge2" class="edge">
<title>Node26167&#45;&gt;Node26172</title>
<path fill="none" stroke="#191970" d="M73.1111,-95.4269C90.0888,-88.7382 113.3757,-79.6683 134,-72 143.8799,-68.3266 154.6161,-64.455 164.5587,-60.9191"/>
<polygon fill="#191970" stroke="#191970" points="165.9169,-64.1512 174.1758,-57.5149 163.581,-57.5525 165.9169,-64.1512"/>
</g>
<!-- Node26173 -->
<g id="node4" class="node">
<title>Node26173</title>
<g id="a_node4"><a xlink:href="index_8c.html#acde55b5814852d0713f23d4880fcfc7d" target="_top" xlink:title="Listen for config changes affecting the Index/Pager &#45; Implements observer_t. ">
<polygon fill="#ffffff" stroke="#ff0000" points="134,-.5 134,-19.5 269,-19.5 269,-.5 134,-.5"/>
<text text-anchor="middle" x="201.5" y="-7.5" font-family="Helvetica,sans-Serif" font-size="10.00" fill="#000000">mutt_dlgindex_observer</text>
</a>
</g>
</g>
<!-- Node26167&#45;&gt;Node26173 -->
<g id="edge3" class="edge">
<title>Node26167&#45;&gt;Node26173</title>
<path fill="none" stroke="#191970" d="M57.1239,-95.2945C71.1522,-79.1537 101.5491,-46.8111 134,-29 138.0105,-26.7988 142.298,-24.8345 146.6948,-23.0848"/>
<polygon fill="#191970" stroke="#191970" points="148.201,-26.2628 156.4296,-19.589 145.8351,-19.6747 148.201,-26.2628"/>
</g>
<!-- Node26207 -->
<g id="node5" class="node">
<title>Node26207</title>
<g id="a_node5"><a xlink:href="mutt__window_8c.html#a5e30d98341ba1a4b358e4add06c97597" target="_top" xlink:title="Add a child to Window. ">
<polygon fill="#ffffff" stroke="#ff0000" points="305,-114.5 305,-133.5 439,-133.5 439,-114.5 305,-114.5"/>
<text text-anchor="middle" x="372" y="-121.5" font-family="Helvetica,sans-Serif" font-size="10.00" fill="#000000">mutt_window_add_child</text>
</a>
</g>
</g>
<!-- Node26167&#45;&gt;Node26207 -->
<g id="edge4" class="edge">
<title>Node26167&#45;&gt;Node26207</title>
<path fill="none" stroke="#191970" d="M98.0486,-102.4485C142.71,-100.7309 210.425,-99.6426 269,-105 285.7952,-106.5361 303.9407,-109.4532 320.2535,-112.5489"/>
<polygon fill="#191970" stroke="#191970" points="319.6585,-115.9988 330.1452,-114.4888 321.0057,-109.1297 319.6585,-115.9988"/>
</g>
<!-- Node26209 -->
<g id="node6" class="node">
<title>Node26209</title>
<g id="a_node6"><a xlink:href="index_8c.html#a103e5cb5773bb3962dce7eb9f83592e5" target="_top" xlink:title="Create the Windows for the Index panel. ">
<polygon fill="#ffffff" stroke="#000000" points="145.5,-152.5 145.5,-171.5 257.5,-171.5 257.5,-152.5 145.5,-152.5"/>
<text text-anchor="middle" x="201.5" y="-159.5" font-family="Helvetica,sans-Serif" font-size="10.00" fill="#000000">create_panel_index</text>
</a>
</g>
</g>
<!-- Node26167&#45;&gt;Node26209 -->
<g id="edge5" class="edge">
<title>Node26167&#45;&gt;Node26209</title>
<path fill="none" stroke="#191970" d="M68.2486,-114.5773C85.2636,-122.8071 110.8977,-134.6352 134,-143 140.3834,-145.3113 147.1888,-147.5172 153.9294,-149.554"/>
<polygon fill="#191970" stroke="#191970" points="153.1218,-152.9643 163.7021,-152.4097 155.0852,-146.2453 153.1218,-152.9643"/>
</g>
<!-- Node26210 -->
<g id="node7" class="node">
<title>Node26210</title>
<g id="a_node7"><a xlink:href="index_8c.html#a68f3d2cd91cb3c5ceb5bb361f94cddb6" target="_top" xlink:title="Create the Windows for the Pager panel. ">
<polygon fill="#ffffff" stroke="#000000" points="145,-114.5 145,-133.5 258,-133.5 258,-114.5 145,-114.5"/>
<text text-anchor="middle" x="201.5" y="-121.5" font-family="Helvetica,sans-Serif" font-size="10.00" fill="#000000">create_panel_pager</text>
</a>
</g>
</g>
<!-- Node26167&#45;&gt;Node26210 -->
<g id="edge8" class="edge">
<title>Node26167&#45;&gt;Node26210</title>
<path fill="none" stroke="#191970" d="M98.0914,-111.1163C109.7236,-112.5656 122.3258,-114.1357 134.5998,-115.6649"/>
<polygon fill="#191970" stroke="#191970" points="134.4484,-119.173 144.8044,-116.9363 135.3139,-112.2267 134.4484,-119.173"/>
</g>
<!-- Node26209&#45;&gt;Node26168 -->
<g id="edge6" class="edge">
<title>Node26209&#45;&gt;Node26168</title>
<path fill="none" stroke="#191970" d="M257.8006,-162C273.7855,-162 291.3114,-162 307.7301,-162"/>
<polygon fill="#191970" stroke="#191970" points="307.7865,-165.5001 317.7864,-162 307.7864,-158.5001 307.7865,-165.5001"/>
</g>
<!-- Node26209&#45;&gt;Node26207 -->
<g id="edge7" class="edge">
<title>Node26209&#45;&gt;Node26207</title>
<path fill="none" stroke="#191970" d="M244.5243,-152.411C267.2264,-147.3513 295.2732,-141.1004 319.274,-135.7512"/>
<polygon fill="#191970" stroke="#191970" points="320.2859,-139.1117 329.285,-133.5201 318.7631,-132.2793 320.2859,-139.1117"/>
</g>
<!-- Node26210&#45;&gt;Node26168 -->
<g id="edge9" class="edge">
<title>Node26210&#45;&gt;Node26168</title>
<path fill="none" stroke="#191970" d="M244.5243,-133.589C267.2264,-138.6487 295.2732,-144.8996 319.274,-150.2488"/>
<polygon fill="#191970" stroke="#191970" points="318.7631,-153.7207 329.285,-152.4799 320.2859,-146.8883 318.7631,-153.7207"/>
</g>
<!-- Node26210&#45;&gt;Node26207 -->
<g id="edge10" class="edge">
<title>Node26210&#45;&gt;Node26207</title>
<path fill="none" stroke="#191970" d="M258.274,-124C269.929,-124 282.3862,-124 294.625,-124"/>
<polygon fill="#191970" stroke="#191970" points="294.8319,-127.5001 304.8319,-124 294.8318,-120.5001 294.8319,-127.5001"/>
</g>
</g>
</svg>
