<?xml version="1.0" encoding="UTF-8" standalone="no"?>
<!DOCTYPE svg PUBLIC "-//W3C//DTD SVG 1.1//EN"
 "http://www.w3.org/Graphics/SVG/1.1/DTD/svg11.dtd">
<!-- Generated by graphviz version 2.40.1 (20161225.0304)
 -->
<!-- Title: change_folder_string Pages: 1 -->
<svg width="422pt" height="218pt"
 viewBox="0.00 0.00 422.00 218.00" xmlns="http://www.w3.org/2000/svg" xmlns:xlink="http://www.w3.org/1999/xlink">
<g id="graph0" class="graph" transform="scale(1 1) rotate(0) translate(4 214)">
<title>change_folder_string</title>
<polygon fill="#ffffff" stroke="transparent" points="-4,4 -4,-214 418,-214 418,4 -4,4"/>
<!-- Node18920 -->
<g id="node1" class="node">
<title>Node18920</title>
<polygon fill="#bfbfbf" stroke="#000000" points="0,-95.5 0,-114.5 119,-114.5 119,-95.5 0,-95.5"/>
<text text-anchor="middle" x="59.5" y="-102.5" font-family="Helvetica,sans-Serif" font-size="10.00" fill="#000000">change_folder_string</text>
</g>
<!-- Node18921 -->
<g id="node2" class="node">
<title>Node18921</title>
<g id="a_node2"><a xlink:href="nntp_2lib_8h.html#aad55ac6624a236283f0521ebdee460eb" target="_top" xlink:title="Make fully qualified url from newsgroup name. ">
<polygon fill="#ffffff" stroke="#ff0000" points="167,-190.5 167,-209.5 274,-209.5 274,-190.5 167,-190.5"/>
<text text-anchor="middle" x="220.5" y="-197.5" font-family="Helvetica,sans-Serif" font-size="10.00" fill="#000000">nntp_expand_path</text>
</a>
</g>
</g>
<!-- Node18920&#45;&gt;Node18921 -->
<g id="edge1" class="edge">
<title>Node18920&#45;&gt;Node18921</title>
<path fill="none" stroke="#191970" d="M68.9028,-114.6205C85.0697,-130.6361 119.8037,-162.799 155,-181 159.3088,-183.2282 163.916,-185.2298 168.6157,-187.0203"/>
<polygon fill="#191970" stroke="#191970" points="167.7318,-190.4186 178.3266,-190.404 170.0351,-183.8084 167.7318,-190.4186"/>
</g>
<!-- Node18950 -->
<g id="node3" class="node">
<title>Node18950</title>
<g id="a_node3"><a xlink:href="mx_8c.html#a5fd7ddec18249a46944727c7297add2f" target="_top" xlink:title="Canonicalise a mailbox path &#45; Wrapper for MxOps::path_canon() ">
<polygon fill="#ffffff" stroke="#ff0000" points="173.5,-152.5 173.5,-171.5 267.5,-171.5 267.5,-152.5 173.5,-152.5"/>
<text text-anchor="middle" x="220.5" y="-159.5" font-family="Helvetica,sans-Serif" font-size="10.00" fill="#000000">mx_path_canon</text>
</a>
</g>
</g>
<!-- Node18920&#45;&gt;Node18950 -->
<g id="edge2" class="edge">
<title>Node18920&#45;&gt;Node18950</title>
<path fill="none" stroke="#191970" d="M86.4478,-114.5405C113.1491,-123.9938 154.2364,-138.5402 183.8853,-149.037"/>
<polygon fill="#191970" stroke="#191970" points="182.8695,-152.3902 193.4643,-152.4284 185.2058,-145.7916 182.8695,-152.3902"/>
</g>
<!-- Node19567 -->
<g id="node4" class="node">
<title>Node19567</title>
<g id="a_node4"><a xlink:href="mx_8c.html#add36baf7d8410fb37158defdaebe9a5d" target="_top" xlink:title="Find a mailbox that understands a path. ">
<polygon fill="#ffffff" stroke="#000000" points="322,-133.5 322,-152.5 414,-152.5 414,-133.5 322,-133.5"/>
<text text-anchor="middle" x="368" y="-140.5" font-family="Helvetica,sans-Serif" font-size="10.00" fill="#000000">mx_path_probe</text>
</a>
</g>
</g>
<!-- Node18920&#45;&gt;Node19567 -->
<g id="edge4" class="edge">
<title>Node18920&#45;&gt;Node19567</title>
<path fill="none" stroke="#191970" d="M119.3477,-112.3718C174.9867,-119.2253 257.2519,-129.3584 311.7165,-136.0672"/>
<polygon fill="#191970" stroke="#191970" points="311.5332,-139.571 321.8861,-137.3198 312.389,-132.6235 311.5332,-139.571"/>
</g>
<!-- Node20795 -->
<g id="node5" class="node">
<title>Node20795</title>
<g id="a_node5"><a xlink:href="mailbox_8c.html#acfc4ad0910e3472a8c4bdb025e359687" target="_top" xlink:title="Find the mailbox with a given name. ">
<polygon fill="#ffffff" stroke="#ff0000" points="164,-76.5 164,-95.5 277,-95.5 277,-76.5 164,-76.5"/>
<text text-anchor="middle" x="220.5" y="-83.5" font-family="Helvetica,sans-Serif" font-size="10.00" fill="#000000">mailbox_find_name</text>
</a>
</g>
</g>
<!-- Node18920&#45;&gt;Node20795 -->
<g id="edge5" class="edge">
<title>Node18920&#45;&gt;Node20795</title>
<path fill="none" stroke="#191970" d="M119.4505,-97.9251C130.7216,-96.595 142.5687,-95.1969 154.0248,-93.8449"/>
<polygon fill="#191970" stroke="#191970" points="154.4465,-97.3195 163.9673,-92.6716 153.626,-90.3678 154.4465,-97.3195"/>
</g>
<!-- Node20517 -->
<g id="node6" class="node">
<title>Node20517</title>
<g id="a_node6"><a xlink:href="index_8c.html#a45e50ffd81e3d025751f6b04329b2e9e" target="_top" xlink:title="Change to a different Mailbox by pointer. ">
<polygon fill="#ffffff" stroke="#ff0000" points="155,-38.5 155,-57.5 286,-57.5 286,-38.5 155,-38.5"/>
<text text-anchor="middle" x="220.5" y="-45.5" font-family="Helvetica,sans-Serif" font-size="10.00" fill="#000000">change_folder_mailbox</text>
</a>
</g>
</g>
<!-- Node18920&#45;&gt;Node20517 -->
<g id="edge6" class="edge">
<title>Node18920&#45;&gt;Node20517</title>
<path fill="none" stroke="#191970" d="M81.6558,-95.4791C100.8673,-87.3939 129.5136,-75.7443 155,-67 161.5464,-64.7539 168.5182,-62.543 175.3798,-60.4682"/>
<polygon fill="#191970" stroke="#191970" points="176.6944,-63.7294 185.2917,-57.5377 174.7096,-57.0167 176.6944,-63.7294"/>
</g>
<!-- Node19669 -->
<g id="node7" class="node">
<title>Node19669</title>
<g id="a_node7"><a xlink:href="mx_8c.html#ab437d031227dc741c63cf2791c6b4562" target="_top" xlink:title="Get a Mailbox for a path. ">
<polygon fill="#ffffff" stroke="#ff0000" points="170,-.5 170,-19.5 271,-19.5 271,-.5 170,-.5"/>
<text text-anchor="middle" x="220.5" y="-7.5" font-family="Helvetica,sans-Serif" font-size="10.00" fill="#000000">mx_path_resolve</text>
</a>
</g>
</g>
<!-- Node18920&#45;&gt;Node19669 -->
<g id="edge7" class="edge">
<title>Node18920&#45;&gt;Node19669</title>
<path fill="none" stroke="#191970" d="M68.9028,-95.3795C85.0697,-79.3639 119.8037,-47.201 155,-29 159.3088,-26.7718 163.916,-24.7702 168.6157,-22.9797"/>
<polygon fill="#191970" stroke="#191970" points="170.0351,-26.1916 178.3266,-19.596 167.7318,-19.5814 170.0351,-26.1916"/>
</g>
<!-- Node18950&#45;&gt;Node19567 -->
<g id="edge3" class="edge">
<title>Node18950&#45;&gt;Node19567</title>
<path fill="none" stroke="#191970" d="M267.5755,-155.936C281.6869,-154.1183 297.3042,-152.1066 311.9347,-150.222"/>
<polygon fill="#191970" stroke="#191970" points="312.4044,-153.6905 321.8753,-148.9415 311.51,-146.7478 312.4044,-153.6905"/>
</g>
</g>
</svg>
