<?xml version="1.0" encoding="UTF-8" standalone="no"?>
<!DOCTYPE svg PUBLIC "-//W3C//DTD SVG 1.1//EN"
 "http://www.w3.org/Graphics/SVG/1.1/DTD/svg11.dtd">
<!-- Generated by graphviz version 12.2.1 (20241206.2353)
 -->
<!-- Title: mutt_make_string Pages: 1 -->
<svg width="448pt" height="546pt"
 viewBox="0.00 0.00 448.25 546.25" xmlns="http://www.w3.org/2000/svg" xmlns:xlink="http://www.w3.org/1999/xlink">
<g id="graph0" class="graph" transform="scale(1 1) rotate(0) translate(4 542.25)">
<title>mutt_make_string</title>
<!-- Node1 -->
<g id="Node000001" class="node">
<title>Node1</title>
<g id="a_Node000001"><a xlink:title="Create formatted strings using mailbox expandos.">
<polygon fill="#999999" stroke="#666666" points="440.25,-281.25 340.25,-281.25 340.25,-259 440.25,-259 440.25,-281.25"/>
<text text-anchor="middle" x="390.25" y="-267.75" font-family="Helvetica,sans-Serif" font-size="10.00">mutt_make_string</text>
</a>
</g>
</g>
<!-- Node2 -->
<g id="Node000002" class="node">
<title>Node2</title>
<g id="a_Node000002"><a xlink:href="run_8c.html#a8865bc311360265962b08cf12378675d" target="_top" xlink:title="Perform an address hook (get a path)">
<polygon fill="#fff0f0" stroke="red" points="263.38,-538.25 197.88,-538.25 197.88,-516 263.38,-516 263.38,-538.25"/>
<text text-anchor="middle" x="230.62" y="-524.75" font-family="Helvetica,sans-Serif" font-size="10.00">addr_hook</text>
</a>
</g>
</g>
<!-- Node1&#45;&gt;Node2 -->
<g id="edge1_Node000001_Node000002" class="edge">
<title>Node1&#45;&gt;Node2</title>
<g id="a_edge1_Node000001_Node000002"><a xlink:title=" ">
<path fill="none" stroke="#63b8ff" d="M387.29,-292.96C382.14,-338.96 364.16,-443.38 304.25,-502.12 293.4,-512.77 277.81,-518.89 263.85,-522.41"/>
<polygon fill="#63b8ff" stroke="#63b8ff" points="390.76,-293.43 388.28,-283.13 383.8,-292.73 390.76,-293.43"/>
</a>
</g>
</g>
<!-- Node29 -->
<g id="Node000029" class="node">
<title>Node29</title>
<g id="a_Node000029"><a xlink:href="recvcmd_8c.html#a3174612ef64b7c263b5c745b052d2d59" target="_top" xlink:title="Forward one or several MIME bodies.">
<polygon fill="#fff0f0" stroke="red" points="121,-182.25 0,-182.25 0,-160 121,-160 121,-182.25"/>
<text text-anchor="middle" x="60.5" y="-168.75" font-family="Helvetica,sans-Serif" font-size="10.00">attach_forward_bodies</text>
</a>
</g>
</g>
<!-- Node1&#45;&gt;Node29 -->
<g id="edge2_Node000001_Node000029" class="edge">
<title>Node1&#45;&gt;Node29</title>
<g id="a_edge2_Node000001_Node000029"><a xlink:title=" ">
<path fill="none" stroke="#63b8ff" d="M328.63,-283.16C280.17,-290.64 211.57,-294.47 157,-271.12 114.18,-252.81 81.42,-204.83 68.06,-182.66"/>
<polygon fill="#63b8ff" stroke="#63b8ff" points="329.08,-286.63 338.38,-281.55 327.94,-279.73 329.08,-286.63"/>
</a>
</g>
</g>
<!-- Node765 -->
<g id="Node000765" class="node">
<title>Node765</title>
<g id="a_Node000765"><a xlink:href="group__expando__get__string__api.html#ga9e930b048845760f0c617184b7f982f5" target="_top" xlink:title="Body: Description &#45; Implements get_string_t &#45;.">
<polygon fill="white" stroke="#666666" points="278.38,-460.25 182.88,-460.25 182.88,-438 278.38,-438 278.38,-460.25"/>
<text text-anchor="middle" x="230.62" y="-446.75" font-family="Helvetica,sans-Serif" font-size="10.00">body_description</text>
</a>
</g>
</g>
<!-- Node1&#45;&gt;Node765 -->
<g id="edge3_Node000001_Node000765" class="edge">
<title>Node1&#45;&gt;Node765</title>
<g id="a_edge3_Node000001_Node000765"><a xlink:title=" ">
<path fill="none" stroke="#63b8ff" d="M383.58,-292.1C373.54,-326.56 349.31,-393.11 304.25,-429.12 296.89,-435 287.93,-439.16 278.85,-442.09"/>
<polygon fill="#63b8ff" stroke="#63b8ff" points="386.86,-293.37 386.15,-282.8 380.11,-291.51 386.86,-293.37"/>
</a>
</g>
</g>
<!-- Node179 -->
<g id="Node000179" class="node">
<title>Node179</title>
<g id="a_Node000179"><a xlink:href="pager_2message_8c.html#ad081e1099ae8f2f467644023b0f1470c" target="_top" xlink:title="Display a message in an external program.">
<polygon fill="#fff0f0" stroke="red" points="273.88,-420.25 187.38,-420.25 187.38,-398 273.88,-398 273.88,-420.25"/>
<text text-anchor="middle" x="230.62" y="-406.75" font-family="Helvetica,sans-Serif" font-size="10.00">external_pager</text>
</a>
</g>
</g>
<!-- Node1&#45;&gt;Node179 -->
<g id="edge4_Node000001_Node000179" class="edge">
<title>Node1&#45;&gt;Node179</title>
<g id="a_edge4_Node000001_Node000179"><a xlink:title=" ">
<path fill="none" stroke="#63b8ff" d="M379.45,-291.9C366.23,-318.8 340.13,-364.07 304.25,-389.12 295.35,-395.34 284.59,-399.63 274.11,-402.58"/>
<polygon fill="#63b8ff" stroke="#63b8ff" points="382.56,-293.51 383.67,-282.98 376.23,-290.52 382.56,-293.51"/>
</a>
</g>
</g>
<!-- Node766 -->
<g id="Node000766" class="node">
<title>Node766</title>
<g id="a_Node000766"><a xlink:href="send_8c.html#a98117235d1c6eb0c923b1114b6f3ff85" target="_top" xlink:title="Format an attribution prefix/suffix.">
<polygon fill="#fff0f0" stroke="red" points="281.75,-380.25 179.5,-380.25 179.5,-358 281.75,-358 281.75,-380.25"/>
<text text-anchor="middle" x="230.62" y="-366.75" font-family="Helvetica,sans-Serif" font-size="10.00">format_attribution</text>
</a>
</g>
</g>
<!-- Node1&#45;&gt;Node766 -->
<g id="edge5_Node000001_Node000766" class="edge">
<title>Node1&#45;&gt;Node766</title>
<g id="a_edge5_Node000001_Node000766"><a xlink:title=" ">
<path fill="none" stroke="#63b8ff" d="M372.73,-290.21C356.92,-308.17 331.52,-333.92 304.25,-349.12 297.4,-352.95 289.77,-356.08 282.1,-358.63"/>
<polygon fill="#63b8ff" stroke="#63b8ff" points="375.25,-292.66 379.09,-282.78 369.93,-288.1 375.25,-292.66"/>
</a>
</g>
</g>
<!-- Node769 -->
<g id="Node000769" class="node">
<title>Node769</title>
<g id="a_Node000769"><a xlink:href="recvcmd_8c.html#ab4a0e33515ff785e8b33b582be32e595" target="_top" xlink:title="Write an email header to a file, optionally quoting it.">
<polygon fill="white" stroke="#666666" points="274.25,-340.25 187,-340.25 187,-318 274.25,-318 274.25,-340.25"/>
<text text-anchor="middle" x="230.62" y="-326.75" font-family="Helvetica,sans-Serif" font-size="10.00">include_header</text>
</a>
</g>
</g>
<!-- Node1&#45;&gt;Node769 -->
<g id="edge6_Node000001_Node000769" class="edge">
<title>Node1&#45;&gt;Node769</title>
<g id="a_edge6_Node000001_Node000769"><a xlink:title=" ">
<path fill="none" stroke="#63b8ff" d="M350.81,-285.96C336.28,-291.83 319.56,-298.43 304.25,-304.12 292,-308.68 278.49,-313.41 266.47,-317.52"/>
<polygon fill="#63b8ff" stroke="#63b8ff" points="352.09,-289.22 360.03,-282.22 349.45,-282.74 352.09,-289.22"/>
</a>
</g>
</g>
<!-- Node36 -->
<g id="Node000036" class="node">
<title>Node36</title>
<g id="a_Node000036"><a xlink:href="recvcmd_8c.html#ae1443014902ae6f6df5bb552dc93f429" target="_top" xlink:title="Attach a reply.">
<polygon fill="#fff0f0" stroke="red" points="110.12,-419.25 10.88,-419.25 10.88,-397 110.12,-397 110.12,-419.25"/>
<text text-anchor="middle" x="60.5" y="-405.75" font-family="Helvetica,sans-Serif" font-size="10.00">mutt_attach_reply</text>
</a>
</g>
</g>
<!-- Node1&#45;&gt;Node36 -->
<g id="edge10_Node000001_Node000036" class="edge">
<title>Node1&#45;&gt;Node36</title>
<g id="a_edge10_Node000001_Node000036"><a xlink:title=" ">
<path fill="none" stroke="#63b8ff" d="M387.37,-292.79C382.42,-335.92 364.9,-429.08 304.25,-469.12 249.64,-505.18 219.82,-487.48 157,-469.12 123.95,-459.47 91.46,-434.51 74.21,-419.68"/>
<polygon fill="#63b8ff" stroke="#63b8ff" points="390.85,-293.16 388.36,-282.86 383.88,-292.46 390.85,-293.16"/>
</a>
</g>
</g>
<!-- Node770 -->
<g id="Node000770" class="node">
<title>Node770</title>
<g id="a_Node000770"><a xlink:href="group__menu__make__entry.html#ga3fe3f5bd655d5d45e9c814eb0ff75005" target="_top" xlink:title="Format an Email for the Menu &#45; Implements Menu::make_entry() &#45;.">
<polygon fill="#fff0f0" stroke="red" points="281,-262.25 180.25,-262.25 180.25,-240 281,-240 281,-262.25"/>
<text text-anchor="middle" x="230.62" y="-248.75" font-family="Helvetica,sans-Serif" font-size="10.00">index_make_entry</text>
</a>
</g>
</g>
<!-- Node1&#45;&gt;Node770 -->
<g id="edge9_Node000001_Node000770" class="edge">
<title>Node1&#45;&gt;Node770</title>
<g id="a_edge9_Node000001_Node000770"><a xlink:title=" ">
<path fill="none" stroke="#63b8ff" d="M328.66,-262.82C313.05,-260.94 296.43,-258.94 281.43,-257.13"/>
<polygon fill="#63b8ff" stroke="#63b8ff" points="327.96,-266.26 338.31,-263.98 328.8,-259.31 327.96,-266.26"/>
</a>
</g>
</g>
<!-- Node540 -->
<g id="Node000540" class="node">
<title>Node540</title>
<g id="a_Node000540"><a xlink:href="copy_8c.html#ac158be102976481a9c8edc42fcd8cd09" target="_top" xlink:title="Make a copy of a message from a FILE pointer.">
<polygon fill="#fff0f0" stroke="red" points="293,-222.25 168.25,-222.25 168.25,-200 293,-200 293,-222.25"/>
<text text-anchor="middle" x="230.62" y="-208.75" font-family="Helvetica,sans-Serif" font-size="10.00">mutt_copy_message_fp</text>
</a>
</g>
</g>
<!-- Node1&#45;&gt;Node540 -->
<g id="edge11_Node000001_Node000540" class="edge">
<title>Node1&#45;&gt;Node540</title>
<g id="a_edge11_Node000001_Node000540"><a xlink:title=" ">
<path fill="none" stroke="#63b8ff" d="M356.42,-253.56C340.85,-246.09 321.85,-237.54 304.25,-231.12 295.89,-228.08 286.85,-225.24 278.08,-222.72"/>
<polygon fill="#63b8ff" stroke="#63b8ff" points="354.7,-256.61 365.22,-257.84 357.76,-250.32 354.7,-256.61"/>
</a>
</g>
</g>
<!-- Node771 -->
<g id="Node000771" class="node">
<title>Node771</title>
<g id="a_Node000771"><a xlink:href="send_8c.html#a40683be6f58e2cdf321c3e30a494fbde" target="_top" xlink:title="Add the &quot;start of forwarded message&quot; text.">
<polygon fill="#fff0f0" stroke="red" points="283.62,-102.25 177.62,-102.25 177.62,-80 283.62,-80 283.62,-102.25"/>
<text text-anchor="middle" x="230.62" y="-88.75" font-family="Helvetica,sans-Serif" font-size="10.00">mutt_forward_intro</text>
</a>
</g>
</g>
<!-- Node1&#45;&gt;Node771 -->
<g id="edge12_Node000001_Node000771" class="edge">
<title>Node1&#45;&gt;Node771</title>
<g id="a_edge12_Node000001_Node000771"><a xlink:title=" ">
<path fill="none" stroke="#63b8ff" d="M383.58,-248.15C373.54,-213.69 349.31,-147.14 304.25,-111.12 298.32,-106.39 291.36,-102.77 284.12,-100.01"/>
<polygon fill="#63b8ff" stroke="#63b8ff" points="380.11,-248.74 386.15,-257.45 386.86,-246.88 380.11,-248.74"/>
</a>
</g>
</g>
<!-- Node772 -->
<g id="Node000772" class="node">
<title>Node772</title>
<g id="a_Node000772"><a xlink:href="send_8c.html#ad951cc16f636045622b313f89278627a" target="_top" xlink:title="Add a &quot;end of forwarded message&quot; text.">
<polygon fill="#fff0f0" stroke="red" points="286.62,-182.25 174.62,-182.25 174.62,-160 286.62,-160 286.62,-182.25"/>
<text text-anchor="middle" x="230.62" y="-168.75" font-family="Helvetica,sans-Serif" font-size="10.00">mutt_forward_trailer</text>
</a>
</g>
</g>
<!-- Node1&#45;&gt;Node772 -->
<g id="edge14_Node000001_Node000772" class="edge">
<title>Node1&#45;&gt;Node772</title>
<g id="a_edge14_Node000001_Node000772"><a xlink:title=" ">
<path fill="none" stroke="#63b8ff" d="M372.73,-250.04C356.92,-232.08 331.52,-206.33 304.25,-191.12 298.31,-187.81 291.79,-185.02 285.16,-182.67"/>
<polygon fill="#63b8ff" stroke="#63b8ff" points="369.93,-252.15 379.09,-257.47 375.25,-247.59 369.93,-252.15"/>
</a>
</g>
</g>
<!-- Node773 -->
<g id="Node000773" class="node">
<title>Node773</title>
<g id="a_Node000773"><a xlink:href="send_8c.html#a441dbd4f179147fa14692a98acbd8f26" target="_top" xlink:title="Create a subject for a forwarded email.">
<polygon fill="#fff0f0" stroke="red" points="304.25,-142.25 157,-142.25 157,-120 304.25,-120 304.25,-142.25"/>
<text text-anchor="middle" x="230.62" y="-128.75" font-family="Helvetica,sans-Serif" font-size="10.00">mutt_make_forward_subject</text>
</a>
</g>
</g>
<!-- Node1&#45;&gt;Node773 -->
<g id="edge16_Node000001_Node000773" class="edge">
<title>Node1&#45;&gt;Node773</title>
<g id="a_edge16_Node000001_Node000773"><a xlink:title=" ">
<path fill="none" stroke="#63b8ff" d="M379.45,-248.35C366.23,-221.45 340.13,-176.18 304.25,-151.12 299.43,-147.76 294.05,-144.95 288.47,-142.62"/>
<polygon fill="#63b8ff" stroke="#63b8ff" points="376.23,-249.73 383.67,-257.27 382.56,-246.74 376.23,-249.73"/>
</a>
</g>
</g>
<!-- Node775 -->
<g id="Node000775" class="node">
<title>Node775</title>
<g id="a_Node000775"><a xlink:href="group__window__recalc.html#gadbe367a85dfc3d77c137839ce555eab2" target="_top" xlink:title="Recalculate the Window data &#45; Implements MuttWindow::recalc() &#45;.">
<polygon fill="#fff0f0" stroke="red" points="264.88,-62.25 196.38,-62.25 196.38,-40 264.88,-40 264.88,-62.25"/>
<text text-anchor="middle" x="230.62" y="-48.75" font-family="Helvetica,sans-Serif" font-size="10.00">pbar_recalc</text>
</a>
</g>
</g>
<!-- Node1&#45;&gt;Node775 -->
<g id="edge18_Node000001_Node000775" class="edge">
<title>Node1&#45;&gt;Node775</title>
<g id="a_edge18_Node000001_Node000775"><a xlink:title=" ">
<path fill="none" stroke="#63b8ff" d="M386.07,-247.42C379.06,-206.07 358.36,-118.38 304.25,-71.12 293.51,-61.75 278.75,-56.73 265.34,-54.06"/>
<polygon fill="#63b8ff" stroke="#63b8ff" points="382.59,-247.84 387.59,-257.18 389.51,-246.76 382.59,-247.84"/>
</a>
</g>
</g>
<!-- Node777 -->
<g id="Node000777" class="node">
<title>Node777</title>
<g id="a_Node000777"><a xlink:href="group__menu__make__entry.html#ga2b964391515e462e4b35620cbba9fb7f" target="_top" xlink:title="Format an Email for the Menu &#45; Implements Menu::make_entry() &#45;.">
<polygon fill="#fff0f0" stroke="red" points="278.75,-22.25 182.5,-22.25 182.5,0 278.75,0 278.75,-22.25"/>
<text text-anchor="middle" x="230.62" y="-8.75" font-family="Helvetica,sans-Serif" font-size="10.00">post_make_entry</text>
</a>
</g>
</g>
<!-- Node1&#45;&gt;Node777 -->
<g id="edge19_Node000001_Node000777" class="edge">
<title>Node1&#45;&gt;Node777</title>
<g id="a_edge19_Node000001_Node000777"><a xlink:title=" ">
<path fill="none" stroke="#63b8ff" d="M387.91,-247.26C383.87,-199.82 367.78,-90.18 304.25,-31.12 297.26,-24.63 288.35,-20.21 279.18,-17.21"/>
<polygon fill="#63b8ff" stroke="#63b8ff" points="384.41,-247.43 388.63,-257.15 391.39,-246.92 384.41,-247.43"/>
</a>
</g>
</g>
<!-- Node769&#45;&gt;Node29 -->
<g id="edge7_Node000769_Node000029" class="edge">
<title>Node769&#45;&gt;Node29</title>
<g id="a_edge7_Node000769_Node000029"><a xlink:title=" ">
<path fill="none" stroke="#63b8ff" d="M176.05,-314.99C169.3,-312 162.76,-308.41 157,-304.12 111.39,-270.18 78.76,-208.1 66.66,-182.56"/>
<polygon fill="#63b8ff" stroke="#63b8ff" points="174.74,-318.24 185.33,-318.67 177.32,-311.73 174.74,-318.24"/>
</a>
</g>
</g>
<!-- Node769&#45;&gt;Node36 -->
<g id="edge8_Node000769_Node000036" class="edge">
<title>Node769&#45;&gt;Node36</title>
<g id="a_edge8_Node000769_Node000036"><a xlink:title=" ">
<path fill="none" stroke="#63b8ff" d="M175.86,-342.06C169.41,-344.16 162.99,-346.51 157,-349.12 126.99,-362.21 95.24,-383.53 76.96,-396.64"/>
<polygon fill="#63b8ff" stroke="#63b8ff" points="176.68,-345.47 185.23,-339.21 174.65,-338.77 176.68,-345.47"/>
</a>
</g>
</g>
<!-- Node771&#45;&gt;Node29 -->
<g id="edge13_Node000771_Node000029" class="edge">
<title>Node771&#45;&gt;Node29</title>
<g id="a_edge13_Node000771_Node000029"><a xlink:title=" ">
<path fill="none" stroke="#63b8ff" d="M169.44,-106.2C165.18,-107.73 160.99,-109.37 157,-111.12 126.72,-124.46 94.8,-146.34 76.6,-159.67"/>
<polygon fill="#63b8ff" stroke="#63b8ff" points="170.29,-109.61 178.68,-103.14 168.08,-102.97 170.29,-109.61"/>
</a>
</g>
</g>
<!-- Node772&#45;&gt;Node29 -->
<g id="edge15_Node000772_Node000029" class="edge">
<title>Node772&#45;&gt;Node29</title>
<g id="a_edge15_Node000772_Node000029"><a xlink:title=" ">
<path fill="none" stroke="#63b8ff" d="M163.16,-171.12C149.35,-171.12 134.87,-171.12 121.31,-171.12"/>
<polygon fill="#63b8ff" stroke="#63b8ff" points="163.06,-174.63 173.06,-171.13 163.06,-167.63 163.06,-174.63"/>
</a>
</g>
</g>
<!-- Node773&#45;&gt;Node29 -->
<g id="edge17_Node000773_Node000029" class="edge">
<title>Node773&#45;&gt;Node29</title>
<g id="a_edge17_Node000773_Node000029"><a xlink:title=" ">
<path fill="none" stroke="#63b8ff" d="M170.05,-145.3C150.48,-149.95 128.98,-155.07 110.31,-159.51"/>
<polygon fill="#63b8ff" stroke="#63b8ff" points="170.61,-148.76 179.52,-143.04 168.99,-141.95 170.61,-148.76"/>
</a>
</g>
</g>
</g>
</svg>
