<?xml version="1.0" encoding="UTF-8" standalone="no"?>
<!DOCTYPE svg PUBLIC "-//W3C//DTD SVG 1.1//EN"
 "http://www.w3.org/Graphics/SVG/1.1/DTD/svg11.dtd">
<!-- Generated by graphviz version 12.2.1 (20241206.2353)
 -->
<!-- Title: get_current_mailbox_view Pages: 1 -->
<svg width="291pt" height="230pt"
 viewBox="0.00 0.00 291.25 230.25" xmlns="http://www.w3.org/2000/svg" xmlns:xlink="http://www.w3.org/1999/xlink">
<g id="graph0" class="graph" transform="scale(1 1) rotate(0) translate(4 226.25)">
<title>get_current_mailbox_view</title>
<!-- Node1 -->
<g id="Node000001" class="node">
<title>Node1</title>
<g id="a_Node000001"><a xlink:title="Get the current Mailbox view.">
<polygon fill="#999999" stroke="#666666" points="283.25,-122.25 147.25,-122.25 147.25,-100 283.25,-100 283.25,-122.25"/>
<text text-anchor="middle" x="215.25" y="-108.75" font-family="Helvetica,sans-Serif" font-size="10.00">get_current_mailbox_view</text>
</a>
</g>
</g>
<!-- Node2 -->
<g id="Node000002" class="node">
<title>Node2</title>
<g id="a_Node000002"><a xlink:href="hooks_2parse_8c.html#a88c7b75470d318e7db183f48bbe89629" target="_top" xlink:title="Add a Mailbox Hook.">
<polygon fill="#fff0f0" stroke="red" points="106.38,-222.25 4.88,-222.25 4.88,-200 106.38,-200 106.38,-222.25"/>
<text text-anchor="middle" x="55.62" y="-208.75" font-family="Helvetica,sans-Serif" font-size="10.00">add_mailbox_hook</text>
</a>
</g>
</g>
<!-- Node1&#45;&gt;Node2 -->
<g id="edge1_Node000001_Node000002" class="edge">
<title>Node1&#45;&gt;Node2</title>
<g id="a_edge1_Node000001_Node000002"><a xlink:title=" ">
<path fill="none" stroke="#63b8ff" d="M193.62,-130.29C173.74,-147.97 142.2,-173.99 111.25,-191.12 105.6,-194.26 99.35,-197.07 93.17,-199.53"/>
<polygon fill="#63b8ff" stroke="#63b8ff" points="195.95,-132.91 201.02,-123.6 191.25,-127.71 195.95,-132.91"/>
</a>
</g>
</g>
<!-- Node4 -->
<g id="Node000004" class="node">
<title>Node4</title>
<g id="a_Node000004"><a xlink:href="color_2regex_8c.html#a18c029b7ffefd9545300ad82e662d5ae" target="_top" xlink:title="Associate a colour to a pattern.">
<polygon fill="#fff0f0" stroke="red" points="92.12,-182.25 19.12,-182.25 19.12,-160 92.12,-160 92.12,-182.25"/>
<text text-anchor="middle" x="55.62" y="-168.75" font-family="Helvetica,sans-Serif" font-size="10.00">add_pattern</text>
</a>
</g>
</g>
<!-- Node1&#45;&gt;Node4 -->
<g id="edge2_Node000001_Node000004" class="edge">
<title>Node1&#45;&gt;Node4</title>
<g id="a_edge2_Node000001_Node000004"><a xlink:title=" ">
<path fill="none" stroke="#63b8ff" d="M174.31,-126.85C155.25,-134.29 132.11,-143.26 111.25,-151.12 103.88,-153.91 95.93,-156.85 88.44,-159.6"/>
<polygon fill="#63b8ff" stroke="#63b8ff" points="175.56,-130.11 183.6,-123.21 173.01,-123.59 175.56,-130.11"/>
</a>
</g>
</g>
<!-- Node10 -->
<g id="Node000010" class="node">
<title>Node10</title>
<g id="a_Node000010"><a xlink:href="index_8c.html#a798c826c6ad972b975c8c51070008f99" target="_top" xlink:title="Get the current Mailbox.">
<polygon fill="#fff0f0" stroke="red" points="111.25,-142.25 0,-142.25 0,-120 111.25,-120 111.25,-142.25"/>
<text text-anchor="middle" x="55.62" y="-128.75" font-family="Helvetica,sans-Serif" font-size="10.00">get_current_mailbox</text>
</a>
</g>
</g>
<!-- Node1&#45;&gt;Node10 -->
<g id="edge3_Node000001_Node000010" class="edge">
<title>Node1&#45;&gt;Node10</title>
<g id="a_edge3_Node000001_Node000010"><a xlink:title=" ">
<path fill="none" stroke="#63b8ff" d="M135.74,-121.09C127.49,-122.13 119.24,-123.18 111.34,-124.18"/>
<polygon fill="#63b8ff" stroke="#63b8ff" points="135.96,-124.59 145.44,-119.86 135.08,-117.64 135.96,-124.59"/>
</a>
</g>
</g>
<!-- Node784 -->
<g id="Node000784" class="node">
<title>Node784</title>
<g id="a_Node000784"><a xlink:href="group__command__parse.html#ga48a52701d3d6829a85e1cd92fe55c690" target="_top" xlink:title="Parse the index format hook command &#45; Implements Command::parse() &#45;.">
<polygon fill="white" stroke="#666666" points="105.25,-102.25 6,-102.25 6,-80 105.25,-80 105.25,-102.25"/>
<text text-anchor="middle" x="55.62" y="-88.75" font-family="Helvetica,sans-Serif" font-size="10.00">parse_hook_index</text>
</a>
</g>
</g>
<!-- Node1&#45;&gt;Node784 -->
<g id="edge4_Node000001_Node000784" class="edge">
<title>Node1&#45;&gt;Node784</title>
<g id="a_edge4_Node000001_Node000784"><a xlink:title=" ">
<path fill="none" stroke="#63b8ff" d="M135.81,-101.17C125.51,-99.87 115.2,-98.56 105.59,-97.34"/>
<polygon fill="#63b8ff" stroke="#63b8ff" points="135.08,-104.61 145.44,-102.39 135.96,-97.66 135.08,-104.61"/>
</a>
</g>
</g>
<!-- Node785 -->
<g id="Node000785" class="node">
<title>Node785</title>
<g id="a_Node000785"><a xlink:href="group__command__parse.html#ga3da28e60a0288519fb3567b69c95a764" target="_top" xlink:title="Parse pattern&#45;based Hook commands &#45; Implements Command::parse() &#45;.">
<polygon fill="white" stroke="#666666" points="110.5,-62.25 0.75,-62.25 0.75,-40 110.5,-40 110.5,-62.25"/>
<text text-anchor="middle" x="55.62" y="-48.75" font-family="Helvetica,sans-Serif" font-size="10.00">parse_hook_pattern</text>
</a>
</g>
</g>
<!-- Node1&#45;&gt;Node785 -->
<g id="edge5_Node000001_Node000785" class="edge">
<title>Node1&#45;&gt;Node785</title>
<g id="a_edge5_Node000001_Node000785"><a xlink:title=" ">
<path fill="none" stroke="#63b8ff" d="M174.31,-95.4C155.25,-87.96 132.11,-78.99 111.25,-71.12 103.88,-68.34 95.93,-65.4 88.44,-62.65"/>
<polygon fill="#63b8ff" stroke="#63b8ff" points="173.01,-98.66 183.6,-99.04 175.56,-92.14 173.01,-98.66"/>
</a>
</g>
</g>
<!-- Node786 -->
<g id="Node000786" class="node">
<title>Node786</title>
<g id="a_Node000786"><a xlink:href="group__command__parse.html#ga4a0f45e68ad536df89555ba4fef2eb43" target="_top" xlink:title="Parse the &#39;score&#39; command &#45; Implements Command::parse() &#45;.">
<polygon fill="white" stroke="#666666" points="91.38,-22.25 19.88,-22.25 19.88,0 91.38,0 91.38,-22.25"/>
<text text-anchor="middle" x="55.62" y="-8.75" font-family="Helvetica,sans-Serif" font-size="10.00">parse_score</text>
</a>
</g>
</g>
<!-- Node1&#45;&gt;Node786 -->
<g id="edge6_Node000001_Node000786" class="edge">
<title>Node1&#45;&gt;Node786</title>
<g id="a_edge6_Node000001_Node000786"><a xlink:title=" ">
<path fill="none" stroke="#63b8ff" d="M193.62,-91.96C173.74,-74.28 142.2,-48.26 111.25,-31.12 105.15,-27.75 98.38,-24.74 91.73,-22.15"/>
<polygon fill="#63b8ff" stroke="#63b8ff" points="191.25,-94.54 201.02,-98.65 195.95,-89.34 191.25,-94.54"/>
</a>
</g>
</g>
</g>
</svg>
