<?xml version="1.0" encoding="UTF-8" standalone="no"?>
<!DOCTYPE svg PUBLIC "-//W3C//DTD SVG 1.1//EN"
 "http://www.w3.org/Graphics/SVG/1.1/DTD/svg11.dtd">
<!-- Generated by graphviz version 2.40.1 (20161225.0304)
 -->
<!-- Title: index_shared_account_observer Pages: 1 -->
<svg width="303pt" height="66pt"
 viewBox="0.00 0.00 303.00 66.00" xmlns="http://www.w3.org/2000/svg" xmlns:xlink="http://www.w3.org/1999/xlink">
<g id="graph0" class="graph" transform="scale(1 1) rotate(0) translate(4 62)">
<title>index_shared_account_observer</title>
<polygon fill="#ffffff" stroke="transparent" points="-4,4 -4,-62 299,-62 299,4 -4,4"/>
<!-- Node574 -->
<g id="node1" class="node">
<title>Node574</title>
<polygon fill="#bfbfbf" stroke="#000000" points="0,-14 0,-44 125,-44 125,-14 0,-14"/>
<text text-anchor="start" x="8" y="-32" font-family="Helvetica,sans-Serif" font-size="10.00" fill="#000000">index_shared_account</text>
<text text-anchor="middle" x="62.5" y="-21" font-family="Helvetica,sans-Serif" font-size="10.00" fill="#000000">_observer</text>
</g>
<!-- Node575 -->
<g id="node2" class="node">
<title>Node575</title>
<g id="a_node2"><a xlink:href="index_2shared__data_8h.html#a74485b146faf61e6b8e5b5fe9f8db903" target="_top" xlink:title="Free Index Data. ">
<polygon fill="#ffffff" stroke="#ff0000" points="161,-38.5 161,-57.5 295,-57.5 295,-38.5 161,-38.5"/>
<text text-anchor="middle" x="228" y="-45.5" font-family="Helvetica,sans-Serif" font-size="10.00" fill="#000000">index_shared_data_free</text>
</a>
</g>
</g>
<!-- Node574&#45;&gt;Node575 -->
<g id="edge1" class="edge">
<title>Node574&#45;&gt;Node575</title>
<path fill="none" stroke="#191970" d="M135.0681,-37.3311C143.6639,-38.3179 152.4086,-39.3218 160.9234,-40.2994"/>
<polygon fill="#191970" stroke="#191970" points="135.4024,-33.8466 125.0685,-36.1831 134.604,-40.8009 135.4024,-33.8466"/>
</g>
<!-- Node1141 -->
<g id="node3" class="node">
<title>Node1141</title>
<g id="a_node3"><a xlink:href="index_2shared__data_8h.html#ab7b88501f71bdf4c06d8484d5304c578" target="_top" xlink:title="Create new Index Data. ">
<polygon fill="#ffffff" stroke="#ff0000" points="161,-.5 161,-19.5 295,-19.5 295,-.5 161,-.5"/>
<text text-anchor="middle" x="228" y="-7.5" font-family="Helvetica,sans-Serif" font-size="10.00" fill="#000000">index_shared_data_new</text>
</a>
</g>
</g>
<!-- Node574&#45;&gt;Node1141 -->
<g id="edge2" class="edge">
<title>Node574&#45;&gt;Node1141</title>
<path fill="none" stroke="#191970" d="M135.0681,-20.6689C143.6639,-19.6821 152.4086,-18.6782 160.9234,-17.7006"/>
<polygon fill="#191970" stroke="#191970" points="134.604,-17.1991 125.0685,-21.8169 135.4024,-24.1534 134.604,-17.1991"/>
</g>
</g>
</svg>
