<?xml version="1.0" encoding="UTF-8" standalone="no"?>
<!DOCTYPE svg PUBLIC "-//W3C//DTD SVG 1.1//EN"
 "http://www.w3.org/Graphics/SVG/1.1/DTD/svg11.dtd">
<!-- Generated by graphviz version 7.1.0 (0)
 -->
<!-- Title: index/index.c Pages: 1 -->
<svg width="1237pt" height="192pt"
 viewBox="0.00 0.00 1236.58 192.00" xmlns="http://www.w3.org/2000/svg" xmlns:xlink="http://www.w3.org/1999/xlink">
<g id="graph0" class="graph" transform="scale(1 1) rotate(0) translate(4 188)">
<title>index/index.c</title>
<!-- Node1 -->
<g id="node1" class="node">
<title>Node1</title>
<g id="a_node1"><a xlink:title="Index Window.">
<polygon fill="#999999" stroke="#666666" points="679.04,-184 602.04,-184 602.04,-165 679.04,-165 679.04,-184"/>
<text text-anchor="middle" x="640.54" y="-172" font-family="Helvetica,sans-Serif" font-size="10.00">index/index.c</text>
</a>
</g>
</g>
<!-- Node2 -->
<g id="node2" class="node">
<title>Node2</title>
<g id="a_node2"><a xlink:title=" ">
<polygon fill="#e0e0e0" stroke="#999999" points="130.54,-19 76.54,-19 76.54,0 130.54,0 130.54,-19"/>
<text text-anchor="middle" x="103.54" y="-7" font-family="Helvetica,sans-Serif" font-size="10.00">config.h</text>
</a>
</g>
</g>
<!-- Node1&#45;&gt;Node2 -->
<g id="edge1" class="edge">
<title>Node1&#45;&gt;Node2</title>
<path fill="none" stroke="#63b8ff" d="M601.65,-173.76C470.42,-174.23 49.93,-172.33 9.54,-129 -23.41,-93.64 39.61,-47.87 77.63,-24.94"/>
<polygon fill="#63b8ff" stroke="#63b8ff" points="78.98,-28.21 85.84,-20.13 75.44,-22.17 78.98,-28.21"/>
</g>
<!-- Node3 -->
<g id="node3" class="node">
<title>Node3</title>
<g id="a_node3"><a xlink:title=" ">
<polygon fill="#e0e0e0" stroke="#999999" points="74.04,-129 19.04,-129 19.04,-110 74.04,-110 74.04,-129"/>
<text text-anchor="middle" x="46.54" y="-117" font-family="Helvetica,sans-Serif" font-size="10.00">stddef.h</text>
</a>
</g>
</g>
<!-- Node1&#45;&gt;Node3 -->
<g id="edge2" class="edge">
<title>Node1&#45;&gt;Node3</title>
<path fill="none" stroke="#63b8ff" d="M601.55,-171.96C511.06,-168.03 279.9,-155.98 88.54,-129 87.54,-128.86 86.53,-128.71 85.51,-128.55"/>
<polygon fill="#63b8ff" stroke="#63b8ff" points="86.42,-125.16 75.97,-126.9 85.22,-132.05 86.42,-125.16"/>
</g>
<!-- Node4 -->
<g id="node4" class="node">
<title>Node4</title>
<g id="a_node4"><a xlink:title=" ">
<polygon fill="#e0e0e0" stroke="#999999" points="826.54,-19 766.54,-19 766.54,0 826.54,0 826.54,-19"/>
<text text-anchor="middle" x="796.54" y="-7" font-family="Helvetica,sans-Serif" font-size="10.00">stdbool.h</text>
</a>
</g>
</g>
<!-- Node1&#45;&gt;Node4 -->
<g id="edge3" class="edge">
<title>Node1&#45;&gt;Node4</title>
<path fill="none" stroke="#63b8ff" d="M679.09,-171.96C739.23,-168.65 851.04,-158.58 875.54,-129 890.35,-111.13 840.98,-55.77 813.58,-27.49"/>
<polygon fill="#63b8ff" stroke="#63b8ff" points="816.13,-25.1 806.63,-20.43 811.14,-30.01 816.13,-25.1"/>
</g>
<!-- Node5 -->
<g id="node5" class="node">
<title>Node5</title>
<g id="a_node5"><a xlink:href="mutt_2lib_8h.html" target="_top" xlink:title="Convenience wrapper for the library headers.">
<polygon fill="#fff0f0" stroke="red" points="134.54,-74 72.54,-74 72.54,-55 134.54,-55 134.54,-74"/>
<text text-anchor="middle" x="103.54" y="-62" font-family="Helvetica,sans-Serif" font-size="10.00">mutt/lib.h</text>
</a>
</g>
</g>
<!-- Node1&#45;&gt;Node5 -->
<g id="edge4" class="edge">
<title>Node1&#45;&gt;Node5</title>
<path fill="none" stroke="#63b8ff" d="M601.89,-172.68C487.83,-169.93 158.38,-159.4 121.54,-129 108.83,-118.51 104.72,-99.75 103.56,-85.34"/>
<polygon fill="#63b8ff" stroke="#63b8ff" points="107.07,-85.48 103.21,-75.62 100.07,-85.74 107.07,-85.48"/>
</g>
<!-- Node55 -->
<g id="node6" class="node">
<title>Node55</title>
<g id="a_node6"><a xlink:href="config_2lib_8h.html" target="_top" xlink:title="Convenience wrapper for the config headers.">
<polygon fill="#fff0f0" stroke="red" points="768.54,-74 700.54,-74 700.54,-55 768.54,-55 768.54,-74"/>
<text text-anchor="middle" x="734.54" y="-62" font-family="Helvetica,sans-Serif" font-size="10.00">config/lib.h</text>
</a>
</g>
</g>
<!-- Node1&#45;&gt;Node55 -->
<g id="edge6" class="edge">
<title>Node1&#45;&gt;Node55</title>
<path fill="none" stroke="#63b8ff" d="M648.24,-164.66C663.73,-146.86 698.94,-106.41 719.28,-83.04"/>
<polygon fill="#63b8ff" stroke="#63b8ff" points="721.83,-85.44 725.75,-75.6 716.55,-80.85 721.83,-85.44"/>
</g>
<!-- Node69 -->
<g id="node7" class="node">
<title>Node69</title>
<g id="a_node7"><a xlink:href="email_2lib_8h.html" target="_top" xlink:title="Structs that make up an email.">
<polygon fill="#fff0f0" stroke="red" points="320.04,-129 255.04,-129 255.04,-110 320.04,-110 320.04,-129"/>
<text text-anchor="middle" x="287.54" y="-117" font-family="Helvetica,sans-Serif" font-size="10.00">email/lib.h</text>
</a>
</g>
</g>
<!-- Node1&#45;&gt;Node69 -->
<g id="edge8" class="edge">
<title>Node1&#45;&gt;Node69</title>
<path fill="none" stroke="#63b8ff" d="M601.83,-168.31C543.7,-160.41 430.44,-144.64 334.54,-129 333.54,-128.84 332.53,-128.67 331.5,-128.5"/>
<polygon fill="#63b8ff" stroke="#63b8ff" points="332.33,-125.09 321.88,-126.85 331.14,-131.99 332.33,-125.09"/>
</g>
<!-- Node90 -->
<g id="node8" class="node">
<title>Node90</title>
<g id="a_node8"><a xlink:href="core_2lib_8h.html" target="_top" xlink:title="Convenience wrapper for the core headers.">
<polygon fill="#fff0f0" stroke="red" points="1133.54,-19 1073.54,-19 1073.54,0 1133.54,0 1133.54,-19"/>
<text text-anchor="middle" x="1103.54" y="-7" font-family="Helvetica,sans-Serif" font-size="10.00">core/lib.h</text>
</a>
</g>
</g>
<!-- Node1&#45;&gt;Node90 -->
<g id="edge9" class="edge">
<title>Node1&#45;&gt;Node90</title>
<path fill="none" stroke="#63b8ff" d="M679.25,-173.74C799.65,-173.5 1163.13,-165.15 1223.54,-74 1245.25,-41.25 1187.79,-24.22 1145.07,-16.33"/>
<polygon fill="#63b8ff" stroke="#63b8ff" points="1145.71,-12.89 1135.26,-14.64 1144.52,-19.79 1145.71,-12.89"/>
</g>
<!-- Node100 -->
<g id="node9" class="node">
<title>Node100</title>
<g id="a_node9"><a xlink:href="gui_2lib_8h.html" target="_top" xlink:title="Convenience wrapper for the gui headers.">
<polygon fill="#fff0f0" stroke="red" points="430.54,-129 376.54,-129 376.54,-110 430.54,-110 430.54,-129"/>
<text text-anchor="middle" x="403.54" y="-117" font-family="Helvetica,sans-Serif" font-size="10.00">gui/lib.h</text>
</a>
</g>
</g>
<!-- Node1&#45;&gt;Node100 -->
<g id="edge10" class="edge">
<title>Node1&#45;&gt;Node100</title>
<path fill="none" stroke="#63b8ff" d="M601.6,-165.05C563.37,-156.71 503.13,-143.48 441.73,-129.48"/>
<polygon fill="#63b8ff" stroke="#63b8ff" points="442.66,-126.1 432.14,-127.28 441.11,-132.92 442.66,-126.1"/>
</g>
<!-- Node138 -->
<g id="node10" class="node">
<title>Node138</title>
<g id="a_node10"><a xlink:href="attach_2lib_8h.html" target="_top" xlink:title="GUI display the mailboxes in a side panel.">
<polygon fill="#fff0f0" stroke="red" points="968.54,-74 900.54,-74 900.54,-55 968.54,-55 968.54,-74"/>
<text text-anchor="middle" x="934.54" y="-62" font-family="Helvetica,sans-Serif" font-size="10.00">attach/lib.h</text>
</a>
</g>
</g>
<!-- Node1&#45;&gt;Node138 -->
<g id="edge11" class="edge">
<title>Node1&#45;&gt;Node138</title>
<path fill="none" stroke="#63b8ff" d="M679.36,-171.43C766.39,-166.38 971.14,-152.16 991.54,-129 1006.42,-112.11 983.56,-92.9 962.52,-80.08"/>
<polygon fill="#63b8ff" stroke="#63b8ff" points="964.54,-77.2 954.13,-75.25 961.05,-83.27 964.54,-77.2"/>
</g>
<!-- Node114 -->
<g id="node11" class="node">
<title>Node114</title>
<g id="a_node11"><a xlink:href="color_2lib_8h.html" target="_top" xlink:title="Color and attribute parsing.">
<polygon fill="#fff0f0" stroke="red" points="612.04,-129 549.04,-129 549.04,-110 612.04,-110 612.04,-129"/>
<text text-anchor="middle" x="580.54" y="-117" font-family="Helvetica,sans-Serif" font-size="10.00">color/lib.h</text>
</a>
</g>
</g>
<!-- Node1&#45;&gt;Node114 -->
<g id="edge14" class="edge">
<title>Node1&#45;&gt;Node114</title>
<path fill="none" stroke="#63b8ff" d="M630.37,-164.51C621.78,-156.93 609.27,-145.88 598.94,-136.75"/>
<polygon fill="#63b8ff" stroke="#63b8ff" points="601.52,-134.36 591.71,-130.36 596.88,-139.6 601.52,-134.36"/>
</g>
<!-- Node107 -->
<g id="node12" class="node">
<title>Node107</title>
<g id="a_node12"><a xlink:href="menu_2lib_8h.html" target="_top" xlink:title="GUI present the user with a selectable list.">
<polygon fill="#fff0f0" stroke="red" points="198.04,-129 131.04,-129 131.04,-110 198.04,-110 198.04,-129"/>
<text text-anchor="middle" x="164.54" y="-117" font-family="Helvetica,sans-Serif" font-size="10.00">menu/lib.h</text>
</a>
</g>
</g>
<!-- Node1&#45;&gt;Node107 -->
<g id="edge15" class="edge">
<title>Node1&#45;&gt;Node107</title>
<path fill="none" stroke="#63b8ff" d="M601.77,-170.41C526.53,-164.19 355.51,-149.06 212.54,-129 211.54,-128.86 210.52,-128.71 209.49,-128.56"/>
<polygon fill="#63b8ff" stroke="#63b8ff" points="210.24,-125.14 199.82,-127.03 209.15,-132.05 210.24,-125.14"/>
</g>
<!-- Node160 -->
<g id="node13" class="node">
<title>Node160</title>
<g id="a_node13"><a xlink:href="postpone_2lib_8h.html" target="_top" xlink:title="Postponed Emails.">
<polygon fill="#fff0f0" stroke="red" points="682.54,-74 598.54,-74 598.54,-55 682.54,-55 682.54,-74"/>
<text text-anchor="middle" x="640.54" y="-62" font-family="Helvetica,sans-Serif" font-size="10.00">postpone/lib.h</text>
</a>
</g>
</g>
<!-- Node1&#45;&gt;Node160 -->
<g id="edge19" class="edge">
<title>Node1&#45;&gt;Node160</title>
<path fill="none" stroke="#63b8ff" d="M640.54,-164.66C640.54,-147.57 640.54,-109.61 640.54,-85.92"/>
<polygon fill="#63b8ff" stroke="#63b8ff" points="644.04,-85.97 640.54,-75.97 637.04,-85.97 644.04,-85.97"/>
</g>
<!-- Node161 -->
<g id="node14" class="node">
<title>Node161</title>
<g id="a_node14"><a xlink:href="alternates_8h.html" target="_top" xlink:title="Alternate address handling.">
<polygon fill="#fff0f0" stroke="red" points="1060.04,-74 987.04,-74 987.04,-55 1060.04,-55 1060.04,-74"/>
<text text-anchor="middle" x="1023.54" y="-62" font-family="Helvetica,sans-Serif" font-size="10.00">alternates.h</text>
</a>
</g>
</g>
<!-- Node1&#45;&gt;Node161 -->
<g id="edge21" class="edge">
<title>Node1&#45;&gt;Node161</title>
<path fill="none" stroke="#63b8ff" d="M679.26,-174.14C763.46,-174.71 959.51,-171.33 1007.54,-129 1019.68,-118.3 1023.27,-99.88 1024.06,-85.62"/>
<polygon fill="#63b8ff" stroke="#63b8ff" points="1027.56,-86.01 1024.17,-75.98 1020.56,-85.94 1027.56,-86.01"/>
</g>
<!-- Node162 -->
<g id="node15" class="node">
<title>Node162</title>
<g id="a_node15"><a xlink:title=" ">
<polygon fill="#e0e0e0" stroke="#999999" points="866.54,-129 808.54,-129 808.54,-110 866.54,-110 866.54,-129"/>
<text text-anchor="middle" x="837.54" y="-117" font-family="Helvetica,sans-Serif" font-size="10.00">globals.h</text>
</a>
</g>
</g>
<!-- Node1&#45;&gt;Node162 -->
<g id="edge24" class="edge">
<title>Node1&#45;&gt;Node162</title>
<path fill="none" stroke="#63b8ff" d="M673.96,-164.51C708.08,-155.33 761.07,-141.07 797.44,-131.29"/>
<polygon fill="#63b8ff" stroke="#63b8ff" points="797.94,-134.78 806.69,-128.8 796.12,-128.02 797.94,-134.78"/>
</g>
<!-- Node163 -->
<g id="node16" class="node">
<title>Node163</title>
<g id="a_node16"><a xlink:href="mutt__thread_8h.html" target="_top" xlink:title="Create/manipulate threading in emails.">
<polygon fill="#fff0f0" stroke="red" points="790.04,-129 707.04,-129 707.04,-110 790.04,-110 790.04,-129"/>
<text text-anchor="middle" x="748.54" y="-117" font-family="Helvetica,sans-Serif" font-size="10.00">mutt_thread.h</text>
</a>
</g>
</g>
<!-- Node1&#45;&gt;Node163 -->
<g id="edge25" class="edge">
<title>Node1&#45;&gt;Node163</title>
<path fill="none" stroke="#63b8ff" d="M658.86,-164.51C675.72,-156.24 700.98,-143.84 720.4,-134.31"/>
<polygon fill="#63b8ff" stroke="#63b8ff" points="721.7,-137.57 729.13,-130.02 718.62,-131.29 721.7,-137.57"/>
</g>
<!-- Node164 -->
<g id="node17" class="node">
<title>Node164</title>
<g id="a_node17"><a xlink:href="muttlib_8h.html" target="_top" xlink:title="Some miscellaneous functions.">
<polygon fill="#fff0f0" stroke="red" points="982.04,-129 923.04,-129 923.04,-110 982.04,-110 982.04,-129"/>
<text text-anchor="middle" x="952.54" y="-117" font-family="Helvetica,sans-Serif" font-size="10.00">muttlib.h</text>
</a>
</g>
</g>
<!-- Node1&#45;&gt;Node164 -->
<g id="edge28" class="edge">
<title>Node1&#45;&gt;Node164</title>
<path fill="none" stroke="#63b8ff" d="M679.21,-167.41C731.35,-159.12 827.07,-143.63 908.54,-129 909.55,-128.82 910.57,-128.64 911.59,-128.45"/>
<polygon fill="#63b8ff" stroke="#63b8ff" points="912.07,-131.92 921.25,-126.64 910.78,-125.04 912.07,-131.92"/>
</g>
<!-- Node165 -->
<g id="node18" class="node">
<title>Node165</title>
<g id="a_node18"><a xlink:href="mview_8h.html" target="_top" xlink:title="View of a Mailbox.">
<polygon fill="#fff0f0" stroke="red" points="373.04,-74 318.04,-74 318.04,-55 373.04,-55 373.04,-74"/>
<text text-anchor="middle" x="345.54" y="-62" font-family="Helvetica,sans-Serif" font-size="10.00">mview.h</text>
</a>
</g>
</g>
<!-- Node1&#45;&gt;Node165 -->
<g id="edge31" class="edge">
<title>Node1&#45;&gt;Node165</title>
<path fill="none" stroke="#63b8ff" d="M601.62,-171.99C506.82,-167.92 269.96,-155.21 246.54,-129 224.41,-104.23 270.38,-85.3 306.84,-74.79"/>
<polygon fill="#63b8ff" stroke="#63b8ff" points="307.58,-78.21 316.3,-72.2 305.73,-71.46 307.58,-78.21"/>
</g>
<!-- Node166 -->
<g id="node19" class="node">
<title>Node166</title>
<g id="a_node19"><a xlink:href="index_2private__data_8h.html" target="_top" xlink:title="Private state data for the Index.">
<polygon fill="white" stroke="#666666" points="513.04,-74 430.04,-74 430.04,-55 513.04,-55 513.04,-74"/>
<text text-anchor="middle" x="471.54" y="-62" font-family="Helvetica,sans-Serif" font-size="10.00">private_data.h</text>
</a>
</g>
</g>
<!-- Node1&#45;&gt;Node166 -->
<g id="edge33" class="edge">
<title>Node1&#45;&gt;Node166</title>
<path fill="none" stroke="#63b8ff" d="M601.62,-173.09C533.52,-171.45 397.13,-163.8 367.54,-129 347.49,-105.41 384.36,-88.04 419.62,-77.49"/>
<polygon fill="#63b8ff" stroke="#63b8ff" points="420.31,-80.93 428.99,-74.84 418.41,-74.19 420.31,-80.93"/>
</g>
<!-- Node167 -->
<g id="node20" class="node">
<title>Node167</title>
<g id="a_node20"><a xlink:href="score_8h.html" target="_top" xlink:title="Routines for adding user scores to emails.">
<polygon fill="#fff0f0" stroke="red" points="1128.54,-74 1078.54,-74 1078.54,-55 1128.54,-55 1128.54,-74"/>
<text text-anchor="middle" x="1103.54" y="-62" font-family="Helvetica,sans-Serif" font-size="10.00">score.h</text>
</a>
</g>
</g>
<!-- Node1&#45;&gt;Node167 -->
<g id="edge35" class="edge">
<title>Node1&#45;&gt;Node167</title>
<path fill="none" stroke="#63b8ff" d="M679.39,-171.86C764.65,-167.8 965.47,-155.63 1027.54,-129 1051.88,-118.56 1074.45,-97.69 1088.56,-82.73"/>
<polygon fill="#63b8ff" stroke="#63b8ff" points="1091.05,-85.2 1095.18,-75.44 1085.87,-80.49 1091.05,-85.2"/>
</g>
<!-- Node168 -->
<g id="node21" class="node">
<title>Node168</title>
<g id="a_node21"><a xlink:href="index_2shared__data_8h.html" target="_top" xlink:title="Data shared between Index, Pager and Sidebar.">
<polygon fill="#fff0f0" stroke="red" points="530.54,-129 448.54,-129 448.54,-110 530.54,-110 530.54,-129"/>
<text text-anchor="middle" x="489.54" y="-117" font-family="Helvetica,sans-Serif" font-size="10.00">shared_data.h</text>
</a>
</g>
</g>
<!-- Node1&#45;&gt;Node168 -->
<g id="edge38" class="edge">
<title>Node1&#45;&gt;Node168</title>
<path fill="none" stroke="#63b8ff" d="M614.93,-164.51C590.45,-155.92 553.31,-142.88 525.8,-133.22"/>
<polygon fill="#63b8ff" stroke="#63b8ff" points="527.05,-129.96 516.46,-129.95 524.74,-136.56 527.05,-129.96"/>
</g>
<!-- Node169 -->
<g id="node22" class="node">
<title>Node169</title>
<g id="a_node22"><a xlink:href="subjectrx_8h.html" target="_top" xlink:title="Subject Regex handling.">
<polygon fill="#fff0f0" stroke="red" points="1214.54,-74 1146.54,-74 1146.54,-55 1214.54,-55 1214.54,-74"/>
<text text-anchor="middle" x="1180.54" y="-62" font-family="Helvetica,sans-Serif" font-size="10.00">subjectrx.h</text>
</a>
</g>
</g>
<!-- Node1&#45;&gt;Node169 -->
<g id="edge40" class="edge">
<title>Node1&#45;&gt;Node169</title>
<path fill="none" stroke="#63b8ff" d="M679.32,-174.02C753.98,-174.02 922.21,-169.08 1056.54,-129 1093.89,-117.86 1133.36,-95.58 1157.47,-80.6"/>
<polygon fill="#63b8ff" stroke="#63b8ff" points="1159.26,-83.61 1165.84,-75.3 1155.52,-77.7 1159.26,-83.61"/>
</g>
<!-- Node5&#45;&gt;Node2 -->
<g id="edge5" class="edge">
<title>Node5&#45;&gt;Node2</title>
<path fill="none" stroke="#63b8ff" d="M103.54,-54.75C103.54,-48.27 103.54,-39.16 103.54,-30.9"/>
<polygon fill="#63b8ff" stroke="#63b8ff" points="107.04,-30.96 103.54,-20.96 100.04,-30.96 107.04,-30.96"/>
</g>
<!-- Node55&#45;&gt;Node4 -->
<g id="edge7" class="edge">
<title>Node55&#45;&gt;Node4</title>
<path fill="none" stroke="#63b8ff" d="M745.06,-54.51C753.93,-46.93 766.85,-35.88 777.53,-26.75"/>
<polygon fill="#63b8ff" stroke="#63b8ff" points="779.7,-29.5 785.03,-20.34 775.16,-24.18 779.7,-29.5"/>
</g>
<!-- Node138&#45;&gt;Node4 -->
<g id="edge12" class="edge">
<title>Node138&#45;&gt;Node4</title>
<path fill="none" stroke="#63b8ff" d="M911.13,-54.51C888.89,-45.97 855.22,-33.03 830.12,-23.4"/>
<polygon fill="#63b8ff" stroke="#63b8ff" points="831.61,-20.22 821.02,-19.9 829.1,-26.75 831.61,-20.22"/>
</g>
<!-- Node138&#45;&gt;Node90 -->
<g id="edge13" class="edge">
<title>Node138&#45;&gt;Node90</title>
<path fill="none" stroke="#63b8ff" d="M963.21,-54.51C990.97,-45.8 1033.29,-32.53 1064.19,-22.84"/>
<polygon fill="#63b8ff" stroke="#63b8ff" points="1065.08,-26.23 1073.57,-19.9 1062.98,-19.55 1065.08,-26.23"/>
</g>
<!-- Node107&#45;&gt;Node2 -->
<g id="edge16" class="edge">
<title>Node107&#45;&gt;Node2</title>
<path fill="none" stroke="#63b8ff" d="M162.86,-109.81C160.15,-97.13 154.03,-73.08 143.54,-55 137.71,-44.95 129.33,-35.18 121.75,-27.37"/>
<polygon fill="#63b8ff" stroke="#63b8ff" points="124.38,-25.04 114.79,-20.53 119.47,-30.04 124.38,-25.04"/>
</g>
<!-- Node107&#45;&gt;Node4 -->
<g id="edge17" class="edge">
<title>Node107&#45;&gt;Node4</title>
<path fill="none" stroke="#63b8ff" d="M180.04,-109.71C205.93,-95.49 260.04,-67.74 309.54,-55 470.16,-13.65 669.23,-9.5 754.54,-9.85"/>
<polygon fill="#63b8ff" stroke="#63b8ff" points="754.51,-13.35 764.53,-9.92 754.56,-6.35 754.51,-13.35"/>
</g>
<!-- Node107&#45;&gt;Node5 -->
<g id="edge18" class="edge">
<title>Node107&#45;&gt;Node5</title>
<path fill="none" stroke="#63b8ff" d="M154.2,-109.51C145.47,-101.93 132.75,-90.88 122.25,-81.75"/>
<polygon fill="#63b8ff" stroke="#63b8ff" points="124.73,-79.27 114.88,-75.35 120.13,-84.55 124.73,-79.27"/>
</g>
<!-- Node160&#45;&gt;Node4 -->
<g id="edge20" class="edge">
<title>Node160&#45;&gt;Node4</title>
<path fill="none" stroke="#63b8ff" d="M667.01,-54.51C692.41,-45.88 731.01,-32.76 759.47,-23.1"/>
<polygon fill="#63b8ff" stroke="#63b8ff" points="760.44,-26.46 768.78,-19.93 758.18,-19.84 760.44,-26.46"/>
</g>
<!-- Node161&#45;&gt;Node4 -->
<g id="edge22" class="edge">
<title>Node161&#45;&gt;Node4</title>
<path fill="none" stroke="#63b8ff" d="M986.57,-54.87C945.83,-45.36 880.47,-30.1 838.02,-20.18"/>
<polygon fill="#63b8ff" stroke="#63b8ff" points="838.96,-16.81 828.43,-17.95 837.37,-23.63 838.96,-16.81"/>
</g>
<!-- Node161&#45;&gt;Node90 -->
<g id="edge23" class="edge">
<title>Node161&#45;&gt;Node90</title>
<path fill="none" stroke="#63b8ff" d="M1037.11,-54.51C1049.02,-46.62 1066.59,-34.98 1080.67,-25.65"/>
<polygon fill="#63b8ff" stroke="#63b8ff" points="1082.51,-28.63 1088.91,-20.19 1078.64,-22.8 1082.51,-28.63"/>
</g>
<!-- Node163&#45;&gt;Node4 -->
<g id="edge26" class="edge">
<title>Node163&#45;&gt;Node4</title>
<path fill="none" stroke="#63b8ff" d="M755.34,-109.74C761.8,-101.07 771.41,-87.22 777.54,-74 784.07,-59.92 789,-43.05 792.19,-30.23"/>
<polygon fill="#63b8ff" stroke="#63b8ff" points="795.51,-31.43 794.38,-20.89 788.69,-29.83 795.51,-31.43"/>
</g>
<!-- Node163&#45;&gt;Node55 -->
<g id="edge27" class="edge">
<title>Node163&#45;&gt;Node55</title>
<path fill="none" stroke="#63b8ff" d="M746.23,-109.75C744.48,-103.11 742,-93.73 739.78,-85.31"/>
<polygon fill="#63b8ff" stroke="#63b8ff" points="743.23,-84.68 737.29,-75.91 736.46,-86.47 743.23,-84.68"/>
</g>
<!-- Node164&#45;&gt;Node4 -->
<g id="edge29" class="edge">
<title>Node164&#45;&gt;Node4</title>
<path fill="none" stroke="#63b8ff" d="M939.78,-109.66C913.27,-91.31 851.96,-48.87 818.8,-25.91"/>
<polygon fill="#63b8ff" stroke="#63b8ff" points="820.94,-23.14 810.73,-20.32 816.96,-28.89 820.94,-23.14"/>
</g>
<!-- Node164&#45;&gt;Node138 -->
<g id="edge30" class="edge">
<title>Node164&#45;&gt;Node138</title>
<path fill="none" stroke="#63b8ff" d="M949.57,-109.75C947.32,-103.11 944.13,-93.73 941.27,-85.31"/>
<polygon fill="#63b8ff" stroke="#63b8ff" points="944.6,-84.22 938.07,-75.88 937.97,-86.47 944.6,-84.22"/>
</g>
<!-- Node165&#45;&gt;Node4 -->
<g id="edge32" class="edge">
<title>Node165&#45;&gt;Node4</title>
<path fill="none" stroke="#63b8ff" d="M373.42,-60.22C450.04,-51.22 664.22,-26.05 755.01,-15.38"/>
<polygon fill="#63b8ff" stroke="#63b8ff" points="755.19,-18.88 764.72,-14.24 754.38,-11.93 755.19,-18.88"/>
</g>
<!-- Node166&#45;&gt;Node4 -->
<g id="edge34" class="edge">
<title>Node166&#45;&gt;Node4</title>
<path fill="none" stroke="#63b8ff" d="M513.37,-56.68C575.86,-46.49 692.9,-27.4 755.14,-17.25"/>
<polygon fill="#63b8ff" stroke="#63b8ff" points="755.66,-20.71 764.97,-15.65 754.54,-13.8 755.66,-20.71"/>
</g>
<!-- Node167&#45;&gt;Node4 -->
<g id="edge36" class="edge">
<title>Node167&#45;&gt;Node4</title>
<path fill="none" stroke="#63b8ff" d="M1078.35,-56.95C1075.39,-56.26 1072.4,-55.59 1069.54,-55 988.04,-38.2 891.79,-23.75 838.1,-16.17"/>
<polygon fill="#63b8ff" stroke="#63b8ff" points="838.88,-12.75 828.49,-14.83 837.91,-19.68 838.88,-12.75"/>
</g>
<!-- Node167&#45;&gt;Node90 -->
<g id="edge37" class="edge">
<title>Node167&#45;&gt;Node90</title>
<path fill="none" stroke="#63b8ff" d="M1103.54,-54.75C1103.54,-48.27 1103.54,-39.16 1103.54,-30.9"/>
<polygon fill="#63b8ff" stroke="#63b8ff" points="1107.04,-30.96 1103.54,-20.96 1100.04,-30.96 1107.04,-30.96"/>
</g>
<!-- Node168&#45;&gt;Node4 -->
<g id="edge39" class="edge">
<title>Node168&#45;&gt;Node4</title>
<path fill="none" stroke="#63b8ff" d="M500.51,-109.66C518.19,-95.87 554.53,-69.34 589.54,-55 644.27,-32.59 711.96,-20.77 754.71,-15.08"/>
<polygon fill="#63b8ff" stroke="#63b8ff" points="755.09,-18.56 764.57,-13.83 754.21,-11.62 755.09,-18.56"/>
</g>
<!-- Node169&#45;&gt;Node4 -->
<g id="edge41" class="edge">
<title>Node169&#45;&gt;Node4</title>
<path fill="none" stroke="#63b8ff" d="M1146.31,-56.52C1143.35,-55.98 1140.4,-55.47 1137.54,-55 1029.94,-37.36 902.32,-22.24 838,-15.02"/>
<polygon fill="#63b8ff" stroke="#63b8ff" points="838.58,-11.57 828.25,-13.94 837.8,-18.52 838.58,-11.57"/>
</g>
<!-- Node169&#45;&gt;Node90 -->
<g id="edge42" class="edge">
<title>Node169&#45;&gt;Node90</title>
<path fill="none" stroke="#63b8ff" d="M1167.48,-54.51C1156.02,-46.62 1139.11,-34.98 1125.56,-25.65"/>
<polygon fill="#63b8ff" stroke="#63b8ff" points="1127.88,-23 1117.66,-20.22 1123.91,-28.77 1127.88,-23"/>
</g>
</g>
</svg>
