<?xml version="1.0" encoding="UTF-8" standalone="no"?>
<!DOCTYPE svg PUBLIC "-//W3C//DTD SVG 1.1//EN"
 "http://www.w3.org/Graphics/SVG/1.1/DTD/svg11.dtd">
<!-- Generated by graphviz version 12.2.1 (20241206.2353)
 -->
<!-- Title: key/init.h Pages: 1 -->
<svg width="99pt" height="147pt"
 viewBox="0.00 0.00 98.50 146.75" xmlns="http://www.w3.org/2000/svg" xmlns:xlink="http://www.w3.org/1999/xlink">
<g id="graph0" class="graph" transform="scale(1 1) rotate(0) translate(4 142.75)">
<title>key/init.h</title>
<!-- Node1 -->
<g id="Node000001" class="node">
<title>Node1</title>
<g id="a_Node000001"><a xlink:title="Set up the key bindings.">
<polygon fill="#999999" stroke="#666666" points="84.88,-138.75 26.12,-138.75 26.12,-116.5 84.88,-116.5 84.88,-138.75"/>
<text text-anchor="middle" x="55.5" y="-125.25" font-family="Helvetica,sans-Serif" font-size="10.00">key/init.h</text>
</a>
</g>
</g>
<!-- Node2 -->
<g id="Node000002" class="node">
<title>Node2</title>
<g id="a_Node000002"><a xlink:href="key_2lib_8h.html" target="_top" xlink:title="Manage keymappings.">
<polygon fill="#fff0f0" stroke="red" points="55,-80.5 0,-80.5 0,-58.25 55,-58.25 55,-80.5"/>
<text text-anchor="middle" x="27.5" y="-67" font-family="Helvetica,sans-Serif" font-size="10.00">key/lib.h</text>
</a>
</g>
</g>
<!-- Node1&#45;&gt;Node2 -->
<g id="edge1_Node000001_Node000002" class="edge">
<title>Node1&#45;&gt;Node2</title>
<g id="a_edge1_Node000001_Node000002"><a xlink:title=" ">
<path fill="none" stroke="#63b8ff" d="M45.11,-105.75C40.9,-97.29 36.22,-87.89 32.74,-80.91"/>
<polygon fill="#63b8ff" stroke="#63b8ff" points="41.97,-107.3 49.56,-114.69 48.24,-104.18 41.97,-107.3"/>
</a>
</g>
</g>
<!-- Node81 -->
<g id="Node000081" class="node">
<title>Node81</title>
<g id="a_Node000081"><a xlink:href="key_2menu_8c.html" target="_top" xlink:title="Maniplate Menus and SubMenus.">
<polygon fill="white" stroke="#666666" points="90.5,-22.25 20.5,-22.25 20.5,0 90.5,0 90.5,-22.25"/>
<text text-anchor="middle" x="55.5" y="-8.75" font-family="Helvetica,sans-Serif" font-size="10.00">key/menu.c</text>
</a>
</g>
</g>
<!-- Node1&#45;&gt;Node81 -->
<g id="edge3_Node000001_Node000081" class="edge">
<title>Node1&#45;&gt;Node81</title>
<g id="a_edge3_Node000001_Node000081"><a xlink:title=" ">
<path fill="none" stroke="#63b8ff" d="M60.59,-105.1C62.18,-97.39 63.72,-88.6 64.5,-80.5 65.45,-70.66 65.45,-68.09 64.5,-58.25 63.31,-45.91 60.36,-31.96 58.16,-22.67"/>
<polygon fill="#63b8ff" stroke="#63b8ff" points="57.23,-104.09 58.49,-114.61 64.07,-105.6 57.23,-104.09"/>
</a>
</g>
</g>
<!-- Node2&#45;&gt;Node81 -->
<g id="edge2_Node000002_Node000081" class="edge">
<title>Node2&#45;&gt;Node81</title>
<g id="a_edge2_Node000002_Node000081"><a xlink:title=" ">
<path fill="none" stroke="#63b8ff" d="M37.89,-47.5C42.1,-39.04 46.78,-29.64 50.26,-22.66"/>
<polygon fill="#63b8ff" stroke="#63b8ff" points="34.76,-45.93 33.44,-56.44 41.03,-49.05 34.76,-45.93"/>
</a>
</g>
</g>
</g>
</svg>
