<?xml version="1.0" encoding="UTF-8" standalone="no"?>
<!DOCTYPE svg PUBLIC "-//W3C//DTD SVG 1.1//EN"
 "http://www.w3.org/Graphics/SVG/1.1/DTD/svg11.dtd">
<!-- Generated by graphviz version 2.40.1 (20161225.0304)
 -->
<!-- Title: mutt_parse_rc_buffer Pages: 1 -->
<svg width="274pt" height="66pt"
 viewBox="0.00 0.00 274.00 66.00" xmlns="http://www.w3.org/2000/svg" xmlns:xlink="http://www.w3.org/1999/xlink">
<g id="graph0" class="graph" transform="scale(1 1) rotate(0) translate(4 62)">
<title>mutt_parse_rc_buffer</title>
<polygon fill="#ffffff" stroke="transparent" points="-4,4 -4,-62 270,-62 270,4 -4,4"/>
<!-- Node6213 -->
<g id="node1" class="node">
<title>Node6213</title>
<polygon fill="#bfbfbf" stroke="#000000" points="0,-19.5 0,-38.5 120,-38.5 120,-19.5 0,-19.5"/>
<text text-anchor="middle" x="60" y="-26.5" font-family="Helvetica,sans-Serif" font-size="10.00" fill="#000000">mutt_parse_rc_buffer</text>
</g>
<!-- Node6214 -->
<g id="node2" class="node">
<title>Node6214</title>
<g id="a_node2"><a xlink:href="command__parse_8h.html#ae940c8a2d277f104d28f9998cd73ead5" target="_top" xlink:title="Read an initialization file. ">
<polygon fill="#ffffff" stroke="#ff0000" points="179.5,-38.5 179.5,-57.5 242.5,-57.5 242.5,-38.5 179.5,-38.5"/>
<text text-anchor="middle" x="211" y="-45.5" font-family="Helvetica,sans-Serif" font-size="10.00" fill="#000000">source_rc</text>
</a>
</g>
</g>
<!-- Node6213&#45;&gt;Node6214 -->
<g id="edge1" class="edge">
<title>Node6213&#45;&gt;Node6214</title>
<path fill="none" stroke="#191970" d="M130.1682,-37.8291C147.3649,-39.9929 164.9322,-42.2034 179.2779,-44.0085"/>
<polygon fill="#191970" stroke="#191970" points="130.4718,-34.3398 120.1131,-36.5639 129.5979,-41.285 130.4718,-34.3398"/>
</g>
<!-- Node6218 -->
<g id="node3" class="node">
<title>Node6218</title>
<g id="a_node3"><a xlink:href="init_8h.html#a136d8ba552e1a6f982e8349e0629ee8d" target="_top" xlink:title="Parse a line of user config. ">
<polygon fill="#ffffff" stroke="#ff0000" points="156,-.5 156,-19.5 266,-19.5 266,-.5 156,-.5"/>
<text text-anchor="middle" x="211" y="-7.5" font-family="Helvetica,sans-Serif" font-size="10.00" fill="#000000">mutt_parse_rc_line</text>
</a>
</g>
</g>
<!-- Node6213&#45;&gt;Node6218 -->
<g id="edge2" class="edge">
<title>Node6213&#45;&gt;Node6218</title>
<path fill="none" stroke="#191970" d="M130.2035,-20.1664C138.8589,-19.0774 147.6076,-17.9765 155.9916,-16.9216"/>
<polygon fill="#191970" stroke="#191970" points="129.5979,-16.715 120.1131,-21.4361 130.4718,-23.6602 129.5979,-16.715"/>
</g>
</g>
</svg>
