<?xml version="1.0" encoding="UTF-8" standalone="no"?>
<!DOCTYPE svg PUBLIC "-//W3C//DTD SVG 1.1//EN"
 "http://www.w3.org/Graphics/SVG/1.1/DTD/svg11.dtd">
<!-- Generated by graphviz version 7.1.0 (0)
 -->
<!-- Title: init.c Pages: 1 -->
<svg width="2232pt" height="247pt"
 viewBox="0.00 0.00 2231.91 247.00" xmlns="http://www.w3.org/2000/svg" xmlns:xlink="http://www.w3.org/1999/xlink">
<g id="graph0" class="graph" transform="scale(1 1) rotate(0) translate(4 243)">
<title>init.c</title>
<!-- Node1 -->
<g id="node1" class="node">
<title>Node1</title>
<g id="a_node1"><a xlink:title="Config/command parsing.">
<polygon fill="#999999" stroke="#666666" points="983.91,-239 945.91,-239 945.91,-220 983.91,-220 983.91,-239"/>
<text text-anchor="middle" x="964.91" y="-227" font-family="Helvetica,sans-Serif" font-size="10.00">init.c</text>
</a>
</g>
</g>
<!-- Node2 -->
<g id="node2" class="node">
<title>Node2</title>
<g id="a_node2"><a xlink:title=" ">
<polygon fill="#e0e0e0" stroke="#999999" points="339.91,-19 285.91,-19 285.91,0 339.91,0 339.91,-19"/>
<text text-anchor="middle" x="312.91" y="-7" font-family="Helvetica,sans-Serif" font-size="10.00">config.h</text>
</a>
</g>
</g>
<!-- Node1&#45;&gt;Node2 -->
<g id="edge1" class="edge">
<title>Node1&#45;&gt;Node2</title>
<path fill="none" stroke="#63b8ff" d="M945.46,-228.52C844.86,-228.43 386.54,-225.74 340.91,-184 335.28,-178.85 321.33,-75.61 315.52,-30.88"/>
<polygon fill="#63b8ff" stroke="#63b8ff" points="318.99,-30.46 314.24,-20.99 312.05,-31.36 318.99,-30.46"/>
</g>
<!-- Node3 -->
<g id="node3" class="node">
<title>Node3</title>
<g id="a_node3"><a xlink:title=" ">
<polygon fill="#e0e0e0" stroke="#999999" points="1328.41,-184 1275.41,-184 1275.41,-165 1328.41,-165 1328.41,-184"/>
<text text-anchor="middle" x="1301.91" y="-172" font-family="Helvetica,sans-Serif" font-size="10.00">errno.h</text>
</a>
</g>
</g>
<!-- Node1&#45;&gt;Node3 -->
<g id="edge2" class="edge">
<title>Node1&#45;&gt;Node3</title>
<path fill="none" stroke="#63b8ff" d="M984.1,-226.29C1030.48,-220.83 1152.58,-205.68 1264.11,-184.4"/>
<polygon fill="#63b8ff" stroke="#63b8ff" points="1264.58,-187.87 1273.73,-182.54 1263.25,-181 1264.58,-187.87"/>
</g>
<!-- Node4 -->
<g id="node4" class="node">
<title>Node4</title>
<g id="a_node4"><a xlink:title=" ">
<polygon fill="#e0e0e0" stroke="#999999" points="1391.41,-184 1346.41,-184 1346.41,-165 1391.41,-165 1391.41,-184"/>
<text text-anchor="middle" x="1368.91" y="-172" font-family="Helvetica,sans-Serif" font-size="10.00">pwd.h</text>
</a>
</g>
</g>
<!-- Node1&#45;&gt;Node4 -->
<g id="edge3" class="edge">
<title>Node1&#45;&gt;Node4</title>
<path fill="none" stroke="#63b8ff" d="M984.09,-227.22C1037.94,-223.43 1195.23,-210.91 1334.69,-184.38"/>
<polygon fill="#63b8ff" stroke="#63b8ff" points="1335.34,-187.82 1344.49,-182.48 1334.01,-180.95 1335.34,-187.82"/>
</g>
<!-- Node5 -->
<g id="node5" class="node">
<title>Node5</title>
<g id="a_node5"><a xlink:title=" ">
<polygon fill="#e0e0e0" stroke="#999999" points="779.91,-74 719.91,-74 719.91,-55 779.91,-55 779.91,-74"/>
<text text-anchor="middle" x="749.91" y="-62" font-family="Helvetica,sans-Serif" font-size="10.00">stdbool.h</text>
</a>
</g>
</g>
<!-- Node1&#45;&gt;Node5 -->
<g id="edge4" class="edge">
<title>Node1&#45;&gt;Node5</title>
<path fill="none" stroke="#63b8ff" d="M960.47,-219.68C949.07,-197.92 916.66,-141.19 873.91,-110 849.29,-92.04 816.69,-80.71 791.1,-73.99"/>
<polygon fill="#63b8ff" stroke="#63b8ff" points="792.27,-70.67 781.72,-71.66 790.58,-77.47 792.27,-70.67"/>
</g>
<!-- Node6 -->
<g id="node6" class="node">
<title>Node6</title>
<g id="a_node6"><a xlink:title=" ">
<polygon fill="#e0e0e0" stroke="#999999" points="1193.91,-129 1145.91,-129 1145.91,-110 1193.91,-110 1193.91,-129"/>
<text text-anchor="middle" x="1169.91" y="-117" font-family="Helvetica,sans-Serif" font-size="10.00">stdio.h</text>
</a>
</g>
</g>
<!-- Node1&#45;&gt;Node6 -->
<g id="edge5" class="edge">
<title>Node1&#45;&gt;Node6</title>
<path fill="none" stroke="#63b8ff" d="M984.26,-226.32C1026.83,-221.14 1126.79,-206.81 1150.91,-184 1162.69,-172.86 1167.26,-154.75 1168.99,-140.72"/>
<polygon fill="#63b8ff" stroke="#63b8ff" points="1172.47,-141.05 1169.78,-130.8 1165.49,-140.49 1172.47,-141.05"/>
</g>
<!-- Node7 -->
<g id="node7" class="node">
<title>Node7</title>
<g id="a_node7"><a xlink:title=" ">
<polygon fill="#e0e0e0" stroke="#999999" points="1462.41,-184 1409.41,-184 1409.41,-165 1462.41,-165 1462.41,-184"/>
<text text-anchor="middle" x="1435.91" y="-172" font-family="Helvetica,sans-Serif" font-size="10.00">string.h</text>
</a>
</g>
</g>
<!-- Node1&#45;&gt;Node7 -->
<g id="edge6" class="edge">
<title>Node1&#45;&gt;Node7</title>
<path fill="none" stroke="#63b8ff" d="M984.16,-227.48C1044.11,-224.09 1232.83,-211.95 1398.37,-184.22"/>
<polygon fill="#63b8ff" stroke="#63b8ff" points="1398.48,-187.76 1407.75,-182.63 1397.3,-180.86 1398.48,-187.76"/>
</g>
<!-- Node8 -->
<g id="node8" class="node">
<title>Node8</title>
<g id="a_node8"><a xlink:title=" ">
<polygon fill="#e0e0e0" stroke="#999999" points="1541.41,-184 1480.41,-184 1480.41,-165 1541.41,-165 1541.41,-184"/>
<text text-anchor="middle" x="1510.91" y="-172" font-family="Helvetica,sans-Serif" font-size="10.00">sys/stat.h</text>
</a>
</g>
</g>
<!-- Node1&#45;&gt;Node8 -->
<g id="edge7" class="edge">
<title>Node1&#45;&gt;Node8</title>
<path fill="none" stroke="#63b8ff" d="M984.36,-227.68C1050.72,-224.71 1274.48,-213.17 1469.03,-184.26"/>
<polygon fill="#63b8ff" stroke="#63b8ff" points="1469.46,-187.73 1478.83,-182.78 1468.42,-180.81 1469.46,-187.73"/>
</g>
<!-- Node9 -->
<g id="node9" class="node">
<title>Node9</title>
<g id="a_node9"><a xlink:title=" ">
<polygon fill="#e0e0e0" stroke="#999999" points="1643.91,-184 1559.91,-184 1559.91,-165 1643.91,-165 1643.91,-184"/>
<text text-anchor="middle" x="1601.91" y="-172" font-family="Helvetica,sans-Serif" font-size="10.00">sys/utsname.h</text>
</a>
</g>
</g>
<!-- Node1&#45;&gt;Node9 -->
<g id="edge8" class="edge">
<title>Node1&#45;&gt;Node9</title>
<path fill="none" stroke="#63b8ff" d="M984.2,-227.66C1056.75,-224.38 1320.4,-211.29 1548.48,-184.18"/>
<polygon fill="#63b8ff" stroke="#63b8ff" points="1548.64,-187.69 1558.15,-183.02 1547.81,-180.74 1548.64,-187.69"/>
</g>
<!-- Node10 -->
<g id="node10" class="node">
<title>Node10</title>
<g id="a_node10"><a xlink:title=" ">
<polygon fill="#e0e0e0" stroke="#999999" points="1715.91,-184 1661.91,-184 1661.91,-165 1715.91,-165 1715.91,-184"/>
<text text-anchor="middle" x="1688.91" y="-172" font-family="Helvetica,sans-Serif" font-size="10.00">unistd.h</text>
</a>
</g>
</g>
<!-- Node1&#45;&gt;Node10 -->
<g id="edge9" class="edge">
<title>Node1&#45;&gt;Node10</title>
<path fill="none" stroke="#63b8ff" d="M984.19,-228.43C1064.6,-227.9 1381.28,-223.37 1650.33,-184.13"/>
<polygon fill="#63b8ff" stroke="#63b8ff" points="1650.61,-187.62 1659.99,-182.7 1649.59,-180.7 1650.61,-187.62"/>
</g>
<!-- Node11 -->
<g id="node11" class="node">
<title>Node11</title>
<g id="a_node11"><a xlink:href="mutt_2lib_8h.html" target="_top" xlink:title="Convenience wrapper for the library headers.">
<polygon fill="#fff0f0" stroke="red" points="95.91,-74 33.91,-74 33.91,-55 95.91,-55 95.91,-74"/>
<text text-anchor="middle" x="64.91" y="-62" font-family="Helvetica,sans-Serif" font-size="10.00">mutt/lib.h</text>
</a>
</g>
</g>
<!-- Node1&#45;&gt;Node11 -->
<g id="edge10" class="edge">
<title>Node1&#45;&gt;Node11</title>
<path fill="none" stroke="#63b8ff" d="M945.71,-228.35C813.59,-227.22 43.43,-219.12 9.91,-184 -18.52,-154.21 21.06,-107.06 46.47,-82.16"/>
<polygon fill="#63b8ff" stroke="#63b8ff" points="48.77,-84.8 53.63,-75.39 43.96,-79.72 48.77,-84.8"/>
</g>
<!-- Node59 -->
<g id="node12" class="node">
<title>Node59</title>
<g id="a_node12"><a xlink:href="address_2lib_8h.html" target="_top" xlink:title="Email Address Handling.">
<polygon fill="#fff0f0" stroke="red" points="1809.91,-184 1733.91,-184 1733.91,-165 1809.91,-165 1809.91,-184"/>
<text text-anchor="middle" x="1771.91" y="-172" font-family="Helvetica,sans-Serif" font-size="10.00">address/lib.h</text>
</a>
</g>
</g>
<!-- Node1&#45;&gt;Node59 -->
<g id="edge12" class="edge">
<title>Node1&#45;&gt;Node59</title>
<path fill="none" stroke="#63b8ff" d="M984.37,-228.22C1070.1,-226.82 1422.83,-219.17 1722.41,-184.15"/>
<polygon fill="#63b8ff" stroke="#63b8ff" points="1722.47,-187.67 1731.99,-183.01 1721.65,-180.71 1722.47,-187.67"/>
</g>
<!-- Node64 -->
<g id="node13" class="node">
<title>Node64</title>
<g id="a_node13"><a xlink:href="config_2lib_8h.html" target="_top" xlink:title="Convenience wrapper for the config headers.">
<polygon fill="#fff0f0" stroke="red" points="864.91,-129 796.91,-129 796.91,-110 864.91,-110 864.91,-129"/>
<text text-anchor="middle" x="830.91" y="-117" font-family="Helvetica,sans-Serif" font-size="10.00">config/lib.h</text>
</a>
</g>
</g>
<!-- Node1&#45;&gt;Node64 -->
<g id="edge13" class="edge">
<title>Node1&#45;&gt;Node64</title>
<path fill="none" stroke="#63b8ff" d="M954.7,-219.74C940.21,-207.36 912.8,-184.13 888.91,-165 876.65,-155.18 862.69,-144.46 851.54,-136"/>
<polygon fill="#63b8ff" stroke="#63b8ff" points="853.87,-133.37 843.79,-130.14 849.65,-138.96 853.87,-133.37"/>
</g>
<!-- Node79 -->
<g id="node14" class="node">
<title>Node79</title>
<g id="a_node14"><a xlink:href="email_2lib_8h.html" target="_top" xlink:title="Structs that make up an email.">
<polygon fill="#fff0f0" stroke="red" points="1893.41,-184 1828.41,-184 1828.41,-165 1893.41,-165 1893.41,-184"/>
<text text-anchor="middle" x="1860.91" y="-172" font-family="Helvetica,sans-Serif" font-size="10.00">email/lib.h</text>
</a>
</g>
</g>
<!-- Node1&#45;&gt;Node79 -->
<g id="edge15" class="edge">
<title>Node1&#45;&gt;Node79</title>
<path fill="none" stroke="#63b8ff" d="M984.25,-228.55C1076.12,-228.54 1477.81,-226.08 1816.7,-184.06"/>
<polygon fill="#63b8ff" stroke="#63b8ff" points="1816.99,-187.55 1826.47,-182.83 1816.11,-180.61 1816.99,-187.55"/>
</g>
<!-- Node95 -->
<g id="node15" class="node">
<title>Node95</title>
<g id="a_node15"><a xlink:href="core_2lib_8h.html" target="_top" xlink:title="Convenience wrapper for the core headers.">
<polygon fill="#fff0f0" stroke="red" points="583.91,-129 523.91,-129 523.91,-110 583.91,-110 583.91,-129"/>
<text text-anchor="middle" x="553.91" y="-117" font-family="Helvetica,sans-Serif" font-size="10.00">core/lib.h</text>
</a>
</g>
</g>
<!-- Node1&#45;&gt;Node95 -->
<g id="edge16" class="edge">
<title>Node1&#45;&gt;Node95</title>
<path fill="none" stroke="#63b8ff" d="M945.44,-228.32C856.03,-227.3 487.72,-220.88 453.91,-184 431.75,-159.82 476.02,-141.12 512.55,-130.46"/>
<polygon fill="#63b8ff" stroke="#63b8ff" points="513.39,-133.86 522.1,-127.82 511.52,-127.11 513.39,-133.86"/>
</g>
<!-- Node105 -->
<g id="node16" class="node">
<title>Node105</title>
<g id="a_node16"><a xlink:href="alias_2lib_8h.html" target="_top" xlink:title="Email Aliases.">
<polygon fill="#fff0f0" stroke="red" points="785.41,-184 726.41,-184 726.41,-165 785.41,-165 785.41,-184"/>
<text text-anchor="middle" x="755.91" y="-172" font-family="Helvetica,sans-Serif" font-size="10.00">alias/lib.h</text>
</a>
</g>
</g>
<!-- Node1&#45;&gt;Node105 -->
<g id="edge17" class="edge">
<title>Node1&#45;&gt;Node105</title>
<path fill="none" stroke="#63b8ff" d="M945.63,-223.61C911.97,-215.08 841.84,-197.29 796.92,-185.9"/>
<polygon fill="#63b8ff" stroke="#63b8ff" points="797.82,-182.52 787.27,-183.45 796.1,-189.3 797.82,-182.52"/>
</g>
<!-- Node106 -->
<g id="node17" class="node">
<title>Node106</title>
<g id="a_node17"><a xlink:href="gui_2lib_8h.html" target="_top" xlink:title="Convenience wrapper for the gui headers.">
<polygon fill="#fff0f0" stroke="red" points="1965.91,-184 1911.91,-184 1911.91,-165 1965.91,-165 1965.91,-184"/>
<text text-anchor="middle" x="1938.91" y="-172" font-family="Helvetica,sans-Serif" font-size="10.00">gui/lib.h</text>
</a>
</g>
</g>
<!-- Node1&#45;&gt;Node106 -->
<g id="edge20" class="edge">
<title>Node1&#45;&gt;Node106</title>
<path fill="none" stroke="#63b8ff" d="M984.29,-228.07C1099.25,-225.43 1693.6,-210.79 1900.2,-184.05"/>
<polygon fill="#63b8ff" stroke="#63b8ff" points="1900.56,-187.54 1909.99,-182.73 1899.62,-180.6 1900.56,-187.54"/>
</g>
<!-- Node141 -->
<g id="node18" class="node">
<title>Node141</title>
<g id="a_node18"><a xlink:href="init_8h.html" target="_top" xlink:title="Config/command parsing.">
<polygon fill="white" stroke="#666666" points="960.91,-129 920.91,-129 920.91,-110 960.91,-110 960.91,-129"/>
<text text-anchor="middle" x="940.91" y="-117" font-family="Helvetica,sans-Serif" font-size="10.00">init.h</text>
</a>
</g>
</g>
<!-- Node1&#45;&gt;Node141 -->
<g id="edge21" class="edge">
<title>Node1&#45;&gt;Node141</title>
<path fill="none" stroke="#63b8ff" d="M965.11,-219.73C965.19,-207.35 964.61,-184.11 959.91,-165 957.81,-156.44 954.24,-147.42 950.76,-139.76"/>
<polygon fill="#63b8ff" stroke="#63b8ff" points="953.91,-138.24 946.4,-130.77 947.61,-141.29 953.91,-138.24"/>
</g>
<!-- Node117 -->
<g id="node19" class="node">
<title>Node117</title>
<g id="a_node19"><a xlink:href="color_2lib_8h.html" target="_top" xlink:title="Color and attribute parsing.">
<polygon fill="#fff0f0" stroke="red" points="2047.41,-184 1984.41,-184 1984.41,-165 2047.41,-165 2047.41,-184"/>
<text text-anchor="middle" x="2015.91" y="-172" font-family="Helvetica,sans-Serif" font-size="10.00">color/lib.h</text>
</a>
</g>
</g>
<!-- Node1&#45;&gt;Node117 -->
<g id="edge23" class="edge">
<title>Node1&#45;&gt;Node117</title>
<path fill="none" stroke="#63b8ff" d="M984.27,-228.8C1085.95,-230.13 1568.74,-233.52 1972.88,-184"/>
<polygon fill="#63b8ff" stroke="#63b8ff" points="1973.22,-187.49 1982.71,-182.78 1972.36,-180.54 1973.22,-187.49"/>
</g>
<!-- Node142 -->
<g id="node20" class="node">
<title>Node142</title>
<g id="a_node20"><a xlink:href="compmbox_2lib_8h.html" target="_top" xlink:title="Compressed mbox local mailbox type.">
<polygon fill="white" stroke="#666666" points="1141.91,-184 1049.91,-184 1049.91,-165 1141.91,-165 1141.91,-184"/>
<text text-anchor="middle" x="1095.91" y="-172" font-family="Helvetica,sans-Serif" font-size="10.00">compmbox/lib.h</text>
</a>
</g>
</g>
<!-- Node1&#45;&gt;Node142 -->
<g id="edge24" class="edge">
<title>Node1&#45;&gt;Node142</title>
<path fill="none" stroke="#63b8ff" d="M984.24,-220.68C1005.07,-212.25 1038.58,-198.7 1063.46,-188.63"/>
<polygon fill="#63b8ff" stroke="#63b8ff" points="1064.52,-191.98 1072.47,-184.98 1061.89,-185.49 1064.52,-191.98"/>
</g>
<!-- Node143 -->
<g id="node21" class="node">
<title>Node143</title>
<g id="a_node21"><a xlink:href="history_2lib_8h.html" target="_top" xlink:title="Read/write command history from/to a file.">
<polygon fill="#fff0f0" stroke="red" points="1088.91,-129 1016.91,-129 1016.91,-110 1088.91,-110 1088.91,-129"/>
<text text-anchor="middle" x="1052.91" y="-117" font-family="Helvetica,sans-Serif" font-size="10.00">history/lib.h</text>
</a>
</g>
</g>
<!-- Node1&#45;&gt;Node143 -->
<g id="edge27" class="edge">
<title>Node1&#45;&gt;Node143</title>
<path fill="none" stroke="#63b8ff" d="M972.11,-219.66C986.55,-201.94 1019.29,-161.77 1038.37,-138.35"/>
<polygon fill="#63b8ff" stroke="#63b8ff" points="1041.05,-140.6 1044.66,-130.63 1035.63,-136.18 1041.05,-140.6"/>
</g>
<!-- Node144 -->
<g id="node22" class="node">
<title>Node144</title>
<g id="a_node22"><a xlink:href="imap_2lib_8h.html" target="_top" xlink:title="IMAP network mailbox.">
<polygon fill="#fff0f0" stroke="red" points="608.91,-184 546.91,-184 546.91,-165 608.91,-165 608.91,-184"/>
<text text-anchor="middle" x="577.91" y="-172" font-family="Helvetica,sans-Serif" font-size="10.00">imap/lib.h</text>
</a>
</g>
</g>
<!-- Node1&#45;&gt;Node144 -->
<g id="edge29" class="edge">
<title>Node1&#45;&gt;Node144</title>
<path fill="none" stroke="#63b8ff" d="M945.71,-226.55C894.63,-221.26 751,-205.67 620.2,-184.08"/>
<polygon fill="#63b8ff" stroke="#63b8ff" points="621.14,-180.69 610.7,-182.49 619.99,-187.59 621.14,-180.69"/>
</g>
<!-- Node109 -->
<g id="node23" class="node">
<title>Node109</title>
<g id="a_node23"><a xlink:href="key_2lib_8h.html" target="_top" xlink:title="Manage keymappings.">
<polygon fill="#fff0f0" stroke="red" points="74.91,-184 18.91,-184 18.91,-165 74.91,-165 74.91,-184"/>
<text text-anchor="middle" x="46.91" y="-172" font-family="Helvetica,sans-Serif" font-size="10.00">key/lib.h</text>
</a>
</g>
</g>
<!-- Node1&#45;&gt;Node109 -->
<g id="edge33" class="edge">
<title>Node1&#45;&gt;Node109</title>
<path fill="none" stroke="#63b8ff" d="M945.71,-228.58C851.66,-228.76 430.37,-226.98 88.91,-184 88.08,-183.9 87.24,-183.78 86.4,-183.67"/>
<polygon fill="#63b8ff" stroke="#63b8ff" points="87.21,-180.25 76.78,-182.08 86.08,-187.16 87.21,-180.25"/>
</g>
<!-- Node110 -->
<g id="node24" class="node">
<title>Node110</title>
<g id="a_node24"><a xlink:href="menu_2lib_8h.html" target="_top" xlink:title="GUI present the user with a selectable list.">
<polygon fill="#fff0f0" stroke="red" points="133.41,-129 66.41,-129 66.41,-110 133.41,-110 133.41,-129"/>
<text text-anchor="middle" x="99.91" y="-117" font-family="Helvetica,sans-Serif" font-size="10.00">menu/lib.h</text>
</a>
</g>
</g>
<!-- Node1&#45;&gt;Node110 -->
<g id="edge41" class="edge">
<title>Node1&#45;&gt;Node110</title>
<path fill="none" stroke="#63b8ff" d="M945.77,-228.09C823.5,-225.41 155.95,-209.61 121.91,-184 108.5,-173.91 103.22,-155.11 101.16,-140.57"/>
<polygon fill="#63b8ff" stroke="#63b8ff" points="104.65,-140.34 100.2,-130.73 97.69,-141.02 104.65,-140.34"/>
</g>
<!-- Node146 -->
<g id="node25" class="node">
<title>Node146</title>
<g id="a_node25"><a xlink:href="notmuch_2lib_8h.html" target="_top" xlink:title="Notmuch virtual mailbox type.">
<polygon fill="#fff0f0" stroke="red" points="708.41,-184 627.41,-184 627.41,-165 708.41,-165 708.41,-184"/>
<text text-anchor="middle" x="667.91" y="-172" font-family="Helvetica,sans-Serif" font-size="10.00">notmuch/lib.h</text>
</a>
</g>
</g>
<!-- Node1&#45;&gt;Node146 -->
<g id="edge42" class="edge">
<title>Node1&#45;&gt;Node146</title>
<path fill="none" stroke="#63b8ff" d="M945.43,-225.02C900.23,-216.96 787.01,-196.75 719.98,-184.79"/>
<polygon fill="#63b8ff" stroke="#63b8ff" points="720.78,-181.38 710.32,-183.07 719.55,-188.27 720.78,-181.38"/>
</g>
<!-- Node147 -->
<g id="node26" class="node">
<title>Node147</title>
<g id="a_node26"><a xlink:href="parse_2lib_8h.html" target="_top" xlink:title="Text parsing functions.">
<polygon fill="#fff0f0" stroke="red" points="2131.91,-184 2065.91,-184 2065.91,-165 2131.91,-165 2131.91,-184"/>
<text text-anchor="middle" x="2098.91" y="-172" font-family="Helvetica,sans-Serif" font-size="10.00">parse/lib.h</text>
</a>
</g>
</g>
<!-- Node1&#45;&gt;Node147 -->
<g id="edge45" class="edge">
<title>Node1&#45;&gt;Node147</title>
<path fill="none" stroke="#63b8ff" d="M984.05,-228.14C1109.28,-225.7 1813.99,-211.02 2054.1,-184.09"/>
<polygon fill="#63b8ff" stroke="#63b8ff" points="2054.49,-187.57 2064.02,-182.93 2053.68,-180.61 2054.49,-187.57"/>
</g>
<!-- Node151 -->
<g id="node27" class="node">
<title>Node151</title>
<g id="a_node27"><a xlink:href="sidebar_2lib_8h.html" target="_top" xlink:title="GUI display the mailboxes in a side panel.">
<polygon fill="white" stroke="#666666" points="2223.91,-184 2149.91,-184 2149.91,-165 2223.91,-165 2223.91,-184"/>
<text text-anchor="middle" x="2186.91" y="-172" font-family="Helvetica,sans-Serif" font-size="10.00">sidebar/lib.h</text>
</a>
</g>
</g>
<!-- Node1&#45;&gt;Node151 -->
<g id="edge46" class="edge">
<title>Node1&#45;&gt;Node151</title>
<path fill="none" stroke="#63b8ff" d="M984.21,-228.15C1115.56,-225.74 1880.44,-210.75 2138.41,-184.07"/>
<polygon fill="#63b8ff" stroke="#63b8ff" points="2138.5,-187.58 2148.07,-183.03 2137.75,-180.62 2138.5,-187.58"/>
</g>
<!-- Node152 -->
<g id="node28" class="node">
<title>Node152</title>
<g id="a_node28"><a xlink:href="commands_8h.html" target="_top" xlink:title="Functions to parse commands in a config file.">
<polygon fill="#fff0f0" stroke="red" points="879.91,-184 803.91,-184 803.91,-165 879.91,-165 879.91,-184"/>
<text text-anchor="middle" x="841.91" y="-172" font-family="Helvetica,sans-Serif" font-size="10.00">commands.h</text>
</a>
</g>
</g>
<!-- Node1&#45;&gt;Node152 -->
<g id="edge47" class="edge">
<title>Node1&#45;&gt;Node152</title>
<path fill="none" stroke="#63b8ff" d="M945.42,-220.1C925.98,-211.72 895.81,-198.72 873.04,-188.91"/>
<polygon fill="#63b8ff" stroke="#63b8ff" points="874.5,-185.73 863.93,-184.99 871.73,-192.16 874.5,-185.73"/>
</g>
<!-- Node153 -->
<g id="node29" class="node">
<title>Node153</title>
<g id="a_node29"><a xlink:href="globals_8h.html" target="_top" xlink:title="Global variables.">
<polygon fill="white" stroke="#666666" points="505.91,-129 447.91,-129 447.91,-110 505.91,-110 505.91,-129"/>
<text text-anchor="middle" x="476.91" y="-117" font-family="Helvetica,sans-Serif" font-size="10.00">globals.h</text>
</a>
</g>
</g>
<!-- Node1&#45;&gt;Node153 -->
<g id="edge52" class="edge">
<title>Node1&#45;&gt;Node153</title>
<path fill="none" stroke="#63b8ff" d="M945.58,-228.63C845.64,-229.09 390.5,-228.7 348.91,-184 343.16,-177.82 344.02,-171.88 348.91,-165 359.36,-150.31 403.13,-137.27 436.61,-129.16"/>
<polygon fill="#63b8ff" stroke="#63b8ff" points="437.1,-132.64 446.03,-126.95 435.5,-125.83 437.1,-132.64"/>
</g>
<!-- Node154 -->
<g id="node30" class="node">
<title>Node154</title>
<g id="a_node30"><a xlink:href="hook_8h.html" target="_top" xlink:title="Parse and execute user&#45;defined hooks.">
<polygon fill="#fff0f0" stroke="red" points="406.41,-184 357.41,-184 357.41,-165 406.41,-165 406.41,-184"/>
<text text-anchor="middle" x="381.91" y="-172" font-family="Helvetica,sans-Serif" font-size="10.00">hook.h</text>
</a>
</g>
</g>
<!-- Node1&#45;&gt;Node154 -->
<g id="edge55" class="edge">
<title>Node1&#45;&gt;Node154</title>
<path fill="none" stroke="#63b8ff" d="M945.53,-227.85C874.91,-225.27 624.76,-214.41 420.91,-184 419.89,-183.85 418.86,-183.68 417.82,-183.51"/>
<polygon fill="#63b8ff" stroke="#63b8ff" points="418.54,-180.09 408.07,-181.67 417.25,-186.97 418.54,-180.09"/>
</g>
<!-- Node155 -->
<g id="node31" class="node">
<title>Node155</title>
<g id="a_node31"><a xlink:href="mutt__logging_8h.html" target="_top" xlink:title="NeoMutt Logging.">
<polygon fill="#fff0f0" stroke="red" points="315.41,-129 228.41,-129 228.41,-110 315.41,-110 315.41,-129"/>
<text text-anchor="middle" x="271.91" y="-117" font-family="Helvetica,sans-Serif" font-size="10.00">mutt_logging.h</text>
</a>
</g>
</g>
<!-- Node1&#45;&gt;Node155 -->
<g id="edge58" class="edge">
<title>Node1&#45;&gt;Node155</title>
<path fill="none" stroke="#63b8ff" d="M945.55,-228.72C838.85,-229.75 325.76,-232.17 276.91,-184 265.71,-172.95 265.42,-154.56 267.37,-140.41"/>
<polygon fill="#63b8ff" stroke="#63b8ff" points="270.76,-141.31 269.16,-130.84 263.88,-140.02 270.76,-141.31"/>
</g>
<!-- Node156 -->
<g id="node32" class="node">
<title>Node156</title>
<g id="a_node32"><a xlink:href="muttlib_8h.html" target="_top" xlink:title="Some miscellaneous functions.">
<polygon fill="#fff0f0" stroke="red" points="1257.41,-184 1198.41,-184 1198.41,-165 1257.41,-165 1257.41,-184"/>
<text text-anchor="middle" x="1227.91" y="-172" font-family="Helvetica,sans-Serif" font-size="10.00">muttlib.h</text>
</a>
</g>
</g>
<!-- Node1&#45;&gt;Node156 -->
<g id="edge61" class="edge">
<title>Node1&#45;&gt;Node156</title>
<path fill="none" stroke="#63b8ff" d="M984.25,-224.6C1026.76,-216.04 1129.11,-195.41 1186.72,-183.8"/>
<polygon fill="#63b8ff" stroke="#63b8ff" points="1187.36,-187.24 1196.47,-181.84 1185.98,-180.38 1187.36,-187.24"/>
</g>
<!-- Node180 -->
<g id="node33" class="node">
<title>Node180</title>
<g id="a_node33"><a xlink:href="protos_8h.html" target="_top" xlink:title="Prototypes for many functions.">
<polygon fill="#fff0f0" stroke="red" points="186.91,-184 130.91,-184 130.91,-165 186.91,-165 186.91,-184"/>
<text text-anchor="middle" x="158.91" y="-172" font-family="Helvetica,sans-Serif" font-size="10.00">protos.h</text>
</a>
</g>
</g>
<!-- Node1&#45;&gt;Node180 -->
<g id="edge64" class="edge">
<title>Node1&#45;&gt;Node180</title>
<path fill="none" stroke="#63b8ff" d="M945.63,-228.38C858.83,-227.62 495.73,-222.22 200.91,-184 200.08,-183.89 199.25,-183.78 198.4,-183.66"/>
<polygon fill="#63b8ff" stroke="#63b8ff" points="199.22,-180.25 188.78,-182.06 198.07,-187.15 199.22,-180.25"/>
</g>
<!-- Node183 -->
<g id="node34" class="node">
<title>Node183</title>
<g id="a_node34"><a xlink:href="conn_2lib_8h.html" target="_top" xlink:title="Connection Library.">
<polygon fill="#fff0f0" stroke="red" points="282.91,-74 220.91,-74 220.91,-55 282.91,-55 282.91,-74"/>
<text text-anchor="middle" x="251.91" y="-62" font-family="Helvetica,sans-Serif" font-size="10.00">conn/lib.h</text>
</a>
</g>
</g>
<!-- Node1&#45;&gt;Node183 -->
<g id="edge68" class="edge">
<title>Node1&#45;&gt;Node183</title>
<path fill="none" stroke="#63b8ff" d="M945.55,-228.21C838.81,-226.51 324.82,-216.65 262.91,-184 235.47,-169.53 230.02,-158.34 219.91,-129 214.27,-112.63 224.42,-95.14 234.74,-82.67"/>
<polygon fill="#63b8ff" stroke="#63b8ff" points="237.27,-85.09 241.4,-75.33 232.09,-80.38 237.27,-85.09"/>
</g>
<!-- Node189 -->
<g id="node35" class="node">
<title>Node189</title>
<g id="a_node35"><a xlink:href="mutt__lua_8h.html" target="_top" xlink:title="Integrated Lua scripting.">
<polygon fill="#fff0f0" stroke="red" points="528.91,-184 462.91,-184 462.91,-165 528.91,-165 528.91,-184"/>
<text text-anchor="middle" x="495.91" y="-172" font-family="Helvetica,sans-Serif" font-size="10.00">mutt_lua.h</text>
</a>
</g>
</g>
<!-- Node1&#45;&gt;Node189 -->
<g id="edge70" class="edge">
<title>Node1&#45;&gt;Node189</title>
<path fill="none" stroke="#63b8ff" d="M945.68,-227.16C886.69,-222.9 702.98,-208.61 540.5,-184.26"/>
<polygon fill="#63b8ff" stroke="#63b8ff" points="541.24,-180.83 530.83,-182.79 540.19,-187.75 541.24,-180.83"/>
</g>
<!-- Node11&#45;&gt;Node2 -->
<g id="edge11" class="edge">
<title>Node11&#45;&gt;Node2</title>
<path fill="none" stroke="#63b8ff" d="M96.32,-56.79C141.69,-47.09 225.48,-29.18 274.48,-18.71"/>
<polygon fill="#63b8ff" stroke="#63b8ff" points="275.03,-22.17 284.08,-16.66 273.57,-15.33 275.03,-22.17"/>
</g>
<!-- Node64&#45;&gt;Node5 -->
<g id="edge14" class="edge">
<title>Node64&#45;&gt;Node5</title>
<path fill="none" stroke="#63b8ff" d="M817.17,-109.51C805.11,-101.62 787.33,-89.98 773.07,-80.65"/>
<polygon fill="#63b8ff" stroke="#63b8ff" points="775,-77.73 764.72,-75.19 771.17,-83.59 775,-77.73"/>
</g>
<!-- Node105&#45;&gt;Node5 -->
<g id="edge18" class="edge">
<title>Node105&#45;&gt;Node5</title>
<path fill="none" stroke="#63b8ff" d="M755.42,-164.66C754.47,-147.57 752.36,-109.61 751.05,-85.92"/>
<polygon fill="#63b8ff" stroke="#63b8ff" points="754.54,-85.76 750.49,-75.97 747.56,-86.15 754.54,-85.76"/>
</g>
<!-- Node105&#45;&gt;Node95 -->
<g id="edge19" class="edge">
<title>Node105&#45;&gt;Node95</title>
<path fill="none" stroke="#63b8ff" d="M726.11,-165.68C691.45,-156.59 634.03,-141.52 595.11,-131.31"/>
<polygon fill="#63b8ff" stroke="#63b8ff" points="596.2,-127.98 585.64,-128.82 594.42,-134.75 596.2,-127.98"/>
</g>
<!-- Node141&#45;&gt;Node5 -->
<g id="edge22" class="edge">
<title>Node141&#45;&gt;Node5</title>
<path fill="none" stroke="#63b8ff" d="M920.47,-112.83C889.75,-104.3 831.03,-88.01 791.17,-76.95"/>
<polygon fill="#63b8ff" stroke="#63b8ff" points="792.25,-73.62 781.68,-74.31 790.38,-80.36 792.25,-73.62"/>
</g>
<!-- Node142&#45;&gt;Node5 -->
<g id="edge25" class="edge">
<title>Node142&#45;&gt;Node5</title>
<path fill="none" stroke="#63b8ff" d="M1099.48,-164.87C1104.42,-151.37 1111.32,-125.23 1097.91,-110 1077.95,-87.33 879.95,-73.07 791.83,-67.8"/>
<polygon fill="#63b8ff" stroke="#63b8ff" points="792.1,-64.31 781.92,-67.22 791.69,-71.3 792.1,-64.31"/>
</g>
<!-- Node142&#45;&gt;Node6 -->
<g id="edge26" class="edge">
<title>Node142&#45;&gt;Node6</title>
<path fill="none" stroke="#63b8ff" d="M1108.47,-164.51C1119.38,-156.7 1135.42,-145.21 1148.37,-135.93"/>
<polygon fill="#63b8ff" stroke="#63b8ff" points="1150.22,-138.91 1156.32,-130.24 1146.15,-133.22 1150.22,-138.91"/>
</g>
<!-- Node143&#45;&gt;Node5 -->
<g id="edge28" class="edge">
<title>Node143&#45;&gt;Node5</title>
<path fill="none" stroke="#63b8ff" d="M1016.67,-112.16C960.12,-102.27 851.21,-83.22 791.53,-72.78"/>
<polygon fill="#63b8ff" stroke="#63b8ff" points="792.23,-69.35 781.77,-71.07 791.02,-76.24 792.23,-69.35"/>
</g>
<!-- Node144&#45;&gt;Node2 -->
<g id="edge30" class="edge">
<title>Node144&#45;&gt;Node2</title>
<path fill="none" stroke="#63b8ff" d="M583.93,-164.87C592.21,-151.83 604.8,-126.84 592.91,-110 537.43,-31.41 414.2,-14.52 351.37,-11.14"/>
<polygon fill="#63b8ff" stroke="#63b8ff" points="351.66,-7.65 341.52,-10.71 351.36,-14.64 351.66,-7.65"/>
</g>
<!-- Node144&#45;&gt;Node5 -->
<g id="edge31" class="edge">
<title>Node144&#45;&gt;Node5</title>
<path fill="none" stroke="#63b8ff" d="M591.99,-164.66C621.47,-146.15 689.98,-103.13 726.31,-80.32"/>
<polygon fill="#63b8ff" stroke="#63b8ff" points="727.75,-83.55 734.36,-75.27 724.03,-77.62 727.75,-83.55"/>
</g>
<!-- Node144&#45;&gt;Node95 -->
<g id="edge32" class="edge">
<title>Node144&#45;&gt;Node95</title>
<path fill="none" stroke="#63b8ff" d="M573.95,-164.75C570.88,-157.96 566.5,-148.3 562.62,-139.73"/>
<polygon fill="#63b8ff" stroke="#63b8ff" points="565.9,-138.49 558.59,-130.82 559.52,-141.37 565.9,-138.49"/>
</g>
<!-- Node109&#45;&gt;Node2 -->
<g id="edge34" class="edge">
<title>Node109&#45;&gt;Node2</title>
<path fill="none" stroke="#63b8ff" d="M40.92,-164.51C27.3,-142.87 -2.73,-87.25 24.91,-55 56.65,-17.98 203.89,-11.48 274.69,-10.53"/>
<polygon fill="#63b8ff" stroke="#63b8ff" points="274.29,-14.03 284.26,-10.43 274.22,-7.03 274.29,-14.03"/>
</g>
<!-- Node109&#45;&gt;Node11 -->
<g id="edge35" class="edge">
<title>Node109&#45;&gt;Node11</title>
<path fill="none" stroke="#63b8ff" d="M48.21,-164.86C50.07,-152.64 53.61,-129.59 56.91,-110 58.27,-101.97 59.84,-93.14 61.23,-85.48"/>
<polygon fill="#63b8ff" stroke="#63b8ff" points="64.63,-86.31 62.99,-75.84 57.75,-85.05 64.63,-86.31"/>
</g>
<!-- Node109&#45;&gt;Node95 -->
<g id="edge36" class="edge">
<title>Node109&#45;&gt;Node95</title>
<path fill="none" stroke="#63b8ff" d="M75.39,-170.13C89.39,-168.51 106.53,-166.58 121.91,-165 292.73,-147.5 339.61,-155.38 512.45,-129.19"/>
<polygon fill="#63b8ff" stroke="#63b8ff" points="512.9,-132.66 522.25,-127.69 511.84,-125.74 512.9,-132.66"/>
</g>
<!-- Node109&#45;&gt;Node110 -->
<g id="edge37" class="edge">
<title>Node109&#45;&gt;Node110</title>
<path fill="none" stroke="#63b8ff" d="M55.67,-164.75C63.06,-157.35 73.87,-146.54 82.96,-137.45"/>
<polygon fill="#63b8ff" stroke="#63b8ff" points="85.3,-140.06 89.9,-130.51 80.35,-135.11 85.3,-140.06"/>
</g>
<!-- Node110&#45;&gt;Node2 -->
<g id="edge38" class="edge">
<title>Node110&#45;&gt;Node2</title>
<path fill="none" stroke="#63b8ff" d="M104.17,-109.63C111.26,-95.8 126.83,-69.22 147.91,-55 186.14,-29.21 238.77,-18.33 274.23,-13.77"/>
<polygon fill="#63b8ff" stroke="#63b8ff" points="274.51,-17.26 284.04,-12.62 273.7,-10.3 274.51,-17.26"/>
</g>
<!-- Node110&#45;&gt;Node5 -->
<g id="edge39" class="edge">
<title>Node110&#45;&gt;Node5</title>
<path fill="none" stroke="#63b8ff" d="M133.49,-115.76C242.81,-106.85 588.35,-78.67 708.36,-68.89"/>
<polygon fill="#63b8ff" stroke="#63b8ff" points="708.39,-72.4 718.07,-68.1 707.82,-65.42 708.39,-72.4"/>
</g>
<!-- Node110&#45;&gt;Node11 -->
<g id="edge40" class="edge">
<title>Node110&#45;&gt;Node11</title>
<path fill="none" stroke="#63b8ff" d="M94.13,-109.75C89.5,-102.73 82.84,-92.64 77.05,-83.87"/>
<polygon fill="#63b8ff" stroke="#63b8ff" points="80.08,-82.12 71.65,-75.71 74.24,-85.98 80.08,-82.12"/>
</g>
<!-- Node146&#45;&gt;Node5 -->
<g id="edge43" class="edge">
<title>Node146&#45;&gt;Node5</title>
<path fill="none" stroke="#63b8ff" d="M674.62,-164.66C688.08,-146.94 718.58,-106.77 736.36,-83.35"/>
<polygon fill="#63b8ff" stroke="#63b8ff" points="738.94,-85.75 742.19,-75.67 733.36,-81.51 738.94,-85.75"/>
</g>
<!-- Node146&#45;&gt;Node95 -->
<g id="edge44" class="edge">
<title>Node146&#45;&gt;Node95</title>
<path fill="none" stroke="#63b8ff" d="M648.57,-164.51C630.7,-156.2 603.87,-143.73 583.34,-134.18"/>
<polygon fill="#63b8ff" stroke="#63b8ff" points="584.88,-131.04 574.34,-130 581.93,-137.39 584.88,-131.04"/>
</g>
<!-- Node152&#45;&gt;Node2 -->
<g id="edge48" class="edge">
<title>Node152&#45;&gt;Node2</title>
<path fill="none" stroke="#63b8ff" d="M880.41,-168.86C926.85,-161.65 995.69,-144.77 969.91,-110 919.85,-42.46 871.41,-71.22 788.91,-55 628.59,-23.48 433.37,-14.12 351.72,-11.48"/>
<polygon fill="#63b8ff" stroke="#63b8ff" points="351.91,-7.99 341.8,-11.18 351.69,-14.98 351.91,-7.99"/>
</g>
<!-- Node152&#45;&gt;Node5 -->
<g id="edge49" class="edge">
<title>Node152&#45;&gt;Node5</title>
<path fill="none" stroke="#63b8ff" d="M828.84,-164.69C817.18,-156.41 800.11,-143.18 787.91,-129 776.25,-115.44 766.03,-97.85 759.14,-84.62"/>
<polygon fill="#63b8ff" stroke="#63b8ff" points="762.27,-83.06 754.66,-75.68 756.01,-86.19 762.27,-83.06"/>
</g>
<!-- Node152&#45;&gt;Node64 -->
<g id="edge50" class="edge">
<title>Node152&#45;&gt;Node64</title>
<path fill="none" stroke="#63b8ff" d="M840.1,-164.75C838.74,-158.19 836.82,-148.95 835.09,-140.6"/>
<polygon fill="#63b8ff" stroke="#63b8ff" points="838.54,-140 833.08,-130.92 831.68,-141.43 838.54,-140"/>
</g>
<!-- Node152&#45;&gt;Node95 -->
<g id="edge51" class="edge">
<title>Node152&#45;&gt;Node95</title>
<path fill="none" stroke="#63b8ff" d="M803.67,-166.46C749.67,-156.52 651.46,-138.45 595.63,-128.18"/>
<polygon fill="#63b8ff" stroke="#63b8ff" points="596.35,-124.75 585.88,-126.38 595.09,-131.64 596.35,-124.75"/>
</g>
<!-- Node153&#45;&gt;Node2 -->
<g id="edge53" class="edge">
<title>Node153&#45;&gt;Node2</title>
<path fill="none" stroke="#63b8ff" d="M466.86,-109.68C451.95,-96.84 422.84,-72.59 395.91,-55 378.51,-43.63 357.92,-32.58 341.6,-24.33"/>
<polygon fill="#63b8ff" stroke="#63b8ff" points="343.44,-21.34 332.92,-20.02 340.32,-27.61 343.44,-21.34"/>
</g>
<!-- Node153&#45;&gt;Node5 -->
<g id="edge54" class="edge">
<title>Node153&#45;&gt;Node5</title>
<path fill="none" stroke="#63b8ff" d="M506.35,-111.81C509.24,-111.19 512.13,-110.57 514.91,-110 582.39,-96.07 661.13,-81.5 708.18,-72.97"/>
<polygon fill="#63b8ff" stroke="#63b8ff" points="708.72,-76.43 717.94,-71.21 707.48,-69.54 708.72,-76.43"/>
</g>
<!-- Node154&#45;&gt;Node2 -->
<g id="edge56" class="edge">
<title>Node154&#45;&gt;Node2</title>
<path fill="none" stroke="#63b8ff" d="M381.84,-164.58C381.33,-144 377.97,-92.12 357.91,-55 352.02,-44.1 342.58,-34.16 333.87,-26.46"/>
<polygon fill="#63b8ff" stroke="#63b8ff" points="336.32,-23.95 326.39,-20.26 331.86,-29.33 336.32,-23.95"/>
</g>
<!-- Node154&#45;&gt;Node95 -->
<g id="edge57" class="edge">
<title>Node154&#45;&gt;Node95</title>
<path fill="none" stroke="#63b8ff" d="M406.56,-165.91C434.6,-157.27 480.8,-143.03 514,-132.8"/>
<polygon fill="#63b8ff" stroke="#63b8ff" points="514.74,-136.23 523.26,-129.94 512.68,-129.54 514.74,-136.23"/>
</g>
<!-- Node155&#45;&gt;Node5 -->
<g id="edge59" class="edge">
<title>Node155&#45;&gt;Node5</title>
<path fill="none" stroke="#63b8ff" d="M315.6,-113.66C407.24,-103.49 618.51,-80.07 708.31,-70.11"/>
<polygon fill="#63b8ff" stroke="#63b8ff" points="708.59,-73.6 718.14,-69.02 707.82,-66.65 708.59,-73.6"/>
</g>
<!-- Node155&#45;&gt;Node11 -->
<g id="edge60" class="edge">
<title>Node155&#45;&gt;Node11</title>
<path fill="none" stroke="#63b8ff" d="M236.8,-109.51C200.89,-100.32 145.12,-86.03 106.9,-76.25"/>
<polygon fill="#63b8ff" stroke="#63b8ff" points="108.15,-72.96 97.6,-73.87 106.42,-79.74 108.15,-72.96"/>
</g>
<!-- Node156&#45;&gt;Node5 -->
<g id="edge62" class="edge">
<title>Node156&#45;&gt;Node5</title>
<path fill="none" stroke="#63b8ff" d="M1227.27,-164.83C1225.73,-150.78 1220.5,-123.28 1202.91,-110 1170.47,-85.5 897.38,-71.63 791.57,-67.13"/>
<polygon fill="#63b8ff" stroke="#63b8ff" points="791.75,-63.64 781.62,-66.72 791.46,-70.63 791.75,-63.64"/>
</g>
<!-- Node156&#45;&gt;Node6 -->
<g id="edge63" class="edge">
<title>Node156&#45;&gt;Node6</title>
<path fill="none" stroke="#63b8ff" d="M1218.07,-164.51C1209.86,-157 1197.93,-146.1 1188,-137.03"/>
<polygon fill="#63b8ff" stroke="#63b8ff" points="1190.47,-134.54 1180.72,-130.38 1185.75,-139.71 1190.47,-134.54"/>
</g>
<!-- Node180&#45;&gt;Node2 -->
<g id="edge65" class="edge">
<title>Node180&#45;&gt;Node2</title>
<path fill="none" stroke="#63b8ff" d="M160.51,-164.79C164.88,-143.28 178.97,-87.07 211.91,-55 229.17,-38.19 253.84,-27.16 274.47,-20.29"/>
<polygon fill="#63b8ff" stroke="#63b8ff" points="275.49,-23.64 284,-17.33 273.42,-16.95 275.49,-23.64"/>
</g>
<!-- Node180&#45;&gt;Node5 -->
<g id="edge66" class="edge">
<title>Node180&#45;&gt;Node5</title>
<path fill="none" stroke="#63b8ff" d="M187.37,-166.24C237.8,-153.56 346.27,-127.1 438.91,-110 534.96,-92.27 648.8,-77.57 708.55,-70.34"/>
<polygon fill="#63b8ff" stroke="#63b8ff" points="708.75,-73.84 718.26,-69.17 707.91,-66.89 708.75,-73.84"/>
</g>
<!-- Node180&#45;&gt;Node110 -->
<g id="edge67" class="edge">
<title>Node180&#45;&gt;Node110</title>
<path fill="none" stroke="#63b8ff" d="M148.9,-164.51C140.55,-157 128.41,-146.1 118.31,-137.03"/>
<polygon fill="#63b8ff" stroke="#63b8ff" points="120.68,-134.45 110.9,-130.37 116,-139.66 120.68,-134.45"/>
</g>
<!-- Node183&#45;&gt;Node2 -->
<g id="edge69" class="edge">
<title>Node183&#45;&gt;Node2</title>
<path fill="none" stroke="#63b8ff" d="M262.26,-54.51C270.99,-46.93 283.7,-35.88 294.21,-26.75"/>
<polygon fill="#63b8ff" stroke="#63b8ff" points="296.32,-29.55 301.58,-20.35 291.73,-24.27 296.32,-29.55"/>
</g>
<!-- Node189&#45;&gt;Node95 -->
<g id="edge71" class="edge">
<title>Node189&#45;&gt;Node95</title>
<path fill="none" stroke="#63b8ff" d="M505.75,-164.51C513.97,-157 525.9,-146.1 535.83,-137.03"/>
<polygon fill="#63b8ff" stroke="#63b8ff" points="538.08,-139.71 543.1,-130.38 533.36,-134.54 538.08,-139.71"/>
</g>
</g>
</svg>
