<?xml version="1.0" encoding="UTF-8" standalone="no"?>
<!DOCTYPE svg PUBLIC "-//W3C//DTD SVG 1.1//EN"
 "http://www.w3.org/Graphics/SVG/1.1/DTD/svg11.dtd">
<!-- Generated by graphviz version 12.2.1 (20241206.2353)
 -->
<!-- Title: key/init.c Pages: 1 -->
<svg width="660pt" height="263pt"
 viewBox="0.00 0.00 659.91 263.25" xmlns="http://www.w3.org/2000/svg" xmlns:xlink="http://www.w3.org/1999/xlink">
<g id="graph0" class="graph" transform="scale(1 1) rotate(0) translate(4 259.25)">
<title>key/init.c</title>
<!-- Node1 -->
<g id="Node000001" class="node">
<title>Node1</title>
<g id="a_Node000001"><a xlink:title="Set up the key bindings.">
<polygon fill="#999999" stroke="#666666" points="350.79,-255.25 293.54,-255.25 293.54,-233 350.79,-233 350.79,-255.25"/>
<text text-anchor="middle" x="322.16" y="-241.75" font-family="Helvetica,sans-Serif" font-size="10.00">key/init.c</text>
</a>
</g>
</g>
<!-- Node2 -->
<g id="Node000002" class="node">
<title>Node2</title>
<g id="a_Node000002"><a xlink:title=" ">
<polygon fill="#e0e0e0" stroke="#999999" points="107.91,-22.25 54.41,-22.25 54.41,0 107.91,0 107.91,-22.25"/>
<text text-anchor="middle" x="81.16" y="-8.75" font-family="Helvetica,sans-Serif" font-size="10.00">config.h</text>
</a>
</g>
</g>
<!-- Node1&#45;&gt;Node2 -->
<g id="edge1_Node000001_Node000002" class="edge">
<title>Node1&#45;&gt;Node2</title>
<g id="a_edge1_Node000001_Node000002"><a xlink:title=" ">
<path fill="none" stroke="#63b8ff" d="M293.2,-240.4C237.16,-234.68 116.42,-220 82.16,-197 24.65,-158.38 -21.69,-119.24 11.16,-58.25 18.35,-44.9 31.28,-34.78 44.08,-27.47"/>
<polygon fill="#63b8ff" stroke="#63b8ff" points="45.62,-30.62 52.87,-22.9 42.39,-24.41 45.62,-30.62"/>
</a>
</g>
</g>
<!-- Node3 -->
<g id="Node000003" class="node">
<title>Node3</title>
<g id="a_Node000003"><a xlink:title=" ">
<polygon fill="#e0e0e0" stroke="#999999" points="308.91,-80.5 249.41,-80.5 249.41,-58.25 308.91,-58.25 308.91,-80.5"/>
<text text-anchor="middle" x="279.16" y="-67" font-family="Helvetica,sans-Serif" font-size="10.00">stdbool.h</text>
</a>
</g>
</g>
<!-- Node1&#45;&gt;Node3 -->
<g id="edge2_Node000001_Node000003" class="edge">
<title>Node1&#45;&gt;Node3</title>
<g id="a_edge2_Node000001_Node000003"><a xlink:title=" ">
<path fill="none" stroke="#63b8ff" d="M322.56,-232.6C323.07,-210.45 322.52,-157.64 308.16,-116.5 304.91,-107.19 299.5,-97.8 294.22,-89.96"/>
<polygon fill="#63b8ff" stroke="#63b8ff" points="297.11,-87.98 288.44,-81.89 291.42,-92.06 297.11,-87.98"/>
</a>
</g>
</g>
<!-- Node4 -->
<g id="Node000004" class="node">
<title>Node4</title>
<g id="a_Node000004"><a xlink:title=" ">
<polygon fill="#e0e0e0" stroke="#999999" points="435.91,-197 388.41,-197 388.41,-174.75 435.91,-174.75 435.91,-197"/>
<text text-anchor="middle" x="412.16" y="-183.5" font-family="Helvetica,sans-Serif" font-size="10.00">stdio.h</text>
</a>
</g>
</g>
<!-- Node1&#45;&gt;Node4 -->
<g id="edge3_Node000001_Node000004" class="edge">
<title>Node1&#45;&gt;Node4</title>
<g id="a_edge3_Node000001_Node000004"><a xlink:title=" ">
<path fill="none" stroke="#63b8ff" d="M339.09,-232.54C352.29,-224.3 370.86,-212.69 385.97,-203.25"/>
<polygon fill="#63b8ff" stroke="#63b8ff" points="387.4,-206.48 394.03,-198.21 383.69,-200.54 387.4,-206.48"/>
</a>
</g>
</g>
<!-- Node5 -->
<g id="Node000005" class="node">
<title>Node5</title>
<g id="a_Node000005"><a xlink:title=" ">
<polygon fill="#e0e0e0" stroke="#999999" points="506.16,-197 454.16,-197 454.16,-174.75 506.16,-174.75 506.16,-197"/>
<text text-anchor="middle" x="480.16" y="-183.5" font-family="Helvetica,sans-Serif" font-size="10.00">string.h</text>
</a>
</g>
</g>
<!-- Node1&#45;&gt;Node5 -->
<g id="edge4_Node000001_Node000005" class="edge">
<title>Node1&#45;&gt;Node5</title>
<g id="a_edge4_Node000001_Node000005"><a xlink:title=" ">
<path fill="none" stroke="#63b8ff" d="M351.14,-232.81C377.02,-223.6 415.06,-210.05 443.13,-200.06"/>
<polygon fill="#63b8ff" stroke="#63b8ff" points="444.06,-203.44 452.31,-196.79 441.71,-196.85 444.06,-203.44"/>
</a>
</g>
</g>
<!-- Node6 -->
<g id="Node000006" class="node">
<title>Node6</title>
<g id="a_Node000006"><a xlink:title=" ">
<polygon fill="#e0e0e0" stroke="#999999" points="580.41,-197 523.91,-197 523.91,-174.75 580.41,-174.75 580.41,-197"/>
<text text-anchor="middle" x="552.16" y="-183.5" font-family="Helvetica,sans-Serif" font-size="10.00">strings.h</text>
</a>
</g>
</g>
<!-- Node1&#45;&gt;Node6 -->
<g id="edge5_Node000001_Node000006" class="edge">
<title>Node1&#45;&gt;Node6</title>
<g id="a_edge5_Node000001_Node000006"><a xlink:title=" ">
<path fill="none" stroke="#63b8ff" d="M351.01,-236.54C386.74,-228.32 449.72,-213.6 512.6,-197.6"/>
<polygon fill="#63b8ff" stroke="#63b8ff" points="513.22,-201.06 522.04,-195.19 511.48,-194.28 513.22,-201.06"/>
</a>
</g>
</g>
<!-- Node7 -->
<g id="Node000007" class="node">
<title>Node7</title>
<g id="a_Node000007"><a xlink:href="mutt_2lib_8h.html" target="_top" xlink:title="Convenience wrapper for the library headers.">
<polygon fill="#fff0f0" stroke="red" points="82.04,-80.5 20.29,-80.5 20.29,-58.25 82.04,-58.25 82.04,-80.5"/>
<text text-anchor="middle" x="51.16" y="-67" font-family="Helvetica,sans-Serif" font-size="10.00">mutt/lib.h</text>
</a>
</g>
</g>
<!-- Node1&#45;&gt;Node7 -->
<g id="edge6_Node000001_Node000007" class="edge">
<title>Node1&#45;&gt;Node7</title>
<g id="a_edge6_Node000001_Node000007"><a xlink:title=" ">
<path fill="none" stroke="#63b8ff" d="M293.28,-239.79C254.96,-234.56 185.91,-222.29 132.16,-197 93.01,-178.58 74.4,-176.99 54.16,-138.75 46.6,-124.45 46.23,-106.03 47.55,-91.91"/>
<polygon fill="#63b8ff" stroke="#63b8ff" points="50.97,-92.69 48.8,-82.32 44.03,-91.78 50.97,-92.69"/>
</a>
</g>
</g>
<!-- Node55 -->
<g id="Node000055" class="node">
<title>Node55</title>
<g id="a_Node000055"><a xlink:href="config_2lib_8h.html" target="_top" xlink:title="Convenience wrapper for the config headers.">
<polygon fill="#fff0f0" stroke="red" points="423.04,-138.75 355.29,-138.75 355.29,-116.5 423.04,-116.5 423.04,-138.75"/>
<text text-anchor="middle" x="389.16" y="-125.25" font-family="Helvetica,sans-Serif" font-size="10.00">config/lib.h</text>
</a>
</g>
</g>
<!-- Node1&#45;&gt;Node55 -->
<g id="edge8_Node000001_Node000055" class="edge">
<title>Node1&#45;&gt;Node55</title>
<g id="a_edge8_Node000001_Node000055"><a xlink:title=" ">
<path fill="none" stroke="#63b8ff" d="M328.35,-232.56C339.47,-213.56 363.01,-173.33 377.32,-148.87"/>
<polygon fill="#63b8ff" stroke="#63b8ff" points="380.2,-150.87 382.23,-140.47 374.16,-147.34 380.2,-150.87"/>
</a>
</g>
</g>
<!-- Node70 -->
<g id="Node000070" class="node">
<title>Node70</title>
<g id="a_Node000070"><a xlink:href="core_2lib_8h.html" target="_top" xlink:title="Convenience wrapper for the core headers.">
<polygon fill="#fff0f0" stroke="red" points="298.91,-138.75 239.41,-138.75 239.41,-116.5 298.91,-116.5 298.91,-138.75"/>
<text text-anchor="middle" x="269.16" y="-125.25" font-family="Helvetica,sans-Serif" font-size="10.00">core/lib.h</text>
</a>
</g>
</g>
<!-- Node1&#45;&gt;Node70 -->
<g id="edge10_Node000001_Node000070" class="edge">
<title>Node1&#45;&gt;Node70</title>
<g id="a_edge10_Node000001_Node000070"><a xlink:title=" ">
<path fill="none" stroke="#63b8ff" d="M317.27,-232.56C308.56,-213.73 290.19,-174.05 278.84,-149.53"/>
<polygon fill="#63b8ff" stroke="#63b8ff" points="282.06,-148.14 274.68,-140.54 275.7,-151.08 282.06,-148.14"/>
</a>
</g>
</g>
<!-- Node80 -->
<g id="Node000080" class="node">
<title>Node80</title>
<g id="a_Node000080"><a xlink:href="gui_2lib_8h.html" target="_top" xlink:title="Convenience wrapper for the gui headers.">
<polygon fill="#fff0f0" stroke="red" points="651.91,-197 598.41,-197 598.41,-174.75 651.91,-174.75 651.91,-197"/>
<text text-anchor="middle" x="625.16" y="-183.5" font-family="Helvetica,sans-Serif" font-size="10.00">gui/lib.h</text>
</a>
</g>
</g>
<!-- Node1&#45;&gt;Node80 -->
<g id="edge11_Node000001_Node000080" class="edge">
<title>Node1&#45;&gt;Node80</title>
<g id="a_edge11_Node000001_Node000080"><a xlink:title=" ">
<path fill="none" stroke="#63b8ff" d="M351.2,-239.11C398.52,-232.36 495.41,-217.63 586.98,-197.31"/>
<polygon fill="#63b8ff" stroke="#63b8ff" points="587.65,-200.75 596.64,-195.14 586.11,-193.92 587.65,-200.75"/>
</a>
</g>
</g>
<!-- Node83 -->
<g id="Node000083" class="node">
<title>Node83</title>
<g id="a_Node000083"><a xlink:href="key_2lib_8h.html" target="_top" xlink:title="Manage keymappings.">
<polygon fill="#fff0f0" stroke="red" points="219.66,-197 164.66,-197 164.66,-174.75 219.66,-174.75 219.66,-197"/>
<text text-anchor="middle" x="192.16" y="-183.5" font-family="Helvetica,sans-Serif" font-size="10.00">key/lib.h</text>
</a>
</g>
</g>
<!-- Node1&#45;&gt;Node83 -->
<g id="edge12_Node000001_Node000083" class="edge">
<title>Node1&#45;&gt;Node83</title>
<g id="a_edge12_Node000001_Node000083"><a xlink:title=" ">
<path fill="none" stroke="#63b8ff" d="M297.71,-232.54C277.74,-223.9 249.26,-211.58 226.92,-201.91"/>
<polygon fill="#63b8ff" stroke="#63b8ff" points="228.46,-198.77 217.9,-198.01 225.68,-205.19 228.46,-198.77"/>
</a>
</g>
</g>
<!-- Node84 -->
<g id="Node000084" class="node">
<title>Node84</title>
<g id="a_Node000084"><a xlink:href="menu_2lib_8h.html" target="_top" xlink:title="GUI present the user with a selectable list.">
<polygon fill="#fff0f0" stroke="red" points="145.29,-138.75 79.04,-138.75 79.04,-116.5 145.29,-116.5 145.29,-138.75"/>
<text text-anchor="middle" x="112.16" y="-125.25" font-family="Helvetica,sans-Serif" font-size="10.00">menu/lib.h</text>
</a>
</g>
</g>
<!-- Node1&#45;&gt;Node84 -->
<g id="edge21_Node000001_Node000084" class="edge">
<title>Node1&#45;&gt;Node84</title>
<g id="a_edge21_Node000001_Node000084"><a xlink:title=" ">
<path fill="none" stroke="#63b8ff" d="M293.34,-241.31C257.93,-237.79 197.46,-227.43 156.16,-197 139.7,-184.87 127.78,-164.58 120.54,-149.24"/>
<polygon fill="#63b8ff" stroke="#63b8ff" points="123.93,-148.27 116.7,-140.53 117.52,-151.09 123.93,-148.27"/>
</a>
</g>
</g>
<!-- Node7&#45;&gt;Node2 -->
<g id="edge7_Node000007_Node000002" class="edge">
<title>Node7&#45;&gt;Node2</title>
<g id="a_edge7_Node000007_Node000002"><a xlink:title=" ">
<path fill="none" stroke="#63b8ff" d="M56.81,-57.79C60.58,-50.72 65.66,-41.19 70.21,-32.66"/>
<polygon fill="#63b8ff" stroke="#63b8ff" points="73.22,-34.46 74.83,-23.99 67.04,-31.17 73.22,-34.46"/>
</a>
</g>
</g>
<!-- Node55&#45;&gt;Node3 -->
<g id="edge9_Node000055_Node000003" class="edge">
<title>Node55&#45;&gt;Node3</title>
<g id="a_edge9_Node000055_Node000003"><a xlink:title=" ">
<path fill="none" stroke="#63b8ff" d="M368.47,-116.04C351.96,-107.6 328.57,-95.64 309.87,-86.08"/>
<polygon fill="#63b8ff" stroke="#63b8ff" points="311.61,-83.03 301.11,-81.6 308.42,-89.27 311.61,-83.03"/>
</a>
</g>
</g>
<!-- Node83&#45;&gt;Node2 -->
<g id="edge13_Node000083_Node000002" class="edge">
<title>Node83&#45;&gt;Node2</title>
<g id="a_edge13_Node000083_Node000002"><a xlink:title=" ">
<path fill="none" stroke="#63b8ff" d="M186.82,-174.49C179.74,-160.92 166.69,-136.54 154.16,-116.5 135.12,-86.05 110.86,-52.22 95.66,-31.56"/>
<polygon fill="#63b8ff" stroke="#63b8ff" points="98.66,-29.72 89.89,-23.77 93.03,-33.89 98.66,-29.72"/>
</a>
</g>
</g>
<!-- Node83&#45;&gt;Node3 -->
<g id="edge14_Node000083_Node000003" class="edge">
<title>Node83&#45;&gt;Node3</title>
<g id="a_edge14_Node000083_Node000003"><a xlink:title=" ">
<path fill="none" stroke="#63b8ff" d="M196.68,-174.54C203.03,-160.61 215.48,-135.36 230.16,-116.5 238.13,-106.27 248.4,-96.24 257.48,-88.16"/>
<polygon fill="#63b8ff" stroke="#63b8ff" points="259.59,-90.96 264.88,-81.78 255.02,-85.65 259.59,-90.96"/>
</a>
</g>
</g>
<!-- Node83&#45;&gt;Node7 -->
<g id="edge15_Node000083_Node000007" class="edge">
<title>Node83&#45;&gt;Node7</title>
<g id="a_edge15_Node000083_Node000007"><a xlink:title=" ">
<path fill="none" stroke="#63b8ff" d="M164.39,-181.65C136.67,-176.97 94.75,-165.67 70.16,-138.75 58.48,-125.96 53.9,-106.59 52.14,-91.73"/>
<polygon fill="#63b8ff" stroke="#63b8ff" points="55.66,-91.74 51.36,-82.05 48.68,-92.3 55.66,-91.74"/>
</a>
</g>
</g>
<!-- Node83&#45;&gt;Node70 -->
<g id="edge16_Node000083_Node000070" class="edge">
<title>Node83&#45;&gt;Node70</title>
<g id="a_edge16_Node000083_Node000070"><a xlink:title=" ">
<path fill="none" stroke="#63b8ff" d="M206.65,-174.29C217.62,-166.28 232.92,-155.1 245.64,-145.81"/>
<polygon fill="#63b8ff" stroke="#63b8ff" points="247.51,-148.78 253.52,-140.05 243.38,-143.12 247.51,-148.78"/>
</a>
</g>
</g>
<!-- Node83&#45;&gt;Node84 -->
<g id="edge17_Node000083_Node000084" class="edge">
<title>Node83&#45;&gt;Node84</title>
<g id="a_edge17_Node000083_Node000084"><a xlink:title=" ">
<path fill="none" stroke="#63b8ff" d="M177.12,-174.29C165.61,-166.2 149.51,-154.88 136.22,-145.54"/>
<polygon fill="#63b8ff" stroke="#63b8ff" points="138.58,-142.92 128.38,-140.03 134.55,-148.64 138.58,-142.92"/>
</a>
</g>
</g>
<!-- Node84&#45;&gt;Node2 -->
<g id="edge18_Node000084_Node000002" class="edge">
<title>Node84&#45;&gt;Node2</title>
<g id="a_edge18_Node000084_Node000002"><a xlink:title=" ">
<path fill="none" stroke="#63b8ff" d="M109.3,-116.06C104.25,-97.4 93.66,-58.26 87.01,-33.7"/>
<polygon fill="#63b8ff" stroke="#63b8ff" points="90.41,-32.86 84.41,-24.13 83.65,-34.69 90.41,-32.86"/>
</a>
</g>
</g>
<!-- Node84&#45;&gt;Node3 -->
<g id="edge19_Node000084_Node000003" class="edge">
<title>Node84&#45;&gt;Node3</title>
<g id="a_edge19_Node000084_Node000003"><a xlink:title=" ">
<path fill="none" stroke="#63b8ff" d="M143.58,-116.04C170.39,-107.01 209.12,-93.97 238.33,-84.13"/>
<polygon fill="#63b8ff" stroke="#63b8ff" points="239.22,-87.52 247.58,-81.01 236.99,-80.89 239.22,-87.52"/>
</a>
</g>
</g>
<!-- Node84&#45;&gt;Node7 -->
<g id="edge20_Node000084_Node000007" class="edge">
<title>Node84&#45;&gt;Node7</title>
<g id="a_edge20_Node000084_Node000007"><a xlink:title=" ">
<path fill="none" stroke="#63b8ff" d="M100.69,-116.04C92.34,-108.35 80.82,-97.72 71,-88.66"/>
<polygon fill="#63b8ff" stroke="#63b8ff" points="73.42,-86.14 63.7,-81.93 68.68,-91.29 73.42,-86.14"/>
</a>
</g>
</g>
</g>
</svg>
