<?xml version="1.0" encoding="UTF-8" standalone="no"?>
<!DOCTYPE svg PUBLIC "-//W3C//DTD SVG 1.1//EN"
 "http://www.w3.org/Graphics/SVG/1.1/DTD/svg11.dtd">
<!-- Generated by graphviz version 2.44.0 (0)
 -->
<!-- Title: mutt_query_variables Pages: 1 -->
<svg width="407pt" height="332pt"
 viewBox="0.00 0.00 407.00 332.00" xmlns="http://www.w3.org/2000/svg" xmlns:xlink="http://www.w3.org/1999/xlink">
<g id="graph0" class="graph" transform="scale(1 1) rotate(0) translate(4 328)">
<title>mutt_query_variables</title>
<polygon fill="white" stroke="transparent" points="-4,4 -4,-328 403,-328 403,4 -4,4"/>
<!-- Node1 -->
<g id="node1" class="node">
<title>Node1</title>
<g id="a_node1"><a xlink:title="Implement the &#45;Q command line flag.">
<polygon fill="#bfbfbf" stroke="black" points="0,-152.5 0,-171.5 110,-171.5 110,-152.5 0,-152.5"/>
<text text-anchor="middle" x="55" y="-159.5" font-family="Helvetica" font-size="10.00">mutt_query_variables</text>
</a>
</g>
</g>
<!-- Node2 -->
<g id="node2" class="node">
<title>Node2</title>
<g id="a_node2"><a xlink:href="subset_8c.html#a2226e4ab6c7e6a8099844c7ab927dd5b" target="_top" xlink:title="Get a config item as a string.">
<polygon fill="white" stroke="red" points="146,-304.5 146,-323.5 271,-323.5 271,-304.5 146,-304.5"/>
<text text-anchor="middle" x="208.5" y="-311.5" font-family="Helvetica" font-size="10.00">cs_subset_he_string_get</text>
</a>
</g>
</g>
<!-- Node1&#45;&gt;Node2 -->
<g id="edge1" class="edge">
<title>Node1&#45;&gt;Node2</title>
<path fill="none" stroke="midnightblue" d="M59.83,-171.68C69.99,-196.15 100.08,-260.97 146,-295 148.52,-296.87 151.23,-298.56 154.06,-300.08"/>
<polygon fill="midnightblue" stroke="midnightblue" points="152.84,-303.38 163.39,-304.41 155.79,-297.03 152.84,-303.38"/>
</g>
<!-- Node6 -->
<g id="node3" class="node">
<title>Node6</title>
<g id="a_node3"><a xlink:href="subset_8c.html#a8a24a54a209c21ec6b04927df61b7fb3" target="_top" xlink:title="Find an inherited config item.">
<polygon fill="white" stroke="red" points="161,-266.5 161,-285.5 256,-285.5 256,-266.5 161,-266.5"/>
<text text-anchor="middle" x="208.5" y="-273.5" font-family="Helvetica" font-size="10.00">cs_subset_lookup</text>
</a>
</g>
</g>
<!-- Node1&#45;&gt;Node6 -->
<g id="edge2" class="edge">
<title>Node1&#45;&gt;Node6</title>
<path fill="none" stroke="midnightblue" d="M62.49,-171.63C75.85,-190.74 108.37,-233.62 146,-257 149.37,-259.1 153,-260.98 156.73,-262.66"/>
<polygon fill="midnightblue" stroke="midnightblue" points="155.6,-265.98 166.18,-266.46 158.21,-259.48 155.6,-265.98"/>
</g>
<!-- Node11 -->
<g id="node4" class="node">
<title>Node11</title>
<g id="a_node4"><a xlink:href="dump_8c.html#a98a7ec58cbc4628935b32f23d6066945" target="_top" xlink:title="Dump the config in the style of NeoMutt.">
<polygon fill="white" stroke="red" points="162,-228.5 162,-247.5 255,-247.5 255,-228.5 162,-228.5"/>
<text text-anchor="middle" x="208.5" y="-235.5" font-family="Helvetica" font-size="10.00">dump_config_neo</text>
</a>
</g>
</g>
<!-- Node1&#45;&gt;Node11 -->
<g id="edge3" class="edge">
<title>Node1&#45;&gt;Node11</title>
<path fill="none" stroke="midnightblue" d="M68.79,-171.65C85.7,-184.03 116.78,-205.52 146,-219 150.76,-221.2 155.84,-223.23 160.97,-225.08"/>
<polygon fill="midnightblue" stroke="midnightblue" points="160.21,-228.51 170.81,-228.41 162.46,-221.88 160.21,-228.51"/>
</g>
<!-- Node14 -->
<g id="node5" class="node">
<title>Node14</title>
<g id="a_node5"><a xlink:href="buffer_8c.html#a59b13bca38b1b314e2bc5ad142d2df49" target="_top" xlink:title="Release the memory allocated by a buffer.">
<polygon fill="white" stroke="black" points="158,-190.5 158,-209.5 259,-209.5 259,-190.5 158,-190.5"/>
<text text-anchor="middle" x="208.5" y="-197.5" font-family="Helvetica" font-size="10.00">mutt_buffer_dealloc</text>
</a>
</g>
</g>
<!-- Node1&#45;&gt;Node14 -->
<g id="edge4" class="edge">
<title>Node1&#45;&gt;Node14</title>
<path fill="none" stroke="midnightblue" d="M94.23,-171.59C114.13,-176.58 138.66,-182.73 159.79,-188.03"/>
<polygon fill="midnightblue" stroke="midnightblue" points="158.99,-191.44 169.55,-190.48 160.7,-184.65 158.99,-191.44"/>
</g>
<!-- Node15 -->
<g id="node6" class="node">
<title>Node15</title>
<g id="a_node6"><a xlink:href="buffer_8c.html#a0242aaa9a400d0722a99828776c0403b" target="_top" xlink:title="Make a new buffer on the stack.">
<polygon fill="white" stroke="red" points="161.5,-152.5 161.5,-171.5 255.5,-171.5 255.5,-152.5 161.5,-152.5"/>
<text text-anchor="middle" x="208.5" y="-159.5" font-family="Helvetica" font-size="10.00">mutt_buffer_make</text>
</a>
</g>
</g>
<!-- Node1&#45;&gt;Node15 -->
<g id="edge5" class="edge">
<title>Node1&#45;&gt;Node15</title>
<path fill="none" stroke="midnightblue" d="M110.27,-162C123.53,-162 137.75,-162 151.1,-162"/>
<polygon fill="midnightblue" stroke="midnightblue" points="151.12,-165.5 161.12,-162 151.12,-158.5 151.12,-165.5"/>
</g>
<!-- Node18 -->
<g id="node7" class="node">
<title>Node18</title>
<g id="a_node7"><a xlink:href="buffer_8c.html#adb26acff5f6b9bb7c322669bcb7c48e3" target="_top" xlink:title="Reset an existing Buffer.">
<polygon fill="white" stroke="red" points="307,-95.5 307,-114.5 399,-114.5 399,-95.5 307,-95.5"/>
<text text-anchor="middle" x="353" y="-102.5" font-family="Helvetica" font-size="10.00">mutt_buffer_reset</text>
</a>
</g>
</g>
<!-- Node1&#45;&gt;Node18 -->
<g id="edge6" class="edge">
<title>Node1&#45;&gt;Node18</title>
<path fill="none" stroke="midnightblue" d="M99.9,-152.5C114.54,-149.39 130.96,-145.97 146,-143 197.09,-132.9 255.47,-122.21 297.01,-114.75"/>
<polygon fill="midnightblue" stroke="midnightblue" points="297.7,-118.18 306.93,-112.97 296.47,-111.29 297.7,-118.18"/>
</g>
<!-- Node20 -->
<g id="node8" class="node">
<title>Node20</title>
<g id="a_node8"><a xlink:href="buffer_8c.html#a4bcc481586ae3af02645b4e23e48e0d7" target="_top" xlink:title="Copy a string into a Buffer.">
<polygon fill="white" stroke="red" points="159.5,-76.5 159.5,-95.5 257.5,-95.5 257.5,-76.5 159.5,-76.5"/>
<text text-anchor="middle" x="208.5" y="-83.5" font-family="Helvetica" font-size="10.00">mutt_buffer_strcpy</text>
</a>
</g>
</g>
<!-- Node1&#45;&gt;Node20 -->
<g id="edge7" class="edge">
<title>Node1&#45;&gt;Node20</title>
<path fill="none" stroke="midnightblue" d="M70.91,-152.45C88.45,-141.42 118.68,-123.13 146,-110 153.94,-106.18 162.67,-102.49 170.98,-99.2"/>
<polygon fill="midnightblue" stroke="midnightblue" points="172.42,-102.4 180.48,-95.53 169.89,-95.87 172.42,-102.4"/>
</g>
<!-- Node26 -->
<g id="node9" class="node">
<title>Node26</title>
<g id="a_node9"><a xlink:href="dump_8c.html#ab9cf3d06c285c7d21065ef96a32aa6c6" target="_top" xlink:title="Shorten a mailbox path using &#39;~&#39; or &#39;=&#39;.">
<polygon fill="white" stroke="black" points="156,-38.5 156,-57.5 261,-57.5 261,-38.5 156,-38.5"/>
<text text-anchor="middle" x="208.5" y="-45.5" font-family="Helvetica" font-size="10.00">mutt_pretty_mailbox</text>
</a>
</g>
</g>
<!-- Node1&#45;&gt;Node26 -->
<g id="edge9" class="edge">
<title>Node1&#45;&gt;Node26</title>
<path fill="none" stroke="midnightblue" d="M62.49,-152.37C75.85,-133.26 108.37,-90.38 146,-67 149.37,-64.9 153,-63.02 156.73,-61.34"/>
<polygon fill="midnightblue" stroke="midnightblue" points="158.21,-64.52 166.18,-57.54 155.6,-58.02 158.21,-64.52"/>
</g>
<!-- Node27 -->
<g id="node10" class="node">
<title>Node27</title>
<g id="a_node10"><a xlink:href="dump_8c.html#a276cdae2ea9e186548c4a6f247cc0e58" target="_top" xlink:title="Escape and stringify a config item value.">
<polygon fill="white" stroke="red" points="179,-0.5 179,-19.5 238,-19.5 238,-0.5 179,-0.5"/>
<text text-anchor="middle" x="208.5" y="-7.5" font-family="Helvetica" font-size="10.00">pretty_var</text>
</a>
</g>
</g>
<!-- Node1&#45;&gt;Node27 -->
<g id="edge10" class="edge">
<title>Node1&#45;&gt;Node27</title>
<path fill="none" stroke="midnightblue" d="M59.83,-152.32C69.99,-127.85 100.08,-63.03 146,-29 152.77,-23.99 160.88,-20.28 168.96,-17.54"/>
<polygon fill="midnightblue" stroke="midnightblue" points="170.1,-20.85 178.7,-14.66 168.12,-14.14 170.1,-20.85"/>
</g>
<!-- Node20&#45;&gt;Node18 -->
<g id="edge8" class="edge">
<title>Node20&#45;&gt;Node18</title>
<path fill="none" stroke="midnightblue" d="M257.74,-92.43C270.23,-94.1 283.77,-95.9 296.6,-97.61"/>
<polygon fill="midnightblue" stroke="midnightblue" points="296.32,-101.11 306.69,-98.96 297.24,-94.17 296.32,-101.11"/>
</g>
</g>
</svg>
