<?xml version="1.0" encoding="UTF-8" standalone="no"?>
<!DOCTYPE svg PUBLIC "-//W3C//DTD SVG 1.1//EN"
 "http://www.w3.org/Graphics/SVG/1.1/DTD/svg11.dtd">
<!-- Generated by graphviz version 12.2.1 (20241206.2353)
 -->
<!-- Title: print_bind Pages: 1 -->
<svg width="202pt" height="110pt"
 viewBox="0.00 0.00 202.00 110.25" xmlns="http://www.w3.org/2000/svg" xmlns:xlink="http://www.w3.org/1999/xlink">
<g id="graph0" class="graph" transform="scale(1 1) rotate(0) translate(4 106.25)">
<title>print_bind</title>
<!-- Node1 -->
<g id="Node000001" class="node">
<title>Node1</title>
<g id="a_Node000001"><a xlink:title="Display the bindings for one menu.">
<polygon fill="#999999" stroke="#666666" points="63.25,-62.25 0,-62.25 0,-40 63.25,-40 63.25,-62.25"/>
<text text-anchor="middle" x="31.62" y="-48.75" font-family="Helvetica,sans-Serif" font-size="10.00">print_bind</text>
</a>
</g>
</g>
<!-- Node2 -->
<g id="Node000002" class="node">
<title>Node2</title>
<g id="a_Node000002"><a xlink:href="group__sort__api.html#ga4716503da52b261d3090b7f897f4a6c8" target="_top" xlink:title="Compare two BindingInfo by their keybinding &#45; Implements sort_t &#45;.">
<polygon fill="#fff0f0" stroke="red" points="183.5,-102.25 109.75,-102.25 109.75,-80 183.5,-80 183.5,-102.25"/>
<text text-anchor="middle" x="146.62" y="-88.75" font-family="Helvetica,sans-Serif" font-size="10.00">binding_sort</text>
</a>
</g>
</g>
<!-- Node1&#45;&gt;Node2 -->
<g id="edge1_Node000001_Node000002" class="edge">
<title>Node1&#45;&gt;Node2</title>
<g id="a_edge1_Node000001_Node000002"><a xlink:title=" ">
<path fill="none" stroke="#63b8ff" d="M63.5,-62.06C75.45,-66.28 89.33,-71.2 102.25,-75.77"/>
<polygon fill="#63b8ff" stroke="#63b8ff" points="100.79,-78.97 111.38,-79 103.12,-72.37 100.79,-78.97"/>
</a>
</g>
</g>
<!-- Node4 -->
<g id="Node000004" class="node">
<title>Node4</title>
<g id="a_Node000004"><a xlink:href="key_2dump_8c.html#a656e5bf734bb8099b6e42e6a5bdeb683" target="_top" xlink:title="Gather info about one menu.">
<polygon fill="#fff0f0" stroke="red" points="186.12,-62.25 107.12,-62.25 107.12,-40 186.12,-40 186.12,-62.25"/>
<text text-anchor="middle" x="146.62" y="-48.75" font-family="Helvetica,sans-Serif" font-size="10.00">gather_menu</text>
</a>
</g>
</g>
<!-- Node1&#45;&gt;Node4 -->
<g id="edge2_Node000001_Node000004" class="edge">
<title>Node1&#45;&gt;Node4</title>
<g id="a_edge2_Node000001_Node000004"><a xlink:title=" ">
<path fill="none" stroke="#63b8ff" d="M63.5,-51.12C73.4,-51.12 84.62,-51.12 95.52,-51.12"/>
<polygon fill="#63b8ff" stroke="#63b8ff" points="95.18,-54.63 105.18,-51.13 95.18,-47.63 95.18,-54.63"/>
</a>
</g>
</g>
<!-- Node29 -->
<g id="Node000029" class="node">
<title>Node29</title>
<g id="a_Node000029"><a xlink:href="key_2dump_8c.html#a2b35826ff592ab84bcd4d0cc67f0d483" target="_top" xlink:title="Measure one column of a table.">
<polygon fill="#fff0f0" stroke="red" points="194,-22.25 99.25,-22.25 99.25,0 194,0 194,-22.25"/>
<text text-anchor="middle" x="146.62" y="-8.75" font-family="Helvetica,sans-Serif" font-size="10.00">measure_column</text>
</a>
</g>
</g>
<!-- Node1&#45;&gt;Node29 -->
<g id="edge3_Node000001_Node000029" class="edge">
<title>Node1&#45;&gt;Node29</title>
<g id="a_edge3_Node000001_Node000029"><a xlink:title=" ">
<path fill="none" stroke="#63b8ff" d="M63.5,-40.19C75.45,-35.97 89.33,-31.05 102.25,-26.48"/>
<polygon fill="#63b8ff" stroke="#63b8ff" points="103.12,-29.88 111.38,-23.25 100.79,-23.28 103.12,-29.88"/>
</a>
</g>
</g>
</g>
</svg>
