<?xml version="1.0" encoding="UTF-8" standalone="no"?>
<!DOCTYPE svg PUBLIC "-//W3C//DTD SVG 1.1//EN"
 "http://www.w3.org/Graphics/SVG/1.1/DTD/svg11.dtd">
<!-- Generated by graphviz version 12.2.1 (20241206.2353)
 -->
<!-- Title: key/dump.c Pages: 1 -->
<svg width="876pt" height="380pt"
 viewBox="0.00 0.00 876.24 379.75" xmlns="http://www.w3.org/2000/svg" xmlns:xlink="http://www.w3.org/1999/xlink">
<g id="graph0" class="graph" transform="scale(1 1) rotate(0) translate(4 375.75)">
<title>key/dump.c</title>
<!-- Node1 -->
<g id="Node000001" class="node">
<title>Node1</title>
<g id="a_Node000001"><a xlink:title="Dump key bindings.">
<polygon fill="#999999" stroke="#666666" points="452.24,-371.75 382.24,-371.75 382.24,-349.5 452.24,-349.5 452.24,-371.75"/>
<text text-anchor="middle" x="417.24" y="-358.25" font-family="Helvetica,sans-Serif" font-size="10.00">key/dump.c</text>
</a>
</g>
</g>
<!-- Node2 -->
<g id="Node000002" class="node">
<title>Node2</title>
<g id="a_Node000002"><a xlink:title=" ">
<polygon fill="#e0e0e0" stroke="#999999" points="332.99,-22.25 279.49,-22.25 279.49,0 332.99,0 332.99,-22.25"/>
<text text-anchor="middle" x="306.24" y="-8.75" font-family="Helvetica,sans-Serif" font-size="10.00">config.h</text>
</a>
</g>
</g>
<!-- Node1&#45;&gt;Node2 -->
<g id="edge1_Node000001_Node000002" class="edge">
<title>Node1&#45;&gt;Node2</title>
<g id="a_edge1_Node000001_Node000002"><a xlink:title=" ">
<path fill="none" stroke="#63b8ff" d="M382.05,-360.38C295.27,-361.49 74.15,-359.62 20.24,-313.5 -3.72,-293 1.24,-276.67 1.24,-245.12 1.24,-245.12 1.24,-245.12 1.24,-126.62 1.24,-70.29 185.92,-32.3 267.86,-18.21"/>
<polygon fill="#63b8ff" stroke="#63b8ff" points="268.4,-21.67 277.68,-16.56 267.24,-14.77 268.4,-21.67"/>
</a>
</g>
</g>
<!-- Node3 -->
<g id="Node000003" class="node">
<title>Node3</title>
<g id="a_Node000003"><a xlink:title=" ">
<polygon fill="#e0e0e0" stroke="#999999" points="78.74,-313.5 29.74,-313.5 29.74,-291.25 78.74,-291.25 78.74,-313.5"/>
<text text-anchor="middle" x="54.24" y="-300" font-family="Helvetica,sans-Serif" font-size="10.00">limits.h</text>
</a>
</g>
</g>
<!-- Node1&#45;&gt;Node3 -->
<g id="edge2_Node000001_Node000003" class="edge">
<title>Node1&#45;&gt;Node3</title>
<g id="a_edge2_Node000001_Node000003"><a xlink:title=" ">
<path fill="none" stroke="#63b8ff" d="M382.02,-355.93C322.28,-349.36 197.42,-334.37 93.24,-313.5 92.08,-313.27 90.89,-313.02 89.7,-312.76"/>
<polygon fill="#63b8ff" stroke="#63b8ff" points="90.91,-309.45 80.38,-310.57 89.31,-316.27 90.91,-309.45"/>
</a>
</g>
</g>
<!-- Node4 -->
<g id="Node000004" class="node">
<title>Node4</title>
<g id="a_Node000004"><a xlink:title=" ">
<polygon fill="#e0e0e0" stroke="#999999" points="508.99,-80.5 449.49,-80.5 449.49,-58.25 508.99,-58.25 508.99,-80.5"/>
<text text-anchor="middle" x="479.24" y="-67" font-family="Helvetica,sans-Serif" font-size="10.00">stdbool.h</text>
</a>
</g>
</g>
<!-- Node1&#45;&gt;Node4 -->
<g id="edge3_Node000001_Node000004" class="edge">
<title>Node1&#45;&gt;Node4</title>
<g id="a_edge3_Node000001_Node000004"><a xlink:title=" ">
<path fill="none" stroke="#63b8ff" d="M381.75,-357.2C317.63,-352.22 185.68,-339.13 148.24,-313.5 119,-293.49 107.24,-280.56 107.24,-245.12 107.24,-245.12 107.24,-245.12 107.24,-184.88 107.24,-116.36 340.68,-84.54 437.71,-74.28"/>
<polygon fill="#63b8ff" stroke="#63b8ff" points="438.02,-77.77 447.61,-73.26 437.3,-70.8 438.02,-77.77"/>
</a>
</g>
</g>
<!-- Node5 -->
<g id="Node000005" class="node">
<title>Node5</title>
<g id="a_Node000005"><a xlink:title=" ">
<polygon fill="#e0e0e0" stroke="#999999" points="412.99,-138.75 365.49,-138.75 365.49,-116.5 412.99,-116.5 412.99,-138.75"/>
<text text-anchor="middle" x="389.24" y="-125.25" font-family="Helvetica,sans-Serif" font-size="10.00">stdio.h</text>
</a>
</g>
</g>
<!-- Node1&#45;&gt;Node5 -->
<g id="edge4_Node000001_Node000005" class="edge">
<title>Node1&#45;&gt;Node5</title>
<g id="a_edge4_Node000001_Node000005"><a xlink:title=" ">
<path fill="none" stroke="#63b8ff" d="M381.88,-358.55C318.95,-355.8 191.55,-346.24 164.24,-313.5 98.96,-235.24 276,-165.59 354.22,-139.52"/>
<polygon fill="#63b8ff" stroke="#63b8ff" points="355.14,-142.9 363.56,-136.47 352.97,-136.25 355.14,-142.9"/>
</a>
</g>
</g>
<!-- Node6 -->
<g id="Node000006" class="node">
<title>Node6</title>
<g id="a_Node000006"><a xlink:title=" ">
<polygon fill="#e0e0e0" stroke="#999999" points="225.24,-313.5 173.24,-313.5 173.24,-291.25 225.24,-291.25 225.24,-313.5"/>
<text text-anchor="middle" x="199.24" y="-300" font-family="Helvetica,sans-Serif" font-size="10.00">string.h</text>
</a>
</g>
</g>
<!-- Node1&#45;&gt;Node6 -->
<g id="edge5_Node000001_Node000006" class="edge">
<title>Node1&#45;&gt;Node6</title>
<g id="a_edge5_Node000001_Node000006"><a xlink:title=" ">
<path fill="none" stroke="#63b8ff" d="M382.07,-351.14C347.39,-342.7 292.62,-329.13 236.46,-314.04"/>
<polygon fill="#63b8ff" stroke="#63b8ff" points="237.62,-310.73 227.05,-311.5 235.79,-317.48 237.62,-310.73"/>
</a>
</g>
</g>
<!-- Node7 -->
<g id="Node000007" class="node">
<title>Node7</title>
<g id="a_Node000007"><a xlink:title=" ">
<polygon fill="#e0e0e0" stroke="#999999" points="293.49,-313.5 242.99,-313.5 242.99,-291.25 293.49,-291.25 293.49,-313.5"/>
<text text-anchor="middle" x="268.24" y="-300" font-family="Helvetica,sans-Serif" font-size="10.00">wchar.h</text>
</a>
</g>
</g>
<!-- Node1&#45;&gt;Node7 -->
<g id="edge6_Node000001_Node000007" class="edge">
<title>Node1&#45;&gt;Node7</title>
<g id="a_edge6_Node000001_Node000007"><a xlink:title=" ">
<path fill="none" stroke="#63b8ff" d="M389.22,-349.04C365.17,-339.97 330.37,-326.83 304.26,-316.97"/>
<polygon fill="#63b8ff" stroke="#63b8ff" points="305.66,-313.76 295.07,-313.5 303.19,-320.31 305.66,-313.76"/>
</a>
</g>
</g>
<!-- Node8 -->
<g id="Node000008" class="node">
<title>Node8</title>
<g id="a_Node000008"><a xlink:href="mutt_2lib_8h.html" target="_top" xlink:title="Convenience wrapper for the library headers.">
<polygon fill="#fff0f0" stroke="red" points="686.12,-80.5 624.37,-80.5 624.37,-58.25 686.12,-58.25 686.12,-80.5"/>
<text text-anchor="middle" x="655.24" y="-67" font-family="Helvetica,sans-Serif" font-size="10.00">mutt/lib.h</text>
</a>
</g>
</g>
<!-- Node1&#45;&gt;Node8 -->
<g id="edge7_Node000001_Node000008" class="edge">
<title>Node1&#45;&gt;Node8</title>
<g id="a_edge7_Node000001_Node000008"><a xlink:title=" ">
<path fill="none" stroke="#63b8ff" d="M452.63,-358.23C558.95,-353.08 868.24,-330.75 868.24,-245.12 868.24,-245.12 868.24,-245.12 868.24,-184.88 868.24,-108.16 759.73,-82.63 697.61,-74.29"/>
<polygon fill="#63b8ff" stroke="#63b8ff" points="698.07,-70.82 687.72,-73.07 697.21,-77.77 698.07,-70.82"/>
</a>
</g>
</g>
<!-- Node56 -->
<g id="Node000056" class="node">
<title>Node56</title>
<g id="a_Node000056"><a xlink:href="config_2lib_8h.html" target="_top" xlink:title="Convenience wrapper for the config headers.">
<polygon fill="#fff0f0" stroke="red" points="331.12,-255.25 263.37,-255.25 263.37,-233 331.12,-233 331.12,-255.25"/>
<text text-anchor="middle" x="297.24" y="-241.75" font-family="Helvetica,sans-Serif" font-size="10.00">config/lib.h</text>
</a>
</g>
</g>
<!-- Node1&#45;&gt;Node56 -->
<g id="edge9_Node000001_Node000056" class="edge">
<title>Node1&#45;&gt;Node56</title>
<g id="a_edge9_Node000001_Node000056"><a xlink:title=" ">
<path fill="none" stroke="#63b8ff" d="M396.18,-349.01C380.95,-340.68 360.46,-328.09 345.24,-313.5 330.24,-299.12 317,-279.43 308.25,-264.87"/>
<polygon fill="#63b8ff" stroke="#63b8ff" points="311.51,-263.52 303.46,-256.63 305.46,-267.04 311.51,-263.52"/>
</a>
</g>
</g>
<!-- Node71 -->
<g id="Node000071" class="node">
<title>Node71</title>
<g id="a_Node000071"><a xlink:href="core_2lib_8h.html" target="_top" xlink:title="Convenience wrapper for the core headers.">
<polygon fill="#fff0f0" stroke="red" points="446.99,-313.5 387.49,-313.5 387.49,-291.25 446.99,-291.25 446.99,-313.5"/>
<text text-anchor="middle" x="417.24" y="-300" font-family="Helvetica,sans-Serif" font-size="10.00">core/lib.h</text>
</a>
</g>
</g>
<!-- Node1&#45;&gt;Node71 -->
<g id="edge11_Node000001_Node000071" class="edge">
<title>Node1&#45;&gt;Node71</title>
<g id="a_edge11_Node000001_Node000071"><a xlink:title=" ">
<path fill="none" stroke="#63b8ff" d="M417.24,-349.04C417.24,-342.37 417.24,-333.49 417.24,-325.34"/>
<polygon fill="#63b8ff" stroke="#63b8ff" points="420.74,-325.42 417.24,-315.42 413.74,-325.42 420.74,-325.42"/>
</a>
</g>
</g>
<!-- Node81 -->
<g id="Node000081" class="node">
<title>Node81</title>
<g id="a_Node000081"><a xlink:href="gui_2lib_8h.html" target="_top" xlink:title="Convenience wrapper for the gui headers.">
<polygon fill="#fff0f0" stroke="red" points="518.99,-313.5 465.49,-313.5 465.49,-291.25 518.99,-291.25 518.99,-313.5"/>
<text text-anchor="middle" x="492.24" y="-300" font-family="Helvetica,sans-Serif" font-size="10.00">gui/lib.h</text>
</a>
</g>
</g>
<!-- Node1&#45;&gt;Node81 -->
<g id="edge12_Node000001_Node000081" class="edge">
<title>Node1&#45;&gt;Node81</title>
<g id="a_edge12_Node000001_Node000081"><a xlink:title=" ">
<path fill="none" stroke="#63b8ff" d="M431.35,-349.04C442.03,-341.03 456.94,-329.85 469.33,-320.56"/>
<polygon fill="#63b8ff" stroke="#63b8ff" points="471.09,-323.62 476.99,-314.82 466.89,-318.02 471.09,-323.62"/>
</a>
</g>
</g>
<!-- Node149 -->
<g id="Node000149" class="node">
<title>Node149</title>
<g id="a_Node000149"><a xlink:href="key_2dump_8h.html" target="_top" xlink:title="Dump key bindings.">
<polygon fill="white" stroke="#666666" points="516.24,-197 464.24,-197 464.24,-174.75 516.24,-174.75 516.24,-197"/>
<text text-anchor="middle" x="490.24" y="-183.5" font-family="Helvetica,sans-Serif" font-size="10.00">dump.h</text>
</a>
</g>
</g>
<!-- Node1&#45;&gt;Node149 -->
<g id="edge13_Node000001_Node000149" class="edge">
<title>Node1&#45;&gt;Node149</title>
<g id="a_edge13_Node000001_Node000149"><a xlink:title=" ">
<path fill="none" stroke="#63b8ff" d="M452.54,-355.27C478.29,-350.04 511.5,-338.58 528.24,-313.5 550.72,-279.81 524.16,-232.4 505.48,-206.2"/>
<polygon fill="#63b8ff" stroke="#63b8ff" points="508.51,-204.4 499.73,-198.48 502.9,-208.59 508.51,-204.4"/>
</a>
</g>
</g>
<!-- Node114 -->
<g id="Node000114" class="node">
<title>Node114</title>
<g id="a_Node000114"><a xlink:href="menu_2lib_8h.html" target="_top" xlink:title="GUI present the user with a selectable list.">
<polygon fill="#fff0f0" stroke="red" points="729.37,-138.75 663.12,-138.75 663.12,-116.5 729.37,-116.5 729.37,-138.75"/>
<text text-anchor="middle" x="696.24" y="-125.25" font-family="Helvetica,sans-Serif" font-size="10.00">menu/lib.h</text>
</a>
</g>
</g>
<!-- Node1&#45;&gt;Node114 -->
<g id="edge20_Node000001_Node000114" class="edge">
<title>Node1&#45;&gt;Node114</title>
<g id="a_edge20_Node000001_Node000114"><a xlink:title=" ">
<path fill="none" stroke="#63b8ff" d="M452.65,-357.67C520.74,-353.34 666.88,-341.03 708.24,-313.5 764.93,-275.77 806.81,-234 773.24,-174.75 765.59,-161.25 752.23,-151.27 738.77,-144.11"/>
<polygon fill="#63b8ff" stroke="#63b8ff" points="740.44,-141.03 729.91,-139.84 737.4,-147.34 740.44,-141.03"/>
</a>
</g>
</g>
<!-- Node150 -->
<g id="Node000150" class="node">
<title>Node150</title>
<g id="a_Node000150"><a xlink:href="pager_2lib_8h.html" target="_top" xlink:title="GUI display a file/email/help in a viewport with paging.">
<polygon fill="#fff0f0" stroke="red" points="408.74,-197 341.74,-197 341.74,-174.75 408.74,-174.75 408.74,-197"/>
<text text-anchor="middle" x="375.24" y="-183.5" font-family="Helvetica,sans-Serif" font-size="10.00">pager/lib.h</text>
</a>
</g>
</g>
<!-- Node1&#45;&gt;Node150 -->
<g id="edge21_Node000001_Node000150" class="edge">
<title>Node1&#45;&gt;Node150</title>
<g id="a_edge21_Node000001_Node000150"><a xlink:title=" ">
<path fill="none" stroke="#63b8ff" d="M404.84,-349.32C395.6,-340.8 383.67,-327.81 378.24,-313.5 365.03,-278.7 367.98,-234.55 371.49,-208.63"/>
<polygon fill="#63b8ff" stroke="#63b8ff" points="374.92,-209.41 372.97,-198.99 368,-208.35 374.92,-209.41"/>
</a>
</g>
</g>
<!-- Node151 -->
<g id="Node000151" class="node">
<title>Node151</title>
<g id="a_Node000151"><a xlink:href="get_8h.html" target="_top" xlink:title="Get a key from the user.">
<polygon fill="#fff0f0" stroke="red" points="764.62,-197 723.87,-197 723.87,-174.75 764.62,-174.75 764.62,-197"/>
<text text-anchor="middle" x="744.24" y="-183.5" font-family="Helvetica,sans-Serif" font-size="10.00">get.h</text>
</a>
</g>
</g>
<!-- Node1&#45;&gt;Node151 -->
<g id="edge25_Node000001_Node000151" class="edge">
<title>Node1&#45;&gt;Node151</title>
<g id="a_edge25_Node000001_Node000151"><a xlink:title=" ">
<path fill="none" stroke="#63b8ff" d="M452.4,-357.24C515.9,-352.33 646.55,-339.34 683.24,-313.5 718.68,-288.55 734.31,-237.26 740.55,-208.2"/>
<polygon fill="#63b8ff" stroke="#63b8ff" points="743.92,-209.21 742.4,-198.73 737.05,-207.87 743.92,-209.21"/>
</a>
</g>
</g>
<!-- Node152 -->
<g id="Node000152" class="node">
<title>Node152</title>
<g id="a_Node000152"><a xlink:href="keymap_8h.html" target="_top" xlink:title="Keymap handling.">
<polygon fill="#fff0f0" stroke="red" points="644.74,-138.75 583.74,-138.75 583.74,-116.5 644.74,-116.5 644.74,-138.75"/>
<text text-anchor="middle" x="614.24" y="-125.25" font-family="Helvetica,sans-Serif" font-size="10.00">keymap.h</text>
</a>
</g>
</g>
<!-- Node1&#45;&gt;Node152 -->
<g id="edge39_Node000001_Node000152" class="edge">
<title>Node1&#45;&gt;Node152</title>
<g id="a_edge39_Node000001_Node000152"><a xlink:title=" ">
<path fill="none" stroke="#63b8ff" d="M452.53,-355.31C481.23,-350.06 520.98,-338.53 546.24,-313.5 592.29,-267.87 607.43,-188.44 612.18,-150.29"/>
<polygon fill="#63b8ff" stroke="#63b8ff" points="615.64,-150.87 613.26,-140.55 608.68,-150.1 615.64,-150.87"/>
</a>
</g>
</g>
<!-- Node153 -->
<g id="Node000153" class="node">
<title>Node153</title>
<g id="a_Node000153"><a xlink:href="init_8h.html" target="_top" xlink:title="Set up the key bindings.">
<polygon fill="white" stroke="#666666" points="652.87,-313.5 613.62,-313.5 613.62,-291.25 652.87,-291.25 652.87,-313.5"/>
<text text-anchor="middle" x="633.24" y="-300" font-family="Helvetica,sans-Serif" font-size="10.00">init.h</text>
</a>
</g>
</g>
<!-- Node1&#45;&gt;Node153 -->
<g id="edge31_Node000001_Node000153" class="edge">
<title>Node1&#45;&gt;Node153</title>
<g id="a_edge31_Node000001_Node000153"><a xlink:title=" ">
<path fill="none" stroke="#63b8ff" d="M452.59,-351.13C489.34,-342.18 548.49,-327.48 599.24,-313.5 600.23,-313.23 601.23,-312.95 602.24,-312.66"/>
<polygon fill="#63b8ff" stroke="#63b8ff" points="603.06,-316.07 611.69,-309.93 601.11,-309.35 603.06,-316.07"/>
</a>
</g>
</g>
<!-- Node154 -->
<g id="Node000154" class="node">
<title>Node154</title>
<g id="a_Node000154"><a xlink:href="menu_8h.html" target="_top" xlink:title="Maniplate Menus and SubMenus.">
<polygon fill="white" stroke="#666666" points="707.24,-255.25 655.24,-255.25 655.24,-233 707.24,-233 707.24,-255.25"/>
<text text-anchor="middle" x="681.24" y="-241.75" font-family="Helvetica,sans-Serif" font-size="10.00">menu.h</text>
</a>
</g>
</g>
<!-- Node1&#45;&gt;Node154 -->
<g id="edge40_Node000001_Node000154" class="edge">
<title>Node1&#45;&gt;Node154</title>
<g id="a_edge40_Node000001_Node000154"><a xlink:title=" ">
<path fill="none" stroke="#63b8ff" d="M452.61,-357.49C512.93,-353.12 632.12,-341.17 662.24,-313.5 675,-301.78 679.48,-282.3 680.92,-267.13"/>
<polygon fill="#63b8ff" stroke="#63b8ff" points="684.41,-267.34 681.45,-257.17 677.42,-266.97 684.41,-267.34"/>
</a>
</g>
</g>
<!-- Node8&#45;&gt;Node2 -->
<g id="edge8_Node000008_Node000002" class="edge">
<title>Node8&#45;&gt;Node2</title>
<g id="a_edge8_Node000008_Node000002"><a xlink:title=" ">
<path fill="none" stroke="#63b8ff" d="M623.96,-63.33C559.91,-53.01 414,-29.49 344.46,-18.29"/>
<polygon fill="#63b8ff" stroke="#63b8ff" points="345.12,-14.85 334.69,-16.71 344,-21.76 345.12,-14.85"/>
</a>
</g>
</g>
<!-- Node56&#45;&gt;Node4 -->
<g id="edge10_Node000056_Node000004" class="edge">
<title>Node56&#45;&gt;Node4</title>
<g id="a_edge10_Node000056_Node000004"><a xlink:title=" ">
<path fill="none" stroke="#63b8ff" d="M298.43,-232.66C301.7,-208.7 312.99,-149.42 347.24,-116.5 371.78,-92.92 409.03,-81.33 437.7,-75.68"/>
<polygon fill="#63b8ff" stroke="#63b8ff" points="438.29,-79.13 447.52,-73.93 437.07,-72.24 438.29,-79.13"/>
</a>
</g>
</g>
<!-- Node149&#45;&gt;Node4 -->
<g id="edge14_Node000149_Node000004" class="edge">
<title>Node149&#45;&gt;Node4</title>
<g id="a_edge14_Node000149_Node000004"><a xlink:title=" ">
<path fill="none" stroke="#63b8ff" d="M489.23,-174.31C487.44,-155.73 483.71,-116.87 481.35,-92.29"/>
<polygon fill="#63b8ff" stroke="#63b8ff" points="484.84,-92.04 480.4,-82.42 477.87,-92.71 484.84,-92.04"/>
</a>
</g>
</g>
<!-- Node149&#45;&gt;Node5 -->
<g id="edge15_Node000149_Node000005" class="edge">
<title>Node149&#45;&gt;Node5</title>
<g id="a_edge15_Node000149_Node000005"><a xlink:title=" ">
<path fill="none" stroke="#63b8ff" d="M471.24,-174.29C456.29,-165.97 435.2,-154.22 418.15,-144.73"/>
<polygon fill="#63b8ff" stroke="#63b8ff" points="419.92,-141.7 409.48,-139.89 416.51,-147.82 419.92,-141.7"/>
</a>
</g>
</g>
<!-- Node149&#45;&gt;Node8 -->
<g id="edge16_Node000149_Node000008" class="edge">
<title>Node149&#45;&gt;Node8</title>
<g id="a_edge16_Node000149_Node000008"><a xlink:title=" ">
<path fill="none" stroke="#63b8ff" d="M502.17,-174.29C518.21,-160.3 547.89,-135.22 575.24,-116.5 591.15,-105.61 609.77,-94.77 625.03,-86.34"/>
<polygon fill="#63b8ff" stroke="#63b8ff" points="626.56,-89.5 633.67,-81.64 623.21,-83.35 626.56,-89.5"/>
</a>
</g>
</g>
<!-- Node149&#45;&gt;Node114 -->
<g id="edge17_Node000149_Node000114" class="edge">
<title>Node149&#45;&gt;Node114</title>
<g id="a_edge17_Node000149_Node000114"><a xlink:title=" ">
<path fill="none" stroke="#63b8ff" d="M516.33,-177.75C550.45,-168.44 610.72,-151.98 652.02,-140.7"/>
<polygon fill="#63b8ff" stroke="#63b8ff" points="652.69,-144.15 661.41,-138.14 650.84,-137.39 652.69,-144.15"/>
</a>
</g>
</g>
<!-- Node114&#45;&gt;Node4 -->
<g id="edge18_Node000114_Node000004" class="edge">
<title>Node114&#45;&gt;Node4</title>
<g id="a_edge18_Node000114_Node000004"><a xlink:title=" ">
<path fill="none" stroke="#63b8ff" d="M662.81,-117.96C624.45,-108.02 561.53,-91.71 520.25,-81"/>
<polygon fill="#63b8ff" stroke="#63b8ff" points="521.24,-77.65 510.68,-78.52 519.48,-84.42 521.24,-77.65"/>
</a>
</g>
</g>
<!-- Node114&#45;&gt;Node8 -->
<g id="edge19_Node000114_Node000008" class="edge">
<title>Node114&#45;&gt;Node8</title>
<g id="a_edge19_Node000114_Node000008"><a xlink:title=" ">
<path fill="none" stroke="#63b8ff" d="M688.53,-116.04C683.2,-108.74 675.96,-98.8 669.59,-90.06"/>
<polygon fill="#63b8ff" stroke="#63b8ff" points="672.53,-88.15 663.81,-82.13 666.87,-92.27 672.53,-88.15"/>
</a>
</g>
</g>
<!-- Node150&#45;&gt;Node4 -->
<g id="edge22_Node000150_Node000004" class="edge">
<title>Node150&#45;&gt;Node4</title>
<g id="a_edge22_Node000150_Node000004"><a xlink:title=" ">
<path fill="none" stroke="#63b8ff" d="M367.55,-174.72C357.82,-160.54 343.75,-134.53 356.24,-116.5 374.51,-90.14 409.82,-78.82 437.94,-73.97"/>
<polygon fill="#63b8ff" stroke="#63b8ff" points="438.22,-77.47 447.59,-72.54 437.19,-70.55 438.22,-77.47"/>
</a>
</g>
</g>
<!-- Node150&#45;&gt;Node5 -->
<g id="edge23_Node000150_Node000005" class="edge">
<title>Node150&#45;&gt;Node5</title>
<g id="a_edge23_Node000150_Node000005"><a xlink:title=" ">
<path fill="none" stroke="#63b8ff" d="M377.87,-174.29C379.56,-167.54 381.8,-158.53 383.85,-150.3"/>
<polygon fill="#63b8ff" stroke="#63b8ff" points="387.24,-151.18 386.25,-140.63 380.44,-149.49 387.24,-151.18"/>
</a>
</g>
</g>
<!-- Node150&#45;&gt;Node8 -->
<g id="edge24_Node000150_Node000008" class="edge">
<title>Node150&#45;&gt;Node8</title>
<g id="a_edge24_Node000150_Node000008"><a xlink:title=" ">
<path fill="none" stroke="#63b8ff" d="M400.99,-174.32C433.78,-160.89 492.22,-136.95 542.24,-116.5 567.75,-106.07 596.49,-94.34 618.61,-85.32"/>
<polygon fill="#63b8ff" stroke="#63b8ff" points="619.87,-88.58 627.81,-81.56 617.22,-82.1 619.87,-88.58"/>
</a>
</g>
</g>
<!-- Node151&#45;&gt;Node8 -->
<g id="edge26_Node000151_Node000008" class="edge">
<title>Node151&#45;&gt;Node8</title>
<g id="a_edge26_Node000151_Node000008"><a xlink:title=" ">
<path fill="none" stroke="#63b8ff" d="M746.13,-174.66C748.18,-160.4 749.79,-134.29 738.24,-116.5 728.62,-101.67 712.49,-91.17 697,-83.97"/>
<polygon fill="#63b8ff" stroke="#63b8ff" points="698.43,-80.78 687.85,-80.1 695.7,-87.22 698.43,-80.78"/>
</a>
</g>
</g>
<!-- Node151&#45;&gt;Node114 -->
<g id="edge27_Node000151_Node000114" class="edge">
<title>Node151&#45;&gt;Node114</title>
<g id="a_edge27_Node000151_Node000114"><a xlink:title=" ">
<path fill="none" stroke="#63b8ff" d="M735.21,-174.29C728.84,-166.83 720.13,-156.62 712.56,-147.75"/>
<polygon fill="#63b8ff" stroke="#63b8ff" points="715.37,-145.64 706.21,-140.31 710.04,-150.19 715.37,-145.64"/>
</a>
</g>
</g>
<!-- Node151&#45;&gt;Node152 -->
<g id="edge28_Node000151_Node000152" class="edge">
<title>Node151&#45;&gt;Node152</title>
<g id="a_edge28_Node000151_Node000152"><a xlink:title=" ">
<path fill="none" stroke="#63b8ff" d="M723.64,-175.96C703.65,-167.31 672.93,-154.02 649.12,-143.72"/>
<polygon fill="#63b8ff" stroke="#63b8ff" points="650.69,-140.58 640.12,-139.82 647.91,-147.01 650.69,-140.58"/>
</a>
</g>
</g>
<!-- Node152&#45;&gt;Node4 -->
<g id="edge29_Node000152_Node000004" class="edge">
<title>Node152&#45;&gt;Node4</title>
<g id="a_edge29_Node000152_Node000004"><a xlink:title=" ">
<path fill="none" stroke="#63b8ff" d="M588.85,-116.04C568.01,-107.36 538.26,-94.97 515.02,-85.28"/>
<polygon fill="#63b8ff" stroke="#63b8ff" points="516.49,-82.11 505.92,-81.49 513.8,-88.57 516.49,-82.11"/>
</a>
</g>
</g>
<!-- Node152&#45;&gt;Node8 -->
<g id="edge30_Node000152_Node000008" class="edge">
<title>Node152&#45;&gt;Node8</title>
<g id="a_edge30_Node000152_Node000008"><a xlink:title=" ">
<path fill="none" stroke="#63b8ff" d="M621.95,-116.04C627.28,-108.74 634.52,-98.8 640.89,-90.06"/>
<polygon fill="#63b8ff" stroke="#63b8ff" points="643.61,-92.27 646.67,-82.13 637.95,-88.15 643.61,-92.27"/>
</a>
</g>
</g>
<!-- Node153&#45;&gt;Node152 -->
<g id="edge32_Node000153_Node000152" class="edge">
<title>Node153&#45;&gt;Node152</title>
<g id="a_edge32_Node000153_Node000152"><a xlink:title=" ">
<path fill="none" stroke="#63b8ff" d="M632.08,-290.83C629.03,-263.05 620.71,-187.47 616.6,-150.11"/>
<polygon fill="#63b8ff" stroke="#63b8ff" points="620.12,-150.1 615.55,-140.54 613.17,-150.86 620.12,-150.1"/>
</a>
</g>
</g>
<!-- Node153&#45;&gt;Node154 -->
<g id="edge33_Node000153_Node000154" class="edge">
<title>Node153&#45;&gt;Node154</title>
<g id="a_edge33_Node000153_Node000154"><a xlink:title=" ">
<path fill="none" stroke="#63b8ff" d="M642.27,-290.79C648.64,-283.33 657.35,-273.12 664.92,-264.25"/>
<polygon fill="#63b8ff" stroke="#63b8ff" points="667.44,-266.69 671.27,-256.81 662.12,-262.14 667.44,-266.69"/>
</a>
</g>
</g>
<!-- Node154&#45;&gt;Node4 -->
<g id="edge34_Node000154_Node000004" class="edge">
<title>Node154&#45;&gt;Node4</title>
<g id="a_edge34_Node000154_Node000004"><a xlink:title=" ">
<path fill="none" stroke="#63b8ff" d="M668.91,-232.58C635.3,-203.84 541.83,-123.9 499.98,-88.11"/>
<polygon fill="#63b8ff" stroke="#63b8ff" points="502.44,-85.61 492.56,-81.77 497.89,-90.93 502.44,-85.61"/>
</a>
</g>
</g>
<!-- Node154&#45;&gt;Node8 -->
<g id="edge35_Node000154_Node000008" class="edge">
<title>Node154&#45;&gt;Node8</title>
<g id="a_edge35_Node000154_Node000008"><a xlink:title=" ">
<path fill="none" stroke="#63b8ff" d="M707.39,-237.91C729.22,-232.04 758.98,-220.11 773.24,-197 778.44,-188.59 774.64,-184.54 773.24,-174.75 769.43,-148.05 773.89,-136.9 756.24,-116.5 741.02,-98.91 717.72,-87.65 697.32,-80.67"/>
<polygon fill="#63b8ff" stroke="#63b8ff" points="698.4,-77.34 687.81,-77.67 696.29,-84.02 698.4,-77.34"/>
</a>
</g>
</g>
<!-- Node154&#45;&gt;Node114 -->
<g id="edge36_Node000154_Node000114" class="edge">
<title>Node154&#45;&gt;Node114</title>
<g id="a_edge36_Node000154_Node000114"><a xlink:title=" ">
<path fill="none" stroke="#63b8ff" d="M682.63,-232.56C685.06,-213.98 690.15,-175.12 693.37,-150.54"/>
<polygon fill="#63b8ff" stroke="#63b8ff" points="696.84,-151.04 694.66,-140.67 689.89,-150.13 696.84,-151.04"/>
</a>
</g>
</g>
<!-- Node154&#45;&gt;Node151 -->
<g id="edge37_Node000154_Node000151" class="edge">
<title>Node154&#45;&gt;Node151</title>
<g id="a_edge37_Node000154_Node000151"><a xlink:title=" ">
<path fill="none" stroke="#63b8ff" d="M693.09,-232.54C701.8,-224.77 713.85,-214.01 724.07,-204.89"/>
<polygon fill="#63b8ff" stroke="#63b8ff" points="726.19,-207.69 731.32,-198.42 721.53,-202.47 726.19,-207.69"/>
</a>
</g>
</g>
<!-- Node154&#45;&gt;Node152 -->
<g id="edge38_Node000154_Node000152" class="edge">
<title>Node154&#45;&gt;Node152</title>
<g id="a_edge38_Node000154_Node000152"><a xlink:title=" ">
<path fill="none" stroke="#63b8ff" d="M675.06,-232.56C663.94,-213.56 640.4,-173.33 626.09,-148.87"/>
<polygon fill="#63b8ff" stroke="#63b8ff" points="629.25,-147.34 621.17,-140.47 623.2,-150.87 629.25,-147.34"/>
</a>
</g>
</g>
</g>
</svg>
