<?xml version="1.0" encoding="UTF-8" standalone="no"?>
<!DOCTYPE svg PUBLIC "-//W3C//DTD SVG 1.1//EN"
 "http://www.w3.org/Graphics/SVG/1.1/DTD/svg11.dtd">
<!-- Generated by graphviz version 12.2.1 (20241206.2353)
 -->
<!-- Title: key/dump.c Pages: 1 -->
<svg width="1006pt" height="380pt"
 viewBox="0.00 0.00 1005.75 379.75" xmlns="http://www.w3.org/2000/svg" xmlns:xlink="http://www.w3.org/1999/xlink">
<g id="graph0" class="graph" transform="scale(1 1) rotate(0) translate(4 375.75)">
<title>key/dump.c</title>
<!-- Node1 -->
<g id="Node000001" class="node">
<title>Node1</title>
<g id="a_Node000001"><a xlink:title="Dump key bindings.">
<polygon fill="#999999" stroke="#666666" points="537,-371.75 467,-371.75 467,-349.5 537,-349.5 537,-371.75"/>
<text text-anchor="middle" x="502" y="-358.25" font-family="Helvetica,sans-Serif" font-size="10.00">key/dump.c</text>
</a>
</g>
</g>
<!-- Node2 -->
<g id="Node000002" class="node">
<title>Node2</title>
<g id="a_Node000002"><a xlink:title=" ">
<polygon fill="#e0e0e0" stroke="#999999" points="362.75,-22.25 309.25,-22.25 309.25,0 362.75,0 362.75,-22.25"/>
<text text-anchor="middle" x="336" y="-8.75" font-family="Helvetica,sans-Serif" font-size="10.00">config.h</text>
</a>
</g>
</g>
<!-- Node1&#45;&gt;Node2 -->
<g id="edge1_Node000001_Node000002" class="edge">
<title>Node1&#45;&gt;Node2</title>
<g id="a_edge1_Node000001_Node000002"><a xlink:title=" ">
<path fill="none" stroke="#63b8ff" d="M466.64,-358.32C378.67,-354.67 152.03,-342.63 83,-313.5 38.97,-294.92 0,-292.92 0,-245.12 0,-245.12 0,-245.12 0,-126.62 0,-64.39 209.13,-29.09 297.41,-16.96"/>
<polygon fill="#63b8ff" stroke="#63b8ff" points="297.84,-20.43 307.29,-15.63 296.91,-13.49 297.84,-20.43"/>
</a>
</g>
</g>
<!-- Node3 -->
<g id="Node000003" class="node">
<title>Node3</title>
<g id="a_Node000003"><a xlink:title=" ">
<polygon fill="#e0e0e0" stroke="#999999" points="709.5,-313.5 660.5,-313.5 660.5,-291.25 709.5,-291.25 709.5,-313.5"/>
<text text-anchor="middle" x="685" y="-300" font-family="Helvetica,sans-Serif" font-size="10.00">limits.h</text>
</a>
</g>
</g>
<!-- Node1&#45;&gt;Node3 -->
<g id="edge2_Node000001_Node000003" class="edge">
<title>Node1&#45;&gt;Node3</title>
<g id="a_edge2_Node000001_Node000003"><a xlink:title=" ">
<path fill="none" stroke="#63b8ff" d="M536.42,-349.04C568.65,-339.14 616.61,-324.4 649.26,-314.36"/>
<polygon fill="#63b8ff" stroke="#63b8ff" points="650.15,-317.75 658.68,-311.47 648.09,-311.06 650.15,-317.75"/>
</a>
</g>
</g>
<!-- Node4 -->
<g id="Node000004" class="node">
<title>Node4</title>
<g id="a_Node000004"><a xlink:title=" ">
<polygon fill="#e0e0e0" stroke="#999999" points="276.75,-80.5 217.25,-80.5 217.25,-58.25 276.75,-58.25 276.75,-80.5"/>
<text text-anchor="middle" x="247" y="-67" font-family="Helvetica,sans-Serif" font-size="10.00">stdbool.h</text>
</a>
</g>
</g>
<!-- Node1&#45;&gt;Node4 -->
<g id="edge3_Node000001_Node000004" class="edge">
<title>Node1&#45;&gt;Node4</title>
<g id="a_edge3_Node000001_Node000004"><a xlink:title=" ">
<path fill="none" stroke="#63b8ff" d="M466.78,-356.55C372.94,-347.38 124,-316.35 124,-245.12 124,-245.12 124,-245.12 124,-184.88 124,-137.21 174.09,-103.75 210.34,-85.78"/>
<polygon fill="#63b8ff" stroke="#63b8ff" points="211.71,-89 219.25,-81.56 208.71,-82.68 211.71,-89"/>
</a>
</g>
</g>
<!-- Node5 -->
<g id="Node000005" class="node">
<title>Node5</title>
<g id="a_Node000005"><a xlink:title=" ">
<polygon fill="#e0e0e0" stroke="#999999" points="616.75,-138.75 569.25,-138.75 569.25,-116.5 616.75,-116.5 616.75,-138.75"/>
<text text-anchor="middle" x="593" y="-125.25" font-family="Helvetica,sans-Serif" font-size="10.00">stdio.h</text>
</a>
</g>
</g>
<!-- Node1&#45;&gt;Node5 -->
<g id="edge4_Node000001_Node000005" class="edge">
<title>Node1&#45;&gt;Node5</title>
<g id="a_edge4_Node000001_Node000005"><a xlink:title=" ">
<path fill="none" stroke="#63b8ff" d="M527.15,-349.12C542.13,-341.5 560.09,-329.68 570,-313.5 601.57,-261.93 599.3,-187.08 595.77,-150.46"/>
<polygon fill="#63b8ff" stroke="#63b8ff" points="599.27,-150.26 594.69,-140.71 592.31,-151.03 599.27,-150.26"/>
</a>
</g>
</g>
<!-- Node6 -->
<g id="Node000006" class="node">
<title>Node6</title>
<g id="a_Node000006"><a xlink:title=" ">
<polygon fill="#e0e0e0" stroke="#999999" points="780,-313.5 728,-313.5 728,-291.25 780,-291.25 780,-313.5"/>
<text text-anchor="middle" x="754" y="-300" font-family="Helvetica,sans-Serif" font-size="10.00">string.h</text>
</a>
</g>
</g>
<!-- Node1&#45;&gt;Node6 -->
<g id="edge5_Node000001_Node000006" class="edge">
<title>Node1&#45;&gt;Node6</title>
<g id="a_edge5_Node000001_Node000006"><a xlink:title=" ">
<path fill="none" stroke="#63b8ff" d="M537.13,-352.97C578.01,-345.05 647.76,-330.98 716.64,-313.97"/>
<polygon fill="#63b8ff" stroke="#63b8ff" points="717.36,-317.39 726.21,-311.58 715.66,-310.6 717.36,-317.39"/>
</a>
</g>
</g>
<!-- Node7 -->
<g id="Node000007" class="node">
<title>Node7</title>
<g id="a_Node000007"><a xlink:title=" ">
<polygon fill="#e0e0e0" stroke="#999999" points="848.25,-313.5 797.75,-313.5 797.75,-291.25 848.25,-291.25 848.25,-313.5"/>
<text text-anchor="middle" x="823" y="-300" font-family="Helvetica,sans-Serif" font-size="10.00">wchar.h</text>
</a>
</g>
</g>
<!-- Node1&#45;&gt;Node7 -->
<g id="edge6_Node000001_Node000007" class="edge">
<title>Node1&#45;&gt;Node7</title>
<g id="a_edge6_Node000001_Node000007"><a xlink:title=" ">
<path fill="none" stroke="#63b8ff" d="M537.18,-355.47C589.56,-348.96 691.29,-335.07 786.5,-313.85"/>
<polygon fill="#63b8ff" stroke="#63b8ff" points="787.02,-317.32 796,-311.7 785.47,-310.49 787.02,-317.32"/>
</a>
</g>
</g>
<!-- Node8 -->
<g id="Node000008" class="node">
<title>Node8</title>
<g id="a_Node000008"><a xlink:href="mutt_2lib_8h.html" target="_top" xlink:title="Convenience wrapper for the library headers.">
<polygon fill="#fff0f0" stroke="red" points="445.88,-80.5 384.12,-80.5 384.12,-58.25 445.88,-58.25 445.88,-80.5"/>
<text text-anchor="middle" x="415" y="-67" font-family="Helvetica,sans-Serif" font-size="10.00">mutt/lib.h</text>
</a>
</g>
</g>
<!-- Node1&#45;&gt;Node8 -->
<g id="edge7_Node000001_Node000008" class="edge">
<title>Node1&#45;&gt;Node8</title>
<g id="a_edge7_Node000001_Node000008"><a xlink:title=" ">
<path fill="none" stroke="#63b8ff" d="M507.52,-349.01C521.64,-320.39 556.66,-239.45 537,-174.75 527.94,-144.94 520.92,-137.6 498,-116.5 484.4,-103.98 466.79,-93.58 451.29,-85.84"/>
<polygon fill="#63b8ff" stroke="#63b8ff" points="452.88,-82.72 442.34,-81.57 449.86,-89.04 452.88,-82.72"/>
</a>
</g>
</g>
<!-- Node56 -->
<g id="Node000056" class="node">
<title>Node56</title>
<g id="a_Node000056"><a xlink:href="config_2lib_8h.html" target="_top" xlink:title="Convenience wrapper for the config headers.">
<polygon fill="#fff0f0" stroke="red" points="95.88,-255.25 28.12,-255.25 28.12,-233 95.88,-233 95.88,-255.25"/>
<text text-anchor="middle" x="62" y="-241.75" font-family="Helvetica,sans-Serif" font-size="10.00">config/lib.h</text>
</a>
</g>
</g>
<!-- Node1&#45;&gt;Node56 -->
<g id="edge9_Node000001_Node000056" class="edge">
<title>Node1&#45;&gt;Node56</title>
<g id="a_edge9_Node000001_Node000056"><a xlink:title=" ">
<path fill="none" stroke="#63b8ff" d="M466.55,-359.1C381.74,-357.28 169.8,-349.18 110,-313.5 91.76,-302.62 78.68,-281.81 70.83,-265.99"/>
<polygon fill="#63b8ff" stroke="#63b8ff" points="74.02,-264.57 66.66,-256.95 67.66,-267.49 74.02,-264.57"/>
</a>
</g>
</g>
<!-- Node71 -->
<g id="Node000071" class="node">
<title>Node71</title>
<g id="a_Node000071"><a xlink:href="core_2lib_8h.html" target="_top" xlink:title="Convenience wrapper for the core headers.">
<polygon fill="#fff0f0" stroke="red" points="925.75,-313.5 866.25,-313.5 866.25,-291.25 925.75,-291.25 925.75,-313.5"/>
<text text-anchor="middle" x="896" y="-300" font-family="Helvetica,sans-Serif" font-size="10.00">core/lib.h</text>
</a>
</g>
</g>
<!-- Node1&#45;&gt;Node71 -->
<g id="edge11_Node000001_Node000071" class="edge">
<title>Node1&#45;&gt;Node71</title>
<g id="a_edge11_Node000001_Node000071"><a xlink:title=" ">
<path fill="none" stroke="#63b8ff" d="M537.25,-356.52C599.43,-350.72 732.81,-336.86 854.84,-313.72"/>
<polygon fill="#63b8ff" stroke="#63b8ff" points="855.21,-317.21 864.37,-311.89 853.88,-310.34 855.21,-317.21"/>
</a>
</g>
</g>
<!-- Node81 -->
<g id="Node000081" class="node">
<title>Node81</title>
<g id="a_Node000081"><a xlink:href="gui_2lib_8h.html" target="_top" xlink:title="Convenience wrapper for the gui headers.">
<polygon fill="#fff0f0" stroke="red" points="997.75,-313.5 944.25,-313.5 944.25,-291.25 997.75,-291.25 997.75,-313.5"/>
<text text-anchor="middle" x="971" y="-300" font-family="Helvetica,sans-Serif" font-size="10.00">gui/lib.h</text>
</a>
</g>
</g>
<!-- Node1&#45;&gt;Node81 -->
<g id="edge12_Node000001_Node000081" class="edge">
<title>Node1&#45;&gt;Node81</title>
<g id="a_edge12_Node000001_Node000081"><a xlink:title=" ">
<path fill="none" stroke="#63b8ff" d="M537.37,-357.87C609.89,-353.85 780.69,-342.18 933.05,-313.59"/>
<polygon fill="#63b8ff" stroke="#63b8ff" points="933.34,-317.09 942.5,-311.78 932.02,-310.22 933.34,-317.09"/>
</a>
</g>
</g>
<!-- Node116 -->
<g id="Node000116" class="node">
<title>Node116</title>
<g id="a_Node000116"><a xlink:href="key_2dump_8h.html" target="_top" xlink:title="Dump key bindings.">
<polygon fill="white" stroke="#666666" points="528,-197 476,-197 476,-174.75 528,-174.75 528,-197"/>
<text text-anchor="middle" x="502" y="-183.5" font-family="Helvetica,sans-Serif" font-size="10.00">dump.h</text>
</a>
</g>
</g>
<!-- Node1&#45;&gt;Node116 -->
<g id="edge13_Node000001_Node000116" class="edge">
<title>Node1&#45;&gt;Node116</title>
<g id="a_edge13_Node000001_Node000116"><a xlink:title=" ">
<path fill="none" stroke="#63b8ff" d="M502,-349.08C502,-321.3 502,-245.72 502,-208.36"/>
<polygon fill="#63b8ff" stroke="#63b8ff" points="505.5,-208.8 502,-198.8 498.5,-208.8 505.5,-208.8"/>
</a>
</g>
</g>
<!-- Node113 -->
<g id="Node000113" class="node">
<title>Node113</title>
<g id="a_Node000113"><a xlink:href="menu_2lib_8h.html" target="_top" xlink:title="GUI present the user with a selectable list.">
<polygon fill="#fff0f0" stroke="red" points="280.12,-138.75 213.88,-138.75 213.88,-116.5 280.12,-116.5 280.12,-138.75"/>
<text text-anchor="middle" x="247" y="-125.25" font-family="Helvetica,sans-Serif" font-size="10.00">menu/lib.h</text>
</a>
</g>
</g>
<!-- Node1&#45;&gt;Node113 -->
<g id="edge21_Node000001_Node000113" class="edge">
<title>Node1&#45;&gt;Node113</title>
<g id="a_edge21_Node000001_Node000113"><a xlink:title=" ">
<path fill="none" stroke="#63b8ff" d="M466.76,-357.97C428.04,-354.58 365.58,-344.34 322,-313.5 271.14,-277.51 262.12,-256.62 244,-197 239.4,-181.85 240.4,-163.96 242.42,-150.27"/>
<polygon fill="#63b8ff" stroke="#63b8ff" points="245.83,-151.04 244.16,-140.58 238.94,-149.8 245.83,-151.04"/>
</a>
</g>
</g>
<!-- Node117 -->
<g id="Node000117" class="node">
<title>Node117</title>
<g id="a_Node000117"><a xlink:href="pager_2lib_8h.html" target="_top" xlink:title="GUI display a file/email/help in a viewport with paging.">
<polygon fill="#fff0f0" stroke="red" points="689.5,-197 622.5,-197 622.5,-174.75 689.5,-174.75 689.5,-197"/>
<text text-anchor="middle" x="656" y="-183.5" font-family="Helvetica,sans-Serif" font-size="10.00">pager/lib.h</text>
</a>
</g>
</g>
<!-- Node1&#45;&gt;Node117 -->
<g id="edge22_Node000001_Node000117" class="edge">
<title>Node1&#45;&gt;Node117</title>
<g id="a_edge22_Node000001_Node000117"><a xlink:title=" ">
<path fill="none" stroke="#63b8ff" d="M537.37,-351.82C560.22,-345.13 589.1,-333.33 608,-313.5 636.27,-283.84 648.3,-235.86 653.09,-208.27"/>
<polygon fill="#63b8ff" stroke="#63b8ff" points="656.51,-209.08 654.59,-198.66 649.59,-208 656.51,-209.08"/>
</a>
</g>
</g>
<!-- Node118 -->
<g id="Node000118" class="node">
<title>Node118</title>
<g id="a_Node000118"><a xlink:href="get_8h.html" target="_top" xlink:title="Get a key from the user.">
<polygon fill="#fff0f0" stroke="red" points="306.38,-197 265.62,-197 265.62,-174.75 306.38,-174.75 306.38,-197"/>
<text text-anchor="middle" x="286" y="-183.5" font-family="Helvetica,sans-Serif" font-size="10.00">get.h</text>
</a>
</g>
</g>
<!-- Node1&#45;&gt;Node118 -->
<g id="edge27_Node000001_Node000118" class="edge">
<title>Node1&#45;&gt;Node118</title>
<g id="a_edge27_Node000001_Node000118"><a xlink:title=" ">
<path fill="none" stroke="#63b8ff" d="M466.73,-355C434.35,-349.4 386.19,-337.55 351,-313.5 323.76,-294.89 319.93,-284.67 305,-255.25 297.41,-240.3 292.52,-221.91 289.6,-207.97"/>
<polygon fill="#63b8ff" stroke="#63b8ff" points="293.12,-207.73 287.81,-198.56 286.24,-209.03 293.12,-207.73"/>
</a>
</g>
</g>
<!-- Node119 -->
<g id="Node000119" class="node">
<title>Node119</title>
<g id="a_Node000119"><a xlink:href="keymap_8h.html" target="_top" xlink:title="Keymap handling.">
<polygon fill="#fff0f0" stroke="red" points="397.5,-138.75 336.5,-138.75 336.5,-116.5 397.5,-116.5 397.5,-138.75"/>
<text text-anchor="middle" x="367" y="-125.25" font-family="Helvetica,sans-Serif" font-size="10.00">keymap.h</text>
</a>
</g>
</g>
<!-- Node1&#45;&gt;Node119 -->
<g id="edge41_Node000001_Node000119" class="edge">
<title>Node1&#45;&gt;Node119</title>
<g id="a_edge41_Node000001_Node000119"><a xlink:title=" ">
<path fill="none" stroke="#63b8ff" d="M495.85,-349.1C474.98,-313.4 406.67,-196.5 378.9,-148.98"/>
<polygon fill="#63b8ff" stroke="#63b8ff" points="382.02,-147.39 373.95,-140.52 375.98,-150.92 382.02,-147.39"/>
</a>
</g>
</g>
<!-- Node120 -->
<g id="Node000120" class="node">
<title>Node120</title>
<g id="a_Node000120"><a xlink:href="init_8h.html" target="_top" xlink:title="Set up the key bindings.">
<polygon fill="white" stroke="#666666" points="419.62,-313.5 380.38,-313.5 380.38,-291.25 419.62,-291.25 419.62,-313.5"/>
<text text-anchor="middle" x="400" y="-300" font-family="Helvetica,sans-Serif" font-size="10.00">init.h</text>
</a>
</g>
</g>
<!-- Node1&#45;&gt;Node120 -->
<g id="edge33_Node000001_Node000120" class="edge">
<title>Node1&#45;&gt;Node120</title>
<g id="a_edge33_Node000001_Node000120"><a xlink:title=" ">
<path fill="none" stroke="#63b8ff" d="M482.81,-349.04C467.57,-340.64 446.01,-328.75 428.71,-319.21"/>
<polygon fill="#63b8ff" stroke="#63b8ff" points="430.87,-316.4 420.42,-314.64 427.49,-322.53 430.87,-316.4"/>
</a>
</g>
</g>
<!-- Node121 -->
<g id="Node000121" class="node">
<title>Node121</title>
<g id="a_Node000121"><a xlink:href="menu_8h.html" target="_top" xlink:title="Maniplate Menus and SubMenus.">
<polygon fill="white" stroke="#666666" points="366,-255.25 314,-255.25 314,-233 366,-233 366,-255.25"/>
<text text-anchor="middle" x="340" y="-241.75" font-family="Helvetica,sans-Serif" font-size="10.00">menu.h</text>
</a>
</g>
</g>
<!-- Node1&#45;&gt;Node121 -->
<g id="edge42_Node000001_Node000121" class="edge">
<title>Node1&#45;&gt;Node121</title>
<g id="a_edge42_Node000001_Node000121"><a xlink:title=" ">
<path fill="none" stroke="#63b8ff" d="M466.65,-354.96C437.79,-349.49 397.57,-337.85 371,-313.5 357.35,-300.99 349.31,-281.32 344.85,-266.28"/>
<polygon fill="#63b8ff" stroke="#63b8ff" points="348.31,-265.68 342.39,-256.9 341.54,-267.46 348.31,-265.68"/>
</a>
</g>
</g>
<!-- Node8&#45;&gt;Node2 -->
<g id="edge8_Node000008_Node000002" class="edge">
<title>Node8&#45;&gt;Node2</title>
<g id="a_edge8_Node000008_Node000002"><a xlink:title=" ">
<path fill="none" stroke="#63b8ff" d="M400.14,-57.79C388.89,-49.78 373.19,-38.6 360.14,-29.31"/>
<polygon fill="#63b8ff" stroke="#63b8ff" points="362.2,-26.48 352.03,-23.54 358.14,-32.19 362.2,-26.48"/>
</a>
</g>
</g>
<!-- Node56&#45;&gt;Node4 -->
<g id="edge10_Node000056_Node000004" class="edge">
<title>Node56&#45;&gt;Node4</title>
<g id="a_edge10_Node000056_Node000004"><a xlink:title=" ">
<path fill="none" stroke="#63b8ff" d="M62.98,-232.64C65.78,-208.65 75.96,-149.28 110,-116.5 135.97,-91.49 175.93,-80.03 206,-74.78"/>
<polygon fill="#63b8ff" stroke="#63b8ff" points="206.16,-78.3 215.5,-73.29 205.08,-71.38 206.16,-78.3"/>
</a>
</g>
</g>
<!-- Node116&#45;&gt;Node4 -->
<g id="edge14_Node000116_Node000004" class="edge">
<title>Node116&#45;&gt;Node4</title>
<g id="a_edge14_Node000116_Node000004"><a xlink:title=" ">
<path fill="none" stroke="#63b8ff" d="M490.27,-174.35C473.13,-159.49 439.72,-132.4 407,-116.5 368.62,-97.85 321.31,-85.38 288.13,-78.15"/>
<polygon fill="#63b8ff" stroke="#63b8ff" points="289,-74.76 278.5,-76.13 287.56,-81.61 289,-74.76"/>
</a>
</g>
</g>
<!-- Node116&#45;&gt;Node5 -->
<g id="edge15_Node000116_Node000005" class="edge">
<title>Node116&#45;&gt;Node5</title>
<g id="a_edge15_Node000116_Node000005"><a xlink:title=" ">
<path fill="none" stroke="#63b8ff" d="M519.12,-174.29C532.46,-166.05 551.23,-154.44 566.51,-145"/>
<polygon fill="#63b8ff" stroke="#63b8ff" points="568.01,-148.19 574.67,-139.95 564.33,-142.23 568.01,-148.19"/>
</a>
</g>
</g>
<!-- Node116&#45;&gt;Node8 -->
<g id="edge16_Node000116_Node000008" class="edge">
<title>Node116&#45;&gt;Node8</title>
<g id="a_edge16_Node000116_Node000008"><a xlink:title=" ">
<path fill="none" stroke="#63b8ff" d="M500.39,-174.71C497.73,-160.52 491.34,-134.49 478,-116.5 469.23,-104.68 456.56,-94.58 444.89,-86.88"/>
<polygon fill="#63b8ff" stroke="#63b8ff" points="447.04,-84.1 436.7,-81.79 443.34,-90.04 447.04,-84.1"/>
</a>
</g>
</g>
<!-- Node116&#45;&gt;Node113 -->
<g id="edge17_Node000116_Node000113" class="edge">
<title>Node116&#45;&gt;Node113</title>
<g id="a_edge17_Node000116_Node000113"><a xlink:title=" ">
<path fill="none" stroke="#63b8ff" d="M475.67,-179.07C432.16,-169.47 344.79,-150.2 291.54,-138.45"/>
<polygon fill="#63b8ff" stroke="#63b8ff" points="292.39,-135.05 281.87,-136.32 290.89,-141.89 292.39,-135.05"/>
</a>
</g>
</g>
<!-- Node113&#45;&gt;Node2 -->
<g id="edge18_Node000113_Node000002" class="edge">
<title>Node113&#45;&gt;Node2</title>
<g id="a_edge18_Node000113_Node000002"><a xlink:title=" ">
<path fill="none" stroke="#63b8ff" d="M256.2,-116.18C264.24,-106.94 276.14,-93.03 286,-80.5 298.73,-64.32 312.49,-45.38 322.35,-31.55"/>
<polygon fill="#63b8ff" stroke="#63b8ff" points="324.97,-33.91 327.89,-23.72 319.26,-29.86 324.97,-33.91"/>
</a>
</g>
</g>
<!-- Node113&#45;&gt;Node4 -->
<g id="edge19_Node000113_Node000004" class="edge">
<title>Node113&#45;&gt;Node4</title>
<g id="a_edge19_Node000113_Node000004"><a xlink:title=" ">
<path fill="none" stroke="#63b8ff" d="M247,-116.04C247,-109.37 247,-100.49 247,-92.34"/>
<polygon fill="#63b8ff" stroke="#63b8ff" points="250.5,-92.42 247,-82.42 243.5,-92.42 250.5,-92.42"/>
</a>
</g>
</g>
<!-- Node113&#45;&gt;Node8 -->
<g id="edge20_Node000113_Node000008" class="edge">
<title>Node113&#45;&gt;Node8</title>
<g id="a_edge20_Node000113_Node000008"><a xlink:title=" ">
<path fill="none" stroke="#63b8ff" d="M278.6,-116.04C305.32,-107.1 343.81,-94.21 373.1,-84.41"/>
<polygon fill="#63b8ff" stroke="#63b8ff" points="374.02,-87.79 382.39,-81.29 371.8,-81.15 374.02,-87.79"/>
</a>
</g>
</g>
<!-- Node117&#45;&gt;Node2 -->
<g id="edge23_Node000117_Node000002" class="edge">
<title>Node117&#45;&gt;Node2</title>
<g id="a_edge23_Node000117_Node000002"><a xlink:title=" ">
<path fill="none" stroke="#63b8ff" d="M664.32,-174.65C674.86,-160.39 690.15,-134.27 677,-116.5 640.46,-67.1 455.59,-31.56 374.37,-18.08"/>
<polygon fill="#63b8ff" stroke="#63b8ff" points="375.09,-14.65 364.66,-16.5 373.96,-21.56 375.09,-14.65"/>
</a>
</g>
</g>
<!-- Node117&#45;&gt;Node4 -->
<g id="edge24_Node000117_Node000004" class="edge">
<title>Node117&#45;&gt;Node4</title>
<g id="a_edge24_Node000117_Node000004"><a xlink:title=" ">
<path fill="none" stroke="#63b8ff" d="M654.63,-174.31C652.03,-158.88 644.83,-130.5 626,-116.5 612.55,-106.5 383.66,-83.5 288.24,-74.29"/>
<polygon fill="#63b8ff" stroke="#63b8ff" points="288.82,-70.83 278.53,-73.36 288.15,-77.8 288.82,-70.83"/>
</a>
</g>
</g>
<!-- Node117&#45;&gt;Node5 -->
<g id="edge25_Node000117_Node000005" class="edge">
<title>Node117&#45;&gt;Node5</title>
<g id="a_edge25_Node000117_Node000005"><a xlink:title=" ">
<path fill="none" stroke="#63b8ff" d="M644.15,-174.29C635.44,-166.52 623.39,-155.76 613.17,-146.64"/>
<polygon fill="#63b8ff" stroke="#63b8ff" points="615.72,-144.22 605.93,-140.17 611.05,-149.44 615.72,-144.22"/>
</a>
</g>
</g>
<!-- Node117&#45;&gt;Node8 -->
<g id="edge26_Node000117_Node000008" class="edge">
<title>Node117&#45;&gt;Node8</title>
<g id="a_edge26_Node000117_Node000008"><a xlink:title=" ">
<path fill="none" stroke="#63b8ff" d="M660.24,-174.73C665.62,-160.08 672.65,-132.97 659,-116.5 633.88,-86.19 520.42,-75.65 457.45,-72.1"/>
<polygon fill="#63b8ff" stroke="#63b8ff" points="457.99,-68.62 447.82,-71.59 457.62,-75.61 457.99,-68.62"/>
</a>
</g>
</g>
<!-- Node118&#45;&gt;Node8 -->
<g id="edge28_Node000118_Node000008" class="edge">
<title>Node118&#45;&gt;Node8</title>
<g id="a_edge28_Node000118_Node000008"><a xlink:title=" ">
<path fill="none" stroke="#63b8ff" d="M290.29,-174.43C296.68,-159.9 309.92,-133.47 328,-116.5 341.8,-103.54 359.95,-93.17 376.09,-85.56"/>
<polygon fill="#63b8ff" stroke="#63b8ff" points="377.27,-88.87 384.96,-81.58 374.41,-82.48 377.27,-88.87"/>
</a>
</g>
</g>
<!-- Node118&#45;&gt;Node113 -->
<g id="edge29_Node000118_Node000113" class="edge">
<title>Node118&#45;&gt;Node113</title>
<g id="a_edge29_Node000118_Node000113"><a xlink:title=" ">
<path fill="none" stroke="#63b8ff" d="M278.66,-174.29C273.65,-167.07 266.86,-157.26 260.85,-148.59"/>
<polygon fill="#63b8ff" stroke="#63b8ff" points="263.74,-146.63 255.17,-140.4 257.99,-150.61 263.74,-146.63"/>
</a>
</g>
</g>
<!-- Node118&#45;&gt;Node119 -->
<g id="edge30_Node000118_Node000119" class="edge">
<title>Node118&#45;&gt;Node119</title>
<g id="a_edge30_Node000118_Node000119"><a xlink:title=" ">
<path fill="none" stroke="#63b8ff" d="M301.24,-174.29C312.89,-166.2 329.19,-154.88 342.64,-145.54"/>
<polygon fill="#63b8ff" stroke="#63b8ff" points="344.37,-148.6 350.59,-140.02 340.38,-142.85 344.37,-148.6"/>
</a>
</g>
</g>
<!-- Node119&#45;&gt;Node4 -->
<g id="edge31_Node000119_Node000004" class="edge">
<title>Node119&#45;&gt;Node4</title>
<g id="a_edge31_Node000119_Node000004"><a xlink:title=" ">
<path fill="none" stroke="#63b8ff" d="M344.43,-116.04C326.16,-107.48 300.18,-95.3 279.64,-85.68"/>
<polygon fill="#63b8ff" stroke="#63b8ff" points="281.38,-82.63 270.84,-81.55 278.41,-88.96 281.38,-82.63"/>
</a>
</g>
</g>
<!-- Node119&#45;&gt;Node8 -->
<g id="edge32_Node000119_Node000008" class="edge">
<title>Node119&#45;&gt;Node8</title>
<g id="a_edge32_Node000119_Node000008"><a xlink:title=" ">
<path fill="none" stroke="#63b8ff" d="M376.03,-116.04C382.4,-108.58 391.11,-98.37 398.68,-89.5"/>
<polygon fill="#63b8ff" stroke="#63b8ff" points="401.2,-91.94 405.03,-82.06 395.88,-87.39 401.2,-91.94"/>
</a>
</g>
</g>
<!-- Node120&#45;&gt;Node119 -->
<g id="edge34_Node000120_Node000119" class="edge">
<title>Node120&#45;&gt;Node119</title>
<g id="a_edge34_Node000120_Node000119"><a xlink:title=" ">
<path fill="none" stroke="#63b8ff" d="M397.99,-290.83C392.68,-263.05 378.24,-187.47 371.1,-150.11"/>
<polygon fill="#63b8ff" stroke="#63b8ff" points="374.59,-149.69 369.27,-140.52 367.71,-151 374.59,-149.69"/>
</a>
</g>
</g>
<!-- Node120&#45;&gt;Node121 -->
<g id="edge35_Node000120_Node000121" class="edge">
<title>Node120&#45;&gt;Node121</title>
<g id="a_edge35_Node000120_Node000121"><a xlink:title=" ">
<path fill="none" stroke="#63b8ff" d="M388.71,-290.79C380.5,-283.1 369.17,-272.47 359.51,-263.41"/>
<polygon fill="#63b8ff" stroke="#63b8ff" points="362.03,-260.98 352.34,-256.69 357.24,-266.09 362.03,-260.98"/>
</a>
</g>
</g>
<!-- Node121&#45;&gt;Node4 -->
<g id="edge36_Node000121_Node000004" class="edge">
<title>Node121&#45;&gt;Node4</title>
<g id="a_edge36_Node000121_Node000004"><a xlink:title=" ">
<path fill="none" stroke="#63b8ff" d="M313.78,-234.84C293.14,-227.37 264.54,-214.81 244,-197 220.46,-176.59 214.06,-168.56 205,-138.75 202.12,-129.29 201.43,-125.72 205,-116.5 209.13,-105.82 217.02,-96.09 224.85,-88.35"/>
<polygon fill="#63b8ff" stroke="#63b8ff" points="227,-91.13 232.03,-81.8 222.28,-85.96 227,-91.13"/>
</a>
</g>
</g>
<!-- Node121&#45;&gt;Node8 -->
<g id="edge37_Node000121_Node000008" class="edge">
<title>Node121&#45;&gt;Node8</title>
<g id="a_edge37_Node000121_Node000008"><a xlink:title=" ">
<path fill="none" stroke="#63b8ff" d="M349.02,-232.73C363.94,-214.88 393.44,-176.66 407,-138.75 412.36,-123.76 414.31,-105.85 414.95,-92.13"/>
<polygon fill="#63b8ff" stroke="#63b8ff" points="418.44,-92.5 415.18,-82.41 411.44,-92.32 418.44,-92.5"/>
</a>
</g>
</g>
<!-- Node121&#45;&gt;Node113 -->
<g id="edge38_Node000121_Node000113" class="edge">
<title>Node121&#45;&gt;Node113</title>
<g id="a_edge38_Node000121_Node000113"><a xlink:title=" ">
<path fill="none" stroke="#63b8ff" d="M313.59,-235.44C294.72,-228.52 270.4,-216.4 257,-197 247.61,-183.41 245.43,-164.66 245.42,-150.23"/>
<polygon fill="#63b8ff" stroke="#63b8ff" points="248.91,-150.54 245.78,-140.42 241.91,-150.28 248.91,-150.54"/>
</a>
</g>
</g>
<!-- Node121&#45;&gt;Node118 -->
<g id="edge39_Node000121_Node000118" class="edge">
<title>Node121&#45;&gt;Node118</title>
<g id="a_edge39_Node000121_Node000118"><a xlink:title=" ">
<path fill="none" stroke="#63b8ff" d="M329.84,-232.54C322.53,-224.92 312.46,-214.44 303.82,-205.44"/>
<polygon fill="#63b8ff" stroke="#63b8ff" points="306.61,-203.29 297.16,-198.5 301.56,-208.14 306.61,-203.29"/>
</a>
</g>
</g>
<!-- Node121&#45;&gt;Node119 -->
<g id="edge40_Node000121_Node000119" class="edge">
<title>Node121&#45;&gt;Node119</title>
<g id="a_edge40_Node000121_Node000119"><a xlink:title=" ">
<path fill="none" stroke="#63b8ff" d="M342.49,-232.56C346.89,-213.9 356.12,-174.76 361.91,-150.2"/>
<polygon fill="#63b8ff" stroke="#63b8ff" points="365.28,-151.18 364.17,-140.64 358.47,-149.57 365.28,-151.18"/>
</a>
</g>
</g>
</g>
</svg>
