<?xml version="1.0" encoding="UTF-8" standalone="no"?>
<!DOCTYPE svg PUBLIC "-//W3C//DTD SVG 1.1//EN"
 "http://www.w3.org/Graphics/SVG/1.1/DTD/svg11.dtd">
<!-- Generated by graphviz version 12.2.1 (20241206.2353)
 -->
<!-- Title: key_init Pages: 1 -->
<svg width="234pt" height="150pt"
 viewBox="0.00 0.00 234.25 150.25" xmlns="http://www.w3.org/2000/svg" xmlns:xlink="http://www.w3.org/1999/xlink">
<g id="graph0" class="graph" transform="scale(1 1) rotate(0) translate(4 146.25)">
<title>key_init</title>
<!-- Node1 -->
<g id="Node000001" class="node">
<title>Node1</title>
<g id="a_Node000001"><a xlink:title="Initialise a Module &#45; Implements Module::init()">
<polygon fill="#999999" stroke="#666666" points="50.5,-82.25 0,-82.25 0,-60 50.5,-60 50.5,-82.25"/>
<text text-anchor="middle" x="25.25" y="-68.75" font-family="Helvetica,sans-Serif" font-size="10.00">key_init</text>
</a>
</g>
</g>
<!-- Node2 -->
<g id="Node000002" class="node">
<title>Node2</title>
<g id="a_Node000002"><a xlink:href="init_8c.html#a78778df8433dcfbe6591e94b180c05c0" target="_top" xlink:title="Initialise all the menu keybindings.">
<polygon fill="#fff0f0" stroke="red" points="180.88,-142.25 131.88,-142.25 131.88,-120 180.88,-120 180.88,-142.25"/>
<text text-anchor="middle" x="156.38" y="-128.75" font-family="Helvetica,sans-Serif" font-size="10.00">km_init</text>
</a>
</g>
</g>
<!-- Node1&#45;&gt;Node2 -->
<g id="edge1_Node000001_Node000002" class="edge">
<title>Node1&#45;&gt;Node2</title>
<g id="a_edge1_Node000001_Node000002"><a xlink:title=" ">
<path fill="none" stroke="#63b8ff" d="M40.85,-82.66C52.61,-91.49 69.87,-103.41 86.5,-111.12 97.15,-116.06 109.29,-120.08 120.39,-123.18"/>
<polygon fill="#63b8ff" stroke="#63b8ff" points="119.44,-126.55 130,-125.69 121.21,-119.77 119.44,-126.55"/>
</a>
</g>
</g>
<!-- Node42 -->
<g id="Node000042" class="node">
<title>Node42</title>
<g id="a_Node000042"><a xlink:href="neomutt_8c.html#a011703fce5587658fecea69131a65630" target="_top" xlink:title="Set the private data for a Module.">
<polygon fill="white" stroke="#666666" points="226.25,-102.25 86.5,-102.25 86.5,-80 226.25,-80 226.25,-102.25"/>
<text text-anchor="middle" x="156.38" y="-88.75" font-family="Helvetica,sans-Serif" font-size="10.00">neomutt_set_module_data</text>
</a>
</g>
</g>
<!-- Node1&#45;&gt;Node42 -->
<g id="edge2_Node000001_Node000042" class="edge">
<title>Node1&#45;&gt;Node42</title>
<g id="a_edge2_Node000001_Node000042"><a xlink:title=" ">
<path fill="none" stroke="#63b8ff" d="M50.84,-74.93C58.04,-76.05 66.34,-77.33 75.05,-78.68"/>
<polygon fill="#63b8ff" stroke="#63b8ff" points="74.32,-82.11 84.74,-80.18 75.4,-75.2 74.32,-82.11"/>
</a>
</g>
</g>
<!-- Node43 -->
<g id="Node000043" class="node">
<title>Node43</title>
<g id="a_Node000043"><a xlink:href="mutt_2notify_8c.html#aab089bbeb68401c414defe73e53e4af1" target="_top" xlink:title="Create a new notifications handler.">
<polygon fill="white" stroke="#666666" points="189.5,-62.25 123.25,-62.25 123.25,-40 189.5,-40 189.5,-62.25"/>
<text text-anchor="middle" x="156.38" y="-48.75" font-family="Helvetica,sans-Serif" font-size="10.00">notify_new</text>
</a>
</g>
</g>
<!-- Node1&#45;&gt;Node43 -->
<g id="edge3_Node000001_Node000043" class="edge">
<title>Node1&#45;&gt;Node43</title>
<g id="a_edge3_Node000001_Node000043"><a xlink:title=" ">
<path fill="none" stroke="#63b8ff" d="M50.84,-67.32C68.05,-64.65 91.5,-61.02 111.83,-57.87"/>
<polygon fill="#63b8ff" stroke="#63b8ff" points="112.21,-61.35 121.56,-56.36 111.14,-54.43 112.21,-61.35"/>
</a>
</g>
</g>
<!-- Node44 -->
<g id="Node000044" class="node">
<title>Node44</title>
<g id="a_Node000044"><a xlink:href="mutt_2notify_8c.html#ae467a73cac36feec67e38b695f67d0a5" target="_top" xlink:title="Set the parent notification handler.">
<polygon fill="white" stroke="#666666" points="204.88,-22.25 107.88,-22.25 107.88,0 204.88,0 204.88,-22.25"/>
<text text-anchor="middle" x="156.38" y="-8.75" font-family="Helvetica,sans-Serif" font-size="10.00">notify_set_parent</text>
</a>
</g>
</g>
<!-- Node1&#45;&gt;Node44 -->
<g id="edge4_Node000001_Node000044" class="edge">
<title>Node1&#45;&gt;Node44</title>
<g id="a_edge4_Node000001_Node000044"><a xlink:title=" ">
<path fill="none" stroke="#63b8ff" d="M40.85,-59.59C52.61,-50.76 69.87,-38.84 86.5,-31.12 90.05,-29.48 93.77,-27.93 97.56,-26.49"/>
<polygon fill="#63b8ff" stroke="#63b8ff" points="98.66,-29.81 106.93,-23.2 96.34,-23.21 98.66,-29.81"/>
</a>
</g>
</g>
</g>
</svg>
