<?xml version="1.0" encoding="UTF-8" standalone="no"?>
<!DOCTYPE svg PUBLIC "-//W3C//DTD SVG 1.1//EN"
 "http://www.w3.org/Graphics/SVG/1.1/DTD/svg11.dtd">
<!-- Generated by graphviz version 12.2.1 (20241206.2353)
 -->
<!-- Title: key/commands.c Pages: 1 -->
<svg width="1123pt" height="380pt"
 viewBox="0.00 0.00 1122.62 379.75" xmlns="http://www.w3.org/2000/svg" xmlns:xlink="http://www.w3.org/1999/xlink">
<g id="graph0" class="graph" transform="scale(1 1) rotate(0) translate(4 375.75)">
<title>key/commands.c</title>
<!-- Node1 -->
<g id="Node000001" class="node">
<title>Node1</title>
<g id="a_Node000001"><a xlink:title="Parse key binding commands.">
<polygon fill="#999999" stroke="#666666" points="518.62,-371.75 425.38,-371.75 425.38,-349.5 518.62,-349.5 518.62,-371.75"/>
<text text-anchor="middle" x="472" y="-358.25" font-family="Helvetica,sans-Serif" font-size="10.00">key/commands.c</text>
</a>
</g>
</g>
<!-- Node2 -->
<g id="Node000002" class="node">
<title>Node2</title>
<g id="a_Node000002"><a xlink:title=" ">
<polygon fill="#e0e0e0" stroke="#999999" points="451.75,-22.25 398.25,-22.25 398.25,0 451.75,0 451.75,-22.25"/>
<text text-anchor="middle" x="425" y="-8.75" font-family="Helvetica,sans-Serif" font-size="10.00">config.h</text>
</a>
</g>
</g>
<!-- Node1&#45;&gt;Node2 -->
<g id="edge1_Node000001_Node000002" class="edge">
<title>Node1&#45;&gt;Node2</title>
<g id="a_edge1_Node000001_Node000002"><a xlink:title=" ">
<path fill="none" stroke="#63b8ff" d="M510.26,-349.17C530.91,-341.94 555.65,-330.5 573,-313.5 617.62,-269.78 634,-249.34 634,-186.88 634,-186.88 634,-186.88 634,-126.62 634,-49.63 523.56,-24.07 463.24,-15.85"/>
<polygon fill="#63b8ff" stroke="#63b8ff" points="463.75,-12.39 453.4,-14.62 462.88,-19.34 463.75,-12.39"/>
</a>
</g>
</g>
<!-- Node3 -->
<g id="Node000003" class="node">
<title>Node3</title>
<g id="a_Node000003"><a xlink:title=" ">
<polygon fill="#e0e0e0" stroke="#999999" points="455.75,-80.5 396.25,-80.5 396.25,-58.25 455.75,-58.25 455.75,-80.5"/>
<text text-anchor="middle" x="426" y="-67" font-family="Helvetica,sans-Serif" font-size="10.00">stdbool.h</text>
</a>
</g>
</g>
<!-- Node1&#45;&gt;Node3 -->
<g id="edge2_Node000001_Node000003" class="edge">
<title>Node1&#45;&gt;Node3</title>
<g id="a_edge2_Node000001_Node000003"><a xlink:title=" ">
<path fill="none" stroke="#63b8ff" d="M470.47,-349.42C465.43,-315.99 448.87,-206.71 434,-116.5 432.7,-108.6 431.21,-99.94 429.88,-92.29"/>
<polygon fill="#63b8ff" stroke="#63b8ff" points="433.33,-91.73 428.16,-82.48 426.44,-92.94 433.33,-91.73"/>
</a>
</g>
</g>
<!-- Node4 -->
<g id="Node000004" class="node">
<title>Node4</title>
<g id="a_Node000004"><a xlink:title=" ">
<polygon fill="#e0e0e0" stroke="#999999" points="890,-313.5 838,-313.5 838,-291.25 890,-291.25 890,-313.5"/>
<text text-anchor="middle" x="864" y="-300" font-family="Helvetica,sans-Serif" font-size="10.00">string.h</text>
</a>
</g>
</g>
<!-- Node1&#45;&gt;Node4 -->
<g id="edge3_Node000001_Node000004" class="edge">
<title>Node1&#45;&gt;Node4</title>
<g id="a_edge3_Node000001_Node000004"><a xlink:title=" ">
<path fill="none" stroke="#63b8ff" d="M518.97,-355.25C586.72,-348.53 715.64,-334.24 824,-313.5 824.99,-313.31 825.98,-313.11 826.99,-312.91"/>
<polygon fill="#63b8ff" stroke="#63b8ff" points="827.38,-316.41 836.37,-310.8 825.85,-309.58 827.38,-316.41"/>
</a>
</g>
</g>
<!-- Node5 -->
<g id="Node000005" class="node">
<title>Node5</title>
<g id="a_Node000005"><a xlink:href="mutt_2lib_8h.html" target="_top" xlink:title="Convenience wrapper for the library headers.">
<polygon fill="#fff0f0" stroke="red" points="247.88,-80.5 186.12,-80.5 186.12,-58.25 247.88,-58.25 247.88,-80.5"/>
<text text-anchor="middle" x="217" y="-67" font-family="Helvetica,sans-Serif" font-size="10.00">mutt/lib.h</text>
</a>
</g>
</g>
<!-- Node1&#45;&gt;Node5 -->
<g id="edge4_Node000001_Node000005" class="edge">
<title>Node1&#45;&gt;Node5</title>
<g id="a_edge4_Node000001_Node000005"><a xlink:title=" ">
<path fill="none" stroke="#63b8ff" d="M425.02,-358.17C305.63,-353.19 0,-331.98 0,-245.12 0,-245.12 0,-245.12 0,-184.88 0,-106.68 111.58,-81.75 174.72,-73.91"/>
<polygon fill="#63b8ff" stroke="#63b8ff" points="174.87,-77.41 184.41,-72.8 174.07,-70.46 174.87,-77.41"/>
</a>
</g>
</g>
<!-- Node54 -->
<g id="Node000054" class="node">
<title>Node54</title>
<g id="a_Node000054"><a xlink:href="config_2lib_8h.html" target="_top" xlink:title="Convenience wrapper for the config headers.">
<polygon fill="#fff0f0" stroke="red" points="567.88,-197 500.12,-197 500.12,-174.75 567.88,-174.75 567.88,-197"/>
<text text-anchor="middle" x="534" y="-183.5" font-family="Helvetica,sans-Serif" font-size="10.00">config/lib.h</text>
</a>
</g>
</g>
<!-- Node1&#45;&gt;Node54 -->
<g id="edge6_Node000001_Node000054" class="edge">
<title>Node1&#45;&gt;Node54</title>
<g id="a_edge6_Node000001_Node000054"><a xlink:title=" ">
<path fill="none" stroke="#63b8ff" d="M474.46,-349.31C477.76,-335.83 484.03,-311.52 491,-291.25 501.11,-261.83 515.21,-228.77 524.47,-207.89"/>
<polygon fill="#63b8ff" stroke="#63b8ff" points="527.66,-209.32 528.56,-198.76 521.28,-206.46 527.66,-209.32"/>
</a>
</g>
</g>
<!-- Node69 -->
<g id="Node000069" class="node">
<title>Node69</title>
<g id="a_Node000069"><a xlink:href="core_2lib_8h.html" target="_top" xlink:title="Convenience wrapper for the core headers.">
<polygon fill="#fff0f0" stroke="red" points="749.75,-255.25 690.25,-255.25 690.25,-233 749.75,-233 749.75,-255.25"/>
<text text-anchor="middle" x="720" y="-241.75" font-family="Helvetica,sans-Serif" font-size="10.00">core/lib.h</text>
</a>
</g>
</g>
<!-- Node1&#45;&gt;Node69 -->
<g id="edge8_Node000001_Node000069" class="edge">
<title>Node1&#45;&gt;Node69</title>
<g id="a_edge8_Node000001_Node000069"><a xlink:title=" ">
<path fill="none" stroke="#63b8ff" d="M519,-360.02C599.01,-359.57 756.39,-353.48 791,-313.5 807.74,-294.17 780.75,-274.11 755.38,-260.76"/>
<polygon fill="#63b8ff" stroke="#63b8ff" points="756.97,-257.64 746.46,-256.32 753.85,-263.91 756.97,-257.64"/>
</a>
</g>
</g>
<!-- Node80 -->
<g id="Node000080" class="node">
<title>Node80</title>
<g id="a_Node000080"><a xlink:href="gui_2lib_8h.html" target="_top" xlink:title="Convenience wrapper for the gui headers.">
<polygon fill="#fff0f0" stroke="red" points="961.75,-313.5 908.25,-313.5 908.25,-291.25 961.75,-291.25 961.75,-313.5"/>
<text text-anchor="middle" x="935" y="-300" font-family="Helvetica,sans-Serif" font-size="10.00">gui/lib.h</text>
</a>
</g>
</g>
<!-- Node1&#45;&gt;Node80 -->
<g id="edge9_Node000001_Node000080" class="edge">
<title>Node1&#45;&gt;Node80</title>
<g id="a_edge9_Node000001_Node000080"><a xlink:title=" ">
<path fill="none" stroke="#63b8ff" d="M518.82,-357.13C595.8,-352.46 753.99,-340.54 896.86,-313.63"/>
<polygon fill="#63b8ff" stroke="#63b8ff" points="897.34,-317.1 906.5,-311.78 896.02,-310.22 897.34,-317.1"/>
</a>
</g>
</g>
<!-- Node150 -->
<g id="Node000150" class="node">
<title>Node150</title>
<g id="a_Node000150"><a xlink:href="key_2commands_8h.html" target="_top" xlink:title="Parse key binding commands.">
<polygon fill="white" stroke="#666666" points="695.62,-313.5 620.38,-313.5 620.38,-291.25 695.62,-291.25 695.62,-313.5"/>
<text text-anchor="middle" x="658" y="-300" font-family="Helvetica,sans-Serif" font-size="10.00">commands.h</text>
</a>
</g>
</g>
<!-- Node1&#45;&gt;Node150 -->
<g id="edge10_Node000001_Node000150" class="edge">
<title>Node1&#45;&gt;Node150</title>
<g id="a_edge10_Node000001_Node000150"><a xlink:title=" ">
<path fill="none" stroke="#63b8ff" d="M506.99,-349.04C536.73,-340.05 579.66,-327.07 612.15,-317.24"/>
<polygon fill="#63b8ff" stroke="#63b8ff" points="613.16,-320.59 621.72,-314.35 611.14,-313.89 613.16,-320.59"/>
</a>
</g>
</g>
<!-- Node151 -->
<g id="Node000151" class="node">
<title>Node151</title>
<g id="a_Node000151"><a xlink:href="editor_2lib_8h.html" target="_top" xlink:title="Edit a string.">
<polygon fill="#fff0f0" stroke="red" points="781.88,-313.5 714.12,-313.5 714.12,-291.25 781.88,-291.25 781.88,-313.5"/>
<text text-anchor="middle" x="748" y="-300" font-family="Helvetica,sans-Serif" font-size="10.00">editor/lib.h</text>
</a>
</g>
</g>
<!-- Node1&#45;&gt;Node151 -->
<g id="edge12_Node000001_Node000151" class="edge">
<title>Node1&#45;&gt;Node151</title>
<g id="a_edge12_Node000001_Node000151"><a xlink:title=" ">
<path fill="none" stroke="#63b8ff" d="M518.96,-350.84C563.7,-342.36 633.21,-328.88 702.62,-313.96"/>
<polygon fill="#63b8ff" stroke="#63b8ff" points="703.24,-317.41 712.28,-311.87 701.76,-310.57 703.24,-317.41"/>
</a>
</g>
</g>
<!-- Node159 -->
<g id="Node000159" class="node">
<title>Node159</title>
<g id="a_Node000159"><a xlink:href="index_2lib_8h.html" target="_top" xlink:title="GUI manage the main index (list of emails)">
<polygon fill="#fff0f0" stroke="red" points="564,-313.5 500,-313.5 500,-291.25 564,-291.25 564,-313.5"/>
<text text-anchor="middle" x="532" y="-300" font-family="Helvetica,sans-Serif" font-size="10.00">index/lib.h</text>
</a>
</g>
</g>
<!-- Node1&#45;&gt;Node159 -->
<g id="edge14_Node000001_Node000159" class="edge">
<title>Node1&#45;&gt;Node159</title>
<g id="a_edge14_Node000001_Node000159"><a xlink:title=" ">
<path fill="none" stroke="#63b8ff" d="M483.29,-349.04C491.5,-341.35 502.83,-330.72 512.49,-321.66"/>
<polygon fill="#63b8ff" stroke="#63b8ff" points="514.76,-324.34 519.66,-314.94 509.97,-319.23 514.76,-324.34"/>
</a>
</g>
</g>
<!-- Node184 -->
<g id="Node000184" class="node">
<title>Node184</title>
<g id="a_Node000184"><a xlink:href="menu_2lib_8h.html" target="_top" xlink:title="GUI present the user with a selectable list.">
<polygon fill="#fff0f0" stroke="red" points="250.12,-138.75 183.88,-138.75 183.88,-116.5 250.12,-116.5 250.12,-138.75"/>
<text text-anchor="middle" x="217" y="-125.25" font-family="Helvetica,sans-Serif" font-size="10.00">menu/lib.h</text>
</a>
</g>
</g>
<!-- Node1&#45;&gt;Node184 -->
<g id="edge18_Node000001_Node000184" class="edge">
<title>Node1&#45;&gt;Node184</title>
<g id="a_edge18_Node000001_Node000184"><a xlink:title=" ">
<path fill="none" stroke="#63b8ff" d="M446.63,-349.01C428.5,-340.78 404.04,-328.29 385,-313.5 350.84,-286.97 267.92,-189.55 232.96,-147.81"/>
<polygon fill="#63b8ff" stroke="#63b8ff" points="235.78,-145.72 226.68,-140.29 230.41,-150.21 235.78,-145.72"/>
</a>
</g>
</g>
<!-- Node186 -->
<g id="Node000186" class="node">
<title>Node186</title>
<g id="a_Node000186"><a xlink:href="pager_2lib_8h.html" target="_top" xlink:title="GUI display a file/email/help in a viewport with paging.">
<polygon fill="#fff0f0" stroke="red" points="335.5,-138.75 268.5,-138.75 268.5,-116.5 335.5,-116.5 335.5,-138.75"/>
<text text-anchor="middle" x="302" y="-125.25" font-family="Helvetica,sans-Serif" font-size="10.00">pager/lib.h</text>
</a>
</g>
</g>
<!-- Node1&#45;&gt;Node186 -->
<g id="edge21_Node000001_Node000186" class="edge">
<title>Node1&#45;&gt;Node186</title>
<g id="a_edge21_Node000001_Node000186"><a xlink:title=" ">
<path fill="none" stroke="#63b8ff" d="M451.88,-349.04C437.7,-340.81 418.99,-328.32 406,-313.5 360.2,-261.26 369.87,-234.25 334,-174.75 328.62,-165.83 322.16,-156.32 316.45,-148.26"/>
<polygon fill="#63b8ff" stroke="#63b8ff" points="319.34,-146.29 310.65,-140.22 313.66,-150.38 319.34,-146.29"/>
</a>
</g>
</g>
<!-- Node188 -->
<g id="Node000188" class="node">
<title>Node188</title>
<g id="a_Node000188"><a xlink:href="parse_2lib_8h.html" target="_top" xlink:title="Text parsing functions.">
<polygon fill="#fff0f0" stroke="red" points="1045.75,-313.5 980.25,-313.5 980.25,-291.25 1045.75,-291.25 1045.75,-313.5"/>
<text text-anchor="middle" x="1013" y="-300" font-family="Helvetica,sans-Serif" font-size="10.00">parse/lib.h</text>
</a>
</g>
</g>
<!-- Node1&#45;&gt;Node188 -->
<g id="edge24_Node000001_Node000188" class="edge">
<title>Node1&#45;&gt;Node188</title>
<g id="a_edge24_Node000001_Node000188"><a xlink:title=" ">
<path fill="none" stroke="#63b8ff" d="M519.07,-357.54C606.01,-353.21 797.74,-341.36 968.84,-313.64"/>
<polygon fill="#63b8ff" stroke="#63b8ff" points="969.28,-317.11 978.58,-312.03 968.15,-310.2 969.28,-317.11"/>
</a>
</g>
</g>
<!-- Node195 -->
<g id="Node000195" class="node">
<title>Node195</title>
<g id="a_Node000195"><a xlink:href="key_2dump_8h.html" target="_top" xlink:title="Dump key bindings.">
<polygon fill="#fff0f0" stroke="red" points="406,-138.75 354,-138.75 354,-116.5 406,-116.5 406,-138.75"/>
<text text-anchor="middle" x="380" y="-125.25" font-family="Helvetica,sans-Serif" font-size="10.00">dump.h</text>
</a>
</g>
</g>
<!-- Node1&#45;&gt;Node195 -->
<g id="edge25_Node000001_Node000195" class="edge">
<title>Node1&#45;&gt;Node195</title>
<g id="a_edge25_Node000001_Node000195"><a xlink:title=" ">
<path fill="none" stroke="#63b8ff" d="M455.39,-349.13C443.7,-340.87 428.65,-328.29 420,-313.5 389.01,-260.5 381.95,-186.31 380.4,-150.15"/>
<polygon fill="#63b8ff" stroke="#63b8ff" points="383.91,-150.44 380.09,-140.55 376.91,-150.66 383.91,-150.44"/>
</a>
</g>
</g>
<!-- Node196 -->
<g id="Node000196" class="node">
<title>Node196</title>
<g id="a_Node000196"><a xlink:href="get_8h.html" target="_top" xlink:title="Get a key from the user.">
<polygon fill="#fff0f0" stroke="red" points="243.38,-197 202.62,-197 202.62,-174.75 243.38,-174.75 243.38,-197"/>
<text text-anchor="middle" x="223" y="-183.5" font-family="Helvetica,sans-Serif" font-size="10.00">get.h</text>
</a>
</g>
</g>
<!-- Node1&#45;&gt;Node196 -->
<g id="edge28_Node000001_Node000196" class="edge">
<title>Node1&#45;&gt;Node196</title>
<g id="a_edge28_Node000001_Node000196"><a xlink:title=" ">
<path fill="none" stroke="#63b8ff" d="M425.19,-355.56C389.63,-350.48 341.02,-339.08 306,-313.5 268.31,-285.98 242.98,-235.73 230.99,-207.51"/>
<polygon fill="#63b8ff" stroke="#63b8ff" points="234.38,-206.56 227.37,-198.62 227.9,-209.2 234.38,-206.56"/>
</a>
</g>
</g>
<!-- Node197 -->
<g id="Node000197" class="node">
<title>Node197</title>
<g id="a_Node000197"><a xlink:href="keymap_8h.html" target="_top" xlink:title="Keymap handling.">
<polygon fill="#fff0f0" stroke="red" points="127.5,-138.75 66.5,-138.75 66.5,-116.5 127.5,-116.5 127.5,-138.75"/>
<text text-anchor="middle" x="97" y="-125.25" font-family="Helvetica,sans-Serif" font-size="10.00">keymap.h</text>
</a>
</g>
</g>
<!-- Node1&#45;&gt;Node197 -->
<g id="edge34_Node000001_Node000197" class="edge">
<title>Node1&#45;&gt;Node197</title>
<g id="a_edge34_Node000001_Node000197"><a xlink:title=" ">
<path fill="none" stroke="#63b8ff" d="M425.03,-357.98C343.84,-354.36 181.42,-343.51 134,-313.5 80.47,-279.63 86.73,-191.32 92.97,-150.23"/>
<polygon fill="#63b8ff" stroke="#63b8ff" points="96.42,-150.83 94.63,-140.39 89.52,-149.67 96.42,-150.83"/>
</a>
</g>
</g>
<!-- Node198 -->
<g id="Node000198" class="node">
<title>Node198</title>
<g id="a_Node000198"><a xlink:href="menu_8h.html" target="_top" xlink:title="Maniplate Menus and SubMenus.">
<polygon fill="white" stroke="#666666" points="157,-255.25 105,-255.25 105,-233 157,-233 157,-255.25"/>
<text text-anchor="middle" x="131" y="-241.75" font-family="Helvetica,sans-Serif" font-size="10.00">menu.h</text>
</a>
</g>
</g>
<!-- Node1&#45;&gt;Node198 -->
<g id="edge35_Node000001_Node000198" class="edge">
<title>Node1&#45;&gt;Node198</title>
<g id="a_edge35_Node000001_Node000198"><a xlink:title=" ">
<path fill="none" stroke="#63b8ff" d="M424.94,-358.78C346.38,-356.41 193.18,-347.45 153,-313.5 139.4,-302.01 134.12,-282.06 132.12,-266.66"/>
<polygon fill="#63b8ff" stroke="#63b8ff" points="135.64,-266.69 131.25,-257.05 128.67,-267.32 135.64,-266.69"/>
</a>
</g>
</g>
<!-- Node199 -->
<g id="Node000199" class="node">
<title>Node199</title>
<g id="a_Node000199"><a xlink:href="key_2module__data_8h.html" target="_top" xlink:title="Key private Module data.">
<polygon fill="white" stroke="#666666" points="246.5,-313.5 161.5,-313.5 161.5,-291.25 246.5,-291.25 246.5,-313.5"/>
<text text-anchor="middle" x="204" y="-300" font-family="Helvetica,sans-Serif" font-size="10.00">module_data.h</text>
</a>
</g>
</g>
<!-- Node1&#45;&gt;Node199 -->
<g id="edge40_Node000001_Node000199" class="edge">
<title>Node1&#45;&gt;Node199</title>
<g id="a_edge40_Node000001_Node000199"><a xlink:title=" ">
<path fill="none" stroke="#63b8ff" d="M425.01,-349.76C378.36,-339.97 306.91,-324.97 257.95,-314.7"/>
<polygon fill="#63b8ff" stroke="#63b8ff" points="258.93,-311.33 248.43,-312.7 257.5,-318.18 258.93,-311.33"/>
</a>
</g>
</g>
<!-- Node200 -->
<g id="Node000200" class="node">
<title>Node200</title>
<g id="a_Node000200"><a xlink:href="key_2notify_8h.html" target="_top" xlink:title="Key binding notifications.">
<polygon fill="white" stroke="#666666" points="1114.62,-313.5 1063.38,-313.5 1063.38,-291.25 1114.62,-291.25 1114.62,-313.5"/>
<text text-anchor="middle" x="1089" y="-300" font-family="Helvetica,sans-Serif" font-size="10.00">notify.h</text>
</a>
</g>
</g>
<!-- Node1&#45;&gt;Node200 -->
<g id="edge44_Node000001_Node000200" class="edge">
<title>Node1&#45;&gt;Node200</title>
<g id="a_edge44_Node000001_Node000200"><a xlink:title=" ">
<path fill="none" stroke="#63b8ff" d="M518.91,-359.25C616.72,-357.75 849.5,-350.45 1052,-313.74"/>
<polygon fill="#63b8ff" stroke="#63b8ff" points="1052.46,-317.22 1061.66,-311.96 1051.19,-310.33 1052.46,-317.22"/>
</a>
</g>
</g>
<!-- Node5&#45;&gt;Node2 -->
<g id="edge5_Node000005_Node000002" class="edge">
<title>Node5&#45;&gt;Node2</title>
<g id="a_edge5_Node000005_Node000002"><a xlink:title=" ">
<path fill="none" stroke="#63b8ff" d="M248.14,-59.95C285.25,-49.92 347.23,-33.16 387.09,-22.38"/>
<polygon fill="#63b8ff" stroke="#63b8ff" points="387.76,-25.82 396.5,-19.83 385.93,-19.07 387.76,-25.82"/>
</a>
</g>
</g>
<!-- Node54&#45;&gt;Node3 -->
<g id="edge7_Node000054_Node000003" class="edge">
<title>Node54&#45;&gt;Node3</title>
<g id="a_edge7_Node000054_Node000003"><a xlink:title=" ">
<path fill="none" stroke="#63b8ff" d="M535.32,-174.48C536.59,-160.01 536.72,-133.65 524,-116.5 510.3,-98.02 487.31,-86.67 467.04,-79.85"/>
<polygon fill="#63b8ff" stroke="#63b8ff" points="468.17,-76.54 457.58,-76.96 466.12,-83.23 468.17,-76.54"/>
</a>
</g>
</g>
<!-- Node150&#45;&gt;Node69 -->
<g id="edge11_Node000150_Node000069" class="edge">
<title>Node150&#45;&gt;Node69</title>
<g id="a_edge11_Node000150_Node000069"><a xlink:title=" ">
<path fill="none" stroke="#63b8ff" d="M669.66,-290.79C678.23,-283.02 690.09,-272.26 700.15,-263.14"/>
<polygon fill="#63b8ff" stroke="#63b8ff" points="702.22,-265.99 707.27,-256.67 697.51,-260.8 702.22,-265.99"/>
</a>
</g>
</g>
<!-- Node151&#45;&gt;Node69 -->
<g id="edge13_Node000151_Node000069" class="edge">
<title>Node151&#45;&gt;Node69</title>
<g id="a_edge13_Node000151_Node000069"><a xlink:title=" ">
<path fill="none" stroke="#63b8ff" d="M742.73,-290.79C739.25,-283.8 734.57,-274.4 730.36,-265.95"/>
<polygon fill="#63b8ff" stroke="#63b8ff" points="733.51,-264.41 725.92,-257.01 727.24,-267.52 733.51,-264.41"/>
</a>
</g>
</g>
<!-- Node159&#45;&gt;Node3 -->
<g id="edge15_Node000159_Node000003" class="edge">
<title>Node159&#45;&gt;Node3</title>
<g id="a_edge15_Node000159_Node000003"><a xlink:title=" ">
<path fill="none" stroke="#63b8ff" d="M540.22,-291.04C556.22,-269.67 588.94,-218.89 577,-174.75 569.17,-145.81 565.75,-136.02 543,-116.5 521.33,-97.91 491.26,-86.27 467.03,-79.34"/>
<polygon fill="#63b8ff" stroke="#63b8ff" points="468.05,-75.99 457.48,-76.78 466.24,-82.75 468.05,-75.99"/>
</a>
</g>
</g>
<!-- Node159&#45;&gt;Node5 -->
<g id="edge16_Node000159_Node000005" class="edge">
<title>Node159&#45;&gt;Node5</title>
<g id="a_edge16_Node000159_Node000005"><a xlink:title=" ">
<path fill="none" stroke="#63b8ff" d="M528.64,-291C517.8,-259.32 480.64,-163.14 415,-116.5 368.71,-83.61 302.41,-73.84 259.52,-71.13"/>
<polygon fill="#63b8ff" stroke="#63b8ff" points="259.77,-67.63 249.6,-70.61 259.4,-74.62 259.77,-67.63"/>
</a>
</g>
</g>
<!-- Node159&#45;&gt;Node69 -->
<g id="edge17_Node000159_Node000069" class="edge">
<title>Node159&#45;&gt;Node69</title>
<g id="a_edge17_Node000159_Node000069"><a xlink:title=" ">
<path fill="none" stroke="#63b8ff" d="M564.32,-291.71C596.15,-282.18 644.87,-267.6 679.32,-257.3"/>
<polygon fill="#63b8ff" stroke="#63b8ff" points="679.94,-260.77 688.51,-254.55 677.93,-254.06 679.94,-260.77"/>
</a>
</g>
</g>
<!-- Node184&#45;&gt;Node3 -->
<g id="edge19_Node000184_Node000003" class="edge">
<title>Node184&#45;&gt;Node3</title>
<g id="a_edge19_Node000184_Node000003"><a xlink:title=" ">
<path fill="none" stroke="#63b8ff" d="M250.58,-117.59C287.13,-107.75 345.59,-92.02 384.86,-81.45"/>
<polygon fill="#63b8ff" stroke="#63b8ff" points="385.69,-84.85 394.43,-78.87 383.87,-78.09 385.69,-84.85"/>
</a>
</g>
</g>
<!-- Node184&#45;&gt;Node5 -->
<g id="edge20_Node000184_Node000005" class="edge">
<title>Node184&#45;&gt;Node5</title>
<g id="a_edge20_Node000184_Node000005"><a xlink:title=" ">
<path fill="none" stroke="#63b8ff" d="M217,-116.04C217,-109.37 217,-100.49 217,-92.34"/>
<polygon fill="#63b8ff" stroke="#63b8ff" points="220.5,-92.42 217,-82.42 213.5,-92.42 220.5,-92.42"/>
</a>
</g>
</g>
<!-- Node186&#45;&gt;Node3 -->
<g id="edge22_Node000186_Node000003" class="edge">
<title>Node186&#45;&gt;Node3</title>
<g id="a_edge22_Node000186_Node000003"><a xlink:title=" ">
<path fill="none" stroke="#63b8ff" d="M325.32,-116.04C344.29,-107.44 371.29,-95.19 392.56,-85.54"/>
<polygon fill="#63b8ff" stroke="#63b8ff" points="393.74,-88.85 401.4,-81.53 390.85,-82.48 393.74,-88.85"/>
</a>
</g>
</g>
<!-- Node186&#45;&gt;Node5 -->
<g id="edge23_Node000186_Node000005" class="edge">
<title>Node186&#45;&gt;Node5</title>
<g id="a_edge23_Node000186_Node000005"><a xlink:title=" ">
<path fill="none" stroke="#63b8ff" d="M286.01,-116.04C273.66,-107.87 256.35,-96.41 242.15,-87.02"/>
<polygon fill="#63b8ff" stroke="#63b8ff" points="244.45,-84.34 234.18,-81.74 240.59,-90.18 244.45,-84.34"/>
</a>
</g>
</g>
<!-- Node195&#45;&gt;Node3 -->
<g id="edge26_Node000195_Node000003" class="edge">
<title>Node195&#45;&gt;Node3</title>
<g id="a_edge26_Node000195_Node000003"><a xlink:title=" ">
<path fill="none" stroke="#63b8ff" d="M388.65,-116.04C394.69,-108.66 402.93,-98.59 410.13,-89.78"/>
<polygon fill="#63b8ff" stroke="#63b8ff" points="412.81,-92.04 416.43,-82.08 407.39,-87.6 412.81,-92.04"/>
</a>
</g>
</g>
<!-- Node195&#45;&gt;Node5 -->
<g id="edge27_Node000195_Node000005" class="edge">
<title>Node195&#45;&gt;Node5</title>
<g id="a_edge27_Node000195_Node000005"><a xlink:title=" ">
<path fill="none" stroke="#63b8ff" d="M353.81,-117.59C328,-108.68 288.18,-94.94 258.15,-84.57"/>
<polygon fill="#63b8ff" stroke="#63b8ff" points="259.59,-81.37 249,-81.42 257.31,-87.99 259.59,-81.37"/>
</a>
</g>
</g>
<!-- Node196&#45;&gt;Node5 -->
<g id="edge29_Node000196_Node000005" class="edge">
<title>Node196&#45;&gt;Node5</title>
<g id="a_edge29_Node000196_Node000005"><a xlink:title=" ">
<path fill="none" stroke="#63b8ff" d="M206.75,-174.56C195.5,-166.39 181.43,-153.85 175,-138.75 167.31,-120.71 180.78,-101.83 194.46,-88.49"/>
<polygon fill="#63b8ff" stroke="#63b8ff" points="196.61,-91.27 201.7,-81.98 191.93,-86.07 196.61,-91.27"/>
</a>
</g>
</g>
<!-- Node196&#45;&gt;Node184 -->
<g id="edge30_Node000196_Node000184" class="edge">
<title>Node196&#45;&gt;Node184</title>
<g id="a_edge30_Node000196_Node000184"><a xlink:title=" ">
<path fill="none" stroke="#63b8ff" d="M221.87,-174.29C221.16,-167.62 220.21,-158.74 219.34,-150.59"/>
<polygon fill="#63b8ff" stroke="#63b8ff" points="222.83,-150.24 218.28,-140.66 215.86,-150.98 222.83,-150.24"/>
</a>
</g>
</g>
<!-- Node196&#45;&gt;Node197 -->
<g id="edge31_Node000196_Node000197" class="edge">
<title>Node196&#45;&gt;Node197</title>
<g id="a_edge31_Node000196_Node000197"><a xlink:title=" ">
<path fill="none" stroke="#63b8ff" d="M202.19,-175.59C182.76,-166.91 153.42,-153.81 130.66,-143.65"/>
<polygon fill="#63b8ff" stroke="#63b8ff" points="132.35,-140.57 121.79,-139.69 129.5,-146.96 132.35,-140.57"/>
</a>
</g>
</g>
<!-- Node197&#45;&gt;Node3 -->
<g id="edge32_Node000197_Node000003" class="edge">
<title>Node197&#45;&gt;Node3</title>
<g id="a_edge32_Node000197_Node000003"><a xlink:title=" ">
<path fill="none" stroke="#63b8ff" d="M127.95,-121.33C187.41,-111.17 317.61,-88.91 384.51,-77.47"/>
<polygon fill="#63b8ff" stroke="#63b8ff" points="385.09,-80.92 394.35,-75.79 383.91,-74.02 385.09,-80.92"/>
</a>
</g>
</g>
<!-- Node197&#45;&gt;Node5 -->
<g id="edge33_Node000197_Node000005" class="edge">
<title>Node197&#45;&gt;Node5</title>
<g id="a_edge33_Node000197_Node000005"><a xlink:title=" ">
<path fill="none" stroke="#63b8ff" d="M119.57,-116.04C137.84,-107.48 163.82,-95.3 184.36,-85.68"/>
<polygon fill="#63b8ff" stroke="#63b8ff" points="185.59,-88.96 193.16,-81.55 182.62,-82.63 185.59,-88.96"/>
</a>
</g>
</g>
<!-- Node198&#45;&gt;Node3 -->
<g id="edge36_Node000198_Node000003" class="edge">
<title>Node198&#45;&gt;Node3</title>
<g id="a_edge36_Node000198_Node000003"><a xlink:title=" ">
<path fill="none" stroke="#63b8ff" d="M157.08,-241.91C213.79,-237.75 348.54,-219.43 415,-138.75 425.63,-125.84 427.96,-106.78 427.87,-92.06"/>
<polygon fill="#63b8ff" stroke="#63b8ff" points="431.38,-92.29 427.42,-82.46 424.39,-92.61 431.38,-92.29"/>
</a>
</g>
</g>
<!-- Node198&#45;&gt;Node5 -->
<g id="edge37_Node000198_Node000005" class="edge">
<title>Node198&#45;&gt;Node5</title>
<g id="a_edge37_Node000198_Node000005"><a xlink:title=" ">
<path fill="none" stroke="#63b8ff" d="M116.66,-232.77C87.53,-210.5 26.69,-156.78 57,-116.5 71.17,-97.67 132.2,-84.11 174.64,-76.75"/>
<polygon fill="#63b8ff" stroke="#63b8ff" points="175.02,-80.24 184.31,-75.14 173.87,-73.33 175.02,-80.24"/>
</a>
</g>
</g>
<!-- Node198&#45;&gt;Node196 -->
<g id="edge38_Node000198_Node000196" class="edge">
<title>Node198&#45;&gt;Node196</title>
<g id="a_edge38_Node000198_Node000196"><a xlink:title=" ">
<path fill="none" stroke="#63b8ff" d="M148.3,-232.54C161.8,-224.3 180.77,-212.69 196.22,-203.25"/>
<polygon fill="#63b8ff" stroke="#63b8ff" points="197.78,-206.4 204.48,-198.2 194.12,-200.43 197.78,-206.4"/>
</a>
</g>
</g>
<!-- Node198&#45;&gt;Node197 -->
<g id="edge39_Node000198_Node000197" class="edge">
<title>Node198&#45;&gt;Node197</title>
<g id="a_edge39_Node000198_Node000197"><a xlink:title=" ">
<path fill="none" stroke="#63b8ff" d="M127.86,-232.56C122.32,-213.9 110.7,-174.76 103.41,-150.2"/>
<polygon fill="#63b8ff" stroke="#63b8ff" points="106.76,-149.21 100.56,-140.62 100.05,-151.2 106.76,-149.21"/>
</a>
</g>
</g>
<!-- Node199&#45;&gt;Node196 -->
<g id="edge41_Node000199_Node000196" class="edge">
<title>Node199&#45;&gt;Node196</title>
<g id="a_edge41_Node000199_Node000196"><a xlink:title=" ">
<path fill="none" stroke="#63b8ff" d="M205.75,-290.81C208.85,-272.15 215.34,-233.01 219.42,-208.45"/>
<polygon fill="#63b8ff" stroke="#63b8ff" points="222.82,-209.35 221,-198.91 215.91,-208.2 222.82,-209.35"/>
</a>
</g>
</g>
<!-- Node199&#45;&gt;Node197 -->
<g id="edge42_Node000199_Node000197" class="edge">
<title>Node199&#45;&gt;Node197</title>
<g id="a_edge42_Node000199_Node000197"><a xlink:title=" ">
<path fill="none" stroke="#63b8ff" d="M198.56,-291.05C191.37,-277.55 178.2,-253.24 166,-233 150.04,-206.53 145.07,-200.52 128,-174.75 122.31,-166.15 115.96,-156.69 110.51,-148.59"/>
<polygon fill="#63b8ff" stroke="#63b8ff" points="113.53,-146.81 105.03,-140.48 107.72,-150.72 113.53,-146.81"/>
</a>
</g>
</g>
<!-- Node199&#45;&gt;Node198 -->
<g id="edge43_Node000199_Node000198" class="edge">
<title>Node199&#45;&gt;Node198</title>
<g id="a_edge43_Node000199_Node000198"><a xlink:title=" ">
<path fill="none" stroke="#63b8ff" d="M190.27,-290.79C179.97,-282.86 165.65,-271.82 153.66,-262.59"/>
<polygon fill="#63b8ff" stroke="#63b8ff" points="155.93,-259.91 145.87,-256.58 151.65,-265.46 155.93,-259.91"/>
</a>
</g>
</g>
</g>
</svg>
