<?xml version="1.0" encoding="UTF-8" standalone="no"?>
<!DOCTYPE svg PUBLIC "-//W3C//DTD SVG 1.1//EN"
 "http://www.w3.org/Graphics/SVG/1.1/DTD/svg11.dtd">
<!-- Generated by graphviz version 2.40.1 (20161225.0304)
 -->
<!-- Title: keymap.h Pages: 1 -->
<svg width="2973pt" height="196pt"
 viewBox="0.00 0.00 2972.50 196.00" xmlns="http://www.w3.org/2000/svg" xmlns:xlink="http://www.w3.org/1999/xlink">
<g id="graph0" class="graph" transform="scale(1 1) rotate(0) translate(4 192)">
<title>keymap.h</title>
<polygon fill="#ffffff" stroke="transparent" points="-4,4 -4,-192 2968.5,-192 2968.5,4 -4,4"/>
<!-- Node48 -->
<g id="node1" class="node">
<title>Node48</title>
<polygon fill="#bfbfbf" stroke="#000000" points="1575.5,-168.5 1575.5,-187.5 1640.5,-187.5 1640.5,-168.5 1575.5,-168.5"/>
<text text-anchor="middle" x="1608" y="-175.5" font-family="Helvetica,sans-Serif" font-size="10.00" fill="#000000">keymap.h</text>
</g>
<!-- Node49 -->
<g id="node2" class="node">
<title>Node49</title>
<g id="a_node2"><a xlink:href="mutt_8h.html" target="_top" xlink:title="Many unsorted constants and some structs. ">
<polygon fill="#ffffff" stroke="#ff0000" points="1285.5,-112.5 1285.5,-131.5 1334.5,-131.5 1334.5,-112.5 1285.5,-112.5"/>
<text text-anchor="middle" x="1310" y="-119.5" font-family="Helvetica,sans-Serif" font-size="10.00" fill="#000000">mutt.h</text>
</a>
</g>
</g>
<!-- Node48&#45;&gt;Node49 -->
<g id="edge1" class="edge">
<title>Node48&#45;&gt;Node49</title>
<path fill="none" stroke="#191970" d="M1565.2002,-169.9571C1501.8998,-158.0617 1385.3517,-136.1601 1334.6451,-126.6313"/>
<polygon fill="#191970" stroke="#191970" points="1564.7819,-173.4397 1575.2563,-171.8468 1566.0748,-166.5601 1564.7819,-173.4397"/>
</g>
<!-- Node50 -->
<g id="node3" class="node">
<title>Node50</title>
<g id="a_node3"><a xlink:href="curs__lib_8h.html" target="_top" xlink:title="GUI miscellaneous curses (window drawing) routines. ">
<polygon fill="#ffffff" stroke="#ff0000" points="820.5,-56.5 820.5,-75.5 901.5,-75.5 901.5,-56.5 820.5,-56.5"/>
<text text-anchor="middle" x="861" y="-63.5" font-family="Helvetica,sans-Serif" font-size="10.00" fill="#000000">gui/curs_lib.h</text>
</a>
</g>
</g>
<!-- Node48&#45;&gt;Node50 -->
<g id="edge50" class="edge">
<title>Node48&#45;&gt;Node50</title>
<path fill="none" stroke="#191970" d="M1565.4802,-173.856C1493.9632,-166.6852 1345.1392,-150.9014 1220,-132 1103.922,-114.4672 967.8514,-87.7485 901.5063,-74.3193"/>
<polygon fill="#191970" stroke="#191970" points="1565.161,-177.3414 1575.4589,-174.8508 1565.8555,-170.3759 1565.161,-177.3414"/>
</g>
<!-- Node137 -->
<g id="node4" class="node">
<title>Node137</title>
<g id="a_node4"><a xlink:href="curs__lib_8c.html" target="_top" xlink:title="GUI miscellaneous curses (window drawing) routines. ">
<polygon fill="#ffffff" stroke="#000000" points="1222,-.5 1222,-19.5 1302,-19.5 1302,-.5 1222,-.5"/>
<text text-anchor="middle" x="1262" y="-7.5" font-family="Helvetica,sans-Serif" font-size="10.00" fill="#000000">gui/curs_lib.c</text>
</a>
</g>
</g>
<!-- Node48&#45;&gt;Node137 -->
<g id="edge121" class="edge">
<title>Node48&#45;&gt;Node137</title>
<path fill="none" stroke="#191970" d="M1564.78,-175.859C1405.6994,-167.5309 859.4437,-134.8097 811,-76 753.7931,-6.552 1122.9485,-32.8642 1212,-20 1215.2418,-19.5317 1218.5909,-18.9899 1221.9487,-18.4056"/>
<polygon fill="#191970" stroke="#191970" points="1564.954,-179.3726 1575.1217,-176.3944 1565.3161,-172.382 1564.954,-179.3726"/>
</g>
<!-- Node53 -->
<g id="node5" class="node">
<title>Node53</title>
<g id="a_node5"><a xlink:href="dlgalias_8c.html" target="_top" xlink:title="Address book handling aliases. ">
<polygon fill="#ffffff" stroke="#000000" points="828.5,-.5 828.5,-19.5 917.5,-19.5 917.5,-.5 828.5,-.5"/>
<text text-anchor="middle" x="873" y="-7.5" font-family="Helvetica,sans-Serif" font-size="10.00" fill="#000000">alias/dlgalias.c</text>
</a>
</g>
</g>
<!-- Node48&#45;&gt;Node53 -->
<g id="edge79" class="edge">
<title>Node48&#45;&gt;Node53</title>
<path fill="none" stroke="#191970" d="M1565.1057,-176.7664C1402.298,-171.9298 830.1214,-153.4667 798,-132 768.1968,-112.0825 751.5489,-86.1097 771,-56 783.7546,-36.2562 807.2394,-24.8999 828.4614,-18.4131"/>
<polygon fill="#191970" stroke="#191970" points="1565.1285,-180.2685 1575.2275,-177.0652 1565.3351,-173.2715 1565.1285,-180.2685"/>
</g>
<!-- Node54 -->
<g id="node6" class="node">
<title>Node54</title>
<g id="a_node6"><a xlink:href="dlgquery_8c.html" target="_top" xlink:title="Routines for querying and external address book. ">
<polygon fill="#ffffff" stroke="#000000" points="718,-.5 718,-19.5 810,-19.5 810,-.5 718,-.5"/>
<text text-anchor="middle" x="764" y="-7.5" font-family="Helvetica,sans-Serif" font-size="10.00" fill="#000000">alias/dlgquery.c</text>
</a>
</g>
</g>
<!-- Node48&#45;&gt;Node54 -->
<g id="edge105" class="edge">
<title>Node48&#45;&gt;Node54</title>
<path fill="none" stroke="#191970" d="M1564.955,-177.0701C1398.1893,-173.2838 802.3898,-157.9804 772,-132 739.087,-103.8624 753.549,-43.0979 760.7822,-19.5733"/>
<polygon fill="#191970" stroke="#191970" points="1565.2324,-180.5771 1575.3085,-177.3028 1565.3898,-173.5789 1565.2324,-180.5771"/>
</g>
<!-- Node56 -->
<g id="node7" class="node">
<title>Node56</title>
<g id="a_node7"><a xlink:href="dlgautocrypt_8c.html" target="_top" xlink:title="Autocrypt account menu. ">
<polygon fill="#ffffff" stroke="#000000" points="936,-.5 936,-19.5 1072,-19.5 1072,-.5 936,-.5"/>
<text text-anchor="middle" x="1004" y="-7.5" font-family="Helvetica,sans-Serif" font-size="10.00" fill="#000000">autocrypt/dlgautocrypt.c</text>
</a>
</g>
</g>
<!-- Node48&#45;&gt;Node56 -->
<g id="edge106" class="edge">
<title>Node48&#45;&gt;Node56</title>
<path fill="none" stroke="#191970" d="M1564.9078,-177.2764C1412.1512,-174.4594 902.105,-162.8158 836,-132 798.6761,-114.6009 757.017,-87.9482 783,-56 792.8601,-43.8762 876.223,-29.0032 937.6698,-19.513"/>
<polygon fill="#191970" stroke="#191970" points="1565.216,-180.7824 1575.2778,-177.4641 1565.3428,-173.7836 1565.216,-180.7824"/>
</g>
<!-- Node58 -->
<g id="node8" class="node">
<title>Node58</title>
<g id="a_node8"><a xlink:href="browser_8c.html" target="_top" xlink:title="GUI component for displaying/selecting items from a list. ">
<polygon fill="#ffffff" stroke="#000000" points="452.5,-.5 452.5,-19.5 515.5,-19.5 515.5,-.5 452.5,-.5"/>
<text text-anchor="middle" x="484" y="-7.5" font-family="Helvetica,sans-Serif" font-size="10.00" fill="#000000">browser.c</text>
</a>
</g>
</g>
<!-- Node48&#45;&gt;Node58 -->
<g id="edge107" class="edge">
<title>Node48&#45;&gt;Node58</title>
<path fill="none" stroke="#191970" d="M1565.3331,-177.0742C1395.5985,-173.2267 773.3943,-157.4989 689,-132 607.7259,-107.4439 525.161,-43.9833 495.4896,-19.6729"/>
<polygon fill="#191970" stroke="#191970" points="1565.3141,-180.5746 1575.3902,-177.3002 1565.4714,-173.5763 1565.3141,-180.5746"/>
</g>
<!-- Node59 -->
<g id="node9" class="node">
<title>Node59</title>
<g id="a_node9"><a xlink:href="command__parse_8c.html" target="_top" xlink:title="Functions to parse commands in a config file. ">
<polygon fill="#ffffff" stroke="#000000" points="534,-.5 534,-19.5 640,-19.5 640,-.5 534,-.5"/>
<text text-anchor="middle" x="587" y="-7.5" font-family="Helvetica,sans-Serif" font-size="10.00" fill="#000000">command_parse.c</text>
</a>
</g>
</g>
<!-- Node48&#45;&gt;Node59 -->
<g id="edge108" class="edge">
<title>Node48&#45;&gt;Node59</title>
<path fill="none" stroke="#191970" d="M1565.0885,-177.3986C1399.1782,-174.8505 805.0599,-163.5848 727,-132 665.7345,-107.2106 612.8144,-43.8904 594.1606,-19.6451"/>
<polygon fill="#191970" stroke="#191970" points="1565.3358,-180.9026 1575.3875,-177.5539 1565.4414,-173.9034 1565.3358,-180.9026"/>
</g>
<!-- Node60 -->
<g id="node10" class="node">
<title>Node60</title>
<g id="a_node10"><a xlink:href="commands_8c.html" target="_top" xlink:title="Manage where the email is piped to external commands. ">
<polygon fill="#ffffff" stroke="#000000" points="1320.5,-.5 1320.5,-19.5 1399.5,-19.5 1399.5,-.5 1320.5,-.5"/>
<text text-anchor="middle" x="1360" y="-7.5" font-family="Helvetica,sans-Serif" font-size="10.00" fill="#000000">commands.c</text>
</a>
</g>
</g>
<!-- Node48&#45;&gt;Node60 -->
<g id="edge109" class="edge">
<title>Node48&#45;&gt;Node60</title>
<path fill="none" stroke="#191970" d="M1565.1461,-175.144C1479.9118,-169.0263 1295.6742,-153.4489 1277,-132 1264.6661,-117.8334 1271.5434,-81.3255 1289,-56 1300.5863,-39.1909 1320.5225,-27.0739 1336.3253,-19.5093"/>
<polygon fill="#191970" stroke="#191970" points="1565.0535,-178.6461 1575.2754,-175.8599 1565.547,-171.6635 1565.0535,-178.6461"/>
</g>
<!-- Node158 -->
<g id="node11" class="node">
<title>Node158</title>
<g id="a_node11"><a xlink:href="protos_8h.html" target="_top" xlink:title="Prototypes for many functions. ">
<polygon fill="#ffffff" stroke="#ff0000" points="2002,-56.5 2002,-75.5 2058,-75.5 2058,-56.5 2002,-56.5"/>
<text text-anchor="middle" x="2030" y="-63.5" font-family="Helvetica,sans-Serif" font-size="10.00" fill="#000000">protos.h</text>
</a>
</g>
</g>
<!-- Node48&#45;&gt;Node158 -->
<g id="edge110" class="edge">
<title>Node48&#45;&gt;Node158</title>
<path fill="none" stroke="#191970" d="M1650.7531,-177.349C1737.9369,-175.3036 1932.6899,-166.8516 1988,-132 2009.143,-118.6775 2021.5902,-90.4104 2026.9193,-75.564"/>
<polygon fill="#191970" stroke="#191970" points="1650.5924,-173.8516 1640.6708,-177.5681 1650.7445,-180.85 1650.5924,-173.8516"/>
</g>
<!-- Node62 -->
<g id="node12" class="node">
<title>Node62</title>
<g id="a_node12"><a xlink:href="compose_8c.html" target="_top" xlink:title="GUI editor for an email&#39;s headers. ">
<polygon fill="#ffffff" stroke="#000000" points="1641,-.5 1641,-19.5 1757,-19.5 1757,-.5 1641,-.5"/>
<text text-anchor="middle" x="1699" y="-7.5" font-family="Helvetica,sans-Serif" font-size="10.00" fill="#000000">compose/compose.c</text>
</a>
</g>
</g>
<!-- Node48&#45;&gt;Node62 -->
<g id="edge111" class="edge">
<title>Node48&#45;&gt;Node62</title>
<path fill="none" stroke="#191970" d="M1620.0581,-159.7357C1625.4275,-151.3881 1631.7172,-141.3054 1637,-132 1660.2248,-91.0905 1684.6125,-40.4818 1694.471,-19.6497"/>
<polygon fill="#191970" stroke="#191970" points="1617.0124,-157.9992 1614.4897,-168.2893 1622.8788,-161.8183 1617.0124,-157.9992"/>
</g>
<!-- Node64 -->
<g id="node13" class="node">
<title>Node64</title>
<g id="a_node13"><a xlink:href="dlgverifycert_8c.html" target="_top" xlink:title="GUI parts of Connection Library. ">
<polygon fill="#ffffff" stroke="#000000" points="1986.5,-.5 1986.5,-19.5 2099.5,-19.5 2099.5,-.5 1986.5,-.5"/>
<text text-anchor="middle" x="2043" y="-7.5" font-family="Helvetica,sans-Serif" font-size="10.00" fill="#000000">conn/dlgverifycert.c</text>
</a>
</g>
</g>
<!-- Node48&#45;&gt;Node64 -->
<g id="edge112" class="edge">
<title>Node48&#45;&gt;Node64</title>
<path fill="none" stroke="#191970" d="M1650.772,-175.4445C1753.7544,-169.0139 2009.47,-151.2911 2043,-132 2076.2666,-112.8604 2097.6635,-91.865 2084,-56 2078.3633,-41.2045 2065.5407,-28.1418 2055.7248,-19.7534"/>
<polygon fill="#191970" stroke="#191970" points="1650.482,-171.9557 1640.7173,-176.0667 1650.9144,-178.9423 1650.482,-171.9557"/>
</g>
<!-- Node72 -->
<g id="node14" class="node">
<title>Node72</title>
<g id="a_node14"><a xlink:href="enter_8c.html" target="_top" xlink:title="GUI ask the user to enter a string. ">
<polygon fill="#ffffff" stroke="#000000" points="1513,-.5 1513,-19.5 1563,-19.5 1563,-.5 1513,-.5"/>
<text text-anchor="middle" x="1538" y="-7.5" font-family="Helvetica,sans-Serif" font-size="10.00" fill="#000000">enter.c</text>
</a>
</g>
</g>
<!-- Node48&#45;&gt;Node72 -->
<g id="edge113" class="edge">
<title>Node48&#45;&gt;Node72</title>
<path fill="none" stroke="#191970" d="M1600.162,-159.1887C1585.2818,-123.4762 1553.4162,-46.9988 1542.095,-19.8279"/>
<polygon fill="#191970" stroke="#191970" points="1596.9589,-160.6016 1604.0359,-168.4862 1603.4205,-157.9093 1596.9589,-160.6016"/>
</g>
<!-- Node73 -->
<g id="node15" class="node">
<title>Node73</title>
<g id="a_node15"><a xlink:href="flags_8c.html" target="_top" xlink:title="Manipulate the flags in an email header. ">
<polygon fill="#ffffff" stroke="#000000" points="2186,-.5 2186,-19.5 2234,-19.5 2234,-.5 2186,-.5"/>
<text text-anchor="middle" x="2210" y="-7.5" font-family="Helvetica,sans-Serif" font-size="10.00" fill="#000000">flags.c</text>
</a>
</g>
</g>
<!-- Node48&#45;&gt;Node73 -->
<g id="edge114" class="edge">
<title>Node48&#45;&gt;Node73</title>
<path fill="none" stroke="#191970" d="M1650.725,-175.708C1762.2921,-169.4792 2056.5068,-151.4016 2096,-132 2149.0773,-105.9251 2189.9538,-43.9359 2204.3699,-19.8286"/>
<polygon fill="#191970" stroke="#191970" points="1650.3042,-172.2258 1640.513,-176.2734 1650.6913,-179.2151 1650.3042,-172.2258"/>
</g>
<!-- Node76 -->
<g id="node16" class="node">
<title>Node76</title>
<g id="a_node16"><a xlink:href="help_8c.html" target="_top" xlink:title="Generate the help&#45;page and GUI display it. ">
<polygon fill="#ffffff" stroke="#000000" points="184,-.5 184,-19.5 230,-19.5 230,-.5 184,-.5"/>
<text text-anchor="middle" x="207" y="-7.5" font-family="Helvetica,sans-Serif" font-size="10.00" fill="#000000">help.c</text>
</a>
</g>
</g>
<!-- Node48&#45;&gt;Node76 -->
<g id="edge123" class="edge">
<title>Node48&#45;&gt;Node76</title>
<path fill="none" stroke="#191970" d="M1565.3292,-177.0474C1376.2749,-172.7129 618.9231,-154.1072 515,-132 399.6762,-107.4676 271.5455,-43.9928 225.0704,-19.6757"/>
<polygon fill="#191970" stroke="#191970" points="1565.3569,-180.5489 1575.4341,-177.2779 1565.5165,-173.5507 1565.3569,-180.5489"/>
</g>
<!-- Node85 -->
<g id="node17" class="node">
<title>Node85</title>
<g id="a_node17"><a xlink:href="index_8c.html" target="_top" xlink:title="GUI manage the main index (list of emails) ">
<polygon fill="#ffffff" stroke="#000000" points="2252,-.5 2252,-19.5 2304,-19.5 2304,-.5 2252,-.5"/>
<text text-anchor="middle" x="2278" y="-7.5" font-family="Helvetica,sans-Serif" font-size="10.00" fill="#000000">index.c</text>
</a>
</g>
</g>
<!-- Node48&#45;&gt;Node85 -->
<g id="edge127" class="edge">
<title>Node48&#45;&gt;Node85</title>
<path fill="none" stroke="#191970" d="M1650.8172,-177.3215C1758.5386,-175.1173 2038.2999,-166.1743 2124,-132 2188.9502,-106.1001 2248.6312,-43.4479 2269.8326,-19.5129"/>
<polygon fill="#191970" stroke="#191970" points="1650.5716,-173.8255 1640.6417,-177.5199 1650.7081,-180.8242 1650.5716,-173.8255"/>
</g>
<!-- Node86 -->
<g id="node18" class="node">
<title>Node86</title>
<g id="a_node18"><a xlink:href="init_8c.html" target="_top" xlink:title="Config/command parsing. ">
<polygon fill="#ffffff" stroke="#000000" points="658.5,-.5 658.5,-19.5 699.5,-19.5 699.5,-.5 658.5,-.5"/>
<text text-anchor="middle" x="679" y="-7.5" font-family="Helvetica,sans-Serif" font-size="10.00" fill="#000000">init.c</text>
</a>
</g>
</g>
<!-- Node48&#45;&gt;Node86 -->
<g id="edge128" class="edge">
<title>Node48&#45;&gt;Node86</title>
<path fill="none" stroke="#191970" d="M1565.0838,-176.792C1396.7639,-171.9126 789.1542,-152.9153 754,-132 710.4113,-106.0664 688.6663,-43.9933 681.6309,-19.8461"/>
<polygon fill="#191970" stroke="#191970" points="1565.2005,-180.2967 1575.2972,-177.0863 1565.4022,-173.2996 1565.2005,-180.2967"/>
</g>
<!-- Node88 -->
<g id="node19" class="node">
<title>Node88</title>
<g id="a_node19"><a xlink:href="main_8c.html" target="_top" xlink:title="Command line processing. ">
<polygon fill="#ffffff" stroke="#000000" points="2118,-.5 2118,-19.5 2168,-19.5 2168,-.5 2118,-.5"/>
<text text-anchor="middle" x="2143" y="-7.5" font-family="Helvetica,sans-Serif" font-size="10.00" fill="#000000">main.c</text>
</a>
</g>
</g>
<!-- Node48&#45;&gt;Node88 -->
<g id="edge130" class="edge">
<title>Node48&#45;&gt;Node88</title>
<path fill="none" stroke="#191970" d="M1651.0019,-175.9365C1759.0949,-170.4398 2036.0396,-154.3264 2071,-132 2113.2847,-104.9961 2133.8989,-43.5585 2140.5287,-19.7136"/>
<polygon fill="#191970" stroke="#191970" points="1650.5921,-172.4525 1640.7804,-176.4501 1650.9435,-179.4437 1650.5921,-172.4525"/>
</g>
<!-- Node89 -->
<g id="node20" class="node">
<title>Node89</title>
<g id="a_node20"><a xlink:href="menu_8c.html" target="_top" xlink:title="GUI present the user with a selectable list. ">
<polygon fill="#ffffff" stroke="#000000" points="1775.5,-.5 1775.5,-19.5 1828.5,-19.5 1828.5,-.5 1775.5,-.5"/>
<text text-anchor="middle" x="1802" y="-7.5" font-family="Helvetica,sans-Serif" font-size="10.00" fill="#000000">menu.c</text>
</a>
</g>
</g>
<!-- Node48&#45;&gt;Node89 -->
<g id="edge131" class="edge">
<title>Node48&#45;&gt;Node89</title>
<path fill="none" stroke="#191970" d="M1626.6321,-161.865C1666.3759,-127.4477 1758.4673,-47.6985 1790.6511,-19.8279"/>
<polygon fill="#191970" stroke="#191970" points="1624.2544,-159.294 1618.9861,-168.4862 1628.8368,-164.5857 1624.2544,-159.294"/>
</g>
<!-- Node99 -->
<g id="node21" class="node">
<title>Node99</title>
<g id="a_node21"><a xlink:href="mx_8c.html" target="_top" xlink:title="Mailbox multiplexor. ">
<polygon fill="#ffffff" stroke="#000000" points="1581.5,-.5 1581.5,-19.5 1622.5,-19.5 1622.5,-.5 1581.5,-.5"/>
<text text-anchor="middle" x="1602" y="-7.5" font-family="Helvetica,sans-Serif" font-size="10.00" fill="#000000">mx.c</text>
</a>
</g>
</g>
<!-- Node48&#45;&gt;Node99 -->
<g id="edge133" class="edge">
<title>Node48&#45;&gt;Node99</title>
<path fill="none" stroke="#191970" d="M1615.2619,-158.7C1617.9506,-150.581 1620.6673,-140.9561 1622,-132 1626.9715,-98.5901 1628.8782,-89.0701 1622,-56 1619.2692,-42.8702 1612.5863,-28.8908 1607.6945,-19.8354"/>
<polygon fill="#191970" stroke="#191970" points="1611.8933,-157.728 1611.8624,-168.3228 1618.4936,-160.0598 1611.8933,-157.728"/>
</g>
<!-- Node102 -->
<g id="node22" class="node">
<title>Node102</title>
<g id="a_node22"><a xlink:href="dlggpgme_8c.html" target="_top" xlink:title="GPGME key selection dialog. ">
<polygon fill="#ffffff" stroke="#000000" points="2605.5,-.5 2605.5,-19.5 2712.5,-19.5 2712.5,-.5 2605.5,-.5"/>
<text text-anchor="middle" x="2659" y="-7.5" font-family="Helvetica,sans-Serif" font-size="10.00" fill="#000000">ncrypt/dlggpgme.c</text>
</a>
</g>
</g>
<!-- Node48&#45;&gt;Node102 -->
<g id="edge134" class="edge">
<title>Node48&#45;&gt;Node102</title>
<path fill="none" stroke="#191970" d="M1651.0744,-176.4673C1780.1978,-171.6526 2162.6692,-155.7273 2285,-132 2422.1137,-105.4054 2578.8261,-43.4484 2636.3294,-19.5967"/>
<polygon fill="#191970" stroke="#191970" points="1650.6605,-172.9801 1640.7965,-176.8469 1650.919,-179.9753 1650.6605,-172.9801"/>
</g>
<!-- Node104 -->
<g id="node23" class="node">
<title>Node104</title>
<g id="a_node23"><a xlink:href="dlgsmime_8c.html" target="_top" xlink:title="SMIME key selection dialog. ">
<polygon fill="#ffffff" stroke="#000000" points="2730.5,-.5 2730.5,-19.5 2837.5,-19.5 2837.5,-.5 2730.5,-.5"/>
<text text-anchor="middle" x="2784" y="-7.5" font-family="Helvetica,sans-Serif" font-size="10.00" fill="#000000">ncrypt/dlgsmime.c</text>
</a>
</g>
</g>
<!-- Node48&#45;&gt;Node104 -->
<g id="edge135" class="edge">
<title>Node48&#45;&gt;Node104</title>
<path fill="none" stroke="#191970" d="M1650.8555,-176.4643C1786.5937,-171.4182 2205.9653,-154.3817 2340,-132 2501.2454,-105.0745 2688.2042,-43.3153 2756.9003,-19.5565"/>
<polygon fill="#191970" stroke="#191970" points="1650.6984,-172.9677 1640.8343,-176.8342 1650.9566,-179.9629 1650.6984,-172.9677"/>
</g>
<!-- Node107 -->
<g id="node24" class="node">
<title>Node107</title>
<g id="a_node24"><a xlink:href="pgpkey_8c.html" target="_top" xlink:title="PGP key management routines. ">
<polygon fill="#ffffff" stroke="#000000" points="2405.5,-.5 2405.5,-19.5 2498.5,-19.5 2498.5,-.5 2405.5,-.5"/>
<text text-anchor="middle" x="2452" y="-7.5" font-family="Helvetica,sans-Serif" font-size="10.00" fill="#000000">ncrypt/pgpkey.c</text>
</a>
</g>
</g>
<!-- Node48&#45;&gt;Node107 -->
<g id="edge136" class="edge">
<title>Node48&#45;&gt;Node107</title>
<path fill="none" stroke="#191970" d="M1650.8218,-176.6332C1767.7368,-172.5839 2090.4858,-159.1988 2193,-132 2291.2456,-105.9337 2397.8033,-43.661 2436.7,-19.6608"/>
<polygon fill="#191970" stroke="#191970" points="1650.685,-173.1357 1640.8101,-176.9744 1650.9235,-180.1316 1650.685,-173.1357"/>
</g>
<!-- Node111 -->
<g id="node25" class="node">
<title>Node111</title>
<g id="a_node25"><a xlink:href="pager_8c.html" target="_top" xlink:title="GUI display a file/email/help in a viewport with paging. ">
<polygon fill="#ffffff" stroke="#000000" points="1916,-.5 1916,-19.5 1968,-19.5 1968,-.5 1916,-.5"/>
<text text-anchor="middle" x="1942" y="-7.5" font-family="Helvetica,sans-Serif" font-size="10.00" fill="#000000">pager.c</text>
</a>
</g>
</g>
<!-- Node48&#45;&gt;Node111 -->
<g id="edge137" class="edge">
<title>Node48&#45;&gt;Node111</title>
<path fill="none" stroke="#191970" d="M1650.8049,-176.6593C1741.1494,-173.2615 1948.1617,-162.3176 2011,-132 2048.7888,-113.7681 2091.0045,-90.4119 2067,-56 2061.1127,-47.5602 2002.98,-28.6179 1968.1019,-17.8584"/>
<polygon fill="#191970" stroke="#191970" points="1650.505,-173.1678 1640.6385,-177.0281 1650.7589,-180.1632 1650.505,-173.1678"/>
</g>
<!-- Node116 -->
<g id="node26" class="node">
<title>Node116</title>
<g id="a_node26"><a xlink:href="postpone_8c.html" target="_top" xlink:title="Save/restore and GUI list postponed emails. ">
<polygon fill="#ffffff" stroke="#000000" points="2517,-.5 2517,-19.5 2587,-19.5 2587,-.5 2517,-.5"/>
<text text-anchor="middle" x="2552" y="-7.5" font-family="Helvetica,sans-Serif" font-size="10.00" fill="#000000">postpone.c</text>
</a>
</g>
</g>
<!-- Node48&#45;&gt;Node116 -->
<g id="edge139" class="edge">
<title>Node48&#45;&gt;Node116</title>
<path fill="none" stroke="#191970" d="M1650.8996,-176.5053C1773.5525,-171.9711 2124.0629,-157.1232 2236,-132 2353.3428,-105.6635 2484.8601,-43.5523 2533.0264,-19.628"/>
<polygon fill="#191970" stroke="#191970" points="1650.6329,-173.0127 1640.7674,-176.8755 1650.8885,-180.008 1650.6329,-173.0127"/>
</g>
<!-- Node120 -->
<g id="node27" class="node">
<title>Node120</title>
<g id="a_node27"><a xlink:href="remailer_8c.html" target="_top" xlink:title="Support of Mixmaster anonymous remailer. ">
<polygon fill="#ffffff" stroke="#000000" points="2322.5,-.5 2322.5,-19.5 2387.5,-19.5 2387.5,-.5 2322.5,-.5"/>
<text text-anchor="middle" x="2355" y="-7.5" font-family="Helvetica,sans-Serif" font-size="10.00" fill="#000000">remailer.c</text>
</a>
</g>
</g>
<!-- Node48&#45;&gt;Node120 -->
<g id="edge141" class="edge">
<title>Node48&#45;&gt;Node120</title>
<path fill="none" stroke="#191970" d="M1650.8961,-176.9546C1762.9607,-173.818 2062.2919,-162.7275 2156,-132 2234.9394,-106.1153 2315.0613,-43.454 2343.8519,-19.5147"/>
<polygon fill="#191970" stroke="#191970" points="1650.5499,-173.4626 1640.6489,-177.2337 1650.7406,-180.46 1650.5499,-173.4626"/>
</g>
<!-- Node150 -->
<g id="node28" class="node">
<title>Node150</title>
<g id="a_node28"><a xlink:href="score_8c.html" target="_top" xlink:title="Routines for adding user scores to emails. ">
<polygon fill="#ffffff" stroke="#000000" points="1846.5,-.5 1846.5,-19.5 1897.5,-19.5 1897.5,-.5 1846.5,-.5"/>
<text text-anchor="middle" x="1872" y="-7.5" font-family="Helvetica,sans-Serif" font-size="10.00" fill="#000000">score.c</text>
</a>
</g>
</g>
<!-- Node48&#45;&gt;Node150 -->
<g id="edge142" class="edge">
<title>Node48&#45;&gt;Node150</title>
<path fill="none" stroke="#191970" d="M1650.9026,-174.6782C1698.1205,-169.8322 1775.4825,-158.3347 1837,-132 1876.8989,-114.9199 1896.9569,-114.4958 1917,-76 1928.0798,-54.7195 1903.6339,-32.06 1886.6176,-19.6037"/>
<polygon fill="#191970" stroke="#191970" points="1650.341,-171.2162 1640.7265,-175.6672 1651.0181,-178.1834 1650.341,-171.2162"/>
</g>
<!-- Node168 -->
<g id="node29" class="node">
<title>Node168</title>
<g id="a_node29"><a xlink:href="handler_8c.html" target="_top" xlink:title="Decide how to display email content. ">
<polygon fill="#ffffff" stroke="#000000" points="373.5,-.5 373.5,-19.5 434.5,-19.5 434.5,-.5 373.5,-.5"/>
<text text-anchor="middle" x="404" y="-7.5" font-family="Helvetica,sans-Serif" font-size="10.00" fill="#000000">handler.c</text>
</a>
</g>
</g>
<!-- Node48&#45;&gt;Node168 -->
<g id="edge122" class="edge">
<title>Node48&#45;&gt;Node168</title>
<path fill="none" stroke="#191970" d="M1565.3334,-177.0582C1389.7785,-173.036 728.2133,-156.3846 638,-132 547.3332,-107.4928 451.8223,-44.0028 417.3656,-19.6787"/>
<polygon fill="#191970" stroke="#191970" points="1565.3978,-180.5605 1575.4748,-177.2888 1565.557,-173.5623 1565.3978,-180.5605"/>
</g>
<!-- Node79 -->
<g id="node30" class="node">
<title>Node79</title>
<g id="a_node30"><a xlink:href="dlghistory_8c.html" target="_top" xlink:title="History selection dialog. ">
<polygon fill="#ffffff" stroke="#000000" points="2855.5,-.5 2855.5,-19.5 2964.5,-19.5 2964.5,-.5 2855.5,-.5"/>
<text text-anchor="middle" x="2910" y="-7.5" font-family="Helvetica,sans-Serif" font-size="10.00" fill="#000000">history/dlghistory.c</text>
</a>
</g>
</g>
<!-- Node48&#45;&gt;Node79 -->
<g id="edge125" class="edge">
<title>Node48&#45;&gt;Node79</title>
<path fill="none" stroke="#191970" d="M1651.042,-176.5171C1794.4282,-171.4185 2255.0822,-153.7211 2402,-132 2585.4913,-104.8717 2799.9948,-43.2337 2878.873,-19.5319"/>
<polygon fill="#191970" stroke="#191970" points="1650.7534,-173.025 1640.8832,-176.876 1651.0006,-180.0206 1650.7534,-173.025"/>
</g>
<!-- Node80 -->
<g id="node31" class="node">
<title>Node80</title>
<g id="a_node31"><a xlink:href="icommands_8c.html" target="_top" xlink:title="Information commands. ">
<polygon fill="#ffffff" stroke="#000000" points="0,-.5 0,-19.5 82,-19.5 82,-.5 0,-.5"/>
<text text-anchor="middle" x="41" y="-7.5" font-family="Helvetica,sans-Serif" font-size="10.00" fill="#000000">icommands.c</text>
</a>
</g>
</g>
<!-- Node48&#45;&gt;Node80 -->
<g id="edge126" class="edge">
<title>Node48&#45;&gt;Node80</title>
<path fill="none" stroke="#191970" d="M1565.1771,-177.914C1346.7284,-177.2952 361.7786,-172.276 232,-132 154.9633,-108.0921 78.8268,-44.2416 51.5486,-19.7501"/>
<polygon fill="#191970" stroke="#191970" points="1565.2766,-181.4141 1575.2859,-177.941 1565.2953,-174.4142 1565.2766,-181.4141"/>
</g>
<!-- Node87 -->
<g id="node32" class="node">
<title>Node87</title>
<g id="a_node32"><a xlink:href="keymap_8c.html" target="_top" xlink:title="Manage keymappings. ">
<polygon fill="#ffffff" stroke="#000000" points="100.5,-.5 100.5,-19.5 165.5,-19.5 165.5,-.5 100.5,-.5"/>
<text text-anchor="middle" x="133" y="-7.5" font-family="Helvetica,sans-Serif" font-size="10.00" fill="#000000">keymap.c</text>
</a>
</g>
</g>
<!-- Node48&#45;&gt;Node87 -->
<g id="edge129" class="edge">
<title>Node48&#45;&gt;Node87</title>
<path fill="none" stroke="#191970" d="M1565.0574,-177.7906C1351.2914,-176.5769 407.2128,-169.1386 282,-132 235.7435,-118.2801 225.7593,-107.2515 189,-76 168.6211,-58.6745 149.5079,-33.534 139.7526,-19.8223"/>
<polygon fill="#191970" stroke="#191970" points="1565.2326,-181.2915 1575.2518,-177.8469 1565.2713,-174.2917 1565.2326,-181.2915"/>
</g>
<!-- Node92 -->
<g id="node33" class="node">
<title>Node92</title>
<g id="a_node33"><a xlink:href="mutt__commands_8c.html" target="_top" xlink:title="Definitions of NeoMutt commands. ">
<polygon fill="#ffffff" stroke="#000000" points="248.5,-.5 248.5,-19.5 355.5,-19.5 355.5,-.5 248.5,-.5"/>
<text text-anchor="middle" x="302" y="-7.5" font-family="Helvetica,sans-Serif" font-size="10.00" fill="#000000">mutt_commands.c</text>
</a>
</g>
</g>
<!-- Node48&#45;&gt;Node92 -->
<g id="edge132" class="edge">
<title>Node48&#45;&gt;Node92</title>
<path fill="none" stroke="#191970" d="M1565.2464,-177.0087C1383.2316,-172.6629 677.7748,-154.5052 581,-132 475.4416,-107.4521 360.0327,-43.9866 318.2388,-19.6739"/>
<polygon fill="#191970" stroke="#191970" points="1565.1662,-180.5076 1575.2465,-177.2461 1565.3324,-173.5096 1565.1662,-180.5076"/>
</g>
<!-- Node112 -->
<g id="node34" class="node">
<title>Node112</title>
<g id="a_node34"><a xlink:href="dlgpattern_8c.html" target="_top" xlink:title="Display a guide to Patterns. ">
<polygon fill="#ffffff" stroke="#000000" points="1090.5,-.5 1090.5,-19.5 1203.5,-19.5 1203.5,-.5 1090.5,-.5"/>
<text text-anchor="middle" x="1147" y="-7.5" font-family="Helvetica,sans-Serif" font-size="10.00" fill="#000000">pattern/dlgpattern.c</text>
</a>
</g>
</g>
<!-- Node48&#45;&gt;Node112 -->
<g id="edge138" class="edge">
<title>Node48&#45;&gt;Node112</title>
<path fill="none" stroke="#191970" d="M1565.279,-177.4227C1433.7074,-175.2926 1036.0546,-166.1255 912,-132 859.1052,-117.4494 830.6722,-122.7706 802,-76 759.0983,-6.018 667.9682,-77.9303 1081,-20 1084.0987,-19.5654 1087.278,-19.1112 1090.4863,-18.6464"/>
<polygon fill="#191970" stroke="#191970" points="1565.3186,-180.9237 1575.3722,-177.5807 1565.4282,-173.9245 1565.3186,-180.9237"/>
</g>
<!-- Node118 -->
<g id="node35" class="node">
<title>Node118</title>
<g id="a_node35"><a xlink:href="recvattach_8c.html" target="_top" xlink:title="Routines for managing attachments. ">
<polygon fill="#ffffff" stroke="#000000" points="1417.5,-.5 1417.5,-19.5 1494.5,-19.5 1494.5,-.5 1417.5,-.5"/>
<text text-anchor="middle" x="1456" y="-7.5" font-family="Helvetica,sans-Serif" font-size="10.00" fill="#000000">recvattach.c</text>
</a>
</g>
</g>
<!-- Node48&#45;&gt;Node118 -->
<g id="edge140" class="edge">
<title>Node48&#45;&gt;Node118</title>
<path fill="none" stroke="#191970" d="M1592.6114,-160.9915C1561.0579,-126.1166 1489.8971,-47.4652 1464.8919,-19.8279"/>
<polygon fill="#191970" stroke="#191970" points="1590.0878,-163.4191 1599.3923,-168.4862 1595.2785,-158.7226 1590.0878,-163.4191"/>
</g>
<!-- Node170 -->
<g id="node36" class="node">
<title>Node170</title>
<g id="a_node36"><a xlink:href="mutt__globals_8h.html" target="_top" xlink:title="Hundreds of global variables to back the user variables. ">
<polygon fill="#ffffff" stroke="#ff0000" points="1338.5,-56.5 1338.5,-75.5 1427.5,-75.5 1427.5,-56.5 1338.5,-56.5"/>
<text text-anchor="middle" x="1383" y="-63.5" font-family="Helvetica,sans-Serif" font-size="10.00" fill="#000000">mutt_globals.h</text>
</a>
</g>
</g>
<!-- Node48&#45;&gt;Node170 -->
<g id="edge51" class="edge">
<title>Node48&#45;&gt;Node170</title>
<path fill="none" stroke="#191970" d="M1565.2683,-172.9621C1530.0539,-167.279 1479.9188,-155.5536 1442,-132 1418.2388,-117.2405 1398.4426,-90.1087 1388.9833,-75.6563"/>
<polygon fill="#191970" stroke="#191970" points="1564.8224,-176.4344 1575.2343,-174.474 1565.8724,-169.5136 1564.8224,-176.4344"/>
</g>
<!-- Node192 -->
<g id="node37" class="node">
<title>Node192</title>
<g id="a_node37"><a xlink:href="mutt__menu_8h.html" target="_top" xlink:title="GUI present the user with a selectable list. ">
<polygon fill="#ffffff" stroke="#ff0000" points="1826,-56.5 1826,-75.5 1908,-75.5 1908,-56.5 1826,-56.5"/>
<text text-anchor="middle" x="1867" y="-63.5" font-family="Helvetica,sans-Serif" font-size="10.00" fill="#000000">mutt_menu.h</text>
</a>
</g>
</g>
<!-- Node48&#45;&gt;Node192 -->
<g id="edge80" class="edge">
<title>Node48&#45;&gt;Node192</title>
<path fill="none" stroke="#191970" d="M1650.748,-171.6744C1702.2956,-163.481 1785.3422,-148.3045 1812,-132 1835.158,-117.8361 1853.187,-90.453 1861.675,-75.8056"/>
<polygon fill="#191970" stroke="#191970" points="1649.9102,-168.2628 1640.5714,-173.2664 1650.9922,-175.1786 1649.9102,-168.2628"/>
</g>
<!-- Node195 -->
<g id="node38" class="node">
<title>Node195</title>
<g id="a_node38"><a xlink:href="functions_8c.html" target="_top" xlink:title="Definitions of user functions. ">
<polygon fill="#ffffff" stroke="#000000" points="2722,-112.5 2722,-131.5 2792,-131.5 2792,-112.5 2722,-112.5"/>
<text text-anchor="middle" x="2757" y="-119.5" font-family="Helvetica,sans-Serif" font-size="10.00" fill="#000000">functions.c</text>
</a>
</g>
</g>
<!-- Node48&#45;&gt;Node195 -->
<g id="edge115" class="edge">
<title>Node48&#45;&gt;Node195</title>
<path fill="none" stroke="#191970" d="M1650.8659,-177.1224C1827.2778,-173.3693 2497.7824,-157.6797 2708,-132 2712.4815,-131.4526 2717.1641,-130.7149 2721.7812,-129.8869"/>
<polygon fill="#191970" stroke="#191970" points="1650.605,-173.627 1640.6812,-177.3374 1650.7529,-180.6255 1650.605,-173.627"/>
</g>
<!-- Node196 -->
<g id="node39" class="node">
<title>Node196</title>
<g id="a_node39"><a xlink:href="functions_8h.html" target="_top" xlink:title="Definitions of user functions. ">
<polygon fill="#ffffff" stroke="#000000" points="198.5,-56.5 198.5,-75.5 269.5,-75.5 269.5,-56.5 198.5,-56.5"/>
<text text-anchor="middle" x="234" y="-63.5" font-family="Helvetica,sans-Serif" font-size="10.00" fill="#000000">functions.h</text>
</a>
</g>
</g>
<!-- Node48&#45;&gt;Node196 -->
<g id="edge116" class="edge">
<title>Node48&#45;&gt;Node196</title>
<path fill="none" stroke="#191970" d="M1565.3282,-177.1913C1349.0485,-173.0015 381.8438,-153.1439 322,-132 288.8683,-120.294 257.9025,-91.3197 243.105,-75.9476"/>
<polygon fill="#191970" stroke="#191970" points="1565.2771,-180.6908 1575.3428,-177.3845 1565.4122,-173.6921 1565.2771,-180.6908"/>
</g>
<!-- Node77 -->
<g id="node40" class="node">
<title>Node77</title>
<g id="a_node40"><a xlink:href="helpbar_8c.html" target="_top" xlink:title="Help Bar. ">
<polygon fill="#ffffff" stroke="#000000" points="2810.5,-112.5 2810.5,-131.5 2911.5,-131.5 2911.5,-112.5 2810.5,-112.5"/>
<text text-anchor="middle" x="2861" y="-119.5" font-family="Helvetica,sans-Serif" font-size="10.00" fill="#000000">helpbar/helpbar.c</text>
</a>
</g>
</g>
<!-- Node48&#45;&gt;Node77 -->
<g id="edge124" class="edge">
<title>Node48&#45;&gt;Node77</title>
<path fill="none" stroke="#191970" d="M1650.7871,-177.0777C1836.1754,-172.9697 2571.0428,-155.5011 2801,-132 2804.0466,-131.6886 2807.173,-131.3195 2810.3219,-130.9097"/>
<polygon fill="#191970" stroke="#191970" points="1650.5398,-173.5822 1640.6194,-177.3018 1650.6941,-180.5805 1650.5398,-173.5822"/>
</g>
<!-- Node49&#45;&gt;Node50 -->
<g id="edge2" class="edge">
<title>Node49&#45;&gt;Node50</title>
<path fill="none" stroke="#191970" d="M1275.2387,-118.6921C1206.4601,-111.9814 1048.2199,-95.718 916,-76 911.2965,-75.2986 906.3785,-74.4993 901.5006,-73.6653"/>
<polygon fill="#191970" stroke="#191970" points="1275.2003,-122.2047 1285.4914,-119.6862 1275.8759,-115.2374 1275.2003,-122.2047"/>
</g>
<!-- Node49&#45;&gt;Node137 -->
<g id="edge33" class="edge">
<title>Node49&#45;&gt;Node137</title>
<path fill="none" stroke="#191970" d="M1284.5506,-106.4967C1274.2863,-98.7437 1263.5697,-88.3631 1258,-76 1249.7014,-57.5793 1254.704,-33.2918 1258.641,-19.9109"/>
<polygon fill="#191970" stroke="#191970" points="1282.7451,-109.5052 1292.9433,-112.377 1286.7618,-103.7723 1282.7451,-109.5052"/>
</g>
<!-- Node49&#45;&gt;Node53 -->
<g id="edge4" class="edge">
<title>Node49&#45;&gt;Node53</title>
<path fill="none" stroke="#191970" d="M1275.4546,-112.8955C1216.6225,-97.3996 1099.3384,-66.5523 1058,-56 1007.6536,-43.1483 949.4792,-28.7588 912.0142,-19.5514"/>
<polygon fill="#191970" stroke="#191970" points="1274.8288,-116.3499 1285.3905,-115.5129 1276.612,-109.5809 1274.8288,-116.3499"/>
</g>
<!-- Node49&#45;&gt;Node54 -->
<g id="edge5" class="edge">
<title>Node49&#45;&gt;Node54</title>
<path fill="none" stroke="#191970" d="M1275.2528,-119.022C1225.8545,-114.0412 1132.9977,-101.8995 1058,-76 1039.9602,-69.7702 1038.0502,-62.1998 1020,-56 934.1671,-26.5184 908.3122,-36.1174 819,-20 816.1347,-19.4829 813.1857,-18.9497 810.2119,-18.4113"/>
<polygon fill="#191970" stroke="#191970" points="1275.1095,-122.5245 1285.4005,-120.0054 1275.7847,-115.5571 1275.1095,-122.5245"/>
</g>
<!-- Node49&#45;&gt;Node56 -->
<g id="edge6" class="edge">
<title>Node49&#45;&gt;Node56</title>
<path fill="none" stroke="#191970" d="M1275.8317,-109.494C1214.2198,-86.9432 1085.7736,-39.9302 1030.3708,-19.6521"/>
<polygon fill="#191970" stroke="#191970" points="1274.8822,-112.8735 1285.476,-113.0239 1277.2883,-106.2999 1274.8822,-112.8735"/>
</g>
<!-- Node49&#45;&gt;Node58 -->
<g id="edge7" class="edge">
<title>Node49&#45;&gt;Node58</title>
<path fill="none" stroke="#191970" d="M1275.0659,-119.4209C1195.8894,-113.2839 1004.9361,-96.7616 944,-76 927.4051,-70.3459 926.6826,-61.3896 910,-56 746.4648,-3.1677 694.4885,-48.4371 525,-20 521.9652,-19.4908 518.8226,-18.8795 515.6893,-18.2134"/>
<polygon fill="#191970" stroke="#191970" points="1275.233,-122.9438 1285.471,-120.2173 1275.7673,-115.9642 1275.233,-122.9438"/>
</g>
<!-- Node49&#45;&gt;Node59 -->
<g id="edge8" class="edge">
<title>Node49&#45;&gt;Node59</title>
<path fill="none" stroke="#191970" d="M1275.2973,-121.0367C1214.4714,-118.4977 1085.255,-109.2926 982,-76 963.8356,-70.1432 962.2161,-61.6939 944,-56 817.9315,-16.5938 779.779,-38.5194 649,-20 646.0853,-19.5872 643.0957,-19.1503 640.0795,-18.6989"/>
<polygon fill="#191970" stroke="#191970" points="1275.3673,-124.5419 1285.4935,-121.4258 1275.6342,-117.547 1275.3673,-124.5419"/>
</g>
<!-- Node49&#45;&gt;Node60 -->
<g id="edge9" class="edge">
<title>Node49&#45;&gt;Node60</title>
<path fill="none" stroke="#191970" d="M1299.5809,-103.0888C1293.5214,-89.3899 1288.431,-70.7615 1296,-56 1304.6158,-39.1971 1322.5403,-27.1427 1337.234,-19.6001"/>
<polygon fill="#191970" stroke="#191970" points="1296.4426,-104.6385 1303.9972,-112.0667 1302.7238,-101.5487 1296.4426,-104.6385"/>
</g>
<!-- Node49&#45;&gt;Node158 -->
<g id="edge10" class="edge">
<title>Node49&#45;&gt;Node158</title>
<path fill="none" stroke="#191970" d="M1344.8054,-120.1438C1441.1493,-114.8663 1719.4563,-98.6783 1950,-76 1967.2729,-74.3009 1986.5822,-71.9016 2001.9026,-69.8791"/>
<polygon fill="#191970" stroke="#191970" points="1344.5446,-116.6527 1334.7496,-120.6911 1344.9251,-123.6424 1344.5446,-116.6527"/>
</g>
<!-- Node49&#45;&gt;Node62 -->
<g id="edge30" class="edge">
<title>Node49&#45;&gt;Node62</title>
<path fill="none" stroke="#191970" d="M1344.4882,-114.8436C1383.4762,-106.5177 1448.7206,-91.8711 1504,-76 1565.4917,-58.3453 1636.3279,-33.1118 1673.3772,-19.5294"/>
<polygon fill="#191970" stroke="#191970" points="1343.7476,-111.4228 1334.6909,-116.9206 1345.1994,-118.2706 1343.7476,-111.4228"/>
</g>
<!-- Node49&#45;&gt;Node72 -->
<g id="edge31" class="edge">
<title>Node49&#45;&gt;Node72</title>
<path fill="none" stroke="#191970" d="M1344.3633,-111.9359C1370.4332,-103.7379 1406.8104,-91.0763 1437,-76 1470.7316,-59.1549 1506.961,-33.3688 1525.4993,-19.543"/>
<polygon fill="#191970" stroke="#191970" points="1343.0881,-108.6665 1334.5649,-114.9598 1345.1524,-115.3552 1343.0881,-108.6665"/>
</g>
<!-- Node49&#45;&gt;Node73 -->
<g id="edge32" class="edge">
<title>Node49&#45;&gt;Node73</title>
<path fill="none" stroke="#191970" d="M1344.806,-121.5905C1474.2329,-119.804 1927.438,-111.1235 2067,-76 2116.055,-63.6543 2168.8894,-34.6847 2194.4227,-19.5652"/>
<polygon fill="#191970" stroke="#191970" points="1344.6248,-118.0925 1334.6723,-121.7253 1344.718,-125.0919 1344.6248,-118.0925"/>
</g>
<!-- Node49&#45;&gt;Node85 -->
<g id="edge37" class="edge">
<title>Node49&#45;&gt;Node85</title>
<path fill="none" stroke="#191970" d="M1344.8195,-121.4241C1478.4355,-118.9926 1958.2892,-108.1634 2107,-76 2164.5403,-63.5551 2228.2186,-34.6297 2259.1141,-19.5423"/>
<polygon fill="#191970" stroke="#191970" points="1344.6754,-117.926 1334.7392,-121.6035 1344.7999,-124.9249 1344.6754,-117.926"/>
</g>
<!-- Node49&#45;&gt;Node86 -->
<g id="edge38" class="edge">
<title>Node49&#45;&gt;Node86</title>
<path fill="none" stroke="#191970" d="M1274.9815,-120.1361C1219.5808,-116.3758 1108.8882,-105.5448 1020,-76 1001.889,-69.9802 1000.1883,-61.782 982,-56 865.3678,-18.9229 828.2597,-47.4753 709,-20 705.897,-19.2851 702.6602,-18.3809 699.5094,-17.4098"/>
<polygon fill="#191970" stroke="#191970" points="1275.0983,-123.6507 1285.3016,-120.7973 1275.5459,-116.665 1275.0983,-123.6507"/>
</g>
<!-- Node49&#45;&gt;Node89 -->
<g id="edge40" class="edge">
<title>Node49&#45;&gt;Node89</title>
<path fill="none" stroke="#191970" d="M1344.769,-115.9109C1391.0807,-107.6499 1475.4853,-92.0692 1547,-76 1645.0211,-53.9749 1668.9282,-45.8903 1766,-20 1769.0084,-19.1976 1772.1543,-18.3446 1775.2804,-17.4881"/>
<polygon fill="#191970" stroke="#191970" points="1343.8984,-112.5107 1334.6642,-117.7049 1345.1221,-119.4029 1343.8984,-112.5107"/>
</g>
<!-- Node49&#45;&gt;Node99 -->
<g id="edge42" class="edge">
<title>Node49&#45;&gt;Node99</title>
<path fill="none" stroke="#191970" d="M1344.4084,-113.8298C1376.8049,-105.7067 1426.4274,-92.1476 1468,-76 1511.5117,-59.0992 1560.0826,-33.3357 1585.0867,-19.5283"/>
<polygon fill="#191970" stroke="#191970" points="1343.3951,-110.4748 1334.5273,-116.2725 1345.0751,-117.2702 1343.3951,-110.4748"/>
</g>
<!-- Node49&#45;&gt;Node107 -->
<g id="edge43" class="edge">
<title>Node49&#45;&gt;Node107</title>
<path fill="none" stroke="#191970" d="M1345.0281,-121.1607C1488.5851,-117.5719 2032.3328,-102.4793 2202,-76 2283.8311,-63.2289 2377.5636,-34.5849 2423.5386,-19.5808"/>
<polygon fill="#191970" stroke="#191970" points="1344.5471,-117.6715 1334.6368,-121.4178 1344.7203,-124.6693 1344.5471,-117.6715"/>
</g>
<!-- Node49&#45;&gt;Node111 -->
<g id="edge44" class="edge">
<title>Node49&#45;&gt;Node111</title>
<path fill="none" stroke="#191970" d="M1344.8547,-121.5121C1467.047,-119.5107 1871.0976,-110.3317 1917,-76 1935.0541,-62.4969 1940.0705,-34.3088 1941.4641,-19.5211"/>
<polygon fill="#191970" stroke="#191970" points="1344.5223,-118.0168 1334.5788,-121.6742 1344.6328,-125.0159 1344.5223,-118.0168"/>
</g>
<!-- Node49&#45;&gt;Node116 -->
<g id="edge46" class="edge">
<title>Node49&#45;&gt;Node116</title>
<path fill="none" stroke="#191970" d="M1344.8755,-121.1297C1493.9915,-117.283 2078.6506,-100.8871 2261,-76 2355.7004,-63.0753 2465.0482,-34.4991 2518.742,-19.5448"/>
<polygon fill="#191970" stroke="#191970" points="1344.4192,-117.6402 1334.512,-121.3949 1344.5983,-124.6379 1344.4192,-117.6402"/>
</g>
<!-- Node49&#45;&gt;Node120 -->
<g id="edge48" class="edge">
<title>Node49&#45;&gt;Node120</title>
<path fill="none" stroke="#191970" d="M1344.9206,-121.2997C1483.3019,-118.3379 1993.3299,-105.6049 2152,-76 2219.396,-63.4252 2295.3968,-34.5576 2332.3695,-19.5123"/>
<polygon fill="#191970" stroke="#191970" points="1344.7987,-117.8014 1334.8747,-121.5114 1344.9462,-124.7998 1344.7987,-117.8014"/>
</g>
<!-- Node49&#45;&gt;Node150 -->
<g id="edge49" class="edge">
<title>Node49&#45;&gt;Node150</title>
<path fill="none" stroke="#191970" d="M1344.9592,-117.3768C1399.9008,-109.9124 1509.7164,-94.19 1602,-76 1707.7663,-55.1525 1733.8084,-47.6631 1838,-20 1840.7355,-19.2737 1843.5857,-18.4856 1846.4211,-17.6812"/>
<polygon fill="#191970" stroke="#191970" points="1344.1661,-113.952 1334.7239,-118.7579 1345.1022,-120.8891 1344.1661,-113.952"/>
</g>
<!-- Node49&#45;&gt;Node168 -->
<g id="edge34" class="edge">
<title>Node49&#45;&gt;Node168</title>
<path fill="none" stroke="#191970" d="M1275.158,-120.3419C1176.8838,-115.4192 898.941,-99.7372 811,-76 790.6511,-70.5074 788.2975,-61.6795 768,-56 628.0477,-16.8394 585.9627,-46.1125 443,-20 440.2496,-19.4976 437.4065,-18.9081 434.5669,-18.2709"/>
<polygon fill="#191970" stroke="#191970" points="1275.2725,-123.8517 1285.4332,-120.85 1275.6183,-116.8603 1275.2725,-123.8517"/>
</g>
<!-- Node49&#45;&gt;Node79 -->
<g id="edge35" class="edge">
<title>Node49&#45;&gt;Node79</title>
<path fill="none" stroke="#191970" d="M1344.966,-121.2052C1474.9533,-118.0834 1942.6112,-105.3625 2327,-76 2558.7722,-58.2955 2616.5854,-50.6742 2847,-20 2849.7444,-19.6346 2852.5536,-19.2453 2855.3888,-18.8401"/>
<polygon fill="#191970" stroke="#191970" points="1344.7274,-117.7098 1334.8132,-121.4459 1344.8934,-124.7078 1344.7274,-117.7098"/>
</g>
<!-- Node49&#45;&gt;Node80 -->
<g id="edge36" class="edge">
<title>Node49&#45;&gt;Node80</title>
<path fill="none" stroke="#191970" d="M1275.0847,-121.3501C1097.2933,-117.936 296.7902,-101.2662 189,-76 138.3264,-64.122 83.6016,-34.9441 57.1443,-19.6732"/>
<polygon fill="#191970" stroke="#191970" points="1275.125,-124.8514 1285.1899,-121.5427 1275.2585,-117.8527 1275.125,-124.8514"/>
</g>
<!-- Node49&#45;&gt;Node87 -->
<g id="edge39" class="edge">
<title>Node49&#45;&gt;Node87</title>
<path fill="none" stroke="#191970" d="M1275.3125,-120.0439C1152.1171,-113.0496 735.9278,-89.0067 603,-76 412.0683,-57.3178 363.6777,-54.7085 175,-20 172.0513,-19.4576 168.9986,-18.8405 165.9466,-18.1854"/>
<polygon fill="#191970" stroke="#191970" points="1275.1413,-123.5397 1285.3234,-120.6113 1275.5375,-116.5509 1275.1413,-123.5397"/>
</g>
<!-- Node49&#45;&gt;Node92 -->
<g id="edge41" class="edge">
<title>Node49&#45;&gt;Node92</title>
<path fill="none" stroke="#191970" d="M1275.3814,-119.7021C1189.3943,-113.8554 959.2255,-97.3528 768,-76 587.8473,-55.8837 543.2685,-46.8783 364,-20 361.3044,-19.5958 358.544,-19.1752 355.7571,-18.7453"/>
<polygon fill="#191970" stroke="#191970" points="1275.1616,-123.1952 1285.375,-120.3777 1275.6338,-116.2111 1275.1616,-123.1952"/>
</g>
<!-- Node49&#45;&gt;Node112 -->
<g id="edge45" class="edge">
<title>Node49&#45;&gt;Node112</title>
<path fill="none" stroke="#191970" d="M1287.7058,-106.6813C1253.5077,-83.1832 1189.1012,-38.9284 1160.8621,-19.5249"/>
<polygon fill="#191970" stroke="#191970" points="1285.8787,-109.6724 1296.1027,-112.4509 1289.8429,-103.9031 1285.8787,-109.6724"/>
</g>
<!-- Node49&#45;&gt;Node118 -->
<g id="edge47" class="edge">
<title>Node49&#45;&gt;Node118</title>
<path fill="none" stroke="#191970" d="M1311.3557,-102.1781C1313.3444,-87.6928 1318.2,-68.4777 1330,-56 1342.4805,-42.8027 1386.539,-28.6081 1419.0553,-19.5323"/>
<polygon fill="#191970" stroke="#191970" points="1307.8724,-101.8365 1310.3262,-112.1432 1314.8354,-102.5558 1307.8724,-101.8365"/>
</g>
<!-- Node50&#45;&gt;Node137 -->
<g id="edge3" class="edge">
<title>Node50&#45;&gt;Node137</title>
<path fill="none" stroke="#191970" d="M911.7369,-60.4331C980.1264,-52.6824 1105.5902,-37.5934 1212,-20 1215.2315,-19.4657 1218.5734,-18.877 1221.9263,-18.2607"/>
<polygon fill="#191970" stroke="#191970" points="911.2113,-56.9701 901.6662,-61.568 911.9953,-63.926 911.2113,-56.9701"/>
</g>
<!-- Node158&#45;&gt;Node137 -->
<g id="edge16" class="edge">
<title>Node158&#45;&gt;Node137</title>
<path fill="none" stroke="#191970" d="M1991.4915,-62.315C1969.6531,-60.2948 1941.8122,-57.8357 1917,-56 1648.3697,-36.1256 1579.1466,-54.4954 1312,-20 1308.7516,-19.5805 1305.3977,-19.0734 1302.0366,-18.5128"/>
<polygon fill="#191970" stroke="#191970" points="1991.4085,-65.8224 2001.6905,-63.2669 1992.059,-58.8527 1991.4085,-65.8224"/>
</g>
<!-- Node158&#45;&gt;Node60 -->
<g id="edge11" class="edge">
<title>Node158&#45;&gt;Node60</title>
<path fill="none" stroke="#191970" d="M1991.4832,-62.423C1969.6422,-60.437 1941.8014,-57.976 1917,-56 1691.371,-38.0231 1633.253,-50.6953 1409,-20 1405.9033,-19.5761 1402.7085,-19.0737 1399.5045,-18.5232"/>
<polygon fill="#191970" stroke="#191970" points="1991.4065,-65.9305 2001.6836,-63.3557 1992.0439,-58.9596 1991.4065,-65.9305"/>
</g>
<!-- Node158&#45;&gt;Node62 -->
<g id="edge12" class="edge">
<title>Node158&#45;&gt;Node62</title>
<path fill="none" stroke="#191970" d="M1991.9058,-59.5551C1933.7921,-49.7231 1822.6555,-30.9206 1755.2404,-19.515"/>
<polygon fill="#191970" stroke="#191970" points="1991.3354,-63.0082 2001.7791,-61.2255 1992.5031,-56.1063 1991.3354,-63.0082"/>
</g>
<!-- Node158&#45;&gt;Node64 -->
<g id="edge13" class="edge">
<title>Node158&#45;&gt;Node64</title>
<path fill="none" stroke="#191970" d="M2034.5375,-46.4538C2036.6439,-37.3803 2039.0536,-26.9998 2040.7615,-19.6427"/>
<polygon fill="#191970" stroke="#191970" points="2031.1165,-45.7131 2032.2644,-56.2455 2037.9351,-47.2961 2031.1165,-45.7131"/>
</g>
<!-- Node158&#45;&gt;Node72 -->
<g id="edge14" class="edge">
<title>Node158&#45;&gt;Node72</title>
<path fill="none" stroke="#191970" d="M1991.6057,-62.531C1889.0378,-53.2079 1613.6564,-27.7899 1573,-20 1569.7725,-19.3816 1566.4122,-18.6018 1563.106,-17.7518"/>
<polygon fill="#191970" stroke="#191970" points="1991.5523,-66.0405 2001.8278,-63.4589 1992.1851,-59.0691 1991.5523,-66.0405"/>
</g>
<!-- Node158&#45;&gt;Node73 -->
<g id="edge15" class="edge">
<title>Node158&#45;&gt;Node73</title>
<path fill="none" stroke="#191970" d="M2067.6817,-54.2768C2103.2483,-43.2116 2155.5145,-26.951 2185.8179,-17.5233"/>
<polygon fill="#191970" stroke="#191970" points="2066.6338,-50.9373 2058.125,-57.25 2068.7133,-57.6213 2066.6338,-50.9373"/>
</g>
<!-- Node158&#45;&gt;Node76 -->
<g id="edge17" class="edge">
<title>Node158&#45;&gt;Node76</title>
<path fill="none" stroke="#191970" d="M1991.5149,-61.9521C1969.6839,-59.8171 1941.8425,-57.3642 1917,-56 1544.5864,-35.5495 607.0811,-80.2197 239,-20 236.1279,-19.5301 233.1571,-18.8623 230.2355,-18.0918"/>
<polygon fill="#191970" stroke="#191970" points="1991.4118,-65.4591 2001.7097,-62.9685 1992.1063,-58.4936 1991.4118,-65.4591"/>
</g>
<!-- Node158&#45;&gt;Node85 -->
<g id="edge18" class="edge">
<title>Node158&#45;&gt;Node85</title>
<path fill="none" stroke="#191970" d="M2068.0135,-58.574C2110.7558,-50.0426 2182.1458,-35.2471 2243,-20 2245.8198,-19.2935 2248.7563,-18.518 2251.6766,-17.7211"/>
<polygon fill="#191970" stroke="#191970" points="2067.1738,-55.1723 2058.0471,-60.5533 2068.5374,-62.0382 2067.1738,-55.1723"/>
</g>
<!-- Node158&#45;&gt;Node86 -->
<g id="edge19" class="edge">
<title>Node158&#45;&gt;Node86</title>
<path fill="none" stroke="#191970" d="M1991.5104,-62.0318C1969.6779,-59.9221 1941.8366,-57.4678 1917,-56 1648.9041,-40.1561 973.4256,-66.9631 709,-20 705.9729,-19.4624 702.8347,-18.6815 699.7787,-17.7894"/>
<polygon fill="#191970" stroke="#191970" points="1991.4115,-65.5389 2001.7059,-63.034 1992.0963,-58.5725 1991.4115,-65.5389"/>
</g>
<!-- Node158&#45;&gt;Node88 -->
<g id="edge20" class="edge">
<title>Node158&#45;&gt;Node88</title>
<path fill="none" stroke="#191970" d="M2058.5792,-51.8368C2079.0058,-41.7139 2105.9362,-28.3679 2123.8281,-19.5011"/>
<polygon fill="#191970" stroke="#191970" points="2056.8313,-48.7968 2049.4254,-56.3733 2059.9396,-55.0688 2056.8313,-48.7968"/>
</g>
<!-- Node158&#45;&gt;Node89 -->
<g id="edge21" class="edge">
<title>Node158&#45;&gt;Node89</title>
<path fill="none" stroke="#191970" d="M1992.118,-57.3459C1953.3195,-48.3836 1891.31,-33.7855 1838,-20 1834.9856,-19.2205 1831.8359,-18.3817 1828.7077,-17.5334"/>
<polygon fill="#191970" stroke="#191970" points="1991.41,-60.7744 2001.9405,-59.609 1992.9816,-53.9531 1991.41,-60.7744"/>
</g>
<!-- Node158&#45;&gt;Node99 -->
<g id="edge22" class="edge">
<title>Node158&#45;&gt;Node99</title>
<path fill="none" stroke="#191970" d="M1991.76,-62.5971C1905.9231,-54.7938 1700.1193,-35.119 1632,-20 1628.9986,-19.3338 1625.8748,-18.4806 1622.8257,-17.554"/>
<polygon fill="#191970" stroke="#191970" points="1991.581,-66.0952 2001.8557,-63.5104 1992.2117,-59.1236 1991.581,-66.0952"/>
</g>
<!-- Node158&#45;&gt;Node102 -->
<g id="edge23" class="edge">
<title>Node158&#45;&gt;Node102</title>
<path fill="none" stroke="#191970" d="M2068.2039,-63.9047C2159.6071,-58.6719 2398.0296,-43.7216 2596,-20 2599.0788,-19.6311 2602.2378,-19.2232 2605.4226,-18.7894"/>
<polygon fill="#191970" stroke="#191970" points="2067.8357,-60.4199 2058.0499,-64.4805 2068.2321,-67.4087 2067.8357,-60.4199"/>
</g>
<!-- Node158&#45;&gt;Node104 -->
<g id="edge24" class="edge">
<title>Node158&#45;&gt;Node104</title>
<path fill="none" stroke="#191970" d="M2068.1904,-64.7163C2172.959,-60.9241 2473.616,-48.2239 2722,-20 2724.7083,-19.6923 2727.479,-19.3492 2730.2739,-18.9808"/>
<polygon fill="#191970" stroke="#191970" points="2067.9683,-61.2219 2058.0993,-65.0758 2068.2176,-68.2175 2067.9683,-61.2219"/>
</g>
<!-- Node158&#45;&gt;Node107 -->
<g id="edge25" class="edge">
<title>Node158&#45;&gt;Node107</title>
<path fill="none" stroke="#191970" d="M2068.2211,-61.9124C2135.0486,-54.6086 2277.4084,-38.3525 2397,-20 2399.686,-19.5878 2402.4424,-19.1462 2405.2217,-18.6864"/>
<polygon fill="#191970" stroke="#191970" points="2067.7222,-58.4459 2058.1592,-63.0067 2068.4791,-65.4049 2067.7222,-58.4459"/>
</g>
<!-- Node158&#45;&gt;Node111 -->
<g id="edge26" class="edge">
<title>Node158&#45;&gt;Node111</title>
<path fill="none" stroke="#191970" d="M2006.0655,-50.769C1990.4717,-40.8456 1970.599,-28.1994 1957.1528,-19.6427"/>
<polygon fill="#191970" stroke="#191970" points="2004.3559,-53.8296 2014.6716,-56.2455 2008.114,-47.9239 2004.3559,-53.8296"/>
</g>
<!-- Node158&#45;&gt;Node116 -->
<g id="edge27" class="edge">
<title>Node158&#45;&gt;Node116</title>
<path fill="none" stroke="#191970" d="M2068.4432,-63.9687C2149.9039,-59.2991 2345.73,-46.1384 2508,-20 2510.7842,-19.5515 2513.6555,-19.0314 2516.5343,-18.4687"/>
<polygon fill="#191970" stroke="#191970" points="2067.9633,-60.4901 2058.1759,-64.5468 2068.3569,-67.4791 2067.9633,-60.4901"/>
</g>
<!-- Node158&#45;&gt;Node120 -->
<g id="edge28" class="edge">
<title>Node158&#45;&gt;Node120</title>
<path fill="none" stroke="#191970" d="M2068.1545,-60.6966C2122.6641,-52.9163 2225.8766,-37.4286 2313,-20 2316.0869,-19.3825 2319.2915,-18.6984 2322.4919,-17.9863"/>
<polygon fill="#191970" stroke="#191970" points="2067.6487,-57.2332 2058.2395,-62.1033 2068.632,-64.1638 2067.6487,-57.2332"/>
</g>
<!-- Node158&#45;&gt;Node150 -->
<g id="edge29" class="edge">
<title>Node158&#45;&gt;Node150</title>
<path fill="none" stroke="#191970" d="M1993.3336,-53.0043C1963.9422,-42.5871 1923.4559,-28.2375 1897.5013,-19.0384"/>
<polygon fill="#191970" stroke="#191970" points="1992.2441,-56.3314 2002.8388,-56.3733 1994.5826,-49.7336 1992.2441,-56.3314"/>
</g>
<!-- Node170&#45;&gt;Node137 -->
<g id="edge62" class="edge">
<title>Node170&#45;&gt;Node137</title>
<path fill="none" stroke="#191970" d="M1352.9896,-52.1109C1331.0475,-41.9559 1301.8612,-28.4482 1282.5292,-19.5011"/>
<polygon fill="#191970" stroke="#191970" points="1351.6541,-55.3494 1362.1994,-56.3733 1354.5942,-48.9968 1351.6541,-55.3494"/>
</g>
<!-- Node170&#45;&gt;Node53 -->
<g id="edge52" class="edge">
<title>Node170&#45;&gt;Node53</title>
<path fill="none" stroke="#191970" d="M1328.1554,-61.9391C1242.3359,-55.2536 1071.1945,-40.5885 927,-20 923.9796,-19.5687 920.8706,-19.0891 917.7423,-18.5798"/>
<polygon fill="#191970" stroke="#191970" points="1327.9507,-65.4336 1338.1907,-62.7147 1328.4901,-58.4544 1327.9507,-65.4336"/>
</g>
<!-- Node170&#45;&gt;Node54 -->
<g id="edge53" class="edge">
<title>Node170&#45;&gt;Node54</title>
<path fill="none" stroke="#191970" d="M1327.9677,-63.3151C1226.8459,-57.9812 1004.7995,-44.4075 819,-20 816.1133,-19.6208 813.1478,-19.1931 810.1617,-18.7336"/>
<polygon fill="#191970" stroke="#191970" points="1328.0736,-66.8252 1338.2422,-63.8505 1328.438,-59.8347 1328.0736,-66.8252"/>
</g>
<!-- Node170&#45;&gt;Node56 -->
<g id="edge54" class="edge">
<title>Node170&#45;&gt;Node56</title>
<path fill="none" stroke="#191970" d="M1328.2071,-57.9039C1259.3558,-47.7307 1141.3822,-30.2992 1068.3228,-19.5042"/>
<polygon fill="#191970" stroke="#191970" points="1328.0052,-61.412 1338.4094,-59.4114 1329.0284,-54.4872 1328.0052,-61.412"/>
</g>
<!-- Node170&#45;&gt;Node58 -->
<g id="edge55" class="edge">
<title>Node170&#45;&gt;Node58</title>
<path fill="none" stroke="#191970" d="M1328.0569,-64.3894C1164.2492,-59.3761 680.9585,-42.9963 525,-20 521.9557,-19.5511 518.8067,-18.9804 515.6694,-18.3398"/>
<polygon fill="#191970" stroke="#191970" points="1328.276,-67.8976 1338.3778,-64.7031 1328.4888,-60.9008 1328.276,-67.8976"/>
</g>
<!-- Node170&#45;&gt;Node59 -->
<g id="edge56" class="edge">
<title>Node170&#45;&gt;Node59</title>
<path fill="none" stroke="#191970" d="M1327.9528,-64.3812C1205.5695,-60.3816 901.7602,-48.2364 649,-20 646.0744,-19.6732 643.0762,-19.3041 640.0534,-18.9052"/>
<polygon fill="#191970" stroke="#191970" points="1328.0782,-67.887 1338.1855,-64.7104 1328.3033,-60.8906 1328.0782,-67.887"/>
</g>
<!-- Node170&#45;&gt;Node60 -->
<g id="edge57" class="edge">
<title>Node170&#45;&gt;Node60</title>
<path fill="none" stroke="#191970" d="M1375.0934,-46.7493C1371.3383,-37.6064 1367.0149,-27.0798 1363.9604,-19.6427"/>
<polygon fill="#191970" stroke="#191970" points="1371.9569,-48.3251 1378.9937,-56.2455 1378.432,-45.6656 1371.9569,-48.3251"/>
</g>
<!-- Node170&#45;&gt;Node62 -->
<g id="edge58" class="edge">
<title>Node170&#45;&gt;Node62</title>
<path fill="none" stroke="#191970" d="M1437.7221,-56.3024C1495.9718,-45.9797 1587.5513,-29.7504 1645.3774,-19.5027"/>
<polygon fill="#191970" stroke="#191970" points="1436.8407,-52.904 1427.6049,-58.0953 1438.0622,-59.7966 1436.8407,-52.904"/>
</g>
<!-- Node170&#45;&gt;Node64 -->
<g id="edge59" class="edge">
<title>Node170&#45;&gt;Node64</title>
<path fill="none" stroke="#191970" d="M1437.8544,-63.0957C1542.7812,-57.2426 1779.0892,-42.6258 1977,-20 1979.9937,-19.6578 1983.06,-19.2819 1986.1535,-18.8827"/>
<polygon fill="#191970" stroke="#191970" points="1437.6069,-59.6039 1427.8156,-63.6512 1437.9937,-66.5932 1437.6069,-59.6039"/>
</g>
<!-- Node170&#45;&gt;Node72 -->
<g id="edge60" class="edge">
<title>Node170&#45;&gt;Node72</title>
<path fill="none" stroke="#191970" d="M1419.3469,-52.8682C1448.1487,-42.4624 1487.6318,-28.1975 1512.9829,-19.0384"/>
<polygon fill="#191970" stroke="#191970" points="1417.8612,-49.6835 1409.6454,-56.3733 1420.2398,-56.267 1417.8612,-49.6835"/>
</g>
<!-- Node170&#45;&gt;Node73 -->
<g id="edge61" class="edge">
<title>Node170&#45;&gt;Node73</title>
<path fill="none" stroke="#191970" d="M1437.845,-64.5095C1593.2645,-60.0179 2034.5579,-45.3396 2177,-20 2179.8291,-19.4967 2182.7574,-18.8306 2185.6483,-18.0804"/>
<polygon fill="#191970" stroke="#191970" points="1437.4874,-61.0182 1427.5916,-64.803 1437.6877,-68.0154 1437.4874,-61.0182"/>
</g>
<!-- Node170&#45;&gt;Node76 -->
<g id="edge64" class="edge">
<title>Node170&#45;&gt;Node76</title>
<path fill="none" stroke="#191970" d="M1328.305,-64.6446C1115.1788,-59.2477 346.7907,-38.6736 239,-20 236.1325,-19.5032 233.1643,-18.819 230.2443,-18.0396"/>
<polygon fill="#191970" stroke="#191970" points="1328.239,-68.144 1338.3241,-64.8975 1328.4157,-61.1462 1328.239,-68.144"/>
</g>
<!-- Node170&#45;&gt;Node85 -->
<g id="edge65" class="edge">
<title>Node170&#45;&gt;Node85</title>
<path fill="none" stroke="#191970" d="M1438.1149,-64.6715C1602.4279,-60.4547 2087.1575,-46.0891 2243,-20 2245.8671,-19.52 2248.8339,-18.8897 2251.772,-18.1785"/>
<polygon fill="#191970" stroke="#191970" points="1437.67,-61.1816 1427.7621,-64.9346 1437.8479,-68.1793 1437.67,-61.1816"/>
</g>
<!-- Node170&#45;&gt;Node86 -->
<g id="edge66" class="edge">
<title>Node170&#45;&gt;Node86</title>
<path fill="none" stroke="#191970" d="M1327.7674,-64.0351C1188.7424,-58.7998 827.0304,-43.3057 709,-20 705.9838,-19.4044 702.8516,-18.5909 699.7986,-17.6833"/>
<polygon fill="#191970" stroke="#191970" points="1328.0478,-67.5479 1338.1714,-64.4234 1328.3089,-60.5528 1328.0478,-67.5479"/>
</g>
<!-- Node170&#45;&gt;Node88 -->
<g id="edge68" class="edge">
<title>Node170&#45;&gt;Node88</title>
<path fill="none" stroke="#191970" d="M1437.8801,-64.1071C1583.9939,-58.8143 1980.1028,-42.7454 2109,-20 2111.9084,-19.4868 2114.9215,-18.8144 2117.8977,-18.0607"/>
<polygon fill="#191970" stroke="#191970" points="1437.6668,-60.6124 1427.799,-64.4695 1437.9183,-67.6079 1437.6668,-60.6124"/>
</g>
<!-- Node170&#45;&gt;Node89 -->
<g id="edge69" class="edge">
<title>Node170&#45;&gt;Node89</title>
<path fill="none" stroke="#191970" d="M1437.685,-62.0519C1512.3727,-56.0656 1650.2313,-42.8942 1766,-20 1769.0544,-19.396 1772.2291,-18.6669 1775.3715,-17.8809"/>
<polygon fill="#191970" stroke="#191970" points="1437.2683,-58.5738 1427.5744,-62.8492 1437.8186,-65.5522 1437.2683,-58.5738"/>
</g>
<!-- Node170&#45;&gt;Node99 -->
<g id="edge71" class="edge">
<title>Node170&#45;&gt;Node99</title>
<path fill="none" stroke="#191970" d="M1436.6465,-54.1926C1474.6507,-45.5244 1526.7181,-33.0331 1572,-20 1575.06,-19.1193 1578.2734,-18.1243 1581.4135,-17.1121"/>
<polygon fill="#191970" stroke="#191970" points="1435.7887,-50.7982 1426.81,-56.4225 1437.3364,-57.625 1435.7887,-50.7982"/>
</g>
<!-- Node170&#45;&gt;Node107 -->
<g id="edge72" class="edge">
<title>Node170&#45;&gt;Node107</title>
<path fill="none" stroke="#191970" d="M1437.7073,-64.4904C1620.4132,-59.2963 2208.5872,-41.3042 2397,-20 2399.7002,-19.6947 2402.4678,-19.3365 2405.2555,-18.9407"/>
<polygon fill="#191970" stroke="#191970" points="1437.4282,-60.9968 1427.5312,-64.7784 1437.6262,-67.994 1437.4282,-60.9968"/>
</g>
<!-- Node170&#45;&gt;Node111 -->
<g id="edge73" class="edge">
<title>Node170&#45;&gt;Node111</title>
<path fill="none" stroke="#191970" d="M1437.5809,-64.63C1533.3598,-61.4675 1737.6161,-51.3358 1907,-20 1909.8585,-19.4712 1912.8198,-18.8095 1915.7546,-18.0799"/>
<polygon fill="#191970" stroke="#191970" points="1437.4339,-61.1328 1427.5501,-64.9486 1437.6563,-68.1293 1437.4339,-61.1328"/>
</g>
<!-- Node170&#45;&gt;Node116 -->
<g id="edge75" class="edge">
<title>Node170&#45;&gt;Node116</title>
<path fill="none" stroke="#191970" d="M1437.7665,-64.349C1648.6274,-57.9116 2401.528,-34.1551 2508,-20 2510.7955,-19.6283 2513.6749,-19.1635 2516.5593,-18.6389"/>
<polygon fill="#191970" stroke="#191970" points="1437.4452,-60.857 1427.5565,-64.6601 1437.6585,-67.8538 1437.4452,-60.857"/>
</g>
<!-- Node170&#45;&gt;Node120 -->
<g id="edge77" class="edge">
<title>Node170&#45;&gt;Node120</title>
<path fill="none" stroke="#191970" d="M1437.8213,-64.6161C1610.5888,-60.0455 2142.3447,-44.3246 2313,-20 2315.9682,-19.5769 2319.0342,-19.0419 2322.095,-18.4403"/>
<polygon fill="#191970" stroke="#191970" points="1437.5934,-61.1208 1427.6888,-64.8822 1437.7773,-68.1183 1437.5934,-61.1208"/>
</g>
<!-- Node170&#45;&gt;Node150 -->
<g id="edge78" class="edge">
<title>Node170&#45;&gt;Node150</title>
<path fill="none" stroke="#191970" d="M1437.6899,-63.7451C1523.6168,-59.4699 1695.1819,-47.9712 1838,-20 1840.6568,-19.4797 1843.4046,-18.8428 1846.1339,-18.1448"/>
<polygon fill="#191970" stroke="#191970" points="1437.4623,-60.2519 1427.6432,-64.2313 1437.8007,-67.2437 1437.4623,-60.2519"/>
</g>
<!-- Node170&#45;&gt;Node168 -->
<g id="edge63" class="edge">
<title>Node170&#45;&gt;Node168</title>
<path fill="none" stroke="#191970" d="M1328.1717,-64.7727C1154.1275,-60.6476 615.472,-46.0578 443,-20 440.2354,-19.5823 437.3826,-19.051 434.5367,-18.4518"/>
<polygon fill="#191970" stroke="#191970" points="1328.2959,-68.2765 1338.3753,-65.0124 1328.4603,-61.2784 1328.2959,-68.2765"/>
</g>
<!-- Node170&#45;&gt;Node87 -->
<g id="edge67" class="edge">
<title>Node170&#45;&gt;Node87</title>
<path fill="none" stroke="#191970" d="M1328.2222,-64.5459C1107.5337,-58.6013 289.9462,-35.7183 175,-20 172.0294,-19.5938 168.9618,-19.0704 165.8999,-18.4763"/>
<polygon fill="#191970" stroke="#191970" points="1328.1844,-68.046 1338.2748,-64.8161 1328.3725,-61.0486 1328.1844,-68.046"/>
</g>
<!-- Node170&#45;&gt;Node92 -->
<g id="edge70" class="edge">
<title>Node170&#45;&gt;Node92</title>
<path fill="none" stroke="#191970" d="M1328.0385,-64.3529C1144.4813,-58.7209 553.5461,-39.4992 364,-20 361.2886,-19.7211 358.5154,-19.4012 355.7185,-19.0512"/>
<polygon fill="#191970" stroke="#191970" points="1328.1597,-67.8581 1338.262,-64.6654 1328.3737,-60.8614 1328.1597,-67.8581"/>
</g>
<!-- Node170&#45;&gt;Node112 -->
<g id="edge74" class="edge">
<title>Node170&#45;&gt;Node112</title>
<path fill="none" stroke="#191970" d="M1332.9026,-54.1125C1289.4516,-43.8021 1227.3802,-29.0733 1187.1355,-19.5237"/>
<polygon fill="#191970" stroke="#191970" points="1332.1604,-57.5335 1342.6983,-56.4369 1333.7766,-50.7226 1332.1604,-57.5335"/>
</g>
<!-- Node170&#45;&gt;Node118 -->
<g id="edge76" class="edge">
<title>Node170&#45;&gt;Node118</title>
<path fill="none" stroke="#191970" d="M1403.951,-49.928C1416.7107,-40.1397 1432.5885,-27.9595 1443.4301,-19.6427"/>
<polygon fill="#191970" stroke="#191970" points="1401.5196,-47.3819 1395.7156,-56.2455 1405.7803,-52.9359 1401.5196,-47.3819"/>
</g>
<!-- Node192&#45;&gt;Node137 -->
<g id="edge90" class="edge">
<title>Node192&#45;&gt;Node137</title>
<path fill="none" stroke="#191970" d="M1815.4942,-63.7077C1717.2121,-58.8965 1496.2825,-45.9778 1312,-20 1308.7567,-19.5428 1305.4064,-19.0089 1302.0478,-18.4299"/>
<polygon fill="#191970" stroke="#191970" points="1815.5845,-67.216 1825.7414,-64.2015 1815.9215,-60.2241 1815.5845,-67.216"/>
</g>
<!-- Node192&#45;&gt;Node53 -->
<g id="edge81" class="edge">
<title>Node192&#45;&gt;Node53</title>
<path fill="none" stroke="#191970" d="M1815.8115,-64.4025C1645.8927,-58.9571 1101.4623,-40.3296 927,-20 923.9695,-19.6469 920.8529,-19.2258 917.719,-18.7592"/>
<polygon fill="#191970" stroke="#191970" points="1815.8785,-67.9063 1825.985,-64.7271 1816.1017,-60.9099 1815.8785,-67.9063"/>
</g>
<!-- Node192&#45;&gt;Node54 -->
<g id="edge82" class="edge">
<title>Node192&#45;&gt;Node54</title>
<path fill="none" stroke="#191970" d="M1815.8273,-64.6772C1633.4429,-59.8186 1015.62,-42.086 819,-20 816.1066,-19.675 813.1361,-19.2888 810.1462,-18.8603"/>
<polygon fill="#191970" stroke="#191970" points="1815.8611,-68.1793 1825.9504,-64.9456 1816.0467,-61.1817 1815.8611,-68.1793"/>
</g>
<!-- Node192&#45;&gt;Node56 -->
<g id="edge83" class="edge">
<title>Node192&#45;&gt;Node56</title>
<path fill="none" stroke="#191970" d="M1815.4828,-64.2463C1689.7646,-59.6922 1357.3217,-45.9959 1081,-20 1078.1816,-19.7348 1075.3074,-19.4459 1072.4056,-19.1389"/>
<polygon fill="#191970" stroke="#191970" points="1815.4705,-67.748 1825.5896,-64.6088 1815.7215,-60.7525 1815.4705,-67.748"/>
</g>
<!-- Node192&#45;&gt;Node58 -->
<g id="edge84" class="edge">
<title>Node192&#45;&gt;Node58</title>
<path fill="none" stroke="#191970" d="M1815.5723,-64.8616C1585.2699,-59.6789 654.3627,-37.8011 525,-20 521.9515,-19.5805 518.7997,-19.0295 515.6606,-18.4014"/>
<polygon fill="#191970" stroke="#191970" points="1815.6131,-68.3633 1825.6892,-65.0886 1815.7703,-61.365 1815.6131,-68.3633"/>
</g>
<!-- Node192&#45;&gt;Node59 -->
<g id="edge85" class="edge">
<title>Node192&#45;&gt;Node59</title>
<path fill="none" stroke="#191970" d="M1815.4287,-64.8932C1614.0876,-60.4417 880.6999,-42.974 649,-20 646.0706,-19.7095 643.0694,-19.3691 640.0442,-18.9925"/>
<polygon fill="#191970" stroke="#191970" points="1815.6447,-68.3987 1825.7193,-65.1196 1815.7988,-61.4004 1815.6447,-68.3987"/>
</g>
<!-- Node192&#45;&gt;Node60 -->
<g id="edge86" class="edge">
<title>Node192&#45;&gt;Node60</title>
<path fill="none" stroke="#191970" d="M1815.6192,-62.5443C1730.6748,-56.4498 1555.7595,-42.287 1409,-20 1405.9098,-19.5307 1402.7197,-18.9957 1399.519,-18.4226"/>
<polygon fill="#191970" stroke="#191970" points="1815.5472,-66.0479 1825.77,-63.2648 1816.0429,-59.0655 1815.5472,-66.0479"/>
</g>
<!-- Node192&#45;&gt;Node62 -->
<g id="edge87" class="edge">
<title>Node192&#45;&gt;Node62</title>
<path fill="none" stroke="#191970" d="M1828.5714,-53.1905C1797.7927,-42.9309 1755.3074,-28.7691 1727.5034,-19.5011"/>
<polygon fill="#191970" stroke="#191970" points="1827.5261,-56.5313 1838.1198,-56.3733 1829.7398,-49.8905 1827.5261,-56.5313"/>
</g>
<!-- Node192&#45;&gt;Node64 -->
<g id="edge88" class="edge">
<title>Node192&#45;&gt;Node64</title>
<path fill="none" stroke="#191970" d="M1906.8404,-53.3235C1939.1173,-43.0536 1983.8852,-28.8093 2013.1393,-19.5011"/>
<polygon fill="#191970" stroke="#191970" points="1905.7235,-50.0059 1897.2555,-56.3733 1907.846,-56.6764 1905.7235,-50.0059"/>
</g>
<!-- Node192&#45;&gt;Node73 -->
<g id="edge89" class="edge">
<title>Node192&#45;&gt;Node73</title>
<path fill="none" stroke="#191970" d="M1918.7567,-60.6754C1980.6537,-53.7671 2087.169,-40.1609 2177,-20 2179.9206,-19.3445 2182.9591,-18.5636 2185.9582,-17.7313"/>
<polygon fill="#191970" stroke="#191970" points="1918.0311,-57.234 1908.4741,-61.8071 1918.797,-64.192 1918.0311,-57.234"/>
</g>
<!-- Node192&#45;&gt;Node85 -->
<g id="edge92" class="edge">
<title>Node192&#45;&gt;Node85</title>
<path fill="none" stroke="#191970" d="M1918.4995,-62.2683C1991.3135,-56.4116 2128.2756,-43.2579 2243,-20 2245.849,-19.4224 2248.8043,-18.7295 2251.7355,-17.9814"/>
<polygon fill="#191970" stroke="#191970" points="1917.9254,-58.8026 1908.2322,-63.0797 1918.4769,-65.7809 1917.9254,-58.8026"/>
</g>
<!-- Node192&#45;&gt;Node86 -->
<g id="edge93" class="edge">
<title>Node192&#45;&gt;Node86</title>
<path fill="none" stroke="#191970" d="M1815.5761,-64.8107C1605.5294,-59.8366 818.6052,-40.0271 709,-20 705.9756,-19.4474 702.8389,-18.658 699.7836,-17.7619"/>
<polygon fill="#191970" stroke="#191970" points="1815.6349,-68.313 1825.7147,-65.0499 1815.8001,-61.3149 1815.6349,-68.313"/>
</g>
<!-- Node192&#45;&gt;Node88 -->
<g id="edge94" class="edge">
<title>Node192&#45;&gt;Node88</title>
<path fill="none" stroke="#191970" d="M1918.4472,-57.7291C1967.6523,-49.4639 2043.7981,-35.7451 2109,-20 2111.8708,-19.3067 2114.8604,-18.5219 2117.8233,-17.7042"/>
<polygon fill="#191970" stroke="#191970" points="1917.6584,-54.3123 1908.3699,-59.4088 1918.8093,-61.217 1917.6584,-54.3123"/>
</g>
<!-- Node192&#45;&gt;Node89 -->
<g id="edge95" class="edge">
<title>Node192&#45;&gt;Node89</title>
<path fill="none" stroke="#191970" d="M1848.0165,-49.645C1836.7121,-39.9058 1822.753,-27.8795 1813.1924,-19.6427"/>
<polygon fill="#191970" stroke="#191970" points="1845.8173,-52.3701 1855.6779,-56.2455 1850.3862,-47.0668 1845.8173,-52.3701"/>
</g>
<!-- Node192&#45;&gt;Node102 -->
<g id="edge96" class="edge">
<title>Node192&#45;&gt;Node102</title>
<path fill="none" stroke="#191970" d="M1918.2944,-61.7004C1941.1542,-59.8432 1968.4163,-57.7092 1993,-56 2260.8306,-37.3786 2329.1022,-49.079 2596,-20 2599.0826,-19.6641 2602.2445,-19.2821 2605.4316,-18.8681"/>
<polygon fill="#191970" stroke="#191970" points="1917.808,-58.2284 1908.1265,-62.5317 1918.3784,-65.2051 1917.808,-58.2284"/>
</g>
<!-- Node192&#45;&gt;Node104 -->
<g id="edge97" class="edge">
<title>Node192&#45;&gt;Node104</title>
<path fill="none" stroke="#191970" d="M1918.2864,-61.5808C1941.1447,-59.7012 1968.4078,-57.5827 1993,-56 2316.7251,-35.1652 2399.3791,-53.8789 2722,-20 2724.7108,-19.7153 2727.4835,-19.3909 2730.2801,-19.0372"/>
<polygon fill="#191970" stroke="#191970" points="1917.7954,-58.1095 1908.1193,-62.4248 1918.3746,-65.0855 1917.7954,-58.1095"/>
</g>
<!-- Node192&#45;&gt;Node107 -->
<g id="edge98" class="edge">
<title>Node192&#45;&gt;Node107</title>
<path fill="none" stroke="#191970" d="M1918.3564,-61.8176C2042.1701,-51.695 2350.3661,-26.2493 2397,-20 2399.6934,-19.6391 2402.4555,-19.2375 2405.2392,-18.8084"/>
<polygon fill="#191970" stroke="#191970" points="1918.043,-58.3314 1908.3613,-62.6342 1918.6131,-65.3082 1918.043,-58.3314"/>
</g>
<!-- Node192&#45;&gt;Node111 -->
<g id="edge99" class="edge">
<title>Node192&#45;&gt;Node111</title>
<path fill="none" stroke="#191970" d="M1888.1477,-50.2097C1901.3201,-40.3743 1917.84,-28.0394 1929.0857,-19.6427"/>
<polygon fill="#191970" stroke="#191970" points="1885.9828,-47.4581 1880.064,-56.2455 1890.1709,-53.0671 1885.9828,-47.4581"/>
</g>
<!-- Node192&#45;&gt;Node116 -->
<g id="edge101" class="edge">
<title>Node192&#45;&gt;Node116</title>
<path fill="none" stroke="#191970" d="M1918.3029,-61.8184C1941.1643,-59.9834 1968.4253,-57.8341 1993,-56 2221.8111,-38.9233 2281.0149,-53.5241 2508,-20 2510.7899,-19.588 2513.6652,-19.094 2516.5468,-18.5494"/>
<polygon fill="#191970" stroke="#191970" points="1917.8209,-58.3458 1908.1341,-62.6371 1918.3827,-65.3232 1917.8209,-58.3458"/>
</g>
<!-- Node192&#45;&gt;Node120 -->
<g id="edge103" class="edge">
<title>Node192&#45;&gt;Node120</title>
<path fill="none" stroke="#191970" d="M1918.3813,-61.5544C2018.8941,-52.717 2238.2325,-32.7004 2313,-20 2315.9559,-19.4979 2319.0134,-18.9086 2322.0687,-18.2715"/>
<polygon fill="#191970" stroke="#191970" points="1917.8243,-58.0898 1908.1682,-62.4499 1918.4357,-65.063 1917.8243,-58.0898"/>
</g>
<!-- Node192&#45;&gt;Node150 -->
<g id="edge104" class="edge">
<title>Node192&#45;&gt;Node150</title>
<path fill="none" stroke="#191970" d="M1868.7717,-46.1575C1869.5754,-37.155 1870.4893,-26.9199 1871.139,-19.6427"/>
<polygon fill="#191970" stroke="#191970" points="1865.2742,-45.9739 1867.8709,-56.2455 1872.2465,-46.5965 1865.2742,-45.9739"/>
</g>
<!-- Node192&#45;&gt;Node79 -->
<g id="edge91" class="edge">
<title>Node192&#45;&gt;Node79</title>
<path fill="none" stroke="#191970" d="M1918.2811,-61.497C1941.1385,-59.6016 1968.4023,-57.494 1993,-56 2372.1938,-32.9682 2468.9966,-57.8403 2847,-20 2849.7548,-19.7242 2852.5724,-19.4069 2855.4143,-19.0589"/>
<polygon fill="#191970" stroke="#191970" points="1917.787,-58.0261 1908.1146,-62.3499 1918.3722,-65.0016 1917.787,-58.0261"/>
</g>
<!-- Node192&#45;&gt;Node112 -->
<g id="edge100" class="edge">
<title>Node192&#45;&gt;Node112</title>
<path fill="none" stroke="#191970" d="M1815.7727,-63.7962C1705.3653,-58.7393 1436.8482,-44.7902 1213,-20 1210.0051,-19.6683 1206.9378,-19.3009 1203.8437,-18.9083"/>
<polygon fill="#191970" stroke="#191970" points="1815.8086,-67.3013 1825.9569,-64.2579 1816.1257,-60.3085 1815.8086,-67.3013"/>
</g>
<!-- Node192&#45;&gt;Node118 -->
<g id="edge102" class="edge">
<title>Node192&#45;&gt;Node118</title>
<path fill="none" stroke="#191970" d="M1815.7943,-60.8063C1745.3325,-53.3649 1614.6268,-38.5031 1504,-20 1500.9776,-19.4945 1497.856,-18.9334 1494.7229,-18.3423"/>
<polygon fill="#191970" stroke="#191970" points="1815.433,-64.2875 1825.7436,-61.85 1816.1633,-57.3257 1815.433,-64.2875"/>
</g>
<!-- Node196&#45;&gt;Node76 -->
<g id="edge117" class="edge">
<title>Node196&#45;&gt;Node76</title>
<path fill="none" stroke="#191970" d="M224.8604,-47.0437C220.4195,-37.8331 215.2735,-27.1598 211.6491,-19.6427"/>
<polygon fill="#191970" stroke="#191970" points="221.8012,-48.7579 229.297,-56.2455 228.1066,-45.7178 221.8012,-48.7579"/>
</g>
<!-- Node196&#45;&gt;Node86 -->
<g id="edge119" class="edge">
<title>Node196&#45;&gt;Node86</title>
<path fill="none" stroke="#191970" d="M279.9817,-64.0773C357.082,-60.1491 516.9649,-48.9815 649,-20 652.0029,-19.3409 655.1277,-18.4916 658.1771,-17.5669"/>
<polygon fill="#191970" stroke="#191970" points="279.4794,-60.5976 269.6634,-64.5846 279.8233,-67.5892 279.4794,-60.5976"/>
</g>
<!-- Node196&#45;&gt;Node80 -->
<g id="edge118" class="edge">
<title>Node196&#45;&gt;Node80</title>
<path fill="none" stroke="#191970" d="M190.7683,-53.4561C155.3404,-43.1765 105.963,-28.8494 73.7449,-19.5011"/>
<polygon fill="#191970" stroke="#191970" points="190.2429,-56.9479 200.8221,-56.3733 192.1936,-50.2252 190.2429,-56.9479"/>
</g>
<!-- Node196&#45;&gt;Node87 -->
<g id="edge120" class="edge">
<title>Node196&#45;&gt;Node87</title>
<path fill="none" stroke="#191970" d="M207.5281,-51.3225C189.4875,-41.3198 166.1123,-28.3593 150.3913,-19.6427"/>
<polygon fill="#191970" stroke="#191970" points="205.9643,-54.4574 216.4071,-56.2455 209.3587,-48.3354 205.9643,-54.4574"/>
</g>
</g>
</svg>
