<?xml version="1.0" encoding="UTF-8" standalone="no"?>
<!DOCTYPE svg PUBLIC "-//W3C//DTD SVG 1.1//EN"
 "http://www.w3.org/Graphics/SVG/1.1/DTD/svg11.dtd">
<!-- Generated by graphviz version 2.40.1 (20161225.0304)
 -->
<!-- Title: mutt_keymap_free Pages: 1 -->
<svg width="279pt" height="104pt"
 viewBox="0.00 0.00 279.00 104.00" xmlns="http://www.w3.org/2000/svg" xmlns:xlink="http://www.w3.org/1999/xlink">
<g id="graph0" class="graph" transform="scale(1 1) rotate(0) translate(4 100)">
<title>mutt_keymap_free</title>
<polygon fill="#ffffff" stroke="transparent" points="-4,4 -4,-100 275,-100 275,4 -4,4"/>
<!-- Node1 -->
<g id="node1" class="node">
<title>Node1</title>
<polygon fill="#bfbfbf" stroke="#000000" points="0,-38.5 0,-57.5 110,-57.5 110,-38.5 0,-38.5"/>
<text text-anchor="middle" x="55" y="-45.5" font-family="Helvetica,sans-Serif" font-size="10.00" fill="#000000">mutt_keymap_free</text>
</g>
<!-- Node2 -->
<g id="node2" class="node">
<title>Node2</title>
<g id="a_node2"><a xlink:href="keymap_8c.html#adbdc88cb4c82ae41499789c72281a4f2" target="_top" xlink:title="Free a List of Keymaps. ">
<polygon fill="#ffffff" stroke="#ff0000" points="146,-76.5 146,-95.5 271,-95.5 271,-76.5 146,-76.5"/>
<text text-anchor="middle" x="208.5" y="-83.5" font-family="Helvetica,sans-Serif" font-size="10.00" fill="#000000">mutt_keymaplist_free</text>
</a>
</g>
</g>
<!-- Node1&#45;&gt;Node2 -->
<g id="edge1" class="edge">
<title>Node1&#45;&gt;Node2</title>
<path fill="none" stroke="#191970" d="M103.6352,-60.04C125.0799,-65.3488 149.9226,-71.4988 170.044,-76.4799"/>
<polygon fill="#191970" stroke="#191970" points="104.2826,-56.5947 93.7345,-57.589 102.6004,-63.3896 104.2826,-56.5947"/>
</g>
<!-- Node6 -->
<g id="node3" class="node">
<title>Node6</title>
<g id="a_node3"><a xlink:href="keymap_8c.html#a2fe4b12e5427c00bf0009565c4fe267c" target="_top" xlink:title="Set up a key binding. ">
<polygon fill="#ffffff" stroke="#ff0000" points="170,-38.5 170,-57.5 247,-57.5 247,-38.5 170,-38.5"/>
<text text-anchor="middle" x="208.5" y="-45.5" font-family="Helvetica,sans-Serif" font-size="10.00" fill="#000000">km_bind_err</text>
</a>
</g>
</g>
<!-- Node1&#45;&gt;Node6 -->
<g id="edge2" class="edge">
<title>Node1&#45;&gt;Node6</title>
<path fill="none" stroke="#191970" d="M120.7532,-48C137.5501,-48 155.0646,-48 169.9883,-48"/>
<polygon fill="#191970" stroke="#191970" points="120.4171,-44.5001 110.417,-48 120.417,-51.5001 120.4171,-44.5001"/>
</g>
<!-- Node580 -->
<g id="node4" class="node">
<title>Node580</title>
<g id="a_node4"><a xlink:href="keymap_8c.html#a6f4f749c1d279d30c302e03961f4a9f5" target="_top" xlink:title="Free all the keys in the supplied Keymap. ">
<polygon fill="#ffffff" stroke="#ff0000" points="164.5,-.5 164.5,-19.5 252.5,-19.5 252.5,-.5 164.5,-.5"/>
<text text-anchor="middle" x="208.5" y="-7.5" font-family="Helvetica,sans-Serif" font-size="10.00" fill="#000000">km_unbind_all</text>
</a>
</g>
</g>
<!-- Node1&#45;&gt;Node580 -->
<g id="edge3" class="edge">
<title>Node1&#45;&gt;Node580</title>
<path fill="none" stroke="#191970" d="M103.6352,-35.96C125.0799,-30.6512 149.9226,-24.5012 170.044,-19.5201"/>
<polygon fill="#191970" stroke="#191970" points="102.6004,-32.6104 93.7345,-38.411 104.2826,-39.4053 102.6004,-32.6104"/>
</g>
</g>
</svg>
