<?xml version="1.0" encoding="UTF-8" standalone="no"?>
<!DOCTYPE svg PUBLIC "-//W3C//DTD SVG 1.1//EN"
 "http://www.w3.org/Graphics/SVG/1.1/DTD/svg11.dtd">
<!-- Generated by graphviz version 2.44.0 (0)
 -->
<!-- Title: pop_capabilities Pages: 1 -->
<svg width="328pt" height="180pt"
 viewBox="0.00 0.00 328.00 180.00" xmlns="http://www.w3.org/2000/svg" xmlns:xlink="http://www.w3.org/1999/xlink">
<g id="graph0" class="graph" transform="scale(1 1) rotate(0) translate(4 176)">
<title>pop_capabilities</title>
<polygon fill="white" stroke="transparent" points="-4,4 -4,-176 324,-176 324,4 -4,4"/>
<!-- Node1 -->
<g id="node1" class="node">
<title>Node1</title>
<g id="a_node1"><a xlink:title="Get capabilities from a POP server.">
<polygon fill="#bfbfbf" stroke="black" points="0,-76.5 0,-95.5 86,-95.5 86,-76.5 0,-76.5"/>
<text text-anchor="middle" x="43" y="-83.5" font-family="Helvetica" font-size="10.00">pop_capabilities</text>
</a>
</g>
</g>
<!-- Node2 -->
<g id="node2" class="node">
<title>Node2</title>
<g id="a_node2"><a xlink:href="lib_8c.html#aabff8caa7467a16ac8d2f77d0d14abc5" target="_top" xlink:title="Fetch list of the authentication mechanisms &#45; Implements pop_fetch_t.">
<polygon fill="white" stroke="red" points="132.5,-152.5 132.5,-171.5 194.5,-171.5 194.5,-152.5 132.5,-152.5"/>
<text text-anchor="middle" x="163.5" y="-159.5" font-family="Helvetica" font-size="10.00">fetch_auth</text>
</a>
</g>
</g>
<!-- Node1&#45;&gt;Node2 -->
<g id="edge1" class="edge">
<title>Node1&#45;&gt;Node2</title>
<path fill="none" stroke="midnightblue" d="M55.67,-95.63C70.5,-107.62 97.18,-128.3 122,-143 124.87,-144.7 127.92,-146.37 131.01,-147.96"/>
<polygon fill="midnightblue" stroke="midnightblue" points="129.72,-151.23 140.24,-152.5 132.81,-144.95 129.72,-151.23"/>
</g>
<!-- Node11 -->
<g id="node3" class="node">
<title>Node11</title>
<g id="a_node3"><a xlink:href="lib_8c.html#a408a66a06e087854500a1de8fbf2d3c8" target="_top" xlink:title="Parse CAPA output &#45; Implements pop_fetch_t.">
<polygon fill="white" stroke="red" points="131,-114.5 131,-133.5 196,-133.5 196,-114.5 131,-114.5"/>
<text text-anchor="middle" x="163.5" y="-121.5" font-family="Helvetica" font-size="10.00">fetch_capa</text>
</a>
</g>
</g>
<!-- Node1&#45;&gt;Node11 -->
<g id="edge2" class="edge">
<title>Node1&#45;&gt;Node11</title>
<path fill="none" stroke="midnightblue" d="M73.9,-95.59C88.78,-100.36 106.96,-106.19 122.97,-111.32"/>
<polygon fill="midnightblue" stroke="midnightblue" points="122.02,-114.69 132.61,-114.41 124.15,-108.03 122.02,-114.69"/>
</g>
<!-- Node18 -->
<g id="node4" class="node">
<title>Node18</title>
<g id="a_node4"><a xlink:href="buffer_8c.html#ab807be90af362e2c91aa45993fda0d5d" target="_top" xlink:title="Initialise a new Buffer.">
<polygon fill="white" stroke="black" points="122,-76.5 122,-95.5 205,-95.5 205,-76.5 122,-76.5"/>
<text text-anchor="middle" x="163.5" y="-83.5" font-family="Helvetica" font-size="10.00">mutt_buffer_init</text>
</a>
</g>
</g>
<!-- Node1&#45;&gt;Node18 -->
<g id="edge3" class="edge">
<title>Node1&#45;&gt;Node18</title>
<path fill="none" stroke="midnightblue" d="M86.11,-86C94.34,-86 103.05,-86 111.53,-86"/>
<polygon fill="midnightblue" stroke="midnightblue" points="111.72,-89.5 121.72,-86 111.72,-82.5 111.72,-89.5"/>
</g>
<!-- Node19 -->
<g id="node5" class="node">
<title>Node19</title>
<g id="a_node5"><a xlink:href="mutt_2string_8c.html#ad20e00309de897a1e882fc7400335b83" target="_top" xlink:title="Copy a string into a buffer (guaranteeing NUL&#45;termination)">
<polygon fill="white" stroke="black" points="241,-19.5 241,-38.5 320,-38.5 320,-19.5 241,-19.5"/>
<text text-anchor="middle" x="280.5" y="-26.5" font-family="Helvetica" font-size="10.00">mutt_str_copy</text>
</a>
</g>
</g>
<!-- Node1&#45;&gt;Node19 -->
<g id="edge4" class="edge">
<title>Node1&#45;&gt;Node19</title>
<path fill="none" stroke="midnightblue" d="M83.28,-76.41C95.66,-73.4 109.4,-70.05 122,-67 158.63,-58.12 200.07,-48.12 231.24,-40.61"/>
<polygon fill="midnightblue" stroke="midnightblue" points="232.08,-44.01 240.98,-38.27 230.44,-37.21 232.08,-44.01"/>
</g>
<!-- Node20 -->
<g id="node6" class="node">
<title>Node20</title>
<g id="a_node6"><a xlink:href="lib_8c.html#abc1591da707c3c85897c8b450e661dcf" target="_top" xlink:title="Read Headers with callback function.">
<polygon fill="white" stroke="red" points="122,-0.5 122,-19.5 205,-19.5 205,-0.5 122,-0.5"/>
<text text-anchor="middle" x="163.5" y="-7.5" font-family="Helvetica" font-size="10.00">pop_fetch_data</text>
</a>
</g>
</g>
<!-- Node1&#45;&gt;Node20 -->
<g id="edge5" class="edge">
<title>Node1&#45;&gt;Node20</title>
<path fill="none" stroke="midnightblue" d="M57.94,-76.38C73.44,-65.77 99.27,-48.3 122,-34 126.84,-30.95 132.07,-27.78 137.1,-24.77"/>
<polygon fill="midnightblue" stroke="midnightblue" points="139,-27.71 145.83,-19.61 135.44,-21.69 139,-27.71"/>
</g>
<!-- Node20&#45;&gt;Node19 -->
<g id="edge6" class="edge">
<title>Node20&#45;&gt;Node19</title>
<path fill="none" stroke="midnightblue" d="M205.04,-16.7C213.41,-18.08 222.3,-19.55 230.92,-20.97"/>
<polygon fill="midnightblue" stroke="midnightblue" points="230.43,-24.44 240.86,-22.62 231.57,-17.53 230.43,-24.44"/>
</g>
</g>
</svg>
