<?xml version="1.0" encoding="UTF-8" standalone="no"?>
<!DOCTYPE svg PUBLIC "-//W3C//DTD SVG 1.1//EN"
 "http://www.w3.org/Graphics/SVG/1.1/DTD/svg11.dtd">
<!-- Generated by graphviz version 2.40.1 (20161225.0304)
 -->
<!-- Title: mutt_list_insert_after Pages: 1 -->
<svg width="283pt" height="78pt"
 viewBox="0.00 0.00 283.00 77.50" xmlns="http://www.w3.org/2000/svg" xmlns:xlink="http://www.w3.org/1999/xlink">
<g id="graph0" class="graph" transform="scale(1 1) rotate(0) translate(4 73.5)">
<title>mutt_list_insert_after</title>
<polygon fill="#ffffff" stroke="transparent" points="-4,4 -4,-73.5 279,-73.5 279,4 -4,4"/>
<!-- Node1099 -->
<g id="node1" class="node">
<title>Node1099</title>
<polygon fill="#bfbfbf" stroke="#000000" points="0,-28 0,-47 122,-47 122,-28 0,-28"/>
<text text-anchor="middle" x="61" y="-35" font-family="Helvetica,sans-Serif" font-size="10.00" fill="#000000">mutt_list_insert_after</text>
</g>
<!-- Node1100 -->
<g id="node2" class="node">
<title>Node1100</title>
<g id="a_node2"><a xlink:href="mutt__thread_8c.html#a7f28bcf6516e018638aa30d7d7d33e2b" target="_top" xlink:title="Create a sorted list of all subjects in a thread. ">
<polygon fill="#ffffff" stroke="#ff0000" points="164,-50 164,-69 269,-69 269,-50 164,-50"/>
<text text-anchor="middle" x="216.5" y="-57" font-family="Helvetica,sans-Serif" font-size="10.00" fill="#000000">make_subject_list</text>
</a>
</g>
</g>
<!-- Node1099&#45;&gt;Node1100 -->
<g id="edge1" class="edge">
<title>Node1099&#45;&gt;Node1100</title>
<path fill="none" stroke="#191970" d="M132.1298,-47.5634C142.7639,-49.0679 153.5643,-50.5959 163.7277,-52.0338"/>
<polygon fill="#191970" stroke="#191970" points="132.4031,-44.0673 122.0114,-46.1318 131.4225,-50.9983 132.4031,-44.0673"/>
</g>
<!-- Node1581 -->
<g id="node3" class="node">
<title>Node1581</title>
<g id="a_node3"><a xlink:href="mutt__list__insert__after_8c.html#a8e3ed350a0431bd04d841e469522b29a" target="_top" xlink:title="test_mutt_list_insert\l_after">
<polygon fill="#ffffff" stroke="#000000" points="158,-.5 158,-30.5 275,-30.5 275,-.5 158,-.5"/>
<text text-anchor="start" x="166" y="-18.5" font-family="Helvetica,sans-Serif" font-size="10.00" fill="#000000">test_mutt_list_insert</text>
<text text-anchor="middle" x="216.5" y="-7.5" font-family="Helvetica,sans-Serif" font-size="10.00" fill="#000000">_after</text>
</a>
</g>
</g>
<!-- Node1099&#45;&gt;Node1581 -->
<g id="edge2" class="edge">
<title>Node1099&#45;&gt;Node1581</title>
<path fill="none" stroke="#191970" d="M132.0932,-27.4418C140.7469,-26.2175 149.5114,-24.9775 157.9536,-23.7831"/>
<polygon fill="#191970" stroke="#191970" points="131.4225,-24.0017 122.0114,-28.8682 132.4031,-30.9327 131.4225,-24.0017"/>
</g>
</g>
</svg>
