<?xml version="1.0" encoding="UTF-8" standalone="no"?>
<!DOCTYPE svg PUBLIC "-//W3C//DTD SVG 1.1//EN"
 "http://www.w3.org/Graphics/SVG/1.1/DTD/svg11.dtd">
<!-- Generated by graphviz version 2.40.1 (20161225.0304)
 -->
<!-- Title: mutt_list_insert_tail Pages: 1 -->
<svg width="590pt" height="1230pt"
 viewBox="0.00 0.00 590.00 1230.00" xmlns="http://www.w3.org/2000/svg" xmlns:xlink="http://www.w3.org/1999/xlink">
<g id="graph0" class="graph" transform="scale(1 1) rotate(0) translate(4 1226)">
<title>mutt_list_insert_tail</title>
<polygon fill="#ffffff" stroke="transparent" points="-4,4 -4,-1226 586,-1226 586,4 -4,4"/>
<!-- Node2694 -->
<g id="node1" class="node">
<title>Node2694</title>
<polygon fill="#bfbfbf" stroke="#000000" points="0,-613.5 0,-632.5 114,-632.5 114,-613.5 0,-613.5"/>
<text text-anchor="middle" x="57" y="-620.5" font-family="Helvetica,sans-Serif" font-size="10.00" fill="#000000">mutt_list_insert_tail</text>
</g>
<!-- Node2695 -->
<g id="node2" class="node">
<title>Node2695</title>
<g id="a_node2"><a xlink:href="address_2address_8h.html#a3f26185f6b123539b752d5be774606ea" target="_top" xlink:title="Write Addresses to a List. ">
<polygon fill="#ffffff" stroke="#ff0000" points="161.5,-1202.5 161.5,-1221.5 293.5,-1221.5 293.5,-1202.5 161.5,-1202.5"/>
<text text-anchor="middle" x="227.5" y="-1209.5" font-family="Helvetica,sans-Serif" font-size="10.00" fill="#000000">mutt_addrlist_write_list</text>
</a>
</g>
</g>
<!-- Node2694&#45;&gt;Node2695 -->
<g id="edge1" class="edge">
<title>Node2694&#45;&gt;Node2695</title>
<path fill="none" stroke="#191970" d="M57.4032,-642.8262C59.66,-733.7908 73.5554,-1110.2905 150,-1193 153.4791,-1196.7642 157.5714,-1199.8372 162.027,-1202.3402"/>
<polygon fill="#191970" stroke="#191970" points="60.8962,-642.4767 57.1692,-632.5591 53.8981,-642.6363 60.8962,-642.4767"/>
</g>
<!-- Node3196 -->
<g id="node3" class="node">
<title>Node3196</title>
<g id="a_node3"><a xlink:href="command__parse_8c.html#afbf3fcb4f4e98aa1f1844c546cb145b5" target="_top" xlink:title="Parse the &quot;attachments&quot; command. ">
<polygon fill="#ffffff" stroke="#ff0000" points="177.5,-1164.5 177.5,-1183.5 277.5,-1183.5 277.5,-1164.5 177.5,-1164.5"/>
<text text-anchor="middle" x="227.5" y="-1171.5" font-family="Helvetica,sans-Serif" font-size="10.00" fill="#000000">parse_attach_list</text>
</a>
</g>
</g>
<!-- Node2694&#45;&gt;Node3196 -->
<g id="edge2" class="edge">
<title>Node2694&#45;&gt;Node3196</title>
<path fill="none" stroke="#191970" d="M57.81,-642.8616C61.7271,-729.3439 81.4197,-1072.2129 150,-1150 157.1725,-1158.1354 167.0416,-1163.548 177.3363,-1167.1399"/>
<polygon fill="#191970" stroke="#191970" points="61.2956,-642.4511 57.3666,-632.6117 54.3021,-642.7537 61.2956,-642.4511"/>
</g>
<!-- Node3198 -->
<g id="node4" class="node">
<title>Node3198</title>
<g id="a_node4"><a xlink:href="slist_8h.html#a52e930a7c9662bda29b33e33b3768a1c" target="_top" xlink:title="Add a list to another list. ">
<polygon fill="#ffffff" stroke="#000000" points="371,-1107.5 371,-1126.5 451,-1126.5 451,-1107.5 371,-1107.5"/>
<text text-anchor="middle" x="411" y="-1114.5" font-family="Helvetica,sans-Serif" font-size="10.00" fill="#000000">slist_add_list</text>
</a>
</g>
</g>
<!-- Node2694&#45;&gt;Node3198 -->
<g id="edge3" class="edge">
<title>Node2694&#45;&gt;Node3198</title>
<path fill="none" stroke="#191970" d="M57.5123,-642.6836C60.153,-726.8415 75.1793,-1054.9506 150,-1117 218.014,-1173.4045 333.8492,-1143.8803 385.1902,-1126.6076"/>
<polygon fill="#191970" stroke="#191970" points="61.0105,-642.5687 57.2221,-632.6744 54.0135,-642.7717 61.0105,-642.5687"/>
</g>
<!-- Node3199 -->
<g id="node5" class="node">
<title>Node3199</title>
<g id="a_node5"><a xlink:href="slist_8h.html#a56a8eca5b8c63f928ae9944661a208bd" target="_top" xlink:title="Add a string to a list. ">
<polygon fill="#ffffff" stroke="#ff0000" points="181,-1050.5 181,-1069.5 274,-1069.5 274,-1050.5 181,-1050.5"/>
<text text-anchor="middle" x="227.5" y="-1057.5" font-family="Helvetica,sans-Serif" font-size="10.00" fill="#000000">slist_add_string</text>
</a>
</g>
</g>
<!-- Node2694&#45;&gt;Node3199 -->
<g id="edge4" class="edge">
<title>Node2694&#45;&gt;Node3199</title>
<path fill="none" stroke="#191970" d="M58.6755,-642.7733C65.4189,-717.6867 92.9952,-982.7564 150,-1041 158.2364,-1049.4154 169.5473,-1054.3371 180.983,-1057.1574"/>
<polygon fill="#191970" stroke="#191970" points="62.1606,-642.4494 57.8005,-632.7933 55.1873,-643.0608 62.1606,-642.4494"/>
</g>
<!-- Node3201 -->
<g id="node6" class="node">
<title>Node3201</title>
<g id="a_node6"><a xlink:href="slist_8h.html#a24ef1f205d23bbc703828e916f571a98" target="_top" xlink:title="Create a copy of an Slist object. ">
<polygon fill="#ffffff" stroke="#ff0000" points="197.5,-1088.5 197.5,-1107.5 257.5,-1107.5 257.5,-1088.5 197.5,-1088.5"/>
<text text-anchor="middle" x="227.5" y="-1095.5" font-family="Helvetica,sans-Serif" font-size="10.00" fill="#000000">slist_dup</text>
</a>
</g>
</g>
<!-- Node2694&#45;&gt;Node3201 -->
<g id="edge5" class="edge">
<title>Node2694&#45;&gt;Node3201</title>
<path fill="none" stroke="#191970" d="M58.2961,-643.0095C63.8486,-722.4983 88.2184,-1014.7458 150,-1079 162.0982,-1091.5824 181.0615,-1096.3817 197.2013,-1098.0114"/>
<polygon fill="#191970" stroke="#191970" points="61.7778,-642.619 57.6113,-632.8779 54.7938,-643.0912 61.7778,-642.619"/>
</g>
<!-- Node3204 -->
<g id="node7" class="node">
<title>Node3204</title>
<g id="a_node7"><a xlink:href="slist_8h.html#a1b92bcbee7fe26d262459c9fcf109c9f" target="_top" xlink:title="Parse a list of strings into a list. ">
<polygon fill="#ffffff" stroke="#ff0000" points="193,-1012.5 193,-1031.5 262,-1031.5 262,-1012.5 193,-1012.5"/>
<text text-anchor="middle" x="227.5" y="-1019.5" font-family="Helvetica,sans-Serif" font-size="10.00" fill="#000000">slist_parse</text>
</a>
</g>
</g>
<!-- Node2694&#45;&gt;Node3204 -->
<g id="edge7" class="edge">
<title>Node2694&#45;&gt;Node3204</title>
<path fill="none" stroke="#191970" d="M59.3475,-642.8473C67.9752,-712.5961 100.0489,-945.1059 150,-998 161.1214,-1009.7767 177.8903,-1015.8159 192.9884,-1018.8959"/>
<polygon fill="#191970" stroke="#191970" points="62.8041,-642.2767 58.1256,-632.7708 55.855,-643.1195 62.8041,-642.2767"/>
</g>
<!-- Node3207 -->
<g id="node8" class="node">
<title>Node3207</title>
<g id="a_node8"><a xlink:href="gnutls_8c.html#a8195e59f71206f6a07ef266dfb485aba" target="_top" xlink:title="Look up certificate info and save it to a list. ">
<polygon fill="#ffffff" stroke="#000000" points="198,-936.5 198,-955.5 257,-955.5 257,-936.5 198,-936.5"/>
<text text-anchor="middle" x="227.5" y="-943.5" font-family="Helvetica,sans-Serif" font-size="10.00" fill="#000000">add_cert</text>
</a>
</g>
</g>
<!-- Node2694&#45;&gt;Node3207 -->
<g id="edge8" class="edge">
<title>Node2694&#45;&gt;Node3207</title>
<path fill="none" stroke="#191970" d="M60.4115,-642.6392C71.3489,-703.4025 107.3284,-886.6721 150,-927 162.6861,-938.9894 181.6586,-943.7794 197.6561,-945.5526"/>
<polygon fill="#191970" stroke="#191970" points="63.8559,-642.017 58.6647,-632.7811 56.9632,-643.2384 63.8559,-642.017"/>
</g>
<!-- Node2722 -->
<g id="node9" class="node">
<title>Node2722</title>
<g id="a_node9"><a xlink:href="gnutls_8c.html#ad2898199aadc914b669fbc3bab018ee2" target="_top" xlink:title="Check a GnuTLS certificate. ">
<polygon fill="#ffffff" stroke="#ff0000" points="341,-955.5 341,-974.5 481,-974.5 481,-955.5 341,-955.5"/>
<text text-anchor="middle" x="411" y="-962.5" font-family="Helvetica,sans-Serif" font-size="10.00" fill="#000000">tls_check_one_certificate</text>
</a>
</g>
</g>
<!-- Node2694&#45;&gt;Node2722 -->
<g id="edge10" class="edge">
<title>Node2694&#45;&gt;Node2722</title>
<path fill="none" stroke="#191970" d="M59.2346,-642.4802C67.2921,-708.9062 97.2029,-924.6428 150,-965 219.6599,-1018.2469 333.129,-990.9995 384.3818,-974.5213"/>
<polygon fill="#191970" stroke="#191970" points="62.7063,-642.0331 58.0555,-632.5137 55.7547,-642.8557 62.7063,-642.0331"/>
</g>
<!-- Node3154 -->
<g id="node10" class="node">
<title>Node3154</title>
<g id="a_node10"><a xlink:href="openssl_8c.html#ae0a15dc5df31b626a42f31bd6a5ea7f4" target="_top" xlink:title="Ask the user if a certificate is valid. ">
<polygon fill="#ffffff" stroke="#ff0000" points="164,-898.5 164,-917.5 291,-917.5 291,-898.5 164,-898.5"/>
<text text-anchor="middle" x="227.5" y="-905.5" font-family="Helvetica,sans-Serif" font-size="10.00" fill="#000000">interactive_check_cert</text>
</a>
</g>
</g>
<!-- Node2694&#45;&gt;Node3154 -->
<g id="edge11" class="edge">
<title>Node2694&#45;&gt;Node3154</title>
<path fill="none" stroke="#191970" d="M58.2047,-642.7578C62.2243,-691.0745 79.2841,-816.1924 150,-884 156.6083,-890.3365 164.8572,-895.0025 173.4874,-898.4378"/>
<polygon fill="#191970" stroke="#191970" points="61.6884,-642.4054 57.4684,-632.6872 54.707,-642.9158 61.6884,-642.4054"/>
</g>
<!-- Node3208 -->
<g id="node11" class="node">
<title>Node3208</title>
<g id="a_node11"><a xlink:href="graphviz_8c.html#a7ffddcc72974cbe733cfebeb0973ff2a" target="_top" xlink:title="dot_add_link">
<polygon fill="#ffffff" stroke="#ff0000" points="188,-746.5 188,-765.5 267,-765.5 267,-746.5 188,-746.5"/>
<text text-anchor="middle" x="227.5" y="-753.5" font-family="Helvetica,sans-Serif" font-size="10.00" fill="#000000">dot_add_link</text>
</a>
</g>
</g>
<!-- Node2694&#45;&gt;Node3208 -->
<g id="edge12" class="edge">
<title>Node2694&#45;&gt;Node3208</title>
<path fill="none" stroke="#191970" d="M67.9416,-641.3584C83.3006,-665.5851 113.5026,-707.9639 150,-732 161.2929,-739.4371 175.0145,-744.6714 187.7553,-748.3092"/>
<polygon fill="#191970" stroke="#191970" points="70.8616,-639.4255 62.6298,-632.7556 64.9055,-643.1031 70.8616,-639.4255"/>
</g>
<!-- Node3210 -->
<g id="node12" class="node">
<title>Node3210</title>
<g id="a_node12"><a xlink:href="graphviz_8c.html#a47cee668d59f4150c4c25bf5651cbeed" target="_top" xlink:title="dot_mailbox_node">
<polygon fill="#ffffff" stroke="#ff0000" points="357.5,-822.5 357.5,-841.5 464.5,-841.5 464.5,-822.5 357.5,-822.5"/>
<text text-anchor="middle" x="411" y="-829.5" font-family="Helvetica,sans-Serif" font-size="10.00" fill="#000000">dot_mailbox_node</text>
</a>
</g>
</g>
<!-- Node2694&#45;&gt;Node3210 -->
<g id="edge20" class="edge">
<title>Node2694&#45;&gt;Node3210</title>
<path fill="none" stroke="#191970" d="M60.631,-642.548C68.8946,-680.9596 92.988,-765.9341 150,-805 211.441,-847.1007 300.8631,-846.4377 357.4629,-840.462"/>
<polygon fill="#191970" stroke="#191970" points="64.0375,-641.7341 58.6302,-632.623 57.1755,-643.1175 64.0375,-641.7341"/>
</g>
<!-- Node3212 -->
<g id="node13" class="node">
<title>Node3212</title>
<g id="a_node13"><a xlink:href="graphviz_8c.html#aa8ed68697024c4b1ca74fc26e8f9c2e4" target="_top" xlink:title="dot_account">
<polygon fill="#ffffff" stroke="#ff0000" points="373,-708.5 373,-727.5 449,-727.5 449,-708.5 373,-708.5"/>
<text text-anchor="middle" x="411" y="-715.5" font-family="Helvetica,sans-Serif" font-size="10.00" fill="#000000">dot_account</text>
</a>
</g>
</g>
<!-- Node2694&#45;&gt;Node3212 -->
<g id="edge21" class="edge">
<title>Node2694&#45;&gt;Node3212</title>
<path fill="none" stroke="#191970" d="M75.7124,-638.9834C93.5649,-653.2861 121.8384,-673.5594 150,-684 225.4083,-711.9568 320.4935,-717.5433 372.5576,-718.3047"/>
<polygon fill="#191970" stroke="#191970" points="77.7808,-636.1531 67.8317,-632.5109 73.338,-641.5625 77.7808,-636.1531"/>
</g>
<!-- Node3214 -->
<g id="node14" class="node">
<title>Node3214</title>
<g id="a_node14"><a xlink:href="debug_2lib_8h.html#a0d621ff3146bed678d6e74fda79d5185" target="_top" xlink:title="dump_graphviz">
<polygon fill="#ffffff" stroke="#ff0000" points="365,-670.5 365,-689.5 457,-689.5 457,-670.5 365,-670.5"/>
<text text-anchor="middle" x="411" y="-677.5" font-family="Helvetica,sans-Serif" font-size="10.00" fill="#000000">dump_graphviz</text>
</a>
</g>
</g>
<!-- Node2694&#45;&gt;Node3214 -->
<g id="edge22" class="edge">
<title>Node2694&#45;&gt;Node3214</title>
<path fill="none" stroke="#191970" d="M84.6659,-637.0007C102.7741,-645.4801 127.2186,-655.6591 150,-661 223.648,-678.2663 311.9012,-681.1101 364.6077,-680.9881"/>
<polygon fill="#191970" stroke="#191970" points="85.838,-633.6809 75.3085,-632.5062 82.8073,-639.9908 85.838,-633.6809"/>
</g>
<!-- Node3223 -->
<g id="node15" class="node">
<title>Node3223</title>
<g id="a_node15"><a xlink:href="graphviz_8c.html#abdc31579f038f08491def5175968f029" target="_top" xlink:title="dot_body">
<polygon fill="#ffffff" stroke="#000000" points="380,-784.5 380,-803.5 442,-803.5 442,-784.5 380,-784.5"/>
<text text-anchor="middle" x="411" y="-791.5" font-family="Helvetica,sans-Serif" font-size="10.00" fill="#000000">dot_body</text>
</a>
</g>
</g>
<!-- Node2694&#45;&gt;Node3223 -->
<g id="edge23" class="edge">
<title>Node2694&#45;&gt;Node3223</title>
<path fill="none" stroke="#191970" d="M62.4326,-642.2709C73.033,-675.8711 99.9374,-744.4995 150,-775 222.3597,-819.085 327.8109,-809.0208 379.7344,-800.3069"/>
<polygon fill="#191970" stroke="#191970" points="65.7825,-641.2568 59.5551,-632.6853 59.0781,-643.2694 65.7825,-641.2568"/>
</g>
<!-- Node3224 -->
<g id="node16" class="node">
<title>Node3224</title>
<g id="a_node16"><a xlink:href="graphviz_8c.html#af580ce3bb1304d7b9cf4fd8698c145a3" target="_top" xlink:title="dot_email">
<polygon fill="#ffffff" stroke="#ff0000" points="517,-784.5 517,-803.5 582,-803.5 582,-784.5 517,-784.5"/>
<text text-anchor="middle" x="549.5" y="-791.5" font-family="Helvetica,sans-Serif" font-size="10.00" fill="#000000">dot_email</text>
</a>
</g>
</g>
<!-- Node2694&#45;&gt;Node3224 -->
<g id="edge24" class="edge">
<title>Node2694&#45;&gt;Node3224</title>
<path fill="none" stroke="#191970" d="M58.8985,-642.8713C64.2507,-686.6309 83.7026,-791.1435 150,-838 210.1139,-880.4862 411.7755,-876.0346 481,-851 507.1881,-841.5292 530.4145,-817.1968 541.8972,-803.5841"/>
<polygon fill="#191970" stroke="#191970" points="62.3744,-642.4591 57.7997,-632.9028 55.4165,-643.2261 62.3744,-642.4591"/>
</g>
<!-- Node3226 -->
<g id="node17" class="node">
<title>Node3226</title>
<g id="a_node17"><a xlink:href="email_8h.html#a1305da6b64a82fe390a5b5e334320cf5" target="_top" xlink:title="Add a header to a list. ">
<polygon fill="#ffffff" stroke="#ff0000" points="190.5,-632.5 190.5,-651.5 264.5,-651.5 264.5,-632.5 190.5,-632.5"/>
<text text-anchor="middle" x="227.5" y="-639.5" font-family="Helvetica,sans-Serif" font-size="10.00" fill="#000000">header_add</text>
</a>
</g>
</g>
<!-- Node2694&#45;&gt;Node3226 -->
<g id="edge25" class="edge">
<title>Node2694&#45;&gt;Node3226</title>
<path fill="none" stroke="#191970" d="M124.4399,-630.5153C146.939,-633.0225 171.1704,-635.7228 190.4811,-637.8747"/>
<polygon fill="#191970" stroke="#191970" points="124.5745,-627.0087 114.2483,-629.3796 123.7992,-633.9657 124.5745,-627.0087"/>
</g>
<!-- Node3230 -->
<g id="node18" class="node">
<title>Node3230</title>
<g id="a_node18"><a xlink:href="parse_8h.html#a4ccd3c1628387aaf4e5b644988124e87" target="_top" xlink:title="Parse an email header. ">
<polygon fill="#ffffff" stroke="#ff0000" points="162,-594.5 162,-613.5 293,-613.5 293,-594.5 162,-594.5"/>
<text text-anchor="middle" x="227.5" y="-601.5" font-family="Helvetica,sans-Serif" font-size="10.00" fill="#000000">mutt_rfc822_parse_line</text>
</a>
</g>
</g>
<!-- Node2694&#45;&gt;Node3230 -->
<g id="edge26" class="edge">
<title>Node2694&#45;&gt;Node3230</title>
<path fill="none" stroke="#191970" d="M124.4493,-615.4837C136.7671,-614.111 149.6039,-612.6805 161.8679,-611.3138"/>
<polygon fill="#191970" stroke="#191970" points="123.7992,-612.0343 114.2483,-616.6204 124.5745,-618.9913 123.7992,-612.0343"/>
</g>
<!-- Node3239 -->
<g id="node19" class="node">
<title>Node3239</title>
<g id="a_node19"><a xlink:href="serialize_8h.html#a7c71f04834a31c8f5d203016ef0e24ee" target="_top" xlink:title="Unpack a STAILQ from a binary blob. ">
<polygon fill="#ffffff" stroke="#ff0000" points="169.5,-556.5 169.5,-575.5 285.5,-575.5 285.5,-556.5 169.5,-556.5"/>
<text text-anchor="middle" x="227.5" y="-563.5" font-family="Helvetica,sans-Serif" font-size="10.00" fill="#000000">serial_restore_stailq</text>
</a>
</g>
</g>
<!-- Node2694&#45;&gt;Node3239 -->
<g id="edge27" class="edge">
<title>Node2694&#45;&gt;Node3239</title>
<path fill="none" stroke="#191970" d="M87.4705,-609.2197C105.4265,-601.436 128.7259,-591.9124 150,-585 160.8037,-581.4897 172.6378,-578.2787 183.7337,-575.5355"/>
<polygon fill="#191970" stroke="#191970" points="85.8408,-606.1126 78.0914,-613.3374 88.6548,-612.5222 85.8408,-606.1126"/>
</g>
<!-- Node3240 -->
<g id="node20" class="node">
<title>Node3240</title>
<g id="a_node20"><a xlink:href="hook_8c.html#a51b4816c85f88551f21387049b2df4fe" target="_top" xlink:title="Find hook strings matching. ">
<polygon fill="#ffffff" stroke="#ff0000" points="197,-518.5 197,-537.5 258,-537.5 258,-518.5 197,-518.5"/>
<text text-anchor="middle" x="227.5" y="-525.5" font-family="Helvetica,sans-Serif" font-size="10.00" fill="#000000">list_hook</text>
</a>
</g>
</g>
<!-- Node2694&#45;&gt;Node3240 -->
<g id="edge28" class="edge">
<title>Node2694&#45;&gt;Node3240</title>
<path fill="none" stroke="#191970" d="M72.8521,-606.215C90.1888,-588.8459 119.5814,-562.1764 150,-547 164.6274,-539.7021 182.2361,-535.0952 196.9699,-532.249"/>
<polygon fill="#191970" stroke="#191970" points="70.2547,-603.8652 65.7746,-613.4662 75.2641,-608.7546 70.2547,-603.8652"/>
</g>
<!-- Node3242 -->
<g id="node21" class="node">
<title>Node3242</title>
<g id="a_node21"><a xlink:href="imap_8c.html#aa3e4e1578eeb887571cc9a8257a3232a" target="_top" xlink:title="Make a simple list out of a FLAGS response. ">
<polygon fill="#ffffff" stroke="#ff0000" points="197,-480.5 197,-499.5 258,-499.5 258,-480.5 197,-480.5"/>
<text text-anchor="middle" x="227.5" y="-487.5" font-family="Helvetica,sans-Serif" font-size="10.00" fill="#000000">get_flags</text>
</a>
</g>
</g>
<!-- Node2694&#45;&gt;Node3242 -->
<g id="edge29" class="edge">
<title>Node2694&#45;&gt;Node3242</title>
<path fill="none" stroke="#191970" d="M67.0727,-604.2233C81.8027,-578.628 111.6832,-533.2078 150,-509 163.937,-500.1949 181.6631,-495.4703 196.6442,-492.9352"/>
<polygon fill="#191970" stroke="#191970" points="63.8398,-602.8342 62.0233,-613.2721 69.9526,-606.2452 63.8398,-602.8342"/>
</g>
<!-- Node2882 -->
<g id="node22" class="node">
<title>Node2882</title>
<g id="a_node22"><a xlink:href="init_8h.html#aadc99134446d4162844e0a8d103df18b" target="_top" xlink:title="Initialise NeoMutt. ">
<polygon fill="#ffffff" stroke="#000000" points="380.5,-404.5 380.5,-423.5 441.5,-423.5 441.5,-404.5 380.5,-404.5"/>
<text text-anchor="middle" x="411" y="-411.5" font-family="Helvetica,sans-Serif" font-size="10.00" fill="#000000">mutt_init</text>
</a>
</g>
</g>
<!-- Node2694&#45;&gt;Node2882 -->
<g id="edge30" class="edge">
<title>Node2694&#45;&gt;Node2882</title>
<path fill="none" stroke="#191970" d="M60.4354,-603.3345C68.3909,-564.327 92.0228,-477.5234 150,-438 220.6849,-389.8137 328.3104,-399.4577 380.4991,-407.9809"/>
<polygon fill="#191970" stroke="#191970" points="56.9904,-602.7157 58.5556,-613.1943 63.8665,-604.0267 56.9904,-602.7157"/>
</g>
<!-- Node2710 -->
<g id="node23" class="node">
<title>Node2710</title>
<g id="a_node23"><a xlink:href="main_8c.html#adedb285b02c41bde2158ded9cc9fd7ac" target="_top" xlink:title="Start NeoMutt. ">
<polygon fill="#ffffff" stroke="#000000" points="529,-423.5 529,-442.5 570,-442.5 570,-423.5 529,-423.5"/>
<text text-anchor="middle" x="549.5" y="-430.5" font-family="Helvetica,sans-Serif" font-size="10.00" fill="#000000">main</text>
</a>
</g>
</g>
<!-- Node2694&#45;&gt;Node2710 -->
<g id="edge32" class="edge">
<title>Node2694&#45;&gt;Node2710</title>
<path fill="none" stroke="#191970" d="M62.6417,-603.405C73.445,-569.825 100.4937,-501.919 150,-471 182.3532,-450.7939 451.7169,-437.3497 528.904,-433.8856"/>
<polygon fill="#191970" stroke="#191970" points="59.1705,-602.7876 59.5917,-613.374 65.8642,-604.8355 59.1705,-602.7876"/>
</g>
<!-- Node3243 -->
<g id="node24" class="node">
<title>Node3243</title>
<g id="a_node24"><a xlink:href="list_8h.html#a8452a5e19043ca17f9b80b4443399e3b" target="_top" xlink:title="Split a string into a list using a separator char. ">
<polygon fill="#ffffff" stroke="#ff0000" points="175.5,-328.5 175.5,-347.5 279.5,-347.5 279.5,-328.5 175.5,-328.5"/>
<text text-anchor="middle" x="227.5" y="-335.5" font-family="Helvetica,sans-Serif" font-size="10.00" fill="#000000">mutt_list_str_split</text>
</a>
</g>
</g>
<!-- Node2694&#45;&gt;Node3243 -->
<g id="edge33" class="edge">
<title>Node2694&#45;&gt;Node3243</title>
<path fill="none" stroke="#191970" d="M57.7832,-603.2507C60.85,-553.89 75.9237,-424.2911 150,-357 157.0754,-350.5727 165.9668,-346.2299 175.1813,-343.3147"/>
<polygon fill="#191970" stroke="#191970" points="54.2869,-603.0893 57.2628,-613.2576 61.2775,-603.4529 54.2869,-603.0893"/>
</g>
<!-- Node3253 -->
<g id="node25" class="node">
<title>Node3253</title>
<g id="a_node25"><a xlink:href="mutt__attach_8h.html#acc6c49a75e5a6fce41d18c1d95a45948" target="_top" xlink:title="Add file to list of temporary attachments. ">
<polygon fill="#ffffff" stroke="#ff0000" points="150,-290.5 150,-309.5 305,-309.5 305,-290.5 150,-290.5"/>
<text text-anchor="middle" x="227.5" y="-297.5" font-family="Helvetica,sans-Serif" font-size="10.00" fill="#000000">mutt_add_temp_attachment</text>
</a>
</g>
</g>
<!-- Node2694&#45;&gt;Node3253 -->
<g id="edge34" class="edge">
<title>Node2694&#45;&gt;Node3253</title>
<path fill="none" stroke="#191970" d="M60.4115,-603.3608C71.3489,-542.5975 107.3284,-359.3279 150,-319 154.0273,-315.1939 158.6882,-312.1133 163.6864,-309.6244"/>
<polygon fill="#191970" stroke="#191970" points="56.9632,-602.7616 58.6647,-613.2189 63.8559,-603.983 56.9632,-602.7616"/>
</g>
<!-- Node3254 -->
<g id="node26" class="node">
<title>Node3254</title>
<g id="a_node26"><a xlink:href="muttlib_8h.html#a2e3c864ac49cfb7bc862c32416baf81d" target="_top" xlink:title="Add a string to a list. ">
<polygon fill="#ffffff" stroke="#ff0000" points="186.5,-366.5 186.5,-385.5 268.5,-385.5 268.5,-366.5 186.5,-366.5"/>
<text text-anchor="middle" x="227.5" y="-373.5" font-family="Helvetica,sans-Serif" font-size="10.00" fill="#000000">add_to_stailq</text>
</a>
</g>
</g>
<!-- Node2694&#45;&gt;Node3254 -->
<g id="edge35" class="edge">
<title>Node2694&#45;&gt;Node3254</title>
<path fill="none" stroke="#191970" d="M59.5736,-603.2398C66.2589,-559.9681 88.1822,-456.2188 150,-400 160.0037,-390.9024 173.403,-385.253 186.2445,-381.745"/>
<polygon fill="#191970" stroke="#191970" points="56.0839,-602.9188 58.1288,-613.3144 63.013,-603.9126 56.0839,-602.9188"/>
</g>
<!-- Node3258 -->
<g id="node27" class="node">
<title>Node3258</title>
<g id="a_node27"><a xlink:href="crypt__gpgme_8c.html#a6413c7e6bbfa71d8114053a970ae2ff2" target="_top" xlink:title="Split a string and add the parts to a List. ">
<polygon fill="#ffffff" stroke="#ff0000" points="171,-241 171,-271 284,-271 284,-241 171,-241"/>
<text text-anchor="start" x="179" y="-259" font-family="Helvetica,sans-Serif" font-size="10.00" fill="#000000">crypt_add_string_to</text>
<text text-anchor="middle" x="227.5" y="-248" font-family="Helvetica,sans-Serif" font-size="10.00" fill="#000000">_hints</text>
</a>
</g>
</g>
<!-- Node2694&#45;&gt;Node3258 -->
<g id="edge37" class="edge">
<title>Node2694&#45;&gt;Node3258</title>
<path fill="none" stroke="#191970" d="M59.866,-603.2535C69.7468,-537.7185 104.3103,-328.8668 150,-281 155.7593,-274.9663 162.9804,-270.3858 170.6836,-266.9093"/>
<polygon fill="#191970" stroke="#191970" points="56.3599,-603.037 58.3561,-613.4421 63.2843,-604.0632 56.3599,-603.037"/>
</g>
<!-- Node3259 -->
<g id="node28" class="node">
<title>Node3259</title>
<g id="a_node28"><a xlink:href="pgpkey_8c.html#a40177845326ba43e7b01949fa290a368" target="_top" xlink:title="Split a string and add the parts to a List. ">
<polygon fill="#ffffff" stroke="#ff0000" points="160,-202.5 160,-221.5 295,-221.5 295,-202.5 160,-202.5"/>
<text text-anchor="middle" x="227.5" y="-209.5" font-family="Helvetica,sans-Serif" font-size="10.00" fill="#000000">pgp_add_string_to_hints</text>
</a>
</g>
</g>
<!-- Node2694&#45;&gt;Node3259 -->
<g id="edge38" class="edge">
<title>Node2694&#45;&gt;Node3259</title>
<path fill="none" stroke="#191970" d="M59.0025,-603.1016C66.6509,-531.0352 96.3242,-285.0788 150,-231 153.806,-227.1654 158.2511,-224.0582 163.0521,-221.5457"/>
<polygon fill="#191970" stroke="#191970" points="55.4788,-603.1501 57.9296,-613.4576 62.4415,-603.8715 55.4788,-603.1501"/>
</g>
<!-- Node3260 -->
<g id="node29" class="node">
<title>Node3260</title>
<g id="a_node29"><a xlink:href="compile_8c.html#a05c35546f8ae6e83b41a0c65c789469d" target="_top" xlink:title="Parse a Message&#45;Id and add it to a list &#45; Implements mutt_file_map_t. ">
<polygon fill="#ffffff" stroke="#ff0000" points="176,-164.5 176,-183.5 279,-183.5 279,-164.5 176,-164.5"/>
<text text-anchor="middle" x="227.5" y="-171.5" font-family="Helvetica,sans-Serif" font-size="10.00" fill="#000000">add_query_msgid</text>
</a>
</g>
</g>
<!-- Node2694&#45;&gt;Node3260 -->
<g id="edge39" class="edge">
<title>Node2694&#45;&gt;Node3260</title>
<path fill="none" stroke="#191970" d="M58.5484,-603.1636C64.9066,-526.8061 91.4857,-253.1413 150,-193 156.9556,-185.851 166.129,-181.2204 175.7226,-178.2571"/>
<polygon fill="#191970" stroke="#191970" points="55.0456,-603.0578 57.7275,-613.3075 62.0228,-603.6225 55.0456,-603.0578"/>
</g>
<!-- Node2961 -->
<g id="node30" class="node">
<title>Node2961</title>
<g id="a_node30"><a xlink:href="protos_8h.html#a625a6f9a0389d9c1aa74e95dfe7df1ac" target="_top" xlink:title="Recall a postponed message. ">
<polygon fill="#ffffff" stroke="#ff0000" points="169,-126.5 169,-145.5 286,-145.5 286,-126.5 169,-126.5"/>
<text text-anchor="middle" x="227.5" y="-133.5" font-family="Helvetica,sans-Serif" font-size="10.00" fill="#000000">mutt_get_postponed</text>
</a>
</g>
</g>
<!-- Node2694&#45;&gt;Node2961 -->
<g id="edge40" class="edge">
<title>Node2694&#45;&gt;Node2961</title>
<path fill="none" stroke="#191970" d="M58.1825,-602.9946C63.3623,-522.2052 86.686,-221.18 150,-155 155.2671,-149.4944 161.8483,-145.4775 168.9357,-142.5638"/>
<polygon fill="#191970" stroke="#191970" points="54.6716,-603.0651 57.5474,-613.2622 61.6582,-603.4974 54.6716,-603.0651"/>
</g>
<!-- Node3188 -->
<g id="node31" class="node">
<title>Node3188</title>
<g id="a_node31"><a xlink:href="remailer_8h.html#adc3bfc78dd5fcda39be0a3dabeeb8a5c" target="_top" xlink:title="Create a Mixmaster chain. ">
<polygon fill="#ffffff" stroke="#ff0000" points="165,-77 165,-107 290,-107 290,-77 165,-77"/>
<text text-anchor="start" x="173" y="-95" font-family="Helvetica,sans-Serif" font-size="10.00" fill="#000000">dlg_select_mixmaster</text>
<text text-anchor="middle" x="227.5" y="-84" font-family="Helvetica,sans-Serif" font-size="10.00" fill="#000000">_chain</text>
</a>
</g>
</g>
<!-- Node2694&#45;&gt;Node3188 -->
<g id="edge41" class="edge">
<title>Node2694&#45;&gt;Node3188</title>
<path fill="none" stroke="#191970" d="M57.9918,-603.1479C62.5876,-518.8799 84.4497,-191.6988 150,-117 154.1962,-112.2182 159.3118,-108.345 164.894,-105.2087"/>
<polygon fill="#191970" stroke="#191970" points="54.4841,-603.205 57.4552,-613.3747 61.4745,-603.5719 54.4841,-603.205"/>
</g>
<!-- Node3272 -->
<g id="node32" class="node">
<title>Node3272</title>
<g id="a_node32"><a xlink:href="send_8c.html#a9bca5c9f44a7908485389d16dcf20f96" target="_top" xlink:title="Process the user headers. ">
<polygon fill="#ffffff" stroke="#ff0000" points="168,-38.5 168,-57.5 287,-57.5 287,-38.5 168,-38.5"/>
<text text-anchor="middle" x="227.5" y="-45.5" font-family="Helvetica,sans-Serif" font-size="10.00" fill="#000000">process_user_header</text>
</a>
</g>
</g>
<!-- Node2694&#45;&gt;Node3272 -->
<g id="edge42" class="edge">
<title>Node2694&#45;&gt;Node3272</title>
<path fill="none" stroke="#191970" d="M57.4949,-603.0849C60.1331,-513.3418 75.3818,-147.4102 150,-67 154.9001,-61.7196 161.0071,-57.8004 167.6286,-54.9073"/>
<polygon fill="#191970" stroke="#191970" points="53.9918,-603.1547 57.2167,-613.2468 60.9892,-603.3463 53.9918,-603.1547"/>
</g>
<!-- Node3273 -->
<g id="node33" class="node">
<title>Node3273</title>
<g id="a_node33"><a xlink:href="send_8c.html#af14544f55d0b62fcba84643fadec4890" target="_top" xlink:title="Add the email&#39;s references to a list. ">
<polygon fill="#ffffff" stroke="#ff0000" points="181.5,-.5 181.5,-19.5 273.5,-19.5 273.5,-.5 181.5,-.5"/>
<text text-anchor="middle" x="227.5" y="-7.5" font-family="Helvetica,sans-Serif" font-size="10.00" fill="#000000">add_references</text>
</a>
</g>
</g>
<!-- Node2694&#45;&gt;Node3273 -->
<g id="edge43" class="edge">
<title>Node2694&#45;&gt;Node3273</title>
<path fill="none" stroke="#191970" d="M57.2589,-603.2342C58.8863,-510.0622 70.4455,-115.6312 150,-29 158.152,-20.1228 169.714,-15.085 181.4267,-12.3022"/>
<polygon fill="#191970" stroke="#191970" points="53.7555,-603.4351 57.1001,-613.4881 60.7546,-603.5436 53.7555,-603.4351"/>
</g>
<!-- Node3201&#45;&gt;Node3198 -->
<g id="edge6" class="edge">
<title>Node3201&#45;&gt;Node3198</title>
<path fill="none" stroke="#191970" d="M268.0962,-1102.2034C298.6132,-1105.3632 340.2265,-1109.672 370.6769,-1112.8249"/>
<polygon fill="#191970" stroke="#191970" points="268.1086,-1098.6861 257.8013,-1101.1375 267.3876,-1105.6489 268.1086,-1098.6861"/>
</g>
<!-- Node3207&#45;&gt;Node2722 -->
<g id="edge9" class="edge">
<title>Node3207&#45;&gt;Node2722</title>
<path fill="none" stroke="#191970" d="M267.4213,-950.1335C288.8414,-952.3514 315.8701,-955.15 340.6834,-957.7193"/>
<polygon fill="#191970" stroke="#191970" points="267.6982,-946.6436 257.3908,-949.095 266.9772,-953.6064 267.6982,-946.6436"/>
</g>
<!-- Node3208&#45;&gt;Node3210 -->
<g id="edge13" class="edge">
<title>Node3208&#45;&gt;Node3210</title>
<path fill="none" stroke="#191970" d="M252.8649,-770.5897C275.4387,-783.1204 309.6429,-801.0097 341,-813 350.2919,-816.5531 360.5151,-819.7226 370.2099,-822.4069"/>
<polygon fill="#191970" stroke="#191970" points="254.3776,-767.4251 243.9446,-765.5802 250.95,-773.5285 254.3776,-767.4251"/>
</g>
<!-- Node3208&#45;&gt;Node3212 -->
<g id="edge14" class="edge">
<title>Node3208&#45;&gt;Node3212</title>
<path fill="none" stroke="#191970" d="M277.2019,-745.7075C307.2966,-739.4754 345.0927,-731.6484 372.8307,-725.9043"/>
<polygon fill="#191970" stroke="#191970" points="276.3992,-742.2994 267.3168,-747.7546 277.8188,-749.154 276.3992,-742.2994"/>
</g>
<!-- Node3208&#45;&gt;Node3214 -->
<g id="edge15" class="edge">
<title>Node3208&#45;&gt;Node3214</title>
<path fill="none" stroke="#191970" d="M252.8649,-741.4103C275.4387,-728.8796 309.6429,-710.9903 341,-699 350.2919,-695.4469 360.5151,-692.2774 370.2099,-689.5931"/>
<polygon fill="#191970" stroke="#191970" points="250.95,-738.4715 243.9446,-746.4198 254.3776,-744.5749 250.95,-738.4715"/>
</g>
<!-- Node3208&#45;&gt;Node3223 -->
<g id="edge16" class="edge">
<title>Node3208&#45;&gt;Node3223</title>
<path fill="none" stroke="#191970" d="M277.1464,-766.281C309.8434,-773.052 351.6497,-781.7095 379.7678,-787.5323"/>
<polygon fill="#191970" stroke="#191970" points="277.8188,-762.846 267.3168,-764.2454 276.3992,-769.7006 277.8188,-762.846"/>
</g>
<!-- Node3208&#45;&gt;Node3224 -->
<g id="edge19" class="edge">
<title>Node3208&#45;&gt;Node3224</title>
<path fill="none" stroke="#191970" d="M277.483,-756.8658C328.8706,-758.4278 411.0387,-762.7968 481,-775 494.0088,-777.2691 508.1099,-780.9606 520.1175,-784.4891"/>
<polygon fill="#191970" stroke="#191970" points="277.4086,-753.3625 267.3146,-756.5813 277.2128,-760.3597 277.4086,-753.3625"/>
</g>
<!-- Node3223&#45;&gt;Node3224 -->
<g id="edge17" class="edge">
<title>Node3223&#45;&gt;Node3224</title>
<path fill="none" stroke="#191970" d="M452.1268,-787.7713C472.7071,-786.9658 497.2796,-787.0938 516.591,-788.1553"/>
<polygon fill="#191970" stroke="#191970" points="451.9004,-784.278 442.0821,-788.2595 452.2403,-791.2698 451.9004,-784.278"/>
</g>
<!-- Node3224&#45;&gt;Node3223 -->
<g id="edge18" class="edge">
<title>Node3224&#45;&gt;Node3223</title>
<path fill="none" stroke="#191970" d="M506.3971,-800.3028C485.5721,-801.0489 461.0494,-800.8614 442.0821,-799.7405"/>
<polygon fill="#191970" stroke="#191970" points="506.7582,-803.7902 516.591,-799.8447 506.4439,-796.7972 506.7582,-803.7902"/>
</g>
<!-- Node2882&#45;&gt;Node2710 -->
<g id="edge31" class="edge">
<title>Node2882&#45;&gt;Node2710</title>
<path fill="none" stroke="#191970" d="M451.7882,-419.5955C477.0564,-423.0619 508.4453,-427.3679 528.7183,-430.1491"/>
<polygon fill="#191970" stroke="#191970" points="452.1206,-416.1084 441.7376,-418.2167 451.1691,-423.0434 452.1206,-416.1084"/>
</g>
<!-- Node3254&#45;&gt;Node2882 -->
<g id="edge36" class="edge">
<title>Node3254&#45;&gt;Node2882</title>
<path fill="none" stroke="#191970" d="M278.5178,-386.565C311.188,-393.3305 352.5034,-401.8863 380.2345,-407.6289"/>
<polygon fill="#191970" stroke="#191970" points="279.183,-383.1286 268.681,-384.5279 277.7635,-389.9831 279.183,-383.1286"/>
</g>
</g>
</svg>
