<?xml version="1.0" encoding="UTF-8" standalone="no"?>
<!DOCTYPE svg PUBLIC "-//W3C//DTD SVG 1.1//EN"
 "http://www.w3.org/Graphics/SVG/1.1/DTD/svg11.dtd">
<!-- Generated by graphviz version 2.40.1 (20161225.0304)
 -->
<!-- Title: log_queue_set_max_size Pages: 1 -->
<svg width="294pt" height="78pt"
 viewBox="0.00 0.00 294.00 77.50" xmlns="http://www.w3.org/2000/svg" xmlns:xlink="http://www.w3.org/1999/xlink">
<g id="graph0" class="graph" transform="scale(1 1) rotate(0) translate(4 73.5)">
<title>log_queue_set_max_size</title>
<polygon fill="#ffffff" stroke="transparent" points="-4,4 -4,-73.5 290,-73.5 290,4 -4,4"/>
<!-- Node201 -->
<g id="node1" class="node">
<title>Node201</title>
<polygon fill="#bfbfbf" stroke="#000000" points="0,-28 0,-47 139,-47 139,-28 0,-28"/>
<text text-anchor="middle" x="69.5" y="-35" font-family="Helvetica,sans-Serif" font-size="10.00" fill="#000000">log_queue_set_max_size</text>
</g>
<!-- Node202 -->
<g id="node2" class="node">
<title>Node202</title>
<g id="a_node2"><a xlink:href="main_8c.html#adedb285b02c41bde2158ded9cc9fd7ac" target="_top" xlink:title="Start NeoMutt. ">
<polygon fill="#ffffff" stroke="#000000" points="210,-50 210,-69 251,-69 251,-50 210,-50"/>
<text text-anchor="middle" x="230.5" y="-57" font-family="Helvetica,sans-Serif" font-size="10.00" fill="#000000">main</text>
</a>
</g>
</g>
<!-- Node201&#45;&gt;Node202 -->
<g id="edge1" class="edge">
<title>Node201&#45;&gt;Node202</title>
<path fill="none" stroke="#191970" d="M149.1574,-48.3849C171.6952,-51.4646 194.321,-54.5563 209.9675,-56.6943"/>
<polygon fill="#191970" stroke="#191970" points="149.5624,-44.9078 139.1806,-47.0216 148.6146,-51.8433 149.5624,-44.9078"/>
</g>
<!-- Node203 -->
<g id="node3" class="node">
<title>Node203</title>
<g id="a_node3"><a xlink:href="log__queue__set__max__size_8c.html#a82d3695856c7374d538941933fadb8e5" target="_top" xlink:title="test_log_queue_set\l_max_size">
<polygon fill="#ffffff" stroke="#000000" points="175,-.5 175,-30.5 286,-30.5 286,-.5 175,-.5"/>
<text text-anchor="start" x="183" y="-18.5" font-family="Helvetica,sans-Serif" font-size="10.00" fill="#000000">test_log_queue_set</text>
<text text-anchor="middle" x="230.5" y="-7.5" font-family="Helvetica,sans-Serif" font-size="10.00" fill="#000000">_max_size</text>
</a>
</g>
</g>
<!-- Node201&#45;&gt;Node203 -->
<g id="edge2" class="edge">
<title>Node201&#45;&gt;Node203</title>
<path fill="none" stroke="#191970" d="M149.2719,-26.5995C157.8927,-25.4215 166.5247,-24.242 174.7723,-23.115"/>
<polygon fill="#191970" stroke="#191970" points="148.6146,-23.1567 139.1806,-27.9784 149.5624,-30.0922 148.6146,-23.1567"/>
</g>
</g>
</svg>
