<?xml version="1.0" encoding="UTF-8" standalone="no"?>
<!DOCTYPE svg PUBLIC "-//W3C//DTD SVG 1.1//EN"
 "http://www.w3.org/Graphics/SVG/1.1/DTD/svg11.dtd">
<!-- Generated by graphviz version 2.40.1 (20161225.0304)
 -->
<!-- Title: log_disp_null Pages: 1 -->
<svg width="270pt" height="66pt"
 viewBox="0.00 0.00 270.00 66.00" xmlns="http://www.w3.org/2000/svg" xmlns:xlink="http://www.w3.org/1999/xlink">
<g id="graph0" class="graph" transform="scale(1 1) rotate(0) translate(4 62)">
<title>log_disp_null</title>
<polygon fill="#ffffff" stroke="transparent" points="-4,4 -4,-62 266,-62 266,4 -4,4"/>
<!-- Node762 -->
<g id="node1" class="node">
<title>Node762</title>
<polygon fill="#bfbfbf" stroke="#000000" points="0,-19.5 0,-38.5 80,-38.5 80,-19.5 0,-19.5"/>
<text text-anchor="middle" x="40" y="-26.5" font-family="Helvetica,sans-Serif" font-size="10.00" fill="#000000">log_disp_null</text>
</g>
<!-- Node763 -->
<g id="node2" class="node">
<title>Node763</title>
<g id="a_node2"><a xlink:href="mutt__mem__malloc_8c.html#a2f7e106cefd3c4bf0040a94911f21751" target="_top" xlink:title="test_mutt_mem_malloc">
<polygon fill="#ffffff" stroke="#000000" points="122.5,-38.5 122.5,-57.5 255.5,-57.5 255.5,-38.5 122.5,-38.5"/>
<text text-anchor="middle" x="189" y="-45.5" font-family="Helvetica,sans-Serif" font-size="10.00" fill="#000000">test_mutt_mem_malloc</text>
</a>
</g>
</g>
<!-- Node762&#45;&gt;Node763 -->
<g id="edge1" class="edge">
<title>Node762&#45;&gt;Node763</title>
<path fill="none" stroke="#191970" d="M90.3127,-35.4157C100.5658,-36.7232 111.5045,-38.118 122.2274,-39.4854"/>
<polygon fill="#191970" stroke="#191970" points="90.684,-31.9348 80.3215,-34.1417 89.7985,-38.8786 90.684,-31.9348"/>
</g>
<!-- Node764 -->
<g id="node3" class="node">
<title>Node764</title>
<g id="a_node3"><a xlink:href="mutt__parse__multipart_8c.html#aeeeea515c0f8455f0317607bd3ad683c" target="_top" xlink:title="test_mutt_parse_multipart">
<polygon fill="#ffffff" stroke="#000000" points="116,-.5 116,-19.5 262,-19.5 262,-.5 116,-.5"/>
<text text-anchor="middle" x="189" y="-7.5" font-family="Helvetica,sans-Serif" font-size="10.00" fill="#000000">test_mutt_parse_multipart</text>
</a>
</g>
</g>
<!-- Node762&#45;&gt;Node764 -->
<g id="edge2" class="edge">
<title>Node762&#45;&gt;Node764</title>
<path fill="none" stroke="#191970" d="M90.4495,-22.5668C98.6568,-21.5203 107.3004,-20.4181 115.9186,-19.3191"/>
<polygon fill="#191970" stroke="#191970" points="89.7985,-19.1214 80.3215,-23.8583 90.684,-26.0652 89.7985,-19.1214"/>
</g>
</g>
</svg>
