<?xml version="1.0" encoding="UTF-8" standalone="no"?>
<!DOCTYPE svg PUBLIC "-//W3C//DTD SVG 1.1//EN"
 "http://www.w3.org/Graphics/SVG/1.1/DTD/svg11.dtd">
<!-- Generated by graphviz version 2.40.1 (20161225.0304)
 -->
<!-- Title: mutt/logging.c Pages: 1 -->
<svg width="879pt" height="140pt"
 viewBox="0.00 0.00 879.38 140.00" xmlns="http://www.w3.org/2000/svg" xmlns:xlink="http://www.w3.org/1999/xlink">
<g id="graph0" class="graph" transform="scale(1 1) rotate(0) translate(4 136)">
<title>mutt/logging.c</title>
<polygon fill="#ffffff" stroke="transparent" points="-4,4 -4,-136 875.3814,-136 875.3814,4 -4,4"/>
<!-- Node0 -->
<g id="node1" class="node">
<title>Node0</title>
<polygon fill="#bfbfbf" stroke="#000000" points="378.7849,-112.5 378.7849,-131.5 465.7849,-131.5 465.7849,-112.5 378.7849,-112.5"/>
<text text-anchor="middle" x="422.2849" y="-119.5" font-family="Helvetica,sans-Serif" font-size="10.00" fill="#000000">mutt/logging.c</text>
</g>
<!-- Node1 -->
<g id="node2" class="node">
<title>Node1</title>
<polygon fill="#ffffff" stroke="#bfbfbf" points="107.7849,-.5 107.7849,-19.5 162.7849,-19.5 162.7849,-.5 107.7849,-.5"/>
<text text-anchor="middle" x="135.2849" y="-7.5" font-family="Helvetica,sans-Serif" font-size="10.00" fill="#000000">config.h</text>
</g>
<!-- Node0&#45;&gt;Node1 -->
<g id="edge1" class="edge">
<title>Node0&#45;&gt;Node1</title>
<path fill="none" stroke="#191970" d="M378.6931,-120.395C277.184,-116.2103 31.7632,-103.3415 7.2849,-76 -22.1578,-43.1134 49.8847,-24.197 97.4401,-15.6228"/>
<polygon fill="#191970" stroke="#191970" points="98.2,-19.0436 107.463,-13.901 97.0148,-12.1447 98.2,-19.0436"/>
</g>
<!-- Node2 -->
<g id="node3" class="node">
<title>Node2</title>
<polygon fill="#ffffff" stroke="#bfbfbf" points="16.7849,-56.5 16.7849,-75.5 67.7849,-75.5 67.7849,-56.5 16.7849,-56.5"/>
<text text-anchor="middle" x="42.2849" y="-63.5" font-family="Helvetica,sans-Serif" font-size="10.00" fill="#000000">errno.h</text>
</g>
<!-- Node0&#45;&gt;Node2 -->
<g id="edge2" class="edge">
<title>Node0&#45;&gt;Node2</title>
<path fill="none" stroke="#191970" d="M378.6433,-118.2388C314.7027,-112.279 191.7229,-99.1142 77.7343,-75.8156"/>
<polygon fill="#191970" stroke="#191970" points="78.2946,-72.3574 67.792,-73.7525 76.8723,-79.2114 78.2946,-72.3574"/>
</g>
<!-- Node3 -->
<g id="node4" class="node">
<title>Node3</title>
<polygon fill="#ffffff" stroke="#bfbfbf" points="86.2849,-56.5 86.2849,-75.5 142.2849,-75.5 142.2849,-56.5 86.2849,-56.5"/>
<text text-anchor="middle" x="114.2849" y="-63.5" font-family="Helvetica,sans-Serif" font-size="10.00" fill="#000000">stdarg.h</text>
</g>
<!-- Node0&#45;&gt;Node3 -->
<g id="edge3" class="edge">
<title>Node0&#45;&gt;Node3</title>
<path fill="none" stroke="#191970" d="M378.3525,-115.2655C325.4822,-106.962 234.0998,-91.9758 156.2849,-76 155.0459,-75.7456 153.7877,-75.4813 152.5183,-75.2095"/>
<polygon fill="#191970" stroke="#191970" points="153.22,-71.7801 142.6979,-73.019 151.696,-78.6122 153.22,-71.7801"/>
</g>
<!-- Node4 -->
<g id="node5" class="node">
<title>Node4</title>
<polygon fill="#ffffff" stroke="#bfbfbf" points="447.2849,-.5 447.2849,-19.5 509.2849,-19.5 509.2849,-.5 447.2849,-.5"/>
<text text-anchor="middle" x="478.2849" y="-7.5" font-family="Helvetica,sans-Serif" font-size="10.00" fill="#000000">stdbool.h</text>
</g>
<!-- Node0&#45;&gt;Node4 -->
<g id="edge4" class="edge">
<title>Node0&#45;&gt;Node4</title>
<path fill="none" stroke="#191970" d="M432.0889,-112.2386C440.409,-103.4506 452.1071,-89.8263 459.2849,-76 466.839,-61.4489 471.7596,-43.4888 474.6964,-29.9794"/>
<polygon fill="#191970" stroke="#191970" points="478.1928,-30.3416 476.711,-19.851 471.3273,-28.976 478.1928,-30.3416"/>
</g>
<!-- Node5 -->
<g id="node6" class="node">
<title>Node5</title>
<polygon fill="#ffffff" stroke="#bfbfbf" points="558.2849,-.5 558.2849,-19.5 608.2849,-19.5 608.2849,-.5 558.2849,-.5"/>
<text text-anchor="middle" x="583.2849" y="-7.5" font-family="Helvetica,sans-Serif" font-size="10.00" fill="#000000">stdio.h</text>
</g>
<!-- Node0&#45;&gt;Node5 -->
<g id="edge5" class="edge">
<title>Node0&#45;&gt;Node5</title>
<path fill="none" stroke="#191970" d="M465.9746,-119.7907C526.6894,-115.702 631.7882,-104.5891 655.2849,-76 671.6825,-56.0486 643.0879,-36.4772 617.2302,-23.8948"/>
<polygon fill="#191970" stroke="#191970" points="618.4615,-20.6082 607.916,-19.5877 615.5234,-26.9617 618.4615,-20.6082"/>
</g>
<!-- Node6 -->
<g id="node7" class="node">
<title>Node6</title>
<polygon fill="#ffffff" stroke="#bfbfbf" points="257.7849,-56.5 257.7849,-75.5 310.7849,-75.5 310.7849,-56.5 257.7849,-56.5"/>
<text text-anchor="middle" x="284.2849" y="-63.5" font-family="Helvetica,sans-Serif" font-size="10.00" fill="#000000">string.h</text>
</g>
<!-- Node0&#45;&gt;Node6 -->
<g id="edge6" class="edge">
<title>Node0&#45;&gt;Node6</title>
<path fill="none" stroke="#191970" d="M398.5619,-112.3733C376.1113,-103.2629 342.211,-89.5062 317.1594,-79.3404"/>
<polygon fill="#191970" stroke="#191970" points="318.2806,-76.0182 307.6984,-75.5011 315.6485,-82.5045 318.2806,-76.0182"/>
</g>
<!-- Node7 -->
<g id="node8" class="node">
<title>Node7</title>
<polygon fill="#ffffff" stroke="#bfbfbf" points="261.2849,-.5 261.2849,-19.5 309.2849,-19.5 309.2849,-.5 261.2849,-.5"/>
<text text-anchor="middle" x="285.2849" y="-7.5" font-family="Helvetica,sans-Serif" font-size="10.00" fill="#000000">time.h</text>
</g>
<!-- Node0&#45;&gt;Node7 -->
<g id="edge7" class="edge">
<title>Node0&#45;&gt;Node7</title>
<path fill="none" stroke="#191970" d="M378.5952,-119.7907C317.8805,-115.702 212.7817,-104.5891 189.2849,-76 167.6861,-49.7201 215.9035,-29.4838 251.5236,-18.693"/>
<polygon fill="#191970" stroke="#191970" points="252.5345,-22.0442 261.1678,-15.9028 250.589,-15.32 252.5345,-22.0442"/>
</g>
<!-- Node8 -->
<g id="node9" class="node">
<title>Node8</title>
<polygon fill="#ffffff" stroke="#bfbfbf" points="394.2849,-56.5 394.2849,-75.5 450.2849,-75.5 450.2849,-56.5 394.2849,-56.5"/>
<text text-anchor="middle" x="422.2849" y="-63.5" font-family="Helvetica,sans-Serif" font-size="10.00" fill="#000000">unistd.h</text>
</g>
<!-- Node0&#45;&gt;Node8 -->
<g id="edge8" class="edge">
<title>Node0&#45;&gt;Node8</title>
<path fill="none" stroke="#191970" d="M422.2849,-112.2455C422.2849,-104.9382 422.2849,-94.6944 422.2849,-85.7046"/>
<polygon fill="#191970" stroke="#191970" points="425.785,-85.6426 422.2849,-75.6427 418.785,-85.6427 425.785,-85.6426"/>
</g>
<!-- Node9 -->
<g id="node10" class="node">
<title>Node9</title>
<g id="a_node10"><a xlink:href="logging_8h.html" target="_top" xlink:title="Logging Dispatcher. ">
<polygon fill="#ffffff" stroke="#000000" points="584.2849,-56.5 584.2849,-75.5 646.2849,-75.5 646.2849,-56.5 584.2849,-56.5"/>
<text text-anchor="middle" x="615.2849" y="-63.5" font-family="Helvetica,sans-Serif" font-size="10.00" fill="#000000">logging.h</text>
</a>
</g>
</g>
<!-- Node0&#45;&gt;Node9 -->
<g id="edge9" class="edge">
<title>Node0&#45;&gt;Node9</title>
<path fill="none" stroke="#191970" d="M455.4628,-112.3733C488.3241,-102.8384 538.7253,-88.2142 574.1222,-77.9436"/>
<polygon fill="#191970" stroke="#191970" points="575.506,-81.1865 584.1346,-75.0384 573.5554,-74.4638 575.506,-81.1865"/>
</g>
<!-- Node10 -->
<g id="node11" class="node">
<title>Node10</title>
<g id="a_node11"><a xlink:href="queue_8h.html" target="_top" xlink:title="queue.h">
<polygon fill="#ffffff" stroke="#000000" points="741.2849,-.5 741.2849,-19.5 797.2849,-19.5 797.2849,-.5 741.2849,-.5"/>
<text text-anchor="middle" x="769.2849" y="-7.5" font-family="Helvetica,sans-Serif" font-size="10.00" fill="#000000">queue.h</text>
</a>
</g>
</g>
<!-- Node0&#45;&gt;Node10 -->
<g id="edge24" class="edge">
<title>Node0&#45;&gt;Node10</title>
<path fill="none" stroke="#191970" d="M466.0332,-120.7158C572.597,-117.1382 838.8471,-105.3252 865.2849,-76 887.3197,-51.5587 842.5679,-31.5255 807.0225,-20.1698"/>
<polygon fill="#191970" stroke="#191970" points="807.8904,-16.7753 797.3041,-17.2006 805.845,-23.4699 807.8904,-16.7753"/>
</g>
<!-- Node11 -->
<g id="node12" class="node">
<title>Node11</title>
<g id="a_node12"><a xlink:href="date_8h.html" target="_top" xlink:title="Time and date handling routines. ">
<polygon fill="#ffffff" stroke="#ff0000" points="328.7849,-56.5 328.7849,-75.5 375.7849,-75.5 375.7849,-56.5 328.7849,-56.5"/>
<text text-anchor="middle" x="352.2849" y="-63.5" font-family="Helvetica,sans-Serif" font-size="10.00" fill="#000000">date.h</text>
</a>
</g>
</g>
<!-- Node0&#45;&gt;Node11 -->
<g id="edge14" class="edge">
<title>Node0&#45;&gt;Node11</title>
<path fill="none" stroke="#191970" d="M410.0919,-112.2455C399.6528,-103.8943 384.4194,-91.7076 372.2109,-81.9408"/>
<polygon fill="#191970" stroke="#191970" points="374.3334,-79.1566 364.3383,-75.6427 369.9605,-84.6227 374.3334,-79.1566"/>
</g>
<!-- Node13 -->
<g id="node13" class="node">
<title>Node13</title>
<g id="a_node13"><a xlink:href="file_8h.html" target="_top" xlink:title="File management functions. ">
<polygon fill="#ffffff" stroke="#ff0000" points="198.7849,-56.5 198.7849,-75.5 239.7849,-75.5 239.7849,-56.5 198.7849,-56.5"/>
<text text-anchor="middle" x="219.2849" y="-63.5" font-family="Helvetica,sans-Serif" font-size="10.00" fill="#000000">file.h</text>
</a>
</g>
</g>
<!-- Node0&#45;&gt;Node13 -->
<g id="edge17" class="edge">
<title>Node0&#45;&gt;Node13</title>
<path fill="none" stroke="#191970" d="M383.008,-112.4943C349.7336,-104.2461 300.5747,-91.6043 249.6777,-76.2847"/>
<polygon fill="#191970" stroke="#191970" points="250.4046,-72.8476 239.819,-73.2898 248.3699,-79.5454 250.4046,-72.8476"/>
</g>
<!-- Node15 -->
<g id="node14" class="node">
<title>Node15</title>
<g id="a_node14"><a xlink:href="memory_8h.html" target="_top" xlink:title="Memory management wrappers. ">
<polygon fill="#ffffff" stroke="#ff0000" points="702.7849,-56.5 702.7849,-75.5 767.7849,-75.5 767.7849,-56.5 702.7849,-56.5"/>
<text text-anchor="middle" x="735.2849" y="-63.5" font-family="Helvetica,sans-Serif" font-size="10.00" fill="#000000">memory.h</text>
</a>
</g>
</g>
<!-- Node0&#45;&gt;Node15 -->
<g id="edge22" class="edge">
<title>Node0&#45;&gt;Node15</title>
<path fill="none" stroke="#191970" d="M466.1533,-114.9439C518.9614,-106.3275 610.2832,-91.0368 688.2849,-76 689.744,-75.7187 691.2277,-75.4282 692.7253,-75.131"/>
<polygon fill="#191970" stroke="#191970" points="693.6,-78.5248 702.7018,-73.1018 692.2048,-71.6653 693.6,-78.5248"/>
</g>
<!-- Node17 -->
<g id="node15" class="node">
<title>Node17</title>
<g id="a_node15"><a xlink:href="mutt_2message_8h.html" target="_top" xlink:title="Message logging. ">
<polygon fill="#ffffff" stroke="#ff0000" points="786.2849,-56.5 786.2849,-75.5 856.2849,-75.5 856.2849,-56.5 786.2849,-56.5"/>
<text text-anchor="middle" x="821.2849" y="-63.5" font-family="Helvetica,sans-Serif" font-size="10.00" fill="#000000">message.h</text>
</a>
</g>
</g>
<!-- Node0&#45;&gt;Node17 -->
<g id="edge23" class="edge">
<title>Node0&#45;&gt;Node17</title>
<path fill="none" stroke="#191970" d="M465.9336,-117.6889C531.2772,-110.9407 658.5688,-96.6592 776.3703,-76.0247"/>
<polygon fill="#191970" stroke="#191970" points="777.0449,-79.4598 786.2813,-74.2694 775.8241,-72.5671 777.0449,-79.4598"/>
</g>
<!-- Node19 -->
<g id="node16" class="node">
<title>Node19</title>
<g id="a_node16"><a xlink:href="string2_8h.html" target="_top" xlink:title="String manipulation functions. ">
<polygon fill="#ffffff" stroke="#ff0000" points="506.7849,-56.5 506.7849,-75.5 565.7849,-75.5 565.7849,-56.5 506.7849,-56.5"/>
<text text-anchor="middle" x="536.2849" y="-63.5" font-family="Helvetica,sans-Serif" font-size="10.00" fill="#000000">string2.h</text>
</a>
</g>
</g>
<!-- Node0&#45;&gt;Node19 -->
<g id="edge25" class="edge">
<title>Node0&#45;&gt;Node19</title>
<path fill="none" stroke="#191970" d="M441.8822,-112.3733C460.0181,-103.4644 487.1984,-90.1127 507.7436,-80.0203"/>
<polygon fill="#191970" stroke="#191970" points="509.511,-83.0517 516.9433,-75.5011 506.4246,-76.7688 509.511,-83.0517"/>
</g>
<!-- Node9&#45;&gt;Node4 -->
<g id="edge10" class="edge">
<title>Node9&#45;&gt;Node4</title>
<path fill="none" stroke="#191970" d="M591.7338,-56.3733C569.4459,-47.2629 535.7913,-33.5062 510.9212,-23.3404"/>
<polygon fill="#191970" stroke="#191970" points="512.1096,-20.0451 501.5287,-19.5011 509.461,-26.5247 512.1096,-20.0451"/>
</g>
<!-- Node9&#45;&gt;Node5 -->
<g id="edge11" class="edge">
<title>Node9&#45;&gt;Node5</title>
<path fill="none" stroke="#191970" d="M609.7109,-56.2455C605.3518,-48.617 599.1639,-37.7881 593.8716,-28.5267"/>
<polygon fill="#191970" stroke="#191970" points="596.7953,-26.5886 588.795,-19.6427 590.7176,-30.0616 596.7953,-26.5886"/>
</g>
<!-- Node9&#45;&gt;Node7 -->
<g id="edge12" class="edge">
<title>Node9&#45;&gt;Node7</title>
<path fill="none" stroke="#191970" d="M583.9013,-57.8779C580.9958,-57.2095 578.0905,-56.5721 575.2849,-56 483.5038,-37.2857 374.0712,-21.7375 319.6121,-14.4519"/>
<polygon fill="#191970" stroke="#191970" points="319.8484,-10.9527 309.4748,-13.1065 318.9273,-17.8918 319.8484,-10.9527"/>
</g>
<!-- Node9&#45;&gt;Node10 -->
<g id="edge13" class="edge">
<title>Node9&#45;&gt;Node10</title>
<path fill="none" stroke="#191970" d="M641.7585,-56.3733C667.1446,-47.1419 705.6494,-33.1402 733.7069,-22.9375"/>
<polygon fill="#191970" stroke="#191970" points="734.955,-26.2079 743.1568,-19.5011 732.5628,-19.6293 734.955,-26.2079"/>
</g>
<!-- Node11&#45;&gt;Node4 -->
<g id="edge15" class="edge">
<title>Node11&#45;&gt;Node4</title>
<path fill="none" stroke="#191970" d="M373.9451,-56.3733C394.2621,-47.3435 424.8489,-33.7494 447.6599,-23.6111"/>
<polygon fill="#191970" stroke="#191970" points="449.1908,-26.7609 456.9074,-19.5011 446.3478,-20.3642 449.1908,-26.7609"/>
</g>
<!-- Node11&#45;&gt;Node7 -->
<g id="edge16" class="edge">
<title>Node11&#45;&gt;Node7</title>
<path fill="none" stroke="#191970" d="M340.6144,-56.2455C330.7188,-47.9746 316.3222,-35.9416 304.6948,-26.2232"/>
<polygon fill="#191970" stroke="#191970" points="306.7391,-23.3703 296.8217,-19.6427 302.2499,-28.7413 306.7391,-23.3703"/>
</g>
<!-- Node13&#45;&gt;Node1 -->
<g id="edge18" class="edge">
<title>Node13&#45;&gt;Node1</title>
<path fill="none" stroke="#191970" d="M204.6532,-56.2455C191.8855,-47.7337 173.1411,-35.2375 158.355,-25.3801"/>
<polygon fill="#191970" stroke="#191970" points="160.0109,-22.2775 149.7489,-19.6427 156.128,-28.1019 160.0109,-22.2775"/>
</g>
<!-- Node13&#45;&gt;Node4 -->
<g id="edge19" class="edge">
<title>Node13&#45;&gt;Node4</title>
<path fill="none" stroke="#191970" d="M240.0895,-58.4505C242.8285,-57.5674 245.6121,-56.7246 248.2849,-56 313.5075,-38.3188 390.8197,-24.231 437.1401,-16.5078"/>
<polygon fill="#191970" stroke="#191970" points="437.8018,-19.946 447.0993,-14.8659 436.6631,-13.0393 437.8018,-19.946"/>
</g>
<!-- Node13&#45;&gt;Node5 -->
<g id="edge20" class="edge">
<title>Node13&#45;&gt;Node5</title>
<path fill="none" stroke="#191970" d="M240.0475,-58.2847C242.7933,-57.4287 245.59,-56.6376 248.2849,-56 366.0949,-28.1289 398.4518,-37.205 518.2849,-20 527.9125,-18.6177 538.3302,-17.0481 547.9461,-15.5688"/>
<polygon fill="#191970" stroke="#191970" points="548.6443,-19.0025 557.9904,-14.0123 547.5723,-12.085 548.6443,-19.0025"/>
</g>
<!-- Node13&#45;&gt;Node7 -->
<g id="edge21" class="edge">
<title>Node13&#45;&gt;Node7</title>
<path fill="none" stroke="#191970" d="M230.7812,-56.2455C240.5291,-47.9746 254.7109,-35.9416 266.1647,-26.2232"/>
<polygon fill="#191970" stroke="#191970" points="268.5597,-28.7813 273.9203,-19.6427 264.0308,-23.4437 268.5597,-28.7813"/>
</g>
<!-- Node19&#45;&gt;Node4 -->
<g id="edge26" class="edge">
<title>Node19&#45;&gt;Node4</title>
<path fill="none" stroke="#191970" d="M526.1821,-56.2455C517.7821,-48.1352 505.6356,-36.4075 495.6765,-26.7919"/>
<polygon fill="#191970" stroke="#191970" points="497.8971,-24.0707 488.272,-19.6427 493.0349,-29.1066 497.8971,-24.0707"/>
</g>
<!-- Node19&#45;&gt;Node5 -->
<g id="edge27" class="edge">
<title>Node19&#45;&gt;Node5</title>
<path fill="none" stroke="#191970" d="M544.4717,-56.2455C551.1438,-48.2958 560.7328,-36.8706 568.7102,-27.3656"/>
<polygon fill="#191970" stroke="#191970" points="571.4441,-29.5525 575.192,-19.6427 566.0823,-25.0524 571.4441,-29.5525"/>
</g>
</g>
</svg>
