<?xml version="1.0" encoding="UTF-8" standalone="no"?>
<!DOCTYPE svg PUBLIC "-//W3C//DTD SVG 1.1//EN"
 "http://www.w3.org/Graphics/SVG/1.1/DTD/svg11.dtd">
<!-- Generated by graphviz version 12.2.1 (20241206.2353)
 -->
<!-- Title: maildir/mailbox.h Pages: 1 -->
<svg width="318pt" height="89pt"
 viewBox="0.00 0.00 317.50 88.50" xmlns="http://www.w3.org/2000/svg" xmlns:xlink="http://www.w3.org/1999/xlink">
<g id="graph0" class="graph" transform="scale(1 1) rotate(0) translate(4 84.5)">
<title>maildir/mailbox.h</title>
<!-- Node1 -->
<g id="Node000001" class="node">
<title>Node1</title>
<g id="a_Node000001"><a xlink:title="Maildir Mailbox.">
<polygon fill="#999999" stroke="#666666" points="204.62,-80.5 108.38,-80.5 108.38,-58.25 204.62,-58.25 204.62,-80.5"/>
<text text-anchor="middle" x="156.5" y="-67" font-family="Helvetica,sans-Serif" font-size="10.00">maildir/mailbox.h</text>
</a>
</g>
</g>
<!-- Node2 -->
<g id="Node000002" class="node">
<title>Node2</title>
<g id="a_Node000002"><a xlink:href="maildir_2hcache_8c.html" target="_top" xlink:title="Maildir Header Cache.">
<polygon fill="white" stroke="#666666" points="91,-22.25 0,-22.25 0,0 91,0 91,-22.25"/>
<text text-anchor="middle" x="45.5" y="-8.75" font-family="Helvetica,sans-Serif" font-size="10.00">maildir/hcache.c</text>
</a>
</g>
</g>
<!-- Node1&#45;&gt;Node2 -->
<g id="edge1_Node000001_Node000002" class="edge">
<title>Node1&#45;&gt;Node2</title>
<g id="a_edge1_Node000001_Node000002"><a xlink:title=" ">
<path fill="none" stroke="#63b8ff" d="M125.41,-52.62C106.52,-43.05 82.93,-31.09 66.28,-22.66"/>
<polygon fill="#63b8ff" stroke="#63b8ff" points="123.77,-55.71 134.27,-57.11 126.93,-49.47 123.77,-55.71"/>
</a>
</g>
</g>
<!-- Node3 -->
<g id="Node000003" class="node">
<title>Node3</title>
<g id="a_Node000003"><a xlink:href="maildir_2mailbox_8c.html" target="_top" xlink:title="Maildir Mailbox.">
<polygon fill="white" stroke="#666666" points="203.88,-22.25 109.12,-22.25 109.12,0 203.88,0 203.88,-22.25"/>
<text text-anchor="middle" x="156.5" y="-8.75" font-family="Helvetica,sans-Serif" font-size="10.00">maildir/mailbox.c</text>
</a>
</g>
</g>
<!-- Node1&#45;&gt;Node3 -->
<g id="edge2_Node000001_Node000003" class="edge">
<title>Node1&#45;&gt;Node3</title>
<g id="a_edge2_Node000001_Node000003"><a xlink:title=" ">
<path fill="none" stroke="#63b8ff" d="M156.5,-46.35C156.5,-38.2 156.5,-29.33 156.5,-22.66"/>
<polygon fill="#63b8ff" stroke="#63b8ff" points="153,-46.28 156.5,-56.28 160,-46.28 153,-46.28"/>
</a>
</g>
</g>
<!-- Node4 -->
<g id="Node000004" class="node">
<title>Node4</title>
<g id="a_Node000004"><a xlink:href="maildir_8c.html" target="_top" xlink:title="Maildir local mailbox type.">
<polygon fill="white" stroke="#666666" points="309.5,-22.25 221.5,-22.25 221.5,0 309.5,0 309.5,-22.25"/>
<text text-anchor="middle" x="265.5" y="-8.75" font-family="Helvetica,sans-Serif" font-size="10.00">maildir/maildir.c</text>
</a>
</g>
</g>
<!-- Node1&#45;&gt;Node4 -->
<g id="edge3_Node000001_Node000004" class="edge">
<title>Node1&#45;&gt;Node4</title>
<g id="a_edge3_Node000001_Node000004"><a xlink:title=" ">
<path fill="none" stroke="#63b8ff" d="M187.03,-52.62C205.58,-43.05 228.75,-31.09 245.09,-22.66"/>
<polygon fill="#63b8ff" stroke="#63b8ff" points="185.63,-49.4 178.35,-57.1 188.84,-55.63 185.63,-49.4"/>
</a>
</g>
</g>
</g>
</svg>
