<?xml version="1.0" encoding="UTF-8" standalone="no"?>
<!DOCTYPE svg PUBLIC "-//W3C//DTD SVG 1.1//EN"
 "http://www.w3.org/Graphics/SVG/1.1/DTD/svg11.dtd">
<!-- Generated by graphviz version 2.40.1 (20161225.0304)
 -->
<!-- Title: get_field_text Pages: 1 -->
<svg width="271pt" height="66pt"
 viewBox="0.00 0.00 271.00 66.00" xmlns="http://www.w3.org/2000/svg" xmlns:xlink="http://www.w3.org/1999/xlink">
<g id="graph0" class="graph" transform="scale(1 1) rotate(0) translate(4 62)">
<title>get_field_text</title>
<polygon fill="#ffffff" stroke="transparent" points="-4,4 -4,-62 267,-62 267,4 -4,4"/>
<!-- Node1182 -->
<g id="node1" class="node">
<title>Node1182</title>
<polygon fill="#bfbfbf" stroke="#000000" points="0,-19.5 0,-38.5 83,-38.5 83,-19.5 0,-19.5"/>
<text text-anchor="middle" x="41.5" y="-26.5" font-family="Helvetica,sans-Serif" font-size="10.00" fill="#000000">get_field_text</text>
</g>
<!-- Node1183 -->
<g id="node2" class="node">
<title>Node1183</title>
<g id="a_node2"><a xlink:href="mutt_2string_8c.html#a7c18c9b6c126e558387c13efce1c1e2a" target="_top" xlink:title="Find the first non&#45;whitespace character in a string. ">
<polygon fill="#ffffff" stroke="#000000" points="119,-38.5 119,-57.5 263,-57.5 263,-38.5 119,-38.5"/>
<text text-anchor="middle" x="191" y="-45.5" font-family="Helvetica,sans-Serif" font-size="10.00" fill="#000000">mutt_str_skip_whitespace</text>
</a>
</g>
</g>
<!-- Node1182&#45;&gt;Node1183 -->
<g id="edge1" class="edge">
<title>Node1182&#45;&gt;Node1183</title>
<path fill="none" stroke="#191970" d="M83.1441,-34.2926C91.2419,-35.3217 99.9893,-36.4334 108.877,-37.563"/>
<polygon fill="#191970" stroke="#191970" points="108.5826,-41.0536 118.9441,-38.8424 109.4652,-34.1095 108.5826,-41.0536"/>
</g>
<!-- Node1184 -->
<g id="node3" class="node">
<title>Node1184</title>
<g id="a_node3"><a xlink:href="mutt_2string_8c.html#ae9b6bbaa52b6ce51f2a384fe500e028e" target="_top" xlink:title="Replace one string with another. ">
<polygon fill="#ffffff" stroke="#ff0000" points="141.5,-.5 141.5,-19.5 240.5,-19.5 240.5,-.5 141.5,-.5"/>
<text text-anchor="middle" x="191" y="-7.5" font-family="Helvetica,sans-Serif" font-size="10.00" fill="#000000">mutt_str_replace</text>
</a>
</g>
</g>
<!-- Node1182&#45;&gt;Node1184 -->
<g id="edge2" class="edge">
<title>Node1182&#45;&gt;Node1184</title>
<path fill="none" stroke="#191970" d="M83.1441,-23.7074C97.9566,-21.8249 114.9427,-19.6661 130.9857,-17.6272"/>
<polygon fill="#191970" stroke="#191970" points="131.8809,-21.0417 141.3598,-16.3088 130.9983,-14.0976 131.8809,-21.0417"/>
</g>
</g>
</svg>
