<?xml version="1.0" encoding="UTF-8" standalone="no"?>
<!DOCTYPE svg PUBLIC "-//W3C//DTD SVG 1.1//EN"
 "http://www.w3.org/Graphics/SVG/1.1/DTD/svg11.dtd">
<!-- Generated by graphviz version 12.2.1 (20241206.2353)
 -->
<!-- Title: maildir_parse_stream Pages: 1 -->
<svg width="416pt" height="49pt"
 viewBox="0.00 0.00 416.00 49.25" xmlns="http://www.w3.org/2000/svg" xmlns:xlink="http://www.w3.org/1999/xlink">
<g id="graph0" class="graph" transform="scale(1 1) rotate(0) translate(4 45.25)">
<title>maildir_parse_stream</title>
<!-- Node1 -->
<g id="Node000001" class="node">
<title>Node1</title>
<g id="a_Node000001"><a xlink:title="Parse a Maildir message.">
<polygon fill="#999999" stroke="#666666" points="408,-41.25 293,-41.25 293,-19 408,-19 408,-41.25"/>
<text text-anchor="middle" x="350.5" y="-27.75" font-family="Helvetica,sans-Serif" font-size="10.00">maildir_parse_stream</text>
</a>
</g>
</g>
<!-- Node2 -->
<g id="Node000002" class="node">
<title>Node2</title>
<g id="a_Node000002"><a xlink:href="notmuch_8c.html#ad6f3a25ff7aa400b362b784d0c302750" target="_top" xlink:title="Associate a message.">
<polygon fill="#fff0f0" stroke="red" points="97,-41.25 0,-41.25 0,-19 97,-19 97,-41.25"/>
<text text-anchor="middle" x="48.5" y="-27.75" font-family="Helvetica,sans-Serif" font-size="10.00">append_message</text>
</a>
</g>
</g>
<!-- Node1&#45;&gt;Node2 -->
<g id="edge1_Node000001_Node000002" class="edge">
<title>Node1&#45;&gt;Node2</title>
<g id="a_edge1_Node000001_Node000002"><a xlink:title=" ">
<path fill="none" stroke="#63b8ff" d="M281.27,-30.95C273.09,-31.02 264.86,-31.08 257,-31.12 201.89,-31.42 188.11,-31.45 133,-31.12 121.4,-31.06 108.9,-30.93 97.19,-30.79"/>
<polygon fill="#63b8ff" stroke="#63b8ff" points="281.28,-34.45 291.24,-30.85 281.21,-27.45 281.28,-34.45"/>
</a>
</g>
</g>
<!-- Node11 -->
<g id="Node000011" class="node">
<title>Node11</title>
<g id="a_Node000011"><a xlink:href="maildir_2mailbox_8c.html#a5b3866322416ead2f4f1fd899702f649" target="_top" xlink:title="Actually parse a maildir message.">
<polygon fill="#fff0f0" stroke="red" points="257,-22.25 133,-22.25 133,0 257,0 257,-22.25"/>
<text text-anchor="middle" x="195" y="-8.75" font-family="Helvetica,sans-Serif" font-size="10.00">maildir_parse_message</text>
</a>
</g>
</g>
<!-- Node1&#45;&gt;Node11 -->
<g id="edge2_Node000001_Node000011" class="edge">
<title>Node1&#45;&gt;Node11</title>
<g id="a_edge2_Node000001_Node000011"><a xlink:title=" ">
<path fill="none" stroke="#63b8ff" d="M281.54,-21.71C273.5,-20.72 265.33,-19.71 257.39,-18.72"/>
<polygon fill="#63b8ff" stroke="#63b8ff" points="280.92,-25.16 291.28,-22.92 281.78,-18.22 280.92,-25.16"/>
</a>
</g>
</g>
<!-- Node11&#45;&gt;Node2 -->
<g id="edge3_Node000011_Node000002" class="edge">
<title>Node11&#45;&gt;Node2</title>
<g id="a_edge3_Node000011_Node000002"><a xlink:title=" ">
<path fill="none" stroke="#63b8ff" d="M121.54,-20.65C113.31,-21.74 105.08,-22.82 97.29,-23.84"/>
<polygon fill="#63b8ff" stroke="#63b8ff" points="121.76,-24.15 131.22,-19.38 120.85,-17.21 121.76,-24.15"/>
</a>
</g>
</g>
</g>
</svg>
