<?xml version="1.0" encoding="UTF-8" standalone="no"?>
<!DOCTYPE svg PUBLIC "-//W3C//DTD SVG 1.1//EN"
 "http://www.w3.org/Graphics/SVG/1.1/DTD/svg11.dtd">
<!-- Generated by graphviz version 7.1.0 (0)
 -->
<!-- Title: maildir/path.c Pages: 1 -->
<svg width="594pt" height="137pt"
 viewBox="0.00 0.00 593.83 137.00" xmlns="http://www.w3.org/2000/svg" xmlns:xlink="http://www.w3.org/1999/xlink">
<g id="graph0" class="graph" transform="scale(1 1) rotate(0) translate(4 133)">
<title>maildir/path.c</title>
<!-- Node1 -->
<g id="node1" class="node">
<title>Node1</title>
<g id="a_node1"><a xlink:title="Maildir Path handling.">
<polygon fill="#999999" stroke="#666666" points="299.83,-129 219.83,-129 219.83,-110 299.83,-110 299.83,-129"/>
<text text-anchor="middle" x="259.83" y="-117" font-family="Helvetica,sans-Serif" font-size="10.00">maildir/path.c</text>
</a>
</g>
</g>
<!-- Node2 -->
<g id="node2" class="node">
<title>Node2</title>
<g id="a_node2"><a xlink:title=" ">
<polygon fill="#e0e0e0" stroke="#999999" points="227.83,-19 173.83,-19 173.83,0 227.83,0 227.83,-19"/>
<text text-anchor="middle" x="200.83" y="-7" font-family="Helvetica,sans-Serif" font-size="10.00">config.h</text>
</a>
</g>
</g>
<!-- Node1&#45;&gt;Node2 -->
<g id="edge1" class="edge">
<title>Node1&#45;&gt;Node2</title>
<path fill="none" stroke="#63b8ff" d="M219.46,-117.4C155.46,-114.72 35.23,-105.5 8.83,-74 -34.37,-22.48 94.5,-12.5 162.18,-10.75"/>
<polygon fill="#63b8ff" stroke="#63b8ff" points="162.22,-14.25 172.14,-10.55 162.08,-7.25 162.22,-14.25"/>
</g>
<!-- Node3 -->
<g id="node3" class="node">
<title>Node3</title>
<g id="a_node3"><a xlink:title=" ">
<polygon fill="#e0e0e0" stroke="#999999" points="71.33,-74 18.33,-74 18.33,-55 71.33,-55 71.33,-74"/>
<text text-anchor="middle" x="44.83" y="-62" font-family="Helvetica,sans-Serif" font-size="10.00">dirent.h</text>
</a>
</g>
</g>
<!-- Node1&#45;&gt;Node3 -->
<g id="edge2" class="edge">
<title>Node1&#45;&gt;Node3</title>
<path fill="none" stroke="#63b8ff" d="M223.35,-109.51C184.21,-99.86 122.32,-84.6 82.66,-74.83"/>
<polygon fill="#63b8ff" stroke="#63b8ff" points="83.62,-71.46 73.07,-72.46 81.94,-78.25 83.62,-71.46"/>
</g>
<!-- Node4 -->
<g id="node4" class="node">
<title>Node4</title>
<g id="a_node4"><a xlink:title=" ">
<polygon fill="#e0e0e0" stroke="#999999" points="139.83,-74 89.83,-74 89.83,-55 139.83,-55 139.83,-74"/>
<text text-anchor="middle" x="114.83" y="-62" font-family="Helvetica,sans-Serif" font-size="10.00">limits.h</text>
</a>
</g>
</g>
<!-- Node1&#45;&gt;Node4 -->
<g id="edge3" class="edge">
<title>Node1&#45;&gt;Node4</title>
<path fill="none" stroke="#63b8ff" d="M235.23,-109.51C211.76,-100.93 176.16,-87.92 149.75,-78.27"/>
<polygon fill="#63b8ff" stroke="#63b8ff" points="151.08,-75.02 140.48,-74.88 148.67,-81.6 151.08,-75.02"/>
</g>
<!-- Node5 -->
<g id="node5" class="node">
<title>Node5</title>
<g id="a_node5"><a xlink:title=" ">
<polygon fill="#e0e0e0" stroke="#999999" points="217.83,-74 157.83,-74 157.83,-55 217.83,-55 217.83,-74"/>
<text text-anchor="middle" x="187.83" y="-62" font-family="Helvetica,sans-Serif" font-size="10.00">stdbool.h</text>
</a>
</g>
</g>
<!-- Node1&#45;&gt;Node5 -->
<g id="edge4" class="edge">
<title>Node1&#45;&gt;Node5</title>
<path fill="none" stroke="#63b8ff" d="M247.61,-109.51C237,-101.7 221.39,-90.21 208.78,-80.93"/>
<polygon fill="#63b8ff" stroke="#63b8ff" points="211.21,-78.36 201.08,-75.26 207.06,-84 211.21,-78.36"/>
</g>
<!-- Node6 -->
<g id="node6" class="node">
<title>Node6</title>
<g id="a_node6"><a xlink:title=" ">
<polygon fill="#e0e0e0" stroke="#999999" points="283.83,-74 235.83,-74 235.83,-55 283.83,-55 283.83,-74"/>
<text text-anchor="middle" x="259.83" y="-62" font-family="Helvetica,sans-Serif" font-size="10.00">stdio.h</text>
</a>
</g>
</g>
<!-- Node1&#45;&gt;Node6 -->
<g id="edge5" class="edge">
<title>Node1&#45;&gt;Node6</title>
<path fill="none" stroke="#63b8ff" d="M259.83,-109.75C259.83,-103.27 259.83,-94.16 259.83,-85.9"/>
<polygon fill="#63b8ff" stroke="#63b8ff" points="263.33,-85.96 259.83,-75.96 256.33,-85.96 263.33,-85.96"/>
</g>
<!-- Node7 -->
<g id="node7" class="node">
<title>Node7</title>
<g id="a_node7"><a xlink:title=" ">
<polygon fill="#e0e0e0" stroke="#999999" points="363.33,-74 302.33,-74 302.33,-55 363.33,-55 363.33,-74"/>
<text text-anchor="middle" x="332.83" y="-62" font-family="Helvetica,sans-Serif" font-size="10.00">sys/stat.h</text>
</a>
</g>
</g>
<!-- Node1&#45;&gt;Node7 -->
<g id="edge6" class="edge">
<title>Node1&#45;&gt;Node7</title>
<path fill="none" stroke="#63b8ff" d="M272.21,-109.51C282.97,-101.7 298.8,-90.21 311.58,-80.93"/>
<polygon fill="#63b8ff" stroke="#63b8ff" points="313.37,-83.95 319.4,-75.25 309.25,-78.29 313.37,-83.95"/>
</g>
<!-- Node8 -->
<g id="node8" class="node">
<title>Node8</title>
<g id="a_node8"><a xlink:href="mutt_2lib_8h.html" target="_top" xlink:title="Convenience wrapper for the library headers.">
<polygon fill="#fff0f0" stroke="red" points="443.83,-74 381.83,-74 381.83,-55 443.83,-55 443.83,-74"/>
<text text-anchor="middle" x="412.83" y="-62" font-family="Helvetica,sans-Serif" font-size="10.00">mutt/lib.h</text>
</a>
</g>
</g>
<!-- Node1&#45;&gt;Node8 -->
<g id="edge7" class="edge">
<title>Node1&#45;&gt;Node8</title>
<path fill="none" stroke="#63b8ff" d="M285.78,-109.51C310.69,-100.88 348.55,-87.76 376.46,-78.1"/>
<polygon fill="#63b8ff" stroke="#63b8ff" points="377.27,-81.52 385.57,-74.94 374.98,-74.91 377.27,-81.52"/>
</g>
<!-- Node56 -->
<g id="node9" class="node">
<title>Node56</title>
<g id="a_node9"><a xlink:href="maildir_2path_8h.html" target="_top" xlink:title="Maildir Path handling.">
<polygon fill="#fff0f0" stroke="red" points="509.33,-74 462.33,-74 462.33,-55 509.33,-55 509.33,-74"/>
<text text-anchor="middle" x="485.83" y="-62" font-family="Helvetica,sans-Serif" font-size="10.00">path.h</text>
</a>
</g>
</g>
<!-- Node1&#45;&gt;Node56 -->
<g id="edge9" class="edge">
<title>Node1&#45;&gt;Node56</title>
<path fill="none" stroke="#63b8ff" d="M300.19,-109.51C336.99,-101.24 393.15,-88.45 451.2,-74.35"/>
<polygon fill="#63b8ff" stroke="#63b8ff" points="451.7,-77.83 460.58,-72.06 450.04,-71.03 451.7,-77.83"/>
</g>
<!-- Node67 -->
<g id="node10" class="node">
<title>Node67</title>
<g id="a_node10"><a xlink:title=" ">
<polygon fill="#e0e0e0" stroke="#999999" points="585.83,-74 527.83,-74 527.83,-55 585.83,-55 585.83,-74"/>
<text text-anchor="middle" x="556.83" y="-62" font-family="Helvetica,sans-Serif" font-size="10.00">globals.h</text>
</a>
</g>
</g>
<!-- Node1&#45;&gt;Node67 -->
<g id="edge10" class="edge">
<title>Node1&#45;&gt;Node67</title>
<path fill="none" stroke="#63b8ff" d="M300.32,-112.18C349.19,-104.42 434.14,-90.48 516.35,-74.41"/>
<polygon fill="#63b8ff" stroke="#63b8ff" points="516.78,-77.89 525.91,-72.53 515.43,-71.03 516.78,-77.89"/>
</g>
<!-- Node8&#45;&gt;Node2 -->
<g id="edge8" class="edge">
<title>Node8&#45;&gt;Node2</title>
<path fill="none" stroke="#63b8ff" d="M381.55,-55.68C343.73,-46.22 280.09,-30.31 239.3,-20.12"/>
<polygon fill="#63b8ff" stroke="#63b8ff" points="240.21,-16.74 229.66,-17.71 238.51,-23.53 240.21,-16.74"/>
</g>
</g>
</svg>
