<?xml version="1.0" encoding="UTF-8" standalone="no"?>
<!DOCTYPE svg PUBLIC "-//W3C//DTD SVG 1.1//EN"
 "http://www.w3.org/Graphics/SVG/1.1/DTD/svg11.dtd">
<!-- Generated by graphviz version 2.40.1 (20161225.0304)
 -->
<!-- Title: test/mailbox/mailbox_find.c Pages: 1 -->
<svg width="306pt" height="95pt"
 viewBox="0.00 0.00 306.00 95.00" xmlns="http://www.w3.org/2000/svg" xmlns:xlink="http://www.w3.org/1999/xlink">
<g id="graph0" class="graph" transform="scale(1 1) rotate(0) translate(4 91)">
<title>test/mailbox/mailbox_find.c</title>
<polygon fill="#ffffff" stroke="transparent" points="-4,4 -4,-91 302,-91 302,4 -4,4"/>
<!-- Node0 -->
<g id="node1" class="node">
<title>Node0</title>
<polygon fill="#bfbfbf" stroke="#000000" points="86.5,-56.5 86.5,-86.5 207.5,-86.5 207.5,-56.5 86.5,-56.5"/>
<text text-anchor="start" x="94.5" y="-74.5" font-family="Helvetica,sans-Serif" font-size="10.00" fill="#000000">test/mailbox/mailbox</text>
<text text-anchor="middle" x="147" y="-63.5" font-family="Helvetica,sans-Serif" font-size="10.00" fill="#000000">_find.c</text>
</g>
<!-- Node1 -->
<g id="node2" class="node">
<title>Node1</title>
<g id="a_node2"><a xlink:href="acutest_8h.html" target="_top" xlink:title="acutest.h">
<polygon fill="#ffffff" stroke="#ff0000" points="0,-.5 0,-19.5 62,-19.5 62,-.5 0,-.5"/>
<text text-anchor="middle" x="31" y="-7.5" font-family="Helvetica,sans-Serif" font-size="10.00" fill="#000000">acutest.h</text>
</a>
</g>
</g>
<!-- Node0&#45;&gt;Node1 -->
<g id="edge1" class="edge">
<title>Node0&#45;&gt;Node1</title>
<path fill="none" stroke="#191970" d="M118.6232,-56.4554C100.1172,-46.644 76.1112,-33.9167 57.9069,-24.2653"/>
<polygon fill="#191970" stroke="#191970" points="59.4505,-21.1222 48.9759,-19.5303 56.1715,-27.3068 59.4505,-21.1222"/>
</g>
<!-- Node8 -->
<g id="node3" class="node">
<title>Node8</title>
<polygon fill="#ffffff" stroke="#bfbfbf" points="80.5,-.5 80.5,-19.5 135.5,-19.5 135.5,-.5 80.5,-.5"/>
<text text-anchor="middle" x="108" y="-7.5" font-family="Helvetica,sans-Serif" font-size="10.00" fill="#000000">config.h</text>
</g>
<!-- Node0&#45;&gt;Node8 -->
<g id="edge2" class="edge">
<title>Node0&#45;&gt;Node8</title>
<path fill="none" stroke="#191970" d="M137.3595,-56.2977C132.0023,-47.8498 125.2978,-37.2773 119.6487,-28.369"/>
<polygon fill="#191970" stroke="#191970" points="122.5556,-26.4176 114.2444,-19.8469 116.6441,-30.1664 122.5556,-26.4176"/>
</g>
<!-- Node9 -->
<g id="node4" class="node">
<title>Node9</title>
<g id="a_node4"><a xlink:href="mutt_2lib_8h.html" target="_top" xlink:title="Convenience wrapper for the library headers. ">
<polygon fill="#ffffff" stroke="#ff0000" points="154,-.5 154,-19.5 218,-19.5 218,-.5 154,-.5"/>
<text text-anchor="middle" x="186" y="-7.5" font-family="Helvetica,sans-Serif" font-size="10.00" fill="#000000">mutt/lib.h</text>
</a>
</g>
</g>
<!-- Node0&#45;&gt;Node9 -->
<g id="edge3" class="edge">
<title>Node0&#45;&gt;Node9</title>
<path fill="none" stroke="#191970" d="M156.6405,-56.2977C161.9977,-47.8498 168.7022,-37.2773 174.3513,-28.369"/>
<polygon fill="#191970" stroke="#191970" points="177.3559,-30.1664 179.7556,-19.8469 171.4444,-26.4176 177.3559,-30.1664"/>
</g>
<!-- Node48 -->
<g id="node5" class="node">
<title>Node48</title>
<g id="a_node5"><a xlink:href="core_2lib_8h.html" target="_top" xlink:title="Convenience wrapper for the core headers. ">
<polygon fill="#ffffff" stroke="#ff0000" points="236,-.5 236,-19.5 298,-19.5 298,-.5 236,-.5"/>
<text text-anchor="middle" x="267" y="-7.5" font-family="Helvetica,sans-Serif" font-size="10.00" fill="#000000">core/lib.h</text>
</a>
</g>
</g>
<!-- Node0&#45;&gt;Node48 -->
<g id="edge4" class="edge">
<title>Node0&#45;&gt;Node48</title>
<path fill="none" stroke="#191970" d="M176.3553,-56.4554C195.5873,-46.599 220.5612,-33.7999 239.4241,-24.1327"/>
<polygon fill="#191970" stroke="#191970" points="241.1013,-27.206 248.4043,-19.5303 237.9086,-20.9765 241.1013,-27.206"/>
</g>
</g>
</svg>
