<?xml version="1.0" encoding="UTF-8" standalone="no"?>
<!DOCTYPE svg PUBLIC "-//W3C//DTD SVG 1.1//EN"
 "http://www.w3.org/Graphics/SVG/1.1/DTD/svg11.dtd">
<!-- Generated by graphviz version 2.40.1 (20161225.0304)
 -->
<!-- Title: maildir_parse_stream Pages: 1 -->
<svg width="309pt" height="180pt"
 viewBox="0.00 0.00 309.00 180.00" xmlns="http://www.w3.org/2000/svg" xmlns:xlink="http://www.w3.org/1999/xlink">
<g id="graph0" class="graph" transform="scale(1 1) rotate(0) translate(4 176)">
<title>maildir_parse_stream</title>
<polygon fill="#ffffff" stroke="transparent" points="-4,4 -4,-176 305,-176 305,4 -4,4"/>
<!-- Node11507 -->
<g id="node1" class="node">
<title>Node11507</title>
<polygon fill="#bfbfbf" stroke="#000000" points="0,-76.5 0,-95.5 123,-95.5 123,-76.5 0,-76.5"/>
<text text-anchor="middle" x="61.5" y="-83.5" font-family="Helvetica,sans-Serif" font-size="10.00" fill="#000000">maildir_parse_stream</text>
</g>
<!-- Node11508 -->
<g id="node2" class="node">
<title>Node11508</title>
<g id="a_node2"><a xlink:href="email_2email_8c.html#a77c9ecff4b23001b81177ffe398bad44" target="_top" xlink:title="Create a new Email. ">
<polygon fill="#ffffff" stroke="#ff0000" points="195,-152.5 195,-171.5 265,-171.5 265,-152.5 195,-152.5"/>
<text text-anchor="middle" x="230" y="-159.5" font-family="Helvetica,sans-Serif" font-size="10.00" fill="#000000">email_new</text>
</a>
</g>
</g>
<!-- Node11507&#45;&gt;Node11508 -->
<g id="edge1" class="edge">
<title>Node11507&#45;&gt;Node11508</title>
<path fill="none" stroke="#191970" d="M75.0952,-95.5401C93.3986,-108.0031 127.3325,-129.788 159,-143 167.214,-146.427 176.2226,-149.397 184.9832,-151.9046"/>
<polygon fill="#191970" stroke="#191970" points="184.146,-155.3039 194.7132,-154.5391 185.9755,-148.5472 184.146,-155.3039"/>
</g>
<!-- Node11512 -->
<g id="node3" class="node">
<title>Node11512</title>
<g id="a_node3"><a xlink:href="maildir_2edata_8c.html#a3dfb16b26ffe871f3aa5753f0115bcdc" target="_top" xlink:title="Create a new MaildirEmailData object. ">
<polygon fill="#ffffff" stroke="#ff0000" points="175,-114.5 175,-133.5 285,-133.5 285,-114.5 175,-114.5"/>
<text text-anchor="middle" x="230" y="-121.5" font-family="Helvetica,sans-Serif" font-size="10.00" fill="#000000">maildir_edata_new</text>
</a>
</g>
</g>
<!-- Node11507&#45;&gt;Node11512 -->
<g id="edge2" class="edge">
<title>Node11507&#45;&gt;Node11512</title>
<path fill="none" stroke="#191970" d="M104.0197,-95.589C126.4554,-100.6487 154.1732,-106.8996 177.8925,-112.2488"/>
<polygon fill="#191970" stroke="#191970" points="177.2611,-115.6942 187.7861,-114.4799 178.8011,-108.8657 177.2611,-115.6942"/>
</g>
<!-- Node11513 -->
<g id="node4" class="node">
<title>Node11513</title>
<g id="a_node4"><a xlink:href="maildir_2edata_8c.html#a64d6c6eca4ddc56acc9157a876f07d63" target="_top" xlink:title="Free the private Email data &#45; Implements Email::edata_free() ">
<polygon fill="#ffffff" stroke="#000000" points="175.5,-76.5 175.5,-95.5 284.5,-95.5 284.5,-76.5 175.5,-76.5"/>
<text text-anchor="middle" x="230" y="-83.5" font-family="Helvetica,sans-Serif" font-size="10.00" fill="#000000">maildir_edata_free</text>
</a>
</g>
</g>
<!-- Node11507&#45;&gt;Node11513 -->
<g id="edge3" class="edge">
<title>Node11507&#45;&gt;Node11513</title>
<path fill="none" stroke="#191970" d="M123.2864,-86C136.9085,-86 151.3759,-86 165.1166,-86"/>
<polygon fill="#191970" stroke="#191970" points="165.4566,-89.5001 175.4565,-86 165.4565,-82.5001 165.4566,-89.5001"/>
</g>
<!-- Node11514 -->
<g id="node5" class="node">
<title>Node11514</title>
<g id="a_node5"><a xlink:href="parse_8c.html#a32cd9ed48d31f100bd8525018e1450da" target="_top" xlink:title="parses an RFC822 header ">
<polygon fill="#ffffff" stroke="#ff0000" points="159,-38.5 159,-57.5 301,-57.5 301,-38.5 159,-38.5"/>
<text text-anchor="middle" x="230" y="-45.5" font-family="Helvetica,sans-Serif" font-size="10.00" fill="#000000">mutt_rfc822_read_header</text>
</a>
</g>
</g>
<!-- Node11507&#45;&gt;Node11514 -->
<g id="edge4" class="edge">
<title>Node11507&#45;&gt;Node11514</title>
<path fill="none" stroke="#191970" d="M104.0197,-76.411C126.4554,-71.3513 154.1732,-65.1004 177.8925,-59.7512"/>
<polygon fill="#191970" stroke="#191970" points="178.8011,-63.1343 187.7861,-57.5201 177.2611,-56.3058 178.8011,-63.1343"/>
</g>
<!-- Node13272 -->
<g id="node6" class="node">
<title>Node13272</title>
<g id="a_node6"><a xlink:href="maildir_8c.html#afad70ac642ae3a3a925778412bb64097" target="_top" xlink:title="Parse Maildir file flags. ">
<polygon fill="#ffffff" stroke="#ff0000" points="174,-.5 174,-19.5 286,-19.5 286,-.5 174,-.5"/>
<text text-anchor="middle" x="230" y="-7.5" font-family="Helvetica,sans-Serif" font-size="10.00" fill="#000000">maildir_parse_flags</text>
</a>
</g>
</g>
<!-- Node11507&#45;&gt;Node13272 -->
<g id="edge5" class="edge">
<title>Node11507&#45;&gt;Node13272</title>
<path fill="none" stroke="#191970" d="M75.0952,-76.4599C93.3986,-63.9969 127.3325,-42.212 159,-29 164.7961,-26.5818 170.988,-24.3911 177.2092,-22.4299"/>
<polygon fill="#191970" stroke="#191970" points="178.3658,-25.7376 186.9568,-19.537 176.3742,-19.0268 178.3658,-25.7376"/>
</g>
</g>
</svg>
