<?xml version="1.0" encoding="UTF-8" standalone="no"?>
<!DOCTYPE svg PUBLIC "-//W3C//DTD SVG 1.1//EN"
 "http://www.w3.org/Graphics/SVG/1.1/DTD/svg11.dtd">
<!-- Generated by graphviz version 2.40.1 (20161225.0304)
 -->
<!-- Title: mutt_map_get_name Pages: 1 -->
<svg width="272pt" height="446pt"
 viewBox="0.00 0.00 272.00 446.00" xmlns="http://www.w3.org/2000/svg" xmlns:xlink="http://www.w3.org/1999/xlink">
<g id="graph0" class="graph" transform="scale(1 1) rotate(0) translate(4 442)">
<title>mutt_map_get_name</title>
<polygon fill="#ffffff" stroke="transparent" points="-4,4 -4,-442 268,-442 268,4 -4,4"/>
<!-- Node1 -->
<g id="node1" class="node">
<title>Node1</title>
<polygon fill="#bfbfbf" stroke="#000000" points="0,-209.5 0,-228.5 121,-228.5 121,-209.5 0,-209.5"/>
<text text-anchor="middle" x="60.5" y="-216.5" font-family="Helvetica,sans-Serif" font-size="10.00" fill="#000000">mutt_map_get_name</text>
</g>
<!-- Node2 -->
<g id="node2" class="node">
<title>Node2</title>
<g id="a_node2"><a xlink:href="config_2sort_8c.html#af458194ca4d2919a626af268cb81cd0f" target="_top" xlink:title="Get a Sort as a string &#45; Implements ConfigSetType::string_get() ">
<polygon fill="#ffffff" stroke="#000000" points="166,-418.5 166,-437.5 255,-437.5 255,-418.5 166,-418.5"/>
<text text-anchor="middle" x="210.5" y="-425.5" font-family="Helvetica,sans-Serif" font-size="10.00" fill="#000000">sort_string_get</text>
</a>
</g>
</g>
<!-- Node1&#45;&gt;Node2 -->
<g id="edge1" class="edge">
<title>Node1&#45;&gt;Node2</title>
<path fill="none" stroke="#191970" d="M65.2743,-238.7783C75.5082,-277.055 103.1278,-361.6502 157,-409 161.368,-412.8391 166.5643,-415.9179 171.9751,-418.3828"/>
<polygon fill="#191970" stroke="#191970" points="68.611,-237.6992 62.7433,-228.8776 61.8291,-239.4329 68.611,-237.6992"/>
</g>
<!-- Node3 -->
<g id="node3" class="node">
<title>Node3</title>
<g id="a_node3"><a xlink:href="config_2sort_8c.html#ad4ee67ea5d8ab1c9d654fc2e8fa77af8" target="_top" xlink:title="Set a Sort config item by int &#45; Implements ConfigSetType::native_set() ">
<polygon fill="#ffffff" stroke="#000000" points="164.5,-380.5 164.5,-399.5 256.5,-399.5 256.5,-380.5 164.5,-380.5"/>
<text text-anchor="middle" x="210.5" y="-387.5" font-family="Helvetica,sans-Serif" font-size="10.00" fill="#000000">sort_native_set</text>
</a>
</g>
</g>
<!-- Node1&#45;&gt;Node3 -->
<g id="edge2" class="edge">
<title>Node1&#45;&gt;Node3</title>
<path fill="none" stroke="#191970" d="M67.8186,-238.2962C80.9146,-270.3356 111.3305,-334.5805 157,-371 161.8549,-374.8716 167.5604,-377.9883 173.4037,-380.4872"/>
<polygon fill="#191970" stroke="#191970" points="70.9766,-236.7642 64.0443,-228.752 64.4671,-239.3384 70.9766,-236.7642"/>
</g>
<!-- Node4 -->
<g id="node4" class="node">
<title>Node4</title>
<g id="a_node4"><a xlink:href="enum_8c.html#a78b8c3c203de744be9cc40185ecbb07f" target="_top" xlink:title="Get an Enumeration as a string &#45; Implements ConfigSetType::string_get() ">
<polygon fill="#ffffff" stroke="#000000" points="161.5,-342.5 161.5,-361.5 259.5,-361.5 259.5,-342.5 161.5,-342.5"/>
<text text-anchor="middle" x="210.5" y="-349.5" font-family="Helvetica,sans-Serif" font-size="10.00" fill="#000000">enum_string_get</text>
</a>
</g>
</g>
<!-- Node1&#45;&gt;Node4 -->
<g id="edge3" class="edge">
<title>Node1&#45;&gt;Node4</title>
<path fill="none" stroke="#191970" d="M71.5181,-237.2675C87.4435,-262.2237 119.171,-306.8526 157,-333 162.5136,-336.811 168.8728,-339.9379 175.2395,-342.4754"/>
<polygon fill="#191970" stroke="#191970" points="74.4673,-235.3821 66.2085,-228.7455 68.5261,-239.0838 74.4673,-235.3821"/>
</g>
<!-- Node5 -->
<g id="node5" class="node">
<title>Node5</title>
<g id="a_node5"><a xlink:href="enum_8c.html#a01cbc276c2c7236cdcc4c12c7a6dd299" target="_top" xlink:title="Set an Enumeration config item by int &#45; Implements ConfigSetType::native_set() ">
<polygon fill="#ffffff" stroke="#000000" points="160,-304.5 160,-323.5 261,-323.5 261,-304.5 160,-304.5"/>
<text text-anchor="middle" x="210.5" y="-311.5" font-family="Helvetica,sans-Serif" font-size="10.00" fill="#000000">enum_native_set</text>
</a>
</g>
</g>
<!-- Node1&#45;&gt;Node5 -->
<g id="edge4" class="edge">
<title>Node1&#45;&gt;Node5</title>
<path fill="none" stroke="#191970" d="M77.7346,-235.4576C96.1338,-252.3019 126.7472,-278.3082 157,-295 163.5589,-298.6188 170.9386,-301.7635 178.0738,-304.3967"/>
<polygon fill="#191970" stroke="#191970" points="80.1147,-232.8914 70.4096,-228.6415 75.3461,-238.016 80.1147,-232.8914"/>
</g>
<!-- Node6 -->
<g id="node6" class="node">
<title>Node6</title>
<g id="a_node6"><a xlink:href="debug_2notify_8c.html#aa32aedf5fa5f047eaf093ae73155ee19" target="_top" xlink:title="notify_dump_color">
<polygon fill="#ffffff" stroke="#ff0000" points="157,-266.5 157,-285.5 264,-285.5 264,-266.5 157,-266.5"/>
<text text-anchor="middle" x="210.5" y="-273.5" font-family="Helvetica,sans-Serif" font-size="10.00" fill="#000000">notify_dump_color</text>
</a>
</g>
</g>
<!-- Node1&#45;&gt;Node6 -->
<g id="edge5" class="edge">
<title>Node1&#45;&gt;Node6</title>
<path fill="none" stroke="#191970" d="M93.686,-232.389C112.2496,-239.7976 135.845,-249.0809 157,-257 165.4002,-260.1445 174.5885,-263.4543 182.9432,-266.4145"/>
<polygon fill="#191970" stroke="#191970" points="94.7925,-229.0619 84.208,-228.5949 92.1911,-235.5606 94.7925,-229.0619"/>
</g>
<!-- Node9 -->
<g id="node7" class="node">
<title>Node9</title>
<g id="a_node7"><a xlink:href="url_8h.html#a41aafd875d2e909169d65d4b8b959207" target="_top" xlink:title="Output the URL string for a given Url object. ">
<polygon fill="#ffffff" stroke="#ff0000" points="174,-228.5 174,-247.5 247,-247.5 247,-228.5 174,-228.5"/>
<text text-anchor="middle" x="210.5" y="-235.5" font-family="Helvetica,sans-Serif" font-size="10.00" fill="#000000">url_tobuffer</text>
</a>
</g>
</g>
<!-- Node1&#45;&gt;Node9 -->
<g id="edge6" class="edge">
<title>Node1&#45;&gt;Node9</title>
<path fill="none" stroke="#191970" d="M131.2322,-227.9594C145.9906,-229.8288 160.9701,-231.7262 173.8748,-233.3608"/>
<polygon fill="#191970" stroke="#191970" points="131.439,-224.4577 121.0784,-226.6733 130.5593,-231.4022 131.439,-224.4577"/>
</g>
<!-- Node45 -->
<g id="node8" class="node">
<title>Node45</title>
<g id="a_node8"><a xlink:href="protos_8h.html#ad9bb0ca40ea82be9ffc97caba4e631f7" target="_top" xlink:title="Display the help menu. ">
<polygon fill="#ffffff" stroke="#ff0000" points="177.5,-190.5 177.5,-209.5 243.5,-209.5 243.5,-190.5 177.5,-190.5"/>
<text text-anchor="middle" x="210.5" y="-197.5" font-family="Helvetica,sans-Serif" font-size="10.00" fill="#000000">mutt_help</text>
</a>
</g>
</g>
<!-- Node1&#45;&gt;Node45 -->
<g id="edge7" class="edge">
<title>Node1&#45;&gt;Node45</title>
<path fill="none" stroke="#191970" d="M131.0619,-210.0622C147.1962,-208.0185 163.6053,-205.94 177.2887,-204.2068"/>
<polygon fill="#191970" stroke="#191970" points="130.5593,-206.5978 121.0784,-211.3267 131.439,-213.5423 130.5593,-206.5978"/>
</g>
<!-- Node541 -->
<g id="node9" class="node">
<title>Node541</title>
<g id="a_node9"><a xlink:href="icommands_8c.html#a1fbfee140852c32844b8e2d4c801a586" target="_top" xlink:title="Dumps all the binds or macros inside every menu. ">
<polygon fill="#ffffff" stroke="#ff0000" points="160.5,-152.5 160.5,-171.5 260.5,-171.5 260.5,-152.5 160.5,-152.5"/>
<text text-anchor="middle" x="210.5" y="-159.5" font-family="Helvetica,sans-Serif" font-size="10.00" fill="#000000">dump_all_menus</text>
</a>
</g>
</g>
<!-- Node1&#45;&gt;Node541 -->
<g id="edge8" class="edge">
<title>Node1&#45;&gt;Node541</title>
<path fill="none" stroke="#191970" d="M93.686,-205.611C112.2496,-198.2024 135.845,-188.9191 157,-181 165.4002,-177.8555 174.5885,-174.5457 182.9432,-171.5855"/>
<polygon fill="#191970" stroke="#191970" points="92.1911,-202.4394 84.208,-209.4051 94.7925,-208.9381 92.1911,-202.4394"/>
</g>
<!-- Node542 -->
<g id="node10" class="node">
<title>Node542</title>
<g id="a_node10"><a xlink:href="keymap_8c.html#acb28b72cde52751daf0d345dc7735142" target="_top" xlink:title="Set up a key binding. ">
<polygon fill="#ffffff" stroke="#ff0000" points="172,-114.5 172,-133.5 249,-133.5 249,-114.5 172,-114.5"/>
<text text-anchor="middle" x="210.5" y="-121.5" font-family="Helvetica,sans-Serif" font-size="10.00" fill="#000000">km_bind_err</text>
</a>
</g>
</g>
<!-- Node1&#45;&gt;Node542 -->
<g id="edge9" class="edge">
<title>Node1&#45;&gt;Node542</title>
<path fill="none" stroke="#191970" d="M77.7346,-202.5424C96.1338,-185.6981 126.7472,-159.6918 157,-143 163.5589,-139.3812 170.9386,-136.2365 178.0738,-133.6033"/>
<polygon fill="#191970" stroke="#191970" points="75.3461,-199.984 70.4096,-209.3585 80.1147,-205.1086 75.3461,-199.984"/>
</g>
<!-- Node553 -->
<g id="node11" class="node">
<title>Node553</title>
<g id="a_node11"><a xlink:href="keymap_8c.html#a4880e77c79fb25474315465363a2372f" target="_top" xlink:title="Get the human name for a key. ">
<polygon fill="#ffffff" stroke="#ff0000" points="169,-76.5 169,-95.5 252,-95.5 252,-76.5 169,-76.5"/>
<text text-anchor="middle" x="210.5" y="-83.5" font-family="Helvetica,sans-Serif" font-size="10.00" fill="#000000">km_keyname</text>
</a>
</g>
</g>
<!-- Node1&#45;&gt;Node553 -->
<g id="edge10" class="edge">
<title>Node1&#45;&gt;Node553</title>
<path fill="none" stroke="#191970" d="M71.5181,-200.7325C87.4435,-175.7763 119.171,-131.1474 157,-105 162.5136,-101.189 168.8728,-98.0621 175.2395,-95.5246"/>
<polygon fill="#191970" stroke="#191970" points="68.5261,-198.9162 66.2085,-209.2545 74.4673,-202.6179 68.5261,-198.9162"/>
</g>
<!-- Node552 -->
<g id="node12" class="node">
<title>Node552</title>
<g id="a_node12"><a xlink:href="keymap_8c.html#a77266489966831a397bd4477994d281b" target="_top" xlink:title="Try to make a key binding. ">
<polygon fill="#ffffff" stroke="#ff0000" points="182.5,-38.5 182.5,-57.5 238.5,-57.5 238.5,-38.5 182.5,-38.5"/>
<text text-anchor="middle" x="210.5" y="-45.5" font-family="Helvetica,sans-Serif" font-size="10.00" fill="#000000">try_bind</text>
</a>
</g>
</g>
<!-- Node1&#45;&gt;Node552 -->
<g id="edge11" class="edge">
<title>Node1&#45;&gt;Node552</title>
<path fill="none" stroke="#191970" d="M67.8186,-199.7038C80.9146,-167.6644 111.3305,-103.4195 157,-67 164.3209,-61.1619 173.5758,-57.0402 182.3212,-54.1651"/>
<polygon fill="#191970" stroke="#191970" points="64.4671,-198.6616 64.0443,-209.248 70.9766,-201.2358 64.4671,-198.6616"/>
</g>
<!-- Node565 -->
<g id="node13" class="node">
<title>Node565</title>
<g id="a_node13"><a xlink:href="status_8c.html#ac8156953ab9d8f697ac86866bcd3b876" target="_top" xlink:title="Get the sort method as a string. ">
<polygon fill="#ffffff" stroke="#ff0000" points="173.5,-.5 173.5,-19.5 247.5,-19.5 247.5,-.5 173.5,-.5"/>
<text text-anchor="middle" x="210.5" y="-7.5" font-family="Helvetica,sans-Serif" font-size="10.00" fill="#000000">get_sort_str</text>
</a>
</g>
</g>
<!-- Node1&#45;&gt;Node565 -->
<g id="edge12" class="edge">
<title>Node1&#45;&gt;Node565</title>
<path fill="none" stroke="#191970" d="M65.2743,-199.2217C75.5082,-160.945 103.1278,-76.3498 157,-29 161.7382,-24.8355 167.451,-21.5658 173.355,-19.0037"/>
<polygon fill="#191970" stroke="#191970" points="61.8291,-198.5671 62.7433,-209.1224 68.611,-200.3008 61.8291,-198.5671"/>
</g>
</g>
</svg>
