<?xml version="1.0" encoding="UTF-8" standalone="no"?>
<!DOCTYPE svg PUBLIC "-//W3C//DTD SVG 1.1//EN"
 "http://www.w3.org/Graphics/SVG/1.1/DTD/svg11.dtd">
<!-- Generated by graphviz version 12.2.1 (20241206.2353)
 -->
<!-- Title: mutt_mb_filter_unprintable Pages: 1 -->
<svg width="293pt" height="244pt"
 viewBox="0.00 0.00 292.75 244.38" xmlns="http://www.w3.org/2000/svg" xmlns:xlink="http://www.w3.org/1999/xlink">
<g id="graph0" class="graph" transform="scale(1 1) rotate(0) translate(4 240.38)">
<title>mutt_mb_filter_unprintable</title>
<!-- Node1 -->
<g id="Node000001" class="node">
<title>Node1</title>
<g id="a_Node000001"><a xlink:title="Replace unprintable characters.">
<polygon fill="#999999" stroke="#666666" points="143.5,-136.38 0,-136.38 0,-114.12 143.5,-114.12 143.5,-136.38"/>
<text text-anchor="middle" x="71.75" y="-122.88" font-family="Helvetica,sans-Serif" font-size="10.00">mutt_mb_filter_unprintable</text>
</a>
</g>
</g>
<!-- Node2 -->
<g id="Node000002" class="node">
<title>Node2</title>
<g id="a_Node000002"><a xlink:href="buffer_8c.html#a9924e74ddcb5280ab380e4627d1fba99" target="_top" xlink:title="Add a string to a Buffer.">
<polygon fill="#fff0f0" stroke="red" points="265.25,-236.38 199,-236.38 199,-214.12 265.25,-214.12 265.25,-236.38"/>
<text text-anchor="middle" x="232.12" y="-222.88" font-family="Helvetica,sans-Serif" font-size="10.00">buf_addstr</text>
</a>
</g>
</g>
<!-- Node1&#45;&gt;Node2 -->
<g id="edge1_Node000001_Node000002" class="edge">
<title>Node1&#45;&gt;Node2</title>
<g id="a_edge1_Node000001_Node000002"><a xlink:title=" ">
<path fill="none" stroke="#63b8ff" d="M85.75,-136.87C105.08,-153.69 143.04,-185.03 179.5,-205.25 182.3,-206.8 185.24,-208.29 188.24,-209.7"/>
<polygon fill="#63b8ff" stroke="#63b8ff" points="186.61,-212.8 197.17,-213.59 189.41,-206.39 186.61,-212.8"/>
</a>
</g>
</g>
<!-- Node7 -->
<g id="Node000007" class="node">
<title>Node7</title>
<g id="a_Node000007"><a xlink:href="buffer_8c.html#a4245e227baa2a9beb6991917404aab0d" target="_top" xlink:title="Is the Buffer empty?">
<polygon fill="#fff0f0" stroke="red" points="270.88,-196.38 193.38,-196.38 193.38,-174.12 270.88,-174.12 270.88,-196.38"/>
<text text-anchor="middle" x="232.12" y="-182.88" font-family="Helvetica,sans-Serif" font-size="10.00">buf_is_empty</text>
</a>
</g>
</g>
<!-- Node1&#45;&gt;Node7 -->
<g id="edge2_Node000001_Node000007" class="edge">
<title>Node1&#45;&gt;Node7</title>
<g id="a_edge2_Node000001_Node000007"><a xlink:title=" ">
<path fill="none" stroke="#63b8ff" d="M103.29,-136.82C127.93,-146.16 162.85,-159.38 189.97,-169.66"/>
<polygon fill="#63b8ff" stroke="#63b8ff" points="188.68,-172.91 199.27,-173.18 191.16,-166.36 188.68,-172.91"/>
</a>
</g>
</g>
<!-- Node10 -->
<g id="Node000010" class="node">
<title>Node10</title>
<g id="a_Node000010"><a xlink:href="pool_8c.html#a41cba27c25d33cb6822789a2856093f2" target="_top" xlink:title="Get a Buffer from the pool.">
<polygon fill="#fff0f0" stroke="red" points="270.5,-156.38 193.75,-156.38 193.75,-134.12 270.5,-134.12 270.5,-156.38"/>
<text text-anchor="middle" x="232.12" y="-142.88" font-family="Helvetica,sans-Serif" font-size="10.00">buf_pool_get</text>
</a>
</g>
</g>
<!-- Node1&#45;&gt;Node10 -->
<g id="edge3_Node000001_Node000010" class="edge">
<title>Node1&#45;&gt;Node10</title>
<g id="a_edge3_Node000001_Node000010"><a xlink:title=" ">
<path fill="none" stroke="#63b8ff" d="M143.6,-134.2C156.58,-135.84 169.87,-137.51 182.04,-139.05"/>
<polygon fill="#63b8ff" stroke="#63b8ff" points="181.45,-142.51 191.81,-140.29 182.33,-135.56 181.45,-142.51"/>
</a>
</g>
</g>
<!-- Node13 -->
<g id="Node000013" class="node">
<title>Node13</title>
<g id="a_Node000013"><a xlink:href="pool_8c.html#a4cc6068279461cb8628219586dfa35a1" target="_top" xlink:title="Return a Buffer to the pool.">
<polygon fill="#fff0f0" stroke="red" points="279.5,-116.38 184.75,-116.38 184.75,-94.12 279.5,-94.12 279.5,-116.38"/>
<text text-anchor="middle" x="232.12" y="-102.88" font-family="Helvetica,sans-Serif" font-size="10.00">buf_pool_release</text>
</a>
</g>
</g>
<!-- Node1&#45;&gt;Node13 -->
<g id="edge4_Node000001_Node000013" class="edge">
<title>Node1&#45;&gt;Node13</title>
<g id="a_edge4_Node000001_Node000013"><a xlink:title=" ">
<path fill="none" stroke="#63b8ff" d="M143.6,-116.3C153.44,-115.06 163.45,-113.8 173.01,-112.59"/>
<polygon fill="#63b8ff" stroke="#63b8ff" points="173.44,-116.06 182.92,-111.34 172.56,-109.12 173.44,-116.06"/>
</a>
</g>
</g>
<!-- Node18 -->
<g id="Node000018" class="node">
<title>Node18</title>
<g id="a_Node000018"><a xlink:href="buffer_8c.html#ad76477cc0c660bc50162393e997233eb" target="_top" xlink:title="Copy a Buffer&#39;s string.">
<polygon fill="#fff0f0" stroke="red" points="265.25,-76.38 199,-76.38 199,-54.12 265.25,-54.12 265.25,-76.38"/>
<text text-anchor="middle" x="232.12" y="-62.88" font-family="Helvetica,sans-Serif" font-size="10.00">buf_strdup</text>
</a>
</g>
</g>
<!-- Node1&#45;&gt;Node18 -->
<g id="edge5_Node000001_Node000018" class="edge">
<title>Node1&#45;&gt;Node18</title>
<g id="a_edge5_Node000001_Node000018"><a xlink:title=" ">
<path fill="none" stroke="#63b8ff" d="M103.29,-113.68C127.93,-104.34 162.85,-91.12 189.97,-80.84"/>
<polygon fill="#63b8ff" stroke="#63b8ff" points="191.16,-84.14 199.27,-77.32 188.68,-77.59 191.16,-84.14"/>
</a>
</g>
</g>
<!-- Node20 -->
<g id="Node000020" class="node">
<title>Node20</title>
<g id="a_Node000020"><a xlink:href="mbyte_8c.html#a8b3655b8b6b2c470b95071f06e2b7a64" target="_top" xlink:title="Will this character corrupt the display?">
<polygon fill="white" stroke="#666666" points="284.75,-36.5 179.5,-36.5 179.5,0 284.75,0 284.75,-36.5"/>
<text text-anchor="start" x="187.5" y="-23" font-family="Helvetica,sans-Serif" font-size="10.00">mutt_mb_is_display</text>
<text text-anchor="middle" x="232.12" y="-8.75" font-family="Helvetica,sans-Serif" font-size="10.00">_corrupting_utf8</text>
</a>
</g>
</g>
<!-- Node1&#45;&gt;Node20 -->
<g id="edge6_Node000001_Node000020" class="edge">
<title>Node1&#45;&gt;Node20</title>
<g id="a_edge6_Node000001_Node000020"><a xlink:title=" ">
<path fill="none" stroke="#63b8ff" d="M86.4,-113.89C106.21,-97.66 144.43,-67.36 179.5,-45.25 180.92,-44.36 182.37,-43.47 183.84,-42.58"/>
<polygon fill="#63b8ff" stroke="#63b8ff" points="185.54,-45.64 192.46,-37.62 182.05,-39.57 185.54,-45.64"/>
</a>
</g>
</g>
</g>
</svg>
