<?xml version="1.0" encoding="UTF-8" standalone="no"?>
<!DOCTYPE svg PUBLIC "-//W3C//DTD SVG 1.1//EN"
 "http://www.w3.org/Graphics/SVG/1.1/DTD/svg11.dtd">
<!-- Generated by graphviz version 2.44.0 (0)
 -->
<!-- Title: mutt_md5_bytes Pages: 1 -->
<svg width="198pt" height="66pt"
 viewBox="0.00 0.00 198.00 66.00" xmlns="http://www.w3.org/2000/svg" xmlns:xlink="http://www.w3.org/1999/xlink">
<g id="graph0" class="graph" transform="scale(1 1) rotate(0) translate(4 62)">
<title>mutt_md5_bytes</title>
<polygon fill="white" stroke="transparent" points="-4,4 -4,-62 194,-62 194,4 -4,4"/>
<!-- Node1 -->
<g id="node1" class="node">
<title>Node1</title>
<g id="a_node1"><a xlink:title="Calculate the MD5 hash of a buffer.">
<polygon fill="#bfbfbf" stroke="black" points="101,-19.5 101,-38.5 190,-38.5 190,-19.5 101,-19.5"/>
<text text-anchor="middle" x="145.5" y="-26.5" font-family="Helvetica" font-size="10.00">mutt_md5_bytes</text>
</a>
</g>
</g>
<!-- Node2 -->
<g id="node2" class="node">
<title>Node2</title>
<g id="a_node2"><a xlink:href="auth__cram_8c.html#a7491dc64781290870974d803a0dc6b75" target="_top" xlink:title="produce CRAM&#45;MD5 challenge response">
<polygon fill="white" stroke="red" points="0,-38.5 0,-57.5 65,-57.5 65,-38.5 0,-38.5"/>
<text text-anchor="middle" x="32.5" y="-45.5" font-family="Helvetica" font-size="10.00">hmac_md5</text>
</a>
</g>
</g>
<!-- Node1&#45;&gt;Node2 -->
<g id="edge1" class="edge">
<title>Node1&#45;&gt;Node2</title>
<path fill="none" stroke="midnightblue" d="M91.06,-38.15C82.23,-39.66 73.33,-41.18 65.26,-42.56"/>
<polygon fill="midnightblue" stroke="midnightblue" points="91.68,-41.59 100.95,-36.45 90.5,-34.69 91.68,-41.59"/>
</g>
<!-- Node4 -->
<g id="node3" class="node">
<title>Node4</title>
<g id="a_node3"><a xlink:href="md5_8h.html#aa99a10a994faeb72cee22fa626a50892" target="_top" xlink:title="Calculate the MD5 hash of a NULL&#45;terminated string.">
<polygon fill="white" stroke="red" points="2.5,-0.5 2.5,-19.5 62.5,-19.5 62.5,-0.5 2.5,-0.5"/>
<text text-anchor="middle" x="32.5" y="-7.5" font-family="Helvetica" font-size="10.00">mutt_md5</text>
</a>
</g>
</g>
<!-- Node1&#45;&gt;Node4 -->
<g id="edge2" class="edge">
<title>Node1&#45;&gt;Node4</title>
<path fill="none" stroke="midnightblue" d="M90.86,-19.82C81.1,-18.15 71.27,-16.47 62.57,-14.98"/>
<polygon fill="midnightblue" stroke="midnightblue" points="90.5,-23.31 100.95,-21.55 91.68,-16.41 90.5,-23.31"/>
</g>
</g>
</svg>
