<?xml version="1.0" encoding="UTF-8" standalone="no"?>
<!DOCTYPE svg PUBLIC "-//W3C//DTD SVG 1.1//EN"
 "http://www.w3.org/Graphics/SVG/1.1/DTD/svg11.dtd">
<!-- Generated by graphviz version 2.44.0 (0)
 -->
<!-- Title: mutt/md5.c Pages: 1 -->
<svg width="371pt" height="140pt"
 viewBox="0.00 0.00 370.50 140.00" xmlns="http://www.w3.org/2000/svg" xmlns:xlink="http://www.w3.org/1999/xlink">
<g id="graph0" class="graph" transform="scale(1 1) rotate(0) translate(4 136)">
<title>mutt/md5.c</title>
<polygon fill="white" stroke="transparent" points="-4,4 -4,-136 366.5,-136 366.5,4 -4,4"/>
<!-- Node1 -->
<g id="node1" class="node">
<title>Node1</title>
<g id="a_node1"><a xlink:title=" ">
<polygon fill="#bfbfbf" stroke="black" points="161.5,-112.5 161.5,-131.5 227.5,-131.5 227.5,-112.5 161.5,-112.5"/>
<text text-anchor="middle" x="194.5" y="-119.5" font-family="Helvetica" font-size="10.00">mutt/md5.c</text>
</a>
</g>
</g>
<!-- Node2 -->
<g id="node2" class="node">
<title>Node2</title>
<g id="a_node2"><a xlink:title=" ">
<polygon fill="white" stroke="#bfbfbf" points="0,-56.5 0,-75.5 51,-75.5 51,-56.5 0,-56.5"/>
<text text-anchor="middle" x="25.5" y="-63.5" font-family="Helvetica" font-size="10.00">config.h</text>
</a>
</g>
</g>
<!-- Node1&#45;&gt;Node2 -->
<g id="edge1" class="edge">
<title>Node1&#45;&gt;Node2</title>
<path fill="none" stroke="midnightblue" d="M167.72,-112.44C138.83,-103.21 92.7,-88.47 60.85,-78.29"/>
<polygon fill="midnightblue" stroke="midnightblue" points="61.64,-74.87 51.05,-75.16 59.51,-81.54 61.64,-74.87"/>
</g>
<!-- Node3 -->
<g id="node3" class="node">
<title>Node3</title>
<g id="a_node3"><a xlink:title=" ">
<polygon fill="white" stroke="#bfbfbf" points="69,-56.5 69,-75.5 120,-75.5 120,-56.5 69,-56.5"/>
<text text-anchor="middle" x="94.5" y="-63.5" font-family="Helvetica" font-size="10.00">stddef.h</text>
</a>
</g>
</g>
<!-- Node1&#45;&gt;Node3 -->
<g id="edge2" class="edge">
<title>Node1&#45;&gt;Node3</title>
<path fill="none" stroke="midnightblue" d="M178.43,-112.32C162.54,-103.74 137.99,-90.49 119.54,-80.52"/>
<polygon fill="midnightblue" stroke="midnightblue" points="120.99,-77.33 110.53,-75.65 117.66,-83.49 120.99,-77.33"/>
</g>
<!-- Node4 -->
<g id="node4" class="node">
<title>Node4</title>
<g id="a_node4"><a xlink:title=" ">
<polygon fill="white" stroke="#bfbfbf" points="138.5,-56.5 138.5,-75.5 194.5,-75.5 194.5,-56.5 138.5,-56.5"/>
<text text-anchor="middle" x="166.5" y="-63.5" font-family="Helvetica" font-size="10.00">stdbool.h</text>
</a>
</g>
</g>
<!-- Node1&#45;&gt;Node4 -->
<g id="edge3" class="edge">
<title>Node1&#45;&gt;Node4</title>
<path fill="none" stroke="midnightblue" d="M189.88,-112.08C186.04,-104.69 180.48,-93.95 175.74,-84.81"/>
<polygon fill="midnightblue" stroke="midnightblue" points="178.75,-83.02 171.04,-75.75 172.53,-86.24 178.75,-83.02"/>
</g>
<!-- Node5 -->
<g id="node5" class="node">
<title>Node5</title>
<g id="a_node5"><a xlink:title=" ">
<polygon fill="white" stroke="#bfbfbf" points="258.5,-0.5 258.5,-19.5 304.5,-19.5 304.5,-0.5 258.5,-0.5"/>
<text text-anchor="middle" x="281.5" y="-7.5" font-family="Helvetica" font-size="10.00">stdio.h</text>
</a>
</g>
</g>
<!-- Node1&#45;&gt;Node5 -->
<g id="edge4" class="edge">
<title>Node1&#45;&gt;Node5</title>
<path fill="none" stroke="midnightblue" d="M200.51,-112.43C209.4,-99.84 226.72,-75.71 242.5,-56 250.25,-46.32 259.31,-35.82 266.74,-27.41"/>
<polygon fill="midnightblue" stroke="midnightblue" points="269.48,-29.59 273.52,-19.79 264.26,-24.93 269.48,-29.59"/>
</g>
<!-- Node6 -->
<g id="node6" class="node">
<title>Node6</title>
<g id="a_node6"><a xlink:title=" ">
<polygon fill="white" stroke="#bfbfbf" points="251,-56.5 251,-75.5 300,-75.5 300,-56.5 251,-56.5"/>
<text text-anchor="middle" x="275.5" y="-63.5" font-family="Helvetica" font-size="10.00">string.h</text>
</a>
</g>
</g>
<!-- Node1&#45;&gt;Node6 -->
<g id="edge5" class="edge">
<title>Node1&#45;&gt;Node6</title>
<path fill="none" stroke="midnightblue" d="M207.51,-112.32C220.03,-103.98 239.18,-91.21 253.97,-81.35"/>
<polygon fill="midnightblue" stroke="midnightblue" points="256.14,-84.11 262.52,-75.65 252.26,-78.29 256.14,-84.11"/>
</g>
<!-- Node7 -->
<g id="node7" class="node">
<title>Node7</title>
<g id="a_node7"><a xlink:href="md5_8h.html" target="_top" xlink:title=" ">
<polygon fill="white" stroke="red" points="318.5,-56.5 318.5,-75.5 362.5,-75.5 362.5,-56.5 318.5,-56.5"/>
<text text-anchor="middle" x="340.5" y="-63.5" font-family="Helvetica" font-size="10.00">md5.h</text>
</a>
</g>
</g>
<!-- Node1&#45;&gt;Node7 -->
<g id="edge6" class="edge">
<title>Node1&#45;&gt;Node7</title>
<path fill="none" stroke="midnightblue" d="M217.63,-112.44C242.27,-103.33 281.42,-88.85 308.89,-78.69"/>
<polygon fill="midnightblue" stroke="midnightblue" points="310.26,-81.91 318.43,-75.16 307.84,-75.35 310.26,-81.91"/>
</g>
<!-- Node7&#45;&gt;Node5 -->
<g id="edge7" class="edge">
<title>Node7&#45;&gt;Node5</title>
<path fill="none" stroke="midnightblue" d="M331.02,-56.32C322.3,-48.34 309.16,-36.31 298.6,-26.65"/>
<polygon fill="midnightblue" stroke="midnightblue" points="300.89,-24 291.15,-19.83 296.17,-29.17 300.89,-24"/>
</g>
</g>
</svg>
