<?xml version="1.0" encoding="UTF-8" standalone="no"?>
<!DOCTYPE svg PUBLIC "-//W3C//DTD SVG 1.1//EN"
 "http://www.w3.org/Graphics/SVG/1.1/DTD/svg11.dtd">
<!-- Generated by graphviz version 2.40.1 (20161225.0304)
 -->
<!-- Title: mutt_menu_loop Pages: 1 -->
<svg width="616pt" height="1404pt"
 viewBox="0.00 0.00 616.00 1404.31" xmlns="http://www.w3.org/2000/svg" xmlns:xlink="http://www.w3.org/1999/xlink">
<g id="graph0" class="graph" transform="scale(1 1) rotate(0) translate(4 1400.3106)">
<title>mutt_menu_loop</title>
<polygon fill="#ffffff" stroke="transparent" points="-4,4 -4,-1400.3106 612,-1400.3106 612,4 -4,4"/>
<!-- Node38802 -->
<g id="node1" class="node">
<title>Node38802</title>
<polygon fill="#bfbfbf" stroke="#000000" points="0,-680.8106 0,-699.8106 99,-699.8106 99,-680.8106 0,-680.8106"/>
<text text-anchor="middle" x="49.5" y="-687.8106" font-family="Helvetica,sans-Serif" font-size="10.00" fill="#000000">mutt_menu_loop</text>
</g>
<!-- Node38803 -->
<g id="node2" class="node">
<title>Node38803</title>
<g id="a_node2"><a xlink:href="mutt__curses_8c.html#afa5ccfd522d349a21853c02e4fa6af88" target="_top" xlink:title="Set the cursor state. ">
<polygon fill="#ffffff" stroke="#000000" points="142,-1376.8106 142,-1395.8106 274,-1395.8106 274,-1376.8106 142,-1376.8106"/>
<text text-anchor="middle" x="208" y="-1383.8106" font-family="Helvetica,sans-Serif" font-size="10.00" fill="#000000">mutt_curses_set_cursor</text>
</a>
</g>
</g>
<!-- Node38802&#45;&gt;Node38803 -->
<g id="edge1" class="edge">
<title>Node38802&#45;&gt;Node38803</title>
<path fill="none" stroke="#191970" d="M50.0774,-700.0733C54.8431,-779.2466 88.6687,-1314.5811 135,-1367.3106 136.0535,-1368.5096 137.1721,-1369.6375 138.3473,-1370.6983"/>
<polygon fill="#191970" stroke="#191970" points="136.6638,-1373.7974 146.8333,-1376.7694 140.7369,-1368.1043 136.6638,-1373.7974"/>
</g>
<!-- Node38804 -->
<g id="node3" class="node">
<title>Node38804</title>
<g id="a_node3"><a xlink:href="menu_8c.html#a3da31793ff9ae935dccab75ae653a064" target="_top" xlink:title="Redraw the parts of the screen that have been flagged to be redrawn. ">
<polygon fill="#ffffff" stroke="#ff0000" points="166.5,-1338.8106 166.5,-1357.8106 249.5,-1357.8106 249.5,-1338.8106 166.5,-1338.8106"/>
<text text-anchor="middle" x="208" y="-1345.8106" font-family="Helvetica,sans-Serif" font-size="10.00" fill="#000000">menu_redraw</text>
</a>
</g>
</g>
<!-- Node38802&#45;&gt;Node38804 -->
<g id="edge2" class="edge">
<title>Node38802&#45;&gt;Node38804</title>
<path fill="none" stroke="#191970" d="M50.1492,-700.006C55.3469,-776.4019 91.1363,-1279.7598 135,-1329.3106 140.7399,-1335.7947 148.385,-1340.1967 156.5682,-1343.1597"/>
<polygon fill="#191970" stroke="#191970" points="155.7595,-1346.5697 166.3398,-1346.0155 157.7232,-1339.8508 155.7595,-1346.5697"/>
</g>
<!-- Node38815 -->
<g id="node4" class="node">
<title>Node38815</title>
<g id="a_node4"><a xlink:href="mutt__window_8c.html#ad7d1bb0364bb246ac27e2d4a9c478119" target="_top" xlink:title="Move the cursor and write a fixed string to a Window. ">
<polygon fill="#ffffff" stroke="#000000" points="141,-1300.8106 141,-1319.8106 275,-1319.8106 275,-1300.8106 141,-1300.8106"/>
<text text-anchor="middle" x="208" y="-1307.8106" font-family="Helvetica,sans-Serif" font-size="10.00" fill="#000000">mutt_window_mvaddstr</text>
</a>
</g>
</g>
<!-- Node38802&#45;&gt;Node38815 -->
<g id="edge3" class="edge">
<title>Node38802&#45;&gt;Node38815</title>
<path fill="none" stroke="#191970" d="M50.2963,-700.2569C56.3118,-774.3894 95.4555,-1239.1538 135,-1286.3106 138.1557,-1290.0737 141.9133,-1293.2509 146.0344,-1295.9327"/>
<polygon fill="#191970" stroke="#191970" points="144.4711,-1299.0666 154.9279,-1300.7711 147.8163,-1292.9177 144.4711,-1299.0666"/>
</g>
<!-- Node38816 -->
<g id="node5" class="node">
<title>Node38816</title>
<g id="a_node5"><a xlink:href="mutt__window_8c.html#ae2ba61d0bc2413c09e6a12f1fe345ab4" target="_top" xlink:title="Clear to the end of the line. ">
<polygon fill="#ffffff" stroke="#000000" points="483,-1200.8106 483,-1219.8106 608,-1219.8106 608,-1200.8106 483,-1200.8106"/>
<text text-anchor="middle" x="545.5" y="-1207.8106" font-family="Helvetica,sans-Serif" font-size="10.00" fill="#000000">mutt_window_clrtoeol</text>
</a>
</g>
</g>
<!-- Node38802&#45;&gt;Node38816 -->
<g id="edge4" class="edge">
<title>Node38802&#45;&gt;Node38816</title>
<path fill="none" stroke="#191970" d="M50.2079,-699.8332C55.5758,-770.7916 90.8603,-1215.3681 135,-1253.3106 189.1993,-1299.9004 408.1835,-1247.7732 502.2345,-1222.4855"/>
<polygon fill="#191970" stroke="#191970" points="503.2696,-1225.8312 512.0038,-1219.8342 501.4361,-1219.0756 503.2696,-1225.8312"/>
</g>
<!-- Node38809 -->
<g id="node6" class="node">
<title>Node38809</title>
<g id="a_node6"><a xlink:href="mutt__window_8c.html#a882e79c6c69caad2eb7588c1f542767b" target="_top" xlink:title="Move the cursor in a Window. ">
<polygon fill="#ffffff" stroke="#000000" points="487.5,-1134.8106 487.5,-1153.8106 603.5,-1153.8106 603.5,-1134.8106 487.5,-1134.8106"/>
<text text-anchor="middle" x="545.5" y="-1141.8106" font-family="Helvetica,sans-Serif" font-size="10.00" fill="#000000">mutt_window_move</text>
</a>
</g>
</g>
<!-- Node38802&#45;&gt;Node38809 -->
<g id="edge5" class="edge">
<title>Node38802&#45;&gt;Node38809</title>
<path fill="none" stroke="#191970" d="M50.3304,-700.1154C55.0661,-753.6694 80.3963,-1010.348 135,-1063.3106 141.2716,-1069.3937 370.0845,-1112.1036 483.3144,-1132.9362"/>
<polygon fill="#191970" stroke="#191970" points="482.7735,-1136.3953 493.2415,-1134.761 484.0391,-1129.5106 482.7735,-1136.3953"/>
</g>
<!-- Node39036 -->
<g id="node7" class="node">
<title>Node39036</title>
<g id="a_node7"><a xlink:href="curs__lib_8c.html#a99dc8e687f3d5688695d0d7a1bab3c3f" target="_top" xlink:title="Force a refresh of the screen. ">
<polygon fill="#ffffff" stroke="#000000" points="168,-1186.8106 168,-1205.8106 248,-1205.8106 248,-1186.8106 168,-1186.8106"/>
<text text-anchor="middle" x="208" y="-1193.8106" font-family="Helvetica,sans-Serif" font-size="10.00" fill="#000000">mutt_refresh</text>
</a>
</g>
</g>
<!-- Node38802&#45;&gt;Node39036 -->
<g id="edge6" class="edge">
<title>Node38802&#45;&gt;Node39036</title>
<path fill="none" stroke="#191970" d="M49.8189,-700.0141C52.0559,-762.1492 67.3458,-1103.9542 135,-1177.3106 141.1282,-1183.9553 149.2587,-1188.3981 157.8661,-1191.3434"/>
<polygon fill="#191970" stroke="#191970" points="157.1341,-1194.7723 167.7056,-1194.0698 159.0034,-1188.0265 157.1341,-1194.7723"/>
</g>
<!-- Node40675 -->
<g id="node8" class="node">
<title>Node40675</title>
<g id="a_node8"><a xlink:href="menu_8c.html#a344bdf02720f1c18c2e5ff5285e79424" target="_top" xlink:title="Check if there are any menu key events to process. ">
<polygon fill="#ffffff" stroke="#ff0000" points="150.5,-1148.8106 150.5,-1167.8106 265.5,-1167.8106 265.5,-1148.8106 150.5,-1148.8106"/>
<text text-anchor="middle" x="208" y="-1155.8106" font-family="Helvetica,sans-Serif" font-size="10.00" fill="#000000">menu_dialog_dokey</text>
</a>
</g>
</g>
<!-- Node38802&#45;&gt;Node40675 -->
<g id="edge7" class="edge">
<title>Node38802&#45;&gt;Node40675</title>
<path fill="none" stroke="#191970" d="M50.05,-699.8579C53.592,-758.1726 74.9702,-1066.1011 135,-1134.3106 138.2969,-1138.0568 142.189,-1141.2206 146.4318,-1143.8923"/>
<polygon fill="#191970" stroke="#191970" points="145.0786,-1147.1358 155.5552,-1148.7139 148.3494,-1140.9469 145.0786,-1147.1358"/>
</g>
<!-- Node39612 -->
<g id="node9" class="node">
<title>Node39612</title>
<g id="a_node9"><a xlink:href="keymap_8c.html#a9fa27bc0a5dc94d95f1530bab3036e85" target="_top" xlink:title="Determine what a keypress should do. ">
<polygon fill="#ffffff" stroke="#ff0000" points="348,-547.8106 348,-566.8106 416,-566.8106 416,-547.8106 348,-547.8106"/>
<text text-anchor="middle" x="382" y="-554.8106" font-family="Helvetica,sans-Serif" font-size="10.00" fill="#000000">km_dokey</text>
</a>
</g>
</g>
<!-- Node38802&#45;&gt;Node39612 -->
<g id="edge8" class="edge">
<title>Node38802&#45;&gt;Node39612</title>
<path fill="none" stroke="#191970" d="M51.2868,-699.8204C59.3426,-741.5761 93.6919,-907.8966 135,-937.3106 187.8578,-974.9487 229.56,-976.8643 281,-937.3106 339.9431,-891.9875 371.7072,-648.6303 379.8661,-577.097"/>
<polygon fill="#191970" stroke="#191970" points="383.3457,-577.4742 380.9735,-567.1483 376.3886,-576.6997 383.3457,-577.4742"/>
</g>
<!-- Node39051 -->
<g id="node10" class="node">
<title>Node39051</title>
<g id="a_node10"><a xlink:href="mutt__window_8c.html#adb0d282e3a7b3cf644485c1aab14774f" target="_top" xlink:title="Clear a row of a Window. ">
<polygon fill="#ffffff" stroke="#000000" points="317,-1167.8106 317,-1186.8106 447,-1186.8106 447,-1167.8106 317,-1167.8106"/>
<text text-anchor="middle" x="382" y="-1174.8106" font-family="Helvetica,sans-Serif" font-size="10.00" fill="#000000">mutt_window_clearline</text>
</a>
</g>
</g>
<!-- Node38802&#45;&gt;Node39051 -->
<g id="edge9" class="edge">
<title>Node38802&#45;&gt;Node39051</title>
<path fill="none" stroke="#191970" d="M50.2269,-700.1409C54.5656,-756.2337 78.7801,-1035.4724 135,-1096.3106 180.9092,-1145.991 216.8564,-1117.8304 281,-1139.3106 303.7962,-1146.9445 329.1157,-1156.473 348.7012,-1164.0787"/>
<polygon fill="#191970" stroke="#191970" points="347.5093,-1167.3707 358.0973,-1167.7506 350.0572,-1160.8508 347.5093,-1167.3707"/>
</g>
<!-- Node40281 -->
<g id="node11" class="node">
<title>Node40281</title>
<g id="a_node11"><a xlink:href="curs__lib_8c.html#aac5ad0a72c840ff5912ae61615321a5a" target="_top" xlink:title="Drop a macro from the input buffer. ">
<polygon fill="#ffffff" stroke="#000000" points="148.5,-1023.3106 148.5,-1053.3106 267.5,-1053.3106 267.5,-1023.3106 148.5,-1023.3106"/>
<text text-anchor="start" x="156.5" y="-1041.3106" font-family="Helvetica,sans-Serif" font-size="10.00" fill="#000000">mutt_flush_macro_to</text>
<text text-anchor="middle" x="208" y="-1030.3106" font-family="Helvetica,sans-Serif" font-size="10.00" fill="#000000">_endcond</text>
</a>
</g>
</g>
<!-- Node38802&#45;&gt;Node40281 -->
<g id="edge12" class="edge">
<title>Node38802&#45;&gt;Node40281</title>
<path fill="none" stroke="#191970" d="M50.8156,-699.9514C57.6082,-748.4291 90.1309,-965.1286 135,-1013.3106 136.5577,-1014.9833 138.2321,-1016.5442 140.0006,-1018.0005"/>
<polygon fill="#191970" stroke="#191970" points="138.0746,-1020.9241 148.2883,-1023.7404 142.0602,-1015.1694 138.0746,-1020.9241"/>
</g>
<!-- Node39014 -->
<g id="node12" class="node">
<title>Node39014</title>
<g id="a_node12"><a xlink:href="mutt__curses_8h.html#a1f18053a2fadd1f5c2f45382e3165dcb" target="_top" xlink:title="Update NeoMutt&#39;s opinion about the window size (CURSES) ">
<polygon fill="#ffffff" stroke="#ff0000" points="152,-984.8106 152,-1003.8106 264,-1003.8106 264,-984.8106 152,-984.8106"/>
<text text-anchor="middle" x="208" y="-991.8106" font-family="Helvetica,sans-Serif" font-size="10.00" fill="#000000">mutt_resize_screen</text>
</a>
</g>
</g>
<!-- Node38802&#45;&gt;Node39014 -->
<g id="edge13" class="edge">
<title>Node38802&#45;&gt;Node39014</title>
<path fill="none" stroke="#191970" d="M51.1979,-699.8362C59.2657,-744.1214 94.9997,-929.4503 135,-970.3106 138.8497,-974.2431 143.3541,-977.5314 148.2024,-980.281"/>
<polygon fill="#191970" stroke="#191970" points="146.7094,-983.4469 157.2333,-984.6714 149.77,-977.1514 146.7094,-983.4469"/>
</g>
<!-- Node39048 -->
<g id="node13" class="node">
<title>Node39048</title>
<g id="a_node13"><a xlink:href="mutt__logging_8c.html#af068b3f524a31fad293b2fb61dfc4534" target="_top" xlink:title="Clear the message line (bottom line of screen) ">
<polygon fill="#ffffff" stroke="#000000" points="333,-53.8106 333,-72.8106 431,-72.8106 431,-53.8106 333,-53.8106"/>
<text text-anchor="middle" x="382" y="-60.8106" font-family="Helvetica,sans-Serif" font-size="10.00" fill="#000000">mutt_clear_error</text>
</a>
</g>
</g>
<!-- Node38802&#45;&gt;Node39048 -->
<g id="edge14" class="edge">
<title>Node38802&#45;&gt;Node39048</title>
<path fill="none" stroke="#191970" d="M49.9873,-680.6178C54.0338,-602.0244 83.216,-70.8629 135,-25.3106 198.6765,30.703 309.1157,-20.976 357.7824,-48.5467"/>
<polygon fill="#191970" stroke="#191970" points="356.2543,-51.7067 366.6599,-53.7004 359.7688,-45.6528 356.2543,-51.7067"/>
</g>
<!-- Node40676 -->
<g id="node14" class="node">
<title>Node40676</title>
<g id="a_node14"><a xlink:href="menu_8c.html#a6ca7c23d04b002f0afb48d4a946f2780" target="_top" xlink:title="Convert menubar movement to scrolling. ">
<polygon fill="#ffffff" stroke="#000000" points="135,-908.8106 135,-927.8106 281,-927.8106 281,-908.8106 135,-908.8106"/>
<text text-anchor="middle" x="208" y="-915.8106" font-family="Helvetica,sans-Serif" font-size="10.00" fill="#000000">menu_dialog_translate_op</text>
</a>
</g>
</g>
<!-- Node38802&#45;&gt;Node40676 -->
<g id="edge15" class="edge">
<title>Node38802&#45;&gt;Node40676</title>
<path fill="none" stroke="#191970" d="M50.4412,-699.9408C54.2115,-733.1005 71.2565,-843.5664 135,-899.3106 136.9408,-901.0078 139.0148,-902.5564 141.1901,-903.9691"/>
<polygon fill="#191970" stroke="#191970" points="139.5582,-907.0657 150.0147,-908.7717 142.9043,-900.9172 139.5582,-907.0657"/>
</g>
<!-- Node40677 -->
<g id="node15" class="node">
<title>Node40677</title>
<g id="a_node15"><a xlink:href="menu_8c.html#ae505cfcfcfc153f1da4077fa769ef5df" target="_top" xlink:title="Move the focus to the next item in the menu. ">
<polygon fill="#ffffff" stroke="#000000" points="157,-870.8106 157,-889.8106 259,-889.8106 259,-870.8106 157,-870.8106"/>
<text text-anchor="middle" x="208" y="-877.8106" font-family="Helvetica,sans-Serif" font-size="10.00" fill="#000000">menu_next_entry</text>
</a>
</g>
</g>
<!-- Node38802&#45;&gt;Node40677 -->
<g id="edge16" class="edge">
<title>Node38802&#45;&gt;Node40677</title>
<path fill="none" stroke="#191970" d="M51.4525,-700.2177C57.7855,-729.6453 80.5823,-817.2252 135,-861.3106 138.7459,-864.3453 142.924,-866.9001 147.3326,-869.0502"/>
<polygon fill="#191970" stroke="#191970" points="146.0632,-872.3129 156.6406,-872.9196 148.7502,-865.8491 146.0632,-872.3129"/>
</g>
<!-- Node40678 -->
<g id="node16" class="node">
<title>Node40678</title>
<g id="a_node16"><a xlink:href="menu_8c.html#a55d34ab14d6a7e12e728e131e1022ae0" target="_top" xlink:title="Move the focus to the previous item in the menu. ">
<polygon fill="#ffffff" stroke="#000000" points="157,-832.8106 157,-851.8106 259,-851.8106 259,-832.8106 157,-832.8106"/>
<text text-anchor="middle" x="208" y="-839.8106" font-family="Helvetica,sans-Serif" font-size="10.00" fill="#000000">menu_prev_entry</text>
</a>
</g>
</g>
<!-- Node38802&#45;&gt;Node40678 -->
<g id="edge17" class="edge">
<title>Node38802&#45;&gt;Node40678</title>
<path fill="none" stroke="#191970" d="M52.9025,-700.1117C62.0173,-724.8687 89.4325,-790.2927 135,-823.3106 138.7398,-826.0204 142.8345,-828.3442 147.1154,-830.3369"/>
<polygon fill="#191970" stroke="#191970" points="146.1349,-833.7147 156.719,-834.1917 148.7425,-827.2185 146.1349,-833.7147"/>
</g>
<!-- Node40288 -->
<g id="node17" class="node">
<title>Node40288</title>
<g id="a_node17"><a xlink:href="menu_8c.html#aedacdfa878d8a022d35749b03a4cecc7" target="_top" xlink:title="Move the focus down half a page in the menu. ">
<polygon fill="#ffffff" stroke="#ff0000" points="158,-794.8106 158,-813.8106 258,-813.8106 258,-794.8106 158,-794.8106"/>
<text text-anchor="middle" x="208" y="-801.8106" font-family="Helvetica,sans-Serif" font-size="10.00" fill="#000000">menu_half_down</text>
</a>
</g>
</g>
<!-- Node38802&#45;&gt;Node40288 -->
<g id="edge18" class="edge">
<title>Node38802&#45;&gt;Node40288</title>
<path fill="none" stroke="#191970" d="M55.4526,-700.0928C67.7725,-719.4772 98.0289,-762.8311 135,-785.3106 139.1192,-787.8152 143.5633,-789.9924 148.1536,-791.8845"/>
<polygon fill="#191970" stroke="#191970" points="147.13,-795.2368 157.7239,-795.3816 149.5325,-788.662 147.13,-795.2368"/>
</g>
<!-- Node40290 -->
<g id="node18" class="node">
<title>Node40290</title>
<g id="a_node18"><a xlink:href="menu_8c.html#adf218323f3027edcec7c22491bea6f30" target="_top" xlink:title="Move the focus up half a page in the menu. ">
<polygon fill="#ffffff" stroke="#ff0000" points="165,-756.8106 165,-775.8106 251,-775.8106 251,-756.8106 165,-756.8106"/>
<text text-anchor="middle" x="208" y="-763.8106" font-family="Helvetica,sans-Serif" font-size="10.00" fill="#000000">menu_half_up</text>
</a>
</g>
</g>
<!-- Node38802&#45;&gt;Node40290 -->
<g id="edge19" class="edge">
<title>Node38802&#45;&gt;Node40290</title>
<path fill="none" stroke="#191970" d="M61.2057,-699.9842C77.0171,-712.5949 106.5102,-734.5429 135,-747.3106 141.2629,-750.1173 148.0208,-752.5711 154.8086,-754.6989"/>
<polygon fill="#191970" stroke="#191970" points="154.1409,-758.1498 164.7208,-757.5862 156.0986,-751.4291 154.1409,-758.1498"/>
</g>
<!-- Node40294 -->
<g id="node19" class="node">
<title>Node40294</title>
<g id="a_node19"><a xlink:href="menu_8c.html#a9b13c608a3b0bfd22b1961b83169097c" target="_top" xlink:title="Move the focus to the next page in the menu. ">
<polygon fill="#ffffff" stroke="#ff0000" points="157.5,-718.8106 157.5,-737.8106 258.5,-737.8106 258.5,-718.8106 157.5,-718.8106"/>
<text text-anchor="middle" x="208" y="-725.8106" font-family="Helvetica,sans-Serif" font-size="10.00" fill="#000000">menu_next_page</text>
</a>
</g>
</g>
<!-- Node38802&#45;&gt;Node40294 -->
<g id="edge20" class="edge">
<title>Node38802&#45;&gt;Node40294</title>
<path fill="none" stroke="#191970" d="M89.4962,-699.8996C110.412,-704.9141 136.2081,-711.0987 158.3864,-716.4159"/>
<polygon fill="#191970" stroke="#191970" points="157.7509,-719.8626 168.2914,-718.7905 159.383,-713.0555 157.7509,-719.8626"/>
</g>
<!-- Node40296 -->
<g id="node20" class="node">
<title>Node40296</title>
<g id="a_node20"><a xlink:href="menu_8c.html#a4ba92e31cdc5ba96e4851554ff820066" target="_top" xlink:title="Move the focus to the previous page in the menu. ">
<polygon fill="#ffffff" stroke="#ff0000" points="157.5,-680.8106 157.5,-699.8106 258.5,-699.8106 258.5,-680.8106 157.5,-680.8106"/>
<text text-anchor="middle" x="208" y="-687.8106" font-family="Helvetica,sans-Serif" font-size="10.00" fill="#000000">menu_prev_page</text>
</a>
</g>
</g>
<!-- Node38802&#45;&gt;Node40296 -->
<g id="edge21" class="edge">
<title>Node38802&#45;&gt;Node40296</title>
<path fill="none" stroke="#191970" d="M99.2155,-690.3106C114.4081,-690.3106 131.2906,-690.3106 147.1353,-690.3106"/>
<polygon fill="#191970" stroke="#191970" points="147.3695,-693.8107 157.3695,-690.3106 147.3695,-686.8107 147.3695,-693.8107"/>
</g>
<!-- Node40293 -->
<g id="node21" class="node">
<title>Node40293</title>
<g id="a_node21"><a xlink:href="menu_8c.html#a9ebb3222efc82f4a55858911278a3016" target="_top" xlink:title="Move the view down one line, keeping the selection the same. ">
<polygon fill="#ffffff" stroke="#000000" points="160.5,-642.8106 160.5,-661.8106 255.5,-661.8106 255.5,-642.8106 160.5,-642.8106"/>
<text text-anchor="middle" x="208" y="-649.8106" font-family="Helvetica,sans-Serif" font-size="10.00" fill="#000000">menu_next_line</text>
</a>
</g>
</g>
<!-- Node38802&#45;&gt;Node40293 -->
<g id="edge22" class="edge">
<title>Node38802&#45;&gt;Node40293</title>
<path fill="none" stroke="#191970" d="M89.4962,-680.7216C110.412,-675.7071 136.2081,-669.5225 158.3864,-664.2053"/>
<polygon fill="#191970" stroke="#191970" points="159.383,-667.5657 168.2914,-661.8306 157.7509,-660.7586 159.383,-667.5657"/>
</g>
<!-- Node40295 -->
<g id="node22" class="node">
<title>Node40295</title>
<g id="a_node22"><a xlink:href="menu_8c.html#a7e1b88289b77111db8bdc14abc304981" target="_top" xlink:title="Move the view up one line, keeping the selection the same. ">
<polygon fill="#ffffff" stroke="#000000" points="160.5,-604.8106 160.5,-623.8106 255.5,-623.8106 255.5,-604.8106 160.5,-604.8106"/>
<text text-anchor="middle" x="208" y="-611.8106" font-family="Helvetica,sans-Serif" font-size="10.00" fill="#000000">menu_prev_line</text>
</a>
</g>
</g>
<!-- Node38802&#45;&gt;Node40295 -->
<g id="edge23" class="edge">
<title>Node38802&#45;&gt;Node40295</title>
<path fill="none" stroke="#191970" d="M61.2057,-680.637C77.0171,-668.0263 106.5102,-646.0783 135,-633.3106 140.3591,-630.9089 146.0807,-628.7656 151.8733,-626.8639"/>
<polygon fill="#191970" stroke="#191970" points="153.092,-630.1515 161.6375,-623.8885 151.0515,-623.4555 153.092,-630.1515"/>
</g>
<!-- Node40287 -->
<g id="node23" class="node">
<title>Node40287</title>
<g id="a_node23"><a xlink:href="menu_8c.html#af9704a95c8ca0fa4683cca09abe2752d" target="_top" xlink:title="Move the focus to the first entry in the menu. ">
<polygon fill="#ffffff" stroke="#000000" points="158.5,-566.8106 158.5,-585.8106 257.5,-585.8106 257.5,-566.8106 158.5,-566.8106"/>
<text text-anchor="middle" x="208" y="-573.8106" font-family="Helvetica,sans-Serif" font-size="10.00" fill="#000000">menu_first_entry</text>
</a>
</g>
</g>
<!-- Node38802&#45;&gt;Node40287 -->
<g id="edge24" class="edge">
<title>Node38802&#45;&gt;Node40287</title>
<path fill="none" stroke="#191970" d="M55.4526,-680.5284C67.7725,-661.144 98.0289,-617.7901 135,-595.3106 139.364,-592.6572 144.0926,-590.3712 148.9734,-588.4024"/>
<polygon fill="#191970" stroke="#191970" points="150.2568,-591.6605 158.4912,-584.9938 147.8966,-585.0704 150.2568,-591.6605"/>
</g>
<!-- Node40291 -->
<g id="node24" class="node">
<title>Node40291</title>
<g id="a_node24"><a xlink:href="menu_8c.html#ae4d6d408703cf768a355a532359b7ac2" target="_top" xlink:title="Move the focus to the last entry in the menu. ">
<polygon fill="#ffffff" stroke="#000000" points="159,-528.8106 159,-547.8106 257,-547.8106 257,-528.8106 159,-528.8106"/>
<text text-anchor="middle" x="208" y="-535.8106" font-family="Helvetica,sans-Serif" font-size="10.00" fill="#000000">menu_last_entry</text>
</a>
</g>
</g>
<!-- Node38802&#45;&gt;Node40291 -->
<g id="edge25" class="edge">
<title>Node38802&#45;&gt;Node40291</title>
<path fill="none" stroke="#191970" d="M52.9025,-680.5095C62.0173,-655.7525 89.4325,-590.3285 135,-557.3106 139.265,-554.2202 143.9917,-551.6319 148.9298,-549.4641"/>
<polygon fill="#191970" stroke="#191970" points="150.5093,-552.6085 158.6205,-545.7924 148.0291,-546.0626 150.5093,-552.6085"/>
</g>
<!-- Node40297 -->
<g id="node25" class="node">
<title>Node40297</title>
<g id="a_node25"><a xlink:href="menu_8c.html#a15266916f9c0c962638f83d74f27df9f" target="_top" xlink:title="Move the focus to the top of the page. ">
<polygon fill="#ffffff" stroke="#000000" points="160.5,-490.8106 160.5,-509.8106 255.5,-509.8106 255.5,-490.8106 160.5,-490.8106"/>
<text text-anchor="middle" x="208" y="-497.8106" font-family="Helvetica,sans-Serif" font-size="10.00" fill="#000000">menu_top_page</text>
</a>
</g>
</g>
<!-- Node38802&#45;&gt;Node40297 -->
<g id="edge26" class="edge">
<title>Node38802&#45;&gt;Node40297</title>
<path fill="none" stroke="#191970" d="M51.4525,-680.4035C57.7855,-650.9759 80.5823,-563.396 135,-519.3106 139.6935,-515.5082 145.0656,-512.4593 150.7192,-510.0156"/>
<polygon fill="#191970" stroke="#191970" points="152.2499,-513.1821 160.4298,-506.4485 149.8362,-506.6114 152.2499,-513.1821"/>
</g>
<!-- Node40292 -->
<g id="node26" class="node">
<title>Node40292</title>
<g id="a_node26"><a xlink:href="menu_8c.html#a863635769352a439bee04af26a9ce38b" target="_top" xlink:title="Move the focus to the centre of the page. ">
<polygon fill="#ffffff" stroke="#000000" points="151.5,-452.8106 151.5,-471.8106 264.5,-471.8106 264.5,-452.8106 151.5,-452.8106"/>
<text text-anchor="middle" x="208" y="-459.8106" font-family="Helvetica,sans-Serif" font-size="10.00" fill="#000000">menu_middle_page</text>
</a>
</g>
</g>
<!-- Node38802&#45;&gt;Node40292 -->
<g id="edge27" class="edge">
<title>Node38802&#45;&gt;Node40292</title>
<path fill="none" stroke="#191970" d="M50.4412,-680.6804C54.2115,-647.5207 71.2565,-537.0548 135,-481.3106 137.3397,-479.2645 139.8731,-477.4344 142.5441,-475.798"/>
<polygon fill="#191970" stroke="#191970" points="144.1837,-478.8906 151.4743,-471.203 140.981,-472.6662 144.1837,-478.8906"/>
</g>
<!-- Node40283 -->
<g id="node27" class="node">
<title>Node40283</title>
<g id="a_node27"><a xlink:href="menu_8c.html#a1ea4024b7eb12da80b949dd73cd7ece0" target="_top" xlink:title="Move the focus to the bottom of the page. ">
<polygon fill="#ffffff" stroke="#000000" points="151,-414.8106 151,-433.8106 265,-433.8106 265,-414.8106 151,-414.8106"/>
<text text-anchor="middle" x="208" y="-421.8106" font-family="Helvetica,sans-Serif" font-size="10.00" fill="#000000">menu_bottom_page</text>
</a>
</g>
</g>
<!-- Node38802&#45;&gt;Node40283 -->
<g id="edge28" class="edge">
<title>Node38802&#45;&gt;Node40283</title>
<path fill="none" stroke="#191970" d="M49.7578,-680.8022C51.2849,-644.1774 61.8547,-510.92 135,-443.3106 137.1638,-441.3106 139.5112,-439.5153 141.9931,-437.9043"/>
<polygon fill="#191970" stroke="#191970" points="143.7422,-440.9376 150.8789,-433.107 140.4167,-434.7779 143.7422,-440.9376"/>
</g>
<!-- Node40286 -->
<g id="node28" class="node">
<title>Node40286</title>
<g id="a_node28"><a xlink:href="menu_8c.html#a5fbd07c9ba05297dbb9c6b6da1d310e3" target="_top" xlink:title="Move the current selection to the top of the window. ">
<polygon fill="#ffffff" stroke="#000000" points="155.5,-376.8106 155.5,-395.8106 260.5,-395.8106 260.5,-376.8106 155.5,-376.8106"/>
<text text-anchor="middle" x="208" y="-383.8106" font-family="Helvetica,sans-Serif" font-size="10.00" fill="#000000">menu_current_top</text>
</a>
</g>
</g>
<!-- Node38802&#45;&gt;Node40286 -->
<g id="edge29" class="edge">
<title>Node38802&#45;&gt;Node40286</title>
<path fill="none" stroke="#191970" d="M51.1169,-680.5594C58.8194,-635.2337 93.1567,-445.6404 135,-405.3106 138.3252,-402.1056 142.1196,-399.4231 146.1908,-397.1799"/>
<polygon fill="#191970" stroke="#191970" points="147.8306,-400.2788 155.4709,-392.9387 144.9209,-393.9122 147.8306,-400.2788"/>
</g>
<!-- Node40285 -->
<g id="node29" class="node">
<title>Node40285</title>
<g id="a_node29"><a xlink:href="menu_8c.html#af77c14dc829023bf8cab50824fcedb59" target="_top" xlink:title="Move the current selection to the centre of the window. ">
<polygon fill="#ffffff" stroke="#000000" points="146.5,-338.8106 146.5,-357.8106 269.5,-357.8106 269.5,-338.8106 146.5,-338.8106"/>
<text text-anchor="middle" x="208" y="-345.8106" font-family="Helvetica,sans-Serif" font-size="10.00" fill="#000000">menu_current_middle</text>
</a>
</g>
</g>
<!-- Node38802&#45;&gt;Node40285 -->
<g id="edge30" class="edge">
<title>Node38802&#45;&gt;Node40285</title>
<path fill="none" stroke="#191970" d="M50.747,-680.6034C57.2044,-631.8016 88.3485,-413.769 135,-367.3106 136.4267,-365.8898 137.9453,-364.5711 139.5397,-363.3475"/>
<polygon fill="#191970" stroke="#191970" points="141.4638,-366.2721 148.068,-357.9875 137.7389,-360.3454 141.4638,-366.2721"/>
</g>
<!-- Node40284 -->
<g id="node30" class="node">
<title>Node40284</title>
<g id="a_node30"><a xlink:href="menu_8c.html#a9ace9a1b119fadd8955eab21208d68f6" target="_top" xlink:title="Move the current selection to the bottom of the window. ">
<polygon fill="#ffffff" stroke="#000000" points="145.5,-300.8106 145.5,-319.8106 270.5,-319.8106 270.5,-300.8106 145.5,-300.8106"/>
<text text-anchor="middle" x="208" y="-307.8106" font-family="Helvetica,sans-Serif" font-size="10.00" fill="#000000">menu_current_bottom</text>
</a>
</g>
</g>
<!-- Node38802&#45;&gt;Node40284 -->
<g id="edge31" class="edge">
<title>Node38802&#45;&gt;Node40284</title>
<path fill="none" stroke="#191970" d="M50.4666,-680.5294C55.8276,-628.2193 83.5445,-381.9143 135,-329.3106 136.408,-327.8712 137.9101,-326.5362 139.4901,-325.2982"/>
<polygon fill="#191970" stroke="#191970" points="141.4215,-328.2176 147.9622,-319.8827 137.6514,-322.3196 141.4215,-328.2176"/>
</g>
<!-- Node39216 -->
<g id="node31" class="node">
<title>Node39216</title>
<g id="a_node31"><a xlink:href="menu_8c.html#ab29e0b2dbd98a3fcd6204ae4dfcfd4cb" target="_top" xlink:title="Search a menu. ">
<polygon fill="#ffffff" stroke="#ff0000" points="183.5,-262.8106 183.5,-281.8106 232.5,-281.8106 232.5,-262.8106 183.5,-262.8106"/>
<text text-anchor="middle" x="208" y="-269.8106" font-family="Helvetica,sans-Serif" font-size="10.00" fill="#000000">search</text>
</a>
</g>
</g>
<!-- Node38802&#45;&gt;Node39216 -->
<g id="edge32" class="edge">
<title>Node38802&#45;&gt;Node39216</title>
<path fill="none" stroke="#191970" d="M50.2232,-680.6207C54.5411,-625.3329 78.6595,-350.1586 135,-291.3106 144.8871,-280.9835 159.6173,-276.009 173.2619,-273.7001"/>
<polygon fill="#191970" stroke="#191970" points="173.9091,-277.146 183.3862,-272.4094 173.0238,-270.2022 173.9091,-277.146"/>
</g>
<!-- Node40679 -->
<g id="node32" class="node">
<title>Node40679</title>
<g id="a_node32"><a xlink:href="menu_8c.html#a0e8d3dd05e8b9a6dcc0dd98f89568e1e" target="_top" xlink:title="Jump to another item in the menu. ">
<polygon fill="#ffffff" stroke="#ff0000" points="171,-224.8106 171,-243.8106 245,-243.8106 245,-224.8106 171,-224.8106"/>
<text text-anchor="middle" x="208" y="-231.8106" font-family="Helvetica,sans-Serif" font-size="10.00" fill="#000000">menu_jump</text>
</a>
</g>
</g>
<!-- Node38802&#45;&gt;Node40679 -->
<g id="edge33" class="edge">
<title>Node38802&#45;&gt;Node40679</title>
<path fill="none" stroke="#191970" d="M50.0369,-680.4829C53.4368,-621.8308 73.8313,-318.3561 135,-253.3106 141.9305,-245.9409 151.3255,-241.2888 161.0667,-238.3853"/>
<polygon fill="#191970" stroke="#191970" points="161.9431,-241.7744 170.8447,-236.0288 160.303,-234.9692 161.9431,-241.7744"/>
</g>
<!-- Node40488 -->
<g id="node33" class="node">
<title>Node40488</title>
<g id="a_node33"><a xlink:href="commands_8c.html#a59ddef95d9da473164d2e93ced35abfb" target="_top" xlink:title="enter a neomutt command ">
<polygon fill="#ffffff" stroke="#ff0000" points="145.5,-186.8106 145.5,-205.8106 270.5,-205.8106 270.5,-186.8106 145.5,-186.8106"/>
<text text-anchor="middle" x="208" y="-193.8106" font-family="Helvetica,sans-Serif" font-size="10.00" fill="#000000">mutt_enter_command</text>
</a>
</g>
</g>
<!-- Node38802&#45;&gt;Node40488 -->
<g id="edge34" class="edge">
<title>Node38802&#45;&gt;Node40488</title>
<path fill="none" stroke="#191970" d="M49.872,-680.4491C52.3956,-618.7931 68.9509,-286.6183 135,-215.3106 136.2236,-213.9895 137.5264,-212.7556 138.8963,-211.6032"/>
<polygon fill="#191970" stroke="#191970" points="141.0703,-214.3582 147.3922,-205.8562 137.1482,-208.5601 141.0703,-214.3582"/>
</g>
<!-- Node40514 -->
<g id="node34" class="node">
<title>Node40514</title>
<g id="a_node34"><a xlink:href="commands_8c.html#a1d7e589609c99aec9285cdce17d0679e" target="_top" xlink:title="invoke a command in a subshell ">
<polygon fill="#ffffff" stroke="#ff0000" points="154,-1224.8106 154,-1243.8106 262,-1243.8106 262,-1224.8106 154,-1224.8106"/>
<text text-anchor="middle" x="208" y="-1231.8106" font-family="Helvetica,sans-Serif" font-size="10.00" fill="#000000">mutt_shell_escape</text>
</a>
</g>
</g>
<!-- Node38802&#45;&gt;Node40514 -->
<g id="edge35" class="edge">
<title>Node38802&#45;&gt;Node40514</title>
<path fill="none" stroke="#191970" d="M49.6828,-699.9171C51.1066,-764.5297 62.397,-1135.6061 135,-1215.3106 137.7972,-1218.3814 141.0219,-1220.983 144.5253,-1223.1844"/>
<polygon fill="#191970" stroke="#191970" points="143.2238,-1226.4494 153.7228,-1227.8717 146.4023,-1220.2126 143.2238,-1226.4494"/>
</g>
<!-- Node40556 -->
<g id="node35" class="node">
<title>Node40556</title>
<g id="a_node35"><a xlink:href="keymap_8c.html#a54aa261aad3380498fb1381e54ee0ec8" target="_top" xlink:title="Ask the user to press a key. ">
<polygon fill="#ffffff" stroke="#ff0000" points="162,-110.8106 162,-129.8106 254,-129.8106 254,-110.8106 162,-110.8106"/>
<text text-anchor="middle" x="208" y="-117.8106" font-family="Helvetica,sans-Serif" font-size="10.00" fill="#000000">mutt_what_key</text>
</a>
</g>
</g>
<!-- Node38802&#45;&gt;Node40556 -->
<g id="edge37" class="edge">
<title>Node38802&#45;&gt;Node40556</title>
<path fill="none" stroke="#191970" d="M49.6029,-680.6636C50.5089,-614.1171 59.0435,-223.3269 135,-139.3106 139.7206,-134.0891 145.677,-130.2227 152.1422,-127.3724"/>
<polygon fill="#191970" stroke="#191970" points="153.6569,-130.5478 161.8938,-123.8841 151.2992,-123.9568 153.6569,-130.5478"/>
</g>
<!-- Node40447 -->
<g id="node36" class="node">
<title>Node40447</title>
<g id="a_node36"><a xlink:href="commands_8c.html#a02ca5373d05a327109310e13d0f66309" target="_top" xlink:title="Forcibly update mailbox stats. ">
<polygon fill="#ffffff" stroke="#ff0000" points="156.5,-72.8106 156.5,-91.8106 259.5,-91.8106 259.5,-72.8106 156.5,-72.8106"/>
<text text-anchor="middle" x="208" y="-79.8106" font-family="Helvetica,sans-Serif" font-size="10.00" fill="#000000">mutt_check_stats</text>
</a>
</g>
</g>
<!-- Node38802&#45;&gt;Node40447 -->
<g id="edge39" class="edge">
<title>Node38802&#45;&gt;Node40447</title>
<path fill="none" stroke="#191970" d="M50.2764,-680.4566C56.1465,-607.0148 94.4237,-146.6365 135,-101.3106 138.3711,-97.5449 142.3849,-94.4828 146.7709,-91.9977"/>
<polygon fill="#191970" stroke="#191970" points="148.5809,-95.0181 156.2102,-87.6666 145.6616,-88.6559 148.5809,-95.0181"/>
</g>
<!-- Node39648 -->
<g id="node37" class="node">
<title>Node39648</title>
<g id="a_node37"><a xlink:href="help_8c.html#a1267fc376a554184b62d121718ef12c1" target="_top" xlink:title="Display the help menu. ">
<polygon fill="#ffffff" stroke="#ff0000" points="175,-34.8106 175,-53.8106 241,-53.8106 241,-34.8106 175,-34.8106"/>
<text text-anchor="middle" x="208" y="-41.8106" font-family="Helvetica,sans-Serif" font-size="10.00" fill="#000000">mutt_help</text>
</a>
</g>
</g>
<!-- Node38802&#45;&gt;Node39648 -->
<g id="edge40" class="edge">
<title>Node38802&#45;&gt;Node39648</title>
<path fill="none" stroke="#191970" d="M50.1622,-680.7966C55.4609,-605.8303 91.8843,-111.8933 135,-63.3106 142.5871,-54.7615 153.4863,-49.8333 164.5572,-47.0508"/>
<polygon fill="#191970" stroke="#191970" points="165.5475,-50.423 174.6825,-45.0563 164.1946,-43.555 165.5475,-50.423"/>
</g>
<!-- Node39656 -->
<g id="node38" class="node">
<title>Node39656</title>
<g id="a_node38"><a xlink:href="keymap_8c.html#a9a65c50d8ea6508c7bb0aff7fc3bfecc" target="_top" xlink:title="Handle an unbound key sequence. ">
<polygon fill="#ffffff" stroke="#ff0000" points="166,-148.8106 166,-167.8106 250,-167.8106 250,-148.8106 166,-148.8106"/>
<text text-anchor="middle" x="208" y="-155.8106" font-family="Helvetica,sans-Serif" font-size="10.00" fill="#000000">km_error_key</text>
</a>
</g>
</g>
<!-- Node38802&#45;&gt;Node39656 -->
<g id="edge41" class="edge">
<title>Node38802&#45;&gt;Node39656</title>
<path fill="none" stroke="#191970" d="M49.7276,-680.5119C51.4191,-616.2213 64.021,-254.9425 135,-177.3106 140.6541,-171.1265 148.0422,-166.8467 155.9442,-163.9058"/>
<polygon fill="#191970" stroke="#191970" points="157.1937,-167.1847 165.7557,-160.9443 155.1709,-160.4832 157.1937,-167.1847"/>
</g>
<!-- Node39051&#45;&gt;Node38816 -->
<g id="edge11" class="edge">
<title>Node39051&#45;&gt;Node38816</title>
<path fill="none" stroke="#191970" d="M429.291,-1186.8556C447.7629,-1190.5838 469.1078,-1194.892 488.4247,-1198.7908"/>
<polygon fill="#191970" stroke="#191970" points="487.8205,-1202.2394 498.3153,-1200.7871 489.2055,-1195.3777 487.8205,-1202.2394"/>
</g>
<!-- Node39051&#45;&gt;Node38809 -->
<g id="edge10" class="edge">
<title>Node39051&#45;&gt;Node38809</title>
<path fill="none" stroke="#191970" d="M429.291,-1167.7656C447.7629,-1164.0374 469.1078,-1159.7292 488.4247,-1155.8304"/>
<polygon fill="#191970" stroke="#191970" points="489.2055,-1159.2435 498.3153,-1153.8341 487.8205,-1152.3818 489.2055,-1159.2435"/>
</g>
<!-- Node40514&#45;&gt;Node39051 -->
<g id="edge36" class="edge">
<title>Node40514&#45;&gt;Node39051</title>
<path fill="none" stroke="#191970" d="M247.6183,-1224.8087C258.5042,-1221.9785 270.265,-1218.7167 281,-1215.3106 304.0675,-1207.9916 329.5716,-1198.3835 349.18,-1190.6599"/>
<polygon fill="#191970" stroke="#191970" points="350.5731,-1193.8726 358.5735,-1186.9268 347.9878,-1187.3675 350.5731,-1193.8726"/>
</g>
<!-- Node40556&#45;&gt;Node39048 -->
<g id="edge38" class="edge">
<title>Node40556&#45;&gt;Node39048</title>
<path fill="none" stroke="#191970" d="M247.6183,-110.8087C258.5042,-107.9785 270.265,-104.7167 281,-101.3106 304.0675,-93.9916 329.5716,-84.3835 349.18,-76.6599"/>
<polygon fill="#191970" stroke="#191970" points="350.5731,-79.8726 358.5735,-72.9268 347.9878,-73.3675 350.5731,-79.8726"/>
</g>
<!-- Node39656&#45;&gt;Node39612 -->
<g id="edge42" class="edge">
<title>Node39656&#45;&gt;Node39612</title>
<path fill="none" stroke="#191970" d="M250.1167,-161.5236C261.3965,-164.2893 272.7372,-169.0903 281,-177.3106 333.603,-229.6429 369.7009,-467.1322 379.3912,-537.5649"/>
<polygon fill="#191970" stroke="#191970" points="375.955,-538.2726 380.7624,-547.7139 382.8919,-537.3353 375.955,-538.2726"/>
</g>
</g>
</svg>
