<?xml version="1.0" encoding="UTF-8" standalone="no"?>
<!DOCTYPE svg PUBLIC "-//W3C//DTD SVG 1.1//EN"
 "http://www.w3.org/Graphics/SVG/1.1/DTD/svg11.dtd">
<!-- Generated by graphviz version 7.1.0 (0)
 -->
<!-- Title: menu/lib.h Pages: 1 -->
<svg width="325pt" height="137pt"
 viewBox="0.00 0.00 325.34 137.00" xmlns="http://www.w3.org/2000/svg" xmlns:xlink="http://www.w3.org/1999/xlink">
<g id="graph0" class="graph" transform="scale(1 1) rotate(0) translate(4 133)">
<title>menu/lib.h</title>
<!-- Node1 -->
<g id="node1" class="node">
<title>Node1</title>
<g id="a_node1"><a xlink:title="GUI present the user with a selectable list.">
<polygon fill="#999999" stroke="#666666" points="188.84,-129 121.84,-129 121.84,-110 188.84,-110 188.84,-129"/>
<text text-anchor="middle" x="155.34" y="-117" font-family="Helvetica,sans-Serif" font-size="10.00">menu/lib.h</text>
</a>
</g>
</g>
<!-- Node2 -->
<g id="node2" class="node">
<title>Node2</title>
<g id="a_node2"><a xlink:title=" ">
<polygon fill="#e0e0e0" stroke="#999999" points="138.34,-19 84.34,-19 84.34,0 138.34,0 138.34,-19"/>
<text text-anchor="middle" x="111.34" y="-7" font-family="Helvetica,sans-Serif" font-size="10.00">config.h</text>
</a>
</g>
</g>
<!-- Node1&#45;&gt;Node2 -->
<g id="edge1" class="edge">
<title>Node1&#45;&gt;Node2</title>
<path fill="none" stroke="#63b8ff" d="M121.47,-119.22C86.05,-117.92 31.99,-109.7 5.34,-74 -15.92,-45.52 34.72,-27.31 73.11,-18"/>
<polygon fill="#63b8ff" stroke="#63b8ff" points="73.59,-21.48 82.56,-15.84 72.03,-14.66 73.59,-21.48"/>
</g>
<!-- Node3 -->
<g id="node3" class="node">
<title>Node3</title>
<g id="a_node3"><a xlink:title=" ">
<polygon fill="#e0e0e0" stroke="#999999" points="69.84,-74 14.84,-74 14.84,-55 69.84,-55 69.84,-74"/>
<text text-anchor="middle" x="42.34" y="-62" font-family="Helvetica,sans-Serif" font-size="10.00">stddef.h</text>
</a>
</g>
</g>
<!-- Node1&#45;&gt;Node3 -->
<g id="edge2" class="edge">
<title>Node1&#45;&gt;Node3</title>
<path fill="none" stroke="#63b8ff" d="M136.17,-109.51C118.45,-101.2 91.86,-88.73 71.51,-79.18"/>
<polygon fill="#63b8ff" stroke="#63b8ff" points="73.14,-76.08 62.6,-75 70.16,-82.42 73.14,-76.08"/>
</g>
<!-- Node4 -->
<g id="node4" class="node">
<title>Node4</title>
<g id="a_node4"><a xlink:title=" ">
<polygon fill="#e0e0e0" stroke="#999999" points="148.34,-74 88.34,-74 88.34,-55 148.34,-55 148.34,-74"/>
<text text-anchor="middle" x="118.34" y="-62" font-family="Helvetica,sans-Serif" font-size="10.00">stdbool.h</text>
</a>
</g>
</g>
<!-- Node1&#45;&gt;Node4 -->
<g id="edge3" class="edge">
<title>Node1&#45;&gt;Node4</title>
<path fill="none" stroke="#63b8ff" d="M149.23,-109.75C144.33,-102.73 137.29,-92.64 131.17,-83.87"/>
<polygon fill="#63b8ff" stroke="#63b8ff" points="134.04,-81.88 125.45,-75.68 128.3,-85.89 134.04,-81.88"/>
</g>
<!-- Node5 -->
<g id="node5" class="node">
<title>Node5</title>
<g id="a_node5"><a xlink:title=" ">
<polygon fill="#e0e0e0" stroke="#999999" points="218.34,-74 166.34,-74 166.34,-55 218.34,-55 218.34,-74"/>
<text text-anchor="middle" x="192.34" y="-62" font-family="Helvetica,sans-Serif" font-size="10.00">stdint.h</text>
</a>
</g>
</g>
<!-- Node1&#45;&gt;Node5 -->
<g id="edge4" class="edge">
<title>Node1&#45;&gt;Node5</title>
<path fill="none" stroke="#63b8ff" d="M161.45,-109.75C166.35,-102.73 173.39,-92.64 179.51,-83.87"/>
<polygon fill="#63b8ff" stroke="#63b8ff" points="182.38,-85.89 185.23,-75.68 176.64,-81.88 182.38,-85.89"/>
</g>
<!-- Node6 -->
<g id="node6" class="node">
<title>Node6</title>
<g id="a_node6"><a xlink:href="mutt_2lib_8h.html" target="_top" xlink:title="Convenience wrapper for the library headers.">
<polygon fill="#fff0f0" stroke="red" points="317.34,-19 255.34,-19 255.34,0 317.34,0 317.34,-19"/>
<text text-anchor="middle" x="286.34" y="-7" font-family="Helvetica,sans-Serif" font-size="10.00">mutt/lib.h</text>
</a>
</g>
</g>
<!-- Node1&#45;&gt;Node6 -->
<g id="edge5" class="edge">
<title>Node1&#45;&gt;Node6</title>
<path fill="none" stroke="#63b8ff" d="M189.31,-118.13C221.95,-115.74 269.7,-106.46 293.34,-74 302.53,-61.38 299.5,-43.44 294.91,-29.84"/>
<polygon fill="#63b8ff" stroke="#63b8ff" points="298.21,-28.69 291.29,-20.67 291.7,-31.26 298.21,-28.69"/>
</g>
<!-- Node54 -->
<g id="node7" class="node">
<title>Node54</title>
<g id="a_node7"><a xlink:href="type_8h.html" target="_top" xlink:title="Menu types.">
<polygon fill="white" stroke="#666666" points="283.84,-74 236.84,-74 236.84,-55 283.84,-55 283.84,-74"/>
<text text-anchor="middle" x="260.34" y="-62" font-family="Helvetica,sans-Serif" font-size="10.00">type.h</text>
</a>
</g>
</g>
<!-- Node1&#45;&gt;Node54 -->
<g id="edge6" class="edge">
<title>Node1&#45;&gt;Node54</title>
<path fill="none" stroke="#63b8ff" d="M173.15,-109.51C189.47,-101.27 213.87,-88.96 232.71,-79.45"/>
<polygon fill="#63b8ff" stroke="#63b8ff" points="234.09,-82.67 241.44,-75.04 230.94,-76.42 234.09,-82.67"/>
</g>
<!-- Node54&#45;&gt;Node2 -->
<g id="edge7" class="edge">
<title>Node54&#45;&gt;Node2</title>
<path fill="none" stroke="#63b8ff" d="M236.4,-54.98C212.32,-46.42 174.91,-33.11 147.27,-23.28"/>
<polygon fill="#63b8ff" stroke="#63b8ff" points="148.49,-20 137.89,-19.94 146.14,-26.59 148.49,-20"/>
</g>
<!-- Node54&#45;&gt;Node6 -->
<g id="edge8" class="edge">
<title>Node54&#45;&gt;Node6</title>
<path fill="none" stroke="#63b8ff" d="M264.63,-54.75C267.96,-47.96 272.7,-38.3 276.9,-29.73"/>
<polygon fill="#63b8ff" stroke="#63b8ff" points="280.02,-31.32 281.29,-20.8 273.74,-28.24 280.02,-31.32"/>
</g>
</g>
</svg>
