<?xml version="1.0" encoding="UTF-8" standalone="no"?>
<!DOCTYPE svg PUBLIC "-//W3C//DTD SVG 1.1//EN"
 "http://www.w3.org/Graphics/SVG/1.1/DTD/svg11.dtd">
<!-- Generated by graphviz version 12.2.1 (20241206.2353)
 -->
<!-- Title: key/menu.h Pages: 1 -->
<svg width="502pt" height="147pt"
 viewBox="0.00 0.00 502.12 146.75" xmlns="http://www.w3.org/2000/svg" xmlns:xlink="http://www.w3.org/1999/xlink">
<g id="graph0" class="graph" transform="scale(1 1) rotate(0) translate(4 142.75)">
<title>key/menu.h</title>
<!-- Node1 -->
<g id="Node000001" class="node">
<title>Node1</title>
<g id="a_Node000001"><a xlink:title="Maniplate Menus and SubMenus.">
<polygon fill="#999999" stroke="#666666" points="331.38,-138.75 259.88,-138.75 259.88,-116.5 331.38,-116.5 331.38,-138.75"/>
<text text-anchor="middle" x="295.62" y="-125.25" font-family="Helvetica,sans-Serif" font-size="10.00">key/menu.h</text>
</a>
</g>
</g>
<!-- Node2 -->
<g id="Node000002" class="node">
<title>Node2</title>
<g id="a_Node000002"><a xlink:href="key_2commands_8c.html" target="_top" xlink:title="Parse key binding commands.">
<polygon fill="white" stroke="#666666" points="93.25,-22.25 0,-22.25 0,0 93.25,0 93.25,-22.25"/>
<text text-anchor="middle" x="46.62" y="-8.75" font-family="Helvetica,sans-Serif" font-size="10.00">key/commands.c</text>
</a>
</g>
</g>
<!-- Node1&#45;&gt;Node2 -->
<g id="edge1_Node000001_Node000002" class="edge">
<title>Node1&#45;&gt;Node2</title>
<g id="a_edge1_Node000001_Node000002"><a xlink:title=" ">
<path fill="none" stroke="#63b8ff" d="M248.41,-119.67C213.07,-113.11 164.35,-101.12 125.62,-80.5 96.8,-65.16 69.46,-37.59 55.76,-22.57"/>
<polygon fill="#63b8ff" stroke="#63b8ff" points="247.44,-123.06 257.9,-121.35 248.66,-116.16 247.44,-123.06"/>
</a>
</g>
</g>
<!-- Node3 -->
<g id="Node000003" class="node">
<title>Node3</title>
<g id="a_Node000003"><a xlink:href="key_2dump_8c.html" target="_top" xlink:title="Dump key bindings.">
<polygon fill="white" stroke="#666666" points="181.62,-22.25 111.62,-22.25 111.62,0 181.62,0 181.62,-22.25"/>
<text text-anchor="middle" x="146.62" y="-8.75" font-family="Helvetica,sans-Serif" font-size="10.00">key/dump.c</text>
</a>
</g>
</g>
<!-- Node1&#45;&gt;Node3 -->
<g id="edge2_Node000001_Node000003" class="edge">
<title>Node1&#45;&gt;Node3</title>
<g id="a_edge2_Node000001_Node000003"><a xlink:title=" ">
<path fill="none" stroke="#63b8ff" d="M248.55,-119.42C206.43,-111.89 149.28,-98.64 135.62,-80.5 122.76,-63.4 133.1,-37.02 140.6,-22.54"/>
<polygon fill="#63b8ff" stroke="#63b8ff" points="247.77,-122.83 258.22,-121.08 248.96,-115.93 247.77,-122.83"/>
</a>
</g>
</g>
<!-- Node4 -->
<g id="Node000004" class="node">
<title>Node4</title>
<g id="a_Node000004"><a xlink:href="get_8c.html" target="_top" xlink:title="Get a key from the user.">
<polygon fill="white" stroke="#666666" points="258,-22.25 199.25,-22.25 199.25,0 258,0 258,-22.25"/>
<text text-anchor="middle" x="228.62" y="-8.75" font-family="Helvetica,sans-Serif" font-size="10.00">key/get.c</text>
</a>
</g>
</g>
<!-- Node1&#45;&gt;Node4 -->
<g id="edge3_Node000001_Node000004" class="edge">
<title>Node1&#45;&gt;Node4</title>
<g id="a_edge3_Node000001_Node000004"><a xlink:title=" ">
<path fill="none" stroke="#63b8ff" d="M284.82,-106.51C277.36,-92.8 267.12,-74.3 257.62,-58.25 250.3,-45.88 241.45,-31.94 235.47,-22.65"/>
<polygon fill="#63b8ff" stroke="#63b8ff" points="281.57,-107.87 289.41,-115 287.73,-104.54 281.57,-107.87"/>
</a>
</g>
</g>
<!-- Node5 -->
<g id="Node000005" class="node">
<title>Node5</title>
<g id="a_Node000005"><a xlink:href="init_8c.html" target="_top" xlink:title="Set up the key bindings.">
<polygon fill="white" stroke="#666666" points="421.25,-22.25 364,-22.25 364,0 421.25,0 421.25,-22.25"/>
<text text-anchor="middle" x="392.62" y="-8.75" font-family="Helvetica,sans-Serif" font-size="10.00">key/init.c</text>
</a>
</g>
</g>
<!-- Node1&#45;&gt;Node5 -->
<g id="edge4_Node000001_Node000005" class="edge">
<title>Node1&#45;&gt;Node5</title>
<g id="a_edge4_Node000001_Node000005"><a xlink:title=" ">
<path fill="none" stroke="#63b8ff" d="M311.97,-107.33C332.62,-82.96 367.4,-41.9 383.69,-22.67"/>
<polygon fill="#63b8ff" stroke="#63b8ff" points="309.35,-105.01 305.56,-114.9 314.69,-109.54 309.35,-105.01"/>
</a>
</g>
</g>
<!-- Node6 -->
<g id="Node000006" class="node">
<title>Node6</title>
<g id="a_Node000006"><a xlink:href="init_8h.html" target="_top" xlink:title="Set up the key bindings.">
<polygon fill="#fff0f0" stroke="red" points="439,-80.5 380.25,-80.5 380.25,-58.25 439,-58.25 439,-80.5"/>
<text text-anchor="middle" x="409.62" y="-67" font-family="Helvetica,sans-Serif" font-size="10.00">key/init.h</text>
</a>
</g>
</g>
<!-- Node1&#45;&gt;Node6 -->
<g id="edge5_Node000001_Node000006" class="edge">
<title>Node1&#45;&gt;Node6</title>
<g id="a_edge5_Node000001_Node000006"><a xlink:title=" ">
<path fill="none" stroke="#63b8ff" d="M327.28,-111C346.73,-101.41 371.11,-89.38 388.28,-80.91"/>
<polygon fill="#63b8ff" stroke="#63b8ff" points="325.84,-107.81 318.42,-115.38 328.94,-114.09 325.84,-107.81"/>
</a>
</g>
</g>
<!-- Node7 -->
<g id="Node000007" class="node">
<title>Node7</title>
<g id="a_Node000007"><a xlink:href="key_2lib_8h.html" target="_top" xlink:title="Manage keymappings.">
<polygon fill="#fff0f0" stroke="red" points="494.12,-22.25 439.12,-22.25 439.12,0 494.12,0 494.12,-22.25"/>
<text text-anchor="middle" x="466.62" y="-8.75" font-family="Helvetica,sans-Serif" font-size="10.00">key/lib.h</text>
</a>
</g>
</g>
<!-- Node1&#45;&gt;Node7 -->
<g id="edge8_Node000001_Node000007" class="edge">
<title>Node1&#45;&gt;Node7</title>
<g id="a_edge8_Node000001_Node000007"><a xlink:title=" ">
<path fill="none" stroke="#63b8ff" d="M343.08,-123.98C376.62,-119.61 420.31,-108.47 447.62,-80.5 463.12,-64.63 466.22,-37.28 466.69,-22.43"/>
<polygon fill="#63b8ff" stroke="#63b8ff" points="342.74,-120.49 333.19,-125.09 343.52,-127.45 342.74,-120.49"/>
</a>
</g>
</g>
<!-- Node68 -->
<g id="Node000068" class="node">
<title>Node68</title>
<g id="a_Node000068"><a xlink:href="key_2menu_8c.html" target="_top" xlink:title="Maniplate Menus and SubMenus.">
<polygon fill="white" stroke="#666666" points="345.62,-22.25 275.62,-22.25 275.62,0 345.62,0 345.62,-22.25"/>
<text text-anchor="middle" x="310.62" y="-8.75" font-family="Helvetica,sans-Serif" font-size="10.00">key/menu.c</text>
</a>
</g>
</g>
<!-- Node1&#45;&gt;Node68 -->
<g id="edge9_Node000001_Node000068" class="edge">
<title>Node1&#45;&gt;Node68</title>
<g id="a_edge9_Node000001_Node000068"><a xlink:title=" ">
<path fill="none" stroke="#63b8ff" d="M298.5,-104.68C301.72,-80.08 306.81,-41.22 309.24,-22.67"/>
<polygon fill="#63b8ff" stroke="#63b8ff" points="295.03,-104.19 297.21,-114.56 301.98,-105.1 295.03,-104.19"/>
</a>
</g>
</g>
<!-- Node69 -->
<g id="Node000069" class="node">
<title>Node69</title>
<g id="a_Node000069"><a xlink:href="key_2module__data_8h.html" target="_top" xlink:title="Key private Module data.">
<polygon fill="#fff0f0" stroke="red" points="248.88,-80.5 144.38,-80.5 144.38,-58.25 248.88,-58.25 248.88,-80.5"/>
<text text-anchor="middle" x="196.62" y="-67" font-family="Helvetica,sans-Serif" font-size="10.00">key/module_data.h</text>
</a>
</g>
</g>
<!-- Node1&#45;&gt;Node69 -->
<g id="edge10_Node000001_Node000069" class="edge">
<title>Node1&#45;&gt;Node69</title>
<g id="a_edge10_Node000001_Node000069"><a xlink:title=" ">
<path fill="none" stroke="#63b8ff" d="M267.19,-110.47C250.47,-100.97 229.8,-89.22 215.16,-80.91"/>
<polygon fill="#63b8ff" stroke="#63b8ff" points="265.26,-113.4 275.69,-115.3 268.72,-107.31 265.26,-113.4"/>
</a>
</g>
</g>
<!-- Node6&#45;&gt;Node5 -->
<g id="edge6_Node000006_Node000005" class="edge">
<title>Node6&#45;&gt;Node5</title>
<g id="a_edge6_Node000006_Node000005"><a xlink:title=" ">
<path fill="none" stroke="#63b8ff" d="M403.14,-46.93C400.63,-38.62 397.87,-29.48 395.81,-22.66"/>
<polygon fill="#63b8ff" stroke="#63b8ff" points="399.75,-47.79 405.99,-56.35 406.45,-45.76 399.75,-47.79"/>
</a>
</g>
</g>
<!-- Node6&#45;&gt;Node7 -->
<g id="edge7_Node000006_Node000007" class="edge">
<title>Node6&#45;&gt;Node7</title>
<g id="a_edge7_Node000006_Node000007"><a xlink:title=" ">
<path fill="none" stroke="#63b8ff" d="M428.5,-49.75C437.62,-40.75 448.24,-30.27 455.95,-22.66"/>
<polygon fill="#63b8ff" stroke="#63b8ff" points="426.08,-47.22 421.42,-56.73 431,-52.2 426.08,-47.22"/>
</a>
</g>
</g>
<!-- Node69&#45;&gt;Node2 -->
<g id="edge11_Node000069_Node000002" class="edge">
<title>Node69&#45;&gt;Node2</title>
<g id="a_edge11_Node000069_Node000002"><a xlink:title=" ">
<path fill="none" stroke="#63b8ff" d="M157.78,-53.81C131.78,-44.06 98.14,-31.44 74.71,-22.66"/>
<polygon fill="#63b8ff" stroke="#63b8ff" points="156.4,-57.03 166.99,-57.26 158.86,-50.47 156.4,-57.03"/>
</a>
</g>
</g>
<!-- Node69&#45;&gt;Node3 -->
<g id="edge12_Node000069_Node000003" class="edge">
<title>Node69&#45;&gt;Node3</title>
<g id="a_edge12_Node000069_Node000003"><a xlink:title=" ">
<path fill="none" stroke="#63b8ff" d="M179.58,-49.19C171.68,-40.32 162.61,-30.11 155.99,-22.66"/>
<polygon fill="#63b8ff" stroke="#63b8ff" points="176.96,-51.51 186.21,-56.66 182.19,-46.86 176.96,-51.51"/>
</a>
</g>
</g>
<!-- Node69&#45;&gt;Node4 -->
<g id="edge13_Node000069_Node000004" class="edge">
<title>Node69&#45;&gt;Node4</title>
<g id="a_edge13_Node000069_Node000004"><a xlink:title=" ">
<path fill="none" stroke="#63b8ff" d="M208.18,-48.07C213.07,-39.46 218.57,-29.8 222.63,-22.66"/>
<polygon fill="#63b8ff" stroke="#63b8ff" points="205.29,-46.06 203.39,-56.48 211.38,-49.52 205.29,-46.06"/>
</a>
</g>
</g>
<!-- Node69&#45;&gt;Node5 -->
<g id="edge14_Node000069_Node000005" class="edge">
<title>Node69&#45;&gt;Node5</title>
<g id="a_edge14_Node000069_Node000005"><a xlink:title=" ">
<path fill="none" stroke="#63b8ff" d="M244.11,-54.75C281.39,-44.05 332.1,-29.49 363.58,-20.46"/>
<polygon fill="#63b8ff" stroke="#63b8ff" points="243.59,-51.25 234.95,-57.38 245.52,-57.98 243.59,-51.25"/>
</a>
</g>
</g>
<!-- Node69&#45;&gt;Node68 -->
<g id="edge15_Node000069_Node000068" class="edge">
<title>Node69&#45;&gt;Node68</title>
<g id="a_edge15_Node000069_Node000068"><a xlink:title=" ">
<path fill="none" stroke="#63b8ff" d="M228.28,-52.75C247.73,-43.16 272.11,-31.13 289.28,-22.66"/>
<polygon fill="#63b8ff" stroke="#63b8ff" points="226.84,-49.56 219.42,-57.13 229.94,-55.84 226.84,-49.56"/>
</a>
</g>
</g>
</g>
</svg>
