<?xml version="1.0" encoding="UTF-8" standalone="no"?>
<!DOCTYPE svg PUBLIC "-//W3C//DTD SVG 1.1//EN"
 "http://www.w3.org/Graphics/SVG/1.1/DTD/svg11.dtd">
<!-- Generated by graphviz version 12.2.1 (20241206.2353)
 -->
<!-- Title: key/menu.h Pages: 1 -->
<svg width="503pt" height="147pt"
 viewBox="0.00 0.00 502.62 146.75" xmlns="http://www.w3.org/2000/svg" xmlns:xlink="http://www.w3.org/1999/xlink">
<g id="graph0" class="graph" transform="scale(1 1) rotate(0) translate(4 142.75)">
<title>key/menu.h</title>
<!-- Node1 -->
<g id="Node000001" class="node">
<title>Node1</title>
<g id="a_Node000001"><a xlink:title="Maniplate Menus and SubMenus.">
<polygon fill="#999999" stroke="#666666" points="292.38,-138.75 220.88,-138.75 220.88,-116.5 292.38,-116.5 292.38,-138.75"/>
<text text-anchor="middle" x="256.62" y="-125.25" font-family="Helvetica,sans-Serif" font-size="10.00">key/menu.h</text>
</a>
</g>
</g>
<!-- Node2 -->
<g id="Node000002" class="node">
<title>Node2</title>
<g id="a_Node000002"><a xlink:href="key_2commands_8c.html" target="_top" xlink:title="Parse key binding commands.">
<polygon fill="white" stroke="#666666" points="93.25,-22.25 0,-22.25 0,0 93.25,0 93.25,-22.25"/>
<text text-anchor="middle" x="46.62" y="-8.75" font-family="Helvetica,sans-Serif" font-size="10.00">key/commands.c</text>
</a>
</g>
</g>
<!-- Node1&#45;&gt;Node2 -->
<g id="edge1_Node000001_Node000002" class="edge">
<title>Node1&#45;&gt;Node2</title>
<g id="a_edge1_Node000001_Node000002"><a xlink:title=" ">
<path fill="none" stroke="#63b8ff" d="M227.26,-110.61C183.63,-86.82 102.88,-42.8 65.96,-22.67"/>
<polygon fill="#63b8ff" stroke="#63b8ff" points="225.46,-113.62 235.92,-115.33 228.81,-107.47 225.46,-113.62"/>
</a>
</g>
</g>
<!-- Node3 -->
<g id="Node000003" class="node">
<title>Node3</title>
<g id="a_Node000003"><a xlink:href="key_2dump_8c.html" target="_top" xlink:title="Dump key bindings.">
<polygon fill="white" stroke="#666666" points="181.62,-22.25 111.62,-22.25 111.62,0 181.62,0 181.62,-22.25"/>
<text text-anchor="middle" x="146.62" y="-8.75" font-family="Helvetica,sans-Serif" font-size="10.00">key/dump.c</text>
</a>
</g>
</g>
<!-- Node1&#45;&gt;Node3 -->
<g id="edge2_Node000001_Node000003" class="edge">
<title>Node1&#45;&gt;Node3</title>
<g id="a_edge2_Node000001_Node000003"><a xlink:title=" ">
<path fill="none" stroke="#63b8ff" d="M238.36,-108.01C230.16,-99.63 220.38,-89.59 211.62,-80.5 191.86,-59.97 168.93,-35.76 156.27,-22.36"/>
<polygon fill="#63b8ff" stroke="#63b8ff" points="235.66,-110.26 245.16,-114.96 240.66,-105.36 235.66,-110.26"/>
</a>
</g>
</g>
<!-- Node4 -->
<g id="Node000004" class="node">
<title>Node4</title>
<g id="a_Node000004"><a xlink:href="get_8c.html" target="_top" xlink:title="Get a key from the user.">
<polygon fill="white" stroke="#666666" points="258,-22.25 199.25,-22.25 199.25,0 258,0 258,-22.25"/>
<text text-anchor="middle" x="228.62" y="-8.75" font-family="Helvetica,sans-Serif" font-size="10.00">key/get.c</text>
</a>
</g>
</g>
<!-- Node1&#45;&gt;Node4 -->
<g id="edge3_Node000001_Node000004" class="edge">
<title>Node1&#45;&gt;Node4</title>
<g id="a_edge3_Node000001_Node000004"><a xlink:title=" ">
<path fill="none" stroke="#63b8ff" d="M236.39,-108.1C229.35,-100.34 222.3,-90.75 218.62,-80.5 211.57,-60.85 218.73,-36.33 224.03,-22.63"/>
<polygon fill="#63b8ff" stroke="#63b8ff" points="233.87,-110.54 243.38,-115.21 238.86,-105.63 233.87,-110.54"/>
</a>
</g>
</g>
<!-- Node5 -->
<g id="Node000005" class="node">
<title>Node5</title>
<g id="a_Node000005"><a xlink:href="init_8c.html" target="_top" xlink:title="Set up the key bindings.">
<polygon fill="white" stroke="#666666" points="333.25,-22.25 276,-22.25 276,0 333.25,0 333.25,-22.25"/>
<text text-anchor="middle" x="304.62" y="-8.75" font-family="Helvetica,sans-Serif" font-size="10.00">key/init.c</text>
</a>
</g>
</g>
<!-- Node1&#45;&gt;Node5 -->
<g id="edge4_Node000001_Node000005" class="edge">
<title>Node1&#45;&gt;Node5</title>
<g id="a_edge4_Node000001_Node000005"><a xlink:title=" ">
<path fill="none" stroke="#63b8ff" d="M276.1,-107.79C283.03,-100 290.21,-90.45 294.62,-80.5 303.18,-61.2 304.7,-36.12 304.81,-22.33"/>
<polygon fill="#63b8ff" stroke="#63b8ff" points="273.63,-105.31 269.29,-114.97 278.71,-110.13 273.63,-105.31"/>
</a>
</g>
</g>
<!-- Node6 -->
<g id="Node000006" class="node">
<title>Node6</title>
<g id="a_Node000006"><a xlink:href="init_8h.html" target="_top" xlink:title="Set up the key bindings.">
<polygon fill="white" stroke="#666666" points="286,-80.5 227.25,-80.5 227.25,-58.25 286,-58.25 286,-80.5"/>
<text text-anchor="middle" x="256.62" y="-67" font-family="Helvetica,sans-Serif" font-size="10.00">key/init.h</text>
</a>
</g>
</g>
<!-- Node1&#45;&gt;Node6 -->
<g id="edge5_Node000001_Node000006" class="edge">
<title>Node1&#45;&gt;Node6</title>
<g id="a_edge5_Node000001_Node000006"><a xlink:title=" ">
<path fill="none" stroke="#63b8ff" d="M256.62,-104.6C256.62,-96.45 256.62,-87.58 256.62,-80.91"/>
<polygon fill="#63b8ff" stroke="#63b8ff" points="253.13,-104.53 256.63,-114.53 260.13,-104.53 253.13,-104.53"/>
</a>
</g>
</g>
<!-- Node7 -->
<g id="Node000007" class="node">
<title>Node7</title>
<g id="a_Node000007"><a xlink:href="key_2lib_8h.html" target="_top" xlink:title="Manage keymappings.">
<polygon fill="#fff0f0" stroke="red" points="406.12,-22.25 351.12,-22.25 351.12,0 406.12,0 406.12,-22.25"/>
<text text-anchor="middle" x="378.62" y="-8.75" font-family="Helvetica,sans-Serif" font-size="10.00">key/lib.h</text>
</a>
</g>
</g>
<!-- Node1&#45;&gt;Node7 -->
<g id="edge12_Node000001_Node000007" class="edge">
<title>Node1&#45;&gt;Node7</title>
<g id="a_edge12_Node000001_Node000007"><a xlink:title=" ">
<path fill="none" stroke="#63b8ff" d="M278.36,-109.22C288.65,-100.78 300.98,-90.35 311.62,-80.5 332.85,-60.86 356.17,-36.33 368.94,-22.63"/>
<polygon fill="#63b8ff" stroke="#63b8ff" points="276.33,-106.37 270.77,-115.39 280.74,-111.8 276.33,-106.37"/>
</a>
</g>
</g>
<!-- Node50 -->
<g id="Node000050" class="node">
<title>Node50</title>
<g id="a_Node000050"><a xlink:href="key_2menu_8c.html" target="_top" xlink:title="Maniplate Menus and SubMenus.">
<polygon fill="white" stroke="#666666" points="494.62,-22.25 424.62,-22.25 424.62,0 494.62,0 494.62,-22.25"/>
<text text-anchor="middle" x="459.62" y="-8.75" font-family="Helvetica,sans-Serif" font-size="10.00">key/menu.c</text>
</a>
</g>
</g>
<!-- Node1&#45;&gt;Node50 -->
<g id="edge13_Node000001_Node000050" class="edge">
<title>Node1&#45;&gt;Node50</title>
<g id="a_edge13_Node000001_Node000050"><a xlink:title=" ">
<path fill="none" stroke="#63b8ff" d="M285.28,-110.46C327.52,-86.64 405.32,-42.75 440.94,-22.67"/>
<polygon fill="#63b8ff" stroke="#63b8ff" points="283.67,-107.35 276.68,-115.31 287.11,-113.45 283.67,-107.35"/>
</a>
</g>
</g>
<!-- Node6&#45;&gt;Node2 -->
<g id="edge6_Node000006_Node000002" class="edge">
<title>Node6&#45;&gt;Node2</title>
<g id="a_edge6_Node000006_Node000002"><a xlink:title=" ">
<path fill="none" stroke="#63b8ff" d="M215.97,-57.48C178.5,-47.45 123.25,-32.65 86.15,-22.71"/>
<polygon fill="#63b8ff" stroke="#63b8ff" points="214.96,-60.84 225.52,-60.04 216.77,-54.08 214.96,-60.84"/>
</a>
</g>
</g>
<!-- Node6&#45;&gt;Node3 -->
<g id="edge7_Node000006_Node000003" class="edge">
<title>Node6&#45;&gt;Node3</title>
<g id="a_edge7_Node000006_Node000003"><a xlink:title=" ">
<path fill="none" stroke="#63b8ff" d="M225.82,-52.62C207.1,-43.05 183.71,-31.09 167.22,-22.66"/>
<polygon fill="#63b8ff" stroke="#63b8ff" points="224.09,-55.67 234.59,-57.11 227.28,-49.44 224.09,-55.67"/>
</a>
</g>
</g>
<!-- Node6&#45;&gt;Node4 -->
<g id="edge8_Node000006_Node000004" class="edge">
<title>Node6&#45;&gt;Node4</title>
<g id="a_edge8_Node000006_Node000004"><a xlink:title=" ">
<path fill="none" stroke="#63b8ff" d="M246.23,-47.5C242.02,-39.04 237.34,-29.64 233.87,-22.66"/>
<polygon fill="#63b8ff" stroke="#63b8ff" points="243.09,-49.05 250.68,-56.44 249.36,-45.93 243.09,-49.05"/>
</a>
</g>
</g>
<!-- Node6&#45;&gt;Node5 -->
<g id="edge9_Node000006_Node000005" class="edge">
<title>Node6&#45;&gt;Node5</title>
<g id="a_edge9_Node000006_Node000005"><a xlink:title=" ">
<path fill="none" stroke="#63b8ff" d="M272.99,-49.19C280.57,-40.32 289.28,-30.11 295.64,-22.66"/>
<polygon fill="#63b8ff" stroke="#63b8ff" points="270.46,-46.76 266.64,-56.64 275.79,-51.31 270.46,-46.76"/>
</a>
</g>
</g>
<!-- Node6&#45;&gt;Node7 -->
<g id="edge10_Node000006_Node000007" class="edge">
<title>Node6&#45;&gt;Node7</title>
<g id="a_edge10_Node000006_Node000007"><a xlink:title=" ">
<path fill="none" stroke="#63b8ff" d="M289.93,-53.02C310.83,-43.38 337.24,-31.21 355.78,-22.66"/>
<polygon fill="#63b8ff" stroke="#63b8ff" points="288.56,-49.8 280.95,-57.16 291.49,-56.15 288.56,-49.8"/>
</a>
</g>
</g>
<!-- Node6&#45;&gt;Node50 -->
<g id="edge11_Node000006_Node000050" class="edge">
<title>Node6&#45;&gt;Node50</title>
<g id="a_edge11_Node000006_Node000050"><a xlink:title=" ">
<path fill="none" stroke="#63b8ff" d="M297.08,-57.17C334.25,-46.87 388.8,-31.75 424.27,-21.92"/>
<polygon fill="#63b8ff" stroke="#63b8ff" points="296.3,-53.75 287.6,-59.79 298.17,-60.49 296.3,-53.75"/>
</a>
</g>
</g>
</g>
</svg>
