<?xml version="1.0" encoding="UTF-8" standalone="no"?>
<!DOCTYPE svg PUBLIC "-//W3C//DTD SVG 1.1//EN"
 "http://www.w3.org/Graphics/SVG/1.1/DTD/svg11.dtd">
<!-- Generated by graphviz version 7.1.0 (0)
 -->
<!-- Title: merged_color_overlay Pages: 1 -->
<svg width="399pt" height="485pt"
 viewBox="0.00 0.00 399.00 485.00" xmlns="http://www.w3.org/2000/svg" xmlns:xlink="http://www.w3.org/1999/xlink">
<g id="graph0" class="graph" transform="scale(1 1) rotate(0) translate(4 481)">
<title>merged_color_overlay</title>
<!-- Node1 -->
<g id="node1" class="node">
<title>Node1</title>
<g id="a_node1"><a xlink:title="Combine two colours.">
<polygon fill="#999999" stroke="#666666" points="391,-253 271,-253 271,-234 391,-234 391,-253"/>
<text text-anchor="middle" x="331" y="-241" font-family="Helvetica,sans-Serif" font-size="10.00">merged_color_overlay</text>
</a>
</g>
</g>
<!-- Node2 -->
<g id="node2" class="node">
<title>Node2</title>
<g id="a_node2"><a xlink:href="sidebar_2window_8c.html#a5d46d0cc3c83179706a0011dde1eec50" target="_top" xlink:title="Calculate the colour of a Sidebar row.">
<polygon fill="#fff0f0" stroke="red" points="200.5,-477 139.5,-477 139.5,-458 200.5,-458 200.5,-477"/>
<text text-anchor="middle" x="170" y="-465" font-family="Helvetica,sans-Serif" font-size="10.00">calc_color</text>
</a>
</g>
</g>
<!-- Node1&#45;&gt;Node2 -->
<g id="edge1" class="edge">
<title>Node1&#45;&gt;Node2</title>
<path fill="none" stroke="#63b8ff" d="M325.57,-264.43C316.03,-304.65 289.78,-393.17 235,-443.5 225.56,-452.17 212.7,-457.8 200.98,-461.4"/>
<polygon fill="#63b8ff" stroke="#63b8ff" points="328.95,-265.39 327.73,-254.87 322.12,-263.85 328.95,-265.39"/>
</g>
<!-- Node11 -->
<g id="node3" class="node">
<title>Node11</title>
<g id="a_node3"><a xlink:href="display_8c.html#abc565efa06ce7f0ca016f3b7c563cca7" target="_top" xlink:title="Print a line on screen.">
<polygon fill="#fff0f0" stroke="red" points="69,-229 0,-229 0,-210 69,-210 69,-229"/>
<text text-anchor="middle" x="34.5" y="-217" font-family="Helvetica,sans-Serif" font-size="10.00">display_line</text>
</a>
</g>
</g>
<!-- Node1&#45;&gt;Node11 -->
<g id="edge2" class="edge">
<title>Node1&#45;&gt;Node11</title>
<path fill="none" stroke="#63b8ff" d="M325.31,-264.45C315.71,-301.7 289.92,-378.56 235,-410.5 185.06,-439.55 152.33,-443.64 105,-410.5 42.86,-366.98 36.07,-261.84 35.5,-229.28"/>
<polygon fill="#63b8ff" stroke="#63b8ff" points="328.66,-265.47 327.61,-254.92 321.86,-263.82 328.66,-265.47"/>
</g>
<!-- Node94 -->
<g id="node4" class="node">
<title>Node94</title>
<g id="a_node4"><a xlink:href="sidebar_2window_8c.html#ad0ad62ed59ddcd79151fdf8150a12ae8" target="_top" xlink:title="Draw a line between the sidebar and the rest of neomutt.">
<polygon fill="#fff0f0" stroke="red" points="208,-401 132,-401 132,-382 208,-382 208,-401"/>
<text text-anchor="middle" x="170" y="-389" font-family="Helvetica,sans-Serif" font-size="10.00">draw_divider</text>
</a>
</g>
</g>
<!-- Node1&#45;&gt;Node94 -->
<g id="edge3" class="edge">
<title>Node1&#45;&gt;Node94</title>
<path fill="none" stroke="#63b8ff" d="M320.8,-263.44C306.54,-292.14 276.35,-344.79 235,-373.5 227.13,-378.96 217.64,-382.78 208.4,-385.44"/>
<polygon fill="#63b8ff" stroke="#63b8ff" points="323.8,-265.28 324.98,-254.75 317.49,-262.25 323.8,-265.28"/>
</g>
<!-- Node96 -->
<g id="node5" class="node">
<title>Node96</title>
<g id="a_node5"><a xlink:href="sidebar_2window_8c.html#a170c92ace88b40e4afde3456023aff72" target="_top" xlink:title="Wipe the remaining Sidebar space.">
<polygon fill="#fff0f0" stroke="red" points="216,-364 124,-364 124,-345 216,-345 216,-364"/>
<text text-anchor="middle" x="170" y="-352" font-family="Helvetica,sans-Serif" font-size="10.00">fill_empty_space</text>
</a>
</g>
</g>
<!-- Node1&#45;&gt;Node96 -->
<g id="edge4" class="edge">
<title>Node1&#45;&gt;Node96</title>
<path fill="none" stroke="#63b8ff" d="M315.78,-262.23C298.8,-283.31 268.46,-317.14 235,-336.5 229.21,-339.85 222.75,-342.61 216.23,-344.87"/>
<polygon fill="#63b8ff" stroke="#63b8ff" points="318.45,-264.5 321.87,-254.47 312.94,-260.17 318.45,-264.5"/>
</g>
<!-- Node97 -->
<g id="node6" class="node">
<title>Node97</title>
<g id="a_node6"><a xlink:href="draw_8c.html#a2c9ac04bb60a20248165aa9671972b1d" target="_top" xlink:title="Choose a colour for a line of the index.">
<polygon fill="white" stroke="#666666" points="200,-327 140,-327 140,-308 200,-308 200,-327"/>
<text text-anchor="middle" x="170" y="-315" font-family="Helvetica,sans-Serif" font-size="10.00">get_color</text>
</a>
</g>
</g>
<!-- Node1&#45;&gt;Node97 -->
<g id="edge5" class="edge">
<title>Node1&#45;&gt;Node97</title>
<path fill="none" stroke="#63b8ff" d="M306.36,-259.78C287.67,-272.06 260.55,-288.59 235,-299.5 223.96,-304.21 211.33,-308.07 200.22,-310.98"/>
<polygon fill="#63b8ff" stroke="#63b8ff" points="308.18,-262.76 314.55,-254.3 304.29,-256.95 308.18,-262.76"/>
</g>
<!-- Node98 -->
<g id="node7" class="node">
<title>Node98</title>
<g id="a_node7"><a xlink:href="draw_8c.html#adb45718706531be131e704b8af873338" target="_top" xlink:title="Force the redraw of the list part of the menu.">
<polygon fill="#fff0f0" stroke="red" points="229,-290 111,-290 111,-271 229,-271 229,-290"/>
<text text-anchor="middle" x="170" y="-278" font-family="Helvetica,sans-Serif" font-size="10.00">menu_redraw_motion</text>
</a>
</g>
</g>
<!-- Node1&#45;&gt;Node98 -->
<g id="edge6" class="edge">
<title>Node1&#45;&gt;Node98</title>
<path fill="none" stroke="#63b8ff" d="M276.36,-255.98C255.95,-260.73 232.99,-266.07 213.73,-270.56"/>
<polygon fill="#63b8ff" stroke="#63b8ff" points="276.97,-259.43 285.92,-253.76 275.38,-252.62 276.97,-259.43"/>
</g>
<!-- Node757 -->
<g id="node8" class="node">
<title>Node757</title>
<g id="a_node8"><a xlink:href="msgwin_8c.html#ac1dc426af34116e8de4ebfb20d0cb44f" target="_top" xlink:title="Set the text for the Message Window.">
<polygon fill="#fff0f0" stroke="red" points="216.5,-253 123.5,-253 123.5,-234 216.5,-234 216.5,-253"/>
<text text-anchor="middle" x="170" y="-241" font-family="Helvetica,sans-Serif" font-size="10.00">msgwin_set_text</text>
</a>
</g>
</g>
<!-- Node1&#45;&gt;Node757 -->
<g id="edge7" class="edge">
<title>Node1&#45;&gt;Node757</title>
<path fill="none" stroke="#63b8ff" d="M259.35,-243.5C244.93,-243.5 230.11,-243.5 216.84,-243.5"/>
<polygon fill="#63b8ff" stroke="#63b8ff" points="259.28,-247 269.28,-243.5 259.28,-240 259.28,-247"/>
</g>
<!-- Node845 -->
<g id="node9" class="node">
<title>Node845</title>
<g id="a_node9"><a xlink:href="mutt__curses_8c.html#a3a575019f4de209b0baf95885c90c3de" target="_top" xlink:title="Set the colour and attributes by the colour id.">
<polygon fill="#fff0f0" stroke="red" points="235,-215.5 105,-215.5 105,-185.5 235,-185.5 235,-215.5"/>
<text text-anchor="start" x="113" y="-203.5" font-family="Helvetica,sans-Serif" font-size="10.00">mutt_curses_set_normal</text>
<text text-anchor="middle" x="170" y="-192.5" font-family="Helvetica,sans-Serif" font-size="10.00">_backed_color_by_id</text>
</a>
</g>
</g>
<!-- Node1&#45;&gt;Node845 -->
<g id="edge8" class="edge">
<title>Node1&#45;&gt;Node845</title>
<path fill="none" stroke="#63b8ff" d="M282.32,-230.61C265.31,-226 245.97,-220.77 228.23,-215.98"/>
<polygon fill="#63b8ff" stroke="#63b8ff" points="281.09,-233.9 291.66,-233.13 282.92,-227.14 281.09,-233.9"/>
</g>
<!-- Node870 -->
<g id="node10" class="node">
<title>Node870</title>
<g id="a_node10"><a xlink:href="dlg__index_8c.html#a3932a451feea973fd2559ea67f6dd16d" target="_top" xlink:title="Draw a highlighted status bar.">
<polygon fill="#fff0f0" stroke="red" points="227.5,-167 112.5,-167 112.5,-148 227.5,-148 227.5,-167"/>
<text text-anchor="middle" x="170" y="-155" font-family="Helvetica,sans-Serif" font-size="10.00">mutt_draw_statusline</text>
</a>
</g>
</g>
<!-- Node1&#45;&gt;Node870 -->
<g id="edge9" class="edge">
<title>Node1&#45;&gt;Node870</title>
<path fill="none" stroke="#63b8ff" d="M310.14,-226.56C291.71,-211.59 262.99,-190.07 235,-176.5 227.7,-172.96 219.61,-169.94 211.7,-167.41"/>
<polygon fill="#63b8ff" stroke="#63b8ff" points="307.68,-229.07 317.61,-232.76 312.15,-223.68 307.68,-229.07"/>
</g>
<!-- Node598 -->
<g id="node11" class="node">
<title>Node598</title>
<g id="a_node11"><a xlink:href="dlg__index_8c.html#a6566b9f6bf6671102a3330bee435ed8b" target="_top" xlink:title="Select a colour for a message.">
<polygon fill="#fff0f0" stroke="red" points="232,-130 108,-130 108,-111 232,-111 232,-130"/>
<text text-anchor="middle" x="170" y="-118" font-family="Helvetica,sans-Serif" font-size="10.00">mutt_set_header_color</text>
</a>
</g>
</g>
<!-- Node1&#45;&gt;Node598 -->
<g id="edge10" class="edge">
<title>Node1&#45;&gt;Node598</title>
<path fill="none" stroke="#63b8ff" d="M317.43,-224.31C301.14,-200.92 270.56,-161.78 235,-139.5 229.2,-135.87 222.68,-132.9 216.07,-130.49"/>
<polygon fill="#63b8ff" stroke="#63b8ff" points="314.34,-225.98 322.84,-232.3 320.13,-222.05 314.34,-225.98"/>
</g>
<!-- Node773 -->
<g id="node12" class="node">
<title>Node773</title>
<g id="a_node12"><a xlink:href="group__gui__mw.html#gad530cebf7d9c54c55a609509acc56f70" target="_top" xlink:title="Offer the user a multiple choice question &#45;.">
<polygon fill="#fff0f0" stroke="red" points="217.5,-93 122.5,-93 122.5,-74 217.5,-74 217.5,-93"/>
<text text-anchor="middle" x="170" y="-81" font-family="Helvetica,sans-Serif" font-size="10.00">mw_multi_choice</text>
</a>
</g>
</g>
<!-- Node1&#45;&gt;Node773 -->
<g id="edge11" class="edge">
<title>Node1&#45;&gt;Node773</title>
<path fill="none" stroke="#63b8ff" d="M321.78,-223.27C308.27,-192.57 278.46,-134.41 235,-102.5 229.86,-98.73 223.98,-95.7 217.9,-93.27"/>
<polygon fill="#63b8ff" stroke="#63b8ff" points="318.43,-224.35 325.56,-232.19 324.88,-221.62 318.43,-224.35"/>
</g>
<!-- Node530 -->
<g id="node13" class="node">
<title>Node530</title>
<g id="a_node13"><a xlink:href="display_8c.html#a92e8e1b5f82df5d36b17d9784ba22524" target="_top" xlink:title="Set the colour for a line of text.">
<polygon fill="#fff0f0" stroke="red" points="209,-56 131,-56 131,-37 209,-37 209,-56"/>
<text text-anchor="middle" x="170" y="-44" font-family="Helvetica,sans-Serif" font-size="10.00">resolve_color</text>
</a>
</g>
</g>
<!-- Node1&#45;&gt;Node530 -->
<g id="edge12" class="edge">
<title>Node1&#45;&gt;Node530</title>
<path fill="none" stroke="#63b8ff" d="M324.67,-222.77C314.05,-185.63 286.69,-107.69 235,-65.5 227.64,-59.49 218.42,-55.38 209.3,-52.57"/>
<polygon fill="#63b8ff" stroke="#63b8ff" points="321.24,-223.5 327.25,-232.23 328,-221.67 321.24,-223.5"/>
</g>
<!-- Node871 -->
<g id="node14" class="node">
<title>Node871</title>
<g id="a_node14"><a xlink:href="display_8c.html#a9912e3b588ad5b08a8fd1cb0fa0df83e" target="_top" xlink:title="Determine the style for a line of text.">
<polygon fill="white" stroke="#666666" points="210,-19 130,-19 130,0 210,0 210,-19"/>
<text text-anchor="middle" x="170" y="-7" font-family="Helvetica,sans-Serif" font-size="10.00">resolve_types</text>
</a>
</g>
</g>
<!-- Node1&#45;&gt;Node871 -->
<g id="edge13" class="edge">
<title>Node1&#45;&gt;Node871</title>
<path fill="none" stroke="#63b8ff" d="M326.71,-222.43C318.87,-179.47 295.1,-81.39 235,-28.5 228.04,-22.37 219.18,-18.22 210.29,-15.41"/>
<polygon fill="#63b8ff" stroke="#63b8ff" points="323.24,-222.89 328.36,-232.17 330.14,-221.72 323.24,-222.89"/>
</g>
<!-- Node871&#45;&gt;Node11 -->
<g id="edge14" class="edge">
<title>Node871&#45;&gt;Node11</title>
<path fill="none" stroke="#63b8ff" d="M119.36,-18.99C114.1,-21.46 109.17,-24.58 105,-28.5 50.27,-80.02 38.5,-178.03 36.09,-209.5"/>
<polygon fill="#63b8ff" stroke="#63b8ff" points="120.27,-22.39 128.34,-15.52 117.75,-15.86 120.27,-22.39"/>
</g>
</g>
</svg>
