<?xml version="1.0" encoding="UTF-8" standalone="no"?>
<!DOCTYPE svg PUBLIC "-//W3C//DTD SVG 1.1//EN"
 "http://www.w3.org/Graphics/SVG/1.1/DTD/svg11.dtd">
<!-- Generated by graphviz version 7.1.0 (0)
 -->
<!-- Title: merged_color_overlay Pages: 1 -->
<svg width="553pt" height="551pt"
 viewBox="0.00 0.00 553.00 551.00" xmlns="http://www.w3.org/2000/svg" xmlns:xlink="http://www.w3.org/1999/xlink">
<g id="graph0" class="graph" transform="scale(1 1) rotate(0) translate(4 547)">
<title>merged_color_overlay</title>
<!-- Node1 -->
<g id="node1" class="node">
<title>Node1</title>
<g id="a_node1"><a xlink:title="Combine two colours.">
<polygon fill="#999999" stroke="#666666" points="545,-281 425,-281 425,-262 545,-262 545,-281"/>
<text text-anchor="middle" x="485" y="-269" font-family="Helvetica,sans-Serif" font-size="10.00">merged_color_overlay</text>
</a>
</g>
</g>
<!-- Node2 -->
<g id="node2" class="node">
<title>Node2</title>
<g id="a_node2"><a xlink:href="sidebar_2window_8c.html#a5d46d0cc3c83179706a0011dde1eec50" target="_top" xlink:title="Calculate the colour of a Sidebar row.">
<polygon fill="#fff0f0" stroke="red" points="360.5,-543 299.5,-543 299.5,-524 360.5,-524 360.5,-543"/>
<text text-anchor="middle" x="330" y="-531" font-family="Helvetica,sans-Serif" font-size="10.00">calc_color</text>
</a>
</g>
</g>
<!-- Node1&#45;&gt;Node2 -->
<g id="edge1" class="edge">
<title>Node1&#45;&gt;Node2</title>
<path fill="none" stroke="#63b8ff" d="M481.2,-292.38C474.07,-337.81 451.16,-446.56 389,-509.5 381.34,-517.25 370.82,-522.61 360.83,-526.26"/>
<polygon fill="#63b8ff" stroke="#63b8ff" points="484.65,-293.01 482.63,-282.61 477.72,-292 484.65,-293.01"/>
</g>
<!-- Node9 -->
<g id="node3" class="node">
<title>Node9</title>
<g id="a_node3"><a xlink:href="display_8c.html#abc565efa06ce7f0ca016f3b7c563cca7" target="_top" xlink:title="Print a line on screen.">
<polygon fill="#fff0f0" stroke="red" points="69,-300 0,-300 0,-281 69,-281 69,-300"/>
<text text-anchor="middle" x="34.5" y="-288" font-family="Helvetica,sans-Serif" font-size="10.00">display_line</text>
</a>
</g>
</g>
<!-- Node1&#45;&gt;Node9 -->
<g id="edge2" class="edge">
<title>Node1&#45;&gt;Node9</title>
<path fill="none" stroke="#63b8ff" d="M481.57,-292.47C475.29,-335.85 454.15,-434.89 389,-476.5 256.33,-561.24 81,-349.45 42.97,-300.38"/>
<polygon fill="#63b8ff" stroke="#63b8ff" points="485.03,-293 482.86,-282.63 478.09,-292.1 485.03,-293"/>
</g>
<!-- Node92 -->
<g id="node4" class="node">
<title>Node92</title>
<g id="a_node4"><a xlink:href="sidebar_2window_8c.html#ad0ad62ed59ddcd79151fdf8150a12ae8" target="_top" xlink:title="Draw a line between the sidebar and the rest of neomutt.">
<polygon fill="#fff0f0" stroke="red" points="368,-467 292,-467 292,-448 368,-448 368,-467"/>
<text text-anchor="middle" x="330" y="-455" font-family="Helvetica,sans-Serif" font-size="10.00">draw_divider</text>
</a>
</g>
</g>
<!-- Node1&#45;&gt;Node92 -->
<g id="edge3" class="edge">
<title>Node1&#45;&gt;Node92</title>
<path fill="none" stroke="#63b8ff" d="M477.97,-291.97C466.51,-327.32 438.23,-399.81 389,-439.5 383.01,-444.33 375.72,-447.87 368.36,-450.46"/>
<polygon fill="#63b8ff" stroke="#63b8ff" points="481.26,-293.17 480.88,-282.58 474.58,-291.1 481.26,-293.17"/>
</g>
<!-- Node94 -->
<g id="node5" class="node">
<title>Node94</title>
<g id="a_node5"><a xlink:href="dlg__index_8c.html#a445957247e2e9c75567508f3b6c5b097" target="_top" xlink:title="Select an Index colour for an Email.">
<polygon fill="#fff0f0" stroke="red" points="374,-430 286,-430 286,-411 374,-411 374,-430"/>
<text text-anchor="middle" x="330" y="-418" font-family="Helvetica,sans-Serif" font-size="10.00">email_set_color</text>
</a>
</g>
</g>
<!-- Node1&#45;&gt;Node94 -->
<g id="edge4" class="edge">
<title>Node1&#45;&gt;Node94</title>
<path fill="none" stroke="#63b8ff" d="M474.74,-291.44C460.4,-320.18 430.12,-373.01 389,-402.5 384.54,-405.7 379.51,-408.33 374.31,-410.51"/>
<polygon fill="#63b8ff" stroke="#63b8ff" points="477.74,-293.28 478.94,-282.75 471.44,-290.23 477.74,-293.28"/>
</g>
<!-- Node710 -->
<g id="node6" class="node">
<title>Node710</title>
<g id="a_node6"><a xlink:href="sidebar_2window_8c.html#a170c92ace88b40e4afde3456023aff72" target="_top" xlink:title="Wipe the remaining Sidebar space.">
<polygon fill="#fff0f0" stroke="red" points="376,-393 284,-393 284,-374 376,-374 376,-393"/>
<text text-anchor="middle" x="330" y="-381" font-family="Helvetica,sans-Serif" font-size="10.00">fill_empty_space</text>
</a>
</g>
</g>
<!-- Node1&#45;&gt;Node710 -->
<g id="edge5" class="edge">
<title>Node1&#45;&gt;Node710</title>
<path fill="none" stroke="#63b8ff" d="M469.73,-290.27C452.7,-311.44 422.32,-345.5 389,-365.5 383.76,-368.65 377.91,-371.29 372.01,-373.5"/>
<polygon fill="#63b8ff" stroke="#63b8ff" points="472.42,-292.51 475.84,-282.49 466.91,-288.19 472.42,-292.51"/>
</g>
<!-- Node533 -->
<g id="node7" class="node">
<title>Node533</title>
<g id="a_node7"><a xlink:href="draw_8c.html#a2c9ac04bb60a20248165aa9671972b1d" target="_top" xlink:title="Choose a colour for a line of the index.">
<polygon fill="white" stroke="#666666" points="360,-356 300,-356 300,-337 360,-337 360,-356"/>
<text text-anchor="middle" x="330" y="-344" font-family="Helvetica,sans-Serif" font-size="10.00">get_color</text>
</a>
</g>
</g>
<!-- Node1&#45;&gt;Node533 -->
<g id="edge6" class="edge">
<title>Node1&#45;&gt;Node533</title>
<path fill="none" stroke="#63b8ff" d="M460.64,-287.68C441.92,-300.11 414.63,-317.03 389,-328.5 379.95,-332.55 369.73,-336.05 360.41,-338.86"/>
<polygon fill="#63b8ff" stroke="#63b8ff" points="462.51,-290.65 468.84,-282.15 458.59,-284.84 462.51,-290.65"/>
</g>
<!-- Node711 -->
<g id="node8" class="node">
<title>Node711</title>
<g id="a_node8"><a xlink:href="display_8c.html#a5d23939f7a384e22fe2fa2feecb08e6b" target="_top" xlink:title="Match body patterns, e.g.">
<polygon fill="white" stroke="#666666" points="388.5,-319 271.5,-319 271.5,-300 388.5,-300 388.5,-319"/>
<text text-anchor="middle" x="330" y="-307" font-family="Helvetica,sans-Serif" font-size="10.00">match_body_patterns</text>
</a>
</g>
</g>
<!-- Node1&#45;&gt;Node711 -->
<g id="edge7" class="edge">
<title>Node1&#45;&gt;Node711</title>
<path fill="none" stroke="#63b8ff" d="M432.67,-284.25C412.63,-289.23 390.01,-294.84 371.2,-299.52"/>
<polygon fill="#63b8ff" stroke="#63b8ff" points="433.47,-287.66 442.33,-281.85 431.78,-280.86 433.47,-287.66"/>
</g>
<!-- Node712 -->
<g id="node9" class="node">
<title>Node712</title>
<g id="a_node9"><a xlink:href="display_8c.html#a9912e3b588ad5b08a8fd1cb0fa0df83e" target="_top" xlink:title="Determine the style for a line of text.">
<polygon fill="white" stroke="#666666" points="210,-300 130,-300 130,-281 210,-281 210,-300"/>
<text text-anchor="middle" x="170" y="-288" font-family="Helvetica,sans-Serif" font-size="10.00">resolve_types</text>
</a>
</g>
</g>
<!-- Node1&#45;&gt;Node712 -->
<g id="edge18" class="edge">
<title>Node1&#45;&gt;Node712</title>
<path fill="none" stroke="#63b8ff" d="M413.36,-275.79C350.55,-279.6 261.02,-285.04 210.2,-288.12"/>
<polygon fill="#63b8ff" stroke="#63b8ff" points="413.48,-279.29 423.25,-275.19 413.05,-272.3 413.48,-279.29"/>
</g>
<!-- Node713 -->
<g id="node10" class="node">
<title>Node713</title>
<g id="a_node10"><a xlink:href="draw_8c.html#adb45718706531be131e704b8af873338" target="_top" xlink:title="Force the redraw of the list part of the menu.">
<polygon fill="#fff0f0" stroke="red" points="389,-243 271,-243 271,-224 389,-224 389,-243"/>
<text text-anchor="middle" x="330" y="-231" font-family="Helvetica,sans-Serif" font-size="10.00">menu_redraw_motion</text>
</a>
</g>
</g>
<!-- Node1&#45;&gt;Node713 -->
<g id="edge10" class="edge">
<title>Node1&#45;&gt;Node713</title>
<path fill="none" stroke="#63b8ff" d="M432.67,-258.75C412.63,-253.77 390.01,-248.16 371.2,-243.48"/>
<polygon fill="#63b8ff" stroke="#63b8ff" points="431.78,-262.14 442.33,-261.15 433.47,-255.34 431.78,-262.14"/>
</g>
<!-- Node753 -->
<g id="node11" class="node">
<title>Node753</title>
<g id="a_node11"><a xlink:href="msgwin_8c.html#ac1dc426af34116e8de4ebfb20d0cb44f" target="_top" xlink:title="Set the text for the Message Window.">
<polygon fill="#fff0f0" stroke="red" points="376.5,-206 283.5,-206 283.5,-187 376.5,-187 376.5,-206"/>
<text text-anchor="middle" x="330" y="-194" font-family="Helvetica,sans-Serif" font-size="10.00">msgwin_set_text</text>
</a>
</g>
</g>
<!-- Node1&#45;&gt;Node753 -->
<g id="edge11" class="edge">
<title>Node1&#45;&gt;Node753</title>
<path fill="none" stroke="#63b8ff" d="M459.89,-255.32C441.14,-243.22 414.17,-226.88 389,-215.5 381.57,-212.14 373.36,-209.08 365.51,-206.45"/>
<polygon fill="#63b8ff" stroke="#63b8ff" points="457.85,-258.16 468.14,-260.71 461.69,-252.3 457.85,-258.16"/>
</g>
<!-- Node844 -->
<g id="node12" class="node">
<title>Node844</title>
<g id="a_node12"><a xlink:href="mutt__curses_8c.html#a3a575019f4de209b0baf95885c90c3de" target="_top" xlink:title="Set the colour and attributes by the Colour ID.">
<polygon fill="#fff0f0" stroke="red" points="235,-227.5 105,-227.5 105,-197.5 235,-197.5 235,-227.5"/>
<text text-anchor="start" x="113" y="-215.5" font-family="Helvetica,sans-Serif" font-size="10.00">mutt_curses_set_normal</text>
<text text-anchor="middle" x="170" y="-204.5" font-family="Helvetica,sans-Serif" font-size="10.00">_backed_color_by_id</text>
</a>
</g>
</g>
<!-- Node1&#45;&gt;Node844 -->
<g id="edge12" class="edge">
<title>Node1&#45;&gt;Node844</title>
<path fill="none" stroke="#63b8ff" d="M471.63,-252.22C455.7,-229.39 425.66,-192.57 389,-177.5 326.43,-151.77 246.51,-178.16 202.91,-197.03"/>
<polygon fill="#63b8ff" stroke="#63b8ff" points="468.6,-253.99 477.08,-260.34 474.41,-250.08 468.6,-253.99"/>
</g>
<!-- Node868 -->
<g id="node13" class="node">
<title>Node868</title>
<g id="a_node13"><a xlink:href="dlg__index_8c.html#a3932a451feea973fd2559ea67f6dd16d" target="_top" xlink:title="Draw a highlighted status bar.">
<polygon fill="#fff0f0" stroke="red" points="387.5,-130 272.5,-130 272.5,-111 387.5,-111 387.5,-130"/>
<text text-anchor="middle" x="330" y="-118" font-family="Helvetica,sans-Serif" font-size="10.00">mutt_draw_statusline</text>
</a>
</g>
</g>
<!-- Node1&#45;&gt;Node868 -->
<g id="edge14" class="edge">
<title>Node1&#45;&gt;Node868</title>
<path fill="none" stroke="#63b8ff" d="M473.8,-251.88C458.66,-224.45 427.8,-174.64 389,-144.5 381.51,-138.68 372.42,-134.05 363.67,-130.46"/>
<polygon fill="#63b8ff" stroke="#63b8ff" points="470.62,-253.35 478.43,-260.5 476.78,-250.03 470.62,-253.35"/>
</g>
<!-- Node244 -->
<g id="node14" class="node">
<title>Node244</title>
<g id="a_node14"><a xlink:href="group__gui__mw.html#ga7074d808675e21370b1cef98d55e75ca" target="_top" xlink:title="Ask the user to select a file &#45;.">
<polygon fill="#fff0f0" stroke="red" points="379,-93 281,-93 281,-74 379,-74 379,-93"/>
<text text-anchor="middle" x="330" y="-81" font-family="Helvetica,sans-Serif" font-size="10.00">mw_enter_fname</text>
</a>
</g>
</g>
<!-- Node1&#45;&gt;Node244 -->
<g id="edge15" class="edge">
<title>Node1&#45;&gt;Node244</title>
<path fill="none" stroke="#63b8ff" d="M478.04,-250.79C466.69,-215.02 438.58,-141.68 389,-101.5 384.99,-98.25 380.38,-95.58 375.57,-93.39"/>
<polygon fill="#63b8ff" stroke="#63b8ff" points="474.67,-251.75 480.92,-260.3 481.37,-249.72 474.67,-251.75"/>
</g>
<!-- Node769 -->
<g id="node15" class="node">
<title>Node769</title>
<g id="a_node15"><a xlink:href="group__gui__mw.html#gad530cebf7d9c54c55a609509acc56f70" target="_top" xlink:title="Offer the user a multiple choice question &#45;.">
<polygon fill="#fff0f0" stroke="red" points="377.5,-56 282.5,-56 282.5,-37 377.5,-37 377.5,-56"/>
<text text-anchor="middle" x="330" y="-44" font-family="Helvetica,sans-Serif" font-size="10.00">mw_multi_choice</text>
</a>
</g>
</g>
<!-- Node1&#45;&gt;Node769 -->
<g id="edge16" class="edge">
<title>Node1&#45;&gt;Node769</title>
<path fill="none" stroke="#63b8ff" d="M480.24,-250.41C471.69,-208.7 446.89,-115.34 389,-64.5 385.28,-61.23 380.97,-58.55 376.41,-56.36"/>
<polygon fill="#63b8ff" stroke="#63b8ff" points="476.77,-250.94 482.1,-260.1 483.65,-249.62 476.77,-250.94"/>
</g>
<!-- Node437 -->
<g id="node16" class="node">
<title>Node437</title>
<g id="a_node16"><a xlink:href="display_8c.html#a92e8e1b5f82df5d36b17d9784ba22524" target="_top" xlink:title="Set the colour for a line of text.">
<polygon fill="#fff0f0" stroke="red" points="369,-19 291,-19 291,0 369,0 369,-19"/>
<text text-anchor="middle" x="330" y="-7" font-family="Helvetica,sans-Serif" font-size="10.00">resolve_color</text>
</a>
</g>
</g>
<!-- Node1&#45;&gt;Node437 -->
<g id="edge17" class="edge">
<title>Node1&#45;&gt;Node437</title>
<path fill="none" stroke="#63b8ff" d="M481.87,-250.28C476.02,-203.23 455.42,-89.4 389,-27.5 383.45,-22.32 376.43,-18.64 369.21,-16.01"/>
<polygon fill="#63b8ff" stroke="#63b8ff" points="478.39,-250.64 482.99,-260.18 485.35,-249.85 478.39,-250.64"/>
</g>
<!-- Node711&#45;&gt;Node712 -->
<g id="edge8" class="edge">
<title>Node711&#45;&gt;Node712</title>
<path fill="none" stroke="#63b8ff" d="M259.99,-301.2C242.94,-299.15 225.26,-297.02 210.19,-295.21"/>
<polygon fill="#63b8ff" stroke="#63b8ff" points="259.21,-304.63 269.56,-302.35 260.05,-297.68 259.21,-304.63"/>
</g>
<!-- Node712&#45;&gt;Node9 -->
<g id="edge9" class="edge">
<title>Node712&#45;&gt;Node9</title>
<path fill="none" stroke="#63b8ff" d="M118.52,-290.5C102.01,-290.5 84.09,-290.5 69.13,-290.5"/>
<polygon fill="#63b8ff" stroke="#63b8ff" points="118.15,-294 128.15,-290.5 118.15,-287 118.15,-294"/>
</g>
<!-- Node844&#45;&gt;Node9 -->
<g id="edge13" class="edge">
<title>Node844&#45;&gt;Node9</title>
<path fill="none" stroke="#63b8ff" d="M132.7,-233.71C106.61,-248.96 72.61,-268.82 52.51,-280.56"/>
<polygon fill="#63b8ff" stroke="#63b8ff" points="134.45,-236.74 141.32,-228.67 130.92,-230.7 134.45,-236.74"/>
</g>
</g>
</svg>
