<?xml version="1.0" encoding="UTF-8" standalone="no"?>
<!DOCTYPE svg PUBLIC "-//W3C//DTD SVG 1.1//EN"
 "http://www.w3.org/Graphics/SVG/1.1/DTD/svg11.dtd">
<!-- Generated by graphviz version 7.1.0 (0)
 -->
<!-- Title: color/merged.c Pages: 1 -->
<svg width="442pt" height="192pt"
 viewBox="0.00 0.00 441.99 192.00" xmlns="http://www.w3.org/2000/svg" xmlns:xlink="http://www.w3.org/1999/xlink">
<g id="graph0" class="graph" transform="scale(1 1) rotate(0) translate(4 188)">
<title>color/merged.c</title>
<!-- Node1 -->
<g id="node1" class="node">
<title>Node1</title>
<g id="a_node1"><a xlink:title="Merged colours.">
<polygon fill="#999999" stroke="#666666" points="205.49,-184 117.49,-184 117.49,-165 205.49,-165 205.49,-184"/>
<text text-anchor="middle" x="161.49" y="-172" font-family="Helvetica,sans-Serif" font-size="10.00">color/merged.c</text>
</a>
</g>
</g>
<!-- Node2 -->
<g id="node2" class="node">
<title>Node2</title>
<g id="a_node2"><a xlink:title=" ">
<polygon fill="#e0e0e0" stroke="#999999" points="71.49,-19 17.49,-19 17.49,0 71.49,0 71.49,-19"/>
<text text-anchor="middle" x="44.49" y="-7" font-family="Helvetica,sans-Serif" font-size="10.00">config.h</text>
</a>
</g>
</g>
<!-- Node1&#45;&gt;Node2 -->
<g id="edge1" class="edge">
<title>Node1&#45;&gt;Node2</title>
<path fill="none" stroke="#63b8ff" d="M117.21,-165.07C92.04,-158.54 61.14,-147.4 38.49,-129 10.39,-106.18 -8.47,-88.8 4.49,-55 8.6,-44.29 16.6,-34.54 24.38,-26.91"/>
<polygon fill="#63b8ff" stroke="#63b8ff" points="26.65,-29.58 31.72,-20.28 21.96,-24.39 26.65,-29.58"/>
</g>
<!-- Node3 -->
<g id="node3" class="node">
<title>Node3</title>
<g id="a_node3"><a xlink:title=" ">
<polygon fill="#e0e0e0" stroke="#999999" points="433.99,-129 378.99,-129 378.99,-110 433.99,-110 433.99,-129"/>
<text text-anchor="middle" x="406.49" y="-117" font-family="Helvetica,sans-Serif" font-size="10.00">stddef.h</text>
</a>
</g>
</g>
<!-- Node1&#45;&gt;Node3 -->
<g id="edge2" class="edge">
<title>Node1&#45;&gt;Node3</title>
<path fill="none" stroke="#63b8ff" d="M203.05,-164.51C249.14,-154.54 322.9,-138.58 367.81,-128.87"/>
<polygon fill="#63b8ff" stroke="#63b8ff" points="368.32,-132.34 377.36,-126.8 366.84,-125.5 368.32,-132.34"/>
</g>
<!-- Node4 -->
<g id="node4" class="node">
<title>Node4</title>
<g id="a_node4"><a xlink:title=" ">
<polygon fill="#e0e0e0" stroke="#999999" points="323.49,-19 263.49,-19 263.49,0 323.49,0 323.49,-19"/>
<text text-anchor="middle" x="293.49" y="-7" font-family="Helvetica,sans-Serif" font-size="10.00">stdbool.h</text>
</a>
</g>
</g>
<!-- Node1&#45;&gt;Node4 -->
<g id="edge3" class="edge">
<title>Node1&#45;&gt;Node4</title>
<path fill="none" stroke="#63b8ff" d="M205.9,-166.06C228.8,-159.93 255.26,-148.86 271.49,-129 294.48,-100.86 296.4,-56.37 295.26,-30.66"/>
<polygon fill="#63b8ff" stroke="#63b8ff" points="298.77,-30.66 294.61,-20.91 291.78,-31.13 298.77,-30.66"/>
</g>
<!-- Node5 -->
<g id="node5" class="node">
<title>Node5</title>
<g id="a_node5"><a xlink:title=" ">
<polygon fill="#e0e0e0" stroke="#999999" points="141.49,-19 89.49,-19 89.49,0 141.49,0 141.49,-19"/>
<text text-anchor="middle" x="115.49" y="-7" font-family="Helvetica,sans-Serif" font-size="10.00">stdint.h</text>
</a>
</g>
</g>
<!-- Node1&#45;&gt;Node5 -->
<g id="edge4" class="edge">
<title>Node1&#45;&gt;Node5</title>
<path fill="none" stroke="#63b8ff" d="M134.49,-164.57C99.05,-151.2 38.3,-122.28 12.49,-74 8.51,-66.55 7.85,-62.06 12.49,-55 20.21,-43.25 51.99,-30.6 78.22,-21.8"/>
<polygon fill="#63b8ff" stroke="#63b8ff" points="79.18,-25.17 87.6,-18.75 77.01,-18.51 79.18,-25.17"/>
</g>
<!-- Node6 -->
<g id="node6" class="node">
<title>Node6</title>
<g id="a_node6"><a xlink:href="mutt_2lib_8h.html" target="_top" xlink:title="Convenience wrapper for the library headers.">
<polygon fill="#fff0f0" stroke="red" points="221.49,-19 159.49,-19 159.49,0 221.49,0 221.49,-19"/>
<text text-anchor="middle" x="190.49" y="-7" font-family="Helvetica,sans-Serif" font-size="10.00">mutt/lib.h</text>
</a>
</g>
</g>
<!-- Node1&#45;&gt;Node6 -->
<g id="edge5" class="edge">
<title>Node1&#45;&gt;Node6</title>
<path fill="none" stroke="#63b8ff" d="M202.65,-164.55C221.89,-158.09 243.04,-147.17 254.49,-129 276.79,-93.61 236.66,-49.81 210.47,-26.64"/>
<polygon fill="#63b8ff" stroke="#63b8ff" points="212.95,-24.15 203.07,-20.33 208.41,-29.48 212.95,-24.15"/>
</g>
<!-- Node54 -->
<g id="node7" class="node">
<title>Node54</title>
<g id="a_node7"><a xlink:href="attr_8h.html" target="_top" xlink:title="Colour and attributes.">
<polygon fill="white" stroke="#666666" points="142.99,-74 101.99,-74 101.99,-55 142.99,-55 142.99,-74"/>
<text text-anchor="middle" x="122.49" y="-62" font-family="Helvetica,sans-Serif" font-size="10.00">attr.h</text>
</a>
</g>
</g>
<!-- Node1&#45;&gt;Node54 -->
<g id="edge6" class="edge">
<title>Node1&#45;&gt;Node54</title>
<path fill="none" stroke="#63b8ff" d="M158.3,-164.66C152.07,-147.42 138.16,-108.9 129.63,-85.27"/>
<polygon fill="#63b8ff" stroke="#63b8ff" points="132.93,-84.1 126.24,-75.88 126.34,-86.48 132.93,-84.1"/>
</g>
<!-- Node55 -->
<g id="node8" class="node">
<title>Node55</title>
<g id="a_node8"><a xlink:href="color_8h.html" target="_top" xlink:title="Color and attribute parsing.">
<polygon fill="white" stroke="#666666" points="207.99,-74 160.99,-74 160.99,-55 207.99,-55 207.99,-74"/>
<text text-anchor="middle" x="184.49" y="-62" font-family="Helvetica,sans-Serif" font-size="10.00">color.h</text>
</a>
</g>
</g>
<!-- Node1&#45;&gt;Node55 -->
<g id="edge11" class="edge">
<title>Node1&#45;&gt;Node55</title>
<path fill="none" stroke="#63b8ff" d="M163.37,-164.66C167.03,-147.5 175.17,-109.26 180.21,-85.6"/>
<polygon fill="#63b8ff" stroke="#63b8ff" points="183.61,-86.45 182.27,-75.94 176.76,-84.99 183.61,-86.45"/>
</g>
<!-- Node56 -->
<g id="node9" class="node">
<title>Node56</title>
<g id="a_node9"><a xlink:href="curses2_8h.html" target="_top" xlink:title="Curses Colour.">
<polygon fill="white" stroke="#666666" points="83.49,-74 21.49,-74 21.49,-55 83.49,-55 83.49,-74"/>
<text text-anchor="middle" x="52.49" y="-62" font-family="Helvetica,sans-Serif" font-size="10.00">curses2.h</text>
</a>
</g>
</g>
<!-- Node1&#45;&gt;Node56 -->
<g id="edge16" class="edge">
<title>Node1&#45;&gt;Node56</title>
<path fill="none" stroke="#63b8ff" d="M152.57,-164.66C134.45,-146.7 93.05,-105.69 69.57,-82.42"/>
<polygon fill="#63b8ff" stroke="#63b8ff" points="72.18,-80.08 62.61,-75.53 67.25,-85.05 72.18,-80.08"/>
</g>
<!-- Node57 -->
<g id="node10" class="node">
<title>Node57</title>
<g id="a_node10"><a xlink:href="debug_8h.html" target="_top" xlink:title="Colour Debugging.">
<polygon fill="white" stroke="#666666" points="245.49,-129 189.49,-129 189.49,-110 245.49,-110 245.49,-129"/>
<text text-anchor="middle" x="217.49" y="-117" font-family="Helvetica,sans-Serif" font-size="10.00">debug.h</text>
</a>
</g>
</g>
<!-- Node1&#45;&gt;Node57 -->
<g id="edge20" class="edge">
<title>Node1&#45;&gt;Node57</title>
<path fill="none" stroke="#63b8ff" d="M170.99,-164.51C178.92,-157 190.44,-146.1 200.03,-137.03"/>
<polygon fill="#63b8ff" stroke="#63b8ff" points="202.17,-139.81 207.03,-130.4 197.36,-134.73 202.17,-139.81"/>
</g>
<!-- Node54&#45;&gt;Node2 -->
<g id="edge7" class="edge">
<title>Node54&#45;&gt;Node2</title>
<path fill="none" stroke="#63b8ff" d="M109.26,-54.51C97.65,-46.62 80.52,-34.98 66.79,-25.65"/>
<polygon fill="#63b8ff" stroke="#63b8ff" points="69.02,-22.93 58.78,-20.21 65.08,-28.72 69.02,-22.93"/>
</g>
<!-- Node54&#45;&gt;Node4 -->
<g id="edge8" class="edge">
<title>Node54&#45;&gt;Node4</title>
<path fill="none" stroke="#63b8ff" d="M143.46,-57C170.9,-48.5 219.54,-33.42 254,-22.74"/>
<polygon fill="#63b8ff" stroke="#63b8ff" points="254.68,-26.19 263.19,-19.89 252.61,-19.51 254.68,-26.19"/>
</g>
<!-- Node54&#45;&gt;Node5 -->
<g id="edge9" class="edge">
<title>Node54&#45;&gt;Node5</title>
<path fill="none" stroke="#63b8ff" d="M121.33,-54.75C120.47,-48.19 119.25,-38.95 118.14,-30.6"/>
<polygon fill="#63b8ff" stroke="#63b8ff" points="121.65,-30.4 116.87,-20.94 114.71,-31.31 121.65,-30.4"/>
</g>
<!-- Node54&#45;&gt;Node6 -->
<g id="edge10" class="edge">
<title>Node54&#45;&gt;Node6</title>
<path fill="none" stroke="#63b8ff" d="M134.02,-54.51C143.95,-46.77 158.5,-35.43 170.35,-26.2"/>
<polygon fill="#63b8ff" stroke="#63b8ff" points="172.2,-29.2 177.93,-20.29 167.89,-23.68 172.2,-29.2"/>
</g>
<!-- Node55&#45;&gt;Node2 -->
<g id="edge12" class="edge">
<title>Node55&#45;&gt;Node2</title>
<path fill="none" stroke="#63b8ff" d="M160.74,-54.51C138.18,-45.97 104.01,-33.03 78.55,-23.4"/>
<polygon fill="#63b8ff" stroke="#63b8ff" points="79.9,-20.16 69.3,-19.89 77.42,-26.71 79.9,-20.16"/>
</g>
<!-- Node55&#45;&gt;Node4 -->
<g id="edge13" class="edge">
<title>Node55&#45;&gt;Node4</title>
<path fill="none" stroke="#63b8ff" d="M202.98,-54.51C219.99,-46.24 245.48,-33.84 265.08,-24.31"/>
<polygon fill="#63b8ff" stroke="#63b8ff" points="266.45,-27.54 273.91,-20.02 263.39,-21.25 266.45,-27.54"/>
</g>
<!-- Node55&#45;&gt;Node5 -->
<g id="edge14" class="edge">
<title>Node55&#45;&gt;Node5</title>
<path fill="none" stroke="#63b8ff" d="M172.78,-54.51C162.71,-46.77 147.95,-35.43 135.93,-26.2"/>
<polygon fill="#63b8ff" stroke="#63b8ff" points="138.28,-23.6 128.22,-20.28 134.02,-29.15 138.28,-23.6"/>
</g>
<!-- Node55&#45;&gt;Node6 -->
<g id="edge15" class="edge">
<title>Node55&#45;&gt;Node6</title>
<path fill="none" stroke="#63b8ff" d="M185.48,-54.75C186.22,-48.19 187.27,-38.95 188.21,-30.6"/>
<polygon fill="#63b8ff" stroke="#63b8ff" points="191.66,-31.28 189.31,-20.95 184.7,-30.49 191.66,-31.28"/>
</g>
<!-- Node56&#45;&gt;Node2 -->
<g id="edge17" class="edge">
<title>Node56&#45;&gt;Node2</title>
<path fill="none" stroke="#63b8ff" d="M51.17,-54.75C50.18,-48.19 48.78,-38.95 47.52,-30.6"/>
<polygon fill="#63b8ff" stroke="#63b8ff" points="51.02,-30.3 46.07,-20.94 44.1,-31.35 51.02,-30.3"/>
</g>
<!-- Node56&#45;&gt;Node5 -->
<g id="edge18" class="edge">
<title>Node56&#45;&gt;Node5</title>
<path fill="none" stroke="#63b8ff" d="M63.18,-54.51C72.19,-46.93 85.32,-35.88 96.17,-26.75"/>
<polygon fill="#63b8ff" stroke="#63b8ff" points="98.4,-29.45 103.8,-20.33 93.9,-24.09 98.4,-29.45"/>
</g>
<!-- Node56&#45;&gt;Node6 -->
<g id="edge19" class="edge">
<title>Node56&#45;&gt;Node6</title>
<path fill="none" stroke="#63b8ff" d="M75.9,-54.51C98.14,-45.97 131.81,-33.03 156.91,-23.4"/>
<polygon fill="#63b8ff" stroke="#63b8ff" points="157.93,-26.75 166.01,-19.9 155.42,-20.22 157.93,-26.75"/>
</g>
<!-- Node57&#45;&gt;Node2 -->
<g id="edge21" class="edge">
<title>Node57&#45;&gt;Node2</title>
<path fill="none" stroke="#63b8ff" d="M189.17,-116.62C138.23,-112.58 34.38,-101.15 12.49,-74 1.05,-59.81 13.45,-40.86 26,-27.37"/>
<polygon fill="#63b8ff" stroke="#63b8ff" points="28.32,-29.99 32.94,-20.46 23.38,-25.03 28.32,-29.99"/>
</g>
<!-- Node57&#45;&gt;Node4 -->
<g id="edge22" class="edge">
<title>Node57&#45;&gt;Node4</title>
<path fill="none" stroke="#63b8ff" d="M223.71,-109.66C236.12,-92.02 264.2,-52.12 280.7,-28.67"/>
<polygon fill="#63b8ff" stroke="#63b8ff" points="283.42,-30.89 286.31,-20.7 277.7,-26.86 283.42,-30.89"/>
</g>
<!-- Node57&#45;&gt;Node6 -->
<g id="edge23" class="edge">
<title>Node57&#45;&gt;Node6</title>
<path fill="none" stroke="#63b8ff" d="M218.96,-109.67C220.71,-97.22 222.77,-73.9 217.49,-55 214.88,-45.67 209.72,-36.34 204.6,-28.66"/>
<polygon fill="#63b8ff" stroke="#63b8ff" points="207.46,-26.65 198.78,-20.58 201.78,-30.74 207.46,-26.65"/>
</g>
<!-- Node57&#45;&gt;Node55 -->
<g id="edge24" class="edge">
<title>Node57&#45;&gt;Node55</title>
<path fill="none" stroke="#63b8ff" d="M212.04,-109.75C207.72,-102.81 201.53,-92.86 196.11,-84.16"/>
<polygon fill="#63b8ff" stroke="#63b8ff" points="199.11,-82.37 190.86,-75.73 193.17,-86.07 199.11,-82.37"/>
</g>
</g>
</svg>
