<?xml version="1.0" encoding="UTF-8" standalone="no"?>
<!DOCTYPE svg PUBLIC "-//W3C//DTD SVG 1.1//EN"
 "http://www.w3.org/Graphics/SVG/1.1/DTD/svg11.dtd">
<!-- Generated by graphviz version 2.44.0 (0)
 -->
<!-- Title: mh_delayed_parsing Pages: 1 -->
<svg width="397pt" height="446pt"
 viewBox="0.00 0.00 397.00 446.00" xmlns="http://www.w3.org/2000/svg" xmlns:xlink="http://www.w3.org/1999/xlink">
<g id="graph0" class="graph" transform="scale(1 1) rotate(0) translate(4 442)">
<title>mh_delayed_parsing</title>
<polygon fill="white" stroke="transparent" points="-4,4 -4,-442 393,-442 393,4 -4,4"/>
<!-- Node1 -->
<g id="node1" class="node">
<title>Node1</title>
<g id="a_node1"><a xlink:title="This function does the second parsing pass.">
<polygon fill="#bfbfbf" stroke="black" points="0,-209.5 0,-228.5 106,-228.5 106,-209.5 0,-209.5"/>
<text text-anchor="middle" x="53" y="-216.5" font-family="Helvetica" font-size="10.00">mh_delayed_parsing</text>
</a>
</g>
</g>
<!-- Node2 -->
<g id="node2" class="node">
<title>Node2</title>
<g id="a_node2"><a xlink:href="email_2email_8c.html#ae9f719d3fc31d00b92bcf9f77d56ee67" target="_top" xlink:title="Free an Email.">
<polygon fill="white" stroke="red" points="167.5,-418.5 167.5,-437.5 229.5,-437.5 229.5,-418.5 167.5,-418.5"/>
<text text-anchor="middle" x="198.5" y="-425.5" font-family="Helvetica" font-size="10.00">email_free</text>
</a>
</g>
</g>
<!-- Node1&#45;&gt;Node2 -->
<g id="edge1" class="edge">
<title>Node1&#45;&gt;Node2</title>
<path fill="none" stroke="midnightblue" d="M55.75,-228.89C61.76,-260.05 84.48,-357.17 142,-409 146.56,-413.11 152.04,-416.33 157.76,-418.86"/>
<polygon fill="midnightblue" stroke="midnightblue" points="156.9,-422.28 167.5,-422.5 159.36,-415.72 156.9,-422.28"/>
</g>
<!-- Node14 -->
<g id="node3" class="node">
<title>Node14</title>
<g id="a_node3"><a xlink:href="mailbox_8h.html#a04aa11207205b6778388dfc8ed56ee0d" target="_top" xlink:title="Get the Mailbox&#39;s path string.">
<polygon fill="white" stroke="red" points="161.5,-380.5 161.5,-399.5 235.5,-399.5 235.5,-380.5 161.5,-380.5"/>
<text text-anchor="middle" x="198.5" y="-387.5" font-family="Helvetica" font-size="10.00">mailbox_path</text>
</a>
</g>
</g>
<!-- Node1&#45;&gt;Node14 -->
<g id="edge2" class="edge">
<title>Node1&#45;&gt;Node14</title>
<path fill="none" stroke="midnightblue" d="M57.35,-228.63C66.74,-254.35 95.7,-325.41 142,-366 146.45,-369.9 151.63,-373.25 157.01,-376.1"/>
<polygon fill="midnightblue" stroke="midnightblue" points="155.61,-379.3 166.14,-380.43 158.6,-372.98 155.61,-379.3"/>
</g>
<!-- Node16 -->
<g id="node4" class="node">
<title>Node16</title>
<g id="a_node4"><a xlink:href="maildir_2edata_8c.html#a64d6c6eca4ddc56acc9157a876f07d63" target="_top" xlink:title="Free the private Email data &#45; Implements Email::edata_free()">
<polygon fill="white" stroke="black" points="292,-323.5 292,-342.5 388,-342.5 388,-323.5 292,-323.5"/>
<text text-anchor="middle" x="340" y="-330.5" font-family="Helvetica" font-size="10.00">maildir_edata_free</text>
</a>
</g>
</g>
<!-- Node1&#45;&gt;Node16 -->
<g id="edge3" class="edge">
<title>Node1&#45;&gt;Node16</title>
<path fill="none" stroke="midnightblue" d="M57.9,-228.76C67.8,-252.05 96.45,-310.62 142,-333 188.65,-355.92 249.34,-351.63 290.95,-344.36"/>
<polygon fill="midnightblue" stroke="midnightblue" points="291.65,-347.79 300.84,-342.51 290.37,-340.9 291.65,-347.79"/>
</g>
<!-- Node17 -->
<g id="node5" class="node">
<title>Node17</title>
<g id="a_node5"><a xlink:href="maildir_2edata_8c.html#a3dfb16b26ffe871f3aa5753f0115bcdc" target="_top" xlink:title="Create a new MaildirEmailData object.">
<polygon fill="white" stroke="red" points="291,-266.5 291,-285.5 389,-285.5 389,-266.5 291,-266.5"/>
<text text-anchor="middle" x="340" y="-273.5" font-family="Helvetica" font-size="10.00">maildir_edata_new</text>
</a>
</g>
</g>
<!-- Node1&#45;&gt;Node17 -->
<g id="edge4" class="edge">
<title>Node1&#45;&gt;Node17</title>
<path fill="none" stroke="midnightblue" d="M106.16,-228.33C146.79,-235.73 204.58,-246.53 255,-257 265.76,-259.23 277.27,-261.75 288.2,-264.2"/>
<polygon fill="midnightblue" stroke="midnightblue" points="287.52,-267.64 298.05,-266.43 289.07,-260.81 287.52,-267.64"/>
</g>
<!-- Node20 -->
<g id="node6" class="node">
<title>Node20</title>
<g id="a_node6"><a xlink:href="mh_8c.html#ad6a01e2383ee6ae084516d844375eb7b" target="_top" xlink:title="Compare two Maildirs by path &#45; Implements sort_t.">
<polygon fill="white" stroke="black" points="159.5,-266.5 159.5,-285.5 237.5,-285.5 237.5,-266.5 159.5,-266.5"/>
<text text-anchor="middle" x="198.5" y="-273.5" font-family="Helvetica" font-size="10.00">mh_cmp_path</text>
</a>
</g>
</g>
<!-- Node1&#45;&gt;Node20 -->
<g id="edge5" class="edge">
<title>Node1&#45;&gt;Node20</title>
<path fill="none" stroke="midnightblue" d="M78.02,-228.54C101.51,-237.87 137.49,-252.16 163.83,-262.62"/>
<polygon fill="midnightblue" stroke="midnightblue" points="162.82,-265.99 173.4,-266.43 165.4,-259.48 162.82,-265.99"/>
</g>
<!-- Node21 -->
<g id="node7" class="node">
<title>Node21</title>
<g id="a_node7"><a xlink:href="mh_8c.html#a07e65bb55fabf32fcdff84b8e6668d65" target="_top" xlink:title="Actually parse an MH message.">
<polygon fill="white" stroke="red" points="146,-304.5 146,-323.5 251,-323.5 251,-304.5 146,-304.5"/>
<text text-anchor="middle" x="198.5" y="-311.5" font-family="Helvetica" font-size="10.00">mh_parse_message</text>
</a>
</g>
</g>
<!-- Node1&#45;&gt;Node21 -->
<g id="edge6" class="edge">
<title>Node1&#45;&gt;Node21</title>
<path fill="none" stroke="midnightblue" d="M62.84,-228.75C77.74,-244.66 109.44,-276.31 142,-295 145.63,-297.08 149.52,-298.98 153.5,-300.71"/>
<polygon fill="midnightblue" stroke="midnightblue" points="152.26,-303.99 162.85,-304.43 154.85,-297.48 152.26,-303.99"/>
</g>
<!-- Node490 -->
<g id="node8" class="node">
<title>Node490</title>
<g id="a_node8"><a xlink:href="hcache_8c.html#a26bcb4546ca8d63327187a6bbeab796c" target="_top" xlink:title="Multiplexor for StoreOps::close.">
<polygon fill="white" stroke="black" points="148,-190.5 148,-209.5 249,-209.5 249,-190.5 148,-190.5"/>
<text text-anchor="middle" x="198.5" y="-197.5" font-family="Helvetica" font-size="10.00">mutt_hcache_close</text>
</a>
</g>
</g>
<!-- Node1&#45;&gt;Node490 -->
<g id="edge9" class="edge">
<title>Node1&#45;&gt;Node490</title>
<path fill="none" stroke="midnightblue" d="M106.21,-212.09C116.54,-210.72 127.44,-209.28 137.99,-207.88"/>
<polygon fill="midnightblue" stroke="midnightblue" points="138.5,-211.34 147.96,-206.56 137.58,-204.4 138.5,-211.34"/>
</g>
<!-- Node574 -->
<g id="node9" class="node">
<title>Node574</title>
<g id="a_node9"><a xlink:href="hcache_8c.html#aa48983abf3b4aba6e9f7e48492b7a94b" target="_top" xlink:title="Multiplexor for StoreOps::fetch.">
<polygon fill="white" stroke="red" points="148.5,-152.5 148.5,-171.5 248.5,-171.5 248.5,-152.5 148.5,-152.5"/>
<text text-anchor="middle" x="198.5" y="-159.5" font-family="Helvetica" font-size="10.00">mutt_hcache_fetch</text>
</a>
</g>
</g>
<!-- Node1&#45;&gt;Node574 -->
<g id="edge10" class="edge">
<title>Node1&#45;&gt;Node574</title>
<path fill="none" stroke="midnightblue" d="M74.79,-209.48C92.51,-201.5 118.72,-190 142,-181 147.28,-178.96 152.89,-176.91 158.43,-174.95"/>
<polygon fill="midnightblue" stroke="midnightblue" points="159.95,-178.12 168.25,-171.54 157.66,-171.51 159.95,-178.12"/>
</g>
<!-- Node496 -->
<g id="node10" class="node">
<title>Node496</title>
<g id="a_node10"><a xlink:href="hcache_8c.html#a2577271f963bef5d602562b0f3391f4d" target="_top" xlink:title="Multiplexor for StoreOps::open.">
<polygon fill="white" stroke="red" points="149,-114.5 149,-133.5 248,-133.5 248,-114.5 149,-114.5"/>
<text text-anchor="middle" x="198.5" y="-121.5" font-family="Helvetica" font-size="10.00">mutt_hcache_open</text>
</a>
</g>
</g>
<!-- Node1&#45;&gt;Node496 -->
<g id="edge11" class="edge">
<title>Node1&#45;&gt;Node496</title>
<path fill="none" stroke="midnightblue" d="M62.84,-209.25C77.74,-193.34 109.44,-161.69 142,-143 145.63,-140.92 149.52,-139.02 153.5,-137.29"/>
<polygon fill="midnightblue" stroke="midnightblue" points="154.85,-140.52 162.85,-133.57 152.26,-134.01 154.85,-140.52"/>
</g>
<!-- Node532 -->
<g id="node11" class="node">
<title>Node532</title>
<g id="a_node11"><a xlink:href="hcache_8c.html#a225d343735b371a451a47a392a1247d7" target="_top" xlink:title="Multiplexor for StoreOps::store.">
<polygon fill="white" stroke="red" points="148.5,-76.5 148.5,-95.5 248.5,-95.5 248.5,-76.5 148.5,-76.5"/>
<text text-anchor="middle" x="198.5" y="-83.5" font-family="Helvetica" font-size="10.00">mutt_hcache_store</text>
</a>
</g>
</g>
<!-- Node1&#45;&gt;Node532 -->
<g id="edge12" class="edge">
<title>Node1&#45;&gt;Node532</title>
<path fill="none" stroke="midnightblue" d="M58.95,-209.2C70.5,-187.32 101.35,-134.12 142,-105 144.69,-103.07 147.59,-101.33 150.61,-99.75"/>
<polygon fill="midnightblue" stroke="midnightblue" points="152.26,-102.85 159.9,-95.51 149.35,-96.48 152.26,-102.85"/>
</g>
<!-- Node549 -->
<g id="node12" class="node">
<title>Node549</title>
<g id="a_node12"><a xlink:href="progress_8c.html#aaaac7791e7c6d01bba7e6d7d76a258d9" target="_top" xlink:title="Update the state of the progress bar.">
<polygon fill="white" stroke="red" points="142,-38.5 142,-57.5 255,-57.5 255,-38.5 142,-38.5"/>
<text text-anchor="middle" x="198.5" y="-45.5" font-family="Helvetica" font-size="10.00">mutt_progress_update</text>
</a>
</g>
</g>
<!-- Node1&#45;&gt;Node549 -->
<g id="edge13" class="edge">
<title>Node1&#45;&gt;Node549</title>
<path fill="none" stroke="midnightblue" d="M56.95,-209.22C65.53,-182.44 93,-107.27 142,-67 144.14,-65.24 146.45,-63.64 148.87,-62.19"/>
<polygon fill="midnightblue" stroke="midnightblue" points="150.69,-65.19 158.02,-57.54 147.52,-58.95 150.69,-65.19"/>
</g>
<!-- Node48 -->
<g id="node13" class="node">
<title>Node48</title>
<g id="a_node13"><a xlink:href="mutt_2string_8c.html#a4c2560f787bd1226b977992c16860c98" target="_top" xlink:title="Copy a string, safely.">
<polygon fill="white" stroke="black" points="161.5,-0.5 161.5,-19.5 235.5,-19.5 235.5,-0.5 161.5,-0.5"/>
<text text-anchor="middle" x="198.5" y="-7.5" font-family="Helvetica" font-size="10.00">mutt_str_dup</text>
</a>
</g>
</g>
<!-- Node1&#45;&gt;Node48 -->
<g id="edge14" class="edge">
<title>Node1&#45;&gt;Node48</title>
<path fill="none" stroke="midnightblue" d="M55.75,-209.11C61.76,-177.95 84.48,-80.83 142,-29 145.02,-26.28 148.45,-23.94 152.08,-21.94"/>
<polygon fill="midnightblue" stroke="midnightblue" points="153.83,-24.99 161.43,-17.62 150.89,-18.64 153.83,-24.99"/>
</g>
<!-- Node21&#45;&gt;Node16 -->
<g id="edge7" class="edge">
<title>Node21&#45;&gt;Node16</title>
<path fill="none" stroke="midnightblue" d="M251.05,-321.02C261.06,-322.38 271.61,-323.82 281.79,-325.21"/>
<polygon fill="midnightblue" stroke="midnightblue" points="281.44,-328.69 291.82,-326.57 282.38,-321.76 281.44,-328.69"/>
</g>
<!-- Node21&#45;&gt;Node17 -->
<g id="edge8" class="edge">
<title>Node21&#45;&gt;Node17</title>
<path fill="none" stroke="midnightblue" d="M234.7,-304.41C252.71,-299.51 274.83,-293.48 294.06,-288.24"/>
<polygon fill="midnightblue" stroke="midnightblue" points="295.08,-291.59 303.81,-285.59 293.24,-284.84 295.08,-291.59"/>
</g>
</g>
</svg>
