<?xml version="1.0" encoding="UTF-8" standalone="no"?>
<!DOCTYPE svg PUBLIC "-//W3C//DTD SVG 1.1//EN"
 "http://www.w3.org/Graphics/SVG/1.1/DTD/svg11.dtd">
<!-- Generated by graphviz version 7.1.0 (0)
 -->
<!-- Title: mh_move_to_mailbox Pages: 1 -->
<svg width="261pt" height="64pt"
 viewBox="0.00 0.00 261.00 64.00" xmlns="http://www.w3.org/2000/svg" xmlns:xlink="http://www.w3.org/1999/xlink">
<g id="graph0" class="graph" transform="scale(1 1) rotate(0) translate(4 60)">
<title>mh_move_to_mailbox</title>
<!-- Node1 -->
<g id="node1" class="node">
<title>Node1</title>
<g id="a_node1"><a xlink:title="Copy the Mh list to the Mailbox.">
<polygon fill="#999999" stroke="#666666" points="117,-37 0,-37 0,-18 117,-18 117,-37"/>
<text text-anchor="middle" x="58.5" y="-25" font-family="Helvetica,sans-Serif" font-size="10.00">mh_move_to_mailbox</text>
</a>
</g>
</g>
<!-- Node2 -->
<g id="node2" class="node">
<title>Node2</title>
<g id="a_node2"><a xlink:href="core_2mailbox_8c.html#a2c6a73f0789f1985d07f296537493cf0" target="_top" xlink:title="Add an email&#39;s size to the total size of a Mailbox.">
<polygon fill="#fff0f0" stroke="red" points="251,-56 155,-56 155,-37 251,-37 251,-56"/>
<text text-anchor="middle" x="203" y="-44" font-family="Helvetica,sans-Serif" font-size="10.00">mailbox_size_add</text>
</a>
</g>
</g>
<!-- Node1&#45;&gt;Node2 -->
<g id="edge1" class="edge">
<title>Node1&#45;&gt;Node2</title>
<path fill="none" stroke="#63b8ff" d="M117.46,-35.23C125.94,-36.36 134.67,-37.52 143.17,-38.66"/>
<polygon fill="#63b8ff" stroke="#63b8ff" points="142.67,-42.12 153.05,-39.97 143.6,-35.18 142.67,-42.12"/>
</g>
<!-- Node4 -->
<g id="node3" class="node">
<title>Node4</title>
<g id="a_node3"><a xlink:href="mx_8c.html#a0572e1f7a00e528557923201a39c7de9" target="_top" xlink:title="Create storage for the emails.">
<polygon fill="#fff0f0" stroke="red" points="253,-19 153,-19 153,0 253,0 253,-19"/>
<text text-anchor="middle" x="203" y="-7" font-family="Helvetica,sans-Serif" font-size="10.00">mx_alloc_memory</text>
</a>
</g>
</g>
<!-- Node1&#45;&gt;Node4 -->
<g id="edge2" class="edge">
<title>Node1&#45;&gt;Node4</title>
<path fill="none" stroke="#63b8ff" d="M117.46,-20.18C125.33,-19.18 133.42,-18.16 141.34,-17.16"/>
<polygon fill="#63b8ff" stroke="#63b8ff" points="141.78,-20.64 151.26,-15.91 140.9,-13.69 141.78,-20.64"/>
</g>
</g>
</svg>
