<?xml version="1.0" encoding="UTF-8" standalone="no"?>
<!DOCTYPE svg PUBLIC "-//W3C//DTD SVG 1.1//EN"
 "http://www.w3.org/Graphics/SVG/1.1/DTD/svg11.dtd">
<!-- Generated by graphviz version 12.2.1 (20241206.2353)
 -->
<!-- Title: msgcont_pop_window Pages: 1 -->
<svg width="271pt" height="270pt"
 viewBox="0.00 0.00 271.00 270.25" xmlns="http://www.w3.org/2000/svg" xmlns:xlink="http://www.w3.org/1999/xlink">
<g id="graph0" class="graph" transform="scale(1 1) rotate(0) translate(4 266.25)">
<title>msgcont_pop_window</title>
<!-- Node1 -->
<g id="Node000001" class="node">
<title>Node1</title>
<g id="a_Node000001"><a xlink:title="Remove the last Window from the Container Stack.">
<polygon fill="#999999" stroke="#666666" points="263,-142.25 145,-142.25 145,-120 263,-120 263,-142.25"/>
<text text-anchor="middle" x="204" y="-128.75" font-family="Helvetica,sans-Serif" font-size="10.00">msgcont_pop_window</text>
</a>
</g>
</g>
<!-- Node2 -->
<g id="Node000002" class="node">
<title>Node2</title>
<g id="a_Node000002"><a xlink:href="group__gui__mw.html#ga2a5efb59f6952f4516be81b58a32d5a9" target="_top" xlink:title="Change the flag on a Message &#45;.">
<polygon fill="#fff0f0" stroke="red" points="100.75,-262.25 8.25,-262.25 8.25,-240 100.75,-240 100.75,-262.25"/>
<text text-anchor="middle" x="54.5" y="-248.75" font-family="Helvetica,sans-Serif" font-size="10.00">mw_change_flag</text>
</a>
</g>
</g>
<!-- Node1&#45;&gt;Node2 -->
<g id="edge1_Node000001_Node000002" class="edge">
<title>Node1&#45;&gt;Node2</title>
<g id="a_edge1_Node000001_Node000002"><a xlink:title=" ">
<path fill="none" stroke="#63b8ff" d="M188.15,-151.89C171.24,-174.2 141.69,-209.38 109,-231.12 104.13,-234.37 98.66,-237.17 93.13,-239.58"/>
<polygon fill="#63b8ff" stroke="#63b8ff" points="190.96,-153.97 194.09,-143.85 185.33,-149.81 190.96,-153.97"/>
</a>
</g>
</g>
<!-- Node4 -->
<g id="Node000004" class="node">
<title>Node4</title>
<g id="a_Node000004"><a xlink:href="group__gui__mw.html#ga7074d808675e21370b1cef98d55e75ca" target="_top" xlink:title="Ask the user to select a file &#45;.">
<polygon fill="#fff0f0" stroke="red" points="103.38,-222.25 5.62,-222.25 5.62,-200 103.38,-200 103.38,-222.25"/>
<text text-anchor="middle" x="54.5" y="-208.75" font-family="Helvetica,sans-Serif" font-size="10.00">mw_enter_fname</text>
</a>
</g>
</g>
<!-- Node1&#45;&gt;Node4 -->
<g id="edge2_Node000001_Node000004" class="edge">
<title>Node1&#45;&gt;Node4</title>
<g id="a_edge2_Node000001_Node000004"><a xlink:title=" ">
<path fill="none" stroke="#63b8ff" d="M177.89,-149.22C159.43,-161.99 133.41,-178.94 109,-191.12 102.88,-194.18 96.17,-197.04 89.64,-199.59"/>
<polygon fill="#63b8ff" stroke="#63b8ff" points="179.89,-152.08 186.07,-143.47 175.87,-146.35 179.89,-152.08"/>
</a>
</g>
</g>
<!-- Node315 -->
<g id="Node000315" class="node">
<title>Node315</title>
<g id="a_Node000315"><a xlink:href="editor_2window_8c.html#a789f3f890532c550a6b94da99133a658" target="_top" xlink:title="Ask the user for a string and call a notify function on keypress.">
<polygon fill="#fff0f0" stroke="red" points="109,-182.25 0,-182.25 0,-160 109,-160 109,-182.25"/>
<text text-anchor="middle" x="54.5" y="-168.75" font-family="Helvetica,sans-Serif" font-size="10.00">mw_get_field_notify</text>
</a>
</g>
</g>
<!-- Node1&#45;&gt;Node315 -->
<g id="edge3_Node000001_Node000315" class="edge">
<title>Node1&#45;&gt;Node315</title>
<g id="a_edge3_Node000001_Node000315"><a xlink:title=" ">
<path fill="none" stroke="#63b8ff" d="M149.53,-145.62C132.69,-150.19 114.32,-155.17 98.32,-159.51"/>
<polygon fill="#63b8ff" stroke="#63b8ff" points="150.14,-149.09 158.88,-143.09 148.31,-142.33 150.14,-149.09"/>
</a>
</g>
</g>
<!-- Node791 -->
<g id="Node000791" class="node">
<title>Node791</title>
<g id="a_Node000791"><a xlink:href="group__gui__mw.html#gad530cebf7d9c54c55a609509acc56f70" target="_top" xlink:title="Offer the user a multiple choice question &#45;.">
<polygon fill="#fff0f0" stroke="red" points="101.5,-142.25 7.5,-142.25 7.5,-120 101.5,-120 101.5,-142.25"/>
<text text-anchor="middle" x="54.5" y="-128.75" font-family="Helvetica,sans-Serif" font-size="10.00">mw_multi_choice</text>
</a>
</g>
</g>
<!-- Node1&#45;&gt;Node791 -->
<g id="edge4_Node000001_Node000791" class="edge">
<title>Node1&#45;&gt;Node791</title>
<g id="a_edge4_Node000001_Node000791"><a xlink:title=" ">
<path fill="none" stroke="#63b8ff" d="M133.49,-131.12C122.66,-131.12 111.7,-131.12 101.56,-131.12"/>
<polygon fill="#63b8ff" stroke="#63b8ff" points="133.19,-134.63 143.19,-131.13 133.19,-127.63 133.19,-134.63"/>
</a>
</g>
</g>
<!-- Node796 -->
<g id="Node000796" class="node">
<title>Node796</title>
<g id="a_Node000796"><a xlink:href="group__gui__mw.html#ga24de819c1b6837b59e35cbfdd0d827cf" target="_top" xlink:title="Display the value of a key &#45;.">
<polygon fill="#fff0f0" stroke="red" points="94.38,-102.25 14.62,-102.25 14.62,-80 94.38,-80 94.38,-102.25"/>
<text text-anchor="middle" x="54.5" y="-88.75" font-family="Helvetica,sans-Serif" font-size="10.00">mw_what_key</text>
</a>
</g>
</g>
<!-- Node1&#45;&gt;Node796 -->
<g id="edge5_Node000001_Node000796" class="edge">
<title>Node1&#45;&gt;Node796</title>
<g id="a_edge5_Node000001_Node000796"><a xlink:title=" ">
<path fill="none" stroke="#63b8ff" d="M149.32,-116.57C131.19,-111.65 111.31,-106.26 94.54,-101.71"/>
<polygon fill="#63b8ff" stroke="#63b8ff" points="148.31,-119.92 158.88,-119.16 150.14,-113.16 148.31,-119.92"/>
</a>
</g>
</g>
<!-- Node798 -->
<g id="Node000798" class="node">
<title>Node798</title>
<g id="a_Node000798"><a xlink:href="group__gui__mw.html#gacb783a5ffbda61856cf32fa5f1ca637c" target="_top" xlink:title="Ask the user a Yes/No question offering help &#45;.">
<polygon fill="#fff0f0" stroke="red" points="92.12,-62.25 16.88,-62.25 16.88,-40 92.12,-40 92.12,-62.25"/>
<text text-anchor="middle" x="54.5" y="-48.75" font-family="Helvetica,sans-Serif" font-size="10.00">mw_yesorno</text>
</a>
</g>
</g>
<!-- Node1&#45;&gt;Node798 -->
<g id="edge6_Node000001_Node000798" class="edge">
<title>Node1&#45;&gt;Node798</title>
<g id="a_edge6_Node000001_Node000798"><a xlink:title=" ">
<path fill="none" stroke="#63b8ff" d="M177.89,-113.03C159.43,-100.26 133.41,-83.31 109,-71.12 102.88,-68.07 96.17,-65.21 89.64,-62.66"/>
<polygon fill="#63b8ff" stroke="#63b8ff" points="175.87,-115.9 186.07,-118.78 179.89,-110.17 175.87,-115.9"/>
</a>
</g>
</g>
<!-- Node834 -->
<g id="Node000834" class="node">
<title>Node834</title>
<g id="a_Node000834"><a xlink:href="progress_8c.html#ab4c7a63427cdcaae2b1147ff6f010af4" target="_top" xlink:title="Free a Progress Bar.">
<polygon fill="#fff0f0" stroke="red" points="94.75,-22.25 14.25,-22.25 14.25,0 94.75,0 94.75,-22.25"/>
<text text-anchor="middle" x="54.5" y="-8.75" font-family="Helvetica,sans-Serif" font-size="10.00">progress_free</text>
</a>
</g>
</g>
<!-- Node1&#45;&gt;Node834 -->
<g id="edge7_Node000001_Node000834" class="edge">
<title>Node1&#45;&gt;Node834</title>
<g id="a_edge7_Node000001_Node000834"><a xlink:title=" ">
<path fill="none" stroke="#63b8ff" d="M188.15,-110.36C171.24,-88.05 141.69,-52.87 109,-31.12 104.13,-27.88 98.66,-25.08 93.13,-22.67"/>
<polygon fill="#63b8ff" stroke="#63b8ff" points="185.33,-112.44 194.09,-118.4 190.96,-108.28 185.33,-112.44"/>
</a>
</g>
</g>
</g>
</svg>
