<?xml version="1.0" encoding="UTF-8" standalone="no"?>
<!DOCTYPE svg PUBLIC "-//W3C//DTD SVG 1.1//EN"
 "http://www.w3.org/Graphics/SVG/1.1/DTD/svg11.dtd">
<!-- Generated by graphviz version 7.1.0 (0)
 -->
<!-- Title: msgwin_set_rows Pages: 1 -->
<svg width="280pt" height="156pt"
 viewBox="0.00 0.00 280.00 156.00" xmlns="http://www.w3.org/2000/svg" xmlns:xlink="http://www.w3.org/1999/xlink">
<g id="graph0" class="graph" transform="scale(1 1) rotate(0) translate(4 152)">
<title>msgwin_set_rows</title>
<!-- Node1 -->
<g id="node1" class="node">
<title>Node1</title>
<g id="a_node1"><a xlink:title="Resize the Message Window.">
<polygon fill="#999999" stroke="#666666" points="272,-92 175,-92 175,-73 272,-73 272,-92"/>
<text text-anchor="middle" x="223.5" y="-80" font-family="Helvetica,sans-Serif" font-size="10.00">msgwin_set_rows</text>
</a>
</g>
</g>
<!-- Node2 -->
<g id="node2" class="node">
<title>Node2</title>
<g id="a_node2"><a xlink:href="msgwin_8c.html#a7afedab303914dc5d7b943d9b63feca4" target="_top" xlink:title="Add text to the Message Window.">
<polygon fill="#fff0f0" stroke="red" points="117.5,-148 21.5,-148 21.5,-129 117.5,-129 117.5,-148"/>
<text text-anchor="middle" x="69.5" y="-136" font-family="Helvetica,sans-Serif" font-size="10.00">msgwin_add_text</text>
</a>
</g>
</g>
<!-- Node1&#45;&gt;Node2 -->
<g id="edge1" class="edge">
<title>Node1&#45;&gt;Node2</title>
<path fill="none" stroke="#63b8ff" d="M193.13,-97.35C177.35,-104.95 157.41,-113.95 139,-120.5 130.66,-123.47 121.59,-126.19 112.87,-128.57"/>
<polygon fill="#63b8ff" stroke="#63b8ff" points="194.51,-100.57 201.96,-93.03 191.44,-94.28 194.51,-100.57"/>
</g>
<!-- Node775 -->
<g id="node3" class="node">
<title>Node775</title>
<g id="a_node3"><a xlink:href="msgwin_8c.html#aa8ac670a15b90c79e01e89448e0b0f5e" target="_top" xlink:title="Add some text to the Message Window.">
<polygon fill="#fff0f0" stroke="red" points="123,-111 16,-111 16,-92 123,-92 123,-111"/>
<text text-anchor="middle" x="69.5" y="-99" font-family="Helvetica,sans-Serif" font-size="10.00">msgwin_add_text_n</text>
</a>
</g>
</g>
<!-- Node1&#45;&gt;Node775 -->
<g id="edge2" class="edge">
<title>Node1&#45;&gt;Node775</title>
<path fill="none" stroke="#63b8ff" d="M163.43,-89.88C150.2,-91.54 136.25,-93.28 123.29,-94.9"/>
<polygon fill="#63b8ff" stroke="#63b8ff" points="163.83,-93.36 173.32,-88.65 162.96,-86.41 163.83,-93.36"/>
</g>
<!-- Node776 -->
<g id="node4" class="node">
<title>Node776</title>
<g id="a_node4"><a xlink:href="msgwin_8c.html#ac1dc426af34116e8de4ebfb20d0cb44f" target="_top" xlink:title="Set the text for the Message Window.">
<polygon fill="#fff0f0" stroke="red" points="116,-74 23,-74 23,-55 116,-55 116,-74"/>
<text text-anchor="middle" x="69.5" y="-62" font-family="Helvetica,sans-Serif" font-size="10.00">msgwin_set_text</text>
</a>
</g>
</g>
<!-- Node1&#45;&gt;Node776 -->
<g id="edge3" class="edge">
<title>Node1&#45;&gt;Node776</title>
<path fill="none" stroke="#63b8ff" d="M163.64,-75.53C147.99,-73.68 131.3,-71.7 116.45,-69.94"/>
<polygon fill="#63b8ff" stroke="#63b8ff" points="162.98,-78.98 173.32,-76.68 163.8,-72.02 162.98,-78.98"/>
</g>
<!-- Node794 -->
<g id="node5" class="node">
<title>Node794</title>
<g id="a_node5"><a xlink:href="group__observer__api.html#gafe15189fa3acff0a223f8de596c3d22e" target="_top" xlink:title="Notification that a Window has changed &#45; Implements observer_t &#45;.">
<polygon fill="#fff0f0" stroke="red" points="139,-19 0,-19 0,0 139,0 139,-19"/>
<text text-anchor="middle" x="69.5" y="-7" font-family="Helvetica,sans-Serif" font-size="10.00">msgwin_window_observer</text>
</a>
</g>
</g>
<!-- Node1&#45;&gt;Node794 -->
<g id="edge4" class="edge">
<title>Node1&#45;&gt;Node794</title>
<path fill="none" stroke="#63b8ff" d="M191.35,-67.54C161.37,-53.14 116.87,-31.77 91.06,-19.38"/>
<polygon fill="#63b8ff" stroke="#63b8ff" points="189.79,-70.67 200.32,-71.85 192.82,-64.36 189.79,-70.67"/>
</g>
<!-- Node794&#45;&gt;Node794 -->
<g id="edge5" class="edge">
<title>Node794&#45;&gt;Node794</title>
<path fill="none" stroke="#63b8ff" d="M97.11,-30.1C93.93,-34.13 84.73,-37 69.5,-37 42.43,-37 34.39,-27.94 45.39,-19.37"/>
<polygon fill="#63b8ff" stroke="#63b8ff" points="100.51,-29.23 94.08,-20.81 93.86,-31.4 100.51,-29.23"/>
</g>
</g>
</svg>
