<?xml version="1.0" encoding="UTF-8" standalone="no"?>
<!DOCTYPE svg PUBLIC "-//W3C//DTD SVG 1.1//EN"
 "http://www.w3.org/Graphics/SVG/1.1/DTD/svg11.dtd">
<!-- Generated by graphviz version 7.1.0 (0)
 -->
<!-- Title: mutt_thread.h Pages: 1 -->
<svg width="1970pt" height="82pt"
 viewBox="0.00 0.00 1970.00 82.00" xmlns="http://www.w3.org/2000/svg" xmlns:xlink="http://www.w3.org/1999/xlink">
<g id="graph0" class="graph" transform="scale(1 1) rotate(0) translate(4 78)">
<title>mutt_thread.h</title>
<!-- Node1 -->
<g id="node1" class="node">
<title>Node1</title>
<g id="a_node1"><a xlink:title="Create/manipulate threading in emails.">
<polygon fill="#999999" stroke="#666666" points="1086.5,-74 1003.5,-74 1003.5,-55 1086.5,-55 1086.5,-74"/>
<text text-anchor="middle" x="1045" y="-62" font-family="Helvetica,sans-Serif" font-size="10.00">mutt_thread.h</text>
</a>
</g>
</g>
<!-- Node2 -->
<g id="node2" class="node">
<title>Node2</title>
<g id="a_node2"><a xlink:href="recvattach_8c.html" target="_top" xlink:title="Attachment code.">
<polygon fill="white" stroke="#666666" points="104,-19 0,-19 0,0 104,0 104,-19"/>
<text text-anchor="middle" x="52" y="-7" font-family="Helvetica,sans-Serif" font-size="10.00">attach/recvattach.c</text>
</a>
</g>
</g>
<!-- Node1&#45;&gt;Node2 -->
<g id="edge1" class="edge">
<title>Node1&#45;&gt;Node2</title>
<path fill="none" stroke="#63b8ff" d="M991.69,-62.65C848.96,-60 446.37,-50.12 113,-19 110.13,-18.73 107.18,-18.43 104.21,-18.09"/>
<polygon fill="#63b8ff" stroke="#63b8ff" points="991.53,-66.14 1001.59,-62.83 991.65,-59.15 991.53,-66.14"/>
</g>
<!-- Node3 -->
<g id="node3" class="node">
<title>Node3</title>
<g id="a_node3"><a xlink:href="format_8c.html" target="_top" xlink:title="Simple string formatting.">
<polygon fill="white" stroke="#666666" points="222,-19 122,-19 122,0 222,0 222,-19"/>
<text text-anchor="middle" x="172" y="-7" font-family="Helvetica,sans-Serif" font-size="10.00">expando/format.c</text>
</a>
</g>
</g>
<!-- Node1&#45;&gt;Node3 -->
<g id="edge2" class="edge">
<title>Node1&#45;&gt;Node3</title>
<path fill="none" stroke="#63b8ff" d="M992.24,-62.23C862.45,-58.76 517.41,-47.4 231,-19 228.22,-18.72 225.37,-18.41 222.49,-18.07"/>
<polygon fill="#63b8ff" stroke="#63b8ff" points="991.79,-65.72 1001.88,-62.49 991.97,-58.72 991.79,-65.72"/>
</g>
<!-- Node4 -->
<g id="node4" class="node">
<title>Node4</title>
<g id="a_node4"><a xlink:href="expando_2helpers_8c.html" target="_top" xlink:title="Shared code.">
<polygon fill="white" stroke="#666666" points="343.5,-19 240.5,-19 240.5,0 343.5,0 343.5,-19"/>
<text text-anchor="middle" x="292" y="-7" font-family="Helvetica,sans-Serif" font-size="10.00">expando/helpers.c</text>
</a>
</g>
</g>
<!-- Node1&#45;&gt;Node4 -->
<g id="edge3" class="edge">
<title>Node1&#45;&gt;Node4</title>
<path fill="none" stroke="#63b8ff" d="M991.82,-61.43C875.66,-56.61 590.66,-43.17 353,-19 350.02,-18.7 346.96,-18.36 343.88,-18"/>
<polygon fill="#63b8ff" stroke="#63b8ff" points="991.53,-64.92 1001.67,-61.83 991.82,-57.92 991.53,-64.92"/>
</g>
<!-- Node5 -->
<g id="node5" class="node">
<title>Node5</title>
<g id="a_node5"><a xlink:href="node__expando_8c.html" target="_top" xlink:title="Expando Node for an Expando.">
<polygon fill="white" stroke="#666666" points="498,-19 362,-19 362,0 498,0 498,-19"/>
<text text-anchor="middle" x="430" y="-7" font-family="Helvetica,sans-Serif" font-size="10.00">expando/node_expando.c</text>
</a>
</g>
</g>
<!-- Node1&#45;&gt;Node5 -->
<g id="edge4" class="edge">
<title>Node1&#45;&gt;Node5</title>
<path fill="none" stroke="#63b8ff" d="M991.91,-59.59C895.33,-52.38 684.5,-36.13 507,-19 504.19,-18.73 501.32,-18.44 498.42,-18.15"/>
<polygon fill="#63b8ff" stroke="#63b8ff" points="991.37,-63.06 1001.6,-60.32 991.89,-56.08 991.37,-63.06"/>
</g>
<!-- Node6 -->
<g id="node6" class="node">
<title>Node6</title>
<g id="a_node6"><a xlink:href="external_8c.html" target="_top" xlink:title="Manage where the email is piped to external commands.">
<polygon fill="white" stroke="#666666" points="578,-19 516,-19 516,0 578,0 578,-19"/>
<text text-anchor="middle" x="547" y="-7" font-family="Helvetica,sans-Serif" font-size="10.00">external.c</text>
</a>
</g>
</g>
<!-- Node1&#45;&gt;Node6 -->
<g id="edge5" class="edge">
<title>Node1&#45;&gt;Node6</title>
<path fill="none" stroke="#63b8ff" d="M991.89,-60.29C906.3,-54.67 732.68,-41.48 587,-19 584.19,-18.57 581.29,-18.06 578.38,-17.52"/>
<polygon fill="#63b8ff" stroke="#63b8ff" points="991.41,-63.76 1001.61,-60.92 991.86,-56.78 991.41,-63.76"/>
</g>
<!-- Node7 -->
<g id="node7" class="node">
<title>Node7</title>
<g id="a_node7"><a xlink:href="flags_8c.html" target="_top" xlink:title="Manipulate the flags in an email header.">
<polygon fill="white" stroke="#666666" points="642,-19 596,-19 596,0 642,0 642,-19"/>
<text text-anchor="middle" x="619" y="-7" font-family="Helvetica,sans-Serif" font-size="10.00">flags.c</text>
</a>
</g>
</g>
<!-- Node1&#45;&gt;Node7 -->
<g id="edge6" class="edge">
<title>Node1&#45;&gt;Node7</title>
<path fill="none" stroke="#63b8ff" d="M991.84,-59.99C915.8,-54.41 771.81,-41.74 651,-19 648.18,-18.47 645.23,-17.82 642.33,-17.12"/>
<polygon fill="#63b8ff" stroke="#63b8ff" points="991.27,-63.46 1001.49,-60.69 991.77,-56.48 991.27,-63.46"/>
</g>
<!-- Node8 -->
<g id="node8" class="node">
<title>Node8</title>
<g id="a_node8"><a xlink:href="curs__lib_8c.html" target="_top" xlink:title="GUI miscellaneous curses (window drawing) routines.">
<polygon fill="white" stroke="#666666" points="737.5,-19 660.5,-19 660.5,0 737.5,0 737.5,-19"/>
<text text-anchor="middle" x="699" y="-7" font-family="Helvetica,sans-Serif" font-size="10.00">gui/curs_lib.c</text>
</a>
</g>
</g>
<!-- Node1&#45;&gt;Node8 -->
<g id="edge7" class="edge">
<title>Node1&#45;&gt;Node8</title>
<path fill="none" stroke="#63b8ff" d="M992.3,-56.16C932.5,-47.72 832.11,-33.19 746,-19 743.38,-18.57 740.68,-18.11 737.97,-17.64"/>
<polygon fill="#63b8ff" stroke="#63b8ff" points="991.45,-59.58 1001.84,-57.51 992.42,-52.65 991.45,-59.58"/>
</g>
<!-- Node9 -->
<g id="node9" class="node">
<title>Node9</title>
<g id="a_node9"><a xlink:href="hdrline_8c.html" target="_top" xlink:title="String processing routines to generate the mail index.">
<polygon fill="white" stroke="#666666" points="812.5,-19 755.5,-19 755.5,0 812.5,0 812.5,-19"/>
<text text-anchor="middle" x="784" y="-7" font-family="Helvetica,sans-Serif" font-size="10.00">hdrline.c</text>
</a>
</g>
</g>
<!-- Node1&#45;&gt;Node9 -->
<g id="edge8" class="edge">
<title>Node1&#45;&gt;Node9</title>
<path fill="none" stroke="#63b8ff" d="M992,-53.28C946.77,-44.48 880.04,-31.28 822,-19 818.96,-18.36 815.78,-17.67 812.62,-16.98"/>
<polygon fill="#63b8ff" stroke="#63b8ff" points="991.05,-56.66 1001.53,-55.13 992.38,-49.79 991.05,-56.66"/>
</g>
<!-- Node10 -->
<g id="node10" class="node">
<title>Node10</title>
<g id="a_node10"><a xlink:href="dlg__index_8c.html" target="_top" xlink:title="Index Dialog.">
<polygon fill="white" stroke="#666666" points="927,-19 831,-19 831,0 927,0 927,-19"/>
<text text-anchor="middle" x="879" y="-7" font-family="Helvetica,sans-Serif" font-size="10.00">index/dlg_index.c</text>
</a>
</g>
</g>
<!-- Node1&#45;&gt;Node10 -->
<g id="edge9" class="edge">
<title>Node1&#45;&gt;Node10</title>
<path fill="none" stroke="#63b8ff" d="M1006.19,-51.11C975.8,-41.41 934.24,-28.14 907.02,-19.45"/>
<polygon fill="#63b8ff" stroke="#63b8ff" points="1004.81,-54.34 1015.4,-54.05 1006.94,-47.67 1004.81,-54.34"/>
</g>
<!-- Node11 -->
<g id="node11" class="node">
<title>Node11</title>
<g id="a_node11"><a xlink:href="index_2functions_8c.html" target="_top" xlink:title="Index functions.">
<polygon fill="white" stroke="#666666" points="1040.5,-19 945.5,-19 945.5,0 1040.5,0 1040.5,-19"/>
<text text-anchor="middle" x="993" y="-7" font-family="Helvetica,sans-Serif" font-size="10.00">index/functions.c</text>
</a>
</g>
</g>
<!-- Node1&#45;&gt;Node11 -->
<g id="edge10" class="edge">
<title>Node1&#45;&gt;Node11</title>
<path fill="none" stroke="#63b8ff" d="M1028.59,-46.78C1019.71,-37.72 1009.09,-26.9 1001.77,-19.44"/>
<polygon fill="#63b8ff" stroke="#63b8ff" points="1025.85,-48.98 1035.35,-53.67 1030.85,-44.08 1025.85,-48.98"/>
</g>
<!-- Node12 -->
<g id="node12" class="node">
<title>Node12</title>
<g id="a_node12"><a xlink:href="index_8c.html" target="_top" xlink:title="Index Window.">
<polygon fill="white" stroke="#666666" points="1135.5,-19 1058.5,-19 1058.5,0 1135.5,0 1135.5,-19"/>
<text text-anchor="middle" x="1097" y="-7" font-family="Helvetica,sans-Serif" font-size="10.00">index/index.c</text>
</a>
</g>
</g>
<!-- Node1&#45;&gt;Node12 -->
<g id="edge11" class="edge">
<title>Node1&#45;&gt;Node12</title>
<path fill="none" stroke="#63b8ff" d="M1061.41,-46.78C1070.29,-37.72 1080.91,-26.9 1088.23,-19.44"/>
<polygon fill="#63b8ff" stroke="#63b8ff" points="1059.15,-44.08 1054.65,-53.67 1064.15,-48.98 1059.15,-44.08"/>
</g>
<!-- Node13 -->
<g id="node13" class="node">
<title>Node13</title>
<g id="a_node13"><a xlink:href="draw_8c.html" target="_top" xlink:title="Paint the Menu.">
<polygon fill="white" stroke="#666666" points="1230.5,-19 1153.5,-19 1153.5,0 1230.5,0 1230.5,-19"/>
<text text-anchor="middle" x="1192" y="-7" font-family="Helvetica,sans-Serif" font-size="10.00">menu/draw.c</text>
</a>
</g>
</g>
<!-- Node1&#45;&gt;Node13 -->
<g id="edge12" class="edge">
<title>Node1&#45;&gt;Node13</title>
<path fill="none" stroke="#63b8ff" d="M1080.47,-50.71C1107.37,-41.01 1143.66,-27.93 1167.43,-19.36"/>
<polygon fill="#63b8ff" stroke="#63b8ff" points="1079.58,-47.31 1071.36,-54 1081.95,-53.9 1079.58,-47.31"/>
</g>
<!-- Node14 -->
<g id="node14" class="node">
<title>Node14</title>
<g id="a_node14"><a xlink:href="mutt__config_8c.html" target="_top" xlink:title="Definitions of config variables.">
<polygon fill="white" stroke="#666666" points="1329,-19 1249,-19 1249,0 1329,0 1329,-19"/>
<text text-anchor="middle" x="1289" y="-7" font-family="Helvetica,sans-Serif" font-size="10.00">mutt_config.c</text>
</a>
</g>
</g>
<!-- Node1&#45;&gt;Node14 -->
<g id="edge13" class="edge">
<title>Node1&#45;&gt;Node14</title>
<path fill="none" stroke="#63b8ff" d="M1097.47,-52.1C1142.77,-42.26 1207.26,-28.25 1248.62,-19.27"/>
<polygon fill="#63b8ff" stroke="#63b8ff" points="1096.9,-48.65 1087.87,-54.19 1098.39,-55.49 1096.9,-48.65"/>
</g>
<!-- Node15 -->
<g id="node15" class="node">
<title>Node15</title>
<g id="a_node15"><a xlink:href="mutt__thread_8c.html" target="_top" xlink:title="Create/manipulate threading in emails.">
<polygon fill="white" stroke="#666666" points="1429,-19 1347,-19 1347,0 1429,0 1429,-19"/>
<text text-anchor="middle" x="1388" y="-7" font-family="Helvetica,sans-Serif" font-size="10.00">mutt_thread.c</text>
</a>
</g>
</g>
<!-- Node1&#45;&gt;Node15 -->
<g id="edge14" class="edge">
<title>Node1&#45;&gt;Node15</title>
<path fill="none" stroke="#63b8ff" d="M1097.98,-55.74C1156.69,-47.08 1254.18,-32.49 1338,-19 1340.78,-18.55 1343.65,-18.08 1346.54,-17.61"/>
<polygon fill="#63b8ff" stroke="#63b8ff" points="1097.64,-52.25 1088.26,-57.17 1098.66,-59.18 1097.64,-52.25"/>
</g>
<!-- Node16 -->
<g id="node16" class="node">
<title>Node16</title>
<g id="a_node16"><a xlink:href="mview_8c.html" target="_top" xlink:title="View of a Mailbox.">
<polygon fill="white" stroke="#666666" points="1500.5,-19 1447.5,-19 1447.5,0 1500.5,0 1500.5,-19"/>
<text text-anchor="middle" x="1474" y="-7" font-family="Helvetica,sans-Serif" font-size="10.00">mview.c</text>
</a>
</g>
</g>
<!-- Node1&#45;&gt;Node16 -->
<g id="edge15" class="edge">
<title>Node1&#45;&gt;Node16</title>
<path fill="none" stroke="#63b8ff" d="M1097.94,-59.52C1173.69,-53.37 1317.19,-40.02 1438,-19 1441.04,-18.47 1444.2,-17.84 1447.34,-17.17"/>
<polygon fill="#63b8ff" stroke="#63b8ff" points="1098.02,-56 1088.33,-60.29 1098.58,-62.98 1098.02,-56"/>
</g>
<!-- Node17 -->
<g id="node17" class="node">
<title>Node17</title>
<g id="a_node17"><a xlink:href="notmuch_8c.html" target="_top" xlink:title="Notmuch virtual mailbox type.">
<polygon fill="white" stroke="#666666" points="1629,-19 1519,-19 1519,0 1629,0 1629,-19"/>
<text text-anchor="middle" x="1574" y="-7" font-family="Helvetica,sans-Serif" font-size="10.00">notmuch/notmuch.c</text>
</a>
</g>
</g>
<!-- Node1&#45;&gt;Node17 -->
<g id="edge16" class="edge">
<title>Node1&#45;&gt;Node17</title>
<path fill="none" stroke="#63b8ff" d="M1098.07,-59.06C1184.49,-51.68 1360.94,-36.03 1510,-19 1512.78,-18.68 1515.63,-18.35 1518.51,-18"/>
<polygon fill="#63b8ff" stroke="#63b8ff" points="1097.91,-55.56 1088.24,-59.89 1098.5,-62.53 1097.91,-55.56"/>
</g>
<!-- Node18 -->
<g id="node18" class="node">
<title>Node18</title>
<g id="a_node18"><a xlink:href="postpone_8c.html" target="_top" xlink:title="Postponed Email Selection Dialog.">
<polygon fill="white" stroke="#666666" points="1763,-19 1647,-19 1647,0 1763,0 1763,-19"/>
<text text-anchor="middle" x="1705" y="-7" font-family="Helvetica,sans-Serif" font-size="10.00">postpone/postpone.c</text>
</a>
</g>
</g>
<!-- Node1&#45;&gt;Node18 -->
<g id="edge17" class="edge">
<title>Node1&#45;&gt;Node18</title>
<path fill="none" stroke="#63b8ff" d="M1098.17,-60.43C1202.05,-54.22 1439.2,-39.06 1638,-19 1640.8,-18.72 1643.66,-18.41 1646.55,-18.09"/>
<polygon fill="#63b8ff" stroke="#63b8ff" points="1098.05,-56.93 1088.27,-61.02 1098.46,-63.92 1098.05,-56.93"/>
</g>
<!-- Node19 -->
<g id="node19" class="node">
<title>Node19</title>
<g id="a_node19"><a xlink:href="score_8c.html" target="_top" xlink:title="Routines for adding user scores to emails.">
<polygon fill="white" stroke="#666666" points="1830.5,-19 1781.5,-19 1781.5,0 1830.5,0 1830.5,-19"/>
<text text-anchor="middle" x="1806" y="-7" font-family="Helvetica,sans-Serif" font-size="10.00">score.c</text>
</a>
</g>
</g>
<!-- Node1&#45;&gt;Node19 -->
<g id="edge18" class="edge">
<title>Node1&#45;&gt;Node19</title>
<path fill="none" stroke="#63b8ff" d="M1098.11,-63.58C1218.66,-63.03 1521.94,-57.57 1772,-19 1775.01,-18.54 1778.14,-17.93 1781.22,-17.25"/>
<polygon fill="#63b8ff" stroke="#63b8ff" points="1098.18,-60.08 1088.19,-63.61 1098.2,-67.08 1098.18,-60.08"/>
</g>
<!-- Node20 -->
<g id="node20" class="node">
<title>Node20</title>
<g id="a_node20"><a xlink:href="sort_8c.html" target="_top" xlink:title="Assorted sorting methods.">
<polygon fill="white" stroke="#666666" points="1891.5,-19 1848.5,-19 1848.5,0 1891.5,0 1891.5,-19"/>
<text text-anchor="middle" x="1870" y="-7" font-family="Helvetica,sans-Serif" font-size="10.00">sort.c</text>
</a>
</g>
</g>
<!-- Node1&#45;&gt;Node20 -->
<g id="edge19" class="edge">
<title>Node1&#45;&gt;Node20</title>
<path fill="none" stroke="#63b8ff" d="M1098.32,-62.05C1252.44,-57.6 1696.66,-43.02 1840,-19 1842.67,-18.55 1845.44,-17.96 1848.17,-17.29"/>
<polygon fill="#63b8ff" stroke="#63b8ff" points="1098.28,-58.55 1088.38,-62.33 1098.48,-65.54 1098.28,-58.55"/>
</g>
<!-- Node21 -->
<g id="node21" class="node">
<title>Node21</title>
<g id="a_node21"><a xlink:href="status_8c.html" target="_top" xlink:title="GUI display a user&#45;configurable status line.">
<polygon fill="white" stroke="#666666" points="1962,-19 1910,-19 1910,0 1962,0 1962,-19"/>
<text text-anchor="middle" x="1936" y="-7" font-family="Helvetica,sans-Serif" font-size="10.00">status.c</text>
</a>
</g>
</g>
<!-- Node1&#45;&gt;Node21 -->
<g id="edge20" class="edge">
<title>Node1&#45;&gt;Node21</title>
<path fill="none" stroke="#63b8ff" d="M1097.87,-64.16C1232.6,-65.11 1599.46,-63.06 1901,-19 1903.85,-18.58 1906.8,-18.04 1909.73,-17.44"/>
<polygon fill="#63b8ff" stroke="#63b8ff" points="1098.23,-60.66 1088.21,-64.08 1098.18,-67.66 1098.23,-60.66"/>
</g>
</g>
</svg>
