<?xml version="1.0" encoding="UTF-8" standalone="no"?>
<!DOCTYPE svg PUBLIC "-//W3C//DTD SVG 1.1//EN"
 "http://www.w3.org/Graphics/SVG/1.1/DTD/svg11.dtd">
<!-- Generated by graphviz version 2.40.1 (20161225.0304)
 -->
<!-- Title: mutt_attach.c Pages: 1 -->
<svg width="2037pt" height="196pt"
 viewBox="0.00 0.00 2037.00 196.00" xmlns="http://www.w3.org/2000/svg" xmlns:xlink="http://www.w3.org/1999/xlink">
<g id="graph0" class="graph" transform="scale(1 1) rotate(0) translate(4 192)">
<title>mutt_attach.c</title>
<polygon fill="#ffffff" stroke="transparent" points="-4,4 -4,-192 2033,-192 2033,4 -4,4"/>
<!-- Node0 -->
<g id="node1" class="node">
<title>Node0</title>
<polygon fill="#bfbfbf" stroke="#000000" points="1056,-168.5 1056,-187.5 1140,-187.5 1140,-168.5 1056,-168.5"/>
<text text-anchor="middle" x="1098" y="-175.5" font-family="Helvetica,sans-Serif" font-size="10.00" fill="#000000">mutt_attach.c</text>
</g>
<!-- Node1 -->
<g id="node2" class="node">
<title>Node1</title>
<polygon fill="#ffffff" stroke="#bfbfbf" points="591.5,-.5 591.5,-19.5 646.5,-19.5 646.5,-.5 591.5,-.5"/>
<text text-anchor="middle" x="619" y="-7.5" font-family="Helvetica,sans-Serif" font-size="10.00" fill="#000000">config.h</text>
</g>
<!-- Node0&#45;&gt;Node1 -->
<g id="edge1" class="edge">
<title>Node0&#45;&gt;Node1</title>
<path fill="none" stroke="#191970" d="M1055.8098,-175.3365C958.0721,-168.867 722.1543,-151.4217 692,-132 654.6287,-107.9299 633.7105,-57.3482 624.5912,-29.4686"/>
<polygon fill="#191970" stroke="#191970" points="627.8644,-28.2055 621.5724,-19.6813 621.1753,-30.2687 627.8644,-28.2055"/>
</g>
<!-- Node2 -->
<g id="node3" class="node">
<title>Node2</title>
<polygon fill="#ffffff" stroke="#bfbfbf" points="1527.5,-112.5 1527.5,-131.5 1578.5,-131.5 1578.5,-112.5 1527.5,-112.5"/>
<text text-anchor="middle" x="1553" y="-119.5" font-family="Helvetica,sans-Serif" font-size="10.00" fill="#000000">errno.h</text>
</g>
<!-- Node0&#45;&gt;Node2 -->
<g id="edge2" class="edge">
<title>Node0&#45;&gt;Node2</title>
<path fill="none" stroke="#191970" d="M1140.0914,-175.2158C1215.3586,-169.8199 1377.7945,-156.2801 1513,-132 1514.4531,-131.739 1515.9317,-131.4552 1517.4223,-131.1539"/>
<polygon fill="#191970" stroke="#191970" points="1518.2828,-134.5483 1527.2894,-128.9688 1516.7692,-127.7138 1518.2828,-134.5483"/>
</g>
<!-- Node3 -->
<g id="node4" class="node">
<title>Node3</title>
<polygon fill="#ffffff" stroke="#bfbfbf" points="1596.5,-112.5 1596.5,-131.5 1643.5,-131.5 1643.5,-112.5 1596.5,-112.5"/>
<text text-anchor="middle" x="1620" y="-119.5" font-family="Helvetica,sans-Serif" font-size="10.00" fill="#000000">fcntl.h</text>
</g>
<!-- Node0&#45;&gt;Node3 -->
<g id="edge3" class="edge">
<title>Node0&#45;&gt;Node3</title>
<path fill="none" stroke="#191970" d="M1140.0526,-177.009C1223.7134,-174.403 1416.8974,-165.2157 1586.5266,-131.952"/>
<polygon fill="#191970" stroke="#191970" points="1587.2555,-135.3756 1596.3779,-129.9874 1585.8864,-128.5108 1587.2555,-135.3756"/>
</g>
<!-- Node4 -->
<g id="node5" class="node">
<title>Node4</title>
<polygon fill="#ffffff" stroke="#bfbfbf" points="914,-.5 914,-19.5 976,-19.5 976,-.5 914,-.5"/>
<text text-anchor="middle" x="945" y="-7.5" font-family="Helvetica,sans-Serif" font-size="10.00" fill="#000000">stdbool.h</text>
</g>
<!-- Node0&#45;&gt;Node4 -->
<g id="edge4" class="edge">
<title>Node0&#45;&gt;Node4</title>
<path fill="none" stroke="#191970" d="M1121.2151,-168.4205C1166.2679,-148.5178 1257.9351,-100.8077 1220,-56 1205.0756,-38.3717 1059.5439,-21.4598 986.4519,-13.9949"/>
<polygon fill="#191970" stroke="#191970" points="986.5183,-10.4839 976.2177,-12.9631 985.8161,-17.4486 986.5183,-10.4839"/>
</g>
<!-- Node5 -->
<g id="node6" class="node">
<title>Node5</title>
<polygon fill="#ffffff" stroke="#bfbfbf" points="376,-.5 376,-19.5 426,-19.5 426,-.5 376,-.5"/>
<text text-anchor="middle" x="401" y="-7.5" font-family="Helvetica,sans-Serif" font-size="10.00" fill="#000000">stdio.h</text>
</g>
<!-- Node0&#45;&gt;Node5 -->
<g id="edge5" class="edge">
<title>Node0&#45;&gt;Node5</title>
<path fill="none" stroke="#191970" d="M1055.8037,-177.2491C886.5106,-174.0518 261.6625,-160.4165 178,-132 136.5593,-117.9244 117.3245,-114.7604 97,-76 92.8721,-68.1277 91.2038,-62.7392 97,-56 114.3694,-35.8046 289.4783,-19.136 365.7774,-12.7728"/>
<polygon fill="#191970" stroke="#191970" points="366.1814,-16.2515 375.861,-11.944 365.6079,-9.275 366.1814,-16.2515"/>
</g>
<!-- Node6 -->
<g id="node7" class="node">
<title>Node6</title>
<polygon fill="#ffffff" stroke="#bfbfbf" points="1661.5,-112.5 1661.5,-131.5 1714.5,-131.5 1714.5,-112.5 1661.5,-112.5"/>
<text text-anchor="middle" x="1688" y="-119.5" font-family="Helvetica,sans-Serif" font-size="10.00" fill="#000000">string.h</text>
</g>
<!-- Node0&#45;&gt;Node6 -->
<g id="edge6" class="edge">
<title>Node0&#45;&gt;Node6</title>
<path fill="none" stroke="#191970" d="M1140.1405,-177.3111C1231.7993,-175.2125 1456.112,-166.8247 1651.504,-131.976"/>
<polygon fill="#191970" stroke="#191970" points="1652.1581,-135.4146 1661.3742,-130.1883 1650.9105,-128.5266 1652.1581,-135.4146"/>
</g>
<!-- Node7 -->
<g id="node8" class="node">
<title>Node7</title>
<polygon fill="#ffffff" stroke="#bfbfbf" points="1733,-112.5 1733,-131.5 1797,-131.5 1797,-112.5 1733,-112.5"/>
<text text-anchor="middle" x="1765" y="-119.5" font-family="Helvetica,sans-Serif" font-size="10.00" fill="#000000">sys/stat.h</text>
</g>
<!-- Node0&#45;&gt;Node7 -->
<g id="edge7" class="edge">
<title>Node0&#45;&gt;Node7</title>
<path fill="none" stroke="#191970" d="M1140.0326,-177.3131C1239.7167,-175.171 1498.2949,-166.6049 1722.88,-131.9333"/>
<polygon fill="#191970" stroke="#191970" points="1723.5344,-135.3736 1732.873,-130.3696 1722.4521,-128.4577 1723.5344,-135.3736"/>
</g>
<!-- Node8 -->
<g id="node9" class="node">
<title>Node8</title>
<polygon fill="#ffffff" stroke="#bfbfbf" points="1815,-112.5 1815,-131.5 1881,-131.5 1881,-112.5 1815,-112.5"/>
<text text-anchor="middle" x="1848" y="-119.5" font-family="Helvetica,sans-Serif" font-size="10.00" fill="#000000">sys/wait.h</text>
</g>
<!-- Node0&#45;&gt;Node8 -->
<g id="edge8" class="edge">
<title>Node0&#45;&gt;Node8</title>
<path fill="none" stroke="#191970" d="M1140.2353,-176.1942C1269.1948,-170.5361 1657.4898,-152.3925 1804.4703,-131.9578"/>
<polygon fill="#191970" stroke="#191970" points="1805.2357,-135.3834 1814.629,-130.4826 1804.2298,-128.4561 1805.2357,-135.3834"/>
</g>
<!-- Node9 -->
<g id="node10" class="node">
<title>Node9</title>
<polygon fill="#ffffff" stroke="#bfbfbf" points="1899,-112.5 1899,-131.5 1955,-131.5 1955,-112.5 1899,-112.5"/>
<text text-anchor="middle" x="1927" y="-119.5" font-family="Helvetica,sans-Serif" font-size="10.00" fill="#000000">unistd.h</text>
</g>
<!-- Node0&#45;&gt;Node9 -->
<g id="edge9" class="edge">
<title>Node0&#45;&gt;Node9</title>
<path fill="none" stroke="#191970" d="M1140.1962,-176.6966C1279.5053,-172.2173 1724.7353,-156.4538 1888.9118,-131.8094"/>
<polygon fill="#191970" stroke="#191970" points="1889.5126,-135.258 1898.849,-130.2498 1888.4272,-128.3427 1889.5126,-135.258"/>
</g>
<!-- Node10 -->
<g id="node11" class="node">
<title>Node10</title>
<g id="a_node11"><a xlink:href="mutt_2lib_8h.html" target="_top" xlink:title="Convenience wrapper for the library headers. ">
<polygon fill="#ffffff" stroke="#ff0000" points="903,-56.5 903,-75.5 967,-75.5 967,-56.5 903,-56.5"/>
<text text-anchor="middle" x="935" y="-63.5" font-family="Helvetica,sans-Serif" font-size="10.00" fill="#000000">mutt/lib.h</text>
</a>
</g>
</g>
<!-- Node0&#45;&gt;Node10 -->
<g id="edge10" class="edge">
<title>Node0&#45;&gt;Node10</title>
<path fill="none" stroke="#191970" d="M1084.1027,-168.4509C1055.8336,-149.0268 991.4247,-104.7703 957.2517,-81.2895"/>
<polygon fill="#191970" stroke="#191970" points="959.0861,-78.3034 948.8621,-75.5249 955.1219,-84.0727 959.0861,-78.3034"/>
</g>
<!-- Node48 -->
<g id="node12" class="node">
<title>Node48</title>
<g id="a_node12"><a xlink:href="config_2lib_8h.html" target="_top" xlink:title="Convenience wrapper for the config headers. ">
<polygon fill="#ffffff" stroke="#ff0000" points="1532,-.5 1532,-19.5 1602,-19.5 1602,-.5 1532,-.5"/>
<text text-anchor="middle" x="1567" y="-7.5" font-family="Helvetica,sans-Serif" font-size="10.00" fill="#000000">config/lib.h</text>
</a>
</g>
</g>
<!-- Node0&#45;&gt;Node48 -->
<g id="edge11" class="edge">
<title>Node0&#45;&gt;Node48</title>
<path fill="none" stroke="#191970" d="M1140.2607,-176.1732C1225.0198,-171.9615 1412.5693,-159.7273 1470,-132 1514.4907,-110.5201 1544.8591,-57.6238 1558.619,-29.049"/>
<polygon fill="#191970" stroke="#191970" points="1561.9103,-30.2705 1562.9324,-19.7251 1555.5572,-27.3314 1561.9103,-30.2705"/>
</g>
<!-- Node66 -->
<g id="node13" class="node">
<title>Node66</title>
<g id="a_node13"><a xlink:href="email_2lib_8h.html" target="_top" xlink:title="Structs that make up an email. ">
<polygon fill="#ffffff" stroke="#ff0000" points="106,-56.5 106,-75.5 174,-75.5 174,-56.5 106,-56.5"/>
<text text-anchor="middle" x="140" y="-63.5" font-family="Helvetica,sans-Serif" font-size="10.00" fill="#000000">email/lib.h</text>
</a>
</g>
</g>
<!-- Node0&#45;&gt;Node66 -->
<g id="edge12" class="edge">
<title>Node0&#45;&gt;Node66</title>
<path fill="none" stroke="#191970" d="M1055.7292,-177.425C890.4637,-174.9559 293.2783,-163.8889 215,-132 190.0624,-121.8409 167.7882,-99.7305 154.1184,-83.9007"/>
<polygon fill="#191970" stroke="#191970" points="156.5288,-81.3247 147.4471,-75.8682 151.1438,-85.7972 156.5288,-81.3247"/>
</g>
<!-- Node87 -->
<g id="node14" class="node">
<title>Node87</title>
<g id="a_node14"><a xlink:href="core_2lib_8h.html" target="_top" xlink:title="Convenience wrapper for the core headers. ">
<polygon fill="#ffffff" stroke="#ff0000" points="1451,-.5 1451,-19.5 1513,-19.5 1513,-.5 1451,-.5"/>
<text text-anchor="middle" x="1482" y="-7.5" font-family="Helvetica,sans-Serif" font-size="10.00" fill="#000000">core/lib.h</text>
</a>
</g>
</g>
<!-- Node0&#45;&gt;Node87 -->
<g id="edge13" class="edge">
<title>Node0&#45;&gt;Node87</title>
<path fill="none" stroke="#191970" d="M1140.2135,-174.7234C1217.9355,-168.2772 1380.5231,-152.7506 1433,-132 1473.0224,-116.1742 1492.2378,-114.2322 1512,-76 1520.4236,-59.7035 1509.5312,-40.5699 1498.5869,-27.1121"/>
<polygon fill="#191970" stroke="#191970" points="1501.167,-24.7459 1491.9381,-19.5423 1495.9077,-29.3654 1501.167,-24.7459"/>
</g>
<!-- Node91 -->
<g id="node15" class="node">
<title>Node91</title>
<g id="a_node15"><a xlink:href="gui_2lib_8h.html" target="_top" xlink:title="Convenience wrapper for the gui headers. ">
<polygon fill="#ffffff" stroke="#ff0000" points="1973,-112.5 1973,-131.5 2029,-131.5 2029,-112.5 1973,-112.5"/>
<text text-anchor="middle" x="2001" y="-119.5" font-family="Helvetica,sans-Serif" font-size="10.00" fill="#000000">gui/lib.h</text>
</a>
</g>
</g>
<!-- Node0&#45;&gt;Node91 -->
<g id="edge14" class="edge">
<title>Node0&#45;&gt;Node91</title>
<path fill="none" stroke="#191970" d="M1140.1578,-176.9386C1287.9784,-173.0367 1783.06,-158.4031 1962.7481,-131.8258"/>
<polygon fill="#191970" stroke="#191970" points="1963.5033,-135.2507 1972.8514,-130.2645 1962.4341,-128.3329 1963.5033,-135.2507"/>
</g>
<!-- Node105 -->
<g id="node16" class="node">
<title>Node105</title>
<g id="a_node16"><a xlink:href="mutt__attach_8h.html" target="_top" xlink:title="Handling of email attachments. ">
<polygon fill="#ffffff" stroke="#000000" points="723.5,-56.5 723.5,-75.5 808.5,-75.5 808.5,-56.5 723.5,-56.5"/>
<text text-anchor="middle" x="766" y="-63.5" font-family="Helvetica,sans-Serif" font-size="10.00" fill="#000000">mutt_attach.h</text>
</a>
</g>
</g>
<!-- Node0&#45;&gt;Node105 -->
<g id="edge15" class="edge">
<title>Node0&#45;&gt;Node105</title>
<path fill="none" stroke="#191970" d="M1055.9486,-174.5847C1008.3605,-169.6133 929.2458,-157.9646 866,-132 835.4623,-119.4632 804.3574,-97.1071 785.1236,-81.9234"/>
<polygon fill="#191970" stroke="#191970" points="787.1495,-79.061 777.1664,-75.5128 782.7579,-84.5121 787.1495,-79.061"/>
</g>
<!-- Node106 -->
<g id="node17" class="node">
<title>Node106</title>
<g id="a_node17"><a xlink:href="context_8h.html" target="_top" xlink:title="The &quot;currently&#45;open&quot; mailbox. ">
<polygon fill="#ffffff" stroke="#ff0000" points="1267,-56.5 1267,-75.5 1329,-75.5 1329,-56.5 1267,-56.5"/>
<text text-anchor="middle" x="1298" y="-63.5" font-family="Helvetica,sans-Serif" font-size="10.00" fill="#000000">context.h</text>
</a>
</g>
</g>
<!-- Node0&#45;&gt;Node106 -->
<g id="edge18" class="edge">
<title>Node0&#45;&gt;Node106</title>
<path fill="none" stroke="#191970" d="M1140.2434,-173.3126C1173.5091,-167.881 1219.6693,-156.3241 1253,-132 1269.5655,-119.9108 1282.0082,-99.7661 1289.5638,-84.9059"/>
<polygon fill="#191970" stroke="#191970" points="1292.8449,-86.1575 1294.0043,-75.6263 1286.5306,-83.1359 1292.8449,-86.1575"/>
</g>
<!-- Node107 -->
<g id="node18" class="node">
<title>Node107</title>
<g id="a_node18"><a xlink:href="copy_8h.html" target="_top" xlink:title="Duplicate the structure of an entire email. ">
<polygon fill="#ffffff" stroke="#ff0000" points="230.5,-56.5 230.5,-75.5 277.5,-75.5 277.5,-56.5 230.5,-56.5"/>
<text text-anchor="middle" x="254" y="-63.5" font-family="Helvetica,sans-Serif" font-size="10.00" fill="#000000">copy.h</text>
</a>
</g>
</g>
<!-- Node0&#45;&gt;Node107 -->
<g id="edge20" class="edge">
<title>Node0&#45;&gt;Node107</title>
<path fill="none" stroke="#191970" d="M1055.6093,-176.7318C927.8219,-172.6508 547.7417,-158.5509 427,-132 374.2785,-120.4066 316.2853,-95.6246 282.621,-79.9445"/>
<polygon fill="#191970" stroke="#191970" points="283.9287,-76.6915 273.3914,-75.5885 280.941,-83.0219 283.9287,-76.6915"/>
</g>
<!-- Node108 -->
<g id="node19" class="node">
<title>Node108</title>
<g id="a_node19"><a xlink:href="globals_8h.html" target="_top" xlink:title="Hundreds of global variables to back the user variables. ">
<polygon fill="#ffffff" stroke="#ff0000" points="874.5,-112.5 874.5,-131.5 935.5,-131.5 935.5,-112.5 874.5,-112.5"/>
<text text-anchor="middle" x="905" y="-119.5" font-family="Helvetica,sans-Serif" font-size="10.00" fill="#000000">globals.h</text>
</a>
</g>
</g>
<!-- Node0&#45;&gt;Node108 -->
<g id="edge23" class="edge">
<title>Node0&#45;&gt;Node108</title>
<path fill="none" stroke="#191970" d="M1064.8221,-168.3733C1031.7646,-158.7814 980.9572,-144.0394 945.5304,-133.7601"/>
<polygon fill="#191970" stroke="#191970" points="946.0999,-130.2811 935.5207,-130.8557 944.1492,-137.0038 946.0999,-130.2811"/>
</g>
<!-- Node111 -->
<g id="node20" class="node">
<title>Node111</title>
<g id="a_node20"><a xlink:href="handler_8h.html" target="_top" xlink:title="Decide how to display email content. ">
<polygon fill="#ffffff" stroke="#ff0000" points="985,-56.5 985,-75.5 1047,-75.5 1047,-56.5 985,-56.5"/>
<text text-anchor="middle" x="1016" y="-63.5" font-family="Helvetica,sans-Serif" font-size="10.00" fill="#000000">handler.h</text>
</a>
</g>
</g>
<!-- Node0&#45;&gt;Node111 -->
<g id="edge27" class="edge">
<title>Node0&#45;&gt;Node111</title>
<path fill="none" stroke="#191970" d="M1091.0087,-168.4509C1077.2716,-149.688 1046.5704,-107.7548 1029.0014,-83.758"/>
<polygon fill="#191970" stroke="#191970" points="1031.705,-81.5259 1022.9736,-75.5249 1026.057,-85.6611 1031.705,-81.5259"/>
</g>
<!-- Node112 -->
<g id="node21" class="node">
<title>Node112</title>
<g id="a_node21"><a xlink:href="mailcap_8h.html" target="_top" xlink:title="RFC1524 Mailcap routines. ">
<polygon fill="#ffffff" stroke="#ff0000" points="1065.5,-56.5 1065.5,-75.5 1130.5,-75.5 1130.5,-56.5 1065.5,-56.5"/>
<text text-anchor="middle" x="1098" y="-63.5" font-family="Helvetica,sans-Serif" font-size="10.00" fill="#000000">mailcap.h</text>
</a>
</g>
</g>
<!-- Node0&#45;&gt;Node112 -->
<g id="edge29" class="edge">
<title>Node0&#45;&gt;Node112</title>
<path fill="none" stroke="#191970" d="M1098,-168.4509C1098,-150.184 1098,-109.9553 1098,-85.6976"/>
<polygon fill="#191970" stroke="#191970" points="1101.5001,-85.5249 1098,-75.5249 1094.5001,-85.5249 1101.5001,-85.5249"/>
</g>
<!-- Node113 -->
<g id="node22" class="node">
<title>Node113</title>
<g id="a_node22"><a xlink:href="muttlib_8h.html" target="_top" xlink:title="Some miscellaneous functions. ">
<polygon fill="#ffffff" stroke="#ff0000" points="700.5,-112.5 700.5,-131.5 761.5,-131.5 761.5,-112.5 700.5,-112.5"/>
<text text-anchor="middle" x="731" y="-119.5" font-family="Helvetica,sans-Serif" font-size="10.00" fill="#000000">muttlib.h</text>
</a>
</g>
</g>
<!-- Node0&#45;&gt;Node113 -->
<g id="edge31" class="edge">
<title>Node0&#45;&gt;Node113</title>
<path fill="none" stroke="#191970" d="M1055.9004,-171.5761C984.9824,-160.7548 842.5687,-139.0241 772.2359,-128.2921"/>
<polygon fill="#191970" stroke="#191970" points="772.4072,-124.7778 761.9936,-126.7293 771.3512,-131.6977 772.4072,-124.7778"/>
</g>
<!-- Node115 -->
<g id="node23" class="node">
<title>Node115</title>
<g id="a_node23"><a xlink:href="mx_8h.html" target="_top" xlink:title="API for mailboxes. ">
<polygon fill="#ffffff" stroke="#ff0000" points="1461.5,-56.5 1461.5,-75.5 1502.5,-75.5 1502.5,-56.5 1461.5,-56.5"/>
<text text-anchor="middle" x="1482" y="-63.5" font-family="Helvetica,sans-Serif" font-size="10.00" fill="#000000">mx.h</text>
</a>
</g>
</g>
<!-- Node0&#45;&gt;Node115 -->
<g id="edge35" class="edge">
<title>Node0&#45;&gt;Node115</title>
<path fill="none" stroke="#191970" d="M1140.1201,-174.5307C1212.6274,-168.0871 1357.7033,-152.994 1404,-132 1429.0814,-120.6264 1452.4283,-98.7745 1466.9202,-83.3363"/>
<polygon fill="#191970" stroke="#191970" points="1469.8814,-85.2819 1474.015,-75.5266 1464.7001,-80.5749 1469.8814,-85.2819"/>
</g>
<!-- Node116 -->
<g id="node24" class="node">
<title>Node116</title>
<g id="a_node24"><a xlink:href="options_8h.html" target="_top" xlink:title="Handling of global boolean variables. ">
<polygon fill="#ffffff" stroke="#ff0000" points="1149,-56.5 1149,-75.5 1211,-75.5 1211,-56.5 1149,-56.5"/>
<text text-anchor="middle" x="1180" y="-63.5" font-family="Helvetica,sans-Serif" font-size="10.00" fill="#000000">options.h</text>
</a>
</g>
</g>
<!-- Node0&#45;&gt;Node116 -->
<g id="edge40" class="edge">
<title>Node0&#45;&gt;Node116</title>
<path fill="none" stroke="#191970" d="M1104.9913,-168.4509C1118.7284,-149.688 1149.4296,-107.7548 1166.9986,-83.758"/>
<polygon fill="#191970" stroke="#191970" points="1169.943,-85.6611 1173.0264,-75.5249 1164.295,-81.5259 1169.943,-85.6611"/>
</g>
<!-- Node99 -->
<g id="node25" class="node">
<title>Node99</title>
<g id="a_node25"><a xlink:href="pager_8h.html" target="_top" xlink:title="GUI display a file/email/help in a viewport with paging. ">
<polygon fill="#ffffff" stroke="#ff0000" points="334.5,-56.5 334.5,-75.5 387.5,-75.5 387.5,-56.5 334.5,-56.5"/>
<text text-anchor="middle" x="361" y="-63.5" font-family="Helvetica,sans-Serif" font-size="10.00" fill="#000000">pager.h</text>
</a>
</g>
</g>
<!-- Node0&#45;&gt;Node99 -->
<g id="edge42" class="edge">
<title>Node0&#45;&gt;Node99</title>
<path fill="none" stroke="#191970" d="M1055.8587,-177.3381C934.1628,-175.0411 583.9455,-165.6112 475,-132 439.4677,-121.0378 403.0829,-97.3756 381.2627,-81.5685"/>
<polygon fill="#191970" stroke="#191970" points="383.2333,-78.6726 373.1134,-75.5359 379.0685,-84.2988 383.2333,-78.6726"/>
</g>
<!-- Node117 -->
<g id="node26" class="node">
<title>Node117</title>
<g id="a_node26"><a xlink:href="protos_8h.html" target="_top" xlink:title="Prototypes for many functions. ">
<polygon fill="#ffffff" stroke="#ff0000" points="515,-112.5 515,-131.5 571,-131.5 571,-112.5 515,-112.5"/>
<text text-anchor="middle" x="543" y="-119.5" font-family="Helvetica,sans-Serif" font-size="10.00" fill="#000000">protos.h</text>
</a>
</g>
</g>
<!-- Node0&#45;&gt;Node117 -->
<g id="edge45" class="edge">
<title>Node0&#45;&gt;Node117</title>
<path fill="none" stroke="#191970" d="M1055.6894,-175.0109C970.2924,-168.7664 771.2871,-153.144 605,-132 597.2539,-131.0151 588.9896,-129.7986 581.1032,-128.5572"/>
<polygon fill="#191970" stroke="#191970" points="581.4592,-125.0694 571.0287,-126.9283 580.3419,-131.9796 581.4592,-125.0694"/>
</g>
<!-- Node72 -->
<g id="node27" class="node">
<title>Node72</title>
<g id="a_node27"><a xlink:href="ncrypt_2lib_8h.html" target="_top" xlink:title="API for encryption/signing of emails. ">
<polygon fill="#ffffff" stroke="#ff0000" points="405.5,-56.5 405.5,-75.5 476.5,-75.5 476.5,-56.5 405.5,-56.5"/>
<text text-anchor="middle" x="441" y="-63.5" font-family="Helvetica,sans-Serif" font-size="10.00" fill="#000000">ncrypt/lib.h</text>
</a>
</g>
</g>
<!-- Node0&#45;&gt;Node72 -->
<g id="edge59" class="edge">
<title>Node0&#45;&gt;Node72</title>
<path fill="none" stroke="#191970" d="M1055.9373,-176.4322C929.0182,-171.4659 555.5415,-155.0387 506,-132 483.5702,-121.5693 464.6286,-99.847 453.0807,-84.1672"/>
<polygon fill="#191970" stroke="#191970" points="455.7838,-81.9267 447.1653,-75.7644 450.0598,-85.9562 455.7838,-81.9267"/>
</g>
<!-- Node118 -->
<g id="node28" class="node">
<title>Node118</title>
<g id="a_node28"><a xlink:href="sendlib_8h.html" target="_top" xlink:title="Miscellaneous functions for sending an email. ">
<polygon fill="#ffffff" stroke="#000000" points="223.5,-112.5 223.5,-131.5 284.5,-131.5 284.5,-112.5 223.5,-112.5"/>
<text text-anchor="middle" x="254" y="-119.5" font-family="Helvetica,sans-Serif" font-size="10.00" fill="#000000">sendlib.h</text>
</a>
</g>
</g>
<!-- Node0&#45;&gt;Node118 -->
<g id="edge52" class="edge">
<title>Node0&#45;&gt;Node118</title>
<path fill="none" stroke="#191970" d="M1055.6801,-177.1932C937.6262,-174.5828 594.7936,-164.5497 312,-132 306.417,-131.3574 300.5557,-130.5293 294.7935,-129.6251"/>
<polygon fill="#191970" stroke="#191970" points="295.0475,-126.1196 284.61,-127.9391 293.904,-133.0256 295.0475,-126.1196"/>
</g>
<!-- Node119 -->
<g id="node29" class="node">
<title>Node119</title>
<g id="a_node29"><a xlink:href="state_8h.html" target="_top" xlink:title="Keep track when processing files. ">
<polygon fill="#ffffff" stroke="#ff0000" points="0,-56.5 0,-75.5 50,-75.5 50,-56.5 0,-56.5"/>
<text text-anchor="middle" x="25" y="-63.5" font-family="Helvetica,sans-Serif" font-size="10.00" fill="#000000">state.h</text>
</a>
</g>
</g>
<!-- Node0&#45;&gt;Node119 -->
<g id="edge57" class="edge">
<title>Node0&#45;&gt;Node119</title>
<path fill="none" stroke="#191970" d="M1055.9084,-177.2435C867.2875,-173.7117 107.1585,-157.9158 64,-132 46.9417,-121.7568 36.5065,-100.9689 30.7763,-85.4454"/>
<polygon fill="#191970" stroke="#191970" points="34.0215,-84.1128 27.5374,-75.7338 27.3811,-86.3275 34.0215,-84.1128"/>
</g>
<!-- Node120 -->
<g id="node30" class="node">
<title>Node120</title>
<g id="a_node30"><a xlink:href="imap_2lib_8h.html" target="_top" xlink:title="IMAP network mailbox. ">
<polygon fill="#ffffff" stroke="#ff0000" points="1329.5,-112.5 1329.5,-131.5 1394.5,-131.5 1394.5,-112.5 1329.5,-112.5"/>
<text text-anchor="middle" x="1362" y="-119.5" font-family="Helvetica,sans-Serif" font-size="10.00" fill="#000000">imap/lib.h</text>
</a>
</g>
</g>
<!-- Node0&#45;&gt;Node120 -->
<g id="edge60" class="edge">
<title>Node0&#45;&gt;Node120</title>
<path fill="none" stroke="#191970" d="M1140.1235,-169.0647C1189.1863,-158.6575 1269.7967,-141.5583 1319.1629,-131.0867"/>
<polygon fill="#191970" stroke="#191970" points="1320.1443,-134.4564 1329.2003,-128.9575 1318.6917,-127.6088 1320.1443,-134.4564"/>
</g>
<!-- Node105&#45;&gt;Node4 -->
<g id="edge16" class="edge">
<title>Node105&#45;&gt;Node4</title>
<path fill="none" stroke="#191970" d="M796.7712,-56.3733C826.665,-47.021 872.2093,-32.7725 904.9217,-22.5385"/>
<polygon fill="#191970" stroke="#191970" points="906.1315,-25.8273 914.6303,-19.5011 904.0414,-19.1466 906.1315,-25.8273"/>
</g>
<!-- Node105&#45;&gt;Node5 -->
<g id="edge17" class="edge">
<title>Node105&#45;&gt;Node5</title>
<path fill="none" stroke="#191970" d="M723.4155,-59.4665C650.5862,-48.2927 503.463,-25.7203 436.1086,-15.3865"/>
<polygon fill="#191970" stroke="#191970" points="436.4222,-11.8938 426.0071,-13.8367 435.3606,-18.8128 436.4222,-11.8938"/>
</g>
<!-- Node106&#45;&gt;Node4 -->
<g id="edge19" class="edge">
<title>Node106&#45;&gt;Node4</title>
<path fill="none" stroke="#191970" d="M1266.5864,-58.7233C1262.0385,-57.756 1257.4065,-56.8176 1253,-56 1157.9713,-38.3676 1045.4701,-22.9297 986.2379,-15.2196"/>
<polygon fill="#191970" stroke="#191970" points="986.5266,-11.7279 976.1602,-13.9156 985.6283,-18.67 986.5266,-11.7279"/>
</g>
<!-- Node107&#45;&gt;Node1 -->
<g id="edge21" class="edge">
<title>Node107&#45;&gt;Node1</title>
<path fill="none" stroke="#191970" d="M277.6163,-59.3258C282.356,-58.1163 287.3185,-56.9419 292,-56 395.8691,-35.1026 520.1869,-20.4042 581.2976,-13.8453"/>
<polygon fill="#191970" stroke="#191970" points="581.6779,-17.3247 591.2528,-12.7891 580.9393,-10.3638 581.6779,-17.3247"/>
</g>
<!-- Node107&#45;&gt;Node5 -->
<g id="edge22" class="edge">
<title>Node107&#45;&gt;Node5</title>
<path fill="none" stroke="#191970" d="M277.6181,-57.0026C301.6158,-47.8606 339.0462,-33.6014 366.3903,-23.1846"/>
<polygon fill="#191970" stroke="#191970" points="367.8657,-26.368 375.9646,-19.5373 365.3737,-19.8266 367.8657,-26.368"/>
</g>
<!-- Node108&#45;&gt;Node1 -->
<g id="edge24" class="edge">
<title>Node108&#45;&gt;Node1</title>
<path fill="none" stroke="#191970" d="M895.2268,-112.313C880.0369,-97.8205 849.2463,-70.637 818,-56 765.124,-31.2309 697.9361,-19.294 656.7249,-13.9293"/>
<polygon fill="#191970" stroke="#191970" points="656.934,-10.4285 646.5798,-12.6736 656.0741,-17.3755 656.934,-10.4285"/>
</g>
<!-- Node108&#45;&gt;Node4 -->
<g id="edge25" class="edge">
<title>Node108&#45;&gt;Node4</title>
<path fill="none" stroke="#191970" d="M900.0149,-112.1653C894.0069,-98.8709 885.6924,-74.6809 894,-56 899.4508,-43.7432 909.9599,-33.3755 920.0289,-25.6036"/>
<polygon fill="#191970" stroke="#191970" points="922.1744,-28.3721 928.2627,-19.7012 918.096,-22.6828 922.1744,-28.3721"/>
</g>
<!-- Node108&#45;&gt;Node10 -->
<g id="edge26" class="edge">
<title>Node108&#45;&gt;Node10</title>
<path fill="none" stroke="#191970" d="M910.2256,-112.2455C914.3123,-104.617 920.1135,-93.7881 925.075,-84.5267"/>
<polygon fill="#191970" stroke="#191970" points="928.1972,-86.1103 929.8343,-75.6427 922.0268,-82.8047 928.1972,-86.1103"/>
</g>
<!-- Node111&#45;&gt;Node4 -->
<g id="edge28" class="edge">
<title>Node111&#45;&gt;Node4</title>
<path fill="none" stroke="#191970" d="M1003.6327,-56.2455C993.0446,-47.8943 977.5936,-35.7076 965.2107,-25.9408"/>
<polygon fill="#191970" stroke="#191970" points="967.2447,-23.0875 957.2255,-19.6427 962.9097,-28.5837 967.2447,-23.0875"/>
</g>
<!-- Node112&#45;&gt;Node4 -->
<g id="edge30" class="edge">
<title>Node112&#45;&gt;Node4</title>
<path fill="none" stroke="#191970" d="M1071.6984,-56.3733C1046.5872,-47.1822 1008.5562,-33.2624 980.7128,-23.0713"/>
<polygon fill="#191970" stroke="#191970" points="981.5522,-19.6516 970.9584,-19.5011 979.1462,-26.2251 981.5522,-19.6516"/>
</g>
<!-- Node113&#45;&gt;Node4 -->
<g id="edge32" class="edge">
<title>Node113&#45;&gt;Node4</title>
<path fill="none" stroke="#191970" d="M724.0493,-112.3425C714.9214,-98.3741 701.5452,-72.4122 715,-56 738.3804,-27.4805 843.8109,-16.2903 903.4836,-12.1842"/>
<polygon fill="#191970" stroke="#191970" points="903.9579,-15.6609 913.7095,-11.519 903.5034,-8.6756 903.9579,-15.6609"/>
</g>
<!-- Node113&#45;&gt;Node5 -->
<g id="edge33" class="edge">
<title>Node113&#45;&gt;Node5</title>
<path fill="none" stroke="#191970" d="M702.8644,-112.4509C642.6728,-92.0223 501.5518,-44.1267 435.8259,-21.8197"/>
<polygon fill="#191970" stroke="#191970" points="436.9154,-18.4934 426.321,-18.5938 434.6656,-25.1221 436.9154,-18.4934"/>
</g>
<!-- Node113&#45;&gt;Node105 -->
<g id="edge34" class="edge">
<title>Node113&#45;&gt;Node105</title>
<path fill="none" stroke="#191970" d="M737.0965,-112.2455C741.9145,-104.5367 748.7751,-93.5598 754.6032,-84.2348"/>
<polygon fill="#191970" stroke="#191970" points="757.6413,-85.9777 759.9733,-75.6427 751.7053,-82.2677 757.6413,-85.9777"/>
</g>
<!-- Node115&#45;&gt;Node4 -->
<g id="edge36" class="edge">
<title>Node115&#45;&gt;Node4</title>
<path fill="none" stroke="#191970" d="M1461.2588,-62.9489C1446.6623,-60.8531 1426.6583,-58.084 1409,-56 1253.3926,-37.6352 1067.835,-20.7443 986.5742,-13.5972"/>
<polygon fill="#191970" stroke="#191970" points="986.5392,-10.0808 976.2718,-12.6942 985.928,-17.054 986.5392,-10.0808"/>
</g>
<!-- Node115&#45;&gt;Node5 -->
<g id="edge37" class="edge">
<title>Node115&#45;&gt;Node5</title>
<path fill="none" stroke="#191970" d="M1461.023,-64.4001C1432.996,-62.2953 1381.7804,-58.5636 1338,-56 1002.6377,-36.3624 918.4954,-37.2152 583,-20 531.944,-17.3802 472.847,-14.0845 436.1906,-12.0093"/>
<polygon fill="#191970" stroke="#191970" points="436.2028,-8.5044 426.0205,-11.4322 435.8062,-15.4932 436.2028,-8.5044"/>
</g>
<!-- Node115&#45;&gt;Node48 -->
<g id="edge38" class="edge">
<title>Node115&#45;&gt;Node48</title>
<path fill="none" stroke="#191970" d="M1496.8059,-56.2455C1509.7256,-47.7337 1528.6931,-35.2375 1543.6552,-25.3801"/>
<polygon fill="#191970" stroke="#191970" points="1545.9387,-28.067 1552.3638,-19.6427 1542.0876,-22.2216 1545.9387,-28.067"/>
</g>
<!-- Node115&#45;&gt;Node87 -->
<g id="edge39" class="edge">
<title>Node115&#45;&gt;Node87</title>
<path fill="none" stroke="#191970" d="M1482,-56.2455C1482,-48.9382 1482,-38.6944 1482,-29.7046"/>
<polygon fill="#191970" stroke="#191970" points="1485.5001,-29.6426 1482,-19.6427 1478.5001,-29.6427 1485.5001,-29.6426"/>
</g>
<!-- Node116&#45;&gt;Node4 -->
<g id="edge41" class="edge">
<title>Node116&#45;&gt;Node4</title>
<path fill="none" stroke="#191970" d="M1148.5669,-58.0997C1145.6718,-57.3848 1142.7823,-56.6759 1140,-56 1086.83,-43.083 1025.3747,-28.6716 985.8926,-19.4796"/>
<polygon fill="#191970" stroke="#191970" points="986.6344,-16.0587 976.1014,-17.2022 985.0485,-22.8767 986.6344,-16.0587"/>
</g>
<!-- Node99&#45;&gt;Node4 -->
<g id="edge43" class="edge">
<title>Node99&#45;&gt;Node4</title>
<path fill="none" stroke="#191970" d="M387.6081,-58.0107C390.7541,-57.2442 393.9352,-56.5493 397,-56 584.1215,-22.4624 811.6808,-13.2671 903.5703,-10.8366"/>
<polygon fill="#191970" stroke="#191970" points="903.9272,-14.3289 913.8361,-10.5786 903.7513,-7.3311 903.9272,-14.3289"/>
</g>
<!-- Node99&#45;&gt;Node5 -->
<g id="edge44" class="edge">
<title>Node99&#45;&gt;Node5</title>
<path fill="none" stroke="#191970" d="M367.9675,-56.2455C373.5311,-48.4564 381.478,-37.3308 388.1829,-27.9439"/>
<polygon fill="#191970" stroke="#191970" points="391.148,-29.8144 394.1124,-19.6427 385.4519,-25.7457 391.148,-29.8144"/>
</g>
<!-- Node117&#45;&gt;Node1 -->
<g id="edge46" class="edge">
<title>Node117&#45;&gt;Node1</title>
<path fill="none" stroke="#191970" d="M544.9252,-112.3489C547.9552,-98.8408 554.7878,-73.9405 567,-56 574.8422,-44.4793 586.2082,-33.9817 596.3151,-25.9331"/>
<polygon fill="#191970" stroke="#191970" points="598.5642,-28.6198 604.4038,-19.7796 594.3259,-23.0487 598.5642,-28.6198"/>
</g>
<!-- Node117&#45;&gt;Node4 -->
<g id="edge47" class="edge">
<title>Node117&#45;&gt;Node4</title>
<path fill="none" stroke="#191970" d="M562.9959,-112.3467C593.1366,-98.145 652.297,-71.6196 705,-56 773.4017,-35.7278 855.4978,-22.2398 903.7825,-15.3705"/>
<polygon fill="#191970" stroke="#191970" points="904.4264,-18.8146 913.8463,-13.9652 903.4583,-11.8819 904.4264,-18.8146"/>
</g>
<!-- Node117&#45;&gt;Node5 -->
<g id="edge48" class="edge">
<title>Node117&#45;&gt;Node5</title>
<path fill="none" stroke="#191970" d="M536.1989,-112.0557C526.3551,-98.1992 507.0017,-72.8876 486,-56 469.9316,-43.0793 449.7043,-31.9638 433.0131,-23.8976"/>
<polygon fill="#191970" stroke="#191970" points="434.1925,-20.5851 423.6524,-19.5102 431.2217,-26.9234 434.1925,-20.5851"/>
</g>
<!-- Node117&#45;&gt;Node72 -->
<g id="edge49" class="edge">
<title>Node117&#45;&gt;Node72</title>
<path fill="none" stroke="#191970" d="M525.233,-112.2455C509.2905,-103.4928 485.6741,-90.527 467.5011,-80.5496"/>
<polygon fill="#191970" stroke="#191970" points="469.0137,-77.3873 458.5634,-75.6427 465.6448,-83.5233 469.0137,-77.3873"/>
</g>
<!-- Node72&#45;&gt;Node4 -->
<g id="edge50" class="edge">
<title>Node72&#45;&gt;Node4</title>
<path fill="none" stroke="#191970" d="M476.8424,-62.0175C567.8668,-51.9037 807.5461,-25.2727 903.9629,-14.5597"/>
<polygon fill="#191970" stroke="#191970" points="904.3654,-18.0366 913.9177,-13.4536 903.5923,-11.0794 904.3654,-18.0366"/>
</g>
<!-- Node72&#45;&gt;Node5 -->
<g id="edge51" class="edge">
<title>Node72&#45;&gt;Node5</title>
<path fill="none" stroke="#191970" d="M434.0325,-56.2455C428.4689,-48.4564 420.522,-37.3308 413.8171,-27.9439"/>
<polygon fill="#191970" stroke="#191970" points="416.5481,-25.7457 407.8876,-19.6427 410.852,-29.8144 416.5481,-25.7457"/>
</g>
<!-- Node118&#45;&gt;Node4 -->
<g id="edge53" class="edge">
<title>Node118&#45;&gt;Node4</title>
<path fill="none" stroke="#191970" d="M261.0861,-112.2127C272.6951,-97.0603 297.3608,-68.3816 326,-56 378.7344,-33.2014 773.1555,-16.4655 903.4007,-11.5123"/>
<polygon fill="#191970" stroke="#191970" points="903.8843,-14.9966 913.7454,-11.1226 903.6207,-8.0016 903.8843,-14.9966"/>
</g>
<!-- Node118&#45;&gt;Node5 -->
<g id="edge54" class="edge">
<title>Node118&#45;&gt;Node5</title>
<path fill="none" stroke="#191970" d="M243.0296,-112.3409C229.0061,-98.8233 208.1093,-73.9117 222,-56 239.4579,-33.4884 318.819,-20.0745 365.8074,-13.9684"/>
<polygon fill="#191970" stroke="#191970" points="366.385,-17.4235 375.8724,-12.7076 365.5149,-10.4777 366.385,-17.4235"/>
</g>
<!-- Node118&#45;&gt;Node66 -->
<g id="edge55" class="edge">
<title>Node118&#45;&gt;Node66</title>
<path fill="none" stroke="#191970" d="M234.4027,-112.3733C216.2669,-103.4644 189.0865,-90.1127 168.5413,-80.0203"/>
<polygon fill="#191970" stroke="#191970" points="169.8603,-76.7688 159.3416,-75.5011 166.7739,-83.0517 169.8603,-76.7688"/>
</g>
<!-- Node118&#45;&gt;Node107 -->
<g id="edge56" class="edge">
<title>Node118&#45;&gt;Node107</title>
<path fill="none" stroke="#191970" d="M254,-112.2455C254,-104.9382 254,-94.6944 254,-85.7046"/>
<polygon fill="#191970" stroke="#191970" points="257.5001,-85.6426 254,-75.6427 250.5001,-85.6427 257.5001,-85.6426"/>
</g>
<!-- Node119&#45;&gt;Node5 -->
<g id="edge58" class="edge">
<title>Node119&#45;&gt;Node5</title>
<path fill="none" stroke="#191970" d="M50.0783,-59.116C54.6875,-57.9804 59.4726,-56.8864 64,-56 173.2866,-34.6042 304.4435,-19.7681 365.9385,-13.4383"/>
<polygon fill="#191970" stroke="#191970" points="366.2996,-16.9197 375.894,-12.4255 365.5911,-9.9556 366.2996,-16.9197"/>
</g>
<!-- Node120&#45;&gt;Node1 -->
<g id="edge61" class="edge">
<title>Node120&#45;&gt;Node1</title>
<path fill="none" stroke="#191970" d="M1361.6332,-112.4664C1360.4979,-97.6617 1355.9545,-69.4507 1338,-56 1310.5326,-35.4227 801.5472,-16.3133 656.9921,-11.2833"/>
<polygon fill="#191970" stroke="#191970" points="656.9526,-7.78 646.8376,-10.9324 656.7107,-14.7758 656.9526,-7.78"/>
</g>
<!-- Node120&#45;&gt;Node4 -->
<g id="edge62" class="edge">
<title>Node120&#45;&gt;Node4</title>
<path fill="none" stroke="#191970" d="M1367.5856,-112.0985C1374.8075,-97.826 1384.9065,-71.489 1371,-56 1345.561,-27.6662 1088.2979,-15.2295 986.3195,-11.3858"/>
<polygon fill="#191970" stroke="#191970" points="986.2152,-7.8797 976.0932,-11.0096 985.9578,-14.8749 986.2152,-7.8797"/>
</g>
<!-- Node120&#45;&gt;Node87 -->
<g id="edge63" class="edge">
<title>Node120&#45;&gt;Node87</title>
<path fill="none" stroke="#191970" d="M1372.2311,-112.4509C1392.6885,-93.3574 1438.8538,-50.2697 1464.3146,-26.5063"/>
<polygon fill="#191970" stroke="#191970" points="1466.8723,-28.9068 1471.7948,-19.5249 1462.0961,-23.7894 1466.8723,-28.9068"/>
</g>
<!-- Node120&#45;&gt;Node115 -->
<g id="edge64" class="edge">
<title>Node120&#45;&gt;Node115</title>
<path fill="none" stroke="#191970" d="M1382.6287,-112.3733C1401.8919,-103.3838 1430.8486,-89.8706 1452.5419,-79.7471"/>
<polygon fill="#191970" stroke="#191970" points="1454.0587,-82.9017 1461.6405,-75.5011 1451.0985,-76.5584 1454.0587,-82.9017"/>
</g>
</g>
</svg>
