<?xml version="1.0" encoding="UTF-8" standalone="no"?>
<!DOCTYPE svg PUBLIC "-//W3C//DTD SVG 1.1//EN"
 "http://www.w3.org/Graphics/SVG/1.1/DTD/svg11.dtd">
<!-- Generated by graphviz version 7.1.0 (0)
 -->
<!-- Title: log_file_close Pages: 1 -->
<svg width="353pt" height="121pt"
 viewBox="0.00 0.00 353.00 121.00" xmlns="http://www.w3.org/2000/svg" xmlns:xlink="http://www.w3.org/1999/xlink">
<g id="graph0" class="graph" transform="scale(1 1) rotate(0) translate(4 117)">
<title>log_file_close</title>
<!-- Node1 -->
<g id="node1" class="node">
<title>Node1</title>
<g id="a_node1"><a xlink:title="Close the log file.">
<polygon fill="#999999" stroke="#666666" points="345,-76 268,-76 268,-57 345,-57 345,-76"/>
<text text-anchor="middle" x="306.5" y="-64" font-family="Helvetica,sans-Serif" font-size="10.00">log_file_close</text>
</a>
</g>
</g>
<!-- Node2 -->
<g id="node2" class="node">
<title>Node2</title>
<g id="a_node2"><a xlink:href="mutt_2logging_8c.html#a04052a86613d16390be5add72eee7523" target="_top" xlink:title="Start logging to a file.">
<polygon fill="white" stroke="#666666" points="229.5,-95 151.5,-95 151.5,-76 229.5,-76 229.5,-95"/>
<text text-anchor="middle" x="190.5" y="-83" font-family="Helvetica,sans-Serif" font-size="10.00">log_file_open</text>
</a>
</g>
</g>
<!-- Node1&#45;&gt;Node2 -->
<g id="edge1" class="edge">
<title>Node1&#45;&gt;Node2</title>
<path fill="none" stroke="#63b8ff" d="M256.42,-74.68C247.47,-76.17 238.26,-77.71 229.68,-79.14"/>
<polygon fill="#63b8ff" stroke="#63b8ff" points="256.76,-78.17 266.05,-73.08 255.61,-71.27 256.76,-78.17"/>
</g>
<!-- Node3 -->
<g id="node3" class="node">
<title>Node3</title>
<g id="a_node3"><a xlink:href="mutt_2logging_8c.html#ae5764884f4e8cb6c8601216f24daf96f" target="_top" xlink:title="Set the filename for the log.">
<polygon fill="#fff0f0" stroke="red" points="113,-113 0,-113 0,-94 113,-94 113,-113"/>
<text text-anchor="middle" x="56.5" y="-101" font-family="Helvetica,sans-Serif" font-size="10.00">log_file_set_filename</text>
</a>
</g>
</g>
<!-- Node1&#45;&gt;Node3 -->
<g id="edge4" class="edge">
<title>Node1&#45;&gt;Node3</title>
<path fill="none" stroke="#63b8ff" d="M281.73,-82.5C267.87,-90.85 249.69,-100.2 232,-104.5 193.14,-113.95 147.96,-113.39 113.31,-110.63"/>
<polygon fill="#63b8ff" stroke="#63b8ff" points="283.52,-85.5 290.12,-77.21 279.79,-79.58 283.52,-85.5"/>
</g>
<!-- Node10 -->
<g id="node4" class="node">
<title>Node10</title>
<g id="a_node4"><a xlink:href="mutt_2logging_8c.html#a33cfab3517292724699130f67acf6b78" target="_top" xlink:title="Set the logging level.">
<polygon fill="#fff0f0" stroke="red" points="103.5,-76 9.5,-76 9.5,-57 103.5,-57 103.5,-76"/>
<text text-anchor="middle" x="56.5" y="-64" font-family="Helvetica,sans-Serif" font-size="10.00">log_file_set_level</text>
</a>
</g>
</g>
<!-- Node1&#45;&gt;Node10 -->
<g id="edge5" class="edge">
<title>Node1&#45;&gt;Node10</title>
<path fill="none" stroke="#63b8ff" d="M256.2,-66.5C211.89,-66.5 147.28,-66.5 103.89,-66.5"/>
<polygon fill="#63b8ff" stroke="#63b8ff" points="256.05,-70 266.05,-66.5 256.05,-63 256.05,-70"/>
</g>
<!-- Node11 -->
<g id="node5" class="node">
<title>Node11</title>
<g id="a_node5"><a xlink:href="mutt__logging_8c.html#a622226178155c08b3976e28c013a42cf" target="_top" xlink:title="Close the log file.">
<polygon fill="#fff0f0" stroke="red" points="232,-19 149,-19 149,0 232,0 232,-19"/>
<text text-anchor="middle" x="190.5" y="-7" font-family="Helvetica,sans-Serif" font-size="10.00">mutt_log_stop</text>
</a>
</g>
</g>
<!-- Node1&#45;&gt;Node11 -->
<g id="edge6" class="edge">
<title>Node1&#45;&gt;Node11</title>
<path fill="none" stroke="#63b8ff" d="M275.62,-51.56C255.26,-41.38 228.87,-28.19 211.13,-19.31"/>
<polygon fill="#63b8ff" stroke="#63b8ff" points="273.78,-54.55 284.29,-55.89 276.91,-48.29 273.78,-54.55"/>
</g>
<!-- Node2&#45;&gt;Node3 -->
<g id="edge2" class="edge">
<title>Node2&#45;&gt;Node3</title>
<path fill="none" stroke="#63b8ff" d="M140.11,-92.24C131.36,-93.43 122.19,-94.68 113.27,-95.89"/>
<polygon fill="#63b8ff" stroke="#63b8ff" points="140.39,-95.73 149.82,-90.91 139.44,-88.79 140.39,-95.73"/>
</g>
<!-- Node2&#45;&gt;Node10 -->
<g id="edge3" class="edge">
<title>Node2&#45;&gt;Node10</title>
<path fill="none" stroke="#63b8ff" d="M140.12,-78.39C128.14,-76.67 115.37,-74.83 103.55,-73.13"/>
<polygon fill="#63b8ff" stroke="#63b8ff" points="139.43,-81.83 149.82,-79.79 140.42,-74.9 139.43,-81.83"/>
</g>
</g>
</svg>
