<?xml version="1.0" encoding="UTF-8" standalone="no"?>
<!DOCTYPE svg PUBLIC "-//W3C//DTD SVG 1.1//EN"
 "http://www.w3.org/Graphics/SVG/1.1/DTD/svg11.dtd">
<!-- Generated by graphviz version 2.40.1 (20161225.0304)
 -->
<!-- Title: mutt_window_find Pages: 1 -->
<svg width="576pt" height="715pt"
 viewBox="0.00 0.00 576.00 715.15" xmlns="http://www.w3.org/2000/svg" xmlns:xlink="http://www.w3.org/1999/xlink">
<g id="graph0" class="graph" transform="scale(1 1) rotate(0) translate(4 711.1455)">
<title>mutt_window_find</title>
<polygon fill="#ffffff" stroke="transparent" points="-4,4 -4,-711.1455 572,-711.1455 572,4 -4,4"/>
<!-- Node14438 -->
<g id="node1" class="node">
<title>Node14438</title>
<polygon fill="#bfbfbf" stroke="#000000" points="0,-336.6748 0,-355.6748 106,-355.6748 106,-336.6748 0,-336.6748"/>
<text text-anchor="middle" x="53" y="-343.6748" font-family="Helvetica,sans-Serif" font-size="10.00" fill="#000000">mutt_window_find</text>
</g>
<!-- Node14439 -->
<g id="node2" class="node">
<title>Node14439</title>
<g id="a_node2"><a xlink:href="dlgalias_8c.html#a1d5a00b1918958b68db7f29a30c66a53" target="_top" xlink:title="Display a menu of Aliases. ">
<polygon fill="#ffffff" stroke="#ff0000" points="308,-659.6748 308,-678.6748 403,-678.6748 403,-659.6748 308,-659.6748"/>
<text text-anchor="middle" x="355.5" y="-666.6748" font-family="Helvetica,sans-Serif" font-size="10.00" fill="#000000">dlg_select_alias</text>
</a>
</g>
</g>
<!-- Node14438&#45;&gt;Node14439 -->
<g id="edge1" class="edge">
<title>Node14438&#45;&gt;Node14439</title>
<path fill="none" stroke="#191970" d="M53.8451,-365.9405C56.9957,-414.2749 71.8701,-539.4298 142,-607.1748 186.6941,-650.349 259.6156,-663.7406 307.5821,-667.7341"/>
<polygon fill="#191970" stroke="#191970" points="57.335,-365.6587 53.2909,-355.8661 50.3455,-366.0432 57.335,-365.6587"/>
</g>
<!-- Node14447 -->
<g id="node3" class="node">
<title>Node14447</title>
<g id="a_node3"><a xlink:href="dlgquery_8c.html#a1b14278ee062936035f5b41babab18da" target="_top" xlink:title="Get the user to enter an Address Query. ">
<polygon fill="#ffffff" stroke="#ff0000" points="306,-621.6748 306,-640.6748 405,-640.6748 405,-621.6748 306,-621.6748"/>
<text text-anchor="middle" x="355.5" y="-628.6748" font-family="Helvetica,sans-Serif" font-size="10.00" fill="#000000">dlg_select_query</text>
</a>
</g>
</g>
<!-- Node14438&#45;&gt;Node14447 -->
<g id="edge2" class="edge">
<title>Node14438&#45;&gt;Node14447</title>
<path fill="none" stroke="#191970" d="M55.165,-365.9457C60.9655,-409.2389 80.8238,-513.0286 142,-569.1748 187.0716,-610.5406 258.174,-624.4507 305.7961,-629.046"/>
<polygon fill="#191970" stroke="#191970" points="58.62,-365.3648 53.9273,-355.8659 51.6722,-366.218 58.62,-365.3648"/>
</g>
<!-- Node14995 -->
<g id="node4" class="node">
<title>Node14995</title>
<g id="a_node4"><a xlink:href="dlgautocrypt_8c.html#a22f8bbb8bd44c5e3f028dc817a93c77e" target="_top" xlink:title="Create the Autocrypt account Menu. ">
<polygon fill="#ffffff" stroke="#ff0000" points="315.5,-583.6748 315.5,-602.6748 395.5,-602.6748 395.5,-583.6748 315.5,-583.6748"/>
<text text-anchor="middle" x="355.5" y="-590.6748" font-family="Helvetica,sans-Serif" font-size="10.00" fill="#000000">create_menu</text>
</a>
</g>
</g>
<!-- Node14438&#45;&gt;Node14995 -->
<g id="edge3" class="edge">
<title>Node14438&#45;&gt;Node14995</title>
<path fill="none" stroke="#191970" d="M57.0206,-366.1243C65.692,-403.9757 89.7455,-486.4222 142,-531.1748 191.5431,-573.6053 268.7185,-587.0343 315.4517,-591.2613"/>
<polygon fill="#191970" stroke="#191970" points="60.3442,-364.9342 54.8091,-355.9002 53.5024,-366.4141 60.3442,-364.9342"/>
</g>
<!-- Node14457 -->
<g id="node5" class="node">
<title>Node14457</title>
<g id="a_node5"><a xlink:href="browser_8h.html#ac628d370c55e56235108d9b8ef87c618" target="_top" xlink:title="Let the user select a file. ">
<polygon fill="#ffffff" stroke="#ff0000" points="291.5,-545.6748 291.5,-564.6748 419.5,-564.6748 419.5,-545.6748 291.5,-545.6748"/>
<text text-anchor="middle" x="355.5" y="-552.6748" font-family="Helvetica,sans-Serif" font-size="10.00" fill="#000000">mutt_buffer_select_file</text>
</a>
</g>
</g>
<!-- Node14438&#45;&gt;Node14457 -->
<g id="edge4" class="edge">
<title>Node14438&#45;&gt;Node14457</title>
<path fill="none" stroke="#191970" d="M59.2082,-365.3796C70.4909,-397.2119 97.4041,-460.7975 142,-495.1748 185.1482,-528.4362 245.8249,-543.2591 291.4705,-549.8648"/>
<polygon fill="#191970" stroke="#191970" points="62.5137,-364.2286 55.9782,-355.8897 55.8871,-366.4841 62.5137,-364.2286"/>
</g>
<!-- Node14996 -->
<g id="node6" class="node">
<title>Node14996</title>
<g id="a_node6"><a xlink:href="compose_8c.html#a82dc12838cf57973070cdd4e9c554d41" target="_top" xlink:title="Listen for config changes affecting the Compose menu &#45; Implements observer_t. ">
<polygon fill="#ffffff" stroke="#ff0000" points="284,-507.6748 284,-526.6748 427,-526.6748 427,-507.6748 284,-507.6748"/>
<text text-anchor="middle" x="355.5" y="-514.6748" font-family="Helvetica,sans-Serif" font-size="10.00" fill="#000000">compose_config_observer</text>
</a>
</g>
</g>
<!-- Node14438&#45;&gt;Node14996 -->
<g id="edge5" class="edge">
<title>Node14438&#45;&gt;Node14996</title>
<path fill="none" stroke="#191970" d="M62.5027,-364.843C76.4388,-390.311 104.8471,-435.5827 142,-460.1748 184.388,-488.2321 240.0917,-502.5153 283.9721,-509.7665"/>
<polygon fill="#191970" stroke="#191970" points="65.5075,-363.0384 57.7314,-355.8424 59.3228,-366.317 65.5075,-363.0384"/>
</g>
<!-- Node14901 -->
<g id="node7" class="node">
<title>Node14901</title>
<g id="a_node7"><a xlink:href="ssl_8h.html#afc4acbc5f5fde85c72316cfbce697955" target="_top" xlink:title="Ask the user to validate the certificate. ">
<polygon fill="#ffffff" stroke="#ff0000" points="296,-469.6748 296,-488.6748 415,-488.6748 415,-469.6748 296,-469.6748"/>
<text text-anchor="middle" x="355.5" y="-476.6748" font-family="Helvetica,sans-Serif" font-size="10.00" fill="#000000">dlg_verify_certificate</text>
</a>
</g>
</g>
<!-- Node14438&#45;&gt;Node14901 -->
<g id="edge6" class="edge">
<title>Node14438&#45;&gt;Node14901</title>
<path fill="none" stroke="#191970" d="M66.8999,-363.7404C82.9479,-382.7964 111.1278,-412.6966 142,-429.1748 190.1934,-454.8984 251.4419,-467.4941 295.9666,-473.5968"/>
<polygon fill="#191970" stroke="#191970" points="69.4628,-361.3461 60.4141,-355.8351 64.0511,-365.7862 69.4628,-361.3461"/>
</g>
<!-- Node14997 -->
<g id="node8" class="node">
<title>Node14997</title>
<g id="a_node8"><a xlink:href="mutt__window_8h.html#a69bdaa94c0db6ef5472bab3d84efcb96" target="_top" xlink:title="Find a Window of a given type. ">
<polygon fill="#ffffff" stroke="#000000" points="142,-355.6748 142,-374.6748 248,-374.6748 248,-355.6748 142,-355.6748"/>
<text text-anchor="middle" x="195" y="-362.6748" font-family="Helvetica,sans-Serif" font-size="10.00" fill="#000000">mutt_window_find</text>
</a>
</g>
</g>
<!-- Node14438&#45;&gt;Node14997 -->
<g id="edge7" class="edge">
<title>Node14438&#45;&gt;Node14997</title>
<path fill="none" stroke="#191970" d="M116.2378,-354.6362C124.8064,-355.7827 133.5275,-356.9496 141.8941,-358.0691"/>
<polygon fill="#191970" stroke="#191970" points="116.6554,-351.161 106.2796,-353.3038 115.727,-358.0992 116.6554,-351.161"/>
</g>
<!-- Node14919 -->
<g id="node9" class="node">
<title>Node14919</title>
<g id="a_node9"><a xlink:href="history_2lib_8h.html#ab298aa27ba0aae5427f90a78f591d548" target="_top" xlink:title="Select an item from a history list. ">
<polygon fill="#ffffff" stroke="#ff0000" points="303,-431.6748 303,-450.6748 408,-450.6748 408,-431.6748 303,-431.6748"/>
<text text-anchor="middle" x="355.5" y="-438.6748" font-family="Helvetica,sans-Serif" font-size="10.00" fill="#000000">dlg_select_history</text>
</a>
</g>
</g>
<!-- Node14438&#45;&gt;Node14919 -->
<g id="edge28" class="edge">
<title>Node14438&#45;&gt;Node14919</title>
<path fill="none" stroke="#191970" d="M73.0581,-361.9509C90.3551,-374.7533 116.5024,-392.2515 142,-402.1748 194.4951,-422.6052 258.4891,-432.474 302.6489,-437.1493"/>
<polygon fill="#191970" stroke="#191970" points="74.9548,-358.9968 64.87,-355.7491 70.7283,-364.5769 74.9548,-358.9968"/>
</g>
<!-- Node14444 -->
<g id="node10" class="node">
<title>Node14444</title>
<g id="a_node10"><a xlink:href="index_2lib_8h.html#a99aec648e9fb9eeee0d0154211b428da" target="_top" xlink:title="Display a list of emails. ">
<polygon fill="#ffffff" stroke="#ff0000" points="463,-393.6748 463,-412.6748 568,-412.6748 568,-393.6748 463,-393.6748"/>
<text text-anchor="middle" x="515.5" y="-400.6748" font-family="Helvetica,sans-Serif" font-size="10.00" fill="#000000">mutt_index_menu</text>
</a>
</g>
</g>
<!-- Node14438&#45;&gt;Node14444 -->
<g id="edge29" class="edge">
<title>Node14438&#45;&gt;Node14444</title>
<path fill="none" stroke="#191970" d="M56.3262,-365.8387C66.859,-425.9111 101.2026,-605.4109 142,-646.1748 188.5565,-692.6931 218.8654,-678.7442 284,-688.1748 346.8997,-697.2819 375.8278,-725.8671 427,-688.1748 474.0337,-653.5308 506.8756,-458.7845 514.0336,-412.8719"/>
<polygon fill="#191970" stroke="#191970" points="59.7403,-365.0405 54.5911,-355.7812 52.8422,-366.2307 59.7403,-365.0405"/>
</g>
<!-- Node14998 -->
<g id="node11" class="node">
<title>Node14998</title>
<g id="a_node11"><a xlink:href="index_2observer_8c.html#a49614ac45b937005f7b38050e2f0e8e4" target="_top" xlink:title="React to changes to $pager_index_lines. ">
<polygon fill="#ffffff" stroke="#ff0000" points="300,-268.1748 300,-298.1748 411,-298.1748 411,-268.1748 300,-268.1748"/>
<text text-anchor="start" x="308" y="-286.1748" font-family="Helvetica,sans-Serif" font-size="10.00" fill="#000000">config_pager_index</text>
<text text-anchor="middle" x="355.5" y="-275.1748" font-family="Helvetica,sans-Serif" font-size="10.00" fill="#000000">_lines</text>
</a>
</g>
</g>
<!-- Node14438&#45;&gt;Node14998 -->
<g id="edge30" class="edge">
<title>Node14438&#45;&gt;Node14998</title>
<path fill="none" stroke="#191970" d="M108.7657,-334.5608C163.1786,-323.2285 245.4863,-306.0868 299.8572,-294.7632"/>
<polygon fill="#191970" stroke="#191970" points="108.0195,-331.141 98.9432,-336.6065 109.4468,-337.994 108.0195,-331.141"/>
</g>
<!-- Node15000 -->
<g id="node12" class="node">
<title>Node15000</title>
<g id="a_node12"><a xlink:href="index_2observer_8c.html#a6e07ee2a006980112ded061016d09ed9" target="_top" xlink:title="React to changes to $status_on_top. ">
<polygon fill="#ffffff" stroke="#ff0000" points="296,-229.6748 296,-248.6748 415,-248.6748 415,-229.6748 296,-229.6748"/>
<text text-anchor="middle" x="355.5" y="-236.6748" font-family="Helvetica,sans-Serif" font-size="10.00" fill="#000000">config_status_on_top</text>
</a>
</g>
</g>
<!-- Node14438&#45;&gt;Node15000 -->
<g id="edge31" class="edge">
<title>Node14438&#45;&gt;Node15000</title>
<path fill="none" stroke="#191970" d="M79.7356,-331.9592C97.169,-323.016 120.5805,-311.6129 142,-303.1748 203.4733,-278.9577 220.6238,-277.8536 284,-259.1748 295.8693,-255.6766 308.8913,-251.9895 320.5324,-248.7472"/>
<polygon fill="#191970" stroke="#191970" points="77.9797,-328.9271 70.716,-336.6401 81.2042,-335.1402 77.9797,-328.9271"/>
</g>
<!-- Node14921 -->
<g id="node13" class="node">
<title>Node14921</title>
<g id="a_node13"><a xlink:href="ncrypt_2private_8h.html#a5617f65588f988b6cafe9d1f3bf63edb" target="_top" xlink:title="Get the user to select a key. ">
<polygon fill="#ffffff" stroke="#ff0000" points="291.5,-191.6748 291.5,-210.6748 419.5,-210.6748 419.5,-191.6748 291.5,-191.6748"/>
<text text-anchor="middle" x="355.5" y="-198.6748" font-family="Helvetica,sans-Serif" font-size="10.00" fill="#000000">dlg_select_gpgme_key</text>
</a>
</g>
</g>
<!-- Node14438&#45;&gt;Node14921 -->
<g id="edge32" class="edge">
<title>Node14438&#45;&gt;Node14921</title>
<path fill="none" stroke="#191970" d="M67.7487,-328.903C84.1697,-310.675 112.3285,-282.2674 142,-265.1748 191.1214,-236.8778 253.9405,-220.0084 298.6932,-210.7543"/>
<polygon fill="#191970" stroke="#191970" points="65.053,-326.6682 61.0666,-336.4846 70.3044,-331.2967 65.053,-326.6682"/>
</g>
<!-- Node14934 -->
<g id="node14" class="node">
<title>Node14934</title>
<g id="a_node14"><a xlink:href="ncrypt_2private_8h.html#a50a5ee4ba10a3dad62aacea16484df42" target="_top" xlink:title="Let the user select a key to use. ">
<polygon fill="#ffffff" stroke="#ff0000" points="299,-153.6748 299,-172.6748 412,-172.6748 412,-153.6748 299,-153.6748"/>
<text text-anchor="middle" x="355.5" y="-160.6748" font-family="Helvetica,sans-Serif" font-size="10.00" fill="#000000">dlg_select_pgp_key</text>
</a>
</g>
</g>
<!-- Node14438&#45;&gt;Node14934 -->
<g id="edge33" class="edge">
<title>Node14438&#45;&gt;Node14934</title>
<path fill="none" stroke="#191970" d="M61.224,-327.1538C74.2407,-299.339 102.2542,-247.8741 142,-220.1748 188.7401,-187.6011 253.0951,-173.638 298.9014,-167.6551"/>
<polygon fill="#191970" stroke="#191970" points="57.9034,-326.003 56.9763,-336.5572 64.2827,-328.8847 57.9034,-326.003"/>
</g>
<!-- Node14938 -->
<g id="node15" class="node">
<title>Node14938</title>
<g id="a_node15"><a xlink:href="ncrypt_2private_8h.html#a0f2785b8d1ac46c70ffdab491475b4f6" target="_top" xlink:title="Get the user to select a key. ">
<polygon fill="#ffffff" stroke="#ff0000" points="291.5,-115.6748 291.5,-134.6748 419.5,-134.6748 419.5,-115.6748 291.5,-115.6748"/>
<text text-anchor="middle" x="355.5" y="-122.6748" font-family="Helvetica,sans-Serif" font-size="10.00" fill="#000000">dlg_select_smime_key</text>
</a>
</g>
</g>
<!-- Node14438&#45;&gt;Node14938 -->
<g id="edge34" class="edge">
<title>Node14438&#45;&gt;Node14938</title>
<path fill="none" stroke="#191970" d="M57.2192,-326.5221C66.1201,-290.0542 90.3949,-212.0063 142,-172.1748 184.5133,-139.3608 245.257,-128.4625 291.0895,-125.2779"/>
<polygon fill="#191970" stroke="#191970" points="53.7742,-325.8857 54.9372,-336.4165 60.5951,-327.4589 53.7742,-325.8857"/>
</g>
<!-- Node14451 -->
<g id="node16" class="node">
<title>Node14451</title>
<g id="a_node16"><a xlink:href="pager_8c.html#a98581fe70f86244edf90b80f6421fb7b" target="_top" xlink:title="Display a an email, attachment, or help, in a window. ">
<polygon fill="#ffffff" stroke="#ff0000" points="479,-317.6748 479,-336.6748 552,-336.6748 552,-317.6748 479,-317.6748"/>
<text text-anchor="middle" x="515.5" y="-324.6748" font-family="Helvetica,sans-Serif" font-size="10.00" fill="#000000">mutt_pager</text>
</a>
</g>
</g>
<!-- Node14438&#45;&gt;Node14451 -->
<g id="edge35" class="edge">
<title>Node14438&#45;&gt;Node14451</title>
<path fill="none" stroke="#191970" d="M55.8697,-326.5118C65.2786,-264.8495 97.1805,-77.0671 142,-38.1748 190.1372,3.5964 220.4219,-22.6302 284,-18.1748 347.4001,-13.7319 376.2482,20.0818 427,-18.1748 477.5765,-56.2993 508.0437,-269.7699 514.2973,-317.6451"/>
<polygon fill="#191970" stroke="#191970" points="52.3945,-326.0856 54.3765,-336.4934 59.3175,-327.1213 52.3945,-326.0856"/>
</g>
<!-- Node15001 -->
<g id="node17" class="node">
<title>Node15001</title>
<g id="a_node17"><a xlink:href="dlgpattern_8c.html#a24c15db8dee1fedd95b2819e75880539" target="_top" xlink:title="Create the Pattern Completion menu. ">
<polygon fill="#ffffff" stroke="#ff0000" points="295,-77.6748 295,-96.6748 416,-96.6748 416,-77.6748 295,-77.6748"/>
<text text-anchor="middle" x="355.5" y="-84.6748" font-family="Helvetica,sans-Serif" font-size="10.00" fill="#000000">create_pattern_menu</text>
</a>
</g>
</g>
<!-- Node14438&#45;&gt;Node15001 -->
<g id="edge36" class="edge">
<title>Node14438&#45;&gt;Node15001</title>
<path fill="none" stroke="#191970" d="M54.8018,-326.1442C59.8743,-282.3797 78.3647,-178.0066 142,-126.1748 184.6534,-91.4331 248.0975,-83.6337 294.7446,-83.3454"/>
<polygon fill="#191970" stroke="#191970" points="51.2943,-326.0357 53.7408,-336.3442 58.2567,-326.76 51.2943,-326.0357"/>
</g>
<!-- Node14668 -->
<g id="node18" class="node">
<title>Node14668</title>
<g id="a_node18"><a xlink:href="postpone_8c.html#aa4e2a5e4b76af37831e2fe0c2760e502" target="_top" xlink:title="Create a Menu to select a postponed message. ">
<polygon fill="#ffffff" stroke="#ff0000" points="294.5,-28.1748 294.5,-58.1748 416.5,-58.1748 416.5,-28.1748 294.5,-28.1748"/>
<text text-anchor="start" x="302.5" y="-46.1748" font-family="Helvetica,sans-Serif" font-size="10.00" fill="#000000">dlg_select_postponed</text>
<text text-anchor="middle" x="355.5" y="-35.1748" font-family="Helvetica,sans-Serif" font-size="10.00" fill="#000000">_email</text>
</a>
</g>
</g>
<!-- Node14438&#45;&gt;Node14668 -->
<g id="edge37" class="edge">
<title>Node14438&#45;&gt;Node14668</title>
<path fill="none" stroke="#191970" d="M56.9394,-326.5388C68.4544,-271.1132 103.6705,-115.3312 142,-82.1748 183.6054,-46.1847 247.1968,-38.5608 294.1641,-38.6539"/>
<polygon fill="#191970" stroke="#191970" points="53.4785,-325.9938 54.9037,-336.4923 60.3366,-327.3965 53.4785,-325.9938"/>
</g>
<!-- Node14507 -->
<g id="node19" class="node">
<title>Node14507</title>
<g id="a_node19"><a xlink:href="recvattach_8h.html#a5edc94d310a83795c8b872b724bc3e27" target="_top" xlink:title="Show the attachments in a Menu. ">
<polygon fill="#ffffff" stroke="#000000" points="291.5,-317.6748 291.5,-336.6748 419.5,-336.6748 419.5,-317.6748 291.5,-317.6748"/>
<text text-anchor="middle" x="355.5" y="-324.6748" font-family="Helvetica,sans-Serif" font-size="10.00" fill="#000000">dlg_select_attachment</text>
</a>
</g>
</g>
<!-- Node14438&#45;&gt;Node14507 -->
<g id="edge38" class="edge">
<title>Node14438&#45;&gt;Node14507</title>
<path fill="none" stroke="#191970" d="M116.0313,-342.2158C167.4556,-338.9859 239.7969,-334.4421 291.4855,-331.1956"/>
<polygon fill="#191970" stroke="#191970" points="115.7985,-338.7235 106.0376,-342.8435 116.2374,-345.7097 115.7985,-338.7235"/>
</g>
<!-- Node14997&#45;&gt;Node14439 -->
<g id="edge8" class="edge">
<title>Node14997&#45;&gt;Node14439</title>
<path fill="none" stroke="#191970" d="M198.6324,-385.0426C209.6762,-443.3645 244.5209,-612.3561 284,-650.1748 290.5853,-656.4831 299.0175,-660.7538 307.7657,-663.6318"/>
<polygon fill="#191970" stroke="#191970" points="202.0198,-384.1149 196.7466,-374.9255 195.1383,-385.3976 202.0198,-384.1149"/>
</g>
<!-- Node14997&#45;&gt;Node14447 -->
<g id="edge9" class="edge">
<title>Node14997&#45;&gt;Node14447</title>
<path fill="none" stroke="#191970" d="M196.1093,-384.6598C199.8394,-431.2181 215.8904,-549.6914 284,-612.1748 290.152,-617.8186 297.7894,-621.8213 305.7613,-624.6524"/>
<polygon fill="#191970" stroke="#191970" points="199.6008,-384.4148 195.4156,-374.6817 192.6176,-384.9003 199.6008,-384.4148"/>
</g>
<!-- Node14997&#45;&gt;Node14995 -->
<g id="edge10" class="edge">
<title>Node14997&#45;&gt;Node14995</title>
<path fill="none" stroke="#191970" d="M197.5612,-384.7119C204.0483,-426.1174 225.0268,-523.0768 284,-574.1748 292.7363,-581.7445 304.1671,-586.3401 315.3179,-589.1172"/>
<polygon fill="#191970" stroke="#191970" points="201.0231,-384.1964 196.1242,-374.8022 194.0956,-385.201 201.0231,-384.1964"/>
</g>
<!-- Node14997&#45;&gt;Node14457 -->
<g id="edge11" class="edge">
<title>Node14997&#45;&gt;Node14457</title>
<path fill="none" stroke="#191970" d="M199.6174,-384.7974C209.0643,-420.5206 234.0501,-496.1675 284,-536.1748 288.8119,-540.0289 294.333,-543.1057 300.1282,-545.5612"/>
<polygon fill="#191970" stroke="#191970" points="203.0062,-383.9214 197.174,-375.0763 196.2173,-385.6278 203.0062,-383.9214"/>
</g>
<!-- Node14997&#45;&gt;Node14996 -->
<g id="edge12" class="edge">
<title>Node14997&#45;&gt;Node14996</title>
<path fill="none" stroke="#191970" d="M202.5783,-384.4426C215.0557,-413.6089 242.7268,-468.6848 284,-498.1748 289.4343,-502.0576 295.6109,-505.147 302.0042,-507.605"/>
<polygon fill="#191970" stroke="#191970" points="205.7184,-382.8765 198.6717,-374.9648 199.2466,-385.544 205.7184,-382.8765"/>
</g>
<!-- Node14997&#45;&gt;Node14901 -->
<g id="edge13" class="edge">
<title>Node14997&#45;&gt;Node14901</title>
<path fill="none" stroke="#191970" d="M207.0503,-383.2225C222.3883,-404.7746 250.903,-440.3866 284,-460.1748 290.5041,-464.0635 297.808,-467.169 305.1976,-469.6457"/>
<polygon fill="#191970" stroke="#191970" points="209.8801,-381.1612 201.3086,-374.9339 204.1259,-385.1473 209.8801,-381.1612"/>
</g>
<!-- Node14997&#45;&gt;Node14997 -->
<g id="edge14" class="edge">
<title>Node14997&#45;&gt;Node14997</title>
<path fill="none" stroke="#191970" d="M168.4941,-383.8288C169.6021,-389.1116 178.4374,-393.1748 195,-393.1748 220.2383,-393.1748 227.5337,-383.7401 216.8863,-374.9319"/>
<polygon fill="#191970" stroke="#191970" points="171.6117,-385.4197 173.1137,-374.9319 165.3992,-382.194 171.6117,-385.4197"/>
</g>
<!-- Node14997&#45;&gt;Node14919 -->
<g id="edge15" class="edge">
<title>Node14997&#45;&gt;Node14919</title>
<path fill="none" stroke="#191970" d="M217.7583,-380.2264C235.3398,-391.4157 260.551,-406.5252 284,-417.1748 296.1603,-422.6976 309.9812,-427.6295 322.2089,-431.5646"/>
<polygon fill="#191970" stroke="#191970" points="219.6102,-377.256 209.3095,-374.7768 215.8159,-383.1385 219.6102,-377.256"/>
</g>
<!-- Node14997&#45;&gt;Node14444 -->
<g id="edge16" class="edge">
<title>Node14997&#45;&gt;Node14444</title>
<path fill="none" stroke="#191970" d="M258.1916,-375.5357C266.853,-376.8327 275.6391,-378.0846 284,-379.1748 345.1025,-387.1423 415.5577,-394.134 462.5397,-398.485"/>
<polygon fill="#191970" stroke="#191970" points="258.5273,-372.0465 248.114,-373.9992 257.4722,-378.9665 258.5273,-372.0465"/>
</g>
<!-- Node14997&#45;&gt;Node14998 -->
<g id="edge17" class="edge">
<title>Node14997&#45;&gt;Node14998</title>
<path fill="none" stroke="#191970" d="M216.3602,-349.475C233.8899,-337.0961 259.6951,-320.0054 284,-308.1748 291.449,-304.549 299.5619,-301.1937 307.5607,-298.1953"/>
<polygon fill="#191970" stroke="#191970" points="214.0893,-346.7964 207.9993,-355.4661 218.1666,-352.4864 214.0893,-346.7964"/>
</g>
<!-- Node14997&#45;&gt;Node15000 -->
<g id="edge18" class="edge">
<title>Node14997&#45;&gt;Node15000</title>
<path fill="none" stroke="#191970" d="M205.5007,-346.857C220.0755,-323.0798 248.6748,-281.9447 284,-259.1748 290.7171,-254.8451 298.3744,-251.4395 306.1226,-248.7644"/>
<polygon fill="#191970" stroke="#191970" points="202.4021,-345.2199 200.2942,-355.6029 208.417,-348.8006 202.4021,-345.2199"/>
</g>
<!-- Node14997&#45;&gt;Node14921 -->
<g id="edge19" class="edge">
<title>Node14997&#45;&gt;Node14921</title>
<path fill="none" stroke="#191970" d="M201.4282,-345.9706C212.9006,-314.7039 239.9189,-252.9961 284,-220.1748 289.254,-216.2629 295.2523,-213.1555 301.4899,-210.6874"/>
<polygon fill="#191970" stroke="#191970" points="198.0353,-345.0684 198.016,-355.6632 204.6381,-347.3928 198.0353,-345.0684"/>
</g>
<!-- Node14997&#45;&gt;Node14934 -->
<g id="edge20" class="edge">
<title>Node14997&#45;&gt;Node14934</title>
<path fill="none" stroke="#191970" d="M198.9502,-345.2748C207.5014,-307.5483 231.358,-225.5279 284,-182.1748 288.6599,-178.3372 294.0187,-175.2683 299.6628,-172.8152"/>
<polygon fill="#191970" stroke="#191970" points="195.4389,-344.9586 196.7729,-355.4691 202.2845,-346.4208 195.4389,-344.9586"/>
</g>
<!-- Node14997&#45;&gt;Node14938 -->
<g id="edge21" class="edge">
<title>Node14997&#45;&gt;Node14938</title>
<path fill="none" stroke="#191970" d="M197.0825,-345.4223C202.7176,-302.1988 222.2651,-198.7415 284,-144.1748 288.3306,-140.347 293.348,-137.2779 298.677,-134.8189"/>
<polygon fill="#191970" stroke="#191970" points="193.5908,-345.1456 195.8849,-355.489 200.5418,-345.9725 193.5908,-345.1456"/>
</g>
<!-- Node14997&#45;&gt;Node14451 -->
<g id="edge22" class="edge">
<title>Node14997&#45;&gt;Node14451</title>
<path fill="none" stroke="#191970" d="M258.1971,-362.2183C304.9885,-359.4916 370.1995,-354.5617 427,-346.1748 444.1007,-343.6498 462.8454,-339.7867 478.6639,-336.2017"/>
<polygon fill="#191970" stroke="#191970" points="257.9915,-358.7243 248.2052,-362.7835 258.3869,-365.7131 257.9915,-358.7243"/>
</g>
<!-- Node14997&#45;&gt;Node15001 -->
<g id="edge23" class="edge">
<title>Node14997&#45;&gt;Node15001</title>
<path fill="none" stroke="#191970" d="M199.2048,-345.688C211.2951,-291.3731 247.6214,-140.0494 284,-106.1748 288.1359,-102.3236 292.9623,-99.2349 298.1196,-96.7605"/>
<polygon fill="#191970" stroke="#191970" points="195.7847,-344.9445 197.0589,-355.4624 202.6219,-346.4456 195.7847,-344.9445"/>
</g>
<!-- Node14997&#45;&gt;Node14668 -->
<g id="edge24" class="edge">
<title>Node14997&#45;&gt;Node14668</title>
<path fill="none" stroke="#191970" d="M198.5136,-345.3959C209.4637,-285.7782 244.6051,-109.3925 284,-68.1748 287.7252,-64.2772 292.0912,-60.9868 296.7971,-58.2091"/>
<polygon fill="#191970" stroke="#191970" points="195.0399,-344.9369 196.7032,-355.4004 201.928,-346.1834 195.0399,-344.9369"/>
</g>
<!-- Node14997&#45;&gt;Node14507 -->
<g id="edge25" class="edge">
<title>Node14997&#45;&gt;Node14507</title>
<path fill="none" stroke="#191970" d="M245.2453,-353.2787C267.8052,-347.9374 294.0609,-341.7211 315.2903,-336.6949"/>
<polygon fill="#191970" stroke="#191970" points="244.4255,-349.876 235.5009,-355.5858 246.0383,-356.6877 244.4255,-349.876"/>
</g>
<!-- Node14507&#45;&gt;Node14444 -->
<g id="edge26" class="edge">
<title>Node14507&#45;&gt;Node14444</title>
<path fill="none" stroke="#191970" d="M385.0974,-341.2336C417.208,-356.4861 467.5978,-380.4213 495.4004,-393.6275"/>
<polygon fill="#191970" stroke="#191970" points="386.2986,-337.9294 375.7641,-336.8003 383.2952,-344.2524 386.2986,-337.9294"/>
</g>
<!-- Node14507&#45;&gt;Node14451 -->
<g id="edge27" class="edge">
<title>Node14507&#45;&gt;Node14451</title>
<path fill="none" stroke="#191970" d="M429.6728,-327.1748C446.7959,-327.1748 464.277,-327.1748 478.9557,-327.1748"/>
<polygon fill="#191970" stroke="#191970" points="429.6562,-323.6749 419.6562,-327.1748 429.6562,-330.6749 429.6562,-323.6749"/>
</g>
</g>
</svg>
