<?xml version="1.0" encoding="UTF-8" standalone="no"?>
<!DOCTYPE svg PUBLIC "-//W3C//DTD SVG 1.1//EN"
 "http://www.w3.org/Graphics/SVG/1.1/DTD/svg11.dtd">
<!-- Generated by graphviz version 2.40.1 (20161225.0304)
 -->
<!-- Title: mutt_needs_mailcap Pages: 1 -->
<svg width="293pt" height="66pt"
 viewBox="0.00 0.00 293.00 66.00" xmlns="http://www.w3.org/2000/svg" xmlns:xlink="http://www.w3.org/1999/xlink">
<g id="graph0" class="graph" transform="scale(1 1) rotate(0) translate(4 62)">
<title>mutt_needs_mailcap</title>
<polygon fill="#ffffff" stroke="transparent" points="-4,4 -4,-62 289,-62 289,4 -4,4"/>
<!-- Node17356 -->
<g id="node1" class="node">
<title>Node17356</title>
<polygon fill="#bfbfbf" stroke="#000000" points="0,-19.5 0,-38.5 119,-38.5 119,-19.5 0,-19.5"/>
<text text-anchor="middle" x="59.5" y="-26.5" font-family="Helvetica,sans-Serif" font-size="10.00" fill="#000000">mutt_needs_mailcap</text>
</g>
<!-- Node17357 -->
<g id="node2" class="node">
<title>Node17357</title>
<g id="a_node2"><a xlink:href="mutt__attach_8h.html#accdda994ba4457544dcf9ae681cfb6b9" target="_top" xlink:title="View an attachment. ">
<polygon fill="#ffffff" stroke="#ff0000" points="155,-38.5 155,-57.5 285,-57.5 285,-38.5 155,-38.5"/>
<text text-anchor="middle" x="220" y="-45.5" font-family="Helvetica,sans-Serif" font-size="10.00" fill="#000000">mutt_view_attachment</text>
</a>
</g>
</g>
<!-- Node17356&#45;&gt;Node17357 -->
<g id="edge1" class="edge">
<title>Node17356&#45;&gt;Node17357</title>
<path fill="none" stroke="#191970" d="M129.4393,-37.2794C137.8647,-38.2768 146.4442,-39.2925 154.7981,-40.2814"/>
<polygon fill="#191970" stroke="#191970" points="129.6064,-33.7748 119.2643,-36.0749 128.7834,-40.7263 129.6064,-33.7748"/>
</g>
<!-- Node17365 -->
<g id="node3" class="node">
<title>Node17365</title>
<g id="a_node3"><a xlink:href="send_8h.html#a95072c8ec793d76eddf1dfb47216fdda" target="_top" xlink:title="Send an email. ">
<polygon fill="#ffffff" stroke="#ff0000" points="168.5,-.5 168.5,-19.5 271.5,-19.5 271.5,-.5 168.5,-.5"/>
<text text-anchor="middle" x="220" y="-7.5" font-family="Helvetica,sans-Serif" font-size="10.00" fill="#000000">ci_send_message</text>
</a>
</g>
</g>
<!-- Node17356&#45;&gt;Node17365 -->
<g id="edge2" class="edge">
<title>Node17356&#45;&gt;Node17365</title>
<path fill="none" stroke="#191970" d="M129.2172,-20.7469C142.3615,-19.1908 155.8895,-17.5894 168.3575,-16.1134"/>
<polygon fill="#191970" stroke="#191970" points="128.7834,-17.2737 119.2643,-21.9251 129.6064,-24.2252 128.7834,-17.2737"/>
</g>
</g>
</svg>
