<?xml version="1.0" encoding="UTF-8" standalone="no"?>
<!DOCTYPE svg PUBLIC "-//W3C//DTD SVG 1.1//EN"
 "http://www.w3.org/Graphics/SVG/1.1/DTD/svg11.dtd">
<!-- Generated by graphviz version 12.2.1 (20241206.2353)
 -->
<!-- Title: mutt_istrn_cmp Pages: 1 -->
<svg width="259pt" height="190pt"
 viewBox="0.00 0.00 259.00 190.25" xmlns="http://www.w3.org/2000/svg" xmlns:xlink="http://www.w3.org/1999/xlink">
<g id="graph0" class="graph" transform="scale(1 1) rotate(0) translate(4 186.25)">
<title>mutt_istrn_cmp</title>
<!-- Node1 -->
<g id="Node000001" class="node">
<title>Node1</title>
<g id="a_Node000001"><a xlink:title="Compare two strings ignoring case (to a maximum), safely.">
<polygon fill="#999999" stroke="#666666" points="251,-102.25 163,-102.25 163,-80 251,-80 251,-102.25"/>
<text text-anchor="middle" x="207" y="-88.75" font-family="Helvetica,sans-Serif" font-size="10.00">mutt_istrn_cmp</text>
</a>
</g>
</g>
<!-- Node2 -->
<g id="Node000002" class="node">
<title>Node2</title>
<g id="a_Node000002"><a xlink:href="group__sort__email__api.html#gae27b87aebaaac2b97edad9891db0caf6" target="_top" xlink:title="Compare the &#39;from&#39; fields of two emails &#45; Implements sort_email_t &#45;.">
<polygon fill="#fff0f0" stroke="red" points="109,-182.25 18,-182.25 18,-160 109,-160 109,-182.25"/>
<text text-anchor="middle" x="63.5" y="-168.75" font-family="Helvetica,sans-Serif" font-size="10.00">email_sort_from</text>
</a>
</g>
</g>
<!-- Node1&#45;&gt;Node2 -->
<g id="edge1_Node000001_Node000002" class="edge">
<title>Node1&#45;&gt;Node2</title>
<g id="a_edge1_Node000001_Node000002"><a xlink:title=" ">
<path fill="none" stroke="#63b8ff" d="M185.2,-110.08C170,-123.11 148.38,-140 127,-151.12 120.83,-154.33 114.06,-157.15 107.31,-159.57"/>
<polygon fill="#63b8ff" stroke="#63b8ff" points="187.43,-112.78 192.64,-103.55 182.81,-107.51 187.43,-112.78"/>
</a>
</g>
</g>
<!-- Node87 -->
<g id="Node000087" class="node">
<title>Node87</title>
<g id="a_Node000087"><a xlink:href="group__sort__email__api.html#gac3a7a735ed7dfd9aa027beb88a1aa844" target="_top" xlink:title="Compare the &#39;to&#39; fields of two emails &#45; Implements sort_email_t &#45;.">
<polygon fill="#fff0f0" stroke="red" points="102.62,-142.25 24.38,-142.25 24.38,-120 102.62,-120 102.62,-142.25"/>
<text text-anchor="middle" x="63.5" y="-128.75" font-family="Helvetica,sans-Serif" font-size="10.00">email_sort_to</text>
</a>
</g>
</g>
<!-- Node1&#45;&gt;Node87 -->
<g id="edge2_Node000001_Node000087" class="edge">
<title>Node1&#45;&gt;Node87</title>
<g id="a_edge2_Node000001_Node000087"><a xlink:title=" ">
<path fill="none" stroke="#63b8ff" d="M154.2,-105.77C137.23,-110.56 118.7,-115.8 102.91,-120.27"/>
<polygon fill="#63b8ff" stroke="#63b8ff" points="154.95,-109.19 163.62,-103.11 153.04,-102.46 154.95,-109.19"/>
</a>
</g>
</g>
<!-- Node88 -->
<g id="Node000088" class="node">
<title>Node88</title>
<g id="a_Node000088"><a xlink:href="string2_8h.html#a51804523442c072745bf8cdef6a43938" target="_top" xlink:title=" ">
<polygon fill="white" stroke="#666666" points="111.62,-102.25 15.38,-102.25 15.38,-80 111.62,-80 111.62,-102.25"/>
<text text-anchor="middle" x="63.5" y="-88.75" font-family="Helvetica,sans-Serif" font-size="10.00">mutt_str_asprintf</text>
</a>
</g>
</g>
<!-- Node1&#45;&gt;Node88 -->
<g id="edge3_Node000001_Node000088" class="edge">
<title>Node1&#45;&gt;Node88</title>
<g id="a_edge3_Node000001_Node000088"><a xlink:title=" ">
<path fill="none" stroke="#63b8ff" d="M151.54,-91.12C138.47,-91.12 124.61,-91.12 111.89,-91.12"/>
<polygon fill="#63b8ff" stroke="#63b8ff" points="151.26,-94.63 161.26,-91.13 151.26,-87.63 151.26,-94.63"/>
</a>
</g>
</g>
<!-- Node89 -->
<g id="Node000089" class="node">
<title>Node89</title>
<g id="a_Node000089"><a xlink:href="send_2header_8c.html#a6ef86d7ae6a1f68fb3aad005cab8f961" target="_top" xlink:title="Compare a user&#45;defined header with an element of the UserhdrsOverrideHeaders list.">
<polygon fill="#fff0f0" stroke="red" points="127,-62.25 0,-62.25 0,-40 127,-40 127,-62.25"/>
<text text-anchor="middle" x="63.5" y="-48.75" font-family="Helvetica,sans-Serif" font-size="10.00">userhdrs_override_cmp</text>
</a>
</g>
</g>
<!-- Node1&#45;&gt;Node89 -->
<g id="edge4_Node000001_Node000089" class="edge">
<title>Node1&#45;&gt;Node89</title>
<g id="a_edge4_Node000001_Node000089"><a xlink:title=" ">
<path fill="none" stroke="#63b8ff" d="M154.2,-76.48C138.09,-71.93 120.58,-66.98 105.34,-62.67"/>
<polygon fill="#63b8ff" stroke="#63b8ff" points="153.04,-79.79 163.62,-79.14 154.95,-73.06 153.04,-79.79"/>
</a>
</g>
</g>
<!-- Node781 -->
<g id="Node000781" class="node">
<title>Node781</title>
<g id="a_Node000781"><a xlink:href="crypt__gpgme_8c.html#a10e8fb8f5b9b458202bc424762ff96cd" target="_top" xlink:title="Verify the sender of a message.">
<polygon fill="#fff0f0" stroke="red" points="103.75,-22.25 23.25,-22.25 23.25,0 103.75,0 103.75,-22.25"/>
<text text-anchor="middle" x="63.5" y="-8.75" font-family="Helvetica,sans-Serif" font-size="10.00">verify_sender</text>
</a>
</g>
</g>
<!-- Node1&#45;&gt;Node781 -->
<g id="edge5_Node000001_Node000781" class="edge">
<title>Node1&#45;&gt;Node781</title>
<g id="a_edge5_Node000001_Node000781"><a xlink:title=" ">
<path fill="none" stroke="#63b8ff" d="M185.2,-72.17C170,-59.14 148.38,-42.25 127,-31.12 119.82,-27.39 111.82,-24.19 104,-21.52"/>
<polygon fill="#63b8ff" stroke="#63b8ff" points="182.81,-74.74 192.64,-78.7 187.43,-69.47 182.81,-74.74"/>
</a>
</g>
</g>
</g>
</svg>
