<?xml version="1.0" encoding="UTF-8" standalone="no"?>
<!DOCTYPE svg PUBLIC "-//W3C//DTD SVG 1.1//EN"
 "http://www.w3.org/Graphics/SVG/1.1/DTD/svg11.dtd">
<!-- Generated by graphviz version 2.40.1 (20161225.0304)
 -->
<!-- Title: mutt/message.h Pages: 1 -->
<svg width="856pt" height="84pt"
 viewBox="0.00 0.00 855.50 84.00" xmlns="http://www.w3.org/2000/svg" xmlns:xlink="http://www.w3.org/1999/xlink">
<g id="graph0" class="graph" transform="scale(1 1) rotate(0) translate(4 80)">
<title>mutt/message.h</title>
<polygon fill="#ffffff" stroke="transparent" points="-4,4 -4,-80 851.5,-80 851.5,4 -4,4"/>
<!-- Node2 -->
<g id="node1" class="node">
<title>Node2</title>
<polygon fill="#bfbfbf" stroke="#000000" points="370,-56.5 370,-75.5 466,-75.5 466,-56.5 370,-56.5"/>
<text text-anchor="middle" x="418" y="-63.5" font-family="Helvetica,sans-Serif" font-size="10.00" fill="#000000">mutt/message.h</text>
</g>
<!-- Node3 -->
<g id="node2" class="node">
<title>Node3</title>
<g id="a_node2"><a xlink:href="mutt_2lib_8h.html" target="_top" xlink:title="Convenience wrapper for the library headers. ">
<polygon fill="#ffffff" stroke="#ff0000" points="0,-.5 0,-19.5 64,-19.5 64,-.5 0,-.5"/>
<text text-anchor="middle" x="32" y="-7.5" font-family="Helvetica,sans-Serif" font-size="10.00" fill="#000000">mutt/lib.h</text>
</a>
</g>
</g>
<!-- Node2&#45;&gt;Node3 -->
<g id="edge1" class="edge">
<title>Node2&#45;&gt;Node3</title>
<path fill="none" stroke="#191970" d="M359.533,-60.1284C290.6683,-52.769 172.9788,-38.8023 73,-20 70.1198,-19.4583 67.1387,-18.8418 64.1585,-18.187"/>
<polygon fill="#191970" stroke="#191970" points="359.4305,-63.637 369.7434,-61.2093 360.1675,-56.6759 359.4305,-63.637"/>
</g>
<!-- Node627 -->
<g id="node3" class="node">
<title>Node627</title>
<g id="a_node3"><a xlink:href="file_8c.html" target="_top" xlink:title="File management functions. ">
<polygon fill="#ffffff" stroke="#000000" points="82,-.5 82,-19.5 148,-19.5 148,-.5 82,-.5"/>
<text text-anchor="middle" x="115" y="-7.5" font-family="Helvetica,sans-Serif" font-size="10.00" fill="#000000">mutt/file.c</text>
</a>
</g>
</g>
<!-- Node2&#45;&gt;Node627 -->
<g id="edge2" class="edge">
<title>Node2&#45;&gt;Node627</title>
<path fill="none" stroke="#191970" d="M359.8331,-56.7631C306.8154,-48.1033 226.4177,-34.3681 157,-20 154.2108,-19.4227 151.3243,-18.7964 148.4307,-18.1485"/>
<polygon fill="#191970" stroke="#191970" points="359.3003,-60.2223 369.7325,-58.373 360.424,-53.3131 359.3003,-60.2223"/>
</g>
<!-- Node628 -->
<g id="node4" class="node">
<title>Node628</title>
<g id="a_node4"><a xlink:href="history_8c.html" target="_top" xlink:title="Read/write command history from/to a file. ">
<polygon fill="#ffffff" stroke="#000000" points="166.5,-.5 166.5,-19.5 249.5,-19.5 249.5,-.5 166.5,-.5"/>
<text text-anchor="middle" x="208" y="-7.5" font-family="Helvetica,sans-Serif" font-size="10.00" fill="#000000">mutt/history.c</text>
</a>
</g>
</g>
<!-- Node2&#45;&gt;Node628 -->
<g id="edge3" class="edge">
<title>Node2&#45;&gt;Node628</title>
<path fill="none" stroke="#191970" d="M371.9496,-53.7199C333.3355,-43.4228 278.9861,-28.9296 243.6292,-19.5011"/>
<polygon fill="#191970" stroke="#191970" points="371.3355,-57.1784 381.8997,-56.3733 373.1392,-50.4147 371.3355,-57.1784"/>
</g>
<!-- Node629 -->
<g id="node5" class="node">
<title>Node629</title>
<g id="a_node5"><a xlink:href="logging_8c.html" target="_top" xlink:title="Logging Dispatcher. ">
<polygon fill="#ffffff" stroke="#000000" points="267.5,-.5 267.5,-19.5 354.5,-19.5 354.5,-.5 267.5,-.5"/>
<text text-anchor="middle" x="311" y="-7.5" font-family="Helvetica,sans-Serif" font-size="10.00" fill="#000000">mutt/logging.c</text>
</a>
</g>
</g>
<!-- Node2&#45;&gt;Node629 -->
<g id="edge4" class="edge">
<title>Node2&#45;&gt;Node629</title>
<path fill="none" stroke="#191970" d="M390.4801,-51.5971C371.2983,-41.558 346.2322,-28.4393 329.4244,-19.6427"/>
<polygon fill="#191970" stroke="#191970" points="388.8791,-54.7095 399.362,-56.2455 392.125,-48.5075 388.8791,-54.7095"/>
</g>
<!-- Node630 -->
<g id="node6" class="node">
<title>Node630</title>
<g id="a_node6"><a xlink:href="memory_8c.html" target="_top" xlink:title="Memory management wrappers. ">
<polygon fill="#ffffff" stroke="#000000" points="372.5,-.5 372.5,-19.5 463.5,-19.5 463.5,-.5 372.5,-.5"/>
<text text-anchor="middle" x="418" y="-7.5" font-family="Helvetica,sans-Serif" font-size="10.00" fill="#000000">mutt/memory.c</text>
</a>
</g>
</g>
<!-- Node2&#45;&gt;Node630 -->
<g id="edge5" class="edge">
<title>Node2&#45;&gt;Node630</title>
<path fill="none" stroke="#191970" d="M418,-46.1575C418,-37.155 418,-26.9199 418,-19.6427"/>
<polygon fill="#191970" stroke="#191970" points="414.5001,-46.2455 418,-56.2455 421.5001,-46.2456 414.5001,-46.2455"/>
</g>
<!-- Node631 -->
<g id="node7" class="node">
<title>Node631</title>
<g id="a_node7"><a xlink:href="mutt_2path_8c.html" target="_top" xlink:title="Path manipulation functions. ">
<polygon fill="#ffffff" stroke="#000000" points="481.5,-.5 481.5,-19.5 554.5,-19.5 554.5,-.5 481.5,-.5"/>
<text text-anchor="middle" x="518" y="-7.5" font-family="Helvetica,sans-Serif" font-size="10.00" fill="#000000">mutt/path.c</text>
</a>
</g>
</g>
<!-- Node2&#45;&gt;Node631 -->
<g id="edge6" class="edge">
<title>Node2&#45;&gt;Node631</title>
<path fill="none" stroke="#191970" d="M444.2098,-51.3225C462.0717,-41.3198 485.2155,-28.3593 500.7809,-19.6427"/>
<polygon fill="#191970" stroke="#191970" points="442.4336,-48.3057 435.4187,-56.2455 445.8539,-54.4132 442.4336,-48.3057"/>
</g>
<!-- Node632 -->
<g id="node8" class="node">
<title>Node632</title>
<g id="a_node8"><a xlink:href="mutt_2regex_8c.html" target="_top" xlink:title="Manage regular expressions. ">
<polygon fill="#ffffff" stroke="#000000" points="572.5,-.5 572.5,-19.5 651.5,-19.5 651.5,-.5 572.5,-.5"/>
<text text-anchor="middle" x="612" y="-7.5" font-family="Helvetica,sans-Serif" font-size="10.00" fill="#000000">mutt/regex.c</text>
</a>
</g>
</g>
<!-- Node2&#45;&gt;Node632 -->
<g id="edge7" class="edge">
<title>Node2&#45;&gt;Node632</title>
<path fill="none" stroke="#191970" d="M460.998,-53.5882C496.6408,-43.2996 546.5614,-28.8895 579.0854,-19.5011"/>
<polygon fill="#191970" stroke="#191970" points="459.9868,-50.2371 451.3498,-56.3733 461.9282,-56.9625 459.9868,-50.2371"/>
</g>
<!-- Node633 -->
<g id="node9" class="node">
<title>Node633</title>
<g id="a_node9"><a xlink:href="signal_8c.html" target="_top" xlink:title="Signal handling. ">
<polygon fill="#ffffff" stroke="#000000" points="670,-.5 670,-19.5 750,-19.5 750,-.5 670,-.5"/>
<text text-anchor="middle" x="710" y="-7.5" font-family="Helvetica,sans-Serif" font-size="10.00" fill="#000000">mutt/signal.c</text>
</a>
</g>
</g>
<!-- Node2&#45;&gt;Node633 -->
<g id="edge8" class="edge">
<title>Node2&#45;&gt;Node633</title>
<path fill="none" stroke="#191970" d="M476.2888,-55.2067C525.542,-46.0288 597.9372,-32.4032 661,-20 663.8965,-19.4303 666.8879,-18.8356 669.898,-18.2324"/>
<polygon fill="#191970" stroke="#191970" points="475.6398,-51.7673 466.4492,-57.0384 476.9209,-58.6491 475.6398,-51.7673"/>
</g>
<!-- Node634 -->
<g id="node10" class="node">
<title>Node634</title>
<g id="a_node10"><a xlink:href="mutt_2string_8c.html" target="_top" xlink:title="String manipulation functions. ">
<polygon fill="#ffffff" stroke="#000000" points="768.5,-.5 768.5,-19.5 847.5,-19.5 847.5,-.5 768.5,-.5"/>
<text text-anchor="middle" x="808" y="-7.5" font-family="Helvetica,sans-Serif" font-size="10.00" fill="#000000">mutt/string.c</text>
</a>
</g>
</g>
<!-- Node2&#45;&gt;Node634 -->
<g id="edge9" class="edge">
<title>Node2&#45;&gt;Node634</title>
<path fill="none" stroke="#191970" d="M476.2459,-59.3517C544.2777,-51.3068 660.1184,-36.7399 759,-20 762.0818,-19.4783 765.2658,-18.9055 768.4624,-18.3064"/>
<polygon fill="#191970" stroke="#191970" points="475.6781,-55.8942 466.1554,-60.5385 476.4959,-62.8463 475.6781,-55.8942"/>
</g>
</g>
</svg>
