<?xml version="1.0" encoding="UTF-8" standalone="no"?>
<!DOCTYPE svg PUBLIC "-//W3C//DTD SVG 1.1//EN"
 "http://www.w3.org/Graphics/SVG/1.1/DTD/svg11.dtd">
<!-- Generated by graphviz version 2.40.1 (20161225.0304)
 -->
<!-- Title: menu_redraw Pages: 1 -->
<svg width="251pt" height="256pt"
 viewBox="0.00 0.00 251.00 256.00" xmlns="http://www.w3.org/2000/svg" xmlns:xlink="http://www.w3.org/1999/xlink">
<g id="graph0" class="graph" transform="scale(1 1) rotate(0) translate(4 252)">
<title>menu_redraw</title>
<polygon fill="#ffffff" stroke="transparent" points="-4,4 -4,-252 247,-252 247,4 -4,4"/>
<!-- Node9378 -->
<g id="node1" class="node">
<title>Node9378</title>
<polygon fill="#bfbfbf" stroke="#000000" points="0,-114.5 0,-133.5 83,-133.5 83,-114.5 0,-114.5"/>
<text text-anchor="middle" x="41.5" y="-121.5" font-family="Helvetica,sans-Serif" font-size="10.00" fill="#000000">menu_redraw</text>
</g>
<!-- Node9379 -->
<g id="node2" class="node">
<title>Node9379</title>
<g id="a_node2"><a xlink:href="menu_8c.html#a7416efe55303324c07e1515bec5697d2" target="_top" xlink:title="Force the redraw of the Menu. ">
<polygon fill="#ffffff" stroke="#ff0000" points="129,-228.5 129,-247.5 233,-247.5 233,-228.5 129,-228.5"/>
<text text-anchor="middle" x="181" y="-235.5" font-family="Helvetica,sans-Serif" font-size="10.00" fill="#000000">menu_redraw_full</text>
</a>
</g>
</g>
<!-- Node9378&#45;&gt;Node9379 -->
<g id="edge1" class="edge">
<title>Node9378&#45;&gt;Node9379</title>
<path fill="none" stroke="#191970" d="M46.7368,-133.6664C57.6185,-152.8429 84.5558,-195.8411 119,-219 121.9385,-220.9758 125.0909,-222.7528 128.3602,-224.3502"/>
<polygon fill="#191970" stroke="#191970" points="127.2325,-227.6746 137.803,-228.392 129.987,-221.2393 127.2325,-227.6746"/>
</g>
<!-- Node9399 -->
<g id="node3" class="node">
<title>Node9399</title>
<g id="a_node3"><a xlink:href="menu_8c.html#a71465e725b041bc3175323d0210f69ca" target="_top" xlink:title="Recentre the menu on screen. ">
<polygon fill="#ffffff" stroke="#000000" points="119,-190.5 119,-209.5 243,-209.5 243,-190.5 119,-190.5"/>
<text text-anchor="middle" x="181" y="-197.5" font-family="Helvetica,sans-Serif" font-size="10.00" fill="#000000">menu_check_recenter</text>
</a>
</g>
</g>
<!-- Node9378&#45;&gt;Node9399 -->
<g id="edge2" class="edge">
<title>Node9378&#45;&gt;Node9399</title>
<path fill="none" stroke="#191970" d="M52.2682,-133.7808C66.5624,-146.3063 93.0339,-167.9485 119,-181 123.3599,-183.1914 128.0207,-185.1855 132.7556,-186.9861"/>
<polygon fill="#191970" stroke="#191970" points="131.9111,-190.3991 142.506,-190.4119 134.2315,-183.7949 131.9111,-190.3991"/>
</g>
<!-- Node9400 -->
<g id="node4" class="node">
<title>Node9400</title>
<g id="a_node4"><a xlink:href="menu_8c.html#a3581b1d404de8b9d6e4000d20fd316b2" target="_top" xlink:title="Force the redraw of the status bar. ">
<polygon fill="#ffffff" stroke="#ff0000" points="121.5,-152.5 121.5,-171.5 240.5,-171.5 240.5,-152.5 121.5,-152.5"/>
<text text-anchor="middle" x="181" y="-159.5" font-family="Helvetica,sans-Serif" font-size="10.00" fill="#000000">menu_redraw_status</text>
</a>
</g>
</g>
<!-- Node9378&#45;&gt;Node9400 -->
<g id="edge3" class="edge">
<title>Node9378&#45;&gt;Node9400</title>
<path fill="none" stroke="#191970" d="M76.7017,-133.589C94.7099,-138.4944 116.8284,-144.5196 136.0556,-149.7571"/>
<polygon fill="#191970" stroke="#191970" points="135.2412,-153.1627 145.8095,-152.4141 137.081,-146.4088 135.2412,-153.1627"/>
</g>
<!-- Node9406 -->
<g id="node5" class="node">
<title>Node9406</title>
<g id="a_node5"><a xlink:href="menu_8c.html#a39b631a566b12a37364e82049e708dfa" target="_top" xlink:title="Force the redraw of the index. ">
<polygon fill="#ffffff" stroke="#ff0000" points="123,-114.5 123,-133.5 239,-133.5 239,-114.5 123,-114.5"/>
<text text-anchor="middle" x="181" y="-121.5" font-family="Helvetica,sans-Serif" font-size="10.00" fill="#000000">menu_redraw_index</text>
</a>
</g>
</g>
<!-- Node9378&#45;&gt;Node9406 -->
<g id="edge4" class="edge">
<title>Node9378&#45;&gt;Node9406</title>
<path fill="none" stroke="#191970" d="M83.3546,-124C92.6843,-124 102.8111,-124 112.8922,-124"/>
<polygon fill="#191970" stroke="#191970" points="112.9269,-127.5001 122.9268,-124 112.9268,-120.5001 112.9269,-127.5001"/>
</g>
<!-- Node9426 -->
<g id="node6" class="node">
<title>Node9426</title>
<g id="a_node6"><a xlink:href="menu_8c.html#adb45718706531be131e704b8af873338" target="_top" xlink:title="Force the redraw of the list part of the menu. ">
<polygon fill="#ffffff" stroke="#ff0000" points="119.5,-76.5 119.5,-95.5 242.5,-95.5 242.5,-76.5 119.5,-76.5"/>
<text text-anchor="middle" x="181" y="-83.5" font-family="Helvetica,sans-Serif" font-size="10.00" fill="#000000">menu_redraw_motion</text>
</a>
</g>
</g>
<!-- Node9378&#45;&gt;Node9426 -->
<g id="edge5" class="edge">
<title>Node9378&#45;&gt;Node9426</title>
<path fill="none" stroke="#191970" d="M76.7017,-114.411C94.7099,-109.5056 116.8284,-103.4804 136.0556,-98.2429"/>
<polygon fill="#191970" stroke="#191970" points="137.081,-101.5912 145.8095,-95.5859 135.2412,-94.8373 137.081,-101.5912"/>
</g>
<!-- Node9427 -->
<g id="node7" class="node">
<title>Node9427</title>
<g id="a_node7"><a xlink:href="menu_8c.html#a2367fdbd574e0b041ed3382121696602" target="_top" xlink:title="Redraw the current menu. ">
<polygon fill="#ffffff" stroke="#ff0000" points="119.5,-38.5 119.5,-57.5 242.5,-57.5 242.5,-38.5 119.5,-38.5"/>
<text text-anchor="middle" x="181" y="-45.5" font-family="Helvetica,sans-Serif" font-size="10.00" fill="#000000">menu_redraw_current</text>
</a>
</g>
</g>
<!-- Node9378&#45;&gt;Node9427 -->
<g id="edge6" class="edge">
<title>Node9378&#45;&gt;Node9427</title>
<path fill="none" stroke="#191970" d="M52.2682,-114.2192C66.5624,-101.6937 93.0339,-80.0515 119,-67 123.3599,-64.8086 128.0207,-62.8145 132.7556,-61.0139"/>
<polygon fill="#191970" stroke="#191970" points="134.2315,-64.2051 142.506,-57.5881 131.9111,-57.6009 134.2315,-64.2051"/>
</g>
<!-- Node9428 -->
<g id="node8" class="node">
<title>Node9428</title>
<g id="a_node8"><a xlink:href="menu_8c.html#a721466278a119292b94cd645ff08a011" target="_top" xlink:title="Force the redraw of the message window. ">
<polygon fill="#ffffff" stroke="#ff0000" points="119,-.5 119,-19.5 243,-19.5 243,-.5 119,-.5"/>
<text text-anchor="middle" x="181" y="-7.5" font-family="Helvetica,sans-Serif" font-size="10.00" fill="#000000">menu_redraw_prompt</text>
</a>
</g>
</g>
<!-- Node9378&#45;&gt;Node9428 -->
<g id="edge7" class="edge">
<title>Node9378&#45;&gt;Node9428</title>
<path fill="none" stroke="#191970" d="M46.7368,-114.3336C57.6185,-95.1571 84.5558,-52.1589 119,-29 121.9385,-27.0242 125.0909,-25.2472 128.3602,-23.6498"/>
<polygon fill="#191970" stroke="#191970" points="129.987,-26.7607 137.803,-19.608 127.2325,-20.3254 129.987,-26.7607"/>
</g>
</g>
</svg>
