<?xml version="1.0" encoding="UTF-8" standalone="no"?>
<!DOCTYPE svg PUBLIC "-//W3C//DTD SVG 1.1//EN"
 "http://www.w3.org/Graphics/SVG/1.1/DTD/svg11.dtd">
<!-- Generated by graphviz version 12.2.1 (20241206.2353)
 -->
<!-- Title: mutt_is_text_part Pages: 1 -->
<svg width="445pt" height="242pt"
 viewBox="0.00 0.00 445.25 242.25" xmlns="http://www.w3.org/2000/svg" xmlns:xlink="http://www.w3.org/1999/xlink">
<g id="graph0" class="graph" transform="scale(1 1) rotate(0) translate(4 238.25)">
<title>mutt_is_text_part</title>
<!-- Node1 -->
<g id="Node000001" class="node">
<title>Node1</title>
<g id="a_Node000001"><a xlink:title="Is this part of an email in plain text?">
<polygon fill="#999999" stroke="#666666" points="437.25,-134.25 341,-134.25 341,-112 437.25,-112 437.25,-134.25"/>
<text text-anchor="middle" x="389.12" y="-120.75" font-family="Helvetica,sans-Serif" font-size="10.00">mutt_is_text_part</text>
</a>
</g>
</g>
<!-- Node2 -->
<g id="Node000002" class="node">
<title>Node2</title>
<g id="a_Node000002"><a xlink:href="group__expando__get__string__api.html#ga6d53e73e4fbfcfa05540d6075368e9bf" target="_top" xlink:title="Attachment: Charset &#45; Implements get_string_t &#45;.">
<polygon fill="white" stroke="#666666" points="279.12,-234.25 195.62,-234.25 195.62,-212 279.12,-212 279.12,-234.25"/>
<text text-anchor="middle" x="237.38" y="-220.75" font-family="Helvetica,sans-Serif" font-size="10.00">attach_charset</text>
</a>
</g>
</g>
<!-- Node1&#45;&gt;Node2 -->
<g id="edge1_Node000001_Node000002" class="edge">
<title>Node1&#45;&gt;Node2</title>
<g id="a_edge1_Node000001_Node000002"><a xlink:title=" ">
<path fill="none" stroke="#63b8ff" d="M372.03,-143.35C356.62,-161.44 331.8,-187.46 305,-203.12 297.18,-207.7 288.22,-211.3 279.47,-214.12"/>
<polygon fill="#63b8ff" stroke="#63b8ff" points="374.54,-145.8 378.23,-135.87 369.15,-141.33 374.54,-145.8"/>
</a>
</g>
</g>
<!-- Node3 -->
<g id="Node000003" class="node">
<title>Node3</title>
<g id="a_Node000003"><a xlink:href="copy__body_8c.html#ab139c8809243a6622ae10f716f984ed7" target="_top" xlink:title="Create a send&#45;mode duplicate from a receive&#45;mode body.">
<polygon fill="#fff0f0" stroke="red" points="283.62,-194.25 191.12,-194.25 191.12,-172 283.62,-172 283.62,-194.25"/>
<text text-anchor="middle" x="237.38" y="-180.75" font-family="Helvetica,sans-Serif" font-size="10.00">mutt_body_copy</text>
</a>
</g>
</g>
<!-- Node1&#45;&gt;Node3 -->
<g id="edge2_Node000001_Node000003" class="edge">
<title>Node1&#45;&gt;Node3</title>
<g id="a_edge2_Node000001_Node000003"><a xlink:title=" ">
<path fill="none" stroke="#63b8ff" d="M356.67,-139.7C341.33,-147.41 322.47,-156.35 305,-163.12 297.23,-166.14 288.81,-168.98 280.65,-171.52"/>
<polygon fill="#63b8ff" stroke="#63b8ff" points="358,-142.96 365.31,-135.29 354.81,-136.72 358,-142.96"/>
</a>
</g>
</g>
<!-- Node43 -->
<g id="Node000043" class="node">
<title>Node43</title>
<g id="a_Node000043"><a xlink:href="handler_8c.html#ad6e9c66285fee73e4d9553c565e10fa2" target="_top" xlink:title="Decode an email&#39;s attachment.">
<polygon fill="#fff0f0" stroke="red" points="305,-154.25 169.75,-154.25 169.75,-132 305,-132 305,-154.25"/>
<text text-anchor="middle" x="237.38" y="-140.75" font-family="Helvetica,sans-Serif" font-size="10.00">mutt_decode_attachment</text>
</a>
</g>
</g>
<!-- Node1&#45;&gt;Node43 -->
<g id="edge3_Node000001_Node000043" class="edge">
<title>Node1&#45;&gt;Node43</title>
<g id="a_edge3_Node000001_Node000043"><a xlink:title=" ">
<path fill="none" stroke="#63b8ff" d="M329.43,-130.96C321.55,-132.02 313.43,-133.1 305.42,-134.17"/>
<polygon fill="#63b8ff" stroke="#63b8ff" points="329.79,-134.45 339.24,-129.65 328.87,-127.51 329.79,-134.45"/>
</a>
</g>
</g>
<!-- Node771 -->
<g id="Node000771" class="node">
<title>Node771</title>
<g id="a_Node000771"><a xlink:href="handler_8c.html#a88df4ca81c59bfc2464df374863edfd9" target="_top" xlink:title="Run an appropriate decoder for an email.">
<polygon fill="#fff0f0" stroke="red" points="133.75,-134.25 0,-134.25 0,-112 133.75,-112 133.75,-134.25"/>
<text text-anchor="middle" x="66.88" y="-120.75" font-family="Helvetica,sans-Serif" font-size="10.00">run_decode_and_handler</text>
</a>
</g>
</g>
<!-- Node1&#45;&gt;Node771 -->
<g id="edge6_Node000001_Node000771" class="edge">
<title>Node1&#45;&gt;Node771</title>
<g id="a_edge6_Node000001_Node000771"><a xlink:title=" ">
<path fill="none" stroke="#63b8ff" d="M329.18,-123.12C273.97,-123.12 191.58,-123.12 134.12,-123.12"/>
<polygon fill="#63b8ff" stroke="#63b8ff" points="329.01,-126.63 339.01,-123.13 329.01,-119.63 329.01,-126.63"/>
</a>
</g>
</g>
<!-- Node618 -->
<g id="Node000618" class="node">
<title>Node618</title>
<g id="a_Node000618"><a xlink:href="group__compose__function__api.html#ga10705d068bd4ca1bfcd7bc19660a0a5e" target="_top" xlink:title="Toggle recoding of this attachment &#45; Implements compose_function_t &#45;.">
<polygon fill="white" stroke="#666666" points="297.5,-76.38 177.25,-76.38 177.25,-39.88 297.5,-39.88 297.5,-76.38"/>
<text text-anchor="start" x="185.25" y="-62.88" font-family="Helvetica,sans-Serif" font-size="10.00">op_attachment_toggle</text>
<text text-anchor="middle" x="237.38" y="-48.62" font-family="Helvetica,sans-Serif" font-size="10.00">_recode</text>
</a>
</g>
</g>
<!-- Node1&#45;&gt;Node618 -->
<g id="edge5_Node000001_Node000618" class="edge">
<title>Node1&#45;&gt;Node618</title>
<g id="a_edge5_Node000001_Node000618"><a xlink:title=" ">
<path fill="none" stroke="#63b8ff" d="M350.87,-106.95C329.78,-97.8 303.31,-86.31 281.35,-76.78"/>
<polygon fill="#63b8ff" stroke="#63b8ff" points="349.4,-110.13 359.96,-110.9 352.18,-103.71 349.4,-110.13"/>
</a>
</g>
</g>
<!-- Node773 -->
<g id="Node000773" class="node">
<title>Node773</title>
<g id="a_Node000773"><a xlink:href="send_2body_8c.html#a55c55e2f50317ab8226c0c2768e01ad0" target="_top" xlink:title="Should the Body be written as a text MIME part.">
<polygon fill="#fff0f0" stroke="red" points="287.75,-22.25 187,-22.25 187,0 287.75,0 287.75,-22.25"/>
<text text-anchor="middle" x="237.38" y="-8.75" font-family="Helvetica,sans-Serif" font-size="10.00">write_as_text_part</text>
</a>
</g>
</g>
<!-- Node1&#45;&gt;Node773 -->
<g id="edge7_Node000001_Node000773" class="edge">
<title>Node1&#45;&gt;Node773</title>
<g id="a_edge7_Node000001_Node000773"><a xlink:title=" ">
<path fill="none" stroke="#63b8ff" d="M374.54,-102.39C359.8,-81.48 334.4,-49.71 305,-31.12 299.79,-27.83 294.02,-25.06 288.11,-22.73"/>
<polygon fill="#63b8ff" stroke="#63b8ff" points="371.5,-104.15 380.03,-110.43 377.28,-100.2 371.5,-104.15"/>
</a>
</g>
</g>
<!-- Node43&#45;&gt;Node771 -->
<g id="edge4_Node000043_Node000771" class="edge">
<title>Node43&#45;&gt;Node771</title>
<g id="a_edge4_Node000043_Node000771"><a xlink:title=" ">
<path fill="none" stroke="#63b8ff" d="M158.07,-133.83C150.08,-132.88 142.02,-131.93 134.17,-130.99"/>
<polygon fill="#63b8ff" stroke="#63b8ff" points="157.45,-137.28 167.79,-134.98 158.27,-130.33 157.45,-137.28"/>
</a>
</g>
</g>
</g>
</svg>
