<?xml version="1.0" encoding="UTF-8" standalone="no"?>
<!DOCTYPE svg PUBLIC "-//W3C//DTD SVG 1.1//EN"
 "http://www.w3.org/Graphics/SVG/1.1/DTD/svg11.dtd">
<!-- Generated by graphviz version 2.40.1 (20161225.0304)
 -->
<!-- Title: test/file/mutt_file_resolve_symlink.c Pages: 1 -->
<svg width="407pt" height="151pt"
 viewBox="0.00 0.00 407.00 151.00" xmlns="http://www.w3.org/2000/svg" xmlns:xlink="http://www.w3.org/1999/xlink">
<g id="graph0" class="graph" transform="scale(1 1) rotate(0) translate(4 147)">
<title>test/file/mutt_file_resolve_symlink.c</title>
<polygon fill="#ffffff" stroke="transparent" points="-4,4 -4,-147 403,-147 403,4 -4,4"/>
<!-- Node0 -->
<g id="node1" class="node">
<title>Node0</title>
<polygon fill="#bfbfbf" stroke="#000000" points="139.5,-112.5 139.5,-142.5 249.5,-142.5 249.5,-112.5 139.5,-112.5"/>
<text text-anchor="start" x="147.5" y="-130.5" font-family="Helvetica,sans-Serif" font-size="10.00" fill="#000000">test/file/mutt_file</text>
<text text-anchor="middle" x="194.5" y="-119.5" font-family="Helvetica,sans-Serif" font-size="10.00" fill="#000000">_resolve_symlink.c</text>
</g>
<!-- Node1 -->
<g id="node2" class="node">
<title>Node1</title>
<polygon fill="#ffffff" stroke="#bfbfbf" points="0,-56.5 0,-75.5 55,-75.5 55,-56.5 0,-56.5"/>
<text text-anchor="middle" x="27.5" y="-63.5" font-family="Helvetica,sans-Serif" font-size="10.00" fill="#000000">config.h</text>
</g>
<!-- Node0&#45;&gt;Node1 -->
<g id="edge1" class="edge">
<title>Node0&#45;&gt;Node1</title>
<path fill="none" stroke="#191970" d="M153.6472,-112.4554C125.905,-102.239 89.5775,-88.8609 63.0345,-79.0861"/>
<polygon fill="#191970" stroke="#191970" points="63.9725,-75.7018 53.3791,-75.5303 61.5535,-82.2705 63.9725,-75.7018"/>
</g>
<!-- Node2 -->
<g id="node3" class="node">
<title>Node2</title>
<g id="a_node3"><a xlink:href="acutest_8h.html" target="_top" xlink:title="acutest.h">
<polygon fill="#ffffff" stroke="#ff0000" points="114.5,-.5 114.5,-19.5 176.5,-19.5 176.5,-.5 114.5,-.5"/>
<text text-anchor="middle" x="145.5" y="-7.5" font-family="Helvetica,sans-Serif" font-size="10.00" fill="#000000">acutest.h</text>
</a>
</g>
</g>
<!-- Node0&#45;&gt;Node2 -->
<g id="edge2" class="edge">
<title>Node0&#45;&gt;Node2</title>
<path fill="none" stroke="#191970" d="M146.8642,-112.4168C129.7724,-104.445 112.3127,-92.7385 102.5,-76 92.252,-58.5189 108.2722,-39.1635 123.5859,-25.9597"/>
<polygon fill="#191970" stroke="#191970" points="125.8071,-28.6647 131.3867,-19.6582 121.4083,-23.2194 125.8071,-28.6647"/>
</g>
<!-- Node9 -->
<g id="node4" class="node">
<title>Node9</title>
<polygon fill="#ffffff" stroke="#bfbfbf" points="346,-56.5 346,-75.5 399,-75.5 399,-56.5 346,-56.5"/>
<text text-anchor="middle" x="372.5" y="-63.5" font-family="Helvetica,sans-Serif" font-size="10.00" fill="#000000">limits.h</text>
</g>
<!-- Node0&#45;&gt;Node9 -->
<g id="edge3" class="edge">
<title>Node0&#45;&gt;Node9</title>
<path fill="none" stroke="#191970" d="M238.0437,-112.4554C268.242,-102.0217 307.9845,-88.2905 336.4154,-78.4674"/>
<polygon fill="#191970" stroke="#191970" points="337.657,-81.7415 345.9658,-75.1677 335.371,-75.1253 337.657,-81.7415"/>
</g>
<!-- Node10 -->
<g id="node5" class="node">
<title>Node10</title>
<g id="a_node5"><a xlink:href="mutt_2lib_8h.html" target="_top" xlink:title="Convenience wrapper for the library headers. ">
<polygon fill="#ffffff" stroke="#ff0000" points="211.5,-.5 211.5,-19.5 275.5,-19.5 275.5,-.5 211.5,-.5"/>
<text text-anchor="middle" x="243.5" y="-7.5" font-family="Helvetica,sans-Serif" font-size="10.00" fill="#000000">mutt/lib.h</text>
</a>
</g>
</g>
<!-- Node0&#45;&gt;Node10 -->
<g id="edge4" class="edge">
<title>Node0&#45;&gt;Node10</title>
<path fill="none" stroke="#191970" d="M249.5397,-113.3092C268.3983,-105.5269 287.5026,-93.7177 298.5,-76 310.2325,-57.0979 289.6224,-37.817 270.3751,-25.0154"/>
<polygon fill="#191970" stroke="#191970" points="272.0819,-21.9546 261.7488,-19.6142 268.367,-27.8876 272.0819,-21.9546"/>
</g>
<!-- Node49 -->
<g id="node6" class="node">
<title>Node49</title>
<g id="a_node6"><a xlink:href="file_2common_8h.html" target="_top" xlink:title="Common code for file tests. ">
<polygon fill="#ffffff" stroke="#ff0000" points="111.5,-56.5 111.5,-75.5 179.5,-75.5 179.5,-56.5 111.5,-56.5"/>
<text text-anchor="middle" x="145.5" y="-63.5" font-family="Helvetica,sans-Serif" font-size="10.00" fill="#000000">common.h</text>
</a>
</g>
</g>
<!-- Node0&#45;&gt;Node49 -->
<g id="edge5" class="edge">
<title>Node0&#45;&gt;Node49</title>
<path fill="none" stroke="#191970" d="M182.3876,-112.2977C175.5151,-103.672 166.8777,-92.8312 159.689,-83.8087"/>
<polygon fill="#191970" stroke="#191970" points="162.3144,-81.487 153.3455,-75.8469 156.8396,-85.849 162.3144,-81.487"/>
</g>
<!-- Node50 -->
<g id="node7" class="node">
<title>Node50</title>
<g id="a_node7"><a xlink:href="test__common_8h.html" target="_top" xlink:title="Common code for file tests. ">
<polygon fill="#ffffff" stroke="#ff0000" points="197.5,-56.5 197.5,-75.5 289.5,-75.5 289.5,-56.5 197.5,-56.5"/>
<text text-anchor="middle" x="243.5" y="-63.5" font-family="Helvetica,sans-Serif" font-size="10.00" fill="#000000">test_common.h</text>
</a>
</g>
</g>
<!-- Node0&#45;&gt;Node50 -->
<g id="edge8" class="edge">
<title>Node0&#45;&gt;Node50</title>
<path fill="none" stroke="#191970" d="M206.6124,-112.2977C213.4849,-103.672 222.1223,-92.8312 229.311,-83.8087"/>
<polygon fill="#191970" stroke="#191970" points="232.1604,-85.849 235.6545,-75.8469 226.6856,-81.487 232.1604,-85.849"/>
</g>
<!-- Node49&#45;&gt;Node2 -->
<g id="edge6" class="edge">
<title>Node49&#45;&gt;Node2</title>
<path fill="none" stroke="#191970" d="M145.5,-56.2455C145.5,-48.9382 145.5,-38.6944 145.5,-29.7046"/>
<polygon fill="#191970" stroke="#191970" points="149.0001,-29.6426 145.5,-19.6427 142.0001,-29.6427 149.0001,-29.6426"/>
</g>
<!-- Node49&#45;&gt;Node10 -->
<g id="edge7" class="edge">
<title>Node49&#45;&gt;Node10</title>
<path fill="none" stroke="#191970" d="M162.5703,-56.2455C177.747,-47.5731 200.1621,-34.7645 217.5563,-24.825"/>
<polygon fill="#191970" stroke="#191970" points="219.6794,-27.643 226.6253,-19.6427 216.2064,-21.5653 219.6794,-27.643"/>
</g>
<!-- Node50&#45;&gt;Node2 -->
<g id="edge9" class="edge">
<title>Node50&#45;&gt;Node2</title>
<path fill="none" stroke="#191970" d="M226.4297,-56.2455C211.253,-47.5731 188.8379,-34.7645 171.4437,-24.825"/>
<polygon fill="#191970" stroke="#191970" points="172.7936,-21.5653 162.3747,-19.6427 169.3206,-27.643 172.7936,-21.5653"/>
</g>
<!-- Node50&#45;&gt;Node10 -->
<g id="edge10" class="edge">
<title>Node50&#45;&gt;Node10</title>
<path fill="none" stroke="#191970" d="M243.5,-56.2455C243.5,-48.9382 243.5,-38.6944 243.5,-29.7046"/>
<polygon fill="#191970" stroke="#191970" points="247.0001,-29.6426 243.5,-19.6427 240.0001,-29.6427 247.0001,-29.6426"/>
</g>
</g>
</svg>
