<?xml version="1.0" encoding="UTF-8" standalone="no"?>
<!DOCTYPE svg PUBLIC "-//W3C//DTD SVG 1.1//EN"
 "http://www.w3.org/Graphics/SVG/1.1/DTD/svg11.dtd">
<!-- Generated by graphviz version 2.40.1 (20161225.0304)
 -->
<!-- Title: notify_observer_remove Pages: 1 -->
<svg width="604pt" height="446pt"
 viewBox="0.00 0.00 604.00 446.00" xmlns="http://www.w3.org/2000/svg" xmlns:xlink="http://www.w3.org/1999/xlink">
<g id="graph0" class="graph" transform="scale(1 1) rotate(0) translate(4 442)">
<title>notify_observer_remove</title>
<polygon fill="#ffffff" stroke="transparent" points="-4,4 -4,-442 600,-442 600,4 -4,4"/>
<!-- Node3386 -->
<g id="node1" class="node">
<title>Node3386</title>
<polygon fill="#bfbfbf" stroke="#000000" points="0,-209.5 0,-228.5 136,-228.5 136,-209.5 0,-209.5"/>
<text text-anchor="middle" x="68" y="-216.5" font-family="Helvetica,sans-Serif" font-size="10.00" fill="#000000">notify_observer_remove</text>
</g>
<!-- Node3387 -->
<g id="node2" class="node">
<title>Node3387</title>
<g id="a_node2"><a xlink:href="addrbook_8h.html#a59acdb82d3702665725f276de01d7e80" target="_top" xlink:title="Display a menu of Aliases. ">
<polygon fill="#ffffff" stroke="#ff0000" points="172,-418.5 172,-437.5 273,-437.5 273,-418.5 172,-418.5"/>
<text text-anchor="middle" x="222.5" y="-425.5" font-family="Helvetica,sans-Serif" font-size="10.00" fill="#000000">mutt_alias_menu</text>
</a>
</g>
</g>
<!-- Node3386&#45;&gt;Node3387 -->
<g id="edge1" class="edge">
<title>Node3386&#45;&gt;Node3387</title>
<path fill="none" stroke="#191970" d="M74.3616,-238.3066C87.3234,-275.0028 120.0374,-355.4794 172,-404 178.4564,-410.0287 186.7037,-414.804 194.653,-418.4551"/>
<polygon fill="#191970" stroke="#191970" points="77.654,-237.1174 71.101,-228.7921 71.032,-239.3867 77.654,-237.1174"/>
</g>
<!-- Node3403 -->
<g id="node3" class="node">
<title>Node3403</title>
<g id="a_node3"><a xlink:href="browser_8h.html#a1b1aafefc53b33c690bc1fb659ec88db" target="_top" xlink:title="Let the user select a file. ">
<polygon fill="#ffffff" stroke="#ff0000" points="309.5,-342.5 309.5,-361.5 437.5,-361.5 437.5,-342.5 309.5,-342.5"/>
<text text-anchor="middle" x="373.5" y="-349.5" font-family="Helvetica,sans-Serif" font-size="10.00" fill="#000000">mutt_buffer_select_file</text>
</a>
</g>
</g>
<!-- Node3386&#45;&gt;Node3403 -->
<g id="edge2" class="edge">
<title>Node3386&#45;&gt;Node3403</title>
<path fill="none" stroke="#191970" d="M87.1932,-235.0133C107.2544,-251.0729 140.187,-275.5733 172,-291 229.304,-318.7877 248.0094,-314.6686 309,-333 319.2852,-336.0913 330.5082,-339.4146 340.6665,-342.4039"/>
<polygon fill="#191970" stroke="#191970" points="89.3919,-232.2901 79.4244,-228.6985 84.9766,-237.722 89.3919,-232.2901"/>
</g>
<!-- Node3396 -->
<g id="node4" class="node">
<title>Node3396</title>
<g id="a_node4"><a xlink:href="main_8c.html#adedb285b02c41bde2158ded9cc9fd7ac" target="_top" xlink:title="Start NeoMutt. ">
<polygon fill="#ffffff" stroke="#000000" points="514.5,-304.5 514.5,-323.5 555.5,-323.5 555.5,-304.5 514.5,-304.5"/>
<text text-anchor="middle" x="535" y="-311.5" font-family="Helvetica,sans-Serif" font-size="10.00" fill="#000000">main</text>
</a>
</g>
</g>
<!-- Node3386&#45;&gt;Node3396 -->
<g id="edge19" class="edge">
<title>Node3386&#45;&gt;Node3396</title>
<path fill="none" stroke="#191970" d="M82.0901,-236.619C100.6248,-258.7787 135.1849,-296.7354 172,-320 226.9236,-354.7078 245.0576,-359.4843 309,-371 365.4256,-381.1619 382.6776,-386.0514 438,-371 471.9255,-361.77 506.0986,-337.3398 523.3988,-323.6478"/>
<polygon fill="#191970" stroke="#191970" points="84.6394,-234.2083 75.5885,-228.7008 79.2294,-238.6504 84.6394,-234.2083"/>
</g>
<!-- Node3393 -->
<g id="node5" class="node">
<title>Node3393</title>
<g id="a_node5"><a xlink:href="compose_8h.html#a54b78dfdc053feef431b5c05177cc013" target="_top" xlink:title="Allow the user to edit the message envelope. ">
<polygon fill="#ffffff" stroke="#ff0000" points="474,-209.5 474,-228.5 596,-228.5 596,-209.5 474,-209.5"/>
<text text-anchor="middle" x="535" y="-216.5" font-family="Helvetica,sans-Serif" font-size="10.00" fill="#000000">mutt_compose_menu</text>
</a>
</g>
</g>
<!-- Node3386&#45;&gt;Node3393 -->
<g id="edge4" class="edge">
<title>Node3386&#45;&gt;Node3393</title>
<path fill="none" stroke="#191970" d="M84.0544,-202.0739C103.0074,-183.4435 136.4713,-154.5982 172,-143 302.0678,-100.5398 466.3205,-180.9364 518.3853,-209.4847"/>
<polygon fill="#191970" stroke="#191970" points="81.3991,-199.7814 76.8563,-209.3529 86.3765,-204.7034 81.3991,-199.7814"/>
</g>
<!-- Node3691 -->
<g id="node6" class="node">
<title>Node3691</title>
<g id="a_node6"><a xlink:href="context_8h.html#a438aad8b9b9193a15648a4f1f8039cfb" target="_top" xlink:title="Free a Context. ">
<polygon fill="#ffffff" stroke="#ff0000" points="345.5,-190.5 345.5,-209.5 401.5,-209.5 401.5,-190.5 345.5,-190.5"/>
<text text-anchor="middle" x="373.5" y="-197.5" font-family="Helvetica,sans-Serif" font-size="10.00" fill="#000000">ctx_free</text>
</a>
</g>
</g>
<!-- Node3386&#45;&gt;Node3691 -->
<g id="edge5" class="edge">
<title>Node3386&#45;&gt;Node3691</title>
<path fill="none" stroke="#191970" d="M146.4254,-214.1225C211.6049,-210.0688 300.6582,-204.5303 345.4059,-201.7473"/>
<polygon fill="#191970" stroke="#191970" points="145.9433,-210.6456 136.1799,-214.7597 146.3779,-217.6321 145.9433,-210.6456"/>
</g>
<!-- Node3616 -->
<g id="node7" class="node">
<title>Node3616</title>
<g id="a_node7"><a xlink:href="index_8c.html#a1a3cfb6cd59fc6cd4365a161042e7f70" target="_top" xlink:title="Change to a different mailbox. ">
<polygon fill="#ffffff" stroke="#ff0000" points="477,-133.5 477,-152.5 593,-152.5 593,-133.5 477,-133.5"/>
<text text-anchor="middle" x="535" y="-140.5" font-family="Helvetica,sans-Serif" font-size="10.00" fill="#000000">main_change_folder</text>
</a>
</g>
</g>
<!-- Node3386&#45;&gt;Node3616 -->
<g id="edge15" class="edge">
<title>Node3386&#45;&gt;Node3616</title>
<path fill="none" stroke="#191970" d="M80.8149,-201.4239C98.4214,-178.9409 132.4475,-141.1053 172,-126 287.5186,-81.883 438.9333,-115.2853 503.5633,-133.366"/>
<polygon fill="#191970" stroke="#191970" points="77.9595,-199.3967 74.6969,-209.4767 83.5334,-203.6314 77.9595,-199.3967"/>
</g>
<!-- Node3694 -->
<g id="node8" class="node">
<title>Node3694</title>
<g id="a_node8"><a xlink:href="context_8c.html#a6ca730227e40c11b688852141c0e4fc3" target="_top" xlink:title="Release memory and initialize a Context object. ">
<polygon fill="#ffffff" stroke="#ff0000" points="185,-38.5 185,-57.5 260,-57.5 260,-38.5 185,-38.5"/>
<text text-anchor="middle" x="222.5" y="-45.5" font-family="Helvetica,sans-Serif" font-size="10.00" fill="#000000">ctx_cleanup</text>
</a>
</g>
</g>
<!-- Node3386&#45;&gt;Node3694 -->
<g id="edge9" class="edge">
<title>Node3386&#45;&gt;Node3694</title>
<path fill="none" stroke="#191970" d="M77.1001,-200.4224C92.7732,-170.0551 127.508,-109.4263 172,-72 178.9827,-66.1262 187.6462,-61.3301 195.8148,-57.6123"/>
<polygon fill="#191970" stroke="#191970" points="73.9083,-198.9788 72.5291,-209.4835 80.158,-202.1317 73.9083,-198.9788"/>
</g>
<!-- Node3902 -->
<g id="node9" class="node">
<title>Node3902</title>
<g id="a_node9"><a xlink:href="notify_8h.html#ae7fe885788b891a9f2b0bf6c5aae2613" target="_top" xlink:title="Free a notification handler. ">
<polygon fill="#ffffff" stroke="#ff0000" points="187.5,-152.5 187.5,-171.5 257.5,-171.5 257.5,-152.5 187.5,-152.5"/>
<text text-anchor="middle" x="222.5" y="-159.5" font-family="Helvetica,sans-Serif" font-size="10.00" fill="#000000">notify_free</text>
</a>
</g>
</g>
<!-- Node3386&#45;&gt;Node3902 -->
<g id="edge10" class="edge">
<title>Node3386&#45;&gt;Node3902</title>
<path fill="none" stroke="#191970" d="M103.4143,-205.9345C131.8133,-195.4572 171.0138,-180.9949 196.5558,-171.5716"/>
<polygon fill="#191970" stroke="#191970" points="102.0302,-202.7145 93.8598,-209.4595 104.4532,-209.2818 102.0302,-202.7145"/>
</g>
<!-- Node3399 -->
<g id="node10" class="node">
<title>Node3399</title>
<g id="a_node10"><a xlink:href="curs__lib_8h.html#a2509f872a1986db92a5a2b7d2a7e9759" target="_top" xlink:title="Display some page&#45;able text to the user. ">
<polygon fill="#ffffff" stroke="#ff0000" points="177.5,-.5 177.5,-19.5 267.5,-19.5 267.5,-.5 177.5,-.5"/>
<text text-anchor="middle" x="222.5" y="-7.5" font-family="Helvetica,sans-Serif" font-size="10.00" fill="#000000">mutt_do_pager</text>
</a>
</g>
</g>
<!-- Node3386&#45;&gt;Node3399 -->
<g id="edge12" class="edge">
<title>Node3386&#45;&gt;Node3399</title>
<path fill="none" stroke="#191970" d="M73.677,-199.2996C85.6349,-161.159 116.9489,-76.7905 172,-29 176.4565,-25.1313 181.7779,-22.016 187.2687,-19.5177"/>
<polygon fill="#191970" stroke="#191970" points="70.2386,-198.5785 70.6974,-209.1634 76.9396,-200.6027 70.2386,-198.5785"/>
</g>
<!-- Node3939 -->
<g id="node11" class="node">
<title>Node3939</title>
<g id="a_node11"><a xlink:href="mutt__window_8h.html#aadb13fedf9d2a52ad3ad923ff37a9240" target="_top" xlink:title="Free all the default Windows. ">
<polygon fill="#ffffff" stroke="#000000" points="311,-304.5 311,-323.5 436,-323.5 436,-304.5 311,-304.5"/>
<text text-anchor="middle" x="373.5" y="-311.5" font-family="Helvetica,sans-Serif" font-size="10.00" fill="#000000">mutt_window_free_all</text>
</a>
</g>
</g>
<!-- Node3386&#45;&gt;Node3939 -->
<g id="edge13" class="edge">
<title>Node3386&#45;&gt;Node3939</title>
<path fill="none" stroke="#191970" d="M96.7016,-232.9459C117.3098,-242.5796 145.9339,-255.1939 172,-264 223.5627,-281.4197 284.4026,-295.6854 325.6359,-304.4572"/>
<polygon fill="#191970" stroke="#191970" points="98.0919,-229.7318 87.5556,-228.62 95.099,-236.0597 98.0919,-229.7318"/>
</g>
<!-- Node3940 -->
<g id="node12" class="node">
<title>Node3940</title>
<g id="a_node12"><a xlink:href="index_8h.html#ae93257bea6017b396d3b5ee8c3cbe611" target="_top" xlink:title="Clear up any non&#45;Window parts. ">
<polygon fill="#ffffff" stroke="#000000" points="309,-266.5 309,-285.5 438,-285.5 438,-266.5 309,-266.5"/>
<text text-anchor="middle" x="373.5" y="-273.5" font-family="Helvetica,sans-Serif" font-size="10.00" fill="#000000">index_pager_shutdown</text>
</a>
</g>
</g>
<!-- Node3386&#45;&gt;Node3940 -->
<g id="edge16" class="edge">
<title>Node3386&#45;&gt;Node3940</title>
<path fill="none" stroke="#191970" d="M119.0795,-230.8351C135.8969,-234.5875 154.7144,-238.6325 172,-242 218.8362,-251.1244 272.079,-260.0463 312.0679,-266.4597"/>
<polygon fill="#191970" stroke="#191970" points="119.4227,-227.3249 108.8984,-228.5452 117.8866,-234.1543 119.4227,-227.3249"/>
</g>
<!-- Node3680 -->
<g id="node13" class="node">
<title>Node3680</title>
<g id="a_node13"><a xlink:href="remailer_8h.html#ac7fa88f7cf6fd502addd6aa38fcbc67d" target="_top" xlink:title="Create a Mixmaster chain. ">
<polygon fill="#ffffff" stroke="#000000" points="323.5,-228.5 323.5,-247.5 423.5,-247.5 423.5,-228.5 323.5,-228.5"/>
<text text-anchor="middle" x="373.5" y="-235.5" font-family="Helvetica,sans-Serif" font-size="10.00" fill="#000000">mix_make_chain</text>
</a>
</g>
</g>
<!-- Node3386&#45;&gt;Node3680 -->
<g id="edge20" class="edge">
<title>Node3386&#45;&gt;Node3680</title>
<path fill="none" stroke="#191970" d="M146.3566,-223.8732C201.9974,-227.3337 275.0623,-231.8779 323.1051,-234.8658"/>
<polygon fill="#191970" stroke="#191970" points="146.3779,-220.3679 136.1799,-223.2403 145.9433,-227.3544 146.3779,-220.3679"/>
</g>
<!-- Node3403&#45;&gt;Node3396 -->
<g id="edge3" class="edge">
<title>Node3403&#45;&gt;Node3396</title>
<path fill="none" stroke="#191970" d="M424.3058,-340.0457C454.7878,-332.8735 491.9019,-324.1407 514.4742,-318.8296"/>
<polygon fill="#191970" stroke="#191970" points="423.1858,-336.7136 414.2533,-342.411 424.7891,-343.5275 423.1858,-336.7136"/>
</g>
<!-- Node3691&#45;&gt;Node3396 -->
<g id="edge8" class="edge">
<title>Node3691&#45;&gt;Node3396</title>
<path fill="none" stroke="#191970" d="M411.3558,-207.8101C420.4444,-210.5742 429.8671,-214.2268 438,-219 477.6415,-242.2654 513.1726,-285.2079 527.8546,-304.3517"/>
<polygon fill="#191970" stroke="#191970" points="412.2722,-204.4322 401.7016,-205.1486 410.4118,-211.1805 412.2722,-204.4322"/>
</g>
<!-- Node3691&#45;&gt;Node3393 -->
<g id="edge6" class="edge">
<title>Node3691&#45;&gt;Node3393</title>
<path fill="none" stroke="#191970" d="M411.7222,-204.4967C430.2291,-206.674 452.9065,-209.3419 473.7423,-211.7932"/>
<polygon fill="#191970" stroke="#191970" points="411.9716,-201.002 401.6312,-203.3095 411.1537,-207.9541 411.9716,-201.002"/>
</g>
<!-- Node3691&#45;&gt;Node3616 -->
<g id="edge7" class="edge">
<title>Node3691&#45;&gt;Node3616</title>
<path fill="none" stroke="#191970" d="M410.1306,-187.0715C439.8464,-176.5836 481.0645,-162.0361 507.8803,-152.5716"/>
<polygon fill="#191970" stroke="#191970" points="408.7965,-183.8307 400.5315,-190.4595 411.1263,-190.4317 408.7965,-183.8307"/>
</g>
<!-- Node3902&#45;&gt;Node3691 -->
<g id="edge11" class="edge">
<title>Node3902&#45;&gt;Node3691</title>
<path fill="none" stroke="#191970" d="M267.2546,-173.2628C292.5141,-179.6195 323.3109,-187.3696 345.2309,-192.8859"/>
<polygon fill="#191970" stroke="#191970" points="268.0738,-169.8598 257.522,-170.8135 266.3654,-176.6482 268.0738,-169.8598"/>
</g>
<!-- Node3939&#45;&gt;Node3396 -->
<g id="edge14" class="edge">
<title>Node3939&#45;&gt;Node3396</title>
<path fill="none" stroke="#191970" d="M446.5457,-314C471.2789,-314 496.9851,-314 514.2688,-314"/>
<polygon fill="#191970" stroke="#191970" points="446.4026,-310.5001 436.4026,-314 446.4025,-317.5001 446.4026,-310.5001"/>
</g>
<!-- Node3940&#45;&gt;Node3396 -->
<g id="edge18" class="edge">
<title>Node3940&#45;&gt;Node3396</title>
<path fill="none" stroke="#191970" d="M424.3058,-287.9543C454.7878,-295.1265 491.9019,-303.8593 514.4742,-309.1704"/>
<polygon fill="#191970" stroke="#191970" points="424.7891,-284.4725 414.2533,-285.589 423.1858,-291.2864 424.7891,-284.4725"/>
</g>
<!-- Node3940&#45;&gt;Node3393 -->
<g id="edge17" class="edge">
<title>Node3940&#45;&gt;Node3393</title>
<path fill="none" stroke="#191970" d="M417.682,-263.5397C424.5161,-261.4527 431.4702,-259.2361 438,-257 463.6664,-248.2108 492.5573,-236.6752 512.0821,-228.6291"/>
<polygon fill="#191970" stroke="#191970" points="416.3951,-260.2714 407.8185,-266.4917 418.4022,-266.9775 416.3951,-260.2714"/>
</g>
<!-- Node3680&#45;&gt;Node3393 -->
<g id="edge21" class="edge">
<title>Node3680&#45;&gt;Node3393</title>
<path fill="none" stroke="#191970" d="M433.9512,-230.8881C446.9515,-229.3586 460.7023,-227.7409 473.7333,-226.2078"/>
<polygon fill="#191970" stroke="#191970" points="433.2369,-227.4479 423.7143,-232.0924 434.0548,-234.4 433.2369,-227.4479"/>
</g>
</g>
</svg>
