<?xml version="1.0" encoding="UTF-8" standalone="no"?>
<!DOCTYPE svg PUBLIC "-//W3C//DTD SVG 1.1//EN"
 "http://www.w3.org/Graphics/SVG/1.1/DTD/svg11.dtd">
<!-- Generated by graphviz version 2.40.1 (20161225.0304)
 -->
<!-- Title: slist_free Pages: 1 -->
<svg width="365pt" height="192pt"
 viewBox="0.00 0.00 365.00 191.50" xmlns="http://www.w3.org/2000/svg" xmlns:xlink="http://www.w3.org/1999/xlink">
<g id="graph0" class="graph" transform="scale(1 1) rotate(0) translate(4 187.5)">
<title>slist_free</title>
<polygon fill="#ffffff" stroke="transparent" points="-4,4 -4,-187.5 361,-187.5 361,4 -4,4"/>
<!-- Node45 -->
<g id="node1" class="node">
<title>Node45</title>
<polygon fill="#bfbfbf" stroke="#000000" points="0,-88 0,-107 62,-107 62,-88 0,-88"/>
<text text-anchor="middle" x="31" y="-95" font-family="Helvetica,sans-Serif" font-size="10.00" fill="#000000">slist_free</text>
</g>
<!-- Node46 -->
<g id="node2" class="node">
<title>Node46</title>
<g id="a_node2"><a xlink:href="config_2slist_8c.html#a4d0991f0c7ea664efcd83f406209f32a" target="_top" xlink:title="Destroy an Slist object &#45; Implements ConfigSetType::destroy() ">
<polygon fill="#ffffff" stroke="#ff0000" points="125,-164 125,-183 204,-183 204,-164 125,-164"/>
<text text-anchor="middle" x="164.5" y="-171" font-family="Helvetica,sans-Serif" font-size="10.00" fill="#000000">slist_destroy</text>
</a>
</g>
</g>
<!-- Node45&#45;&gt;Node46 -->
<g id="edge1" class="edge">
<title>Node45&#45;&gt;Node46</title>
<path fill="none" stroke="#191970" d="M48.8308,-113.863C61.7396,-125.054 80.0117,-139.5985 98,-149.5 108.5376,-155.3003 120.7527,-160.1769 131.8166,-163.9869"/>
<polygon fill="#191970" stroke="#191970" points="50.9828,-111.0934 41.1793,-107.0758 46.3377,-116.3301 50.9828,-111.0934"/>
</g>
<!-- Node47 -->
<g id="node3" class="node">
<title>Node47</title>
<g id="a_node3"><a xlink:href="config_2slist_8c.html#a038de06121ff19dcea9bb18d34df4ad9" target="_top" xlink:title="Set a Slist by string &#45; Implements ConfigSetType::string_set() ">
<polygon fill="#ffffff" stroke="#000000" points="267,-145 267,-164 357,-164 357,-145 267,-145"/>
<text text-anchor="middle" x="312" y="-152" font-family="Helvetica,sans-Serif" font-size="10.00" fill="#000000">slist_string_set</text>
</a>
</g>
</g>
<!-- Node45&#45;&gt;Node47 -->
<g id="edge3" class="edge">
<title>Node45&#45;&gt;Node47</title>
<path fill="none" stroke="#191970" d="M71.9781,-109.8254C80.536,-112.2007 89.5309,-114.5524 98,-116.5 155.7354,-129.777 223.1431,-141.0612 266.6443,-147.8033"/>
<polygon fill="#191970" stroke="#191970" points="72.766,-106.4109 62.1904,-107.0489 70.8556,-113.1451 72.766,-106.4109"/>
</g>
<!-- Node49 -->
<g id="node4" class="node">
<title>Node49</title>
<g id="a_node4"><a xlink:href="config_2slist_8c.html#a055775a6492a473ed984369f01e0eaea" target="_top" xlink:title="Set a Slist config item by Slist &#45; Implements ConfigSetType::native_set() ">
<polygon fill="#ffffff" stroke="#000000" points="118,-88 118,-107 211,-107 211,-88 118,-88"/>
<text text-anchor="middle" x="164.5" y="-95" font-family="Helvetica,sans-Serif" font-size="10.00" fill="#000000">slist_native_set</text>
</a>
</g>
</g>
<!-- Node45&#45;&gt;Node49 -->
<g id="edge4" class="edge">
<title>Node45&#45;&gt;Node49</title>
<path fill="none" stroke="#191970" d="M72.4309,-97.5C86.8592,-97.5 103.1403,-97.5 117.9553,-97.5"/>
<polygon fill="#191970" stroke="#191970" points="72.2999,-94.0001 62.2998,-97.5 72.2998,-101.0001 72.2999,-94.0001"/>
</g>
<!-- Node50 -->
<g id="node5" class="node">
<title>Node50</title>
<g id="a_node5"><a xlink:href="config_2slist_8c.html#acf2b7ffeec3e25e37e32866bf5831d7c" target="_top" xlink:title="Add to a Slist by string &#45; Implements ConfigSetType::string_plus_equals() ">
<polygon fill="#ffffff" stroke="#000000" points="98,-50 98,-69 231,-69 231,-50 98,-50"/>
<text text-anchor="middle" x="164.5" y="-57" font-family="Helvetica,sans-Serif" font-size="10.00" fill="#000000">slist_string_plus_equals</text>
</a>
</g>
</g>
<!-- Node45&#45;&gt;Node50 -->
<g id="edge5" class="edge">
<title>Node45&#45;&gt;Node50</title>
<path fill="none" stroke="#191970" d="M72.1399,-85.7898C91.0524,-80.4064 113.198,-74.1028 131.0626,-69.0178"/>
<polygon fill="#191970" stroke="#191970" points="70.9596,-82.4866 62.2998,-88.5907 72.876,-89.2192 70.9596,-82.4866"/>
</g>
<!-- Node51 -->
<g id="node6" class="node">
<title>Node51</title>
<g id="a_node6"><a xlink:href="config_2slist_8c.html#a138201e31e9ea0d582b2b8a4cc915b29" target="_top" xlink:title="Remove from a Slist by string &#45; Implements ConfigSetType::string_plus_equals() ">
<polygon fill="#ffffff" stroke="#000000" points="112,-.5 112,-30.5 217,-30.5 217,-.5 112,-.5"/>
<text text-anchor="start" x="120" y="-18.5" font-family="Helvetica,sans-Serif" font-size="10.00" fill="#000000">slist_string_minus</text>
<text text-anchor="middle" x="164.5" y="-7.5" font-family="Helvetica,sans-Serif" font-size="10.00" fill="#000000">_equals</text>
</a>
</g>
</g>
<!-- Node45&#45;&gt;Node51 -->
<g id="edge6" class="edge">
<title>Node45&#45;&gt;Node51</title>
<path fill="none" stroke="#191970" d="M47.3454,-80.7486C60.1957,-68.3221 79.0384,-51.6676 98,-40.5 104.2704,-36.807 111.1827,-33.4884 118.108,-30.5677"/>
<polygon fill="#191970" stroke="#191970" points="44.8142,-78.3294 40.1711,-87.8527 49.7396,-83.3034 44.8142,-78.3294"/>
</g>
<!-- Node46&#45;&gt;Node47 -->
<g id="edge2" class="edge">
<title>Node46&#45;&gt;Node47</title>
<path fill="none" stroke="#191970" d="M214.3366,-167.0804C231.3493,-164.8889 250.2659,-162.4522 266.8856,-160.3113"/>
<polygon fill="#191970" stroke="#191970" points="213.4982,-163.6594 204.0273,-168.4083 214.3925,-170.602 213.4982,-163.6594"/>
</g>
</g>
</svg>
