<?xml version="1.0" encoding="UTF-8" standalone="no"?>
<!DOCTYPE svg PUBLIC "-//W3C//DTD SVG 1.1//EN"
 "http://www.w3.org/Graphics/SVG/1.1/DTD/svg11.dtd">
<!-- Generated by graphviz version 2.44.0 (0)
 -->
<!-- Title: mutt_clear_threads Pages: 1 -->
<svg width="492pt" height="80pt"
 viewBox="0.00 0.00 492.00 79.98" xmlns="http://www.w3.org/2000/svg" xmlns:xlink="http://www.w3.org/1999/xlink">
<g id="graph0" class="graph" transform="scale(1 1) rotate(0) translate(4 75.98)">
<title>mutt_clear_threads</title>
<polygon fill="white" stroke="transparent" points="-4,4 -4,-75.98 488,-75.98 488,4 -4,4"/>
<!-- Node1 -->
<g id="node1" class="node">
<title>Node1</title>
<g id="a_node1"><a xlink:title="Clear the threading of message in a mailbox.">
<polygon fill="#bfbfbf" stroke="black" points="384,-38.5 384,-57.5 484,-57.5 484,-38.5 384,-38.5"/>
<text text-anchor="middle" x="434" y="-45.5" font-family="Helvetica" font-size="10.00">mutt_clear_threads</text>
</a>
</g>
</g>
<!-- Node2 -->
<g id="node2" class="node">
<title>Node2</title>
<g id="a_node2"><a xlink:href="context_8h.html#ae00c71eb34e06ec9e34fa63aeb38824f" target="_top" xlink:title="Watch for changes affecting the Context &#45; Implements observer_t.">
<polygon fill="white" stroke="red" points="0,-38.5 0,-57.5 112,-57.5 112,-38.5 0,-38.5"/>
<text text-anchor="middle" x="56" y="-45.5" font-family="Helvetica" font-size="10.00">ctx_mailbox_observer</text>
</a>
</g>
</g>
<!-- Node1&#45;&gt;Node2 -->
<g id="edge1" class="edge">
<title>Node1&#45;&gt;Node2</title>
<path fill="none" stroke="midnightblue" d="M373.71,-58.75C365.11,-60.02 356.34,-61.16 348,-62 259.53,-70.89 236.45,-76.13 148,-67 130.02,-65.14 110.35,-61.27 93.92,-57.51"/>
<polygon fill="midnightblue" stroke="midnightblue" points="374.35,-62.19 383.7,-57.2 373.28,-55.27 374.35,-62.19"/>
</g>
<!-- Node296 -->
<g id="node3" class="node">
<title>Node296</title>
<g id="a_node3"><a xlink:href="context_8h.html#a9388581d0baec70c2962fdb99fd1a35c" target="_top" xlink:title="Update the Context&#39;s message counts.">
<polygon fill="white" stroke="red" points="148,-38.5 148,-57.5 213,-57.5 213,-38.5 148,-38.5"/>
<text text-anchor="middle" x="180.5" y="-45.5" font-family="Helvetica" font-size="10.00">ctx_update</text>
</a>
</g>
</g>
<!-- Node1&#45;&gt;Node296 -->
<g id="edge2" class="edge">
<title>Node1&#45;&gt;Node296</title>
<path fill="none" stroke="midnightblue" d="M373.84,-48C323.65,-48 253.58,-48 213.34,-48"/>
<polygon fill="midnightblue" stroke="midnightblue" points="373.91,-51.5 383.91,-48 373.91,-44.5 373.91,-51.5"/>
</g>
<!-- Node299 -->
<g id="node4" class="node">
<title>Node299</title>
<g id="a_node4"><a xlink:href="sort_8h.html#a1584f893fd698002518500ee3139b75d" target="_top" xlink:title="Sort emails by their headers.">
<polygon fill="white" stroke="red" points="249,-0.5 249,-19.5 348,-19.5 348,-0.5 249,-0.5"/>
<text text-anchor="middle" x="298.5" y="-7.5" font-family="Helvetica" font-size="10.00">mutt_sort_headers</text>
</a>
</g>
</g>
<!-- Node1&#45;&gt;Node299 -->
<g id="edge4" class="edge">
<title>Node1&#45;&gt;Node299</title>
<path fill="none" stroke="midnightblue" d="M389.47,-35.61C371.19,-30.41 350.25,-24.45 333.18,-19.59"/>
<polygon fill="midnightblue" stroke="midnightblue" points="388.74,-39.04 399.31,-38.41 390.65,-32.31 388.74,-39.04"/>
</g>
<!-- Node296&#45;&gt;Node2 -->
<g id="edge3" class="edge">
<title>Node296&#45;&gt;Node2</title>
<path fill="none" stroke="midnightblue" d="M137.84,-48C129.6,-48 120.82,-48 112.21,-48"/>
<polygon fill="midnightblue" stroke="midnightblue" points="137.95,-51.5 147.95,-48 137.95,-44.5 137.95,-51.5"/>
</g>
<!-- Node299&#45;&gt;Node2 -->
<g id="edge5" class="edge">
<title>Node299&#45;&gt;Node2</title>
<path fill="none" stroke="midnightblue" d="M238.6,-16.39C211.01,-19.66 177.74,-24.01 148,-29 132.08,-31.67 114.72,-35.15 99.46,-38.41"/>
<polygon fill="midnightblue" stroke="midnightblue" points="239.35,-19.83 248.88,-15.19 238.54,-12.87 239.35,-19.83"/>
</g>
<!-- Node299&#45;&gt;Node296 -->
<g id="edge6" class="edge">
<title>Node299&#45;&gt;Node296</title>
<path fill="none" stroke="midnightblue" d="M258.35,-22.83C242.78,-27.92 225.19,-33.69 210.76,-38.41"/>
<polygon fill="midnightblue" stroke="midnightblue" points="259.81,-26.03 268.23,-19.59 257.64,-19.38 259.81,-26.03"/>
</g>
</g>
</svg>
