<?xml version="1.0" encoding="UTF-8" standalone="no"?>
<!DOCTYPE svg PUBLIC "-//W3C//DTD SVG 1.1//EN"
 "http://www.w3.org/Graphics/SVG/1.1/DTD/svg11.dtd">
<!-- Generated by graphviz version 2.44.0 (0)
 -->
<!-- Title: mutt.h Pages: 1 -->
<svg width="256pt" height="140pt"
 viewBox="0.00 0.00 255.50 140.00" xmlns="http://www.w3.org/2000/svg" xmlns:xlink="http://www.w3.org/1999/xlink">
<g id="graph0" class="graph" transform="scale(1 1) rotate(0) translate(4 136)">
<title>mutt.h</title>
<polygon fill="white" stroke="transparent" points="-4,4 -4,-136 251.5,-136 251.5,4 -4,4"/>
<!-- Node1 -->
<g id="node1" class="node">
<title>Node1</title>
<g id="a_node1"><a xlink:title=" ">
<polygon fill="#bfbfbf" stroke="black" points="91.5,-112.5 91.5,-131.5 135.5,-131.5 135.5,-112.5 91.5,-112.5"/>
<text text-anchor="middle" x="113.5" y="-119.5" font-family="Helvetica" font-size="10.00">mutt.h</text>
</a>
</g>
</g>
<!-- Node2 -->
<g id="node2" class="node">
<title>Node2</title>
<g id="a_node2"><a xlink:title=" ">
<polygon fill="white" stroke="#bfbfbf" points="0,-0.5 0,-19.5 51,-19.5 51,-0.5 0,-0.5"/>
<text text-anchor="middle" x="25.5" y="-7.5" font-family="Helvetica" font-size="10.00">config.h</text>
</a>
</g>
</g>
<!-- Node1&#45;&gt;Node2 -->
<g id="edge1" class="edge">
<title>Node1&#45;&gt;Node2</title>
<path fill="none" stroke="midnightblue" d="M103.62,-112.21C94.1,-103.49 79.54,-89.52 68.5,-76 56.1,-60.82 43.97,-42.01 35.77,-28.54"/>
<polygon fill="midnightblue" stroke="midnightblue" points="38.68,-26.59 30.55,-19.8 32.67,-30.18 38.68,-26.59"/>
</g>
<!-- Node3 -->
<g id="node3" class="node">
<title>Node3</title>
<g id="a_node3"><a xlink:title=" ">
<polygon fill="white" stroke="#bfbfbf" points="73,-0.5 73,-19.5 124,-19.5 124,-0.5 73,-0.5"/>
<text text-anchor="middle" x="98.5" y="-7.5" font-family="Helvetica" font-size="10.00">stddef.h</text>
</a>
</g>
</g>
<!-- Node1&#45;&gt;Node3 -->
<g id="edge2" class="edge">
<title>Node1&#45;&gt;Node3</title>
<path fill="none" stroke="midnightblue" d="M102.79,-112.3C93.56,-104.07 80.91,-90.79 75.5,-76 69.61,-59.9 77.51,-41.47 85.62,-28.35"/>
<polygon fill="midnightblue" stroke="midnightblue" points="88.66,-30.1 91.36,-19.85 82.86,-26.18 88.66,-30.1"/>
</g>
<!-- Node4 -->
<g id="node4" class="node">
<title>Node4</title>
<g id="a_node4"><a xlink:title=" ">
<polygon fill="white" stroke="#bfbfbf" points="199.5,-56.5 199.5,-75.5 247.5,-75.5 247.5,-56.5 199.5,-56.5"/>
<text text-anchor="middle" x="223.5" y="-63.5" font-family="Helvetica" font-size="10.00">limits.h</text>
</a>
</g>
</g>
<!-- Node1&#45;&gt;Node4 -->
<g id="edge3" class="edge">
<title>Node1&#45;&gt;Node4</title>
<path fill="none" stroke="midnightblue" d="M131.17,-112.32C148.89,-103.62 176.4,-90.12 196.79,-80.11"/>
<polygon fill="midnightblue" stroke="midnightblue" points="198.44,-83.2 205.87,-75.65 195.35,-76.92 198.44,-83.2"/>
</g>
<!-- Node5 -->
<g id="node5" class="node">
<title>Node5</title>
<g id="a_node5"><a xlink:title=" ">
<polygon fill="white" stroke="#bfbfbf" points="144.5,-0.5 144.5,-19.5 192.5,-19.5 192.5,-0.5 144.5,-0.5"/>
<text text-anchor="middle" x="168.5" y="-7.5" font-family="Helvetica" font-size="10.00">stdint.h</text>
</a>
</g>
</g>
<!-- Node1&#45;&gt;Node5 -->
<g id="edge4" class="edge">
<title>Node1&#45;&gt;Node5</title>
<path fill="none" stroke="midnightblue" d="M123.31,-112.32C132.22,-103.9 145.09,-90.32 152.5,-76 160.01,-61.49 164.1,-43.3 166.26,-29.86"/>
<polygon fill="midnightblue" stroke="midnightblue" points="169.74,-30.26 167.65,-19.87 162.8,-29.29 169.74,-30.26"/>
</g>
<!-- Node6 -->
<g id="node6" class="node">
<title>Node6</title>
<g id="a_node6"><a xlink:href="keymap_8h.html" target="_top" xlink:title=" ">
<polygon fill="white" stroke="red" points="84,-56.5 84,-75.5 143,-75.5 143,-56.5 84,-56.5"/>
<text text-anchor="middle" x="113.5" y="-63.5" font-family="Helvetica" font-size="10.00">keymap.h</text>
</a>
</g>
</g>
<!-- Node1&#45;&gt;Node6 -->
<g id="edge5" class="edge">
<title>Node1&#45;&gt;Node6</title>
<path fill="none" stroke="midnightblue" d="M113.5,-112.08C113.5,-105.01 113.5,-94.86 113.5,-85.99"/>
<polygon fill="midnightblue" stroke="midnightblue" points="117,-85.75 113.5,-75.75 110,-85.75 117,-85.75"/>
</g>
<!-- Node6&#45;&gt;Node2 -->
<g id="edge6" class="edge">
<title>Node6&#45;&gt;Node2</title>
<path fill="none" stroke="midnightblue" d="M99.36,-56.32C85.63,-47.9 64.56,-34.97 48.44,-25.07"/>
<polygon fill="midnightblue" stroke="midnightblue" points="49.96,-21.9 39.6,-19.65 46.3,-27.87 49.96,-21.9"/>
</g>
<!-- Node6&#45;&gt;Node3 -->
<g id="edge7" class="edge">
<title>Node6&#45;&gt;Node3</title>
<path fill="none" stroke="midnightblue" d="M111.02,-56.08C109.01,-48.85 106.11,-38.41 103.61,-29.4"/>
<polygon fill="midnightblue" stroke="midnightblue" points="106.98,-28.45 100.93,-19.75 100.24,-30.32 106.98,-28.45"/>
</g>
<!-- Node6&#45;&gt;Node5 -->
<g id="edge8" class="edge">
<title>Node6&#45;&gt;Node5</title>
<path fill="none" stroke="midnightblue" d="M122.58,-56.08C130.67,-48.14 142.7,-36.34 152.41,-26.8"/>
<polygon fill="midnightblue" stroke="midnightblue" points="154.9,-29.25 159.59,-19.75 150,-24.26 154.9,-29.25"/>
</g>
</g>
</svg>
