<?xml version="1.0" encoding="UTF-8" standalone="no"?>
<!DOCTYPE svg PUBLIC "-//W3C//DTD SVG 1.1//EN"
 "http://www.w3.org/Graphics/SVG/1.1/DTD/svg11.dtd">
<!-- Generated by graphviz version 2.40.1 (20161225.0304)
 -->
<!-- Title: mutt_print_attachment_list Pages: 1 -->
<svg width="473pt" height="294pt"
 viewBox="0.00 0.00 473.00 294.00" xmlns="http://www.w3.org/2000/svg" xmlns:xlink="http://www.w3.org/1999/xlink">
<g id="graph0" class="graph" transform="scale(1 1) rotate(0) translate(4 290)">
<title>mutt_print_attachment_list</title>
<polygon fill="#ffffff" stroke="transparent" points="-4,4 -4,-290 469,-290 469,4 -4,4"/>
<!-- Node7609 -->
<g id="node1" class="node">
<title>Node7609</title>
<polygon fill="#bfbfbf" stroke="#000000" points="0,-133.5 0,-152.5 149,-152.5 149,-133.5 0,-133.5"/>
<text text-anchor="middle" x="74.5" y="-140.5" font-family="Helvetica,sans-Serif" font-size="10.00" fill="#000000">mutt_print_attachment_list</text>
</g>
<!-- Node7610 -->
<g id="node2" class="node">
<title>Node7610</title>
<g id="a_node2"><a xlink:href="init_8c.html#ab02047769214ff014b9a8a1782babadc" target="_top" xlink:title="Ask the user a quad&#45;question. ">
<polygon fill="#ffffff" stroke="#ff0000" points="207.5,-266.5 207.5,-285.5 311.5,-285.5 311.5,-266.5 207.5,-266.5"/>
<text text-anchor="middle" x="259.5" y="-273.5" font-family="Helvetica,sans-Serif" font-size="10.00" fill="#000000">query_quadoption</text>
</a>
</g>
</g>
<!-- Node7609&#45;&gt;Node7610 -->
<g id="edge1" class="edge">
<title>Node7609&#45;&gt;Node7610</title>
<path fill="none" stroke="#191970" d="M80.9725,-152.6775C96.2846,-174.7835 137.0688,-229.2149 185,-257 188.939,-259.2834 193.1509,-261.2956 197.493,-263.0683"/>
<polygon fill="#191970" stroke="#191970" points="196.5575,-266.4522 207.1515,-266.579 198.9488,-259.8734 196.5575,-266.4522"/>
</g>
<!-- Node9301 -->
<g id="node3" class="node">
<title>Node9301</title>
<g id="a_node3"><a xlink:href="recvattach_8c.html#a54f776fcfc922681ca8c99d4aa497198" target="_top" xlink:title="Print a list of Attachments. ">
<polygon fill="#ffffff" stroke="#ff0000" points="199,-228.5 199,-247.5 320,-247.5 320,-228.5 199,-228.5"/>
<text text-anchor="middle" x="259.5" y="-235.5" font-family="Helvetica,sans-Serif" font-size="10.00" fill="#000000">print_attachment_list</text>
</a>
</g>
</g>
<!-- Node7609&#45;&gt;Node9301 -->
<g id="edge2" class="edge">
<title>Node7609&#45;&gt;Node9301</title>
<path fill="none" stroke="#191970" d="M87.1273,-152.6788C107.0165,-167.5524 147.2701,-196.1739 185,-214 194.1226,-218.3101 204.2205,-222.139 213.9606,-225.4032"/>
<polygon fill="#191970" stroke="#191970" points="212.9407,-228.7516 223.532,-228.476 215.0805,-222.0867 212.9407,-228.7516"/>
</g>
<!-- Node7718 -->
<g id="node4" class="node">
<title>Node7718</title>
<g id="a_node4"><a xlink:href="file_8c.html#a31f49795ff5b9558db5476e5777e63b6" target="_top" xlink:title="Close a FILE handle (and NULL the pointer) ">
<polygon fill="#ffffff" stroke="#000000" points="370,-209.5 370,-228.5 465,-228.5 465,-209.5 370,-209.5"/>
<text text-anchor="middle" x="417.5" y="-216.5" font-family="Helvetica,sans-Serif" font-size="10.00" fill="#000000">mutt_file_fclose</text>
</a>
</g>
</g>
<!-- Node7609&#45;&gt;Node7718 -->
<g id="edge7" class="edge">
<title>Node7609&#45;&gt;Node7718</title>
<path fill="none" stroke="#191970" d="M98.7187,-152.6582C120.8702,-161.1711 154.7037,-173.3732 185,-181 243.7527,-195.7904 312.3581,-206.1874 359.7424,-212.3233"/>
<polygon fill="#191970" stroke="#191970" points="359.4561,-215.815 369.8179,-213.6052 360.3396,-208.871 359.4561,-215.815"/>
</g>
<!-- Node9305 -->
<g id="node5" class="node">
<title>Node9305</title>
<g id="a_node5"><a xlink:href="recvattach_8c.html#aa65ac63b4bb9d0b83b6f4128736ad190" target="_top" xlink:title="Do we know how to print this attachment type? ">
<polygon fill="#ffffff" stroke="#ff0000" points="228.5,-152.5 228.5,-171.5 290.5,-171.5 290.5,-152.5 228.5,-152.5"/>
<text text-anchor="middle" x="259.5" y="-159.5" font-family="Helvetica,sans-Serif" font-size="10.00" fill="#000000">can_print</text>
</a>
</g>
</g>
<!-- Node7609&#45;&gt;Node9305 -->
<g id="edge4" class="edge">
<title>Node7609&#45;&gt;Node9305</title>
<path fill="none" stroke="#191970" d="M149.2133,-150.6733C172.7827,-153.0939 197.9532,-155.679 218.2881,-157.7674"/>
<polygon fill="#191970" stroke="#191970" points="218.1419,-161.2707 228.4472,-158.8108 218.8571,-154.3074 218.1419,-161.2707"/>
</g>
<!-- Node8270 -->
<g id="node6" class="node">
<title>Node8270</title>
<g id="a_node6"><a xlink:href="curs__lib_8c.html#acd14d074d8b9e6cb21e851dd573cdec2" target="_top" xlink:title="Shutdown curses/slang. ">
<polygon fill="#ffffff" stroke="#ff0000" points="219.5,-114.5 219.5,-133.5 299.5,-133.5 299.5,-114.5 219.5,-114.5"/>
<text text-anchor="middle" x="259.5" y="-121.5" font-family="Helvetica,sans-Serif" font-size="10.00" fill="#000000">mutt_endwin</text>
</a>
</g>
</g>
<!-- Node7609&#45;&gt;Node8270 -->
<g id="edge5" class="edge">
<title>Node7609&#45;&gt;Node8270</title>
<path fill="none" stroke="#191970" d="M149.2133,-135.3267C169.4358,-133.2498 190.8369,-131.0519 209.3512,-129.1504"/>
<polygon fill="#191970" stroke="#191970" points="209.724,-132.6306 219.3141,-128.1272 209.0088,-125.6673 209.724,-132.6306"/>
</g>
<!-- Node7713 -->
<g id="node7" class="node">
<title>Node7713</title>
<g id="a_node7"><a xlink:href="filter_8c.html#a81a0bae52b713e896cc8b220cc119262" target="_top" xlink:title="Set up filter program. ">
<polygon fill="#ffffff" stroke="#ff0000" points="222,-76.5 222,-95.5 297,-95.5 297,-76.5 222,-76.5"/>
<text text-anchor="middle" x="259.5" y="-83.5" font-family="Helvetica,sans-Serif" font-size="10.00" fill="#000000">filter_create</text>
</a>
</g>
</g>
<!-- Node7609&#45;&gt;Node7713 -->
<g id="edge6" class="edge">
<title>Node7609&#45;&gt;Node7713</title>
<path fill="none" stroke="#191970" d="M100.2063,-133.4937C122.4794,-125.4176 155.6503,-113.7732 185,-105 193.6415,-102.4169 202.9114,-99.8737 211.8761,-97.5293"/>
<polygon fill="#191970" stroke="#191970" points="213.0032,-100.8535 221.8179,-94.9753 211.2615,-94.0736 213.0032,-100.8535"/>
</g>
<!-- Node7719 -->
<g id="node8" class="node">
<title>Node7719</title>
<g id="a_node8"><a xlink:href="filter_8c.html#a22c6912b837b1114c3276c990e73dca3" target="_top" xlink:title="Wait for the exit of a process and return its status. ">
<polygon fill="#ffffff" stroke="#ff0000" points="227,-38.5 227,-57.5 292,-57.5 292,-38.5 227,-38.5"/>
<text text-anchor="middle" x="259.5" y="-45.5" font-family="Helvetica,sans-Serif" font-size="10.00" fill="#000000">filter_wait</text>
</a>
</g>
</g>
<!-- Node7609&#45;&gt;Node7719 -->
<g id="edge8" class="edge">
<title>Node7609&#45;&gt;Node7719</title>
<path fill="none" stroke="#191970" d="M85.6145,-133.3348C104.6667,-117.2533 145.353,-84.9959 185,-67 194.9477,-62.4847 206.1494,-58.9145 216.7866,-56.1467"/>
<polygon fill="#191970" stroke="#191970" points="217.857,-59.4887 226.7527,-53.7341 216.21,-52.6852 217.857,-59.4887"/>
</g>
<!-- Node8271 -->
<g id="node9" class="node">
<title>Node8271</title>
<g id="a_node9"><a xlink:href="curs__lib_8c.html#ab6a61cdfcf8c2c73ee59381c79c79774" target="_top" xlink:title="Prompt the user to &#39;press any key&#39; and wait. ">
<polygon fill="#ffffff" stroke="#ff0000" points="185,-.5 185,-19.5 334,-19.5 334,-.5 185,-.5"/>
<text text-anchor="middle" x="259.5" y="-7.5" font-family="Helvetica,sans-Serif" font-size="10.00" fill="#000000">mutt_any_key_to_continue</text>
</a>
</g>
</g>
<!-- Node7609&#45;&gt;Node8271 -->
<g id="edge9" class="edge">
<title>Node7609&#45;&gt;Node8271</title>
<path fill="none" stroke="#191970" d="M80.9725,-133.3225C96.2846,-111.2165 137.0688,-56.7851 185,-29 188.8722,-26.7553 193.0082,-24.7727 197.2724,-23.022"/>
<polygon fill="#191970" stroke="#191970" points="198.5728,-26.2732 206.7597,-19.5482 196.1659,-19.7 198.5728,-26.2732"/>
</g>
<!-- Node9301&#45;&gt;Node7718 -->
<g id="edge3" class="edge">
<title>Node9301&#45;&gt;Node7718</title>
<path fill="none" stroke="#191970" d="M320.1351,-230.7084C333.0447,-229.156 346.647,-227.5203 359.4568,-225.9799"/>
<polygon fill="#191970" stroke="#191970" points="360.0213,-229.4373 369.5318,-224.7683 359.1854,-222.4874 360.0213,-229.4373"/>
</g>
</g>
</svg>
