<?xml version="1.0" encoding="UTF-8" standalone="no"?>
<!DOCTYPE svg PUBLIC "-//W3C//DTD SVG 1.1//EN"
 "http://www.w3.org/Graphics/SVG/1.1/DTD/svg11.dtd">
<!-- Generated by graphviz version 2.44.0 (0)
 -->
<!-- Title: mutt_lua.c Pages: 1 -->
<svg width="1005pt" height="196pt"
 viewBox="0.00 0.00 1005.00 196.00" xmlns="http://www.w3.org/2000/svg" xmlns:xlink="http://www.w3.org/1999/xlink">
<g id="graph0" class="graph" transform="scale(1 1) rotate(0) translate(4 192)">
<title>mutt_lua.c</title>
<polygon fill="white" stroke="transparent" points="-4,4 -4,-192 1001,-192 1001,4 -4,4"/>
<!-- Node1 -->
<g id="node1" class="node">
<title>Node1</title>
<g id="a_node1"><a xlink:title=" ">
<polygon fill="#bfbfbf" stroke="black" points="444,-168.5 444,-187.5 506,-187.5 506,-168.5 444,-168.5"/>
<text text-anchor="middle" x="475" y="-175.5" font-family="Helvetica" font-size="10.00">mutt_lua.c</text>
</a>
</g>
</g>
<!-- Node2 -->
<g id="node2" class="node">
<title>Node2</title>
<g id="a_node2"><a xlink:title=" ">
<polygon fill="white" stroke="#bfbfbf" points="76.5,-0.5 76.5,-19.5 127.5,-19.5 127.5,-0.5 76.5,-0.5"/>
<text text-anchor="middle" x="102" y="-7.5" font-family="Helvetica" font-size="10.00">config.h</text>
</a>
</g>
</g>
<!-- Node1&#45;&gt;Node2 -->
<g id="edge1" class="edge">
<title>Node1&#45;&gt;Node2</title>
<path fill="none" stroke="midnightblue" d="M443.77,-174.89C371.78,-169.69 196.18,-154.98 142,-132 105,-116.31 88.53,-112.16 71,-76 63.04,-59.57 74.24,-40.74 85.34,-27.59"/>
<polygon fill="midnightblue" stroke="midnightblue" points="88.25,-29.59 92.42,-19.85 83.09,-24.87 88.25,-29.59"/>
</g>
<!-- Node3 -->
<g id="node3" class="node">
<title>Node3</title>
<g id="a_node3"><a xlink:title=" ">
<polygon fill="white" stroke="#bfbfbf" points="558.5,-112.5 558.5,-131.5 611.5,-131.5 611.5,-112.5 558.5,-112.5"/>
<text text-anchor="middle" x="585" y="-119.5" font-family="Helvetica" font-size="10.00">lauxlib.h</text>
</a>
</g>
</g>
<!-- Node1&#45;&gt;Node3 -->
<g id="edge2" class="edge">
<title>Node1&#45;&gt;Node3</title>
<path fill="none" stroke="midnightblue" d="M492.67,-168.32C510.39,-159.62 537.9,-146.12 558.29,-136.11"/>
<polygon fill="midnightblue" stroke="midnightblue" points="559.94,-139.2 567.37,-131.65 556.85,-132.92 559.94,-139.2"/>
</g>
<!-- Node4 -->
<g id="node4" class="node">
<title>Node4</title>
<g id="a_node4"><a xlink:title=" ">
<polygon fill="white" stroke="#bfbfbf" points="0,-0.5 0,-19.5 48,-19.5 48,-0.5 0,-0.5"/>
<text text-anchor="middle" x="24" y="-7.5" font-family="Helvetica" font-size="10.00">limits.h</text>
</a>
</g>
</g>
<!-- Node1&#45;&gt;Node4 -->
<g id="edge3" class="edge">
<title>Node1&#45;&gt;Node4</title>
<path fill="none" stroke="midnightblue" d="M443.92,-176.75C364.1,-175.56 154.19,-168.92 97,-132 59.5,-107.79 38.43,-56.88 29.38,-29.45"/>
<polygon fill="midnightblue" stroke="midnightblue" points="32.62,-28.08 26.31,-19.57 25.94,-30.16 32.62,-28.08"/>
</g>
<!-- Node5 -->
<g id="node5" class="node">
<title>Node5</title>
<g id="a_node5"><a xlink:title=" ">
<polygon fill="white" stroke="#bfbfbf" points="630,-112.5 630,-131.5 668,-131.5 668,-112.5 630,-112.5"/>
<text text-anchor="middle" x="649" y="-119.5" font-family="Helvetica" font-size="10.00">lua.h</text>
</a>
</g>
</g>
<!-- Node1&#45;&gt;Node5 -->
<g id="edge4" class="edge">
<title>Node1&#45;&gt;Node5</title>
<path fill="none" stroke="midnightblue" d="M502.57,-168.44C534.56,-158.51 587.1,-142.21 619.78,-132.07"/>
<polygon fill="midnightblue" stroke="midnightblue" points="621.13,-135.32 629.64,-129.01 619.05,-128.63 621.13,-135.32"/>
</g>
<!-- Node6 -->
<g id="node6" class="node">
<title>Node6</title>
<g id="a_node6"><a xlink:title=" ">
<polygon fill="white" stroke="#bfbfbf" points="686.5,-112.5 686.5,-131.5 733.5,-131.5 733.5,-112.5 686.5,-112.5"/>
<text text-anchor="middle" x="710" y="-119.5" font-family="Helvetica" font-size="10.00">lualib.h</text>
</a>
</g>
</g>
<!-- Node1&#45;&gt;Node6 -->
<g id="edge5" class="edge">
<title>Node1&#45;&gt;Node6</title>
<path fill="none" stroke="midnightblue" d="M506.25,-170.51C544.17,-162.54 610.27,-148.31 676.48,-132.04"/>
<polygon fill="midnightblue" stroke="midnightblue" points="677.37,-135.42 686.24,-129.62 675.69,-128.63 677.37,-135.42"/>
</g>
<!-- Node7 -->
<g id="node7" class="node">
<title>Node7</title>
<g id="a_node7"><a xlink:title=" ">
<polygon fill="white" stroke="#bfbfbf" points="410,-56.5 410,-75.5 466,-75.5 466,-56.5 410,-56.5"/>
<text text-anchor="middle" x="438" y="-63.5" font-family="Helvetica" font-size="10.00">stdbool.h</text>
</a>
</g>
</g>
<!-- Node1&#45;&gt;Node7 -->
<g id="edge6" class="edge">
<title>Node1&#45;&gt;Node7</title>
<path fill="none" stroke="midnightblue" d="M465.23,-168.49C456.49,-160.18 444.28,-146.69 439,-132 433.69,-117.21 433.86,-99.29 435.12,-86.01"/>
<polygon fill="midnightblue" stroke="midnightblue" points="438.63,-86.09 436.4,-75.73 431.69,-85.22 438.63,-86.09"/>
</g>
<!-- Node8 -->
<g id="node8" class="node">
<title>Node8</title>
<g id="a_node8"><a xlink:title=" ">
<polygon fill="white" stroke="#bfbfbf" points="281,-0.5 281,-19.5 329,-19.5 329,-0.5 281,-0.5"/>
<text text-anchor="middle" x="305" y="-7.5" font-family="Helvetica" font-size="10.00">stdint.h</text>
</a>
</g>
</g>
<!-- Node1&#45;&gt;Node8 -->
<g id="edge7" class="edge">
<title>Node1&#45;&gt;Node8</title>
<path fill="none" stroke="midnightblue" d="M465.86,-168.08C438.41,-141.27 356.4,-61.19 321.27,-26.89"/>
<polygon fill="midnightblue" stroke="midnightblue" points="323.37,-24.05 313.77,-19.57 318.48,-29.06 323.37,-24.05"/>
</g>
<!-- Node9 -->
<g id="node9" class="node">
<title>Node9</title>
<g id="a_node9"><a xlink:title=" ">
<polygon fill="white" stroke="#bfbfbf" points="522,-56.5 522,-75.5 568,-75.5 568,-56.5 522,-56.5"/>
<text text-anchor="middle" x="545" y="-63.5" font-family="Helvetica" font-size="10.00">stdio.h</text>
</a>
</g>
</g>
<!-- Node1&#45;&gt;Node9 -->
<g id="edge8" class="edge">
<title>Node1&#45;&gt;Node9</title>
<path fill="none" stroke="midnightblue" d="M482.7,-168.42C490.37,-159.63 502.25,-145.4 511,-132 520.99,-116.7 530.46,-98.14 536.85,-84.78"/>
<polygon fill="midnightblue" stroke="midnightblue" points="540.03,-86.25 541.1,-75.71 533.69,-83.28 540.03,-86.25"/>
</g>
<!-- Node10 -->
<g id="node10" class="node">
<title>Node10</title>
<g id="a_node10"><a xlink:href="mutt_2lib_8h.html" target="_top" xlink:title=" ">
<polygon fill="white" stroke="red" points="775.5,-56.5 775.5,-75.5 832.5,-75.5 832.5,-56.5 775.5,-56.5"/>
<text text-anchor="middle" x="804" y="-63.5" font-family="Helvetica" font-size="10.00">mutt/lib.h</text>
</a>
</g>
</g>
<!-- Node1&#45;&gt;Node10 -->
<g id="edge9" class="edge">
<title>Node1&#45;&gt;Node10</title>
<path fill="none" stroke="midnightblue" d="M506.25,-175.14C585.96,-170.07 791.98,-154.87 812,-132 823.09,-119.33 818.67,-99.58 812.98,-85.17"/>
<polygon fill="midnightblue" stroke="midnightblue" points="816.08,-83.51 808.81,-75.8 809.68,-86.36 816.08,-83.51"/>
</g>
<!-- Node52 -->
<g id="node11" class="node">
<title>Node52</title>
<g id="a_node11"><a xlink:href="config_2lib_8h.html" target="_top" xlink:title=" ">
<polygon fill="white" stroke="red" points="859,-112.5 859,-131.5 923,-131.5 923,-112.5 859,-112.5"/>
<text text-anchor="middle" x="891" y="-119.5" font-family="Helvetica" font-size="10.00">config/lib.h</text>
</a>
</g>
</g>
<!-- Node1&#45;&gt;Node52 -->
<g id="edge10" class="edge">
<title>Node1&#45;&gt;Node52</title>
<path fill="none" stroke="midnightblue" d="M506.29,-173.96C570.16,-167.6 720.05,-151.8 845,-132 846.27,-131.8 847.55,-131.59 848.85,-131.37"/>
<polygon fill="midnightblue" stroke="midnightblue" points="849.65,-134.78 858.88,-129.59 848.42,-127.89 849.65,-134.78"/>
</g>
<!-- Node67 -->
<g id="node12" class="node">
<title>Node67</title>
<g id="a_node12"><a xlink:href="core_2lib_8h.html" target="_top" xlink:title=" ">
<polygon fill="white" stroke="red" points="941,-112.5 941,-131.5 997,-131.5 997,-112.5 941,-112.5"/>
<text text-anchor="middle" x="969" y="-119.5" font-family="Helvetica" font-size="10.00">core/lib.h</text>
</a>
</g>
</g>
<!-- Node1&#45;&gt;Node67 -->
<g id="edge11" class="edge">
<title>Node1&#45;&gt;Node67</title>
<path fill="none" stroke="midnightblue" d="M506.23,-175.44C578.96,-171.49 765.38,-159.49 930.46,-132.04"/>
<polygon fill="midnightblue" stroke="midnightblue" points="931.53,-135.41 940.8,-130.29 930.36,-128.5 931.53,-135.41"/>
</g>
<!-- Node71 -->
<g id="node13" class="node">
<title>Node71</title>
<g id="a_node13"><a xlink:href="mutt_8h.html" target="_top" xlink:title=" ">
<polygon fill="white" stroke="red" points="80,-56.5 80,-75.5 124,-75.5 124,-56.5 80,-56.5"/>
<text text-anchor="middle" x="102" y="-63.5" font-family="Helvetica" font-size="10.00">mutt.h</text>
</a>
</g>
</g>
<!-- Node1&#45;&gt;Node71 -->
<g id="edge12" class="edge">
<title>Node1&#45;&gt;Node71</title>
<path fill="none" stroke="midnightblue" d="M443.81,-174.59C377.02,-169.06 222.39,-154.21 175,-132 150.88,-120.7 128.9,-98.83 115.5,-83.59"/>
<polygon fill="midnightblue" stroke="midnightblue" points="118.12,-81.27 108.98,-75.92 112.79,-85.8 118.12,-81.27"/>
</g>
<!-- Node74 -->
<g id="node14" class="node">
<title>Node74</title>
<g id="a_node14"><a xlink:href="mutt__lua_8h.html" target="_top" xlink:title=" ">
<polygon fill="white" stroke="black" points="292,-112.5 292,-131.5 354,-131.5 354,-112.5 292,-112.5"/>
<text text-anchor="middle" x="323" y="-119.5" font-family="Helvetica" font-size="10.00">mutt_lua.h</text>
</a>
</g>
</g>
<!-- Node1&#45;&gt;Node74 -->
<g id="edge16" class="edge">
<title>Node1&#45;&gt;Node74</title>
<path fill="none" stroke="midnightblue" d="M450.92,-168.44C425.46,-159.4 385.11,-145.06 356.54,-134.92"/>
<polygon fill="midnightblue" stroke="midnightblue" points="357.57,-131.57 346.97,-131.52 355.22,-138.16 357.57,-131.57"/>
</g>
<!-- Node73 -->
<g id="node15" class="node">
<title>Node73</title>
<g id="a_node15"><a xlink:href="mutt__commands_8h.html" target="_top" xlink:title=" ">
<polygon fill="white" stroke="red" points="218,-56.5 218,-75.5 316,-75.5 316,-56.5 218,-56.5"/>
<text text-anchor="middle" x="267" y="-63.5" font-family="Helvetica" font-size="10.00">mutt_commands.h</text>
</a>
</g>
</g>
<!-- Node1&#45;&gt;Node73 -->
<g id="edge26" class="edge">
<title>Node1&#45;&gt;Node73</title>
<path fill="none" stroke="midnightblue" d="M443.69,-173.63C395.27,-167.78 305.46,-154.21 283,-132 270.87,-120.01 267.39,-100.4 266.63,-85.85"/>
<polygon fill="midnightblue" stroke="midnightblue" points="270.12,-85.46 266.49,-75.51 263.12,-85.56 270.12,-85.46"/>
</g>
<!-- Node75 -->
<g id="node16" class="node">
<title>Node75</title>
<g id="a_node16"><a xlink:href="init_8h.html" target="_top" xlink:title=" ">
<polygon fill="white" stroke="red" points="184.5,-112.5 184.5,-131.5 221.5,-131.5 221.5,-112.5 184.5,-112.5"/>
<text text-anchor="middle" x="203" y="-119.5" font-family="Helvetica" font-size="10.00">init.h</text>
</a>
</g>
</g>
<!-- Node1&#45;&gt;Node75 -->
<g id="edge20" class="edge">
<title>Node1&#45;&gt;Node75</title>
<path fill="none" stroke="midnightblue" d="M443.8,-170.81C390.65,-160.25 283.3,-138.94 231.82,-128.72"/>
<polygon fill="midnightblue" stroke="midnightblue" points="232.21,-125.23 221.72,-126.72 230.85,-132.1 232.21,-125.23"/>
</g>
<!-- Node77 -->
<g id="node17" class="node">
<title>Node77</title>
<g id="a_node17"><a xlink:href="muttlib_8h.html" target="_top" xlink:title=" ">
<polygon fill="white" stroke="red" points="448,-112.5 448,-131.5 502,-131.5 502,-112.5 448,-112.5"/>
<text text-anchor="middle" x="475" y="-119.5" font-family="Helvetica" font-size="10.00">muttlib.h</text>
</a>
</g>
</g>
<!-- Node1&#45;&gt;Node77 -->
<g id="edge27" class="edge">
<title>Node1&#45;&gt;Node77</title>
<path fill="none" stroke="midnightblue" d="M475,-168.08C475,-161.01 475,-150.86 475,-141.99"/>
<polygon fill="midnightblue" stroke="midnightblue" points="478.5,-141.75 475,-131.75 471.5,-141.75 478.5,-141.75"/>
</g>
<!-- Node81 -->
<g id="node18" class="node">
<title>Node81</title>
<g id="a_node18"><a xlink:href="myvar_8h.html" target="_top" xlink:title=" ">
<polygon fill="white" stroke="black" points="751.5,-112.5 751.5,-131.5 802.5,-131.5 802.5,-112.5 751.5,-112.5"/>
<text text-anchor="middle" x="777" y="-119.5" font-family="Helvetica" font-size="10.00">myvar.h</text>
</a>
</g>
</g>
<!-- Node1&#45;&gt;Node81 -->
<g id="edge31" class="edge">
<title>Node1&#45;&gt;Node81</title>
<path fill="none" stroke="midnightblue" d="M506.4,-172.59C554.72,-165.61 650.36,-151.05 741.5,-131.94"/>
<polygon fill="midnightblue" stroke="midnightblue" points="742.39,-135.33 751.44,-129.84 740.94,-128.49 742.39,-135.33"/>
</g>
<!-- Node71&#45;&gt;Node2 -->
<g id="edge13" class="edge">
<title>Node71&#45;&gt;Node2</title>
<path fill="none" stroke="midnightblue" d="M102,-56.08C102,-49.01 102,-38.86 102,-29.99"/>
<polygon fill="midnightblue" stroke="midnightblue" points="105.5,-29.75 102,-19.75 98.5,-29.75 105.5,-29.75"/>
</g>
<!-- Node71&#45;&gt;Node4 -->
<g id="edge14" class="edge">
<title>Node71&#45;&gt;Node4</title>
<path fill="none" stroke="midnightblue" d="M89.47,-56.32C77.41,-47.98 58.97,-35.21 44.73,-25.35"/>
<polygon fill="midnightblue" stroke="midnightblue" points="46.72,-22.47 36.5,-19.65 42.73,-28.22 46.72,-22.47"/>
</g>
<!-- Node71&#45;&gt;Node8 -->
<g id="edge15" class="edge">
<title>Node71&#45;&gt;Node8</title>
<path fill="none" stroke="midnightblue" d="M124.11,-59.12C159.52,-49.7 229.2,-31.16 270.99,-20.05"/>
<polygon fill="midnightblue" stroke="midnightblue" points="271.95,-23.41 280.72,-17.46 270.15,-16.65 271.95,-23.41"/>
</g>
<!-- Node74&#45;&gt;Node8 -->
<g id="edge17" class="edge">
<title>Node74&#45;&gt;Node8</title>
<path fill="none" stroke="midnightblue" d="M324.54,-112.47C326.52,-99.94 329.22,-75.88 325,-56 323,-46.59 318.9,-36.76 314.93,-28.7"/>
<polygon fill="midnightblue" stroke="midnightblue" points="317.89,-26.81 310.13,-19.59 311.69,-30.07 317.89,-26.81"/>
</g>
<!-- Node74&#45;&gt;Node73 -->
<g id="edge18" class="edge">
<title>Node74&#45;&gt;Node73</title>
<path fill="none" stroke="midnightblue" d="M314,-112.32C305.81,-104.42 293.49,-92.55 283.53,-82.94"/>
<polygon fill="midnightblue" stroke="midnightblue" points="285.79,-80.26 276.16,-75.83 280.93,-85.29 285.79,-80.26"/>
</g>
<!-- Node73&#45;&gt;Node8 -->
<g id="edge19" class="edge">
<title>Node73&#45;&gt;Node8</title>
<path fill="none" stroke="midnightblue" d="M273.27,-56.08C278.64,-48.46 286.52,-37.26 293.08,-27.94"/>
<polygon fill="midnightblue" stroke="midnightblue" points="295.95,-29.94 298.84,-19.75 290.22,-25.91 295.95,-29.94"/>
</g>
<!-- Node75&#45;&gt;Node2 -->
<g id="edge21" class="edge">
<title>Node75&#45;&gt;Node2</title>
<path fill="none" stroke="midnightblue" d="M195.07,-112.37C178.19,-93.97 138.43,-50.67 116.74,-27.05"/>
<polygon fill="midnightblue" stroke="midnightblue" points="119.23,-24.59 109.89,-19.59 114.07,-29.32 119.23,-24.59"/>
</g>
<!-- Node75&#45;&gt;Node7 -->
<g id="edge22" class="edge">
<title>Node75&#45;&gt;Node7</title>
<path fill="none" stroke="midnightblue" d="M221.83,-116.67C260.35,-107.82 348.78,-87.5 399.81,-75.78"/>
<polygon fill="midnightblue" stroke="midnightblue" points="400.83,-79.13 409.79,-73.48 399.26,-72.31 400.83,-79.13"/>
</g>
<!-- Node75&#45;&gt;Node8 -->
<g id="edge23" class="edge">
<title>Node75&#45;&gt;Node8</title>
<path fill="none" stroke="midnightblue" d="M201.24,-112.08C199.11,-98.61 197.15,-72.88 209,-56 223.43,-35.45 249.74,-24.03 271.17,-17.83"/>
<polygon fill="midnightblue" stroke="midnightblue" points="272.13,-21.2 280.91,-15.27 270.35,-14.43 272.13,-21.2"/>
</g>
<!-- Node75&#45;&gt;Node71 -->
<g id="edge24" class="edge">
<title>Node75&#45;&gt;Node71</title>
<path fill="none" stroke="midnightblue" d="M186.77,-112.32C170.65,-103.7 145.7,-90.36 127.04,-80.39"/>
<polygon fill="midnightblue" stroke="midnightblue" points="128.66,-77.28 118.19,-75.65 125.36,-83.46 128.66,-77.28"/>
</g>
<!-- Node75&#45;&gt;Node73 -->
<g id="edge25" class="edge">
<title>Node75&#45;&gt;Node73</title>
<path fill="none" stroke="midnightblue" d="M213.28,-112.32C222.84,-104.26 237.28,-92.08 248.78,-82.37"/>
<polygon fill="midnightblue" stroke="midnightblue" points="251.14,-84.96 256.53,-75.83 246.63,-79.61 251.14,-84.96"/>
</g>
<!-- Node77&#45;&gt;Node7 -->
<g id="edge28" class="edge">
<title>Node77&#45;&gt;Node7</title>
<path fill="none" stroke="midnightblue" d="M468.89,-112.08C463.72,-104.53 456.15,-93.49 449.81,-84.23"/>
<polygon fill="midnightblue" stroke="midnightblue" points="452.54,-82.02 444,-75.75 446.76,-85.98 452.54,-82.02"/>
</g>
<!-- Node77&#45;&gt;Node8 -->
<g id="edge29" class="edge">
<title>Node77&#45;&gt;Node8</title>
<path fill="none" stroke="midnightblue" d="M478.01,-112.37C482.12,-98.83 487.67,-72.45 475,-56 458.58,-34.67 384.1,-21.37 339.35,-15.16"/>
<polygon fill="midnightblue" stroke="midnightblue" points="339.58,-11.66 329.21,-13.8 338.66,-18.6 339.58,-11.66"/>
</g>
<!-- Node77&#45;&gt;Node9 -->
<g id="edge30" class="edge">
<title>Node77&#45;&gt;Node9</title>
<path fill="none" stroke="midnightblue" d="M486.25,-112.32C496.8,-104.18 512.8,-91.84 525.44,-82.09"/>
<polygon fill="midnightblue" stroke="midnightblue" points="527.77,-84.71 533.55,-75.83 523.49,-79.17 527.77,-84.71"/>
</g>
<!-- Node81&#45;&gt;Node10 -->
<g id="edge32" class="edge">
<title>Node81&#45;&gt;Node10</title>
<path fill="none" stroke="midnightblue" d="M781.46,-112.08C785.15,-104.69 790.52,-93.95 795.09,-84.81"/>
<polygon fill="midnightblue" stroke="midnightblue" points="798.28,-86.26 799.62,-75.75 792.02,-83.13 798.28,-86.26"/>
</g>
</g>
</svg>
