<?xml version="1.0" encoding="UTF-8" standalone="no"?>
<!DOCTYPE svg PUBLIC "-//W3C//DTD SVG 1.1//EN"
 "http://www.w3.org/Graphics/SVG/1.1/DTD/svg11.dtd">
<!-- Generated by graphviz version 7.1.0 (0)
 -->
<!-- Title: account_to_url Pages: 1 -->
<svg width="248pt" height="545pt"
 viewBox="0.00 0.00 248.00 545.00" xmlns="http://www.w3.org/2000/svg" xmlns:xlink="http://www.w3.org/1999/xlink">
<g id="graph0" class="graph" transform="scale(1 1) rotate(0) translate(4 541)">
<title>account_to_url</title>
<!-- Node1 -->
<g id="node1" class="node">
<title>Node1</title>
<g id="a_node1"><a xlink:title="Fill URL with info from account.">
<polygon fill="#999999" stroke="#666666" points="240,-278 156,-278 156,-259 240,-259 240,-278"/>
<text text-anchor="middle" x="198" y="-266" font-family="Helvetica,sans-Serif" font-size="10.00">account_to_url</text>
</a>
</g>
</g>
<!-- Node2 -->
<g id="node2" class="node">
<title>Node2</title>
<g id="a_node2"><a xlink:href="bcache_8c.html#a5a6da9a92e635c11bf3af21611c6ea5f" target="_top" xlink:title="Create the cache path for a given account/mailbox.">
<polygon fill="#fff0f0" stroke="red" points="97,-537 23,-537 23,-518 97,-518 97,-537"/>
<text text-anchor="middle" x="60" y="-525" font-family="Helvetica,sans-Serif" font-size="10.00">bcache_path</text>
</a>
</g>
</g>
<!-- Node1&#45;&gt;Node2 -->
<g id="edge1" class="edge">
<title>Node1&#45;&gt;Node2</title>
<path fill="none" stroke="#63b8ff" d="M196.51,-289.7C194.26,-336.23 182.29,-448.02 120,-509.5 113.83,-515.59 105.65,-519.63 97.36,-522.31"/>
<polygon fill="#63b8ff" stroke="#63b8ff" points="200,-290.04 196.86,-279.92 193,-289.79 200,-290.04"/>
</g>
<!-- Node717 -->
<g id="node3" class="node">
<title>Node717</title>
<g id="a_node3"><a xlink:href="newsrc_8c.html#a8d3a7328ed6d800fc41fb83e20db792a" target="_top" xlink:title="Make fully qualified cache file name.">
<polygon fill="#fff0f0" stroke="red" points="100.5,-500 19.5,-500 19.5,-481 100.5,-481 100.5,-500"/>
<text text-anchor="middle" x="60" y="-488" font-family="Helvetica,sans-Serif" font-size="10.00">cache_expand</text>
</a>
</g>
</g>
<!-- Node1&#45;&gt;Node717 -->
<g id="edge2" class="edge">
<title>Node1&#45;&gt;Node717</title>
<path fill="none" stroke="#63b8ff" d="M195.1,-289.49C190.25,-330.62 173.7,-422.17 120,-472.5 114.61,-477.55 107.84,-481.19 100.82,-483.81"/>
<polygon fill="#63b8ff" stroke="#63b8ff" points="198.56,-290.05 196.12,-279.74 191.6,-289.33 198.56,-290.05"/>
</g>
<!-- Node484 -->
<g id="node4" class="node">
<title>Node484</title>
<g id="a_node4"><a xlink:href="imap_2command_8c.html#a0e79cb73e383a2b78a80795d488193c7" target="_top" xlink:title="Parse a server LSUB (list subscribed mailboxes)">
<polygon fill="#fff0f0" stroke="red" points="105,-463 15,-463 15,-444 105,-444 105,-463"/>
<text text-anchor="middle" x="60" y="-451" font-family="Helvetica,sans-Serif" font-size="10.00">cmd_parse_lsub</text>
</a>
</g>
</g>
<!-- Node1&#45;&gt;Node484 -->
<g id="edge3" class="edge">
<title>Node1&#45;&gt;Node484</title>
<path fill="none" stroke="#63b8ff" d="M193.14,-289.32C185.52,-324.58 165.19,-396.07 120,-435.5 115.72,-439.23 110.69,-442.19 105.39,-444.53"/>
<polygon fill="#63b8ff" stroke="#63b8ff" points="196.49,-290.45 195.03,-279.95 189.62,-289.06 196.49,-290.45"/>
</g>
<!-- Node720 -->
<g id="node5" class="node">
<title>Node720</title>
<g id="a_node5"><a xlink:href="imap_8c.html#aa19b17aff2740fa72f49816bf4fc2951" target="_top" xlink:title="Look for completion matches for mailboxes.">
<polygon fill="#fff0f0" stroke="red" points="104.5,-426 15.5,-426 15.5,-407 104.5,-407 104.5,-426"/>
<text text-anchor="middle" x="60" y="-414" font-family="Helvetica,sans-Serif" font-size="10.00">complete_hosts</text>
</a>
</g>
</g>
<!-- Node1&#45;&gt;Node720 -->
<g id="edge4" class="edge">
<title>Node1&#45;&gt;Node720</title>
<path fill="none" stroke="#63b8ff" d="M190.22,-289.07C179.73,-317.78 156.81,-369.57 120,-398.5 115.45,-402.07 110.2,-404.94 104.74,-407.24"/>
<polygon fill="#63b8ff" stroke="#63b8ff" points="193.49,-290.34 193.47,-279.75 186.88,-288.04 193.49,-290.34"/>
</g>
<!-- Node721 -->
<g id="node6" class="node">
<title>Node721</title>
<g id="a_node6"><a xlink:href="util_8c.html#adbf1137977a3a5a640859df70bd3e0dc" target="_top" xlink:title="Make an absolute IMAP folder target to a buffer.">
<polygon fill="#fff0f0" stroke="red" points="120,-389 0,-389 0,-370 120,-370 120,-389"/>
<text text-anchor="middle" x="60" y="-377" font-family="Helvetica,sans-Serif" font-size="10.00">imap_buf_qualify_path</text>
</a>
</g>
</g>
<!-- Node1&#45;&gt;Node721 -->
<g id="edge5" class="edge">
<title>Node1&#45;&gt;Node721</title>
<path fill="none" stroke="#63b8ff" d="M185.69,-288.05C172.51,-309.15 148.82,-342.3 120,-361.5 115.19,-364.71 109.78,-367.36 104.24,-369.55"/>
<polygon fill="#63b8ff" stroke="#63b8ff" points="188.65,-289.92 190.81,-279.55 182.65,-286.31 188.65,-289.92"/>
</g>
<!-- Node722 -->
<g id="node7" class="node">
<title>Node722</title>
<g id="a_node7"><a xlink:href="util_8c.html#a37398fb77c2abaa0860c24621d4d17bb" target="_top" xlink:title="Open a header cache.">
<polygon fill="#fff0f0" stroke="red" points="112,-352 8,-352 8,-333 112,-333 112,-352"/>
<text text-anchor="middle" x="60" y="-340" font-family="Helvetica,sans-Serif" font-size="10.00">imap_hcache_open</text>
</a>
</g>
</g>
<!-- Node1&#45;&gt;Node722 -->
<g id="edge6" class="edge">
<title>Node1&#45;&gt;Node722</title>
<path fill="none" stroke="#63b8ff" d="M177.52,-285.5C162.62,-297.78 141.12,-313.97 120,-324.5 113.77,-327.61 106.9,-330.29 100.12,-332.58"/>
<polygon fill="#63b8ff" stroke="#63b8ff" points="179.74,-288.21 185.13,-279.08 175.23,-282.86 179.74,-288.21"/>
</g>
<!-- Node732 -->
<g id="node8" class="node">
<title>Node732</title>
<g id="a_node8"><a xlink:href="util_8c.html#a99de91a4d9fc2f36a4655277554e2c8f" target="_top" xlink:title="Prettify an IMAP mailbox name.">
<polygon fill="#fff0f0" stroke="red" points="116.5,-315 3.5,-315 3.5,-296 116.5,-296 116.5,-315"/>
<text text-anchor="middle" x="60" y="-303" font-family="Helvetica,sans-Serif" font-size="10.00">imap_pretty_mailbox</text>
</a>
</g>
</g>
<!-- Node1&#45;&gt;Node732 -->
<g id="edge7" class="edge">
<title>Node1&#45;&gt;Node732</title>
<path fill="none" stroke="#63b8ff" d="M149.66,-281.38C132.57,-286.03 113.57,-291.2 97.55,-295.56"/>
<polygon fill="#63b8ff" stroke="#63b8ff" points="150.36,-284.82 159.09,-278.81 148.53,-278.06 150.36,-284.82"/>
</g>
<!-- Node740 -->
<g id="node9" class="node">
<title>Node740</title>
<g id="a_node9"><a xlink:href="util_8c.html#a1296b618672321d89e3753bcb2123ab1" target="_top" xlink:title="Make an absolute IMAP folder target.">
<polygon fill="#fff0f0" stroke="red" points="110,-278 10,-278 10,-259 110,-259 110,-278"/>
<text text-anchor="middle" x="60" y="-266" font-family="Helvetica,sans-Serif" font-size="10.00">imap_qualify_path</text>
</a>
</g>
</g>
<!-- Node1&#45;&gt;Node740 -->
<g id="edge8" class="edge">
<title>Node1&#45;&gt;Node740</title>
<path fill="none" stroke="#63b8ff" d="M144.38,-268.5C133.13,-268.5 121.29,-268.5 110.18,-268.5"/>
<polygon fill="#63b8ff" stroke="#63b8ff" points="144.31,-272 154.31,-268.5 144.31,-265 144.31,-272"/>
</g>
<!-- Node742 -->
<g id="node10" class="node">
<title>Node742</title>
<g id="a_node10"><a xlink:href="mutt__socket_8c.html#ab79e92d0c88e3061f590cb1874b8b59d" target="_top" xlink:title="Find a connection from a list.">
<polygon fill="#fff0f0" stroke="red" points="104.5,-241 15.5,-241 15.5,-222 104.5,-222 104.5,-241"/>
<text text-anchor="middle" x="60" y="-229" font-family="Helvetica,sans-Serif" font-size="10.00">mutt_conn_find</text>
</a>
</g>
</g>
<!-- Node1&#45;&gt;Node742 -->
<g id="edge9" class="edge">
<title>Node1&#45;&gt;Node742</title>
<path fill="none" stroke="#63b8ff" d="M149.66,-255.62C132.57,-250.97 113.57,-245.8 97.55,-241.44"/>
<polygon fill="#63b8ff" stroke="#63b8ff" points="148.53,-258.94 159.09,-258.19 150.36,-252.18 148.53,-258.94"/>
</g>
<!-- Node743 -->
<g id="node11" class="node">
<title>Node743</title>
<g id="a_node11"><a xlink:href="group__expando__get__string__api.html#ga3a5cbc62df38f7564771430a4144eeef" target="_top" xlink:title="Newsrc: Account url &#45; Implements get_string_t &#45;.">
<polygon fill="white" stroke="#666666" points="99.5,-204 20.5,-204 20.5,-185 99.5,-185 99.5,-204"/>
<text text-anchor="middle" x="60" y="-192" font-family="Helvetica,sans-Serif" font-size="10.00">nntp_account</text>
</a>
</g>
</g>
<!-- Node1&#45;&gt;Node743 -->
<g id="edge10" class="edge">
<title>Node1&#45;&gt;Node743</title>
<path fill="none" stroke="#63b8ff" d="M176.64,-251.29C161.73,-239.37 140.59,-223.85 120,-213.5 113.08,-210.02 105.38,-206.99 97.9,-204.44"/>
<polygon fill="#63b8ff" stroke="#63b8ff" points="174.34,-253.93 184.3,-257.55 178.77,-248.51 174.34,-253.93"/>
</g>
<!-- Node744 -->
<g id="node12" class="node">
<title>Node744</title>
<g id="a_node12"><a xlink:href="newsrc_8c.html#a82d043009c986ea9887b31976c0ca262" target="_top" xlink:title="Make fully qualified url from newsgroup name.">
<polygon fill="#fff0f0" stroke="red" points="111,-167 9,-167 9,-148 111,-148 111,-167"/>
<text text-anchor="middle" x="60" y="-155" font-family="Helvetica,sans-Serif" font-size="10.00">nntp_expand_path</text>
</a>
</g>
</g>
<!-- Node1&#45;&gt;Node744 -->
<g id="edge11" class="edge">
<title>Node1&#45;&gt;Node744</title>
<path fill="none" stroke="#63b8ff" d="M185.38,-248.92C172.07,-228.11 148.39,-195.62 120,-176.5 114.56,-172.83 108.36,-169.83 102.07,-167.39"/>
<polygon fill="#63b8ff" stroke="#63b8ff" points="182.33,-250.65 190.57,-257.32 188.29,-246.97 182.33,-250.65"/>
</g>
<!-- Node745 -->
<g id="node13" class="node">
<title>Node745</title>
<g id="a_node13"><a xlink:href="newsrc_8c.html#a00132ef57a28e8ec428b6fa298ea63d4" target="_top" xlink:title="Open newsgroup hcache.">
<polygon fill="#fff0f0" stroke="red" points="112,-130 8,-130 8,-111 112,-111 112,-130"/>
<text text-anchor="middle" x="60" y="-118" font-family="Helvetica,sans-Serif" font-size="10.00">nntp_hcache_open</text>
</a>
</g>
</g>
<!-- Node1&#45;&gt;Node745 -->
<g id="edge12" class="edge">
<title>Node1&#45;&gt;Node745</title>
<path fill="none" stroke="#63b8ff" d="M190.12,-248.16C179.49,-219.77 156.43,-168.49 120,-139.5 115.37,-135.81 110,-132.84 104.43,-130.43"/>
<polygon fill="#63b8ff" stroke="#63b8ff" points="186.75,-249.13 193.4,-257.37 193.34,-246.78 186.75,-249.13"/>
</g>
<!-- Node746 -->
<g id="node14" class="node">
<title>Node746</title>
<g id="a_node14"><a xlink:href="group__expando__get__string__api.html#gacd4663d48ec8c764277e84156ecc225a" target="_top" xlink:title="Newsrc: Url schema &#45; Implements get_string_t &#45;.">
<polygon fill="white" stroke="#666666" points="99,-93 21,-93 21,-74 99,-74 99,-93"/>
<text text-anchor="middle" x="60" y="-81" font-family="Helvetica,sans-Serif" font-size="10.00">nntp_schema</text>
</a>
</g>
</g>
<!-- Node1&#45;&gt;Node746 -->
<g id="edge13" class="edge">
<title>Node1&#45;&gt;Node746</title>
<path fill="none" stroke="#63b8ff" d="M192.94,-247.42C185.08,-212.31 164.51,-141.86 120,-102.5 114.11,-97.3 106.79,-93.52 99.32,-90.77"/>
<polygon fill="#63b8ff" stroke="#63b8ff" points="189.5,-248.07 194.97,-257.15 196.35,-246.64 189.5,-248.07"/>
</g>
<!-- Node747 -->
<g id="node15" class="node">
<title>Node747</title>
<g id="a_node15"><a xlink:href="pop_8c.html#aa0a6ddc22898d702a5ea50cb2f16bb11" target="_top" xlink:title="Open the header cache.">
<polygon fill="#fff0f0" stroke="red" points="110,-56 10,-56 10,-37 110,-37 110,-56"/>
<text text-anchor="middle" x="60" y="-44" font-family="Helvetica,sans-Serif" font-size="10.00">pop_hcache_open</text>
</a>
</g>
</g>
<!-- Node1&#45;&gt;Node747 -->
<g id="edge14" class="edge">
<title>Node1&#45;&gt;Node747</title>
<path fill="none" stroke="#63b8ff" d="M194.97,-247.41C189.9,-206.48 173.01,-115.87 120,-65.5 116.1,-61.79 111.47,-58.81 106.55,-56.41"/>
<polygon fill="#63b8ff" stroke="#63b8ff" points="191.49,-247.78 196.06,-257.34 198.44,-247.01 191.49,-247.78"/>
</g>
<!-- Node127 -->
<g id="node16" class="node">
<title>Node127</title>
<g id="a_node16"><a xlink:href="group__mx__mbox__open.html#ga0de2de1958a22ca0679ea67f4f434db2" target="_top" xlink:title="Open a Mailbox &#45; Implements MxOps::mbox_open() &#45;.">
<polygon fill="white" stroke="#666666" points="107,-19 13,-19 13,0 107,0 107,-19"/>
<text text-anchor="middle" x="60" y="-7" font-family="Helvetica,sans-Serif" font-size="10.00">pop_mbox_open</text>
</a>
</g>
</g>
<!-- Node1&#45;&gt;Node127 -->
<g id="edge15" class="edge">
<title>Node1&#45;&gt;Node127</title>
<path fill="none" stroke="#63b8ff" d="M196.41,-247.45C193.97,-201.25 181.62,-90.19 120,-28.5 116.27,-24.77 111.81,-21.77 107.03,-19.36"/>
<polygon fill="#63b8ff" stroke="#63b8ff" points="192.9,-247.31 196.81,-257.15 199.9,-247.02 192.9,-247.31"/>
</g>
</g>
</svg>
