<?xml version="1.0" encoding="UTF-8" standalone="no"?>
<!DOCTYPE svg PUBLIC "-//W3C//DTD SVG 1.1//EN"
 "http://www.w3.org/Graphics/SVG/1.1/DTD/svg11.dtd">
<!-- Generated by graphviz version 7.1.0 (0)
 -->
<!-- Title: attach/mutt_attach.c Pages: 1 -->
<svg width="1834pt" height="247pt"
 viewBox="0.00 0.00 1833.57 247.00" xmlns="http://www.w3.org/2000/svg" xmlns:xlink="http://www.w3.org/1999/xlink">
<g id="graph0" class="graph" transform="scale(1 1) rotate(0) translate(4 243)">
<title>attach/mutt_attach.c</title>
<!-- Node1 -->
<g id="node1" class="node">
<title>Node1</title>
<g id="a_node1"><a xlink:title="Handling of email attachments.">
<polygon fill="#999999" stroke="#666666" points="860.57,-239 748.57,-239 748.57,-220 860.57,-220 860.57,-239"/>
<text text-anchor="middle" x="804.57" y="-227" font-family="Helvetica,sans-Serif" font-size="10.00">attach/mutt_attach.c</text>
</a>
</g>
</g>
<!-- Node2 -->
<g id="node2" class="node">
<title>Node2</title>
<g id="a_node2"><a xlink:title=" ">
<polygon fill="#e0e0e0" stroke="#999999" points="194.57,-74 140.57,-74 140.57,-55 194.57,-55 194.57,-74"/>
<text text-anchor="middle" x="167.57" y="-62" font-family="Helvetica,sans-Serif" font-size="10.00">config.h</text>
</a>
</g>
</g>
<!-- Node1&#45;&gt;Node2 -->
<g id="edge1" class="edge">
<title>Node1&#45;&gt;Node2</title>
<path fill="none" stroke="#63b8ff" d="M748.39,-226.48C613.98,-221.29 281.65,-206.37 236.57,-184 207.24,-169.45 203.74,-157.47 187.57,-129 179.79,-115.29 174.62,-98.16 171.49,-85.15"/>
<polygon fill="#63b8ff" stroke="#63b8ff" points="174.97,-84.69 169.42,-75.66 168.13,-86.18 174.97,-84.69"/>
</g>
<!-- Node3 -->
<g id="node3" class="node">
<title>Node3</title>
<g id="a_node3"><a xlink:title=" ">
<polygon fill="#e0e0e0" stroke="#999999" points="1146.07,-184 1093.07,-184 1093.07,-165 1146.07,-165 1146.07,-184"/>
<text text-anchor="middle" x="1119.57" y="-172" font-family="Helvetica,sans-Serif" font-size="10.00">errno.h</text>
</a>
</g>
</g>
<!-- Node1&#45;&gt;Node3 -->
<g id="edge2" class="edge">
<title>Node1&#45;&gt;Node3</title>
<path fill="none" stroke="#63b8ff" d="M860.84,-220.09C916.32,-211.63 1003.46,-197.88 1078.57,-184 1079.57,-183.82 1080.59,-183.62 1081.61,-183.43"/>
<polygon fill="#63b8ff" stroke="#63b8ff" points="1082.08,-186.91 1091.21,-181.54 1080.72,-180.04 1082.08,-186.91"/>
</g>
<!-- Node4 -->
<g id="node4" class="node">
<title>Node4</title>
<g id="a_node4"><a xlink:title=" ">
<polygon fill="#e0e0e0" stroke="#999999" points="1210.57,-184 1164.57,-184 1164.57,-165 1210.57,-165 1210.57,-184"/>
<text text-anchor="middle" x="1187.57" y="-172" font-family="Helvetica,sans-Serif" font-size="10.00">fcntl.h</text>
</a>
</g>
</g>
<!-- Node1&#45;&gt;Node4 -->
<g id="edge3" class="edge">
<title>Node1&#45;&gt;Node4</title>
<path fill="none" stroke="#63b8ff" d="M860.87,-223.7C928.19,-217.44 1044.44,-205 1153.07,-184.25"/>
<polygon fill="#63b8ff" stroke="#63b8ff" points="1153.6,-187.71 1162.75,-182.37 1152.27,-180.84 1153.6,-187.71"/>
</g>
<!-- Node5 -->
<g id="node5" class="node">
<title>Node5</title>
<g id="a_node5"><a xlink:title=" ">
<polygon fill="#e0e0e0" stroke="#999999" points="721.57,-19 661.57,-19 661.57,0 721.57,0 721.57,-19"/>
<text text-anchor="middle" x="691.57" y="-7" font-family="Helvetica,sans-Serif" font-size="10.00">stdbool.h</text>
</a>
</g>
</g>
<!-- Node1&#45;&gt;Node5 -->
<g id="edge4" class="edge">
<title>Node1&#45;&gt;Node5</title>
<path fill="none" stroke="#63b8ff" d="M796.63,-219.75C789.54,-211.3 779.67,-197.79 775.57,-184 773.17,-175.91 774.15,-173.32 775.57,-165 784.14,-114.81 836.41,-96.96 807.57,-55 790.91,-30.77 759.1,-19.72 733,-14.7"/>
<polygon fill="#63b8ff" stroke="#63b8ff" points="733.79,-11.28 723.35,-13.08 732.63,-18.18 733.79,-11.28"/>
</g>
<!-- Node6 -->
<g id="node6" class="node">
<title>Node6</title>
<g id="a_node6"><a xlink:title=" ">
<polygon fill="#e0e0e0" stroke="#999999" points="353.57,-19 305.57,-19 305.57,0 353.57,0 353.57,-19"/>
<text text-anchor="middle" x="329.57" y="-7" font-family="Helvetica,sans-Serif" font-size="10.00">stdio.h</text>
</a>
</g>
</g>
<!-- Node1&#45;&gt;Node6 -->
<g id="edge5" class="edge">
<title>Node1&#45;&gt;Node6</title>
<path fill="none" stroke="#63b8ff" d="M748.31,-226.75C651.48,-223.03 457.81,-212.21 396.57,-184 331.74,-154.14 307.9,-139.51 279.57,-74 271.56,-55.48 288.32,-37.73 304.56,-25.73"/>
<polygon fill="#63b8ff" stroke="#63b8ff" points="306.33,-28.76 312.61,-20.22 302.38,-22.98 306.33,-28.76"/>
</g>
<!-- Node7 -->
<g id="node7" class="node">
<title>Node7</title>
<g id="a_node7"><a xlink:title=" ">
<polygon fill="#e0e0e0" stroke="#999999" points="1282.07,-184 1229.07,-184 1229.07,-165 1282.07,-165 1282.07,-184"/>
<text text-anchor="middle" x="1255.57" y="-172" font-family="Helvetica,sans-Serif" font-size="10.00">string.h</text>
</a>
</g>
</g>
<!-- Node1&#45;&gt;Node7 -->
<g id="edge6" class="edge">
<title>Node1&#45;&gt;Node7</title>
<path fill="none" stroke="#63b8ff" d="M860.93,-224.7C938.85,-218.96 1084.04,-206.48 1217.67,-184.1"/>
<polygon fill="#63b8ff" stroke="#63b8ff" points="1218.15,-187.57 1227.42,-182.44 1216.97,-180.67 1218.15,-187.57"/>
</g>
<!-- Node8 -->
<g id="node8" class="node">
<title>Node8</title>
<g id="a_node8"><a xlink:title=" ">
<polygon fill="#e0e0e0" stroke="#999999" points="1361.07,-184 1300.07,-184 1300.07,-165 1361.07,-165 1361.07,-184"/>
<text text-anchor="middle" x="1330.57" y="-172" font-family="Helvetica,sans-Serif" font-size="10.00">sys/stat.h</text>
</a>
</g>
</g>
<!-- Node1&#45;&gt;Node8 -->
<g id="edge7" class="edge">
<title>Node1&#45;&gt;Node8</title>
<path fill="none" stroke="#63b8ff" d="M860.72,-225.63C949.6,-220.59 1128.29,-208.44 1288.94,-184.23"/>
<polygon fill="#63b8ff" stroke="#63b8ff" points="1289.13,-187.74 1298.48,-182.77 1288.07,-180.82 1289.13,-187.74"/>
</g>
<!-- Node9 -->
<g id="node9" class="node">
<title>Node9</title>
<g id="a_node9"><a xlink:title=" ">
<polygon fill="#e0e0e0" stroke="#999999" points="1441.57,-184 1379.57,-184 1379.57,-165 1441.57,-165 1441.57,-184"/>
<text text-anchor="middle" x="1410.57" y="-172" font-family="Helvetica,sans-Serif" font-size="10.00">sys/wait.h</text>
</a>
</g>
</g>
<!-- Node1&#45;&gt;Node9 -->
<g id="edge8" class="edge">
<title>Node1&#45;&gt;Node9</title>
<path fill="none" stroke="#63b8ff" d="M860.67,-226.52C960.7,-222.47 1176.56,-211.33 1368.07,-184.17"/>
<polygon fill="#63b8ff" stroke="#63b8ff" points="1368.3,-187.68 1377.7,-182.79 1367.3,-180.75 1368.3,-187.68"/>
</g>
<!-- Node10 -->
<g id="node10" class="node">
<title>Node10</title>
<g id="a_node10"><a xlink:title=" ">
<polygon fill="#e0e0e0" stroke="#999999" points="1513.57,-184 1459.57,-184 1459.57,-165 1513.57,-165 1513.57,-184"/>
<text text-anchor="middle" x="1486.57" y="-172" font-family="Helvetica,sans-Serif" font-size="10.00">unistd.h</text>
</a>
</g>
</g>
<!-- Node1&#45;&gt;Node10 -->
<g id="edge9" class="edge">
<title>Node1&#45;&gt;Node10</title>
<path fill="none" stroke="#63b8ff" d="M860.64,-227.71C971.26,-225.48 1225.48,-217.07 1447.91,-184.15"/>
<polygon fill="#63b8ff" stroke="#63b8ff" points="1448.28,-187.63 1457.65,-182.69 1447.24,-180.71 1448.28,-187.63"/>
</g>
<!-- Node11 -->
<g id="node11" class="node">
<title>Node11</title>
<g id="a_node11"><a xlink:href="mutt_2lib_8h.html" target="_top" xlink:title="Convenience wrapper for the library headers.">
<polygon fill="#fff0f0" stroke="red" points="67.57,-19 5.57,-19 5.57,0 67.57,0 67.57,-19"/>
<text text-anchor="middle" x="36.57" y="-7" font-family="Helvetica,sans-Serif" font-size="10.00">mutt/lib.h</text>
</a>
</g>
</g>
<!-- Node1&#45;&gt;Node11 -->
<g id="edge10" class="edge">
<title>Node1&#45;&gt;Node11</title>
<path fill="none" stroke="#63b8ff" d="M748.11,-228.39C602.88,-227.57 219.29,-221.78 98.57,-184 53.47,-169.89 30.79,-170.16 7.57,-129 -10.65,-96.7 9.62,-53.15 24.25,-28.85"/>
<polygon fill="#63b8ff" stroke="#63b8ff" points="27.02,-31.02 29.42,-20.7 21.11,-27.27 27.02,-31.02"/>
</g>
<!-- Node58 -->
<g id="node12" class="node">
<title>Node58</title>
<g id="a_node12"><a xlink:href="config_2lib_8h.html" target="_top" xlink:title="Convenience wrapper for the config headers.">
<polygon fill="#fff0f0" stroke="red" points="960.57,-129 892.57,-129 892.57,-110 960.57,-110 960.57,-129"/>
<text text-anchor="middle" x="926.57" y="-117" font-family="Helvetica,sans-Serif" font-size="10.00">config/lib.h</text>
</a>
</g>
</g>
<!-- Node1&#45;&gt;Node58 -->
<g id="edge11" class="edge">
<title>Node1&#45;&gt;Node58</title>
<path fill="none" stroke="#63b8ff" d="M860.94,-223.39C886.91,-217.89 915.49,-206.68 931.57,-184 940.58,-171.3 938.17,-153.37 934.17,-139.8"/>
<polygon fill="#63b8ff" stroke="#63b8ff" points="937.59,-138.96 931,-130.66 930.97,-141.26 937.59,-138.96"/>
</g>
<!-- Node72 -->
<g id="node13" class="node">
<title>Node72</title>
<g id="a_node13"><a xlink:href="email_2lib_8h.html" target="_top" xlink:title="Structs that make up an email.">
<polygon fill="#fff0f0" stroke="red" points="1597.07,-184 1532.07,-184 1532.07,-165 1597.07,-165 1597.07,-184"/>
<text text-anchor="middle" x="1564.57" y="-172" font-family="Helvetica,sans-Serif" font-size="10.00">email/lib.h</text>
</a>
</g>
</g>
<!-- Node1&#45;&gt;Node72 -->
<g id="edge13" class="edge">
<title>Node1&#45;&gt;Node72</title>
<path fill="none" stroke="#63b8ff" d="M860.68,-227.65C980.19,-225.27 1268.78,-216.51 1520.43,-184.08"/>
<polygon fill="#63b8ff" stroke="#63b8ff" points="1520.66,-187.57 1530.13,-182.81 1519.76,-180.63 1520.66,-187.57"/>
</g>
<!-- Node93 -->
<g id="node14" class="node">
<title>Node93</title>
<g id="a_node14"><a xlink:href="core_2lib_8h.html" target="_top" xlink:title="Convenience wrapper for the core headers.">
<polygon fill="#fff0f0" stroke="red" points="798.57,-74 738.57,-74 738.57,-55 798.57,-55 798.57,-74"/>
<text text-anchor="middle" x="768.57" y="-62" font-family="Helvetica,sans-Serif" font-size="10.00">core/lib.h</text>
</a>
</g>
</g>
<!-- Node1&#45;&gt;Node93 -->
<g id="edge14" class="edge">
<title>Node1&#45;&gt;Node93</title>
<path fill="none" stroke="#63b8ff" d="M783.13,-219.54C768.79,-212.26 751.04,-200.5 742.57,-184 725.81,-151.34 743.93,-108.22 757.2,-84.02"/>
<polygon fill="#63b8ff" stroke="#63b8ff" points="760.06,-86.06 762.05,-75.65 754.01,-82.55 760.06,-86.06"/>
</g>
<!-- Node103 -->
<g id="node15" class="node">
<title>Node103</title>
<g id="a_node15"><a xlink:href="gui_2lib_8h.html" target="_top" xlink:title="Convenience wrapper for the gui headers.">
<polygon fill="#fff0f0" stroke="red" points="1669.57,-184 1615.57,-184 1615.57,-165 1669.57,-165 1669.57,-184"/>
<text text-anchor="middle" x="1642.57" y="-172" font-family="Helvetica,sans-Serif" font-size="10.00">gui/lib.h</text>
</a>
</g>
</g>
<!-- Node1&#45;&gt;Node103 -->
<g id="edge15" class="edge">
<title>Node1&#45;&gt;Node103</title>
<path fill="none" stroke="#63b8ff" d="M860.82,-228.78C990.4,-228.69 1319.98,-224.29 1603.8,-184.13"/>
<polygon fill="#63b8ff" stroke="#63b8ff" points="1604.25,-187.6 1613.65,-182.72 1603.26,-180.67 1604.25,-187.6"/>
</g>
<!-- Node138 -->
<g id="node16" class="node">
<title>Node138</title>
<g id="a_node16"><a xlink:href="mutt__attach_8h.html" target="_top" xlink:title="Handling of email attachments.">
<polygon fill="white" stroke="#666666" points="370.07,-74 289.07,-74 289.07,-55 370.07,-55 370.07,-74"/>
<text text-anchor="middle" x="329.57" y="-62" font-family="Helvetica,sans-Serif" font-size="10.00">mutt_attach.h</text>
</a>
</g>
</g>
<!-- Node1&#45;&gt;Node138 -->
<g id="edge16" class="edge">
<title>Node1&#45;&gt;Node138</title>
<path fill="none" stroke="#63b8ff" d="M748.19,-226.3C657.28,-222.01 482.92,-210.53 427.57,-184 383.77,-163.01 352.73,-112 338.43,-84.25"/>
<polygon fill="#63b8ff" stroke="#63b8ff" points="341.73,-83.01 334.16,-75.59 335.45,-86.11 341.73,-83.01"/>
</g>
<!-- Node139 -->
<g id="node17" class="node">
<title>Node139</title>
<g id="a_node17"><a xlink:href="attach_2lib_8h.html" target="_top" xlink:title="GUI display the mailboxes in a side panel.">
<polygon fill="#fff0f0" stroke="red" points="566.57,-129 530.57,-129 530.57,-110 566.57,-110 566.57,-129"/>
<text text-anchor="middle" x="548.57" y="-117" font-family="Helvetica,sans-Serif" font-size="10.00">lib.h</text>
</a>
</g>
</g>
<!-- Node1&#45;&gt;Node139 -->
<g id="edge20" class="edge">
<title>Node1&#45;&gt;Node139</title>
<path fill="none" stroke="#63b8ff" d="M748.18,-223.6C689.17,-217.43 601.54,-205.02 575.57,-184 562.32,-173.28 555.46,-154.85 551.97,-140.6"/>
<polygon fill="#63b8ff" stroke="#63b8ff" points="555.43,-140.04 550.01,-130.94 548.57,-141.43 555.43,-140.04"/>
</g>
<!-- Node140 -->
<g id="node18" class="node">
<title>Node140</title>
<g id="a_node18"><a xlink:href="attach_8h.html" target="_top" xlink:title="Handling of email attachments.">
<polygon fill="white" stroke="#666666" points="568.57,-74 514.57,-74 514.57,-55 568.57,-55 568.57,-74"/>
<text text-anchor="middle" x="541.57" y="-62" font-family="Helvetica,sans-Serif" font-size="10.00">attach.h</text>
</a>
</g>
</g>
<!-- Node1&#45;&gt;Node140 -->
<g id="edge38" class="edge">
<title>Node1&#45;&gt;Node140</title>
<path fill="none" stroke="#63b8ff" d="M748.18,-223.53C685.22,-217.09 588.14,-204.23 557.57,-184 533.21,-167.87 529.92,-157 521.57,-129 517.02,-113.75 523.15,-96.54 529.79,-83.88"/>
<polygon fill="#63b8ff" stroke="#63b8ff" points="532.72,-85.81 534.73,-75.41 526.67,-82.28 532.72,-85.81"/>
</g>
<!-- Node77 -->
<g id="node19" class="node">
<title>Node77</title>
<g id="a_node19"><a xlink:href="ncrypt_2lib_8h.html" target="_top" xlink:title="API for encryption/signing of emails.">
<polygon fill="#fff0f0" stroke="red" points="458.57,-74 388.57,-74 388.57,-55 458.57,-55 458.57,-74"/>
<text text-anchor="middle" x="423.57" y="-62" font-family="Helvetica,sans-Serif" font-size="10.00">ncrypt/lib.h</text>
</a>
</g>
</g>
<!-- Node1&#45;&gt;Node77 -->
<g id="edge27" class="edge">
<title>Node1&#45;&gt;Node77</title>
<path fill="none" stroke="#63b8ff" d="M748.23,-223.64C679.77,-216.99 568.89,-203.59 532.57,-184 488.24,-160.09 452.32,-111.14 434.93,-84.24"/>
<polygon fill="#63b8ff" stroke="#63b8ff" points="437.9,-82.39 429.62,-75.78 431.97,-86.11 437.9,-82.39"/>
</g>
<!-- Node144 -->
<g id="node20" class="node">
<title>Node144</title>
<g id="a_node20"><a xlink:href="pager_2lib_8h.html" target="_top" xlink:title="GUI display a file/email/help in a viewport with paging.">
<polygon fill="#fff0f0" stroke="red" points="84.57,-129 16.57,-129 16.57,-110 84.57,-110 84.57,-129"/>
<text text-anchor="middle" x="50.57" y="-117" font-family="Helvetica,sans-Serif" font-size="10.00">pager/lib.h</text>
</a>
</g>
</g>
<!-- Node1&#45;&gt;Node144 -->
<g id="edge30" class="edge">
<title>Node1&#45;&gt;Node144</title>
<path fill="none" stroke="#63b8ff" d="M748.21,-228.88C607.94,-229.16 246.4,-225.69 134.57,-184 107.94,-174.07 82.67,-152.78 66.93,-137.59"/>
<polygon fill="#63b8ff" stroke="#63b8ff" points="69.45,-135.15 59.9,-130.55 64.49,-140.1 69.45,-135.15"/>
</g>
<!-- Node145 -->
<g id="node21" class="node">
<title>Node145</title>
<g id="a_node21"><a xlink:href="question_2lib_8h.html" target="_top" xlink:title="Ask the user a question.">
<polygon fill="white" stroke="#666666" points="922.57,-184 842.57,-184 842.57,-165 922.57,-165 922.57,-184"/>
<text text-anchor="middle" x="882.57" y="-172" font-family="Helvetica,sans-Serif" font-size="10.00">question/lib.h</text>
</a>
</g>
</g>
<!-- Node1&#45;&gt;Node145 -->
<g id="edge35" class="edge">
<title>Node1&#45;&gt;Node145</title>
<path fill="none" stroke="#63b8ff" d="M817.8,-219.51C829.41,-211.62 846.54,-199.98 860.27,-190.65"/>
<polygon fill="#63b8ff" stroke="#63b8ff" points="861.98,-193.72 868.28,-185.21 858.04,-187.93 861.98,-193.72"/>
</g>
<!-- Node146 -->
<g id="node22" class="node">
<title>Node146</title>
<g id="a_node22"><a xlink:href="send_2lib_8h.html" target="_top" xlink:title="Convenience wrapper for the send headers.">
<polygon fill="#fff0f0" stroke="red" points="1749.57,-184 1687.57,-184 1687.57,-165 1749.57,-165 1749.57,-184"/>
<text text-anchor="middle" x="1718.57" y="-172" font-family="Helvetica,sans-Serif" font-size="10.00">send/lib.h</text>
</a>
</g>
</g>
<!-- Node1&#45;&gt;Node146 -->
<g id="edge37" class="edge">
<title>Node1&#45;&gt;Node146</title>
<path fill="none" stroke="#63b8ff" d="M860.83,-228.72C998.46,-228.58 1363.13,-224.25 1676.1,-184.1"/>
<polygon fill="#63b8ff" stroke="#63b8ff" points="1676.24,-187.61 1685.71,-182.85 1675.34,-180.67 1676.24,-187.61"/>
</g>
<!-- Node155 -->
<g id="node23" class="node">
<title>Node155</title>
<g id="a_node23"><a xlink:href="cid_8h.html" target="_top" xlink:title="Attachment Content&#45;ID header functions.">
<polygon fill="white" stroke="#666666" points="140.57,-129 102.57,-129 102.57,-110 140.57,-110 140.57,-129"/>
<text text-anchor="middle" x="121.57" y="-117" font-family="Helvetica,sans-Serif" font-size="10.00">cid.h</text>
</a>
</g>
</g>
<!-- Node1&#45;&gt;Node155 -->
<g id="edge39" class="edge">
<title>Node1&#45;&gt;Node155</title>
<path fill="none" stroke="#63b8ff" d="M748.17,-227.77C599.25,-225.4 203.59,-216.11 154.57,-184 139.47,-174.11 130.88,-154.99 126.27,-140.3"/>
<polygon fill="#63b8ff" stroke="#63b8ff" points="129.68,-139.5 123.68,-130.77 122.93,-141.33 129.68,-139.5"/>
</g>
<!-- Node149 -->
<g id="node24" class="node">
<title>Node149</title>
<g id="a_node24"><a xlink:href="copy_8h.html" target="_top" xlink:title="Duplicate the structure of an entire email.">
<polygon fill="#fff0f0" stroke="red" points="244.07,-129 197.07,-129 197.07,-110 244.07,-110 244.07,-129"/>
<text text-anchor="middle" x="220.57" y="-117" font-family="Helvetica,sans-Serif" font-size="10.00">copy.h</text>
</a>
</g>
</g>
<!-- Node1&#45;&gt;Node149 -->
<g id="edge42" class="edge">
<title>Node1&#45;&gt;Node149</title>
<path fill="none" stroke="#63b8ff" d="M748.36,-226.81C617.29,-222.47 299.45,-209.43 258.57,-184 242.56,-174.04 232.42,-154.63 226.68,-139.88"/>
<polygon fill="#63b8ff" stroke="#63b8ff" points="230.09,-139.03 223.49,-130.74 223.48,-141.34 230.09,-139.03"/>
</g>
<!-- Node156 -->
<g id="node25" class="node">
<title>Node156</title>
<g id="a_node25"><a xlink:title=" ">
<polygon fill="#e0e0e0" stroke="#999999" points="1825.57,-184 1767.57,-184 1767.57,-165 1825.57,-165 1825.57,-184"/>
<text text-anchor="middle" x="1796.57" y="-172" font-family="Helvetica,sans-Serif" font-size="10.00">globals.h</text>
</a>
</g>
</g>
<!-- Node1&#45;&gt;Node156 -->
<g id="edge45" class="edge">
<title>Node1&#45;&gt;Node156</title>
<path fill="none" stroke="#63b8ff" d="M860.84,-227.16C1034.61,-222.81 1562.19,-208.09 1756.02,-184.05"/>
<polygon fill="#63b8ff" stroke="#63b8ff" points="1756.23,-187.55 1765.7,-182.79 1755.34,-180.61 1756.23,-187.55"/>
</g>
<!-- Node157 -->
<g id="node26" class="node">
<title>Node157</title>
<g id="a_node26"><a xlink:href="handler_8h.html" target="_top" xlink:title="Decide how to display email content.">
<polygon fill="#fff0f0" stroke="red" points="990.07,-74 931.07,-74 931.07,-55 990.07,-55 990.07,-74"/>
<text text-anchor="middle" x="960.57" y="-62" font-family="Helvetica,sans-Serif" font-size="10.00">handler.h</text>
</a>
</g>
</g>
<!-- Node1&#45;&gt;Node157 -->
<g id="edge46" class="edge">
<title>Node1&#45;&gt;Node157</title>
<path fill="none" stroke="#63b8ff" d="M861.06,-222.9C890.37,-217.32 924.89,-206.19 948.57,-184 973.52,-160.62 972.98,-144.02 969.57,-110 968.76,-101.86 967.12,-93.01 965.47,-85.36"/>
<polygon fill="#63b8ff" stroke="#63b8ff" points="968.91,-84.7 963.23,-75.76 962.09,-86.29 968.91,-84.7"/>
</g>
<!-- Node158 -->
<g id="node27" class="node">
<title>Node158</title>
<g id="a_node27"><a xlink:href="mailcap_8h.html" target="_top" xlink:title="RFC1524 Mailcap routines.">
<polygon fill="#fff0f0" stroke="red" points="1068.57,-74 1008.57,-74 1008.57,-55 1068.57,-55 1068.57,-74"/>
<text text-anchor="middle" x="1038.57" y="-62" font-family="Helvetica,sans-Serif" font-size="10.00">mailcap.h</text>
</a>
</g>
</g>
<!-- Node1&#45;&gt;Node158 -->
<g id="edge48" class="edge">
<title>Node1&#45;&gt;Node158</title>
<path fill="none" stroke="#63b8ff" d="M860.93,-224.11C895.25,-218.98 938.36,-207.9 969.57,-184 1003.02,-158.39 1023.2,-111.56 1032.47,-85.08"/>
<polygon fill="#63b8ff" stroke="#63b8ff" points="1035.77,-86.23 1035.59,-75.64 1029.13,-84.04 1035.77,-86.23"/>
</g>
<!-- Node159 -->
<g id="node28" class="node">
<title>Node159</title>
<g id="a_node28"><a xlink:href="muttlib_8h.html" target="_top" xlink:title="Some miscellaneous functions.">
<polygon fill="#fff0f0" stroke="red" points="644.07,-184 585.07,-184 585.07,-165 644.07,-165 644.07,-184"/>
<text text-anchor="middle" x="614.57" y="-172" font-family="Helvetica,sans-Serif" font-size="10.00">muttlib.h</text>
</a>
</g>
</g>
<!-- Node1&#45;&gt;Node159 -->
<g id="edge50" class="edge">
<title>Node1&#45;&gt;Node159</title>
<path fill="none" stroke="#63b8ff" d="M772.34,-219.51C740.05,-210.5 690.25,-196.61 655.25,-186.85"/>
<polygon fill="#63b8ff" stroke="#63b8ff" points="656.48,-183.56 645.91,-184.24 654.6,-190.3 656.48,-183.56"/>
</g>
<!-- Node161 -->
<g id="node29" class="node">
<title>Node161</title>
<g id="a_node29"><a xlink:href="mx_8h.html" target="_top" xlink:title="API for mailboxes.">
<polygon fill="#fff0f0" stroke="red" points="824.57,-184 784.57,-184 784.57,-165 824.57,-165 824.57,-184"/>
<text text-anchor="middle" x="804.57" y="-172" font-family="Helvetica,sans-Serif" font-size="10.00">mx.h</text>
</a>
</g>
</g>
<!-- Node1&#45;&gt;Node161 -->
<g id="edge54" class="edge">
<title>Node1&#45;&gt;Node161</title>
<path fill="none" stroke="#63b8ff" d="M804.57,-219.75C804.57,-213.27 804.57,-204.16 804.57,-195.9"/>
<polygon fill="#63b8ff" stroke="#63b8ff" points="808.07,-195.96 804.57,-185.96 801.07,-195.96 808.07,-195.96"/>
</g>
<!-- Node162 -->
<g id="node30" class="node">
<title>Node162</title>
<g id="a_node30"><a xlink:href="protos_8h.html" target="_top" xlink:title="Prototypes for many functions.">
<polygon fill="#fff0f0" stroke="red" points="436.57,-129 380.57,-129 380.57,-110 436.57,-110 436.57,-129"/>
<text text-anchor="middle" x="408.57" y="-117" font-family="Helvetica,sans-Serif" font-size="10.00">protos.h</text>
</a>
</g>
</g>
<!-- Node1&#45;&gt;Node162 -->
<g id="edge58" class="edge">
<title>Node1&#45;&gt;Node162</title>
<path fill="none" stroke="#63b8ff" d="M748.16,-227.07C661.12,-223.93 499.05,-214.11 450.57,-184 434.09,-173.77 422.7,-154.4 415.98,-139.73"/>
<polygon fill="#63b8ff" stroke="#63b8ff" points="419.27,-138.5 412.17,-130.63 412.81,-141.21 419.27,-138.5"/>
</g>
<!-- Node165 -->
<g id="node31" class="node">
<title>Node165</title>
<g id="a_node31"><a xlink:href="rfc3676_8h.html" target="_top" xlink:title="RFC3676 Format Flowed routines.">
<polygon fill="white" stroke="#666666" points="1121.57,-129 1059.57,-129 1059.57,-110 1121.57,-110 1121.57,-129"/>
<text text-anchor="middle" x="1090.57" y="-117" font-family="Helvetica,sans-Serif" font-size="10.00">rfc3676.h</text>
</a>
</g>
</g>
<!-- Node1&#45;&gt;Node165 -->
<g id="edge61" class="edge">
<title>Node1&#45;&gt;Node165</title>
<path fill="none" stroke="#63b8ff" d="M860.96,-228.79C911.42,-226.63 985.67,-217.29 1040.57,-184 1058.35,-173.22 1072.31,-153.63 1080.9,-139.06"/>
<polygon fill="#63b8ff" stroke="#63b8ff" points="1083.89,-140.88 1085.67,-130.44 1077.77,-137.49 1083.89,-140.88"/>
</g>
<!-- Node166 -->
<g id="node32" class="node">
<title>Node166</title>
<g id="a_node32"><a xlink:href="imap_2lib_8h.html" target="_top" xlink:title="IMAP network mailbox.">
<polygon fill="#fff0f0" stroke="red" points="722.57,-129 660.57,-129 660.57,-110 722.57,-110 722.57,-129"/>
<text text-anchor="middle" x="691.57" y="-117" font-family="Helvetica,sans-Serif" font-size="10.00">imap/lib.h</text>
</a>
</g>
</g>
<!-- Node1&#45;&gt;Node166 -->
<g id="edge63" class="edge">
<title>Node1&#45;&gt;Node166</title>
<path fill="none" stroke="#63b8ff" d="M763,-219.54C742.49,-213.02 719.09,-202.07 704.57,-184 694.85,-171.9 691.83,-154.41 691.11,-140.84"/>
<polygon fill="#63b8ff" stroke="#63b8ff" points="694.61,-140.82 691,-130.86 687.61,-140.9 694.61,-140.82"/>
</g>
<!-- Node58&#45;&gt;Node5 -->
<g id="edge12" class="edge">
<title>Node58&#45;&gt;Node5</title>
<path fill="none" stroke="#63b8ff" d="M922.37,-109.56C915.34,-95.63 899.86,-68.9 878.57,-55 834.32,-26.1 773.26,-15.93 733.11,-12.37"/>
<polygon fill="#63b8ff" stroke="#63b8ff" points="733.62,-8.9 723.38,-11.62 733.08,-15.88 733.62,-8.9"/>
</g>
<!-- Node138&#45;&gt;Node5 -->
<g id="edge17" class="edge">
<title>Node138&#45;&gt;Node5</title>
<path fill="none" stroke="#63b8ff" d="M370.49,-56.45C373.56,-55.95 376.61,-55.46 379.57,-55 476.37,-39.87 590.4,-24.14 650.2,-16.04"/>
<polygon fill="#63b8ff" stroke="#63b8ff" points="650.47,-19.54 659.91,-14.73 649.53,-12.6 650.47,-19.54"/>
</g>
<!-- Node138&#45;&gt;Node6 -->
<g id="edge18" class="edge">
<title>Node138&#45;&gt;Node6</title>
<path fill="none" stroke="#63b8ff" d="M329.57,-54.75C329.57,-48.27 329.57,-39.16 329.57,-30.9"/>
<polygon fill="#63b8ff" stroke="#63b8ff" points="333.07,-30.96 329.57,-20.96 326.07,-30.96 333.07,-30.96"/>
</g>
<!-- Node138&#45;&gt;Node11 -->
<g id="edge19" class="edge">
<title>Node138&#45;&gt;Node11</title>
<path fill="none" stroke="#63b8ff" d="M288.83,-56.13C233.52,-46.13 135.14,-28.33 78.97,-18.17"/>
<polygon fill="#63b8ff" stroke="#63b8ff" points="79.95,-14.79 69.49,-16.45 78.7,-21.68 79.95,-14.79"/>
</g>
<!-- Node139&#45;&gt;Node5 -->
<g id="edge21" class="edge">
<title>Node139&#45;&gt;Node5</title>
<path fill="none" stroke="#63b8ff" d="M560.27,-109.66C584.47,-91.39 640.28,-49.23 670.77,-26.21"/>
<polygon fill="#63b8ff" stroke="#63b8ff" points="672.63,-29.19 678.5,-20.37 668.41,-23.61 672.63,-29.19"/>
</g>
<!-- Node139&#45;&gt;Node93 -->
<g id="edge22" class="edge">
<title>Node139&#45;&gt;Node93</title>
<path fill="none" stroke="#63b8ff" d="M566.95,-114.07C602.04,-105.62 679.34,-87 727.38,-75.42"/>
<polygon fill="#63b8ff" stroke="#63b8ff" points="727.96,-78.88 736.87,-73.14 726.32,-72.08 727.96,-78.88"/>
</g>
<!-- Node139&#45;&gt;Node138 -->
<g id="edge26" class="edge">
<title>Node139&#45;&gt;Node138</title>
<path fill="none" stroke="#63b8ff" d="M530.28,-114.07C497.06,-106.03 425.84,-88.8 377.81,-77.17"/>
<polygon fill="#63b8ff" stroke="#63b8ff" points="378.75,-73.8 368.21,-74.85 377.1,-80.6 378.75,-73.8"/>
</g>
<!-- Node139&#45;&gt;Node140 -->
<g id="edge23" class="edge">
<title>Node139&#45;&gt;Node140</title>
<path fill="none" stroke="#63b8ff" d="M547.41,-109.75C546.55,-103.19 545.33,-93.95 544.23,-85.6"/>
<polygon fill="#63b8ff" stroke="#63b8ff" points="547.73,-85.4 542.95,-75.94 540.79,-86.31 547.73,-85.4"/>
</g>
<!-- Node140&#45;&gt;Node5 -->
<g id="edge24" class="edge">
<title>Node140&#45;&gt;Node5</title>
<path fill="none" stroke="#63b8ff" d="M567.02,-54.51C591.33,-45.92 628.23,-32.88 655.56,-23.22"/>
<polygon fill="#63b8ff" stroke="#63b8ff" points="656.56,-26.58 664.82,-19.95 654.23,-19.98 656.56,-26.58"/>
</g>
<!-- Node140&#45;&gt;Node6 -->
<g id="edge25" class="edge">
<title>Node140&#45;&gt;Node6</title>
<path fill="none" stroke="#63b8ff" d="M514.29,-56.68C476.16,-47.15 406.9,-29.83 364.88,-19.33"/>
<polygon fill="#63b8ff" stroke="#63b8ff" points="365.82,-15.95 355.27,-16.92 364.12,-22.74 365.82,-15.95"/>
</g>
<!-- Node77&#45;&gt;Node5 -->
<g id="edge28" class="edge">
<title>Node77&#45;&gt;Node5</title>
<path fill="none" stroke="#63b8ff" d="M458.88,-56.52C508.17,-46.77 597.43,-29.12 649.91,-18.74"/>
<polygon fill="#63b8ff" stroke="#63b8ff" points="650.54,-22.18 659.67,-16.81 649.18,-15.32 650.54,-22.18"/>
</g>
<!-- Node77&#45;&gt;Node6 -->
<g id="edge29" class="edge">
<title>Node77&#45;&gt;Node6</title>
<path fill="none" stroke="#63b8ff" d="M407.62,-54.51C393.22,-46.39 371.78,-34.3 355.01,-24.85"/>
<polygon fill="#63b8ff" stroke="#63b8ff" points="357.03,-21.96 346.6,-20.1 353.59,-28.06 357.03,-21.96"/>
</g>
<!-- Node144&#45;&gt;Node2 -->
<g id="edge31" class="edge">
<title>Node144&#45;&gt;Node2</title>
<path fill="none" stroke="#63b8ff" d="M70.42,-109.51C88.85,-101.16 116.55,-88.61 137.66,-79.05"/>
<polygon fill="#63b8ff" stroke="#63b8ff" points="138.97,-82.3 146.64,-74.98 136.08,-75.92 138.97,-82.3"/>
</g>
<!-- Node144&#45;&gt;Node5 -->
<g id="edge32" class="edge">
<title>Node144&#45;&gt;Node5</title>
<path fill="none" stroke="#63b8ff" d="M60.23,-109.75C78.02,-93.84 115.59,-61.24 131.57,-55 226.12,-18.1 537.09,-11.79 650.08,-10.72"/>
<polygon fill="#63b8ff" stroke="#63b8ff" points="649.83,-14.22 659.8,-10.63 649.77,-7.22 649.83,-14.22"/>
</g>
<!-- Node144&#45;&gt;Node6 -->
<g id="edge33" class="edge">
<title>Node144&#45;&gt;Node6</title>
<path fill="none" stroke="#63b8ff" d="M54.48,-109.9C61.3,-95.95 76.75,-68.59 98.57,-55 159.62,-16.99 245.97,-10.21 293.93,-9.69"/>
<polygon fill="#63b8ff" stroke="#63b8ff" points="293.75,-13.19 303.75,-9.68 293.75,-6.19 293.75,-13.19"/>
</g>
<!-- Node144&#45;&gt;Node11 -->
<g id="edge34" class="edge">
<title>Node144&#45;&gt;Node11</title>
<path fill="none" stroke="#63b8ff" d="M42.9,-109.7C36.05,-101.21 26.52,-87.68 22.57,-74 18.31,-59.22 22.55,-42.18 27.45,-29.47"/>
<polygon fill="#63b8ff" stroke="#63b8ff" points="30.53,-31.17 31.31,-20.6 24.11,-28.38 30.53,-31.17"/>
</g>
<!-- Node145&#45;&gt;Node58 -->
<g id="edge36" class="edge">
<title>Node145&#45;&gt;Node58</title>
<path fill="none" stroke="#63b8ff" d="M889.84,-164.75C895.85,-157.5 904.58,-146.98 912.03,-138.02"/>
<polygon fill="#63b8ff" stroke="#63b8ff" points="914.49,-140.54 918.18,-130.61 909.1,-136.07 914.49,-140.54"/>
</g>
<!-- Node155&#45;&gt;Node2 -->
<g id="edge40" class="edge">
<title>Node155&#45;&gt;Node2</title>
<path fill="none" stroke="#63b8ff" d="M129.17,-109.75C135.45,-102.5 144.59,-91.98 152.37,-83.02"/>
<polygon fill="#63b8ff" stroke="#63b8ff" points="154.91,-85.43 158.82,-75.59 149.62,-80.84 154.91,-85.43"/>
</g>
<!-- Node155&#45;&gt;Node11 -->
<g id="edge41" class="edge">
<title>Node155&#45;&gt;Node11</title>
<path fill="none" stroke="#63b8ff" d="M114.61,-109.66C100.67,-91.94 69.05,-51.77 50.62,-28.35"/>
<polygon fill="#63b8ff" stroke="#63b8ff" points="53.49,-26.34 44.56,-20.65 47.99,-30.67 53.49,-26.34"/>
</g>
<!-- Node149&#45;&gt;Node2 -->
<g id="edge43" class="edge">
<title>Node149&#45;&gt;Node2</title>
<path fill="none" stroke="#63b8ff" d="M211.82,-109.75C204.42,-102.35 193.61,-91.54 184.53,-82.45"/>
<polygon fill="#63b8ff" stroke="#63b8ff" points="187.13,-80.11 177.58,-75.51 182.18,-85.06 187.13,-80.11"/>
</g>
<!-- Node149&#45;&gt;Node6 -->
<g id="edge44" class="edge">
<title>Node149&#45;&gt;Node6</title>
<path fill="none" stroke="#63b8ff" d="M222.19,-109.69C225.04,-96.4 232.05,-71.1 246.57,-55 259.59,-40.56 278.43,-29.93 294.87,-22.69"/>
<polygon fill="#63b8ff" stroke="#63b8ff" points="295.93,-26.04 303.84,-18.99 293.26,-19.56 295.93,-26.04"/>
</g>
<!-- Node157&#45;&gt;Node5 -->
<g id="edge47" class="edge">
<title>Node157&#45;&gt;Node5</title>
<path fill="none" stroke="#63b8ff" d="M930.76,-57.63C882.61,-48.14 787.63,-29.43 732.96,-18.65"/>
<polygon fill="#63b8ff" stroke="#63b8ff" points="733.91,-15.27 723.42,-16.77 732.55,-22.14 733.91,-15.27"/>
</g>
<!-- Node158&#45;&gt;Node5 -->
<g id="edge49" class="edge">
<title>Node158&#45;&gt;Node5</title>
<path fill="none" stroke="#63b8ff" d="M1008.38,-56.7C1005.41,-56.1 1002.43,-55.52 999.57,-55 904.62,-37.82 792.25,-22.95 732.98,-15.53"/>
<polygon fill="#63b8ff" stroke="#63b8ff" points="733.71,-12.1 723.35,-14.34 732.85,-19.04 733.71,-12.1"/>
</g>
<!-- Node159&#45;&gt;Node5 -->
<g id="edge51" class="edge">
<title>Node159&#45;&gt;Node5</title>
<path fill="none" stroke="#63b8ff" d="M618.71,-164.74C630.72,-139.31 665.79,-65.08 682.5,-29.69"/>
<polygon fill="#63b8ff" stroke="#63b8ff" points="685.66,-31.21 686.76,-20.68 679.33,-28.22 685.66,-31.21"/>
</g>
<!-- Node159&#45;&gt;Node6 -->
<g id="edge52" class="edge">
<title>Node159&#45;&gt;Node6</title>
<path fill="none" stroke="#63b8ff" d="M614.7,-164.74C614.5,-142.63 610.7,-84.23 577.57,-55 546.59,-27.67 426.29,-16.44 365.36,-12.44"/>
<polygon fill="#63b8ff" stroke="#63b8ff" points="365.72,-8.95 355.52,-11.82 365.28,-15.94 365.72,-8.95"/>
</g>
<!-- Node159&#45;&gt;Node139 -->
<g id="edge53" class="edge">
<title>Node159&#45;&gt;Node139</title>
<path fill="none" stroke="#63b8ff" d="M603.37,-164.51C593.84,-156.85 579.9,-145.66 568.46,-136.47"/>
<polygon fill="#63b8ff" stroke="#63b8ff" points="570.77,-133.84 560.78,-130.31 566.39,-139.3 570.77,-133.84"/>
</g>
<!-- Node161&#45;&gt;Node5 -->
<g id="edge55" class="edge">
<title>Node161&#45;&gt;Node5</title>
<path fill="none" stroke="#63b8ff" d="M814.73,-164.81C823.48,-156.6 835.47,-143.43 840.57,-129 851.54,-97.99 860.22,-81.37 840.57,-55 816.08,-22.13 768.23,-12.6 733.34,-10.28"/>
<polygon fill="#63b8ff" stroke="#63b8ff" points="733.72,-6.79 723.57,-9.82 733.39,-13.79 733.72,-6.79"/>
</g>
<!-- Node161&#45;&gt;Node58 -->
<g id="edge56" class="edge">
<title>Node161&#45;&gt;Node58</title>
<path fill="none" stroke="#63b8ff" d="M824.99,-164.63C844.26,-156.26 873.41,-143.6 895.54,-133.98"/>
<polygon fill="#63b8ff" stroke="#63b8ff" points="896.92,-137.2 904.7,-130 894.13,-130.78 896.92,-137.2"/>
</g>
<!-- Node161&#45;&gt;Node93 -->
<g id="edge57" class="edge">
<title>Node161&#45;&gt;Node93</title>
<path fill="none" stroke="#63b8ff" d="M801.62,-164.66C795.88,-147.42 783.04,-108.9 775.16,-85.27"/>
<polygon fill="#63b8ff" stroke="#63b8ff" points="778.52,-84.28 772.04,-75.9 771.88,-86.49 778.52,-84.28"/>
</g>
<!-- Node162&#45;&gt;Node2 -->
<g id="edge59" class="edge">
<title>Node162&#45;&gt;Node2</title>
<path fill="none" stroke="#63b8ff" d="M380.45,-112.32C337.23,-102.81 254.38,-84.59 205.76,-73.9"/>
<polygon fill="#63b8ff" stroke="#63b8ff" points="206.77,-70.54 196.25,-71.81 205.26,-77.37 206.77,-70.54"/>
</g>
<!-- Node162&#45;&gt;Node5 -->
<g id="edge60" class="edge">
<title>Node162&#45;&gt;Node5</title>
<path fill="none" stroke="#63b8ff" d="M419.48,-109.51C436.71,-95.77 471.75,-69.59 505.57,-55 552.96,-34.56 611.36,-22.54 649.94,-16.24"/>
<polygon fill="#63b8ff" stroke="#63b8ff" points="650.41,-19.71 659.75,-14.71 649.33,-12.8 650.41,-19.71"/>
</g>
<!-- Node165&#45;&gt;Node5 -->
<g id="edge62" class="edge">
<title>Node165&#45;&gt;Node5</title>
<path fill="none" stroke="#63b8ff" d="M1091.69,-109.58C1092.87,-95.67 1092.84,-68.99 1077.57,-55 1052.53,-32.05 828.01,-17.67 733.36,-12.58"/>
<polygon fill="#63b8ff" stroke="#63b8ff" points="733.63,-9.09 723.46,-12.06 733.26,-16.08 733.63,-9.09"/>
</g>
<!-- Node166&#45;&gt;Node2 -->
<g id="edge64" class="edge">
<title>Node166&#45;&gt;Node2</title>
<path fill="none" stroke="#63b8ff" d="M660.36,-115.34C569.53,-106.16 305.5,-79.45 206.06,-69.39"/>
<polygon fill="#63b8ff" stroke="#63b8ff" points="206.58,-65.93 196.28,-68.4 205.87,-72.89 206.58,-65.93"/>
</g>
<!-- Node166&#45;&gt;Node5 -->
<g id="edge65" class="edge">
<title>Node166&#45;&gt;Node5</title>
<path fill="none" stroke="#63b8ff" d="M691.57,-109.66C691.57,-92.57 691.57,-54.61 691.57,-30.92"/>
<polygon fill="#63b8ff" stroke="#63b8ff" points="695.07,-30.97 691.57,-20.97 688.07,-30.97 695.07,-30.97"/>
</g>
<!-- Node166&#45;&gt;Node93 -->
<g id="edge66" class="edge">
<title>Node166&#45;&gt;Node93</title>
<path fill="none" stroke="#63b8ff" d="M704.63,-109.51C716.1,-101.62 733,-89.98 746.55,-80.65"/>
<polygon fill="#63b8ff" stroke="#63b8ff" points="748.2,-83.77 754.45,-75.22 744.23,-78 748.2,-83.77"/>
</g>
</g>
</svg>
