<?xml version="1.0" encoding="UTF-8" standalone="no"?>
<!DOCTYPE svg PUBLIC "-//W3C//DTD SVG 1.1//EN"
 "http://www.w3.org/Graphics/SVG/1.1/DTD/svg11.dtd">
<!-- Generated by graphviz version 2.40.1 (20161225.0304)
 -->
<!-- Title: mutt_edit_attachment Pages: 1 -->
<svg width="497pt" height="560pt"
 viewBox="0.00 0.00 497.00 560.00" xmlns="http://www.w3.org/2000/svg" xmlns:xlink="http://www.w3.org/1999/xlink">
<g id="graph0" class="graph" transform="scale(1 1) rotate(0) translate(4 556)">
<title>mutt_edit_attachment</title>
<polygon fill="#ffffff" stroke="transparent" points="-4,4 -4,-556 493,-556 493,4 -4,4"/>
<!-- Node20199 -->
<g id="node1" class="node">
<title>Node20199</title>
<polygon fill="#bfbfbf" stroke="#000000" points="0,-266.5 0,-285.5 125,-285.5 125,-266.5 0,-266.5"/>
<text text-anchor="middle" x="62.5" y="-273.5" font-family="Helvetica,sans-Serif" font-size="10.00" fill="#000000">mutt_edit_attachment</text>
</g>
<!-- Node20200 -->
<g id="node2" class="node">
<title>Node20200</title>
<g id="a_node2"><a xlink:href="mailcap_8c.html#a3c151edde461a4a8fe44b3d7d64cab5e" target="_top" xlink:title="Allocate memory for a new rfc1524 entry. ">
<polygon fill="#ffffff" stroke="#ff0000" points="180.5,-532.5 180.5,-551.5 292.5,-551.5 292.5,-532.5 180.5,-532.5"/>
<text text-anchor="middle" x="236.5" y="-539.5" font-family="Helvetica,sans-Serif" font-size="10.00" fill="#000000">mailcap_entry_new</text>
</a>
</g>
</g>
<!-- Node20199&#45;&gt;Node20200 -->
<g id="edge1" class="edge">
<title>Node20199&#45;&gt;Node20200</title>
<path fill="none" stroke="#191970" d="M63.5662,-285.977C68.0121,-322.5866 88.3778,-450.8841 161,-518 165.4002,-522.0666 170.4891,-525.4441 175.9049,-528.2494"/>
<polygon fill="#191970" stroke="#191970" points="174.7076,-531.5484 185.264,-532.4508 177.5744,-525.1623 174.7076,-531.5484"/>
</g>
<!-- Node20203 -->
<g id="node3" class="node">
<title>Node20203</title>
<g id="a_node3"><a xlink:href="pool_8c.html#a2129d5ea0085753afdd37cf62161845d" target="_top" xlink:title="Get a Buffer from the pool. ">
<polygon fill="#ffffff" stroke="#ff0000" points="358,-380.5 358,-399.5 479,-399.5 479,-380.5 358,-380.5"/>
<text text-anchor="middle" x="418.5" y="-387.5" font-family="Helvetica,sans-Serif" font-size="10.00" fill="#000000">mutt_buffer_pool_get</text>
</a>
</g>
</g>
<!-- Node20199&#45;&gt;Node20203 -->
<g id="edge2" class="edge">
<title>Node20199&#45;&gt;Node20203</title>
<path fill="none" stroke="#191970" d="M64.5559,-285.7618C71.5863,-316.3527 97.8201,-410.4811 161,-447 219.1032,-480.5845 250.35,-473.5176 312,-447 333.3713,-437.8075 328.02,-420.9178 348,-409 351.6742,-406.8084 355.605,-404.8643 359.6609,-403.1408"/>
<polygon fill="#191970" stroke="#191970" points="361.1698,-406.3123 369.2895,-399.5064 358.6978,-399.7633 361.1698,-406.3123"/>
</g>
<!-- Node20211 -->
<g id="node4" class="node">
<title>Node20211</title>
<g id="a_node4"><a xlink:href="mailcap_8c.html#a412989a4828da86db98c88a087b2217c" target="_top" xlink:title="Find given type in the list of mailcap files. ">
<polygon fill="#ffffff" stroke="#ff0000" points="189.5,-418.5 189.5,-437.5 283.5,-437.5 283.5,-418.5 189.5,-418.5"/>
<text text-anchor="middle" x="236.5" y="-425.5" font-family="Helvetica,sans-Serif" font-size="10.00" fill="#000000">mailcap_lookup</text>
</a>
</g>
</g>
<!-- Node20199&#45;&gt;Node20211 -->
<g id="edge3" class="edge">
<title>Node20199&#45;&gt;Node20211</title>
<path fill="none" stroke="#191970" d="M66.8424,-285.8309C78.3345,-310.6576 112.053,-376.2318 161,-409 166.6597,-412.789 173.0167,-415.8225 179.577,-418.2512"/>
<polygon fill="#191970" stroke="#191970" points="178.6847,-421.6411 189.2767,-421.3942 180.8425,-414.982 178.6847,-421.6411"/>
</g>
<!-- Node20240 -->
<g id="node5" class="node">
<title>Node20240</title>
<g id="a_node5"><a xlink:href="buffer_8c.html#a4bcc481586ae3af02645b4e23e48e0d7" target="_top" xlink:title="Copy a string into a Buffer. ">
<polygon fill="#ffffff" stroke="#ff0000" points="364,-418.5 364,-437.5 473,-437.5 473,-418.5 364,-418.5"/>
<text text-anchor="middle" x="418.5" y="-425.5" font-family="Helvetica,sans-Serif" font-size="10.00" fill="#000000">mutt_buffer_strcpy</text>
</a>
</g>
</g>
<!-- Node20199&#45;&gt;Node20240 -->
<g id="edge8" class="edge">
<title>Node20199&#45;&gt;Node20240</title>
<path fill="none" stroke="#191970" d="M63.8346,-285.6979C68.9958,-318.9726 90.9818,-428.825 161,-472 235.9153,-518.1947 345.2229,-469.0684 393.73,-442.5928"/>
<polygon fill="#191970" stroke="#191970" points="395.5743,-445.5715 402.5926,-437.6346 392.1566,-439.4625 395.5743,-445.5715"/>
</g>
<!-- Node20245 -->
<g id="node6" class="node">
<title>Node20245</title>
<g id="a_node6"><a xlink:href="buffer_8h.html#a4aca040fb75bc1dfc086cbfbf14ac8cd" target="_top" xlink:title="Convert a buffer to a const char * &quot;string&quot;. ">
<polygon fill="#ffffff" stroke="#000000" points="365,-290.5 365,-309.5 472,-309.5 472,-290.5 365,-290.5"/>
<text text-anchor="middle" x="418.5" y="-297.5" font-family="Helvetica,sans-Serif" font-size="10.00" fill="#000000">mutt_buffer_string</text>
</a>
</g>
</g>
<!-- Node20199&#45;&gt;Node20245 -->
<g id="edge14" class="edge">
<title>Node20199&#45;&gt;Node20245</title>
<path fill="none" stroke="#191970" d="M102.6348,-266.4219C152.253,-256.0705 239.0784,-242.8343 312,-257 340.347,-262.5067 370.7042,-275.544 391.7256,-285.8294"/>
<polygon fill="#191970" stroke="#191970" points="390.1787,-288.9691 400.6864,-290.3246 393.3174,-282.7122 390.1787,-288.9691"/>
</g>
<!-- Node20280 -->
<g id="node7" class="node">
<title>Node20280</title>
<g id="a_node7"><a xlink:href="pool_8c.html#a08b48e2ac8849341888ee7429cc5093c" target="_top" xlink:title="Free a Buffer from the pool. ">
<polygon fill="#ffffff" stroke="#ff0000" points="348,-342.5 348,-361.5 489,-361.5 489,-342.5 348,-342.5"/>
<text text-anchor="middle" x="418.5" y="-349.5" font-family="Helvetica,sans-Serif" font-size="10.00" fill="#000000">mutt_buffer_pool_release</text>
</a>
</g>
</g>
<!-- Node20199&#45;&gt;Node20280 -->
<g id="edge32" class="edge">
<title>Node20199&#45;&gt;Node20280</title>
<path fill="none" stroke="#191970" d="M107.2272,-285.5485C172.4616,-299.4749 293.575,-325.3306 363.953,-340.3551"/>
<polygon fill="#191970" stroke="#191970" points="363.4454,-343.8256 373.9558,-342.4906 364.9069,-336.9798 363.4454,-343.8256"/>
</g>
<!-- Node21372 -->
<g id="node8" class="node">
<title>Node21372</title>
<g id="a_node8"><a xlink:href="mailcap_8c.html#accb5ae6e2f507053e8436a2f00b834ea" target="_top" xlink:title="Expand a new filename from a template or existing filename. ">
<polygon fill="#ffffff" stroke="#ff0000" points="164,-380.5 164,-399.5 309,-399.5 309,-380.5 164,-380.5"/>
<text text-anchor="middle" x="236.5" y="-387.5" font-family="Helvetica,sans-Serif" font-size="10.00" fill="#000000">mailcap_expand_filename</text>
</a>
</g>
</g>
<!-- Node20199&#45;&gt;Node21372 -->
<g id="edge9" class="edge">
<title>Node20199&#45;&gt;Node21372</title>
<path fill="none" stroke="#191970" d="M69.7137,-285.78C84.5469,-305.1606 120.4976,-348.5079 161,-371 165.1395,-373.2988 169.5598,-375.3242 174.1067,-377.108"/>
<polygon fill="#191970" stroke="#191970" points="172.973,-380.4194 183.5678,-380.4405 175.2986,-373.817 172.973,-380.4194"/>
</g>
<!-- Node21695 -->
<g id="node9" class="node">
<title>Node21695</title>
<g id="a_node9"><a xlink:href="file_8c.html#a8f150fbd8c72f544d733440b861eda9c" target="_top" xlink:title="Create a symlink. ">
<polygon fill="#ffffff" stroke="#ff0000" points="184.5,-190.5 184.5,-209.5 288.5,-209.5 288.5,-190.5 184.5,-190.5"/>
<text text-anchor="middle" x="236.5" y="-197.5" font-family="Helvetica,sans-Serif" font-size="10.00" fill="#000000">mutt_file_symlink</text>
</a>
</g>
</g>
<!-- Node20199&#45;&gt;Node21695 -->
<g id="edge15" class="edge">
<title>Node20199&#45;&gt;Node21695</title>
<path fill="none" stroke="#191970" d="M78.4527,-266.4405C97.5862,-255.2454 130.8584,-236.6285 161,-224 170.9017,-219.8515 181.7841,-216.0016 192.1287,-212.6538"/>
<polygon fill="#191970" stroke="#191970" points="193.3415,-215.9415 201.8324,-209.6047 191.2431,-209.2635 193.3415,-215.9415"/>
</g>
<!-- Node20366 -->
<g id="node10" class="node">
<title>Node20366</title>
<g id="a_node10"><a xlink:href="question_2lib_8h.html#a67a4f6d2c21c9de420130089bb20505c" target="_top" xlink:title="Ask the user a Yes/No question. ">
<polygon fill="#ffffff" stroke="#ff0000" points="194.5,-76.5 194.5,-95.5 278.5,-95.5 278.5,-76.5 194.5,-76.5"/>
<text text-anchor="middle" x="236.5" y="-83.5" font-family="Helvetica,sans-Serif" font-size="10.00" fill="#000000">mutt_yesorno</text>
</a>
</g>
</g>
<!-- Node20199&#45;&gt;Node20366 -->
<g id="edge17" class="edge">
<title>Node20199&#45;&gt;Node20366</title>
<path fill="none" stroke="#191970" d="M65.4293,-266.4936C74.6243,-238.2362 105.6441,-153.9932 161,-110 167.9628,-104.4664 176.2253,-100.1971 184.6865,-96.9063"/>
<polygon fill="#191970" stroke="#191970" points="185.9599,-100.1694 194.2654,-93.5915 183.6706,-93.5543 185.9599,-100.1694"/>
</g>
<!-- Node21375 -->
<g id="node11" class="node">
<title>Node21375</title>
<g id="a_node11"><a xlink:href="mailcap_8c.html#ac5eff1afc4d8341e095a90c3b9f68104" target="_top" xlink:title="Expand expandos in a command. ">
<polygon fill="#ffffff" stroke="#ff0000" points="161,-342.5 161,-361.5 312,-361.5 312,-342.5 161,-342.5"/>
<text text-anchor="middle" x="236.5" y="-349.5" font-family="Helvetica,sans-Serif" font-size="10.00" fill="#000000">mailcap_expand_command</text>
</a>
</g>
</g>
<!-- Node20199&#45;&gt;Node21375 -->
<g id="edge18" class="edge">
<title>Node20199&#45;&gt;Node21375</title>
<path fill="none" stroke="#191970" d="M78.4527,-285.5595C97.5862,-296.7546 130.8584,-315.3715 161,-328 170.9017,-332.1485 181.7841,-335.9984 192.1287,-339.3462"/>
<polygon fill="#191970" stroke="#191970" points="191.2431,-342.7365 201.8324,-342.3953 193.3415,-336.0585 191.2431,-342.7365"/>
</g>
<!-- Node20923 -->
<g id="node12" class="node">
<title>Node20923</title>
<g id="a_node12"><a xlink:href="curs__lib_8c.html#acd14d074d8b9e6cb21e851dd573cdec2" target="_top" xlink:title="Shutdown curses/slang. ">
<polygon fill="#ffffff" stroke="#ff0000" points="378.5,-224.5 378.5,-243.5 458.5,-243.5 458.5,-224.5 378.5,-224.5"/>
<text text-anchor="middle" x="418.5" y="-231.5" font-family="Helvetica,sans-Serif" font-size="10.00" fill="#000000">mutt_endwin</text>
</a>
</g>
</g>
<!-- Node20199&#45;&gt;Node20923 -->
<g id="edge23" class="edge">
<title>Node20199&#45;&gt;Node20923</title>
<path fill="none" stroke="#191970" d="M68.6598,-266.2919C82.3107,-245.8082 117.3785,-198.6082 161,-181 223.2323,-155.8794 246.6697,-165.6424 312,-181 342.998,-188.2869 375.2889,-206.0215 396.0712,-218.9758"/>
<polygon fill="#191970" stroke="#191970" points="394.189,-221.9266 404.4998,-224.3633 397.9591,-216.0285 394.189,-221.9266"/>
</g>
<!-- Node20500 -->
<g id="node13" class="node">
<title>Node20500</title>
<g id="a_node13"><a xlink:href="protos_8h.html#aa1d4ad04b000036513ca3f741059942c" target="_top" xlink:title="Run an external command. ">
<polygon fill="#ffffff" stroke="#ff0000" points="378,-129.5 378,-148.5 459,-148.5 459,-129.5 378,-129.5"/>
<text text-anchor="middle" x="418.5" y="-136.5" font-family="Helvetica,sans-Serif" font-size="10.00" fill="#000000">mutt_system</text>
</a>
</g>
</g>
<!-- Node20199&#45;&gt;Node20500 -->
<g id="edge24" class="edge">
<title>Node20199&#45;&gt;Node20500</title>
<path fill="none" stroke="#191970" d="M67.3118,-266.385C79.402,-243.3953 113.5163,-185.3523 161,-161 226.2609,-127.5306 313.1687,-127.8339 367.4702,-132.4263"/>
<polygon fill="#191970" stroke="#191970" points="367.2682,-135.9225 377.5484,-133.3597 367.9138,-128.9523 367.2682,-135.9225"/>
</g>
<!-- Node20246 -->
<g id="node14" class="node">
<title>Node20246</title>
<g id="a_node14"><a xlink:href="helpers_8c.html#ac477c591155aa4ae0452bbabc0affffe" target="_top" xlink:title="Get a string config item by name. ">
<polygon fill="#ffffff" stroke="#ff0000" points="187.5,-38.5 187.5,-57.5 285.5,-57.5 285.5,-38.5 187.5,-38.5"/>
<text text-anchor="middle" x="236.5" y="-45.5" font-family="Helvetica,sans-Serif" font-size="10.00" fill="#000000">cs_subset_string</text>
</a>
</g>
</g>
<!-- Node20199&#45;&gt;Node20246 -->
<g id="edge25" class="edge">
<title>Node20199&#45;&gt;Node20246</title>
<path fill="none" stroke="#191970" d="M64.0624,-266.3188C69.9677,-232.9927 94.0919,-122.0484 161,-67 165.9318,-62.9424 171.6151,-59.7353 177.6044,-57.2031"/>
<polygon fill="#191970" stroke="#191970" points="178.9765,-60.4292 187.2041,-53.7541 176.6097,-53.8415 178.9765,-60.4292"/>
</g>
<!-- Node21697 -->
<g id="node15" class="node">
<title>Node21697</title>
<g id="a_node15"><a xlink:href="curs__lib_8c.html#a0590f11f42a6242002ea4c842438231b" target="_top" xlink:title="Let the user edit a file. ">
<polygon fill="#ffffff" stroke="#ff0000" points="194.5,-266.5 194.5,-285.5 278.5,-285.5 278.5,-266.5 194.5,-266.5"/>
<text text-anchor="middle" x="236.5" y="-273.5" font-family="Helvetica,sans-Serif" font-size="10.00" fill="#000000">mutt_edit_file</text>
</a>
</g>
</g>
<!-- Node20199&#45;&gt;Node21697 -->
<g id="edge26" class="edge">
<title>Node20199&#45;&gt;Node21697</title>
<path fill="none" stroke="#191970" d="M125.318,-276C144.7016,-276 165.825,-276 184.4029,-276"/>
<polygon fill="#191970" stroke="#191970" points="184.435,-279.5001 194.4349,-276 184.4349,-272.5001 184.435,-279.5001"/>
</g>
<!-- Node21379 -->
<g id="node16" class="node">
<title>Node21379</title>
<g id="a_node16"><a xlink:href="mailcap_8c.html#a49fd88d8bb73a7a56c4cc0fe28dfb645" target="_top" xlink:title="Deallocate an struct MailcapEntry. ">
<polygon fill="#ffffff" stroke="#000000" points="181,-.5 181,-19.5 292,-19.5 292,-.5 181,-.5"/>
<text text-anchor="middle" x="236.5" y="-7.5" font-family="Helvetica,sans-Serif" font-size="10.00" fill="#000000">mailcap_entry_free</text>
</a>
</g>
</g>
<!-- Node20199&#45;&gt;Node21379 -->
<g id="edge33" class="edge">
<title>Node20199&#45;&gt;Node21379</title>
<path fill="none" stroke="#191970" d="M63.2857,-266.4384C66.841,-229.6181 84.7453,-95.7372 161,-29 164.2039,-26.196 167.7625,-23.7943 171.5399,-21.7385"/>
<polygon fill="#191970" stroke="#191970" points="173.0571,-24.8933 180.6872,-17.5426 170.1385,-18.5307 173.0571,-24.8933"/>
</g>
<!-- Node20211&#45;&gt;Node20203 -->
<g id="edge4" class="edge">
<title>Node20211&#45;&gt;Node20203</title>
<path fill="none" stroke="#191970" d="M282.4263,-418.411C306.8759,-413.3061 337.1331,-406.9887 362.903,-401.6082"/>
<polygon fill="#191970" stroke="#191970" points="363.8304,-404.9901 372.904,-399.5201 362.3997,-398.1378 363.8304,-404.9901"/>
</g>
<!-- Node20211&#45;&gt;Node20240 -->
<g id="edge5" class="edge">
<title>Node20211&#45;&gt;Node20240</title>
<path fill="none" stroke="#191970" d="M283.8432,-428C305.2203,-428 330.8096,-428 353.9123,-428"/>
<polygon fill="#191970" stroke="#191970" points="353.9836,-431.5001 363.9836,-428 353.9836,-424.5001 353.9836,-431.5001"/>
</g>
<!-- Node20211&#45;&gt;Node20245 -->
<g id="edge6" class="edge">
<title>Node20211&#45;&gt;Node20245</title>
<path fill="none" stroke="#191970" d="M283.8201,-422.8097C293.9213,-419.955 303.9565,-415.6046 312,-409 340.8857,-385.2818 321.5109,-359.3679 348,-333 356.1396,-324.8976 366.6444,-318.538 377.047,-313.6569"/>
<polygon fill="#191970" stroke="#191970" points="378.7028,-316.7546 386.5009,-309.5825 375.9322,-310.3262 378.7028,-316.7546"/>
</g>
<!-- Node20211&#45;&gt;Node20280 -->
<g id="edge7" class="edge">
<title>Node20211&#45;&gt;Node20280</title>
<path fill="none" stroke="#191970" d="M283.632,-420.5051C293.4171,-417.7707 303.3675,-414.0519 312,-409 332.0789,-397.2495 328.02,-382.9178 348,-371 351.6742,-368.8084 355.605,-366.8643 359.6609,-365.1408"/>
<polygon fill="#191970" stroke="#191970" points="361.1698,-368.3123 369.2895,-361.5064 358.6978,-361.7633 361.1698,-368.3123"/>
</g>
<!-- Node21372&#45;&gt;Node20203 -->
<g id="edge11" class="edge">
<title>Node21372&#45;&gt;Node20203</title>
<path fill="none" stroke="#191970" d="M309.2159,-390C321.9505,-390 335.1834,-390 347.8606,-390"/>
<polygon fill="#191970" stroke="#191970" points="347.8883,-393.5001 357.8882,-390 347.8882,-386.5001 347.8883,-393.5001"/>
</g>
<!-- Node21372&#45;&gt;Node20240 -->
<g id="edge10" class="edge">
<title>Node21372&#45;&gt;Node20240</title>
<path fill="none" stroke="#191970" d="M282.4263,-399.589C306.8759,-404.6939 337.1331,-411.0113 362.903,-416.3918"/>
<polygon fill="#191970" stroke="#191970" points="362.3997,-419.8622 372.904,-418.4799 363.8304,-413.0099 362.3997,-419.8622"/>
</g>
<!-- Node21372&#45;&gt;Node20245 -->
<g id="edge12" class="edge">
<title>Node21372&#45;&gt;Node20245</title>
<path fill="none" stroke="#191970" d="M290.384,-380.4605C297.9193,-377.9917 305.3506,-374.8913 312,-371 332.0789,-359.2495 329.1348,-346.6139 348,-333 358.5305,-325.4007 371.0889,-318.8568 382.669,-313.6466"/>
<polygon fill="#191970" stroke="#191970" points="384.2969,-316.7565 392.1001,-309.5899 381.5309,-310.3261 384.2969,-316.7565"/>
</g>
<!-- Node21372&#45;&gt;Node20280 -->
<g id="edge13" class="edge">
<title>Node21372&#45;&gt;Node20280</title>
<path fill="none" stroke="#191970" d="M282.4263,-380.411C306.8759,-375.3061 337.1331,-368.9887 362.903,-363.6082"/>
<polygon fill="#191970" stroke="#191970" points="363.8304,-366.9901 372.904,-361.5201 362.3997,-360.1378 363.8304,-366.9901"/>
</g>
<!-- Node21695&#45;&gt;Node20245 -->
<g id="edge16" class="edge">
<title>Node21695&#45;&gt;Node20245</title>
<path fill="none" stroke="#191970" d="M276.0315,-209.5565C287.9669,-213.2282 300.8529,-218.012 312,-224 330.0995,-233.7227 331.4357,-240.8449 348,-253 363.2739,-264.2082 381.0227,-276.0344 394.8906,-285.0201"/>
<polygon fill="#191970" stroke="#191970" points="393.0745,-288.0135 403.3783,-290.4798 396.8614,-282.1263 393.0745,-288.0135"/>
</g>
<!-- Node21375&#45;&gt;Node20203 -->
<g id="edge19" class="edge">
<title>Node21375&#45;&gt;Node20203</title>
<path fill="none" stroke="#191970" d="M282.4263,-361.589C306.8759,-366.6939 337.1331,-373.0113 362.903,-378.3918"/>
<polygon fill="#191970" stroke="#191970" points="362.3997,-381.8622 372.904,-380.4799 363.8304,-375.0099 362.3997,-381.8622"/>
</g>
<!-- Node21375&#45;&gt;Node20240 -->
<g id="edge21" class="edge">
<title>Node21375&#45;&gt;Node20240</title>
<path fill="none" stroke="#191970" d="M290.384,-361.5395C297.9193,-364.0083 305.3506,-367.1087 312,-371 332.0789,-382.7505 328.02,-397.0822 348,-409 351.6742,-411.1916 355.605,-413.1357 359.6609,-414.8592"/>
<polygon fill="#191970" stroke="#191970" points="358.6978,-418.2367 369.2895,-418.4936 361.1698,-411.6877 358.6978,-418.2367"/>
</g>
<!-- Node21375&#45;&gt;Node20245 -->
<g id="edge20" class="edge">
<title>Node21375&#45;&gt;Node20245</title>
<path fill="none" stroke="#191970" d="M269.8816,-342.4624C299.5486,-333.9861 343.0951,-321.5442 375.3891,-312.3174"/>
<polygon fill="#191970" stroke="#191970" points="376.3687,-315.6777 385.0223,-309.565 374.4456,-308.947 376.3687,-315.6777"/>
</g>
<!-- Node21375&#45;&gt;Node20280 -->
<g id="edge22" class="edge">
<title>Node21375&#45;&gt;Node20280</title>
<path fill="none" stroke="#191970" d="M312.1033,-352C320.5047,-352 329.0865,-352 337.5508,-352"/>
<polygon fill="#191970" stroke="#191970" points="337.7972,-355.5001 347.7972,-352 337.7972,-348.5001 337.7972,-355.5001"/>
</g>
<!-- Node21697&#45;&gt;Node20203 -->
<g id="edge27" class="edge">
<title>Node21697&#45;&gt;Node20203</title>
<path fill="none" stroke="#191970" d="M250.6798,-285.6398C266.2736,-296.4798 291.7982,-314.9376 312,-333 329.3431,-348.5065 328.02,-359.0822 348,-371 351.6742,-373.1916 355.605,-375.1357 359.6609,-376.8592"/>
<polygon fill="#191970" stroke="#191970" points="358.6978,-380.2367 369.2895,-380.4936 361.1698,-373.6877 358.6978,-380.2367"/>
</g>
<!-- Node21697&#45;&gt;Node20245 -->
<g id="edge30" class="edge">
<title>Node21697&#45;&gt;Node20245</title>
<path fill="none" stroke="#191970" d="M278.7119,-281.5664C301.2314,-284.536 329.4104,-288.2519 354.557,-291.568"/>
<polygon fill="#191970" stroke="#191970" points="354.3838,-295.0753 364.7556,-292.9128 355.299,-288.1354 354.3838,-295.0753"/>
</g>
<!-- Node21697&#45;&gt;Node20280 -->
<g id="edge31" class="edge">
<title>Node21697&#45;&gt;Node20280</title>
<path fill="none" stroke="#191970" d="M271.1673,-285.6055C284.1596,-289.5722 298.9336,-294.5264 312,-300 328.6867,-306.9902 331.8026,-310.9406 348,-319 361.1124,-325.5244 375.7575,-332.4389 388.2878,-338.2439"/>
<polygon fill="#191970" stroke="#191970" points="386.8501,-341.4351 397.397,-342.4419 389.78,-335.0777 386.8501,-341.4351"/>
</g>
<!-- Node21697&#45;&gt;Node20923 -->
<g id="edge28" class="edge">
<title>Node21697&#45;&gt;Node20923</title>
<path fill="none" stroke="#191970" d="M277.7986,-266.4695C304.724,-260.256 340.0236,-252.1099 368.5294,-245.5317"/>
<polygon fill="#191970" stroke="#191970" points="369.3472,-248.935 378.3041,-243.276 367.7731,-242.1143 369.3472,-248.935"/>
</g>
<!-- Node21697&#45;&gt;Node20500 -->
<g id="edge29" class="edge">
<title>Node21697&#45;&gt;Node20500</title>
<path fill="none" stroke="#191970" d="M249.2979,-266.3664C280.1596,-243.1354 358.942,-183.8321 397.1193,-155.0943"/>
<polygon fill="#191970" stroke="#191970" points="399.5881,-157.6167 405.4726,-148.8063 395.3782,-152.0241 399.5881,-157.6167"/>
</g>
</g>
</svg>
