<?xml version="1.0" encoding="UTF-8" standalone="no"?>
<!DOCTYPE svg PUBLIC "-//W3C//DTD SVG 1.1//EN"
 "http://www.w3.org/Graphics/SVG/1.1/DTD/svg11.dtd">
<!-- Generated by graphviz version 2.40.1 (20161225.0304)
 -->
<!-- Title: mutt_expando_format Pages: 1 -->
<svg width="948pt" height="1800pt"
 viewBox="0.00 0.00 948.00 1799.57" xmlns="http://www.w3.org/2000/svg" xmlns:xlink="http://www.w3.org/1999/xlink">
<g id="graph0" class="graph" transform="scale(1 1) rotate(0) translate(4 1795.5721)">
<title>mutt_expando_format</title>
<polygon fill="#ffffff" stroke="transparent" points="-4,4 -4,-1795.5721 944,-1795.5721 944,4 -4,4"/>
<!-- Node10940 -->
<g id="node1" class="node">
<title>Node10940</title>
<polygon fill="#bfbfbf" stroke="#000000" points="0,-1017.7437 0,-1036.7437 125,-1036.7437 125,-1017.7437 0,-1017.7437"/>
<text text-anchor="middle" x="62.5" y="-1024.7437" font-family="Helvetica,sans-Serif" font-size="10.00" fill="#000000">mutt_expando_format</text>
</g>
<!-- Node10941 -->
<g id="node2" class="node">
<title>Node10941</title>
<g id="a_node2"><a xlink:href="dlgalias_8c.html#addbff38c1d1444cefcb9e675f5e3092c" target="_top" xlink:title="Format a menu item for the alias list &#45; Implements Menu::make_entry() ">
<polygon fill="#ffffff" stroke="#ff0000" points="350.5,-1548.7437 350.5,-1567.7437 454.5,-1567.7437 454.5,-1548.7437 350.5,-1548.7437"/>
<text text-anchor="middle" x="402.5" y="-1555.7437" font-family="Helvetica,sans-Serif" font-size="10.00" fill="#000000">alias_make_entry</text>
</a>
</g>
</g>
<!-- Node10940&#45;&gt;Node10941 -->
<g id="edge1" class="edge">
<title>Node10940&#45;&gt;Node10941</title>
<path fill="none" stroke="#191970" d="M63.3839,-1047.0311C67.5921,-1131.6632 88.5037,-1461.9394 161,-1529.2437 212.2182,-1576.7938 298.1458,-1574.9834 352.4985,-1567.7609"/>
<polygon fill="#191970" stroke="#191970" points="66.8765,-1046.7899 62.9061,-1036.9671 59.8844,-1047.1219 66.8765,-1046.7899"/>
</g>
<!-- Node11445 -->
<g id="node3" class="node">
<title>Node11445</title>
<g id="a_node3"><a xlink:href="dlgquery_8c.html#a170d2276b3e0f9c059498cff0c355d3d" target="_top" xlink:title="Format a string for the query menu &#45; Implements format_t. ">
<polygon fill="#ffffff" stroke="#000000" points="352,-1510.7437 352,-1529.7437 453,-1529.7437 453,-1510.7437 352,-1510.7437"/>
<text text-anchor="middle" x="402.5" y="-1517.7437" font-family="Helvetica,sans-Serif" font-size="10.00" fill="#000000">query_format_str</text>
</a>
</g>
</g>
<!-- Node10940&#45;&gt;Node11445 -->
<g id="edge2" class="edge">
<title>Node10940&#45;&gt;Node11445</title>
<path fill="none" stroke="#191970" d="M63.6744,-1047.5635C68.8567,-1129.5835 92.54,-1434.8025 161,-1496.2437 214.934,-1544.6482 305.4112,-1538.8431 358.9799,-1529.822"/>
<polygon fill="#191970" stroke="#191970" points="67.1411,-1046.9066 63.041,-1037.1373 60.154,-1047.3312 67.1411,-1046.9066"/>
</g>
<!-- Node11446 -->
<g id="node4" class="node">
<title>Node11446</title>
<g id="a_node4"><a xlink:href="dlgquery_8c.html#a4081ef04c1e90ab28b3279f8df6c3458" target="_top" xlink:title="Format a menu item for the query list &#45; Implements Menu::make_entry() ">
<polygon fill="#ffffff" stroke="#ff0000" points="532,-1510.7437 532,-1529.7437 640,-1529.7437 640,-1510.7437 532,-1510.7437"/>
<text text-anchor="middle" x="586" y="-1517.7437" font-family="Helvetica,sans-Serif" font-size="10.00" fill="#000000">query_make_entry</text>
</a>
</g>
</g>
<!-- Node10940&#45;&gt;Node11446 -->
<g id="edge4" class="edge">
<title>Node10940&#45;&gt;Node11446</title>
<path fill="none" stroke="#191970" d="M64.2106,-1047.2679C73.0663,-1148.6711 115.0629,-1602.3118 161,-1643.2437 267.8735,-1738.4724 354.1293,-1712.556 483,-1650.2437 536.6616,-1624.2969 570.8862,-1555.3139 582.0218,-1529.8569"/>
<polygon fill="#191970" stroke="#191970" points="67.6849,-1046.8183 63.3361,-1037.1572 60.711,-1047.4216 67.6849,-1046.8183"/>
</g>
<!-- Node11447 -->
<g id="node5" class="node">
<title>Node11447</title>
<g id="a_node5"><a xlink:href="dlgautocrypt_8c.html#ad8b44baf475276e5104c26595a99e71a" target="_top" xlink:title="Create a line for the Autocrypt account menu &#45; Implements Menu::make_entry() ">
<polygon fill="#ffffff" stroke="#ff0000" points="343,-1434.7437 343,-1453.7437 462,-1453.7437 462,-1434.7437 343,-1434.7437"/>
<text text-anchor="middle" x="402.5" y="-1441.7437" font-family="Helvetica,sans-Serif" font-size="10.00" fill="#000000">account_make_entry</text>
</a>
</g>
</g>
<!-- Node10940&#45;&gt;Node11447 -->
<g id="edge5" class="edge">
<title>Node10940&#45;&gt;Node11447</title>
<path fill="none" stroke="#191970" d="M65.1803,-1046.9756C74.8564,-1115.3246 110.1209,-1340.4453 161,-1389.2437 209.4131,-1435.6769 288.5008,-1445.9432 342.9009,-1446.8786"/>
<polygon fill="#191970" stroke="#191970" points="68.6028,-1046.1751 63.7598,-1036.7519 61.6694,-1047.1385 68.6028,-1046.1751"/>
</g>
<!-- Node11449 -->
<g id="node6" class="node">
<title>Node11449</title>
<g id="a_node6"><a xlink:href="browser_8c.html#a521fce142a7a9c2761988fcfebeceac0" target="_top" xlink:title="Format a string for the folder browser &#45; Implements format_t. ">
<polygon fill="#ffffff" stroke="#000000" points="352,-1340.7437 352,-1359.7437 453,-1359.7437 453,-1340.7437 352,-1340.7437"/>
<text text-anchor="middle" x="402.5" y="-1347.7437" font-family="Helvetica,sans-Serif" font-size="10.00" fill="#000000">folder_format_str</text>
</a>
</g>
</g>
<!-- Node10940&#45;&gt;Node11449 -->
<g id="edge6" class="edge">
<title>Node10940&#45;&gt;Node11449</title>
<path fill="none" stroke="#191970" d="M66.2717,-1046.7779C78.1914,-1106.4052 116.8825,-1284.1983 161,-1320.2437 214.4933,-1363.9494 298.1656,-1364.0649 351.6479,-1358.4423"/>
<polygon fill="#191970" stroke="#191970" points="69.6714,-1045.9271 64.3063,-1036.7911 62.8032,-1047.2788 69.6714,-1045.9271"/>
</g>
<!-- Node11450 -->
<g id="node7" class="node">
<title>Node11450</title>
<g id="a_node7"><a xlink:href="browser_8c.html#a2fdd342366031697eaaececec586db00" target="_top" xlink:title="Format a menu item for the folder browser &#45; Implements Menu::make_entry() ">
<polygon fill="#ffffff" stroke="#ff0000" points="531.5,-1359.7437 531.5,-1378.7437 640.5,-1378.7437 640.5,-1359.7437 531.5,-1359.7437"/>
<text text-anchor="middle" x="586" y="-1366.7437" font-family="Helvetica,sans-Serif" font-size="10.00" fill="#000000">folder_make_entry</text>
</a>
</g>
</g>
<!-- Node10940&#45;&gt;Node11450 -->
<g id="edge8" class="edge">
<title>Node10940&#45;&gt;Node11450</title>
<path fill="none" stroke="#191970" d="M62.7809,-1047.0986C64.5259,-1138.9395 76.82,-1521.2705 161,-1596.2437 267.9119,-1691.4625 366.3777,-1688.2861 483,-1605.2437 522.8441,-1576.8722 499.8863,-1546.2677 519,-1501.2437 538.9849,-1454.1677 568.3852,-1400.5174 580.4867,-1378.9601"/>
<polygon fill="#191970" stroke="#191970" points="66.2781,-1046.895 62.6101,-1036.9554 59.2791,-1047.0129 66.2781,-1046.895"/>
</g>
<!-- Node11451 -->
<g id="node8" class="node">
<title>Node11451</title>
<g id="a_node8"><a xlink:href="compmbox_2compress_8c.html#abec93f40f46e453d46cb9d7181ae39f9" target="_top" xlink:title="Expand placeholders in command string. ">
<polygon fill="#ffffff" stroke="#ff0000" points="340,-1302.7437 340,-1321.7437 465,-1321.7437 465,-1302.7437 340,-1302.7437"/>
<text text-anchor="middle" x="402.5" y="-1309.7437" font-family="Helvetica,sans-Serif" font-size="10.00" fill="#000000">expand_command_str</text>
</a>
</g>
</g>
<!-- Node10940&#45;&gt;Node11451 -->
<g id="edge9" class="edge">
<title>Node10940&#45;&gt;Node11451</title>
<path fill="none" stroke="#191970" d="M63.2903,-1046.9746C66.4478,-1096.758 82.2198,-1227.7945 161,-1288.2437 214.9847,-1329.6669 296.9689,-1328.3773 350.1401,-1321.7807"/>
<polygon fill="#191970" stroke="#191970" points="66.7804,-1046.6934 62.7582,-1036.8918 59.7902,-1047.0623 66.7804,-1046.6934"/>
</g>
<!-- Node11204 -->
<g id="node9" class="node">
<title>Node11204</title>
<g id="a_node9"><a xlink:href="compose_8c.html#a7cd542de4349c167dd99566a9ce04a85" target="_top" xlink:title="Format a menu item for the attachment list &#45; Implements Menu::make_entry() ">
<polygon fill="#ffffff" stroke="#ff0000" points="835.5,-1245.7437 835.5,-1264.7437 933.5,-1264.7437 933.5,-1245.7437 835.5,-1245.7437"/>
<text text-anchor="middle" x="884.5" y="-1252.7437" font-family="Helvetica,sans-Serif" font-size="10.00" fill="#000000">snd_make_entry</text>
</a>
</g>
</g>
<!-- Node10940&#45;&gt;Node11204 -->
<g id="edge10" class="edge">
<title>Node10940&#45;&gt;Node11204</title>
<path fill="none" stroke="#191970" d="M63.9341,-1047.1957C71.9771,-1156.6552 112.8456,-1681.2094 161,-1733.2437 235.6373,-1813.8947 292.6123,-1786.2437 402.5,-1786.2437 402.5,-1786.2437 402.5,-1786.2437 586,-1786.2437 835.0534,-1786.2437 878.4949,-1336.8816 883.8553,-1264.9135"/>
<polygon fill="#191970" stroke="#191970" points="67.4035,-1046.6464 63.1869,-1036.9268 60.422,-1047.1544 67.4035,-1046.6464"/>
</g>
<!-- Node11458 -->
<g id="node10" class="node">
<title>Node11458</title>
<g id="a_node10"><a xlink:href="compose_8c.html#a1531d785d4faa4bc82cd8c43ff6e9f04" target="_top" xlink:title="Compose the string for the status bar. ">
<polygon fill="#ffffff" stroke="#ff0000" points="343,-1226.7437 343,-1245.7437 462,-1245.7437 462,-1226.7437 343,-1226.7437"/>
<text text-anchor="middle" x="402.5" y="-1233.7437" font-family="Helvetica,sans-Serif" font-size="10.00" fill="#000000">compose_status_line</text>
</a>
</g>
</g>
<!-- Node10940&#45;&gt;Node11458 -->
<g id="edge11" class="edge">
<title>Node10940&#45;&gt;Node11458</title>
<path fill="none" stroke="#191970" d="M72.6611,-1045.5071C88.3932,-1072.2865 121.0394,-1122.2693 161,-1152.2437 216.2197,-1193.664 293.4602,-1215.7578 345.5958,-1226.7214"/>
<polygon fill="#191970" stroke="#191970" points="75.6609,-1043.7024 67.6482,-1036.7709 69.5895,-1047.1863 75.6609,-1043.7024"/>
</g>
<!-- Node11198 -->
<g id="node11" class="node">
<title>Node11198</title>
<g id="a_node11"><a xlink:href="hdrline_8c.html#afa87b03d9a383088d6db0c417f79da92" target="_top" xlink:title="Format a string for the index list &#45; Implements format_t. ">
<polygon fill="#ffffff" stroke="#000000" points="352.5,-1188.7437 352.5,-1207.7437 452.5,-1207.7437 452.5,-1188.7437 352.5,-1188.7437"/>
<text text-anchor="middle" x="402.5" y="-1195.7437" font-family="Helvetica,sans-Serif" font-size="10.00" fill="#000000">index_format_str</text>
</a>
</g>
</g>
<!-- Node10940&#45;&gt;Node11198 -->
<g id="edge12" class="edge">
<title>Node10940&#45;&gt;Node11198</title>
<path fill="none" stroke="#191970" d="M78.9576,-1043.7864C97.6079,-1061.8643 129.5216,-1090.8335 161,-1110.2437 227.2652,-1151.104 248.0613,-1154.8776 322,-1179.2437 332.7742,-1182.7943 344.5647,-1185.9629 355.7183,-1188.6471"/>
<polygon fill="#191970" stroke="#191970" points="81.4011,-1041.2805 71.8166,-1036.7651 76.4934,-1046.2719 81.4011,-1041.2805"/>
</g>
<!-- Node11199 -->
<g id="node12" class="node">
<title>Node11199</title>
<g id="a_node12"><a xlink:href="hdrline_8h.html#aeac86407c75d6618b3461b2a985ca209" target="_top" xlink:title="Create formatted strings using mailbox expandos. ">
<polygon fill="#ffffff" stroke="#ff0000" points="519,-1226.7437 519,-1245.7437 653,-1245.7437 653,-1226.7437 519,-1226.7437"/>
<text text-anchor="middle" x="586" y="-1233.7437" font-family="Helvetica,sans-Serif" font-size="10.00" fill="#000000">mutt_make_string_flags</text>
</a>
</g>
</g>
<!-- Node10940&#45;&gt;Node11199 -->
<g id="edge19" class="edge">
<title>Node10940&#45;&gt;Node11199</title>
<path fill="none" stroke="#191970" d="M64.6113,-1047.2603C72.7742,-1120.8102 104.6508,-1374.6787 161,-1429.2437 212.6904,-1479.2975 424.9102,-1505.7037 483,-1463.2437 525.5536,-1432.1397 497.513,-1398.3746 519,-1350.2437 537.1551,-1309.5761 566.2706,-1265.0774 579.3086,-1245.9087"/>
<polygon fill="#191970" stroke="#191970" points="68.0631,-1046.6264 63.5047,-1037.0624 61.104,-1047.3816 68.0631,-1046.6264"/>
</g>
<!-- Node11203 -->
<g id="node13" class="node">
<title>Node11203</title>
<g id="a_node13"><a xlink:href="recvattach_8h.html#a15aa67845d7281e3b5263c24dcf75d0c" target="_top" xlink:title="Format a string for the attachment menu &#45; Implements format_t. ">
<polygon fill="#ffffff" stroke="#000000" points="689,-1226.7437 689,-1245.7437 793,-1245.7437 793,-1226.7437 689,-1226.7437"/>
<text text-anchor="middle" x="741" y="-1233.7437" font-family="Helvetica,sans-Serif" font-size="10.00" fill="#000000">attach_format_str</text>
</a>
</g>
</g>
<!-- Node10940&#45;&gt;Node11203 -->
<g id="edge77" class="edge">
<title>Node10940&#45;&gt;Node11203</title>
<path fill="none" stroke="#191970" d="M63.9556,-1047.0261C71.8931,-1152.2821 111.4225,-1643.4314 161,-1687.2437 332.1069,-1838.453 531.3294,-1732.4744 653,-1539.2437 717.5044,-1436.8013 736.2203,-1285.42 740.1322,-1245.9415"/>
<polygon fill="#191970" stroke="#191970" points="67.4315,-1046.5715 63.1972,-1036.8596 60.4508,-1047.0922 67.4315,-1046.5715"/>
</g>
<!-- Node11205 -->
<g id="node14" class="node">
<title>Node11205</title>
<g id="a_node14"><a xlink:href="recvattach_8c.html#a07290d7acf61210cddb9cf13b4c91eed" target="_top" xlink:title="Format a menu item for the attachment list &#45; Implements Menu::make_entry() ">
<polygon fill="#ffffff" stroke="#ff0000" points="829,-1207.7437 829,-1226.7437 940,-1226.7437 940,-1207.7437 829,-1207.7437"/>
<text text-anchor="middle" x="884.5" y="-1214.7437" font-family="Helvetica,sans-Serif" font-size="10.00" fill="#000000">attach_make_entry</text>
</a>
</g>
</g>
<!-- Node10940&#45;&gt;Node11205 -->
<g id="edge78" class="edge">
<title>Node10940&#45;&gt;Node11205</title>
<path fill="none" stroke="#191970" d="M62.9521,-1046.9158C65.4647,-1137.9372 80.6813,-1517.1478 161,-1596.2437 238.417,-1672.482 293.8461,-1634.2437 402.5,-1634.2437 402.5,-1634.2437 402.5,-1634.2437 586,-1634.2437 793.2527,-1634.2437 668.7889,-1367.7203 829,-1236.2437 833.7237,-1232.3672 839.2818,-1229.2642 845.0238,-1226.7849"/>
<polygon fill="#191970" stroke="#191970" points="66.4497,-1046.7718 62.6953,-1036.8644 59.4519,-1046.9506 66.4497,-1046.7718"/>
</g>
<!-- Node11206 -->
<g id="node15" class="node">
<title>Node11206</title>
<g id="a_node15"><a xlink:href="hdrline_8h.html#a0ef54141e984065f57b563a4f6463a4d" target="_top" xlink:title="Create pager status bar string. ">
<polygon fill="#ffffff" stroke="#ff0000" points="521,-1188.7437 521,-1207.7437 651,-1207.7437 651,-1188.7437 521,-1188.7437"/>
<text text-anchor="middle" x="586" y="-1195.7437" font-family="Helvetica,sans-Serif" font-size="10.00" fill="#000000">mutt_make_string_info</text>
</a>
</g>
</g>
<!-- Node10940&#45;&gt;Node11206 -->
<g id="edge20" class="edge">
<title>Node10940&#45;&gt;Node11206</title>
<path fill="none" stroke="#191970" d="M63.0594,-1046.9979C65.9931,-1135.221 82.6154,-1491.9733 161,-1563.2437 213.9929,-1611.427 429.8948,-1625.3032 483,-1577.2437 542.612,-1523.2955 467.386,-1278.8878 519,-1217.2437 522.1824,-1213.4429 526.0639,-1210.3722 530.3391,-1207.8952"/>
<polygon fill="#191970" stroke="#191970" points="66.5512,-1046.6755 62.7427,-1036.7889 59.5545,-1046.8926 66.5512,-1046.6755"/>
</g>
<!-- Node11460 -->
<g id="node16" class="node">
<title>Node11460</title>
<g id="a_node16"><a xlink:href="dlghistory_8c.html#a1586bfe6c57cb7b47a8cdfc1341f2267" target="_top" xlink:title="Format a menu item for the history list &#45; Implements Menu::make_entry() ">
<polygon fill="#ffffff" stroke="#ff0000" points="345.5,-542.7437 345.5,-561.7437 459.5,-561.7437 459.5,-542.7437 345.5,-542.7437"/>
<text text-anchor="middle" x="402.5" y="-549.7437" font-family="Helvetica,sans-Serif" font-size="10.00" fill="#000000">history_make_entry</text>
</a>
</g>
</g>
<!-- Node10940&#45;&gt;Node11460 -->
<g id="edge21" class="edge">
<title>Node10940&#45;&gt;Node11460</title>
<path fill="none" stroke="#191970" d="M63.0812,-1007.3599C65.7163,-949.597 80.2994,-779.0776 161,-671.2437 211.4709,-603.8034 244.2125,-603.5641 322,-571.2437 331.1498,-567.442 341.2154,-564.3093 351.0384,-561.7613"/>
<polygon fill="#191970" stroke="#191970" points="59.573,-1007.5092 62.6889,-1017.6355 66.5679,-1007.7763 59.573,-1007.5092"/>
</g>
<!-- Node11461 -->
<g id="node17" class="node">
<title>Node11461</title>
<g id="a_node17"><a xlink:href="nntp_2lib_8h.html#a23b0e33bd83d40e2e27d61c38c9fea39" target="_top" xlink:title="Format a string for the newsgroup menu &#45; Implements format_t. ">
<polygon fill="#ffffff" stroke="#000000" points="336,-1378.7437 336,-1397.7437 469,-1397.7437 469,-1378.7437 336,-1378.7437"/>
<text text-anchor="middle" x="402.5" y="-1385.7437" font-family="Helvetica,sans-Serif" font-size="10.00" fill="#000000">group_index_format_str</text>
</a>
</g>
</g>
<!-- Node10940&#45;&gt;Node11461 -->
<g id="edge22" class="edge">
<title>Node10940&#45;&gt;Node11461</title>
<path fill="none" stroke="#191970" d="M65.6045,-1046.8709C76.1603,-1111.0313 112.7111,-1312.8183 161,-1354.2437 208.7218,-1395.1826 282.3413,-1400.0666 335.7552,-1396.9495"/>
<polygon fill="#191970" stroke="#191970" points="69.0383,-1046.1803 63.9873,-1036.867 62.128,-1047.2974 69.0383,-1046.1803"/>
</g>
<!-- Node11462 -->
<g id="node18" class="node">
<title>Node11462</title>
<g id="a_node18"><a xlink:href="muttlib_8h.html#a8972094c1e995739c8b072c8be3ce453" target="_top" xlink:title="Expand expandos (x) in a string. ">
<polygon fill="#ffffff" stroke="#000000" points="161,-865.7437 161,-884.7437 286,-884.7437 286,-865.7437 161,-865.7437"/>
<text text-anchor="middle" x="223.5" y="-872.7437" font-family="Helvetica,sans-Serif" font-size="10.00" fill="#000000">mutt_expando_format</text>
</a>
</g>
</g>
<!-- Node10940&#45;&gt;Node11462 -->
<g id="edge25" class="edge">
<title>Node10940&#45;&gt;Node11462</title>
<path fill="none" stroke="#191970" d="M79.8592,-1010.8549C113.5126,-979.0827 186.6694,-910.0154 213.4325,-884.7484"/>
<polygon fill="#191970" stroke="#191970" points="77.44,-1008.3255 72.5713,-1017.7354 82.2454,-1013.4155 77.44,-1008.3255"/>
</g>
<!-- Node11463 -->
<g id="node19" class="node">
<title>Node11463</title>
<g id="a_node19"><a xlink:href="dlggpgme_8c.html#a0f917c383b09751f64bd6be090821acb" target="_top" xlink:title="Format a string for the key selection menu &#45; Implements format_t. ">
<polygon fill="#ffffff" stroke="#000000" points="353.5,-1150.7437 353.5,-1169.7437 451.5,-1169.7437 451.5,-1150.7437 353.5,-1150.7437"/>
<text text-anchor="middle" x="402.5" y="-1157.7437" font-family="Helvetica,sans-Serif" font-size="10.00" fill="#000000">crypt_format_str</text>
</a>
</g>
</g>
<!-- Node10940&#45;&gt;Node11463 -->
<g id="edge67" class="edge">
<title>Node10940&#45;&gt;Node11463</title>
<path fill="none" stroke="#191970" d="M92.2097,-1040.9626C140.0053,-1062.7497 237.2077,-1105.8957 322,-1136.2437 336.6918,-1141.502 353.1653,-1146.5575 367.3646,-1150.661"/>
<polygon fill="#191970" stroke="#191970" points="93.6047,-1037.7519 83.055,-1036.7749 90.6928,-1044.1176 93.6047,-1037.7519"/>
</g>
<!-- Node11464 -->
<g id="node20" class="node">
<title>Node11464</title>
<g id="a_node20"><a xlink:href="dlggpgme_8c.html#ae22420abff25462d4022ed3508cb8b17" target="_top" xlink:title="Format a menu item for the key selection list &#45; Implements Menu::make_entry() ">
<polygon fill="#ffffff" stroke="#ff0000" points="533.5,-1150.7437 533.5,-1169.7437 638.5,-1169.7437 638.5,-1150.7437 533.5,-1150.7437"/>
<text text-anchor="middle" x="586" y="-1157.7437" font-family="Helvetica,sans-Serif" font-size="10.00" fill="#000000">crypt_make_entry</text>
</a>
</g>
</g>
<!-- Node10940&#45;&gt;Node11464 -->
<g id="edge68" class="edge">
<title>Node10940&#45;&gt;Node11464</title>
<path fill="none" stroke="#191970" d="M69.0566,-1047.0256C81.5411,-1081.7861 111.9413,-1154.0381 161,-1195.2437 219.4737,-1244.3572 246.8485,-1241.6954 322,-1255.2437 392.4204,-1267.939 422.5348,-1293.508 483,-1255.2437 514.5828,-1235.2571 490.4708,-1203.3896 519,-1179.2437 523.6144,-1175.3382 528.9822,-1172.2336 534.633,-1169.7658"/>
<polygon fill="#191970" stroke="#191970" points="72.2136,-1045.4464 65.6318,-1037.144 65.5996,-1047.7388 72.2136,-1045.4464"/>
</g>
<!-- Node11465 -->
<g id="node21" class="node">
<title>Node11465</title>
<g id="a_node21"><a xlink:href="dlgpgp_8c.html#ad62c1620e97a88eed7cdd6d5a2e3661a" target="_top" xlink:title="Format an entry on the PGP key selection menu &#45; Implements format_t. ">
<polygon fill="#ffffff" stroke="#000000" points="341.5,-580.7437 341.5,-599.7437 463.5,-599.7437 463.5,-580.7437 341.5,-580.7437"/>
<text text-anchor="middle" x="402.5" y="-587.7437" font-family="Helvetica,sans-Serif" font-size="10.00" fill="#000000">pgp_entry_format_str</text>
</a>
</g>
</g>
<!-- Node10940&#45;&gt;Node11465 -->
<g id="edge69" class="edge">
<title>Node10940&#45;&gt;Node11465</title>
<path fill="none" stroke="#191970" d="M72.7719,-1008.4047C90.2282,-976.6247 127.0939,-910.5166 161,-856.2437 213.5766,-772.0854 231.7213,-754.3143 286,-671.2437 302.3894,-646.1606 298.1219,-632.3438 322,-614.2437 330.3678,-607.9007 340.3964,-603.2272 350.4897,-599.7859"/>
<polygon fill="#191970" stroke="#191970" points="69.5475,-1007.006 67.8147,-1017.4582 75.6874,-1010.3679 69.5475,-1007.006"/>
</g>
<!-- Node11466 -->
<g id="node22" class="node">
<title>Node11466</title>
<g id="a_node22"><a xlink:href="dlgpgp_8c.html#ad186d8484cbe0adfb4942798bf4d041f" target="_top" xlink:title="Format a menu item for the pgp key list &#45; Implements Menu::make_entry() ">
<polygon fill="#ffffff" stroke="#ff0000" points="537,-580.7437 537,-599.7437 635,-599.7437 635,-580.7437 537,-580.7437"/>
<text text-anchor="middle" x="586" y="-587.7437" font-family="Helvetica,sans-Serif" font-size="10.00" fill="#000000">pgp_make_entry</text>
</a>
</g>
</g>
<!-- Node10940&#45;&gt;Node11466 -->
<g id="edge70" class="edge">
<title>Node10940&#45;&gt;Node11466</title>
<path fill="none" stroke="#191970" d="M63.3781,-1007.2247C67.562,-921.5962 88.3879,-587.3644 161,-518.2437 212.9601,-468.7819 417.0998,-466.8979 483,-495.2437 504.3713,-504.4362 502.1158,-517.2387 519,-533.2437 537.3987,-550.6843 560.1081,-569.4735 573.8017,-580.529"/>
<polygon fill="#191970" stroke="#191970" points="59.873,-1007.2547 62.9032,-1017.4069 66.8654,-1007.5809 59.873,-1007.2547"/>
</g>
<!-- Node11467 -->
<g id="node23" class="node">
<title>Node11467</title>
<g id="a_node23"><a xlink:href="pgpinvoke_8c.html#a85e4312960b8e446ed2cf967459ad2af" target="_top" xlink:title="Format a PGP command string &#45; Implements format_t. ">
<polygon fill="#ffffff" stroke="#000000" points="330,-504.7437 330,-523.7437 475,-523.7437 475,-504.7437 330,-504.7437"/>
<text text-anchor="middle" x="402.5" y="-511.7437" font-family="Helvetica,sans-Serif" font-size="10.00" fill="#000000">pgp_command_format_str</text>
</a>
</g>
</g>
<!-- Node10940&#45;&gt;Node11467 -->
<g id="edge71" class="edge">
<title>Node10940&#45;&gt;Node11467</title>
<path fill="none" stroke="#191970" d="M64.3206,-1007.4799C71.8208,-930.1532 102.7102,-649.2319 161,-585.2437 203.6729,-538.3991 275.4825,-521.8427 329.7322,-516.2921"/>
<polygon fill="#191970" stroke="#191970" points="60.8092,-1007.4365 63.35,-1017.7221 67.7779,-1008.097 60.8092,-1007.4365"/>
</g>
<!-- Node11468 -->
<g id="node24" class="node">
<title>Node11468</title>
<g id="a_node24"><a xlink:href="pgpinvoke_8c.html#a678575e9a2c4c11d950da5ed1ba03740" target="_top" xlink:title="Prepare a PGP Command. ">
<polygon fill="#ffffff" stroke="#ff0000" points="527.5,-504.7437 527.5,-523.7437 644.5,-523.7437 644.5,-504.7437 527.5,-504.7437"/>
<text text-anchor="middle" x="586" y="-511.7437" font-family="Helvetica,sans-Serif" font-size="10.00" fill="#000000">mutt_pgp_command</text>
</a>
</g>
</g>
<!-- Node10940&#45;&gt;Node11468 -->
<g id="edge72" class="edge">
<title>Node10940&#45;&gt;Node11468</title>
<path fill="none" stroke="#191970" d="M63.7974,-1007.593C71.1081,-899.8096 108.7029,-383.5961 161,-338.2437 188.5127,-314.3845 443.7507,-313.7057 483,-343.2437 525.4539,-375.1934 489.6213,-412.9718 519,-457.2437 532.4263,-477.4764 555.0204,-494.5645 570.2148,-504.6092"/>
<polygon fill="#191970" stroke="#191970" points="60.2963,-1007.4939 63.1197,-1017.7056 67.2806,-1007.9621 60.2963,-1007.4939"/>
</g>
<!-- Node11141 -->
<g id="node25" class="node">
<title>Node11141</title>
<g id="a_node25"><a xlink:href="smime_8c.html#aae48c05dc7a86cb6e8992a7a186c4d34" target="_top" xlink:title="Format an SMIME command &#45; Implements format_t. ">
<polygon fill="#ffffff" stroke="#000000" points="322,-428.7437 322,-447.7437 483,-447.7437 483,-428.7437 322,-428.7437"/>
<text text-anchor="middle" x="402.5" y="-435.7437" font-family="Helvetica,sans-Serif" font-size="10.00" fill="#000000">smime_command_format_str</text>
</a>
</g>
</g>
<!-- Node10940&#45;&gt;Node11141 -->
<g id="edge73" class="edge">
<title>Node10940&#45;&gt;Node11141</title>
<path fill="none" stroke="#191970" d="M62.8766,-1007.6062C65.0504,-916.7599 78.9773,-538.4453 161,-462.2437 214.7106,-412.3449 306.9754,-419.1899 360.5717,-428.6946"/>
<polygon fill="#191970" stroke="#191970" points="59.3767,-1007.565 62.6577,-1017.639 66.3751,-1007.7177 59.3767,-1007.565"/>
</g>
<!-- Node11142 -->
<g id="node26" class="node">
<title>Node11142</title>
<g id="a_node26"><a xlink:href="smime_8c.html#a61cdf32d1db4e2725b27a3576505eaef" target="_top" xlink:title="Format an SMIME command string. ">
<polygon fill="#ffffff" stroke="#ff0000" points="534,-428.7437 534,-447.7437 638,-447.7437 638,-428.7437 534,-428.7437"/>
<text text-anchor="middle" x="586" y="-435.7437" font-family="Helvetica,sans-Serif" font-size="10.00" fill="#000000">smime_command</text>
</a>
</g>
</g>
<!-- Node10940&#45;&gt;Node11142 -->
<g id="edge74" class="edge">
<title>Node10940&#45;&gt;Node11142</title>
<path fill="none" stroke="#191970" d="M63.3926,-1007.3893C68.9192,-888.8595 100.2388,-278.0071 161,-224.2437 186.546,-201.6398 440.6501,-201.6847 483,-229.2437 514.3267,-249.6294 502.5912,-271.6626 519,-305.2437 541.7016,-351.7032 569.8255,-406.7465 581.0434,-428.6048"/>
<polygon fill="#191970" stroke="#191970" points="59.8884,-1007.4039 62.9262,-1017.5538 66.881,-1007.7248 59.8884,-1007.4039"/>
</g>
<!-- Node10975 -->
<g id="node27" class="node">
<title>Node10975</title>
<g id="a_node27"><a xlink:href="newsrc_8c.html#a7ba29bbfa4543e780d0e49241bcd2496" target="_top" xlink:title="Open a connection to an NNTP server. ">
<polygon fill="#ffffff" stroke="#ff0000" points="348,-390.7437 348,-409.7437 457,-409.7437 457,-390.7437 348,-390.7437"/>
<text text-anchor="middle" x="402.5" y="-397.7437" font-family="Helvetica,sans-Serif" font-size="10.00" fill="#000000">nntp_select_server</text>
</a>
</g>
</g>
<!-- Node10940&#45;&gt;Node10975 -->
<g id="edge75" class="edge">
<title>Node10940&#45;&gt;Node10975</title>
<path fill="none" stroke="#191970" d="M64.2467,-1007.4365C73.2803,-907.1299 116.0155,-458.3591 161,-417.2437 217.3096,-365.7774 315.166,-378.7435 367.3527,-390.6489"/>
<polygon fill="#191970" stroke="#191970" points="60.757,-1007.1663 63.3542,-1017.4379 67.7293,-1007.7886 60.757,-1007.1663"/>
</g>
<!-- Node11485 -->
<g id="node28" class="node">
<title>Node11485</title>
<g id="a_node28"><a xlink:href="dlgpattern_8c.html#af7623e83890f66fa4c2dfc8507bf98b6" target="_top" xlink:title="Create a line for the Pattern Completion menu &#45; Implements Menu::make_entry() ">
<polygon fill="#ffffff" stroke="#ff0000" points="344.5,-352.7437 344.5,-371.7437 460.5,-371.7437 460.5,-352.7437 344.5,-352.7437"/>
<text text-anchor="middle" x="402.5" y="-359.7437" font-family="Helvetica,sans-Serif" font-size="10.00" fill="#000000">make_pattern_entry</text>
</a>
</g>
</g>
<!-- Node10940&#45;&gt;Node11485 -->
<g id="edge76" class="edge">
<title>Node10940&#45;&gt;Node11485</title>
<path fill="none" stroke="#191970" d="M64.0543,-1007.0965C72.3525,-902.036 112.8624,-420.133 161,-376.2437 218.2587,-324.0382 318.4226,-339.8102 369.907,-352.6928"/>
<polygon fill="#191970" stroke="#191970" points="60.5483,-1007.0377 63.2582,-1017.2801 67.527,-1007.5834 60.5483,-1007.0377"/>
</g>
<!-- Node11487 -->
<g id="node29" class="node">
<title>Node11487</title>
<g id="a_node29"><a xlink:href="remailer_8c.html#a718fa86ab6d391f0fe4fbe2c4a1831fb" target="_top" xlink:title="Format a string for the remailer menu &#45; Implements format_t. ">
<polygon fill="#ffffff" stroke="#000000" points="356.5,-276.7437 356.5,-295.7437 448.5,-295.7437 448.5,-276.7437 356.5,-276.7437"/>
<text text-anchor="middle" x="402.5" y="-283.7437" font-family="Helvetica,sans-Serif" font-size="10.00" fill="#000000">mix_format_str</text>
</a>
</g>
</g>
<!-- Node10940&#45;&gt;Node11487 -->
<g id="edge79" class="edge">
<title>Node10940&#45;&gt;Node11487</title>
<path fill="none" stroke="#191970" d="M63.767,-1007.5715C71.0467,-897.4183 109.0501,-360.2826 161,-310.2437 214.4087,-258.7996 308.5269,-266.7474 362.1351,-276.7386"/>
<polygon fill="#191970" stroke="#191970" points="60.2699,-1007.4145 63.1103,-1017.6215 67.255,-1007.871 60.2699,-1007.4145"/>
</g>
<!-- Node11488 -->
<g id="node30" class="node">
<title>Node11488</title>
<g id="a_node30"><a xlink:href="remailer_8c.html#a91ede3b43b8773ed01defd231dc17cd5" target="_top" xlink:title="Format a menu item for the mixmaster chain list &#45; Implements Menu::make_entry() ">
<polygon fill="#ffffff" stroke="#ff0000" points="536.5,-276.7437 536.5,-295.7437 635.5,-295.7437 635.5,-276.7437 536.5,-276.7437"/>
<text text-anchor="middle" x="586" y="-283.7437" font-family="Helvetica,sans-Serif" font-size="10.00" fill="#000000">mix_make_entry</text>
</a>
</g>
</g>
<!-- Node10940&#45;&gt;Node11488 -->
<g id="edge80" class="edge">
<title>Node10940&#45;&gt;Node11488</title>
<path fill="none" stroke="#191970" d="M63.0756,-1007.4413C66.9932,-879.4574 91.696,-172.502 161,-110.2437 186.3233,-87.4949 440.299,-87.4562 483,-115.2437 514.3267,-135.6294 500.1598,-158.9639 519,-191.2437 538.126,-224.0132 565.2942,-259.8866 578.3779,-276.6323"/>
<polygon fill="#191970" stroke="#191970" points="59.5694,-1007.5975 62.7687,-1017.6977 66.5663,-1007.8069 59.5694,-1007.5975"/>
</g>
<!-- Node10977 -->
<g id="node31" class="node">
<title>Node10977</title>
<g id="a_node31"><a xlink:href="sendmail_8h.html#a2d1312bbee49dda97d3c94837c4af6ab" target="_top" xlink:title="Run sendmail. ">
<polygon fill="#ffffff" stroke="#ff0000" points="338.5,-238.7437 338.5,-257.7437 466.5,-257.7437 466.5,-238.7437 338.5,-238.7437"/>
<text text-anchor="middle" x="402.5" y="-245.7437" font-family="Helvetica,sans-Serif" font-size="10.00" fill="#000000">mutt_invoke_sendmail</text>
</a>
</g>
</g>
<!-- Node10940&#45;&gt;Node10977 -->
<g id="edge81" class="edge">
<title>Node10940&#45;&gt;Node10977</title>
<path fill="none" stroke="#191970" d="M63.5864,-1007.3989C70.0555,-892.7058 105.1251,-317.9538 161,-265.2437 216.9495,-212.4632 316.3156,-226.4553 368.4358,-238.7269"/>
<polygon fill="#191970" stroke="#191970" points="60.0828,-1007.369 63.0214,-1017.5481 67.0719,-1007.7582 60.0828,-1007.369"/>
</g>
<!-- Node11489 -->
<g id="node32" class="node">
<title>Node11489</title>
<g id="a_node32"><a xlink:href="sidebar_8c.html#acdb913511681b13bbee3c6e44787eb07" target="_top" xlink:title="Format a string for the sidebar &#45; Implements format_t. ">
<polygon fill="#ffffff" stroke="#000000" points="348,-162.7437 348,-181.7437 457,-181.7437 457,-162.7437 348,-162.7437"/>
<text text-anchor="middle" x="402.5" y="-169.7437" font-family="Helvetica,sans-Serif" font-size="10.00" fill="#000000">sidebar_format_str</text>
</a>
</g>
</g>
<!-- Node10940&#45;&gt;Node11489 -->
<g id="edge82" class="edge">
<title>Node10940&#45;&gt;Node11489</title>
<path fill="none" stroke="#191970" d="M63.3825,-1007.5338C68.9556,-887.2387 100.9775,-255.1408 161,-196.2437 214.0799,-144.1591 308.7635,-152.486 362.452,-162.6808"/>
<polygon fill="#191970" stroke="#191970" points="59.8855,-1007.3919 62.9257,-1017.5411 66.8782,-1007.7111 59.8855,-1007.3919"/>
</g>
<!-- Node11490 -->
<g id="node33" class="node">
<title>Node11490</title>
<g id="a_node33"><a xlink:href="sidebar_8c.html#a9b75a55ee8373d524060c3501afc36d6" target="_top" xlink:title="Turn mailbox data into a sidebar string. ">
<polygon fill="#ffffff" stroke="#ff0000" points="528,-162.7437 528,-181.7437 644,-181.7437 644,-162.7437 528,-162.7437"/>
<text text-anchor="middle" x="586" y="-169.7437" font-family="Helvetica,sans-Serif" font-size="10.00" fill="#000000">make_sidebar_entry</text>
</a>
</g>
</g>
<!-- Node10940&#45;&gt;Node11490 -->
<g id="edge83" class="edge">
<title>Node10940&#45;&gt;Node11490</title>
<path fill="none" stroke="#191970" d="M63.0292,-1007.4043C66.6873,-877.7015 90.2024,-153.9889 161,-90.2437 214.1766,-42.3642 421.1109,-54.328 483,-90.2437 510.8925,-106.4304 493.6026,-133.3698 519,-153.2437 523.9514,-157.1182 529.6556,-160.2026 535.6027,-162.6581"/>
<polygon fill="#191970" stroke="#191970" points="59.5282,-1007.3977 62.7515,-1017.4903 66.5255,-1007.5905 59.5282,-1007.3977"/>
</g>
<!-- Node11186 -->
<g id="node34" class="node">
<title>Node11186</title>
<g id="a_node34"><a xlink:href="status_8c.html#a687a918a49621a9f1bef52801def2308" target="_top" xlink:title="Create the status bar string &#45; Implements format_t. ">
<polygon fill="#ffffff" stroke="#000000" points="351,-124.7437 351,-143.7437 454,-143.7437 454,-124.7437 351,-124.7437"/>
<text text-anchor="middle" x="402.5" y="-131.7437" font-family="Helvetica,sans-Serif" font-size="10.00" fill="#000000">status_format_str</text>
</a>
</g>
</g>
<!-- Node10940&#45;&gt;Node11186 -->
<g id="edge84" class="edge">
<title>Node10940&#45;&gt;Node11186</title>
<path fill="none" stroke="#191970" d="M63.2448,-1007.235C68.0878,-882.3038 96.9351,-212.6916 161,-151.2437 216.6618,-97.8557 316.6093,-112.2698 368.756,-124.716"/>
<polygon fill="#191970" stroke="#191970" points="59.7338,-1007.4601 62.8506,-1017.5861 66.7287,-1007.7265 59.7338,-1007.4601"/>
</g>
<!-- Node11187 -->
<g id="node35" class="node">
<title>Node11187</title>
<g id="a_node35"><a xlink:href="status_8h.html#a1becc7497d5ffb91852fa1c7ff0fd5bd" target="_top" xlink:title="Create the status line. ">
<polygon fill="#ffffff" stroke="#ff0000" points="534.5,-124.7437 534.5,-143.7437 637.5,-143.7437 637.5,-124.7437 534.5,-124.7437"/>
<text text-anchor="middle" x="586" y="-131.7437" font-family="Helvetica,sans-Serif" font-size="10.00" fill="#000000">menu_status_line</text>
</a>
</g>
</g>
<!-- Node10940&#45;&gt;Node11187 -->
<g id="edge85" class="edge">
<title>Node10940&#45;&gt;Node11187</title>
<path fill="none" stroke="#191970" d="M62.9485,-1007.4987C66.1496,-875.2664 87.5575,-121.6198 161,-55.2437 267.1736,40.7144 347.4789,-9.2565 483,-55.2437 523.9744,-69.1478 561.4247,-106.6332 577.5889,-124.507"/>
<polygon fill="#191970" stroke="#191970" points="59.4439,-1007.6577 62.7075,-1017.7374 66.4419,-1007.8225 59.4439,-1007.6577"/>
</g>
<!-- Node11445&#45;&gt;Node11446 -->
<g id="edge3" class="edge">
<title>Node11445&#45;&gt;Node11446</title>
<path fill="none" stroke="#191970" d="M463.386,-1520.2437C485.4538,-1520.2437 510.2179,-1520.2437 531.6829,-1520.2437"/>
<polygon fill="#191970" stroke="#191970" points="463.128,-1516.7438 453.1279,-1520.2437 463.1279,-1523.7438 463.128,-1516.7438"/>
</g>
<!-- Node11449&#45;&gt;Node11450 -->
<g id="edge7" class="edge">
<title>Node11449&#45;&gt;Node11450</title>
<path fill="none" stroke="#191970" d="M463.3404,-1356.5432C485.3086,-1358.8179 509.9538,-1361.3697 531.3584,-1363.586"/>
<polygon fill="#191970" stroke="#191970" points="463.4353,-1353.0344 453.1279,-1355.4858 462.7143,-1359.9972 463.4353,-1353.0344"/>
</g>
<!-- Node11198&#45;&gt;Node11199 -->
<g id="edge13" class="edge">
<title>Node11198&#45;&gt;Node11199</title>
<path fill="none" stroke="#191970" d="M458.9069,-1209.9247C484.9296,-1215.3136 515.4301,-1221.6298 540.0282,-1226.7236"/>
<polygon fill="#191970" stroke="#191970" points="459.3068,-1206.4333 448.8048,-1207.8327 457.8873,-1213.2879 459.3068,-1206.4333"/>
</g>
<!-- Node11198&#45;&gt;Node11206 -->
<g id="edge18" class="edge">
<title>Node11198&#45;&gt;Node11206</title>
<path fill="none" stroke="#191970" d="M462.7386,-1198.2437C481.3167,-1198.2437 501.8569,-1198.2437 520.7558,-1198.2437"/>
<polygon fill="#191970" stroke="#191970" points="462.6422,-1194.7438 452.6422,-1198.2437 462.6421,-1201.7438 462.6422,-1194.7438"/>
</g>
<!-- Node11199&#45;&gt;Node11203 -->
<g id="edge14" class="edge">
<title>Node11199&#45;&gt;Node11203</title>
<path fill="none" stroke="#191970" d="M663.2166,-1236.2437C671.8721,-1236.2437 680.5324,-1236.2437 688.7655,-1236.2437"/>
<polygon fill="#191970" stroke="#191970" points="663.0838,-1232.7438 653.0838,-1236.2437 663.0837,-1239.7438 663.0838,-1232.7438"/>
</g>
<!-- Node11203&#45;&gt;Node11204 -->
<g id="edge15" class="edge">
<title>Node11203&#45;&gt;Node11204</title>
<path fill="none" stroke="#191970" d="M803.3786,-1244.5029C814.1059,-1245.9232 825.1176,-1247.3812 835.4322,-1248.7469"/>
<polygon fill="#191970" stroke="#191970" points="803.5856,-1240.9998 793.2127,-1243.1569 802.6668,-1247.9393 803.5856,-1240.9998"/>
</g>
<!-- Node11203&#45;&gt;Node11203 -->
<g id="edge16" class="edge">
<title>Node11203&#45;&gt;Node11203</title>
<path fill="none" stroke="#191970" d="M714.4941,-1254.8976C715.6021,-1260.1805 724.4374,-1264.2437 741,-1264.2437 766.2383,-1264.2437 773.5337,-1254.809 762.8863,-1246.0008"/>
<polygon fill="#191970" stroke="#191970" points="717.6117,-1256.4886 719.1137,-1246.0008 711.3992,-1253.2629 717.6117,-1256.4886"/>
</g>
<!-- Node11203&#45;&gt;Node11205 -->
<g id="edge17" class="edge">
<title>Node11203&#45;&gt;Node11205</title>
<path fill="none" stroke="#191970" d="M803.3708,-1227.9855C811.7962,-1226.87 820.3972,-1225.7312 828.6982,-1224.6321"/>
<polygon fill="#191970" stroke="#191970" points="802.6668,-1224.5481 793.2127,-1229.3305 803.5856,-1231.4876 802.6668,-1224.5481"/>
</g>
<!-- Node11461&#45;&gt;Node11450 -->
<g id="edge23" class="edge">
<title>Node11461&#45;&gt;Node11450</title>
<path fill="none" stroke="#191970" d="M479.2309,-1380.2988C496.7771,-1378.482 515.0766,-1376.5873 531.4679,-1374.8901"/>
<polygon fill="#191970" stroke="#191970" points="478.5935,-1376.846 469.0072,-1381.3574 479.3145,-1383.8088 478.5935,-1376.846"/>
</g>
<!-- Node11461&#45;&gt;Node11461 -->
<g id="edge24" class="edge">
<title>Node11461&#45;&gt;Node11461</title>
<path fill="none" stroke="#191970" d="M369.1418,-1406.135C369.6304,-1411.7843 380.7498,-1416.2437 402.5,-1416.2437 434.1367,-1416.2437 443.2817,-1406.809 429.935,-1398.0008"/>
<polygon fill="#191970" stroke="#191970" points="372.0078,-1408.1449 375.065,-1398.0008 366.3491,-1404.0243 372.0078,-1408.1449"/>
</g>
<!-- Node11462&#45;&gt;Node10941 -->
<g id="edge26" class="edge">
<title>Node11462&#45;&gt;Node10941</title>
<path fill="none" stroke="#191970" d="M225.1137,-894.9745C233.8721,-999.9784 276.9689,-1490.2365 322,-1539.2437 329.4812,-1547.3855 339.7448,-1552.3484 350.4401,-1555.3081"/>
<polygon fill="#191970" stroke="#191970" points="228.5874,-894.5109 224.2752,-884.8333 221.6112,-895.0878 228.5874,-894.5109"/>
</g>
<!-- Node11462&#45;&gt;Node11445 -->
<g id="edge27" class="edge">
<title>Node11462&#45;&gt;Node11445</title>
<path fill="none" stroke="#191970" d="M224.7706,-894.8258C230.9539,-985.5374 260.1471,-1364.6578 322,-1463.2437 335.8335,-1485.2926 361.6191,-1501.2532 380.2869,-1510.5822"/>
<polygon fill="#191970" stroke="#191970" points="228.2607,-894.5588 224.1028,-884.8139 221.2762,-895.0247 228.2607,-894.5588"/>
</g>
<!-- Node11462&#45;&gt;Node11446 -->
<g id="edge28" class="edge">
<title>Node11462&#45;&gt;Node11446</title>
<path fill="none" stroke="#191970" d="M226.3884,-894.9321C233.8361,-938.4502 257.8133,-1043.3045 322,-1098.2437 378.2671,-1146.4043 433.7601,-1085.9186 483,-1141.2437 556.7549,-1224.1133 485.4524,-1282.5 519,-1388.2437 534.3878,-1436.7467 566.0524,-1489.1848 579.6105,-1510.4561"/>
<polygon fill="#191970" stroke="#191970" points="229.8408,-894.3559 224.8035,-885.0352 222.9288,-895.4628 229.8408,-894.3559"/>
</g>
<!-- Node11462&#45;&gt;Node11447 -->
<g id="edge29" class="edge">
<title>Node11462&#45;&gt;Node11447</title>
<path fill="none" stroke="#191970" d="M224.2223,-894.9712C227.8809,-983.8652 247.2423,-1346.2909 322,-1425.2437 327.7264,-1431.2914 334.9901,-1435.574 342.8006,-1438.5809"/>
<polygon fill="#191970" stroke="#191970" points="227.7169,-894.7607 223.8284,-884.9053 220.7222,-895.0345 227.7169,-894.7607"/>
</g>
<!-- Node11462&#45;&gt;Node11449 -->
<g id="edge30" class="edge">
<title>Node11462&#45;&gt;Node11449</title>
<path fill="none" stroke="#191970" d="M224.9944,-894.7675C231.4223,-973.6075 259.2862,-1267.3241 322,-1331.2437 329.9448,-1339.3412 340.6522,-1344.2505 351.6605,-1347.168"/>
<polygon fill="#191970" stroke="#191970" points="228.4794,-894.4395 224.1999,-884.7474 221.5013,-894.9928 228.4794,-894.4395"/>
</g>
<!-- Node11462&#45;&gt;Node11450 -->
<g id="edge31" class="edge">
<title>Node11462&#45;&gt;Node11450</title>
<path fill="none" stroke="#191970" d="M228.442,-894.7559C239.0083,-932.4696 267.4006,-1015.5793 322,-1060.2437 379.7939,-1107.5213 431.5266,-1054.1531 483,-1108.2437 529.3694,-1156.9708 493.6913,-1192.9226 519,-1255.2437 535.7571,-1296.507 565.5935,-1340.6985 579.0626,-1359.6835"/>
<polygon fill="#191970" stroke="#191970" points="231.7955,-893.7482 225.826,-884.9952 225.0342,-895.5604 231.7955,-893.7482"/>
</g>
<!-- Node11462&#45;&gt;Node11451 -->
<g id="edge32" class="edge">
<title>Node11462&#45;&gt;Node11451</title>
<path fill="none" stroke="#191970" d="M226.7493,-894.8498C238.4562,-963.8256 280.0091,-1194.409 322,-1255.2437 336.9808,-1276.9472 363.0689,-1293.1657 381.4797,-1302.6443"/>
<polygon fill="#191970" stroke="#191970" points="230.1845,-894.1721 225.0766,-884.8899 223.2812,-895.3315 230.1845,-894.1721"/>
</g>
<!-- Node11462&#45;&gt;Node11204 -->
<g id="edge33" class="edge">
<title>Node11462&#45;&gt;Node11204</title>
<path fill="none" stroke="#191970" d="M296.4634,-872.387C388.9487,-872.5554 548.8484,-885.9534 653,-967.2437 765.6272,-1055.1492 716.1878,-1148.5758 829,-1236.2437 833.9858,-1240.1183 839.812,-1243.2305 845.779,-1245.7225"/>
<polygon fill="#191970" stroke="#191970" points="296.3411,-868.8873 286.353,-872.421 296.3647,-875.8873 296.3411,-868.8873"/>
</g>
<!-- Node11462&#45;&gt;Node11458 -->
<g id="edge34" class="edge">
<title>Node11462&#45;&gt;Node11458</title>
<path fill="none" stroke="#191970" d="M226.5567,-895.1463C237.089,-961.1762 273.8846,-1171.4135 322,-1217.2437 327.9267,-1222.8889 335.205,-1226.9622 342.9393,-1229.8837"/>
<polygon fill="#191970" stroke="#191970" points="229.9537,-894.2162 224.9468,-884.8791 223.0382,-895.3006 229.9537,-894.2162"/>
</g>
<!-- Node11462&#45;&gt;Node11198 -->
<g id="edge35" class="edge">
<title>Node11462&#45;&gt;Node11198</title>
<path fill="none" stroke="#191970" d="M227.267,-894.9113C239.3044,-955.7582 278.6014,-1139.2476 322,-1179.2437 330.3419,-1186.9316 341.2013,-1191.6839 352.23,-1194.5805"/>
<polygon fill="#191970" stroke="#191970" points="230.6913,-894.1844 225.3418,-885.0393 223.8207,-895.5244 230.6913,-894.1844"/>
</g>
<!-- Node11462&#45;&gt;Node11199 -->
<g id="edge36" class="edge">
<title>Node11462&#45;&gt;Node11199</title>
<path fill="none" stroke="#191970" d="M231.058,-894.1596C244.5542,-925.5189 275.785,-988.1857 322,-1022.2437 382.1089,-1066.5408 431.5266,-1016.1531 483,-1070.2437 529.3694,-1118.9708 472.3047,-1168.8288 519,-1217.2437 522.6931,-1221.0728 527.0959,-1224.1469 531.8555,-1226.6125"/>
<polygon fill="#191970" stroke="#191970" points="234.2405,-892.6973 227.1648,-884.8115 227.7784,-895.3886 234.2405,-892.6973"/>
</g>
<!-- Node11462&#45;&gt;Node11203 -->
<g id="edge55" class="edge">
<title>Node11462&#45;&gt;Node11203</title>
<path fill="none" stroke="#191970" d="M259.5689,-888.2093C278.1019,-894.6461 301.1226,-902.2961 322,-908.2437 392.7084,-928.3871 419.8551,-908.5853 483,-946.2437 611.7761,-1023.0434 711.5977,-1185.4112 735.5177,-1226.5908"/>
<polygon fill="#191970" stroke="#191970" points="260.6446,-884.8776 250.0498,-884.8733 258.3294,-891.4837 260.6446,-884.8776"/>
</g>
<!-- Node11462&#45;&gt;Node11205 -->
<g id="edge56" class="edge">
<title>Node11462&#45;&gt;Node11205</title>
<path fill="none" stroke="#191970" d="M296.3282,-865.4053C432.2122,-848.7041 717.4719,-821.9608 793,-880.2437 847.7158,-922.4663 877.5481,-1156.7926 883.4193,-1207.5464"/>
<polygon fill="#191970" stroke="#191970" points="295.5096,-861.9801 286.0185,-866.6885 296.3742,-868.9265 295.5096,-861.9801"/>
</g>
<!-- Node11462&#45;&gt;Node11206 -->
<g id="edge37" class="edge">
<title>Node11462&#45;&gt;Node11206</title>
<path fill="none" stroke="#191970" d="M235.3131,-893.6395C251.8329,-917.9081 284.1041,-960.334 322,-984.2437 385.1495,-1024.0866 431.5266,-978.1531 483,-1032.2437 529.3694,-1080.9708 472.3047,-1130.8288 519,-1179.2437 522.6931,-1183.0728 527.0959,-1186.1469 531.8555,-1188.6125"/>
<polygon fill="#191970" stroke="#191970" points="238.0379,-891.4157 229.5908,-885.0206 232.2061,-895.2875 238.0379,-891.4157"/>
</g>
<!-- Node11462&#45;&gt;Node11460 -->
<g id="edge38" class="edge">
<title>Node11462&#45;&gt;Node11460</title>
<path fill="none" stroke="#191970" d="M229.4313,-856.0825C249.8786,-790.1402 316.481,-576.33 322,-571.2437 328.5468,-565.2102 336.6442,-560.9847 345.1571,-558.0454"/>
<polygon fill="#191970" stroke="#191970" points="226.0805,-855.0714 226.464,-865.6593 232.7669,-857.1432 226.0805,-855.0714"/>
</g>
<!-- Node11462&#45;&gt;Node11461 -->
<g id="edge39" class="edge">
<title>Node11462&#45;&gt;Node11461</title>
<path fill="none" stroke="#191970" d="M224.6787,-895.3121C230.0033,-979.0396 254.5536,-1299.3963 322,-1369.2437 325.9899,-1373.3756 330.6983,-1376.6802 335.8032,-1379.3151"/>
<polygon fill="#191970" stroke="#191970" points="228.1591,-894.8855 224.0524,-885.119 221.1723,-895.3148 228.1591,-894.8855"/>
</g>
<!-- Node11462&#45;&gt;Node11462 -->
<g id="edge40" class="edge">
<title>Node11462&#45;&gt;Node11462</title>
<path fill="none" stroke="#191970" d="M193.5599,-893.5183C194.4135,-898.9847 204.3936,-903.2437 223.5,-903.2437 251.9375,-903.2437 260.1577,-893.809 248.1606,-885.0008"/>
<polygon fill="#191970" stroke="#191970" points="196.5458,-895.3444 198.8394,-885.0008 190.596,-891.6565 196.5458,-895.3444"/>
</g>
<!-- Node11462&#45;&gt;Node11463 -->
<g id="edge41" class="edge">
<title>Node11462&#45;&gt;Node11463</title>
<path fill="none" stroke="#191970" d="M228.4766,-894.8435C242.7099,-949.479 284.9458,-1101.7354 322,-1136.2437 330.6445,-1144.2943 341.8778,-1149.6531 353.1962,-1153.2175"/>
<polygon fill="#191970" stroke="#191970" points="231.8281,-893.8228 225.9445,-885.0118 225.0493,-895.5688 231.8281,-893.8228"/>
</g>
<!-- Node11462&#45;&gt;Node11464 -->
<g id="edge43" class="edge">
<title>Node11462&#45;&gt;Node11464</title>
<path fill="none" stroke="#191970" d="M242.0536,-891.5586C260.9939,-907.475 291.8179,-931.3969 322,-946.2437 389.0006,-979.2017 423.6757,-948.9013 483,-994.2437 539.8579,-1037.701 572.9608,-1122.2915 582.8416,-1150.6876"/>
<polygon fill="#191970" stroke="#191970" points="244.1073,-888.7096 234.2325,-884.8704 239.5578,-894.0297 244.1073,-888.7096"/>
</g>
<!-- Node11462&#45;&gt;Node11465 -->
<g id="edge44" class="edge">
<title>Node11462&#45;&gt;Node11465</title>
<path fill="none" stroke="#191970" d="M232.9609,-856.5974C246.0164,-830.4017 269.7782,-781.0035 286,-737.2437 305.7985,-683.8353 281.8243,-654.6214 322,-614.2437 328.2746,-607.9375 336.1296,-603.274 344.4556,-599.8283"/>
<polygon fill="#191970" stroke="#191970" points="229.7319,-855.2283 228.3705,-865.7353 235.9871,-858.3706 229.7319,-855.2283"/>
</g>
<!-- Node11462&#45;&gt;Node11466 -->
<g id="edge46" class="edge">
<title>Node11462&#45;&gt;Node11466</title>
<path fill="none" stroke="#191970" d="M261.1585,-862.2978C279.4721,-856.0864 301.8343,-848.6258 322,-842.2437 393.1879,-819.7139 425.7223,-842.1454 483,-794.2437 548.4344,-739.5204 576.6092,-632.8263 583.9556,-600.0545"/>
<polygon fill="#191970" stroke="#191970" points="259.7794,-859.0699 251.4404,-865.6053 262.0348,-865.6966 259.7794,-859.0699"/>
</g>
<!-- Node11462&#45;&gt;Node11467 -->
<g id="edge47" class="edge">
<title>Node11462&#45;&gt;Node11467</title>
<path fill="none" stroke="#191970" d="M226.5567,-855.3411C237.089,-789.3112 273.8846,-579.0739 322,-533.2437 325.9511,-529.4802 330.503,-526.4154 335.3902,-523.9247"/>
<polygon fill="#191970" stroke="#191970" points="223.0382,-855.1868 224.9468,-865.6083 229.9537,-856.2712 223.0382,-855.1868"/>
</g>
<!-- Node11462&#45;&gt;Node11468 -->
<g id="edge49" class="edge">
<title>Node11462&#45;&gt;Node11468</title>
<path fill="none" stroke="#191970" d="M239.4138,-858.1338C257.6156,-839.6011 289.1653,-810.5115 322,-794.2437 387.8793,-761.6041 432.0516,-809.2502 483,-756.2437 541.0465,-695.8524 476.7243,-643.5573 519,-571.2437 531.1781,-550.4128 553.8455,-533.5825 569.4156,-523.7496"/>
<polygon fill="#191970" stroke="#191970" points="236.6528,-855.9558 232.2491,-865.5921 241.7009,-860.8052 236.6528,-855.9558"/>
</g>
<!-- Node11462&#45;&gt;Node11141 -->
<g id="edge50" class="edge">
<title>Node11462&#45;&gt;Node11141</title>
<path fill="none" stroke="#191970" d="M226.7493,-855.6375C238.4562,-786.6618 280.0091,-556.0784 322,-495.2437 336.9808,-473.5402 363.0689,-457.3217 381.4797,-447.8431"/>
<polygon fill="#191970" stroke="#191970" points="223.2812,-855.1559 225.0766,-865.5975 230.1845,-856.3153 223.2812,-855.1559"/>
</g>
<!-- Node11462&#45;&gt;Node11142 -->
<g id="edge52" class="edge">
<title>Node11462&#45;&gt;Node11142</title>
<path fill="none" stroke="#191970" d="M233.5693,-856.6975C248.9847,-830.1427 281.0078,-781.6919 322,-756.2437 384.4637,-717.4658 432.9099,-772.062 483,-718.2437 551.3984,-644.7544 469.7305,-582.7167 519,-495.2437 530.7669,-474.3528 553.3006,-457.6474 568.9692,-447.8511"/>
<polygon fill="#191970" stroke="#191970" points="230.521,-854.9777 228.6554,-865.407 236.6176,-858.4174 230.521,-854.9777"/>
</g>
<!-- Node11462&#45;&gt;Node10975 -->
<g id="edge53" class="edge">
<title>Node11462&#45;&gt;Node10975</title>
<path fill="none" stroke="#191970" d="M224.9944,-855.7199C231.4223,-776.8799 259.2862,-483.1633 322,-419.2437 329.0397,-412.0687 338.2484,-407.3969 347.9136,-404.3958"/>
<polygon fill="#191970" stroke="#191970" points="221.5013,-855.4946 224.1999,-865.74 228.4794,-856.0479 221.5013,-855.4946"/>
</g>
<!-- Node11462&#45;&gt;Node11485 -->
<g id="edge54" class="edge">
<title>Node11462&#45;&gt;Node11485</title>
<path fill="none" stroke="#191970" d="M224.6787,-855.1753C230.0033,-771.4478 254.5536,-451.0911 322,-381.2437 328.0846,-374.9425 335.8401,-370.5654 344.1248,-367.5533"/>
<polygon fill="#191970" stroke="#191970" points="221.1723,-855.1726 224.0524,-865.3684 228.1591,-855.6019 221.1723,-855.1726"/>
</g>
<!-- Node11462&#45;&gt;Node11487 -->
<g id="edge57" class="edge">
<title>Node11462&#45;&gt;Node11487</title>
<path fill="none" stroke="#191970" d="M225.177,-855.3876C232.716,-769.641 265.585,-431.4774 322,-343.2437 336.1138,-321.1696 362.1112,-305.121 380.7463,-295.7802"/>
<polygon fill="#191970" stroke="#191970" points="221.6888,-855.1009 224.3149,-865.3651 228.6628,-855.7036 221.6888,-855.1009"/>
</g>
<!-- Node11462&#45;&gt;Node11488 -->
<g id="edge59" class="edge">
<title>Node11462&#45;&gt;Node11488</title>
<path fill="none" stroke="#191970" d="M235.2935,-856.9909C247.941,-837.3608 268.5595,-805.1987 286,-777.2437 302.2595,-751.1816 297.1312,-736.2755 322,-718.2437 381.5217,-675.0859 433.5318,-734.6342 483,-680.2437 522.3941,-636.9297 501.5936,-475.1456 519,-419.2437 534.2961,-370.1193 566.2972,-317.0009 579.7893,-295.7821"/>
<polygon fill="#191970" stroke="#191970" points="232.2535,-855.2468 229.7739,-865.5474 238.1358,-859.0414 232.2535,-855.2468"/>
</g>
<!-- Node11462&#45;&gt;Node10977 -->
<g id="edge60" class="edge">
<title>Node11462&#45;&gt;Node10977</title>
<path fill="none" stroke="#191970" d="M223.8598,-855.2814C225.9829,-760.3489 239.8013,-355.5112 322,-267.2437 326.5995,-262.3046 332.2235,-258.5387 338.3408,-255.6816"/>
<polygon fill="#191970" stroke="#191970" points="220.3562,-855.4278 223.6511,-865.4972 227.3548,-855.5708 220.3562,-855.4278"/>
</g>
<!-- Node11462&#45;&gt;Node11489 -->
<g id="edge61" class="edge">
<title>Node11462&#45;&gt;Node11489</title>
<path fill="none" stroke="#191970" d="M224.4472,-855.5882C229.3848,-759.3953 254.5766,-338.4794 322,-229.2437 335.6715,-207.094 361.4874,-191.1523 380.2066,-181.8553"/>
<polygon fill="#191970" stroke="#191970" points="220.9471,-855.5044 223.944,-865.6666 227.9384,-855.8536 220.9471,-855.5044"/>
</g>
<!-- Node11462&#45;&gt;Node11490 -->
<g id="edge63" class="edge">
<title>Node11462&#45;&gt;Node11490</title>
<path fill="none" stroke="#191970" d="M236.5972,-857.2966C250.1703,-838.1471 271.4038,-806.59 286,-777.2437 306.4785,-736.0709 287.5381,-710.6894 322,-680.2437 377.0991,-631.5659 434.667,-697.6455 483,-642.2437 538.035,-579.1597 489.9027,-345.7408 519,-267.2437 532.0474,-232.0451 561.5041,-197.8446 576.6378,-181.773"/>
<polygon fill="#191970" stroke="#191970" points="233.599,-855.4714 230.6121,-865.6365 239.2861,-859.5528 233.599,-855.4714"/>
</g>
<!-- Node11462&#45;&gt;Node11186 -->
<g id="edge64" class="edge">
<title>Node11462&#45;&gt;Node11186</title>
<path fill="none" stroke="#191970" d="M224.8666,-855.5418C232.6908,-745.2082 273.1759,-207.0057 322,-153.2437 329.5301,-144.9521 339.9447,-139.9493 350.787,-137.001"/>
<polygon fill="#191970" stroke="#191970" points="221.3689,-855.387 224.1597,-865.6076 228.3517,-855.8774 221.3689,-855.387"/>
</g>
<!-- Node11462&#45;&gt;Node11187 -->
<g id="edge66" class="edge">
<title>Node11462&#45;&gt;Node11187</title>
<path fill="none" stroke="#191970" d="M237.1934,-857.5168C251.2318,-838.5802 272.8204,-807.2254 286,-777.2437 310.9891,-720.397 276.827,-684.8513 322,-642.2437 375.1361,-592.1252 434.6333,-663.9791 483,-609.2437 550.3083,-533.0726 454.5617,-231.8576 519,-153.2437 523.1389,-148.1943 528.5128,-144.4297 534.4166,-141.6326"/>
<polygon fill="#191970" stroke="#191970" points="234.3813,-855.4329 231.1551,-865.5247 239.9704,-859.6474 234.3813,-855.4329"/>
</g>
<!-- Node11463&#45;&gt;Node11464 -->
<g id="edge42" class="edge">
<title>Node11463&#45;&gt;Node11464</title>
<path fill="none" stroke="#191970" d="M461.6989,-1160.2437C484.7979,-1160.2437 511.0596,-1160.2437 533.4738,-1160.2437"/>
<polygon fill="#191970" stroke="#191970" points="461.6747,-1156.7438 451.6746,-1160.2437 461.6746,-1163.7438 461.6747,-1156.7438"/>
</g>
<!-- Node11465&#45;&gt;Node11466 -->
<g id="edge45" class="edge">
<title>Node11465&#45;&gt;Node11466</title>
<path fill="none" stroke="#191970" d="M473.7944,-590.2437C494.8449,-590.2437 517.4091,-590.2437 536.7424,-590.2437"/>
<polygon fill="#191970" stroke="#191970" points="473.6029,-586.7438 463.6028,-590.2437 473.6028,-593.7438 473.6029,-586.7438"/>
</g>
<!-- Node11467&#45;&gt;Node11468 -->
<g id="edge48" class="edge">
<title>Node11467&#45;&gt;Node11468</title>
<path fill="none" stroke="#191970" d="M485.269,-514.2437C499.4355,-514.2437 513.8904,-514.2437 527.2652,-514.2437"/>
<polygon fill="#191970" stroke="#191970" points="485.0241,-510.7438 475.0241,-514.2437 485.024,-517.7438 485.0241,-510.7438"/>
</g>
<!-- Node11141&#45;&gt;Node11142 -->
<g id="edge51" class="edge">
<title>Node11141&#45;&gt;Node11142</title>
<path fill="none" stroke="#191970" d="M493.3792,-438.2437C507.318,-438.2437 521.2836,-438.2437 533.9889,-438.2437"/>
<polygon fill="#191970" stroke="#191970" points="493.2528,-434.7438 483.2528,-438.2437 493.2528,-441.7438 493.2528,-434.7438"/>
</g>
<!-- Node11487&#45;&gt;Node11488 -->
<g id="edge58" class="edge">
<title>Node11487&#45;&gt;Node11488</title>
<path fill="none" stroke="#191970" d="M459.1355,-286.2437C483.874,-286.2437 512.6236,-286.2437 536.4934,-286.2437"/>
<polygon fill="#191970" stroke="#191970" points="458.8048,-282.7438 448.8048,-286.2437 458.8048,-289.7438 458.8048,-282.7438"/>
</g>
<!-- Node11489&#45;&gt;Node11490 -->
<g id="edge62" class="edge">
<title>Node11489&#45;&gt;Node11490</title>
<path fill="none" stroke="#191970" d="M467.197,-172.2437C486.9452,-172.2437 508.5297,-172.2437 527.8183,-172.2437"/>
<polygon fill="#191970" stroke="#191970" points="467.0593,-168.7438 457.0592,-172.2437 467.0592,-175.7438 467.0593,-168.7438"/>
</g>
<!-- Node11186&#45;&gt;Node11187 -->
<g id="edge65" class="edge">
<title>Node11186&#45;&gt;Node11187</title>
<path fill="none" stroke="#191970" d="M464.3546,-134.2437C487.1403,-134.2437 512.6878,-134.2437 534.4664,-134.2437"/>
<polygon fill="#191970" stroke="#191970" points="464.1033,-130.7438 454.1033,-134.2437 464.1033,-137.7438 464.1033,-130.7438"/>
</g>
</g>
</svg>
