<?xml version="1.0" encoding="UTF-8" standalone="no"?>
<!DOCTYPE svg PUBLIC "-//W3C//DTD SVG 1.1//EN"
 "http://www.w3.org/Graphics/SVG/1.1/DTD/svg11.dtd">
<!-- Generated by graphviz version 12.2.1 (20241206.2353)
 -->
<!-- Title: mutt_path_canon Pages: 1 -->
<svg width="424pt" height="203pt"
 viewBox="0.00 0.00 423.75 202.70" xmlns="http://www.w3.org/2000/svg" xmlns:xlink="http://www.w3.org/1999/xlink">
<g id="graph0" class="graph" transform="scale(1 1) rotate(0) translate(4 198.7)">
<title>mutt_path_canon</title>
<!-- Node1 -->
<g id="Node000001" class="node">
<title>Node1</title>
<g id="a_Node000001"><a xlink:title="Create the canonical version of a path.">
<polygon fill="#999999" stroke="#666666" points="96.25,-119.25 0,-119.25 0,-97 96.25,-97 96.25,-119.25"/>
<text text-anchor="middle" x="48.12" y="-105.75" font-family="Helvetica,sans-Serif" font-size="10.00">mutt_path_canon</text>
</a>
</g>
</g>
<!-- Node2 -->
<g id="Node000002" class="node">
<title>Node2</title>
<g id="a_Node000002"><a xlink:href="buffer_8c.html#a52e24da79941dc16d5577dac9dfc2698" target="_top" xlink:title="Return the character at the given offset.">
<polygon fill="#fff0f0" stroke="red" points="415.75,-80.25 370.5,-80.25 370.5,-58 415.75,-58 415.75,-80.25"/>
<text text-anchor="middle" x="393.12" y="-66.75" font-family="Helvetica,sans-Serif" font-size="10.00">buf_at</text>
</a>
</g>
</g>
<!-- Node1&#45;&gt;Node2 -->
<g id="edge1_Node000001_Node000002" class="edge">
<title>Node1&#45;&gt;Node2</title>
<g id="a_edge1_Node000001_Node000002"><a xlink:title=" ">
<path fill="none" stroke="#63b8ff" d="M56.66,-119.53C69.56,-137.91 97.86,-173.39 132.25,-187.12 168.88,-201.76 181.69,-190.39 221,-187.12 271.97,-182.89 292.43,-197.21 334.5,-168.12 361.25,-149.64 377.34,-114.38 385.47,-91.32"/>
<polygon fill="#63b8ff" stroke="#63b8ff" points="388.75,-92.55 388.54,-81.96 382.1,-90.37 388.75,-92.55"/>
</a>
</g>
</g>
<!-- Node4 -->
<g id="Node000004" class="node">
<title>Node4</title>
<g id="a_Node000004"><a xlink:href="buffer_8c.html#ad68cbd296b1d1bd5f734c36ce827bc86" target="_top" xlink:title="Add a string in the middle of a buffer.">
<polygon fill="#fff0f0" stroke="red" points="208.25,-178.25 145,-178.25 145,-156 208.25,-156 208.25,-178.25"/>
<text text-anchor="middle" x="176.62" y="-164.75" font-family="Helvetica,sans-Serif" font-size="10.00">buf_insert</text>
</a>
</g>
</g>
<!-- Node1&#45;&gt;Node4 -->
<g id="edge2_Node000001_Node000004" class="edge">
<title>Node1&#45;&gt;Node4</title>
<g id="a_edge2_Node000001_Node000004"><a xlink:title=" ">
<path fill="none" stroke="#63b8ff" d="M73.82,-119.64C92.88,-128.53 119.51,-140.95 140.75,-150.86"/>
<polygon fill="#63b8ff" stroke="#63b8ff" points="139.08,-153.94 149.62,-155 142.04,-147.6 139.08,-153.94"/>
</a>
</g>
</g>
<!-- Node10 -->
<g id="Node000010" class="node">
<title>Node10</title>
<g id="a_Node000010"><a xlink:href="mutt_2string_8c.html#acca6786b903b22a5924219f9db96e10d" target="_top" xlink:title="Calculate the length of a string, safely.">
<polygon fill="white" stroke="#666666" points="333,-159.25 258.5,-159.25 258.5,-137 333,-137 333,-159.25"/>
<text text-anchor="middle" x="295.75" y="-145.75" font-family="Helvetica,sans-Serif" font-size="10.00">mutt_str_len</text>
</a>
</g>
</g>
<!-- Node1&#45;&gt;Node10 -->
<g id="edge12_Node000001_Node000010" class="edge">
<title>Node1&#45;&gt;Node10</title>
<g id="a_edge12_Node000001_Node000010"><a xlink:title=" ">
<path fill="none" stroke="#63b8ff" d="M96.48,-115.84C139.87,-122.9 203.76,-133.31 247.2,-140.38"/>
<polygon fill="#63b8ff" stroke="#63b8ff" points="246.4,-143.8 256.83,-141.95 247.52,-136.89 246.4,-143.8"/>
</a>
</g>
</g>
<!-- Node11 -->
<g id="Node000011" class="node">
<title>Node11</title>
<g id="a_Node000011"><a xlink:href="buffer_8c.html#a4245e227baa2a9beb6991917404aab0d" target="_top" xlink:title="Is the Buffer empty?">
<polygon fill="white" stroke="#666666" points="334.5,-61.25 257,-61.25 257,-39 334.5,-39 334.5,-61.25"/>
<text text-anchor="middle" x="295.75" y="-47.75" font-family="Helvetica,sans-Serif" font-size="10.00">buf_is_empty</text>
</a>
</g>
</g>
<!-- Node1&#45;&gt;Node11 -->
<g id="edge4_Node000001_Node000011" class="edge">
<title>Node1&#45;&gt;Node11</title>
<g id="a_edge4_Node000001_Node000011"><a xlink:title=" ">
<path fill="none" stroke="#63b8ff" d="M68.91,-96.61C85.32,-87.61 109.56,-75.59 132.25,-69.12 169.39,-58.54 212.92,-53.84 245.57,-51.76"/>
<polygon fill="#63b8ff" stroke="#63b8ff" points="245.35,-55.28 255.13,-51.21 244.95,-48.29 245.35,-55.28"/>
</a>
</g>
</g>
<!-- Node12 -->
<g id="Node000012" class="node">
<title>Node12</title>
<g id="a_Node000012"><a xlink:href="mutt_2path_8c.html#a5ab1c7e67015696230c62a80223bc752" target="_top" xlink:title="Remove unnecessary parts of a path.">
<polygon fill="#fff0f0" stroke="red" points="219.5,-100.25 133.75,-100.25 133.75,-78 219.5,-78 219.5,-100.25"/>
<text text-anchor="middle" x="176.62" y="-86.75" font-family="Helvetica,sans-Serif" font-size="10.00">mutt_path_tidy</text>
</a>
</g>
</g>
<!-- Node1&#45;&gt;Node12 -->
<g id="edge6_Node000001_Node000012" class="edge">
<title>Node1&#45;&gt;Node12</title>
<g id="a_edge6_Node000001_Node000012"><a xlink:title=" ">
<path fill="none" stroke="#63b8ff" d="M96.59,-101C104.88,-99.75 113.56,-98.45 122,-97.18"/>
<polygon fill="#63b8ff" stroke="#63b8ff" points="122.44,-100.65 131.81,-95.71 121.4,-93.73 122.44,-100.65"/>
</a>
</g>
</g>
<!-- Node17 -->
<g id="Node000017" class="node">
<title>Node17</title>
<g id="a_Node000017"><a xlink:href="mutt_2path_8c.html#aa51eaec92f9803ff9e11e442efa5aff9" target="_top" xlink:title="Expand &#39;~&#39; in a path.">
<polygon fill="#fff0f0" stroke="red" points="221,-22.25 132.25,-22.25 132.25,0 221,0 221,-22.25"/>
<text text-anchor="middle" x="176.62" y="-8.75" font-family="Helvetica,sans-Serif" font-size="10.00">mutt_path_tilde</text>
</a>
</g>
</g>
<!-- Node1&#45;&gt;Node17 -->
<g id="edge9_Node000001_Node000017" class="edge">
<title>Node1&#45;&gt;Node17</title>
<g id="a_edge9_Node000001_Node000017"><a xlink:title=" ">
<path fill="none" stroke="#63b8ff" d="M60.92,-96.62C76.51,-81.72 105.18,-55.38 132.25,-36.12 135.97,-33.48 139.99,-30.87 144.02,-28.39"/>
<polygon fill="#63b8ff" stroke="#63b8ff" points="145.8,-31.41 152.64,-23.31 142.24,-25.37 145.8,-31.41"/>
</a>
</g>
</g>
<!-- Node4&#45;&gt;Node10 -->
<g id="edge3_Node000004_Node000010" class="edge">
<title>Node4&#45;&gt;Node10</title>
<g id="a_edge3_Node000004_Node000010"><a xlink:title=" ">
<path fill="none" stroke="#63b8ff" d="M208.7,-162.08C220.45,-160.18 234.09,-157.96 247.01,-155.87"/>
<polygon fill="#63b8ff" stroke="#63b8ff" points="247.31,-159.37 256.62,-154.31 246.19,-152.46 247.31,-159.37"/>
</a>
</g>
</g>
<!-- Node11&#45;&gt;Node2 -->
<g id="edge5_Node000011_Node000002" class="edge">
<title>Node11&#45;&gt;Node2</title>
<g id="a_edge5_Node000011_Node000002"><a xlink:title=" ">
<path fill="none" stroke="#63b8ff" d="M334.99,-57.74C342.91,-59.32 351.19,-60.97 358.9,-62.51"/>
<polygon fill="#63b8ff" stroke="#63b8ff" points="358.09,-65.91 368.59,-64.44 359.46,-59.05 358.09,-65.91"/>
</a>
</g>
</g>
<!-- Node12&#45;&gt;Node2 -->
<g id="edge7_Node000012_Node000002" class="edge">
<title>Node12&#45;&gt;Node2</title>
<g id="a_edge7_Node000012_Node000002"><a xlink:title=" ">
<path fill="none" stroke="#63b8ff" d="M219.75,-85.2C260.48,-81.4 321.39,-75.72 358.84,-72.23"/>
<polygon fill="#63b8ff" stroke="#63b8ff" points="358.98,-75.73 368.61,-71.32 358.33,-68.76 358.98,-75.73"/>
</a>
</g>
</g>
<!-- Node12&#45;&gt;Node11 -->
<g id="edge8_Node000012_Node000011" class="edge">
<title>Node12&#45;&gt;Node11</title>
<g id="a_edge8_Node000012_Node000011"><a xlink:title=" ">
<path fill="none" stroke="#63b8ff" d="M212.45,-77.53C223.91,-73.71 236.83,-69.41 248.98,-65.36"/>
<polygon fill="#63b8ff" stroke="#63b8ff" points="250.04,-68.7 258.42,-62.22 247.83,-62.06 250.04,-68.7"/>
</a>
</g>
</g>
<!-- Node17&#45;&gt;Node2 -->
<g id="edge10_Node000017_Node000002" class="edge">
<title>Node17&#45;&gt;Node2</title>
<g id="a_edge10_Node000017_Node000002"><a xlink:title=" ">
<path fill="none" stroke="#63b8ff" d="M221.2,-10.94C253.42,-12.1 297.88,-16.44 334.5,-30.12 347.19,-34.87 359.82,-42.94 370.01,-50.52"/>
<polygon fill="#63b8ff" stroke="#63b8ff" points="367.72,-53.17 377.76,-56.57 372.03,-47.66 367.72,-53.17"/>
</a>
</g>
</g>
<!-- Node17&#45;&gt;Node11 -->
<g id="edge11_Node000017_Node000011" class="edge">
<title>Node17&#45;&gt;Node11</title>
<g id="a_edge11_Node000017_Node000011"><a xlink:title=" ">
<path fill="none" stroke="#63b8ff" d="M212.45,-22.72C223.91,-26.54 236.83,-30.84 248.98,-34.89"/>
<polygon fill="#63b8ff" stroke="#63b8ff" points="247.83,-38.19 258.42,-38.03 250.04,-31.55 247.83,-38.19"/>
</a>
</g>
</g>
</g>
</svg>
