<?xml version="1.0" encoding="UTF-8" standalone="no"?>
<!DOCTYPE svg PUBLIC "-//W3C//DTD SVG 1.1//EN"
 "http://www.w3.org/Graphics/SVG/1.1/DTD/svg11.dtd">
<!-- Generated by graphviz version 7.1.0 (0)
 -->
<!-- Title: mutt_open_read Pages: 1 -->
<svg width="216pt" height="138pt"
 viewBox="0.00 0.00 216.00 138.00" xmlns="http://www.w3.org/2000/svg" xmlns:xlink="http://www.w3.org/1999/xlink">
<g id="graph0" class="graph" transform="scale(1 1) rotate(0) translate(4 134)">
<title>mutt_open_read</title>
<!-- Node1 -->
<g id="node1" class="node">
<title>Node1</title>
<g id="a_node1"><a xlink:title="Run a command to read from.">
<polygon fill="#999999" stroke="#666666" points="93,-74 0,-74 0,-55 93,-55 93,-74"/>
<text text-anchor="middle" x="46.5" y="-62" font-family="Helvetica,sans-Serif" font-size="10.00">mutt_open_read</text>
</a>
</g>
</g>
<!-- Node2 -->
<g id="node2" class="node">
<title>Node2</title>
<g id="a_node2"><a xlink:href="mutt_2filter_8c.html#ad1ec6916f8ee2520af1711891f6b5302" target="_top" xlink:title="Set up filter program.">
<polygon fill="#fff0f0" stroke="red" points="205,-130 132,-130 132,-111 205,-111 205,-130"/>
<text text-anchor="middle" x="168.5" y="-118" font-family="Helvetica,sans-Serif" font-size="10.00">filter_create</text>
</a>
</g>
</g>
<!-- Node1&#45;&gt;Node2 -->
<g id="edge1" class="edge">
<title>Node1&#45;&gt;Node2</title>
<path fill="none" stroke="#63b8ff" d="M68.68,-74.38C87.33,-83.09 114.75,-95.88 135.97,-105.79"/>
<polygon fill="#63b8ff" stroke="#63b8ff" points="134.22,-108.83 144.76,-109.89 137.18,-102.49 134.22,-108.83"/>
</g>
<!-- Node7 -->
<g id="node3" class="node">
<title>Node7</title>
<g id="a_node3"><a xlink:href="curs__lib_8c.html#acd14d074d8b9e6cb21e851dd573cdec2" target="_top" xlink:title="Shutdown curses.">
<polygon fill="#fff0f0" stroke="red" points="207,-93 130,-93 130,-74 207,-74 207,-93"/>
<text text-anchor="middle" x="168.5" y="-81" font-family="Helvetica,sans-Serif" font-size="10.00">mutt_endwin</text>
</a>
</g>
</g>
<!-- Node1&#45;&gt;Node7 -->
<g id="edge2" class="edge">
<title>Node1&#45;&gt;Node7</title>
<path fill="none" stroke="#63b8ff" d="M93.21,-71.74C101.5,-73.05 110.17,-74.42 118.55,-75.75"/>
<polygon fill="#63b8ff" stroke="#63b8ff" points="117.8,-79.17 128.23,-77.28 118.9,-72.26 117.8,-79.17"/>
</g>
<!-- Node10 -->
<g id="node4" class="node">
<title>Node10</title>
<g id="a_node4"><a xlink:href="mutt_2string_8c.html#a3fe33d90e4814281cd57de048119c950" target="_top" xlink:title="Copy a string, safely.">
<polygon fill="#fff0f0" stroke="red" points="208,-56 129,-56 129,-37 208,-37 208,-56"/>
<text text-anchor="middle" x="168.5" y="-44" font-family="Helvetica,sans-Serif" font-size="10.00">mutt_str_dup</text>
</a>
</g>
</g>
<!-- Node1&#45;&gt;Node10 -->
<g id="edge3" class="edge">
<title>Node1&#45;&gt;Node10</title>
<path fill="none" stroke="#63b8ff" d="M93.21,-57.64C101.13,-56.46 109.41,-55.21 117.44,-54.01"/>
<polygon fill="#63b8ff" stroke="#63b8ff" points="117.7,-57.51 127.07,-52.56 116.67,-50.59 117.7,-57.51"/>
</g>
<!-- Node12 -->
<g id="node5" class="node">
<title>Node12</title>
<g id="a_node5"><a xlink:href="mutt_2string_8c.html#acca6786b903b22a5924219f9db96e10d" target="_top" xlink:title="Calculate the length of a string, safely.">
<polygon fill="white" stroke="#666666" points="206,-19 131,-19 131,0 206,0 206,-19"/>
<text text-anchor="middle" x="168.5" y="-7" font-family="Helvetica,sans-Serif" font-size="10.00">mutt_str_len</text>
</a>
</g>
</g>
<!-- Node1&#45;&gt;Node12 -->
<g id="edge4" class="edge">
<title>Node1&#45;&gt;Node12</title>
<path fill="none" stroke="#63b8ff" d="M69.23,-54.54C87.75,-46.05 114.62,-33.74 135.58,-24.13"/>
<polygon fill="#63b8ff" stroke="#63b8ff" points="136.92,-27.36 144.55,-20.02 134.01,-21 136.92,-27.36"/>
</g>
</g>
</svg>
