<?xml version="1.0" encoding="UTF-8" standalone="no"?>
<!DOCTYPE svg PUBLIC "-//W3C//DTD SVG 1.1//EN"
 "http://www.w3.org/Graphics/SVG/1.1/DTD/svg11.dtd">
<!-- Generated by graphviz version 12.2.1 (20241206.2353)
 -->
<!-- Title: mutt_pretty_mailbox Pages: 1 -->
<svg width="396pt" height="260pt"
 viewBox="0.00 0.00 395.75 260.25" xmlns="http://www.w3.org/2000/svg" xmlns:xlink="http://www.w3.org/1999/xlink">
<g id="graph0" class="graph" transform="scale(1 1) rotate(0) translate(4 256.25)">
<title>mutt_pretty_mailbox</title>
<!-- Node1 -->
<g id="Node000001" class="node">
<title>Node1</title>
<g id="a_Node000001"><a xlink:title="Shorten a mailbox path using &#39;~&#39; or &#39;=&#39;.">
<polygon fill="#999999" stroke="#666666" points="112,-141.25 0,-141.25 0,-119 112,-119 112,-141.25"/>
<text text-anchor="middle" x="56" y="-127.75" font-family="Helvetica,sans-Serif" font-size="10.00">mutt_pretty_mailbox</text>
</a>
</g>
</g>
<!-- Node2 -->
<g id="Node000002" class="node">
<title>Node2</title>
<g id="a_Node000002"><a xlink:href="config_2helpers_8c.html#a6b1589ee93ff51ef31f1d9324e138078" target="_top" xlink:title="Get a string config item by name.">
<polygon fill="#fff0f0" stroke="red" points="387.75,-252.25 296,-252.25 296,-230 387.75,-230 387.75,-252.25"/>
<text text-anchor="middle" x="341.88" y="-238.75" font-family="Helvetica,sans-Serif" font-size="10.00">cs_subset_string</text>
</a>
</g>
</g>
<!-- Node1&#45;&gt;Node2 -->
<g id="edge1_Node000001_Node000002" class="edge">
<title>Node1&#45;&gt;Node2</title>
<g id="a_edge1_Node000001_Node000002"><a xlink:title=" ">
<path fill="none" stroke="#63b8ff" d="M66.24,-141.64C81.29,-159.52 112.99,-193.63 148,-210.12 190.86,-230.32 244.39,-237.7 284.17,-240.25"/>
<polygon fill="#63b8ff" stroke="#63b8ff" points="283.84,-243.73 294.01,-240.78 284.22,-236.74 283.84,-243.73"/>
</a>
</g>
</g>
<!-- Node23 -->
<g id="Node000023" class="node">
<title>Node23</title>
<g id="a_Node000023"><a xlink:href="util_8c.html#a99de91a4d9fc2f36a4655277554e2c8f" target="_top" xlink:title="Prettify an IMAP mailbox name.">
<polygon fill="#fff0f0" stroke="red" points="260,-180.25 148,-180.25 148,-158 260,-158 260,-180.25"/>
<text text-anchor="middle" x="204" y="-166.75" font-family="Helvetica,sans-Serif" font-size="10.00">imap_pretty_mailbox</text>
</a>
</g>
</g>
<!-- Node1&#45;&gt;Node23 -->
<g id="edge2_Node000001_Node000023" class="edge">
<title>Node1&#45;&gt;Node23</title>
<g id="a_edge2_Node000001_Node000023"><a xlink:title=" ">
<path fill="none" stroke="#63b8ff" d="M100.41,-141.72C115.57,-145.77 132.78,-150.37 148.72,-154.63"/>
<polygon fill="#63b8ff" stroke="#63b8ff" points="147.48,-157.92 158.04,-157.12 149.29,-151.15 147.48,-157.92"/>
</a>
</g>
</g>
<!-- Node51 -->
<g id="Node000051" class="node">
<title>Node51</title>
<g id="a_Node000051"><a xlink:href="mutt_2string_8c.html#acca6786b903b22a5924219f9db96e10d" target="_top" xlink:title="Calculate the length of a string, safely.">
<polygon fill="white" stroke="#666666" points="379.12,-208.25 304.62,-208.25 304.62,-186 379.12,-186 379.12,-208.25"/>
<text text-anchor="middle" x="341.88" y="-194.75" font-family="Helvetica,sans-Serif" font-size="10.00">mutt_str_len</text>
</a>
</g>
</g>
<!-- Node1&#45;&gt;Node51 -->
<g id="edge7_Node000001_Node000051" class="edge">
<title>Node1&#45;&gt;Node51</title>
<g id="a_edge7_Node000001_Node000051"><a xlink:title=" ">
<path fill="none" stroke="#63b8ff" d="M69.71,-141.59C86.32,-155.77 116.96,-179.24 148,-189.12 195.67,-204.31 253.32,-204.5 293.11,-202.03"/>
<polygon fill="#63b8ff" stroke="#63b8ff" points="293.1,-205.54 302.83,-201.34 292.61,-198.56 293.1,-205.54"/>
</a>
</g>
</g>
<!-- Node52 -->
<g id="Node000052" class="node">
<title>Node52</title>
<g id="a_Node000052"><a xlink:href="mutt_2string_8c.html#a6f574867aa9db4d434adbc8af1f5f7e7" target="_top" xlink:title="Check for equality of two strings (to a maximum), safely.">
<polygon fill="white" stroke="#666666" points="387.75,-159.25 296,-159.25 296,-137 387.75,-137 387.75,-159.25"/>
<text text-anchor="middle" x="341.88" y="-145.75" font-family="Helvetica,sans-Serif" font-size="10.00">mutt_strn_equal</text>
</a>
</g>
</g>
<!-- Node1&#45;&gt;Node52 -->
<g id="edge9_Node000001_Node000052" class="edge">
<title>Node1&#45;&gt;Node52</title>
<g id="a_edge9_Node000001_Node000052"><a xlink:title=" ">
<path fill="none" stroke="#63b8ff" d="M112.41,-133.64C162.11,-136.79 234.69,-141.39 284.64,-144.56"/>
<polygon fill="#63b8ff" stroke="#63b8ff" points="284.17,-148.04 294.37,-145.18 284.61,-141.05 284.17,-148.04"/>
</a>
</g>
</g>
<!-- Node14 -->
<g id="Node000014" class="node">
<title>Node14</title>
<g id="a_Node000014"><a xlink:href="mutt_2string_8c.html#ad20e00309de897a1e882fc7400335b83" target="_top" xlink:title="Copy a string into a buffer (guaranteeing NUL&#45;termination)">
<polygon fill="white" stroke="#666666" points="245,-102.25 163,-102.25 163,-80 245,-80 245,-102.25"/>
<text text-anchor="middle" x="204" y="-88.75" font-family="Helvetica,sans-Serif" font-size="10.00">mutt_str_copy</text>
</a>
</g>
</g>
<!-- Node1&#45;&gt;Node14 -->
<g id="edge6_Node000001_Node000014" class="edge">
<title>Node1&#45;&gt;Node14</title>
<g id="a_edge6_Node000001_Node000014"><a xlink:title=" ">
<path fill="none" stroke="#63b8ff" d="M100.41,-118.53C116.54,-114.22 135,-109.29 151.77,-104.81"/>
<polygon fill="#63b8ff" stroke="#63b8ff" points="152.28,-108.3 161.04,-102.33 150.48,-101.53 152.28,-108.3"/>
</a>
</g>
</g>
<!-- Node67 -->
<g id="Node000067" class="node">
<title>Node67</title>
<g id="a_Node000067"><a xlink:href="mutt_2string_8c.html#a9bf968304f4f9b49e24215cb2e28d22d" target="_top" xlink:title="Check whether a string starts with a prefix.">
<polygon fill="#fff0f0" stroke="red" points="257,-62.25 151,-62.25 151,-40 257,-40 257,-62.25"/>
<text text-anchor="middle" x="204" y="-48.75" font-family="Helvetica,sans-Serif" font-size="10.00">mutt_str_startswith</text>
</a>
</g>
</g>
<!-- Node1&#45;&gt;Node67 -->
<g id="edge8_Node000001_Node000067" class="edge">
<title>Node1&#45;&gt;Node67</title>
<g id="a_edge8_Node000001_Node000067"><a xlink:title=" ">
<path fill="none" stroke="#63b8ff" d="M72.46,-118.54C90.06,-105.73 120.02,-85.06 148,-71.12 150.9,-69.68 153.93,-68.29 157.01,-66.95"/>
<polygon fill="#63b8ff" stroke="#63b8ff" points="158.24,-70.23 166.18,-63.23 155.6,-63.75 158.24,-70.23"/>
</a>
</g>
</g>
<!-- Node68 -->
<g id="Node000068" class="node">
<title>Node68</title>
<g id="a_Node000068"><a xlink:href="url_8c.html#a8f42b58bf1296286da36c329472f135f" target="_top" xlink:title="Check the protocol of a URL.">
<polygon fill="#fff0f0" stroke="red" points="254,-22.25 154,-22.25 154,0 254,0 254,-22.25"/>
<text text-anchor="middle" x="204" y="-8.75" font-family="Helvetica,sans-Serif" font-size="10.00">url_check_scheme</text>
</a>
</g>
</g>
<!-- Node1&#45;&gt;Node68 -->
<g id="edge10_Node000001_Node000068" class="edge">
<title>Node1&#45;&gt;Node68</title>
<g id="a_edge10_Node000001_Node000068"><a xlink:title=" ">
<path fill="none" stroke="#63b8ff" d="M64.67,-118.68C78.84,-98.35 111.1,-55.73 148,-31.12 149.84,-29.9 151.76,-28.74 153.74,-27.64"/>
<polygon fill="#63b8ff" stroke="#63b8ff" points="155.17,-30.83 162.63,-23.31 152.11,-24.54 155.17,-30.83"/>
</a>
</g>
</g>
<!-- Node23&#45;&gt;Node2 -->
<g id="edge3_Node000023_Node000002" class="edge">
<title>Node23&#45;&gt;Node2</title>
<g id="a_edge3_Node000023_Node000002"><a xlink:title=" ">
<path fill="none" stroke="#63b8ff" d="M226.83,-180.69C249.12,-192.5 283.93,-210.95 309.24,-224.36"/>
<polygon fill="#63b8ff" stroke="#63b8ff" points="307.29,-227.29 317.76,-228.88 310.56,-221.1 307.29,-227.29"/>
</a>
</g>
</g>
<!-- Node23&#45;&gt;Node51 -->
<g id="edge4_Node000023_Node000051" class="edge">
<title>Node23&#45;&gt;Node51</title>
<g id="a_edge4_Node000023_Node000051"><a xlink:title=" ">
<path fill="none" stroke="#63b8ff" d="M260.27,-180.51C271.16,-182.76 282.51,-185.1 293.14,-187.29"/>
<polygon fill="#63b8ff" stroke="#63b8ff" points="292.35,-190.7 302.85,-189.29 293.76,-183.84 292.35,-190.7"/>
</a>
</g>
</g>
<!-- Node23&#45;&gt;Node52 -->
<g id="edge5_Node000023_Node000052" class="edge">
<title>Node23&#45;&gt;Node52</title>
<g id="a_edge5_Node000023_Node000052"><a xlink:title=" ">
<path fill="none" stroke="#63b8ff" d="M260.27,-160.58C268.26,-159.35 276.49,-158.08 284.5,-156.84"/>
<polygon fill="#63b8ff" stroke="#63b8ff" points="284.79,-160.34 294.13,-155.35 283.72,-153.42 284.79,-160.34"/>
</a>
</g>
</g>
</g>
</svg>
