<?xml version="1.0" encoding="UTF-8" standalone="no"?>
<!DOCTYPE svg PUBLIC "-//W3C//DTD SVG 1.1//EN"
 "http://www.w3.org/Graphics/SVG/1.1/DTD/svg11.dtd">
<!-- Generated by graphviz version 12.2.1 (20241206.2353)
 -->
<!-- Title: window_notify Pages: 1 -->
<svg width="256pt" height="190pt"
 viewBox="0.00 0.00 256.00 190.25" xmlns="http://www.w3.org/2000/svg" xmlns:xlink="http://www.w3.org/1999/xlink">
<g id="graph0" class="graph" transform="scale(1 1) rotate(0) translate(4 186.25)">
<title>window_notify</title>
<!-- Node1 -->
<g id="Node000001" class="node">
<title>Node1</title>
<g id="a_Node000001"><a xlink:title="Notify observers of changes to a Window.">
<polygon fill="#999999" stroke="#666666" points="82.75,-102.25 0,-102.25 0,-80 82.75,-80 82.75,-102.25"/>
<text text-anchor="middle" x="41.38" y="-88.75" font-family="Helvetica,sans-Serif" font-size="10.00">window_notify</text>
</a>
</g>
</g>
<!-- Node2 -->
<g id="Node000002" class="node">
<title>Node2</title>
<g id="a_Node000002"><a xlink:href="gui_2thread_8c.html#af6f89eb1fe9177d9a3484842f7d5c1cc" target="_top" xlink:title="Is the message visible?">
<polygon fill="white" stroke="#666666" points="211.25,-182.25 155.5,-182.25 155.5,-160 211.25,-160 211.25,-182.25"/>
<text text-anchor="middle" x="183.38" y="-168.75" font-family="Helvetica,sans-Serif" font-size="10.00">is_visible</text>
</a>
</g>
</g>
<!-- Node1&#45;&gt;Node2 -->
<g id="edge1_Node000001_Node000002" class="edge">
<title>Node1&#45;&gt;Node2</title>
<g id="a_edge1_Node000001_Node000002"><a xlink:title=" ">
<path fill="none" stroke="#63b8ff" d="M53.86,-102.36C68.03,-115.68 93.39,-137.76 118.75,-151.12 126.65,-155.29 135.58,-158.77 144.18,-161.58"/>
<polygon fill="#63b8ff" stroke="#63b8ff" points="143.17,-164.93 153.76,-164.48 145.2,-158.23 143.17,-164.93"/>
</a>
</g>
</g>
<!-- Node3 -->
<g id="Node000003" class="node">
<title>Node3</title>
<g id="a_Node000003"><a xlink:href="mutt__window_8c.html#a03920015a9ccfd1814779c1570f2fee6" target="_top" xlink:title="Is the Window visible?">
<polygon fill="white" stroke="#666666" points="244.62,-142.25 122.12,-142.25 122.12,-120 244.62,-120 244.62,-142.25"/>
<text text-anchor="middle" x="183.38" y="-128.75" font-family="Helvetica,sans-Serif" font-size="10.00">mutt_window_is_visible</text>
</a>
</g>
</g>
<!-- Node1&#45;&gt;Node3 -->
<g id="edge2_Node000001_Node000003" class="edge">
<title>Node1&#45;&gt;Node3</title>
<g id="a_edge2_Node000001_Node000003"><a xlink:title=" ">
<path fill="none" stroke="#63b8ff" d="M82.87,-102.69C97.96,-107.01 115.29,-111.96 131.22,-116.51"/>
<polygon fill="#63b8ff" stroke="#63b8ff" points="129.94,-119.78 140.52,-119.17 131.86,-113.05 129.94,-119.78"/>
</a>
</g>
</g>
<!-- Node4 -->
<g id="Node000004" class="node">
<title>Node4</title>
<g id="a_Node000004"><a xlink:href="mutt__window_8c.html#a61446f88f6193a4fe76e7de175a6fd01" target="_top" xlink:title="Get the name of a Window.">
<polygon fill="#fff0f0" stroke="red" points="248,-102.25 118.75,-102.25 118.75,-80 248,-80 248,-102.25"/>
<text text-anchor="middle" x="183.38" y="-88.75" font-family="Helvetica,sans-Serif" font-size="10.00">mutt_window_win_name</text>
</a>
</g>
</g>
<!-- Node1&#45;&gt;Node4 -->
<g id="edge3_Node000001_Node000004" class="edge">
<title>Node1&#45;&gt;Node4</title>
<g id="a_edge3_Node000001_Node000004"><a xlink:title=" ">
<path fill="none" stroke="#63b8ff" d="M83.25,-91.12C90.71,-91.12 98.7,-91.12 106.8,-91.12"/>
<polygon fill="#63b8ff" stroke="#63b8ff" points="106.76,-94.63 116.76,-91.13 106.76,-87.63 106.76,-94.63"/>
</a>
</g>
</g>
<!-- Node6 -->
<g id="Node000006" class="node">
<title>Node6</title>
<g id="a_Node000006"><a xlink:href="mutt_2notify_8c.html#ade2f42f8e0d8a843e87816300799a8e1" target="_top" xlink:title="Send out a notification message.">
<polygon fill="#fff0f0" stroke="red" points="218.38,-62.25 148.38,-62.25 148.38,-40 218.38,-40 218.38,-62.25"/>
<text text-anchor="middle" x="183.38" y="-48.75" font-family="Helvetica,sans-Serif" font-size="10.00">notify_send</text>
</a>
</g>
</g>
<!-- Node1&#45;&gt;Node6 -->
<g id="edge4_Node000001_Node000006" class="edge">
<title>Node1&#45;&gt;Node6</title>
<g id="a_edge4_Node000001_Node000006"><a xlink:title=" ">
<path fill="none" stroke="#63b8ff" d="M82.87,-79.56C99.83,-74.71 119.61,-69.06 137.06,-64.07"/>
<polygon fill="#63b8ff" stroke="#63b8ff" points="138.02,-67.44 146.67,-61.33 136.1,-60.71 138.02,-67.44"/>
</a>
</g>
</g>
<!-- Node8 -->
<g id="Node000008" class="node">
<title>Node8</title>
<g id="a_Node000008"><a xlink:href="mutt__window_8c.html#ab152f1452f5fefde1f999ab42863731c" target="_top" xlink:title="Was the Window visible?">
<polygon fill="white" stroke="#666666" points="236.38,-22.25 130.38,-22.25 130.38,0 236.38,0 236.38,-22.25"/>
<text text-anchor="middle" x="183.38" y="-8.75" font-family="Helvetica,sans-Serif" font-size="10.00">window_was_visible</text>
</a>
</g>
</g>
<!-- Node1&#45;&gt;Node8 -->
<g id="edge5_Node000001_Node000008" class="edge">
<title>Node1&#45;&gt;Node8</title>
<g id="a_edge5_Node000001_Node000008"><a xlink:title=" ">
<path fill="none" stroke="#63b8ff" d="M53.86,-79.89C68.03,-66.57 93.39,-44.49 118.75,-31.12 121.63,-29.61 124.65,-28.18 127.73,-26.84"/>
<polygon fill="#63b8ff" stroke="#63b8ff" points="128.97,-30.12 137,-23.2 126.41,-23.6 128.97,-30.12"/>
</a>
</g>
</g>
</g>
</svg>
