<?xml version="1.0" encoding="UTF-8" standalone="no"?>
<!DOCTYPE svg PUBLIC "-//W3C//DTD SVG 1.1//EN"
 "http://www.w3.org/Graphics/SVG/1.1/DTD/svg11.dtd">
<!-- Generated by graphviz version 12.2.1 (20241206.2353)
 -->
<!-- Title: mutt_ch_iconv Pages: 1 -->
<svg width="252pt" height="110pt"
 viewBox="0.00 0.00 251.50 110.25" xmlns="http://www.w3.org/2000/svg" xmlns:xlink="http://www.w3.org/1999/xlink">
<g id="graph0" class="graph" transform="scale(1 1) rotate(0) translate(4 106.25)">
<title>mutt_ch_iconv</title>
<!-- Node1 -->
<g id="Node000001" class="node">
<title>Node1</title>
<g id="a_Node000001"><a xlink:title="Change the encoding of a string.">
<polygon fill="#999999" stroke="#666666" points="243.5,-62.25 161.5,-62.25 161.5,-40 243.5,-40 243.5,-62.25"/>
<text text-anchor="middle" x="202.5" y="-48.75" font-family="Helvetica,sans-Serif" font-size="10.00">mutt_ch_iconv</text>
</a>
</g>
</g>
<!-- Node2 -->
<g id="Node000002" class="node">
<title>Node2</title>
<g id="a_Node000002"><a xlink:href="handler_8c.html#a3bb2ea87bd5c2324f5e7aea78609ad2b" target="_top" xlink:title="Convert text and write it to a file.">
<polygon fill="#fff0f0" stroke="red" points="109.75,-102.25 15.75,-102.25 15.75,-80 109.75,-80 109.75,-102.25"/>
<text text-anchor="middle" x="62.75" y="-88.75" font-family="Helvetica,sans-Serif" font-size="10.00">convert_to_state</text>
</a>
</g>
</g>
<!-- Node1&#45;&gt;Node2 -->
<g id="edge1_Node000001_Node000002" class="edge">
<title>Node1&#45;&gt;Node2</title>
<g id="a_edge1_Node000001_Node000002"><a xlink:title=" ">
<path fill="none" stroke="#63b8ff" d="M150.62,-65.9C135.07,-70.42 118.2,-75.31 103.5,-79.58"/>
<polygon fill="#63b8ff" stroke="#63b8ff" points="151.58,-69.27 160.2,-63.12 149.62,-62.54 151.58,-69.27"/>
</a>
</g>
</g>
<!-- Node781 -->
<g id="Node000781" class="node">
<title>Node781</title>
<g id="a_Node000781"><a xlink:href="mutt_2charset_8c.html#a6304403ed915a40228aeda4082920a42" target="_top" xlink:title="Convert a string between encodings.">
<polygon fill="#fff0f0" stroke="red" points="125.5,-62.25 0,-62.25 0,-40 125.5,-40 125.5,-62.25"/>
<text text-anchor="middle" x="62.75" y="-48.75" font-family="Helvetica,sans-Serif" font-size="10.00">mutt_ch_convert_string</text>
</a>
</g>
</g>
<!-- Node1&#45;&gt;Node781 -->
<g id="edge2_Node000001_Node000781" class="edge">
<title>Node1&#45;&gt;Node781</title>
<g id="a_edge2_Node000001_Node000781"><a xlink:title=" ">
<path fill="none" stroke="#63b8ff" d="M150,-51.12C142.11,-51.12 133.89,-51.12 125.79,-51.12"/>
<polygon fill="#63b8ff" stroke="#63b8ff" points="149.77,-54.63 159.77,-51.13 149.77,-47.63 149.77,-54.63"/>
</a>
</g>
</g>
<!-- Node976 -->
<g id="Node000976" class="node">
<title>Node976</title>
<g id="a_Node000976"><a xlink:href="mutt_2charset_8c.html#a90191f2589de2c605dd8c13b496ad3e1" target="_top" xlink:title="Convert a file&#39;s character set.">
<polygon fill="#fff0f0" stroke="red" points="112.38,-22.25 13.12,-22.25 13.12,0 112.38,0 112.38,-22.25"/>
<text text-anchor="middle" x="62.75" y="-8.75" font-family="Helvetica,sans-Serif" font-size="10.00">mutt_ch_fgetconv</text>
</a>
</g>
</g>
<!-- Node1&#45;&gt;Node976 -->
<g id="edge3_Node000001_Node000976" class="edge">
<title>Node1&#45;&gt;Node976</title>
<g id="a_edge3_Node000001_Node000976"><a xlink:title=" ">
<path fill="none" stroke="#63b8ff" d="M150.62,-36.35C135.07,-31.83 118.2,-26.94 103.5,-22.67"/>
<polygon fill="#63b8ff" stroke="#63b8ff" points="149.62,-39.71 160.2,-39.13 151.58,-32.98 149.62,-39.71"/>
</a>
</g>
</g>
</g>
</svg>
