<?xml version="1.0" encoding="UTF-8" standalone="no"?>
<!DOCTYPE svg PUBLIC "-//W3C//DTD SVG 1.1//EN"
 "http://www.w3.org/Graphics/SVG/1.1/DTD/svg11.dtd">
<!-- Generated by graphviz version 2.40.1 (20161225.0304)
 -->
<!-- Title: mutt_log_set_level Pages: 1 -->
<svg width="293pt" height="104pt"
 viewBox="0.00 0.00 293.00 104.00" xmlns="http://www.w3.org/2000/svg" xmlns:xlink="http://www.w3.org/1999/xlink">
<g id="graph0" class="graph" transform="scale(1 1) rotate(0) translate(4 100)">
<title>mutt_log_set_level</title>
<polygon fill="#ffffff" stroke="transparent" points="-4,4 -4,-100 289,-100 289,4 -4,4"/>
<!-- Node1931 -->
<g id="node1" class="node">
<title>Node1931</title>
<polygon fill="#bfbfbf" stroke="#000000" points="0,-38.5 0,-57.5 110,-57.5 110,-38.5 0,-38.5"/>
<text text-anchor="middle" x="55" y="-45.5" font-family="Helvetica,sans-Serif" font-size="10.00" fill="#000000">mutt_log_set_level</text>
</g>
<!-- Node1932 -->
<g id="node2" class="node">
<title>Node1932</title>
<g id="a_node2"><a xlink:href="mutt__logging_8c.html#ad4f467432144a2a9f23e60eb2af9c5c2" target="_top" xlink:title="Change the logging file. ">
<polygon fill="#ffffff" stroke="#ff0000" points="165,-76.5 165,-95.5 266,-95.5 266,-76.5 165,-76.5"/>
<text text-anchor="middle" x="215.5" y="-83.5" font-family="Helvetica,sans-Serif" font-size="10.00" fill="#000000">mutt_log_set_file</text>
</a>
</g>
</g>
<!-- Node1931&#45;&gt;Node1932 -->
<g id="edge1" class="edge">
<title>Node1931&#45;&gt;Node1932</title>
<path fill="none" stroke="#191970" d="M95.5009,-57.589C116.6806,-62.6035 142.8022,-68.7881 165.2604,-74.1053"/>
<polygon fill="#191970" stroke="#191970" points="164.7529,-77.5818 175.2903,-76.4799 166.3657,-70.7701 164.7529,-77.5818"/>
</g>
<!-- Node3817 -->
<g id="node3" class="node">
<title>Node3817</title>
<g id="a_node3"><a xlink:href="logging_8c.html#a33cfab3517292724699130f67acf6b78" target="_top" xlink:title="Set the logging level. ">
<polygon fill="#ffffff" stroke="#ff0000" points="165,-38.5 165,-57.5 266,-57.5 266,-38.5 165,-38.5"/>
<text text-anchor="middle" x="215.5" y="-45.5" font-family="Helvetica,sans-Serif" font-size="10.00" fill="#000000">log_file_set_level</text>
</a>
</g>
</g>
<!-- Node1931&#45;&gt;Node3817 -->
<g id="edge2" class="edge">
<title>Node1931&#45;&gt;Node3817</title>
<path fill="none" stroke="#191970" d="M110.235,-48C124.4636,-48 139.8579,-48 154.367,-48"/>
<polygon fill="#191970" stroke="#191970" points="154.7461,-51.5001 164.7461,-48 154.746,-44.5001 154.7461,-51.5001"/>
</g>
<!-- Node2799 -->
<g id="node4" class="node">
<title>Node2799</title>
<g id="a_node4"><a xlink:href="config_2subset_8c.html#a6ee598a96defed645b11cad6e6cb6512" target="_top" xlink:title="Natively set the value of a string config item. ">
<polygon fill="#ffffff" stroke="#ff0000" points="146,-.5 146,-19.5 285,-19.5 285,-.5 146,-.5"/>
<text text-anchor="middle" x="215.5" y="-7.5" font-family="Helvetica,sans-Serif" font-size="10.00" fill="#000000">cs_subset_str_native_set</text>
</a>
</g>
</g>
<!-- Node1931&#45;&gt;Node2799 -->
<g id="edge3" class="edge">
<title>Node1931&#45;&gt;Node2799</title>
<path fill="none" stroke="#191970" d="M95.5009,-38.411C116.6806,-33.3965 142.8022,-27.2119 165.2604,-21.8947"/>
<polygon fill="#191970" stroke="#191970" points="166.3657,-25.2299 175.2903,-19.5201 164.7529,-18.4182 166.3657,-25.2299"/>
</g>
</g>
</svg>
