<?xml version="1.0" encoding="UTF-8" standalone="no"?>
<!DOCTYPE svg PUBLIC "-//W3C//DTD SVG 1.1//EN"
 "http://www.w3.org/Graphics/SVG/1.1/DTD/svg11.dtd">
<!-- Generated by graphviz version 2.44.0 (0)
 -->
<!-- Title: mutt_expand_path_regex Pages: 1 -->
<svg width="433pt" height="230pt"
 viewBox="0.00 0.00 433.00 230.00" xmlns="http://www.w3.org/2000/svg" xmlns:xlink="http://www.w3.org/1999/xlink">
<g id="graph0" class="graph" transform="scale(1 1) rotate(0) translate(4 226)">
<title>mutt_expand_path_regex</title>
<polygon fill="white" stroke="transparent" points="-4,4 -4,-226 429,-226 429,4 -4,4"/>
<!-- Node1 -->
<g id="node1" class="node">
<title>Node1</title>
<g id="a_node1"><a xlink:title="Create the canonical path (with regex char escaping)">
<polygon fill="#bfbfbf" stroke="black" points="0,-98.5 0,-117.5 126,-117.5 126,-98.5 0,-98.5"/>
<text text-anchor="middle" x="63" y="-105.5" font-family="Helvetica" font-size="10.00">mutt_expand_path_regex</text>
</a>
</g>
</g>
<!-- Node2 -->
<g id="node2" class="node">
<title>Node2</title>
<g id="a_node2"><a xlink:href="buffer_8c.html#a958e87c1ae9de976eb76f759dbaaa601" target="_top" xlink:title="Add a string to a Buffer.">
<polygon fill="white" stroke="red" points="164,-202.5 164,-221.5 262,-221.5 262,-202.5 164,-202.5"/>
<text text-anchor="middle" x="213" y="-209.5" font-family="Helvetica" font-size="10.00">mutt_buffer_addstr</text>
</a>
</g>
</g>
<!-- Node1&#45;&gt;Node2 -->
<g id="edge1" class="edge">
<title>Node1&#45;&gt;Node2</title>
<path fill="none" stroke="midnightblue" d="M73.97,-117.5C91.02,-133.44 127.34,-165.97 162,-188 167.55,-191.52 173.69,-194.88 179.72,-197.9"/>
<polygon fill="midnightblue" stroke="midnightblue" points="178.46,-201.17 188.99,-202.34 181.49,-194.86 178.46,-201.17"/>
</g>
<!-- Node9 -->
<g id="node3" class="node">
<title>Node9</title>
<g id="a_node3"><a xlink:href="muttlib_8c.html#a2fa448bbbf2c34fdf00ea41a699768af" target="_top" xlink:title="Create the canonical path (with regex char escaping)">
<polygon fill="white" stroke="red" points="162,-115 162,-145 264,-145 264,-115 162,-115"/>
<text text-anchor="start" x="170" y="-133" font-family="Helvetica" font-size="10.00">mutt_buffer_expand</text>
<text text-anchor="middle" x="213" y="-122" font-family="Helvetica" font-size="10.00">_path_regex</text>
</a>
</g>
</g>
<!-- Node1&#45;&gt;Node9 -->
<g id="edge2" class="edge">
<title>Node1&#45;&gt;Node9</title>
<path fill="none" stroke="midnightblue" d="M126.34,-117.27C134.76,-118.52 143.39,-119.8 151.78,-121.05"/>
<polygon fill="midnightblue" stroke="midnightblue" points="151.45,-124.54 161.86,-122.55 152.48,-117.61 151.45,-124.54"/>
</g>
<!-- Node47 -->
<g id="node4" class="node">
<title>Node47</title>
<g id="a_node4"><a xlink:href="pool_8c.html#a2129d5ea0085753afdd37cf62161845d" target="_top" xlink:title="Get a Buffer from the pool.">
<polygon fill="white" stroke="red" points="309,-139.5 309,-158.5 416,-158.5 416,-139.5 309,-139.5"/>
<text text-anchor="middle" x="362.5" y="-146.5" font-family="Helvetica" font-size="10.00">mutt_buffer_pool_get</text>
</a>
</g>
</g>
<!-- Node1&#45;&gt;Node47 -->
<g id="edge6" class="edge">
<title>Node1&#45;&gt;Node47</title>
<path fill="none" stroke="midnightblue" d="M78.51,-117.54C96.99,-129.06 130.35,-147.8 162,-155 206.91,-165.21 258.98,-163.2 298.65,-158.91"/>
<polygon fill="midnightblue" stroke="midnightblue" points="299.19,-162.37 308.72,-157.74 298.38,-155.42 299.19,-162.37"/>
</g>
<!-- Node52 -->
<g id="node5" class="node">
<title>Node52</title>
<g id="a_node5"><a xlink:href="pool_8c.html#a08b48e2ac8849341888ee7429cc5093c" target="_top" xlink:title="Free a Buffer from the pool.">
<polygon fill="white" stroke="red" points="300,-100.5 300,-119.5 425,-119.5 425,-100.5 300,-100.5"/>
<text text-anchor="middle" x="362.5" y="-107.5" font-family="Helvetica" font-size="10.00">mutt_buffer_pool_release</text>
</a>
</g>
</g>
<!-- Node1&#45;&gt;Node52 -->
<g id="edge7" class="edge">
<title>Node1&#45;&gt;Node52</title>
<path fill="none" stroke="midnightblue" d="M126.17,-106.4C165.65,-105.63 217.83,-105.05 264,-106 272.34,-106.17 281.08,-106.42 289.75,-106.72"/>
<polygon fill="midnightblue" stroke="midnightblue" points="289.76,-110.22 299.88,-107.09 290.01,-103.23 289.76,-110.22"/>
</g>
<!-- Node55 -->
<g id="node6" class="node">
<title>Node55</title>
<g id="a_node6"><a xlink:href="buffer_8h.html#a4aca040fb75bc1dfc086cbfbf14ac8cd" target="_top" xlink:title="Convert a buffer to a const char * &quot;string&quot;.">
<polygon fill="white" stroke="black" points="315,-59.5 315,-78.5 410,-78.5 410,-59.5 315,-59.5"/>
<text text-anchor="middle" x="362.5" y="-66.5" font-family="Helvetica" font-size="10.00">mutt_buffer_string</text>
</a>
</g>
</g>
<!-- Node1&#45;&gt;Node55 -->
<g id="edge8" class="edge">
<title>Node1&#45;&gt;Node55</title>
<path fill="none" stroke="midnightblue" d="M126,-99.87C178.58,-92.98 253.37,-83.17 304.48,-76.48"/>
<polygon fill="midnightblue" stroke="midnightblue" points="305.23,-79.91 314.69,-75.14 304.32,-72.97 305.23,-79.91"/>
</g>
<!-- Node30 -->
<g id="node7" class="node">
<title>Node30</title>
<g id="a_node7"><a xlink:href="mutt_2string_8c.html#ad20e00309de897a1e882fc7400335b83" target="_top" xlink:title="Copy a string into a buffer (guaranteeing NUL&#45;termination)">
<polygon fill="white" stroke="black" points="173.5,-0.5 173.5,-19.5 252.5,-19.5 252.5,-0.5 173.5,-0.5"/>
<text text-anchor="middle" x="213" y="-7.5" font-family="Helvetica" font-size="10.00">mutt_str_copy</text>
</a>
</g>
</g>
<!-- Node1&#45;&gt;Node30 -->
<g id="edge9" class="edge">
<title>Node1&#45;&gt;Node30</title>
<path fill="none" stroke="midnightblue" d="M75.23,-98.33C92.92,-83.39 128.68,-54.3 162,-34 167.72,-30.52 174.02,-27.15 180.17,-24.1"/>
<polygon fill="midnightblue" stroke="midnightblue" points="182.08,-27.07 189.6,-19.59 179.06,-20.75 182.08,-27.07"/>
</g>
<!-- Node9&#45;&gt;Node47 -->
<g id="edge3" class="edge">
<title>Node9&#45;&gt;Node47</title>
<path fill="none" stroke="midnightblue" d="M264.35,-136.49C275.45,-137.92 287.34,-139.45 298.86,-140.93"/>
<polygon fill="midnightblue" stroke="midnightblue" points="298.5,-144.41 308.86,-142.22 299.39,-137.47 298.5,-144.41"/>
</g>
<!-- Node9&#45;&gt;Node52 -->
<g id="edge4" class="edge">
<title>Node9&#45;&gt;Node52</title>
<path fill="none" stroke="midnightblue" d="M264.35,-123.17C272.57,-122.06 281.22,-120.89 289.83,-119.72"/>
<polygon fill="midnightblue" stroke="midnightblue" points="290.45,-123.17 299.89,-118.35 289.51,-116.23 290.45,-123.17"/>
</g>
<!-- Node9&#45;&gt;Node55 -->
<g id="edge5" class="edge">
<title>Node9&#45;&gt;Node55</title>
<path fill="none" stroke="midnightblue" d="M245.59,-114.92C261.73,-107.41 281.76,-98.38 300,-91 307.54,-87.95 315.68,-84.88 323.49,-82.04"/>
<polygon fill="midnightblue" stroke="midnightblue" points="324.91,-85.25 333.15,-78.59 322.55,-78.66 324.91,-85.25"/>
</g>
</g>
</svg>
