<?xml version="1.0" encoding="UTF-8" standalone="no"?>
<!DOCTYPE svg PUBLIC "-//W3C//DTD SVG 1.1//EN"
 "http://www.w3.org/Graphics/SVG/1.1/DTD/svg11.dtd">
<!-- Generated by graphviz version 2.44.0 (0)
 -->
<!-- Title: window_notify_all Pages: 1 -->
<svg width="217pt" height="46pt"
 viewBox="0.00 0.00 217.00 46.00" xmlns="http://www.w3.org/2000/svg" xmlns:xlink="http://www.w3.org/1999/xlink">
<g id="graph0" class="graph" transform="scale(1 1) rotate(0) translate(4 42)">
<title>window_notify_all</title>
<polygon fill="white" stroke="transparent" points="-4,4 -4,-42 213,-42 213,4 -4,4"/>
<!-- Node1 -->
<g id="node1" class="node">
<title>Node1</title>
<g id="a_node1"><a xlink:title="Notify observers of changes to a Window and its children.">
<polygon fill="#bfbfbf" stroke="black" points="0,-0.5 0,-19.5 94,-19.5 94,-0.5 0,-0.5"/>
<text text-anchor="middle" x="47" y="-7.5" font-family="Helvetica" font-size="10.00">window_notify_all</text>
</a>
</g>
</g>
<!-- Node1&#45;&gt;Node1 -->
<g id="edge2" class="edge">
<title>Node1&#45;&gt;Node1</title>
<path fill="none" stroke="midnightblue" d="M28.2,-19.76C19.05,-28.57 25.32,-38 47,-38 60.89,-38 68.46,-34.13 69.69,-29.03"/>
<polygon fill="midnightblue" stroke="midnightblue" points="72.9,-27.62 65.8,-19.76 66.44,-30.33 72.9,-27.62"/>
</g>
<!-- Node2 -->
<g id="node2" class="node">
<title>Node2</title>
<g id="a_node2"><a xlink:href="mutt__window_8c.html#a24a1cf059877c84faad07eae0f5aaa00" target="_top" xlink:title="Notify observers of changes to a Window.">
<polygon fill="white" stroke="red" points="130,-0.5 130,-19.5 209,-19.5 209,-0.5 130,-0.5"/>
<text text-anchor="middle" x="169.5" y="-7.5" font-family="Helvetica" font-size="10.00">window_notify</text>
</a>
</g>
</g>
<!-- Node1&#45;&gt;Node2 -->
<g id="edge1" class="edge">
<title>Node1&#45;&gt;Node2</title>
<path fill="none" stroke="midnightblue" d="M94.24,-10C102.55,-10 111.23,-10 119.61,-10"/>
<polygon fill="midnightblue" stroke="midnightblue" points="119.63,-13.5 129.63,-10 119.63,-6.5 119.63,-13.5"/>
</g>
</g>
</svg>
