<?xml version="1.0" encoding="UTF-8" standalone="no"?>
<!DOCTYPE svg PUBLIC "-//W3C//DTD SVG 1.1//EN"
 "http://www.w3.org/Graphics/SVG/1.1/DTD/svg11.dtd">
<!-- Generated by graphviz version 12.2.1 (20241206.2353)
 -->
<!-- Title: mutt_path_realpath Pages: 1 -->
<svg width="228pt" height="128pt"
 viewBox="0.00 0.00 228.25 128.25" xmlns="http://www.w3.org/2000/svg" xmlns:xlink="http://www.w3.org/1999/xlink">
<g id="graph0" class="graph" transform="scale(1 1) rotate(0) translate(4 124.25)">
<title>mutt_path_realpath</title>
<!-- Node1 -->
<g id="Node000001" class="node">
<title>Node1</title>
<g id="a_Node000001"><a xlink:title="Resolve path, unraveling symlinks.">
<polygon fill="#999999" stroke="#666666" points="106.75,-80.25 0,-80.25 0,-58 106.75,-58 106.75,-80.25"/>
<text text-anchor="middle" x="53.38" y="-66.75" font-family="Helvetica,sans-Serif" font-size="10.00">mutt_path_realpath</text>
</a>
</g>
</g>
<!-- Node2 -->
<g id="Node000002" class="node">
<title>Node2</title>
<g id="a_Node000002"><a xlink:href="buffer_8c.html#a4245e227baa2a9beb6991917404aab0d" target="_top" xlink:title="Is the Buffer empty?">
<polygon fill="#fff0f0" stroke="red" points="220.25,-120.25 142.75,-120.25 142.75,-98 220.25,-98 220.25,-120.25"/>
<text text-anchor="middle" x="181.5" y="-106.75" font-family="Helvetica,sans-Serif" font-size="10.00">buf_is_empty</text>
</a>
</g>
</g>
<!-- Node1&#45;&gt;Node2 -->
<g id="edge1_Node000001_Node000002" class="edge">
<title>Node1&#45;&gt;Node2</title>
<g id="a_edge1_Node000001_Node000002"><a xlink:title=" ">
<path fill="none" stroke="#63b8ff" d="M90.86,-80.69C104.06,-84.88 119.17,-89.67 133.17,-94.11"/>
<polygon fill="#63b8ff" stroke="#63b8ff" points="132.07,-97.44 142.66,-97.12 134.18,-90.76 132.07,-97.44"/>
</a>
</g>
</g>
<!-- Node5 -->
<g id="Node000005" class="node">
<title>Node5</title>
<g id="a_Node000005"><a xlink:href="buffer_8c.html#ac958acbd189e463a2c3bbc2f23aaeb1e" target="_top" xlink:title="Copy a string into a Buffer.">
<polygon fill="#fff0f0" stroke="red" points="213.5,-80.25 149.5,-80.25 149.5,-58 213.5,-58 213.5,-80.25"/>
<text text-anchor="middle" x="181.5" y="-66.75" font-family="Helvetica,sans-Serif" font-size="10.00">buf_strcpy</text>
</a>
</g>
</g>
<!-- Node1&#45;&gt;Node5 -->
<g id="edge2_Node000001_Node000005" class="edge">
<title>Node1&#45;&gt;Node5</title>
<g id="a_edge2_Node000001_Node000005"><a xlink:title=" ">
<path fill="none" stroke="#63b8ff" d="M107.13,-69.12C117.42,-69.12 128.08,-69.12 137.98,-69.12"/>
<polygon fill="#63b8ff" stroke="#63b8ff" points="137.68,-72.63 147.68,-69.13 137.68,-65.63 137.68,-72.63"/>
</a>
</g>
</g>
<!-- Node13 -->
<g id="Node000013" class="node">
<title>Node13</title>
<g id="a_Node000013"><a xlink:href="buffer_8h.html#a728ebc5a947b77c8d56db44ce553a7ab" target="_top" xlink:title="Convert a buffer to a const char * &quot;string&quot;.">
<polygon fill="white" stroke="#666666" points="213.12,-22.25 149.88,-22.25 149.88,0 213.12,0 213.12,-22.25"/>
<text text-anchor="middle" x="181.5" y="-8.75" font-family="Helvetica,sans-Serif" font-size="10.00">buf_string</text>
</a>
</g>
</g>
<!-- Node1&#45;&gt;Node13 -->
<g id="edge3_Node000001_Node000013" class="edge">
<title>Node1&#45;&gt;Node13</title>
<g id="a_edge3_Node000001_Node000013"><a xlink:title=" ">
<path fill="none" stroke="#63b8ff" d="M79.6,-57.53C98.33,-48.91 124.13,-37.05 144.95,-27.47"/>
<polygon fill="#63b8ff" stroke="#63b8ff" points="146.33,-30.69 153.95,-23.34 143.4,-24.33 146.33,-30.69"/>
</a>
</g>
</g>
<!-- Node13&#45;&gt;Node13 -->
<g id="edge4_Node000013_Node000013" class="edge">
<title>Node13&#45;&gt;Node13</title>
<g id="a_edge4_Node000013_Node000013"><a xlink:title=" ">
<path fill="none" stroke="#63b8ff" d="M160.58,-22.49C152.76,-31.28 159.73,-40.25 181.5,-40.25 193.41,-40.25 200.89,-37.57 203.94,-33.7"/>
<polygon fill="#63b8ff" stroke="#63b8ff" points="207.44,-33.42 202.62,-23.98 200.5,-34.36 207.44,-33.42"/>
</a>
</g>
</g>
</g>
</svg>
