<?xml version="1.0" encoding="UTF-8" standalone="no"?>
<!DOCTYPE svg PUBLIC "-//W3C//DTD SVG 1.1//EN"
 "http://www.w3.org/Graphics/SVG/1.1/DTD/svg11.dtd">
<!-- Generated by graphviz version 2.44.0 (0)
 -->
<!-- Title: menu_half_down Pages: 1 -->
<svg width="228pt" height="66pt"
 viewBox="0.00 0.00 228.00 66.00" xmlns="http://www.w3.org/2000/svg" xmlns:xlink="http://www.w3.org/1999/xlink">
<g id="graph0" class="graph" transform="scale(1 1) rotate(0) translate(4 62)">
<title>menu_half_down</title>
<polygon fill="white" stroke="transparent" points="-4,4 -4,-62 224,-62 224,4 -4,4"/>
<!-- Node1 -->
<g id="node1" class="node">
<title>Node1</title>
<g id="a_node1"><a xlink:title="Move the focus down half a page in the menu.">
<polygon fill="#bfbfbf" stroke="black" points="130,-19.5 130,-38.5 220,-38.5 220,-19.5 130,-19.5"/>
<text text-anchor="middle" x="175" y="-26.5" font-family="Helvetica" font-size="10.00">menu_half_down</text>
</a>
</g>
</g>
<!-- Node2 -->
<g id="node2" class="node">
<title>Node2</title>
<g id="a_node2"><a xlink:href="index_2lib_8h.html#aa6202cffa700d674df25a7c5c02554d0" target="_top" xlink:title="Display a list of emails.">
<polygon fill="white" stroke="red" points="0,-38.5 0,-57.5 94,-57.5 94,-38.5 0,-38.5"/>
<text text-anchor="middle" x="47" y="-45.5" font-family="Helvetica" font-size="10.00">mutt_index_menu</text>
</a>
</g>
</g>
<!-- Node1&#45;&gt;Node2 -->
<g id="edge1" class="edge">
<title>Node1&#45;&gt;Node2</title>
<path fill="none" stroke="midnightblue" d="M119.77,-37.18C111.32,-38.45 102.65,-39.76 94.4,-41"/>
<polygon fill="midnightblue" stroke="midnightblue" points="120.57,-40.6 129.93,-35.65 119.52,-33.68 120.57,-40.6"/>
</g>
<!-- Node23 -->
<g id="node3" class="node">
<title>Node23</title>
<g id="a_node3"><a xlink:href="mutt__menu_8h.html#a2a7161a4171307d15f2362f5d55dfdb1" target="_top" xlink:title="Menu event loop.">
<polygon fill="white" stroke="red" points="2.5,-0.5 2.5,-19.5 91.5,-19.5 91.5,-0.5 2.5,-0.5"/>
<text text-anchor="middle" x="47" y="-7.5" font-family="Helvetica" font-size="10.00">mutt_menu_loop</text>
</a>
</g>
</g>
<!-- Node1&#45;&gt;Node23 -->
<g id="edge2" class="edge">
<title>Node1&#45;&gt;Node23</title>
<path fill="none" stroke="midnightblue" d="M119.91,-20.84C110.53,-19.43 100.89,-17.98 91.83,-16.61"/>
<polygon fill="midnightblue" stroke="midnightblue" points="119.52,-24.32 129.93,-22.35 120.57,-17.4 119.52,-24.32"/>
</g>
</g>
</svg>
