<?xml version="1.0" encoding="UTF-8" standalone="no"?>
<!DOCTYPE svg PUBLIC "-//W3C//DTD SVG 1.1//EN"
 "http://www.w3.org/Graphics/SVG/1.1/DTD/svg11.dtd">
<!-- Generated by graphviz version 7.1.0 (0)
 -->
<!-- Title: mutt_config.c Pages: 1 -->
<svg width="602pt" height="192pt"
 viewBox="0.00 0.00 602.20 192.00" xmlns="http://www.w3.org/2000/svg" xmlns:xlink="http://www.w3.org/1999/xlink">
<g id="graph0" class="graph" transform="scale(1 1) rotate(0) translate(4 188)">
<title>mutt_config.c</title>
<!-- Node1 -->
<g id="node1" class="node">
<title>Node1</title>
<g id="a_node1"><a xlink:title="Definitions of config variables.">
<polygon fill="#999999" stroke="#666666" points="314.7,-184 234.7,-184 234.7,-165 314.7,-165 314.7,-184"/>
<text text-anchor="middle" x="274.7" y="-172" font-family="Helvetica,sans-Serif" font-size="10.00">mutt_config.c</text>
</a>
</g>
</g>
<!-- Node2 -->
<g id="node2" class="node">
<title>Node2</title>
<g id="a_node2"><a xlink:title=" ">
<polygon fill="#e0e0e0" stroke="#999999" points="69.7,-19 15.7,-19 15.7,0 69.7,0 69.7,-19"/>
<text text-anchor="middle" x="42.7" y="-7" font-family="Helvetica,sans-Serif" font-size="10.00">config.h</text>
</a>
</g>
</g>
<!-- Node1&#45;&gt;Node2 -->
<g id="edge1" class="edge">
<title>Node1&#45;&gt;Node2</title>
<path fill="none" stroke="#63b8ff" d="M234.43,-170.11C192.17,-165.34 124.64,-154.21 71.7,-129 36.3,-112.14 19.72,-109.33 2.7,-74 -5.41,-57.15 8.15,-39.23 21.63,-26.74"/>
<polygon fill="#63b8ff" stroke="#63b8ff" points="23.77,-29.52 29.1,-20.36 19.22,-24.19 23.77,-29.52"/>
</g>
<!-- Node3 -->
<g id="node3" class="node">
<title>Node3</title>
<g id="a_node3"><a xlink:title=" ">
<polygon fill="#e0e0e0" stroke="#999999" points="594.2,-129 539.2,-129 539.2,-110 594.2,-110 594.2,-129"/>
<text text-anchor="middle" x="566.7" y="-117" font-family="Helvetica,sans-Serif" font-size="10.00">stddef.h</text>
</a>
</g>
</g>
<!-- Node1&#45;&gt;Node3 -->
<g id="edge2" class="edge">
<title>Node1&#45;&gt;Node3</title>
<path fill="none" stroke="#63b8ff" d="M315.03,-166.62C364.49,-158.12 450.86,-143.04 524.7,-129 525.69,-128.81 526.7,-128.62 527.71,-128.42"/>
<polygon fill="#63b8ff" stroke="#63b8ff" points="528.09,-131.92 537.22,-126.55 526.73,-125.05 528.09,-131.92"/>
</g>
<!-- Node4 -->
<g id="node4" class="node">
<title>Node4</title>
<g id="a_node4"><a xlink:title=" ">
<polygon fill="#e0e0e0" stroke="#999999" points="300.7,-19 240.7,-19 240.7,0 300.7,0 300.7,-19"/>
<text text-anchor="middle" x="270.7" y="-7" font-family="Helvetica,sans-Serif" font-size="10.00">stdbool.h</text>
</a>
</g>
</g>
<!-- Node1&#45;&gt;Node4 -->
<g id="edge3" class="edge">
<title>Node1&#45;&gt;Node4</title>
<path fill="none" stroke="#63b8ff" d="M234.25,-170.73C205.75,-166.42 169.46,-155.66 150.7,-129 120.21,-85.66 192.81,-44.37 237.98,-23.9"/>
<polygon fill="#63b8ff" stroke="#63b8ff" points="239.11,-27.22 246.86,-19.99 236.3,-20.81 239.11,-27.22"/>
</g>
<!-- Node5 -->
<g id="node5" class="node">
<title>Node5</title>
<g id="a_node5"><a xlink:title=" ">
<polygon fill="#e0e0e0" stroke="#999999" points="300.7,-74 248.7,-74 248.7,-55 300.7,-55 300.7,-74"/>
<text text-anchor="middle" x="274.7" y="-62" font-family="Helvetica,sans-Serif" font-size="10.00">stdint.h</text>
</a>
</g>
</g>
<!-- Node1&#45;&gt;Node5 -->
<g id="edge4" class="edge">
<title>Node1&#45;&gt;Node5</title>
<path fill="none" stroke="#63b8ff" d="M274.7,-164.66C274.7,-147.57 274.7,-109.61 274.7,-85.92"/>
<polygon fill="#63b8ff" stroke="#63b8ff" points="278.2,-85.97 274.7,-75.97 271.2,-85.97 278.2,-85.97"/>
</g>
<!-- Node6 -->
<g id="node6" class="node">
<title>Node6</title>
<g id="a_node6"><a xlink:href="mutt_2lib_8h.html" target="_top" xlink:title="Convenience wrapper for the library headers.">
<polygon fill="#fff0f0" stroke="red" points="131.7,-74 69.7,-74 69.7,-55 131.7,-55 131.7,-74"/>
<text text-anchor="middle" x="100.7" y="-62" font-family="Helvetica,sans-Serif" font-size="10.00">mutt/lib.h</text>
</a>
</g>
</g>
<!-- Node1&#45;&gt;Node6 -->
<g id="edge5" class="edge">
<title>Node1&#45;&gt;Node6</title>
<path fill="none" stroke="#63b8ff" d="M234.36,-172.95C198.6,-170.24 147.4,-160.56 116.7,-129 105.54,-117.52 101.81,-99.44 100.73,-85.51"/>
<polygon fill="#63b8ff" stroke="#63b8ff" points="104.23,-85.57 100.38,-75.7 97.23,-85.81 104.23,-85.57"/>
</g>
<!-- Node55 -->
<g id="node7" class="node">
<title>Node55</title>
<g id="a_node7"><a xlink:href="config_2lib_8h.html" target="_top" xlink:title="Convenience wrapper for the config headers.">
<polygon fill="#fff0f0" stroke="red" points="424.7,-74 356.7,-74 356.7,-55 424.7,-55 424.7,-74"/>
<text text-anchor="middle" x="390.7" y="-62" font-family="Helvetica,sans-Serif" font-size="10.00">config/lib.h</text>
</a>
</g>
</g>
<!-- Node1&#45;&gt;Node55 -->
<g id="edge7" class="edge">
<title>Node1&#45;&gt;Node55</title>
<path fill="none" stroke="#63b8ff" d="M315.09,-170.3C342.77,-165.75 377.65,-154.88 395.7,-129 404.61,-116.23 402.21,-98.31 398.25,-84.76"/>
<polygon fill="#63b8ff" stroke="#63b8ff" points="401.67,-83.95 395.1,-75.64 395.05,-86.24 401.67,-83.95"/>
</g>
<!-- Node69 -->
<g id="node8" class="node">
<title>Node69</title>
<g id="a_node8"><a xlink:href="core_2lib_8h.html" target="_top" xlink:title="Convenience wrapper for the core headers.">
<polygon fill="#fff0f0" stroke="red" points="540.7,-74 480.7,-74 480.7,-55 540.7,-55 540.7,-74"/>
<text text-anchor="middle" x="510.7" y="-62" font-family="Helvetica,sans-Serif" font-size="10.00">core/lib.h</text>
</a>
</g>
</g>
<!-- Node1&#45;&gt;Node69 -->
<g id="edge9" class="edge">
<title>Node1&#45;&gt;Node69</title>
<path fill="none" stroke="#63b8ff" d="M314.9,-170.15C370.34,-164.74 466.31,-152.24 491.7,-129 503.78,-117.94 508.3,-99.56 509.94,-85.41"/>
<polygon fill="#63b8ff" stroke="#63b8ff" points="513.4,-86.09 510.64,-75.86 506.42,-85.58 513.4,-86.09"/>
</g>
<!-- Node79 -->
<g id="node9" class="node">
<title>Node79</title>
<g id="a_node9"><a xlink:href="init_8h.html" target="_top" xlink:title="Config/command parsing.">
<polygon fill="white" stroke="#666666" points="51.7,-74 11.7,-74 11.7,-55 51.7,-55 51.7,-74"/>
<text text-anchor="middle" x="31.7" y="-62" font-family="Helvetica,sans-Serif" font-size="10.00">init.h</text>
</a>
</g>
</g>
<!-- Node1&#45;&gt;Node79 -->
<g id="edge10" class="edge">
<title>Node1&#45;&gt;Node79</title>
<path fill="none" stroke="#63b8ff" d="M234.22,-168.73C197.81,-163.16 143.75,-151.66 101.7,-129 79.9,-117.25 59.47,-97.28 46.38,-82.87"/>
<polygon fill="#63b8ff" stroke="#63b8ff" points="49.12,-80.69 39.89,-75.48 43.86,-85.31 49.12,-80.69"/>
</g>
<!-- Node80 -->
<g id="node10" class="node">
<title>Node80</title>
<g id="a_node10"><a xlink:href="mutt__logging_8h.html" target="_top" xlink:title="NeoMutt Logging.">
<polygon fill="#fff0f0" stroke="red" points="246.2,-129 159.2,-129 159.2,-110 246.2,-110 246.2,-129"/>
<text text-anchor="middle" x="202.7" y="-117" font-family="Helvetica,sans-Serif" font-size="10.00">mutt_logging.h</text>
</a>
</g>
</g>
<!-- Node1&#45;&gt;Node80 -->
<g id="edge12" class="edge">
<title>Node1&#45;&gt;Node80</title>
<path fill="none" stroke="#63b8ff" d="M262.49,-164.51C251.88,-156.7 236.27,-145.21 223.66,-135.93"/>
<polygon fill="#63b8ff" stroke="#63b8ff" points="226.08,-133.36 215.96,-130.26 221.93,-139 226.08,-133.36"/>
</g>
<!-- Node81 -->
<g id="node11" class="node">
<title>Node81</title>
<g id="a_node11"><a xlink:href="mutt__thread_8h.html" target="_top" xlink:title="Create/manipulate threading in emails.">
<polygon fill="#fff0f0" stroke="red" points="386.2,-129 303.2,-129 303.2,-110 386.2,-110 386.2,-129"/>
<text text-anchor="middle" x="344.7" y="-117" font-family="Helvetica,sans-Serif" font-size="10.00">mutt_thread.h</text>
</a>
</g>
</g>
<!-- Node1&#45;&gt;Node81 -->
<g id="edge16" class="edge">
<title>Node1&#45;&gt;Node81</title>
<path fill="none" stroke="#63b8ff" d="M286.58,-164.51C296.8,-156.77 311.78,-145.43 323.97,-136.2"/>
<polygon fill="#63b8ff" stroke="#63b8ff" points="325.94,-139.1 331.8,-130.27 321.71,-133.52 325.94,-139.1"/>
</g>
<!-- Node82 -->
<g id="node12" class="node">
<title>Node82</title>
<g id="a_node12"><a xlink:href="mx_8h.html" target="_top" xlink:title="API for mailboxes.">
<polygon fill="white" stroke="#666666" points="482.7,-129 442.7,-129 442.7,-110 482.7,-110 482.7,-129"/>
<text text-anchor="middle" x="462.7" y="-117" font-family="Helvetica,sans-Serif" font-size="10.00">mx.h</text>
</a>
</g>
</g>
<!-- Node1&#45;&gt;Node82 -->
<g id="edge20" class="edge">
<title>Node1&#45;&gt;Node82</title>
<path fill="none" stroke="#63b8ff" d="M306.6,-164.51C341.42,-154.69 396.83,-139.07 431.41,-129.32"/>
<polygon fill="#63b8ff" stroke="#63b8ff" points="432.15,-132.75 440.83,-126.67 430.25,-126.01 432.15,-132.75"/>
</g>
<!-- Node6&#45;&gt;Node2 -->
<g id="edge6" class="edge">
<title>Node6&#45;&gt;Node2</title>
<path fill="none" stroke="#63b8ff" d="M90.86,-54.51C82.65,-47 70.72,-36.1 60.79,-27.03"/>
<polygon fill="#63b8ff" stroke="#63b8ff" points="63.26,-24.54 53.51,-20.38 58.54,-29.71 63.26,-24.54"/>
</g>
<!-- Node55&#45;&gt;Node4 -->
<g id="edge8" class="edge">
<title>Node55&#45;&gt;Node4</title>
<path fill="none" stroke="#63b8ff" d="M370.35,-54.51C351.36,-46.12 322.77,-33.5 301.08,-23.92"/>
<polygon fill="#63b8ff" stroke="#63b8ff" points="302.71,-20.81 292.14,-19.97 299.88,-27.21 302.71,-20.81"/>
</g>
<!-- Node79&#45;&gt;Node4 -->
<g id="edge11" class="edge">
<title>Node79&#45;&gt;Node4</title>
<path fill="none" stroke="#63b8ff" d="M51.93,-57.36C54.86,-56.53 57.85,-55.72 60.7,-55 118.67,-40.38 186.45,-26.61 228.98,-18.37"/>
<polygon fill="#63b8ff" stroke="#63b8ff" points="229.64,-21.8 238.79,-16.48 228.31,-14.93 229.64,-21.8"/>
</g>
<!-- Node80&#45;&gt;Node4 -->
<g id="edge13" class="edge">
<title>Node80&#45;&gt;Node4</title>
<path fill="none" stroke="#63b8ff" d="M207.51,-109.74C214.37,-97.37 227.49,-74.14 239.7,-55 245.4,-46.07 252.08,-36.4 257.77,-28.35"/>
<polygon fill="#63b8ff" stroke="#63b8ff" points="260.46,-30.62 263.43,-20.45 254.76,-26.55 260.46,-30.62"/>
</g>
<!-- Node80&#45;&gt;Node5 -->
<g id="edge14" class="edge">
<title>Node80&#45;&gt;Node5</title>
<path fill="none" stroke="#63b8ff" d="M214.92,-109.51C225.53,-101.7 241.14,-90.21 253.75,-80.93"/>
<polygon fill="#63b8ff" stroke="#63b8ff" points="255.47,-84 261.45,-75.26 251.32,-78.36 255.47,-84"/>
</g>
<!-- Node80&#45;&gt;Node6 -->
<g id="edge15" class="edge">
<title>Node80&#45;&gt;Node6</title>
<path fill="none" stroke="#63b8ff" d="M185.4,-109.51C169.63,-101.31 146.07,-89.07 127.8,-79.58"/>
<polygon fill="#63b8ff" stroke="#63b8ff" points="129.58,-76.56 119.09,-75.06 126.35,-82.77 129.58,-76.56"/>
</g>
<!-- Node81&#45;&gt;Node4 -->
<g id="edge17" class="edge">
<title>Node81&#45;&gt;Node4</title>
<path fill="none" stroke="#63b8ff" d="M340.52,-109.52C334.47,-96.88 322.57,-73.34 309.7,-55 302.93,-45.35 294.39,-35.4 287.03,-27.37"/>
<polygon fill="#63b8ff" stroke="#63b8ff" points="289.81,-25.22 280.41,-20.33 284.71,-30.01 289.81,-25.22"/>
</g>
<!-- Node81&#45;&gt;Node5 -->
<g id="edge18" class="edge">
<title>Node81&#45;&gt;Node5</title>
<path fill="none" stroke="#63b8ff" d="M332.83,-109.51C322.61,-101.77 307.63,-90.43 295.44,-81.2"/>
<polygon fill="#63b8ff" stroke="#63b8ff" points="297.69,-78.52 287.61,-75.27 293.47,-84.1 297.69,-78.52"/>
</g>
<!-- Node81&#45;&gt;Node55 -->
<g id="edge19" class="edge">
<title>Node81&#45;&gt;Node55</title>
<path fill="none" stroke="#63b8ff" d="M352.3,-109.75C358.59,-102.5 367.72,-91.98 375.5,-83.02"/>
<polygon fill="#63b8ff" stroke="#63b8ff" points="378.04,-85.43 381.95,-75.59 372.75,-80.84 378.04,-85.43"/>
</g>
<!-- Node82&#45;&gt;Node4 -->
<g id="edge21" class="edge">
<title>Node82&#45;&gt;Node4</title>
<path fill="none" stroke="#63b8ff" d="M461.14,-109.68C458.24,-95.93 450.7,-69.44 433.7,-55 399.52,-25.94 348,-15.72 312.06,-12.2"/>
<polygon fill="#63b8ff" stroke="#63b8ff" points="312.74,-8.75 302.49,-11.41 312.16,-15.72 312.74,-8.75"/>
</g>
<!-- Node82&#45;&gt;Node5 -->
<g id="edge22" class="edge">
<title>Node82&#45;&gt;Node5</title>
<path fill="none" stroke="#63b8ff" d="M442.23,-112.73C411.04,-103.94 351.16,-87.06 312.09,-76.04"/>
<polygon fill="#63b8ff" stroke="#63b8ff" points="313.2,-72.72 302.63,-73.37 311.3,-79.45 313.2,-72.72"/>
</g>
<!-- Node82&#45;&gt;Node55 -->
<g id="edge23" class="edge">
<title>Node82&#45;&gt;Node55</title>
<path fill="none" stroke="#63b8ff" d="M450.49,-109.51C439.88,-101.7 424.27,-90.21 411.66,-80.93"/>
<polygon fill="#63b8ff" stroke="#63b8ff" points="414.08,-78.36 403.96,-75.26 409.93,-84 414.08,-78.36"/>
</g>
<!-- Node82&#45;&gt;Node69 -->
<g id="edge24" class="edge">
<title>Node82&#45;&gt;Node69</title>
<path fill="none" stroke="#63b8ff" d="M470.63,-109.75C477.26,-102.43 486.92,-91.76 495.09,-82.74"/>
<polygon fill="#63b8ff" stroke="#63b8ff" points="497.47,-85.33 501.59,-75.56 492.28,-80.63 497.47,-85.33"/>
</g>
</g>
</svg>
