<?xml version="1.0" encoding="UTF-8" standalone="no"?>
<!DOCTYPE svg PUBLIC "-//W3C//DTD SVG 1.1//EN"
 "http://www.w3.org/Graphics/SVG/1.1/DTD/svg11.dtd">
<!-- Generated by graphviz version 2.40.1 (20161225.0304)
 -->
<!-- Title: mutt_str_atoi Pages: 1 -->
<svg width="586pt" height="811pt"
 viewBox="0.00 0.00 586.00 811.00" xmlns="http://www.w3.org/2000/svg" xmlns:xlink="http://www.w3.org/1999/xlink">
<g id="graph0" class="graph" transform="scale(1 1) rotate(0) translate(4 807)">
<title>mutt_str_atoi</title>
<polygon fill="#ffffff" stroke="transparent" points="-4,4 -4,-807 582,-807 582,4 -4,4"/>
<!-- Node3322 -->
<g id="node1" class="node">
<title>Node3322</title>
<polygon fill="#bfbfbf" stroke="#000000" points="0,-380.5 0,-399.5 82,-399.5 82,-380.5 0,-380.5"/>
<text text-anchor="middle" x="41" y="-387.5" font-family="Helvetica,sans-Serif" font-size="10.00" fill="#000000">mutt_str_atoi</text>
</g>
<!-- Node3323 -->
<g id="node2" class="node">
<title>Node3323</title>
<g id="a_node2"><a xlink:href="number_8c.html#a32215db83b015d56b493195cfb092165" target="_top" xlink:title="Set a Number by string &#45; Implements ConfigSetType::string_set() ">
<polygon fill="#ffffff" stroke="#000000" points="142,-783.5 142,-802.5 249,-802.5 249,-783.5 142,-783.5"/>
<text text-anchor="middle" x="195.5" y="-790.5" font-family="Helvetica,sans-Serif" font-size="10.00" fill="#000000">number_string_set</text>
</a>
</g>
</g>
<!-- Node3322&#45;&gt;Node3323 -->
<g id="edge1" class="edge">
<title>Node3322&#45;&gt;Node3323</title>
<path fill="none" stroke="#191970" d="M42.2361,-409.921C47.0486,-480.9837 66.8618,-720.6397 118,-774 124.4221,-780.7012 132.7912,-785.1962 141.6482,-788.1808"/>
<polygon fill="#191970" stroke="#191970" points="45.7118,-409.4328 41.569,-399.6815 38.7266,-409.8879 45.7118,-409.4328"/>
</g>
<!-- Node3324 -->
<g id="node3" class="node">
<title>Node3324</title>
<g id="a_node3"><a xlink:href="number_8c.html#a8d660979e628a6028b06e1fc7658f6dc" target="_top" xlink:title="Add to a Number by string &#45; Implements ConfigSetType::string_plus_equals() ">
<polygon fill="#ffffff" stroke="#000000" points="139,-734 139,-764 252,-764 252,-734 139,-734"/>
<text text-anchor="start" x="147" y="-752" font-family="Helvetica,sans-Serif" font-size="10.00" fill="#000000">number_string_plus</text>
<text text-anchor="middle" x="195.5" y="-741" font-family="Helvetica,sans-Serif" font-size="10.00" fill="#000000">_equals</text>
</a>
</g>
</g>
<!-- Node3322&#45;&gt;Node3324 -->
<g id="edge2" class="edge">
<title>Node3322&#45;&gt;Node3324</title>
<path fill="none" stroke="#191970" d="M42.9707,-409.755C49.7977,-474.3843 74.4341,-678.0667 118,-725 123.7495,-731.1939 131.0612,-735.8028 138.8868,-739.2294"/>
<polygon fill="#191970" stroke="#191970" points="46.4394,-409.2705 41.9334,-399.6816 39.4763,-409.9876 46.4394,-409.2705"/>
</g>
<!-- Node3325 -->
<g id="node4" class="node">
<title>Node3325</title>
<g id="a_node4"><a xlink:href="number_8c.html#a118b3ceca4da77fc7d33f6babc654969" target="_top" xlink:title="Subtract from a Number by string &#45; Implements ConfigSetType::string_minus_equals() ...">
<polygon fill="#ffffff" stroke="#000000" points="134.5,-685 134.5,-715 256.5,-715 256.5,-685 134.5,-685"/>
<text text-anchor="start" x="142.5" y="-703" font-family="Helvetica,sans-Serif" font-size="10.00" fill="#000000">number_string_minus</text>
<text text-anchor="middle" x="195.5" y="-692" font-family="Helvetica,sans-Serif" font-size="10.00" fill="#000000">_equals</text>
</a>
</g>
</g>
<!-- Node3322&#45;&gt;Node3325 -->
<g id="edge3" class="edge">
<title>Node3322&#45;&gt;Node3325</title>
<path fill="none" stroke="#191970" d="M43.8511,-409.7457C52.5934,-467.727 80.7081,-635.8672 118,-675 122.6815,-679.9126 128.3321,-683.8619 134.4237,-687.0364"/>
<polygon fill="#191970" stroke="#191970" points="47.2893,-409.0695 42.364,-399.6891 40.3646,-410.0935 47.2893,-409.0695"/>
</g>
<!-- Node3326 -->
<g id="node5" class="node">
<title>Node3326</title>
<g id="a_node5"><a xlink:href="regex3_8h.html#a7b0b955eaca9b1208ff025f30a98aef0" target="_top" xlink:title="Add a pattern and a template to a list. ">
<polygon fill="#ffffff" stroke="#ff0000" points="136,-646.5 136,-665.5 255,-665.5 255,-646.5 136,-646.5"/>
<text text-anchor="middle" x="195.5" y="-653.5" font-family="Helvetica,sans-Serif" font-size="10.00" fill="#000000">mutt_replacelist_add</text>
</a>
</g>
</g>
<!-- Node3322&#45;&gt;Node3326 -->
<g id="edge4" class="edge">
<title>Node3322&#45;&gt;Node3326</title>
<path fill="none" stroke="#191970" d="M44.5511,-409.6052C54.4738,-462.2786 84.0038,-605.0416 118,-637 123.1477,-641.8392 129.3203,-645.5043 135.9049,-648.2711"/>
<polygon fill="#191970" stroke="#191970" points="47.9507,-408.7411 42.6895,-399.5449 41.0676,-410.0148 47.9507,-408.7411"/>
</g>
<!-- Node3330 -->
<g id="node6" class="node">
<title>Node3330</title>
<g id="a_node6"><a xlink:href="parse_8h.html#a4ccd3c1628387aaf4e5b644988124e87" target="_top" xlink:title="Parse an email header. ">
<polygon fill="#ffffff" stroke="#ff0000" points="130,-608.5 130,-627.5 261,-627.5 261,-608.5 130,-608.5"/>
<text text-anchor="middle" x="195.5" y="-615.5" font-family="Helvetica,sans-Serif" font-size="10.00" fill="#000000">mutt_rfc822_parse_line</text>
</a>
</g>
</g>
<!-- Node3322&#45;&gt;Node3330 -->
<g id="edge5" class="edge">
<title>Node3322&#45;&gt;Node3330</title>
<path fill="none" stroke="#191970" d="M42.3062,-409.8224C46.1497,-451.4136 61.063,-548.137 118,-599 122.3392,-602.8763 127.3406,-605.992 132.6701,-608.4925"/>
<polygon fill="#191970" stroke="#191970" points="45.7777,-409.3259 41.4899,-399.6375 38.8001,-409.8852 45.7777,-409.3259"/>
</g>
<!-- Node3334 -->
<g id="node7" class="node">
<title>Node3334</title>
<g id="a_node7"><a xlink:href="parse_8c.html#ac20b6c54dff7929453167e30d9dcc1a3" target="_top" xlink:title="Parse a multipart structure. ">
<polygon fill="#ffffff" stroke="#ff0000" points="148.5,-570.5 148.5,-589.5 242.5,-589.5 242.5,-570.5 148.5,-570.5"/>
<text text-anchor="middle" x="195.5" y="-577.5" font-family="Helvetica,sans-Serif" font-size="10.00" fill="#000000">parse_multipart</text>
</a>
</g>
</g>
<!-- Node3322&#45;&gt;Node3334 -->
<g id="edge6" class="edge">
<title>Node3322&#45;&gt;Node3334</title>
<path fill="none" stroke="#191970" d="M44.0953,-409.614C50.804,-445.3767 70.1256,-521.1597 118,-561 126.6252,-568.1778 137.551,-572.7155 148.4581,-575.5653"/>
<polygon fill="#191970" stroke="#191970" points="47.4993,-408.759 42.3401,-399.5052 40.6025,-409.9566 47.4993,-408.759"/>
</g>
<!-- Node3828 -->
<g id="node8" class="node">
<title>Node3828</title>
<g id="a_node8"><a xlink:href="rfc2231_8h.html#a95eb6a825f563e45d47c100ea43954c6" target="_top" xlink:title="Decode a Parameter list. ">
<polygon fill="#ffffff" stroke="#ff0000" points="118,-532.5 118,-551.5 273,-551.5 273,-532.5 118,-532.5"/>
<text text-anchor="middle" x="195.5" y="-539.5" font-family="Helvetica,sans-Serif" font-size="10.00" fill="#000000">rfc2231_decode_parameters</text>
</a>
</g>
</g>
<!-- Node3322&#45;&gt;Node3828 -->
<g id="edge7" class="edge">
<title>Node3322&#45;&gt;Node3828</title>
<path fill="none" stroke="#191970" d="M46.878,-409.7217C56.6734,-439.0745 79.1918,-493.9115 118,-523 123.21,-526.9051 129.1192,-530.0167 135.2953,-532.4946"/>
<polygon fill="#191970" stroke="#191970" points="50.0991,-408.3003 43.7394,-399.8265 43.4267,-410.4168 50.0991,-408.3003"/>
</g>
<!-- Node3834 -->
<g id="node9" class="node">
<title>Node3834</title>
<g id="a_node9"><a xlink:href="url_8h.html#a10d35f5553c8e443c38257b69ca91075" target="_top" xlink:title="Fill in Url. ">
<polygon fill="#ffffff" stroke="#ff0000" points="164.5,-494.5 164.5,-513.5 226.5,-513.5 226.5,-494.5 164.5,-494.5"/>
<text text-anchor="middle" x="195.5" y="-501.5" font-family="Helvetica,sans-Serif" font-size="10.00" fill="#000000">url_parse</text>
</a>
</g>
</g>
<!-- Node3322&#45;&gt;Node3834 -->
<g id="edge8" class="edge">
<title>Node3322&#45;&gt;Node3834</title>
<path fill="none" stroke="#191970" d="M52.1371,-408.3701C65.3934,-428.7317 89.3739,-461.1755 118,-480 131.887,-489.1321 149.4379,-494.9447 164.3244,-498.5576"/>
<polygon fill="#191970" stroke="#191970" points="54.9669,-406.296 46.67,-399.7072 49.0472,-410.0319 54.9669,-406.296"/>
</g>
<!-- Node3874 -->
<g id="node10" class="node">
<title>Node3874</title>
<g id="a_node10"><a xlink:href="notmuch_8c.html#aadf35f05822c83460a610fc08ee2711d" target="_top" xlink:title="Check the Mailbox statistics &#45; Implements MxOps::mbox_check_stats() ">
<polygon fill="#ffffff" stroke="#000000" points="309,-475.5 309,-494.5 437,-494.5 437,-475.5 309,-475.5"/>
<text text-anchor="middle" x="373" y="-482.5" font-family="Helvetica,sans-Serif" font-size="10.00" fill="#000000">nm_mbox_check_stats</text>
</a>
</g>
</g>
<!-- Node3322&#45;&gt;Node3874 -->
<g id="edge18" class="edge">
<title>Node3322&#45;&gt;Node3874</title>
<path fill="none" stroke="#191970" d="M58.6676,-407.0802C73.3372,-420.2106 95.3914,-437.6382 118,-447 179.6182,-472.5148 255.8929,-481.2017 308.8892,-484.006"/>
<polygon fill="#191970" stroke="#191970" points="60.6563,-404.1526 50.9353,-399.9392 55.9071,-409.2951 60.6563,-404.1526"/>
</g>
<!-- Node3878 -->
<g id="node11" class="node">
<title>Node3878</title>
<g id="a_node11"><a xlink:href="color_8c.html#abdec1e86d5a9b056b36c3618e39eec77" target="_top" xlink:title="Identify a colour object. ">
<polygon fill="#ffffff" stroke="#ff0000" points="156,-418.5 156,-437.5 235,-437.5 235,-418.5 156,-418.5"/>
<text text-anchor="middle" x="195.5" y="-425.5" font-family="Helvetica,sans-Serif" font-size="10.00" fill="#000000">parse_object</text>
</a>
</g>
</g>
<!-- Node3322&#45;&gt;Node3878 -->
<g id="edge10" class="edge">
<title>Node3322&#45;&gt;Node3878</title>
<path fill="none" stroke="#191970" d="M89.9521,-402.04C111.5365,-407.3488 136.541,-413.4988 156.7935,-418.4799"/>
<polygon fill="#191970" stroke="#191970" points="90.5334,-398.5787 79.9869,-399.589 88.8615,-405.3762 90.5334,-398.5787"/>
</g>
<!-- Node3341 -->
<g id="node12" class="node">
<title>Node3341</title>
<g id="a_node12"><a xlink:href="index_8h.html#aa6202cffa700d674df25a7c5c02554d0" target="_top" xlink:title="Display a list of emails. ">
<polygon fill="#ffffff" stroke="#ff0000" points="473,-247.5 473,-266.5 578,-266.5 578,-247.5 473,-247.5"/>
<text text-anchor="middle" x="525.5" y="-254.5" font-family="Helvetica,sans-Serif" font-size="10.00" fill="#000000">mutt_index_menu</text>
</a>
</g>
</g>
<!-- Node3322&#45;&gt;Node3341 -->
<g id="edge11" class="edge">
<title>Node3322&#45;&gt;Node3341</title>
<path fill="none" stroke="#191970" d="M92.4124,-390.7812C139.9861,-390.338 212.3067,-386.6852 273,-371 367.2994,-346.6298 470.4049,-289.4836 509.3813,-266.6626"/>
<polygon fill="#191970" stroke="#191970" points="92.3371,-387.2814 82.3543,-390.8304 92.3714,-394.2813 92.3371,-387.2814"/>
</g>
<!-- Node3885 -->
<g id="node13" class="node">
<title>Node3885</title>
<g id="a_node13"><a xlink:href="maildir_2private_8h.html#ab6aaba48e8965ae7147d7bb16c9be255" target="_top" xlink:title="Update sequence numbers. ">
<polygon fill="#ffffff" stroke="#ff0000" points="131.5,-342.5 131.5,-361.5 259.5,-361.5 259.5,-342.5 131.5,-342.5"/>
<text text-anchor="middle" x="195.5" y="-349.5" font-family="Helvetica,sans-Serif" font-size="10.00" fill="#000000">mh_update_sequences</text>
</a>
</g>
</g>
<!-- Node3322&#45;&gt;Node3885 -->
<g id="edge12" class="edge">
<title>Node3322&#45;&gt;Node3885</title>
<path fill="none" stroke="#191970" d="M89.9521,-377.96C111.5365,-372.6512 136.541,-366.5012 156.7935,-361.5201"/>
<polygon fill="#191970" stroke="#191970" points="88.8615,-374.6238 79.9869,-380.411 90.5334,-381.4213 88.8615,-374.6238"/>
</g>
<!-- Node3886 -->
<g id="node14" class="node">
<title>Node3886</title>
<g id="a_node14"><a xlink:href="mh_8c.html#a5751b48baf38d0d29d2b2db6f05c1e9e" target="_top" xlink:title="Parse a number, or number range. ">
<polygon fill="#ffffff" stroke="#ff0000" points="149.5,-304.5 149.5,-323.5 241.5,-323.5 241.5,-304.5 149.5,-304.5"/>
<text text-anchor="middle" x="195.5" y="-311.5" font-family="Helvetica,sans-Serif" font-size="10.00" fill="#000000">mh_read_token</text>
</a>
</g>
</g>
<!-- Node3322&#45;&gt;Node3886 -->
<g id="edge13" class="edge">
<title>Node3322&#45;&gt;Node3886</title>
<path fill="none" stroke="#191970" d="M58.9156,-373.4815C73.7259,-360.6699 95.8483,-343.3969 118,-333 127.7818,-328.4089 138.7974,-324.8517 149.387,-322.1245"/>
<polygon fill="#191970" stroke="#191970" points="56.2503,-371.1673 51.0955,-380.4236 60.8975,-376.4022 56.2503,-371.1673"/>
</g>
<!-- Node3889 -->
<g id="node15" class="node">
<title>Node3889</title>
<g id="a_node15"><a xlink:href="maildir_2private_8h.html#a6be92ed225620a7b460bcbe0be0d3e8e" target="_top" xlink:title="Update our record of flags. ">
<polygon fill="#ffffff" stroke="#ff0000" points="140,-266.5 140,-285.5 251,-285.5 251,-266.5 140,-266.5"/>
<text text-anchor="middle" x="195.5" y="-273.5" font-family="Helvetica,sans-Serif" font-size="10.00" fill="#000000">mh_update_maildir</text>
</a>
</g>
</g>
<!-- Node3322&#45;&gt;Node3889 -->
<g id="edge14" class="edge">
<title>Node3322&#45;&gt;Node3889</title>
<path fill="none" stroke="#191970" d="M50.9179,-371.5707C63.5736,-349.8641 87.524,-314.3218 118,-295 124.669,-290.7719 132.2103,-287.4846 139.9049,-284.9289"/>
<polygon fill="#191970" stroke="#191970" points="47.7683,-370.0309 45.915,-380.4624 53.869,-373.4635 47.7683,-370.0309"/>
</g>
<!-- Node3890 -->
<g id="node16" class="node">
<title>Node3890</title>
<g id="a_node16"><a xlink:href="menu_8c.html#a0e8d3dd05e8b9a6dcc0dd98f89568e1e" target="_top" xlink:title="Jump to another item in the menu. ">
<polygon fill="#ffffff" stroke="#ff0000" points="158.5,-228.5 158.5,-247.5 232.5,-247.5 232.5,-228.5 158.5,-228.5"/>
<text text-anchor="middle" x="195.5" y="-235.5" font-family="Helvetica,sans-Serif" font-size="10.00" fill="#000000">menu_jump</text>
</a>
</g>
</g>
<!-- Node3322&#45;&gt;Node3890 -->
<g id="edge15" class="edge">
<title>Node3322&#45;&gt;Node3890</title>
<path fill="none" stroke="#191970" d="M46.878,-370.2783C56.6734,-340.9255 79.1918,-286.0885 118,-257 129.5285,-248.3589 144.4806,-243.6029 158.172,-241.0016"/>
<polygon fill="#191970" stroke="#191970" points="43.4267,-369.5832 43.7394,-380.1735 50.0991,-371.6997 43.4267,-369.5832"/>
</g>
<!-- Node3891 -->
<g id="node17" class="node">
<title>Node3891</title>
<g id="a_node17"><a xlink:href="gnupgparse_8c.html#aa1832fc7f69c3c7e81ea84eef15adf5c" target="_top" xlink:title="Parse the &#39;pub&#39; line from the pgp output. ">
<polygon fill="#ffffff" stroke="#ff0000" points="150.5,-190.5 150.5,-209.5 240.5,-209.5 240.5,-190.5 150.5,-190.5"/>
<text text-anchor="middle" x="195.5" y="-197.5" font-family="Helvetica,sans-Serif" font-size="10.00" fill="#000000">parse_pub_line</text>
</a>
</g>
</g>
<!-- Node3322&#45;&gt;Node3891 -->
<g id="edge16" class="edge">
<title>Node3322&#45;&gt;Node3891</title>
<path fill="none" stroke="#191970" d="M44.0953,-370.386C50.804,-334.6233 70.1256,-258.8403 118,-219 127.1576,-211.3792 138.9087,-206.7343 150.4772,-203.9261"/>
<polygon fill="#191970" stroke="#191970" points="40.6025,-370.0434 42.3401,-380.4948 47.4993,-371.241 40.6025,-370.0434"/>
</g>
<!-- Node3893 -->
<g id="node18" class="node">
<title>Node3893</title>
<g id="a_node18"><a xlink:href="notmuch_8c.html#a95530396a63e131b06f6f8fe9da6b1a6" target="_top" xlink:title="builds the notmuch vfolder search string ">
<polygon fill="#ffffff" stroke="#ff0000" points="146.5,-152.5 146.5,-171.5 244.5,-171.5 244.5,-152.5 146.5,-152.5"/>
<text text-anchor="middle" x="195.5" y="-159.5" font-family="Helvetica,sans-Serif" font-size="10.00" fill="#000000">get_query_string</text>
</a>
</g>
</g>
<!-- Node3322&#45;&gt;Node3893 -->
<g id="edge17" class="edge">
<title>Node3322&#45;&gt;Node3893</title>
<path fill="none" stroke="#191970" d="M42.3062,-370.1776C46.1497,-328.5864 61.063,-231.863 118,-181 125.9551,-173.8935 136.1361,-169.3431 146.4843,-166.4541"/>
<polygon fill="#191970" stroke="#191970" points="38.8001,-370.1148 41.4899,-380.3625 45.7777,-370.6741 38.8001,-370.1148"/>
</g>
<!-- Node3896 -->
<g id="node19" class="node">
<title>Node3896</title>
<g id="a_node19"><a xlink:href="resize_8c.html#a8d99fe6b2da016d237243f31e9403bf6" target="_top" xlink:title="Use an ioctl to get the window size. ">
<polygon fill="#ffffff" stroke="#000000" points="144,-114.5 144,-133.5 247,-133.5 247,-114.5 144,-114.5"/>
<text text-anchor="middle" x="195.5" y="-121.5" font-family="Helvetica,sans-Serif" font-size="10.00" fill="#000000">mutt_get_winsize</text>
</a>
</g>
</g>
<!-- Node3322&#45;&gt;Node3896 -->
<g id="edge19" class="edge">
<title>Node3322&#45;&gt;Node3896</title>
<path fill="none" stroke="#191970" d="M44.5511,-370.3948C54.4738,-317.7214 84.0038,-174.9584 118,-143 125.1665,-136.2631 134.319,-131.8016 143.8048,-128.8716"/>
<polygon fill="#191970" stroke="#191970" points="41.0676,-369.9852 42.6895,-380.4551 47.9507,-371.2589 41.0676,-369.9852"/>
</g>
<!-- Node3897 -->
<g id="node20" class="node">
<title>Node3897</title>
<g id="a_node20"><a xlink:href="resize_8c.html#a1f18053a2fadd1f5c2f45382e3165dcb" target="_top" xlink:title="Update NeoMutt&#39;s opinion about the window size (CURSES) ">
<polygon fill="#ffffff" stroke="#ff0000" points="317,-114.5 317,-133.5 429,-133.5 429,-114.5 317,-114.5"/>
<text text-anchor="middle" x="373" y="-121.5" font-family="Helvetica,sans-Serif" font-size="10.00" fill="#000000">mutt_resize_screen</text>
</a>
</g>
</g>
<!-- Node3322&#45;&gt;Node3897 -->
<g id="edge23" class="edge">
<title>Node3322&#45;&gt;Node3897</title>
<path fill="none" stroke="#191970" d="M43.2797,-370.0672C50.5035,-310.8316 74.9849,-137.9358 118,-105 189.0243,-50.6182 306.2238,-93.6165 352.9062,-114.3891"/>
<polygon fill="#191970" stroke="#191970" points="39.7655,-369.9813 42.0646,-380.3237 46.7168,-370.8049 39.7655,-369.9813"/>
</g>
<!-- Node3925 -->
<g id="node21" class="node">
<title>Node3925</title>
<g id="a_node21"><a xlink:href="score_8h.html#a5515276a4464f89bb49a8495cbf4c1f6" target="_top" xlink:title="Parse the &#39;score&#39; command &#45; Implements Command::parse() ">
<polygon fill="#ffffff" stroke="#000000" points="143.5,-38.5 143.5,-57.5 247.5,-57.5 247.5,-38.5 143.5,-38.5"/>
<text text-anchor="middle" x="195.5" y="-45.5" font-family="Helvetica,sans-Serif" font-size="10.00" fill="#000000">mutt_parse_score</text>
</a>
</g>
</g>
<!-- Node3322&#45;&gt;Node3925 -->
<g id="edge24" class="edge">
<title>Node3322&#45;&gt;Node3925</title>
<path fill="none" stroke="#191970" d="M43.2089,-370.4458C50.6129,-308.2126 76.4498,-116.2426 118,-72 124.8461,-64.7102 133.8561,-59.6179 143.303,-56.0649"/>
<polygon fill="#191970" stroke="#191970" points="39.7193,-370.1542 42.0413,-380.4915 46.6725,-370.9625 39.7193,-370.1542"/>
</g>
<!-- Node3926 -->
<g id="node22" class="node">
<title>Node3926</title>
<g id="a_node22"><a xlink:href="smtp_8c.html#aedbf8f3746e4eb339d1f6980c9469068" target="_top" xlink:title="Is the is a valid SMTP return code? ">
<polygon fill="#ffffff" stroke="#ff0000" points="146,-.5 146,-19.5 245,-19.5 245,-.5 146,-.5"/>
<text text-anchor="middle" x="195.5" y="-7.5" font-family="Helvetica,sans-Serif" font-size="10.00" fill="#000000">valid_smtp_code</text>
</a>
</g>
</g>
<!-- Node3322&#45;&gt;Node3926 -->
<g id="edge25" class="edge">
<title>Node3322&#45;&gt;Node3926</title>
<path fill="none" stroke="#191970" d="M42.5221,-369.9557C48.1216,-301.5322 69.8065,-78.6749 118,-29 125.4277,-21.344 135.3986,-16.5746 145.7107,-13.648"/>
<polygon fill="#191970" stroke="#191970" points="39.01,-369.9718 41.7098,-380.2169 45.9882,-370.5243 39.01,-369.9718"/>
</g>
<!-- Node3834&#45;&gt;Node3874 -->
<g id="edge9" class="edge">
<title>Node3834&#45;&gt;Node3874</title>
<path fill="none" stroke="#191970" d="M236.8844,-499.5701C258.2971,-497.2781 284.913,-494.429 308.9145,-491.8599"/>
<polygon fill="#191970" stroke="#191970" points="236.3955,-496.1024 226.8248,-500.6469 237.1406,-503.0626 236.3955,-496.1024"/>
</g>
<!-- Node3896&#45;&gt;Node3897 -->
<g id="edge20" class="edge">
<title>Node3896&#45;&gt;Node3897</title>
<path fill="none" stroke="#191970" d="M257.5067,-117.5301C276.7827,-117.1147 297.9153,-117.1613 316.7741,-117.6702"/>
<polygon fill="#191970" stroke="#191970" points="257.2217,-114.0363 247.3175,-117.7989 257.4064,-121.0339 257.2217,-114.0363"/>
</g>
<!-- Node3897&#45;&gt;Node3341 -->
<g id="edge21" class="edge">
<title>Node3897&#45;&gt;Node3341</title>
<path fill="none" stroke="#191970" d="M391.7346,-140.339C423.788,-168.2938 488.2065,-224.4752 514.2205,-247.1628"/>
<polygon fill="#191970" stroke="#191970" points="393.8044,-137.5001 383.9674,-133.565 389.2034,-142.7756 393.8044,-137.5001"/>
</g>
<!-- Node3897&#45;&gt;Node3896 -->
<g id="edge22" class="edge">
<title>Node3897&#45;&gt;Node3896</title>
<path fill="none" stroke="#191970" d="M306.6797,-130.5546C287.0612,-130.9032 265.8779,-130.7854 247.3175,-130.2011"/>
<polygon fill="#191970" stroke="#191970" points="306.8545,-134.0517 316.7741,-130.3298 306.6986,-127.0534 306.8545,-134.0517"/>
</g>
</g>
</svg>
