<?xml version="1.0" encoding="UTF-8" standalone="no"?>
<!DOCTYPE svg PUBLIC "-//W3C//DTD SVG 1.1//EN"
 "http://www.w3.org/Graphics/SVG/1.1/DTD/svg11.dtd">
<!-- Generated by graphviz version 7.1.0 (0)
 -->
<!-- Title: mutt_edit_headers Pages: 1 -->
<svg width="553pt" height="977pt"
 viewBox="0.00 0.00 553.00 977.00" xmlns="http://www.w3.org/2000/svg" xmlns:xlink="http://www.w3.org/1999/xlink">
<g id="graph0" class="graph" transform="scale(1 1) rotate(0) translate(4 973)">
<title>mutt_edit_headers</title>
<!-- Node1 -->
<g id="node1" class="node">
<title>Node1</title>
<g id="a_node1"><a xlink:title="Let the user edit the message header and body.">
<polygon fill="#999999" stroke="#666666" points="104,-496 0,-496 0,-477 104,-477 104,-496"/>
<text text-anchor="middle" x="52" y="-484" font-family="Helvetica,sans-Serif" font-size="10.00">mutt_edit_headers</text>
</a>
</g>
</g>
<!-- Node2 -->
<g id="node2" class="node">
<title>Node2</title>
<g id="a_node2"><a xlink:href="buffer_8c.html#a9765efbb7f2c32e46fb1cb271a02ba20" target="_top" xlink:title="Add a single character to a Buffer.">
<polygon fill="#fff0f0" stroke="red" points="243,-969 178,-969 178,-950 243,-950 243,-969"/>
<text text-anchor="middle" x="210.5" y="-957" font-family="Helvetica,sans-Serif" font-size="10.00">buf_addch</text>
</a>
</g>
</g>
<!-- Node1&#45;&gt;Node2 -->
<g id="edge1" class="edge">
<title>Node1&#45;&gt;Node2</title>
<path fill="none" stroke="#63b8ff" d="M53.49,-496.34C56.67,-556.42 76.33,-873.59 140,-941.5 147,-948.97 156.66,-953.49 166.55,-956.2"/>
<polygon fill="#63b8ff" stroke="#63b8ff" points="165.7,-959.6 176.21,-958.23 167.14,-952.75 165.7,-959.6"/>
</g>
<!-- Node11 -->
<g id="node3" class="node">
<title>Node11</title>
<g id="a_node3"><a xlink:href="muttlib_8c.html#adde3990a0490dfba609fc94dbdbfd6b3" target="_top" xlink:title="Create the canonical path.">
<polygon fill="#fff0f0" stroke="red" points="258.5,-932 162.5,-932 162.5,-913 258.5,-913 258.5,-932"/>
<text text-anchor="middle" x="210.5" y="-920" font-family="Helvetica,sans-Serif" font-size="10.00">buf_expand_path</text>
</a>
</g>
</g>
<!-- Node1&#45;&gt;Node11 -->
<g id="edge2" class="edge">
<title>Node1&#45;&gt;Node11</title>
<path fill="none" stroke="#63b8ff" d="M53.79,-496.44C58.47,-553.14 84.36,-835.47 140,-898.5 143.42,-902.37 147.49,-905.62 151.93,-908.35"/>
<polygon fill="#63b8ff" stroke="#63b8ff" points="150.26,-911.42 160.76,-912.83 153.43,-905.18 150.26,-911.42"/>
</g>
<!-- Node20 -->
<g id="node4" class="node">
<title>Node20</title>
<g id="a_node4"><a xlink:href="pool_8c.html#a41cba27c25d33cb6822789a2856093f2" target="_top" xlink:title="Get a Buffer from the pool.">
<polygon fill="#fff0f0" stroke="red" points="421,-743 344,-743 344,-724 421,-724 421,-743"/>
<text text-anchor="middle" x="382.5" y="-731" font-family="Helvetica,sans-Serif" font-size="10.00">buf_pool_get</text>
</a>
</g>
</g>
<!-- Node1&#45;&gt;Node20 -->
<g id="edge3" class="edge">
<title>Node1&#45;&gt;Node20</title>
<path fill="none" stroke="#63b8ff" d="M54.27,-496.47C60.62,-544.63 90.6,-752.29 140,-789.5 207.28,-840.18 312.82,-780.65 358.81,-749.79"/>
<polygon fill="#63b8ff" stroke="#63b8ff" points="360.68,-752.75 366.94,-744.2 356.71,-746.99 360.68,-752.75"/>
</g>
<!-- Node26 -->
<g id="node5" class="node">
<title>Node26</title>
<g id="a_node5"><a xlink:href="pool_8c.html#a4cc6068279461cb8628219586dfa35a1" target="_top" xlink:title="Return a Buffer to the pool.">
<polygon fill="#fff0f0" stroke="red" points="430,-667 335,-667 335,-648 430,-648 430,-667"/>
<text text-anchor="middle" x="382.5" y="-655" font-family="Helvetica,sans-Serif" font-size="10.00">buf_pool_release</text>
</a>
</g>
</g>
<!-- Node1&#45;&gt;Node26 -->
<g id="edge4" class="edge">
<title>Node1&#45;&gt;Node26</title>
<path fill="none" stroke="#63b8ff" d="M57.51,-496.25C68.33,-518.52 98.01,-573.27 140,-600.5 155.38,-610.47 257,-632.37 323.43,-645.93"/>
<polygon fill="#63b8ff" stroke="#63b8ff" points="322.6,-649.34 333.1,-647.9 324,-642.48 322.6,-649.34"/>
</g>
<!-- Node18 -->
<g id="node6" class="node">
<title>Node18</title>
<g id="a_node6"><a xlink:href="buffer_8c.html#a3b1f80652b37dc26046f9acdd85a0b05" target="_top" xlink:title="Reset an existing Buffer.">
<polygon fill="#fff0f0" stroke="red" points="545,-761 484,-761 484,-742 545,-742 545,-761"/>
<text text-anchor="middle" x="514.5" y="-749" font-family="Helvetica,sans-Serif" font-size="10.00">buf_reset</text>
</a>
</g>
</g>
<!-- Node1&#45;&gt;Node18 -->
<g id="edge7" class="edge">
<title>Node1&#45;&gt;Node18</title>
<path fill="none" stroke="#63b8ff" d="M54.03,-496.21C59.53,-546.01 87.16,-771.91 140,-812.5 247.11,-894.77 423.02,-805.59 488.19,-767.25"/>
<polygon fill="#63b8ff" stroke="#63b8ff" points="489.94,-770.29 496.71,-762.14 486.33,-764.28 489.94,-770.29"/>
</g>
<!-- Node622 -->
<g id="node7" class="node">
<title>Node622</title>
<g id="a_node7"><a xlink:href="muttlib_8c.html#a777680c324667521d8c486051c22fe10" target="_top" xlink:title="Shorten a mailbox path using &#39;~&#39; or &#39;=&#39;.">
<polygon fill="#fff0f0" stroke="red" points="263.5,-440 157.5,-440 157.5,-421 263.5,-421 263.5,-440"/>
<text text-anchor="middle" x="210.5" y="-428" font-family="Helvetica,sans-Serif" font-size="10.00">buf_pretty_mailbox</text>
</a>
</g>
</g>
<!-- Node1&#45;&gt;Node622 -->
<g id="edge6" class="edge">
<title>Node1&#45;&gt;Node622</title>
<path fill="none" stroke="#63b8ff" d="M73.38,-476.5C90.78,-468.23 116.63,-456.57 140,-448.5 145.04,-446.76 150.33,-445.1 155.65,-443.54"/>
<polygon fill="#63b8ff" stroke="#63b8ff" points="156.4,-446.96 165.09,-440.9 154.52,-440.22 156.4,-446.96"/>
</g>
<!-- Node31 -->
<g id="node8" class="node">
<title>Node31</title>
<g id="a_node8"><a xlink:href="buffer_8c.html#ac958acbd189e463a2c3bbc2f23aaeb1e" target="_top" xlink:title="Copy a string into a Buffer.">
<polygon fill="#fff0f0" stroke="red" points="415,-894 350,-894 350,-875 415,-875 415,-894"/>
<text text-anchor="middle" x="382.5" y="-882" font-family="Helvetica,sans-Serif" font-size="10.00">buf_strcpy</text>
</a>
</g>
</g>
<!-- Node1&#45;&gt;Node31 -->
<g id="edge8" class="edge">
<title>Node1&#45;&gt;Node31</title>
<path fill="none" stroke="#63b8ff" d="M53.79,-496.42C58.29,-550.61 82.65,-810.13 140,-860.5 194.56,-908.42 285.12,-902.69 338.48,-893.84"/>
<polygon fill="#63b8ff" stroke="#63b8ff" points="338.87,-897.32 348.1,-892.12 337.64,-890.43 338.87,-897.32"/>
</g>
<!-- Node32 -->
<g id="node9" class="node">
<title>Node32</title>
<g id="a_node9"><a xlink:href="buffer_8h.html#a728ebc5a947b77c8d56db44ce553a7ab" target="_top" xlink:title="Convert a buffer to a const char * &quot;string&quot;.">
<polygon fill="white" stroke="#666666" points="414.5,-705 350.5,-705 350.5,-686 414.5,-686 414.5,-705"/>
<text text-anchor="middle" x="382.5" y="-693" font-family="Helvetica,sans-Serif" font-size="10.00">buf_string</text>
</a>
</g>
</g>
<!-- Node1&#45;&gt;Node32 -->
<g id="edge10" class="edge">
<title>Node1&#45;&gt;Node32</title>
<path fill="none" stroke="#63b8ff" d="M54.06,-496.12C58.16,-528.17 76.06,-631.82 140,-676.5 199.13,-717.82 287.44,-712.3 339.28,-704.16"/>
<polygon fill="#63b8ff" stroke="#63b8ff" points="339.62,-707.65 348.9,-702.54 338.46,-700.75 339.62,-707.65"/>
</g>
<!-- Node1275 -->
<g id="node10" class="node">
<title>Node1275</title>
<g id="a_node10"><a xlink:href="curs__lib_8c.html#a0590f11f42a6242002ea4c842438231b" target="_top" xlink:title="Let the user edit a file.">
<polygon fill="#fff0f0" stroke="red" points="250.5,-780 170.5,-780 170.5,-761 250.5,-761 250.5,-780"/>
<text text-anchor="middle" x="210.5" y="-768" font-family="Helvetica,sans-Serif" font-size="10.00">mutt_edit_file</text>
</a>
</g>
</g>
<!-- Node1&#45;&gt;Node1275 -->
<g id="edge11" class="edge">
<title>Node1&#45;&gt;Node1275</title>
<path fill="none" stroke="#63b8ff" d="M53.06,-496.46C53.83,-535.47 62.08,-679.32 140,-752.5 145.49,-757.66 152.27,-761.39 159.42,-764.07"/>
<polygon fill="#63b8ff" stroke="#63b8ff" points="158.01,-767.3 168.6,-766.86 160.04,-760.6 158.01,-767.3"/>
</g>
<!-- Node52 -->
<g id="node11" class="node">
<title>Node52</title>
<g id="a_node11"><a xlink:href="envelope_8c.html#a244dacf9b1001c9ce1dbd473e001381f" target="_top" xlink:title="Free an Envelope.">
<polygon fill="#fff0f0" stroke="red" points="253,-364 168,-364 168,-345 253,-345 253,-364"/>
<text text-anchor="middle" x="210.5" y="-352" font-family="Helvetica,sans-Serif" font-size="10.00">mutt_env_free</text>
</a>
</g>
</g>
<!-- Node1&#45;&gt;Node52 -->
<g id="edge15" class="edge">
<title>Node1&#45;&gt;Node52</title>
<path fill="none" stroke="#63b8ff" d="M58.37,-476.6C70.28,-455.53 101,-405.91 140,-378.5 145.42,-374.69 151.5,-371.44 157.74,-368.68"/>
<polygon fill="#63b8ff" stroke="#63b8ff" points="158.92,-371.98 166.92,-365.04 156.34,-365.47 158.92,-371.98"/>
</g>
<!-- Node56 -->
<g id="node12" class="node">
<title>Node56</title>
<g id="a_node12"><a xlink:href="list_8c.html#ab5c53ce94cc2aafa4299dbc81a37f4a4" target="_top" xlink:title="Free a List AND its strings.">
<polygon fill="white" stroke="#666666" points="422.5,-383 342.5,-383 342.5,-364 422.5,-364 422.5,-383"/>
<text text-anchor="middle" x="382.5" y="-371" font-family="Helvetica,sans-Serif" font-size="10.00">mutt_list_free</text>
</a>
</g>
</g>
<!-- Node1&#45;&gt;Node56 -->
<g id="edge23" class="edge">
<title>Node1&#45;&gt;Node56</title>
<path fill="none" stroke="#63b8ff" d="M61.18,-476.51C75.34,-459.97 106.16,-427.17 140,-411.5 201.63,-382.95 280.58,-375.25 331.12,-373.48"/>
<polygon fill="#63b8ff" stroke="#63b8ff" points="330.97,-376.99 340.87,-373.21 330.78,-369.99 330.97,-376.99"/>
</g>
<!-- Node1280 -->
<g id="node13" class="node">
<title>Node1280</title>
<g id="a_node13"><a xlink:href="envelope_8c.html#afd00cc8d84947cbd55e082420b5732f1" target="_top" xlink:title="Convert an Envelope&#39;s Address fields to local format.">
<polygon fill="#fff0f0" stroke="red" points="260.5,-327 160.5,-327 160.5,-308 260.5,-308 260.5,-327"/>
<text text-anchor="middle" x="210.5" y="-315" font-family="Helvetica,sans-Serif" font-size="10.00">mutt_env_to_local</text>
</a>
</g>
</g>
<!-- Node1&#45;&gt;Node1280 -->
<g id="edge17" class="edge">
<title>Node1&#45;&gt;Node1280</title>
<path fill="none" stroke="#63b8ff" d="M55.75,-476.59C63.79,-449.48 89.93,-373.62 140,-335.5 142.98,-333.23 146.21,-331.25 149.6,-329.52"/>
<polygon fill="#63b8ff" stroke="#63b8ff" points="150.91,-332.77 158.73,-325.62 148.16,-326.33 150.91,-332.77"/>
</g>
<!-- Node1281 -->
<g id="node14" class="node">
<title>Node1281</title>
<g id="a_node14"><a xlink:href="alias_8c.html#aa90fd4b086aebbf4fed5245ecaca1ac1" target="_top" xlink:title="Expand aliases in all the fields of an Envelope.">
<polygon fill="#fff0f0" stroke="red" points="277.5,-290 143.5,-290 143.5,-271 277.5,-271 277.5,-290"/>
<text text-anchor="middle" x="210.5" y="-278" font-family="Helvetica,sans-Serif" font-size="10.00">mutt_expand_aliases_env</text>
</a>
</g>
</g>
<!-- Node1&#45;&gt;Node1281 -->
<g id="edge18" class="edge">
<title>Node1&#45;&gt;Node1281</title>
<path fill="none" stroke="#63b8ff" d="M54.56,-476.52C60.01,-445.14 81.18,-347.58 140,-298.5 140.96,-297.7 141.95,-296.94 142.96,-296.21"/>
<polygon fill="#63b8ff" stroke="#63b8ff" points="144.56,-299.33 151.43,-291.26 141.03,-293.28 144.56,-299.33"/>
</g>
<!-- Node579 -->
<g id="node15" class="node">
<title>Node579</title>
<g id="a_node15"><a xlink:href="file_8c.html#a0a6ff09a685fb6fa1120a582a5a6ef4a" target="_top" xlink:title="Copy the contents of one file into another.">
<polygon fill="white" stroke="#666666" points="271,-253 150,-253 150,-234 271,-234 271,-253"/>
<text text-anchor="middle" x="210.5" y="-241" font-family="Helvetica,sans-Serif" font-size="10.00">mutt_file_copy_stream</text>
</a>
</g>
</g>
<!-- Node1&#45;&gt;Node579 -->
<g id="edge19" class="edge">
<title>Node1&#45;&gt;Node579</title>
<path fill="none" stroke="#63b8ff" d="M53.72,-476.63C56.81,-441.58 72.13,-321.95 140,-261.5 140.79,-260.79 141.61,-260.11 142.45,-259.46"/>
<polygon fill="#63b8ff" stroke="#63b8ff" points="144.25,-262.46 150.89,-254.21 140.55,-256.52 144.25,-262.46"/>
</g>
<!-- Node1282 -->
<g id="node16" class="node">
<title>Node1282</title>
<g id="a_node16"><a xlink:href="file_8c.html#a61b50c8615492662cbc27ebbf83090ce" target="_top" xlink:title="Decrease a file&#39;s modification time by 1 second.">
<polygon fill="#fff0f0" stroke="red" points="262.5,-215.5 158.5,-215.5 158.5,-185.5 262.5,-185.5 262.5,-215.5"/>
<text text-anchor="start" x="166.5" y="-203.5" font-family="Helvetica,sans-Serif" font-size="10.00">mutt_file_decrease</text>
<text text-anchor="middle" x="210.5" y="-192.5" font-family="Helvetica,sans-Serif" font-size="10.00">_mtime</text>
</a>
</g>
</g>
<!-- Node1&#45;&gt;Node1282 -->
<g id="edge20" class="edge">
<title>Node1&#45;&gt;Node1282</title>
<path fill="none" stroke="#63b8ff" d="M53.29,-476.6C54.95,-438.45 66.05,-299.33 140,-224.5 142.48,-221.99 145.23,-219.75 148.17,-217.74"/>
<polygon fill="#63b8ff" stroke="#63b8ff" points="149.81,-220.83 156.76,-212.83 146.34,-214.75 149.81,-220.83"/>
</g>
<!-- Node1043 -->
<g id="node17" class="node">
<title>Node1043</title>
<g id="a_node17"><a xlink:href="file_8c.html#ae57463c2854c006a3c67b78736e9056e" target="_top" xlink:title="Delete a file, carefully.">
<polygon fill="white" stroke="#666666" points="255.5,-167 165.5,-167 165.5,-148 255.5,-148 255.5,-167"/>
<text text-anchor="middle" x="210.5" y="-155" font-family="Helvetica,sans-Serif" font-size="10.00">mutt_file_unlink</text>
</a>
</g>
</g>
<!-- Node1&#45;&gt;Node1043 -->
<g id="edge21" class="edge">
<title>Node1&#45;&gt;Node1043</title>
<path fill="none" stroke="#63b8ff" d="M52.56,-476.75C51.18,-434.38 51.56,-264.35 140,-176.5 144.16,-172.36 149.14,-169.11 154.48,-166.54"/>
<polygon fill="#63b8ff" stroke="#63b8ff" points="155.64,-169.85 163.69,-162.97 153.1,-163.32 155.64,-169.85"/>
</g>
<!-- Node88 -->
<g id="node18" class="node">
<title>Node88</title>
<g id="a_node18"><a xlink:href="mutt_2string_8c.html#aebd2a8a3f8a30062c31fa1474d87cc41" target="_top" xlink:title="Check whether a string starts with a prefix, ignoring case.">
<polygon fill="#fff0f0" stroke="red" points="265,-130 156,-130 156,-111 265,-111 265,-130"/>
<text text-anchor="middle" x="210.5" y="-118" font-family="Helvetica,sans-Serif" font-size="10.00">mutt_istr_startswith</text>
</a>
</g>
</g>
<!-- Node1&#45;&gt;Node88 -->
<g id="edge22" class="edge">
<title>Node1&#45;&gt;Node88</title>
<path fill="none" stroke="#63b8ff" d="M54.1,-476.73C60.06,-425.57 90.01,-188.91 140,-138.5 141.82,-136.67 143.8,-135.01 145.9,-133.52"/>
<polygon fill="#63b8ff" stroke="#63b8ff" points="147.47,-136.65 154.47,-128.7 144.04,-130.55 147.47,-136.65"/>
</g>
<!-- Node270 -->
<g id="node19" class="node">
<title>Node270</title>
<g id="a_node19"><a xlink:href="list_8c.html#a47252e2b00de607c64a5fec8dc16058d" target="_top" xlink:title="Append a string to the end of a List.">
<polygon fill="#fff0f0" stroke="red" points="263.5,-93 157.5,-93 157.5,-74 263.5,-74 263.5,-93"/>
<text text-anchor="middle" x="210.5" y="-81" font-family="Helvetica,sans-Serif" font-size="10.00">mutt_list_insert_tail</text>
</a>
</g>
</g>
<!-- Node1&#45;&gt;Node270 -->
<g id="edge24" class="edge">
<title>Node1&#45;&gt;Node270</title>
<path fill="none" stroke="#63b8ff" d="M53.84,-476.79C58.75,-422.61 85.27,-157.96 140,-101.5 142.16,-99.27 144.56,-97.3 147.13,-95.57"/>
<polygon fill="#63b8ff" stroke="#63b8ff" points="148.56,-98.77 155.73,-90.97 145.26,-92.6 148.56,-98.77"/>
</g>
<!-- Node1283 -->
<g id="node20" class="node">
<title>Node1283</title>
<g id="a_node20"><a xlink:href="sendlib_8c.html#a84c896a702c00ea759c281213e454686" target="_top" xlink:title="Create a file attachment.">
<polygon fill="#fff0f0" stroke="red" points="271,-477 150,-477 150,-458 271,-458 271,-477"/>
<text text-anchor="middle" x="210.5" y="-465" font-family="Helvetica,sans-Serif" font-size="10.00">mutt_make_file_attach</text>
</a>
</g>
</g>
<!-- Node1&#45;&gt;Node1283 -->
<g id="edge25" class="edge">
<title>Node1&#45;&gt;Node1283</title>
<path fill="none" stroke="#63b8ff" d="M104.24,-480.28C115.14,-478.96 126.84,-477.54 138.33,-476.14"/>
<polygon fill="#63b8ff" stroke="#63b8ff" points="138.7,-479.62 148.21,-474.94 137.86,-472.67 138.7,-479.62"/>
</g>
<!-- Node38 -->
<g id="node21" class="node">
<title>Node38</title>
<g id="a_node21"><a xlink:href="mutt_2string_8c.html#a3fe33d90e4814281cd57de048119c950" target="_top" xlink:title="Copy a string, safely.">
<polygon fill="white" stroke="#666666" points="422,-515 343,-515 343,-496 422,-496 422,-515"/>
<text text-anchor="middle" x="382.5" y="-503" font-family="Helvetica,sans-Serif" font-size="10.00">mutt_str_dup</text>
</a>
</g>
</g>
<!-- Node1&#45;&gt;Node38 -->
<g id="edge43" class="edge">
<title>Node1&#45;&gt;Node38</title>
<path fill="none" stroke="#63b8ff" d="M104.33,-489.47C166.37,-493.06 270.09,-499.06 331.52,-502.61"/>
<polygon fill="#63b8ff" stroke="#63b8ff" points="331.15,-506.09 341.34,-503.18 331.56,-499.11 331.15,-506.09"/>
</g>
<!-- Node1305 -->
<g id="node22" class="node">
<title>Node1305</title>
<g id="a_node22"><a xlink:href="postpone_8c.html#a286933c50f193dd341ae2e6a015aeb67" target="_top" xlink:title="Parse a crypto header string.">
<polygon fill="#fff0f0" stroke="red" points="270,-667 151,-667 151,-648 270,-648 270,-667"/>
<text text-anchor="middle" x="210.5" y="-655" font-family="Helvetica,sans-Serif" font-size="10.00">mutt_parse_crypt_hdr</text>
</a>
</g>
</g>
<!-- Node1&#45;&gt;Node1305 -->
<g id="edge27" class="edge">
<title>Node1&#45;&gt;Node1305</title>
<path fill="none" stroke="#63b8ff" d="M56.11,-496.33C64.91,-522.53 92.44,-594.69 140,-633.5 144.52,-637.19 149.64,-640.33 155.01,-642.99"/>
<polygon fill="#63b8ff" stroke="#63b8ff" points="153.57,-646.18 164.14,-646.95 156.35,-639.76 153.57,-646.18"/>
</g>
<!-- Node174 -->
<g id="node23" class="node">
<title>Node174</title>
<g id="a_node23"><a xlink:href="mutt_2string_8c.html#a5bc328ca69776d155059041aaff9435a" target="_top" xlink:title="Skip over whitespace as defined by RFC5322.">
<polygon fill="#fff0f0" stroke="red" points="448,-591 317,-591 317,-572 448,-572 448,-591"/>
<text text-anchor="middle" x="382.5" y="-579" font-family="Helvetica,sans-Serif" font-size="10.00">mutt_str_skip_email_wsp</text>
</a>
</g>
</g>
<!-- Node1&#45;&gt;Node174 -->
<g id="edge45" class="edge">
<title>Node1&#45;&gt;Node174</title>
<path fill="none" stroke="#63b8ff" d="M87.53,-496.49C147.18,-513.73 269.46,-549.1 335.97,-568.33"/>
<polygon fill="#63b8ff" stroke="#63b8ff" points="334.9,-571.67 345.48,-571.08 336.85,-564.94 334.9,-571.67"/>
</g>
<!-- Node292 -->
<g id="node24" class="node">
<title>Node292</title>
<g id="a_node24"><a xlink:href="email_2parse_8c.html#a709f7f23d8a54a0f75abc28a0b365ace" target="_top" xlink:title="Parses an RFC822 header.">
<polygon fill="#fff0f0" stroke="red" points="279.5,-591 141.5,-591 141.5,-572 279.5,-572 279.5,-591"/>
<text text-anchor="middle" x="210.5" y="-579" font-family="Helvetica,sans-Serif" font-size="10.00">mutt_rfc822_read_header</text>
</a>
</g>
</g>
<!-- Node1&#45;&gt;Node292 -->
<g id="edge32" class="edge">
<title>Node1&#45;&gt;Node292</title>
<path fill="none" stroke="#63b8ff" d="M62.59,-496.29C77.77,-511.31 108.84,-540.13 140,-557.5 146.97,-561.39 154.69,-564.81 162.36,-567.75"/>
<polygon fill="#63b8ff" stroke="#63b8ff" points="161.09,-571.02 171.68,-571.1 163.45,-564.43 161.09,-571.02"/>
</g>
<!-- Node1125 -->
<g id="node25" class="node">
<title>Node1125</title>
<g id="a_node25"><a xlink:href="header_8c.html#a00c731e98afb40438296e6a0f47752e7" target="_top" xlink:title="Write out one RFC822 header line.">
<polygon fill="#fff0f0" stroke="red" points="281,-743 140,-743 140,-724 281,-724 281,-743"/>
<text text-anchor="middle" x="210.5" y="-731" font-family="Helvetica,sans-Serif" font-size="10.00">mutt_rfc822_write_header</text>
</a>
</g>
</g>
<!-- Node1&#45;&gt;Node1125 -->
<g id="edge39" class="edge">
<title>Node1&#45;&gt;Node1125</title>
<path fill="none" stroke="#63b8ff" d="M53.92,-496.1C57.68,-530.23 74.99,-647 140,-709.5 143.67,-713.03 147.89,-716.04 152.38,-718.61"/>
<polygon fill="#63b8ff" stroke="#63b8ff" points="150.7,-721.69 161.23,-722.9 153.76,-715.39 150.7,-721.69"/>
</g>
<!-- Node125 -->
<g id="node26" class="node">
<title>Node125</title>
<g id="a_node26"><a xlink:href="mutt_2string_8c.html#a6b6a50296dd2a31863a43379ef4a343d" target="_top" xlink:title="Compare two strings.">
<polygon fill="#fff0f0" stroke="red" points="253.5,-56 167.5,-56 167.5,-37 253.5,-37 253.5,-56"/>
<text text-anchor="middle" x="210.5" y="-44" font-family="Helvetica,sans-Serif" font-size="10.00">mutt_str_equal</text>
</a>
</g>
</g>
<!-- Node1&#45;&gt;Node125 -->
<g id="edge44" class="edge">
<title>Node1&#45;&gt;Node125</title>
<path fill="none" stroke="#63b8ff" d="M53.65,-476.63C57.63,-419.06 80.59,-126.97 140,-64.5 144.62,-59.64 150.37,-56.03 156.57,-53.35"/>
<polygon fill="#63b8ff" stroke="#63b8ff" points="157.55,-56.72 165.88,-50.17 155.28,-50.1 157.55,-56.72"/>
</g>
<!-- Node62 -->
<g id="node27" class="node">
<title>Node62</title>
<g id="a_node27"><a xlink:href="mutt_2notify_8c.html#ade2f42f8e0d8a843e87816300799a8e1" target="_top" xlink:title="Send out a notification message.">
<polygon fill="#fff0f0" stroke="red" points="246,-19 175,-19 175,0 246,0 246,-19"/>
<text text-anchor="middle" x="210.5" y="-7" font-family="Helvetica,sans-Serif" font-size="10.00">notify_send</text>
</a>
</g>
</g>
<!-- Node1&#45;&gt;Node62 -->
<g id="edge46" class="edge">
<title>Node1&#45;&gt;Node62</title>
<path fill="none" stroke="#63b8ff" d="M53.48,-476.58C56.58,-415.97 75.85,-96.04 140,-27.5 146.36,-20.71 154.92,-16.35 163.85,-13.57"/>
<polygon fill="#63b8ff" stroke="#63b8ff" points="164.45,-17.03 173.35,-11.28 162.81,-10.23 164.45,-17.03"/>
</g>
<!-- Node26&#45;&gt;Node18 -->
<g id="edge5" class="edge">
<title>Node26&#45;&gt;Node18</title>
<path fill="none" stroke="#63b8ff" d="M426.95,-667.38C434.29,-670.04 441.6,-673.37 448,-677.5 470.08,-691.76 489.19,-715.46 500.98,-732.19"/>
<polygon fill="#63b8ff" stroke="#63b8ff" points="497.97,-733.99 506.48,-740.3 503.77,-730.06 497.97,-733.99"/>
</g>
<!-- Node31&#45;&gt;Node18 -->
<g id="edge9" class="edge">
<title>Node31&#45;&gt;Node18</title>
<path fill="none" stroke="#63b8ff" d="M415.26,-877.35C426.48,-873.68 438.62,-868.29 448,-860.5 476.9,-836.5 496.32,-796.25 506.09,-771.95"/>
<polygon fill="#63b8ff" stroke="#63b8ff" points="509.27,-773.45 509.57,-762.86 502.73,-770.95 509.27,-773.45"/>
</g>
<!-- Node1275&#45;&gt;Node20 -->
<g id="edge12" class="edge">
<title>Node1275&#45;&gt;Node20</title>
<path fill="none" stroke="#63b8ff" d="M250.93,-761.92C275.28,-756.62 306.71,-749.78 332.64,-744.13"/>
<polygon fill="#63b8ff" stroke="#63b8ff" points="333.24,-747.59 342.27,-742.04 331.75,-740.75 333.24,-747.59"/>
</g>
<!-- Node1275&#45;&gt;Node26 -->
<g id="edge13" class="edge">
<title>Node1275&#45;&gt;Node26</title>
<path fill="none" stroke="#63b8ff" d="M250.7,-766.51C261.42,-763.87 272.43,-759.55 281,-752.5 309.56,-729.01 289.01,-701.66 317,-677.5 319.33,-675.49 321.87,-673.68 324.53,-672.05"/>
<polygon fill="#63b8ff" stroke="#63b8ff" points="325.98,-675.24 333.32,-667.6 322.82,-668.99 325.98,-675.24"/>
</g>
<!-- Node1275&#45;&gt;Node32 -->
<g id="edge14" class="edge">
<title>Node1275&#45;&gt;Node32</title>
<path fill="none" stroke="#63b8ff" d="M250.84,-764.26C261.1,-761.59 271.84,-757.82 281,-752.5 300.84,-740.98 297.44,-727.49 317,-715.5 323.86,-711.29 331.68,-707.91 339.45,-705.2"/>
<polygon fill="#63b8ff" stroke="#63b8ff" points="340.35,-708.58 348.86,-702.26 338.27,-701.9 340.35,-708.58"/>
</g>
<!-- Node52&#45;&gt;Node56 -->
<g id="edge16" class="edge">
<title>Node52&#45;&gt;Node56</title>
<path fill="none" stroke="#63b8ff" d="M253.09,-359.15C276.51,-361.77 305.94,-365.06 330.72,-367.82"/>
<polygon fill="#63b8ff" stroke="#63b8ff" points="330.26,-371.3 340.59,-368.93 331.04,-364.34 330.26,-371.3"/>
</g>
<!-- Node1283&#45;&gt;Node38 -->
<g id="edge26" class="edge">
<title>Node1283&#45;&gt;Node38</title>
<path fill="none" stroke="#63b8ff" d="M256.17,-477.48C279.35,-482.67 307.75,-489.01 331.64,-494.36"/>
<polygon fill="#63b8ff" stroke="#63b8ff" points="330.62,-497.71 341.14,-496.48 332.15,-490.88 330.62,-497.71"/>
</g>
<!-- Node1305&#45;&gt;Node20 -->
<g id="edge28" class="edge">
<title>Node1305&#45;&gt;Node20</title>
<path fill="none" stroke="#63b8ff" d="M227.43,-667.48C247.65,-679.82 283.89,-700.86 317,-714.5 322,-716.56 327.3,-718.5 332.63,-720.29"/>
<polygon fill="#63b8ff" stroke="#63b8ff" points="331.49,-723.6 342.08,-723.29 333.61,-716.93 331.49,-723.6"/>
</g>
<!-- Node1305&#45;&gt;Node26 -->
<g id="edge29" class="edge">
<title>Node1305&#45;&gt;Node26</title>
<path fill="none" stroke="#63b8ff" d="M270.48,-657.5C287.54,-657.5 306.16,-657.5 323.18,-657.5"/>
<polygon fill="#63b8ff" stroke="#63b8ff" points="323.16,-661 333.16,-657.5 323.16,-654 323.16,-661"/>
</g>
<!-- Node1305&#45;&gt;Node32 -->
<g id="edge30" class="edge">
<title>Node1305&#45;&gt;Node32</title>
<path fill="none" stroke="#63b8ff" d="M256.17,-667.48C281.76,-673.2 313.7,-680.35 338.94,-685.99"/>
<polygon fill="#63b8ff" stroke="#63b8ff" points="338.01,-689.36 348.53,-688.13 339.54,-682.53 338.01,-689.36"/>
</g>
<!-- Node1305&#45;&gt;Node174 -->
<g id="edge31" class="edge">
<title>Node1305&#45;&gt;Node174</title>
<path fill="none" stroke="#63b8ff" d="M233.72,-647.56C263.12,-634.42 315.16,-611.16 348.98,-596.04"/>
<polygon fill="#63b8ff" stroke="#63b8ff" points="350.19,-599.33 357.89,-592.06 347.33,-592.94 350.19,-599.33"/>
</g>
<!-- Node292&#45;&gt;Node20 -->
<g id="edge33" class="edge">
<title>Node292&#45;&gt;Node20</title>
<path fill="none" stroke="#63b8ff" d="M226.97,-591.48C242.27,-601.96 265.55,-619.66 281,-639.5 303.71,-668.68 288.84,-690.54 317,-714.5 321.72,-718.52 327.26,-721.69 333.08,-724.19"/>
<polygon fill="#63b8ff" stroke="#63b8ff" points="331.71,-727.41 342.3,-727.49 334.07,-720.82 331.71,-727.41"/>
</g>
<!-- Node292&#45;&gt;Node26 -->
<g id="edge34" class="edge">
<title>Node292&#45;&gt;Node26</title>
<path fill="none" stroke="#63b8ff" d="M247.45,-591.42C258.54,-595.13 270.56,-599.84 281,-605.5 298.82,-615.16 299.3,-623.63 317,-633.5 323.66,-637.21 331.01,-640.57 338.29,-643.51"/>
<polygon fill="#63b8ff" stroke="#63b8ff" points="336.81,-646.69 347.4,-646.98 339.3,-640.15 336.81,-646.69"/>
</g>
<!-- Node292&#45;&gt;Node18 -->
<g id="edge35" class="edge">
<title>Node292&#45;&gt;Node18</title>
<path fill="none" stroke="#63b8ff" d="M260.88,-591.46C325.69,-604.87 433.01,-628.31 448,-639.5 479.17,-662.76 498.09,-705.59 507.1,-731.01"/>
<polygon fill="#63b8ff" stroke="#63b8ff" points="503.68,-731.82 510.17,-740.2 510.32,-729.6 503.68,-731.82"/>
</g>
<!-- Node292&#45;&gt;Node32 -->
<g id="edge36" class="edge">
<title>Node292&#45;&gt;Node32</title>
<path fill="none" stroke="#63b8ff" d="M224.13,-591.39C238.32,-602.65 261.86,-621.77 281,-639.5 297.83,-655.09 297.35,-664.65 317,-676.5 323.86,-680.64 331.68,-683.92 339.45,-686.52"/>
<polygon fill="#63b8ff" stroke="#63b8ff" points="338.27,-689.82 348.85,-689.31 340.26,-683.11 338.27,-689.82"/>
</g>
<!-- Node292&#45;&gt;Node38 -->
<g id="edge37" class="edge">
<title>Node292&#45;&gt;Node38</title>
<path fill="none" stroke="#63b8ff" d="M233.72,-571.56C263.12,-558.42 315.16,-535.16 348.98,-520.04"/>
<polygon fill="#63b8ff" stroke="#63b8ff" points="350.19,-523.33 357.89,-516.06 347.33,-516.94 350.19,-523.33"/>
</g>
<!-- Node292&#45;&gt;Node174 -->
<g id="edge38" class="edge">
<title>Node292&#45;&gt;Node174</title>
<path fill="none" stroke="#63b8ff" d="M279.67,-581.5C288.05,-581.5 296.66,-581.5 305.15,-581.5"/>
<polygon fill="#63b8ff" stroke="#63b8ff" points="305.12,-585 315.12,-581.5 305.12,-578 305.12,-585"/>
</g>
<!-- Node1125&#45;&gt;Node20 -->
<g id="edge40" class="edge">
<title>Node1125&#45;&gt;Node20</title>
<path fill="none" stroke="#63b8ff" d="M281.14,-733.5C298.4,-733.5 316.54,-733.5 332.58,-733.5"/>
<polygon fill="#63b8ff" stroke="#63b8ff" points="332.33,-737 342.33,-733.5 332.33,-730 332.33,-737"/>
</g>
<!-- Node1125&#45;&gt;Node26 -->
<g id="edge41" class="edge">
<title>Node1125&#45;&gt;Node26</title>
<path fill="none" stroke="#63b8ff" d="M227.84,-723.58C248.19,-711.53 284.26,-691.12 317,-677.5 322.62,-675.16 328.6,-672.95 334.58,-670.91"/>
<polygon fill="#63b8ff" stroke="#63b8ff" points="335.39,-674.33 343.81,-667.9 333.22,-667.67 335.39,-674.33"/>
</g>
<!-- Node1125&#45;&gt;Node32 -->
<g id="edge42" class="edge">
<title>Node1125&#45;&gt;Node32</title>
<path fill="none" stroke="#63b8ff" d="M256.17,-723.52C281.76,-717.8 313.7,-710.65 338.94,-705.01"/>
<polygon fill="#63b8ff" stroke="#63b8ff" points="339.54,-708.47 348.53,-702.87 338.01,-701.64 339.54,-708.47"/>
</g>
</g>
</svg>
