<?xml version="1.0" encoding="UTF-8" standalone="no"?>
<!DOCTYPE svg PUBLIC "-//W3C//DTD SVG 1.1//EN"
 "http://www.w3.org/Graphics/SVG/1.1/DTD/svg11.dtd">
<!-- Generated by graphviz version 2.40.1 (20161225.0304)
 -->
<!-- Title: mutt/path.h Pages: 1 -->
<svg width="248pt" height="84pt"
 viewBox="0.00 0.00 247.50 84.00" xmlns="http://www.w3.org/2000/svg" xmlns:xlink="http://www.w3.org/1999/xlink">
<g id="graph0" class="graph" transform="scale(1 1) rotate(0) translate(4 80)">
<title>mutt/path.h</title>
<polygon fill="#ffffff" stroke="transparent" points="-4,4 -4,-80 243.5,-80 243.5,4 -4,4"/>
<!-- Node3 -->
<g id="node1" class="node">
<title>Node3</title>
<polygon fill="#bfbfbf" stroke="#000000" points="78,-56.5 78,-75.5 152,-75.5 152,-56.5 78,-56.5"/>
<text text-anchor="middle" x="115" y="-63.5" font-family="Helvetica,sans-Serif" font-size="10.00" fill="#000000">mutt/path.h</text>
</g>
<!-- Node4 -->
<g id="node2" class="node">
<title>Node4</title>
<g id="a_node2"><a xlink:href="mutt_2lib_8h.html" target="_top" xlink:title="Convenience wrapper for the library headers. ">
<polygon fill="#ffffff" stroke="#ff0000" points="0,-.5 0,-19.5 64,-19.5 64,-.5 0,-.5"/>
<text text-anchor="middle" x="32" y="-7.5" font-family="Helvetica,sans-Serif" font-size="10.00" fill="#000000">mutt/lib.h</text>
</a>
</g>
</g>
<!-- Node3&#45;&gt;Node4 -->
<g id="edge1" class="edge">
<title>Node3&#45;&gt;Node4</title>
<path fill="none" stroke="#191970" d="M92.012,-50.49C77.3678,-40.6096 58.8556,-28.1194 46.2918,-19.6427"/>
<polygon fill="#191970" stroke="#191970" points="90.2953,-53.5539 100.5425,-56.2455 94.2104,-47.7511 90.2953,-53.5539"/>
</g>
<!-- Node751 -->
<g id="node3" class="node">
<title>Node751</title>
<g id="a_node3"><a xlink:href="file_8c.html" target="_top" xlink:title="File management functions. ">
<polygon fill="#ffffff" stroke="#000000" points="82,-.5 82,-19.5 148,-19.5 148,-.5 82,-.5"/>
<text text-anchor="middle" x="115" y="-7.5" font-family="Helvetica,sans-Serif" font-size="10.00" fill="#000000">mutt/file.c</text>
</a>
</g>
</g>
<!-- Node3&#45;&gt;Node751 -->
<g id="edge2" class="edge">
<title>Node3&#45;&gt;Node751</title>
<path fill="none" stroke="#191970" d="M115,-46.1575C115,-37.155 115,-26.9199 115,-19.6427"/>
<polygon fill="#191970" stroke="#191970" points="111.5001,-46.2455 115,-56.2455 118.5001,-46.2456 111.5001,-46.2455"/>
</g>
<!-- Node752 -->
<g id="node4" class="node">
<title>Node752</title>
<g id="a_node4"><a xlink:href="mutt_2path_8c.html" target="_top" xlink:title="Path manipulation functions. ">
<polygon fill="#ffffff" stroke="#000000" points="166.5,-.5 166.5,-19.5 239.5,-19.5 239.5,-.5 166.5,-.5"/>
<text text-anchor="middle" x="203" y="-7.5" font-family="Helvetica,sans-Serif" font-size="10.00" fill="#000000">mutt/path.c</text>
</a>
</g>
</g>
<!-- Node3&#45;&gt;Node752 -->
<g id="edge3" class="edge">
<title>Node3&#45;&gt;Node752</title>
<path fill="none" stroke="#191970" d="M138.9345,-50.769C154.5283,-40.8456 174.401,-28.1994 187.8472,-19.6427"/>
<polygon fill="#191970" stroke="#191970" points="136.886,-47.9239 130.3284,-56.2455 140.6441,-53.8296 136.886,-47.9239"/>
</g>
</g>
</svg>
