<?xml version="1.0" encoding="UTF-8" standalone="no"?>
<!DOCTYPE svg PUBLIC "-//W3C//DTD SVG 1.1//EN"
 "http://www.w3.org/Graphics/SVG/1.1/DTD/svg11.dtd">
<!-- Generated by graphviz version 12.2.1 (20241206.2353)
 -->
<!-- Title: mutt_header.h Pages: 1 -->
<svg width="728pt" height="89pt"
 viewBox="0.00 0.00 728.12 88.50" xmlns="http://www.w3.org/2000/svg" xmlns:xlink="http://www.w3.org/1999/xlink">
<g id="graph0" class="graph" transform="scale(1 1) rotate(0) translate(4 84.5)">
<title>mutt_header.h</title>
<!-- Node1 -->
<g id="Node000001" class="node">
<title>Node1</title>
<g id="a_Node000001"><a xlink:title="Representation of the email&#39;s header.">
<polygon fill="#999999" stroke="#666666" points="464.75,-80.5 381.25,-80.5 381.25,-58.25 464.75,-58.25 464.75,-80.5"/>
<text text-anchor="middle" x="423" y="-67" font-family="Helvetica,sans-Serif" font-size="10.00">mutt_header.h</text>
</a>
</g>
</g>
<!-- Node2 -->
<g id="Node000002" class="node">
<title>Node2</title>
<g id="a_Node000002"><a xlink:href="compose_2functions_8c.html" target="_top" xlink:title="Compose functions.">
<polygon fill="white" stroke="#666666" points="112,-22.25 0,-22.25 0,0 112,0 112,-22.25"/>
<text text-anchor="middle" x="56" y="-8.75" font-family="Helvetica,sans-Serif" font-size="10.00">compose/functions.c</text>
</a>
</g>
</g>
<!-- Node1&#45;&gt;Node2 -->
<g id="edge1_Node000001_Node000002" class="edge">
<title>Node1&#45;&gt;Node2</title>
<g id="a_edge1_Node000001_Node000002"><a xlink:title=" ">
<path fill="none" stroke="#63b8ff" d="M369.84,-60.3C309.51,-51.13 208.16,-35.69 121,-22.25 118.18,-21.81 115.29,-21.37 112.37,-20.92"/>
<polygon fill="#63b8ff" stroke="#63b8ff" points="369.07,-63.73 379.48,-61.77 370.12,-56.81 369.07,-63.73"/>
</a>
</g>
</g>
<!-- Node3 -->
<g id="Node000003" class="node">
<title>Node3</title>
<g id="a_Node000003"><a xlink:href="index_2functions_8c.html" target="_top" xlink:title="Index functions.">
<polygon fill="white" stroke="#666666" points="224.38,-22.25 129.62,-22.25 129.62,0 224.38,0 224.38,-22.25"/>
<text text-anchor="middle" x="177" y="-8.75" font-family="Helvetica,sans-Serif" font-size="10.00">index/functions.c</text>
</a>
</g>
</g>
<!-- Node1&#45;&gt;Node3 -->
<g id="edge2_Node000001_Node000003" class="edge">
<title>Node1&#45;&gt;Node3</title>
<g id="a_edge2_Node000001_Node000003"><a xlink:title=" ">
<path fill="none" stroke="#63b8ff" d="M370.02,-56.26C326.41,-46.29 265.17,-32.29 223.44,-22.74"/>
<polygon fill="#63b8ff" stroke="#63b8ff" points="368.99,-59.61 379.52,-58.43 370.55,-52.79 368.99,-59.61"/>
</a>
</g>
</g>
<!-- Node4 -->
<g id="Node000004" class="node">
<title>Node4</title>
<g id="a_Node000004"><a xlink:href="mbox_8c.html" target="_top" xlink:title="Mbox local mailbox type.">
<polygon fill="white" stroke="#666666" points="321.88,-22.25 242.12,-22.25 242.12,0 321.88,0 321.88,-22.25"/>
<text text-anchor="middle" x="282" y="-8.75" font-family="Helvetica,sans-Serif" font-size="10.00">mbox/mbox.c</text>
</a>
</g>
</g>
<!-- Node1&#45;&gt;Node4 -->
<g id="edge3_Node000001_Node000004" class="edge">
<title>Node1&#45;&gt;Node4</title>
<g id="a_edge3_Node000001_Node000004"><a xlink:title=" ">
<path fill="none" stroke="#63b8ff" d="M385.83,-53.55C361.48,-43.83 330.23,-31.37 308.4,-22.66"/>
<polygon fill="#63b8ff" stroke="#63b8ff" points="384.49,-56.78 395.07,-57.23 387.08,-50.28 384.49,-56.78"/>
</a>
</g>
</g>
<!-- Node5 -->
<g id="Node000005" class="node">
<title>Node5</title>
<g id="a_Node000005"><a xlink:href="mutt__header_8c.html" target="_top" xlink:title="Manipulate an email&#39;s header.">
<polygon fill="white" stroke="#666666" points="422,-22.25 340,-22.25 340,0 422,0 422,-22.25"/>
<text text-anchor="middle" x="381" y="-8.75" font-family="Helvetica,sans-Serif" font-size="10.00">mutt_header.c</text>
</a>
</g>
</g>
<!-- Node1&#45;&gt;Node5 -->
<g id="edge4_Node000001_Node000005" class="edge">
<title>Node1&#45;&gt;Node5</title>
<g id="a_edge4_Node000001_Node000005"><a xlink:title=" ">
<path fill="none" stroke="#63b8ff" d="M408.26,-48.63C401.73,-39.89 394.31,-29.95 388.86,-22.66"/>
<polygon fill="#63b8ff" stroke="#63b8ff" points="405.41,-50.66 414.19,-56.58 411.02,-46.48 405.41,-50.66"/>
</a>
</g>
</g>
<!-- Node6 -->
<g id="Node000006" class="node">
<title>Node6</title>
<g id="a_Node000006"><a xlink:href="mview_8c.html" target="_top" xlink:title="View of a Mailbox.">
<polygon fill="white" stroke="#666666" points="492.38,-22.25 439.62,-22.25 439.62,0 492.38,0 492.38,-22.25"/>
<text text-anchor="middle" x="466" y="-8.75" font-family="Helvetica,sans-Serif" font-size="10.00">mview.c</text>
</a>
</g>
</g>
<!-- Node1&#45;&gt;Node6 -->
<g id="edge5_Node000001_Node000006" class="edge">
<title>Node1&#45;&gt;Node6</title>
<g id="a_edge5_Node000001_Node000006"><a xlink:title=" ">
<path fill="none" stroke="#63b8ff" d="M437.88,-48.91C444.61,-40.1 452.31,-30.03 457.95,-22.66"/>
<polygon fill="#63b8ff" stroke="#63b8ff" points="435.3,-46.52 432.01,-56.59 440.86,-50.77 435.3,-46.52"/>
</a>
</g>
</g>
<!-- Node7 -->
<g id="Node000007" class="node">
<title>Node7</title>
<g id="a_Node000007"><a xlink:href="mx_8c.html" target="_top" xlink:title="Mailbox multiplexor.">
<polygon fill="white" stroke="#666666" points="547.88,-22.25 510.12,-22.25 510.12,0 547.88,0 547.88,-22.25"/>
<text text-anchor="middle" x="529" y="-8.75" font-family="Helvetica,sans-Serif" font-size="10.00">mx.c</text>
</a>
</g>
</g>
<!-- Node1&#45;&gt;Node7 -->
<g id="edge6_Node000001_Node000007" class="edge">
<title>Node1&#45;&gt;Node7</title>
<g id="a_edge6_Node000001_Node000007"><a xlink:title=" ">
<path fill="none" stroke="#63b8ff" d="M453.07,-52.42C471.32,-42.73 494.05,-30.67 509.87,-22.28"/>
<polygon fill="#63b8ff" stroke="#63b8ff" points="451.47,-49.31 444.27,-57.09 454.75,-55.49 451.47,-49.31"/>
</a>
</g>
</g>
<!-- Node8 -->
<g id="Node000008" class="node">
<title>Node8</title>
<g id="a_Node000008"><a xlink:href="pop_8c.html" target="_top" xlink:title="POP network mailbox.">
<polygon fill="white" stroke="#666666" points="629.62,-22.25 566.38,-22.25 566.38,0 629.62,0 629.62,-22.25"/>
<text text-anchor="middle" x="598" y="-8.75" font-family="Helvetica,sans-Serif" font-size="10.00">pop/pop.c</text>
</a>
</g>
</g>
<!-- Node1&#45;&gt;Node8 -->
<g id="edge7_Node000001_Node000008" class="edge">
<title>Node1&#45;&gt;Node8</title>
<g id="a_edge7_Node000001_Node000008"><a xlink:title=" ">
<path fill="none" stroke="#63b8ff" d="M466.8,-54.29C497.67,-44.37 538.3,-31.31 566.12,-22.37"/>
<polygon fill="#63b8ff" stroke="#63b8ff" points="465.81,-50.94 457.36,-57.33 467.95,-57.6 465.81,-50.94"/>
</a>
</g>
</g>
<!-- Node9 -->
<g id="Node000009" class="node">
<title>Node9</title>
<g id="a_Node000009"><a xlink:href="send_8c.html" target="_top" xlink:title="Prepare and send an email.">
<polygon fill="white" stroke="#666666" points="720.12,-22.25 647.88,-22.25 647.88,0 720.12,0 720.12,-22.25"/>
<text text-anchor="middle" x="684" y="-8.75" font-family="Helvetica,sans-Serif" font-size="10.00">send/send.c</text>
</a>
</g>
</g>
<!-- Node1&#45;&gt;Node9 -->
<g id="edge8_Node000001_Node000009" class="edge">
<title>Node1&#45;&gt;Node9</title>
<g id="a_edge8_Node000001_Node000009"><a xlink:title=" ">
<path fill="none" stroke="#63b8ff" d="M476.48,-57.12C520.21,-47.88 583.64,-34.39 639,-22.25 641.82,-21.63 644.73,-20.99 647.66,-20.34"/>
<polygon fill="#63b8ff" stroke="#63b8ff" points="475.79,-53.69 466.73,-59.18 477.23,-60.54 475.79,-53.69"/>
</a>
</g>
</g>
</g>
</svg>
