<?xml version="1.0" encoding="UTF-8" standalone="no"?>
<!DOCTYPE svg PUBLIC "-//W3C//DTD SVG 1.1//EN"
 "http://www.w3.org/Graphics/SVG/1.1/DTD/svg11.dtd">
<!-- Generated by graphviz version 2.40.1 (20161225.0304)
 -->
<!-- Title: mutt_path_dirname Pages: 1 -->
<svg width="254pt" height="66pt"
 viewBox="0.00 0.00 254.00 66.00" xmlns="http://www.w3.org/2000/svg" xmlns:xlink="http://www.w3.org/1999/xlink">
<g id="graph0" class="graph" transform="scale(1 1) rotate(0) translate(4 62)">
<title>mutt_path_dirname</title>
<polygon fill="#ffffff" stroke="transparent" points="-4,4 -4,-62 250,-62 250,4 -4,4"/>
<!-- Node3712 -->
<g id="node1" class="node">
<title>Node3712</title>
<polygon fill="#bfbfbf" stroke="#000000" points="0,-19.5 0,-38.5 113,-38.5 113,-19.5 0,-19.5"/>
<text text-anchor="middle" x="56.5" y="-26.5" font-family="Helvetica,sans-Serif" font-size="10.00" fill="#000000">mutt_path_dirname</text>
</g>
<!-- Node3713 -->
<g id="node2" class="node">
<title>Node3713</title>
<g id="a_node2"><a xlink:href="mutt_2string_8c.html#a3b8965b21d6e21536750f8883cd4333a" target="_top" xlink:title="Copy a string into a buffer (guaranteeing NUL&#45;termination) ">
<polygon fill="#ffffff" stroke="#000000" points="149,-38.5 149,-57.5 246,-57.5 246,-38.5 149,-38.5"/>
<text text-anchor="middle" x="197.5" y="-45.5" font-family="Helvetica,sans-Serif" font-size="10.00" fill="#000000">mutt_str_strfcpy</text>
</a>
</g>
</g>
<!-- Node3712&#45;&gt;Node3713 -->
<g id="edge1" class="edge">
<title>Node3712&#45;&gt;Node3713</title>
<path fill="none" stroke="#191970" d="M113.0377,-36.6185C121.4259,-37.7489 130.0888,-38.9162 138.5254,-40.0531"/>
<polygon fill="#191970" stroke="#191970" points="138.2925,-43.5532 148.6703,-41.4201 139.2273,-36.6159 138.2925,-43.5532"/>
</g>
<!-- Node3714 -->
<g id="node3" class="node">
<title>Node3714</title>
<g id="a_node3"><a xlink:href="mutt_2string_8c.html#ae48085384a6545e0fac589a88243ea31" target="_top" xlink:title="Copy a string, safely. ">
<polygon fill="#ffffff" stroke="#000000" points="150.5,-.5 150.5,-19.5 244.5,-19.5 244.5,-.5 150.5,-.5"/>
<text text-anchor="middle" x="197.5" y="-7.5" font-family="Helvetica,sans-Serif" font-size="10.00" fill="#000000">mutt_str_strdup</text>
</a>
</g>
</g>
<!-- Node3712&#45;&gt;Node3714 -->
<g id="edge2" class="edge">
<title>Node3712&#45;&gt;Node3714</title>
<path fill="none" stroke="#191970" d="M113.0377,-21.3815C122.0556,-20.1663 131.391,-18.9083 140.4214,-17.6914"/>
<polygon fill="#191970" stroke="#191970" points="141.0111,-21.1437 150.4541,-16.3395 140.0762,-14.2064 141.0111,-21.1437"/>
</g>
</g>
</svg>
