<?xml version="1.0" encoding="UTF-8" standalone="no"?>
<!DOCTYPE svg PUBLIC "-//W3C//DTD SVG 1.1//EN"
 "http://www.w3.org/Graphics/SVG/1.1/DTD/svg11.dtd">
<!-- Generated by graphviz version 2.44.0 (0)
 -->
<!-- Title: mutt_buffer_sanitize_filename Pages: 1 -->
<svg width="245pt" height="66pt"
 viewBox="0.00 0.00 245.00 66.00" xmlns="http://www.w3.org/2000/svg" xmlns:xlink="http://www.w3.org/1999/xlink">
<g id="graph0" class="graph" transform="scale(1 1) rotate(0) translate(4 62)">
<title>mutt_buffer_sanitize_filename</title>
<polygon fill="white" stroke="transparent" points="-4,4 -4,-62 241,-62 241,4 -4,4"/>
<!-- Node1 -->
<g id="node1" class="node">
<title>Node1</title>
<g id="a_node1"><a xlink:title="Replace unsafe characters in a filename.">
<polygon fill="#bfbfbf" stroke="black" points="0,-14 0,-44 104,-44 104,-14 0,-14"/>
<text text-anchor="start" x="8" y="-32" font-family="Helvetica" font-size="10.00">mutt_buffer_sanitize</text>
<text text-anchor="middle" x="52" y="-21" font-family="Helvetica" font-size="10.00">_filename</text>
</a>
</g>
</g>
<!-- Node2 -->
<g id="node2" class="node">
<title>Node2</title>
<g id="a_node2"><a xlink:href="buffer_8c.html#a819a9cb669c1a7e8e2218c672b794492" target="_top" xlink:title="Add a single character to a Buffer.">
<polygon fill="white" stroke="red" points="140,-38.5 140,-57.5 237,-57.5 237,-38.5 140,-38.5"/>
<text text-anchor="middle" x="188.5" y="-45.5" font-family="Helvetica" font-size="10.00">mutt_buffer_addch</text>
</a>
</g>
</g>
<!-- Node1&#45;&gt;Node2 -->
<g id="edge1" class="edge">
<title>Node1&#45;&gt;Node2</title>
<path fill="none" stroke="midnightblue" d="M104.23,-36.24C112.66,-37.43 121.45,-38.67 130.02,-39.88"/>
<polygon fill="midnightblue" stroke="midnightblue" points="129.56,-43.35 139.95,-41.28 130.54,-36.42 129.56,-43.35"/>
</g>
<!-- Node8 -->
<g id="node3" class="node">
<title>Node8</title>
<g id="a_node3"><a xlink:href="buffer_8c.html#adb26acff5f6b9bb7c322669bcb7c48e3" target="_top" xlink:title="Reset an existing Buffer.">
<polygon fill="white" stroke="red" points="142.5,-0.5 142.5,-19.5 234.5,-19.5 234.5,-0.5 142.5,-0.5"/>
<text text-anchor="middle" x="188.5" y="-7.5" font-family="Helvetica" font-size="10.00">mutt_buffer_reset</text>
</a>
</g>
</g>
<!-- Node1&#45;&gt;Node8 -->
<g id="edge2" class="edge">
<title>Node1&#45;&gt;Node8</title>
<path fill="none" stroke="midnightblue" d="M104.23,-21.76C113.29,-20.48 122.77,-19.14 131.94,-17.85"/>
<polygon fill="midnightblue" stroke="midnightblue" points="132.72,-21.27 142.13,-16.41 131.74,-14.34 132.72,-21.27"/>
</g>
</g>
</svg>
