<?xml version="1.0" encoding="UTF-8" standalone="no"?>
<!DOCTYPE svg PUBLIC "-//W3C//DTD SVG 1.1//EN"
 "http://www.w3.org/Graphics/SVG/1.1/DTD/svg11.dtd">
<!-- Generated by graphviz version 2.44.0 (0)
 -->
<!-- Title: mutt_buffer_sanitize_filename Pages: 1 -->
<svg width="438pt" height="53pt"
 viewBox="0.00 0.00 438.00 52.50" xmlns="http://www.w3.org/2000/svg" xmlns:xlink="http://www.w3.org/1999/xlink">
<g id="graph0" class="graph" transform="scale(1 1) rotate(0) translate(4 48.5)">
<title>mutt_buffer_sanitize_filename</title>
<polygon fill="white" stroke="transparent" points="-4,4 -4,-48.5 434,-48.5 434,4 -4,4"/>
<!-- Node1 -->
<g id="node1" class="node">
<title>Node1</title>
<g id="a_node1"><a xlink:title="Replace unsafe characters in a filename.">
<polygon fill="#bfbfbf" stroke="black" points="326,-0.5 326,-30.5 430,-30.5 430,-0.5 326,-0.5"/>
<text text-anchor="start" x="334" y="-18.5" font-family="Helvetica" font-size="10.00">mutt_buffer_sanitize</text>
<text text-anchor="middle" x="378" y="-7.5" font-family="Helvetica" font-size="10.00">_filename</text>
</a>
</g>
</g>
<!-- Node2 -->
<g id="node2" class="node">
<title>Node2</title>
<g id="a_node2"><a xlink:href="mailcap_8h.html#ac5eff1afc4d8341e095a90c3b9f68104" target="_top" xlink:title="Expand expandos in a command.">
<polygon fill="white" stroke="red" points="155,-25 155,-44 290,-44 290,-25 155,-25"/>
<text text-anchor="middle" x="222.5" y="-32" font-family="Helvetica" font-size="10.00">mailcap_expand_command</text>
</a>
</g>
</g>
<!-- Node1&#45;&gt;Node2 -->
<g id="edge1" class="edge">
<title>Node1&#45;&gt;Node2</title>
<path fill="none" stroke="midnightblue" d="M315.79,-23.08C307.39,-24.12 298.73,-25.19 290.23,-26.24"/>
<polygon fill="midnightblue" stroke="midnightblue" points="316.39,-26.53 325.89,-21.83 315.53,-19.58 316.39,-26.53"/>
</g>
<!-- Node172 -->
<g id="node3" class="node">
<title>Node172</title>
<g id="a_node3"><a xlink:href="mailcap_8c.html#a5dfe54f8a085654fe55107a3df120abf" target="_top" xlink:title="Parse a mailcap entry.">
<polygon fill="white" stroke="red" points="0,-6 0,-25 119,-25 119,-6 0,-6"/>
<text text-anchor="middle" x="59.5" y="-13" font-family="Helvetica" font-size="10.00">rfc1524_mailcap_parse</text>
</a>
</g>
</g>
<!-- Node1&#45;&gt;Node172 -->
<g id="edge3" class="edge">
<title>Node1&#45;&gt;Node172</title>
<path fill="none" stroke="midnightblue" d="M315.52,-15.5C258.76,-15.5 175.02,-15.5 119.16,-15.5"/>
<polygon fill="midnightblue" stroke="midnightblue" points="315.8,-19 325.8,-15.5 315.8,-12 315.8,-19"/>
</g>
<!-- Node2&#45;&gt;Node172 -->
<g id="edge2" class="edge">
<title>Node2&#45;&gt;Node172</title>
<path fill="none" stroke="midnightblue" d="M144.63,-25.43C136.09,-24.42 127.49,-23.41 119.22,-22.43"/>
<polygon fill="midnightblue" stroke="midnightblue" points="144.28,-28.91 154.62,-26.61 145.1,-21.96 144.28,-28.91"/>
</g>
</g>
</svg>
