<?xml version="1.0" encoding="UTF-8" standalone="no"?>
<!DOCTYPE svg PUBLIC "-//W3C//DTD SVG 1.1//EN"
 "http://www.w3.org/Graphics/SVG/1.1/DTD/svg11.dtd">
<!-- Generated by graphviz version 12.2.1 (20241206.2353)
 -->
<!-- Title: mutt_window_reflow Pages: 1 -->
<svg width="431pt" height="166pt"
 viewBox="0.00 0.00 431.00 166.25" xmlns="http://www.w3.org/2000/svg" xmlns:xlink="http://www.w3.org/1999/xlink">
<g id="graph0" class="graph" transform="scale(1 1) rotate(0) translate(4 162.25)">
<title>mutt_window_reflow</title>
<!-- Node1 -->
<g id="Node000001" class="node">
<title>Node1</title>
<g id="a_Node000001"><a xlink:title="Resize a Window and its children.">
<polygon fill="#999999" stroke="#666666" points="112,-90.25 0,-90.25 0,-68 112,-68 112,-90.25"/>
<text text-anchor="middle" x="56" y="-76.75" font-family="Helvetica,sans-Serif" font-size="10.00">mutt_window_reflow</text>
</a>
</g>
</g>
<!-- Node2 -->
<g id="Node000002" class="node">
<title>Node2</title>
<g id="a_Node000002"><a xlink:href="debug_2window_8c.html#a3e949b6cf149926e285fbfdad1e94eb0" target="_top" xlink:title="Dump all windows to debug output.">
<polygon fill="#fff0f0" stroke="red" points="245.75,-158.25 148,-158.25 148,-136 245.75,-136 245.75,-158.25"/>
<text text-anchor="middle" x="196.88" y="-144.75" font-family="Helvetica,sans-Serif" font-size="10.00">debug_win_dump</text>
</a>
</g>
</g>
<!-- Node1&#45;&gt;Node2 -->
<g id="edge1_Node000001_Node000002" class="edge">
<title>Node1&#45;&gt;Node2</title>
<g id="a_edge1_Node000001_Node000002"><a xlink:title=" ">
<path fill="none" stroke="#63b8ff" d="M80.56,-90.66C102.9,-101.6 136.72,-118.16 161.97,-130.52"/>
<polygon fill="#63b8ff" stroke="#63b8ff" points="160.32,-133.61 170.84,-134.87 163.4,-127.33 160.32,-133.61"/>
</a>
</g>
</g>
<!-- Node17 -->
<g id="Node000017" class="node">
<title>Node17</title>
<g id="a_Node000017"><a xlink:href="neomutt_8c.html#ab58efd47fa66c8187cfdce43078c94fa" target="_top" xlink:title="Get the private data for a Module.">
<polygon fill="white" stroke="#666666" points="423,-119.25 281.75,-119.25 281.75,-97 423,-97 423,-119.25"/>
<text text-anchor="middle" x="352.38" y="-105.75" font-family="Helvetica,sans-Serif" font-size="10.00">neomutt_get_module_data</text>
</a>
</g>
</g>
<!-- Node1&#45;&gt;Node17 -->
<g id="edge3_Node000001_Node000017" class="edge">
<title>Node1&#45;&gt;Node17</title>
<g id="a_edge3_Node000001_Node000017"><a xlink:title=" ">
<path fill="none" stroke="#63b8ff" d="M112.33,-85.35C124.1,-86.63 136.46,-87.95 148,-89.12 188.29,-93.22 233.1,-97.44 270.38,-100.86"/>
<polygon fill="#63b8ff" stroke="#63b8ff" points="269.91,-104.33 280.19,-101.76 270.55,-97.36 269.91,-104.33"/>
</a>
</g>
</g>
<!-- Node24 -->
<g id="Node000024" class="node">
<title>Node24</title>
<g id="a_Node000024"><a xlink:href="mutt__window_8c.html#a182bdee15eddac41d849c7b2a5896554" target="_top" xlink:title="Notify observers of changes to a Window and its children.">
<polygon fill="#fff0f0" stroke="red" points="245.38,-62.25 148.38,-62.25 148.38,-40 245.38,-40 245.38,-62.25"/>
<text text-anchor="middle" x="196.88" y="-48.75" font-family="Helvetica,sans-Serif" font-size="10.00">window_notify_all</text>
</a>
</g>
</g>
<!-- Node1&#45;&gt;Node24 -->
<g id="edge4_Node000001_Node000024" class="edge">
<title>Node1&#45;&gt;Node24</title>
<g id="a_edge4_Node000001_Node000024"><a xlink:title=" ">
<path fill="none" stroke="#63b8ff" d="M112.29,-67.98C120.31,-66.36 128.59,-64.69 136.68,-63.06"/>
<polygon fill="#63b8ff" stroke="#63b8ff" points="137.36,-66.49 146.47,-61.09 135.97,-59.63 137.36,-66.49"/>
</a>
</g>
</g>
<!-- Node30 -->
<g id="Node000030" class="node">
<title>Node30</title>
<g id="a_Node000030"><a xlink:href="reflow_8c.html#a50e81ea47b75f474efabdfce6231fe7f" target="_top" xlink:title="Reflow Windows.">
<polygon fill="#fff0f0" stroke="red" points="239.38,-22.25 154.38,-22.25 154.38,0 239.38,0 239.38,-22.25"/>
<text text-anchor="middle" x="196.88" y="-8.75" font-family="Helvetica,sans-Serif" font-size="10.00">window_reflow</text>
</a>
</g>
</g>
<!-- Node1&#45;&gt;Node30 -->
<g id="edge7_Node000001_Node000030" class="edge">
<title>Node1&#45;&gt;Node30</title>
<g id="a_edge7_Node000001_Node000030"><a xlink:title=" ">
<path fill="none" stroke="#63b8ff" d="M77.69,-67.53C95.97,-57.45 123.44,-42.7 148,-31.12 150.77,-29.82 153.65,-28.51 156.55,-27.22"/>
<polygon fill="#63b8ff" stroke="#63b8ff" points="157.91,-30.44 165.69,-23.26 155.13,-24.02 157.91,-30.44"/>
</a>
</g>
</g>
<!-- Node2&#45;&gt;Node17 -->
<g id="edge2_Node000002_Node000017" class="edge">
<title>Node2&#45;&gt;Node17</title>
<g id="a_edge2_Node000002_Node000017"><a xlink:title=" ">
<path fill="none" stroke="#63b8ff" d="M243.51,-135.53C259.61,-131.44 277.9,-126.79 294.79,-122.5"/>
<polygon fill="#63b8ff" stroke="#63b8ff" points="295.35,-125.97 304.18,-120.12 293.63,-119.19 295.35,-125.97"/>
</a>
</g>
</g>
<!-- Node24&#45;&gt;Node17 -->
<g id="edge5_Node000024_Node000017" class="edge">
<title>Node24&#45;&gt;Node17</title>
<g id="a_edge5_Node000024_Node000017"><a xlink:title=" ">
<path fill="none" stroke="#63b8ff" d="M228.94,-62.66C252.16,-71.28 284.17,-83.17 309.63,-92.62"/>
<polygon fill="#63b8ff" stroke="#63b8ff" points="308.08,-95.78 318.68,-95.98 310.52,-89.22 308.08,-95.78"/>
</a>
</g>
</g>
<!-- Node24&#45;&gt;Node24 -->
<g id="edge6_Node000024_Node000024" class="edge">
<title>Node24&#45;&gt;Node24</title>
<g id="a_edge6_Node000024_Node000024"><a xlink:title=" ">
<path fill="none" stroke="#63b8ff" d="M173.87,-62.49C165.27,-71.28 172.94,-80.25 196.88,-80.25 209.97,-80.25 218.19,-77.57 221.55,-73.7"/>
<polygon fill="#63b8ff" stroke="#63b8ff" points="225.04,-73.36 220.1,-63.98 218.11,-74.39 225.04,-73.36"/>
</a>
</g>
</g>
</g>
</svg>
