<?xml version="1.0" encoding="UTF-8" standalone="no"?>
<!DOCTYPE svg PUBLIC "-//W3C//DTD SVG 1.1//EN"
 "http://www.w3.org/Graphics/SVG/1.1/DTD/svg11.dtd">
<!-- Generated by graphviz version 7.1.0 (0)
 -->
<!-- Title: slist_equal Pages: 1 -->
<svg width="194pt" height="101pt"
 viewBox="0.00 0.00 194.00 101.00" xmlns="http://www.w3.org/2000/svg" xmlns:xlink="http://www.w3.org/1999/xlink">
<g id="graph0" class="graph" transform="scale(1 1) rotate(0) translate(4 97)">
<title>slist_equal</title>
<!-- Node1 -->
<g id="node1" class="node">
<title>Node1</title>
<g id="a_node1"><a xlink:title="Compare two string lists.">
<polygon fill="#999999" stroke="#666666" points="186,-56 122,-56 122,-37 186,-37 186,-56"/>
<text text-anchor="middle" x="154" y="-44" font-family="Helvetica,sans-Serif" font-size="10.00">slist_equal</text>
</a>
</g>
</g>
<!-- Node2 -->
<g id="node2" class="node">
<title>Node2</title>
<g id="a_node2"><a xlink:href="group__cfg__type__native__set.html#ga055775a6492a473ed984369f01e0eaea" target="_top" xlink:title="Set a Slist config item by Slist &#45; Implements ConfigSetType::native_set() &#45;.">
<polygon fill="white" stroke="#666666" points="86,-93 0,-93 0,-74 86,-74 86,-93"/>
<text text-anchor="middle" x="43" y="-81" font-family="Helvetica,sans-Serif" font-size="10.00">slist_native_set</text>
</a>
</g>
</g>
<!-- Node1&#45;&gt;Node2 -->
<g id="edge1" class="edge">
<title>Node1&#45;&gt;Node2</title>
<path fill="none" stroke="#63b8ff" d="M113.09,-60.05C99.92,-64.52 85.52,-69.41 73.29,-73.56"/>
<polygon fill="#63b8ff" stroke="#63b8ff" points="114.01,-63.43 122.36,-56.9 111.76,-56.8 114.01,-63.43"/>
</g>
<!-- Node3 -->
<g id="node3" class="node">
<title>Node3</title>
<g id="a_node3"><a xlink:href="group__cfg__type__reset.html#gafe767f31832058e2be31c95972e1b254" target="_top" xlink:title="Reset a Slist to its initial value &#45; Implements ConfigSetType::reset() &#45;.">
<polygon fill="white" stroke="#666666" points="74,-56 12,-56 12,-37 74,-37 74,-56"/>
<text text-anchor="middle" x="43" y="-44" font-family="Helvetica,sans-Serif" font-size="10.00">slist_reset</text>
</a>
</g>
</g>
<!-- Node1&#45;&gt;Node3 -->
<g id="edge2" class="edge">
<title>Node1&#45;&gt;Node3</title>
<path fill="none" stroke="#63b8ff" d="M110.56,-46.5C98.53,-46.5 85.66,-46.5 74.49,-46.5"/>
<polygon fill="#63b8ff" stroke="#63b8ff" points="110.25,-50 120.25,-46.5 110.25,-43 110.25,-50"/>
</g>
<!-- Node4 -->
<g id="node4" class="node">
<title>Node4</title>
<g id="a_node4"><a xlink:href="group__cfg__type__string__set.html#ga038de06121ff19dcea9bb18d34df4ad9" target="_top" xlink:title="Set a Slist by string &#45; Implements ConfigSetType::string_set() &#45;.">
<polygon fill="white" stroke="#666666" points="85,-19 1,-19 1,0 85,0 85,-19"/>
<text text-anchor="middle" x="43" y="-7" font-family="Helvetica,sans-Serif" font-size="10.00">slist_string_set</text>
</a>
</g>
</g>
<!-- Node1&#45;&gt;Node4 -->
<g id="edge3" class="edge">
<title>Node1&#45;&gt;Node4</title>
<path fill="none" stroke="#63b8ff" d="M113.09,-32.95C99.92,-28.48 85.52,-23.59 73.29,-19.44"/>
<polygon fill="#63b8ff" stroke="#63b8ff" points="111.76,-36.2 122.36,-36.1 114.01,-29.57 111.76,-36.2"/>
</g>
</g>
</svg>
