<?xml version="1.0" encoding="UTF-8" standalone="no"?>
<!DOCTYPE svg PUBLIC "-//W3C//DTD SVG 1.1//EN"
 "http://www.w3.org/Graphics/SVG/1.1/DTD/svg11.dtd">
<!-- Generated by graphviz version 12.2.1 (20241206.2353)
 -->
<!-- Title: sync_mailbox Pages: 1 -->
<svg width="210pt" height="88pt"
 viewBox="0.00 0.00 209.50 88.25" xmlns="http://www.w3.org/2000/svg" xmlns:xlink="http://www.w3.org/1999/xlink">
<g id="graph0" class="graph" transform="scale(1 1) rotate(0) translate(4 84.25)">
<title>sync_mailbox</title>
<!-- Node1 -->
<g id="Node000001" class="node">
<title>Node1</title>
<g id="a_Node000001"><a xlink:title="Save changes to disk.">
<polygon fill="#999999" stroke="#666666" points="201.5,-42.25 124.75,-42.25 124.75,-20 201.5,-20 201.5,-42.25"/>
<text text-anchor="middle" x="163.12" y="-28.75" font-family="Helvetica,sans-Serif" font-size="10.00">sync_mailbox</text>
</a>
</g>
</g>
<!-- Node2 -->
<g id="Node000002" class="node">
<title>Node2</title>
<g id="a_Node000002"><a xlink:href="mx_8c.html#af9e949965d56e69eb9a6a9aa640614bb" target="_top" xlink:title="Save changes and close mailbox.">
<polygon fill="#fff0f0" stroke="red" points="88.75,-62.25 0,-62.25 0,-40 88.75,-40 88.75,-62.25"/>
<text text-anchor="middle" x="44.38" y="-48.75" font-family="Helvetica,sans-Serif" font-size="10.00">mx_mbox_close</text>
</a>
</g>
</g>
<!-- Node1&#45;&gt;Node2 -->
<g id="edge1_Node000001_Node000002" class="edge">
<title>Node1&#45;&gt;Node2</title>
<g id="a_edge1_Node000001_Node000002"><a xlink:title=" ">
<path fill="none" stroke="#63b8ff" d="M113.35,-39.48C105.27,-40.87 96.93,-42.29 88.99,-43.65"/>
<polygon fill="#63b8ff" stroke="#63b8ff" points="113.78,-42.96 123.05,-37.82 112.6,-36.06 113.78,-42.96"/>
</a>
</g>
</g>
<!-- Node467 -->
<g id="Node000467" class="node">
<title>Node467</title>
<g id="a_Node000467"><a xlink:href="mx_8c.html#ae31027d1219060a9dc2b2e6b82c1bf6c" target="_top" xlink:title="Save changes to mailbox.">
<polygon fill="#fff0f0" stroke="red" points="87.25,-22.25 1.5,-22.25 1.5,0 87.25,0 87.25,-22.25"/>
<text text-anchor="middle" x="44.38" y="-8.75" font-family="Helvetica,sans-Serif" font-size="10.00">mx_mbox_sync</text>
</a>
</g>
</g>
<!-- Node1&#45;&gt;Node467 -->
<g id="edge3_Node000001_Node000467" class="edge">
<title>Node1&#45;&gt;Node467</title>
<g id="a_edge3_Node000001_Node000467"><a xlink:title=" ">
<path fill="none" stroke="#63b8ff" d="M113.4,-22.78C104.74,-21.29 95.79,-19.76 87.34,-18.31"/>
<polygon fill="#63b8ff" stroke="#63b8ff" points="112.6,-26.19 123.05,-24.43 113.78,-19.29 112.6,-26.19"/>
</a>
</g>
</g>
<!-- Node2&#45;&gt;Node2 -->
<g id="edge2_Node000002_Node000002" class="edge">
<title>Node2&#45;&gt;Node2</title>
<g id="a_edge2_Node000002_Node000002"><a xlink:title=" ">
<path fill="none" stroke="#63b8ff" d="M65.17,-73.7C62.34,-77.57 55.41,-80.25 44.38,-80.25 24.2,-80.25 17.73,-71.28 24.98,-62.49"/>
<polygon fill="#63b8ff" stroke="#63b8ff" points="68.67,-73.47 63.95,-63.99 61.73,-74.35 68.67,-73.47"/>
</a>
</g>
</g>
</g>
</svg>
