<?xml version="1.0" encoding="UTF-8" standalone="no"?>
<!DOCTYPE svg PUBLIC "-//W3C//DTD SVG 1.1//EN"
 "http://www.w3.org/Graphics/SVG/1.1/DTD/svg11.dtd">
<!-- Generated by graphviz version 7.1.0 (0)
 -->
<!-- Title: trash_append Pages: 1 -->
<svg width="213pt" height="82pt"
 viewBox="0.00 0.00 213.00 82.00" xmlns="http://www.w3.org/2000/svg" xmlns:xlink="http://www.w3.org/1999/xlink">
<g id="graph0" class="graph" transform="scale(1 1) rotate(0) translate(4 78)">
<title>trash_append</title>
<!-- Node1 -->
<g id="node1" class="node">
<title>Node1</title>
<g id="a_node1"><a xlink:title="Move deleted mails to the trash folder.">
<polygon fill="#999999" stroke="#666666" points="205,-56 125,-56 125,-37 205,-37 205,-56"/>
<text text-anchor="middle" x="165" y="-44" font-family="Helvetica,sans-Serif" font-size="10.00">trash_append</text>
</a>
</g>
</g>
<!-- Node2 -->
<g id="node2" class="node">
<title>Node2</title>
<g id="a_node2"><a xlink:href="mx_8c.html#af9e949965d56e69eb9a6a9aa640614bb" target="_top" xlink:title="Save changes and close mailbox.">
<polygon fill="#fff0f0" stroke="red" points="89,-56 0,-56 0,-37 89,-37 89,-56"/>
<text text-anchor="middle" x="44.5" y="-44" font-family="Helvetica,sans-Serif" font-size="10.00">mx_mbox_close</text>
</a>
</g>
</g>
<!-- Node1&#45;&gt;Node2 -->
<g id="edge1" class="edge">
<title>Node1&#45;&gt;Node2</title>
<path fill="none" stroke="#63b8ff" d="M113.12,-39.81C105.18,-39.7 97.04,-39.74 89.28,-39.96"/>
<polygon fill="#63b8ff" stroke="#63b8ff" points="112.94,-43.31 123.03,-40.06 113.12,-36.31 112.94,-43.31"/>
</g>
<!-- Node512 -->
<g id="node3" class="node">
<title>Node512</title>
<g id="a_node3"><a xlink:href="mx_8c.html#ae31027d1219060a9dc2b2e6b82c1bf6c" target="_top" xlink:title="Save changes to mailbox.">
<polygon fill="#fff0f0" stroke="red" points="87.5,-19 1.5,-19 1.5,0 87.5,0 87.5,-19"/>
<text text-anchor="middle" x="44.5" y="-7" font-family="Helvetica,sans-Serif" font-size="10.00">mx_mbox_sync</text>
</a>
</g>
</g>
<!-- Node1&#45;&gt;Node512 -->
<g id="edge4" class="edge">
<title>Node1&#45;&gt;Node512</title>
<path fill="none" stroke="#63b8ff" d="M121.47,-33.22C106.92,-28.68 90.9,-23.68 77.34,-19.44"/>
<polygon fill="#63b8ff" stroke="#63b8ff" points="120.21,-36.49 130.8,-36.13 122.3,-29.81 120.21,-36.49"/>
</g>
<!-- Node2&#45;&gt;Node1 -->
<g id="edge3" class="edge">
<title>Node2&#45;&gt;Node1</title>
<path fill="none" stroke="#63b8ff" d="M100.58,-53.24C108.66,-53.29 116.85,-53.18 124.54,-52.9"/>
<polygon fill="#63b8ff" stroke="#63b8ff" points="100.85,-49.74 90.79,-53.07 100.73,-56.74 100.85,-49.74"/>
</g>
<!-- Node2&#45;&gt;Node2 -->
<g id="edge2" class="edge">
<title>Node2&#45;&gt;Node2</title>
<path fill="none" stroke="#63b8ff" d="M65.89,-67.43C63.21,-71.29 56.08,-74 44.5,-74 23.32,-74 17.03,-64.94 25.64,-56.37"/>
<polygon fill="#63b8ff" stroke="#63b8ff" points="69.34,-66.81 63.7,-57.84 62.51,-68.37 69.34,-66.81"/>
</g>
</g>
</svg>
