<?xml version="1.0" encoding="UTF-8" standalone="no"?>
<!DOCTYPE svg PUBLIC "-//W3C//DTD SVG 1.1//EN"
 "http://www.w3.org/Graphics/SVG/1.1/DTD/svg11.dtd">
<!-- Generated by graphviz version 7.1.0 (0)
 -->
<!-- Title: mx_mbox_close Pages: 1 -->
<svg width="681pt" height="1230pt"
 viewBox="0.00 0.00 681.00 1230.00" xmlns="http://www.w3.org/2000/svg" xmlns:xlink="http://www.w3.org/1999/xlink">
<g id="graph0" class="graph" transform="scale(1 1) rotate(0) translate(4 1226)">
<title>mx_mbox_close</title>
<!-- Node1 -->
<g id="node1" class="node">
<title>Node1</title>
<g id="a_node1"><a xlink:title="Save changes and close mailbox.">
<polygon fill="#999999" stroke="#666666" points="89,-619 0,-619 0,-600 89,-600 89,-619"/>
<text text-anchor="middle" x="44.5" y="-607" font-family="Helvetica,sans-Serif" font-size="10.00">mx_mbox_close</text>
</a>
</g>
</g>
<!-- Node1&#45;&gt;Node1 -->
<g id="edge37" class="edge">
<title>Node1&#45;&gt;Node1</title>
<path fill="none" stroke="#63b8ff" d="M21.33,-619.37C10.76,-627.94 18.48,-637 44.5,-637 58.73,-637 67.48,-634.29 70.77,-630.43"/>
<polygon fill="#63b8ff" stroke="#63b8ff" points="74.15,-629.51 68.08,-620.83 67.41,-631.4 74.15,-629.51"/>
</g>
<!-- Node2 -->
<g id="node2" class="node">
<title>Node2</title>
<g id="a_node2"><a xlink:href="muttlib_8c.html#adde3990a0490dfba609fc94dbdbfd6b3" target="_top" xlink:title="Create the canonical path.">
<polygon fill="#fff0f0" stroke="red" points="240.5,-1222 144.5,-1222 144.5,-1203 240.5,-1203 240.5,-1222"/>
<text text-anchor="middle" x="192.5" y="-1210" font-family="Helvetica,sans-Serif" font-size="10.00">buf_expand_path</text>
</a>
</g>
</g>
<!-- Node1&#45;&gt;Node2 -->
<g id="edge1" class="edge">
<title>Node1&#45;&gt;Node2</title>
<path fill="none" stroke="#63b8ff" d="M45.41,-619.28C44.97,-688.47 45.69,-1104.21 125,-1194.5 127.65,-1197.51 130.74,-1200.04 134.12,-1202.17"/>
<polygon fill="#63b8ff" stroke="#63b8ff" points="132.37,-1205.21 142.89,-1206.48 135.46,-1198.93 132.37,-1205.21"/>
</g>
<!-- Node99 -->
<g id="node3" class="node">
<title>Node99</title>
<g id="a_node3"><a xlink:href="buffer_8c.html#a4245e227baa2a9beb6991917404aab0d" target="_top" xlink:title="Is the Buffer empty?">
<polygon fill="white" stroke="#666666" points="231.5,-1185 153.5,-1185 153.5,-1166 231.5,-1166 231.5,-1185"/>
<text text-anchor="middle" x="192.5" y="-1173" font-family="Helvetica,sans-Serif" font-size="10.00">buf_is_empty</text>
</a>
</g>
</g>
<!-- Node1&#45;&gt;Node99 -->
<g id="edge2" class="edge">
<title>Node1&#45;&gt;Node99</title>
<path fill="none" stroke="#63b8ff" d="M45.51,-619.08C45.75,-685.17 50.39,-1073.33 125,-1157.5 129.74,-1162.85 135.88,-1166.68 142.52,-1169.41"/>
<polygon fill="#63b8ff" stroke="#63b8ff" points="141.2,-1172.66 151.79,-1172.39 143.35,-1166 141.2,-1172.66"/>
</g>
<!-- Node20 -->
<g id="node4" class="node">
<title>Node20</title>
<g id="a_node4"><a xlink:href="pool_8c.html#a41cba27c25d33cb6822789a2856093f2" target="_top" xlink:title="Get a Buffer from the pool.">
<polygon fill="#fff0f0" stroke="red" points="231,-1148 154,-1148 154,-1129 231,-1129 231,-1148"/>
<text text-anchor="middle" x="192.5" y="-1136" font-family="Helvetica,sans-Serif" font-size="10.00">buf_pool_get</text>
</a>
</g>
</g>
<!-- Node1&#45;&gt;Node20 -->
<g id="edge3" class="edge">
<title>Node1&#45;&gt;Node20</title>
<path fill="none" stroke="#63b8ff" d="M45.62,-619.25C46.6,-683.2 55.22,-1042.58 125,-1120.5 129.82,-1125.88 136.06,-1129.72 142.79,-1132.45"/>
<polygon fill="#63b8ff" stroke="#63b8ff" points="141.6,-1135.75 152.19,-1135.44 143.72,-1129.08 141.6,-1135.75"/>
</g>
<!-- Node26 -->
<g id="node5" class="node">
<title>Node26</title>
<g id="a_node5"><a xlink:href="pool_8c.html#a4cc6068279461cb8628219586dfa35a1" target="_top" xlink:title="Return a Buffer to the pool.">
<polygon fill="#fff0f0" stroke="red" points="240,-1111 145,-1111 145,-1092 240,-1092 240,-1111"/>
<text text-anchor="middle" x="192.5" y="-1099" font-family="Helvetica,sans-Serif" font-size="10.00">buf_pool_release</text>
</a>
</g>
</g>
<!-- Node1&#45;&gt;Node26 -->
<g id="edge4" class="edge">
<title>Node1&#45;&gt;Node26</title>
<path fill="none" stroke="#63b8ff" d="M45.75,-619.33C47.52,-680.76 60,-1011.78 125,-1083.5 127.73,-1086.52 130.92,-1089.05 134.38,-1091.17"/>
<polygon fill="#63b8ff" stroke="#63b8ff" points="132.85,-1094.32 143.38,-1095.48 135.87,-1088.01 132.85,-1094.32"/>
</g>
<!-- Node29 -->
<g id="node6" class="node">
<title>Node29</title>
<g id="a_node6"><a xlink:href="buffer_8c.html#a02123807d31181ac701b566226e93b33" target="_top" xlink:title="Format a string overwriting a Buffer.">
<polygon fill="#fff0f0" stroke="red" points="224,-1074 161,-1074 161,-1055 224,-1055 224,-1074"/>
<text text-anchor="middle" x="192.5" y="-1062" font-family="Helvetica,sans-Serif" font-size="10.00">buf_printf</text>
</a>
</g>
</g>
<!-- Node1&#45;&gt;Node29 -->
<g id="edge5" class="edge">
<title>Node1&#45;&gt;Node29</title>
<path fill="none" stroke="#63b8ff" d="M46.02,-619.49C49.25,-677.76 68.28,-973.62 125,-1040.5 131.45,-1048.1 140.5,-1053.3 149.85,-1056.85"/>
<polygon fill="#63b8ff" stroke="#63b8ff" points="148.8,-1060.18 159.39,-1059.85 150.9,-1053.51 148.8,-1060.18"/>
</g>
<!-- Node31 -->
<g id="node7" class="node">
<title>Node31</title>
<g id="a_node7"><a xlink:href="buffer_8c.html#ac958acbd189e463a2c3bbc2f23aaeb1e" target="_top" xlink:title="Copy a string into a Buffer.">
<polygon fill="#fff0f0" stroke="red" points="547.5,-1016 482.5,-1016 482.5,-997 547.5,-997 547.5,-1016"/>
<text text-anchor="middle" x="515" y="-1004" font-family="Helvetica,sans-Serif" font-size="10.00">buf_strcpy</text>
</a>
</g>
</g>
<!-- Node1&#45;&gt;Node31 -->
<g id="edge6" class="edge">
<title>Node1&#45;&gt;Node31</title>
<path fill="none" stroke="#63b8ff" d="M45.96,-619.45C48.76,-674.98 65.35,-945.86 125,-997.5 175.58,-1041.29 380.75,-1022.71 471.02,-1012.05"/>
<polygon fill="#63b8ff" stroke="#63b8ff" points="471.2,-1015.56 480.71,-1010.89 470.36,-1008.61 471.2,-1015.56"/>
</g>
<!-- Node32 -->
<g id="node8" class="node">
<title>Node32</title>
<g id="a_node8"><a xlink:href="buffer_8h.html#a728ebc5a947b77c8d56db44ce553a7ab" target="_top" xlink:title="Convert a buffer to a const char * &quot;string&quot;.">
<polygon fill="white" stroke="#666666" points="673,-430 609,-430 609,-411 673,-411 673,-430"/>
<text text-anchor="middle" x="641" y="-418" font-family="Helvetica,sans-Serif" font-size="10.00">buf_string</text>
</a>
</g>
</g>
<!-- Node1&#45;&gt;Node32 -->
<g id="edge7" class="edge">
<title>Node1&#45;&gt;Node32</title>
<path fill="none" stroke="#63b8ff" d="M45.88,-599.78C48.3,-544.35 63.31,-268.91 125,-218.5 202.61,-155.08 498.8,-203.13 573,-270.5 611.77,-305.71 629.39,-367.58 636.26,-399.75"/>
<polygon fill="#63b8ff" stroke="#63b8ff" points="632.79,-400.24 638.16,-409.38 639.66,-398.89 632.79,-400.24"/>
</g>
<!-- Node105 -->
<g id="node9" class="node">
<title>Node105</title>
<g id="a_node9"><a xlink:href="config_2helpers_8c.html#ae50f679dd6c5bd1ba820884c8602f038" target="_top" xlink:title="Get a boolean config item by name.">
<polygon fill="#fff0f0" stroke="red" points="558,-771 472,-771 472,-752 558,-752 558,-771"/>
<text text-anchor="middle" x="515" y="-759" font-family="Helvetica,sans-Serif" font-size="10.00">cs_subset_bool</text>
</a>
</g>
</g>
<!-- Node1&#45;&gt;Node105 -->
<g id="edge8" class="edge">
<title>Node1&#45;&gt;Node105</title>
<path fill="none" stroke="#63b8ff" d="M45.94,-619.12C48.03,-652.14 59.81,-761.51 125,-808.5 178.39,-846.99 357.66,-836.37 421,-818.5 448.53,-810.74 475.94,-792.29 493.8,-778.47"/>
<polygon fill="#63b8ff" stroke="#63b8ff" points="495.87,-781.3 501.49,-772.32 491.5,-775.83 495.87,-781.3"/>
</g>
<!-- Node1190 -->
<g id="node10" class="node">
<title>Node1190</title>
<g id="a_node10"><a xlink:href="config_2helpers_8c.html#a9154ba713ce99b0937f475eec7c61af9" target="_top" xlink:title="Get a quad&#45;value config item by name.">
<polygon fill="#fff0f0" stroke="red" points="237,-167 148,-167 148,-148 237,-148 237,-167"/>
<text text-anchor="middle" x="192.5" y="-155" font-family="Helvetica,sans-Serif" font-size="10.00">cs_subset_quad</text>
</a>
</g>
</g>
<!-- Node1&#45;&gt;Node1190 -->
<g id="edge9" class="edge">
<title>Node1&#45;&gt;Node1190</title>
<path fill="none" stroke="#63b8ff" d="M46.03,-599.58C49.32,-541.71 68.62,-247.89 125,-181.5 128.54,-177.33 132.86,-173.89 137.58,-171.05"/>
<polygon fill="#63b8ff" stroke="#63b8ff" points="138.96,-174.27 146.36,-166.68 135.85,-168 138.96,-174.27"/>
</g>
<!-- Node33 -->
<g id="node11" class="node">
<title>Node33</title>
<g id="a_node11"><a xlink:href="config_2helpers_8c.html#a6b1589ee93ff51ef31f1d9324e138078" target="_top" xlink:title="Get a string config item by name.">
<polygon fill="#fff0f0" stroke="red" points="561,-941 469,-941 469,-922 561,-922 561,-941"/>
<text text-anchor="middle" x="515" y="-929" font-family="Helvetica,sans-Serif" font-size="10.00">cs_subset_string</text>
</a>
</g>
</g>
<!-- Node1&#45;&gt;Node33 -->
<g id="edge10" class="edge">
<title>Node1&#45;&gt;Node33</title>
<path fill="none" stroke="#63b8ff" d="M46.53,-619.19C51.8,-666.89 77.41,-876.22 125,-916.5 173.64,-957.67 361.71,-946.33 457.4,-937.49"/>
<polygon fill="#63b8ff" stroke="#63b8ff" points="457.46,-941 467.09,-936.58 456.8,-934.03 457.46,-941"/>
</g>
<!-- Node1191 -->
<g id="node12" class="node">
<title>Node1191</title>
<g id="a_node12"><a xlink:href="imap_2message_8c.html#aa27c4ed628a0580172b989754dd80f14" target="_top" xlink:title="Server COPY messages to another folder.">
<polygon fill="#fff0f0" stroke="red" points="250.5,-695 134.5,-695 134.5,-676 250.5,-676 250.5,-695"/>
<text text-anchor="middle" x="192.5" y="-683" font-family="Helvetica,sans-Serif" font-size="10.00">imap_copy_messages</text>
</a>
</g>
</g>
<!-- Node1&#45;&gt;Node1191 -->
<g id="edge11" class="edge">
<title>Node1&#45;&gt;Node1191</title>
<path fill="none" stroke="#63b8ff" d="M58.43,-619.32C73.72,-630.6 100.21,-649.13 125,-661.5 132.48,-665.23 140.68,-668.67 148.69,-671.72"/>
<polygon fill="#63b8ff" stroke="#63b8ff" points="147.4,-674.97 157.99,-675.1 149.79,-668.39 147.4,-674.97"/>
</g>
<!-- Node146 -->
<g id="node13" class="node">
<title>Node146</title>
<g id="a_node13"><a xlink:href="mailbox_8h.html#a7e9739eb3e94344633f7051c2fb9453e" target="_top" xlink:title="Get the Mailbox&#39;s path string.">
<polygon fill="white" stroke="#666666" points="554,-544 476,-544 476,-525 554,-525 554,-544"/>
<text text-anchor="middle" x="515" y="-532" font-family="Helvetica,sans-Serif" font-size="10.00">mailbox_path</text>
</a>
</g>
</g>
<!-- Node1&#45;&gt;Node146 -->
<g id="edge23" class="edge">
<title>Node1&#45;&gt;Node146</title>
<path fill="none" stroke="#63b8ff" d="M89.15,-602.51C176.51,-588.53 372.31,-557.18 464.37,-542.44"/>
<polygon fill="#63b8ff" stroke="#63b8ff" points="464.78,-545.92 474.1,-540.89 463.68,-539.01 464.78,-545.92"/>
</g>
<!-- Node378 -->
<g id="node14" class="node">
<title>Node378</title>
<g id="a_node14"><a xlink:href="mutt__logging_8c.html#af068b3f524a31fad293b2fb61dfc4534" target="_top" xlink:title="Clear the message line (bottom line of screen)">
<polygon fill="#fff0f0" stroke="red" points="562.5,-392 467.5,-392 467.5,-373 562.5,-373 562.5,-392"/>
<text text-anchor="middle" x="515" y="-380" font-family="Helvetica,sans-Serif" font-size="10.00">mutt_clear_error</text>
</a>
</g>
</g>
<!-- Node1&#45;&gt;Node378 -->
<g id="edge28" class="edge">
<title>Node1&#45;&gt;Node378</title>
<path fill="none" stroke="#63b8ff" d="M46.39,-599.79C51.1,-551.01 74.71,-333.42 125,-293.5 176.52,-252.6 360.16,-265.49 421,-290.5 456.72,-305.18 486.03,-340.96 501.67,-363.32"/>
<polygon fill="#63b8ff" stroke="#63b8ff" points="498.72,-365.2 507.21,-371.55 504.53,-361.3 498.72,-365.2"/>
</g>
<!-- Node614 -->
<g id="node15" class="node">
<title>Node614</title>
<g id="a_node15"><a xlink:href="flags_8c.html#a29547b9c7c39eb22039ff4b8f1c03829" target="_top" xlink:title="Set a flag on an email.">
<polygon fill="#fff0f0" stroke="red" points="398.5,-809 318.5,-809 318.5,-790 398.5,-790 398.5,-809"/>
<text text-anchor="middle" x="358.5" y="-797" font-family="Helvetica,sans-Serif" font-size="10.00">mutt_set_flag</text>
</a>
</g>
</g>
<!-- Node1&#45;&gt;Node614 -->
<g id="edge35" class="edge">
<title>Node1&#45;&gt;Node614</title>
<path fill="none" stroke="#63b8ff" d="M51.5,-619.46C63.35,-638.41 91.55,-679.92 125,-704.5 156.85,-727.91 260.22,-765.81 317.81,-785.94"/>
<polygon fill="#63b8ff" stroke="#63b8ff" points="316.32,-789.13 326.92,-789.1 318.62,-782.51 316.32,-789.13"/>
</g>
<!-- Node86 -->
<g id="node16" class="node">
<title>Node86</title>
<g id="a_node16"><a xlink:href="group__mx__path__probe.html#gab4f27af8eb857a20834f445be3f498de" target="_top" xlink:title="Is this an IMAP Mailbox? &#45; Implements MxOps::path_probe() &#45;.">
<polygon fill="#fff0f0" stroke="red" points="407,-356 310,-356 310,-337 407,-337 407,-356"/>
<text text-anchor="middle" x="358.5" y="-344" font-family="Helvetica,sans-Serif" font-size="10.00">imap_path_probe</text>
</a>
</g>
</g>
<!-- Node1&#45;&gt;Node86 -->
<g id="edge18" class="edge">
<title>Node1&#45;&gt;Node86</title>
<path fill="none" stroke="#63b8ff" d="M45.56,-599.73C46.36,-563.92 54.3,-438.96 125,-380.5 173.23,-340.62 247.14,-336.33 298.64,-339.29"/>
<polygon fill="#63b8ff" stroke="#63b8ff" points="298.19,-342.77 308.41,-339.97 298.67,-335.78 298.19,-342.77"/>
</g>
<!-- Node1205 -->
<g id="node17" class="node">
<title>Node1205</title>
<g id="a_node17"><a xlink:href="imap_8c.html#ac964d627e8a2fad2b74d00096594d0ed" target="_top" xlink:title="Sync all the changes to the server.">
<polygon fill="#fff0f0" stroke="red" points="410.5,-885 306.5,-885 306.5,-866 410.5,-866 410.5,-885"/>
<text text-anchor="middle" x="358.5" y="-873" font-family="Helvetica,sans-Serif" font-size="10.00">imap_sync_mailbox</text>
</a>
</g>
</g>
<!-- Node1&#45;&gt;Node1205 -->
<g id="edge19" class="edge">
<title>Node1&#45;&gt;Node1205</title>
<path fill="none" stroke="#63b8ff" d="M45.3,-619.35C45.13,-656.6 49.95,-789.86 125,-850.5 172.26,-888.69 243.74,-890.77 294.96,-885.91"/>
<polygon fill="#63b8ff" stroke="#63b8ff" points="295.14,-889.41 304.71,-884.86 294.39,-882.45 295.14,-889.41"/>
</g>
<!-- Node745 -->
<g id="node18" class="node">
<title>Node745</title>
<g id="a_node18"><a xlink:href="mailbox_8c.html#aba915aae97477d1ecc6428a06f92dac9" target="_top" xlink:title="Free a Mailbox.">
<polygon fill="#fff0f0" stroke="red" points="397,-430 320,-430 320,-411 397,-411 397,-430"/>
<text text-anchor="middle" x="358.5" y="-418" font-family="Helvetica,sans-Serif" font-size="10.00">mailbox_free</text>
</a>
</g>
</g>
<!-- Node1&#45;&gt;Node745 -->
<g id="edge21" class="edge">
<title>Node1&#45;&gt;Node745</title>
<path fill="none" stroke="#63b8ff" d="M48.45,-599.74C56.42,-575.1 80.83,-510.01 125,-477.5 153.79,-456.31 248.88,-437.86 308.16,-428.03"/>
<polygon fill="#63b8ff" stroke="#63b8ff" points="308.71,-431.49 318.01,-426.43 307.58,-424.58 308.71,-431.49"/>
</g>
<!-- Node1247 -->
<g id="node19" class="node">
<title>Node1247</title>
<g id="a_node19"><a xlink:href="mbox_8c.html#adb9d8c2e11532c0b952ad90a44f2b5f9" target="_top" xlink:title="Reset the access time on the mailbox file.">
<polygon fill="#fff0f0" stroke="red" points="409.5,-657 307.5,-657 307.5,-638 409.5,-638 409.5,-657"/>
<text text-anchor="middle" x="358.5" y="-645" font-family="Helvetica,sans-Serif" font-size="10.00">mbox_reset_atime</text>
</a>
</g>
</g>
<!-- Node1&#45;&gt;Node1247 -->
<g id="edge24" class="edge">
<title>Node1&#45;&gt;Node1247</title>
<path fill="none" stroke="#63b8ff" d="M89.15,-617.76C100.77,-619.81 113.34,-621.87 125,-623.5 182.74,-631.55 248.89,-638.13 295.83,-642.34"/>
<polygon fill="#63b8ff" stroke="#63b8ff" points="295.25,-645.81 305.52,-643.2 295.87,-638.83 295.25,-645.81"/>
</g>
<!-- Node1212 -->
<g id="node20" class="node">
<title>Node1212</title>
<g id="a_node20"><a xlink:href="copy_8c.html#a4711664e00c403a784e4a1b3f0acbc8b" target="_top" xlink:title="Append a message.">
<polygon fill="#fff0f0" stroke="red" points="421,-319 296,-319 296,-300 421,-300 421,-319"/>
<text text-anchor="middle" x="358.5" y="-307" font-family="Helvetica,sans-Serif" font-size="10.00">mutt_append_message</text>
</a>
</g>
</g>
<!-- Node1&#45;&gt;Node1212 -->
<g id="edge27" class="edge">
<title>Node1&#45;&gt;Node1212</title>
<path fill="none" stroke="#63b8ff" d="M46.87,-599.66C53.35,-554.81 82.27,-370.36 125,-334.5 170.68,-296.16 240.48,-293.59 291.69,-298.36"/>
<polygon fill="#63b8ff" stroke="#63b8ff" points="291.15,-301.82 301.47,-299.4 291.89,-294.86 291.15,-301.82"/>
</g>
<!-- Node1249 -->
<g id="node21" class="node">
<title>Node1249</title>
<g id="a_node21"><a xlink:href="file_8c.html#a1d61fd8c991d26942e6ae461aaf0fe13" target="_top" xlink:title="Delete a file if it&#39;s empty.">
<polygon fill="#fff0f0" stroke="red" points="255,-130 130,-130 130,-111 255,-111 255,-130"/>
<text text-anchor="middle" x="192.5" y="-118" font-family="Helvetica,sans-Serif" font-size="10.00">mutt_file_unlink_empty</text>
</a>
</g>
</g>
<!-- Node1&#45;&gt;Node1249 -->
<g id="edge29" class="edge">
<title>Node1&#45;&gt;Node1249</title>
<path fill="none" stroke="#63b8ff" d="M45.76,-599.74C47.59,-538.69 60.36,-209.74 125,-138.5 125.36,-138.1 125.73,-137.71 126.11,-137.33"/>
<polygon fill="#63b8ff" stroke="#63b8ff" points="128.02,-140.28 133.79,-131.39 123.74,-134.74 128.02,-140.28"/>
</g>
<!-- Node1152 -->
<g id="node22" class="node">
<title>Node1152</title>
<g id="a_node22"><a xlink:href="hook_8c.html#a306aa3cd20a4ac4d88255ced1bf6d87d" target="_top" xlink:title="Find a matching hook.">
<polygon fill="#fff0f0" stroke="red" points="237,-93 148,-93 148,-74 237,-74 237,-93"/>
<text text-anchor="middle" x="192.5" y="-81" font-family="Helvetica,sans-Serif" font-size="10.00">mutt_find_hook</text>
</a>
</g>
</g>
<!-- Node1&#45;&gt;Node1152 -->
<g id="edge30" class="edge">
<title>Node1&#45;&gt;Node1152</title>
<path fill="none" stroke="#63b8ff" d="M45.63,-599.81C46.67,-536.23 55.58,-178.94 125,-101.5 128.46,-97.64 132.66,-94.57 137.24,-92.13"/>
<polygon fill="#63b8ff" stroke="#63b8ff" points="138.48,-95.41 146.36,-88.34 135.78,-88.95 138.48,-95.41"/>
</g>
<!-- Node1252 -->
<g id="node23" class="node">
<title>Node1252</title>
<g id="a_node23"><a xlink:href="mx_8c.html#a669989013069c5858de1556a2e36a859" target="_top" xlink:title="Is this the spool_file?">
<polygon fill="#fff0f0" stroke="red" points="398.5,-998 318.5,-998 318.5,-979 398.5,-979 398.5,-998"/>
<text text-anchor="middle" x="358.5" y="-986" font-family="Helvetica,sans-Serif" font-size="10.00">mutt_is_spool</text>
</a>
</g>
</g>
<!-- Node1&#45;&gt;Node1252 -->
<g id="edge31" class="edge">
<title>Node1&#45;&gt;Node1252</title>
<path fill="none" stroke="#63b8ff" d="M46.19,-619.25C50.08,-671.37 71.07,-916.56 125,-964.5 174.34,-1008.36 254.87,-1006.17 307.02,-998.74"/>
<polygon fill="#63b8ff" stroke="#63b8ff" points="307.5,-1002.21 316.85,-997.21 306.43,-995.29 307.5,-1002.21"/>
</g>
<!-- Node1253 -->
<g id="node24" class="node">
<title>Node1253</title>
<g id="a_node24"><a xlink:href="newsrc_8c.html#a6706491e2d469cd6d2b48fc816e28517" target="_top" xlink:title="Catchup newsgroup.">
<polygon fill="#fff0f0" stroke="red" points="260,-799 125,-799 125,-780 260,-780 260,-799"/>
<text text-anchor="middle" x="192.5" y="-787" font-family="Helvetica,sans-Serif" font-size="10.00">mutt_newsgroup_catchup</text>
</a>
</g>
</g>
<!-- Node1&#45;&gt;Node1253 -->
<g id="edge33" class="edge">
<title>Node1&#45;&gt;Node1253</title>
<path fill="none" stroke="#63b8ff" d="M49.17,-619.23C58.65,-643.34 85.93,-706.81 125,-747.5 135.2,-758.12 148.6,-767.24 160.7,-774.25"/>
<polygon fill="#63b8ff" stroke="#63b8ff" points="158.68,-777.13 169.13,-778.89 162.06,-771 158.68,-777.13"/>
</g>
<!-- Node741 -->
<g id="node25" class="node">
<title>Node741</title>
<g id="a_node25"><a xlink:href="mx_8c.html#a4e4de522e1ca1db28736065f1499c55d" target="_top" xlink:title="Free up memory associated with the Mailbox.">
<polygon fill="#fff0f0" stroke="red" points="573,-299 457,-299 457,-280 573,-280 573,-299"/>
<text text-anchor="middle" x="515" y="-287" font-family="Helvetica,sans-Serif" font-size="10.00">mx_fastclose_mailbox</text>
</a>
</g>
</g>
<!-- Node1&#45;&gt;Node741 -->
<g id="edge36" class="edge">
<title>Node1&#45;&gt;Node741</title>
<path fill="none" stroke="#63b8ff" d="M46.17,-599.56C49.92,-547.53 70.03,-307.27 125,-263.5 231.77,-178.48 411.69,-243.53 483.28,-274.98"/>
<polygon fill="#63b8ff" stroke="#63b8ff" points="481.49,-278.02 492.04,-278.92 484.35,-271.63 481.49,-278.02"/>
</g>
<!-- Node1157 -->
<g id="node26" class="node">
<title>Node1157</title>
<g id="a_node26"><a xlink:href="mx_8c.html#a71df9c2c4fd5582ee49766846dd8cbf1" target="_top" xlink:title="Find a Mailbox on an Account.">
<polygon fill="#fff0f0" stroke="red" points="234.5,-56 150.5,-56 150.5,-37 234.5,-37 234.5,-56"/>
<text text-anchor="middle" x="192.5" y="-44" font-family="Helvetica,sans-Serif" font-size="10.00">mx_mbox_find</text>
</a>
</g>
</g>
<!-- Node1&#45;&gt;Node1157 -->
<g id="edge38" class="edge">
<title>Node1&#45;&gt;Node1157</title>
<path fill="none" stroke="#63b8ff" d="M45.52,-599.55C45.84,-532.59 50.92,-148.01 125,-64.5 129.07,-59.91 134.17,-56.44 139.73,-53.82"/>
<polygon fill="#63b8ff" stroke="#63b8ff" points="140.54,-57.26 148.7,-50.5 138.11,-50.7 140.54,-57.26"/>
</g>
<!-- Node1137 -->
<g id="node27" class="node">
<title>Node1137</title>
<g id="a_node27"><a xlink:href="mx_8c.html#a6c4f4c51fa0b086d86a8638197c40578" target="_top" xlink:title="Open a mailbox and parse it.">
<polygon fill="#fff0f0" stroke="red" points="403.5,-393 313.5,-393 313.5,-374 403.5,-374 403.5,-393"/>
<text text-anchor="middle" x="358.5" y="-381" font-family="Helvetica,sans-Serif" font-size="10.00">mx_mbox_open</text>
</a>
</g>
</g>
<!-- Node1&#45;&gt;Node1137 -->
<g id="edge39" class="edge">
<title>Node1&#45;&gt;Node1137</title>
<path fill="none" stroke="#63b8ff" d="M46.81,-599.58C51.36,-569.29 69.39,-477.3 125,-432.5 175.07,-392.16 250.35,-382.78 301.59,-381.61"/>
<polygon fill="#63b8ff" stroke="#63b8ff" points="301.63,-385.11 311.59,-381.49 301.55,-378.11 301.63,-385.11"/>
</g>
<!-- Node1153 -->
<g id="node28" class="node">
<title>Node1153</title>
<g id="a_node28"><a xlink:href="mx_8c.html#addbeb100364d5be4dd89b74ac73ef067" target="_top" xlink:title="Get a Mailbox for a path.">
<polygon fill="#fff0f0" stroke="red" points="406,-922 311,-922 311,-903 406,-903 406,-922"/>
<text text-anchor="middle" x="358.5" y="-910" font-family="Helvetica,sans-Serif" font-size="10.00">mx_path_resolve</text>
</a>
</g>
</g>
<!-- Node1&#45;&gt;Node1153 -->
<g id="edge43" class="edge">
<title>Node1&#45;&gt;Node1153</title>
<path fill="none" stroke="#63b8ff" d="M46.9,-619.25C53.5,-663.68 82.9,-846.47 125,-882.5 172.72,-923.34 247.4,-925.84 299.19,-921.39"/>
<polygon fill="#63b8ff" stroke="#63b8ff" points="299.41,-924.88 309.02,-920.42 298.73,-917.92 299.41,-924.88"/>
</g>
<!-- Node731 -->
<g id="node29" class="node">
<title>Node731</title>
<g id="a_node29"><a xlink:href="question_8c.html#a8ba883bf53e8ab425a03d17368de84b4" target="_top" xlink:title="Ask the user a quad&#45;question.">
<polygon fill="#fff0f0" stroke="red" points="243.5,-19 141.5,-19 141.5,0 243.5,0 243.5,-19"/>
<text text-anchor="middle" x="192.5" y="-7" font-family="Helvetica,sans-Serif" font-size="10.00">query_quadoption</text>
</a>
</g>
</g>
<!-- Node1&#45;&gt;Node731 -->
<g id="edge46" class="edge">
<title>Node1&#45;&gt;Node731</title>
<path fill="none" stroke="#63b8ff" d="M45.42,-599.77C45.03,-530.93 46.06,-117.31 125,-27.5 126.93,-25.3 129.11,-23.35 131.46,-21.64"/>
<polygon fill="#63b8ff" stroke="#63b8ff" points="132.96,-24.81 139.93,-16.83 129.51,-18.72 132.96,-24.81"/>
</g>
<!-- Node1254 -->
<g id="node30" class="node">
<title>Node1254</title>
<g id="a_node30"><a xlink:href="mx_8c.html#a41f0cfa68f4382498e36bd144a34e88f" target="_top" xlink:title="Save changes to disk.">
<polygon fill="white" stroke="#666666" points="397,-620 320,-620 320,-601 397,-601 397,-620"/>
<text text-anchor="middle" x="358.5" y="-608" font-family="Helvetica,sans-Serif" font-size="10.00">sync_mailbox</text>
</a>
</g>
</g>
<!-- Node1&#45;&gt;Node1254 -->
<g id="edge47" class="edge">
<title>Node1&#45;&gt;Node1254</title>
<path fill="none" stroke="#63b8ff" d="M89.21,-609.64C146.91,-609.83 248.22,-610.15 308.47,-610.34"/>
<polygon fill="#63b8ff" stroke="#63b8ff" points="308.42,-613.84 318.43,-610.37 308.44,-606.84 308.42,-613.84"/>
</g>
<!-- Node1255 -->
<g id="node31" class="node">
<title>Node1255</title>
<g id="a_node31"><a xlink:href="mx_8c.html#a4384d774c74bb9e8b8065e6aeb6b483f" target="_top" xlink:title="Move deleted mails to the trash folder.">
<polygon fill="#fff0f0" stroke="red" points="232.5,-505 152.5,-505 152.5,-486 232.5,-486 232.5,-505"/>
<text text-anchor="middle" x="192.5" y="-493" font-family="Helvetica,sans-Serif" font-size="10.00">trash_append</text>
</a>
</g>
</g>
<!-- Node1&#45;&gt;Node1255 -->
<g id="edge49" class="edge">
<title>Node1&#45;&gt;Node1255</title>
<path fill="none" stroke="#63b8ff" d="M49.09,-599.68C59.19,-579.39 89.45,-535.86 125,-511.5 130.15,-507.97 135.87,-504.86 141.72,-502.21"/>
<polygon fill="#63b8ff" stroke="#63b8ff" points="142.94,-505.49 150.91,-498.51 140.33,-499 142.94,-505.49"/>
</g>
<!-- Node1191&#45;&gt;Node105 -->
<g id="edge12" class="edge">
<title>Node1191&#45;&gt;Node105</title>
<path fill="none" stroke="#63b8ff" d="M235.4,-695.44C293.26,-709.16 397.64,-733.91 460.9,-748.91"/>
<polygon fill="#63b8ff" stroke="#63b8ff" points="459.82,-752.25 470.36,-751.15 461.44,-745.44 459.82,-752.25"/>
</g>
<!-- Node1191&#45;&gt;Node146 -->
<g id="edge13" class="edge">
<title>Node1191&#45;&gt;Node146</title>
<path fill="none" stroke="#63b8ff" d="M250.71,-693.55C299.25,-697.51 369.07,-696.25 421,-666.5 465.24,-641.16 493.56,-585.21 506.25,-554.93"/>
<polygon fill="#63b8ff" stroke="#63b8ff" points="509.45,-556.34 509.92,-545.76 502.95,-553.74 509.45,-556.34"/>
</g>
<!-- Node1191&#45;&gt;Node378 -->
<g id="edge15" class="edge">
<title>Node1191&#45;&gt;Node378</title>
<path fill="none" stroke="#63b8ff" d="M203.8,-675.76C249.66,-632.4 435.64,-456.58 495.41,-400.08"/>
<polygon fill="#63b8ff" stroke="#63b8ff" points="497.61,-402.81 502.48,-393.39 492.81,-397.72 497.61,-402.81"/>
</g>
<!-- Node1191&#45;&gt;Node614 -->
<g id="edge16" class="edge">
<title>Node1191&#45;&gt;Node614</title>
<path fill="none" stroke="#63b8ff" d="M220.43,-695.39C233.39,-701.07 248.56,-709.14 260,-719.5 281.93,-739.36 273.1,-756.76 296,-775.5 300.43,-779.13 305.48,-782.25 310.73,-784.93"/>
<polygon fill="#63b8ff" stroke="#63b8ff" points="309.03,-788.01 319.59,-788.94 311.92,-781.63 309.03,-788.01"/>
</g>
<!-- Node146&#45;&gt;Node32 -->
<g id="edge14" class="edge">
<title>Node146&#45;&gt;Node32</title>
<path fill="none" stroke="#63b8ff" d="M526.57,-524.78C547.53,-505.51 594.59,-462.25 621.04,-437.93"/>
<polygon fill="#63b8ff" stroke="#63b8ff" points="623.35,-440.56 628.34,-431.22 618.61,-435.41 623.35,-440.56"/>
</g>
<!-- Node614&#45;&gt;Node105 -->
<g id="edge17" class="edge">
<title>Node614&#45;&gt;Node105</title>
<path fill="none" stroke="#63b8ff" d="M398.89,-789.81C418.29,-785.04 441.92,-779.23 462.71,-774.11"/>
<polygon fill="#63b8ff" stroke="#63b8ff" points="463.26,-777.58 472.14,-771.8 461.59,-770.79 463.26,-777.58"/>
</g>
<!-- Node1205&#45;&gt;Node105 -->
<g id="edge20" class="edge">
<title>Node1205&#45;&gt;Node105</title>
<path fill="none" stroke="#63b8ff" d="M391.95,-865.58C401.69,-861.9 412.13,-857.19 421,-851.5 452.04,-831.58 481.51,-800.21 498.66,-780.25"/>
<polygon fill="#63b8ff" stroke="#63b8ff" points="501.31,-782.54 505.07,-772.64 495.95,-778.03 501.31,-782.54"/>
</g>
<!-- Node745&#45;&gt;Node32 -->
<g id="edge22" class="edge">
<title>Node745&#45;&gt;Node32</title>
<path fill="none" stroke="#63b8ff" d="M397.33,-420.5C449.43,-420.5 543.01,-420.5 597.48,-420.5"/>
<polygon fill="#63b8ff" stroke="#63b8ff" points="597.29,-424 607.29,-420.5 597.29,-417 597.29,-424"/>
</g>
<!-- Node1247&#45;&gt;Node105 -->
<g id="edge25" class="edge">
<title>Node1247&#45;&gt;Node105</title>
<path fill="none" stroke="#63b8ff" d="M372.94,-657.42C399.42,-676.96 458.6,-720.62 491.26,-744.72"/>
<polygon fill="#63b8ff" stroke="#63b8ff" points="489.14,-747.5 499.26,-750.63 493.29,-741.87 489.14,-747.5"/>
</g>
<!-- Node1247&#45;&gt;Node146 -->
<g id="edge26" class="edge">
<title>Node1247&#45;&gt;Node146</title>
<path fill="none" stroke="#63b8ff" d="M403.68,-637.58C409.71,-635.37 415.66,-632.71 421,-629.5 454.15,-609.61 483.73,-575.09 500.22,-553.59"/>
<polygon fill="#63b8ff" stroke="#63b8ff" points="502.95,-555.78 506.13,-545.68 497.34,-551.6 502.95,-555.78"/>
</g>
<!-- Node1252&#45;&gt;Node33 -->
<g id="edge32" class="edge">
<title>Node1252&#45;&gt;Node33</title>
<path fill="none" stroke="#63b8ff" d="M386.41,-978.57C411.37,-969.36 448.74,-955.57 476.6,-945.3"/>
<polygon fill="#63b8ff" stroke="#63b8ff" points="477.55,-948.68 485.72,-941.93 475.12,-942.11 477.55,-948.68"/>
</g>
<!-- Node1253&#45;&gt;Node614 -->
<g id="edge34" class="edge">
<title>Node1253&#45;&gt;Node614</title>
<path fill="none" stroke="#63b8ff" d="M260.21,-793.57C275.74,-794.51 292.03,-795.51 306.75,-796.41"/>
<polygon fill="#63b8ff" stroke="#63b8ff" points="306.46,-799.89 316.66,-797.01 306.89,-792.91 306.46,-799.89"/>
</g>
<!-- Node1137&#45;&gt;Node146 -->
<g id="edge40" class="edge">
<title>Node1137&#45;&gt;Node146</title>
<path fill="none" stroke="#63b8ff" d="M403.87,-393.31C409.94,-395.74 415.85,-398.76 421,-402.5 461.84,-432.18 491.25,-485.42 505.09,-514.39"/>
<polygon fill="#63b8ff" stroke="#63b8ff" points="501.77,-515.55 509.14,-523.16 508.13,-512.61 501.77,-515.55"/>
</g>
<!-- Node1137&#45;&gt;Node378 -->
<g id="edge41" class="edge">
<title>Node1137&#45;&gt;Node378</title>
<path fill="none" stroke="#63b8ff" d="M403.77,-383.21C420.01,-383.11 438.64,-382.99 455.91,-382.88"/>
<polygon fill="#63b8ff" stroke="#63b8ff" points="455.53,-386.38 465.51,-382.81 455.49,-379.38 455.53,-386.38"/>
</g>
<!-- Node1137&#45;&gt;Node741 -->
<g id="edge42" class="edge">
<title>Node1137&#45;&gt;Node741</title>
<path fill="none" stroke="#63b8ff" d="M401.74,-373.59C408.36,-371.34 415,-368.66 421,-365.5 450.22,-350.1 478.88,-324.67 496.49,-307.51"/>
<polygon fill="#63b8ff" stroke="#63b8ff" points="498.96,-309.99 503.57,-300.45 494.01,-305.04 498.96,-309.99"/>
</g>
<!-- Node1153&#45;&gt;Node31 -->
<g id="edge44" class="edge">
<title>Node1153&#45;&gt;Node31</title>
<path fill="none" stroke="#63b8ff" d="M375.74,-922.38C402.59,-938.71 456.42,-971.47 488.42,-990.93"/>
<polygon fill="#63b8ff" stroke="#63b8ff" points="486.32,-993.76 496.68,-995.96 489.96,-987.78 486.32,-993.76"/>
</g>
<!-- Node1153&#45;&gt;Node33 -->
<g id="edge45" class="edge">
<title>Node1153&#45;&gt;Node33</title>
<path fill="none" stroke="#63b8ff" d="M406.27,-918.25C422.37,-920.23 440.56,-922.47 457.35,-924.53"/>
<polygon fill="#63b8ff" stroke="#63b8ff" points="456.86,-928 467.21,-925.75 457.71,-921.05 456.86,-928"/>
</g>
<!-- Node1254&#45;&gt;Node146 -->
<g id="edge48" class="edge">
<title>Node1254&#45;&gt;Node146</title>
<path fill="none" stroke="#63b8ff" d="M379.7,-600.56C406.19,-587.54 452.89,-564.56 483.64,-549.43"/>
<polygon fill="#63b8ff" stroke="#63b8ff" points="485.01,-552.66 492.44,-545.11 481.92,-546.38 485.01,-552.66"/>
</g>
<!-- Node1255&#45;&gt;Node1 -->
<g id="edge56" class="edge">
<title>Node1255&#45;&gt;Node1</title>
<path fill="none" stroke="#63b8ff" d="M177.59,-505.4C163.46,-511.28 141.38,-518.28 125,-529.5 100.11,-546.55 77.81,-573 63.21,-590.98"/>
<polygon fill="#63b8ff" stroke="#63b8ff" points="60.83,-588.37 57.26,-598.34 66.27,-592.77 60.83,-588.37"/>
</g>
<!-- Node1255&#45;&gt;Node105 -->
<g id="edge50" class="edge">
<title>Node1255&#45;&gt;Node105</title>
<path fill="none" stroke="#63b8ff" d="M223.32,-505.47C277.75,-524.11 390.43,-564.85 421,-592.5 467.65,-634.7 495.91,-705.97 507.66,-740.92"/>
<polygon fill="#63b8ff" stroke="#63b8ff" points="504.26,-741.78 510.66,-750.22 510.92,-739.63 504.26,-741.78"/>
</g>
<!-- Node1255&#45;&gt;Node33 -->
<g id="edge51" class="edge">
<title>Node1255&#45;&gt;Node33</title>
<path fill="none" stroke="#63b8ff" d="M198.16,-505.39C211.28,-532.68 250.53,-610.68 296,-666.5 343.67,-725.03 372.89,-723.33 421,-781.5 456.5,-824.42 488.47,-882.02 504.03,-911.81"/>
<polygon fill="#63b8ff" stroke="#63b8ff" points="500.78,-913.14 508.47,-920.43 507.01,-909.94 500.78,-913.14"/>
</g>
<!-- Node1255&#45;&gt;Node146 -->
<g id="edge54" class="edge">
<title>Node1255&#45;&gt;Node146</title>
<path fill="none" stroke="#63b8ff" d="M232.61,-499.32C277.97,-503.86 355,-511.91 421,-520.5 435.18,-522.35 450.54,-524.57 464.62,-526.69"/>
<polygon fill="#63b8ff" stroke="#63b8ff" points="463.68,-530.09 474.09,-528.14 464.73,-523.17 463.68,-530.09"/>
</g>
<!-- Node1255&#45;&gt;Node86 -->
<g id="edge52" class="edge">
<title>Node1255&#45;&gt;Node86</title>
<path fill="none" stroke="#63b8ff" d="M198.49,-485.69C211.27,-461.53 247.66,-398.67 296,-365.5 298.34,-363.9 300.82,-362.42 303.39,-361.07"/>
<polygon fill="#63b8ff" stroke="#63b8ff" points="304.58,-364.37 312.25,-357.06 301.7,-357.99 304.58,-364.37"/>
</g>
<!-- Node1255&#45;&gt;Node745 -->
<g id="edge53" class="edge">
<title>Node1255&#45;&gt;Node745</title>
<path fill="none" stroke="#63b8ff" d="M223.3,-485.55C235.01,-481.2 248.41,-475.68 260,-469.5 277.19,-460.34 278.81,-453.66 296,-444.5 302.65,-440.96 309.94,-437.65 317.1,-434.69"/>
<polygon fill="#63b8ff" stroke="#63b8ff" points="318.35,-437.97 326.37,-431.04 315.78,-431.45 318.35,-437.97"/>
</g>
<!-- Node1255&#45;&gt;Node1212 -->
<g id="edge55" class="edge">
<title>Node1255&#45;&gt;Node1212</title>
<path fill="none" stroke="#63b8ff" d="M196.77,-485.5C206.74,-456.62 239.56,-372.3 296,-328.5 297.94,-327 299.99,-325.61 302.13,-324.34"/>
<polygon fill="#63b8ff" stroke="#63b8ff" points="303.24,-327.7 310.61,-320.09 300.1,-321.44 303.24,-327.7"/>
</g>
<!-- Node1255&#45;&gt;Node1137 -->
<g id="edge57" class="edge">
<title>Node1255&#45;&gt;Node1137</title>
<path fill="none" stroke="#63b8ff" d="M201.75,-485.55C217.91,-466.67 255.71,-425.47 296,-402.5 299.15,-400.7 302.5,-399.05 305.94,-397.55"/>
<polygon fill="#63b8ff" stroke="#63b8ff" points="306.98,-400.9 315.01,-393.99 304.42,-394.38 306.98,-400.9"/>
</g>
<!-- Node1255&#45;&gt;Node1153 -->
<g id="edge58" class="edge">
<title>Node1255&#45;&gt;Node1153</title>
<path fill="none" stroke="#63b8ff" d="M198.16,-505.33C210.24,-531.25 242.85,-603.82 260,-667.5 286.57,-766.13 228.52,-817.82 296,-894.5 297.52,-896.22 299.19,-897.78 300.98,-899.2"/>
<polygon fill="#63b8ff" stroke="#63b8ff" points="299.11,-902.16 309.48,-904.35 302.74,-896.17 299.11,-902.16"/>
</g>
</g>
</svg>
