<?xml version="1.0" encoding="UTF-8" standalone="no"?>
<!DOCTYPE svg PUBLIC "-//W3C//DTD SVG 1.1//EN"
 "http://www.w3.org/Graphics/SVG/1.1/DTD/svg11.dtd">
<!-- Generated by graphviz version 2.40.1 (20161225.0304)
 -->
<!-- Title: mutt_is_spool Pages: 1 -->
<svg width="312pt" height="142pt"
 viewBox="0.00 0.00 312.00 142.00" xmlns="http://www.w3.org/2000/svg" xmlns:xlink="http://www.w3.org/1999/xlink">
<g id="graph0" class="graph" transform="scale(1 1) rotate(0) translate(4 138)">
<title>mutt_is_spool</title>
<polygon fill="#ffffff" stroke="transparent" points="-4,4 -4,-138 308,-138 308,4 -4,4"/>
<!-- Node513 -->
<g id="node1" class="node">
<title>Node513</title>
<polygon fill="#bfbfbf" stroke="#000000" points="0,-57.5 0,-76.5 85,-76.5 85,-57.5 0,-57.5"/>
<text text-anchor="middle" x="42.5" y="-64.5" font-family="Helvetica,sans-Serif" font-size="10.00" fill="#000000">mutt_is_spool</text>
</g>
<!-- Node514 -->
<g id="node2" class="node">
<title>Node514</title>
<g id="a_node2"><a xlink:href="url_8c.html#a10d35f5553c8e443c38257b69ca91075" target="_top" xlink:title="Fill in Url. ">
<polygon fill="#ffffff" stroke="#ff0000" points="136.5,-114.5 136.5,-133.5 198.5,-133.5 198.5,-114.5 136.5,-114.5"/>
<text text-anchor="middle" x="167.5" y="-121.5" font-family="Helvetica,sans-Serif" font-size="10.00" fill="#000000">url_parse</text>
</a>
</g>
</g>
<!-- Node513&#45;&gt;Node514 -->
<g id="edge1" class="edge">
<title>Node513&#45;&gt;Node514</title>
<path fill="none" stroke="#191970" d="M63.4222,-76.5405C83.6122,-85.7472 114.3963,-99.7847 137.2531,-110.2074"/>
<polygon fill="#191970" stroke="#191970" points="135.9587,-113.4638 146.5096,-114.4284 138.863,-107.0948 135.9587,-113.4638"/>
</g>
<!-- Node531 -->
<g id="node3" class="node">
<title>Node531</title>
<g id="a_node3"><a xlink:href="url_8c.html#a7b05825b8bb8f87657713fe5bc6edfaa" target="_top" xlink:title="Free the contents of a URL. ">
<polygon fill="#ffffff" stroke="#000000" points="250,-95.5 250,-114.5 304,-114.5 304,-95.5 250,-95.5"/>
<text text-anchor="middle" x="277" y="-102.5" font-family="Helvetica,sans-Serif" font-size="10.00" fill="#000000">url_free</text>
</a>
</g>
</g>
<!-- Node513&#45;&gt;Node531 -->
<g id="edge5" class="edge">
<title>Node513&#45;&gt;Node531</title>
<path fill="none" stroke="#191970" d="M85.2382,-73.9256C129.446,-81.0893 197.7838,-92.1633 239.8242,-98.9758"/>
<polygon fill="#191970" stroke="#191970" points="239.484,-102.4662 249.9151,-100.611 240.6038,-95.5564 239.484,-102.4662"/>
</g>
<!-- Node532 -->
<g id="node4" class="node">
<title>Node532</title>
<g id="a_node4"><a xlink:href="mutt_2string_8c.html#a29db81d6f5a7dd216cbea75ecf8a5885" target="_top" xlink:title="Compare two strings, ignoring case. ">
<polygon fill="#ffffff" stroke="#ff0000" points="121,-38.5 121,-57.5 214,-57.5 214,-38.5 121,-38.5"/>
<text text-anchor="middle" x="167.5" y="-45.5" font-family="Helvetica,sans-Serif" font-size="10.00" fill="#000000">mutt_istr_equal</text>
</a>
</g>
</g>
<!-- Node513&#45;&gt;Node532 -->
<g id="edge3" class="edge">
<title>Node513&#45;&gt;Node532</title>
<path fill="none" stroke="#191970" d="M85.1683,-60.5144C93.4034,-59.2627 102.151,-57.933 110.752,-56.6257"/>
<polygon fill="#191970" stroke="#191970" points="111.3817,-60.0703 120.7421,-55.1072 110.3297,-53.1498 111.3817,-60.0703"/>
</g>
<!-- Node534 -->
<g id="node5" class="node">
<title>Node534</title>
<g id="a_node5"><a xlink:href="mutt_2string_8c.html#a6b6a50296dd2a31863a43379ef4a343d" target="_top" xlink:title="Compare two strings. ">
<polygon fill="#ffffff" stroke="#ff0000" points="122.5,-.5 122.5,-19.5 212.5,-19.5 212.5,-.5 122.5,-.5"/>
<text text-anchor="middle" x="167.5" y="-7.5" font-family="Helvetica,sans-Serif" font-size="10.00" fill="#000000">mutt_str_equal</text>
</a>
</g>
</g>
<!-- Node513&#45;&gt;Node534 -->
<g id="edge4" class="edge">
<title>Node513&#45;&gt;Node534</title>
<path fill="none" stroke="#191970" d="M61.3782,-57.4482C77.1823,-49.552 100.3944,-38.1862 121,-29 125.1444,-27.1524 129.525,-25.271 133.8746,-23.4458"/>
<polygon fill="#191970" stroke="#191970" points="135.3376,-26.6283 143.2433,-19.5749 132.6645,-20.1588 135.3376,-26.6283"/>
</g>
<!-- Node514&#45;&gt;Node531 -->
<g id="edge2" class="edge">
<title>Node514&#45;&gt;Node531</title>
<path fill="none" stroke="#191970" d="M198.5854,-118.6062C211.484,-116.3681 226.5526,-113.7534 240.0142,-111.4176"/>
<polygon fill="#191970" stroke="#191970" points="240.6782,-114.8548 249.9326,-109.6966 239.4814,-107.9579 240.6782,-114.8548"/>
</g>
</g>
</svg>
