<?xml version="1.0" encoding="UTF-8" standalone="no"?>
<!DOCTYPE svg PUBLIC "-//W3C//DTD SVG 1.1//EN"
 "http://www.w3.org/Graphics/SVG/1.1/DTD/svg11.dtd">
<!-- Generated by graphviz version 2.40.1 (20161225.0304)
 -->
<!-- Title: myvar.c Pages: 1 -->
<svg width="250pt" height="140pt"
 viewBox="0.00 0.00 249.50 140.00" xmlns="http://www.w3.org/2000/svg" xmlns:xlink="http://www.w3.org/1999/xlink">
<g id="graph0" class="graph" transform="scale(1 1) rotate(0) translate(4 136)">
<title>myvar.c</title>
<polygon fill="#ffffff" stroke="transparent" points="-4,4 -4,-136 245.5,-136 245.5,4 -4,4"/>
<!-- Node0 -->
<g id="node1" class="node">
<title>Node0</title>
<polygon fill="#bfbfbf" stroke="#000000" points="101.5,-112.5 101.5,-131.5 157.5,-131.5 157.5,-112.5 101.5,-112.5"/>
<text text-anchor="middle" x="129.5" y="-119.5" font-family="Helvetica,sans-Serif" font-size="10.00" fill="#000000">myvar.c</text>
</g>
<!-- Node1 -->
<g id="node2" class="node">
<title>Node1</title>
<polygon fill="#ffffff" stroke="#bfbfbf" points="0,-56.5 0,-75.5 55,-75.5 55,-56.5 0,-56.5"/>
<text text-anchor="middle" x="27.5" y="-63.5" font-family="Helvetica,sans-Serif" font-size="10.00" fill="#000000">config.h</text>
</g>
<!-- Node0&#45;&gt;Node1 -->
<g id="edge1" class="edge">
<title>Node0&#45;&gt;Node1</title>
<path fill="none" stroke="#191970" d="M111.733,-112.2455C95.7905,-103.4928 72.1741,-90.527 54.0011,-80.5496"/>
<polygon fill="#191970" stroke="#191970" points="55.5137,-77.3873 45.0634,-75.6427 52.1448,-83.5233 55.5137,-77.3873"/>
</g>
<!-- Node2 -->
<g id="node3" class="node">
<title>Node2</title>
<polygon fill="#ffffff" stroke="#bfbfbf" points="73.5,-56.5 73.5,-75.5 129.5,-75.5 129.5,-56.5 73.5,-56.5"/>
<text text-anchor="middle" x="101.5" y="-63.5" font-family="Helvetica,sans-Serif" font-size="10.00" fill="#000000">stddef.h</text>
</g>
<!-- Node0&#45;&gt;Node2 -->
<g id="edge2" class="edge">
<title>Node0&#45;&gt;Node2</title>
<path fill="none" stroke="#191970" d="M124.6228,-112.2455C120.8487,-104.6973 115.5079,-94.0158 110.9099,-84.8197"/>
<polygon fill="#191970" stroke="#191970" points="113.924,-83.0217 106.3213,-75.6427 107.663,-86.1522 113.924,-83.0217"/>
</g>
<!-- Node3 -->
<g id="node4" class="node">
<title>Node3</title>
<g id="a_node4"><a xlink:href="mutt_2lib_8h.html" target="_top" xlink:title="Convenience wrapper for the library headers. ">
<polygon fill="#ffffff" stroke="#ff0000" points="153.5,-.5 153.5,-19.5 217.5,-19.5 217.5,-.5 153.5,-.5"/>
<text text-anchor="middle" x="185.5" y="-7.5" font-family="Helvetica,sans-Serif" font-size="10.00" fill="#000000">mutt/lib.h</text>
</a>
</g>
</g>
<!-- Node0&#45;&gt;Node3 -->
<g id="edge3" class="edge">
<title>Node0&#45;&gt;Node3</title>
<path fill="none" stroke="#191970" d="M134.2745,-112.4509C143.532,-93.936 164.0705,-52.8591 176.1407,-28.7187"/>
<polygon fill="#191970" stroke="#191970" points="179.3959,-30.0344 180.7376,-19.5249 173.1349,-26.9039 179.3959,-30.0344"/>
</g>
<!-- Node47 -->
<g id="node5" class="node">
<title>Node47</title>
<g id="a_node5"><a xlink:href="myvar_8h.html" target="_top" xlink:title="Handling of personal config (&#39;my&#39; variables) ">
<polygon fill="#ffffff" stroke="#000000" points="185.5,-56.5 185.5,-75.5 241.5,-75.5 241.5,-56.5 185.5,-56.5"/>
<text text-anchor="middle" x="213.5" y="-63.5" font-family="Helvetica,sans-Serif" font-size="10.00" fill="#000000">myvar.h</text>
</a>
</g>
</g>
<!-- Node0&#45;&gt;Node47 -->
<g id="edge4" class="edge">
<title>Node0&#45;&gt;Node47</title>
<path fill="none" stroke="#191970" d="M144.1317,-112.2455C156.8994,-103.7337 175.6438,-91.2375 190.4299,-81.3801"/>
<polygon fill="#191970" stroke="#191970" points="192.6569,-84.1019 199.036,-75.6427 188.774,-78.2775 192.6569,-84.1019"/>
</g>
<!-- Node47&#45;&gt;Node3 -->
<g id="edge5" class="edge">
<title>Node47&#45;&gt;Node3</title>
<path fill="none" stroke="#191970" d="M208.6228,-56.2455C204.8487,-48.6973 199.5079,-38.0158 194.9099,-28.8197"/>
<polygon fill="#191970" stroke="#191970" points="197.924,-27.0217 190.3213,-19.6427 191.663,-30.1522 197.924,-27.0217"/>
</g>
</g>
</svg>
