<?xml version="1.0" encoding="UTF-8" standalone="no"?>
<!DOCTYPE svg PUBLIC "-//W3C//DTD SVG 1.1//EN"
 "http://www.w3.org/Graphics/SVG/1.1/DTD/svg11.dtd">
<!-- Generated by graphviz version 2.44.0 (0)
 -->
<!-- Title: myvar_free Pages: 1 -->
<svg width="186pt" height="66pt"
 viewBox="0.00 0.00 186.00 66.00" xmlns="http://www.w3.org/2000/svg" xmlns:xlink="http://www.w3.org/1999/xlink">
<g id="graph0" class="graph" transform="scale(1 1) rotate(0) translate(4 62)">
<title>myvar_free</title>
<polygon fill="white" stroke="transparent" points="-4,4 -4,-62 182,-62 182,4 -4,4"/>
<!-- Node1 -->
<g id="node1" class="node">
<title>Node1</title>
<g id="a_node1"><a xlink:title="Free a MyVar.">
<polygon fill="#bfbfbf" stroke="black" points="113,-19.5 113,-38.5 178,-38.5 178,-19.5 113,-19.5"/>
<text text-anchor="middle" x="145.5" y="-26.5" font-family="Helvetica" font-size="10.00">myvar_free</text>
</a>
</g>
</g>
<!-- Node2 -->
<g id="node2" class="node">
<title>Node2</title>
<g id="a_node2"><a xlink:href="myvar_8h.html#a07c1c40c4411830de39775a447454adb" target="_top" xlink:title="Unset the value of a &quot;my_&quot; variable.">
<polygon fill="white" stroke="red" points="8,-38.5 8,-57.5 69,-57.5 69,-38.5 8,-38.5"/>
<text text-anchor="middle" x="38.5" y="-45.5" font-family="Helvetica" font-size="10.00">myvar_del</text>
</a>
</g>
</g>
<!-- Node1&#45;&gt;Node2 -->
<g id="edge1" class="edge">
<title>Node1&#45;&gt;Node2</title>
<path fill="none" stroke="midnightblue" d="M102.9,-36.53C91.63,-38.57 79.65,-40.73 69.18,-42.63"/>
<polygon fill="midnightblue" stroke="midnightblue" points="103.78,-39.93 113,-34.7 102.53,-33.04 103.78,-39.93"/>
</g>
<!-- Node4 -->
<g id="node3" class="node">
<title>Node4</title>
<g id="a_node3"><a xlink:href="myvar_8h.html#abd1e532c6d4b12b18fde238b0eb74ca5" target="_top" xlink:title="Free a List of MyVars.">
<polygon fill="white" stroke="red" points="0,-0.5 0,-19.5 77,-19.5 77,-0.5 0,-0.5"/>
<text text-anchor="middle" x="38.5" y="-7.5" font-family="Helvetica" font-size="10.00">myvarlist_free</text>
</a>
</g>
</g>
<!-- Node1&#45;&gt;Node4 -->
<g id="edge2" class="edge">
<title>Node1&#45;&gt;Node4</title>
<path fill="none" stroke="midnightblue" d="M102.93,-21.48C94.47,-19.95 85.6,-18.34 77.28,-16.84"/>
<polygon fill="midnightblue" stroke="midnightblue" points="102.53,-24.96 113,-23.3 103.78,-18.07 102.53,-24.96"/>
</g>
</g>
</svg>
