<?xml version="1.0" encoding="UTF-8" standalone="no"?>
<!DOCTYPE svg PUBLIC "-//W3C//DTD SVG 1.1//EN"
 "http://www.w3.org/Graphics/SVG/1.1/DTD/svg11.dtd">
<!-- Generated by graphviz version 12.2.1 (20241206.2353)
 -->
<!-- Title: ncrypt/module_data.h Pages: 1 -->
<svg width="1682pt" height="89pt"
 viewBox="0.00 0.00 1682.38 88.50" xmlns="http://www.w3.org/2000/svg" xmlns:xlink="http://www.w3.org/1999/xlink">
<g id="graph0" class="graph" transform="scale(1 1) rotate(0) translate(4 84.5)">
<title>ncrypt/module_data.h</title>
<!-- Node1 -->
<g id="Node000001" class="node">
<title>Node1</title>
<g id="a_Node000001"><a xlink:title="Ncrypt private Module data.">
<polygon fill="#999999" stroke="#666666" points="915.75,-80.5 797,-80.5 797,-58.25 915.75,-58.25 915.75,-80.5"/>
<text text-anchor="middle" x="856.38" y="-67" font-family="Helvetica,sans-Serif" font-size="10.00">ncrypt/module_data.h</text>
</a>
</g>
</g>
<!-- Node2 -->
<g id="Node000002" class="node">
<title>Node2</title>
<g id="a_Node000002"><a xlink:href="crypt__gpgme_8c.html" target="_top" xlink:title="Wrapper for PGP/SMIME calls to GPGME.">
<polygon fill="white" stroke="#666666" points="118.75,-22.25 0,-22.25 0,0 118.75,0 118.75,-22.25"/>
<text text-anchor="middle" x="59.38" y="-8.75" font-family="Helvetica,sans-Serif" font-size="10.00">ncrypt/crypt_gpgme.c</text>
</a>
</g>
</g>
<!-- Node1&#45;&gt;Node2 -->
<g id="edge1_Node000001_Node000002" class="edge">
<title>Node1&#45;&gt;Node2</title>
<g id="a_edge1_Node000001_Node000002"><a xlink:title=" ">
<path fill="none" stroke="#63b8ff" d="M785.41,-65.82C655.01,-60.7 368.62,-47.44 128.38,-22.25 125.36,-21.93 122.28,-21.58 119.18,-21.21"/>
<polygon fill="#63b8ff" stroke="#63b8ff" points="785.14,-69.32 795.27,-66.21 785.42,-62.32 785.14,-69.32"/>
</a>
</g>
</g>
<!-- Node3 -->
<g id="Node000003" class="node">
<title>Node3</title>
<g id="a_Node000003"><a xlink:href="crypt__mod_8c.html" target="_top" xlink:title="Register crypto modules.">
<polygon fill="white" stroke="#666666" points="243.75,-22.25 137,-22.25 137,0 243.75,0 243.75,-22.25"/>
<text text-anchor="middle" x="190.38" y="-8.75" font-family="Helvetica,sans-Serif" font-size="10.00">ncrypt/crypt_mod.c</text>
</a>
</g>
</g>
<!-- Node1&#45;&gt;Node3 -->
<g id="edge2_Node000001_Node000003" class="edge">
<title>Node1&#45;&gt;Node3</title>
<g id="a_edge2_Node000001_Node000003"><a xlink:title=" ">
<path fill="none" stroke="#63b8ff" d="M785.39,-64.93C672.31,-59 444.44,-45.22 252.38,-22.25 249.67,-21.93 246.9,-21.57 244.1,-21.19"/>
<polygon fill="#63b8ff" stroke="#63b8ff" points="784.95,-68.41 795.12,-65.43 785.31,-61.42 784.95,-68.41"/>
</a>
</g>
</g>
<!-- Node4 -->
<g id="Node000004" class="node">
<title>Node4</title>
<g id="a_Node000004"><a xlink:href="cryptglue_8c.html" target="_top" xlink:title="Wrapper around crypto functions.">
<polygon fill="white" stroke="#666666" points="363.12,-22.25 261.62,-22.25 261.62,0 363.12,0 363.12,-22.25"/>
<text text-anchor="middle" x="312.38" y="-8.75" font-family="Helvetica,sans-Serif" font-size="10.00">ncrypt/cryptglue.c</text>
</a>
</g>
</g>
<!-- Node1&#45;&gt;Node4 -->
<g id="edge3_Node000001_Node000004" class="edge">
<title>Node1&#45;&gt;Node4</title>
<g id="a_edge3_Node000001_Node000004"><a xlink:title=" ">
<path fill="none" stroke="#63b8ff" d="M785.43,-63.31C690.77,-56.16 518.06,-41.78 371.38,-22.25 368.8,-21.91 366.16,-21.53 363.51,-21.14"/>
<polygon fill="#63b8ff" stroke="#63b8ff" points="785.11,-66.79 795.35,-64.05 785.64,-59.81 785.11,-66.79"/>
</a>
</g>
</g>
<!-- Node5 -->
<g id="Node000005" class="node">
<title>Node5</title>
<g id="a_Node000005"><a xlink:href="dlg__gpgme_8c.html" target="_top" xlink:title="GPGME Key Selection Dialog.">
<polygon fill="white" stroke="#666666" points="489.88,-22.25 380.88,-22.25 380.88,0 489.88,0 489.88,-22.25"/>
<text text-anchor="middle" x="435.38" y="-8.75" font-family="Helvetica,sans-Serif" font-size="10.00">ncrypt/dlg_gpgme.c</text>
</a>
</g>
</g>
<!-- Node1&#45;&gt;Node5 -->
<g id="edge4_Node000001_Node000005" class="edge">
<title>Node1&#45;&gt;Node5</title>
<g id="a_edge4_Node000001_Node000005"><a xlink:title=" ">
<path fill="none" stroke="#63b8ff" d="M785.42,-59.81C713.32,-50.97 598.46,-36.49 499.38,-22.25 496.37,-21.82 493.28,-21.36 490.17,-20.9"/>
<polygon fill="#63b8ff" stroke="#63b8ff" points="784.76,-63.26 795.11,-61 785.61,-56.31 784.76,-63.26"/>
</a>
</g>
</g>
<!-- Node6 -->
<g id="Node000006" class="node">
<title>Node6</title>
<g id="a_Node000006"><a xlink:href="dlg__pgp_8c.html" target="_top" xlink:title="PGP Key Selection Dialog.">
<polygon fill="white" stroke="#666666" points="602.38,-22.25 508.38,-22.25 508.38,0 602.38,0 602.38,-22.25"/>
<text text-anchor="middle" x="555.38" y="-8.75" font-family="Helvetica,sans-Serif" font-size="10.00">ncrypt/dlg_pgp.c</text>
</a>
</g>
</g>
<!-- Node1&#45;&gt;Node6 -->
<g id="edge5_Node000001_Node000006" class="edge">
<title>Node1&#45;&gt;Node6</title>
<g id="a_edge5_Node000001_Node000006"><a xlink:title=" ">
<path fill="none" stroke="#63b8ff" d="M788.76,-55.74C732.18,-45.17 652.88,-30.35 602.83,-20.99"/>
<polygon fill="#63b8ff" stroke="#63b8ff" points="787.8,-59.12 798.27,-57.52 789.08,-52.24 787.8,-59.12"/>
</a>
</g>
</g>
<!-- Node7 -->
<g id="Node000007" class="node">
<title>Node7</title>
<g id="a_Node000007"><a xlink:href="dlg__smime_8c.html" target="_top" xlink:title="SMIME Key Selection Dialog.">
<polygon fill="white" stroke="#666666" points="726.75,-22.25 620,-22.25 620,0 726.75,0 726.75,-22.25"/>
<text text-anchor="middle" x="673.38" y="-8.75" font-family="Helvetica,sans-Serif" font-size="10.00">ncrypt/dlg_smime.c</text>
</a>
</g>
</g>
<!-- Node1&#45;&gt;Node7 -->
<g id="edge6_Node000001_Node000007" class="edge">
<title>Node1&#45;&gt;Node7</title>
<g id="a_edge6_Node000001_Node000007"><a xlink:title=" ">
<path fill="none" stroke="#63b8ff" d="M811.1,-54.46C779.1,-44.62 736.86,-31.64 707.64,-22.66"/>
<polygon fill="#63b8ff" stroke="#63b8ff" points="809.92,-57.76 820.51,-57.35 811.98,-51.07 809.92,-57.76"/>
</a>
</g>
</g>
<!-- Node8 -->
<g id="Node000008" class="node">
<title>Node8</title>
<g id="a_Node000008"><a xlink:href="ncrypt_2functions_8c.html" target="_top" xlink:title="PGP/Smime functions.">
<polygon fill="white" stroke="#666666" points="844.38,-22.25 744.38,-22.25 744.38,0 844.38,0 844.38,-22.25"/>
<text text-anchor="middle" x="794.38" y="-8.75" font-family="Helvetica,sans-Serif" font-size="10.00">ncrypt/functions.c</text>
</a>
</g>
</g>
<!-- Node1&#45;&gt;Node8 -->
<g id="edge7_Node000001_Node000008" class="edge">
<title>Node1&#45;&gt;Node8</title>
<g id="a_edge7_Node000001_Node000008"><a xlink:title=" ">
<path fill="none" stroke="#63b8ff" d="M836.46,-50.31C826.4,-41.18 814.54,-30.42 805.98,-22.66"/>
<polygon fill="#63b8ff" stroke="#63b8ff" points="833.83,-52.65 843.59,-56.78 838.54,-47.47 833.83,-52.65"/>
</a>
</g>
</g>
<!-- Node9 -->
<g id="Node000009" class="node">
<title>Node9</title>
<g id="a_Node000009"><a xlink:href="gnupgparse_8c.html" target="_top" xlink:title="Parse the output of CLI PGP program.">
<polygon fill="white" stroke="#666666" points="976.12,-22.25 862.62,-22.25 862.62,0 976.12,0 976.12,-22.25"/>
<text text-anchor="middle" x="919.38" y="-8.75" font-family="Helvetica,sans-Serif" font-size="10.00">ncrypt/gnupgparse.c</text>
</a>
</g>
</g>
<!-- Node1&#45;&gt;Node9 -->
<g id="edge8_Node000001_Node000009" class="edge">
<title>Node1&#45;&gt;Node9</title>
<g id="a_edge8_Node000001_Node000009"><a xlink:title=" ">
<path fill="none" stroke="#63b8ff" d="M876.61,-50.31C886.83,-41.18 898.88,-30.42 907.58,-22.66"/>
<polygon fill="#63b8ff" stroke="#63b8ff" points="874.48,-47.52 869.35,-56.79 879.14,-52.74 874.48,-47.52"/>
</a>
</g>
</g>
<!-- Node10 -->
<g id="Node000010" class="node">
<title>Node10</title>
<g id="a_Node000010"><a xlink:href="gpgme__functions_8c.html" target="_top" xlink:title="Gpgme functions.">
<polygon fill="white" stroke="#666666" points="1132.12,-22.25 994.62,-22.25 994.62,0 1132.12,0 1132.12,-22.25"/>
<text text-anchor="middle" x="1063.38" y="-8.75" font-family="Helvetica,sans-Serif" font-size="10.00">ncrypt/gpgme_functions.c</text>
</a>
</g>
</g>
<!-- Node1&#45;&gt;Node10 -->
<g id="edge9_Node000001_Node000010" class="edge">
<title>Node1&#45;&gt;Node10</title>
<g id="a_edge9_Node000001_Node000010"><a xlink:title=" ">
<path fill="none" stroke="#63b8ff" d="M906.17,-54.84C942.53,-44.96 991.13,-31.76 1024.61,-22.66"/>
<polygon fill="#63b8ff" stroke="#63b8ff" points="905.5,-51.4 896.77,-57.4 907.34,-58.15 905.5,-51.4"/>
</a>
</g>
</g>
<!-- Node11 -->
<g id="Node000011" class="node">
<title>Node11</title>
<g id="a_Node000011"><a xlink:href="ncrypt_2module_8c.html" target="_top" xlink:title="Definition of the Ncrypt Module.">
<polygon fill="white" stroke="#666666" points="1242.62,-22.25 1150.12,-22.25 1150.12,0 1242.62,0 1242.62,-22.25"/>
<text text-anchor="middle" x="1196.38" y="-8.75" font-family="Helvetica,sans-Serif" font-size="10.00">ncrypt/module.c</text>
</a>
</g>
</g>
<!-- Node1&#45;&gt;Node11 -->
<g id="edge10_Node000001_Node000011" class="edge">
<title>Node1&#45;&gt;Node11</title>
<g id="a_edge10_Node000001_Node000011"><a xlink:title=" ">
<path fill="none" stroke="#63b8ff" d="M927.4,-57.32C985.1,-48.23 1068.56,-34.84 1141.38,-22.25 1144.15,-21.77 1147,-21.27 1149.88,-20.76"/>
<polygon fill="#63b8ff" stroke="#63b8ff" points="927.04,-53.83 917.71,-58.84 928.13,-60.74 927.04,-53.83"/>
</a>
</g>
</g>
<!-- Node12 -->
<g id="Node000012" class="node">
<title>Node12</title>
<g id="a_Node000012"><a xlink:href="pgp_8c.html" target="_top" xlink:title="PGP sign, encrypt, check routines.">
<polygon fill="white" stroke="#666666" points="1336,-22.25 1260.75,-22.25 1260.75,0 1336,0 1336,-22.25"/>
<text text-anchor="middle" x="1298.38" y="-8.75" font-family="Helvetica,sans-Serif" font-size="10.00">ncrypt/pgp.c</text>
</a>
</g>
</g>
<!-- Node1&#45;&gt;Node12 -->
<g id="edge11_Node000001_Node000012" class="edge">
<title>Node1&#45;&gt;Node12</title>
<g id="a_edge11_Node000001_Node000012"><a xlink:title=" ">
<path fill="none" stroke="#63b8ff" d="M927.49,-62.14C1006.8,-54.71 1138.74,-40.91 1251.38,-22.25 1254.34,-21.76 1257.4,-21.21 1260.47,-20.62"/>
<polygon fill="#63b8ff" stroke="#63b8ff" points="927.32,-58.64 917.69,-63.05 927.97,-65.61 927.32,-58.64"/>
</a>
</g>
</g>
<!-- Node13 -->
<g id="Node000013" class="node">
<title>Node13</title>
<g id="a_Node000013"><a xlink:href="pgpkey_8c.html" target="_top" xlink:title="PGP key management routines.">
<polygon fill="white" stroke="#666666" points="1444.5,-22.25 1354.25,-22.25 1354.25,0 1444.5,0 1444.5,-22.25"/>
<text text-anchor="middle" x="1399.38" y="-8.75" font-family="Helvetica,sans-Serif" font-size="10.00">ncrypt/pgpkey.c</text>
</a>
</g>
</g>
<!-- Node1&#45;&gt;Node13 -->
<g id="edge12_Node000001_Node000013" class="edge">
<title>Node1&#45;&gt;Node13</title>
<g id="a_edge12_Node000001_Node000013"><a xlink:title=" ">
<path fill="none" stroke="#63b8ff" d="M927.27,-63.73C1022.61,-57.01 1197.29,-43.07 1345.38,-22.25 1348.11,-21.86 1350.93,-21.44 1353.76,-20.98"/>
<polygon fill="#63b8ff" stroke="#63b8ff" points="927.29,-60.22 917.56,-64.41 927.78,-67.2 927.29,-60.22"/>
</a>
</g>
</g>
<!-- Node14 -->
<g id="Node000014" class="node">
<title>Node14</title>
<g id="a_Node000014"><a xlink:href="pgppacket_8c.html" target="_top" xlink:title="Parse PGP data packets.">
<polygon fill="white" stroke="#666666" points="1568.38,-22.25 1462.38,-22.25 1462.38,0 1568.38,0 1568.38,-22.25"/>
<text text-anchor="middle" x="1515.38" y="-8.75" font-family="Helvetica,sans-Serif" font-size="10.00">ncrypt/pgppacket.c</text>
</a>
</g>
</g>
<!-- Node1&#45;&gt;Node14 -->
<g id="edge13_Node000001_Node000014" class="edge">
<title>Node1&#45;&gt;Node14</title>
<g id="a_edge13_Node000001_Node000014"><a xlink:title=" ">
<path fill="none" stroke="#63b8ff" d="M927.32,-64.84C1039.35,-58.83 1263.97,-44.99 1453.38,-22.25 1456.19,-21.91 1459.07,-21.54 1461.98,-21.14"/>
<polygon fill="#63b8ff" stroke="#63b8ff" points="927.17,-61.35 917.37,-65.37 927.54,-68.34 927.17,-61.35"/>
</a>
</g>
</g>
<!-- Node15 -->
<g id="Node000015" class="node">
<title>Node15</title>
<g id="a_Node000015"><a xlink:href="smime_8c.html" target="_top" xlink:title="SMIME helper routines.">
<polygon fill="white" stroke="#666666" points="1674.38,-22.25 1586.38,-22.25 1586.38,0 1674.38,0 1674.38,-22.25"/>
<text text-anchor="middle" x="1630.38" y="-8.75" font-family="Helvetica,sans-Serif" font-size="10.00">ncrypt/smime.c</text>
</a>
</g>
</g>
<!-- Node1&#45;&gt;Node15 -->
<g id="edge14_Node000001_Node000015" class="edge">
<title>Node1&#45;&gt;Node15</title>
<g id="a_edge14_Node000001_Node000015"><a xlink:title=" ">
<path fill="none" stroke="#63b8ff" d="M927.27,-66.77C1056.83,-63.2 1340.34,-52.35 1577.38,-22.25 1580.16,-21.9 1583.03,-21.49 1585.91,-21.04"/>
<polygon fill="#63b8ff" stroke="#63b8ff" points="927.38,-63.27 917.48,-67.04 927.57,-70.27 927.38,-63.27"/>
</a>
</g>
</g>
</g>
</svg>
