<?xml version="1.0" encoding="UTF-8" standalone="no"?>
<!DOCTYPE svg PUBLIC "-//W3C//DTD SVG 1.1//EN"
 "http://www.w3.org/Graphics/SVG/1.1/DTD/svg11.dtd">
<!-- Generated by graphviz version 2.40.1 (20161225.0304)
 -->
<!-- Title: neomutt_mailboxlist_clear Pages: 1 -->
<svg width="456pt" height="565pt"
 viewBox="0.00 0.00 456.00 564.82" xmlns="http://www.w3.org/2000/svg" xmlns:xlink="http://www.w3.org/1999/xlink">
<g id="graph0" class="graph" transform="scale(1 1) rotate(0) translate(4 560.819)">
<title>neomutt_mailboxlist_clear</title>
<polygon fill="#ffffff" stroke="transparent" points="-4,4 -4,-560.819 452,-560.819 452,4 -4,4"/>
<!-- Node1117 -->
<g id="node1" class="node">
<title>Node1117</title>
<polygon fill="#bfbfbf" stroke="#000000" points="0,-272.5 0,-302.5 118,-302.5 118,-272.5 0,-272.5"/>
<text text-anchor="start" x="8" y="-290.5" font-family="Helvetica,sans-Serif" font-size="10.00" fill="#000000">neomutt_mailboxlist</text>
<text text-anchor="middle" x="59" y="-279.5" font-family="Helvetica,sans-Serif" font-size="10.00" fill="#000000">_clear</text>
</g>
<!-- Node1118 -->
<g id="node2" class="node">
<title>Node1118</title>
<g id="a_node2"><a xlink:href="browser_8c.html#a885690503717d9d6d9f8e7927d6d4abb" target="_top" xlink:title="Get list of all files/newsgroups with mask. ">
<polygon fill="#ffffff" stroke="#ff0000" points="336,-534 336,-553 444,-553 444,-534 336,-534"/>
<text text-anchor="middle" x="390" y="-541" font-family="Helvetica,sans-Serif" font-size="10.00" fill="#000000">examine_directory</text>
</a>
</g>
</g>
<!-- Node1117&#45;&gt;Node1118 -->
<g id="edge1" class="edge">
<title>Node1117&#45;&gt;Node1118</title>
<path fill="none" stroke="#191970" d="M60.9785,-312.8679C66.3123,-362.205 85.6182,-470.688 154,-521.5 207.0124,-560.8916 286.3168,-559.5374 338.1079,-553.0451"/>
<polygon fill="#191970" stroke="#191970" points="64.445,-312.3532 59.9929,-302.7392 57.4779,-313.0312 64.445,-312.3532"/>
</g>
<!-- Node1596 -->
<g id="node3" class="node">
<title>Node1596</title>
<g id="a_node3"><a xlink:href="browser_8c.html#aec34de9f81842bd3ef14d44809304c43" target="_top" xlink:title="Get list of mailboxes/subscribed newsgroups. ">
<polygon fill="#ffffff" stroke="#ff0000" points="332,-477 332,-496 448,-496 448,-477 332,-477"/>
<text text-anchor="middle" x="390" y="-484" font-family="Helvetica,sans-Serif" font-size="10.00" fill="#000000">examine_mailboxes</text>
</a>
</g>
</g>
<!-- Node1117&#45;&gt;Node1596 -->
<g id="edge2" class="edge">
<title>Node1117&#45;&gt;Node1596</title>
<path fill="none" stroke="#191970" d="M61.8175,-312.6488C68.4726,-358.5888 89.7807,-455.1483 154,-496.5 220.2003,-539.1272 319.8501,-512.1886 365.5375,-496.0551"/>
<polygon fill="#191970" stroke="#191970" points="65.273,-312.0817 60.4849,-302.6305 58.3341,-313.0047 65.273,-312.0817"/>
</g>
<!-- Node1597 -->
<g id="node4" class="node">
<title>Node1597</title>
<g id="a_node4"><a xlink:href="command__parse_8c.html#a7a682ec69ec56de3c8498f11fa16db7c" target="_top" xlink:title="Remove all Mailboxes from the Sidebar/notifications. ">
<polygon fill="#ffffff" stroke="#ff0000" points="164.5,-392 164.5,-411 285.5,-411 285.5,-392 164.5,-392"/>
<text text-anchor="middle" x="225" y="-399" font-family="Helvetica,sans-Serif" font-size="10.00" fill="#000000">do_unmailboxes_star</text>
</a>
</g>
</g>
<!-- Node1117&#45;&gt;Node1597 -->
<g id="edge3" class="edge">
<title>Node1117&#45;&gt;Node1597</title>
<path fill="none" stroke="#191970" d="M76.3573,-310.8628C93.6872,-332.555 122.255,-364.1788 154,-382.5 160.7415,-386.3908 168.3015,-389.5061 175.9071,-391.9947"/>
<polygon fill="#191970" stroke="#191970" points="78.98,-308.5346 70.0689,-302.8037 73.4613,-312.8408 78.98,-308.5346"/>
</g>
<!-- Node1598 -->
<g id="node5" class="node">
<title>Node1598</title>
<g id="a_node5"><a xlink:href="mailbox_8h.html#af136c4998f1122c79ec9769d9288175a" target="_top" xlink:title="Find the mailbox with a given path. ">
<polygon fill="#ffffff" stroke="#ff0000" points="185,-354 185,-373 265,-373 265,-354 185,-354"/>
<text text-anchor="middle" x="225" y="-361" font-family="Helvetica,sans-Serif" font-size="10.00" fill="#000000">mailbox_find</text>
</a>
</g>
</g>
<!-- Node1117&#45;&gt;Node1598 -->
<g id="edge4" class="edge">
<title>Node1117&#45;&gt;Node1598</title>
<path fill="none" stroke="#191970" d="M88.7547,-308.3045C106.9276,-320.2472 131.0203,-334.7586 154,-344.5 163.7509,-348.6335 174.6424,-352.084 184.9098,-354.8598"/>
<polygon fill="#191970" stroke="#191970" points="90.5987,-305.3272 80.3398,-302.6802 86.7089,-311.147 90.5987,-305.3272"/>
</g>
<!-- Node1603 -->
<g id="node6" class="node">
<title>Node1603</title>
<g id="a_node6"><a xlink:href="mailbox_8h.html#acfc4ad0910e3472a8c4bdb025e359687" target="_top" xlink:title="Find the mailbox with a given name. ">
<polygon fill="#ffffff" stroke="#ff0000" points="168.5,-316 168.5,-335 281.5,-335 281.5,-316 168.5,-316"/>
<text text-anchor="middle" x="225" y="-323" font-family="Helvetica,sans-Serif" font-size="10.00" fill="#000000">mailbox_find_name</text>
</a>
</g>
</g>
<!-- Node1117&#45;&gt;Node1603 -->
<g id="edge5" class="edge">
<title>Node1117&#45;&gt;Node1603</title>
<path fill="none" stroke="#191970" d="M128.4196,-303.3912C147.1019,-307.6679 166.7277,-312.1606 183.3714,-315.9706"/>
<polygon fill="#191970" stroke="#191970" points="128.9898,-299.9313 118.4609,-301.1115 127.4278,-306.7548 128.9898,-299.9313"/>
</g>
<!-- Node1605 -->
<g id="node7" class="node">
<title>Node1605</title>
<g id="a_node7"><a xlink:href="sidebar_2window_8c.html#ae8fdf0a222141e5e18f6caa9a15f93f6" target="_top" xlink:title="Recalculate the Sidebar display &#45; Implements MuttWindow::recalc() ">
<polygon fill="#ffffff" stroke="#ff0000" points="194,-278 194,-297 256,-297 256,-278 194,-278"/>
<text text-anchor="middle" x="225" y="-285" font-family="Helvetica,sans-Serif" font-size="10.00" fill="#000000">sb_recalc</text>
</a>
</g>
</g>
<!-- Node1117&#45;&gt;Node1605 -->
<g id="edge6" class="edge">
<title>Node1117&#45;&gt;Node1605</title>
<path fill="none" stroke="#191970" d="M128.763,-287.5C151.4473,-287.5 175.4857,-287.5 193.8634,-287.5"/>
<polygon fill="#191970" stroke="#191970" points="128.461,-284.0001 118.4609,-287.5 128.4609,-291.0001 128.461,-284.0001"/>
</g>
<!-- Node1606 -->
<g id="node8" class="node">
<title>Node1606</title>
<g id="a_node8"><a xlink:href="imap_2browse_8c.html#aa8f4671fc317a9d9c49a6c0fae13321e" target="_top" xlink:title="Format and add an IMAP folder to the browser. ">
<polygon fill="#ffffff" stroke="#ff0000" points="191,-240 191,-259 259,-259 259,-240 191,-240"/>
<text text-anchor="middle" x="225" y="-247" font-family="Helvetica,sans-Serif" font-size="10.00" fill="#000000">add_folder</text>
</a>
</g>
</g>
<!-- Node1117&#45;&gt;Node1606 -->
<g id="edge7" class="edge">
<title>Node1117&#45;&gt;Node1606</title>
<path fill="none" stroke="#191970" d="M128.2307,-271.652C149.7355,-266.7292 172.5089,-261.516 190.5575,-257.3844"/>
<polygon fill="#191970" stroke="#191970" points="127.4278,-268.2452 118.4609,-273.8885 128.9898,-275.0687 127.4278,-268.2452"/>
</g>
<!-- Node1177 -->
<g id="node9" class="node">
<title>Node1177</title>
<g id="a_node9"><a xlink:href="imap_2lib_8h.html#a3148406431ca84d8cfaae786e47c5c8d" target="_top" xlink:title="IMAP hook into the folder browser. ">
<polygon fill="#ffffff" stroke="#ff0000" points="349,-221 349,-240 431,-240 431,-221 349,-221"/>
<text text-anchor="middle" x="390" y="-228" font-family="Helvetica,sans-Serif" font-size="10.00" fill="#000000">imap_browse</text>
</a>
</g>
</g>
<!-- Node1117&#45;&gt;Node1177 -->
<g id="edge9" class="edge">
<title>Node1117&#45;&gt;Node1177</title>
<path fill="none" stroke="#191970" d="M85.5228,-266.2077C103.6361,-253.0827 128.8314,-237.4713 154,-230.5 220.1383,-212.1808 300.7611,-217.834 348.5999,-223.932"/>
<polygon fill="#191970" stroke="#191970" points="83.1474,-263.6134 77.2309,-272.4024 87.3369,-269.2213 83.1474,-263.6134"/>
</g>
<!-- Node1607 -->
<g id="node10" class="node">
<title>Node1607</title>
<g id="a_node10"><a xlink:href="imap_8c.html#ac58d293937015b8560ee115503d199ff" target="_top" xlink:title="Look for completion matches for mailboxes. ">
<polygon fill="#ffffff" stroke="#ff0000" points="178,-164 178,-183 272,-183 272,-164 178,-164"/>
<text text-anchor="middle" x="225" y="-171" font-family="Helvetica,sans-Serif" font-size="10.00" fill="#000000">complete_hosts</text>
</a>
</g>
</g>
<!-- Node1117&#45;&gt;Node1607 -->
<g id="edge10" class="edge">
<title>Node1117&#45;&gt;Node1607</title>
<path fill="none" stroke="#191970" d="M78.0193,-264.5453C95.8097,-244.3836 124.0673,-215.5311 154,-197.5 164.031,-191.4574 175.7843,-186.6972 186.8091,-183.0646"/>
<polygon fill="#191970" stroke="#191970" points="75.1787,-262.4794 71.2851,-272.3328 80.4736,-267.0581 75.1787,-262.4794"/>
</g>
<!-- Node1299 -->
<g id="node11" class="node">
<title>Node1299</title>
<g id="a_node11"><a xlink:href="init_8h.html#aadc99134446d4162844e0a8d103df18b" target="_top" xlink:title="Initialise NeoMutt. ">
<polygon fill="#ffffff" stroke="#ff0000" points="194.5,-126 194.5,-145 255.5,-145 255.5,-126 194.5,-126"/>
<text text-anchor="middle" x="225" y="-133" font-family="Helvetica,sans-Serif" font-size="10.00" fill="#000000">mutt_init</text>
</a>
</g>
</g>
<!-- Node1117&#45;&gt;Node1299 -->
<g id="edge11" class="edge">
<title>Node1117&#45;&gt;Node1299</title>
<path fill="none" stroke="#191970" d="M70.1183,-262.708C84.9248,-232.5482 113.9778,-182.2354 154,-154.5 165.8513,-146.287 181.0737,-141.6226 194.3821,-138.9743"/>
<polygon fill="#191970" stroke="#191970" points="66.7847,-261.5681 65.6479,-272.1018 73.1055,-264.5762 66.7847,-261.5681"/>
</g>
<!-- Node1608 -->
<g id="node12" class="node">
<title>Node1608</title>
<g id="a_node12"><a xlink:href="mutt__mailbox_8h.html#a699c8af5931c0e7156efb889a6e43738" target="_top" xlink:title="Check all all Mailboxes for new mail. ">
<polygon fill="#ffffff" stroke="#ff0000" points="165.5,-468 165.5,-487 284.5,-487 284.5,-468 165.5,-468"/>
<text text-anchor="middle" x="225" y="-475" font-family="Helvetica,sans-Serif" font-size="10.00" fill="#000000">mutt_mailbox_check</text>
</a>
</g>
</g>
<!-- Node1117&#45;&gt;Node1608 -->
<g id="edge12" class="edge">
<title>Node1117&#45;&gt;Node1608</title>
<path fill="none" stroke="#191970" d="M66.8991,-312.5362C79.5632,-348.7279 107.7916,-415.48 154,-453.5 161.6362,-459.783 170.996,-464.4507 180.383,-467.9085"/>
<polygon fill="#191970" stroke="#191970" points="70.1164,-311.1239 63.6015,-302.7689 63.4842,-313.3631 70.1164,-311.1239"/>
</g>
<!-- Node1324 -->
<g id="node13" class="node">
<title>Node1324</title>
<g id="a_node13"><a xlink:href="mutt__mailbox_8h.html#a4a77c0185d4129b0a7ab77c30481b9ef" target="_top" xlink:title="incoming folders completion routine ">
<polygon fill="#ffffff" stroke="#ff0000" points="334,-434 334,-453 446,-453 446,-434 334,-434"/>
<text text-anchor="middle" x="390" y="-441" font-family="Helvetica,sans-Serif" font-size="10.00" fill="#000000">mutt_mailbox_next</text>
</a>
</g>
</g>
<!-- Node1117&#45;&gt;Node1324 -->
<g id="edge17" class="edge">
<title>Node1117&#45;&gt;Node1324</title>
<path fill="none" stroke="#191970" d="M68.8011,-312.0119C82.6739,-343.1434 111.2098,-395.7808 154,-420.5 208.8948,-452.2118 283.1473,-454.0935 333.6027,-450.5587"/>
<polygon fill="#191970" stroke="#191970" points="71.9741,-310.5306 64.8127,-302.7226 65.5419,-313.2924 71.9741,-310.5306"/>
</g>
<!-- Node1613 -->
<g id="node14" class="node">
<title>Node1613</title>
<g id="a_node14"><a xlink:href="mutt__mailbox_8h.html#ab9927df6282aeabd032cfca3332f4907" target="_top" xlink:title="List the mailboxes with new mail. ">
<polygon fill="#ffffff" stroke="#ff0000" points="172.5,-88 172.5,-107 277.5,-107 277.5,-88 172.5,-88"/>
<text text-anchor="middle" x="225" y="-95" font-family="Helvetica,sans-Serif" font-size="10.00" fill="#000000">mutt_mailbox_list</text>
</a>
</g>
</g>
<!-- Node1117&#45;&gt;Node1613 -->
<g id="edge16" class="edge">
<title>Node1117&#45;&gt;Node1613</title>
<path fill="none" stroke="#191970" d="M65.9403,-262.6463C77.7043,-225.1859 105.174,-154.597 154,-116.5 159.4325,-112.2613 165.7322,-108.9653 172.2917,-106.4031"/>
<polygon fill="#191970" stroke="#191970" points="62.5717,-261.6942 63.034,-272.279 69.2734,-263.7162 62.5717,-261.6942"/>
</g>
<!-- Node1614 -->
<g id="node15" class="node">
<title>Node1614</title>
<g id="a_node15"><a xlink:href="observer_8c.html#ac4a9feba12a608728753334115f8ef1b" target="_top" xlink:title="Initialise the Sidebar data. ">
<polygon fill="#ffffff" stroke="#ff0000" points="187,-50 187,-69 263,-69 263,-50 187,-50"/>
<text text-anchor="middle" x="225" y="-57" font-family="Helvetica,sans-Serif" font-size="10.00" fill="#000000">sb_init_data</text>
</a>
</g>
</g>
<!-- Node1117&#45;&gt;Node1614 -->
<g id="edge18" class="edge">
<title>Node1117&#45;&gt;Node1614</title>
<path fill="none" stroke="#191970" d="M63.1865,-262.6421C71.9151,-218.718 96.264,-127.4097 154,-78.5 163.1521,-70.747 175.1558,-66.126 186.683,-63.3821"/>
<polygon fill="#191970" stroke="#191970" points="59.743,-262.016 61.336,-272.4904 66.6226,-263.3087 59.743,-262.016"/>
</g>
<!-- Node1615 -->
<g id="node16" class="node">
<title>Node1615</title>
<g id="a_node16"><a xlink:href="neomutt__mailboxlist__clear_8c.html#ace308ce2e058fc073a9d6669b99e00c3" target="_top" xlink:title="test_neomutt_mailboxlist\l_clear">
<polygon fill="#ffffff" stroke="#000000" points="154,-.5 154,-30.5 296,-30.5 296,-.5 154,-.5"/>
<text text-anchor="start" x="162" y="-18.5" font-family="Helvetica,sans-Serif" font-size="10.00" fill="#000000">test_neomutt_mailboxlist</text>
<text text-anchor="middle" x="225" y="-7.5" font-family="Helvetica,sans-Serif" font-size="10.00" fill="#000000">_clear</text>
</a>
</g>
</g>
<!-- Node1117&#45;&gt;Node1615 -->
<g id="edge19" class="edge">
<title>Node1117&#45;&gt;Node1615</title>
<path fill="none" stroke="#191970" d="M61.7382,-262.2178C68.4139,-212.7804 89.9784,-102.7151 154,-40.5 157.9362,-36.6749 162.4919,-33.432 167.3579,-30.6832"/>
<polygon fill="#191970" stroke="#191970" points="58.2395,-261.9894 60.4671,-272.3474 65.185,-262.861 58.2395,-261.9894"/>
</g>
<!-- Node1606&#45;&gt;Node1177 -->
<g id="edge8" class="edge">
<title>Node1606&#45;&gt;Node1177</title>
<path fill="none" stroke="#191970" d="M269.3874,-244.3887C294.1046,-241.5425 324.6717,-238.0227 348.8489,-235.2386"/>
<polygon fill="#191970" stroke="#191970" points="268.722,-240.9421 259.1881,-245.5632 269.5229,-247.8962 268.722,-240.9421"/>
</g>
<!-- Node1608&#45;&gt;Node1118 -->
<g id="edge13" class="edge">
<title>Node1608&#45;&gt;Node1118</title>
<path fill="none" stroke="#191970" d="M258.3906,-490.8562C290.402,-503.6608 337.9226,-522.669 366.2463,-533.9985"/>
<polygon fill="#191970" stroke="#191970" points="259.5771,-487.5613 248.9924,-487.097 256.9773,-494.0606 259.5771,-487.5613"/>
</g>
<!-- Node1608&#45;&gt;Node1596 -->
<g id="edge14" class="edge">
<title>Node1608&#45;&gt;Node1596</title>
<path fill="none" stroke="#191970" d="M294.8268,-481.3087C307.1772,-481.9824 319.9158,-482.6772 331.8997,-483.3309"/>
<polygon fill="#191970" stroke="#191970" points="294.7446,-477.7991 284.5688,-480.7492 294.3633,-484.7887 294.7446,-477.7991"/>
</g>
<!-- Node1608&#45;&gt;Node1324 -->
<g id="edge15" class="edge">
<title>Node1608&#45;&gt;Node1324</title>
<path fill="none" stroke="#191970" d="M281.4506,-465.8678C301.7274,-461.6895 324.3436,-457.0292 343.6619,-453.0485"/>
<polygon fill="#191970" stroke="#191970" points="280.4886,-462.4924 271.4008,-467.9386 281.9014,-469.3483 280.4886,-462.4924"/>
</g>
</g>
</svg>
