<?xml version="1.0" encoding="UTF-8" standalone="no"?>
<!DOCTYPE svg PUBLIC "-//W3C//DTD SVG 1.1//EN"
 "http://www.w3.org/Graphics/SVG/1.1/DTD/svg11.dtd">
<!-- Generated by graphviz version 12.2.1 (20241206.2353)
 -->
<!-- Title: nntp_hcache_update Pages: 1 -->
<svg width="271pt" height="110pt"
 viewBox="0.00 0.00 271.00 110.25" xmlns="http://www.w3.org/2000/svg" xmlns:xlink="http://www.w3.org/1999/xlink">
<g id="graph0" class="graph" transform="scale(1 1) rotate(0) translate(4 106.25)">
<title>nntp_hcache_update</title>
<!-- Node1 -->
<g id="Node000001" class="node">
<title>Node1</title>
<g id="a_Node000001"><a xlink:title="Remove stale cached headers.">
<polygon fill="#999999" stroke="#666666" points="112,-62.25 0,-62.25 0,-40 112,-40 112,-62.25"/>
<text text-anchor="middle" x="56" y="-48.75" font-family="Helvetica,sans-Serif" font-size="10.00">nntp_hcache_update</text>
</a>
</g>
</g>
<!-- Node2 -->
<g id="Node000002" class="node">
<title>Node2</title>
<g id="a_Node000002"><a xlink:href="hcache_2hcache_8c.html#a66e48b640205127c7a4bb987b8d0192d" target="_top" xlink:title="Multiplexor for StoreOps::delete_record.">
<polygon fill="#fff0f0" stroke="red" points="261.5,-102.25 149.5,-102.25 149.5,-80 261.5,-80 261.5,-102.25"/>
<text text-anchor="middle" x="205.5" y="-88.75" font-family="Helvetica,sans-Serif" font-size="10.00">hcache_delete_email</text>
</a>
</g>
</g>
<!-- Node1&#45;&gt;Node2 -->
<g id="edge1_Node000001_Node000002" class="edge">
<title>Node1&#45;&gt;Node2</title>
<g id="a_edge1_Node000001_Node000002"><a xlink:title=" ">
<path fill="none" stroke="#63b8ff" d="M99.66,-62.69C115.65,-67.03 134.01,-72.01 150.86,-76.58"/>
<polygon fill="#63b8ff" stroke="#63b8ff" points="149.65,-79.88 160.22,-79.12 151.48,-73.12 149.65,-79.88"/>
</a>
</g>
</g>
<!-- Node4 -->
<g id="Node000004" class="node">
<title>Node4</title>
<g id="a_Node000004"><a xlink:href="hcache_2hcache_8c.html#a9f2aea3b2e8ba9dc758a06e0163dee14" target="_top" xlink:title="Fetch a string from the cache.">
<polygon fill="#fff0f0" stroke="red" points="263,-62.25 148,-62.25 148,-40 263,-40 263,-62.25"/>
<text text-anchor="middle" x="205.5" y="-48.75" font-family="Helvetica,sans-Serif" font-size="10.00">hcache_fetch_raw_str</text>
</a>
</g>
</g>
<!-- Node1&#45;&gt;Node4 -->
<g id="edge2_Node000001_Node000004" class="edge">
<title>Node1&#45;&gt;Node4</title>
<g id="a_edge2_Node000001_Node000004"><a xlink:title=" ">
<path fill="none" stroke="#63b8ff" d="M112.34,-51.12C120.23,-51.12 128.42,-51.12 136.52,-51.12"/>
<polygon fill="#63b8ff" stroke="#63b8ff" points="136.35,-54.63 146.35,-51.13 136.35,-47.63 136.35,-54.63"/>
</a>
</g>
</g>
<!-- Node7 -->
<g id="Node000007" class="node">
<title>Node7</title>
<g id="a_Node000007"><a xlink:href="hcache_2hcache_8c.html#acca0b66c75e59b1400da46b646e6bb9c" target="_top" xlink:title="Store a key / data pair.">
<polygon fill="#fff0f0" stroke="red" points="254.38,-22.25 156.62,-22.25 156.62,0 254.38,0 254.38,-22.25"/>
<text text-anchor="middle" x="205.5" y="-8.75" font-family="Helvetica,sans-Serif" font-size="10.00">hcache_store_raw</text>
</a>
</g>
</g>
<!-- Node1&#45;&gt;Node7 -->
<g id="edge3_Node000001_Node000007" class="edge">
<title>Node1&#45;&gt;Node7</title>
<g id="a_edge3_Node000001_Node000007"><a xlink:title=" ">
<path fill="none" stroke="#63b8ff" d="M99.66,-39.56C115.65,-35.22 134.01,-30.24 150.86,-25.67"/>
<polygon fill="#63b8ff" stroke="#63b8ff" points="151.48,-29.13 160.22,-23.13 149.65,-22.37 151.48,-29.13"/>
</a>
</g>
</g>
</g>
</svg>
