<?xml version="1.0" encoding="UTF-8" standalone="no"?>
<!DOCTYPE svg PUBLIC "-//W3C//DTD SVG 1.1//EN"
 "http://www.w3.org/Graphics/SVG/1.1/DTD/svg11.dtd">
<!-- Generated by graphviz version 2.40.1 (20161225.0304)
 -->
<!-- Title: nntp_format_str Pages: 1 -->
<svg width="267pt" height="66pt"
 viewBox="0.00 0.00 267.00 66.00" xmlns="http://www.w3.org/2000/svg" xmlns:xlink="http://www.w3.org/1999/xlink">
<g id="graph0" class="graph" transform="scale(1 1) rotate(0) translate(4 62)">
<title>nntp_format_str</title>
<polygon fill="#ffffff" stroke="transparent" points="-4,4 -4,-62 263,-62 263,4 -4,4"/>
<!-- Node18410 -->
<g id="node1" class="node">
<title>Node18410</title>
<polygon fill="#bfbfbf" stroke="#000000" points="0,-19.5 0,-38.5 95,-38.5 95,-19.5 0,-19.5"/>
<text text-anchor="middle" x="47.5" y="-26.5" font-family="Helvetica,sans-Serif" font-size="10.00" fill="#000000">nntp_format_str</text>
</g>
<!-- Node18411 -->
<g id="node2" class="node">
<title>Node18411</title>
<g id="a_node2"><a xlink:href="newsrc_8c.html#a7ba29bbfa4543e780d0e49241bcd2496" target="_top" xlink:title="Open a connection to an NNTP server. ">
<polygon fill="#ffffff" stroke="#ff0000" points="140.5,-38.5 140.5,-57.5 249.5,-57.5 249.5,-38.5 140.5,-38.5"/>
<text text-anchor="middle" x="195" y="-45.5" font-family="Helvetica,sans-Serif" font-size="10.00" fill="#000000">nntp_select_server</text>
</a>
</g>
</g>
<!-- Node18410&#45;&gt;Node18411 -->
<g id="edge1" class="edge">
<title>Node18410&#45;&gt;Node18411</title>
<path fill="none" stroke="#191970" d="M105.367,-36.4541C116.9156,-37.9417 129.0096,-39.4995 140.4423,-40.9722"/>
<polygon fill="#191970" stroke="#191970" points="105.7543,-32.9751 95.389,-35.1688 104.8599,-39.9177 105.7543,-32.9751"/>
</g>
<!-- Node18711 -->
<g id="node3" class="node">
<title>Node18711</title>
<g id="a_node3"><a xlink:href="sendmail_8h.html#a2d1312bbee49dda97d3c94837c4af6ab" target="_top" xlink:title="Run sendmail. ">
<polygon fill="#ffffff" stroke="#ff0000" points="131,-.5 131,-19.5 259,-19.5 259,-.5 131,-.5"/>
<text text-anchor="middle" x="195" y="-7.5" font-family="Helvetica,sans-Serif" font-size="10.00" fill="#000000">mutt_invoke_sendmail</text>
</a>
</g>
</g>
<!-- Node18410&#45;&gt;Node18711 -->
<g id="edge2" class="edge">
<title>Node18410&#45;&gt;Node18711</title>
<path fill="none" stroke="#191970" d="M105.4407,-21.5365C113.8229,-20.4567 122.491,-19.3401 130.9839,-18.2461"/>
<polygon fill="#191970" stroke="#191970" points="104.8599,-18.0823 95.389,-22.8312 105.7543,-25.0249 104.8599,-18.0823"/>
</g>
</g>
</svg>
