<?xml version="1.0" encoding="UTF-8" standalone="no"?>
<!DOCTYPE svg PUBLIC "-//W3C//DTD SVG 1.1//EN"
 "http://www.w3.org/Graphics/SVG/1.1/DTD/svg11.dtd">
<!-- Generated by graphviz version 7.1.0 (0)
 -->
<!-- Title: mdata_find Pages: 1 -->
<svg width="214pt" height="175pt"
 viewBox="0.00 0.00 214.00 175.00" xmlns="http://www.w3.org/2000/svg" xmlns:xlink="http://www.w3.org/1999/xlink">
<g id="graph0" class="graph" transform="scale(1 1) rotate(0) translate(4 171)">
<title>mdata_find</title>
<!-- Node1 -->
<g id="node1" class="node">
<title>Node1</title>
<g id="a_node1"><a xlink:title="Find NntpMboxData for given newsgroup or add it.">
<polygon fill="#999999" stroke="#666666" points="68,-93 0,-93 0,-74 68,-74 68,-93"/>
<text text-anchor="middle" x="34" y="-81" font-family="Helvetica,sans-Serif" font-size="10.00">mdata_find</text>
</a>
</g>
</g>
<!-- Node2 -->
<g id="node2" class="node">
<title>Node2</title>
<g id="a_node2"><a xlink:href="hash_8c.html#a21cfc2c56db496fc57d3d85a71c03215" target="_top" xlink:title="Find the HashElem data in a Hash Table element using a key.">
<polygon fill="#fff0f0" stroke="red" points="199,-167 111,-167 111,-148 199,-148 199,-167"/>
<text text-anchor="middle" x="155" y="-155" font-family="Helvetica,sans-Serif" font-size="10.00">mutt_hash_find</text>
</a>
</g>
</g>
<!-- Node1&#45;&gt;Node2 -->
<g id="edge1" class="edge">
<title>Node1&#45;&gt;Node2</title>
<path fill="none" stroke="#63b8ff" d="M44.95,-93.42C57.69,-105.66 80.89,-126.46 104,-139.5 106.19,-140.73 108.47,-141.91 110.82,-143.02"/>
<polygon fill="#63b8ff" stroke="#63b8ff" points="109.32,-146.19 119.89,-146.92 112.09,-139.76 109.32,-146.19"/>
</g>
<!-- Node5 -->
<g id="node3" class="node">
<title>Node5</title>
<g id="a_node3"><a xlink:href="hash_8c.html#a10bd305a8183db9829caee9ea1bac2f5" target="_top" xlink:title="Add a new element to the Hash Table (with string keys)">
<polygon fill="#fff0f0" stroke="red" points="203.5,-130 106.5,-130 106.5,-111 203.5,-111 203.5,-130"/>
<text text-anchor="middle" x="155" y="-118" font-family="Helvetica,sans-Serif" font-size="10.00">mutt_hash_insert</text>
</a>
</g>
</g>
<!-- Node1&#45;&gt;Node5 -->
<g id="edge2" class="edge">
<title>Node1&#45;&gt;Node5</title>
<path fill="none" stroke="#63b8ff" d="M66.89,-93.42C80.5,-97.65 96.58,-102.65 111.19,-107.19"/>
<polygon fill="#63b8ff" stroke="#63b8ff" points="109.99,-110.48 120.58,-110.11 112.07,-103.8 109.99,-110.48"/>
</g>
<!-- Node15 -->
<g id="node4" class="node">
<title>Node15</title>
<g id="a_node4"><a xlink:href="memory_8c.html#a39469100e5b8ae30c8f6f21e206aefe8" target="_top" xlink:title="Allocate zeroed memory on the heap.">
<polygon fill="#fff0f0" stroke="red" points="203.5,-93 106.5,-93 106.5,-74 203.5,-74 203.5,-93"/>
<text text-anchor="middle" x="155" y="-81" font-family="Helvetica,sans-Serif" font-size="10.00">mutt_mem_calloc</text>
</a>
</g>
</g>
<!-- Node1&#45;&gt;Node15 -->
<g id="edge3" class="edge">
<title>Node1&#45;&gt;Node15</title>
<path fill="none" stroke="#63b8ff" d="M68.46,-83.5C76.68,-83.5 85.72,-83.5 94.76,-83.5"/>
<polygon fill="#63b8ff" stroke="#63b8ff" points="94.62,-87 104.62,-83.5 94.62,-80 94.62,-87"/>
</g>
<!-- Node16 -->
<g id="node5" class="node">
<title>Node16</title>
<g id="a_node5"><a xlink:href="memory_8c.html#af778eb8166966fc0666c64849f6c7c5b" target="_top" xlink:title="Resize a block of memory on the heap.">
<polygon fill="#fff0f0" stroke="red" points="206,-56 104,-56 104,-37 206,-37 206,-56"/>
<text text-anchor="middle" x="155" y="-44" font-family="Helvetica,sans-Serif" font-size="10.00">mutt_mem_realloc</text>
</a>
</g>
</g>
<!-- Node1&#45;&gt;Node16 -->
<g id="edge4" class="edge">
<title>Node1&#45;&gt;Node16</title>
<path fill="none" stroke="#63b8ff" d="M66.89,-73.58C80.5,-69.35 96.58,-64.35 111.19,-59.81"/>
<polygon fill="#63b8ff" stroke="#63b8ff" points="112.07,-63.2 120.58,-56.89 109.99,-56.52 112.07,-63.2"/>
</g>
<!-- Node17 -->
<g id="node6" class="node">
<title>Node17</title>
<g id="a_node6"><a xlink:href="mutt_2string_8c.html#ad20e00309de897a1e882fc7400335b83" target="_top" xlink:title="Copy a string into a buffer (guaranteeing NUL&#45;termination)">
<polygon fill="white" stroke="#666666" points="196.5,-19 113.5,-19 113.5,0 196.5,0 196.5,-19"/>
<text text-anchor="middle" x="155" y="-7" font-family="Helvetica,sans-Serif" font-size="10.00">mutt_str_copy</text>
</a>
</g>
</g>
<!-- Node1&#45;&gt;Node17 -->
<g id="edge5" class="edge">
<title>Node1&#45;&gt;Node17</title>
<path fill="none" stroke="#63b8ff" d="M45.02,-73.84C57.83,-61.89 81.11,-41.55 104,-28.5 106.8,-26.9 109.76,-25.39 112.78,-23.97"/>
<polygon fill="#63b8ff" stroke="#63b8ff" points="113.98,-27.27 121.78,-20.09 111.21,-20.84 113.98,-27.27"/>
</g>
</g>
</svg>
