<?xml version="1.0" encoding="UTF-8" standalone="no"?>
<!DOCTYPE svg PUBLIC "-//W3C//DTD SVG 1.1//EN"
 "http://www.w3.org/Graphics/SVG/1.1/DTD/svg11.dtd">
<!-- Generated by graphviz version 7.1.0 (0)
 -->
<!-- Title: mutt_newsgroup_unsubscribe Pages: 1 -->
<svg width="287pt" height="64pt"
 viewBox="0.00 0.00 287.00 64.00" xmlns="http://www.w3.org/2000/svg" xmlns:xlink="http://www.w3.org/1999/xlink">
<g id="graph0" class="graph" transform="scale(1 1) rotate(0) translate(4 60)">
<title>mutt_newsgroup_unsubscribe</title>
<!-- Node1 -->
<g id="node1" class="node">
<title>Node1</title>
<g id="a_node1"><a xlink:title="Unsubscribe newsgroup.">
<polygon fill="#999999" stroke="#666666" points="155,-37 0,-37 0,-18 155,-18 155,-37"/>
<text text-anchor="middle" x="77.5" y="-25" font-family="Helvetica,sans-Serif" font-size="10.00">mutt_newsgroup_unsubscribe</text>
</a>
</g>
</g>
<!-- Node2 -->
<g id="node2" class="node">
<title>Node2</title>
<g id="a_node2"><a xlink:href="config_2helpers_8c.html#ae50f679dd6c5bd1ba820884c8602f038" target="_top" xlink:title="Get a boolean config item by name.">
<polygon fill="#fff0f0" stroke="red" points="278,-56 192,-56 192,-37 278,-37 278,-56"/>
<text text-anchor="middle" x="235" y="-44" font-family="Helvetica,sans-Serif" font-size="10.00">cs_subset_bool</text>
</a>
</g>
</g>
<!-- Node1&#45;&gt;Node2 -->
<g id="edge1" class="edge">
<title>Node1&#45;&gt;Node2</title>
<path fill="none" stroke="#63b8ff" d="M155.34,-36.89C163.87,-37.93 172.41,-38.97 180.56,-39.97"/>
<polygon fill="#63b8ff" stroke="#63b8ff" points="179.92,-43.42 190.27,-41.16 180.77,-36.47 179.92,-43.42"/>
</g>
<!-- Node23 -->
<g id="node3" class="node">
<title>Node23</title>
<g id="a_node3"><a xlink:href="hash_8c.html#a21cfc2c56db496fc57d3d85a71c03215" target="_top" xlink:title="Find the HashElem data in a Hash Table element using a key.">
<polygon fill="#fff0f0" stroke="red" points="279,-19 191,-19 191,0 279,0 279,-19"/>
<text text-anchor="middle" x="235" y="-7" font-family="Helvetica,sans-Serif" font-size="10.00">mutt_hash_find</text>
</a>
</g>
</g>
<!-- Node1&#45;&gt;Node23 -->
<g id="edge2" class="edge">
<title>Node1&#45;&gt;Node23</title>
<path fill="none" stroke="#63b8ff" d="M155.34,-18.61C163.37,-17.68 171.41,-16.75 179.12,-15.85"/>
<polygon fill="#63b8ff" stroke="#63b8ff" points="179.49,-19.33 189.02,-14.71 178.69,-12.38 179.49,-19.33"/>
</g>
</g>
</svg>
