<?xml version="1.0" encoding="UTF-8" standalone="no"?>
<!DOCTYPE svg PUBLIC "-//W3C//DTD SVG 1.1//EN"
 "http://www.w3.org/Graphics/SVG/1.1/DTD/svg11.dtd">
<!-- Generated by graphviz version 7.1.0 (0)
 -->
<!-- Title: cache_expand Pages: 1 -->
<svg width="534pt" height="179pt"
 viewBox="0.00 0.00 534.00 179.00" xmlns="http://www.w3.org/2000/svg" xmlns:xlink="http://www.w3.org/1999/xlink">
<g id="graph0" class="graph" transform="scale(1 1) rotate(0) translate(4 175)">
<title>cache_expand</title>
<!-- Node1 -->
<g id="node1" class="node">
<title>Node1</title>
<g id="a_node1"><a xlink:title="Make fully qualified cache file name.">
<polygon fill="#999999" stroke="#666666" points="526,-95 445,-95 445,-76 526,-76 526,-95"/>
<text text-anchor="middle" x="485.5" y="-83" font-family="Helvetica,sans-Serif" font-size="10.00">cache_expand</text>
</a>
</g>
</g>
<!-- Node2 -->
<g id="node2" class="node">
<title>Node2</title>
<g id="a_node2"><a xlink:href="newsrc_8c.html#a8a0f0a9d60138637dde00cb0732c6b9e" target="_top" xlink:title="Load list of all newsgroups from cache.">
<polygon fill="white" stroke="#666666" points="236.5,-171 141.5,-171 141.5,-152 236.5,-152 236.5,-171"/>
<text text-anchor="middle" x="189" y="-159" font-family="Helvetica,sans-Serif" font-size="10.00">active_get_cache</text>
</a>
</g>
</g>
<!-- Node1&#45;&gt;Node2 -->
<g id="edge1" class="edge">
<title>Node1&#45;&gt;Node2</title>
<path fill="none" stroke="#63b8ff" d="M465.74,-102.38C451.31,-114.33 430.29,-129.58 409,-137.5 352.36,-158.57 282.21,-162.77 236.81,-162.9"/>
<polygon fill="#63b8ff" stroke="#63b8ff" points="467.75,-105.27 473.06,-96.1 463.19,-99.95 467.75,-105.27"/>
</g>
<!-- Node3 -->
<g id="node3" class="node">
<title>Node3</title>
<g id="a_node3"><a xlink:href="newsrc_8c.html#ae9ee1cc132aa482531fdc2463200e492" target="_top" xlink:title="Open a connection to an NNTP server.">
<polygon fill="#fff0f0" stroke="red" points="105,-133 0,-133 0,-114 105,-114 105,-133"/>
<text text-anchor="middle" x="52.5" y="-121" font-family="Helvetica,sans-Serif" font-size="10.00">nntp_select_server</text>
</a>
</g>
</g>
<!-- Node1&#45;&gt;Node3 -->
<g id="edge8" class="edge">
<title>Node1&#45;&gt;Node3</title>
<path fill="none" stroke="#63b8ff" d="M439.9,-98.24C429.81,-100.69 419.1,-102.97 409,-104.5 301.9,-120.68 174.83,-123.61 105.33,-123.85"/>
<polygon fill="#63b8ff" stroke="#63b8ff" points="440.66,-101.65 449.49,-95.79 438.94,-94.87 440.66,-101.65"/>
</g>
<!-- Node50 -->
<g id="node4" class="node">
<title>Node50</title>
<g id="a_node4"><a xlink:href="newsrc_8c.html#aa8b8319b59b7ef6de942cd25400e0d79" target="_top" xlink:title="Save list of all newsgroups to cache.">
<polygon fill="#fff0f0" stroke="red" points="404,-95 278,-95 278,-76 404,-76 404,-95"/>
<text text-anchor="middle" x="341" y="-83" font-family="Helvetica,sans-Serif" font-size="10.00">nntp_active_save_cache</text>
</a>
</g>
</g>
<!-- Node1&#45;&gt;Node50 -->
<g id="edge3" class="edge">
<title>Node1&#45;&gt;Node50</title>
<path fill="none" stroke="#63b8ff" d="M433.59,-85.5C424.15,-85.5 414.18,-85.5 404.44,-85.5"/>
<polygon fill="#63b8ff" stroke="#63b8ff" points="433.29,-89 443.29,-85.5 433.29,-82 433.29,-89"/>
</g>
<!-- Node57 -->
<g id="node5" class="node">
<title>Node57</title>
<g id="a_node5"><a xlink:href="newsrc_8c.html#a0e57436b35d68983c6fe44815f3ad505" target="_top" xlink:title="Clear the NNTP cache.">
<polygon fill="#fff0f0" stroke="red" points="237,-57 141,-57 141,-38 237,-38 237,-57"/>
<text text-anchor="middle" x="189" y="-45" font-family="Helvetica,sans-Serif" font-size="10.00">nntp_clear_cache</text>
</a>
</g>
</g>
<!-- Node1&#45;&gt;Node57 -->
<g id="edge4" class="edge">
<title>Node1&#45;&gt;Node57</title>
<path fill="none" stroke="#63b8ff" d="M436.29,-72.92C427.27,-70.88 417.88,-68.96 409,-67.5 350.23,-57.86 281.76,-52.54 237.24,-49.86"/>
<polygon fill="#63b8ff" stroke="#63b8ff" points="435.45,-76.32 445.99,-75.21 437.06,-69.51 435.45,-76.32"/>
</g>
<!-- Node60 -->
<g id="node6" class="node">
<title>Node60</title>
<g id="a_node6"><a xlink:href="newsrc_8c.html#a140bf8e49e3f11e0d9cb4d8253767819" target="_top" xlink:title="Remove hcache and bcache of newsgroup.">
<polygon fill="#fff0f0" stroke="red" points="409,-19 273,-19 273,0 409,0 409,-19"/>
<text text-anchor="middle" x="341" y="-7" font-family="Helvetica,sans-Serif" font-size="10.00">nntp_delete_group_cache</text>
</a>
</g>
</g>
<!-- Node1&#45;&gt;Node60 -->
<g id="edge6" class="edge">
<title>Node1&#45;&gt;Node60</title>
<path fill="none" stroke="#63b8ff" d="M463.56,-68.88C448.9,-57.81 428.52,-43.5 409,-33.5 398.33,-28.03 386.13,-23.26 375.09,-19.45"/>
<polygon fill="#63b8ff" stroke="#63b8ff" points="461.05,-71.36 471.11,-74.69 465.32,-65.81 461.05,-71.36"/>
</g>
<!-- Node2&#45;&gt;Node3 -->
<g id="edge2" class="edge">
<title>Node2&#45;&gt;Node3</title>
<path fill="none" stroke="#63b8ff" d="M141.6,-148.39C124.22,-143.48 104.79,-137.99 88.6,-133.42"/>
<polygon fill="#63b8ff" stroke="#63b8ff" points="140.63,-151.75 151.21,-151.1 142.53,-145.02 140.63,-151.75"/>
</g>
<!-- Node57&#45;&gt;Node3 -->
<g id="edge5" class="edge">
<title>Node57&#45;&gt;Node3</title>
<path fill="none" stroke="#63b8ff" d="M160.52,-63.03C133.74,-78.16 93.85,-100.7 71.09,-113.56"/>
<polygon fill="#63b8ff" stroke="#63b8ff" points="162.11,-66.15 169.1,-58.18 158.67,-60.05 162.11,-66.15"/>
</g>
<!-- Node60&#45;&gt;Node57 -->
<g id="edge7" class="edge">
<title>Node60&#45;&gt;Node57</title>
<path fill="none" stroke="#63b8ff" d="M289.67,-22.25C270.03,-27.23 247.85,-32.84 229.41,-37.52"/>
<polygon fill="#63b8ff" stroke="#63b8ff" points="290.29,-25.7 299.12,-19.86 288.57,-18.92 290.29,-25.7"/>
</g>
</g>
</svg>
