<?xml version="1.0" encoding="UTF-8" standalone="no"?>
<!DOCTYPE svg PUBLIC "-//W3C//DTD SVG 1.1//EN"
 "http://www.w3.org/Graphics/SVG/1.1/DTD/svg11.dtd">
<!-- Generated by graphviz version 2.44.0 (0)
 -->
<!-- Title: nntp_select_server Pages: 1 -->
<svg width="525pt" height="975pt"
 viewBox="0.00 0.00 525.00 975.49" xmlns="http://www.w3.org/2000/svg" xmlns:xlink="http://www.w3.org/1999/xlink">
<g id="graph0" class="graph" transform="scale(1 1) rotate(0) translate(4 971.49)">
<title>nntp_select_server</title>
<polygon fill="white" stroke="transparent" points="-4,4 -4,-971.49 521,-971.49 521,4 -4,4"/>
<!-- Node1 -->
<g id="node1" class="node">
<title>Node1</title>
<g id="a_node1"><a xlink:title="Open a connection to an NNTP server.">
<polygon fill="#bfbfbf" stroke="black" points="0,-475.5 0,-494.5 99,-494.5 99,-475.5 0,-475.5"/>
<text text-anchor="middle" x="49.5" y="-482.5" font-family="Helvetica" font-size="10.00">nntp_select_server</text>
</a>
</g>
</g>
<!-- Node2 -->
<g id="node2" class="node">
<title>Node2</title>
<g id="a_node2"><a xlink:href="newsrc_8c.html#a8a0f0a9d60138637dde00cb0732c6b9e" target="_top" xlink:title="Load list of all newsgroups from cache.">
<polygon fill="white" stroke="red" points="151.5,-874.5 151.5,-893.5 243.5,-893.5 243.5,-874.5 151.5,-874.5"/>
<text text-anchor="middle" x="197.5" y="-881.5" font-family="Helvetica" font-size="10.00">active_get_cache</text>
</a>
</g>
</g>
<!-- Node1&#45;&gt;Node2 -->
<g id="edge1" class="edge">
<title>Node1&#45;&gt;Node2</title>
<path fill="none" stroke="midnightblue" d="M51.34,-494.54C56.2,-547.8 82.42,-807.99 135,-865 137.17,-867.35 139.61,-869.41 142.25,-871.22"/>
<polygon fill="midnightblue" stroke="midnightblue" points="140.79,-874.4 151.24,-876.17 144.17,-868.28 140.79,-874.4"/>
</g>
<!-- Node3 -->
<g id="node3" class="node">
<title>Node3</title>
<g id="a_node3"><a xlink:href="newsrc_8c.html#a8d3a7328ed6d800fc41fb83e20db792a" target="_top" xlink:title="Make fully qualified cache file name.">
<polygon fill="white" stroke="red" points="311.5,-869.5 311.5,-888.5 391.5,-888.5 391.5,-869.5 311.5,-869.5"/>
<text text-anchor="middle" x="351.5" y="-876.5" font-family="Helvetica" font-size="10.00">cache_expand</text>
</a>
</g>
</g>
<!-- Node1&#45;&gt;Node3 -->
<g id="edge4" class="edge">
<title>Node1&#45;&gt;Node3</title>
<path fill="none" stroke="midnightblue" d="M50.87,-494.63C53.27,-552.08 68.81,-848.85 135,-903 189.43,-947.52 279.16,-914.3 323.7,-893.08"/>
<polygon fill="midnightblue" stroke="midnightblue" points="325.31,-896.18 332.74,-888.63 322.22,-889.9 325.31,-896.18"/>
</g>
<!-- Node46 -->
<g id="node4" class="node">
<title>Node46</title>
<g id="a_node4"><a xlink:href="mutt_2string_8c.html#a4c2560f787bd1226b977992c16860c98" target="_top" xlink:title="Copy a string, safely.">
<polygon fill="white" stroke="black" points="443,-821.5 443,-840.5 517,-840.5 517,-821.5 443,-821.5"/>
<text text-anchor="middle" x="480" y="-828.5" font-family="Helvetica" font-size="10.00">mutt_str_dup</text>
</a>
</g>
</g>
<!-- Node1&#45;&gt;Node46 -->
<g id="edge18" class="edge">
<title>Node1&#45;&gt;Node46</title>
<path fill="none" stroke="midnightblue" d="M50.75,-494.81C52.53,-554.68 65.17,-870.23 135,-928 228.71,-1005.53 298.86,-953.66 407,-898 430.57,-885.87 452.03,-863.81 465.27,-848.33"/>
<polygon fill="midnightblue" stroke="midnightblue" points="468.07,-850.44 471.75,-840.51 462.67,-845.98 468.07,-850.44"/>
</g>
<!-- Node751 -->
<g id="node5" class="node">
<title>Node751</title>
<g id="a_node5"><a xlink:href="mutt__account_8c.html#a1b69f282293a8eaa1766138ddcb44a9c" target="_top" xlink:title="Fill ConnAccount with information from url.">
<polygon fill="white" stroke="red" points="142,-646.5 142,-665.5 253,-665.5 253,-646.5 142,-646.5"/>
<text text-anchor="middle" x="197.5" y="-653.5" font-family="Helvetica" font-size="10.00">mutt_account_fromurl</text>
</a>
</g>
</g>
<!-- Node1&#45;&gt;Node751 -->
<g id="edge5" class="edge">
<title>Node1&#45;&gt;Node751</title>
<path fill="none" stroke="midnightblue" d="M53.15,-494.85C60.93,-521.82 86.23,-597.44 135,-637 137.24,-638.82 139.65,-640.46 142.17,-641.94"/>
<polygon fill="midnightblue" stroke="midnightblue" points="140.61,-645.08 151.12,-646.42 143.74,-638.81 140.61,-645.08"/>
</g>
<!-- Node1114 -->
<g id="node6" class="node">
<title>Node1114</title>
<g id="a_node6"><a xlink:href="mutt__socket_8c.html#a20be90f4aa1a3b7ef0aa64ad629103d4" target="_top" xlink:title="Find a connection from a list.">
<polygon fill="white" stroke="red" points="156,-608.5 156,-627.5 239,-627.5 239,-608.5 156,-608.5"/>
<text text-anchor="middle" x="197.5" y="-615.5" font-family="Helvetica" font-size="10.00">mutt_conn_find</text>
</a>
</g>
</g>
<!-- Node1&#45;&gt;Node1114 -->
<g id="edge6" class="edge">
<title>Node1&#45;&gt;Node1114</title>
<path fill="none" stroke="midnightblue" d="M54.93,-494.56C65.55,-516.42 94.59,-570.38 135,-599 138.49,-601.47 142.31,-603.63 146.28,-605.51"/>
<polygon fill="midnightblue" stroke="midnightblue" points="145.17,-608.84 155.75,-609.42 147.84,-602.36 145.17,-608.84"/>
</g>
<!-- Node760 -->
<g id="node7" class="node">
<title>Node760</title>
<g id="a_node7"><a xlink:href="muttlib_8c.html#a483f037de523c624d449b4296a3ddfb2" target="_top" xlink:title="Create the canonical path.">
<polygon fill="white" stroke="red" points="149,-570.5 149,-589.5 246,-589.5 246,-570.5 149,-570.5"/>
<text text-anchor="middle" x="197.5" y="-577.5" font-family="Helvetica" font-size="10.00">mutt_expand_path</text>
</a>
</g>
</g>
<!-- Node1&#45;&gt;Node760 -->
<g id="edge7" class="edge">
<title>Node1&#45;&gt;Node760</title>
<path fill="none" stroke="midnightblue" d="M58.61,-494.62C72.61,-510.63 102.91,-542.79 135,-561 138.88,-563.2 143.04,-565.18 147.3,-566.94"/>
<polygon fill="midnightblue" stroke="midnightblue" points="146.14,-570.24 156.73,-570.49 148.6,-563.69 146.14,-570.24"/>
</g>
<!-- Node388 -->
<g id="node8" class="node">
<title>Node388</title>
<g id="a_node8"><a xlink:href="muttlib_8c.html#a8972094c1e995739c8b072c8be3ce453" target="_top" xlink:title="Expand expandos (x) in a string.">
<polygon fill="white" stroke="red" points="296,-773.5 296,-792.5 407,-792.5 407,-773.5 296,-773.5"/>
<text text-anchor="middle" x="351.5" y="-780.5" font-family="Helvetica" font-size="10.00">mutt_expando_format</text>
</a>
</g>
</g>
<!-- Node1&#45;&gt;Node388 -->
<g id="edge8" class="edge">
<title>Node1&#45;&gt;Node388</title>
<path fill="none" stroke="midnightblue" d="M50.23,-494.66C49.73,-533.78 53.46,-681.58 135,-751 176.18,-786.07 238.6,-791.94 285.68,-790.29"/>
<polygon fill="midnightblue" stroke="midnightblue" points="285.96,-793.79 295.78,-789.82 285.63,-786.79 285.96,-793.79"/>
</g>
<!-- Node270 -->
<g id="node9" class="node">
<title>Node270</title>
<g id="a_node9"><a xlink:href="file_8c.html#a42b89c4ae9ca386c22de502b37cdf45e" target="_top" xlink:title="Recursively create directories.">
<polygon fill="white" stroke="red" points="156,-532.5 156,-551.5 239,-551.5 239,-532.5 156,-532.5"/>
<text text-anchor="middle" x="197.5" y="-539.5" font-family="Helvetica" font-size="10.00">mutt_file_mkdir</text>
</a>
</g>
</g>
<!-- Node1&#45;&gt;Node270 -->
<g id="edge11" class="edge">
<title>Node1&#45;&gt;Node270</title>
<path fill="none" stroke="midnightblue" d="M70.02,-494.6C86.96,-502.74 112.28,-514.42 135,-523 140.9,-525.23 147.19,-527.4 153.41,-529.43"/>
<polygon fill="midnightblue" stroke="midnightblue" points="152.46,-532.8 163.05,-532.48 154.58,-526.13 152.46,-532.8"/>
</g>
<!-- Node88 -->
<g id="node10" class="node">
<title>Node88</title>
<g id="a_node10"><a xlink:href="hash_8c.html#a58acf06077aef78a15c60f37c72403ce" target="_top" xlink:title="Find the HashElem data in a Hash Table element using a key.">
<polygon fill="white" stroke="red" points="310,-830.5 310,-849.5 393,-849.5 393,-830.5 310,-830.5"/>
<text text-anchor="middle" x="351.5" y="-837.5" font-family="Helvetica" font-size="10.00">mutt_hash_find</text>
</a>
</g>
</g>
<!-- Node1&#45;&gt;Node88 -->
<g id="edge12" class="edge">
<title>Node1&#45;&gt;Node88</title>
<path fill="none" stroke="midnightblue" d="M50.06,-494.71C48.72,-536.16 49.24,-700.03 135,-784 158.21,-806.72 243.8,-823.74 299.88,-832.76"/>
<polygon fill="midnightblue" stroke="midnightblue" points="299.56,-836.25 309.99,-834.35 300.65,-829.34 299.56,-836.25"/>
</g>
<!-- Node527 -->
<g id="node11" class="node">
<title>Node527</title>
<g id="a_node11"><a xlink:href="hash_8c.html#afa22b7f78bbf1b59a4a2bd4bdd20948b" target="_top" xlink:title="Free a hash table.">
<polygon fill="white" stroke="black" points="155.5,-494.5 155.5,-513.5 239.5,-513.5 239.5,-494.5 155.5,-494.5"/>
<text text-anchor="middle" x="197.5" y="-501.5" font-family="Helvetica" font-size="10.00">mutt_hash_free</text>
</a>
</g>
</g>
<!-- Node1&#45;&gt;Node527 -->
<g id="edge13" class="edge">
<title>Node1&#45;&gt;Node527</title>
<path fill="none" stroke="midnightblue" d="M99.12,-491.33C113.94,-493.26 130.29,-495.38 145.28,-497.33"/>
<polygon fill="midnightblue" stroke="midnightblue" points="145.04,-500.83 155.41,-498.65 145.95,-493.89 145.04,-500.83"/>
</g>
<!-- Node540 -->
<g id="node12" class="node">
<title>Node540</title>
<g id="a_node12"><a xlink:href="hcache_8c.html#a26bcb4546ca8d63327187a6bbeab796c" target="_top" xlink:title="Multiplexor for StoreOps::close.">
<polygon fill="white" stroke="black" points="147,-456.5 147,-475.5 248,-475.5 248,-456.5 147,-456.5"/>
<text text-anchor="middle" x="197.5" y="-463.5" font-family="Helvetica" font-size="10.00">mutt_hcache_close</text>
</a>
</g>
</g>
<!-- Node1&#45;&gt;Node540 -->
<g id="edge14" class="edge">
<title>Node1&#45;&gt;Node540</title>
<path fill="none" stroke="midnightblue" d="M99.12,-478.67C111.04,-477.12 123.95,-475.44 136.34,-473.83"/>
<polygon fill="midnightblue" stroke="midnightblue" points="137.13,-477.26 146.6,-472.49 136.23,-470.31 137.13,-477.26"/>
</g>
<!-- Node571 -->
<g id="node13" class="node">
<title>Node571</title>
<g id="a_node13"><a xlink:href="hcache_8c.html#afafbb66bd655d35f263db1272440aeb1" target="_top" xlink:title="Fetch a message&#39;s header from the cache.">
<polygon fill="white" stroke="red" points="137,-418.5 137,-437.5 258,-437.5 258,-418.5 137,-418.5"/>
<text text-anchor="middle" x="197.5" y="-425.5" font-family="Helvetica" font-size="10.00">mutt_hcache_fetch_raw</text>
</a>
</g>
</g>
<!-- Node1&#45;&gt;Node571 -->
<g id="edge15" class="edge">
<title>Node1&#45;&gt;Node571</title>
<path fill="none" stroke="midnightblue" d="M70.02,-475.4C86.96,-467.26 112.28,-455.58 135,-447 140.9,-444.77 147.19,-442.6 153.41,-440.57"/>
<polygon fill="midnightblue" stroke="midnightblue" points="154.58,-443.87 163.05,-437.52 152.46,-437.2 154.58,-443.87"/>
</g>
<!-- Node572 -->
<g id="node14" class="node">
<title>Node572</title>
<g id="a_node14"><a xlink:href="hcache_8c.html#aa5d4bb535ed54cc8d4a8a4117ceff9fa" target="_top" xlink:title="Multiplexor for StoreOps::free.">
<polygon fill="white" stroke="black" points="139.5,-380.5 139.5,-399.5 255.5,-399.5 255.5,-380.5 139.5,-380.5"/>
<text text-anchor="middle" x="197.5" y="-387.5" font-family="Helvetica" font-size="10.00">mutt_hcache_free_raw</text>
</a>
</g>
</g>
<!-- Node1&#45;&gt;Node572 -->
<g id="edge16" class="edge">
<title>Node1&#45;&gt;Node572</title>
<path fill="none" stroke="midnightblue" d="M58.61,-475.38C72.61,-459.37 102.91,-427.21 135,-409 138.88,-406.8 143.04,-404.82 147.3,-403.06"/>
<polygon fill="midnightblue" stroke="midnightblue" points="148.6,-406.31 156.73,-399.51 146.14,-399.76 148.6,-406.31"/>
</g>
<!-- Node446 -->
<g id="node15" class="node">
<title>Node446</title>
<g id="a_node15"><a xlink:href="socket_8c.html#a432eed609a221c68f457302d6e40c383" target="_top" xlink:title="Close a socket.">
<polygon fill="white" stroke="black" points="302.5,-323.5 302.5,-342.5 400.5,-342.5 400.5,-323.5 302.5,-323.5"/>
<text text-anchor="middle" x="351.5" y="-330.5" font-family="Helvetica" font-size="10.00">mutt_socket_close</text>
</a>
</g>
</g>
<!-- Node1&#45;&gt;Node446 -->
<g id="edge17" class="edge">
<title>Node1&#45;&gt;Node446</title>
<path fill="none" stroke="midnightblue" d="M54.54,-475.42C64.53,-453.02 92.67,-397.17 135,-371 182.47,-341.65 246.41,-333.47 292.3,-331.83"/>
<polygon fill="midnightblue" stroke="midnightblue" points="292.48,-335.33 302.38,-331.57 292.29,-328.33 292.48,-335.33"/>
</g>
<!-- Node1940 -->
<g id="node16" class="node">
<title>Node1940</title>
<g id="a_node16"><a xlink:href="nntp_2lib_8h.html#a1782c5df61421b1951f9672b5d78d952" target="_top" xlink:title="Fetch list of all newsgroups from server.">
<polygon fill="white" stroke="red" points="151,-266.5 151,-285.5 244,-285.5 244,-266.5 151,-266.5"/>
<text text-anchor="middle" x="197.5" y="-273.5" font-family="Helvetica" font-size="10.00">nntp_active_fetch</text>
</a>
</g>
</g>
<!-- Node1&#45;&gt;Node1940 -->
<g id="edge19" class="edge">
<title>Node1&#45;&gt;Node1940</title>
<path fill="none" stroke="midnightblue" d="M51.91,-475.48C56.99,-444.6 77.22,-346.29 135,-295 137.01,-293.21 139.19,-291.6 141.48,-290.13"/>
<polygon fill="midnightblue" stroke="midnightblue" points="143.6,-292.97 150.8,-285.2 140.32,-286.79 143.6,-292.97"/>
</g>
<!-- Node1988 -->
<g id="node17" class="node">
<title>Node1988</title>
<g id="a_node17"><a xlink:href="nntp_2adata_8c.html#a1737046bffd087c7876345a526ecf57b" target="_top" xlink:title="Allocate and initialise a new NntpAccountData structure.">
<polygon fill="white" stroke="red" points="153.5,-228.5 153.5,-247.5 241.5,-247.5 241.5,-228.5 153.5,-228.5"/>
<text text-anchor="middle" x="197.5" y="-235.5" font-family="Helvetica" font-size="10.00">nntp_adata_new</text>
</a>
</g>
</g>
<!-- Node1&#45;&gt;Node1988 -->
<g id="edge20" class="edge">
<title>Node1&#45;&gt;Node1988</title>
<path fill="none" stroke="midnightblue" d="M51.15,-475.12C54.01,-440.01 68.46,-319.96 135,-257 137.76,-254.39 140.87,-252.14 144.19,-250.19"/>
<polygon fill="midnightblue" stroke="midnightblue" points="145.91,-253.25 153.38,-245.74 142.85,-246.95 145.91,-253.25"/>
</g>
<!-- Node1992 -->
<g id="node18" class="node">
<title>Node1992</title>
<g id="a_node18"><a xlink:href="nntp_8c.html#a1f4ed64d09034fa97562c2976d80d614" target="_top" xlink:title="Check for new groups/articles in subscribed groups.">
<polygon fill="white" stroke="red" points="135,-190.5 135,-209.5 260,-209.5 260,-190.5 135,-190.5"/>
<text text-anchor="middle" x="197.5" y="-197.5" font-family="Helvetica" font-size="10.00">nntp_check_new_groups</text>
</a>
</g>
</g>
<!-- Node1&#45;&gt;Node1992 -->
<g id="edge21" class="edge">
<title>Node1&#45;&gt;Node1992</title>
<path fill="none" stroke="midnightblue" d="M50.55,-475.41C51.27,-437.21 59.15,-294.25 135,-219 136.46,-217.55 138.02,-216.22 139.67,-214.98"/>
<polygon fill="midnightblue" stroke="midnightblue" points="141.79,-217.79 148.52,-209.61 138.16,-211.81 141.79,-217.79"/>
</g>
<!-- Node1994 -->
<g id="node19" class="node">
<title>Node1994</title>
<g id="a_node19"><a xlink:href="newsrc_8c.html#a0e57436b35d68983c6fe44815f3ad505" target="_top" xlink:title="Clear the NNTP cache.">
<polygon fill="white" stroke="red" points="151,-836.5 151,-855.5 244,-855.5 244,-836.5 151,-836.5"/>
<text text-anchor="middle" x="197.5" y="-843.5" font-family="Helvetica" font-size="10.00">nntp_clear_cache</text>
</a>
</g>
</g>
<!-- Node1&#45;&gt;Node1994 -->
<g id="edge22" class="edge">
<title>Node1&#45;&gt;Node1994</title>
<path fill="none" stroke="midnightblue" d="M51.72,-494.69C58.17,-544.4 89.64,-770.52 135,-822 138.28,-825.73 142.22,-828.88 146.49,-831.55"/>
<polygon fill="midnightblue" stroke="midnightblue" points="145.15,-834.8 155.63,-836.37 148.42,-828.61 145.15,-834.8"/>
</g>
<!-- Node1995 -->
<g id="node20" class="node">
<title>Node1995</title>
<g id="a_node20"><a xlink:href="newsrc_8c.html#a2f9880f62ed891cdd63f136d9d9766fc" target="_top" xlink:title="Expand the newsrc filename &#45; Implements format_t.">
<polygon fill="white" stroke="red" points="155,-152.5 155,-171.5 240,-171.5 240,-152.5 155,-152.5"/>
<text text-anchor="middle" x="197.5" y="-159.5" font-family="Helvetica" font-size="10.00">nntp_format_str</text>
</a>
</g>
</g>
<!-- Node1&#45;&gt;Node1995 -->
<g id="edge25" class="edge">
<title>Node1&#45;&gt;Node1995</title>
<path fill="none" stroke="midnightblue" d="M50.1,-475.24C48.94,-433.52 50.05,-268.4 135,-181 138.15,-177.76 141.84,-175.06 145.83,-172.83"/>
<polygon fill="midnightblue" stroke="midnightblue" points="147.3,-176 154.91,-168.63 144.37,-169.65 147.3,-176"/>
</g>
<!-- Node1996 -->
<g id="node21" class="node">
<title>Node1996</title>
<g id="a_node21"><a xlink:href="newsrc_8c.html#a1fa32556d100e52868574d5c1be2228f" target="_top" xlink:title="Get connection login credentials &#45; Implements ConnAccount::get_field()">
<polygon fill="white" stroke="black" points="159,-114.5 159,-133.5 236,-133.5 236,-114.5 159,-114.5"/>
<text text-anchor="middle" x="197.5" y="-121.5" font-family="Helvetica" font-size="10.00">nntp_get_field</text>
</a>
</g>
</g>
<!-- Node1&#45;&gt;Node1996 -->
<g id="edge26" class="edge">
<title>Node1&#45;&gt;Node1996</title>
<path fill="none" stroke="midnightblue" d="M51.59,-475.44C57.5,-425.37 87.13,-193.7 135,-143 139.08,-138.68 144.12,-135.33 149.54,-132.75"/>
<polygon fill="midnightblue" stroke="midnightblue" points="150.89,-135.97 158.93,-129.06 148.34,-129.46 150.89,-135.97"/>
</g>
<!-- Node1794 -->
<g id="node22" class="node">
<title>Node1794</title>
<g id="a_node22"><a xlink:href="newsrc_8c.html#ad8d95064a7efb66e51bfde2c8b12aff7" target="_top" xlink:title="Open newsgroup hcache.">
<polygon fill="white" stroke="red" points="148.5,-76.5 148.5,-95.5 246.5,-95.5 246.5,-76.5 148.5,-76.5"/>
<text text-anchor="middle" x="197.5" y="-83.5" font-family="Helvetica" font-size="10.00">nntp_hcache_open</text>
</a>
</g>
</g>
<!-- Node1&#45;&gt;Node1794 -->
<g id="edge27" class="edge">
<title>Node1&#45;&gt;Node1794</title>
<path fill="none" stroke="midnightblue" d="M51.34,-475.46C56.2,-422.2 82.42,-162.01 135,-105 136.42,-103.46 137.96,-102.04 139.6,-100.74"/>
<polygon fill="midnightblue" stroke="midnightblue" points="141.9,-103.43 148.48,-95.13 138.16,-97.51 141.9,-103.43"/>
</g>
<!-- Node1953 -->
<g id="node23" class="node">
<title>Node1953</title>
<g id="a_node23"><a xlink:href="newsrc_8c.html#a64fdec9977db62a95daa5af59d280673" target="_top" xlink:title="Unlock and close .newsrc file.">
<polygon fill="white" stroke="red" points="301,-19.5 301,-38.5 402,-38.5 402,-19.5 301,-19.5"/>
<text text-anchor="middle" x="351.5" y="-26.5" font-family="Helvetica" font-size="10.00">nntp_newsrc_close</text>
</a>
</g>
</g>
<!-- Node1&#45;&gt;Node1953 -->
<g id="edge28" class="edge">
<title>Node1&#45;&gt;Node1953</title>
<path fill="none" stroke="midnightblue" d="M51.03,-475.16C54.33,-417.74 73.92,-126.58 135,-67 156.63,-45.9 234.61,-36.35 290.54,-32.14"/>
<polygon fill="midnightblue" stroke="midnightblue" points="290.99,-35.62 300.71,-31.42 290.49,-28.64 290.99,-35.62"/>
</g>
<!-- Node1997 -->
<g id="node24" class="node">
<title>Node1997</title>
<g id="a_node24"><a xlink:href="newsrc_8c.html#a57bd184c51b8701e9613761a629ca485" target="_top" xlink:title="Parse .newsrc file.">
<polygon fill="white" stroke="red" points="146.5,-0.5 146.5,-19.5 248.5,-19.5 248.5,-0.5 146.5,-0.5"/>
<text text-anchor="middle" x="197.5" y="-7.5" font-family="Helvetica" font-size="10.00">nntp_newsrc_parse</text>
</a>
</g>
</g>
<!-- Node1&#45;&gt;Node1997 -->
<g id="edge29" class="edge">
<title>Node1&#45;&gt;Node1997</title>
<path fill="none" stroke="midnightblue" d="M51.06,-475.35C54.64,-416.4 76.17,-105 135,-34 138.13,-30.23 141.92,-27.05 146.08,-24.36"/>
<polygon fill="midnightblue" stroke="midnightblue" points="147.89,-27.36 155.02,-19.53 144.56,-21.21 147.89,-27.36"/>
</g>
<!-- Node1084 -->
<g id="node25" class="node">
<title>Node1084</title>
<g id="a_node25"><a xlink:href="nntp_8c.html#abc4e8951366a6bf81d5d4d4ecf5ad4ba" target="_top" xlink:title="Connect to server, authenticate and get capabilities.">
<polygon fill="white" stroke="red" points="140.5,-304.5 140.5,-323.5 254.5,-323.5 254.5,-304.5 140.5,-304.5"/>
<text text-anchor="middle" x="197.5" y="-311.5" font-family="Helvetica" font-size="10.00">nntp_open_connection</text>
</a>
</g>
</g>
<!-- Node1&#45;&gt;Node1084 -->
<g id="edge31" class="edge">
<title>Node1&#45;&gt;Node1084</title>
<path fill="none" stroke="midnightblue" d="M53.53,-475.27C62.07,-449.33 88.81,-377.75 135,-338 139.62,-334.02 144.97,-330.67 150.56,-327.84"/>
<polygon fill="midnightblue" stroke="midnightblue" points="152.39,-330.85 160.08,-323.57 149.52,-324.47 152.39,-330.85"/>
</g>
<!-- Node35 -->
<g id="node26" class="node">
<title>Node35</title>
<g id="a_node26"><a xlink:href="url_8c.html#a7b05825b8bb8f87657713fe5bc6edfaa" target="_top" xlink:title="Free the contents of a URL.">
<polygon fill="white" stroke="black" points="327,-685.5 327,-704.5 376,-704.5 376,-685.5 327,-685.5"/>
<text text-anchor="middle" x="351.5" y="-692.5" font-family="Helvetica" font-size="10.00">url_free</text>
</a>
</g>
</g>
<!-- Node1&#45;&gt;Node35 -->
<g id="edge33" class="edge">
<title>Node1&#45;&gt;Node35</title>
<path fill="none" stroke="midnightblue" d="M51.46,-494.58C55.2,-526.49 71.94,-629.75 135,-675 188.95,-713.72 271.12,-708.51 316.83,-701.57"/>
<polygon fill="midnightblue" stroke="midnightblue" points="317.51,-705.01 326.82,-699.94 316.38,-698.1 317.51,-705.01"/>
</g>
<!-- Node36 -->
<g id="node27" class="node">
<title>Node36</title>
<g id="a_node27"><a xlink:href="url_8c.html#a10d35f5553c8e443c38257b69ca91075" target="_top" xlink:title="Fill in Url.">
<polygon fill="white" stroke="red" points="169,-722.5 169,-741.5 226,-741.5 226,-722.5 169,-722.5"/>
<text text-anchor="middle" x="197.5" y="-729.5" font-family="Helvetica" font-size="10.00">url_parse</text>
</a>
</g>
</g>
<!-- Node1&#45;&gt;Node36 -->
<g id="edge34" class="edge">
<title>Node1&#45;&gt;Node36</title>
<path fill="none" stroke="midnightblue" d="M51.38,-494.5C55.02,-528.32 71.79,-644.16 135,-708 141.69,-714.76 150.51,-719.66 159.37,-723.19"/>
<polygon fill="midnightblue" stroke="midnightblue" points="158.3,-726.53 168.9,-726.52 160.61,-719.92 158.3,-726.53"/>
</g>
<!-- Node2&#45;&gt;Node3 -->
<g id="edge2" class="edge">
<title>Node2&#45;&gt;Node3</title>
<path fill="none" stroke="midnightblue" d="M243.69,-882.51C261.86,-881.92 282.85,-881.23 301.39,-880.62"/>
<polygon fill="midnightblue" stroke="midnightblue" points="301.52,-884.11 311.4,-880.29 301.29,-877.12 301.52,-884.11"/>
</g>
<!-- Node3&#45;&gt;Node46 -->
<g id="edge3" class="edge">
<title>Node3&#45;&gt;Node46</title>
<path fill="none" stroke="midnightblue" d="M378.87,-869.44C387.82,-866.16 397.85,-862.46 407,-859 419.45,-854.3 433.06,-849.03 445.07,-844.35"/>
<polygon fill="midnightblue" stroke="midnightblue" points="446.68,-847.48 454.72,-840.58 444.13,-840.96 446.68,-847.48"/>
</g>
<!-- Node388&#45;&gt;Node46 -->
<g id="edge10" class="edge">
<title>Node388&#45;&gt;Node46</title>
<path fill="none" stroke="midnightblue" d="M377.8,-792.6C396.84,-799.83 423.18,-809.82 444.21,-817.8"/>
<polygon fill="midnightblue" stroke="midnightblue" points="443.16,-821.14 453.75,-821.42 445.64,-814.6 443.16,-821.14"/>
</g>
<!-- Node388&#45;&gt;Node388 -->
<g id="edge9" class="edge">
<title>Node388&#45;&gt;Node388</title>
<path fill="none" stroke="midnightblue" d="M331.77,-792.76C322.17,-801.57 328.75,-811 351.5,-811 366.07,-811 374.01,-807.13 375.31,-802.03"/>
<polygon fill="midnightblue" stroke="midnightblue" points="378.46,-800.5 371.23,-792.76 372.05,-803.32 378.46,-800.5"/>
</g>
<!-- Node1994&#45;&gt;Node3 -->
<g id="edge23" class="edge">
<title>Node1994&#45;&gt;Node3</title>
<path fill="none" stroke="midnightblue" d="M242.46,-855.54C260.9,-859.55 282.41,-864.22 301.36,-868.33"/>
<polygon fill="midnightblue" stroke="midnightblue" points="300.78,-871.79 311.29,-870.49 302.26,-864.95 300.78,-871.79"/>
</g>
<!-- Node1994&#45;&gt;Node88 -->
<g id="edge24" class="edge">
<title>Node1994&#45;&gt;Node88</title>
<path fill="none" stroke="midnightblue" d="M244.11,-844.2C261.66,-843.51 281.8,-842.71 299.8,-842"/>
<polygon fill="midnightblue" stroke="midnightblue" points="299.98,-845.5 309.84,-841.61 299.71,-838.5 299.98,-845.5"/>
</g>
<!-- Node1997&#45;&gt;Node1953 -->
<g id="edge30" class="edge">
<title>Node1997&#45;&gt;Node1953</title>
<path fill="none" stroke="midnightblue" d="M248.69,-16.27C262.19,-17.96 276.92,-19.8 290.88,-21.55"/>
<polygon fill="midnightblue" stroke="midnightblue" points="290.52,-25.03 300.88,-22.8 291.39,-18.08 290.52,-25.03"/>
</g>
<!-- Node1084&#45;&gt;Node446 -->
<g id="edge32" class="edge">
<title>Node1084&#45;&gt;Node446</title>
<path fill="none" stroke="midnightblue" d="M254.67,-321.02C266.82,-322.54 279.71,-324.15 291.95,-325.68"/>
<polygon fill="midnightblue" stroke="midnightblue" points="291.7,-329.18 302.06,-326.95 292.57,-322.23 291.7,-329.18"/>
</g>
<!-- Node36&#45;&gt;Node46 -->
<g id="edge35" class="edge">
<title>Node36&#45;&gt;Node46</title>
<path fill="none" stroke="midnightblue" d="M226.34,-731.19C267.81,-731.08 347.34,-735.12 407,-764 430.86,-775.55 452.26,-797.73 465.41,-813.4"/>
<polygon fill="midnightblue" stroke="midnightblue" points="462.81,-815.76 471.83,-821.33 468.25,-811.36 462.81,-815.76"/>
</g>
<!-- Node36&#45;&gt;Node35 -->
<g id="edge36" class="edge">
<title>Node36&#45;&gt;Node35</title>
<path fill="none" stroke="midnightblue" d="M226.03,-725.3C251.51,-719.1 289.49,-709.85 316.79,-703.21"/>
<polygon fill="midnightblue" stroke="midnightblue" points="317.79,-706.56 326.68,-700.8 316.13,-699.76 317.79,-706.56"/>
</g>
</g>
</svg>
