<?xml version="1.0" encoding="UTF-8" standalone="no"?>
<!DOCTYPE svg PUBLIC "-//W3C//DTD SVG 1.1//EN"
 "http://www.w3.org/Graphics/SVG/1.1/DTD/svg11.dtd">
<!-- Generated by graphviz version 7.1.0 (0)
 -->
<!-- Title: check_mailbox Pages: 1 -->
<svg width="536pt" height="884pt"
 viewBox="0.00 0.00 536.00 884.44" xmlns="http://www.w3.org/2000/svg" xmlns:xlink="http://www.w3.org/1999/xlink">
<g id="graph0" class="graph" transform="scale(1 1) rotate(0) translate(4 880.44)">
<title>check_mailbox</title>
<!-- Node1 -->
<g id="node1" class="node">
<title>Node1</title>
<g id="a_node1"><a xlink:title="Check current newsgroup for new articles.">
<polygon fill="#999999" stroke="#666666" points="83,-427.44 0,-427.44 0,-408.44 83,-408.44 83,-427.44"/>
<text text-anchor="middle" x="41.5" y="-415.44" font-family="Helvetica,sans-Serif" font-size="10.00">check_mailbox</text>
</a>
</g>
</g>
<!-- Node2 -->
<g id="node2" class="node">
<title>Node2</title>
<g id="a_node2"><a xlink:href="config_2helpers_8c.html#aaa3d1087514bcd9d7ea4347bed337c5b" target="_top" xlink:title="Get a long config item by name.">
<polygon fill="#fff0f0" stroke="red" points="225,-876.44 139,-876.44 139,-857.44 225,-857.44 225,-876.44"/>
<text text-anchor="middle" x="182" y="-864.44" font-family="Helvetica,sans-Serif" font-size="10.00">cs_subset_long</text>
</a>
</g>
</g>
<!-- Node1&#45;&gt;Node2 -->
<g id="edge1" class="edge">
<title>Node1&#45;&gt;Node2</title>
<path fill="none" stroke="#63b8ff" d="M42.87,-427.6C45.25,-485.26 60.34,-783.65 119,-848.94 121.7,-851.95 124.88,-854.47 128.34,-856.58"/>
<polygon fill="#63b8ff" stroke="#63b8ff" points="126.77,-859.71 137.31,-860.84 129.78,-853.39 126.77,-859.71"/>
</g>
<!-- Node23 -->
<g id="node3" class="node">
<title>Node23</title>
<g id="a_node3"><a xlink:href="config_2helpers_8c.html#a96039a9f8d37daad993ae7b490510339" target="_top" xlink:title="Get a number config item by name.">
<polygon fill="#fff0f0" stroke="red" points="233.5,-839.44 130.5,-839.44 130.5,-820.44 233.5,-820.44 233.5,-839.44"/>
<text text-anchor="middle" x="182" y="-827.44" font-family="Helvetica,sans-Serif" font-size="10.00">cs_subset_number</text>
</a>
</g>
</g>
<!-- Node1&#45;&gt;Node23 -->
<g id="edge2" class="edge">
<title>Node1&#45;&gt;Node23</title>
<path fill="none" stroke="#63b8ff" d="M43.16,-427.62C47.03,-481.62 68.36,-745.59 119,-805.94 121.72,-809.19 124.93,-811.99 128.44,-814.42"/>
<polygon fill="#63b8ff" stroke="#63b8ff" points="126.54,-817.36 136.96,-819.25 129.99,-811.28 126.54,-817.36"/>
</g>
<!-- Node24 -->
<g id="node4" class="node">
<title>Node24</title>
<g id="a_node4"><a xlink:href="email_2email_8c.html#ae9f719d3fc31d00b92bcf9f77d56ee67" target="_top" xlink:title="Free an Email.">
<polygon fill="#fff0f0" stroke="red" points="367,-763.44 302,-763.44 302,-744.44 367,-744.44 367,-763.44"/>
<text text-anchor="middle" x="334.5" y="-751.44" font-family="Helvetica,sans-Serif" font-size="10.00">email_free</text>
</a>
</g>
</g>
<!-- Node1&#45;&gt;Node24 -->
<g id="edge3" class="edge">
<title>Node1&#45;&gt;Node24</title>
<path fill="none" stroke="#63b8ff" d="M43.78,-427.7C49.89,-473.06 77.66,-662.78 119,-702.94 164.91,-747.55 242.36,-755.64 290.56,-755.89"/>
<polygon fill="#63b8ff" stroke="#63b8ff" points="290.36,-759.39 300.34,-755.82 290.31,-752.39 290.36,-759.39"/>
</g>
<!-- Node42 -->
<g id="node5" class="node">
<title>Node42</title>
<g id="a_node5"><a xlink:href="hcache_2hcache_8c.html#a791c8437997aca5d8747271ff4c75e98" target="_top" xlink:title="Multiplexor for StoreOps::close.">
<polygon fill="#fff0f0" stroke="red" points="220.5,-351.44 143.5,-351.44 143.5,-332.44 220.5,-332.44 220.5,-351.44"/>
<text text-anchor="middle" x="182" y="-339.44" font-family="Helvetica,sans-Serif" font-size="10.00">hcache_close</text>
</a>
</g>
</g>
<!-- Node1&#45;&gt;Node42 -->
<g id="edge4" class="edge">
<title>Node1&#45;&gt;Node42</title>
<path fill="none" stroke="#63b8ff" d="M55.2,-407.98C69.93,-396.74 95.25,-378.4 119,-365.94 125.87,-362.34 133.4,-358.98 140.78,-355.97"/>
<polygon fill="#63b8ff" stroke="#63b8ff" points="141.92,-359.28 149.97,-352.39 139.38,-352.76 141.92,-359.28"/>
</g>
<!-- Node44 -->
<g id="node6" class="node">
<title>Node44</title>
<g id="a_node6"><a xlink:href="hcache_2hcache_8c.html#a8ef10068ab1140db0955929b282525f6" target="_top" xlink:title="Multiplexor for StoreOps::fetch.">
<polygon fill="#fff0f0" stroke="red" points="388,-726.44 281,-726.44 281,-707.44 388,-707.44 388,-726.44"/>
<text text-anchor="middle" x="334.5" y="-714.44" font-family="Helvetica,sans-Serif" font-size="10.00">hcache_fetch_email</text>
</a>
</g>
</g>
<!-- Node1&#45;&gt;Node44 -->
<g id="edge5" class="edge">
<title>Node1&#45;&gt;Node44</title>
<path fill="none" stroke="#63b8ff" d="M42.34,-427.71C42.3,-464.73 47.34,-597.63 119,-664.94 159.25,-702.75 222.16,-714.47 269.46,-717.49"/>
<polygon fill="#63b8ff" stroke="#63b8ff" points="269.15,-720.98 279.31,-718 269.5,-713.99 269.15,-720.98"/>
</g>
<!-- Node242 -->
<g id="node7" class="node">
<title>Node242</title>
<g id="a_node7"><a xlink:href="core_2mailbox_8c.html#af09ac36728ca3255523cd3b0bfd1f172" target="_top" xlink:title="Notify observers of a change to a Mailbox.">
<polygon fill="#fff0f0" stroke="red" points="230.5,-314.44 133.5,-314.44 133.5,-295.44 230.5,-295.44 230.5,-314.44"/>
<text text-anchor="middle" x="182" y="-302.44" font-family="Helvetica,sans-Serif" font-size="10.00">mailbox_changed</text>
</a>
</g>
</g>
<!-- Node1&#45;&gt;Node242 -->
<g id="edge6" class="edge">
<title>Node1&#45;&gt;Node242</title>
<path fill="none" stroke="#63b8ff" d="M47.83,-408.09C58.67,-388.97 85.14,-346.74 119,-323.94 121.37,-322.35 123.88,-320.88 126.48,-319.54"/>
<polygon fill="#63b8ff" stroke="#63b8ff" points="127.74,-322.81 135.44,-315.53 124.89,-316.41 127.74,-322.81"/>
</g>
<!-- Node245 -->
<g id="node8" class="node">
<title>Node245</title>
<g id="a_node8"><a xlink:href="bcache_8c.html#a81a73e04de0e74abec304abb57f9a21a" target="_top" xlink:title="Delete a file from the Body Cache.">
<polygon fill="#fff0f0" stroke="red" points="382,-689.44 287,-689.44 287,-670.44 382,-670.44 382,-689.44"/>
<text text-anchor="middle" x="334.5" y="-677.44" font-family="Helvetica,sans-Serif" font-size="10.00">mutt_bcache_del</text>
</a>
</g>
</g>
<!-- Node1&#45;&gt;Node245 -->
<g id="edge7" class="edge">
<title>Node1&#45;&gt;Node245</title>
<path fill="none" stroke="#63b8ff" d="M42.97,-427.58C45.12,-460.74 56.87,-571.22 119,-626.94 161.74,-665.27 227.82,-676.9 275.34,-679.95"/>
<polygon fill="#63b8ff" stroke="#63b8ff" points="275.01,-683.44 285.18,-680.46 275.37,-676.45 275.01,-683.44"/>
</g>
<!-- Node246 -->
<g id="node9" class="node">
<title>Node246</title>
<g id="a_node9"><a xlink:href="mutt__logging_8c.html#af068b3f524a31fad293b2fb61dfc4534" target="_top" xlink:title="Clear the message line (bottom line of screen)">
<polygon fill="#fff0f0" stroke="red" points="382,-652.44 287,-652.44 287,-633.44 382,-633.44 382,-652.44"/>
<text text-anchor="middle" x="334.5" y="-640.44" font-family="Helvetica,sans-Serif" font-size="10.00">mutt_clear_error</text>
</a>
</g>
</g>
<!-- Node1&#45;&gt;Node246 -->
<g id="edge8" class="edge">
<title>Node1&#45;&gt;Node246</title>
<path fill="none" stroke="#63b8ff" d="M43.89,-427.85C48.55,-457.27 66.44,-544.82 119,-588.94 162.88,-625.78 228.47,-638.02 275.56,-641.83"/>
<polygon fill="#63b8ff" stroke="#63b8ff" points="275.08,-645.3 285.3,-642.5 275.57,-638.32 275.08,-645.3"/>
</g>
<!-- Node148 -->
<g id="node10" class="node">
<title>Node148</title>
<g id="a_node10"><a xlink:href="mutt_2date_8c.html#ad1e6304a91c7b6f3c266a9b17c1740fe" target="_top" xlink:title="Return the number of seconds since the Unix epoch.">
<polygon fill="#fff0f0" stroke="red" points="226.5,-277.44 137.5,-277.44 137.5,-258.44 226.5,-258.44 226.5,-277.44"/>
<text text-anchor="middle" x="182" y="-265.44" font-family="Helvetica,sans-Serif" font-size="10.00">mutt_date_now</text>
</a>
</g>
</g>
<!-- Node1&#45;&gt;Node148 -->
<g id="edge9" class="edge">
<title>Node1&#45;&gt;Node148</title>
<path fill="none" stroke="#63b8ff" d="M45.47,-408.05C53.31,-383.68 76.88,-320.3 119,-286.94 121.52,-284.95 124.26,-283.16 127.12,-281.56"/>
<polygon fill="#63b8ff" stroke="#63b8ff" points="128.32,-284.86 135.88,-277.44 125.34,-278.52 128.32,-284.86"/>
</g>
<!-- Node282 -->
<g id="node11" class="node">
<title>Node282</title>
<g id="a_node11"><a xlink:href="flags_8c.html#a29547b9c7c39eb22039ff4b8f1c03829" target="_top" xlink:title="Set a flag on an email.">
<polygon fill="#fff0f0" stroke="red" points="222,-240.44 142,-240.44 142,-221.44 222,-221.44 222,-240.44"/>
<text text-anchor="middle" x="182" y="-228.44" font-family="Helvetica,sans-Serif" font-size="10.00">mutt_set_flag</text>
</a>
</g>
</g>
<!-- Node1&#45;&gt;Node282 -->
<g id="edge10" class="edge">
<title>Node1&#45;&gt;Node282</title>
<path fill="none" stroke="#63b8ff" d="M44.05,-408.33C49.16,-379.76 68.18,-294.55 119,-249.94 122.62,-246.77 126.75,-244.12 131.14,-241.92"/>
<polygon fill="#63b8ff" stroke="#63b8ff" points="132.39,-245.19 140.29,-238.12 129.71,-238.73 132.39,-245.19"/>
</g>
<!-- Node807 -->
<g id="node12" class="node">
<title>Node807</title>
<g id="a_node12"><a xlink:href="mx_8c.html#a0572e1f7a00e528557923201a39c7de9" target="_top" xlink:title="Create storage for the emails.">
<polygon fill="#fff0f0" stroke="red" points="384.5,-501.44 284.5,-501.44 284.5,-482.44 384.5,-482.44 384.5,-501.44"/>
<text text-anchor="middle" x="334.5" y="-489.44" font-family="Helvetica,sans-Serif" font-size="10.00">mx_alloc_memory</text>
</a>
</g>
</g>
<!-- Node1&#45;&gt;Node807 -->
<g id="edge11" class="edge">
<title>Node1&#45;&gt;Node807</title>
<path fill="none" stroke="#63b8ff" d="M60.85,-427.92C76.03,-435.78 98.38,-446.46 119,-452.94 169.72,-468.88 229.35,-479.07 272.84,-485.02"/>
<polygon fill="#63b8ff" stroke="#63b8ff" points="272.23,-488.47 282.6,-486.32 273.15,-481.53 272.23,-488.47"/>
</g>
<!-- Node1275 -->
<g id="node13" class="node">
<title>Node1275</title>
<g id="a_node13"><a xlink:href="newsrc_8c.html#aa8b8319b59b7ef6de942cd25400e0d79" target="_top" xlink:title="Save list of all newsgroups to cache.">
<polygon fill="#fff0f0" stroke="red" points="245,-203.44 119,-203.44 119,-184.44 245,-184.44 245,-203.44"/>
<text text-anchor="middle" x="182" y="-191.44" font-family="Helvetica,sans-Serif" font-size="10.00">nntp_active_save_cache</text>
</a>
</g>
</g>
<!-- Node1&#45;&gt;Node1275 -->
<g id="edge12" class="edge">
<title>Node1&#45;&gt;Node1275</title>
<path fill="none" stroke="#63b8ff" d="M43.18,-408.16C46,-375.48 59.55,-268.94 119,-212.94 120.23,-211.79 121.53,-210.7 122.88,-209.68"/>
<polygon fill="#63b8ff" stroke="#63b8ff" points="124.47,-212.81 131.22,-204.64 120.85,-206.82 124.47,-212.81"/>
</g>
<!-- Node1278 -->
<g id="node14" class="node">
<title>Node1278</title>
<g id="a_node14"><a xlink:href="newsrc_8c.html#a3a2a364d853a786fb0b224c379d28eab" target="_top" xlink:title="Get status of articles from .newsrc.">
<polygon fill="#fff0f0" stroke="red" points="528,-614.44 424,-614.44 424,-595.44 528,-595.44 528,-614.44"/>
<text text-anchor="middle" x="476" y="-602.44" font-family="Helvetica,sans-Serif" font-size="10.00">nntp_article_status</text>
</a>
</g>
</g>
<!-- Node1&#45;&gt;Node1278 -->
<g id="edge13" class="edge">
<title>Node1&#45;&gt;Node1278</title>
<path fill="none" stroke="#63b8ff" d="M43.41,-427.69C48.18,-476.7 71.89,-695.57 119,-740.94 205.72,-824.47 285.14,-835.51 388,-772.94 441.45,-740.43 463.52,-663.3 471.32,-625.94"/>
<polygon fill="#63b8ff" stroke="#63b8ff" points="474.71,-626.89 473.16,-616.41 467.83,-625.56 474.71,-626.89"/>
</g>
<!-- Node1279 -->
<g id="node15" class="node">
<title>Node1279</title>
<g id="a_node15"><a xlink:href="group__email__edata__free.html#gabde0fac585d1a21a6a7677d489e6b41d" target="_top" xlink:title="Free the private Email data &#45; Implements Email::edata_free() &#45;.">
<polygon fill="white" stroke="#666666" points="381,-464.44 288,-464.44 288,-445.44 381,-445.44 381,-464.44"/>
<text text-anchor="middle" x="334.5" y="-452.44" font-family="Helvetica,sans-Serif" font-size="10.00">nntp_edata_free</text>
</a>
</g>
</g>
<!-- Node1&#45;&gt;Node1279 -->
<g id="edge14" class="edge">
<title>Node1&#45;&gt;Node1279</title>
<path fill="none" stroke="#63b8ff" d="M83.3,-425.99C94.82,-428.1 107.37,-430.26 119,-431.94 172.14,-439.64 233.03,-445.93 276.32,-449.98"/>
<polygon fill="#63b8ff" stroke="#63b8ff" points="275.98,-453.46 286.26,-450.89 276.62,-446.49 275.98,-453.46"/>
</g>
<!-- Node1280 -->
<g id="node16" class="node">
<title>Node1280</title>
<g id="a_node16"><a xlink:href="nntp_2edata_8c.html#a78e1fab53bc6f3d3813bcef508414349" target="_top" xlink:title="Get the private data for this Email.">
<polygon fill="white" stroke="#666666" points="520.5,-538.44 431.5,-538.44 431.5,-519.44 520.5,-519.44 520.5,-538.44"/>
<text text-anchor="middle" x="476" y="-526.44" font-family="Helvetica,sans-Serif" font-size="10.00">nntp_edata_get</text>
</a>
</g>
</g>
<!-- Node1&#45;&gt;Node1280 -->
<g id="edge15" class="edge">
<title>Node1&#45;&gt;Node1280</title>
<path fill="none" stroke="#63b8ff" d="M68.73,-407.96C129.21,-386.69 281.4,-343.26 388,-399.94 431.37,-423.01 457.03,-478.4 468.25,-508.56"/>
<polygon fill="#63b8ff" stroke="#63b8ff" points="464.84,-509.4 471.46,-517.67 471.44,-507.07 464.84,-509.4"/>
</g>
<!-- Node1281 -->
<g id="node17" class="node">
<title>Node1281</title>
<g id="a_node17"><a xlink:href="nntp_2edata_8c.html#ae9966ecbbc4bcf1109eeef0a02e34269" target="_top" xlink:title="Create a new NntpEmailData for an Email.">
<polygon fill="white" stroke="#666666" points="380.5,-427.44 288.5,-427.44 288.5,-408.44 380.5,-408.44 380.5,-427.44"/>
<text text-anchor="middle" x="334.5" y="-415.44" font-family="Helvetica,sans-Serif" font-size="10.00">nntp_edata_new</text>
</a>
</g>
</g>
<!-- Node1&#45;&gt;Node1281 -->
<g id="edge16" class="edge">
<title>Node1&#45;&gt;Node1281</title>
<path fill="none" stroke="#63b8ff" d="M83.27,-417.94C133.76,-417.94 220.03,-417.94 276.91,-417.94"/>
<polygon fill="#63b8ff" stroke="#63b8ff" points="276.71,-421.44 286.71,-417.94 276.71,-414.44 276.71,-421.44"/>
</g>
<!-- Node1282 -->
<g id="node18" class="node">
<title>Node1282</title>
<g id="a_node18"><a xlink:href="nntp_8c.html#aee3d5be3d80d56eaa5f16865db0e22c6" target="_top" xlink:title="Fetch headers.">
<polygon fill="#fff0f0" stroke="red" points="237,-579.44 127,-579.44 127,-560.44 237,-560.44 237,-579.44"/>
<text text-anchor="middle" x="182" y="-567.44" font-family="Helvetica,sans-Serif" font-size="10.00">nntp_fetch_headers</text>
</a>
</g>
</g>
<!-- Node1&#45;&gt;Node1282 -->
<g id="edge17" class="edge">
<title>Node1&#45;&gt;Node1282</title>
<path fill="none" stroke="#63b8ff" d="M45.81,-427.77C54.26,-451.43 78.83,-512.06 119,-545.94 123.19,-549.48 127.96,-552.53 132.95,-555.15"/>
<polygon fill="#63b8ff" stroke="#63b8ff" points="131.47,-558.32 142.01,-559.32 134.39,-551.96 131.47,-558.32"/>
</g>
<!-- Node1315 -->
<g id="node19" class="node">
<title>Node1315</title>
<g id="a_node19"><a xlink:href="nntp_8c.html#aba0b869ad5244bb92012df19edef7bd5" target="_top" xlink:title="Parse cross&#45;reference.">
<polygon fill="#fff0f0" stroke="red" points="380.5,-538.44 288.5,-538.44 288.5,-519.44 380.5,-519.44 380.5,-538.44"/>
<text text-anchor="middle" x="334.5" y="-526.44" font-family="Helvetica,sans-Serif" font-size="10.00">nntp_parse_xref</text>
</a>
</g>
</g>
<!-- Node1&#45;&gt;Node1315 -->
<g id="edge36" class="edge">
<title>Node1&#45;&gt;Node1315</title>
<path fill="none" stroke="#63b8ff" d="M51.41,-427.53C64.75,-441.3 91.33,-466.48 119,-479.94 169.4,-504.47 232.49,-516.98 277.17,-523.19"/>
<polygon fill="#63b8ff" stroke="#63b8ff" points="276.52,-526.63 286.89,-524.47 277.44,-519.69 276.52,-526.63"/>
</g>
<!-- Node1317 -->
<g id="node20" class="node">
<title>Node1317</title>
<g id="a_node20"><a xlink:href="nntp_8c.html#a3dc0585ce5a5060f5c07bdc1c89e373b" target="_top" xlink:title="Check newsgroup for new articles.">
<polygon fill="#fff0f0" stroke="red" points="228,-166.44 136,-166.44 136,-147.44 228,-147.44 228,-166.44"/>
<text text-anchor="middle" x="182" y="-154.44" font-family="Helvetica,sans-Serif" font-size="10.00">nntp_group_poll</text>
</a>
</g>
</g>
<!-- Node1&#45;&gt;Node1317 -->
<g id="edge30" class="edge">
<title>Node1&#45;&gt;Node1317</title>
<path fill="none" stroke="#63b8ff" d="M42.55,-408C43.27,-371.51 50.78,-243.57 119,-175.94 121.06,-173.9 123.34,-172.07 125.77,-170.44"/>
<polygon fill="#63b8ff" stroke="#63b8ff" points="127.26,-173.61 134.41,-165.79 123.94,-167.45 127.26,-173.61"/>
</g>
<!-- Node1319 -->
<g id="node21" class="node">
<title>Node1319</title>
<g id="a_node21"><a xlink:href="newsrc_8c.html#a00132ef57a28e8ec428b6fa298ea63d4" target="_top" xlink:title="Open newsgroup hcache.">
<polygon fill="#fff0f0" stroke="red" points="234,-129.44 130,-129.44 130,-110.44 234,-110.44 234,-129.44"/>
<text text-anchor="middle" x="182" y="-117.44" font-family="Helvetica,sans-Serif" font-size="10.00">nntp_hcache_open</text>
</a>
</g>
</g>
<!-- Node1&#45;&gt;Node1319 -->
<g id="edge31" class="edge">
<title>Node1&#45;&gt;Node1319</title>
<path fill="none" stroke="#63b8ff" d="M42.06,-408.19C40.85,-368.65 41.69,-218.59 119,-138.94 120.01,-137.9 121.08,-136.91 122.2,-135.98"/>
<polygon fill="#63b8ff" stroke="#63b8ff" points="123.87,-139.07 130.3,-130.65 120.02,-133.22 123.87,-139.07"/>
</g>
<!-- Node1321 -->
<g id="node22" class="node">
<title>Node1321</title>
<g id="a_node22"><a xlink:href="newsrc_8c.html#a25f479090028437bbd1cc59a08942112" target="_top" xlink:title="Remove stale cached headers.">
<polygon fill="#fff0f0" stroke="red" points="238.5,-92.44 125.5,-92.44 125.5,-73.44 238.5,-73.44 238.5,-92.44"/>
<text text-anchor="middle" x="182" y="-80.44" font-family="Helvetica,sans-Serif" font-size="10.00">nntp_hcache_update</text>
</a>
</g>
</g>
<!-- Node1&#45;&gt;Node1321 -->
<g id="edge32" class="edge">
<title>Node1&#45;&gt;Node1321</title>
<path fill="none" stroke="#63b8ff" d="M43.55,-408.13C48.91,-359.78 74.71,-147.31 119,-100.94 119.48,-100.44 119.98,-99.95 120.49,-99.47"/>
<polygon fill="#63b8ff" stroke="#63b8ff" points="122.39,-102.41 128.45,-93.72 118.3,-96.73 122.39,-102.41"/>
</g>
<!-- Node1322 -->
<g id="node23" class="node">
<title>Node1322</title>
<g id="a_node23"><a xlink:href="newsrc_8c.html#a64fdec9977db62a95daa5af59d280673" target="_top" xlink:title="Unlock and close .newsrc file.">
<polygon fill="#fff0f0" stroke="red" points="385.5,-36.44 283.5,-36.44 283.5,-17.44 385.5,-17.44 385.5,-36.44"/>
<text text-anchor="middle" x="334.5" y="-24.44" font-family="Helvetica,sans-Serif" font-size="10.00">nntp_newsrc_close</text>
</a>
</g>
</g>
<!-- Node1&#45;&gt;Node1322 -->
<g id="edge33" class="edge">
<title>Node1&#45;&gt;Node1322</title>
<path fill="none" stroke="#63b8ff" d="M42.81,-408.23C44.78,-352.83 57.59,-77.5 119,-26.94 168.27,13.62 247.7,-0.13 294.83,-13.65"/>
<polygon fill="#63b8ff" stroke="#63b8ff" points="293.76,-16.98 304.34,-16.52 295.78,-10.28 293.76,-16.98"/>
</g>
<!-- Node1323 -->
<g id="node24" class="node">
<title>Node1323</title>
<g id="a_node24"><a xlink:href="newsrc_8c.html#a57bd184c51b8701e9613761a629ca485" target="_top" xlink:title="Parse .newsrc file.">
<polygon fill="#fff0f0" stroke="red" points="234.5,-55.44 129.5,-55.44 129.5,-36.44 234.5,-36.44 234.5,-55.44"/>
<text text-anchor="middle" x="182" y="-43.44" font-family="Helvetica,sans-Serif" font-size="10.00">nntp_newsrc_parse</text>
</a>
</g>
</g>
<!-- Node1&#45;&gt;Node1323 -->
<g id="edge34" class="edge">
<title>Node1&#45;&gt;Node1323</title>
<path fill="none" stroke="#63b8ff" d="M43.29,-408.05C47.63,-356.21 70.11,-116.37 119,-63.94 119.37,-63.54 119.75,-63.15 120.14,-62.77"/>
<polygon fill="#63b8ff" stroke="#63b8ff" points="122.18,-65.62 128.09,-56.83 117.99,-60.01 122.18,-65.62"/>
</g>
<!-- Node1282&#45;&gt;Node24 -->
<g id="edge18" class="edge">
<title>Node1282&#45;&gt;Node24</title>
<path fill="none" stroke="#63b8ff" d="M186.08,-579.8C195.48,-608.28 226.52,-691.54 281,-735.94 284.08,-738.46 287.53,-740.62 291.15,-742.5"/>
<polygon fill="#63b8ff" stroke="#63b8ff" points="289.69,-745.68 300.26,-746.43 292.46,-739.25 289.69,-745.68"/>
</g>
<!-- Node1282&#45;&gt;Node44 -->
<g id="edge19" class="edge">
<title>Node1282&#45;&gt;Node44</title>
<path fill="none" stroke="#63b8ff" d="M187.91,-579.94C200.22,-603.98 234.72,-665.51 281,-698.94 282.53,-700.05 284.13,-701.09 285.79,-702.07"/>
<polygon fill="#63b8ff" stroke="#63b8ff" points="283.86,-705.02 294.37,-706.38 287,-698.76 283.86,-705.02"/>
</g>
<!-- Node1282&#45;&gt;Node245 -->
<g id="edge20" class="edge">
<title>Node1282&#45;&gt;Node245</title>
<path fill="none" stroke="#63b8ff" d="M190.87,-579.7C206.31,-598.22 242.42,-638.71 281,-661.94 283.03,-663.17 285.16,-664.32 287.34,-665.41"/>
<polygon fill="#63b8ff" stroke="#63b8ff" points="285.89,-668.6 296.45,-669.41 288.7,-662.19 285.89,-668.6"/>
</g>
<!-- Node1282&#45;&gt;Node246 -->
<g id="edge21" class="edge">
<title>Node1282&#45;&gt;Node246</title>
<path fill="none" stroke="#63b8ff" d="M209.4,-579.85C220.58,-584.34 233.63,-589.98 245,-595.94 261.82,-604.76 264.33,-609.86 281,-618.94 286.92,-622.17 293.35,-625.36 299.62,-628.3"/>
<polygon fill="#63b8ff" stroke="#63b8ff" points="297.97,-631.39 308.52,-632.37 300.88,-625.03 297.97,-631.39"/>
</g>
<!-- Node1282&#45;&gt;Node807 -->
<g id="edge22" class="edge">
<title>Node1282&#45;&gt;Node807</title>
<path fill="none" stroke="#63b8ff" d="M197.44,-560.02C216.13,-547.47 249.98,-525.72 281,-510.94 284.56,-509.25 288.32,-507.61 292.13,-506.05"/>
<polygon fill="#63b8ff" stroke="#63b8ff" points="293.35,-509.33 301.42,-502.46 290.83,-502.8 293.35,-509.33"/>
</g>
<!-- Node1282&#45;&gt;Node1278 -->
<g id="edge23" class="edge">
<title>Node1282&#45;&gt;Node1278</title>
<path fill="none" stroke="#63b8ff" d="M237.24,-576.45C286.87,-582.39 360.29,-591.2 412.39,-597.44"/>
<polygon fill="#63b8ff" stroke="#63b8ff" points="411.65,-600.88 422,-598.59 412.49,-593.93 411.65,-600.88"/>
</g>
<!-- Node1282&#45;&gt;Node1279 -->
<g id="edge24" class="edge">
<title>Node1282&#45;&gt;Node1279</title>
<path fill="none" stroke="#63b8ff" d="M190.58,-560.11C205.77,-540.99 241.88,-498.53 281,-473.94 283.57,-472.33 286.29,-470.83 289.09,-469.43"/>
<polygon fill="#63b8ff" stroke="#63b8ff" points="290.34,-472.71 298.07,-465.46 287.51,-466.31 290.34,-472.71"/>
</g>
<!-- Node1282&#45;&gt;Node1280 -->
<g id="edge25" class="edge">
<title>Node1282&#45;&gt;Node1280</title>
<path fill="none" stroke="#63b8ff" d="M237.17,-565.74C278.62,-562.13 337.12,-556.21 388,-547.94 399.33,-546.1 411.41,-543.73 422.84,-541.29"/>
<polygon fill="#63b8ff" stroke="#63b8ff" points="423.52,-544.73 432.54,-539.17 422.02,-537.89 423.52,-544.73"/>
</g>
<!-- Node1282&#45;&gt;Node1281 -->
<g id="edge26" class="edge">
<title>Node1282&#45;&gt;Node1281</title>
<path fill="none" stroke="#63b8ff" d="M187.69,-560.04C199.72,-535.62 234.12,-471.96 281,-436.94 282.91,-435.52 284.94,-434.19 287.05,-432.95"/>
<polygon fill="#63b8ff" stroke="#63b8ff" points="288.58,-436.1 295.96,-428.5 285.45,-429.84 288.58,-436.1"/>
</g>
<!-- Node1282&#45;&gt;Node1315 -->
<g id="edge27" class="edge">
<title>Node1282&#45;&gt;Node1315</title>
<path fill="none" stroke="#63b8ff" d="M219.43,-560.02C239.43,-554.57 264.47,-547.75 285.99,-541.89"/>
<polygon fill="#63b8ff" stroke="#63b8ff" points="286.69,-545.32 295.42,-539.32 284.85,-538.57 286.69,-545.32"/>
</g>
<!-- Node1315&#45;&gt;Node1278 -->
<g id="edge28" class="edge">
<title>Node1315&#45;&gt;Node1278</title>
<path fill="none" stroke="#63b8ff" d="M353.74,-538.88C377.44,-551.8 419.09,-574.48 446.86,-589.61"/>
<polygon fill="#63b8ff" stroke="#63b8ff" points="444.97,-592.57 455.43,-594.28 448.32,-586.42 444.97,-592.57"/>
</g>
<!-- Node1315&#45;&gt;Node1280 -->
<g id="edge29" class="edge">
<title>Node1315&#45;&gt;Node1280</title>
<path fill="none" stroke="#63b8ff" d="M380.79,-528.94C393.34,-528.94 407.11,-528.94 420.14,-528.94"/>
<polygon fill="#63b8ff" stroke="#63b8ff" points="419.85,-532.44 429.85,-528.94 419.85,-525.44 419.85,-532.44"/>
</g>
<!-- Node1323&#45;&gt;Node1322 -->
<g id="edge35" class="edge">
<title>Node1323&#45;&gt;Node1322</title>
<path fill="none" stroke="#63b8ff" d="M234.79,-39.41C246.77,-37.89 259.63,-36.27 271.98,-34.71"/>
<polygon fill="#63b8ff" stroke="#63b8ff" points="272.15,-38.22 281.64,-33.49 271.28,-31.27 272.15,-38.22"/>
</g>
</g>
</svg>
