<?xml version="1.0" encoding="UTF-8" standalone="no"?>
<!DOCTYPE svg PUBLIC "-//W3C//DTD SVG 1.1//EN"
 "http://www.w3.org/Graphics/SVG/1.1/DTD/svg11.dtd">
<!-- Generated by graphviz version 12.2.1 (20241206.2353)
 -->
<!-- Title: mutt_newsgroup_catchup Pages: 1 -->
<svg width="266pt" height="70pt"
 viewBox="0.00 0.00 265.75 70.25" xmlns="http://www.w3.org/2000/svg" xmlns:xlink="http://www.w3.org/1999/xlink">
<g id="graph0" class="graph" transform="scale(1 1) rotate(0) translate(4 66.25)">
<title>mutt_newsgroup_catchup</title>
<!-- Node1 -->
<g id="Node000001" class="node">
<title>Node1</title>
<g id="a_Node000001"><a xlink:title="Catchup newsgroup.">
<polygon fill="#999999" stroke="#666666" points="134.5,-42.25 0,-42.25 0,-20 134.5,-20 134.5,-42.25"/>
<text text-anchor="middle" x="67.25" y="-28.75" font-family="Helvetica,sans-Serif" font-size="10.00">mutt_newsgroup_catchup</text>
</a>
</g>
</g>
<!-- Node2 -->
<g id="Node000002" class="node">
<title>Node2</title>
<g id="a_Node000002"><a xlink:href="hash_8c.html#a21cfc2c56db496fc57d3d85a71c03215" target="_top" xlink:title="Find the HashElem data in a Hash Table element using a key.">
<polygon fill="#fff0f0" stroke="red" points="257.75,-62.25 170.5,-62.25 170.5,-40 257.75,-40 257.75,-62.25"/>
<text text-anchor="middle" x="214.12" y="-48.75" font-family="Helvetica,sans-Serif" font-size="10.00">mutt_hash_find</text>
</a>
</g>
</g>
<!-- Node1&#45;&gt;Node2 -->
<g id="edge1_Node000001_Node000002" class="edge">
<title>Node1&#45;&gt;Node2</title>
<g id="a_edge1_Node000001_Node000002"><a xlink:title=" ">
<path fill="none" stroke="#63b8ff" d="M134.75,-40.31C142.85,-41.42 151.04,-42.55 158.93,-43.64"/>
<polygon fill="#63b8ff" stroke="#63b8ff" points="158.33,-47.09 168.72,-44.99 159.29,-40.16 158.33,-47.09"/>
</a>
</g>
</g>
<!-- Node5 -->
<g id="Node000005" class="node">
<title>Node5</title>
<g id="a_Node000005"><a xlink:href="flags_8c.html#a29547b9c7c39eb22039ff4b8f1c03829" target="_top" xlink:title="Set a flag on an email.">
<polygon fill="#fff0f0" stroke="red" points="253.62,-22.25 174.62,-22.25 174.62,0 253.62,0 253.62,-22.25"/>
<text text-anchor="middle" x="214.12" y="-8.75" font-family="Helvetica,sans-Serif" font-size="10.00">mutt_set_flag</text>
</a>
</g>
</g>
<!-- Node1&#45;&gt;Node5 -->
<g id="edge2_Node000001_Node000005" class="edge">
<title>Node1&#45;&gt;Node5</title>
<g id="a_edge2_Node000001_Node000005"><a xlink:title=" ">
<path fill="none" stroke="#63b8ff" d="M134.75,-21.94C144.27,-20.63 153.93,-19.3 163.06,-18.04"/>
<polygon fill="#63b8ff" stroke="#63b8ff" points="163.37,-21.53 172.79,-16.69 162.41,-14.59 163.37,-21.53"/>
</a>
</g>
</g>
</g>
</svg>
