<?xml version="1.0" encoding="UTF-8" standalone="no"?>
<!DOCTYPE svg PUBLIC "-//W3C//DTD SVG 1.1//EN"
 "http://www.w3.org/Graphics/SVG/1.1/DTD/svg11.dtd">
<!-- Generated by graphviz version 12.2.1 (20241206.2353)
 -->
<!-- Title: check_mailbox Pages: 1 -->
<svg width="226pt" height="70pt"
 viewBox="0.00 0.00 226.00 70.25" xmlns="http://www.w3.org/2000/svg" xmlns:xlink="http://www.w3.org/1999/xlink">
<g id="graph0" class="graph" transform="scale(1 1) rotate(0) translate(4 66.25)">
<title>check_mailbox</title>
<!-- Node1 -->
<g id="Node000001" class="node">
<title>Node1</title>
<g id="a_Node000001"><a xlink:title="Check current newsgroup for new articles.">
<polygon fill="#999999" stroke="#666666" points="218,-42.25 135.25,-42.25 135.25,-20 218,-20 218,-42.25"/>
<text text-anchor="middle" x="176.62" y="-28.75" font-family="Helvetica,sans-Serif" font-size="10.00">check_mailbox</text>
</a>
</g>
</g>
<!-- Node2 -->
<g id="Node000002" class="node">
<title>Node2</title>
<g id="a_Node000002"><a xlink:href="group__mx__mbox__check.html#gafc1020d6388163ca2f05c682fac382b6" target="_top" xlink:title="Check for new mail &#45; Implements MxOps::mbox_check() &#45;.">
<polygon fill="white" stroke="#666666" points="99.25,-62.25 0,-62.25 0,-40 99.25,-40 99.25,-62.25"/>
<text text-anchor="middle" x="49.62" y="-48.75" font-family="Helvetica,sans-Serif" font-size="10.00">nntp_mbox_check</text>
</a>
</g>
</g>
<!-- Node1&#45;&gt;Node2 -->
<g id="edge1_Node000001_Node000002" class="edge">
<title>Node1&#45;&gt;Node2</title>
<g id="a_edge1_Node000001_Node000002"><a xlink:title=" ">
<path fill="none" stroke="#63b8ff" d="M123.94,-39.39C115.93,-40.68 107.68,-42 99.73,-43.27"/>
<polygon fill="#63b8ff" stroke="#63b8ff" points="124.23,-42.89 133.55,-37.86 123.12,-35.98 124.23,-42.89"/>
</a>
</g>
</g>
<!-- Node3 -->
<g id="Node000003" class="node">
<title>Node3</title>
<g id="a_Node000003"><a xlink:href="group__mx__mbox__sync.html#ga64573e1bd7aca7ae22829562a82ae730" target="_top" xlink:title="Save changes to the Mailbox &#45; Implements MxOps::mbox_sync() &#45;.">
<polygon fill="white" stroke="#666666" points="96.25,-22.25 3,-22.25 3,0 96.25,0 96.25,-22.25"/>
<text text-anchor="middle" x="49.62" y="-8.75" font-family="Helvetica,sans-Serif" font-size="10.00">nntp_mbox_sync</text>
</a>
</g>
</g>
<!-- Node1&#45;&gt;Node3 -->
<g id="edge2_Node000001_Node000003" class="edge">
<title>Node1&#45;&gt;Node3</title>
<g id="a_edge2_Node000001_Node000003"><a xlink:title=" ">
<path fill="none" stroke="#63b8ff" d="M123.84,-22.84C114.82,-21.4 105.49,-19.9 96.64,-18.49"/>
<polygon fill="#63b8ff" stroke="#63b8ff" points="123.12,-26.27 133.55,-24.39 124.23,-19.36 123.12,-26.27"/>
</a>
</g>
</g>
</g>
</svg>
