<?xml version="1.0" encoding="UTF-8" standalone="no"?>
<!DOCTYPE svg PUBLIC "-//W3C//DTD SVG 1.1//EN"
 "http://www.w3.org/Graphics/SVG/1.1/DTD/svg11.dtd">
<!-- Generated by graphviz version 7.1.0 (0)
 -->
<!-- Title: nntp_check_children Pages: 1 -->
<svg width="544pt" height="291pt"
 viewBox="0.00 0.00 544.00 291.00" xmlns="http://www.w3.org/2000/svg" xmlns:xlink="http://www.w3.org/1999/xlink">
<g id="graph0" class="graph" transform="scale(1 1) rotate(0) translate(4 287)">
<title>nntp_check_children</title>
<!-- Node1 -->
<g id="node1" class="node">
<title>Node1</title>
<g id="a_node1"><a xlink:title="Fetch children of article with the Message&#45;ID.">
<polygon fill="#999999" stroke="#666666" points="110,-152 0,-152 0,-133 110,-133 110,-152"/>
<text text-anchor="middle" x="55" y="-140" font-family="Helvetica,sans-Serif" font-size="10.00">nntp_check_children</text>
</a>
</g>
</g>
<!-- Node2 -->
<g id="node2" class="node">
<title>Node2</title>
<g id="a_node2"><a xlink:href="nntp_8c.html#a1b2bc10241891f96f165f08e03ef18b4" target="_top" xlink:title="Parse XPAT line.">
<polygon fill="#fff0f0" stroke="red" points="242,-283 160,-283 160,-264 242,-264 242,-283"/>
<text text-anchor="middle" x="201" y="-271" font-family="Helvetica,sans-Serif" font-size="10.00">fetch_children</text>
</a>
</g>
</g>
<!-- Node1&#45;&gt;Node2 -->
<g id="edge1" class="edge">
<title>Node1&#45;&gt;Node2</title>
<path fill="none" stroke="#63b8ff" d="M61.13,-152.23C73.08,-173.96 104.89,-226.77 146,-255.5 147.56,-256.59 149.19,-257.62 150.87,-258.59"/>
<polygon fill="#63b8ff" stroke="#63b8ff" points="149.05,-261.59 159.57,-262.85 152.13,-255.3 149.05,-261.59"/>
</g>
<!-- Node10 -->
<g id="node3" class="node">
<title>Node10</title>
<g id="a_node3"><a xlink:href="hcache_2hcache_8c.html#a791c8437997aca5d8747271ff4c75e98" target="_top" xlink:title="Multiplexor for StoreOps::close.">
<polygon fill="#fff0f0" stroke="red" points="239.5,-246 162.5,-246 162.5,-227 239.5,-227 239.5,-246"/>
<text text-anchor="middle" x="201" y="-234" font-family="Helvetica,sans-Serif" font-size="10.00">hcache_close</text>
</a>
</g>
</g>
<!-- Node1&#45;&gt;Node10 -->
<g id="edge2" class="edge">
<title>Node1&#45;&gt;Node10</title>
<path fill="none" stroke="#63b8ff" d="M65.07,-152.26C80.35,-168.2 112.83,-199.88 146,-218.5 148.33,-219.81 150.76,-221.04 153.26,-222.19"/>
<polygon fill="#63b8ff" stroke="#63b8ff" points="151.77,-225.36 162.35,-225.96 154.45,-218.9 151.77,-225.36"/>
</g>
<!-- Node12 -->
<g id="node4" class="node">
<title>Node12</title>
<g id="a_node4"><a xlink:href="core_2mailbox_8c.html#af09ac36728ca3255523cd3b0bfd1f172" target="_top" xlink:title="Notify observers of a change to a Mailbox.">
<polygon fill="#fff0f0" stroke="red" points="249.5,-209 152.5,-209 152.5,-190 249.5,-190 249.5,-209"/>
<text text-anchor="middle" x="201" y="-197" font-family="Helvetica,sans-Serif" font-size="10.00">mailbox_changed</text>
</a>
</g>
</g>
<!-- Node1&#45;&gt;Node12 -->
<g id="edge3" class="edge">
<title>Node1&#45;&gt;Node12</title>
<path fill="none" stroke="#63b8ff" d="M81.08,-152.43C104.21,-161.58 138.77,-175.26 164.69,-185.52"/>
<polygon fill="#63b8ff" stroke="#63b8ff" points="163.21,-188.7 173.8,-189.13 165.79,-182.19 163.21,-188.7"/>
</g>
<!-- Node17 -->
<g id="node5" class="node">
<title>Node17</title>
<g id="a_node5"><a xlink:href="memory_8c.html#ab856dc3a382ecbde1e18f558b81ff5d9" target="_top" xlink:title="Allocate memory on the heap.">
<polygon fill="#fff0f0" stroke="red" points="536,-133 435,-133 435,-114 536,-114 536,-133"/>
<text text-anchor="middle" x="485.5" y="-121" font-family="Helvetica,sans-Serif" font-size="10.00">mutt_mem_malloc</text>
</a>
</g>
</g>
<!-- Node1&#45;&gt;Node17 -->
<g id="edge4" class="edge">
<title>Node1&#45;&gt;Node17</title>
<path fill="none" stroke="#63b8ff" d="M110.31,-146.61C178.16,-150.79 297.65,-155.06 399,-142.5 411.01,-141.01 423.81,-138.61 435.76,-136.01"/>
<polygon fill="#63b8ff" stroke="#63b8ff" points="436.44,-139.45 445.41,-133.82 434.89,-132.62 436.44,-139.45"/>
</g>
<!-- Node18 -->
<g id="node6" class="node">
<title>Node18</title>
<g id="a_node6"><a xlink:href="mutt_2string_8c.html#a9bf968304f4f9b49e24215cb2e28d22d" target="_top" xlink:title="Check whether a string starts with a prefix.">
<polygon fill="#fff0f0" stroke="red" points="399,-133 292,-133 292,-114 399,-114 399,-133"/>
<text text-anchor="middle" x="345.5" y="-121" font-family="Helvetica,sans-Serif" font-size="10.00">mutt_str_startswith</text>
</a>
</g>
</g>
<!-- Node1&#45;&gt;Node18 -->
<g id="edge5" class="edge">
<title>Node1&#45;&gt;Node18</title>
<path fill="none" stroke="#63b8ff" d="M110.26,-138.93C158.67,-135.74 229.59,-131.07 280.7,-127.7"/>
<polygon fill="#63b8ff" stroke="#63b8ff" points="280.68,-131.21 290.43,-127.06 280.22,-124.23 280.68,-131.21"/>
</g>
<!-- Node20 -->
<g id="node7" class="node">
<title>Node20</title>
<g id="a_node7"><a xlink:href="nntp_8c.html#aee3d5be3d80d56eaa5f16865db0e22c6" target="_top" xlink:title="Fetch headers.">
<polygon fill="#fff0f0" stroke="red" points="256,-95 146,-95 146,-76 256,-76 256,-95"/>
<text text-anchor="middle" x="201" y="-83" font-family="Helvetica,sans-Serif" font-size="10.00">nntp_fetch_headers</text>
</a>
</g>
</g>
<!-- Node1&#45;&gt;Node20 -->
<g id="edge6" class="edge">
<title>Node1&#45;&gt;Node20</title>
<path fill="none" stroke="#63b8ff" d="M81.08,-132.57C104.21,-123.42 138.77,-109.74 164.69,-99.48"/>
<polygon fill="#63b8ff" stroke="#63b8ff" points="165.79,-102.81 173.8,-95.87 163.21,-96.3 165.79,-102.81"/>
</g>
<!-- Node1269 -->
<g id="node8" class="node">
<title>Node1269</title>
<g id="a_node8"><a xlink:href="nntp_8c.html#aac2507d416301d774b449353d2e8af52" target="_top" xlink:title="Read lines, calling a callback function for each.">
<polygon fill="#fff0f0" stroke="red" points="391.5,-95 299.5,-95 299.5,-76 391.5,-76 391.5,-95"/>
<text text-anchor="middle" x="345.5" y="-83" font-family="Helvetica,sans-Serif" font-size="10.00">nntp_fetch_lines</text>
</a>
</g>
</g>
<!-- Node1&#45;&gt;Node1269 -->
<g id="edge10" class="edge">
<title>Node1&#45;&gt;Node1269</title>
<path fill="none" stroke="#63b8ff" d="M63.59,-132.61C77.61,-115.25 109.51,-79.85 146,-66.5 199.2,-47.04 265.48,-60.22 306.39,-72.26"/>
<polygon fill="#63b8ff" stroke="#63b8ff" points="305.19,-75.55 315.78,-75.15 307.25,-68.86 305.19,-75.55"/>
</g>
<!-- Node1295 -->
<g id="node9" class="node">
<title>Node1295</title>
<g id="a_node9"><a xlink:href="newsrc_8c.html#a00132ef57a28e8ec428b6fa298ea63d4" target="_top" xlink:title="Open newsgroup hcache.">
<polygon fill="#fff0f0" stroke="red" points="253,-19 149,-19 149,0 253,0 253,-19"/>
<text text-anchor="middle" x="201" y="-7" font-family="Helvetica,sans-Serif" font-size="10.00">nntp_hcache_open</text>
</a>
</g>
</g>
<!-- Node1&#45;&gt;Node1295 -->
<g id="edge11" class="edge">
<title>Node1&#45;&gt;Node1295</title>
<path fill="none" stroke="#63b8ff" d="M61.81,-132.77C74.63,-112.02 107.3,-62.88 146,-33.5 150.58,-30.02 155.75,-26.92 161.02,-24.19"/>
<polygon fill="#63b8ff" stroke="#63b8ff" points="162.24,-27.48 169.8,-20.05 159.26,-21.15 162.24,-27.48"/>
</g>
<!-- Node20&#45;&gt;Node18 -->
<g id="edge7" class="edge">
<title>Node20&#45;&gt;Node18</title>
<path fill="none" stroke="#63b8ff" d="M239.44,-95.48C256.87,-100.13 277.81,-105.72 296.39,-110.67"/>
<polygon fill="#63b8ff" stroke="#63b8ff" points="295.28,-114 305.85,-113.19 297.09,-107.23 295.28,-114"/>
</g>
<!-- Node20&#45;&gt;Node1269 -->
<g id="edge8" class="edge">
<title>Node20&#45;&gt;Node1269</title>
<path fill="none" stroke="#63b8ff" d="M256.28,-85.5C266.57,-85.5 277.35,-85.5 287.71,-85.5"/>
<polygon fill="#63b8ff" stroke="#63b8ff" points="287.67,-89 297.67,-85.5 287.67,-82 287.67,-89"/>
</g>
<!-- Node1269&#45;&gt;Node17 -->
<g id="edge9" class="edge">
<title>Node1269&#45;&gt;Node17</title>
<path fill="none" stroke="#63b8ff" d="M382.76,-95.48C399.48,-100.09 419.53,-105.61 437.4,-110.53"/>
<polygon fill="#63b8ff" stroke="#63b8ff" points="436.45,-113.9 447.03,-113.18 438.31,-107.15 436.45,-113.9"/>
</g>
</g>
</svg>
