<?xml version="1.0" encoding="UTF-8" standalone="no"?>
<!DOCTYPE svg PUBLIC "-//W3C//DTD SVG 1.1//EN"
 "http://www.w3.org/Graphics/SVG/1.1/DTD/svg11.dtd">
<!-- Generated by graphviz version 7.1.0 (0)
 -->
<!-- Title: nntp_expand_path Pages: 1 -->
<svg width="230pt" height="101pt"
 viewBox="0.00 0.00 230.00 101.00" xmlns="http://www.w3.org/2000/svg" xmlns:xlink="http://www.w3.org/1999/xlink">
<g id="graph0" class="graph" transform="scale(1 1) rotate(0) translate(4 97)">
<title>nntp_expand_path</title>
<!-- Node1 -->
<g id="node1" class="node">
<title>Node1</title>
<g id="a_node1"><a xlink:title="Make fully qualified url from newsgroup name.">
<polygon fill="#999999" stroke="#666666" points="102,-56 0,-56 0,-37 102,-37 102,-56"/>
<text text-anchor="middle" x="51" y="-44" font-family="Helvetica,sans-Serif" font-size="10.00">nntp_expand_path</text>
</a>
</g>
</g>
<!-- Node2 -->
<g id="node2" class="node">
<title>Node2</title>
<g id="a_node2"><a xlink:href="mutt__account_8c.html#aab5936a62e77123420e4c515904567f3" target="_top" xlink:title="Fill URL with info from account.">
<polygon fill="white" stroke="#666666" points="222,-93 138,-93 138,-74 222,-74 222,-93"/>
<text text-anchor="middle" x="180" y="-81" font-family="Helvetica,sans-Serif" font-size="10.00">account_to_url</text>
</a>
</g>
</g>
<!-- Node1&#45;&gt;Node2 -->
<g id="edge1" class="edge">
<title>Node1&#45;&gt;Node2</title>
<path fill="none" stroke="#63b8ff" d="M86.03,-56.42C100.84,-60.73 118.39,-65.84 134.23,-70.46"/>
<polygon fill="#63b8ff" stroke="#63b8ff" points="132.84,-73.7 143.42,-73.13 134.8,-66.98 132.84,-73.7"/>
</g>
<!-- Node3 -->
<g id="node3" class="node">
<title>Node3</title>
<g id="a_node3"><a xlink:href="mutt_2string_8c.html#a3fe33d90e4814281cd57de048119c950" target="_top" xlink:title="Copy a string, safely.">
<polygon fill="#fff0f0" stroke="red" points="219.5,-56 140.5,-56 140.5,-37 219.5,-37 219.5,-56"/>
<text text-anchor="middle" x="180" y="-44" font-family="Helvetica,sans-Serif" font-size="10.00">mutt_str_dup</text>
</a>
</g>
</g>
<!-- Node1&#45;&gt;Node3 -->
<g id="edge2" class="edge">
<title>Node1&#45;&gt;Node3</title>
<path fill="none" stroke="#63b8ff" d="M102.19,-46.5C110.97,-46.5 120.1,-46.5 128.87,-46.5"/>
<polygon fill="#63b8ff" stroke="#63b8ff" points="128.62,-50 138.62,-46.5 128.62,-43 128.62,-50"/>
</g>
<!-- Node5 -->
<g id="node4" class="node">
<title>Node5</title>
<g id="a_node4"><a xlink:href="url_8c.html#aa114f683b940e0773ca758b49a18a2a7" target="_top" xlink:title="Output the URL string for a given Url object.">
<polygon fill="#fff0f0" stroke="red" points="215.5,-19 144.5,-19 144.5,0 215.5,0 215.5,-19"/>
<text text-anchor="middle" x="180" y="-7" font-family="Helvetica,sans-Serif" font-size="10.00">url_tostring</text>
</a>
</g>
</g>
<!-- Node1&#45;&gt;Node5 -->
<g id="edge3" class="edge">
<title>Node1&#45;&gt;Node5</title>
<path fill="none" stroke="#63b8ff" d="M86.03,-36.58C100.84,-32.27 118.39,-27.16 134.23,-22.54"/>
<polygon fill="#63b8ff" stroke="#63b8ff" points="134.8,-26.02 143.42,-19.87 132.84,-19.3 134.8,-26.02"/>
</g>
</g>
</svg>
