<?xml version="1.0" encoding="UTF-8" standalone="no"?>
<!DOCTYPE svg PUBLIC "-//W3C//DTD SVG 1.1//EN"
 "http://www.w3.org/Graphics/SVG/1.1/DTD/svg11.dtd">
<!-- Generated by graphviz version 7.1.0 (0)
 -->
<!-- Title: nntp/adata.h Pages: 1 -->
<svg width="1217pt" height="82pt"
 viewBox="0.00 0.00 1217.00 82.00" xmlns="http://www.w3.org/2000/svg" xmlns:xlink="http://www.w3.org/1999/xlink">
<g id="graph0" class="graph" transform="scale(1 1) rotate(0) translate(4 78)">
<title>nntp/adata.h</title>
<!-- Node1 -->
<g id="node1" class="node">
<title>Node1</title>
<g id="a_node1"><a xlink:title="Nntp&#45;specific Account data.">
<polygon fill="#999999" stroke="#666666" points="689,-74 612,-74 612,-55 689,-55 689,-74"/>
<text text-anchor="middle" x="650.5" y="-62" font-family="Helvetica,sans-Serif" font-size="10.00">nntp/adata.h</text>
</a>
</g>
</g>
<!-- Node2 -->
<g id="node2" class="node">
<title>Node2</title>
<g id="a_node2"><a xlink:href="dlg__browser_8c.html" target="_top" xlink:title="File/Mailbox Browser Dialog.">
<polygon fill="white" stroke="#666666" points="121,-19 0,-19 0,0 121,0 121,-19"/>
<text text-anchor="middle" x="60.5" y="-7" font-family="Helvetica,sans-Serif" font-size="10.00">browser/dlg_browser.c</text>
</a>
</g>
</g>
<!-- Node1&#45;&gt;Node2 -->
<g id="edge1" class="edge">
<title>Node1&#45;&gt;Node2</title>
<path fill="none" stroke="#63b8ff" d="M600.26,-59.84C507.26,-52.92 302.03,-36.99 129.5,-19 126.86,-18.72 124.16,-18.43 121.44,-18.13"/>
<polygon fill="#63b8ff" stroke="#63b8ff" points="599.82,-63.31 610.06,-60.56 600.34,-56.33 599.82,-63.31"/>
</g>
<!-- Node3 -->
<g id="node3" class="node">
<title>Node3</title>
<g id="a_node3"><a xlink:href="browser_2functions_8c.html" target="_top" xlink:title="Browser functions.">
<polygon fill="white" stroke="#666666" points="248,-19 139,-19 139,0 248,0 248,-19"/>
<text text-anchor="middle" x="193.5" y="-7" font-family="Helvetica,sans-Serif" font-size="10.00">browser/functions.c</text>
</a>
</g>
</g>
<!-- Node1&#45;&gt;Node3 -->
<g id="edge2" class="edge">
<title>Node1&#45;&gt;Node3</title>
<path fill="none" stroke="#63b8ff" d="M600.19,-58.17C525.25,-50.15 379.87,-34.29 256.5,-19 253.87,-18.67 251.18,-18.33 248.47,-17.99"/>
<polygon fill="#63b8ff" stroke="#63b8ff" points="599.78,-61.65 610.1,-59.23 600.52,-54.69 599.78,-61.65"/>
</g>
<!-- Node4 -->
<g id="node4" class="node">
<title>Node4</title>
<g id="a_node4"><a xlink:href="compose_2functions_8c.html" target="_top" xlink:title="Compose functions.">
<polygon fill="white" stroke="#666666" points="379,-19 266,-19 266,0 379,0 379,-19"/>
<text text-anchor="middle" x="322.5" y="-7" font-family="Helvetica,sans-Serif" font-size="10.00">compose/functions.c</text>
</a>
</g>
</g>
<!-- Node1&#45;&gt;Node4 -->
<g id="edge3" class="edge">
<title>Node1&#45;&gt;Node4</title>
<path fill="none" stroke="#63b8ff" d="M600.52,-55.42C540.56,-45.74 440.37,-29.55 378.04,-19.48"/>
<polygon fill="#63b8ff" stroke="#63b8ff" points="599.66,-58.83 610.09,-56.97 600.78,-51.92 599.66,-58.83"/>
</g>
<!-- Node5 -->
<g id="node5" class="node">
<title>Node5</title>
<g id="a_node5"><a xlink:href="graphviz_8c.html" target="_top" xlink:title="Create a GraphViz dot file from the NeoMutt objects.">
<polygon fill="white" stroke="#666666" points="494,-19 397,-19 397,0 494,0 494,-19"/>
<text text-anchor="middle" x="445.5" y="-7" font-family="Helvetica,sans-Serif" font-size="10.00">debug/graphviz.c</text>
</a>
</g>
</g>
<!-- Node1&#45;&gt;Node5 -->
<g id="edge4" class="edge">
<title>Node1&#45;&gt;Node5</title>
<path fill="none" stroke="#63b8ff" d="M605.03,-51.74C567.3,-41.99 514.46,-28.33 480.1,-19.45"/>
<polygon fill="#63b8ff" stroke="#63b8ff" points="603.7,-55.02 614.26,-54.13 605.45,-48.24 603.7,-55.02"/>
</g>
<!-- Node6 -->
<g id="node6" class="node">
<title>Node6</title>
<g id="a_node6"><a xlink:href="dlg__index_8c.html" target="_top" xlink:title="Index Dialog.">
<polygon fill="white" stroke="#666666" points="608.5,-19 512.5,-19 512.5,0 608.5,0 608.5,-19"/>
<text text-anchor="middle" x="560.5" y="-7" font-family="Helvetica,sans-Serif" font-size="10.00">index/dlg_index.c</text>
</a>
</g>
</g>
<!-- Node1&#45;&gt;Node6 -->
<g id="edge5" class="edge">
<title>Node1&#45;&gt;Node6</title>
<path fill="none" stroke="#63b8ff" d="M625.42,-48.73C609.39,-39.29 589.13,-27.36 575.54,-19.36"/>
<polygon fill="#63b8ff" stroke="#63b8ff" points="623.54,-51.68 633.93,-53.74 627.09,-45.65 623.54,-51.68"/>
</g>
<!-- Node7 -->
<g id="node7" class="node">
<title>Node7</title>
<g id="a_node7"><a xlink:href="main_8c.html" target="_top" xlink:title="Command line processing.">
<polygon fill="white" stroke="#666666" points="674,-19 627,-19 627,0 674,0 674,-19"/>
<text text-anchor="middle" x="650.5" y="-7" font-family="Helvetica,sans-Serif" font-size="10.00">main.c</text>
</a>
</g>
</g>
<!-- Node1&#45;&gt;Node7 -->
<g id="edge6" class="edge">
<title>Node1&#45;&gt;Node7</title>
<path fill="none" stroke="#63b8ff" d="M650.5,-43.35C650.5,-35.1 650.5,-25.97 650.5,-19.44"/>
<polygon fill="#63b8ff" stroke="#63b8ff" points="647,-43.23 650.5,-53.23 654,-43.23 647,-43.23"/>
</g>
<!-- Node8 -->
<g id="node8" class="node">
<title>Node8</title>
<g id="a_node8"><a xlink:href="nntp_2adata_8c.html" target="_top" xlink:title="Nntp&#45;specific Account data.">
<polygon fill="white" stroke="#666666" points="767,-19 692,-19 692,0 767,0 767,-19"/>
<text text-anchor="middle" x="729.5" y="-7" font-family="Helvetica,sans-Serif" font-size="10.00">nntp/adata.c</text>
</a>
</g>
</g>
<!-- Node1&#45;&gt;Node8 -->
<g id="edge7" class="edge">
<title>Node1&#45;&gt;Node8</title>
<path fill="none" stroke="#63b8ff" d="M673.32,-48.19C687.26,-38.84 704.6,-27.21 716.3,-19.36"/>
<polygon fill="#63b8ff" stroke="#63b8ff" points="671.51,-45.19 665.16,-53.67 675.41,-51 671.51,-45.19"/>
</g>
<!-- Node9 -->
<g id="node9" class="node">
<title>Node9</title>
<g id="a_node9"><a xlink:href="nntp_2complete_8c.html" target="_top" xlink:title="Auto&#45;complete NNTP newsgroups.">
<polygon fill="white" stroke="#666666" points="878,-19 785,-19 785,0 878,0 878,-19"/>
<text text-anchor="middle" x="831.5" y="-7" font-family="Helvetica,sans-Serif" font-size="10.00">nntp/complete.c</text>
</a>
</g>
</g>
<!-- Node1&#45;&gt;Node9 -->
<g id="edge8" class="edge">
<title>Node1&#45;&gt;Node9</title>
<path fill="none" stroke="#63b8ff" d="M691.94,-51.36C725.16,-41.64 771.01,-28.21 800.95,-19.45"/>
<polygon fill="#63b8ff" stroke="#63b8ff" points="691.27,-47.91 682.66,-54.08 693.24,-54.63 691.27,-47.91"/>
</g>
<!-- Node10 -->
<g id="node10" class="node">
<title>Node10</title>
<g id="a_node10"><a xlink:href="expando__newsrc_8c.html" target="_top" xlink:title="Browse NNTP groups.">
<polygon fill="white" stroke="#666666" points="1021,-19 896,-19 896,0 1021,0 1021,-19"/>
<text text-anchor="middle" x="958.5" y="-7" font-family="Helvetica,sans-Serif" font-size="10.00">nntp/expando_newsrc.c</text>
</a>
</g>
</g>
<!-- Node1&#45;&gt;Node10 -->
<g id="edge9" class="edge">
<title>Node1&#45;&gt;Node10</title>
<path fill="none" stroke="#63b8ff" d="M700.37,-54.92C756.95,-45.18 848.82,-29.37 906.34,-19.48"/>
<polygon fill="#63b8ff" stroke="#63b8ff" points="699.95,-51.44 690.69,-56.58 701.14,-58.34 699.95,-51.44"/>
</g>
<!-- Node11 -->
<g id="node11" class="node">
<title>Node11</title>
<g id="a_node11"><a xlink:href="newsrc_8c.html" target="_top" xlink:title="Read/parse/write an NNTP config file of subscribed newsgroups.">
<polygon fill="white" stroke="#666666" points="1120,-19 1039,-19 1039,0 1120,0 1120,-19"/>
<text text-anchor="middle" x="1079.5" y="-7" font-family="Helvetica,sans-Serif" font-size="10.00">nntp/newsrc.c</text>
</a>
</g>
</g>
<!-- Node1&#45;&gt;Node11 -->
<g id="edge10" class="edge">
<title>Node1&#45;&gt;Node11</title>
<path fill="none" stroke="#63b8ff" d="M700.53,-58.53C773.31,-51.1 912.57,-36.12 1030.5,-19 1033.15,-18.62 1035.87,-18.2 1038.62,-17.77"/>
<polygon fill="#63b8ff" stroke="#63b8ff" points="700.53,-55.01 690.94,-59.5 701.24,-61.98 700.53,-55.01"/>
</g>
<!-- Node12 -->
<g id="node12" class="node">
<title>Node12</title>
<g id="a_node12"><a xlink:href="nntp_8c.html" target="_top" xlink:title="Usenet network mailbox type; talk to an NNTP server.">
<polygon fill="white" stroke="#666666" points="1209,-19 1138,-19 1138,0 1209,0 1209,-19"/>
<text text-anchor="middle" x="1173.5" y="-7" font-family="Helvetica,sans-Serif" font-size="10.00">nntp/nntp.c</text>
</a>
</g>
</g>
<!-- Node1&#45;&gt;Node12 -->
<g id="edge11" class="edge">
<title>Node1&#45;&gt;Node12</title>
<path fill="none" stroke="#63b8ff" d="M700.89,-60.45C788.39,-54.8 973.98,-41.19 1129.5,-19 1132.12,-18.63 1134.82,-18.2 1137.53,-17.75"/>
<polygon fill="#63b8ff" stroke="#63b8ff" points="700.72,-56.96 690.97,-61.09 701.17,-63.94 700.72,-56.96"/>
</g>
</g>
</svg>
