<?xml version="1.0" encoding="UTF-8" standalone="no"?>
<!DOCTYPE svg PUBLIC "-//W3C//DTD SVG 1.1//EN"
 "http://www.w3.org/Graphics/SVG/1.1/DTD/svg11.dtd">
<!-- Generated by graphviz version 2.44.0 (0)
 -->
<!-- Title: nntp/edata.h Pages: 1 -->
<svg width="259pt" height="84pt"
 viewBox="0.00 0.00 259.00 84.00" xmlns="http://www.w3.org/2000/svg" xmlns:xlink="http://www.w3.org/1999/xlink">
<g id="graph0" class="graph" transform="scale(1 1) rotate(0) translate(4 80)">
<title>nntp/edata.h</title>
<polygon fill="white" stroke="transparent" points="-4,4 -4,-80 255,-80 255,4 -4,4"/>
<!-- Node1 -->
<g id="node1" class="node">
<title>Node1</title>
<g id="a_node1"><a xlink:title=" ">
<polygon fill="#bfbfbf" stroke="black" points="93,-56.5 93,-75.5 164,-75.5 164,-56.5 93,-56.5"/>
<text text-anchor="middle" x="128.5" y="-63.5" font-family="Helvetica" font-size="10.00">nntp/edata.h</text>
</a>
</g>
</g>
<!-- Node2 -->
<g id="node2" class="node">
<title>Node2</title>
<g id="a_node2"><a xlink:href="nntp_2edata_8c.html" target="_top" xlink:title=" ">
<polygon fill="white" stroke="black" points="0,-0.5 0,-19.5 71,-19.5 71,-0.5 0,-0.5"/>
<text text-anchor="middle" x="35.5" y="-7.5" font-family="Helvetica" font-size="10.00">nntp/edata.c</text>
</a>
</g>
</g>
<!-- Node1&#45;&gt;Node2 -->
<g id="edge1" class="edge">
<title>Node1&#45;&gt;Node2</title>
<path fill="none" stroke="midnightblue" d="M104.69,-51.18C87.58,-41.24 65.03,-28.15 50.4,-19.65"/>
<polygon fill="midnightblue" stroke="midnightblue" points="103.15,-54.33 113.56,-56.32 106.67,-48.28 103.15,-54.33"/>
</g>
<!-- Node3 -->
<g id="node3" class="node">
<title>Node3</title>
<g id="a_node3"><a xlink:href="newsrc_8c.html" target="_top" xlink:title=" ">
<polygon fill="white" stroke="black" points="89.5,-0.5 89.5,-19.5 167.5,-19.5 167.5,-0.5 89.5,-0.5"/>
<text text-anchor="middle" x="128.5" y="-7.5" font-family="Helvetica" font-size="10.00">nntp/newsrc.c</text>
</a>
</g>
</g>
<!-- Node1&#45;&gt;Node3 -->
<g id="edge2" class="edge">
<title>Node1&#45;&gt;Node3</title>
<path fill="none" stroke="midnightblue" d="M128.5,-45.8C128.5,-36.91 128.5,-26.78 128.5,-19.75"/>
<polygon fill="midnightblue" stroke="midnightblue" points="125,-46.08 128.5,-56.08 132,-46.08 125,-46.08"/>
</g>
<!-- Node4 -->
<g id="node4" class="node">
<title>Node4</title>
<g id="a_node4"><a xlink:href="nntp_8c.html" target="_top" xlink:title=" ">
<polygon fill="white" stroke="black" points="186,-0.5 186,-19.5 251,-19.5 251,-0.5 186,-0.5"/>
<text text-anchor="middle" x="218.5" y="-7.5" font-family="Helvetica" font-size="10.00">nntp/nntp.c</text>
</a>
</g>
</g>
<!-- Node1&#45;&gt;Node4 -->
<g id="edge3" class="edge">
<title>Node1&#45;&gt;Node4</title>
<path fill="none" stroke="midnightblue" d="M151.54,-51.18C168.1,-41.24 189.92,-28.15 204.08,-19.65"/>
<polygon fill="midnightblue" stroke="midnightblue" points="149.73,-48.18 142.96,-56.32 153.34,-54.18 149.73,-48.18"/>
</g>
</g>
</svg>
