<?xml version="1.0" encoding="UTF-8" standalone="no"?>
<!DOCTYPE svg PUBLIC "-//W3C//DTD SVG 1.1//EN"
 "http://www.w3.org/Graphics/SVG/1.1/DTD/svg11.dtd">
<!-- Generated by graphviz version 2.44.0 (0)
 -->
<!-- Title: nntp_open_connection Pages: 1 -->
<svg width="436pt" height="446pt"
 viewBox="0.00 0.00 436.00 446.00" xmlns="http://www.w3.org/2000/svg" xmlns:xlink="http://www.w3.org/1999/xlink">
<g id="graph0" class="graph" transform="scale(1 1) rotate(0) translate(4 442)">
<title>nntp_open_connection</title>
<polygon fill="white" stroke="transparent" points="-4,4 -4,-442 432,-442 432,4 -4,4"/>
<!-- Node1 -->
<g id="node1" class="node">
<title>Node1</title>
<g id="a_node1"><a xlink:title="Connect to server, authenticate and get capabilities.">
<polygon fill="#bfbfbf" stroke="black" points="0,-209.5 0,-228.5 114,-228.5 114,-209.5 0,-209.5"/>
<text text-anchor="middle" x="57" y="-216.5" font-family="Helvetica" font-size="10.00">nntp_open_connection</text>
</a>
</g>
</g>
<!-- Node2 -->
<g id="node2" class="node">
<title>Node2</title>
<g id="a_node2"><a xlink:href="muttlib_8c.html#a6fbcbe533be7c4e05d99b0eb9cdb2581" target="_top" xlink:title="Sleep for a while.">
<polygon fill="white" stroke="black" points="188,-418.5 188,-437.5 253,-437.5 253,-418.5 188,-418.5"/>
<text text-anchor="middle" x="220.5" y="-425.5" font-family="Helvetica" font-size="10.00">mutt_sleep</text>
</a>
</g>
</g>
<!-- Node1&#45;&gt;Node2 -->
<g id="edge1" class="edge">
<title>Node1&#45;&gt;Node2</title>
<path fill="none" stroke="midnightblue" d="M60.06,-228.64C67.03,-258.99 92.6,-353.57 150,-404 157.91,-410.95 167.94,-415.91 177.9,-419.45"/>
<polygon fill="midnightblue" stroke="midnightblue" points="177.17,-422.89 187.76,-422.53 179.26,-416.21 177.17,-422.89"/>
</g>
<!-- Node3 -->
<g id="node3" class="node">
<title>Node3</title>
<g id="a_node3"><a xlink:href="socket_8c.html#a432eed609a221c68f457302d6e40c383" target="_top" xlink:title="Close a socket.">
<polygon fill="white" stroke="black" points="328.5,-342.5 328.5,-361.5 426.5,-361.5 426.5,-342.5 328.5,-342.5"/>
<text text-anchor="middle" x="377.5" y="-349.5" font-family="Helvetica" font-size="10.00">mutt_socket_close</text>
</a>
</g>
</g>
<!-- Node1&#45;&gt;Node3 -->
<g id="edge2" class="edge">
<title>Node1&#45;&gt;Node3</title>
<path fill="none" stroke="midnightblue" d="M60.38,-228.88C67.81,-257.29 93.57,-339.19 150,-371 211.97,-405.93 298.98,-382.24 345.03,-365.17"/>
<polygon fill="midnightblue" stroke="midnightblue" points="346.4,-368.4 354.49,-361.55 343.89,-361.86 346.4,-368.4"/>
</g>
<!-- Node4 -->
<g id="node4" class="node">
<title>Node4</title>
<g id="a_node4"><a xlink:href="socket_8c.html#a90c5b50a98f0f9a0b73b82e90c096aba" target="_top" xlink:title="Clear out any queued data.">
<polygon fill="white" stroke="red" points="169.5,-152.5 169.5,-171.5 271.5,-171.5 271.5,-152.5 169.5,-152.5"/>
<text text-anchor="middle" x="220.5" y="-159.5" font-family="Helvetica" font-size="10.00">mutt_socket_empty</text>
</a>
</g>
</g>
<!-- Node1&#45;&gt;Node4 -->
<g id="edge3" class="edge">
<title>Node1&#45;&gt;Node4</title>
<path fill="none" stroke="midnightblue" d="M84.54,-209.39C102.9,-202.76 127.91,-193.77 150,-186 160.4,-182.34 171.7,-178.42 182.1,-174.82"/>
<polygon fill="midnightblue" stroke="midnightblue" points="183.43,-178.07 191.74,-171.5 181.15,-171.45 183.43,-178.07"/>
</g>
<!-- Node7 -->
<g id="node5" class="node">
<title>Node7</title>
<g id="a_node5"><a xlink:href="socket_8c.html#ada78f2615db2775bb7ccd042e6df2774" target="_top" xlink:title="Simple wrapper.">
<polygon fill="white" stroke="red" points="172.5,-114.5 172.5,-133.5 268.5,-133.5 268.5,-114.5 172.5,-114.5"/>
<text text-anchor="middle" x="220.5" y="-121.5" font-family="Helvetica" font-size="10.00">mutt_socket_open</text>
</a>
</g>
</g>
<!-- Node1&#45;&gt;Node7 -->
<g id="edge4" class="edge">
<title>Node1&#45;&gt;Node7</title>
<path fill="none" stroke="midnightblue" d="M66.95,-209.3C82.37,-193.17 115.61,-160.84 150,-143 154.35,-140.74 159,-138.73 163.75,-136.94"/>
<polygon fill="midnightblue" stroke="midnightblue" points="165.26,-140.13 173.59,-133.58 162.99,-133.5 165.26,-140.13"/>
</g>
<!-- Node280 -->
<g id="node6" class="node">
<title>Node280</title>
<g id="a_node6"><a xlink:href="gnutls_8c.html#a23591e82bf992ceb5e62c459fd787b8a" target="_top" xlink:title="Negotiate TLS over an already opened connection.">
<polygon fill="white" stroke="black" points="175.5,-76.5 175.5,-95.5 265.5,-95.5 265.5,-76.5 175.5,-76.5"/>
<text text-anchor="middle" x="220.5" y="-83.5" font-family="Helvetica" font-size="10.00">mutt_ssl_starttls</text>
</a>
</g>
</g>
<!-- Node1&#45;&gt;Node280 -->
<g id="edge5" class="edge">
<title>Node1&#45;&gt;Node280</title>
<path fill="none" stroke="midnightblue" d="M62.99,-209.35C74.9,-187.3 107.22,-132.99 150,-105 154.9,-101.8 160.32,-99.13 165.92,-96.91"/>
<polygon fill="midnightblue" stroke="midnightblue" points="167.16,-100.19 175.45,-93.58 164.85,-93.58 167.16,-100.19"/>
</g>
<!-- Node217 -->
<g id="node7" class="node">
<title>Node217</title>
<g id="a_node7"><a xlink:href="mutt_2string_8c.html#a1d343dcbce0482f8979fe2a298913225" target="_top" xlink:title="Trim trailing whitespace from a string.">
<polygon fill="white" stroke="red" points="150,-38.5 150,-57.5 291,-57.5 291,-38.5 150,-38.5"/>
<text text-anchor="middle" x="220.5" y="-45.5" font-family="Helvetica" font-size="10.00">mutt_str_remove_trailing_ws</text>
</a>
</g>
</g>
<!-- Node1&#45;&gt;Node217 -->
<g id="edge6" class="edge">
<title>Node1&#45;&gt;Node217</title>
<path fill="none" stroke="midnightblue" d="M60.96,-209.44C69.79,-182.57 98.55,-105.85 150,-67 152.51,-65.1 155.21,-63.39 158.02,-61.85"/>
<polygon fill="midnightblue" stroke="midnightblue" points="159.75,-64.91 167.33,-57.5 156.79,-58.57 159.75,-64.91"/>
</g>
<!-- Node265 -->
<g id="node8" class="node">
<title>Node265</title>
<g id="a_node8"><a xlink:href="mutt_2string_8c.html#a9bf968304f4f9b49e24215cb2e28d22d" target="_top" xlink:title="Check whether a string starts with a prefix.">
<polygon fill="white" stroke="red" points="327,-285.5 327,-304.5 428,-304.5 428,-285.5 327,-285.5"/>
<text text-anchor="middle" x="377.5" y="-292.5" font-family="Helvetica" font-size="10.00">mutt_str_startswith</text>
</a>
</g>
</g>
<!-- Node1&#45;&gt;Node265 -->
<g id="edge7" class="edge">
<title>Node1&#45;&gt;Node265</title>
<path fill="none" stroke="midnightblue" d="M77.64,-228.63C95.96,-237.25 124.25,-249.62 150,-257 205.41,-272.87 270.47,-282.94 316.61,-288.69"/>
<polygon fill="midnightblue" stroke="midnightblue" points="316.39,-292.19 326.74,-289.92 317.24,-285.24 316.39,-292.19"/>
</g>
<!-- Node1993 -->
<g id="node9" class="node">
<title>Node1993</title>
<g id="a_node9"><a xlink:href="nntp_8c.html#acfb626f8ed9a2b7f351519882f254cbb" target="_top" xlink:title="Detect supported commands.">
<polygon fill="white" stroke="red" points="163.5,-228.5 163.5,-247.5 277.5,-247.5 277.5,-228.5 163.5,-228.5"/>
<text text-anchor="middle" x="220.5" y="-235.5" font-family="Helvetica" font-size="10.00">nntp_attempt_features</text>
</a>
</g>
</g>
<!-- Node1&#45;&gt;Node1993 -->
<g id="edge8" class="edge">
<title>Node1&#45;&gt;Node1993</title>
<path fill="none" stroke="midnightblue" d="M114.03,-225.59C126.61,-227.07 140.08,-228.66 153.04,-230.18"/>
<polygon fill="midnightblue" stroke="midnightblue" points="152.95,-233.7 163.29,-231.39 153.77,-226.74 152.95,-233.7"/>
</g>
<!-- Node1109 -->
<g id="node10" class="node">
<title>Node1109</title>
<g id="a_node10"><a xlink:href="nntp_8c.html#a8247b21cffda7c4fa36e797820253e33" target="_top" xlink:title="Signal a failed connection.">
<polygon fill="white" stroke="black" points="327.5,-228.5 327.5,-247.5 427.5,-247.5 427.5,-228.5 327.5,-228.5"/>
<text text-anchor="middle" x="377.5" y="-235.5" font-family="Helvetica" font-size="10.00">nntp_connect_error</text>
</a>
</g>
</g>
<!-- Node1&#45;&gt;Node1109 -->
<g id="edge18" class="edge">
<title>Node1&#45;&gt;Node1109</title>
<path fill="none" stroke="midnightblue" d="M114.21,-215.57C161.52,-213.51 230.89,-212.4 291,-219 304.49,-220.48 318.97,-223.24 332.1,-226.2"/>
<polygon fill="midnightblue" stroke="midnightblue" points="331.31,-229.61 341.85,-228.49 332.91,-222.8 331.31,-229.61"/>
</g>
<!-- Node1994 -->
<g id="node11" class="node">
<title>Node1994</title>
<g id="a_node11"><a xlink:href="nntp_8c.html#a1c9cc18654661195df4df904c2918625" target="_top" xlink:title="Get login, password and authenticate.">
<polygon fill="white" stroke="red" points="191,-342.5 191,-361.5 250,-361.5 250,-342.5 191,-342.5"/>
<text text-anchor="middle" x="220.5" y="-349.5" font-family="Helvetica" font-size="10.00">nntp_auth</text>
</a>
</g>
</g>
<!-- Node1&#45;&gt;Node1994 -->
<g id="edge11" class="edge">
<title>Node1&#45;&gt;Node1994</title>
<path fill="none" stroke="midnightblue" d="M62.99,-228.65C74.9,-250.7 107.22,-305.01 150,-333 159.2,-339.02 170.28,-343.15 180.86,-345.97"/>
<polygon fill="midnightblue" stroke="midnightblue" points="180.24,-349.42 190.77,-348.3 181.84,-342.6 180.24,-349.42"/>
</g>
<!-- Node1997 -->
<g id="node12" class="node">
<title>Node1997</title>
<g id="a_node12"><a xlink:href="nntp_8c.html#a5a3c5628bd86b68f2d4b3a1cc21f2cd9" target="_top" xlink:title="Get capabilities.">
<polygon fill="white" stroke="red" points="176,-304.5 176,-323.5 265,-323.5 265,-304.5 176,-304.5"/>
<text text-anchor="middle" x="220.5" y="-311.5" font-family="Helvetica" font-size="10.00">nntp_capabilities</text>
</a>
</g>
</g>
<!-- Node1&#45;&gt;Node1997 -->
<g id="edge14" class="edge">
<title>Node1&#45;&gt;Node1997</title>
<path fill="none" stroke="midnightblue" d="M67.99,-228.51C84.1,-243.4 117.33,-272.37 150,-290 157.84,-294.23 166.56,-297.93 175.11,-301.09"/>
<polygon fill="midnightblue" stroke="midnightblue" points="174.03,-304.42 184.63,-304.41 176.34,-297.81 174.03,-304.42"/>
</g>
<!-- Node281 -->
<g id="node13" class="node">
<title>Node281</title>
<g id="a_node13"><a xlink:href="curs__lib_8c.html#ab02047769214ff014b9a8a1782babadc" target="_top" xlink:title="Ask the user a quad&#45;question.">
<polygon fill="white" stroke="red" points="173.5,-0.5 173.5,-19.5 267.5,-19.5 267.5,-0.5 173.5,-0.5"/>
<text text-anchor="middle" x="220.5" y="-7.5" font-family="Helvetica" font-size="10.00">query_quadoption</text>
</a>
</g>
</g>
<!-- Node1&#45;&gt;Node281 -->
<g id="edge19" class="edge">
<title>Node1&#45;&gt;Node281</title>
<path fill="none" stroke="midnightblue" d="M59.75,-209.38C65.92,-178.22 89.68,-79.13 150,-29 154.21,-25.5 159.01,-22.65 164.08,-20.31"/>
<polygon fill="midnightblue" stroke="midnightblue" points="165.38,-23.56 173.41,-16.65 162.82,-17.04 165.38,-23.56"/>
</g>
<!-- Node1993&#45;&gt;Node265 -->
<g id="edge9" class="edge">
<title>Node1993&#45;&gt;Node265</title>
<path fill="none" stroke="midnightblue" d="M249.99,-247.58C262.59,-251.88 277.57,-257.09 291,-262 308.2,-268.29 327.22,-275.59 342.94,-281.73"/>
<polygon fill="midnightblue" stroke="midnightblue" points="341.68,-284.99 352.26,-285.38 344.23,-278.47 341.68,-284.99"/>
</g>
<!-- Node1993&#45;&gt;Node1109 -->
<g id="edge10" class="edge">
<title>Node1993&#45;&gt;Node1109</title>
<path fill="none" stroke="midnightblue" d="M277.9,-238C290.67,-238 304.27,-238 317.16,-238"/>
<polygon fill="midnightblue" stroke="midnightblue" points="317.31,-241.5 327.31,-238 317.31,-234.5 317.31,-241.5"/>
</g>
<!-- Node1994&#45;&gt;Node3 -->
<g id="edge12" class="edge">
<title>Node1994&#45;&gt;Node3</title>
<path fill="none" stroke="midnightblue" d="M250.29,-352C269.36,-352 295.04,-352 318.25,-352"/>
<polygon fill="midnightblue" stroke="midnightblue" points="318.37,-355.5 328.37,-352 318.37,-348.5 318.37,-355.5"/>
</g>
<!-- Node1994&#45;&gt;Node265 -->
<g id="edge13" class="edge">
<title>Node1994&#45;&gt;Node265</title>
<path fill="none" stroke="midnightblue" d="M250.21,-345.19C262.85,-341.93 277.8,-337.71 291,-333 310.44,-326.07 331.65,-316.66 348.08,-308.93"/>
<polygon fill="midnightblue" stroke="midnightblue" points="349.62,-312.07 357.15,-304.61 346.61,-305.75 349.62,-312.07"/>
</g>
<!-- Node1997&#45;&gt;Node3 -->
<g id="edge15" class="edge">
<title>Node1997&#45;&gt;Node3</title>
<path fill="none" stroke="midnightblue" d="M260.61,-323.59C280.97,-328.58 306.07,-334.73 327.69,-340.03"/>
<polygon fill="midnightblue" stroke="midnightblue" points="327.12,-343.5 337.67,-342.48 328.79,-336.7 327.12,-343.5"/>
</g>
<!-- Node1997&#45;&gt;Node265 -->
<g id="edge16" class="edge">
<title>Node1997&#45;&gt;Node265</title>
<path fill="none" stroke="midnightblue" d="M265.09,-308.66C281.18,-306.68 299.7,-304.41 316.97,-302.3"/>
<polygon fill="midnightblue" stroke="midnightblue" points="317.46,-305.76 326.96,-301.07 316.61,-298.82 317.46,-305.76"/>
</g>
<!-- Node1997&#45;&gt;Node1109 -->
<g id="edge17" class="edge">
<title>Node1997&#45;&gt;Node1109</title>
<path fill="none" stroke="midnightblue" d="M241.13,-304.37C268.15,-291.13 316.97,-267.19 348.01,-251.97"/>
<polygon fill="midnightblue" stroke="midnightblue" points="349.59,-255.09 357.03,-247.55 346.51,-248.81 349.59,-255.09"/>
</g>
</g>
</svg>
