<?xml version="1.0" encoding="UTF-8" standalone="no"?>
<!DOCTYPE svg PUBLIC "-//W3C//DTD SVG 1.1//EN"
 "http://www.w3.org/Graphics/SVG/1.1/DTD/svg11.dtd">
<!-- Generated by graphviz version 2.40.1 (20161225.0304)
 -->
<!-- Title: nntp_complete Pages: 1 -->
<svg width="229pt" height="104pt"
 viewBox="0.00 0.00 229.00 104.00" xmlns="http://www.w3.org/2000/svg" xmlns:xlink="http://www.w3.org/1999/xlink">
<g id="graph0" class="graph" transform="scale(1 1) rotate(0) translate(4 100)">
<title>nntp_complete</title>
<polygon fill="#ffffff" stroke="transparent" points="-4,4 -4,-100 225,-100 225,4 -4,4"/>
<!-- Node0 -->
<g id="node1" class="node">
<title>Node0</title>
<polygon fill="#bfbfbf" stroke="#000000" points="0,-38.5 0,-57.5 89,-57.5 89,-38.5 0,-38.5"/>
<text text-anchor="middle" x="44.5" y="-45.5" font-family="Helvetica,sans-Serif" font-size="10.00" fill="#000000">nntp_complete</text>
</g>
<!-- Node1 -->
<g id="node2" class="node">
<title>Node1</title>
<g id="a_node2"><a xlink:href="mutt_2string_8c.html#ad20e00309de897a1e882fc7400335b83" target="_top" xlink:title="Copy a string into a buffer (guaranteeing NUL&#45;termination) ">
<polygon fill="#ffffff" stroke="#000000" points="130,-76.5 130,-95.5 216,-95.5 216,-76.5 130,-76.5"/>
<text text-anchor="middle" x="173" y="-83.5" font-family="Helvetica,sans-Serif" font-size="10.00" fill="#000000">mutt_str_copy</text>
</a>
</g>
</g>
<!-- Node0&#45;&gt;Node1 -->
<g id="edge1" class="edge">
<title>Node0&#45;&gt;Node1</title>
<path fill="none" stroke="#191970" d="M76.926,-57.589C93.2097,-62.4044 113.1421,-68.2988 130.622,-73.468"/>
<polygon fill="#191970" stroke="#191970" points="130.0024,-76.9345 140.5844,-76.4141 131.9875,-70.2219 130.0024,-76.9345"/>
</g>
<!-- Node2 -->
<g id="node3" class="node">
<title>Node2</title>
<g id="a_node3"><a xlink:href="mutt_2string_8c.html#acca6786b903b22a5924219f9db96e10d" target="_top" xlink:title="Calculate the length of a string, safely. ">
<polygon fill="#ffffff" stroke="#000000" points="134,-38.5 134,-57.5 212,-57.5 212,-38.5 134,-38.5"/>
<text text-anchor="middle" x="173" y="-45.5" font-family="Helvetica,sans-Serif" font-size="10.00" fill="#000000">mutt_str_len</text>
</a>
</g>
</g>
<!-- Node0&#45;&gt;Node2 -->
<g id="edge2" class="edge">
<title>Node0&#45;&gt;Node2</title>
<path fill="none" stroke="#191970" d="M89.0824,-48C100.1822,-48 112.1486,-48 123.4705,-48"/>
<polygon fill="#191970" stroke="#191970" points="123.6437,-51.5001 133.6436,-48 123.6436,-44.5001 123.6437,-51.5001"/>
</g>
<!-- Node3 -->
<g id="node4" class="node">
<title>Node3</title>
<g id="a_node4"><a xlink:href="mutt_2string_8c.html#a6f574867aa9db4d434adbc8af1f5f7e7" target="_top" xlink:title="Check for equality of two strings (to a maximum), safely. ">
<polygon fill="#ffffff" stroke="#000000" points="125,-.5 125,-19.5 221,-19.5 221,-.5 125,-.5"/>
<text text-anchor="middle" x="173" y="-7.5" font-family="Helvetica,sans-Serif" font-size="10.00" fill="#000000">mutt_strn_equal</text>
</a>
</g>
</g>
<!-- Node0&#45;&gt;Node3 -->
<g id="edge3" class="edge">
<title>Node0&#45;&gt;Node3</title>
<path fill="none" stroke="#191970" d="M76.926,-38.411C93.2097,-33.5956 113.1421,-27.7012 130.622,-22.532"/>
<polygon fill="#191970" stroke="#191970" points="131.9875,-25.7781 140.5844,-19.5859 130.0024,-19.0655 131.9875,-25.7781"/>
</g>
</g>
</svg>
