<?xml version="1.0" encoding="UTF-8" standalone="no"?>
<!DOCTYPE svg PUBLIC "-//W3C//DTD SVG 1.1//EN"
 "http://www.w3.org/Graphics/SVG/1.1/DTD/svg11.dtd">
<!-- Generated by graphviz version 7.1.0 (0)
 -->
<!-- Title: expando/node_condition.c Pages: 1 -->
<svg width="956pt" height="192pt"
 viewBox="0.00 0.00 955.67 192.00" xmlns="http://www.w3.org/2000/svg" xmlns:xlink="http://www.w3.org/1999/xlink">
<g id="graph0" class="graph" transform="scale(1 1) rotate(0) translate(4 188)">
<title>expando/node_condition.c</title>
<!-- Node1 -->
<g id="node1" class="node">
<title>Node1</title>
<g id="a_node1"><a xlink:title="Expando Node for a Condition.">
<polygon fill="#999999" stroke="#666666" points="465.11,-184 326.11,-184 326.11,-165 465.11,-165 465.11,-184"/>
<text text-anchor="middle" x="395.61" y="-172" font-family="Helvetica,sans-Serif" font-size="10.00">expando/node_condition.c</text>
</a>
</g>
</g>
<!-- Node2 -->
<g id="node2" class="node">
<title>Node2</title>
<g id="a_node2"><a xlink:title=" ">
<polygon fill="#e0e0e0" stroke="#999999" points="212.61,-19 158.61,-19 158.61,0 212.61,0 212.61,-19"/>
<text text-anchor="middle" x="185.61" y="-7" font-family="Helvetica,sans-Serif" font-size="10.00">config.h</text>
</a>
</g>
</g>
<!-- Node1&#45;&gt;Node2 -->
<g id="edge1" class="edge">
<title>Node1&#45;&gt;Node2</title>
<path fill="none" stroke="#63b8ff" d="M325.83,-170.38C220.57,-164.95 31.17,-152.08 10.61,-129 -35.79,-76.93 83.2,-36.85 147.55,-19.67"/>
<polygon fill="#63b8ff" stroke="#63b8ff" points="148.24,-23.1 157.04,-17.2 146.48,-16.33 148.24,-23.1"/>
</g>
<!-- Node3 -->
<g id="node3" class="node">
<title>Node3</title>
<g id="a_node3"><a xlink:title=" ">
<polygon fill="#e0e0e0" stroke="#999999" points="529.61,-19 469.61,-19 469.61,0 529.61,0 529.61,-19"/>
<text text-anchor="middle" x="499.61" y="-7" font-family="Helvetica,sans-Serif" font-size="10.00">stdbool.h</text>
</a>
</g>
</g>
<!-- Node1&#45;&gt;Node3 -->
<g id="edge2" class="edge">
<title>Node1&#45;&gt;Node3</title>
<path fill="none" stroke="#63b8ff" d="M385.34,-164.8C362.31,-144.26 310.68,-91.7 338.61,-55 353.05,-36.03 415.36,-23.07 458.08,-16.23"/>
<polygon fill="#63b8ff" stroke="#63b8ff" points="458.45,-19.71 467.8,-14.73 457.38,-12.79 458.45,-19.71"/>
</g>
<!-- Node4 -->
<g id="node4" class="node">
<title>Node4</title>
<g id="a_node4"><a xlink:title=" ">
<polygon fill="#e0e0e0" stroke="#999999" points="183.61,-129 135.61,-129 135.61,-110 183.61,-110 183.61,-129"/>
<text text-anchor="middle" x="159.61" y="-117" font-family="Helvetica,sans-Serif" font-size="10.00">stdio.h</text>
</a>
</g>
</g>
<!-- Node1&#45;&gt;Node4 -->
<g id="edge3" class="edge">
<title>Node1&#45;&gt;Node4</title>
<path fill="none" stroke="#63b8ff" d="M355.57,-164.51C310.52,-154.39 238.02,-138.11 194.98,-128.44"/>
<polygon fill="#63b8ff" stroke="#63b8ff" points="195.92,-125.07 185.4,-126.29 194.39,-131.9 195.92,-125.07"/>
</g>
<!-- Node5 -->
<g id="node5" class="node">
<title>Node5</title>
<g id="a_node5"><a xlink:href="mutt_2lib_8h.html" target="_top" xlink:title="Convenience wrapper for the library headers.">
<polygon fill="#fff0f0" stroke="red" points="409.61,-74 347.61,-74 347.61,-55 409.61,-55 409.61,-74"/>
<text text-anchor="middle" x="378.61" y="-62" font-family="Helvetica,sans-Serif" font-size="10.00">mutt/lib.h</text>
</a>
</g>
</g>
<!-- Node1&#45;&gt;Node5 -->
<g id="edge4" class="edge">
<title>Node1&#45;&gt;Node5</title>
<path fill="none" stroke="#63b8ff" d="M392.14,-164.8C388.78,-155.95 383.88,-141.76 381.61,-129 379.05,-114.64 378.34,-98.2 378.24,-85.64"/>
<polygon fill="#63b8ff" stroke="#63b8ff" points="381.74,-85.74 378.31,-75.72 374.74,-85.7 381.74,-85.74"/>
</g>
<!-- Node54 -->
<g id="node6" class="node">
<title>Node54</title>
<g id="a_node6"><a xlink:href="node__condition_8h.html" target="_top" xlink:title="Expando Node for a Condition.">
<polygon fill="white" stroke="#666666" points="117.11,-129 20.11,-129 20.11,-110 117.11,-110 117.11,-129"/>
<text text-anchor="middle" x="68.61" y="-117" font-family="Helvetica,sans-Serif" font-size="10.00">node_condition.h</text>
</a>
</g>
</g>
<!-- Node1&#45;&gt;Node54 -->
<g id="edge6" class="edge">
<title>Node1&#45;&gt;Node54</title>
<path fill="none" stroke="#63b8ff" d="M340.14,-164.51C281.42,-154.99 189.06,-140.02 128.66,-130.23"/>
<polygon fill="#63b8ff" stroke="#63b8ff" points="129.33,-126.8 118.89,-128.65 128.21,-133.71 129.33,-126.8"/>
</g>
<!-- Node55 -->
<g id="node7" class="node">
<title>Node55</title>
<g id="a_node7"><a xlink:href="node__text_8h.html" target="_top" xlink:title="Expando Node for Text.">
<polygon fill="#fff0f0" stroke="red" points="247.61,-74 175.61,-74 175.61,-55 247.61,-55 247.61,-74"/>
<text text-anchor="middle" x="211.61" y="-62" font-family="Helvetica,sans-Serif" font-size="10.00">node_text.h</text>
</a>
</g>
</g>
<!-- Node1&#45;&gt;Node55 -->
<g id="edge25" class="edge">
<title>Node1&#45;&gt;Node55</title>
<path fill="none" stroke="#63b8ff" d="M325.75,-170C293.03,-164.87 255.81,-153.52 230.61,-129 218.99,-117.69 214.4,-99.6 212.63,-85.62"/>
<polygon fill="#63b8ff" stroke="#63b8ff" points="216.13,-85.42 211.8,-75.75 209.15,-86.01 216.13,-85.42"/>
</g>
<!-- Node56 -->
<g id="node8" class="node">
<title>Node56</title>
<g id="a_node8"><a xlink:href="definition_8h.html" target="_top" xlink:title="Define an Expando format string.">
<polygon fill="#fff0f0" stroke="red" points="921.61,-74 851.61,-74 851.61,-55 921.61,-55 921.61,-74"/>
<text text-anchor="middle" x="886.61" y="-62" font-family="Helvetica,sans-Serif" font-size="10.00">definition.h</text>
</a>
</g>
</g>
<!-- Node1&#45;&gt;Node56 -->
<g id="edge8" class="edge">
<title>Node1&#45;&gt;Node56</title>
<path fill="none" stroke="#63b8ff" d="M465.38,-172.98C605.58,-171.21 910.88,-163.41 942.61,-129 957.76,-112.56 935.14,-93.24 914.28,-80.26"/>
<polygon fill="#63b8ff" stroke="#63b8ff" points="916.06,-77.25 905.66,-75.21 912.52,-83.29 916.06,-77.25"/>
</g>
<!-- Node57 -->
<g id="node9" class="node">
<title>Node57</title>
<g id="a_node9"><a xlink:href="format_8h.html" target="_top" xlink:title="Simple string formatting.">
<polygon fill="#fff0f0" stroke="red" points="500.61,-74 442.61,-74 442.61,-55 500.61,-55 500.61,-74"/>
<text text-anchor="middle" x="471.61" y="-62" font-family="Helvetica,sans-Serif" font-size="10.00">format.h</text>
</a>
</g>
</g>
<!-- Node1&#45;&gt;Node57 -->
<g id="edge10" class="edge">
<title>Node1&#45;&gt;Node57</title>
<path fill="none" stroke="#63b8ff" d="M396.73,-164.57C398.72,-151.57 403.82,-127.14 415.61,-110 423.58,-98.4 435.47,-88.36 446.24,-80.76"/>
<polygon fill="#63b8ff" stroke="#63b8ff" points="448.02,-83.77 454.41,-75.33 444.15,-77.94 448.02,-83.77"/>
</g>
<!-- Node58 -->
<g id="node10" class="node">
<title>Node58</title>
<g id="a_node10"><a xlink:href="expando_2helpers_8h.html" target="_top" xlink:title="Shared code.">
<polygon fill="white" stroke="#666666" points="485.11,-129 424.11,-129 424.11,-110 485.11,-110 485.11,-129"/>
<text text-anchor="middle" x="454.61" y="-117" font-family="Helvetica,sans-Serif" font-size="10.00">helpers.h</text>
</a>
</g>
</g>
<!-- Node1&#45;&gt;Node58 -->
<g id="edge12" class="edge">
<title>Node1&#45;&gt;Node58</title>
<path fill="none" stroke="#63b8ff" d="M405.62,-164.51C413.97,-157 426.11,-146.1 436.21,-137.03"/>
<polygon fill="#63b8ff" stroke="#63b8ff" points="438.52,-139.66 443.62,-130.37 433.84,-134.45 438.52,-139.66"/>
</g>
<!-- Node59 -->
<g id="node11" class="node">
<title>Node59</title>
<g id="a_node11"><a xlink:href="node_8h.html" target="_top" xlink:title="Basic Expando Node.">
<polygon fill="white" stroke="#666666" points="553.61,-129 503.61,-129 503.61,-110 553.61,-110 553.61,-129"/>
<text text-anchor="middle" x="528.61" y="-117" font-family="Helvetica,sans-Serif" font-size="10.00">node.h</text>
</a>
</g>
</g>
<!-- Node1&#45;&gt;Node59 -->
<g id="edge13" class="edge">
<title>Node1&#45;&gt;Node59</title>
<path fill="none" stroke="#63b8ff" d="M418.17,-164.51C439.51,-156.01 471.77,-143.15 495.92,-133.53"/>
<polygon fill="#63b8ff" stroke="#63b8ff" points="496.98,-136.87 504.97,-129.92 494.39,-130.37 496.98,-136.87"/>
</g>
<!-- Node60 -->
<g id="node12" class="node">
<title>Node60</title>
<g id="a_node12"><a xlink:href="render_8h.html" target="_top" xlink:title="Render Expandos using Data.">
<polygon fill="#fff0f0" stroke="red" points="649.61,-74 593.61,-74 593.61,-55 649.61,-55 649.61,-74"/>
<text text-anchor="middle" x="621.61" y="-62" font-family="Helvetica,sans-Serif" font-size="10.00">render.h</text>
</a>
</g>
</g>
<!-- Node1&#45;&gt;Node60 -->
<g id="edge29" class="edge">
<title>Node1&#45;&gt;Node60</title>
<path fill="none" stroke="#63b8ff" d="M462.42,-164.55C494.41,-158.12 532.26,-147.24 562.61,-129 581.7,-117.52 598.45,-98.08 609.17,-83.72"/>
<polygon fill="#63b8ff" stroke="#63b8ff" points="612.02,-85.76 614.98,-75.59 606.32,-81.69 612.02,-85.76"/>
</g>
<!-- Node61 -->
<g id="node13" class="node">
<title>Node61</title>
<g id="a_node13"><a xlink:href="node__condbool_8h.html" target="_top" xlink:title="Expando Node for a Conditional Boolean.">
<polygon fill="white" stroke="#666666" points="707.11,-129 610.11,-129 610.11,-110 707.11,-110 707.11,-129"/>
<text text-anchor="middle" x="658.61" y="-117" font-family="Helvetica,sans-Serif" font-size="10.00">node_condbool.h</text>
</a>
</g>
</g>
<!-- Node1&#45;&gt;Node61 -->
<g id="edge18" class="edge">
<title>Node1&#45;&gt;Node61</title>
<path fill="none" stroke="#63b8ff" d="M440.22,-164.51C485.13,-155.46 554.51,-141.48 602.98,-131.71"/>
<polygon fill="#63b8ff" stroke="#63b8ff" points="603.62,-135.15 612.73,-129.75 602.24,-128.29 603.62,-135.15"/>
</g>
<!-- Node62 -->
<g id="node14" class="node">
<title>Node62</title>
<g id="a_node14"><a xlink:href="node__container_8h.html" target="_top" xlink:title="Expando Node for a Container.">
<polygon fill="white" stroke="#666666" points="821.61,-129 725.61,-129 725.61,-110 821.61,-110 821.61,-129"/>
<text text-anchor="middle" x="773.61" y="-117" font-family="Helvetica,sans-Serif" font-size="10.00">node_container.h</text>
</a>
</g>
</g>
<!-- Node1&#45;&gt;Node62 -->
<g id="edge20" class="edge">
<title>Node1&#45;&gt;Node62</title>
<path fill="none" stroke="#63b8ff" d="M461.72,-164.54C524.11,-156.03 620.58,-142.77 714.03,-129.36"/>
<polygon fill="#63b8ff" stroke="#63b8ff" points="714.51,-132.83 723.91,-127.94 713.52,-125.9 714.51,-132.83"/>
</g>
<!-- Node63 -->
<g id="node15" class="node">
<title>Node63</title>
<g id="a_node15"><a xlink:href="node__expando_8h.html" target="_top" xlink:title="Expando Node for an Expando.">
<polygon fill="white" stroke="#666666" points="933.61,-129 839.61,-129 839.61,-110 933.61,-110 933.61,-129"/>
<text text-anchor="middle" x="886.61" y="-117" font-family="Helvetica,sans-Serif" font-size="10.00">node_expando.h</text>
</a>
</g>
</g>
<!-- Node1&#45;&gt;Node63 -->
<g id="edge21" class="edge">
<title>Node1&#45;&gt;Node63</title>
<path fill="none" stroke="#63b8ff" d="M465.42,-167.41C549.09,-159.88 693.83,-146.11 827.99,-129.28"/>
<polygon fill="#63b8ff" stroke="#63b8ff" points="828.29,-132.77 837.77,-128.04 827.41,-125.82 828.29,-132.77"/>
</g>
<!-- Node64 -->
<g id="node16" class="node">
<title>Node64</title>
<g id="a_node16"><a xlink:href="expando_2parse_8h.html" target="_top" xlink:title="Expando Parsing.">
<polygon fill="white" stroke="#666666" points="291.61,-129 239.61,-129 239.61,-110 291.61,-110 291.61,-129"/>
<text text-anchor="middle" x="265.61" y="-117" font-family="Helvetica,sans-Serif" font-size="10.00">parse.h</text>
</a>
</g>
</g>
<!-- Node1&#45;&gt;Node64 -->
<g id="edge26" class="edge">
<title>Node1&#45;&gt;Node64</title>
<path fill="none" stroke="#63b8ff" d="M373.56,-164.51C352.79,-156.04 321.45,-143.27 297.88,-133.66"/>
<polygon fill="#63b8ff" stroke="#63b8ff" points="299.32,-130.46 288.74,-129.93 296.68,-136.95 299.32,-130.46"/>
</g>
<!-- Node5&#45;&gt;Node2 -->
<g id="edge5" class="edge">
<title>Node5&#45;&gt;Node2</title>
<path fill="none" stroke="#63b8ff" d="M347.17,-54.87C313.53,-45.63 260.15,-30.97 224.04,-21.05"/>
<polygon fill="#63b8ff" stroke="#63b8ff" points="225,-17.69 214.43,-18.42 223.15,-24.44 225,-17.69"/>
</g>
<!-- Node54&#45;&gt;Node55 -->
<g id="edge7" class="edge">
<title>Node54&#45;&gt;Node55</title>
<path fill="none" stroke="#63b8ff" d="M92.87,-109.51C116.01,-100.93 151.12,-87.92 177.16,-78.27"/>
<polygon fill="#63b8ff" stroke="#63b8ff" points="178.13,-81.64 186.29,-74.88 175.7,-75.08 178.13,-81.64"/>
</g>
<!-- Node56&#45;&gt;Node3 -->
<g id="edge9" class="edge">
<title>Node56&#45;&gt;Node3</title>
<path fill="none" stroke="#63b8ff" d="M851.24,-58.66C779.54,-48.84 617.39,-26.63 540.95,-16.16"/>
<polygon fill="#63b8ff" stroke="#63b8ff" points="541.76,-12.74 531.38,-14.85 540.81,-19.68 541.76,-12.74"/>
</g>
<!-- Node57&#45;&gt;Node3 -->
<g id="edge11" class="edge">
<title>Node57&#45;&gt;Node3</title>
<path fill="none" stroke="#63b8ff" d="M476.23,-54.75C479.86,-47.88 485.04,-38.08 489.6,-29.45"/>
<polygon fill="#63b8ff" stroke="#63b8ff" points="492.6,-31.26 494.18,-20.78 486.41,-27.99 492.6,-31.26"/>
</g>
<!-- Node59&#45;&gt;Node3 -->
<g id="edge14" class="edge">
<title>Node59&#45;&gt;Node3</title>
<path fill="none" stroke="#63b8ff" d="M526.23,-109.66C521.6,-92.42 511.26,-53.9 504.92,-30.27"/>
<polygon fill="#63b8ff" stroke="#63b8ff" points="508.38,-29.67 502.41,-20.92 501.62,-31.49 508.38,-29.67"/>
</g>
<!-- Node59&#45;&gt;Node5 -->
<g id="edge15" class="edge">
<title>Node59&#45;&gt;Node5</title>
<path fill="none" stroke="#63b8ff" d="M503.16,-109.51C478.85,-100.92 441.95,-87.88 414.62,-78.22"/>
<polygon fill="#63b8ff" stroke="#63b8ff" points="415.95,-74.98 405.35,-74.95 413.62,-81.58 415.95,-74.98"/>
</g>
<!-- Node59&#45;&gt;Node57 -->
<g id="edge16" class="edge">
<title>Node59&#45;&gt;Node57</title>
<path fill="none" stroke="#63b8ff" d="M518.94,-109.51C510.87,-102 499.14,-91.1 489.38,-82.03"/>
<polygon fill="#63b8ff" stroke="#63b8ff" points="491.95,-79.63 482.24,-75.39 487.18,-84.76 491.95,-79.63"/>
</g>
<!-- Node59&#45;&gt;Node60 -->
<g id="edge17" class="edge">
<title>Node59&#45;&gt;Node60</title>
<path fill="none" stroke="#63b8ff" d="M544.38,-109.51C558.63,-101.39 579.85,-89.3 596.44,-79.85"/>
<polygon fill="#63b8ff" stroke="#63b8ff" points="597.79,-83.1 604.75,-75.11 594.33,-77.02 597.79,-83.1"/>
</g>
<!-- Node61&#45;&gt;Node60 -->
<g id="edge19" class="edge">
<title>Node61&#45;&gt;Node60</title>
<path fill="none" stroke="#63b8ff" d="M652.5,-109.75C647.6,-102.73 640.56,-92.64 634.43,-83.87"/>
<polygon fill="#63b8ff" stroke="#63b8ff" points="637.31,-81.88 628.72,-75.68 631.57,-85.89 637.31,-81.88"/>
</g>
<!-- Node63&#45;&gt;Node3 -->
<g id="edge22" class="edge">
<title>Node63&#45;&gt;Node3</title>
<path fill="none" stroke="#63b8ff" d="M854.61,-109.57C784.7,-90.06 618.42,-43.66 540.82,-22"/>
<polygon fill="#63b8ff" stroke="#63b8ff" points="542.06,-18.71 531.49,-19.4 540.18,-25.46 542.06,-18.71"/>
</g>
<!-- Node63&#45;&gt;Node56 -->
<g id="edge23" class="edge">
<title>Node63&#45;&gt;Node56</title>
<path fill="none" stroke="#63b8ff" d="M886.61,-109.75C886.61,-103.27 886.61,-94.16 886.61,-85.9"/>
<polygon fill="#63b8ff" stroke="#63b8ff" points="890.11,-85.96 886.61,-75.96 883.11,-85.96 890.11,-85.96"/>
</g>
<!-- Node63&#45;&gt;Node60 -->
<g id="edge24" class="edge">
<title>Node63&#45;&gt;Node60</title>
<path fill="none" stroke="#63b8ff" d="M841.65,-109.51C791.04,-99.39 709.59,-83.1 661.26,-73.43"/>
<polygon fill="#63b8ff" stroke="#63b8ff" points="661.99,-70.01 651.5,-71.48 660.62,-76.87 661.99,-70.01"/>
</g>
<!-- Node64&#45;&gt;Node3 -->
<g id="edge27" class="edge">
<title>Node64&#45;&gt;Node3</title>
<path fill="none" stroke="#63b8ff" d="M268.68,-109.55C273.95,-95.61 286.06,-68.87 305.61,-55 350.85,-22.9 415.64,-13.56 457.67,-11.06"/>
<polygon fill="#63b8ff" stroke="#63b8ff" points="457.81,-14.56 467.63,-10.58 457.48,-7.56 457.81,-14.56"/>
</g>
<!-- Node64&#45;&gt;Node55 -->
<g id="edge28" class="edge">
<title>Node64&#45;&gt;Node55</title>
<path fill="none" stroke="#63b8ff" d="M256.69,-109.75C249.15,-102.35 238.14,-91.54 228.88,-82.45"/>
<polygon fill="#63b8ff" stroke="#63b8ff" points="231.39,-80.01 221.8,-75.5 226.48,-85 231.39,-80.01"/>
</g>
</g>
</svg>
