<?xml version="1.0" encoding="UTF-8" standalone="no"?>
<!DOCTYPE svg PUBLIC "-//W3C//DTD SVG 1.1//EN"
 "http://www.w3.org/Graphics/SVG/1.1/DTD/svg11.dtd">
<!-- Generated by graphviz version 7.1.0 (0)
 -->
<!-- Title: pad_string Pages: 1 -->
<svg width="197pt" height="101pt"
 viewBox="0.00 0.00 197.00 101.00" xmlns="http://www.w3.org/2000/svg" xmlns:xlink="http://www.w3.org/1999/xlink">
<g id="graph0" class="graph" transform="scale(1 1) rotate(0) translate(4 97)">
<title>pad_string</title>
<!-- Node1 -->
<g id="node1" class="node">
<title>Node1</title>
<g id="a_node1"><a xlink:title="Pad a buffer with a character.">
<polygon fill="#999999" stroke="#666666" points="65,-56 0,-56 0,-37 65,-37 65,-56"/>
<text text-anchor="middle" x="32.5" y="-44" font-family="Helvetica,sans-Serif" font-size="10.00">pad_string</text>
</a>
</g>
</g>
<!-- Node2 -->
<g id="node2" class="node">
<title>Node2</title>
<g id="a_node2"><a xlink:href="buffer_8c.html#a0849b79217aad19e4bf9381d532d59d1" target="_top" xlink:title="Format a string appending a Buffer.">
<polygon fill="#fff0f0" stroke="red" points="187.5,-93 102.5,-93 102.5,-74 187.5,-74 187.5,-93"/>
<text text-anchor="middle" x="145" y="-81" font-family="Helvetica,sans-Serif" font-size="10.00">buf_add_printf</text>
</a>
</g>
</g>
<!-- Node1&#45;&gt;Node2 -->
<g id="edge1" class="edge">
<title>Node1&#45;&gt;Node2</title>
<path fill="none" stroke="#63b8ff" d="M63.11,-56.42C75.5,-60.56 90.09,-65.45 103.45,-69.92"/>
<polygon fill="#63b8ff" stroke="#63b8ff" points="102.28,-73.22 112.87,-73.08 104.5,-66.58 102.28,-73.22"/>
</g>
<!-- Node12 -->
<g id="node3" class="node">
<title>Node12</title>
<g id="a_node3"><a xlink:href="buffer_8c.html#a2881936af4a3e3b45079cb9af0cdb3e8" target="_top" xlink:title="Add a string to a Buffer, expanding it if necessary.">
<polygon fill="#fff0f0" stroke="red" points="183.5,-56 106.5,-56 106.5,-37 183.5,-37 183.5,-56"/>
<text text-anchor="middle" x="145" y="-44" font-family="Helvetica,sans-Serif" font-size="10.00">buf_addstr_n</text>
</a>
</g>
</g>
<!-- Node1&#45;&gt;Node12 -->
<g id="edge2" class="edge">
<title>Node1&#45;&gt;Node12</title>
<path fill="none" stroke="#63b8ff" d="M65.46,-46.5C74.62,-46.5 84.83,-46.5 94.78,-46.5"/>
<polygon fill="#63b8ff" stroke="#63b8ff" points="94.74,-50 104.74,-46.5 94.74,-43 94.74,-50"/>
</g>
<!-- Node13 -->
<g id="node4" class="node">
<title>Node13</title>
<g id="a_node4"><a xlink:href="curs__lib_8c.html#a065d0cc61c21f10fe6f4fc4fad8c7afe" target="_top" xlink:title="Measure a string&#39;s width in screen cells.">
<polygon fill="white" stroke="#666666" points="189,-19 101,-19 101,0 189,0 189,-19"/>
<text text-anchor="middle" x="145" y="-7" font-family="Helvetica,sans-Serif" font-size="10.00">mutt_strnwidth</text>
</a>
</g>
</g>
<!-- Node1&#45;&gt;Node13 -->
<g id="edge3" class="edge">
<title>Node1&#45;&gt;Node13</title>
<path fill="none" stroke="#63b8ff" d="M63.11,-36.58C75.5,-32.44 90.09,-27.55 103.45,-23.08"/>
<polygon fill="#63b8ff" stroke="#63b8ff" points="104.5,-26.42 112.87,-19.92 102.28,-19.78 104.5,-26.42"/>
</g>
</g>
</svg>
