<?xml version="1.0" encoding="UTF-8" standalone="no"?>
<!DOCTYPE svg PUBLIC "-//W3C//DTD SVG 1.1//EN"
 "http://www.w3.org/Graphics/SVG/1.1/DTD/svg11.dtd">
<!-- Generated by graphviz version 7.1.0 (0)
 -->
<!-- Title: expando/node_text.c Pages: 1 -->
<svg width="354pt" height="192pt"
 viewBox="0.00 0.00 354.00 192.00" xmlns="http://www.w3.org/2000/svg" xmlns:xlink="http://www.w3.org/1999/xlink">
<g id="graph0" class="graph" transform="scale(1 1) rotate(0) translate(4 188)">
<title>expando/node_text.c</title>
<!-- Node1 -->
<g id="node1" class="node">
<title>Node1</title>
<g id="a_node1"><a xlink:title="Expando Node for Text.">
<polygon fill="#999999" stroke="#666666" points="235,-184 121,-184 121,-165 235,-165 235,-184"/>
<text text-anchor="middle" x="178" y="-172" font-family="Helvetica,sans-Serif" font-size="10.00">expando/node_text.c</text>
</a>
</g>
</g>
<!-- Node2 -->
<g id="node2" class="node">
<title>Node2</title>
<g id="a_node2"><a xlink:title=" ">
<polygon fill="#e0e0e0" stroke="#999999" points="54,-129 0,-129 0,-110 54,-110 54,-129"/>
<text text-anchor="middle" x="27" y="-117" font-family="Helvetica,sans-Serif" font-size="10.00">config.h</text>
</a>
</g>
</g>
<!-- Node1&#45;&gt;Node2 -->
<g id="edge1" class="edge">
<title>Node1&#45;&gt;Node2</title>
<path fill="none" stroke="#63b8ff" d="M152.38,-164.51C127.91,-155.92 90.76,-142.88 63.25,-133.22"/>
<polygon fill="#63b8ff" stroke="#63b8ff" points="64.51,-129.96 53.92,-129.95 62.19,-136.56 64.51,-129.96"/>
</g>
<!-- Node3 -->
<g id="node3" class="node">
<title>Node3</title>
<g id="a_node3"><a xlink:title=" ">
<polygon fill="#e0e0e0" stroke="#999999" points="235,-19 175,-19 175,0 235,0 235,-19"/>
<text text-anchor="middle" x="205" y="-7" font-family="Helvetica,sans-Serif" font-size="10.00">stdbool.h</text>
</a>
</g>
</g>
<!-- Node1&#45;&gt;Node3 -->
<g id="edge2" class="edge">
<title>Node1&#45;&gt;Node3</title>
<path fill="none" stroke="#63b8ff" d="M150.02,-164.54C123.74,-154.39 89.97,-135.81 101,-110 117.03,-72.47 154.94,-42.33 180.28,-25.42"/>
<polygon fill="#63b8ff" stroke="#63b8ff" points="181.84,-28.58 188.36,-20.22 178.05,-22.7 181.84,-28.58"/>
</g>
<!-- Node4 -->
<g id="node4" class="node">
<title>Node4</title>
<g id="a_node4"><a xlink:href="node__text_8h.html" target="_top" xlink:title="Expando Node for Text.">
<polygon fill="white" stroke="#666666" points="182,-129 110,-129 110,-110 182,-110 182,-129"/>
<text text-anchor="middle" x="146" y="-117" font-family="Helvetica,sans-Serif" font-size="10.00">node_text.h</text>
</a>
</g>
</g>
<!-- Node1&#45;&gt;Node4 -->
<g id="edge3" class="edge">
<title>Node1&#45;&gt;Node4</title>
<path fill="none" stroke="#63b8ff" d="M172.72,-164.75C168.53,-157.81 162.52,-147.86 157.27,-139.16"/>
<polygon fill="#63b8ff" stroke="#63b8ff" points="160.35,-137.49 152.18,-130.74 154.35,-141.11 160.35,-137.49"/>
</g>
<!-- Node5 -->
<g id="node5" class="node">
<title>Node5</title>
<g id="a_node5"><a xlink:href="format_8h.html" target="_top" xlink:title="Simple string formatting.">
<polygon fill="#fff0f0" stroke="red" points="234,-74 176,-74 176,-55 234,-55 234,-74"/>
<text text-anchor="middle" x="205" y="-62" font-family="Helvetica,sans-Serif" font-size="10.00">format.h</text>
</a>
</g>
</g>
<!-- Node1&#45;&gt;Node5 -->
<g id="edge4" class="edge">
<title>Node1&#45;&gt;Node5</title>
<path fill="none" stroke="#63b8ff" d="M180.77,-164.68C183.53,-155.74 187.81,-141.48 191,-129 194.74,-114.4 198.38,-97.76 201.02,-85.18"/>
<polygon fill="#63b8ff" stroke="#63b8ff" points="204.39,-86.15 202.98,-75.65 197.53,-84.74 204.39,-86.15"/>
</g>
<!-- Node7 -->
<g id="node6" class="node">
<title>Node7</title>
<g id="a_node6"><a xlink:href="node_8h.html" target="_top" xlink:title="Basic Expando Node.">
<polygon fill="#fff0f0" stroke="red" points="288,-129 238,-129 238,-110 288,-110 288,-129"/>
<text text-anchor="middle" x="263" y="-117" font-family="Helvetica,sans-Serif" font-size="10.00">node.h</text>
</a>
</g>
</g>
<!-- Node1&#45;&gt;Node7 -->
<g id="edge6" class="edge">
<title>Node1&#45;&gt;Node7</title>
<path fill="none" stroke="#63b8ff" d="M192.42,-164.51C205.2,-156.54 224.1,-144.75 239.13,-135.38"/>
<polygon fill="#63b8ff" stroke="#63b8ff" points="240.88,-138.42 247.51,-130.16 237.17,-132.48 240.88,-138.42"/>
</g>
<!-- Node57 -->
<g id="node7" class="node">
<title>Node57</title>
<g id="a_node7"><a xlink:href="render_8h.html" target="_top" xlink:title="Render Expandos using Data.">
<polygon fill="#fff0f0" stroke="red" points="346,-74 290,-74 290,-55 346,-55 346,-74"/>
<text text-anchor="middle" x="318" y="-62" font-family="Helvetica,sans-Serif" font-size="10.00">render.h</text>
</a>
</g>
</g>
<!-- Node1&#45;&gt;Node57 -->
<g id="edge10" class="edge">
<title>Node1&#45;&gt;Node57</title>
<path fill="none" stroke="#63b8ff" d="M230.53,-164.51C253.61,-158.11 279.41,-147.28 297,-129 308.34,-117.21 313.56,-99.17 315.96,-85.32"/>
<polygon fill="#63b8ff" stroke="#63b8ff" points="319.41,-85.97 317.27,-75.59 312.47,-85.04 319.41,-85.97"/>
</g>
<!-- Node5&#45;&gt;Node3 -->
<g id="edge5" class="edge">
<title>Node5&#45;&gt;Node3</title>
<path fill="none" stroke="#63b8ff" d="M205,-54.75C205,-48.27 205,-39.16 205,-30.9"/>
<polygon fill="#63b8ff" stroke="#63b8ff" points="208.5,-30.96 205,-20.96 201.5,-30.96 208.5,-30.96"/>
</g>
<!-- Node7&#45;&gt;Node3 -->
<g id="edge7" class="edge">
<title>Node7&#45;&gt;Node3</title>
<path fill="none" stroke="#63b8ff" d="M261.42,-109.84C258.87,-97.2 253.08,-73.2 243,-55 237.48,-45.04 229.51,-35.26 222.29,-27.43"/>
<polygon fill="#63b8ff" stroke="#63b8ff" points="224.87,-25.06 215.4,-20.31 219.84,-29.93 224.87,-25.06"/>
</g>
<!-- Node7&#45;&gt;Node5 -->
<g id="edge8" class="edge">
<title>Node7&#45;&gt;Node5</title>
<path fill="none" stroke="#63b8ff" d="M253.16,-109.51C244.95,-102 233.02,-91.1 223.09,-82.03"/>
<polygon fill="#63b8ff" stroke="#63b8ff" points="225.55,-79.54 215.81,-75.38 220.83,-84.71 225.55,-79.54"/>
</g>
<!-- Node7&#45;&gt;Node57 -->
<g id="edge9" class="edge">
<title>Node7&#45;&gt;Node57</title>
<path fill="none" stroke="#63b8ff" d="M272.08,-109.75C279.84,-102.27 291.21,-91.32 300.7,-82.17"/>
<polygon fill="#63b8ff" stroke="#63b8ff" points="302.86,-84.95 307.63,-75.49 298,-79.91 302.86,-84.95"/>
</g>
</g>
</svg>
