<?xml version="1.0" encoding="UTF-8" standalone="no"?>
<!DOCTYPE svg PUBLIC "-//W3C//DTD SVG 1.1//EN"
 "http://www.w3.org/Graphics/SVG/1.1/DTD/svg11.dtd">
<!-- Generated by graphviz version 12.2.1 (20241206.2353)
 -->
<!-- Title: node_padding_repad Pages: 1 -->
<svg width="244pt" height="48pt"
 viewBox="0.00 0.00 244.00 48.25" xmlns="http://www.w3.org/2000/svg" xmlns:xlink="http://www.w3.org/1999/xlink">
<g id="graph0" class="graph" transform="scale(1 1) rotate(0) translate(4 44.25)">
<title>node_padding_repad</title>
<!-- Node1 -->
<g id="Node000001" class="node">
<title>Node1</title>
<g id="a_Node000001"><a xlink:title="Rearrange Padding in a tree of ExpandoNodes.">
<polygon fill="#999999" stroke="#666666" points="236,-22.25 122.5,-22.25 122.5,0 236,0 236,-22.25"/>
<text text-anchor="middle" x="179.25" y="-8.75" font-family="Helvetica,sans-Serif" font-size="10.00">node_padding_repad</text>
</a>
</g>
</g>
<!-- Node1&#45;&gt;Node1 -->
<g id="edge2_Node000001_Node000001" class="edge">
<title>Node1&#45;&gt;Node1</title>
<g id="a_edge2_Node000001_Node000001"><a xlink:title=" ">
<path fill="none" stroke="#63b8ff" d="M203.07,-33.7C199.83,-37.57 191.89,-40.25 179.25,-40.25 156.14,-40.25 148.74,-31.28 157.04,-22.49"/>
<polygon fill="#63b8ff" stroke="#63b8ff" points="206.56,-33.38 201.67,-23.98 199.63,-34.38 206.56,-33.38"/>
</a>
</g>
</g>
<!-- Node2 -->
<g id="Node000002" class="node">
<title>Node2</title>
<g id="a_Node000002"><a xlink:href="expando_2expando_8c.html#a301a11afc09d7f98e652604400c6680b" target="_top" xlink:title="Parse an Expando string.">
<polygon fill="#fff0f0" stroke="red" points="86.5,-22.25 0,-22.25 0,0 86.5,0 86.5,-22.25"/>
<text text-anchor="middle" x="43.25" y="-8.75" font-family="Helvetica,sans-Serif" font-size="10.00">expando_parse</text>
</a>
</g>
</g>
<!-- Node1&#45;&gt;Node2 -->
<g id="edge1_Node000001_Node000002" class="edge">
<title>Node1&#45;&gt;Node2</title>
<g id="a_edge1_Node000001_Node000002"><a xlink:title=" ">
<path fill="none" stroke="#63b8ff" d="M110.95,-11.12C102.66,-11.12 94.38,-11.12 86.62,-11.12"/>
<polygon fill="#63b8ff" stroke="#63b8ff" points="110.68,-14.63 120.68,-11.13 110.68,-7.63 110.68,-14.63"/>
</a>
</g>
</g>
</g>
</svg>
