<?xml version="1.0" encoding="UTF-8" standalone="no"?>
<!DOCTYPE svg PUBLIC "-//W3C//DTD SVG 1.1//EN"
 "http://www.w3.org/Graphics/SVG/1.1/DTD/svg11.dtd">
<!-- Generated by graphviz version 12.2.1 (20241206.2353)
 -->
<!-- Title: color/notify2.h Pages: 1 -->
<svg width="100pt" height="147pt"
 viewBox="0.00 0.00 99.50 146.75" xmlns="http://www.w3.org/2000/svg" xmlns:xlink="http://www.w3.org/1999/xlink">
<g id="graph0" class="graph" transform="scale(1 1) rotate(0) translate(4 142.75)">
<title>color/notify2.h</title>
<!-- Node1 -->
<g id="Node000001" class="node">
<title>Node1</title>
<g id="a_Node000001"><a xlink:title="Colour notifications.">
<polygon fill="#999999" stroke="#666666" points="85,-138.75 0,-138.75 0,-116.5 85,-116.5 85,-138.75"/>
<text text-anchor="middle" x="42.5" y="-125.25" font-family="Helvetica,sans-Serif" font-size="10.00">color/notify2.h</text>
</a>
</g>
</g>
<!-- Node2 -->
<g id="Node000002" class="node">
<title>Node2</title>
<g id="a_Node000002"><a xlink:href="mutt_2lib_8h.html" target="_top" xlink:title="Convenience wrapper for the library headers.">
<polygon fill="#fff0f0" stroke="red" points="73.38,-22.25 11.62,-22.25 11.62,0 73.38,0 73.38,-22.25"/>
<text text-anchor="middle" x="42.5" y="-8.75" font-family="Helvetica,sans-Serif" font-size="10.00">mutt/lib.h</text>
</a>
</g>
</g>
<!-- Node1&#45;&gt;Node2 -->
<g id="edge1_Node000001_Node000002" class="edge">
<title>Node1&#45;&gt;Node2</title>
<g id="a_edge1_Node000001_Node000002"><a xlink:title=" ">
<path fill="none" stroke="#63b8ff" d="M40.73,-116.04C39.26,-106.71 37.29,-92.75 36.5,-80.5 35.86,-70.63 35.86,-68.12 36.5,-58.25 37.01,-50.31 38.02,-41.64 39.07,-33.99"/>
<polygon fill="#63b8ff" stroke="#63b8ff" points="42.51,-34.61 40.51,-24.21 35.59,-33.59 42.51,-34.61"/>
</a>
</g>
</g>
<!-- Node54 -->
<g id="Node000054" class="node">
<title>Node54</title>
<g id="a_Node000054"><a xlink:href="color_8h.html" target="_top" xlink:title="Color and attribute parsing.">
<polygon fill="#fff0f0" stroke="red" points="91.5,-80.5 45.5,-80.5 45.5,-58.25 91.5,-58.25 91.5,-80.5"/>
<text text-anchor="middle" x="68.5" y="-67" font-family="Helvetica,sans-Serif" font-size="10.00">color.h</text>
</a>
</g>
</g>
<!-- Node1&#45;&gt;Node54 -->
<g id="edge2_Node000001_Node000054" class="edge">
<title>Node1&#45;&gt;Node54</title>
<g id="a_edge2_Node000001_Node000054"><a xlink:title=" ">
<path fill="none" stroke="#63b8ff" d="M47.39,-116.04C50.62,-109.05 54.97,-99.65 58.88,-91.2"/>
<polygon fill="#63b8ff" stroke="#63b8ff" points="61.98,-92.83 63,-82.28 55.62,-89.89 61.98,-92.83"/>
</a>
</g>
</g>
<!-- Node54&#45;&gt;Node2 -->
<g id="edge3_Node000054_Node000002" class="edge">
<title>Node54&#45;&gt;Node2</title>
<g id="a_edge3_Node000054_Node000002"><a xlink:title=" ">
<path fill="none" stroke="#63b8ff" d="M63.61,-57.79C60.38,-50.8 56.03,-41.4 52.12,-32.95"/>
<polygon fill="#63b8ff" stroke="#63b8ff" points="55.38,-31.64 48,-24.03 49.02,-34.58 55.38,-31.64"/>
</a>
</g>
</g>
</g>
</svg>
