<?xml version="1.0" encoding="UTF-8" standalone="no"?>
<!DOCTYPE svg PUBLIC "-//W3C//DTD SVG 1.1//EN"
 "http://www.w3.org/Graphics/SVG/1.1/DTD/svg11.dtd">
<!-- Generated by graphviz version 12.2.1 (20241206.2353)
 -->
<!-- Title: windowed_query_from_query Pages: 1 -->
<svg width="430pt" height="242pt"
 viewBox="0.00 0.00 430.25 242.25" xmlns="http://www.w3.org/2000/svg" xmlns:xlink="http://www.w3.org/1999/xlink">
<g id="graph0" class="graph" transform="scale(1 1) rotate(0) translate(4 238.25)">
<title>windowed_query_from_query</title>
<!-- Node1 -->
<g id="Node000001" class="node">
<title>Node1</title>
<g id="a_Node000001"><a xlink:title="Transforms a vfolder search query into a windowed one.">
<polygon fill="#999999" stroke="#666666" points="122.5,-141.38 0,-141.38 0,-104.88 122.5,-104.88 122.5,-141.38"/>
<text text-anchor="start" x="8" y="-127.88" font-family="Helvetica,sans-Serif" font-size="10.00">windowed_query_from</text>
<text text-anchor="middle" x="61.25" y="-113.62" font-family="Helvetica,sans-Serif" font-size="10.00">_query</text>
</a>
</g>
</g>
<!-- Node2 -->
<g id="Node000002" class="node">
<title>Node2</title>
<g id="a_Node000002"><a xlink:href="config_2helpers_8c.html#ae50f679dd6c5bd1ba820884c8602f038" target="_top" xlink:title="Get a boolean config item by name.">
<polygon fill="#fff0f0" stroke="red" points="272,-234.25 187,-234.25 187,-212 272,-212 272,-234.25"/>
<text text-anchor="middle" x="229.5" y="-220.75" font-family="Helvetica,sans-Serif" font-size="10.00">cs_subset_bool</text>
</a>
</g>
</g>
<!-- Node1&#45;&gt;Node2 -->
<g id="edge1_Node000001_Node000002" class="edge">
<title>Node1&#45;&gt;Node2</title>
<g id="a_edge1_Node000001_Node000002"><a xlink:title=" ">
<path fill="none" stroke="#63b8ff" d="M79.73,-141.59C97.85,-159.7 127.76,-186.89 158.5,-203.12 163.95,-206 169.86,-208.51 175.86,-210.68"/>
<polygon fill="#63b8ff" stroke="#63b8ff" points="174.65,-213.97 185.24,-213.77 176.84,-207.32 174.65,-213.97"/>
</a>
</g>
</g>
<!-- Node23 -->
<g id="Node000023" class="node">
<title>Node23</title>
<g id="a_Node000023"><a xlink:href="config_2helpers_8c.html#a96039a9f8d37daad993ae7b490510339" target="_top" xlink:title="Get a number config item by name.">
<polygon fill="#fff0f0" stroke="red" points="280.62,-194.25 178.38,-194.25 178.38,-172 280.62,-172 280.62,-194.25"/>
<text text-anchor="middle" x="229.5" y="-180.75" font-family="Helvetica,sans-Serif" font-size="10.00">cs_subset_number</text>
</a>
</g>
</g>
<!-- Node1&#45;&gt;Node23 -->
<g id="edge2_Node000001_Node000023" class="edge">
<title>Node1&#45;&gt;Node23</title>
<g id="a_edge2_Node000001_Node000023"><a xlink:title=" ">
<path fill="none" stroke="#63b8ff" d="M104.01,-141.72C120.78,-148.85 140.39,-156.8 158.5,-163.12 163.53,-164.88 168.8,-166.6 174.1,-168.25"/>
<polygon fill="#63b8ff" stroke="#63b8ff" points="172.91,-171.55 183.49,-171.09 174.93,-164.85 172.91,-171.55"/>
</a>
</g>
</g>
<!-- Node24 -->
<g id="Node000024" class="node">
<title>Node24</title>
<g id="a_Node000024"><a xlink:href="config_2helpers_8c.html#a6b1589ee93ff51ef31f1d9324e138078" target="_top" xlink:title="Get a string config item by name.">
<polygon fill="#fff0f0" stroke="red" points="275.38,-154.25 183.62,-154.25 183.62,-132 275.38,-132 275.38,-154.25"/>
<text text-anchor="middle" x="229.5" y="-140.75" font-family="Helvetica,sans-Serif" font-size="10.00">cs_subset_string</text>
</a>
</g>
</g>
<!-- Node1&#45;&gt;Node24 -->
<g id="edge3_Node000001_Node000024" class="edge">
<title>Node1&#45;&gt;Node24</title>
<g id="a_edge3_Node000001_Node000024"><a xlink:title=" ">
<path fill="none" stroke="#63b8ff" d="M122.74,-130.4C138.8,-132.33 156.09,-134.41 171.93,-136.32"/>
<polygon fill="#63b8ff" stroke="#63b8ff" points="171.33,-139.77 181.67,-137.49 172.16,-132.82 171.33,-139.77"/>
</a>
</g>
</g>
<!-- Node25 -->
<g id="Node000025" class="node">
<title>Node25</title>
<g id="a_Node000025"><a xlink:href="mutt_2string_8c.html#a6b6a50296dd2a31863a43379ef4a343d" target="_top" xlink:title="Compare two strings.">
<polygon fill="#fff0f0" stroke="red" points="422.25,-92.25 336.5,-92.25 336.5,-70 422.25,-70 422.25,-92.25"/>
<text text-anchor="middle" x="379.38" y="-78.75" font-family="Helvetica,sans-Serif" font-size="10.00">mutt_str_equal</text>
</a>
</g>
</g>
<!-- Node1&#45;&gt;Node25 -->
<g id="edge4_Node000001_Node000025" class="edge">
<title>Node1&#45;&gt;Node25</title>
<g id="a_edge4_Node000001_Node000025"><a xlink:title=" ">
<path fill="none" stroke="#63b8ff" d="M122.83,-115.08C181.36,-107.3 269.17,-95.63 325.1,-88.2"/>
<polygon fill="#63b8ff" stroke="#63b8ff" points="325.24,-91.72 334.69,-86.93 324.32,-84.78 325.24,-91.72"/>
</a>
</g>
</g>
<!-- Node27 -->
<g id="Node000027" class="node">
<title>Node27</title>
<g id="a_Node000027"><a xlink:href="query_8c.html#aeb616448f4b9672d04c1d8d84ba5fb96" target="_top" xlink:title="Windows buf with notmuch date: search term.">
<polygon fill="#fff0f0" stroke="red" points="300.5,-76.38 158.5,-76.38 158.5,-39.88 300.5,-39.88 300.5,-76.38"/>
<text text-anchor="start" x="166.5" y="-62.88" font-family="Helvetica,sans-Serif" font-size="10.00">nm_windowed_query_from</text>
<text text-anchor="middle" x="229.5" y="-48.62" font-family="Helvetica,sans-Serif" font-size="10.00">_query</text>
</a>
</g>
</g>
<!-- Node1&#45;&gt;Node27 -->
<g id="edge5_Node000001_Node000027" class="edge">
<title>Node1&#45;&gt;Node27</title>
<g id="a_edge5_Node000001_Node000027"><a xlink:title=" ">
<path fill="none" stroke="#63b8ff" d="M109.89,-104.5C128.59,-97.19 150.24,-88.72 169.89,-81.04"/>
<polygon fill="#63b8ff" stroke="#63b8ff" points="171.12,-84.32 179.15,-77.42 168.57,-77.8 171.12,-84.32"/>
</a>
</g>
</g>
<!-- Node29 -->
<g id="Node000029" class="node">
<title>Node29</title>
<g id="a_Node000029"><a xlink:href="notmuch_8c.html#a8da43128384281992caf90397da2452b" target="_top" xlink:title="Restore vfolder&#39;s search window to its original position.">
<polygon fill="#fff0f0" stroke="red" points="285.5,-22.25 173.5,-22.25 173.5,0 285.5,0 285.5,-22.25"/>
<text text-anchor="middle" x="229.5" y="-8.75" font-family="Helvetica,sans-Serif" font-size="10.00">query_window_reset</text>
</a>
</g>
</g>
<!-- Node1&#45;&gt;Node29 -->
<g id="edge7_Node000001_Node000029" class="edge">
<title>Node1&#45;&gt;Node29</title>
<g id="a_edge7_Node000001_Node000029"><a xlink:title=" ">
<path fill="none" stroke="#63b8ff" d="M76.92,-104.46C94.25,-83.63 125.01,-50.33 158.5,-31.12 161.13,-29.62 163.89,-28.21 166.72,-26.91"/>
<polygon fill="#63b8ff" stroke="#63b8ff" points="167.88,-30.22 175.82,-23.2 165.24,-23.73 167.88,-30.22"/>
</a>
</g>
</g>
<!-- Node27&#45;&gt;Node25 -->
<g id="edge6_Node000027_Node000025" class="edge">
<title>Node27&#45;&gt;Node25</title>
<g id="a_edge6_Node000027_Node000025"><a xlink:title=" ">
<path fill="none" stroke="#63b8ff" d="M300.97,-69.09C309.07,-70.35 317.22,-71.61 325.04,-72.83"/>
<polygon fill="#63b8ff" stroke="#63b8ff" points="324.3,-76.26 334.71,-74.33 325.37,-69.34 324.3,-76.26"/>
</a>
</g>
</g>
</g>
</svg>
