<?xml version="1.0" encoding="UTF-8" standalone="no"?>
<!DOCTYPE svg PUBLIC "-//W3C//DTD SVG 1.1//EN"
 "http://www.w3.org/Graphics/SVG/1.1/DTD/svg11.dtd">
<!-- Generated by graphviz version 12.2.1 (20241206.2353)
 -->
<!-- Title: notmuch/module.c Pages: 1 -->
<svg width="450pt" height="147pt"
 viewBox="0.00 0.00 450.38 146.75" xmlns="http://www.w3.org/2000/svg" xmlns:xlink="http://www.w3.org/1999/xlink">
<g id="graph0" class="graph" transform="scale(1 1) rotate(0) translate(4 142.75)">
<title>notmuch/module.c</title>
<!-- Node1 -->
<g id="Node000001" class="node">
<title>Node1</title>
<g id="a_Node000001"><a xlink:title="Definition of the Notmuch Module.">
<polygon fill="#999999" stroke="#666666" points="244.75,-138.75 141,-138.75 141,-116.5 244.75,-116.5 244.75,-138.75"/>
<text text-anchor="middle" x="192.88" y="-125.25" font-family="Helvetica,sans-Serif" font-size="10.00">notmuch/module.c</text>
</a>
</g>
</g>
<!-- Node2 -->
<g id="Node000002" class="node">
<title>Node2</title>
<g id="a_Node000002"><a xlink:title=" ">
<polygon fill="#e0e0e0" stroke="#999999" points="171.62,-22.25 118.12,-22.25 118.12,0 171.62,0 171.62,-22.25"/>
<text text-anchor="middle" x="144.88" y="-8.75" font-family="Helvetica,sans-Serif" font-size="10.00">config.h</text>
</a>
</g>
</g>
<!-- Node1&#45;&gt;Node2 -->
<g id="edge1_Node000001_Node000002" class="edge">
<title>Node1&#45;&gt;Node2</title>
<g id="a_edge1_Node000001_Node000002"><a xlink:title=" ">
<path fill="none" stroke="#63b8ff" d="M180.53,-116.24C171.25,-107.67 159.12,-94.66 152.88,-80.5 146.38,-65.77 144.5,-47.6 144.18,-33.69"/>
<polygon fill="#63b8ff" stroke="#63b8ff" points="147.68,-33.88 144.24,-23.86 140.68,-33.84 147.68,-33.88"/>
</a>
</g>
</g>
<!-- Node3 -->
<g id="Node000003" class="node">
<title>Node3</title>
<g id="a_Node000003"><a xlink:title=" ">
<polygon fill="#e0e0e0" stroke="#999999" points="87.62,-22.25 28.12,-22.25 28.12,0 87.62,0 87.62,-22.25"/>
<text text-anchor="middle" x="57.88" y="-8.75" font-family="Helvetica,sans-Serif" font-size="10.00">stdbool.h</text>
</a>
</g>
</g>
<!-- Node1&#45;&gt;Node3 -->
<g id="edge2_Node000001_Node000003" class="edge">
<title>Node1&#45;&gt;Node3</title>
<g id="a_edge2_Node000001_Node000003"><a xlink:title=" ">
<path fill="none" stroke="#63b8ff" d="M180.42,-116.06C157.31,-96.46 107.58,-54.28 79.08,-30.11"/>
<polygon fill="#63b8ff" stroke="#63b8ff" points="81.35,-27.44 71.46,-23.65 76.82,-32.78 81.35,-27.44"/>
</a>
</g>
</g>
<!-- Node4 -->
<g id="Node000004" class="node">
<title>Node4</title>
<g id="a_Node000004"><a xlink:title=" ">
<polygon fill="#e0e0e0" stroke="#999999" points="267,-22.25 212.75,-22.25 212.75,0 267,0 267,-22.25"/>
<text text-anchor="middle" x="239.88" y="-8.75" font-family="Helvetica,sans-Serif" font-size="10.00">stddef.h</text>
</a>
</g>
</g>
<!-- Node1&#45;&gt;Node4 -->
<g id="edge3_Node000001_Node000004" class="edge">
<title>Node1&#45;&gt;Node4</title>
<g id="a_edge3_Node000001_Node000004"><a xlink:title=" ">
<path fill="none" stroke="#63b8ff" d="M205.28,-116.26C214.59,-107.71 226.73,-94.7 232.88,-80.5 239.26,-65.74 240.86,-47.58 240.95,-33.68"/>
<polygon fill="#63b8ff" stroke="#63b8ff" points="244.45,-33.77 240.73,-23.85 237.45,-33.93 244.45,-33.77"/>
</a>
</g>
</g>
<!-- Node5 -->
<g id="Node000005" class="node">
<title>Node5</title>
<g id="a_Node000005"><a xlink:href="mutt_2lib_8h.html" target="_top" xlink:title="Convenience wrapper for the library headers.">
<polygon fill="#fff0f0" stroke="red" points="223.75,-80.5 162,-80.5 162,-58.25 223.75,-58.25 223.75,-80.5"/>
<text text-anchor="middle" x="192.88" y="-67" font-family="Helvetica,sans-Serif" font-size="10.00">mutt/lib.h</text>
</a>
</g>
</g>
<!-- Node1&#45;&gt;Node5 -->
<g id="edge4_Node000001_Node000005" class="edge">
<title>Node1&#45;&gt;Node5</title>
<g id="a_edge4_Node000001_Node000005"><a xlink:title=" ">
<path fill="none" stroke="#63b8ff" d="M192.88,-116.04C192.88,-109.37 192.88,-100.49 192.88,-92.34"/>
<polygon fill="#63b8ff" stroke="#63b8ff" points="196.38,-92.42 192.88,-82.42 189.38,-92.42 196.38,-92.42"/>
</a>
</g>
</g>
<!-- Node54 -->
<g id="Node000054" class="node">
<title>Node54</title>
<g id="a_Node000054"><a xlink:href="config_2lib_8h.html" target="_top" xlink:title="Convenience wrapper for the config headers.">
<polygon fill="#fff0f0" stroke="red" points="67.75,-80.5 0,-80.5 0,-58.25 67.75,-58.25 67.75,-80.5"/>
<text text-anchor="middle" x="33.88" y="-67" font-family="Helvetica,sans-Serif" font-size="10.00">config/lib.h</text>
</a>
</g>
</g>
<!-- Node1&#45;&gt;Node54 -->
<g id="edge7_Node000001_Node000054" class="edge">
<title>Node1&#45;&gt;Node54</title>
<g id="a_edge7_Node000001_Node000054"><a xlink:title=" ">
<path fill="none" stroke="#63b8ff" d="M162.97,-116.04C137.87,-107.17 101.8,-94.41 74.16,-84.63"/>
<polygon fill="#63b8ff" stroke="#63b8ff" points="75.67,-81.45 65.07,-81.41 73.33,-88.05 75.67,-81.45"/>
</a>
</g>
</g>
<!-- Node69 -->
<g id="Node000069" class="node">
<title>Node69</title>
<g id="a_Node000069"><a xlink:href="core_2lib_8h.html" target="_top" xlink:title="Convenience wrapper for the core headers.">
<polygon fill="#fff0f0" stroke="red" points="339.62,-80.5 280.12,-80.5 280.12,-58.25 339.62,-58.25 339.62,-80.5"/>
<text text-anchor="middle" x="309.88" y="-67" font-family="Helvetica,sans-Serif" font-size="10.00">core/lib.h</text>
</a>
</g>
</g>
<!-- Node1&#45;&gt;Node69 -->
<g id="edge9_Node000001_Node000069" class="edge">
<title>Node1&#45;&gt;Node69</title>
<g id="a_edge9_Node000001_Node000069"><a xlink:title=" ">
<path fill="none" stroke="#63b8ff" d="M214.88,-116.04C232.61,-107.52 257.79,-95.42 277.77,-85.81"/>
<polygon fill="#63b8ff" stroke="#63b8ff" points="279.11,-89.05 286.6,-81.56 276.07,-82.74 279.11,-89.05"/>
</a>
</g>
</g>
<!-- Node80 -->
<g id="Node000080" class="node">
<title>Node80</title>
<g id="a_Node000080"><a xlink:href="notmuch_2module__data_8h.html" target="_top" xlink:title="Notmuch private Module data.">
<polygon fill="white" stroke="#666666" points="442.38,-80.5 357.38,-80.5 357.38,-58.25 442.38,-58.25 442.38,-80.5"/>
<text text-anchor="middle" x="399.88" y="-67" font-family="Helvetica,sans-Serif" font-size="10.00">module_data.h</text>
</a>
</g>
</g>
<!-- Node1&#45;&gt;Node80 -->
<g id="edge10_Node000001_Node000080" class="edge">
<title>Node1&#45;&gt;Node80</title>
<g id="a_edge10_Node000001_Node000080"><a xlink:title=" ">
<path fill="none" stroke="#63b8ff" d="M231.81,-116.04C265.35,-106.93 313.95,-93.72 350.27,-83.86"/>
<polygon fill="#63b8ff" stroke="#63b8ff" points="350.92,-87.3 359.65,-81.3 349.09,-80.55 350.92,-87.3"/>
</a>
</g>
</g>
<!-- Node5&#45;&gt;Node2 -->
<g id="edge5_Node000005_Node000002" class="edge">
<title>Node5&#45;&gt;Node2</title>
<g id="a_edge5_Node000005_Node000002"><a xlink:title=" ">
<path fill="none" stroke="#63b8ff" d="M183.85,-57.79C177.48,-50.33 168.77,-40.12 161.19,-31.25"/>
<polygon fill="#63b8ff" stroke="#63b8ff" points="164,-29.14 154.85,-23.81 158.67,-33.69 164,-29.14"/>
</a>
</g>
</g>
<!-- Node5&#45;&gt;Node4 -->
<g id="edge6_Node000005_Node000004" class="edge">
<title>Node5&#45;&gt;Node4</title>
<g id="a_edge6_Node000005_Node000004"><a xlink:title=" ">
<path fill="none" stroke="#63b8ff" d="M201.72,-57.79C207.95,-50.33 216.48,-40.12 223.9,-31.25"/>
<polygon fill="#63b8ff" stroke="#63b8ff" points="226.38,-33.74 230.1,-23.82 221.01,-29.25 226.38,-33.74"/>
</a>
</g>
</g>
<!-- Node54&#45;&gt;Node3 -->
<g id="edge8_Node000054_Node000003" class="edge">
<title>Node54&#45;&gt;Node3</title>
<g id="a_edge8_Node000054_Node000003"><a xlink:title=" ">
<path fill="none" stroke="#63b8ff" d="M38.39,-57.79C41.34,-50.88 45.29,-41.61 48.87,-33.23"/>
<polygon fill="#63b8ff" stroke="#63b8ff" points="52.08,-34.62 52.79,-24.05 45.64,-31.87 52.08,-34.62"/>
</a>
</g>
</g>
</g>
</svg>
