<?xml version="1.0" encoding="UTF-8" standalone="no"?>
<!DOCTYPE svg PUBLIC "-//W3C//DTD SVG 1.1//EN"
 "http://www.w3.org/Graphics/SVG/1.1/DTD/svg11.dtd">
<!-- Generated by graphviz version 7.1.0 (0)
 -->
<!-- Title: nm_read_entire_thread Pages: 1 -->
<svg width="401pt" height="510pt"
 viewBox="0.00 0.00 401.00 510.00" xmlns="http://www.w3.org/2000/svg" xmlns:xlink="http://www.w3.org/1999/xlink">
<g id="graph0" class="graph" transform="scale(1 1) rotate(0) translate(4 506)">
<title>nm_read_entire_thread</title>
<!-- Node1 -->
<g id="node1" class="node">
<title>Node1</title>
<g id="a_node1"><a xlink:title="Get the entire thread of an email.">
<polygon fill="#999999" stroke="#666666" points="125,-261 0,-261 0,-242 125,-242 125,-261"/>
<text text-anchor="middle" x="62.5" y="-249" font-family="Helvetica,sans-Serif" font-size="10.00">nm_read_entire_thread</text>
</a>
</g>
</g>
<!-- Node2 -->
<g id="node2" class="node">
<title>Node2</title>
<g id="a_node2"><a xlink:href="notmuch_8c.html#a284a1155894b4ed4351ad49ebe5dcd9c" target="_top" xlink:title="Exclude the configured tags.">
<polygon fill="#fff0f0" stroke="red" points="268.5,-502 163.5,-502 163.5,-483 268.5,-483 268.5,-502"/>
<text text-anchor="middle" x="216" y="-490" font-family="Helvetica,sans-Serif" font-size="10.00">apply_exclude_tags</text>
</a>
</g>
</g>
<!-- Node1&#45;&gt;Node2 -->
<g id="edge1" class="edge">
<title>Node1&#45;&gt;Node2</title>
<path fill="none" stroke="#63b8ff" d="M64.89,-261.14C70.32,-295.43 93.3,-412.66 161,-474.5 161.78,-475.21 162.59,-475.9 163.43,-476.56"/>
<polygon fill="#63b8ff" stroke="#63b8ff" points="161.57,-479.52 171.91,-481.83 165.26,-473.58 161.57,-479.52"/>
</g>
<!-- Node27 -->
<g id="node3" class="node">
<title>Node27</title>
<g id="a_node3"><a xlink:href="pool_8c.html#a41cba27c25d33cb6822789a2856093f2" target="_top" xlink:title="Get a Buffer from the pool.">
<polygon fill="#fff0f0" stroke="red" points="254.5,-465 177.5,-465 177.5,-446 254.5,-446 254.5,-465"/>
<text text-anchor="middle" x="216" y="-453" font-family="Helvetica,sans-Serif" font-size="10.00">buf_pool_get</text>
</a>
</g>
</g>
<!-- Node1&#45;&gt;Node27 -->
<g id="edge2" class="edge">
<title>Node1&#45;&gt;Node27</title>
<path fill="none" stroke="#63b8ff" d="M65.82,-261.22C73.63,-291.83 101.85,-387.18 161,-437.5 162.9,-439.11 164.94,-440.58 167.09,-441.92"/>
<polygon fill="#63b8ff" stroke="#63b8ff" points="165.16,-444.87 175.66,-446.31 168.35,-438.64 165.16,-444.87"/>
</g>
<!-- Node33 -->
<g id="node4" class="node">
<title>Node33</title>
<g id="a_node4"><a xlink:href="pool_8c.html#a4cc6068279461cb8628219586dfa35a1" target="_top" xlink:title="Return a Buffer to the pool.">
<polygon fill="#fff0f0" stroke="red" points="263.5,-428 168.5,-428 168.5,-409 263.5,-409 263.5,-428"/>
<text text-anchor="middle" x="216" y="-416" font-family="Helvetica,sans-Serif" font-size="10.00">buf_pool_release</text>
</a>
</g>
</g>
<!-- Node1&#45;&gt;Node33 -->
<g id="edge3" class="edge">
<title>Node1&#45;&gt;Node33</title>
<path fill="none" stroke="#63b8ff" d="M67.28,-261.49C77.85,-288.13 110.31,-361.44 161,-400.5 162.3,-401.5 163.65,-402.44 165.05,-403.34"/>
<polygon fill="#63b8ff" stroke="#63b8ff" points="163,-406.21 173.47,-407.82 166.29,-400.03 163,-406.21"/>
</g>
<!-- Node18 -->
<g id="node5" class="node">
<title>Node18</title>
<g id="a_node5"><a xlink:href="buffer_8c.html#a02123807d31181ac701b566226e93b33" target="_top" xlink:title="Format a string overwriting a Buffer.">
<polygon fill="#fff0f0" stroke="red" points="247.5,-391 184.5,-391 184.5,-372 247.5,-372 247.5,-391"/>
<text text-anchor="middle" x="216" y="-379" font-family="Helvetica,sans-Serif" font-size="10.00">buf_printf</text>
</a>
</g>
</g>
<!-- Node1&#45;&gt;Node18 -->
<g id="edge4" class="edge">
<title>Node1&#45;&gt;Node18</title>
<path fill="none" stroke="#63b8ff" d="M69.5,-261.45C83.08,-283.15 118.32,-335.04 161,-363.5 164.93,-366.12 169.28,-368.39 173.75,-370.35"/>
<polygon fill="#63b8ff" stroke="#63b8ff" points="172.26,-373.53 182.85,-373.83 174.76,-366.99 172.26,-373.53"/>
</g>
<!-- Node36 -->
<g id="node6" class="node">
<title>Node36</title>
<g id="a_node6"><a xlink:href="buffer_8h.html#a728ebc5a947b77c8d56db44ce553a7ab" target="_top" xlink:title="Convert a buffer to a const char * &quot;string&quot;.">
<polygon fill="white" stroke="#666666" points="248,-354 184,-354 184,-335 248,-335 248,-354"/>
<text text-anchor="middle" x="216" y="-342" font-family="Helvetica,sans-Serif" font-size="10.00">buf_string</text>
</a>
</g>
</g>
<!-- Node1&#45;&gt;Node36 -->
<g id="edge5" class="edge">
<title>Node1&#45;&gt;Node36</title>
<path fill="none" stroke="#63b8ff" d="M73.79,-261.33C90.73,-277.04 126.12,-307.95 161,-326.5 164.87,-328.56 169.01,-330.44 173.22,-332.15"/>
<polygon fill="#63b8ff" stroke="#63b8ff" points="171.69,-335.31 182.29,-335.51 174.13,-328.75 171.69,-335.31"/>
</g>
<!-- Node37 -->
<g id="node7" class="node">
<title>Node37</title>
<g id="a_node7"><a xlink:href="notmuch_8c.html#a5ea2e0203ec9a6bf6c9d346d7178c9da" target="_top" xlink:title="Find a Notmuch message.">
<polygon fill="#fff0f0" stroke="red" points="265,-317 167,-317 167,-298 265,-298 265,-317"/>
<text text-anchor="middle" x="216" y="-305" font-family="Helvetica,sans-Serif" font-size="10.00">get_nm_message</text>
</a>
</g>
</g>
<!-- Node1&#45;&gt;Node37 -->
<g id="edge6" class="edge">
<title>Node1&#45;&gt;Node37</title>
<path fill="none" stroke="#63b8ff" d="M87.81,-261.37C107.46,-269.24 135.88,-280.43 161,-289.5 165.12,-290.99 169.43,-292.5 173.74,-293.98"/>
<polygon fill="#63b8ff" stroke="#63b8ff" points="172.32,-297.2 182.92,-297.09 174.57,-290.57 172.32,-297.2"/>
</g>
<!-- Node40 -->
<g id="node8" class="node">
<title>Node40</title>
<g id="a_node8"><a xlink:href="core_2mailbox_8c.html#af09ac36728ca3255523cd3b0bfd1f172" target="_top" xlink:title="Notify observers of a change to a Mailbox.">
<polygon fill="#fff0f0" stroke="red" points="264.5,-280 167.5,-280 167.5,-261 264.5,-261 264.5,-280"/>
<text text-anchor="middle" x="216" y="-268" font-family="Helvetica,sans-Serif" font-size="10.00">mailbox_changed</text>
</a>
</g>
</g>
<!-- Node1&#45;&gt;Node40 -->
<g id="edge7" class="edge">
<title>Node1&#45;&gt;Node40</title>
<path fill="none" stroke="#63b8ff" d="M125.12,-259.23C135.36,-260.51 145.95,-261.84 156.12,-263.12"/>
<polygon fill="#63b8ff" stroke="#63b8ff" points="155.52,-266.57 165.87,-264.34 156.39,-259.62 155.52,-266.57"/>
</g>
<!-- Node45 -->
<g id="node9" class="node">
<title>Node45</title>
<g id="a_node9"><a xlink:href="mutt_2date_8c.html#ad1e6304a91c7b6f3c266a9b17c1740fe" target="_top" xlink:title="Return the number of seconds since the Unix epoch.">
<polygon fill="#fff0f0" stroke="red" points="260.5,-243 171.5,-243 171.5,-224 260.5,-224 260.5,-243"/>
<text text-anchor="middle" x="216" y="-231" font-family="Helvetica,sans-Serif" font-size="10.00">mutt_date_now</text>
</a>
</g>
</g>
<!-- Node1&#45;&gt;Node45 -->
<g id="edge8" class="edge">
<title>Node1&#45;&gt;Node45</title>
<path fill="none" stroke="#63b8ff" d="M125.12,-244.18C136.55,-242.82 148.43,-241.41 159.66,-240.08"/>
<polygon fill="#63b8ff" stroke="#63b8ff" points="160.06,-243.55 169.58,-238.9 159.23,-236.6 160.06,-243.55"/>
</g>
<!-- Node47 -->
<g id="node10" class="node">
<title>Node47</title>
<g id="a_node10"><a xlink:href="notmuch_2db_8c.html#a19b35f35a4315f940b355e3b6f776846" target="_top" xlink:title="Get the Notmuch database.">
<polygon fill="#fff0f0" stroke="red" points="250,-206 182,-206 182,-187 250,-187 250,-206"/>
<text text-anchor="middle" x="216" y="-194" font-family="Helvetica,sans-Serif" font-size="10.00">nm_db_get</text>
</a>
</g>
</g>
<!-- Node1&#45;&gt;Node47 -->
<g id="edge9" class="edge">
<title>Node1&#45;&gt;Node47</title>
<path fill="none" stroke="#63b8ff" d="M89.94,-241.61C109.53,-234.32 136.9,-224.19 161,-215.5 165.76,-213.79 170.76,-212 175.71,-210.24"/>
<polygon fill="#63b8ff" stroke="#63b8ff" points="176.69,-213.61 184.96,-206.98 174.36,-207.01 176.69,-213.61"/>
</g>
<!-- Node96 -->
<g id="node11" class="node">
<title>Node96</title>
<g id="a_node11"><a xlink:href="notmuch_2db_8c.html#ab42f2a23cdaa9f6c5653fa7e9f9a8911" target="_top" xlink:title="Close the Notmuch database.">
<polygon fill="#fff0f0" stroke="red" points="259,-169 173,-169 173,-150 259,-150 259,-169"/>
<text text-anchor="middle" x="216" y="-157" font-family="Helvetica,sans-Serif" font-size="10.00">nm_db_release</text>
</a>
</g>
</g>
<!-- Node1&#45;&gt;Node96 -->
<g id="edge10" class="edge">
<title>Node1&#45;&gt;Node96</title>
<path fill="none" stroke="#63b8ff" d="M74.44,-241.52C91.71,-226.2 126.87,-196.73 161,-178.5 164.24,-176.77 167.68,-175.14 171.18,-173.62"/>
<polygon fill="#63b8ff" stroke="#63b8ff" points="172.37,-176.92 180.36,-169.96 169.77,-170.41 172.37,-176.92"/>
</g>
<!-- Node91 -->
<g id="node12" class="node">
<title>Node91</title>
<g id="a_node12"><a xlink:href="notmuch_2mdata_8c.html#a8906852e9cd707fc4e4fb61a264799dc" target="_top" xlink:title="Get the Notmuch Mailbox data.">
<polygon fill="white" stroke="#666666" points="393,-56 307,-56 307,-37 393,-37 393,-56"/>
<text text-anchor="middle" x="350" y="-44" font-family="Helvetica,sans-Serif" font-size="10.00">nm_mdata_get</text>
</a>
</g>
</g>
<!-- Node1&#45;&gt;Node91 -->
<g id="edge11" class="edge">
<title>Node1&#45;&gt;Node91</title>
<path fill="none" stroke="#63b8ff" d="M69.59,-241.79C83.33,-220.61 118.89,-169.89 161,-141.5 204.01,-112.51 225.03,-126.53 271,-102.5 292.04,-91.5 313.82,-75.4 328.99,-63.29"/>
<polygon fill="#63b8ff" stroke="#63b8ff" points="330.81,-66.32 336.35,-57.3 326.39,-60.9 330.81,-66.32"/>
</g>
<!-- Node99 -->
<g id="node13" class="node">
<title>Node99</title>
<g id="a_node13"><a xlink:href="progress_8c.html#ab4c7a63427cdcaae2b1147ff6f010af4" target="_top" xlink:title="Free a Progress Bar.">
<polygon fill="#fff0f0" stroke="red" points="256.5,-93 175.5,-93 175.5,-74 256.5,-74 256.5,-93"/>
<text text-anchor="middle" x="216" y="-81" font-family="Helvetica,sans-Serif" font-size="10.00">progress_free</text>
</a>
</g>
</g>
<!-- Node1&#45;&gt;Node99 -->
<g id="edge12" class="edge">
<title>Node1&#45;&gt;Node99</title>
<path fill="none" stroke="#63b8ff" d="M67.75,-241.73C79.24,-216.34 113.31,-147.42 161,-107.5 165.11,-104.06 169.79,-101.02 174.64,-98.37"/>
<polygon fill="#63b8ff" stroke="#63b8ff" points="175.89,-101.65 183.34,-94.12 172.82,-95.37 175.89,-101.65"/>
</g>
<!-- Node111 -->
<g id="node14" class="node">
<title>Node111</title>
<g id="a_node14"><a xlink:href="notmuch_8c.html#ae623124dfaf26d5005567bda66b288ff" target="_top" xlink:title="Set up the Progress Bar.">
<polygon fill="#fff0f0" stroke="red" points="260,-56 172,-56 172,-37 260,-37 260,-56"/>
<text text-anchor="middle" x="216" y="-44" font-family="Helvetica,sans-Serif" font-size="10.00">progress_setup</text>
</a>
</g>
</g>
<!-- Node1&#45;&gt;Node111 -->
<g id="edge13" class="edge">
<title>Node1&#45;&gt;Node111</title>
<path fill="none" stroke="#63b8ff" d="M65.86,-241.82C73.77,-211.33 102.27,-116.31 161,-65.5 162.47,-64.23 164.04,-63.04 165.67,-61.92"/>
<polygon fill="#63b8ff" stroke="#63b8ff" points="167.26,-65.04 174.28,-57.11 163.85,-58.93 167.26,-65.04"/>
</g>
<!-- Node143 -->
<g id="node15" class="node">
<title>Node143</title>
<g id="a_node15"><a xlink:href="notmuch_8c.html#a73570c4d26bc98c4862a64d96859d09f" target="_top" xlink:title="Perform a query with threads.">
<polygon fill="#fff0f0" stroke="red" points="271,-19 161,-19 161,0 271,0 271,-19"/>
<text text-anchor="middle" x="216" y="-7" font-family="Helvetica,sans-Serif" font-size="10.00">read_threads_query</text>
</a>
</g>
</g>
<!-- Node1&#45;&gt;Node143 -->
<g id="edge15" class="edge">
<title>Node1&#45;&gt;Node143</title>
<path fill="none" stroke="#63b8ff" d="M64.92,-241.89C70.47,-207.74 93.82,-90.9 161,-28.5 162.23,-27.36 163.53,-26.29 164.89,-25.28"/>
<polygon fill="#63b8ff" stroke="#63b8ff" points="166.46,-28.42 173.24,-20.28 162.86,-22.41 166.46,-28.42"/>
</g>
<!-- Node111&#45;&gt;Node91 -->
<g id="edge14" class="edge">
<title>Node111&#45;&gt;Node91</title>
<path fill="none" stroke="#63b8ff" d="M260.22,-46.5C271.39,-46.5 283.54,-46.5 295.18,-46.5"/>
<polygon fill="#63b8ff" stroke="#63b8ff" points="295.07,-50 305.07,-46.5 295.07,-43 295.07,-50"/>
</g>
<!-- Node143&#45;&gt;Node91 -->
<g id="edge16" class="edge">
<title>Node143&#45;&gt;Node91</title>
<path fill="none" stroke="#63b8ff" d="M252.37,-19.42C267.76,-23.73 286,-28.84 302.47,-33.46"/>
<polygon fill="#63b8ff" stroke="#63b8ff" points="301.5,-36.82 312.07,-36.15 303.39,-30.08 301.5,-36.82"/>
</g>
</g>
</svg>
