<?xml version="1.0" encoding="UTF-8" standalone="no"?>
<!DOCTYPE svg PUBLIC "-//W3C//DTD SVG 1.1//EN"
 "http://www.w3.org/Graphics/SVG/1.1/DTD/svg11.dtd">
<!-- Generated by graphviz version 7.1.0 (0)
 -->
<!-- Title: notmuch/edata.c Pages: 1 -->
<svg width="370pt" height="82pt"
 viewBox="0.00 0.00 370.00 82.00" xmlns="http://www.w3.org/2000/svg" xmlns:xlink="http://www.w3.org/1999/xlink">
<g id="graph0" class="graph" transform="scale(1 1) rotate(0) translate(4 78)">
<title>notmuch/edata.c</title>
<!-- Node1 -->
<g id="node1" class="node">
<title>Node1</title>
<g id="a_node1"><a xlink:title="Notmuch&#45;specific Email data.">
<polygon fill="#999999" stroke="#666666" points="224.5,-74 129.5,-74 129.5,-55 224.5,-55 224.5,-74"/>
<text text-anchor="middle" x="177" y="-62" font-family="Helvetica,sans-Serif" font-size="10.00">notmuch/edata.c</text>
</a>
</g>
</g>
<!-- Node2 -->
<g id="node2" class="node">
<title>Node2</title>
<g id="a_node2"><a xlink:title=" ">
<polygon fill="#e0e0e0" stroke="#999999" points="54,-19 0,-19 0,0 54,0 54,-19"/>
<text text-anchor="middle" x="27" y="-7" font-family="Helvetica,sans-Serif" font-size="10.00">config.h</text>
</a>
</g>
</g>
<!-- Node1&#45;&gt;Node2 -->
<g id="edge1" class="edge">
<title>Node1&#45;&gt;Node2</title>
<path fill="none" stroke="#63b8ff" d="M151.55,-54.51C127.24,-45.92 90.34,-32.88 63.01,-23.22"/>
<polygon fill="#63b8ff" stroke="#63b8ff" points="64.34,-19.98 53.75,-19.95 62.01,-26.58 64.34,-19.98"/>
</g>
<!-- Node3 -->
<g id="node3" class="node">
<title>Node3</title>
<g id="a_node3"><a xlink:title=" ">
<polygon fill="#e0e0e0" stroke="#999999" points="127.5,-19 72.5,-19 72.5,0 127.5,0 127.5,-19"/>
<text text-anchor="middle" x="100" y="-7" font-family="Helvetica,sans-Serif" font-size="10.00">stddef.h</text>
</a>
</g>
</g>
<!-- Node1&#45;&gt;Node3 -->
<g id="edge2" class="edge">
<title>Node1&#45;&gt;Node3</title>
<path fill="none" stroke="#63b8ff" d="M163.94,-54.51C152.48,-46.62 135.57,-34.98 122.02,-25.65"/>
<polygon fill="#63b8ff" stroke="#63b8ff" points="124.34,-23 114.12,-20.22 120.37,-28.77 124.34,-23"/>
</g>
<!-- Node4 -->
<g id="node4" class="node">
<title>Node4</title>
<g id="a_node4"><a xlink:href="mutt_2lib_8h.html" target="_top" xlink:title="Convenience wrapper for the library headers.">
<polygon fill="#fff0f0" stroke="red" points="208,-19 146,-19 146,0 208,0 208,-19"/>
<text text-anchor="middle" x="177" y="-7" font-family="Helvetica,sans-Serif" font-size="10.00">mutt/lib.h</text>
</a>
</g>
</g>
<!-- Node1&#45;&gt;Node4 -->
<g id="edge3" class="edge">
<title>Node1&#45;&gt;Node4</title>
<path fill="none" stroke="#63b8ff" d="M177,-54.75C177,-48.27 177,-39.16 177,-30.9"/>
<polygon fill="#63b8ff" stroke="#63b8ff" points="180.5,-30.96 177,-20.96 173.5,-30.96 180.5,-30.96"/>
</g>
<!-- Node54 -->
<g id="node5" class="node">
<title>Node54</title>
<g id="a_node5"><a xlink:href="email_2lib_8h.html" target="_top" xlink:title="Structs that make up an email.">
<polygon fill="#fff0f0" stroke="red" points="291.5,-19 226.5,-19 226.5,0 291.5,0 291.5,-19"/>
<text text-anchor="middle" x="259" y="-7" font-family="Helvetica,sans-Serif" font-size="10.00">email/lib.h</text>
</a>
</g>
</g>
<!-- Node1&#45;&gt;Node54 -->
<g id="edge4" class="edge">
<title>Node1&#45;&gt;Node54</title>
<path fill="none" stroke="#63b8ff" d="M190.91,-54.51C203.24,-46.54 221.47,-34.75 235.97,-25.38"/>
<polygon fill="#63b8ff" stroke="#63b8ff" points="237.53,-28.55 244.02,-20.18 233.73,-22.67 237.53,-28.55"/>
</g>
<!-- Node75 -->
<g id="node6" class="node">
<title>Node75</title>
<g id="a_node6"><a xlink:href="notmuch_2edata_8h.html" target="_top" xlink:title="Notmuch&#45;specific Email data.">
<polygon fill="#fff0f0" stroke="red" points="362,-19 310,-19 310,0 362,0 362,-19"/>
<text text-anchor="middle" x="336" y="-7" font-family="Helvetica,sans-Serif" font-size="10.00">edata.h</text>
</a>
</g>
</g>
<!-- Node1&#45;&gt;Node75 -->
<g id="edge5" class="edge">
<title>Node1&#45;&gt;Node75</title>
<path fill="none" stroke="#63b8ff" d="M203.97,-54.51C230.13,-45.79 270.03,-32.49 299.12,-22.79"/>
<polygon fill="#63b8ff" stroke="#63b8ff" points="299.87,-26.23 308.25,-19.75 297.66,-19.59 299.87,-26.23"/>
</g>
</g>
</svg>
