<?xml version="1.0" encoding="UTF-8" standalone="no"?>
<!DOCTYPE svg PUBLIC "-//W3C//DTD SVG 1.1//EN"
 "http://www.w3.org/Graphics/SVG/1.1/DTD/svg11.dtd">
<!-- Generated by graphviz version 7.1.0 (0)
 -->
<!-- Title: nm_db_get Pages: 1 -->
<svg width="360pt" height="373pt"
 viewBox="0.00 0.00 360.00 373.00" xmlns="http://www.w3.org/2000/svg" xmlns:xlink="http://www.w3.org/1999/xlink">
<g id="graph0" class="graph" transform="scale(1 1) rotate(0) translate(4 369)">
<title>nm_db_get</title>
<!-- Node1 -->
<g id="node1" class="node">
<title>Node1</title>
<g id="a_node1"><a xlink:title="Get the Notmuch database.">
<polygon fill="#999999" stroke="#666666" points="352,-188 284,-188 284,-169 352,-169 352,-188"/>
<text text-anchor="middle" x="318" y="-176" font-family="Helvetica,sans-Serif" font-size="10.00">nm_db_get</text>
</a>
</g>
</g>
<!-- Node2 -->
<g id="node2" class="node">
<title>Node2</title>
<g id="a_node2"><a xlink:href="notmuch_8c.html#aa5c63cadd458794511139952c08abf77" target="_top" xlink:title="Create a new query.">
<polygon fill="#fff0f0" stroke="red" points="218,-365 153,-365 153,-346 218,-346 218,-365"/>
<text text-anchor="middle" x="185.5" y="-353" font-family="Helvetica,sans-Serif" font-size="10.00">get_query</text>
</a>
</g>
</g>
<!-- Node1&#45;&gt;Node2 -->
<g id="edge1" class="edge">
<title>Node1&#45;&gt;Node2</title>
<path fill="none" stroke="#63b8ff" d="M313.69,-199.73C307.25,-233.8 289.81,-300.6 248,-337.5 239.74,-344.79 228.67,-349.13 218.2,-351.72"/>
<polygon fill="#63b8ff" stroke="#63b8ff" points="317.13,-200.34 315.39,-189.89 310.24,-199.15 317.13,-200.34"/>
</g>
<!-- Node5 -->
<g id="node3" class="node">
<title>Node5</title>
<g id="a_node3"><a xlink:href="notmuch_2db_8c.html#aca97e4209036f41430d270c44c20cd51" target="_top" xlink:title="Start a long transaction.">
<polygon fill="#fff0f0" stroke="red" points="239.5,-328 131.5,-328 131.5,-309 239.5,-309 239.5,-328"/>
<text text-anchor="middle" x="185.5" y="-316" font-family="Helvetica,sans-Serif" font-size="10.00">nm_db_longrun_init</text>
</a>
</g>
</g>
<!-- Node1&#45;&gt;Node5 -->
<g id="edge2" class="edge">
<title>Node1&#45;&gt;Node5</title>
<path fill="none" stroke="#63b8ff" d="M310.82,-199.02C301.58,-226.23 281.55,-273.9 248,-300.5 243.9,-303.75 239.24,-306.41 234.35,-308.59"/>
<polygon fill="#63b8ff" stroke="#63b8ff" points="314.04,-200.45 313.76,-189.86 307.37,-198.31 314.04,-200.45"/>
</g>
<!-- Node14 -->
<g id="node4" class="node">
<title>Node14</title>
<g id="a_node4"><a xlink:href="notmuch_8c.html#a424ba19f36b097c879ff65793c8ef1d9" target="_top" xlink:title="Fill a list with all notmuch tags.">
<polygon fill="#fff0f0" stroke="red" points="230.5,-291 140.5,-291 140.5,-272 230.5,-272 230.5,-291"/>
<text text-anchor="middle" x="185.5" y="-279" font-family="Helvetica,sans-Serif" font-size="10.00">nm_get_all_tags</text>
</a>
</g>
</g>
<!-- Node1&#45;&gt;Node14 -->
<g id="edge3" class="edge">
<title>Node1&#45;&gt;Node14</title>
<path fill="none" stroke="#63b8ff" d="M304.36,-197.66C291.87,-215.3 271.29,-241.14 248,-257.5 239.75,-263.3 229.9,-267.95 220.53,-271.55"/>
<polygon fill="#63b8ff" stroke="#63b8ff" points="307.11,-199.83 309.88,-189.61 301.34,-195.87 307.11,-199.83"/>
</g>
<!-- Node15 -->
<g id="node5" class="node">
<title>Node15</title>
<g id="a_node5"><a xlink:href="group__mx__mbox__sync.html#gaf34af0a876b8063034f021754bf66886" target="_top" xlink:title="Save changes to the Mailbox &#45; Implements MxOps::mbox_sync() &#45;.">
<polygon fill="white" stroke="#666666" points="87,-56 0,-56 0,-37 87,-37 87,-56"/>
<text text-anchor="middle" x="43.5" y="-44" font-family="Helvetica,sans-Serif" font-size="10.00">nm_mbox_sync</text>
</a>
</g>
</g>
<!-- Node1&#45;&gt;Node15 -->
<g id="edge4" class="edge">
<title>Node1&#45;&gt;Node15</title>
<path fill="none" stroke="#63b8ff" d="M298.31,-195.42C285.26,-206.05 266.85,-218.79 248,-224.5 194.83,-240.6 169.54,-254.84 123,-224.5 62.45,-185.03 48.28,-87.16 45.26,-56.11"/>
<polygon fill="#63b8ff" stroke="#63b8ff" points="300.31,-198.32 305.65,-189.17 295.77,-192.99 300.31,-198.32"/>
</g>
<!-- Node16 -->
<g id="node6" class="node">
<title>Node16</title>
<g id="a_node6"><a xlink:href="notmuch_8c.html#ad84349cdd5669f38ce04692c048dcfc8" target="_top" xlink:title="Is a message still visible in the query?">
<polygon fill="#fff0f0" stroke="red" points="239.5,-215.5 131.5,-215.5 131.5,-185.5 239.5,-185.5 239.5,-215.5"/>
<text text-anchor="start" x="139.5" y="-203.5" font-family="Helvetica,sans-Serif" font-size="10.00">nm_message_is_still</text>
<text text-anchor="middle" x="185.5" y="-192.5" font-family="Helvetica,sans-Serif" font-size="10.00">_queried</text>
</a>
</g>
</g>
<!-- Node1&#45;&gt;Node16 -->
<g id="edge5" class="edge">
<title>Node1&#45;&gt;Node16</title>
<path fill="none" stroke="#63b8ff" d="M272.7,-185.97C262.19,-187.74 250.87,-189.65 239.99,-191.48"/>
<polygon fill="#63b8ff" stroke="#63b8ff" points="272.96,-189.47 282.24,-184.36 271.8,-182.57 272.96,-189.47"/>
</g>
<!-- Node17 -->
<g id="node7" class="node">
<title>Node17</title>
<g id="a_node7"><a xlink:href="notmuch_8c.html#a8ac57cce7f11e7ce9b485d9fce4c2975" target="_top" xlink:title="Get the entire thread of an email.">
<polygon fill="#fff0f0" stroke="red" points="248,-167 123,-167 123,-148 248,-148 248,-167"/>
<text text-anchor="middle" x="185.5" y="-155" font-family="Helvetica,sans-Serif" font-size="10.00">nm_read_entire_thread</text>
</a>
</g>
</g>
<!-- Node1&#45;&gt;Node17 -->
<g id="edge6" class="edge">
<title>Node1&#45;&gt;Node17</title>
<path fill="none" stroke="#63b8ff" d="M272.39,-171.32C264.65,-170.08 256.49,-168.76 248.39,-167.46"/>
<polygon fill="#63b8ff" stroke="#63b8ff" points="271.81,-174.77 282.24,-172.91 272.92,-167.86 271.81,-174.77"/>
</g>
<!-- Node19 -->
<g id="node8" class="node">
<title>Node19</title>
<g id="a_node8"><a xlink:href="notmuch_8c.html#a76a97a39757a2e0441d23eab1ba5a221" target="_top" xlink:title="Add a message to the Notmuch database.">
<polygon fill="#fff0f0" stroke="red" points="241.5,-130 129.5,-130 129.5,-111 241.5,-111 241.5,-130"/>
<text text-anchor="middle" x="185.5" y="-118" font-family="Helvetica,sans-Serif" font-size="10.00">nm_record_message</text>
</a>
</g>
</g>
<!-- Node1&#45;&gt;Node19 -->
<g id="edge7" class="edge">
<title>Node1&#45;&gt;Node19</title>
<path fill="none" stroke="#63b8ff" d="M292.09,-162.7C279.26,-155.01 263.16,-146.03 248,-139.5 240.2,-136.14 231.61,-133.1 223.39,-130.48"/>
<polygon fill="#63b8ff" stroke="#63b8ff" points="289.95,-165.49 300.31,-167.73 293.61,-159.52 289.95,-165.49"/>
</g>
<!-- Node54 -->
<g id="node9" class="node">
<title>Node54</title>
<g id="a_node9"><a xlink:href="group__mx__tags__commit.html#gac0f4fdd35b61c036a56539d9fbfa07e7" target="_top" xlink:title="Save the tags to a message &#45; Implements MxOps::tags_commit() &#45;.">
<polygon fill="white" stroke="#666666" points="233,-93 138,-93 138,-74 233,-74 233,-93"/>
<text text-anchor="middle" x="185.5" y="-81" font-family="Helvetica,sans-Serif" font-size="10.00">nm_tags_commit</text>
</a>
</g>
</g>
<!-- Node1&#45;&gt;Node54 -->
<g id="edge8" class="edge">
<title>Node1&#45;&gt;Node54</title>
<path fill="none" stroke="#63b8ff" d="M304.25,-159.43C291.81,-142.22 271.38,-117.37 248,-102.5 242.25,-98.84 235.75,-95.85 229.18,-93.41"/>
<polygon fill="#63b8ff" stroke="#63b8ff" points="301.16,-161.11 309.75,-167.31 306.9,-157.11 301.16,-161.11"/>
</g>
<!-- Node55 -->
<g id="node10" class="node">
<title>Node55</title>
<g id="a_node10"><a xlink:href="notmuch_8c.html#adc3bd6b21e3f137f3bb6a9b90b39be38" target="_top" xlink:title="Delete a file.">
<polygon fill="white" stroke="#666666" points="234.5,-56 136.5,-56 136.5,-37 234.5,-37 234.5,-56"/>
<text text-anchor="middle" x="185.5" y="-44" font-family="Helvetica,sans-Serif" font-size="10.00">remove_filename</text>
</a>
</g>
</g>
<!-- Node1&#45;&gt;Node55 -->
<g id="edge9" class="edge">
<title>Node1&#45;&gt;Node55</title>
<path fill="none" stroke="#63b8ff" d="M309.78,-158.12C299.78,-132.77 279.33,-89.87 248,-65.5 243.24,-61.79 237.75,-58.81 232.05,-56.4"/>
<polygon fill="#63b8ff" stroke="#63b8ff" points="306.43,-159.14 313.22,-167.28 312.98,-156.69 306.43,-159.14"/>
</g>
<!-- Node56 -->
<g id="node11" class="node">
<title>Node56</title>
<g id="a_node11"><a xlink:href="notmuch_8c.html#a9007300d0a2336c11035d0d34f9458aa" target="_top" xlink:title="Rename the file.">
<polygon fill="#fff0f0" stroke="red" points="234.5,-19 136.5,-19 136.5,0 234.5,0 234.5,-19"/>
<text text-anchor="middle" x="185.5" y="-7" font-family="Helvetica,sans-Serif" font-size="10.00">rename_filename</text>
</a>
</g>
</g>
<!-- Node1&#45;&gt;Node56 -->
<g id="edge11" class="edge">
<title>Node1&#45;&gt;Node56</title>
<path fill="none" stroke="#63b8ff" d="M313.06,-157.63C305.88,-125.29 287.58,-63.19 248,-28.5 243.8,-24.82 238.89,-21.85 233.72,-19.45"/>
<polygon fill="#63b8ff" stroke="#63b8ff" points="309.61,-158.23 315.06,-167.32 316.47,-156.82 309.61,-158.23"/>
</g>
<!-- Node55&#45;&gt;Node15 -->
<g id="edge10" class="edge">
<title>Node55&#45;&gt;Node15</title>
<path fill="none" stroke="#63b8ff" d="M124.86,-46.5C112.18,-46.5 99.04,-46.5 87.15,-46.5"/>
<polygon fill="#63b8ff" stroke="#63b8ff" points="124.81,-50 134.81,-46.5 124.81,-43 124.81,-50"/>
</g>
<!-- Node56&#45;&gt;Node15 -->
<g id="edge12" class="edge">
<title>Node56&#45;&gt;Node15</title>
<path fill="none" stroke="#63b8ff" d="M136.01,-22.31C118.36,-26.98 98.69,-32.18 82.12,-36.56"/>
<polygon fill="#63b8ff" stroke="#63b8ff" points="136.75,-25.74 145.52,-19.8 134.96,-18.97 136.75,-25.74"/>
</g>
</g>
</svg>
