<?xml version="1.0" encoding="UTF-8" standalone="no"?>
<!DOCTYPE svg PUBLIC "-//W3C//DTD SVG 1.1//EN"
 "http://www.w3.org/Graphics/SVG/1.1/DTD/svg11.dtd">
<!-- Generated by graphviz version 12.2.1 (20241206.2353)
 -->
<!-- Title: update_message_path Pages: 1 -->
<svg width="299pt" height="110pt"
 viewBox="0.00 0.00 298.75 110.25" xmlns="http://www.w3.org/2000/svg" xmlns:xlink="http://www.w3.org/1999/xlink">
<g id="graph0" class="graph" transform="scale(1 1) rotate(0) translate(4 106.25)">
<title>update_message_path</title>
<!-- Node1 -->
<g id="Node000001" class="node">
<title>Node1</title>
<g id="a_Node000001"><a xlink:title="Set the path for a message.">
<polygon fill="#999999" stroke="#666666" points="290.75,-62.25 170.5,-62.25 170.5,-40 290.75,-40 290.75,-62.25"/>
<text text-anchor="middle" x="230.62" y="-48.75" font-family="Helvetica,sans-Serif" font-size="10.00">update_message_path</text>
</a>
</g>
</g>
<!-- Node2 -->
<g id="Node000002" class="node">
<title>Node2</title>
<g id="a_Node000002"><a xlink:href="notmuch_8c.html#a61864e0bbe54304156a22768894a95e3" target="_top" xlink:title="Set up an email&#39;s Notmuch data.">
<polygon fill="#fff0f0" stroke="red" points="97,-102.25 37.5,-102.25 37.5,-80 97,-80 97,-102.25"/>
<text text-anchor="middle" x="67.25" y="-88.75" font-family="Helvetica,sans-Serif" font-size="10.00">init_email</text>
</a>
</g>
</g>
<!-- Node1&#45;&gt;Node2 -->
<g id="edge1_Node000001_Node000002" class="edge">
<title>Node1&#45;&gt;Node2</title>
<g id="a_edge1_Node000001_Node000002"><a xlink:title=" ">
<path fill="none" stroke="#63b8ff" d="M171.93,-65.43C146.54,-71.72 117.83,-78.83 97.07,-83.98"/>
<polygon fill="#63b8ff" stroke="#63b8ff" points="172.62,-68.86 181.48,-63.06 170.93,-62.07 172.62,-68.86"/>
</a>
</g>
</g>
<!-- Node10 -->
<g id="Node000010" class="node">
<title>Node10</title>
<g id="a_Node000010"><a xlink:href="group__mx__mbox__check.html#gafd9ac1fea250b07e3ea64493021aaa06" target="_top" xlink:title="Check for new mail &#45; Implements MxOps::mbox_check() &#45;.">
<polygon fill="white" stroke="#666666" points="113.5,-62.25 21,-62.25 21,-40 113.5,-40 113.5,-62.25"/>
<text text-anchor="middle" x="67.25" y="-48.75" font-family="Helvetica,sans-Serif" font-size="10.00">nm_mbox_check</text>
</a>
</g>
</g>
<!-- Node1&#45;&gt;Node10 -->
<g id="edge2_Node000001_Node000010" class="edge">
<title>Node1&#45;&gt;Node10</title>
<g id="a_edge2_Node000001_Node000010"><a xlink:title=" ">
<path fill="none" stroke="#63b8ff" d="M159.33,-51.12C143.89,-51.12 127.93,-51.12 113.77,-51.12"/>
<polygon fill="#63b8ff" stroke="#63b8ff" points="158.94,-54.63 168.94,-51.13 158.94,-47.63 158.94,-54.63"/>
</a>
</g>
</g>
<!-- Node12 -->
<g id="Node000012" class="node">
<title>Node12</title>
<g id="a_Node000012"><a xlink:href="notmuch_8c.html#a5d9e6d209beb0f018e50e865a7b53c44" target="_top" xlink:title="Synchronize Neomutt&#39;s Email path with notmuch.">
<polygon fill="#fff0f0" stroke="red" points="134.5,-22.25 0,-22.25 0,0 134.5,0 134.5,-22.25"/>
<text text-anchor="middle" x="67.25" y="-8.75" font-family="Helvetica,sans-Serif" font-size="10.00">sync_email_path_with_nm</text>
</a>
</g>
</g>
<!-- Node1&#45;&gt;Node12 -->
<g id="edge3_Node000001_Node000012" class="edge">
<title>Node1&#45;&gt;Node12</title>
<g id="a_edge3_Node000001_Node000012"><a xlink:title=" ">
<path fill="none" stroke="#63b8ff" d="M171.92,-36.82C153.28,-32.2 132.85,-27.14 115.1,-22.74"/>
<polygon fill="#63b8ff" stroke="#63b8ff" points="170.93,-40.18 181.48,-39.19 172.62,-33.39 170.93,-40.18"/>
</a>
</g>
</g>
</g>
</svg>
