<?xml version="1.0" encoding="UTF-8" standalone="no"?>
<!DOCTYPE svg PUBLIC "-//W3C//DTD SVG 1.1//EN"
 "http://www.w3.org/Graphics/SVG/1.1/DTD/svg11.dtd">
<!-- Generated by graphviz version 2.44.0 (0)
 -->
<!-- Title: progress_reset Pages: 1 -->
<svg width="241pt" height="66pt"
 viewBox="0.00 0.00 241.00 66.00" xmlns="http://www.w3.org/2000/svg" xmlns:xlink="http://www.w3.org/1999/xlink">
<g id="graph0" class="graph" transform="scale(1 1) rotate(0) translate(4 62)">
<title>progress_reset</title>
<polygon fill="white" stroke="transparent" points="-4,4 -4,-62 237,-62 237,4 -4,4"/>
<!-- Node1 -->
<g id="node1" class="node">
<title>Node1</title>
<g id="a_node1"><a xlink:title="Reset the progress counter.">
<polygon fill="#bfbfbf" stroke="black" points="152,-19.5 152,-38.5 233,-38.5 233,-19.5 152,-19.5"/>
<text text-anchor="middle" x="192.5" y="-26.5" font-family="Helvetica" font-size="10.00">progress_reset</text>
</a>
</g>
</g>
<!-- Node2 -->
<g id="node2" class="node">
<title>Node2</title>
<g id="a_node2"><a xlink:href="notmuch_8c.html#aad12c3265a631efb7b39b28fae19121c" target="_top" xlink:title="Open a Mailbox &#45; Implements MxOps::mbox_open()">
<polygon fill="white" stroke="black" points="15,-38.5 15,-57.5 101,-57.5 101,-38.5 15,-38.5"/>
<text text-anchor="middle" x="58" y="-45.5" font-family="Helvetica" font-size="10.00">nm_mbox_open</text>
</a>
</g>
</g>
<!-- Node1&#45;&gt;Node2 -->
<g id="edge1" class="edge">
<title>Node1&#45;&gt;Node2</title>
<path fill="none" stroke="midnightblue" d="M141.72,-36.14C128.32,-38.06 113.96,-40.12 101.03,-41.97"/>
<polygon fill="midnightblue" stroke="midnightblue" points="142.34,-39.58 151.75,-34.7 141.35,-32.66 142.34,-39.58"/>
</g>
<!-- Node3 -->
<g id="node3" class="node">
<title>Node3</title>
<g id="a_node3"><a xlink:href="notmuch_8c.html#a8ac57cce7f11e7ce9b485d9fce4c2975" target="_top" xlink:title="Get the entire thread of an email.">
<polygon fill="white" stroke="red" points="0,-0.5 0,-19.5 116,-19.5 116,-0.5 0,-0.5"/>
<text text-anchor="middle" x="58" y="-7.5" font-family="Helvetica" font-size="10.00">nm_read_entire_thread</text>
</a>
</g>
</g>
<!-- Node1&#45;&gt;Node3 -->
<g id="edge2" class="edge">
<title>Node1&#45;&gt;Node3</title>
<path fill="none" stroke="midnightblue" d="M141.83,-21.88C133.52,-20.69 124.84,-19.44 116.36,-18.23"/>
<polygon fill="midnightblue" stroke="midnightblue" points="141.35,-25.34 151.75,-23.3 142.34,-18.42 141.35,-25.34"/>
</g>
</g>
</svg>
