<?xml version="1.0" encoding="UTF-8" standalone="no"?>
<!DOCTYPE svg PUBLIC "-//W3C//DTD SVG 1.1//EN"
 "http://www.w3.org/Graphics/SVG/1.1/DTD/svg11.dtd">
<!-- Generated by graphviz version 2.44.0 (0)
 -->
<!-- Title: notmuch/edata.h Pages: 1 -->
<svg width="218pt" height="84pt"
 viewBox="0.00 0.00 218.00 84.00" xmlns="http://www.w3.org/2000/svg" xmlns:xlink="http://www.w3.org/1999/xlink">
<g id="graph0" class="graph" transform="scale(1 1) rotate(0) translate(4 80)">
<title>notmuch/edata.h</title>
<polygon fill="white" stroke="transparent" points="-4,4 -4,-80 214,-80 214,4 -4,4"/>
<!-- Node1 -->
<g id="node1" class="node">
<title>Node1</title>
<g id="a_node1"><a xlink:title=" ">
<polygon fill="#bfbfbf" stroke="black" points="57,-56.5 57,-75.5 146,-75.5 146,-56.5 57,-56.5"/>
<text text-anchor="middle" x="101.5" y="-63.5" font-family="Helvetica" font-size="10.00">notmuch/edata.h</text>
</a>
</g>
</g>
<!-- Node2 -->
<g id="node2" class="node">
<title>Node2</title>
<g id="a_node2"><a xlink:href="notmuch_2edata_8c.html" target="_top" xlink:title=" ">
<polygon fill="white" stroke="black" points="0,-0.5 0,-19.5 89,-19.5 89,-0.5 0,-0.5"/>
<text text-anchor="middle" x="44.5" y="-7.5" font-family="Helvetica" font-size="10.00">notmuch/edata.c</text>
</a>
</g>
</g>
<!-- Node1&#45;&gt;Node2 -->
<g id="edge1" class="edge">
<title>Node1&#45;&gt;Node2</title>
<path fill="none" stroke="midnightblue" d="M84.88,-49.25C74.77,-39.67 62.22,-27.79 53.82,-19.83"/>
<polygon fill="midnightblue" stroke="midnightblue" points="82.68,-51.99 92.34,-56.32 87.49,-46.91 82.68,-51.99"/>
</g>
<!-- Node3 -->
<g id="node3" class="node">
<title>Node3</title>
<g id="a_node3"><a xlink:href="notmuch_8c.html" target="_top" xlink:title=" ">
<polygon fill="white" stroke="black" points="107,-0.5 107,-19.5 210,-19.5 210,-0.5 107,-0.5"/>
<text text-anchor="middle" x="158.5" y="-7.5" font-family="Helvetica" font-size="10.00">notmuch/notmuch.c</text>
</a>
</g>
</g>
<!-- Node1&#45;&gt;Node3 -->
<g id="edge2" class="edge">
<title>Node1&#45;&gt;Node3</title>
<path fill="none" stroke="midnightblue" d="M118.12,-49.25C128.23,-39.67 140.78,-27.79 149.18,-19.83"/>
<polygon fill="midnightblue" stroke="midnightblue" points="115.51,-46.91 110.66,-56.32 120.32,-51.99 115.51,-46.91"/>
</g>
</g>
</svg>
