<?xml version="1.0" encoding="UTF-8" standalone="no"?>
<!DOCTYPE svg PUBLIC "-//W3C//DTD SVG 1.1//EN"
 "http://www.w3.org/Graphics/SVG/1.1/DTD/svg11.dtd">
<!-- Generated by graphviz version 7.1.0 (0)
 -->
<!-- Title: gui/opcodes.h Pages: 1 -->
<svg width="448pt" height="82pt"
 viewBox="0.00 0.00 448.00 82.00" xmlns="http://www.w3.org/2000/svg" xmlns:xlink="http://www.w3.org/1999/xlink">
<g id="graph0" class="graph" transform="scale(1 1) rotate(0) translate(4 78)">
<title>gui/opcodes.h</title>
<!-- Node1 -->
<g id="node1" class="node">
<title>Node1</title>
<g id="a_node1"><a xlink:title="All user&#45;callable functions.">
<polygon fill="#999999" stroke="#666666" points="275,-74 192,-74 192,-55 275,-55 275,-74"/>
<text text-anchor="middle" x="233.5" y="-62" font-family="Helvetica,sans-Serif" font-size="10.00">gui/opcodes.h</text>
</a>
</g>
</g>
<!-- Node2 -->
<g id="node2" class="node">
<title>Node2</title>
<g id="a_node2"><a xlink:href="curs__lib_8c.html" target="_top" xlink:title="GUI miscellaneous curses (window drawing) routines.">
<polygon fill="white" stroke="#666666" points="77,-19 0,-19 0,0 77,0 77,-19"/>
<text text-anchor="middle" x="38.5" y="-7" font-family="Helvetica,sans-Serif" font-size="10.00">gui/curs_lib.c</text>
</a>
</g>
</g>
<!-- Node1&#45;&gt;Node2 -->
<g id="edge1" class="edge">
<title>Node1&#45;&gt;Node2</title>
<path fill="none" stroke="#63b8ff" d="M189.32,-51.49C153.5,-41.76 103.81,-28.25 71.42,-19.45"/>
<polygon fill="#63b8ff" stroke="#63b8ff" points="188.39,-54.87 198.96,-54.11 190.23,-48.11 188.39,-54.87"/>
</g>
<!-- Node3 -->
<g id="node3" class="node">
<title>Node3</title>
<g id="a_node3"><a xlink:href="gui_2functions_8c.html" target="_top" xlink:title="Definitions of user functions.">
<polygon fill="white" stroke="#666666" points="180,-19 95,-19 95,0 180,0 180,-19"/>
<text text-anchor="middle" x="137.5" y="-7" font-family="Helvetica,sans-Serif" font-size="10.00">gui/functions.c</text>
</a>
</g>
</g>
<!-- Node1&#45;&gt;Node3 -->
<g id="edge2" class="edge">
<title>Node1&#45;&gt;Node3</title>
<path fill="none" stroke="#63b8ff" d="M207.24,-49C190.06,-39.52 168.17,-27.43 153.54,-19.36"/>
<polygon fill="#63b8ff" stroke="#63b8ff" points="205.44,-52.01 215.89,-53.78 208.83,-45.88 205.44,-52.01"/>
</g>
<!-- Node4 -->
<g id="node4" class="node">
<title>Node4</title>
<g id="a_node4"><a xlink:href="global_8c.html" target="_top" xlink:title="Global functions.">
<polygon fill="white" stroke="#666666" points="268.5,-19 198.5,-19 198.5,0 268.5,0 268.5,-19"/>
<text text-anchor="middle" x="233.5" y="-7" font-family="Helvetica,sans-Serif" font-size="10.00">gui/global.c</text>
</a>
</g>
</g>
<!-- Node1&#45;&gt;Node4 -->
<g id="edge3" class="edge">
<title>Node1&#45;&gt;Node4</title>
<path fill="none" stroke="#63b8ff" d="M233.5,-43.35C233.5,-35.1 233.5,-25.97 233.5,-19.44"/>
<polygon fill="#63b8ff" stroke="#63b8ff" points="230,-43.23 233.5,-53.23 237,-43.23 230,-43.23"/>
</g>
<!-- Node5 -->
<g id="node5" class="node">
<title>Node5</title>
<g id="a_node5"><a xlink:href="gui_2lib_8h.html" target="_top" xlink:title="Convenience wrapper for the gui headers.">
<polygon fill="#fff0f0" stroke="red" points="340.5,-19 286.5,-19 286.5,0 340.5,0 340.5,-19"/>
<text text-anchor="middle" x="313.5" y="-7" font-family="Helvetica,sans-Serif" font-size="10.00">gui/lib.h</text>
</a>
</g>
</g>
<!-- Node1&#45;&gt;Node5 -->
<g id="edge4" class="edge">
<title>Node1&#45;&gt;Node5</title>
<path fill="none" stroke="#63b8ff" d="M256.61,-48.19C270.73,-38.84 288.28,-27.21 300.13,-19.36"/>
<polygon fill="#63b8ff" stroke="#63b8ff" points="254.74,-45.23 248.33,-53.67 258.6,-51.07 254.74,-45.23"/>
</g>
<!-- Node131 -->
<g id="node6" class="node">
<title>Node131</title>
<g id="a_node6"><a xlink:href="opcodes_8c.html" target="_top" xlink:title="All user&#45;callable functions.">
<polygon fill="white" stroke="#666666" points="440,-19 359,-19 359,0 440,0 440,-19"/>
<text text-anchor="middle" x="399.5" y="-7" font-family="Helvetica,sans-Serif" font-size="10.00">gui/opcodes.c</text>
</a>
</g>
</g>
<!-- Node1&#45;&gt;Node131 -->
<g id="edge5" class="edge">
<title>Node1&#45;&gt;Node131</title>
<path fill="none" stroke="#63b8ff" d="M272.31,-51.11C302.7,-41.41 344.26,-28.14 371.48,-19.45"/>
<polygon fill="#63b8ff" stroke="#63b8ff" points="271.56,-47.67 263.1,-54.05 273.69,-54.34 271.56,-47.67"/>
</g>
</g>
</svg>
