<?xml version="1.0" encoding="UTF-8" standalone="no"?>
<!DOCTYPE svg PUBLIC "-//W3C//DTD SVG 1.1//EN"
 "http://www.w3.org/Graphics/SVG/1.1/DTD/svg11.dtd">
<!-- Generated by graphviz version 12.2.1 (20241206.2353)
 -->
<!-- Title: conn/openssl.c Pages: 1 -->
<svg width="2511pt" height="205pt"
 viewBox="0.00 0.00 2510.58 205.00" xmlns="http://www.w3.org/2000/svg" xmlns:xlink="http://www.w3.org/1999/xlink">
<g id="graph0" class="graph" transform="scale(1 1) rotate(0) translate(4 201)">
<title>conn/openssl.c</title>
<!-- Node1 -->
<g id="Node000001" class="node">
<title>Node1</title>
<g id="a_Node000001"><a xlink:title="Handling of OpenSSL encryption.">
<polygon fill="#999999" stroke="#666666" points="1067.33,-197 982.33,-197 982.33,-174.75 1067.33,-174.75 1067.33,-197"/>
<text text-anchor="middle" x="1024.83" y="-183.5" font-family="Helvetica,sans-Serif" font-size="10.00">conn/openssl.c</text>
</a>
</g>
</g>
<!-- Node2 -->
<g id="Node000002" class="node">
<title>Node2</title>
<g id="a_Node000002"><a xlink:title=" ">
<polygon fill="#e0e0e0" stroke="#999999" points="112.58,-22.25 59.08,-22.25 59.08,0 112.58,0 112.58,-22.25"/>
<text text-anchor="middle" x="85.83" y="-8.75" font-family="Helvetica,sans-Serif" font-size="10.00">config.h</text>
</a>
</g>
</g>
<!-- Node1&#45;&gt;Node2 -->
<g id="edge1_Node000001_Node000002" class="edge">
<title>Node1&#45;&gt;Node2</title>
<g id="a_edge1_Node000001_Node000002"><a xlink:title=" ">
<path fill="none" stroke="#63b8ff" d="M982.12,-184.89C805.47,-184.69 137.31,-181.12 53.83,-138.75 16.89,-120 -13.8,-94.18 6.83,-58.25 15.82,-42.58 32.42,-31.73 48.09,-24.51"/>
<polygon fill="#63b8ff" stroke="#63b8ff" points="49.42,-27.75 57.29,-20.66 46.72,-21.29 49.42,-27.75"/>
</a>
</g>
</g>
<!-- Node3 -->
<g id="Node000003" class="node">
<title>Node3</title>
<g id="a_Node000003"><a xlink:title=" ">
<polygon fill="#e0e0e0" stroke="#999999" points="561.83,-138.75 509.83,-138.75 509.83,-116.5 561.83,-116.5 561.83,-138.75"/>
<text text-anchor="middle" x="535.83" y="-125.25" font-family="Helvetica,sans-Serif" font-size="10.00">errno.h</text>
</a>
</g>
</g>
<!-- Node1&#45;&gt;Node3 -->
<g id="edge2_Node000001_Node000003" class="edge">
<title>Node1&#45;&gt;Node3</title>
<g id="a_edge2_Node000001_Node000003"><a xlink:title=" ">
<path fill="none" stroke="#63b8ff" d="M981.89,-183.09C902.77,-179.26 728.58,-168.22 573.23,-138.91"/>
<polygon fill="#63b8ff" stroke="#63b8ff" points="574.05,-135.5 563.57,-137.05 572.73,-142.38 574.05,-135.5"/>
</a>
</g>
</g>
<!-- Node4 -->
<g id="Node000004" class="node">
<title>Node4</title>
<g id="a_Node000004"><a xlink:title=" ">
<polygon fill="#e0e0e0" stroke="#999999" points="665.71,-138.75 579.96,-138.75 579.96,-116.5 665.71,-116.5 665.71,-138.75"/>
<text text-anchor="middle" x="622.83" y="-125.25" font-family="Helvetica,sans-Serif" font-size="10.00">openssl/asn1.h</text>
</a>
</g>
</g>
<!-- Node1&#45;&gt;Node4 -->
<g id="edge3_Node000001_Node000004" class="edge">
<title>Node1&#45;&gt;Node4</title>
<g id="a_edge3_Node000001_Node000004"><a xlink:title=" ">
<path fill="none" stroke="#63b8ff" d="M981.87,-180.07C917.8,-172.72 793.18,-157.71 677.13,-139.04"/>
<polygon fill="#63b8ff" stroke="#63b8ff" points="677.85,-135.62 667.42,-137.47 676.73,-142.53 677.85,-135.62"/>
</a>
</g>
</g>
<!-- Node5 -->
<g id="Node000005" class="node">
<title>Node5</title>
<g id="a_Node000005"><a xlink:title=" ">
<polygon fill="#e0e0e0" stroke="#999999" points="761.96,-138.75 683.71,-138.75 683.71,-116.5 761.96,-116.5 761.96,-138.75"/>
<text text-anchor="middle" x="722.83" y="-125.25" font-family="Helvetica,sans-Serif" font-size="10.00">openssl/bio.h</text>
</a>
</g>
</g>
<!-- Node1&#45;&gt;Node5 -->
<g id="edge4_Node000001_Node000005" class="edge">
<title>Node1&#45;&gt;Node5</title>
<g id="a_edge4_Node000001_Node000005"><a xlink:title=" ">
<path fill="none" stroke="#63b8ff" d="M982.25,-177.43C934.18,-168.95 853.35,-154.48 773.63,-139.06"/>
<polygon fill="#63b8ff" stroke="#63b8ff" points="774.36,-135.64 763.88,-137.17 773.03,-142.51 774.36,-135.64"/>
</a>
</g>
</g>
<!-- Node6 -->
<g id="Node000006" class="node">
<title>Node6</title>
<g id="a_Node000006"><a xlink:title=" ">
<polygon fill="#e0e0e0" stroke="#999999" points="857.21,-138.75 780.46,-138.75 780.46,-116.5 857.21,-116.5 857.21,-138.75"/>
<text text-anchor="middle" x="818.83" y="-125.25" font-family="Helvetica,sans-Serif" font-size="10.00">openssl/err.h</text>
</a>
</g>
</g>
<!-- Node1&#45;&gt;Node6 -->
<g id="edge5_Node000001_Node000006" class="edge">
<title>Node1&#45;&gt;Node6</title>
<g id="a_edge5_Node000001_Node000006"><a xlink:title=" ">
<path fill="none" stroke="#63b8ff" d="M986.08,-174.29C952.71,-165.18 904.34,-151.97 868.2,-142.11"/>
<polygon fill="#63b8ff" stroke="#63b8ff" points="869.43,-138.81 858.86,-139.56 867.59,-145.57 869.43,-138.81"/>
</a>
</g>
</g>
<!-- Node7 -->
<g id="Node000007" class="node">
<title>Node7</title>
<g id="a_Node000007"><a xlink:title=" ">
<polygon fill="#e0e0e0" stroke="#999999" points="956.08,-138.75 875.58,-138.75 875.58,-116.5 956.08,-116.5 956.08,-138.75"/>
<text text-anchor="middle" x="915.83" y="-125.25" font-family="Helvetica,sans-Serif" font-size="10.00">openssl/evp.h</text>
</a>
</g>
</g>
<!-- Node1&#45;&gt;Node7 -->
<g id="edge6_Node000001_Node000007" class="edge">
<title>Node1&#45;&gt;Node7</title>
<g id="a_edge6_Node000001_Node000007"><a xlink:title=" ">
<path fill="none" stroke="#63b8ff" d="M1004.33,-174.29C987.96,-165.85 964.78,-153.89 946.25,-144.33"/>
<polygon fill="#63b8ff" stroke="#63b8ff" points="948.08,-141.33 937.59,-139.85 944.87,-147.55 948.08,-141.33"/>
</a>
</g>
</g>
<!-- Node8 -->
<g id="Node000008" class="node">
<title>Node8</title>
<g id="a_Node000008"><a xlink:title=" ">
<polygon fill="#e0e0e0" stroke="#999999" points="1075.58,-138.75 974.08,-138.75 974.08,-116.5 1075.58,-116.5 1075.58,-138.75"/>
<text text-anchor="middle" x="1024.83" y="-125.25" font-family="Helvetica,sans-Serif" font-size="10.00">openssl/obj_mac.h</text>
</a>
</g>
</g>
<!-- Node1&#45;&gt;Node8 -->
<g id="edge7_Node000001_Node000008" class="edge">
<title>Node1&#45;&gt;Node8</title>
<g id="a_edge7_Node000001_Node000008"><a xlink:title=" ">
<path fill="none" stroke="#63b8ff" d="M1024.83,-174.29C1024.83,-167.62 1024.83,-158.74 1024.83,-150.59"/>
<polygon fill="#63b8ff" stroke="#63b8ff" points="1028.33,-150.67 1024.83,-140.67 1021.33,-150.67 1028.33,-150.67"/>
</a>
</g>
</g>
<!-- Node9 -->
<g id="Node000009" class="node">
<title>Node9</title>
<g id="a_Node000009"><a xlink:title=" ">
<polygon fill="#e0e0e0" stroke="#999999" points="1197.71,-138.75 1093.96,-138.75 1093.96,-116.5 1197.71,-116.5 1197.71,-138.75"/>
<text text-anchor="middle" x="1145.83" y="-125.25" font-family="Helvetica,sans-Serif" font-size="10.00">openssl/opensslv.h</text>
</a>
</g>
</g>
<!-- Node1&#45;&gt;Node9 -->
<g id="edge8_Node000001_Node000009" class="edge">
<title>Node1&#45;&gt;Node9</title>
<g id="a_edge8_Node000001_Node000009"><a xlink:title=" ">
<path fill="none" stroke="#63b8ff" d="M1047.59,-174.29C1066.01,-165.73 1092.21,-153.55 1112.91,-143.93"/>
<polygon fill="#63b8ff" stroke="#63b8ff" points="1114.21,-147.19 1121.8,-139.8 1111.26,-140.84 1114.21,-147.19"/>
</a>
</g>
</g>
<!-- Node10 -->
<g id="Node000010" class="node">
<title>Node10</title>
<g id="a_Node000010"><a xlink:title=" ">
<polygon fill="#e0e0e0" stroke="#999999" points="1316.21,-138.75 1215.46,-138.75 1215.46,-116.5 1316.21,-116.5 1316.21,-138.75"/>
<text text-anchor="middle" x="1265.83" y="-125.25" font-family="Helvetica,sans-Serif" font-size="10.00">openssl/ossl_typ.h</text>
</a>
</g>
</g>
<!-- Node1&#45;&gt;Node10 -->
<g id="edge9_Node000001_Node000010" class="edge">
<title>Node1&#45;&gt;Node10</title>
<g id="a_edge9_Node000001_Node000010"><a xlink:title=" ">
<path fill="none" stroke="#63b8ff" d="M1067.64,-174.88C1107.21,-165.65 1166.26,-151.87 1209.61,-141.75"/>
<polygon fill="#63b8ff" stroke="#63b8ff" points="1210.14,-145.22 1219.08,-139.54 1208.55,-138.4 1210.14,-145.22"/>
</a>
</g>
</g>
<!-- Node11 -->
<g id="Node000011" class="node">
<title>Node11</title>
<g id="a_Node000011"><a xlink:title=" ">
<polygon fill="#e0e0e0" stroke="#999999" points="1419.33,-138.75 1334.33,-138.75 1334.33,-116.5 1419.33,-116.5 1419.33,-138.75"/>
<text text-anchor="middle" x="1376.83" y="-125.25" font-family="Helvetica,sans-Serif" font-size="10.00">openssl/pem.h</text>
</a>
</g>
</g>
<!-- Node1&#45;&gt;Node11 -->
<g id="edge10_Node000001_Node000011" class="edge">
<title>Node1&#45;&gt;Node11</title>
<g id="a_edge10_Node000001_Node000011"><a xlink:title=" ">
<path fill="none" stroke="#63b8ff" d="M1067.64,-178.84C1123.76,-170.81 1225.55,-155.83 1322.79,-139.05"/>
<polygon fill="#63b8ff" stroke="#63b8ff" points="1323.26,-142.52 1332.52,-137.36 1322.06,-135.62 1323.26,-142.52"/>
</a>
</g>
</g>
<!-- Node12 -->
<g id="Node000012" class="node">
<title>Node12</title>
<g id="a_Node000012"><a xlink:title=" ">
<polygon fill="#e0e0e0" stroke="#999999" points="1522.33,-138.75 1437.33,-138.75 1437.33,-116.5 1522.33,-116.5 1522.33,-138.75"/>
<text text-anchor="middle" x="1479.83" y="-125.25" font-family="Helvetica,sans-Serif" font-size="10.00">openssl/rand.h</text>
</a>
</g>
</g>
<!-- Node1&#45;&gt;Node12 -->
<g id="edge11_Node000001_Node000012" class="edge">
<title>Node1&#45;&gt;Node12</title>
<g id="a_edge11_Node000001_Node000012"><a xlink:title=" ">
<path fill="none" stroke="#63b8ff" d="M1067.74,-181.15C1139.75,-174.63 1289.7,-159.99 1425.98,-139.1"/>
<polygon fill="#63b8ff" stroke="#63b8ff" points="1426.18,-142.61 1435.53,-137.62 1425.11,-135.69 1426.18,-142.61"/>
</a>
</g>
</g>
<!-- Node13 -->
<g id="Node000013" class="node">
<title>Node13</title>
<g id="a_Node000013"><a xlink:title=" ">
<polygon fill="#e0e0e0" stroke="#999999" points="1647.21,-138.75 1540.46,-138.75 1540.46,-116.5 1647.21,-116.5 1647.21,-138.75"/>
<text text-anchor="middle" x="1593.83" y="-125.25" font-family="Helvetica,sans-Serif" font-size="10.00">openssl/safestack.h</text>
</a>
</g>
</g>
<!-- Node1&#45;&gt;Node13 -->
<g id="edge12_Node000001_Node000013" class="edge">
<title>Node1&#45;&gt;Node13</title>
<g id="a_edge12_Node000001_Node000013"><a xlink:title=" ">
<path fill="none" stroke="#63b8ff" d="M1067.67,-182.01C1153.29,-176.07 1351.85,-161.16 1528.75,-139.07"/>
<polygon fill="#63b8ff" stroke="#63b8ff" points="1529.11,-142.55 1538.59,-137.83 1528.23,-135.61 1529.11,-142.55"/>
</a>
</g>
</g>
<!-- Node14 -->
<g id="Node000014" class="node">
<title>Node14</title>
<g id="a_Node000014"><a xlink:title=" ">
<polygon fill="#e0e0e0" stroke="#999999" points="1740.46,-138.75 1665.21,-138.75 1665.21,-116.5 1740.46,-116.5 1740.46,-138.75"/>
<text text-anchor="middle" x="1702.83" y="-125.25" font-family="Helvetica,sans-Serif" font-size="10.00">openssl/ssl.h</text>
</a>
</g>
</g>
<!-- Node1&#45;&gt;Node14 -->
<g id="edge13_Node000001_Node000014" class="edge">
<title>Node1&#45;&gt;Node14</title>
<g id="a_edge13_Node000001_Node000014"><a xlink:title=" ">
<path fill="none" stroke="#63b8ff" d="M1067.52,-183.8C1168,-180.84 1427.39,-170.65 1653.85,-138.84"/>
<polygon fill="#63b8ff" stroke="#63b8ff" points="1654.04,-142.35 1663.45,-137.47 1653.06,-135.42 1654.04,-142.35"/>
</a>
</g>
</g>
<!-- Node15 -->
<g id="Node000015" class="node">
<title>Node15</title>
<g id="a_Node000015"><a xlink:title=" ">
<polygon fill="#e0e0e0" stroke="#999999" points="1845.46,-138.75 1758.21,-138.75 1758.21,-116.5 1845.46,-116.5 1845.46,-138.75"/>
<text text-anchor="middle" x="1801.83" y="-125.25" font-family="Helvetica,sans-Serif" font-size="10.00">openssl/x509.h</text>
</a>
</g>
</g>
<!-- Node1&#45;&gt;Node15 -->
<g id="edge14_Node000001_Node000015" class="edge">
<title>Node1&#45;&gt;Node15</title>
<g id="a_edge14_Node000001_Node000015"><a xlink:title=" ">
<path fill="none" stroke="#63b8ff" d="M1067.51,-184.08C1178.13,-181.6 1483.33,-172.17 1746.6,-139.03"/>
<polygon fill="#63b8ff" stroke="#63b8ff" points="1746.94,-142.51 1756.42,-137.78 1746.06,-135.57 1746.94,-142.51"/>
</a>
</g>
</g>
<!-- Node16 -->
<g id="Node000016" class="node">
<title>Node16</title>
<g id="a_Node000016"><a xlink:title=" ">
<polygon fill="#e0e0e0" stroke="#999999" points="1962.08,-138.75 1863.58,-138.75 1863.58,-116.5 1962.08,-116.5 1962.08,-138.75"/>
<text text-anchor="middle" x="1912.83" y="-125.25" font-family="Helvetica,sans-Serif" font-size="10.00">openssl/x509v3.h</text>
</a>
</g>
</g>
<!-- Node1&#45;&gt;Node16 -->
<g id="edge15_Node000001_Node000016" class="edge">
<title>Node1&#45;&gt;Node16</title>
<g id="a_edge15_Node000001_Node000016"><a xlink:title=" ">
<path fill="none" stroke="#63b8ff" d="M1067.74,-184.26C1189.22,-182.16 1545.95,-173.37 1851.89,-138.97"/>
<polygon fill="#63b8ff" stroke="#63b8ff" points="1852.17,-142.46 1861.71,-137.85 1851.38,-135.5 1852.17,-142.46"/>
</a>
</g>
</g>
<!-- Node17 -->
<g id="Node000017" class="node">
<title>Node17</title>
<g id="a_Node000017"><a xlink:title=" ">
<polygon fill="#e0e0e0" stroke="#999999" points="280.58,-22.25 221.08,-22.25 221.08,0 280.58,0 280.58,-22.25"/>
<text text-anchor="middle" x="250.83" y="-8.75" font-family="Helvetica,sans-Serif" font-size="10.00">stdbool.h</text>
</a>
</g>
</g>
<!-- Node1&#45;&gt;Node17 -->
<g id="edge16_Node000001_Node000017" class="edge">
<title>Node1&#45;&gt;Node17</title>
<g id="a_edge16_Node000001_Node000017"><a xlink:title=" ">
<path fill="none" stroke="#63b8ff" d="M982.12,-183.98C841.19,-180.75 396.67,-168.31 339.83,-138.75 296.9,-116.42 270.32,-62.84 258.34,-33.03"/>
<polygon fill="#63b8ff" stroke="#63b8ff" points="261.71,-32.05 254.88,-23.96 255.17,-34.55 261.71,-32.05"/>
</a>
</g>
</g>
<!-- Node18 -->
<g id="Node000018" class="node">
<title>Node18</title>
<g id="a_Node000018"><a xlink:title=" ">
<polygon fill="#e0e0e0" stroke="#999999" points="537.58,-80.5 490.08,-80.5 490.08,-58.25 537.58,-58.25 537.58,-80.5"/>
<text text-anchor="middle" x="513.83" y="-67" font-family="Helvetica,sans-Serif" font-size="10.00">stdio.h</text>
</a>
</g>
</g>
<!-- Node1&#45;&gt;Node18 -->
<g id="edge17_Node000001_Node000018" class="edge">
<title>Node1&#45;&gt;Node18</title>
<g id="a_edge17_Node000001_Node000018"><a xlink:title=" ">
<path fill="none" stroke="#63b8ff" d="M982.02,-184.35C862.71,-182.43 533.1,-173.98 500.83,-138.75 489.01,-125.84 494.73,-105.65 501.92,-90.55"/>
<polygon fill="#63b8ff" stroke="#63b8ff" points="504.88,-92.44 506.48,-81.97 498.7,-89.16 504.88,-92.44"/>
</a>
</g>
</g>
<!-- Node19 -->
<g id="Node000019" class="node">
<title>Node19</title>
<g id="a_Node000019"><a xlink:title=" ">
<polygon fill="#e0e0e0" stroke="#999999" points="2031.83,-138.75 1979.83,-138.75 1979.83,-116.5 2031.83,-116.5 2031.83,-138.75"/>
<text text-anchor="middle" x="2005.83" y="-125.25" font-family="Helvetica,sans-Serif" font-size="10.00">string.h</text>
</a>
</g>
</g>
<!-- Node1&#45;&gt;Node19 -->
<g id="edge18_Node000001_Node000019" class="edge">
<title>Node1&#45;&gt;Node19</title>
<g id="a_edge18_Node000001_Node000019"><a xlink:title=" ">
<path fill="none" stroke="#63b8ff" d="M1067.82,-184.11C1225.34,-181.09 1771.52,-168.81 1968.27,-138.74"/>
<polygon fill="#63b8ff" stroke="#63b8ff" points="1968.79,-142.2 1978.11,-137.16 1967.69,-135.29 1968.79,-142.2"/>
</a>
</g>
</g>
<!-- Node20 -->
<g id="Node000020" class="node">
<title>Node20</title>
<g id="a_Node000020"><a xlink:title=" ">
<polygon fill="#e0e0e0" stroke="#999999" points="2106.08,-138.75 2049.58,-138.75 2049.58,-116.5 2106.08,-116.5 2106.08,-138.75"/>
<text text-anchor="middle" x="2077.83" y="-125.25" font-family="Helvetica,sans-Serif" font-size="10.00">strings.h</text>
</a>
</g>
</g>
<!-- Node1&#45;&gt;Node20 -->
<g id="edge19_Node000001_Node000020" class="edge">
<title>Node1&#45;&gt;Node20</title>
<g id="a_edge19_Node000001_Node000020"><a xlink:title=" ">
<path fill="none" stroke="#63b8ff" d="M1067.79,-184.19C1232.8,-181.38 1826.85,-169.43 2038.02,-138.82"/>
<polygon fill="#63b8ff" stroke="#63b8ff" points="2038.43,-142.3 2047.79,-137.34 2037.38,-135.38 2038.43,-142.3"/>
</a>
</g>
</g>
<!-- Node21 -->
<g id="Node000021" class="node">
<title>Node21</title>
<g id="a_Node000021"><a xlink:title=" ">
<polygon fill="#e0e0e0" stroke="#999999" points="2183.96,-138.75 2123.71,-138.75 2123.71,-116.5 2183.96,-116.5 2183.96,-138.75"/>
<text text-anchor="middle" x="2153.83" y="-125.25" font-family="Helvetica,sans-Serif" font-size="10.00">sys/stat.h</text>
</a>
</g>
</g>
<!-- Node1&#45;&gt;Node21 -->
<g id="edge20_Node000001_Node000021" class="edge">
<title>Node1&#45;&gt;Node21</title>
<g id="a_edge20_Node000001_Node000021"><a xlink:title=" ">
<path fill="none" stroke="#63b8ff" d="M1067.58,-184.27C1239.99,-181.67 1885.43,-170.11 2112.18,-138.81"/>
<polygon fill="#63b8ff" stroke="#63b8ff" points="2112.4,-142.31 2121.8,-137.42 2111.4,-135.38 2112.4,-142.31"/>
</a>
</g>
</g>
<!-- Node22 -->
<g id="Node000022" class="node">
<title>Node22</title>
<g id="a_Node000022"><a xlink:title=" ">
<polygon fill="#e0e0e0" stroke="#999999" points="2255.58,-138.75 2202.08,-138.75 2202.08,-116.5 2255.58,-116.5 2255.58,-138.75"/>
<text text-anchor="middle" x="2228.83" y="-125.25" font-family="Helvetica,sans-Serif" font-size="10.00">unistd.h</text>
</a>
</g>
</g>
<!-- Node1&#45;&gt;Node22 -->
<g id="edge21_Node000001_Node000022" class="edge">
<title>Node1&#45;&gt;Node22</title>
<g id="a_edge21_Node000001_Node000022"><a xlink:title=" ">
<path fill="none" stroke="#63b8ff" d="M1067.52,-184.53C1247.68,-182.87 1947.24,-174.32 2190.61,-138.66"/>
<polygon fill="#63b8ff" stroke="#63b8ff" points="2191,-142.15 2200.36,-137.17 2189.94,-135.23 2191,-142.15"/>
</a>
</g>
</g>
<!-- Node23 -->
<g id="Node000023" class="node">
<title>Node23</title>
<g id="a_Node000023"><a xlink:href="conn_2private_8h.html" target="_top" xlink:title="Shared functions that are private to Connections.">
<polygon fill="#fff0f0" stroke="red" points="2331.83,-138.75 2273.83,-138.75 2273.83,-116.5 2331.83,-116.5 2331.83,-138.75"/>
<text text-anchor="middle" x="2302.83" y="-125.25" font-family="Helvetica,sans-Serif" font-size="10.00">private.h</text>
</a>
</g>
</g>
<!-- Node1&#45;&gt;Node23 -->
<g id="edge22_Node000001_Node000023" class="edge">
<title>Node1&#45;&gt;Node23</title>
<g id="a_edge22_Node000001_Node000023"><a xlink:title=" ">
<path fill="none" stroke="#63b8ff" d="M1067.56,-184.56C1254.74,-183.01 2004.08,-174.73 2262.32,-138.75"/>
<polygon fill="#63b8ff" stroke="#63b8ff" points="2262.62,-142.25 2272.01,-137.35 2261.61,-135.32 2262.62,-142.25"/>
</a>
</g>
</g>
<!-- Node26 -->
<g id="Node000026" class="node">
<title>Node26</title>
<g id="a_Node000026"><a xlink:href="mutt_2lib_8h.html" target="_top" xlink:title="Convenience wrapper for the library headers.">
<polygon fill="#fff0f0" stroke="red" points="77.71,-80.5 15.96,-80.5 15.96,-58.25 77.71,-58.25 77.71,-80.5"/>
<text text-anchor="middle" x="46.83" y="-67" font-family="Helvetica,sans-Serif" font-size="10.00">mutt/lib.h</text>
</a>
</g>
</g>
<!-- Node1&#45;&gt;Node26 -->
<g id="edge23_Node000001_Node000026" class="edge">
<title>Node1&#45;&gt;Node26</title>
<g id="a_edge23_Node000001_Node000026"><a xlink:title=" ">
<path fill="none" stroke="#63b8ff" d="M981.91,-184.07C801.51,-180.51 112.31,-165.24 74.83,-138.75 59.79,-128.12 52.81,-107.9 49.58,-92.19"/>
<polygon fill="#63b8ff" stroke="#63b8ff" points="53.04,-91.63 47.96,-82.33 46.13,-92.76 53.04,-91.63"/>
</a>
</g>
</g>
<!-- Node72 -->
<g id="Node000072" class="node">
<title>Node72</title>
<g id="a_Node000072"><a xlink:href="address_2lib_8h.html" target="_top" xlink:title="Email Address Handling.">
<polygon fill="#fff0f0" stroke="red" points="2425.46,-138.75 2350.21,-138.75 2350.21,-116.5 2425.46,-116.5 2425.46,-138.75"/>
<text text-anchor="middle" x="2387.83" y="-125.25" font-family="Helvetica,sans-Serif" font-size="10.00">address/lib.h</text>
</a>
</g>
</g>
<!-- Node1&#45;&gt;Node72 -->
<g id="edge25_Node000001_Node000072" class="edge">
<title>Node1&#45;&gt;Node72</title>
<g id="a_edge25_Node000001_Node000072"><a xlink:title=" ">
<path fill="none" stroke="#63b8ff" d="M1067.8,-184.39C1262.48,-182.05 2063.7,-170.72 2338.58,-138.77"/>
<polygon fill="#63b8ff" stroke="#63b8ff" points="2338.7,-142.28 2348.2,-137.61 2337.86,-135.33 2338.7,-142.28"/>
</a>
</g>
</g>
<!-- Node78 -->
<g id="Node000078" class="node">
<title>Node78</title>
<g id="a_Node000078"><a xlink:href="config_2lib_8h.html" target="_top" xlink:title="Convenience wrapper for the config headers.">
<polygon fill="#fff0f0" stroke="red" points="369.71,-80.5 301.96,-80.5 301.96,-58.25 369.71,-58.25 369.71,-80.5"/>
<text text-anchor="middle" x="335.83" y="-67" font-family="Helvetica,sans-Serif" font-size="10.00">config/lib.h</text>
</a>
</g>
</g>
<!-- Node1&#45;&gt;Node78 -->
<g id="edge26_Node000001_Node000078" class="edge">
<title>Node1&#45;&gt;Node78</title>
<g id="a_edge26_Node000001_Node000078"><a xlink:title=" ">
<path fill="none" stroke="#63b8ff" d="M981.96,-184.6C842.7,-183.33 409.19,-176.37 359.83,-138.75 345.54,-127.86 339.72,-107.84 337.38,-92.26"/>
<polygon fill="#63b8ff" stroke="#63b8ff" points="340.87,-92.05 336.3,-82.49 333.92,-92.81 340.87,-92.05"/>
</a>
</g>
</g>
<!-- Node93 -->
<g id="Node000093" class="node">
<title>Node93</title>
<g id="a_Node000093"><a xlink:href="core_2lib_8h.html" target="_top" xlink:title="Convenience wrapper for the core headers.">
<polygon fill="#fff0f0" stroke="red" points="2502.58,-138.75 2443.08,-138.75 2443.08,-116.5 2502.58,-116.5 2502.58,-138.75"/>
<text text-anchor="middle" x="2472.83" y="-125.25" font-family="Helvetica,sans-Serif" font-size="10.00">core/lib.h</text>
</a>
</g>
</g>
<!-- Node1&#45;&gt;Node93 -->
<g id="edge28_Node000001_Node000093" class="edge">
<title>Node1&#45;&gt;Node93</title>
<g id="a_edge28_Node000001_Node000093"><a xlink:title=" ">
<path fill="none" stroke="#63b8ff" d="M1067.78,-184.79C1271.12,-184.17 2138.91,-179.25 2431.67,-138.9"/>
<polygon fill="#63b8ff" stroke="#63b8ff" points="2431.78,-142.42 2441.18,-137.54 2430.78,-135.49 2431.78,-142.42"/>
</a>
</g>
</g>
<!-- Node103 -->
<g id="Node000103" class="node">
<title>Node103</title>
<g id="a_Node000103"><a xlink:href="connaccount_8h.html" target="_top" xlink:title="Connection Credentials.">
<polygon fill="#fff0f0" stroke="red" points="471.58,-80.5 388.08,-80.5 388.08,-58.25 471.58,-58.25 471.58,-80.5"/>
<text text-anchor="middle" x="429.83" y="-67" font-family="Helvetica,sans-Serif" font-size="10.00">connaccount.h</text>
</a>
</g>
</g>
<!-- Node1&#45;&gt;Node103 -->
<g id="edge29_Node000001_Node000103" class="edge">
<title>Node1&#45;&gt;Node103</title>
<g id="a_edge29_Node000001_Node000103"><a xlink:title=" ">
<path fill="none" stroke="#63b8ff" d="M981.99,-185.16C842.92,-185.65 410.58,-183.53 368.83,-138.75 352.48,-121.21 376.52,-100.63 399.06,-86.66"/>
<polygon fill="#63b8ff" stroke="#63b8ff" points="400.67,-89.77 407.53,-81.69 397.13,-83.74 400.67,-89.77"/>
</a>
</g>
</g>
<!-- Node104 -->
<g id="Node000104" class="node">
<title>Node104</title>
<g id="a_Node000104"><a xlink:href="connection_8h.html" target="_top" xlink:title="An open network connection (socket)">
<polygon fill="#fff0f0" stroke="red" points="453.83,-138.75 377.83,-138.75 377.83,-116.5 453.83,-116.5 453.83,-138.75"/>
<text text-anchor="middle" x="415.83" y="-125.25" font-family="Helvetica,sans-Serif" font-size="10.00">connection.h</text>
</a>
</g>
</g>
<!-- Node1&#45;&gt;Node104 -->
<g id="edge31_Node000001_Node000104" class="edge">
<title>Node1&#45;&gt;Node104</title>
<g id="a_edge31_Node000001_Node000104"><a xlink:title=" ">
<path fill="none" stroke="#63b8ff" d="M982.03,-182.93C888.42,-178.34 658.62,-165.14 467.83,-138.75 466.99,-138.63 466.15,-138.51 465.3,-138.39"/>
<polygon fill="#63b8ff" stroke="#63b8ff" points="466.01,-134.96 455.58,-136.81 464.89,-141.87 466.01,-134.96"/>
</a>
</g>
</g>
<!-- Node105 -->
<g id="Node000105" class="node">
<title>Node105</title>
<g id="a_Node000105"><a xlink:href="globals_8h.html" target="_top" xlink:title="Global variables.">
<polygon fill="white" stroke="#666666" points="153.46,-80.5 96.21,-80.5 96.21,-58.25 153.46,-58.25 153.46,-80.5"/>
<text text-anchor="middle" x="124.83" y="-67" font-family="Helvetica,sans-Serif" font-size="10.00">globals.h</text>
</a>
</g>
</g>
<!-- Node1&#45;&gt;Node105 -->
<g id="edge34_Node000001_Node000105" class="edge">
<title>Node1&#45;&gt;Node105</title>
<g id="a_edge34_Node000001_Node000105"><a xlink:title=" ">
<path fill="none" stroke="#63b8ff" d="M982.05,-185.06C839,-185.28 378.49,-182.47 237.83,-138.75 203.08,-127.95 167.99,-104.26 146.34,-87.82"/>
<polygon fill="#63b8ff" stroke="#63b8ff" points="148.61,-85.16 138.57,-81.78 144.31,-90.68 148.61,-85.16"/>
</a>
</g>
</g>
<!-- Node106 -->
<g id="Node000106" class="node">
<title>Node106</title>
<g id="a_Node000106"><a xlink:href="mutt__logging_8h.html" target="_top" xlink:title="NeoMutt Logging.">
<polygon fill="#fff0f0" stroke="red" points="170.08,-138.75 83.58,-138.75 83.58,-116.5 170.08,-116.5 170.08,-138.75"/>
<text text-anchor="middle" x="126.83" y="-125.25" font-family="Helvetica,sans-Serif" font-size="10.00">mutt_logging.h</text>
</a>
</g>
</g>
<!-- Node1&#45;&gt;Node106 -->
<g id="edge37_Node000001_Node000106" class="edge">
<title>Node1&#45;&gt;Node106</title>
<g id="a_edge37_Node000001_Node000106"><a xlink:title=" ">
<path fill="none" stroke="#63b8ff" d="M982.23,-184.36C858.49,-182.46 488.5,-174.03 183.83,-138.75 183.01,-138.65 182.18,-138.55 181.34,-138.45"/>
<polygon fill="#63b8ff" stroke="#63b8ff" points="182.21,-135.04 171.82,-137.12 181.24,-141.97 182.21,-135.04"/>
</a>
</g>
</g>
<!-- Node107 -->
<g id="Node000107" class="node">
<title>Node107</title>
<g id="a_Node000107"><a xlink:href="ssl_8h.html" target="_top" xlink:title="Handling of SSL encryption.">
<polygon fill="white" stroke="#666666" points="245.96,-80.5 209.71,-80.5 209.71,-58.25 245.96,-58.25 245.96,-80.5"/>
<text text-anchor="middle" x="227.83" y="-67" font-family="Helvetica,sans-Serif" font-size="10.00">ssl.h</text>
</a>
</g>
</g>
<!-- Node1&#45;&gt;Node107 -->
<g id="edge40_Node000001_Node000107" class="edge">
<title>Node1&#45;&gt;Node107</title>
<g id="a_edge40_Node000001_Node000107"><a xlink:title=" ">
<path fill="none" stroke="#63b8ff" d="M981.93,-184.82C829.45,-184.27 319.64,-179.38 259.83,-138.75 244.11,-128.07 235.93,-107.55 231.79,-91.76"/>
<polygon fill="#63b8ff" stroke="#63b8ff" points="235.28,-91.33 229.69,-82.33 228.45,-92.85 235.28,-91.33"/>
</a>
</g>
</g>
<!-- Node26&#45;&gt;Node2 -->
<g id="edge24_Node000026_Node000002" class="edge">
<title>Node26&#45;&gt;Node2</title>
<g id="a_edge24_Node000026_Node000002"><a xlink:title=" ">
<path fill="none" stroke="#63b8ff" d="M54.17,-57.79C59.18,-50.57 65.97,-40.76 71.99,-32.09"/>
<polygon fill="#63b8ff" stroke="#63b8ff" points="74.84,-34.11 77.67,-23.9 69.09,-30.13 74.84,-34.11"/>
</a>
</g>
</g>
<!-- Node78&#45;&gt;Node17 -->
<g id="edge27_Node000078_Node000017" class="edge">
<title>Node78&#45;&gt;Node17</title>
<g id="a_edge27_Node000078_Node000017"><a xlink:title=" ">
<path fill="none" stroke="#63b8ff" d="M319.84,-57.79C307.49,-49.62 290.18,-38.16 275.98,-28.77"/>
<polygon fill="#63b8ff" stroke="#63b8ff" points="278.28,-26.09 268.01,-23.49 274.42,-31.93 278.28,-26.09"/>
</a>
</g>
</g>
<!-- Node103&#45;&gt;Node17 -->
<g id="edge30_Node000103_Node000017" class="edge">
<title>Node103&#45;&gt;Node17</title>
<g id="a_edge30_Node000103_Node000017"><a xlink:title=" ">
<path fill="none" stroke="#63b8ff" d="M396.16,-57.79C366.54,-48.49 323.33,-34.91 291.72,-24.98"/>
<polygon fill="#63b8ff" stroke="#63b8ff" points="293.1,-21.74 282.51,-22.08 291,-28.42 293.1,-21.74"/>
</a>
</g>
</g>
<!-- Node104&#45;&gt;Node18 -->
<g id="edge32_Node000104_Node000018" class="edge">
<title>Node104&#45;&gt;Node18</title>
<g id="a_edge32_Node000104_Node000018"><a xlink:title=" ">
<path fill="none" stroke="#63b8ff" d="M434.26,-116.04C448.77,-107.72 469.24,-95.97 485.78,-86.48"/>
<polygon fill="#63b8ff" stroke="#63b8ff" points="487.24,-89.67 494.17,-81.66 483.75,-83.6 487.24,-89.67"/>
</a>
</g>
</g>
<!-- Node104&#45;&gt;Node103 -->
<g id="edge33_Node000104_Node000103" class="edge">
<title>Node104&#45;&gt;Node103</title>
<g id="a_edge33_Node000104_Node000103"><a xlink:title=" ">
<path fill="none" stroke="#63b8ff" d="M418.46,-116.04C420.15,-109.29 422.39,-100.28 424.43,-92.05"/>
<polygon fill="#63b8ff" stroke="#63b8ff" points="427.82,-92.93 426.84,-82.38 421.03,-91.24 427.82,-92.93"/>
</a>
</g>
</g>
<!-- Node105&#45;&gt;Node2 -->
<g id="edge35_Node000105_Node000002" class="edge">
<title>Node105&#45;&gt;Node2</title>
<g id="a_edge35_Node000105_Node000002"><a xlink:title=" ">
<path fill="none" stroke="#63b8ff" d="M117.49,-57.79C112.48,-50.57 105.69,-40.76 99.68,-32.09"/>
<polygon fill="#63b8ff" stroke="#63b8ff" points="102.57,-30.13 94,-23.9 96.82,-34.11 102.57,-30.13"/>
</a>
</g>
</g>
<!-- Node105&#45;&gt;Node17 -->
<g id="edge36_Node000105_Node000017" class="edge">
<title>Node105&#45;&gt;Node17</title>
<g id="a_edge36_Node000105_Node000017"><a xlink:title=" ">
<path fill="none" stroke="#63b8ff" d="M148.53,-57.79C167.8,-49.19 195.24,-36.94 216.85,-27.29"/>
<polygon fill="#63b8ff" stroke="#63b8ff" points="218.15,-30.55 225.85,-23.27 215.3,-24.16 218.15,-30.55"/>
</a>
</g>
</g>
<!-- Node106&#45;&gt;Node17 -->
<g id="edge38_Node000106_Node000017" class="edge">
<title>Node106&#45;&gt;Node17</title>
<g id="a_edge38_Node000106_Node000017"><a xlink:title=" ">
<path fill="none" stroke="#63b8ff" d="M138.11,-116.2C152.62,-102.79 178.6,-78.78 200.83,-58.25 210.72,-49.12 221.72,-38.97 230.88,-30.53"/>
<polygon fill="#63b8ff" stroke="#63b8ff" points="233.22,-33.13 238.2,-23.77 228.47,-27.98 233.22,-33.13"/>
</a>
</g>
</g>
<!-- Node106&#45;&gt;Node26 -->
<g id="edge39_Node000106_Node000026" class="edge">
<title>Node106&#45;&gt;Node26</title>
<g id="a_edge39_Node000106_Node000026"><a xlink:title=" ">
<path fill="none" stroke="#63b8ff" d="M111.78,-116.04C100.27,-107.95 84.18,-96.63 70.89,-87.29"/>
<polygon fill="#63b8ff" stroke="#63b8ff" points="73.24,-84.67 63.05,-81.78 69.22,-90.39 73.24,-84.67"/>
</a>
</g>
</g>
<!-- Node107&#45;&gt;Node2 -->
<g id="edge41_Node000107_Node000002" class="edge">
<title>Node107&#45;&gt;Node2</title>
<g id="a_edge41_Node000107_Node000002"><a xlink:title=" ">
<path fill="none" stroke="#63b8ff" d="M209.27,-61.02C187.5,-52.4 150.87,-37.89 123.15,-26.91"/>
<polygon fill="#63b8ff" stroke="#63b8ff" points="124.64,-23.73 114.05,-23.3 122.06,-30.24 124.64,-23.73"/>
</a>
</g>
</g>
<!-- Node107&#45;&gt;Node17 -->
<g id="edge42_Node000107_Node000017" class="edge">
<title>Node107&#45;&gt;Node17</title>
<g id="a_edge42_Node000107_Node000017"><a xlink:title=" ">
<path fill="none" stroke="#63b8ff" d="M232.16,-57.79C234.98,-50.88 238.77,-41.61 242.2,-33.23"/>
<polygon fill="#63b8ff" stroke="#63b8ff" points="245.41,-34.64 245.95,-24.06 238.93,-31.99 245.41,-34.64"/>
</a>
</g>
</g>
</g>
</svg>
