<?xml version="1.0" encoding="UTF-8" standalone="no"?>
<!DOCTYPE svg PUBLIC "-//W3C//DTD SVG 1.1//EN"
 "http://www.w3.org/Graphics/SVG/1.1/DTD/svg11.dtd">
<!-- Generated by graphviz version 7.1.0 (0)
 -->
<!-- Title: ssl_setup Pages: 1 -->
<svg width="337pt" height="355pt"
 viewBox="0.00 0.00 337.00 355.39" xmlns="http://www.w3.org/2000/svg" xmlns:xlink="http://www.w3.org/1999/xlink">
<g id="graph0" class="graph" transform="scale(1 1) rotate(0) translate(4 351.39)">
<title>ssl_setup</title>
<!-- Node1 -->
<g id="node1" class="node">
<title>Node1</title>
<g id="a_node1"><a xlink:title="Set up SSL on the Connection.">
<polygon fill="#999999" stroke="#666666" points="59,-187 0,-187 0,-168 59,-168 59,-187"/>
<text text-anchor="middle" x="29.5" y="-175" font-family="Helvetica,sans-Serif" font-size="10.00">ssl_setup</text>
</a>
</g>
</g>
<!-- Node2 -->
<g id="node2" class="node">
<title>Node2</title>
<g id="a_node2"><a xlink:href="config_2helpers_8c.html#ae50f679dd6c5bd1ba820884c8602f038" target="_top" xlink:title="Get a boolean config item by name.">
<polygon fill="#fff0f0" stroke="red" points="329,-336 243,-336 243,-317 329,-317 329,-336"/>
<text text-anchor="middle" x="286" y="-324" font-family="Helvetica,sans-Serif" font-size="10.00">cs_subset_bool</text>
</a>
</g>
</g>
<!-- Node1&#45;&gt;Node2 -->
<g id="edge1" class="edge">
<title>Node1&#45;&gt;Node2</title>
<path fill="none" stroke="#63b8ff" d="M31.24,-187.45C33.93,-215.31 45.76,-294.16 95,-326.5 138.47,-355.05 200.47,-348.43 241.68,-339.14"/>
<polygon fill="#63b8ff" stroke="#63b8ff" points="242.35,-342.57 251.25,-336.83 240.71,-335.77 242.35,-342.57"/>
</g>
<!-- Node30 -->
<g id="node3" class="node">
<title>Node30</title>
<g id="a_node3"><a xlink:href="config_2helpers_8c.html#a9f184e61342916799259930333f4205f" target="_top" xlink:title="Get a path config item by name.">
<polygon fill="#fff0f0" stroke="red" points="329,-93 243,-93 243,-74 329,-74 329,-93"/>
<text text-anchor="middle" x="286" y="-81" font-family="Helvetica,sans-Serif" font-size="10.00">cs_subset_path</text>
</a>
</g>
</g>
<!-- Node1&#45;&gt;Node30 -->
<g id="edge2" class="edge">
<title>Node1&#45;&gt;Node30</title>
<path fill="none" stroke="#63b8ff" d="M45.93,-167.66C58.71,-159.81 77.54,-148.94 95,-141.5 140.05,-122.31 193.58,-106.57 232.32,-96.35"/>
<polygon fill="#63b8ff" stroke="#63b8ff" points="233.07,-99.77 241.87,-93.87 231.31,-92.99 233.07,-99.77"/>
</g>
<!-- Node31 -->
<g id="node4" class="node">
<title>Node31</title>
<g id="a_node4"><a xlink:href="config_2helpers_8c.html#a6b1589ee93ff51ef31f1d9324e138078" target="_top" xlink:title="Get a string config item by name.">
<polygon fill="#fff0f0" stroke="red" points="197,-280 105,-280 105,-261 197,-261 197,-280"/>
<text text-anchor="middle" x="151" y="-268" font-family="Helvetica,sans-Serif" font-size="10.00">cs_subset_string</text>
</a>
</g>
</g>
<!-- Node1&#45;&gt;Node31 -->
<g id="edge3" class="edge">
<title>Node1&#45;&gt;Node31</title>
<path fill="none" stroke="#63b8ff" d="M36.37,-187.28C46.42,-203.21 68.43,-234.77 95,-252.5 96.79,-253.69 98.66,-254.81 100.59,-255.86"/>
<polygon fill="#63b8ff" stroke="#63b8ff" points="98.69,-258.84 109.23,-259.9 101.65,-252.49 98.69,-258.84"/>
</g>
<!-- Node9 -->
<g id="node5" class="node">
<title>Node9</title>
<g id="a_node5"><a xlink:href="memory_8c.html#a39469100e5b8ae30c8f6f21e206aefe8" target="_top" xlink:title="Allocate zeroed memory on the heap.">
<polygon fill="#fff0f0" stroke="red" points="199.5,-243 102.5,-243 102.5,-224 199.5,-224 199.5,-243"/>
<text text-anchor="middle" x="151" y="-231" font-family="Helvetica,sans-Serif" font-size="10.00">mutt_mem_calloc</text>
</a>
</g>
</g>
<!-- Node1&#45;&gt;Node9 -->
<g id="edge4" class="edge">
<title>Node1&#45;&gt;Node9</title>
<path fill="none" stroke="#63b8ff" d="M45.13,-187.36C57.89,-195.65 77.12,-207.42 95,-215.5 98.3,-216.99 101.75,-218.42 105.26,-219.77"/>
<polygon fill="#63b8ff" stroke="#63b8ff" points="103.8,-222.96 114.4,-223.07 106.18,-216.38 103.8,-222.96"/>
</g>
<!-- Node32 -->
<g id="node6" class="node">
<title>Node32</title>
<g id="a_node6"><a xlink:href="openssl_8c.html#aaf61ace510a4bea2797d93f0226dc631" target="_top" xlink:title="Get a Connection&#39;s socket data.">
<polygon fill="white" stroke="#666666" points="179.5,-206 122.5,-206 122.5,-187 179.5,-187 179.5,-206"/>
<text text-anchor="middle" x="151" y="-194" font-family="Helvetica,sans-Serif" font-size="10.00">sockdata</text>
</a>
</g>
</g>
<!-- Node1&#45;&gt;Node32 -->
<g id="edge5" class="edge">
<title>Node1&#45;&gt;Node32</title>
<path fill="none" stroke="#63b8ff" d="M59.43,-182.1C74.92,-184.56 94.21,-187.63 111.01,-190.3"/>
<polygon fill="#63b8ff" stroke="#63b8ff" points="110.24,-193.72 120.67,-191.84 111.34,-186.81 110.24,-193.72"/>
</g>
<!-- Node33 -->
<g id="node7" class="node">
<title>Node33</title>
<g id="a_node7"><a xlink:href="openssl_8c.html#a8f0e82431c3c3b2f63982217cc0e9f50" target="_top" xlink:title="Dump the SSL error stack.">
<polygon fill="#fff0f0" stroke="red" points="205,-169 97,-169 97,-150 205,-150 205,-169"/>
<text text-anchor="middle" x="151" y="-157" font-family="Helvetica,sans-Serif" font-size="10.00">ssl_dprint_err_stack</text>
</a>
</g>
</g>
<!-- Node1&#45;&gt;Node33 -->
<g id="edge6" class="edge">
<title>Node1&#45;&gt;Node33</title>
<path fill="none" stroke="#63b8ff" d="M59.43,-173.14C67.38,-171.94 76.34,-170.59 85.45,-169.22"/>
<polygon fill="#63b8ff" stroke="#63b8ff" points="85.72,-172.72 95.08,-167.77 84.67,-165.8 85.72,-172.72"/>
</g>
<!-- Node35 -->
<g id="node8" class="node">
<title>Node35</title>
<g id="a_node8"><a xlink:href="openssl_8c.html#ad249269819bbf126758110522b538d62" target="_top" xlink:title="Get the client certificate for an SSL connection.">
<polygon fill="#fff0f0" stroke="red" points="201.5,-93 100.5,-93 100.5,-74 201.5,-74 201.5,-93"/>
<text text-anchor="middle" x="151" y="-81" font-family="Helvetica,sans-Serif" font-size="10.00">ssl_get_client_cert</text>
</a>
</g>
</g>
<!-- Node1&#45;&gt;Node35 -->
<g id="edge7" class="edge">
<title>Node1&#45;&gt;Node35</title>
<path fill="none" stroke="#63b8ff" d="M37.41,-167.71C48.24,-152.97 70.5,-124.95 95,-107.5 99.81,-104.07 105.18,-100.99 110.64,-98.26"/>
<polygon fill="#63b8ff" stroke="#63b8ff" points="112.1,-101.45 119.72,-94.09 109.18,-95.08 112.1,-101.45"/>
</g>
<!-- Node1266 -->
<g id="node9" class="node">
<title>Node1266</title>
<g id="a_node9"><a xlink:href="openssl_8c.html#a86d74c54bdd9ad5c3ff5ae03a0772565" target="_top" xlink:title="Load certificates and filter out the expired ones.">
<polygon fill="white" stroke="#666666" points="204.5,-19 97.5,-19 97.5,0 204.5,0 204.5,-19"/>
<text text-anchor="middle" x="151" y="-7" font-family="Helvetica,sans-Serif" font-size="10.00">ssl_load_certificates</text>
</a>
</g>
</g>
<!-- Node1&#45;&gt;Node1266 -->
<g id="edge9" class="edge">
<title>Node1&#45;&gt;Node1266</title>
<path fill="none" stroke="#63b8ff" d="M31.86,-167.85C36.1,-141.44 51.48,-67.28 95,-27.5 95.78,-26.79 96.59,-26.1 97.42,-25.45"/>
<polygon fill="#63b8ff" stroke="#63b8ff" points="99.21,-28.46 105.84,-20.2 95.5,-22.52 99.21,-28.46"/>
</g>
<!-- Node1267 -->
<g id="node10" class="node">
<title>Node1267</title>
<g id="a_node10"><a xlink:href="openssl_8c.html#a7480af2397359ace6c8741be1e680295" target="_top" xlink:title="Attempt to negotiate SSL over the wire.">
<polygon fill="#fff0f0" stroke="red" points="189.5,-56 112.5,-56 112.5,-37 189.5,-37 189.5,-56"/>
<text text-anchor="middle" x="151" y="-44" font-family="Helvetica,sans-Serif" font-size="10.00">ssl_negotiate</text>
</a>
</g>
</g>
<!-- Node1&#45;&gt;Node1267 -->
<g id="edge11" class="edge">
<title>Node1&#45;&gt;Node1267</title>
<path fill="none" stroke="#63b8ff" d="M33.55,-167.54C40.7,-145.84 60.58,-93.94 95,-65.5 97.1,-63.76 99.37,-62.18 101.75,-60.74"/>
<polygon fill="#63b8ff" stroke="#63b8ff" points="103.29,-63.88 110.65,-56.26 100.15,-57.63 103.29,-63.88"/>
</g>
<!-- Node1284 -->
<g id="node11" class="node">
<title>Node1284</title>
<g id="a_node11"><a xlink:href="openssl_8c.html#ab4a51e4093b93309989ffff46504c241" target="_top" xlink:title="Allow verification using partial chains (with no root)">
<polygon fill="white" stroke="#666666" points="207,-317 95,-317 95,-298 207,-298 207,-317"/>
<text text-anchor="middle" x="151" y="-305" font-family="Helvetica,sans-Serif" font-size="10.00">ssl_set_verify_partial</text>
</a>
</g>
</g>
<!-- Node1&#45;&gt;Node1284 -->
<g id="edge12" class="edge">
<title>Node1&#45;&gt;Node1284</title>
<path fill="none" stroke="#63b8ff" d="M33.51,-187.5C40.59,-209.28 60.34,-261.34 95,-289.5 96.12,-290.41 97.28,-291.27 98.49,-292.09"/>
<polygon fill="#63b8ff" stroke="#63b8ff" points="96.57,-295.03 107.01,-296.84 99.97,-288.91 96.57,-295.03"/>
</g>
<!-- Node35&#45;&gt;Node30 -->
<g id="edge8" class="edge">
<title>Node35&#45;&gt;Node30</title>
<path fill="none" stroke="#63b8ff" d="M201.9,-83.5C211.54,-83.5 221.68,-83.5 231.44,-83.5"/>
<polygon fill="#63b8ff" stroke="#63b8ff" points="231.14,-87 241.14,-83.5 231.14,-80 231.14,-87"/>
</g>
<!-- Node1266&#45;&gt;Node30 -->
<g id="edge10" class="edge">
<title>Node1266&#45;&gt;Node30</title>
<path fill="none" stroke="#63b8ff" d="M187.85,-19.47C194.37,-21.77 201,-24.45 207,-27.5 228.18,-38.24 249.93,-54.37 265.07,-66.56"/>
<polygon fill="#63b8ff" stroke="#63b8ff" points="262.46,-68.94 272.41,-72.6 266.91,-63.54 262.46,-68.94"/>
</g>
<!-- Node1284&#45;&gt;Node2 -->
<g id="edge13" class="edge">
<title>Node1284&#45;&gt;Node2</title>
<path fill="none" stroke="#63b8ff" d="M207.25,-315.39C215.21,-316.53 223.39,-317.7 231.32,-318.83"/>
<polygon fill="#63b8ff" stroke="#63b8ff" points="230.81,-322.29 241.2,-320.24 231.8,-315.36 230.81,-322.29"/>
</g>
</g>
</svg>
