<?xml version="1.0" encoding="UTF-8" standalone="no"?>
<!DOCTYPE svg PUBLIC "-//W3C//DTD SVG 1.1//EN"
 "http://www.w3.org/Graphics/SVG/1.1/DTD/svg11.dtd">
<!-- Generated by graphviz version 7.1.0 (0)
 -->
<!-- Title: pager/pager.c Pages: 1 -->
<svg width="874pt" height="247pt"
 viewBox="0.00 0.00 874.29 247.00" xmlns="http://www.w3.org/2000/svg" xmlns:xlink="http://www.w3.org/1999/xlink">
<g id="graph0" class="graph" transform="scale(1 1) rotate(0) translate(4 243)">
<title>pager/pager.c</title>
<!-- Node1 -->
<g id="node1" class="node">
<title>Node1</title>
<g id="a_node1"><a xlink:title="Pager Window.">
<polygon fill="#999999" stroke="#666666" points="472.79,-239 391.79,-239 391.79,-220 472.79,-220 472.79,-239"/>
<text text-anchor="middle" x="432.29" y="-227" font-family="Helvetica,sans-Serif" font-size="10.00">pager/pager.c</text>
</a>
</g>
</g>
<!-- Node2 -->
<g id="node2" class="node">
<title>Node2</title>
<g id="a_node2"><a xlink:title=" ">
<polygon fill="#e0e0e0" stroke="#999999" points="299.29,-19 245.29,-19 245.29,0 299.29,0 299.29,-19"/>
<text text-anchor="middle" x="272.29" y="-7" font-family="Helvetica,sans-Serif" font-size="10.00">config.h</text>
</a>
</g>
</g>
<!-- Node1&#45;&gt;Node2 -->
<g id="edge1" class="edge">
<title>Node1&#45;&gt;Node2</title>
<path fill="none" stroke="#63b8ff" d="M391.59,-225.89C311.8,-220.37 137.76,-206.13 82.29,-184 43.89,-168.68 25.97,-165.87 7.29,-129 -38.35,-38.93 149.78,-17.26 233.71,-12.1"/>
<polygon fill="#63b8ff" stroke="#63b8ff" points="233.76,-15.6 243.55,-11.54 233.37,-8.61 233.76,-15.6"/>
</g>
<!-- Node3 -->
<g id="node3" class="node">
<title>Node3</title>
<g id="a_node3"><a xlink:title=" ">
<polygon fill="#e0e0e0" stroke="#999999" points="406.29,-74 346.29,-74 346.29,-55 406.29,-55 406.29,-74"/>
<text text-anchor="middle" x="376.29" y="-62" font-family="Helvetica,sans-Serif" font-size="10.00">stdbool.h</text>
</a>
</g>
</g>
<!-- Node1&#45;&gt;Node3 -->
<g id="edge2" class="edge">
<title>Node1&#45;&gt;Node3</title>
<path fill="none" stroke="#63b8ff" d="M429.28,-219.74C420.58,-194.42 395.26,-120.72 383.04,-85.16"/>
<polygon fill="#63b8ff" stroke="#63b8ff" points="386.36,-84.06 379.81,-75.74 379.74,-86.33 386.36,-84.06"/>
</g>
<!-- Node4 -->
<g id="node4" class="node">
<title>Node4</title>
<g id="a_node4"><a xlink:title=" ">
<polygon fill="#e0e0e0" stroke="#999999" points="793.79,-184 738.79,-184 738.79,-165 793.79,-165 793.79,-184"/>
<text text-anchor="middle" x="766.29" y="-172" font-family="Helvetica,sans-Serif" font-size="10.00">stddef.h</text>
</a>
</g>
</g>
<!-- Node1&#45;&gt;Node4 -->
<g id="edge3" class="edge">
<title>Node1&#45;&gt;Node4</title>
<path fill="none" stroke="#63b8ff" d="M473.01,-222.93C529.54,-215.05 634.92,-199.84 724.29,-184 725.28,-183.82 726.29,-183.64 727.3,-183.46"/>
<polygon fill="#63b8ff" stroke="#63b8ff" points="727.66,-186.95 736.82,-181.64 726.34,-180.08 727.66,-186.95"/>
</g>
<!-- Node5 -->
<g id="node5" class="node">
<title>Node5</title>
<g id="a_node5"><a xlink:title=" ">
<polygon fill="#e0e0e0" stroke="#999999" points="77.79,-129 16.79,-129 16.79,-110 77.79,-110 77.79,-129"/>
<text text-anchor="middle" x="47.29" y="-117" font-family="Helvetica,sans-Serif" font-size="10.00">sys/stat.h</text>
</a>
</g>
</g>
<!-- Node1&#45;&gt;Node5 -->
<g id="edge4" class="edge">
<title>Node1&#45;&gt;Node5</title>
<path fill="none" stroke="#63b8ff" d="M391.35,-225.99C316.46,-220.89 160.63,-207.71 112.29,-184 90.68,-173.4 71.74,-152.88 59.96,-138.03"/>
<polygon fill="#63b8ff" stroke="#63b8ff" points="63.05,-136.31 54.22,-130.45 57.47,-140.54 63.05,-136.31"/>
</g>
<!-- Node6 -->
<g id="node6" class="node">
<title>Node6</title>
<g id="a_node6"><a xlink:href="mutt_2lib_8h.html" target="_top" xlink:title="Convenience wrapper for the library headers.">
<polygon fill="#fff0f0" stroke="red" points="486.29,-74 424.29,-74 424.29,-55 486.29,-55 486.29,-74"/>
<text text-anchor="middle" x="455.29" y="-62" font-family="Helvetica,sans-Serif" font-size="10.00">mutt/lib.h</text>
</a>
</g>
</g>
<!-- Node1&#45;&gt;Node6 -->
<g id="edge5" class="edge">
<title>Node1&#45;&gt;Node6</title>
<path fill="none" stroke="#63b8ff" d="M473.28,-228.15C515.87,-225.88 582.69,-216.79 629.29,-184 652.98,-167.33 656.19,-156.82 664.29,-129 666.65,-120.89 669.6,-116.56 664.29,-110 643.75,-84.63 552.68,-73.11 497.76,-68.39"/>
<polygon fill="#63b8ff" stroke="#63b8ff" points="498.39,-64.93 488.14,-67.6 497.82,-71.9 498.39,-64.93"/>
</g>
<!-- Node54 -->
<g id="node7" class="node">
<title>Node54</title>
<g id="a_node7"><a xlink:href="config_2lib_8h.html" target="_top" xlink:title="Convenience wrapper for the config headers.">
<polygon fill="#fff0f0" stroke="red" points="528.29,-129 460.29,-129 460.29,-110 528.29,-110 528.29,-129"/>
<text text-anchor="middle" x="494.29" y="-117" font-family="Helvetica,sans-Serif" font-size="10.00">config/lib.h</text>
</a>
</g>
</g>
<!-- Node1&#45;&gt;Node54 -->
<g id="edge7" class="edge">
<title>Node1&#45;&gt;Node54</title>
<path fill="none" stroke="#63b8ff" d="M437.36,-219.66C447.4,-202.18 469.98,-162.84 483.49,-139.3"/>
<polygon fill="#63b8ff" stroke="#63b8ff" points="486.45,-141.19 488.39,-130.77 480.38,-137.7 486.45,-141.19"/>
</g>
<!-- Node69 -->
<g id="node8" class="node">
<title>Node69</title>
<g id="a_node8"><a xlink:href="core_2lib_8h.html" target="_top" xlink:title="Convenience wrapper for the core headers.">
<polygon fill="#fff0f0" stroke="red" points="606.29,-129 546.29,-129 546.29,-110 606.29,-110 606.29,-129"/>
<text text-anchor="middle" x="576.29" y="-117" font-family="Helvetica,sans-Serif" font-size="10.00">core/lib.h</text>
</a>
</g>
</g>
<!-- Node1&#45;&gt;Node69 -->
<g id="edge9" class="edge">
<title>Node1&#45;&gt;Node69</title>
<path fill="none" stroke="#63b8ff" d="M444.07,-219.66C468.44,-201.39 524.64,-159.23 555.34,-136.21"/>
<polygon fill="#63b8ff" stroke="#63b8ff" points="557.23,-139.17 563.13,-130.37 553.03,-133.57 557.23,-139.17"/>
</g>
<!-- Node79 -->
<g id="node9" class="node">
<title>Node79</title>
<g id="a_node9"><a xlink:href="gui_2lib_8h.html" target="_top" xlink:title="Convenience wrapper for the gui headers.">
<polygon fill="#fff0f0" stroke="red" points="866.29,-184 812.29,-184 812.29,-165 866.29,-165 866.29,-184"/>
<text text-anchor="middle" x="839.29" y="-172" font-family="Helvetica,sans-Serif" font-size="10.00">gui/lib.h</text>
</a>
</g>
</g>
<!-- Node1&#45;&gt;Node79 -->
<g id="edge10" class="edge">
<title>Node1&#45;&gt;Node79</title>
<path fill="none" stroke="#63b8ff" d="M473.13,-225.12C539.7,-219.27 675.88,-205.95 800.58,-184.3"/>
<polygon fill="#63b8ff" stroke="#63b8ff" points="801.11,-187.76 810.35,-182.58 799.89,-180.87 801.11,-187.76"/>
</g>
<!-- Node114 -->
<g id="node10" class="node">
<title>Node114</title>
<g id="a_node10"><a xlink:href="pager_2lib_8h.html" target="_top" xlink:title="GUI display a file/email/help in a viewport with paging.">
<polygon fill="#fff0f0" stroke="red" points="290.29,-129 254.29,-129 254.29,-110 290.29,-110 290.29,-129"/>
<text text-anchor="middle" x="272.29" y="-117" font-family="Helvetica,sans-Serif" font-size="10.00">lib.h</text>
</a>
</g>
</g>
<!-- Node1&#45;&gt;Node114 -->
<g id="edge11" class="edge">
<title>Node1&#45;&gt;Node114</title>
<path fill="none" stroke="#63b8ff" d="M395.03,-219.53C371.61,-212.58 341.7,-201.2 319.29,-184 303.49,-171.88 290.49,-153.08 282.2,-139.08"/>
<polygon fill="#63b8ff" stroke="#63b8ff" points="285.29,-137.42 277.34,-130.42 279.18,-140.85 285.29,-137.42"/>
</g>
<!-- Node90 -->
<g id="node11" class="node">
<title>Node90</title>
<g id="a_node11"><a xlink:href="color_2lib_8h.html" target="_top" xlink:title="Color and attribute parsing.">
<polygon fill="#fff0f0" stroke="red" points="235.79,-129 172.79,-129 172.79,-110 235.79,-110 235.79,-129"/>
<text text-anchor="middle" x="204.29" y="-117" font-family="Helvetica,sans-Serif" font-size="10.00">color/lib.h</text>
</a>
</g>
</g>
<!-- Node1&#45;&gt;Node90 -->
<g id="edge15" class="edge">
<title>Node1&#45;&gt;Node90</title>
<path fill="none" stroke="#63b8ff" d="M395.38,-219.52C367.37,-211.98 328.34,-199.89 296.29,-184 269.59,-170.76 241.81,-150.56 223.86,-136.51"/>
<polygon fill="#63b8ff" stroke="#63b8ff" points="226.16,-133.86 216.16,-130.36 221.79,-139.33 226.16,-133.86"/>
</g>
<!-- Node115 -->
<g id="node12" class="node">
<title>Node115</title>
<g id="a_node12"><a xlink:href="index_2lib_8h.html" target="_top" xlink:title="GUI manage the main index (list of emails)">
<polygon fill="#fff0f0" stroke="red" points="619.79,-184 554.79,-184 554.79,-165 619.79,-165 619.79,-184"/>
<text text-anchor="middle" x="587.29" y="-172" font-family="Helvetica,sans-Serif" font-size="10.00">index/lib.h</text>
</a>
</g>
</g>
<!-- Node1&#45;&gt;Node115 -->
<g id="edge16" class="edge">
<title>Node1&#45;&gt;Node115</title>
<path fill="none" stroke="#63b8ff" d="M458.58,-219.51C483.82,-210.88 522.17,-197.76 550.45,-188.1"/>
<polygon fill="#63b8ff" stroke="#63b8ff" points="551.36,-191.48 559.69,-184.94 549.1,-184.86 551.36,-191.48"/>
</g>
<!-- Node118 -->
<g id="node13" class="node">
<title>Node118</title>
<g id="a_node13"><a xlink:href="display_8h.html" target="_top" xlink:title="Pager Display.">
<polygon fill="#fff0f0" stroke="red" points="384.29,-184 328.29,-184 328.29,-165 384.29,-165 384.29,-184"/>
<text text-anchor="middle" x="356.29" y="-172" font-family="Helvetica,sans-Serif" font-size="10.00">display.h</text>
</a>
</g>
</g>
<!-- Node1&#45;&gt;Node118 -->
<g id="edge20" class="edge">
<title>Node1&#45;&gt;Node118</title>
<path fill="none" stroke="#63b8ff" d="M419.4,-219.51C408.19,-211.7 391.72,-200.21 378.41,-190.93"/>
<polygon fill="#63b8ff" stroke="#63b8ff" points="380.44,-188.07 370.23,-185.22 376.43,-193.81 380.44,-188.07"/>
</g>
<!-- Node119 -->
<g id="node14" class="node">
<title>Node119</title>
<g id="a_node14"><a xlink:href="pager_2private__data_8h.html" target="_top" xlink:title="Private state data for the Pager.">
<polygon fill="#fff0f0" stroke="red" points="204.79,-184 121.79,-184 121.79,-165 204.79,-165 204.79,-184"/>
<text text-anchor="middle" x="163.29" y="-172" font-family="Helvetica,sans-Serif" font-size="10.00">private_data.h</text>
</a>
</g>
</g>
<!-- Node1&#45;&gt;Node119 -->
<g id="edge25" class="edge">
<title>Node1&#45;&gt;Node119</title>
<path fill="none" stroke="#63b8ff" d="M391.43,-220.45C344.56,-211.22 267.58,-196.05 216.17,-185.92"/>
<polygon fill="#63b8ff" stroke="#63b8ff" points="216.94,-182.5 206.46,-184.01 215.59,-189.37 216.94,-182.5"/>
</g>
<!-- Node6&#45;&gt;Node2 -->
<g id="edge6" class="edge">
<title>Node6&#45;&gt;Node2</title>
<path fill="none" stroke="#63b8ff" d="M424.24,-54.51C392.82,-45.41 344.17,-31.32 310.42,-21.54"/>
<polygon fill="#63b8ff" stroke="#63b8ff" points="311.63,-18.25 301.05,-18.83 309.68,-24.97 311.63,-18.25"/>
</g>
<!-- Node54&#45;&gt;Node3 -->
<g id="edge8" class="edge">
<title>Node54&#45;&gt;Node3</title>
<path fill="none" stroke="#63b8ff" d="M474.27,-109.51C455.68,-101.16 427.75,-88.61 406.45,-79.05"/>
<polygon fill="#63b8ff" stroke="#63b8ff" points="407.95,-75.88 397.39,-74.98 405.08,-82.27 407.95,-75.88"/>
</g>
<!-- Node114&#45;&gt;Node2 -->
<g id="edge12" class="edge">
<title>Node114&#45;&gt;Node2</title>
<path fill="none" stroke="#63b8ff" d="M272.29,-109.66C272.29,-92.57 272.29,-54.61 272.29,-30.92"/>
<polygon fill="#63b8ff" stroke="#63b8ff" points="275.79,-30.97 272.29,-20.97 268.79,-30.97 275.79,-30.97"/>
</g>
<!-- Node114&#45;&gt;Node3 -->
<g id="edge13" class="edge">
<title>Node114&#45;&gt;Node3</title>
<path fill="none" stroke="#63b8ff" d="M289.93,-109.51C306.01,-101.31 330.03,-89.07 348.66,-79.58"/>
<polygon fill="#63b8ff" stroke="#63b8ff" points="350.24,-82.7 357.56,-75.05 347.06,-76.47 350.24,-82.7"/>
</g>
<!-- Node114&#45;&gt;Node6 -->
<g id="edge14" class="edge">
<title>Node114&#45;&gt;Node6</title>
<path fill="none" stroke="#63b8ff" d="M290.5,-113.22C318.97,-104.98 374.76,-88.82 413.49,-77.61"/>
<polygon fill="#63b8ff" stroke="#63b8ff" points="414.33,-81 422.97,-74.86 412.39,-74.28 414.33,-81"/>
</g>
<!-- Node115&#45;&gt;Node3 -->
<g id="edge17" class="edge">
<title>Node115&#45;&gt;Node3</title>
<path fill="none" stroke="#63b8ff" d="M596.48,-164.87C609.27,-151.82 629.35,-126.82 615.29,-110 588.19,-77.59 475.51,-82.02 417.63,-74.04"/>
<polygon fill="#63b8ff" stroke="#63b8ff" points="418.43,-70.63 407.99,-72.45 417.29,-77.53 418.43,-70.63"/>
</g>
<!-- Node115&#45;&gt;Node6 -->
<g id="edge18" class="edge">
<title>Node115&#45;&gt;Node6</title>
<path fill="none" stroke="#63b8ff" d="M607.15,-164.54C630.72,-152.67 664.85,-130.81 648.29,-110 629.87,-86.85 548.99,-74.71 497.96,-69.25"/>
<polygon fill="#63b8ff" stroke="#63b8ff" points="498.43,-65.78 488.13,-68.24 497.72,-72.74 498.43,-65.78"/>
</g>
<!-- Node115&#45;&gt;Node69 -->
<g id="edge19" class="edge">
<title>Node115&#45;&gt;Node69</title>
<path fill="none" stroke="#63b8ff" d="M585.47,-164.75C584.11,-158.19 582.19,-148.95 580.46,-140.6"/>
<polygon fill="#63b8ff" stroke="#63b8ff" points="583.91,-140 578.45,-130.92 577.06,-141.43 583.91,-140"/>
</g>
<!-- Node118&#45;&gt;Node2 -->
<g id="edge21" class="edge">
<title>Node118&#45;&gt;Node2</title>
<path fill="none" stroke="#63b8ff" d="M351.77,-164.74C338.61,-139.2 300.08,-64.43 281.94,-29.23"/>
<polygon fill="#63b8ff" stroke="#63b8ff" points="285.21,-27.94 277.52,-20.65 278.99,-31.14 285.21,-27.94"/>
</g>
<!-- Node118&#45;&gt;Node3 -->
<g id="edge22" class="edge">
<title>Node118&#45;&gt;Node3</title>
<path fill="none" stroke="#63b8ff" d="M357.92,-164.66C361.1,-147.5 368.19,-109.26 372.57,-85.6"/>
<polygon fill="#63b8ff" stroke="#63b8ff" points="375.97,-86.42 374.35,-75.95 369.09,-85.14 375.97,-86.42"/>
</g>
<!-- Node118&#45;&gt;Node6 -->
<g id="edge23" class="edge">
<title>Node118&#45;&gt;Node6</title>
<path fill="none" stroke="#63b8ff" d="M364.39,-164.66C380.78,-146.78 418.12,-106.05 439.49,-82.73"/>
<polygon fill="#63b8ff" stroke="#63b8ff" points="441.87,-85.31 446.05,-75.58 436.71,-80.58 441.87,-85.31"/>
</g>
<!-- Node118&#45;&gt;Node114 -->
<g id="edge24" class="edge">
<title>Node118&#45;&gt;Node114</title>
<path fill="none" stroke="#63b8ff" d="M342.04,-164.51C329.41,-156.54 310.73,-144.75 295.88,-135.38"/>
<polygon fill="#63b8ff" stroke="#63b8ff" points="297.93,-132.54 287.61,-130.17 294.2,-138.46 297.93,-132.54"/>
</g>
<!-- Node119&#45;&gt;Node2 -->
<g id="edge26" class="edge">
<title>Node119&#45;&gt;Node2</title>
<path fill="none" stroke="#63b8ff" d="M158.69,-164.85C152.64,-152.22 143.72,-128.23 152.29,-110 170.94,-70.3 214.08,-40.98 243.22,-24.82"/>
<polygon fill="#63b8ff" stroke="#63b8ff" points="244.75,-27.97 251.92,-20.17 241.45,-21.8 244.75,-27.97"/>
</g>
<!-- Node119&#45;&gt;Node3 -->
<g id="edge27" class="edge">
<title>Node119&#45;&gt;Node3</title>
<path fill="none" stroke="#63b8ff" d="M160.12,-164.55C155.97,-151.1 150.63,-125.57 163.29,-110 184.47,-83.93 279.03,-72.61 334.78,-68.12"/>
<polygon fill="#63b8ff" stroke="#63b8ff" points="334.83,-71.63 344.54,-67.38 334.3,-64.65 334.83,-71.63"/>
</g>
<!-- Node119&#45;&gt;Node5 -->
<g id="edge28" class="edge">
<title>Node119&#45;&gt;Node5</title>
<path fill="none" stroke="#63b8ff" d="M143.61,-164.51C125.34,-156.16 97.87,-143.61 76.94,-134.05"/>
<polygon fill="#63b8ff" stroke="#63b8ff" points="78.6,-130.96 68.05,-129.99 75.69,-137.33 78.6,-130.96"/>
</g>
<!-- Node119&#45;&gt;Node114 -->
<g id="edge29" class="edge">
<title>Node119&#45;&gt;Node114</title>
<path fill="none" stroke="#63b8ff" d="M181.78,-164.51C198.79,-156.24 224.28,-143.84 243.88,-134.31"/>
<polygon fill="#63b8ff" stroke="#63b8ff" points="245.25,-137.54 252.71,-130.02 242.19,-131.25 245.25,-137.54"/>
</g>
<!-- Node119&#45;&gt;Node90 -->
<g id="edge30" class="edge">
<title>Node119&#45;&gt;Node90</title>
<path fill="none" stroke="#63b8ff" d="M170.06,-164.75C175.6,-157.58 183.63,-147.2 190.52,-138.3"/>
<polygon fill="#63b8ff" stroke="#63b8ff" points="193.09,-140.69 196.44,-130.64 187.56,-136.41 193.09,-140.69"/>
</g>
</g>
</svg>
