<?xml version="1.0" encoding="UTF-8" standalone="no"?>
<!DOCTYPE svg PUBLIC "-//W3C//DTD SVG 1.1//EN"
 "http://www.w3.org/Graphics/SVG/1.1/DTD/svg11.dtd">
<!-- Generated by graphviz version 12.2.1 (20241206.2353)
 -->
<!-- Title: pager/pager.c Pages: 1 -->
<svg width="768pt" height="263pt"
 viewBox="0.00 0.00 767.62 263.25" xmlns="http://www.w3.org/2000/svg" xmlns:xlink="http://www.w3.org/1999/xlink">
<g id="graph0" class="graph" transform="scale(1 1) rotate(0) translate(4 259.25)">
<title>pager/pager.c</title>
<!-- Node1 -->
<g id="Node000001" class="node">
<title>Node1</title>
<g id="a_Node000001"><a xlink:title="Pager Window.">
<polygon fill="#999999" stroke="#666666" points="358.06,-255.25 277.56,-255.25 277.56,-233 358.06,-233 358.06,-255.25"/>
<text text-anchor="middle" x="317.81" y="-241.75" font-family="Helvetica,sans-Serif" font-size="10.00">pager/pager.c</text>
</a>
</g>
</g>
<!-- Node2 -->
<g id="Node000002" class="node">
<title>Node2</title>
<g id="a_Node000002"><a xlink:title=" ">
<polygon fill="#e0e0e0" stroke="#999999" points="430.56,-22.25 377.06,-22.25 377.06,0 430.56,0 430.56,-22.25"/>
<text text-anchor="middle" x="403.81" y="-8.75" font-family="Helvetica,sans-Serif" font-size="10.00">config.h</text>
</a>
</g>
</g>
<!-- Node1&#45;&gt;Node2 -->
<g id="edge1_Node000001_Node000002" class="edge">
<title>Node1&#45;&gt;Node2</title>
<g id="a_edge1_Node000001_Node000002"><a xlink:title=" ">
<path fill="none" stroke="#63b8ff" d="M358.48,-241.72C459.49,-237.81 715.53,-225.18 740.81,-197 834.22,-92.85 548.64,-35.3 442.15,-17.87"/>
<polygon fill="#63b8ff" stroke="#63b8ff" points="442.88,-14.44 432.45,-16.32 441.77,-21.36 442.88,-14.44"/>
</a>
</g>
</g>
<!-- Node3 -->
<g id="Node000003" class="node">
<title>Node3</title>
<g id="a_Node000003"><a xlink:title=" ">
<polygon fill="#e0e0e0" stroke="#999999" points="491.56,-80.5 432.06,-80.5 432.06,-58.25 491.56,-58.25 491.56,-80.5"/>
<text text-anchor="middle" x="461.81" y="-67" font-family="Helvetica,sans-Serif" font-size="10.00">stdbool.h</text>
</a>
</g>
</g>
<!-- Node1&#45;&gt;Node3 -->
<g id="edge2_Node000001_Node000003" class="edge">
<title>Node1&#45;&gt;Node3</title>
<g id="a_edge2_Node000001_Node000003"><a xlink:title=" ">
<path fill="none" stroke="#63b8ff" d="M358.55,-242.55C428.27,-240.62 565.87,-232.31 595.81,-197 606.33,-184.59 610.93,-142.61 590.81,-116.5 570.11,-89.64 532.46,-78.39 503.15,-73.7"/>
<polygon fill="#63b8ff" stroke="#63b8ff" points="503.87,-70.26 493.48,-72.36 502.91,-77.2 503.87,-70.26"/>
</a>
</g>
</g>
<!-- Node4 -->
<g id="Node000004" class="node">
<title>Node4</title>
<g id="a_Node000004"><a xlink:title=" ">
<polygon fill="#e0e0e0" stroke="#999999" points="58.93,-22.25 4.68,-22.25 4.68,0 58.93,0 58.93,-22.25"/>
<text text-anchor="middle" x="31.81" y="-8.75" font-family="Helvetica,sans-Serif" font-size="10.00">stddef.h</text>
</a>
</g>
</g>
<!-- Node1&#45;&gt;Node4 -->
<g id="edge3_Node000001_Node000004" class="edge">
<title>Node1&#45;&gt;Node4</title>
<g id="a_edge3_Node000001_Node000004"><a xlink:title=" ">
<path fill="none" stroke="#63b8ff" d="M277.15,-242.02C226.79,-239.22 139.5,-229.59 72.81,-197 37.66,-179.82 22.9,-174.41 6.81,-138.75 -9.09,-103.52 7.79,-58.28 20.49,-32.52"/>
<polygon fill="#63b8ff" stroke="#63b8ff" points="23.51,-34.28 25.03,-23.79 17.31,-31.04 23.51,-34.28"/>
</a>
</g>
</g>
<!-- Node5 -->
<g id="Node000005" class="node">
<title>Node5</title>
<g id="a_Node000005"><a xlink:title=" ">
<polygon fill="#e0e0e0" stroke="#999999" points="321.93,-138.75 261.68,-138.75 261.68,-116.5 321.93,-116.5 321.93,-138.75"/>
<text text-anchor="middle" x="291.81" y="-125.25" font-family="Helvetica,sans-Serif" font-size="10.00">sys/stat.h</text>
</a>
</g>
</g>
<!-- Node1&#45;&gt;Node5 -->
<g id="edge4_Node000001_Node000005" class="edge">
<title>Node1&#45;&gt;Node5</title>
<g id="a_edge4_Node000001_Node000005"><a xlink:title=" ">
<path fill="none" stroke="#63b8ff" d="M304.28,-232.65C294.58,-224.21 282.29,-211.42 276.81,-197 270.94,-181.56 275.53,-163.24 281.13,-149.45"/>
<polygon fill="#63b8ff" stroke="#63b8ff" points="284.26,-151.02 285.24,-140.47 277.9,-148.11 284.26,-151.02"/>
</a>
</g>
</g>
<!-- Node6 -->
<g id="Node000006" class="node">
<title>Node6</title>
<g id="a_Node000006"><a xlink:href="mutt_2lib_8h.html" target="_top" xlink:title="Convenience wrapper for the library headers.">
<polygon fill="#fff0f0" stroke="red" points="242.68,-80.5 180.93,-80.5 180.93,-58.25 242.68,-58.25 242.68,-80.5"/>
<text text-anchor="middle" x="211.81" y="-67" font-family="Helvetica,sans-Serif" font-size="10.00">mutt/lib.h</text>
</a>
</g>
</g>
<!-- Node1&#45;&gt;Node6 -->
<g id="edge5_Node000001_Node000006" class="edge">
<title>Node1&#45;&gt;Node6</title>
<g id="a_edge5_Node000001_Node000006"><a xlink:title=" ">
<path fill="none" stroke="#63b8ff" d="M288.67,-232.53C253.04,-217.78 194.55,-187.24 170.81,-138.75 162.19,-121.15 175.65,-102.1 189.41,-88.59"/>
<polygon fill="#63b8ff" stroke="#63b8ff" points="191.64,-91.28 196.69,-81.97 186.93,-86.1 191.64,-91.28"/>
</a>
</g>
</g>
<!-- Node55 -->
<g id="Node000055" class="node">
<title>Node55</title>
<g id="a_Node000055"><a xlink:href="config_2lib_8h.html" target="_top" xlink:title="Convenience wrapper for the config headers.">
<polygon fill="#fff0f0" stroke="red" points="731.68,-197 663.93,-197 663.93,-174.75 731.68,-174.75 731.68,-197"/>
<text text-anchor="middle" x="697.81" y="-183.5" font-family="Helvetica,sans-Serif" font-size="10.00">config/lib.h</text>
</a>
</g>
</g>
<!-- Node1&#45;&gt;Node55 -->
<g id="edge8_Node000001_Node000055" class="edge">
<title>Node1&#45;&gt;Node55</title>
<g id="a_edge8_Node000001_Node000055"><a xlink:title=" ">
<path fill="none" stroke="#63b8ff" d="M358.33,-238.42C421.01,-230.94 545.19,-215.28 649.81,-197 650.64,-196.85 651.48,-196.7 652.33,-196.55"/>
<polygon fill="#63b8ff" stroke="#63b8ff" points="652.87,-200.01 662.03,-194.7 651.55,-193.14 652.87,-200.01"/>
</a>
</g>
</g>
<!-- Node70 -->
<g id="Node000070" class="node">
<title>Node70</title>
<g id="a_Node000070"><a xlink:href="core_2lib_8h.html" target="_top" xlink:title="Convenience wrapper for the core headers.">
<polygon fill="#fff0f0" stroke="red" points="157.56,-80.5 98.06,-80.5 98.06,-58.25 157.56,-58.25 157.56,-80.5"/>
<text text-anchor="middle" x="127.81" y="-67" font-family="Helvetica,sans-Serif" font-size="10.00">core/lib.h</text>
</a>
</g>
</g>
<!-- Node1&#45;&gt;Node70 -->
<g id="edge10_Node000001_Node000070" class="edge">
<title>Node1&#45;&gt;Node70</title>
<g id="a_edge10_Node000001_Node000070"><a xlink:title=" ">
<path fill="none" stroke="#63b8ff" d="M277.27,-236.11C250.66,-229.75 216.53,-218.02 192.81,-197 160.43,-168.31 141.93,-119.63 133.48,-91.73"/>
<polygon fill="#63b8ff" stroke="#63b8ff" points="136.9,-90.95 130.79,-82.29 130.17,-92.87 136.9,-90.95"/>
</a>
</g>
</g>
<!-- Node80 -->
<g id="Node000080" class="node">
<title>Node80</title>
<g id="a_Node000080"><a xlink:href="gui_2lib_8h.html" target="_top" xlink:title="Convenience wrapper for the gui headers.">
<polygon fill="#fff0f0" stroke="red" points="372.56,-197 319.06,-197 319.06,-174.75 372.56,-174.75 372.56,-197"/>
<text text-anchor="middle" x="345.81" y="-183.5" font-family="Helvetica,sans-Serif" font-size="10.00">gui/lib.h</text>
</a>
</g>
</g>
<!-- Node1&#45;&gt;Node80 -->
<g id="edge11_Node000001_Node000080" class="edge">
<title>Node1&#45;&gt;Node80</title>
<g id="a_edge11_Node000001_Node000080"><a xlink:title=" ">
<path fill="none" stroke="#63b8ff" d="M323.08,-232.54C326.56,-225.55 331.24,-216.15 335.45,-207.7"/>
<polygon fill="#63b8ff" stroke="#63b8ff" points="338.57,-209.27 339.89,-198.76 332.3,-206.16 338.57,-209.27"/>
</a>
</g>
</g>
<!-- Node148 -->
<g id="Node000148" class="node">
<title>Node148</title>
<g id="a_Node000148"><a xlink:href="debug_2lib_8h.html" target="_top" xlink:title="Convenience wrapper for the debug headers.">
<polygon fill="#fff0f0" stroke="red" points="85.43,-138.75 16.18,-138.75 16.18,-116.5 85.43,-116.5 85.43,-138.75"/>
<text text-anchor="middle" x="50.81" y="-125.25" font-family="Helvetica,sans-Serif" font-size="10.00">debug/lib.h</text>
</a>
</g>
</g>
<!-- Node1&#45;&gt;Node148 -->
<g id="edge12_Node000001_Node000148" class="edge">
<title>Node1&#45;&gt;Node148</title>
<g id="a_edge12_Node000001_Node000148"><a xlink:title=" ">
<path fill="none" stroke="#63b8ff" d="M277.11,-243.11C230.64,-241.25 154.05,-232.44 99.81,-197 82,-185.37 68.6,-164.84 60.35,-149.3"/>
<polygon fill="#63b8ff" stroke="#63b8ff" points="63.52,-147.82 55.94,-140.42 57.25,-150.94 63.52,-147.82"/>
</a>
</g>
</g>
<!-- Node168 -->
<g id="Node000168" class="node">
<title>Node168</title>
<g id="a_Node000168"><a xlink:href="pager_2lib_8h.html" target="_top" xlink:title="GUI display a file/email/help in a viewport with paging.">
<polygon fill="#fff0f0" stroke="red" points="375.56,-138.75 340.06,-138.75 340.06,-116.5 375.56,-116.5 375.56,-138.75"/>
<text text-anchor="middle" x="357.81" y="-125.25" font-family="Helvetica,sans-Serif" font-size="10.00">lib.h</text>
</a>
</g>
</g>
<!-- Node1&#45;&gt;Node168 -->
<g id="edge18_Node000001_Node000168" class="edge">
<title>Node1&#45;&gt;Node168</title>
<g id="a_edge18_Node000001_Node000168"><a xlink:title=" ">
<path fill="none" stroke="#63b8ff" d="M313.54,-232.94C308.44,-219.16 301.57,-194.1 309.81,-174.75 314.63,-163.43 323.75,-153.54 332.75,-145.86"/>
<polygon fill="#63b8ff" stroke="#63b8ff" points="334.67,-148.8 340.37,-139.87 330.34,-143.3 334.67,-148.8"/>
</a>
</g>
</g>
<!-- Node88 -->
<g id="Node000088" class="node">
<title>Node88</title>
<g id="a_Node000088"><a xlink:href="color_2lib_8h.html" target="_top" xlink:title="Color and attribute parsing.">
<polygon fill="#fff0f0" stroke="red" points="532.06,-138.75 469.56,-138.75 469.56,-116.5 532.06,-116.5 532.06,-138.75"/>
<text text-anchor="middle" x="500.81" y="-125.25" font-family="Helvetica,sans-Serif" font-size="10.00">color/lib.h</text>
</a>
</g>
</g>
<!-- Node1&#45;&gt;Node88 -->
<g id="edge21_Node000001_Node000088" class="edge">
<title>Node1&#45;&gt;Node88</title>
<g id="a_edge21_Node000001_Node000088"><a xlink:title=" ">
<path fill="none" stroke="#63b8ff" d="M358.42,-242.47C395.46,-239.66 449.23,-229.68 481.81,-197 493.97,-184.8 498.52,-165.52 500.14,-150.54"/>
<polygon fill="#63b8ff" stroke="#63b8ff" points="503.62,-150.95 500.81,-140.73 496.63,-150.47 503.62,-150.95"/>
</a>
</g>
</g>
<!-- Node169 -->
<g id="Node000169" class="node">
<title>Node169</title>
<g id="a_Node000169"><a xlink:href="index_2lib_8h.html" target="_top" xlink:title="GUI manage the main index (list of emails)">
<polygon fill="#fff0f0" stroke="red" points="243.81,-138.75 179.81,-138.75 179.81,-116.5 243.81,-116.5 243.81,-138.75"/>
<text text-anchor="middle" x="211.81" y="-125.25" font-family="Helvetica,sans-Serif" font-size="10.00">index/lib.h</text>
</a>
</g>
</g>
<!-- Node1&#45;&gt;Node169 -->
<g id="edge22_Node000001_Node000169" class="edge">
<title>Node1&#45;&gt;Node169</title>
<g id="a_edge22_Node000001_Node000169"><a xlink:title=" ">
<path fill="none" stroke="#63b8ff" d="M306.44,-232.81C296.51,-223.66 281.84,-209.8 269.81,-197 254.74,-180.96 238.62,-161.79 227.22,-147.83"/>
<polygon fill="#63b8ff" stroke="#63b8ff" points="230.11,-145.84 221.09,-140.28 224.67,-150.25 230.11,-145.84"/>
</a>
</g>
</g>
<!-- Node174 -->
<g id="Node000174" class="node">
<title>Node174</title>
<g id="a_Node000174"><a xlink:href="display_8h.html" target="_top" xlink:title="Pager Display.">
<polygon fill="#fff0f0" stroke="red" points="586.68,-197 530.93,-197 530.93,-174.75 586.68,-174.75 586.68,-197"/>
<text text-anchor="middle" x="558.81" y="-183.5" font-family="Helvetica,sans-Serif" font-size="10.00">display.h</text>
</a>
</g>
</g>
<!-- Node1&#45;&gt;Node174 -->
<g id="edge26_Node000001_Node000174" class="edge">
<title>Node1&#45;&gt;Node174</title>
<g id="a_edge26_Node000001_Node000174"><a xlink:title=" ">
<path fill="none" stroke="#63b8ff" d="M358.42,-233.65C403.24,-223.18 474.91,-206.46 519.29,-196.1"/>
<polygon fill="#63b8ff" stroke="#63b8ff" points="520.08,-199.51 529.02,-193.83 518.49,-192.69 520.08,-199.51"/>
</a>
</g>
</g>
<!-- Node175 -->
<g id="Node000175" class="node">
<title>Node175</title>
<g id="a_Node000175"><a xlink:href="pager_2private__data_8h.html" target="_top" xlink:title="Private state data for the Pager.">
<polygon fill="#fff0f0" stroke="red" points="473.18,-197 390.43,-197 390.43,-174.75 473.18,-174.75 473.18,-197"/>
<text text-anchor="middle" x="431.81" y="-183.5" font-family="Helvetica,sans-Serif" font-size="10.00">private_data.h</text>
</a>
</g>
</g>
<!-- Node1&#45;&gt;Node175 -->
<g id="edge32_Node000001_Node000175" class="edge">
<title>Node1&#45;&gt;Node175</title>
<g id="a_edge32_Node000001_Node000175"><a xlink:title=" ">
<path fill="none" stroke="#63b8ff" d="M339.25,-232.54C356.45,-224.06 380.84,-212.03 400.26,-202.44"/>
<polygon fill="#63b8ff" stroke="#63b8ff" points="401.69,-205.64 409.11,-198.08 398.59,-199.36 401.69,-205.64"/>
</a>
</g>
</g>
<!-- Node6&#45;&gt;Node2 -->
<g id="edge6_Node000006_Node000002" class="edge">
<title>Node6&#45;&gt;Node2</title>
<g id="a_edge6_Node000006_Node000002"><a xlink:title=" ">
<path fill="none" stroke="#63b8ff" d="M243.09,-59.21C276.55,-49.41 329.65,-33.85 365.58,-23.33"/>
<polygon fill="#63b8ff" stroke="#63b8ff" points="366.52,-26.7 375.14,-20.53 364.56,-19.98 366.52,-26.7"/>
</a>
</g>
</g>
<!-- Node6&#45;&gt;Node4 -->
<g id="edge7_Node000006_Node000004" class="edge">
<title>Node6&#45;&gt;Node4</title>
<g id="a_edge7_Node000006_Node000004"><a xlink:title=" ">
<path fill="none" stroke="#63b8ff" d="M180.46,-58.58C149.69,-48.96 102.72,-34.29 69.84,-24.01"/>
<polygon fill="#63b8ff" stroke="#63b8ff" points="71.3,-20.8 60.71,-21.16 69.22,-27.48 71.3,-20.8"/>
</a>
</g>
</g>
<!-- Node55&#45;&gt;Node3 -->
<g id="edge9_Node000055_Node000003" class="edge">
<title>Node55&#45;&gt;Node3</title>
<g id="a_edge9_Node000055_Node000003"><a xlink:title=" ">
<path fill="none" stroke="#63b8ff" d="M693.33,-174.27C686.34,-159.05 671.36,-131.23 649.81,-116.5 605.62,-86.29 543.64,-75.82 503.12,-72.22"/>
<polygon fill="#63b8ff" stroke="#63b8ff" points="503.53,-68.74 493.29,-71.45 502.99,-75.72 503.53,-68.74"/>
</a>
</g>
</g>
<!-- Node148&#45;&gt;Node2 -->
<g id="edge13_Node000148_Node000002" class="edge">
<title>Node148&#45;&gt;Node2</title>
<g id="a_edge13_Node000148_Node000002"><a xlink:title=" ">
<path fill="none" stroke="#63b8ff" d="M53.48,-116.05C57.96,-100.62 68.58,-72.22 88.81,-58.25 133.06,-27.69 292.04,-16.94 365.77,-13.54"/>
<polygon fill="#63b8ff" stroke="#63b8ff" points="365.49,-17.05 375.32,-13.12 365.18,-10.06 365.49,-17.05"/>
</a>
</g>
</g>
<!-- Node148&#45;&gt;Node3 -->
<g id="edge14_Node000148_Node000003" class="edge">
<title>Node148&#45;&gt;Node3</title>
<g id="a_edge14_Node000148_Node000003"><a xlink:title=" ">
<path fill="none" stroke="#63b8ff" d="M85.85,-121.83C161.43,-111.48 339.47,-87.12 420.44,-76.04"/>
<polygon fill="#63b8ff" stroke="#63b8ff" points="420.72,-79.53 430.15,-74.71 419.77,-72.6 420.72,-79.53"/>
</a>
</g>
</g>
<!-- Node148&#45;&gt;Node4 -->
<g id="edge15_Node000148_Node000004" class="edge">
<title>Node148&#45;&gt;Node4</title>
<g id="a_edge15_Node000148_Node000004"><a xlink:title=" ">
<path fill="none" stroke="#63b8ff" d="M49.06,-116.06C45.96,-97.4 39.47,-58.26 35.39,-33.7"/>
<polygon fill="#63b8ff" stroke="#63b8ff" points="38.9,-33.45 33.81,-24.16 31.99,-34.6 38.9,-33.45"/>
</a>
</g>
</g>
<!-- Node148&#45;&gt;Node6 -->
<g id="edge16_Node000148_Node000006" class="edge">
<title>Node148&#45;&gt;Node6</title>
<g id="a_edge16_Node000148_Node000006"><a xlink:title=" ">
<path fill="none" stroke="#63b8ff" d="M81.09,-116.04C106.5,-107.17 143.03,-94.41 171.02,-84.63"/>
<polygon fill="#63b8ff" stroke="#63b8ff" points="171.95,-88.01 180.23,-81.41 169.64,-81.4 171.95,-88.01"/>
</a>
</g>
</g>
<!-- Node148&#45;&gt;Node70 -->
<g id="edge17_Node000148_Node000070" class="edge">
<title>Node148&#45;&gt;Node70</title>
<g id="a_edge17_Node000148_Node000070"><a xlink:title=" ">
<path fill="none" stroke="#63b8ff" d="M65.29,-116.04C76.26,-108.03 91.56,-96.85 104.28,-87.56"/>
<polygon fill="#63b8ff" stroke="#63b8ff" points="106.16,-90.53 112.17,-81.8 102.03,-84.87 106.16,-90.53"/>
</a>
</g>
</g>
<!-- Node168&#45;&gt;Node3 -->
<g id="edge19_Node000168_Node000003" class="edge">
<title>Node168&#45;&gt;Node3</title>
<g id="a_edge19_Node000168_Node000003"><a xlink:title=" ">
<path fill="none" stroke="#63b8ff" d="M375.93,-116.83C391.49,-108.41 414.24,-96.11 432.41,-86.28"/>
<polygon fill="#63b8ff" stroke="#63b8ff" points="434.03,-89.38 441.16,-81.54 430.7,-83.22 434.03,-89.38"/>
</a>
</g>
</g>
<!-- Node168&#45;&gt;Node6 -->
<g id="edge20_Node000168_Node000006" class="edge">
<title>Node168&#45;&gt;Node6</title>
<g id="a_edge20_Node000168_Node000006"><a xlink:title=" ">
<path fill="none" stroke="#63b8ff" d="M339.61,-119.61C317.25,-111 278.7,-96.15 249.77,-85"/>
<polygon fill="#63b8ff" stroke="#63b8ff" points="251.22,-81.81 240.63,-81.48 248.7,-88.34 251.22,-81.81"/>
</a>
</g>
</g>
<!-- Node169&#45;&gt;Node3 -->
<g id="edge23_Node000169_Node000003" class="edge">
<title>Node169&#45;&gt;Node3</title>
<g id="a_edge23_Node000169_Node000003"><a xlink:title=" ">
<path fill="none" stroke="#63b8ff" d="M244.02,-118.59C246.99,-117.87 249.95,-117.17 252.81,-116.5 310.85,-102.93 378.22,-88.26 420.43,-79.19"/>
<polygon fill="#63b8ff" stroke="#63b8ff" points="421.12,-82.62 430.17,-77.1 419.65,-75.78 421.12,-82.62"/>
</a>
</g>
</g>
<!-- Node169&#45;&gt;Node6 -->
<g id="edge24_Node000169_Node000006" class="edge">
<title>Node169&#45;&gt;Node6</title>
<g id="a_edge24_Node000169_Node000006"><a xlink:title=" ">
<path fill="none" stroke="#63b8ff" d="M211.81,-116.04C211.81,-109.37 211.81,-100.49 211.81,-92.34"/>
<polygon fill="#63b8ff" stroke="#63b8ff" points="215.31,-92.42 211.81,-82.42 208.31,-92.42 215.31,-92.42"/>
</a>
</g>
</g>
<!-- Node169&#45;&gt;Node70 -->
<g id="edge25_Node000169_Node000070" class="edge">
<title>Node169&#45;&gt;Node70</title>
<g id="a_edge25_Node000169_Node000070"><a xlink:title=" ">
<path fill="none" stroke="#63b8ff" d="M196.01,-116.04C183.93,-107.95 167.02,-96.63 153.07,-87.29"/>
<polygon fill="#63b8ff" stroke="#63b8ff" points="155.05,-84.41 144.8,-81.75 151.16,-90.22 155.05,-84.41"/>
</a>
</g>
</g>
<!-- Node174&#45;&gt;Node2 -->
<g id="edge27_Node000174_Node000002" class="edge">
<title>Node174&#45;&gt;Node2</title>
<g id="a_edge27_Node000174_Node000002"><a xlink:title=" ">
<path fill="none" stroke="#63b8ff" d="M569.91,-174.49C583.01,-160.92 601.71,-136.53 590.81,-116.5 560.43,-60.65 487.19,-32.84 441.91,-20.53"/>
<polygon fill="#63b8ff" stroke="#63b8ff" points="443.07,-17.21 432.51,-18.11 441.32,-23.99 443.07,-17.21"/>
</a>
</g>
</g>
<!-- Node174&#45;&gt;Node3 -->
<g id="edge28_Node000174_Node000003" class="edge">
<title>Node174&#45;&gt;Node3</title>
<g id="a_edge28_Node000174_Node000003"><a xlink:title=" ">
<path fill="none" stroke="#63b8ff" d="M565.49,-174.71C573.89,-160.51 585.85,-134.47 573.81,-116.5 558.08,-93.01 527.99,-81.47 502.96,-75.81"/>
<polygon fill="#63b8ff" stroke="#63b8ff" points="503.86,-72.42 493.37,-73.9 502.49,-79.29 503.86,-72.42"/>
</a>
</g>
</g>
<!-- Node174&#45;&gt;Node6 -->
<g id="edge29_Node000174_Node000006" class="edge">
<title>Node174&#45;&gt;Node6</title>
<g id="a_edge29_Node000174_Node000006"><a xlink:title=" ">
<path fill="none" stroke="#63b8ff" d="M559.36,-174.25C559.52,-159.02 557.33,-131.17 540.81,-116.5 499.23,-79.56 333.59,-72.1 254.4,-70.67"/>
<polygon fill="#63b8ff" stroke="#63b8ff" points="254.48,-67.17 244.43,-70.51 254.38,-74.17 254.48,-67.17"/>
</a>
</g>
</g>
<!-- Node174&#45;&gt;Node168 -->
<g id="edge30_Node000174_Node000168" class="edge">
<title>Node174&#45;&gt;Node168</title>
<g id="a_edge30_Node000174_Node000168"><a xlink:title=" ">
<path fill="none" stroke="#63b8ff" d="M530.44,-176.94C492.39,-166.29 425.18,-147.48 386.81,-136.74"/>
<polygon fill="#63b8ff" stroke="#63b8ff" points="387.92,-133.42 377.35,-134.09 386.04,-140.16 387.92,-133.42"/>
</a>
</g>
</g>
<!-- Node174&#45;&gt;Node88 -->
<g id="edge31_Node000174_Node000088" class="edge">
<title>Node174&#45;&gt;Node88</title>
<g id="a_edge31_Node000174_Node000088"><a xlink:title=" ">
<path fill="none" stroke="#63b8ff" d="M547.9,-174.29C539.96,-166.6 529.01,-155.97 519.67,-146.91"/>
<polygon fill="#63b8ff" stroke="#63b8ff" points="522.37,-144.66 512.76,-140.21 517.5,-149.69 522.37,-144.66"/>
</a>
</g>
</g>
<!-- Node175&#45;&gt;Node2 -->
<g id="edge33_Node000175_Node000002" class="edge">
<title>Node175&#45;&gt;Node2</title>
<g id="a_edge33_Node000175_Node000002"><a xlink:title=" ">
<path fill="none" stroke="#63b8ff" d="M430.1,-174.33C425.6,-146.55 413.35,-70.97 407.29,-33.61"/>
<polygon fill="#63b8ff" stroke="#63b8ff" points="410.79,-33.34 405.74,-24.03 403.88,-34.46 410.79,-33.34"/>
</a>
</g>
</g>
<!-- Node175&#45;&gt;Node3 -->
<g id="edge34_Node000175_Node000003" class="edge">
<title>Node175&#45;&gt;Node3</title>
<g id="a_edge34_Node000175_Node000003"><a xlink:title=" ">
<path fill="none" stroke="#63b8ff" d="M434.58,-174.31C439.47,-155.65 449.72,-116.51 456.16,-91.95"/>
<polygon fill="#63b8ff" stroke="#63b8ff" points="459.52,-92.94 458.66,-82.38 452.74,-91.17 459.52,-92.94"/>
</a>
</g>
</g>
<!-- Node175&#45;&gt;Node5 -->
<g id="edge35_Node000175_Node000005" class="edge">
<title>Node175&#45;&gt;Node5</title>
<g id="a_edge35_Node000175_Node000005"><a xlink:title=" ">
<path fill="none" stroke="#63b8ff" d="M405.48,-174.29C383.77,-165.57 352.74,-153.11 328.58,-143.4"/>
<polygon fill="#63b8ff" stroke="#63b8ff" points="330.01,-140.2 319.43,-139.72 327.4,-146.7 330.01,-140.2"/>
</a>
</g>
</g>
<!-- Node175&#45;&gt;Node168 -->
<g id="edge36_Node000175_Node000168" class="edge">
<title>Node175&#45;&gt;Node168</title>
<g id="a_edge36_Node000175_Node000168"><a xlink:title=" ">
<path fill="none" stroke="#63b8ff" d="M417.89,-174.29C407.45,-166.36 392.93,-155.32 380.78,-146.09"/>
<polygon fill="#63b8ff" stroke="#63b8ff" points="382.95,-143.34 372.87,-140.07 378.71,-148.91 382.95,-143.34"/>
</a>
</g>
</g>
<!-- Node175&#45;&gt;Node88 -->
<g id="edge37_Node000175_Node000088" class="edge">
<title>Node175&#45;&gt;Node88</title>
<g id="a_edge37_Node000175_Node000088"><a xlink:title=" ">
<path fill="none" stroke="#63b8ff" d="M444.79,-174.29C454.43,-166.44 467.79,-155.54 479.05,-146.36"/>
<polygon fill="#63b8ff" stroke="#63b8ff" points="481.18,-149.15 486.72,-140.11 476.75,-143.72 481.18,-149.15"/>
</a>
</g>
</g>
</g>
</svg>
