<?xml version="1.0" encoding="UTF-8" standalone="no"?>
<!DOCTYPE svg PUBLIC "-//W3C//DTD SVG 1.1//EN"
 "http://www.w3.org/Graphics/SVG/1.1/DTD/svg11.dtd">
<!-- Generated by graphviz version 7.1.0 (0)
 -->
<!-- Title: pager/functions.c Pages: 1 -->
<svg width="1815pt" height="247pt"
 viewBox="0.00 0.00 1814.69 247.00" xmlns="http://www.w3.org/2000/svg" xmlns:xlink="http://www.w3.org/1999/xlink">
<g id="graph0" class="graph" transform="scale(1 1) rotate(0) translate(4 243)">
<title>pager/functions.c</title>
<!-- Node1 -->
<g id="node1" class="node">
<title>Node1</title>
<g id="a_node1"><a xlink:title="Pager functions.">
<polygon fill="#999999" stroke="#666666" points="889.05,-239 791.05,-239 791.05,-220 889.05,-220 889.05,-239"/>
<text text-anchor="middle" x="840.05" y="-227" font-family="Helvetica,sans-Serif" font-size="10.00">pager/functions.c</text>
</a>
</g>
</g>
<!-- Node2 -->
<g id="node2" class="node">
<title>Node2</title>
<g id="a_node2"><a xlink:title=" ">
<polygon fill="#e0e0e0" stroke="#999999" points="561.05,-19 507.05,-19 507.05,0 561.05,0 561.05,-19"/>
<text text-anchor="middle" x="534.05" y="-7" font-family="Helvetica,sans-Serif" font-size="10.00">config.h</text>
</a>
</g>
</g>
<!-- Node1&#45;&gt;Node2 -->
<g id="edge1" class="edge">
<title>Node1&#45;&gt;Node2</title>
<path fill="none" stroke="#63b8ff" d="M889.48,-229.01C1049.19,-230.2 1549.98,-230.05 1704.05,-184 1755,-168.77 1831.43,-151.38 1798.05,-110 1719.21,-12.25 776.51,-9.71 572.73,-10.31"/>
<polygon fill="#63b8ff" stroke="#63b8ff" points="572.95,-6.81 562.96,-10.34 572.97,-13.81 572.95,-6.81"/>
</g>
<!-- Node3 -->
<g id="node3" class="node">
<title>Node3</title>
<g id="a_node3"><a xlink:title=" ">
<polygon fill="#e0e0e0" stroke="#999999" points="114.55,-184 51.55,-184 51.55,-165 114.55,-165 114.55,-184"/>
<text text-anchor="middle" x="83.05" y="-172" font-family="Helvetica,sans-Serif" font-size="10.00">inttypes.h</text>
</a>
</g>
</g>
<!-- Node1&#45;&gt;Node3 -->
<g id="edge2" class="edge">
<title>Node1&#45;&gt;Node3</title>
<path fill="none" stroke="#63b8ff" d="M790.69,-227.94C675.74,-226.09 381.16,-218.27 126.2,-184.24"/>
<polygon fill="#63b8ff" stroke="#63b8ff" points="126.73,-180.78 116.35,-182.9 125.79,-187.71 126.73,-180.78"/>
</g>
<!-- Node4 -->
<g id="node4" class="node">
<title>Node4</title>
<g id="a_node4"><a xlink:title=" ">
<polygon fill="#e0e0e0" stroke="#999999" points="881.05,-74 821.05,-74 821.05,-55 881.05,-55 881.05,-74"/>
<text text-anchor="middle" x="851.05" y="-62" font-family="Helvetica,sans-Serif" font-size="10.00">stdbool.h</text>
</a>
</g>
</g>
<!-- Node1&#45;&gt;Node4 -->
<g id="edge3" class="edge">
<title>Node1&#45;&gt;Node4</title>
<path fill="none" stroke="#63b8ff" d="M852.96,-219.61C863.29,-211.65 877.01,-198.94 883.05,-184 896.9,-149.73 877.3,-107.51 863.21,-83.83"/>
<polygon fill="#63b8ff" stroke="#63b8ff" points="866.35,-82.25 858.07,-75.64 860.42,-85.97 866.35,-82.25"/>
</g>
<!-- Node5 -->
<g id="node5" class="node">
<title>Node5</title>
<g id="a_node5"><a xlink:title=" ">
<polygon fill="#e0e0e0" stroke="#999999" points="322.55,-129 267.55,-129 267.55,-110 322.55,-110 322.55,-129"/>
<text text-anchor="middle" x="295.05" y="-117" font-family="Helvetica,sans-Serif" font-size="10.00">stddef.h</text>
</a>
</g>
</g>
<!-- Node1&#45;&gt;Node5 -->
<g id="edge4" class="edge">
<title>Node1&#45;&gt;Node5</title>
<path fill="none" stroke="#63b8ff" d="M790.82,-227.12C687.84,-223.7 453.12,-212.88 379.05,-184 352.57,-173.67 327.27,-152.47 311.48,-137.41"/>
<polygon fill="#63b8ff" stroke="#63b8ff" points="314.01,-134.98 304.43,-130.44 309.09,-139.96 314.01,-134.98"/>
</g>
<!-- Node6 -->
<g id="node6" class="node">
<title>Node6</title>
<g id="a_node6"><a xlink:title=" ">
<polygon fill="#e0e0e0" stroke="#999999" points="1438.05,-74 1390.05,-74 1390.05,-55 1438.05,-55 1438.05,-74"/>
<text text-anchor="middle" x="1414.05" y="-62" font-family="Helvetica,sans-Serif" font-size="10.00">stdio.h</text>
</a>
</g>
</g>
<!-- Node1&#45;&gt;Node6 -->
<g id="edge5" class="edge">
<title>Node1&#45;&gt;Node6</title>
<path fill="none" stroke="#63b8ff" d="M889.32,-228.77C999.36,-228.63 1261.56,-223.98 1339.05,-184 1378.07,-163.87 1399.33,-113.31 1408.49,-85.17"/>
<polygon fill="#63b8ff" stroke="#63b8ff" points="1411.79,-86.36 1411.34,-75.77 1405.09,-84.32 1411.79,-86.36"/>
</g>
<!-- Node7 -->
<g id="node7" class="node">
<title>Node7</title>
<g id="a_node7"><a xlink:title=" ">
<polygon fill="#e0e0e0" stroke="#999999" points="1788.55,-129 1727.55,-129 1727.55,-110 1788.55,-110 1788.55,-129"/>
<text text-anchor="middle" x="1758.05" y="-117" font-family="Helvetica,sans-Serif" font-size="10.00">sys/stat.h</text>
</a>
</g>
</g>
<!-- Node1&#45;&gt;Node7 -->
<g id="edge6" class="edge">
<title>Node1&#45;&gt;Node7</title>
<path fill="none" stroke="#63b8ff" d="M889.39,-227.55C1057.33,-224.08 1600.51,-210.87 1674.05,-184 1701.04,-174.14 1726.55,-152.46 1742.22,-137.18"/>
<polygon fill="#63b8ff" stroke="#63b8ff" points="1744.64,-139.71 1749.19,-130.14 1739.67,-134.79 1744.64,-139.71"/>
</g>
<!-- Node8 -->
<g id="node8" class="node">
<title>Node8</title>
<g id="a_node8"><a xlink:href="mutt_2lib_8h.html" target="_top" xlink:title="Convenience wrapper for the library headers.">
<polygon fill="#fff0f0" stroke="red" points="565.05,-74 503.05,-74 503.05,-55 565.05,-55 565.05,-74"/>
<text text-anchor="middle" x="534.05" y="-62" font-family="Helvetica,sans-Serif" font-size="10.00">mutt/lib.h</text>
</a>
</g>
</g>
<!-- Node1&#45;&gt;Node8 -->
<g id="edge7" class="edge">
<title>Node1&#45;&gt;Node8</title>
<path fill="none" stroke="#63b8ff" d="M790.76,-227.6C620.76,-224.25 67.86,-211.28 42.05,-184 -12.18,-126.66 -44.18,-168.7 149.05,-110 269.35,-73.46 419.14,-66.55 491.28,-65.49"/>
<polygon fill="#63b8ff" stroke="#63b8ff" points="491.12,-68.99 501.08,-65.38 491.04,-61.99 491.12,-68.99"/>
</g>
<!-- Node56 -->
<g id="node9" class="node">
<title>Node56</title>
<g id="a_node9"><a xlink:href="config_2lib_8h.html" target="_top" xlink:title="Convenience wrapper for the config headers.">
<polygon fill="#fff0f0" stroke="red" points="1023.05,-129 955.05,-129 955.05,-110 1023.05,-110 1023.05,-129"/>
<text text-anchor="middle" x="989.05" y="-117" font-family="Helvetica,sans-Serif" font-size="10.00">config/lib.h</text>
</a>
</g>
</g>
<!-- Node1&#45;&gt;Node56 -->
<g id="edge9" class="edge">
<title>Node1&#45;&gt;Node56</title>
<path fill="none" stroke="#63b8ff" d="M857.22,-219.64C873,-211.22 896.8,-197.82 916.05,-184 936.2,-169.53 957.39,-150.63 971.72,-137.22"/>
<polygon fill="#63b8ff" stroke="#63b8ff" points="974.12,-139.77 978.97,-130.35 969.3,-134.69 974.12,-139.77"/>
</g>
<!-- Node71 -->
<g id="node10" class="node">
<title>Node71</title>
<g id="a_node10"><a xlink:href="email_2lib_8h.html" target="_top" xlink:title="Structs that make up an email.">
<polygon fill="#fff0f0" stroke="red" points="565.55,-184 500.55,-184 500.55,-165 565.55,-165 565.55,-184"/>
<text text-anchor="middle" x="533.05" y="-172" font-family="Helvetica,sans-Serif" font-size="10.00">email/lib.h</text>
</a>
</g>
</g>
<!-- Node1&#45;&gt;Node71 -->
<g id="edge11" class="edge">
<title>Node1&#45;&gt;Node71</title>
<path fill="none" stroke="#63b8ff" d="M790.64,-220.71C739.64,-212.55 657.49,-199.1 576.89,-184.29"/>
<polygon fill="#63b8ff" stroke="#63b8ff" points="578.01,-180.94 567.54,-182.56 576.73,-187.82 578.01,-180.94"/>
</g>
<!-- Node91 -->
<g id="node11" class="node">
<title>Node91</title>
<g id="a_node11"><a xlink:href="core_2lib_8h.html" target="_top" xlink:title="Convenience wrapper for the core headers.">
<polygon fill="#fff0f0" stroke="red" points="1316.05,-74 1256.05,-74 1256.05,-55 1316.05,-55 1316.05,-74"/>
<text text-anchor="middle" x="1286.05" y="-62" font-family="Helvetica,sans-Serif" font-size="10.00">core/lib.h</text>
</a>
</g>
</g>
<!-- Node1&#45;&gt;Node91 -->
<g id="edge12" class="edge">
<title>Node1&#45;&gt;Node91</title>
<path fill="none" stroke="#63b8ff" d="M889.18,-227.55C993.14,-224.93 1231.93,-215.56 1306.05,-184 1346.06,-166.96 1392.48,-147.26 1370.05,-110 1360.56,-94.23 1343.39,-83.75 1327.03,-76.95"/>
<polygon fill="#63b8ff" stroke="#63b8ff" points="1328.5,-73.76 1317.91,-73.52 1326.04,-80.31 1328.5,-73.76"/>
</g>
<!-- Node103 -->
<g id="node12" class="node">
<title>Node103</title>
<g id="a_node12"><a xlink:href="gui_2lib_8h.html" target="_top" xlink:title="Convenience wrapper for the gui headers.">
<polygon fill="#fff0f0" stroke="red" points="712.05,-184 658.05,-184 658.05,-165 712.05,-165 712.05,-184"/>
<text text-anchor="middle" x="685.05" y="-172" font-family="Helvetica,sans-Serif" font-size="10.00">gui/lib.h</text>
</a>
</g>
</g>
<!-- Node1&#45;&gt;Node103 -->
<g id="edge13" class="edge">
<title>Node1&#45;&gt;Node103</title>
<path fill="none" stroke="#63b8ff" d="M813.76,-219.51C788.52,-210.88 750.17,-197.76 721.89,-188.1"/>
<polygon fill="#63b8ff" stroke="#63b8ff" points="723.24,-184.86 712.65,-184.94 720.98,-191.48 723.24,-184.86"/>
</g>
<!-- Node139 -->
<g id="node13" class="node">
<title>Node139</title>
<g id="a_node13"><a xlink:href="mutt_8h.html" target="_top" xlink:title="Many unsorted constants and some structs.">
<polygon fill="#fff0f0" stroke="red" points="249.05,-129 201.05,-129 201.05,-110 249.05,-110 249.05,-129"/>
<text text-anchor="middle" x="225.05" y="-117" font-family="Helvetica,sans-Serif" font-size="10.00">mutt.h</text>
</a>
</g>
</g>
<!-- Node1&#45;&gt;Node139 -->
<g id="edge14" class="edge">
<title>Node1&#45;&gt;Node139</title>
<path fill="none" stroke="#63b8ff" d="M790.67,-227.56C657.61,-224.64 298.69,-214.02 255.05,-184 240.46,-173.96 232.76,-154.86 228.84,-140.22"/>
<polygon fill="#63b8ff" stroke="#63b8ff" points="232.32,-139.72 226.7,-130.74 225.49,-141.27 232.32,-139.72"/>
</g>
<!-- Node141 -->
<g id="node14" class="node">
<title>Node141</title>
<g id="a_node14"><a xlink:href="pager_2lib_8h.html" target="_top" xlink:title="GUI display a file/email/help in a viewport with paging.">
<polygon fill="#fff0f0" stroke="red" points="1191.05,-129 1155.05,-129 1155.05,-110 1191.05,-110 1191.05,-129"/>
<text text-anchor="middle" x="1173.05" y="-117" font-family="Helvetica,sans-Serif" font-size="10.00">lib.h</text>
</a>
</g>
</g>
<!-- Node1&#45;&gt;Node141 -->
<g id="edge17" class="edge">
<title>Node1&#45;&gt;Node141</title>
<path fill="none" stroke="#63b8ff" d="M889.4,-225.5C960.91,-220.39 1089.06,-208.11 1128.05,-184 1145.09,-173.47 1157.48,-153.84 1164.9,-139.19"/>
<polygon fill="#63b8ff" stroke="#63b8ff" points="1167.87,-141.09 1168.95,-130.55 1161.53,-138.12 1167.87,-141.09"/>
</g>
<!-- Node142 -->
<g id="node15" class="node">
<title>Node142</title>
<g id="a_node15"><a xlink:href="attach_2lib_8h.html" target="_top" xlink:title="GUI display the mailboxes in a side panel.">
<polygon fill="#fff0f0" stroke="red" points="1277.05,-129 1209.05,-129 1209.05,-110 1277.05,-110 1277.05,-129"/>
<text text-anchor="middle" x="1243.05" y="-117" font-family="Helvetica,sans-Serif" font-size="10.00">attach/lib.h</text>
</a>
</g>
</g>
<!-- Node1&#45;&gt;Node142 -->
<g id="edge22" class="edge">
<title>Node1&#45;&gt;Node142</title>
<path fill="none" stroke="#63b8ff" d="M889.41,-228.45C952.46,-226.83 1063.99,-218.71 1152.05,-184 1180.18,-172.91 1208.02,-151.56 1225.35,-136.69"/>
<polygon fill="#63b8ff" stroke="#63b8ff" points="1227.52,-139.44 1232.7,-130.2 1222.89,-134.19 1227.52,-139.44"/>
</g>
<!-- Node105 -->
<g id="node16" class="node">
<title>Node105</title>
<g id="a_node16"><a xlink:href="browser_2lib_8h.html" target="_top" xlink:title="Select a Mailbox from a list.">
<polygon fill="#fff0f0" stroke="red" points="619.05,-129 541.05,-129 541.05,-110 619.05,-110 619.05,-129"/>
<text text-anchor="middle" x="580.05" y="-117" font-family="Helvetica,sans-Serif" font-size="10.00">browser/lib.h</text>
</a>
</g>
</g>
<!-- Node1&#45;&gt;Node105 -->
<g id="edge25" class="edge">
<title>Node1&#45;&gt;Node105</title>
<path fill="none" stroke="#63b8ff" d="M825.46,-219.57C803.43,-206.37 760.13,-181.43 721.05,-165 689.96,-151.93 653.64,-140.55 625.65,-132.57"/>
<polygon fill="#63b8ff" stroke="#63b8ff" points="626.62,-129.21 616.05,-129.88 624.73,-135.95 626.62,-129.21"/>
</g>
<!-- Node114 -->
<g id="node17" class="node">
<title>Node114</title>
<g id="a_node17"><a xlink:href="color_2lib_8h.html" target="_top" xlink:title="Color and attribute parsing.">
<polygon fill="#fff0f0" stroke="red" points="1594.55,-129 1531.55,-129 1531.55,-110 1594.55,-110 1594.55,-129"/>
<text text-anchor="middle" x="1563.05" y="-117" font-family="Helvetica,sans-Serif" font-size="10.00">color/lib.h</text>
</a>
</g>
</g>
<!-- Node1&#45;&gt;Node114 -->
<g id="edge29" class="edge">
<title>Node1&#45;&gt;Node114</title>
<path fill="none" stroke="#63b8ff" d="M889.37,-227.66C1036.01,-224.84 1462.54,-214.12 1517.05,-184 1534.71,-174.24 1547.34,-154.5 1554.85,-139.6"/>
<polygon fill="#63b8ff" stroke="#63b8ff" points="1557.91,-141.32 1558.95,-130.77 1551.56,-138.37 1557.91,-141.32"/>
</g>
<!-- Node165 -->
<g id="node18" class="node">
<title>Node165</title>
<g id="a_node18"><a xlink:href="editor_2lib_8h.html" target="_top" xlink:title="Edit a string.">
<polygon fill="#fff0f0" stroke="red" points="332.05,-184 264.05,-184 264.05,-165 332.05,-165 332.05,-184"/>
<text text-anchor="middle" x="298.05" y="-172" font-family="Helvetica,sans-Serif" font-size="10.00">editor/lib.h</text>
</a>
</g>
</g>
<!-- Node1&#45;&gt;Node165 -->
<g id="edge30" class="edge">
<title>Node1&#45;&gt;Node165</title>
<path fill="none" stroke="#63b8ff" d="M790.82,-225.46C701.79,-219.66 508.23,-205.62 346.05,-184 345.22,-183.89 344.38,-183.77 343.53,-183.65"/>
<polygon fill="#63b8ff" stroke="#63b8ff" points="344.26,-180.22 333.84,-182.17 343.2,-187.14 344.26,-180.22"/>
</g>
<!-- Node170 -->
<g id="node19" class="node">
<title>Node170</title>
<g id="a_node19"><a xlink:href="history_2lib_8h.html" target="_top" xlink:title="Read/write command history from/to a file.">
<polygon fill="#fff0f0" stroke="red" points="785.05,-129 713.05,-129 713.05,-110 785.05,-110 785.05,-129"/>
<text text-anchor="middle" x="749.05" y="-117" font-family="Helvetica,sans-Serif" font-size="10.00">history/lib.h</text>
</a>
</g>
</g>
<!-- Node1&#45;&gt;Node170 -->
<g id="edge35" class="edge">
<title>Node1&#45;&gt;Node170</title>
<path fill="none" stroke="#63b8ff" d="M830.82,-219.6C821.88,-210.83 808.09,-196.9 797.05,-184 784.43,-169.25 771.21,-151.57 761.85,-138.62"/>
<polygon fill="#63b8ff" stroke="#63b8ff" points="764.79,-136.72 756.13,-130.62 759.1,-140.79 764.79,-136.72"/>
</g>
<!-- Node172 -->
<g id="node20" class="node">
<title>Node172</title>
<g id="a_node20"><a xlink:href="index_2lib_8h.html" target="_top" xlink:title="GUI manage the main index (list of emails)">
<polygon fill="#fff0f0" stroke="red" points="1360.55,-129 1295.55,-129 1295.55,-110 1360.55,-110 1360.55,-129"/>
<text text-anchor="middle" x="1328.05" y="-117" font-family="Helvetica,sans-Serif" font-size="10.00">index/lib.h</text>
</a>
</g>
</g>
<!-- Node1&#45;&gt;Node172 -->
<g id="edge36" class="edge">
<title>Node1&#45;&gt;Node172</title>
<path fill="none" stroke="#63b8ff" d="M889.17,-228.54C989.96,-227.81 1216.21,-221.89 1282.05,-184 1299.54,-173.94 1312.2,-154.24 1319.76,-139.44"/>
<polygon fill="#63b8ff" stroke="#63b8ff" points="1322.79,-141.22 1323.89,-130.68 1316.46,-138.23 1322.79,-141.22"/>
</g>
<!-- Node106 -->
<g id="node21" class="node">
<title>Node106</title>
<g id="a_node21"><a xlink:href="key_2lib_8h.html" target="_top" xlink:title="Manage keymappings.">
<polygon fill="#fff0f0" stroke="red" points="640.05,-184 584.05,-184 584.05,-165 640.05,-165 640.05,-184"/>
<text text-anchor="middle" x="612.05" y="-172" font-family="Helvetica,sans-Serif" font-size="10.00">key/lib.h</text>
</a>
</g>
</g>
<!-- Node1&#45;&gt;Node106 -->
<g id="edge41" class="edge">
<title>Node1&#45;&gt;Node106</title>
<path fill="none" stroke="#63b8ff" d="M801.38,-219.51C759.68,-209.82 693.67,-194.47 651.63,-184.7"/>
<polygon fill="#63b8ff" stroke="#63b8ff" points="652.46,-181.3 641.92,-182.44 650.87,-188.12 652.46,-181.3"/>
</g>
<!-- Node107 -->
<g id="node22" class="node">
<title>Node107</title>
<g id="a_node22"><a xlink:href="menu_2lib_8h.html" target="_top" xlink:title="GUI present the user with a selectable list.">
<polygon fill="#fff0f0" stroke="red" points="446.55,-129 379.55,-129 379.55,-110 446.55,-110 446.55,-129"/>
<text text-anchor="middle" x="413.05" y="-117" font-family="Helvetica,sans-Serif" font-size="10.00">menu/lib.h</text>
</a>
</g>
</g>
<!-- Node1&#45;&gt;Node107 -->
<g id="edge51" class="edge">
<title>Node1&#45;&gt;Node107</title>
<path fill="none" stroke="#63b8ff" d="M790.76,-225.56C707.74,-220.05 543.89,-206.66 491.05,-184 466.33,-173.4 443.12,-152.57 428.55,-137.65"/>
<polygon fill="#63b8ff" stroke="#63b8ff" points="431.11,-135.26 421.7,-130.38 426.01,-140.06 431.11,-135.26"/>
</g>
<!-- Node177 -->
<g id="node23" class="node">
<title>Node177</title>
<g id="a_node23"><a xlink:href="pattern_2lib_8h.html" target="_top" xlink:title="Match patterns to emails.">
<polygon fill="#fff0f0" stroke="red" points="207.55,-184 132.55,-184 132.55,-165 207.55,-165 207.55,-184"/>
<text text-anchor="middle" x="170.05" y="-172" font-family="Helvetica,sans-Serif" font-size="10.00">pattern/lib.h</text>
</a>
</g>
</g>
<!-- Node1&#45;&gt;Node177 -->
<g id="edge52" class="edge">
<title>Node1&#45;&gt;Node177</title>
<path fill="none" stroke="#63b8ff" d="M790.64,-226.46C685.67,-221.78 432.78,-208.76 222.05,-184 221.06,-183.88 220.06,-183.76 219.04,-183.63"/>
<polygon fill="#63b8ff" stroke="#63b8ff" points="219.94,-180.22 209.55,-182.32 218.98,-187.16 219.94,-180.22"/>
</g>
<!-- Node179 -->
<g id="node24" class="node">
<title>Node179</title>
<g id="a_node24"><a xlink:href="display_8h.html" target="_top" xlink:title="Pager Display.">
<polygon fill="white" stroke="#666666" points="1119.05,-184 1063.05,-184 1063.05,-165 1119.05,-165 1119.05,-184"/>
<text text-anchor="middle" x="1091.05" y="-172" font-family="Helvetica,sans-Serif" font-size="10.00">display.h</text>
</a>
</g>
</g>
<!-- Node1&#45;&gt;Node179 -->
<g id="edge57" class="edge">
<title>Node1&#45;&gt;Node179</title>
<path fill="none" stroke="#63b8ff" d="M882.63,-219.51C929.95,-209.52 1005.74,-193.51 1051.71,-183.81"/>
<polygon fill="#63b8ff" stroke="#63b8ff" points="1052.18,-187.29 1061.24,-181.79 1050.73,-180.44 1052.18,-187.29"/>
</g>
<!-- Node180 -->
<g id="node25" class="node">
<title>Node180</title>
<g id="a_node25"><a xlink:href="pager_2functions_8h.html" target="_top" xlink:title="Pager functions.">
<polygon fill="white" stroke="#666666" points="874.05,-184 806.05,-184 806.05,-165 874.05,-165 874.05,-184"/>
<text text-anchor="middle" x="840.05" y="-172" font-family="Helvetica,sans-Serif" font-size="10.00">functions.h</text>
</a>
</g>
</g>
<!-- Node1&#45;&gt;Node180 -->
<g id="edge64" class="edge">
<title>Node1&#45;&gt;Node180</title>
<path fill="none" stroke="#63b8ff" d="M840.05,-219.75C840.05,-213.27 840.05,-204.16 840.05,-195.9"/>
<polygon fill="#63b8ff" stroke="#63b8ff" points="843.55,-195.96 840.05,-185.96 836.55,-195.96 843.55,-195.96"/>
</g>
<!-- Node181 -->
<g id="node26" class="node">
<title>Node181</title>
<g id="a_node26"><a xlink:href="muttlib_8h.html" target="_top" xlink:title="Some miscellaneous functions.">
<polygon fill="#fff0f0" stroke="red" points="1272.55,-184 1213.55,-184 1213.55,-165 1272.55,-165 1272.55,-184"/>
<text text-anchor="middle" x="1243.05" y="-172" font-family="Helvetica,sans-Serif" font-size="10.00">muttlib.h</text>
</a>
</g>
</g>
<!-- Node1&#45;&gt;Node181 -->
<g id="edge66" class="edge">
<title>Node1&#45;&gt;Node181</title>
<path fill="none" stroke="#63b8ff" d="M889.27,-223.46C958.57,-216.13 1088.79,-201.46 1199.05,-184 1200.06,-183.84 1201.08,-183.67 1202.11,-183.5"/>
<polygon fill="#63b8ff" stroke="#63b8ff" points="1202.55,-186.98 1211.79,-181.8 1201.33,-180.09 1202.55,-186.98"/>
</g>
<!-- Node182 -->
<g id="node27" class="node">
<title>Node182</title>
<g id="a_node27"><a xlink:href="pager_2private__data_8h.html" target="_top" xlink:title="Private state data for the Pager.">
<polygon fill="#fff0f0" stroke="red" points="1664.55,-184 1581.55,-184 1581.55,-165 1664.55,-165 1664.55,-184"/>
<text text-anchor="middle" x="1623.05" y="-172" font-family="Helvetica,sans-Serif" font-size="10.00">private_data.h</text>
</a>
</g>
</g>
<!-- Node1&#45;&gt;Node182 -->
<g id="edge70" class="edge">
<title>Node1&#45;&gt;Node182</title>
<path fill="none" stroke="#63b8ff" d="M889.54,-226.72C1006.54,-222.23 1309.27,-208.99 1561.05,-184 1563.89,-183.72 1566.8,-183.4 1569.73,-183.07"/>
<polygon fill="#63b8ff" stroke="#63b8ff" points="1570.08,-186.55 1579.58,-181.87 1569.23,-179.61 1570.08,-186.55"/>
</g>
<!-- Node183 -->
<g id="node28" class="node">
<title>Node183</title>
<g id="a_node28"><a xlink:href="protos_8h.html" target="_top" xlink:title="Prototypes for many functions.">
<polygon fill="white" stroke="#666666" points="444.05,-184 388.05,-184 388.05,-165 444.05,-165 444.05,-184"/>
<text text-anchor="middle" x="416.05" y="-172" font-family="Helvetica,sans-Serif" font-size="10.00">protos.h</text>
</a>
</g>
</g>
<!-- Node1&#45;&gt;Node183 -->
<g id="edge77" class="edge">
<title>Node1&#45;&gt;Node183</title>
<path fill="none" stroke="#63b8ff" d="M790.73,-224.09C717.77,-217.26 576.91,-202.92 458.05,-184 457.23,-183.87 456.39,-183.73 455.55,-183.59"/>
<polygon fill="#63b8ff" stroke="#63b8ff" points="456.41,-180.19 445.95,-181.85 455.17,-187.08 456.41,-180.19"/>
</g>
<!-- Node8&#45;&gt;Node2 -->
<g id="edge8" class="edge">
<title>Node8&#45;&gt;Node2</title>
<path fill="none" stroke="#63b8ff" d="M534.05,-54.75C534.05,-48.27 534.05,-39.16 534.05,-30.9"/>
<polygon fill="#63b8ff" stroke="#63b8ff" points="537.55,-30.96 534.05,-20.96 530.55,-30.96 537.55,-30.96"/>
</g>
<!-- Node56&#45;&gt;Node4 -->
<g id="edge10" class="edge">
<title>Node56&#45;&gt;Node4</title>
<path fill="none" stroke="#63b8ff" d="M965.64,-109.51C943.4,-100.97 909.73,-88.03 884.63,-78.4"/>
<polygon fill="#63b8ff" stroke="#63b8ff" points="886.12,-75.22 875.53,-74.9 883.61,-81.75 886.12,-75.22"/>
</g>
<!-- Node139&#45;&gt;Node2 -->
<g id="edge15" class="edge">
<title>Node139&#45;&gt;Node2</title>
<path fill="none" stroke="#63b8ff" d="M237.87,-109.55C258.06,-95.86 298.9,-69.75 337.05,-55 390.18,-34.46 455.22,-22.06 495.65,-15.75"/>
<polygon fill="#63b8ff" stroke="#63b8ff" points="496.01,-19.24 505.37,-14.29 494.96,-12.32 496.01,-19.24"/>
</g>
<!-- Node139&#45;&gt;Node4 -->
<g id="edge16" class="edge">
<title>Node139&#45;&gt;Node4</title>
<path fill="none" stroke="#63b8ff" d="M249.46,-111.7C252.34,-111.05 255.25,-110.46 258.05,-110 462.91,-76.2 711.87,-68.04 809.21,-66.1"/>
<polygon fill="#63b8ff" stroke="#63b8ff" points="809.14,-69.6 819.07,-65.91 809.01,-62.6 809.14,-69.6"/>
</g>
<!-- Node141&#45;&gt;Node2 -->
<g id="edge18" class="edge">
<title>Node141&#45;&gt;Node2</title>
<path fill="none" stroke="#63b8ff" d="M1171.47,-109.71C1168.39,-95.49 1160.15,-67.75 1141.05,-55 1093.91,-23.53 699.33,-13.55 572.88,-11.15"/>
<polygon fill="#63b8ff" stroke="#63b8ff" points="573.08,-7.65 563.02,-10.96 572.95,-14.65 573.08,-7.65"/>
</g>
<!-- Node141&#45;&gt;Node4 -->
<g id="edge19" class="edge">
<title>Node141&#45;&gt;Node4</title>
<path fill="none" stroke="#63b8ff" d="M1154.82,-115.5C1104.53,-107.22 962.95,-83.92 892.27,-72.28"/>
<polygon fill="#63b8ff" stroke="#63b8ff" points="893.08,-68.87 882.65,-70.7 891.95,-75.78 893.08,-68.87"/>
</g>
<!-- Node141&#45;&gt;Node6 -->
<g id="edge20" class="edge">
<title>Node141&#45;&gt;Node6</title>
<path fill="none" stroke="#63b8ff" d="M1191.28,-112.49C1194.2,-111.61 1197.2,-110.74 1200.05,-110 1262.31,-93.77 1335.98,-79.52 1378.63,-71.74"/>
<polygon fill="#63b8ff" stroke="#63b8ff" points="1379.09,-75.22 1388.31,-69.99 1377.85,-68.33 1379.09,-75.22"/>
</g>
<!-- Node141&#45;&gt;Node8 -->
<g id="edge21" class="edge">
<title>Node141&#45;&gt;Node8</title>
<path fill="none" stroke="#63b8ff" d="M1154.62,-116.97C1068.29,-109.81 702.88,-79.5 576.93,-69.06"/>
<polygon fill="#63b8ff" stroke="#63b8ff" points="577.27,-65.57 567.01,-68.23 576.69,-72.55 577.27,-65.57"/>
</g>
<!-- Node142&#45;&gt;Node4 -->
<g id="edge23" class="edge">
<title>Node142&#45;&gt;Node4</title>
<path fill="none" stroke="#63b8ff" d="M1208.82,-111.51C1205.86,-110.98 1202.91,-110.46 1200.05,-110 1089.43,-92.04 958.1,-76.96 892.57,-69.86"/>
<polygon fill="#63b8ff" stroke="#63b8ff" points="893.32,-66.43 883,-68.84 892.57,-73.38 893.32,-66.43"/>
</g>
<!-- Node142&#45;&gt;Node91 -->
<g id="edge24" class="edge">
<title>Node142&#45;&gt;Node91</title>
<path fill="none" stroke="#63b8ff" d="M1250.15,-109.75C1255.97,-102.58 1264.39,-92.2 1271.61,-83.3"/>
<polygon fill="#63b8ff" stroke="#63b8ff" points="1274.26,-85.59 1277.84,-75.62 1268.83,-81.18 1274.26,-85.59"/>
</g>
<!-- Node105&#45;&gt;Node2 -->
<g id="edge26" class="edge">
<title>Node105&#45;&gt;Node2</title>
<path fill="none" stroke="#63b8ff" d="M580.9,-109.86C581.77,-97.23 582.06,-73.25 574.05,-55 569.4,-44.38 561.2,-34.56 553.43,-26.86"/>
<polygon fill="#63b8ff" stroke="#63b8ff" points="556.19,-24.65 546.47,-20.43 551.44,-29.79 556.19,-24.65"/>
</g>
<!-- Node105&#45;&gt;Node4 -->
<g id="edge27" class="edge">
<title>Node105&#45;&gt;Node4</title>
<path fill="none" stroke="#63b8ff" d="M619.46,-110.79C670.23,-100.86 758.08,-83.68 809.75,-73.58"/>
<polygon fill="#63b8ff" stroke="#63b8ff" points="810.2,-77.06 819.34,-71.7 808.85,-70.19 810.2,-77.06"/>
</g>
<!-- Node105&#45;&gt;Node8 -->
<g id="edge28" class="edge">
<title>Node105&#45;&gt;Node8</title>
<path fill="none" stroke="#63b8ff" d="M572.46,-109.75C566.17,-102.5 557.04,-91.98 549.26,-83.02"/>
<polygon fill="#63b8ff" stroke="#63b8ff" points="552,-80.84 542.81,-75.59 546.72,-85.43 552,-80.84"/>
</g>
<!-- Node165&#45;&gt;Node5 -->
<g id="edge31" class="edge">
<title>Node165&#45;&gt;Node5</title>
<path fill="none" stroke="#63b8ff" d="M297.56,-164.75C297.19,-158.27 296.67,-149.16 296.21,-140.9"/>
<polygon fill="#63b8ff" stroke="#63b8ff" points="299.7,-140.74 295.64,-130.95 292.71,-141.13 299.7,-140.74"/>
</g>
<!-- Node165&#45;&gt;Node139 -->
<g id="edge32" class="edge">
<title>Node165&#45;&gt;Node139</title>
<path fill="none" stroke="#63b8ff" d="M285.67,-164.51C274.91,-156.7 259.08,-145.21 246.3,-135.93"/>
<polygon fill="#63b8ff" stroke="#63b8ff" points="248.63,-133.29 238.48,-130.25 244.51,-138.95 248.63,-133.29"/>
</g>
<!-- Node165&#45;&gt;Node170 -->
<g id="edge33" class="edge">
<title>Node165&#45;&gt;Node170</title>
<path fill="none" stroke="#63b8ff" d="M332.32,-169.47C411.98,-160.11 609.78,-136.87 701.25,-126.12"/>
<polygon fill="#63b8ff" stroke="#63b8ff" points="701.62,-129.6 711.15,-124.95 700.81,-122.65 701.62,-129.6"/>
</g>
<!-- Node170&#45;&gt;Node4 -->
<g id="edge34" class="edge">
<title>Node170&#45;&gt;Node4</title>
<path fill="none" stroke="#63b8ff" d="M766.36,-109.51C782.13,-101.31 805.69,-89.07 823.96,-79.58"/>
<polygon fill="#63b8ff" stroke="#63b8ff" points="825.4,-82.77 832.66,-75.06 822.17,-76.56 825.4,-82.77"/>
</g>
<!-- Node172&#45;&gt;Node4 -->
<g id="edge37" class="edge">
<title>Node172&#45;&gt;Node4</title>
<path fill="none" stroke="#63b8ff" d="M1295.09,-111.51C1292.04,-110.96 1288.99,-110.45 1286.05,-110 1142.38,-88.17 970.35,-74.1 892.7,-68.4"/>
<polygon fill="#63b8ff" stroke="#63b8ff" points="893.24,-64.93 883.02,-67.7 892.74,-71.91 893.24,-64.93"/>
</g>
<!-- Node172&#45;&gt;Node6 -->
<g id="edge38" class="edge">
<title>Node172&#45;&gt;Node6</title>
<path fill="none" stroke="#63b8ff" d="M1342.64,-109.51C1355.57,-101.54 1374.7,-89.75 1389.9,-80.38"/>
<polygon fill="#63b8ff" stroke="#63b8ff" points="1391.71,-83.38 1398.39,-75.15 1388.04,-77.42 1391.71,-83.38"/>
</g>
<!-- Node172&#45;&gt;Node8 -->
<g id="edge39" class="edge">
<title>Node172&#45;&gt;Node8</title>
<path fill="none" stroke="#63b8ff" d="M1295.11,-111.38C1292.06,-110.86 1289,-110.38 1286.05,-110 1147.12,-91.92 714,-72.93 576.44,-67.22"/>
<polygon fill="#63b8ff" stroke="#63b8ff" points="576.82,-63.73 566.69,-66.82 576.53,-70.73 576.82,-63.73"/>
</g>
<!-- Node172&#45;&gt;Node91 -->
<g id="edge40" class="edge">
<title>Node172&#45;&gt;Node91</title>
<path fill="none" stroke="#63b8ff" d="M1321.12,-109.75C1315.44,-102.58 1307.21,-92.2 1300.16,-83.3"/>
<polygon fill="#63b8ff" stroke="#63b8ff" points="1303.03,-81.29 1294.08,-75.63 1297.55,-85.64 1303.03,-81.29"/>
</g>
<!-- Node106&#45;&gt;Node2 -->
<g id="edge42" class="edge">
<title>Node106&#45;&gt;Node2</title>
<path fill="none" stroke="#63b8ff" d="M584.03,-164.64C564.98,-157.47 540.21,-145.8 523.05,-129 503.3,-109.67 500.69,-100.82 494.05,-74 492.02,-65.8 491.03,-62.88 494.05,-55 498.16,-44.29 506.17,-34.54 513.95,-26.91"/>
<polygon fill="#63b8ff" stroke="#63b8ff" points="516.21,-29.58 521.29,-20.28 511.52,-24.39 516.21,-29.58"/>
</g>
<!-- Node106&#45;&gt;Node4 -->
<g id="edge43" class="edge">
<title>Node106&#45;&gt;Node4</title>
<path fill="none" stroke="#63b8ff" d="M622.42,-164.72C638.79,-151.24 672.06,-125.42 704.05,-110 738.13,-93.58 779.59,-81.69 809.78,-74.36"/>
<polygon fill="#63b8ff" stroke="#63b8ff" points="810.35,-77.82 819.28,-72.11 808.75,-71 810.35,-77.82"/>
</g>
<!-- Node106&#45;&gt;Node5 -->
<g id="edge44" class="edge">
<title>Node106&#45;&gt;Node5</title>
<path fill="none" stroke="#63b8ff" d="M583.87,-166.99C580.57,-166.29 577.24,-165.61 574.05,-165 488.78,-148.68 388.04,-133.65 333.99,-125.93"/>
<polygon fill="#63b8ff" stroke="#63b8ff" points="334.76,-122.51 324.37,-124.57 333.78,-129.44 334.76,-122.51"/>
</g>
<!-- Node106&#45;&gt;Node8 -->
<g id="edge45" class="edge">
<title>Node106&#45;&gt;Node8</title>
<path fill="none" stroke="#63b8ff" d="M583.82,-165.9C565.55,-159.36 543.17,-147.91 532.05,-129 524.35,-115.9 525.52,-98.5 528.24,-85.23"/>
<polygon fill="#63b8ff" stroke="#63b8ff" points="531.54,-86.46 530.6,-75.91 524.75,-84.75 531.54,-86.46"/>
</g>
<!-- Node106&#45;&gt;Node91 -->
<g id="edge46" class="edge">
<title>Node106&#45;&gt;Node91</title>
<path fill="none" stroke="#63b8ff" d="M640.31,-166.88C643.26,-166.23 646.21,-165.59 649.05,-165 780.5,-137.74 813.45,-130.94 946.05,-110 1053.45,-93.04 1180.65,-77.63 1244.74,-70.19"/>
<polygon fill="#63b8ff" stroke="#63b8ff" points="1244.92,-73.69 1254.45,-69.07 1244.12,-66.74 1244.92,-73.69"/>
</g>
<!-- Node106&#45;&gt;Node107 -->
<g id="edge47" class="edge">
<title>Node106&#45;&gt;Node107</title>
<path fill="none" stroke="#63b8ff" d="M583.96,-166.02C551.1,-157.27 496.28,-142.66 457.6,-132.36"/>
<polygon fill="#63b8ff" stroke="#63b8ff" points="458.68,-129.03 448.11,-129.84 456.87,-135.79 458.68,-129.03"/>
</g>
<!-- Node107&#45;&gt;Node2 -->
<g id="edge48" class="edge">
<title>Node107&#45;&gt;Node2</title>
<path fill="none" stroke="#63b8ff" d="M418.09,-109.88C426.01,-96.85 442.4,-71.88 461.05,-55 474.34,-42.98 491.32,-32.4 505.57,-24.58"/>
<polygon fill="#63b8ff" stroke="#63b8ff" points="506.83,-27.87 514.02,-20.1 503.55,-21.69 506.83,-27.87"/>
</g>
<!-- Node107&#45;&gt;Node4 -->
<g id="edge49" class="edge">
<title>Node107&#45;&gt;Node4</title>
<path fill="none" stroke="#63b8ff" d="M446.69,-114.43C525.79,-104.86 723.38,-80.95 809.65,-70.51"/>
<polygon fill="#63b8ff" stroke="#63b8ff" points="809.81,-74.02 819.32,-69.34 808.97,-67.07 809.81,-74.02"/>
</g>
<!-- Node107&#45;&gt;Node8 -->
<g id="edge50" class="edge">
<title>Node107&#45;&gt;Node8</title>
<path fill="none" stroke="#63b8ff" d="M433.58,-109.51C452.73,-101.12 481.55,-88.5 503.42,-78.92"/>
<polygon fill="#63b8ff" stroke="#63b8ff" points="504.69,-82.18 512.44,-74.97 501.88,-75.77 504.69,-82.18"/>
</g>
<!-- Node177&#45;&gt;Node2 -->
<g id="edge53" class="edge">
<title>Node177&#45;&gt;Node2</title>
<path fill="none" stroke="#63b8ff" d="M162.45,-164.58C152.37,-151.6 137.16,-127.19 149.05,-110 188.76,-52.61 405.87,-23.81 495.41,-14.24"/>
<polygon fill="#63b8ff" stroke="#63b8ff" points="495.59,-17.74 505.17,-13.22 494.86,-10.77 495.59,-17.74"/>
</g>
<!-- Node177&#45;&gt;Node4 -->
<g id="edge54" class="edge">
<title>Node177&#45;&gt;Node4</title>
<path fill="none" stroke="#63b8ff" d="M170.22,-164.81C171.01,-150.73 174.81,-123.17 192.05,-110 216.65,-91.21 668.6,-72.46 809.48,-67.05"/>
<polygon fill="#63b8ff" stroke="#63b8ff" points="809.23,-70.56 819.09,-66.68 808.97,-63.57 809.23,-70.56"/>
</g>
<!-- Node177&#45;&gt;Node8 -->
<g id="edge55" class="edge">
<title>Node177&#45;&gt;Node8</title>
<path fill="none" stroke="#63b8ff" d="M164.69,-164.91C157.04,-151.46 145.38,-125.39 159.05,-110 180.84,-85.47 397.87,-72.09 491.46,-67.43"/>
<polygon fill="#63b8ff" stroke="#63b8ff" points="491.44,-70.93 501.25,-66.95 491.1,-63.94 491.44,-70.93"/>
</g>
<!-- Node177&#45;&gt;Node139 -->
<g id="edge56" class="edge">
<title>Node177&#45;&gt;Node139</title>
<path fill="none" stroke="#63b8ff" d="M179.13,-164.75C186.89,-157.27 198.26,-146.32 207.75,-137.17"/>
<polygon fill="#63b8ff" stroke="#63b8ff" points="209.91,-139.95 214.68,-130.49 205.05,-134.91 209.91,-139.95"/>
</g>
<!-- Node179&#45;&gt;Node2 -->
<g id="edge58" class="edge">
<title>Node179&#45;&gt;Node2</title>
<path fill="none" stroke="#63b8ff" d="M1088.82,-164.77C1084.9,-151.13 1075.48,-124.8 1058.05,-110 998.16,-59.15 966.72,-72.17 890.05,-55 776.19,-29.49 638.33,-17.49 572.57,-12.88"/>
<polygon fill="#63b8ff" stroke="#63b8ff" points="572.88,-9.39 562.66,-12.21 572.4,-16.38 572.88,-9.39"/>
</g>
<!-- Node179&#45;&gt;Node4 -->
<g id="edge59" class="edge">
<title>Node179&#45;&gt;Node4</title>
<path fill="none" stroke="#63b8ff" d="M1085.34,-164.59C1075.96,-150.7 1055.92,-124.04 1032.05,-110 988.57,-84.43 930.94,-73.5 892.5,-68.86"/>
<polygon fill="#63b8ff" stroke="#63b8ff" points="893.06,-65.4 882.73,-67.78 892.29,-72.36 893.06,-65.4"/>
</g>
<!-- Node179&#45;&gt;Node6 -->
<g id="edge60" class="edge">
<title>Node179&#45;&gt;Node6</title>
<path fill="none" stroke="#63b8ff" d="M1119.3,-171.79C1181.6,-167.59 1328.53,-155.12 1370.05,-129 1386.71,-118.52 1398.73,-99.18 1405.96,-84.59"/>
<polygon fill="#63b8ff" stroke="#63b8ff" points="1409.12,-86.09 1410.09,-75.54 1402.75,-83.19 1409.12,-86.09"/>
</g>
<!-- Node179&#45;&gt;Node8 -->
<g id="edge61" class="edge">
<title>Node179&#45;&gt;Node8</title>
<path fill="none" stroke="#63b8ff" d="M1062.88,-167.07C1010.21,-155.15 893.21,-129.08 794.05,-110 717.7,-95.31 628.27,-80.53 576.69,-72.24"/>
<polygon fill="#63b8ff" stroke="#63b8ff" points="577.27,-68.79 566.84,-70.67 576.16,-75.71 577.27,-68.79"/>
</g>
<!-- Node179&#45;&gt;Node141 -->
<g id="edge62" class="edge">
<title>Node179&#45;&gt;Node141</title>
<path fill="none" stroke="#63b8ff" d="M1104.96,-164.51C1117.29,-156.54 1135.53,-144.75 1150.03,-135.38"/>
<polygon fill="#63b8ff" stroke="#63b8ff" points="1151.58,-138.55 1158.08,-130.18 1147.78,-132.67 1151.58,-138.55"/>
</g>
<!-- Node179&#45;&gt;Node114 -->
<g id="edge63" class="edge">
<title>Node179&#45;&gt;Node114</title>
<path fill="none" stroke="#63b8ff" d="M1119.52,-170.3C1199.2,-161.36 1424.91,-136.01 1519.99,-125.34"/>
<polygon fill="#63b8ff" stroke="#63b8ff" points="1520.13,-128.84 1529.68,-124.25 1519.35,-121.89 1520.13,-128.84"/>
</g>
<!-- Node180&#45;&gt;Node4 -->
<g id="edge65" class="edge">
<title>Node180&#45;&gt;Node4</title>
<path fill="none" stroke="#63b8ff" d="M840.95,-164.66C842.7,-147.5 846.6,-109.26 849.01,-85.6"/>
<polygon fill="#63b8ff" stroke="#63b8ff" points="852.46,-86.27 849.99,-75.97 845.49,-85.56 852.46,-86.27"/>
</g>
<!-- Node181&#45;&gt;Node4 -->
<g id="edge67" class="edge">
<title>Node181&#45;&gt;Node4</title>
<path fill="none" stroke="#63b8ff" d="M1219.97,-164.58C1185.23,-151.39 1117.27,-126.47 1058.05,-110 1001.4,-94.25 934.73,-80.81 892.67,-72.94"/>
<polygon fill="#63b8ff" stroke="#63b8ff" points="893.45,-69.52 882.98,-71.15 892.18,-76.41 893.45,-69.52"/>
</g>
<!-- Node181&#45;&gt;Node6 -->
<g id="edge68" class="edge">
<title>Node181&#45;&gt;Node6</title>
<path fill="none" stroke="#63b8ff" d="M1273,-174.14C1309.34,-173.18 1369.87,-165.66 1403.05,-129 1413.63,-117.31 1415.9,-99.26 1415.8,-85.39"/>
<polygon fill="#63b8ff" stroke="#63b8ff" points="1419.3,-85.44 1415.29,-75.63 1412.31,-85.8 1419.3,-85.44"/>
</g>
<!-- Node181&#45;&gt;Node142 -->
<g id="edge69" class="edge">
<title>Node181&#45;&gt;Node142</title>
<path fill="none" stroke="#63b8ff" d="M1243.05,-164.75C1243.05,-158.27 1243.05,-149.16 1243.05,-140.9"/>
<polygon fill="#63b8ff" stroke="#63b8ff" points="1246.55,-140.96 1243.05,-130.96 1239.55,-140.96 1246.55,-140.96"/>
</g>
<!-- Node182&#45;&gt;Node2 -->
<g id="edge71" class="edge">
<title>Node182&#45;&gt;Node2</title>
<path fill="none" stroke="#63b8ff" d="M1632.95,-164.64C1646.16,-151.73 1666.42,-127.41 1653.05,-110 1595.33,-34.85 1540.68,-69.61 1447.05,-55 1274.54,-28.08 724.06,-14.56 572.82,-11.29"/>
<polygon fill="#63b8ff" stroke="#63b8ff" points="573.01,-7.8 562.94,-11.08 572.86,-14.8 573.01,-7.8"/>
</g>
<!-- Node182&#45;&gt;Node4 -->
<g id="edge72" class="edge">
<title>Node182&#45;&gt;Node4</title>
<path fill="none" stroke="#63b8ff" d="M1623.33,-164.83C1623.26,-150.79 1620.83,-123.28 1604.05,-110 1575.97,-87.77 1045.83,-71.03 892.35,-66.64"/>
<polygon fill="#63b8ff" stroke="#63b8ff" points="892.75,-63.15 882.65,-66.36 892.55,-70.14 892.75,-63.15"/>
</g>
<!-- Node182&#45;&gt;Node6 -->
<g id="edge73" class="edge">
<title>Node182&#45;&gt;Node6</title>
<path fill="none" stroke="#63b8ff" d="M1629.15,-164.63C1637.51,-151.28 1650.08,-125.89 1637.05,-110 1613.74,-81.57 1506.31,-70.96 1449.5,-67.28"/>
<polygon fill="#63b8ff" stroke="#63b8ff" points="1449.9,-63.8 1439.71,-66.69 1449.48,-70.78 1449.9,-63.8"/>
</g>
<!-- Node182&#45;&gt;Node7 -->
<g id="edge74" class="edge">
<title>Node182&#45;&gt;Node7</title>
<path fill="none" stroke="#63b8ff" d="M1645.95,-164.51C1667.61,-156.01 1700.36,-143.15 1724.87,-133.53"/>
<polygon fill="#63b8ff" stroke="#63b8ff" points="1726.05,-136.82 1734.08,-129.91 1723.49,-130.31 1726.05,-136.82"/>
</g>
<!-- Node182&#45;&gt;Node141 -->
<g id="edge75" class="edge">
<title>Node182&#45;&gt;Node141</title>
<path fill="none" stroke="#63b8ff" d="M1581.2,-171.87C1506.71,-168.38 1346.2,-158.16 1202.69,-129.15"/>
<polygon fill="#63b8ff" stroke="#63b8ff" points="1203.5,-125.75 1193,-127.15 1202.08,-132.6 1203.5,-125.75"/>
</g>
<!-- Node182&#45;&gt;Node114 -->
<g id="edge76" class="edge">
<title>Node182&#45;&gt;Node114</title>
<path fill="none" stroke="#63b8ff" d="M1612.87,-164.51C1604.29,-156.93 1591.78,-145.88 1581.45,-136.75"/>
<polygon fill="#63b8ff" stroke="#63b8ff" points="1584.03,-134.36 1574.21,-130.36 1579.39,-139.6 1584.03,-134.36"/>
</g>
<!-- Node183&#45;&gt;Node2 -->
<g id="edge78" class="edge">
<title>Node183&#45;&gt;Node2</title>
<path fill="none" stroke="#63b8ff" d="M401.71,-164.67C384.62,-152.96 359.62,-131.27 370.05,-110 394.24,-60.67 455.37,-33.59 495.78,-20.58"/>
<polygon fill="#63b8ff" stroke="#63b8ff" points="496.59,-23.99 505.13,-17.72 494.54,-17.3 496.59,-23.99"/>
</g>
<!-- Node183&#45;&gt;Node4 -->
<g id="edge79" class="edge">
<title>Node183&#45;&gt;Node4</title>
<path fill="none" stroke="#63b8ff" d="M444.37,-169.65C485.53,-163.59 563.98,-150.26 628.05,-129 647.11,-122.67 650.1,-116.64 669.05,-110 716.21,-93.48 772.3,-80.77 809.63,-73.24"/>
<polygon fill="#63b8ff" stroke="#63b8ff" points="809.97,-76.74 819.1,-71.36 808.61,-69.87 809.97,-76.74"/>
</g>
<!-- Node183&#45;&gt;Node139 -->
<g id="edge80" class="edge">
<title>Node183&#45;&gt;Node139</title>
<path fill="none" stroke="#63b8ff" d="M387.87,-165.68C353.92,-156.26 296.88,-140.43 260.12,-130.23"/>
<polygon fill="#63b8ff" stroke="#63b8ff" points="261.44,-126.96 250.87,-127.66 259.57,-133.71 261.44,-126.96"/>
</g>
<!-- Node183&#45;&gt;Node107 -->
<g id="edge81" class="edge">
<title>Node183&#45;&gt;Node107</title>
<path fill="none" stroke="#63b8ff" d="M415.56,-164.75C415.19,-158.27 414.67,-149.16 414.21,-140.9"/>
<polygon fill="#63b8ff" stroke="#63b8ff" points="417.7,-140.74 413.64,-130.95 410.71,-141.13 417.7,-140.74"/>
</g>
</g>
</svg>
