<?xml version="1.0" encoding="UTF-8" standalone="no"?>
<!DOCTYPE svg PUBLIC "-//W3C//DTD SVG 1.1//EN"
 "http://www.w3.org/Graphics/SVG/1.1/DTD/svg11.dtd">
<!-- Generated by graphviz version 7.1.0 (0)
 -->
<!-- Title: pager_get_pager Pages: 1 -->
<svg width="233pt" height="64pt"
 viewBox="0.00 0.00 233.00 64.00" xmlns="http://www.w3.org/2000/svg" xmlns:xlink="http://www.w3.org/1999/xlink">
<g id="graph0" class="graph" transform="scale(1 1) rotate(0) translate(4 60)">
<title>pager_get_pager</title>
<!-- Node1 -->
<g id="node1" class="node">
<title>Node1</title>
<g id="a_node1"><a xlink:title="Get the value of $pager.">
<polygon fill="#999999" stroke="#666666" points="97,-37 0,-37 0,-18 97,-18 97,-37"/>
<text text-anchor="middle" x="48.5" y="-25" font-family="Helvetica,sans-Serif" font-size="10.00">pager_get_pager</text>
</a>
</g>
</g>
<!-- Node2 -->
<g id="node2" class="node">
<title>Node2</title>
<g id="a_node2"><a xlink:href="config_2helpers_8c.html#a6b1589ee93ff51ef31f1d9324e138078" target="_top" xlink:title="Get a string config item by name.">
<polygon fill="#fff0f0" stroke="red" points="225,-56 133,-56 133,-37 225,-37 225,-56"/>
<text text-anchor="middle" x="179" y="-44" font-family="Helvetica,sans-Serif" font-size="10.00">cs_subset_string</text>
</a>
</g>
</g>
<!-- Node1&#45;&gt;Node2 -->
<g id="edge1" class="edge">
<title>Node1&#45;&gt;Node2</title>
<path fill="none" stroke="#63b8ff" d="M97.35,-34.57C105.21,-35.74 113.41,-36.95 121.46,-38.14"/>
<polygon fill="#63b8ff" stroke="#63b8ff" points="120.77,-41.58 131.17,-39.58 121.79,-34.65 120.77,-41.58"/>
</g>
<!-- Node23 -->
<g id="node3" class="node">
<title>Node23</title>
<g id="a_node3"><a xlink:href="mutt_2string_8c.html#a6b6a50296dd2a31863a43379ef4a343d" target="_top" xlink:title="Compare two strings.">
<polygon fill="#fff0f0" stroke="red" points="222,-19 136,-19 136,0 222,0 222,-19"/>
<text text-anchor="middle" x="179" y="-7" font-family="Helvetica,sans-Serif" font-size="10.00">mutt_str_equal</text>
</a>
</g>
</g>
<!-- Node1&#45;&gt;Node23 -->
<g id="edge2" class="edge">
<title>Node1&#45;&gt;Node23</title>
<path fill="none" stroke="#63b8ff" d="M97.35,-20.8C106.18,-19.56 115.45,-18.26 124.44,-17"/>
<polygon fill="#63b8ff" stroke="#63b8ff" points="124.7,-20.5 134.11,-15.65 123.72,-13.57 124.7,-20.5"/>
</g>
</g>
</svg>
