<?xml version="1.0" encoding="UTF-8" standalone="no"?>
<!DOCTYPE svg PUBLIC "-//W3C//DTD SVG 1.1//EN"
 "http://www.w3.org/Graphics/SVG/1.1/DTD/svg11.dtd">
<!-- Generated by graphviz version 7.1.0 (0)
 -->
<!-- Title: parse_color_prefix Pages: 1 -->
<svg width="255pt" height="64pt"
 viewBox="0.00 0.00 255.00 64.00" xmlns="http://www.w3.org/2000/svg" xmlns:xlink="http://www.w3.org/1999/xlink">
<g id="graph0" class="graph" transform="scale(1 1) rotate(0) translate(4 60)">
<title>parse_color_prefix</title>
<!-- Node1 -->
<g id="node1" class="node">
<title>Node1</title>
<g id="a_node1"><a xlink:title="Parse a colour prefix, e.g.">
<polygon fill="#999999" stroke="#666666" points="102,-37 0,-37 0,-18 102,-18 102,-37"/>
<text text-anchor="middle" x="51" y="-25" font-family="Helvetica,sans-Serif" font-size="10.00">parse_color_prefix</text>
</a>
</g>
</g>
<!-- Node2 -->
<g id="node2" class="node">
<title>Node2</title>
<g id="a_node2"><a xlink:href="debug_8h.html#a63e0ab098a555876b7a74f285ff7d692" target="_top" xlink:title=" ">
<polygon fill="white" stroke="#666666" points="229.5,-56 155.5,-56 155.5,-37 229.5,-37 229.5,-56"/>
<text text-anchor="middle" x="192.5" y="-44" font-family="Helvetica,sans-Serif" font-size="10.00">color_debug</text>
</a>
</g>
</g>
<!-- Node1&#45;&gt;Node2 -->
<g id="edge1" class="edge">
<title>Node1&#45;&gt;Node2</title>
<path fill="none" stroke="#63b8ff" d="M102.36,-34.36C115.88,-36.2 130.46,-38.19 143.83,-40.01"/>
<polygon fill="#63b8ff" stroke="#63b8ff" points="143.33,-43.47 153.71,-41.35 144.28,-36.54 143.33,-43.47"/>
</g>
<!-- Node3 -->
<g id="node3" class="node">
<title>Node3</title>
<g id="a_node3"><a xlink:href="mutt_2string_8c.html#aebd2a8a3f8a30062c31fa1474d87cc41" target="_top" xlink:title="Check whether a string starts with a prefix, ignoring case.">
<polygon fill="#fff0f0" stroke="red" points="247,-19 138,-19 138,0 247,0 247,-19"/>
<text text-anchor="middle" x="192.5" y="-7" font-family="Helvetica,sans-Serif" font-size="10.00">mutt_istr_startswith</text>
</a>
</g>
</g>
<!-- Node1&#45;&gt;Node3 -->
<g id="edge2" class="edge">
<title>Node1&#45;&gt;Node3</title>
<path fill="none" stroke="#63b8ff" d="M102.36,-21C110.21,-19.99 118.42,-18.93 126.54,-17.88"/>
<polygon fill="#63b8ff" stroke="#63b8ff" points="126.94,-21.36 136.41,-16.61 126.05,-14.42 126.94,-21.36"/>
</g>
</g>
</svg>
