<?xml version="1.0" encoding="UTF-8" standalone="no"?>
<!DOCTYPE svg PUBLIC "-//W3C//DTD SVG 1.1//EN"
 "http://www.w3.org/Graphics/SVG/1.1/DTD/svg11.dtd">
<!-- Generated by graphviz version 2.40.1 (20161225.0304)
 -->
<!-- Title: mutt_extract_message_id Pages: 1 -->
<svg width="473pt" height="104pt"
 viewBox="0.00 0.00 473.00 104.00" xmlns="http://www.w3.org/2000/svg" xmlns:xlink="http://www.w3.org/1999/xlink">
<g id="graph0" class="graph" transform="scale(1 1) rotate(0) translate(4 100)">
<title>mutt_extract_message_id</title>
<polygon fill="#ffffff" stroke="transparent" points="-4,4 -4,-100 469,-100 469,4 -4,4"/>
<!-- Node1966 -->
<g id="node1" class="node">
<title>Node1966</title>
<polygon fill="#bfbfbf" stroke="#000000" points="0,-38.5 0,-57.5 143,-57.5 143,-38.5 0,-38.5"/>
<text text-anchor="middle" x="71.5" y="-45.5" font-family="Helvetica,sans-Serif" font-size="10.00" fill="#000000">mutt_extract_message_id</text>
</g>
<!-- Node1967 -->
<g id="node2" class="node">
<title>Node1967</title>
<g id="a_node2"><a xlink:href="parse_8c.html#a5b80e3daa9cb6eb8f8ed5adae704ee10" target="_top" xlink:title="Parse references from an email header. ">
<polygon fill="#ffffff" stroke="#000000" points="188,-76.5 188,-95.5 289,-95.5 289,-76.5 188,-76.5"/>
<text text-anchor="middle" x="238.5" y="-83.5" font-family="Helvetica,sans-Serif" font-size="10.00" fill="#000000">parse_references</text>
</a>
</g>
</g>
<!-- Node1966&#45;&gt;Node1967 -->
<g id="edge1" class="edge">
<title>Node1966&#45;&gt;Node1967</title>
<path fill="none" stroke="#191970" d="M123.4646,-59.8243C147.0086,-65.1816 174.4737,-71.4311 196.6619,-76.4799"/>
<polygon fill="#191970" stroke="#191970" points="124.1685,-56.3951 113.6412,-57.589 122.6153,-63.2206 124.1685,-56.3951"/>
</g>
<!-- Node1968 -->
<g id="node3" class="node">
<title>Node1968</title>
<g id="a_node3"><a xlink:href="parse_8h.html#a4ccd3c1628387aaf4e5b644988124e87" target="_top" xlink:title="Parse an email header. ">
<polygon fill="#ffffff" stroke="#ff0000" points="334,-57.5 334,-76.5 465,-76.5 465,-57.5 334,-57.5"/>
<text text-anchor="middle" x="399.5" y="-64.5" font-family="Helvetica,sans-Serif" font-size="10.00" fill="#000000">mutt_rfc822_parse_line</text>
</a>
</g>
</g>
<!-- Node1966&#45;&gt;Node1968 -->
<g id="edge3" class="edge">
<title>Node1966&#45;&gt;Node1968</title>
<path fill="none" stroke="#191970" d="M153.2829,-52.7374C209.0629,-55.9686 281.96,-60.1913 333.9284,-63.2016"/>
<polygon fill="#191970" stroke="#191970" points="153.2614,-49.2304 143.0757,-52.1462 152.8565,-56.2187 153.2614,-49.2304"/>
</g>
<!-- Node2542 -->
<g id="node4" class="node">
<title>Node2542</title>
<g id="a_node4"><a xlink:href="send_8c.html#a9bca5c9f44a7908485389d16dcf20f96" target="_top" xlink:title="Process the user headers. ">
<polygon fill="#ffffff" stroke="#ff0000" points="179,-.5 179,-19.5 298,-19.5 298,-.5 179,-.5"/>
<text text-anchor="middle" x="238.5" y="-7.5" font-family="Helvetica,sans-Serif" font-size="10.00" fill="#000000">process_user_header</text>
</a>
</g>
</g>
<!-- Node1966&#45;&gt;Node2542 -->
<g id="edge4" class="edge">
<title>Node1966&#45;&gt;Node2542</title>
<path fill="none" stroke="#191970" d="M123.4646,-36.1757C147.0086,-30.8184 174.4737,-24.5689 196.6619,-19.5201"/>
<polygon fill="#191970" stroke="#191970" points="122.6153,-32.7794 113.6412,-38.411 124.1685,-39.6049 122.6153,-32.7794"/>
</g>
<!-- Node1967&#45;&gt;Node1968 -->
<g id="edge2" class="edge">
<title>Node1967&#45;&gt;Node1968</title>
<path fill="none" stroke="#191970" d="M299.5564,-78.7946C310.7636,-77.472 322.5056,-76.0863 333.841,-74.7486"/>
<polygon fill="#191970" stroke="#191970" points="298.9623,-75.3403 289.4414,-79.9883 299.7827,-82.2921 298.9623,-75.3403"/>
</g>
</g>
</svg>
