<?xml version="1.0" encoding="UTF-8" standalone="no"?>
<!DOCTYPE svg PUBLIC "-//W3C//DTD SVG 1.1//EN"
 "http://www.w3.org/Graphics/SVG/1.1/DTD/svg11.dtd">
<!-- Generated by graphviz version 2.40.1 (20161225.0304)
 -->
<!-- Title: mutt_parse_content_type Pages: 1 -->
<svg width="494pt" height="180pt"
 viewBox="0.00 0.00 494.00 180.00" xmlns="http://www.w3.org/2000/svg" xmlns:xlink="http://www.w3.org/1999/xlink">
<g id="graph0" class="graph" transform="scale(1 1) rotate(0) translate(4 176)">
<title>mutt_parse_content_type</title>
<polygon fill="#ffffff" stroke="transparent" points="-4,4 -4,-176 490,-176 490,4 -4,4"/>
<!-- Node3794 -->
<g id="node1" class="node">
<title>Node3794</title>
<polygon fill="#bfbfbf" stroke="#000000" points="0,-76.5 0,-95.5 141,-95.5 141,-76.5 0,-76.5"/>
<text text-anchor="middle" x="70.5" y="-83.5" font-family="Helvetica,sans-Serif" font-size="10.00" fill="#000000">mutt_parse_content_type</text>
</g>
<!-- Node3795 -->
<g id="node2" class="node">
<title>Node3795</title>
<g id="a_node2"><a xlink:href="commands_8h.html#a9b5874c3558cb300404bb50f60fc6a31" target="_top" xlink:title="Edit the content type of an attachment. ">
<polygon fill="#ffffff" stroke="#ff0000" points="177,-152.5 177,-171.5 310,-171.5 310,-152.5 177,-152.5"/>
<text text-anchor="middle" x="243.5" y="-159.5" font-family="Helvetica,sans-Serif" font-size="10.00" fill="#000000">mutt_edit_content_type</text>
</a>
</g>
</g>
<!-- Node3794&#45;&gt;Node3795 -->
<g id="edge1" class="edge">
<title>Node3794&#45;&gt;Node3795</title>
<path fill="none" stroke="#191970" d="M94.5004,-100.7595C115.6306,-113.2828 147.539,-131.0666 177,-143 185.7918,-146.5612 195.4902,-149.7338 204.6984,-152.4186"/>
<polygon fill="#191970" stroke="#191970" points="96.2463,-97.7254 85.8706,-95.5814 92.6447,-103.7278 96.2463,-97.7254"/>
</g>
<!-- Node4360 -->
<g id="node3" class="node">
<title>Node4360</title>
<g id="a_node3"><a xlink:href="parse_8h.html#a4ccd3c1628387aaf4e5b644988124e87" target="_top" xlink:title="Parse an email header. ">
<polygon fill="#ffffff" stroke="#ff0000" points="178,-114.5 178,-133.5 309,-133.5 309,-114.5 178,-114.5"/>
<text text-anchor="middle" x="243.5" y="-121.5" font-family="Helvetica,sans-Serif" font-size="10.00" fill="#000000">mutt_rfc822_parse_line</text>
</a>
</g>
</g>
<!-- Node3794&#45;&gt;Node4360 -->
<g id="edge2" class="edge">
<title>Node3794&#45;&gt;Node4360</title>
<path fill="none" stroke="#191970" d="M124.0051,-97.7526C148.4673,-103.1258 177.0707,-109.4086 200.1587,-114.4799"/>
<polygon fill="#191970" stroke="#191970" points="124.6733,-94.316 114.1552,-95.589 123.1714,-101.153 124.6733,-94.316"/>
</g>
<!-- Node4361 -->
<g id="node4" class="node">
<title>Node4361</title>
<g id="a_node4"><a xlink:href="parse_8h.html#ad373211d5d49e235c1aa9b818f0f10a1" target="_top" xlink:title="Parse a MIME header. ">
<polygon fill="#ffffff" stroke="#ff0000" points="346,-95.5 346,-114.5 486,-114.5 486,-95.5 346,-95.5"/>
<text text-anchor="middle" x="416" y="-102.5" font-family="Helvetica,sans-Serif" font-size="10.00" fill="#000000">mutt_read_mime_header</text>
</a>
</g>
</g>
<!-- Node3794&#45;&gt;Node4361 -->
<g id="edge4" class="edge">
<title>Node3794&#45;&gt;Node4361</title>
<path fill="none" stroke="#191970" d="M151.2846,-90.4426C210.3166,-93.6889 289.5719,-98.0474 345.935,-101.1469"/>
<polygon fill="#191970" stroke="#191970" points="151.4279,-86.9453 141.2508,-89.8908 151.0435,-93.9347 151.4279,-86.9453"/>
</g>
<!-- Node3797 -->
<g id="node5" class="node">
<title>Node3797</title>
<g id="a_node5"><a xlink:href="send_8h.html#a886452bec277bd3e4169d0863b7768ae" target="_top" xlink:title="Send an email. ">
<polygon fill="#ffffff" stroke="#ff0000" points="184.5,-38.5 184.5,-57.5 302.5,-57.5 302.5,-38.5 184.5,-38.5"/>
<text text-anchor="middle" x="243.5" y="-45.5" font-family="Helvetica,sans-Serif" font-size="10.00" fill="#000000">mutt_send_message</text>
</a>
</g>
</g>
<!-- Node3794&#45;&gt;Node3797 -->
<g id="edge5" class="edge">
<title>Node3794&#45;&gt;Node3797</title>
<path fill="none" stroke="#191970" d="M124.0051,-74.2474C148.4673,-68.8742 177.0707,-62.5914 200.1587,-57.5201"/>
<polygon fill="#191970" stroke="#191970" points="123.1714,-70.847 114.1552,-76.411 124.6733,-77.684 123.1714,-70.847"/>
</g>
<!-- Node4369 -->
<g id="node6" class="node">
<title>Node4369</title>
<g id="a_node6"><a xlink:href="sendlib_8c.html#aedf9e081d3acda51f669619b55cea4e7" target="_top" xlink:title="Run an external command to determine the MIME type. ">
<polygon fill="#ffffff" stroke="#ff0000" points="180.5,-.5 180.5,-19.5 306.5,-19.5 306.5,-.5 180.5,-.5"/>
<text text-anchor="middle" x="243.5" y="-7.5" font-family="Helvetica,sans-Serif" font-size="10.00" fill="#000000">run_mime_type_query</text>
</a>
</g>
</g>
<!-- Node3794&#45;&gt;Node4369 -->
<g id="edge6" class="edge">
<title>Node3794&#45;&gt;Node4369</title>
<path fill="none" stroke="#191970" d="M94.5004,-71.2405C115.6306,-58.7172 147.539,-40.9334 177,-29 185.7918,-25.4388 195.4902,-22.2662 204.6984,-19.5814"/>
<polygon fill="#191970" stroke="#191970" points="92.6447,-68.2722 85.8706,-76.4186 96.2463,-74.2746 92.6447,-68.2722"/>
</g>
<!-- Node4360&#45;&gt;Node4361 -->
<g id="edge3" class="edge">
<title>Node4360&#45;&gt;Node4361</title>
<path fill="none" stroke="#191970" d="M319.1537,-115.6671C328.0393,-114.6884 337.0771,-113.693 345.8823,-112.7231"/>
<polygon fill="#191970" stroke="#191970" points="318.7636,-112.1888 309.2069,-116.7627 319.5301,-119.1468 318.7636,-112.1888"/>
</g>
</g>
</svg>
