<?xml version="1.0" encoding="UTF-8" standalone="no"?>
<!DOCTYPE svg PUBLIC "-//W3C//DTD SVG 1.1//EN"
 "http://www.w3.org/Graphics/SVG/1.1/DTD/svg11.dtd">
<!-- Generated by graphviz version 2.40.1 (20161225.0304)
 -->
<!-- Title: mutt_read_mime_header Pages: 1 -->
<svg width="465pt" height="268pt"
 viewBox="0.00 0.00 465.00 267.50" xmlns="http://www.w3.org/2000/svg" xmlns:xlink="http://www.w3.org/1999/xlink">
<g id="graph0" class="graph" transform="scale(1 1) rotate(0) translate(4 263.5)">
<title>mutt_read_mime_header</title>
<polygon fill="#ffffff" stroke="transparent" points="-4,4 -4,-263.5 461,-263.5 461,4 -4,4"/>
<!-- Node5856 -->
<g id="node1" class="node">
<title>Node5856</title>
<polygon fill="#bfbfbf" stroke="#000000" points="0,-126 0,-145 140,-145 140,-126 0,-126"/>
<text text-anchor="middle" x="70" y="-133" font-family="Helvetica,sans-Serif" font-size="10.00" fill="#000000">mutt_read_mime_header</text>
</g>
<!-- Node5857 -->
<g id="node2" class="node">
<title>Node5857</title>
<g id="a_node2"><a xlink:href="parse_8c.html#aa9d682d64619becd7ca5e03de02f6f18" target="_top" xlink:title="Parse a MIME part. ">
<polygon fill="#ffffff" stroke="#ff0000" points="217.5,-240 217.5,-259 285.5,-259 285.5,-240 217.5,-240"/>
<text text-anchor="middle" x="251.5" y="-247" font-family="Helvetica,sans-Serif" font-size="10.00" fill="#000000">parse_part</text>
</a>
</g>
</g>
<!-- Node5856&#45;&gt;Node5857 -->
<g id="edge1" class="edge">
<title>Node5856&#45;&gt;Node5857</title>
<path fill="none" stroke="#191970" d="M85.8233,-152.545C105.2884,-172.5953 140.1782,-205.6569 176,-225.5 188.7532,-232.5645 203.8895,-237.8935 217.2489,-241.713"/>
<polygon fill="#191970" stroke="#191970" points="88.1277,-149.8898 78.6941,-145.0671 83.0612,-154.72 88.1277,-149.8898"/>
</g>
<!-- Node5858 -->
<g id="node3" class="node">
<title>Node5858</title>
<g id="a_node3"><a xlink:href="parse_8c.html#ac20b6c54dff7929453167e30d9dcc1a3" target="_top" xlink:title="Parse a multipart structure. ">
<polygon fill="#ffffff" stroke="#ff0000" points="363,-240 363,-259 457,-259 457,-240 363,-240"/>
<text text-anchor="middle" x="410" y="-247" font-family="Helvetica,sans-Serif" font-size="10.00" fill="#000000">parse_multipart</text>
</a>
</g>
</g>
<!-- Node5856&#45;&gt;Node5858 -->
<g id="edge4" class="edge">
<title>Node5856&#45;&gt;Node5858</title>
<path fill="none" stroke="#191970" d="M93.4037,-150.3376C114.3517,-163.0619 146.2593,-181.0959 176,-192.5 193.8857,-199.3583 306.0668,-225.6047 368.3816,-239.9682"/>
<polygon fill="#191970" stroke="#191970" points="95.2159,-147.3432 84.8664,-145.0763 91.5433,-153.3025 95.2159,-147.3432"/>
</g>
<!-- Node6091 -->
<g id="node4" class="node">
<title>Node6091</title>
<g id="a_node4"><a xlink:href="mutt__attach_8h.html#acf4b24753bffc9e93f0ec9c157c850fe" target="_top" xlink:title="Create an attachment. ">
<polygon fill="#ffffff" stroke="#ff0000" points="176,-164 176,-183 327,-183 327,-164 176,-164"/>
<text text-anchor="middle" x="251.5" y="-171" font-family="Helvetica,sans-Serif" font-size="10.00" fill="#000000">mutt_compose_attachment</text>
</a>
</g>
</g>
<!-- Node5856&#45;&gt;Node6091 -->
<g id="edge5" class="edge">
<title>Node5856&#45;&gt;Node6091</title>
<path fill="none" stroke="#191970" d="M125.7921,-147.181C151.5312,-152.5699 181.6992,-158.8861 206.0292,-163.9799"/>
<polygon fill="#191970" stroke="#191970" points="126.3052,-143.7126 115.8001,-145.089 124.8706,-150.564 126.3052,-143.7126"/>
</g>
<!-- Node6325 -->
<g id="node5" class="node">
<title>Node6325</title>
<g id="a_node5"><a xlink:href="crypt__gpgme_8c.html#a06057059d161b58e6b17c6b00fe54ab6" target="_top" xlink:title="Decrypt a PGP or SMIME message. ">
<polygon fill="#ffffff" stroke="#ff0000" points="212.5,-126 212.5,-145 290.5,-145 290.5,-126 212.5,-126"/>
<text text-anchor="middle" x="251.5" y="-133" font-family="Helvetica,sans-Serif" font-size="10.00" fill="#000000">decrypt_part</text>
</a>
</g>
</g>
<!-- Node5856&#45;&gt;Node6325 -->
<g id="edge6" class="edge">
<title>Node5856&#45;&gt;Node6325</title>
<path fill="none" stroke="#191970" d="M150.3368,-135.5C171.8972,-135.5 194.2522,-135.5 212.447,-135.5"/>
<polygon fill="#191970" stroke="#191970" points="150.1727,-132.0001 140.1726,-135.5 150.1726,-139.0001 150.1727,-132.0001"/>
</g>
<!-- Node6331 -->
<g id="node6" class="node">
<title>Node6331</title>
<g id="a_node6"><a xlink:href="pgp_8c.html#a39d7425b036c2afebde9f8d0a18c3e77" target="_top" xlink:title="Decrypt part of a PGP message. ">
<polygon fill="#ffffff" stroke="#ff0000" points="201,-88 201,-107 302,-107 302,-88 201,-88"/>
<text text-anchor="middle" x="251.5" y="-95" font-family="Helvetica,sans-Serif" font-size="10.00" fill="#000000">pgp_decrypt_part</text>
</a>
</g>
</g>
<!-- Node5856&#45;&gt;Node6331 -->
<g id="edge7" class="edge">
<title>Node5856&#45;&gt;Node6331</title>
<path fill="none" stroke="#191970" d="M125.7921,-123.819C151.5312,-118.4301 181.6992,-112.1139 206.0292,-107.0201"/>
<polygon fill="#191970" stroke="#191970" points="124.8706,-120.436 115.8001,-125.911 126.3052,-127.2874 124.8706,-120.436"/>
</g>
<!-- Node6116 -->
<g id="node7" class="node">
<title>Node6116</title>
<g id="a_node7"><a xlink:href="smime_8c.html#a1b5e1a7594fd2e9fa6ad41a5dc07a656" target="_top" xlink:title="Handle type application/pkcs7&#45;mime. ">
<polygon fill="#ffffff" stroke="#ff0000" points="190.5,-50 190.5,-69 312.5,-69 312.5,-50 190.5,-50"/>
<text text-anchor="middle" x="251.5" y="-57" font-family="Helvetica,sans-Serif" font-size="10.00" fill="#000000">smime_handle_entity</text>
</a>
</g>
</g>
<!-- Node5856&#45;&gt;Node6116 -->
<g id="edge8" class="edge">
<title>Node5856&#45;&gt;Node6116</title>
<path fill="none" stroke="#191970" d="M93.4251,-120.7178C114.387,-108.0294 146.3028,-90.017 176,-78.5 185.4514,-74.8346 195.8451,-71.6861 205.8177,-69.0663"/>
<polygon fill="#191970" stroke="#191970" points="91.5726,-117.7481 84.8814,-125.9627 95.2348,-123.7137 91.5726,-117.7481"/>
</g>
<!-- Node6334 -->
<g id="node8" class="node">
<title>Node6334</title>
<g id="a_node8"><a xlink:href="mutt__read__mime__header_8c.html#a227799f3318b055278f41dc5aeb133a3" target="_top" xlink:title="test_mutt_read_mime\l_header">
<polygon fill="#ffffff" stroke="#000000" points="189,-.5 189,-30.5 314,-30.5 314,-.5 189,-.5"/>
<text text-anchor="start" x="197" y="-18.5" font-family="Helvetica,sans-Serif" font-size="10.00" fill="#000000">test_mutt_read_mime</text>
<text text-anchor="middle" x="251.5" y="-7.5" font-family="Helvetica,sans-Serif" font-size="10.00" fill="#000000">_header</text>
</a>
</g>
</g>
<!-- Node5856&#45;&gt;Node6334 -->
<g id="edge9" class="edge">
<title>Node5856&#45;&gt;Node6334</title>
<path fill="none" stroke="#191970" d="M85.1161,-118.1412C104.3169,-97.0677 139.3819,-61.7219 176,-40.5 182.451,-36.7613 189.5398,-33.4876 196.7104,-30.6489"/>
<polygon fill="#191970" stroke="#191970" points="82.4015,-115.9262 78.3419,-125.7124 87.6182,-120.5938 82.4015,-115.9262"/>
</g>
<!-- Node5857&#45;&gt;Node5858 -->
<g id="edge2" class="edge">
<title>Node5857&#45;&gt;Node5858</title>
<path fill="none" stroke="#191970" d="M295.707,-243.3745C316.6022,-242.5791 341.5672,-242.5435 362.827,-243.2676"/>
<polygon fill="#191970" stroke="#191970" points="295.3313,-239.888 285.5022,-243.8427 295.6522,-246.8806 295.3313,-239.888"/>
</g>
<!-- Node5858&#45;&gt;Node5857 -->
<g id="edge3" class="edge">
<title>Node5858&#45;&gt;Node5857</title>
<path fill="none" stroke="#191970" d="M352.6863,-256.0147C330.159,-256.5096 305.0647,-256.2238 285.5022,-255.1573"/>
<polygon fill="#191970" stroke="#191970" points="352.9283,-259.5094 362.827,-255.7324 352.7335,-252.5121 352.9283,-259.5094"/>
</g>
</g>
</svg>
