<?xml version="1.0" encoding="UTF-8" standalone="no"?>
<!DOCTYPE svg PUBLIC "-//W3C//DTD SVG 1.1//EN"
 "http://www.w3.org/Graphics/SVG/1.1/DTD/svg11.dtd">
<!-- Generated by graphviz version 7.1.0 (0)
 -->
<!-- Title: mutt_path_parent Pages: 1 -->
<svg width="253pt" height="138pt"
 viewBox="0.00 0.00 253.00 138.00" xmlns="http://www.w3.org/2000/svg" xmlns:xlink="http://www.w3.org/1999/xlink">
<g id="graph0" class="graph" transform="scale(1 1) rotate(0) translate(4 134)">
<title>mutt_path_parent</title>
<!-- Node1 -->
<g id="node1" class="node">
<title>Node1</title>
<g id="a_node1"><a xlink:title="Find the parent of a path.">
<polygon fill="#999999" stroke="#666666" points="245,-74 145,-74 145,-55 245,-55 245,-74"/>
<text text-anchor="middle" x="195" y="-62" font-family="Helvetica,sans-Serif" font-size="10.00">mutt_path_parent</text>
</a>
</g>
</g>
<!-- Node2 -->
<g id="node2" class="node">
<title>Node2</title>
<g id="a_node2"><a xlink:href="group__mx__path__parent.html#ga9309bebe148d6b487f8e5ebb10ea22ca" target="_top" xlink:title="Find the parent of a Mailbox path &#45; Implements MxOps::path_parent() &#45;.">
<polygon fill="white" stroke="#666666" points="106,-130 3,-130 3,-111 106,-111 106,-130"/>
<text text-anchor="middle" x="54.5" y="-118" font-family="Helvetica,sans-Serif" font-size="10.00">comp_path_parent</text>
</a>
</g>
</g>
<!-- Node1&#45;&gt;Node2 -->
<g id="edge1" class="edge">
<title>Node1&#45;&gt;Node2</title>
<path fill="none" stroke="#63b8ff" d="M162.92,-79.26C146.96,-86.61 127.1,-95.43 109,-102.5 101.88,-105.28 94.13,-108.04 86.8,-110.53"/>
<polygon fill="#63b8ff" stroke="#63b8ff" points="164.32,-82.47 171.91,-75.07 161.36,-76.12 164.32,-82.47"/>
</g>
<!-- Node3 -->
<g id="node3" class="node">
<title>Node3</title>
<g id="a_node3"><a xlink:href="group__mx__path__parent.html#ga4ebedc0d534ec93eaa4a6a7cd0e984a2" target="_top" xlink:title="Find the parent of a Mailbox path &#45; Implements MxOps::path_parent() &#45;.">
<polygon fill="white" stroke="#666666" points="109,-93 0,-93 0,-74 109,-74 109,-93"/>
<text text-anchor="middle" x="54.5" y="-81" font-family="Helvetica,sans-Serif" font-size="10.00">maildir_path_parent</text>
</a>
</g>
</g>
<!-- Node1&#45;&gt;Node3 -->
<g id="edge2" class="edge">
<title>Node1&#45;&gt;Node3</title>
<path fill="none" stroke="#63b8ff" d="M133.52,-72.8C125.45,-73.9 117.21,-75.03 109.26,-76.12"/>
<polygon fill="#63b8ff" stroke="#63b8ff" points="133.85,-76.28 143.28,-71.46 132.9,-69.35 133.85,-76.28"/>
</g>
<!-- Node4 -->
<g id="node4" class="node">
<title>Node4</title>
<g id="a_node4"><a xlink:href="group__mx__path__parent.html#ga23f72254a5a40b62c5903fcee3701a59" target="_top" xlink:title="Find the parent of a Mailbox path &#45; Implements MxOps::path_parent() &#45;.">
<polygon fill="white" stroke="#666666" points="106.5,-56 2.5,-56 2.5,-37 106.5,-37 106.5,-56"/>
<text text-anchor="middle" x="54.5" y="-44" font-family="Helvetica,sans-Serif" font-size="10.00">mbox_path_parent</text>
</a>
</g>
</g>
<!-- Node1&#45;&gt;Node4 -->
<g id="edge3" class="edge">
<title>Node1&#45;&gt;Node4</title>
<path fill="none" stroke="#63b8ff" d="M133.64,-56.66C124.73,-55.5 115.61,-54.31 106.9,-53.18"/>
<polygon fill="#63b8ff" stroke="#63b8ff" points="132.91,-60.09 143.28,-57.91 133.81,-53.15 132.91,-60.09"/>
</g>
<!-- Node5 -->
<g id="node5" class="node">
<title>Node5</title>
<g id="a_node5"><a xlink:href="group__mx__path__parent.html#ga22ba7ae7af695ced6a032b4f7ed032a2" target="_top" xlink:title="Find the parent of a Mailbox path &#45; Implements MxOps::path_parent() &#45;.">
<polygon fill="white" stroke="#666666" points="100.5,-19 8.5,-19 8.5,0 100.5,0 100.5,-19"/>
<text text-anchor="middle" x="54.5" y="-7" font-family="Helvetica,sans-Serif" font-size="10.00">mh_path_parent</text>
</a>
</g>
</g>
<!-- Node1&#45;&gt;Node5 -->
<g id="edge4" class="edge">
<title>Node1&#45;&gt;Node5</title>
<path fill="none" stroke="#63b8ff" d="M161.16,-50.05C145.46,-43.29 126.35,-35.25 109,-28.5 101.1,-25.43 92.47,-22.27 84.49,-19.44"/>
<polygon fill="#63b8ff" stroke="#63b8ff" points="159.47,-53.13 170.03,-53.9 162.25,-46.71 159.47,-53.13"/>
</g>
</g>
</svg>
