<?xml version="1.0" encoding="UTF-8" standalone="no"?>
<!DOCTYPE svg PUBLIC "-//W3C//DTD SVG 1.1//EN"
 "http://www.w3.org/Graphics/SVG/1.1/DTD/svg11.dtd">
<!-- Generated by graphviz version 12.2.1 (20241206.2353)
 -->
<!-- Title: mutt_is_predicate_recipient Pages: 1 -->
<svg width="299pt" height="84pt"
 viewBox="0.00 0.00 298.75 84.38" xmlns="http://www.w3.org/2000/svg" xmlns:xlink="http://www.w3.org/1999/xlink">
<g id="graph0" class="graph" transform="scale(1 1) rotate(0) translate(4 80.38)">
<title>mutt_is_predicate_recipient</title>
<!-- Node1 -->
<g id="Node000001" class="node">
<title>Node1</title>
<g id="a_Node000001"><a xlink:title="Test an Envelopes Addresses using a predicate function.">
<polygon fill="#999999" stroke="#666666" points="290.75,-52.38 148,-52.38 148,-30.12 290.75,-30.12 290.75,-52.38"/>
<text text-anchor="middle" x="219.38" y="-38.88" font-family="Helvetica,sans-Serif" font-size="10.00">mutt_is_predicate_recipient</text>
</a>
</g>
</g>
<!-- Node2 -->
<g id="Node000002" class="node">
<title>Node2</title>
<g id="a_Node000002"><a xlink:href="pattern_2exec_8c.html#aca4f25244d007a70ef8d0650f8b77b86" target="_top" xlink:title="Matches known mailing lists.">
<polygon fill="#fff0f0" stroke="red" points="112,-76.38 0,-76.38 0,-54.12 112,-54.12 112,-76.38"/>
<text text-anchor="middle" x="56" y="-62.88" font-family="Helvetica,sans-Serif" font-size="10.00">mutt_is_list_recipient</text>
</a>
</g>
</g>
<!-- Node1&#45;&gt;Node2 -->
<g id="edge1_Node000001_Node000002" class="edge">
<title>Node1&#45;&gt;Node2</title>
<g id="a_edge1_Node000001_Node000002"><a xlink:title=" ">
<path fill="none" stroke="#63b8ff" d="M136.43,-53.44C128.22,-54.66 120.03,-55.88 112.2,-57.04"/>
<polygon fill="#63b8ff" stroke="#63b8ff" points="136.72,-56.93 146.1,-52 135.69,-50.01 136.72,-56.93"/>
</a>
</g>
</g>
<!-- Node772 -->
<g id="Node000772" class="node">
<title>Node772</title>
<g id="a_Node000772"><a xlink:href="pattern_2exec_8c.html#a94da23f412141f03a53ef13461c3e40a" target="_top" xlink:title="Matches subscribed mailing lists.">
<polygon fill="#fff0f0" stroke="red" points="108.25,-36.5 3.75,-36.5 3.75,0 108.25,0 108.25,-36.5"/>
<text text-anchor="start" x="11.75" y="-23" font-family="Helvetica,sans-Serif" font-size="10.00">mutt_is_subscribed</text>
<text text-anchor="middle" x="56" y="-8.75" font-family="Helvetica,sans-Serif" font-size="10.00">_list_recipient</text>
</a>
</g>
</g>
<!-- Node1&#45;&gt;Node772 -->
<g id="edge2_Node000001_Node000772" class="edge">
<title>Node1&#45;&gt;Node772</title>
<g id="a_edge2_Node000001_Node000772"><a xlink:title=" ">
<path fill="none" stroke="#63b8ff" d="M136.39,-29.57C126.83,-28.2 117.3,-26.84 108.33,-25.57"/>
<polygon fill="#63b8ff" stroke="#63b8ff" points="135.7,-33 146.1,-30.95 136.69,-26.07 135.7,-33"/>
</a>
</g>
</g>
</g>
</svg>
