<?xml version="1.0" encoding="UTF-8" standalone="no"?>
<!DOCTYPE svg PUBLIC "-//W3C//DTD SVG 1.1//EN"
 "http://www.w3.org/Graphics/SVG/1.1/DTD/svg11.dtd">
<!-- Generated by graphviz version 12.2.1 (20241206.2353)
 -->
<!-- Title: pattern/pattern_data.h Pages: 1 -->
<svg width="427pt" height="147pt"
 viewBox="0.00 0.00 426.95 146.75" xmlns="http://www.w3.org/2000/svg" xmlns:xlink="http://www.w3.org/1999/xlink">
<g id="graph0" class="graph" transform="scale(1 1) rotate(0) translate(4 142.75)">
<title>pattern/pattern_data.h</title>
<!-- Node1 -->
<g id="Node000001" class="node">
<title>Node1</title>
<g id="a_Node000001"><a xlink:title="Private Pattern Data.">
<polygon fill="#999999" stroke="#666666" points="249.7,-138.75 125.7,-138.75 125.7,-116.5 249.7,-116.5 249.7,-138.75"/>
<text text-anchor="middle" x="187.7" y="-125.25" font-family="Helvetica,sans-Serif" font-size="10.00">pattern/pattern_data.h</text>
</a>
</g>
</g>
<!-- Node2 -->
<g id="Node000002" class="node">
<title>Node2</title>
<g id="a_Node000002"><a xlink:href="dlg__pattern_8c.html" target="_top" xlink:title="Pattern Selection Dialog.">
<polygon fill="white" stroke="#666666" points="120.95,-22.25 4.45,-22.25 4.45,0 120.95,0 120.95,-22.25"/>
<text text-anchor="middle" x="62.7" y="-8.75" font-family="Helvetica,sans-Serif" font-size="10.00">pattern/dlg_pattern.c</text>
</a>
</g>
</g>
<!-- Node1&#45;&gt;Node2 -->
<g id="edge1_Node000001_Node000002" class="edge">
<title>Node1&#45;&gt;Node2</title>
<g id="a_edge1_Node000001_Node000002"><a xlink:title=" ">
<path fill="none" stroke="#63b8ff" d="M114.22,-117.38C69.51,-110.07 18.44,-98.13 4.7,-80.5 -11.76,-59.38 20.08,-35.77 42.75,-22.56"/>
<polygon fill="#63b8ff" stroke="#63b8ff" points="113.51,-120.81 123.93,-118.9 114.59,-113.89 113.51,-120.81"/>
</a>
</g>
</g>
<!-- Node3 -->
<g id="Node000003" class="node">
<title>Node3</title>
<g id="a_Node000003"><a xlink:href="pattern_2expando_8c.html" target="_top" xlink:title="Pattern Expando definitions.">
<polygon fill="white" stroke="#666666" points="115.82,-80.5 13.57,-80.5 13.57,-58.25 115.82,-58.25 115.82,-80.5"/>
<text text-anchor="middle" x="64.7" y="-67" font-family="Helvetica,sans-Serif" font-size="10.00">pattern/expando.c</text>
</a>
</g>
</g>
<!-- Node1&#45;&gt;Node3 -->
<g id="edge2_Node000001_Node000003" class="edge">
<title>Node1&#45;&gt;Node3</title>
<g id="a_edge2_Node000001_Node000003"><a xlink:title=" ">
<path fill="none" stroke="#63b8ff" d="M154.12,-111.27C133.05,-101.63 106.43,-89.46 87.73,-80.91"/>
<polygon fill="#63b8ff" stroke="#63b8ff" points="152.64,-114.44 163.19,-115.42 155.55,-108.07 152.64,-114.44"/>
</a>
</g>
</g>
<!-- Node4 -->
<g id="Node000004" class="node">
<title>Node4</title>
<g id="a_Node000004"><a xlink:href="pattern_2functions_8c.html" target="_top" xlink:title="Pattern functions.">
<polygon fill="white" stroke="#666666" points="280.32,-22.25 175.07,-22.25 175.07,0 280.32,0 280.32,-22.25"/>
<text text-anchor="middle" x="227.7" y="-8.75" font-family="Helvetica,sans-Serif" font-size="10.00">pattern/functions.c</text>
</a>
</g>
</g>
<!-- Node1&#45;&gt;Node4 -->
<g id="edge3_Node000001_Node000004" class="edge">
<title>Node1&#45;&gt;Node4</title>
<g id="a_edge3_Node000001_Node000004"><a xlink:title=" ">
<path fill="none" stroke="#63b8ff" d="M220.81,-110.26C232.11,-102.85 243.46,-92.92 249.7,-80.5 259.44,-61.11 245.77,-36.49 236.02,-22.71"/>
<polygon fill="#63b8ff" stroke="#63b8ff" points="219.1,-107.21 212.32,-115.35 222.69,-113.21 219.1,-107.21"/>
</a>
</g>
</g>
<!-- Node5 -->
<g id="Node000005" class="node">
<title>Node5</title>
<g id="a_Node000005"><a xlink:href="pattern_2functions_8h.html" target="_top" xlink:title="Pattern functions.">
<polygon fill="white" stroke="#666666" points="241.07,-80.5 134.32,-80.5 134.32,-58.25 241.07,-58.25 241.07,-80.5"/>
<text text-anchor="middle" x="187.7" y="-67" font-family="Helvetica,sans-Serif" font-size="10.00">pattern/functions.h</text>
</a>
</g>
</g>
<!-- Node1&#45;&gt;Node5 -->
<g id="edge4_Node000001_Node000005" class="edge">
<title>Node1&#45;&gt;Node5</title>
<g id="a_edge4_Node000001_Node000005"><a xlink:title=" ">
<path fill="none" stroke="#63b8ff" d="M187.7,-104.6C187.7,-96.45 187.7,-87.58 187.7,-80.91"/>
<polygon fill="#63b8ff" stroke="#63b8ff" points="184.2,-104.53 187.7,-114.53 191.2,-104.53 184.2,-104.53"/>
</a>
</g>
</g>
<!-- Node6 -->
<g id="Node000006" class="node">
<title>Node6</title>
<g id="a_Node000006"><a xlink:href="pattern__data_8c.html" target="_top" xlink:title="Private Pattern Data.">
<polygon fill="white" stroke="#666666" points="418.95,-80.5 296.45,-80.5 296.45,-58.25 418.95,-58.25 418.95,-80.5"/>
<text text-anchor="middle" x="357.7" y="-67" font-family="Helvetica,sans-Serif" font-size="10.00">pattern/pattern_data.c</text>
</a>
</g>
</g>
<!-- Node1&#45;&gt;Node6 -->
<g id="edge7_Node000001_Node000006" class="edge">
<title>Node1&#45;&gt;Node6</title>
<g id="a_edge7_Node000001_Node000006"><a xlink:title=" ">
<path fill="none" stroke="#63b8ff" d="M230.54,-112.45C260.17,-102.64 298.96,-89.81 325.87,-80.91"/>
<polygon fill="#63b8ff" stroke="#63b8ff" points="229.5,-109.11 221.11,-115.57 231.7,-115.75 229.5,-109.11"/>
</a>
</g>
</g>
<!-- Node5&#45;&gt;Node2 -->
<g id="edge5_Node000005_Node000002" class="edge">
<title>Node5&#45;&gt;Node2</title>
<g id="a_edge5_Node000005_Node000002"><a xlink:title=" ">
<path fill="none" stroke="#63b8ff" d="M153.87,-53.15C132.41,-43.5 105.19,-31.25 86.1,-22.66"/>
<polygon fill="#63b8ff" stroke="#63b8ff" points="152.25,-56.26 162.81,-57.17 155.12,-49.88 152.25,-56.26"/>
</a>
</g>
</g>
<!-- Node5&#45;&gt;Node4 -->
<g id="edge6_Node000005_Node000004" class="edge">
<title>Node5&#45;&gt;Node4</title>
<g id="a_edge6_Node000005_Node000004"><a xlink:title=" ">
<path fill="none" stroke="#63b8ff" d="M201.74,-48.63C207.96,-39.89 215.02,-29.95 220.21,-22.66"/>
<polygon fill="#63b8ff" stroke="#63b8ff" points="199.04,-46.38 196.1,-56.56 204.75,-50.44 199.04,-46.38"/>
</a>
</g>
</g>
</g>
</svg>
