<?xml version="1.0" encoding="UTF-8" standalone="no"?>
<!DOCTYPE svg PUBLIC "-//W3C//DTD SVG 1.1//EN"
 "http://www.w3.org/Graphics/SVG/1.1/DTD/svg11.dtd">
<!-- Generated by graphviz version 7.1.0 (0)
 -->
<!-- Title: pattern/flags.c Pages: 1 -->
<svg width="268pt" height="247pt"
 viewBox="0.00 0.00 268.44 247.00" xmlns="http://www.w3.org/2000/svg" xmlns:xlink="http://www.w3.org/1999/xlink">
<g id="graph0" class="graph" transform="scale(1 1) rotate(0) translate(4 243)">
<title>pattern/flags.c</title>
<!-- Node1 -->
<g id="node1" class="node">
<title>Node1</title>
<g id="a_node1"><a xlink:title="Pattern definitions.">
<polygon fill="#999999" stroke="#666666" points="197.5,-239 112.5,-239 112.5,-220 197.5,-220 197.5,-239"/>
<text text-anchor="middle" x="155" y="-227" font-family="Helvetica,sans-Serif" font-size="10.00">pattern/flags.c</text>
</a>
</g>
</g>
<!-- Node2 -->
<g id="node2" class="node">
<title>Node2</title>
<g id="a_node2"><a xlink:title=" ">
<polygon fill="#e0e0e0" stroke="#999999" points="143,-19 89,-19 89,0 143,0 143,-19"/>
<text text-anchor="middle" x="116" y="-7" font-family="Helvetica,sans-Serif" font-size="10.00">config.h</text>
</a>
</g>
</g>
<!-- Node1&#45;&gt;Node2 -->
<g id="edge1" class="edge">
<title>Node1&#45;&gt;Node2</title>
<path fill="none" stroke="#63b8ff" d="M166.61,-219.74C199.99,-193.49 291.23,-113.66 249,-55 227.68,-25.39 185.75,-15.2 154.64,-11.83"/>
<polygon fill="#63b8ff" stroke="#63b8ff" points="155.08,-8.36 144.82,-10.98 154.48,-15.33 155.08,-8.36"/>
</g>
<!-- Node3 -->
<g id="node3" class="node">
<title>Node3</title>
<g id="a_node3"><a xlink:title=" ">
<polygon fill="#e0e0e0" stroke="#999999" points="239.5,-74 184.5,-74 184.5,-55 239.5,-55 239.5,-74"/>
<text text-anchor="middle" x="212" y="-62" font-family="Helvetica,sans-Serif" font-size="10.00">stddef.h</text>
</a>
</g>
</g>
<!-- Node1&#45;&gt;Node3 -->
<g id="edge2" class="edge">
<title>Node1&#45;&gt;Node3</title>
<path fill="none" stroke="#63b8ff" d="M158.22,-219.65C161.47,-210.67 166.63,-196.39 171,-184 183.27,-149.21 197.26,-108.55 205.32,-85.04"/>
<polygon fill="#63b8ff" stroke="#63b8ff" points="208.53,-86.46 208.46,-75.86 201.91,-84.19 208.53,-86.46"/>
</g>
<!-- Node4 -->
<g id="node4" class="node">
<title>Node4</title>
<g id="a_node4"><a xlink:href="pattern_2private_8h.html" target="_top" xlink:title="Shared constants/structs that are private to libpattern.">
<polygon fill="#fff0f0" stroke="red" points="107.5,-184 48.5,-184 48.5,-165 107.5,-165 107.5,-184"/>
<text text-anchor="middle" x="78" y="-172" font-family="Helvetica,sans-Serif" font-size="10.00">private.h</text>
</a>
</g>
</g>
<!-- Node1&#45;&gt;Node4 -->
<g id="edge3" class="edge">
<title>Node1&#45;&gt;Node4</title>
<path fill="none" stroke="#63b8ff" d="M141.94,-219.51C130.48,-211.62 113.57,-199.98 100.02,-190.65"/>
<polygon fill="#63b8ff" stroke="#63b8ff" points="102.34,-188 92.12,-185.22 98.37,-193.77 102.34,-188"/>
</g>
<!-- Node6 -->
<g id="node5" class="node">
<title>Node6</title>
<g id="a_node5"><a xlink:href="mutt_2lib_8h.html" target="_top" xlink:title="Convenience wrapper for the library headers.">
<polygon fill="#fff0f0" stroke="red" points="62,-74 0,-74 0,-55 62,-55 62,-74"/>
<text text-anchor="middle" x="31" y="-62" font-family="Helvetica,sans-Serif" font-size="10.00">mutt/lib.h</text>
</a>
</g>
</g>
<!-- Node1&#45;&gt;Node6 -->
<g id="edge12" class="edge">
<title>Node1&#45;&gt;Node6</title>
<path fill="none" stroke="#63b8ff" d="M112.2,-223.54C86.68,-218.19 56.04,-207.08 39,-184 17.73,-155.19 21.64,-110.94 26.35,-85.45"/>
<polygon fill="#63b8ff" stroke="#63b8ff" points="29.75,-86.29 28.38,-75.79 22.9,-84.85 29.75,-86.29"/>
</g>
<!-- Node55 -->
<g id="node6" class="node">
<title>Node55</title>
<g id="a_node6"><a xlink:href="pattern_2lib_8h.html" target="_top" xlink:title="Match patterns to emails.">
<polygon fill="#fff0f0" stroke="red" points="144,-129 108,-129 108,-110 144,-110 144,-129"/>
<text text-anchor="middle" x="126" y="-117" font-family="Helvetica,sans-Serif" font-size="10.00">lib.h</text>
</a>
</g>
</g>
<!-- Node1&#45;&gt;Node55 -->
<g id="edge14" class="edge">
<title>Node1&#45;&gt;Node55</title>
<path fill="none" stroke="#63b8ff" d="M152.63,-219.66C148,-202.42 137.65,-163.9 131.31,-140.27"/>
<polygon fill="#63b8ff" stroke="#63b8ff" points="134.77,-139.67 128.8,-130.92 128.01,-141.49 134.77,-139.67"/>
</g>
<!-- Node56 -->
<g id="node7" class="node">
<title>Node56</title>
<g id="a_node7"><a xlink:href="mutt_8h.html" target="_top" xlink:title="Many unsorted constants and some structs.">
<polygon fill="#fff0f0" stroke="red" points="166,-74 118,-74 118,-55 166,-55 166,-74"/>
<text text-anchor="middle" x="142" y="-62" font-family="Helvetica,sans-Serif" font-size="10.00">mutt.h</text>
</a>
</g>
</g>
<!-- Node1&#45;&gt;Node56 -->
<g id="edge13" class="edge">
<title>Node1&#45;&gt;Node56</title>
<path fill="none" stroke="#63b8ff" d="M155.59,-219.52C156.74,-199.66 158.69,-150.55 153,-110 151.85,-101.82 149.83,-92.97 147.83,-85.32"/>
<polygon fill="#63b8ff" stroke="#63b8ff" points="151.21,-84.41 145.14,-75.72 144.46,-86.29 151.21,-84.41"/>
</g>
<!-- Node4&#45;&gt;Node6 -->
<g id="edge4" class="edge">
<title>Node4&#45;&gt;Node6</title>
<path fill="none" stroke="#63b8ff" d="M74.15,-164.66C66.61,-147.34 49.73,-108.55 39.46,-84.95"/>
<polygon fill="#63b8ff" stroke="#63b8ff" points="42.7,-83.62 35.5,-75.85 36.28,-86.41 42.7,-83.62"/>
</g>
<!-- Node4&#45;&gt;Node55 -->
<g id="edge6" class="edge">
<title>Node4&#45;&gt;Node55</title>
<path fill="none" stroke="#63b8ff" d="M85.93,-164.75C92.56,-157.43 102.22,-146.76 110.39,-137.74"/>
<polygon fill="#63b8ff" stroke="#63b8ff" points="112.77,-140.33 116.89,-130.56 107.58,-135.63 112.77,-140.33"/>
</g>
<!-- Node6&#45;&gt;Node2 -->
<g id="edge5" class="edge">
<title>Node6&#45;&gt;Node2</title>
<path fill="none" stroke="#63b8ff" d="M45.42,-54.51C58.2,-46.54 77.1,-34.75 92.13,-25.38"/>
<polygon fill="#63b8ff" stroke="#63b8ff" points="93.88,-28.42 100.51,-20.16 90.17,-22.48 93.88,-28.42"/>
</g>
<!-- Node55&#45;&gt;Node2 -->
<g id="edge7" class="edge">
<title>Node55&#45;&gt;Node2</title>
<path fill="none" stroke="#63b8ff" d="M121.48,-109.58C117.29,-100.79 111.37,-86.85 109,-74 106.31,-59.44 108.33,-42.8 110.88,-30.2"/>
<polygon fill="#63b8ff" stroke="#63b8ff" points="114.24,-31.19 113.11,-20.66 107.43,-29.6 114.24,-31.19"/>
</g>
<!-- Node55&#45;&gt;Node3 -->
<g id="edge8" class="edge">
<title>Node55&#45;&gt;Node3</title>
<path fill="none" stroke="#63b8ff" d="M140.59,-109.51C153.52,-101.54 172.64,-89.75 187.85,-80.38"/>
<polygon fill="#63b8ff" stroke="#63b8ff" points="189.66,-83.38 196.34,-75.15 185.99,-77.42 189.66,-83.38"/>
</g>
<!-- Node55&#45;&gt;Node6 -->
<g id="edge9" class="edge">
<title>Node55&#45;&gt;Node6</title>
<path fill="none" stroke="#63b8ff" d="M109.88,-109.51C95.33,-101.39 73.66,-89.3 56.71,-79.85"/>
<polygon fill="#63b8ff" stroke="#63b8ff" points="58.64,-76.91 48.2,-75.1 55.23,-83.02 58.64,-76.91"/>
</g>
<!-- Node55&#45;&gt;Node56 -->
<g id="edge10" class="edge">
<title>Node55&#45;&gt;Node56</title>
<path fill="none" stroke="#63b8ff" d="M128.64,-109.75C130.64,-103.11 133.48,-93.73 136.02,-85.31"/>
<polygon fill="#63b8ff" stroke="#63b8ff" points="139.32,-86.48 138.86,-75.89 132.62,-84.45 139.32,-86.48"/>
</g>
<!-- Node56&#45;&gt;Node2 -->
<g id="edge11" class="edge">
<title>Node56&#45;&gt;Node2</title>
<path fill="none" stroke="#63b8ff" d="M137.71,-54.75C134.38,-47.96 129.64,-38.3 125.44,-29.73"/>
<polygon fill="#63b8ff" stroke="#63b8ff" points="128.6,-28.24 121.05,-20.8 122.32,-31.32 128.6,-28.24"/>
</g>
</g>
</svg>
