<?xml version="1.0" encoding="UTF-8" standalone="no"?>
<!DOCTYPE svg PUBLIC "-//W3C//DTD SVG 1.1//EN"
 "http://www.w3.org/Graphics/SVG/1.1/DTD/svg11.dtd">
<!-- Generated by graphviz version 2.40.1 (20161225.0304)
 -->
<!-- Title: eat_message_range Pages: 1 -->
<svg width="420pt" height="47pt"
 viewBox="0.00 0.00 420.00 47.00" xmlns="http://www.w3.org/2000/svg" xmlns:xlink="http://www.w3.org/1999/xlink">
<g id="graph0" class="graph" transform="scale(1 1) rotate(0) translate(4 43)">
<title>eat_message_range</title>
<polygon fill="#ffffff" stroke="transparent" points="-4,4 -4,-43 416,-43 416,4 -4,4"/>
<!-- Node2769 -->
<g id="node1" class="node">
<title>Node2769</title>
<polygon fill="#bfbfbf" stroke="#000000" points="0,-19.5 0,-38.5 115,-38.5 115,-19.5 0,-19.5"/>
<text text-anchor="middle" x="57.5" y="-26.5" font-family="Helvetica,sans-Serif" font-size="10.00" fill="#000000">eat_message_range</text>
</g>
<!-- Node2770 -->
<g id="node2" class="node">
<title>Node2770</title>
<g id="a_node2"><a xlink:href="buffer_8c.html#a4bcc481586ae3af02645b4e23e48e0d7" target="_top" xlink:title="Copy a string into a Buffer. ">
<polygon fill="#ffffff" stroke="#ff0000" points="303,-19.5 303,-38.5 412,-38.5 412,-19.5 303,-19.5"/>
<text text-anchor="middle" x="357.5" y="-26.5" font-family="Helvetica,sans-Serif" font-size="10.00" fill="#000000">mutt_buffer_strcpy</text>
</a>
</g>
</g>
<!-- Node2769&#45;&gt;Node2770 -->
<g id="edge1" class="edge">
<title>Node2769&#45;&gt;Node2770</title>
<path fill="none" stroke="#191970" d="M115.343,-29C166.1038,-29 239.8531,-29 292.6094,-29"/>
<polygon fill="#191970" stroke="#191970" points="292.8678,-32.5001 302.8678,-29 292.8677,-25.5001 292.8678,-32.5001"/>
</g>
<!-- Node2778 -->
<g id="node3" class="node">
<title>Node2778</title>
<g id="a_node3"><a xlink:href="pattern_8c.html#a2a12b20dc51f879eeb72a289878da9b7" target="_top" xlink:title="Parse a range given as a regex. ">
<polygon fill="#ffffff" stroke="#ff0000" points="151,-.5 151,-19.5 267,-19.5 267,-.5 151,-.5"/>
<text text-anchor="middle" x="209" y="-7.5" font-family="Helvetica,sans-Serif" font-size="10.00" fill="#000000">eat_range_by_regex</text>
</a>
</g>
</g>
<!-- Node2769&#45;&gt;Node2778 -->
<g id="edge2" class="edge">
<title>Node2769&#45;&gt;Node2778</title>
<path fill="none" stroke="#191970" d="M115.2078,-21.7627C123.6222,-20.7074 132.3519,-19.6126 140.948,-18.5346"/>
<polygon fill="#191970" stroke="#191970" points="141.464,-21.9974 150.9508,-17.2801 140.5929,-15.0518 141.464,-21.9974"/>
</g>
<!-- Node2778&#45;&gt;Node2770 -->
<g id="edge3" class="edge">
<title>Node2778&#45;&gt;Node2770</title>
<path fill="none" stroke="#191970" d="M267.2649,-17.4548C275.5835,-18.5191 284.1831,-19.6194 292.6188,-20.6987"/>
<polygon fill="#191970" stroke="#191970" points="292.4339,-24.2035 302.7972,-22.001 293.3223,-17.2601 292.4339,-24.2035"/>
</g>
</g>
</svg>
