<?xml version="1.0" encoding="UTF-8" standalone="no"?>
<!DOCTYPE svg PUBLIC "-//W3C//DTD SVG 1.1//EN"
 "http://www.w3.org/Graphics/SVG/1.1/DTD/svg11.dtd">
<!-- Generated by graphviz version 7.1.0 (0)
 -->
<!-- Title: pattern/functions.c Pages: 1 -->
<svg width="530pt" height="247pt"
 viewBox="0.00 0.00 529.50 247.00" xmlns="http://www.w3.org/2000/svg" xmlns:xlink="http://www.w3.org/1999/xlink">
<g id="graph0" class="graph" transform="scale(1 1) rotate(0) translate(4 243)">
<title>pattern/functions.c</title>
<!-- Node1 -->
<g id="node1" class="node">
<title>Node1</title>
<g id="a_node1"><a xlink:title="Pattern functions.">
<polygon fill="#999999" stroke="#666666" points="310.5,-239 204.5,-239 204.5,-220 310.5,-220 310.5,-239"/>
<text text-anchor="middle" x="257.5" y="-227" font-family="Helvetica,sans-Serif" font-size="10.00">pattern/functions.c</text>
</a>
</g>
</g>
<!-- Node2 -->
<g id="node2" class="node">
<title>Node2</title>
<g id="a_node2"><a xlink:title=" ">
<polygon fill="#e0e0e0" stroke="#999999" points="121.5,-19 67.5,-19 67.5,0 121.5,0 121.5,-19"/>
<text text-anchor="middle" x="94.5" y="-7" font-family="Helvetica,sans-Serif" font-size="10.00">config.h</text>
</a>
</g>
</g>
<!-- Node1&#45;&gt;Node2 -->
<g id="edge1" class="edge">
<title>Node1&#45;&gt;Node2</title>
<path fill="none" stroke="#63b8ff" d="M259.34,-219.8C261.65,-207.5 264.91,-184.36 261.5,-165 252.21,-112.29 252.63,-90.41 212.5,-55 190.01,-35.15 157.79,-23.8 132.7,-17.54"/>
<polygon fill="#63b8ff" stroke="#63b8ff" points="133.74,-14.19 123.21,-15.35 132.17,-21.01 133.74,-14.19"/>
</g>
<!-- Node3 -->
<g id="node3" class="node">
<title>Node3</title>
<g id="a_node3"><a xlink:title=" ">
<polygon fill="#e0e0e0" stroke="#999999" points="203.5,-74 143.5,-74 143.5,-55 203.5,-55 203.5,-74"/>
<text text-anchor="middle" x="173.5" y="-62" font-family="Helvetica,sans-Serif" font-size="10.00">stdbool.h</text>
</a>
</g>
</g>
<!-- Node1&#45;&gt;Node3 -->
<g id="edge2" class="edge">
<title>Node1&#45;&gt;Node3</title>
<path fill="none" stroke="#63b8ff" d="M256.56,-219.81C254.01,-199.27 245.53,-146.71 222.5,-110 215.54,-98.9 205.06,-88.86 195.58,-81.14"/>
<polygon fill="#63b8ff" stroke="#63b8ff" points="197.86,-78.48 187.79,-75.16 193.59,-84.03 197.86,-78.48"/>
</g>
<!-- Node4 -->
<g id="node4" class="node">
<title>Node4</title>
<g id="a_node4"><a xlink:title=" ">
<polygon fill="#e0e0e0" stroke="#999999" points="371.5,-184 323.5,-184 323.5,-165 371.5,-165 371.5,-184"/>
<text text-anchor="middle" x="347.5" y="-172" font-family="Helvetica,sans-Serif" font-size="10.00">stdio.h</text>
</a>
</g>
</g>
<!-- Node1&#45;&gt;Node4 -->
<g id="edge3" class="edge">
<title>Node1&#45;&gt;Node4</title>
<path fill="none" stroke="#63b8ff" d="M272.77,-219.51C286.43,-211.47 306.7,-199.53 322.68,-190.11"/>
<polygon fill="#63b8ff" stroke="#63b8ff" points="324.31,-193.22 331.15,-185.13 320.76,-187.18 324.31,-193.22"/>
</g>
<!-- Node5 -->
<g id="node5" class="node">
<title>Node5</title>
<g id="a_node5"><a xlink:href="mutt_2lib_8h.html" target="_top" xlink:title="Convenience wrapper for the library headers.">
<polygon fill="#fff0f0" stroke="red" points="125.5,-74 63.5,-74 63.5,-55 125.5,-55 125.5,-74"/>
<text text-anchor="middle" x="94.5" y="-62" font-family="Helvetica,sans-Serif" font-size="10.00">mutt/lib.h</text>
</a>
</g>
</g>
<!-- Node1&#45;&gt;Node5 -->
<g id="edge4" class="edge">
<title>Node1&#45;&gt;Node5</title>
<path fill="none" stroke="#63b8ff" d="M204.19,-225.32C173.55,-220.62 136.83,-209.55 114.5,-184 90.54,-156.58 89.95,-111.48 92.01,-85.54"/>
<polygon fill="#63b8ff" stroke="#63b8ff" points="95.48,-86.03 93.02,-75.72 88.51,-85.31 95.48,-86.03"/>
</g>
<!-- Node54 -->
<g id="node6" class="node">
<title>Node54</title>
<g id="a_node6"><a xlink:href="core_2lib_8h.html" target="_top" xlink:title="Convenience wrapper for the core headers.">
<polygon fill="#fff0f0" stroke="red" points="449.5,-184 389.5,-184 389.5,-165 449.5,-165 449.5,-184"/>
<text text-anchor="middle" x="419.5" y="-172" font-family="Helvetica,sans-Serif" font-size="10.00">core/lib.h</text>
</a>
</g>
</g>
<!-- Node1&#45;&gt;Node54 -->
<g id="edge6" class="edge">
<title>Node1&#45;&gt;Node54</title>
<path fill="none" stroke="#63b8ff" d="M284.98,-219.51C311.48,-210.84 351.8,-197.65 381.39,-187.97"/>
<polygon fill="#63b8ff" stroke="#63b8ff" points="382.3,-191.35 390.72,-184.92 380.12,-184.7 382.3,-191.35"/>
</g>
<!-- Node64 -->
<g id="node7" class="node">
<title>Node64</title>
<g id="a_node7"><a xlink:href="gui_2lib_8h.html" target="_top" xlink:title="Convenience wrapper for the gui headers.">
<polygon fill="#fff0f0" stroke="red" points="521.5,-184 467.5,-184 467.5,-165 521.5,-165 521.5,-184"/>
<text text-anchor="middle" x="494.5" y="-172" font-family="Helvetica,sans-Serif" font-size="10.00">gui/lib.h</text>
</a>
</g>
</g>
<!-- Node1&#45;&gt;Node64 -->
<g id="edge7" class="edge">
<title>Node1&#45;&gt;Node64</title>
<path fill="none" stroke="#63b8ff" d="M298.73,-219.55C337.08,-211.18 396.11,-198.21 456.5,-184.43"/>
<polygon fill="#63b8ff" stroke="#63b8ff" points="456.94,-187.92 465.91,-182.28 455.38,-181.1 456.94,-187.92"/>
</g>
<!-- Node100 -->
<g id="node8" class="node">
<title>Node100</title>
<g id="a_node8"><a xlink:href="pattern_2functions_8h.html" target="_top" xlink:title="Pattern functions.">
<polygon fill="white" stroke="#666666" points="191.5,-184 123.5,-184 123.5,-165 191.5,-165 191.5,-184"/>
<text text-anchor="middle" x="157.5" y="-172" font-family="Helvetica,sans-Serif" font-size="10.00">functions.h</text>
</a>
</g>
</g>
<!-- Node1&#45;&gt;Node100 -->
<g id="edge8" class="edge">
<title>Node1&#45;&gt;Node100</title>
<path fill="none" stroke="#63b8ff" d="M240.54,-219.51C225.14,-211.35 202.19,-199.19 184.31,-189.71"/>
<polygon fill="#63b8ff" stroke="#63b8ff" points="186.03,-186.66 175.55,-185.07 182.75,-192.84 186.03,-186.66"/>
</g>
<!-- Node101 -->
<g id="node9" class="node">
<title>Node101</title>
<g id="a_node9"><a xlink:href="pattern__data_8h.html" target="_top" xlink:title="Private Pattern Data.">
<polygon fill="white" stroke="#666666" points="213.5,-129 127.5,-129 127.5,-110 213.5,-110 213.5,-129"/>
<text text-anchor="middle" x="170.5" y="-117" font-family="Helvetica,sans-Serif" font-size="10.00">pattern_data.h</text>
</a>
</g>
</g>
<!-- Node1&#45;&gt;Node101 -->
<g id="edge16" class="edge">
<title>Node1&#45;&gt;Node101</title>
<path fill="none" stroke="#63b8ff" d="M250.38,-219.66C236.11,-201.94 203.74,-161.77 184.88,-138.35"/>
<polygon fill="#63b8ff" stroke="#63b8ff" points="187.67,-136.23 178.67,-130.64 182.22,-140.62 187.67,-136.23"/>
</g>
<!-- Node68 -->
<g id="node10" class="node">
<title>Node68</title>
<g id="a_node10"><a xlink:href="menu_2lib_8h.html" target="_top" xlink:title="GUI present the user with a selectable list.">
<polygon fill="#fff0f0" stroke="red" points="67,-129 0,-129 0,-110 67,-110 67,-129"/>
<text text-anchor="middle" x="33.5" y="-117" font-family="Helvetica,sans-Serif" font-size="10.00">menu/lib.h</text>
</a>
</g>
</g>
<!-- Node1&#45;&gt;Node68 -->
<g id="edge12" class="edge">
<title>Node1&#45;&gt;Node68</title>
<path fill="none" stroke="#63b8ff" d="M204.09,-224.34C167.11,-219.33 118.14,-208.3 81.5,-184 64.61,-172.8 51.32,-153.6 43.05,-139.24"/>
<polygon fill="#63b8ff" stroke="#63b8ff" points="46.29,-137.86 38.45,-130.74 40.13,-141.2 46.29,-137.86"/>
</g>
<!-- Node5&#45;&gt;Node2 -->
<g id="edge5" class="edge">
<title>Node5&#45;&gt;Node2</title>
<path fill="none" stroke="#63b8ff" d="M94.5,-54.75C94.5,-48.27 94.5,-39.16 94.5,-30.9"/>
<polygon fill="#63b8ff" stroke="#63b8ff" points="98,-30.96 94.5,-20.96 91,-30.96 98,-30.96"/>
</g>
<!-- Node100&#45;&gt;Node101 -->
<g id="edge9" class="edge">
<title>Node100&#45;&gt;Node101</title>
<path fill="none" stroke="#63b8ff" d="M159.65,-164.75C161.26,-158.19 163.52,-148.95 165.57,-140.6"/>
<polygon fill="#63b8ff" stroke="#63b8ff" points="168.96,-141.46 167.95,-130.91 162.16,-139.79 168.96,-141.46"/>
</g>
<!-- Node101&#45;&gt;Node3 -->
<g id="edge10" class="edge">
<title>Node101&#45;&gt;Node3</title>
<path fill="none" stroke="#63b8ff" d="M171,-109.75C171.36,-103.27 171.88,-94.16 172.35,-85.9"/>
<polygon fill="#63b8ff" stroke="#63b8ff" points="175.84,-86.13 172.91,-75.95 168.85,-85.74 175.84,-86.13"/>
</g>
<!-- Node101&#45;&gt;Node5 -->
<g id="edge11" class="edge">
<title>Node101&#45;&gt;Node5</title>
<path fill="none" stroke="#63b8ff" d="M157.61,-109.51C146.4,-101.7 129.93,-90.21 116.62,-80.93"/>
<polygon fill="#63b8ff" stroke="#63b8ff" points="118.65,-78.07 108.44,-75.22 114.64,-83.81 118.65,-78.07"/>
</g>
<!-- Node68&#45;&gt;Node2 -->
<g id="edge13" class="edge">
<title>Node68&#45;&gt;Node2</title>
<path fill="none" stroke="#63b8ff" d="M35.18,-109.81C37.89,-97.13 44.01,-73.08 54.5,-55 60.33,-44.95 68.71,-35.18 76.29,-27.37"/>
<polygon fill="#63b8ff" stroke="#63b8ff" points="78.57,-30.04 83.25,-20.53 73.67,-25.04 78.57,-30.04"/>
</g>
<!-- Node68&#45;&gt;Node3 -->
<g id="edge14" class="edge">
<title>Node68&#45;&gt;Node3</title>
<path fill="none" stroke="#63b8ff" d="M57.25,-109.51C79.81,-100.97 113.97,-88.03 139.44,-78.4"/>
<polygon fill="#63b8ff" stroke="#63b8ff" points="140.57,-81.71 148.69,-74.89 138.09,-75.16 140.57,-81.71"/>
</g>
<!-- Node68&#45;&gt;Node5 -->
<g id="edge15" class="edge">
<title>Node68&#45;&gt;Node5</title>
<path fill="none" stroke="#63b8ff" d="M43.85,-109.51C52.58,-101.93 65.29,-90.88 75.8,-81.75"/>
<polygon fill="#63b8ff" stroke="#63b8ff" points="77.91,-84.55 83.16,-75.35 73.32,-79.27 77.91,-84.55"/>
</g>
</g>
</svg>
