<?xml version="1.0" encoding="UTF-8" standalone="no"?>
<!DOCTYPE svg PUBLIC "-//W3C//DTD SVG 1.1//EN"
 "http://www.w3.org/Graphics/SVG/1.1/DTD/svg11.dtd">
<!-- Generated by graphviz version 2.40.1 (20161225.0304)
 -->
<!-- Title: pgp_check_decryption_okay Pages: 1 -->
<svg width="494pt" height="116pt"
 viewBox="0.00 0.00 494.00 115.50" xmlns="http://www.w3.org/2000/svg" xmlns:xlink="http://www.w3.org/1999/xlink">
<g id="graph0" class="graph" transform="scale(1 1) rotate(0) translate(4 111.5)">
<title>pgp_check_decryption_okay</title>
<polygon fill="#ffffff" stroke="transparent" points="-4,4 -4,-111.5 490,-111.5 490,4 -4,4"/>
<!-- Node198 -->
<g id="node1" class="node">
<title>Node198</title>
<polygon fill="#bfbfbf" stroke="#000000" points="0,-38.5 0,-57.5 155,-57.5 155,-38.5 0,-38.5"/>
<text text-anchor="middle" x="77.5" y="-45.5" font-family="Helvetica,sans-Serif" font-size="10.00" fill="#000000">pgp_check_decryption_okay</text>
</g>
<!-- Node199 -->
<g id="node2" class="node">
<title>Node199</title>
<g id="a_node2"><a xlink:href="pgp_8c.html#a3bee0ec912711eeaa86cebb084d0c24a" target="_top" xlink:title="Check PGP output to look for successful outcome. ">
<polygon fill="#ffffff" stroke="#ff0000" points="191,-77 191,-107 340,-107 340,-77 191,-77"/>
<text text-anchor="start" x="199" y="-95" font-family="Helvetica,sans-Serif" font-size="10.00" fill="#000000">pgp_check_pgp_decryption</text>
<text text-anchor="middle" x="265.5" y="-84" font-family="Helvetica,sans-Serif" font-size="10.00" fill="#000000">_okay_regex</text>
</a>
</g>
</g>
<!-- Node198&#45;&gt;Node199 -->
<g id="edge1" class="edge">
<title>Node198&#45;&gt;Node199</title>
<path fill="none" stroke="#191970" d="M118.2932,-57.5473C139.6488,-62.5455 166.4674,-68.8222 191.3434,-74.6442"/>
<polygon fill="#191970" stroke="#191970" points="190.5953,-78.0636 201.1298,-76.9346 192.1905,-71.2478 190.5953,-78.0636"/>
</g>
<!-- Node200 -->
<g id="node3" class="node">
<title>Node200</title>
<g id="a_node3"><a xlink:href="file_8c.html#a3db386a998ff6188b60d489a858ca8fb" target="_top" xlink:title="Read a line from a file. ">
<polygon fill="#ffffff" stroke="#ff0000" points="376,-60.5 376,-79.5 486,-79.5 486,-60.5 376,-60.5"/>
<text text-anchor="middle" x="431" y="-67.5" font-family="Helvetica,sans-Serif" font-size="10.00" fill="#000000">mutt_file_read_line</text>
</a>
</g>
</g>
<!-- Node198&#45;&gt;Node200 -->
<g id="edge3" class="edge">
<title>Node198&#45;&gt;Node200</title>
<path fill="none" stroke="#191970" d="M155.0771,-52.828C218.19,-56.7558 306.246,-62.236 365.7717,-65.9405"/>
<polygon fill="#191970" stroke="#191970" points="365.6077,-69.437 375.8058,-66.565 366.0426,-62.4505 365.6077,-69.437"/>
</g>
<!-- Node206 -->
<g id="node4" class="node">
<title>Node206</title>
<g id="a_node4"><a xlink:href="mutt_2string_8c.html#a9bf968304f4f9b49e24215cb2e28d22d" target="_top" xlink:title="Check whether a string starts with a prefix. ">
<polygon fill="#ffffff" stroke="#ff0000" points="209.5,-.5 209.5,-19.5 321.5,-19.5 321.5,-.5 209.5,-.5"/>
<text text-anchor="middle" x="265.5" y="-7.5" font-family="Helvetica,sans-Serif" font-size="10.00" fill="#000000">mutt_str_startswith</text>
</a>
</g>
</g>
<!-- Node198&#45;&gt;Node206 -->
<g id="edge4" class="edge">
<title>Node198&#45;&gt;Node206</title>
<path fill="none" stroke="#191970" d="M124.9403,-38.411C150.3077,-33.2835 181.7274,-26.9328 208.4232,-21.5368"/>
<polygon fill="#191970" stroke="#191970" points="209.2925,-24.932 218.4008,-19.5201 207.9056,-18.0707 209.2925,-24.932"/>
</g>
<!-- Node199&#45;&gt;Node200 -->
<g id="edge2" class="edge">
<title>Node199&#45;&gt;Node200</title>
<path fill="none" stroke="#191970" d="M340.0194,-82.0941C348.5589,-80.9589 357.2165,-79.8081 365.6235,-78.6905"/>
<polygon fill="#191970" stroke="#191970" points="366.2776,-82.1345 375.7291,-77.3472 365.3551,-75.1955 366.2776,-82.1345"/>
</g>
</g>
</svg>
