<?xml version="1.0" encoding="UTF-8" standalone="no"?>
<!DOCTYPE svg PUBLIC "-//W3C//DTD SVG 1.1//EN"
 "http://www.w3.org/Graphics/SVG/1.1/DTD/svg11.dtd">
<!-- Generated by graphviz version 7.1.0 (0)
 -->
<!-- Title: ncrypt/pgp.h Pages: 1 -->
<svg width="714pt" height="93pt"
 viewBox="0.00 0.00 713.50 93.00" xmlns="http://www.w3.org/2000/svg" xmlns:xlink="http://www.w3.org/1999/xlink">
<g id="graph0" class="graph" transform="scale(1 1) rotate(0) translate(4 89)">
<title>ncrypt/pgp.h</title>
<!-- Node1 -->
<g id="node1" class="node">
<title>Node1</title>
<g id="a_node1"><a xlink:title="PGP sign, encrypt, check routines.">
<polygon fill="#999999" stroke="#666666" points="389.5,-85 312.5,-85 312.5,-66 389.5,-66 389.5,-85"/>
<text text-anchor="middle" x="351" y="-73" font-family="Helvetica,sans-Serif" font-size="10.00">ncrypt/pgp.h</text>
</a>
</g>
</g>
<!-- Node2 -->
<g id="node2" class="node">
<title>Node2</title>
<g id="a_node2"><a xlink:href="crypt__mod__pgp__classic_8c.html" target="_top" xlink:title="Wrappers for calls to CLI PGP.">
<polygon fill="white" stroke="#666666" points="122,-30 0,-30 0,0 122,0 122,-30"/>
<text text-anchor="start" x="8" y="-18" font-family="Helvetica,sans-Serif" font-size="10.00">ncrypt/crypt_mod_pgp</text>
<text text-anchor="middle" x="61" y="-7" font-family="Helvetica,sans-Serif" font-size="10.00">_classic.c</text>
</a>
</g>
</g>
<!-- Node1&#45;&gt;Node2 -->
<g id="edge1" class="edge">
<title>Node1&#45;&gt;Node2</title>
<path fill="none" stroke="#63b8ff" d="M301.12,-64.44C251.59,-54.45 175.55,-39.11 122.35,-28.38"/>
<polygon fill="#63b8ff" stroke="#63b8ff" points="300.21,-67.83 310.71,-66.37 301.6,-60.96 300.21,-67.83"/>
</g>
<!-- Node3 -->
<g id="node3" class="node">
<title>Node3</title>
<g id="a_node3"><a xlink:href="dlg__pgp_8c.html" target="_top" xlink:title="PGP Key Selection Dialog.">
<polygon fill="white" stroke="#666666" points="235.5,-24.5 140.5,-24.5 140.5,-5.5 235.5,-5.5 235.5,-24.5"/>
<text text-anchor="middle" x="188" y="-12.5" font-family="Helvetica,sans-Serif" font-size="10.00">ncrypt/dlg_pgp.c</text>
</a>
</g>
</g>
<!-- Node1&#45;&gt;Node3 -->
<g id="edge2" class="edge">
<title>Node1&#45;&gt;Node3</title>
<path fill="none" stroke="#63b8ff" d="M315.48,-61.75C284.51,-50.64 240.37,-34.8 212.99,-24.97"/>
<polygon fill="#63b8ff" stroke="#63b8ff" points="314.22,-65.02 324.82,-65.1 316.59,-58.43 314.22,-65.02"/>
</g>
<!-- Node4 -->
<g id="node4" class="node">
<title>Node4</title>
<g id="a_node4"><a xlink:href="pgp_8c.html" target="_top" xlink:title="PGP sign, encrypt, check routines.">
<polygon fill="white" stroke="#666666" points="330,-24.5 254,-24.5 254,-5.5 330,-5.5 330,-24.5"/>
<text text-anchor="middle" x="292" y="-12.5" font-family="Helvetica,sans-Serif" font-size="10.00">ncrypt/pgp.c</text>
</a>
</g>
</g>
<!-- Node1&#45;&gt;Node4 -->
<g id="edge3" class="edge">
<title>Node1&#45;&gt;Node4</title>
<path fill="none" stroke="#63b8ff" d="M334.14,-57.78C323.37,-47.1 309.83,-33.67 301.05,-24.97"/>
<polygon fill="#63b8ff" stroke="#63b8ff" points="331.4,-59.99 340.96,-64.55 336.33,-55.02 331.4,-59.99"/>
</g>
<!-- Node5 -->
<g id="node5" class="node">
<title>Node5</title>
<g id="a_node5"><a xlink:href="pgp__functions_8c.html" target="_top" xlink:title="Pgp functions.">
<polygon fill="white" stroke="#666666" points="471.5,-24.5 348.5,-24.5 348.5,-5.5 471.5,-5.5 471.5,-24.5"/>
<text text-anchor="middle" x="410" y="-12.5" font-family="Helvetica,sans-Serif" font-size="10.00">ncrypt/pgp_functions.c</text>
</a>
</g>
</g>
<!-- Node1&#45;&gt;Node5 -->
<g id="edge4" class="edge">
<title>Node1&#45;&gt;Node5</title>
<path fill="none" stroke="#63b8ff" d="M367.86,-57.78C378.63,-47.1 392.17,-33.67 400.95,-24.97"/>
<polygon fill="#63b8ff" stroke="#63b8ff" points="365.67,-55.02 361.04,-64.55 370.6,-59.99 365.67,-55.02"/>
</g>
<!-- Node6 -->
<g id="node6" class="node">
<title>Node6</title>
<g id="a_node6"><a xlink:href="pgpinvoke_8c.html" target="_top" xlink:title="Wrapper around calls to external PGP program.">
<polygon fill="white" stroke="#666666" points="596.5,-24.5 489.5,-24.5 489.5,-5.5 596.5,-5.5 596.5,-24.5"/>
<text text-anchor="middle" x="543" y="-12.5" font-family="Helvetica,sans-Serif" font-size="10.00">ncrypt/pgpinvoke.c</text>
</a>
</g>
</g>
<!-- Node1&#45;&gt;Node6 -->
<g id="edge5" class="edge">
<title>Node1&#45;&gt;Node6</title>
<path fill="none" stroke="#63b8ff" d="M390.93,-62.33C427.49,-51.2 480.75,-34.97 513.56,-24.97"/>
<polygon fill="#63b8ff" stroke="#63b8ff" points="390.15,-58.91 381.61,-65.17 392.19,-65.61 390.15,-58.91"/>
</g>
<!-- Node7 -->
<g id="node7" class="node">
<title>Node7</title>
<g id="a_node7"><a xlink:href="pgpkey_8c.html" target="_top" xlink:title="PGP key management routines.">
<polygon fill="white" stroke="#666666" points="705.5,-24.5 614.5,-24.5 614.5,-5.5 705.5,-5.5 705.5,-24.5"/>
<text text-anchor="middle" x="660" y="-12.5" font-family="Helvetica,sans-Serif" font-size="10.00">ncrypt/pgpkey.c</text>
</a>
</g>
</g>
<!-- Node1&#45;&gt;Node7 -->
<g id="edge6" class="edge">
<title>Node1&#45;&gt;Node7</title>
<path fill="none" stroke="#63b8ff" d="M400.78,-67.03C452.35,-59.02 535.15,-45.34 606,-30 612.91,-28.5 620.27,-26.72 627.26,-24.94"/>
<polygon fill="#63b8ff" stroke="#63b8ff" points="400.48,-63.54 391.13,-68.52 401.55,-70.46 400.48,-63.54"/>
</g>
</g>
</svg>
