<?xml version="1.0" encoding="UTF-8" standalone="no"?>
<!DOCTYPE svg PUBLIC "-//W3C//DTD SVG 1.1//EN"
 "http://www.w3.org/Graphics/SVG/1.1/DTD/svg11.dtd">
<!-- Generated by graphviz version 2.40.1 (20161225.0304)
 -->
<!-- Title: ncrypt/pgpinvoke.h Pages: 1 -->
<svg width="713pt" height="95pt"
 viewBox="0.00 0.00 713.00 95.00" xmlns="http://www.w3.org/2000/svg" xmlns:xlink="http://www.w3.org/1999/xlink">
<g id="graph0" class="graph" transform="scale(1 1) rotate(0) translate(4 91)">
<title>ncrypt/pgpinvoke.h</title>
<polygon fill="#ffffff" stroke="transparent" points="-4,4 -4,-91 709,-91 709,4 -4,4"/>
<!-- Node7 -->
<g id="node1" class="node">
<title>Node7</title>
<polygon fill="#bfbfbf" stroke="#000000" points="313.5,-67.5 313.5,-86.5 423.5,-86.5 423.5,-67.5 313.5,-67.5"/>
<text text-anchor="middle" x="368.5" y="-74.5" font-family="Helvetica,sans-Serif" font-size="10.00" fill="#000000">ncrypt/pgpinvoke.h</text>
</g>
<!-- Node8 -->
<g id="node2" class="node">
<title>Node8</title>
<g id="a_node2"><a xlink:href="crypt__mod__pgp__classic_8c.html" target="_top" xlink:title="Wrappers for calls to CLI PGP. ">
<polygon fill="#ffffff" stroke="#000000" points="0,-.5 0,-30.5 125,-30.5 125,-.5 0,-.5"/>
<text text-anchor="start" x="8" y="-18.5" font-family="Helvetica,sans-Serif" font-size="10.00" fill="#000000">ncrypt/crypt_mod_pgp</text>
<text text-anchor="middle" x="62.5" y="-7.5" font-family="Helvetica,sans-Serif" font-size="10.00" fill="#000000">_classic.c</text>
</a>
</g>
</g>
<!-- Node7&#45;&gt;Node8 -->
<g id="edge1" class="edge">
<title>Node7&#45;&gt;Node8</title>
<path fill="none" stroke="#191970" d="M308.6177,-65.535C261.3057,-56.4026 193.6252,-43.1746 134.5,-31 131.4943,-30.3811 128.4194,-29.742 125.3146,-29.092"/>
<polygon fill="#191970" stroke="#191970" points="308.2102,-69.0208 318.6919,-67.477 309.5353,-62.1473 308.2102,-69.0208"/>
</g>
<!-- Node9 -->
<g id="node3" class="node">
<title>Node9</title>
<g id="a_node3"><a xlink:href="dlgpgp_8c.html" target="_top" xlink:title="PGP key selection dialog. ">
<polygon fill="#ffffff" stroke="#000000" points="143.5,-6 143.5,-25 235.5,-25 235.5,-6 143.5,-6"/>
<text text-anchor="middle" x="189.5" y="-13" font-family="Helvetica,sans-Serif" font-size="10.00" fill="#000000">ncrypt/dlgpgp.c</text>
</a>
</g>
</g>
<!-- Node7&#45;&gt;Node9 -->
<g id="edge2" class="edge">
<title>Node7&#45;&gt;Node9</title>
<path fill="none" stroke="#191970" d="M330.9561,-64.1009C297.0065,-52.4366 247.7993,-35.5302 217.2724,-25.0419"/>
<polygon fill="#191970" stroke="#191970" points="329.9366,-67.4513 340.5313,-67.3906 332.2112,-60.8312 329.9366,-67.4513"/>
</g>
<!-- Node10 -->
<g id="node4" class="node">
<title>Node10</title>
<g id="a_node4"><a xlink:href="gnupgparse_8c.html" target="_top" xlink:title="Parse the output of CLI PGP program. ">
<polygon fill="#ffffff" stroke="#000000" points="253.5,-6 253.5,-25 369.5,-25 369.5,-6 253.5,-6"/>
<text text-anchor="middle" x="311.5" y="-13" font-family="Helvetica,sans-Serif" font-size="10.00" fill="#000000">ncrypt/gnupgparse.c</text>
</a>
</g>
</g>
<!-- Node7&#45;&gt;Node10 -->
<g id="edge3" class="edge">
<title>Node7&#45;&gt;Node10</title>
<path fill="none" stroke="#191970" d="M352.6519,-59.9007C342.2956,-48.7268 329.1428,-34.5356 320.5318,-25.2449"/>
<polygon fill="#191970" stroke="#191970" points="350.2291,-62.4355 359.5938,-67.3906 355.3631,-57.6771 350.2291,-62.4355"/>
</g>
<!-- Node11 -->
<g id="node5" class="node">
<title>Node11</title>
<g id="a_node5"><a xlink:href="pgp_8c.html" target="_top" xlink:title="PGP sign, encrypt, check routines. ">
<polygon fill="#ffffff" stroke="#000000" points="388,-6 388,-25 465,-25 465,-6 388,-6"/>
<text text-anchor="middle" x="426.5" y="-13" font-family="Helvetica,sans-Serif" font-size="10.00" fill="#000000">ncrypt/pgp.c</text>
</a>
</g>
</g>
<!-- Node7&#45;&gt;Node11 -->
<g id="edge4" class="edge">
<title>Node7&#45;&gt;Node11</title>
<path fill="none" stroke="#191970" d="M384.6261,-59.9007C395.1642,-48.7268 408.5477,-34.5356 417.3097,-25.2449"/>
<polygon fill="#191970" stroke="#191970" points="381.8773,-57.7142 377.5625,-67.3906 386.9698,-62.5169 381.8773,-57.7142"/>
</g>
<!-- Node12 -->
<g id="node6" class="node">
<title>Node12</title>
<g id="a_node6"><a xlink:href="pgpinvoke_8c.html" target="_top" xlink:title="Wrapper around calls to external PGP program. ">
<polygon fill="#ffffff" stroke="#000000" points="483.5,-6 483.5,-25 593.5,-25 593.5,-6 483.5,-6"/>
<text text-anchor="middle" x="538.5" y="-13" font-family="Helvetica,sans-Serif" font-size="10.00" fill="#000000">ncrypt/pgpinvoke.c</text>
</a>
</g>
</g>
<!-- Node7&#45;&gt;Node12 -->
<g id="edge5" class="edge">
<title>Node7&#45;&gt;Node12</title>
<path fill="none" stroke="#191970" d="M404.5721,-63.9504C436.7997,-52.2916 483.2564,-35.4852 512.124,-25.0419"/>
<polygon fill="#191970" stroke="#191970" points="403.2754,-60.6974 395.0625,-67.3906 405.6568,-67.2799 403.2754,-60.6974"/>
</g>
<!-- Node13 -->
<g id="node7" class="node">
<title>Node13</title>
<g id="a_node7"><a xlink:href="pgpkey_8c.html" target="_top" xlink:title="PGP key management routines. ">
<polygon fill="#ffffff" stroke="#000000" points="612,-6 612,-25 705,-25 705,-6 612,-6"/>
<text text-anchor="middle" x="658.5" y="-13" font-family="Helvetica,sans-Serif" font-size="10.00" fill="#000000">ncrypt/pgpkey.c</text>
</a>
</g>
</g>
<!-- Node7&#45;&gt;Node13 -->
<g id="edge6" class="edge">
<title>Node7&#45;&gt;Node13</title>
<path fill="none" stroke="#191970" d="M433.1992,-65.6462C480.3383,-57.0428 545.6295,-44.4398 602.5,-31 610.0594,-29.2135 618.1376,-27.0995 625.7386,-25.0165"/>
<polygon fill="#191970" stroke="#191970" points="432.3407,-62.2448 423.1264,-67.4742 433.5907,-69.1323 432.3407,-62.2448"/>
</g>
</g>
</svg>
