<?xml version="1.0" encoding="UTF-8" standalone="no"?>
<!DOCTYPE svg PUBLIC "-//W3C//DTD SVG 1.1//EN"
 "http://www.w3.org/Graphics/SVG/1.1/DTD/svg11.dtd">
<!-- Generated by graphviz version 2.40.1 (20161225.0304)
 -->
<!-- Title: pgp_make_entry Pages: 1 -->
<svg width="391pt" height="65pt"
 viewBox="0.00 0.00 391.00 65.00" xmlns="http://www.w3.org/2000/svg" xmlns:xlink="http://www.w3.org/1999/xlink">
<g id="graph0" class="graph" transform="scale(1 1) rotate(0) translate(4 61)">
<title>pgp_make_entry</title>
<polygon fill="#ffffff" stroke="transparent" points="-4,4 -4,-61 387,-61 387,4 -4,4"/>
<!-- Node1898 -->
<g id="node1" class="node">
<title>Node1898</title>
<polygon fill="#bfbfbf" stroke="#000000" points="0,-19.5 0,-38.5 98,-38.5 98,-19.5 0,-19.5"/>
<text text-anchor="middle" x="49" y="-26.5" font-family="Helvetica,sans-Serif" font-size="10.00" fill="#000000">pgp_make_entry</text>
</g>
<!-- Node1899 -->
<g id="node2" class="node">
<title>Node1899</title>
<g id="a_node2"><a xlink:href="muttlib_8c.html#a840c909317e4a6702f2e0bf0b9bf0e9a" target="_top" xlink:title="Expand expandos (x) in a string. ">
<polygon fill="#ffffff" stroke="#ff0000" points="258,-19.5 258,-38.5 383,-38.5 383,-19.5 258,-19.5"/>
<text text-anchor="middle" x="320.5" y="-26.5" font-family="Helvetica,sans-Serif" font-size="10.00" fill="#000000">mutt_expando_format</text>
</a>
</g>
</g>
<!-- Node1898&#45;&gt;Node1899 -->
<g id="edge1" class="edge">
<title>Node1898&#45;&gt;Node1899</title>
<path fill="none" stroke="#191970" d="M98.1666,-29C139.8793,-29 200.3112,-29 247.6455,-29"/>
<polygon fill="#191970" stroke="#191970" points="247.8409,-32.5001 257.8409,-29 247.8408,-25.5001 247.8409,-32.5001"/>
</g>
<!-- Node1926 -->
<g id="node3" class="node">
<title>Node1926</title>
<g id="a_node3"><a xlink:href="pgpkey_8c.html#acc12219437d7da31887c00ee05f2ce1d" target="_top" xlink:title="Format an entry on the PGP key selection menu &#45; Implements format_t. ">
<polygon fill="#ffffff" stroke="#ff0000" points="134,-.5 134,-19.5 222,-19.5 222,-.5 134,-.5"/>
<text text-anchor="middle" x="178" y="-7.5" font-family="Helvetica,sans-Serif" font-size="10.00" fill="#000000">pgp_entry_fmt</text>
</a>
</g>
</g>
<!-- Node1898&#45;&gt;Node1926 -->
<g id="edge3" class="edge">
<title>Node1898&#45;&gt;Node1926</title>
<path fill="none" stroke="#191970" d="M98.1374,-21.7627C106.4391,-20.54 115.1013,-19.2642 123.5293,-18.0228"/>
<polygon fill="#191970" stroke="#191970" points="124.2702,-21.4515 133.6535,-16.5317 123.2502,-14.5262 124.2702,-21.4515"/>
</g>
<!-- Node1899&#45;&gt;Node1899 -->
<g id="edge2" class="edge">
<title>Node1899&#45;&gt;Node1899</title>
<path fill="none" stroke="#191970" d="M298.6137,-38.7571C287.9663,-47.5653 295.2617,-57 320.5,-57 337.0626,-57 345.8979,-52.9368 347.0059,-47.6539"/>
<polygon fill="#191970" stroke="#191970" points="350.1008,-46.0192 342.3863,-38.7571 343.8883,-49.2449 350.1008,-46.0192"/>
</g>
<!-- Node1926&#45;&gt;Node1899 -->
<g id="edge4" class="edge">
<title>Node1926&#45;&gt;Node1899</title>
<path fill="none" stroke="#191970" d="M222.3068,-15.9076C230.4105,-16.9881 239.0596,-18.1413 247.7387,-19.2985"/>
<polygon fill="#191970" stroke="#191970" points="247.5351,-22.8022 257.9099,-20.6547 248.4603,-15.8636 247.5351,-22.8022"/>
</g>
</g>
</svg>
