<?xml version="1.0" encoding="UTF-8" standalone="no"?>
<!DOCTYPE svg PUBLIC "-//W3C//DTD SVG 1.1//EN"
 "http://www.w3.org/Graphics/SVG/1.1/DTD/svg11.dtd">
<!-- Generated by graphviz version 7.1.0 (0)
 -->
<!-- Title: pgp_id_matches_addr Pages: 1 -->
<svg width="254pt" height="101pt"
 viewBox="0.00 0.00 254.00 101.00" xmlns="http://www.w3.org/2000/svg" xmlns:xlink="http://www.w3.org/1999/xlink">
<g id="graph0" class="graph" transform="scale(1 1) rotate(0) translate(4 97)">
<title>pgp_id_matches_addr</title>
<!-- Node1 -->
<g id="node1" class="node">
<title>Node1</title>
<g id="a_node1"><a xlink:title="Does the key ID match the address.">
<polygon fill="#999999" stroke="#666666" points="117,-56 0,-56 0,-37 117,-37 117,-56"/>
<text text-anchor="middle" x="58.5" y="-44" font-family="Helvetica,sans-Serif" font-size="10.00">pgp_id_matches_addr</text>
</a>
</g>
</g>
<!-- Node2 -->
<g id="node2" class="node">
<title>Node2</title>
<g id="a_node2"><a xlink:href="buffer_8c.html#a07ec860b2ebee26a8e4e998bd856e931" target="_top" xlink:title="Return if two buffers are equal, case insensitive.">
<polygon fill="#fff0f0" stroke="red" points="240.5,-93 158.5,-93 158.5,-74 240.5,-74 240.5,-93"/>
<text text-anchor="middle" x="199.5" y="-81" font-family="Helvetica,sans-Serif" font-size="10.00">buf_istr_equal</text>
</a>
</g>
</g>
<!-- Node1&#45;&gt;Node2 -->
<g id="edge1" class="edge">
<title>Node1&#45;&gt;Node2</title>
<path fill="none" stroke="#63b8ff" d="M96.75,-56.42C113.27,-60.81 132.9,-66.04 150.5,-70.72"/>
<polygon fill="#63b8ff" stroke="#63b8ff" points="149.12,-73.98 159.69,-73.17 150.92,-67.21 149.12,-73.98"/>
</g>
<!-- Node6 -->
<g id="node3" class="node">
<title>Node6</title>
<g id="a_node3"><a xlink:href="pgpkey_8c.html#a87be30a9047f2566816892e7ffc68b88" target="_top" xlink:title="Is a PGP key strong?">
<polygon fill="white" stroke="#666666" points="246,-56 153,-56 153,-37 246,-37 246,-56"/>
<text text-anchor="middle" x="199.5" y="-44" font-family="Helvetica,sans-Serif" font-size="10.00">pgp_id_is_strong</text>
</a>
</g>
</g>
<!-- Node1&#45;&gt;Node6 -->
<g id="edge2" class="edge">
<title>Node1&#45;&gt;Node6</title>
<path fill="none" stroke="#63b8ff" d="M117.24,-46.5C125.16,-46.5 133.29,-46.5 141.2,-46.5"/>
<polygon fill="#63b8ff" stroke="#63b8ff" points="141.07,-50 151.07,-46.5 141.07,-43 141.07,-50"/>
</g>
<!-- Node7 -->
<g id="node4" class="node">
<title>Node7</title>
<g id="a_node4"><a xlink:href="pgpkey_8c.html#a0a2d46a37ed92125eed6c9cea5543909" target="_top" xlink:title="Is a PGP key valid.">
<polygon fill="#fff0f0" stroke="red" points="241.5,-19 157.5,-19 157.5,0 241.5,0 241.5,-19"/>
<text text-anchor="middle" x="199.5" y="-7" font-family="Helvetica,sans-Serif" font-size="10.00">pgp_id_is_valid</text>
</a>
</g>
</g>
<!-- Node1&#45;&gt;Node7 -->
<g id="edge3" class="edge">
<title>Node1&#45;&gt;Node7</title>
<path fill="none" stroke="#63b8ff" d="M96.75,-36.58C113.27,-32.19 132.9,-26.96 150.5,-22.28"/>
<polygon fill="#63b8ff" stroke="#63b8ff" points="150.92,-25.79 159.69,-19.83 149.12,-19.02 150.92,-25.79"/>
</g>
</g>
</svg>
