<?xml version="1.0" encoding="UTF-8" standalone="no"?>
<!DOCTYPE svg PUBLIC "-//W3C//DTD SVG 1.1//EN"
 "http://www.w3.org/Graphics/SVG/1.1/DTD/svg11.dtd">
<!-- Generated by graphviz version 7.1.0 (0)
 -->
<!-- Title: ncrypt/pgplib.c Pages: 1 -->
<svg width="214pt" height="137pt"
 viewBox="0.00 0.00 214.00 137.00" xmlns="http://www.w3.org/2000/svg" xmlns:xlink="http://www.w3.org/1999/xlink">
<g id="graph0" class="graph" transform="scale(1 1) rotate(0) translate(4 133)">
<title>ncrypt/pgplib.c</title>
<!-- Node1 -->
<g id="node1" class="node">
<title>Node1</title>
<g id="a_node1"><a xlink:title="Misc PGP helper routines.">
<polygon fill="#999999" stroke="#666666" points="137,-129 51,-129 51,-110 137,-110 137,-129"/>
<text text-anchor="middle" x="94" y="-117" font-family="Helvetica,sans-Serif" font-size="10.00">ncrypt/pgplib.c</text>
</a>
</g>
</g>
<!-- Node2 -->
<g id="node2" class="node">
<title>Node2</title>
<g id="a_node2"><a xlink:title=" ">
<polygon fill="#e0e0e0" stroke="#999999" points="54,-19 0,-19 0,0 54,0 54,-19"/>
<text text-anchor="middle" x="27" y="-7" font-family="Helvetica,sans-Serif" font-size="10.00">config.h</text>
</a>
</g>
</g>
<!-- Node1&#45;&gt;Node2 -->
<g id="edge1" class="edge">
<title>Node1&#45;&gt;Node2</title>
<path fill="none" stroke="#63b8ff" d="M68.85,-109.55C53.17,-102.52 34.28,-91.02 25,-74 17.8,-60.79 18.84,-43.63 21.38,-30.48"/>
<polygon fill="#63b8ff" stroke="#63b8ff" points="24.77,-31.37 23.71,-20.83 17.96,-29.73 24.77,-31.37"/>
</g>
<!-- Node3 -->
<g id="node3" class="node">
<title>Node3</title>
<g id="a_node3"><a xlink:title=" ">
<polygon fill="#e0e0e0" stroke="#999999" points="181,-19 121,-19 121,0 181,0 181,-19"/>
<text text-anchor="middle" x="151" y="-7" font-family="Helvetica,sans-Serif" font-size="10.00">stdbool.h</text>
</a>
</g>
</g>
<!-- Node1&#45;&gt;Node3 -->
<g id="edge2" class="edge">
<title>Node1&#45;&gt;Node3</title>
<path fill="none" stroke="#63b8ff" d="M98.66,-109.66C107.85,-92.26 128.47,-53.19 140.91,-29.62"/>
<polygon fill="#63b8ff" stroke="#63b8ff" points="143.99,-31.28 145.56,-20.8 137.8,-28.01 143.99,-31.28"/>
</g>
<!-- Node4 -->
<g id="node4" class="node">
<title>Node4</title>
<g id="a_node4"><a xlink:href="mutt_2lib_8h.html" target="_top" xlink:title="Convenience wrapper for the library headers.">
<polygon fill="#fff0f0" stroke="red" points="96,-74 34,-74 34,-55 96,-55 96,-74"/>
<text text-anchor="middle" x="65" y="-62" font-family="Helvetica,sans-Serif" font-size="10.00">mutt/lib.h</text>
</a>
</g>
</g>
<!-- Node1&#45;&gt;Node4 -->
<g id="edge3" class="edge">
<title>Node1&#45;&gt;Node4</title>
<path fill="none" stroke="#63b8ff" d="M89.21,-109.75C85.46,-102.88 80.09,-93.08 75.37,-84.45"/>
<polygon fill="#63b8ff" stroke="#63b8ff" points="78.49,-82.86 70.62,-75.77 72.35,-86.22 78.49,-82.86"/>
</g>
<!-- Node55 -->
<g id="node5" class="node">
<title>Node55</title>
<g id="a_node5"><a xlink:href="pgplib_8h.html" target="_top" xlink:title="Misc PGP helper routines.">
<polygon fill="#fff0f0" stroke="red" points="206,-74 152,-74 152,-55 206,-55 206,-74"/>
<text text-anchor="middle" x="179" y="-62" font-family="Helvetica,sans-Serif" font-size="10.00">pgplib.h</text>
</a>
</g>
</g>
<!-- Node1&#45;&gt;Node55 -->
<g id="edge5" class="edge">
<title>Node1&#45;&gt;Node55</title>
<path fill="none" stroke="#63b8ff" d="M108.42,-109.51C121.2,-101.54 140.1,-89.75 155.13,-80.38"/>
<polygon fill="#63b8ff" stroke="#63b8ff" points="156.88,-83.42 163.51,-75.16 153.17,-77.48 156.88,-83.42"/>
</g>
<!-- Node4&#45;&gt;Node2 -->
<g id="edge4" class="edge">
<title>Node4&#45;&gt;Node2</title>
<path fill="none" stroke="#63b8ff" d="M58.73,-54.75C53.64,-47.66 46.3,-37.42 39.97,-28.59"/>
<polygon fill="#63b8ff" stroke="#63b8ff" points="42.96,-26.76 34.29,-20.67 37.28,-30.84 42.96,-26.76"/>
</g>
<!-- Node55&#45;&gt;Node3 -->
<g id="edge6" class="edge">
<title>Node55&#45;&gt;Node3</title>
<path fill="none" stroke="#63b8ff" d="M174.38,-54.75C170.75,-47.88 165.57,-38.08 161.01,-29.45"/>
<polygon fill="#63b8ff" stroke="#63b8ff" points="164.2,-27.99 156.43,-20.78 158.01,-31.26 164.2,-27.99"/>
</g>
</g>
</svg>
