<?xml version="1.0" encoding="UTF-8" standalone="no"?>
<!DOCTYPE svg PUBLIC "-//W3C//DTD SVG 1.1//EN"
 "http://www.w3.org/Graphics/SVG/1.1/DTD/svg11.dtd">
<!-- Generated by graphviz version 2.44.0 (0)
 -->
<!-- Title: pop/adata.c Pages: 1 -->
<svg width="201pt" height="84pt"
 viewBox="0.00 0.00 201.00 84.00" xmlns="http://www.w3.org/2000/svg" xmlns:xlink="http://www.w3.org/1999/xlink">
<g id="graph0" class="graph" transform="scale(1 1) rotate(0) translate(4 80)">
<title>pop/adata.c</title>
<polygon fill="white" stroke="transparent" points="-4,4 -4,-80 197,-80 197,4 -4,4"/>
<!-- Node1 -->
<g id="node1" class="node">
<title>Node1</title>
<g id="a_node1"><a xlink:title=" ">
<polygon fill="#bfbfbf" stroke="black" points="63.5,-56.5 63.5,-75.5 131.5,-75.5 131.5,-56.5 63.5,-56.5"/>
<text text-anchor="middle" x="97.5" y="-63.5" font-family="Helvetica" font-size="10.00">pop/adata.c</text>
</a>
</g>
</g>
<!-- Node2 -->
<g id="node2" class="node">
<title>Node2</title>
<g id="a_node2"><a xlink:title=" ">
<polygon fill="white" stroke="#bfbfbf" points="0,-0.5 0,-19.5 51,-19.5 51,-0.5 0,-0.5"/>
<text text-anchor="middle" x="25.5" y="-7.5" font-family="Helvetica" font-size="10.00">config.h</text>
</a>
</g>
</g>
<!-- Node1&#45;&gt;Node2 -->
<g id="edge1" class="edge">
<title>Node1&#45;&gt;Node2</title>
<path fill="none" stroke="midnightblue" d="M85.93,-56.32C75.08,-48.18 58.62,-35.84 45.62,-26.09"/>
<polygon fill="midnightblue" stroke="midnightblue" points="47.38,-23.03 37.28,-19.83 43.18,-28.63 47.38,-23.03"/>
</g>
<!-- Node3 -->
<g id="node3" class="node">
<title>Node3</title>
<g id="a_node3"><a xlink:href="core_2lib_8h.html" target="_top" xlink:title=" ">
<polygon fill="white" stroke="red" points="69.5,-0.5 69.5,-19.5 125.5,-19.5 125.5,-0.5 69.5,-0.5"/>
<text text-anchor="middle" x="97.5" y="-7.5" font-family="Helvetica" font-size="10.00">core/lib.h</text>
</a>
</g>
</g>
<!-- Node1&#45;&gt;Node3 -->
<g id="edge2" class="edge">
<title>Node1&#45;&gt;Node3</title>
<path fill="none" stroke="midnightblue" d="M97.5,-56.08C97.5,-49.01 97.5,-38.86 97.5,-29.99"/>
<polygon fill="midnightblue" stroke="midnightblue" points="101,-29.75 97.5,-19.75 94,-29.75 101,-29.75"/>
</g>
<!-- Node52 -->
<g id="node4" class="node">
<title>Node52</title>
<g id="a_node4"><a xlink:href="pop_2adata_8h.html" target="_top" xlink:title=" ">
<polygon fill="white" stroke="red" points="144,-0.5 144,-19.5 193,-19.5 193,-0.5 144,-0.5"/>
<text text-anchor="middle" x="168.5" y="-7.5" font-family="Helvetica" font-size="10.00">adata.h</text>
</a>
</g>
</g>
<!-- Node1&#45;&gt;Node52 -->
<g id="edge3" class="edge">
<title>Node1&#45;&gt;Node52</title>
<path fill="none" stroke="midnightblue" d="M108.91,-56.32C119.61,-48.18 135.84,-35.84 148.66,-26.09"/>
<polygon fill="midnightblue" stroke="midnightblue" points="151.04,-28.67 156.89,-19.83 146.81,-23.1 151.04,-28.67"/>
</g>
</g>
</svg>
