<?xml version="1.0" encoding="UTF-8" standalone="no"?>
<!DOCTYPE svg PUBLIC "-//W3C//DTD SVG 1.1//EN"
 "http://www.w3.org/Graphics/SVG/1.1/DTD/svg11.dtd">
<!-- Generated by graphviz version 12.2.1 (20241206.2353)
 -->
<!-- Title: mutt_parse_crypt_hdr Pages: 1 -->
<svg width="293pt" height="248pt"
 viewBox="0.00 0.00 292.75 248.25" xmlns="http://www.w3.org/2000/svg" xmlns:xlink="http://www.w3.org/1999/xlink">
<g id="graph0" class="graph" transform="scale(1 1) rotate(0) translate(4 244.25)">
<title>mutt_parse_crypt_hdr</title>
<!-- Node1 -->
<g id="Node000001" class="node">
<title>Node1</title>
<g id="a_Node000001"><a xlink:title="Parse a crypto header string.">
<polygon fill="#999999" stroke="#666666" points="118.75,-131.25 0,-131.25 0,-109 118.75,-109 118.75,-131.25"/>
<text text-anchor="middle" x="59.38" y="-117.75" font-family="Helvetica,sans-Serif" font-size="10.00">mutt_parse_crypt_hdr</text>
</a>
</g>
</g>
<!-- Node2 -->
<g id="Node000002" class="node">
<title>Node2</title>
<g id="a_Node000002"><a xlink:href="buffer_8c.html#a4245e227baa2a9beb6991917404aab0d" target="_top" xlink:title="Is the Buffer empty?">
<polygon fill="#fff0f0" stroke="red" points="258.5,-240.25 181,-240.25 181,-218 258.5,-218 258.5,-240.25"/>
<text text-anchor="middle" x="219.75" y="-226.75" font-family="Helvetica,sans-Serif" font-size="10.00">buf_is_empty</text>
</a>
</g>
</g>
<!-- Node1&#45;&gt;Node2 -->
<g id="edge1_Node000001_Node000002" class="edge">
<title>Node1&#45;&gt;Node2</title>
<g id="a_edge1_Node000001_Node000002"><a xlink:title=" ">
<path fill="none" stroke="#63b8ff" d="M69.58,-131.7C85.16,-150.57 118.6,-187.97 154.75,-209.12 159.46,-211.88 164.6,-214.3 169.84,-216.41"/>
<polygon fill="#63b8ff" stroke="#63b8ff" points="168.64,-219.7 179.23,-219.81 171.02,-213.12 168.64,-219.7"/>
</a>
</g>
</g>
<!-- Node5 -->
<g id="Node000005" class="node">
<title>Node5</title>
<g id="a_Node000005"><a xlink:href="pool_8c.html#a41cba27c25d33cb6822789a2856093f2" target="_top" xlink:title="Get a Buffer from the pool.">
<polygon fill="#fff0f0" stroke="red" points="258.12,-200.25 181.38,-200.25 181.38,-178 258.12,-178 258.12,-200.25"/>
<text text-anchor="middle" x="219.75" y="-186.75" font-family="Helvetica,sans-Serif" font-size="10.00">buf_pool_get</text>
</a>
</g>
</g>
<!-- Node1&#45;&gt;Node5 -->
<g id="edge2_Node000001_Node000005" class="edge">
<title>Node1&#45;&gt;Node5</title>
<g id="a_edge2_Node000001_Node000005"><a xlink:title=" ">
<path fill="none" stroke="#63b8ff" d="M80.14,-131.69C98.9,-142.36 128.12,-158.15 154.75,-169.12 159.73,-171.18 165.01,-173.14 170.31,-174.99"/>
<polygon fill="#63b8ff" stroke="#63b8ff" points="169.1,-178.27 179.69,-178.1 171.31,-171.63 169.1,-178.27"/>
</a>
</g>
</g>
<!-- Node10 -->
<g id="Node000010" class="node">
<title>Node10</title>
<g id="a_Node000010"><a xlink:href="pool_8c.html#a4cc6068279461cb8628219586dfa35a1" target="_top" xlink:title="Return a Buffer to the pool.">
<polygon fill="#fff0f0" stroke="red" points="267.12,-160.25 172.38,-160.25 172.38,-138 267.12,-138 267.12,-160.25"/>
<text text-anchor="middle" x="219.75" y="-146.75" font-family="Helvetica,sans-Serif" font-size="10.00">buf_pool_release</text>
</a>
</g>
</g>
<!-- Node1&#45;&gt;Node10 -->
<g id="edge3_Node000001_Node000010" class="edge">
<title>Node1&#45;&gt;Node10</title>
<g id="a_edge3_Node000001_Node000010"><a xlink:title=" ">
<path fill="none" stroke="#63b8ff" d="M118.9,-130.84C132.6,-133.35 147.18,-136.02 160.86,-138.52"/>
<polygon fill="#63b8ff" stroke="#63b8ff" points="160.13,-141.95 170.6,-140.31 161.39,-135.06 160.13,-141.95"/>
</a>
</g>
</g>
<!-- Node15 -->
<g id="Node000015" class="node">
<title>Node15</title>
<g id="a_Node000015"><a xlink:href="buffer_8h.html#a728ebc5a947b77c8d56db44ce553a7ab" target="_top" xlink:title="Convert a buffer to a const char * &quot;string&quot;.">
<polygon fill="white" stroke="#666666" points="251.38,-102.25 188.12,-102.25 188.12,-80 251.38,-80 251.38,-102.25"/>
<text text-anchor="middle" x="219.75" y="-88.75" font-family="Helvetica,sans-Serif" font-size="10.00">buf_string</text>
</a>
</g>
</g>
<!-- Node1&#45;&gt;Node15 -->
<g id="edge4_Node000001_Node000015" class="edge">
<title>Node1&#45;&gt;Node15</title>
<g id="a_edge4_Node000001_Node000015"><a xlink:title=" ">
<path fill="none" stroke="#63b8ff" d="M118.9,-109.41C138.13,-105.89 159.1,-102.05 176.84,-98.8"/>
<polygon fill="#63b8ff" stroke="#63b8ff" points="177.29,-102.28 186.49,-97.03 176.02,-95.39 177.29,-102.28"/>
</a>
</g>
</g>
<!-- Node16 -->
<g id="Node000016" class="node">
<title>Node16</title>
<g id="a_Node000016"><a xlink:href="subset_8c.html#a8d7d5e60bd8f7f0f8ffd8522de126b12" target="_top" xlink:title="Set a config item by string.">
<polygon fill="#fff0f0" stroke="red" points="283.62,-62.25 155.88,-62.25 155.88,-40 283.62,-40 283.62,-62.25"/>
<text text-anchor="middle" x="219.75" y="-48.75" font-family="Helvetica,sans-Serif" font-size="10.00">cs_subset_str_string_set</text>
</a>
</g>
</g>
<!-- Node1&#45;&gt;Node16 -->
<g id="edge6_Node000001_Node000016" class="edge">
<title>Node1&#45;&gt;Node16</title>
<g id="a_edge6_Node000001_Node000016"><a xlink:title=" ">
<path fill="none" stroke="#63b8ff" d="M80.14,-108.56C98.9,-97.89 128.12,-82.1 154.75,-71.12 158.81,-69.45 163.07,-67.84 167.37,-66.3"/>
<polygon fill="#63b8ff" stroke="#63b8ff" points="168.31,-69.68 176.65,-63.14 166.05,-63.05 168.31,-69.68"/>
</a>
</g>
</g>
<!-- Node35 -->
<g id="Node000035" class="node">
<title>Node35</title>
<g id="a_Node000035"><a xlink:href="mutt_2string_8c.html#a5bc328ca69776d155059041aaff9435a" target="_top" xlink:title="Skip over whitespace as defined by RFC5322.">
<polygon fill="#fff0f0" stroke="red" points="284.75,-22.25 154.75,-22.25 154.75,0 284.75,0 284.75,-22.25"/>
<text text-anchor="middle" x="219.75" y="-8.75" font-family="Helvetica,sans-Serif" font-size="10.00">mutt_str_skip_email_wsp</text>
</a>
</g>
</g>
<!-- Node1&#45;&gt;Node35 -->
<g id="edge7_Node000001_Node000035" class="edge">
<title>Node1&#45;&gt;Node35</title>
<g id="a_edge7_Node000001_Node000035"><a xlink:title=" ">
<path fill="none" stroke="#63b8ff" d="M69.58,-108.55C85.16,-89.68 118.6,-52.28 154.75,-31.12 157.21,-29.68 159.79,-28.34 162.44,-27.08"/>
<polygon fill="#63b8ff" stroke="#63b8ff" points="163.66,-30.36 171.51,-23.23 160.93,-23.91 163.66,-30.36"/>
</a>
</g>
</g>
<!-- Node15&#45;&gt;Node15 -->
<g id="edge5_Node000015_Node000015" class="edge">
<title>Node15&#45;&gt;Node15</title>
<g id="a_edge5_Node000015_Node000015"><a xlink:title=" ">
<path fill="none" stroke="#63b8ff" d="M193.56,-102.49C183.77,-111.28 192.5,-120.25 219.75,-120.25 234.65,-120.25 244.02,-117.57 247.84,-113.7"/>
<polygon fill="#63b8ff" stroke="#63b8ff" points="251.31,-113.25 246.19,-103.98 244.41,-114.42 251.31,-113.25"/>
</a>
</g>
</g>
</g>
</svg>
