<?xml version="1.0" encoding="UTF-8" standalone="no"?>
<!DOCTYPE svg PUBLIC "-//W3C//DTD SVG 1.1//EN"
 "http://www.w3.org/Graphics/SVG/1.1/DTD/svg11.dtd">
<!-- Generated by graphviz version 2.40.1 (20161225.0304)
 -->
<!-- Title: postpone.c Pages: 1 -->
<svg width="2399pt" height="252pt"
 viewBox="0.00 0.00 2398.79 252.00" xmlns="http://www.w3.org/2000/svg" xmlns:xlink="http://www.w3.org/1999/xlink">
<g id="graph0" class="graph" transform="scale(1 1) rotate(0) translate(4 248)">
<title>postpone.c</title>
<polygon fill="#ffffff" stroke="transparent" points="-4,4 -4,-248 2394.7865,-248 2394.7865,4 -4,4"/>
<!-- Node0 -->
<g id="node1" class="node">
<title>Node0</title>
<polygon fill="#bfbfbf" stroke="#000000" points="1294.7865,-224.5 1294.7865,-243.5 1364.7865,-243.5 1364.7865,-224.5 1294.7865,-224.5"/>
<text text-anchor="middle" x="1329.7865" y="-231.5" font-family="Helvetica,sans-Serif" font-size="10.00" fill="#000000">postpone.c</text>
</g>
<!-- Node1 -->
<g id="node2" class="node">
<title>Node1</title>
<polygon fill="#ffffff" stroke="#bfbfbf" points="267.2865,-.5 267.2865,-19.5 322.2865,-19.5 322.2865,-.5 267.2865,-.5"/>
<text text-anchor="middle" x="294.7865" y="-7.5" font-family="Helvetica,sans-Serif" font-size="10.00" fill="#000000">config.h</text>
</g>
<!-- Node0&#45;&gt;Node1 -->
<g id="edge1" class="edge">
<title>Node0&#45;&gt;Node1</title>
<path fill="none" stroke="#191970" d="M1294.6464,-233.4268C1101.1795,-230.1755 172.5692,-213.2961 117.7865,-188 50.2275,-156.8044 -33.3783,-112.7233 14.7865,-56 30.286,-37.7464 183.7655,-20.6847 256.6862,-13.5343"/>
<polygon fill="#191970" stroke="#191970" points="257.2181,-16.9993 266.8345,-12.5523 256.5438,-10.0318 257.2181,-16.9993"/>
</g>
<!-- Node2 -->
<g id="node3" class="node">
<title>Node2</title>
<polygon fill="#ffffff" stroke="#bfbfbf" points="1018.7865,-56.5 1018.7865,-75.5 1080.7865,-75.5 1080.7865,-56.5 1018.7865,-56.5"/>
<text text-anchor="middle" x="1049.7865" y="-63.5" font-family="Helvetica,sans-Serif" font-size="10.00" fill="#000000">stdbool.h</text>
</g>
<!-- Node0&#45;&gt;Node2 -->
<g id="edge2" class="edge">
<title>Node0&#45;&gt;Node2</title>
<path fill="none" stroke="#191970" d="M1294.6818,-230.7449C1251.5112,-225.7738 1176.7177,-213.9756 1117.7865,-188 1078.4047,-170.6414 1058.5487,-170.2322 1038.7865,-132 1031.2205,-117.3627 1035.4158,-98.6837 1040.6619,-84.9355"/>
<polygon fill="#191970" stroke="#191970" points="1043.9702,-86.1015 1044.701,-75.5319 1037.5384,-83.3388 1043.9702,-86.1015"/>
</g>
<!-- Node3 -->
<g id="node4" class="node">
<title>Node3</title>
<polygon fill="#ffffff" stroke="#bfbfbf" points="1290.7865,-56.5 1290.7865,-75.5 1340.7865,-75.5 1340.7865,-56.5 1290.7865,-56.5"/>
<text text-anchor="middle" x="1315.7865" y="-63.5" font-family="Helvetica,sans-Serif" font-size="10.00" fill="#000000">stdio.h</text>
</g>
<!-- Node0&#45;&gt;Node3 -->
<g id="edge3" class="edge">
<title>Node0&#45;&gt;Node3</title>
<path fill="none" stroke="#191970" d="M1349.3198,-224.4582C1387.2523,-204.6251 1464.5676,-157.0367 1433.7865,-112 1428.8112,-104.7204 1383.7427,-88.5033 1350.7781,-77.407"/>
<polygon fill="#191970" stroke="#191970" points="1351.5878,-73.9875 1340.9941,-74.1433 1349.3727,-80.6278 1351.5878,-73.9875"/>
</g>
<!-- Node4 -->
<g id="node5" class="node">
<title>Node4</title>
<polygon fill="#ffffff" stroke="#bfbfbf" points="2021.2865,-168.5 2021.2865,-187.5 2074.2865,-187.5 2074.2865,-168.5 2021.2865,-168.5"/>
<text text-anchor="middle" x="2047.7865" y="-175.5" font-family="Helvetica,sans-Serif" font-size="10.00" fill="#000000">string.h</text>
</g>
<!-- Node0&#45;&gt;Node4 -->
<g id="edge4" class="edge">
<title>Node0&#45;&gt;Node4</title>
<path fill="none" stroke="#191970" d="M1364.9974,-232.4069C1485.529,-226.8286 1881.053,-207.4579 2006.7865,-188 2008.2346,-187.7759 2009.7067,-187.5258 2011.1902,-187.2551"/>
<polygon fill="#191970" stroke="#191970" points="2011.9267,-190.6769 2021.0125,-185.2274 2010.5114,-183.8215 2011.9267,-190.6769"/>
</g>
<!-- Node5 -->
<g id="node6" class="node">
<title>Node5</title>
<polygon fill="#ffffff" stroke="#bfbfbf" points="2092.7865,-168.5 2092.7865,-187.5 2156.7865,-187.5 2156.7865,-168.5 2092.7865,-168.5"/>
<text text-anchor="middle" x="2124.7865" y="-175.5" font-family="Helvetica,sans-Serif" font-size="10.00" fill="#000000">sys/stat.h</text>
</g>
<!-- Node0&#45;&gt;Node5 -->
<g id="edge5" class="edge">
<title>Node0&#45;&gt;Node5</title>
<path fill="none" stroke="#191970" d="M1364.9068,-232.6901C1491.2552,-227.8509 1923.1685,-210.1803 2082.5664,-187.8833"/>
<polygon fill="#191970" stroke="#191970" points="2083.2764,-191.3168 2092.6655,-186.408 2082.2645,-184.3903 2083.2764,-191.3168"/>
</g>
<!-- Node6 -->
<g id="node7" class="node">
<title>Node6</title>
<polygon fill="#ffffff" stroke="#bfbfbf" points="1700.7865,-56.5 1700.7865,-75.5 1748.7865,-75.5 1748.7865,-56.5 1700.7865,-56.5"/>
<text text-anchor="middle" x="1724.7865" y="-63.5" font-family="Helvetica,sans-Serif" font-size="10.00" fill="#000000">time.h</text>
</g>
<!-- Node0&#45;&gt;Node6 -->
<g id="edge6" class="edge">
<title>Node0&#45;&gt;Node6</title>
<path fill="none" stroke="#191970" d="M1364.8671,-231.903C1449.4338,-226.5383 1662.5137,-211.091 1729.7865,-188 1775.0618,-172.4596 1798.3347,-173.7297 1821.7865,-132 1826.1414,-124.251 1826.5382,-119.5123 1821.7865,-112 1814.4422,-100.3888 1783.3862,-86.8951 1758.3654,-77.538"/>
<polygon fill="#191970" stroke="#191970" points="1759.3838,-74.184 1748.7899,-74.0445 1756.9846,-80.76 1759.3838,-74.184"/>
</g>
<!-- Node7 -->
<g id="node8" class="node">
<title>Node7</title>
<polygon fill="#ffffff" stroke="#bfbfbf" points="2174.7865,-168.5 2174.7865,-187.5 2230.7865,-187.5 2230.7865,-168.5 2174.7865,-168.5"/>
<text text-anchor="middle" x="2202.7865" y="-175.5" font-family="Helvetica,sans-Serif" font-size="10.00" fill="#000000">unistd.h</text>
</g>
<!-- Node0&#45;&gt;Node7 -->
<g id="edge7" class="edge">
<title>Node0&#45;&gt;Node7</title>
<path fill="none" stroke="#191970" d="M1364.8968,-233.0464C1500.2071,-229.223 1988.6447,-214.0134 2164.7396,-187.798"/>
<polygon fill="#191970" stroke="#191970" points="2165.2936,-191.254 2174.637,-186.2588 2164.2179,-184.3371 2165.2936,-191.254"/>
</g>
<!-- Node8 -->
<g id="node9" class="node">
<title>Node8</title>
<g id="a_node9"><a xlink:href="mutt_2lib_8h.html" target="_top" xlink:title="Convenience wrapper for the library headers. ">
<polygon fill="#ffffff" stroke="#ff0000" points="422.7865,-.5 422.7865,-19.5 486.7865,-19.5 486.7865,-.5 422.7865,-.5"/>
<text text-anchor="middle" x="454.7865" y="-7.5" font-family="Helvetica,sans-Serif" font-size="10.00" fill="#000000">mutt/lib.h</text>
</a>
</g>
</g>
<!-- Node0&#45;&gt;Node8 -->
<g id="edge8" class="edge">
<title>Node0&#45;&gt;Node8</title>
<path fill="none" stroke="#191970" d="M1365.0041,-232.2893C1472.0362,-226.8789 1788.6931,-209.2349 1829.7865,-188 1894.2318,-154.698 1976.2729,-108.0898 1925.7865,-56 1900.2554,-29.658 736.064,-13.5514 497.3042,-10.522"/>
<polygon fill="#191970" stroke="#191970" points="497.0021,-7.018 486.9587,-10.3916 496.9138,-14.0174 497.0021,-7.018"/>
</g>
<!-- Node48 -->
<g id="node10" class="node">
<title>Node48</title>
<g id="a_node10"><a xlink:href="config_2lib_8h.html" target="_top" xlink:title="Convenience wrapper for the config headers. ">
<polygon fill="#ffffff" stroke="#ff0000" points="1766.7865,-56.5 1766.7865,-75.5 1836.7865,-75.5 1836.7865,-56.5 1766.7865,-56.5"/>
<text text-anchor="middle" x="1801.7865" y="-63.5" font-family="Helvetica,sans-Serif" font-size="10.00" fill="#000000">config/lib.h</text>
</a>
</g>
</g>
<!-- Node0&#45;&gt;Node48 -->
<g id="edge9" class="edge">
<title>Node0&#45;&gt;Node48</title>
<path fill="none" stroke="#191970" d="M1365.1004,-233.0353C1456.4947,-230.1117 1698.7376,-219.5261 1771.7865,-188 1806.7969,-172.8904 1820.8967,-166.6632 1836.7865,-132 1844.5742,-115.0112 1832.5064,-96.2373 1820.4678,-83.0701"/>
<polygon fill="#191970" stroke="#191970" points="1822.6702,-80.3191 1813.1536,-75.6623 1817.689,-85.2373 1822.6702,-80.3191"/>
</g>
<!-- Node63 -->
<g id="node11" class="node">
<title>Node63</title>
<g id="a_node11"><a xlink:href="email_2lib_8h.html" target="_top" xlink:title="Structs that make up an email. ">
<polygon fill="#ffffff" stroke="#ff0000" points="2248.7865,-168.5 2248.7865,-187.5 2316.7865,-187.5 2316.7865,-168.5 2248.7865,-168.5"/>
<text text-anchor="middle" x="2282.7865" y="-175.5" font-family="Helvetica,sans-Serif" font-size="10.00" fill="#000000">email/lib.h</text>
</a>
</g>
</g>
<!-- Node0&#45;&gt;Node63 -->
<g id="edge10" class="edge">
<title>Node0&#45;&gt;Node63</title>
<path fill="none" stroke="#191970" d="M1364.967,-233.0598C1507.9607,-229.1111 2046.6942,-212.9695 2238.6554,-187.8788"/>
<polygon fill="#191970" stroke="#191970" points="2239.185,-191.339 2248.6221,-186.5234 2238.2417,-184.4029 2239.185,-191.339"/>
</g>
<!-- Node84 -->
<g id="node12" class="node">
<title>Node84</title>
<g id="a_node12"><a xlink:href="core_2lib_8h.html" target="_top" xlink:title="Convenience wrapper for the core headers. ">
<polygon fill="#ffffff" stroke="#ff0000" points="1854.7865,-56.5 1854.7865,-75.5 1916.7865,-75.5 1916.7865,-56.5 1854.7865,-56.5"/>
<text text-anchor="middle" x="1885.7865" y="-63.5" font-family="Helvetica,sans-Serif" font-size="10.00" fill="#000000">core/lib.h</text>
</a>
</g>
</g>
<!-- Node0&#45;&gt;Node84 -->
<g id="edge11" class="edge">
<title>Node0&#45;&gt;Node84</title>
<path fill="none" stroke="#191970" d="M1364.989,-232.1006C1468.1772,-226.3224 1765.0913,-208.1185 1803.7865,-188 1844.9459,-166.6004 1868.9974,-114.0792 1879.4842,-85.4229"/>
<polygon fill="#191970" stroke="#191970" points="1882.8782,-86.318 1882.8466,-75.7232 1876.2643,-84.0253 1882.8782,-86.318"/>
</g>
<!-- Node88 -->
<g id="node13" class="node">
<title>Node88</title>
<g id="a_node13"><a xlink:href="gui_2lib_8h.html" target="_top" xlink:title="Convenience wrapper for the gui headers. ">
<polygon fill="#ffffff" stroke="#ff0000" points="2334.7865,-168.5 2334.7865,-187.5 2390.7865,-187.5 2390.7865,-168.5 2334.7865,-168.5"/>
<text text-anchor="middle" x="2362.7865" y="-175.5" font-family="Helvetica,sans-Serif" font-size="10.00" fill="#000000">gui/lib.h</text>
</a>
</g>
</g>
<!-- Node0&#45;&gt;Node88 -->
<g id="edge12" class="edge">
<title>Node0&#45;&gt;Node88</title>
<path fill="none" stroke="#191970" d="M1364.8856,-233.4039C1516.3077,-230.6774 2115.0427,-218.2668 2324.6591,-187.7967"/>
<polygon fill="#191970" stroke="#191970" points="2325.2779,-191.2429 2334.6411,-186.2851 2324.2298,-184.3219 2325.2779,-191.2429"/>
</g>
<!-- Node92 -->
<g id="node14" class="node">
<title>Node92</title>
<g id="a_node14"><a xlink:href="mutt_8h.html" target="_top" xlink:title="Many unsorted constants and some structs. ">
<polygon fill="#ffffff" stroke="#ff0000" points="222.2865,-112.5 222.2865,-131.5 271.2865,-131.5 271.2865,-112.5 222.2865,-112.5"/>
<text text-anchor="middle" x="246.7865" y="-119.5" font-family="Helvetica,sans-Serif" font-size="10.00" fill="#000000">mutt.h</text>
</a>
</g>
</g>
<!-- Node0&#45;&gt;Node92 -->
<g id="edge13" class="edge">
<title>Node0&#45;&gt;Node92</title>
<path fill="none" stroke="#191970" d="M1294.6222,-233.388C1117.5196,-230.1878 329.9505,-214.5068 285.7865,-188 268.7261,-177.7605 258.2912,-156.9719 252.5617,-141.4473"/>
<polygon fill="#191970" stroke="#191970" points="255.8068,-140.1143 249.3233,-131.7348 249.1662,-142.3285 255.8068,-140.1143"/>
</g>
<!-- Node94 -->
<g id="node15" class="node">
<title>Node94</title>
<g id="a_node15"><a xlink:href="keymap_8h.html" target="_top" xlink:title="Manage keymappings. ">
<polygon fill="#ffffff" stroke="#ff0000" points="323.2865,-56.5 323.2865,-75.5 388.2865,-75.5 388.2865,-56.5 323.2865,-56.5"/>
<text text-anchor="middle" x="355.7865" y="-63.5" font-family="Helvetica,sans-Serif" font-size="10.00" fill="#000000">keymap.h</text>
</a>
</g>
</g>
<!-- Node0&#45;&gt;Node94 -->
<g id="edge37" class="edge">
<title>Node0&#45;&gt;Node94</title>
<path fill="none" stroke="#191970" d="M1294.6798,-233.6227C1139.2834,-231.7597 517.4956,-222.2109 437.7865,-188 404.5639,-173.7409 398.3994,-162.371 378.7865,-132 369.5409,-117.683 363.5172,-99.2092 359.963,-85.4493"/>
<polygon fill="#191970" stroke="#191970" points="363.3392,-84.5178 357.6277,-75.5943 356.5279,-86.1319 363.3392,-84.5178"/>
</g>
<!-- Node69 -->
<g id="node16" class="node">
<title>Node69</title>
<g id="a_node16"><a xlink:href="ncrypt_2lib_8h.html" target="_top" xlink:title="API for encryption/signing of emails. ">
<polygon fill="#ffffff" stroke="#ff0000" points="882.2865,-112.5 882.2865,-131.5 953.2865,-131.5 953.2865,-112.5 882.2865,-112.5"/>
<text text-anchor="middle" x="917.7865" y="-119.5" font-family="Helvetica,sans-Serif" font-size="10.00" fill="#000000">ncrypt/lib.h</text>
</a>
</g>
</g>
<!-- Node0&#45;&gt;Node69 -->
<g id="edge18" class="edge">
<title>Node0&#45;&gt;Node69</title>
<path fill="none" stroke="#191970" d="M1294.6074,-231.2284C1221.9044,-225.1411 1057.5634,-209.4205 1005.7865,-188 977.8827,-176.456 950.8758,-153.9923 934.3038,-138.503"/>
<polygon fill="#191970" stroke="#191970" points="936.6863,-135.9383 927.0485,-131.5377 931.8385,-140.988 936.6863,-135.9383"/>
</g>
<!-- Node103 -->
<g id="node17" class="node">
<title>Node103</title>
<g id="a_node17"><a xlink:href="pattern_2lib_8h.html" target="_top" xlink:title="Match patterns to emails. ">
<polygon fill="#ffffff" stroke="#ff0000" points="155.7865,-168.5 155.7865,-187.5 231.7865,-187.5 231.7865,-168.5 155.7865,-168.5"/>
<text text-anchor="middle" x="193.7865" y="-175.5" font-family="Helvetica,sans-Serif" font-size="10.00" fill="#000000">pattern/lib.h</text>
</a>
</g>
</g>
<!-- Node0&#45;&gt;Node103 -->
<g id="edge21" class="edge">
<title>Node0&#45;&gt;Node103</title>
<path fill="none" stroke="#191970" d="M1294.7045,-233.1908C1132.8129,-229.3521 456.8814,-212.1547 246.7865,-188 245.2749,-187.8262 243.7416,-187.6342 242.1955,-187.4269"/>
<polygon fill="#191970" stroke="#191970" points="242.3103,-183.9046 231.8994,-185.8704 241.2638,-190.826 242.3103,-183.9046"/>
</g>
<!-- Node104 -->
<g id="node18" class="node">
<title>Node104</title>
<g id="a_node18"><a xlink:href="send_2lib_8h.html" target="_top" xlink:title="Convenience wrapper for the send headers. ">
<polygon fill="#ffffff" stroke="#ff0000" points="1047.7865,-112.5 1047.7865,-131.5 1111.7865,-131.5 1111.7865,-112.5 1047.7865,-112.5"/>
<text text-anchor="middle" x="1079.7865" y="-119.5" font-family="Helvetica,sans-Serif" font-size="10.00" fill="#000000">send/lib.h</text>
</a>
</g>
</g>
<!-- Node0&#45;&gt;Node104 -->
<g id="edge26" class="edge">
<title>Node0&#45;&gt;Node104</title>
<path fill="none" stroke="#191970" d="M1294.5952,-230.1782C1257.0669,-224.9467 1196.8195,-213.1616 1150.7865,-188 1128.1092,-175.6046 1107.0905,-154.3316 1093.9004,-139.2918"/>
<polygon fill="#191970" stroke="#191970" points="1096.5636,-137.0208 1087.4172,-131.6735 1091.2327,-141.5575 1096.5636,-137.0208"/>
</g>
<!-- Node113 -->
<g id="node19" class="node">
<title>Node113</title>
<g id="a_node19"><a xlink:href="context_8h.html" target="_top" xlink:title="The &quot;currently&#45;open&quot; mailbox. ">
<polygon fill="#ffffff" stroke="#ff0000" points="1129.7865,-112.5 1129.7865,-131.5 1191.7865,-131.5 1191.7865,-112.5 1129.7865,-112.5"/>
<text text-anchor="middle" x="1160.7865" y="-119.5" font-family="Helvetica,sans-Serif" font-size="10.00" fill="#000000">context.h</text>
</a>
</g>
</g>
<!-- Node0&#45;&gt;Node113 -->
<g id="edge28" class="edge">
<title>Node0&#45;&gt;Node113</title>
<path fill="none" stroke="#191970" d="M1294.716,-229.2542C1250.7045,-222.5079 1179.001,-208.6289 1162.7865,-188 1152.6252,-175.0724 1153.2229,-155.9115 1155.7129,-141.5609"/>
<polygon fill="#191970" stroke="#191970" points="1159.151,-142.2208 1157.8391,-131.7075 1152.3085,-140.7442 1159.151,-142.2208"/>
</g>
<!-- Node114 -->
<g id="node20" class="node">
<title>Node114</title>
<g id="a_node20"><a xlink:href="format__flags_8h.html" target="_top" xlink:title="Flags to control mutt_expando_format() ">
<polygon fill="#ffffff" stroke="#ff0000" points="1359.2865,-56.5 1359.2865,-75.5 1446.2865,-75.5 1446.2865,-56.5 1359.2865,-56.5"/>
<text text-anchor="middle" x="1402.7865" y="-63.5" font-family="Helvetica,sans-Serif" font-size="10.00" fill="#000000">format_flags.h</text>
</a>
</g>
</g>
<!-- Node0&#45;&gt;Node114 -->
<g id="edge30" class="edge">
<title>Node0&#45;&gt;Node114</title>
<path fill="none" stroke="#191970" d="M1365.1747,-230.6627C1417.7279,-223.4482 1513.0826,-200.9814 1539.7865,-132 1554.5973,-93.7409 1500.9476,-77.6107 1456.493,-70.8414"/>
<polygon fill="#191970" stroke="#191970" points="1456.6958,-67.336 1446.3088,-69.4239 1455.7308,-74.2692 1456.6958,-67.336"/>
</g>
<!-- Node115 -->
<g id="node21" class="node">
<title>Node115</title>
<g id="a_node21"><a xlink:href="handler_8h.html" target="_top" xlink:title="Decide how to display email content. ">
<polygon fill="#ffffff" stroke="#ff0000" points="1171.7865,-168.5 1171.7865,-187.5 1233.7865,-187.5 1233.7865,-168.5 1171.7865,-168.5"/>
<text text-anchor="middle" x="1202.7865" y="-175.5" font-family="Helvetica,sans-Serif" font-size="10.00" fill="#000000">handler.h</text>
</a>
</g>
</g>
<!-- Node0&#45;&gt;Node115 -->
<g id="edge31" class="edge">
<title>Node0&#45;&gt;Node115</title>
<path fill="none" stroke="#191970" d="M1307.9544,-224.3733C1287.4762,-215.3435 1256.6467,-201.7494 1233.6546,-191.6111"/>
<polygon fill="#191970" stroke="#191970" points="1234.8958,-188.3333 1224.3337,-187.5011 1232.0715,-194.7383 1234.8958,-188.3333"/>
</g>
<!-- Node116 -->
<g id="node22" class="node">
<title>Node116</title>
<g id="a_node22"><a xlink:href="hdrline_8h.html" target="_top" xlink:title="String processing routines to generate the mail index. ">
<polygon fill="#ffffff" stroke="#000000" points="1286.2865,-112.5 1286.2865,-131.5 1345.2865,-131.5 1345.2865,-112.5 1286.2865,-112.5"/>
<text text-anchor="middle" x="1315.7865" y="-119.5" font-family="Helvetica,sans-Serif" font-size="10.00" fill="#000000">hdrline.h</text>
</a>
</g>
</g>
<!-- Node0&#45;&gt;Node116 -->
<g id="edge33" class="edge">
<title>Node0&#45;&gt;Node116</title>
<path fill="none" stroke="#191970" d="M1335.7533,-224.0838C1342.7865,-211.1042 1352.8019,-187.6899 1346.7865,-168 1343.6457,-157.7192 1337.3499,-147.6582 1331.2478,-139.5799"/>
<polygon fill="#191970" stroke="#191970" points="1333.8681,-137.2539 1324.8607,-131.6757 1328.4235,-141.6535 1333.8681,-137.2539"/>
</g>
<!-- Node117 -->
<g id="node23" class="node">
<title>Node117</title>
<g id="a_node23"><a xlink:href="mutt__globals_8h.html" target="_top" xlink:title="Hundreds of global variables to back the user variables. ">
<polygon fill="#ffffff" stroke="#ff0000" points="442.2865,-112.5 442.2865,-131.5 531.2865,-131.5 531.2865,-112.5 442.2865,-112.5"/>
<text text-anchor="middle" x="486.7865" y="-119.5" font-family="Helvetica,sans-Serif" font-size="10.00" fill="#000000">mutt_globals.h</text>
</a>
</g>
</g>
<!-- Node0&#45;&gt;Node117 -->
<g id="edge38" class="edge">
<title>Node0&#45;&gt;Node117</title>
<path fill="none" stroke="#191970" d="M1294.6169,-233.0085C1174.2446,-229.3954 779.3961,-215.6715 655.7865,-188 604.3107,-176.4765 547.8606,-151.7854 514.9731,-136.086"/>
<polygon fill="#191970" stroke="#191970" points="516.4763,-132.9252 505.9501,-131.721 513.4279,-139.2266 516.4763,-132.9252"/>
</g>
<!-- Node120 -->
<g id="node24" class="node">
<title>Node120</title>
<g id="a_node24"><a xlink:href="mutt__logging_8h.html" target="_top" xlink:title="NeoMutt Logging. ">
<polygon fill="#ffffff" stroke="#ff0000" points="1662.7865,-112.5 1662.7865,-131.5 1752.7865,-131.5 1752.7865,-112.5 1662.7865,-112.5"/>
<text text-anchor="middle" x="1707.7865" y="-119.5" font-family="Helvetica,sans-Serif" font-size="10.00" fill="#000000">mutt_logging.h</text>
</a>
</g>
</g>
<!-- Node0&#45;&gt;Node120 -->
<g id="edge43" class="edge">
<title>Node0&#45;&gt;Node120</title>
<path fill="none" stroke="#191970" d="M1365.0025,-233.5178C1443.0781,-231.7967 1627.6837,-223.9326 1676.7865,-188 1691.7483,-177.0512 1699.737,-157.0293 1703.8342,-141.8987"/>
<polygon fill="#191970" stroke="#191970" points="1707.2927,-142.481 1706.174,-131.9454 1700.4784,-140.8791 1707.2927,-142.481"/>
</g>
<!-- Node121 -->
<g id="node25" class="node">
<title>Node121</title>
<g id="a_node25"><a xlink:href="mutt__menu_8h.html" target="_top" xlink:title="GUI present the user with a selectable list. ">
<polygon fill="#ffffff" stroke="#ff0000" points="549.7865,-112.5 549.7865,-131.5 631.7865,-131.5 631.7865,-112.5 549.7865,-112.5"/>
<text text-anchor="middle" x="590.7865" y="-119.5" font-family="Helvetica,sans-Serif" font-size="10.00" fill="#000000">mutt_menu.h</text>
</a>
</g>
</g>
<!-- Node0&#45;&gt;Node121 -->
<g id="edge47" class="edge">
<title>Node0&#45;&gt;Node121</title>
<path fill="none" stroke="#191970" d="M1294.4442,-233.5391C1178.942,-231.7018 813.6287,-223.1831 701.7865,-188 667.1666,-177.1094 631.9472,-153.6025 610.7286,-137.789"/>
<polygon fill="#191970" stroke="#191970" points="612.6092,-134.8215 602.5347,-131.542 608.3651,-140.3883 612.6092,-134.8215"/>
</g>
<!-- Node122 -->
<g id="node26" class="node">
<title>Node122</title>
<g id="a_node26"><a xlink:href="mutt__thread_8h.html" target="_top" xlink:title="Create/manipulate threading in emails. ">
<polygon fill="#ffffff" stroke="#ff0000" points="1251.7865,-168.5 1251.7865,-187.5 1337.7865,-187.5 1337.7865,-168.5 1251.7865,-168.5"/>
<text text-anchor="middle" x="1294.7865" y="-175.5" font-family="Helvetica,sans-Serif" font-size="10.00" fill="#000000">mutt_thread.h</text>
</a>
</g>
</g>
<!-- Node0&#45;&gt;Node122 -->
<g id="edge53" class="edge">
<title>Node0&#45;&gt;Node122</title>
<path fill="none" stroke="#191970" d="M1323.69,-224.2455C1318.872,-216.5367 1312.0114,-205.5598 1306.1833,-196.2348"/>
<polygon fill="#191970" stroke="#191970" points="1309.0812,-194.2677 1300.8132,-187.6427 1303.1452,-197.9777 1309.0812,-194.2677"/>
</g>
<!-- Node123 -->
<g id="node27" class="node">
<title>Node123</title>
<g id="a_node27"><a xlink:href="muttlib_8h.html" target="_top" xlink:title="Some miscellaneous functions. ">
<polygon fill="#ffffff" stroke="#ff0000" points="1363.2865,-112.5 1363.2865,-131.5 1424.2865,-131.5 1424.2865,-112.5 1363.2865,-112.5"/>
<text text-anchor="middle" x="1393.7865" y="-119.5" font-family="Helvetica,sans-Serif" font-size="10.00" fill="#000000">muttlib.h</text>
</a>
</g>
</g>
<!-- Node0&#45;&gt;Node123 -->
<g id="edge55" class="edge">
<title>Node0&#45;&gt;Node123</title>
<path fill="none" stroke="#191970" d="M1336.815,-224.3659C1343.3586,-215.2182 1353.2134,-200.9749 1360.7865,-188 1369.8435,-172.4826 1378.8814,-154.1584 1385.2027,-140.7601"/>
<polygon fill="#191970" stroke="#191970" points="1388.4182,-142.146 1389.4625,-131.6027 1382.0713,-139.1935 1388.4182,-142.146"/>
</g>
<!-- Node125 -->
<g id="node28" class="node">
<title>Node125</title>
<g id="a_node28"><a xlink:href="mx_8h.html" target="_top" xlink:title="API for mailboxes. ">
<polygon fill="#ffffff" stroke="#ff0000" points="1771.2865,-112.5 1771.2865,-131.5 1812.2865,-131.5 1812.2865,-112.5 1771.2865,-112.5"/>
<text text-anchor="middle" x="1791.7865" y="-119.5" font-family="Helvetica,sans-Serif" font-size="10.00" fill="#000000">mx.h</text>
</a>
</g>
</g>
<!-- Node0&#45;&gt;Node125 -->
<g id="edge59" class="edge">
<title>Node0&#45;&gt;Node125</title>
<path fill="none" stroke="#191970" d="M1364.8919,-231.8164C1444.8428,-226.4919 1638.2351,-211.5279 1698.7865,-188 1727.9675,-176.6614 1756.5814,-154.1494 1774.1955,-138.5931"/>
<polygon fill="#191970" stroke="#191970" points="1776.8565,-140.9048 1781.9131,-131.5945 1772.1542,-135.7194 1776.8565,-140.9048"/>
</g>
<!-- Node126 -->
<g id="node29" class="node">
<title>Node126</title>
<g id="a_node29"><a xlink:href="opcodes_8h.html" target="_top" xlink:title="All user&#45;callable functions. ">
<polygon fill="#ffffff" stroke="#000000" points="23.7865,-56.5 23.7865,-75.5 89.7865,-75.5 89.7865,-56.5 23.7865,-56.5"/>
<text text-anchor="middle" x="56.7865" y="-63.5" font-family="Helvetica,sans-Serif" font-size="10.00" fill="#000000">opcodes.h</text>
</a>
</g>
</g>
<!-- Node0&#45;&gt;Node126 -->
<g id="edge65" class="edge">
<title>Node0&#45;&gt;Node126</title>
<path fill="none" stroke="#191970" d="M1294.507,-233.487C1103.3858,-230.6003 198.752,-215.5203 146.7865,-188 104.5054,-165.6084 76.8915,-113.504 64.4334,-85.1727"/>
<polygon fill="#191970" stroke="#191970" points="67.5059,-83.4502 60.4018,-75.59 61.0537,-86.1648 67.5059,-83.4502"/>
</g>
<!-- Node127 -->
<g id="node30" class="node">
<title>Node127</title>
<g id="a_node30"><a xlink:href="options_8h.html" target="_top" xlink:title="Handling of global boolean variables. ">
<polygon fill="#ffffff" stroke="#ff0000" points="763.7865,-112.5 763.7865,-131.5 825.7865,-131.5 825.7865,-112.5 763.7865,-112.5"/>
<text text-anchor="middle" x="794.7865" y="-119.5" font-family="Helvetica,sans-Serif" font-size="10.00" fill="#000000">options.h</text>
</a>
</g>
</g>
<!-- Node0&#45;&gt;Node127 -->
<g id="edge68" class="edge">
<title>Node0&#45;&gt;Node127</title>
<path fill="none" stroke="#191970" d="M1294.7007,-232.7404C1203.2714,-229.0838 959.6139,-216.8402 884.7865,-188 856.198,-176.9813 828.5892,-154.394 811.6571,-138.7333"/>
<polygon fill="#191970" stroke="#191970" points="813.9029,-136.0391 804.2451,-131.6828 809.0784,-141.111 813.9029,-136.0391"/>
</g>
<!-- Node128 -->
<g id="node31" class="node">
<title>Node128</title>
<g id="a_node31"><a xlink:href="protos_8h.html" target="_top" xlink:title="Prototypes for many functions. ">
<polygon fill="#ffffff" stroke="#ff0000" points="446.7865,-168.5 446.7865,-187.5 502.7865,-187.5 502.7865,-168.5 446.7865,-168.5"/>
<text text-anchor="middle" x="474.7865" y="-175.5" font-family="Helvetica,sans-Serif" font-size="10.00" fill="#000000">protos.h</text>
</a>
</g>
</g>
<!-- Node0&#45;&gt;Node128 -->
<g id="edge70" class="edge">
<title>Node0&#45;&gt;Node128</title>
<path fill="none" stroke="#191970" d="M1294.7102,-233.7492C1182.272,-232.571 820.8912,-225.8805 524.7865,-188 520.8968,-187.5024 516.8562,-186.8776 512.8334,-186.1845"/>
<polygon fill="#191970" stroke="#191970" points="513.4367,-182.7368 502.9661,-184.3545 512.1602,-189.6194 513.4367,-182.7368"/>
</g>
<!-- Node129 -->
<g id="node32" class="node">
<title>Node129</title>
<g id="a_node32"><a xlink:href="rfc3676_8h.html" target="_top" xlink:title="RFC3676 Format Flowed routines. ">
<polygon fill="#ffffff" stroke="#000000" points="710.7865,-168.5 710.7865,-187.5 772.7865,-187.5 772.7865,-168.5 710.7865,-168.5"/>
<text text-anchor="middle" x="741.7865" y="-175.5" font-family="Helvetica,sans-Serif" font-size="10.00" fill="#000000">rfc3676.h</text>
</a>
</g>
</g>
<!-- Node0&#45;&gt;Node129 -->
<g id="edge78" class="edge">
<title>Node0&#45;&gt;Node129</title>
<path fill="none" stroke="#191970" d="M1294.602,-231.0238C1212.9151,-224.0571 1004.0839,-205.9189 829.7865,-188 814.6476,-186.4436 798.0606,-184.5959 783.4082,-182.9148"/>
<polygon fill="#191970" stroke="#191970" points="783.4651,-179.3981 773.1294,-181.7267 782.6613,-186.3519 783.4651,-179.3981"/>
</g>
<!-- Node130 -->
<g id="node33" class="node">
<title>Node130</title>
<g id="a_node33"><a xlink:href="sort_8h.html" target="_top" xlink:title="Assorted sorting methods. ">
<polygon fill="#ffffff" stroke="#ff0000" points="893.7865,-168.5 893.7865,-187.5 937.7865,-187.5 937.7865,-168.5 893.7865,-168.5"/>
<text text-anchor="middle" x="915.7865" y="-175.5" font-family="Helvetica,sans-Serif" font-size="10.00" fill="#000000">sort.h</text>
</a>
</g>
</g>
<!-- Node0&#45;&gt;Node130 -->
<g id="edge80" class="edge">
<title>Node0&#45;&gt;Node130</title>
<path fill="none" stroke="#191970" d="M1294.7263,-230.6077C1229.2515,-224.0506 1084.0418,-208.4606 962.7865,-188 958,-187.1923 952.9612,-186.2352 948.0321,-185.2382"/>
<polygon fill="#191970" stroke="#191970" points="948.6903,-181.8002 938.1845,-183.1711 947.2522,-188.6509 948.6903,-181.8002"/>
</g>
<!-- Node131 -->
<g id="node34" class="node">
<title>Node131</title>
<g id="a_node34"><a xlink:href="state_8h.html" target="_top" xlink:title="Keep track when processing files. ">
<polygon fill="#ffffff" stroke="#ff0000" points="1480.7865,-112.5 1480.7865,-131.5 1530.7865,-131.5 1530.7865,-112.5 1480.7865,-112.5"/>
<text text-anchor="middle" x="1505.7865" y="-119.5" font-family="Helvetica,sans-Serif" font-size="10.00" fill="#000000">state.h</text>
</a>
</g>
</g>
<!-- Node0&#45;&gt;Node131 -->
<g id="edge84" class="edge">
<title>Node0&#45;&gt;Node131</title>
<path fill="none" stroke="#191970" d="M1364.8655,-229.2182C1394.6861,-223.6356 1437.2426,-211.9161 1466.7865,-188 1481.9366,-175.7359 1492.5163,-155.9035 1498.7967,-141.1761"/>
<polygon fill="#191970" stroke="#191970" points="1502.1865,-142.1219 1502.6137,-131.5356 1495.6781,-139.5449 1502.1865,-142.1219"/>
</g>
<!-- Node132 -->
<g id="node35" class="node">
<title>Node132</title>
<g id="a_node35"><a xlink:href="imap_2lib_8h.html" target="_top" xlink:title="IMAP network mailbox. ">
<polygon fill="#ffffff" stroke="#ff0000" points="1602.2865,-168.5 1602.2865,-187.5 1667.2865,-187.5 1667.2865,-168.5 1602.2865,-168.5"/>
<text text-anchor="middle" x="1634.7865" y="-175.5" font-family="Helvetica,sans-Serif" font-size="10.00" fill="#000000">imap/lib.h</text>
</a>
</g>
</g>
<!-- Node0&#45;&gt;Node132 -->
<g id="edge86" class="edge">
<title>Node0&#45;&gt;Node132</title>
<path fill="none" stroke="#191970" d="M1365.0718,-227.5214C1421.4,-217.1792 1531.4533,-196.9727 1592.1177,-185.8343"/>
<polygon fill="#191970" stroke="#191970" points="1592.9268,-189.2443 1602.1303,-183.9959 1591.6627,-182.3594 1592.9268,-189.2443"/>
</g>
<!-- Node92&#45;&gt;Node1 -->
<g id="edge14" class="edge">
<title>Node92&#45;&gt;Node1</title>
<path fill="none" stroke="#191970" d="M250.879,-112.4509C258.8139,-93.936 276.4183,-52.8591 286.7642,-28.7187"/>
<polygon fill="#191970" stroke="#191970" points="289.9822,-30.0951 290.7044,-19.5249 283.5482,-27.3376 289.9822,-30.0951"/>
</g>
<!-- Node92&#45;&gt;Node94 -->
<g id="edge15" class="edge">
<title>Node92&#45;&gt;Node94</title>
<path fill="none" stroke="#191970" d="M265.7729,-112.2455C282.9657,-103.4125 308.5103,-90.2887 327.9997,-80.2758"/>
<polygon fill="#191970" stroke="#191970" points="329.7224,-83.3257 337.0177,-75.6427 326.5235,-77.0993 329.7224,-83.3257"/>
</g>
<!-- Node94&#45;&gt;Node1 -->
<g id="edge16" class="edge">
<title>Node94&#45;&gt;Node1</title>
<path fill="none" stroke="#191970" d="M345.1611,-56.2455C336.2392,-48.0549 323.2985,-36.1749 312.7673,-26.5069"/>
<polygon fill="#191970" stroke="#191970" points="315.0237,-23.8271 305.2901,-19.6427 310.2897,-28.9837 315.0237,-23.8271"/>
</g>
<!-- Node94&#45;&gt;Node8 -->
<g id="edge17" class="edge">
<title>Node94&#45;&gt;Node8</title>
<path fill="none" stroke="#191970" d="M373.031,-56.2455C388.3626,-47.5731 411.0064,-34.7645 428.5781,-24.825"/>
<polygon fill="#191970" stroke="#191970" points="430.7589,-27.6126 437.7396,-19.6427 427.3124,-21.5198 430.7589,-27.6126"/>
</g>
<!-- Node69&#45;&gt;Node2 -->
<g id="edge19" class="edge">
<title>Node69&#45;&gt;Node2</title>
<path fill="none" stroke="#191970" d="M940.4781,-112.3733C961.8576,-103.3032 994.0922,-89.6279 1018.0227,-79.4755"/>
<polygon fill="#191970" stroke="#191970" points="1019.5521,-82.6287 1027.391,-75.5011 1016.8182,-76.1846 1019.5521,-82.6287"/>
</g>
<!-- Node69&#45;&gt;Node3 -->
<g id="edge20" class="edge">
<title>Node69&#45;&gt;Node3</title>
<path fill="none" stroke="#191970" d="M953.5133,-114.557C958.3028,-113.6465 963.158,-112.7679 967.7865,-112 1081.4517,-93.1422 1217.0337,-77.049 1280.165,-69.9224"/>
<polygon fill="#191970" stroke="#191970" points="1280.8286,-73.37 1290.376,-68.7768 1280.0481,-66.4136 1280.8286,-73.37"/>
</g>
<!-- Node103&#45;&gt;Node1 -->
<g id="edge22" class="edge">
<title>Node103&#45;&gt;Node1</title>
<path fill="none" stroke="#191970" d="M176.7298,-168.377C164.4776,-160.4014 148.9157,-147.8248 141.7865,-132 127.9124,-101.2031 121.6317,-83.1057 141.7865,-56 155.6326,-37.3787 216.7388,-23.4484 257.4122,-16.0319"/>
<polygon fill="#191970" stroke="#191970" points="258.0341,-19.4763 267.2715,-14.2877 256.8147,-12.5833 258.0341,-19.4763"/>
</g>
<!-- Node103&#45;&gt;Node2 -->
<g id="edge23" class="edge">
<title>Node103&#45;&gt;Node2</title>
<path fill="none" stroke="#191970" d="M193.3767,-168.0335C193.3706,-153.1759 195.8132,-125.522 212.7865,-112 244.1821,-86.9885 843.2893,-70.9187 1008.1228,-66.9581"/>
<polygon fill="#191970" stroke="#191970" points="1008.4276,-70.452 1018.3414,-66.7148 1008.2609,-63.4539 1008.4276,-70.452"/>
</g>
<!-- Node103&#45;&gt;Node8 -->
<g id="edge24" class="edge">
<title>Node103&#45;&gt;Node8</title>
<path fill="none" stroke="#191970" d="M191.113,-168.1041C187.9988,-154.305 184.5933,-129.0612 195.7865,-112 220.4341,-74.4309 345.9313,-37.6224 412.7624,-20.2922"/>
<polygon fill="#191970" stroke="#191970" points="413.7507,-23.6521 422.5692,-17.7798 412.0135,-16.8711 413.7507,-23.6521"/>
</g>
<!-- Node103&#45;&gt;Node92 -->
<g id="edge25" class="edge">
<title>Node103&#45;&gt;Node92</title>
<path fill="none" stroke="#191970" d="M203.0184,-168.2455C210.6182,-160.2155 221.5742,-148.6394 230.6233,-139.0781"/>
<polygon fill="#191970" stroke="#191970" points="233.3286,-141.3115 237.6604,-131.6427 228.2445,-136.4998 233.3286,-141.3115"/>
</g>
<!-- Node104&#45;&gt;Node2 -->
<g id="edge27" class="edge">
<title>Node104&#45;&gt;Node2</title>
<path fill="none" stroke="#191970" d="M1074.5609,-112.2455C1070.4742,-104.617 1064.673,-93.7881 1059.7116,-84.5267"/>
<polygon fill="#191970" stroke="#191970" points="1062.7597,-82.8047 1054.9522,-75.6427 1056.5893,-86.1103 1062.7597,-82.8047"/>
</g>
<!-- Node113&#45;&gt;Node2 -->
<g id="edge29" class="edge">
<title>Node113&#45;&gt;Node2</title>
<path fill="none" stroke="#191970" d="M1141.7049,-112.3733C1124.0464,-103.4644 1097.5813,-90.1127 1077.5767,-80.0203"/>
<polygon fill="#191970" stroke="#191970" points="1079.1238,-76.8806 1068.6191,-75.5011 1075.9707,-83.1303 1079.1238,-76.8806"/>
</g>
<!-- Node115&#45;&gt;Node2 -->
<g id="edge32" class="edge">
<title>Node115&#45;&gt;Node2</title>
<path fill="none" stroke="#191970" d="M1205.6758,-168.3375C1209.2161,-154.3628 1213.3184,-128.3931 1200.7865,-112 1187.3512,-94.4252 1130.8063,-80.7224 1090.8694,-72.9977"/>
<polygon fill="#191970" stroke="#191970" points="1091.3311,-69.5233 1080.8569,-71.1177 1090.0392,-76.4031 1091.3311,-69.5233"/>
</g>
<!-- Node116&#45;&gt;Node2 -->
<g id="edge34" class="edge">
<title>Node116&#45;&gt;Node2</title>
<path fill="none" stroke="#191970" d="M1285.9817,-115.145C1281.2367,-114.0771 1276.3796,-112.9977 1271.7865,-112 1208.8046,-98.3191 1135.5669,-83.3198 1090.9608,-74.2859"/>
<polygon fill="#191970" stroke="#191970" points="1091.572,-70.8388 1081.0766,-72.2869 1090.1843,-77.6998 1091.572,-70.8388"/>
</g>
<!-- Node116&#45;&gt;Node3 -->
<g id="edge35" class="edge">
<title>Node116&#45;&gt;Node3</title>
<path fill="none" stroke="#191970" d="M1315.7865,-112.2455C1315.7865,-104.9382 1315.7865,-94.6944 1315.7865,-85.7046"/>
<polygon fill="#191970" stroke="#191970" points="1319.2866,-85.6426 1315.7865,-75.6427 1312.2866,-85.6427 1319.2866,-85.6426"/>
</g>
<!-- Node116&#45;&gt;Node114 -->
<g id="edge36" class="edge">
<title>Node116&#45;&gt;Node114</title>
<path fill="none" stroke="#191970" d="M1330.9408,-112.2455C1344.2892,-103.6534 1363.9451,-91.0014 1379.3248,-81.1018"/>
<polygon fill="#191970" stroke="#191970" points="1381.2916,-83.9982 1387.8059,-75.6427 1377.5029,-78.1121 1381.2916,-83.9982"/>
</g>
<!-- Node117&#45;&gt;Node1 -->
<g id="edge39" class="edge">
<title>Node117&#45;&gt;Node1</title>
<path fill="none" stroke="#191970" d="M475.5426,-112.3958C459.181,-98.7224 427.5121,-73.379 397.7865,-56 375.9926,-43.2582 350.031,-31.685 329.6248,-23.3343"/>
<polygon fill="#191970" stroke="#191970" points="330.6799,-19.9862 320.0961,-19.5027 328.0683,-26.4808 330.6799,-19.9862"/>
</g>
<!-- Node117&#45;&gt;Node2 -->
<g id="edge40" class="edge">
<title>Node117&#45;&gt;Node2</title>
<path fill="none" stroke="#191970" d="M531.5237,-113.3841C534.6533,-112.8834 537.7639,-112.4155 540.7865,-112 713.7695,-88.219 921.5845,-73.8171 1008.459,-68.4274"/>
<polygon fill="#191970" stroke="#191970" points="1008.9199,-71.9058 1018.6868,-67.8 1008.4913,-64.9189 1008.9199,-71.9058"/>
</g>
<!-- Node117&#45;&gt;Node8 -->
<g id="edge41" class="edge">
<title>Node117&#45;&gt;Node8</title>
<path fill="none" stroke="#191970" d="M484.1923,-112.1349C480.7715,-99.2106 474.5144,-75.856 468.7865,-56 466.2768,-47.3 463.3805,-37.7143 460.8757,-29.5552"/>
<polygon fill="#191970" stroke="#191970" points="464.1716,-28.3659 457.874,-19.8458 457.4839,-30.4335 464.1716,-28.3659"/>
</g>
<!-- Node117&#45;&gt;Node94 -->
<g id="edge42" class="edge">
<title>Node117&#45;&gt;Node94</title>
<path fill="none" stroke="#191970" d="M464.2668,-112.3733C443.0493,-103.3032 411.0589,-89.6279 387.3097,-79.4755"/>
<polygon fill="#191970" stroke="#191970" points="388.5832,-76.2136 378.0124,-75.5011 385.8317,-82.6502 388.5832,-76.2136"/>
</g>
<!-- Node120&#45;&gt;Node2 -->
<g id="edge44" class="edge">
<title>Node120&#45;&gt;Node2</title>
<path fill="none" stroke="#191970" d="M1662.4058,-117.1233C1646.1326,-115.427 1627.644,-113.5599 1610.7865,-112 1416.3673,-94.0095 1183.702,-76.081 1090.9169,-69.0763"/>
<polygon fill="#191970" stroke="#191970" points="1091.0574,-65.5771 1080.8227,-68.3157 1090.5314,-72.5573 1091.0574,-65.5771"/>
</g>
<!-- Node120&#45;&gt;Node6 -->
<g id="edge45" class="edge">
<title>Node120&#45;&gt;Node6</title>
<path fill="none" stroke="#191970" d="M1710.7477,-112.2455C1712.9904,-104.8579 1716.1442,-94.4689 1718.8946,-85.4087"/>
<polygon fill="#191970" stroke="#191970" points="1722.3035,-86.2282 1721.8593,-75.6427 1715.6053,-84.1948 1722.3035,-86.2282"/>
</g>
<!-- Node120&#45;&gt;Node8 -->
<g id="edge46" class="edge">
<title>Node120&#45;&gt;Node8</title>
<path fill="none" stroke="#191970" d="M1702.4826,-112.1325C1693.6586,-96.8701 1674.3733,-68.0434 1648.7865,-56 1595.6892,-31.0078 703.3228,-14.2535 497.0849,-10.704"/>
<polygon fill="#191970" stroke="#191970" points="497.016,-7.2024 486.9576,-10.5308 496.8963,-14.2014 497.016,-7.2024"/>
</g>
<!-- Node121&#45;&gt;Node1 -->
<g id="edge48" class="edge">
<title>Node121&#45;&gt;Node1</title>
<path fill="none" stroke="#191970" d="M568.1029,-112.4758C536.5764,-99.3294 477.6477,-75.0843 426.7865,-56 395.0541,-44.0933 358.6593,-31.4875 332.1331,-22.489"/>
<polygon fill="#191970" stroke="#191970" points="333.0744,-19.1127 322.4802,-19.2258 330.8326,-25.744 333.0744,-19.1127"/>
</g>
<!-- Node121&#45;&gt;Node2 -->
<g id="edge49" class="edge">
<title>Node121&#45;&gt;Node2</title>
<path fill="none" stroke="#191970" d="M631.8827,-114.2199C636.5646,-113.4251 641.274,-112.6664 645.7865,-112 777.9106,-92.4889 935.4029,-76.6923 1008.6025,-69.7766"/>
<polygon fill="#191970" stroke="#191970" points="1009.1488,-73.2408 1018.7778,-68.8213 1008.4944,-66.2715 1009.1488,-73.2408"/>
</g>
<!-- Node121&#45;&gt;Node3 -->
<g id="edge50" class="edge">
<title>Node121&#45;&gt;Node3</title>
<path fill="none" stroke="#191970" d="M631.9599,-117.2644C648.1078,-115.4879 666.8045,-113.5306 683.7865,-112 911.1106,-91.5115 1185.0749,-74.019 1280.7723,-68.1235"/>
<polygon fill="#191970" stroke="#191970" points="1281.0044,-71.6159 1290.7712,-67.5098 1280.5755,-64.6291 1281.0044,-71.6159"/>
</g>
<!-- Node121&#45;&gt;Node8 -->
<g id="edge51" class="edge">
<title>Node121&#45;&gt;Node8</title>
<path fill="none" stroke="#191970" d="M586.6979,-112.3117C580.3712,-98.3048 567.0106,-72.2954 548.7865,-56 533.0163,-41.8988 512.1456,-31.1088 494.0766,-23.5351"/>
<polygon fill="#191970" stroke="#191970" points="494.9615,-20.1196 484.3767,-19.6578 492.3632,-26.6195 494.9615,-20.1196"/>
</g>
<!-- Node121&#45;&gt;Node94 -->
<g id="edge52" class="edge">
<title>Node121&#45;&gt;Node94</title>
<path fill="none" stroke="#191970" d="M550.6556,-112.4369C508.3003,-102.3437 441.8,-86.4968 398.4951,-76.1774"/>
<polygon fill="#191970" stroke="#191970" points="399.0906,-72.7213 388.5516,-73.8078 397.4679,-79.5307 399.0906,-72.7213"/>
</g>
<!-- Node122&#45;&gt;Node2 -->
<g id="edge54" class="edge">
<title>Node122&#45;&gt;Node2</title>
<path fill="none" stroke="#191970" d="M1286.2996,-168.4097C1273.0685,-154.0435 1246.0912,-127.0227 1217.7865,-112 1177.4297,-90.5807 1126.192,-78.4215 1090.9736,-72.0528"/>
<polygon fill="#191970" stroke="#191970" points="1091.4887,-68.59 1081.0382,-70.3327 1090.2945,-75.4874 1091.4887,-68.59"/>
</g>
<!-- Node123&#45;&gt;Node2 -->
<g id="edge56" class="edge">
<title>Node123&#45;&gt;Node2</title>
<path fill="none" stroke="#191970" d="M1363.1974,-113.8445C1360.3624,-113.1831 1357.5265,-112.5564 1354.7865,-112 1261.2189,-92.9991 1150.0402,-78.1522 1091.1675,-70.8897"/>
<polygon fill="#191970" stroke="#191970" points="1091.4948,-67.4038 1081.144,-69.6643 1090.6453,-74.352 1091.4948,-67.4038"/>
</g>
<!-- Node123&#45;&gt;Node3 -->
<g id="edge57" class="edge">
<title>Node123&#45;&gt;Node3</title>
<path fill="none" stroke="#191970" d="M1380.2,-112.2455C1368.456,-103.814 1351.2666,-91.4729 1337.5983,-81.6598"/>
<polygon fill="#191970" stroke="#191970" points="1339.3819,-78.6316 1329.2174,-75.6427 1335.2994,-84.3179 1339.3819,-78.6316"/>
</g>
<!-- Node123&#45;&gt;Node114 -->
<g id="edge58" class="edge">
<title>Node123&#45;&gt;Node114</title>
<path fill="none" stroke="#191970" d="M1395.3542,-112.2455C1396.5286,-104.9382 1398.1749,-94.6944 1399.6197,-85.7046"/>
<polygon fill="#191970" stroke="#191970" points="1403.1056,-86.0714 1401.2368,-75.6427 1396.1943,-84.9606 1403.1056,-86.0714"/>
</g>
<!-- Node125&#45;&gt;Node2 -->
<g id="edge60" class="edge">
<title>Node125&#45;&gt;Node2</title>
<path fill="none" stroke="#191970" d="M1770.9899,-114.3067C1767.9366,-113.4005 1764.8038,-112.5901 1761.7865,-112 1696.0388,-99.1416 1232.9512,-75.1655 1091.0309,-68.0446"/>
<polygon fill="#191970" stroke="#191970" points="1091.1533,-64.5464 1080.9908,-67.5421 1090.8033,-71.5376 1091.1533,-64.5464"/>
</g>
<!-- Node125&#45;&gt;Node3 -->
<g id="edge61" class="edge">
<title>Node125&#45;&gt;Node3</title>
<path fill="none" stroke="#191970" d="M1770.9772,-114.3697C1767.9257,-113.4543 1764.7968,-112.6245 1761.7865,-112 1582.2435,-74.7518 1531.0963,-109.3391 1350.7865,-76 1350.6855,-75.9813 1350.5844,-75.9625 1350.4832,-75.9435"/>
<polygon fill="#191970" stroke="#191970" points="1351.4085,-72.5641 1340.885,-73.7916 1349.8771,-79.3946 1351.4085,-72.5641"/>
</g>
<!-- Node125&#45;&gt;Node6 -->
<g id="edge62" class="edge">
<title>Node125&#45;&gt;Node6</title>
<path fill="none" stroke="#191970" d="M1780.116,-112.2455C1770.2204,-103.9746 1755.8238,-91.9416 1744.1964,-82.2232"/>
<polygon fill="#191970" stroke="#191970" points="1746.2407,-79.3703 1736.3233,-75.6427 1741.7515,-84.7413 1746.2407,-79.3703"/>
</g>
<!-- Node125&#45;&gt;Node48 -->
<g id="edge63" class="edge">
<title>Node125&#45;&gt;Node48</title>
<path fill="none" stroke="#191970" d="M1793.5284,-112.2455C1794.8333,-104.9382 1796.6625,-94.6944 1798.2678,-85.7046"/>
<polygon fill="#191970" stroke="#191970" points="1801.7521,-86.1022 1800.0646,-75.6427 1794.8611,-84.8717 1801.7521,-86.1022"/>
</g>
<!-- Node125&#45;&gt;Node84 -->
<g id="edge64" class="edge">
<title>Node125&#45;&gt;Node84</title>
<path fill="none" stroke="#191970" d="M1808.1601,-112.2455C1822.7173,-103.5731 1844.2175,-90.7645 1860.9017,-80.825"/>
<polygon fill="#191970" stroke="#191970" points="1862.8009,-83.7676 1869.6006,-75.6427 1859.2182,-77.7539 1862.8009,-83.7676"/>
</g>
<!-- Node126&#45;&gt;Node1 -->
<g id="edge66" class="edge">
<title>Node126&#45;&gt;Node1</title>
<path fill="none" stroke="#191970" d="M89.8794,-58.2134C133.8153,-47.8756 211.2049,-29.6663 257.2654,-18.8285"/>
<polygon fill="#191970" stroke="#191970" points="258.2179,-22.2 267.1504,-16.5026 256.6146,-15.3861 258.2179,-22.2"/>
</g>
<!-- Node126&#45;&gt;Node8 -->
<g id="edge67" class="edge">
<title>Node126&#45;&gt;Node8</title>
<path fill="none" stroke="#191970" d="M90.0352,-61.3218C162.1806,-51.1707 332.9881,-27.1375 412.5913,-15.937"/>
<polygon fill="#191970" stroke="#191970" points="413.3298,-19.3677 422.7446,-14.5084 412.3544,-12.4359 413.3298,-19.3677"/>
</g>
<!-- Node127&#45;&gt;Node2 -->
<g id="edge69" class="edge">
<title>Node127&#45;&gt;Node2</title>
<path fill="none" stroke="#191970" d="M826.2551,-114.9943C830.795,-113.9873 835.41,-112.9656 839.7865,-112 898.3724,-99.0739 966.1825,-84.2441 1008.5337,-74.9977"/>
<polygon fill="#191970" stroke="#191970" points="1009.4474,-78.3808 1018.471,-72.8286 1007.9546,-71.5418 1009.4474,-78.3808"/>
</g>
<!-- Node128&#45;&gt;Node1 -->
<g id="edge71" class="edge">
<title>Node128&#45;&gt;Node1</title>
<path fill="none" stroke="#191970" d="M446.573,-168.4953C409.6979,-154.4874 346.1353,-124.5764 314.7865,-76 305.6681,-61.8706 300.535,-43.3785 297.7589,-29.5639"/>
<polygon fill="#191970" stroke="#191970" points="301.1955,-28.8978 296.0068,-19.6605 294.3025,-30.1173 301.1955,-28.8978"/>
</g>
<!-- Node128&#45;&gt;Node2 -->
<g id="edge72" class="edge">
<title>Node128&#45;&gt;Node2</title>
<path fill="none" stroke="#191970" d="M502.839,-171.7241C536.2073,-163.9177 593.3598,-149.4649 640.7865,-132 660.5652,-124.7165 663.5313,-117.8287 683.7865,-112 798.2874,-79.0512 939.6685,-69.6979 1008.385,-67.0464"/>
<polygon fill="#191970" stroke="#191970" points="1008.9056,-70.5302 1018.7744,-66.6758 1008.656,-63.5346 1008.9056,-70.5302"/>
</g>
<!-- Node128&#45;&gt;Node3 -->
<g id="edge73" class="edge">
<title>Node128&#45;&gt;Node3</title>
<path fill="none" stroke="#191970" d="M502.7982,-171.8027C541.6817,-163.1515 614.1873,-146.844 675.7865,-132 710.9974,-123.515 719.0589,-117.9449 754.7865,-112 856.8368,-95.0194 1173.8268,-74.6612 1280.4124,-68.1278"/>
<polygon fill="#191970" stroke="#191970" points="1280.864,-71.6069 1290.6323,-67.5043 1280.4376,-64.6198 1280.864,-71.6069"/>
</g>
<!-- Node128&#45;&gt;Node8 -->
<g id="edge74" class="edge">
<title>Node128&#45;&gt;Node8</title>
<path fill="none" stroke="#191970" d="M462.0617,-168.2466C452.2458,-159.8582 439.4232,-146.7955 433.7865,-132 420.4635,-97.0289 434.9799,-53.1888 445.6281,-28.7237"/>
<polygon fill="#191970" stroke="#191970" points="448.868,-30.0553 449.8623,-19.5072 442.5071,-27.1329 448.868,-30.0553"/>
</g>
<!-- Node128&#45;&gt;Node92 -->
<g id="edge75" class="edge">
<title>Node128&#45;&gt;Node92</title>
<path fill="none" stroke="#191970" d="M446.3712,-171.0208C404.5087,-160.7388 326.3612,-141.5447 281.2728,-130.4703"/>
<polygon fill="#191970" stroke="#191970" points="281.9172,-127.0246 271.3709,-128.0383 280.2474,-133.8226 281.9172,-127.0246"/>
</g>
<!-- Node128&#45;&gt;Node94 -->
<g id="edge77" class="edge">
<title>Node128&#45;&gt;Node94</title>
<path fill="none" stroke="#191970" d="M454.0427,-168.3873C437.9865,-160.2548 415.8514,-147.4682 399.7865,-132 385.4395,-118.1858 373.2599,-98.9155 365.3778,-84.7628"/>
<polygon fill="#191970" stroke="#191970" points="368.4429,-83.0725 360.6337,-75.9124 362.2734,-86.3796 368.4429,-83.0725"/>
</g>
<!-- Node128&#45;&gt;Node69 -->
<g id="edge76" class="edge">
<title>Node128&#45;&gt;Node69</title>
<path fill="none" stroke="#191970" d="M502.8342,-174.4545C577.2799,-165.0437 780.4127,-139.3655 871.966,-127.7922"/>
<polygon fill="#191970" stroke="#191970" points="872.5583,-131.2453 882.0404,-126.5187 871.6804,-124.3005 872.5583,-131.2453"/>
</g>
<!-- Node129&#45;&gt;Node2 -->
<g id="edge79" class="edge">
<title>Node129&#45;&gt;Node2</title>
<path fill="none" stroke="#191970" d="M740.5756,-168.3357C739.3558,-153.8728 739.461,-126.7275 754.7865,-112 790.3643,-77.8105 936.1845,-69.0323 1008.5953,-66.7786"/>
<polygon fill="#191970" stroke="#191970" points="1008.8277,-70.2735 1018.7243,-66.4911 1008.6291,-63.2763 1008.8277,-70.2735"/>
</g>
<!-- Node130&#45;&gt;Node2 -->
<g id="edge81" class="edge">
<title>Node130&#45;&gt;Node2</title>
<path fill="none" stroke="#191970" d="M902.0584,-168.4593C884.796,-155.2939 859.0935,-131.0267 873.7865,-112 890.1171,-90.8527 961.7467,-77.5647 1008.4415,-70.9851"/>
<polygon fill="#191970" stroke="#191970" points="1009.1365,-74.4228 1018.5735,-69.6068 1008.193,-67.4867 1009.1365,-74.4228"/>
</g>
<!-- Node130&#45;&gt;Node48 -->
<g id="edge82" class="edge">
<title>Node130&#45;&gt;Node48</title>
<path fill="none" stroke="#191970" d="M928.9545,-168.3579C950.5929,-153.1306 995.5927,-124.0127 1038.7865,-112 1189.9045,-69.9723 1583.5239,-96.7164 1756.2843,-75.9114"/>
<polygon fill="#191970" stroke="#191970" points="1756.8736,-79.3644 1766.342,-74.6106 1755.9757,-72.4223 1756.8736,-79.3644"/>
</g>
<!-- Node130&#45;&gt;Node127 -->
<g id="edge83" class="edge">
<title>Node130&#45;&gt;Node127</title>
<path fill="none" stroke="#191970" d="M894.9859,-168.3733C875.5622,-159.3838 846.3641,-145.8706 824.4901,-135.7471"/>
<polygon fill="#191970" stroke="#191970" points="825.861,-132.5249 815.3157,-131.5011 822.9209,-138.8776 825.861,-132.5249"/>
</g>
<!-- Node131&#45;&gt;Node3 -->
<g id="edge85" class="edge">
<title>Node131&#45;&gt;Node3</title>
<path fill="none" stroke="#191970" d="M1480.556,-114.5636C1447.2466,-104.7461 1388.4331,-87.4116 1350.8251,-76.3271"/>
<polygon fill="#191970" stroke="#191970" points="1351.4004,-72.8479 1340.8188,-73.3779 1349.4213,-79.5623 1351.4004,-72.8479"/>
</g>
<!-- Node132&#45;&gt;Node1 -->
<g id="edge87" class="edge">
<title>Node132&#45;&gt;Node1</title>
<path fill="none" stroke="#191970" d="M1627.521,-168.4398C1616.6202,-154.5925 1594.8391,-128.7799 1571.7865,-112 1525.501,-78.3089 1511.3652,-69.7276 1455.7865,-56 1230.8524,-.4426 645.0745,-33.705 413.7865,-20 386.6858,-18.3941 356.1745,-15.8147 332.8323,-13.6778"/>
<polygon fill="#191970" stroke="#191970" points="332.9308,-10.172 322.6499,-12.7323 332.2834,-17.142 332.9308,-10.172"/>
</g>
<!-- Node132&#45;&gt;Node2 -->
<g id="edge88" class="edge">
<title>Node132&#45;&gt;Node2</title>
<path fill="none" stroke="#191970" d="M1624.7057,-168.2846C1608.3863,-153.2307 1574.4934,-124.6845 1539.7865,-112 1457.7241,-82.0082 1194.0572,-70.5785 1091.3176,-67.1942"/>
<polygon fill="#191970" stroke="#191970" points="1091.1367,-63.6867 1081.0298,-66.8646 1090.9125,-70.6831 1091.1367,-63.6867"/>
</g>
<!-- Node132&#45;&gt;Node84 -->
<g id="edge89" class="edge">
<title>Node132&#45;&gt;Node84</title>
<path fill="none" stroke="#191970" d="M1667.5735,-175.4546C1706.5927,-171.2273 1772.6359,-160.2065 1821.7865,-132 1842.8478,-119.9134 1861.4799,-98.8822 1873.1315,-83.8069"/>
<polygon fill="#191970" stroke="#191970" points="1875.9806,-85.8411 1879.1508,-75.7317 1870.3682,-81.6577 1875.9806,-85.8411"/>
</g>
<!-- Node132&#45;&gt;Node125 -->
<g id="edge90" class="edge">
<title>Node132&#45;&gt;Node125</title>
<path fill="none" stroke="#191970" d="M1661.7758,-168.3733C1689.5387,-158.4706 1732.6918,-143.0784 1761.578,-132.775"/>
<polygon fill="#191970" stroke="#191970" points="1762.9089,-136.0163 1771.1518,-129.3601 1760.5572,-129.4232 1762.9089,-136.0163"/>
</g>
</g>
</svg>
