<?xml version="1.0" encoding="UTF-8" standalone="no"?>
<!DOCTYPE svg PUBLIC "-//W3C//DTD SVG 1.1//EN"
 "http://www.w3.org/Graphics/SVG/1.1/DTD/svg11.dtd">
<!-- Generated by graphviz version 2.44.0 (0)
 -->
<!-- Title: dlg_select_postponed_email Pages: 1 -->
<svg width="282pt" height="355pt"
 viewBox="0.00 0.00 282.00 354.50" xmlns="http://www.w3.org/2000/svg" xmlns:xlink="http://www.w3.org/1999/xlink">
<g id="graph0" class="graph" transform="scale(1 1) rotate(0) translate(4 350.5)">
<title>dlg_select_postponed_email</title>
<polygon fill="white" stroke="transparent" points="-4,4 -4,-350.5 278,-350.5 278,4 -4,4"/>
<!-- Node1 -->
<g id="node1" class="node">
<title>Node1</title>
<g id="a_node1"><a xlink:title="Create a Menu to select a postponed message.">
<polygon fill="#bfbfbf" stroke="black" points="0,-147 0,-177 111,-177 111,-147 0,-147"/>
<text text-anchor="start" x="8" y="-165" font-family="Helvetica" font-size="10.00">dlg_select_postponed</text>
<text text-anchor="middle" x="55.5" y="-154" font-family="Helvetica" font-size="10.00">_email</text>
</a>
</g>
</g>
<!-- Node2 -->
<g id="node2" class="node">
<title>Node2</title>
<g id="a_node2"><a xlink:href="dialog_8c.html#ab4301ef9e9e3760408861a398de176a9" target="_top" xlink:title="Create a simple index Dialog.">
<polygon fill="white" stroke="red" points="156.5,-316 156.5,-346 264.5,-346 264.5,-316 156.5,-316"/>
<text text-anchor="start" x="164.5" y="-334" font-family="Helvetica" font-size="10.00">dialog_create_simple</text>
<text text-anchor="middle" x="210.5" y="-323" font-family="Helvetica" font-size="10.00">_index</text>
</a>
</g>
</g>
<!-- Node1&#45;&gt;Node2 -->
<g id="edge1" class="edge">
<title>Node1&#45;&gt;Node2</title>
<path fill="none" stroke="midnightblue" d="M62.22,-177.4C73.82,-206.65 102.82,-270.56 147,-307 148.55,-308.28 150.17,-309.49 151.85,-310.64"/>
<polygon fill="midnightblue" stroke="midnightblue" points="150.28,-313.78 160.66,-315.91 153.87,-307.77 150.28,-313.78"/>
</g>
<!-- Node63 -->
<g id="node3" class="node">
<title>Node63</title>
<g id="a_node3"><a xlink:href="dialog_8c.html#a4f69c951431777334f8d18d38b9d643a" target="_top" xlink:title="Destroy a simple index Dialog.">
<polygon fill="white" stroke="red" points="154,-267 154,-297 267,-297 267,-267 154,-267"/>
<text text-anchor="start" x="162" y="-285" font-family="Helvetica" font-size="10.00">dialog_destroy_simple</text>
<text text-anchor="middle" x="210.5" y="-274" font-family="Helvetica" font-size="10.00">_index</text>
</a>
</g>
</g>
<!-- Node1&#45;&gt;Node63 -->
<g id="edge2" class="edge">
<title>Node1&#45;&gt;Node63</title>
<path fill="none" stroke="midnightblue" d="M67.5,-177.1C83.13,-197.64 113.61,-234.4 147,-257 149.84,-258.93 152.86,-260.74 155.97,-262.44"/>
<polygon fill="midnightblue" stroke="midnightblue" points="154.41,-265.57 164.92,-266.94 157.55,-259.32 154.41,-265.57"/>
</g>
<!-- Node70 -->
<g id="node4" class="node">
<title>Node70</title>
<g id="a_node4"><a xlink:href="menu_8c.html#ac462ae742dd183b457372c0488fedd1b" target="_top" xlink:title="Destroy a menu.">
<polygon fill="white" stroke="black" points="167,-228.5 167,-247.5 254,-247.5 254,-228.5 167,-228.5"/>
<text text-anchor="middle" x="210.5" y="-235.5" font-family="Helvetica" font-size="10.00">mutt_menu_free</text>
</a>
</g>
</g>
<!-- Node1&#45;&gt;Node70 -->
<g id="edge3" class="edge">
<title>Node1&#45;&gt;Node70</title>
<path fill="none" stroke="midnightblue" d="M76.81,-177.02C94.59,-189.61 121.5,-207.35 147,-219 151.96,-221.27 157.27,-223.36 162.62,-225.25"/>
<polygon fill="midnightblue" stroke="midnightblue" points="161.62,-228.61 172.21,-228.45 163.83,-221.96 161.62,-228.61"/>
</g>
<!-- Node71 -->
<g id="node5" class="node">
<title>Node71</title>
<g id="a_node5"><a xlink:href="menu_8c.html#a2a7161a4171307d15f2362f5d55dfdb1" target="_top" xlink:title="Menu event loop.">
<polygon fill="white" stroke="red" points="166,-190.5 166,-209.5 255,-209.5 255,-190.5 166,-190.5"/>
<text text-anchor="middle" x="210.5" y="-197.5" font-family="Helvetica" font-size="10.00">mutt_menu_loop</text>
</a>
</g>
</g>
<!-- Node1&#45;&gt;Node71 -->
<g id="edge4" class="edge">
<title>Node1&#45;&gt;Node71</title>
<path fill="none" stroke="midnightblue" d="M111.3,-175.61C127.48,-179.63 145.07,-184 160.83,-187.91"/>
<polygon fill="midnightblue" stroke="midnightblue" points="160.35,-191.4 170.9,-190.41 162.03,-184.6 160.35,-191.4"/>
</g>
<!-- Node567 -->
<g id="node6" class="node">
<title>Node567</title>
<g id="a_node6"><a xlink:href="menu_8c.html#a8034d82776d0c709ed9d9521fd09948e" target="_top" xlink:title="Create a new Menu.">
<polygon fill="white" stroke="red" points="166,-152.5 166,-171.5 255,-171.5 255,-152.5 166,-152.5"/>
<text text-anchor="middle" x="210.5" y="-159.5" font-family="Helvetica" font-size="10.00">mutt_menu_new</text>
</a>
</g>
</g>
<!-- Node1&#45;&gt;Node567 -->
<g id="edge5" class="edge">
<title>Node1&#45;&gt;Node567</title>
<path fill="none" stroke="midnightblue" d="M111.3,-162C125.66,-162 141.12,-162 155.43,-162"/>
<polygon fill="midnightblue" stroke="midnightblue" points="155.62,-165.5 165.62,-162 155.62,-158.5 155.62,-165.5"/>
</g>
<!-- Node570 -->
<g id="node7" class="node">
<title>Node570</title>
<g id="a_node7"><a xlink:href="menu_8c.html#acbb5c8e0e047ca06629a7e8ee967d890" target="_top" xlink:title="Remove a Menu from the stack.">
<polygon fill="white" stroke="red" points="149.5,-114.5 149.5,-133.5 271.5,-133.5 271.5,-114.5 149.5,-114.5"/>
<text text-anchor="middle" x="210.5" y="-121.5" font-family="Helvetica" font-size="10.00">mutt_menu_pop_current</text>
</a>
</g>
</g>
<!-- Node1&#45;&gt;Node570 -->
<g id="edge6" class="edge">
<title>Node1&#45;&gt;Node570</title>
<path fill="none" stroke="midnightblue" d="M111.3,-148.39C127.48,-144.37 145.07,-140 160.83,-136.09"/>
<polygon fill="midnightblue" stroke="midnightblue" points="162.03,-139.4 170.9,-133.59 160.35,-132.6 162.03,-139.4"/>
</g>
<!-- Node571 -->
<g id="node8" class="node">
<title>Node571</title>
<g id="a_node8"><a xlink:href="menu_8c.html#a04f3d31793e49bd9c718fd184ce3d575" target="_top" xlink:title="Add a new Menu to the stack.">
<polygon fill="white" stroke="black" points="147,-76.5 147,-95.5 274,-95.5 274,-76.5 147,-76.5"/>
<text text-anchor="middle" x="210.5" y="-83.5" font-family="Helvetica" font-size="10.00">mutt_menu_push_current</text>
</a>
</g>
</g>
<!-- Node1&#45;&gt;Node571 -->
<g id="edge7" class="edge">
<title>Node1&#45;&gt;Node571</title>
<path fill="none" stroke="midnightblue" d="M76.81,-146.98C94.59,-134.39 121.5,-116.65 147,-105 151.96,-102.73 157.27,-100.64 162.62,-98.75"/>
<polygon fill="midnightblue" stroke="midnightblue" points="163.83,-102.04 172.21,-95.55 161.62,-95.39 163.83,-102.04"/>
</g>
<!-- Node1776 -->
<g id="node9" class="node">
<title>Node1776</title>
<g id="a_node9"><a xlink:href="pattern_2lib_8h.html#ae9ea41ba9e917a40a1e6b3ed801a0c79" target="_top" xlink:title="Perform a search.">
<polygon fill="white" stroke="red" points="151,-38.5 151,-57.5 270,-57.5 270,-38.5 151,-38.5"/>
<text text-anchor="middle" x="210.5" y="-45.5" font-family="Helvetica" font-size="10.00">mutt_search_command</text>
</a>
</g>
</g>
<!-- Node1&#45;&gt;Node1776 -->
<g id="edge8" class="edge">
<title>Node1&#45;&gt;Node1776</title>
<path fill="none" stroke="midnightblue" d="M66.97,-146.84C82.21,-125.89 112.48,-88.28 147,-67 150.38,-64.92 154,-63.05 157.74,-61.38"/>
<polygon fill="midnightblue" stroke="midnightblue" points="159.2,-64.56 167.19,-57.6 156.61,-58.06 159.2,-64.56"/>
</g>
<!-- Node1997 -->
<g id="node10" class="node">
<title>Node1997</title>
<g id="a_node10"><a xlink:href="postpone_8c.html#a5a5709ee95dc84b2956c2f43947b9dce" target="_top" xlink:title="Format a menu item for the email list &#45; Implements Menu::make_entry()">
<polygon fill="white" stroke="red" points="164.5,-0.5 164.5,-19.5 256.5,-19.5 256.5,-0.5 164.5,-0.5"/>
<text text-anchor="middle" x="210.5" y="-7.5" font-family="Helvetica" font-size="10.00">post_make_entry</text>
</a>
</g>
</g>
<!-- Node1&#45;&gt;Node1997 -->
<g id="edge9" class="edge">
<title>Node1&#45;&gt;Node1997</title>
<path fill="none" stroke="midnightblue" d="M62.73,-146.74C74.8,-119.09 104.03,-60.61 147,-29 149.65,-27.05 152.5,-25.3 155.47,-23.73"/>
<polygon fill="midnightblue" stroke="midnightblue" points="157.04,-26.86 164.68,-19.52 154.13,-20.49 157.04,-26.86"/>
</g>
</g>
</svg>
