<?xml version="1.0" encoding="UTF-8" standalone="no"?>
<!DOCTYPE svg PUBLIC "-//W3C//DTD SVG 1.1//EN"
 "http://www.w3.org/Graphics/SVG/1.1/DTD/svg11.dtd">
<!-- Generated by graphviz version 12.2.1 (20241206.2353)
 -->
<!-- Title: postpone/module_data.h Pages: 1 -->
<svg width="533pt" height="89pt"
 viewBox="0.00 0.00 533.12 88.50" xmlns="http://www.w3.org/2000/svg" xmlns:xlink="http://www.w3.org/1999/xlink">
<g id="graph0" class="graph" transform="scale(1 1) rotate(0) translate(4 84.5)">
<title>postpone/module_data.h</title>
<!-- Node1 -->
<g id="Node000001" class="node">
<title>Node1</title>
<g id="a_Node000001"><a xlink:title="Postpone private Module data.">
<polygon fill="#999999" stroke="#666666" points="339.75,-80.5 206.75,-80.5 206.75,-58.25 339.75,-58.25 339.75,-80.5"/>
<text text-anchor="middle" x="273.25" y="-67" font-family="Helvetica,sans-Serif" font-size="10.00">postpone/module_data.h</text>
</a>
</g>
</g>
<!-- Node2 -->
<g id="Node000002" class="node">
<title>Node2</title>
<g id="a_Node000002"><a xlink:href="dlg__postpone_8c.html" target="_top" xlink:title="Postponed Email Selection Dialog.">
<polygon fill="white" stroke="#666666" points="134.5,-22.25 0,-22.25 0,0 134.5,0 134.5,-22.25"/>
<text text-anchor="middle" x="67.25" y="-8.75" font-family="Helvetica,sans-Serif" font-size="10.00">postpone/dlg_postpone.c</text>
</a>
</g>
</g>
<!-- Node1&#45;&gt;Node2 -->
<g id="edge1_Node000001_Node000002" class="edge">
<title>Node1&#45;&gt;Node2</title>
<g id="a_edge1_Node000001_Node000002"><a xlink:title=" ">
<path fill="none" stroke="#63b8ff" d="M223.69,-54.84C187.51,-44.96 139.15,-31.76 105.82,-22.66"/>
<polygon fill="#63b8ff" stroke="#63b8ff" points="222.47,-58.14 233.04,-57.4 224.32,-51.39 222.47,-58.14"/>
</a>
</g>
</g>
<!-- Node3 -->
<g id="Node000003" class="node">
<title>Node3</title>
<g id="a_Node000003"><a xlink:href="postpone_2functions_8c.html" target="_top" xlink:title="Postponed Emails Functions.">
<polygon fill="white" stroke="#666666" points="266.38,-22.25 152.12,-22.25 152.12,0 266.38,0 266.38,-22.25"/>
<text text-anchor="middle" x="209.25" y="-8.75" font-family="Helvetica,sans-Serif" font-size="10.00">postpone/functions.c</text>
</a>
</g>
</g>
<!-- Node1&#45;&gt;Node3 -->
<g id="edge2_Node000001_Node000003" class="edge">
<title>Node1&#45;&gt;Node3</title>
<g id="a_edge2_Node000001_Node000003"><a xlink:title=" ">
<path fill="none" stroke="#63b8ff" d="M252.69,-50.31C242.31,-41.18 230.07,-30.42 221.23,-22.66"/>
<polygon fill="#63b8ff" stroke="#63b8ff" points="250.25,-52.82 260.08,-56.8 254.87,-47.57 250.25,-52.82"/>
</a>
</g>
</g>
<!-- Node4 -->
<g id="Node000004" class="node">
<title>Node4</title>
<g id="a_Node000004"><a xlink:href="postpone_2module_8c.html" target="_top" xlink:title="Definition of the Postpone Module.">
<polygon fill="white" stroke="#666666" points="391.62,-22.25 284.88,-22.25 284.88,0 391.62,0 391.62,-22.25"/>
<text text-anchor="middle" x="338.25" y="-8.75" font-family="Helvetica,sans-Serif" font-size="10.00">postpone/module.c</text>
</a>
</g>
</g>
<!-- Node1&#45;&gt;Node4 -->
<g id="edge3_Node000001_Node000004" class="edge">
<title>Node1&#45;&gt;Node4</title>
<g id="a_edge3_Node000001_Node000004"><a xlink:title=" ">
<path fill="none" stroke="#63b8ff" d="M294.13,-50.31C304.68,-41.18 317.1,-30.42 326.08,-22.66"/>
<polygon fill="#63b8ff" stroke="#63b8ff" points="291.89,-47.61 286.62,-56.8 296.47,-52.91 291.89,-47.61"/>
</a>
</g>
</g>
<!-- Node5 -->
<g id="Node000005" class="node">
<title>Node5</title>
<g id="a_Node000005"><a xlink:href="postpone_8c.html" target="_top" xlink:title="Postponed Email Selection Dialog.">
<polygon fill="white" stroke="#666666" points="525.12,-22.25 409.38,-22.25 409.38,0 525.12,0 525.12,-22.25"/>
<text text-anchor="middle" x="467.25" y="-8.75" font-family="Helvetica,sans-Serif" font-size="10.00">postpone/postpone.c</text>
</a>
</g>
</g>
<!-- Node1&#45;&gt;Node5 -->
<g id="edge4_Node000001_Node000005" class="edge">
<title>Node1&#45;&gt;Node5</title>
<g id="a_edge4_Node000001_Node000005"><a xlink:title=" ">
<path fill="none" stroke="#63b8ff" d="M320.36,-54.72C354.39,-44.85 399.68,-31.72 430.92,-22.66"/>
<polygon fill="#63b8ff" stroke="#63b8ff" points="319.82,-51.23 311.19,-57.37 321.77,-57.95 319.82,-51.23"/>
</a>
</g>
</g>
</g>
</svg>
