<?xml version="1.0" encoding="UTF-8" standalone="no"?>
<!DOCTYPE svg PUBLIC "-//W3C//DTD SVG 1.1//EN"
 "http://www.w3.org/Graphics/SVG/1.1/DTD/svg11.dtd">
<!-- Generated by graphviz version 2.40.1 (20161225.0304)
 -->
<!-- Title: progress.c Pages: 1 -->
<svg width="740pt" height="140pt"
 viewBox="0.00 0.00 739.78 140.00" xmlns="http://www.w3.org/2000/svg" xmlns:xlink="http://www.w3.org/1999/xlink">
<g id="graph0" class="graph" transform="scale(1 1) rotate(0) translate(4 136)">
<title>progress.c</title>
<polygon fill="#ffffff" stroke="transparent" points="-4,4 -4,-136 735.7801,-136 735.7801,4 -4,4"/>
<!-- Node0 -->
<g id="node1" class="node">
<title>Node0</title>
<polygon fill="#bfbfbf" stroke="#000000" points="298.7218,-112.5 298.7218,-131.5 365.7218,-131.5 365.7218,-112.5 298.7218,-112.5"/>
<text text-anchor="middle" x="332.2218" y="-119.5" font-family="Helvetica,sans-Serif" font-size="10.00" fill="#000000">progress.c</text>
</g>
<!-- Node1 -->
<g id="node2" class="node">
<title>Node1</title>
<polygon fill="#ffffff" stroke="#bfbfbf" points="47.7218,-.5 47.7218,-19.5 102.7218,-19.5 102.7218,-.5 47.7218,-.5"/>
<text text-anchor="middle" x="75.2218" y="-7.5" font-family="Helvetica,sans-Serif" font-size="10.00" fill="#000000">config.h</text>
</g>
<!-- Node0&#45;&gt;Node1 -->
<g id="edge1" class="edge">
<title>Node0&#45;&gt;Node1</title>
<path fill="none" stroke="#191970" d="M298.4319,-119.7251C218.7422,-114.0173 24.3083,-97.9594 5.2218,-76 -11.5633,-56.6885 16.8045,-36.856 42.2974,-24.0409"/>
<polygon fill="#191970" stroke="#191970" points="43.9611,-27.1249 51.4705,-19.651 40.9393,-20.8107 43.9611,-27.1249"/>
</g>
<!-- Node2 -->
<g id="node3" class="node">
<title>Node2</title>
<polygon fill="#ffffff" stroke="#bfbfbf" points="14.2218,-56.5 14.2218,-75.5 70.2218,-75.5 70.2218,-56.5 14.2218,-56.5"/>
<text text-anchor="middle" x="42.2218" y="-63.5" font-family="Helvetica,sans-Serif" font-size="10.00" fill="#000000">stdarg.h</text>
</g>
<!-- Node0&#45;&gt;Node2 -->
<g id="edge2" class="edge">
<title>Node0&#45;&gt;Node2</title>
<path fill="none" stroke="#191970" d="M298.4203,-116.2861C250.5887,-108.0743 160.4786,-92.1397 84.2218,-76 82.9843,-75.7381 81.7275,-75.4673 80.4593,-75.1898"/>
<polygon fill="#191970" stroke="#191970" points="81.1701,-71.7623 70.6446,-72.9719 79.6271,-78.5901 81.1701,-71.7623"/>
</g>
<!-- Node3 -->
<g id="node4" class="node">
<title>Node3</title>
<polygon fill="#ffffff" stroke="#bfbfbf" points="530.2218,-.5 530.2218,-19.5 592.2218,-19.5 592.2218,-.5 530.2218,-.5"/>
<text text-anchor="middle" x="561.2218" y="-7.5" font-family="Helvetica,sans-Serif" font-size="10.00" fill="#000000">stdbool.h</text>
</g>
<!-- Node0&#45;&gt;Node3 -->
<g id="edge3" class="edge">
<title>Node0&#45;&gt;Node3</title>
<path fill="none" stroke="#191970" d="M365.8143,-120.5561C456.2439,-116.3271 699.6036,-102.5597 723.2218,-76 760.0602,-34.5736 661.9969,-18.6684 602.6845,-12.9514"/>
<polygon fill="#191970" stroke="#191970" points="602.7317,-9.4415 592.4575,-12.0285 602.1025,-16.4132 602.7317,-9.4415"/>
</g>
<!-- Node4 -->
<g id="node5" class="node">
<title>Node4</title>
<polygon fill="#ffffff" stroke="#bfbfbf" points="126.7218,-56.5 126.7218,-75.5 179.7218,-75.5 179.7218,-56.5 126.7218,-56.5"/>
<text text-anchor="middle" x="153.2218" y="-63.5" font-family="Helvetica,sans-Serif" font-size="10.00" fill="#000000">string.h</text>
</g>
<!-- Node0&#45;&gt;Node4 -->
<g id="edge4" class="edge">
<title>Node0&#45;&gt;Node4</title>
<path fill="none" stroke="#191970" d="M301.4506,-112.3733C270.3791,-102.6526 222.3999,-87.6423 189.4956,-77.3482"/>
<polygon fill="#191970" stroke="#191970" points="190.3921,-73.9615 179.8032,-74.316 188.302,-80.6422 190.3921,-73.9615"/>
</g>
<!-- Node5 -->
<g id="node6" class="node">
<title>Node5</title>
<g id="a_node6"><a xlink:href="mutt_2lib_8h.html" target="_top" xlink:title="Convenience wrapper for the library headers. ">
<polygon fill="#ffffff" stroke="#ff0000" points="210.2218,-.5 210.2218,-19.5 274.2218,-19.5 274.2218,-.5 210.2218,-.5"/>
<text text-anchor="middle" x="242.2218" y="-7.5" font-family="Helvetica,sans-Serif" font-size="10.00" fill="#000000">mutt/lib.h</text>
</a>
</g>
</g>
<!-- Node0&#45;&gt;Node5 -->
<g id="edge5" class="edge">
<title>Node0&#45;&gt;Node5</title>
<path fill="none" stroke="#191970" d="M298.6751,-119.8243C244.0401,-115.5046 139.6637,-103.7514 117.2218,-76 91.1117,-43.7127 154.1234,-25.2736 199.8531,-16.4816"/>
<polygon fill="#191970" stroke="#191970" points="200.677,-19.8891 209.8861,-14.6505 199.4202,-13.0028 200.677,-19.8891"/>
</g>
<!-- Node47 -->
<g id="node7" class="node">
<title>Node47</title>
<g id="a_node7"><a xlink:href="gui_2lib_8h.html" target="_top" xlink:title="Convenience wrapper for the gui headers. ">
<polygon fill="#ffffff" stroke="#ff0000" points="304.2218,-56.5 304.2218,-75.5 360.2218,-75.5 360.2218,-56.5 304.2218,-56.5"/>
<text text-anchor="middle" x="332.2218" y="-63.5" font-family="Helvetica,sans-Serif" font-size="10.00" fill="#000000">gui/lib.h</text>
</a>
</g>
</g>
<!-- Node0&#45;&gt;Node47 -->
<g id="edge6" class="edge">
<title>Node0&#45;&gt;Node47</title>
<path fill="none" stroke="#191970" d="M332.2218,-112.2455C332.2218,-104.9382 332.2218,-94.6944 332.2218,-85.7046"/>
<polygon fill="#191970" stroke="#191970" points="335.7219,-85.6426 332.2218,-75.6427 328.7219,-85.6427 335.7219,-85.6426"/>
</g>
<!-- Node81 -->
<g id="node8" class="node">
<title>Node81</title>
<g id="a_node8"><a xlink:href="progress_8h.html" target="_top" xlink:title="Progress bar. ">
<polygon fill="#ffffff" stroke="#ff0000" points="486.2218,-56.5 486.2218,-75.5 554.2218,-75.5 554.2218,-56.5 486.2218,-56.5"/>
<text text-anchor="middle" x="520.2218" y="-63.5" font-family="Helvetica,sans-Serif" font-size="10.00" fill="#000000">progress.h</text>
</a>
</g>
</g>
<!-- Node0&#45;&gt;Node81 -->
<g id="edge7" class="edge">
<title>Node0&#45;&gt;Node81</title>
<path fill="none" stroke="#191970" d="M364.5401,-112.3733C396.0723,-102.9807 444.1838,-88.6496 478.5719,-78.4064"/>
<polygon fill="#191970" stroke="#191970" points="479.7405,-81.7103 488.3252,-75.5011 477.7421,-75.0016 479.7405,-81.7103"/>
</g>
<!-- Node82 -->
<g id="node9" class="node">
<title>Node82</title>
<g id="a_node9"><a xlink:href="mutt__globals_8h.html" target="_top" xlink:title="Hundreds of global variables to back the user variables. ">
<polygon fill="#ffffff" stroke="#ff0000" points="197.7218,-56.5 197.7218,-75.5 286.7218,-75.5 286.7218,-56.5 197.7218,-56.5"/>
<text text-anchor="middle" x="242.2218" y="-63.5" font-family="Helvetica,sans-Serif" font-size="10.00" fill="#000000">mutt_globals.h</text>
</a>
</g>
</g>
<!-- Node0&#45;&gt;Node82 -->
<g id="edge9" class="edge">
<title>Node0&#45;&gt;Node82</title>
<path fill="none" stroke="#191970" d="M316.545,-112.2455C302.7362,-103.6534 282.4025,-91.0014 266.4925,-81.1018"/>
<polygon fill="#191970" stroke="#191970" points="268.0586,-77.954 257.7189,-75.6427 264.3604,-83.8974 268.0586,-77.954"/>
</g>
<!-- Node85 -->
<g id="node10" class="node">
<title>Node85</title>
<g id="a_node10"><a xlink:href="mutt__logging_8h.html" target="_top" xlink:title="NeoMutt Logging. ">
<polygon fill="#ffffff" stroke="#ff0000" points="378.2218,-56.5 378.2218,-75.5 468.2218,-75.5 468.2218,-56.5 378.2218,-56.5"/>
<text text-anchor="middle" x="423.2218" y="-63.5" font-family="Helvetica,sans-Serif" font-size="10.00" fill="#000000">mutt_logging.h</text>
</a>
</g>
</g>
<!-- Node0&#45;&gt;Node85 -->
<g id="edge13" class="edge">
<title>Node0&#45;&gt;Node85</title>
<path fill="none" stroke="#191970" d="M348.0728,-112.2455C362.035,-103.6534 382.5946,-91.0014 398.6813,-81.1018"/>
<polygon fill="#191970" stroke="#191970" points="400.8702,-83.8645 407.5524,-75.6427 397.2015,-77.9029 400.8702,-83.8645"/>
</g>
<!-- Node86 -->
<g id="node11" class="node">
<title>Node86</title>
<g id="a_node11"><a xlink:href="muttlib_8h.html" target="_top" xlink:title="Some miscellaneous functions. ">
<polygon fill="#ffffff" stroke="#ff0000" points="572.7218,-56.5 572.7218,-75.5 633.7218,-75.5 633.7218,-56.5 572.7218,-56.5"/>
<text text-anchor="middle" x="603.2218" y="-63.5" font-family="Helvetica,sans-Serif" font-size="10.00" fill="#000000">muttlib.h</text>
</a>
</g>
</g>
<!-- Node0&#45;&gt;Node86 -->
<g id="edge16" class="edge">
<title>Node0&#45;&gt;Node86</title>
<path fill="none" stroke="#191970" d="M365.9949,-115.8051C409.2406,-107.7565 486.7091,-92.9494 562.9149,-75.9846"/>
<polygon fill="#191970" stroke="#191970" points="563.6901,-79.3977 572.6831,-73.7963 562.1599,-72.567 563.6901,-79.3977"/>
</g>
<!-- Node89 -->
<g id="node12" class="node">
<title>Node89</title>
<g id="a_node12"><a xlink:href="options_8h.html" target="_top" xlink:title="Handling of global boolean variables. ">
<polygon fill="#ffffff" stroke="#ff0000" points="652.2218,-56.5 652.2218,-75.5 714.2218,-75.5 714.2218,-56.5 652.2218,-56.5"/>
<text text-anchor="middle" x="683.2218" y="-63.5" font-family="Helvetica,sans-Serif" font-size="10.00" fill="#000000">options.h</text>
</a>
</g>
</g>
<!-- Node0&#45;&gt;Node89 -->
<g id="edge18" class="edge">
<title>Node0&#45;&gt;Node89</title>
<path fill="none" stroke="#191970" d="M366.0036,-118.1062C421.5749,-111.4625 535.9126,-96.792 641.9407,-76.1082"/>
<polygon fill="#191970" stroke="#191970" points="642.7115,-79.5236 651.8445,-74.1535 641.356,-72.6561 642.7115,-79.5236"/>
</g>
<!-- Node81&#45;&gt;Node3 -->
<g id="edge8" class="edge">
<title>Node81&#45;&gt;Node3</title>
<path fill="none" stroke="#191970" d="M527.3634,-56.2455C533.0662,-48.4564 541.2118,-37.3308 548.0843,-27.9439"/>
<polygon fill="#191970" stroke="#191970" points="551.0786,-29.7789 554.162,-19.6427 545.4305,-25.6437 551.0786,-29.7789"/>
</g>
<!-- Node82&#45;&gt;Node1 -->
<g id="edge10" class="edge">
<title>Node82&#45;&gt;Node1</title>
<path fill="none" stroke="#191970" d="M213.5135,-56.3733C185.6128,-47.0173 143.0994,-32.7614 112.5774,-22.5264"/>
<polygon fill="#191970" stroke="#191970" points="113.3185,-19.0835 102.7246,-19.2225 111.093,-25.7203 113.3185,-19.0835"/>
</g>
<!-- Node82&#45;&gt;Node3 -->
<g id="edge11" class="edge">
<title>Node82&#45;&gt;Node3</title>
<path fill="none" stroke="#191970" d="M286.7457,-57.5483C289.6132,-57.0197 292.4575,-56.4998 295.2218,-56 374.7759,-41.617 467.8942,-25.7313 520.1757,-16.8985"/>
<polygon fill="#191970" stroke="#191970" points="520.7933,-20.3439 530.0714,-15.2286 519.6284,-13.4415 520.7933,-20.3439"/>
</g>
<!-- Node82&#45;&gt;Node5 -->
<g id="edge12" class="edge">
<title>Node82&#45;&gt;Node5</title>
<path fill="none" stroke="#191970" d="M242.2218,-56.2455C242.2218,-48.9382 242.2218,-38.6944 242.2218,-29.7046"/>
<polygon fill="#191970" stroke="#191970" points="245.7219,-29.6426 242.2218,-19.6427 238.7219,-29.6427 245.7219,-29.6426"/>
</g>
<!-- Node85&#45;&gt;Node3 -->
<g id="edge14" class="edge">
<title>Node85&#45;&gt;Node3</title>
<path fill="none" stroke="#191970" d="M446.9448,-56.3733C469.3954,-47.2629 503.2957,-33.5062 528.3473,-23.3404"/>
<polygon fill="#191970" stroke="#191970" points="529.8582,-26.5045 537.8083,-19.5011 527.2261,-20.0182 529.8582,-26.5045"/>
</g>
<!-- Node85&#45;&gt;Node5 -->
<g id="edge15" class="edge">
<title>Node85&#45;&gt;Node5</title>
<path fill="none" stroke="#191970" d="M392.1068,-56.3733C361.8789,-47.021 315.8258,-32.7725 282.7479,-22.5385"/>
<polygon fill="#191970" stroke="#191970" points="283.5185,-19.1133 272.9308,-19.5011 281.4495,-25.8005 283.5185,-19.1133"/>
</g>
<!-- Node86&#45;&gt;Node3 -->
<g id="edge17" class="edge">
<title>Node86&#45;&gt;Node3</title>
<path fill="none" stroke="#191970" d="M595.9059,-56.2455C590.0039,-48.3761 581.5475,-37.101 574.4624,-27.6542"/>
<polygon fill="#191970" stroke="#191970" points="577.2538,-25.5427 568.4538,-19.6427 571.6538,-29.7427 577.2538,-25.5427"/>
</g>
<!-- Node89&#45;&gt;Node3 -->
<g id="edge19" class="edge">
<title>Node89&#45;&gt;Node3</title>
<path fill="none" stroke="#191970" d="M662.2492,-56.3733C642.6651,-47.3838 613.2257,-33.8706 591.1708,-23.7471"/>
<polygon fill="#191970" stroke="#191970" points="592.4691,-20.4919 581.9207,-19.5011 589.5489,-26.8538 592.4691,-20.4919"/>
</g>
</g>
</svg>
