<?xml version="1.0" encoding="UTF-8" standalone="no"?>
<!DOCTYPE svg PUBLIC "-//W3C//DTD SVG 1.1//EN"
 "http://www.w3.org/Graphics/SVG/1.1/DTD/svg11.dtd">
<!-- Generated by graphviz version 2.44.0 (0)
 -->
<!-- Title: mutt_parse_crypt_hdr Pages: 1 -->
<svg width="262pt" height="66pt"
 viewBox="0.00 0.00 262.00 66.00" xmlns="http://www.w3.org/2000/svg" xmlns:xlink="http://www.w3.org/1999/xlink">
<g id="graph0" class="graph" transform="scale(1 1) rotate(0) translate(4 62)">
<title>mutt_parse_crypt_hdr</title>
<polygon fill="white" stroke="transparent" points="-4,4 -4,-62 258,-62 258,4 -4,4"/>
<!-- Node1 -->
<g id="node1" class="node">
<title>Node1</title>
<g id="a_node1"><a xlink:title="Parse a crypto header string.">
<polygon fill="#bfbfbf" stroke="black" points="141,-19.5 141,-38.5 254,-38.5 254,-19.5 141,-19.5"/>
<text text-anchor="middle" x="197.5" y="-26.5" font-family="Helvetica" font-size="10.00">mutt_parse_crypt_hdr</text>
</a>
</g>
</g>
<!-- Node2 -->
<g id="node2" class="node">
<title>Node2</title>
<g id="a_node2"><a xlink:href="mutt__header_8h.html#add6fa85ce7ef8dcad27d465fbbc27708" target="_top" xlink:title="Let the user edit the message header and body.">
<polygon fill="white" stroke="red" points="3.5,-38.5 3.5,-57.5 101.5,-57.5 101.5,-38.5 3.5,-38.5"/>
<text text-anchor="middle" x="52.5" y="-45.5" font-family="Helvetica" font-size="10.00">mutt_edit_headers</text>
</a>
</g>
</g>
<!-- Node1&#45;&gt;Node2 -->
<g id="edge1" class="edge">
<title>Node1&#45;&gt;Node2</title>
<path fill="none" stroke="midnightblue" d="M130.74,-37.74C121.01,-39.03 111.14,-40.34 101.84,-41.58"/>
<polygon fill="midnightblue" stroke="midnightblue" points="131.35,-41.19 140.8,-36.4 130.43,-34.25 131.35,-41.19"/>
</g>
<!-- Node71 -->
<g id="node3" class="node">
<title>Node71</title>
<g id="a_node3"><a xlink:href="protos_8h.html#a625a6f9a0389d9c1aa74e95dfe7df1ac" target="_top" xlink:title="Recall a postponed message.">
<polygon fill="white" stroke="red" points="0,-0.5 0,-19.5 105,-19.5 105,-0.5 0,-0.5"/>
<text text-anchor="middle" x="52.5" y="-7.5" font-family="Helvetica" font-size="10.00">mutt_get_postponed</text>
</a>
</g>
</g>
<!-- Node1&#45;&gt;Node71 -->
<g id="edge2" class="edge">
<title>Node1&#45;&gt;Node71</title>
<path fill="none" stroke="midnightblue" d="M130.77,-20.27C122.15,-19.12 113.41,-17.96 105.07,-16.85"/>
<polygon fill="midnightblue" stroke="midnightblue" points="130.43,-23.75 140.8,-21.6 131.35,-16.81 130.43,-23.75"/>
</g>
</g>
</svg>
