<?xml version="1.0" encoding="UTF-8" standalone="no"?>
<!DOCTYPE svg PUBLIC "-//W3C//DTD SVG 1.1//EN"
 "http://www.w3.org/Graphics/SVG/1.1/DTD/svg11.dtd">
<!-- Generated by graphviz version 2.40.1 (20161225.0304)
 -->
<!-- Title: mutt_thread_set_flag Pages: 1 -->
<svg width="269pt" height="66pt"
 viewBox="0.00 0.00 269.00 66.00" xmlns="http://www.w3.org/2000/svg" xmlns:xlink="http://www.w3.org/1999/xlink">
<g id="graph0" class="graph" transform="scale(1 1) rotate(0) translate(4 62)">
<title>mutt_thread_set_flag</title>
<polygon fill="#ffffff" stroke="transparent" points="-4,4 -4,-62 265,-62 265,4 -4,4"/>
<!-- Node15192 -->
<g id="node1" class="node">
<title>Node15192</title>
<polygon fill="#bfbfbf" stroke="#000000" points="0,-19.5 0,-38.5 120,-38.5 120,-19.5 0,-19.5"/>
<text text-anchor="middle" x="60" y="-26.5" font-family="Helvetica,sans-Serif" font-size="10.00" fill="#000000">mutt_thread_set_flag</text>
</g>
<!-- Node15193 -->
<g id="node2" class="node">
<title>Node15193</title>
<g id="a_node2"><a xlink:href="index_8h.html#aa6202cffa700d674df25a7c5c02554d0" target="_top" xlink:title="Display a list of emails. ">
<polygon fill="#ffffff" stroke="#ff0000" points="156,-38.5 156,-57.5 261,-57.5 261,-38.5 156,-38.5"/>
<text text-anchor="middle" x="208.5" y="-45.5" font-family="Helvetica,sans-Serif" font-size="10.00" fill="#000000">mutt_index_menu</text>
</a>
</g>
</g>
<!-- Node15192&#45;&gt;Node15193 -->
<g id="edge1" class="edge">
<title>Node15192&#45;&gt;Node15193</title>
<path fill="none" stroke="#191970" d="M130.3785,-38.0047C138.9283,-39.0986 147.5467,-40.2013 155.7786,-41.2545"/>
<polygon fill="#191970" stroke="#191970" points="130.764,-34.5255 120.4006,-36.728 129.8756,-41.4689 130.764,-34.5255"/>
</g>
<!-- Node15205 -->
<g id="node3" class="node">
<title>Node15205</title>
<g id="a_node3"><a xlink:href="pager_8h.html#a4cc11143557f95ded6a80f3cffff4483" target="_top" xlink:title="Display a file, or help, in a window. ">
<polygon fill="#ffffff" stroke="#ff0000" points="172,-.5 172,-19.5 245,-19.5 245,-.5 172,-.5"/>
<text text-anchor="middle" x="208.5" y="-7.5" font-family="Helvetica,sans-Serif" font-size="10.00" fill="#000000">mutt_pager</text>
</a>
</g>
</g>
<!-- Node15192&#45;&gt;Node15205 -->
<g id="edge2" class="edge">
<title>Node15192&#45;&gt;Node15205</title>
<path fill="none" stroke="#191970" d="M130.6535,-19.9602C144.8172,-18.148 159.1558,-16.3134 171.6013,-14.721"/>
<polygon fill="#191970" stroke="#191970" points="129.8756,-16.5311 120.4006,-21.272 130.764,-23.4745 129.8756,-16.5311"/>
</g>
</g>
</svg>
