<?xml version="1.0" encoding="UTF-8" standalone="no"?>
<!DOCTYPE svg PUBLIC "-//W3C//DTD SVG 1.1//EN"
 "http://www.w3.org/Graphics/SVG/1.1/DTD/svg11.dtd">
<!-- Generated by graphviz version 7.1.0 (0)
 -->
<!-- Title: query_yesorno_help Pages: 1 -->
<svg width="294pt" height="249pt"
 viewBox="0.00 0.00 294.00 249.00" xmlns="http://www.w3.org/2000/svg" xmlns:xlink="http://www.w3.org/1999/xlink">
<g id="graph0" class="graph" transform="scale(1 1) rotate(0) translate(4 245)">
<title>query_yesorno_help</title>
<!-- Node1 -->
<g id="node1" class="node">
<title>Node1</title>
<g id="a_node1"><a xlink:title="Ask the user a Yes/No question offering help.">
<polygon fill="#999999" stroke="#666666" points="286,-130 174,-130 174,-111 286,-111 286,-130"/>
<text text-anchor="middle" x="230" y="-118" font-family="Helvetica,sans-Serif" font-size="10.00">query_yesorno_help</text>
</a>
</g>
</g>
<!-- Node2 -->
<g id="node2" class="node">
<title>Node2</title>
<g id="a_node2"><a xlink:href="compose_2functions_8c.html#ae368aa194ea8e0a6b877e152c0f52eae" target="_top" xlink:title="Delete an attachment.">
<polygon fill="#fff0f0" stroke="red" points="121,-241 17,-241 17,-222 121,-222 121,-241"/>
<text text-anchor="middle" x="69" y="-229" font-family="Helvetica,sans-Serif" font-size="10.00">delete_attachment</text>
</a>
</g>
</g>
<!-- Node1&#45;&gt;Node2 -->
<g id="edge1" class="edge">
<title>Node1&#45;&gt;Node2</title>
<path fill="none" stroke="#63b8ff" d="M215.61,-139.34C199.55,-160.53 170.69,-194.46 138,-213.5 132.51,-216.7 126.45,-219.34 120.27,-221.52"/>
<polygon fill="#63b8ff" stroke="#63b8ff" points="218.23,-141.69 221.34,-131.56 212.59,-137.54 218.23,-141.69"/>
</g>
<!-- Node4 -->
<g id="node3" class="node">
<title>Node4</title>
<g id="a_node3"><a xlink:href="crypt__gpgme_8c.html#a0beac0b5547620880e11ed91cfc21515" target="_top" xlink:title="Find keys of the recipients of the message.">
<polygon fill="#fff0f0" stroke="red" points="98.5,-204 39.5,-204 39.5,-185 98.5,-185 98.5,-204"/>
<text text-anchor="middle" x="69" y="-192" font-family="Helvetica,sans-Serif" font-size="10.00">find_keys</text>
</a>
</g>
</g>
<!-- Node1&#45;&gt;Node4 -->
<g id="edge2" class="edge">
<title>Node1&#45;&gt;Node4</title>
<path fill="none" stroke="#63b8ff" d="M206.56,-136.9C188.74,-149.27 162.77,-165.87 138,-176.5 125.54,-181.84 111.1,-185.94 98.74,-188.86"/>
<polygon fill="#63b8ff" stroke="#63b8ff" points="208.43,-139.86 214.57,-131.23 204.39,-134.15 208.43,-139.86"/>
</g>
<!-- Node64 -->
<g id="node4" class="node">
<title>Node64</title>
<g id="a_node4"><a xlink:href="imap_2message_8c.html#aa27c4ed628a0580172b989754dd80f14" target="_top" xlink:title="Server COPY messages to another folder.">
<polygon fill="#fff0f0" stroke="red" points="127,-167 11,-167 11,-148 127,-148 127,-167"/>
<text text-anchor="middle" x="69" y="-155" font-family="Helvetica,sans-Serif" font-size="10.00">imap_copy_messages</text>
</a>
</g>
</g>
<!-- Node1&#45;&gt;Node64 -->
<g id="edge3" class="edge">
<title>Node1&#45;&gt;Node64</title>
<path fill="none" stroke="#63b8ff" d="M175.36,-132.98C154.95,-137.73 131.99,-143.07 112.73,-147.56"/>
<polygon fill="#63b8ff" stroke="#63b8ff" points="175.97,-136.43 184.92,-130.76 174.38,-129.62 175.97,-136.43"/>
</g>
<!-- Node511 -->
<g id="node5" class="node">
<title>Node511</title>
<g id="a_node5"><a xlink:href="imap_8c.html#ab243b759db9258fd8373a350b19ed0b8" target="_top" xlink:title="Use server COPY command to copy deleted messages to trash.">
<polygon fill="#fff0f0" stroke="red" points="113.5,-130 24.5,-130 24.5,-111 113.5,-111 113.5,-130"/>
<text text-anchor="middle" x="69" y="-118" font-family="Helvetica,sans-Serif" font-size="10.00">imap_fast_trash</text>
</a>
</g>
</g>
<!-- Node1&#45;&gt;Node511 -->
<g id="edge4" class="edge">
<title>Node1&#45;&gt;Node511</title>
<path fill="none" stroke="#63b8ff" d="M162.59,-120.5C146.12,-120.5 128.88,-120.5 113.8,-120.5"/>
<polygon fill="#63b8ff" stroke="#63b8ff" points="162.32,-124 172.32,-120.5 162.32,-117 162.32,-124"/>
</g>
<!-- Node512 -->
<g id="node6" class="node">
<title>Node512</title>
<g id="a_node6"><a xlink:href="group__mx__mbox__open__append.html#ga71ba8593edd07989dee356ec829be873" target="_top" xlink:title="Open a Mailbox for appending &#45; Implements MxOps::mbox_open_append() &#45;.">
<polygon fill="white" stroke="#666666" points="138,-93 0,-93 0,-74 138,-74 138,-93"/>
<text text-anchor="middle" x="69" y="-81" font-family="Helvetica,sans-Serif" font-size="10.00">imap_mbox_open_append</text>
</a>
</g>
</g>
<!-- Node1&#45;&gt;Node512 -->
<g id="edge5" class="edge">
<title>Node1&#45;&gt;Node512</title>
<path fill="none" stroke="#63b8ff" d="M175.36,-108.02C154.95,-103.27 131.99,-97.93 112.73,-93.44"/>
<polygon fill="#63b8ff" stroke="#63b8ff" points="174.38,-111.38 184.92,-110.24 175.97,-104.57 174.38,-111.38"/>
</g>
<!-- Node455 -->
<g id="node7" class="node">
<title>Node455</title>
<g id="a_node7"><a xlink:href="muttlib_8c.html#aec67d3d77b0418f6ae01995579c09ad2" target="_top" xlink:title="Ask the user to save.">
<polygon fill="#fff0f0" stroke="red" points="121.5,-56 16.5,-56 16.5,-37 121.5,-37 121.5,-56"/>
<text text-anchor="middle" x="69" y="-44" font-family="Helvetica,sans-Serif" font-size="10.00">mutt_save_confirm</text>
</a>
</g>
</g>
<!-- Node1&#45;&gt;Node455 -->
<g id="edge6" class="edge">
<title>Node1&#45;&gt;Node455</title>
<path fill="none" stroke="#63b8ff" d="M206.17,-104.3C188.3,-92.23 162.48,-76.08 138,-65.5 129.9,-62 120.98,-58.96 112.33,-56.41"/>
<polygon fill="#63b8ff" stroke="#63b8ff" points="203.98,-107.05 214.2,-109.83 207.95,-101.28 203.98,-107.05"/>
</g>
<!-- Node220 -->
<g id="node8" class="node">
<title>Node220</title>
<g id="a_node8"><a xlink:href="group__crypto__find__keys.html#ga413b96fceb52c5942da793926865caa0" target="_top" xlink:title="Find the keyids of the recipients of a message &#45; Implements CryptModuleSpecs::find_keys() &#45;.">
<polygon fill="white" stroke="#666666" points="122.5,-19 15.5,-19 15.5,0 122.5,0 122.5,-19"/>
<text text-anchor="middle" x="69" y="-7" font-family="Helvetica,sans-Serif" font-size="10.00">pgp_class_find_keys</text>
</a>
</g>
</g>
<!-- Node1&#45;&gt;Node220 -->
<g id="edge7" class="edge">
<title>Node1&#45;&gt;Node220</title>
<path fill="none" stroke="#63b8ff" d="M215.04,-101.34C198.82,-80.42 170.12,-47.39 138,-28.5 131.77,-24.83 124.79,-21.85 117.75,-19.42"/>
<polygon fill="#63b8ff" stroke="#63b8ff" points="212.24,-103.44 221.06,-109.31 217.83,-99.22 212.24,-103.44"/>
</g>
</g>
</svg>
