<?xml version="1.0" encoding="UTF-8" standalone="no"?>
<!DOCTYPE svg PUBLIC "-//W3C//DTD SVG 1.1//EN"
 "http://www.w3.org/Graphics/SVG/1.1/DTD/svg11.dtd">
<!-- Generated by graphviz version 7.1.0 (0)
 -->
<!-- Title: color/quoted.c Pages: 1 -->
<svg width="742pt" height="247pt"
 viewBox="0.00 0.00 742.23 247.00" xmlns="http://www.w3.org/2000/svg" xmlns:xlink="http://www.w3.org/1999/xlink">
<g id="graph0" class="graph" transform="scale(1 1) rotate(0) translate(4 243)">
<title>color/quoted.c</title>
<!-- Node1 -->
<g id="node1" class="node">
<title>Node1</title>
<g id="a_node1"><a xlink:title="Quoted&#45;Email colours.">
<polygon fill="#999999" stroke="#666666" points="408.48,-239 323.48,-239 323.48,-220 408.48,-220 408.48,-239"/>
<text text-anchor="middle" x="365.98" y="-227" font-family="Helvetica,sans-Serif" font-size="10.00">color/quoted.c</text>
</a>
</g>
</g>
<!-- Node2 -->
<g id="node2" class="node">
<title>Node2</title>
<g id="a_node2"><a xlink:title=" ">
<polygon fill="#e0e0e0" stroke="#999999" points="134.98,-19 80.98,-19 80.98,0 134.98,0 134.98,-19"/>
<text text-anchor="middle" x="107.98" y="-7" font-family="Helvetica,sans-Serif" font-size="10.00">config.h</text>
</a>
</g>
</g>
<!-- Node1&#45;&gt;Node2 -->
<g id="edge1" class="edge">
<title>Node1&#45;&gt;Node2</title>
<path fill="none" stroke="#63b8ff" d="M322.99,-225.65C254.1,-220.44 122.72,-207.67 82.98,-184 26.76,-150.51 -23.25,-110.15 11.98,-55 24.72,-35.05 48.95,-23.91 69.88,-17.77"/>
<polygon fill="#63b8ff" stroke="#63b8ff" points="70.51,-21.22 79.3,-15.3 68.74,-14.45 70.51,-21.22"/>
</g>
<!-- Node3 -->
<g id="node3" class="node">
<title>Node3</title>
<g id="a_node3"><a xlink:title=" ">
<polygon fill="#e0e0e0" stroke="#999999" points="583.48,-129 528.48,-129 528.48,-110 583.48,-110 583.48,-129"/>
<text text-anchor="middle" x="555.98" y="-117" font-family="Helvetica,sans-Serif" font-size="10.00">stddef.h</text>
</a>
</g>
</g>
<!-- Node1&#45;&gt;Node3 -->
<g id="edge2" class="edge">
<title>Node1&#45;&gt;Node3</title>
<path fill="none" stroke="#63b8ff" d="M388.08,-219.62C408.09,-211.29 438.14,-198.04 462.98,-184 488.83,-169.39 516.74,-149.76 535.17,-136.22"/>
<polygon fill="#63b8ff" stroke="#63b8ff" points="537.2,-139.06 543.14,-130.29 533.03,-133.45 537.2,-139.06"/>
</g>
<!-- Node4 -->
<g id="node4" class="node">
<title>Node4</title>
<g id="a_node4"><a xlink:title=" ">
<polygon fill="#e0e0e0" stroke="#999999" points="233.98,-74 173.98,-74 173.98,-55 233.98,-55 233.98,-74"/>
<text text-anchor="middle" x="203.98" y="-62" font-family="Helvetica,sans-Serif" font-size="10.00">stdbool.h</text>
</a>
</g>
</g>
<!-- Node1&#45;&gt;Node4 -->
<g id="edge3" class="edge">
<title>Node1&#45;&gt;Node4</title>
<path fill="none" stroke="#63b8ff" d="M323.25,-226.15C258.1,-221.76 138.03,-210.28 104.98,-184 78.02,-162.56 62.23,-138.22 81.98,-110 100.04,-84.19 134.74,-73.29 162.53,-68.73"/>
<polygon fill="#63b8ff" stroke="#63b8ff" points="162.64,-72.24 172.06,-67.39 161.67,-65.31 162.64,-72.24"/>
</g>
<!-- Node5 -->
<g id="node5" class="node">
<title>Node5</title>
<g id="a_node5"><a xlink:href="mutt_2lib_8h.html" target="_top" xlink:title="Convenience wrapper for the library headers.">
<polygon fill="#fff0f0" stroke="red" points="435.98,-19 373.98,-19 373.98,0 435.98,0 435.98,-19"/>
<text text-anchor="middle" x="404.98" y="-7" font-family="Helvetica,sans-Serif" font-size="10.00">mutt/lib.h</text>
</a>
</g>
</g>
<!-- Node1&#45;&gt;Node5 -->
<g id="edge4" class="edge">
<title>Node1&#45;&gt;Node5</title>
<path fill="none" stroke="#63b8ff" d="M408.77,-226.2C497.9,-220.96 696.88,-206.81 716.98,-184 800.92,-88.74 550.73,-34.84 447.41,-17.1"/>
<polygon fill="#63b8ff" stroke="#63b8ff" points="448.09,-13.67 437.64,-15.46 446.93,-20.57 448.09,-13.67"/>
</g>
<!-- Node54 -->
<g id="node6" class="node">
<title>Node54</title>
<g id="a_node6"><a xlink:href="core_2lib_8h.html" target="_top" xlink:title="Convenience wrapper for the core headers.">
<polygon fill="#fff0f0" stroke="red" points="661.98,-129 601.98,-129 601.98,-110 661.98,-110 661.98,-129"/>
<text text-anchor="middle" x="631.98" y="-117" font-family="Helvetica,sans-Serif" font-size="10.00">core/lib.h</text>
</a>
</g>
</g>
<!-- Node1&#45;&gt;Node54 -->
<g id="edge5" class="edge">
<title>Node1&#45;&gt;Node54</title>
<path fill="none" stroke="#63b8ff" d="M393.04,-219.58C418.52,-211.01 457.64,-197.42 490.98,-184 530.34,-168.16 574.83,-147.68 603.12,-134.32"/>
<polygon fill="#63b8ff" stroke="#63b8ff" points="604.58,-137.51 612.12,-130.06 601.58,-131.18 604.58,-137.51"/>
</g>
<!-- Node64 -->
<g id="node7" class="node">
<title>Node64</title>
<g id="a_node7"><a xlink:href="quoted_8h.html" target="_top" xlink:title="Quoted&#45;Email colours.">
<polygon fill="white" stroke="#666666" points="453.48,-184 394.48,-184 394.48,-165 453.48,-165 453.48,-184"/>
<text text-anchor="middle" x="423.98" y="-172" font-family="Helvetica,sans-Serif" font-size="10.00">quoted.h</text>
</a>
</g>
</g>
<!-- Node1&#45;&gt;Node64 -->
<g id="edge6" class="edge">
<title>Node1&#45;&gt;Node64</title>
<path fill="none" stroke="#63b8ff" d="M375.82,-219.51C384.03,-212 395.96,-201.1 405.89,-192.03"/>
<polygon fill="#63b8ff" stroke="#63b8ff" points="408.15,-194.71 413.17,-185.38 403.43,-189.54 408.15,-194.71"/>
</g>
<!-- Node65 -->
<g id="node8" class="node">
<title>Node65</title>
<g id="a_node8"><a xlink:href="attr_8h.html" target="_top" xlink:title="Colour and attributes.">
<polygon fill="white" stroke="#666666" points="281.48,-129 240.48,-129 240.48,-110 281.48,-110 281.48,-129"/>
<text text-anchor="middle" x="260.98" y="-117" font-family="Helvetica,sans-Serif" font-size="10.00">attr.h</text>
</a>
</g>
</g>
<!-- Node1&#45;&gt;Node65 -->
<g id="edge23" class="edge">
<title>Node1&#45;&gt;Node65</title>
<path fill="none" stroke="#63b8ff" d="M365.48,-219.69C364.31,-206.42 360.34,-181.13 346.98,-165 332.94,-148.06 310.79,-136.82 292.48,-129.86"/>
<polygon fill="#63b8ff" stroke="#63b8ff" points="293.71,-126.59 283.12,-126.58 291.4,-133.19 293.71,-126.59"/>
</g>
<!-- Node66 -->
<g id="node9" class="node">
<title>Node66</title>
<g id="a_node9"><a xlink:href="curses2_8h.html" target="_top" xlink:title="Curses Colour.">
<polygon fill="#fff0f0" stroke="red" points="465.98,-74 403.98,-74 403.98,-55 465.98,-55 465.98,-74"/>
<text text-anchor="middle" x="434.98" y="-62" font-family="Helvetica,sans-Serif" font-size="10.00">curses2.h</text>
</a>
</g>
</g>
<!-- Node1&#45;&gt;Node66 -->
<g id="edge29" class="edge">
<title>Node1&#45;&gt;Node66</title>
<path fill="none" stroke="#63b8ff" d="M408.65,-225.91C494.39,-220.27 681.05,-205.62 699.98,-184 713.95,-168.04 709.27,-131.05 686.98,-110 657.41,-82.08 541.22,-71.33 477.45,-67.48"/>
<polygon fill="#63b8ff" stroke="#63b8ff" points="477.88,-64 467.69,-66.92 477.48,-70.98 477.88,-64"/>
</g>
<!-- Node67 -->
<g id="node10" class="node">
<title>Node67</title>
<g id="a_node10"><a xlink:href="color_8h.html" target="_top" xlink:title="Color and attribute parsing.">
<polygon fill="white" stroke="#666666" points="145.48,-129 98.48,-129 98.48,-110 145.48,-110 145.48,-129"/>
<text text-anchor="middle" x="121.98" y="-117" font-family="Helvetica,sans-Serif" font-size="10.00">color.h</text>
</a>
</g>
</g>
<!-- Node1&#45;&gt;Node67 -->
<g id="edge24" class="edge">
<title>Node1&#45;&gt;Node67</title>
<path fill="none" stroke="#63b8ff" d="M323,-227.29C258.4,-224.46 141.03,-215.07 114.98,-184 104.85,-171.91 108.13,-153.66 113.05,-139.83"/>
<polygon fill="#63b8ff" stroke="#63b8ff" points="116.17,-141.45 116.74,-130.87 109.69,-138.79 116.17,-141.45"/>
</g>
<!-- Node68 -->
<g id="node11" class="node">
<title>Node68</title>
<g id="a_node11"><a xlink:href="command2_8h.html" target="_top" xlink:title="Parse colour commands.">
<polygon fill="#fff0f0" stroke="red" points="690.48,-184 613.48,-184 613.48,-165 690.48,-165 690.48,-184"/>
<text text-anchor="middle" x="651.98" y="-172" font-family="Helvetica,sans-Serif" font-size="10.00">command2.h</text>
</a>
</g>
</g>
<!-- Node1&#45;&gt;Node68 -->
<g id="edge25" class="edge">
<title>Node1&#45;&gt;Node68</title>
<path fill="none" stroke="#63b8ff" d="M408.8,-220.57C460.44,-210.99 547.12,-194.93 601.84,-184.79"/>
<polygon fill="#63b8ff" stroke="#63b8ff" points="602.33,-188.26 611.52,-183 601.05,-181.38 602.33,-188.26"/>
</g>
<!-- Node69 -->
<g id="node12" class="node">
<title>Node69</title>
<g id="a_node12"><a xlink:href="debug_8h.html" target="_top" xlink:title="Colour Debugging.">
<polygon fill="white" stroke="#666666" points="337.98,-184 281.98,-184 281.98,-165 337.98,-165 337.98,-184"/>
<text text-anchor="middle" x="309.98" y="-172" font-family="Helvetica,sans-Serif" font-size="10.00">debug.h</text>
</a>
</g>
</g>
<!-- Node1&#45;&gt;Node69 -->
<g id="edge30" class="edge">
<title>Node1&#45;&gt;Node69</title>
<path fill="none" stroke="#63b8ff" d="M356.48,-219.51C348.55,-212 337.03,-201.1 327.44,-192.03"/>
<polygon fill="#63b8ff" stroke="#63b8ff" points="330.11,-189.73 320.44,-185.4 325.3,-194.81 330.11,-189.73"/>
</g>
<!-- Node70 -->
<g id="node13" class="node">
<title>Node70</title>
<g id="a_node13"><a xlink:href="notify2_8h.html" target="_top" xlink:title="Colour notifications.">
<polygon fill="white" stroke="#666666" points="263.48,-184 204.48,-184 204.48,-165 263.48,-165 263.48,-184"/>
<text text-anchor="middle" x="233.98" y="-172" font-family="Helvetica,sans-Serif" font-size="10.00">notify2.h</text>
</a>
</g>
</g>
<!-- Node1&#45;&gt;Node70 -->
<g id="edge36" class="edge">
<title>Node1&#45;&gt;Node70</title>
<path fill="none" stroke="#63b8ff" d="M343.59,-219.51C322.41,-211.01 290.39,-198.15 266.42,-188.53"/>
<polygon fill="#63b8ff" stroke="#63b8ff" points="268.03,-185.4 257.45,-184.92 265.42,-191.9 268.03,-185.4"/>
</g>
<!-- Node71 -->
<g id="node14" class="node">
<title>Node71</title>
<g id="a_node14"><a xlink:href="simple2_8h.html" target="_top" xlink:title="Simple colour.">
<polygon fill="white" stroke="#666666" points="185.98,-184 123.98,-184 123.98,-165 185.98,-165 185.98,-184"/>
<text text-anchor="middle" x="154.98" y="-172" font-family="Helvetica,sans-Serif" font-size="10.00">simple2.h</text>
</a>
</g>
</g>
<!-- Node1&#45;&gt;Node71 -->
<g id="edge40" class="edge">
<title>Node1&#45;&gt;Node71</title>
<path fill="none" stroke="#63b8ff" d="M330.19,-219.51C293.48,-210.29 236.4,-195.95 197.44,-186.16"/>
<polygon fill="#63b8ff" stroke="#63b8ff" points="198.48,-182.82 187.93,-183.78 196.78,-189.61 198.48,-182.82"/>
</g>
<!-- Node64&#45;&gt;Node2 -->
<g id="edge7" class="edge">
<title>Node64&#45;&gt;Node2</title>
<path fill="none" stroke="#63b8ff" d="M414.61,-164.69C391.03,-142.94 326.51,-86.24 262.98,-55 225.39,-36.51 178.79,-24.44 146.56,-17.59"/>
<polygon fill="#63b8ff" stroke="#63b8ff" points="147.35,-14.18 136.85,-15.61 145.95,-21.04 147.35,-14.18"/>
</g>
<!-- Node64&#45;&gt;Node3 -->
<g id="edge8" class="edge">
<title>Node64&#45;&gt;Node3</title>
<path fill="none" stroke="#63b8ff" d="M446.37,-164.51C467.55,-156.01 499.57,-143.15 523.54,-133.53"/>
<polygon fill="#63b8ff" stroke="#63b8ff" points="524.54,-136.9 532.51,-129.92 521.93,-130.4 524.54,-136.9"/>
</g>
<!-- Node64&#45;&gt;Node4 -->
<g id="edge9" class="edge">
<title>Node64&#45;&gt;Node4</title>
<path fill="none" stroke="#63b8ff" d="M394.08,-169.95C346.27,-163.73 255.49,-149.54 230.98,-129 217.91,-118.05 211.03,-99.65 207.5,-85.47"/>
<polygon fill="#63b8ff" stroke="#63b8ff" points="210.96,-84.94 205.49,-75.86 204.11,-86.37 210.96,-84.94"/>
</g>
<!-- Node64&#45;&gt;Node54 -->
<g id="edge10" class="edge">
<title>Node64&#45;&gt;Node54</title>
<path fill="none" stroke="#63b8ff" d="M453.78,-165.91C489.64,-156.77 550.06,-141.37 590.47,-131.08"/>
<polygon fill="#63b8ff" stroke="#63b8ff" points="591.26,-134.49 600.09,-128.63 589.54,-127.7 591.26,-134.49"/>
</g>
<!-- Node64&#45;&gt;Node65 -->
<g id="edge11" class="edge">
<title>Node64&#45;&gt;Node65</title>
<path fill="none" stroke="#63b8ff" d="M396.33,-164.51C367.5,-155.13 322.39,-140.47 292.27,-130.67"/>
<polygon fill="#63b8ff" stroke="#63b8ff" points="293.55,-127.41 282.96,-127.65 291.39,-134.07 293.55,-127.41"/>
</g>
<!-- Node64&#45;&gt;Node66 -->
<g id="edge22" class="edge">
<title>Node64&#45;&gt;Node66</title>
<path fill="none" stroke="#63b8ff" d="M427.58,-164.82C431.04,-155.99 436.01,-141.81 437.98,-129 440.19,-114.59 439.32,-98.14 437.96,-85.6"/>
<polygon fill="#63b8ff" stroke="#63b8ff" points="441.43,-85.15 436.67,-75.69 434.49,-86.05 441.43,-85.15"/>
</g>
<!-- Node64&#45;&gt;Node67 -->
<g id="edge18" class="edge">
<title>Node64&#45;&gt;Node67</title>
<path fill="none" stroke="#63b8ff" d="M394.2,-168.27C337.97,-158.41 216.5,-137.09 156.69,-126.59"/>
<polygon fill="#63b8ff" stroke="#63b8ff" points="157.53,-123.19 147.08,-124.9 156.32,-130.08 157.53,-123.19"/>
</g>
<!-- Node65&#45;&gt;Node2 -->
<g id="edge12" class="edge">
<title>Node65&#45;&gt;Node2</title>
<path fill="none" stroke="#63b8ff" d="M260.97,-109.87C260.49,-96.37 257.57,-70.22 242.98,-55 217.8,-28.74 176.85,-17.96 146.64,-13.55"/>
<polygon fill="#63b8ff" stroke="#63b8ff" points="147.11,-10.08 136.74,-12.3 146.23,-17.03 147.11,-10.08"/>
</g>
<!-- Node65&#45;&gt;Node4 -->
<g id="edge13" class="edge">
<title>Node65&#45;&gt;Node4</title>
<path fill="none" stroke="#63b8ff" d="M251.31,-109.51C243.24,-102 231.51,-91.1 221.76,-82.03"/>
<polygon fill="#63b8ff" stroke="#63b8ff" points="224.32,-79.63 214.61,-75.39 219.55,-84.76 224.32,-79.63"/>
</g>
<!-- Node65&#45;&gt;Node5 -->
<g id="edge14" class="edge">
<title>Node65&#45;&gt;Node5</title>
<path fill="none" stroke="#63b8ff" d="M272.76,-109.66C297.13,-91.39 353.33,-49.23 384.03,-26.21"/>
<polygon fill="#63b8ff" stroke="#63b8ff" points="385.92,-29.17 391.82,-20.37 381.72,-23.57 385.92,-29.17"/>
</g>
<!-- Node65&#45;&gt;Node66 -->
<g id="edge15" class="edge">
<title>Node65&#45;&gt;Node66</title>
<path fill="none" stroke="#63b8ff" d="M281.97,-112.11C309.78,-103.64 359.43,-88.51 394.62,-77.79"/>
<polygon fill="#63b8ff" stroke="#63b8ff" points="395.5,-81.19 404.04,-74.92 393.46,-74.49 395.5,-81.19"/>
</g>
<!-- Node66&#45;&gt;Node2 -->
<g id="edge16" class="edge">
<title>Node66&#45;&gt;Node2</title>
<path fill="none" stroke="#63b8ff" d="M403.63,-58.42C343.31,-48.64 211.31,-27.25 146.06,-16.67"/>
<polygon fill="#63b8ff" stroke="#63b8ff" points="146.98,-13.28 136.55,-15.13 145.86,-20.19 146.98,-13.28"/>
</g>
<!-- Node66&#45;&gt;Node5 -->
<g id="edge17" class="edge">
<title>Node66&#45;&gt;Node5</title>
<path fill="none" stroke="#63b8ff" d="M430.03,-54.75C426.14,-47.88 420.59,-38.08 415.7,-29.45"/>
<polygon fill="#63b8ff" stroke="#63b8ff" points="418.76,-27.74 410.79,-20.76 412.67,-31.19 418.76,-27.74"/>
</g>
<!-- Node67&#45;&gt;Node2 -->
<g id="edge19" class="edge">
<title>Node67&#45;&gt;Node2</title>
<path fill="none" stroke="#63b8ff" d="M120.83,-109.66C118.61,-92.5 113.65,-54.26 110.58,-30.6"/>
<polygon fill="#63b8ff" stroke="#63b8ff" points="114.09,-30.43 109.34,-20.96 107.15,-31.33 114.09,-30.43"/>
</g>
<!-- Node67&#45;&gt;Node4 -->
<g id="edge21" class="edge">
<title>Node67&#45;&gt;Node4</title>
<path fill="none" stroke="#63b8ff" d="M135.89,-109.51C148.22,-101.54 166.45,-89.75 180.95,-80.38"/>
<polygon fill="#63b8ff" stroke="#63b8ff" points="182.51,-83.55 189,-75.18 178.71,-77.67 182.51,-83.55"/>
</g>
<!-- Node67&#45;&gt;Node5 -->
<g id="edge20" class="edge">
<title>Node67&#45;&gt;Node5</title>
<path fill="none" stroke="#63b8ff" d="M125.22,-109.89C130.95,-95.94 144.26,-68.56 164.98,-55 196.89,-34.12 302.58,-20.6 362.52,-14.42"/>
<polygon fill="#63b8ff" stroke="#63b8ff" points="362.76,-17.91 372.36,-13.43 362.06,-10.94 362.76,-17.91"/>
</g>
<!-- Node68&#45;&gt;Node2 -->
<g id="edge26" class="edge">
<title>Node68&#45;&gt;Node2</title>
<path fill="none" stroke="#63b8ff" d="M663.07,-164.77C677.91,-152.03 700.84,-127.92 686.98,-110 620.68,-24.31 265.65,-12.32 146.79,-10.72"/>
<polygon fill="#63b8ff" stroke="#63b8ff" points="146.95,-7.22 136.91,-10.61 146.87,-14.22 146.95,-7.22"/>
</g>
<!-- Node68&#45;&gt;Node54 -->
<g id="edge27" class="edge">
<title>Node68&#45;&gt;Node54</title>
<path fill="none" stroke="#63b8ff" d="M648.68,-164.75C646.14,-158.04 642.55,-148.52 639.35,-140.02"/>
<polygon fill="#63b8ff" stroke="#63b8ff" points="642.69,-138.98 635.89,-130.86 636.14,-141.45 642.69,-138.98"/>
</g>
<!-- Node68&#45;&gt;Node66 -->
<g id="edge28" class="edge">
<title>Node68&#45;&gt;Node66</title>
<path fill="none" stroke="#63b8ff" d="M659.18,-164.69C669.1,-151.42 684.35,-126.12 670.98,-110 643.41,-76.75 522.42,-82.01 479.98,-74 479.16,-73.85 478.33,-73.69 477.5,-73.53"/>
<polygon fill="#63b8ff" stroke="#63b8ff" points="478.41,-70.14 467.94,-71.73 477.12,-77.02 478.41,-70.14"/>
</g>
<!-- Node69&#45;&gt;Node2 -->
<g id="edge31" class="edge">
<title>Node69&#45;&gt;Node2</title>
<path fill="none" stroke="#63b8ff" d="M281.78,-167.11C278.48,-166.38 275.16,-165.67 271.98,-165 190.86,-147.95 141.63,-193.02 88.98,-129 65.58,-100.54 83.57,-54.86 96.94,-29.32"/>
<polygon fill="#63b8ff" stroke="#63b8ff" points="99.9,-31.2 101.69,-20.76 93.78,-27.81 99.9,-31.2"/>
</g>
<!-- Node69&#45;&gt;Node4 -->
<g id="edge32" class="edge">
<title>Node69&#45;&gt;Node4</title>
<path fill="none" stroke="#63b8ff" d="M281.53,-166.12C251.66,-157.73 207.7,-143.33 197.98,-129 189.23,-116.1 191.91,-98.19 196.11,-84.68"/>
<polygon fill="#63b8ff" stroke="#63b8ff" points="199.28,-86.19 199.41,-75.59 192.7,-83.79 199.28,-86.19"/>
</g>
<!-- Node69&#45;&gt;Node5 -->
<g id="edge33" class="edge">
<title>Node69&#45;&gt;Node5</title>
<path fill="none" stroke="#63b8ff" d="M338.19,-166C377.15,-153.95 445.9,-126.15 474.98,-74 486.62,-53.12 462.34,-35.44 439.26,-24.08"/>
<polygon fill="#63b8ff" stroke="#63b8ff" points="440.79,-20.93 430.24,-19.95 437.87,-27.3 440.79,-20.93"/>
</g>
<!-- Node69&#45;&gt;Node66 -->
<g id="edge35" class="edge">
<title>Node69&#45;&gt;Node66</title>
<path fill="none" stroke="#63b8ff" d="M320.36,-164.66C330.87,-155.7 347.59,-141.42 361.98,-129 380.55,-112.98 401.69,-94.57 416.42,-81.72"/>
<polygon fill="#63b8ff" stroke="#63b8ff" points="418.71,-84.36 423.94,-75.15 414.11,-79.09 418.71,-84.36"/>
</g>
<!-- Node69&#45;&gt;Node67 -->
<g id="edge34" class="edge">
<title>Node69&#45;&gt;Node67</title>
<path fill="none" stroke="#63b8ff" d="M281.83,-165.57C248.47,-156.16 192.85,-140.48 156.8,-130.32"/>
<polygon fill="#63b8ff" stroke="#63b8ff" points="157.87,-126.98 147.3,-127.64 155.97,-133.72 157.87,-126.98"/>
</g>
<!-- Node70&#45;&gt;Node2 -->
<g id="edge37" class="edge">
<title>Node70&#45;&gt;Node2</title>
<path fill="none" stroke="#63b8ff" d="M204.26,-166.56C154.21,-154.81 58.3,-131.97 55.98,-129 35.74,-103.08 42.22,-84.87 55.98,-55 61.48,-43.06 71.94,-33.13 82.04,-25.7"/>
<polygon fill="#63b8ff" stroke="#63b8ff" points="83.85,-28.7 90.19,-20.21 79.94,-22.89 83.85,-28.7"/>
</g>
<!-- Node70&#45;&gt;Node5 -->
<g id="edge38" class="edge">
<title>Node70&#45;&gt;Node5</title>
<path fill="none" stroke="#63b8ff" d="M245.8,-164.59C257.31,-155.8 275.17,-141.87 289.98,-129 316.8,-105.7 323.21,-99.46 347.98,-74 362.78,-58.79 378.86,-40.72 390.16,-27.76"/>
<polygon fill="#63b8ff" stroke="#63b8ff" points="392.56,-30.33 396.46,-20.47 387.27,-25.74 392.56,-30.33"/>
</g>
<!-- Node70&#45;&gt;Node67 -->
<g id="edge39" class="edge">
<title>Node70&#45;&gt;Node67</title>
<path fill="none" stroke="#63b8ff" d="M214.98,-164.51C197.42,-156.2 171.06,-143.73 150.89,-134.18"/>
<polygon fill="#63b8ff" stroke="#63b8ff" points="152.6,-131.12 142.07,-130.01 149.61,-137.45 152.6,-131.12"/>
</g>
<!-- Node71&#45;&gt;Node2 -->
<g id="edge41" class="edge">
<title>Node71&#45;&gt;Node2</title>
<path fill="none" stroke="#63b8ff" d="M130.38,-164.55C97.19,-150.91 39.75,-121.42 17.98,-74 5.79,-47.46 40.19,-29.98 69.92,-20.2"/>
<polygon fill="#63b8ff" stroke="#63b8ff" points="70.58,-23.66 79.12,-17.39 68.53,-16.97 70.58,-23.66"/>
</g>
<!-- Node71&#45;&gt;Node4 -->
<g id="edge42" class="edge">
<title>Node71&#45;&gt;Node4</title>
<path fill="none" stroke="#63b8ff" d="M132.9,-164.57C108.22,-153.23 73.61,-132.43 88.98,-110 105.42,-86 136.81,-74.94 162.65,-69.85"/>
<polygon fill="#63b8ff" stroke="#63b8ff" points="162.93,-73.35 172.2,-68.21 161.75,-66.45 162.93,-73.35"/>
</g>
<!-- Node71&#45;&gt;Node65 -->
<g id="edge43" class="edge">
<title>Node71&#45;&gt;Node65</title>
<path fill="none" stroke="#63b8ff" d="M172.96,-164.51C189.43,-156.27 214.07,-143.96 233.09,-134.45"/>
<polygon fill="#63b8ff" stroke="#63b8ff" points="234.53,-137.64 241.91,-130.03 231.4,-131.38 234.53,-137.64"/>
</g>
<!-- Node71&#45;&gt;Node66 -->
<g id="edge45" class="edge">
<title>Node71&#45;&gt;Node66</title>
<path fill="none" stroke="#63b8ff" d="M184.76,-164.57C212.3,-156.1 254.26,-142.67 289.98,-129 330.94,-113.32 377.19,-92.51 406.21,-79.06"/>
<polygon fill="#63b8ff" stroke="#63b8ff" points="407.49,-82.33 415.07,-74.93 404.53,-75.98 407.49,-82.33"/>
</g>
<!-- Node71&#45;&gt;Node67 -->
<g id="edge44" class="edge">
<title>Node71&#45;&gt;Node67</title>
<path fill="none" stroke="#63b8ff" d="M149.53,-164.75C145.21,-157.81 139.02,-147.86 133.6,-139.16"/>
<polygon fill="#63b8ff" stroke="#63b8ff" points="136.6,-137.37 128.35,-130.73 130.66,-141.07 136.6,-137.37"/>
</g>
</g>
</svg>
