<?xml version="1.0" encoding="UTF-8" standalone="no"?>
<!DOCTYPE svg PUBLIC "-//W3C//DTD SVG 1.1//EN"
 "http://www.w3.org/Graphics/SVG/1.1/DTD/svg11.dtd">
<!-- Generated by graphviz version 2.40.1 (20161225.0304)
 -->
<!-- Title: mutt/random.c Pages: 1 -->
<svg width="619pt" height="140pt"
 viewBox="0.00 0.00 618.50 140.00" xmlns="http://www.w3.org/2000/svg" xmlns:xlink="http://www.w3.org/1999/xlink">
<g id="graph0" class="graph" transform="scale(1 1) rotate(0) translate(4 136)">
<title>mutt/random.c</title>
<polygon fill="#ffffff" stroke="transparent" points="-4,4 -4,-136 614.5,-136 614.5,4 -4,4"/>
<!-- Node0 -->
<g id="node1" class="node">
<title>Node0</title>
<polygon fill="#bfbfbf" stroke="#000000" points="254,-112.5 254,-131.5 343,-131.5 343,-112.5 254,-112.5"/>
<text text-anchor="middle" x="298.5" y="-119.5" font-family="Helvetica,sans-Serif" font-size="10.00" fill="#000000">mutt/random.c</text>
</g>
<!-- Node1 -->
<g id="node2" class="node">
<title>Node1</title>
<polygon fill="#ffffff" stroke="#bfbfbf" points="0,-56.5 0,-75.5 55,-75.5 55,-56.5 0,-56.5"/>
<text text-anchor="middle" x="27.5" y="-63.5" font-family="Helvetica,sans-Serif" font-size="10.00" fill="#000000">config.h</text>
</g>
<!-- Node0&#45;&gt;Node1 -->
<g id="edge1" class="edge">
<title>Node0&#45;&gt;Node1</title>
<path fill="none" stroke="#191970" d="M253.8785,-114.1865C208.7686,-106.0741 136.8471,-92.5583 65.4027,-76.0879"/>
<polygon fill="#191970" stroke="#191970" points="65.8606,-72.601 55.3276,-73.7445 64.2747,-79.419 65.8606,-72.601"/>
</g>
<!-- Node2 -->
<g id="node3" class="node">
<title>Node2</title>
<polygon fill="#ffffff" stroke="#bfbfbf" points="73.5,-56.5 73.5,-75.5 129.5,-75.5 129.5,-56.5 73.5,-56.5"/>
<text text-anchor="middle" x="101.5" y="-63.5" font-family="Helvetica,sans-Serif" font-size="10.00" fill="#000000">stddef.h</text>
</g>
<!-- Node0&#45;&gt;Node2 -->
<g id="edge2" class="edge">
<title>Node0&#45;&gt;Node2</title>
<path fill="none" stroke="#191970" d="M264.6345,-112.3733C229.7415,-102.4544 175.4742,-87.0282 139.228,-76.7247"/>
<polygon fill="#191970" stroke="#191970" points="140.0896,-73.331 129.5136,-73.9633 138.1755,-80.0643 140.0896,-73.331"/>
</g>
<!-- Node3 -->
<g id="node4" class="node">
<title>Node3</title>
<polygon fill="#ffffff" stroke="#bfbfbf" points="148,-56.5 148,-75.5 199,-75.5 199,-56.5 148,-56.5"/>
<text text-anchor="middle" x="173.5" y="-63.5" font-family="Helvetica,sans-Serif" font-size="10.00" fill="#000000">errno.h</text>
</g>
<!-- Node0&#45;&gt;Node3 -->
<g id="edge3" class="edge">
<title>Node0&#45;&gt;Node3</title>
<path fill="none" stroke="#191970" d="M277.0117,-112.3733C256.856,-103.3435 226.512,-89.7494 203.882,-79.6111"/>
<polygon fill="#191970" stroke="#191970" points="205.2649,-76.3955 194.7079,-75.5011 202.4029,-82.7838 205.2649,-76.3955"/>
</g>
<!-- Node4 -->
<g id="node5" class="node">
<title>Node4</title>
<polygon fill="#ffffff" stroke="#bfbfbf" points="217,-56.5 217,-75.5 270,-75.5 270,-56.5 217,-56.5"/>
<text text-anchor="middle" x="243.5" y="-63.5" font-family="Helvetica,sans-Serif" font-size="10.00" fill="#000000">stdint.h</text>
</g>
<!-- Node0&#45;&gt;Node4 -->
<g id="edge4" class="edge">
<title>Node0&#45;&gt;Node4</title>
<path fill="none" stroke="#191970" d="M288.9197,-112.2455C280.9542,-104.1352 269.4359,-92.4075 259.9921,-82.7919"/>
<polygon fill="#191970" stroke="#191970" points="262.4747,-80.3247 252.9705,-75.6427 257.4805,-85.2297 262.4747,-80.3247"/>
</g>
<!-- Node5 -->
<g id="node6" class="node">
<title>Node5</title>
<polygon fill="#ffffff" stroke="#bfbfbf" points="369.5,-.5 369.5,-19.5 419.5,-19.5 419.5,-.5 369.5,-.5"/>
<text text-anchor="middle" x="394.5" y="-7.5" font-family="Helvetica,sans-Serif" font-size="10.00" fill="#000000">stdio.h</text>
</g>
<!-- Node0&#45;&gt;Node5 -->
<g id="edge5" class="edge">
<title>Node0&#45;&gt;Node5</title>
<path fill="none" stroke="#191970" d="M299.2978,-112.04C300.8645,-98.1648 305.4271,-72.8312 318.5,-56 329.2098,-42.2112 345.309,-31.6224 359.9369,-24.0997"/>
<polygon fill="#191970" stroke="#191970" points="361.7818,-27.0956 369.2657,-19.5962 358.7385,-20.7918 361.7818,-27.0956"/>
</g>
<!-- Node6 -->
<g id="node7" class="node">
<title>Node6</title>
<polygon fill="#ffffff" stroke="#bfbfbf" points="327,-56.5 327,-75.5 380,-75.5 380,-56.5 327,-56.5"/>
<text text-anchor="middle" x="353.5" y="-63.5" font-family="Helvetica,sans-Serif" font-size="10.00" fill="#000000">string.h</text>
</g>
<!-- Node0&#45;&gt;Node6 -->
<g id="edge6" class="edge">
<title>Node0&#45;&gt;Node6</title>
<path fill="none" stroke="#191970" d="M308.0803,-112.2455C316.0458,-104.1352 327.5641,-92.4075 337.0079,-82.7919"/>
<polygon fill="#191970" stroke="#191970" points="339.5195,-85.2297 344.0295,-75.6427 334.5253,-80.3247 339.5195,-85.2297"/>
</g>
<!-- Node7 -->
<g id="node8" class="node">
<title>Node7</title>
<g id="a_node8"><a xlink:href="exit_8h.html" target="_top" xlink:title="Leave the program NOW. ">
<polygon fill="#ffffff" stroke="#000000" points="398.5,-56.5 398.5,-75.5 442.5,-75.5 442.5,-56.5 398.5,-56.5"/>
<text text-anchor="middle" x="420.5" y="-63.5" font-family="Helvetica,sans-Serif" font-size="10.00" fill="#000000">exit.h</text>
</a>
</g>
</g>
<!-- Node0&#45;&gt;Node7 -->
<g id="edge7" class="edge">
<title>Node0&#45;&gt;Node7</title>
<path fill="none" stroke="#191970" d="M319.4725,-112.3733C339.0567,-103.3838 368.4961,-89.8706 390.551,-79.7471"/>
<polygon fill="#191970" stroke="#191970" points="392.1729,-82.8538 399.8011,-75.5011 389.2527,-76.4919 392.1729,-82.8538"/>
</g>
<!-- Node8 -->
<g id="node9" class="node">
<title>Node8</title>
<g id="a_node9"><a xlink:href="logging_8h.html" target="_top" xlink:title="Logging Dispatcher. ">
<polygon fill="#ffffff" stroke="#ff0000" points="460.5,-56.5 460.5,-75.5 522.5,-75.5 522.5,-56.5 460.5,-56.5"/>
<text text-anchor="middle" x="491.5" y="-63.5" font-family="Helvetica,sans-Serif" font-size="10.00" fill="#000000">logging.h</text>
</a>
</g>
</g>
<!-- Node0&#45;&gt;Node8 -->
<g id="edge8" class="edge">
<title>Node0&#45;&gt;Node8</title>
<path fill="none" stroke="#191970" d="M331.6779,-112.3733C364.5392,-102.8384 414.9404,-88.2142 450.3372,-77.9436"/>
<polygon fill="#191970" stroke="#191970" points="451.7211,-81.1865 460.3497,-75.0384 449.7704,-74.4638 451.7211,-81.1865"/>
</g>
<!-- Node12 -->
<g id="node10" class="node">
<title>Node12</title>
<g id="a_node10"><a xlink:href="mutt_2message_8h.html" target="_top" xlink:title="Message logging. ">
<polygon fill="#ffffff" stroke="#ff0000" points="540.5,-56.5 540.5,-75.5 610.5,-75.5 610.5,-56.5 540.5,-56.5"/>
<text text-anchor="middle" x="575.5" y="-63.5" font-family="Helvetica,sans-Serif" font-size="10.00" fill="#000000">message.h</text>
</a>
</g>
</g>
<!-- Node0&#45;&gt;Node12 -->
<g id="edge10" class="edge">
<title>Node0&#45;&gt;Node12</title>
<path fill="none" stroke="#191970" d="M343.2451,-113.5594C388.101,-105.0101 459.3951,-91.1842 530.4357,-76.1835"/>
<polygon fill="#191970" stroke="#191970" points="531.3986,-79.5573 540.4554,-74.0595 529.9469,-72.7094 531.3986,-79.5573"/>
</g>
<!-- Node8&#45;&gt;Node5 -->
<g id="edge9" class="edge">
<title>Node8&#45;&gt;Node5</title>
<path fill="none" stroke="#191970" d="M474.6039,-56.2455C459.582,-47.5731 437.3957,-34.7645 420.179,-24.825"/>
<polygon fill="#191970" stroke="#191970" points="421.6128,-21.6114 411.2025,-19.6427 418.1129,-27.6737 421.6128,-21.6114"/>
</g>
</g>
</svg>
