<?xml version="1.0" encoding="UTF-8" standalone="no"?>
<!DOCTYPE svg PUBLIC "-//W3C//DTD SVG 1.1//EN"
 "http://www.w3.org/Graphics/SVG/1.1/DTD/svg11.dtd">
<!-- Generated by graphviz version 12.2.1 (20241206.2353)
 -->
<!-- Title: mutt_attach_forward Pages: 1 -->
<svg width="278pt" height="150pt"
 viewBox="0.00 0.00 277.75 150.25" xmlns="http://www.w3.org/2000/svg" xmlns:xlink="http://www.w3.org/1999/xlink">
<g id="graph0" class="graph" transform="scale(1 1) rotate(0) translate(4 146.25)">
<title>mutt_attach_forward</title>
<!-- Node1 -->
<g id="Node000001" class="node">
<title>Node1</title>
<g id="a_Node000001"><a xlink:title="Forward an Attachment.">
<polygon fill="#999999" stroke="#666666" points="112.75,-82.25 0,-82.25 0,-60 112.75,-60 112.75,-82.25"/>
<text text-anchor="middle" x="56.38" y="-68.75" font-family="Helvetica,sans-Serif" font-size="10.00">mutt_attach_forward</text>
</a>
</g>
</g>
<!-- Node2 -->
<g id="Node000002" class="node">
<title>Node2</title>
<g id="a_Node000002"><a xlink:href="recvcmd_8c.html#a3174612ef64b7c263b5c745b052d2d59" target="_top" xlink:title="Forward one or several MIME bodies.">
<polygon fill="#fff0f0" stroke="red" points="269.75,-142.25 148.75,-142.25 148.75,-120 269.75,-120 269.75,-142.25"/>
<text text-anchor="middle" x="209.25" y="-128.75" font-family="Helvetica,sans-Serif" font-size="10.00">attach_forward_bodies</text>
</a>
</g>
</g>
<!-- Node1&#45;&gt;Node2 -->
<g id="edge1_Node000001_Node000002" class="edge">
<title>Node1&#45;&gt;Node2</title>
<g id="a_edge1_Node000001_Node000002"><a xlink:title=" ">
<path fill="none" stroke="#63b8ff" d="M81.95,-82.59C100.2,-90.93 125.81,-102.27 148.75,-111.12 152.86,-112.71 157.16,-114.3 161.49,-115.84"/>
<polygon fill="#63b8ff" stroke="#63b8ff" points="160.17,-119.09 170.77,-119.08 162.48,-112.48 160.17,-119.09"/>
</a>
</g>
</g>
<!-- Node1826 -->
<g id="Node001826" class="node">
<title>Node1826</title>
<g id="a_Node001826"><a xlink:href="recvcmd_8c.html#a5b3658fb64b0827e4f7b88cc2a3e1870" target="_top" xlink:title="Forward one or several message&#45;type attachments.">
<polygon fill="#fff0f0" stroke="red" points="266.38,-102.25 152.12,-102.25 152.12,-80 266.38,-80 266.38,-102.25"/>
<text text-anchor="middle" x="209.25" y="-88.75" font-family="Helvetica,sans-Serif" font-size="10.00">attach_forward_msgs</text>
</a>
</g>
</g>
<!-- Node1&#45;&gt;Node1826 -->
<g id="edge2_Node000001_Node001826" class="edge">
<title>Node1&#45;&gt;Node1826</title>
<g id="a_edge2_Node000001_Node001826"><a xlink:title=" ">
<path fill="none" stroke="#63b8ff" d="M113.13,-78.52C121.98,-79.69 131.22,-80.91 140.32,-82.12"/>
<polygon fill="#63b8ff" stroke="#63b8ff" points="139.85,-85.59 150.22,-83.43 140.77,-78.65 139.85,-85.59"/>
</a>
</g>
</g>
<!-- Node1827 -->
<g id="Node001827" class="node">
<title>Node1827</title>
<g id="a_Node001827"><a xlink:href="recvcmd_8c.html#af26749793fc51d771a49850622035d1e" target="_top" xlink:title="Are all the Attachments RFC822 messages?">
<polygon fill="#fff0f0" stroke="red" points="249.5,-62.25 169,-62.25 169,-40 249.5,-40 249.5,-62.25"/>
<text text-anchor="middle" x="209.25" y="-48.75" font-family="Helvetica,sans-Serif" font-size="10.00">check_all_msg</text>
</a>
</g>
</g>
<!-- Node1&#45;&gt;Node1827 -->
<g id="edge3_Node000001_Node001827" class="edge">
<title>Node1&#45;&gt;Node1827</title>
<g id="a_edge3_Node000001_Node001827"><a xlink:title=" ">
<path fill="none" stroke="#63b8ff" d="M113.13,-63.73C127.7,-61.8 143.32,-59.73 157.61,-57.84"/>
<polygon fill="#63b8ff" stroke="#63b8ff" points="157.79,-61.34 167.24,-56.56 156.87,-54.41 157.79,-61.34"/>
</a>
</g>
</g>
<!-- Node1829 -->
<g id="Node001829" class="node">
<title>Node1829</title>
<g id="a_Node001829"><a xlink:href="recvcmd_8c.html#a57bf017e070d58703cd1b742d61fe9cb" target="_top" xlink:title="Count the number of tagged attachments.">
<polygon fill="white" stroke="#666666" points="249.12,-22.25 169.38,-22.25 169.38,0 249.12,0 249.12,-22.25"/>
<text text-anchor="middle" x="209.25" y="-8.75" font-family="Helvetica,sans-Serif" font-size="10.00">count_tagged</text>
</a>
</g>
</g>
<!-- Node1&#45;&gt;Node1829 -->
<g id="edge4_Node000001_Node001829" class="edge">
<title>Node1&#45;&gt;Node1829</title>
<g id="a_edge4_Node000001_Node001829"><a xlink:title=" ">
<path fill="none" stroke="#63b8ff" d="M81.95,-59.66C100.2,-51.32 125.81,-39.98 148.75,-31.12 152.86,-29.54 157.16,-27.95 161.49,-26.41"/>
<polygon fill="#63b8ff" stroke="#63b8ff" points="162.48,-29.77 170.77,-23.17 160.17,-23.16 162.48,-29.77"/>
</a>
</g>
</g>
</g>
</svg>
