<?xml version="1.0" encoding="UTF-8" standalone="no"?>
<!DOCTYPE svg PUBLIC "-//W3C//DTD SVG 1.1//EN"
 "http://www.w3.org/Graphics/SVG/1.1/DTD/svg11.dtd">
<!-- Generated by graphviz version 2.40.1 (20161225.0304)
 -->
<!-- Title: query_pipe_attachment Pages: 1 -->
<svg width="435pt" height="218pt"
 viewBox="0.00 0.00 435.00 218.00" xmlns="http://www.w3.org/2000/svg" xmlns:xlink="http://www.w3.org/1999/xlink">
<g id="graph0" class="graph" transform="scale(1 1) rotate(0) translate(4 214)">
<title>query_pipe_attachment</title>
<polygon fill="#ffffff" stroke="transparent" points="-4,4 -4,-214 431,-214 431,4 -4,4"/>
<!-- Node23641 -->
<g id="node1" class="node">
<title>Node23641</title>
<polygon fill="#bfbfbf" stroke="#000000" points="0,-95.5 0,-114.5 132,-114.5 132,-95.5 0,-95.5"/>
<text text-anchor="middle" x="66" y="-102.5" font-family="Helvetica,sans-Serif" font-size="10.00" fill="#000000">query_pipe_attachment</text>
</g>
<!-- Node23642 -->
<g id="node2" class="node">
<title>Node23642</title>
<g id="a_node2"><a xlink:href="question_2lib_8h.html#a67a4f6d2c21c9de420130089bb20505c" target="_top" xlink:title="Ask the user a Yes/No question. ">
<polygon fill="#ffffff" stroke="#ff0000" points="190,-190.5 190,-209.5 274,-209.5 274,-190.5 190,-190.5"/>
<text text-anchor="middle" x="232" y="-197.5" font-family="Helvetica,sans-Serif" font-size="10.00" fill="#000000">mutt_yesorno</text>
</a>
</g>
</g>
<!-- Node23641&#45;&gt;Node23642 -->
<g id="edge1" class="edge">
<title>Node23641&#45;&gt;Node23642</title>
<path fill="none" stroke="#191970" d="M76.1889,-114.5557C93.6716,-130.4757 131.0789,-162.5014 168,-181 172.5465,-183.278 177.4146,-185.3332 182.3603,-187.1751"/>
<polygon fill="#191970" stroke="#191970" points="181.3083,-190.5145 191.9029,-190.4569 183.5848,-183.895 181.3083,-190.5145"/>
</g>
<!-- Node23732 -->
<g id="node3" class="node">
<title>Node23732</title>
<g id="a_node3"><a xlink:href="msgwin_8c.html#af8181b325c9ea8592a1a8c092f78cfb9" target="_top" xlink:title="Clear the text in the Message Window. ">
<polygon fill="#ffffff" stroke="#ff0000" points="177.5,-152.5 177.5,-171.5 286.5,-171.5 286.5,-152.5 177.5,-152.5"/>
<text text-anchor="middle" x="232" y="-159.5" font-family="Helvetica,sans-Serif" font-size="10.00" fill="#000000">msgwin_clear_text</text>
</a>
</g>
</g>
<!-- Node23641&#45;&gt;Node23732 -->
<g id="edge2" class="edge">
<title>Node23641&#45;&gt;Node23732</title>
<path fill="none" stroke="#191970" d="M90.1536,-114.5275C110.718,-122.5116 141.1163,-134.0133 168,-143 174.5732,-145.1973 181.5675,-147.4047 188.4275,-149.4977"/>
<polygon fill="#191970" stroke="#191970" points="187.7334,-152.9436 198.3175,-152.4677 189.7467,-146.2394 187.7334,-152.9436"/>
</g>
<!-- Node23739 -->
<g id="node4" class="node">
<title>Node23739</title>
<g id="a_node4"><a xlink:href="mutt__attach_8c.html#a0d463fe47dc745c39cddb1e4d1c10982" target="_top" xlink:title="Pipe an attachment to a command. ">
<polygon fill="#ffffff" stroke="#ff0000" points="168,-114.5 168,-133.5 296,-133.5 296,-114.5 168,-114.5"/>
<text text-anchor="middle" x="232" y="-121.5" font-family="Helvetica,sans-Serif" font-size="10.00" fill="#000000">mutt_pipe_attachment</text>
</a>
</g>
</g>
<!-- Node23641&#45;&gt;Node23739 -->
<g id="edge3" class="edge">
<title>Node23641&#45;&gt;Node23739</title>
<path fill="none" stroke="#191970" d="M132.0846,-112.5639C140.5326,-113.5308 149.2249,-114.5257 157.7908,-115.5062"/>
<polygon fill="#191970" stroke="#191970" points="157.4331,-118.988 167.7662,-116.6479 158.2291,-112.0334 157.4331,-118.988"/>
</g>
<!-- Node24633 -->
<g id="node5" class="node">
<title>Node24633</title>
<g id="a_node5"><a xlink:href="file_8c.html#ae57463c2854c006a3c67b78736e9056e" target="_top" xlink:title="Delete a file, carefully. ">
<polygon fill="#ffffff" stroke="#ff0000" points="332,-76.5 332,-95.5 427,-95.5 427,-76.5 332,-76.5"/>
<text text-anchor="middle" x="379.5" y="-83.5" font-family="Helvetica,sans-Serif" font-size="10.00" fill="#000000">mutt_file_unlink</text>
</a>
</g>
</g>
<!-- Node23641&#45;&gt;Node24633 -->
<g id="edge5" class="edge">
<title>Node23641&#45;&gt;Node24633</title>
<path fill="none" stroke="#191970" d="M132.1022,-100.9938C188.3014,-97.5878 268.1862,-92.7463 321.8311,-89.4951"/>
<polygon fill="#191970" stroke="#191970" points="322.0929,-92.9857 331.8628,-88.8871 321.6693,-85.9986 322.0929,-92.9857"/>
</g>
<!-- Node25644 -->
<g id="node6" class="node">
<title>Node25644</title>
<g id="a_node6"><a xlink:href="file_8c.html#a8154bfd014904ca57b0ba2cfb31e26bc" target="_top" xlink:title="Rename a file. ">
<polygon fill="#ffffff" stroke="#ff0000" points="180.5,-38.5 180.5,-57.5 283.5,-57.5 283.5,-38.5 180.5,-38.5"/>
<text text-anchor="middle" x="232" y="-45.5" font-family="Helvetica,sans-Serif" font-size="10.00" fill="#000000">mutt_file_rename</text>
</a>
</g>
</g>
<!-- Node23641&#45;&gt;Node25644 -->
<g id="edge6" class="edge">
<title>Node23641&#45;&gt;Node25644</title>
<path fill="none" stroke="#191970" d="M93.7847,-95.4595C121.4349,-85.9651 164.0472,-71.3332 194.6462,-60.8263"/>
<polygon fill="#191970" stroke="#191970" points="195.8034,-64.1296 204.1247,-57.5716 193.53,-57.509 195.8034,-64.1296"/>
</g>
<!-- Node25104 -->
<g id="node7" class="node">
<title>Node25104</title>
<g id="a_node7"><a xlink:href="sendlib_8c.html#ae4f3b3ef1863d9821af9f82d8963e5b8" target="_top" xlink:title="Update the encoding type. ">
<polygon fill="#ffffff" stroke="#ff0000" points="168,-.5 168,-19.5 296,-19.5 296,-.5 168,-.5"/>
<text text-anchor="middle" x="232" y="-7.5" font-family="Helvetica,sans-Serif" font-size="10.00" fill="#000000">mutt_update_encoding</text>
</a>
</g>
</g>
<!-- Node23641&#45;&gt;Node25104 -->
<g id="edge8" class="edge">
<title>Node23641&#45;&gt;Node25104</title>
<path fill="none" stroke="#191970" d="M76.1889,-95.4443C93.6716,-79.5243 131.0789,-47.4986 168,-29 172.5465,-26.722 177.4146,-24.6668 182.3603,-22.8249"/>
<polygon fill="#191970" stroke="#191970" points="183.5848,-26.105 191.9029,-19.5431 181.3083,-19.4855 183.5848,-26.105"/>
</g>
<!-- Node23739&#45;&gt;Node24633 -->
<g id="edge4" class="edge">
<title>Node23739&#45;&gt;Node24633</title>
<path fill="none" stroke="#191970" d="M269.2205,-114.411C288.5093,-109.4417 312.2584,-103.3233 332.771,-98.0387"/>
<polygon fill="#191970" stroke="#191970" points="333.7366,-101.4043 342.5472,-95.5201 331.9902,-94.6256 333.7366,-101.4043"/>
</g>
<!-- Node25644&#45;&gt;Node24633 -->
<g id="edge7" class="edge">
<title>Node25644&#45;&gt;Node24633</title>
<path fill="none" stroke="#191970" d="M269.2205,-57.589C288.5093,-62.5583 312.2584,-68.6767 332.771,-73.9613"/>
<polygon fill="#191970" stroke="#191970" points="331.9902,-77.3744 342.5472,-76.4799 333.7366,-70.5957 331.9902,-77.3744"/>
</g>
</g>
</svg>
