<?xml version="1.0" encoding="UTF-8" standalone="no"?>
<!DOCTYPE svg PUBLIC "-//W3C//DTD SVG 1.1//EN"
 "http://www.w3.org/Graphics/SVG/1.1/DTD/svg11.dtd">
<!-- Generated by graphviz version 12.2.1 (20241206.2353)
 -->
<!-- Title: can_print Pages: 1 -->
<svg width="325pt" height="108pt"
 viewBox="0.00 0.00 324.50 108.25" xmlns="http://www.w3.org/2000/svg" xmlns:xlink="http://www.w3.org/1999/xlink">
<g id="graph0" class="graph" transform="scale(1 1) rotate(0) translate(4 104.25)">
<title>can_print</title>
<!-- Node1 -->
<g id="Node000001" class="node">
<title>Node1</title>
<g id="a_Node000001"><a xlink:title="Do we know how to print this attachment type?">
<polygon fill="#999999" stroke="#666666" points="58.75,-42.25 0,-42.25 0,-20 58.75,-20 58.75,-42.25"/>
<text text-anchor="middle" x="29.38" y="-28.75" font-family="Helvetica,sans-Serif" font-size="10.00">can_print</text>
</a>
</g>
</g>
<!-- Node2 -->
<g id="Node000002" class="node">
<title>Node2</title>
<g id="a_Node000002"><a xlink:href="mailcap_8c.html#af76f3b2c5819c22f1470723cc30a9ad1" target="_top" xlink:title="Find given type in the list of mailcap files.">
<polygon fill="#fff0f0" stroke="red" points="186.88,-100.25 100.38,-100.25 100.38,-78 186.88,-78 186.88,-100.25"/>
<text text-anchor="middle" x="143.62" y="-86.75" font-family="Helvetica,sans-Serif" font-size="10.00">mailcap_lookup</text>
</a>
</g>
</g>
<!-- Node1&#45;&gt;Node2 -->
<g id="edge1_Node000001_Node000002" class="edge">
<title>Node1&#45;&gt;Node2</title>
<g id="a_edge1_Node000001_Node000002"><a xlink:title=" ">
<path fill="none" stroke="#63b8ff" d="M48.32,-42.62C61.03,-50.54 78.62,-61.04 94.75,-69.12 97.32,-70.41 100,-71.69 102.71,-72.94"/>
<polygon fill="#63b8ff" stroke="#63b8ff" points="101.28,-76.14 111.84,-76.98 104.11,-69.73 101.28,-76.14"/>
</a>
</g>
</g>
<!-- Node1027 -->
<g id="Node001027" class="node">
<title>Node1027</title>
<g id="a_Node001027"><a xlink:href="handler_8c.html#a3cc6312b687436c5023e476461662e8e" target="_top" xlink:title="Will decoding the attachment produce any output.">
<polygon fill="#fff0f0" stroke="red" points="192.5,-42.25 94.75,-42.25 94.75,-20 192.5,-20 192.5,-42.25"/>
<text text-anchor="middle" x="143.62" y="-28.75" font-family="Helvetica,sans-Serif" font-size="10.00">mutt_can_decode</text>
</a>
</g>
</g>
<!-- Node1&#45;&gt;Node1027 -->
<g id="edge2_Node000001_Node001027" class="edge">
<title>Node1&#45;&gt;Node1027</title>
<g id="a_edge2_Node000001_Node001027"><a xlink:title=" ">
<path fill="none" stroke="#63b8ff" d="M58.99,-31.12C66.4,-31.12 74.67,-31.12 83.03,-31.12"/>
<polygon fill="#63b8ff" stroke="#63b8ff" points="82.92,-34.63 92.92,-31.13 82.92,-27.63 82.92,-34.63"/>
</a>
</g>
</g>
<!-- Node6 -->
<g id="Node000006" class="node">
<title>Node6</title>
<g id="a_Node000006"><a xlink:href="mutt_2string_8c.html#a29db81d6f5a7dd216cbea75ecf8a5885" target="_top" xlink:title="Compare two strings, ignoring case.">
<polygon fill="#fff0f0" stroke="red" points="316.5,-22.25 228.5,-22.25 228.5,0 316.5,0 316.5,-22.25"/>
<text text-anchor="middle" x="272.5" y="-8.75" font-family="Helvetica,sans-Serif" font-size="10.00">mutt_istr_equal</text>
</a>
</g>
</g>
<!-- Node1&#45;&gt;Node6 -->
<g id="edge5_Node000001_Node000006" class="edge">
<title>Node1&#45;&gt;Node6</title>
<g id="a_edge5_Node000001_Node000006"><a xlink:title=" ">
<path fill="none" stroke="#63b8ff" d="M59.1,-20.17C70.08,-16.52 82.83,-12.93 94.75,-11.12 135.23,-4.98 181.52,-5.24 216.57,-6.9"/>
<polygon fill="#63b8ff" stroke="#63b8ff" points="216.32,-10.39 226.5,-7.43 216.7,-3.4 216.32,-10.39"/>
</a>
</g>
</g>
<!-- Node1027&#45;&gt;Node1027 -->
<g id="edge3_Node001027_Node001027" class="edge">
<title>Node1027&#45;&gt;Node1027</title>
<g id="a_edge3_Node001027_Node001027"><a xlink:title=" ">
<path fill="none" stroke="#63b8ff" d="M124.97,-42.49C117.99,-51.28 124.21,-60.25 143.62,-60.25 154.24,-60.25 160.91,-57.57 163.64,-53.7"/>
<polygon fill="#63b8ff" stroke="#63b8ff" points="167.14,-53.5 162.46,-43.99 160.19,-54.34 167.14,-53.5"/>
</a>
</g>
</g>
<!-- Node1027&#45;&gt;Node6 -->
<g id="edge4_Node001027_Node000006" class="edge">
<title>Node1027&#45;&gt;Node6</title>
<g id="a_edge4_Node001027_Node000006"><a xlink:title=" ">
<path fill="none" stroke="#63b8ff" d="M192.95,-23.51C200.85,-22.26 209.09,-20.96 217.12,-19.7"/>
<polygon fill="#63b8ff" stroke="#63b8ff" points="217.47,-23.19 226.8,-18.17 216.38,-16.27 217.47,-23.19"/>
</a>
</g>
</g>
</g>
</svg>
