<?xml version="1.0" encoding="UTF-8" standalone="no"?>
<!DOCTYPE svg PUBLIC "-//W3C//DTD SVG 1.1//EN"
 "http://www.w3.org/Graphics/SVG/1.1/DTD/svg11.dtd">
<!-- Generated by graphviz version 2.40.1 (20161225.0304)
 -->
<!-- Title: attach_forward_msgs Pages: 1 -->
<svg width="499pt" height="634pt"
 viewBox="0.00 0.00 499.00 634.00" xmlns="http://www.w3.org/2000/svg" xmlns:xlink="http://www.w3.org/1999/xlink">
<g id="graph0" class="graph" transform="scale(1 1) rotate(0) translate(4 630)">
<title>attach_forward_msgs</title>
<polygon fill="#ffffff" stroke="transparent" points="-4,4 -4,-630 495,-630 495,4 -4,4"/>
<!-- Node16391 -->
<g id="node1" class="node">
<title>Node16391</title>
<polygon fill="#bfbfbf" stroke="#000000" points="0,-304.5 0,-323.5 122,-323.5 122,-304.5 0,-304.5"/>
<text text-anchor="middle" x="61" y="-311.5" font-family="Helvetica,sans-Serif" font-size="10.00" fill="#000000">attach_forward_msgs</text>
</g>
<!-- Node16392 -->
<g id="node2" class="node">
<title>Node16392</title>
<g id="a_node2"><a xlink:href="email_8c.html#a77c9ecff4b23001b81177ffe398bad44" target="_top" xlink:title="Create a new Email. ">
<polygon fill="#ffffff" stroke="#ff0000" points="385.5,-606.5 385.5,-625.5 455.5,-625.5 455.5,-606.5 385.5,-606.5"/>
<text text-anchor="middle" x="420.5" y="-613.5" font-family="Helvetica,sans-Serif" font-size="10.00" fill="#000000">email_new</text>
</a>
</g>
</g>
<!-- Node16391&#45;&gt;Node16392 -->
<g id="edge1" class="edge">
<title>Node16391&#45;&gt;Node16392</title>
<path fill="none" stroke="#191970" d="M63.0937,-323.5177C72.833,-366.9091 115.0512,-545.3608 158,-580 219.853,-629.8859 317.7592,-628.8388 374.8966,-622.8819"/>
<polygon fill="#191970" stroke="#191970" points="375.5331,-626.3321 385.0731,-621.7236 374.7414,-619.377 375.5331,-626.3321"/>
</g>
<!-- Node16395 -->
<g id="node3" class="node">
<title>Node16395</title>
<g id="a_node3"><a xlink:href="envelope_8c.html#a51f04365c2b348d829e7cd3710c55b5b" target="_top" xlink:title="Create a new Envelope. ">
<polygon fill="#ffffff" stroke="#ff0000" points="376,-567.5 376,-586.5 465,-586.5 465,-567.5 376,-567.5"/>
<text text-anchor="middle" x="420.5" y="-574.5" font-family="Helvetica,sans-Serif" font-size="10.00" fill="#000000">mutt_env_new</text>
</a>
</g>
</g>
<!-- Node16391&#45;&gt;Node16395 -->
<g id="edge2" class="edge">
<title>Node16391&#45;&gt;Node16395</title>
<path fill="none" stroke="#191970" d="M61.7772,-323.9787C65.2032,-360.5133 82.3574,-487.8209 158,-545 217.7709,-590.1815 308.0165,-590.7614 365.5897,-585.2448"/>
<polygon fill="#191970" stroke="#191970" points="366.0136,-588.7196 375.593,-584.1935 365.2819,-581.7579 366.0136,-588.7196"/>
</g>
<!-- Node16396 -->
<g id="node4" class="node">
<title>Node16396</title>
<g id="a_node4"><a xlink:href="send_8c.html#ae6c77cb9bbbd5e7f13a0eb78c3a52cb4" target="_top" xlink:title="Create a subject for a forwarded email. ">
<polygon fill="#ffffff" stroke="#ff0000" points="158,-152.5 158,-171.5 314,-171.5 314,-152.5 158,-152.5"/>
<text text-anchor="middle" x="236" y="-159.5" font-family="Helvetica,sans-Serif" font-size="10.00" fill="#000000">mutt_make_forward_subject</text>
</a>
</g>
</g>
<!-- Node16391&#45;&gt;Node16396 -->
<g id="edge3" class="edge">
<title>Node16391&#45;&gt;Node16396</title>
<path fill="none" stroke="#191970" d="M65.6116,-304.3374C77.4695,-280.5265 111.3918,-218.6036 158,-186 164.1459,-181.7008 171.0853,-178.1534 178.2273,-175.2307"/>
<polygon fill="#191970" stroke="#191970" points="179.8608,-178.3591 188.0365,-171.6205 177.443,-171.7899 179.8608,-178.3591"/>
</g>
<!-- Node16418 -->
<g id="node5" class="node">
<title>Node16418</title>
<g id="a_node5"><a xlink:href="pool_8c.html#a2129d5ea0085753afdd37cf62161845d" target="_top" xlink:title="Get a Buffer from the pool. ">
<polygon fill="#ffffff" stroke="#ff0000" points="360,-266.5 360,-285.5 481,-285.5 481,-266.5 360,-266.5"/>
<text text-anchor="middle" x="420.5" y="-273.5" font-family="Helvetica,sans-Serif" font-size="10.00" fill="#000000">mutt_buffer_pool_get</text>
</a>
</g>
</g>
<!-- Node16391&#45;&gt;Node16418 -->
<g id="edge4" class="edge">
<title>Node16391&#45;&gt;Node16418</title>
<path fill="none" stroke="#191970" d="M122.0075,-311.1592C173.3602,-308.3515 248.6693,-303.2591 314,-295 329.9729,-292.9807 347.1902,-290.1833 363.0274,-287.3554"/>
<polygon fill="#191970" stroke="#191970" points="363.9979,-290.7363 373.2086,-285.5005 362.7431,-283.8497 363.9979,-290.7363"/>
</g>
<!-- Node16423 -->
<g id="node6" class="node">
<title>Node16423</title>
<g id="a_node6"><a xlink:href="curs__lib_8c.html#ab02047769214ff014b9a8a1782babadc" target="_top" xlink:title="Ask the user a quad&#45;question. ">
<polygon fill="#ffffff" stroke="#ff0000" points="368.5,-527.5 368.5,-546.5 472.5,-546.5 472.5,-527.5 368.5,-527.5"/>
<text text-anchor="middle" x="420.5" y="-534.5" font-family="Helvetica,sans-Serif" font-size="10.00" fill="#000000">query_quadoption</text>
</a>
</g>
</g>
<!-- Node16391&#45;&gt;Node16423 -->
<g id="edge5" class="edge">
<title>Node16391&#45;&gt;Node16423</title>
<path fill="none" stroke="#191970" d="M62.3605,-323.6026C67.5944,-356.5904 89.6801,-465.8362 158,-513 216.7092,-553.5292 301.2559,-553.5978 358.4026,-547.4536"/>
<polygon fill="#191970" stroke="#191970" points="358.8619,-550.9238 368.3882,-546.2871 358.0496,-543.9711 358.8619,-550.9238"/>
</g>
<!-- Node16516 -->
<g id="node7" class="node">
<title>Node16516</title>
<g id="a_node7"><a xlink:href="file_8c.html#ae1c0c19fec03274220b3ca065ad1e2e5" target="_top" xlink:title="Call fopen() safely. ">
<polygon fill="#ffffff" stroke="#ff0000" points="374,-484.5 374,-503.5 467,-503.5 467,-484.5 374,-484.5"/>
<text text-anchor="middle" x="420.5" y="-491.5" font-family="Helvetica,sans-Serif" font-size="10.00" fill="#000000">mutt_file_fopen</text>
</a>
</g>
</g>
<!-- Node16391&#45;&gt;Node16516 -->
<g id="edge6" class="edge">
<title>Node16391&#45;&gt;Node16516</title>
<path fill="none" stroke="#191970" d="M63.0274,-323.6652C69.959,-353.9694 95.8152,-447.3399 158,-485 223.7271,-524.8053 316.6636,-516.1067 372.5095,-505.5121"/>
<polygon fill="#191970" stroke="#191970" points="373.3675,-508.91 382.4906,-503.523 371.9993,-502.045 373.3675,-508.91"/>
</g>
<!-- Node16523 -->
<g id="node8" class="node">
<title>Node16523</title>
<g id="a_node8"><a xlink:href="send_8c.html#aeb5a6ad35d5004073c7eda466a644a43" target="_top" xlink:title="Add the &quot;start of forwarded message&quot; text. ">
<polygon fill="#ffffff" stroke="#ff0000" points="181,-114.5 181,-133.5 291,-133.5 291,-114.5 181,-114.5"/>
<text text-anchor="middle" x="236" y="-121.5" font-family="Helvetica,sans-Serif" font-size="10.00" fill="#000000">mutt_forward_intro</text>
</a>
</g>
</g>
<!-- Node16391&#45;&gt;Node16523 -->
<g id="edge7" class="edge">
<title>Node16391&#45;&gt;Node16523</title>
<path fill="none" stroke="#191970" d="M63.4943,-304.4467C71.6301,-275.2611 100.26,-186.6098 158,-143 162.1342,-139.8775 166.7124,-137.2612 171.5184,-135.07"/>
<polygon fill="#191970" stroke="#191970" points="172.9522,-138.2673 180.9846,-131.3586 170.397,-131.7503 172.9522,-138.2673"/>
</g>
<!-- Node16524 -->
<g id="node9" class="node">
<title>Node16524</title>
<g id="a_node9"><a xlink:href="copy_8c.html#ac158be102976481a9c8edc42fcd8cd09" target="_top" xlink:title="make a copy of a message from a FILE pointer ">
<polygon fill="#ffffff" stroke="#ff0000" points="169.5,-266.5 169.5,-285.5 302.5,-285.5 302.5,-266.5 169.5,-266.5"/>
<text text-anchor="middle" x="236" y="-273.5" font-family="Helvetica,sans-Serif" font-size="10.00" fill="#000000">mutt_copy_message_fp</text>
</a>
</g>
</g>
<!-- Node16391&#45;&gt;Node16524 -->
<g id="edge8" class="edge">
<title>Node16391&#45;&gt;Node16524</title>
<path fill="none" stroke="#191970" d="M105.1599,-304.411C128.5651,-299.3287 157.5053,-293.0446 182.2121,-287.6797"/>
<polygon fill="#191970" stroke="#191970" points="183.1281,-291.0624 192.1577,-285.5201 181.6427,-284.2218 183.1281,-291.0624"/>
</g>
<!-- Node16634 -->
<g id="node10" class="node">
<title>Node16634</title>
<g id="a_node10"><a xlink:href="pool_8c.html#a08b48e2ac8849341888ee7429cc5093c" target="_top" xlink:title="Free a Buffer from the pool. ">
<polygon fill="#ffffff" stroke="#ff0000" points="350,-228.5 350,-247.5 491,-247.5 491,-228.5 350,-228.5"/>
<text text-anchor="middle" x="420.5" y="-235.5" font-family="Helvetica,sans-Serif" font-size="10.00" fill="#000000">mutt_buffer_pool_release</text>
</a>
</g>
</g>
<!-- Node16391&#45;&gt;Node16634 -->
<g id="edge29" class="edge">
<title>Node16391&#45;&gt;Node16634</title>
<path fill="none" stroke="#191970" d="M67.0269,-304.2961C80.3939,-283.8207 114.7886,-236.6356 158,-219 233.5532,-188.1648 331.446,-209.6 383.7377,-225.3817"/>
<polygon fill="#191970" stroke="#191970" points="382.9794,-228.8114 393.5679,-228.4455 385.0623,-222.1284 382.9794,-228.8114"/>
</g>
<!-- Node16652 -->
<g id="node11" class="node">
<title>Node16652</title>
<g id="a_node11"><a xlink:href="file_8c.html#a31f49795ff5b9558db5476e5777e63b6" target="_top" xlink:title="Close a FILE handle (and NULL the pointer) ">
<polygon fill="#ffffff" stroke="#000000" points="373,-342.5 373,-361.5 468,-361.5 468,-342.5 373,-342.5"/>
<text text-anchor="middle" x="420.5" y="-349.5" font-family="Helvetica,sans-Serif" font-size="10.00" fill="#000000">mutt_file_fclose</text>
</a>
</g>
</g>
<!-- Node16391&#45;&gt;Node16652 -->
<g id="edge13" class="edge">
<title>Node16391&#45;&gt;Node16652</title>
<path fill="none" stroke="#191970" d="M122.3918,-320.4893C189.6834,-327.6021 296.8133,-338.926 362.6617,-345.8864"/>
<polygon fill="#191970" stroke="#191970" points="362.5505,-349.394 372.863,-346.9647 363.2864,-342.4328 362.5505,-349.394"/>
</g>
<!-- Node17689 -->
<g id="node12" class="node">
<title>Node17689</title>
<g id="a_node12"><a xlink:href="send_8c.html#ae491c1fab5e5636e053e6c6960050856" target="_top" xlink:title="Add a &quot;end of forwarded message&quot; text. ">
<polygon fill="#ffffff" stroke="#ff0000" points="177.5,-76.5 177.5,-95.5 294.5,-95.5 294.5,-76.5 177.5,-76.5"/>
<text text-anchor="middle" x="236" y="-83.5" font-family="Helvetica,sans-Serif" font-size="10.00" fill="#000000">mutt_forward_trailer</text>
</a>
</g>
</g>
<!-- Node16391&#45;&gt;Node17689 -->
<g id="edge12" class="edge">
<title>Node16391&#45;&gt;Node17689</title>
<path fill="none" stroke="#191970" d="M62.474,-304.3035C68.0784,-270.9275 91.229,-159.8398 158,-105 161.1218,-102.436 164.5365,-100.2091 168.1379,-98.2757"/>
<polygon fill="#191970" stroke="#191970" points="169.7646,-101.3808 177.4137,-94.0499 166.8625,-95.0107 169.7646,-101.3808"/>
</g>
<!-- Node17697 -->
<g id="node13" class="node">
<title>Node17697</title>
<g id="a_node13"><a xlink:href="mutt__body_8c.html#a34765b4c275e55006a2203472caa0294" target="_top" xlink:title="Create a send&#45;mode duplicate from a receive&#45;mode body. ">
<polygon fill="#ffffff" stroke="#ff0000" points="187,-228.5 187,-247.5 285,-247.5 285,-228.5 187,-228.5"/>
<text text-anchor="middle" x="236" y="-235.5" font-family="Helvetica,sans-Serif" font-size="10.00" fill="#000000">mutt_body_copy</text>
</a>
</g>
</g>
<!-- Node16391&#45;&gt;Node17697 -->
<g id="edge14" class="edge">
<title>Node16391&#45;&gt;Node17697</title>
<path fill="none" stroke="#191970" d="M74.4734,-304.3484C92.6253,-291.7619 126.3215,-269.8407 158,-257 164.1617,-254.5024 170.7355,-252.2758 177.3537,-250.3061"/>
<polygon fill="#191970" stroke="#191970" points="178.3487,-253.6622 187.0393,-247.6022 176.4664,-246.92 178.3487,-253.6622"/>
</g>
<!-- Node16639 -->
<g id="node14" class="node">
<title>Node16639</title>
<g id="a_node14"><a xlink:href="email_8c.html#ae9f719d3fc31d00b92bcf9f77d56ee67" target="_top" xlink:title="Free an Email. ">
<polygon fill="#ffffff" stroke="#ff0000" points="386,-437.5 386,-456.5 455,-456.5 455,-437.5 386,-437.5"/>
<text text-anchor="middle" x="420.5" y="-444.5" font-family="Helvetica,sans-Serif" font-size="10.00" fill="#000000">email_free</text>
</a>
</g>
</g>
<!-- Node16391&#45;&gt;Node16639 -->
<g id="edge17" class="edge">
<title>Node16391&#45;&gt;Node16639</title>
<path fill="none" stroke="#191970" d="M72.4792,-323.599C89.8968,-337.7027 124.5261,-363.9741 158,-379 230.6771,-411.6237 321.969,-430.8298 375.5113,-440.1021"/>
<polygon fill="#191970" stroke="#191970" points="375.2561,-443.6086 385.6998,-441.8252 376.4235,-436.7066 375.2561,-443.6086"/>
</g>
<!-- Node17437 -->
<g id="node15" class="node">
<title>Node17437</title>
<g id="a_node15"><a xlink:href="email_8c.html#a0c1d7a53b53fccd8f52dc45f69282318" target="_top" xlink:title="Add an Email to a list. ">
<polygon fill="#ffffff" stroke="#ff0000" points="178,-38.5 178,-57.5 294,-57.5 294,-38.5 178,-38.5"/>
<text text-anchor="middle" x="236" y="-45.5" font-family="Helvetica,sans-Serif" font-size="10.00" fill="#000000">emaillist_add_email</text>
</a>
</g>
</g>
<!-- Node16391&#45;&gt;Node17437 -->
<g id="edge18" class="edge">
<title>Node16391&#45;&gt;Node17437</title>
<path fill="none" stroke="#191970" d="M61.7078,-304.4245C64.9666,-267.5531 81.8254,-133.5093 158,-67 161.2481,-64.164 164.8503,-61.736 168.6736,-59.6588"/>
<polygon fill="#191970" stroke="#191970" points="170.2964,-62.7653 177.9332,-55.4216 167.3836,-56.4001 170.2964,-62.7653"/>
</g>
<!-- Node17512 -->
<g id="node16" class="node">
<title>Node17512</title>
<g id="a_node16"><a xlink:href="send_8c.html#a67465bb3c06833d9887caebcf2697b07" target="_top" xlink:title="Send an email. ">
<polygon fill="#ffffff" stroke="#ff0000" points="177,-456.5 177,-475.5 295,-475.5 295,-456.5 177,-456.5"/>
<text text-anchor="middle" x="236" y="-463.5" font-family="Helvetica,sans-Serif" font-size="10.00" fill="#000000">mutt_send_message</text>
</a>
</g>
</g>
<!-- Node16391&#45;&gt;Node17512 -->
<g id="edge19" class="edge">
<title>Node16391&#45;&gt;Node17512</title>
<path fill="none" stroke="#191970" d="M65.6116,-323.6626C77.4695,-347.4735 111.3918,-409.3964 158,-442 164.1459,-446.2992 171.0853,-449.8466 178.2273,-452.7693"/>
<polygon fill="#191970" stroke="#191970" points="177.443,-456.2101 188.0365,-456.3795 179.8608,-449.6409 177.443,-456.2101"/>
</g>
<!-- Node16583 -->
<g id="node17" class="node">
<title>Node16583</title>
<g id="a_node17"><a xlink:href="buffer_8c.html#a2d7c4a32422377609be66b0f620c4971" target="_top" xlink:title="Is the Buffer empty? ">
<polygon fill="#ffffff" stroke="#000000" points="358.5,-399.5 358.5,-418.5 482.5,-418.5 482.5,-399.5 358.5,-399.5"/>
<text text-anchor="middle" x="420.5" y="-406.5" font-family="Helvetica,sans-Serif" font-size="10.00" fill="#000000">mutt_buffer_is_empty</text>
</a>
</g>
</g>
<!-- Node16391&#45;&gt;Node16583 -->
<g id="edge27" class="edge">
<title>Node16391&#45;&gt;Node16583</title>
<path fill="none" stroke="#191970" d="M87.9909,-323.5732C107.3495,-330.2748 134.1209,-339.2084 158,-346 229.1477,-366.2356 312.3421,-385.4659 365.6867,-397.239"/>
<polygon fill="#191970" stroke="#191970" points="365.0994,-400.6934 375.6175,-399.4207 366.6014,-393.8564 365.0994,-400.6934"/>
</g>
<!-- Node17439 -->
<g id="node18" class="node">
<title>Node17439</title>
<g id="a_node18"><a xlink:href="email_8c.html#af751cd283c12c90ca470959861930feb" target="_top" xlink:title="Drop a private list of Emails. ">
<polygon fill="#ffffff" stroke="#000000" points="191.5,-.5 191.5,-19.5 280.5,-19.5 280.5,-.5 191.5,-.5"/>
<text text-anchor="middle" x="236" y="-7.5" font-family="Helvetica,sans-Serif" font-size="10.00" fill="#000000">emaillist_clear</text>
</a>
</g>
</g>
<!-- Node16391&#45;&gt;Node17439 -->
<g id="edge28" class="edge">
<title>Node16391&#45;&gt;Node17439</title>
<path fill="none" stroke="#191970" d="M63.0139,-304.2204C72.5617,-258.7668 114.6115,-68.6844 158,-29 164.6504,-22.9173 172.9179,-18.6952 181.561,-15.7819"/>
<polygon fill="#191970" stroke="#191970" points="182.7293,-19.0894 191.413,-13.0194 180.8393,-12.3494 182.7293,-19.0894"/>
</g>
<!-- Node16524&#45;&gt;Node16418 -->
<g id="edge9" class="edge">
<title>Node16524&#45;&gt;Node16418</title>
<path fill="none" stroke="#191970" d="M302.6087,-276C317.9342,-276 334.2854,-276 349.7784,-276"/>
<polygon fill="#191970" stroke="#191970" points="349.8163,-279.5001 359.8163,-276 349.8162,-272.5001 349.8163,-279.5001"/>
</g>
<!-- Node16524&#45;&gt;Node16634 -->
<g id="edge10" class="edge">
<title>Node16524&#45;&gt;Node16634</title>
<path fill="none" stroke="#191970" d="M282.5571,-266.411C307.3426,-261.3061 338.0155,-254.9887 364.1393,-249.6082"/>
<polygon fill="#191970" stroke="#191970" points="365.1893,-252.9655 374.2776,-247.5201 363.7772,-246.1094 365.1893,-252.9655"/>
</g>
<!-- Node16524&#45;&gt;Node16652 -->
<g id="edge11" class="edge">
<title>Node16524&#45;&gt;Node16652</title>
<path fill="none" stroke="#191970" d="M259.3671,-285.6255C291.9452,-299.0452 351.152,-323.4339 388.0115,-338.6172"/>
<polygon fill="#191970" stroke="#191970" points="386.7433,-341.8801 397.3227,-342.4527 389.4095,-335.4077 386.7433,-341.8801"/>
</g>
<!-- Node17697&#45;&gt;Node16418 -->
<g id="edge15" class="edge">
<title>Node17697&#45;&gt;Node16418</title>
<path fill="none" stroke="#191970" d="M282.5571,-247.589C307.3426,-252.6939 338.0155,-259.0113 364.1393,-264.3918"/>
<polygon fill="#191970" stroke="#191970" points="363.7772,-267.8906 374.2776,-266.4799 365.1893,-261.0345 363.7772,-267.8906"/>
</g>
<!-- Node17697&#45;&gt;Node16634 -->
<g id="edge16" class="edge">
<title>Node17697&#45;&gt;Node16634</title>
<path fill="none" stroke="#191970" d="M285.4426,-238C302.1041,-238 321.1595,-238 339.6005,-238"/>
<polygon fill="#191970" stroke="#191970" points="339.7631,-241.5001 349.7631,-238 339.7631,-234.5001 339.7631,-241.5001"/>
</g>
<!-- Node17512&#45;&gt;Node16392 -->
<g id="edge21" class="edge">
<title>Node17512&#45;&gt;Node16392</title>
<path fill="none" stroke="#191970" d="M241.5771,-475.5081C256.1715,-499.5376 297.982,-563.1221 350,-596 357.8189,-600.9419 366.8828,-604.6899 375.8539,-607.5236"/>
<polygon fill="#191970" stroke="#191970" points="374.9135,-610.8948 385.4889,-610.2528 376.8213,-604.1598 374.9135,-610.8948"/>
</g>
<!-- Node17512&#45;&gt;Node16395 -->
<g id="edge23" class="edge">
<title>Node17512&#45;&gt;Node16395</title>
<path fill="none" stroke="#191970" d="M245.4667,-475.5946C263.9466,-493.8086 306.8078,-533.5742 350,-556 356.0161,-559.1236 362.5681,-561.8547 369.1753,-564.2217"/>
<polygon fill="#191970" stroke="#191970" points="368.2454,-567.6009 378.8389,-567.4326 370.4526,-560.9579 368.2454,-567.6009"/>
</g>
<!-- Node17512&#45;&gt;Node16423 -->
<g id="edge20" class="edge">
<title>Node17512&#45;&gt;Node16423</title>
<path fill="none" stroke="#191970" d="M258.1169,-475.6029C280.9658,-485.409 317.7379,-500.8718 350,-513 360.1802,-516.827 371.282,-520.7303 381.6006,-524.2464"/>
<polygon fill="#191970" stroke="#191970" points="380.6039,-527.6039 391.1981,-527.4839 382.8414,-520.9711 380.6039,-527.6039"/>
</g>
<!-- Node17512&#45;&gt;Node16516 -->
<g id="edge22" class="edge">
<title>Node17512&#45;&gt;Node16516</title>
<path fill="none" stroke="#191970" d="M295.1382,-474.9749C317.1581,-478.3167 342.08,-482.0989 363.8696,-485.4057"/>
<polygon fill="#191970" stroke="#191970" points="363.5504,-488.8972 373.9624,-486.9374 364.6008,-481.9765 363.5504,-488.8972"/>
</g>
<!-- Node17512&#45;&gt;Node16652 -->
<g id="edge24" class="edge">
<title>Node17512&#45;&gt;Node16652</title>
<path fill="none" stroke="#191970" d="M249.4215,-456.4551C270.468,-441.625 312.6909,-412.4243 350,-390 363.8093,-381.7001 379.5614,-373.1284 392.6684,-366.2315"/>
<polygon fill="#191970" stroke="#191970" points="394.4302,-369.2601 401.6792,-361.5333 391.1939,-363.0531 394.4302,-369.2601"/>
</g>
<!-- Node17512&#45;&gt;Node16639 -->
<g id="edge26" class="edge">
<title>Node17512&#45;&gt;Node16639</title>
<path fill="none" stroke="#191970" d="M295.1382,-459.9099C321.3305,-457.2126 351.6288,-454.0924 375.8775,-451.5953"/>
<polygon fill="#191970" stroke="#191970" points="376.2809,-455.0723 385.8697,-450.5663 375.5638,-448.1092 376.2809,-455.0723"/>
</g>
<!-- Node17512&#45;&gt;Node16583 -->
<g id="edge25" class="edge">
<title>Node17512&#45;&gt;Node16583</title>
<path fill="none" stroke="#191970" d="M263.0375,-456.4913C286.0471,-448.5187 320.0358,-437.0233 350,-428 357.5957,-425.7127 365.6905,-423.4083 373.5866,-421.2318"/>
<polygon fill="#191970" stroke="#191970" points="374.6989,-424.5565 383.4295,-418.5544 372.8614,-417.802 374.6989,-424.5565"/>
</g>
</g>
</svg>
