<?xml version="1.0" encoding="UTF-8" standalone="no"?>
<!DOCTYPE svg PUBLIC "-//W3C//DTD SVG 1.1//EN"
 "http://www.w3.org/Graphics/SVG/1.1/DTD/svg11.dtd">
<!-- Generated by graphviz version 2.44.0 (0)
 -->
<!-- Title: include_header Pages: 1 -->
<svg width="338pt" height="104pt"
 viewBox="0.00 0.00 338.00 104.00" xmlns="http://www.w3.org/2000/svg" xmlns:xlink="http://www.w3.org/1999/xlink">
<g id="graph0" class="graph" transform="scale(1 1) rotate(0) translate(4 100)">
<title>include_header</title>
<polygon fill="white" stroke="transparent" points="-4,4 -4,-100 334,-100 334,4 -4,4"/>
<!-- Node1 -->
<g id="node1" class="node">
<title>Node1</title>
<g id="a_node1"><a xlink:title="Write an email header to a file, optionally quoting it.">
<polygon fill="#bfbfbf" stroke="black" points="0,-38.5 0,-57.5 82,-57.5 82,-38.5 0,-38.5"/>
<text text-anchor="middle" x="41" y="-45.5" font-family="Helvetica" font-size="10.00">include_header</text>
</a>
</g>
</g>
<!-- Node2 -->
<g id="node2" class="node">
<title>Node2</title>
<g id="a_node2"><a xlink:href="copy_8c.html#a468898ce77840c5f79455b1f95643ab4" target="_top" xlink:title="Copy Email header.">
<polygon fill="white" stroke="red" points="118,-76.5 118,-95.5 215,-95.5 215,-76.5 118,-76.5"/>
<text text-anchor="middle" x="166.5" y="-83.5" font-family="Helvetica" font-size="10.00">mutt_copy_header</text>
</a>
</g>
</g>
<!-- Node1&#45;&gt;Node2 -->
<g id="edge1" class="edge">
<title>Node1&#45;&gt;Node2</title>
<path fill="none" stroke="midnightblue" d="M73.16,-57.59C88.81,-62.4 107.97,-68.3 124.77,-73.47"/>
<polygon fill="midnightblue" stroke="midnightblue" points="123.76,-76.82 134.35,-76.41 125.82,-70.13 123.76,-76.82"/>
</g>
<!-- Node12 -->
<g id="node3" class="node">
<title>Node12</title>
<g id="a_node3"><a xlink:href="mutt_2string_8c.html#ad20e00309de897a1e882fc7400335b83" target="_top" xlink:title="Copy a string into a buffer (guaranteeing NUL&#45;termination)">
<polygon fill="white" stroke="black" points="251,-57.5 251,-76.5 330,-76.5 330,-57.5 251,-57.5"/>
<text text-anchor="middle" x="290.5" y="-64.5" font-family="Helvetica" font-size="10.00">mutt_str_copy</text>
</a>
</g>
</g>
<!-- Node1&#45;&gt;Node12 -->
<g id="edge4" class="edge">
<title>Node1&#45;&gt;Node12</title>
<path fill="none" stroke="midnightblue" d="M82.04,-51.07C125.29,-54.39 194.21,-59.68 240.62,-63.25"/>
<polygon fill="midnightblue" stroke="midnightblue" points="240.5,-66.75 250.74,-64.02 241.04,-59.77 240.5,-66.75"/>
</g>
<!-- Node136 -->
<g id="node4" class="node">
<title>Node136</title>
<g id="a_node4"><a xlink:href="hdrline_8c.html#a5ff2b7d1b1e2dbd345801cdda1e3af14" target="_top" xlink:title="Create formatted strings using mailbox expandos.">
<polygon fill="white" stroke="red" points="119.5,-0.5 119.5,-19.5 213.5,-19.5 213.5,-0.5 119.5,-0.5"/>
<text text-anchor="middle" x="166.5" y="-7.5" font-family="Helvetica" font-size="10.00">mutt_make_string</text>
</a>
</g>
</g>
<!-- Node1&#45;&gt;Node136 -->
<g id="edge3" class="edge">
<title>Node1&#45;&gt;Node136</title>
<path fill="none" stroke="midnightblue" d="M73.16,-38.41C88.81,-33.6 107.97,-27.7 124.77,-22.53"/>
<polygon fill="midnightblue" stroke="midnightblue" points="125.82,-25.87 134.35,-19.59 123.76,-19.18 125.82,-25.87"/>
</g>
<!-- Node2&#45;&gt;Node12 -->
<g id="edge2" class="edge">
<title>Node2&#45;&gt;Node12</title>
<path fill="none" stroke="midnightblue" d="M215.02,-78.6C223.48,-77.28 232.32,-75.91 240.81,-74.58"/>
<polygon fill="midnightblue" stroke="midnightblue" points="241.63,-78 250.97,-73 240.55,-71.08 241.63,-78"/>
</g>
</g>
</svg>
