<?xml version="1.0" encoding="UTF-8" standalone="no"?>
<!DOCTYPE svg PUBLIC "-//W3C//DTD SVG 1.1//EN"
 "http://www.w3.org/Graphics/SVG/1.1/DTD/svg11.dtd">
<!-- Generated by graphviz version 2.40.1 (20161225.0304)
 -->
<!-- Title: attach_make_entry Pages: 1 -->
<svg width="420pt" height="74pt"
 viewBox="0.00 0.00 420.00 74.00" xmlns="http://www.w3.org/2000/svg" xmlns:xlink="http://www.w3.org/1999/xlink">
<g id="graph0" class="graph" transform="scale(1 1) rotate(0) translate(4 70)">
<title>attach_make_entry</title>
<polygon fill="#ffffff" stroke="transparent" points="-4,4 -4,-70 416,-70 416,4 -4,4"/>
<!-- Node4153 -->
<g id="node1" class="node">
<title>Node4153</title>
<polygon fill="#bfbfbf" stroke="#000000" points="0,-28.5 0,-47.5 111,-47.5 111,-28.5 0,-28.5"/>
<text text-anchor="middle" x="55.5" y="-35.5" font-family="Helvetica,sans-Serif" font-size="10.00" fill="#000000">attach_make_entry</text>
</g>
<!-- Node4154 -->
<g id="node2" class="node">
<title>Node4154</title>
<g id="a_node2"><a xlink:href="muttlib_8c.html#a737abeae74f0a08054115a4d2db5aea4" target="_top" xlink:title="Expand expandos (x) in a string. ">
<polygon fill="#ffffff" stroke="#ff0000" points="287,-28.5 287,-47.5 412,-47.5 412,-28.5 287,-28.5"/>
<text text-anchor="middle" x="349.5" y="-35.5" font-family="Helvetica,sans-Serif" font-size="10.00" fill="#000000">mutt_expando_format</text>
</a>
</g>
</g>
<!-- Node4153&#45;&gt;Node4154 -->
<g id="edge1" class="edge">
<title>Node4153&#45;&gt;Node4154</title>
<path fill="none" stroke="#191970" d="M111.0809,-44.3465C122.9206,-45.4518 135.3617,-46.429 147,-47 193.1667,-49.265 204.8257,-49.1051 251,-47 259.3224,-46.6206 268.0281,-46.0617 276.6729,-45.4051"/>
<polygon fill="#191970" stroke="#191970" points="277.0789,-48.8838 286.7665,-44.5942 276.5183,-41.9063 277.0789,-48.8838"/>
</g>
<!-- Node4181 -->
<g id="node3" class="node">
<title>Node4181</title>
<g id="a_node3"><a xlink:href="recvattach_8c.html#a15aa67845d7281e3b5263c24dcf75d0c" target="_top" xlink:title="Format a string for the attachment menu &#45; Implements format_t. ">
<polygon fill="#ffffff" stroke="#ff0000" points="147,-.5 147,-19.5 251,-19.5 251,-.5 147,-.5"/>
<text text-anchor="middle" x="199" y="-7.5" font-family="Helvetica,sans-Serif" font-size="10.00" fill="#000000">attach_format_str</text>
</a>
</g>
</g>
<!-- Node4153&#45;&gt;Node4181 -->
<g id="edge3" class="edge">
<title>Node4153&#45;&gt;Node4181</title>
<path fill="none" stroke="#191970" d="M104.4832,-28.4423C116.0278,-26.1897 128.4498,-23.7659 140.3713,-21.4397"/>
<polygon fill="#191970" stroke="#191970" points="141.093,-24.865 150.2376,-19.5146 139.7523,-17.9946 141.093,-24.865"/>
</g>
<!-- Node4154&#45;&gt;Node4154 -->
<g id="edge2" class="edge">
<title>Node4154&#45;&gt;Node4154</title>
<path fill="none" stroke="#191970" d="M326.3806,-47.7571C315.1334,-56.5653 322.8398,-66 349.5,-66 366.9957,-66 376.3288,-61.9368 377.4991,-56.6539"/>
<polygon fill="#191970" stroke="#191970" points="380.4971,-54.8417 372.6194,-47.7571 374.3597,-58.208 380.4971,-54.8417"/>
</g>
<!-- Node4181&#45;&gt;Node4154 -->
<g id="edge4" class="edge">
<title>Node4181&#45;&gt;Node4154</title>
<path fill="none" stroke="#191970" d="M250.3726,-19.5577C262.6015,-21.8328 275.7689,-24.2826 288.3863,-26.63"/>
<polygon fill="#191970" stroke="#191970" points="287.8874,-30.0972 298.3589,-28.4854 289.1678,-23.2153 287.8874,-30.0972"/>
</g>
<!-- Node4181&#45;&gt;Node4181 -->
<g id="edge5" class="edge">
<title>Node4181&#45;&gt;Node4181</title>
<path fill="none" stroke="#191970" d="M177.1137,-19.7571C166.4663,-28.5653 173.7617,-38 199,-38 215.5626,-38 224.3979,-33.9368 225.5059,-28.6539"/>
<polygon fill="#191970" stroke="#191970" points="228.6008,-27.0192 220.8863,-19.7571 222.3883,-30.2449 228.6008,-27.0192"/>
</g>
</g>
</svg>
