<?xml version="1.0" encoding="UTF-8" standalone="no"?>
<!DOCTYPE svg PUBLIC "-//W3C//DTD SVG 1.1//EN"
 "http://www.w3.org/Graphics/SVG/1.1/DTD/svg11.dtd">
<!-- Generated by graphviz version 7.1.0 (0)
 -->
<!-- Title: window_reflow_vert Pages: 1 -->
<svg width="240pt" height="27pt"
 viewBox="0.00 0.00 240.00 27.00" xmlns="http://www.w3.org/2000/svg" xmlns:xlink="http://www.w3.org/1999/xlink">
<g id="graph0" class="graph" transform="scale(1 1) rotate(0) translate(4 23)">
<title>window_reflow_vert</title>
<!-- Node1 -->
<g id="node1" class="node">
<title>Node1</title>
<g id="a_node1"><a xlink:title="Reflow Windows using all the available vertical space.">
<polygon fill="#999999" stroke="#666666" points="232,-19 122,-19 122,0 232,0 232,-19"/>
<text text-anchor="middle" x="177" y="-7" font-family="Helvetica,sans-Serif" font-size="10.00">window_reflow_vert</text>
</a>
</g>
</g>
<!-- Node2 -->
<g id="node2" class="node">
<title>Node2</title>
<g id="a_node2"><a xlink:href="reflow_8c.html#a50e81ea47b75f474efabdfce6231fe7f" target="_top" xlink:title="Reflow Windows.">
<polygon fill="#fff0f0" stroke="red" points="86,-19 0,-19 0,0 86,0 86,-19"/>
<text text-anchor="middle" x="43" y="-7" font-family="Helvetica,sans-Serif" font-size="10.00">window_reflow</text>
</a>
</g>
</g>
<!-- Node1&#45;&gt;Node2 -->
<g id="edge1" class="edge">
<title>Node1&#45;&gt;Node2</title>
<path fill="none" stroke="#63b8ff" d="M110.12,-2.75C101.99,-2.75 93.86,-2.88 86.23,-3.16"/>
<polygon fill="#63b8ff" stroke="#63b8ff" points="110.01,-6.25 120.03,-2.83 110.06,0.75 110.01,-6.25"/>
</g>
<!-- Node2&#45;&gt;Node1 -->
<g id="edge2" class="edge">
<title>Node2&#45;&gt;Node1</title>
<path fill="none" stroke="#63b8ff" d="M97.58,-16.14C105.48,-16.28 113.63,-16.29 121.55,-16.16"/>
<polygon fill="#63b8ff" stroke="#63b8ff" points="97.83,-12.65 87.74,-15.88 97.65,-19.65 97.83,-12.65"/>
</g>
</g>
</svg>
