<?xml version="1.0" encoding="UTF-8" standalone="no"?>
<!DOCTYPE svg PUBLIC "-//W3C//DTD SVG 1.1//EN"
 "http://www.w3.org/Graphics/SVG/1.1/DTD/svg11.dtd">
<!-- Generated by graphviz version 12.2.1 (20241206.2353)
 -->
<!-- Title: mutt_regexlist_add Pages: 1 -->
<svg width="261pt" height="350pt"
 viewBox="0.00 0.00 260.50 350.25" xmlns="http://www.w3.org/2000/svg" xmlns:xlink="http://www.w3.org/1999/xlink">
<g id="graph0" class="graph" transform="scale(1 1) rotate(0) translate(4 346.25)">
<title>mutt_regexlist_add</title>
<!-- Node1 -->
<g id="Node000001" class="node">
<title>Node1</title>
<g id="a_Node000001"><a xlink:title="Compile a regex string and add it to a list.">
<polygon fill="#999999" stroke="#666666" points="252.5,-182.25 148.75,-182.25 148.75,-160 252.5,-160 252.5,-182.25"/>
<text text-anchor="middle" x="200.62" y="-168.75" font-family="Helvetica,sans-Serif" font-size="10.00">mutt_regexlist_add</text>
</a>
</g>
</g>
<!-- Node2 -->
<g id="Node000002" class="node">
<title>Node2</title>
<g id="a_Node000002"><a xlink:href="group_8c.html#a15a7397f3e82ebe33523d3a211839589" target="_top" xlink:title="Add a Regex to a Group.">
<polygon fill="#fff0f0" stroke="red" points="104.5,-342.25 8.25,-342.25 8.25,-320 104.5,-320 104.5,-342.25"/>
<text text-anchor="middle" x="56.38" y="-328.75" font-family="Helvetica,sans-Serif" font-size="10.00">group_add_regex</text>
</a>
</g>
</g>
<!-- Node1&#45;&gt;Node2 -->
<g id="edge1_Node000001_Node000002" class="edge">
<title>Node1&#45;&gt;Node2</title>
<g id="a_edge1_Node000001_Node000002"><a xlink:title=" ">
<path fill="none" stroke="#63b8ff" d="M191.41,-193.15C178.93,-223.76 152.36,-279.03 112.75,-311.12 108.7,-314.41 104.07,-317.18 99.24,-319.5"/>
<polygon fill="#63b8ff" stroke="#63b8ff" points="194.55,-194.72 194.95,-184.13 188.04,-192.16 194.55,-194.72"/>
</a>
</g>
</g>
<!-- Node8 -->
<g id="Node000008" class="node">
<title>Node8</title>
<g id="a_Node000008"><a xlink:href="email_2parse_8c.html#a2a830caa65e6f462ab0ecae77bce746b" target="_top" xlink:title="Check if user is subscribed to mailing list.">
<polygon fill="#fff0f0" stroke="red" points="112.75,-302.25 0,-302.25 0,-280 112.75,-280 112.75,-302.25"/>
<text text-anchor="middle" x="56.38" y="-288.75" font-family="Helvetica,sans-Serif" font-size="10.00">mutt_auto_subscribe</text>
</a>
</g>
</g>
<!-- Node1&#45;&gt;Node8 -->
<g id="edge2_Node000001_Node000008" class="edge">
<title>Node1&#45;&gt;Node8</title>
<g id="a_edge2_Node000001_Node000008"><a xlink:title=" ">
<path fill="none" stroke="#63b8ff" d="M186.3,-192.01C171.01,-214.43 144,-249.7 112.75,-271.12 108.03,-274.36 102.72,-277.14 97.32,-279.5"/>
<polygon fill="#63b8ff" stroke="#63b8ff" points="189.02,-194.24 191.63,-183.97 183.18,-190.37 189.02,-194.24"/>
</a>
</g>
</g>
<!-- Node4 -->
<g id="Node000004" class="node">
<title>Node4</title>
<g id="a_Node000004"><a xlink:href="group__command__parse.html#ga2b802266d3a89bc30f84dda0854c54c8" target="_top" xlink:title="Parse the &#39;alternates&#39; command &#45; Implements Command::parse() &#45;.">
<polygon fill="white" stroke="#666666" points="103.38,-262.25 9.37,-262.25 9.37,-240 103.38,-240 103.38,-262.25"/>
<text text-anchor="middle" x="56.38" y="-248.75" font-family="Helvetica,sans-Serif" font-size="10.00">parse_alternates</text>
</a>
</g>
</g>
<!-- Node1&#45;&gt;Node4 -->
<g id="edge3_Node000001_Node000004" class="edge">
<title>Node1&#45;&gt;Node4</title>
<g id="a_edge3_Node000001_Node000004"><a xlink:title=" ">
<path fill="none" stroke="#63b8ff" d="M176.49,-189.56C159.56,-202.43 135.64,-219.34 112.75,-231.12 106.75,-234.21 100.17,-237.04 93.69,-239.53"/>
<polygon fill="#63b8ff" stroke="#63b8ff" points="178.63,-192.34 184.39,-183.45 174.34,-186.8 178.63,-192.34"/>
</a>
</g>
</g>
<!-- Node6 -->
<g id="Node000006" class="node">
<title>Node6</title>
<g id="a_Node000006"><a xlink:href="group__command__parse.html#gad0b14a11196da1956b1e8501563710e0" target="_top" xlink:title="Parse the &#39;lists&#39; command &#45; Implements Command::parse() &#45;.">
<polygon fill="white" stroke="#666666" points="88.38,-222.25 24.38,-222.25 24.38,-200 88.38,-200 88.38,-222.25"/>
<text text-anchor="middle" x="56.38" y="-208.75" font-family="Helvetica,sans-Serif" font-size="10.00">parse_lists</text>
</a>
</g>
</g>
<!-- Node1&#45;&gt;Node6 -->
<g id="edge4_Node000001_Node000006" class="edge">
<title>Node1&#45;&gt;Node6</title>
<g id="a_edge4_Node000001_Node000006"><a xlink:title=" ">
<path fill="none" stroke="#63b8ff" d="M147.43,-185.8C127.64,-191.37 105.73,-197.53 88.48,-202.38"/>
<polygon fill="#63b8ff" stroke="#63b8ff" points="148.34,-189.18 157.02,-183.1 146.45,-182.44 148.34,-189.18"/>
</a>
</g>
</g>
<!-- Node780 -->
<g id="Node000780" class="node">
<title>Node780</title>
<g id="a_Node000780"><a xlink:href="group__command__parse.html#gafc743b0e876284698ed8cb659823ca0e" target="_top" xlink:title="Parse the &#39;nospam&#39; command &#45; Implements Command::parse() &#45;.">
<polygon fill="white" stroke="#666666" points="98.12,-182.25 14.62,-182.25 14.62,-160 98.12,-160 98.12,-182.25"/>
<text text-anchor="middle" x="56.38" y="-168.75" font-family="Helvetica,sans-Serif" font-size="10.00">parse_nospam</text>
</a>
</g>
</g>
<!-- Node1&#45;&gt;Node780 -->
<g id="edge5_Node000001_Node000780" class="edge">
<title>Node1&#45;&gt;Node780</title>
<g id="a_edge5_Node000001_Node000780"><a xlink:title=" ">
<path fill="none" stroke="#63b8ff" d="M136.94,-171.12C123.88,-171.12 110.43,-171.12 98.4,-171.12"/>
<polygon fill="#63b8ff" stroke="#63b8ff" points="136.76,-174.63 146.76,-171.13 136.76,-167.63 136.76,-174.63"/>
</a>
</g>
</g>
<!-- Node7 -->
<g id="Node000007" class="node">
<title>Node7</title>
<g id="a_Node000007"><a xlink:href="group__command__parse.html#ga65ba329d351c58122c9fc58e4bc2ae94" target="_top" xlink:title="Parse the &#39;subscribe&#39; command &#45; Implements Command::parse() &#45;.">
<polygon fill="white" stroke="#666666" points="101.88,-142.25 10.88,-142.25 10.88,-120 101.88,-120 101.88,-142.25"/>
<text text-anchor="middle" x="56.38" y="-128.75" font-family="Helvetica,sans-Serif" font-size="10.00">parse_subscribe</text>
</a>
</g>
</g>
<!-- Node1&#45;&gt;Node7 -->
<g id="edge6_Node000001_Node000007" class="edge">
<title>Node1&#45;&gt;Node7</title>
<g id="a_edge6_Node000001_Node000007"><a xlink:title=" ">
<path fill="none" stroke="#63b8ff" d="M147.55,-156.48C131.36,-151.93 113.75,-146.98 98.43,-142.67"/>
<polygon fill="#63b8ff" stroke="#63b8ff" points="146.45,-159.81 157.02,-159.15 148.34,-153.07 146.45,-159.81"/>
</a>
</g>
</g>
<!-- Node781 -->
<g id="Node000781" class="node">
<title>Node781</title>
<g id="a_Node000781"><a xlink:href="group__command__parse.html#ga54533252c9370371d97e1325015c0961" target="_top" xlink:title="Parse the &#39;unalternates&#39; command &#45; Implements Command::parse() &#45;.">
<polygon fill="white" stroke="#666666" points="109.38,-102.25 3.38,-102.25 3.38,-80 109.38,-80 109.38,-102.25"/>
<text text-anchor="middle" x="56.38" y="-88.75" font-family="Helvetica,sans-Serif" font-size="10.00">parse_unalternates</text>
</a>
</g>
</g>
<!-- Node1&#45;&gt;Node781 -->
<g id="edge7_Node000001_Node000781" class="edge">
<title>Node1&#45;&gt;Node781</title>
<g id="a_edge7_Node000001_Node000781"><a xlink:title=" ">
<path fill="none" stroke="#63b8ff" d="M176.49,-152.69C159.56,-139.82 135.64,-122.91 112.75,-111.12 106.75,-108.04 100.17,-105.21 93.69,-102.72"/>
<polygon fill="#63b8ff" stroke="#63b8ff" points="174.34,-155.45 184.39,-158.8 178.63,-149.91 174.34,-155.45"/>
</a>
</g>
</g>
<!-- Node782 -->
<g id="Node000782" class="node">
<title>Node782</title>
<g id="a_Node000782"><a xlink:href="group__command__parse.html#ga09a9a35ac566909774a6e95d664e733e" target="_top" xlink:title="Parse the &#39;unlists&#39; command &#45; Implements Command::parse() &#45;.">
<polygon fill="white" stroke="#666666" points="94.38,-62.25 18.38,-62.25 18.38,-40 94.38,-40 94.38,-62.25"/>
<text text-anchor="middle" x="56.38" y="-48.75" font-family="Helvetica,sans-Serif" font-size="10.00">parse_unlists</text>
</a>
</g>
</g>
<!-- Node1&#45;&gt;Node782 -->
<g id="edge8_Node000001_Node000782" class="edge">
<title>Node1&#45;&gt;Node782</title>
<g id="a_edge8_Node000001_Node000782"><a xlink:title=" ">
<path fill="none" stroke="#63b8ff" d="M186.3,-150.24C171.01,-127.82 144,-92.55 112.75,-71.12 107.27,-67.37 101,-64.23 94.7,-61.64"/>
<polygon fill="#63b8ff" stroke="#63b8ff" points="183.18,-151.88 191.63,-158.28 189.02,-148.01 183.18,-151.88"/>
</a>
</g>
</g>
<!-- Node783 -->
<g id="Node000783" class="node">
<title>Node783</title>
<g id="a_Node000783"><a xlink:href="group__command__parse.html#gae2632b53b47c78f3b806bcbd75d02936" target="_top" xlink:title="Parse the &#39;unsubscribe&#39; command &#45; Implements Command::parse() &#45;.">
<polygon fill="white" stroke="#666666" points="107.88,-22.25 4.88,-22.25 4.88,0 107.88,0 107.88,-22.25"/>
<text text-anchor="middle" x="56.38" y="-8.75" font-family="Helvetica,sans-Serif" font-size="10.00">parse_unsubscribe</text>
</a>
</g>
</g>
<!-- Node1&#45;&gt;Node783 -->
<g id="edge9_Node000001_Node000783" class="edge">
<title>Node1&#45;&gt;Node783</title>
<g id="a_edge9_Node000001_Node000783"><a xlink:title=" ">
<path fill="none" stroke="#63b8ff" d="M191.41,-149.1C178.93,-118.49 152.36,-63.22 112.75,-31.12 108.7,-27.84 104.07,-25.07 99.24,-22.75"/>
<polygon fill="#63b8ff" stroke="#63b8ff" points="188.04,-150.09 194.95,-158.12 194.55,-147.53 188.04,-150.09"/>
</a>
</g>
</g>
</g>
</svg>
