<?xml version="1.0" encoding="UTF-8" standalone="no"?>
<!DOCTYPE svg PUBLIC "-//W3C//DTD SVG 1.1//EN"
 "http://www.w3.org/Graphics/SVG/1.1/DTD/svg11.dtd">
<!-- Generated by graphviz version 7.1.0 (0)
 -->
<!-- Title: mutt_replacelist_apply Pages: 1 -->
<svg width="524pt" height="404pt"
 viewBox="0.00 0.00 524.00 404.00" xmlns="http://www.w3.org/2000/svg" xmlns:xlink="http://www.w3.org/1999/xlink">
<g id="graph0" class="graph" transform="scale(1 1) rotate(0) translate(4 400)">
<title>mutt_replacelist_apply</title>
<!-- Node1 -->
<g id="node1" class="node">
<title>Node1</title>
<g id="a_node1"><a xlink:title="Apply replacements to a buffer.">
<polygon fill="#999999" stroke="#666666" points="119,-207 0,-207 0,-188 119,-188 119,-207"/>
<text text-anchor="middle" x="59.5" y="-195" font-family="Helvetica,sans-Serif" font-size="10.00">mutt_replacelist_apply</text>
</a>
</g>
</g>
<!-- Node2 -->
<g id="node2" class="node">
<title>Node2</title>
<g id="a_node2"><a xlink:href="buffer_8c.html#a9765efbb7f2c32e46fb1cb271a02ba20" target="_top" xlink:title="Add a single character to a Buffer.">
<polygon fill="white" stroke="#666666" points="384.5,-396 319.5,-396 319.5,-377 384.5,-377 384.5,-396"/>
<text text-anchor="middle" x="352" y="-384" font-family="Helvetica,sans-Serif" font-size="10.00">buf_addch</text>
</a>
</g>
</g>
<!-- Node1&#45;&gt;Node2 -->
<g id="edge1" class="edge">
<title>Node1&#45;&gt;Node2</title>
<path fill="none" stroke="#63b8ff" d="M62.85,-207.43C70.4,-236.86 96.98,-323.96 155,-362.5 200.55,-392.75 265.43,-394.62 307.87,-391.74"/>
<polygon fill="#63b8ff" stroke="#63b8ff" points="308.01,-395.24 317.7,-390.94 307.45,-388.26 308.01,-395.24"/>
</g>
<!-- Node3 -->
<g id="node3" class="node">
<title>Node3</title>
<g id="a_node3"><a xlink:href="buffer_8c.html#a2881936af4a3e3b45079cb9af0cdb3e8" target="_top" xlink:title="Add a string to a Buffer, expanding it if necessary.">
<polygon fill="#fff0f0" stroke="red" points="516,-358 439,-358 439,-339 516,-339 516,-358"/>
<text text-anchor="middle" x="477.5" y="-346" font-family="Helvetica,sans-Serif" font-size="10.00">buf_addstr_n</text>
</a>
</g>
</g>
<!-- Node1&#45;&gt;Node3 -->
<g id="edge5" class="edge">
<title>Node1&#45;&gt;Node3</title>
<path fill="none" stroke="#63b8ff" d="M64.93,-207.39C76.11,-231.05 107.99,-290.85 155,-316.5 241.63,-363.76 361.04,-361.18 427.25,-354.94"/>
<polygon fill="#63b8ff" stroke="#63b8ff" points="427.48,-358.43 437.08,-353.94 426.78,-351.47 427.48,-358.43"/>
</g>
<!-- Node12 -->
<g id="node4" class="node">
<title>Node12</title>
<g id="a_node4"><a xlink:href="buffer_8c.html#a9924e74ddcb5280ab380e4627d1fba99" target="_top" xlink:title="Add a string to a Buffer.">
<polygon fill="#fff0f0" stroke="red" points="385.5,-320 318.5,-320 318.5,-301 385.5,-301 385.5,-320"/>
<text text-anchor="middle" x="352" y="-308" font-family="Helvetica,sans-Serif" font-size="10.00">buf_addstr</text>
</a>
</g>
</g>
<!-- Node1&#45;&gt;Node12 -->
<g id="edge3" class="edge">
<title>Node1&#45;&gt;Node12</title>
<path fill="none" stroke="#63b8ff" d="M66.88,-207.39C80.37,-227.35 113.96,-272.19 155,-291.5 203.25,-314.2 265.46,-316.29 306.71,-314.46"/>
<polygon fill="#63b8ff" stroke="#63b8ff" points="306.72,-317.97 316.51,-313.92 306.33,-310.98 306.72,-317.97"/>
</g>
<!-- Node14 -->
<g id="node5" class="node">
<title>Node14</title>
<g id="a_node5"><a xlink:href="pool_8c.html#a41cba27c25d33cb6822789a2856093f2" target="_top" xlink:title="Get a Buffer from the pool.">
<polygon fill="#fff0f0" stroke="red" points="248.5,-282 171.5,-282 171.5,-263 248.5,-263 248.5,-282"/>
<text text-anchor="middle" x="210" y="-270" font-family="Helvetica,sans-Serif" font-size="10.00">buf_pool_get</text>
</a>
</g>
</g>
<!-- Node1&#45;&gt;Node14 -->
<g id="edge6" class="edge">
<title>Node1&#45;&gt;Node14</title>
<path fill="none" stroke="#63b8ff" d="M74.68,-207.42C92.7,-219.71 125.08,-240.69 155,-254.5 158.13,-255.94 161.41,-257.33 164.74,-258.64"/>
<polygon fill="#63b8ff" stroke="#63b8ff" points="163.41,-261.88 174,-262.07 165.84,-255.32 163.41,-261.88"/>
</g>
<!-- Node18 -->
<g id="node6" class="node">
<title>Node18</title>
<g id="a_node6"><a xlink:href="pool_8c.html#a4cc6068279461cb8628219586dfa35a1" target="_top" xlink:title="Return a Buffer to the pool.">
<polygon fill="#fff0f0" stroke="red" points="257.5,-169 162.5,-169 162.5,-150 257.5,-150 257.5,-169"/>
<text text-anchor="middle" x="210" y="-157" font-family="Helvetica,sans-Serif" font-size="10.00">buf_pool_release</text>
</a>
</g>
</g>
<!-- Node1&#45;&gt;Node18 -->
<g id="edge7" class="edge">
<title>Node1&#45;&gt;Node18</title>
<path fill="none" stroke="#63b8ff" d="M99.52,-187.52C117.69,-182.87 139.53,-177.28 158.91,-172.32"/>
<polygon fill="#63b8ff" stroke="#63b8ff" points="159.7,-175.73 168.52,-169.86 157.96,-168.95 159.7,-175.73"/>
</g>
<!-- Node21 -->
<g id="node7" class="node">
<title>Node21</title>
<g id="a_node7"><a xlink:href="buffer_8c.html#a3b1f80652b37dc26046f9acdd85a0b05" target="_top" xlink:title="Reset an existing Buffer.">
<polygon fill="#fff0f0" stroke="red" points="382.5,-207 321.5,-207 321.5,-188 382.5,-188 382.5,-207"/>
<text text-anchor="middle" x="352" y="-195" font-family="Helvetica,sans-Serif" font-size="10.00">buf_reset</text>
</a>
</g>
</g>
<!-- Node1&#45;&gt;Node21 -->
<g id="edge10" class="edge">
<title>Node1&#45;&gt;Node21</title>
<path fill="none" stroke="#63b8ff" d="M119.29,-197.5C175.92,-197.5 260.14,-197.5 309.91,-197.5"/>
<polygon fill="#63b8ff" stroke="#63b8ff" points="309.67,-201 319.67,-197.5 309.67,-194 309.67,-201"/>
</g>
<!-- Node11 -->
<g id="node8" class="node">
<title>Node11</title>
<g id="a_node8"><a xlink:href="memory_8c.html#af778eb8166966fc0666c64849f6c7c5b" target="_top" xlink:title="Resize a block of memory on the heap.">
<polygon fill="#fff0f0" stroke="red" points="403,-150 301,-150 301,-131 403,-131 403,-150"/>
<text text-anchor="middle" x="352" y="-138" font-family="Helvetica,sans-Serif" font-size="10.00">mutt_mem_realloc</text>
</a>
</g>
</g>
<!-- Node1&#45;&gt;Node11 -->
<g id="edge16" class="edge">
<title>Node1&#45;&gt;Node11</title>
<path fill="none" stroke="#63b8ff" d="M72.04,-187.63C88.92,-173.9 121.96,-149.69 155,-140.5 198.86,-128.3 250.41,-128.85 289.63,-132.16"/>
<polygon fill="#63b8ff" stroke="#63b8ff" points="289.08,-135.62 299.36,-133.07 289.73,-128.65 289.08,-135.62"/>
</g>
<!-- Node24 -->
<g id="node9" class="node">
<title>Node24</title>
<g id="a_node9"><a xlink:href="buffer_8c.html#ac958acbd189e463a2c3bbc2f23aaeb1e" target="_top" xlink:title="Copy a string into a Buffer.">
<polygon fill="white" stroke="#666666" points="242.5,-245 177.5,-245 177.5,-226 242.5,-226 242.5,-245"/>
<text text-anchor="middle" x="210" y="-233" font-family="Helvetica,sans-Serif" font-size="10.00">buf_strcpy</text>
</a>
</g>
</g>
<!-- Node1&#45;&gt;Node24 -->
<g id="edge11" class="edge">
<title>Node1&#45;&gt;Node24</title>
<path fill="none" stroke="#63b8ff" d="M99.52,-207.48C120.06,-212.74 145.28,-219.2 166.34,-224.58"/>
<polygon fill="#63b8ff" stroke="#63b8ff" points="165.22,-227.91 175.77,-227 166.95,-221.13 165.22,-227.91"/>
</g>
<!-- Node25 -->
<g id="node10" class="node">
<title>Node25</title>
<g id="a_node10"><a xlink:href="buffer_8c.html#ad76477cc0c660bc50162393e997233eb" target="_top" xlink:title="Copy a Buffer&#39;s string.">
<polygon fill="#fff0f0" stroke="red" points="243.5,-93 176.5,-93 176.5,-74 243.5,-74 243.5,-93"/>
<text text-anchor="middle" x="210" y="-81" font-family="Helvetica,sans-Serif" font-size="10.00">buf_strdup</text>
</a>
</g>
</g>
<!-- Node1&#45;&gt;Node25 -->
<g id="edge14" class="edge">
<title>Node1&#45;&gt;Node25</title>
<path fill="none" stroke="#63b8ff" d="M68.73,-187.69C84.13,-169.82 119.03,-131.56 155,-107.5 160.12,-104.08 165.8,-100.94 171.51,-98.14"/>
<polygon fill="#63b8ff" stroke="#63b8ff" points="172.67,-101.46 180.3,-94.12 169.75,-95.1 172.67,-101.46"/>
</g>
<!-- Node27 -->
<g id="node11" class="node">
<title>Node27</title>
<g id="a_node11"><a xlink:href="buffer_8h.html#a728ebc5a947b77c8d56db44ce553a7ab" target="_top" xlink:title="Convert a buffer to a const char * &quot;string&quot;.">
<polygon fill="white" stroke="#666666" points="242,-56 178,-56 178,-37 242,-37 242,-56"/>
<text text-anchor="middle" x="210" y="-44" font-family="Helvetica,sans-Serif" font-size="10.00">buf_string</text>
</a>
</g>
</g>
<!-- Node1&#45;&gt;Node27 -->
<g id="edge15" class="edge">
<title>Node1&#45;&gt;Node27</title>
<path fill="none" stroke="#63b8ff" d="M64.87,-187.52C76.13,-162.93 108.56,-98.89 155,-64.5 158.65,-61.8 162.73,-59.49 166.96,-57.51"/>
<polygon fill="#63b8ff" stroke="#63b8ff" points="168.25,-60.77 176.25,-53.83 165.67,-54.26 168.25,-60.77"/>
</g>
<!-- Node28 -->
<g id="node12" class="node">
<title>Node28</title>
<g id="a_node12"><a xlink:href="mutt_2regex_8c.html#a45a90a0b1de4365be463061b6ac0bc36" target="_top" xlink:title="Match a regex against a string, with provided options.">
<polygon fill="white" stroke="#666666" points="265,-19 155,-19 155,0 265,0 265,-19"/>
<text text-anchor="middle" x="210" y="-7" font-family="Helvetica,sans-Serif" font-size="10.00">mutt_regex_capture</text>
</a>
</g>
</g>
<!-- Node1&#45;&gt;Node28 -->
<g id="edge17" class="edge">
<title>Node1&#45;&gt;Node28</title>
<path fill="none" stroke="#63b8ff" d="M63.15,-187.81C71.53,-158.98 100.17,-73 155,-27.5 156.09,-26.59 157.23,-25.73 158.41,-24.92"/>
<polygon fill="#63b8ff" stroke="#63b8ff" points="159.75,-28.18 166.72,-20.2 156.3,-22.09 159.75,-28.18"/>
</g>
<!-- Node2&#45;&gt;Node3 -->
<g id="edge2" class="edge">
<title>Node2&#45;&gt;Node3</title>
<path fill="none" stroke="#63b8ff" d="M384.8,-376.71C399.67,-372.14 417.59,-366.63 433.63,-361.69"/>
<polygon fill="#63b8ff" stroke="#63b8ff" points="434.4,-365.12 442.93,-358.83 432.34,-358.43 434.4,-365.12"/>
</g>
<!-- Node12&#45;&gt;Node3 -->
<g id="edge4" class="edge">
<title>Node12&#45;&gt;Node3</title>
<path fill="none" stroke="#63b8ff" d="M385.45,-320.48C400.2,-325.02 417.85,-330.45 433.67,-335.32"/>
<polygon fill="#63b8ff" stroke="#63b8ff" points="432.23,-338.54 442.82,-338.14 434.29,-331.85 432.23,-338.54"/>
</g>
<!-- Node18&#45;&gt;Node21 -->
<g id="edge8" class="edge">
<title>Node18&#45;&gt;Node21</title>
<path fill="none" stroke="#63b8ff" d="M247.78,-169.48C266.88,-174.67 290.27,-181.02 309.96,-186.36"/>
<polygon fill="#63b8ff" stroke="#63b8ff" points="309.03,-189.73 319.6,-188.98 310.86,-182.98 309.03,-189.73"/>
</g>
<!-- Node18&#45;&gt;Node11 -->
<g id="edge9" class="edge">
<title>Node18&#45;&gt;Node11</title>
<path fill="none" stroke="#63b8ff" d="M257.62,-153.17C267.78,-151.79 278.69,-150.31 289.34,-148.87"/>
<polygon fill="#63b8ff" stroke="#63b8ff" points="289.8,-152.34 299.24,-147.52 288.86,-145.4 289.8,-152.34"/>
</g>
<!-- Node24&#45;&gt;Node12 -->
<g id="edge12" class="edge">
<title>Node24&#45;&gt;Node12</title>
<path fill="none" stroke="#63b8ff" d="M242.93,-245.31C250.32,-247.97 258.05,-251.07 265,-254.5 287.85,-265.76 311.99,-281.9 328.86,-293.97"/>
<polygon fill="#63b8ff" stroke="#63b8ff" points="326.52,-296.59 336.67,-299.64 330.64,-290.93 326.52,-296.59"/>
</g>
<!-- Node24&#45;&gt;Node21 -->
<g id="edge13" class="edge">
<title>Node24&#45;&gt;Node21</title>
<path fill="none" stroke="#63b8ff" d="M242.77,-226.88C262.74,-221.46 288.69,-214.41 310.18,-208.58"/>
<polygon fill="#63b8ff" stroke="#63b8ff" points="311.08,-211.96 319.81,-205.97 309.24,-205.21 311.08,-211.96"/>
</g>
</g>
</svg>
