<?xml version="1.0" encoding="UTF-8" standalone="no"?>
<!DOCTYPE svg PUBLIC "-//W3C//DTD SVG 1.1//EN"
 "http://www.w3.org/Graphics/SVG/1.1/DTD/svg11.dtd">
<!-- Generated by graphviz version 2.44.0 (0)
 -->
<!-- Title: resize.c Pages: 1 -->
<svg width="404pt" height="84pt"
 viewBox="0.00 0.00 403.50 84.00" xmlns="http://www.w3.org/2000/svg" xmlns:xlink="http://www.w3.org/1999/xlink">
<g id="graph0" class="graph" transform="scale(1 1) rotate(0) translate(4 80)">
<title>resize.c</title>
<polygon fill="white" stroke="transparent" points="-4,4 -4,-80 399.5,-80 399.5,4 -4,4"/>
<!-- Node1 -->
<g id="node1" class="node">
<title>Node1</title>
<g id="a_node1"><a xlink:title=" ">
<polygon fill="#bfbfbf" stroke="black" points="168.5,-56.5 168.5,-75.5 218.5,-75.5 218.5,-56.5 168.5,-56.5"/>
<text text-anchor="middle" x="193.5" y="-63.5" font-family="Helvetica" font-size="10.00">resize.c</text>
</a>
</g>
</g>
<!-- Node2 -->
<g id="node2" class="node">
<title>Node2</title>
<g id="a_node2"><a xlink:title=" ">
<polygon fill="white" stroke="#bfbfbf" points="0,-0.5 0,-19.5 51,-19.5 51,-0.5 0,-0.5"/>
<text text-anchor="middle" x="25.5" y="-7.5" font-family="Helvetica" font-size="10.00">config.h</text>
</a>
</g>
</g>
<!-- Node1&#45;&gt;Node2 -->
<g id="edge1" class="edge">
<title>Node1&#45;&gt;Node2</title>
<path fill="none" stroke="midnightblue" d="M168.35,-56.92C139.85,-47.76 93.2,-32.76 61,-22.41"/>
<polygon fill="midnightblue" stroke="midnightblue" points="61.69,-18.96 51.1,-19.23 59.55,-25.62 61.69,-18.96"/>
</g>
<!-- Node3 -->
<g id="node3" class="node">
<title>Node3</title>
<g id="a_node3"><a xlink:title=" ">
<polygon fill="white" stroke="#bfbfbf" points="69,-0.5 69,-19.5 120,-19.5 120,-0.5 69,-0.5"/>
<text text-anchor="middle" x="94.5" y="-7.5" font-family="Helvetica" font-size="10.00">stddef.h</text>
</a>
</g>
</g>
<!-- Node1&#45;&gt;Node3 -->
<g id="edge2" class="edge">
<title>Node1&#45;&gt;Node3</title>
<path fill="none" stroke="midnightblue" d="M177.59,-56.32C161.86,-47.74 137.56,-34.49 119.29,-24.52"/>
<polygon fill="midnightblue" stroke="midnightblue" points="120.82,-21.37 110.37,-19.65 117.47,-27.52 120.82,-21.37"/>
</g>
<!-- Node4 -->
<g id="node4" class="node">
<title>Node4</title>
<g id="a_node4"><a xlink:title=" ">
<polygon fill="white" stroke="#bfbfbf" points="138.5,-0.5 138.5,-19.5 182.5,-19.5 182.5,-0.5 138.5,-0.5"/>
<text text-anchor="middle" x="160.5" y="-7.5" font-family="Helvetica" font-size="10.00">fcntl.h</text>
</a>
</g>
</g>
<!-- Node1&#45;&gt;Node4 -->
<g id="edge3" class="edge">
<title>Node1&#45;&gt;Node4</title>
<path fill="none" stroke="midnightblue" d="M188.05,-56.08C183.49,-48.61 176.83,-37.72 171.21,-28.52"/>
<polygon fill="midnightblue" stroke="midnightblue" points="174.05,-26.46 165.85,-19.75 168.08,-30.11 174.05,-26.46"/>
</g>
<!-- Node5 -->
<g id="node5" class="node">
<title>Node5</title>
<g id="a_node5"><a xlink:title=" ">
<polygon fill="white" stroke="#bfbfbf" points="201,-0.5 201,-19.5 252,-19.5 252,-0.5 201,-0.5"/>
<text text-anchor="middle" x="226.5" y="-7.5" font-family="Helvetica" font-size="10.00">unistd.h</text>
</a>
</g>
</g>
<!-- Node1&#45;&gt;Node5 -->
<g id="edge4" class="edge">
<title>Node1&#45;&gt;Node5</title>
<path fill="none" stroke="midnightblue" d="M198.95,-56.08C203.51,-48.61 210.17,-37.72 215.79,-28.52"/>
<polygon fill="midnightblue" stroke="midnightblue" points="218.92,-30.11 221.15,-19.75 212.95,-26.46 218.92,-30.11"/>
</g>
<!-- Node6 -->
<g id="node6" class="node">
<title>Node6</title>
<g id="a_node6"><a xlink:href="mutt_2lib_8h.html" target="_top" xlink:title=" ">
<polygon fill="white" stroke="red" points="270,-0.5 270,-19.5 327,-19.5 327,-0.5 270,-0.5"/>
<text text-anchor="middle" x="298.5" y="-7.5" font-family="Helvetica" font-size="10.00">mutt/lib.h</text>
</a>
</g>
</g>
<!-- Node1&#45;&gt;Node6 -->
<g id="edge5" class="edge">
<title>Node1&#45;&gt;Node6</title>
<path fill="none" stroke="midnightblue" d="M210.37,-56.32C227.21,-47.66 253.31,-34.24 272.74,-24.25"/>
<polygon fill="midnightblue" stroke="midnightblue" points="274.38,-27.34 281.67,-19.65 271.18,-21.12 274.38,-27.34"/>
</g>
<!-- Node49 -->
<g id="node7" class="node">
<title>Node49</title>
<g id="a_node7"><a xlink:href="gui_2lib_8h.html" target="_top" xlink:title=" ">
<polygon fill="white" stroke="red" points="345.5,-0.5 345.5,-19.5 395.5,-19.5 395.5,-0.5 345.5,-0.5"/>
<text text-anchor="middle" x="370.5" y="-7.5" font-family="Helvetica" font-size="10.00">gui/lib.h</text>
</a>
</g>
</g>
<!-- Node1&#45;&gt;Node49 -->
<g id="edge6" class="edge">
<title>Node1&#45;&gt;Node49</title>
<path fill="none" stroke="midnightblue" d="M218.86,-57.26C249.57,-47.89 301.45,-32.07 335.84,-21.57"/>
<polygon fill="midnightblue" stroke="midnightblue" points="336.93,-24.9 345.47,-18.64 334.89,-18.21 336.93,-24.9"/>
</g>
</g>
</svg>
