<?xml version="1.0" encoding="UTF-8" standalone="no"?>
<!DOCTYPE svg PUBLIC "-//W3C//DTD SVG 1.1//EN"
 "http://www.w3.org/Graphics/SVG/1.1/DTD/svg11.dtd">
<!-- Generated by graphviz version 2.44.0 (0)
 -->
<!-- Title: try_block Pages: 1 -->
<svg width="208pt" height="142pt"
 viewBox="0.00 0.00 208.00 142.00" xmlns="http://www.w3.org/2000/svg" xmlns:xlink="http://www.w3.org/1999/xlink">
<g id="graph0" class="graph" transform="scale(1 1) rotate(0) translate(4 138)">
<title>try_block</title>
<polygon fill="white" stroke="transparent" points="-4,4 -4,-138 204,-138 204,4 -4,4"/>
<!-- Node1 -->
<g id="node1" class="node">
<title>Node1</title>
<g id="a_node1"><a xlink:title="Attempt to convert a block of text.">
<polygon fill="#bfbfbf" stroke="black" points="0,-57.5 0,-76.5 57,-76.5 57,-57.5 0,-57.5"/>
<text text-anchor="middle" x="28.5" y="-64.5" font-family="Helvetica" font-size="10.00">try_block</text>
</a>
</g>
</g>
<!-- Node2 -->
<g id="node2" class="node">
<title>Node2</title>
<g id="a_node2"><a xlink:href="rfc2047_8c.html#a386450bad3229da26d1cd1a63d0fc257" target="_top" xlink:title="Base64 Encode a string &#45; Implements encoder_t.">
<polygon fill="white" stroke="red" points="115.5,-114.5 115.5,-133.5 177.5,-133.5 177.5,-114.5 115.5,-114.5"/>
<text text-anchor="middle" x="146.5" y="-121.5" font-family="Helvetica" font-size="10.00">b_encoder</text>
</a>
</g>
</g>
<!-- Node1&#45;&gt;Node2 -->
<g id="edge1" class="edge">
<title>Node1&#45;&gt;Node2</title>
<path fill="none" stroke="midnightblue" d="M43.69,-76.57C56.28,-84.8 75.36,-96.62 93,-105 97.32,-107.05 101.91,-109.01 106.53,-110.85"/>
<polygon fill="midnightblue" stroke="midnightblue" points="105.34,-114.14 115.93,-114.42 107.83,-107.6 105.34,-114.14"/>
</g>
<!-- Node4 -->
<g id="node3" class="node">
<title>Node4</title>
<g id="a_node3"><a xlink:href="mutt_2charset_8c.html#af7380ef31de4a56ab644b71f0a010ed9" target="_top" xlink:title="Set up iconv for conversions.">
<polygon fill="white" stroke="red" points="93,-76.5 93,-95.5 200,-95.5 200,-76.5 93,-76.5"/>
<text text-anchor="middle" x="146.5" y="-83.5" font-family="Helvetica" font-size="10.00">mutt_ch_iconv_open</text>
</a>
</g>
</g>
<!-- Node1&#45;&gt;Node4 -->
<g id="edge2" class="edge">
<title>Node1&#45;&gt;Node4</title>
<path fill="none" stroke="midnightblue" d="M57.28,-71.55C65.08,-72.83 73.88,-74.27 82.83,-75.73"/>
<polygon fill="midnightblue" stroke="midnightblue" points="82.52,-79.23 92.95,-77.39 83.65,-72.32 82.52,-79.23"/>
</g>
<!-- Node6 -->
<g id="node4" class="node">
<title>Node6</title>
<g id="a_node4"><a xlink:href="mutt_2string_8c.html#a29db81d6f5a7dd216cbea75ecf8a5885" target="_top" xlink:title="Compare two strings, ignoring case.">
<polygon fill="white" stroke="red" points="105,-38.5 105,-57.5 188,-57.5 188,-38.5 105,-38.5"/>
<text text-anchor="middle" x="146.5" y="-45.5" font-family="Helvetica" font-size="10.00">mutt_istr_equal</text>
</a>
</g>
</g>
<!-- Node1&#45;&gt;Node6 -->
<g id="edge3" class="edge">
<title>Node1&#45;&gt;Node6</title>
<path fill="none" stroke="midnightblue" d="M57.28,-62.45C68.5,-60.61 81.8,-58.43 94.63,-56.33"/>
<polygon fill="midnightblue" stroke="midnightblue" points="95.47,-59.74 104.77,-54.67 94.33,-52.83 95.47,-59.74"/>
</g>
<!-- Node17 -->
<g id="node5" class="node">
<title>Node17</title>
<g id="a_node5"><a xlink:href="rfc2047_8c.html#ac84a78b1788e7c21ab20df68a24c9cd0" target="_top" xlink:title="Quoted&#45;printable Encode a string &#45; Implements encoder_t.">
<polygon fill="white" stroke="black" points="115.5,-0.5 115.5,-19.5 177.5,-19.5 177.5,-0.5 115.5,-0.5"/>
<text text-anchor="middle" x="146.5" y="-7.5" font-family="Helvetica" font-size="10.00">q_encoder</text>
</a>
</g>
</g>
<!-- Node1&#45;&gt;Node17 -->
<g id="edge4" class="edge">
<title>Node1&#45;&gt;Node17</title>
<path fill="none" stroke="midnightblue" d="M43.69,-57.43C56.28,-49.2 75.36,-37.38 93,-29 97.32,-26.95 101.91,-24.99 106.53,-23.15"/>
<polygon fill="midnightblue" stroke="midnightblue" points="107.83,-26.4 115.93,-19.58 105.34,-19.86 107.83,-26.4"/>
</g>
</g>
</svg>
