<?xml version="1.0" encoding="UTF-8" standalone="no"?>
<!DOCTYPE svg PUBLIC "-//W3C//DTD SVG 1.1//EN"
 "http://www.w3.org/Graphics/SVG/1.1/DTD/svg11.dtd">
<!-- Generated by graphviz version 2.40.1 (20161225.0304)
 -->
<!-- Title: rfc2047_decode Pages: 1 -->
<svg width="597pt" height="494pt"
 viewBox="0.00 0.00 597.00 494.16" xmlns="http://www.w3.org/2000/svg" xmlns:xlink="http://www.w3.org/1999/xlink">
<g id="graph0" class="graph" transform="scale(1 1) rotate(0) translate(4 490.1552)">
<title>rfc2047_decode</title>
<polygon fill="#ffffff" stroke="transparent" points="-4,4 -4,-490.1552 593,-490.1552 593,4 -4,4"/>
<!-- Node5481 -->
<g id="node1" class="node">
<title>Node5481</title>
<polygon fill="#bfbfbf" stroke="#000000" points="0,-240.5 0,-259.5 94,-259.5 94,-240.5 0,-240.5"/>
<text text-anchor="middle" x="47" y="-247.5" font-family="Helvetica,sans-Serif" font-size="10.00" fill="#000000">rfc2047_decode</text>
</g>
<!-- Node5482 -->
<g id="node2" class="node">
<title>Node5482</title>
<g id="a_node2"><a xlink:href="buffer_8c.html#a0242aaa9a400d0722a99828776c0403b" target="_top" xlink:title="Make a new buffer on the stack. ">
<polygon fill="#ffffff" stroke="#ff0000" points="320.5,-449.5 320.5,-468.5 427.5,-468.5 427.5,-449.5 320.5,-449.5"/>
<text text-anchor="middle" x="374" y="-456.5" font-family="Helvetica,sans-Serif" font-size="10.00" fill="#000000">mutt_buffer_make</text>
</a>
</g>
</g>
<!-- Node5481&#45;&gt;Node5482 -->
<g id="edge1" class="edge">
<title>Node5481&#45;&gt;Node5482</title>
<path fill="none" stroke="#191970" d="M47.3116,-259.7609C49.0058,-294.3311 59.9054,-411.4169 130,-459 191.6085,-500.8224 283.6522,-485.2105 335.2875,-471.3198"/>
<polygon fill="#191970" stroke="#191970" points="336.3704,-474.6512 345.0547,-468.5821 334.4812,-467.9109 336.3704,-474.6512"/>
</g>
<!-- Node5485 -->
<g id="node3" class="node">
<title>Node5485</title>
<g id="a_node3"><a xlink:href="rfc2047_8c.html#a78942300d9cc890e47b32b24c5a4d2e1" target="_top" xlink:title="Parse a string and report RFC2047 elements. ">
<polygon fill="#ffffff" stroke="#ff0000" points="145.5,-114.5 145.5,-133.5 264.5,-133.5 264.5,-114.5 145.5,-114.5"/>
<text text-anchor="middle" x="205" y="-121.5" font-family="Helvetica,sans-Serif" font-size="10.00" fill="#000000">parse_encoded_word</text>
</a>
</g>
</g>
<!-- Node5481&#45;&gt;Node5485 -->
<g id="edge2" class="edge">
<title>Node5481&#45;&gt;Node5485</title>
<path fill="none" stroke="#191970" d="M52.2736,-240.2829C63.7242,-220.0859 92.8475,-173.3478 130,-148 136.4318,-143.6118 143.7139,-139.9882 151.1496,-137.0063"/>
<polygon fill="#191970" stroke="#191970" points="152.4008,-140.2756 160.5979,-133.5631 150.0039,-133.6987 152.4008,-140.2756"/>
</g>
<!-- Node5490 -->
<g id="node4" class="node">
<title>Node5490</title>
<g id="a_node4"><a xlink:href="mutt_2string_8c.html#aca11f88d08a860c07419df3efb18f35a" target="_top" xlink:title="Calculate the length of a string, safely. ">
<polygon fill="#ffffff" stroke="#000000" points="483,-240.5 483,-259.5 574,-259.5 574,-240.5 483,-240.5"/>
<text text-anchor="middle" x="528.5" y="-247.5" font-family="Helvetica,sans-Serif" font-size="10.00" fill="#000000">mutt_str_strlen</text>
</a>
</g>
</g>
<!-- Node5481&#45;&gt;Node5490 -->
<g id="edge3" class="edge">
<title>Node5481&#45;&gt;Node5490</title>
<path fill="none" stroke="#191970" d="M94.0449,-250C183.317,-250 376.9033,-250 472.6147,-250"/>
<polygon fill="#191970" stroke="#191970" points="472.6775,-253.5001 482.6775,-250 472.6774,-246.5001 472.6775,-253.5001"/>
</g>
<!-- Node5491 -->
<g id="node5" class="node">
<title>Node5491</title>
<g id="a_node5"><a xlink:href="mutt_2string_8c.html#a64aa5bd37494ee3cbc4285bd06d6c91c" target="_top" xlink:title="Measure the linear&#45;white&#45;space at the beginning of a string. ">
<polygon fill="#ffffff" stroke="#000000" points="155,-76.5 155,-95.5 255,-95.5 255,-76.5 155,-76.5"/>
<text text-anchor="middle" x="205" y="-83.5" font-family="Helvetica,sans-Serif" font-size="10.00" fill="#000000">mutt_str_lws_len</text>
</a>
</g>
</g>
<!-- Node5481&#45;&gt;Node5491 -->
<g id="edge4" class="edge">
<title>Node5481&#45;&gt;Node5491</title>
<path fill="none" stroke="#191970" d="M49.5921,-240.4671C57.1892,-214.406 81.9523,-141.4889 130,-105 134.6599,-101.4611 139.9057,-98.5764 145.4029,-96.2258"/>
<polygon fill="#191970" stroke="#191970" points="146.6586,-99.4932 154.8328,-92.7528 144.2394,-92.9246 146.6586,-99.4932"/>
</g>
<!-- Node5492 -->
<g id="node6" class="node">
<title>Node5492</title>
<g id="a_node6"><a xlink:href="buffer_8c.html#a2d7c4a32422377609be66b0f620c4971" target="_top" xlink:title="Is the Buffer empty? ">
<polygon fill="#ffffff" stroke="#000000" points="143,-38.5 143,-57.5 267,-57.5 267,-38.5 143,-38.5"/>
<text text-anchor="middle" x="205" y="-45.5" font-family="Helvetica,sans-Serif" font-size="10.00" fill="#000000">mutt_buffer_is_empty</text>
</a>
</g>
</g>
<!-- Node5481&#45;&gt;Node5492 -->
<g id="edge5" class="edge">
<title>Node5481&#45;&gt;Node5492</title>
<path fill="none" stroke="#191970" d="M48.4142,-240.2804C53.3934,-209.7019 73.0022,-114.6737 130,-67 132.0285,-65.3034 134.1885,-63.7553 136.4479,-62.3431"/>
<polygon fill="#191970" stroke="#191970" points="138.3619,-65.2912 145.5867,-57.5418 135.1062,-59.0943 138.3619,-65.2912"/>
</g>
<!-- Node5493 -->
<g id="node7" class="node">
<title>Node5493</title>
<g id="a_node7"><a xlink:href="rfc2047_8c.html#afef686b50d1bc6030d76a2c1c5dbb6c4" target="_top" xlink:title="Perform charset conversion and filtering. ">
<polygon fill="#ffffff" stroke="#ff0000" points="162,-278.5 162,-297.5 248,-297.5 248,-278.5 162,-278.5"/>
<text text-anchor="middle" x="205" y="-285.5" font-family="Helvetica,sans-Serif" font-size="10.00" fill="#000000">finalize_chunk</text>
</a>
</g>
</g>
<!-- Node5481&#45;&gt;Node5493 -->
<g id="edge6" class="edge">
<title>Node5481&#45;&gt;Node5493</title>
<path fill="none" stroke="#191970" d="M86.8701,-259.589C107.7199,-264.6035 133.4346,-270.7881 155.5429,-276.1053"/>
<polygon fill="#191970" stroke="#191970" points="154.8754,-279.5445 165.4166,-278.4799 156.5123,-272.7385 154.8754,-279.5445"/>
</g>
<!-- Node5515 -->
<g id="node8" class="node">
<title>Node5515</title>
<g id="a_node8"><a xlink:href="buffer_8c.html#a958e87c1ae9de976eb76f759dbaaa601" target="_top" xlink:title="Add a string to a Buffer. ">
<polygon fill="#ffffff" stroke="#000000" points="319,-297.5 319,-316.5 429,-316.5 429,-297.5 319,-297.5"/>
<text text-anchor="middle" x="374" y="-304.5" font-family="Helvetica,sans-Serif" font-size="10.00" fill="#000000">mutt_buffer_addstr</text>
</a>
</g>
</g>
<!-- Node5481&#45;&gt;Node5515 -->
<g id="edge14" class="edge">
<title>Node5481&#45;&gt;Node5515</title>
<path fill="none" stroke="#191970" d="M56.6565,-259.6226C71.1231,-273.2832 99.9487,-297.6748 130,-307 188.4788,-325.1465 258.7067,-322.8014 308.7736,-317.3195"/>
<polygon fill="#191970" stroke="#191970" points="309.2967,-320.7823 318.824,-316.1475 308.4859,-313.8294 309.2967,-320.7823"/>
</g>
<!-- Node5516 -->
<g id="node9" class="node">
<title>Node5516</title>
<g id="a_node9"><a xlink:href="buffer_8c.html#a5e5f044f387e591627acfa6854416b71" target="_top" xlink:title="Add a string to a Buffer, expanding it if necessary. ">
<polygon fill="#ffffff" stroke="#ff0000" points="468,-354.5 468,-373.5 589,-373.5 589,-354.5 468,-354.5"/>
<text text-anchor="middle" x="528.5" y="-361.5" font-family="Helvetica,sans-Serif" font-size="10.00" fill="#000000">mutt_buffer_addstr_n</text>
</a>
</g>
</g>
<!-- Node5481&#45;&gt;Node5516 -->
<g id="edge15" class="edge">
<title>Node5481&#45;&gt;Node5516</title>
<path fill="none" stroke="#191970" d="M53.6379,-259.6683C66.2123,-277.0832 95.3706,-313.3624 130,-329 236.4849,-377.0853 375.1107,-377.0862 457.6474,-371.4349"/>
<polygon fill="#191970" stroke="#191970" points="457.9578,-374.9216 467.6758,-370.7013 457.4471,-367.9403 457.9578,-374.9216"/>
</g>
<!-- Node5519 -->
<g id="node10" class="node">
<title>Node5519</title>
<g id="a_node10"><a xlink:href="mutt_2string_8c.html#a97a08d325db953698595ab3097eb14ea" target="_top" xlink:title="Duplicate a sub&#45;string. ">
<polygon fill="#ffffff" stroke="#ff0000" points="316,-155.5 316,-174.5 432,-174.5 432,-155.5 316,-155.5"/>
<text text-anchor="middle" x="374" y="-162.5" font-family="Helvetica,sans-Serif" font-size="10.00" fill="#000000">mutt_str_substr_dup</text>
</a>
</g>
</g>
<!-- Node5481&#45;&gt;Node5519 -->
<g id="edge10" class="edge">
<title>Node5481&#45;&gt;Node5519</title>
<path fill="none" stroke="#191970" d="M54.7452,-240.4935C68.167,-224.8154 97.452,-193.9818 130,-181 186.0726,-158.6353 255.1391,-156.18 305.4621,-158.4163"/>
<polygon fill="#191970" stroke="#191970" points="305.418,-161.9187 315.5856,-158.9404 305.7799,-154.928 305.418,-161.9187"/>
</g>
<!-- Node5520 -->
<g id="node11" class="node">
<title>Node5520</title>
<g id="a_node11"><a xlink:href="charset_8c.html#acc2835b9ab71b4fa4bd1b330b3405ab6" target="_top" xlink:title="Try to convert a string using a list of character sets. ">
<polygon fill="#ffffff" stroke="#ff0000" points="130,-191 130,-221 280,-221 280,-191 130,-191"/>
<text text-anchor="start" x="138" y="-209" font-family="Helvetica,sans-Serif" font-size="10.00" fill="#000000">mutt_ch_convert_nonmime</text>
<text text-anchor="middle" x="205" y="-198" font-family="Helvetica,sans-Serif" font-size="10.00" fill="#000000">_string</text>
</a>
</g>
</g>
<!-- Node5481&#45;&gt;Node5520 -->
<g id="edge11" class="edge">
<title>Node5481&#45;&gt;Node5520</title>
<path fill="none" stroke="#191970" d="M81.2836,-240.4527C98.7549,-235.5872 120.577,-229.5102 141.0085,-223.8204"/>
<polygon fill="#191970" stroke="#191970" points="142.2072,-227.1199 150.9016,-221.0654 140.3292,-220.3765 142.2072,-227.1199"/>
</g>
<!-- Node5522 -->
<g id="node12" class="node">
<title>Node5522</title>
<g id="a_node12"><a xlink:href="rfc2047_8c.html#a7bc348d3286019d04ba25d666fb86901" target="_top" xlink:title="Decode an RFC2047&#45;encoded string. ">
<polygon fill="#ffffff" stroke="#ff0000" points="164.5,-430.5 164.5,-449.5 245.5,-449.5 245.5,-430.5 164.5,-430.5"/>
<text text-anchor="middle" x="205" y="-437.5" font-family="Helvetica,sans-Serif" font-size="10.00" fill="#000000">decode_word</text>
</a>
</g>
</g>
<!-- Node5481&#45;&gt;Node5522 -->
<g id="edge16" class="edge">
<title>Node5481&#45;&gt;Node5522</title>
<path fill="none" stroke="#191970" d="M49.0994,-259.8887C55.6823,-288.475 78.6166,-371.9749 130,-416 137.0904,-422.075 145.7357,-426.6168 154.6015,-430.011"/>
<polygon fill="#191970" stroke="#191970" points="153.6511,-433.3841 164.2453,-433.262 155.8872,-426.7509 153.6511,-433.3841"/>
</g>
<!-- Node5523 -->
<g id="node13" class="node">
<title>Node5523</title>
<g id="a_node13"><a xlink:href="buffer_8c.html#a819a9cb669c1a7e8e2218c672b794492" target="_top" xlink:title="Add a single character to a Buffer. ">
<polygon fill="#ffffff" stroke="#000000" points="320,-392.5 320,-411.5 428,-411.5 428,-392.5 320,-392.5"/>
<text text-anchor="middle" x="374" y="-399.5" font-family="Helvetica,sans-Serif" font-size="10.00" fill="#000000">mutt_buffer_addch</text>
</a>
</g>
</g>
<!-- Node5481&#45;&gt;Node5523 -->
<g id="edge21" class="edge">
<title>Node5481&#45;&gt;Node5523</title>
<path fill="none" stroke="#191970" d="M50.0478,-259.8549C58.2972,-284.672 83.6214,-349.7699 130,-378 184.028,-410.8862 257.5429,-413.6811 309.7197,-410.2376"/>
<polygon fill="#191970" stroke="#191970" points="310.1501,-413.7151 319.8585,-409.4727 309.6235,-406.735 310.1501,-413.7151"/>
</g>
<!-- Node5525 -->
<g id="node14" class="node">
<title>Node5525</title>
<g id="a_node14"><a xlink:href="mutt_2string_8c.html#a0f37dc8085c127cb48df9b47a21236a6" target="_top" xlink:title="Compare two strings (to a maximum), safely. ">
<polygon fill="#ffffff" stroke="#000000" points="153.5,-.5 153.5,-19.5 256.5,-19.5 256.5,-.5 153.5,-.5"/>
<text text-anchor="middle" x="205" y="-7.5" font-family="Helvetica,sans-Serif" font-size="10.00" fill="#000000">mutt_str_strncmp</text>
</a>
</g>
</g>
<!-- Node5481&#45;&gt;Node5525 -->
<g id="edge20" class="edge">
<title>Node5481&#45;&gt;Node5525</title>
<path fill="none" stroke="#191970" d="M47.5769,-240.3041C50.1668,-205.8604 63.716,-88.2975 130,-29 134.1295,-25.3058 138.8755,-22.3087 143.9321,-19.8802"/>
<polygon fill="#191970" stroke="#191970" points="145.342,-23.0855 153.3033,-16.0948 142.7203,-16.595 145.342,-23.0855"/>
</g>
<!-- Node5493&#45;&gt;Node5515 -->
<g id="edge7" class="edge">
<title>Node5493&#45;&gt;Node5515</title>
<path fill="none" stroke="#191970" d="M248.0831,-292.8437C266.4882,-294.9129 288.3761,-297.3736 308.6995,-299.6585"/>
<polygon fill="#191970" stroke="#191970" points="308.5137,-303.1596 318.8421,-300.7988 309.2958,-296.2034 308.5137,-303.1596"/>
</g>
<!-- Node5515&#45;&gt;Node5490 -->
<g id="edge9" class="edge">
<title>Node5515&#45;&gt;Node5490</title>
<path fill="none" stroke="#191970" d="M399.8598,-297.4595C425.3717,-288.0473 464.569,-273.5862 492.9918,-263.1001"/>
<polygon fill="#191970" stroke="#191970" points="494.3854,-266.3166 502.5558,-259.5716 491.9625,-259.7493 494.3854,-266.3166"/>
</g>
<!-- Node5515&#45;&gt;Node5516 -->
<g id="edge8" class="edge">
<title>Node5515&#45;&gt;Node5516</title>
<path fill="none" stroke="#191970" d="M399.8598,-316.5405C425.3717,-325.9527 464.569,-340.4138 492.9918,-350.8999"/>
<polygon fill="#191970" stroke="#191970" points="491.9625,-354.2507 502.5558,-354.4284 494.3854,-347.6834 491.9625,-354.2507"/>
</g>
<!-- Node5520&#45;&gt;Node5490 -->
<g id="edge12" class="edge">
<title>Node5520&#45;&gt;Node5490</title>
<path fill="none" stroke="#191970" d="M280.1823,-215.693C324.4054,-221.4552 381.4019,-228.9865 432,-236 445.2288,-237.8337 459.4685,-239.8667 472.8398,-241.8021"/>
<polygon fill="#191970" stroke="#191970" points="472.4653,-245.2844 482.8645,-243.2582 473.4715,-238.3571 472.4653,-245.2844"/>
</g>
<!-- Node5520&#45;&gt;Node5519 -->
<g id="edge13" class="edge">
<title>Node5520&#45;&gt;Node5519</title>
<path fill="none" stroke="#191970" d="M266.9697,-190.9659C286.0461,-186.3379 306.7751,-181.309 324.8655,-176.9202"/>
<polygon fill="#191970" stroke="#191970" points="325.724,-180.3135 334.6169,-174.5545 324.0736,-173.5109 325.724,-180.3135"/>
</g>
<!-- Node5522&#45;&gt;Node5482 -->
<g id="edge17" class="edge">
<title>Node5522&#45;&gt;Node5482</title>
<path fill="none" stroke="#191970" d="M245.9102,-444.5994C265.2222,-446.7705 288.7172,-449.412 310.2858,-451.8369"/>
<polygon fill="#191970" stroke="#191970" points="310.0356,-455.3307 320.3641,-452.9699 310.8178,-448.3745 310.0356,-455.3307"/>
</g>
<!-- Node5522&#45;&gt;Node5523 -->
<g id="edge18" class="edge">
<title>Node5522&#45;&gt;Node5523</title>
<path fill="none" stroke="#191970" d="M245.9102,-430.8013C268.7485,-425.666 297.4368,-419.2154 321.8709,-413.7213"/>
<polygon fill="#191970" stroke="#191970" points="322.7131,-417.1194 331.7017,-411.5109 321.1774,-410.29 322.7131,-417.1194"/>
</g>
<!-- Node5523&#45;&gt;Node5516 -->
<g id="edge19" class="edge">
<title>Node5523&#45;&gt;Node5516</title>
<path fill="none" stroke="#191970" d="M412.9869,-392.411C433.283,-387.4191 458.2935,-381.2676 479.8462,-375.9666"/>
<polygon fill="#191970" stroke="#191970" points="480.9188,-379.3072 489.7935,-373.5201 479.2469,-372.5098 480.9188,-379.3072"/>
</g>
</g>
</svg>
