<?xml version="1.0" encoding="UTF-8" standalone="no"?>
<!DOCTYPE svg PUBLIC "-//W3C//DTD SVG 1.1//EN"
 "http://www.w3.org/Graphics/SVG/1.1/DTD/svg11.dtd">
<!-- Generated by graphviz version 12.2.1 (20241206.2353)
 -->
<!-- Title: rfc3676.h Pages: 1 -->
<svg width="750pt" height="89pt"
 viewBox="0.00 0.00 749.75 88.50" xmlns="http://www.w3.org/2000/svg" xmlns:xlink="http://www.w3.org/1999/xlink">
<g id="graph0" class="graph" transform="scale(1 1) rotate(0) translate(4 84.5)">
<title>rfc3676.h</title>
<!-- Node1 -->
<g id="Node000001" class="node">
<title>Node1</title>
<g id="a_Node000001"><a xlink:title="RFC3676 Format Flowed routines.">
<polygon fill="#999999" stroke="#666666" points="441.5,-80.5 379.75,-80.5 379.75,-58.25 441.5,-58.25 441.5,-80.5"/>
<text text-anchor="middle" x="410.62" y="-67" font-family="Helvetica,sans-Serif" font-size="10.00">rfc3676.h</text>
</a>
</g>
</g>
<!-- Node2 -->
<g id="Node000002" class="node">
<title>Node2</title>
<g id="a_Node000002"><a xlink:href="mutt__attach_8c.html" target="_top" xlink:title="Handling of email attachments.">
<polygon fill="white" stroke="#666666" points="111.25,-22.25 0,-22.25 0,0 111.25,0 111.25,-22.25"/>
<text text-anchor="middle" x="55.62" y="-8.75" font-family="Helvetica,sans-Serif" font-size="10.00">attach/mutt_attach.c</text>
</a>
</g>
</g>
<!-- Node1&#45;&gt;Node2 -->
<g id="edge1_Node000001_Node000002" class="edge">
<title>Node1&#45;&gt;Node2</title>
<g id="a_edge1_Node000001_Node000002"><a xlink:title=" ">
<path fill="none" stroke="#63b8ff" d="M368.17,-61.65C304.16,-51.51 182.87,-32.29 111.67,-21.01"/>
<polygon fill="#63b8ff" stroke="#63b8ff" points="367.51,-65.09 377.94,-63.2 368.61,-58.17 367.51,-65.09"/>
</a>
</g>
</g>
<!-- Node3 -->
<g id="Node000003" class="node">
<title>Node3</title>
<g id="a_Node000003"><a xlink:href="recvattach_8c.html" target="_top" xlink:title="Attachment code.">
<polygon fill="white" stroke="#666666" points="233.5,-22.25 129.75,-22.25 129.75,0 233.5,0 233.5,-22.25"/>
<text text-anchor="middle" x="181.62" y="-8.75" font-family="Helvetica,sans-Serif" font-size="10.00">attach/recvattach.c</text>
</a>
</g>
</g>
<!-- Node1&#45;&gt;Node3 -->
<g id="edge2_Node000001_Node000003" class="edge">
<title>Node1&#45;&gt;Node3</title>
<g id="a_edge2_Node000001_Node000003"><a xlink:title=" ">
<path fill="none" stroke="#63b8ff" d="M368.32,-57.98C327.44,-47.94 265.83,-32.81 224.7,-22.71"/>
<polygon fill="#63b8ff" stroke="#63b8ff" points="367.25,-61.32 377.79,-60.31 368.92,-54.53 367.25,-61.32"/>
</a>
</g>
</g>
<!-- Node4 -->
<g id="Node000004" class="node">
<title>Node4</title>
<g id="a_Node000004"><a xlink:href="compose_2functions_8c.html" target="_top" xlink:title="Compose functions.">
<polygon fill="white" stroke="#666666" points="363.62,-22.25 251.62,-22.25 251.62,0 363.62,0 363.62,-22.25"/>
<text text-anchor="middle" x="307.62" y="-8.75" font-family="Helvetica,sans-Serif" font-size="10.00">compose/functions.c</text>
</a>
</g>
</g>
<!-- Node1&#45;&gt;Node4 -->
<g id="edge3_Node000001_Node000004" class="edge">
<title>Node1&#45;&gt;Node4</title>
<g id="a_edge3_Node000001_Node000004"><a xlink:title=" ">
<path fill="none" stroke="#63b8ff" d="M381.53,-52.49C364.05,-42.94 342.28,-31.05 326.91,-22.66"/>
<polygon fill="#63b8ff" stroke="#63b8ff" points="379.47,-55.35 389.92,-57.07 382.82,-49.2 379.47,-55.35"/>
</a>
</g>
</g>
<!-- Node5 -->
<g id="Node000005" class="node">
<title>Node5</title>
<g id="a_Node000005"><a xlink:href="handler_8c.html" target="_top" xlink:title="Decide how to display email content.">
<polygon fill="white" stroke="#666666" points="439.25,-22.25 382,-22.25 382,0 439.25,0 439.25,-22.25"/>
<text text-anchor="middle" x="410.62" y="-8.75" font-family="Helvetica,sans-Serif" font-size="10.00">handler.c</text>
</a>
</g>
</g>
<!-- Node1&#45;&gt;Node5 -->
<g id="edge4_Node000001_Node000005" class="edge">
<title>Node1&#45;&gt;Node5</title>
<g id="a_edge4_Node000001_Node000005"><a xlink:title=" ">
<path fill="none" stroke="#63b8ff" d="M410.62,-46.35C410.62,-38.2 410.62,-29.33 410.62,-22.66"/>
<polygon fill="#63b8ff" stroke="#63b8ff" points="407.13,-46.28 410.63,-56.28 414.13,-46.28 407.13,-46.28"/>
</a>
</g>
</g>
<!-- Node6 -->
<g id="Node000006" class="node">
<title>Node6</title>
<g id="a_Node000006"><a xlink:href="postpone_8c.html" target="_top" xlink:title="Postponed Email Selection Dialog.">
<polygon fill="white" stroke="#666666" points="573.5,-22.25 457.75,-22.25 457.75,0 573.5,0 573.5,-22.25"/>
<text text-anchor="middle" x="515.62" y="-8.75" font-family="Helvetica,sans-Serif" font-size="10.00">postpone/postpone.c</text>
</a>
</g>
</g>
<!-- Node1&#45;&gt;Node6 -->
<g id="edge5_Node000001_Node000006" class="edge">
<title>Node1&#45;&gt;Node6</title>
<g id="a_edge5_Node000001_Node000006"><a xlink:title=" ">
<path fill="none" stroke="#63b8ff" d="M440.28,-52.49C458.11,-42.94 480.3,-31.05 495.96,-22.66"/>
<polygon fill="#63b8ff" stroke="#63b8ff" points="438.87,-49.27 431.71,-57.08 442.18,-55.44 438.87,-49.27"/>
</a>
</g>
</g>
<!-- Node7 -->
<g id="Node000007" class="node">
<title>Node7</title>
<g id="a_Node000007"><a xlink:href="rfc3676_8c.html" target="_top" xlink:title="RFC3676 Format Flowed routines.">
<polygon fill="white" stroke="#666666" points="651.75,-22.25 591.5,-22.25 591.5,0 651.75,0 651.75,-22.25"/>
<text text-anchor="middle" x="621.62" y="-8.75" font-family="Helvetica,sans-Serif" font-size="10.00">rfc3676.c</text>
</a>
</g>
</g>
<!-- Node1&#45;&gt;Node7 -->
<g id="edge6_Node000001_Node000007" class="edge">
<title>Node1&#45;&gt;Node7</title>
<g id="a_edge6_Node000001_Node000007"><a xlink:title=" ">
<path fill="none" stroke="#63b8ff" d="M452.71,-57.16C493.58,-46.26 554.62,-29.99 591.05,-20.28"/>
<polygon fill="#63b8ff" stroke="#63b8ff" points="451.98,-53.73 443.22,-59.69 453.79,-60.49 451.98,-53.73"/>
</a>
</g>
</g>
<!-- Node8 -->
<g id="Node000008" class="node">
<title>Node8</title>
<g id="a_Node000008"><a xlink:href="send_8c.html" target="_top" xlink:title="Prepare and send an email.">
<polygon fill="white" stroke="#666666" points="741.75,-22.25 669.5,-22.25 669.5,0 741.75,0 741.75,-22.25"/>
<text text-anchor="middle" x="705.62" y="-8.75" font-family="Helvetica,sans-Serif" font-size="10.00">send/send.c</text>
</a>
</g>
</g>
<!-- Node1&#45;&gt;Node8 -->
<g id="edge7_Node000001_Node000008" class="edge">
<title>Node1&#45;&gt;Node8</title>
<g id="a_edge7_Node000001_Node000008"><a xlink:title=" ">
<path fill="none" stroke="#63b8ff" d="M453.16,-61.05C502.99,-52.34 587.97,-37.12 660.62,-22.25 663.45,-21.67 666.37,-21.06 669.3,-20.42"/>
<polygon fill="#63b8ff" stroke="#63b8ff" points="452.62,-57.59 443.37,-62.75 453.82,-64.48 452.62,-57.59"/>
</a>
</g>
</g>
</g>
</svg>
