<?xml version="1.0" encoding="UTF-8" standalone="no"?>
<!DOCTYPE svg PUBLIC "-//W3C//DTD SVG 1.1//EN"
 "http://www.w3.org/Graphics/SVG/1.1/DTD/svg11.dtd">
<!-- Generated by graphviz version 2.40.1 (20161225.0304)
 -->
<!-- Title: conn/sasl.c Pages: 1 -->
<svg width="961pt" height="196pt"
 viewBox="0.00 0.00 960.70 196.00" xmlns="http://www.w3.org/2000/svg" xmlns:xlink="http://www.w3.org/1999/xlink">
<g id="graph0" class="graph" transform="scale(1 1) rotate(0) translate(4 192)">
<title>conn/sasl.c</title>
<polygon fill="#ffffff" stroke="transparent" points="-4,4 -4,-192 956.6966,-192 956.6966,4 -4,4"/>
<!-- Node0 -->
<g id="node1" class="node">
<title>Node0</title>
<polygon fill="#bfbfbf" stroke="#000000" points="366.1966,-168.5 366.1966,-187.5 437.1966,-187.5 437.1966,-168.5 366.1966,-168.5"/>
<text text-anchor="middle" x="401.6966" y="-175.5" font-family="Helvetica,sans-Serif" font-size="10.00" fill="#000000">conn/sasl.c</text>
</g>
<!-- Node1 -->
<g id="node2" class="node">
<title>Node1</title>
<polygon fill="#ffffff" stroke="#bfbfbf" points="744.1966,-56.5 744.1966,-75.5 799.1966,-75.5 799.1966,-56.5 744.1966,-56.5"/>
<text text-anchor="middle" x="771.6966" y="-63.5" font-family="Helvetica,sans-Serif" font-size="10.00" fill="#000000">config.h</text>
</g>
<!-- Node0&#45;&gt;Node1 -->
<g id="edge1" class="edge">
<title>Node0&#45;&gt;Node1</title>
<path fill="none" stroke="#191970" d="M437.4185,-176.5995C531.6371,-172.5409 781.3406,-159.2865 805.6966,-132 818.6598,-117.477 804.4933,-97.1182 790.6963,-82.8643"/>
<polygon fill="#191970" stroke="#191970" points="792.8631,-80.0905 783.244,-75.6494 787.9941,-85.1197 792.8631,-80.0905"/>
</g>
<!-- Node2 -->
<g id="node3" class="node">
<title>Node2</title>
<polygon fill="#ffffff" stroke="#bfbfbf" points="450.6966,-56.5 450.6966,-75.5 506.6966,-75.5 506.6966,-56.5 450.6966,-56.5"/>
<text text-anchor="middle" x="478.6966" y="-63.5" font-family="Helvetica,sans-Serif" font-size="10.00" fill="#000000">stddef.h</text>
</g>
<!-- Node0&#45;&gt;Node2 -->
<g id="edge2" class="edge">
<title>Node0&#45;&gt;Node2</title>
<path fill="none" stroke="#191970" d="M366.1149,-174.6406C313.5315,-168.2967 224.568,-151.4684 256.6966,-112 279.4459,-84.0537 383.2231,-72.5518 440.4801,-68.2674"/>
<polygon fill="#191970" stroke="#191970" points="440.8727,-71.7484 450.5998,-67.5491 440.377,-64.766 440.8727,-71.7484"/>
</g>
<!-- Node3 -->
<g id="node4" class="node">
<title>Node3</title>
<polygon fill="#ffffff" stroke="#bfbfbf" points="31.1966,-112.5 31.1966,-131.5 82.1966,-131.5 82.1966,-112.5 31.1966,-112.5"/>
<text text-anchor="middle" x="56.6966" y="-119.5" font-family="Helvetica,sans-Serif" font-size="10.00" fill="#000000">errno.h</text>
</g>
<!-- Node0&#45;&gt;Node3 -->
<g id="edge3" class="edge">
<title>Node0&#45;&gt;Node3</title>
<path fill="none" stroke="#191970" d="M365.9568,-174.3518C309.6298,-168.2482 196.6616,-154.5754 92.289,-132.1208"/>
<polygon fill="#191970" stroke="#191970" points="92.7341,-128.6356 82.2175,-129.9203 91.2399,-135.4742 92.7341,-128.6356"/>
</g>
<!-- Node4 -->
<g id="node5" class="node">
<title>Node4</title>
<polygon fill="#ffffff" stroke="#bfbfbf" points="100.1966,-112.5 100.1966,-131.5 153.1966,-131.5 153.1966,-112.5 100.1966,-112.5"/>
<text text-anchor="middle" x="126.6966" y="-119.5" font-family="Helvetica,sans-Serif" font-size="10.00" fill="#000000">netdb.h</text>
</g>
<!-- Node0&#45;&gt;Node4 -->
<g id="edge4" class="edge">
<title>Node0&#45;&gt;Node4</title>
<path fill="none" stroke="#191970" d="M365.873,-172.0359C320.8872,-164.3428 241.1579,-150.0365 163.3422,-132.0023"/>
<polygon fill="#191970" stroke="#191970" points="163.9057,-128.5396 153.3711,-129.6681 162.3101,-135.3554 163.9057,-128.5396"/>
</g>
<!-- Node5 -->
<g id="node6" class="node">
<title>Node5</title>
<polygon fill="#ffffff" stroke="#bfbfbf" points=".6966,-.5 .6966,-19.5 68.6966,-19.5 68.6966,-.5 .6966,-.5"/>
<text text-anchor="middle" x="34.6966" y="-7.5" font-family="Helvetica,sans-Serif" font-size="10.00" fill="#000000">sasl/sasl.h</text>
</g>
<!-- Node0&#45;&gt;Node5 -->
<g id="edge5" class="edge">
<title>Node0&#45;&gt;Node5</title>
<path fill="none" stroke="#191970" d="M365.9723,-176.4331C274.2479,-172.0456 35.9901,-158.2103 12.6966,-132 -13.0246,-103.058 8.2709,-54.5424 23.2033,-28.2578"/>
<polygon fill="#191970" stroke="#191970" points="26.2148,-30.0412 28.3179,-19.6572 20.1983,-26.4633 26.2148,-30.0412"/>
</g>
<!-- Node6 -->
<g id="node7" class="node">
<title>Node6</title>
<polygon fill="#ffffff" stroke="#bfbfbf" points="831.6966,-.5 831.6966,-19.5 893.6966,-19.5 893.6966,-.5 831.6966,-.5"/>
<text text-anchor="middle" x="862.6966" y="-7.5" font-family="Helvetica,sans-Serif" font-size="10.00" fill="#000000">stdbool.h</text>
</g>
<!-- Node0&#45;&gt;Node6 -->
<g id="edge6" class="edge">
<title>Node0&#45;&gt;Node6</title>
<path fill="none" stroke="#191970" d="M437.3228,-176.2777C533.2893,-171.3372 791.9856,-155.9202 821.6966,-132 852.903,-106.8759 860.5086,-57.0999 862.2646,-29.5274"/>
<polygon fill="#191970" stroke="#191970" points="865.762,-29.6617 862.7038,-19.5178 858.7687,-29.3548 865.762,-29.6617"/>
</g>
<!-- Node7 -->
<g id="node8" class="node">
<title>Node7</title>
<polygon fill="#ffffff" stroke="#bfbfbf" points="265.6966,-112.5 265.6966,-131.5 315.6966,-131.5 315.6966,-112.5 265.6966,-112.5"/>
<text text-anchor="middle" x="290.6966" y="-119.5" font-family="Helvetica,sans-Serif" font-size="10.00" fill="#000000">stdio.h</text>
</g>
<!-- Node0&#45;&gt;Node7 -->
<g id="edge7" class="edge">
<title>Node0&#45;&gt;Node7</title>
<path fill="none" stroke="#191970" d="M382.615,-168.3733C364.9564,-159.4644 338.4913,-146.1127 318.4868,-136.0203"/>
<polygon fill="#191970" stroke="#191970" points="320.0338,-132.8806 309.5292,-131.5011 316.8808,-139.1303 320.0338,-132.8806"/>
</g>
<!-- Node8 -->
<g id="node9" class="node">
<title>Node8</title>
<polygon fill="#ffffff" stroke="#bfbfbf" points="334.1966,-112.5 334.1966,-131.5 387.1966,-131.5 387.1966,-112.5 334.1966,-112.5"/>
<text text-anchor="middle" x="360.6966" y="-119.5" font-family="Helvetica,sans-Serif" font-size="10.00" fill="#000000">string.h</text>
</g>
<!-- Node0&#45;&gt;Node8 -->
<g id="edge8" class="edge">
<title>Node0&#45;&gt;Node8</title>
<path fill="none" stroke="#191970" d="M394.5549,-168.2455C388.8522,-160.4564 380.7066,-149.3308 373.8341,-139.9439"/>
<polygon fill="#191970" stroke="#191970" points="376.4879,-137.6437 367.7564,-131.6427 370.8398,-141.7789 376.4879,-137.6437"/>
</g>
<!-- Node9 -->
<g id="node10" class="node">
<title>Node9</title>
<polygon fill="#ffffff" stroke="#bfbfbf" points="405.1966,-112.5 405.1966,-131.5 482.1966,-131.5 482.1966,-112.5 405.1966,-112.5"/>
<text text-anchor="middle" x="443.6966" y="-119.5" font-family="Helvetica,sans-Serif" font-size="10.00" fill="#000000">sys/socket.h</text>
</g>
<!-- Node0&#45;&gt;Node9 -->
<g id="edge9" class="edge">
<title>Node0&#45;&gt;Node9</title>
<path fill="none" stroke="#191970" d="M409.0124,-168.2455C414.9145,-160.3761 423.3708,-149.101 430.4559,-139.6542"/>
<polygon fill="#191970" stroke="#191970" points="433.2645,-141.7427 436.4646,-131.6427 427.6645,-137.5427 433.2645,-141.7427"/>
</g>
<!-- Node10 -->
<g id="node11" class="node">
<title>Node10</title>
<polygon fill="#ffffff" stroke="#bfbfbf" points="500.6966,-112.5 500.6966,-131.5 572.6966,-131.5 572.6966,-112.5 500.6966,-112.5"/>
<text text-anchor="middle" x="536.6966" y="-119.5" font-family="Helvetica,sans-Serif" font-size="10.00" fill="#000000">sys/types.h</text>
</g>
<!-- Node0&#45;&gt;Node10 -->
<g id="edge10" class="edge">
<title>Node0&#45;&gt;Node10</title>
<path fill="none" stroke="#191970" d="M424.9039,-168.3733C446.8665,-159.2629 480.0298,-145.5062 504.5367,-135.3404"/>
<polygon fill="#191970" stroke="#191970" points="505.8963,-138.5657 513.7921,-131.5011 503.2142,-132.0999 505.8963,-138.5657"/>
</g>
<!-- Node11 -->
<g id="node12" class="node">
<title>Node11</title>
<g id="a_node12"><a xlink:href="mutt_2lib_8h.html" target="_top" xlink:title="Convenience wrapper for the library headers. ">
<polygon fill="#ffffff" stroke="#ff0000" points="590.6966,-112.5 590.6966,-131.5 654.6966,-131.5 654.6966,-112.5 590.6966,-112.5"/>
<text text-anchor="middle" x="622.6966" y="-119.5" font-family="Helvetica,sans-Serif" font-size="10.00" fill="#000000">mutt/lib.h</text>
</a>
</g>
</g>
<!-- Node0&#45;&gt;Node11 -->
<g id="edge11" class="edge">
<title>Node0&#45;&gt;Node11</title>
<path fill="none" stroke="#191970" d="M437.2041,-169.0026C476.3181,-159.0914 539.1684,-143.1655 580.6987,-132.642"/>
<polygon fill="#191970" stroke="#191970" points="581.6775,-136.0047 590.5114,-130.1555 579.958,-129.2191 581.6775,-136.0047"/>
</g>
<!-- Node51 -->
<g id="node13" class="node">
<title>Node51</title>
<g id="a_node13"><a xlink:href="gui_2lib_8h.html" target="_top" xlink:title="Convenience wrapper for the gui headers. ">
<polygon fill="#ffffff" stroke="#ff0000" points="672.6966,-112.5 672.6966,-131.5 728.6966,-131.5 728.6966,-112.5 672.6966,-112.5"/>
<text text-anchor="middle" x="700.6966" y="-119.5" font-family="Helvetica,sans-Serif" font-size="10.00" fill="#000000">gui/lib.h</text>
</a>
</g>
</g>
<!-- Node0&#45;&gt;Node51 -->
<g id="edge12" class="edge">
<title>Node0&#45;&gt;Node51</title>
<path fill="none" stroke="#191970" d="M437.4951,-172.7623C486.2534,-165.4 576.4411,-150.9722 662.5453,-132.108"/>
<polygon fill="#191970" stroke="#191970" points="663.4734,-135.4874 672.4798,-129.9074 661.9595,-128.653 663.4734,-135.4874"/>
</g>
<!-- Node70 -->
<g id="node14" class="node">
<title>Node70</title>
<g id="a_node14"><a xlink:href="mutt_8h.html" target="_top" xlink:title="Many unsorted constants and some structs. ">
<polygon fill="#ffffff" stroke="#ff0000" points="747.1966,-112.5 747.1966,-131.5 796.1966,-131.5 796.1966,-112.5 747.1966,-112.5"/>
<text text-anchor="middle" x="771.6966" y="-119.5" font-family="Helvetica,sans-Serif" font-size="10.00" fill="#000000">mutt.h</text>
</a>
</g>
</g>
<!-- Node0&#45;&gt;Node70 -->
<g id="edge13" class="edge">
<title>Node0&#45;&gt;Node70</title>
<path fill="none" stroke="#191970" d="M437.3136,-174.8957C497.2438,-169.2904 622.1282,-155.9715 736.9154,-131.8861"/>
<polygon fill="#191970" stroke="#191970" points="737.8738,-135.2605 746.9244,-129.7527 736.4145,-128.4143 737.8738,-135.2605"/>
</g>
<!-- Node81 -->
<g id="node15" class="node">
<title>Node81</title>
<g id="a_node15"><a xlink:href="sasl_8h.html" target="_top" xlink:title="SASL authentication support. ">
<polygon fill="#ffffff" stroke="#000000" points="81.1966,-56.5 81.1966,-75.5 126.1966,-75.5 126.1966,-56.5 81.1966,-56.5"/>
<text text-anchor="middle" x="103.6966" y="-63.5" font-family="Helvetica,sans-Serif" font-size="10.00" fill="#000000">sasl.h</text>
</a>
</g>
</g>
<!-- Node0&#45;&gt;Node81 -->
<g id="edge16" class="edge">
<title>Node0&#45;&gt;Node81</title>
<path fill="none" stroke="#191970" d="M366.1415,-176.3357C276.0585,-171.7565 44.3682,-157.5816 21.6966,-132 1.9004,-109.6629 40.7396,-88.9636 71.4548,-76.9041"/>
<polygon fill="#191970" stroke="#191970" points="72.9241,-80.0912 81.0571,-73.3012 70.4649,-73.5373 72.9241,-80.0912"/>
</g>
<!-- Node82 -->
<g id="node16" class="node">
<title>Node82</title>
<g id="a_node16"><a xlink:href="conn_2lib_8h.html" target="_top" xlink:title="Connection Library. ">
<polygon fill="#ffffff" stroke="#ff0000" points="171.6966,-112.5 171.6966,-131.5 209.6966,-131.5 209.6966,-112.5 171.6966,-112.5"/>
<text text-anchor="middle" x="190.6966" y="-119.5" font-family="Helvetica,sans-Serif" font-size="10.00" fill="#000000">lib.h</text>
</a>
</g>
</g>
<!-- Node0&#45;&gt;Node82 -->
<g id="edge19" class="edge">
<title>Node0&#45;&gt;Node82</title>
<path fill="none" stroke="#191970" d="M366.1198,-169.2659C330.1052,-160.3165 272.8664,-145.797 223.6966,-132 222.4321,-131.6452 221.1421,-131.2778 219.8401,-130.9025"/>
<polygon fill="#191970" stroke="#191970" points="220.4342,-127.4285 209.8522,-127.951 218.4504,-134.1415 220.4342,-127.4285"/>
</g>
<!-- Node88 -->
<g id="node17" class="node">
<title>Node88</title>
<g id="a_node17"><a xlink:href="options_8h.html" target="_top" xlink:title="Handling of global boolean variables. ">
<polygon fill="#ffffff" stroke="#ff0000" points="890.6966,-56.5 890.6966,-75.5 952.6966,-75.5 952.6966,-56.5 890.6966,-56.5"/>
<text text-anchor="middle" x="921.6966" y="-63.5" font-family="Helvetica,sans-Serif" font-size="10.00" fill="#000000">options.h</text>
</a>
</g>
</g>
<!-- Node0&#45;&gt;Node88 -->
<g id="edge22" class="edge">
<title>Node0&#45;&gt;Node88</title>
<path fill="none" stroke="#191970" d="M437.451,-176.2806C541.4963,-171.036 839.132,-154.2354 876.6966,-132 894.7098,-121.3375 907.1251,-100.3048 914.2817,-84.837"/>
<polygon fill="#191970" stroke="#191970" points="917.5008,-86.2106 918.2311,-75.641 911.0689,-83.4482 917.5008,-86.2106"/>
</g>
<!-- Node70&#45;&gt;Node1 -->
<g id="edge14" class="edge">
<title>Node70&#45;&gt;Node1</title>
<path fill="none" stroke="#191970" d="M771.6966,-112.2455C771.6966,-104.9382 771.6966,-94.6944 771.6966,-85.7046"/>
<polygon fill="#191970" stroke="#191970" points="775.1967,-85.6426 771.6966,-75.6427 768.1967,-85.6427 775.1967,-85.6426"/>
</g>
<!-- Node70&#45;&gt;Node2 -->
<g id="edge15" class="edge">
<title>Node70&#45;&gt;Node2</title>
<path fill="none" stroke="#191970" d="M746.8984,-114.3631C743.8132,-113.5146 740.6913,-112.7041 737.6966,-112 660.083,-93.7526 567.8749,-79 517.0739,-71.4618"/>
<polygon fill="#191970" stroke="#191970" points="517.2849,-67.9553 506.8822,-69.9641 516.2671,-74.8809 517.2849,-67.9553"/>
</g>
<!-- Node81&#45;&gt;Node5 -->
<g id="edge17" class="edge">
<title>Node81&#45;&gt;Node5</title>
<path fill="none" stroke="#191970" d="M91.6777,-56.2455C81.4867,-47.9746 66.6604,-35.9416 54.6859,-26.2232"/>
<polygon fill="#191970" stroke="#191970" points="56.5479,-23.2268 46.5777,-19.6427 52.1367,-28.662 56.5479,-23.2268"/>
</g>
<!-- Node81&#45;&gt;Node6 -->
<g id="edge18" class="edge">
<title>Node81&#45;&gt;Node6</title>
<path fill="none" stroke="#191970" d="M126.412,-64.324C232.6661,-56.4845 681.3324,-23.3813 821.0094,-13.0757"/>
<polygon fill="#191970" stroke="#191970" points="821.5701,-16.544 831.2854,-12.3176 821.055,-9.5629 821.5701,-16.544"/>
</g>
<!-- Node82&#45;&gt;Node1 -->
<g id="edge20" class="edge">
<title>Node82&#45;&gt;Node1</title>
<path fill="none" stroke="#191970" d="M209.7165,-118.8023C222.8798,-116.6669 240.8181,-113.9102 256.6966,-112 434.8642,-90.5659 648.8217,-74.5564 734.0229,-68.5701"/>
<polygon fill="#191970" stroke="#191970" points="734.268,-72.0616 744,-67.8737 733.7805,-65.0786 734.268,-72.0616"/>
</g>
<!-- Node82&#45;&gt;Node81 -->
<g id="edge21" class="edge">
<title>Node82&#45;&gt;Node81</title>
<path fill="none" stroke="#191970" d="M175.5423,-112.2455C162.1939,-103.6534 142.538,-91.0014 127.1583,-81.1018"/>
<polygon fill="#191970" stroke="#191970" points="128.9802,-78.1121 118.6772,-75.6427 125.1915,-83.9982 128.9802,-78.1121"/>
</g>
<!-- Node88&#45;&gt;Node6 -->
<g id="edge23" class="edge">
<title>Node88&#45;&gt;Node6</title>
<path fill="none" stroke="#191970" d="M911.4196,-56.2455C902.8748,-48.1352 890.5188,-36.4075 880.3881,-26.7919"/>
<polygon fill="#191970" stroke="#191970" points="882.5184,-23.9884 872.8558,-19.6427 877.6994,-29.0655 882.5184,-23.9884"/>
</g>
</g>
</svg>
