<?xml version="1.0" encoding="UTF-8" standalone="no"?>
<!DOCTYPE svg PUBLIC "-//W3C//DTD SVG 1.1//EN"
 "http://www.w3.org/Graphics/SVG/1.1/DTD/svg11.dtd">
<!-- Generated by graphviz version 2.44.0 (0)
 -->
<!-- Title: mutt_check_rescore Pages: 1 -->
<svg width="286pt" height="66pt"
 viewBox="0.00 0.00 286.00 66.00" xmlns="http://www.w3.org/2000/svg" xmlns:xlink="http://www.w3.org/1999/xlink">
<g id="graph0" class="graph" transform="scale(1 1) rotate(0) translate(4 62)">
<title>mutt_check_rescore</title>
<polygon fill="white" stroke="transparent" points="-4,4 -4,-62 282,-62 282,4 -4,4"/>
<!-- Node1 -->
<g id="node1" class="node">
<title>Node1</title>
<g id="a_node1"><a xlink:title="Do the emails need to have their scores recalculated?">
<polygon fill="#bfbfbf" stroke="black" points="0,-19.5 0,-38.5 105,-38.5 105,-19.5 0,-19.5"/>
<text text-anchor="middle" x="52.5" y="-26.5" font-family="Helvetica" font-size="10.00">mutt_check_rescore</text>
</a>
</g>
</g>
<!-- Node2 -->
<g id="node2" class="node">
<title>Node2</title>
<g id="a_node2"><a xlink:href="menu_8c.html#a4dc047ee6f471343beb7ba148301d1b5" target="_top" xlink:title="Flag a menu to be fully redrawn.">
<polygon fill="white" stroke="red" points="141,-38.5 141,-57.5 278,-57.5 278,-38.5 141,-38.5"/>
<text text-anchor="middle" x="209.5" y="-45.5" font-family="Helvetica" font-size="10.00">mutt_menu_set_redraw_full</text>
</a>
</g>
</g>
<!-- Node1&#45;&gt;Node2 -->
<g id="edge1" class="edge">
<title>Node1&#45;&gt;Node2</title>
<path fill="none" stroke="midnightblue" d="M105.11,-35.33C113.34,-36.34 122.01,-37.4 130.68,-38.46"/>
<polygon fill="midnightblue" stroke="midnightblue" points="130.49,-41.96 140.84,-39.71 131.34,-35.02 130.49,-41.96"/>
</g>
<!-- Node5 -->
<g id="node3" class="node">
<title>Node5</title>
<g id="a_node3"><a xlink:href="score_8c.html#a73b6dd4283368222cc337dbdf21390a2" target="_top" xlink:title="Apply scoring to an email.">
<polygon fill="white" stroke="red" points="154.5,-0.5 154.5,-19.5 264.5,-19.5 264.5,-0.5 154.5,-0.5"/>
<text text-anchor="middle" x="209.5" y="-7.5" font-family="Helvetica" font-size="10.00">mutt_score_message</text>
</a>
</g>
</g>
<!-- Node1&#45;&gt;Node5 -->
<g id="edge2" class="edge">
<title>Node1&#45;&gt;Node5</title>
<path fill="none" stroke="midnightblue" d="M105.11,-22.67C117.62,-21.14 131.15,-19.48 144.16,-17.89"/>
<polygon fill="midnightblue" stroke="midnightblue" points="144.96,-21.32 154.46,-16.62 144.11,-14.37 144.96,-21.32"/>
</g>
</g>
</svg>
