<?xml version="1.0" encoding="UTF-8" standalone="no"?>
<!DOCTYPE svg PUBLIC "-//W3C//DTD SVG 1.1//EN"
 "http://www.w3.org/Graphics/SVG/1.1/DTD/svg11.dtd">
<!-- Generated by graphviz version 2.44.0 (0)
 -->
<!-- Title: mutt_parse_unscore Pages: 1 -->
<svg width="250pt" height="140pt"
 viewBox="0.00 0.00 250.00 140.00" xmlns="http://www.w3.org/2000/svg" xmlns:xlink="http://www.w3.org/1999/xlink">
<g id="graph0" class="graph" transform="scale(1 1) rotate(0) translate(4 136)">
<title>mutt_parse_unscore</title>
<polygon fill="white" stroke="transparent" points="-4,4 -4,-136 246,-136 246,4 -4,4"/>
<!-- Node1 -->
<g id="node1" class="node">
<title>Node1</title>
<g id="a_node1"><a xlink:title="Parse the &#39;unscore&#39; command &#45; Implements Command::parse()">
<polygon fill="#bfbfbf" stroke="black" points="0,-38.5 0,-57.5 106,-57.5 106,-38.5 0,-38.5"/>
<text text-anchor="middle" x="53" y="-45.5" font-family="Helvetica" font-size="10.00">mutt_parse_unscore</text>
</a>
</g>
</g>
<!-- Node2 -->
<g id="node2" class="node">
<title>Node2</title>
<g id="a_node2"><a xlink:href="init_8c.html#a0c8965a76cc79c02268a42a859968bcb" target="_top" xlink:title="Extract one token from a string.">
<polygon fill="white" stroke="red" points="142,-94.5 142,-113.5 242,-113.5 242,-94.5 142,-94.5"/>
<text text-anchor="middle" x="192" y="-101.5" font-family="Helvetica" font-size="10.00">mutt_extract_token</text>
</a>
</g>
</g>
<!-- Node1&#45;&gt;Node2 -->
<g id="edge1" class="edge">
<title>Node1&#45;&gt;Node2</title>
<path fill="none" stroke="midnightblue" d="M76.35,-57.6C94.1,-65.18 119.56,-75.94 142,-85 146.74,-86.92 151.76,-88.9 156.7,-90.84"/>
<polygon fill="midnightblue" stroke="midnightblue" points="155.43,-94.1 166.02,-94.47 157.97,-87.58 155.43,-94.1"/>
</g>
<!-- Node192 -->
<g id="node3" class="node">
<title>Node192</title>
<g id="a_node3"><a xlink:href="compile_8c.html#ae447e834babbe84bef7005199ec39962" target="_top" xlink:title="Free a Pattern.">
<polygon fill="white" stroke="red" points="145.5,-38.5 145.5,-57.5 238.5,-57.5 238.5,-38.5 145.5,-38.5"/>
<text text-anchor="middle" x="192" y="-45.5" font-family="Helvetica" font-size="10.00">mutt_pattern_free</text>
</a>
</g>
</g>
<!-- Node1&#45;&gt;Node192 -->
<g id="edge3" class="edge">
<title>Node1&#45;&gt;Node192</title>
<path fill="none" stroke="midnightblue" d="M106.18,-48C115.63,-48 125.5,-48 135.05,-48"/>
<polygon fill="midnightblue" stroke="midnightblue" points="135.23,-51.5 145.23,-48 135.23,-44.5 135.23,-51.5"/>
</g>
<!-- Node183 -->
<g id="node4" class="node">
<title>Node183</title>
<g id="a_node4"><a xlink:href="mutt_2string_8c.html#a6b6a50296dd2a31863a43379ef4a343d" target="_top" xlink:title="Compare two strings.">
<polygon fill="white" stroke="red" points="151.5,-0.5 151.5,-19.5 232.5,-19.5 232.5,-0.5 151.5,-0.5"/>
<text text-anchor="middle" x="192" y="-7.5" font-family="Helvetica" font-size="10.00">mutt_str_equal</text>
</a>
</g>
</g>
<!-- Node1&#45;&gt;Node183 -->
<g id="edge5" class="edge">
<title>Node1&#45;&gt;Node183</title>
<path fill="none" stroke="midnightblue" d="M88.57,-38.41C106.18,-33.53 127.78,-27.54 146.6,-22.32"/>
<polygon fill="midnightblue" stroke="midnightblue" points="147.74,-25.63 156.44,-19.59 145.87,-18.89 147.74,-25.63"/>
</g>
<!-- Node2&#45;&gt;Node2 -->
<g id="edge2" class="edge">
<title>Node2&#45;&gt;Node2</title>
<path fill="none" stroke="midnightblue" d="M170.73,-113.76C160.38,-122.57 167.47,-132 192,-132 207.71,-132 216.27,-128.13 217.67,-123.03"/>
<polygon fill="midnightblue" stroke="midnightblue" points="220.72,-121.29 213.27,-113.76 214.39,-124.29 220.72,-121.29"/>
</g>
<!-- Node192&#45;&gt;Node192 -->
<g id="edge4" class="edge">
<title>Node192&#45;&gt;Node192</title>
<path fill="none" stroke="midnightblue" d="M170.73,-57.76C160.38,-66.57 167.47,-76 192,-76 207.71,-76 216.27,-72.13 217.67,-67.03"/>
<polygon fill="midnightblue" stroke="midnightblue" points="220.72,-65.29 213.27,-57.76 214.39,-68.29 220.72,-65.29"/>
</g>
</g>
</svg>
