<?xml version="1.0" encoding="UTF-8" standalone="no"?>
<!DOCTYPE svg PUBLIC "-//W3C//DTD SVG 1.1//EN"
 "http://www.w3.org/Graphics/SVG/1.1/DTD/svg11.dtd">
<!-- Generated by graphviz version 2.44.0 (0)
 -->
<!-- Title: cmd_parse_search Pages: 1 -->
<svg width="243pt" height="104pt"
 viewBox="0.00 0.00 243.00 104.00" xmlns="http://www.w3.org/2000/svg" xmlns:xlink="http://www.w3.org/1999/xlink">
<g id="graph0" class="graph" transform="scale(1 1) rotate(0) translate(4 100)">
<title>cmd_parse_search</title>
<polygon fill="white" stroke="transparent" points="-4,4 -4,-100 239,-100 239,4 -4,4"/>
<!-- Node1 -->
<g id="node1" class="node">
<title>Node1</title>
<g id="a_node1"><a xlink:title="store SEARCH response for later use">
<polygon fill="#bfbfbf" stroke="black" points="0,-38.5 0,-57.5 100,-57.5 100,-38.5 0,-38.5"/>
<text text-anchor="middle" x="50" y="-45.5" font-family="Helvetica" font-size="10.00">cmd_parse_search</text>
</a>
</g>
</g>
<!-- Node2 -->
<g id="node2" class="node">
<title>Node2</title>
<g id="a_node2"><a xlink:href="imap_2private_8h.html#a58b60495085285d725885a1efef98074" target="_top" xlink:title="Find where the next IMAP word begins.">
<polygon fill="white" stroke="black" points="142,-76.5 142,-95.5 229,-95.5 229,-76.5 142,-76.5"/>
<text text-anchor="middle" x="185.5" y="-83.5" font-family="Helvetica" font-size="10.00">imap_next_word</text>
</a>
</g>
</g>
<!-- Node1&#45;&gt;Node2 -->
<g id="edge1" class="edge">
<title>Node1&#45;&gt;Node2</title>
<path fill="none" stroke="midnightblue" d="M84.69,-57.59C101.76,-62.45 122.7,-68.41 140.98,-73.61"/>
<polygon fill="midnightblue" stroke="midnightblue" points="140.25,-77.04 150.82,-76.41 142.16,-70.31 140.25,-77.04"/>
</g>
<!-- Node3 -->
<g id="node3" class="node">
<title>Node3</title>
<g id="a_node3"><a xlink:href="hash_8c.html#ad427b26ed0de6ca0d3470ce6a2229b6a" target="_top" xlink:title="Find the HashElem data in a Hash Table element using a key.">
<polygon fill="white" stroke="red" points="136,-38.5 136,-57.5 235,-57.5 235,-38.5 136,-38.5"/>
<text text-anchor="middle" x="185.5" y="-45.5" font-family="Helvetica" font-size="10.00">mutt_hash_int_find</text>
</a>
</g>
</g>
<!-- Node1&#45;&gt;Node3 -->
<g id="edge2" class="edge">
<title>Node1&#45;&gt;Node3</title>
<path fill="none" stroke="midnightblue" d="M100.33,-48C108.57,-48 117.19,-48 125.63,-48"/>
<polygon fill="midnightblue" stroke="midnightblue" points="125.82,-51.5 135.82,-48 125.82,-44.5 125.82,-51.5"/>
</g>
<!-- Node6 -->
<g id="node4" class="node">
<title>Node6</title>
<g id="a_node4"><a xlink:href="mutt_2string_8c.html#a51fd18afc9cc0ca92840d8653180538c" target="_top" xlink:title="Convert ASCII string to an unsigned integer.">
<polygon fill="white" stroke="red" points="146,-0.5 146,-19.5 225,-19.5 225,-0.5 146,-0.5"/>
<text text-anchor="middle" x="185.5" y="-7.5" font-family="Helvetica" font-size="10.00">mutt_str_atoui</text>
</a>
</g>
</g>
<!-- Node1&#45;&gt;Node6 -->
<g id="edge3" class="edge">
<title>Node1&#45;&gt;Node6</title>
<path fill="none" stroke="midnightblue" d="M84.69,-38.41C101.76,-33.55 122.7,-27.59 140.98,-22.39"/>
<polygon fill="midnightblue" stroke="midnightblue" points="142.16,-25.69 150.82,-19.59 140.25,-18.96 142.16,-25.69"/>
</g>
</g>
</svg>
