<?xml version="1.0" encoding="UTF-8" standalone="no"?>
<!DOCTYPE svg PUBLIC "-//W3C//DTD SVG 1.1//EN"
 "http://www.w3.org/Graphics/SVG/1.1/DTD/svg11.dtd">
<!-- Generated by graphviz version 2.44.0 (0)
 -->
<!-- Title: check_pattern Pages: 1 -->
<svg width="218pt" height="28pt"
 viewBox="0.00 0.00 218.00 28.00" xmlns="http://www.w3.org/2000/svg" xmlns:xlink="http://www.w3.org/1999/xlink">
<g id="graph0" class="graph" transform="scale(1 1) rotate(0) translate(4 24)">
<title>check_pattern</title>
<polygon fill="white" stroke="transparent" points="-4,4 -4,-24 214,-24 214,4 -4,4"/>
<!-- Node1 -->
<g id="node1" class="node">
<title>Node1</title>
<g id="a_node1"><a xlink:title="Check whether a pattern can be searched server&#45;side.">
<polygon fill="#bfbfbf" stroke="black" points="0,-0.5 0,-19.5 78,-19.5 78,-0.5 0,-0.5"/>
<text text-anchor="middle" x="39" y="-7.5" font-family="Helvetica" font-size="10.00">check_pattern</text>
</a>
</g>
</g>
<!-- Node2 -->
<g id="node2" class="node">
<title>Node2</title>
<g id="a_node2"><a xlink:href="search_8c.html#a16ae16329d5991367f1cb78cc112ac5e" target="_top" xlink:title="Check how many patterns in a list can be searched server&#45;side.">
<polygon fill="white" stroke="black" points="114,-0.5 114,-19.5 210,-19.5 210,-0.5 114,-0.5"/>
<text text-anchor="middle" x="162" y="-7.5" font-family="Helvetica" font-size="10.00">check_pattern_list</text>
</a>
</g>
</g>
<!-- Node1&#45;&gt;Node2 -->
<g id="edge1" class="edge">
<title>Node1&#45;&gt;Node2</title>
<path fill="none" stroke="midnightblue" d="M78.29,-3.67C86.35,-3.35 95.02,-3.21 103.61,-3.26"/>
<polygon fill="midnightblue" stroke="midnightblue" points="103.57,-6.76 113.61,-3.39 103.66,0.24 103.57,-6.76"/>
</g>
<!-- Node2&#45;&gt;Node1 -->
<g id="edge2" class="edge">
<title>Node2&#45;&gt;Node1</title>
<path fill="none" stroke="midnightblue" d="M113.61,-16.61C105.38,-16.79 96.8,-16.8 88.54,-16.63"/>
<polygon fill="midnightblue" stroke="midnightblue" points="88.38,-13.13 78.29,-16.33 88.18,-20.12 88.38,-13.13"/>
</g>
</g>
</svg>
