<?xml version="1.0" encoding="UTF-8" standalone="no"?>
<!DOCTYPE svg PUBLIC "-//W3C//DTD SVG 1.1//EN"
 "http://www.w3.org/Graphics/SVG/1.1/DTD/svg11.dtd">
<!-- Generated by graphviz version 2.40.1 (20161225.0304)
 -->
<!-- Title: check_pattern Pages: 1 -->
<svg width="538pt" height="79pt"
 viewBox="0.00 0.00 538.00 78.71" xmlns="http://www.w3.org/2000/svg" xmlns:xlink="http://www.w3.org/1999/xlink">
<g id="graph0" class="graph" transform="scale(1 1) rotate(0) translate(4 74.7141)">
<title>check_pattern</title>
<polygon fill="#ffffff" stroke="transparent" points="-4,4 -4,-74.7141 534,-74.7141 534,4 -4,4"/>
<!-- Node1154 -->
<g id="node1" class="node">
<title>Node1154</title>
<polygon fill="#bfbfbf" stroke="#000000" points="0,-32.2141 0,-51.2141 86,-51.2141 86,-32.2141 0,-32.2141"/>
<text text-anchor="middle" x="43" y="-39.2141" font-family="Helvetica,sans-Serif" font-size="10.00" fill="#000000">check_pattern</text>
</g>
<!-- Node1155 -->
<g id="node2" class="node">
<title>Node1155</title>
<g id="a_node2"><a xlink:href="search_8c.html#a16ae16329d5991367f1cb78cc112ac5e" target="_top" xlink:title="Check how many patterns in a list can be searched server&#45;side. ">
<polygon fill="#ffffff" stroke="#ff0000" points="122,-51.2141 122,-70.2141 228,-70.2141 228,-51.2141 122,-51.2141"/>
<text text-anchor="middle" x="175" y="-58.2141" font-family="Helvetica,sans-Serif" font-size="10.00" fill="#000000">check_pattern_list</text>
</a>
</g>
</g>
<!-- Node1154&#45;&gt;Node1155 -->
<g id="edge1" class="edge">
<title>Node1154&#45;&gt;Node1155</title>
<path fill="none" stroke="#191970" d="M96.3611,-42.7561C113.8911,-44.9674 132.657,-48.0129 147.459,-51.1443"/>
<polygon fill="#191970" stroke="#191970" points="96.5638,-39.2558 86.2217,-41.5562 95.7411,-46.2073 96.5638,-39.2558"/>
</g>
<!-- Node1156 -->
<g id="node3" class="node">
<title>Node1156</title>
<g id="a_node3"><a xlink:href="search_8c.html#a258f8b8651925ca032427335ce3974ab" target="_top" xlink:title="Compile a search command for a pattern&#39;s children. ">
<polygon fill="#ffffff" stroke="#000000" points="264,-13.2141 264,-32.2141 401,-32.2141 401,-13.2141 264,-13.2141"/>
<text text-anchor="middle" x="332.5" y="-20.2141" font-family="Helvetica,sans-Serif" font-size="10.00" fill="#000000">compile_search_children</text>
</a>
</g>
</g>
<!-- Node1154&#45;&gt;Node1156 -->
<g id="edge6" class="edge">
<title>Node1154&#45;&gt;Node1156</title>
<path fill="none" stroke="#191970" d="M96.0432,-38.2329C143.2328,-35.1358 212.5314,-30.5877 263.9198,-27.2151"/>
<polygon fill="#191970" stroke="#191970" points="95.7778,-34.7427 86.0285,-38.8902 96.2363,-41.7277 95.7778,-34.7427"/>
</g>
<!-- Node1157 -->
<g id="node4" class="node">
<title>Node1157</title>
<g id="a_node4"><a xlink:href="search_8c.html#a0a138692a3b3fd427e04ac34e4b1ef83" target="_top" xlink:title="Convert NeoMutt pattern to IMAP search. ">
<polygon fill="#ffffff" stroke="#ff0000" points="437,-13.2141 437,-32.2141 530,-32.2141 530,-13.2141 437,-13.2141"/>
<text text-anchor="middle" x="483.5" y="-20.2141" font-family="Helvetica,sans-Serif" font-size="10.00" fill="#000000">compile_search</text>
</a>
</g>
</g>
<!-- Node1154&#45;&gt;Node1157 -->
<g id="edge7" class="edge">
<title>Node1154&#45;&gt;Node1157</title>
<path fill="none" stroke="#191970" d="M91.266,-29.8705C160.057,-14.5194 290.2443,8.8748 401,-3.7141 417.3563,-5.5733 435.1918,-9.4424 450.0816,-13.2069"/>
<polygon fill="#191970" stroke="#191970" points="90.144,-26.5362 81.1682,-32.1651 91.6952,-33.3622 90.144,-26.5362"/>
</g>
<!-- Node1155&#45;&gt;Node1154 -->
<g id="edge2" class="edge">
<title>Node1155&#45;&gt;Node1154</title>
<path fill="none" stroke="#191970" d="M111.7717,-58.3578C97.195,-56.3154 82.4376,-53.8072 70.3505,-51.2437"/>
<polygon fill="#191970" stroke="#191970" points="111.4251,-61.8425 121.7995,-59.6924 112.3486,-54.9036 111.4251,-61.8425"/>
</g>
<!-- Node1155&#45;&gt;Node1156 -->
<g id="edge3" class="edge">
<title>Node1155&#45;&gt;Node1156</title>
<path fill="none" stroke="#191970" d="M224.6041,-48.7462C246.6753,-43.421 272.3027,-37.2379 293.0419,-32.2342"/>
<polygon fill="#191970" stroke="#191970" points="223.6441,-45.3773 214.7439,-51.1251 225.2859,-52.182 223.6441,-45.3773"/>
</g>
<!-- Node1156&#45;&gt;Node1157 -->
<g id="edge4" class="edge">
<title>Node1156&#45;&gt;Node1157</title>
<path fill="none" stroke="#191970" d="M411.5048,-15.9706C420.1358,-16.0025 428.7055,-16.1522 436.7616,-16.4198"/>
<polygon fill="#191970" stroke="#191970" points="411.366,-12.4707 401.3719,-15.9873 411.3776,-19.4707 411.366,-12.4707"/>
</g>
<!-- Node1157&#45;&gt;Node1156 -->
<g id="edge5" class="edge">
<title>Node1157&#45;&gt;Node1156</title>
<path fill="none" stroke="#191970" d="M426.5481,-29.2797C418.3275,-29.4463 409.7943,-29.5 401.3719,-29.441"/>
<polygon fill="#191970" stroke="#191970" points="426.8581,-32.7728 436.7616,-29.0085 426.6722,-25.7753 426.8581,-32.7728"/>
</g>
</g>
</svg>
