<?xml version="1.0" encoding="UTF-8" standalone="no"?>
<!DOCTYPE svg PUBLIC "-//W3C//DTD SVG 1.1//EN"
 "http://www.w3.org/Graphics/SVG/1.1/DTD/svg11.dtd">
<!-- Generated by graphviz version 2.40.1 (20161225.0304)
 -->
<!-- Title: edit_envelope Pages: 1 -->
<svg width="388pt" height="256pt"
 viewBox="0.00 0.00 388.00 256.00" xmlns="http://www.w3.org/2000/svg" xmlns:xlink="http://www.w3.org/1999/xlink">
<g id="graph0" class="graph" transform="scale(1 1) rotate(0) translate(4 252)">
<title>edit_envelope</title>
<polygon fill="#ffffff" stroke="transparent" points="-4,4 -4,-252 384,-252 384,4 -4,4"/>
<!-- Node2145 -->
<g id="node1" class="node">
<title>Node2145</title>
<polygon fill="#bfbfbf" stroke="#000000" points="0,-114.5 0,-133.5 86,-133.5 86,-114.5 0,-114.5"/>
<text text-anchor="middle" x="43" y="-121.5" font-family="Helvetica,sans-Serif" font-size="10.00" fill="#000000">edit_envelope</text>
</g>
<!-- Node2146 -->
<g id="node2" class="node">
<title>Node2146</title>
<g id="a_node2"><a xlink:href="mutt_2string_8c.html#ad20e00309de897a1e882fc7400335b83" target="_top" xlink:title="Copy a string into a buffer (guaranteeing NUL&#45;termination) ">
<polygon fill="#ffffff" stroke="#000000" points="149.5,-228.5 149.5,-247.5 235.5,-247.5 235.5,-228.5 149.5,-228.5"/>
<text text-anchor="middle" x="192.5" y="-235.5" font-family="Helvetica,sans-Serif" font-size="10.00" fill="#000000">mutt_str_copy</text>
</a>
</g>
</g>
<!-- Node2145&#45;&gt;Node2146 -->
<g id="edge1" class="edge">
<title>Node2145&#45;&gt;Node2146</title>
<path fill="none" stroke="#191970" d="M48.9376,-133.6175C60.6796,-151.8706 88.6412,-191.7003 122,-214 128.4997,-218.3449 135.8623,-221.9763 143.3175,-224.9888"/>
<polygon fill="#191970" stroke="#191970" points="142.1592,-228.2921 152.7523,-228.4808 144.5889,-221.7273 142.1592,-228.2921"/>
</g>
<!-- Node2147 -->
<g id="node3" class="node">
<title>Node2147</title>
<g id="a_node3"><a xlink:href="mutt_2string_8c.html#a4c2560f787bd1226b977992c16860c98" target="_top" xlink:title="Copy a string, safely. ">
<polygon fill="#ffffff" stroke="#000000" points="299,-95.5 299,-114.5 380,-114.5 380,-95.5 299,-95.5"/>
<text text-anchor="middle" x="339.5" y="-102.5" font-family="Helvetica,sans-Serif" font-size="10.00" fill="#000000">mutt_str_dup</text>
</a>
</g>
</g>
<!-- Node2145&#45;&gt;Node2147 -->
<g id="edge2" class="edge">
<title>Node2145&#45;&gt;Node2147</title>
<path fill="none" stroke="#191970" d="M52.0946,-133.6135C65.7437,-147.2628 93.0318,-171.6404 122,-181 181.6314,-200.2668 205.0643,-204.8866 263,-181 291.2802,-169.3403 314.6244,-141.6039 327.8128,-123.0629"/>
<polygon fill="#191970" stroke="#191970" points="330.859,-124.8081 333.6026,-114.5747 325.0762,-120.8637 330.859,-124.8081"/>
</g>
<!-- Node2148 -->
<g id="node4" class="node">
<title>Node2148</title>
<g id="a_node4"><a xlink:href="send_8c.html#a3a50e112e7c0ddd1270a550e63fdd80f" target="_top" xlink:title="Edit an email address. ">
<polygon fill="#ffffff" stroke="#ff0000" points="139,-152.5 139,-171.5 246,-171.5 246,-152.5 139,-152.5"/>
<text text-anchor="middle" x="192.5" y="-159.5" font-family="Helvetica,sans-Serif" font-size="10.00" fill="#000000">mutt_edit_address</text>
</a>
</g>
</g>
<!-- Node2145&#45;&gt;Node2148 -->
<g id="edge3" class="edge">
<title>Node2145&#45;&gt;Node2148</title>
<path fill="none" stroke="#191970" d="M80.7252,-133.589C100.2756,-138.5583 124.3466,-144.6767 145.1374,-149.9613"/>
<polygon fill="#191970" stroke="#191970" points="144.4921,-153.4085 155.0461,-152.4799 146.2165,-146.6243 144.4921,-153.4085"/>
</g>
<!-- Node2163 -->
<g id="node5" class="node">
<title>Node2163</title>
<g id="a_node5"><a xlink:href="mutt_2string_8c.html#aebd2a8a3f8a30062c31fa1474d87cc41" target="_top" xlink:title="Check whether a string starts with a prefix, ignoring case. ">
<polygon fill="#ffffff" stroke="#ff0000" points="135,-114.5 135,-133.5 250,-133.5 250,-114.5 135,-114.5"/>
<text text-anchor="middle" x="192.5" y="-121.5" font-family="Helvetica,sans-Serif" font-size="10.00" fill="#000000">mutt_istr_startswith</text>
</a>
</g>
</g>
<!-- Node2145&#45;&gt;Node2163 -->
<g id="edge4" class="edge">
<title>Node2145&#45;&gt;Node2163</title>
<path fill="none" stroke="#191970" d="M86.2416,-124C98.2177,-124 111.5145,-124 124.5346,-124"/>
<polygon fill="#191970" stroke="#191970" points="124.8866,-127.5001 134.8865,-124 124.8865,-120.5001 124.8866,-127.5001"/>
</g>
<!-- Node2186 -->
<g id="node6" class="node">
<title>Node2186</title>
<g id="a_node6"><a xlink:href="mutt_2string_8c.html#aa5fb929533630a48c6d2e893267ce208" target="_top" xlink:title="Skip over whitespace as defined by RFC5322. ">
<polygon fill="#ffffff" stroke="#ff0000" points="122,-76.5 122,-95.5 263,-95.5 263,-76.5 122,-76.5"/>
<text text-anchor="middle" x="192.5" y="-83.5" font-family="Helvetica,sans-Serif" font-size="10.00" fill="#000000">mutt_str_skip_email_wsp</text>
</a>
</g>
</g>
<!-- Node2145&#45;&gt;Node2186 -->
<g id="edge5" class="edge">
<title>Node2145&#45;&gt;Node2186</title>
<path fill="none" stroke="#191970" d="M80.7252,-114.411C100.2756,-109.4417 124.3466,-103.3233 145.1374,-98.0387"/>
<polygon fill="#191970" stroke="#191970" points="146.2165,-101.3757 155.0461,-95.5201 144.4921,-94.5915 146.2165,-101.3757"/>
</g>
<!-- Node2213 -->
<g id="node7" class="node">
<title>Node2213</title>
<g id="a_node7"><a xlink:href="init_8c.html#ab02047769214ff014b9a8a1782babadc" target="_top" xlink:title="Ask the user a quad&#45;question. ">
<polygon fill="#ffffff" stroke="#ff0000" points="140.5,-38.5 140.5,-57.5 244.5,-57.5 244.5,-38.5 140.5,-38.5"/>
<text text-anchor="middle" x="192.5" y="-45.5" font-family="Helvetica,sans-Serif" font-size="10.00" fill="#000000">query_quadoption</text>
</a>
</g>
</g>
<!-- Node2145&#45;&gt;Node2213 -->
<g id="edge6" class="edge">
<title>Node2145&#45;&gt;Node2213</title>
<path fill="none" stroke="#191970" d="M53.6952,-114.3113C68.171,-101.6837 95.2744,-79.7172 122,-67 126.9363,-64.6511 132.2101,-62.5544 137.5676,-60.6916"/>
<polygon fill="#191970" stroke="#191970" points="138.7936,-63.9741 147.2468,-57.5872 136.6557,-57.3085 138.7936,-63.9741"/>
</g>
<!-- Node2157 -->
<g id="node8" class="node">
<title>Node2157</title>
<g id="a_node8"><a xlink:href="mutt_2string_8c.html#ad5b66f8059a202f7bfa5fc4fa3047c67" target="_top" xlink:title="Replace one string with another. ">
<polygon fill="#ffffff" stroke="#000000" points="143,-.5 143,-19.5 242,-19.5 242,-.5 143,-.5"/>
<text text-anchor="middle" x="192.5" y="-7.5" font-family="Helvetica,sans-Serif" font-size="10.00" fill="#000000">mutt_str_replace</text>
</a>
</g>
</g>
<!-- Node2145&#45;&gt;Node2157 -->
<g id="edge7" class="edge">
<title>Node2145&#45;&gt;Node2157</title>
<path fill="none" stroke="#191970" d="M48.321,-114.2346C59.3824,-94.8804 86.7882,-51.5782 122,-29 125.5414,-26.7292 129.3495,-24.7278 133.2955,-22.9642"/>
<polygon fill="#191970" stroke="#191970" points="134.6694,-26.1849 142.6928,-19.2657 132.1057,-19.6712 134.6694,-26.1849"/>
</g>
<!-- Node2157&#45;&gt;Node2147 -->
<g id="edge8" class="edge">
<title>Node2157&#45;&gt;Node2147</title>
<path fill="none" stroke="#191970" d="M241.2366,-19.5586C248.79,-22.0405 256.2999,-25.1399 263,-29 288.9698,-43.962 312.3762,-69.9329 326.2689,-87.292"/>
<polygon fill="#191970" stroke="#191970" points="323.7313,-89.7307 332.6299,-95.4809 329.2594,-85.4364 323.7313,-89.7307"/>
</g>
</g>
</svg>
