<?xml version="1.0" encoding="UTF-8" standalone="no"?>
<!DOCTYPE svg PUBLIC "-//W3C//DTD SVG 1.1//EN"
 "http://www.w3.org/Graphics/SVG/1.1/DTD/svg11.dtd">
<!-- Generated by graphviz version 7.1.0 (0)
 -->
<!-- Title: mutt_make_misc_reply_headers Pages: 1 -->
<svg width="287pt" height="76pt"
 viewBox="0.00 0.00 287.00 75.50" xmlns="http://www.w3.org/2000/svg" xmlns:xlink="http://www.w3.org/1999/xlink">
<g id="graph0" class="graph" transform="scale(1 1) rotate(0) translate(4 71.5)">
<title>mutt_make_misc_reply_headers</title>
<!-- Node1 -->
<g id="node1" class="node">
<title>Node1</title>
<g id="a_node1"><a xlink:title="Set subject for a reply.">
<polygon fill="#999999" stroke="#666666" points="279,-45.5 157,-45.5 157,-15.5 279,-15.5 279,-45.5"/>
<text text-anchor="start" x="165" y="-33.5" font-family="Helvetica,sans-Serif" font-size="10.00">mutt_make_misc_reply</text>
<text text-anchor="middle" x="218" y="-22.5" font-family="Helvetica,sans-Serif" font-size="10.00">_headers</text>
</a>
</g>
</g>
<!-- Node2 -->
<g id="node2" class="node">
<title>Node2</title>
<g id="a_node2"><a xlink:href="recvcmd_8c.html#add111d22e3be56af4dbf845fd0e52aca" target="_top" xlink:title="Create the envelope defaults for a reply.">
<polygon fill="#fff0f0" stroke="red" points="121,-67.5 0,-67.5 0,-37.5 121,-37.5 121,-67.5"/>
<text text-anchor="start" x="8" y="-55.5" font-family="Helvetica,sans-Serif" font-size="10.00">attach_reply_envelope</text>
<text text-anchor="middle" x="60.5" y="-44.5" font-family="Helvetica,sans-Serif" font-size="10.00">_defaults</text>
</a>
</g>
</g>
<!-- Node1&#45;&gt;Node2 -->
<g id="edge1" class="edge">
<title>Node1&#45;&gt;Node2</title>
<path fill="none" stroke="#63b8ff" d="M145.58,-40.6C137.51,-41.75 129.36,-42.9 121.46,-44.02"/>
<polygon fill="#63b8ff" stroke="#63b8ff" points="145.97,-44.08 155.38,-39.22 144.99,-37.15 145.97,-44.08"/>
</g>
<!-- Node7 -->
<g id="node3" class="node">
<title>Node7</title>
<g id="a_node3"><a xlink:href="send_8c.html#a3816a6e89fb33a2c6d3d27e90fa024d0" target="_top" xlink:title="Fill in some defaults for a new email.">
<polygon fill="#fff0f0" stroke="red" points="111.5,-19 9.5,-19 9.5,0 111.5,0 111.5,-19"/>
<text text-anchor="middle" x="60.5" y="-7" font-family="Helvetica,sans-Serif" font-size="10.00">envelope_defaults</text>
</a>
</g>
</g>
<!-- Node1&#45;&gt;Node7 -->
<g id="edge2" class="edge">
<title>Node1&#45;&gt;Node7</title>
<path fill="none" stroke="#63b8ff" d="M145.59,-20.86C134.21,-19.32 122.64,-17.76 111.88,-16.3"/>
<polygon fill="#63b8ff" stroke="#63b8ff" points="145,-24.31 155.38,-22.18 145.94,-17.37 145,-24.31"/>
</g>
</g>
</svg>
