<?xml version="1.0" encoding="UTF-8" standalone="no"?>
<!DOCTYPE svg PUBLIC "-//W3C//DTD SVG 1.1//EN"
 "http://www.w3.org/Graphics/SVG/1.1/DTD/svg11.dtd">
<!-- Generated by graphviz version 12.2.1 (20241206.2353)
 -->
<!-- Title: send/lib.h Pages: 1 -->
<svg width="2371pt" height="147pt"
 viewBox="0.00 0.00 2371.38 146.75" xmlns="http://www.w3.org/2000/svg" xmlns:xlink="http://www.w3.org/1999/xlink">
<g id="graph0" class="graph" transform="scale(1 1) rotate(0) translate(4 142.75)">
<title>send/lib.h</title>
<!-- Node1 -->
<g id="Node000001" class="node">
<title>Node1</title>
<g id="a_Node000001"><a xlink:title="Convenience wrapper for the send headers.">
<polygon fill="#999999" stroke="#666666" points="1244,-138.75 1182.25,-138.75 1182.25,-116.5 1244,-116.5 1244,-138.75"/>
<text text-anchor="middle" x="1213.12" y="-125.25" font-family="Helvetica,sans-Serif" font-size="10.00">send/lib.h</text>
</a>
</g>
</g>
<!-- Node2 -->
<g id="Node000002" class="node">
<title>Node2</title>
<g id="a_Node000002"><a xlink:href="alias_8c.html" target="_top" xlink:title="Representation of a single alias to an email address.">
<polygon fill="white" stroke="#666666" points="66.25,-80.5 0,-80.5 0,-58.25 66.25,-58.25 66.25,-80.5"/>
<text text-anchor="middle" x="33.12" y="-67" font-family="Helvetica,sans-Serif" font-size="10.00">alias/alias.c</text>
</a>
</g>
</g>
<!-- Node1&#45;&gt;Node2 -->
<g id="edge1_Node000001_Node000002" class="edge">
<title>Node1&#45;&gt;Node2</title>
<g id="a_edge1_Node000001_Node000002"><a xlink:title=" ">
<path fill="none" stroke="#63b8ff" d="M1170.66,-126.02C991.04,-123.28 292.88,-110.86 75.12,-80.5 72.3,-80.11 69.39,-79.61 66.48,-79.04"/>
<polygon fill="#63b8ff" stroke="#63b8ff" points="1170.41,-129.51 1180.46,-126.17 1170.51,-122.52 1170.41,-129.51"/>
</a>
</g>
</g>
<!-- Node3 -->
<g id="Node000003" class="node">
<title>Node3</title>
<g id="a_Node000003"><a xlink:href="dlg__alias_8c.html" target="_top" xlink:title="Address book.">
<polygon fill="white" stroke="#666666" points="169.62,-80.5 84.62,-80.5 84.62,-58.25 169.62,-58.25 169.62,-80.5"/>
<text text-anchor="middle" x="127.12" y="-67" font-family="Helvetica,sans-Serif" font-size="10.00">alias/dlg_alias.c</text>
</a>
</g>
</g>
<!-- Node1&#45;&gt;Node3 -->
<g id="edge2_Node000001_Node000003" class="edge">
<title>Node1&#45;&gt;Node3</title>
<g id="a_edge2_Node000001_Node000003"><a xlink:title=" ">
<path fill="none" stroke="#63b8ff" d="M1171.01,-126.97C1030.08,-127.65 562.25,-126.09 179.12,-80.5 176.11,-80.14 173.01,-79.71 169.89,-79.22"/>
<polygon fill="#63b8ff" stroke="#63b8ff" points="1170.62,-130.47 1180.6,-126.92 1170.58,-123.47 1170.62,-130.47"/>
</a>
</g>
</g>
<!-- Node4 -->
<g id="Node000004" class="node">
<title>Node4</title>
<g id="a_Node000004"><a xlink:href="dlg__query_8c.html" target="_top" xlink:title="Routines for querying an external address book.">
<polygon fill="white" stroke="#666666" points="280.38,-80.5 187.88,-80.5 187.88,-58.25 280.38,-58.25 280.38,-80.5"/>
<text text-anchor="middle" x="234.12" y="-67" font-family="Helvetica,sans-Serif" font-size="10.00">alias/dlg_query.c</text>
</a>
</g>
</g>
<!-- Node1&#45;&gt;Node4 -->
<g id="edge3_Node000001_Node000004" class="edge">
<title>Node1&#45;&gt;Node4</title>
<g id="a_edge3_Node000001_Node000004"><a xlink:title=" ">
<path fill="none" stroke="#63b8ff" d="M1170.64,-126.26C1039.65,-124.75 630.61,-117.21 294.12,-80.5 289.71,-80.02 285.14,-79.42 280.56,-78.76"/>
<polygon fill="#63b8ff" stroke="#63b8ff" points="1170.53,-129.76 1180.57,-126.37 1170.61,-122.76 1170.53,-129.76"/>
</a>
</g>
</g>
<!-- Node5 -->
<g id="Node000005" class="node">
<title>Node5</title>
<g id="a_Node000005"><a xlink:href="attach_2functions_8c.html" target="_top" xlink:title="Attachment functions.">
<polygon fill="white" stroke="#666666" points="1335.38,-22.25 1236.88,-22.25 1236.88,0 1335.38,0 1335.38,-22.25"/>
<text text-anchor="middle" x="1286.12" y="-8.75" font-family="Helvetica,sans-Serif" font-size="10.00">attach/functions.c</text>
</a>
</g>
</g>
<!-- Node1&#45;&gt;Node5 -->
<g id="edge4_Node000001_Node000005" class="edge">
<title>Node1&#45;&gt;Node5</title>
<g id="a_edge4_Node000001_Node000005"><a xlink:title=" ">
<path fill="none" stroke="#63b8ff" d="M1170.61,-126.02C997.89,-123.36 356.48,-111.42 327.12,-80.5 320.32,-73.33 320.3,-65.41 327.12,-58.25 358.75,-25.07 1044.27,-14.85 1236.44,-12.64"/>
<polygon fill="#63b8ff" stroke="#63b8ff" points="1170.43,-129.52 1180.48,-126.17 1170.53,-122.52 1170.43,-129.52"/>
</a>
</g>
</g>
<!-- Node6 -->
<g id="Node000006" class="node">
<title>Node6</title>
<g id="a_Node000006"><a xlink:href="mutt__attach_8c.html" target="_top" xlink:title="Handling of email attachments.">
<polygon fill="white" stroke="#666666" points="447.75,-80.5 336.5,-80.5 336.5,-58.25 447.75,-58.25 447.75,-80.5"/>
<text text-anchor="middle" x="392.12" y="-67" font-family="Helvetica,sans-Serif" font-size="10.00">attach/mutt_attach.c</text>
</a>
</g>
</g>
<!-- Node1&#45;&gt;Node6 -->
<g id="edge5_Node000001_Node000006" class="edge">
<title>Node1&#45;&gt;Node6</title>
<g id="a_edge5_Node000001_Node000006"><a xlink:title=" ">
<path fill="none" stroke="#63b8ff" d="M1170.66,-125.43C1055.54,-121.88 727.96,-109.79 457.12,-80.5 454.17,-80.18 451.15,-79.82 448.1,-79.43"/>
<polygon fill="#63b8ff" stroke="#63b8ff" points="1170.46,-128.92 1180.56,-125.73 1170.67,-121.93 1170.46,-128.92"/>
</a>
</g>
</g>
<!-- Node7 -->
<g id="Node000007" class="node">
<title>Node7</title>
<g id="a_Node000007"><a xlink:href="recvattach_8c.html" target="_top" xlink:title="Attachment code.">
<polygon fill="white" stroke="#666666" points="570,-80.5 466.25,-80.5 466.25,-58.25 570,-58.25 570,-80.5"/>
<text text-anchor="middle" x="518.12" y="-67" font-family="Helvetica,sans-Serif" font-size="10.00">attach/recvattach.c</text>
</a>
</g>
</g>
<!-- Node1&#45;&gt;Node7 -->
<g id="edge6_Node000001_Node000007" class="edge">
<title>Node1&#45;&gt;Node7</title>
<g id="a_edge6_Node000001_Node000007"><a xlink:title=" ">
<path fill="none" stroke="#63b8ff" d="M1170.68,-124.89C1068.53,-120.41 801.02,-106.93 579.12,-80.5 576.25,-80.16 573.3,-79.77 570.32,-79.36"/>
<polygon fill="#63b8ff" stroke="#63b8ff" points="1170.37,-128.38 1180.51,-125.31 1170.67,-121.38 1170.37,-128.38"/>
</a>
</g>
</g>
<!-- Node8 -->
<g id="Node000008" class="node">
<title>Node8</title>
<g id="a_Node000008"><a xlink:href="autocrypt_8c.html" target="_top" xlink:title="Autocrypt end&#45;to&#45;end encryption.">
<polygon fill="white" stroke="#666666" points="705.75,-80.5 588.5,-80.5 588.5,-58.25 705.75,-58.25 705.75,-80.5"/>
<text text-anchor="middle" x="647.12" y="-67" font-family="Helvetica,sans-Serif" font-size="10.00">autocrypt/autocrypt.c</text>
</a>
</g>
</g>
<!-- Node1&#45;&gt;Node8 -->
<g id="edge7_Node000001_Node000008" class="edge">
<title>Node1&#45;&gt;Node8</title>
<g id="a_edge7_Node000001_Node000008"><a xlink:title=" ">
<path fill="none" stroke="#63b8ff" d="M1170.51,-123.48C1084.33,-116.94 883.29,-100.79 715.12,-80.5 712.16,-80.14 709.13,-79.76 706.07,-79.36"/>
<polygon fill="#63b8ff" stroke="#63b8ff" points="1170.14,-126.96 1180.38,-124.22 1170.67,-119.98 1170.14,-126.96"/>
</a>
</g>
</g>
<!-- Node9 -->
<g id="Node000009" class="node">
<title>Node9</title>
<g id="a_Node000009"><a xlink:href="browser_2functions_8c.html" target="_top" xlink:title="Browser functions.">
<polygon fill="white" stroke="#666666" points="832.25,-80.5 724,-80.5 724,-58.25 832.25,-58.25 832.25,-80.5"/>
<text text-anchor="middle" x="778.12" y="-67" font-family="Helvetica,sans-Serif" font-size="10.00">browser/functions.c</text>
</a>
</g>
</g>
<!-- Node1&#45;&gt;Node9 -->
<g id="edge8_Node000001_Node000009" class="edge">
<title>Node1&#45;&gt;Node9</title>
<g id="a_edge8_Node000001_Node000009"><a xlink:title=" ">
<path fill="none" stroke="#63b8ff" d="M1170.97,-121.9C1101.94,-114.05 960.5,-97.49 841.12,-80.5 838.38,-80.11 835.58,-79.7 832.74,-79.28"/>
<polygon fill="#63b8ff" stroke="#63b8ff" points="1170.38,-125.35 1180.71,-123 1171.16,-118.4 1170.38,-125.35"/>
</a>
</g>
</g>
<!-- Node10 -->
<g id="Node000010" class="node">
<title>Node10</title>
<g id="a_Node000010"><a xlink:href="compose_2functions_8c.html" target="_top" xlink:title="Compose functions.">
<polygon fill="white" stroke="#666666" points="962.12,-80.5 850.12,-80.5 850.12,-58.25 962.12,-58.25 962.12,-80.5"/>
<text text-anchor="middle" x="906.12" y="-67" font-family="Helvetica,sans-Serif" font-size="10.00">compose/functions.c</text>
</a>
</g>
</g>
<!-- Node1&#45;&gt;Node10 -->
<g id="edge9_Node000001_Node000010" class="edge">
<title>Node1&#45;&gt;Node10</title>
<g id="a_edge9_Node000001_Node000010"><a xlink:title=" ">
<path fill="none" stroke="#63b8ff" d="M1170.75,-118.86C1116.58,-108.94 1022.64,-91.72 962.49,-80.7"/>
<polygon fill="#63b8ff" stroke="#63b8ff" points="1170.04,-122.29 1180.51,-120.65 1171.3,-115.4 1170.04,-122.29"/>
</a>
</g>
</g>
<!-- Node11 -->
<g id="Node000011" class="node">
<title>Node11</title>
<g id="a_Node000011"><a xlink:href="copy_8c.html" target="_top" xlink:title="Duplicate the structure of an entire email.">
<polygon fill="white" stroke="#666666" points="1024.38,-80.5 979.88,-80.5 979.88,-58.25 1024.38,-58.25 1024.38,-80.5"/>
<text text-anchor="middle" x="1002.12" y="-67" font-family="Helvetica,sans-Serif" font-size="10.00">copy.c</text>
</a>
</g>
</g>
<!-- Node1&#45;&gt;Node11 -->
<g id="edge10_Node000001_Node000011" class="edge">
<title>Node1&#45;&gt;Node11</title>
<g id="a_edge10_Node000001_Node000011"><a xlink:title=" ">
<path fill="none" stroke="#63b8ff" d="M1171.3,-116.72C1134.69,-107.86 1080.14,-94.19 1033.12,-80.5 1030.41,-79.71 1027.57,-78.84 1024.76,-77.96"/>
<polygon fill="#63b8ff" stroke="#63b8ff" points="1170.05,-120.02 1180.59,-118.96 1171.69,-113.22 1170.05,-120.02"/>
</a>
</g>
</g>
<!-- Node12 -->
<g id="Node000012" class="node">
<title>Node12</title>
<g id="a_Node000012"><a xlink:href="external_8c.html" target="_top" xlink:title="Manage where the email is piped to external commands.">
<polygon fill="white" stroke="#666666" points="1104,-80.5 1042.25,-80.5 1042.25,-58.25 1104,-58.25 1104,-80.5"/>
<text text-anchor="middle" x="1073.12" y="-67" font-family="Helvetica,sans-Serif" font-size="10.00">external.c</text>
</a>
</g>
</g>
<!-- Node1&#45;&gt;Node12 -->
<g id="edge11_Node000001_Node000012" class="edge">
<title>Node1&#45;&gt;Node12</title>
<g id="a_edge11_Node000001_Node000012"><a xlink:title=" ">
<path fill="none" stroke="#63b8ff" d="M1176.22,-111.8C1152.04,-102.08 1121.01,-89.62 1099.34,-80.91"/>
<polygon fill="#63b8ff" stroke="#63b8ff" points="1174.8,-115 1185.39,-115.48 1177.41,-108.5 1174.8,-115"/>
</a>
</g>
</g>
<!-- Node13 -->
<g id="Node000013" class="node">
<title>Node13</title>
<g id="a_Node000013"><a xlink:href="index_2functions_8c.html" target="_top" xlink:title="Index functions.">
<polygon fill="white" stroke="#666666" points="1216.5,-80.5 1121.75,-80.5 1121.75,-58.25 1216.5,-58.25 1216.5,-80.5"/>
<text text-anchor="middle" x="1169.12" y="-67" font-family="Helvetica,sans-Serif" font-size="10.00">index/functions.c</text>
</a>
</g>
</g>
<!-- Node1&#45;&gt;Node13 -->
<g id="edge12_Node000001_Node000013" class="edge">
<title>Node1&#45;&gt;Node13</title>
<g id="a_edge12_Node000001_Node000013"><a xlink:title=" ">
<path fill="none" stroke="#63b8ff" d="M1197.9,-107.16C1191.01,-98.35 1183.13,-88.28 1177.36,-80.91"/>
<polygon fill="#63b8ff" stroke="#63b8ff" points="1195,-109.13 1203.92,-114.85 1200.51,-104.82 1195,-109.13"/>
</a>
</g>
</g>
<!-- Node14 -->
<g id="Node000014" class="node">
<title>Node14</title>
<g id="a_Node000014"><a xlink:href="main_8c.html" target="_top" xlink:title="Command line processing.">
<polygon fill="white" stroke="#666666" points="1280.12,-80.5 1234.12,-80.5 1234.12,-58.25 1280.12,-58.25 1280.12,-80.5"/>
<text text-anchor="middle" x="1257.12" y="-67" font-family="Helvetica,sans-Serif" font-size="10.00">main.c</text>
</a>
</g>
</g>
<!-- Node1&#45;&gt;Node14 -->
<g id="edge13_Node000001_Node000014" class="edge">
<title>Node1&#45;&gt;Node14</title>
<g id="a_edge13_Node000001_Node000014"><a xlink:title=" ">
<path fill="none" stroke="#63b8ff" d="M1228.35,-107.16C1235.24,-98.35 1243.12,-88.28 1248.89,-80.91"/>
<polygon fill="#63b8ff" stroke="#63b8ff" points="1225.74,-104.82 1222.33,-114.85 1231.25,-109.13 1225.74,-104.82"/>
</a>
</g>
</g>
<!-- Node15 -->
<g id="Node000015" class="node">
<title>Node15</title>
<g id="a_Node000015"><a xlink:href="mutt__body_8c.html" target="_top" xlink:title="Representation of the body of an email.">
<polygon fill="white" stroke="#666666" points="1371.62,-80.5 1298.62,-80.5 1298.62,-58.25 1371.62,-58.25 1371.62,-80.5"/>
<text text-anchor="middle" x="1335.12" y="-67" font-family="Helvetica,sans-Serif" font-size="10.00">mutt_body.c</text>
</a>
</g>
</g>
<!-- Node1&#45;&gt;Node15 -->
<g id="edge14_Node000001_Node000015" class="edge">
<title>Node1&#45;&gt;Node15</title>
<g id="a_edge14_Node000001_Node000015"><a xlink:title=" ">
<path fill="none" stroke="#63b8ff" d="M1246.43,-111.27C1267.33,-101.63 1293.74,-89.46 1312.28,-80.91"/>
<polygon fill="#63b8ff" stroke="#63b8ff" points="1245.06,-108.05 1237.45,-115.41 1247.99,-114.4 1245.06,-108.05"/>
</a>
</g>
</g>
<!-- Node16 -->
<g id="Node000016" class="node">
<title>Node16</title>
<g id="a_Node000016"><a xlink:href="mutt__header_8c.html" target="_top" xlink:title="Manipulate an email&#39;s header.">
<polygon fill="white" stroke="#666666" points="1472.12,-80.5 1390.12,-80.5 1390.12,-58.25 1472.12,-58.25 1472.12,-80.5"/>
<text text-anchor="middle" x="1431.12" y="-67" font-family="Helvetica,sans-Serif" font-size="10.00">mutt_header.c</text>
</a>
</g>
</g>
<!-- Node1&#45;&gt;Node16 -->
<g id="edge15_Node000001_Node000016" class="edge">
<title>Node1&#45;&gt;Node16</title>
<g id="a_edge15_Node000001_Node000016"><a xlink:title=" ">
<path fill="none" stroke="#63b8ff" d="M1255.32,-115.74C1294.27,-105.69 1351.76,-90.85 1390.28,-80.91"/>
<polygon fill="#63b8ff" stroke="#63b8ff" points="1254.63,-112.3 1245.82,-118.19 1256.38,-119.08 1254.63,-112.3"/>
</a>
</g>
</g>
<!-- Node17 -->
<g id="Node000017" class="node">
<title>Node17</title>
<g id="a_Node000017"><a xlink:href="crypt_8c.html" target="_top" xlink:title="Signing/encryption multiplexor.">
<polygon fill="white" stroke="#666666" points="1571.75,-80.5 1490.5,-80.5 1490.5,-58.25 1571.75,-58.25 1571.75,-80.5"/>
<text text-anchor="middle" x="1531.12" y="-67" font-family="Helvetica,sans-Serif" font-size="10.00">ncrypt/crypt.c</text>
</a>
</g>
</g>
<!-- Node1&#45;&gt;Node17 -->
<g id="edge16_Node000001_Node000017" class="edge">
<title>Node1&#45;&gt;Node17</title>
<g id="a_edge16_Node000001_Node000017"><a xlink:title=" ">
<path fill="none" stroke="#63b8ff" d="M1255.41,-119.74C1308.28,-111.04 1401.53,-95.41 1481.12,-80.5 1484.08,-79.95 1487.14,-79.36 1490.21,-78.76"/>
<polygon fill="#63b8ff" stroke="#63b8ff" points="1254.92,-116.27 1245.62,-121.35 1256.06,-123.18 1254.92,-116.27"/>
</a>
</g>
</g>
<!-- Node18 -->
<g id="Node000018" class="node">
<title>Node18</title>
<g id="a_Node000018"><a xlink:href="crypt__gpgme_8c.html" target="_top" xlink:title="Wrapper for PGP/SMIME calls to GPGME.">
<polygon fill="white" stroke="#666666" points="1708.5,-80.5 1589.75,-80.5 1589.75,-58.25 1708.5,-58.25 1708.5,-80.5"/>
<text text-anchor="middle" x="1649.12" y="-67" font-family="Helvetica,sans-Serif" font-size="10.00">ncrypt/crypt_gpgme.c</text>
</a>
</g>
</g>
<!-- Node1&#45;&gt;Node18 -->
<g id="edge17_Node000001_Node000018" class="edge">
<title>Node1&#45;&gt;Node18</title>
<g id="a_edge17_Node000001_Node000018"><a xlink:title=" ">
<path fill="none" stroke="#63b8ff" d="M1255.32,-121.66C1323.77,-113.53 1463.23,-96.66 1581.12,-80.5 1583.84,-80.13 1586.62,-79.74 1589.43,-79.34"/>
<polygon fill="#63b8ff" stroke="#63b8ff" points="1255.2,-118.15 1245.68,-122.8 1256.02,-125.1 1255.2,-118.15"/>
</a>
</g>
</g>
<!-- Node19 -->
<g id="Node000019" class="node">
<title>Node19</title>
<g id="a_Node000019"><a xlink:href="pgp_8c.html" target="_top" xlink:title="PGP sign, encrypt, check routines.">
<polygon fill="white" stroke="#666666" points="1801.75,-80.5 1726.5,-80.5 1726.5,-58.25 1801.75,-58.25 1801.75,-80.5"/>
<text text-anchor="middle" x="1764.12" y="-67" font-family="Helvetica,sans-Serif" font-size="10.00">ncrypt/pgp.c</text>
</a>
</g>
</g>
<!-- Node1&#45;&gt;Node19 -->
<g id="edge18_Node000001_Node000019" class="edge">
<title>Node1&#45;&gt;Node19</title>
<g id="a_edge18_Node000001_Node000019"><a xlink:title=" ">
<path fill="none" stroke="#63b8ff" d="M1255.75,-124.47C1342.83,-119.68 1547.28,-106.47 1717.12,-80.5 1720.1,-80.05 1723.16,-79.52 1726.23,-78.95"/>
<polygon fill="#63b8ff" stroke="#63b8ff" points="1255.56,-120.97 1245.76,-125.01 1255.94,-127.96 1255.56,-120.97"/>
</a>
</g>
</g>
<!-- Node20 -->
<g id="Node000020" class="node">
<title>Node20</title>
<g id="a_Node000020"><a xlink:href="pgpkey_8c.html" target="_top" xlink:title="PGP key management routines.">
<polygon fill="white" stroke="#666666" points="1910.25,-80.5 1820,-80.5 1820,-58.25 1910.25,-58.25 1910.25,-80.5"/>
<text text-anchor="middle" x="1865.12" y="-67" font-family="Helvetica,sans-Serif" font-size="10.00">ncrypt/pgpkey.c</text>
</a>
</g>
</g>
<!-- Node1&#45;&gt;Node20 -->
<g id="edge19_Node000001_Node000020" class="edge">
<title>Node1&#45;&gt;Node20</title>
<g id="a_edge19_Node000001_Node000020"><a xlink:title=" ">
<path fill="none" stroke="#63b8ff" d="M1255.88,-124.92C1354.23,-120.65 1604.01,-107.82 1811.12,-80.5 1813.87,-80.14 1816.68,-79.73 1819.52,-79.29"/>
<polygon fill="#63b8ff" stroke="#63b8ff" points="1255.73,-121.42 1245.89,-125.35 1256.03,-128.42 1255.73,-121.42"/>
</a>
</g>
</g>
<!-- Node21 -->
<g id="Node000021" class="node">
<title>Node21</title>
<g id="a_Node000021"><a xlink:href="smime_8c.html" target="_top" xlink:title="SMIME helper routines.">
<polygon fill="white" stroke="#666666" points="2016.12,-80.5 1928.12,-80.5 1928.12,-58.25 2016.12,-58.25 2016.12,-80.5"/>
<text text-anchor="middle" x="1972.12" y="-67" font-family="Helvetica,sans-Serif" font-size="10.00">ncrypt/smime.c</text>
</a>
</g>
</g>
<!-- Node1&#45;&gt;Node21 -->
<g id="edge20_Node000001_Node000021" class="edge">
<title>Node1&#45;&gt;Node21</title>
<g id="a_edge20_Node000001_Node000021"><a xlink:title=" ">
<path fill="none" stroke="#63b8ff" d="M1255.46,-125.68C1365.37,-122.84 1668.73,-112.47 1919.12,-80.5 1921.91,-80.14 1924.77,-79.73 1927.66,-79.28"/>
<polygon fill="#63b8ff" stroke="#63b8ff" points="1255.65,-122.18 1245.74,-125.93 1255.82,-129.17 1255.65,-122.18"/>
</a>
</g>
</g>
<!-- Node22 -->
<g id="Node000022" class="node">
<title>Node22</title>
<g id="a_Node000022"><a xlink:href="exec_8c.html" target="_top" xlink:title="Execute a Pattern.">
<polygon fill="white" stroke="#666666" points="2117.88,-80.5 2034.38,-80.5 2034.38,-58.25 2117.88,-58.25 2117.88,-80.5"/>
<text text-anchor="middle" x="2076.12" y="-67" font-family="Helvetica,sans-Serif" font-size="10.00">pattern/exec.c</text>
</a>
</g>
</g>
<!-- Node1&#45;&gt;Node22 -->
<g id="edge21_Node000001_Node000022" class="edge">
<title>Node1&#45;&gt;Node22</title>
<g id="a_edge21_Node000001_Node000022"><a xlink:title=" ">
<path fill="none" stroke="#63b8ff" d="M1255.51,-126.29C1376.28,-124.9 1732.32,-117.7 2025.12,-80.5 2027.99,-80.14 2030.94,-79.7 2033.9,-79.23"/>
<polygon fill="#63b8ff" stroke="#63b8ff" points="1255.72,-122.79 1245.76,-126.4 1255.79,-129.79 1255.72,-122.79"/>
</a>
</g>
</g>
<!-- Node23 -->
<g id="Node000023" class="node">
<title>Node23</title>
<g id="a_Node000023"><a xlink:href="postpone_8c.html" target="_top" xlink:title="Postponed Email Selection Dialog.">
<polygon fill="white" stroke="#666666" points="2252,-80.5 2136.25,-80.5 2136.25,-58.25 2252,-58.25 2252,-80.5"/>
<text text-anchor="middle" x="2194.12" y="-67" font-family="Helvetica,sans-Serif" font-size="10.00">postpone/postpone.c</text>
</a>
</g>
</g>
<!-- Node1&#45;&gt;Node23 -->
<g id="edge22_Node000001_Node000023" class="edge">
<title>Node1&#45;&gt;Node23</title>
<g id="a_edge22_Node000001_Node000023"><a xlink:title=" ">
<path fill="none" stroke="#63b8ff" d="M1255.8,-125.98C1386.48,-123.68 1792.55,-114.14 2127.12,-80.5 2130.05,-80.21 2133.04,-79.87 2136.06,-79.51"/>
<polygon fill="#63b8ff" stroke="#63b8ff" points="1255.83,-122.48 1245.89,-126.15 1255.95,-129.48 1255.83,-122.48"/>
</a>
</g>
</g>
<!-- Node24 -->
<g id="Node000024" class="node">
<title>Node24</title>
<g id="a_Node000024"><a xlink:href="recvcmd_8c.html" target="_top" xlink:title="Send/reply with an attachment.">
<polygon fill="white" stroke="#666666" points="2363.38,-22.25 2300.88,-22.25 2300.88,0 2363.38,0 2363.38,-22.25"/>
<text text-anchor="middle" x="2332.12" y="-8.75" font-family="Helvetica,sans-Serif" font-size="10.00">recvcmd.c</text>
</a>
</g>
</g>
<!-- Node1&#45;&gt;Node24 -->
<g id="edge23_Node000001_Node000024" class="edge">
<title>Node1&#45;&gt;Node24</title>
<g id="a_edge23_Node000001_Node000024"><a xlink:title=" ">
<path fill="none" stroke="#63b8ff" d="M1255.44,-126.52C1456.23,-125.81 2304.77,-120.45 2343.12,-80.5 2358.03,-64.97 2346.71,-37.73 2338.56,-22.75"/>
<polygon fill="#63b8ff" stroke="#63b8ff" points="1255.73,-123.02 1245.74,-126.55 1255.75,-130.02 1255.73,-123.02"/>
</a>
</g>
</g>
<!-- Node25 -->
<g id="Node000025" class="node">
<title>Node25</title>
<g id="a_Node000025"><a xlink:href="recvcmd_8h.html" target="_top" xlink:title="Send/reply with an attachment.">
<polygon fill="white" stroke="#666666" points="2334.12,-80.5 2270.12,-80.5 2270.12,-58.25 2334.12,-58.25 2334.12,-80.5"/>
<text text-anchor="middle" x="2302.12" y="-67" font-family="Helvetica,sans-Serif" font-size="10.00">recvcmd.h</text>
</a>
</g>
</g>
<!-- Node1&#45;&gt;Node25 -->
<g id="edge24_Node000001_Node000025" class="edge">
<title>Node1&#45;&gt;Node25</title>
<g id="a_edge24_Node000001_Node000025"><a xlink:title=" ">
<path fill="none" stroke="#63b8ff" d="M1255.49,-125.88C1425.94,-122.71 2061.98,-109.18 2261.12,-80.5 2264.03,-80.08 2267.02,-79.55 2270.01,-78.94"/>
<polygon fill="#63b8ff" stroke="#63b8ff" points="1255.48,-122.38 1245.55,-126.06 1255.61,-129.38 1255.48,-122.38"/>
</a>
</g>
</g>
<!-- Node25&#45;&gt;Node5 -->
<g id="edge25_Node000025_Node000005" class="edge">
<title>Node25&#45;&gt;Node5</title>
<g id="a_edge25_Node000025_Node000005"><a xlink:title=" ">
<path fill="none" stroke="#63b8ff" d="M2258.73,-58.23C2057.97,-31.24 1504.5,-17.02 1335.63,-13.19"/>
<polygon fill="#63b8ff" stroke="#63b8ff" points="2258.12,-61.68 2268.51,-59.61 2259.1,-54.75 2258.12,-61.68"/>
</a>
</g>
</g>
<!-- Node25&#45;&gt;Node24 -->
<g id="edge26_Node000025_Node000024" class="edge">
<title>Node25&#45;&gt;Node24</title>
<g id="a_edge26_Node000025_Node000024"><a xlink:title=" ">
<path fill="none" stroke="#63b8ff" d="M2313.11,-47.78C2317.66,-39.25 2322.74,-29.72 2326.51,-22.66"/>
<polygon fill="#63b8ff" stroke="#63b8ff" points="2310.1,-45.99 2308.48,-56.46 2316.27,-49.28 2310.1,-45.99"/>
</a>
</g>
</g>
</g>
</svg>
