<?xml version="1.0" encoding="UTF-8" standalone="no"?>
<!DOCTYPE svg PUBLIC "-//W3C//DTD SVG 1.1//EN"
 "http://www.w3.org/Graphics/SVG/1.1/DTD/svg11.dtd">
<!-- Generated by graphviz version 7.1.0 (0)
 -->
<!-- Title: send/expando.c Pages: 1 -->
<svg width="584pt" height="137pt"
 viewBox="0.00 0.00 584.00 137.00" xmlns="http://www.w3.org/2000/svg" xmlns:xlink="http://www.w3.org/1999/xlink">
<g id="graph0" class="graph" transform="scale(1 1) rotate(0) translate(4 133)">
<title>send/expando.c</title>
<!-- Node1 -->
<g id="node1" class="node">
<title>Node1</title>
<g id="a_node1"><a xlink:title="Greeting Expando definitions.">
<polygon fill="#999999" stroke="#666666" points="335,-129 245,-129 245,-110 335,-110 335,-129"/>
<text text-anchor="middle" x="290" y="-117" font-family="Helvetica,sans-Serif" font-size="10.00">send/expando.c</text>
</a>
</g>
</g>
<!-- Node2 -->
<g id="node2" class="node">
<title>Node2</title>
<g id="a_node2"><a xlink:title=" ">
<polygon fill="#e0e0e0" stroke="#999999" points="60,-74 0,-74 0,-55 60,-55 60,-74"/>
<text text-anchor="middle" x="30" y="-62" font-family="Helvetica,sans-Serif" font-size="10.00">stdbool.h</text>
</a>
</g>
</g>
<!-- Node1&#45;&gt;Node2 -->
<g id="edge1" class="edge">
<title>Node1&#45;&gt;Node2</title>
<path fill="none" stroke="#63b8ff" d="M244.67,-109.59C202.32,-101.22 137.05,-88.19 71.22,-74.44"/>
<polygon fill="#63b8ff" stroke="#63b8ff" points="72.21,-71.07 61.7,-72.45 70.78,-77.92 72.21,-71.07"/>
</g>
<!-- Node3 -->
<g id="node3" class="node">
<title>Node3</title>
<g id="a_node3"><a xlink:title=" ">
<polygon fill="#e0e0e0" stroke="#999999" points="126,-74 78,-74 78,-55 126,-55 126,-74"/>
<text text-anchor="middle" x="102" y="-62" font-family="Helvetica,sans-Serif" font-size="10.00">stdio.h</text>
</a>
</g>
</g>
<!-- Node1&#45;&gt;Node3 -->
<g id="edge2" class="edge">
<title>Node1&#45;&gt;Node3</title>
<path fill="none" stroke="#63b8ff" d="M258.11,-109.51C224.6,-100.06 172.04,-85.24 137.3,-75.45"/>
<polygon fill="#63b8ff" stroke="#63b8ff" points="138.29,-72.09 127.72,-72.75 136.39,-78.83 138.29,-72.09"/>
</g>
<!-- Node4 -->
<g id="node4" class="node">
<title>Node4</title>
<g id="a_node4"><a xlink:title=" ">
<polygon fill="#e0e0e0" stroke="#999999" points="197.5,-74 144.5,-74 144.5,-55 197.5,-55 197.5,-74"/>
<text text-anchor="middle" x="171" y="-62" font-family="Helvetica,sans-Serif" font-size="10.00">string.h</text>
</a>
</g>
</g>
<!-- Node1&#45;&gt;Node4 -->
<g id="edge3" class="edge">
<title>Node1&#45;&gt;Node4</title>
<path fill="none" stroke="#63b8ff" d="M269.81,-109.51C250.98,-101.12 222.63,-88.5 201.13,-78.92"/>
<polygon fill="#63b8ff" stroke="#63b8ff" points="202.83,-75.85 192.27,-74.97 199.98,-82.24 202.83,-75.85"/>
</g>
<!-- Node5 -->
<g id="node5" class="node">
<title>Node5</title>
<g id="a_node5"><a xlink:href="mutt_2lib_8h.html" target="_top" xlink:title="Convenience wrapper for the library headers.">
<polygon fill="#fff0f0" stroke="red" points="278,-74 216,-74 216,-55 278,-55 278,-74"/>
<text text-anchor="middle" x="247" y="-62" font-family="Helvetica,sans-Serif" font-size="10.00">mutt/lib.h</text>
</a>
</g>
</g>
<!-- Node1&#45;&gt;Node5 -->
<g id="edge4" class="edge">
<title>Node1&#45;&gt;Node5</title>
<path fill="none" stroke="#63b8ff" d="M282.9,-109.75C277.08,-102.58 268.67,-92.2 261.44,-83.3"/>
<polygon fill="#63b8ff" stroke="#63b8ff" points="264.23,-81.18 255.21,-75.62 258.79,-85.59 264.23,-81.18"/>
</g>
<!-- Node54 -->
<g id="node6" class="node">
<title>Node54</title>
<g id="a_node6"><a xlink:href="address_2lib_8h.html" target="_top" xlink:title="Email Address Handling.">
<polygon fill="#fff0f0" stroke="red" points="372,-74 296,-74 296,-55 372,-55 372,-74"/>
<text text-anchor="middle" x="334" y="-62" font-family="Helvetica,sans-Serif" font-size="10.00">address/lib.h</text>
</a>
</g>
</g>
<!-- Node1&#45;&gt;Node54 -->
<g id="edge5" class="edge">
<title>Node1&#45;&gt;Node54</title>
<path fill="none" stroke="#63b8ff" d="M297.27,-109.75C303.28,-102.5 312.01,-91.98 319.46,-83.02"/>
<polygon fill="#63b8ff" stroke="#63b8ff" points="321.92,-85.54 325.61,-75.61 316.53,-81.07 321.92,-85.54"/>
</g>
<!-- Node59 -->
<g id="node7" class="node">
<title>Node59</title>
<g id="a_node7"><a xlink:href="email_2lib_8h.html" target="_top" xlink:title="Structs that make up an email.">
<polygon fill="#fff0f0" stroke="red" points="455.5,-74 390.5,-74 390.5,-55 455.5,-55 455.5,-74"/>
<text text-anchor="middle" x="423" y="-62" font-family="Helvetica,sans-Serif" font-size="10.00">email/lib.h</text>
</a>
</g>
</g>
<!-- Node1&#45;&gt;Node59 -->
<g id="edge6" class="edge">
<title>Node1&#45;&gt;Node59</title>
<path fill="none" stroke="#63b8ff" d="M312.56,-109.51C333.9,-101.01 366.16,-88.15 390.31,-78.53"/>
<polygon fill="#63b8ff" stroke="#63b8ff" points="391.37,-81.87 399.37,-74.92 388.78,-75.37 391.37,-81.87"/>
</g>
<!-- Node86 -->
<g id="node8" class="node">
<title>Node86</title>
<g id="a_node8"><a xlink:href="send_2expando_8h.html" target="_top" xlink:title="Greeting Expando definitions.">
<polygon fill="white" stroke="#666666" points="538.5,-74 473.5,-74 473.5,-55 538.5,-55 538.5,-74"/>
<text text-anchor="middle" x="506" y="-62" font-family="Helvetica,sans-Serif" font-size="10.00">expando.h</text>
</a>
</g>
</g>
<!-- Node1&#45;&gt;Node86 -->
<g id="edge7" class="edge">
<title>Node1&#45;&gt;Node86</title>
<path fill="none" stroke="#63b8ff" d="M326.64,-109.51C364.08,-100.32 422.22,-86.06 462.1,-76.27"/>
<polygon fill="#63b8ff" stroke="#63b8ff" points="462.73,-79.72 471.61,-73.94 461.06,-72.92 462.73,-79.72"/>
</g>
<!-- Node87 -->
<g id="node9" class="node">
<title>Node87</title>
<g id="a_node9"><a xlink:href="expando_2lib_8h.html" target="_top" xlink:title="Parse Expando string.">
<polygon fill="#fff0f0" stroke="red" points="576,-19 496,-19 496,0 576,0 576,-19"/>
<text text-anchor="middle" x="536" y="-7" font-family="Helvetica,sans-Serif" font-size="10.00">expando/lib.h</text>
</a>
</g>
</g>
<!-- Node1&#45;&gt;Node87 -->
<g id="edge9" class="edge">
<title>Node1&#45;&gt;Node87</title>
<path fill="none" stroke="#63b8ff" d="M335.26,-117.44C401.87,-114.81 521.32,-105.68 548,-74 558.38,-61.68 553.34,-43.2 546.91,-29.35"/>
<polygon fill="#63b8ff" stroke="#63b8ff" points="550.16,-28.02 542.43,-20.78 543.96,-31.26 550.16,-28.02"/>
</g>
<!-- Node86&#45;&gt;Node87 -->
<g id="edge8" class="edge">
<title>Node86&#45;&gt;Node87</title>
<path fill="none" stroke="#63b8ff" d="M510.95,-54.75C514.84,-47.88 520.39,-38.08 525.28,-29.45"/>
<polygon fill="#63b8ff" stroke="#63b8ff" points="528.31,-31.19 530.19,-20.76 522.22,-27.74 528.31,-31.19"/>
</g>
</g>
</svg>
