<?xml version="1.0" encoding="UTF-8" standalone="no"?>
<!DOCTYPE svg PUBLIC "-//W3C//DTD SVG 1.1//EN"
 "http://www.w3.org/Graphics/SVG/1.1/DTD/svg11.dtd">
<!-- Generated by graphviz version 12.2.1 (20241206.2353)
 -->
<!-- Title: send/config.c Pages: 1 -->
<svg width="673pt" height="147pt"
 viewBox="0.00 0.00 673.38 146.75" xmlns="http://www.w3.org/2000/svg" xmlns:xlink="http://www.w3.org/1999/xlink">
<g id="graph0" class="graph" transform="scale(1 1) rotate(0) translate(4 142.75)">
<title>send/config.c</title>
<!-- Node1 -->
<g id="Node000001" class="node">
<title>Node1</title>
<g id="a_Node000001"><a xlink:title="Config used by libsend.">
<polygon fill="#999999" stroke="#666666" points="369,-138.75 290.75,-138.75 290.75,-116.5 369,-116.5 369,-138.75"/>
<text text-anchor="middle" x="329.88" y="-125.25" font-family="Helvetica,sans-Serif" font-size="10.00">send/config.c</text>
</a>
</g>
</g>
<!-- Node2 -->
<g id="Node000002" class="node">
<title>Node2</title>
<g id="a_Node000002"><a xlink:title=" ">
<polygon fill="#e0e0e0" stroke="#999999" points="87.62,-22.25 34.12,-22.25 34.12,0 87.62,0 87.62,-22.25"/>
<text text-anchor="middle" x="60.88" y="-8.75" font-family="Helvetica,sans-Serif" font-size="10.00">config.h</text>
</a>
</g>
</g>
<!-- Node1&#45;&gt;Node2 -->
<g id="edge1_Node000001_Node000002" class="edge">
<title>Node1&#45;&gt;Node2</title>
<g id="a_edge1_Node000001_Node000002"><a xlink:title=" ">
<path fill="none" stroke="#63b8ff" d="M290.65,-126.91C243.72,-125.46 164.53,-117.14 108.88,-80.5 91.23,-68.88 78.13,-48.35 70.11,-32.81"/>
<polygon fill="#63b8ff" stroke="#63b8ff" points="73.33,-31.43 65.83,-23.94 67.02,-34.47 73.33,-31.43"/>
</a>
</g>
</g>
<!-- Node3 -->
<g id="Node000003" class="node">
<title>Node3</title>
<g id="a_Node000003"><a xlink:title=" ">
<polygon fill="#e0e0e0" stroke="#999999" points="397.62,-22.25 338.12,-22.25 338.12,0 397.62,0 397.62,-22.25"/>
<text text-anchor="middle" x="367.88" y="-8.75" font-family="Helvetica,sans-Serif" font-size="10.00">stdbool.h</text>
</a>
</g>
</g>
<!-- Node1&#45;&gt;Node3 -->
<g id="edge2_Node000001_Node000003" class="edge">
<title>Node1&#45;&gt;Node3</title>
<g id="a_edge2_Node000001_Node000003"><a xlink:title=" ">
<path fill="none" stroke="#63b8ff" d="M369.17,-126.95C405.24,-124.89 456.9,-115.46 482.88,-80.5 505.91,-49.5 450.52,-29.93 408.86,-20.01"/>
<polygon fill="#63b8ff" stroke="#63b8ff" points="409.81,-16.64 399.29,-17.86 408.28,-23.47 409.81,-16.64"/>
</a>
</g>
</g>
<!-- Node4 -->
<g id="Node000004" class="node">
<title>Node4</title>
<g id="a_Node000004"><a xlink:title=" ">
<polygon fill="#e0e0e0" stroke="#999999" points="169.5,-80.5 118.25,-80.5 118.25,-58.25 169.5,-58.25 169.5,-80.5"/>
<text text-anchor="middle" x="143.88" y="-67" font-family="Helvetica,sans-Serif" font-size="10.00">stdint.h</text>
</a>
</g>
</g>
<!-- Node1&#45;&gt;Node4 -->
<g id="edge3_Node000001_Node000004" class="edge">
<title>Node1&#45;&gt;Node4</title>
<g id="a_edge3_Node000001_Node000004"><a xlink:title=" ">
<path fill="none" stroke="#63b8ff" d="M294.89,-116.04C262.18,-106.15 213.52,-91.44 180.34,-81.4"/>
<polygon fill="#63b8ff" stroke="#63b8ff" points="181.76,-78.17 171.17,-78.63 179.73,-84.87 181.76,-78.17"/>
</a>
</g>
</g>
<!-- Node5 -->
<g id="Node000005" class="node">
<title>Node5</title>
<g id="a_Node000005"><a xlink:title=" ">
<polygon fill="#e0e0e0" stroke="#999999" points="239.88,-80.5 187.88,-80.5 187.88,-58.25 239.88,-58.25 239.88,-80.5"/>
<text text-anchor="middle" x="213.88" y="-67" font-family="Helvetica,sans-Serif" font-size="10.00">string.h</text>
</a>
</g>
</g>
<!-- Node1&#45;&gt;Node5 -->
<g id="edge4_Node000001_Node000005" class="edge">
<title>Node1&#45;&gt;Node5</title>
<g id="a_edge4_Node000001_Node000005"><a xlink:title=" ">
<path fill="none" stroke="#63b8ff" d="M308.06,-116.04C290.48,-107.52 265.51,-95.42 245.7,-85.81"/>
<polygon fill="#63b8ff" stroke="#63b8ff" points="247.48,-82.78 236.96,-81.57 244.43,-89.08 247.48,-82.78"/>
</a>
</g>
</g>
<!-- Node6 -->
<g id="Node000006" class="node">
<title>Node6</title>
<g id="a_Node000006"><a xlink:href="mutt_2lib_8h.html" target="_top" xlink:title="Convenience wrapper for the library headers.">
<polygon fill="#fff0f0" stroke="red" points="61.75,-80.5 0,-80.5 0,-58.25 61.75,-58.25 61.75,-80.5"/>
<text text-anchor="middle" x="30.88" y="-67" font-family="Helvetica,sans-Serif" font-size="10.00">mutt/lib.h</text>
</a>
</g>
</g>
<!-- Node1&#45;&gt;Node6 -->
<g id="edge5_Node000001_Node000006" class="edge">
<title>Node1&#45;&gt;Node6</title>
<g id="a_edge5_Node000001_Node000006"><a xlink:title=" ">
<path fill="none" stroke="#63b8ff" d="M290.62,-120.02C240.63,-111.49 151.64,-95.9 75.88,-80.5 74.88,-80.3 73.87,-80.09 72.86,-79.88"/>
<polygon fill="#63b8ff" stroke="#63b8ff" points="73.82,-76.51 63.3,-77.83 72.35,-83.35 73.82,-76.51"/>
</a>
</g>
</g>
<!-- Node54 -->
<g id="Node000054" class="node">
<title>Node54</title>
<g id="a_Node000054"><a xlink:href="config_2lib_8h.html" target="_top" xlink:title="Convenience wrapper for the config headers.">
<polygon fill="#fff0f0" stroke="red" points="325.75,-80.5 258,-80.5 258,-58.25 325.75,-58.25 325.75,-80.5"/>
<text text-anchor="middle" x="291.88" y="-67" font-family="Helvetica,sans-Serif" font-size="10.00">config/lib.h</text>
</a>
</g>
</g>
<!-- Node1&#45;&gt;Node54 -->
<g id="edge7_Node000001_Node000054" class="edge">
<title>Node1&#45;&gt;Node54</title>
<g id="a_edge7_Node000001_Node000054"><a xlink:title=" ">
<path fill="none" stroke="#63b8ff" d="M322.73,-116.04C317.84,-108.82 311.22,-99.01 305.37,-90.34"/>
<polygon fill="#63b8ff" stroke="#63b8ff" points="308.34,-88.49 299.84,-82.16 302.54,-92.41 308.34,-88.49"/>
</a>
</g>
</g>
<!-- Node69 -->
<g id="Node000069" class="node">
<title>Node69</title>
<g id="a_Node000069"><a xlink:href="email_2lib_8h.html" target="_top" xlink:title="Structs that make up an email.">
<polygon fill="#fff0f0" stroke="red" points="473.88,-80.5 409.88,-80.5 409.88,-58.25 473.88,-58.25 473.88,-80.5"/>
<text text-anchor="middle" x="441.88" y="-67" font-family="Helvetica,sans-Serif" font-size="10.00">email/lib.h</text>
</a>
</g>
</g>
<!-- Node1&#45;&gt;Node69 -->
<g id="edge9_Node000001_Node000069" class="edge">
<title>Node1&#45;&gt;Node69</title>
<g id="a_edge9_Node000001_Node000069"><a xlink:title=" ">
<path fill="none" stroke="#63b8ff" d="M350.94,-116.04C367.84,-107.56 391.79,-95.53 410.88,-85.94"/>
<polygon fill="#63b8ff" stroke="#63b8ff" points="412.19,-89.2 419.55,-81.59 409.04,-82.95 412.19,-89.2"/>
</a>
</g>
</g>
<!-- Node110 -->
<g id="Node000110" class="node">
<title>Node110</title>
<g id="a_Node000110"><a xlink:href="expando_2lib_8h.html" target="_top" xlink:title="Parse Expando string.">
<polygon fill="#fff0f0" stroke="red" points="617.38,-22.25 538.38,-22.25 538.38,0 617.38,0 617.38,-22.25"/>
<text text-anchor="middle" x="577.88" y="-8.75" font-family="Helvetica,sans-Serif" font-size="10.00">expando/lib.h</text>
</a>
</g>
</g>
<!-- Node1&#45;&gt;Node110 -->
<g id="edge10_Node000001_Node000110" class="edge">
<title>Node1&#45;&gt;Node110</title>
<g id="a_edge10_Node000001_Node000110"><a xlink:title=" ">
<path fill="none" stroke="#63b8ff" d="M369.22,-121.15C404.94,-115.01 458.24,-102.83 499.88,-80.5 523.75,-67.69 546.51,-46.32 561.21,-30.87"/>
<polygon fill="#63b8ff" stroke="#63b8ff" points="563.64,-33.4 567.86,-23.69 558.5,-28.65 563.64,-33.4"/>
</a>
</g>
</g>
<!-- Node129 -->
<g id="Node000129" class="node">
<title>Node129</title>
<g id="a_Node000129"><a xlink:href="expando__msgid_8h.html" target="_top" xlink:title="Message Id Expando definitions.">
<polygon fill="#fff0f0" stroke="red" points="665.38,-80.5 568.38,-80.5 568.38,-58.25 665.38,-58.25 665.38,-80.5"/>
<text text-anchor="middle" x="616.88" y="-67" font-family="Helvetica,sans-Serif" font-size="10.00">expando_msgid.h</text>
</a>
</g>
</g>
<!-- Node1&#45;&gt;Node129 -->
<g id="edge11_Node000001_Node000129" class="edge">
<title>Node1&#45;&gt;Node129</title>
<g id="a_edge11_Node000001_Node000129"><a xlink:title=" ">
<path fill="none" stroke="#63b8ff" d="M369.48,-118.86C417.96,-109.36 500.54,-93.18 556.85,-82.14"/>
<polygon fill="#63b8ff" stroke="#63b8ff" points="557.46,-85.59 566.6,-80.23 556.12,-78.72 557.46,-85.59"/>
</a>
</g>
</g>
<!-- Node130 -->
<g id="Node000130" class="node">
<title>Node130</title>
<g id="a_Node000130"><a xlink:href="smtp_8h.html" target="_top" xlink:title="Send email to an SMTP server.">
<polygon fill="white" stroke="#666666" points="392,-80.5 343.75,-80.5 343.75,-58.25 392,-58.25 392,-80.5"/>
<text text-anchor="middle" x="367.88" y="-67" font-family="Helvetica,sans-Serif" font-size="10.00">smtp.h</text>
</a>
</g>
</g>
<!-- Node1&#45;&gt;Node130 -->
<g id="edge13_Node000001_Node000130" class="edge">
<title>Node1&#45;&gt;Node130</title>
<g id="a_edge13_Node000001_Node000130"><a xlink:title=" ">
<path fill="none" stroke="#63b8ff" d="M337.02,-116.04C341.91,-108.82 348.53,-99.01 354.38,-90.34"/>
<polygon fill="#63b8ff" stroke="#63b8ff" points="357.21,-92.41 359.91,-82.16 351.41,-88.49 357.21,-92.41"/>
</a>
</g>
</g>
<!-- Node6&#45;&gt;Node2 -->
<g id="edge6_Node000006_Node000002" class="edge">
<title>Node6&#45;&gt;Node2</title>
<g id="a_edge6_Node000006_Node000002"><a xlink:title=" ">
<path fill="none" stroke="#63b8ff" d="M36.52,-57.79C40.29,-50.72 45.37,-41.19 49.92,-32.66"/>
<polygon fill="#63b8ff" stroke="#63b8ff" points="52.93,-34.46 54.55,-23.99 46.75,-31.17 52.93,-34.46"/>
</a>
</g>
</g>
<!-- Node54&#45;&gt;Node3 -->
<g id="edge8_Node000054_Node000003" class="edge">
<title>Node54&#45;&gt;Node3</title>
<g id="a_edge8_Node000054_Node000003"><a xlink:title=" ">
<path fill="none" stroke="#63b8ff" d="M306.17,-57.79C317,-49.78 332.1,-38.6 344.65,-29.31"/>
<polygon fill="#63b8ff" stroke="#63b8ff" points="346.47,-32.32 352.43,-23.56 342.31,-26.69 346.47,-32.32"/>
</a>
</g>
</g>
<!-- Node129&#45;&gt;Node110 -->
<g id="edge12_Node000129_Node000110" class="edge">
<title>Node129&#45;&gt;Node110</title>
<g id="a_edge12_Node000129_Node000110"><a xlink:title=" ">
<path fill="none" stroke="#63b8ff" d="M609.54,-57.79C604.53,-50.57 597.73,-40.76 591.72,-32.09"/>
<polygon fill="#63b8ff" stroke="#63b8ff" points="594.61,-30.13 586.04,-23.9 588.86,-34.11 594.61,-30.13"/>
</a>
</g>
</g>
<!-- Node130&#45;&gt;Node3 -->
<g id="edge14_Node000130_Node000003" class="edge">
<title>Node130&#45;&gt;Node3</title>
<g id="a_edge14_Node000130_Node000003"><a xlink:title=" ">
<path fill="none" stroke="#63b8ff" d="M367.88,-57.79C367.88,-51.12 367.88,-42.24 367.88,-34.09"/>
<polygon fill="#63b8ff" stroke="#63b8ff" points="371.38,-34.17 367.88,-24.17 364.38,-34.17 371.38,-34.17"/>
</a>
</g>
</g>
</g>
</svg>
