<?xml version="1.0" encoding="UTF-8" standalone="no"?>
<!DOCTYPE svg PUBLIC "-//W3C//DTD SVG 1.1//EN"
 "http://www.w3.org/Graphics/SVG/1.1/DTD/svg11.dtd">
<!-- Generated by graphviz version 2.40.1 (20161225.0304)
 -->
<!-- Title: mutt_invoke_sendmail Pages: 1 -->
<svg width="273pt" height="66pt"
 viewBox="0.00 0.00 273.00 66.00" xmlns="http://www.w3.org/2000/svg" xmlns:xlink="http://www.w3.org/1999/xlink">
<g id="graph0" class="graph" transform="scale(1 1) rotate(0) translate(4 62)">
<title>mutt_invoke_sendmail</title>
<polygon fill="#ffffff" stroke="transparent" points="-4,4 -4,-62 269,-62 269,4 -4,4"/>
<!-- Node6341 -->
<g id="node1" class="node">
<title>Node6341</title>
<polygon fill="#bfbfbf" stroke="#000000" points="0,-19.5 0,-38.5 128,-38.5 128,-19.5 0,-19.5"/>
<text text-anchor="middle" x="64" y="-26.5" font-family="Helvetica,sans-Serif" font-size="10.00" fill="#000000">mutt_invoke_sendmail</text>
</g>
<!-- Node6342 -->
<g id="node2" class="node">
<title>Node6342</title>
<g id="a_node2"><a xlink:href="send_8c.html#ad59983b559e51132b2660d62d08b870a" target="_top" xlink:title="Send an email. ">
<polygon fill="#ffffff" stroke="#ff0000" points="170,-38.5 170,-57.5 259,-57.5 259,-38.5 170,-38.5"/>
<text text-anchor="middle" x="214.5" y="-45.5" font-family="Helvetica,sans-Serif" font-size="10.00" fill="#000000">send_message</text>
</a>
</g>
</g>
<!-- Node6341&#45;&gt;Node6342 -->
<g id="edge1" class="edge">
<title>Node6341&#45;&gt;Node6342</title>
<path fill="none" stroke="#191970" d="M138.2091,-38.3686C149.0775,-39.7407 159.9748,-41.1164 169.994,-42.3813"/>
<polygon fill="#191970" stroke="#191970" points="138.6218,-34.893 128.2621,-37.1128 137.7449,-41.8379 138.6218,-34.893"/>
</g>
<!-- Node6379 -->
<g id="node3" class="node">
<title>Node6379</title>
<g id="a_node3"><a xlink:href="sendlib_8c.html#a3c2fc3a6d223bdad3483d3c8a5359162" target="_top" xlink:title="Bounce an email message. ">
<polygon fill="#ffffff" stroke="#ff0000" points="164,-.5 164,-19.5 265,-19.5 265,-.5 164,-.5"/>
<text text-anchor="middle" x="214.5" y="-7.5" font-family="Helvetica,sans-Serif" font-size="10.00" fill="#000000">bounce_message</text>
</a>
</g>
</g>
<!-- Node6341&#45;&gt;Node6379 -->
<g id="edge2" class="edge">
<title>Node6341&#45;&gt;Node6379</title>
<path fill="none" stroke="#191970" d="M138.2998,-19.62C146.8797,-18.5368 155.4761,-17.4515 163.6427,-16.4205"/>
<polygon fill="#191970" stroke="#191970" points="137.7449,-16.1621 128.2621,-20.8872 138.6218,-23.107 137.7449,-16.1621"/>
</g>
</g>
</svg>
