<?xml version="1.0" encoding="UTF-8" standalone="no"?>
<!DOCTYPE svg PUBLIC "-//W3C//DTD SVG 1.1//EN"
 "http://www.w3.org/Graphics/SVG/1.1/DTD/svg11.dtd">
<!-- Generated by graphviz version 2.44.0 (0)
 -->
<!-- Title: mutt_get_content_info Pages: 1 -->
<svg width="423pt" height="104pt"
 viewBox="0.00 0.00 423.00 104.00" xmlns="http://www.w3.org/2000/svg" xmlns:xlink="http://www.w3.org/1999/xlink">
<g id="graph0" class="graph" transform="scale(1 1) rotate(0) translate(4 100)">
<title>mutt_get_content_info</title>
<polygon fill="white" stroke="transparent" points="-4,4 -4,-100 419,-100 419,4 -4,4"/>
<!-- Node1 -->
<g id="node1" class="node">
<title>Node1</title>
<g id="a_node1"><a xlink:title="Analyze file to determine MIME encoding to use.">
<polygon fill="#bfbfbf" stroke="black" points="302,-38.5 302,-57.5 415,-57.5 415,-38.5 302,-38.5"/>
<text text-anchor="middle" x="358.5" y="-45.5" font-family="Helvetica" font-size="10.00">mutt_get_content_info</text>
</a>
</g>
</g>
<!-- Node2 -->
<g id="node2" class="node">
<title>Node2</title>
<g id="a_node2"><a xlink:href="compose_8c.html#a10fb95e2265c7801f3cc2dcb92c3b836" target="_top" xlink:title="Cumulative Attachments Size.">
<polygon fill="white" stroke="red" points="161,-76.5 161,-95.5 256,-95.5 256,-76.5 161,-76.5"/>
<text text-anchor="middle" x="208.5" y="-83.5" font-family="Helvetica" font-size="10.00">cum_attachs_size</text>
</a>
</g>
</g>
<!-- Node1&#45;&gt;Node2 -->
<g id="edge1" class="edge">
<title>Node1&#45;&gt;Node2</title>
<path fill="none" stroke="midnightblue" d="M310.33,-60.11C289.71,-65.4 265.89,-71.52 246.58,-76.48"/>
<polygon fill="midnightblue" stroke="midnightblue" points="311.34,-63.47 320.15,-57.59 309.6,-56.69 311.34,-63.47"/>
</g>
<!-- Node421 -->
<g id="node3" class="node">
<title>Node421</title>
<g id="a_node3"><a xlink:href="sendlib_8h.html#a4151ab9123ccb452ca911515b80ac85e" target="_top" xlink:title="Create a file attachment.">
<polygon fill="white" stroke="red" points="0,-19.5 0,-38.5 115,-38.5 115,-19.5 0,-19.5"/>
<text text-anchor="middle" x="57.5" y="-26.5" font-family="Helvetica" font-size="10.00">mutt_make_file_attach</text>
</a>
</g>
</g>
<!-- Node1&#45;&gt;Node421 -->
<g id="edge2" class="edge">
<title>Node1&#45;&gt;Node421</title>
<path fill="none" stroke="midnightblue" d="M291.67,-43.82C238.77,-40.46 165.27,-35.78 115.01,-32.59"/>
<polygon fill="midnightblue" stroke="midnightblue" points="291.76,-47.33 301.96,-44.47 292.2,-40.34 291.76,-47.33"/>
</g>
<!-- Node419 -->
<g id="node4" class="node">
<title>Node419</title>
<g id="a_node4"><a xlink:href="sendlib_8h.html#ae4f3b3ef1863d9821af9f82d8963e5b8" target="_top" xlink:title="Update the encoding type.">
<polygon fill="white" stroke="red" points="151,-0.5 151,-19.5 266,-19.5 266,-0.5 151,-0.5"/>
<text text-anchor="middle" x="208.5" y="-7.5" font-family="Helvetica" font-size="10.00">mutt_update_encoding</text>
</a>
</g>
</g>
<!-- Node1&#45;&gt;Node419 -->
<g id="edge3" class="edge">
<title>Node1&#45;&gt;Node419</title>
<path fill="none" stroke="midnightblue" d="M310.33,-35.89C289.71,-30.6 265.89,-24.48 246.58,-19.52"/>
<polygon fill="midnightblue" stroke="midnightblue" points="309.6,-39.31 320.15,-38.41 311.34,-32.53 309.6,-39.31"/>
</g>
<!-- Node419&#45;&gt;Node421 -->
<g id="edge4" class="edge">
<title>Node419&#45;&gt;Node421</title>
<path fill="none" stroke="midnightblue" d="M140.77,-18.51C132.2,-19.6 123.49,-20.71 115.1,-21.78"/>
<polygon fill="midnightblue" stroke="midnightblue" points="141.27,-21.97 150.74,-17.24 140.38,-15.03 141.27,-21.97"/>
</g>
</g>
</svg>
