<?xml version="1.0" encoding="UTF-8" standalone="no"?>
<!DOCTYPE svg PUBLIC "-//W3C//DTD SVG 1.1//EN"
 "http://www.w3.org/Graphics/SVG/1.1/DTD/svg11.dtd">
<!-- Generated by graphviz version 2.40.1 (20161225.0304)
 -->
<!-- Title: run_mime_type_query Pages: 1 -->
<svg width="311pt" height="344pt"
 viewBox="0.00 0.00 311.00 344.00" xmlns="http://www.w3.org/2000/svg" xmlns:xlink="http://www.w3.org/1999/xlink">
<g id="graph0" class="graph" transform="scale(1 1) rotate(0) translate(4 340)">
<title>run_mime_type_query</title>
<polygon fill="#ffffff" stroke="transparent" points="-4,4 -4,-340 307,-340 307,4 -4,4"/>
<!-- Node10354 -->
<g id="node1" class="node">
<title>Node10354</title>
<polygon fill="#bfbfbf" stroke="#000000" points="0,-152.5 0,-171.5 126,-171.5 126,-152.5 0,-152.5"/>
<text text-anchor="middle" x="63" y="-159.5" font-family="Helvetica,sans-Serif" font-size="10.00" fill="#000000">run_mime_type_query</text>
</g>
<!-- Node10355 -->
<g id="node2" class="node">
<title>Node10355</title>
<g id="a_node2"><a xlink:href="pool_8c.html#a2129d5ea0085753afdd37cf62161845d" target="_top" xlink:title="Get a Buffer from the pool. ">
<polygon fill="#ffffff" stroke="#ff0000" points="172,-316.5 172,-335.5 293,-335.5 293,-316.5 172,-316.5"/>
<text text-anchor="middle" x="232.5" y="-323.5" font-family="Helvetica,sans-Serif" font-size="10.00" fill="#000000">mutt_buffer_pool_get</text>
</a>
</g>
</g>
<!-- Node10354&#45;&gt;Node10355 -->
<g id="edge1" class="edge">
<title>Node10354&#45;&gt;Node10355</title>
<path fill="none" stroke="#191970" d="M66.6842,-171.5097C77.2595,-197.5115 110.3067,-270.291 162,-307 164.7389,-308.945 167.6662,-310.6908 170.7135,-312.258"/>
<polygon fill="#191970" stroke="#191970" points="169.5872,-315.5873 180.1473,-316.4439 172.4262,-309.1889 169.5872,-315.5873"/>
</g>
<!-- Node10363 -->
<g id="node3" class="node">
<title>Node10363</title>
<g id="a_node3"><a xlink:href="helpers_8c.html#ac477c591155aa4ae0452bbabc0affffe" target="_top" xlink:title="Get a string config item by name. ">
<polygon fill="#ffffff" stroke="#ff0000" points="183.5,-278.5 183.5,-297.5 281.5,-297.5 281.5,-278.5 183.5,-278.5"/>
<text text-anchor="middle" x="232.5" y="-285.5" font-family="Helvetica,sans-Serif" font-size="10.00" fill="#000000">cs_subset_string</text>
</a>
</g>
</g>
<!-- Node10354&#45;&gt;Node10363 -->
<g id="edge2" class="edge">
<title>Node10354&#45;&gt;Node10363</title>
<path fill="none" stroke="#191970" d="M69.1283,-171.6766C82.9851,-192.7415 118.9003,-242.9457 162,-269 165.6613,-271.2133 169.5825,-273.1732 173.6315,-274.9081"/>
<polygon fill="#191970" stroke="#191970" points="172.6578,-278.2822 183.2489,-278.5612 175.1434,-271.7384 172.6578,-278.2822"/>
</g>
<!-- Node10385 -->
<g id="node4" class="node">
<title>Node10385</title>
<g id="a_node4"><a xlink:href="file_8c.html#aea349ade5677e5139606fdc8b44c8e00" target="_top" xlink:title="Replace s in a string with a filename. ">
<polygon fill="#ffffff" stroke="#ff0000" points="165,-229 165,-259 300,-259 300,-229 165,-229"/>
<text text-anchor="start" x="173" y="-247" font-family="Helvetica,sans-Serif" font-size="10.00" fill="#000000">mutt_buffer_file_expand</text>
<text text-anchor="middle" x="232.5" y="-236" font-family="Helvetica,sans-Serif" font-size="10.00" fill="#000000">_fmt_quote</text>
</a>
</g>
</g>
<!-- Node10354&#45;&gt;Node10385 -->
<g id="edge3" class="edge">
<title>Node10354&#45;&gt;Node10385</title>
<path fill="none" stroke="#191970" d="M77.6441,-171.5637C96.5805,-183.6624 130.8356,-204.6473 162,-219 166.6721,-221.1517 171.5862,-223.2361 176.5556,-225.2225"/>
<polygon fill="#191970" stroke="#191970" points="175.5412,-228.5824 186.1308,-228.9134 178.0589,-222.0509 175.5412,-228.5824"/>
</g>
<!-- Node10394 -->
<g id="node5" class="node">
<title>Node10394</title>
<g id="a_node5"><a xlink:href="filter_8c.html#a81a0bae52b713e896cc8b220cc119262" target="_top" xlink:title="Set up filter program. ">
<polygon fill="#ffffff" stroke="#ff0000" points="195,-190.5 195,-209.5 270,-209.5 270,-190.5 195,-190.5"/>
<text text-anchor="middle" x="232.5" y="-197.5" font-family="Helvetica,sans-Serif" font-size="10.00" fill="#000000">filter_create</text>
</a>
</g>
</g>
<!-- Node10354&#45;&gt;Node10394 -->
<g id="edge4" class="edge">
<title>Node10354&#45;&gt;Node10394</title>
<path fill="none" stroke="#191970" d="M105.772,-171.589C129.907,-176.9998 160.1184,-183.7729 184.9891,-189.3486"/>
<polygon fill="#191970" stroke="#191970" points="184.4116,-192.8059 194.935,-191.5784 185.9429,-185.9755 184.4116,-192.8059"/>
</g>
<!-- Node10399 -->
<g id="node6" class="node">
<title>Node10399</title>
<g id="a_node6"><a xlink:href="pool_8c.html#a08b48e2ac8849341888ee7429cc5093c" target="_top" xlink:title="Free a Buffer from the pool. ">
<polygon fill="#ffffff" stroke="#ff0000" points="162,-152.5 162,-171.5 303,-171.5 303,-152.5 162,-152.5"/>
<text text-anchor="middle" x="232.5" y="-159.5" font-family="Helvetica,sans-Serif" font-size="10.00" fill="#000000">mutt_buffer_pool_release</text>
</a>
</g>
</g>
<!-- Node10354&#45;&gt;Node10399 -->
<g id="edge5" class="edge">
<title>Node10354&#45;&gt;Node10399</title>
<path fill="none" stroke="#191970" d="M126.1155,-162C134.5043,-162 143.1961,-162 151.8313,-162"/>
<polygon fill="#191970" stroke="#191970" points="151.9208,-165.5001 161.9207,-162 151.9207,-158.5001 151.9208,-165.5001"/>
</g>
<!-- Node10401 -->
<g id="node7" class="node">
<title>Node10401</title>
<g id="a_node7"><a xlink:href="file_8c.html#a81b7082d89a1fc17d74b7495648ea06e" target="_top" xlink:title="Read a line from a file. ">
<polygon fill="#ffffff" stroke="#ff0000" points="177.5,-114.5 177.5,-133.5 287.5,-133.5 287.5,-114.5 177.5,-114.5"/>
<text text-anchor="middle" x="232.5" y="-121.5" font-family="Helvetica,sans-Serif" font-size="10.00" fill="#000000">mutt_file_read_line</text>
</a>
</g>
</g>
<!-- Node10354&#45;&gt;Node10401 -->
<g id="edge6" class="edge">
<title>Node10354&#45;&gt;Node10401</title>
<path fill="none" stroke="#191970" d="M105.772,-152.411C128.3409,-147.3513 156.2232,-141.1004 180.0833,-135.7512"/>
<polygon fill="#191970" stroke="#191970" points="181.0435,-139.1229 190.0356,-133.5201 179.5121,-132.2925 181.0435,-139.1229"/>
</g>
<!-- Node10402 -->
<g id="node8" class="node">
<title>Node10402</title>
<g id="a_node8"><a xlink:href="parse_8c.html#a44cbe20da647bd7112cf1f4857ad01a3" target="_top" xlink:title="Parse a content type. ">
<polygon fill="#ffffff" stroke="#ff0000" points="162,-76.5 162,-95.5 303,-95.5 303,-76.5 162,-76.5"/>
<text text-anchor="middle" x="232.5" y="-83.5" font-family="Helvetica,sans-Serif" font-size="10.00" fill="#000000">mutt_parse_content_type</text>
</a>
</g>
</g>
<!-- Node10354&#45;&gt;Node10402 -->
<g id="edge7" class="edge">
<title>Node10354&#45;&gt;Node10402</title>
<path fill="none" stroke="#191970" d="M76.8317,-152.4821C95.447,-140.0437 129.9363,-118.286 162,-105 167.8407,-102.5798 174.0816,-100.3815 180.3449,-98.4104"/>
<polygon fill="#191970" stroke="#191970" points="181.5602,-101.7007 190.1516,-95.5009 179.5691,-94.9899 181.5602,-101.7007"/>
</g>
<!-- Node10459 -->
<g id="node9" class="node">
<title>Node10459</title>
<g id="a_node9"><a xlink:href="file_8c.html#a31f49795ff5b9558db5476e5777e63b6" target="_top" xlink:title="Close a FILE handle (and NULL the pointer) ">
<polygon fill="#ffffff" stroke="#000000" points="185,-38.5 185,-57.5 280,-57.5 280,-38.5 185,-38.5"/>
<text text-anchor="middle" x="232.5" y="-45.5" font-family="Helvetica,sans-Serif" font-size="10.00" fill="#000000">mutt_file_fclose</text>
</a>
</g>
</g>
<!-- Node10354&#45;&gt;Node10459 -->
<g id="edge8" class="edge">
<title>Node10354&#45;&gt;Node10459</title>
<path fill="none" stroke="#191970" d="M70.2946,-152.279C85.2826,-133.0046 121.5519,-89.8387 162,-67 166.1945,-64.6316 170.6972,-62.5477 175.3241,-60.7159"/>
<polygon fill="#191970" stroke="#191970" points="176.6861,-63.9464 184.9369,-57.3 174.3422,-57.3505 176.6861,-63.9464"/>
</g>
<!-- Node10460 -->
<g id="node10" class="node">
<title>Node10460</title>
<g id="a_node10"><a xlink:href="filter_8c.html#a22c6912b837b1114c3276c990e73dca3" target="_top" xlink:title="Wait for the exit of a process and return its status. ">
<polygon fill="#ffffff" stroke="#ff0000" points="200,-.5 200,-19.5 265,-19.5 265,-.5 200,-.5"/>
<text text-anchor="middle" x="232.5" y="-7.5" font-family="Helvetica,sans-Serif" font-size="10.00" fill="#000000">filter_wait</text>
</a>
</g>
</g>
<!-- Node10354&#45;&gt;Node10460 -->
<g id="edge9" class="edge">
<title>Node10354&#45;&gt;Node10460</title>
<path fill="none" stroke="#191970" d="M67.4116,-152.2178C79.0727,-127.5052 113.2007,-62.1767 162,-29 170.2472,-23.3931 180.0835,-19.4379 189.7534,-16.6488"/>
<polygon fill="#191970" stroke="#191970" points="190.8545,-19.9809 199.6966,-14.1441 189.1446,-13.1929 190.8545,-19.9809"/>
</g>
</g>
</svg>
