<?xml version="1.0" encoding="UTF-8" standalone="no"?>
<!DOCTYPE svg PUBLIC "-//W3C//DTD SVG 1.1//EN"
 "http://www.w3.org/Graphics/SVG/1.1/DTD/svg11.dtd">
<!-- Generated by graphviz version 2.40.1 (20161225.0304)
 -->
<!-- Title: send.c Pages: 1 -->
<svg width="2903pt" height="196pt"
 viewBox="0.00 0.00 2902.95 196.00" xmlns="http://www.w3.org/2000/svg" xmlns:xlink="http://www.w3.org/1999/xlink">
<g id="graph0" class="graph" transform="scale(1 1) rotate(0) translate(4 192)">
<title>send.c</title>
<polygon fill="#ffffff" stroke="transparent" points="-4,4 -4,-192 2898.9473,-192 2898.9473,4 -4,4"/>
<!-- Node0 -->
<g id="node1" class="node">
<title>Node0</title>
<polygon fill="#bfbfbf" stroke="#000000" points="1367.4659,-168.5 1367.4659,-187.5 1415.4659,-187.5 1415.4659,-168.5 1367.4659,-168.5"/>
<text text-anchor="middle" x="1391.4659" y="-175.5" font-family="Helvetica,sans-Serif" font-size="10.00" fill="#000000">send.c</text>
</g>
<!-- Node1 -->
<g id="node2" class="node">
<title>Node1</title>
<polygon fill="#ffffff" stroke="#bfbfbf" points="371.9659,-.5 371.9659,-19.5 426.9659,-19.5 426.9659,-.5 371.9659,-.5"/>
<text text-anchor="middle" x="399.4659" y="-7.5" font-family="Helvetica,sans-Serif" font-size="10.00" fill="#000000">config.h</text>
</g>
<!-- Node0&#45;&gt;Node1 -->
<g id="edge1" class="edge">
<title>Node0&#45;&gt;Node1</title>
<path fill="none" stroke="#191970" d="M1367.3014,-177.6603C1184.9197,-175.0413 31.1123,-157.4785 6.4659,-132 -45.8105,-77.9585 253.5715,-30.3066 361.6662,-15.0722"/>
<polygon fill="#191970" stroke="#191970" points="362.3871,-18.5056 371.8084,-13.6591 361.421,-11.5726 362.3871,-18.5056"/>
</g>
<!-- Node2 -->
<g id="node3" class="node">
<title>Node2</title>
<polygon fill="#ffffff" stroke="#bfbfbf" points="15.9659,-112.5 15.9659,-131.5 66.9659,-131.5 66.9659,-112.5 15.9659,-112.5"/>
<text text-anchor="middle" x="41.4659" y="-119.5" font-family="Helvetica,sans-Serif" font-size="10.00" fill="#000000">errno.h</text>
</g>
<!-- Node0&#45;&gt;Node2 -->
<g id="edge2" class="edge">
<title>Node0&#45;&gt;Node2</title>
<path fill="none" stroke="#191970" d="M1367.4439,-177.5236C1203.3247,-174.222 248.9263,-154.2591 77.2497,-131.7752"/>
<polygon fill="#191970" stroke="#191970" points="77.7,-128.3039 67.2998,-130.3252 76.6905,-135.2307 77.7,-128.3039"/>
</g>
<!-- Node3 -->
<g id="node4" class="node">
<title>Node3</title>
<polygon fill="#ffffff" stroke="#bfbfbf" points="84.9659,-112.5 84.9659,-131.5 139.9659,-131.5 139.9659,-112.5 84.9659,-112.5"/>
<text text-anchor="middle" x="112.4659" y="-119.5" font-family="Helvetica,sans-Serif" font-size="10.00" fill="#000000">locale.h</text>
</g>
<!-- Node0&#45;&gt;Node3 -->
<g id="edge3" class="edge">
<title>Node0&#45;&gt;Node3</title>
<path fill="none" stroke="#191970" d="M1367.2667,-177.8759C1217.6646,-176.9937 416.7063,-170.5824 150.2444,-131.9127"/>
<polygon fill="#191970" stroke="#191970" points="150.6428,-128.4333 140.2331,-130.4049 149.6003,-135.3552 150.6428,-128.4333"/>
</g>
<!-- Node4 -->
<g id="node5" class="node">
<title>Node4</title>
<polygon fill="#ffffff" stroke="#bfbfbf" points="1765.4659,-.5 1765.4659,-19.5 1827.4659,-19.5 1827.4659,-.5 1765.4659,-.5"/>
<text text-anchor="middle" x="1796.4659" y="-7.5" font-family="Helvetica,sans-Serif" font-size="10.00" fill="#000000">stdbool.h</text>
</g>
<!-- Node0&#45;&gt;Node4 -->
<g id="edge4" class="edge">
<title>Node0&#45;&gt;Node4</title>
<path fill="none" stroke="#191970" d="M1415.6685,-177.5744C1523.2435,-175.5042 1958.5192,-165.1968 2090.4659,-132 2148.7164,-117.3446 2180.9626,-126.5117 2213.4659,-76 2218.2759,-68.525 2219.3967,-62.621 2213.4659,-56 2188.6487,-28.2946 1937.9334,-15.5152 1837.6244,-11.4819"/>
<polygon fill="#191970" stroke="#191970" points="1837.6863,-7.9817 1827.5566,-11.0863 1837.4114,-14.9763 1837.6863,-7.9817"/>
</g>
<!-- Node5 -->
<g id="node6" class="node">
<title>Node5</title>
<polygon fill="#ffffff" stroke="#bfbfbf" points="1021.4659,-.5 1021.4659,-19.5 1071.4659,-19.5 1071.4659,-.5 1021.4659,-.5"/>
<text text-anchor="middle" x="1046.4659" y="-7.5" font-family="Helvetica,sans-Serif" font-size="10.00" fill="#000000">stdio.h</text>
</g>
<!-- Node0&#45;&gt;Node5 -->
<g id="edge5" class="edge">
<title>Node0&#45;&gt;Node5</title>
<path fill="none" stroke="#191970" d="M1367.136,-177.0735C1266.955,-173.1088 889.4154,-156.6432 842.4659,-132 813.9466,-117.0306 807.3236,-106.3239 796.4659,-76 793.4694,-67.6314 790.7776,-62.8305 796.4659,-56 823.363,-23.7023 948.6417,-14.0007 1011.0064,-11.1503"/>
<polygon fill="#191970" stroke="#191970" points="1011.3237,-14.6401 1021.1671,-10.7213 1011.0284,-7.6463 1011.3237,-14.6401"/>
</g>
<!-- Node6 -->
<g id="node7" class="node">
<title>Node6</title>
<polygon fill="#ffffff" stroke="#bfbfbf" points="275.9659,-112.5 275.9659,-131.5 328.9659,-131.5 328.9659,-112.5 275.9659,-112.5"/>
<text text-anchor="middle" x="302.4659" y="-119.5" font-family="Helvetica,sans-Serif" font-size="10.00" fill="#000000">string.h</text>
</g>
<!-- Node0&#45;&gt;Node6 -->
<g id="edge6" class="edge">
<title>Node0&#45;&gt;Node6</title>
<path fill="none" stroke="#191970" d="M1367.0705,-177.6869C1231.254,-175.8317 566.6313,-165.2568 339.2253,-131.6759"/>
<polygon fill="#191970" stroke="#191970" points="339.4693,-128.1723 329.0534,-130.1112 338.405,-135.0909 339.4693,-128.1723"/>
</g>
<!-- Node7 -->
<g id="node8" class="node">
<title>Node7</title>
<polygon fill="#ffffff" stroke="#bfbfbf" points="347.4659,-112.5 347.4659,-131.5 411.4659,-131.5 411.4659,-112.5 347.4659,-112.5"/>
<text text-anchor="middle" x="379.4659" y="-119.5" font-family="Helvetica,sans-Serif" font-size="10.00" fill="#000000">sys/stat.h</text>
</g>
<!-- Node0&#45;&gt;Node7 -->
<g id="edge7" class="edge">
<title>Node0&#45;&gt;Node7</title>
<path fill="none" stroke="#191970" d="M1367.4318,-177.3989C1237.2918,-174.0613 615.8587,-157.0506 425.4659,-132 424.1897,-131.8321 422.8964,-131.647 421.593,-131.4474"/>
<polygon fill="#191970" stroke="#191970" points="421.9711,-127.9604 411.5168,-129.6806 420.762,-134.8552 421.9711,-127.9604"/>
</g>
<!-- Node8 -->
<g id="node9" class="node">
<title>Node8</title>
<polygon fill="#ffffff" stroke="#bfbfbf" points="2669.4659,-.5 2669.4659,-19.5 2717.4659,-19.5 2717.4659,-.5 2669.4659,-.5"/>
<text text-anchor="middle" x="2693.4659" y="-7.5" font-family="Helvetica,sans-Serif" font-size="10.00" fill="#000000">time.h</text>
</g>
<!-- Node0&#45;&gt;Node8 -->
<g id="edge8" class="edge">
<title>Node0&#45;&gt;Node8</title>
<path fill="none" stroke="#191970" d="M1415.6608,-177.7093C1604.7615,-175.3817 2839.1407,-159.1596 2865.4659,-132 2914.8253,-81.0761 2790.997,-37.3637 2727.821,-19.1078"/>
<polygon fill="#191970" stroke="#191970" points="2728.449,-15.6483 2717.8742,-16.2987 2726.5465,-22.3848 2728.449,-15.6483"/>
</g>
<!-- Node9 -->
<g id="node10" class="node">
<title>Node9</title>
<polygon fill="#ffffff" stroke="#bfbfbf" points="467.4659,-112.5 467.4659,-131.5 523.4659,-131.5 523.4659,-112.5 467.4659,-112.5"/>
<text text-anchor="middle" x="495.4659" y="-119.5" font-family="Helvetica,sans-Serif" font-size="10.00" fill="#000000">unistd.h</text>
</g>
<!-- Node0&#45;&gt;Node9 -->
<g id="edge9" class="edge">
<title>Node0&#45;&gt;Node9</title>
<path fill="none" stroke="#191970" d="M1367.0919,-177.2803C1245.5333,-173.6006 704.0668,-156.1199 537.4659,-132 536.2141,-131.8188 534.9448,-131.618 533.6658,-131.401"/>
<polygon fill="#191970" stroke="#191970" points="534.284,-127.9557 523.7989,-129.4764 532.9438,-134.8262 534.284,-127.9557"/>
</g>
<!-- Node10 -->
<g id="node11" class="node">
<title>Node10</title>
<g id="a_node11"><a xlink:href="mutt_2lib_8h.html" target="_top" xlink:title="Convenience wrapper for the library headers. ">
<polygon fill="#ffffff" stroke="#ff0000" points="1512.4659,-56.5 1512.4659,-75.5 1576.4659,-75.5 1576.4659,-56.5 1512.4659,-56.5"/>
<text text-anchor="middle" x="1544.4659" y="-63.5" font-family="Helvetica,sans-Serif" font-size="10.00" fill="#000000">mutt/lib.h</text>
</a>
</g>
</g>
<!-- Node0&#45;&gt;Node10 -->
<g id="edge10" class="edge">
<title>Node0&#45;&gt;Node10</title>
<path fill="none" stroke="#191970" d="M1415.5237,-170.2868C1436.6707,-162.7373 1467.5588,-149.7789 1490.4659,-132 1507.7351,-118.5968 1523.0478,-98.6983 1532.9158,-84.2562"/>
<polygon fill="#191970" stroke="#191970" points="1535.9912,-85.9504 1538.5801,-75.6768 1530.1495,-82.0936 1535.9912,-85.9504"/>
</g>
<!-- Node48 -->
<g id="node12" class="node">
<title>Node48</title>
<g id="a_node12"><a xlink:href="address_2lib_8h.html" target="_top" xlink:title="Email Address Handling. ">
<polygon fill="#ffffff" stroke="#ff0000" points="579.9659,-112.5 579.9659,-131.5 658.9659,-131.5 658.9659,-112.5 579.9659,-112.5"/>
<text text-anchor="middle" x="619.4659" y="-119.5" font-family="Helvetica,sans-Serif" font-size="10.00" fill="#000000">address/lib.h</text>
</a>
</g>
</g>
<!-- Node0&#45;&gt;Node48 -->
<g id="edge11" class="edge">
<title>Node0&#45;&gt;Node48</title>
<path fill="none" stroke="#191970" d="M1367.1948,-177.4931C1275.8699,-175.3639 944.3104,-165.6328 673.4659,-132 672.1619,-131.8381 670.8419,-131.6646 669.5113,-131.4813"/>
<polygon fill="#191970" stroke="#191970" points="669.6069,-127.9557 659.1943,-129.9119 668.5542,-134.8761 669.6069,-127.9557"/>
</g>
<!-- Node52 -->
<g id="node13" class="node">
<title>Node52</title>
<g id="a_node13"><a xlink:href="config_2lib_8h.html" target="_top" xlink:title="Convenience wrapper for the config headers. ">
<polygon fill="#ffffff" stroke="#ff0000" points="2486.4659,-.5 2486.4659,-19.5 2556.4659,-19.5 2556.4659,-.5 2486.4659,-.5"/>
<text text-anchor="middle" x="2521.4659" y="-7.5" font-family="Helvetica,sans-Serif" font-size="10.00" fill="#000000">config/lib.h</text>
</a>
</g>
</g>
<!-- Node0&#45;&gt;Node52 -->
<g id="edge12" class="edge">
<title>Node0&#45;&gt;Node52</title>
<path fill="none" stroke="#191970" d="M1415.6958,-177.7004C1603.7379,-175.3198 2823.4445,-158.8553 2849.4659,-132 2891.8813,-88.2253 2666.3105,-38.1235 2566.7844,-18.5045"/>
<polygon fill="#191970" stroke="#191970" points="2567.1943,-15.0185 2556.709,-16.5377 2565.8532,-21.8888 2567.1943,-15.0185"/>
</g>
<!-- Node70 -->
<g id="node14" class="node">
<title>Node70</title>
<g id="a_node14"><a xlink:href="email_2lib_8h.html" target="_top" xlink:title="Structs that make up an email. ">
<polygon fill="#ffffff" stroke="#ff0000" points="1594.4659,-56.5 1594.4659,-75.5 1662.4659,-75.5 1662.4659,-56.5 1594.4659,-56.5"/>
<text text-anchor="middle" x="1628.4659" y="-63.5" font-family="Helvetica,sans-Serif" font-size="10.00" fill="#000000">email/lib.h</text>
</a>
</g>
</g>
<!-- Node0&#45;&gt;Node70 -->
<g id="edge13" class="edge">
<title>Node0&#45;&gt;Node70</title>
<path fill="none" stroke="#191970" d="M1415.8727,-177.0429C1470.8476,-174.3223 1601.6677,-164.4996 1628.4659,-132 1638.9219,-119.3194 1637.6609,-100.1287 1634.5304,-85.7042"/>
<polygon fill="#191970" stroke="#191970" points="1637.8534,-84.5773 1631.9352,-75.7895 1631.0816,-86.3498 1637.8534,-84.5773"/>
</g>
<!-- Node87 -->
<g id="node15" class="node">
<title>Node87</title>
<g id="a_node15"><a xlink:href="core_2lib_8h.html" target="_top" xlink:title="Convenience wrapper for the core headers. ">
<polygon fill="#ffffff" stroke="#ff0000" points="2801.4659,-.5 2801.4659,-19.5 2863.4659,-19.5 2863.4659,-.5 2801.4659,-.5"/>
<text text-anchor="middle" x="2832.4659" y="-7.5" font-family="Helvetica,sans-Serif" font-size="10.00" fill="#000000">core/lib.h</text>
</a>
</g>
</g>
<!-- Node0&#45;&gt;Node87 -->
<g id="edge14" class="edge">
<title>Node0&#45;&gt;Node87</title>
<path fill="none" stroke="#191970" d="M1415.6696,-177.719C1606.1874,-175.4514 2857.7821,-159.5186 2884.4659,-132 2913.8071,-101.7409 2874.595,-52.3728 2849.8692,-26.698"/>
<polygon fill="#191970" stroke="#191970" points="2852.2846,-24.1633 2842.7527,-19.538 2847.3198,-29.0979 2852.2846,-24.1633"/>
</g>
<!-- Node91 -->
<g id="node16" class="node">
<title>Node91</title>
<g id="a_node16"><a xlink:href="alias_2lib_8h.html" target="_top" xlink:title="Email Aliases. ">
<polygon fill="#ffffff" stroke="#ff0000" points="1824.4659,-56.5 1824.4659,-75.5 1888.4659,-75.5 1888.4659,-56.5 1824.4659,-56.5"/>
<text text-anchor="middle" x="1856.4659" y="-63.5" font-family="Helvetica,sans-Serif" font-size="10.00" fill="#000000">alias/lib.h</text>
</a>
</g>
</g>
<!-- Node0&#45;&gt;Node91 -->
<g id="edge15" class="edge">
<title>Node0&#45;&gt;Node91</title>
<path fill="none" stroke="#191970" d="M1415.6789,-177.6319C1511.0622,-175.9354 1857.2156,-167.3665 1889.4659,-132 1902.43,-117.7832 1888.8248,-97.5315 1875.3631,-83.2191"/>
<polygon fill="#191970" stroke="#191970" points="1877.6243,-80.5314 1868.0688,-75.9549 1872.6847,-85.4914 1877.6243,-80.5314"/>
</g>
<!-- Node93 -->
<g id="node17" class="node">
<title>Node93</title>
<g id="a_node17"><a xlink:href="gui_2lib_8h.html" target="_top" xlink:title="Convenience wrapper for the gui headers. ">
<polygon fill="#ffffff" stroke="#ff0000" points="851.4659,-112.5 851.4659,-131.5 907.4659,-131.5 907.4659,-112.5 851.4659,-112.5"/>
<text text-anchor="middle" x="879.4659" y="-119.5" font-family="Helvetica,sans-Serif" font-size="10.00" fill="#000000">gui/lib.h</text>
</a>
</g>
</g>
<!-- Node0&#45;&gt;Node93 -->
<g id="edge17" class="edge">
<title>Node0&#45;&gt;Node93</title>
<path fill="none" stroke="#191970" d="M1367.2971,-177.0889C1298.4154,-174.1922 1095.1637,-163.5597 917.6744,-131.9508"/>
<polygon fill="#191970" stroke="#191970" points="918.0998,-128.471 907.6366,-130.1354 916.8541,-135.3593 918.0998,-128.471"/>
</g>
<!-- Node96 -->
<g id="node18" class="node">
<title>Node96</title>
<g id="a_node18"><a xlink:href="mutt_8h.html" target="_top" xlink:title="Many unsorted constants and some structs. ">
<polygon fill="#ffffff" stroke="#ff0000" points="257.9659,-56.5 257.9659,-75.5 306.9659,-75.5 306.9659,-56.5 257.9659,-56.5"/>
<text text-anchor="middle" x="282.4659" y="-63.5" font-family="Helvetica,sans-Serif" font-size="10.00" fill="#000000">mutt.h</text>
</a>
</g>
</g>
<!-- Node0&#45;&gt;Node96 -->
<g id="edge18" class="edge">
<title>Node0&#45;&gt;Node96</title>
<path fill="none" stroke="#191970" d="M1367.3479,-177.948C1207.5777,-177.4888 306.8987,-173.0796 267.4659,-132 255.4508,-119.4831 262.286,-99.4485 270.2237,-84.7325"/>
<polygon fill="#191970" stroke="#191970" points="273.3326,-86.3512 275.412,-75.9624 267.308,-82.787 273.3326,-86.3512"/>
</g>
<!-- Node106 -->
<g id="node19" class="node">
<title>Node106</title>
<g id="a_node19"><a xlink:href="send_8h.html" target="_top" xlink:title="Prepare and send an email. ">
<polygon fill="#ffffff" stroke="#ff0000" points="1718.9659,-56.5 1718.9659,-75.5 1767.9659,-75.5 1767.9659,-56.5 1718.9659,-56.5"/>
<text text-anchor="middle" x="1743.4659" y="-63.5" font-family="Helvetica,sans-Serif" font-size="10.00" fill="#000000">send.h</text>
</a>
</g>
</g>
<!-- Node0&#45;&gt;Node106 -->
<g id="edge20" class="edge">
<title>Node0&#45;&gt;Node106</title>
<path fill="none" stroke="#191970" d="M1415.4844,-176.9288C1461.6595,-174.1695 1565.3354,-164.5573 1645.4659,-132 1675.6241,-119.7466 1706.0514,-97.3225 1724.825,-82.0462"/>
<polygon fill="#191970" stroke="#191970" points="1727.1356,-84.6769 1732.5878,-75.5926 1722.6606,-79.2941 1727.1356,-84.6769"/>
</g>
<!-- Node107 -->
<g id="node20" class="node">
<title>Node107</title>
<g id="a_node20"><a xlink:href="compose_8h.html" target="_top" xlink:title="GUI editor for an email&#39;s headers. ">
<polygon fill="#ffffff" stroke="#000000" points="1037.4659,-112.5 1037.4659,-131.5 1107.4659,-131.5 1107.4659,-112.5 1037.4659,-112.5"/>
<text text-anchor="middle" x="1072.4659" y="-119.5" font-family="Helvetica,sans-Serif" font-size="10.00" fill="#000000">compose.h</text>
</a>
</g>
</g>
<!-- Node0&#45;&gt;Node107 -->
<g id="edge23" class="edge">
<title>Node0&#45;&gt;Node107</title>
<path fill="none" stroke="#191970" d="M1367.216,-174.1403C1319.8831,-166.5465 1211.9054,-148.928 1121.4659,-132 1120.1938,-131.7619 1118.9037,-131.5176 1117.602,-131.2687"/>
<polygon fill="#191970" stroke="#191970" points="1117.9882,-127.778 1107.5025,-129.2946 1116.6453,-134.648 1117.9882,-127.778"/>
</g>
<!-- Node108 -->
<g id="node21" class="node">
<title>Node108</title>
<g id="a_node21"><a xlink:href="context_8h.html" target="_top" xlink:title="The &quot;currently&#45;open&quot; mailbox. ">
<polygon fill="#ffffff" stroke="#ff0000" points="2062.4659,-56.5 2062.4659,-75.5 2124.4659,-75.5 2124.4659,-56.5 2062.4659,-56.5"/>
<text text-anchor="middle" x="2093.4659" y="-63.5" font-family="Helvetica,sans-Serif" font-size="10.00" fill="#000000">context.h</text>
</a>
</g>
</g>
<!-- Node0&#45;&gt;Node108 -->
<g id="edge24" class="edge">
<title>Node0&#45;&gt;Node108</title>
<path fill="none" stroke="#191970" d="M1415.7831,-177.2436C1525.4398,-173.6982 1971.0208,-157.805 2027.4659,-132 2050.1339,-121.6369 2069.3885,-99.9009 2081.1483,-84.1995"/>
<polygon fill="#191970" stroke="#191970" points="2084.1984,-85.9516 2087.1754,-75.7836 2078.5073,-81.8759 2084.1984,-85.9516"/>
</g>
<!-- Node109 -->
<g id="node22" class="node">
<title>Node109</title>
<g id="a_node22"><a xlink:href="copy_8h.html" target="_top" xlink:title="Duplicate the structure of an entire email. ">
<polygon fill="#ffffff" stroke="#ff0000" points="401.9659,-56.5 401.9659,-75.5 448.9659,-75.5 448.9659,-56.5 401.9659,-56.5"/>
<text text-anchor="middle" x="425.4659" y="-63.5" font-family="Helvetica,sans-Serif" font-size="10.00" fill="#000000">copy.h</text>
</a>
</g>
</g>
<!-- Node0&#45;&gt;Node109 -->
<g id="edge26" class="edge">
<title>Node0&#45;&gt;Node109</title>
<path fill="none" stroke="#191970" d="M1367.1698,-177.4919C1224.2213,-174.4164 497.6395,-157.565 458.4659,-132 442.5812,-121.6336 434.0321,-101.1807 429.6468,-85.7764"/>
<polygon fill="#191970" stroke="#191970" points="432.945,-84.5341 427.1442,-75.6684 426.1502,-86.2165 432.945,-84.5341"/>
</g>
<!-- Node110 -->
<g id="node23" class="node">
<title>Node110</title>
<g id="a_node23"><a xlink:href="edit_8h.html" target="_top" xlink:title="GUI basic built&#45;in text editor. ">
<polygon fill="#ffffff" stroke="#000000" points="1201.4659,-112.5 1201.4659,-131.5 1245.4659,-131.5 1245.4659,-112.5 1201.4659,-112.5"/>
<text text-anchor="middle" x="1223.4659" y="-119.5" font-family="Helvetica,sans-Serif" font-size="10.00" fill="#000000">edit.h</text>
</a>
</g>
</g>
<!-- Node0&#45;&gt;Node110 -->
<g id="edge29" class="edge">
<title>Node0&#45;&gt;Node110</title>
<path fill="none" stroke="#191970" d="M1367.3956,-169.9766C1337.8773,-160.1371 1287.7571,-143.4304 1255.1363,-132.5568"/>
<polygon fill="#191970" stroke="#191970" points="1256.2102,-129.2255 1245.6166,-129.3836 1253.9966,-135.8663 1256.2102,-129.2255"/>
</g>
<!-- Node111 -->
<g id="node24" class="node">
<title>Node111</title>
<g id="a_node24"><a xlink:href="globals_8h.html" target="_top" xlink:title="Hundreds of global variables to back the user variables. ">
<polygon fill="#ffffff" stroke="#ff0000" points="1818.9659,-112.5 1818.9659,-131.5 1879.9659,-131.5 1879.9659,-112.5 1818.9659,-112.5"/>
<text text-anchor="middle" x="1849.4659" y="-119.5" font-family="Helvetica,sans-Serif" font-size="10.00" fill="#000000">globals.h</text>
</a>
</g>
</g>
<!-- Node0&#45;&gt;Node111 -->
<g id="edge30" class="edge">
<title>Node0&#45;&gt;Node111</title>
<path fill="none" stroke="#191970" d="M1415.7288,-176.543C1478.9536,-172.4922 1654.0523,-159.6486 1808.7414,-132.1091"/>
<polygon fill="#191970" stroke="#191970" points="1809.6812,-135.496 1818.8995,-130.2738 1808.4366,-128.6076 1809.6812,-135.496"/>
</g>
<!-- Node114 -->
<g id="node25" class="node">
<title>Node114</title>
<g id="a_node25"><a xlink:href="handler_8h.html" target="_top" xlink:title="Decide how to display email content. ">
<polygon fill="#ffffff" stroke="#ff0000" points="2142.4659,-56.5 2142.4659,-75.5 2204.4659,-75.5 2204.4659,-56.5 2142.4659,-56.5"/>
<text text-anchor="middle" x="2173.4659" y="-63.5" font-family="Helvetica,sans-Serif" font-size="10.00" fill="#000000">handler.h</text>
</a>
</g>
</g>
<!-- Node0&#45;&gt;Node114 -->
<g id="edge35" class="edge">
<title>Node0&#45;&gt;Node114</title>
<path fill="none" stroke="#191970" d="M1415.527,-177.7245C1519.5755,-176.3203 1931.1085,-168.5198 2054.4659,-132 2091.4623,-121.0473 2129.6872,-97.2072 2152.5153,-81.3811"/>
<polygon fill="#191970" stroke="#191970" points="2154.6125,-84.1848 2160.7534,-75.5512 2150.5688,-78.4708 2154.6125,-84.1848"/>
</g>
<!-- Node115 -->
<g id="node26" class="node">
<title>Node115</title>
<g id="a_node26"><a xlink:href="hdrline_8h.html" target="_top" xlink:title="String processing routines to generate the mail index. ">
<polygon fill="#ffffff" stroke="#ff0000" points="1177.9659,-56.5 1177.9659,-75.5 1236.9659,-75.5 1236.9659,-56.5 1177.9659,-56.5"/>
<text text-anchor="middle" x="1207.4659" y="-63.5" font-family="Helvetica,sans-Serif" font-size="10.00" fill="#000000">hdrline.h</text>
</a>
</g>
</g>
<!-- Node0&#45;&gt;Node115 -->
<g id="edge37" class="edge">
<title>Node0&#45;&gt;Node115</title>
<path fill="none" stroke="#191970" d="M1385.3125,-168.0893C1375.9733,-153.8055 1356.9122,-127.4545 1334.4659,-112 1319.9129,-101.9801 1278.4879,-87.8176 1246.8693,-77.8614"/>
<polygon fill="#191970" stroke="#191970" points="1247.5829,-74.4179 1236.9945,-74.7872 1245.5022,-81.1015 1247.5829,-74.4179"/>
</g>
<!-- Node117 -->
<g id="node27" class="node">
<title>Node117</title>
<g id="a_node27"><a xlink:href="hook_8h.html" target="_top" xlink:title="Parse and execute user&#45;defined hooks. ">
<polygon fill="#ffffff" stroke="#ff0000" points="631.4659,-56.5 631.4659,-75.5 681.4659,-75.5 681.4659,-56.5 631.4659,-56.5"/>
<text text-anchor="middle" x="656.4659" y="-63.5" font-family="Helvetica,sans-Serif" font-size="10.00" fill="#000000">hook.h</text>
</a>
</g>
</g>
<!-- Node0&#45;&gt;Node117 -->
<g id="edge40" class="edge">
<title>Node0&#45;&gt;Node117</title>
<path fill="none" stroke="#191970" d="M1367.2291,-177.2309C1271.2169,-174.0077 917.5384,-160.4159 809.4659,-132 789.0816,-126.6403 785.7478,-120.5119 766.4659,-112 740.848,-100.6911 711.5876,-88.4889 689.6883,-79.4954"/>
<polygon fill="#191970" stroke="#191970" points="690.7645,-76.1541 680.1839,-75.6039 688.112,-82.6321 690.7645,-76.1541"/>
</g>
<!-- Node118 -->
<g id="node28" class="node">
<title>Node118</title>
<g id="a_node28"><a xlink:href="init_8h.html" target="_top" xlink:title="Config/command parsing. ">
<polygon fill="#ffffff" stroke="#ff0000" points="715.9659,-112.5 715.9659,-131.5 756.9659,-131.5 756.9659,-112.5 715.9659,-112.5"/>
<text text-anchor="middle" x="736.4659" y="-119.5" font-family="Helvetica,sans-Serif" font-size="10.00" fill="#000000">init.h</text>
</a>
</g>
</g>
<!-- Node0&#45;&gt;Node118 -->
<g id="edge44" class="edge">
<title>Node0&#45;&gt;Node118</title>
<path fill="none" stroke="#191970" d="M1367.1322,-176.8604C1267.3372,-172.084 889.1532,-152.9512 771.4659,-132 769.9882,-131.7369 768.4835,-131.4366 766.9695,-131.1082"/>
<polygon fill="#191970" stroke="#191970" points="767.5798,-127.6533 757.0302,-128.6308 765.8868,-134.4455 767.5798,-127.6533"/>
</g>
<!-- Node119 -->
<g id="node29" class="node">
<title>Node119</title>
<g id="a_node29"><a xlink:href="maillist_8h.html" target="_top" xlink:title="Handle mailing lists. ">
<polygon fill="#ffffff" stroke="#ff0000" points="2298.4659,-56.5 2298.4659,-75.5 2360.4659,-75.5 2360.4659,-56.5 2298.4659,-56.5"/>
<text text-anchor="middle" x="2329.4659" y="-63.5" font-family="Helvetica,sans-Serif" font-size="10.00" fill="#000000">maillist.h</text>
</a>
</g>
</g>
<!-- Node0&#45;&gt;Node119 -->
<g id="edge50" class="edge">
<title>Node0&#45;&gt;Node119</title>
<path fill="none" stroke="#191970" d="M1415.7649,-177.5728C1546.8796,-175.1506 2166.9882,-162.1675 2246.4659,-132 2273.4349,-121.7633 2298.4838,-99.3328 2313.8601,-83.47"/>
<polygon fill="#191970" stroke="#191970" points="2316.695,-85.5633 2320.9781,-75.8728 2311.5868,-80.7773 2316.695,-85.5633"/>
</g>
<!-- Node120 -->
<g id="node30" class="node">
<title>Node120</title>
<g id="a_node30"><a xlink:href="mutt__attach_8h.html" target="_top" xlink:title="Handling of email attachments. ">
<polygon fill="#ffffff" stroke="#000000" points="1074.9659,-56.5 1074.9659,-75.5 1159.9659,-75.5 1159.9659,-56.5 1074.9659,-56.5"/>
<text text-anchor="middle" x="1117.4659" y="-63.5" font-family="Helvetica,sans-Serif" font-size="10.00" fill="#000000">mutt_attach.h</text>
</a>
</g>
</g>
<!-- Node0&#45;&gt;Node120 -->
<g id="edge52" class="edge">
<title>Node0&#45;&gt;Node120</title>
<path fill="none" stroke="#191970" d="M1367.1866,-176.2334C1328.338,-172.5872 1250.6637,-161.8861 1192.4659,-132 1168.7726,-119.8328 1146.5175,-98.5143 1132.5006,-83.4014"/>
<polygon fill="#191970" stroke="#191970" points="1134.8962,-80.8313 1125.6042,-75.7413 1129.6939,-85.515 1134.8962,-80.8313"/>
</g>
<!-- Node121 -->
<g id="node31" class="node">
<title>Node121</title>
<g id="a_node31"><a xlink:href="mutt__body_8h.html" target="_top" xlink:title="Representation of the body of an email. ">
<polygon fill="#ffffff" stroke="#000000" points="535.9659,-56.5 535.9659,-75.5 612.9659,-75.5 612.9659,-56.5 535.9659,-56.5"/>
<text text-anchor="middle" x="574.4659" y="-63.5" font-family="Helvetica,sans-Serif" font-size="10.00" fill="#000000">mutt_body.h</text>
</a>
</g>
</g>
<!-- Node0&#45;&gt;Node121 -->
<g id="edge55" class="edge">
<title>Node0&#45;&gt;Node121</title>
<path fill="none" stroke="#191970" d="M1367.3897,-177.6825C1261.3604,-176.0856 835.6324,-167.5402 707.4659,-132 688.6946,-126.7948 685.8818,-120.726 668.4659,-112 646.7486,-101.1189 622.0771,-89.0569 603.4603,-80.0152"/>
<polygon fill="#191970" stroke="#191970" points="604.8496,-76.7991 594.3246,-75.5845 601.7949,-83.0974 604.8496,-76.7991"/>
</g>
<!-- Node122 -->
<g id="node32" class="node">
<title>Node122</title>
<g id="a_node32"><a xlink:href="mutt__header_8h.html" target="_top" xlink:title="Representation of the email&#39;s header. ">
<polygon fill="#ffffff" stroke="#000000" points="1713.9659,-112.5 1713.9659,-131.5 1800.9659,-131.5 1800.9659,-112.5 1713.9659,-112.5"/>
<text text-anchor="middle" x="1757.4659" y="-119.5" font-family="Helvetica,sans-Serif" font-size="10.00" fill="#000000">mutt_header.h</text>
</a>
</g>
</g>
<!-- Node0&#45;&gt;Node122 -->
<g id="edge57" class="edge">
<title>Node0&#45;&gt;Node122</title>
<path fill="none" stroke="#191970" d="M1415.8504,-174.5483C1467.966,-167.1293 1594.0422,-148.9586 1699.4659,-132 1700.9161,-131.7667 1702.3863,-131.5281 1703.8697,-131.2855"/>
<polygon fill="#191970" stroke="#191970" points="1704.4874,-134.7309 1713.7791,-129.6404 1703.3409,-127.8255 1704.4874,-134.7309"/>
</g>
<!-- Node123 -->
<g id="node33" class="node">
<title>Node123</title>
<g id="a_node33"><a xlink:href="mutt__logging_8h.html" target="_top" xlink:title="NeoMutt Logging. ">
<polygon fill="#ffffff" stroke="#ff0000" points="2314.4659,-112.5 2314.4659,-131.5 2404.4659,-131.5 2404.4659,-112.5 2314.4659,-112.5"/>
<text text-anchor="middle" x="2359.4659" y="-119.5" font-family="Helvetica,sans-Serif" font-size="10.00" fill="#000000">mutt_logging.h</text>
</a>
</g>
</g>
<!-- Node0&#45;&gt;Node123 -->
<g id="edge58" class="edge">
<title>Node0&#45;&gt;Node123</title>
<path fill="none" stroke="#191970" d="M1415.727,-177.5078C1520.1737,-175.2297 1941.8048,-164.4053 2286.4659,-132 2292.2587,-131.4554 2298.2975,-130.7886 2304.312,-130.0602"/>
<polygon fill="#191970" stroke="#191970" points="2304.8825,-133.516 2314.3634,-128.7871 2304.0028,-126.5715 2304.8825,-133.516"/>
</g>
<!-- Node124 -->
<g id="node34" class="node">
<title>Node124</title>
<g id="a_node34"><a xlink:href="mutt__parse_8h.html" target="_top" xlink:title="Miscellaneous email parsing routines. ">
<polygon fill="#ffffff" stroke="#000000" points="1537.9659,-112.5 1537.9659,-131.5 1618.9659,-131.5 1618.9659,-112.5 1537.9659,-112.5"/>
<text text-anchor="middle" x="1578.4659" y="-119.5" font-family="Helvetica,sans-Serif" font-size="10.00" fill="#000000">mutt_parse.h</text>
</a>
</g>
</g>
<!-- Node0&#45;&gt;Node124 -->
<g id="edge62" class="edge">
<title>Node0&#45;&gt;Node124</title>
<path fill="none" stroke="#191970" d="M1415.53,-170.7936C1446.2272,-161.6009 1499.8002,-145.5576 1537.1014,-134.3872"/>
<polygon fill="#191970" stroke="#191970" points="1538.1079,-137.7395 1546.6835,-131.5177 1536.0997,-131.0337 1538.1079,-137.7395"/>
</g>
<!-- Node125 -->
<g id="node35" class="node">
<title>Node125</title>
<g id="a_node35"><a xlink:href="muttlib_8h.html" target="_top" xlink:title="Some miscellaneous functions. ">
<polygon fill="#ffffff" stroke="#ff0000" points="1263.9659,-112.5 1263.9659,-131.5 1324.9659,-131.5 1324.9659,-112.5 1263.9659,-112.5"/>
<text text-anchor="middle" x="1294.4659" y="-119.5" font-family="Helvetica,sans-Serif" font-size="10.00" fill="#000000">muttlib.h</text>
</a>
</g>
</g>
<!-- Node0&#45;&gt;Node125 -->
<g id="edge65" class="edge">
<title>Node0&#45;&gt;Node125</title>
<path fill="none" stroke="#191970" d="M1374.5698,-168.2455C1359.5479,-159.5731 1337.3616,-146.7645 1320.1449,-136.825"/>
<polygon fill="#191970" stroke="#191970" points="1321.5787,-133.6114 1311.1684,-131.6427 1318.0788,-139.6737 1321.5787,-133.6114"/>
</g>
<!-- Node126 -->
<g id="node36" class="node">
<title>Node126</title>
<g id="a_node36"><a xlink:href="options_8h.html" target="_top" xlink:title="Handling of global boolean variables. ">
<polygon fill="#ffffff" stroke="#ff0000" points="1906.4659,-56.5 1906.4659,-75.5 1968.4659,-75.5 1968.4659,-56.5 1906.4659,-56.5"/>
<text text-anchor="middle" x="1937.4659" y="-63.5" font-family="Helvetica,sans-Serif" font-size="10.00" fill="#000000">options.h</text>
</a>
</g>
</g>
<!-- Node0&#45;&gt;Node126 -->
<g id="edge69" class="edge">
<title>Node0&#45;&gt;Node126</title>
<path fill="none" stroke="#191970" d="M1415.7041,-177.2217C1512.0663,-173.9408 1864.7784,-160.0934 1905.4659,-132 1920.9812,-121.2872 1929.2537,-100.8886 1933.4714,-85.5916"/>
<polygon fill="#191970" stroke="#191970" points="1936.947,-86.1063 1935.8715,-75.5662 1930.1394,-84.4765 1936.947,-86.1063"/>
</g>
<!-- Node127 -->
<g id="node37" class="node">
<title>Node127</title>
<g id="a_node37"><a xlink:href="pattern_8h.html" target="_top" xlink:title="Match patterns to emails. ">
<polygon fill="#ffffff" stroke="#ff0000" points="157.9659,-112.5 157.9659,-131.5 218.9659,-131.5 218.9659,-112.5 157.9659,-112.5"/>
<text text-anchor="middle" x="188.4659" y="-119.5" font-family="Helvetica,sans-Serif" font-size="10.00" fill="#000000">pattern.h</text>
</a>
</g>
</g>
<!-- Node0&#45;&gt;Node127 -->
<g id="edge71" class="edge">
<title>Node0&#45;&gt;Node127</title>
<path fill="none" stroke="#191970" d="M1367.0854,-177.6261C1221.3473,-175.3015 463.9157,-161.9376 233.4659,-132 232.1713,-131.8318 230.8589,-131.6445 229.5364,-131.4411"/>
<polygon fill="#191970" stroke="#191970" points="229.7813,-127.9296 219.3221,-129.6195 228.5523,-134.8209 229.7813,-127.9296"/>
</g>
<!-- Node128 -->
<g id="node38" class="node">
<title>Node128</title>
<g id="a_node38"><a xlink:href="protos_8h.html" target="_top" xlink:title="Prototypes for many functions. ">
<polygon fill="#ffffff" stroke="#ff0000" points="925.4659,-112.5 925.4659,-131.5 981.4659,-131.5 981.4659,-112.5 925.4659,-112.5"/>
<text text-anchor="middle" x="953.4659" y="-119.5" font-family="Helvetica,sans-Serif" font-size="10.00" fill="#000000">protos.h</text>
</a>
</g>
</g>
<!-- Node0&#45;&gt;Node128 -->
<g id="edge76" class="edge">
<title>Node0&#45;&gt;Node128</title>
<path fill="none" stroke="#191970" d="M1367.2148,-176.1866C1305.0731,-171.3232 1135.1916,-156.6605 995.4659,-132 994.2203,-131.7802 992.9564,-131.5458 991.682,-131.2999"/>
<polygon fill="#191970" stroke="#191970" points="992.3432,-127.8625 981.8376,-129.235 990.9061,-134.7134 992.3432,-127.8625"/>
</g>
<!-- Node77 -->
<g id="node39" class="node">
<title>Node77</title>
<g id="a_node39"><a xlink:href="ncrypt_2lib_8h.html" target="_top" xlink:title="API for encryption/signing of emails. ">
<polygon fill="#ffffff" stroke="#ff0000" points="813.9659,-56.5 813.9659,-75.5 884.9659,-75.5 884.9659,-56.5 813.9659,-56.5"/>
<text text-anchor="middle" x="849.4659" y="-63.5" font-family="Helvetica,sans-Serif" font-size="10.00" fill="#000000">ncrypt/lib.h</text>
</a>
</g>
</g>
<!-- Node0&#45;&gt;Node77 -->
<g id="edge102" class="edge">
<title>Node0&#45;&gt;Node77</title>
<path fill="none" stroke="#191970" d="M1367.4354,-176.0822C1297.0511,-170.2876 1092.3104,-152.1183 1028.4659,-132 1010.263,-126.264 1008.0452,-119.4307 990.4659,-112 958.9924,-98.6964 922.2609,-86.8246 894.1797,-78.475"/>
<polygon fill="#191970" stroke="#191970" points="894.8321,-75.0189 884.2512,-75.562 892.8614,-81.7358 894.8321,-75.0189"/>
</g>
<!-- Node129 -->
<g id="node40" class="node">
<title>Node129</title>
<g id="a_node40"><a xlink:href="recvattach_8h.html" target="_top" xlink:title="Routines for managing attachments. ">
<polygon fill="#ffffff" stroke="#ff0000" points="902.9659,-56.5 902.9659,-75.5 979.9659,-75.5 979.9659,-56.5 902.9659,-56.5"/>
<text text-anchor="middle" x="941.4659" y="-63.5" font-family="Helvetica,sans-Serif" font-size="10.00" fill="#000000">recvattach.h</text>
</a>
</g>
</g>
<!-- Node0&#45;&gt;Node129 -->
<g id="edge85" class="edge">
<title>Node0&#45;&gt;Node129</title>
<path fill="none" stroke="#191970" d="M1367.143,-175.229C1324.1891,-169.8913 1232.4468,-156.4893 1158.4659,-132 1138.8383,-125.5028 1135.8823,-119.1036 1116.4659,-112 1074.7125,-96.7242 1025.6384,-84.2793 990.0997,-76.2041"/>
<polygon fill="#191970" stroke="#191970" points="990.5141,-72.7103 979.9911,-73.942 988.9853,-79.5414 990.5141,-72.7103"/>
</g>
<!-- Node130 -->
<g id="node41" class="node">
<title>Node130</title>
<g id="a_node41"><a xlink:href="rfc3676_8h.html" target="_top" xlink:title="RFC3676 Format Flowed routines. ">
<polygon fill="#ffffff" stroke="#000000" points="2454.4659,-56.5 2454.4659,-75.5 2516.4659,-75.5 2516.4659,-56.5 2454.4659,-56.5"/>
<text text-anchor="middle" x="2485.4659" y="-63.5" font-family="Helvetica,sans-Serif" font-size="10.00" fill="#000000">rfc3676.h</text>
</a>
</g>
</g>
<!-- Node0&#45;&gt;Node130 -->
<g id="edge88" class="edge">
<title>Node0&#45;&gt;Node130</title>
<path fill="none" stroke="#191970" d="M1415.6173,-177.8971C1561.1894,-177.1474 2318.6312,-171.3668 2413.4659,-132 2437.7801,-121.9069 2459.0837,-99.7824 2472.0861,-83.9313"/>
<polygon fill="#191970" stroke="#191970" points="2474.9841,-85.9084 2478.4219,-75.8868 2469.4849,-81.5772 2474.9841,-85.9084"/>
</g>
<!-- Node131 -->
<g id="node42" class="node">
<title>Node131</title>
<g id="a_node42"><a xlink:href="sendlib_8h.html" target="_top" xlink:title="Miscellaneous functions for sending an email. ">
<polygon fill="#ffffff" stroke="#000000" points="1419.9659,-112.5 1419.9659,-131.5 1480.9659,-131.5 1480.9659,-112.5 1419.9659,-112.5"/>
<text text-anchor="middle" x="1450.4659" y="-119.5" font-family="Helvetica,sans-Serif" font-size="10.00" fill="#000000">sendlib.h</text>
</a>
</g>
</g>
<!-- Node0&#45;&gt;Node131 -->
<g id="edge90" class="edge">
<title>Node0&#45;&gt;Node131</title>
<path fill="none" stroke="#191970" d="M1401.7429,-168.2455C1410.2877,-160.1352 1422.6437,-148.4075 1432.7744,-138.7919"/>
<polygon fill="#191970" stroke="#191970" points="1435.4631,-141.0655 1440.3066,-131.6427 1430.644,-135.9884 1435.4631,-141.0655"/>
</g>
<!-- Node132 -->
<g id="node43" class="node">
<title>Node132</title>
<g id="a_node43"><a xlink:href="smtp_8h.html" target="_top" xlink:title="Send email to an SMTP server. ">
<polygon fill="#ffffff" stroke="#000000" points="467.4659,-56.5 467.4659,-75.5 517.4659,-75.5 517.4659,-56.5 467.4659,-56.5"/>
<text text-anchor="middle" x="492.4659" y="-63.5" font-family="Helvetica,sans-Serif" font-size="10.00" fill="#000000">smtp.h</text>
</a>
</g>
</g>
<!-- Node0&#45;&gt;Node132 -->
<g id="edge95" class="edge">
<title>Node0&#45;&gt;Node132</title>
<path fill="none" stroke="#191970" d="M1367.3169,-177.5488C1239.7344,-175.0452 647.1442,-161.8773 571.4659,-132 545.4193,-121.717 521.6621,-99.2968 507.1493,-83.4491"/>
<polygon fill="#191970" stroke="#191970" points="509.6853,-81.0334 500.4395,-75.8599 504.4411,-85.67 509.6853,-81.0334"/>
</g>
<!-- Node133 -->
<g id="node44" class="node">
<title>Node133</title>
<g id="a_node44"><a xlink:href="sort_8h.html" target="_top" xlink:title="Assorted sorting methods. ">
<polygon fill="#ffffff" stroke="#ff0000" points="1974.4659,-112.5 1974.4659,-131.5 2018.4659,-131.5 2018.4659,-112.5 1974.4659,-112.5"/>
<text text-anchor="middle" x="1996.4659" y="-119.5" font-family="Helvetica,sans-Serif" font-size="10.00" fill="#000000">sort.h</text>
</a>
</g>
</g>
<!-- Node0&#45;&gt;Node133 -->
<g id="edge98" class="edge">
<title>Node0&#45;&gt;Node133</title>
<path fill="none" stroke="#191970" d="M1415.5249,-177.6872C1494.3345,-176.3162 1751.6461,-169.0951 1960.4659,-132 1961.7233,-131.7766 1963.0002,-131.5285 1964.2861,-131.2607"/>
<polygon fill="#191970" stroke="#191970" points="1965.2339,-134.6329 1974.1489,-128.9081 1963.6097,-127.8239 1965.2339,-134.6329"/>
</g>
<!-- Node134 -->
<g id="node45" class="node">
<title>Node134</title>
<g id="a_node45"><a xlink:href="mx_8h.html" target="_top" xlink:title="API for mailboxes. ">
<polygon fill="#ffffff" stroke="#ff0000" points="2648.9659,-56.5 2648.9659,-75.5 2689.9659,-75.5 2689.9659,-56.5 2648.9659,-56.5"/>
<text text-anchor="middle" x="2669.4659" y="-63.5" font-family="Helvetica,sans-Serif" font-size="10.00" fill="#000000">mx.h</text>
</a>
</g>
</g>
<!-- Node0&#45;&gt;Node134 -->
<g id="edge103" class="edge">
<title>Node0&#45;&gt;Node134</title>
<path fill="none" stroke="#191970" d="M1415.506,-177.6853C1571.1055,-175.5637 2432.853,-162.4983 2545.4659,-132 2546.7793,-131.6443 2606.5772,-99.6808 2642.6418,-80.3716"/>
<polygon fill="#191970" stroke="#191970" points="2644.5198,-83.3363 2651.6829,-75.5299 2641.2151,-77.1654 2644.5198,-83.3363"/>
</g>
<!-- Node135 -->
<g id="node46" class="node">
<title>Node135</title>
<g id="a_node46"><a xlink:href="nntp_2lib_8h.html" target="_top" xlink:title="Usenet network mailbox type; talk to an NNTP server. ">
<polygon fill="#ffffff" stroke="#ff0000" points="2592.4659,-112.5 2592.4659,-131.5 2654.4659,-131.5 2654.4659,-112.5 2592.4659,-112.5"/>
<text text-anchor="middle" x="2623.4659" y="-119.5" font-family="Helvetica,sans-Serif" font-size="10.00" fill="#000000">nntp/lib.h</text>
</a>
</g>
</g>
<!-- Node0&#45;&gt;Node135 -->
<g id="edge109" class="edge">
<title>Node0&#45;&gt;Node135</title>
<path fill="none" stroke="#191970" d="M1415.4955,-177.6585C1562.4801,-175.4809 2341.7277,-162.6379 2578.4659,-132 2579.7159,-131.8382 2580.9825,-131.6585 2582.2588,-131.4636"/>
<polygon fill="#191970" stroke="#191970" points="2582.8839,-134.9075 2592.1222,-129.7206 2581.6656,-128.0143 2582.8839,-134.9075"/>
</g>
<!-- Node136 -->
<g id="node47" class="node">
<title>Node136</title>
<g id="a_node47"><a xlink:href="remailer_8h.html" target="_top" xlink:title="Support of Mixmaster anonymous remailer. ">
<polygon fill="#ffffff" stroke="#ff0000" points="2774.4659,-112.5 2774.4659,-131.5 2840.4659,-131.5 2840.4659,-112.5 2774.4659,-112.5"/>
<text text-anchor="middle" x="2807.4659" y="-119.5" font-family="Helvetica,sans-Serif" font-size="10.00" fill="#000000">remailer.h</text>
</a>
</g>
</g>
<!-- Node0&#45;&gt;Node136 -->
<g id="edge115" class="edge">
<title>Node0&#45;&gt;Node136</title>
<path fill="none" stroke="#191970" d="M1415.5542,-177.8532C1573.9118,-176.7903 2468.2777,-169.2586 2763.849,-131.9199"/>
<polygon fill="#191970" stroke="#191970" points="2764.6465,-135.3455 2774.1086,-130.579 2763.7393,-128.4045 2764.6465,-135.3455"/>
</g>
<!-- Node137 -->
<g id="node48" class="node">
<title>Node137</title>
<g id="a_node48"><a xlink:href="notmuch_2lib_8h.html" target="_top" xlink:title="Notmuch virtual mailbox type. ">
<polygon fill="#ffffff" stroke="#ff0000" points="2672.9659,-112.5 2672.9659,-131.5 2755.9659,-131.5 2755.9659,-112.5 2672.9659,-112.5"/>
<text text-anchor="middle" x="2714.4659" y="-119.5" font-family="Helvetica,sans-Serif" font-size="10.00" fill="#000000">notmuch/lib.h</text>
</a>
</g>
</g>
<!-- Node0&#45;&gt;Node137 -->
<g id="edge116" class="edge">
<title>Node0&#45;&gt;Node137</title>
<path fill="none" stroke="#191970" d="M1415.6963,-177.6452C1567.2849,-175.3483 2387.347,-161.767 2662.4612,-131.8851"/>
<polygon fill="#191970" stroke="#191970" points="2663.254,-135.3182 2672.8011,-130.7243 2662.473,-128.3619 2663.254,-135.3182"/>
</g>
<!-- Node138 -->
<g id="node49" class="node">
<title>Node138</title>
<g id="a_node49"><a xlink:href="imap_2lib_8h.html" target="_top" xlink:title="IMAP network mailbox. ">
<polygon fill="#ffffff" stroke="#ff0000" points="2470.9659,-112.5 2470.9659,-131.5 2535.9659,-131.5 2535.9659,-112.5 2470.9659,-112.5"/>
<text text-anchor="middle" x="2503.4659" y="-119.5" font-family="Helvetica,sans-Serif" font-size="10.00" fill="#000000">imap/lib.h</text>
</a>
</g>
</g>
<!-- Node0&#45;&gt;Node138 -->
<g id="edge120" class="edge">
<title>Node0&#45;&gt;Node138</title>
<path fill="none" stroke="#191970" d="M1415.5842,-177.4613C1553.4327,-174.3061 2242.7707,-157.4785 2453.4659,-132 2455.8388,-131.7131 2458.2673,-131.3754 2460.7133,-131.0009"/>
<polygon fill="#191970" stroke="#191970" points="2461.4987,-134.4177 2470.7699,-129.2897 2460.3245,-127.5169 2461.4987,-134.4177"/>
</g>
<!-- Node139 -->
<g id="node50" class="node">
<title>Node139</title>
<g id="a_node50"><a xlink:href="autocrypt_2lib_8h.html" target="_top" xlink:title="Autocrypt end&#45;to&#45;end encryption. ">
<polygon fill="#ffffff" stroke="#ff0000" points="1254.9659,-56.5 1254.9659,-75.5 1341.9659,-75.5 1341.9659,-56.5 1254.9659,-56.5"/>
<text text-anchor="middle" x="1298.4659" y="-63.5" font-family="Helvetica,sans-Serif" font-size="10.00" fill="#000000">autocrypt/lib.h</text>
</a>
</g>
</g>
<!-- Node0&#45;&gt;Node139 -->
<g id="edge125" class="edge">
<title>Node0&#45;&gt;Node139</title>
<path fill="none" stroke="#191970" d="M1389.8729,-168.1058C1387.2376,-154.3089 1380.8709,-129.0676 1367.4659,-112 1357.1336,-98.8448 1341.967,-88.1554 1328.4826,-80.4033"/>
<polygon fill="#191970" stroke="#191970" points="1329.9525,-77.2185 1319.4961,-75.5116 1326.6058,-83.3667 1329.9525,-77.2185"/>
</g>
<!-- Node91&#45;&gt;Node4 -->
<g id="edge16" class="edge">
<title>Node91&#45;&gt;Node4</title>
<path fill="none" stroke="#191970" d="M1846.0147,-56.2455C1837.239,-48.0549 1824.5104,-36.1749 1814.1519,-26.5069"/>
<polygon fill="#191970" stroke="#191970" points="1816.496,-23.9072 1806.7973,-19.6427 1811.7198,-29.0246 1816.496,-23.9072"/>
</g>
<!-- Node96&#45;&gt;Node1 -->
<g id="edge19" class="edge">
<title>Node96&#45;&gt;Node1</title>
<path fill="none" stroke="#191970" d="M302.5789,-56.3733C321.2762,-47.4241 349.3403,-33.9917 370.4593,-23.8835"/>
<polygon fill="#191970" stroke="#191970" points="372.1063,-26.9755 379.6153,-19.5011 369.0842,-20.6614 372.1063,-26.9755"/>
</g>
<!-- Node106&#45;&gt;Node4 -->
<g id="edge21" class="edge">
<title>Node106&#45;&gt;Node4</title>
<path fill="none" stroke="#191970" d="M1752.6978,-56.2455C1760.2976,-48.2155 1771.2536,-36.6394 1780.3026,-27.0781"/>
<polygon fill="#191970" stroke="#191970" points="1783.0079,-29.3115 1787.3398,-19.6427 1777.9239,-24.4998 1783.0079,-29.3115"/>
</g>
<!-- Node106&#45;&gt;Node5 -->
<g id="edge22" class="edge">
<title>Node106&#45;&gt;Node5</title>
<path fill="none" stroke="#191970" d="M1718.8506,-58.9701C1714.1091,-57.8205 1709.158,-56.7591 1704.4659,-56 1582.7847,-36.3133 1200.4367,-17.2072 1081.8789,-11.6271"/>
<polygon fill="#191970" stroke="#191970" points="1081.7152,-8.1157 1071.5625,-11.1444 1081.388,-15.108 1081.7152,-8.1157"/>
</g>
<!-- Node108&#45;&gt;Node4 -->
<g id="edge25" class="edge">
<title>Node108&#45;&gt;Node4</title>
<path fill="none" stroke="#191970" d="M2062.0271,-58.8534C2057.4829,-57.8671 2052.8586,-56.8887 2048.4659,-56 1974.4006,-41.0163 1887.6391,-25.6582 1837.6633,-17.0236"/>
<polygon fill="#191970" stroke="#191970" points="1838.0243,-13.5343 1827.5752,-15.2856 1836.8358,-20.4326 1838.0243,-13.5343"/>
</g>
<!-- Node109&#45;&gt;Node1 -->
<g id="edge27" class="edge">
<title>Node109&#45;&gt;Node1</title>
<path fill="none" stroke="#191970" d="M420.937,-56.2455C417.4325,-48.6973 412.4732,-38.0158 408.2036,-28.8197"/>
<polygon fill="#191970" stroke="#191970" points="411.3285,-27.2389 403.9428,-19.6427 404.9795,-30.1867 411.3285,-27.2389"/>
</g>
<!-- Node109&#45;&gt;Node5 -->
<g id="edge28" class="edge">
<title>Node109&#45;&gt;Node5</title>
<path fill="none" stroke="#191970" d="M449.1065,-58.1677C452.2288,-57.3308 455.4067,-56.5761 458.4659,-56 565.5876,-35.8254 901.2422,-17.3906 1011.2019,-11.7563"/>
<polygon fill="#191970" stroke="#191970" points="1011.61,-15.2401 1021.4192,-11.2364 1011.2542,-8.2492 1011.61,-15.2401"/>
</g>
<!-- Node111&#45;&gt;Node1 -->
<g id="edge31" class="edge">
<title>Node111&#45;&gt;Node1</title>
<path fill="none" stroke="#191970" d="M1818.8746,-113.3596C1790.3757,-104.9639 1746.9226,-91.2729 1710.4659,-76 1692.4992,-68.4731 1690.3156,-60.9136 1671.4659,-56 1549.5527,-24.2204 635.4034,-12.5565 437.2723,-10.3887"/>
<polygon fill="#191970" stroke="#191970" points="437.1099,-6.8868 427.0727,-10.2786 437.0343,-13.8864 437.1099,-6.8868"/>
</g>
<!-- Node111&#45;&gt;Node4 -->
<g id="edge32" class="edge">
<title>Node111&#45;&gt;Node4</title>
<path fill="none" stroke="#191970" d="M1840.7975,-112.4431C1833.1627,-103.5751 1822.2335,-89.7145 1815.4659,-76 1808.2108,-61.2976 1803.268,-43.3487 1800.2466,-29.8821"/>
<polygon fill="#191970" stroke="#191970" points="1803.612,-28.8738 1798.152,-19.7942 1796.7582,-30.297 1803.612,-28.8738"/>
</g>
<!-- Node111&#45;&gt;Node10 -->
<g id="edge33" class="edge">
<title>Node111&#45;&gt;Node10</title>
<path fill="none" stroke="#191970" d="M1818.8714,-113.8707C1816.0376,-113.2038 1813.2034,-112.5687 1810.4659,-112 1714.4096,-92.045 1686.4719,-95.751 1586.5403,-76.0846"/>
<polygon fill="#191970" stroke="#191970" points="1587.1319,-72.6337 1576.64,-74.1068 1585.7606,-79.4981 1587.1319,-72.6337"/>
</g>
<!-- Node111&#45;&gt;Node91 -->
<g id="edge34" class="edge">
<title>Node111&#45;&gt;Node91</title>
<path fill="none" stroke="#191970" d="M1850.6852,-112.2455C1851.5986,-104.9382 1852.8791,-94.6944 1854.0028,-85.7046"/>
<polygon fill="#191970" stroke="#191970" points="1857.4931,-85.9996 1855.2606,-75.6427 1850.5471,-85.1313 1857.4931,-85.9996"/>
</g>
<!-- Node114&#45;&gt;Node4 -->
<g id="edge36" class="edge">
<title>Node114&#45;&gt;Node4</title>
<path fill="none" stroke="#191970" d="M2142.0952,-57.813C2139.187,-57.1582 2136.2775,-56.5417 2133.4659,-56 2027.7342,-35.6307 1901.6439,-20.9404 1837.843,-14.1736"/>
<polygon fill="#191970" stroke="#191970" points="1838.0917,-10.6806 1827.781,-13.1176 1837.361,-17.6424 1838.0917,-10.6806"/>
</g>
<!-- Node115&#45;&gt;Node4 -->
<g id="edge38" class="edge">
<title>Node115&#45;&gt;Node4</title>
<path fill="none" stroke="#191970" d="M1237.1663,-57.8379C1240.291,-57.1433 1243.4332,-56.5119 1246.4659,-56 1434.7876,-24.2115 1663.2686,-14.0381 1755.2135,-11.0915"/>
<polygon fill="#191970" stroke="#191970" points="1755.3384,-14.5894 1765.2255,-10.7822 1755.1222,-7.5927 1755.3384,-14.5894"/>
</g>
<!-- Node115&#45;&gt;Node5 -->
<g id="edge39" class="edge">
<title>Node115&#45;&gt;Node5</title>
<path fill="none" stroke="#191970" d="M1179.789,-56.3733C1152.4868,-46.8769 1110.6708,-32.3321 1081.1618,-22.0682"/>
<polygon fill="#191970" stroke="#191970" points="1082.2598,-18.7444 1071.665,-18.7649 1079.9601,-25.3559 1082.2598,-18.7444"/>
</g>
<!-- Node117&#45;&gt;Node1 -->
<g id="edge41" class="edge">
<title>Node117&#45;&gt;Node1</title>
<path fill="none" stroke="#191970" d="M631.2783,-58.3401C628.3174,-57.5144 625.3312,-56.7156 622.4659,-56 557.8451,-39.8613 481.6859,-25.0399 437.17,-16.7929"/>
<polygon fill="#191970" stroke="#191970" points="437.5644,-13.3068 427.0961,-14.939 436.2974,-20.1912 437.5644,-13.3068"/>
</g>
<!-- Node117&#45;&gt;Node4 -->
<g id="edge42" class="edge">
<title>Node117&#45;&gt;Node4</title>
<path fill="none" stroke="#191970" d="M681.5684,-63.5122C704.8502,-61.2774 740.4701,-58.0423 771.4659,-56 1153.4425,-30.8322 1616.4199,-15.5033 1755.2292,-11.2301"/>
<polygon fill="#191970" stroke="#191970" points="1755.5225,-14.7229 1765.4108,-10.9186 1755.3084,-7.7261 1755.5225,-14.7229"/>
</g>
<!-- Node117&#45;&gt;Node5 -->
<g id="edge43" class="edge">
<title>Node117&#45;&gt;Node5</title>
<path fill="none" stroke="#191970" d="M681.5403,-59.096C686.1499,-57.9624 690.9362,-56.8742 695.4659,-56 809.8408,-33.9255 947.2565,-19.3228 1010.9009,-13.2282"/>
<polygon fill="#191970" stroke="#191970" points="1011.5609,-16.6815 1021.1872,-12.256 1010.9022,-9.7125 1011.5609,-16.6815"/>
</g>
<!-- Node118&#45;&gt;Node1 -->
<g id="edge45" class="edge">
<title>Node118&#45;&gt;Node1</title>
<path fill="none" stroke="#191970" d="M715.956,-118.82C702.4736,-116.77 684.4368,-114.1042 668.4659,-112 599.9271,-102.9699 405.4336,-127.6341 359.4659,-76 345.9616,-60.8311 362.4726,-40.4867 378.189,-26.4136"/>
<polygon fill="#191970" stroke="#191970" points="380.7804,-28.8069 386.172,-19.6865 376.2696,-23.454 380.7804,-28.8069"/>
</g>
<!-- Node118&#45;&gt;Node4 -->
<g id="edge46" class="edge">
<title>Node118&#45;&gt;Node4</title>
<path fill="none" stroke="#191970" d="M743.1166,-112.1251C754.0498,-96.8525 777.4293,-68.0121 805.4659,-56 893.6567,-18.2154 1579.1067,-11.3568 1755.2906,-10.2137"/>
<polygon fill="#191970" stroke="#191970" points="1755.4631,-13.7128 1765.4411,-10.1506 1755.4195,-6.7129 1755.4631,-13.7128"/>
</g>
<!-- Node118&#45;&gt;Node52 -->
<g id="edge47" class="edge">
<title>Node118&#45;&gt;Node52</title>
<path fill="none" stroke="#191970" d="M757.1707,-119.9019C778.5277,-117.7718 812.8067,-114.4475 842.4659,-112 1068.4849,-93.3485 1125.8279,-98.8031 1351.4659,-76 1419.2584,-69.1489 1435.5917,-61.9878 1503.4659,-56 1878.2721,-22.9348 2332.9271,-13.0605 2476.0737,-10.6654"/>
<polygon fill="#191970" stroke="#191970" points="2476.2877,-14.1625 2486.2291,-10.4994 2476.1732,-7.1634 2476.2877,-14.1625"/>
</g>
<!-- Node118&#45;&gt;Node96 -->
<g id="edge48" class="edge">
<title>Node118&#45;&gt;Node96</title>
<path fill="none" stroke="#191970" d="M715.9647,-118.7525C702.4858,-116.6748 684.4497,-114.0035 668.4659,-112 514.6198,-92.7162 474.0882,-103.3297 321.4659,-76 320.0038,-75.7382 318.5157,-75.4509 317.016,-75.1443"/>
<polygon fill="#191970" stroke="#191970" points="317.6286,-71.6945 307.1029,-72.9026 316.0846,-78.5221 317.6286,-71.6945"/>
</g>
<!-- Node118&#45;&gt;Node117 -->
<g id="edge49" class="edge">
<title>Node118&#45;&gt;Node117</title>
<path fill="none" stroke="#191970" d="M722.5309,-112.2455C710.3712,-103.7337 692.5194,-91.2375 678.4374,-81.3801"/>
<polygon fill="#191970" stroke="#191970" points="680.4406,-78.51 670.2411,-75.6427 676.4263,-84.2447 680.4406,-78.51"/>
</g>
<!-- Node119&#45;&gt;Node4 -->
<g id="edge51" class="edge">
<title>Node119&#45;&gt;Node4</title>
<path fill="none" stroke="#191970" d="M2298.09,-58.5038C2293.5365,-57.5688 2288.893,-56.6978 2284.4659,-56 2120.2183,-30.1125 1922.4082,-16.9449 1837.9527,-12.1611"/>
<polygon fill="#191970" stroke="#191970" points="1837.9289,-8.6544 1827.7498,-11.5929 1837.5397,-15.6436 1837.9289,-8.6544"/>
</g>
<!-- Node120&#45;&gt;Node4 -->
<g id="edge53" class="edge">
<title>Node120&#45;&gt;Node4</title>
<path fill="none" stroke="#191970" d="M1159.9671,-57.4077C1163.1744,-56.8878 1166.3672,-56.4102 1169.4659,-56 1389.1865,-26.9142 1654.8394,-15.0282 1755.309,-11.3563"/>
<polygon fill="#191970" stroke="#191970" points="1755.4773,-14.8526 1765.3457,-10.9969 1755.2268,-7.857 1755.4773,-14.8526"/>
</g>
<!-- Node120&#45;&gt;Node5 -->
<g id="edge54" class="edge">
<title>Node120&#45;&gt;Node5</title>
<path fill="none" stroke="#191970" d="M1105.0986,-56.2455C1094.5105,-47.8943 1079.0595,-35.7076 1066.6766,-25.9408"/>
<polygon fill="#191970" stroke="#191970" points="1068.7106,-23.0875 1058.6914,-19.6427 1064.3756,-28.5837 1068.7106,-23.0875"/>
</g>
<!-- Node121&#45;&gt;Node5 -->
<g id="edge56" class="edge">
<title>Node121&#45;&gt;Node5</title>
<path fill="none" stroke="#191970" d="M613.179,-57.5974C616.3143,-57.0199 619.439,-56.4783 622.4659,-56 765.7143,-33.3628 937.9665,-18.4375 1010.9847,-12.6748"/>
<polygon fill="#191970" stroke="#191970" points="1011.3253,-16.1589 1021.0226,-11.8912 1010.7805,-9.1802 1011.3253,-16.1589"/>
</g>
<!-- Node123&#45;&gt;Node4 -->
<g id="edge59" class="edge">
<title>Node123&#45;&gt;Node4</title>
<path fill="none" stroke="#191970" d="M2365.3274,-112.0562C2372.9224,-97.7312 2383.6139,-71.3294 2369.4659,-56 2351.4434,-36.4727 1966.6953,-17.5936 1837.9874,-11.8038"/>
<polygon fill="#191970" stroke="#191970" points="1837.8996,-8.2965 1827.7534,-11.3468 1837.5873,-15.2895 1837.8996,-8.2965"/>
</g>
<!-- Node123&#45;&gt;Node8 -->
<g id="edge60" class="edge">
<title>Node123&#45;&gt;Node8</title>
<path fill="none" stroke="#191970" d="M2398.3833,-112.4373C2432.2449,-103.8275 2482.4924,-90.3522 2525.4659,-76 2573.7545,-59.8727 2628.4141,-37.6338 2661.9104,-23.5355"/>
<polygon fill="#191970" stroke="#191970" points="2663.3386,-26.7317 2671.1848,-19.6122 2660.6114,-20.2848 2663.3386,-26.7317"/>
</g>
<!-- Node123&#45;&gt;Node10 -->
<g id="edge61" class="edge">
<title>Node123&#45;&gt;Node10</title>
<path fill="none" stroke="#191970" d="M2314.3011,-120.3848C2174.0667,-115.205 1746.4806,-98.1296 1586.7164,-75.8855"/>
<polygon fill="#191970" stroke="#191970" points="1586.9857,-72.3879 1576.5862,-74.4129 1585.9787,-79.3151 1586.9857,-72.3879"/>
</g>
<!-- Node124&#45;&gt;Node10 -->
<g id="edge63" class="edge">
<title>Node124&#45;&gt;Node10</title>
<path fill="none" stroke="#191970" d="M1572.5435,-112.2455C1567.8632,-104.5367 1561.1986,-93.5598 1555.537,-84.2348"/>
<polygon fill="#191970" stroke="#191970" points="1558.502,-82.3741 1550.3204,-75.6427 1552.5184,-86.007 1558.502,-82.3741"/>
</g>
<!-- Node124&#45;&gt;Node70 -->
<g id="edge64" class="edge">
<title>Node124&#45;&gt;Node70</title>
<path fill="none" stroke="#191970" d="M1587.1752,-112.2455C1594.2732,-104.2958 1604.4743,-92.8706 1612.9609,-83.3656"/>
<polygon fill="#191970" stroke="#191970" points="1615.807,-85.4331 1619.8564,-75.6427 1610.5854,-80.771 1615.807,-85.4331"/>
</g>
<!-- Node125&#45;&gt;Node4 -->
<g id="edge66" class="edge">
<title>Node125&#45;&gt;Node4</title>
<path fill="none" stroke="#191970" d="M1316.1441,-112.4867C1349.8035,-98.0967 1416.9631,-70.8979 1476.4659,-56 1574.7708,-31.3871 1693.5881,-18.6107 1755.0829,-13.2177"/>
<polygon fill="#191970" stroke="#191970" points="1755.4998,-16.6949 1765.1649,-12.355 1754.9029,-9.7204 1755.4998,-16.6949"/>
</g>
<!-- Node125&#45;&gt;Node5 -->
<g id="edge67" class="edge">
<title>Node125&#45;&gt;Node5</title>
<path fill="none" stroke="#191970" d="M1263.9324,-114.1804C1260.7416,-113.419 1257.5416,-112.6784 1254.4659,-112 1171.389,-93.6762 1129.6969,-132.9154 1066.4659,-76 1053.5598,-64.383 1048.8579,-44.7457 1047.2067,-29.9041"/>
<polygon fill="#191970" stroke="#191970" points="1050.6804,-29.4168 1046.4533,-19.7017 1043.6994,-29.9324 1050.6804,-29.4168"/>
</g>
<!-- Node125&#45;&gt;Node120 -->
<g id="edge68" class="edge">
<title>Node125&#45;&gt;Node120</title>
<path fill="none" stroke="#191970" d="M1264.0385,-112.3733C1234.4787,-103.021 1189.4433,-88.7725 1157.0964,-78.5385"/>
<polygon fill="#191970" stroke="#191970" points="1158.0862,-75.1807 1147.4962,-75.5011 1155.9746,-81.8546 1158.0862,-75.1807"/>
</g>
<!-- Node126&#45;&gt;Node4 -->
<g id="edge70" class="edge">
<title>Node126&#45;&gt;Node4</title>
<path fill="none" stroke="#191970" d="M1913.2271,-56.3733C1890.187,-47.2226 1855.3445,-33.3844 1829.7158,-23.2057"/>
<polygon fill="#191970" stroke="#191970" points="1830.9741,-19.9395 1820.3884,-19.5011 1828.3903,-26.4452 1830.9741,-19.9395"/>
</g>
<!-- Node127&#45;&gt;Node1 -->
<g id="edge72" class="edge">
<title>Node127&#45;&gt;Node1</title>
<path fill="none" stroke="#191970" d="M189.5019,-112.3471C191.5794,-97.8991 197.6092,-70.773 214.4659,-56 236.2053,-36.9478 314.414,-22.4784 361.906,-15.2084"/>
<polygon fill="#191970" stroke="#191970" points="362.4567,-18.6651 371.8296,-13.7254 361.4221,-11.7419 362.4567,-18.6651"/>
</g>
<!-- Node127&#45;&gt;Node4 -->
<g id="edge73" class="edge">
<title>Node127&#45;&gt;Node4</title>
<path fill="none" stroke="#191970" d="M193.8922,-112.1015C202.9104,-96.7967 222.5824,-67.9128 248.4659,-56 283.6818,-39.7919 1512.5255,-15.4402 1755.1139,-10.7844"/>
<polygon fill="#191970" stroke="#191970" points="1755.3408,-14.2808 1765.2719,-10.5899 1755.2067,-7.2821 1755.3408,-14.2808"/>
</g>
<!-- Node127&#45;&gt;Node10 -->
<g id="edge74" class="edge">
<title>Node127&#45;&gt;Node10</title>
<path fill="none" stroke="#191970" d="M219.1614,-117.4424C233.7608,-115.4472 251.4799,-113.2745 267.4659,-112 747.9846,-73.6913 869.8574,-96.4723 1351.4659,-76 1403.3596,-73.7941 1463.0676,-70.5993 1502.1626,-68.4182"/>
<polygon fill="#191970" stroke="#191970" points="1502.5859,-71.9001 1512.3741,-67.8454 1502.1938,-64.9111 1502.5859,-71.9001"/>
</g>
<!-- Node127&#45;&gt;Node96 -->
<g id="edge75" class="edge">
<title>Node127&#45;&gt;Node96</title>
<path fill="none" stroke="#191970" d="M204.8394,-112.2455C219.3967,-103.5731 240.8969,-90.7645 257.5811,-80.825"/>
<polygon fill="#191970" stroke="#191970" points="259.4803,-83.7676 266.28,-75.6427 255.8976,-77.7539 259.4803,-83.7676"/>
</g>
<!-- Node128&#45;&gt;Node1 -->
<g id="edge77" class="edge">
<title>Node128&#45;&gt;Node1</title>
<path fill="none" stroke="#191970" d="M925.3096,-113.7821C922.3411,-113.0983 919.3533,-112.4848 916.4659,-112 859.0213,-102.3553 433.2145,-118.5787 393.4659,-76 381.9673,-63.6827 385.5887,-43.8581 390.7935,-29.1469"/>
<polygon fill="#191970" stroke="#191970" points="394.1817,-30.1027 394.6697,-19.5191 387.6882,-27.4883 394.1817,-30.1027"/>
</g>
<!-- Node128&#45;&gt;Node4 -->
<g id="edge78" class="edge">
<title>Node128&#45;&gt;Node4</title>
<path fill="none" stroke="#191970" d="M965.4426,-112.413C985.1523,-97.2629 1026.2605,-68.2512 1066.4659,-56 1132.3116,-35.9358 1610.2886,-16.8607 1755.0375,-11.4924"/>
<polygon fill="#191970" stroke="#191970" points="1755.4026,-14.9814 1765.2668,-11.1154 1755.1446,-7.9862 1755.4026,-14.9814"/>
</g>
<!-- Node128&#45;&gt;Node5 -->
<g id="edge79" class="edge">
<title>Node128&#45;&gt;Node5</title>
<path fill="none" stroke="#191970" d="M925.4592,-114.2173C883.5808,-102.4496 809.1255,-80.9697 805.4659,-76 800.1952,-68.8424 799.8003,-62.8493 805.4659,-56 831.1418,-24.9597 950.4357,-14.6763 1010.9937,-11.4222"/>
<polygon fill="#191970" stroke="#191970" points="1011.4211,-14.9053 1021.2334,-10.9091 1011.0707,-7.9141 1011.4211,-14.9053"/>
</g>
<!-- Node128&#45;&gt;Node10 -->
<g id="edge80" class="edge">
<title>Node128&#45;&gt;Node10</title>
<path fill="none" stroke="#191970" d="M981.5661,-117.9577C995.6313,-116.0097 1012.9297,-113.7274 1028.4659,-112 1204.1233,-92.4692 1414.1542,-75.8177 1502.2813,-69.1335"/>
<polygon fill="#191970" stroke="#191970" points="1502.7057,-72.6115 1512.4137,-68.3682 1502.1785,-65.6314 1502.7057,-72.6115"/>
</g>
<!-- Node128&#45;&gt;Node96 -->
<g id="edge81" class="edge">
<title>Node128&#45;&gt;Node96</title>
<path fill="none" stroke="#191970" d="M925.3117,-113.7696C922.3428,-113.0883 919.3543,-112.4787 916.4659,-112 671.7327,-71.4364 606.3755,-99.9869 359.4659,-76 345.597,-74.6527 330.3741,-72.763 317.1519,-70.9886"/>
<polygon fill="#191970" stroke="#191970" points="317.4236,-67.4932 307.0409,-69.6029 316.4731,-74.4284 317.4236,-67.4932"/>
</g>
<!-- Node128&#45;&gt;Node77 -->
<g id="edge82" class="edge">
<title>Node128&#45;&gt;Node77</title>
<path fill="none" stroke="#191970" d="M935.3505,-112.2455C919.0208,-103.4527 894.7949,-90.4079 876.232,-80.4125"/>
<polygon fill="#191970" stroke="#191970" points="877.8378,-77.3021 867.3737,-75.6427 874.5191,-83.4654 877.8378,-77.3021"/>
</g>
<!-- Node77&#45;&gt;Node4 -->
<g id="edge83" class="edge">
<title>Node77&#45;&gt;Node4</title>
<path fill="none" stroke="#191970" d="M885.2297,-57.4848C888.3419,-56.9165 891.4523,-56.4087 894.4659,-56 1064.2209,-32.9754 1601.3233,-15.7433 1755.0115,-11.1895"/>
<polygon fill="#191970" stroke="#191970" points="1755.5115,-14.6764 1765.4041,-10.8836 1755.3055,-7.6794 1755.5115,-14.6764"/>
</g>
<!-- Node77&#45;&gt;Node5 -->
<g id="edge84" class="edge">
<title>Node77&#45;&gt;Node5</title>
<path fill="none" stroke="#191970" d="M883.3314,-56.3733C919.2299,-46.1686 975.6355,-30.1345 1011.8258,-19.8469"/>
<polygon fill="#191970" stroke="#191970" points="1012.8015,-23.2083 1021.4634,-17.1073 1010.8874,-16.4751 1012.8015,-23.2083"/>
</g>
<!-- Node129&#45;&gt;Node4 -->
<g id="edge86" class="edge">
<title>Node129&#45;&gt;Node4</title>
<path fill="none" stroke="#191970" d="M980.1629,-58.1012C984.9651,-57.2976 989.8188,-56.5693 994.4659,-56 1284.3791,-20.4863 1636.6924,-12.293 1755.2817,-10.4872"/>
<polygon fill="#191970" stroke="#191970" points="1755.4243,-13.9856 1765.3724,-10.3406 1755.3225,-6.9864 1755.4243,-13.9856"/>
</g>
<!-- Node129&#45;&gt;Node5 -->
<g id="edge87" class="edge">
<title>Node129&#45;&gt;Node5</title>
<path fill="none" stroke="#191970" d="M959.7555,-56.2455C976.2421,-47.4527 1000.701,-34.4079 1019.4424,-24.4125"/>
<polygon fill="#191970" stroke="#191970" points="1021.2094,-27.4368 1028.3859,-19.6427 1017.9153,-21.2604 1021.2094,-27.4368"/>
</g>
<!-- Node130&#45;&gt;Node4 -->
<g id="edge89" class="edge">
<title>Node130&#45;&gt;Node4</title>
<path fill="none" stroke="#191970" d="M2454.3645,-61.923C2438.7981,-59.9665 2419.6549,-57.687 2402.4659,-56 2190.4646,-35.1928 1935.9416,-18.5943 1837.8232,-12.5075"/>
<polygon fill="#191970" stroke="#191970" points="1837.927,-9.0074 1827.7303,-11.8843 1837.4955,-15.994 1837.927,-9.0074"/>
</g>
<!-- Node131&#45;&gt;Node4 -->
<g id="edge91" class="edge">
<title>Node131&#45;&gt;Node4</title>
<path fill="none" stroke="#191970" d="M1455.1322,-112.4905C1462.9243,-97.7187 1480.0673,-69.5519 1503.4659,-56 1545.5297,-31.6376 1684.9243,-18.1895 1755.2003,-12.8084"/>
<polygon fill="#191970" stroke="#191970" points="1755.7425,-16.2777 1765.4542,-12.043 1755.2214,-9.2971 1755.7425,-16.2777"/>
</g>
<!-- Node131&#45;&gt;Node5 -->
<g id="edge92" class="edge">
<title>Node131&#45;&gt;Node5</title>
<path fill="none" stroke="#191970" d="M1439.508,-112.2852C1422.164,-97.499 1386.7254,-69.6291 1351.4659,-56 1302.7684,-37.1766 1151.3068,-20.3408 1081.8801,-13.3853"/>
<polygon fill="#191970" stroke="#191970" points="1082.1579,-9.8958 1071.8617,-12.3933 1081.4681,-16.8617 1082.1579,-9.8958"/>
</g>
<!-- Node131&#45;&gt;Node70 -->
<g id="edge93" class="edge">
<title>Node131&#45;&gt;Node70</title>
<path fill="none" stroke="#191970" d="M1481.0652,-112.3733C1510.792,-103.021 1556.0818,-88.7725 1588.6115,-78.5385"/>
<polygon fill="#191970" stroke="#191970" points="1589.7772,-81.8409 1598.2659,-75.5011 1587.6764,-75.1636 1589.7772,-81.8409"/>
</g>
<!-- Node131&#45;&gt;Node109 -->
<g id="edge94" class="edge">
<title>Node131&#45;&gt;Node109</title>
<path fill="none" stroke="#191970" d="M1419.9646,-118.9938C1396.5867,-116.7811 1363.5147,-113.8481 1334.4659,-112 948.913,-87.4715 844.4443,-140.1096 459.1132,-75.6335"/>
<polygon fill="#191970" stroke="#191970" points="459.5305,-72.1545 449.0872,-73.9402 458.3647,-79.0568 459.5305,-72.1545"/>
</g>
<!-- Node132&#45;&gt;Node1 -->
<g id="edge96" class="edge">
<title>Node132&#45;&gt;Node1</title>
<path fill="none" stroke="#191970" d="M476.2665,-56.2455C461.8641,-47.5731 440.5927,-34.7645 424.0859,-24.825"/>
<polygon fill="#191970" stroke="#191970" points="425.8519,-21.8028 415.4796,-19.6427 422.2409,-27.7996 425.8519,-21.8028"/>
</g>
<!-- Node132&#45;&gt;Node4 -->
<g id="edge97" class="edge">
<title>Node132&#45;&gt;Node4</title>
<path fill="none" stroke="#191970" d="M517.5373,-58.0506C520.8491,-57.2329 524.2203,-56.5147 527.4659,-56 772.1484,-17.1992 1565.3046,-11.0722 1755.2943,-10.1545"/>
<polygon fill="#191970" stroke="#191970" points="1755.4316,-13.654 1765.4154,-10.1078 1755.3993,-6.6541 1755.4316,-13.654"/>
</g>
<!-- Node133&#45;&gt;Node4 -->
<g id="edge99" class="edge">
<title>Node133&#45;&gt;Node4</title>
<path fill="none" stroke="#191970" d="M1996.5275,-112.4296C1996.0787,-98.0894 1993.0501,-71.102 1977.4659,-56 1957.7262,-36.8711 1884.732,-22.902 1837.6879,-15.6493"/>
<polygon fill="#191970" stroke="#191970" points="1838.1916,-12.1858 1827.7827,-14.1619 1837.152,-19.1082 1838.1916,-12.1858"/>
</g>
<!-- Node133&#45;&gt;Node52 -->
<g id="edge100" class="edge">
<title>Node133&#45;&gt;Node52</title>
<path fill="none" stroke="#191970" d="M2018.7539,-121.4673C2077.2853,-119.5968 2239.7894,-111.3557 2369.4659,-76 2415.2992,-63.5038 2465.2469,-39.6679 2494.9314,-24.3207"/>
<polygon fill="#191970" stroke="#191970" points="2496.5922,-27.4019 2503.8263,-19.6612 2493.3439,-21.2011 2496.5922,-27.4019"/>
</g>
<!-- Node133&#45;&gt;Node126 -->
<g id="edge101" class="edge">
<title>Node133&#45;&gt;Node126</title>
<path fill="none" stroke="#191970" d="M1986.1889,-112.2455C1977.6441,-104.1352 1965.2881,-92.4075 1955.1574,-82.7919"/>
<polygon fill="#191970" stroke="#191970" points="1957.2877,-79.9884 1947.6251,-75.6427 1952.4687,-85.0655 1957.2877,-79.9884"/>
</g>
<!-- Node134&#45;&gt;Node4 -->
<g id="edge104" class="edge">
<title>Node134&#45;&gt;Node4</title>
<path fill="none" stroke="#191970" d="M2648.9133,-59.3018C2644.2111,-58.0012 2639.2023,-56.7963 2634.4659,-56 2478.5151,-29.7806 1984.5349,-14.9525 1837.8941,-11.0489"/>
<polygon fill="#191970" stroke="#191970" points="1837.637,-7.541 1827.5483,-10.7763 1837.4526,-14.5385 1837.637,-7.541"/>
</g>
<!-- Node134&#45;&gt;Node5 -->
<g id="edge105" class="edge">
<title>Node134&#45;&gt;Node5</title>
<path fill="none" stroke="#191970" d="M2648.4948,-64.2912C2620.4744,-62.0659 2569.266,-58.2012 2525.4659,-56 1949.2856,-27.0441 1245.8608,-13.4918 1081.8186,-10.6005"/>
<polygon fill="#191970" stroke="#191970" points="1081.8603,-7.1008 1071.8006,-10.4254 1081.7379,-14.0997 1081.8603,-7.1008"/>
</g>
<!-- Node134&#45;&gt;Node8 -->
<g id="edge106" class="edge">
<title>Node134&#45;&gt;Node8</title>
<path fill="none" stroke="#191970" d="M2673.6464,-56.2455C2676.8469,-48.7776 2681.3619,-38.2427 2685.2743,-29.1137"/>
<polygon fill="#191970" stroke="#191970" points="2688.6111,-30.2129 2689.3333,-19.6427 2682.177,-27.4554 2688.6111,-30.2129"/>
</g>
<!-- Node134&#45;&gt;Node52 -->
<g id="edge107" class="edge">
<title>Node134&#45;&gt;Node52</title>
<path fill="none" stroke="#191970" d="M2648.8871,-58.2134C2625.0145,-49.1806 2585.2592,-34.138 2556.4955,-23.2544"/>
<polygon fill="#191970" stroke="#191970" points="2557.4154,-19.8604 2546.8239,-19.5949 2554.9381,-26.4074 2557.4154,-19.8604"/>
</g>
<!-- Node134&#45;&gt;Node87 -->
<g id="edge108" class="edge">
<title>Node134&#45;&gt;Node87</title>
<path fill="none" stroke="#191970" d="M2690.1099,-58.9076C2716.4282,-49.8657 2762.417,-34.0659 2794.9945,-22.8736"/>
<polygon fill="#191970" stroke="#191970" points="2796.3174,-26.12 2804.6376,-19.5606 2794.043,-19.4998 2796.3174,-26.12"/>
</g>
<!-- Node135&#45;&gt;Node4 -->
<g id="edge110" class="edge">
<title>Node135&#45;&gt;Node4</title>
<path fill="none" stroke="#191970" d="M2615.0958,-112.1577C2601.4636,-96.9299 2572.8194,-68.1496 2541.4659,-56 2475.8205,-30.5622 1984.787,-15.1644 1837.8705,-11.0913"/>
<polygon fill="#191970" stroke="#191970" points="1837.5915,-7.5824 1827.4993,-10.8068 1837.3995,-14.5798 1837.5915,-7.5824"/>
</g>
<!-- Node135&#45;&gt;Node5 -->
<g id="edge111" class="edge">
<title>Node135&#45;&gt;Node5</title>
<path fill="none" stroke="#191970" d="M2592.1999,-117.9128C2514.8857,-107.7748 2318.8476,-81.8671 2289.4659,-76 2255.2143,-69.1604 2248.01,-61.1629 2213.4659,-56 1986.9574,-22.1464 1251.4627,-12.2201 1081.6664,-10.3541"/>
<polygon fill="#191970" stroke="#191970" points="1081.5702,-6.853 1071.5331,-10.245 1081.4948,-13.8526 1081.5702,-6.853"/>
</g>
<!-- Node135&#45;&gt;Node8 -->
<g id="edge112" class="edge">
<title>Node135&#45;&gt;Node8</title>
<path fill="none" stroke="#191970" d="M2653.0344,-112.3976C2669.8767,-105.2338 2689.5452,-93.6009 2699.4659,-76 2707.4793,-61.7829 2704.7706,-43.0584 2700.7614,-29.1861"/>
<polygon fill="#191970" stroke="#191970" points="2704.0762,-28.0623 2697.5981,-19.6787 2697.4342,-30.2723 2704.0762,-28.0623"/>
</g>
<!-- Node135&#45;&gt;Node87 -->
<g id="edge113" class="edge">
<title>Node135&#45;&gt;Node87</title>
<path fill="none" stroke="#191970" d="M2654.5902,-114.2542C2691.6671,-104.685 2751.0373,-88.1795 2770.4659,-76 2790.5419,-63.4146 2808.4691,-42.7714 2819.8189,-27.9208"/>
<polygon fill="#191970" stroke="#191970" points="2822.8766,-29.6717 2825.9962,-19.5465 2817.2434,-25.5163 2822.8766,-29.6717"/>
</g>
<!-- Node135&#45;&gt;Node134 -->
<g id="edge114" class="edge">
<title>Node135&#45;&gt;Node134</title>
<path fill="none" stroke="#191970" d="M2631.4785,-112.2455C2637.9426,-104.3761 2647.2043,-93.101 2654.9642,-83.6542"/>
<polygon fill="#191970" stroke="#191970" points="2657.9022,-85.5916 2661.5451,-75.6427 2652.4931,-81.1484 2657.9022,-85.5916"/>
</g>
<!-- Node137&#45;&gt;Node4 -->
<g id="edge117" class="edge">
<title>Node137&#45;&gt;Node4</title>
<path fill="none" stroke="#191970" d="M2715.5337,-112.0938C2716.5108,-97.315 2715.8351,-69.7626 2699.4659,-56 2666.0907,-27.9393 2010.2292,-13.9332 1837.736,-10.7256"/>
<polygon fill="#191970" stroke="#191970" points="1837.6099,-7.2228 1827.5473,-10.5383 1837.4812,-14.2216 1837.6099,-7.2228"/>
</g>
<!-- Node137&#45;&gt;Node87 -->
<g id="edge118" class="edge">
<title>Node137&#45;&gt;Node87</title>
<path fill="none" stroke="#191970" d="M2756.1538,-113.0024C2790.6637,-104.6092 2835.713,-91.1343 2846.4659,-76 2856.2776,-62.1904 2850.535,-42.9195 2843.6811,-28.7655"/>
<polygon fill="#191970" stroke="#191970" points="2846.7455,-27.0738 2838.9361,-19.914 2840.5761,-30.3811 2846.7455,-27.0738"/>
</g>
<!-- Node137&#45;&gt;Node134 -->
<g id="edge119" class="edge">
<title>Node137&#45;&gt;Node134</title>
<path fill="none" stroke="#191970" d="M2706.6275,-112.2455C2700.3038,-104.3761 2691.2435,-93.101 2683.6523,-83.6542"/>
<polygon fill="#191970" stroke="#191970" points="2686.2067,-81.2454 2677.2145,-75.6427 2680.7501,-85.6302 2686.2067,-81.2454"/>
</g>
<!-- Node138&#45;&gt;Node1 -->
<g id="edge121" class="edge">
<title>Node138&#45;&gt;Node1</title>
<path fill="none" stroke="#191970" d="M2470.5605,-118.2561C2453.5243,-116.34 2432.3834,-113.9968 2413.4659,-112 2253.5562,-95.1212 2211.7091,-104.5497 2053.4659,-76 2019.093,-69.7986 2012.036,-60.9857 1977.4659,-56 1820.8307,-33.4099 662.3499,-14.1384 437.2868,-10.5855"/>
<polygon fill="#191970" stroke="#191970" points="437.0425,-7.0813 426.9887,-10.4236 436.9324,-14.0805 437.0425,-7.0813"/>
</g>
<!-- Node138&#45;&gt;Node4 -->
<g id="edge122" class="edge">
<title>Node138&#45;&gt;Node4</title>
<path fill="none" stroke="#191970" d="M2512.0661,-112.1938C2523.425,-98.0401 2540.3469,-71.8496 2525.4659,-56 2501.784,-30.7767 1988.573,-15.126 1837.7775,-11.0598"/>
<polygon fill="#191970" stroke="#191970" points="1837.6481,-7.5552 1827.5582,-10.7871 1837.4612,-14.5527 1837.6481,-7.5552"/>
</g>
<!-- Node138&#45;&gt;Node87 -->
<g id="edge123" class="edge">
<title>Node138&#45;&gt;Node87</title>
<path fill="none" stroke="#191970" d="M2536.0349,-116.7285C2575.4721,-109.8083 2643.5597,-96.1277 2699.4659,-76 2738.5626,-61.9242 2781.1583,-39.405 2807.3437,-24.6574"/>
<polygon fill="#191970" stroke="#191970" points="2809.255,-27.5967 2816.2116,-19.6057 2805.7901,-21.5144 2809.255,-27.5967"/>
</g>
<!-- Node138&#45;&gt;Node134 -->
<g id="edge124" class="edge">
<title>Node138&#45;&gt;Node134</title>
<path fill="none" stroke="#191970" d="M2532.0023,-112.3733C2561.818,-102.3149 2608.4218,-86.5932 2638.9544,-76.293"/>
<polygon fill="#191970" stroke="#191970" points="2640.2888,-79.5367 2648.6453,-73.0238 2638.0512,-72.904 2640.2888,-79.5367"/>
</g>
<!-- Node139&#45;&gt;Node4 -->
<g id="edge126" class="edge">
<title>Node139&#45;&gt;Node4</title>
<path fill="none" stroke="#191970" d="M1342.1217,-58.1527C1346.9545,-57.3795 1351.8099,-56.644 1356.4659,-56 1502.5188,-35.7975 1676.9502,-20.027 1755.0692,-13.402"/>
<polygon fill="#191970" stroke="#191970" points="1755.7691,-16.8555 1765.44,-12.5283 1755.1814,-9.8802 1755.7691,-16.8555"/>
</g>
<!-- Node139&#45;&gt;Node5 -->
<g id="edge127" class="edge">
<title>Node139&#45;&gt;Node5</title>
<path fill="none" stroke="#191970" d="M1255.4319,-56.4369C1206.3955,-45.5399 1127.1795,-27.9364 1081.6684,-17.8228"/>
<polygon fill="#191970" stroke="#191970" points="1082.1981,-14.3552 1071.6769,-15.6025 1080.6795,-21.1885 1082.1981,-14.3552"/>
</g>
</g>
</svg>
