<?xml version="1.0" encoding="UTF-8" standalone="no"?>
<!DOCTYPE svg PUBLIC "-//W3C//DTD SVG 1.1//EN"
 "http://www.w3.org/Graphics/SVG/1.1/DTD/svg11.dtd">
<!-- Generated by graphviz version 2.40.1 (20161225.0304)
 -->
<!-- Title: mutt_message_to_7bit Pages: 1 -->
<svg width="294pt" height="122pt"
 viewBox="0.00 0.00 294.00 122.00" xmlns="http://www.w3.org/2000/svg" xmlns:xlink="http://www.w3.org/1999/xlink">
<g id="graph0" class="graph" transform="scale(1 1) rotate(0) translate(4 118)">
<title>mutt_message_to_7bit</title>
<polygon fill="#ffffff" stroke="transparent" points="-4,4 -4,-118 290,-118 290,4 -4,4"/>
<!-- Node7629 -->
<g id="node1" class="node">
<title>Node7629</title>
<polygon fill="#bfbfbf" stroke="#000000" points="0,-38.5 0,-57.5 128,-57.5 128,-38.5 0,-38.5"/>
<text text-anchor="middle" x="64" y="-45.5" font-family="Helvetica,sans-Serif" font-size="10.00" fill="#000000">mutt_message_to_7bit</text>
</g>
<!-- Node7630 -->
<g id="node2" class="node">
<title>Node7630</title>
<g id="a_node2"><a xlink:href="crypt_8h.html#a7321a72cf7c00a3a126fdba74a648191" target="_top" xlink:title="Convert an email to 7bit encoding. ">
<polygon fill="#ffffff" stroke="#ff0000" points="164,-76.5 164,-95.5 286,-95.5 286,-76.5 164,-76.5"/>
<text text-anchor="middle" x="225" y="-83.5" font-family="Helvetica,sans-Serif" font-size="10.00" fill="#000000">crypt_convert_to_7bit</text>
</a>
</g>
</g>
<!-- Node7629&#45;&gt;Node7630 -->
<g id="edge1" class="edge">
<title>Node7629&#45;&gt;Node7630</title>
<path fill="none" stroke="#191970" d="M114.4018,-59.8961C137.032,-65.2374 163.3695,-71.4537 184.665,-76.4799"/>
<polygon fill="#191970" stroke="#191970" points="115.1637,-56.4798 104.6271,-57.589 113.5557,-63.2926 115.1637,-56.4798"/>
</g>
<!-- Node7931 -->
<g id="node3" class="node">
<title>Node7931</title>
<g id="a_node3"><a xlink:href="sendlib_8c.html#aca446833041a05b67ddc60b40d558bea" target="_top" xlink:title="Convert MIME parts to 7&#45;bit. ">
<polygon fill="#ffffff" stroke="#ff0000" points="173,-38.5 173,-57.5 277,-57.5 277,-38.5 173,-38.5"/>
<text text-anchor="middle" x="225" y="-45.5" font-family="Helvetica,sans-Serif" font-size="10.00" fill="#000000">transform_to_7bit</text>
</a>
</g>
</g>
<!-- Node7629&#45;&gt;Node7931 -->
<g id="edge3" class="edge">
<title>Node7629&#45;&gt;Node7931</title>
<path fill="none" stroke="#191970" d="M138.2614,-48C149.9107,-48 161.7352,-48 172.7514,-48"/>
<polygon fill="#191970" stroke="#191970" points="138.0941,-44.5001 128.0941,-48 138.094,-51.5001 138.0941,-44.5001"/>
</g>
<!-- Node7932 -->
<g id="node4" class="node">
<title>Node7932</title>
<g id="a_node4"><a xlink:href="sendlib_8c.html#aa3effe7741654e6914738bb006a44def" target="_top" xlink:title="determine which Content&#45;Transfer&#45;Encoding to use ">
<polygon fill="#ffffff" stroke="#ff0000" points="184.5,-.5 184.5,-19.5 265.5,-19.5 265.5,-.5 184.5,-.5"/>
<text text-anchor="middle" x="225" y="-7.5" font-family="Helvetica,sans-Serif" font-size="10.00" fill="#000000">set_encoding</text>
</a>
</g>
</g>
<!-- Node7629&#45;&gt;Node7932 -->
<g id="edge4" class="edge">
<title>Node7629&#45;&gt;Node7932</title>
<path fill="none" stroke="#191970" d="M114.4018,-36.1039C137.032,-30.7626 163.3695,-24.5463 184.665,-19.5201"/>
<polygon fill="#191970" stroke="#191970" points="113.5557,-32.7074 104.6271,-38.411 115.1637,-39.5202 113.5557,-32.7074"/>
</g>
<!-- Node7630&#45;&gt;Node7630 -->
<g id="edge2" class="edge">
<title>Node7630&#45;&gt;Node7630</title>
<path fill="none" stroke="#191970" d="M195.0599,-104.2746C195.9135,-109.741 205.8936,-114 225,-114 253.4375,-114 261.6577,-104.5653 249.6606,-95.7571"/>
<polygon fill="#191970" stroke="#191970" points="198.0458,-106.1007 200.3394,-95.7571 192.096,-102.4128 198.0458,-106.1007"/>
</g>
</g>
</svg>
