<?xml version="1.0" encoding="UTF-8" standalone="no"?>
<!DOCTYPE svg PUBLIC "-//W3C//DTD SVG 1.1//EN"
 "http://www.w3.org/Graphics/SVG/1.1/DTD/svg11.dtd">
<!-- Generated by graphviz version 7.1.0 (0)
 -->
<!-- Title: generate_body Pages: 1 -->
<svg width="417pt" height="328pt"
 viewBox="0.00 0.00 417.00 327.79" xmlns="http://www.w3.org/2000/svg" xmlns:xlink="http://www.w3.org/1999/xlink">
<g id="graph0" class="graph" transform="scale(1 1) rotate(0) translate(4 323.79)">
<title>generate_body</title>
<!-- Node1 -->
<g id="node1" class="node">
<title>Node1</title>
<g id="a_node1"><a xlink:title="Create a new email body.">
<polygon fill="#999999" stroke="#666666" points="87,-158.29 0,-158.29 0,-139.29 87,-139.29 87,-158.29"/>
<text text-anchor="middle" x="43.5" y="-146.29" font-family="Helvetica,sans-Serif" font-size="10.00">generate_body</text>
</a>
</g>
</g>
<!-- Node2 -->
<g id="node2" class="node">
<title>Node2</title>
<g id="a_node2"><a xlink:href="cryptglue_8c.html#a6ff317859513ab653641114e19fb8f59" target="_top" xlink:title="Wrapper for CryptModuleSpecs::pgp_make_key_attachment()">
<polygon fill="white" stroke="#666666" points="253.5,-319.79 140.5,-319.79 140.5,-289.79 253.5,-289.79 253.5,-319.79"/>
<text text-anchor="start" x="148.5" y="-307.79" font-family="Helvetica,sans-Serif" font-size="10.00">crypt_pgp_make_key</text>
<text text-anchor="middle" x="197" y="-296.79" font-family="Helvetica,sans-Serif" font-size="10.00">_attachment</text>
</a>
</g>
</g>
<!-- Node1&#45;&gt;Node2 -->
<g id="edge1" class="edge">
<title>Node1&#45;&gt;Node2</title>
<path fill="none" stroke="#63b8ff" d="M47.65,-158.71C55.91,-183.15 80.57,-246.76 123,-280.79 125.23,-282.58 127.6,-284.24 130.07,-285.78"/>
<polygon fill="#63b8ff" stroke="#63b8ff" points="128.2,-288.75 138.67,-290.4 131.52,-282.58 128.2,-288.75"/>
</g>
<!-- Node3 -->
<g id="node3" class="node">
<title>Node3</title>
<g id="a_node3"><a xlink:href="config_2helpers_8c.html#ae50f679dd6c5bd1ba820884c8602f038" target="_top" xlink:title="Get a boolean config item by name.">
<polygon fill="#fff0f0" stroke="red" points="401,-177.29 315,-177.29 315,-158.29 401,-158.29 401,-177.29"/>
<text text-anchor="middle" x="358" y="-165.29" font-family="Helvetica,sans-Serif" font-size="10.00">cs_subset_bool</text>
</a>
</g>
</g>
<!-- Node1&#45;&gt;Node3 -->
<g id="edge2" class="edge">
<title>Node1&#45;&gt;Node3</title>
<path fill="none" stroke="#63b8ff" d="M77.8,-158.7C91.64,-162.34 107.96,-166 123,-167.79 184.49,-175.13 255.72,-173.73 303.28,-171.39"/>
<polygon fill="#63b8ff" stroke="#63b8ff" points="303.23,-174.9 313.04,-170.88 302.87,-167.91 303.23,-174.9"/>
</g>
<!-- Node24 -->
<g id="node4" class="node">
<title>Node24</title>
<g id="a_node4"><a xlink:href="config_2helpers_8c.html#a9154ba713ce99b0937f475eec7c61af9" target="_top" xlink:title="Get a quad&#45;value config item by name.">
<polygon fill="#fff0f0" stroke="red" points="241.5,-234.29 152.5,-234.29 152.5,-215.29 241.5,-215.29 241.5,-234.29"/>
<text text-anchor="middle" x="197" y="-222.29" font-family="Helvetica,sans-Serif" font-size="10.00">cs_subset_quad</text>
</a>
</g>
</g>
<!-- Node1&#45;&gt;Node24 -->
<g id="edge3" class="edge">
<title>Node1&#45;&gt;Node24</title>
<path fill="none" stroke="#63b8ff" d="M57.19,-158.75C72.2,-170.16 98.29,-188.81 123,-200.79 131.02,-204.68 139.82,-208.17 148.46,-211.21"/>
<polygon fill="#63b8ff" stroke="#63b8ff" points="147.2,-214.48 157.79,-214.33 149.42,-207.84 147.2,-214.48"/>
</g>
<!-- Node25 -->
<g id="node5" class="node">
<title>Node25</title>
<g id="a_node5"><a xlink:href="send_8c.html#a5e533b7adb511ebbadbd637e3264fb05" target="_top" xlink:title="Write out a forwarded message.">
<polygon fill="#fff0f0" stroke="red" points="242.5,-158.29 151.5,-158.29 151.5,-139.29 242.5,-139.29 242.5,-158.29"/>
<text text-anchor="middle" x="197" y="-146.29" font-family="Helvetica,sans-Serif" font-size="10.00">include_forward</text>
</a>
</g>
</g>
<!-- Node1&#45;&gt;Node25 -->
<g id="edge4" class="edge">
<title>Node1&#45;&gt;Node25</title>
<path fill="none" stroke="#63b8ff" d="M87.1,-148.79C103.47,-148.79 122.41,-148.79 139.86,-148.79"/>
<polygon fill="#63b8ff" stroke="#63b8ff" points="139.56,-152.29 149.56,-148.79 139.56,-145.29 139.56,-152.29"/>
</g>
<!-- Node1285 -->
<g id="node6" class="node">
<title>Node1285</title>
<g id="a_node6"><a xlink:href="send_8c.html#a133621f63fdff19b66d2b833f29a7c0f" target="_top" xlink:title="Generate the reply text for an email.">
<polygon fill="#fff0f0" stroke="red" points="235.5,-121.29 158.5,-121.29 158.5,-102.29 235.5,-102.29 235.5,-121.29"/>
<text text-anchor="middle" x="197" y="-109.29" font-family="Helvetica,sans-Serif" font-size="10.00">include_reply</text>
</a>
</g>
</g>
<!-- Node1&#45;&gt;Node1285 -->
<g id="edge6" class="edge">
<title>Node1&#45;&gt;Node1285</title>
<path fill="none" stroke="#63b8ff" d="M85.1,-138.88C104.16,-134.22 127.05,-128.63 147.06,-123.74"/>
<polygon fill="#63b8ff" stroke="#63b8ff" points="147.8,-127.17 156.68,-121.39 146.14,-120.37 147.8,-127.17"/>
</g>
<!-- Node1289 -->
<g id="node7" class="node">
<title>Node1289</title>
<g id="a_node7"><a xlink:href="send_8c.html#ae0accb8ca6f488f8a6d77cd9fac7672b" target="_top" xlink:title="Add attachments to an email, inline.">
<polygon fill="#fff0f0" stroke="red" points="269.5,-84.29 124.5,-84.29 124.5,-65.29 269.5,-65.29 269.5,-84.29"/>
<text text-anchor="middle" x="197" y="-72.29" font-family="Helvetica,sans-Serif" font-size="10.00">inline_forward_attachments</text>
</a>
</g>
</g>
<!-- Node1&#45;&gt;Node1289 -->
<g id="edge8" class="edge">
<title>Node1&#45;&gt;Node1289</title>
<path fill="none" stroke="#63b8ff" d="M55.66,-139C70.21,-126.74 96.87,-105.87 123,-93.79 127.47,-91.73 132.2,-89.86 137.01,-88.18"/>
<polygon fill="#63b8ff" stroke="#63b8ff" points="137.73,-91.62 146.19,-85.24 135.6,-84.95 137.73,-91.62"/>
</g>
<!-- Node803 -->
<g id="node8" class="node">
<title>Node803</title>
<g id="a_node8"><a xlink:href="question_8c.html#a8ba883bf53e8ab425a03d17368de84b4" target="_top" xlink:title="Ask the user a quad&#45;question.">
<polygon fill="#fff0f0" stroke="red" points="409,-47.29 307,-47.29 307,-28.29 409,-28.29 409,-47.29"/>
<text text-anchor="middle" x="358" y="-35.29" font-family="Helvetica,sans-Serif" font-size="10.00">query_quadoption</text>
</a>
</g>
</g>
<!-- Node1&#45;&gt;Node803 -->
<g id="edge13" class="edge">
<title>Node1&#45;&gt;Node803</title>
<path fill="none" stroke="#63b8ff" d="M46.9,-138.91C53.69,-113.4 75.7,-45.48 123,-18.79 186.42,17 275.3,-6.43 323.21,-23.84"/>
<polygon fill="#63b8ff" stroke="#63b8ff" points="321.9,-27.09 332.49,-27.35 324.37,-20.54 321.9,-27.09"/>
</g>
<!-- Node351 -->
<g id="node9" class="node">
<title>Node351</title>
<g id="a_node9"><a xlink:href="mutt__logging_8c.html#af068b3f524a31fad293b2fb61dfc4534" target="_top" xlink:title="Clear the message line (bottom line of screen)">
<polygon fill="#fff0f0" stroke="red" points="244.5,-47.29 149.5,-47.29 149.5,-28.29 244.5,-28.29 244.5,-47.29"/>
<text text-anchor="middle" x="197" y="-35.29" font-family="Helvetica,sans-Serif" font-size="10.00">mutt_clear_error</text>
</a>
</g>
</g>
<!-- Node1&#45;&gt;Node351 -->
<g id="edge10" class="edge">
<title>Node1&#45;&gt;Node351</title>
<path fill="none" stroke="#63b8ff" d="M50.01,-139.02C61.2,-120.1 88.48,-78.41 123,-56.79 127.8,-53.78 133.07,-51.25 138.5,-49.12"/>
<polygon fill="#63b8ff" stroke="#63b8ff" points="139.32,-52.53 147.65,-45.98 137.05,-45.91 139.32,-52.53"/>
</g>
<!-- Node1304 -->
<g id="node10" class="node">
<title>Node1304</title>
<g id="a_node10"><a xlink:href="sendlib_8c.html#ac581b91b8ed18532dc94bf12335c178b" target="_top" xlink:title="Create a message attachment.">
<polygon fill="#fff0f0" stroke="red" points="271,-271.29 123,-271.29 123,-252.29 271,-252.29 271,-271.29"/>
<text text-anchor="middle" x="197" y="-259.29" font-family="Helvetica,sans-Serif" font-size="10.00">mutt_make_message_attach</text>
</a>
</g>
</g>
<!-- Node1&#45;&gt;Node1304 -->
<g id="edge11" class="edge">
<title>Node1&#45;&gt;Node1304</title>
<path fill="none" stroke="#63b8ff" d="M49.73,-158.62C60.62,-178.09 87.67,-221.6 123,-243.79 125.03,-245.07 127.14,-246.25 129.32,-247.35"/>
<polygon fill="#63b8ff" stroke="#63b8ff" points="127.91,-250.56 138.48,-251.31 130.69,-244.13 127.91,-250.56"/>
</g>
<!-- Node25&#45;&gt;Node3 -->
<g id="edge5" class="edge">
<title>Node25&#45;&gt;Node3</title>
<path fill="none" stroke="#63b8ff" d="M242.71,-154.14C261.53,-156.38 283.57,-159.02 303.26,-161.37"/>
<polygon fill="#63b8ff" stroke="#63b8ff" points="302.69,-164.83 313.03,-162.54 303.52,-157.88 302.69,-164.83"/>
</g>
<!-- Node1285&#45;&gt;Node3 -->
<g id="edge7" class="edge">
<title>Node1285&#45;&gt;Node3</title>
<path fill="none" stroke="#63b8ff" d="M235.84,-120.48C247.25,-123.41 259.73,-126.93 271,-130.79 289.79,-137.24 310.24,-145.96 326.49,-153.32"/>
<polygon fill="#63b8ff" stroke="#63b8ff" points="324.57,-156.29 335.12,-157.29 327.49,-149.93 324.57,-156.29"/>
</g>
<!-- Node1289&#45;&gt;Node803 -->
<g id="edge9" class="edge">
<title>Node1289&#45;&gt;Node803</title>
<path fill="none" stroke="#63b8ff" d="M240.61,-64.88C259.86,-60.4 282.81,-55.06 303.23,-50.3"/>
<polygon fill="#63b8ff" stroke="#63b8ff" points="303.85,-53.75 312.8,-48.08 302.27,-46.94 303.85,-53.75"/>
</g>
<!-- Node1304&#45;&gt;Node3 -->
<g id="edge12" class="edge">
<title>Node1304&#45;&gt;Node3</title>
<path fill="none" stroke="#63b8ff" d="M251.35,-251.85C258.15,-249.66 264.87,-247 271,-243.79 299.1,-229.06 325.52,-203.25 341.47,-185.84"/>
<polygon fill="#63b8ff" stroke="#63b8ff" points="343.77,-188.53 347.81,-178.74 338.54,-183.87 343.77,-188.53"/>
</g>
</g>
</svg>
