<?xml version="1.0" encoding="UTF-8" standalone="no"?>
<!DOCTYPE svg PUBLIC "-//W3C//DTD SVG 1.1//EN"
 "http://www.w3.org/Graphics/SVG/1.1/DTD/svg11.dtd">
<!-- Generated by graphviz version 2.44.0 (0)
 -->
<!-- Title: add_references Pages: 1 -->
<svg width="229pt" height="66pt"
 viewBox="0.00 0.00 229.00 66.00" xmlns="http://www.w3.org/2000/svg" xmlns:xlink="http://www.w3.org/1999/xlink">
<g id="graph0" class="graph" transform="scale(1 1) rotate(0) translate(4 62)">
<title>add_references</title>
<polygon fill="white" stroke="transparent" points="-4,4 -4,-62 225,-62 225,4 -4,4"/>
<!-- Node1 -->
<g id="node1" class="node">
<title>Node1</title>
<g id="a_node1"><a xlink:title="Add the email&#39;s references to a list.">
<polygon fill="#bfbfbf" stroke="black" points="0,-19.5 0,-38.5 83,-38.5 83,-19.5 0,-19.5"/>
<text text-anchor="middle" x="41.5" y="-26.5" font-family="Helvetica" font-size="10.00">add_references</text>
</a>
</g>
</g>
<!-- Node2 -->
<g id="node2" class="node">
<title>Node2</title>
<g id="a_node2"><a xlink:href="list_8c.html#ace47a64c8bec9d1b24be6524f650293d" target="_top" xlink:title="Append a string to the end of a List.">
<polygon fill="white" stroke="red" points="119,-38.5 119,-57.5 221,-57.5 221,-38.5 119,-38.5"/>
<text text-anchor="middle" x="170" y="-45.5" font-family="Helvetica" font-size="10.00">mutt_list_insert_tail</text>
</a>
</g>
</g>
<!-- Node1&#45;&gt;Node2 -->
<g id="edge1" class="edge">
<title>Node1&#45;&gt;Node2</title>
<path fill="none" stroke="midnightblue" d="M83.22,-35.12C91.32,-36.33 99.99,-37.63 108.58,-38.93"/>
<polygon fill="midnightblue" stroke="midnightblue" points="108.19,-42.41 118.6,-40.43 109.23,-35.48 108.19,-42.41"/>
</g>
<!-- Node5 -->
<g id="node3" class="node">
<title>Node5</title>
<g id="a_node3"><a xlink:href="mutt_2string_8c.html#a4c2560f787bd1226b977992c16860c98" target="_top" xlink:title="Copy a string, safely.">
<polygon fill="white" stroke="black" points="133,-0.5 133,-19.5 207,-19.5 207,-0.5 133,-0.5"/>
<text text-anchor="middle" x="170" y="-7.5" font-family="Helvetica" font-size="10.00">mutt_str_dup</text>
</a>
</g>
</g>
<!-- Node1&#45;&gt;Node5 -->
<g id="edge2" class="edge">
<title>Node1&#45;&gt;Node5</title>
<path fill="none" stroke="midnightblue" d="M83.22,-22.88C95.76,-21 109.66,-18.91 122.55,-16.98"/>
<polygon fill="midnightblue" stroke="midnightblue" points="123.26,-20.41 132.63,-15.46 122.22,-13.49 123.26,-20.41"/>
</g>
</g>
</svg>
