<?xml version="1.0" encoding="UTF-8" standalone="no"?>
<!DOCTYPE svg PUBLIC "-//W3C//DTD SVG 1.1//EN"
 "http://www.w3.org/Graphics/SVG/1.1/DTD/svg11.dtd">
<!-- Generated by graphviz version 2.44.0 (0)
 -->
<!-- Title: mutt_send_message Pages: 1 -->
<svg width="481pt" height="319pt"
 viewBox="0.00 0.00 481.00 318.69" xmlns="http://www.w3.org/2000/svg" xmlns:xlink="http://www.w3.org/1999/xlink">
<g id="graph0" class="graph" transform="scale(1 1) rotate(0) translate(4 314.69)">
<title>mutt_send_message</title>
<polygon fill="white" stroke="transparent" points="-4,4 -4,-314.69 477,-314.69 477,4 -4,4"/>
<!-- Node1 -->
<g id="node1" class="node">
<title>Node1</title>
<g id="a_node1"><a xlink:title="Send an email.">
<polygon fill="#bfbfbf" stroke="black" points="366,-139.19 366,-158.19 473,-158.19 473,-139.19 366,-139.19"/>
<text text-anchor="middle" x="419.5" y="-146.19" font-family="Helvetica" font-size="10.00">mutt_send_message</text>
</a>
</g>
</g>
<!-- Node2 -->
<g id="node2" class="node">
<title>Node2</title>
<g id="a_node2"><a xlink:href="recvcmd_8c.html#a441acd5672ed7ef8d4a41e7f41598056" target="_top" xlink:title="forward one or several MIME bodies">
<polygon fill="white" stroke="red" points="209.5,-291.19 209.5,-310.19 324.5,-310.19 324.5,-291.19 209.5,-291.19"/>
<text text-anchor="middle" x="267" y="-298.19" font-family="Helvetica" font-size="10.00">attach_forward_bodies</text>
</a>
</g>
</g>
<!-- Node1&#45;&gt;Node2 -->
<g id="edge1" class="edge">
<title>Node1&#45;&gt;Node2</title>
<path fill="none" stroke="midnightblue" d="M410.86,-167.77C398.3,-196.69 370.6,-251.43 330,-281.69 324.76,-285.6 318.72,-288.71 312.5,-291.18"/>
<polygon fill="midnightblue" stroke="midnightblue" points="414.15,-168.96 414.79,-158.38 407.7,-166.25 414.15,-168.96"/>
</g>
<!-- Node9 -->
<g id="node3" class="node">
<title>Node9</title>
<g id="a_node3"><a xlink:href="recvcmd_8c.html#aebe2b7780472d4f75c6cf0bcf101ef92" target="_top" xlink:title="Forward one or several message&#45;type attachments.">
<polygon fill="white" stroke="red" points="212,-253.19 212,-272.19 322,-272.19 322,-253.19 212,-253.19"/>
<text text-anchor="middle" x="267" y="-260.19" font-family="Helvetica" font-size="10.00">attach_forward_msgs</text>
</a>
</g>
</g>
<!-- Node1&#45;&gt;Node9 -->
<g id="edge2" class="edge">
<title>Node1&#45;&gt;Node9</title>
<path fill="none" stroke="midnightblue" d="M406.42,-166.54C391.06,-187.89 362.6,-223.29 330,-243.69 323.89,-247.52 316.96,-250.61 310.01,-253.11"/>
<polygon fill="midnightblue" stroke="midnightblue" points="409.29,-168.53 412.17,-158.33 403.56,-164.51 409.29,-168.53"/>
</g>
<!-- Node10 -->
<g id="node4" class="node">
<title>Node10</title>
<g id="a_node4"><a xlink:href="dlgquery_8c.html#a1b14278ee062936035f5b41babab18da" target="_top" xlink:title="Get the user to enter an Address Query.">
<polygon fill="white" stroke="red" points="221.5,-215.19 221.5,-234.19 312.5,-234.19 312.5,-215.19 221.5,-215.19"/>
<text text-anchor="middle" x="267" y="-222.19" font-family="Helvetica" font-size="10.00">dlg_select_query</text>
</a>
</g>
</g>
<!-- Node1&#45;&gt;Node10 -->
<g id="edge3" class="edge">
<title>Node1&#45;&gt;Node10</title>
<path fill="none" stroke="midnightblue" d="M395.43,-163.65C377.89,-174.66 352.95,-189.6 330,-200.69 318.98,-206.02 306.46,-211.05 295.57,-215.12"/>
<polygon fill="midnightblue" stroke="midnightblue" points="397.31,-166.6 403.87,-158.28 393.55,-160.69 397.31,-166.6"/>
</g>
<!-- Node6 -->
<g id="node5" class="node">
<title>Node6</title>
<g id="a_node5"><a xlink:href="main_8c.html#adedb285b02c41bde2158ded9cc9fd7ac" target="_top" xlink:title="Start NeoMutt.">
<polygon fill="white" stroke="black" points="0,-101.19 0,-120.19 38,-120.19 38,-101.19 0,-101.19"/>
<text text-anchor="middle" x="19" y="-108.19" font-family="Helvetica" font-size="10.00">main</text>
</a>
</g>
</g>
<!-- Node1&#45;&gt;Node6 -->
<g id="edge4" class="edge">
<title>Node1&#45;&gt;Node6</title>
<path fill="none" stroke="midnightblue" d="M372.52,-160.49C358.93,-163.46 343.95,-166.21 330,-167.69 274.31,-173.6 259.37,-176.07 204,-167.69 141.34,-158.21 70.62,-131.53 38.11,-118.32"/>
<polygon fill="midnightblue" stroke="midnightblue" points="373.63,-163.83 382.61,-158.2 372.08,-157 373.63,-163.83"/>
</g>
<!-- Node548 -->
<g id="node6" class="node">
<title>Node548</title>
<g id="a_node6"><a xlink:href="recvcmd_8h.html#a974b16877e9bb00f6680674b641591f9" target="_top" xlink:title="Compose an email to the sender in the email attachment.">
<polygon fill="white" stroke="red" points="204,-139.19 204,-158.19 330,-158.19 330,-139.19 204,-139.19"/>
<text text-anchor="middle" x="267" y="-146.19" font-family="Helvetica" font-size="10.00">mutt_attach_mail_sender</text>
</a>
</g>
</g>
<!-- Node1&#45;&gt;Node548 -->
<g id="edge5" class="edge">
<title>Node1&#45;&gt;Node548</title>
<path fill="none" stroke="midnightblue" d="M355.7,-148.69C347.26,-148.69 338.6,-148.69 330.16,-148.69"/>
<polygon fill="midnightblue" stroke="midnightblue" points="355.86,-152.19 365.86,-148.69 355.86,-145.19 355.86,-152.19"/>
</g>
<!-- Node60 -->
<g id="node7" class="node">
<title>Node60</title>
<g id="a_node7"><a xlink:href="pager_8c.html#a4cc11143557f95ded6a80f3cffff4483" target="_top" xlink:title="Display a file, or help, in a window.">
<polygon fill="white" stroke="red" points="88.5,-82.19 88.5,-101.19 153.5,-101.19 153.5,-82.19 88.5,-82.19"/>
<text text-anchor="middle" x="121" y="-89.19" font-family="Helvetica" font-size="10.00">mutt_pager</text>
</a>
</g>
</g>
<!-- Node1&#45;&gt;Node60 -->
<g id="edge11" class="edge">
<title>Node1&#45;&gt;Node60</title>
<path fill="none" stroke="midnightblue" d="M365.32,-137C353.7,-134.52 341.44,-131.97 330,-129.69 267.71,-117.32 194.62,-104.32 153.77,-97.19"/>
<polygon fill="midnightblue" stroke="midnightblue" points="364.83,-140.47 375.34,-139.15 366.3,-133.63 364.83,-140.47"/>
</g>
<!-- Node219 -->
<g id="node8" class="node">
<title>Node219</title>
<g id="a_node8"><a xlink:href="recvcmd_8h.html#ade797ae1cd4de6b890e844993d8a7b95" target="_top" xlink:title="Attach a reply.">
<polygon fill="white" stroke="red" points="219.5,-63.19 219.5,-82.19 314.5,-82.19 314.5,-63.19 219.5,-63.19"/>
<text text-anchor="middle" x="267" y="-70.19" font-family="Helvetica" font-size="10.00">mutt_attach_reply</text>
</a>
</g>
</g>
<!-- Node1&#45;&gt;Node219 -->
<g id="edge7" class="edge">
<title>Node1&#45;&gt;Node219</title>
<path fill="none" stroke="midnightblue" d="M395.43,-133.74C377.89,-122.72 352.95,-107.79 330,-96.69 318.98,-91.37 306.46,-86.34 295.57,-82.27"/>
<polygon fill="midnightblue" stroke="midnightblue" points="393.55,-136.7 403.87,-139.1 397.31,-130.79 393.55,-136.7"/>
</g>
<!-- Node5 -->
<g id="node9" class="node">
<title>Node5</title>
<g id="a_node9"><a xlink:href="index_2lib_8h.html#aa6202cffa700d674df25a7c5c02554d0" target="_top" xlink:title="Display a list of emails.">
<polygon fill="white" stroke="red" points="74,-25.19 74,-44.19 168,-44.19 168,-25.19 74,-25.19"/>
<text text-anchor="middle" x="121" y="-32.19" font-family="Helvetica" font-size="10.00">mutt_index_menu</text>
</a>
</g>
</g>
<!-- Node1&#45;&gt;Node5 -->
<g id="edge9" class="edge">
<title>Node1&#45;&gt;Node5</title>
<path fill="none" stroke="midnightblue" d="M412.32,-129.35C401.35,-98.7 375.27,-39.95 330,-15.69 269.11,16.93 183.66,-9.52 143.92,-25.19"/>
<polygon fill="midnightblue" stroke="midnightblue" points="409.04,-130.58 415.58,-138.92 415.67,-128.33 409.04,-130.58"/>
</g>
<!-- Node58 -->
<g id="node10" class="node">
<title>Node58</title>
<g id="a_node10"><a xlink:href="send_8h.html#afefc37e5c501370a416750db989402e9" target="_top" xlink:title="Resend an email.">
<polygon fill="white" stroke="red" points="209,-25.19 209,-44.19 325,-44.19 325,-25.19 209,-25.19"/>
<text text-anchor="middle" x="267" y="-32.19" font-family="Helvetica" font-size="10.00">mutt_resend_message</text>
</a>
</g>
</g>
<!-- Node1&#45;&gt;Node58 -->
<g id="edge12" class="edge">
<title>Node1&#45;&gt;Node58</title>
<path fill="none" stroke="midnightblue" d="M406.42,-130.85C391.06,-109.5 362.6,-74.09 330,-53.69 323.89,-49.87 316.96,-46.77 310.01,-44.28"/>
<polygon fill="midnightblue" stroke="midnightblue" points="403.56,-132.88 412.17,-139.05 409.29,-128.86 403.56,-132.88"/>
</g>
<!-- Node548&#45;&gt;Node60 -->
<g id="edge6" class="edge">
<title>Node548&#45;&gt;Node60</title>
<path fill="none" stroke="midnightblue" d="M231.77,-135.54C222.73,-132.04 212.99,-128.24 204,-124.69 184.3,-116.92 162.01,-107.94 145.65,-101.31"/>
<polygon fill="midnightblue" stroke="midnightblue" points="230.64,-138.85 241.23,-139.19 233.16,-132.32 230.64,-138.85"/>
</g>
<!-- Node219&#45;&gt;Node60 -->
<g id="edge8" class="edge">
<title>Node219&#45;&gt;Node60</title>
<path fill="none" stroke="midnightblue" d="M209.21,-80.19C190.26,-82.69 169.84,-85.38 153.52,-87.53"/>
<polygon fill="midnightblue" stroke="midnightblue" points="209.79,-83.64 219.25,-78.86 208.88,-76.7 209.79,-83.64"/>
</g>
<!-- Node5&#45;&gt;Node6 -->
<g id="edge10" class="edge">
<title>Node5&#45;&gt;Node6</title>
<path fill="none" stroke="midnightblue" d="M99.12,-50.57C79.01,-65.85 49.26,-88.45 32.56,-101.15"/>
<polygon fill="midnightblue" stroke="midnightblue" points="101.49,-53.16 107.33,-44.32 97.26,-47.58 101.49,-53.16"/>
</g>
<!-- Node58&#45;&gt;Node60 -->
<g id="edge14" class="edge">
<title>Node58&#45;&gt;Node60</title>
<path fill="none" stroke="midnightblue" d="M222.31,-47.26C216.12,-49.28 209.86,-51.45 204,-53.69 181.87,-62.17 157.32,-73.86 140.9,-82.04"/>
<polygon fill="midnightblue" stroke="midnightblue" points="223.45,-50.57 231.93,-44.22 221.34,-43.9 223.45,-50.57"/>
</g>
<!-- Node58&#45;&gt;Node5 -->
<g id="edge13" class="edge">
<title>Node58&#45;&gt;Node5</title>
<path fill="none" stroke="midnightblue" d="M198.45,-34.69C188.16,-34.69 177.75,-34.69 168.05,-34.69"/>
<polygon fill="midnightblue" stroke="midnightblue" points="198.67,-38.19 208.67,-34.69 198.67,-31.19 198.67,-38.19"/>
</g>
</g>
</svg>
