<?xml version="1.0" encoding="UTF-8" standalone="no"?>
<!DOCTYPE svg PUBLIC "-//W3C//DTD SVG 1.1//EN"
 "http://www.w3.org/Graphics/SVG/1.1/DTD/svg11.dtd">
<!-- Generated by graphviz version 2.40.1 (20161225.0304)
 -->
<!-- Title: set_encoding Pages: 1 -->
<svg width="256pt" height="142pt"
 viewBox="0.00 0.00 256.00 142.00" xmlns="http://www.w3.org/2000/svg" xmlns:xlink="http://www.w3.org/1999/xlink">
<g id="graph0" class="graph" transform="scale(1 1) rotate(0) translate(4 138)">
<title>set_encoding</title>
<polygon fill="#ffffff" stroke="transparent" points="-4,4 -4,-138 252,-138 252,4 -4,4"/>
<!-- Node16262 -->
<g id="node1" class="node">
<title>Node16262</title>
<polygon fill="#bfbfbf" stroke="#000000" points="0,-57.5 0,-76.5 81,-76.5 81,-57.5 0,-57.5"/>
<text text-anchor="middle" x="40.5" y="-64.5" font-family="Helvetica,sans-Serif" font-size="10.00" fill="#000000">set_encoding</text>
</g>
<!-- Node16263 -->
<g id="node2" class="node">
<title>Node16263</title>
<g id="a_node2"><a xlink:href="sendlib_8c.html#a8465f41e6b0f0256527ca2404edfb762" target="_top" xlink:title="Get a body&#39;s character set. ">
<polygon fill="#ffffff" stroke="#ff0000" points="117,-114.5 117,-133.5 248,-133.5 248,-114.5 117,-114.5"/>
<text text-anchor="middle" x="182.5" y="-121.5" font-family="Helvetica,sans-Serif" font-size="10.00" fill="#000000">mutt_body_get_charset</text>
</a>
</g>
</g>
<!-- Node16262&#45;&gt;Node16263 -->
<g id="edge1" class="edge">
<title>Node16262&#45;&gt;Node16263</title>
<path fill="none" stroke="#191970" d="M57.42,-76.5026C72.6637,-84.7958 95.8601,-96.7597 117,-105 122.9365,-107.314 129.2714,-109.4947 135.575,-111.496"/>
<polygon fill="#191970" stroke="#191970" points="134.807,-114.9207 145.3929,-114.4863 136.8466,-108.2245 134.807,-114.9207"/>
</g>
<!-- Node16268 -->
<g id="node3" class="node">
<title>Node16268</title>
<g id="a_node3"><a xlink:href="mutt_2string_8c.html#a839f0b98a34a804b639adcc596e7345b" target="_top" xlink:title="Check whether a string starts with a prefix. ">
<polygon fill="#ffffff" stroke="#ff0000" points="126.5,-76.5 126.5,-95.5 238.5,-95.5 238.5,-76.5 126.5,-76.5"/>
<text text-anchor="middle" x="182.5" y="-83.5" font-family="Helvetica,sans-Serif" font-size="10.00" fill="#000000">mutt_str_startswith</text>
</a>
</g>
</g>
<!-- Node16262&#45;&gt;Node16268 -->
<g id="edge2" class="edge">
<title>Node16262&#45;&gt;Node16268</title>
<path fill="none" stroke="#191970" d="M81.1915,-72.4446C92.2041,-73.9182 104.4144,-75.5519 116.4351,-77.1603"/>
<polygon fill="#191970" stroke="#191970" points="116.0816,-80.6441 126.4575,-78.5014 117.01,-73.706 116.0816,-80.6441"/>
</g>
<!-- Node16273 -->
<g id="node4" class="node">
<title>Node16273</title>
<g id="a_node4"><a xlink:href="sendlib_8c.html#af41734ef550be557043b573b7256ad9a" target="_top" xlink:title="Convert an email&#39;s MIME parts to 7&#45;bit. ">
<polygon fill="#ffffff" stroke="#ff0000" points="118.5,-38.5 118.5,-57.5 246.5,-57.5 246.5,-38.5 118.5,-38.5"/>
<text text-anchor="middle" x="182.5" y="-45.5" font-family="Helvetica,sans-Serif" font-size="10.00" fill="#000000">mutt_message_to_7bit</text>
</a>
</g>
</g>
<!-- Node16262&#45;&gt;Node16273 -->
<g id="edge3" class="edge">
<title>Node16262&#45;&gt;Node16273</title>
<path fill="none" stroke="#191970" d="M81.1915,-61.5554C89.7378,-60.4118 99.0054,-59.1718 108.3459,-57.922"/>
<polygon fill="#191970" stroke="#191970" points="109.0319,-61.3615 118.4794,-56.5661 108.1035,-54.4234 109.0319,-61.3615"/>
</g>
<!-- Node16265 -->
<g id="node5" class="node">
<title>Node16265</title>
<g id="a_node5"><a xlink:href="mutt_2string_8c.html#a011e5b6fad43bc608584d585987cf9c1" target="_top" xlink:title="Compare two strings ignoring case, safely. ">
<polygon fill="#ffffff" stroke="#000000" points="123,-.5 123,-19.5 242,-19.5 242,-.5 123,-.5"/>
<text text-anchor="middle" x="182.5" y="-7.5" font-family="Helvetica,sans-Serif" font-size="10.00" fill="#000000">mutt_str_strcasecmp</text>
</a>
</g>
</g>
<!-- Node16262&#45;&gt;Node16265 -->
<g id="edge4" class="edge">
<title>Node16262&#45;&gt;Node16265</title>
<path fill="none" stroke="#191970" d="M57.42,-57.4974C72.6637,-49.2042 95.8601,-37.2403 117,-29 122.9365,-26.686 129.2714,-24.5053 135.575,-22.504"/>
<polygon fill="#191970" stroke="#191970" points="136.8466,-25.7755 145.3929,-19.5137 134.807,-19.0793 136.8466,-25.7755"/>
</g>
</g>
</svg>
