<?xml version="1.0" encoding="UTF-8" standalone="no"?>
<!DOCTYPE svg PUBLIC "-//W3C//DTD SVG 1.1//EN"
 "http://www.w3.org/Graphics/SVG/1.1/DTD/svg11.dtd">
<!-- Generated by graphviz version 7.1.0 (0)
 -->
<!-- Title: mutt_invoke_sendmail Pages: 1 -->
<svg width="422pt" height="571pt"
 viewBox="0.00 0.00 422.00 571.00" xmlns="http://www.w3.org/2000/svg" xmlns:xlink="http://www.w3.org/1999/xlink">
<g id="graph0" class="graph" transform="scale(1 1) rotate(0) translate(4 567)">
<title>mutt_invoke_sendmail</title>
<!-- Node1 -->
<g id="node1" class="node">
<title>Node1</title>
<g id="a_node1"><a xlink:title="Run sendmail.">
<polygon fill="#999999" stroke="#666666" points="120,-280 0,-280 0,-261 120,-261 120,-280"/>
<text text-anchor="middle" x="60" y="-268" font-family="Helvetica,sans-Serif" font-size="10.00">mutt_invoke_sendmail</text>
</a>
</g>
</g>
<!-- Node2 -->
<g id="node2" class="node">
<title>Node2</title>
<g id="a_node2"><a xlink:href="sendmail_8c.html#aec13cef2575c181eb8cfd654d6bd8f84" target="_top" xlink:title="Add a list of Addresses to a dynamic array.">
<polygon fill="white" stroke="#666666" points="250,-563 192,-563 192,-544 250,-544 250,-563"/>
<text text-anchor="middle" x="221" y="-551" font-family="Helvetica,sans-Serif" font-size="10.00">add_args</text>
</a>
</g>
</g>
<!-- Node1&#45;&gt;Node2 -->
<g id="edge1" class="edge">
<title>Node1&#45;&gt;Node2</title>
<path fill="none" stroke="#63b8ff" d="M61.73,-280.24C65.04,-317.82 81.93,-454.9 156,-529.5 162.78,-536.33 171.68,-541.23 180.68,-544.76"/>
<polygon fill="#63b8ff" stroke="#63b8ff" points="179.54,-548.07 190.13,-547.92 181.76,-541.43 179.54,-548.07"/>
</g>
<!-- Node3 -->
<g id="node3" class="node">
<title>Node3</title>
<g id="a_node3"><a xlink:href="sendmail_8c.html#a6b6eaf80fe1e06f26512ab4370fe9286" target="_top" xlink:title="Add an Address to a dynamic array.">
<polygon fill="#fff0f0" stroke="red" points="408,-544 328,-544 328,-525 408,-525 408,-544"/>
<text text-anchor="middle" x="368" y="-532" font-family="Helvetica,sans-Serif" font-size="10.00">add_args_one</text>
</a>
</g>
</g>
<!-- Node1&#45;&gt;Node3 -->
<g id="edge3" class="edge">
<title>Node1&#45;&gt;Node3</title>
<path fill="none" stroke="#63b8ff" d="M61.87,-280.13C65.61,-315.39 83.59,-438.48 156,-496.5 180.2,-515.89 262.31,-526.14 316.67,-530.93"/>
<polygon fill="#63b8ff" stroke="#63b8ff" points="316.06,-534.39 326.31,-531.74 316.64,-527.42 316.06,-534.39"/>
</g>
<!-- Node5 -->
<g id="node4" class="node">
<title>Node5</title>
<g id="a_node4"><a xlink:href="config__type_8c.html#ae303ac83498043a651ec046b572bc707" target="_top" xlink:title="Get an Address config item by name.">
<polygon fill="#fff0f0" stroke="red" points="271.5,-487 170.5,-487 170.5,-468 271.5,-468 271.5,-487"/>
<text text-anchor="middle" x="221" y="-475" font-family="Helvetica,sans-Serif" font-size="10.00">cs_subset_address</text>
</a>
</g>
</g>
<!-- Node1&#45;&gt;Node5 -->
<g id="edge4" class="edge">
<title>Node1&#45;&gt;Node5</title>
<path fill="none" stroke="#63b8ff" d="M63.03,-280.49C69.96,-311.94 95.65,-409.73 156,-459.5 157.31,-460.58 158.68,-461.59 160.09,-462.55"/>
<polygon fill="#63b8ff" stroke="#63b8ff" points="158.27,-465.54 168.72,-467.27 161.63,-459.4 158.27,-465.54"/>
</g>
<!-- Node33 -->
<g id="node5" class="node">
<title>Node33</title>
<g id="a_node5"><a xlink:href="config_2helpers_8c.html#ae50f679dd6c5bd1ba820884c8602f038" target="_top" xlink:title="Get a boolean config item by name.">
<polygon fill="#fff0f0" stroke="red" points="411,-412 325,-412 325,-393 411,-393 411,-412"/>
<text text-anchor="middle" x="368" y="-400" font-family="Helvetica,sans-Serif" font-size="10.00">cs_subset_bool</text>
</a>
</g>
</g>
<!-- Node1&#45;&gt;Node33 -->
<g id="edge5" class="edge">
<title>Node1&#45;&gt;Node33</title>
<path fill="none" stroke="#63b8ff" d="M65.77,-280.27C77.49,-303.04 110.1,-359.56 156,-383.5 204.8,-408.95 268.63,-411.14 313.26,-408.57"/>
<polygon fill="#63b8ff" stroke="#63b8ff" points="313.49,-412.06 323.23,-407.88 313.01,-405.08 313.49,-412.06"/>
</g>
<!-- Node34 -->
<g id="node6" class="node">
<title>Node34</title>
<g id="a_node6"><a xlink:href="config_2helpers_8c.html#a96039a9f8d37daad993ae7b490510339" target="_top" xlink:title="Get a number config item by name.">
<polygon fill="#fff0f0" stroke="red" points="272.5,-204 169.5,-204 169.5,-185 272.5,-185 272.5,-204"/>
<text text-anchor="middle" x="221" y="-192" font-family="Helvetica,sans-Serif" font-size="10.00">cs_subset_number</text>
</a>
</g>
</g>
<!-- Node1&#45;&gt;Node34 -->
<g id="edge6" class="edge">
<title>Node1&#45;&gt;Node34</title>
<path fill="none" stroke="#63b8ff" d="M77.45,-260.56C96.11,-249.51 127.63,-231.51 156,-218.5 163.71,-214.96 172.11,-211.53 180.21,-208.42"/>
<polygon fill="#63b8ff" stroke="#63b8ff" points="181.41,-211.71 189.55,-204.93 178.96,-205.15 181.41,-211.71"/>
</g>
<!-- Node35 -->
<g id="node7" class="node">
<title>Node35</title>
<g id="a_node7"><a xlink:href="config_2helpers_8c.html#a6b1589ee93ff51ef31f1d9324e138078" target="_top" xlink:title="Get a string config item by name.">
<polygon fill="#fff0f0" stroke="red" points="414,-318 322,-318 322,-299 414,-299 414,-318"/>
<text text-anchor="middle" x="368" y="-306" font-family="Helvetica,sans-Serif" font-size="10.00">cs_subset_string</text>
</a>
</g>
</g>
<!-- Node1&#45;&gt;Node35 -->
<g id="edge7" class="edge">
<title>Node1&#45;&gt;Node35</title>
<path fill="none" stroke="#63b8ff" d="M105.77,-280.48C121.58,-283.74 139.52,-287.12 156,-289.5 208.02,-297.02 267.71,-302.07 310.3,-305.06"/>
<polygon fill="#63b8ff" stroke="#63b8ff" points="309.83,-308.53 320.05,-305.72 310.31,-301.55 309.83,-308.53"/>
</g>
<!-- Node36 -->
<g id="node8" class="node">
<title>Node36</title>
<g id="a_node8"><a xlink:href="do__pager_8c.html#a9d3af21b7fdf24249c261a9a1aa9f3be" target="_top" xlink:title="Display some page&#45;able text to the user (help or attachment)">
<polygon fill="#fff0f0" stroke="red" points="265,-450 177,-450 177,-431 265,-431 265,-450"/>
<text text-anchor="middle" x="221" y="-438" font-family="Helvetica,sans-Serif" font-size="10.00">mutt_do_pager</text>
</a>
</g>
</g>
<!-- Node1&#45;&gt;Node36 -->
<g id="edge8" class="edge">
<title>Node1&#45;&gt;Node36</title>
<path fill="none" stroke="#63b8ff" d="M64.74,-280.19C75.2,-306.04 107.18,-377.32 156,-416.5 160.57,-420.17 165.75,-423.31 171.15,-426"/>
<polygon fill="#63b8ff" stroke="#63b8ff" points="169.73,-429.2 180.29,-430.01 172.54,-422.79 169.73,-429.2"/>
</g>
<!-- Node521 -->
<g id="node9" class="node">
<title>Node521</title>
<g id="a_node9"><a xlink:href="group__expando__api.html#ga8972094c1e995739c8b072c8be3ce453" target="_top" xlink:title="Expand expandos (x) in a string &#45;.">
<polygon fill="#fff0f0" stroke="red" points="281,-356 161,-356 161,-337 281,-337 281,-356"/>
<text text-anchor="middle" x="221" y="-344" font-family="Helvetica,sans-Serif" font-size="10.00">mutt_expando_format</text>
</a>
</g>
</g>
<!-- Node1&#45;&gt;Node521 -->
<g id="edge10" class="edge">
<title>Node1&#45;&gt;Node521</title>
<path fill="none" stroke="#63b8ff" d="M77.45,-280.44C96.11,-291.49 127.63,-309.49 156,-322.5 163.71,-326.04 172.11,-329.47 180.21,-332.58"/>
<polygon fill="#63b8ff" stroke="#63b8ff" points="178.96,-335.85 189.55,-336.07 181.41,-329.29 178.96,-335.85"/>
</g>
<!-- Node10 -->
<g id="node10" class="node">
<title>Node10</title>
<g id="a_node10"><a xlink:href="mutt_2string_8c.html#a3fe33d90e4814281cd57de048119c950" target="_top" xlink:title="Copy a string, safely.">
<polygon fill="white" stroke="#666666" points="407.5,-262 328.5,-262 328.5,-243 407.5,-243 407.5,-262"/>
<text text-anchor="middle" x="368" y="-250" font-family="Helvetica,sans-Serif" font-size="10.00">mutt_str_dup</text>
</a>
</g>
</g>
<!-- Node1&#45;&gt;Node10 -->
<g id="edge16" class="edge">
<title>Node1&#45;&gt;Node10</title>
<path fill="none" stroke="#63b8ff" d="M101.42,-260.59C118.19,-256.95 137.92,-253.29 156,-251.5 213.5,-245.81 228.22,-251.14 286,-251.5 296.01,-251.56 306.72,-251.67 316.97,-251.79"/>
<polygon fill="#63b8ff" stroke="#63b8ff" points="316.72,-255.28 326.76,-251.91 316.8,-248.28 316.72,-255.28"/>
</g>
<!-- Node949 -->
<g id="node11" class="node">
<title>Node949</title>
<g id="a_node11"><a xlink:href="curs__lib_8c.html#abbd51b0f01f2565da12fddf6716c7b9c" target="_top" xlink:title="Force a hard refresh.">
<polygon fill="#fff0f0" stroke="red" points="286,-167 156,-167 156,-148 286,-148 286,-167"/>
<text text-anchor="middle" x="221" y="-155" font-family="Helvetica,sans-Serif" font-size="10.00">mutt_need_hard_redraw</text>
</a>
</g>
</g>
<!-- Node1&#45;&gt;Node949 -->
<g id="edge15" class="edge">
<title>Node1&#45;&gt;Node949</title>
<path fill="none" stroke="#63b8ff" d="M68.15,-260.51C82.53,-241.13 116.95,-198.37 156,-175.5 158.31,-174.15 160.73,-172.89 163.22,-171.73"/>
<polygon fill="#63b8ff" stroke="#63b8ff" points="164.39,-175.03 172.32,-168 161.74,-168.55 164.39,-175.03"/>
</g>
<!-- Node199 -->
<g id="node12" class="node">
<title>Node199</title>
<g id="a_node12"><a xlink:href="mutt_2string_8c.html#a6b6a50296dd2a31863a43379ef4a343d" target="_top" xlink:title="Compare two strings.">
<polygon fill="#fff0f0" stroke="red" points="264,-130 178,-130 178,-111 264,-111 264,-130"/>
<text text-anchor="middle" x="221" y="-118" font-family="Helvetica,sans-Serif" font-size="10.00">mutt_str_equal</text>
</a>
</g>
</g>
<!-- Node1&#45;&gt;Node199 -->
<g id="edge17" class="edge">
<title>Node1&#45;&gt;Node199</title>
<path fill="none" stroke="#63b8ff" d="M65.16,-260.82C76.19,-236.37 108.58,-171.69 156,-138.5 159.42,-136.11 163.14,-134.04 167.02,-132.24"/>
<polygon fill="#63b8ff" stroke="#63b8ff" points="168.13,-135.56 176.14,-128.64 165.56,-129.05 168.13,-135.56"/>
</g>
<!-- Node1359 -->
<g id="node13" class="node">
<title>Node1359</title>
<g id="a_node13"><a xlink:href="mutt_2string_8c.html#af77242e74cdc4862619cc97faf40427f" target="_top" xlink:title="Return a string matching an error code.">
<polygon fill="white" stroke="#666666" points="267,-93 175,-93 175,-74 267,-74 267,-93"/>
<text text-anchor="middle" x="221" y="-81" font-family="Helvetica,sans-Serif" font-size="10.00">mutt_str_sysexit</text>
</a>
</g>
</g>
<!-- Node1&#45;&gt;Node1359 -->
<g id="edge18" class="edge">
<title>Node1&#45;&gt;Node1359</title>
<path fill="none" stroke="#63b8ff" d="M63.6,-260.74C71.84,-231.74 100.18,-145.4 156,-101.5 158.59,-99.46 161.41,-97.65 164.36,-96.05"/>
<polygon fill="#63b8ff" stroke="#63b8ff" points="165.74,-99.26 173.42,-91.97 162.87,-92.88 165.74,-99.26"/>
</g>
<!-- Node1360 -->
<g id="node14" class="node">
<title>Node1360</title>
<g id="a_node14"><a xlink:href="group__expando__api.html#ga1299a75d0511f180ef4405c5e2370137" target="_top" xlink:title="Expand the newsrc filename &#45; Implements format_t &#45;.">
<polygon fill="#fff0f0" stroke="red" points="267,-56 175,-56 175,-37 267,-37 267,-56"/>
<text text-anchor="middle" x="221" y="-44" font-family="Helvetica,sans-Serif" font-size="10.00">nntp_format_str</text>
</a>
</g>
</g>
<!-- Node1&#45;&gt;Node1360 -->
<g id="edge19" class="edge">
<title>Node1&#45;&gt;Node1360</title>
<path fill="none" stroke="#63b8ff" d="M62.57,-260.57C68.36,-227.41 91.59,-119.46 156,-64.5 158.64,-62.25 161.54,-60.28 164.6,-58.56"/>
<polygon fill="#63b8ff" stroke="#63b8ff" points="165.83,-61.84 173.45,-54.47 162.9,-55.48 165.83,-61.84"/>
</g>
<!-- Node1361 -->
<g id="node15" class="node">
<title>Node1361</title>
<g id="a_node15"><a xlink:href="nntp_8c.html#a4cec5b84b23b34587cae72db07ad2d04" target="_top" xlink:title="Post article.">
<polygon fill="#fff0f0" stroke="red" points="252.5,-280 189.5,-280 189.5,-261 252.5,-261 252.5,-280"/>
<text text-anchor="middle" x="221" y="-268" font-family="Helvetica,sans-Serif" font-size="10.00">nntp_post</text>
</a>
</g>
</g>
<!-- Node1&#45;&gt;Node1361 -->
<g id="edge20" class="edge">
<title>Node1&#45;&gt;Node1361</title>
<path fill="none" stroke="#63b8ff" d="M120.21,-270.5C139.38,-270.5 160.24,-270.5 177.91,-270.5"/>
<polygon fill="#63b8ff" stroke="#63b8ff" points="177.78,-274 187.78,-270.5 177.78,-267 177.78,-274"/>
</g>
<!-- Node1435 -->
<g id="node16" class="node">
<title>Node1435</title>
<g id="a_node16"><a xlink:href="sendmail_8c.html#af07936c4bf0976889ee68581c67d9a3e" target="_top" xlink:title="Invoke sendmail in a subshell.">
<polygon fill="#fff0f0" stroke="red" points="252.5,-19 189.5,-19 189.5,0 252.5,0 252.5,-19"/>
<text text-anchor="middle" x="221" y="-7" font-family="Helvetica,sans-Serif" font-size="10.00">send_msg</text>
</a>
</g>
</g>
<!-- Node1&#45;&gt;Node1435 -->
<g id="edge22" class="edge">
<title>Node1&#45;&gt;Node1435</title>
<path fill="none" stroke="#63b8ff" d="M61.8,-260.66C65.31,-223.99 82.65,-93.95 156,-27.5 162.23,-21.85 170.1,-17.96 178.17,-15.28"/>
<polygon fill="#63b8ff" stroke="#63b8ff" points="178.96,-18.7 187.71,-12.73 177.14,-11.94 178.96,-18.7"/>
</g>
<!-- Node2&#45;&gt;Node3 -->
<g id="edge2" class="edge">
<title>Node2&#45;&gt;Node3</title>
<path fill="none" stroke="#63b8ff" d="M250.3,-549.79C269.04,-547.34 294.15,-544.05 316.28,-541.15"/>
<polygon fill="#63b8ff" stroke="#63b8ff" points="316.56,-544.64 326.02,-539.87 315.65,-537.7 316.56,-544.64"/>
</g>
<!-- Node36&#45;&gt;Node33 -->
<g id="edge9" class="edge">
<title>Node36&#45;&gt;Node33</title>
<path fill="none" stroke="#63b8ff" d="M260.1,-430.52C277.76,-425.89 298.97,-420.33 317.82,-415.39"/>
<polygon fill="#63b8ff" stroke="#63b8ff" points="318.66,-418.79 327.44,-412.87 316.88,-412.02 318.66,-418.79"/>
</g>
<!-- Node521&#45;&gt;Node33 -->
<g id="edge11" class="edge">
<title>Node521&#45;&gt;Node33</title>
<path fill="none" stroke="#63b8ff" d="M247.59,-356.38C270.64,-365.28 304.77,-378.47 330.65,-388.46"/>
<polygon fill="#63b8ff" stroke="#63b8ff" points="329.18,-391.64 339.77,-391.98 331.7,-385.11 329.18,-391.64"/>
</g>
<!-- Node521&#45;&gt;Node35 -->
<g id="edge12" class="edge">
<title>Node521&#45;&gt;Node35</title>
<path fill="none" stroke="#63b8ff" d="M260.1,-336.52C277.76,-331.89 298.97,-326.33 317.82,-321.39"/>
<polygon fill="#63b8ff" stroke="#63b8ff" points="318.66,-324.79 327.44,-318.87 316.88,-318.02 318.66,-324.79"/>
</g>
<!-- Node521&#45;&gt;Node521 -->
<g id="edge13" class="edge">
<title>Node521&#45;&gt;Node521</title>
<path fill="none" stroke="#63b8ff" d="M197.99,-356.37C187.49,-364.94 195.16,-374 221,-374 235.13,-374 243.83,-371.29 247.09,-367.43"/>
<polygon fill="#63b8ff" stroke="#63b8ff" points="250.47,-366.52 244.42,-357.83 243.73,-368.4 250.47,-366.52"/>
</g>
<!-- Node521&#45;&gt;Node10 -->
<g id="edge14" class="edge">
<title>Node521&#45;&gt;Node10</title>
<path fill="none" stroke="#63b8ff" d="M237.24,-336.62C262.33,-320.36 312.52,-287.82 342.6,-268.32"/>
<polygon fill="#63b8ff" stroke="#63b8ff" points="344.2,-271.45 350.69,-263.07 340.4,-265.58 344.2,-271.45"/>
</g>
<!-- Node1361&#45;&gt;Node35 -->
<g id="edge21" class="edge">
<title>Node1361&#45;&gt;Node35</title>
<path fill="none" stroke="#63b8ff" d="M252.75,-278.56C271.72,-283.53 296.48,-290.02 318.1,-295.68"/>
<polygon fill="#63b8ff" stroke="#63b8ff" points="317.04,-299.03 327.6,-298.18 318.82,-292.25 317.04,-299.03"/>
</g>
</g>
</svg>
