<?xml version="1.0" encoding="UTF-8" standalone="no"?>
<!DOCTYPE svg PUBLIC "-//W3C//DTD SVG 1.1//EN"
 "http://www.w3.org/Graphics/SVG/1.1/DTD/svg11.dtd">
<!-- Generated by graphviz version 7.1.0 (0)
 -->
<!-- Title: mh_seq_update Pages: 1 -->
<svg width="370pt" height="325pt"
 viewBox="0.00 0.00 370.00 325.00" xmlns="http://www.w3.org/2000/svg" xmlns:xlink="http://www.w3.org/1999/xlink">
<g id="graph0" class="graph" transform="scale(1 1) rotate(0) translate(4 321)">
<title>mh_seq_update</title>
<!-- Node1 -->
<g id="node1" class="node">
<title>Node1</title>
<g id="a_node1"><a xlink:title="Update sequence numbers.">
<polygon fill="#999999" stroke="#666666" points="90,-167 0,-167 0,-148 90,-148 90,-167"/>
<text text-anchor="middle" x="45" y="-155" font-family="Helvetica,sans-Serif" font-size="10.00">mh_seq_update</text>
</a>
</g>
</g>
<!-- Node2 -->
<g id="node2" class="node">
<title>Node2</title>
<g id="a_node2"><a xlink:href="config_2helpers_8c.html#a6b1589ee93ff51ef31f1d9324e138078" target="_top" xlink:title="Get a string config item by name.">
<polygon fill="#fff0f0" stroke="red" points="233,-317 141,-317 141,-298 233,-298 233,-317"/>
<text text-anchor="middle" x="187" y="-305" font-family="Helvetica,sans-Serif" font-size="10.00">cs_subset_string</text>
</a>
</g>
</g>
<!-- Node1&#45;&gt;Node2 -->
<g id="edge1" class="edge">
<title>Node1&#45;&gt;Node2</title>
<path fill="none" stroke="#63b8ff" d="M49.8,-167.49C59.2,-190.95 85.73,-250.07 126,-283.5 130.37,-287.12 135.35,-290.25 140.53,-292.94"/>
<polygon fill="#63b8ff" stroke="#63b8ff" points="138.72,-295.96 149.27,-296.95 141.64,-289.6 138.72,-295.96"/>
</g>
<!-- Node23 -->
<g id="node3" class="node">
<title>Node23</title>
<g id="a_node3"><a xlink:href="core_2mailbox_8h.html#a7e9739eb3e94344633f7051c2fb9453e" target="_top" xlink:title="Get the Mailbox&#39;s path string.">
<polygon fill="#fff0f0" stroke="red" points="362,-260 284,-260 284,-241 362,-241 362,-260"/>
<text text-anchor="middle" x="323" y="-248" font-family="Helvetica,sans-Serif" font-size="10.00">mailbox_path</text>
</a>
</g>
</g>
<!-- Node1&#45;&gt;Node23 -->
<g id="edge2" class="edge">
<title>Node1&#45;&gt;Node23</title>
<path fill="none" stroke="#63b8ff" d="M50.71,-167.25C61.05,-187.36 87.87,-233 126,-250.5 172.22,-271.71 231.27,-268.15 272.42,-261.52"/>
<polygon fill="#63b8ff" stroke="#63b8ff" points="272.79,-265.01 282.04,-259.85 271.59,-258.12 272.79,-265.01"/>
</g>
<!-- Node25 -->
<g id="node4" class="node">
<title>Node25</title>
<g id="a_node4"><a xlink:href="mh_2shared_8c.html#a7e127a63a4d213e3bf15efce2460e818" target="_top" xlink:title="Create a temporary file.">
<polygon fill="#fff0f0" stroke="red" points="227,-241 147,-241 147,-222 227,-222 227,-241"/>
<text text-anchor="middle" x="187" y="-229" font-family="Helvetica,sans-Serif" font-size="10.00">mh_mkstemp</text>
</a>
</g>
</g>
<!-- Node1&#45;&gt;Node25 -->
<g id="edge3" class="edge">
<title>Node1&#45;&gt;Node25</title>
<path fill="none" stroke="#63b8ff" d="M57.45,-167.31C72.35,-179.63 99.6,-200.71 126,-213.5 129.13,-215.02 132.41,-216.43 135.76,-217.75"/>
<polygon fill="#63b8ff" stroke="#63b8ff" points="134.56,-221.04 145.16,-221.13 136.93,-214.46 134.56,-221.04"/>
</g>
<!-- Node30 -->
<g id="node5" class="node">
<title>Node30</title>
<g id="a_node5"><a xlink:href="sequence_8c.html#a86fe1d2831cdac159da58fba06a69349" target="_top" xlink:title="Free some sequences.">
<polygon fill="white" stroke="#666666" points="225.5,-204 148.5,-204 148.5,-185 225.5,-185 225.5,-204"/>
<text text-anchor="middle" x="187" y="-192" font-family="Helvetica,sans-Serif" font-size="10.00">mh_seq_free</text>
</a>
</g>
</g>
<!-- Node1&#45;&gt;Node30 -->
<g id="edge5" class="edge">
<title>Node1&#45;&gt;Node30</title>
<path fill="none" stroke="#63b8ff" d="M83.52,-167.42C100.07,-171.79 119.74,-176.99 137.4,-181.66"/>
<polygon fill="#63b8ff" stroke="#63b8ff" points="136.35,-185 146.92,-184.17 138.14,-178.23 136.35,-185"/>
</g>
<!-- Node31 -->
<g id="node6" class="node">
<title>Node31</title>
<g id="a_node6"><a xlink:href="sequence_8c.html#a98258d9ecaa950ad05e613dbf9b19fb8" target="_top" xlink:title="Set a flag for a given sequence.">
<polygon fill="#fff0f0" stroke="red" points="222.5,-167 151.5,-167 151.5,-148 222.5,-148 222.5,-167"/>
<text text-anchor="middle" x="187" y="-155" font-family="Helvetica,sans-Serif" font-size="10.00">mh_seq_set</text>
</a>
</g>
</g>
<!-- Node1&#45;&gt;Node31 -->
<g id="edge6" class="edge">
<title>Node1&#45;&gt;Node31</title>
<path fill="none" stroke="#63b8ff" d="M90.3,-157.5C106.15,-157.5 124.06,-157.5 140.05,-157.5"/>
<polygon fill="#63b8ff" stroke="#63b8ff" points="139.79,-161 149.79,-157.5 139.79,-154 139.79,-161"/>
</g>
<!-- Node33 -->
<g id="node7" class="node">
<title>Node33</title>
<g id="a_node7"><a xlink:href="sequence_8c.html#af2866d346ca94ee47d192f9064cbcb99" target="_top" xlink:title="Write a flag sequence to a file.">
<polygon fill="#fff0f0" stroke="red" points="239,-130 135,-130 135,-111 239,-111 239,-130"/>
<text text-anchor="middle" x="187" y="-118" font-family="Helvetica,sans-Serif" font-size="10.00">mh_seq_write_one</text>
</a>
</g>
</g>
<!-- Node1&#45;&gt;Node33 -->
<g id="edge7" class="edge">
<title>Node1&#45;&gt;Node33</title>
<path fill="none" stroke="#63b8ff" d="M83.52,-147.58C100.07,-143.21 119.74,-138.01 137.4,-133.34"/>
<polygon fill="#63b8ff" stroke="#63b8ff" points="138.14,-136.77 146.92,-130.83 136.35,-130 138.14,-136.77"/>
</g>
<!-- Node35 -->
<g id="node8" class="node">
<title>Node35</title>
<g id="a_node8"><a xlink:href="file_8c.html#a1ad76f956147154f16128b7761dadd58" target="_top" xlink:title="Read a line from a file.">
<polygon fill="white" stroke="#666666" points="239,-93 135,-93 135,-74 239,-74 239,-93"/>
<text text-anchor="middle" x="187" y="-81" font-family="Helvetica,sans-Serif" font-size="10.00">mutt_file_read_line</text>
</a>
</g>
</g>
<!-- Node1&#45;&gt;Node35 -->
<g id="edge8" class="edge">
<title>Node1&#45;&gt;Node35</title>
<path fill="none" stroke="#63b8ff" d="M58.04,-147.52C73.11,-135.44 100.1,-115.15 126,-102.5 129.76,-100.67 133.73,-98.95 137.77,-97.37"/>
<polygon fill="#63b8ff" stroke="#63b8ff" points="138.89,-100.69 147.1,-94 136.51,-94.11 138.89,-100.69"/>
</g>
<!-- Node36 -->
<g id="node9" class="node">
<title>Node36</title>
<g id="a_node9"><a xlink:href="file_8c.html#a1cdf183d05e03b173070aa506d192822" target="_top" xlink:title="NFS&#45;safe renaming of files.">
<polygon fill="#fff0f0" stroke="red" points="248,-56 126,-56 126,-37 248,-37 248,-56"/>
<text text-anchor="middle" x="187" y="-44" font-family="Helvetica,sans-Serif" font-size="10.00">mutt_file_safe_rename</text>
</a>
</g>
</g>
<!-- Node1&#45;&gt;Node36 -->
<g id="edge9" class="edge">
<title>Node1&#45;&gt;Node36</title>
<path fill="none" stroke="#63b8ff" d="M51.95,-147.6C63.72,-128.82 91.85,-87.92 126,-65.5 128.52,-63.84 131.2,-62.32 133.97,-60.93"/>
<polygon fill="#63b8ff" stroke="#63b8ff" points="135.15,-64.23 142.91,-57.02 132.34,-57.82 135.15,-64.23"/>
</g>
<!-- Node38 -->
<g id="node10" class="node">
<title>Node38</title>
<g id="a_node10"><a xlink:href="mutt_2string_8c.html#a9bf968304f4f9b49e24215cb2e28d22d" target="_top" xlink:title="Check whether a string starts with a prefix.">
<polygon fill="#fff0f0" stroke="red" points="240.5,-19 133.5,-19 133.5,0 240.5,0 240.5,-19"/>
<text text-anchor="middle" x="187" y="-7" font-family="Helvetica,sans-Serif" font-size="10.00">mutt_str_startswith</text>
</a>
</g>
</g>
<!-- Node1&#45;&gt;Node38 -->
<g id="edge10" class="edge">
<title>Node1&#45;&gt;Node38</title>
<path fill="none" stroke="#63b8ff" d="M49.31,-147.78C57.96,-123.83 83.57,-61.51 126,-28.5 127.93,-27 129.97,-25.62 132.11,-24.34"/>
<polygon fill="#63b8ff" stroke="#63b8ff" points="133.18,-27.72 140.54,-20.1 130.03,-21.47 133.18,-27.72"/>
</g>
<!-- Node25&#45;&gt;Node23 -->
<g id="edge4" class="edge">
<title>Node25&#45;&gt;Node23</title>
<path fill="none" stroke="#63b8ff" d="M227.48,-237.1C241.63,-239.1 257.76,-241.39 272.64,-243.5"/>
<polygon fill="#63b8ff" stroke="#63b8ff" points="271.83,-246.92 282.23,-244.86 272.82,-239.99 271.83,-246.92"/>
</g>
</g>
</svg>
