<?xml version="1.0" encoding="UTF-8" standalone="no"?>
<!DOCTYPE svg PUBLIC "-//W3C//DTD SVG 1.1//EN"
 "http://www.w3.org/Graphics/SVG/1.1/DTD/svg11.dtd">
<!-- Generated by graphviz version 12.2.1 (20241206.2353)
 -->
<!-- Title: dump_node_text Pages: 1 -->
<svg width="222pt" height="70pt"
 viewBox="0.00 0.00 222.25 70.25" xmlns="http://www.w3.org/2000/svg" xmlns:xlink="http://www.w3.org/1999/xlink">
<g id="graph0" class="graph" transform="scale(1 1) rotate(0) translate(4 66.25)">
<title>dump_node_text</title>
<!-- Node1 -->
<g id="Node000001" class="node">
<title>Node1</title>
<g id="a_Node000001"><a xlink:title=" ">
<polygon fill="#999999" stroke="#666666" points="94,-42.25 0,-42.25 0,-20 94,-20 94,-42.25"/>
<text text-anchor="middle" x="47" y="-28.75" font-family="Helvetica,sans-Serif" font-size="10.00">dump_node_text</text>
</a>
</g>
</g>
<!-- Node2 -->
<g id="Node000002" class="node">
<title>Node2</title>
<g id="a_Node000002"><a xlink:href="buffer_8c.html#a0849b79217aad19e4bf9381d532d59d1" target="_top" xlink:title="Format a string appending a Buffer.">
<polygon fill="#fff0f0" stroke="red" points="214.25,-62.25 130,-62.25 130,-40 214.25,-40 214.25,-62.25"/>
<text text-anchor="middle" x="172.12" y="-48.75" font-family="Helvetica,sans-Serif" font-size="10.00">buf_add_printf</text>
</a>
</g>
</g>
<!-- Node1&#45;&gt;Node2 -->
<g id="edge1_Node000001_Node000002" class="edge">
<title>Node1&#45;&gt;Node2</title>
<g id="a_edge1_Node000001_Node000002"><a xlink:title=" ">
<path fill="none" stroke="#63b8ff" d="M94.2,-38.63C102.08,-39.91 110.33,-41.25 118.37,-42.55"/>
<polygon fill="#63b8ff" stroke="#63b8ff" points="117.61,-45.98 128.04,-44.13 118.73,-39.07 117.61,-45.98"/>
</a>
</g>
</g>
<!-- Node6 -->
<g id="Node000006" class="node">
<title>Node6</title>
<g id="a_Node000006"><a xlink:href="buffer_8c.html#a9924e74ddcb5280ab380e4627d1fba99" target="_top" xlink:title="Add a string to a Buffer.">
<polygon fill="#fff0f0" stroke="red" points="205.25,-22.25 139,-22.25 139,0 205.25,0 205.25,-22.25"/>
<text text-anchor="middle" x="172.12" y="-8.75" font-family="Helvetica,sans-Serif" font-size="10.00">buf_addstr</text>
</a>
</g>
</g>
<!-- Node1&#45;&gt;Node6 -->
<g id="edge2_Node000001_Node000006" class="edge">
<title>Node1&#45;&gt;Node6</title>
<g id="a_edge2_Node000001_Node000006"><a xlink:title=" ">
<path fill="none" stroke="#63b8ff" d="M94.2,-23.62C105.12,-21.85 116.74,-19.96 127.54,-18.2"/>
<polygon fill="#63b8ff" stroke="#63b8ff" points="128.07,-21.66 137.38,-16.61 126.95,-14.76 128.07,-21.66"/>
</a>
</g>
</g>
</g>
</svg>
