<?xml version="1.0" encoding="UTF-8" standalone="no"?>
<!DOCTYPE svg PUBLIC "-//W3C//DTD SVG 1.1//EN"
 "http://www.w3.org/Graphics/SVG/1.1/DTD/svg11.dtd">
<!-- Generated by graphviz version 12.2.1 (20241206.2353)
 -->
<!-- Title: serial_restore_uint32_t Pages: 1 -->
<svg width="530pt" height="105pt"
 viewBox="0.00 0.00 529.50 105.25" xmlns="http://www.w3.org/2000/svg" xmlns:xlink="http://www.w3.org/1999/xlink">
<g id="graph0" class="graph" transform="scale(1 1) rotate(0) translate(4 101.25)">
<title>serial_restore_uint32_t</title>
<!-- Node1 -->
<g id="Node000001" class="node">
<title>Node1</title>
<g id="a_Node000001"><a xlink:title="Unpack an uint32_t from a binary blob.">
<polygon fill="#999999" stroke="#666666" points="521.5,-61.25 399.75,-61.25 399.75,-39 521.5,-39 521.5,-61.25"/>
<text text-anchor="middle" x="460.62" y="-47.75" font-family="Helvetica,sans-Serif" font-size="10.00">serial_restore_uint32_t</text>
</a>
</g>
</g>
<!-- Node2 -->
<g id="Node000002" class="node">
<title>Node2</title>
<g id="a_Node000002"><a xlink:href="hcache_2hcache_8c.html#a8ef10068ab1140db0955929b282525f6" target="_top" xlink:title="Multiplexor for StoreOps::fetch.">
<polygon fill="#fff0f0" stroke="red" points="106,-79.25 0,-79.25 0,-57 106,-57 106,-79.25"/>
<text text-anchor="middle" x="53" y="-65.75" font-family="Helvetica,sans-Serif" font-size="10.00">hcache_fetch_email</text>
</a>
</g>
</g>
<!-- Node1&#45;&gt;Node2 -->
<g id="edge1_Node000001_Node000002" class="edge">
<title>Node1&#45;&gt;Node2</title>
<g id="a_edge1_Node000001_Node000002"><a xlink:title=" ">
<path fill="none" stroke="#63b8ff" d="M388.21,-60.55C379.97,-61.53 371.69,-62.42 363.75,-63.12 265.54,-71.83 240.59,-69.69 142,-69.12 130.39,-69.06 117.92,-68.94 106.12,-68.82"/>
<polygon fill="#63b8ff" stroke="#63b8ff" points="388.38,-64.06 397.87,-59.35 387.51,-57.11 388.38,-64.06"/>
</a>
</g>
</g>
<!-- Node773 -->
<g id="Node000773" class="node">
<title>Node773</title>
<g id="a_Node000773"><a xlink:href="hcache_2hcache_8c.html#a27b0e509e8f510ec02059b968ecfe86d" target="_top" xlink:title="Restore an Email from data retrieved from the cache.">
<polygon fill="white" stroke="#666666" points="221,-60.25 142,-60.25 142,-38 221,-38 221,-60.25"/>
<text text-anchor="middle" x="181.5" y="-46.75" font-family="Helvetica,sans-Serif" font-size="10.00">restore_email</text>
</a>
</g>
</g>
<!-- Node1&#45;&gt;Node773 -->
<g id="edge3_Node000001_Node000773" class="edge">
<title>Node1&#45;&gt;Node773</title>
<g id="a_edge3_Node000001_Node000773"><a xlink:title=" ">
<path fill="none" stroke="#63b8ff" d="M388.08,-49.87C334.86,-49.67 264.28,-49.42 221.19,-49.26"/>
<polygon fill="#63b8ff" stroke="#63b8ff" points="387.97,-53.37 397.98,-49.9 387.99,-46.37 387.97,-53.37"/>
</a>
</g>
</g>
<!-- Node774 -->
<g id="Node000774" class="node">
<title>Node774</title>
<g id="a_Node000774"><a xlink:href="serialize_8c.html#aac104d69a053bb4a598a923e90e42a89" target="_top" xlink:title="Unpack a Body from a binary blob.">
<polygon fill="white" stroke="#666666" points="363.75,-22.25 257,-22.25 257,0 363.75,0 363.75,-22.25"/>
<text text-anchor="middle" x="310.38" y="-8.75" font-family="Helvetica,sans-Serif" font-size="10.00">serial_restore_body</text>
</a>
</g>
</g>
<!-- Node1&#45;&gt;Node774 -->
<g id="edge5_Node000001_Node000774" class="edge">
<title>Node1&#45;&gt;Node774</title>
<g id="a_edge5_Node000001_Node000774"><a xlink:title=" ">
<path fill="none" stroke="#63b8ff" d="M404.6,-35.65C388.42,-31.39 370.94,-26.8 355.54,-22.74"/>
<polygon fill="#63b8ff" stroke="#63b8ff" points="403.52,-38.98 414.08,-38.14 405.3,-32.22 403.52,-38.98"/>
</a>
</g>
</g>
<!-- Node2&#45;&gt;Node2 -->
<g id="edge2_Node000002_Node000002" class="edge">
<title>Node2&#45;&gt;Node2</title>
<g id="a_edge2_Node000002_Node000002"><a xlink:title=" ">
<path fill="none" stroke="#63b8ff" d="M75.51,-90.7C72.44,-94.57 64.94,-97.25 53,-97.25 31.17,-97.25 24.17,-88.28 32.02,-79.49"/>
<polygon fill="#63b8ff" stroke="#63b8ff" points="79,-90.42 74.19,-80.98 72.07,-91.37 79,-90.42"/>
</a>
</g>
</g>
<!-- Node773&#45;&gt;Node2 -->
<g id="edge4_Node000773_Node000002" class="edge">
<title>Node773&#45;&gt;Node2</title>
<g id="a_edge4_Node000773_Node000002"><a xlink:title=" ">
<path fill="none" stroke="#63b8ff" d="M130.18,-56.68C122.27,-57.87 114.08,-59.1 106.13,-60.3"/>
<polygon fill="#63b8ff" stroke="#63b8ff" points="130.65,-60.15 140.02,-55.21 129.61,-53.23 130.65,-60.15"/>
</a>
</g>
</g>
<!-- Node774&#45;&gt;Node773 -->
<g id="edge6_Node000774_Node000773" class="edge">
<title>Node774&#45;&gt;Node773</title>
<g id="a_edge6_Node000774_Node000773"><a xlink:title=" ">
<path fill="none" stroke="#63b8ff" d="M259.61,-26.03C246.78,-29.87 233.17,-33.95 221.02,-37.59"/>
<polygon fill="#63b8ff" stroke="#63b8ff" points="260.59,-29.39 269.17,-23.17 258.59,-22.68 260.59,-29.39"/>
</a>
</g>
</g>
</g>
</svg>
