<?xml version="1.0" encoding="UTF-8" standalone="no"?>
<!DOCTYPE svg PUBLIC "-//W3C//DTD SVG 1.1//EN"
 "http://www.w3.org/Graphics/SVG/1.1/DTD/svg11.dtd">
<!-- Generated by graphviz version 12.2.1 (20241206.2353)
 -->
<!-- Title: dump_node Pages: 1 -->
<svg width="236pt" height="310pt"
 viewBox="0.00 0.00 235.75 310.25" xmlns="http://www.w3.org/2000/svg" xmlns:xlink="http://www.w3.org/1999/xlink">
<g id="graph0" class="graph" transform="scale(1 1) rotate(0) translate(4 306.25)">
<title>dump_node</title>
<!-- Node1 -->
<g id="Node000001" class="node">
<title>Node1</title>
<g id="a_Node000001"><a xlink:title=" ">
<polygon fill="#999999" stroke="#666666" points="71.5,-182.25 0,-182.25 0,-160 71.5,-160 71.5,-182.25"/>
<text text-anchor="middle" x="35.75" y="-168.75" font-family="Helvetica,sans-Serif" font-size="10.00">dump_node</text>
</a>
</g>
</g>
<!-- Node2 -->
<g id="Node000002" class="node">
<title>Node2</title>
<g id="a_Node000002"><a xlink:href="serial_8c.html#aa276209e298c6c1743b83b727b51bb09" target="_top" xlink:title=" ">
<polygon fill="#fff0f0" stroke="red" points="227,-302.25 108.25,-302.25 108.25,-280 227,-280 227,-302.25"/>
<text text-anchor="middle" x="167.62" y="-288.75" font-family="Helvetica,sans-Serif" font-size="10.00">dump_node_condbool</text>
</a>
</g>
</g>
<!-- Node1&#45;&gt;Node2 -->
<g id="edge1_Node000001_Node000002" class="edge">
<title>Node1&#45;&gt;Node2</title>
<g id="a_edge1_Node000001_Node000002"><a xlink:title=" ">
<path fill="none" stroke="#63b8ff" d="M41.82,-182.5C51.58,-203.13 74.93,-246.85 107.5,-271.12 109.02,-272.26 110.61,-273.33 112.26,-274.35"/>
<polygon fill="#63b8ff" stroke="#63b8ff" points="110.31,-277.28 120.79,-278.84 113.57,-271.08 110.31,-277.28"/>
</a>
</g>
</g>
<!-- Node35 -->
<g id="Node000035" class="node">
<title>Node35</title>
<g id="a_Node000035"><a xlink:href="serial_8c.html#ad73216b234799e48591f0c1696ac7584" target="_top" xlink:title=" ">
<polygon fill="#fff0f0" stroke="red" points="227.38,-262.25 107.88,-262.25 107.88,-240 227.38,-240 227.38,-262.25"/>
<text text-anchor="middle" x="167.62" y="-248.75" font-family="Helvetica,sans-Serif" font-size="10.00">dump_node_conddate</text>
</a>
</g>
</g>
<!-- Node1&#45;&gt;Node35 -->
<g id="edge2_Node000001_Node000035" class="edge">
<title>Node1&#45;&gt;Node35</title>
<g id="a_edge2_Node000001_Node000035"><a xlink:title=" ">
<path fill="none" stroke="#63b8ff" d="M47.27,-182.33C60.29,-195.61 83.67,-217.65 107.5,-231.12 109.98,-232.53 112.57,-233.85 115.22,-235.1"/>
<polygon fill="#63b8ff" stroke="#63b8ff" points="113.71,-238.26 124.28,-238.94 116.44,-231.81 113.71,-238.26"/>
</a>
</g>
</g>
<!-- Node36 -->
<g id="Node000036" class="node">
<title>Node36</title>
<g id="a_Node000036"><a xlink:href="serial_8c.html#a3d6b58beaa8312082c064b810888fdb2" target="_top" xlink:title=" ">
<polygon fill="#fff0f0" stroke="red" points="227,-222.25 108.25,-222.25 108.25,-200 227,-200 227,-222.25"/>
<text text-anchor="middle" x="167.62" y="-208.75" font-family="Helvetica,sans-Serif" font-size="10.00">dump_node_condition</text>
</a>
</g>
</g>
<!-- Node1&#45;&gt;Node36 -->
<g id="edge3_Node000001_Node000036" class="edge">
<title>Node1&#45;&gt;Node36</title>
<g id="a_edge3_Node000001_Node000036"><a xlink:title=" ">
<path fill="none" stroke="#63b8ff" d="M71.9,-175.88C91.61,-180.99 116.01,-188.57 135.11,-195.54"/>
<polygon fill="#63b8ff" stroke="#63b8ff" points="133.66,-198.73 144.25,-199.01 136.14,-192.19 133.66,-198.73"/>
</a>
</g>
</g>
<!-- Node39 -->
<g id="Node000039" class="node">
<title>Node39</title>
<g id="a_Node000039"><a xlink:href="serial_8c.html#ae2bb9a1ab4789daabc026d4f903e2c2f" target="_top" xlink:title=" ">
<polygon fill="#fff0f0" stroke="red" points="227.75,-182.25 107.5,-182.25 107.5,-160 227.75,-160 227.75,-182.25"/>
<text text-anchor="middle" x="167.62" y="-168.75" font-family="Helvetica,sans-Serif" font-size="10.00">dump_node_container</text>
</a>
</g>
</g>
<!-- Node1&#45;&gt;Node39 -->
<g id="edge5_Node000001_Node000039" class="edge">
<title>Node1&#45;&gt;Node39</title>
<g id="a_edge5_Node000001_Node000039"><a xlink:title=" ">
<path fill="none" stroke="#63b8ff" d="M71.9,-165.05C79.44,-164.68 87.66,-164.47 96.01,-164.4"/>
<polygon fill="#63b8ff" stroke="#63b8ff" points="95.91,-167.9 105.91,-164.4 95.91,-160.9 95.91,-167.9"/>
</a>
</g>
</g>
<!-- Node40 -->
<g id="Node000040" class="node">
<title>Node40</title>
<g id="a_Node000040"><a xlink:href="serial_8c.html#ad1468d17e7bc55adfec1738b79a5b594" target="_top" xlink:title=" ">
<polygon fill="#fff0f0" stroke="red" points="220.62,-142.25 114.62,-142.25 114.62,-120 220.62,-120 220.62,-142.25"/>
<text text-anchor="middle" x="167.62" y="-128.75" font-family="Helvetica,sans-Serif" font-size="10.00">dump_node_empty</text>
</a>
</g>
</g>
<!-- Node1&#45;&gt;Node40 -->
<g id="edge7_Node000001_Node000040" class="edge">
<title>Node1&#45;&gt;Node40</title>
<g id="a_edge7_Node000001_Node000040"><a xlink:title=" ">
<path fill="none" stroke="#63b8ff" d="M71.9,-160.3C86.16,-155.91 102.88,-150.76 118.26,-146.02"/>
<polygon fill="#63b8ff" stroke="#63b8ff" points="119.2,-149.39 127.73,-143.1 117.14,-142.7 119.2,-149.39"/>
</a>
</g>
</g>
<!-- Node41 -->
<g id="Node000041" class="node">
<title>Node41</title>
<g id="a_Node000041"><a xlink:href="serial_8c.html#aee0c09e04a4146d27ba8be4466c31974" target="_top" xlink:title=" ">
<polygon fill="#fff0f0" stroke="red" points="225.5,-102.25 109.75,-102.25 109.75,-80 225.5,-80 225.5,-102.25"/>
<text text-anchor="middle" x="167.62" y="-88.75" font-family="Helvetica,sans-Serif" font-size="10.00">dump_node_expando</text>
</a>
</g>
</g>
<!-- Node1&#45;&gt;Node41 -->
<g id="edge8_Node000001_Node000041" class="edge">
<title>Node1&#45;&gt;Node41</title>
<g id="a_edge8_Node000001_Node000041"><a xlink:title=" ">
<path fill="none" stroke="#63b8ff" d="M47.27,-159.92C60.29,-146.64 83.67,-124.6 107.5,-111.12 109.98,-109.72 112.57,-108.4 115.22,-107.15"/>
<polygon fill="#63b8ff" stroke="#63b8ff" points="116.44,-110.44 124.28,-103.31 113.71,-103.99 116.44,-110.44"/>
</a>
</g>
</g>
<!-- Node42 -->
<g id="Node000042" class="node">
<title>Node42</title>
<g id="a_Node000042"><a xlink:href="serial_8c.html#a5eac8136c16f913399127a4ada468003" target="_top" xlink:title=" ">
<polygon fill="#fff0f0" stroke="red" points="224.38,-62.25 110.88,-62.25 110.88,-40 224.38,-40 224.38,-62.25"/>
<text text-anchor="middle" x="167.62" y="-48.75" font-family="Helvetica,sans-Serif" font-size="10.00">dump_node_padding</text>
</a>
</g>
</g>
<!-- Node1&#45;&gt;Node42 -->
<g id="edge9_Node000001_Node000042" class="edge">
<title>Node1&#45;&gt;Node42</title>
<g id="a_edge9_Node000001_Node000042"><a xlink:title=" ">
<path fill="none" stroke="#63b8ff" d="M39.89,-159.52C47.56,-138.42 68.84,-95.6 101.81,-67"/>
<polygon fill="#63b8ff" stroke="#63b8ff" points="103.66,-70 109.26,-61.01 99.28,-64.55 103.66,-70"/>
</a>
</g>
</g>
<!-- Node44 -->
<g id="Node000044" class="node">
<title>Node44</title>
<g id="a_Node000044"><a xlink:href="serial_8c.html#abcb59bd51dbc495e21029823bc86b876" target="_top" xlink:title=" ">
<polygon fill="#fff0f0" stroke="red" points="214.62,-22.25 120.62,-22.25 120.62,0 214.62,0 214.62,-22.25"/>
<text text-anchor="middle" x="167.62" y="-8.75" font-family="Helvetica,sans-Serif" font-size="10.00">dump_node_text</text>
</a>
</g>
</g>
<!-- Node1&#45;&gt;Node44 -->
<g id="edge11_Node000001_Node000044" class="edge">
<title>Node1&#45;&gt;Node44</title>
<g id="a_edge11_Node000001_Node000044"><a xlink:title=" ">
<path fill="none" stroke="#63b8ff" d="M39.32,-159.88C45.92,-133.5 65.94,-67.17 107.5,-31.12 108.58,-30.19 109.71,-29.29 110.88,-28.44"/>
<polygon fill="#63b8ff" stroke="#63b8ff" points="112.38,-31.62 119.14,-23.46 108.77,-25.62 112.38,-31.62"/>
</a>
</g>
</g>
<!-- Node36&#45;&gt;Node1 -->
<g id="edge4_Node000036_Node000001" class="edge">
<title>Node36&#45;&gt;Node1</title>
<g id="a_edge4_Node000036_Node000001"><a xlink:title=" ">
<path fill="none" stroke="#63b8ff" d="M107.96,-199.78C94.32,-195.7 80.31,-191.11 68.36,-186.75"/>
<polygon fill="#63b8ff" stroke="#63b8ff" points="69.62,-183.48 59.03,-183.2 67.14,-190.03 69.62,-183.48"/>
</a>
</g>
</g>
<!-- Node39&#45;&gt;Node1 -->
<g id="edge6_Node000039_Node000001" class="edge">
<title>Node39&#45;&gt;Node1</title>
<g id="a_edge6_Node000039_Node000001"><a xlink:title=" ">
<path fill="none" stroke="#63b8ff" d="M107.43,-177.85C99.36,-177.92 91.18,-177.84 83.37,-177.63"/>
<polygon fill="#63b8ff" stroke="#63b8ff" points="83.53,-174.13 73.41,-177.26 83.27,-181.13 83.53,-174.13"/>
</a>
</g>
</g>
<!-- Node42&#45;&gt;Node1 -->
<g id="edge10_Node000042_Node000001" class="edge">
<title>Node42&#45;&gt;Node1</title>
<g id="a_edge10_Node000042_Node000001"><a xlink:title=" ">
<path fill="none" stroke="#63b8ff" d="M145.68,-62.69C133.63,-66.76 118.71,-71.77 107.5,-80.12 82.38,-98.85 62.74,-129.14 50.6,-149.77"/>
<polygon fill="#63b8ff" stroke="#63b8ff" points="47.67,-147.84 45.69,-158.25 53.73,-151.34 47.67,-147.84"/>
</a>
</g>
</g>
</g>
</svg>
