<?xml version="1.0" encoding="UTF-8" standalone="no"?>
<!DOCTYPE svg PUBLIC "-//W3C//DTD SVG 1.1//EN"
 "http://www.w3.org/Graphics/SVG/1.1/DTD/svg11.dtd">
<!-- Generated by graphviz version 7.1.0 (0)
 -->
<!-- Title: serial_restore_address Pages: 1 -->
<svg width="414pt" height="236pt"
 viewBox="0.00 0.00 414.00 235.94" xmlns="http://www.w3.org/2000/svg" xmlns:xlink="http://www.w3.org/1999/xlink">
<g id="graph0" class="graph" transform="scale(1 1) rotate(0) translate(4 231.94)">
<title>serial_restore_address</title>
<!-- Node1 -->
<g id="node1" class="node">
<title>Node1</title>
<g id="a_node1"><a xlink:title="Unpack an Address from a binary blob.">
<polygon fill="#999999" stroke="#666666" points="120,-116.94 0,-116.94 0,-97.94 120,-97.94 120,-116.94"/>
<text text-anchor="middle" x="60" y="-104.94" font-family="Helvetica,sans-Serif" font-size="10.00">serial_restore_address</text>
</a>
</g>
</g>
<!-- Node2 -->
<g id="node2" class="node">
<title>Node2</title>
<g id="a_node2"><a xlink:href="buffer_8c.html#a608a2d4559c47be18b5e56cf520dfd73" target="_top" xlink:title="Deallocates a buffer.">
<polygon fill="#fff0f0" stroke="red" points="243,-227.94 187,-227.94 187,-208.94 243,-208.94 243,-227.94"/>
<text text-anchor="middle" x="215" y="-215.94" font-family="Helvetica,sans-Serif" font-size="10.00">buf_free</text>
</a>
</g>
</g>
<!-- Node1&#45;&gt;Node2 -->
<g id="edge1" class="edge">
<title>Node1&#45;&gt;Node2</title>
<path fill="none" stroke="#63b8ff" d="M68.48,-117.42C83.18,-136.35 117.74,-177.62 156,-200.44 162.12,-204.1 169.05,-207.07 175.94,-209.48"/>
<polygon fill="#63b8ff" stroke="#63b8ff" points="174.57,-212.72 185.16,-212.35 176.66,-206.04 174.57,-212.72"/>
</g>
<!-- Node4 -->
<g id="node3" class="node">
<title>Node4</title>
<g id="a_node3"><a xlink:href="buffer_8c.html#a4245e227baa2a9beb6991917404aab0d" target="_top" xlink:title="Is the Buffer empty?">
<polygon fill="white" stroke="#666666" points="254,-190.94 176,-190.94 176,-171.94 254,-171.94 254,-190.94"/>
<text text-anchor="middle" x="215" y="-178.94" font-family="Helvetica,sans-Serif" font-size="10.00">buf_is_empty</text>
</a>
</g>
</g>
<!-- Node1&#45;&gt;Node4 -->
<g id="edge2" class="edge">
<title>Node1&#45;&gt;Node4</title>
<path fill="none" stroke="#63b8ff" d="M75.25,-117.27C93.36,-129.42 125.89,-150.11 156,-163.44 159.37,-164.94 162.91,-166.36 166.5,-167.7"/>
<polygon fill="#63b8ff" stroke="#63b8ff" points="165.3,-170.99 175.9,-170.98 167.61,-164.38 165.3,-170.99"/>
</g>
<!-- Node5 -->
<g id="node4" class="node">
<title>Node5</title>
<g id="a_node4"><a xlink:href="buffer_8c.html#a7f93abaa65bfc8c15c6ea5d02889c19d" target="_top" xlink:title="Allocate a new Buffer.">
<polygon fill="#fff0f0" stroke="red" points="243,-153.94 187,-153.94 187,-134.94 243,-134.94 243,-153.94"/>
<text text-anchor="middle" x="215" y="-141.94" font-family="Helvetica,sans-Serif" font-size="10.00">buf_new</text>
</a>
</g>
</g>
<!-- Node1&#45;&gt;Node5 -->
<g id="edge3" class="edge">
<title>Node1&#45;&gt;Node5</title>
<path fill="none" stroke="#63b8ff" d="M102,-117.36C124.92,-122.9 153.29,-129.76 175.75,-135.19"/>
<polygon fill="#63b8ff" stroke="#63b8ff" points="174.88,-138.58 185.42,-137.53 176.52,-131.78 174.88,-138.58"/>
</g>
<!-- Node11 -->
<g id="node5" class="node">
<title>Node11</title>
<g id="a_node5"><a xlink:href="address_2address_8c.html#a687c9a764007297f7f9bf8b5b08398e9" target="_top" xlink:title="Create a new Address.">
<polygon fill="white" stroke="#666666" points="259.5,-116.94 170.5,-116.94 170.5,-97.94 259.5,-97.94 259.5,-116.94"/>
<text text-anchor="middle" x="215" y="-104.94" font-family="Helvetica,sans-Serif" font-size="10.00">mutt_addr_new</text>
</a>
</g>
</g>
<!-- Node1&#45;&gt;Node11 -->
<g id="edge4" class="edge">
<title>Node1&#45;&gt;Node11</title>
<path fill="none" stroke="#63b8ff" d="M120.15,-107.44C132.9,-107.44 146.33,-107.44 158.91,-107.44"/>
<polygon fill="#63b8ff" stroke="#63b8ff" points="158.68,-110.94 168.68,-107.44 158.68,-103.94 158.68,-110.94"/>
</g>
<!-- Node12 -->
<g id="node6" class="node">
<title>Node12</title>
<g id="a_node6"><a xlink:href="address_2address_8c.html#a68385b174baad74a9aecf3dec61432a0" target="_top" xlink:title="Append an Address to an AddressList.">
<polygon fill="white" stroke="#666666" points="274,-79.94 156,-79.94 156,-60.94 274,-60.94 274,-79.94"/>
<text text-anchor="middle" x="215" y="-67.94" font-family="Helvetica,sans-Serif" font-size="10.00">mutt_addrlist_append</text>
</a>
</g>
</g>
<!-- Node1&#45;&gt;Node12 -->
<g id="edge5" class="edge">
<title>Node1&#45;&gt;Node12</title>
<path fill="none" stroke="#63b8ff" d="M102,-97.53C120.35,-93.09 142.2,-87.81 161.71,-83.09"/>
<polygon fill="#63b8ff" stroke="#63b8ff" points="162.52,-86.5 171.41,-80.74 160.87,-79.69 162.52,-86.5"/>
</g>
<!-- Node13 -->
<g id="node7" class="node">
<title>Node13</title>
<g id="a_node7"><a xlink:href="serialize_8c.html#a4f25dbb1f5e8d183270f031bc478fda7" target="_top" xlink:title="Unpack a Buffer from a binary blob.">
<polygon fill="#fff0f0" stroke="red" points="271.5,-42.94 158.5,-42.94 158.5,-23.94 271.5,-23.94 271.5,-42.94"/>
<text text-anchor="middle" x="215" y="-30.94" font-family="Helvetica,sans-Serif" font-size="10.00">serial_restore_buffer</text>
</a>
</g>
</g>
<!-- Node1&#45;&gt;Node13 -->
<g id="edge6" class="edge">
<title>Node1&#45;&gt;Node13</title>
<path fill="none" stroke="#63b8ff" d="M75.95,-97.47C94.24,-85.59 126.43,-65.68 156,-52.44 160.07,-50.62 164.38,-48.89 168.72,-47.26"/>
<polygon fill="#63b8ff" stroke="#63b8ff" points="169.82,-50.58 178.08,-43.94 167.49,-43.98 169.82,-50.58"/>
</g>
<!-- Node66 -->
<g id="node8" class="node">
<title>Node66</title>
<g id="a_node8"><a xlink:href="serialize_8c.html#ae337dfc66e217ae0253a77eef4271f02" target="_top" xlink:title="Unpack an integer from a binary blob.">
<polygon fill="white" stroke="#666666" points="406,-23.94 310,-23.94 310,-4.94 406,-4.94 406,-23.94"/>
<text text-anchor="middle" x="358" y="-11.94" font-family="Helvetica,sans-Serif" font-size="10.00">serial_restore_int</text>
</a>
</g>
</g>
<!-- Node1&#45;&gt;Node66 -->
<g id="edge8" class="edge">
<title>Node1&#45;&gt;Node66</title>
<path fill="none" stroke="#63b8ff" d="M67.34,-97.45C80.78,-77.34 114.33,-32.43 156,-15.44 201.19,2.98 256.99,1.57 298.33,-3.5"/>
<polygon fill="#63b8ff" stroke="#63b8ff" points="297.7,-6.94 308.08,-4.81 298.63,-0.01 297.7,-6.94"/>
</g>
<!-- Node13&#45;&gt;Node66 -->
<g id="edge7" class="edge">
<title>Node13&#45;&gt;Node66</title>
<path fill="none" stroke="#63b8ff" d="M271.73,-25.93C280.6,-24.74 289.81,-23.5 298.74,-22.29"/>
<polygon fill="#63b8ff" stroke="#63b8ff" points="298.92,-25.8 308.37,-21 297.99,-18.86 298.92,-25.8"/>
</g>
</g>
</svg>
