<?xml version="1.0" encoding="UTF-8" standalone="no"?>
<!DOCTYPE svg PUBLIC "-//W3C//DTD SVG 1.1//EN"
 "http://www.w3.org/Graphics/SVG/1.1/DTD/svg11.dtd">
<!-- Generated by graphviz version 2.40.1 (20161225.0304)
 -->
<!-- Title: cs_new Pages: 1 -->
<svg width="240pt" height="142pt"
 viewBox="0.00 0.00 240.00 142.00" xmlns="http://www.w3.org/2000/svg" xmlns:xlink="http://www.w3.org/1999/xlink">
<g id="graph0" class="graph" transform="scale(1 1) rotate(0) translate(4 138)">
<title>cs_new</title>
<polygon fill="#ffffff" stroke="transparent" points="-4,4 -4,-138 236,-138 236,4 -4,4"/>
<!-- Node0 -->
<g id="node1" class="node">
<title>Node0</title>
<polygon fill="#bfbfbf" stroke="#000000" points="0,-57.5 0,-76.5 53,-76.5 53,-57.5 0,-57.5"/>
<text text-anchor="middle" x="26.5" y="-64.5" font-family="Helvetica,sans-Serif" font-size="10.00" fill="#000000">cs_new</text>
</g>
<!-- Node1 -->
<g id="node2" class="node">
<title>Node1</title>
<g id="a_node2"><a xlink:href="memory_8c.html#a4c1612d209c7825d55e6a014df352f03" target="_top" xlink:title="Allocate zeroed memory on the heap. ">
<polygon fill="#ffffff" stroke="#ff0000" points="108.5,-114.5 108.5,-133.5 212.5,-133.5 212.5,-114.5 108.5,-114.5"/>
<text text-anchor="middle" x="160.5" y="-121.5" font-family="Helvetica,sans-Serif" font-size="10.00" fill="#000000">mutt_mem_calloc</text>
</a>
</g>
</g>
<!-- Node0&#45;&gt;Node1 -->
<g id="edge1" class="edge">
<title>Node0&#45;&gt;Node1</title>
<path fill="none" stroke="#191970" d="M39.7918,-76.6378C52.0473,-85.1369 71.0105,-97.3303 89,-105 94.7377,-107.4462 100.8714,-109.648 107.0445,-111.6102"/>
<polygon fill="#191970" stroke="#191970" points="106.143,-114.9936 116.7262,-114.497 108.1433,-108.2855 106.143,-114.9936"/>
</g>
<!-- Node3 -->
<g id="node3" class="node">
<title>Node3</title>
<g id="a_node3"><a xlink:href="hash_8c.html#a8bce8d11bb659d44bd796f72069ddb3d" target="_top" xlink:title="Create a new Hash Table (with string keys) ">
<polygon fill="#ffffff" stroke="#ff0000" points="113.5,-76.5 113.5,-95.5 207.5,-95.5 207.5,-76.5 113.5,-76.5"/>
<text text-anchor="middle" x="160.5" y="-83.5" font-family="Helvetica,sans-Serif" font-size="10.00" fill="#000000">mutt_hash_new</text>
</a>
</g>
</g>
<!-- Node0&#45;&gt;Node3 -->
<g id="edge2" class="edge">
<title>Node0&#45;&gt;Node3</title>
<path fill="none" stroke="#191970" d="M53.2948,-70.7993C67.6601,-72.8361 85.9384,-75.4278 103.3162,-77.8918"/>
<polygon fill="#191970" stroke="#191970" points="103.0152,-81.3841 113.4075,-79.3227 103.9979,-74.4534 103.0152,-81.3841"/>
</g>
<!-- Node11 -->
<g id="node4" class="node">
<title>Node11</title>
<g id="a_node4"><a xlink:href="hash_8c.html#a8fdd3fbf2f93e78267168d3a8d2b4d79" target="_top" xlink:title="Set the destructor for a Hash Table. ">
<polygon fill="#ffffff" stroke="#000000" points="89,-38.5 89,-57.5 232,-57.5 232,-38.5 89,-38.5"/>
<text text-anchor="middle" x="160.5" y="-45.5" font-family="Helvetica,sans-Serif" font-size="10.00" fill="#000000">mutt_hash_set_destructor</text>
</a>
</g>
</g>
<!-- Node0&#45;&gt;Node11 -->
<g id="edge3" class="edge">
<title>Node0&#45;&gt;Node11</title>
<path fill="none" stroke="#191970" d="M53.2948,-63.2007C62.1831,-61.9405 72.5694,-60.4678 83.3136,-58.9443"/>
<polygon fill="#191970" stroke="#191970" points="83.8389,-62.405 93.2485,-57.5357 82.8562,-55.4743 83.8389,-62.405"/>
</g>
<!-- Node12 -->
<g id="node5" class="node">
<title>Node12</title>
<g id="a_node5"><a xlink:href="set_8c.html#aed5e3a06b467a01713e2eb7246523ba4" target="_top" xlink:title="Callback function for the Hash Table &#45; Implements hash_hdata_free_t. ">
<polygon fill="#ffffff" stroke="#ff0000" points="108,-.5 108,-19.5 213,-19.5 213,-.5 108,-.5"/>
<text text-anchor="middle" x="160.5" y="-7.5" font-family="Helvetica,sans-Serif" font-size="10.00" fill="#000000">cs_hashelem_free</text>
</a>
</g>
</g>
<!-- Node0&#45;&gt;Node12 -->
<g id="edge4" class="edge">
<title>Node0&#45;&gt;Node12</title>
<path fill="none" stroke="#191970" d="M39.7918,-57.3622C52.0473,-48.8631 71.0105,-36.6697 89,-29 94.7377,-26.5538 100.8714,-24.352 107.0445,-22.3898"/>
<polygon fill="#191970" stroke="#191970" points="108.1433,-25.7145 116.7262,-19.503 106.143,-19.0064 108.1433,-25.7145"/>
</g>
</g>
</svg>
