<?xml version="1.0" encoding="UTF-8" standalone="no"?>
<!DOCTYPE svg PUBLIC "-//W3C//DTD SVG 1.1//EN"
 "http://www.w3.org/Graphics/SVG/1.1/DTD/svg11.dtd">
<!-- Generated by graphviz version 2.40.1 (20161225.0304)
 -->
<!-- Title: config/set.h Pages: 1 -->
<svg width="1721pt" height="84pt"
 viewBox="0.00 0.00 1720.50 84.00" xmlns="http://www.w3.org/2000/svg" xmlns:xlink="http://www.w3.org/1999/xlink">
<g id="graph0" class="graph" transform="scale(1 1) rotate(0) translate(4 80)">
<title>config/set.h</title>
<polygon fill="#ffffff" stroke="transparent" points="-4,4 -4,-80 1716.5,-80 1716.5,4 -4,4"/>
<!-- Node4 -->
<g id="node1" class="node">
<title>Node4</title>
<polygon fill="#bfbfbf" stroke="#000000" points="838.5,-56.5 838.5,-75.5 911.5,-75.5 911.5,-56.5 838.5,-56.5"/>
<text text-anchor="middle" x="875" y="-63.5" font-family="Helvetica,sans-Serif" font-size="10.00" fill="#000000">config/set.h</text>
</g>
<!-- Node5 -->
<g id="node2" class="node">
<title>Node5</title>
<g id="a_node2"><a xlink:href="config_2lib_8h.html" target="_top" xlink:title="Convenience wrapper for the config headers. ">
<polygon fill="#ffffff" stroke="#ff0000" points="0,-.5 0,-19.5 70,-19.5 70,-.5 0,-.5"/>
<text text-anchor="middle" x="35" y="-7.5" font-family="Helvetica,sans-Serif" font-size="10.00" fill="#000000">config/lib.h</text>
</a>
</g>
</g>
<!-- Node4&#45;&gt;Node5 -->
<g id="edge1" class="edge">
<title>Node4&#45;&gt;Node5</title>
<path fill="none" stroke="#191970" d="M828.3147,-64.3204C680.7044,-58.8495 225.2275,-40.6962 79,-20 76.2077,-19.6048 73.3306,-19.123 70.4478,-18.5867"/>
<polygon fill="#191970" stroke="#191970" points="828.2799,-67.8214 838.4021,-64.6923 828.5379,-60.8262 828.2799,-67.8214"/>
</g>
<!-- Node190 -->
<g id="node3" class="node">
<title>Node190</title>
<g id="a_node3"><a xlink:href="config_2address_8c.html" target="_top" xlink:title="Type representing an email address. ">
<polygon fill="#ffffff" stroke="#000000" points="88.5,-.5 88.5,-19.5 183.5,-19.5 183.5,-.5 88.5,-.5"/>
<text text-anchor="middle" x="136" y="-7.5" font-family="Helvetica,sans-Serif" font-size="10.00" fill="#000000">config/address.c</text>
</a>
</g>
</g>
<!-- Node4&#45;&gt;Node190 -->
<g id="edge2" class="edge">
<title>Node4&#45;&gt;Node190</title>
<path fill="none" stroke="#191970" d="M828.1082,-64.5555C717.2911,-60.7676 430.6748,-48.7814 193,-20 189.908,-19.6256 186.7291,-19.1952 183.5295,-18.7279"/>
<polygon fill="#191970" stroke="#191970" points="828.1643,-68.0593 838.2761,-64.8968 828.3992,-61.0632 828.1643,-68.0593"/>
</g>
<!-- Node191 -->
<g id="node4" class="node">
<title>Node191</title>
<g id="a_node4"><a xlink:href="bool_8c.html" target="_top" xlink:title="Type representing a boolean. ">
<polygon fill="#ffffff" stroke="#000000" points="202,-.5 202,-19.5 280,-19.5 280,-.5 202,-.5"/>
<text text-anchor="middle" x="241" y="-7.5" font-family="Helvetica,sans-Serif" font-size="10.00" fill="#000000">config/bool.c</text>
</a>
</g>
</g>
<!-- Node4&#45;&gt;Node191 -->
<g id="edge3" class="edge">
<title>Node4&#45;&gt;Node191</title>
<path fill="none" stroke="#191970" d="M828.456,-64.3565C728.9931,-60.4039 488.5325,-48.4984 289,-20 286.1349,-19.5908 283.1842,-19.1139 280.2211,-18.5945"/>
<polygon fill="#191970" stroke="#191970" points="828.3493,-67.8549 838.4779,-64.7466 828.6217,-60.8602 828.3493,-67.8549"/>
</g>
<!-- Node192 -->
<g id="node5" class="node">
<title>Node192</title>
<g id="a_node5"><a xlink:href="dump_8c.html" target="_top" xlink:title="Dump all the config. ">
<polygon fill="#ffffff" stroke="#000000" points="298.5,-.5 298.5,-19.5 383.5,-19.5 383.5,-.5 298.5,-.5"/>
<text text-anchor="middle" x="341" y="-7.5" font-family="Helvetica,sans-Serif" font-size="10.00" fill="#000000">config/dump.c</text>
</a>
</g>
</g>
<!-- Node4&#45;&gt;Node192 -->
<g id="edge4" class="edge">
<title>Node4&#45;&gt;Node192</title>
<path fill="none" stroke="#191970" d="M828.4979,-63.1038C742.1678,-57.3873 551.4032,-43.1607 392,-20 389.232,-19.5978 386.3865,-19.1464 383.5229,-18.6636"/>
<polygon fill="#191970" stroke="#191970" points="828.2917,-66.5977 838.4991,-63.7587 828.7492,-59.6126 828.2917,-66.5977"/>
</g>
<!-- Node193 -->
<g id="node6" class="node">
<title>Node193</title>
<g id="a_node6"><a xlink:href="enum_8c.html" target="_top" xlink:title="Type representing an enumeration. ">
<polygon fill="#ffffff" stroke="#000000" points="401.5,-.5 401.5,-19.5 486.5,-19.5 486.5,-.5 401.5,-.5"/>
<text text-anchor="middle" x="444" y="-7.5" font-family="Helvetica,sans-Serif" font-size="10.00" fill="#000000">config/enum.c</text>
</a>
</g>
</g>
<!-- Node4&#45;&gt;Node193 -->
<g id="edge5" class="edge">
<title>Node4&#45;&gt;Node193</title>
<path fill="none" stroke="#191970" d="M828.3835,-61.4669C756.5696,-54.2335 614.6448,-38.9455 495,-20 492.2374,-19.5625 489.396,-19.0844 486.5354,-18.5818"/>
<polygon fill="#191970" stroke="#191970" points="828.1604,-64.962 838.4592,-62.4752 828.8575,-57.9968 828.1604,-64.962"/>
</g>
<!-- Node194 -->
<g id="node7" class="node">
<title>Node194</title>
<g id="a_node7"><a xlink:href="helpers_8c.html" target="_top" xlink:title="Helper functions to get config values. ">
<polygon fill="#ffffff" stroke="#000000" points="504.5,-.5 504.5,-19.5 597.5,-19.5 597.5,-.5 504.5,-.5"/>
<text text-anchor="middle" x="551" y="-7.5" font-family="Helvetica,sans-Serif" font-size="10.00" fill="#000000">config/helpers.c</text>
</a>
</g>
</g>
<!-- Node4&#45;&gt;Node194 -->
<g id="edge6" class="edge">
<title>Node4&#45;&gt;Node194</title>
<path fill="none" stroke="#191970" d="M828.2672,-58.0766C774.7759,-48.9846 684.5412,-33.5778 607,-20 603.9843,-19.4719 600.8778,-18.9251 597.7467,-18.3719"/>
<polygon fill="#191970" stroke="#191970" points="827.6935,-61.5292 838.1385,-59.7537 828.866,-54.6281 827.6935,-61.5292"/>
</g>
<!-- Node195 -->
<g id="node8" class="node">
<title>Node195</title>
<g id="a_node8"><a xlink:href="long_8c.html" target="_top" xlink:title="Type representing a long. ">
<polygon fill="#ffffff" stroke="#000000" points="616,-.5 616,-19.5 694,-19.5 694,-.5 616,-.5"/>
<text text-anchor="middle" x="655" y="-7.5" font-family="Helvetica,sans-Serif" font-size="10.00" fill="#000000">config/long.c</text>
</a>
</g>
</g>
<!-- Node4&#45;&gt;Node195 -->
<g id="edge7" class="edge">
<title>Node4&#45;&gt;Node195</title>
<path fill="none" stroke="#191970" d="M828.2984,-54.1123C787.8889,-43.8263 730.2038,-29.1428 692.6806,-19.5914"/>
<polygon fill="#191970" stroke="#191970" points="827.6226,-57.5518 838.1769,-56.6269 829.3494,-50.7682 827.6226,-57.5518"/>
</g>
<!-- Node196 -->
<g id="node9" class="node">
<title>Node196</title>
<g id="a_node9"><a xlink:href="mbtable_8c.html" target="_top" xlink:title="Type representing a multibyte character table. ">
<polygon fill="#ffffff" stroke="#000000" points="712,-.5 712,-19.5 810,-19.5 810,-.5 712,-.5"/>
<text text-anchor="middle" x="761" y="-7.5" font-family="Helvetica,sans-Serif" font-size="10.00" fill="#000000">config/mbtable.c</text>
</a>
</g>
</g>
<!-- Node4&#45;&gt;Node196 -->
<g id="edge8" class="edge">
<title>Node4&#45;&gt;Node196</title>
<path fill="none" stroke="#191970" d="M846.1679,-51.8368C825.5605,-41.7139 798.3918,-28.3679 780.3416,-19.5011"/>
<polygon fill="#191970" stroke="#191970" points="844.884,-55.1056 855.4027,-56.3733 847.9703,-48.8227 844.884,-55.1056"/>
</g>
<!-- Node197 -->
<g id="node10" class="node">
<title>Node197</title>
<g id="a_node10"><a xlink:href="number_8c.html" target="_top" xlink:title="Type representing a number. ">
<polygon fill="#ffffff" stroke="#000000" points="828,-.5 828,-19.5 922,-19.5 922,-.5 828,-.5"/>
<text text-anchor="middle" x="875" y="-7.5" font-family="Helvetica,sans-Serif" font-size="10.00" fill="#000000">config/number.c</text>
</a>
</g>
</g>
<!-- Node4&#45;&gt;Node197 -->
<g id="edge9" class="edge">
<title>Node4&#45;&gt;Node197</title>
<path fill="none" stroke="#191970" d="M875,-46.1575C875,-37.155 875,-26.9199 875,-19.6427"/>
<polygon fill="#191970" stroke="#191970" points="871.5001,-46.2455 875,-56.2455 878.5001,-46.2456 871.5001,-46.2455"/>
</g>
<!-- Node198 -->
<g id="node11" class="node">
<title>Node198</title>
<g id="a_node11"><a xlink:href="config_2path_8c.html" target="_top" xlink:title="Type representing a path. ">
<polygon fill="#ffffff" stroke="#000000" points="940.5,-.5 940.5,-19.5 1019.5,-19.5 1019.5,-.5 940.5,-.5"/>
<text text-anchor="middle" x="980" y="-7.5" font-family="Helvetica,sans-Serif" font-size="10.00" fill="#000000">config/path.c</text>
</a>
</g>
</g>
<!-- Node4&#45;&gt;Node198 -->
<g id="edge10" class="edge">
<title>Node4&#45;&gt;Node198</title>
<path fill="none" stroke="#191970" d="M902.2625,-51.46C921.0522,-41.4388 945.5013,-28.3993 961.92,-19.6427"/>
<polygon fill="#191970" stroke="#191970" points="900.4661,-48.4514 893.2896,-56.2455 903.7602,-54.6278 900.4661,-48.4514"/>
</g>
<!-- Node199 -->
<g id="node12" class="node">
<title>Node199</title>
<g id="a_node12"><a xlink:href="quad_8c.html" target="_top" xlink:title="Type representing a quad&#45;option. ">
<polygon fill="#ffffff" stroke="#000000" points="1037.5,-.5 1037.5,-19.5 1118.5,-19.5 1118.5,-.5 1037.5,-.5"/>
<text text-anchor="middle" x="1078" y="-7.5" font-family="Helvetica,sans-Serif" font-size="10.00" fill="#000000">config/quad.c</text>
</a>
</g>
</g>
<!-- Node4&#45;&gt;Node199 -->
<g id="edge11" class="edge">
<title>Node4&#45;&gt;Node199</title>
<path fill="none" stroke="#191970" d="M919.9927,-53.5882C957.2891,-43.2996 1009.5256,-28.8895 1043.5584,-19.5011"/>
<polygon fill="#191970" stroke="#191970" points="918.6061,-50.3399 909.8969,-56.3733 920.4676,-57.0879 918.6061,-50.3399"/>
</g>
<!-- Node200 -->
<g id="node13" class="node">
<title>Node200</title>
<g id="a_node13"><a xlink:href="config_2regex_8c.html" target="_top" xlink:title="Type representing a regular expression. ">
<polygon fill="#ffffff" stroke="#000000" points="1136.5,-.5 1136.5,-19.5 1221.5,-19.5 1221.5,-.5 1136.5,-.5"/>
<text text-anchor="middle" x="1179" y="-7.5" font-family="Helvetica,sans-Serif" font-size="10.00" fill="#000000">config/regex.c</text>
</a>
</g>
</g>
<!-- Node4&#45;&gt;Node200 -->
<g id="edge12" class="edge">
<title>Node4&#45;&gt;Node200</title>
<path fill="none" stroke="#191970" d="M921.9254,-57.6675C972.7445,-48.597 1056.1797,-33.5697 1128,-20 1130.7484,-19.4807 1133.5791,-18.9406 1136.4317,-18.3922"/>
<polygon fill="#191970" stroke="#191970" points="921.1313,-54.2538 911.901,-59.4549 922.3601,-61.1451 921.1313,-54.2538"/>
</g>
<!-- Node201 -->
<g id="node14" class="node">
<title>Node201</title>
<g id="a_node14"><a xlink:href="set_8c.html" target="_top" xlink:title="A collection of config items. ">
<polygon fill="#ffffff" stroke="#000000" points="1240,-.5 1240,-19.5 1312,-19.5 1312,-.5 1240,-.5"/>
<text text-anchor="middle" x="1276" y="-7.5" font-family="Helvetica,sans-Serif" font-size="10.00" fill="#000000">config/set.c</text>
</a>
</g>
</g>
<!-- Node4&#45;&gt;Node201 -->
<g id="edge13" class="edge">
<title>Node4&#45;&gt;Node201</title>
<path fill="none" stroke="#191970" d="M921.5444,-61.3401C989.729,-54.2074 1120.6512,-39.3497 1231,-20 1233.8378,-19.5024 1236.7674,-18.947 1239.7068,-18.3599"/>
<polygon fill="#191970" stroke="#191970" points="921.1362,-57.8635 911.5509,-62.377 921.8588,-64.8261 921.1362,-57.8635"/>
</g>
<!-- Node202 -->
<g id="node15" class="node">
<title>Node202</title>
<g id="a_node15"><a xlink:href="config_2slist_8c.html" target="_top" xlink:title="Type representing a list of strings. ">
<polygon fill="#ffffff" stroke="#000000" points="1330.5,-.5 1330.5,-19.5 1407.5,-19.5 1407.5,-.5 1330.5,-.5"/>
<text text-anchor="middle" x="1369" y="-7.5" font-family="Helvetica,sans-Serif" font-size="10.00" fill="#000000">config/slist.c</text>
</a>
</g>
</g>
<!-- Node4&#45;&gt;Node202 -->
<g id="edge14" class="edge">
<title>Node4&#45;&gt;Node202</title>
<path fill="none" stroke="#191970" d="M922.0044,-62.7469C1003.5422,-56.7486 1176.3486,-42.4668 1321,-20 1324.0281,-19.5297 1327.1538,-18.9939 1330.2897,-18.4203"/>
<polygon fill="#191970" stroke="#191970" points="921.3043,-59.2885 911.5846,-63.5048 921.8121,-66.2701 921.3043,-59.2885"/>
</g>
<!-- Node203 -->
<g id="node16" class="node">
<title>Node203</title>
<g id="a_node16"><a xlink:href="config_2sort_8c.html" target="_top" xlink:title="Type representing a sort option. ">
<polygon fill="#ffffff" stroke="#000000" points="1426,-.5 1426,-19.5 1502,-19.5 1502,-.5 1426,-.5"/>
<text text-anchor="middle" x="1464" y="-7.5" font-family="Helvetica,sans-Serif" font-size="10.00" fill="#000000">config/sort.c</text>
</a>
</g>
</g>
<!-- Node4&#45;&gt;Node203 -->
<g id="edge15" class="edge">
<title>Node4&#45;&gt;Node203</title>
<path fill="none" stroke="#191970" d="M921.7113,-64.0045C1015.8431,-59.5499 1234.895,-46.9926 1417,-20 1419.8883,-19.5719 1422.8653,-19.0739 1425.8528,-18.5332"/>
<polygon fill="#191970" stroke="#191970" points="921.4869,-60.511 911.6602,-64.4716 921.812,-67.5035 921.4869,-60.511"/>
</g>
<!-- Node204 -->
<g id="node17" class="node">
<title>Node204</title>
<g id="a_node17"><a xlink:href="config_2string_8c.html" target="_top" xlink:title="Type representing a string. ">
<polygon fill="#ffffff" stroke="#000000" points="1520.5,-.5 1520.5,-19.5 1605.5,-19.5 1605.5,-.5 1520.5,-.5"/>
<text text-anchor="middle" x="1563" y="-7.5" font-family="Helvetica,sans-Serif" font-size="10.00" fill="#000000">config/string.c</text>
</a>
</g>
</g>
<!-- Node4&#45;&gt;Node204 -->
<g id="edge16" class="edge">
<title>Node4&#45;&gt;Node204</title>
<path fill="none" stroke="#191970" d="M921.7191,-64.5056C1027.1903,-60.7203 1291.6595,-48.9203 1511,-20 1514.0989,-19.5914 1517.2918,-19.115 1520.4992,-18.5959"/>
<polygon fill="#191970" stroke="#191970" points="921.5898,-61.0079 911.7191,-64.8574 921.836,-68.0035 921.5898,-61.0079"/>
</g>
<!-- Node205 -->
<g id="node18" class="node">
<title>Node205</title>
<g id="a_node18"><a xlink:href="subset_8c.html" target="_top" xlink:title="Subset of config items. ">
<polygon fill="#ffffff" stroke="#000000" points="1623.5,-.5 1623.5,-19.5 1712.5,-19.5 1712.5,-.5 1623.5,-.5"/>
<text text-anchor="middle" x="1668" y="-7.5" font-family="Helvetica,sans-Serif" font-size="10.00" fill="#000000">config/subset.c</text>
</a>
</g>
</g>
<!-- Node4&#45;&gt;Node205 -->
<g id="edge17" class="edge">
<title>Node4&#45;&gt;Node205</title>
<path fill="none" stroke="#191970" d="M921.7849,-65.11C1038.9596,-62.4434 1354.3209,-52.5663 1615,-20 1617.6945,-19.6634 1620.4587,-19.2747 1623.2422,-18.8501"/>
<polygon fill="#191970" stroke="#191970" points="921.6443,-61.6121 911.724,-65.3321 921.7989,-68.6104 921.6443,-61.6121"/>
</g>
</g>
</svg>
