<?xml version="1.0" encoding="UTF-8" standalone="no"?>
<!DOCTYPE svg PUBLIC "-//W3C//DTD SVG 1.1//EN"
 "http://www.w3.org/Graphics/SVG/1.1/DTD/svg11.dtd">
<!-- Generated by graphviz version 2.40.1 (20161225.0304)
 -->
<!-- Title: cs_he_string_set Pages: 1 -->
<svg width="238pt" height="84pt"
 viewBox="0.00 0.00 238.00 84.00" xmlns="http://www.w3.org/2000/svg" xmlns:xlink="http://www.w3.org/1999/xlink">
<g id="graph0" class="graph" transform="scale(1 1) rotate(0) translate(4 80)">
<title>cs_he_string_set</title>
<polygon fill="#ffffff" stroke="transparent" points="-4,4 -4,-80 234,-80 234,4 -4,4"/>
<!-- Node5264 -->
<g id="node1" class="node">
<title>Node5264</title>
<polygon fill="#bfbfbf" stroke="#000000" points="0,-19.5 0,-38.5 98,-38.5 98,-19.5 0,-19.5"/>
<text text-anchor="middle" x="49" y="-26.5" font-family="Helvetica,sans-Serif" font-size="10.00" fill="#000000">cs_he_string_set</text>
</g>
<!-- Node5265 -->
<g id="node2" class="node">
<title>Node5265</title>
<g id="a_node2"><a xlink:href="set_8c.html#abc8977c3a4db023bfd5f5e8e93bd4cf9" target="_top" xlink:title="Find the root Config Item. ">
<polygon fill="#ffffff" stroke="#000000" points="143.5,-38.5 143.5,-57.5 220.5,-57.5 220.5,-38.5 143.5,-38.5"/>
<text text-anchor="middle" x="182" y="-45.5" font-family="Helvetica,sans-Serif" font-size="10.00" fill="#000000">cs_get_base</text>
</a>
</g>
</g>
<!-- Node5264&#45;&gt;Node5265 -->
<g id="edge1" class="edge">
<title>Node5264&#45;&gt;Node5265</title>
<path fill="none" stroke="#191970" d="M98.1464,-36.0209C109.5906,-37.6558 121.772,-39.396 133.2011,-41.0287"/>
<polygon fill="#191970" stroke="#191970" points="133.0485,-44.5424 143.443,-42.4919 134.0385,-37.6127 133.0485,-44.5424"/>
</g>
<!-- Node5266 -->
<g id="node3" class="node">
<title>Node5266</title>
<g id="a_node3"><a xlink:href="set_8c.html#a74b013e244b5a66aec376873a2c90194" target="_top" xlink:title="Get the definition for a type. ">
<polygon fill="#ffffff" stroke="#000000" points="134,-.5 134,-19.5 230,-19.5 230,-.5 134,-.5"/>
<text text-anchor="middle" x="182" y="-7.5" font-family="Helvetica,sans-Serif" font-size="10.00" fill="#000000">cs_get_type_def</text>
</a>
</g>
</g>
<!-- Node5264&#45;&gt;Node5266 -->
<g id="edge3" class="edge">
<title>Node5264&#45;&gt;Node5266</title>
<path fill="none" stroke="#191970" d="M98.1464,-21.9791C106.5498,-20.7786 115.3506,-19.5213 123.9592,-18.2915"/>
<polygon fill="#191970" stroke="#191970" points="124.5369,-21.7446 133.9414,-16.8655 123.5469,-14.815 124.5369,-21.7446"/>
</g>
<!-- Node5265&#45;&gt;Node5265 -->
<g id="edge2" class="edge">
<title>Node5265&#45;&gt;Node5265</title>
<path fill="none" stroke="#191970" d="M161.655,-57.7571C151.7574,-66.5653 158.5391,-76 182,-76 197.0297,-76 205.2142,-72.128 206.5535,-67.0292"/>
<polygon fill="#191970" stroke="#191970" points="209.6652,-65.4164 202.345,-57.7571 203.291,-68.3096 209.6652,-65.4164"/>
</g>
</g>
</svg>
