<?xml version="1.0" encoding="UTF-8" standalone="no"?>
<!DOCTYPE svg PUBLIC "-//W3C//DTD SVG 1.1//EN"
 "http://www.w3.org/Graphics/SVG/1.1/DTD/svg11.dtd">
<!-- Generated by graphviz version 2.40.1 (20161225.0304)
 -->
<!-- Title: mh_sequences_add_one Pages: 1 -->
<svg width="428pt" height="256pt"
 viewBox="0.00 0.00 428.00 256.00" xmlns="http://www.w3.org/2000/svg" xmlns:xlink="http://www.w3.org/1999/xlink">
<g id="graph0" class="graph" transform="scale(1 1) rotate(0) translate(4 252)">
<title>mh_sequences_add_one</title>
<polygon fill="#ffffff" stroke="transparent" points="-4,4 -4,-252 424,-252 424,4 -4,4"/>
<!-- Node1529 -->
<g id="node1" class="node">
<title>Node1529</title>
<polygon fill="#bfbfbf" stroke="#000000" points="0,-114.5 0,-133.5 136,-133.5 136,-114.5 0,-114.5"/>
<text text-anchor="middle" x="68" y="-121.5" font-family="Helvetica,sans-Serif" font-size="10.00" fill="#000000">mh_sequences_add_one</text>
</g>
<!-- Node1530 -->
<g id="node2" class="node">
<title>Node1530</title>
<g id="a_node2"><a xlink:href="shared_8c.html#ac05f97c3d2b14c1e952032b5c624fd29" target="_top" xlink:title="Create a temporary file. ">
<polygon fill="#ffffff" stroke="#ff0000" points="194.5,-228.5 194.5,-247.5 278.5,-247.5 278.5,-228.5 194.5,-228.5"/>
<text text-anchor="middle" x="236.5" y="-235.5" font-family="Helvetica,sans-Serif" font-size="10.00" fill="#000000">mh_mkstemp</text>
</a>
</g>
</g>
<!-- Node1529&#45;&gt;Node1530 -->
<g id="edge1" class="edge">
<title>Node1529&#45;&gt;Node1530</title>
<path fill="none" stroke="#191970" d="M76.8542,-133.6815C93.778,-151.6923 132.5559,-190.6346 172,-214 178.9388,-218.1103 186.7028,-221.7217 194.3742,-224.8114"/>
<polygon fill="#191970" stroke="#191970" points="193.3815,-228.1779 203.9729,-228.4443 195.8593,-221.6311 193.3815,-228.1779"/>
</g>
<!-- Node1533 -->
<g id="node3" class="node">
<title>Node1533</title>
<g id="a_node3"><a xlink:href="mailbox_8h.html#a04aa11207205b6778388dfc8ed56ee0d" target="_top" xlink:title="Get the Mailbox&#39;s path string. ">
<polygon fill="#ffffff" stroke="#000000" points="337,-209.5 337,-228.5 420,-228.5 420,-209.5 337,-209.5"/>
<text text-anchor="middle" x="378.5" y="-216.5" font-family="Helvetica,sans-Serif" font-size="10.00" fill="#000000">mailbox_path</text>
</a>
</g>
</g>
<!-- Node1529&#45;&gt;Node1533 -->
<g id="edge3" class="edge">
<title>Node1529&#45;&gt;Node1533</title>
<path fill="none" stroke="#191970" d="M82.1183,-133.663C101.5044,-146.4699 137.8571,-168.858 172,-181 222.9256,-199.1103 284.1337,-208.9895 326.6291,-214.0971"/>
<polygon fill="#191970" stroke="#191970" points="326.4072,-217.5947 336.7427,-215.2651 327.2103,-210.6409 326.4072,-217.5947"/>
</g>
<!-- Node1538 -->
<g id="node4" class="node">
<title>Node1538</title>
<g id="a_node4"><a xlink:href="file_8c.html#a81b7082d89a1fc17d74b7495648ea06e" target="_top" xlink:title="Read a line from a file. ">
<polygon fill="#ffffff" stroke="#ff0000" points="181.5,-152.5 181.5,-171.5 291.5,-171.5 291.5,-152.5 181.5,-152.5"/>
<text text-anchor="middle" x="236.5" y="-159.5" font-family="Helvetica,sans-Serif" font-size="10.00" fill="#000000">mutt_file_read_line</text>
</a>
</g>
</g>
<!-- Node1529&#45;&gt;Node1538 -->
<g id="edge4" class="edge">
<title>Node1529&#45;&gt;Node1538</title>
<path fill="none" stroke="#191970" d="M110.5197,-133.589C132.9554,-138.6487 160.6732,-144.8996 184.3925,-150.2488"/>
<polygon fill="#191970" stroke="#191970" points="183.7611,-153.6942 194.2861,-152.4799 185.3011,-146.8657 183.7611,-153.6942"/>
</g>
<!-- Node1541 -->
<g id="node5" class="node">
<title>Node1541</title>
<g id="a_node5"><a xlink:href="mutt_2string_8c.html#a514703434f31f574aff4647d78d57678" target="_top" xlink:title="Check for equality of two strings (to a maximum), safely. ">
<polygon fill="#ffffff" stroke="#000000" points="188.5,-114.5 188.5,-133.5 284.5,-133.5 284.5,-114.5 188.5,-114.5"/>
<text text-anchor="middle" x="236.5" y="-121.5" font-family="Helvetica,sans-Serif" font-size="10.00" fill="#000000">mutt_strn_equal</text>
</a>
</g>
</g>
<!-- Node1529&#45;&gt;Node1541 -->
<g id="edge5" class="edge">
<title>Node1529&#45;&gt;Node1541</title>
<path fill="none" stroke="#191970" d="M136.0497,-124C150.0244,-124 164.6171,-124 178.2104,-124"/>
<polygon fill="#191970" stroke="#191970" points="178.3838,-127.5001 188.3838,-124 178.3838,-120.5001 178.3838,-127.5001"/>
</g>
<!-- Node1542 -->
<g id="node6" class="node">
<title>Node1542</title>
<g id="a_node6"><a xlink:href="mutt_2string_8c.html#acca6786b903b22a5924219f9db96e10d" target="_top" xlink:title="Calculate the length of a string, safely. ">
<polygon fill="#ffffff" stroke="#000000" points="197.5,-76.5 197.5,-95.5 275.5,-95.5 275.5,-76.5 197.5,-76.5"/>
<text text-anchor="middle" x="236.5" y="-83.5" font-family="Helvetica,sans-Serif" font-size="10.00" fill="#000000">mutt_str_len</text>
</a>
</g>
</g>
<!-- Node1529&#45;&gt;Node1542 -->
<g id="edge6" class="edge">
<title>Node1529&#45;&gt;Node1542</title>
<path fill="none" stroke="#191970" d="M110.5197,-114.411C133.9981,-109.1162 163.2611,-102.5168 187.6728,-97.0115"/>
<polygon fill="#191970" stroke="#191970" points="188.4739,-100.4188 197.459,-94.8045 186.9339,-93.5903 188.4739,-100.4188"/>
</g>
<!-- Node1543 -->
<g id="node7" class="node">
<title>Node1543</title>
<g id="a_node7"><a xlink:href="file_8c.html#a31f49795ff5b9558db5476e5777e63b6" target="_top" xlink:title="Close a FILE handle (and NULL the pointer) ">
<polygon fill="#ffffff" stroke="#000000" points="189,-38.5 189,-57.5 284,-57.5 284,-38.5 189,-38.5"/>
<text text-anchor="middle" x="236.5" y="-45.5" font-family="Helvetica,sans-Serif" font-size="10.00" fill="#000000">mutt_file_fclose</text>
</a>
</g>
</g>
<!-- Node1529&#45;&gt;Node1543 -->
<g id="edge7" class="edge">
<title>Node1529&#45;&gt;Node1543</title>
<path fill="none" stroke="#191970" d="M82.9928,-114.4342C102.7614,-102.1414 138.918,-80.7503 172,-67 177.5245,-64.7038 183.4222,-62.5654 189.322,-60.6138"/>
<polygon fill="#191970" stroke="#191970" points="190.6987,-63.8499 199.1878,-57.5107 188.5984,-57.1724 190.6987,-63.8499"/>
</g>
<!-- Node1544 -->
<g id="node8" class="node">
<title>Node1544</title>
<g id="a_node8"><a xlink:href="file_8c.html#a1cdf183d05e03b173070aa506d192822" target="_top" xlink:title="NFS&#45;safe renaming of files. ">
<polygon fill="#ffffff" stroke="#ff0000" points="172,-.5 172,-19.5 301,-19.5 301,-.5 172,-.5"/>
<text text-anchor="middle" x="236.5" y="-7.5" font-family="Helvetica,sans-Serif" font-size="10.00" fill="#000000">mutt_file_safe_rename</text>
</a>
</g>
</g>
<!-- Node1529&#45;&gt;Node1544 -->
<g id="edge8" class="edge">
<title>Node1529&#45;&gt;Node1544</title>
<path fill="none" stroke="#191970" d="M75.825,-114.3777C91.8612,-95.2807 130.4599,-52.4181 172,-29 175.8801,-26.8126 180.0365,-24.8551 184.3005,-23.1077"/>
<polygon fill="#191970" stroke="#191970" points="185.5806,-26.366 193.7419,-19.61 183.1488,-19.802 185.5806,-26.366"/>
</g>
<!-- Node1530&#45;&gt;Node1533 -->
<g id="edge2" class="edge">
<title>Node1530&#45;&gt;Node1533</title>
<path fill="none" stroke="#191970" d="M278.7202,-232.3508C293.7424,-230.3408 310.8337,-228.0539 326.574,-225.9478"/>
<polygon fill="#191970" stroke="#191970" points="327.2398,-229.39 336.6873,-224.5947 326.3114,-222.4519 327.2398,-229.39"/>
</g>
</g>
</svg>
