<?xml version="1.0" encoding="UTF-8" standalone="no"?>
<!DOCTYPE svg PUBLIC "-//W3C//DTD SVG 1.1//EN"
 "http://www.w3.org/Graphics/SVG/1.1/DTD/svg11.dtd">
<!-- Generated by graphviz version 7.1.0 (0)
 -->
<!-- Title: sidebar/private.h Pages: 1 -->
<svg width="1062pt" height="82pt"
 viewBox="0.00 0.00 1061.50 82.00" xmlns="http://www.w3.org/2000/svg" xmlns:xlink="http://www.w3.org/1999/xlink">
<g id="graph0" class="graph" transform="scale(1 1) rotate(0) translate(4 78)">
<title>sidebar/private.h</title>
<!-- Node1 -->
<g id="node1" class="node">
<title>Node1</title>
<g id="a_node1"><a xlink:title="GUI display the mailboxes in a side panel.">
<polygon fill="#999999" stroke="#666666" points="614,-74 517,-74 517,-55 614,-55 614,-74"/>
<text text-anchor="middle" x="565.5" y="-62" font-family="Helvetica,sans-Serif" font-size="10.00">sidebar/private.h</text>
</a>
</g>
</g>
<!-- Node2 -->
<g id="node2" class="node">
<title>Node2</title>
<g id="a_node2"><a xlink:href="names__expando_8c.html" target="_top" xlink:title="Debug names for Expandos.">
<polygon fill="white" stroke="#666666" points="133,-19 0,-19 0,0 133,0 133,-19"/>
<text text-anchor="middle" x="66.5" y="-7" font-family="Helvetica,sans-Serif" font-size="10.00">debug/names_expando.c</text>
</a>
</g>
</g>
<!-- Node1&#45;&gt;Node2 -->
<g id="edge1" class="edge">
<title>Node1&#45;&gt;Node2</title>
<path fill="none" stroke="#63b8ff" d="M505.14,-57.32C422.9,-48.87 271.02,-33.14 141.5,-19 138.76,-18.7 135.97,-18.39 133.15,-18.08"/>
<polygon fill="#63b8ff" stroke="#63b8ff" points="504.71,-60.8 515.01,-58.34 505.42,-53.83 504.71,-60.8"/>
</g>
<!-- Node3 -->
<g id="node3" class="node">
<title>Node3</title>
<g id="a_node3"><a xlink:href="sidebar_2commands_8c.html" target="_top" xlink:title="Sidebar commands.">
<polygon fill="white" stroke="#666666" points="264,-19 151,-19 151,0 264,0 264,-19"/>
<text text-anchor="middle" x="207.5" y="-7" font-family="Helvetica,sans-Serif" font-size="10.00">sidebar/commands.c</text>
</a>
</g>
</g>
<!-- Node1&#45;&gt;Node3 -->
<g id="edge2" class="edge">
<title>Node1&#45;&gt;Node3</title>
<path fill="none" stroke="#63b8ff" d="M505.61,-54.63C438.42,-44.69 330.23,-28.67 264.32,-18.91"/>
<polygon fill="#63b8ff" stroke="#63b8ff" points="504.94,-58.07 515.35,-56.08 505.97,-51.15 504.94,-58.07"/>
</g>
<!-- Node4 -->
<g id="node4" class="node">
<title>Node4</title>
<g id="a_node4"><a xlink:href="sidebar_2config_8c.html" target="_top" xlink:title="Config used by libsidebar.">
<polygon fill="white" stroke="#666666" points="373,-19 282,-19 282,0 373,0 373,-19"/>
<text text-anchor="middle" x="327.5" y="-7" font-family="Helvetica,sans-Serif" font-size="10.00">sidebar/config.c</text>
</a>
</g>
</g>
<!-- Node1&#45;&gt;Node4 -->
<g id="edge3" class="edge">
<title>Node1&#45;&gt;Node4</title>
<path fill="none" stroke="#63b8ff" d="M514.11,-52.06C470.23,-42.28 407.98,-28.42 367.67,-19.45"/>
<polygon fill="#63b8ff" stroke="#63b8ff" points="513.13,-55.42 523.65,-54.18 514.65,-48.59 513.13,-55.42"/>
</g>
<!-- Node5 -->
<g id="node5" class="node">
<title>Node5</title>
<g id="a_node5"><a xlink:href="sidebar_2functions_8c.html" target="_top" xlink:title="Sidebar functions.">
<polygon fill="white" stroke="#666666" points="496,-19 391,-19 391,0 496,0 496,-19"/>
<text text-anchor="middle" x="443.5" y="-7" font-family="Helvetica,sans-Serif" font-size="10.00">sidebar/functions.c</text>
</a>
</g>
</g>
<!-- Node1&#45;&gt;Node5 -->
<g id="edge4" class="edge">
<title>Node1&#45;&gt;Node5</title>
<path fill="none" stroke="#63b8ff" d="M534.26,-49.93C512.14,-40.32 483.09,-27.7 463.89,-19.36"/>
<polygon fill="#63b8ff" stroke="#63b8ff" points="532.85,-53.13 543.42,-53.91 535.64,-46.71 532.85,-53.13"/>
</g>
<!-- Node6 -->
<g id="node6" class="node">
<title>Node6</title>
<g id="a_node6"><a xlink:href="sidebar_2observer_8c.html" target="_top" xlink:title="Sidebar observers.">
<polygon fill="white" stroke="#666666" points="617,-19 514,-19 514,0 617,0 617,-19"/>
<text text-anchor="middle" x="565.5" y="-7" font-family="Helvetica,sans-Serif" font-size="10.00">sidebar/observer.c</text>
</a>
</g>
</g>
<!-- Node1&#45;&gt;Node6 -->
<g id="edge5" class="edge">
<title>Node1&#45;&gt;Node6</title>
<path fill="none" stroke="#63b8ff" d="M565.5,-43.35C565.5,-35.1 565.5,-25.97 565.5,-19.44"/>
<polygon fill="#63b8ff" stroke="#63b8ff" points="562,-43.23 565.5,-53.23 569,-43.23 562,-43.23"/>
</g>
<!-- Node7 -->
<g id="node7" class="node">
<title>Node7</title>
<g id="a_node7"><a xlink:href="sidebar_8c.html" target="_top" xlink:title="GUI display the mailboxes in a side panel.">
<polygon fill="white" stroke="#666666" points="730,-19 635,-19 635,0 730,0 730,-19"/>
<text text-anchor="middle" x="682.5" y="-7" font-family="Helvetica,sans-Serif" font-size="10.00">sidebar/sidebar.c</text>
</a>
</g>
</g>
<!-- Node1&#45;&gt;Node7 -->
<g id="edge6" class="edge">
<title>Node1&#45;&gt;Node7</title>
<path fill="none" stroke="#63b8ff" d="M595.75,-49.8C616.93,-40.2 644.61,-27.66 662.95,-19.36"/>
<polygon fill="#63b8ff" stroke="#63b8ff" points="594.39,-46.57 586.73,-53.88 597.28,-52.95 594.39,-46.57"/>
</g>
<!-- Node8 -->
<g id="node8" class="node">
<title>Node8</title>
<g id="a_node8"><a xlink:href="sidebar_2sort_8c.html" target="_top" xlink:title="Sidebar sort functions.">
<polygon fill="white" stroke="#666666" points="829,-19 748,-19 748,0 829,0 829,-19"/>
<text text-anchor="middle" x="788.5" y="-7" font-family="Helvetica,sans-Serif" font-size="10.00">sidebar/sort.c</text>
</a>
</g>
</g>
<!-- Node1&#45;&gt;Node8 -->
<g id="edge7" class="edge">
<title>Node1&#45;&gt;Node8</title>
<path fill="none" stroke="#63b8ff" d="M614.44,-51.87C655.51,-42.11 713.33,-28.37 750.86,-19.45"/>
<polygon fill="#63b8ff" stroke="#63b8ff" points="613.72,-48.44 604.8,-54.16 615.34,-55.25 613.72,-48.44"/>
</g>
<!-- Node9 -->
<g id="node9" class="node">
<title>Node9</title>
<g id="a_node9"><a xlink:href="sidebar_2wdata_8c.html" target="_top" xlink:title="Sidebar Window data.">
<polygon fill="white" stroke="#666666" points="937.5,-19 847.5,-19 847.5,0 937.5,0 937.5,-19"/>
<text text-anchor="middle" x="892.5" y="-7" font-family="Helvetica,sans-Serif" font-size="10.00">sidebar/wdata.c</text>
</a>
</g>
</g>
<!-- Node1&#45;&gt;Node9 -->
<g id="edge8" class="edge">
<title>Node1&#45;&gt;Node9</title>
<path fill="none" stroke="#63b8ff" d="M625.58,-53.76C689.58,-43.39 789.46,-27.2 847.17,-17.85"/>
<polygon fill="#63b8ff" stroke="#63b8ff" points="625.26,-50.27 615.95,-55.32 626.38,-57.18 625.26,-50.27"/>
</g>
<!-- Node10 -->
<g id="node10" class="node">
<title>Node10</title>
<g id="a_node10"><a xlink:href="sidebar_2window_8c.html" target="_top" xlink:title="Sidebar Window.">
<polygon fill="white" stroke="#666666" points="1053.5,-19 955.5,-19 955.5,0 1053.5,0 1053.5,-19"/>
<text text-anchor="middle" x="1004.5" y="-7" font-family="Helvetica,sans-Serif" font-size="10.00">sidebar/window.c</text>
</a>
</g>
</g>
<!-- Node1&#45;&gt;Node10 -->
<g id="edge9" class="edge">
<title>Node1&#45;&gt;Node10</title>
<path fill="none" stroke="#63b8ff" d="M625.37,-57.05C700.47,-48.84 833.14,-33.92 946.5,-19 949.33,-18.63 952.23,-18.24 955.15,-17.83"/>
<polygon fill="#63b8ff" stroke="#63b8ff" points="625.34,-53.54 615.78,-58.1 626.1,-60.5 625.34,-53.54"/>
</g>
</g>
</svg>
