<?xml version="1.0" encoding="UTF-8" standalone="no"?>
<!DOCTYPE svg PUBLIC "-//W3C//DTD SVG 1.1//EN"
 "http://www.w3.org/Graphics/SVG/1.1/DTD/svg11.dtd">
<!-- Generated by graphviz version 2.40.1 (20161225.0304)
 -->
<!-- Title: sidebar/config.c Pages: 1 -->
<svg width="320pt" height="140pt"
 viewBox="0.00 0.00 319.50 140.00" xmlns="http://www.w3.org/2000/svg" xmlns:xlink="http://www.w3.org/1999/xlink">
<g id="graph0" class="graph" transform="scale(1 1) rotate(0) translate(4 136)">
<title>sidebar/config.c</title>
<polygon fill="#ffffff" stroke="transparent" points="-4,4 -4,-136 315.5,-136 315.5,4 -4,4"/>
<!-- Node0 -->
<g id="node1" class="node">
<title>Node0</title>
<polygon fill="#bfbfbf" stroke="#000000" points="136,-112.5 136,-131.5 229,-131.5 229,-112.5 136,-112.5"/>
<text text-anchor="middle" x="182.5" y="-119.5" font-family="Helvetica,sans-Serif" font-size="10.00" fill="#000000">sidebar/config.c</text>
</g>
<!-- Node1 -->
<g id="node2" class="node">
<title>Node1</title>
<polygon fill="#ffffff" stroke="#bfbfbf" points="0,-56.5 0,-75.5 55,-75.5 55,-56.5 0,-56.5"/>
<text text-anchor="middle" x="27.5" y="-63.5" font-family="Helvetica,sans-Serif" font-size="10.00" fill="#000000">config.h</text>
</g>
<!-- Node0&#45;&gt;Node1 -->
<g id="edge1" class="edge">
<title>Node0&#45;&gt;Node1</title>
<path fill="none" stroke="#191970" d="M155.8546,-112.3733C130.3036,-103.1419 91.5488,-89.1402 63.3091,-78.9375"/>
<polygon fill="#191970" stroke="#191970" points="64.3921,-75.6074 53.7978,-75.5011 62.0135,-82.1909 64.3921,-75.6074"/>
</g>
<!-- Node2 -->
<g id="node3" class="node">
<title>Node2</title>
<polygon fill="#ffffff" stroke="#bfbfbf" points="73.5,-56.5 73.5,-75.5 129.5,-75.5 129.5,-56.5 73.5,-56.5"/>
<text text-anchor="middle" x="101.5" y="-63.5" font-family="Helvetica,sans-Serif" font-size="10.00" fill="#000000">stddef.h</text>
</g>
<!-- Node0&#45;&gt;Node2 -->
<g id="edge2" class="edge">
<title>Node0&#45;&gt;Node2</title>
<path fill="none" stroke="#191970" d="M168.3909,-112.2455C156.0791,-103.7337 138.0042,-91.2375 123.7462,-81.3801"/>
<polygon fill="#191970" stroke="#191970" points="125.6634,-78.4506 115.4474,-75.6427 121.6826,-84.2085 125.6634,-78.4506"/>
</g>
<!-- Node3 -->
<g id="node4" class="node">
<title>Node3</title>
<g id="a_node4"><a xlink:href="config_2lib_8h.html" target="_top" xlink:title="Convenience wrapper for the config headers. ">
<polygon fill="#ffffff" stroke="#ff0000" points="147.5,-56.5 147.5,-75.5 217.5,-75.5 217.5,-56.5 147.5,-56.5"/>
<text text-anchor="middle" x="182.5" y="-63.5" font-family="Helvetica,sans-Serif" font-size="10.00" fill="#000000">config/lib.h</text>
</a>
</g>
</g>
<!-- Node0&#45;&gt;Node3 -->
<g id="edge3" class="edge">
<title>Node0&#45;&gt;Node3</title>
<path fill="none" stroke="#191970" d="M182.5,-112.2455C182.5,-104.9382 182.5,-94.6944 182.5,-85.7046"/>
<polygon fill="#191970" stroke="#191970" points="186.0001,-85.6426 182.5,-75.6427 179.0001,-85.6427 186.0001,-85.6426"/>
</g>
<!-- Node9 -->
<g id="node5" class="node">
<title>Node9</title>
<polygon fill="#ffffff" stroke="#bfbfbf" points="237.5,-.5 237.5,-19.5 299.5,-19.5 299.5,-.5 237.5,-.5"/>
<text text-anchor="middle" x="268.5" y="-7.5" font-family="Helvetica,sans-Serif" font-size="10.00" fill="#000000">stdbool.h</text>
</g>
<!-- Node0&#45;&gt;Node9 -->
<g id="edge4" class="edge">
<title>Node0&#45;&gt;Node9</title>
<path fill="none" stroke="#191970" d="M192.8878,-112.2899C202.2093,-103.3189 215.9989,-89.393 226.5,-76 238.3685,-60.8631 249.9594,-42.2747 257.9476,-28.6864"/>
<polygon fill="#191970" stroke="#191970" points="261.1111,-30.2069 263.0798,-19.7966 255.0488,-26.707 261.1111,-30.2069"/>
</g>
<!-- Node62 -->
<g id="node6" class="node">
<title>Node62</title>
<g id="a_node6"><a xlink:href="sidebar_2lib_8h.html" target="_top" xlink:title="GUI display the mailboxes in a side panel. ">
<polygon fill="#ffffff" stroke="#ff0000" points="273.5,-56.5 273.5,-75.5 311.5,-75.5 311.5,-56.5 273.5,-56.5"/>
<text text-anchor="middle" x="292.5" y="-63.5" font-family="Helvetica,sans-Serif" font-size="10.00" fill="#000000">lib.h</text>
</a>
</g>
</g>
<!-- Node0&#45;&gt;Node62 -->
<g id="edge5" class="edge">
<title>Node0&#45;&gt;Node62</title>
<path fill="none" stroke="#191970" d="M201.6605,-112.2455C219.0111,-103.4125 244.7901,-90.2887 264.4583,-80.2758"/>
<polygon fill="#191970" stroke="#191970" points="266.2353,-83.2986 273.559,-75.6427 263.0595,-77.0605 266.2353,-83.2986"/>
</g>
<!-- Node62&#45;&gt;Node9 -->
<g id="edge6" class="edge">
<title>Node62&#45;&gt;Node9</title>
<path fill="none" stroke="#191970" d="M288.3195,-56.2455C285.119,-48.7776 280.604,-38.2427 276.6916,-29.1137"/>
<polygon fill="#191970" stroke="#191970" points="279.7888,-27.4554 272.6326,-19.6427 273.3548,-30.2129 279.7888,-27.4554"/>
</g>
</g>
</svg>
