<?xml version="1.0" encoding="UTF-8" standalone="no"?>
<!DOCTYPE svg PUBLIC "-//W3C//DTD SVG 1.1//EN"
 "http://www.w3.org/Graphics/SVG/1.1/DTD/svg11.dtd">
<!-- Generated by graphviz version 12.2.1 (20241206.2353)
 -->
<!-- Title: sidebar/module_data.h Pages: 1 -->
<svg width="510pt" height="89pt"
 viewBox="0.00 0.00 509.50 88.50" xmlns="http://www.w3.org/2000/svg" xmlns:xlink="http://www.w3.org/1999/xlink">
<g id="graph0" class="graph" transform="scale(1 1) rotate(0) translate(4 84.5)">
<title>sidebar/module_data.h</title>
<!-- Node1 -->
<g id="Node000001" class="node">
<title>Node1</title>
<g id="a_Node000001"><a xlink:title="Sidebar private Module data.">
<polygon fill="#999999" stroke="#666666" points="330.62,-80.5 207.38,-80.5 207.38,-58.25 330.62,-58.25 330.62,-80.5"/>
<text text-anchor="middle" x="269" y="-67" font-family="Helvetica,sans-Serif" font-size="10.00">sidebar/module_data.h</text>
</a>
</g>
</g>
<!-- Node2 -->
<g id="Node000002" class="node">
<title>Node2</title>
<g id="a_Node000002"><a xlink:href="sidebar_2commands_8c.html" target="_top" xlink:title="Sidebar commands.">
<polygon fill="white" stroke="#666666" points="112,-22.25 0,-22.25 0,0 112,0 112,-22.25"/>
<text text-anchor="middle" x="56" y="-8.75" font-family="Helvetica,sans-Serif" font-size="10.00">sidebar/commands.c</text>
</a>
</g>
</g>
<!-- Node1&#45;&gt;Node2 -->
<g id="edge1_Node000001_Node000002" class="edge">
<title>Node1&#45;&gt;Node2</title>
<g id="a_edge1_Node000001_Node000002"><a xlink:title=" ">
<path fill="none" stroke="#63b8ff" d="M218.24,-54.97C180.77,-45.08 130.49,-31.8 95.88,-22.66"/>
<polygon fill="#63b8ff" stroke="#63b8ff" points="216.91,-58.24 227.47,-57.41 218.7,-51.47 216.91,-58.24"/>
</a>
</g>
</g>
<!-- Node3 -->
<g id="Node000003" class="node">
<title>Node3</title>
<g id="a_Node000003"><a xlink:href="functions__sidebar_8c.html" target="_top" xlink:title="Sidebar functions.">
<polygon fill="white" stroke="#666666" points="271.62,-22.25 130.38,-22.25 130.38,0 271.62,0 271.62,-22.25"/>
<text text-anchor="middle" x="201" y="-8.75" font-family="Helvetica,sans-Serif" font-size="10.00">sidebar/functions_sidebar.c</text>
</a>
</g>
</g>
<!-- Node1&#45;&gt;Node3 -->
<g id="edge2_Node000001_Node000003" class="edge">
<title>Node1&#45;&gt;Node3</title>
<g id="a_edge2_Node000001_Node000003"><a xlink:title=" ">
<path fill="none" stroke="#63b8ff" d="M247.49,-50.58C236.39,-41.4 223.22,-30.5 213.73,-22.66"/>
<polygon fill="#63b8ff" stroke="#63b8ff" points="245.11,-53.15 255.04,-56.83 249.57,-47.76 245.11,-53.15"/>
</a>
</g>
</g>
<!-- Node4 -->
<g id="Node000004" class="node">
<title>Node4</title>
<g id="a_Node000004"><a xlink:href="sidebar_2module_8c.html" target="_top" xlink:title="Definition of the Sidebar Module.">
<polygon fill="white" stroke="#666666" points="386.5,-22.25 289.5,-22.25 289.5,0 386.5,0 386.5,-22.25"/>
<text text-anchor="middle" x="338" y="-8.75" font-family="Helvetica,sans-Serif" font-size="10.00">sidebar/module.c</text>
</a>
</g>
</g>
<!-- Node1&#45;&gt;Node4 -->
<g id="edge3_Node000001_Node000004" class="edge">
<title>Node1&#45;&gt;Node4</title>
<g id="a_edge3_Node000001_Node000004"><a xlink:title=" ">
<path fill="none" stroke="#63b8ff" d="M290.82,-50.58C302.09,-41.4 315.46,-30.5 325.08,-22.66"/>
<polygon fill="#63b8ff" stroke="#63b8ff" points="288.69,-47.81 283.15,-56.84 293.11,-53.23 288.69,-47.81"/>
</a>
</g>
</g>
<!-- Node5 -->
<g id="Node000005" class="node">
<title>Node5</title>
<g id="a_Node000005"><a xlink:href="sidebar_2window_8c.html" target="_top" xlink:title="Sidebar Window.">
<polygon fill="white" stroke="#666666" points="501.5,-22.25 404.5,-22.25 404.5,0 501.5,0 501.5,-22.25"/>
<text text-anchor="middle" x="453" y="-8.75" font-family="Helvetica,sans-Serif" font-size="10.00">sidebar/window.c</text>
</a>
</g>
</g>
<!-- Node1&#45;&gt;Node5 -->
<g id="edge4_Node000001_Node000005" class="edge">
<title>Node1&#45;&gt;Node5</title>
<g id="a_edge4_Node000001_Node000005"><a xlink:title=" ">
<path fill="none" stroke="#63b8ff" d="M314.52,-54.46C346.7,-44.62 389.17,-31.64 418.55,-22.66"/>
<polygon fill="#63b8ff" stroke="#63b8ff" points="313.6,-51.08 305.06,-57.35 315.64,-57.78 313.6,-51.08"/>
</a>
</g>
</g>
</g>
</svg>
