<?xml version="1.0" encoding="UTF-8" standalone="no"?>
<!DOCTYPE svg PUBLIC "-//W3C//DTD SVG 1.1//EN"
 "http://www.w3.org/Graphics/SVG/1.1/DTD/svg11.dtd">
<!-- Generated by graphviz version 2.40.1 (20161225.0304)
 -->
<!-- Title: mutt_sig_allow_interrupt Pages: 1 -->
<svg width="315pt" height="286pt"
 viewBox="0.00 0.00 315.00 285.50" xmlns="http://www.w3.org/2000/svg" xmlns:xlink="http://www.w3.org/1999/xlink">
<g id="graph0" class="graph" transform="scale(1 1) rotate(0) translate(4 281.5)">
<title>mutt_sig_allow_interrupt</title>
<polygon fill="#ffffff" stroke="transparent" points="-4,4 -4,-281.5 311,-281.5 311,4 -4,4"/>
<!-- Node1 -->
<g id="node1" class="node">
<title>Node1</title>
<polygon fill="#bfbfbf" stroke="#000000" points="0,-144 0,-163 138,-163 138,-144 0,-144"/>
<text text-anchor="middle" x="69" y="-151" font-family="Helvetica,sans-Serif" font-size="10.00" fill="#000000">mutt_sig_allow_interrupt</text>
</g>
<!-- Node2 -->
<g id="node2" class="node">
<title>Node2</title>
<g id="a_node2"><a xlink:href="raw_8c.html#a2ccc15b62b68a8fe2ce29e3c0e77911b" target="_top" xlink:title="set up to connect to a socket fd ">
<polygon fill="#ffffff" stroke="#ff0000" points="194.5,-258 194.5,-277 286.5,-277 286.5,-258 194.5,-258"/>
<text text-anchor="middle" x="240.5" y="-265" font-family="Helvetica,sans-Serif" font-size="10.00" fill="#000000">socket_connect</text>
</a>
</g>
</g>
<!-- Node1&#45;&gt;Node2 -->
<g id="edge1" class="edge">
<title>Node1&#45;&gt;Node2</title>
<path fill="none" stroke="#191970" d="M83.5072,-170.7876C102.2822,-192.0835 137.0016,-227.9564 174,-248.5 180.9283,-252.347 188.7043,-255.4733 196.4304,-257.9947"/>
<polygon fill="#191970" stroke="#191970" points="86.0919,-168.4255 76.9053,-163.1474 80.7953,-173.0023 86.0919,-168.4255"/>
</g>
<!-- Node513 -->
<g id="node3" class="node">
<title>Node513</title>
<g id="a_node3"><a xlink:href="raw_8c.html#aaba8f76cd1e6ac78b5384bd27e4c4dfb" target="_top" xlink:title="Read data from a socket &#45; Implements Connection::read() ">
<polygon fill="#ffffff" stroke="#ff0000" points="191,-220 191,-239 290,-239 290,-220 191,-220"/>
<text text-anchor="middle" x="240.5" y="-227" font-family="Helvetica,sans-Serif" font-size="10.00" fill="#000000">raw_socket_read</text>
</a>
</g>
</g>
<!-- Node1&#45;&gt;Node513 -->
<g id="edge2" class="edge">
<title>Node1&#45;&gt;Node513</title>
<path fill="none" stroke="#191970" d="M92.9141,-168.4505C113.7298,-180.9783 145.0266,-198.6641 174,-210.5 182.7812,-214.0872 192.4755,-217.2698 201.6832,-219.9559"/>
<polygon fill="#191970" stroke="#191970" points="94.4939,-165.3145 84.1337,-163.0971 90.8499,-171.2912 94.4939,-165.3145"/>
</g>
<!-- Node514 -->
<g id="node4" class="node">
<title>Node514</title>
<g id="a_node4"><a xlink:href="raw_8c.html#a79bb2278f55b18858b3580d8bdf53142" target="_top" xlink:title="Write data to a socket &#45; Implements Connection::write() ">
<polygon fill="#ffffff" stroke="#ff0000" points="189.5,-182 189.5,-201 291.5,-201 291.5,-182 189.5,-182"/>
<text text-anchor="middle" x="240.5" y="-189" font-family="Helvetica,sans-Serif" font-size="10.00" fill="#000000">raw_socket_write</text>
</a>
</g>
</g>
<!-- Node1&#45;&gt;Node514 -->
<g id="edge3" class="edge">
<title>Node1&#45;&gt;Node514</title>
<path fill="none" stroke="#191970" d="M122.0412,-165.2526C146.2913,-170.6258 174.6467,-176.9086 197.5345,-181.9799"/>
<polygon fill="#191970" stroke="#191970" points="122.7971,-161.8352 112.2767,-163.089 121.2827,-168.6695 122.7971,-161.8352"/>
</g>
<!-- Node294 -->
<g id="node5" class="node">
<title>Node294</title>
<g id="a_node5"><a xlink:href="curs__lib_8h.html#a6bde4da049798871747b54bff8d83b4f" target="_top" xlink:title="Read a character from the input buffer. ">
<polygon fill="#ffffff" stroke="#ff0000" points="204.5,-144 204.5,-163 276.5,-163 276.5,-144 204.5,-144"/>
<text text-anchor="middle" x="240.5" y="-151" font-family="Helvetica,sans-Serif" font-size="10.00" fill="#000000">mutt_getch</text>
</a>
</g>
</g>
<!-- Node1&#45;&gt;Node294 -->
<g id="edge4" class="edge">
<title>Node1&#45;&gt;Node294</title>
<path fill="none" stroke="#191970" d="M148.4463,-153.5C168.0416,-153.5 188.0783,-153.5 204.4336,-153.5"/>
<polygon fill="#191970" stroke="#191970" points="148.2613,-150.0001 138.2613,-153.5 148.2612,-157.0001 148.2613,-150.0001"/>
</g>
<!-- Node66 -->
<g id="node6" class="node">
<title>Node66</title>
<g id="a_node6"><a xlink:href="imap_2private_8h.html#adeef1f9ecc4cb80dbddee9264200d7bd" target="_top" xlink:title="Execute a command and wait for the response from the server. ">
<polygon fill="#ffffff" stroke="#ff0000" points="205.5,-106 205.5,-125 275.5,-125 275.5,-106 205.5,-106"/>
<text text-anchor="middle" x="240.5" y="-113" font-family="Helvetica,sans-Serif" font-size="10.00" fill="#000000">imap_exec</text>
</a>
</g>
</g>
<!-- Node1&#45;&gt;Node66 -->
<g id="edge5" class="edge">
<title>Node1&#45;&gt;Node66</title>
<path fill="none" stroke="#191970" d="M122.3574,-141.6774C149.3742,-135.6911 181.4202,-128.5906 205.3158,-123.2959"/>
<polygon fill="#191970" stroke="#191970" points="121.2827,-138.3305 112.2767,-143.911 122.7971,-145.1648 121.2827,-138.3305"/>
</g>
<!-- Node460 -->
<g id="node7" class="node">
<title>Node460</title>
<g id="a_node7"><a xlink:href="sendlib_8h.html#a77db41be933c9a4a1e22aa85f12630f0" target="_top" xlink:title="Write a MIME part. ">
<polygon fill="#ffffff" stroke="#ff0000" points="174,-50 174,-69 307,-69 307,-50 174,-50"/>
<text text-anchor="middle" x="240.5" y="-57" font-family="Helvetica,sans-Serif" font-size="10.00" fill="#000000">mutt_write_mime_body</text>
</a>
</g>
</g>
<!-- Node1&#45;&gt;Node460 -->
<g id="edge6" class="edge">
<title>Node1&#45;&gt;Node460</title>
<path fill="none" stroke="#191970" d="M95.2031,-139.1379C130.6352,-119.7174 192.8592,-85.6122 223.0659,-69.0557"/>
<polygon fill="#191970" stroke="#191970" points="93.475,-136.0938 86.3881,-143.9695 96.8396,-142.2322 93.475,-136.0938"/>
</g>
<!-- Node515 -->
<g id="node8" class="node">
<title>Node515</title>
<g id="a_node8"><a xlink:href="mutt__sig__allow__interrupt_8c.html#aa926d963ad45f424aab82e73cb56628e" target="_top" xlink:title="test_mutt_sig_allow\l_interrupt">
<polygon fill="#ffffff" stroke="#000000" points="183,-.5 183,-30.5 298,-30.5 298,-.5 183,-.5"/>
<text text-anchor="start" x="191" y="-18.5" font-family="Helvetica,sans-Serif" font-size="10.00" fill="#000000">test_mutt_sig_allow</text>
<text text-anchor="middle" x="240.5" y="-7.5" font-family="Helvetica,sans-Serif" font-size="10.00" fill="#000000">_interrupt</text>
</a>
</g>
</g>
<!-- Node1&#45;&gt;Node515 -->
<g id="edge8" class="edge">
<title>Node1&#45;&gt;Node515</title>
<path fill="none" stroke="#191970" d="M81.4756,-135.5452C99.3735,-110.9862 134.5585,-66.9561 174,-40.5 179.6337,-36.7211 185.9162,-33.412 192.3086,-30.5452"/>
<polygon fill="#191970" stroke="#191970" points="78.4531,-133.7551 75.4897,-143.9271 84.1497,-137.8233 78.4531,-133.7551"/>
</g>
<!-- Node460&#45;&gt;Node460 -->
<g id="edge7" class="edge">
<title>Node460&#45;&gt;Node460</title>
<path fill="none" stroke="#191970" d="M208.6886,-77.7746C209.5956,-83.241 220.1994,-87.5 240.5,-87.5 270.7148,-87.5 279.4488,-78.0653 266.7019,-69.2571"/>
<polygon fill="#191970" stroke="#191970" points="211.7209,-79.5337 214.2981,-69.2571 205.8748,-75.6836 211.7209,-79.5337"/>
</g>
</g>
</svg>
