<?xml version="1.0" encoding="UTF-8" standalone="no"?>
<!DOCTYPE svg PUBLIC "-//W3C//DTD SVG 1.1//EN"
 "http://www.w3.org/Graphics/SVG/1.1/DTD/svg11.dtd">
<!-- Generated by graphviz version 12.2.1 (20241206.2353)
 -->
<!-- Title: color/simple2.h Pages: 1 -->
<svg width="147pt" height="147pt"
 viewBox="0.00 0.00 146.50 146.75" xmlns="http://www.w3.org/2000/svg" xmlns:xlink="http://www.w3.org/1999/xlink">
<g id="graph0" class="graph" transform="scale(1 1) rotate(0) translate(4 142.75)">
<title>color/simple2.h</title>
<!-- Node1 -->
<g id="Node000001" class="node">
<title>Node1</title>
<g id="a_Node000001"><a xlink:title="Simple colour.">
<polygon fill="#999999" stroke="#666666" points="108.75,-138.75 20.75,-138.75 20.75,-116.5 108.75,-116.5 108.75,-138.75"/>
<text text-anchor="middle" x="64.75" y="-125.25" font-family="Helvetica,sans-Serif" font-size="10.00">color/simple2.h</text>
</a>
</g>
</g>
<!-- Node2 -->
<g id="Node000002" class="node">
<title>Node2</title>
<g id="a_Node000002"><a xlink:title=" ">
<polygon fill="#e0e0e0" stroke="#999999" points="53.5,-22.25 0,-22.25 0,0 53.5,0 53.5,-22.25"/>
<text text-anchor="middle" x="26.75" y="-8.75" font-family="Helvetica,sans-Serif" font-size="10.00">config.h</text>
</a>
</g>
</g>
<!-- Node1&#45;&gt;Node2 -->
<g id="edge1_Node000001_Node000002" class="edge">
<title>Node1&#45;&gt;Node2</title>
<g id="a_edge1_Node000001_Node000002"><a xlink:title=" ">
<path fill="none" stroke="#63b8ff" d="M55.09,-116.17C47.58,-107.36 37.66,-94.06 32.75,-80.5 27.35,-65.57 25.95,-47.66 25.84,-33.92"/>
<polygon fill="#63b8ff" stroke="#63b8ff" points="29.34,-34.25 26.01,-24.19 22.34,-34.13 29.34,-34.25"/>
</a>
</g>
</g>
<!-- Node3 -->
<g id="Node000003" class="node">
<title>Node3</title>
<g id="a_Node000003"><a xlink:title=" ">
<polygon fill="#e0e0e0" stroke="#999999" points="138.5,-22.25 79,-22.25 79,0 138.5,0 138.5,-22.25"/>
<text text-anchor="middle" x="108.75" y="-8.75" font-family="Helvetica,sans-Serif" font-size="10.00">stdbool.h</text>
</a>
</g>
</g>
<!-- Node1&#45;&gt;Node3 -->
<g id="edge2_Node000001_Node000003" class="edge">
<title>Node1&#45;&gt;Node3</title>
<g id="a_edge2_Node000001_Node000003"><a xlink:title=" ">
<path fill="none" stroke="#63b8ff" d="M74.1,-116.05C81.43,-107.17 91.26,-93.84 96.75,-80.5 102.86,-65.65 105.86,-47.74 107.33,-33.98"/>
<polygon fill="#63b8ff" stroke="#63b8ff" points="110.8,-34.48 108.17,-24.21 103.83,-33.88 110.8,-34.48"/>
</a>
</g>
</g>
<!-- Node4 -->
<g id="Node000004" class="node">
<title>Node4</title>
<g id="a_Node000004"><a xlink:href="color_8h.html" target="_top" xlink:title="Color and attribute parsing.">
<polygon fill="#fff0f0" stroke="red" points="87.75,-80.5 41.75,-80.5 41.75,-58.25 87.75,-58.25 87.75,-80.5"/>
<text text-anchor="middle" x="64.75" y="-67" font-family="Helvetica,sans-Serif" font-size="10.00">color.h</text>
</a>
</g>
</g>
<!-- Node1&#45;&gt;Node4 -->
<g id="edge3_Node000001_Node000004" class="edge">
<title>Node1&#45;&gt;Node4</title>
<g id="a_edge3_Node000001_Node000004"><a xlink:title=" ">
<path fill="none" stroke="#63b8ff" d="M64.75,-116.04C64.75,-109.37 64.75,-100.49 64.75,-92.34"/>
<polygon fill="#63b8ff" stroke="#63b8ff" points="68.25,-92.42 64.75,-82.42 61.25,-92.42 68.25,-92.42"/>
</a>
</g>
</g>
<!-- Node4&#45;&gt;Node2 -->
<g id="edge4_Node000004_Node000002" class="edge">
<title>Node4&#45;&gt;Node2</title>
<g id="a_edge4_Node000004_Node000002"><a xlink:title=" ">
<path fill="none" stroke="#63b8ff" d="M57.6,-57.79C52.72,-50.57 46.1,-40.76 40.24,-32.09"/>
<polygon fill="#63b8ff" stroke="#63b8ff" points="43.21,-30.24 34.71,-23.91 37.41,-34.16 43.21,-30.24"/>
</a>
</g>
</g>
<!-- Node4&#45;&gt;Node3 -->
<g id="edge5_Node000004_Node000003" class="edge">
<title>Node4&#45;&gt;Node3</title>
<g id="a_edge5_Node000004_Node000003"><a xlink:title=" ">
<path fill="none" stroke="#63b8ff" d="M73.03,-57.79C78.8,-50.41 86.68,-40.34 93.57,-31.53"/>
<polygon fill="#63b8ff" stroke="#63b8ff" points="96.17,-33.88 99.58,-23.85 90.66,-29.57 96.17,-33.88"/>
</a>
</g>
</g>
</g>
</svg>
