<?xml version="1.0" encoding="UTF-8" standalone="no"?>
<!DOCTYPE svg PUBLIC "-//W3C//DTD SVG 1.1//EN"
 "http://www.w3.org/Graphics/SVG/1.1/DTD/svg11.dtd">
<!-- Generated by graphviz version 12.2.1 (20241206.2353)
 -->
<!-- Title: slist_free Pages: 1 -->
<svg width="367pt" height="560pt"
 viewBox="0.00 0.00 367.25 560.25" xmlns="http://www.w3.org/2000/svg" xmlns:xlink="http://www.w3.org/1999/xlink">
<g id="graph0" class="graph" transform="scale(1 1) rotate(0) translate(4 556.25)">
<title>slist_free</title>
<!-- Node1 -->
<g id="Node000001" class="node">
<title>Node1</title>
<g id="a_Node000001"><a xlink:title="Free an Slist object.">
<polygon fill="#999999" stroke="#666666" points="359.25,-293.25 302,-293.25 302,-271 359.25,-271 359.25,-293.25"/>
<text text-anchor="middle" x="330.62" y="-279.75" font-family="Helvetica,sans-Serif" font-size="10.00">slist_free</text>
</a>
</g>
</g>
<!-- Node2 -->
<g id="Node000002" class="node">
<title>Node2</title>
<g id="a_Node000002"><a xlink:href="group__cfg__def__validator.html#ga6cf1aa25dbe79dfc6abdc41e59c56573" target="_top" xlink:title="Validate the &quot;header_cache_compress_method&quot; config variable &#45; Implements ConfigDef::validator() &#45;.">
<polygon fill="white" stroke="#666666" points="266,-552.25 119.5,-552.25 119.5,-530 266,-530 266,-552.25"/>
<text text-anchor="middle" x="192.75" y="-538.75" font-family="Helvetica,sans-Serif" font-size="10.00">compress_method_validator</text>
</a>
</g>
</g>
<!-- Node1&#45;&gt;Node2 -->
<g id="edge1_Node000001_Node000002" class="edge">
<title>Node1&#45;&gt;Node2</title>
<g id="a_edge1_Node000001_Node000002"><a xlink:title=" ">
<path fill="none" stroke="#63b8ff" d="M330.53,-304.82C331.11,-351.95 325.5,-461.03 266,-521.12 262.7,-524.45 258.91,-527.24 254.81,-529.58"/>
<polygon fill="#63b8ff" stroke="#63b8ff" points="334.03,-304.93 330.29,-295.02 327.03,-305.1 334.03,-304.93"/>
</a>
</g>
</g>
<!-- Node3 -->
<g id="Node000003" class="node">
<title>Node3</title>
<g id="a_Node000003"><a xlink:href="group__cfg__def__validator.html#gaa4f1deb84e5df90c921a06dfdbf965c1" target="_top" xlink:title="Validate the &quot;header_cache_backend&quot; config variable &#45; Implements ConfigDef::validator() &#45;.">
<polygon fill="white" stroke="#666666" points="261.12,-512.25 124.38,-512.25 124.38,-490 261.12,-490 261.12,-512.25"/>
<text text-anchor="middle" x="192.75" y="-498.75" font-family="Helvetica,sans-Serif" font-size="10.00">hcache_backend_validator</text>
</a>
</g>
</g>
<!-- Node1&#45;&gt;Node3 -->
<g id="edge2_Node000001_Node000003" class="edge">
<title>Node1&#45;&gt;Node3</title>
<g id="a_edge2_Node000001_Node000003"><a xlink:title=" ">
<path fill="none" stroke="#63b8ff" d="M329.05,-304.94C326.76,-346.15 315.89,-433.16 266,-481.12 262.53,-484.46 258.55,-487.25 254.29,-489.58"/>
<polygon fill="#63b8ff" stroke="#63b8ff" points="332.55,-305.14 329.47,-295.01 325.56,-304.85 332.55,-305.14"/>
</a>
</g>
</g>
<!-- Node4 -->
<g id="Node000004" class="node">
<title>Node4</title>
<g id="a_Node000004"><a xlink:href="content__info_8c.html#a4fc8de46849a17899152dabe95c407f3" target="_top" xlink:title="Analyze file to determine MIME encoding to use.">
<polygon fill="#fff0f0" stroke="red" points="253.62,-472.25 131.88,-472.25 131.88,-450 253.62,-450 253.62,-472.25"/>
<text text-anchor="middle" x="192.75" y="-458.75" font-family="Helvetica,sans-Serif" font-size="10.00">mutt_get_content_info</text>
</a>
</g>
</g>
<!-- Node1&#45;&gt;Node4 -->
<g id="edge3_Node000001_Node000004" class="edge">
<title>Node1&#45;&gt;Node4</title>
<g id="a_edge3_Node000001_Node000004"><a xlink:title=" ">
<path fill="none" stroke="#63b8ff" d="M326.91,-304.93C321.56,-339.48 306.45,-404.92 266,-441.12 262.22,-444.51 257.91,-447.33 253.33,-449.67"/>
<polygon fill="#63b8ff" stroke="#63b8ff" points="330.35,-305.59 328.26,-295.2 323.42,-304.63 330.35,-305.59"/>
</a>
</g>
</g>
<!-- Node93 -->
<g id="Node000093" class="node">
<title>Node93</title>
<g id="a_Node000093"><a xlink:href="main_8c.html#af1cf3cbedbe2c95c92a05b5c74bb0705" target="_top" xlink:title="Initialise NeoMutt.">
<polygon fill="#fff0f0" stroke="red" points="221.38,-432.25 164.12,-432.25 164.12,-410 221.38,-410 221.38,-432.25"/>
<text text-anchor="middle" x="192.75" y="-418.75" font-family="Helvetica,sans-Serif" font-size="10.00">mutt_init</text>
</a>
</g>
</g>
<!-- Node1&#45;&gt;Node93 -->
<g id="edge4_Node000001_Node000093" class="edge">
<title>Node1&#45;&gt;Node93</title>
<g id="a_edge4_Node000001_Node000093"><a xlink:title=" ">
<path fill="none" stroke="#63b8ff" d="M323.56,-304.57C315.12,-331.49 297.25,-376.12 266,-401.12 253.5,-411.13 236.33,-416.14 221.87,-418.64"/>
<polygon fill="#63b8ff" stroke="#63b8ff" points="326.9,-305.61 326.36,-295.03 320.19,-303.64 326.9,-305.61"/>
</a>
</g>
</g>
<!-- Node94 -->
<g id="Node000094" class="node">
<title>Node94</title>
<g id="a_Node000094"><a xlink:href="alias_2commands_8c.html#a7d4048d33f9b8c23f550189094f01eb3" target="_top" xlink:title="Parse a comma&#45;separated list of tags.">
<polygon fill="#fff0f0" stroke="red" points="237.88,-392.25 147.62,-392.25 147.62,-370 237.88,-370 237.88,-392.25"/>
<text text-anchor="middle" x="192.75" y="-378.75" font-family="Helvetica,sans-Serif" font-size="10.00">parse_alias_tags</text>
</a>
</g>
</g>
<!-- Node1&#45;&gt;Node94 -->
<g id="edge5_Node000001_Node000094" class="edge">
<title>Node1&#45;&gt;Node94</title>
<g id="a_edge5_Node000001_Node000094"><a xlink:title=" ">
<path fill="none" stroke="#63b8ff" d="M317.6,-303.57C306.47,-321.52 288.29,-346.48 266,-361.12 257.63,-366.63 247.75,-370.63 238.04,-373.54"/>
<polygon fill="#63b8ff" stroke="#63b8ff" points="320.6,-305.39 322.69,-295 314.58,-301.81 320.6,-305.39"/>
</a>
</g>
</g>
<!-- Node105 -->
<g id="Node000105" class="node">
<title>Node105</title>
<g id="a_Node000105"><a xlink:href="rfc2047_8c.html#a61043d0660090027414b220222dbf90b" target="_top" xlink:title="RFC&#45;2047&#45;encode a string.">
<polygon fill="#fff0f0" stroke="red" points="238.62,-352.25 146.88,-352.25 146.88,-330 238.62,-330 238.62,-352.25"/>
<text text-anchor="middle" x="192.75" y="-338.75" font-family="Helvetica,sans-Serif" font-size="10.00">rfc2047_encode</text>
</a>
</g>
</g>
<!-- Node1&#45;&gt;Node105 -->
<g id="edge6_Node000001_Node000105" class="edge">
<title>Node1&#45;&gt;Node105</title>
<g id="a_edge6_Node000001_Node000105"><a xlink:title=" ">
<path fill="none" stroke="#63b8ff" d="M300.01,-299.2C289.45,-304.95 277.36,-311.16 266,-316.12 254.81,-321.01 242.33,-325.62 230.94,-329.51"/>
<polygon fill="#63b8ff" stroke="#63b8ff" points="301.6,-302.32 308.64,-294.4 298.2,-296.2 301.6,-302.32"/>
</a>
</g>
</g>
<!-- Node810 -->
<g id="Node000810" class="node">
<title>Node810</title>
<g id="a_Node000810"><a xlink:href="group__cfg__type__destroy.html#gae76bda28bcf811e67a4fa0937e52040b" target="_top" xlink:title="Destroy an Slist object &#45; Implements ConfigSetType::destroy() &#45;.">
<polygon fill="white" stroke="#666666" points="229.25,-274.25 156.25,-274.25 156.25,-252 229.25,-252 229.25,-274.25"/>
<text text-anchor="middle" x="192.75" y="-260.75" font-family="Helvetica,sans-Serif" font-size="10.00">slist_destroy</text>
</a>
</g>
</g>
<!-- Node1&#45;&gt;Node810 -->
<g id="edge7_Node000001_Node000810" class="edge">
<title>Node1&#45;&gt;Node810</title>
<g id="a_edge7_Node000001_Node000810"><a xlink:title=" ">
<path fill="none" stroke="#63b8ff" d="M290.4,-276.64C271.21,-273.96 248.27,-270.75 229.55,-268.13"/>
<polygon fill="#63b8ff" stroke="#63b8ff" points="289.91,-280.11 300.3,-278.02 290.88,-273.17 289.91,-280.11"/>
</a>
</g>
</g>
<!-- Node811 -->
<g id="Node000811" class="node">
<title>Node811</title>
<g id="a_Node000811"><a xlink:href="group__cfg__type__reset.html#gabe1ce7e1082fd374dc66221927eaaf06" target="_top" xlink:title="Reset a Slist to its initial value &#45; Implements ConfigSetType::reset() &#45;.">
<polygon fill="white" stroke="#666666" points="72.62,-303.25 10.88,-303.25 10.88,-281 72.62,-281 72.62,-303.25"/>
<text text-anchor="middle" x="41.75" y="-289.75" font-family="Helvetica,sans-Serif" font-size="10.00">slist_reset</text>
</a>
</g>
</g>
<!-- Node1&#45;&gt;Node811 -->
<g id="edge12_Node000001_Node000811" class="edge">
<title>Node1&#45;&gt;Node811</title>
<g id="a_edge12_Node000001_Node000811"><a xlink:title=" ">
<path fill="none" stroke="#63b8ff" d="M290.36,-283.49C232.44,-285.51 125.32,-289.25 73.04,-291.07"/>
<polygon fill="#63b8ff" stroke="#63b8ff" points="290.21,-287 300.08,-283.15 289.97,-280.01 290.21,-287"/>
</a>
</g>
</g>
<!-- Node812 -->
<g id="Node000812" class="node">
<title>Node812</title>
<g id="a_Node000812"><a xlink:href="group__cfg__type__string__set.html#gacca48c84d106b210977a26980babefbc" target="_top" xlink:title="Set a Slist by string &#45; Implements ConfigSetType::string_set() &#45;.">
<polygon fill="white" stroke="#666666" points="83.5,-254.25 0,-254.25 0,-232 83.5,-232 83.5,-254.25"/>
<text text-anchor="middle" x="41.75" y="-240.75" font-family="Helvetica,sans-Serif" font-size="10.00">slist_string_set</text>
</a>
</g>
</g>
<!-- Node1&#45;&gt;Node812 -->
<g id="edge15_Node000001_Node000812" class="edge">
<title>Node1&#45;&gt;Node812</title>
<g id="a_edge15_Node000001_Node000812"><a xlink:title=" ">
<path fill="none" stroke="#63b8ff" d="M306.79,-263.87C295.27,-255.82 280.66,-247.26 266,-243.12 204.45,-225.76 129.5,-230.78 83.99,-236.54"/>
<polygon fill="#63b8ff" stroke="#63b8ff" points="304.7,-266.68 314.82,-269.79 308.85,-261.04 304.7,-266.68"/>
</a>
</g>
</g>
<!-- Node813 -->
<g id="Node000813" class="node">
<title>Node813</title>
<g id="a_Node000813"><a xlink:href="group__cfg__type__has__been__set.html#gafa110e0c4a00b9f863560f55eaf2c201" target="_top" xlink:title="Is the config value different to its initial value?">
<polygon fill="white" stroke="#666666" points="243.12,-196.25 142.38,-196.25 142.38,-174 243.12,-174 243.12,-196.25"/>
<text text-anchor="middle" x="192.75" y="-182.75" font-family="Helvetica,sans-Serif" font-size="10.00">slist_has_been_set</text>
</a>
</g>
</g>
<!-- Node1&#45;&gt;Node813 -->
<g id="edge10_Node000001_Node000813" class="edge">
<title>Node1&#45;&gt;Node813</title>
<g id="a_edge10_Node000001_Node000813"><a xlink:title=" ">
<path fill="none" stroke="#63b8ff" d="M316.02,-261.64C304.43,-245.6 286.43,-223.81 266,-210.12 257.73,-204.59 248.1,-200.15 238.63,-196.64"/>
<polygon fill="#63b8ff" stroke="#63b8ff" points="312.92,-263.31 321.51,-269.51 318.66,-259.3 312.92,-263.31"/>
</a>
</g>
</g>
<!-- Node814 -->
<g id="Node000814" class="node">
<title>Node814</title>
<g id="a_Node000814"><a xlink:href="group__cfg__type__native__set.html#ga12f7c33c90ae9365f1259997371a1f6a" target="_top" xlink:title="Set a Slist config item by Slist &#45; Implements ConfigSetType::native_set() &#45;.">
<polygon fill="white" stroke="#666666" points="235.25,-156.25 150.25,-156.25 150.25,-134 235.25,-134 235.25,-156.25"/>
<text text-anchor="middle" x="192.75" y="-142.75" font-family="Helvetica,sans-Serif" font-size="10.00">slist_native_set</text>
</a>
</g>
</g>
<!-- Node1&#45;&gt;Node814 -->
<g id="edge11_Node000001_Node000814" class="edge">
<title>Node1&#45;&gt;Node814</title>
<g id="a_edge11_Node000001_Node000814"><a xlink:title=" ">
<path fill="none" stroke="#63b8ff" d="M323.32,-259.65C314.73,-233.13 296.77,-189.57 266,-165.12 257.24,-158.16 246.21,-153.62 235.42,-150.66"/>
<polygon fill="#63b8ff" stroke="#63b8ff" points="319.93,-260.51 326.18,-269.05 326.62,-258.47 319.93,-260.51"/>
</a>
</g>
</g>
<!-- Node815 -->
<g id="Node000815" class="node">
<title>Node815</title>
<g id="a_Node000815"><a xlink:href="group__cfg__type__string__minus__equals.html#ga39b01edee80144f697d61eabac90f6ec" target="_top" xlink:title="Remove from a Slist by string &#45; Implements ConfigSetType::string_minus_equals() &#45;.">
<polygon fill="white" stroke="#666666" points="241.25,-116.38 144.25,-116.38 144.25,-79.88 241.25,-79.88 241.25,-116.38"/>
<text text-anchor="start" x="152.25" y="-102.88" font-family="Helvetica,sans-Serif" font-size="10.00">slist_string_minus</text>
<text text-anchor="middle" x="192.75" y="-88.62" font-family="Helvetica,sans-Serif" font-size="10.00">_equals</text>
</a>
</g>
</g>
<!-- Node1&#45;&gt;Node815 -->
<g id="edge13_Node000001_Node000815" class="edge">
<title>Node1&#45;&gt;Node815</title>
<g id="a_edge13_Node000001_Node000815"><a xlink:title=" ">
<path fill="none" stroke="#63b8ff" d="M326.34,-259.54C320.28,-225.84 304.3,-162.39 266,-125.12 259.19,-118.49 250.59,-113.47 241.73,-109.66"/>
<polygon fill="#63b8ff" stroke="#63b8ff" points="322.82,-259.71 327.89,-269.01 329.72,-258.57 322.82,-259.71"/>
</a>
</g>
</g>
<!-- Node816 -->
<g id="Node000816" class="node">
<title>Node816</title>
<g id="a_Node000816"><a xlink:href="group__cfg__type__string__plus__equals.html#ga7ca9878b326bd7d1244e954419d0df3e" target="_top" xlink:title="Add to a Slist by string &#45; Implements ConfigSetType::string_plus_equals() &#45;.">
<polygon fill="white" stroke="#666666" points="254,-62.25 131.5,-62.25 131.5,-40 254,-40 254,-62.25"/>
<text text-anchor="middle" x="192.75" y="-48.75" font-family="Helvetica,sans-Serif" font-size="10.00">slist_string_plus_equals</text>
</a>
</g>
</g>
<!-- Node1&#45;&gt;Node816 -->
<g id="edge14_Node000001_Node000816" class="edge">
<title>Node1&#45;&gt;Node816</title>
<g id="a_edge14_Node000001_Node000816"><a xlink:title=" ">
<path fill="none" stroke="#63b8ff" d="M329.55,-259.15C328.11,-216.01 318.68,-122.62 266,-71.12 262.56,-67.76 258.6,-64.95 254.35,-62.6"/>
<polygon fill="#63b8ff" stroke="#63b8ff" points="326.05,-259.15 329.74,-269.08 333.04,-259.01 326.05,-259.15"/>
</a>
</g>
</g>
<!-- Node817 -->
<g id="Node000817" class="node">
<title>Node817</title>
<g id="a_Node000817"><a xlink:href="version_8c.html#a37f94ebdd1e2ca27d5cd5c88c3e4a8b4" target="_top" xlink:title="Free a NeoMuttVersion.">
<polygon fill="#fff0f0" stroke="red" points="230,-22.25 155.5,-22.25 155.5,0 230,0 230,-22.25"/>
<text text-anchor="middle" x="192.75" y="-8.75" font-family="Helvetica,sans-Serif" font-size="10.00">version_free</text>
</a>
</g>
</g>
<!-- Node1&#45;&gt;Node817 -->
<g id="edge16_Node000001_Node000817" class="edge">
<title>Node1&#45;&gt;Node817</title>
<g id="a_edge16_Node000001_Node000817"><a xlink:title=" ">
<path fill="none" stroke="#63b8ff" d="M326.8,-259.4C319.45,-203.97 298.08,-63.92 266,-31.12 256.62,-21.54 243.1,-16.43 230.28,-13.75"/>
<polygon fill="#63b8ff" stroke="#63b8ff" points="323.31,-259.76 328.06,-269.23 330.26,-258.86 323.31,-259.76"/>
</a>
</g>
</g>
<!-- Node810&#45;&gt;Node811 -->
<g id="edge8_Node000810_Node000811" class="edge">
<title>Node810&#45;&gt;Node811</title>
<g id="a_edge8_Node000810_Node000811"><a xlink:title=" ">
<path fill="none" stroke="#63b8ff" d="M144.94,-272.24C121.49,-276.8 93.77,-282.2 73.12,-286.21"/>
<polygon fill="#63b8ff" stroke="#63b8ff" points="145.43,-275.71 154.58,-270.36 144.09,-268.84 145.43,-275.71"/>
</a>
</g>
</g>
<!-- Node810&#45;&gt;Node812 -->
<g id="edge9_Node000810_Node000812" class="edge">
<title>Node810&#45;&gt;Node812</title>
<g id="a_edge9_Node000810_Node000812"><a xlink:title=" ">
<path fill="none" stroke="#63b8ff" d="M144.67,-256.8C125.18,-254.19 102.78,-251.18 83.95,-248.66"/>
<polygon fill="#63b8ff" stroke="#63b8ff" points="144.18,-260.27 154.56,-258.13 145.12,-253.33 144.18,-260.27"/>
</a>
</g>
</g>
</g>
</svg>
