<?xml version="1.0" encoding="UTF-8" standalone="no"?>
<!DOCTYPE svg PUBLIC "-//W3C//DTD SVG 1.1//EN"
 "http://www.w3.org/Graphics/SVG/1.1/DTD/svg11.dtd">
<!-- Generated by graphviz version 2.40.1 (20161225.0304)
 -->
<!-- Title: test/slist/slist_parse.c Pages: 1 -->
<svg width="226pt" height="84pt"
 viewBox="0.00 0.00 225.50 84.00" xmlns="http://www.w3.org/2000/svg" xmlns:xlink="http://www.w3.org/1999/xlink">
<g id="graph0" class="graph" transform="scale(1 1) rotate(0) translate(4 80)">
<title>test/slist/slist_parse.c</title>
<polygon fill="#ffffff" stroke="transparent" points="-4,4 -4,-80 221.5,-80 221.5,4 -4,4"/>
<!-- Node0 -->
<g id="node1" class="node">
<title>Node0</title>
<polygon fill="#bfbfbf" stroke="#000000" points="43.5,-56.5 43.5,-75.5 165.5,-75.5 165.5,-56.5 43.5,-56.5"/>
<text text-anchor="middle" x="104.5" y="-63.5" font-family="Helvetica,sans-Serif" font-size="10.00" fill="#000000">test/slist/slist_parse.c</text>
</g>
<!-- Node1 -->
<g id="node2" class="node">
<title>Node1</title>
<polygon fill="#ffffff" stroke="#bfbfbf" points="0,-.5 0,-19.5 55,-19.5 55,-.5 0,-.5"/>
<text text-anchor="middle" x="27.5" y="-7.5" font-family="Helvetica,sans-Serif" font-size="10.00" fill="#000000">config.h</text>
</g>
<!-- Node0&#45;&gt;Node1 -->
<g id="edge1" class="edge">
<title>Node0&#45;&gt;Node1</title>
<path fill="none" stroke="#191970" d="M91.0876,-56.2455C79.4943,-47.814 62.5252,-35.4729 49.0322,-25.6598"/>
<polygon fill="#191970" stroke="#191970" points="50.9047,-22.6938 40.7587,-19.6427 46.7874,-28.355 50.9047,-22.6938"/>
</g>
<!-- Node2 -->
<g id="node3" class="node">
<title>Node2</title>
<g id="a_node3"><a xlink:href="acutest_8h.html" target="_top" xlink:title="acutest.h">
<polygon fill="#ffffff" stroke="#ff0000" points="73.5,-.5 73.5,-19.5 135.5,-19.5 135.5,-.5 73.5,-.5"/>
<text text-anchor="middle" x="104.5" y="-7.5" font-family="Helvetica,sans-Serif" font-size="10.00" fill="#000000">acutest.h</text>
</a>
</g>
</g>
<!-- Node0&#45;&gt;Node2 -->
<g id="edge2" class="edge">
<title>Node0&#45;&gt;Node2</title>
<path fill="none" stroke="#191970" d="M104.5,-56.2455C104.5,-48.9382 104.5,-38.6944 104.5,-29.7046"/>
<polygon fill="#191970" stroke="#191970" points="108.0001,-29.6426 104.5,-19.6427 101.0001,-29.6427 108.0001,-29.6426"/>
</g>
<!-- Node9 -->
<g id="node4" class="node">
<title>Node9</title>
<g id="a_node4"><a xlink:href="mutt_2lib_8h.html" target="_top" xlink:title="Convenience wrapper for the library headers. ">
<polygon fill="#ffffff" stroke="#ff0000" points="153.5,-.5 153.5,-19.5 217.5,-19.5 217.5,-.5 153.5,-.5"/>
<text text-anchor="middle" x="185.5" y="-7.5" font-family="Helvetica,sans-Serif" font-size="10.00" fill="#000000">mutt/lib.h</text>
</a>
</g>
</g>
<!-- Node0&#45;&gt;Node9 -->
<g id="edge3" class="edge">
<title>Node0&#45;&gt;Node9</title>
<path fill="none" stroke="#191970" d="M118.6091,-56.2455C130.9209,-47.7337 148.9958,-35.2375 163.2538,-25.3801"/>
<polygon fill="#191970" stroke="#191970" points="165.3174,-28.2085 171.5526,-19.6427 161.3366,-22.4506 165.3174,-28.2085"/>
</g>
</g>
</svg>
