<?xml version="1.0" encoding="UTF-8" standalone="no"?>
<!DOCTYPE svg PUBLIC "-//W3C//DTD SVG 1.1//EN"
 "http://www.w3.org/Graphics/SVG/1.1/DTD/svg11.dtd">
<!-- Generated by graphviz version 12.2.1 (20241206.2353)
 -->
<!-- Title: smime_handle_entity Pages: 1 -->
<svg width="625pt" height="988pt"
 viewBox="0.00 0.00 624.75 988.26" xmlns="http://www.w3.org/2000/svg" xmlns:xlink="http://www.w3.org/1999/xlink">
<g id="graph0" class="graph" transform="scale(1 1) rotate(0) translate(4 984.26)">
<title>smime_handle_entity</title>
<!-- Node1 -->
<g id="Node000001" class="node">
<title>Node1</title>
<g id="a_Node000001"><a xlink:title="Handle type application/pkcs7&#45;mime.">
<polygon fill="#999999" stroke="#666666" points="114.25,-494.25 0,-494.25 0,-472 114.25,-472 114.25,-494.25"/>
<text text-anchor="middle" x="57.12" y="-480.75" font-family="Helvetica,sans-Serif" font-size="10.00">smime_handle_entity</text>
</a>
</g>
</g>
<!-- Node2 -->
<g id="Node000002" class="node">
<title>Node2</title>
<g id="a_Node000002"><a xlink:href="pool_8c.html#a41cba27c25d33cb6822789a2856093f2" target="_top" xlink:title="Get a Buffer from the pool.">
<polygon fill="#fff0f0" stroke="red" points="454.88,-594.25 378.12,-594.25 378.12,-572 454.88,-572 454.88,-594.25"/>
<text text-anchor="middle" x="416.5" y="-580.75" font-family="Helvetica,sans-Serif" font-size="10.00">buf_pool_get</text>
</a>
</g>
</g>
<!-- Node1&#45;&gt;Node2 -->
<g id="edge1_Node000001_Node000002" class="edge">
<title>Node1&#45;&gt;Node2</title>
<g id="a_edge1_Node000001_Node000002"><a xlink:title=" ">
<path fill="none" stroke="#63b8ff" d="M63.17,-494.68C74.54,-519.09 104.79,-575.41 150.25,-597.12 221.69,-631.24 316.6,-613.31 371.37,-597.79"/>
<polygon fill="#63b8ff" stroke="#63b8ff" points="372.04,-601.24 380.65,-595.06 370.07,-594.52 372.04,-601.24"/>
</a>
</g>
</g>
<!-- Node10 -->
<g id="Node000010" class="node">
<title>Node10</title>
<g id="a_Node000010"><a xlink:href="pool_8c.html#a4cc6068279461cb8628219586dfa35a1" target="_top" xlink:title="Return a Buffer to the pool.">
<polygon fill="#fff0f0" stroke="red" points="463.88,-672.25 369.12,-672.25 369.12,-650 463.88,-650 463.88,-672.25"/>
<text text-anchor="middle" x="416.5" y="-658.75" font-family="Helvetica,sans-Serif" font-size="10.00">buf_pool_release</text>
</a>
</g>
</g>
<!-- Node1&#45;&gt;Node10 -->
<g id="edge2_Node000001_Node000010" class="edge">
<title>Node1&#45;&gt;Node10</title>
<g id="a_edge2_Node000001_Node000010"><a xlink:title=" ">
<path fill="none" stroke="#63b8ff" d="M59.51,-494.74C64.36,-529.59 84.07,-633.48 150.25,-675.12 183.5,-696.05 290,-682.92 357.51,-671.79"/>
<polygon fill="#63b8ff" stroke="#63b8ff" points="358.04,-675.25 367.32,-670.14 356.88,-668.35 358.04,-675.25"/>
</a>
</g>
</g>
<!-- Node15 -->
<g id="Node000015" class="node">
<title>Node15</title>
<g id="a_Node000015"><a xlink:href="buffer_8h.html#a728ebc5a947b77c8d56db44ce553a7ab" target="_top" xlink:title="Convert a buffer to a const char * &quot;string&quot;.">
<polygon fill="white" stroke="#666666" points="448.12,-363.25 384.88,-363.25 384.88,-341 448.12,-341 448.12,-363.25"/>
<text text-anchor="middle" x="416.5" y="-349.75" font-family="Helvetica,sans-Serif" font-size="10.00">buf_string</text>
</a>
</g>
</g>
<!-- Node1&#45;&gt;Node15 -->
<g id="edge3_Node000001_Node000015" class="edge">
<title>Node1&#45;&gt;Node15</title>
<g id="a_edge3_Node000001_Node000015"><a xlink:title=" ">
<path fill="none" stroke="#63b8ff" d="M57.98,-471.62C58.13,-429.55 64.99,-283.37 150.25,-223.12 206.15,-183.63 242.02,-194.62 304.25,-223.12 352.62,-245.28 387.95,-300.01 404.68,-330.58"/>
<polygon fill="#63b8ff" stroke="#63b8ff" points="401.52,-332.1 409.28,-339.31 407.71,-328.83 401.52,-332.1"/>
</a>
</g>
</g>
<!-- Node16 -->
<g id="Node000016" class="node">
<title>Node16</title>
<g id="a_Node000016"><a xlink:href="crypt_8c.html#ac85f3f9345f53423bce29d478a6d7aaa" target="_top" xlink:title="Print the current time.">
<polygon fill="#fff0f0" stroke="red" points="279.5,-938.25 175,-938.25 175,-916 279.5,-916 279.5,-938.25"/>
<text text-anchor="middle" x="227.25" y="-924.75" font-family="Helvetica,sans-Serif" font-size="10.00">crypt_current_time</text>
</a>
</g>
</g>
<!-- Node1&#45;&gt;Node16 -->
<g id="edge5_Node000001_Node000016" class="edge">
<title>Node1&#45;&gt;Node16</title>
<g id="a_edge5_Node000001_Node000016"><a xlink:title=" ">
<path fill="none" stroke="#63b8ff" d="M59.11,-494.41C64.6,-554.74 93.21,-838.98 150.25,-902.12 154.22,-906.52 158.98,-910.15 164.15,-913.14"/>
<polygon fill="#63b8ff" stroke="#63b8ff" points="162.62,-916.28 173.15,-917.48 165.66,-909.98 162.62,-916.28"/>
</a>
</g>
</g>
<!-- Node38 -->
<g id="Node000038" class="node">
<title>Node38</title>
<g id="a_Node000038"><a xlink:href="mutt_2state_8c.html#a0d52430e63f8cffdd0e6a78182ad4385" target="_top" xlink:title="Write a string to the state.">
<polygon fill="#fff0f0" stroke="red" points="465,-957.25 368,-957.25 368,-935 465,-935 465,-957.25"/>
<text text-anchor="middle" x="416.5" y="-943.75" font-family="Helvetica,sans-Serif" font-size="10.00">state_attach_puts</text>
</a>
</g>
</g>
<!-- Node1&#45;&gt;Node38 -->
<g id="edge49_Node000001_Node000038" class="edge">
<title>Node1&#45;&gt;Node38</title>
<g id="a_edge49_Node000001_Node000038"><a xlink:title=" ">
<path fill="none" stroke="#63b8ff" d="M58.52,-494.66C61.06,-560.42 77.25,-887.2 150.25,-947.12 213.32,-998.9 316.15,-978.53 373.49,-961.07"/>
<polygon fill="#63b8ff" stroke="#63b8ff" points="374.41,-964.45 382.88,-958.1 372.29,-957.78 374.41,-964.45"/>
</a>
</g>
</g>
<!-- Node43 -->
<g id="Node000043" class="node">
<title>Node43</title>
<g id="a_Node000043"><a xlink:href="mutt_2filter_8c.html#a22c6912b837b1114c3276c990e73dca3" target="_top" xlink:title="Wait for the exit of a process and return its status.">
<polygon fill="#fff0f0" stroke="red" points="258.12,-784.25 196.38,-784.25 196.38,-762 258.12,-762 258.12,-784.25"/>
<text text-anchor="middle" x="227.25" y="-770.75" font-family="Helvetica,sans-Serif" font-size="10.00">filter_wait</text>
</a>
</g>
</g>
<!-- Node1&#45;&gt;Node43 -->
<g id="edge7_Node000001_Node000043" class="edge">
<title>Node1&#45;&gt;Node43</title>
<g id="a_edge7_Node000001_Node000043"><a xlink:title=" ">
<path fill="none" stroke="#63b8ff" d="M58.4,-494.63C60.04,-536.15 71.4,-679.72 150.25,-753.12 159.65,-761.88 172.42,-766.9 184.81,-769.75"/>
<polygon fill="#63b8ff" stroke="#63b8ff" points="184.01,-773.16 194.48,-771.53 185.28,-766.28 184.01,-773.16"/>
</a>
</g>
</g>
<!-- Node45 -->
<g id="Node000045" class="node">
<title>Node45</title>
<g id="a_Node000045"><a xlink:href="handler_8c.html#a3e520d3004995a6c0cf0696edfd209fb" target="_top" xlink:title="Handler for the Body of an email.">
<polygon fill="#fff0f0" stroke="red" points="280.62,-666.25 173.88,-666.25 173.88,-644 280.62,-644 280.62,-666.25"/>
<text text-anchor="middle" x="227.25" y="-652.75" font-family="Helvetica,sans-Serif" font-size="10.00">mutt_body_handler</text>
</a>
</g>
</g>
<!-- Node1&#45;&gt;Node45 -->
<g id="edge8_Node000001_Node000045" class="edge">
<title>Node1&#45;&gt;Node45</title>
<g id="a_edge8_Node000001_Node000045"><a xlink:title=" ">
<path fill="none" stroke="#63b8ff" d="M62.15,-494.57C72.39,-522.08 102.11,-592.43 150.25,-630.12 154.54,-633.48 159.29,-636.4 164.27,-638.92"/>
<polygon fill="#63b8ff" stroke="#63b8ff" points="162.79,-642.1 173.34,-642.98 165.64,-635.7 162.79,-642.1"/>
</a>
</g>
</g>
<!-- Node214 -->
<g id="Node000214" class="node">
<title>Node214</title>
<g id="a_Node000214"><a xlink:href="crypt_8c.html#a4073ce5b5fcec6e245dbfa9369016b8e" target="_top" xlink:title="Does the message use S/MIME?">
<polygon fill="#fff0f0" stroke="red" points="468.38,-764.38 364.62,-764.38 364.62,-727.88 468.38,-727.88 468.38,-764.38"/>
<text text-anchor="start" x="372.62" y="-750.88" font-family="Helvetica,sans-Serif" font-size="10.00">mutt_is_application</text>
<text text-anchor="middle" x="416.5" y="-736.62" font-family="Helvetica,sans-Serif" font-size="10.00">_smime</text>
</a>
</g>
</g>
<!-- Node1&#45;&gt;Node214 -->
<g id="edge23_Node000001_Node000214" class="edge">
<title>Node1&#45;&gt;Node214</title>
<g id="a_edge23_Node000001_Node000214"><a xlink:title=" ">
<path fill="none" stroke="#63b8ff" d="M59.72,-494.68C67.12,-546.38 99.85,-755.52 150.25,-793.12 217.12,-843.01 319.6,-800.55 375.59,-770.22"/>
<polygon fill="#63b8ff" stroke="#63b8ff" points="377.12,-773.37 384.16,-765.45 373.72,-767.25 377.12,-773.37"/>
</a>
</g>
</g>
<!-- Node50 -->
<g id="Node000050" class="node">
<title>Node50</title>
<g id="a_Node000050"><a xlink:href="mutt_2string_8c.html#a29db81d6f5a7dd216cbea75ecf8a5885" target="_top" xlink:title="Compare two strings, ignoring case.">
<polygon fill="#fff0f0" stroke="red" points="616.75,-633.25 528.75,-633.25 528.75,-611 616.75,-611 616.75,-633.25"/>
<text text-anchor="middle" x="572.75" y="-619.75" font-family="Helvetica,sans-Serif" font-size="10.00">mutt_istr_equal</text>
</a>
</g>
</g>
<!-- Node1&#45;&gt;Node50 -->
<g id="edge26_Node000001_Node000050" class="edge">
<title>Node1&#45;&gt;Node50</title>
<g id="a_edge26_Node000001_Node000050"><a xlink:title=" ">
<path fill="none" stroke="#63b8ff" d="M59.2,-471.58C64.74,-414.7 92.13,-165.34 150.25,-120.12 204.27,-78.1 237,-107.4 304.25,-120.12 392.68,-136.86 435.49,-124.69 492.75,-194.12 544.89,-257.34 565.39,-520.67 570.43,-599.64"/>
<polygon fill="#63b8ff" stroke="#63b8ff" points="566.91,-599.4 571.02,-609.16 573.9,-598.97 566.91,-599.4"/>
</a>
</g>
</g>
<!-- Node9 -->
<g id="Node000009" class="node">
<title>Node9</title>
<g id="a_Node000009"><a xlink:href="mutt_2string_8c.html#acca6786b903b22a5924219f9db96e10d" target="_top" xlink:title="Calculate the length of a string, safely.">
<polygon fill="white" stroke="#666666" points="610,-803.25 535.5,-803.25 535.5,-781 610,-781 610,-803.25"/>
<text text-anchor="middle" x="572.75" y="-789.75" font-family="Helvetica,sans-Serif" font-size="10.00">mutt_str_len</text>
</a>
</g>
</g>
<!-- Node1&#45;&gt;Node9 -->
<g id="edge39_Node000001_Node000009" class="edge">
<title>Node1&#45;&gt;Node9</title>
<g id="a_edge39_Node000001_Node000009"><a xlink:title=" ">
<path fill="none" stroke="#63b8ff" d="M59.17,-494.45C64.68,-551.37 92.29,-805.32 150.25,-853.12 208.99,-901.57 421.65,-890.38 492.75,-863.12 519.19,-852.99 542.34,-829.47 556.63,-812.26"/>
<polygon fill="#63b8ff" stroke="#63b8ff" points="559.18,-814.67 562.68,-804.67 553.71,-810.31 559.18,-814.67"/>
</a>
</g>
</g>
<!-- Node70 -->
<g id="Node000070" class="node">
<title>Node70</title>
<g id="a_Node000070"><a xlink:href="envelope_8c.html#a244dacf9b1001c9ce1dbd473e001381f" target="_top" xlink:title="Free an Envelope.">
<polygon fill="#fff0f0" stroke="red" points="458.62,-854.25 374.38,-854.25 374.38,-832 458.62,-832 458.62,-854.25"/>
<text text-anchor="middle" x="416.5" y="-840.75" font-family="Helvetica,sans-Serif" font-size="10.00">mutt_env_free</text>
</a>
</g>
</g>
<!-- Node1&#45;&gt;Node70 -->
<g id="edge16_Node000001_Node000070" class="edge">
<title>Node1&#45;&gt;Node70</title>
<g id="a_edge16_Node000001_Node000070"><a xlink:title=" ">
<path fill="none" stroke="#63b8ff" d="M59.52,-494.4C66.36,-547.78 98.15,-774.41 150.25,-818.12 209.38,-867.74 304.13,-863.3 362.94,-854.19"/>
<polygon fill="#63b8ff" stroke="#63b8ff" points="363.41,-857.66 372.7,-852.56 362.27,-850.75 363.41,-857.66"/>
</a>
</g>
</g>
<!-- Node993 -->
<g id="Node000993" class="node">
<title>Node993</title>
<g id="a_Node000993"><a xlink:href="file_8c.html#a2bafa45ca3c8ce7d96303377d860e2db" target="_top" xlink:title="Copy some content from one file to another.">
<polygon fill="white" stroke="#666666" points="284,-534.25 170.5,-534.25 170.5,-512 284,-512 284,-534.25"/>
<text text-anchor="middle" x="227.25" y="-520.75" font-family="Helvetica,sans-Serif" font-size="10.00">mutt_file_copy_bytes</text>
</a>
</g>
</g>
<!-- Node1&#45;&gt;Node993 -->
<g id="edge17_Node000001_Node000993" class="edge">
<title>Node1&#45;&gt;Node993</title>
<g id="a_edge17_Node000001_Node000993"><a xlink:title=" ">
<path fill="none" stroke="#63b8ff" d="M106.75,-494.69C125.41,-499.13 146.91,-504.25 166.48,-508.91"/>
<polygon fill="#63b8ff" stroke="#63b8ff" points="165.43,-512.25 175.97,-511.16 167.05,-505.44 165.43,-512.25"/>
</a>
</g>
</g>
<!-- Node630 -->
<g id="Node000630" class="node">
<title>Node630</title>
<g id="a_Node000630"><a xlink:href="file_8c.html#a0a6ff09a685fb6fa1120a582a5a6ef4a" target="_top" xlink:title="Copy the contents of one file into another.">
<polygon fill="white" stroke="#666666" points="287.38,-494.25 167.12,-494.25 167.12,-472 287.38,-472 287.38,-494.25"/>
<text text-anchor="middle" x="227.25" y="-480.75" font-family="Helvetica,sans-Serif" font-size="10.00">mutt_file_copy_stream</text>
</a>
</g>
</g>
<!-- Node1&#45;&gt;Node630 -->
<g id="edge18_Node000001_Node000630" class="edge">
<title>Node1&#45;&gt;Node630</title>
<g id="a_edge18_Node000001_Node000630"><a xlink:title=" ">
<path fill="none" stroke="#63b8ff" d="M114.58,-483.12C127.69,-483.12 141.82,-483.12 155.47,-483.12"/>
<polygon fill="#63b8ff" stroke="#63b8ff" points="155.27,-486.63 165.27,-483.13 155.27,-479.63 155.27,-486.63"/>
</a>
</g>
</g>
<!-- Node1001 -->
<g id="Node001001" class="node">
<title>Node1001</title>
<g id="a_Node001001"><a xlink:href="file_8c.html#a4cffa4f503de3736198956ebed431f7e" target="_top" xlink:title="Get the size of a file.">
<polygon fill="white" stroke="#666666" points="284,-454.25 170.5,-454.25 170.5,-432 284,-432 284,-454.25"/>
<text text-anchor="middle" x="227.25" y="-440.75" font-family="Helvetica,sans-Serif" font-size="10.00">mutt_file_get_size_fp</text>
</a>
</g>
</g>
<!-- Node1&#45;&gt;Node1001 -->
<g id="edge19_Node000001_Node001001" class="edge">
<title>Node1&#45;&gt;Node1001</title>
<g id="a_edge19_Node000001_Node001001"><a xlink:title=" ">
<path fill="none" stroke="#63b8ff" d="M106.75,-471.56C125.41,-467.12 146.91,-462 166.48,-457.34"/>
<polygon fill="#63b8ff" stroke="#63b8ff" points="167.05,-460.81 175.97,-455.09 165.43,-454 167.05,-460.81"/>
</a>
</g>
</g>
<!-- Node631 -->
<g id="Node000631" class="node">
<title>Node631</title>
<g id="a_Node000631"><a xlink:href="file_8c.html#a1ad76f956147154f16128b7761dadd58" target="_top" xlink:title="Read a line from a file.">
<polygon fill="white" stroke="#666666" points="279.12,-414.25 175.38,-414.25 175.38,-392 279.12,-392 279.12,-414.25"/>
<text text-anchor="middle" x="227.25" y="-400.75" font-family="Helvetica,sans-Serif" font-size="10.00">mutt_file_read_line</text>
</a>
</g>
</g>
<!-- Node1&#45;&gt;Node631 -->
<g id="edge20_Node000001_Node000631" class="edge">
<title>Node1&#45;&gt;Node631</title>
<g id="a_edge20_Node000001_Node000631"><a xlink:title=" ">
<path fill="none" stroke="#63b8ff" d="M72.6,-471.58C90.06,-458.16 120.76,-436.2 150.25,-423.12 154.79,-421.11 159.58,-419.27 164.45,-417.58"/>
<polygon fill="#63b8ff" stroke="#63b8ff" points="165.29,-420.99 173.75,-414.61 163.16,-414.32 165.29,-420.99"/>
</a>
</g>
</g>
<!-- Node220 -->
<g id="Node000220" class="node">
<title>Node220</title>
<g id="a_Node000220"><a xlink:href="file_8c.html#a6b60cb2044041374689e6e6641c5cc05" target="_top" xlink:title="Wrapper for fseeko with error handling.">
<polygon fill="white" stroke="#666666" points="269,-374.25 185.5,-374.25 185.5,-352 269,-352 269,-374.25"/>
<text text-anchor="middle" x="227.25" y="-360.75" font-family="Helvetica,sans-Serif" font-size="10.00">mutt_file_seek</text>
</a>
</g>
</g>
<!-- Node1&#45;&gt;Node220 -->
<g id="edge21_Node000001_Node000220" class="edge">
<title>Node1&#45;&gt;Node220</title>
<g id="a_edge21_Node000001_Node000220"><a xlink:title=" ">
<path fill="none" stroke="#63b8ff" d="M65.46,-471.56C79.35,-450.6 111.62,-406.38 150.25,-383.12 157.56,-378.72 165.84,-375.28 174.18,-372.58"/>
<polygon fill="#63b8ff" stroke="#63b8ff" points="174.99,-375.99 183.64,-369.88 173.06,-369.26 174.99,-375.99"/>
</a>
</g>
</g>
<!-- Node1234 -->
<g id="Node001234" class="node">
<title>Node1234</title>
<g id="a_Node001234"><a xlink:href="file_8c.html#ae57463c2854c006a3c67b78736e9056e" target="_top" xlink:title="Delete a file, carefully.">
<polygon fill="white" stroke="#666666" points="272,-334.25 182.5,-334.25 182.5,-312 272,-312 272,-334.25"/>
<text text-anchor="middle" x="227.25" y="-320.75" font-family="Helvetica,sans-Serif" font-size="10.00">mutt_file_unlink</text>
</a>
</g>
</g>
<!-- Node1&#45;&gt;Node1234 -->
<g id="edge22_Node000001_Node001234" class="edge">
<title>Node1&#45;&gt;Node1234</title>
<g id="a_edge22_Node000001_Node001234"><a xlink:title=" ">
<path fill="none" stroke="#63b8ff" d="M62.32,-471.64C72.76,-444.76 102.52,-377.42 150.25,-343.12 156.5,-338.63 163.69,-335.15 171.1,-332.45"/>
<polygon fill="#63b8ff" stroke="#63b8ff" points="172.09,-335.8 180.59,-329.47 170,-329.12 172.09,-335.8"/>
</a>
</g>
</g>
<!-- Node217 -->
<g id="Node000217" class="node">
<title>Node217</title>
<g id="a_Node000217"><a xlink:href="crypt_8c.html#a345fb1ff241b3fc778632947c2b08d37" target="_top" xlink:title="Is a message signed?">
<polygon fill="#fff0f0" stroke="red" points="482.62,-60.25 350.38,-60.25 350.38,-38 482.62,-38 482.62,-60.25"/>
<text text-anchor="middle" x="416.5" y="-46.75" font-family="Helvetica,sans-Serif" font-size="10.00">mutt_is_multipart_signed</text>
</a>
</g>
</g>
<!-- Node1&#45;&gt;Node217 -->
<g id="edge24_Node000001_Node000217" class="edge">
<title>Node1&#45;&gt;Node217</title>
<g id="a_edge24_Node000001_Node000217"><a xlink:title=" ">
<path fill="none" stroke="#63b8ff" d="M58.92,-471.88C63.44,-411.78 87.82,-129.06 150.25,-74.12 204.57,-26.33 291.53,-27.61 350.97,-35.83"/>
<polygon fill="#63b8ff" stroke="#63b8ff" points="350.2,-39.26 360.61,-37.28 351.24,-32.34 350.2,-39.26"/>
</a>
</g>
</g>
<!-- Node218 -->
<g id="Node000218" class="node">
<title>Node218</title>
<g id="a_Node000218"><a xlink:href="email_2parse_8c.html#a0b38ac4f44b3414d0e18d26324861369" target="_top" xlink:title="Parse a MIME part.">
<polygon fill="#fff0f0" stroke="red" points="273.88,-254.25 180.62,-254.25 180.62,-232 273.88,-232 273.88,-254.25"/>
<text text-anchor="middle" x="227.25" y="-240.75" font-family="Helvetica,sans-Serif" font-size="10.00">mutt_parse_part</text>
</a>
</g>
</g>
<!-- Node1&#45;&gt;Node218 -->
<g id="edge27_Node000001_Node000218" class="edge">
<title>Node1&#45;&gt;Node218</title>
<g id="a_edge27_Node000001_Node000218"><a xlink:title=" ">
<path fill="none" stroke="#63b8ff" d="M59.38,-471.74C64.02,-435.4 83.54,-321.14 150.25,-263.12 155.92,-258.19 162.67,-254.46 169.78,-251.63"/>
<polygon fill="#63b8ff" stroke="#63b8ff" points="170.53,-255.07 178.91,-248.59 168.32,-248.43 170.53,-255.07"/>
</a>
</g>
</g>
<!-- Node1241 -->
<g id="Node001241" class="node">
<title>Node1241</title>
<g id="a_Node001241"><a xlink:href="group__handler__api.html#ga7ccf06ce10b9aed658fcc6c7a40c64b8" target="_top" xlink:title="Handler for protected headers &#45; Implements handler_t &#45;.">
<polygon fill="#fff0f0" stroke="red" points="293,-588.38 161.5,-588.38 161.5,-551.88 293,-551.88 293,-588.38"/>
<text text-anchor="start" x="169.5" y="-574.88" font-family="Helvetica,sans-Serif" font-size="10.00">mutt_protected_headers</text>
<text text-anchor="middle" x="227.25" y="-560.62" font-family="Helvetica,sans-Serif" font-size="10.00">_handler</text>
</a>
</g>
</g>
<!-- Node1&#45;&gt;Node1241 -->
<g id="edge28_Node000001_Node001241" class="edge">
<title>Node1&#45;&gt;Node1241</title>
<g id="a_edge28_Node000001_Node001241"><a xlink:title=" ">
<path fill="none" stroke="#63b8ff" d="M73.43,-494.71C91.18,-507.77 121.68,-528.99 150.25,-543.12 152.98,-544.48 155.79,-545.79 158.66,-547.07"/>
<polygon fill="#63b8ff" stroke="#63b8ff" points="157.23,-550.26 167.8,-550.93 159.95,-543.81 157.23,-550.26"/>
</a>
</g>
</g>
<!-- Node222 -->
<g id="Node000222" class="node">
<title>Node222</title>
<g id="a_Node000222"><a xlink:href="email_2parse_8c.html#a2cfe061d82e6381b14e355c0937ecfc1" target="_top" xlink:title="Parse a MIME header.">
<polygon fill="#fff0f0" stroke="red" points="293.75,-744.25 160.75,-744.25 160.75,-722 293.75,-722 293.75,-744.25"/>
<text text-anchor="middle" x="227.25" y="-730.75" font-family="Helvetica,sans-Serif" font-size="10.00">mutt_read_mime_header</text>
</a>
</g>
</g>
<!-- Node1&#45;&gt;Node222 -->
<g id="edge32_Node000001_Node000222" class="edge">
<title>Node1&#45;&gt;Node222</title>
<g id="a_edge32_Node000001_Node000222"><a xlink:title=" ">
<path fill="none" stroke="#63b8ff" d="M59.45,-494.59C64.28,-531.23 84.31,-646.7 150.25,-708.12 153.68,-711.32 157.53,-714.11 161.62,-716.54"/>
<polygon fill="#63b8ff" stroke="#63b8ff" points="159.69,-719.49 170.19,-720.9 162.87,-713.25 159.69,-719.49"/>
</a>
</g>
</g>
<!-- Node1282 -->
<g id="Node001282" class="node">
<title>Node1282</title>
<g id="a_Node001282"><a xlink:href="group__crypto__valid__passphrase.html#gaaa50dd72a9aae26aa62d0510121d41f9" target="_top" xlink:title="Ensure we have a valid passphrase &#45; Implements CryptModuleSpecs::valid_passphrase() &#45;.">
<polygon fill="#fff0f0" stroke="red" points="304.25,-294.25 150.25,-294.25 150.25,-272 304.25,-272 304.25,-294.25"/>
<text text-anchor="middle" x="227.25" y="-280.75" font-family="Helvetica,sans-Serif" font-size="10.00">smime_class_valid_passphrase</text>
</a>
</g>
</g>
<!-- Node1&#45;&gt;Node1282 -->
<g id="edge40_Node000001_Node001282" class="edge">
<title>Node1&#45;&gt;Node1282</title>
<g id="a_edge40_Node000001_Node001282"><a xlink:title=" ">
<path fill="none" stroke="#63b8ff" d="M60.52,-471.8C67.86,-439.99 93.09,-349.12 150.25,-303.12 151.55,-302.08 152.89,-301.09 154.28,-300.16"/>
<polygon fill="#63b8ff" stroke="#63b8ff" points="155.65,-303.4 162.62,-295.43 152.2,-297.31 155.65,-303.4"/>
</a>
</g>
</g>
<!-- Node1284 -->
<g id="Node001284" class="node">
<title>Node1284</title>
<g id="a_Node001284"><a xlink:href="group__crypto__void__passphrase.html#gadb364b3c8158f09603b981b70bbee2eb" target="_top" xlink:title="Forget the cached passphrase &#45; Implements CryptModuleSpecs::void_passphrase() &#45;.">
<polygon fill="white" stroke="#666666" points="492.75,-225.25 340.25,-225.25 340.25,-203 492.75,-203 492.75,-225.25"/>
<text text-anchor="middle" x="416.5" y="-211.75" font-family="Helvetica,sans-Serif" font-size="10.00">smime_class_void_passphrase</text>
</a>
</g>
</g>
<!-- Node1&#45;&gt;Node1284 -->
<g id="edge45_Node000001_Node001284" class="edge">
<title>Node1&#45;&gt;Node1284</title>
<g id="a_edge45_Node000001_Node001284"><a xlink:title=" ">
<path fill="none" stroke="#63b8ff" d="M59.42,-471.65C65.78,-417.3 95.76,-186.75 150.25,-145.12 224.87,-88.12 342.07,-160.01 391.86,-195.94"/>
<polygon fill="#63b8ff" stroke="#63b8ff" points="389.54,-198.58 399.67,-201.7 393.7,-192.95 389.54,-198.58"/>
</a>
</g>
</g>
<!-- Node1285 -->
<g id="Node001285" class="node">
<title>Node1285</title>
<g id="a_Node001285"><a xlink:href="smime_8c.html#a8eb0f60e2b6099bf5cacf6d39d821e1f" target="_top" xlink:title="Use SMIME to decrypt a file.">
<polygon fill="#fff0f0" stroke="red" points="288.5,-176.25 166,-176.25 166,-154 288.5,-154 288.5,-176.25"/>
<text text-anchor="middle" x="227.25" y="-162.75" font-family="Helvetica,sans-Serif" font-size="10.00">smime_invoke_decrypt</text>
</a>
</g>
</g>
<!-- Node1&#45;&gt;Node1285 -->
<g id="edge46_Node000001_Node001285" class="edge">
<title>Node1&#45;&gt;Node1285</title>
<g id="a_edge46_Node000001_Node001285"><a xlink:title=" ">
<path fill="none" stroke="#63b8ff" d="M58.2,-471.74C59.12,-428.58 68.22,-273.24 150.25,-190.12 153.2,-187.13 156.52,-184.5 160.08,-182.18"/>
<polygon fill="#63b8ff" stroke="#63b8ff" points="161.56,-185.36 168.63,-177.47 158.18,-179.23 161.56,-185.36"/>
</a>
</g>
</g>
<!-- Node1288 -->
<g id="Node001288" class="node">
<title>Node1288</title>
<g id="a_Node001288"><a xlink:href="smime_8c.html#a78f4b26aa7184098db006fdc8eb96ae4" target="_top" xlink:title="Use SMIME to verify a file.">
<polygon fill="#fff0f0" stroke="red" points="284,-22.25 170.5,-22.25 170.5,0 284,0 284,-22.25"/>
<text text-anchor="middle" x="227.25" y="-8.75" font-family="Helvetica,sans-Serif" font-size="10.00">smime_invoke_verify</text>
</a>
</g>
</g>
<!-- Node1&#45;&gt;Node1288 -->
<g id="edge48_Node000001_Node001288" class="edge">
<title>Node1&#45;&gt;Node1288</title>
<g id="a_edge48_Node000001_Node001288"><a xlink:title=" ">
<path fill="none" stroke="#63b8ff" d="M58.97,-471.52C63.8,-408.09 89.88,-103.84 150.25,-36.12 153.23,-32.78 156.67,-29.88 160.4,-27.37"/>
<polygon fill="#63b8ff" stroke="#63b8ff" points="161.85,-30.57 168.87,-22.63 158.43,-24.46 161.85,-30.57"/>
</a>
</g>
</g>
<!-- Node15&#45;&gt;Node15 -->
<g id="edge4_Node000015_Node000015" class="edge">
<title>Node15&#45;&gt;Node15</title>
<g id="a_edge4_Node000015_Node000015"><a xlink:title=" ">
<path fill="none" stroke="#63b8ff" d="M390.99,-363.49C381.45,-372.28 389.95,-381.25 416.5,-381.25 431.02,-381.25 440.14,-378.57 443.87,-374.7"/>
<polygon fill="#63b8ff" stroke="#63b8ff" points="447.35,-374.27 442.26,-364.98 440.44,-375.42 447.35,-374.27"/>
</a>
</g>
</g>
<!-- Node16&#45;&gt;Node38 -->
<g id="edge6_Node000016_Node000038" class="edge">
<title>Node16&#45;&gt;Node38</title>
<g id="a_edge6_Node000016_Node000038"><a xlink:title=" ">
<path fill="none" stroke="#63b8ff" d="M279.91,-932.37C303.56,-934.77 331.7,-937.62 356.2,-940.11"/>
<polygon fill="#63b8ff" stroke="#63b8ff" points="355.73,-943.58 366.03,-941.11 356.44,-936.61 355.73,-943.58"/>
</a>
</g>
</g>
<!-- Node45&#45;&gt;Node2 -->
<g id="edge9_Node000045_Node000002" class="edge">
<title>Node45&#45;&gt;Node2</title>
<g id="a_edge9_Node000045_Node000002"><a xlink:title=" ">
<path fill="none" stroke="#63b8ff" d="M269.15,-643.59C280.71,-639.81 293.16,-635.26 304.25,-630.12 321.27,-622.25 323.24,-616.02 340.25,-608.12 348.68,-604.21 357.9,-600.62 366.91,-597.46"/>
<polygon fill="#63b8ff" stroke="#63b8ff" points="367.93,-600.81 376.29,-594.3 365.69,-594.17 367.93,-600.81"/>
</a>
</g>
</g>
<!-- Node45&#45;&gt;Node10 -->
<g id="edge10_Node000045_Node000010" class="edge">
<title>Node45&#45;&gt;Node10</title>
<g id="a_edge10_Node000045_Node000010"><a xlink:title=" ">
<path fill="none" stroke="#63b8ff" d="M280.91,-656.81C304.72,-657.58 332.94,-658.48 357.37,-659.26"/>
<polygon fill="#63b8ff" stroke="#63b8ff" points="357.04,-662.75 367.15,-659.58 357.26,-655.76 357.04,-662.75"/>
</a>
</g>
</g>
<!-- Node45&#45;&gt;Node15 -->
<g id="edge11_Node000045_Node000015" class="edge">
<title>Node45&#45;&gt;Node15</title>
<g id="a_edge11_Node000045_Node000015"><a xlink:title=" ">
<path fill="none" stroke="#63b8ff" d="M248.57,-643.54C265.31,-633.17 288.74,-616.6 304.25,-597.12 361.17,-525.66 396.05,-420.4 409.34,-374.69"/>
<polygon fill="#63b8ff" stroke="#63b8ff" points="412.69,-375.72 412.04,-365.15 405.95,-373.82 412.69,-375.72"/>
</a>
</g>
</g>
<!-- Node45&#45;&gt;Node214 -->
<g id="edge12_Node000045_Node000214" class="edge">
<title>Node45&#45;&gt;Node214</title>
<g id="a_edge12_Node000045_Node000214"><a xlink:title=" ">
<path fill="none" stroke="#63b8ff" d="M251.97,-666.65C280.75,-680.64 330.02,-704.58 366.97,-722.54"/>
<polygon fill="#63b8ff" stroke="#63b8ff" points="365.16,-725.55 375.68,-726.77 368.22,-719.25 365.16,-725.55"/>
</a>
</g>
</g>
<!-- Node45&#45;&gt;Node50 -->
<g id="edge15_Node000045_Node000050" class="edge">
<title>Node45&#45;&gt;Node50</title>
<g id="a_edge15_Node000045_Node000050"><a xlink:title=" ">
<path fill="none" stroke="#63b8ff" d="M280.9,-648.08C299.62,-645.69 320.86,-643.13 340.25,-641.12 400.71,-634.87 470.23,-629.39 517.18,-625.95"/>
<polygon fill="#63b8ff" stroke="#63b8ff" points="517.38,-629.44 527.1,-625.23 516.87,-622.46 517.38,-629.44"/>
</a>
</g>
</g>
<!-- Node214&#45;&gt;Node50 -->
<g id="edge13_Node000214_Node000050" class="edge">
<title>Node214&#45;&gt;Node50</title>
<g id="a_edge13_Node000214_Node000050"><a xlink:title=" ">
<path fill="none" stroke="#63b8ff" d="M468.62,-728.18C477.05,-724.17 485.42,-719.49 492.75,-714.12 519.93,-694.24 543.99,-663.28 558.22,-642.85"/>
<polygon fill="#63b8ff" stroke="#63b8ff" points="560.99,-645 563.7,-634.76 555.19,-641.07 560.99,-645"/>
</a>
</g>
</g>
<!-- Node214&#45;&gt;Node9 -->
<g id="edge14_Node000214_Node000009" class="edge">
<title>Node214&#45;&gt;Node9</title>
<g id="a_edge14_Node000214_Node000009"><a xlink:title=" ">
<path fill="none" stroke="#63b8ff" d="M468.86,-761.44C486.86,-766.81 506.98,-772.81 524.61,-778.07"/>
<polygon fill="#63b8ff" stroke="#63b8ff" points="523.2,-781.3 533.78,-780.8 525.2,-774.59 523.2,-781.3"/>
</a>
</g>
</g>
<!-- Node217&#45;&gt;Node50 -->
<g id="edge25_Node000217_Node000050" class="edge">
<title>Node217&#45;&gt;Node50</title>
<g id="a_edge25_Node000217_Node000050"><a xlink:title=" ">
<path fill="none" stroke="#63b8ff" d="M475.21,-60.61C481.87,-64.01 487.98,-68.42 492.75,-74.12 561.08,-155.81 570.31,-506.63 571.56,-599.5"/>
<polygon fill="#63b8ff" stroke="#63b8ff" points="568.05,-599.36 571.67,-609.32 575.05,-599.28 568.05,-599.36"/>
</a>
</g>
</g>
<!-- Node1241&#45;&gt;Node2 -->
<g id="edge29_Node001241_Node000002" class="edge">
<title>Node1241&#45;&gt;Node2</title>
<g id="a_edge29_Node001241_Node000002"><a xlink:title=" ">
<path fill="none" stroke="#63b8ff" d="M293.48,-574.65C317.48,-576.32 344.22,-578.18 366.55,-579.73"/>
<polygon fill="#63b8ff" stroke="#63b8ff" points="366.05,-583.2 376.27,-580.4 366.53,-576.22 366.05,-583.2"/>
</a>
</g>
</g>
<!-- Node1241&#45;&gt;Node10 -->
<g id="edge30_Node001241_Node000010" class="edge">
<title>Node1241&#45;&gt;Node10</title>
<g id="a_edge30_Node001241_Node000010"><a xlink:title=" ">
<path fill="none" stroke="#63b8ff" d="M266.59,-588.76C300.34,-605.16 349,-628.81 381.41,-644.56"/>
<polygon fill="#63b8ff" stroke="#63b8ff" points="379.84,-647.69 390.37,-648.91 382.9,-641.39 379.84,-647.69"/>
</a>
</g>
</g>
<!-- Node1241&#45;&gt;Node15 -->
<g id="edge31_Node001241_Node000015" class="edge">
<title>Node1241&#45;&gt;Node15</title>
<g id="a_edge31_Node001241_Node000015"><a xlink:title=" ">
<path fill="none" stroke="#63b8ff" d="M291.94,-551.5C296.32,-549.03 300.48,-546.25 304.25,-543.12 360.47,-496.5 394.58,-413.64 408.39,-374.19"/>
<polygon fill="#63b8ff" stroke="#63b8ff" points="411.66,-375.45 411.54,-364.86 405.02,-373.21 411.66,-375.45"/>
</a>
</g>
</g>
<!-- Node222&#45;&gt;Node2 -->
<g id="edge33_Node000222_Node000002" class="edge">
<title>Node222&#45;&gt;Node2</title>
<g id="a_edge33_Node000222_Node000002"><a xlink:title=" ">
<path fill="none" stroke="#63b8ff" d="M244.35,-721.6C260,-710.22 284.27,-692.11 304.25,-675.12 321.02,-660.87 323.51,-655.42 340.25,-641.12 356.51,-627.24 375.59,-612.55 390.47,-601.43"/>
<polygon fill="#63b8ff" stroke="#63b8ff" points="392.41,-604.35 398.36,-595.58 388.24,-598.72 392.41,-604.35"/>
</a>
</g>
</g>
<!-- Node222&#45;&gt;Node10 -->
<g id="edge34_Node000222_Node000010" class="edge">
<title>Node222&#45;&gt;Node10</title>
<g id="a_edge34_Node000222_Node000010"><a xlink:title=" ">
<path fill="none" stroke="#63b8ff" d="M269.15,-721.59C280.71,-717.81 293.16,-713.26 304.25,-708.12 321.27,-700.25 323.24,-694.02 340.25,-686.12 347.89,-682.58 356.18,-679.3 364.36,-676.36"/>
<polygon fill="#63b8ff" stroke="#63b8ff" points="365.26,-679.75 373.58,-673.19 362.98,-673.14 365.26,-679.75"/>
</a>
</g>
</g>
<!-- Node222&#45;&gt;Node15 -->
<g id="edge35_Node000222_Node000015" class="edge">
<title>Node222&#45;&gt;Node15</title>
<g id="a_edge35_Node000222_Node000015"><a xlink:title=" ">
<path fill="none" stroke="#63b8ff" d="M249.85,-721.58C266.89,-711.44 290.08,-695.19 304.25,-675.12 334.42,-632.42 323.47,-612.64 340.25,-563.12 363.73,-493.84 393.33,-412.46 407.38,-374.16"/>
<polygon fill="#63b8ff" stroke="#63b8ff" points="410.61,-375.53 410.77,-364.94 404.04,-373.12 410.61,-375.53"/>
</a>
</g>
</g>
<!-- Node222&#45;&gt;Node50 -->
<g id="edge37_Node000222_Node000050" class="edge">
<title>Node222&#45;&gt;Node50</title>
<g id="a_edge37_Node000222_Node000050"><a xlink:title=" ">
<path fill="none" stroke="#63b8ff" d="M294.11,-723.6C360.49,-713.4 457.94,-696.58 492.75,-681.12 514.78,-671.35 536.47,-654.48 551.53,-641.28"/>
<polygon fill="#63b8ff" stroke="#63b8ff" points="553.8,-643.94 558.88,-634.64 549.11,-638.75 553.8,-643.94"/>
</a>
</g>
</g>
<!-- Node222&#45;&gt;Node9 -->
<g id="edge38_Node000222_Node000009" class="edge">
<title>Node222&#45;&gt;Node9</title>
<g id="a_edge38_Node000222_Node000009"><a xlink:title=" ">
<path fill="none" stroke="#63b8ff" d="M279.51,-744.74C287.9,-747.17 296.4,-749.97 304.25,-753.12 321.23,-759.95 322.73,-767.81 340.25,-773.12 401.62,-791.74 476.07,-794.56 523.68,-794.02"/>
<polygon fill="#63b8ff" stroke="#63b8ff" points="523.73,-797.52 533.66,-793.85 523.6,-790.53 523.73,-797.52"/>
</a>
</g>
</g>
<!-- Node222&#45;&gt;Node70 -->
<g id="edge36_Node000222_Node000070" class="edge">
<title>Node222&#45;&gt;Node70</title>
<g id="a_edge36_Node000222_Node000070"><a xlink:title=" ">
<path fill="none" stroke="#63b8ff" d="M288.98,-744.75C294.38,-747.05 299.57,-749.82 304.25,-753.12 327.5,-769.57 318.76,-787.44 340.25,-806.12 349.84,-814.46 361.64,-821.41 373.02,-826.96"/>
<polygon fill="#63b8ff" stroke="#63b8ff" points="371.36,-830.05 381.91,-831.02 374.27,-823.68 371.36,-830.05"/>
</a>
</g>
</g>
<!-- Node1282&#45;&gt;Node2 -->
<g id="edge41_Node001282_Node000002" class="edge">
<title>Node1282&#45;&gt;Node2</title>
<g id="a_edge41_Node001282_Node000002"><a xlink:title=" ">
<path fill="none" stroke="#63b8ff" d="M291.65,-294.64C296.2,-296.98 300.47,-299.78 304.25,-303.12 306.84,-305.42 381.28,-495.55 406.92,-561.16"/>
<polygon fill="#63b8ff" stroke="#63b8ff" points="403.54,-562.11 410.44,-570.15 410.06,-559.56 403.54,-562.11"/>
</a>
</g>
</g>
<!-- Node1282&#45;&gt;Node10 -->
<g id="edge42_Node001282_Node000010" class="edge">
<title>Node1282&#45;&gt;Node10</title>
<g id="a_edge42_Node001282_Node000010"><a xlink:title=" ">
<path fill="none" stroke="#63b8ff" d="M294.4,-294.7C298.04,-297.05 301.38,-299.83 304.25,-303.12 392.44,-404.4 273.9,-486.37 340.25,-603.12 349.94,-620.18 366.87,-633.91 382.22,-643.72"/>
<polygon fill="#63b8ff" stroke="#63b8ff" points="380.32,-646.66 390.69,-648.82 383.93,-640.66 380.32,-646.66"/>
</a>
</g>
</g>
<!-- Node1282&#45;&gt;Node15 -->
<g id="edge43_Node001282_Node000015" class="edge">
<title>Node1282&#45;&gt;Node15</title>
<g id="a_edge43_Node001282_Node000015"><a xlink:title=" ">
<path fill="none" stroke="#63b8ff" d="M276.84,-294.69C286.02,-297.22 295.49,-300.07 304.25,-303.12 330.84,-312.41 359.94,-325.33 381.71,-335.58"/>
<polygon fill="#63b8ff" stroke="#63b8ff" points="380.16,-338.72 390.7,-339.86 383.17,-332.4 380.16,-338.72"/>
</a>
</g>
</g>
<!-- Node1282&#45;&gt;Node1284 -->
<g id="edge44_Node001282_Node001284" class="edge">
<title>Node1282&#45;&gt;Node1284</title>
<g id="a_edge44_Node001282_Node001284"><a xlink:title=" ">
<path fill="none" stroke="#63b8ff" d="M276.84,-271.56C286.02,-269.03 295.49,-266.18 304.25,-263.12 330.84,-253.84 359.94,-240.92 381.71,-230.67"/>
<polygon fill="#63b8ff" stroke="#63b8ff" points="383.17,-233.85 390.7,-226.39 380.16,-227.53 383.17,-233.85"/>
</a>
</g>
</g>
<!-- Node1285&#45;&gt;Node15 -->
<g id="edge47_Node001285_Node000015" class="edge">
<title>Node1285&#45;&gt;Node15</title>
<g id="a_edge47_Node001285_Node000015"><a xlink:title=" ">
<path fill="none" stroke="#63b8ff" d="M278.79,-176.6C287.79,-180.04 296.69,-184.46 304.25,-190.12 317.62,-200.15 375.7,-289.74 402.21,-331.22"/>
<polygon fill="#63b8ff" stroke="#63b8ff" points="399.23,-333.04 407.55,-339.6 405.13,-329.28 399.23,-333.04"/>
</a>
</g>
</g>
</g>
</svg>
