<?xml version="1.0" encoding="UTF-8" standalone="no"?>
<!DOCTYPE svg PUBLIC "-//W3C//DTD SVG 1.1//EN"
 "http://www.w3.org/Graphics/SVG/1.1/DTD/svg11.dtd">
<!-- Generated by graphviz version 2.44.0 (0)
 -->
<!-- Title: smtp_get_resp Pages: 1 -->
<svg width="452pt" height="259pt"
 viewBox="0.00 0.00 452.00 258.70" xmlns="http://www.w3.org/2000/svg" xmlns:xlink="http://www.w3.org/1999/xlink">
<g id="graph0" class="graph" transform="scale(1 1) rotate(0) translate(4 254.7)">
<title>smtp_get_resp</title>
<polygon fill="white" stroke="transparent" points="-4,4 -4,-254.7 448,-254.7 448,4 -4,4"/>
<!-- Node1 -->
<g id="node1" class="node">
<title>Node1</title>
<g id="a_node1"><a xlink:title="Read a command response from the SMTP server.">
<polygon fill="#bfbfbf" stroke="black" points="363,-114.5 363,-133.5 444,-133.5 444,-114.5 363,-114.5"/>
<text text-anchor="middle" x="403.5" y="-121.5" font-family="Helvetica" font-size="10.00">smtp_get_resp</text>
</a>
</g>
</g>
<!-- Node2 -->
<g id="node2" class="node">
<title>Node2</title>
<g id="a_node2"><a xlink:href="smtp_8h.html#ae59289bca751588d49e12337981f375d" target="_top" xlink:title="Send a message using SMTP.">
<polygon fill="white" stroke="red" points="0,-76.5 0,-95.5 89,-95.5 89,-76.5 0,-76.5"/>
<text text-anchor="middle" x="44.5" y="-83.5" font-family="Helvetica" font-size="10.00">mutt_smtp_send</text>
</a>
</g>
</g>
<!-- Node1&#45;&gt;Node2 -->
<g id="edge1" class="edge">
<title>Node1&#45;&gt;Node2</title>
<path fill="none" stroke="midnightblue" d="M396.31,-143.18C386.48,-170.06 364.48,-217.87 327,-238 290.98,-257.35 273.58,-251.56 235,-238 151.05,-208.49 76.75,-124.37 53.23,-95.7"/>
<polygon fill="midnightblue" stroke="midnightblue" points="399.63,-144.3 399.59,-133.7 393.01,-142.01 399.63,-144.3"/>
</g>
<!-- Node486 -->
<g id="node3" class="node">
<title>Node486</title>
<g id="a_node3"><a xlink:href="smtp_8c.html#ae80814f83efbe5e77a160a89e453ce2e" target="_top" xlink:title="Authenticate using plain text.">
<polygon fill="white" stroke="black" points="237,-209.5 237,-228.5 325,-228.5 325,-209.5 237,-209.5"/>
<text text-anchor="middle" x="281" y="-216.5" font-family="Helvetica" font-size="10.00">smtp_auth_login</text>
</a>
</g>
</g>
<!-- Node1&#45;&gt;Node486 -->
<g id="edge2" class="edge">
<title>Node1&#45;&gt;Node486</title>
<path fill="none" stroke="midnightblue" d="M388.59,-141.53C374.52,-158.33 351.41,-183.51 327,-200 321.66,-203.61 315.52,-206.75 309.54,-209.38"/>
<polygon fill="midnightblue" stroke="midnightblue" points="391.46,-143.55 395.08,-133.6 386.04,-139.12 391.46,-143.55"/>
</g>
<!-- Node498 -->
<g id="node4" class="node">
<title>Node498</title>
<g id="a_node4"><a xlink:href="smtp_8c.html#aeddfb78789d9c2e7d5f25cad8c2cde5a" target="_top" xlink:title="Authenticate an SMTP connection using OAUTHBEARER.">
<polygon fill="white" stroke="black" points="235,-171.5 235,-190.5 327,-190.5 327,-171.5 235,-171.5"/>
<text text-anchor="middle" x="281" y="-178.5" font-family="Helvetica" font-size="10.00">smtp_auth_oauth</text>
</a>
</g>
</g>
<!-- Node1&#45;&gt;Node498 -->
<g id="edge3" class="edge">
<title>Node1&#45;&gt;Node498</title>
<path fill="none" stroke="midnightblue" d="M375.13,-138.33C360.88,-145.65 343.13,-154.55 327,-162 320.07,-165.2 312.45,-168.5 305.49,-171.43"/>
<polygon fill="midnightblue" stroke="midnightblue" points="377.08,-141.26 384.36,-133.56 373.87,-135.04 377.08,-141.26"/>
</g>
<!-- Node487 -->
<g id="node5" class="node">
<title>Node487</title>
<g id="a_node5"><a xlink:href="smtp_8c.html#ae9586a32d8891fcc4e849ca971141f45" target="_top" xlink:title="Authenticate using plain text.">
<polygon fill="white" stroke="black" points="237,-133.5 237,-152.5 325,-152.5 325,-133.5 237,-133.5"/>
<text text-anchor="middle" x="281" y="-140.5" font-family="Helvetica" font-size="10.00">smtp_auth_plain</text>
</a>
</g>
</g>
<!-- Node1&#45;&gt;Node487 -->
<g id="edge4" class="edge">
<title>Node1&#45;&gt;Node487</title>
<path fill="none" stroke="midnightblue" d="M352.58,-131.87C343.44,-133.31 333.98,-134.8 325.07,-136.21"/>
<polygon fill="midnightblue" stroke="midnightblue" points="353.38,-135.29 362.71,-130.27 352.29,-128.37 353.38,-135.29"/>
</g>
<!-- Node549 -->
<g id="node6" class="node">
<title>Node549</title>
<g id="a_node6"><a xlink:href="smtp_8c.html#a890ee43751b32d172dc546e366afc151" target="_top" xlink:title="Send data to an SMTP server.">
<polygon fill="white" stroke="black" points="131,-95.5 131,-114.5 193,-114.5 193,-95.5 131,-95.5"/>
<text text-anchor="middle" x="162" y="-102.5" font-family="Helvetica" font-size="10.00">smtp_data</text>
</a>
</g>
</g>
<!-- Node1&#45;&gt;Node549 -->
<g id="edge5" class="edge">
<title>Node1&#45;&gt;Node549</title>
<path fill="none" stroke="midnightblue" d="M352.75,-120.05C304.61,-116.23 233.2,-110.57 193.12,-107.39"/>
<polygon fill="midnightblue" stroke="midnightblue" points="352.71,-123.56 362.95,-120.86 353.26,-116.58 352.71,-123.56"/>
</g>
<!-- Node550 -->
<g id="node7" class="node">
<title>Node550</title>
<g id="a_node7"><a xlink:href="smtp_8c.html#a65e028c1aba1dae80b1b9efe867a397d" target="_top" xlink:title="Say hello to an SMTP Server.">
<polygon fill="white" stroke="black" points="250,-57.5 250,-76.5 312,-76.5 312,-57.5 250,-57.5"/>
<text text-anchor="middle" x="281" y="-64.5" font-family="Helvetica" font-size="10.00">smtp_helo</text>
</a>
</g>
</g>
<!-- Node1&#45;&gt;Node550 -->
<g id="edge7" class="edge">
<title>Node1&#45;&gt;Node550</title>
<path fill="none" stroke="midnightblue" d="M373.12,-110.1C351.13,-99.7 321.63,-85.75 302.23,-76.57"/>
<polygon fill="midnightblue" stroke="midnightblue" points="371.79,-113.35 382.33,-114.46 374.79,-107.02 371.79,-113.35"/>
</g>
<!-- Node394 -->
<g id="node8" class="node">
<title>Node394</title>
<g id="a_node8"><a xlink:href="smtp_8c.html#af00197da7dca51e184b0e8c22ad91103" target="_top" xlink:title="Open an SMTP Connection.">
<polygon fill="white" stroke="black" points="129.5,-57.5 129.5,-76.5 194.5,-76.5 194.5,-57.5 129.5,-57.5"/>
<text text-anchor="middle" x="162" y="-64.5" font-family="Helvetica" font-size="10.00">smtp_open</text>
</a>
</g>
</g>
<!-- Node1&#45;&gt;Node394 -->
<g id="edge10" class="edge">
<title>Node1&#45;&gt;Node394</title>
<path fill="none" stroke="midnightblue" d="M391.02,-105.94C378.06,-87.41 355.06,-59.68 327,-48 279.76,-28.34 218.67,-45.34 186,-57.43"/>
<polygon fill="midnightblue" stroke="midnightblue" points="388.24,-108.07 396.71,-114.43 394.05,-104.17 388.24,-108.07"/>
</g>
<!-- Node551 -->
<g id="node9" class="node">
<title>Node551</title>
<g id="a_node9"><a xlink:href="smtp_8c.html#aeeb441cbabf3e137ad7b8527d93fd36b" target="_top" xlink:title="Set the recipient to an Address.">
<polygon fill="white" stroke="black" points="125,-0.5 125,-19.5 199,-19.5 199,-0.5 125,-0.5"/>
<text text-anchor="middle" x="162" y="-7.5" font-family="Helvetica" font-size="10.00">smtp_rcpt_to</text>
</a>
</g>
</g>
<!-- Node1&#45;&gt;Node551 -->
<g id="edge11" class="edge">
<title>Node1&#45;&gt;Node551</title>
<path fill="none" stroke="midnightblue" d="M392.29,-105.37C379.8,-84.53 356.63,-51.54 327,-35 287.27,-12.81 234.11,-8.49 199.23,-8.43"/>
<polygon fill="midnightblue" stroke="midnightblue" points="389.37,-107.32 397.4,-114.24 395.44,-103.83 389.37,-107.32"/>
</g>
<!-- Node549&#45;&gt;Node2 -->
<g id="edge6" class="edge">
<title>Node549&#45;&gt;Node2</title>
<path fill="none" stroke="midnightblue" d="M121.05,-98.43C110.81,-96.74 99.74,-94.92 89.32,-93.21"/>
<polygon fill="midnightblue" stroke="midnightblue" points="120.52,-101.89 130.96,-100.06 121.66,-94.98 120.52,-101.89"/>
</g>
<!-- Node550&#45;&gt;Node394 -->
<g id="edge8" class="edge">
<title>Node550&#45;&gt;Node394</title>
<path fill="none" stroke="midnightblue" d="M239.53,-67C224.85,-67 208.48,-67 194.66,-67"/>
<polygon fill="midnightblue" stroke="midnightblue" points="239.87,-70.5 249.87,-67 239.87,-63.5 239.87,-70.5"/>
</g>
<!-- Node394&#45;&gt;Node2 -->
<g id="edge9" class="edge">
<title>Node394&#45;&gt;Node2</title>
<path fill="none" stroke="midnightblue" d="M119.48,-73.83C109.62,-75.45 99.09,-77.18 89.15,-78.82"/>
<polygon fill="midnightblue" stroke="midnightblue" points="120.14,-77.27 129.44,-72.19 119,-70.36 120.14,-77.27"/>
</g>
<!-- Node551&#45;&gt;Node2 -->
<g id="edge12" class="edge">
<title>Node551&#45;&gt;Node2</title>
<path fill="none" stroke="midnightblue" d="M137.81,-25.26C114.58,-40.54 79.56,-63.59 60.01,-76.45"/>
<polygon fill="midnightblue" stroke="midnightblue" points="139.94,-28.05 146.37,-19.63 136.09,-22.2 139.94,-28.05"/>
</g>
</g>
</svg>
