<?xml version="1.0" encoding="UTF-8" standalone="no"?>
<!DOCTYPE svg PUBLIC "-//W3C//DTD SVG 1.1//EN"
 "http://www.w3.org/Graphics/SVG/1.1/DTD/svg11.dtd">
<!-- Generated by graphviz version 2.40.1 (20161225.0304)
 -->
<!-- Title: smtp_open Pages: 1 -->
<svg width="359pt" height="332pt"
 viewBox="0.00 0.00 359.00 332.00" xmlns="http://www.w3.org/2000/svg" xmlns:xlink="http://www.w3.org/1999/xlink">
<g id="graph0" class="graph" transform="scale(1 1) rotate(0) translate(4 328)">
<title>smtp_open</title>
<polygon fill="#ffffff" stroke="transparent" points="-4,4 -4,-328 355,-328 355,4 -4,4"/>
<!-- Node15664 -->
<g id="node1" class="node">
<title>Node15664</title>
<polygon fill="#bfbfbf" stroke="#000000" points="0,-152.5 0,-171.5 71,-171.5 71,-152.5 0,-152.5"/>
<text text-anchor="middle" x="35.5" y="-159.5" font-family="Helvetica,sans-Serif" font-size="10.00" fill="#000000">smtp_open</text>
</g>
<!-- Node15665 -->
<g id="node2" class="node">
<title>Node15665</title>
<g id="a_node2"><a xlink:href="socket_8c.html#ada78f2615db2775bb7ccd042e6df2774" target="_top" xlink:title="Simple wrapper. ">
<polygon fill="#ffffff" stroke="#ff0000" points="110.5,-304.5 110.5,-323.5 217.5,-323.5 217.5,-304.5 110.5,-304.5"/>
<text text-anchor="middle" x="164" y="-311.5" font-family="Helvetica,sans-Serif" font-size="10.00" fill="#000000">mutt_socket_open</text>
</a>
</g>
</g>
<!-- Node15664&#45;&gt;Node15665 -->
<g id="edge1" class="edge">
<title>Node15664&#45;&gt;Node15665</title>
<path fill="none" stroke="#191970" d="M38.4736,-171.7567C46.0968,-195.2465 68.4937,-255.5434 107,-290 111.4083,-293.9447 116.5592,-297.3031 121.9288,-300.1448"/>
<polygon fill="#191970" stroke="#191970" points="120.5411,-303.3599 131.0796,-304.4518 123.5222,-297.0264 120.5411,-303.3599"/>
</g>
<!-- Node16759 -->
<g id="node3" class="node">
<title>Node16759</title>
<g id="a_node3"><a xlink:href="smtp_8c.html#a09fbb923917c60bbd43df1394571d1bb" target="_top" xlink:title="Read a command response from the SMTP server. ">
<polygon fill="#ffffff" stroke="#ff0000" points="259.5,-256.5 259.5,-275.5 348.5,-275.5 348.5,-256.5 259.5,-256.5"/>
<text text-anchor="middle" x="304" y="-263.5" font-family="Helvetica,sans-Serif" font-size="10.00" fill="#000000">smtp_get_resp</text>
</a>
</g>
</g>
<!-- Node15664&#45;&gt;Node16759 -->
<g id="edge2" class="edge">
<title>Node15664&#45;&gt;Node16759</title>
<path fill="none" stroke="#191970" d="M41.1742,-171.5276C51.7567,-188.3431 76.2449,-223.0154 107,-239 151.0512,-261.8951 207.7792,-267.5875 249.0393,-268.1797"/>
<polygon fill="#191970" stroke="#191970" points="249.1622,-271.6802 259.1787,-268.2277 249.1955,-264.6803 249.1622,-271.6802"/>
</g>
<!-- Node17749 -->
<g id="node4" class="node">
<title>Node17749</title>
<g id="a_node4"><a xlink:href="smtp_8c.html#a65e028c1aba1dae80b1b9efe867a397d" target="_top" xlink:title="Say hello to an SMTP Server. ">
<polygon fill="#ffffff" stroke="#000000" points="130,-190.5 130,-209.5 198,-209.5 198,-190.5 130,-190.5"/>
<text text-anchor="middle" x="164" y="-197.5" font-family="Helvetica,sans-Serif" font-size="10.00" fill="#000000">smtp_helo</text>
</a>
</g>
</g>
<!-- Node15664&#45;&gt;Node17749 -->
<g id="edge3" class="edge">
<title>Node15664&#45;&gt;Node17749</title>
<path fill="none" stroke="#191970" d="M67.926,-171.589C84.2097,-176.4044 104.1421,-182.2988 121.622,-187.468"/>
<polygon fill="#191970" stroke="#191970" points="121.0024,-190.9345 131.5844,-190.4141 122.9875,-184.2219 121.0024,-190.9345"/>
</g>
<!-- Node15695 -->
<g id="node5" class="node">
<title>Node15695</title>
<g id="a_node5"><a xlink:href="helpers_8c.html#ae50f679dd6c5bd1ba820884c8602f038" target="_top" xlink:title="Get a boolean config item by name. ">
<polygon fill="#ffffff" stroke="#ff0000" points="258.5,-209.5 258.5,-228.5 349.5,-228.5 349.5,-209.5 258.5,-209.5"/>
<text text-anchor="middle" x="304" y="-216.5" font-family="Helvetica,sans-Serif" font-size="10.00" fill="#000000">cs_subset_bool</text>
</a>
</g>
</g>
<!-- Node15664&#45;&gt;Node15695 -->
<g id="edge7" class="edge">
<title>Node15664&#45;&gt;Node15695</title>
<path fill="none" stroke="#191970" d="M43.5317,-171.5935C55.6367,-185.2178 80.0278,-209.5645 107,-219 152.683,-234.9809 208.0553,-233.2945 248.4466,-228.5895"/>
<polygon fill="#191970" stroke="#191970" points="248.8943,-232.0608 258.3778,-227.3372 248.0185,-225.1158 248.8943,-232.0608"/>
</g>
<!-- Node16709 -->
<g id="node6" class="node">
<title>Node16709</title>
<g id="a_node6"><a xlink:href="helpers_8c.html#a9154ba713ce99b0937f475eec7c61af9" target="_top" xlink:title="Get a quad&#45;value config item by name. ">
<polygon fill="#ffffff" stroke="#ff0000" points="257,-171.5 257,-190.5 351,-190.5 351,-171.5 257,-171.5"/>
<text text-anchor="middle" x="304" y="-178.5" font-family="Helvetica,sans-Serif" font-size="10.00" fill="#000000">cs_subset_quad</text>
</a>
</g>
</g>
<!-- Node15664&#45;&gt;Node16709 -->
<g id="edge8" class="edge">
<title>Node15664&#45;&gt;Node16709</title>
<path fill="none" stroke="#191970" d="M71.1547,-164.5231C115.956,-167.6933 193.406,-173.174 246.5939,-176.9377"/>
<polygon fill="#191970" stroke="#191970" points="246.669,-180.4517 256.8912,-177.6664 247.1632,-173.4692 246.669,-180.4517"/>
</g>
<!-- Node16710 -->
<g id="node7" class="node">
<title>Node16710</title>
<g id="a_node7"><a xlink:href="curs__lib_8c.html#ab02047769214ff014b9a8a1782babadc" target="_top" xlink:title="Ask the user a quad&#45;question. ">
<polygon fill="#ffffff" stroke="#ff0000" points="112,-114.5 112,-133.5 216,-133.5 216,-114.5 112,-114.5"/>
<text text-anchor="middle" x="164" y="-121.5" font-family="Helvetica,sans-Serif" font-size="10.00" fill="#000000">query_quadoption</text>
</a>
</g>
</g>
<!-- Node15664&#45;&gt;Node16710 -->
<g id="edge9" class="edge">
<title>Node15664&#45;&gt;Node16710</title>
<path fill="none" stroke="#191970" d="M67.926,-152.411C84.2097,-147.5956 104.1421,-141.7012 121.622,-136.532"/>
<polygon fill="#191970" stroke="#191970" points="122.9875,-139.7781 131.5844,-133.5859 121.0024,-133.0655 122.9875,-139.7781"/>
</g>
<!-- Node16771 -->
<g id="node8" class="node">
<title>Node16771</title>
<g id="a_node8"><a xlink:href="socket_8c.html#a90c5b50a98f0f9a0b73b82e90c096aba" target="_top" xlink:title="Clear out any queued data. ">
<polygon fill="#ffffff" stroke="#ff0000" points="107,-76.5 107,-95.5 221,-95.5 221,-76.5 107,-76.5"/>
<text text-anchor="middle" x="164" y="-83.5" font-family="Helvetica,sans-Serif" font-size="10.00" fill="#000000">mutt_socket_empty</text>
</a>
</g>
</g>
<!-- Node15664&#45;&gt;Node16771 -->
<g id="edge10" class="edge">
<title>Node15664&#45;&gt;Node16771</title>
<path fill="none" stroke="#191970" d="M45.3362,-152.2586C58.4173,-139.7758 82.7246,-118.1796 107,-105 110.9218,-102.8708 115.1247,-100.9225 119.4052,-99.1543"/>
<polygon fill="#191970" stroke="#191970" points="120.7201,-102.3989 128.8209,-95.5705 118.23,-95.8568 120.7201,-102.3989"/>
</g>
<!-- Node16773 -->
<g id="node9" class="node">
<title>Node16773</title>
<g id="a_node9"><a xlink:href="gnutls_8c.html#a23591e82bf992ceb5e62c459fd787b8a" target="_top" xlink:title="Negotiate TLS over an already opened connection. ">
<polygon fill="#ffffff" stroke="#000000" points="115,-38.5 115,-57.5 213,-57.5 213,-38.5 115,-38.5"/>
<text text-anchor="middle" x="164" y="-45.5" font-family="Helvetica,sans-Serif" font-size="10.00" fill="#000000">mutt_ssl_starttls</text>
</a>
</g>
</g>
<!-- Node15664&#45;&gt;Node16773 -->
<g id="edge11" class="edge">
<title>Node15664&#45;&gt;Node16773</title>
<path fill="none" stroke="#191970" d="M40.1786,-152.3931C49.9432,-133.3238 74.3256,-90.5087 107,-67 109.6672,-65.081 112.541,-63.3466 115.5302,-61.7804"/>
<polygon fill="#191970" stroke="#191970" points="117.1095,-64.9069 124.7529,-57.57 114.2024,-58.5391 117.1095,-64.9069"/>
</g>
<!-- Node17750 -->
<g id="node10" class="node">
<title>Node17750</title>
<g id="a_node10"><a xlink:href="smtp_8c.html#a262d1231007775a59de517dde48312be" target="_top" xlink:title="Authenticate to an SMTP server. ">
<polygon fill="#ffffff" stroke="#ff0000" points="110,-.5 110,-19.5 218,-19.5 218,-.5 110,-.5"/>
<text text-anchor="middle" x="164" y="-7.5" font-family="Helvetica,sans-Serif" font-size="10.00" fill="#000000">smtp_authenticate</text>
</a>
</g>
</g>
<!-- Node15664&#45;&gt;Node17750 -->
<g id="edge12" class="edge">
<title>Node15664&#45;&gt;Node17750</title>
<path fill="none" stroke="#191970" d="M37.987,-152.388C44.7683,-128.0748 65.8837,-63.6065 107,-29 109.0251,-27.2956 111.2087,-25.7423 113.4996,-24.3271"/>
<polygon fill="#191970" stroke="#191970" points="115.4932,-27.2359 122.7586,-19.5245 112.2701,-21.022 115.4932,-27.2359"/>
</g>
<!-- Node17749&#45;&gt;Node16759 -->
<g id="edge6" class="edge">
<title>Node17749&#45;&gt;Node16759</title>
<path fill="none" stroke="#191970" d="M184.3572,-209.597C207.9971,-220.7415 247.1997,-239.2227 274.2525,-251.9762"/>
<polygon fill="#191970" stroke="#191970" points="273.0805,-255.293 283.6182,-256.3915 276.0654,-248.9614 273.0805,-255.293"/>
</g>
<!-- Node17749&#45;&gt;Node15695 -->
<g id="edge4" class="edge">
<title>Node17749&#45;&gt;Node15695</title>
<path fill="none" stroke="#191970" d="M198.2479,-204.6479C213.2642,-206.6859 231.2811,-209.131 248.1532,-211.4208"/>
<polygon fill="#191970" stroke="#191970" points="248.0936,-214.9447 258.4735,-212.8214 249.035,-208.0083 248.0936,-214.9447"/>
</g>
<!-- Node17749&#45;&gt;Node16709 -->
<g id="edge5" class="edge">
<title>Node17749&#45;&gt;Node16709</title>
<path fill="none" stroke="#191970" d="M198.2479,-195.3521C212.862,-193.3687 230.3181,-190.9997 246.795,-188.7635"/>
<polygon fill="#191970" stroke="#191970" points="247.4551,-192.2061 256.8936,-187.393 246.5137,-185.2697 247.4551,-192.2061"/>
</g>
</g>
</svg>
