<?xml version="1.0" encoding="UTF-8" standalone="no"?>
<!DOCTYPE svg PUBLIC "-//W3C//DTD SVG 1.1//EN"
 "http://www.w3.org/Graphics/SVG/1.1/DTD/svg11.dtd">
<!-- Generated by graphviz version 7.1.0 (0)
 -->
<!-- Title: smtp_data Pages: 1 -->
<svg width="231pt" height="286pt"
 viewBox="0.00 0.00 231.00 286.00" xmlns="http://www.w3.org/2000/svg" xmlns:xlink="http://www.w3.org/1999/xlink">
<g id="graph0" class="graph" transform="scale(1 1) rotate(0) translate(4 282)">
<title>smtp_data</title>
<!-- Node1 -->
<g id="node1" class="node">
<title>Node1</title>
<g id="a_node1"><a xlink:title="Send data to an SMTP server.">
<polygon fill="#999999" stroke="#666666" points="65,-148 0,-148 0,-129 65,-129 65,-148"/>
<text text-anchor="middle" x="32.5" y="-136" font-family="Helvetica,sans-Serif" font-size="10.00">smtp_data</text>
</a>
</g>
</g>
<!-- Node2 -->
<g id="node2" class="node">
<title>Node2</title>
<g id="a_node2"><a xlink:href="file_8c.html#a31f49795ff5b9558db5476e5777e63b6" target="_top" xlink:title="Close a FILE handle (and NULL the pointer)">
<polygon fill="white" stroke="#666666" points="206.5,-278 117.5,-278 117.5,-259 206.5,-259 206.5,-278"/>
<text text-anchor="middle" x="162" y="-266" font-family="Helvetica,sans-Serif" font-size="10.00">mutt_file_fclose</text>
</a>
</g>
</g>
<!-- Node1&#45;&gt;Node2 -->
<g id="edge1" class="edge">
<title>Node1&#45;&gt;Node2</title>
<path fill="none" stroke="#63b8ff" d="M36.63,-148.24C44.11,-169.96 65.13,-222.66 101,-250.5 102.88,-251.96 104.88,-253.3 106.96,-254.53"/>
<polygon fill="#63b8ff" stroke="#63b8ff" points="105.29,-257.61 115.81,-258.88 108.37,-251.33 105.29,-257.61"/>
</g>
<!-- Node3 -->
<g id="node3" class="node">
<title>Node3</title>
<g id="a_node3"><a xlink:href="file_8c.html#a4cffa4f503de3736198956ebed431f7e" target="_top" xlink:title="Get the size of a file.">
<polygon fill="white" stroke="#666666" points="219,-241 105,-241 105,-222 219,-222 219,-241"/>
<text text-anchor="middle" x="162" y="-229" font-family="Helvetica,sans-Serif" font-size="10.00">mutt_file_get_size_fp</text>
</a>
</g>
</g>
<!-- Node1&#45;&gt;Node3 -->
<g id="edge2" class="edge">
<title>Node1&#45;&gt;Node3</title>
<path fill="none" stroke="#63b8ff" d="M39.71,-148.34C50.31,-164.37 73.48,-196.06 101,-213.5 102.97,-214.75 105.04,-215.92 107.17,-217.01"/>
<polygon fill="#63b8ff" stroke="#63b8ff" points="105.52,-220.1 116.08,-220.94 108.35,-213.7 105.52,-220.1"/>
</g>
<!-- Node4 -->
<g id="node4" class="node">
<title>Node4</title>
<g id="a_node4"><a xlink:href="mutt_2string_8c.html#acca6786b903b22a5924219f9db96e10d" target="_top" xlink:title="Calculate the length of a string, safely.">
<polygon fill="white" stroke="#666666" points="199.5,-204 124.5,-204 124.5,-185 199.5,-185 199.5,-204"/>
<text text-anchor="middle" x="162" y="-192" font-family="Helvetica,sans-Serif" font-size="10.00">mutt_str_len</text>
</a>
</g>
</g>
<!-- Node1&#45;&gt;Node4 -->
<g id="edge3" class="edge">
<title>Node1&#45;&gt;Node4</title>
<path fill="none" stroke="#63b8ff" d="M48.82,-148.42C62.19,-156.76 82.31,-168.55 101,-176.5 105,-178.2 109.2,-179.81 113.46,-181.31"/>
<polygon fill="#63b8ff" stroke="#63b8ff" points="112.02,-184.52 122.62,-184.34 114.23,-177.87 112.02,-184.52"/>
</g>
<!-- Node5 -->
<g id="node5" class="node">
<title>Node5</title>
<g id="a_node5"><a xlink:href="progress_8c.html#ab4c7a63427cdcaae2b1147ff6f010af4" target="_top" xlink:title="Free a Progress Bar.">
<polygon fill="#fff0f0" stroke="red" points="202.5,-167 121.5,-167 121.5,-148 202.5,-148 202.5,-167"/>
<text text-anchor="middle" x="162" y="-155" font-family="Helvetica,sans-Serif" font-size="10.00">progress_free</text>
</a>
</g>
</g>
<!-- Node1&#45;&gt;Node5 -->
<g id="edge4" class="edge">
<title>Node1&#45;&gt;Node5</title>
<path fill="none" stroke="#63b8ff" d="M65.34,-143.25C78.86,-145.26 94.96,-147.66 110.06,-149.91"/>
<polygon fill="#63b8ff" stroke="#63b8ff" points="109.45,-153.36 119.85,-151.37 110.48,-146.43 109.45,-153.36"/>
</g>
<!-- Node81 -->
<g id="node6" class="node">
<title>Node81</title>
<g id="a_node6"><a xlink:href="progress_8c.html#a551a8d9e844532e2851d6bee121c09b3" target="_top" xlink:title="Create a new Progress Bar.">
<polygon fill="#fff0f0" stroke="red" points="202,-130 122,-130 122,-111 202,-111 202,-130"/>
<text text-anchor="middle" x="162" y="-118" font-family="Helvetica,sans-Serif" font-size="10.00">progress_new</text>
</a>
</g>
</g>
<!-- Node1&#45;&gt;Node81 -->
<g id="edge5" class="edge">
<title>Node1&#45;&gt;Node81</title>
<path fill="none" stroke="#63b8ff" d="M65.34,-134C78.98,-132.08 95.24,-129.78 110.45,-127.64"/>
<polygon fill="#63b8ff" stroke="#63b8ff" points="110.91,-131.11 120.32,-126.24 109.93,-124.18 110.91,-131.11"/>
</g>
<!-- Node118 -->
<g id="node7" class="node">
<title>Node118</title>
<g id="a_node7"><a xlink:href="progress_2lib_8h.html#abd7142bf1b3c664cf1c3edca7c9b41d8" target="_top" xlink:title=" ">
<polygon fill="white" stroke="#666666" points="223,-93 101,-93 101,-74 223,-74 223,-93"/>
<text text-anchor="middle" x="162" y="-81" font-family="Helvetica,sans-Serif" font-size="10.00">progress_set_message</text>
</a>
</g>
</g>
<!-- Node1&#45;&gt;Node118 -->
<g id="edge6" class="edge">
<title>Node1&#45;&gt;Node118</title>
<path fill="none" stroke="#63b8ff" d="M50,-128.6C63.42,-120.82 83,-110.07 101,-102.5 105.54,-100.59 110.34,-98.76 115.18,-97.05"/>
<polygon fill="#63b8ff" stroke="#63b8ff" points="115.92,-100.49 124.28,-93.97 113.68,-93.86 115.92,-100.49"/>
</g>
<!-- Node119 -->
<g id="node8" class="node">
<title>Node119</title>
<g id="a_node8"><a xlink:href="progress_8c.html#ae0ca330f9059a039a4ece5cb1b00155b" target="_top" xlink:title="Update the state of the progress bar.">
<polygon fill="#fff0f0" stroke="red" points="209.5,-56 114.5,-56 114.5,-37 209.5,-37 209.5,-56"/>
<text text-anchor="middle" x="162" y="-44" font-family="Helvetica,sans-Serif" font-size="10.00">progress_update</text>
</a>
</g>
</g>
<!-- Node1&#45;&gt;Node119 -->
<g id="edge7" class="edge">
<title>Node1&#45;&gt;Node119</title>
<path fill="none" stroke="#63b8ff" d="M39.8,-128.97C50.54,-113.45 73.89,-82.71 101,-65.5 103.59,-63.85 106.34,-62.34 109.17,-60.95"/>
<polygon fill="#63b8ff" stroke="#63b8ff" points="110.5,-64.19 118.32,-57.04 107.74,-57.76 110.5,-64.19"/>
</g>
<!-- Node124 -->
<g id="node9" class="node">
<title>Node124</title>
<g id="a_node9"><a xlink:href="smtp_8c.html#a09fbb923917c60bbd43df1394571d1bb" target="_top" xlink:title="Read a command response from the SMTP server.">
<polygon fill="#fff0f0" stroke="red" points="204.5,-19 119.5,-19 119.5,0 204.5,0 204.5,-19"/>
<text text-anchor="middle" x="162" y="-7" font-family="Helvetica,sans-Serif" font-size="10.00">smtp_get_resp</text>
</a>
</g>
</g>
<!-- Node1&#45;&gt;Node124 -->
<g id="edge8" class="edge">
<title>Node1&#45;&gt;Node124</title>
<path fill="none" stroke="#63b8ff" d="M36.82,-128.65C44.57,-107.2 65.87,-55.96 101,-28.5 103.42,-26.61 106.03,-24.9 108.76,-23.37"/>
<polygon fill="#63b8ff" stroke="#63b8ff" points="110.13,-26.59 117.68,-19.15 107.14,-20.26 110.13,-26.59"/>
</g>
</g>
</svg>
