<?xml version="1.0" encoding="UTF-8" standalone="no"?>
<!DOCTYPE svg PUBLIC "-//W3C//DTD SVG 1.1//EN"
 "http://www.w3.org/Graphics/SVG/1.1/DTD/svg11.dtd">
<!-- Generated by graphviz version 12.2.1 (20241206.2353)
 -->
<!-- Title: mutt_socket_new Pages: 1 -->
<svg width="260pt" height="284pt"
 viewBox="0.00 0.00 259.75 284.25" xmlns="http://www.w3.org/2000/svg" xmlns:xlink="http://www.w3.org/1999/xlink">
<g id="graph0" class="graph" transform="scale(1 1) rotate(0) translate(4 280.25)">
<title>mutt_socket_new</title>
<!-- Node1 -->
<g id="Node000001" class="node">
<title>Node1</title>
<g id="a_Node000001"><a xlink:title="Allocate and initialise a new connection.">
<polygon fill="#999999" stroke="#666666" points="96.25,-142.25 0,-142.25 0,-120 96.25,-120 96.25,-142.25"/>
<text text-anchor="middle" x="48.12" y="-128.75" font-family="Helvetica,sans-Serif" font-size="10.00">mutt_socket_new</text>
</a>
</g>
</g>
<!-- Node2 -->
<g id="Node000002" class="node">
<title>Node2</title>
<g id="a_Node000002"><a xlink:href="gnutls_8c.html#ae6341b74ebed0751e68285e6bf379fab" target="_top" xlink:title="Set up SSL socket mulitplexor.">
<polygon fill="#fff0f0" stroke="red" points="251.75,-276.25 132.25,-276.25 132.25,-254 251.75,-254 251.75,-276.25"/>
<text text-anchor="middle" x="192" y="-262.75" font-family="Helvetica,sans-Serif" font-size="10.00">mutt_ssl_socket_setup</text>
</a>
</g>
</g>
<!-- Node1&#45;&gt;Node2 -->
<g id="edge1_Node000001_Node000002" class="edge">
<title>Node1&#45;&gt;Node2</title>
<g id="a_edge1_Node000001_Node000002"><a xlink:title=" ">
<path fill="none" stroke="#63b8ff" d="M54.48,-142.64C65.69,-165.49 93.78,-216.81 132.25,-245.12 133.8,-246.27 135.42,-247.35 137.1,-248.37"/>
<polygon fill="#63b8ff" stroke="#63b8ff" points="135.3,-251.38 145.79,-252.89 138.54,-245.17 135.3,-251.38"/>
</a>
</g>
</g>
<!-- Node1285 -->
<g id="Node001285" class="node">
<title>Node1285</title>
<g id="a_Node001285"><a xlink:href="tunnel_8c.html#a1fb9c0c719b86c3d07726f560454a5b6" target="_top" xlink:title="Sets up tunnel connection functions.">
<polygon fill="#fff0f0" stroke="red" points="245.75,-236.38 138.25,-236.38 138.25,-199.88 245.75,-199.88 245.75,-236.38"/>
<text text-anchor="start" x="146.25" y="-222.88" font-family="Helvetica,sans-Serif" font-size="10.00">mutt_tunnel_socket</text>
<text text-anchor="middle" x="192" y="-208.62" font-family="Helvetica,sans-Serif" font-size="10.00">_setup</text>
</a>
</g>
</g>
<!-- Node1&#45;&gt;Node1285 -->
<g id="edge2_Node000001_Node001285" class="edge">
<title>Node1&#45;&gt;Node1285</title>
<g id="a_edge2_Node000001_Node001285"><a xlink:title=" ">
<path fill="none" stroke="#63b8ff" d="M63.26,-142.64C79.35,-155.43 106.73,-176.24 132.25,-191.12 134.1,-192.21 136.01,-193.28 137.95,-194.33"/>
<polygon fill="#63b8ff" stroke="#63b8ff" points="136,-197.26 146.49,-198.76 139.22,-191.05 136,-197.26"/>
</a>
</g>
</g>
<!-- Node5 -->
<g id="Node000005" class="node">
<title>Node5</title>
<g id="a_Node000005"><a xlink:href="group__connection__close.html#ga7c2227bcc35105dbeab16bec4c3fe3e6" target="_top" xlink:title="Close a socket &#45; Implements Connection::close() &#45;.">
<polygon fill="white" stroke="#666666" points="239.38,-182.25 144.62,-182.25 144.62,-160 239.38,-160 239.38,-182.25"/>
<text text-anchor="middle" x="192" y="-168.75" font-family="Helvetica,sans-Serif" font-size="10.00">raw_socket_close</text>
</a>
</g>
</g>
<!-- Node1&#45;&gt;Node5 -->
<g id="edge3_Node000001_Node000005" class="edge">
<title>Node1&#45;&gt;Node5</title>
<g id="a_edge3_Node000001_Node000005"><a xlink:title=" ">
<path fill="none" stroke="#63b8ff" d="M90.16,-142.69C105.45,-147.01 123.02,-151.96 139.16,-156.51"/>
<polygon fill="#63b8ff" stroke="#63b8ff" points="138.02,-159.83 148.6,-159.17 139.92,-153.09 138.02,-159.83"/>
</a>
</g>
</g>
<!-- Node7 -->
<g id="Node000007" class="node">
<title>Node7</title>
<g id="a_Node000007"><a xlink:href="group__connection__open.html#ga62c82d391a1fbad8244061b3dacdc57b" target="_top" xlink:title="Open a socket &#45; Implements Connection::open() &#45;.">
<polygon fill="#fff0f0" stroke="red" points="239.75,-142.25 144.25,-142.25 144.25,-120 239.75,-120 239.75,-142.25"/>
<text text-anchor="middle" x="192" y="-128.75" font-family="Helvetica,sans-Serif" font-size="10.00">raw_socket_open</text>
</a>
</g>
</g>
<!-- Node1&#45;&gt;Node7 -->
<g id="edge4_Node000001_Node000007" class="edge">
<title>Node1&#45;&gt;Node7</title>
<g id="a_edge4_Node000001_Node000007"><a xlink:title=" ">
<path fill="none" stroke="#63b8ff" d="M96.37,-131.12C107.97,-131.12 120.54,-131.12 132.6,-131.12"/>
<polygon fill="#63b8ff" stroke="#63b8ff" points="132.45,-134.63 142.45,-131.13 132.45,-127.63 132.45,-134.63"/>
</a>
</g>
</g>
<!-- Node885 -->
<g id="Node000885" class="node">
<title>Node885</title>
<g id="a_Node000885"><a xlink:href="group__connection__poll.html#ga3e4473be79d3294a1be08ab03d3f7eb6" target="_top" xlink:title="Check if any data is waiting on a socket &#45; Implements Connection::poll() &#45;.">
<polygon fill="#fff0f0" stroke="red" points="236,-102.25 148,-102.25 148,-80 236,-80 236,-102.25"/>
<text text-anchor="middle" x="192" y="-88.75" font-family="Helvetica,sans-Serif" font-size="10.00">raw_socket_poll</text>
</a>
</g>
</g>
<!-- Node1&#45;&gt;Node885 -->
<g id="edge5_Node000001_Node000885" class="edge">
<title>Node1&#45;&gt;Node885</title>
<g id="a_edge5_Node000001_Node000885"><a xlink:title=" ">
<path fill="none" stroke="#63b8ff" d="M90.16,-119.56C105.45,-115.24 123.02,-110.29 139.16,-105.74"/>
<polygon fill="#63b8ff" stroke="#63b8ff" points="139.92,-109.16 148.6,-103.08 138.02,-102.42 139.92,-109.16"/>
</a>
</g>
</g>
<!-- Node890 -->
<g id="Node000890" class="node">
<title>Node890</title>
<g id="a_Node000890"><a xlink:href="group__connection__read.html#gaaba8f76cd1e6ac78b5384bd27e4c4dfb" target="_top" xlink:title="Read data from a socket &#45; Implements Connection::read() &#45;.">
<polygon fill="#fff0f0" stroke="red" points="238.25,-62.25 145.75,-62.25 145.75,-40 238.25,-40 238.25,-62.25"/>
<text text-anchor="middle" x="192" y="-48.75" font-family="Helvetica,sans-Serif" font-size="10.00">raw_socket_read</text>
</a>
</g>
</g>
<!-- Node1&#45;&gt;Node890 -->
<g id="edge6_Node000001_Node000890" class="edge">
<title>Node1&#45;&gt;Node890</title>
<g id="a_edge6_Node000001_Node000890"><a xlink:title=" ">
<path fill="none" stroke="#63b8ff" d="M62.42,-119.59C78.19,-106.4 105.68,-84.84 132.25,-71.12 135.12,-69.64 138.13,-68.23 141.2,-66.9"/>
<polygon fill="#63b8ff" stroke="#63b8ff" points="142.38,-70.19 150.36,-63.22 139.78,-63.7 142.38,-70.19"/>
</a>
</g>
</g>
<!-- Node891 -->
<g id="Node000891" class="node">
<title>Node891</title>
<g id="a_Node000891"><a xlink:href="group__connection__write.html#ga79bb2278f55b18858b3580d8bdf53142" target="_top" xlink:title="Write data to a socket &#45; Implements Connection::write() &#45;.">
<polygon fill="#fff0f0" stroke="red" points="239.75,-22.25 144.25,-22.25 144.25,0 239.75,0 239.75,-22.25"/>
<text text-anchor="middle" x="192" y="-8.75" font-family="Helvetica,sans-Serif" font-size="10.00">raw_socket_write</text>
</a>
</g>
</g>
<!-- Node1&#45;&gt;Node891 -->
<g id="edge7_Node000001_Node000891" class="edge">
<title>Node1&#45;&gt;Node891</title>
<g id="a_edge7_Node000001_Node000891"><a xlink:title=" ">
<path fill="none" stroke="#63b8ff" d="M55.61,-119.79C67.94,-99.2 96.73,-55.57 132.25,-31.12 134.05,-29.89 135.93,-28.72 137.87,-27.62"/>
<polygon fill="#63b8ff" stroke="#63b8ff" points="139.15,-30.89 146.58,-23.34 136.07,-24.61 139.15,-30.89"/>
</a>
</g>
</g>
</g>
</svg>
