<?xml version="1.0" encoding="UTF-8" standalone="no"?>
<!DOCTYPE svg PUBLIC "-//W3C//DTD SVG 1.1//EN"
 "http://www.w3.org/Graphics/SVG/1.1/DTD/svg11.dtd">
<!-- Generated by graphviz version 2.44.0 (0)
 -->
<!-- Title: menu_status_line Pages: 1 -->
<svg width="377pt" height="65pt"
 viewBox="0.00 0.00 377.00 65.00" xmlns="http://www.w3.org/2000/svg" xmlns:xlink="http://www.w3.org/1999/xlink">
<g id="graph0" class="graph" transform="scale(1 1) rotate(0) translate(4 61)">
<title>menu_status_line</title>
<polygon fill="white" stroke="transparent" points="-4,4 -4,-61 373,-61 373,4 -4,4"/>
<!-- Node1 -->
<g id="node1" class="node">
<title>Node1</title>
<g id="a_node1"><a xlink:title="Create the status line.">
<polygon fill="#bfbfbf" stroke="black" points="0,-19.5 0,-38.5 93,-38.5 93,-19.5 0,-19.5"/>
<text text-anchor="middle" x="46.5" y="-26.5" font-family="Helvetica" font-size="10.00">menu_status_line</text>
</a>
</g>
</g>
<!-- Node2 -->
<g id="node2" class="node">
<title>Node2</title>
<g id="a_node2"><a xlink:href="muttlib_8c.html#a8972094c1e995739c8b072c8be3ce453" target="_top" xlink:title="Expand expandos (x) in a string.">
<polygon fill="white" stroke="red" points="258,-19.5 258,-38.5 369,-38.5 369,-19.5 258,-19.5"/>
<text text-anchor="middle" x="313.5" y="-26.5" font-family="Helvetica" font-size="10.00">mutt_expando_format</text>
</a>
</g>
</g>
<!-- Node1&#45;&gt;Node2 -->
<g id="edge1" class="edge">
<title>Node1&#45;&gt;Node2</title>
<path fill="none" stroke="midnightblue" d="M93.06,-29C135.66,-29 199.73,-29 247.65,-29"/>
<polygon fill="midnightblue" stroke="midnightblue" points="247.93,-32.5 257.93,-29 247.93,-25.5 247.93,-32.5"/>
</g>
<!-- Node199 -->
<g id="node3" class="node">
<title>Node199</title>
<g id="a_node3"><a xlink:href="status_8c.html#a687a918a49621a9f1bef52801def2308" target="_top" xlink:title="Create the status bar string &#45; Implements format_t.">
<polygon fill="white" stroke="red" points="129,-0.5 129,-19.5 222,-19.5 222,-0.5 129,-0.5"/>
<text text-anchor="middle" x="175.5" y="-7.5" font-family="Helvetica" font-size="10.00">status_format_str</text>
</a>
</g>
</g>
<!-- Node1&#45;&gt;Node199 -->
<g id="edge3" class="edge">
<title>Node1&#45;&gt;Node199</title>
<path fill="none" stroke="midnightblue" d="M93.35,-22.14C101.53,-20.92 110.14,-19.63 118.57,-18.37"/>
<polygon fill="midnightblue" stroke="midnightblue" points="119.35,-21.79 128.72,-16.85 118.31,-14.87 119.35,-21.79"/>
</g>
<!-- Node2&#45;&gt;Node2 -->
<g id="edge2" class="edge">
<title>Node2&#45;&gt;Node2</title>
<path fill="none" stroke="midnightblue" d="M292.23,-38.76C281.88,-47.57 288.97,-57 313.5,-57 329.21,-57 337.77,-53.13 339.17,-48.03"/>
<polygon fill="midnightblue" stroke="midnightblue" points="342.22,-46.29 334.77,-38.76 335.89,-49.29 342.22,-46.29"/>
</g>
<!-- Node199&#45;&gt;Node2 -->
<g id="edge4" class="edge">
<title>Node199&#45;&gt;Node2</title>
<path fill="none" stroke="midnightblue" d="M222.16,-16.38C230.37,-17.53 239.07,-18.74 247.7,-19.95"/>
<polygon fill="midnightblue" stroke="midnightblue" points="247.37,-23.44 257.76,-21.35 248.34,-16.5 247.37,-23.44"/>
</g>
</g>
</svg>
