<?xml version="1.0" encoding="UTF-8" standalone="no"?>
<!DOCTYPE svg PUBLIC "-//W3C//DTD SVG 1.1//EN"
 "http://www.w3.org/Graphics/SVG/1.1/DTD/svg11.dtd">
<!-- Generated by graphviz version 2.40.1 (20161225.0304)
 -->
<!-- Title: test/store/common.h Pages: 1 -->
<svg width="150pt" height="84pt"
 viewBox="0.00 0.00 150.00 84.00" xmlns="http://www.w3.org/2000/svg" xmlns:xlink="http://www.w3.org/1999/xlink">
<g id="graph0" class="graph" transform="scale(1 1) rotate(0) translate(4 80)">
<title>test/store/common.h</title>
<polygon fill="#ffffff" stroke="transparent" points="-4,4 -4,-80 146,-80 146,4 -4,4"/>
<!-- Node0 -->
<g id="node1" class="node">
<title>Node0</title>
<polygon fill="#bfbfbf" stroke="#000000" points="12,-56.5 12,-75.5 130,-75.5 130,-56.5 12,-56.5"/>
<text text-anchor="middle" x="71" y="-63.5" font-family="Helvetica,sans-Serif" font-size="10.00" fill="#000000">test/store/common.h</text>
</g>
<!-- Node1 -->
<g id="node2" class="node">
<title>Node1</title>
<g id="a_node2"><a xlink:href="acutest_8h.html" target="_top" xlink:title="acutest.h">
<polygon fill="#ffffff" stroke="#ff0000" points="0,-.5 0,-19.5 62,-19.5 62,-.5 0,-.5"/>
<text text-anchor="middle" x="31" y="-7.5" font-family="Helvetica,sans-Serif" font-size="10.00" fill="#000000">acutest.h</text>
</a>
</g>
</g>
<!-- Node0&#45;&gt;Node1 -->
<g id="edge1" class="edge">
<title>Node0&#45;&gt;Node1</title>
<path fill="none" stroke="#191970" d="M64.0325,-56.2455C58.4689,-48.4564 50.522,-37.3308 43.8171,-27.9439"/>
<polygon fill="#191970" stroke="#191970" points="46.5481,-25.7457 37.8876,-19.6427 40.852,-29.8144 46.5481,-25.7457"/>
</g>
<!-- Node8 -->
<g id="node3" class="node">
<title>Node8</title>
<polygon fill="#ffffff" stroke="#bfbfbf" points="80,-.5 80,-19.5 142,-19.5 142,-.5 80,-.5"/>
<text text-anchor="middle" x="111" y="-7.5" font-family="Helvetica,sans-Serif" font-size="10.00" fill="#000000">stdbool.h</text>
</g>
<!-- Node0&#45;&gt;Node8 -->
<g id="edge2" class="edge">
<title>Node0&#45;&gt;Node8</title>
<path fill="none" stroke="#191970" d="M77.9675,-56.2455C83.5311,-48.4564 91.478,-37.3308 98.1829,-27.9439"/>
<polygon fill="#191970" stroke="#191970" points="101.148,-29.8144 104.1124,-19.6427 95.4519,-25.7457 101.148,-29.8144"/>
</g>
</g>
</svg>
