<?xml version="1.0" encoding="UTF-8" standalone="no"?>
<!DOCTYPE svg PUBLIC "-//W3C//DTD SVG 1.1//EN"
 "http://www.w3.org/Graphics/SVG/1.1/DTD/svg11.dtd">
<!-- Generated by graphviz version 12.2.1 (20241206.2353)
 -->
<!-- Title: mutt_istrn_equal Pages: 1 -->
<svg width="575pt" height="663pt"
 viewBox="0.00 0.00 574.50 663.05" xmlns="http://www.w3.org/2000/svg" xmlns:xlink="http://www.w3.org/1999/xlink">
<g id="graph0" class="graph" transform="scale(1 1) rotate(0) translate(4 659.05)">
<title>mutt_istrn_equal</title>
<!-- Node1 -->
<g id="Node000001" class="node">
<title>Node1</title>
<g id="a_Node000001"><a xlink:title="Check for equality of two strings ignoring case (to a maximum), safely.">
<polygon fill="#999999" stroke="#666666" points="566.5,-340.25 472.5,-340.25 472.5,-318 566.5,-318 566.5,-340.25"/>
<text text-anchor="middle" x="519.5" y="-326.75" font-family="Helvetica,sans-Serif" font-size="10.00">mutt_istrn_equal</text>
</a>
</g>
</g>
<!-- Node2 -->
<g id="Node000002" class="node">
<title>Node2</title>
<g id="a_Node000002"><a xlink:href="group__handler__api.html#ga4ff5374eaa24ed80f864aa4caeb54a46" target="_top" xlink:title="Handler for multipart alternative emails &#45; Implements handler_t &#45;.">
<polygon fill="#fff0f0" stroke="red" points="106.75,-527.25 0,-527.25 0,-505 106.75,-505 106.75,-527.25"/>
<text text-anchor="middle" x="53.38" y="-513.75" font-family="Helvetica,sans-Serif" font-size="10.00">alternative_handler</text>
</a>
</g>
</g>
<!-- Node1&#45;&gt;Node2 -->
<g id="edge1_Node000001_Node000002" class="edge">
<title>Node1&#45;&gt;Node2</title>
<g id="a_edge1_Node000001_Node000002"><a xlink:title=" ">
<path fill="none" stroke="#63b8ff" d="M515.72,-351.9C507.46,-415.29 480.87,-591.37 436.5,-625.12 315.98,-716.8 121.2,-571.13 68.11,-527.73"/>
<polygon fill="#63b8ff" stroke="#63b8ff" points="519.19,-352.34 516.97,-341.98 512.25,-351.46 519.19,-352.34"/>
</a>
</g>
</g>
<!-- Node766 -->
<g id="Node000766" class="node">
<title>Node766</title>
<g id="a_Node000766"><a xlink:href="mutt_2date_8c.html#a6e3d63ce76dd4fc2a64fd8150f059ebb" target="_top" xlink:title="Look up a timezone.">
<polygon fill="#fff0f0" stroke="red" points="392.25,-616.25 345.5,-616.25 345.5,-594 392.25,-594 392.25,-616.25"/>
<text text-anchor="middle" x="368.88" y="-602.75" font-family="Helvetica,sans-Serif" font-size="10.00">find_tz</text>
</a>
</g>
</g>
<!-- Node1&#45;&gt;Node766 -->
<g id="edge2_Node000001_Node000766" class="edge">
<title>Node1&#45;&gt;Node766</title>
<g id="a_edge2_Node000001_Node000766"><a xlink:title=" ">
<path fill="none" stroke="#63b8ff" d="M517.44,-351.97C513.97,-400.48 499.23,-514.63 436.5,-580.12 424.96,-592.17 407.07,-598.46 392.73,-601.72"/>
<polygon fill="#63b8ff" stroke="#63b8ff" points="520.92,-352.33 518.03,-342.14 513.94,-351.91 520.92,-352.33"/>
</a>
</g>
</g>
<!-- Node781 -->
<g id="Node000781" class="node">
<title>Node781</title>
<g id="a_Node000781"><a xlink:href="get_8c.html#a1f157e0ebacb030d667f47135a76210a" target="_top" xlink:title="Parse and queue a &#39;push&#39; command.">
<polygon fill="#fff0f0" stroke="red" points="265.25,-529.38 142.75,-529.38 142.75,-492.88 265.25,-492.88 265.25,-529.38"/>
<text text-anchor="start" x="150.75" y="-515.88" font-family="Helvetica,sans-Serif" font-size="10.00">generic_tokenize_push</text>
<text text-anchor="middle" x="204" y="-501.62" font-family="Helvetica,sans-Serif" font-size="10.00">_string</text>
</a>
</g>
</g>
<!-- Node1&#45;&gt;Node781 -->
<g id="edge3_Node000001_Node000781" class="edge">
<title>Node1&#45;&gt;Node781</title>
<g id="a_edge3_Node000001_Node000781"><a xlink:title=" ">
<path fill="none" stroke="#63b8ff" d="M517.84,-351.96C515.12,-398.12 501.69,-502 436.5,-547.12 376.3,-588.8 286.31,-554.07 238.18,-529.78"/>
<polygon fill="#63b8ff" stroke="#63b8ff" points="521.33,-352.22 518.29,-342.07 514.34,-351.91 521.33,-352.22"/>
</a>
</g>
</g>
<!-- Node786 -->
<g id="Node000786" class="node">
<title>Node786</title>
<g id="a_Node000786"><a xlink:href="email_2email_8c.html#afe01890a3071413e9cc8e41f159720ad" target="_top" xlink:title="Find a header, matching on its field, in a list of headers.">
<polygon fill="#fff0f0" stroke="red" points="405,-538.25 332.75,-538.25 332.75,-516 405,-516 405,-538.25"/>
<text text-anchor="middle" x="368.88" y="-524.75" font-family="Helvetica,sans-Serif" font-size="10.00">header_find</text>
</a>
</g>
</g>
<!-- Node1&#45;&gt;Node786 -->
<g id="edge4_Node000001_Node000786" class="edge">
<title>Node1&#45;&gt;Node786</title>
<g id="a_edge4_Node000001_Node000786"><a xlink:title=" ">
<path fill="none" stroke="#63b8ff" d="M514.29,-351.93C506.12,-389.75 484.5,-465.42 436.5,-507.12 427.75,-514.73 416.19,-519.44 405.16,-522.36"/>
<polygon fill="#63b8ff" stroke="#63b8ff" points="517.72,-352.63 516.27,-342.14 510.86,-351.25 517.72,-352.63"/>
</a>
</g>
</g>
<!-- Node790 -->
<g id="Node000790" class="node">
<title>Node790</title>
<g id="a_Node000790"><a xlink:href="imap_8c.html#ad998b83df59b588e3643ec0e1b41af3d" target="_top" xlink:title="Does the flag exist in the list.">
<polygon fill="#fff0f0" stroke="red" points="409.12,-498.25 328.62,-498.25 328.62,-476 409.12,-476 409.12,-498.25"/>
<text text-anchor="middle" x="368.88" y="-484.75" font-family="Helvetica,sans-Serif" font-size="10.00">imap_has_flag</text>
</a>
</g>
</g>
<!-- Node1&#45;&gt;Node790 -->
<g id="edge5_Node000001_Node000790" class="edge">
<title>Node1&#45;&gt;Node790</title>
<g id="a_edge5_Node000001_Node000790"><a xlink:title=" ">
<path fill="none" stroke="#63b8ff" d="M511.08,-351.53C499.81,-382.14 475.47,-436.68 436.5,-467.12 428.7,-473.22 419.06,-477.46 409.56,-480.42"/>
<polygon fill="#63b8ff" stroke="#63b8ff" points="514.37,-352.75 514.38,-342.15 507.76,-350.42 514.37,-352.75"/>
</a>
</g>
</g>
<!-- Node213 -->
<g id="Node000213" class="node">
<title>Node213</title>
<g id="a_Node000213"><a xlink:href="handler_8c.html#a09f27e2821153040ea4cad0b9ade6153" target="_top" xlink:title="Should email body be filtered by mailcap.">
<polygon fill="#fff0f0" stroke="red" points="238.25,-400.25 169.75,-400.25 169.75,-378 238.25,-378 238.25,-400.25"/>
<text text-anchor="middle" x="204" y="-386.75" font-family="Helvetica,sans-Serif" font-size="10.00">is_autoview</text>
</a>
</g>
</g>
<!-- Node1&#45;&gt;Node213 -->
<g id="edge6_Node000001_Node000213" class="edge">
<title>Node1&#45;&gt;Node213</title>
<g id="a_edge6_Node000001_Node000213"><a xlink:title=" ">
<path fill="none" stroke="#63b8ff" d="M499.48,-348.57C484.04,-362.87 460.89,-381.16 436.5,-389.12 369.07,-411.16 284.58,-402.81 238.6,-395.5"/>
<polygon fill="#63b8ff" stroke="#63b8ff" points="501.77,-351.22 506.54,-341.76 496.91,-346.18 501.77,-351.22"/>
</a>
</g>
</g>
<!-- Node792 -->
<g id="Node000792" class="node">
<title>Node792</title>
<g id="a_Node000792"><a xlink:href="handler_8c.html#af5f495f5053bf85394ccb3499315d2fb" target="_top" xlink:title="Metamail compatibility: should the attachment be autoviewed?">
<polygon fill="white" stroke="#666666" points="405,-380.25 332.75,-380.25 332.75,-358 405,-358 405,-380.25"/>
<text text-anchor="middle" x="368.88" y="-366.75" font-family="Helvetica,sans-Serif" font-size="10.00">is_mmnoask</text>
</a>
</g>
</g>
<!-- Node1&#45;&gt;Node792 -->
<g id="edge8_Node000001_Node000792" class="edge">
<title>Node1&#45;&gt;Node792</title>
<g id="a_edge8_Node000001_Node000792"><a xlink:title=" ">
<path fill="none" stroke="#63b8ff" d="M464.49,-343.66C444.76,-348.97 422.95,-354.84 405.26,-359.6"/>
<polygon fill="#63b8ff" stroke="#63b8ff" points="465.3,-347.07 474.05,-341.09 463.48,-340.31 465.3,-347.07"/>
</a>
</g>
</g>
<!-- Node793 -->
<g id="Node000793" class="node">
<title>Node793</title>
<g id="a_Node000793"><a xlink:href="key_2menu_8c.html#a18ae8a0c8776ebaa9867a112b4f5a4c3" target="_top" xlink:title="Get the function by its name.">
<polygon fill="#fff0f0" stroke="red" points="402.38,-458.25 335.38,-458.25 335.38,-436 402.38,-436 402.38,-458.25"/>
<text text-anchor="middle" x="368.88" y="-444.75" font-family="Helvetica,sans-Serif" font-size="10.00">km_get_op</text>
</a>
</g>
</g>
<!-- Node1&#45;&gt;Node793 -->
<g id="edge10_Node000001_Node000793" class="edge">
<title>Node1&#45;&gt;Node793</title>
<g id="a_edge10_Node000001_Node000793"><a xlink:title=" ">
<path fill="none" stroke="#63b8ff" d="M504.95,-349.7C490.28,-370.52 465.13,-402.39 436.5,-422.12 426.33,-429.14 413.94,-434.49 402.61,-438.4"/>
<polygon fill="#63b8ff" stroke="#63b8ff" points="507.65,-351.94 510.41,-341.71 501.88,-347.98 507.65,-351.94"/>
</a>
</g>
</g>
<!-- Node795 -->
<g id="Node000795" class="node">
<title>Node795</title>
<g id="a_Node000795"><a xlink:href="mutt_2charset_8c.html#aea5561f6489bbbbdfcdfb29e6f22b688" target="_top" xlink:title="Are the names of two character sets equivalent?">
<polygon fill="white" stroke="#666666" points="415.12,-340.25 322.62,-340.25 322.62,-318 415.12,-318 415.12,-340.25"/>
<text text-anchor="middle" x="368.88" y="-326.75" font-family="Helvetica,sans-Serif" font-size="10.00">mutt_ch_chscmp</text>
</a>
</g>
</g>
<!-- Node1&#45;&gt;Node795 -->
<g id="edge12_Node000001_Node000795" class="edge">
<title>Node1&#45;&gt;Node795</title>
<g id="a_edge12_Node000001_Node000795"><a xlink:title=" ">
<path fill="none" stroke="#63b8ff" d="M461,-329.12C445.94,-329.12 429.9,-329.12 415.55,-329.12"/>
<polygon fill="#63b8ff" stroke="#63b8ff" points="460.78,-332.63 470.78,-329.13 460.78,-325.63 460.78,-332.63"/>
</a>
</g>
</g>
<!-- Node796 -->
<g id="Node000796" class="node">
<title>Node796</title>
<g id="a_Node000796"><a xlink:href="mutt__attach_8c.html#a1a97d711180c816108d8866ef7b120cc" target="_top" xlink:title="Update the mime type.">
<polygon fill="#fff0f0" stroke="red" points="430.12,-300.25 307.62,-300.25 307.62,-278 430.12,-278 430.12,-300.25"/>
<text text-anchor="middle" x="368.88" y="-286.75" font-family="Helvetica,sans-Serif" font-size="10.00">mutt_check_lookup_list</text>
</a>
</g>
</g>
<!-- Node1&#45;&gt;Node796 -->
<g id="edge13_Node000001_Node000796" class="edge">
<title>Node1&#45;&gt;Node796</title>
<g id="a_edge13_Node000001_Node000796"><a xlink:title=" ">
<path fill="none" stroke="#63b8ff" d="M464.62,-314.63C447.66,-310.06 429.14,-305.08 413.02,-300.74"/>
<polygon fill="#63b8ff" stroke="#63b8ff" points="463.48,-317.94 474.05,-317.16 465.3,-311.18 463.48,-317.94"/>
</a>
</g>
</g>
<!-- Node797 -->
<g id="Node000797" class="node">
<title>Node797</title>
<g id="a_Node000797"><a xlink:href="copy_8c.html#a52e9f9a52a91efbaeca673868cfc8b93" target="_top" xlink:title="Copy header from one file to another.">
<polygon fill="#fff0f0" stroke="red" points="411.75,-260.25 326,-260.25 326,-238 411.75,-238 411.75,-260.25"/>
<text text-anchor="middle" x="368.88" y="-246.75" font-family="Helvetica,sans-Serif" font-size="10.00">mutt_copy_hdr</text>
</a>
</g>
</g>
<!-- Node1&#45;&gt;Node797 -->
<g id="edge15_Node000001_Node000797" class="edge">
<title>Node1&#45;&gt;Node797</title>
<g id="a_edge15_Node000001_Node000797"><a xlink:title=" ">
<path fill="none" stroke="#63b8ff" d="M497.3,-310.46C481.47,-297.35 458.81,-280.23 436.5,-269.12 428.82,-265.31 420.28,-262.07 411.94,-259.38"/>
<polygon fill="#63b8ff" stroke="#63b8ff" points="494.73,-312.87 504.62,-316.67 499.25,-307.53 494.73,-312.87"/>
</a>
</g>
</g>
<!-- Node800 -->
<g id="Node000800" class="node">
<title>Node800</title>
<g id="a_Node000800"><a xlink:href="mapping_8c.html#a346975e1ede6cea364b532b3a5a0e488" target="_top" xlink:title="Lookup the constant for a string.">
<polygon fill="#fff0f0" stroke="red" points="430.5,-220.25 307.25,-220.25 307.25,-198 430.5,-198 430.5,-220.25"/>
<text text-anchor="middle" x="368.88" y="-206.75" font-family="Helvetica,sans-Serif" font-size="10.00">mutt_map_get_value_n</text>
</a>
</g>
</g>
<!-- Node1&#45;&gt;Node800 -->
<g id="edge16_Node000001_Node000800" class="edge">
<title>Node1&#45;&gt;Node800</title>
<g id="a_edge16_Node000001_Node000800"><a xlink:title=" ">
<path fill="none" stroke="#63b8ff" d="M506.44,-307.94C492.45,-285.22 467.31,-249.65 436.5,-229.12 431.48,-225.78 425.87,-222.97 420.11,-220.63"/>
<polygon fill="#63b8ff" stroke="#63b8ff" points="503.33,-309.56 511.45,-316.36 509.34,-305.97 503.33,-309.56"/>
</a>
</g>
</g>
<!-- Node878 -->
<g id="Node000878" class="node">
<title>Node878</title>
<g id="a_Node000878"><a xlink:href="email_2parse_8c.html#a1c0bcb79c2ff930b4131a1ede5828762" target="_top" xlink:title="Parse a content type.">
<polygon fill="#fff0f0" stroke="red" points="436.5,-180.25 301.25,-180.25 301.25,-158 436.5,-158 436.5,-180.25"/>
<text text-anchor="middle" x="368.88" y="-166.75" font-family="Helvetica,sans-Serif" font-size="10.00">mutt_parse_content_type</text>
</a>
</g>
</g>
<!-- Node1&#45;&gt;Node878 -->
<g id="edge17_Node000001_Node000878" class="edge">
<title>Node1&#45;&gt;Node878</title>
<g id="a_edge17_Node000001_Node000878"><a xlink:title=" ">
<path fill="none" stroke="#63b8ff" d="M511.49,-307.27C500.47,-276.39 476.16,-220.31 436.5,-189.12 432.23,-185.77 427.4,-182.97 422.34,-180.64"/>
<polygon fill="#63b8ff" stroke="#63b8ff" points="508.04,-307.99 514.58,-316.33 514.66,-305.73 508.04,-307.99"/>
</a>
</g>
</g>
<!-- Node880 -->
<g id="Node000880" class="node">
<title>Node880</title>
<g id="a_Node000880"><a xlink:href="string2_8h.html#a51804523442c072745bf8cdef6a43938" target="_top" xlink:title=" ">
<polygon fill="white" stroke="#666666" points="252.12,-122.25 155.88,-122.25 155.88,-100 252.12,-100 252.12,-122.25"/>
<text text-anchor="middle" x="204" y="-108.75" font-family="Helvetica,sans-Serif" font-size="10.00">mutt_str_asprintf</text>
</a>
</g>
</g>
<!-- Node1&#45;&gt;Node880 -->
<g id="edge18_Node000001_Node000880" class="edge">
<title>Node1&#45;&gt;Node880</title>
<g id="a_edge18_Node000001_Node000880"><a xlink:title=" ">
<path fill="none" stroke="#63b8ff" d="M515.14,-306.44C508.09,-267.53 487.94,-188.47 436.5,-149.12 408.36,-127.6 311.52,-117.78 252.38,-113.7"/>
<polygon fill="#63b8ff" stroke="#63b8ff" points="511.64,-306.78 516.74,-316.07 518.55,-305.63 511.64,-306.78"/>
</a>
</g>
</g>
<!-- Node881 -->
<g id="Node000881" class="node">
<title>Node881</title>
<g id="a_Node000881"><a xlink:href="group__sort__api.html#ga4b21fa92aed3a2a6ebcee6b35b17dc50" target="_top" xlink:title="Do two folders share the same path and one is an inbox &#45;.">
<polygon fill="#fff0f0" stroke="red" points="423.75,-102.25 314,-102.25 314,-80 423.75,-80 423.75,-102.25"/>
<text text-anchor="middle" x="368.88" y="-88.75" font-family="Helvetica,sans-Serif" font-size="10.00">mutt_str_inbox_cmp</text>
</a>
</g>
</g>
<!-- Node1&#45;&gt;Node881 -->
<g id="edge19_Node000001_Node000881" class="edge">
<title>Node1&#45;&gt;Node881</title>
<g id="a_edge19_Node000001_Node000881"><a xlink:title=" ">
<path fill="none" stroke="#63b8ff" d="M515.87,-306.25C509.74,-263.24 490.68,-169.84 436.5,-116.12 430.8,-110.47 423.7,-106.08 416.27,-102.67"/>
<polygon fill="#63b8ff" stroke="#63b8ff" points="512.4,-306.69 517.16,-316.15 519.34,-305.78 512.4,-306.69"/>
</a>
</g>
</g>
<!-- Node892 -->
<g id="Node000892" class="node">
<title>Node892</title>
<g id="a_Node000892"><a xlink:href="group__command__parse.html#ga3e2398c238e8a9876f28bc2754c50628" target="_top" xlink:title="Parse the &#39;unmy_hdr&#39; command &#45; Implements Command::parse() &#45;.">
<polygon fill="white" stroke="#666666" points="415.88,-62.25 321.88,-62.25 321.88,-40 415.88,-40 415.88,-62.25"/>
<text text-anchor="middle" x="368.88" y="-48.75" font-family="Helvetica,sans-Serif" font-size="10.00">parse_unmy_hdr</text>
</a>
</g>
</g>
<!-- Node1&#45;&gt;Node892 -->
<g id="edge21_Node000001_Node000892" class="edge">
<title>Node1&#45;&gt;Node892</title>
<g id="a_edge21_Node000001_Node000892"><a xlink:title=" ">
<path fill="none" stroke="#63b8ff" d="M518.04,-306.33C515.76,-256.43 503.22,-136.78 436.5,-71.12 430.82,-65.53 423.64,-61.5 416.11,-58.58"/>
<polygon fill="#63b8ff" stroke="#63b8ff" points="514.53,-306.3 518.37,-316.18 521.53,-306.06 514.53,-306.3"/>
</a>
</g>
</g>
<!-- Node209 -->
<g id="Node000209" class="node">
<title>Node209</title>
<g id="a_Node000209"><a xlink:href="mailcap_8c.html#aecd8b2f9408b2f6863746b2a319d2a87" target="_top" xlink:title="Parse a mailcap entry.">
<polygon fill="#fff0f0" stroke="red" points="430.12,-22.25 307.62,-22.25 307.62,0 430.12,0 430.12,-22.25"/>
<text text-anchor="middle" x="368.88" y="-8.75" font-family="Helvetica,sans-Serif" font-size="10.00">rfc1524_mailcap_parse</text>
</a>
</g>
</g>
<!-- Node1&#45;&gt;Node209 -->
<g id="edge22_Node000001_Node000209" class="edge">
<title>Node1&#45;&gt;Node209</title>
<g id="a_edge22_Node000001_Node000209"><a xlink:title=" ">
<path fill="none" stroke="#63b8ff" d="M519.2,-306.26C519.6,-251.01 512.69,-109.1 436.5,-31.12 433.21,-27.76 429.37,-24.95 425.24,-22.61"/>
<polygon fill="#63b8ff" stroke="#63b8ff" points="515.7,-305.94 519.03,-316 522.7,-306.07 515.7,-305.94"/>
</a>
</g>
</g>
<!-- Node213&#45;&gt;Node2 -->
<g id="edge7_Node000213_Node000002" class="edge">
<title>Node213&#45;&gt;Node2</title>
<g id="a_edge7_Node000213_Node000002"><a xlink:title=" ">
<path fill="none" stroke="#63b8ff" d="M181.08,-407.86C149.8,-434.58 93.33,-482.83 67.69,-504.75"/>
<polygon fill="#63b8ff" stroke="#63b8ff" points="183.07,-410.76 188.4,-401.6 178.52,-405.44 183.07,-410.76"/>
</a>
</g>
</g>
<!-- Node792&#45;&gt;Node213 -->
<g id="edge9_Node000792_Node000213" class="edge">
<title>Node792&#45;&gt;Node213</title>
<g id="a_edge9_Node000792_Node000213"><a xlink:title=" ">
<path fill="none" stroke="#63b8ff" d="M321.26,-374.85C294.88,-378.09 262.49,-382.07 238.6,-385"/>
<polygon fill="#63b8ff" stroke="#63b8ff" points="321.53,-378.34 331.03,-373.65 320.68,-371.39 321.53,-378.34"/>
</a>
</g>
</g>
<!-- Node793&#45;&gt;Node781 -->
<g id="edge11_Node000793_Node000781" class="edge">
<title>Node793&#45;&gt;Node781</title>
<g id="a_edge11_Node000793_Node000781"><a xlink:title=" ">
<path fill="none" stroke="#63b8ff" d="M324.04,-459.35C316.39,-461.75 308.54,-464.38 301.25,-467.12 281.48,-474.57 260.05,-484.21 242.44,-492.56"/>
<polygon fill="#63b8ff" stroke="#63b8ff" points="325.04,-462.7 333.6,-456.45 323.01,-456 325.04,-462.7"/>
</a>
</g>
</g>
<!-- Node796&#45;&gt;Node213 -->
<g id="edge14_Node000796_Node000213" class="edge">
<title>Node796&#45;&gt;Node213</title>
<g id="a_edge14_Node000796_Node000213"><a xlink:title=" ">
<path fill="none" stroke="#63b8ff" d="M310.12,-304.85C307.07,-306.17 304.09,-307.6 301.25,-309.12 266.4,-327.83 232.46,-360.37 215.74,-377.62"/>
<polygon fill="#63b8ff" stroke="#63b8ff" points="311.25,-308.16 319.27,-301.24 308.69,-301.65 311.25,-308.16"/>
</a>
</g>
</g>
<!-- Node881&#45;&gt;Node880 -->
<g id="edge20_Node000881_Node000880" class="edge">
<title>Node881&#45;&gt;Node880</title>
<g id="a_edge20_Node000881_Node000880"><a xlink:title=" ">
<path fill="none" stroke="#63b8ff" d="M302.28,-99.18C285.61,-101.23 268.01,-103.39 252.44,-105.3"/>
<polygon fill="#63b8ff" stroke="#63b8ff" points="302.64,-102.66 312.14,-97.97 301.79,-95.71 302.64,-102.66"/>
</a>
</g>
</g>
</g>
</svg>
