<?xml version="1.0" encoding="UTF-8" standalone="no"?>
<!DOCTYPE svg PUBLIC "-//W3C//DTD SVG 1.1//EN"
 "http://www.w3.org/Graphics/SVG/1.1/DTD/svg11.dtd">
<!-- Generated by graphviz version 2.40.1 (20161225.0304)
 -->
<!-- Title: AliasMenuData Pages: 1 -->
<svg width="141pt" height="152pt"
 viewBox="0.00 0.00 141.00 152.00" xmlns="http://www.w3.org/2000/svg" xmlns:xlink="http://www.w3.org/1999/xlink">
<g id="graph0" class="graph" transform="scale(1 1) rotate(0) translate(4 148)">
<title>AliasMenuData</title>
<polygon fill="#ffffff" stroke="transparent" points="-4,4 -4,-148 137,-148 137,4 -4,4"/>
<!-- Node2 -->
<g id="node1" class="node">
<title>Node2</title>
<polygon fill="#bfbfbf" stroke="#000000" points="0,-.5 0,-19.5 90,-19.5 90,-.5 0,-.5"/>
<text text-anchor="middle" x="45" y="-7.5" font-family="Helvetica,sans-Serif" font-size="10.00" fill="#000000">AliasMenuData</text>
</g>
<!-- Node3 -->
<g id="node2" class="node">
<title>Node3</title>
<g id="a_node2"><a xlink:href="structMenu.html" target="_top" xlink:title="GUI selectable list of items. ">
<polygon fill="#ffffff" stroke="#ff0000" points="63.5,-57.5 63.5,-76.5 106.5,-76.5 106.5,-57.5 63.5,-57.5"/>
<text text-anchor="middle" x="85" y="-64.5" font-family="Helvetica,sans-Serif" font-size="10.00" fill="#000000">Menu</text>
</a>
</g>
</g>
<!-- Node3&#45;&gt;Node2 -->
<g id="edge1" class="edge">
<title>Node3&#45;&gt;Node2</title>
<path fill="none" stroke="#191970" d="M72.4044,-49.0513C65.54,-39.2695 57.3205,-27.5567 51.6852,-19.5265"/>
<polygon fill="#191970" stroke="#191970" points="69.6053,-51.1556 78.2145,-57.3307 75.3352,-47.1346 69.6053,-51.1556"/>
</g>
<!-- Node8 -->
<g id="node3" class="node">
<title>Node8</title>
<g id="a_node3"><a xlink:href="structConfigSubset.html" target="_top" xlink:title="A set of inherited config items. ">
<polygon fill="#ffffff" stroke="#ff0000" points="0,-124.5 0,-143.5 80,-143.5 80,-124.5 0,-124.5"/>
<text text-anchor="middle" x="40" y="-131.5" font-family="Helvetica,sans-Serif" font-size="10.00" fill="#000000">ConfigSubset</text>
</a>
</g>
</g>
<!-- Node8&#45;&gt;Node2 -->
<g id="edge4" class="edge">
<title>Node8&#45;&gt;Node2</title>
<path fill="none" stroke="#9a32cd" stroke-dasharray="5,2" d="M35.9053,-114.4829C33.1935,-98.8938 30.5493,-76.5053 33,-57 34.6588,-43.7979 38.841,-28.9889 41.8,-19.5854"/>
<polygon fill="#9a32cd" stroke="#9a32cd" points="32.5037,-115.3296 37.82,-124.4941 39.3791,-114.0146 32.5037,-115.3296"/>
<text text-anchor="middle" x="43.5" y="-64.5" font-family="Helvetica,sans-Serif" font-size="10.00" fill="#000000"> sub</text>
</g>
<!-- Node8&#45;&gt;Node3 -->
<g id="edge2" class="edge">
<title>Node8&#45;&gt;Node3</title>
<path fill="none" stroke="#9a32cd" stroke-dasharray="5,2" d="M52.1028,-115.9803C60.6202,-103.2989 71.6857,-86.8235 78.5646,-76.5817"/>
<polygon fill="#9a32cd" stroke="#9a32cd" points="49.1175,-114.1477 46.4474,-124.4005 54.9285,-118.0506 49.1175,-114.1477"/>
<text text-anchor="middle" x="75.5" y="-98" font-family="Helvetica,sans-Serif" font-size="10.00" fill="#000000"> sub</text>
</g>
<!-- Node8&#45;&gt;Node8 -->
<g id="edge3" class="edge">
<title>Node8&#45;&gt;Node8</title>
<path fill="none" stroke="#9a32cd" stroke-dasharray="5,2" d="M90.2648,-138.8206C95.0048,-137.8334 98,-136.2266 98,-134 98,-130.4375 90.3323,-128.4614 80.1186,-128.0718"/>
<polygon fill="#9a32cd" stroke="#9a32cd" points="89.6797,-135.3636 80.1186,-139.9282 90.4394,-142.3222 89.6797,-135.3636"/>
<text text-anchor="middle" x="115.5" y="-131.5" font-family="Helvetica,sans-Serif" font-size="10.00" fill="#000000"> parent</text>
</g>
</g>
</svg>
