<?xml version="1.0" encoding="UTF-8" standalone="no"?>
<!DOCTYPE svg PUBLIC "-//W3C//DTD SVG 1.1//EN"
 "http://www.w3.org/Graphics/SVG/1.1/DTD/svg11.dtd">
<!-- Generated by graphviz version 7.1.0 (0)
 -->
<!-- Title: AliasMenuData Pages: 1 -->
<svg width="381pt" height="173pt"
 viewBox="0.00 0.00 381.00 173.00" xmlns="http://www.w3.org/2000/svg" xmlns:xlink="http://www.w3.org/1999/xlink">
<g id="graph0" class="graph" transform="scale(1 1) rotate(0) translate(4 169)">
<title>AliasMenuData</title>
<!-- Node1 -->
<g id="node1" class="node">
<title>Node1</title>
<g id="a_node1"><a xlink:title="AliasView array wrapper with Pattern information &#45;.">
<polygon fill="#999999" stroke="#666666" points="199,-19 113,-19 113,0 199,0 199,-19"/>
<text text-anchor="middle" x="156" y="-7" font-family="Helvetica,sans-Serif" font-size="10.00">AliasMenuData</text>
</a>
</g>
</g>
<!-- Node2 -->
<g id="node2" class="node">
<title>Node2</title>
<g id="a_node2"><a xlink:href="structMenu.html" target="_top" xlink:title=" ">
<polygon fill="#fff0f0" stroke="red" points="138,-85 94,-85 94,-66 138,-66 138,-85"/>
<text text-anchor="middle" x="116" y="-73" font-family="Helvetica,sans-Serif" font-size="10.00">Menu</text>
</a>
</g>
</g>
<!-- Node2&#45;&gt;Node1 -->
<g id="edge1" class="edge">
<title>Node2&#45;&gt;Node1</title>
<path fill="none" stroke="#63b8ff" d="M111.76,-54.42C111.47,-48.51 112.15,-42.23 115,-37 119.13,-29.41 126.48,-23.66 133.83,-19.49"/>
<polygon fill="#63b8ff" stroke="#63b8ff" points="108.26,-54.68 113.15,-64.08 115.19,-53.69 108.26,-54.68"/>
</g>
<!-- Node2&#45;&gt;Node1 -->
<g id="edge7" class="edge">
<title>Node2&#45;&gt;Node1</title>
<path fill="none" stroke="#9a32cd" stroke-dasharray="5,2" d="M124.66,-55.59C127.68,-49.51 131.26,-42.84 135,-37 138.93,-30.87 143.97,-24.46 148.14,-19.48"/>
<polygon fill="#9a32cd" stroke="#9a32cd" points="121.68,-53.69 120.55,-64.22 128.01,-56.69 121.68,-53.69"/>
<text text-anchor="middle" x="150" y="-40" font-family="Helvetica,sans-Serif" font-size="10.00"> menu</text>
</g>
<!-- Node3 -->
<g id="node3" class="node">
<title>Node3</title>
<g id="a_node3"><a xlink:href="structMuttWindow.html" target="_top" xlink:title=" ">
<polygon fill="#fff0f0" stroke="red" points="76,-163.5 0,-163.5 0,-144.5 76,-144.5 76,-163.5"/>
<text text-anchor="middle" x="38" y="-151.5" font-family="Helvetica,sans-Serif" font-size="10.00">MuttWindow</text>
</a>
</g>
</g>
<!-- Node3&#45;&gt;Node1 -->
<g id="edge9" class="edge">
<title>Node3&#45;&gt;Node1</title>
<path fill="none" stroke="#9a32cd" stroke-dasharray="5,2" d="M39.42,-132.82C41.64,-113.93 47.35,-85.73 62,-66 78.95,-43.18 108.31,-28.05 129.71,-19.43"/>
<polygon fill="#9a32cd" stroke="#9a32cd" points="35.94,-132.41 38.51,-142.69 42.91,-133.05 35.94,-132.41"/>
<text text-anchor="middle" x="73.5" y="-73" font-family="Helvetica,sans-Serif" font-size="10.00"> sbar</text>
</g>
<!-- Node3&#45;&gt;Node2 -->
<g id="edge2" class="edge">
<title>Node3&#45;&gt;Node2</title>
<path fill="none" stroke="#9a32cd" stroke-dasharray="5,2" d="M54.99,-136.33C71.06,-120.58 94.52,-97.57 107.16,-85.17"/>
<polygon fill="#9a32cd" stroke="#9a32cd" points="52.72,-133.66 48.03,-143.16 57.62,-138.66 52.72,-133.66"/>
<text text-anchor="middle" x="98.5" y="-111.5" font-family="Helvetica,sans-Serif" font-size="10.00"> win</text>
</g>
<!-- Node3&#45;&gt;Node3 -->
<g id="edge3" class="edge">
<title>Node3&#45;&gt;Node3</title>
<path fill="none" stroke="#9a32cd" stroke-dasharray="5,2" d="M87.75,-159.67C91.62,-158.42 94,-156.53 94,-154 94,-149.51 86.47,-147.03 76.48,-146.58"/>
<polygon fill="#9a32cd" stroke="#9a32cd" points="87.31,-156.19 77.97,-161.19 88.39,-163.11 87.31,-156.19"/>
<text text-anchor="middle" x="109.5" y="-157" font-family="Helvetica,sans-Serif" font-size="10.00"> focus</text>
<text text-anchor="middle" x="109.5" y="-146" font-family="Helvetica,sans-Serif" font-size="10.00">parent</text>
</g>
<!-- Node7 -->
<g id="node4" class="node">
<title>Node7</title>
<g id="a_node4"><a xlink:href="structConfigSubset.html" target="_top" xlink:title="A set of inherited config items.">
<polygon fill="#fff0f0" stroke="red" points="221,-163.5 143,-163.5 143,-144.5 221,-144.5 221,-163.5"/>
<text text-anchor="middle" x="182" y="-151.5" font-family="Helvetica,sans-Serif" font-size="10.00">ConfigSubset</text>
</a>
</g>
</g>
<!-- Node7&#45;&gt;Node1 -->
<g id="edge6" class="edge">
<title>Node7&#45;&gt;Node1</title>
<path fill="none" stroke="#9a32cd" stroke-dasharray="5,2" d="M180.16,-132.72C177.78,-109.4 172.97,-70.07 165,-37 163.54,-30.95 161.29,-24.33 159.41,-19.22"/>
<polygon fill="#9a32cd" stroke="#9a32cd" points="176.67,-133.04 181.11,-142.66 183.64,-132.37 176.67,-133.04"/>
<text text-anchor="middle" x="184.5" y="-73" font-family="Helvetica,sans-Serif" font-size="10.00"> sub</text>
</g>
<!-- Node7&#45;&gt;Node2 -->
<g id="edge4" class="edge">
<title>Node7&#45;&gt;Node2</title>
<path fill="none" stroke="#9a32cd" stroke-dasharray="5,2" d="M159.52,-137.51C154.77,-133.71 150,-129.45 146,-125 134.88,-112.63 125.44,-95.61 120.26,-85.37"/>
<polygon fill="#9a32cd" stroke="#9a32cd" points="157.08,-140.06 167.18,-143.26 161.28,-134.46 157.08,-140.06"/>
<text text-anchor="middle" x="155.5" y="-111.5" font-family="Helvetica,sans-Serif" font-size="10.00"> sub</text>
</g>
<!-- Node7&#45;&gt;Node7 -->
<g id="edge5" class="edge">
<title>Node7&#45;&gt;Node7</title>
<path fill="none" stroke="#9a32cd" stroke-dasharray="5,2" d="M232.74,-159.63C236.62,-158.38 239,-156.5 239,-154 239,-149.55 231.46,-147.08 221.43,-146.59"/>
<polygon fill="#9a32cd" stroke="#9a32cd" points="232.26,-156.17 222.92,-161.18 233.34,-163.08 232.26,-156.17"/>
<text text-anchor="middle" x="256" y="-151.5" font-family="Helvetica,sans-Serif" font-size="10.00"> parent</text>
</g>
<!-- Node16 -->
<g id="node5" class="node">
<title>Node16</title>
<g id="a_node5"><a xlink:href="structBuffer.html" target="_top" xlink:title="String manipulation buffer.">
<polygon fill="white" stroke="#666666" points="340.5,-163.5 293.5,-163.5 293.5,-144.5 340.5,-144.5 340.5,-163.5"/>
<text text-anchor="middle" x="317" y="-151.5" font-family="Helvetica,sans-Serif" font-size="10.00">Buffer</text>
</a>
</g>
</g>
<!-- Node16&#45;&gt;Node1 -->
<g id="edge8" class="edge">
<title>Node16&#45;&gt;Node1</title>
<path fill="none" stroke="#9a32cd" stroke-dasharray="5,2" d="M298.34,-136.49C264.14,-106.22 192.49,-42.8 166.07,-19.41"/>
<polygon fill="#9a32cd" stroke="#9a32cd" points="295.99,-139.08 305.8,-143.08 300.63,-133.83 295.99,-139.08"/>
<text text-anchor="middle" x="255.5" y="-73" font-family="Helvetica,sans-Serif" font-size="10.00"> query</text>
</g>
<!-- Node17 -->
<g id="node6" class="node">
<title>Node17</title>
<g id="a_node6"><a xlink:href="structSearchState.html" target="_top" xlink:title="Holds state of a search.">
<polygon fill="white" stroke="#666666" points="354.5,-85 283.5,-85 283.5,-66 354.5,-66 354.5,-85"/>
<text text-anchor="middle" x="319" y="-73" font-family="Helvetica,sans-Serif" font-size="10.00">SearchState</text>
</a>
</g>
</g>
<!-- Node16&#45;&gt;Node17 -->
<g id="edge11" class="edge">
<title>Node16&#45;&gt;Node17</title>
<path fill="none" stroke="#9a32cd" stroke-dasharray="5,2" d="M317.53,-132.72C317.94,-117.23 318.47,-96.65 318.77,-85.17"/>
<polygon fill="#9a32cd" stroke="#9a32cd" points="314.03,-132.62 317.27,-142.71 321.03,-132.81 314.03,-132.62"/>
<text text-anchor="middle" x="345.5" y="-117" font-family="Helvetica,sans-Serif" font-size="10.00"> string</text>
<text text-anchor="middle" x="345.5" y="-106" font-family="Helvetica,sans-Serif" font-size="10.00">string_expn</text>
</g>
<!-- Node17&#45;&gt;Node1 -->
<g id="edge10" class="edge">
<title>Node17&#45;&gt;Node1</title>
<path fill="none" stroke="#9a32cd" stroke-dasharray="5,2" d="M294.33,-59.86C280.94,-52.33 263.91,-43.42 248,-37 230.58,-29.98 210.61,-23.99 193.74,-19.49"/>
<polygon fill="#9a32cd" stroke="#9a32cd" points="292.47,-62.83 302.88,-64.77 295.95,-56.76 292.47,-62.83"/>
<text text-anchor="middle" x="303.5" y="-40" font-family="Helvetica,sans-Serif" font-size="10.00"> search_state</text>
</g>
</g>
</svg>
