<?xml version="1.0" encoding="UTF-8" standalone="no"?>
<!DOCTYPE svg PUBLIC "-//W3C//DTD SVG 1.1//EN"
 "http://www.w3.org/Graphics/SVG/1.1/DTD/svg11.dtd">
<!-- Generated by graphviz version 7.1.0 (0)
 -->
<!-- Title: PreviewWindowData Pages: 1 -->
<svg width="202pt" height="107pt"
 viewBox="0.00 0.00 202.00 107.00" xmlns="http://www.w3.org/2000/svg" xmlns:xlink="http://www.w3.org/1999/xlink">
<g id="graph0" class="graph" transform="scale(1 1) rotate(0) translate(4 103)">
<title>PreviewWindowData</title>
<!-- Node1 -->
<g id="node1" class="node">
<title>Node1</title>
<g id="a_node1"><a xlink:title="Data to fill the Preview Window.">
<polygon fill="#999999" stroke="#666666" points="110,-19 0,-19 0,0 110,0 110,-19"/>
<text text-anchor="middle" x="55" y="-7" font-family="Helvetica,sans-Serif" font-size="10.00">PreviewWindowData</text>
</a>
</g>
</g>
<!-- Node2 -->
<g id="node2" class="node">
<title>Node2</title>
<g id="a_node2"><a xlink:href="structEmail.html" target="_top" xlink:title="The envelope/body of an email.">
<polygon fill="#fff0f0" stroke="red" points="50.5,-97.5 9.5,-97.5 9.5,-78.5 50.5,-78.5 50.5,-97.5"/>
<text text-anchor="middle" x="30" y="-85.5" font-family="Helvetica,sans-Serif" font-size="10.00">Email</text>
</a>
</g>
</g>
<!-- Node2&#45;&gt;Node1 -->
<g id="edge1" class="edge">
<title>Node2&#45;&gt;Node1</title>
<path fill="none" stroke="#9a32cd" stroke-dasharray="5,2" d="M35.03,-66.91C37.49,-57.71 40.63,-46.72 44,-37 46.09,-30.97 48.84,-24.35 51.06,-19.23"/>
<polygon fill="#9a32cd" stroke="#9a32cd" points="31.65,-66.03 32.54,-76.58 38.42,-67.77 31.65,-66.03"/>
<text text-anchor="middle" x="58" y="-45.5" font-family="Helvetica,sans-Serif" font-size="10.00"> email</text>
</g>
<!-- Node14 -->
<g id="node3" class="node">
<title>Node14</title>
<g id="a_node3"><a xlink:href="structMuttWindow.html" target="_top" xlink:title=" ">
<polygon fill="#fff0f0" stroke="red" points="145,-97.5 69,-97.5 69,-78.5 145,-78.5 145,-97.5"/>
<text text-anchor="middle" x="107" y="-85.5" font-family="Helvetica,sans-Serif" font-size="10.00">MuttWindow</text>
</a>
</g>
</g>
<!-- Node14&#45;&gt;Node1 -->
<g id="edge2" class="edge">
<title>Node14&#45;&gt;Node1</title>
<path fill="none" stroke="#9a32cd" stroke-dasharray="5,2" d="M94.77,-69C84.1,-53.31 69.09,-31.22 60.9,-19.17"/>
<polygon fill="#9a32cd" stroke="#9a32cd" points="91.67,-70.67 100.18,-76.97 97.46,-66.73 91.67,-70.67"/>
<text text-anchor="middle" x="96.5" y="-51" font-family="Helvetica,sans-Serif" font-size="10.00"> bar</text>
<text text-anchor="middle" x="96.5" y="-40" font-family="Helvetica,sans-Serif" font-size="10.00">win</text>
</g>
<!-- Node14&#45;&gt;Node14 -->
<g id="edge3" class="edge">
<title>Node14&#45;&gt;Node14</title>
<path fill="none" stroke="#9a32cd" stroke-dasharray="5,2" d="M156.75,-93.67C160.62,-92.42 163,-90.53 163,-88 163,-83.51 155.47,-81.03 145.48,-80.58"/>
<polygon fill="#9a32cd" stroke="#9a32cd" points="156.31,-90.19 146.97,-95.19 157.39,-97.11 156.31,-90.19"/>
<text text-anchor="middle" x="178.5" y="-91" font-family="Helvetica,sans-Serif" font-size="10.00"> focus</text>
<text text-anchor="middle" x="178.5" y="-80" font-family="Helvetica,sans-Serif" font-size="10.00">parent</text>
</g>
</g>
</svg>
