<?xml version="1.0" encoding="UTF-8" standalone="no"?>
<!DOCTYPE svg PUBLIC "-//W3C//DTD SVG 1.1//EN"
 "http://www.w3.org/Graphics/SVG/1.1/DTD/svg11.dtd">
<!-- Generated by graphviz version 2.40.1 (20161225.0304)
 -->
<!-- Title: MboxAccountData Pages: 1 -->
<svg width="144pt" height="95pt"
 viewBox="0.00 0.00 144.00 95.00" xmlns="http://www.w3.org/2000/svg" xmlns:xlink="http://www.w3.org/1999/xlink">
<g id="graph0" class="graph" transform="scale(1 1) rotate(0) translate(4 91)">
<title>MboxAccountData</title>
<polygon fill="#ffffff" stroke="transparent" points="-4,4 -4,-91 140,-91 140,4 -4,4"/>
<!-- Node2 -->
<g id="node1" class="node">
<title>Node2</title>
<polygon fill="#bfbfbf" stroke="#000000" points="13.5,-.5 13.5,-19.5 118.5,-19.5 118.5,-.5 13.5,-.5"/>
<text text-anchor="middle" x="66" y="-7.5" font-family="Helvetica,sans-Serif" font-size="10.00" fill="#000000">MboxAccountData</text>
</g>
<!-- Node3 -->
<g id="node2" class="node">
<title>Node3</title>
<g id="a_node2"><a xlink:href="structAccount.html" target="_top" xlink:title="A group of associated Mailboxes. ">
<polygon fill="#ffffff" stroke="#ff0000" points="0,-67.5 0,-86.5 56,-86.5 56,-67.5 0,-67.5"/>
<text text-anchor="middle" x="28" y="-74.5" font-family="Helvetica,sans-Serif" font-size="10.00" fill="#000000">Account</text>
</a>
</g>
</g>
<!-- Node3&#45;&gt;Node2 -->
<g id="edge1" class="edge">
<title>Node3&#45;&gt;Node2</title>
<path fill="none" stroke="#191970" d="M38.4302,-58.6099C45.5937,-45.9795 54.8132,-29.7241 60.5656,-19.5817"/>
<polygon fill="#191970" stroke="#191970" points="35.3335,-56.9754 33.4445,-67.4005 41.4224,-60.4289 35.3335,-56.9754"/>
</g>
<!-- Node11 -->
<g id="node3" class="node">
<title>Node11</title>
<g id="a_node3"><a xlink:href="structtimespec.html" target="_top" xlink:title="Time value with nanosecond precision. ">
<polygon fill="#ffffff" stroke="#000000" points="74,-67.5 74,-86.5 136,-86.5 136,-67.5 74,-67.5"/>
<text text-anchor="middle" x="105" y="-74.5" font-family="Helvetica,sans-Serif" font-size="10.00" fill="#000000">timespec</text>
</a>
</g>
</g>
<!-- Node11&#45;&gt;Node2 -->
<g id="edge2" class="edge">
<title>Node11&#45;&gt;Node2</title>
<path fill="none" stroke="#9a32cd" stroke-dasharray="5,2" d="M94.2953,-58.6099C86.9433,-45.9795 77.4812,-29.7241 71.5774,-19.5817"/>
<polygon fill="#9a32cd" stroke="#9a32cd" points="91.3566,-60.5188 99.4123,-67.4005 97.4064,-56.9973 91.3566,-60.5188"/>
<text text-anchor="middle" x="103" y="-41" font-family="Helvetica,sans-Serif" font-size="10.00" fill="#000000"> atime</text>
</g>
</g>
</svg>
