<?xml version="1.0" encoding="UTF-8" standalone="no"?>
<!DOCTYPE svg PUBLIC "-//W3C//DTD SVG 1.1//EN"
 "http://www.w3.org/Graphics/SVG/1.1/DTD/svg11.dtd">
<!-- Generated by graphviz version 7.1.0 (0)
 -->
<!-- Title: cs_subset_he_reset Pages: 1 -->
<svg width="260pt" height="64pt"
 viewBox="0.00 0.00 260.00 64.00" xmlns="http://www.w3.org/2000/svg" xmlns:xlink="http://www.w3.org/1999/xlink">
<g id="graph0" class="graph" transform="scale(1 1) rotate(0) translate(4 60)">
<title>cs_subset_he_reset</title>
<!-- Node1 -->
<g id="node1" class="node">
<title>Node1</title>
<g id="a_node1"><a xlink:title="Reset a config item to its initial value.">
<polygon fill="#999999" stroke="#666666" points="252,-37 146,-37 146,-18 252,-18 252,-37"/>
<text text-anchor="middle" x="199" y="-25" font-family="Helvetica,sans-Serif" font-size="10.00">cs_subset_he_reset</text>
</a>
</g>
</g>
<!-- Node2 -->
<g id="node2" class="node">
<title>Node2</title>
<g id="a_node2"><a xlink:href="parse_2set_8c.html#a4f57003dd8a0bec6f5c62f280626d468" target="_top" xlink:title="Reset a variable.">
<polygon fill="#fff0f0" stroke="red" points="110,-56 0,-56 0,-37 110,-37 110,-56"/>
<text text-anchor="middle" x="55" y="-44" font-family="Helvetica,sans-Serif" font-size="10.00">command_set_reset</text>
</a>
</g>
</g>
<!-- Node1&#45;&gt;Node2 -->
<g id="edge1" class="edge">
<title>Node1&#45;&gt;Node2</title>
<path fill="none" stroke="#63b8ff" d="M134.27,-36.03C126.22,-37.1 118.04,-38.2 110.16,-39.25"/>
<polygon fill="#63b8ff" stroke="#63b8ff" points="134.58,-39.52 144.03,-34.72 133.65,-32.58 134.58,-39.52"/>
</g>
<!-- Node4 -->
<g id="node3" class="node">
<title>Node4</title>
<g id="a_node3"><a xlink:href="subset_8c.html#a514631d91f223e8b716b2d1eb159be78" target="_top" xlink:title="Reset a config item to its initial value.">
<polygon fill="white" stroke="#666666" points="108.5,-19 1.5,-19 1.5,0 108.5,0 108.5,-19"/>
<text text-anchor="middle" x="55" y="-7" font-family="Helvetica,sans-Serif" font-size="10.00">cs_subset_str_reset</text>
</a>
</g>
</g>
<!-- Node1&#45;&gt;Node4 -->
<g id="edge2" class="edge">
<title>Node1&#45;&gt;Node4</title>
<path fill="none" stroke="#63b8ff" d="M134.38,-19.44C125.81,-18.35 117.09,-17.24 108.73,-16.18"/>
<polygon fill="#63b8ff" stroke="#63b8ff" points="133.67,-22.87 144.03,-20.66 134.55,-15.93 133.67,-22.87"/>
</g>
</g>
</svg>
