<?xml version="1.0" encoding="UTF-8" standalone="no"?>
<!DOCTYPE svg PUBLIC "-//W3C//DTD SVG 1.1//EN"
 "http://www.w3.org/Graphics/SVG/1.1/DTD/svg11.dtd">
<!-- Generated by graphviz version 7.1.0 (0)
 -->
<!-- Title: config/subset.c Pages: 1 -->
<svg width="336pt" height="192pt"
 viewBox="0.00 0.00 335.54 192.00" xmlns="http://www.w3.org/2000/svg" xmlns:xlink="http://www.w3.org/1999/xlink">
<g id="graph0" class="graph" transform="scale(1 1) rotate(0) translate(4 188)">
<title>config/subset.c</title>
<!-- Node1 -->
<g id="node1" class="node">
<title>Node1</title>
<g id="a_node1"><a xlink:title="Subset of config items.">
<polygon fill="#999999" stroke="#666666" points="213.04,-184 126.04,-184 126.04,-165 213.04,-165 213.04,-184"/>
<text text-anchor="middle" x="169.54" y="-172" font-family="Helvetica,sans-Serif" font-size="10.00">config/subset.c</text>
</a>
</g>
</g>
<!-- Node2 -->
<g id="node2" class="node">
<title>Node2</title>
<g id="a_node2"><a xlink:title=" ">
<polygon fill="#e0e0e0" stroke="#999999" points="166.54,-19 112.54,-19 112.54,0 166.54,0 166.54,-19"/>
<text text-anchor="middle" x="139.54" y="-7" font-family="Helvetica,sans-Serif" font-size="10.00">config.h</text>
</a>
</g>
</g>
<!-- Node1&#45;&gt;Node2 -->
<g id="edge1" class="edge">
<title>Node1&#45;&gt;Node2</title>
<path fill="none" stroke="#63b8ff" d="M125.72,-167.4C83.08,-160.47 22.72,-147.63 8.54,-129 -25.13,-84.76 54.58,-43.75 103.98,-23.58"/>
<polygon fill="#63b8ff" stroke="#63b8ff" points="105.19,-26.87 113.19,-19.93 102.61,-20.36 105.19,-26.87"/>
</g>
<!-- Node3 -->
<g id="node3" class="node">
<title>Node3</title>
<g id="a_node3"><a xlink:title=" ">
<polygon fill="#e0e0e0" stroke="#999999" points="67.54,-129 17.54,-129 17.54,-110 67.54,-110 67.54,-129"/>
<text text-anchor="middle" x="42.54" y="-117" font-family="Helvetica,sans-Serif" font-size="10.00">limits.h</text>
</a>
</g>
</g>
<!-- Node1&#45;&gt;Node3 -->
<g id="edge2" class="edge">
<title>Node1&#45;&gt;Node3</title>
<path fill="none" stroke="#63b8ff" d="M148,-164.51C127.8,-156.08 97.37,-143.38 74.38,-133.79"/>
<polygon fill="#63b8ff" stroke="#63b8ff" points="75.74,-130.56 65.16,-129.94 73.04,-137.02 75.74,-130.56"/>
</g>
<!-- Node4 -->
<g id="node4" class="node">
<title>Node4</title>
<g id="a_node4"><a xlink:title=" ">
<polygon fill="#e0e0e0" stroke="#999999" points="181.54,-74 129.54,-74 129.54,-55 181.54,-55 181.54,-74"/>
<text text-anchor="middle" x="155.54" y="-62" font-family="Helvetica,sans-Serif" font-size="10.00">stdint.h</text>
</a>
</g>
</g>
<!-- Node1&#45;&gt;Node4 -->
<g id="edge3" class="edge">
<title>Node1&#45;&gt;Node4</title>
<path fill="none" stroke="#63b8ff" d="M168.39,-164.66C166.17,-147.5 161.21,-109.26 158.14,-85.6"/>
<polygon fill="#63b8ff" stroke="#63b8ff" points="161.65,-85.43 156.89,-75.96 154.71,-86.33 161.65,-85.43"/>
</g>
<!-- Node5 -->
<g id="node5" class="node">
<title>Node5</title>
<g id="a_node5"><a xlink:title=" ">
<polygon fill="#e0e0e0" stroke="#999999" points="247.54,-74 199.54,-74 199.54,-55 247.54,-55 247.54,-74"/>
<text text-anchor="middle" x="223.54" y="-62" font-family="Helvetica,sans-Serif" font-size="10.00">stdio.h</text>
</a>
</g>
</g>
<!-- Node1&#45;&gt;Node5 -->
<g id="edge4" class="edge">
<title>Node1&#45;&gt;Node5</title>
<path fill="none" stroke="#63b8ff" d="M199.45,-164.56C216.5,-157.76 236.43,-146.52 246.54,-129 254.94,-114.43 246.71,-96.25 237.84,-83.09"/>
<polygon fill="#63b8ff" stroke="#63b8ff" points="240.88,-81.3 232.11,-75.35 235.25,-85.47 240.88,-81.3"/>
</g>
<!-- Node6 -->
<g id="node6" class="node">
<title>Node6</title>
<g id="a_node6"><a xlink:href="mutt_2lib_8h.html" target="_top" xlink:title="Convenience wrapper for the library headers.">
<polygon fill="#fff0f0" stroke="red" points="327.54,-74 265.54,-74 265.54,-55 327.54,-55 327.54,-74"/>
<text text-anchor="middle" x="296.54" y="-62" font-family="Helvetica,sans-Serif" font-size="10.00">mutt/lib.h</text>
</a>
</g>
</g>
<!-- Node1&#45;&gt;Node6 -->
<g id="edge5" class="edge">
<title>Node1&#45;&gt;Node6</title>
<path fill="none" stroke="#63b8ff" d="M198.83,-164.59C218.42,-157.46 243.77,-145.85 261.54,-129 274.4,-116.81 283.7,-98.82 289.46,-85.11"/>
<polygon fill="#63b8ff" stroke="#63b8ff" points="292.72,-86.4 293.08,-75.81 286.19,-83.86 292.72,-86.4"/>
</g>
<!-- Node54 -->
<g id="node7" class="node">
<title>Node54</title>
<g id="a_node7"><a xlink:href="subset_8h.html" target="_top" xlink:title="Subset of Config Items.">
<polygon fill="white" stroke="#666666" points="141.54,-129 85.54,-129 85.54,-110 141.54,-110 141.54,-129"/>
<text text-anchor="middle" x="113.54" y="-117" font-family="Helvetica,sans-Serif" font-size="10.00">subset.h</text>
</a>
</g>
</g>
<!-- Node1&#45;&gt;Node54 -->
<g id="edge7" class="edge">
<title>Node1&#45;&gt;Node54</title>
<path fill="none" stroke="#63b8ff" d="M160.04,-164.51C152.11,-157 140.59,-146.1 131,-137.03"/>
<polygon fill="#63b8ff" stroke="#63b8ff" points="133.67,-134.73 124,-130.4 128.85,-139.81 133.67,-134.73"/>
</g>
<!-- Node55 -->
<g id="node8" class="node">
<title>Node55</title>
<g id="a_node8"><a xlink:href="config_2set_8h.html" target="_top" xlink:title="A collection of config items.">
<polygon fill="#fff0f0" stroke="red" points="237.54,-129 197.54,-129 197.54,-110 237.54,-110 237.54,-129"/>
<text text-anchor="middle" x="217.54" y="-117" font-family="Helvetica,sans-Serif" font-size="10.00">set.h</text>
</a>
</g>
</g>
<!-- Node1&#45;&gt;Node55 -->
<g id="edge9" class="edge">
<title>Node1&#45;&gt;Node55</title>
<path fill="none" stroke="#63b8ff" d="M177.47,-164.75C184.1,-157.43 193.75,-146.76 201.93,-137.74"/>
<polygon fill="#63b8ff" stroke="#63b8ff" points="204.31,-140.33 208.42,-130.56 199.12,-135.63 204.31,-140.33"/>
</g>
<!-- Node6&#45;&gt;Node2 -->
<g id="edge6" class="edge">
<title>Node6&#45;&gt;Node2</title>
<path fill="none" stroke="#63b8ff" d="M269.91,-54.51C244.34,-45.88 205.49,-32.76 176.85,-23.1"/>
<polygon fill="#63b8ff" stroke="#63b8ff" points="178.07,-19.81 167.47,-19.93 175.83,-26.45 178.07,-19.81"/>
</g>
<!-- Node54&#45;&gt;Node4 -->
<g id="edge8" class="edge">
<title>Node54&#45;&gt;Node4</title>
<path fill="none" stroke="#63b8ff" d="M120.47,-109.75C126.15,-102.58 134.38,-92.2 141.43,-83.3"/>
<polygon fill="#63b8ff" stroke="#63b8ff" points="144.04,-85.64 147.51,-75.63 138.56,-81.29 144.04,-85.64"/>
</g>
<!-- Node55&#45;&gt;Node4 -->
<g id="edge10" class="edge">
<title>Node55&#45;&gt;Node4</title>
<path fill="none" stroke="#63b8ff" d="M207.02,-109.51C198.15,-101.93 185.23,-90.88 174.55,-81.75"/>
<polygon fill="#63b8ff" stroke="#63b8ff" points="176.93,-79.18 167.05,-75.34 172.38,-84.5 176.93,-79.18"/>
</g>
<!-- Node55&#45;&gt;Node5 -->
<g id="edge11" class="edge">
<title>Node55&#45;&gt;Node5</title>
<path fill="none" stroke="#63b8ff" d="M218.53,-109.75C219.27,-103.19 220.32,-93.95 221.26,-85.6"/>
<polygon fill="#63b8ff" stroke="#63b8ff" points="224.71,-86.28 222.36,-75.95 217.75,-85.49 224.71,-86.28"/>
</g>
<!-- Node55&#45;&gt;Node6 -->
<g id="edge12" class="edge">
<title>Node55&#45;&gt;Node6</title>
<path fill="none" stroke="#63b8ff" d="M230.94,-109.51C242.7,-101.62 260.05,-89.98 273.95,-80.65"/>
<polygon fill="#63b8ff" stroke="#63b8ff" points="275.72,-83.68 282.08,-75.2 271.82,-77.87 275.72,-83.68"/>
</g>
</g>
</svg>
