<?xml version="1.0" encoding="UTF-8" standalone="no"?>
<!DOCTYPE svg PUBLIC "-//W3C//DTD SVG 1.1//EN"
 "http://www.w3.org/Graphics/SVG/1.1/DTD/svg11.dtd">
<!-- Generated by graphviz version 2.40.1 (20161225.0304)
 -->
<!-- Title: cs_subset_he_string_minus_equals Pages: 1 -->
<svg width="311pt" height="78pt"
 viewBox="0.00 0.00 311.00 77.50" xmlns="http://www.w3.org/2000/svg" xmlns:xlink="http://www.w3.org/1999/xlink">
<g id="graph0" class="graph" transform="scale(1 1) rotate(0) translate(4 73.5)">
<title>cs_subset_he_string_minus_equals</title>
<polygon fill="#ffffff" stroke="transparent" points="-4,4 -4,-73.5 307,-73.5 307,4 -4,4"/>
<!-- Node4127 -->
<g id="node1" class="node">
<title>Node4127</title>
<polygon fill="#bfbfbf" stroke="#000000" points="0,-17 0,-47 115,-47 115,-17 0,-17"/>
<text text-anchor="start" x="8" y="-35" font-family="Helvetica,sans-Serif" font-size="10.00" fill="#000000">cs_subset_he_string</text>
<text text-anchor="middle" x="57.5" y="-24" font-family="Helvetica,sans-Serif" font-size="10.00" fill="#000000">_minus_equals</text>
</g>
<!-- Node4128 -->
<g id="node2" class="node">
<title>Node4128</title>
<g id="a_node2"><a xlink:href="config_2set_8c.html#afb22f304def10b645bb397b6b8b29641" target="_top" xlink:title="Remove from a config item by string. ">
<polygon fill="#ffffff" stroke="#ff0000" points="170.5,-39 170.5,-69 283.5,-69 283.5,-39 170.5,-39"/>
<text text-anchor="start" x="178.5" y="-57" font-family="Helvetica,sans-Serif" font-size="10.00" fill="#000000">cs_he_string_minus</text>
<text text-anchor="middle" x="227" y="-46" font-family="Helvetica,sans-Serif" font-size="10.00" fill="#000000">_equals</text>
</a>
</g>
</g>
<!-- Node4127&#45;&gt;Node4128 -->
<g id="edge1" class="edge">
<title>Node4127&#45;&gt;Node4128</title>
<path fill="none" stroke="#191970" d="M115.3582,-39.5096C129.7738,-41.3807 145.3474,-43.402 160.1566,-45.3242"/>
<polygon fill="#191970" stroke="#191970" points="159.8961,-48.8196 170.2634,-46.636 160.7971,-41.8779 159.8961,-48.8196"/>
</g>
<!-- Node4140 -->
<g id="node3" class="node">
<title>Node4140</title>
<g id="a_node3"><a xlink:href="config_2subset_8c.html#ade6fadcb576282a84fd1746c1231f41c" target="_top" xlink:title="Notify all observers of an event. ">
<polygon fill="#ffffff" stroke="#ff0000" points="151,-.5 151,-19.5 303,-19.5 303,-.5 151,-.5"/>
<text text-anchor="middle" x="227" y="-7.5" font-family="Helvetica,sans-Serif" font-size="10.00" fill="#000000">cs_subset_notify_observers</text>
</a>
</g>
</g>
<!-- Node4127&#45;&gt;Node4140 -->
<g id="edge2" class="edge">
<title>Node4127&#45;&gt;Node4140</title>
<path fill="none" stroke="#191970" d="M115.3582,-24.4904C124.4691,-23.3078 134.0425,-22.0653 143.5932,-20.8257"/>
<polygon fill="#191970" stroke="#191970" points="144.0512,-24.2957 153.5175,-19.5376 143.1502,-17.3539 144.0512,-24.2957"/>
</g>
</g>
</svg>
