<?xml version="1.0" encoding="UTF-8" standalone="no"?>
<!DOCTYPE svg PUBLIC "-//W3C//DTD SVG 1.1//EN"
 "http://www.w3.org/Graphics/SVG/1.1/DTD/svg11.dtd">
<!-- Generated by graphviz version 7.1.0 (0)
 -->
<!-- Title: cs_subset_str_delete Pages: 1 -->
<svg width="309pt" height="82pt"
 viewBox="0.00 0.00 309.00 82.00" xmlns="http://www.w3.org/2000/svg" xmlns:xlink="http://www.w3.org/1999/xlink">
<g id="graph0" class="graph" transform="scale(1 1) rotate(0) translate(4 78)">
<title>cs_subset_str_delete</title>
<!-- Node1 -->
<g id="node1" class="node">
<title>Node1</title>
<g id="a_node1"><a xlink:title="Delete config item from a config by string.">
<polygon fill="#999999" stroke="#666666" points="113,-37 0,-37 0,-18 113,-18 113,-37"/>
<text text-anchor="middle" x="56.5" y="-25" font-family="Helvetica,sans-Serif" font-size="10.00">cs_subset_str_delete</text>
</a>
</g>
</g>
<!-- Node2 -->
<g id="node2" class="node">
<title>Node2</title>
<g id="a_node2"><a xlink:href="subset_8c.html#a96772da248b8a2c4f0caf6b170c1e8e8" target="_top" xlink:title="Create a Subset config item (inherited)">
<polygon fill="#fff0f0" stroke="red" points="301,-56 149,-56 149,-37 301,-37 301,-56"/>
<text text-anchor="middle" x="225" y="-44" font-family="Helvetica,sans-Serif" font-size="10.00">cs_subset_create_inheritance</text>
</a>
</g>
</g>
<!-- Node1&#45;&gt;Node2 -->
<g id="edge1" class="edge">
<title>Node1&#45;&gt;Node2</title>
<path fill="none" stroke="#63b8ff" d="M113.41,-33.88C121.2,-34.77 129.35,-35.7 137.55,-36.63"/>
<polygon fill="#63b8ff" stroke="#63b8ff" points="136.88,-40.08 147.22,-37.74 137.68,-33.13 136.88,-40.08"/>
</g>
<!-- Node18 -->
<g id="node3" class="node">
<title>Node18</title>
<g id="a_node3"><a xlink:href="subset_8c.html#a79429bb7c2b73456b14b2dd9680e6af8" target="_top" xlink:title="Delete config item from a config.">
<polygon fill="#fff0f0" stroke="red" points="281,-19 169,-19 169,0 281,0 281,-19"/>
<text text-anchor="middle" x="225" y="-7" font-family="Helvetica,sans-Serif" font-size="10.00">cs_subset_he_delete</text>
</a>
</g>
</g>
<!-- Node1&#45;&gt;Node18 -->
<g id="edge3" class="edge">
<title>Node1&#45;&gt;Node18</title>
<path fill="none" stroke="#63b8ff" d="M113.41,-21.46C127.42,-19.94 142.6,-18.3 157.09,-16.73"/>
<polygon fill="#63b8ff" stroke="#63b8ff" points="157.45,-20.21 167.02,-15.66 156.7,-13.26 157.45,-20.21"/>
</g>
<!-- Node2&#45;&gt;Node2 -->
<g id="edge2" class="edge">
<title>Node2&#45;&gt;Node2</title>
<path fill="none" stroke="#63b8ff" d="M198.62,-56.37C186.59,-64.94 195.38,-74 225,-74 241.66,-74 251.73,-71.13 255.21,-67.1"/>
<polygon fill="#63b8ff" stroke="#63b8ff" points="258.55,-66.03 251.89,-57.79 251.96,-68.39 258.55,-66.03"/>
</g>
</g>
</svg>
