<?xml version="1.0" encoding="UTF-8" standalone="no"?>
<!DOCTYPE svg PUBLIC "-//W3C//DTD SVG 1.1//EN"
 "http://www.w3.org/Graphics/SVG/1.1/DTD/svg11.dtd">
<!-- Generated by graphviz version 7.1.0 (0)
 -->
<!-- Title: config/subset.c Pages: 1 -->
<svg width="326pt" height="192pt"
 viewBox="0.00 0.00 326.00 192.00" xmlns="http://www.w3.org/2000/svg" xmlns:xlink="http://www.w3.org/1999/xlink">
<g id="graph0" class="graph" transform="scale(1 1) rotate(0) translate(4 188)">
<title>config/subset.c</title>
<!-- Node1 -->
<g id="node1" class="node">
<title>Node1</title>
<g id="a_node1"><a xlink:title="Subset of config items.">
<polygon fill="#999999" stroke="#666666" points="187.5,-184 100.5,-184 100.5,-165 187.5,-165 187.5,-184"/>
<text text-anchor="middle" x="144" y="-172" font-family="Helvetica,sans-Serif" font-size="10.00">config/subset.c</text>
</a>
</g>
</g>
<!-- Node2 -->
<g id="node2" class="node">
<title>Node2</title>
<g id="a_node2"><a xlink:title=" ">
<polygon fill="#e0e0e0" stroke="#999999" points="54,-19 0,-19 0,0 54,0 54,-19"/>
<text text-anchor="middle" x="27" y="-7" font-family="Helvetica,sans-Serif" font-size="10.00">config.h</text>
</a>
</g>
</g>
<!-- Node1&#45;&gt;Node2 -->
<g id="edge1" class="edge">
<title>Node1&#45;&gt;Node2</title>
<path fill="none" stroke="#63b8ff" d="M105.31,-164.51C84.18,-157.84 58.94,-146.75 42,-129 18.4,-104.27 18.71,-89.11 21,-55 21.54,-46.93 22.63,-38.09 23.73,-30.43"/>
<polygon fill="#63b8ff" stroke="#63b8ff" points="27.15,-31.24 25.22,-20.83 20.23,-30.17 27.15,-31.24"/>
</g>
<!-- Node3 -->
<g id="node3" class="node">
<title>Node3</title>
<g id="a_node3"><a xlink:title=" ">
<polygon fill="#e0e0e0" stroke="#999999" points="318,-129 268,-129 268,-110 318,-110 318,-129"/>
<text text-anchor="middle" x="293" y="-117" font-family="Helvetica,sans-Serif" font-size="10.00">limits.h</text>
</a>
</g>
</g>
<!-- Node1&#45;&gt;Node3 -->
<g id="edge2" class="edge">
<title>Node1&#45;&gt;Node3</title>
<path fill="none" stroke="#63b8ff" d="M169.28,-164.51C193.5,-155.89 230.3,-142.8 257.47,-133.14"/>
<polygon fill="#63b8ff" stroke="#63b8ff" points="258.42,-136.51 266.67,-129.87 256.08,-129.92 258.42,-136.51"/>
</g>
<!-- Node4 -->
<g id="node4" class="node">
<title>Node4</title>
<g id="a_node4"><a xlink:title=" ">
<polygon fill="#e0e0e0" stroke="#999999" points="170,-74 118,-74 118,-55 170,-55 170,-74"/>
<text text-anchor="middle" x="144" y="-62" font-family="Helvetica,sans-Serif" font-size="10.00">stdint.h</text>
</a>
</g>
</g>
<!-- Node1&#45;&gt;Node4 -->
<g id="edge3" class="edge">
<title>Node1&#45;&gt;Node4</title>
<path fill="none" stroke="#63b8ff" d="M144,-164.66C144,-147.57 144,-109.61 144,-85.92"/>
<polygon fill="#63b8ff" stroke="#63b8ff" points="147.5,-85.97 144,-75.97 140.5,-85.97 147.5,-85.97"/>
</g>
<!-- Node5 -->
<g id="node5" class="node">
<title>Node5</title>
<g id="a_node5"><a xlink:title=" ">
<polygon fill="#e0e0e0" stroke="#999999" points="250,-74 202,-74 202,-55 250,-55 250,-74"/>
<text text-anchor="middle" x="226" y="-62" font-family="Helvetica,sans-Serif" font-size="10.00">stdio.h</text>
</a>
</g>
</g>
<!-- Node1&#45;&gt;Node5 -->
<g id="edge4" class="edge">
<title>Node1&#45;&gt;Node5</title>
<path fill="none" stroke="#63b8ff" d="M172.66,-164.58C189.69,-157.7 210.05,-146.37 221,-129 229.14,-116.1 229.96,-98.67 228.98,-85.33"/>
<polygon fill="#63b8ff" stroke="#63b8ff" points="232.48,-85.12 227.85,-75.59 225.53,-85.92 232.48,-85.12"/>
</g>
<!-- Node6 -->
<g id="node6" class="node">
<title>Node6</title>
<g id="a_node6"><a xlink:href="mutt_2lib_8h.html" target="_top" xlink:title="Convenience wrapper for the library headers.">
<polygon fill="#fff0f0" stroke="red" points="92,-74 30,-74 30,-55 92,-55 92,-74"/>
<text text-anchor="middle" x="61" y="-62" font-family="Helvetica,sans-Serif" font-size="10.00">mutt/lib.h</text>
</a>
</g>
</g>
<!-- Node1&#45;&gt;Node6 -->
<g id="edge5" class="edge">
<title>Node1&#45;&gt;Node6</title>
<path fill="none" stroke="#63b8ff" d="M102.84,-164.55C83.6,-158.09 62.45,-147.17 51,-129 42.72,-115.85 46.4,-98.23 51.48,-84.88"/>
<polygon fill="#63b8ff" stroke="#63b8ff" points="54.63,-86.42 55.44,-75.86 48.22,-83.61 54.63,-86.42"/>
</g>
<!-- Node55 -->
<g id="node7" class="node">
<title>Node55</title>
<g id="a_node7"><a xlink:href="subset_8h.html" target="_top" xlink:title="Subset of Config Items.">
<polygon fill="white" stroke="#666666" points="116,-129 60,-129 60,-110 116,-110 116,-129"/>
<text text-anchor="middle" x="88" y="-117" font-family="Helvetica,sans-Serif" font-size="10.00">subset.h</text>
</a>
</g>
</g>
<!-- Node1&#45;&gt;Node55 -->
<g id="edge7" class="edge">
<title>Node1&#45;&gt;Node55</title>
<path fill="none" stroke="#63b8ff" d="M134.5,-164.51C126.57,-157 115.05,-146.1 105.46,-137.03"/>
<polygon fill="#63b8ff" stroke="#63b8ff" points="108.13,-134.73 98.46,-130.4 103.32,-139.81 108.13,-134.73"/>
</g>
<!-- Node56 -->
<g id="node8" class="node">
<title>Node56</title>
<g id="a_node8"><a xlink:href="config_2set_8h.html" target="_top" xlink:title="A collection of config items.">
<polygon fill="#fff0f0" stroke="red" points="212,-129 172,-129 172,-110 212,-110 212,-129"/>
<text text-anchor="middle" x="192" y="-117" font-family="Helvetica,sans-Serif" font-size="10.00">set.h</text>
</a>
</g>
</g>
<!-- Node1&#45;&gt;Node56 -->
<g id="edge10" class="edge">
<title>Node1&#45;&gt;Node56</title>
<path fill="none" stroke="#63b8ff" d="M151.93,-164.75C158.56,-157.43 168.22,-146.76 176.39,-137.74"/>
<polygon fill="#63b8ff" stroke="#63b8ff" points="178.77,-140.33 182.89,-130.56 173.58,-135.63 178.77,-140.33"/>
</g>
<!-- Node6&#45;&gt;Node2 -->
<g id="edge6" class="edge">
<title>Node6&#45;&gt;Node2</title>
<path fill="none" stroke="#63b8ff" d="M55.39,-54.75C50.88,-47.73 44.41,-37.64 38.79,-28.87"/>
<polygon fill="#63b8ff" stroke="#63b8ff" points="41.9,-27.24 33.55,-20.72 36.01,-31.02 41.9,-27.24"/>
</g>
<!-- Node55&#45;&gt;Node4 -->
<g id="edge8" class="edge">
<title>Node55&#45;&gt;Node4</title>
<path fill="none" stroke="#63b8ff" d="M97.5,-109.51C105.43,-102 116.95,-91.1 126.54,-82.03"/>
<polygon fill="#63b8ff" stroke="#63b8ff" points="128.68,-84.81 133.54,-75.4 123.87,-79.73 128.68,-84.81"/>
</g>
<!-- Node55&#45;&gt;Node6 -->
<g id="edge9" class="edge">
<title>Node55&#45;&gt;Node6</title>
<path fill="none" stroke="#63b8ff" d="M83.54,-109.75C80.05,-102.88 75.05,-93.08 70.65,-84.45"/>
<polygon fill="#63b8ff" stroke="#63b8ff" points="73.9,-83.11 66.24,-75.79 67.66,-86.29 73.9,-83.11"/>
</g>
<!-- Node56&#45;&gt;Node4 -->
<g id="edge11" class="edge">
<title>Node56&#45;&gt;Node4</title>
<path fill="none" stroke="#63b8ff" d="M184.07,-109.75C177.44,-102.43 167.78,-91.76 159.61,-82.74"/>
<polygon fill="#63b8ff" stroke="#63b8ff" points="162.42,-80.63 153.11,-75.56 157.23,-85.33 162.42,-80.63"/>
</g>
<!-- Node56&#45;&gt;Node5 -->
<g id="edge12" class="edge">
<title>Node56&#45;&gt;Node5</title>
<path fill="none" stroke="#63b8ff" d="M197.61,-109.75C202.12,-102.73 208.59,-92.64 214.21,-83.87"/>
<polygon fill="#63b8ff" stroke="#63b8ff" points="216.99,-86.02 219.45,-75.72 211.1,-82.24 216.99,-86.02"/>
</g>
<!-- Node56&#45;&gt;Node6 -->
<g id="edge13" class="edge">
<title>Node56&#45;&gt;Node6</title>
<path fill="none" stroke="#63b8ff" d="M171.53,-110.22C150.69,-101.79 118.06,-88.58 93.64,-78.71"/>
<polygon fill="#63b8ff" stroke="#63b8ff" points="95.06,-75.5 84.48,-75 92.43,-81.99 95.06,-75.5"/>
</g>
</g>
</svg>
