<?xml version="1.0" encoding="UTF-8" standalone="no"?>
<!DOCTYPE svg PUBLIC "-//W3C//DTD SVG 1.1//EN"
 "http://www.w3.org/Graphics/SVG/1.1/DTD/svg11.dtd">
<!-- Generated by graphviz version 2.44.0 (0)
 -->
<!-- Title: driver_tags_add Pages: 1 -->
<svg width="223pt" height="142pt"
 viewBox="0.00 0.00 223.00 142.00" xmlns="http://www.w3.org/2000/svg" xmlns:xlink="http://www.w3.org/1999/xlink">
<g id="graph0" class="graph" transform="scale(1 1) rotate(0) translate(4 138)">
<title>driver_tags_add</title>
<polygon fill="white" stroke="transparent" points="-4,4 -4,-138 219,-138 219,4 -4,4"/>
<!-- Node1 -->
<g id="node1" class="node">
<title>Node1</title>
<g id="a_node1"><a xlink:title="Add a tag to header.">
<polygon fill="#bfbfbf" stroke="black" points="0,-57.5 0,-76.5 85,-76.5 85,-57.5 0,-57.5"/>
<text text-anchor="middle" x="42.5" y="-64.5" font-family="Helvetica" font-size="10.00">driver_tags_add</text>
</a>
</g>
</g>
<!-- Node2 -->
<g id="node2" class="node">
<title>Node2</title>
<g id="a_node2"><a xlink:href="hash_8c.html#a58acf06077aef78a15c60f37c72403ce" target="_top" xlink:title="Find the HashElem data in a Hash Table element using a key.">
<polygon fill="white" stroke="red" points="126.5,-114.5 126.5,-133.5 209.5,-133.5 209.5,-114.5 126.5,-114.5"/>
<text text-anchor="middle" x="168" y="-121.5" font-family="Helvetica" font-size="10.00">mutt_hash_find</text>
</a>
</g>
</g>
<!-- Node1&#45;&gt;Node2 -->
<g id="edge1" class="edge">
<title>Node1&#45;&gt;Node2</title>
<path fill="none" stroke="midnightblue" d="M62.13,-76.55C77.73,-84.45 100.65,-95.82 121,-105 125.1,-106.85 129.43,-108.73 133.73,-110.56"/>
<polygon fill="midnightblue" stroke="midnightblue" points="132.42,-113.8 143,-114.43 135.12,-107.34 132.42,-113.8"/>
</g>
<!-- Node5 -->
<g id="node3" class="node">
<title>Node5</title>
<g id="a_node3"><a xlink:href="list_8c.html#a4a88586627792b16d55bd2e164a59e0a" target="_top" xlink:title="Find a string in a List.">
<polygon fill="white" stroke="red" points="130.5,-76.5 130.5,-95.5 205.5,-95.5 205.5,-76.5 130.5,-76.5"/>
<text text-anchor="middle" x="168" y="-83.5" font-family="Helvetica" font-size="10.00">mutt_list_find</text>
</a>
</g>
</g>
<!-- Node1&#45;&gt;Node5 -->
<g id="edge2" class="edge">
<title>Node1&#45;&gt;Node5</title>
<path fill="none" stroke="midnightblue" d="M85.31,-73.43C96.46,-75.15 108.57,-77.01 119.97,-78.77"/>
<polygon fill="midnightblue" stroke="midnightblue" points="119.78,-82.28 130.2,-80.34 120.85,-75.36 119.78,-82.28"/>
</g>
<!-- Node8 -->
<g id="node4" class="node">
<title>Node8</title>
<g id="a_node4"><a xlink:href="memory_8c.html#a4c1612d209c7825d55e6a014df352f03" target="_top" xlink:title="Allocate zeroed memory on the heap.">
<polygon fill="white" stroke="red" points="121,-38.5 121,-57.5 215,-57.5 215,-38.5 121,-38.5"/>
<text text-anchor="middle" x="168" y="-45.5" font-family="Helvetica" font-size="10.00">mutt_mem_calloc</text>
</a>
</g>
</g>
<!-- Node1&#45;&gt;Node8 -->
<g id="edge3" class="edge">
<title>Node1&#45;&gt;Node8</title>
<path fill="none" stroke="midnightblue" d="M85.31,-60.57C93.56,-59.3 102.34,-57.95 110.97,-56.62"/>
<polygon fill="midnightblue" stroke="midnightblue" points="111.64,-60.06 120.99,-55.08 110.58,-53.14 111.64,-60.06"/>
</g>
<!-- Node10 -->
<g id="node5" class="node">
<title>Node10</title>
<g id="a_node5"><a xlink:href="mutt_2string_8c.html#a4c2560f787bd1226b977992c16860c98" target="_top" xlink:title="Copy a string, safely.">
<polygon fill="white" stroke="black" points="131,-0.5 131,-19.5 205,-19.5 205,-0.5 131,-0.5"/>
<text text-anchor="middle" x="168" y="-7.5" font-family="Helvetica" font-size="10.00">mutt_str_dup</text>
</a>
</g>
</g>
<!-- Node1&#45;&gt;Node10 -->
<g id="edge4" class="edge">
<title>Node1&#45;&gt;Node10</title>
<path fill="none" stroke="midnightblue" d="M62.13,-57.45C77.73,-49.55 100.65,-38.18 121,-29 125.1,-27.15 129.43,-25.27 133.73,-23.44"/>
<polygon fill="midnightblue" stroke="midnightblue" points="135.12,-26.66 143,-19.57 132.42,-20.2 135.12,-26.66"/>
</g>
</g>
</svg>
