<?xml version="1.0" encoding="UTF-8" standalone="no"?>
<!DOCTYPE svg PUBLIC "-//W3C//DTD SVG 1.1//EN"
 "http://www.w3.org/Graphics/SVG/1.1/DTD/svg11.dtd">
<!-- Generated by graphviz version 2.44.0 (0)
 -->
<!-- Title: mutt_ts_icon Pages: 1 -->
<svg width="230pt" height="66pt"
 viewBox="0.00 0.00 230.00 66.00" xmlns="http://www.w3.org/2000/svg" xmlns:xlink="http://www.w3.org/1999/xlink">
<g id="graph0" class="graph" transform="scale(1 1) rotate(0) translate(4 62)">
<title>mutt_ts_icon</title>
<polygon fill="white" stroke="transparent" points="-4,4 -4,-62 226,-62 226,4 -4,4"/>
<!-- Node1 -->
<g id="node1" class="node">
<title>Node1</title>
<g id="a_node1"><a xlink:title="Set the icon in the terminal title bar.">
<polygon fill="#bfbfbf" stroke="black" points="149,-19.5 149,-38.5 222,-38.5 222,-19.5 149,-19.5"/>
<text text-anchor="middle" x="185.5" y="-26.5" font-family="Helvetica" font-size="10.00">mutt_ts_icon</text>
</a>
</g>
</g>
<!-- Node2 -->
<g id="node2" class="node">
<title>Node2</title>
<g id="a_node2"><a xlink:href="index_8c.html#ab735870edbd985b43b26e446166bd08e" target="_top" xlink:title="Redraw the index &#45; Implements Menu::custom_redraw()">
<polygon fill="white" stroke="red" points="0.5,-38.5 0.5,-57.5 112.5,-57.5 112.5,-38.5 0.5,-38.5"/>
<text text-anchor="middle" x="56.5" y="-45.5" font-family="Helvetica" font-size="10.00">index_custom_redraw</text>
</a>
</g>
</g>
<!-- Node1&#45;&gt;Node2 -->
<g id="edge1" class="edge">
<title>Node1&#45;&gt;Node2</title>
<path fill="none" stroke="midnightblue" d="M138.8,-35.84C130.4,-37.09 121.54,-38.42 112.89,-39.71"/>
<polygon fill="midnightblue" stroke="midnightblue" points="139.41,-39.28 148.79,-34.34 138.38,-32.36 139.41,-39.28"/>
</g>
<!-- Node243 -->
<g id="node3" class="node">
<title>Node243</title>
<g id="a_node3"><a xlink:href="pager_8c.html#a3cada4018e0a7997a5c2d539e5d10b9f" target="_top" xlink:title="Redraw the pager window &#45; Implements Menu::custom_redraw()">
<polygon fill="white" stroke="red" points="0,-0.5 0,-19.5 113,-19.5 113,-0.5 0,-0.5"/>
<text text-anchor="middle" x="56.5" y="-7.5" font-family="Helvetica" font-size="10.00">pager_custom_redraw</text>
</a>
</g>
</g>
<!-- Node1&#45;&gt;Node243 -->
<g id="edge2" class="edge">
<title>Node1&#45;&gt;Node243</title>
<path fill="none" stroke="midnightblue" d="M138.66,-22.14C130.46,-20.91 121.82,-19.62 113.37,-18.36"/>
<polygon fill="midnightblue" stroke="midnightblue" points="138.38,-25.64 148.79,-23.66 139.41,-18.72 138.38,-25.64"/>
</g>
</g>
</svg>
