<?xml version="1.0" encoding="UTF-8" standalone="no"?>
<!DOCTYPE svg PUBLIC "-//W3C//DTD SVG 1.1//EN"
 "http://www.w3.org/Graphics/SVG/1.1/DTD/svg11.dtd">
<!-- Generated by graphviz version 2.40.1 (20161225.0304)
 -->
<!-- Title: test/config/bool.c Pages: 1 -->
<svg width="634pt" height="140pt"
 viewBox="0.00 0.00 634.00 140.00" xmlns="http://www.w3.org/2000/svg" xmlns:xlink="http://www.w3.org/1999/xlink">
<g id="graph0" class="graph" transform="scale(1 1) rotate(0) translate(4 136)">
<title>test/config/bool.c</title>
<polygon fill="#ffffff" stroke="transparent" points="-4,4 -4,-136 630,-136 630,4 -4,4"/>
<!-- Node0 -->
<g id="node1" class="node">
<title>Node0</title>
<polygon fill="#bfbfbf" stroke="#000000" points="247,-112.5 247,-131.5 347,-131.5 347,-112.5 247,-112.5"/>
<text text-anchor="middle" x="297" y="-119.5" font-family="Helvetica,sans-Serif" font-size="10.00" fill="#000000">test/config/bool.c</text>
</g>
<!-- Node1 -->
<g id="node2" class="node">
<title>Node1</title>
<g id="a_node2"><a xlink:href="acutest_8h.html" target="_top" xlink:title="acutest.h">
<polygon fill="#ffffff" stroke="#ff0000" points="23,-56.5 23,-75.5 85,-75.5 85,-56.5 23,-56.5"/>
<text text-anchor="middle" x="54" y="-63.5" font-family="Helvetica,sans-Serif" font-size="10.00" fill="#000000">acutest.h</text>
</a>
</g>
</g>
<!-- Node0&#45;&gt;Node1 -->
<g id="edge1" class="edge">
<title>Node0&#45;&gt;Node1</title>
<path fill="none" stroke="#191970" d="M253.7713,-112.4952C214.7996,-103.8614 155.6607,-90.5991 95.4834,-76.3201"/>
<polygon fill="#191970" stroke="#191970" points="95.9655,-72.8371 85.4268,-73.9265 94.3446,-79.6469 95.9655,-72.8371"/>
</g>
<!-- Node4 -->
<g id="node3" class="node">
<title>Node4</title>
<polygon fill="#ffffff" stroke="#bfbfbf" points="0,-.5 0,-19.5 50,-19.5 50,-.5 0,-.5"/>
<text text-anchor="middle" x="25" y="-7.5" font-family="Helvetica,sans-Serif" font-size="10.00" fill="#000000">stdio.h</text>
</g>
<!-- Node0&#45;&gt;Node4 -->
<g id="edge7" class="edge">
<title>Node0&#45;&gt;Node4</title>
<path fill="none" stroke="#191970" d="M246.8987,-117.3633C169.6841,-109.7059 28.8957,-93.5125 14,-76 2.9928,-63.0591 8.1522,-43.3637 14.5991,-28.8549"/>
<polygon fill="#191970" stroke="#191970" points="17.7886,-30.3009 19.0852,-19.7857 11.5142,-27.1973 17.7886,-30.3009"/>
</g>
<!-- Node8 -->
<g id="node4" class="node">
<title>Node8</title>
<polygon fill="#ffffff" stroke="#bfbfbf" points="103.5,-56.5 103.5,-75.5 158.5,-75.5 158.5,-56.5 103.5,-56.5"/>
<text text-anchor="middle" x="131" y="-63.5" font-family="Helvetica,sans-Serif" font-size="10.00" fill="#000000">config.h</text>
</g>
<!-- Node0&#45;&gt;Node8 -->
<g id="edge3" class="edge">
<title>Node0&#45;&gt;Node8</title>
<path fill="none" stroke="#191970" d="M268.4636,-112.3733C240.8132,-103.0454 198.7248,-88.8469 168.4056,-78.6188"/>
<polygon fill="#191970" stroke="#191970" points="169.2066,-75.1952 158.6124,-75.315 166.969,-81.828 169.2066,-75.1952"/>
</g>
<!-- Node9 -->
<g id="node5" class="node">
<title>Node9</title>
<polygon fill="#ffffff" stroke="#bfbfbf" points="176.5,-56.5 176.5,-75.5 229.5,-75.5 229.5,-56.5 176.5,-56.5"/>
<text text-anchor="middle" x="203" y="-63.5" font-family="Helvetica,sans-Serif" font-size="10.00" fill="#000000">limits.h</text>
</g>
<!-- Node0&#45;&gt;Node9 -->
<g id="edge4" class="edge">
<title>Node0&#45;&gt;Node9</title>
<path fill="none" stroke="#191970" d="M280.6264,-112.2455C266.0692,-103.5731 244.569,-90.7645 227.8848,-80.825"/>
<polygon fill="#191970" stroke="#191970" points="229.5683,-77.7539 219.1859,-75.6427 225.9856,-83.7676 229.5683,-77.7539"/>
</g>
<!-- Node10 -->
<g id="node6" class="node">
<title>Node10</title>
<polygon fill="#ffffff" stroke="#bfbfbf" points="228,-.5 228,-19.5 290,-19.5 290,-.5 228,-.5"/>
<text text-anchor="middle" x="259" y="-7.5" font-family="Helvetica,sans-Serif" font-size="10.00" fill="#000000">stdbool.h</text>
</g>
<!-- Node0&#45;&gt;Node10 -->
<g id="edge5" class="edge">
<title>Node0&#45;&gt;Node10</title>
<path fill="none" stroke="#191970" d="M292.2921,-112.2929C287.948,-103.0936 281.5072,-88.8154 277,-76 271.5818,-60.5944 266.7912,-42.6977 263.5171,-29.4301"/>
<polygon fill="#191970" stroke="#191970" points="266.8786,-28.4386 261.143,-19.5305 260.0716,-30.071 266.8786,-28.4386"/>
</g>
<!-- Node11 -->
<g id="node7" class="node">
<title>Node11</title>
<polygon fill="#ffffff" stroke="#bfbfbf" points="319.5,-.5 319.5,-19.5 372.5,-19.5 372.5,-.5 319.5,-.5"/>
<text text-anchor="middle" x="346" y="-7.5" font-family="Helvetica,sans-Serif" font-size="10.00" fill="#000000">stdint.h</text>
</g>
<!-- Node0&#45;&gt;Node11 -->
<g id="edge6" class="edge">
<title>Node0&#45;&gt;Node11</title>
<path fill="none" stroke="#191970" d="M343.5409,-112.4351C363.574,-105.7628 385.0925,-94.5844 397,-76 408.6145,-57.873 389.538,-38.5407 371.5008,-25.5167"/>
<polygon fill="#191970" stroke="#191970" points="373.1096,-22.3788 362.8687,-19.6628 369.1807,-28.1722 373.1096,-22.3788"/>
</g>
<!-- Node12 -->
<g id="node8" class="node">
<title>Node12</title>
<g id="a_node8"><a xlink:href="mutt_2lib_8h.html" target="_top" xlink:title="Convenience wrapper for the library headers. ">
<polygon fill="#ffffff" stroke="#ff0000" points="482,-56.5 482,-75.5 546,-75.5 546,-56.5 482,-56.5"/>
<text text-anchor="middle" x="514" y="-63.5" font-family="Helvetica,sans-Serif" font-size="10.00" fill="#000000">mutt/lib.h</text>
</a>
</g>
</g>
<!-- Node0&#45;&gt;Node12 -->
<g id="edge8" class="edge">
<title>Node0&#45;&gt;Node12</title>
<path fill="none" stroke="#191970" d="M334.3036,-112.3733C372.6207,-102.485 432.1478,-87.1232 472.0724,-76.82"/>
<polygon fill="#191970" stroke="#191970" points="472.9674,-80.2038 481.7756,-74.316 471.2182,-73.4259 472.9674,-80.2038"/>
</g>
<!-- Node49 -->
<g id="node9" class="node">
<title>Node49</title>
<g id="a_node9"><a xlink:href="config_2common_8h.html" target="_top" xlink:title="Shared Testing Code. ">
<polygon fill="#ffffff" stroke="#000000" points="286.5,-56.5 286.5,-75.5 387.5,-75.5 387.5,-56.5 286.5,-56.5"/>
<text text-anchor="middle" x="337" y="-63.5" font-family="Helvetica,sans-Serif" font-size="10.00" fill="#000000">config/common.h</text>
</a>
</g>
</g>
<!-- Node0&#45;&gt;Node49 -->
<g id="edge9" class="edge">
<title>Node0&#45;&gt;Node49</title>
<path fill="none" stroke="#191970" d="M303.9675,-112.2455C309.5311,-104.4564 317.478,-93.3308 324.1829,-83.9439"/>
<polygon fill="#191970" stroke="#191970" points="327.148,-85.8144 330.1124,-75.6427 321.4519,-81.7457 327.148,-85.8144"/>
</g>
<!-- Node50 -->
<g id="node10" class="node">
<title>Node50</title>
<g id="a_node10"><a xlink:href="config_2lib_8h.html" target="_top" xlink:title="Convenience wrapper for the config headers. ">
<polygon fill="#ffffff" stroke="#ff0000" points="409,-.5 409,-19.5 479,-19.5 479,-.5 409,-.5"/>
<text text-anchor="middle" x="444" y="-7.5" font-family="Helvetica,sans-Serif" font-size="10.00" fill="#000000">config/lib.h</text>
</a>
</g>
</g>
<!-- Node0&#45;&gt;Node50 -->
<g id="edge13" class="edge">
<title>Node0&#45;&gt;Node50</title>
<path fill="none" stroke="#191970" d="M341.6322,-112.4178C364.8979,-105.5342 392.4888,-94.1738 412,-76 425.3656,-63.5505 433.7997,-44.332 438.6326,-29.8383"/>
<polygon fill="#191970" stroke="#191970" points="442.1037,-30.4512 441.6483,-19.8662 435.4034,-28.4248 442.1037,-30.4512"/>
</g>
<!-- Node68 -->
<g id="node11" class="node">
<title>Node68</title>
<g id="a_node11"><a xlink:href="core_2lib_8h.html" target="_top" xlink:title="Convenience wrapper for the core headers. ">
<polygon fill="#ffffff" stroke="#ff0000" points="564,-56.5 564,-75.5 626,-75.5 626,-56.5 564,-56.5"/>
<text text-anchor="middle" x="595" y="-63.5" font-family="Helvetica,sans-Serif" font-size="10.00" fill="#000000">core/lib.h</text>
</a>
</g>
</g>
<!-- Node0&#45;&gt;Node68 -->
<g id="edge14" class="edge">
<title>Node0&#45;&gt;Node68</title>
<path fill="none" stroke="#191970" d="M347.1401,-114.1057C397.1335,-106.0002 476.3189,-92.5305 553.6895,-76.1786"/>
<polygon fill="#191970" stroke="#191970" points="554.554,-79.573 563.6045,-74.0649 553.0945,-72.7269 554.554,-79.573"/>
</g>
<!-- Node1&#45;&gt;Node4 -->
<g id="edge2" class="edge">
<title>Node1&#45;&gt;Node4</title>
<path fill="none" stroke="#191970" d="M48.9486,-56.2455C44.9981,-48.617 39.3903,-37.7881 34.5942,-28.5267"/>
<polygon fill="#191970" stroke="#191970" points="37.7001,-26.9131 29.9935,-19.6427 31.4841,-30.1321 37.7001,-26.9131"/>
</g>
<!-- Node49&#45;&gt;Node10 -->
<g id="edge10" class="edge">
<title>Node49&#45;&gt;Node10</title>
<path fill="none" stroke="#191970" d="M323.4134,-56.2455C311.6695,-47.814 294.4801,-35.4729 280.8118,-25.6598"/>
<polygon fill="#191970" stroke="#191970" points="282.5954,-22.6316 272.4309,-19.6427 278.5129,-28.3179 282.5954,-22.6316"/>
</g>
<!-- Node49&#45;&gt;Node11 -->
<g id="edge11" class="edge">
<title>Node49&#45;&gt;Node11</title>
<path fill="none" stroke="#191970" d="M338.5677,-56.2455C339.7421,-48.9382 341.3884,-38.6944 342.8332,-29.7046"/>
<polygon fill="#191970" stroke="#191970" points="346.3191,-30.0714 344.4503,-19.6427 339.4078,-28.9606 346.3191,-30.0714"/>
</g>
<!-- Node49&#45;&gt;Node50 -->
<g id="edge12" class="edge">
<title>Node49&#45;&gt;Node50</title>
<path fill="none" stroke="#191970" d="M355.638,-56.2455C372.4386,-47.4527 397.3634,-34.4079 416.4618,-24.4125"/>
<polygon fill="#191970" stroke="#191970" points="418.3386,-27.3807 425.5756,-19.6427 415.0927,-21.1787 418.3386,-27.3807"/>
</g>
</g>
</svg>
