<?xml version="1.0" encoding="UTF-8" standalone="no"?>
<!DOCTYPE svg PUBLIC "-//W3C//DTD SVG 1.1//EN"
 "http://www.w3.org/Graphics/SVG/1.1/DTD/svg11.dtd">
<!-- Generated by graphviz version 7.1.0 (0)
 -->
<!-- Title: conn/tunnel.c Pages: 1 -->
<svg width="982pt" height="192pt"
 viewBox="0.00 0.00 982.00 192.00" xmlns="http://www.w3.org/2000/svg" xmlns:xlink="http://www.w3.org/1999/xlink">
<g id="graph0" class="graph" transform="scale(1 1) rotate(0) translate(4 188)">
<title>conn/tunnel.c</title>
<!-- Node1 -->
<g id="node1" class="node">
<title>Node1</title>
<g id="a_node1"><a xlink:title="Support for network tunnelling.">
<polygon fill="#999999" stroke="#666666" points="503,-184 423,-184 423,-165 503,-165 503,-184"/>
<text text-anchor="middle" x="463" y="-172" font-family="Helvetica,sans-Serif" font-size="10.00">conn/tunnel.c</text>
</a>
</g>
</g>
<!-- Node2 -->
<g id="node2" class="node">
<title>Node2</title>
<g id="a_node2"><a xlink:title=" ">
<polygon fill="#e0e0e0" stroke="#999999" points="54,-129 0,-129 0,-110 54,-110 54,-129"/>
<text text-anchor="middle" x="27" y="-117" font-family="Helvetica,sans-Serif" font-size="10.00">config.h</text>
</a>
</g>
</g>
<!-- Node1&#45;&gt;Node2 -->
<g id="edge1" class="edge">
<title>Node1&#45;&gt;Node2</title>
<path fill="none" stroke="#63b8ff" d="M422.75,-170.64C352.28,-165.29 201.85,-152.31 65.49,-129.24"/>
<polygon fill="#63b8ff" stroke="#63b8ff" points="66.39,-125.84 55.94,-127.6 65.2,-132.74 66.39,-125.84"/>
</g>
<!-- Node3 -->
<g id="node3" class="node">
<title>Node3</title>
<g id="a_node3"><a xlink:title=" ">
<polygon fill="#e0e0e0" stroke="#999999" points="125.5,-129 72.5,-129 72.5,-110 125.5,-110 125.5,-129"/>
<text text-anchor="middle" x="99" y="-117" font-family="Helvetica,sans-Serif" font-size="10.00">errno.h</text>
</a>
</g>
</g>
<!-- Node1&#45;&gt;Node3 -->
<g id="edge2" class="edge">
<title>Node1&#45;&gt;Node3</title>
<path fill="none" stroke="#63b8ff" d="M422.66,-169.3C362.63,-162.78 246.05,-149.05 136.89,-129.17"/>
<polygon fill="#63b8ff" stroke="#63b8ff" points="137.63,-125.75 127.16,-127.38 136.36,-132.63 137.63,-125.75"/>
</g>
<!-- Node4 -->
<g id="node4" class="node">
<title>Node4</title>
<g id="a_node4"><a xlink:title=" ">
<polygon fill="#e0e0e0" stroke="#999999" points="190,-129 144,-129 144,-110 190,-110 190,-129"/>
<text text-anchor="middle" x="167" y="-117" font-family="Helvetica,sans-Serif" font-size="10.00">fcntl.h</text>
</a>
</g>
</g>
<!-- Node1&#45;&gt;Node4 -->
<g id="edge3" class="edge">
<title>Node1&#45;&gt;Node4</title>
<path fill="none" stroke="#63b8ff" d="M422.94,-167.33C371.94,-159.3 281.16,-144.48 204,-129 203.18,-128.83 202.34,-128.66 201.5,-128.49"/>
<polygon fill="#63b8ff" stroke="#63b8ff" points="202.44,-125.11 191.92,-126.41 200.96,-131.95 202.44,-125.11"/>
</g>
<!-- Node5 -->
<g id="node5" class="node">
<title>Node5</title>
<g id="a_node5"><a xlink:title=" ">
<polygon fill="#e0e0e0" stroke="#999999" points="791,-19 731,-19 731,0 791,0 791,-19"/>
<text text-anchor="middle" x="761" y="-7" font-family="Helvetica,sans-Serif" font-size="10.00">stdbool.h</text>
</a>
</g>
</g>
<!-- Node1&#45;&gt;Node5 -->
<g id="edge4" class="edge">
<title>Node1&#45;&gt;Node5</title>
<path fill="none" stroke="#63b8ff" d="M503.34,-171.81C597.28,-167.45 824.4,-154.37 847,-129 877.93,-94.28 820.74,-48.67 785.57,-25.46"/>
<polygon fill="#63b8ff" stroke="#63b8ff" points="787.49,-22.53 777.18,-20.09 783.72,-28.43 787.49,-22.53"/>
</g>
<!-- Node6 -->
<g id="node6" class="node">
<title>Node6</title>
<g id="a_node6"><a xlink:title=" ">
<polygon fill="#e0e0e0" stroke="#999999" points="299.5,-129 246.5,-129 246.5,-110 299.5,-110 299.5,-129"/>
<text text-anchor="middle" x="273" y="-117" font-family="Helvetica,sans-Serif" font-size="10.00">string.h</text>
</a>
</g>
</g>
<!-- Node1&#45;&gt;Node6 -->
<g id="edge5" class="edge">
<title>Node1&#45;&gt;Node6</title>
<path fill="none" stroke="#63b8ff" d="M430.77,-164.51C397.52,-155.24 345.71,-140.78 310.61,-130.99"/>
<polygon fill="#63b8ff" stroke="#63b8ff" points="311.88,-127.71 301.31,-128.4 310,-134.45 311.88,-127.71"/>
</g>
<!-- Node7 -->
<g id="node7" class="node">
<title>Node7</title>
<g id="a_node7"><a xlink:title=" ">
<polygon fill="#e0e0e0" stroke="#999999" points="380,-129 318,-129 318,-110 380,-110 380,-129"/>
<text text-anchor="middle" x="349" y="-117" font-family="Helvetica,sans-Serif" font-size="10.00">sys/wait.h</text>
</a>
</g>
</g>
<!-- Node1&#45;&gt;Node7 -->
<g id="edge6" class="edge">
<title>Node1&#45;&gt;Node7</title>
<path fill="none" stroke="#63b8ff" d="M443.66,-164.51C425.78,-156.2 398.96,-143.73 378.43,-134.18"/>
<polygon fill="#63b8ff" stroke="#63b8ff" points="379.97,-131.04 369.43,-130 377.02,-137.39 379.97,-131.04"/>
</g>
<!-- Node8 -->
<g id="node8" class="node">
<title>Node8</title>
<g id="a_node8"><a xlink:title=" ">
<polygon fill="#e0e0e0" stroke="#999999" points="561.5,-74 514.5,-74 514.5,-55 561.5,-55 561.5,-74"/>
<text text-anchor="middle" x="538" y="-62" font-family="Helvetica,sans-Serif" font-size="10.00">time.h</text>
</a>
</g>
</g>
<!-- Node1&#45;&gt;Node8 -->
<g id="edge7" class="edge">
<title>Node1&#45;&gt;Node8</title>
<path fill="none" stroke="#63b8ff" d="M451.49,-164.61C436.7,-152.09 414.36,-128.68 427,-110 443.85,-85.1 477.16,-74.13 502.91,-69.3"/>
<polygon fill="#63b8ff" stroke="#63b8ff" points="503.32,-72.78 512.63,-67.72 502.2,-65.87 503.32,-72.78"/>
</g>
<!-- Node9 -->
<g id="node9" class="node">
<title>Node9</title>
<g id="a_node9"><a xlink:title=" ">
<polygon fill="#e0e0e0" stroke="#999999" points="490,-129 436,-129 436,-110 490,-110 490,-129"/>
<text text-anchor="middle" x="463" y="-117" font-family="Helvetica,sans-Serif" font-size="10.00">unistd.h</text>
</a>
</g>
</g>
<!-- Node1&#45;&gt;Node9 -->
<g id="edge8" class="edge">
<title>Node1&#45;&gt;Node9</title>
<path fill="none" stroke="#63b8ff" d="M463,-164.75C463,-158.27 463,-149.16 463,-140.9"/>
<polygon fill="#63b8ff" stroke="#63b8ff" points="466.5,-140.96 463,-130.96 459.5,-140.96 466.5,-140.96"/>
</g>
<!-- Node10 -->
<g id="node10" class="node">
<title>Node10</title>
<g id="a_node10"><a xlink:href="conn_2private_8h.html" target="_top" xlink:title="Shared functions that are private to Connections.">
<polygon fill="#fff0f0" stroke="red" points="567.5,-129 508.5,-129 508.5,-110 567.5,-110 567.5,-129"/>
<text text-anchor="middle" x="538" y="-117" font-family="Helvetica,sans-Serif" font-size="10.00">private.h</text>
</a>
</g>
</g>
<!-- Node1&#45;&gt;Node10 -->
<g id="edge9" class="edge">
<title>Node1&#45;&gt;Node10</title>
<path fill="none" stroke="#63b8ff" d="M475.72,-164.51C486.78,-156.7 503.04,-145.21 516.17,-135.93"/>
<polygon fill="#63b8ff" stroke="#63b8ff" points="518.08,-138.86 524.23,-130.23 514.04,-133.14 518.08,-138.86"/>
</g>
<!-- Node12 -->
<g id="node11" class="node">
<title>Node12</title>
<g id="a_node11"><a xlink:href="mutt_2lib_8h.html" target="_top" xlink:title="Convenience wrapper for the library headers.">
<polygon fill="#fff0f0" stroke="red" points="648,-129 586,-129 586,-110 648,-110 648,-129"/>
<text text-anchor="middle" x="617" y="-117" font-family="Helvetica,sans-Serif" font-size="10.00">mutt/lib.h</text>
</a>
</g>
</g>
<!-- Node1&#45;&gt;Node12 -->
<g id="edge11" class="edge">
<title>Node1&#45;&gt;Node12</title>
<path fill="none" stroke="#63b8ff" d="M489.12,-164.51C514.2,-155.88 552.31,-142.76 580.4,-133.1"/>
<polygon fill="#63b8ff" stroke="#63b8ff" points="581.26,-136.5 589.57,-129.94 578.98,-129.88 581.26,-136.5"/>
</g>
<!-- Node58 -->
<g id="node12" class="node">
<title>Node58</title>
<g id="a_node12"><a xlink:href="config_2lib_8h.html" target="_top" xlink:title="Convenience wrapper for the config headers.">
<polygon fill="#fff0f0" stroke="red" points="374,-74 306,-74 306,-55 374,-55 374,-74"/>
<text text-anchor="middle" x="340" y="-62" font-family="Helvetica,sans-Serif" font-size="10.00">config/lib.h</text>
</a>
</g>
</g>
<!-- Node1&#45;&gt;Node58 -->
<g id="edge12" class="edge">
<title>Node1&#45;&gt;Node58</title>
<path fill="none" stroke="#63b8ff" d="M422.58,-171.51C364.02,-167.68 260.05,-157.03 237,-129 216.38,-103.93 258.18,-85.99 294.55,-75.71"/>
<polygon fill="#63b8ff" stroke="#63b8ff" points="295.37,-79.11 304.13,-73.15 293.57,-72.35 295.37,-79.11"/>
</g>
<!-- Node72 -->
<g id="node13" class="node">
<title>Node72</title>
<g id="a_node13"><a xlink:href="core_2lib_8h.html" target="_top" xlink:title="Convenience wrapper for the core headers.">
<polygon fill="#fff0f0" stroke="red" points="822,-129 762,-129 762,-110 822,-110 822,-129"/>
<text text-anchor="middle" x="792" y="-117" font-family="Helvetica,sans-Serif" font-size="10.00">core/lib.h</text>
</a>
</g>
</g>
<!-- Node1&#45;&gt;Node72 -->
<g id="edge14" class="edge">
<title>Node1&#45;&gt;Node72</title>
<path fill="none" stroke="#63b8ff" d="M503.48,-168.1C557.52,-160.71 656.45,-146.58 750.64,-129.34"/>
<polygon fill="#63b8ff" stroke="#63b8ff" points="751.12,-132.81 760.32,-127.55 749.85,-125.93 751.12,-132.81"/>
</g>
<!-- Node82 -->
<g id="node14" class="node">
<title>Node82</title>
<g id="a_node14"><a xlink:href="connaccount_8h.html" target="_top" xlink:title="Connection Credentials.">
<polygon fill="#fff0f0" stroke="red" points="803,-74 719,-74 719,-55 803,-55 803,-74"/>
<text text-anchor="middle" x="761" y="-62" font-family="Helvetica,sans-Serif" font-size="10.00">connaccount.h</text>
</a>
</g>
</g>
<!-- Node1&#45;&gt;Node82 -->
<g id="edge15" class="edge">
<title>Node1&#45;&gt;Node82</title>
<path fill="none" stroke="#63b8ff" d="M503.35,-171.59C594.39,-166.87 809.52,-153.23 831,-129 847.55,-110.33 819.74,-91.44 794.44,-79.17"/>
<polygon fill="#63b8ff" stroke="#63b8ff" points="796.17,-76.11 785.62,-75.13 793.25,-82.48 796.17,-76.11"/>
</g>
<!-- Node83 -->
<g id="node15" class="node">
<title>Node83</title>
<g id="a_node15"><a xlink:href="connection_8h.html" target="_top" xlink:title="An open network connection (socket)">
<polygon fill="#fff0f0" stroke="red" points="743.5,-129 666.5,-129 666.5,-110 743.5,-110 743.5,-129"/>
<text text-anchor="middle" x="705" y="-117" font-family="Helvetica,sans-Serif" font-size="10.00">connection.h</text>
</a>
</g>
</g>
<!-- Node1&#45;&gt;Node83 -->
<g id="edge17" class="edge">
<title>Node1&#45;&gt;Node83</title>
<path fill="none" stroke="#63b8ff" d="M503.23,-164.69C544.99,-155.54 610.36,-141.23 655.31,-131.38"/>
<polygon fill="#63b8ff" stroke="#63b8ff" points="655.78,-134.86 664.79,-129.31 654.28,-128.03 655.78,-134.86"/>
</g>
<!-- Node84 -->
<g id="node16" class="node">
<title>Node84</title>
<g id="a_node16"><a xlink:title=" ">
<polygon fill="#e0e0e0" stroke="#999999" points="974,-129 916,-129 916,-110 974,-110 974,-129"/>
<text text-anchor="middle" x="945" y="-117" font-family="Helvetica,sans-Serif" font-size="10.00">globals.h</text>
</a>
</g>
</g>
<!-- Node1&#45;&gt;Node84 -->
<g id="edge20" class="edge">
<title>Node1&#45;&gt;Node84</title>
<path fill="none" stroke="#63b8ff" d="M503.41,-170.68C580.96,-164.99 755.96,-150.79 902,-129 902.99,-128.85 903.99,-128.7 904.99,-128.54"/>
<polygon fill="#63b8ff" stroke="#63b8ff" points="905.18,-132.06 914.43,-126.89 903.98,-125.16 905.18,-132.06"/>
</g>
<!-- Node10&#45;&gt;Node8 -->
<g id="edge10" class="edge">
<title>Node10&#45;&gt;Node8</title>
<path fill="none" stroke="#63b8ff" d="M538,-109.75C538,-103.27 538,-94.16 538,-85.9"/>
<polygon fill="#63b8ff" stroke="#63b8ff" points="541.5,-85.96 538,-75.96 534.5,-85.96 541.5,-85.96"/>
</g>
<!-- Node58&#45;&gt;Node5 -->
<g id="edge13" class="edge">
<title>Node58&#45;&gt;Node5</title>
<path fill="none" stroke="#63b8ff" d="M374.45,-59.16C451.27,-49.49 636.35,-26.19 719.42,-15.73"/>
<polygon fill="#63b8ff" stroke="#63b8ff" points="719.69,-19.23 729.17,-14.51 718.81,-12.28 719.69,-19.23"/>
</g>
<!-- Node82&#45;&gt;Node5 -->
<g id="edge16" class="edge">
<title>Node82&#45;&gt;Node5</title>
<path fill="none" stroke="#63b8ff" d="M761,-54.75C761,-48.27 761,-39.16 761,-30.9"/>
<polygon fill="#63b8ff" stroke="#63b8ff" points="764.5,-30.96 761,-20.96 757.5,-30.96 764.5,-30.96"/>
</g>
<!-- Node83&#45;&gt;Node8 -->
<g id="edge18" class="edge">
<title>Node83&#45;&gt;Node8</title>
<path fill="none" stroke="#63b8ff" d="M676.67,-109.51C647.91,-100.38 603.35,-86.24 572.54,-76.46"/>
<polygon fill="#63b8ff" stroke="#63b8ff" points="573.89,-73.22 563.3,-73.53 571.78,-79.89 573.89,-73.22"/>
</g>
<!-- Node83&#45;&gt;Node82 -->
<g id="edge19" class="edge">
<title>Node83&#45;&gt;Node82</title>
<path fill="none" stroke="#63b8ff" d="M714.5,-109.51C722.43,-102 733.95,-91.1 743.54,-82.03"/>
<polygon fill="#63b8ff" stroke="#63b8ff" points="745.68,-84.81 750.54,-75.4 740.87,-79.73 745.68,-84.81"/>
</g>
</g>
</svg>
