<?xml version="1.0" encoding="UTF-8" standalone="no"?>
<!DOCTYPE svg PUBLIC "-//W3C//DTD SVG 1.1//EN"
 "http://www.w3.org/Graphics/SVG/1.1/DTD/svg11.dtd">
<!-- Generated by graphviz version 2.40.1 (20161225.0304)
 -->
<!-- Title: url_tostring Pages: 1 -->
<svg width="374pt" height="560pt"
 viewBox="0.00 0.00 374.00 560.00" xmlns="http://www.w3.org/2000/svg" xmlns:xlink="http://www.w3.org/1999/xlink">
<g id="graph0" class="graph" transform="scale(1 1) rotate(0) translate(4 556)">
<title>url_tostring</title>
<polygon fill="#ffffff" stroke="transparent" points="-4,4 -4,-556 370,-556 370,4 -4,4"/>
<!-- Node3352 -->
<g id="node1" class="node">
<title>Node3352</title>
<polygon fill="#bfbfbf" stroke="#000000" points="0,-266.5 0,-285.5 72,-285.5 72,-266.5 0,-266.5"/>
<text text-anchor="middle" x="36" y="-273.5" font-family="Helvetica,sans-Serif" font-size="10.00" fill="#000000">url_tostring</text>
</g>
<!-- Node3353 -->
<g id="node2" class="node">
<title>Node3353</title>
<g id="a_node2"><a xlink:href="bcache_8c.html#a5a6da9a92e635c11bf3af21611c6ea5f" target="_top" xlink:title="Create the cache path for a given account/mailbox. ">
<polygon fill="#ffffff" stroke="#ff0000" points="129.5,-532.5 129.5,-551.5 207.5,-551.5 207.5,-532.5 129.5,-532.5"/>
<text text-anchor="middle" x="168.5" y="-539.5" font-family="Helvetica,sans-Serif" font-size="10.00" fill="#000000">bcache_path</text>
</a>
</g>
</g>
<!-- Node3352&#45;&gt;Node3353 -->
<g id="edge1" class="edge">
<title>Node3352&#45;&gt;Node3353</title>
<path fill="none" stroke="#191970" d="M39.3096,-295.8321C48.4647,-348.4673 75.6045,-489.9283 108,-523 113.7779,-528.8985 121.3631,-532.9717 129.2007,-535.7827"/>
<polygon fill="#191970" stroke="#191970" points="42.7228,-295.0268 37.5898,-285.7584 35.8226,-296.2048 42.7228,-295.0268"/>
</g>
<!-- Node3856 -->
<g id="node3" class="node">
<title>Node3856</title>
<g id="a_node3"><a xlink:href="command_8c.html#a0e79cb73e383a2b78a80795d488193c7" target="_top" xlink:title="Parse a server LSUB (list subscribed mailboxes) ">
<polygon fill="#ffffff" stroke="#ff0000" points="121,-494.5 121,-513.5 216,-513.5 216,-494.5 121,-494.5"/>
<text text-anchor="middle" x="168.5" y="-501.5" font-family="Helvetica,sans-Serif" font-size="10.00" fill="#000000">cmd_parse_lsub</text>
</a>
</g>
</g>
<!-- Node3352&#45;&gt;Node3856 -->
<g id="edge2" class="edge">
<title>Node3352&#45;&gt;Node3856</title>
<path fill="none" stroke="#191970" d="M37.0996,-296.0853C40.4506,-337.3949 53.9421,-432.4069 108,-485 112.0244,-488.9153 116.8464,-492.0247 121.9886,-494.4939"/>
<polygon fill="#191970" stroke="#191970" points="40.5795,-295.6726 36.398,-285.9379 33.5961,-296.1555 40.5795,-295.6726"/>
</g>
<!-- Node3860 -->
<g id="node4" class="node">
<title>Node3860</title>
<g id="a_node4"><a xlink:href="imap_8c.html#ac58d293937015b8560ee115503d199ff" target="_top" xlink:title="Look for completion matches for mailboxes. ">
<polygon fill="#ffffff" stroke="#ff0000" points="121.5,-456.5 121.5,-475.5 215.5,-475.5 215.5,-456.5 121.5,-456.5"/>
<text text-anchor="middle" x="168.5" y="-463.5" font-family="Helvetica,sans-Serif" font-size="10.00" fill="#000000">complete_hosts</text>
</a>
</g>
</g>
<!-- Node3352&#45;&gt;Node3860 -->
<g id="edge3" class="edge">
<title>Node3352&#45;&gt;Node3860</title>
<path fill="none" stroke="#191970" d="M38.825,-295.8028C44.9252,-331.2587 62.6393,-405.724 108,-447 112.2342,-450.8529 117.2445,-453.9245 122.5409,-456.3733"/>
<polygon fill="#191970" stroke="#191970" points="42.2546,-295.0822 37.2322,-285.7534 35.3409,-296.178 42.2546,-295.0822"/>
</g>
<!-- Node3861 -->
<g id="node5" class="node">
<title>Node3861</title>
<g id="a_node5"><a xlink:href="imap_2lib_8h.html#a45a0368f1fc09168bed51ec53ad91bb5" target="_top" xlink:title="Canonicalise a Mailbox path &#45; Implements MxOps::path_canon() ">
<polygon fill="#ffffff" stroke="#ff0000" points="117,-418.5 117,-437.5 220,-437.5 220,-418.5 117,-418.5"/>
<text text-anchor="middle" x="168.5" y="-425.5" font-family="Helvetica,sans-Serif" font-size="10.00" fill="#000000">imap_path_canon</text>
</a>
</g>
</g>
<!-- Node3352&#45;&gt;Node3861 -->
<g id="edge4" class="edge">
<title>Node3352&#45;&gt;Node3861</title>
<path fill="none" stroke="#191970" d="M41.3604,-295.4008C50.3432,-324.3366 71.173,-378.639 108,-409 112.6721,-412.8517 118.1291,-415.9254 123.8183,-418.3776"/>
<polygon fill="#191970" stroke="#191970" points="44.6728,-294.2587 38.4891,-285.6557 37.9582,-296.2372 44.6728,-294.2587"/>
</g>
<!-- Node3863 -->
<g id="node6" class="node">
<title>Node3863</title>
<g id="a_node6"><a xlink:href="util_8c.html#a99de91a4d9fc2f36a4655277554e2c8f" target="_top" xlink:title="Prettify an IMAP mailbox name. ">
<polygon fill="#ffffff" stroke="#ff0000" points="108,-380.5 108,-399.5 229,-399.5 229,-380.5 108,-380.5"/>
<text text-anchor="middle" x="168.5" y="-387.5" font-family="Helvetica,sans-Serif" font-size="10.00" fill="#000000">imap_pretty_mailbox</text>
</a>
</g>
</g>
<!-- Node3352&#45;&gt;Node3863 -->
<g id="edge5" class="edge">
<title>Node3352&#45;&gt;Node3863</title>
<path fill="none" stroke="#191970" d="M45.5238,-294.7356C57.3562,-316.1896 79.5112,-350.9492 108,-371 113.4918,-374.8652 119.8015,-377.9672 126.2275,-380.4502"/>
<polygon fill="#191970" stroke="#191970" points="48.4803,-292.8407 40.6947,-285.655 42.3,-296.1275 48.4803,-292.8407"/>
</g>
<!-- Node3871 -->
<g id="node7" class="node">
<title>Node3871</title>
<g id="a_node7"><a xlink:href="util_8c.html#a1296b618672321d89e3753bcb2123ab1" target="_top" xlink:title="Make an absolute IMAP folder target. ">
<polygon fill="#ffffff" stroke="#ff0000" points="115,-342.5 115,-361.5 222,-361.5 222,-342.5 115,-342.5"/>
<text text-anchor="middle" x="168.5" y="-349.5" font-family="Helvetica,sans-Serif" font-size="10.00" fill="#000000">imap_qualify_path</text>
</a>
</g>
</g>
<!-- Node3352&#45;&gt;Node3871 -->
<g id="edge6" class="edge">
<title>Node3352&#45;&gt;Node3871</title>
<path fill="none" stroke="#191970" d="M53.218,-292.6366C67.0572,-305.2272 87.5061,-322.1485 108,-333 115.0052,-336.7093 122.8557,-339.835 130.5218,-342.412"/>
<polygon fill="#191970" stroke="#191970" points="55.5855,-290.0587 45.8831,-285.8025 50.8137,-295.1802 55.5855,-290.0587"/>
</g>
<!-- Node3401 -->
<g id="node8" class="node">
<title>Node3401</title>
<g id="a_node8"><a xlink:href="mutt__socket_8h.html#a13f8f3e477fc3cb5bd816d35fff4b3db" target="_top" xlink:title="Find a connection from a list. ">
<polygon fill="#ffffff" stroke="#ff0000" points="122.5,-304.5 122.5,-323.5 214.5,-323.5 214.5,-304.5 122.5,-304.5"/>
<text text-anchor="middle" x="168.5" y="-311.5" font-family="Helvetica,sans-Serif" font-size="10.00" fill="#000000">mutt_conn_find</text>
</a>
</g>
</g>
<!-- Node3352&#45;&gt;Node3401 -->
<g id="edge7" class="edge">
<title>Node3352&#45;&gt;Node3401</title>
<path fill="none" stroke="#191970" d="M79.2039,-288.3906C97.3492,-293.5945 118.1294,-299.5541 135.0754,-304.4141"/>
<polygon fill="#191970" stroke="#191970" points="80.0127,-284.9815 69.4353,-285.589 78.0829,-291.7102 80.0127,-284.9815"/>
</g>
<!-- Node3568 -->
<g id="node9" class="node">
<title>Node3568</title>
<g id="a_node9"><a xlink:href="newsrc_8c.html#a8d3a7328ed6d800fc41fb83e20db792a" target="_top" xlink:title="Make fully qualified cache file name. ">
<polygon fill="#ffffff" stroke="#ff0000" points="125.5,-266.5 125.5,-285.5 211.5,-285.5 211.5,-266.5 125.5,-266.5"/>
<text text-anchor="middle" x="168.5" y="-273.5" font-family="Helvetica,sans-Serif" font-size="10.00" fill="#000000">cache_expand</text>
</a>
</g>
</g>
<!-- Node3352&#45;&gt;Node3568 -->
<g id="edge8" class="edge">
<title>Node3352&#45;&gt;Node3568</title>
<path fill="none" stroke="#191970" d="M82.5381,-276C96.4333,-276 111.6014,-276 125.275,-276"/>
<polygon fill="#191970" stroke="#191970" points="82.2062,-272.5001 72.2062,-276 82.2062,-279.5001 82.2062,-272.5001"/>
</g>
<!-- Node3878 -->
<g id="node10" class="node">
<title>Node3878</title>
<g id="a_node10"><a xlink:href="newsrc_8c.html#a82d043009c986ea9887b31976c0ca262" target="_top" xlink:title="Make fully qualified url from newsgroup name. ">
<polygon fill="#ffffff" stroke="#ff0000" points="115,-228.5 115,-247.5 222,-247.5 222,-228.5 115,-228.5"/>
<text text-anchor="middle" x="168.5" y="-235.5" font-family="Helvetica,sans-Serif" font-size="10.00" fill="#000000">nntp_expand_path</text>
</a>
</g>
</g>
<!-- Node3352&#45;&gt;Node3878 -->
<g id="edge9" class="edge">
<title>Node3352&#45;&gt;Node3878</title>
<path fill="none" stroke="#191970" d="M79.2039,-263.6094C97.3492,-258.4055 118.1294,-252.4459 135.0754,-247.5859"/>
<polygon fill="#191970" stroke="#191970" points="78.0829,-260.2898 69.4353,-266.411 80.0127,-267.0185 78.0829,-260.2898"/>
</g>
<!-- Node3879 -->
<g id="node11" class="node">
<title>Node3879</title>
<g id="a_node11"><a xlink:href="nntp_2private_8h.html#a9e9992d0b53f93d616ef5947a2bcf95b" target="_top" xlink:title="Open newsgroup hcache. ">
<polygon fill="#ffffff" stroke="#ff0000" points="115,-190.5 115,-209.5 222,-209.5 222,-190.5 115,-190.5"/>
<text text-anchor="middle" x="168.5" y="-197.5" font-family="Helvetica,sans-Serif" font-size="10.00" fill="#000000">nntp_hcache_open</text>
</a>
</g>
</g>
<!-- Node3352&#45;&gt;Node3879 -->
<g id="edge10" class="edge">
<title>Node3352&#45;&gt;Node3879</title>
<path fill="none" stroke="#191970" d="M53.218,-259.3634C67.0572,-246.7728 87.5061,-229.8515 108,-219 115.0052,-215.2907 122.8557,-212.165 130.5218,-209.588"/>
<polygon fill="#191970" stroke="#191970" points="50.8137,-256.8198 45.8831,-266.1975 55.5855,-261.9413 50.8137,-256.8198"/>
</g>
<!-- Node3411 -->
<g id="node12" class="node">
<title>Node3411</title>
<g id="a_node12"><a xlink:href="nntp_8c.html#a27e7c379cc70e5d6bd572608f7228d2f" target="_top" xlink:title="Open a Mailbox &#45; Implements MxOps::mbox_open() ">
<polygon fill="#ffffff" stroke="#000000" points="265,-171.5 265,-190.5 366,-190.5 366,-171.5 265,-171.5"/>
<text text-anchor="middle" x="315.5" y="-178.5" font-family="Helvetica,sans-Serif" font-size="10.00" fill="#000000">nntp_mbox_open</text>
</a>
</g>
</g>
<!-- Node3352&#45;&gt;Node3411 -->
<g id="edge13" class="edge">
<title>Node3352&#45;&gt;Node3411</title>
<path fill="none" stroke="#191970" d="M43.928,-257.0247C54.6532,-234.1493 76.178,-196.811 108,-181 162.1994,-154.0706 234.6249,-162.486 278.013,-171.4537"/>
<polygon fill="#191970" stroke="#191970" points="40.6293,-255.8288 39.7619,-266.3881 47.0248,-258.6744 40.6293,-255.8288"/>
</g>
<!-- Node3880 -->
<g id="node13" class="node">
<title>Node3880</title>
<g id="a_node13"><a xlink:href="newsrc_8c.html#a2f9880f62ed891cdd63f136d9d9766fc" target="_top" xlink:title="Expand the newsrc filename &#45; Implements format_t. ">
<polygon fill="#ffffff" stroke="#ff0000" points="121,-114.5 121,-133.5 216,-133.5 216,-114.5 121,-114.5"/>
<text text-anchor="middle" x="168.5" y="-121.5" font-family="Helvetica,sans-Serif" font-size="10.00" fill="#000000">nntp_format_str</text>
</a>
</g>
</g>
<!-- Node3352&#45;&gt;Node3880 -->
<g id="edge12" class="edge">
<title>Node3352&#45;&gt;Node3880</title>
<path fill="none" stroke="#191970" d="M42.2597,-256.4731C52.0718,-228.7619 73.5887,-178.0613 108,-148 115.0632,-141.8297 123.906,-137.1376 132.6319,-133.6138"/>
<polygon fill="#191970" stroke="#191970" points="38.8612,-255.597 38.9682,-266.1913 45.4913,-257.8426 38.8612,-255.597"/>
</g>
<!-- Node3881 -->
<g id="node14" class="node">
<title>Node3881</title>
<g id="a_node14"><a xlink:href="pop_8c.html#a5ac9d8a6d8da74a5d06c6f7002a61c9b" target="_top" xlink:title="Open the header cache. ">
<polygon fill="#ffffff" stroke="#ff0000" points="116.5,-76.5 116.5,-95.5 220.5,-95.5 220.5,-76.5 116.5,-76.5"/>
<text text-anchor="middle" x="168.5" y="-83.5" font-family="Helvetica,sans-Serif" font-size="10.00" fill="#000000">pop_hcache_open</text>
</a>
</g>
</g>
<!-- Node3352&#45;&gt;Node3881 -->
<g id="edge14" class="edge">
<title>Node3352&#45;&gt;Node3881</title>
<path fill="none" stroke="#191970" d="M38.825,-256.1972C44.9252,-220.7413 62.6393,-146.276 108,-105 112.2342,-101.1471 117.2445,-98.0755 122.5409,-95.6267"/>
<polygon fill="#191970" stroke="#191970" points="35.3409,-255.822 37.2322,-266.2466 42.2546,-256.9178 35.3409,-255.822"/>
</g>
<!-- Node3415 -->
<g id="node15" class="node">
<title>Node3415</title>
<g id="a_node15"><a xlink:href="pop_8c.html#acdba1ee37ea546f48016d1cf3f7f512b" target="_top" xlink:title="Open a Mailbox &#45; Implements MxOps::mbox_open() ">
<polygon fill="#ffffff" stroke="#000000" points="120,-38.5 120,-57.5 217,-57.5 217,-38.5 120,-38.5"/>
<text text-anchor="middle" x="168.5" y="-45.5" font-family="Helvetica,sans-Serif" font-size="10.00" fill="#000000">pop_mbox_open</text>
</a>
</g>
</g>
<!-- Node3352&#45;&gt;Node3415 -->
<g id="edge15" class="edge">
<title>Node3352&#45;&gt;Node3415</title>
<path fill="none" stroke="#191970" d="M37.0996,-255.9147C40.4506,-214.6051 53.9421,-119.5931 108,-67 112.0244,-63.0847 116.8464,-59.9753 121.9886,-57.5061"/>
<polygon fill="#191970" stroke="#191970" points="33.5961,-255.8445 36.398,-266.0621 40.5795,-256.3274 33.5961,-255.8445"/>
</g>
<!-- Node3883 -->
<g id="node16" class="node">
<title>Node3883</title>
<g id="a_node16"><a xlink:href="url__tostring_8c.html#a7346e6d1043721ab16070545c45d07d6" target="_top" xlink:title="test_url_tostring">
<polygon fill="#ffffff" stroke="#000000" points="120.5,-.5 120.5,-19.5 216.5,-19.5 216.5,-.5 120.5,-.5"/>
<text text-anchor="middle" x="168.5" y="-7.5" font-family="Helvetica,sans-Serif" font-size="10.00" fill="#000000">test_url_tostring</text>
</a>
</g>
</g>
<!-- Node3352&#45;&gt;Node3883 -->
<g id="edge16" class="edge">
<title>Node3352&#45;&gt;Node3883</title>
<path fill="none" stroke="#191970" d="M39.3096,-256.1679C48.4647,-203.5327 75.6045,-62.0717 108,-29 111.7749,-25.1463 116.3212,-22.0717 121.2054,-19.6193"/>
<polygon fill="#191970" stroke="#191970" points="35.8226,-255.7952 37.5898,-266.2416 42.7228,-256.9732 35.8226,-255.7952"/>
</g>
<!-- Node3879&#45;&gt;Node3411 -->
<g id="edge11" class="edge">
<title>Node3879&#45;&gt;Node3411</title>
<path fill="none" stroke="#191970" d="M232.5484,-191.7216C243.2489,-190.3386 254.2213,-188.9204 264.5377,-187.587"/>
<polygon fill="#191970" stroke="#191970" points="231.8715,-188.2799 222.4027,-193.033 232.7688,-195.2222 231.8715,-188.2799"/>
</g>
</g>
</svg>
