<?xml version="1.0" encoding="UTF-8" standalone="no"?>
<!DOCTYPE svg PUBLIC "-//W3C//DTD SVG 1.1//EN"
 "http://www.w3.org/Graphics/SVG/1.1/DTD/svg11.dtd">
<!-- Generated by graphviz version 7.1.0 (0)
 -->
<!-- Title: url_free Pages: 1 -->
<svg width="486pt" height="753pt"
 viewBox="0.00 0.00 486.00 753.49" xmlns="http://www.w3.org/2000/svg" xmlns:xlink="http://www.w3.org/1999/xlink">
<g id="graph0" class="graph" transform="scale(1 1) rotate(0) translate(4 749.49)">
<title>url_free</title>
<!-- Node1 -->
<g id="node1" class="node">
<title>Node1</title>
<g id="a_node1"><a xlink:title="Free the contents of a URL.">
<polygon fill="#999999" stroke="#666666" points="478,-399.5 425,-399.5 425,-380.5 478,-380.5 478,-399.5"/>
<text text-anchor="middle" x="451.5" y="-387.5" font-family="Helvetica,sans-Serif" font-size="10.00">url_free</text>
</a>
</g>
</g>
<!-- Node2 -->
<g id="node2" class="node">
<title>Node2</title>
<g id="a_node2"><a xlink:href="browse_8c.html#a3eb2a18725b1488de787082f08b5e55b" target="_top" xlink:title="Add entries to the folder browser.">
<polygon fill="#fff0f0" stroke="red" points="259,-683.5 139,-683.5 139,-664.5 259,-664.5 259,-683.5"/>
<text text-anchor="middle" x="199" y="-671.5" font-family="Helvetica,sans-Serif" font-size="10.00">browse_add_list_result</text>
</a>
</g>
</g>
<!-- Node1&#45;&gt;Node2 -->
<g id="edge1" class="edge">
<title>Node1&#45;&gt;Node2</title>
<path fill="none" stroke="#63b8ff" d="M450.87,-410.86C450.49,-454.37 443.4,-555.51 389,-613 355.46,-648.43 301.26,-663.33 259.48,-669.57"/>
<polygon fill="#63b8ff" stroke="#63b8ff" points="454.37,-411.04 450.83,-401.05 447.37,-411.07 454.37,-411.04"/>
</g>
<!-- Node706 -->
<g id="node3" class="node">
<title>Node706</title>
<g id="a_node3"><a xlink:href="graphviz_8c.html#a9dae79a71c40e2906a4c6582fbad0e4f" target="_top" xlink:title=" ">
<polygon fill="#fff0f0" stroke="red" points="241.5,-645.5 156.5,-645.5 156.5,-626.5 241.5,-626.5 241.5,-645.5"/>
<text text-anchor="middle" x="199" y="-633.5" font-family="Helvetica,sans-Serif" font-size="10.00">dot_path_imap</text>
</a>
</g>
</g>
<!-- Node1&#45;&gt;Node706 -->
<g id="edge2" class="edge">
<title>Node1&#45;&gt;Node706</title>
<path fill="none" stroke="#63b8ff" d="M449.53,-410.79C446.63,-448.85 435.08,-530.03 389,-576 349.52,-615.39 284.32,-628.95 241.76,-633.6"/>
<polygon fill="#63b8ff" stroke="#63b8ff" points="453,-411.35 450.13,-401.16 446.02,-410.92 453,-411.35"/>
</g>
<!-- Node504 -->
<g id="node4" class="node">
<title>Node504</title>
<g id="a_node4"><a xlink:href="group__mx__ac__add.html#ga17c8a7069e5923662f22fe1e475a0bdf" target="_top" xlink:title="Add a Mailbox to an Account &#45; Implements MxOps::ac_add() &#45;.">
<polygon fill="white" stroke="#666666" points="86.5,-721.5 11.5,-721.5 11.5,-702.5 86.5,-702.5 86.5,-721.5"/>
<text text-anchor="middle" x="49" y="-709.5" font-family="Helvetica,sans-Serif" font-size="10.00">imap_ac_add</text>
</a>
</g>
</g>
<!-- Node1&#45;&gt;Node504 -->
<g id="edge3" class="edge">
<title>Node1&#45;&gt;Node504</title>
<path fill="none" stroke="#63b8ff" d="M448.84,-410.91C443.64,-471.63 425.73,-646.25 389,-688 311.35,-776.26 149.21,-741.67 81.14,-722"/>
<polygon fill="#63b8ff" stroke="#63b8ff" points="452.3,-411.54 449.64,-401.28 445.33,-410.96 452.3,-411.54"/>
</g>
<!-- Node716 -->
<g id="node5" class="node">
<title>Node716</title>
<g id="a_node5"><a xlink:href="group__mx__ac__owns__path.html#ga591dc58a8d2d06bfeef77452864bbb01" target="_top" xlink:title="Check whether an Account owns a Mailbox path &#45; Implements MxOps::ac_owns_path() &#45;.">
<polygon fill="white" stroke="#666666" points="252.5,-607.5 145.5,-607.5 145.5,-588.5 252.5,-588.5 252.5,-607.5"/>
<text text-anchor="middle" x="199" y="-595.5" font-family="Helvetica,sans-Serif" font-size="10.00">imap_ac_owns_path</text>
</a>
</g>
</g>
<!-- Node1&#45;&gt;Node716 -->
<g id="edge4" class="edge">
<title>Node1&#45;&gt;Node716</title>
<path fill="none" stroke="#63b8ff" d="M447.74,-410.98C442.35,-443.5 427.4,-505.97 389,-541 351.65,-575.07 294.6,-588.8 252.95,-594.32"/>
<polygon fill="#63b8ff" stroke="#63b8ff" points="451.18,-411.65 449.19,-401.24 444.26,-410.62 451.18,-411.65"/>
</g>
<!-- Node510 -->
<g id="node6" class="node">
<title>Node510</title>
<g id="a_node6"><a xlink:href="imap_8c.html#a8f78f88f04284f923f839a64ec680c35" target="_top" xlink:title="Delete a mailbox.">
<polygon fill="#fff0f0" stroke="red" points="256,-569.5 142,-569.5 142,-550.5 256,-550.5 256,-569.5"/>
<text text-anchor="middle" x="199" y="-557.5" font-family="Helvetica,sans-Serif" font-size="10.00">imap_delete_mailbox</text>
</a>
</g>
</g>
<!-- Node1&#45;&gt;Node510 -->
<g id="edge5" class="edge">
<title>Node1&#45;&gt;Node510</title>
<path fill="none" stroke="#63b8ff" d="M445.17,-411.01C437.35,-437.56 420.18,-482.81 389,-508 351.27,-538.47 296.99,-551.13 256.26,-556.37"/>
<polygon fill="#63b8ff" stroke="#63b8ff" points="448.53,-411.99 447.81,-401.42 441.78,-410.13 448.53,-411.99"/>
</g>
<!-- Node717 -->
<g id="node7" class="node">
<title>Node717</title>
<g id="a_node7"><a xlink:href="sidebar_2window_8c.html#ab8ee9c3eeb900924234a2ad97d7c56b0" target="_top" xlink:title="Check if folder matches the beginning of mbox.">
<polygon fill="#fff0f0" stroke="red" points="240,-531.5 158,-531.5 158,-512.5 240,-512.5 240,-531.5"/>
<text text-anchor="middle" x="199" y="-519.5" font-family="Helvetica,sans-Serif" font-size="10.00">imap_is_prefix</text>
</a>
</g>
</g>
<!-- Node1&#45;&gt;Node717 -->
<g id="edge6" class="edge">
<title>Node1&#45;&gt;Node717</title>
<path fill="none" stroke="#63b8ff" d="M441.62,-410.06C431.69,-430.11 413.71,-460.29 389,-477 344.02,-507.42 280.86,-517.37 240.18,-520.57"/>
<polygon fill="#63b8ff" stroke="#63b8ff" points="444.68,-411.77 445.76,-401.23 438.34,-408.8 444.68,-411.77"/>
</g>
<!-- Node720 -->
<g id="node8" class="node">
<title>Node720</title>
<g id="a_node8"><a xlink:href="util_8c.html#a0fdb4b19c276d28f6f1a014da9e860d5" target="_top" xlink:title="Parse an IMAP mailbox name into ConnAccount, name.">
<polygon fill="#fff0f0" stroke="red" points="246.5,-721.5 151.5,-721.5 151.5,-702.5 246.5,-702.5 246.5,-721.5"/>
<text text-anchor="middle" x="199" y="-709.5" font-family="Helvetica,sans-Serif" font-size="10.00">imap_parse_path</text>
</a>
</g>
</g>
<!-- Node1&#45;&gt;Node720 -->
<g id="edge7" class="edge">
<title>Node1&#45;&gt;Node720</title>
<path fill="none" stroke="#63b8ff" d="M448.13,-411.11C441.52,-466.55 421.21,-614.43 389,-650 352.61,-690.19 289.77,-704.4 246.61,-709.38"/>
<polygon fill="#63b8ff" stroke="#63b8ff" points="451.58,-411.77 449.25,-401.44 444.63,-410.97 451.58,-411.77"/>
</g>
<!-- Node728 -->
<g id="node9" class="node">
<title>Node728</title>
<g id="a_node9"><a xlink:href="group__mx__path__canon.html#gadc4b0f0043918ecbd733e53aaab622fe" target="_top" xlink:title="Canonicalise a Mailbox path &#45; Implements MxOps::path_canon() &#45;.">
<polygon fill="#fff0f0" stroke="red" points="247.5,-494.5 150.5,-494.5 150.5,-475.5 247.5,-475.5 247.5,-494.5"/>
<text text-anchor="middle" x="199" y="-482.5" font-family="Helvetica,sans-Serif" font-size="10.00">imap_path_canon</text>
</a>
</g>
</g>
<!-- Node1&#45;&gt;Node728 -->
<g id="edge9" class="edge">
<title>Node1&#45;&gt;Node728</title>
<path fill="none" stroke="#63b8ff" d="M436.58,-408.55C425.29,-422.21 408.15,-440.07 389,-450 344.7,-472.95 287.69,-481.03 247.92,-483.78"/>
<polygon fill="#63b8ff" stroke="#63b8ff" points="439.02,-411.11 442.48,-401.1 433.53,-406.77 439.02,-411.11"/>
</g>
<!-- Node737 -->
<g id="node10" class="node">
<title>Node737</title>
<g id="a_node10"><a xlink:href="mx_8c.html#a669989013069c5858de1556a2e36a859" target="_top" xlink:title="Is this the spool_file?">
<polygon fill="#fff0f0" stroke="red" points="239,-457.5 159,-457.5 159,-438.5 239,-438.5 239,-457.5"/>
<text text-anchor="middle" x="199" y="-445.5" font-family="Helvetica,sans-Serif" font-size="10.00">mutt_is_spool</text>
</a>
</g>
</g>
<!-- Node1&#45;&gt;Node737 -->
<g id="edge10" class="edge">
<title>Node1&#45;&gt;Node737</title>
<path fill="none" stroke="#63b8ff" d="M429.12,-406.52C417.81,-414.38 403.33,-423.1 389,-428 339.36,-444.97 278.47,-448.58 239.46,-448.87"/>
<polygon fill="#63b8ff" stroke="#63b8ff" points="430.9,-409.56 436.93,-400.85 426.79,-403.89 430.9,-409.56"/>
</g>
<!-- Node738 -->
<g id="node11" class="node">
<title>Node738</title>
<g id="a_node11"><a xlink:href="email_2parse_8c.html#a85f5f11a70b04f611f3e131f67644fbf" target="_top" xlink:title="Parse a mailto:// url.">
<polygon fill="#fff0f0" stroke="red" points="250.5,-306.5 147.5,-306.5 147.5,-287.5 250.5,-287.5 250.5,-306.5"/>
<text text-anchor="middle" x="199" y="-294.5" font-family="Helvetica,sans-Serif" font-size="10.00">mutt_parse_mailto</text>
</a>
</g>
</g>
<!-- Node1&#45;&gt;Node738 -->
<g id="edge11" class="edge">
<title>Node1&#45;&gt;Node738</title>
<path fill="none" stroke="#63b8ff" d="M427.48,-373.71C416.27,-366.32 402.35,-357.93 389,-352 342.47,-331.31 286.08,-316.07 247.07,-306.95"/>
<polygon fill="#63b8ff" stroke="#63b8ff" points="425.43,-376.55 435.68,-379.27 429.36,-370.76 425.43,-376.55"/>
</g>
<!-- Node748 -->
<g id="node12" class="node">
<title>Node748</title>
<g id="a_node12"><a xlink:href="mx_8c.html#a71df9c2c4fd5582ee49766846dd8cbf1" target="_top" xlink:title="Find a Mailbox on an Account.">
<polygon fill="#fff0f0" stroke="red" points="241,-269.5 157,-269.5 157,-250.5 241,-250.5 241,-269.5"/>
<text text-anchor="middle" x="199" y="-257.5" font-family="Helvetica,sans-Serif" font-size="10.00">mx_mbox_find</text>
</a>
</g>
</g>
<!-- Node1&#45;&gt;Node748 -->
<g id="edge12" class="edge">
<title>Node1&#45;&gt;Node748</title>
<path fill="none" stroke="#63b8ff" d="M445.55,-368.99C438.13,-342.62 421.4,-298.27 389,-277 344.94,-248.06 282.13,-248.66 241.21,-253.17"/>
<polygon fill="#63b8ff" stroke="#63b8ff" points="442.13,-369.73 448.02,-378.54 448.9,-367.98 442.13,-369.73"/>
</g>
<!-- Node749 -->
<g id="node13" class="node">
<title>Node749</title>
<g id="a_node13"><a xlink:href="group__mx__mbox__check__stats.html#gaf0ba56fedbc28eeaa260e75dae131b3a" target="_top" xlink:title="Check the Mailbox statistics &#45; Implements MxOps::mbox_check_stats() &#45;.">
<polygon fill="white" stroke="#666666" points="258.5,-232.5 139.5,-232.5 139.5,-213.5 258.5,-213.5 258.5,-232.5"/>
<text text-anchor="middle" x="199" y="-220.5" font-family="Helvetica,sans-Serif" font-size="10.00">nm_mbox_check_stats</text>
</a>
</g>
</g>
<!-- Node1&#45;&gt;Node749 -->
<g id="edge13" class="edge">
<title>Node1&#45;&gt;Node749</title>
<path fill="none" stroke="#63b8ff" d="M448.04,-369.33C443.06,-337.45 428.64,-276.85 389,-247 352.14,-219.24 299.33,-214.61 258.9,-216.14"/>
<polygon fill="#63b8ff" stroke="#63b8ff" points="444.52,-369.44 449.35,-378.87 451.45,-368.48 444.52,-369.44"/>
</g>
<!-- Node750 -->
<g id="node14" class="node">
<title>Node750</title>
<g id="a_node14"><a xlink:href="group__mailbox__mdata__free.html#ga2b2dbfa2b1f60e776e9bc6371e08ba37" target="_top" xlink:title="Free the private Mailbox data &#45; Implements Mailbox::mdata_free() &#45;.">
<polygon fill="#fff0f0" stroke="red" points="389,-304.5 300,-304.5 300,-285.5 389,-285.5 389,-304.5"/>
<text text-anchor="middle" x="344.5" y="-292.5" font-family="Helvetica,sans-Serif" font-size="10.00">nm_mdata_free</text>
</a>
</g>
</g>
<!-- Node1&#45;&gt;Node750 -->
<g id="edge14" class="edge">
<title>Node1&#45;&gt;Node750</title>
<path fill="none" stroke="#63b8ff" d="M437.22,-371.26C425.69,-355.92 407.92,-334.32 389,-319 382.3,-313.57 374.19,-308.72 366.8,-304.83"/>
<polygon fill="#63b8ff" stroke="#63b8ff" points="434.21,-373.09 442.94,-379.09 439.86,-368.95 434.21,-373.09"/>
</g>
<!-- Node105 -->
<g id="node15" class="node">
<title>Node105</title>
<g id="a_node15"><a xlink:href="group__mx__mbox__open.html#ga958364186e337ca6168094e57f038296" target="_top" xlink:title="Open a Mailbox &#45; Implements MxOps::mbox_open() &#45;.">
<polygon fill="white" stroke="#666666" points="98,-343.5 0,-343.5 0,-324.5 98,-324.5 98,-343.5"/>
<text text-anchor="middle" x="49" y="-331.5" font-family="Helvetica,sans-Serif" font-size="10.00">nntp_mbox_open</text>
</a>
</g>
</g>
<!-- Node1&#45;&gt;Node105 -->
<g id="edge15" class="edge">
<title>Node1&#45;&gt;Node105</title>
<path fill="none" stroke="#63b8ff" d="M449.78,-368.99C447.04,-302.99 435.01,-101.77 389,-60 305.01,16.25 224.85,18.94 134,-49 87.53,-83.75 57.86,-277.57 51.35,-324"/>
<polygon fill="#63b8ff" stroke="#63b8ff" points="446.27,-368.92 450.15,-378.78 453.27,-368.66 446.27,-368.92"/>
</g>
<!-- Node267 -->
<g id="node16" class="node">
<title>Node267</title>
<g id="a_node16"><a xlink:href="newsrc_8c.html#ae9ee1cc132aa482531fdc2463200e492" target="_top" xlink:title="Open a connection to an NNTP server.">
<polygon fill="#fff0f0" stroke="red" points="251.5,-343.5 146.5,-343.5 146.5,-324.5 251.5,-324.5 251.5,-343.5"/>
<text text-anchor="middle" x="199" y="-331.5" font-family="Helvetica,sans-Serif" font-size="10.00">nntp_select_server</text>
</a>
</g>
</g>
<!-- Node1&#45;&gt;Node267 -->
<g id="edge16" class="edge">
<title>Node1&#45;&gt;Node267</title>
<path fill="none" stroke="#63b8ff" d="M413.64,-381.76C368.71,-371.71 292.83,-354.75 244.63,-343.98"/>
<polygon fill="#63b8ff" stroke="#63b8ff" points="412.64,-385.12 423.16,-383.89 414.16,-378.29 412.64,-385.12"/>
</g>
<!-- Node273 -->
<g id="node17" class="node">
<title>Node273</title>
<g id="a_node17"><a xlink:href="group__browser__function__api.html#gad70110be5d7559d1abbf8ffcebc9c738" target="_top" xlink:title="Select the current entry &#45; Implements browser_function_t &#45;.">
<polygon fill="white" stroke="#666666" points="264,-195.5 134,-195.5 134,-176.5 264,-176.5 264,-195.5"/>
<text text-anchor="middle" x="199" y="-183.5" font-family="Helvetica,sans-Serif" font-size="10.00">op_generic_select_entry</text>
</a>
</g>
</g>
<!-- Node1&#45;&gt;Node273 -->
<g id="edge18" class="edge">
<title>Node1&#45;&gt;Node273</title>
<path fill="none" stroke="#63b8ff" d="M449.88,-368.93C447.53,-331.2 436.84,-252.41 389,-213 354.59,-184.65 304.17,-178.64 264.06,-179.31"/>
<polygon fill="#63b8ff" stroke="#63b8ff" points="446.38,-369.08 450.33,-378.91 453.37,-368.76 446.38,-369.08"/>
</g>
<!-- Node753 -->
<g id="node18" class="node">
<title>Node753</title>
<g id="a_node18"><a xlink:href="group__mx__ac__owns__path.html#ga2eb1513bdfb94004dfbdab1e4ac4847f" target="_top" xlink:title="Check whether an Account owns a Mailbox path &#45; Implements MxOps::ac_owns_path() &#45;.">
<polygon fill="white" stroke="#666666" points="250.5,-157.5 147.5,-157.5 147.5,-138.5 250.5,-138.5 250.5,-157.5"/>
<text text-anchor="middle" x="199" y="-145.5" font-family="Helvetica,sans-Serif" font-size="10.00">pop_ac_owns_path</text>
</a>
</g>
</g>
<!-- Node1&#45;&gt;Node753 -->
<g id="edge19" class="edge">
<title>Node1&#45;&gt;Node753</title>
<path fill="none" stroke="#63b8ff" d="M451.29,-368.7C451.62,-325.37 445.72,-226.84 389,-177 351.47,-144.02 292.75,-139.79 250.72,-141.91"/>
<polygon fill="#63b8ff" stroke="#63b8ff" points="447.79,-368.45 451.07,-378.53 454.79,-368.61 447.79,-368.45"/>
</g>
<!-- Node754 -->
<g id="node19" class="node">
<title>Node754</title>
<g id="a_node19"><a xlink:href="pop_2lib_8c.html#a6838234c95ab9171c2edcf35aa8e6526" target="_top" xlink:title="Parse a POP mailbox name.">
<polygon fill="#fff0f0" stroke="red" points="244.5,-118.5 153.5,-118.5 153.5,-99.5 244.5,-99.5 244.5,-118.5"/>
<text text-anchor="middle" x="199" y="-106.5" font-family="Helvetica,sans-Serif" font-size="10.00">pop_parse_path</text>
</a>
</g>
</g>
<!-- Node1&#45;&gt;Node754 -->
<g id="edge20" class="edge">
<title>Node1&#45;&gt;Node754</title>
<path fill="none" stroke="#63b8ff" d="M448.31,-368.95C442.19,-314.38 423.08,-170.36 389,-139 350.38,-103.45 287.43,-100.35 244.91,-103.19"/>
<polygon fill="#63b8ff" stroke="#63b8ff" points="444.81,-369.18 449.37,-378.74 451.77,-368.43 444.81,-369.18"/>
</g>
<!-- Node756 -->
<g id="node20" class="node">
<title>Node756</title>
<g id="a_node20"><a xlink:href="smtp_8c.html#a9ced651e593132d0ab32284da93fa013" target="_top" xlink:title="Create ConnAccount object from SMTP Url.">
<polygon fill="#fff0f0" stroke="red" points="246.5,-77.5 151.5,-77.5 151.5,-58.5 246.5,-58.5 246.5,-77.5"/>
<text text-anchor="middle" x="199" y="-65.5" font-family="Helvetica,sans-Serif" font-size="10.00">smtp_fill_account</text>
</a>
</g>
</g>
<!-- Node1&#45;&gt;Node756 -->
<g id="edge21" class="edge">
<title>Node1&#45;&gt;Node756</title>
<path fill="none" stroke="#63b8ff" d="M449.01,-368.57C444.34,-307.97 427.92,-137.35 389,-100 351.54,-64.05 289.55,-60.03 246.84,-62.38"/>
<polygon fill="#63b8ff" stroke="#63b8ff" points="445.52,-368.81 449.74,-378.52 452.5,-368.29 445.52,-368.81"/>
</g>
<!-- Node757 -->
<g id="node21" class="node">
<title>Node757</title>
<g id="a_node21"><a xlink:href="url_8c.html#a3030b91052fa1a5fee0ca7b1d4d94f93" target="_top" xlink:title="Fill in Url.">
<polygon fill="#fff0f0" stroke="red" points="374.5,-418.5 314.5,-418.5 314.5,-399.5 374.5,-399.5 374.5,-418.5"/>
<text text-anchor="middle" x="344.5" y="-406.5" font-family="Helvetica,sans-Serif" font-size="10.00">url_parse</text>
</a>
</g>
</g>
<!-- Node1&#45;&gt;Node757 -->
<g id="edge22" class="edge">
<title>Node1&#45;&gt;Node757</title>
<path fill="none" stroke="#63b8ff" d="M413.4,-396.71C400.76,-399 386.81,-401.52 374.86,-403.68"/>
<polygon fill="#63b8ff" stroke="#63b8ff" points="413.84,-400.19 423.06,-394.96 412.59,-393.3 413.84,-400.19"/>
</g>
<!-- Node720&#45;&gt;Node504 -->
<g id="edge8" class="edge">
<title>Node720&#45;&gt;Node504</title>
<path fill="none" stroke="#63b8ff" d="M139.67,-712C121.8,-712 102.67,-712 86.68,-712"/>
<polygon fill="#63b8ff" stroke="#63b8ff" points="139.66,-715.5 149.66,-712 139.66,-708.5 139.66,-715.5"/>
</g>
<!-- Node267&#45;&gt;Node105 -->
<g id="edge17" class="edge">
<title>Node267&#45;&gt;Node105</title>
<path fill="none" stroke="#63b8ff" d="M135.02,-334C122.63,-334 109.81,-334 98.01,-334"/>
<polygon fill="#63b8ff" stroke="#63b8ff" points="134.72,-337.5 144.72,-334 134.72,-330.5 134.72,-337.5"/>
</g>
<!-- Node757&#45;&gt;Node2 -->
<g id="edge23" class="edge">
<title>Node757&#45;&gt;Node2</title>
<path fill="none" stroke="#63b8ff" d="M342.96,-430.36C340.59,-477.73 328.14,-592.38 264,-655 260.19,-658.72 255.67,-661.72 250.84,-664.14"/>
<polygon fill="#63b8ff" stroke="#63b8ff" points="346.46,-430.52 343.34,-420.39 339.46,-430.25 346.46,-430.52"/>
</g>
<!-- Node757&#45;&gt;Node706 -->
<g id="edge24" class="edge">
<title>Node757&#45;&gt;Node706</title>
<path fill="none" stroke="#63b8ff" d="M341.52,-430.17C336.46,-472.05 319.26,-565.81 264,-617 257.79,-622.75 249.92,-626.76 241.84,-629.57"/>
<polygon fill="#63b8ff" stroke="#63b8ff" points="344.97,-430.77 342.57,-420.45 338.01,-430.02 344.97,-430.77"/>
</g>
<!-- Node757&#45;&gt;Node504 -->
<g id="edge25" class="edge">
<title>Node757&#45;&gt;Node504</title>
<path fill="none" stroke="#63b8ff" d="M303.23,-400.9C256.99,-394.07 181.41,-390.82 134,-430 89.7,-466.61 58.38,-656.7 51.45,-702.2"/>
<polygon fill="#63b8ff" stroke="#63b8ff" points="302.4,-404.31 312.83,-402.45 303.52,-397.4 302.4,-404.31"/>
</g>
<!-- Node757&#45;&gt;Node716 -->
<g id="edge26" class="edge">
<title>Node757&#45;&gt;Node716</title>
<path fill="none" stroke="#63b8ff" d="M339.57,-429.72C331.7,-465.5 310.6,-538.87 264,-579 259.7,-582.7 254.7,-585.69 249.42,-588.09"/>
<polygon fill="#63b8ff" stroke="#63b8ff" points="342.94,-430.73 341.52,-420.23 336.08,-429.33 342.94,-430.73"/>
</g>
<!-- Node757&#45;&gt;Node510 -->
<g id="edge27" class="edge">
<title>Node757&#45;&gt;Node510</title>
<path fill="none" stroke="#63b8ff" d="M336.58,-429.54C325.73,-458.66 301.93,-511.64 264,-541 259.23,-544.69 253.76,-547.66 248.07,-550.06"/>
<polygon fill="#63b8ff" stroke="#63b8ff" points="339.77,-431.01 339.83,-420.42 333.18,-428.66 339.77,-431.01"/>
</g>
<!-- Node757&#45;&gt;Node717 -->
<g id="edge28" class="edge">
<title>Node757&#45;&gt;Node717</title>
<path fill="none" stroke="#63b8ff" d="M332.25,-428.46C318.75,-450.08 294.12,-484.51 264,-504 256.83,-508.64 248.45,-512.1 240.17,-514.67"/>
<polygon fill="#63b8ff" stroke="#63b8ff" points="335.16,-430.4 337.33,-420.03 329.17,-426.79 335.16,-430.4"/>
</g>
<!-- Node757&#45;&gt;Node720 -->
<g id="edge29" class="edge">
<title>Node757&#45;&gt;Node720</title>
<path fill="none" stroke="#63b8ff" d="M344.06,-430.38C344.23,-482.77 337.18,-618.66 264,-693 259.2,-697.87 253.22,-701.51 246.85,-704.22"/>
<polygon fill="#63b8ff" stroke="#63b8ff" points="347.56,-430.41 343.92,-420.46 340.56,-430.51 347.56,-430.41"/>
</g>
<!-- Node757&#45;&gt;Node728 -->
<g id="edge30" class="edge">
<title>Node757&#45;&gt;Node728</title>
<path fill="none" stroke="#63b8ff" d="M324.17,-426.17C308.8,-439.02 286.27,-456.18 264,-467 257.56,-470.12 250.49,-472.79 243.47,-475.04"/>
<polygon fill="#63b8ff" stroke="#63b8ff" points="326.28,-428.97 331.59,-419.8 321.72,-423.66 326.28,-428.97"/>
</g>
<!-- Node757&#45;&gt;Node737 -->
<g id="edge31" class="edge">
<title>Node757&#45;&gt;Node737</title>
<path fill="none" stroke="#63b8ff" d="M303.05,-419.99C282.22,-425.65 257.02,-432.5 236.75,-438.01"/>
<polygon fill="#63b8ff" stroke="#63b8ff" points="303.92,-423.38 312.65,-417.38 302.09,-416.63 303.92,-423.38"/>
</g>
<!-- Node757&#45;&gt;Node738 -->
<g id="edge32" class="edge">
<title>Node757&#45;&gt;Node738</title>
<path fill="none" stroke="#63b8ff" d="M331.89,-389.7C318.21,-368.59 293.56,-335.2 264,-316 258.36,-312.34 251.99,-309.36 245.52,-306.94"/>
<polygon fill="#63b8ff" stroke="#63b8ff" points="328.77,-391.33 337.05,-397.94 334.7,-387.61 328.77,-391.33"/>
</g>
<!-- Node757&#45;&gt;Node748 -->
<g id="edge33" class="edge">
<title>Node757&#45;&gt;Node748</title>
<path fill="none" stroke="#63b8ff" d="M336.35,-388.38C325.32,-359.62 301.44,-307.77 264,-279 257.38,-273.91 249.43,-270.18 241.41,-267.45"/>
<polygon fill="#63b8ff" stroke="#63b8ff" points="333.05,-389.55 339.77,-397.73 339.62,-387.14 333.05,-389.55"/>
</g>
<!-- Node757&#45;&gt;Node749 -->
<g id="edge34" class="edge">
<title>Node757&#45;&gt;Node749</title>
<path fill="none" stroke="#63b8ff" d="M334.23,-388.97C313.91,-345.19 267.05,-244.61 264,-242 259.68,-238.31 254.68,-235.33 249.4,-232.94"/>
<polygon fill="#63b8ff" stroke="#63b8ff" points="330.97,-390.27 338.35,-397.87 337.32,-387.32 330.97,-390.27"/>
</g>
<!-- Node757&#45;&gt;Node105 -->
<g id="edge35" class="edge">
<title>Node757&#45;&gt;Node105</title>
<path fill="none" stroke="#63b8ff" d="M302.99,-398.65C246.38,-384.18 144.31,-358.1 88.69,-343.89"/>
<polygon fill="#63b8ff" stroke="#63b8ff" points="301.99,-402 312.55,-401.09 303.73,-395.22 301.99,-402"/>
</g>
<!-- Node757&#45;&gt;Node267 -->
<g id="edge36" class="edge">
<title>Node757&#45;&gt;Node267</title>
<path fill="none" stroke="#63b8ff" d="M314.37,-393.66C309.51,-390.89 304.56,-387.94 300,-385 283.2,-374.14 281.54,-367.61 264,-358 254.01,-352.52 242.51,-347.78 232.04,-343.99"/>
<polygon fill="#63b8ff" stroke="#63b8ff" points="312.34,-396.54 322.78,-398.31 315.72,-390.41 312.34,-396.54"/>
</g>
<!-- Node757&#45;&gt;Node273 -->
<g id="edge37" class="edge">
<title>Node757&#45;&gt;Node273</title>
<path fill="none" stroke="#63b8ff" d="M333.58,-389.05C324.31,-370.01 310.37,-340.41 300,-314 281.35,-266.51 300.62,-240.52 264,-205 260.17,-201.29 255.66,-198.29 250.82,-195.88"/>
<polygon fill="#63b8ff" stroke="#63b8ff" points="330.34,-390.38 337.89,-397.81 336.62,-387.29 330.34,-390.38"/>
</g>
<!-- Node757&#45;&gt;Node753 -->
<g id="edge38" class="edge">
<title>Node757&#45;&gt;Node753</title>
<path fill="none" stroke="#63b8ff" d="M333.12,-389.22C323.51,-370.31 309.34,-340.79 300,-314 277.99,-250.89 309.79,-216.68 264,-168 260.09,-163.84 255.33,-160.55 250.2,-157.93"/>
<polygon fill="#63b8ff" stroke="#63b8ff" points="329.91,-390.64 337.61,-397.92 336.13,-387.43 329.91,-390.64"/>
</g>
<!-- Node757&#45;&gt;Node754 -->
<g id="edge39" class="edge">
<title>Node757&#45;&gt;Node754</title>
<path fill="none" stroke="#63b8ff" d="M332.66,-389.02C322.85,-370.17 308.64,-340.86 300,-314 274.48,-234.67 319.16,-192.45 264,-130 258.89,-124.21 252.16,-120.02 244.99,-116.97"/>
<polygon fill="#63b8ff" stroke="#63b8ff" points="329.5,-390.52 337.28,-397.71 335.68,-387.24 329.5,-390.52"/>
</g>
<!-- Node757&#45;&gt;Node756 -->
<g id="edge40" class="edge">
<title>Node757&#45;&gt;Node756</title>
<path fill="none" stroke="#63b8ff" d="M332.45,-389.08C322.49,-370.28 308.19,-341.01 300,-314 270.74,-217.5 328.92,-167.15 264,-90 259.39,-84.51 253.34,-80.39 246.8,-77.3"/>
<polygon fill="#63b8ff" stroke="#63b8ff" points="329.31,-390.63 337.15,-397.76 335.47,-387.3 329.31,-390.63"/>
</g>
</g>
</svg>
