<?xml version="1.0" encoding="UTF-8" standalone="no"?>
<!DOCTYPE svg PUBLIC "-//W3C//DTD SVG 1.1//EN"
 "http://www.w3.org/Graphics/SVG/1.1/DTD/svg11.dtd">
<!-- Generated by graphviz version 2.44.0 (0)
 -->
<!-- Title: imap_mxcmp Pages: 1 -->
<svg width="215pt" height="142pt"
 viewBox="0.00 0.00 215.00 142.00" xmlns="http://www.w3.org/2000/svg" xmlns:xlink="http://www.w3.org/1999/xlink">
<g id="graph0" class="graph" transform="scale(1 1) rotate(0) translate(4 138)">
<title>imap_mxcmp</title>
<polygon fill="white" stroke="transparent" points="-4,4 -4,-138 211,-138 211,4 -4,4"/>
<!-- Node1 -->
<g id="node1" class="node">
<title>Node1</title>
<g id="a_node1"><a xlink:title="Compare mailbox names, giving priority to INBOX.">
<polygon fill="#bfbfbf" stroke="black" points="0,-57.5 0,-76.5 74,-76.5 74,-57.5 0,-57.5"/>
<text text-anchor="middle" x="37" y="-64.5" font-family="Helvetica" font-size="10.00">imap_mxcmp</text>
</a>
</g>
</g>
<!-- Node2 -->
<g id="node2" class="node">
<title>Node2</title>
<g id="a_node2"><a xlink:href="util_8c.html#a0a4d1af76bdddfc3edfa9a59b704f0e3" target="_top" xlink:title="Fix up the imap path.">
<polygon fill="white" stroke="black" points="120,-114.5 120,-133.5 197,-133.5 197,-114.5 120,-114.5"/>
<text text-anchor="middle" x="158.5" y="-121.5" font-family="Helvetica" font-size="10.00">imap_fix_path</text>
</a>
</g>
</g>
<!-- Node1&#45;&gt;Node2 -->
<g id="edge1" class="edge">
<title>Node1&#45;&gt;Node2</title>
<path fill="none" stroke="midnightblue" d="M54.91,-76.57C69.34,-84.59 90.76,-96.1 110,-105 114.1,-106.9 118.45,-108.79 122.78,-110.61"/>
<polygon fill="midnightblue" stroke="midnightblue" points="121.56,-113.89 132.15,-114.43 124.21,-107.41 121.56,-113.89"/>
</g>
<!-- Node3 -->
<g id="node3" class="node">
<title>Node3</title>
<g id="a_node3"><a xlink:href="mutt_2string_8c.html#a29db81d6f5a7dd216cbea75ecf8a5885" target="_top" xlink:title="Compare two strings, ignoring case.">
<polygon fill="white" stroke="red" points="117,-76.5 117,-95.5 200,-95.5 200,-76.5 117,-76.5"/>
<text text-anchor="middle" x="158.5" y="-83.5" font-family="Helvetica" font-size="10.00">mutt_istr_equal</text>
</a>
</g>
</g>
<!-- Node1&#45;&gt;Node3 -->
<g id="edge2" class="edge">
<title>Node1&#45;&gt;Node3</title>
<path fill="none" stroke="midnightblue" d="M74.18,-72.75C84.49,-74.39 95.91,-76.21 106.91,-77.96"/>
<polygon fill="midnightblue" stroke="midnightblue" points="106.42,-81.42 116.85,-79.54 107.52,-74.51 106.42,-81.42"/>
</g>
<!-- Node5 -->
<g id="node4" class="node">
<title>Node5</title>
<g id="a_node4"><a xlink:href="memory_8c.html#a264da4dc58e6dc8983285bd1f538f24d" target="_top" xlink:title="Allocate memory on the heap.">
<polygon fill="white" stroke="red" points="110,-38.5 110,-57.5 207,-57.5 207,-38.5 110,-38.5"/>
<text text-anchor="middle" x="158.5" y="-45.5" font-family="Helvetica" font-size="10.00">mutt_mem_malloc</text>
</a>
</g>
</g>
<!-- Node1&#45;&gt;Node5 -->
<g id="edge3" class="edge">
<title>Node1&#45;&gt;Node5</title>
<path fill="none" stroke="midnightblue" d="M74.18,-61.25C82.36,-59.95 91.25,-58.53 100.07,-57.13"/>
<polygon fill="midnightblue" stroke="midnightblue" points="100.64,-60.59 109.96,-55.56 99.54,-53.67 100.64,-60.59"/>
</g>
<!-- Node7 -->
<g id="node5" class="node">
<title>Node7</title>
<g id="a_node5"><a xlink:href="mutt_2string_8c.html#a12aff586807f47d08506c55b294784da" target="_top" xlink:title="Compare two strings, safely.">
<polygon fill="white" stroke="black" points="120,-0.5 120,-19.5 197,-19.5 197,-0.5 120,-0.5"/>
<text text-anchor="middle" x="158.5" y="-7.5" font-family="Helvetica" font-size="10.00">mutt_str_cmp</text>
</a>
</g>
</g>
<!-- Node1&#45;&gt;Node7 -->
<g id="edge4" class="edge">
<title>Node1&#45;&gt;Node7</title>
<path fill="none" stroke="midnightblue" d="M54.91,-57.43C69.34,-49.41 90.76,-37.9 110,-29 114.1,-27.1 118.45,-25.21 122.78,-23.39"/>
<polygon fill="midnightblue" stroke="midnightblue" points="124.21,-26.59 132.15,-19.57 121.56,-20.11 124.21,-26.59"/>
</g>
</g>
</svg>
