<?xml version="1.0" encoding="UTF-8" standalone="no"?>
<!DOCTYPE svg PUBLIC "-//W3C//DTD SVG 1.1//EN"
 "http://www.w3.org/Graphics/SVG/1.1/DTD/svg11.dtd">
<!-- Generated by graphviz version 12.2.1 (20241206.2353)
 -->
<!-- Title: gui/utilwin.c Pages: 1 -->
<svg width="749pt" height="205pt"
 viewBox="0.00 0.00 749.25 205.00" xmlns="http://www.w3.org/2000/svg" xmlns:xlink="http://www.w3.org/1999/xlink">
<g id="graph0" class="graph" transform="scale(1 1) rotate(0) translate(4 201)">
<title>gui/utilwin.c</title>
<!-- Node1 -->
<g id="Node000001" class="node">
<title>Node1</title>
<g id="a_Node000001"><a xlink:title="Utility Window.">
<polygon fill="#999999" stroke="#666666" points="404.5,-197 333,-197 333,-174.75 404.5,-174.75 404.5,-197"/>
<text text-anchor="middle" x="368.75" y="-183.5" font-family="Helvetica,sans-Serif" font-size="10.00">gui/utilwin.c</text>
</a>
</g>
</g>
<!-- Node2 -->
<g id="Node000002" class="node">
<title>Node2</title>
<g id="a_Node000002"><a xlink:title=" ">
<polygon fill="#e0e0e0" stroke="#999999" points="53.5,-22.25 0,-22.25 0,0 53.5,0 53.5,-22.25"/>
<text text-anchor="middle" x="26.75" y="-8.75" font-family="Helvetica,sans-Serif" font-size="10.00">config.h</text>
</a>
</g>
</g>
<!-- Node1&#45;&gt;Node2 -->
<g id="edge1_Node000001_Node000002" class="edge">
<title>Node1&#45;&gt;Node2</title>
<g id="a_edge1_Node000001_Node000002"><a xlink:title=" ">
<path fill="none" stroke="#63b8ff" d="M332.53,-181.82C265.52,-175.73 125.07,-160.71 81.75,-138.75 48.88,-122.09 36.96,-114.5 22.75,-80.5 16.51,-65.57 18.04,-47.18 20.83,-33.24"/>
<polygon fill="#63b8ff" stroke="#63b8ff" points="24.17,-34.34 23.1,-23.8 17.36,-32.7 24.17,-34.34"/>
</a>
</g>
</g>
<!-- Node3 -->
<g id="Node000003" class="node">
<title>Node3</title>
<g id="a_Node000003"><a xlink:title=" ">
<polygon fill="#e0e0e0" stroke="#999999" points="327.5,-80.5 268,-80.5 268,-58.25 327.5,-58.25 327.5,-80.5"/>
<text text-anchor="middle" x="297.75" y="-67" font-family="Helvetica,sans-Serif" font-size="10.00">stdbool.h</text>
</a>
</g>
</g>
<!-- Node1&#45;&gt;Node3 -->
<g id="edge2_Node000001_Node000003" class="edge">
<title>Node1&#45;&gt;Node3</title>
<g id="a_edge2_Node000001_Node000003"><a xlink:title=" ">
<path fill="none" stroke="#63b8ff" d="M367.71,-174.41C365.91,-160.31 361.23,-134.89 349.75,-116.5 342.78,-105.33 332.3,-95.3 322.57,-87.47"/>
<polygon fill="#63b8ff" stroke="#63b8ff" points="324.9,-84.85 314.82,-81.59 320.67,-90.42 324.9,-84.85"/>
</a>
</g>
</g>
<!-- Node4 -->
<g id="Node000004" class="node">
<title>Node4</title>
<g id="a_Node000004"><a xlink:title=" ">
<polygon fill="#e0e0e0" stroke="#999999" points="136.88,-22.25 82.62,-22.25 82.62,0 136.88,0 136.88,-22.25"/>
<text text-anchor="middle" x="109.75" y="-8.75" font-family="Helvetica,sans-Serif" font-size="10.00">stddef.h</text>
</a>
</g>
</g>
<!-- Node1&#45;&gt;Node4 -->
<g id="edge3_Node000001_Node000004" class="edge">
<title>Node1&#45;&gt;Node4</title>
<g id="a_edge3_Node000001_Node000004"><a xlink:title=" ">
<path fill="none" stroke="#63b8ff" d="M332.55,-182.21C275.34,-177.26 167.77,-164.69 140.75,-138.75 112.15,-111.29 108.18,-62.12 108.52,-33.81"/>
<polygon fill="#63b8ff" stroke="#63b8ff" points="112.01,-34.05 108.85,-23.94 105.02,-33.81 112.01,-34.05"/>
</a>
</g>
</g>
<!-- Node5 -->
<g id="Node000005" class="node">
<title>Node5</title>
<g id="a_Node000005"><a xlink:href="mutt_2lib_8h.html" target="_top" xlink:title="Convenience wrapper for the library headers.">
<polygon fill="#fff0f0" stroke="red" points="93.62,-80.5 31.88,-80.5 31.88,-58.25 93.62,-58.25 93.62,-80.5"/>
<text text-anchor="middle" x="62.75" y="-67" font-family="Helvetica,sans-Serif" font-size="10.00">mutt/lib.h</text>
</a>
</g>
</g>
<!-- Node1&#45;&gt;Node5 -->
<g id="edge4_Node000001_Node000005" class="edge">
<title>Node1&#45;&gt;Node5</title>
<g id="a_edge4_Node000001_Node000005"><a xlink:title=" ">
<path fill="none" stroke="#63b8ff" d="M332.93,-182.05C270.35,-176.54 144.27,-162.77 107.75,-138.75 90.46,-127.38 78.28,-106.81 70.99,-91.2"/>
<polygon fill="#63b8ff" stroke="#63b8ff" points="74.32,-90.08 67.14,-82.29 67.89,-92.86 74.32,-90.08"/>
</a>
</g>
</g>
<!-- Node54 -->
<g id="Node000054" class="node">
<title>Node54</title>
<g id="a_Node000054"><a xlink:href="core_2lib_8h.html" target="_top" xlink:title="Convenience wrapper for the core headers.">
<polygon fill="#fff0f0" stroke="red" points="456.5,-138.75 397,-138.75 397,-116.5 456.5,-116.5 456.5,-138.75"/>
<text text-anchor="middle" x="426.75" y="-125.25" font-family="Helvetica,sans-Serif" font-size="10.00">core/lib.h</text>
</a>
</g>
</g>
<!-- Node1&#45;&gt;Node54 -->
<g id="edge7_Node000001_Node000054" class="edge">
<title>Node1&#45;&gt;Node54</title>
<g id="a_edge7_Node000001_Node000054"><a xlink:title=" ">
<path fill="none" stroke="#63b8ff" d="M379.66,-174.29C387.6,-166.6 398.55,-155.97 407.89,-146.91"/>
<polygon fill="#63b8ff" stroke="#63b8ff" points="410.06,-149.69 414.8,-140.21 405.19,-144.66 410.06,-149.69"/>
</a>
</g>
</g>
<!-- Node65 -->
<g id="Node000065" class="node">
<title>Node65</title>
<g id="a_Node000065"><a xlink:href="utilwin_8h.html" target="_top" xlink:title="Utility Window.">
<polygon fill="white" stroke="#666666" points="529.25,-138.75 474.25,-138.75 474.25,-116.5 529.25,-116.5 529.25,-138.75"/>
<text text-anchor="middle" x="501.75" y="-125.25" font-family="Helvetica,sans-Serif" font-size="10.00">utilwin.h</text>
</a>
</g>
</g>
<!-- Node1&#45;&gt;Node65 -->
<g id="edge8_Node000001_Node000065" class="edge">
<title>Node1&#45;&gt;Node65</title>
<g id="a_edge8_Node000001_Node000065"><a xlink:title=" ">
<path fill="none" stroke="#63b8ff" d="M393.77,-174.29C414.29,-165.61 443.6,-153.22 466.51,-143.53"/>
<polygon fill="#63b8ff" stroke="#63b8ff" points="467.61,-146.87 475.45,-139.75 464.88,-140.42 467.61,-146.87"/>
</a>
</g>
</g>
<!-- Node66 -->
<g id="Node000066" class="node">
<title>Node66</title>
<g id="a_Node000066"><a xlink:href="color_2lib_8h.html" target="_top" xlink:title="Color and attribute parsing.">
<polygon fill="#fff0f0" stroke="red" points="654,-80.5 591.5,-80.5 591.5,-58.25 654,-58.25 654,-80.5"/>
<text text-anchor="middle" x="622.75" y="-67" font-family="Helvetica,sans-Serif" font-size="10.00">color/lib.h</text>
</a>
</g>
</g>
<!-- Node1&#45;&gt;Node66 -->
<g id="edge9_Node000001_Node000066" class="edge">
<title>Node1&#45;&gt;Node66</title>
<g id="a_edge9_Node000001_Node000066"><a xlink:title=" ">
<path fill="none" stroke="#63b8ff" d="M404.9,-184.23C471.44,-182.19 609.24,-173.73 638.75,-138.75 650.01,-125.4 643.66,-105.59 635.88,-90.72"/>
<polygon fill="#63b8ff" stroke="#63b8ff" points="639.01,-89.13 630.96,-82.24 632.95,-92.64 639.01,-89.13"/>
</a>
</g>
</g>
<!-- Node82 -->
<g id="Node000082" class="node">
<title>Node82</title>
<g id="a_Node000082"><a xlink:href="key_2lib_8h.html" target="_top" xlink:title="Manage keymappings.">
<polygon fill="#fff0f0" stroke="red" points="741.25,-138.75 686.25,-138.75 686.25,-116.5 741.25,-116.5 741.25,-138.75"/>
<text text-anchor="middle" x="713.75" y="-125.25" font-family="Helvetica,sans-Serif" font-size="10.00">key/lib.h</text>
</a>
</g>
</g>
<!-- Node1&#45;&gt;Node82 -->
<g id="edge10_Node000001_Node000082" class="edge">
<title>Node1&#45;&gt;Node82</title>
<g id="a_edge10_Node000001_Node000082"><a xlink:title=" ">
<path fill="none" stroke="#63b8ff" d="M404.84,-180.4C461.8,-173.1 575.94,-157.56 671.75,-138.75 672.75,-138.55 673.76,-138.35 674.78,-138.14"/>
<polygon fill="#63b8ff" stroke="#63b8ff" points="675.32,-141.61 684.33,-136.04 673.81,-134.77 675.32,-141.61"/>
</a>
</g>
</g>
<!-- Node95 -->
<g id="Node000095" class="node">
<title>Node95</title>
<g id="a_Node000095"><a xlink:href="gui_2module__data_8h.html" target="_top" xlink:title="Gui private Module data.">
<polygon fill="white" stroke="#666666" points="340.25,-138.75 255.25,-138.75 255.25,-116.5 340.25,-116.5 340.25,-138.75"/>
<text text-anchor="middle" x="297.75" y="-125.25" font-family="Helvetica,sans-Serif" font-size="10.00">module_data.h</text>
</a>
</g>
</g>
<!-- Node1&#45;&gt;Node95 -->
<g id="edge11_Node000001_Node000095" class="edge">
<title>Node1&#45;&gt;Node95</title>
<g id="a_edge11_Node000001_Node000095"><a xlink:title=" ">
<path fill="none" stroke="#63b8ff" d="M355.4,-174.29C345.38,-166.36 331.45,-155.32 319.79,-146.09"/>
<polygon fill="#63b8ff" stroke="#63b8ff" points="322.24,-143.56 312.23,-140.1 317.9,-149.05 322.24,-143.56"/>
</a>
</g>
</g>
<!-- Node96 -->
<g id="Node000096" class="node">
<title>Node96</title>
<g id="a_Node000096"><a xlink:href="mutt__curses_8h.html" target="_top" xlink:title="Define wrapper functions around Curses.">
<polygon fill="#fff0f0" stroke="red" points="629.75,-138.75 547.75,-138.75 547.75,-116.5 629.75,-116.5 629.75,-138.75"/>
<text text-anchor="middle" x="588.75" y="-125.25" font-family="Helvetica,sans-Serif" font-size="10.00">mutt_curses.h</text>
</a>
</g>
</g>
<!-- Node1&#45;&gt;Node96 -->
<g id="edge13_Node000001_Node000096" class="edge">
<title>Node1&#45;&gt;Node96</title>
<g id="a_edge13_Node000001_Node000096"><a xlink:title=" ">
<path fill="none" stroke="#63b8ff" d="M404.59,-175.71C440.31,-166.58 495.57,-152.45 536.25,-142.05"/>
<polygon fill="#63b8ff" stroke="#63b8ff" points="537.01,-145.47 545.84,-139.6 535.28,-138.68 537.01,-145.47"/>
</a>
</g>
</g>
<!-- Node98 -->
<g id="Node000098" class="node">
<title>Node98</title>
<g id="a_Node000098"><a xlink:href="mutt__window_8h.html" target="_top" xlink:title="Window management.">
<polygon fill="#fff0f0" stroke="red" points="237.38,-138.75 150.12,-138.75 150.12,-116.5 237.38,-116.5 237.38,-138.75"/>
<text text-anchor="middle" x="193.75" y="-125.25" font-family="Helvetica,sans-Serif" font-size="10.00">mutt_window.h</text>
</a>
</g>
</g>
<!-- Node1&#45;&gt;Node98 -->
<g id="edge15_Node000001_Node000098" class="edge">
<title>Node1&#45;&gt;Node98</title>
<g id="a_edge15_Node000001_Node000098"><a xlink:title=" ">
<path fill="none" stroke="#63b8ff" d="M335.83,-174.29C307.97,-165.34 267.81,-152.43 237.29,-142.62"/>
<polygon fill="#63b8ff" stroke="#63b8ff" points="238.55,-139.35 227.96,-139.62 236.41,-146.01 238.55,-139.35"/>
</a>
</g>
</g>
<!-- Node5&#45;&gt;Node2 -->
<g id="edge5_Node000005_Node000002" class="edge">
<title>Node5&#45;&gt;Node2</title>
<g id="a_edge5_Node000005_Node000002"><a xlink:title=" ">
<path fill="none" stroke="#63b8ff" d="M55.98,-57.79C51.35,-50.57 45.08,-40.76 39.53,-32.09"/>
<polygon fill="#63b8ff" stroke="#63b8ff" points="42.65,-30.47 34.31,-23.93 36.75,-34.24 42.65,-30.47"/>
</a>
</g>
</g>
<!-- Node5&#45;&gt;Node4 -->
<g id="edge6_Node000005_Node000004" class="edge">
<title>Node5&#45;&gt;Node4</title>
<g id="a_edge6_Node000005_Node000004"><a xlink:title=" ">
<path fill="none" stroke="#63b8ff" d="M71.59,-57.79C77.83,-50.33 86.36,-40.12 93.77,-31.25"/>
<polygon fill="#63b8ff" stroke="#63b8ff" points="96.25,-33.74 99.98,-23.82 90.88,-29.25 96.25,-33.74"/>
</a>
</g>
</g>
<!-- Node95&#45;&gt;Node3 -->
<g id="edge12_Node000095_Node000003" class="edge">
<title>Node95&#45;&gt;Node3</title>
<g id="a_edge12_Node000095_Node000003"><a xlink:title=" ">
<path fill="none" stroke="#63b8ff" d="M297.75,-116.04C297.75,-109.37 297.75,-100.49 297.75,-92.34"/>
<polygon fill="#63b8ff" stroke="#63b8ff" points="301.25,-92.42 297.75,-82.42 294.25,-92.42 301.25,-92.42"/>
</a>
</g>
</g>
<!-- Node96&#45;&gt;Node66 -->
<g id="edge14_Node000096_Node000066" class="edge">
<title>Node96&#45;&gt;Node66</title>
<g id="a_edge14_Node000096_Node000066"><a xlink:title=" ">
<path fill="none" stroke="#63b8ff" d="M595.15,-116.04C599.47,-108.9 605.31,-99.23 610.51,-90.63"/>
<polygon fill="#63b8ff" stroke="#63b8ff" points="613.42,-92.57 615.6,-82.2 607.43,-88.95 613.42,-92.57"/>
</a>
</g>
</g>
<!-- Node98&#45;&gt;Node3 -->
<g id="edge16_Node000098_Node000003" class="edge">
<title>Node98&#45;&gt;Node3</title>
<g id="a_edge16_Node000098_Node000003"><a xlink:title=" ">
<path fill="none" stroke="#63b8ff" d="M213.31,-116.04C228.85,-107.64 250.84,-95.75 268.47,-86.21"/>
<polygon fill="#63b8ff" stroke="#63b8ff" points="269.81,-89.46 276.94,-81.63 266.48,-83.31 269.81,-89.46"/>
</a>
</g>
</g>
<!-- Node98&#45;&gt;Node5 -->
<g id="edge17_Node000098_Node000005" class="edge">
<title>Node98&#45;&gt;Node5</title>
<g id="a_edge17_Node000098_Node000005"><a xlink:title=" ">
<path fill="none" stroke="#63b8ff" d="M169.11,-116.04C148.98,-107.4 120.29,-95.08 97.77,-85.41"/>
<polygon fill="#63b8ff" stroke="#63b8ff" points="99.24,-82.23 88.67,-81.5 96.48,-88.67 99.24,-82.23"/>
</a>
</g>
</g>
</g>
</svg>
