<?xml version="1.0" encoding="UTF-8" standalone="no"?>
<!DOCTYPE svg PUBLIC "-//W3C//DTD SVG 1.1//EN"
 "http://www.w3.org/Graphics/SVG/1.1/DTD/svg11.dtd">
<!-- Generated by graphviz version 7.1.0 (0)
 -->
<!-- Title: imap_hcache_get Pages: 1 -->
<svg width="217pt" height="64pt"
 viewBox="0.00 0.00 217.00 64.00" xmlns="http://www.w3.org/2000/svg" xmlns:xlink="http://www.w3.org/1999/xlink">
<g id="graph0" class="graph" transform="scale(1 1) rotate(0) translate(4 60)">
<title>imap_hcache_get</title>
<!-- Node1 -->
<g id="node1" class="node">
<title>Node1</title>
<g id="a_node1"><a xlink:title="Get a header cache entry by its UID.">
<polygon fill="#999999" stroke="#666666" points="96,-37 0,-37 0,-18 96,-18 96,-37"/>
<text text-anchor="middle" x="48" y="-25" font-family="Helvetica,sans-Serif" font-size="10.00">imap_hcache_get</text>
</a>
</g>
</g>
<!-- Node2 -->
<g id="node2" class="node">
<title>Node2</title>
<g id="a_node2"><a xlink:href="hcache_8c.html#a21a0479f57f4514504764b918a2753b6" target="_top" xlink:title="Multiplexor for StoreOps::fetch.">
<polygon fill="#fff0f0" stroke="red" points="209,-56 132,-56 132,-37 209,-37 209,-56"/>
<text text-anchor="middle" x="170.5" y="-44" font-family="Helvetica,sans-Serif" font-size="10.00">hcache_fetch</text>
</a>
</g>
</g>
<!-- Node1&#45;&gt;Node2 -->
<g id="edge1" class="edge">
<title>Node1&#45;&gt;Node2</title>
<path fill="none" stroke="#63b8ff" d="M96.28,-34.95C104.16,-36.2 112.36,-37.49 120.29,-38.74"/>
<polygon fill="#63b8ff" stroke="#63b8ff" points="119.74,-42.2 130.16,-40.3 120.83,-35.28 119.74,-42.2"/>
</g>
<!-- Node107 -->
<g id="node3" class="node">
<title>Node107</title>
<g id="a_node3"><a xlink:href="mutt_2string_8c.html#acca6786b903b22a5924219f9db96e10d" target="_top" xlink:title="Calculate the length of a string, safely.">
<polygon fill="white" stroke="#666666" points="208,-19 133,-19 133,0 208,0 208,-19"/>
<text text-anchor="middle" x="170.5" y="-7" font-family="Helvetica,sans-Serif" font-size="10.00">mutt_str_len</text>
</a>
</g>
</g>
<!-- Node1&#45;&gt;Node107 -->
<g id="edge2" class="edge">
<title>Node1&#45;&gt;Node107</title>
<path fill="none" stroke="#63b8ff" d="M96.28,-20.44C104.62,-19.19 113.31,-17.89 121.66,-16.65"/>
<polygon fill="#63b8ff" stroke="#63b8ff" points="121.92,-20.15 131.29,-15.21 120.88,-13.22 121.92,-20.15"/>
</g>
</g>
</svg>
