<?xml version="1.0" encoding="UTF-8" standalone="no"?>
<!DOCTYPE svg PUBLIC "-//W3C//DTD SVG 1.1//EN"
 "http://www.w3.org/Graphics/SVG/1.1/DTD/svg11.dtd">
<!-- Generated by graphviz version 7.1.0 (0)
 -->
<!-- Title: version.h Pages: 1 -->
<svg width="738pt" height="82pt"
 viewBox="0.00 0.00 737.50 82.00" xmlns="http://www.w3.org/2000/svg" xmlns:xlink="http://www.w3.org/1999/xlink">
<g id="graph0" class="graph" transform="scale(1 1) rotate(0) translate(4 78)">
<title>version.h</title>
<!-- Node1 -->
<g id="node1" class="node">
<title>Node1</title>
<g id="a_node1"><a xlink:title="Display version and copyright about NeoMutt.">
<polygon fill="#999999" stroke="#666666" points="453,-74 393,-74 393,-55 453,-55 453,-74"/>
<text text-anchor="middle" x="423" y="-62" font-family="Helvetica,sans-Serif" font-size="10.00">version.h</text>
</a>
</g>
</g>
<!-- Node2 -->
<g id="node2" class="node">
<title>Node2</title>
<g id="a_node2"><a xlink:href="commands_8c.html" target="_top" xlink:title="Functions to parse commands in a config file.">
<polygon fill="white" stroke="#666666" points="74,-19 0,-19 0,0 74,0 74,-19"/>
<text text-anchor="middle" x="37" y="-7" font-family="Helvetica,sans-Serif" font-size="10.00">commands.c</text>
</a>
</g>
</g>
<!-- Node1&#45;&gt;Node2 -->
<g id="edge1" class="edge">
<title>Node1&#45;&gt;Node2</title>
<path fill="none" stroke="#63b8ff" d="M381.69,-58.8C317.6,-51.36 190.4,-35.94 83,-19 80.11,-18.54 77.13,-18.05 74.13,-17.53"/>
<polygon fill="#63b8ff" stroke="#63b8ff" points="381.07,-62.25 391.4,-59.93 381.87,-55.3 381.07,-62.25"/>
</g>
<!-- Node3 -->
<g id="node3" class="node">
<title>Node3</title>
<g id="a_node3"><a xlink:href="compose_2expando_8c.html" target="_top" xlink:title="Alias Expando definitions.">
<polygon fill="white" stroke="#666666" points="202,-19 92,-19 92,0 202,0 202,-19"/>
<text text-anchor="middle" x="147" y="-7" font-family="Helvetica,sans-Serif" font-size="10.00">compose/expando.c</text>
</a>
</g>
</g>
<!-- Node1&#45;&gt;Node3 -->
<g id="edge2" class="edge">
<title>Node1&#45;&gt;Node3</title>
<path fill="none" stroke="#63b8ff" d="M381.54,-55.54C331.06,-45.85 246.06,-29.52 193.43,-19.42"/>
<polygon fill="#63b8ff" stroke="#63b8ff" points="380.71,-58.94 391.19,-57.39 382.03,-52.07 380.71,-58.94"/>
</g>
<!-- Node4 -->
<g id="node4" class="node">
<title>Node4</title>
<g id="a_node4"><a xlink:href="global_8c.html" target="_top" xlink:title="Global functions.">
<polygon fill="white" stroke="#666666" points="290,-19 220,-19 220,0 290,0 290,-19"/>
<text text-anchor="middle" x="255" y="-7" font-family="Helvetica,sans-Serif" font-size="10.00">gui/global.c</text>
</a>
</g>
</g>
<!-- Node1&#45;&gt;Node4 -->
<g id="edge3" class="edge">
<title>Node1&#45;&gt;Node4</title>
<path fill="none" stroke="#63b8ff" d="M383.73,-51.11C352.97,-41.41 310.91,-28.14 283.36,-19.45"/>
<polygon fill="#63b8ff" stroke="#63b8ff" points="382.47,-54.38 393.06,-54.05 384.57,-47.71 382.47,-54.38"/>
</g>
<!-- Node5 -->
<g id="node5" class="node">
<title>Node5</title>
<g id="a_node5"><a xlink:href="expando__status_8c.html" target="_top" xlink:title="GUI display a user&#45;configurable status line.">
<polygon fill="white" stroke="#666666" points="433.5,-19 308.5,-19 308.5,0 433.5,0 433.5,-19"/>
<text text-anchor="middle" x="371" y="-7" font-family="Helvetica,sans-Serif" font-size="10.00">index/expando_status.c</text>
</a>
</g>
</g>
<!-- Node1&#45;&gt;Node5 -->
<g id="edge4" class="edge">
<title>Node1&#45;&gt;Node5</title>
<path fill="none" stroke="#63b8ff" d="M406.59,-46.78C397.71,-37.72 387.09,-26.9 379.77,-19.44"/>
<polygon fill="#63b8ff" stroke="#63b8ff" points="403.85,-48.98 413.35,-53.67 408.85,-44.08 403.85,-48.98"/>
</g>
<!-- Node6 -->
<g id="node6" class="node">
<title>Node6</title>
<g id="a_node6"><a xlink:href="main_8c.html" target="_top" xlink:title="Command line processing.">
<polygon fill="white" stroke="#666666" points="498.5,-19 451.5,-19 451.5,0 498.5,0 498.5,-19"/>
<text text-anchor="middle" x="475" y="-7" font-family="Helvetica,sans-Serif" font-size="10.00">main.c</text>
</a>
</g>
</g>
<!-- Node1&#45;&gt;Node6 -->
<g id="edge5" class="edge">
<title>Node1&#45;&gt;Node6</title>
<path fill="none" stroke="#63b8ff" d="M439.41,-46.78C448.29,-37.72 458.91,-26.9 466.23,-19.44"/>
<polygon fill="#63b8ff" stroke="#63b8ff" points="437.15,-44.08 432.65,-53.67 442.15,-48.98 437.15,-44.08"/>
</g>
<!-- Node7 -->
<g id="node7" class="node">
<title>Node7</title>
<g id="a_node7"><a xlink:href="mutt__lua_8c.html" target="_top" xlink:title="Integrated Lua scripting.">
<polygon fill="white" stroke="#666666" points="581.5,-19 516.5,-19 516.5,0 581.5,0 581.5,-19"/>
<text text-anchor="middle" x="549" y="-7" font-family="Helvetica,sans-Serif" font-size="10.00">mutt_lua.c</text>
</a>
</g>
</g>
<!-- Node1&#45;&gt;Node7 -->
<g id="edge6" class="edge">
<title>Node1&#45;&gt;Node7</title>
<path fill="none" stroke="#63b8ff" d="M454.95,-50.06C477.84,-40.43 508.02,-27.74 527.94,-19.36"/>
<polygon fill="#63b8ff" stroke="#63b8ff" points="453.63,-46.82 445.77,-53.92 456.34,-53.27 453.63,-46.82"/>
</g>
<!-- Node8 -->
<g id="node8" class="node">
<title>Node8</title>
<g id="a_node8"><a xlink:href="usage_8c.html" target="_top" xlink:title="Display Usage Information for NeoMutt.">
<polygon fill="white" stroke="#666666" points="652,-19 600,-19 600,0 652,0 652,-19"/>
<text text-anchor="middle" x="626" y="-7" font-family="Helvetica,sans-Serif" font-size="10.00">usage.c</text>
</a>
</g>
</g>
<!-- Node1&#45;&gt;Node8 -->
<g id="edge7" class="edge">
<title>Node1&#45;&gt;Node8</title>
<path fill="none" stroke="#63b8ff" d="M464.5,-52.67C504.97,-42.1 565.29,-26.35 599.61,-17.39"/>
<polygon fill="#63b8ff" stroke="#63b8ff" points="463.65,-49.27 454.86,-55.18 465.42,-56.04 463.65,-49.27"/>
</g>
<!-- Node9 -->
<g id="node9" class="node">
<title>Node9</title>
<g id="a_node9"><a xlink:href="version_8c.html" target="_top" xlink:title="Display version and copyright about NeoMutt.">
<polygon fill="white" stroke="#666666" points="729.5,-19 670.5,-19 670.5,0 729.5,0 729.5,-19"/>
<text text-anchor="middle" x="700" y="-7" font-family="Helvetica,sans-Serif" font-size="10.00">version.c</text>
</a>
</g>
</g>
<!-- Node1&#45;&gt;Node9 -->
<g id="edge8" class="edge">
<title>Node1&#45;&gt;Node9</title>
<path fill="none" stroke="#63b8ff" d="M464.56,-56.12C512.12,-47.58 592.3,-32.91 661,-19 663.99,-18.4 667.1,-17.75 670.21,-17.09"/>
<polygon fill="#63b8ff" stroke="#63b8ff" points="464.2,-52.62 454.98,-57.83 465.44,-59.51 464.2,-52.62"/>
</g>
</g>
</svg>
