<?xml version="1.0" encoding="UTF-8" standalone="no"?>
<!DOCTYPE svg PUBLIC "-//W3C//DTD SVG 1.1//EN"
 "http://www.w3.org/Graphics/SVG/1.1/DTD/svg11.dtd">
<!-- Generated by graphviz version 2.40.1 (20161225.0304)
 -->
<!-- Title: conn/zstrm.c Pages: 1 -->
<svg width="521pt" height="140pt"
 viewBox="0.00 0.00 520.74 140.00" xmlns="http://www.w3.org/2000/svg" xmlns:xlink="http://www.w3.org/1999/xlink">
<g id="graph0" class="graph" transform="scale(1 1) rotate(0) translate(4 136)">
<title>conn/zstrm.c</title>
<polygon fill="#ffffff" stroke="transparent" points="-4,4 -4,-136 516.7383,-136 516.7383,4 -4,4"/>
<!-- Node0 -->
<g id="node1" class="node">
<title>Node0</title>
<polygon fill="#bfbfbf" stroke="#000000" points="217.7383,-112.5 217.7383,-131.5 296.7383,-131.5 296.7383,-112.5 217.7383,-112.5"/>
<text text-anchor="middle" x="257.2383" y="-119.5" font-family="Helvetica,sans-Serif" font-size="10.00" fill="#000000">conn/zstrm.c</text>
</g>
<!-- Node1 -->
<g id="node2" class="node">
<title>Node1</title>
<polygon fill="#ffffff" stroke="#bfbfbf" points="183.7383,-.5 183.7383,-19.5 238.7383,-19.5 238.7383,-.5 183.7383,-.5"/>
<text text-anchor="middle" x="211.2383" y="-7.5" font-family="Helvetica,sans-Serif" font-size="10.00" fill="#000000">config.h</text>
</g>
<!-- Node0&#45;&gt;Node1 -->
<g id="edge1" class="edge">
<title>Node0&#45;&gt;Node1</title>
<path fill="none" stroke="#191970" d="M217.5783,-120.7487C153.3251,-117.7943 30.9485,-108.0046 4.2383,-76 -1.4573,-69.1755 -1.3237,-62.9337 4.2383,-56 25.0243,-30.0878 119.3752,-17.8492 173.2411,-12.8831"/>
<polygon fill="#191970" stroke="#191970" points="173.7863,-16.3487 183.4407,-11.9849 173.1722,-9.3757 173.7863,-16.3487"/>
</g>
<!-- Node2 -->
<g id="node3" class="node">
<title>Node2</title>
<polygon fill="#ffffff" stroke="#bfbfbf" points="13.2383,-56.5 13.2383,-75.5 75.2383,-75.5 75.2383,-56.5 13.2383,-56.5"/>
<text text-anchor="middle" x="44.2383" y="-63.5" font-family="Helvetica,sans-Serif" font-size="10.00" fill="#000000">stdbool.h</text>
</g>
<!-- Node0&#45;&gt;Node2 -->
<g id="edge2" class="edge">
<title>Node0&#45;&gt;Node2</title>
<path fill="none" stroke="#191970" d="M220.6223,-112.3733C182.9817,-102.4772 124.4893,-87.0989 85.3001,-76.7956"/>
<polygon fill="#191970" stroke="#191970" points="86.0926,-73.3851 75.5313,-74.2273 84.3126,-80.155 86.0926,-73.3851"/>
</g>
<!-- Node3 -->
<g id="node4" class="node">
<title>Node3</title>
<polygon fill="#ffffff" stroke="#bfbfbf" points="93.7383,-56.5 93.7383,-75.5 146.7383,-75.5 146.7383,-56.5 93.7383,-56.5"/>
<text text-anchor="middle" x="120.2383" y="-63.5" font-family="Helvetica,sans-Serif" font-size="10.00" fill="#000000">string.h</text>
</g>
<!-- Node0&#45;&gt;Node3 -->
<g id="edge3" class="edge">
<title>Node0&#45;&gt;Node3</title>
<path fill="none" stroke="#191970" d="M233.6871,-112.3733C211.3992,-103.2629 177.7446,-89.5062 152.8746,-79.3404"/>
<polygon fill="#191970" stroke="#191970" points="154.063,-76.0451 143.4821,-75.5011 151.4143,-82.5247 154.063,-76.0451"/>
</g>
<!-- Node4 -->
<g id="node5" class="node">
<title>Node4</title>
<polygon fill="#ffffff" stroke="#bfbfbf" points="165.2383,-56.5 165.2383,-75.5 213.2383,-75.5 213.2383,-56.5 165.2383,-56.5"/>
<text text-anchor="middle" x="189.2383" y="-63.5" font-family="Helvetica,sans-Serif" font-size="10.00" fill="#000000">time.h</text>
</g>
<!-- Node0&#45;&gt;Node4 -->
<g id="edge4" class="edge">
<title>Node0&#45;&gt;Node4</title>
<path fill="none" stroke="#191970" d="M245.3936,-112.2455C235.3503,-103.9746 220.7388,-91.9416 208.9379,-82.2232"/>
<polygon fill="#191970" stroke="#191970" points="210.8915,-79.298 200.9472,-75.6427 206.4416,-84.7015 210.8915,-79.298"/>
</g>
<!-- Node5 -->
<g id="node6" class="node">
<title>Node5</title>
<polygon fill="#ffffff" stroke="#bfbfbf" points="231.7383,-56.5 231.7383,-75.5 282.7383,-75.5 282.7383,-56.5 231.7383,-56.5"/>
<text text-anchor="middle" x="257.2383" y="-63.5" font-family="Helvetica,sans-Serif" font-size="10.00" fill="#000000">zconf.h</text>
</g>
<!-- Node0&#45;&gt;Node5 -->
<g id="edge5" class="edge">
<title>Node0&#45;&gt;Node5</title>
<path fill="none" stroke="#191970" d="M257.2383,-112.2455C257.2383,-104.9382 257.2383,-94.6944 257.2383,-85.7046"/>
<polygon fill="#191970" stroke="#191970" points="260.7384,-85.6426 257.2383,-75.6427 253.7384,-85.6427 260.7384,-85.6426"/>
</g>
<!-- Node6 -->
<g id="node7" class="node">
<title>Node6</title>
<polygon fill="#ffffff" stroke="#bfbfbf" points="300.7383,-56.5 300.7383,-75.5 343.7383,-75.5 343.7383,-56.5 300.7383,-56.5"/>
<text text-anchor="middle" x="322.2383" y="-63.5" font-family="Helvetica,sans-Serif" font-size="10.00" fill="#000000">zlib.h</text>
</g>
<!-- Node0&#45;&gt;Node6 -->
<g id="edge6" class="edge">
<title>Node0&#45;&gt;Node6</title>
<path fill="none" stroke="#191970" d="M268.5604,-112.2455C278.1606,-103.9746 292.1275,-91.9416 303.4077,-82.2232"/>
<polygon fill="#191970" stroke="#191970" points="305.7543,-84.8214 311.0459,-75.6427 301.1853,-79.5182 305.7543,-84.8214"/>
</g>
<!-- Node7 -->
<g id="node8" class="node">
<title>Node7</title>
<g id="a_node8"><a xlink:href="mutt_2lib_8h.html" target="_top" xlink:title="Convenience wrapper for the library headers. ">
<polygon fill="#ffffff" stroke="#ff0000" points="362.2383,-56.5 362.2383,-75.5 426.2383,-75.5 426.2383,-56.5 362.2383,-56.5"/>
<text text-anchor="middle" x="394.2383" y="-63.5" font-family="Helvetica,sans-Serif" font-size="10.00" fill="#000000">mutt/lib.h</text>
</a>
</g>
</g>
<!-- Node0&#45;&gt;Node7 -->
<g id="edge7" class="edge">
<title>Node0&#45;&gt;Node7</title>
<path fill="none" stroke="#191970" d="M280.7894,-112.3733C303.0773,-103.2629 336.7319,-89.5062 361.602,-79.3404"/>
<polygon fill="#191970" stroke="#191970" points="363.0622,-82.5247 370.9945,-75.5011 360.4136,-76.0451 363.0622,-82.5247"/>
</g>
<!-- Node50 -->
<g id="node9" class="node">
<title>Node50</title>
<g id="a_node9"><a xlink:href="zstrm_8h.html" target="_top" xlink:title="Zlib compression of network traffic. ">
<polygon fill="#ffffff" stroke="#000000" points="459.7383,-.5 459.7383,-19.5 512.7383,-19.5 512.7383,-.5 459.7383,-.5"/>
<text text-anchor="middle" x="486.2383" y="-7.5" font-family="Helvetica,sans-Serif" font-size="10.00" fill="#000000">zstrm.h</text>
</a>
</g>
</g>
<!-- Node0&#45;&gt;Node50 -->
<g id="edge8" class="edge">
<title>Node0&#45;&gt;Node50</title>
<path fill="none" stroke="#191970" d="M297.105,-120.0804C357.3414,-116.2514 467.1068,-105.3372 491.2383,-76 501.8117,-63.1457 498.8197,-43.709 494.228,-29.2534"/>
<polygon fill="#191970" stroke="#191970" points="497.4856,-27.9702 490.7729,-19.7732 490.9087,-30.3672 497.4856,-27.9702"/>
</g>
<!-- Node51 -->
<g id="node10" class="node">
<title>Node51</title>
<g id="a_node10"><a xlink:href="conn_2lib_8h.html" target="_top" xlink:title="Connection Library. ">
<polygon fill="#ffffff" stroke="#ff0000" points="444.2383,-56.5 444.2383,-75.5 482.2383,-75.5 482.2383,-56.5 444.2383,-56.5"/>
<text text-anchor="middle" x="463.2383" y="-63.5" font-family="Helvetica,sans-Serif" font-size="10.00" fill="#000000">lib.h</text>
</a>
</g>
</g>
<!-- Node0&#45;&gt;Node51 -->
<g id="edge9" class="edge">
<title>Node0&#45;&gt;Node51</title>
<path fill="none" stroke="#191970" d="M296.7631,-112.8678C330.8995,-104.7402 381.7085,-92.0715 434.2147,-76.1298"/>
<polygon fill="#191970" stroke="#191970" points="435.5022,-79.3958 444.0349,-73.1154 433.448,-72.704 435.5022,-79.3958"/>
</g>
<!-- Node51&#45;&gt;Node1 -->
<g id="edge10" class="edge">
<title>Node51&#45;&gt;Node1</title>
<path fill="none" stroke="#191970" d="M444.073,-58.7548C441.1354,-57.761 438.1214,-56.8066 435.2383,-56 370.6425,-37.9289 293.742,-23.6746 248.9147,-16.0703"/>
<polygon fill="#191970" stroke="#191970" points="249.2157,-12.572 238.7748,-14.3711 248.0588,-19.4757 249.2157,-12.572"/>
</g>
<!-- Node51&#45;&gt;Node50 -->
<g id="edge11" class="edge">
<title>Node51&#45;&gt;Node50</title>
<path fill="none" stroke="#191970" d="M467.2446,-56.2455C470.3117,-48.7776 474.6386,-38.2427 478.388,-29.1137"/>
<polygon fill="#191970" stroke="#191970" points="481.7162,-30.2226 482.2779,-19.6427 475.2411,-27.5631 481.7162,-30.2226"/>
</g>
</g>
</svg>
